<svg width="512" height="512" viewBox="0 0 512 512" fill="none" xmlns="http://www.w3.org/2000/svg">
<path fill-rule="evenodd" clip-rule="evenodd" d="M256 0C397.395 0 512 114.605 512 256C512 397.395 397.395 512 256 512C114.605 512 0 397.395 0 256C0 114.605 114.605 0 256 0Z" fill="#FAC315"/>
<path d="M141.74 256.45L141.923 323.258L198.922 356.663V395.776L108.564 342.997V236.913L141.74 256.45ZM141.74 189.641V228.573L108.544 209.016V170.085L141.74 150.528L175.098 170.085L141.74 189.641ZM222.726 170.085L255.922 150.528L289.28 170.085L255.922 189.641L222.726 170.085Z" fill="white"/>
<path d="M166.4 309.643V270.473L199.501 290.058V329.046L166.4 309.643ZM223.237 370.995L256.337 390.58L289.6 370.995V409.983L256.337 429.568L223.237 409.983V370.995ZM337.072 170.113L370.173 150.528L403.436 170.113V209.101L370.173 228.687V189.699L337.072 170.113ZM370.173 323.511L370.355 256.605L403.456 237.02V343.259L313.356 396.115V356.944L370.173 323.511Z" fill="white"/>
<path d="M346.112 309.2L313.344 328.704V289.512L346.112 269.824V309.2Z" fill="white"/>
<path d="M345.93 202.877L346.112 242.051L289.274 275.506V342.58L256.266 361.984L223.259 342.58V275.506L166.42 242.051V202.877L199.569 183.291L256.064 216.908L312.902 183.291L346.072 202.877H345.93ZM166.4 135.986L256.084 82.944L345.93 135.986L312.923 155.573L256.084 121.955L199.408 155.573L166.4 135.986Z" fill="white"/>
</svg>
