<svg width="154" height="256" viewBox="0 0 154 256" fill="none" xmlns="http://www.w3.org/2000/svg">
<path fill-rule="evenodd" clip-rule="evenodd" d="M92.2392 88.7638L138.359 61.7487V115.779L92.2392 88.7638ZM138.359 204.543L76.866 240.563L15.3732 204.543V141.508L76.866 177.528L138.359 141.508V204.543ZM15.3732 61.7487L61.4928 88.7638L15.3732 115.779V61.7487ZM84.5526 101.628L130.672 128.643L84.5526 155.658V101.628ZM69.1794 155.658L23.0598 128.643L69.1794 101.628V155.658ZM130.672 48.8844L76.866 79.7588L23.0598 48.8844L76.866 16.7236L130.672 48.8844ZM0 43.7387V212.261L76.866 256L153.732 212.261V43.7387L76.866 0L0 43.7387Z" fill="black"/>
</svg>
