<svg width="512" height="512" viewBox="0 0 512 512" fill="none" xmlns="http://www.w3.org/2000/svg">
<path d="M256 512C397.385 512 512 397.385 512 256C512 114.615 397.385 0 256 0C114.615 0 0 114.615 0 256C0 397.385 114.615 512 256 512Z" fill="#13B5EC"/>
<path fill-rule="evenodd" clip-rule="evenodd" d="M278.528 199.677L345.344 160.722V238.633L278.528 199.677ZM345.344 366.631L256.256 418.572L167.168 366.631V275.734L256.256 327.675L345.344 275.734V366.631ZM167.168 160.722L233.984 199.677L167.168 238.633V160.722ZM267.392 218.228L334.208 257.184L267.392 296.139V218.228ZM245.12 296.139L178.304 257.184L245.12 218.228V296.139ZM334.208 142.171L256.256 186.692L178.304 142.171L256.256 95.7955L334.208 142.171ZM144.896 134.751V377.761L256.256 440.832L367.616 377.761V134.751L256.256 71.68L144.896 134.751Z" fill="white"/>
</svg>
