<svg xmlns="http://www.w3.org/2000/svg" fill="none" viewBox="0 0 1000 1000"><g clip-path="url(#a)"><path fill="#04795C" d="M500 1000A500 500 0 1 0 500 0a500 500 0 0 0 0 1000Z"/><path fill="#fff" d="M360 547c20 0 39-7 54-18L290 405a88 88 0 0 0 70 142Zm369-89c0-20-7-39-19-54L586 528a88 88 0 0 0 129-23c9-14 14-30 14-47Z"/><path fill="#fff" d="m791 324-55 55a124 124 0 0 1-42 194 125 125 0 0 1-134-18l-60 60-60-60a125 125 0 0 1-176-176l-55-55a340 340 0 1 0 582 0Z"/><path fill="#fff" d="M746 265a339 339 0 0 0-516 28l270 270 270-270c-7-10-15-19-24-28Zm-246-61c80 0 154 31 209 87L500 500 291 291c56-56 130-87 209-87Z"/></g><defs><clipPath id="a"><path fill="#fff" d="M0 0h1000v1000H0z"/></clipPath></defs></svg>