<svg width="512" height="512" viewBox="0 0 512 512" fill="none" xmlns="http://www.w3.org/2000/svg">
<path fill-rule="evenodd" clip-rule="evenodd" d="M512 256C512 397.385 397.385 512 256 512C114.615 512 0 397.385 0 256C0 114.615 114.615 0 256 0C397.385 0 512 114.615 512 256Z" fill="black"/>
<path d="M349.069 203.14C374.436 203.14 395 182.289 395 156.57C395 130.85 374.436 110 349.069 110C323.703 110 303.139 130.85 303.139 156.57C303.139 182.289 323.703 203.14 349.069 203.14Z" fill="white"/>
<path d="M355.049 391L130 390.999V150.576H181.491V344.405H355.049V391Z" fill="white"/>
</svg>
