<svg width="512" height="512" viewBox="0 0 512 512" fill="none" xmlns="http://www.w3.org/2000/svg">
<path fill-rule="evenodd" clip-rule="evenodd" d="M512 256C512 397.385 397.385 512 256 512C114.615 512 0 397.385 0 256C0 114.615 114.615 0 256 0C397.385 0 512 114.615 512 256Z" fill="black"/>
<path d="M256 175C283.613 175 306 152.614 306 125C306 97.3858 283.613 75 256 75C228.386 75 206 97.3858 206 125C206 152.614 228.386 175 256 175Z" fill="#FAF9F5"/>
<path d="M395.889 279.1C371.857 265.393 341.089 273.508 327.252 297.317C322.52 305.433 320.335 314.452 320.516 323.289C321.063 345.294 301.037 356.657 282.102 345.294C281.374 344.932 280.646 344.392 279.735 344.031C260.62 333.39 260.62 310.845 279.735 300.384C295.393 291.906 306.134 275.493 306.134 256.555C306.134 256.194 306.134 255.833 306.134 255.473C305.588 233.468 325.614 222.106 344.549 233.468C359.659 242.667 379.322 243.389 395.706 234.01C419.738 220.302 427.931 189.82 414.095 166.013C400.258 142.205 369.49 134.088 345.458 147.796C329.074 157.175 319.97 174.49 320.335 191.985C320.881 213.989 300.854 225.353 282.102 213.989C274.456 209.3 265.534 206.594 255.886 206.594C246.236 206.594 237.316 209.3 229.669 213.809C210.736 224.991 190.891 213.628 191.437 191.804C191.802 174.129 182.699 156.994 166.314 147.616C142.282 133.908 111.514 142.205 97.6777 166.013C83.8413 189.82 92.2159 220.302 116.248 234.01C132.633 243.389 152.295 242.486 167.406 233.468C186.34 222.106 206.184 233.468 205.638 255.473C205.638 255.833 205.638 256.194 205.638 256.555C205.638 275.493 216.197 291.906 232.037 300.384C251.152 311.025 251.152 333.57 232.037 344.031C231.308 344.392 230.58 344.932 229.852 345.294C210.918 356.477 191.073 345.113 191.62 323.289C191.802 314.452 189.617 305.433 184.883 297.137C171.047 273.328 140.279 265.212 116.248 278.92C92.2159 292.988 84.0233 323.469 97.8597 347.278C111.696 371.086 142.464 379.202 166.496 365.494C166.86 365.314 167.042 365.134 167.406 364.953C186.34 353.59 206.184 364.953 205.638 386.957C205.638 387.318 205.638 387.679 205.638 388.219C205.638 415.635 228.213 438 255.886 438C283.559 438 306.134 415.635 306.134 388.219C306.134 387.859 306.134 387.499 306.134 387.138C305.588 365.134 325.614 353.771 344.549 365.134C344.912 365.314 345.277 365.494 345.641 365.856C369.672 379.562 400.44 371.446 414.276 347.638C428.113 323.289 419.92 292.808 395.889 279.1Z" fill="#FAF9F5"/>
</svg>
