<svg xmlns="http://www.w3.org/2000/svg" fill="none" viewBox="0 0 211 256"><path fill="#033DF5" d="M200.375 21.146q-1.467-.04-2.449.147c-3.895.738-7.823 1.39-11.696 2.237a1918 1918 0 0 0-28.779 6.53q-1.837.432-3.64.921-13.37 3.622-26.662 7.51c-3.109.909-6.444 1.838-8.73 2.61-14.585 4.922-29.038 10.208-43.272 16.06a104 104 0 0 0-5.383 2.381A430 430 0 0 0 56.26 66.32c-12.771 6.685-25.102 14.16-36.047 23.556a79.7 79.7 0 0 0-11.51 12.205q-1.384 1.818-1.869 2.57c-1.66 2.576-3.338 5.597-4.656 8.987q-.035.088-.096.058-1.087-2.478-1.75-5.631-.33-1.563-.325-2.693c.007-1.797-.051-3.672.193-5.379.447-3.11 1.398-6.105 2.613-9.067.717-1.749 1.649-3.394 2.577-5.03a44 44 0 0 1 3.448-5.193c6.698-8.693 15.203-15.682 24.266-21.836 7.2-4.887 14.693-9.208 22.387-13.286a402 402 0 0 1 12.864-6.527 114 114 0 0 1 6.093-2.74c14.43-5.99 29.115-11.366 43.927-16.35q1.449-.487 4.837-1.451c.652-.185 1.651-.556 2.5-.78q.789-.206 1.009-.27a1336 1336 0 0 1 27.353-7.702q1.807-.489 3.64-.918 12.096-2.835 27.109-6.155c3.96-.876 7.789-1.54 11.694-2.28q2.292-.438 3.404-.406c8.574.234 13.298 10.133 8.163 16.888q-2.746 3.613-7.709 4.256"/><path fill="#607DF4" d="M200.375 21.146q4.238.506 6.931 3.338c3.655 3.84 3.911 9.73.551 13.845q-2.715 3.321-7.418 3.981-1.39-.078-3.031.238c-2.605.502-7.128 1.234-10.99 2.084a2124 2124 0 0 0-28.601 6.493q-1.842.431-3.642.916a1321 1321 0 0 0-27.757 7.819q-.208.06-.867.227c-.724.183-1.638.531-2.132.676-1.762.517-3.535 1.018-5.263 1.595a697 697 0 0 0-42.205 15.627 125 125 0 0 0-7.064 3.136 342 342 0 0 0-13.646 6.945q-1.08.58-2.171 1.139c-2.43 1.24-4.807 2.613-7.175 3.964-9.183 5.234-17.958 11.192-25.945 18.098a80 80 0 0 0-11.392 12.138c-1.51 1.988-2.693 4.033-3.96 6.168q-1.236 2.082-2.47 5.384a27.2 27.2 0 0 1-1.924-6.384c-.25-1.461-.19-3.033-.182-4.564q.01-1.701.206-3.069c.224-1.555.579-2.858.943-4.226.257-.968.635-1.86.926-2.806a.27.27 0 0 0-.015-.212q.062.03.096-.058c1.318-3.39 2.996-6.411 4.656-8.987q.484-.752 1.869-2.57a79.7 79.7 0 0 1 11.51-12.205C31.158 80.48 43.49 73.005 56.261 66.32a430 430 0 0 1 13.503-6.778 104 104 0 0 1 5.383-2.38c14.234-5.853 28.687-11.139 43.272-16.062 2.286-.77 5.621-1.7 8.73-2.609a1387 1387 0 0 1 26.662-7.51q1.803-.489 3.64-.922 14.364-3.375 28.779-6.529c3.873-.847 7.801-1.5 11.696-2.237q.982-.187 2.449-.147"/><path fill="#AFBCFA" d="M200.439 42.31q2.647.324 4.523 1.46c7.94 4.805 6.634 16.49-2.387 19.23q-.438.133-2.19.473-1.484-.054-1.993.042c-4.112.775-8.259 1.461-12.344 2.359a2354 2354 0 0 0-28.509 6.45q-.818.19-2.501.645a1337 1337 0 0 0-28.46 8c-2.799.82-5.59 1.6-7.915 2.374a704 704 0 0 0-41.872 15.442 148 148 0 0 0-8.937 3.972 371 371 0 0 0-15.216 7.815c-6.593 3.581-13.026 7.354-19.247 11.534q-6.762 4.542-13.54 10.387a75 75 0 0 0-7.846 7.844q-.263.305-1.076 1.214-1.635 1.83-4.05 5.334-.554.805-2.33 3.921c-.654 1.147-1.246 2.427-1.748 3.661q-.316.78-.693 1.584a28 28 0 0 1-1.818-5.892c-.35-1.778-.274-3.356-.266-5.079q.009-1.655.208-3.024c.227-1.565.588-2.806.92-4.111.26-1.02.675-1.996.975-2.988q1.236-3.303 2.47-5.384c1.268-2.135 2.451-4.18 3.961-6.168a80 80 0 0 1 11.392-12.138c7.987-6.906 16.762-12.864 25.945-18.098 2.368-1.351 4.744-2.724 7.175-3.964a128 128 0 0 0 2.171-1.14 342 342 0 0 1 13.646-6.944 125 125 0 0 1 7.064-3.136 697 697 0 0 1 42.205-15.627c1.728-.577 3.501-1.078 5.263-1.595.494-.145 1.408-.492 2.132-.676q.658-.168.867-.227a1321 1321 0 0 1 27.757-7.819q1.8-.485 3.642-.916 14.277-3.346 28.601-6.493c3.862-.85 8.385-1.582 10.99-2.084q1.642-.316 3.031-.238"/><path fill="#F5F3E7" d="M200.385 63.473c3.852.492 6.886 2.377 8.634 5.714 3.325 6.345-.499 13.813-7.477 15.197q-.547.11-1.12.251-1.38-.105-2.03.019c-4.018.767-8.077 1.427-12.07 2.304a2161 2161 0 0 0-28.27 6.4q-1.843.432-3.64.915a1265 1265 0 0 0-26.234 7.367q-.464.136-2.323.652a74 74 0 0 0-2.314.688c-1.811.569-3.715 1.108-5.432 1.682-14.778 4.956-29.425 10.342-43.818 16.308a80 80 0 0 0-3.43 1.513 347 347 0 0 0-17.703 8.961c-.498.272-1.165.582-1.728.905q-1.223.702-1.272.727c-10.895 5.929-21.162 12.597-30.213 20.466q-6.263 5.441-11.08 11.71-3.184 4.14-5.536 9.104c-.407.859-.794 1.911-1.215 2.87a27 27 0 0 1-1.93-6.494c-.234-1.416-.164-2.958-.159-4.443a23 23 0 0 1 .203-3.067q.276-1.944.616-3.023c.286-.911.477-1.76.834-2.704q.282-.75.43-1.444.376-.804.693-1.584c.502-1.234 1.094-2.514 1.747-3.661q1.778-3.115 2.331-3.921 2.415-3.504 4.05-5.334.813-.91 1.076-1.214a75 75 0 0 1 7.846-7.844q6.778-5.845 13.54-10.387c6.22-4.18 12.654-7.953 19.247-11.534a371 371 0 0 1 15.216-7.815 148 148 0 0 1 8.936-3.972 704 704 0 0 1 41.873-15.442c2.325-.775 5.116-1.553 7.915-2.375a1337 1337 0 0 1 28.46-7.999 78 78 0 0 1 2.501-.644q14.233-3.315 28.509-6.451c4.085-.898 8.232-1.584 12.344-2.359q.509-.096 1.993-.042"/><path fill="#EB3724" d="M200.422 84.635c9.717.972 13.33 12.944 5.645 18.899q-1.96 1.517-4.578 2.003c-3.993.74-8.009 1.444-11.974 2.318a1796 1796 0 0 0-28.458 6.512q-1.847.438-3.638.924a1071 1071 0 0 0-33.773 9.745 90 90 0 0 0-3.563 1.173q-8.49 3-16.922 6.157a535 535 0 0 0-26.365 10.688l-2.656 1.191q-1.398.628-2.633 1.255a292 292 0 0 0-10.684 5.696.3.3 0 0 0-.105.121q-.068.028-.133.065-2.673 1.474-6.341 3.723-.095.057-.107.124a.2.2 0 0 0-.108.028c-4.949 3.024-9.738 6.272-14.333 9.803l-2.377 1.9c-1.178.918-2.258 1.951-3.376 2.94q-2.15 1.903-6.177 6.322c-.663.729-1.268 1.517-1.875 2.286-1.831 2.387-3.606 5.148-4.217 8.113-.26 1.263-.182 2.588-.172 3.891q.007 1.203.242 2.065c.886 3.252 3.368 6.451 5.787 8.742a46 46 0 0 0 5.302 4.719c4.993 3.791 10.348 7.107 15.86 10.095a47 47 0 0 0 3.366 1.647 355 355 0 0 0 24.593 9.824q1.72.612 3.566 1.163a743 743 0 0 0 26.142 7.272 89 89 0 0 0 3.657.861 1596 1596 0 0 0 23.943 4.902 97 97 0 0 0 3.694.653 1894 1894 0 0 0 24.649 3.703q1.84.264 3.724.467a6248 6248 0 0 0 28.652 3q1.553.159 2.197.501c1.638.868 2.083 3.119.924 4.641-.96 1.26-2.055 1.295-3.49 1.2a6207 6207 0 0 1-32.804-2.272 106 106 0 0 1-3.743-.339 4519 4519 0 0 1-30.006-3.378 90 90 0 0 1-3.718-.508 1660 1660 0 0 1-25.784-4.261 82 82 0 0 1-3.685-.727c-8.68-1.927-17.353-3.917-25.96-6.15a78 78 0 0 1-3.61-1.025c-8.044-2.493-16.04-5.189-23.891-8.23a53 53 0 0 1-3.447-1.475 183 183 0 0 1-14.235-7.514q-5.196-3.04-8.892-6.018-1.876-1.509-4.517-4.263-4.106-4.283-6.439-8.495c-1.6-2.89-2.614-5.561-3.268-8.75-.383-1.873-.321-3.713-.28-5.559q.039-1.745.314-3.323.447-2.574 1.053-4.296.594-1.686.716-2.158c.42-.959.808-2.011 1.215-2.87q2.352-4.964 5.536-9.104 4.817-6.269 11.08-11.71c9.05-7.869 19.318-14.537 30.213-20.466q.05-.025 1.272-.727c.563-.323 1.23-.633 1.728-.905a347 347 0 0 1 17.703-8.961 80 80 0 0 1 3.43-1.513c14.393-5.966 29.04-11.352 43.818-16.308 1.717-.574 3.621-1.113 5.432-1.682a74 74 0 0 1 2.314-.688q1.859-.516 2.323-.652 13.077-3.824 26.234-7.367 1.798-.483 3.64-.914 14.113-3.295 28.27-6.4c3.993-.878 8.052-1.538 12.07-2.305q.65-.125 2.03-.019"/><path fill="#033DF5" d="M76.796 143.054q.573.192 1.099.379.618.222 1.104.366a779 779 0 0 0 27.429 7.643q1.795.466 3.655.86 11.22 2.379 24.545 5.016a56 56 0 0 0 2.063.381 2846 2846 0 0 0 25.828 3.892q.89.13 1.784.226a4725 4725 0 0 0 30.503 3.206q1.456.148 2.046.456 1.032.538 1.42 1.683c.65 1.913-.472 3.831-2.47 4.221q-.378.074-1.398.004-16.299-1.114-32.595-2.275-1.88-.136-3.74-.337a4191 4191 0 0 1-30.219-3.395 94 94 0 0 1-3.721-.505 1663 1663 0 0 1-26.063-4.308c-3.926-.681-7.823-1.679-11.706-2.561a710 710 0 0 1-17.535-4.219c-2.67-.678-5.372-1.595-8.058-2.399q-.022-.008-.025-.032a.05.05 0 0 0-.024-.039.3.3 0 0 1 .105-.121 292 292 0 0 1 10.684-5.696 62 62 0 0 1 2.633-1.255z"/><path fill="#607DF4" d="M54.137 155.229c7.329 3.236 14.817 6.14 22.355 8.861q1.735.627 3.565 1.171a747 747 0 0 0 26.221 7.296q1.793.465 3.653.861 11.566 2.465 24.883 5.09 1.54.305 2.511.454a2992 2992 0 0 0 24.181 3.633q1.854.272 3.723.474a4388 4388 0 0 0 29.592 3.107q1.397.142 2.025.471c2.389 1.254 2.087 4.937-.654 5.789q-.552.17-1.718.094a5819 5819 0 0 1-33.133-2.306q-1.875-.136-3.741-.34a6230 6230 0 0 1-30.252-3.397 65 65 0 0 1-2.761-.376 1808 1808 0 0 1-26.003-4.3 85 85 0 0 1-3.687-.721 924 924 0 0 1-23.991-5.618 109 109 0 0 1-8.783-2.55c-.299-.101-.663-.156-.984-.26a501 501 0 0 1-13.52-4.613 243 243 0 0 1-7.923-2.989c4.595-3.531 9.384-6.779 14.334-9.803a.2.2 0 0 1 .107-.028"/><path fill="#AFBCFA" d="M37.319 166.96q5.346 3.57 10.666 6.49a60 60 0 0 0 4.707 2.302 370 370 0 0 0 23.764 9.477q1.725.62 3.561 1.168a716 716 0 0 0 26.542 7.382q1.772.456 3.654.857 19.325 4.114 25.563 5.217 5.783 1.022 26.388 3.981 1.855.265 3.724.466a6097 6097 0 0 0 28.933 3.031q1.31.134 1.856.389c1.972.914 2.416 3.702.798 5.138-1.155 1.028-2.24.874-3.604.783a9503 9503 0 0 1-32.013-2.217q-1.88-.135-3.742-.337a5019 5019 0 0 1-27.366-3.055c-2.435-.277-4.807-.565-7.281-.955a1598 1598 0 0 1-25.544-4.23c-3.862-.673-7.695-1.662-11.516-2.53a687 687 0 0 1-17.299-4.155 79 79 0 0 1-3.615-1.011 386 386 0 0 1-24.17-8.285 47 47 0 0 1-3.546-1.522 260 260 0 0 1-10.365-5.263l-1.523-1.573c.607-.769 1.212-1.557 1.875-2.286q4.027-4.419 6.177-6.322c1.118-.989 2.198-2.022 3.376-2.94"/><path fill="#F5F3E7" d="m25.891 178.508 1.523 1.573c5.658 5.755 13.152 10.413 20.383 14.406a64 64 0 0 0 5.263 2.6 368 368 0 0 0 24.469 9.661q1.28.455 1.745.593a803 803 0 0 0 26.675 7.443q1.796.468 3.653.866 12.18 2.607 24.405 5.005 1.83.36 3.698.652a2110 2110 0 0 0 24.271 3.654q1.845.267 3.726.47 14.593 1.569 29.194 3.061 1.299.134 1.871.425c2.59 1.318 2.087 5.156-.715 5.869q-.492.125-1.518.056a7033 7033 0 0 1-32.817-2.28 101 101 0 0 1-3.742-.336 4346 4346 0 0 1-30.12-3.387 94 94 0 0 1-3.721-.507 1586 1586 0 0 1-25.456-4.2 89 89 0 0 1-3.687-.719 777 777 0 0 1-26.162-6.172 73 73 0 0 1-3.614-1.015c-8.116-2.513-16.182-5.232-24.102-8.296-5.015-1.94-9.123-4.334-13.582-6.611-2.42-2.291-4.9-5.49-5.787-8.742q-.235-.862-.242-2.065c-.01-1.303-.089-2.628.172-3.891.61-2.965 2.386-5.726 4.217-8.113"/></svg>