<svg width="211" height="256" viewBox="0 0 211 256" fill="none" xmlns="http://www.w3.org/2000/svg">
<path d="M200.375 21.146C199.397 21.1187 198.581 21.1676 197.926 21.2928C194.031 22.0306 190.103 22.6829 186.23 23.5304C176.62 25.6329 167.027 27.8092 157.451 30.0592C156.227 30.3479 155.013 30.6551 153.811 30.981C144.898 33.3958 136.011 35.8991 127.149 38.4911C124.04 39.3999 120.705 40.3291 118.419 41.1004C103.834 46.0234 89.3806 51.309 75.147 57.1613C73.1911 57.9654 71.3967 58.7589 69.7639 59.542C65.4125 61.6272 60.9116 63.8865 56.2609 66.3198C43.4887 73.0047 31.1578 80.4814 20.2131 89.8759C15.9419 93.5446 12.1052 97.6127 8.70302 102.081C7.78016 103.293 7.1572 104.15 6.83413 104.651C5.17374 107.227 3.49644 110.248 2.17789 113.638C2.15535 113.697 2.12342 113.716 2.0821 113.696C1.35708 112.044 0.773563 110.167 0.331542 108.065C0.11241 107.023 0.00409924 106.125 0.00660361 105.372C0.0141167 103.575 -0.0441092 101.7 0.200067 99.9935C0.647096 96.8824 1.5975 93.8884 2.81275 90.926C3.53025 89.1772 4.46187 87.5324 5.38974 85.8951C6.41653 84.0837 7.56603 82.3529 8.83825 80.7025C15.5362 72.0105 24.041 65.0207 33.1037 58.8673C40.3031 53.9796 47.7974 49.6586 55.4909 45.5811C59.7395 43.3287 64.0276 41.153 68.3552 39.0542C70.3599 38.0816 72.3909 37.1685 74.4483 36.3148C88.8772 30.3249 103.563 24.9484 118.375 19.964C119.341 19.6394 120.953 19.1555 123.212 18.5125C123.864 18.3285 124.863 17.9568 125.712 17.7338C126.238 17.5963 126.574 17.5058 126.721 17.4625C135.81 14.7987 144.928 12.2315 154.074 9.76096C155.279 9.43511 156.492 9.12908 157.714 8.84287C165.778 6.95343 174.815 4.90168 184.823 2.68762C188.783 1.81228 192.612 1.1488 196.517 0.407274C198.045 0.116113 199.18 -0.0189313 199.921 0.0021314C208.495 0.236299 213.219 10.1345 208.084 16.8901C206.253 19.2986 203.684 20.7173 200.375 21.146Z" fill="#033DF5"/>
<path d="M200.375 21.146C203.2 21.4842 205.511 22.5968 207.306 24.4838C210.961 28.3234 211.217 34.2147 207.857 38.3294C206.047 40.5434 203.575 41.8704 200.439 42.3102C199.513 42.2582 198.502 42.3375 197.408 42.5481C194.803 43.0499 190.28 43.7821 186.418 44.6315C176.869 46.7303 167.335 48.8948 157.817 51.125C156.589 51.4124 155.375 51.7178 154.175 52.0412C144.894 54.5464 135.642 57.1526 126.418 59.8598C126.279 59.8994 125.99 59.975 125.551 60.0865C124.827 60.2705 123.913 60.618 123.419 60.763C121.657 61.2796 119.884 61.7814 118.156 62.3576C103.916 67.114 89.8476 72.3233 75.9509 77.9854C73.563 78.958 71.2083 80.0031 68.8867 81.1207C64.2849 83.3347 59.7364 85.6498 55.241 88.0658C54.521 88.4524 53.7973 88.8321 53.0698 89.205C50.6393 90.4446 48.2633 91.818 45.8947 93.1692C36.7119 98.4026 27.9366 104.361 19.9501 111.267C15.7253 114.922 11.928 118.968 8.55839 123.405C7.04825 125.393 5.86494 127.438 4.59711 129.573C3.77442 130.961 2.95111 132.755 2.12717 134.957C1.21558 132.879 0.574466 130.751 0.20382 128.573C-0.0459905 127.112 0.0141154 125.54 0.0216285 124.009C0.0278894 122.875 0.0967604 121.852 0.22824 120.94C0.451754 119.385 0.80675 118.082 1.17114 116.714C1.42846 115.746 1.80599 114.854 2.09712 113.908C2.12092 113.827 2.11591 113.757 2.0821 113.696C2.12342 113.716 2.15535 113.697 2.17789 113.638C3.49644 110.248 5.17374 107.227 6.83413 104.651C7.1572 104.15 7.78016 103.293 8.70302 102.081C12.1052 97.6127 15.9419 93.5446 20.2131 89.8759C31.1578 80.4814 43.4887 73.0047 56.2609 66.3198C60.9116 63.8865 65.4125 61.6272 69.7639 59.542C71.3967 58.7589 73.1911 57.9654 75.147 57.1613C89.3806 51.309 103.834 46.0234 118.419 41.1004C120.705 40.3291 124.04 39.3999 127.149 38.4911C136.011 35.8991 144.898 33.3958 153.811 30.981C155.013 30.6551 156.227 30.3479 157.451 30.0592C167.027 27.8092 176.62 25.6329 186.23 23.5304C190.103 22.6829 194.031 22.0306 197.926 21.2928C198.581 21.1676 199.397 21.1187 200.375 21.146Z" fill="#607DF4"/>
<path d="M200.439 42.3102C202.204 42.5258 203.711 43.0121 204.962 43.7691C212.902 48.5751 211.596 60.2594 202.575 63.0006C202.283 63.0886 201.553 63.2459 200.385 63.4726C199.396 63.4367 198.731 63.451 198.392 63.5154C194.28 64.2904 190.133 64.9761 186.048 65.8738C176.531 67.9652 167.028 70.1154 157.539 72.3245C156.993 72.4509 156.16 72.6659 155.038 72.9694C144.871 75.7138 135.385 78.3801 126.578 80.9683C123.779 81.7897 120.988 82.5684 118.663 83.3434C104.54 88.0491 90.582 93.1964 76.7905 98.7854C73.7665 100.011 70.7875 101.335 67.8537 102.757C62.7197 105.246 57.6477 107.851 52.6377 110.572C46.045 114.153 39.6119 117.926 33.3911 122.106C28.8832 125.134 24.3697 128.596 19.8506 132.493C17.0407 134.916 14.4255 137.531 12.005 140.337C11.8297 140.54 11.471 140.945 10.9288 141.551C9.83812 142.771 8.48827 144.549 6.87921 146.885C6.50982 147.422 5.73284 148.729 4.54827 150.806C3.89463 151.953 3.30298 153.233 2.80148 154.467C2.58986 154.987 2.35883 155.515 2.1084 156.051C1.30825 154.224 0.70219 152.26 0.290221 150.159C-0.0591378 148.381 0.0159921 146.803 0.0235052 145.08C0.0297662 143.977 0.0992617 142.969 0.231993 142.056C0.459264 140.491 0.819897 139.25 1.15235 137.945C1.41155 136.925 1.82665 135.949 2.12717 134.957C2.95111 132.755 3.77442 130.961 4.59711 129.573C5.86494 127.438 7.04825 125.393 8.55839 123.405C11.928 118.968 15.7253 114.922 19.9501 111.267C27.9366 104.361 36.7119 98.4026 45.8947 93.1692C48.2633 91.818 50.6393 90.4446 53.0698 89.205C53.7973 88.8321 54.521 88.4524 55.241 88.0658C59.7364 85.6498 64.2849 83.3347 68.8867 81.1207C71.2083 80.0031 73.563 78.958 75.9509 77.9854C89.8476 72.3233 103.916 67.114 118.156 62.3576C119.884 61.7814 121.657 61.2796 123.419 60.763C123.913 60.618 124.827 60.2705 125.551 60.0865C125.99 59.975 126.279 59.8994 126.418 59.8598C135.642 57.1526 144.894 54.5464 154.175 52.0412C155.375 51.7178 156.589 51.4124 157.817 51.125C167.335 48.8948 176.869 46.7303 186.418 44.6315C190.28 43.7821 194.803 43.0499 197.408 42.5481C198.502 42.3375 199.513 42.2582 200.439 42.3102Z" fill="#AFBCFA"/>
<path d="M200.385 63.4726C204.237 63.9651 207.271 65.8496 209.019 69.1874C212.344 75.5323 208.52 82.9996 201.542 84.3842C201.177 84.4573 200.804 84.5409 200.422 84.6351C199.502 84.5644 198.825 84.5706 198.392 84.6536C194.374 85.4212 190.315 86.0809 186.322 86.9581C176.884 89.0285 167.461 91.162 158.052 93.3587C156.824 93.6462 155.61 93.951 154.412 94.2731C145.641 96.6346 136.896 99.0902 128.178 101.64C127.869 101.73 127.094 101.948 125.855 102.292C125.08 102.509 124.308 102.738 123.541 102.98C121.73 103.549 119.826 104.088 118.109 104.662C103.331 109.618 88.6837 115.004 74.2905 120.97C73.0897 121.468 71.9464 121.972 70.8608 122.483C64.8728 125.302 58.9719 128.289 53.158 131.444C52.6603 131.716 51.9935 132.026 51.43 132.349C50.6149 132.817 50.191 133.059 50.1584 133.076C39.2626 139.005 28.9959 145.673 19.9445 153.542C15.7697 157.169 12.0764 161.073 8.86455 165.252C6.7421 168.012 4.89701 171.047 3.32927 174.356C2.92169 175.215 2.53476 176.267 2.11403 177.226C1.18991 175.12 0.546293 172.955 0.18316 170.732C-0.0497466 169.316 0.0197526 167.774 0.0253874 166.289C0.0303962 165.158 0.0980126 164.135 0.22824 163.222C0.412311 161.926 0.617669 160.918 0.844314 160.199C1.12981 159.288 1.32139 158.439 1.67827 157.495C1.86609 156.995 2.00947 156.514 2.1084 156.051C2.35883 155.515 2.58986 154.987 2.80148 154.467C3.30298 153.233 3.89463 151.953 4.54827 150.806C5.73284 148.729 6.50982 147.422 6.87921 146.885C8.48827 144.549 9.83812 142.771 10.9288 141.551C11.471 140.945 11.8297 140.54 12.005 140.337C14.4255 137.531 17.0407 134.916 19.8506 132.493C24.3697 128.596 28.8832 125.134 33.3911 122.106C39.6119 117.926 46.045 114.153 52.6377 110.572C57.6477 107.851 62.7197 105.246 67.8537 102.757C70.7875 101.335 73.7665 100.011 76.7905 98.7854C90.582 93.1964 104.54 88.0491 118.663 83.3434C120.988 82.5684 123.779 81.7897 126.578 80.9683C135.385 78.3801 144.871 75.7138 155.038 72.9694C156.16 72.6659 156.993 72.4509 157.539 72.3245C167.028 70.1154 176.531 67.9652 186.048 65.8738C190.133 64.9761 194.28 64.2904 198.392 63.5154C198.731 63.451 199.396 63.4367 200.385 63.4726Z" fill="#F5F3E7"/>
<path d="M200.422 84.6351C210.139 85.607 213.752 97.5793 206.067 103.534C204.76 104.545 203.235 105.213 201.489 105.537C197.496 106.277 193.48 106.981 189.515 107.855C180.011 109.949 170.525 112.119 161.057 114.367C159.825 114.659 158.613 114.967 157.419 115.291C146.107 118.355 134.849 121.603 123.646 125.036C122.448 125.403 121.26 125.794 120.083 126.209C114.423 128.209 108.783 130.261 103.161 132.366C94.286 135.692 85.4975 139.254 76.7961 143.054C75.9146 143.449 75.0293 143.847 74.1403 144.245C73.2086 144.664 72.3308 145.082 71.5069 145.5C67.9056 147.325 64.3444 149.224 60.8233 151.196C60.7895 151.215 60.7544 151.255 60.7181 151.317C60.673 151.336 60.6286 151.357 60.5847 151.382C58.8029 152.365 56.6892 153.605 54.2437 155.105C54.1811 155.143 54.1454 155.184 54.1366 155.229C54.0965 155.229 54.0609 155.238 54.0295 155.257C49.0803 158.281 44.2907 161.529 39.6964 165.06L37.3185 166.96C36.1409 167.878 35.0609 168.911 33.9433 169.9C32.5095 171.169 30.4503 173.276 27.7656 176.222C27.1026 176.951 26.4978 177.739 25.8911 178.508C24.0598 180.895 22.2848 183.656 21.6744 186.621C21.4133 187.884 21.4922 189.209 21.5016 190.512C21.5066 191.314 21.5874 192.002 21.7439 192.577C22.6304 195.829 25.1116 199.028 27.5308 201.319C29.1775 203.031 30.9449 204.604 32.8332 206.038C37.8257 209.829 43.1806 213.145 48.6934 216.133C49.7352 216.698 50.8572 217.247 52.0592 217.78C60.1321 221.359 68.3295 224.634 76.6515 227.604C77.7985 228.012 78.9874 228.4 80.2183 228.767C88.8872 231.35 97.6012 233.774 106.36 236.039C107.555 236.348 108.774 236.634 110.017 236.9C117.985 238.595 125.966 240.229 133.96 241.802C135.183 242.043 136.414 242.26 137.654 242.455C145.862 243.743 154.078 244.978 162.303 246.158C163.53 246.334 164.771 246.49 166.027 246.625C175.575 247.647 185.126 248.647 194.679 249.625C195.714 249.731 196.447 249.898 196.876 250.126C198.514 250.994 198.959 253.245 197.8 254.767C196.84 256.027 195.745 256.062 194.31 255.967C183.374 255.239 172.439 254.481 161.506 253.695C160.255 253.604 159.008 253.491 157.763 253.356C147.758 252.264 137.756 251.137 127.757 249.978C126.504 249.833 125.264 249.664 124.039 249.47C115.432 248.117 106.838 246.697 98.2554 245.209C97.0133 244.993 95.7849 244.751 94.5702 244.482C85.8907 242.555 77.2169 240.565 68.6106 238.332C67.391 238.017 66.1876 237.675 65.0006 237.307C56.9559 234.814 48.9601 232.118 41.1089 229.077C39.9143 228.614 38.7654 228.122 37.6623 227.602C32.805 225.306 28.0599 222.801 23.4268 220.088C19.9633 218.061 16.9994 216.055 14.5351 214.07C13.2841 213.064 11.7784 211.643 10.0178 209.807C7.28054 206.952 5.13429 204.12 3.57908 201.312C1.97879 198.422 0.964522 195.751 0.310882 192.562C-0.0722862 190.689 -0.0103044 188.849 0.0310177 187.003C0.0573135 185.84 0.161872 184.732 0.344691 183.68C0.64271 181.964 0.993952 180.532 1.39841 179.384C1.7941 178.26 2.03263 177.541 2.11403 177.226C2.53476 176.267 2.92169 175.215 3.32927 174.356C4.89701 171.047 6.7421 168.012 8.86455 165.252C12.0764 161.073 15.7697 157.169 19.9445 153.542C28.9959 145.673 39.2626 139.005 50.1584 133.076C50.191 133.059 50.6149 132.817 51.43 132.349C51.9935 132.026 52.6603 131.716 53.158 131.444C58.9719 128.289 64.8728 125.302 70.8608 122.483C71.9464 121.972 73.0897 121.468 74.2905 120.97C88.6837 115.004 103.331 109.618 118.109 104.662C119.826 104.088 121.73 103.549 123.541 102.98C124.308 102.738 125.08 102.509 125.855 102.292C127.094 101.948 127.869 101.73 128.178 101.64C136.896 99.0902 145.641 96.6346 154.412 94.2731C155.61 93.951 156.824 93.6462 158.052 93.3587C167.461 91.162 176.884 89.0285 186.322 86.9581C190.315 86.0809 194.374 85.4212 198.392 84.6536C198.825 84.5706 199.502 84.5644 200.422 84.6351Z" fill="#EB3724"/>
<path d="M76.7961 143.054C77.178 143.182 77.5443 143.308 77.8949 143.433C78.3069 143.581 78.675 143.703 78.9993 143.799C88.0952 146.514 97.238 149.061 106.428 151.442C107.625 151.753 108.843 152.039 110.083 152.302C117.563 153.888 125.745 155.56 134.628 157.318C135.576 157.506 136.264 157.633 136.691 157.699C145.294 159.036 153.904 160.333 162.519 161.591C163.112 161.677 163.707 161.753 164.303 161.817C174.467 162.919 184.635 163.987 194.806 165.023C195.777 165.122 196.459 165.274 196.852 165.479C197.54 165.838 198.014 166.399 198.272 167.162C198.922 169.075 197.8 170.993 195.802 171.383C195.55 171.432 195.084 171.434 194.404 171.387C183.538 170.644 172.673 169.886 161.809 169.112C160.555 169.021 159.309 168.909 158.069 168.775C147.992 167.68 137.918 166.548 127.85 165.38C126.596 165.235 125.356 165.067 124.129 164.875C115.43 163.508 106.742 162.072 98.0657 160.567C94.1401 159.886 90.2427 158.888 86.3603 158.006C80.4963 156.674 74.6511 155.267 68.8247 153.787C66.1557 153.109 63.4529 152.192 60.7669 151.388C60.7519 151.383 60.7438 151.372 60.7425 151.356C60.7413 151.339 60.7331 151.326 60.7181 151.317C60.7544 151.255 60.7895 151.215 60.8233 151.196C64.3444 149.224 67.9056 147.325 71.5069 145.5C72.3308 145.082 73.2086 144.664 74.1403 144.245C75.0293 143.847 75.9146 143.449 76.7961 143.054Z" fill="#033DF5"/>
<path d="M54.1366 155.229C61.4656 158.465 68.9543 161.369 76.4918 164.09C77.6489 164.508 78.8372 164.898 80.0568 165.261C88.752 167.852 97.4922 170.284 106.278 172.557C107.473 172.867 108.691 173.154 109.931 173.418C117.642 175.061 125.936 176.758 134.814 178.508C135.841 178.711 136.678 178.863 137.325 178.962C145.381 180.206 153.441 181.417 161.506 182.595C162.742 182.776 163.983 182.934 165.229 183.069C175.09 184.138 184.954 185.174 194.821 186.176C195.752 186.271 196.427 186.427 196.846 186.647C199.235 187.901 198.933 191.584 196.192 192.436C195.824 192.55 195.251 192.581 194.474 192.53C183.427 191.793 172.383 191.024 161.341 190.224C160.091 190.134 158.844 190.02 157.6 189.884C147.512 188.776 137.428 187.644 127.348 186.487C126.424 186.381 125.504 186.256 124.587 186.111C115.908 184.741 107.24 183.307 98.5841 181.811C97.3307 181.594 96.1017 181.354 94.8971 181.09C87.2888 179.421 79.2917 177.548 70.9059 175.472C67.7904 174.701 64.8628 173.851 62.123 172.922C61.8244 172.821 61.46 172.766 61.1388 172.662C56.6097 171.188 52.1031 169.651 47.619 168.049C45.0032 167.115 42.3623 166.118 39.6964 165.06C44.2907 161.529 49.0803 158.281 54.0295 155.257C54.0609 155.238 54.0965 155.229 54.1366 155.229Z" fill="#607DF4"/>
<path d="M37.3185 166.96C40.8835 169.34 44.4391 171.503 47.9853 173.45C49.4215 174.238 50.9905 175.005 52.6922 175.752C60.5021 179.184 68.4234 182.343 76.4562 185.229C77.6057 185.642 78.7927 186.032 80.0174 186.397C88.8165 189.028 97.6638 191.488 106.559 193.779C107.74 194.083 108.958 194.368 110.213 194.636C123.096 197.379 131.617 199.118 135.776 199.853C139.631 200.534 148.427 201.861 162.164 203.834C163.401 204.011 164.642 204.166 165.888 204.3C175.53 205.333 185.174 206.344 194.821 207.331C195.694 207.421 196.313 207.55 196.677 207.72C198.649 208.634 199.093 211.422 197.475 212.858C196.32 213.886 195.235 213.732 193.871 213.641C183.199 212.92 172.527 212.181 161.858 211.424C160.605 211.334 159.358 211.222 158.116 211.087C148.991 210.094 139.869 209.075 130.75 208.032C128.315 207.755 125.943 207.467 123.469 207.077C114.943 205.736 106.428 204.326 97.9248 202.847C94.0631 202.174 90.2296 201.185 86.4091 200.317C80.6241 199.007 74.8577 197.621 69.1102 196.162C67.8693 195.846 66.6641 195.509 65.4945 195.151C57.3453 192.656 49.2888 189.894 41.3249 186.866C40.1203 186.407 38.9382 185.9 37.7787 185.344C34.2951 183.672 30.8404 181.918 27.4144 180.081L25.8911 178.508C26.4978 177.739 27.1026 176.951 27.7656 176.222C30.4503 173.276 32.5095 171.169 33.9433 169.9C35.0609 168.911 36.1409 167.878 37.3185 166.96Z" fill="#AFBCFA"/>
<path d="M25.8911 178.508L27.4144 180.081C33.0718 185.836 40.5661 190.494 47.7974 194.487C49.5117 195.434 51.266 196.301 53.0604 197.087C60.9078 200.523 69.0639 203.743 77.5286 206.748C78.3826 207.051 78.9643 207.249 79.2736 207.341C88.1215 209.975 97.0133 212.456 105.949 214.784C107.146 215.096 108.364 215.385 109.602 215.65C117.722 217.388 125.857 219.056 134.007 220.655C135.227 220.895 136.46 221.113 137.705 221.307C145.788 222.572 153.878 223.79 161.976 224.961C163.206 225.139 164.448 225.296 165.702 225.431C175.431 226.477 185.162 227.497 194.896 228.492C195.762 228.581 196.385 228.723 196.767 228.917C199.357 230.235 198.854 234.073 196.052 234.786C195.724 234.87 195.218 234.888 194.534 234.842C183.592 234.108 172.653 233.347 161.717 232.562C160.465 232.473 159.217 232.361 157.975 232.226C147.931 231.132 137.891 230.003 127.855 228.839C126.598 228.693 125.358 228.524 124.134 228.332C115.637 227.001 107.152 225.601 98.678 224.132C97.4258 223.915 96.1968 223.675 94.991 223.413C86.2332 221.506 77.5124 219.449 68.8285 217.241C67.5913 216.927 66.3867 216.589 65.2147 216.226C57.0987 213.713 49.0333 210.994 41.1126 207.93C36.0977 205.99 31.9899 203.596 27.5308 201.319C25.1116 199.028 22.6304 195.829 21.7439 192.577C21.5874 192.002 21.5066 191.314 21.5016 190.512C21.4922 189.209 21.4133 187.884 21.6744 186.621C22.2848 183.656 24.0598 180.895 25.8911 178.508Z" fill="#F5F3E7"/>
</svg>
