<svg width="210" height="256" viewBox="0 0 210 256" fill="none" xmlns="http://www.w3.org/2000/svg">
<path d="M200.152 21.146C199.175 21.1187 198.359 21.1676 197.705 21.2928C193.814 22.0306 189.891 22.6829 186.022 23.5304C176.422 25.6329 166.84 27.8092 157.275 30.0592C156.052 30.3479 154.84 30.6551 153.639 30.981C144.736 33.3958 135.859 35.8991 127.007 38.4911C123.902 39.3999 120.57 40.3291 118.287 41.1004C103.718 46.0234 89.2808 51.309 75.0631 57.1613C73.1094 57.9654 71.317 58.7589 69.686 59.542C65.3395 61.6272 60.8436 63.8865 56.1982 66.3198C43.4401 73.0047 31.123 80.4814 20.1905 89.8759C15.9241 93.5446 12.0917 97.6127 8.6933 102.081C7.77148 103.293 7.14921 104.15 6.82651 104.651C5.16796 107.227 3.49254 110.248 2.17546 113.638C2.15294 113.697 2.12105 113.716 2.07978 113.696C1.35557 112.044 0.7727 110.167 0.331172 108.065C0.112285 107.023 0.00409467 106.125 0.00659624 105.372C0.014101 103.575 -0.0440599 101.7 0.199843 99.9935C0.646374 96.8824 1.59572 93.8884 2.80961 90.926C3.52631 89.1772 4.45689 87.5324 5.38372 85.8951C6.40937 84.0837 7.55759 82.3529 8.82839 80.7025C15.5188 72.0105 24.0142 65.0207 33.0667 58.8673C40.2581 53.9796 47.7441 49.6586 55.4289 45.5811C59.6728 43.3287 63.9562 41.153 68.2789 39.0542C70.2814 38.0816 72.3102 37.1685 74.3652 36.3148C88.778 30.3249 103.448 24.9484 118.243 19.964C119.208 19.6394 120.818 19.1555 123.075 18.5125C123.726 18.3285 124.724 17.9568 125.572 17.7338C126.097 17.5963 126.433 17.5058 126.579 17.4625C135.659 14.7987 144.766 12.2315 153.902 9.76096C155.105 9.43511 156.317 9.12908 157.538 8.84287C165.593 6.95343 174.619 4.90168 184.617 2.68762C188.572 1.81228 192.397 1.1488 196.298 0.407274C197.824 0.116113 198.957 -0.0189313 199.698 0.0021314C208.262 0.236299 212.981 10.1345 207.852 16.8901C206.023 19.2986 203.456 20.7173 200.152 21.146Z" fill="#033DF5"/>
<path d="M200.152 21.146C202.974 21.4842 205.281 22.5968 207.075 24.4838C210.726 28.3234 210.981 34.2147 207.625 38.3294C205.817 40.5434 203.348 41.8704 200.216 42.3102C199.29 42.2582 198.281 42.3375 197.187 42.5481C194.585 43.0499 190.067 43.7821 186.21 44.6315C176.671 46.7303 167.149 48.8948 157.641 51.125C156.414 51.4124 155.202 51.7178 154.003 52.0412C144.733 54.5464 135.49 57.1526 126.277 59.8598C126.138 59.8994 125.849 59.975 125.41 60.0865C124.688 60.2705 123.774 60.618 123.281 60.763C121.521 61.2796 119.75 61.7814 118.024 62.3576C103.8 67.114 89.7474 72.3233 75.8661 77.9854C73.4809 78.958 71.1288 80.0031 68.8098 81.1207C64.2132 83.3347 59.6697 85.6498 55.1794 88.0658C54.4602 88.4524 53.7372 88.8321 53.0105 89.205C50.5828 90.4446 48.2094 91.818 45.8435 93.1692C36.6709 98.4026 27.9054 104.361 19.9279 111.267C15.7077 114.922 11.9147 118.968 8.54884 123.405C7.04039 125.393 5.8584 127.438 4.59198 129.573C3.77021 130.961 2.94782 132.755 2.1248 134.957C1.21423 132.879 0.573825 130.751 0.203593 128.573C-0.0459392 127.112 0.0140996 125.54 0.0216044 124.009C0.0278583 122.875 0.0966524 121.852 0.227985 120.94C0.45125 119.385 0.80585 118.082 1.16983 116.714C1.42686 115.746 1.80398 114.854 2.09478 113.908C2.11855 113.827 2.11355 113.757 2.07978 113.696C2.12105 113.716 2.15294 113.697 2.17546 113.638C3.49254 110.248 5.16796 107.227 6.82651 104.651C7.14921 104.15 7.77148 103.293 8.6933 102.081C12.0917 97.6127 15.9241 93.5446 20.1905 89.8759C31.123 80.4814 43.4401 73.0047 56.1982 66.3198C60.8436 63.8865 65.3395 61.6272 69.686 59.542C71.317 58.7589 73.1094 57.9654 75.0631 57.1613C89.2808 51.309 103.718 46.0234 118.287 41.1004C120.57 40.3291 123.902 39.3999 127.007 38.4911C135.859 35.8991 144.736 33.3958 153.639 30.981C154.84 30.6551 156.052 30.3479 157.275 30.0592C166.84 27.8092 176.422 25.6329 186.022 23.5304C189.891 22.6829 193.814 22.0306 197.705 21.2928C198.359 21.1676 199.175 21.1187 200.152 21.146Z" fill="#607DF4"/>
<path d="M200.216 42.3102C201.978 42.5258 203.484 43.0121 204.733 43.7691C212.664 48.5751 211.36 60.2594 202.349 63.0006C202.057 63.0886 201.328 63.2459 200.161 63.4726C199.173 63.4367 198.509 63.451 198.17 63.5154C194.064 64.2904 189.921 64.9761 185.84 65.8738C176.334 67.9652 166.842 70.1154 157.364 72.3245C156.818 72.4509 155.985 72.6659 154.865 72.9694C144.709 75.7138 135.233 78.3801 126.437 80.9683C123.641 81.7897 120.853 82.5684 118.53 83.3434C104.423 88.0491 90.4809 93.1964 76.7048 98.7854C73.6841 100.011 70.7085 101.335 67.7779 102.757C62.6497 105.246 57.5834 107.851 52.579 110.572C45.9936 114.153 39.5677 117.926 33.3538 122.106C28.851 125.134 24.3425 128.596 19.8284 132.493C17.0217 134.916 14.4094 137.531 11.9916 140.337C11.8165 140.54 11.4582 140.945 10.9166 141.551C9.82714 142.771 8.4788 144.549 6.87154 146.885C6.50255 147.422 5.72644 148.729 4.5432 150.806C3.89029 151.953 3.29929 153.233 2.79835 154.467C2.58697 154.987 2.3562 155.515 2.10604 156.051C1.30679 154.224 0.701406 152.26 0.289897 150.159C-0.0590718 148.381 0.0159743 146.803 0.023479 145.08C0.0297329 143.977 0.0991509 142.969 0.231734 142.056C0.458752 140.491 0.818982 139.25 1.15107 137.945C1.40998 136.925 1.82461 135.949 2.1248 134.957C2.94782 132.755 3.77021 130.961 4.59198 129.573C5.8584 127.438 7.04039 125.393 8.54884 123.405C11.9147 118.968 15.7077 114.922 19.9279 111.267C27.9054 104.361 36.6709 98.4026 45.8435 93.1692C48.2094 91.818 50.5828 90.4446 53.0105 89.205C53.7372 88.8321 54.4602 88.4524 55.1794 88.0658C59.6697 85.6498 64.2132 83.3347 68.8098 81.1207C71.1288 80.0031 73.4809 78.958 75.8661 77.9854C89.7474 72.3233 103.8 67.114 118.024 62.3576C119.75 61.7814 121.521 61.2796 123.281 60.763C123.774 60.618 124.688 60.2705 125.41 60.0865C125.849 59.975 126.138 59.8994 126.277 59.8598C135.49 57.1526 144.733 54.5464 154.003 52.0412C155.202 51.7178 156.414 51.4124 157.641 51.125C167.149 48.8948 176.671 46.7303 186.21 44.6315C190.067 43.7821 194.585 43.0499 197.187 42.5481C198.281 42.3375 199.29 42.2582 200.216 42.3102Z" fill="#AFBCFA"/>
<path d="M200.161 63.4726C204.009 63.9651 207.039 65.8496 208.786 69.1874C212.107 75.5323 208.287 82.9996 201.317 84.3842C200.953 84.4573 200.58 84.5409 200.199 84.6351C199.279 84.5644 198.603 84.5706 198.17 84.6536C194.157 85.4212 190.103 86.0809 186.114 86.9581C176.687 89.0285 167.274 91.162 157.876 93.3587C156.649 93.6462 155.437 93.951 154.24 94.2731C145.478 96.6346 136.743 99.0902 128.035 101.64C127.726 101.731 126.953 101.948 125.714 102.292C124.94 102.509 124.17 102.738 123.403 102.98C121.594 103.549 119.692 104.088 117.977 104.662C103.215 109.618 88.5848 115.004 74.2076 120.97C73.0081 121.468 71.8661 121.972 70.7817 122.483C64.8004 125.302 58.9061 128.289 53.0987 131.444C52.6015 131.716 51.9355 132.026 51.3726 132.349C50.5584 132.817 50.135 133.059 50.1025 133.076C39.2187 139.005 28.9635 145.673 19.9222 153.542C15.7521 157.169 12.0629 161.073 8.85466 165.252C6.73457 168.012 4.89154 171.047 3.32556 174.356C2.91843 175.215 2.53193 176.267 2.11167 177.226C1.18859 175.12 0.545683 172.955 0.182955 170.732C-0.0496911 169.316 0.0197306 167.774 0.0253591 166.289C0.0303622 165.158 0.0979032 164.135 0.227985 163.222C0.41185 161.926 0.61698 160.918 0.843372 160.199C1.12855 159.288 1.31992 158.439 1.67639 157.495C1.86401 156.995 2.00723 156.514 2.10604 156.051C2.3562 155.515 2.58697 154.987 2.79835 154.467C3.29929 153.233 3.89029 151.953 4.5432 150.806C5.72644 148.729 6.50255 147.422 6.87154 146.885C8.4788 144.549 9.82714 142.771 10.9166 141.551C11.4582 140.945 11.8165 140.54 11.9916 140.337C14.4094 137.531 17.0217 134.916 19.8284 132.493C24.3425 128.596 28.851 125.134 33.3538 122.106C39.5677 117.926 45.9936 114.153 52.579 110.572C57.5834 107.851 62.6497 105.246 67.7779 102.757C70.7085 101.335 73.6841 100.011 76.7048 98.7854C90.4809 93.1964 104.423 88.0491 118.53 83.3434C120.853 82.5684 123.641 81.7897 126.437 80.9683C135.233 78.3801 144.709 75.7138 154.865 72.9694C155.985 72.6659 156.818 72.4509 157.364 72.3245C166.842 70.1154 176.334 67.9652 185.84 65.8738C189.921 64.9761 194.064 64.2904 198.17 63.5154C198.509 63.451 199.173 63.4367 200.161 63.4726Z" fill="#F5F3E7"/>
<path d="M200.199 84.6351C209.904 85.607 213.514 97.5793 205.837 103.534C204.532 104.545 203.008 105.213 201.264 105.537C197.276 106.277 193.264 106.981 189.304 107.855C179.81 109.949 170.335 112.119 160.878 114.367C159.647 114.659 158.436 114.967 157.244 115.291C145.944 118.355 134.699 121.603 123.508 125.036C122.311 125.403 121.125 125.794 119.949 126.209C114.295 128.209 108.661 130.261 103.046 132.366C94.1808 135.692 85.4021 139.254 76.7104 143.054C75.8299 143.449 74.9456 143.847 74.0575 144.246C73.1269 144.664 72.2501 145.082 71.4271 145.5C67.8298 147.325 64.2726 149.224 60.7554 151.196C60.7216 151.215 60.6866 151.255 60.6503 151.317C60.6053 151.336 60.5609 151.357 60.5171 151.382C58.7373 152.365 56.6259 153.605 54.1831 155.105C54.1206 155.143 54.0849 155.184 54.0762 155.229C54.0362 155.229 54.0005 155.238 53.9692 155.257C49.0255 158.281 44.2413 161.529 39.6521 165.06L37.2769 166.96C36.1005 167.878 35.0217 168.911 33.9054 169.9C32.4733 171.169 30.4163 173.276 27.7347 176.222C27.0724 176.951 26.4682 177.739 25.8622 178.508C24.0329 180.895 22.26 183.656 21.6502 186.621C21.3894 187.884 21.4682 189.209 21.4776 190.512C21.4826 191.314 21.5633 192.002 21.7196 192.577C22.6052 195.829 25.0836 199.028 27.5001 201.319C29.1449 203.031 30.9104 204.604 32.7966 206.038C37.7835 209.829 43.1324 213.145 48.639 216.133C49.6797 216.698 50.8004 217.247 52.0011 217.78C60.065 221.359 68.2532 224.634 76.5659 227.604C77.7117 228.012 78.8993 228.4 80.1288 228.767C88.788 231.35 97.4922 233.774 106.241 236.039C107.435 236.348 108.652 236.634 109.894 236.9C117.853 238.595 125.825 240.229 133.81 241.802C135.032 242.043 136.262 242.26 137.5 242.455C145.699 243.743 153.906 244.978 162.122 246.158C163.347 246.334 164.588 246.49 165.842 246.625C175.379 247.647 184.919 248.647 194.461 249.625C195.496 249.731 196.227 249.898 196.656 250.126C198.292 250.994 198.737 253.245 197.58 254.767C196.621 256.027 195.527 256.062 194.094 255.967C183.169 255.239 172.247 254.481 161.326 253.695C160.077 253.604 158.83 253.491 157.587 253.356C147.593 252.264 137.602 251.137 127.615 249.978C126.363 249.833 125.125 249.664 123.9 249.47C115.303 248.117 106.719 246.697 98.1458 245.209C96.905 244.993 95.678 244.751 94.4647 244.482C85.7949 242.555 77.1307 240.565 68.534 238.332C67.3158 238.017 66.1138 237.675 64.928 237.307C56.8923 234.814 48.9054 232.118 41.063 229.077C39.8698 228.614 38.7222 228.122 37.6202 227.602C32.7684 225.306 28.0286 222.801 23.4007 220.088C19.941 218.061 16.9804 216.055 14.5188 214.07C13.2693 213.064 11.7652 211.643 10.0066 209.807C7.27241 206.952 5.12856 204.12 3.57509 201.312C1.97658 198.422 0.963445 195.751 0.310535 192.562C-0.0722055 190.689 -0.0102929 188.849 0.0309831 187.003C0.0572496 185.84 0.161691 184.732 0.344306 183.68C0.641993 181.964 0.992842 180.532 1.39685 179.384C1.79209 178.26 2.03036 177.541 2.11167 177.226C2.53193 176.267 2.91843 175.215 3.32556 174.356C4.89154 171.047 6.73457 168.012 8.85466 165.252C12.0629 161.073 15.7521 157.169 19.9222 153.542C28.9635 145.673 39.2187 139.005 50.1025 133.076C50.135 133.059 50.5584 132.817 51.3726 132.349C51.9355 132.026 52.6015 131.716 53.0987 131.444C58.9061 128.289 64.8004 125.302 70.7817 122.483C71.8661 121.972 73.0081 121.468 74.2076 120.97C88.5848 115.004 103.215 109.618 117.977 104.662C119.692 104.088 121.594 103.549 123.403 102.98C124.17 102.738 124.94 102.509 125.714 102.292C126.953 101.948 127.726 101.731 128.035 101.64C136.743 99.0902 145.478 96.6346 154.24 94.2731C155.437 93.951 156.649 93.6462 157.876 93.3587C167.274 91.162 176.687 89.0285 186.114 86.9581C190.103 86.0809 194.157 85.4212 198.17 84.6536C198.603 84.5706 199.279 84.5644 200.199 84.6351Z" fill="#EB3724"/>
<path d="M76.7104 143.054C77.0919 143.182 77.4578 143.308 77.808 143.433C78.2195 143.581 78.5872 143.703 78.9112 143.799C87.9969 146.514 97.1295 149.061 106.309 151.442C107.505 151.752 108.722 152.039 109.96 152.302C117.432 153.888 125.605 155.56 134.478 157.318C135.425 157.506 136.111 157.633 136.538 157.699C145.132 159.036 153.732 160.333 162.337 161.591C162.93 161.677 163.524 161.753 164.12 161.817C174.272 162.919 184.429 163.987 194.589 165.023C195.558 165.122 196.239 165.274 196.632 165.479C197.32 165.838 197.793 166.399 198.05 167.162C198.7 169.075 197.579 170.993 195.583 171.383C195.332 171.432 194.867 171.434 194.187 171.387C183.333 170.644 172.48 169.886 161.628 169.112C160.376 169.021 159.131 168.909 157.893 168.775C147.826 167.68 137.764 166.548 127.707 165.38C126.455 165.235 125.216 165.067 123.99 164.875C115.301 163.508 106.623 162.072 97.9563 160.567C94.035 159.886 90.142 158.888 86.2639 158.006C80.4065 156.674 74.5678 155.267 68.7479 153.787C66.0819 153.109 63.382 152.192 60.6991 151.388C60.6841 151.383 60.676 151.372 60.6747 151.356C60.6735 151.339 60.6653 151.326 60.6503 151.317C60.6866 151.255 60.7216 151.215 60.7554 151.196C64.2726 149.224 67.8298 147.325 71.4271 145.5C72.2501 145.082 73.1269 144.664 74.0575 144.246C74.9456 143.847 75.8299 143.449 76.7104 143.054Z" fill="#033DF5"/>
<path d="M54.0762 155.229C61.397 158.465 68.8774 161.369 76.4065 164.09C77.5622 164.508 78.7492 164.898 79.9675 165.261C88.6529 167.852 97.3834 170.284 106.159 172.557C107.353 172.867 108.57 173.154 109.808 173.418C117.51 175.061 125.796 176.758 134.664 178.508C135.689 178.711 136.526 178.863 137.172 178.962C145.218 180.206 153.27 181.417 161.326 182.595C162.561 182.776 163.8 182.934 165.045 183.069C174.895 184.138 184.748 185.174 194.604 186.176C195.533 186.271 196.207 186.427 196.626 186.647C199.013 187.901 198.711 191.584 195.973 192.436C195.606 192.55 195.034 192.581 194.257 192.53C183.222 191.793 172.19 191.024 161.161 190.224C159.913 190.134 158.667 190.02 157.424 189.884C147.347 188.776 137.275 187.644 127.206 186.487C126.283 186.381 125.363 186.256 124.448 186.111C115.779 184.741 107.121 183.307 98.4741 181.811C97.2221 181.594 95.9944 181.354 94.7912 181.09C87.1914 179.421 79.2032 177.548 70.8267 175.472C67.7148 174.701 64.7904 173.851 62.0537 172.922C61.7554 172.821 61.3914 172.766 61.0706 172.662C56.5465 171.188 52.0449 169.651 47.5659 168.049C44.953 167.115 42.3151 166.118 39.6521 165.06C44.2413 161.529 49.0255 158.281 53.9692 155.257C54.0005 155.238 54.0362 155.229 54.0762 155.229Z" fill="#607DF4"/>
<path d="M37.2769 166.96C40.8379 169.34 44.3895 171.503 47.9317 173.45C49.3664 174.238 50.9336 175.005 52.6334 175.752C60.4346 179.184 68.347 182.343 76.3708 185.229C77.5191 185.642 78.7048 186.032 79.9281 186.397C88.7173 189.028 97.5548 191.488 106.44 193.779C107.62 194.083 108.836 194.368 110.09 194.636C122.959 197.379 131.47 199.118 135.624 199.853C139.475 200.534 148.262 201.861 161.983 203.834C163.219 204.011 164.459 204.166 165.703 204.3C175.334 205.333 184.968 206.344 194.604 207.331C195.476 207.421 196.094 207.55 196.458 207.72C198.428 208.634 198.87 211.422 197.255 212.858C196.101 213.886 195.017 213.732 193.655 213.641C182.994 212.92 172.335 212.181 161.677 211.424C160.426 211.334 159.18 211.222 157.94 211.087C148.825 210.094 139.713 209.075 130.604 208.032C128.172 207.755 125.803 207.467 123.332 207.077C114.815 205.736 106.31 204.326 97.8156 202.847C93.9581 202.174 90.1289 201.185 86.3127 200.317C80.5341 199.007 74.7742 197.621 69.0331 196.162C67.7936 195.846 66.5897 195.509 65.4214 195.151C57.2813 192.656 49.2338 189.894 41.2788 186.866C40.0755 186.407 38.8948 185.9 37.7366 185.344C34.2569 183.672 30.8059 181.918 27.3838 180.081L25.8622 178.508C26.4682 177.739 27.0724 176.951 27.7347 176.222C30.4163 173.276 32.4733 171.169 33.9054 169.9C35.0217 168.911 36.1005 167.878 37.2769 166.96Z" fill="#AFBCFA"/>
<path d="M25.8622 178.508L27.3838 180.081C33.0348 185.836 40.5208 190.494 47.7441 194.487C49.4564 195.434 51.2088 196.301 53.0011 197.087C60.8398 200.523 68.9868 203.743 77.4421 206.748C78.2952 207.051 78.8762 207.249 79.1851 207.341C88.0231 209.975 96.905 212.456 105.831 214.784C107.026 215.096 108.243 215.385 109.48 215.65C117.591 217.388 125.717 219.056 133.857 220.655C135.076 220.895 136.308 221.112 137.551 221.307C145.625 222.572 153.706 223.79 161.795 224.961C163.023 225.139 164.264 225.296 165.517 225.431C175.235 226.477 184.955 227.497 194.679 228.492C195.543 228.581 196.166 228.723 196.548 228.917C199.135 230.235 198.632 234.073 195.833 234.787C195.505 234.87 195 234.888 194.317 234.842C183.387 234.108 172.461 233.347 161.536 232.562C160.285 232.473 159.04 232.361 157.799 232.226C147.766 231.132 137.738 230.003 127.712 228.839C126.457 228.693 125.218 228.524 123.996 228.332C115.508 227.001 107.032 225.601 98.5679 224.132C97.3171 223.915 96.0895 223.675 94.885 223.413C86.137 221.506 77.4259 219.449 68.7517 217.241C67.5159 216.927 66.3126 216.589 65.1419 216.226C57.0349 213.713 48.9786 210.994 41.0668 207.93C36.0574 205.99 31.9542 203.596 27.5001 201.319C25.0836 199.028 22.6052 195.829 21.7196 192.577C21.5633 192.002 21.4826 191.314 21.4776 190.512C21.4682 189.209 21.3894 187.884 21.6502 186.621C22.26 183.656 24.0329 180.895 25.8622 178.508Z" fill="#F5F3E7"/>
</svg>
