<svg xmlns="http://www.w3.org/2000/svg" fill="none" viewBox="0 0 210 256"><path fill="#033DF5" d="M200.152 21.146q-1.466-.04-2.447.147c-3.891.738-7.814 1.39-11.683 2.237q-14.4 3.155-28.747 6.53-1.835.432-3.636.921a1384 1384 0 0 0-26.632 7.51c-3.105.909-6.437 1.838-8.72 2.61-14.569 4.922-29.006 10.208-43.224 16.06a103 103 0 0 0-5.377 2.381 429 429 0 0 0-13.488 6.778C43.44 73.005 31.123 80.48 20.191 89.876A79.6 79.6 0 0 0 8.693 102.08q-1.383 1.818-1.866 2.57c-1.659 2.576-3.334 5.597-4.652 8.987q-.033.088-.095.058-1.086-2.478-1.749-5.631-.328-1.563-.324-2.693c.007-1.797-.051-3.672.193-5.379.446-3.11 1.396-6.105 2.61-9.067.716-1.749 1.647-3.394 2.574-5.03a44 44 0 0 1 3.444-5.193c6.69-8.693 15.186-15.682 24.239-21.836 7.191-4.887 14.677-9.208 22.362-13.286a401 401 0 0 1 12.85-6.527 114 114 0 0 1 6.086-2.74c14.413-5.99 29.083-11.366 43.878-16.35q1.447-.487 4.832-1.451c.651-.185 1.649-.556 2.497-.78a44 44 0 0 0 1.007-.27q13.62-3.996 27.323-7.702 1.804-.489 3.636-.918a2246 2246 0 0 1 27.079-6.155c3.955-.876 7.78-1.54 11.681-2.28q2.289-.438 3.4-.406c8.564.234 13.283 10.133 8.154 16.888q-2.744 3.613-7.7 4.256"/><path fill="#607DF4" d="M200.152 21.146q4.233.506 6.923 3.338c3.651 3.84 3.906 9.73.55 13.845q-2.711 3.321-7.409 3.981-1.388-.078-3.029.238c-2.602.502-7.12 1.234-10.977 2.084a2119 2119 0 0 0-28.569 6.493q-1.84.431-3.638.916a1318 1318 0 0 0-27.726 7.819q-.209.06-.867.227c-.722.183-1.636.531-2.129.676-1.76.517-3.531 1.018-5.257 1.595a696 696 0 0 0-42.158 15.627 125 125 0 0 0-7.056 3.136 342 342 0 0 0-13.63 6.945q-1.08.58-2.17 1.139c-2.427 1.24-4.8 2.613-7.166 3.964-9.173 5.234-17.939 11.192-25.916 18.098a80 80 0 0 0-11.38 12.138c-1.508 1.988-2.69 4.033-3.956 6.168q-1.233 2.082-2.467 5.384a27.2 27.2 0 0 1-1.921-6.384c-.25-1.461-.19-3.033-.182-4.564q.01-1.701.206-3.069c.223-1.555.578-2.858.942-4.226.257-.968.634-1.86.925-2.806a.27.27 0 0 0-.015-.212q.062.03.095-.058c1.318-3.39 2.993-6.411 4.652-8.987q.483-.752 1.866-2.57a79.6 79.6 0 0 1 11.498-12.205C31.123 80.48 43.44 73.005 56.198 66.32a429 429 0 0 1 13.488-6.778 103 103 0 0 1 5.377-2.38c14.218-5.853 28.655-11.139 43.224-16.062 2.283-.77 5.615-1.7 8.72-2.609a1384 1384 0 0 1 26.632-7.51q1.802-.489 3.636-.922 14.347-3.375 28.747-6.529c3.869-.847 7.792-1.5 11.683-2.237q.981-.187 2.447-.147"/><path fill="#AFBCFA" d="M200.216 42.31q2.643.324 4.517 1.46c7.931 4.805 6.627 16.49-2.384 19.23q-.438.133-2.188.473-1.482-.054-1.991.042c-4.106.775-8.249 1.461-12.33 2.359a2349 2349 0 0 0-28.476 6.45q-.819.19-2.499.645a1332 1332 0 0 0-28.428 8c-2.796.82-5.584 1.6-7.907 2.374a703 703 0 0 0-41.825 15.442 147 147 0 0 0-8.927 3.972 370 370 0 0 0-15.199 7.815c-6.585 3.581-13.011 7.354-19.225 11.534q-6.754 4.542-13.526 10.387a75 75 0 0 0-7.836 7.844q-.264.305-1.075 1.214-1.635 1.83-4.045 5.334-.555.805-2.329 3.921c-.653 1.147-1.244 2.427-1.745 3.661a34 34 0 0 1-.692 1.584 28 28 0 0 1-1.816-5.892c-.35-1.778-.274-3.356-.267-5.079q.01-1.655.209-3.024c.227-1.565.587-2.806.92-4.111.258-1.02.673-1.996.973-2.988q1.234-3.303 2.467-5.384c1.266-2.135 2.448-4.18 3.957-6.168a80 80 0 0 1 11.379-12.138c7.977-6.906 16.743-12.864 25.915-18.098 2.366-1.351 4.74-2.724 7.167-3.964q1.09-.56 2.17-1.14a342 342 0 0 1 13.63-6.944 125 125 0 0 1 7.056-3.136 696 696 0 0 1 42.158-15.627c1.726-.577 3.497-1.078 5.257-1.595.493-.145 1.407-.492 2.129-.676q.659-.168.867-.227a1318 1318 0 0 1 27.726-7.819q1.798-.485 3.638-.916 14.261-3.346 28.569-6.493c3.857-.85 8.375-1.582 10.977-2.084q1.64-.316 3.029-.238"/><path fill="#F5F3E7" d="M200.161 63.473c3.848.492 6.878 2.377 8.625 5.714 3.321 6.345-.499 13.813-7.469 15.197q-.546.11-1.118.251-1.38-.105-2.029.019c-4.013.767-8.067 1.427-12.056 2.304q-14.14 3.105-28.238 6.4-1.84.432-3.636.915a1261 1261 0 0 0-26.205 7.367q-.463.136-2.321.652-1.16.325-2.311.688c-1.809.569-3.711 1.108-5.426 1.682-14.762 4.956-29.392 10.342-43.77 16.308a80 80 0 0 0-3.425 1.513 346 346 0 0 0-17.683 8.961c-.497.272-1.163.582-1.726.905q-1.222.702-1.27.727c-10.884 5.929-21.14 12.597-30.18 20.466q-6.256 5.441-11.068 11.71-3.18 4.14-5.53 9.104c-.407.859-.793 1.911-1.213 2.87a27 27 0 0 1-1.929-6.494c-.233-1.416-.163-2.958-.158-4.443q.008-1.697.203-3.067.276-1.944.615-3.023c.286-.911.477-1.76.833-2.704q.282-.75.43-1.444a34 34 0 0 0 .692-1.584c.501-1.234 1.092-2.514 1.745-3.661q1.775-3.115 2.329-3.921 2.41-3.504 4.045-5.334.812-.91 1.075-1.214a75 75 0 0 1 7.836-7.844q6.772-5.845 13.526-10.387c6.214-4.18 12.64-7.953 19.225-11.534a370 370 0 0 1 15.199-7.815 147 147 0 0 1 8.927-3.972 703 703 0 0 1 41.825-15.442c2.323-.775 5.111-1.553 7.907-2.375a1332 1332 0 0 1 28.428-7.999 77 77 0 0 1 2.499-.644q14.217-3.315 28.476-6.451c4.081-.898 8.224-1.584 12.33-2.359q.509-.096 1.991-.042"/><path fill="#EB3724" d="M200.199 84.635c9.705.972 13.315 12.944 5.638 18.899q-1.957 1.517-4.573 2.003c-3.988.74-8 1.444-11.96 2.318a1790 1790 0 0 0-28.426 6.512q-1.846.438-3.634.924a1068 1068 0 0 0-33.736 9.745 90 90 0 0 0-3.559 1.173q-8.48 3-16.903 6.157a534 534 0 0 0-26.336 10.688l-2.652 1.192a61 61 0 0 0-2.63 1.254 291 291 0 0 0-10.673 5.696.3.3 0 0 0-.105.121q-.068.028-.133.065-2.67 1.474-6.334 3.723-.093.057-.107.124a.2.2 0 0 0-.107.028c-4.943 3.024-9.728 6.272-14.317 9.803l-2.375 1.9c-1.177.918-2.255 1.951-3.372 2.94q-2.148 1.903-6.17 6.322c-.663.729-1.267 1.517-1.873 2.286-1.83 2.387-3.602 5.148-4.212 8.113-.26 1.263-.182 2.588-.172 3.891q.007 1.203.242 2.065c.885 3.252 3.364 6.451 5.78 8.742a45.6 45.6 0 0 0 5.297 4.719c4.986 3.791 10.335 7.107 15.842 10.095a47 47 0 0 0 3.362 1.647 355 355 0 0 0 24.565 9.824q1.718.612 3.563 1.163a741 741 0 0 0 26.112 7.272q1.79.463 3.653.861a1593 1593 0 0 0 23.916 4.902q1.833.361 3.69.653a1890 1890 0 0 0 24.622 3.703q1.838.264 3.72.467a6233 6233 0 0 0 28.619 3q1.552.159 2.195.501c1.636.868 2.081 3.119.924 4.641-.959 1.26-2.053 1.295-3.486 1.2a6186 6186 0 0 1-32.768-2.272 106 106 0 0 1-3.739-.339 4502 4502 0 0 1-29.972-3.378 90 90 0 0 1-3.715-.508 1657 1657 0 0 1-25.754-4.261 82 82 0 0 1-3.681-.727c-8.67-1.927-17.334-3.917-25.931-6.15a78 78 0 0 1-3.606-1.025c-8.036-2.493-16.023-5.189-23.865-8.23a53 53 0 0 1-3.443-1.475 182 182 0 0 1-14.22-7.514q-5.189-3.04-8.881-6.018-1.875-1.509-4.512-4.263-4.102-4.283-6.432-8.495c-1.598-2.89-2.612-5.561-3.264-8.75-.383-1.873-.321-3.713-.28-5.559a22.4 22.4 0 0 1 .313-3.323q.447-2.574 1.053-4.296.592-1.686.715-2.158c.42-.959.806-2.011 1.214-2.87q2.349-4.964 5.529-9.104 4.812-6.269 11.067-11.71c9.042-7.869 19.297-14.537 30.18-20.466q.05-.025 1.27-.727c.563-.323 1.23-.633 1.727-.905a346 346 0 0 1 17.683-8.961 80 80 0 0 1 3.426-1.513c14.377-5.966 29.007-11.352 43.769-16.308 1.715-.574 3.617-1.113 5.426-1.682a75 75 0 0 1 2.311-.688q1.858-.516 2.321-.652a1261 1261 0 0 1 26.205-7.367q1.796-.483 3.636-.914 14.097-3.295 28.238-6.4c3.989-.878 8.043-1.538 12.056-2.305q.65-.125 2.029-.019"/><path fill="#033DF5" d="M76.71 143.054q.573.192 1.098.379.618.222 1.103.366a777 777 0 0 0 27.398 7.643q1.794.465 3.651.86a1856 1856 0 0 0 24.518 5.016q1.42.282 2.06.381a2845 2845 0 0 0 25.799 3.892 49 49 0 0 0 1.783.226 4707 4707 0 0 0 30.469 3.206q1.453.148 2.043.456 1.032.538 1.418 1.683c.65 1.913-.471 3.831-2.467 4.221q-.376.074-1.396.004-16.281-1.114-32.559-2.275a106 106 0 0 1-3.735-.337 4176 4176 0 0 1-30.186-3.395 94 94 0 0 1-3.717-.505 1660 1660 0 0 1-26.034-4.308c-3.921-.681-7.814-1.679-11.692-2.561a709 709 0 0 1-17.516-4.219c-2.666-.678-5.366-1.595-8.049-2.399q-.023-.008-.024-.032a.05.05 0 0 0-.025-.039.3.3 0 0 1 .105-.121 291 291 0 0 1 10.672-5.696 61 61 0 0 1 2.63-1.254z"/><path fill="#607DF4" d="M54.076 155.229c7.321 3.236 14.801 6.14 22.33 8.861q1.734.627 3.561 1.171a746 746 0 0 0 26.192 7.296q1.792.465 3.649.861 11.554 2.465 24.856 5.09 1.538.305 2.508.454a2979 2979 0 0 0 24.154 3.633q1.852.272 3.719.474a4378 4378 0 0 0 29.559 3.107q1.394.142 2.022.471c2.387 1.254 2.085 4.937-.653 5.789q-.55.17-1.716.094a5799 5799 0 0 1-33.096-2.306q-1.872-.136-3.737-.34a6216 6216 0 0 1-30.218-3.397 65 65 0 0 1-2.758-.376 1806 1806 0 0 1-25.974-4.3 85 85 0 0 1-3.683-.721 922 922 0 0 1-23.964-5.618 109 109 0 0 1-8.773-2.55c-.299-.101-.663-.156-.983-.26a500 500 0 0 1-13.505-4.613 243 243 0 0 1-7.914-2.989c4.59-3.531 9.374-6.779 14.317-9.803a.2.2 0 0 1 .107-.028"/><path fill="#AFBCFA" d="M37.277 166.96a144 144 0 0 0 10.655 6.49 60 60 0 0 0 4.701 2.302 369 369 0 0 0 23.738 9.477q1.722.62 3.557 1.168a715 715 0 0 0 26.512 7.382 90 90 0 0 0 3.65.857q19.303 4.114 25.534 5.217 5.777 1.022 26.359 3.981 1.854.265 3.72.466a6084 6084 0 0 0 28.901 3.031q1.308.134 1.854.389c1.97.914 2.412 3.702.797 5.138-1.154 1.028-2.238.874-3.6.783q-15.991-1.082-31.978-2.217a103 103 0 0 1-3.737-.337 5008 5008 0 0 1-27.336-3.055c-2.432-.277-4.801-.565-7.272-.955a1595 1595 0 0 1-25.516-4.23c-3.858-.673-7.687-1.662-11.503-2.53a685 685 0 0 1-17.28-4.155 79 79 0 0 1-3.612-1.011 385 385 0 0 1-24.142-8.285 46 46 0 0 1-3.542-1.522 260 260 0 0 1-10.353-5.263l-1.522-1.573c.606-.769 1.21-1.557 1.873-2.286q4.022-4.419 6.17-6.322c1.117-.989 2.195-2.022 3.372-2.94"/><path fill="#F5F3E7" d="m25.862 178.508 1.522 1.573c5.65 5.755 13.137 10.413 20.36 14.406a64 64 0 0 0 5.257 2.6 367 367 0 0 0 24.441 9.661q1.28.455 1.743.593a801 801 0 0 0 26.646 7.443q1.793.468 3.649.866a1454 1454 0 0 0 24.377 5.005q1.829.36 3.694.652a2105 2105 0 0 0 24.244 3.654q1.842.267 3.722.47a5582 5582 0 0 0 29.162 3.061q1.296.134 1.869.425c2.587 1.318 2.084 5.156-.715 5.87q-.492.124-1.516.055a7027 7027 0 0 1-32.781-2.28 101 101 0 0 1-3.737-.336 4344 4344 0 0 1-30.087-3.387 94 94 0 0 1-3.716-.507 1581 1581 0 0 1-25.428-4.2 89 89 0 0 1-3.683-.719 776 776 0 0 1-26.133-6.172 72 72 0 0 1-3.61-1.015c-8.107-2.513-16.163-5.232-24.075-8.296-5.01-1.94-9.113-4.334-13.567-6.611-2.416-2.291-4.895-5.49-5.78-8.742q-.235-.862-.242-2.065c-.01-1.303-.089-2.628.172-3.891.61-2.965 2.383-5.726 4.212-8.113"/></svg>
