<svg width="221" height="256" viewBox="0 0 221 256" fill="none" xmlns="http://www.w3.org/2000/svg">
<path fill-rule="evenodd" clip-rule="evenodd" d="M94.3751 102.408C97.6013 95.716 100.924 89.0635 104.824 82.6507C105.55 81.4558 106.332 80.29 107.515 79.39C109.672 77.7483 112.205 77.8896 114.125 79.7555C114.993 80.5985 115.592 81.594 116.172 82.6013C124.089 96.3399 130.487 110.643 136.329 125.152C136.391 125.305 136.446 125.461 136.502 125.617C136.505 125.627 136.509 125.638 136.513 125.648C136.756 126.338 137.002 127.035 137.754 127.539C137.823 127.519 137.896 127.502 137.97 127.486C138.133 127.448 138.302 127.41 138.443 127.334C138.549 127.276 138.655 127.22 138.761 127.163C139.31 126.869 139.862 126.574 140.359 126.22C149.516 119.704 157.646 112.392 163.29 103.127C164.005 101.953 164.168 100.828 163.944 99.559C163.334 96.0906 162.401 92.7103 160.778 89.4913C160.022 87.9915 160.169 86.5926 161.273 85.1829C162.471 83.6516 163.267 81.9053 163.923 80.1342C164.908 77.4699 163.728 75.1915 162.559 72.9349C162.223 72.2848 161.887 71.6365 161.604 70.9813C161.091 69.7918 160.819 68.8793 161.354 67.6464C162.309 65.4421 163.194 63.166 161.987 60.7758C160.866 58.5549 159.47 56.4735 157.945 54.4538C157.159 53.413 156.114 52.7928 154.458 52.5943C154.41 56.0915 153.75 59.4604 153.091 62.8258C153.005 63.2668 152.918 63.7078 152.833 64.1489C152.616 65.2768 153.387 66.0305 154.63 66.4433C155.638 66.7787 156.64 67.1814 157.543 67.6952C158.536 68.2601 159.352 69.0334 158.878 70.2307C158.397 71.4497 157.472 72.2183 155.933 72.2806C154.098 72.3544 153.196 71.5178 152.686 70.0058C152.094 68.2493 151.057 68.0728 149.62 69.3054C146.314 72.1397 142.45 73.3194 138.091 71.6838C132.633 69.6353 130.303 65.3181 128.716 60.6101C128.6 60.2647 128.681 59.8551 128.757 59.4676C128.77 59.4007 128.783 59.3344 128.795 59.2692C128.886 58.7721 128.996 58.2767 129.107 57.7816C129.307 56.8906 129.506 55.9997 129.587 55.1004C129.669 54.1834 129.849 53.2687 130.028 52.3538C130.457 50.1741 130.886 47.9928 129.996 45.7758C129.356 44.1829 128.706 42.5896 127.964 41.0329C125.347 35.5445 122.187 30.2977 119.027 25.0508C117.482 22.4856 115.937 19.9204 114.455 17.3269C114.303 17.06 114.162 16.7861 114.02 16.5117C113.479 15.4622 112.934 14.4058 111.749 13.7085C110.244 12.8234 108.997 13.0744 108.257 14.4868C107.747 15.4594 107.224 16.4268 106.701 17.3941L106.7 17.3963C106.453 17.8525 106.207 18.3087 105.962 18.7654C103.979 22.4561 101.799 26.0574 99.6194 29.6587C97.0744 33.8631 94.5293 38.0675 92.2987 42.4145C90.3255 46.2608 88.9963 50.2407 89.3868 54.5256C89.4858 55.6149 89.632 56.7007 89.7783 57.7865L89.7784 57.7871L89.7784 57.7878C89.7793 57.7945 89.7802 57.8013 89.7811 57.808C89.7987 57.938 89.8162 58.068 89.8336 58.198C89.9619 59.1554 90.0856 60.1131 90.1722 61.0735C90.6284 66.1293 86.9524 70.7994 81.6716 71.9619C75.9586 73.2195 71.5305 71.1811 68.9425 66.0653C66.9303 62.0889 66.1778 57.8883 66.1663 53.5556C66.1659 53.4126 66.1789 53.2632 66.1921 53.112C66.2457 52.496 66.3019 51.8512 65.4642 51.4939C64.7372 51.6032 64.3989 52.0588 64.0716 52.4997C64.0167 52.5736 63.962 52.6472 63.906 52.7186L63.8639 52.7722C62.8595 54.051 61.854 55.3312 60.9214 56.651C54.1607 66.2215 52.8537 75.9647 59.8232 85.9382C60.5015 86.9086 60.4491 87.8174 59.9279 88.8206C58.5379 91.4964 57.455 94.2816 57.0657 97.2077C57.0048 97.6651 56.8963 98.1228 56.7875 98.5817C56.4703 99.9192 56.1506 101.268 57.0007 102.652C62.8831 112.231 70.9715 120.09 80.7145 126.673C82.311 127.752 83.3472 127.511 84.0378 125.797C87.1838 117.989 90.6529 110.294 94.3751 102.408ZM98.1966 113.916C97.0855 116.188 95.9744 118.46 94.9104 120.749C90.9863 129.192 87.0809 137.643 85.3552 146.723C85.3333 146.838 85.3093 146.954 85.285 147.071C85.1079 147.925 84.924 148.811 85.5628 149.497C86.0832 150.056 86.4529 150.684 86.8203 151.308C87.1249 151.826 87.4279 152.34 87.814 152.811C91.9694 157.872 96.1284 162.933 100.386 167.926C100.717 168.315 101.043 168.707 101.369 169.099C102.703 170.701 104.039 172.308 105.716 173.669C108.49 175.92 111.548 176.085 114.525 174.095C115.545 173.416 116.461 172.622 117.247 171.732C123.169 165.019 128.804 158.123 134.246 151.098C135.357 149.664 135.604 148.216 135.29 146.625C134.423 142.23 133.088 137.939 131.333 133.76C126.339 121.867 120.716 110.204 114.66 98.7098C114.608 98.6112 114.556 98.5124 114.504 98.4135L114.365 98.1479C113.22 95.9664 112.046 93.729 110.219 91.4801C106.622 97.1299 103.751 102.814 100.808 108.639C100.446 109.356 100.083 110.075 99.7167 110.797C99.213 111.838 98.7048 112.877 98.1966 113.916ZM156.619 180.848C156.516 179.75 156.409 178.615 156.165 177.443C152.195 181.005 149.011 184.918 145.856 188.795C143.775 191.354 141.705 193.897 139.432 196.313C139.514 196.37 139.586 196.422 139.651 196.47C139.697 196.504 139.74 196.535 139.78 196.564C139.954 196.693 140.075 196.783 140.211 196.849C140.6 197.04 140.996 197.229 141.412 197.365C147.523 199.379 153.783 200.21 160.316 199.551C169.573 198.619 176.057 194.165 180.564 187.233C185.075 180.294 185.851 172.743 184.618 164.968C184.568 164.655 184.521 164.34 184.474 164.025L184.474 164.024C184.218 162.307 183.96 160.571 183.228 158.945C182.209 159.022 181.503 159.456 180.813 159.88C180.79 159.893 180.768 159.907 180.746 159.921C180.731 159.93 180.715 159.94 180.7 159.949C179.284 160.816 177.874 161.69 176.463 162.564L176.46 162.565C173.595 164.34 170.73 166.116 167.82 167.832C166.386 168.677 166.027 169.66 166.132 171.097C166.484 175.915 165.314 180.51 163.096 184.885C162.305 186.445 161.336 187.964 159.73 189.202C158.81 188.377 158.39 187.466 157.887 186.374C157.865 186.326 157.843 186.278 157.821 186.229C157.798 186.18 157.776 186.131 157.753 186.082C156.957 184.441 156.793 182.698 156.619 180.848ZM63.4319 180.658C63.2572 182.499 63.0926 184.235 62.2938 185.868C62.2478 185.966 62.2028 186.063 62.1585 186.159C61.6537 187.246 61.2323 188.153 60.3088 188.974C58.697 187.742 57.7235 186.229 56.9301 184.677C54.7029 180.322 53.5291 175.747 53.8822 170.95C53.9874 169.52 53.6273 168.542 52.1879 167.7C49.2669 165.992 46.3907 164.224 43.5144 162.457L43.5125 162.456L43.5114 162.455L43.511 162.455L43.5105 162.455C42.0949 161.585 40.6793 160.715 39.2583 159.853C39.2206 159.83 39.183 159.807 39.1453 159.784C38.4527 159.362 37.7439 158.93 36.7209 158.853C35.9861 160.472 35.7266 162.2 35.4698 163.91C35.4226 164.224 35.3755 164.537 35.3256 164.849C34.0876 172.589 34.8661 180.106 39.3949 187.014C43.9195 193.915 50.4279 198.349 59.7208 199.277C66.2791 199.933 72.5629 199.105 78.697 197.101C79.1143 196.965 79.5123 196.777 79.9031 196.587C80.0391 196.521 80.1605 196.432 80.3358 196.303C80.4322 196.233 80.5448 196.15 80.685 196.053C78.4026 193.648 76.3255 191.116 74.2357 188.569C71.0688 184.71 67.8725 180.814 63.888 177.268C63.6427 178.435 63.5355 179.565 63.4319 180.658Z" fill="#363333"/>
<path d="M140.211 196.849C140.6 197.04 140.996 197.229 141.412 197.365C147.523 199.379 153.783 200.21 160.316 199.551C169.573 198.619 176.057 194.165 180.564 187.233C185.075 180.294 185.851 172.743 184.618 164.968C184.568 164.655 184.521 164.34 184.474 164.025L184.474 164.024C184.218 162.307 183.96 160.571 183.228 158.945C182.209 159.022 181.503 159.456 180.813 159.88L180.746 159.921L180.7 159.949C179.284 160.816 177.874 161.69 176.463 162.564L176.46 162.565C173.595 164.34 170.73 166.116 167.82 167.832C166.386 168.677 166.027 169.66 166.132 171.097C166.484 175.915 165.314 180.51 163.096 184.885C162.305 186.445 161.336 187.964 159.73 189.202C158.81 188.377 158.39 187.466 157.887 186.374L157.821 186.229C157.798 186.18 157.776 186.131 157.753 186.082C156.957 184.441 156.793 182.698 156.619 180.848C156.516 179.75 156.409 178.615 156.165 177.443C152.195 181.005 149.011 184.918 145.856 188.795C143.775 191.354 141.705 193.897 139.432 196.313C139.514 196.37 139.586 196.422 139.651 196.47C139.697 196.504 139.74 196.535 139.78 196.564C139.954 196.693 140.075 196.783 140.211 196.849Z" fill="#FFC94A"/>
<path d="M79.9031 196.587C79.5123 196.777 79.1143 196.965 78.697 197.101C72.5629 199.105 66.2791 199.933 59.7208 199.277C50.4279 198.349 43.9195 193.915 39.3949 187.014C34.8661 180.106 34.0876 172.589 35.3256 164.849C35.3755 164.537 35.4226 164.224 35.4698 163.91C35.7266 162.2 35.9861 160.472 36.7209 158.853C37.7439 158.93 38.4527 159.362 39.1453 159.784C39.183 159.807 39.2206 159.83 39.2583 159.853C40.6793 160.715 42.0949 161.585 43.5105 162.455L43.511 162.455L43.5114 162.455L43.5125 162.456L43.5144 162.457C46.3907 164.224 49.2669 165.992 52.1879 167.7C53.6273 168.542 53.9874 169.52 53.8822 170.95C53.5291 175.747 54.7029 180.322 56.9301 184.677C57.7235 186.229 58.697 187.742 60.3088 188.974C61.2323 188.153 61.6537 187.246 62.1585 186.159C62.2028 186.063 62.2478 185.966 62.2938 185.868C63.0926 184.235 63.2572 182.499 63.4319 180.658C63.5355 179.565 63.6427 178.435 63.888 177.268C67.8725 180.814 71.0688 184.71 74.2357 188.569C76.3255 191.116 78.4026 193.648 80.685 196.053C80.5448 196.15 80.4322 196.233 80.3358 196.303C80.1605 196.432 80.0391 196.521 79.9031 196.587Z" fill="#FFC94A"/>
<path d="M94.9104 120.749C90.9863 129.192 87.0809 137.643 85.3552 146.723C85.3333 146.838 85.3093 146.954 85.285 147.071C85.1079 147.925 84.924 148.811 85.5628 149.497C86.0832 150.056 86.4529 150.684 86.8203 151.308C87.1249 151.826 87.4279 152.34 87.814 152.811C91.9694 157.872 96.1284 162.933 100.386 167.926C100.717 168.315 101.043 168.707 101.369 169.099C102.703 170.701 104.039 172.308 105.716 173.669C108.49 175.92 111.548 176.085 114.525 174.095C115.545 173.416 116.461 172.622 117.247 171.732C123.169 165.019 128.804 158.123 134.246 151.098C135.357 149.664 135.604 148.216 135.29 146.625C134.423 142.23 133.088 137.939 131.333 133.76C126.339 121.867 120.716 110.204 114.66 98.7098C114.608 98.6112 114.556 98.5124 114.504 98.4135L114.365 98.1479C113.22 95.9664 112.046 93.729 110.219 91.4801C106.622 97.1299 103.751 102.814 100.808 108.639C100.446 109.356 100.083 110.075 99.7167 110.797C99.213 111.838 98.7048 112.877 98.1966 113.916C97.0855 116.188 95.9744 118.46 94.9104 120.749Z" fill="url(#paint0_linear_9884_1152)"/>
<path d="M94.3751 102.408C97.6013 95.716 100.924 89.0635 104.824 82.6507C105.55 81.4558 106.332 80.29 107.515 79.39C109.672 77.7483 112.205 77.8896 114.125 79.7555C114.993 80.5985 115.592 81.594 116.172 82.6013C124.089 96.3399 130.487 110.643 136.329 125.152C136.391 125.305 136.446 125.461 136.502 125.617C136.505 125.627 136.509 125.638 136.513 125.648C136.756 126.338 137.002 127.035 137.754 127.539C137.823 127.519 137.896 127.502 137.97 127.486C138.133 127.448 138.302 127.41 138.443 127.334C138.549 127.276 138.655 127.22 138.761 127.163C139.31 126.869 139.862 126.574 140.359 126.22C149.516 119.704 157.646 112.392 163.29 103.127C164.005 101.953 164.168 100.828 163.944 99.559C163.334 96.0906 162.401 92.7103 160.778 89.4913C160.022 87.9915 160.169 86.5926 161.273 85.1829C162.471 83.6516 163.267 81.9053 163.923 80.1342C164.908 77.4699 163.728 75.1915 162.559 72.9349C162.223 72.2848 161.887 71.6365 161.604 70.9813C161.091 69.7918 160.819 68.8793 161.354 67.6464C162.309 65.4421 163.194 63.166 161.987 60.7758C160.866 58.5549 159.47 56.4735 157.945 54.4538C157.159 53.413 156.114 52.7928 154.458 52.5943C154.41 56.0915 153.75 59.4604 153.091 62.8258C153.005 63.2668 152.918 63.7078 152.833 64.1489C152.616 65.2768 153.387 66.0305 154.63 66.4433C155.638 66.7787 156.64 67.1814 157.543 67.6952C158.536 68.2601 159.352 69.0334 158.878 70.2307C158.397 71.4497 157.472 72.2183 155.933 72.2806C154.098 72.3544 153.196 71.5178 152.686 70.0058C152.094 68.2493 151.057 68.0728 149.62 69.3054C146.314 72.1397 142.45 73.3194 138.091 71.6838C132.633 69.6353 130.303 65.3181 128.716 60.6101C128.6 60.2647 128.681 59.8551 128.757 59.4676C128.77 59.4007 128.783 59.3344 128.795 59.2692C128.886 58.7721 128.996 58.2767 129.107 57.7816C129.307 56.8906 129.506 55.9997 129.587 55.1004C129.669 54.1834 129.849 53.2687 130.028 52.3538C130.457 50.1741 130.886 47.9928 129.996 45.7758C129.356 44.1829 128.706 42.5896 127.964 41.0329C125.347 35.5445 122.187 30.2977 119.027 25.0508C117.482 22.4856 115.937 19.9204 114.455 17.3269C114.303 17.06 114.162 16.7861 114.02 16.5117C113.479 15.4622 112.934 14.4058 111.749 13.7085C110.244 12.8234 108.997 13.0744 108.257 14.4868C107.747 15.4594 107.224 16.4268 106.701 17.3941L106.7 17.3963C106.453 17.8525 106.207 18.3087 105.962 18.7654C103.979 22.4561 101.799 26.0574 99.6194 29.6587C97.0744 33.8631 94.5293 38.0675 92.2987 42.4145C90.3255 46.2608 88.9963 50.2407 89.3868 54.5256C89.4858 55.6149 89.632 56.7007 89.7783 57.7865L89.7784 57.7871L89.7784 57.7878C89.7793 57.7945 89.7802 57.8013 89.7811 57.808C89.7987 57.938 89.8162 58.068 89.8336 58.198C89.9619 59.1554 90.0856 60.1131 90.1722 61.0735C90.6284 66.1293 86.9524 70.7994 81.6716 71.9619C75.9586 73.2195 71.5305 71.1811 68.9425 66.0653C66.9303 62.0889 66.1778 57.8883 66.1663 53.5556C66.1659 53.4126 66.1789 53.2632 66.1921 53.112C66.2457 52.496 66.3019 51.8512 65.4642 51.4939C64.7372 51.6032 64.3989 52.0588 64.0716 52.4997C64.0167 52.5736 63.962 52.6472 63.906 52.7186L63.8639 52.7722C62.8595 54.051 61.854 55.3312 60.9214 56.651C54.1607 66.2215 52.8537 75.9647 59.8232 85.9382C60.5015 86.9086 60.4491 87.8174 59.9279 88.8206C58.5379 91.4964 57.455 94.2816 57.0657 97.2077C57.0048 97.6651 56.8963 98.1228 56.7875 98.5817C56.4703 99.9192 56.1506 101.268 57.0007 102.652C62.8831 112.231 70.9715 120.09 80.7145 126.673C82.311 127.752 83.3472 127.511 84.0378 125.797C87.1838 117.989 90.6529 110.294 94.3751 102.408Z" fill="url(#paint1_linear_9884_1152)"/>
<path fill-rule="evenodd" clip-rule="evenodd" d="M89.7784 57.7871L89.7784 57.7878C89.7793 57.7945 89.7802 57.8013 89.7811 57.808C89.7802 57.8012 89.7793 57.794 89.7784 57.7871ZM178.96 220.498C189.189 210.503 197.008 196.264 198.524 190.615C199.869 185.6 199.778 180.523 199.565 175.465C199.338 170.055 200.988 165.252 204.182 160.72C206.036 158.091 207.683 155.344 209.322 152.602C210.31 150.949 209.794 150.181 207.756 150.288C203.874 150.491 200.029 150.969 196.41 152.339C194.161 153.189 193.568 154.018 193.78 156.13C193.9 157.321 194.056 158.51 194.212 159.699L194.212 159.7L194.275 160.177C194.42 161.291 194.562 162.405 194.669 163.522C195.666 173.913 194.011 183.778 187.182 192.593C182.521 198.608 176.705 203.355 168.671 205.567C162.204 207.347 155.595 207.233 149.003 206.286C143.225 205.455 137.787 203.717 132.948 200.725C130.409 199.155 130.124 197.663 131.839 195.423C132.599 194.431 133.385 193.454 134.171 192.476L134.172 192.475L134.459 192.119C135.128 191.287 135.795 190.453 136.443 189.609C143.734 180.11 151.543 170.991 161.515 163.531C168.925 157.988 176.733 152.933 185.422 149.019C190.381 146.784 195.475 144.897 200.948 143.905C202.438 143.635 203.126 143.031 202.791 141.555C202.485 140.208 201.958 138.958 201.33 137.727C200.518 136.136 200.559 134.65 201.459 133.03L201.603 132.771C204.506 127.545 207.41 122.317 209.453 116.75C209.93 115.452 209.84 114.406 208.776 113.513C208.024 112.88 207.259 113.21 206.528 113.526C206.337 113.608 206.149 113.689 205.964 113.752C204.611 114.211 203.265 114.689 201.92 115.167L201.919 115.167C200.192 115.78 198.464 116.394 196.721 116.969C193.639 117.985 192.618 117.273 192.755 114.338C192.756 114.312 192.756 114.286 192.757 114.26L192.758 114.233C192.759 114.155 192.76 114.077 192.773 114C193.009 112.537 193.225 111.072 193.44 109.606L193.483 109.314L193.483 109.313C193.974 105.961 194.465 102.61 195.181 99.2863C195.982 95.5761 196.669 91.8172 196.608 88.0558C196.558 84.956 196.55 81.9137 196.971 78.822C197.046 78.2737 197.087 77.6868 197.128 77.0917V77.0906L197.128 77.089C197.164 76.5776 197.2 76.0598 197.259 75.5555C197.265 75.5051 197.212 75.4493 197.129 75.3611C197.079 75.3088 197.019 75.2452 196.954 75.1647C196.068 75.6295 195.415 76.3133 194.767 76.9907L194.752 77.0068L194.684 77.0784L194.646 77.1177L194.604 77.1611L194.573 77.1939C194.522 77.2466 194.471 77.2991 194.42 77.3514C185.396 86.5957 177.716 96.6959 170.286 106.964C170.093 107.23 169.9 107.497 169.707 107.764C165.885 113.052 162.056 118.351 156.933 122.789C152.1 126.975 146.904 130.783 141.57 134.449C141.544 134.467 141.518 134.485 141.491 134.503L141.419 134.552C140.764 134.996 140.147 135.415 140.315 136.346C140.585 137.836 140.822 139.331 141.059 140.826L141.059 140.827L141.061 140.836C141.238 141.954 141.415 143.072 141.606 144.189C142.272 148.077 141.84 151.622 139.253 155.107C136.827 158.378 134.542 161.735 132.257 165.094C131.22 166.618 130.183 168.142 129.132 169.658C126.713 173.151 123.843 176.284 120.457 179.056C115.188 183.37 108.818 183.94 102.757 180.543C99.2636 178.585 96.5574 175.858 94.2229 172.881C89.7409 167.165 85.696 161.202 81.6508 155.238L81.189 154.558C79.4629 152.013 78.3348 149.419 78.8151 146.405C78.9264 145.708 79.0197 145.007 79.1119 144.306L79.1303 144.166C79.3187 142.731 79.5071 141.297 79.8399 139.89C80.5083 137.065 80.2506 135.057 77.11 133.082C66.7823 126.589 58.3276 118.511 51.7168 108.813C45.0352 99.0116 37.8501 89.4655 29.4569 80.7039C29.1241 80.3563 28.796 80.0038 28.4679 79.6505L28.4022 79.5798C26.9518 78.0183 25.492 76.4466 23.5929 75.2168C22.9994 75.7682 22.8472 76.2821 22.8686 76.8711C22.8964 77.6347 22.9101 78.3975 22.9239 79.1604C22.9515 80.6996 22.9793 82.2391 23.1222 83.7861C23.5544 88.4619 24.345 93.0916 25.1355 97.7207C25.6172 100.542 26.099 103.363 26.4995 106.194C26.6429 107.207 26.8363 108.216 27.0296 109.224C27.4111 111.214 27.7925 113.203 27.7904 115.233C27.7885 117.212 26.7809 117.889 24.6108 117.27C23.6246 116.988 22.67 116.621 21.7149 116.253L21.5024 116.172C21.0069 115.981 20.5107 115.792 20.0091 115.617C19.0987 115.299 18.2161 114.923 17.3333 114.546C15.752 113.871 14.1701 113.196 12.427 112.858C11.1479 112.611 10.6347 113.076 10.5571 114.133C10.4767 115.23 10.8421 116.246 11.2081 117.265C11.2272 117.318 11.2463 117.371 11.2654 117.425C11.2858 117.482 11.3062 117.539 11.3265 117.596C13.0064 122.345 15.5712 126.755 18.1274 131.151L18.2356 131.337C19.6971 133.85 20.4236 136.191 18.7048 138.787C18.4161 139.222 18.2687 139.738 18.1241 140.244L18.124 140.244L18.1234 140.246L18.1074 140.302C18.0842 140.383 18.061 140.464 18.0371 140.543C17.3404 142.874 17.6081 143.296 20.1491 143.931C20.5822 144.039 21.0189 144.136 21.4555 144.233L21.4561 144.233L21.4568 144.234L21.459 144.234C21.7623 144.301 22.0659 144.369 22.3681 144.44C32.1983 146.754 40.7543 151.295 48.9467 156.443C58.5001 162.445 67.3506 169.141 74.4172 177.496C77.8468 181.551 81.2086 185.651 84.5704 189.751L84.5715 189.752L84.5722 189.753L84.5728 189.754L84.5741 189.756L85.1234 190.426C86.4052 191.989 87.6875 193.552 88.9741 195.112C91.1175 197.711 90.9198 198.92 87.9895 200.887C87.383 201.295 86.7253 201.654 86.0527 201.971C78.8847 205.349 71.2781 206.905 63.1186 206.892C53.0341 206.875 44.6448 203.498 38.0118 197.074C27.8516 187.234 24.2869 175.463 26.4448 162.308C26.5123 161.897 26.5833 161.486 26.6543 161.075C26.9872 159.15 27.3193 157.228 27.2906 155.26C27.2685 153.76 26.5909 152.839 25.0361 152.277C22.3669 151.312 19.6045 150.593 16.7744 150.25C15.4353 150.087 14.0669 150.114 12.6638 150.153C12.5703 150.156 12.4766 150.158 12.3828 150.161H12.3822L12.1268 150.168C11.5294 150.185 10.9256 150.2 10.3151 150.2C10.569 151.534 11.0925 152.554 11.7269 153.52C12.2092 154.254 12.7131 154.978 13.217 155.702C13.9841 156.803 14.7511 157.905 15.4414 159.044C15.8822 159.77 16.3608 160.484 16.8445 161.196C16.9135 161.298 16.9827 161.4 17.0519 161.501C18.8297 164.115 20.6107 166.733 20.7659 169.95L20.7701 170.037C20.7976 170.61 20.8252 171.182 20.8525 171.755C21.0438 175.775 21.219 179.797 21.2653 183.82C21.3762 193.538 29.9434 208.484 41.8721 220.498C61.253 240.017 81.1646 247.621 110.512 247.594C139.791 247.567 159.296 239.712 178.96 220.498Z" fill="#ACB0A7"/>
<path fill-rule="evenodd" clip-rule="evenodd" d="M13.3884 175.951C13.3035 171.951 12.4675 168.113 10.0355 164.646C8.65974 162.68 7.31322 160.697 5.9963 158.7C3.9677 155.63 2.12342 152.479 0.633615 149.169C-1.04892 145.43 0.517754 142.147 6.55804 142.429C7.76822 142.486 8.9746 142.608 10.1804 142.729C10.5539 142.767 10.9274 142.804 11.3009 142.84C11.7701 142.885 12.3578 142.909 12.4503 142.481C12.5359 142.084 12.6632 141.695 12.7903 141.307C13.1753 140.13 13.5576 138.962 12.7681 137.609C12.3464 136.886 11.9226 136.164 11.4987 135.442L11.4982 135.441L11.4961 135.437C8.30764 130.005 5.11667 124.569 2.77616 118.784C2.08786 117.082 1.68099 115.351 1.48941 113.527C0.917353 108.082 6.69264 103.237 14.0254 105.645C15.1067 106 16.1905 106.349 17.3428 106.72L17.3442 106.721C17.8912 106.897 18.4536 107.078 19.0386 107.268C18.7784 106.157 18.5128 105.066 18.2502 103.988C17.6803 101.648 17.1245 99.3652 16.6693 97.0671C14.8644 87.9573 13.4155 78.8085 13.8055 69.5208C13.8966 67.3531 14.2239 65.099 16.805 64.0592C19.3155 63.0481 21.7142 63.7377 23.7654 65.1769C28.4306 68.4498 32.4499 72.3101 36.2601 76.3373C40.6018 80.9267 44.5832 85.756 48.2619 90.7807C48.4884 91.0902 48.7392 91.3858 49.0276 91.7258C49.1754 91.8999 49.333 92.0857 49.5023 92.291C50.8713 90.0593 51.6476 88.2103 50.1773 85.6466C44.8612 76.3806 45.6899 67.0079 50.5027 57.7823C54.7576 49.6262 61.2422 43.037 69.1283 37.4748C70.0242 36.8392 71.0149 36.3163 72.0724 35.9208C73.8275 35.2664 75.4845 35.4446 76.9131 36.5034C78.2652 37.5056 78.5383 38.9113 78.1195 40.3691C77.7316 41.7207 77.3154 43.0662 76.8993 44.4116L76.899 44.4126C76.408 46.0002 75.917 47.5877 75.4722 49.1852C74.2126 53.7087 74.7017 58.1315 76.7161 62.4212C77.2874 63.6378 77.9528 65.0333 79.8086 64.6052C81.5462 64.2041 81.9909 62.7911 81.8505 61.3502C81.6919 59.7285 81.4146 58.1108 81.0873 56.5081C79.9726 51.0573 81.62 46.0139 83.8665 41.038C86.4163 35.3907 89.5572 29.9979 92.6981 24.605C94.784 21.0237 96.8698 17.4423 98.7826 13.7864C100.443 10.6137 102.119 7.44649 103.854 4.30566C105.151 1.95843 107.037 0.21951 110.21 0.0173022C113.294 -0.179147 115.242 1.31692 116.659 3.50462C118.671 6.60985 120.379 9.8489 122.087 13.0881C123.128 15.0617 124.169 17.0354 125.279 18.9791C125.653 19.6343 126.028 20.2894 126.403 20.9443L126.411 20.9583C130.005 27.2385 133.599 33.5176 136.555 40.0727C139.359 46.2927 140.671 52.5879 138.832 59.2265C138.581 60.1353 138.62 61.1477 138.749 62.0879C138.919 63.3333 139.641 64.3975 141.139 64.6333C142.621 64.8666 143.317 63.8316 143.791 62.8331C144.934 60.4265 145.511 57.8866 145.699 55.2867C145.993 51.2339 144.741 47.4092 143.491 43.5909C143.449 43.4622 143.407 43.3336 143.365 43.205C143.327 43.091 143.29 42.977 143.253 42.8629C142.897 41.7723 142.592 40.6861 142.562 39.5504C142.479 36.3984 144.97 34.7967 148.389 35.8063C150.848 36.5328 152.723 38.048 154.574 39.543L154.652 39.6063C162.737 46.1365 169.195 53.6666 172.375 63.0871C175.029 70.9491 174.845 78.715 170.276 86.0256C168.867 88.2781 169.69 89.981 170.76 92.1954C170.819 92.3192 170.88 92.4446 170.941 92.5718C171.437 91.9534 171.915 91.3662 172.377 90.7983L172.378 90.7969L172.379 90.7957C173.333 89.6228 174.22 88.532 175.068 87.4177C181.358 79.1472 188.342 71.4162 197.138 65.0936C197.724 64.6722 198.388 64.2983 199.079 64.0355C203.117 62.5018 206.403 64.1896 206.684 68.2219C207.034 73.2313 206.782 78.2554 206.195 83.2564C205.257 91.2593 203.848 99.1942 201.53 107.29C202.164 107.086 202.764 106.889 203.343 106.699L203.344 106.699C204.525 106.311 205.617 105.952 206.721 105.627C214.485 103.34 220.735 108.225 219.025 115.309C217.89 120.013 215.519 124.301 213.152 128.582L213.152 128.582L213.15 128.586C212.885 129.066 212.619 129.546 212.356 130.026C210.907 132.664 209.431 135.289 207.926 137.901C207.234 139.104 207.66 140.196 208.084 141.282L208.084 141.282C208.195 141.565 208.305 141.848 208.395 142.132C208.555 142.635 209.061 142.616 209.541 142.597C209.659 142.593 209.775 142.588 209.884 142.592C210.785 142.618 211.68 142.523 212.576 142.427C213.828 142.294 215.081 142.16 216.353 142.361C220.355 142.993 221.921 145.429 220.466 148.8C218.44 153.492 215.47 157.74 212.506 161.978L212.482 162.012C212.27 162.316 212.057 162.62 211.845 162.924C209.065 166.909 207.338 171.075 207.422 175.826C207.466 178.335 207.367 180.846 207.268 183.356V183.357C207.227 184.4 206.104 189.202 204.833 193.571C194.405 229.414 156.131 256 110.512 256C64.8924 256 26.6188 229.414 16.1905 193.571C14.7354 188.569 13.3019 183.107 13.3593 180.32C13.3893 178.862 13.4193 177.403 13.3884 175.951ZM198.524 190.615C197.008 196.264 189.189 210.503 178.96 220.498C159.296 239.712 139.791 247.567 110.512 247.594C81.1646 247.621 61.253 240.017 41.8721 220.498C29.9434 208.484 21.3762 193.538 21.2653 183.82C21.219 179.797 21.0438 175.775 20.8525 171.755C20.8252 171.182 20.7976 170.61 20.7701 170.037L20.7659 169.95C20.6107 166.733 18.8297 164.115 17.0519 161.501C16.9827 161.4 16.9135 161.298 16.8445 161.196C16.3608 160.484 15.8822 159.77 15.4414 159.044C14.7511 157.905 13.9841 156.803 13.217 155.702C12.7131 154.978 12.2092 154.254 11.7269 153.52C11.0925 152.554 10.569 151.534 10.3151 150.2C10.9256 150.2 11.5294 150.185 12.1268 150.168L12.3822 150.161H12.3828C12.4766 150.158 12.5703 150.156 12.6638 150.153C14.0669 150.114 15.4353 150.087 16.7744 150.25C19.6045 150.593 22.3669 151.312 25.0361 152.277C26.5909 152.839 27.2685 153.76 27.2906 155.26C27.3193 157.228 26.9872 159.15 26.6543 161.075C26.5833 161.486 26.5123 161.897 26.4448 162.308C24.2869 175.463 27.8516 187.234 38.0118 197.074C44.6448 203.498 53.0341 206.875 63.1186 206.892C71.2781 206.905 78.8847 205.349 86.0527 201.971C86.7253 201.654 87.383 201.295 87.9895 200.887C90.9198 198.92 91.1175 197.711 88.9741 195.112C87.6875 193.552 86.4052 191.989 85.1234 190.426L84.5741 189.756L84.5728 189.754L84.5722 189.753L84.5715 189.752L84.5704 189.751C81.2086 185.651 77.8468 181.551 74.4172 177.496C67.3506 169.141 58.5001 162.445 48.9467 156.443C40.7543 151.295 32.1983 146.754 22.3681 144.44C22.0659 144.369 21.7623 144.301 21.459 144.234L21.4568 144.234L21.4561 144.233L21.4555 144.233C21.0189 144.136 20.5822 144.039 20.1491 143.931C17.6081 143.296 17.3404 142.874 18.0371 140.543C18.061 140.464 18.0842 140.383 18.1074 140.302L18.1234 140.246L18.124 140.244L18.1241 140.244C18.2687 139.738 18.4161 139.222 18.7048 138.787C20.4236 136.191 19.6971 133.85 18.2356 131.337L18.1274 131.151C15.5712 126.755 13.0064 122.345 11.3265 117.596C11.3062 117.539 11.2858 117.482 11.2654 117.425C11.2463 117.371 11.2272 117.318 11.2081 117.265C10.8421 116.246 10.4767 115.23 10.5571 114.133C10.6347 113.076 11.1479 112.611 12.427 112.858C14.1701 113.196 15.752 113.871 17.3333 114.546C18.2161 114.923 19.0987 115.299 20.0091 115.617C20.5107 115.792 21.0069 115.981 21.5024 116.172L21.7149 116.253C22.67 116.621 23.6246 116.988 24.6108 117.27C26.7809 117.889 27.7885 117.212 27.7904 115.233C27.7925 113.203 27.4111 111.214 27.0296 109.224C26.8363 108.216 26.6429 107.207 26.4995 106.194C26.099 103.363 25.6172 100.542 25.1355 97.7207C24.345 93.0916 23.5544 88.4619 23.1222 83.7861C22.9793 82.2391 22.9515 80.6996 22.9239 79.1604C22.9101 78.3975 22.8964 77.6347 22.8686 76.8711C22.8472 76.2821 22.9994 75.7682 23.5929 75.2168C25.492 76.4466 26.9518 78.0183 28.4022 79.5798L28.4679 79.6505C28.796 80.0038 29.1241 80.3563 29.4569 80.7039C37.8501 89.4655 45.0352 99.0116 51.7168 108.813C58.3276 118.511 66.7823 126.589 77.11 133.082C80.2506 135.057 80.5083 137.065 79.8399 139.89C79.5071 141.297 79.3187 142.731 79.1303 144.166L79.1119 144.306C79.0197 145.007 78.9264 145.708 78.8151 146.405C78.3348 149.419 79.4629 152.013 81.189 154.558L81.6508 155.238C85.696 161.202 89.7409 167.165 94.2229 172.881C96.5574 175.858 99.2636 178.585 102.757 180.543C108.818 183.94 115.188 183.37 120.457 179.056C123.843 176.284 126.713 173.151 129.132 169.658C130.183 168.142 131.22 166.618 132.257 165.094C134.542 161.735 136.827 158.378 139.253 155.107C141.84 151.622 142.272 148.077 141.606 144.189C141.415 143.072 141.238 141.954 141.061 140.836L141.059 140.827L141.059 140.826C140.822 139.331 140.585 137.836 140.315 136.346C140.147 135.415 140.764 134.996 141.419 134.552L141.491 134.503C141.518 134.485 141.544 134.467 141.57 134.449C146.904 130.783 152.1 126.975 156.933 122.789C162.056 118.351 165.885 113.052 169.707 107.764C169.9 107.497 170.093 107.23 170.286 106.964C177.716 96.6959 185.396 86.5957 194.42 77.3514C194.471 77.2991 194.522 77.2466 194.573 77.1939L194.604 77.1611L194.646 77.1177L194.684 77.0784L194.752 77.0068L194.767 76.9907C195.415 76.3133 196.068 75.6295 196.954 75.1647C197.019 75.2452 197.079 75.3088 197.129 75.3611C197.212 75.4493 197.265 75.5051 197.259 75.5555C197.2 76.0598 197.164 76.5776 197.128 77.089L197.128 77.0906V77.0917C197.087 77.6868 197.046 78.2737 196.971 78.822C196.55 81.9137 196.558 84.956 196.608 88.0558C196.669 91.8172 195.982 95.5761 195.181 99.2863C194.465 102.61 193.974 105.961 193.483 109.313L193.483 109.314L193.44 109.606C193.225 111.072 193.009 112.537 192.773 114C192.76 114.077 192.759 114.155 192.758 114.233L192.757 114.26C192.756 114.286 192.756 114.312 192.755 114.338C192.618 117.273 193.639 117.985 196.721 116.969C198.464 116.394 200.192 115.78 201.919 115.167L201.92 115.167C203.265 114.689 204.611 114.211 205.964 113.752C206.149 113.689 206.337 113.608 206.528 113.526C207.259 113.21 208.024 112.88 208.776 113.513C209.84 114.406 209.93 115.452 209.453 116.75C207.41 122.317 204.506 127.545 201.603 132.771L201.459 133.03C200.559 134.65 200.518 136.136 201.33 137.727C201.958 138.958 202.485 140.208 202.791 141.555C203.126 143.031 202.438 143.635 200.948 143.905C195.475 144.897 190.381 146.784 185.422 149.019C176.733 152.933 168.925 157.988 161.515 163.531C151.543 170.991 143.734 180.11 136.443 189.609C135.795 190.453 135.128 191.287 134.459 192.119L134.172 192.475L134.171 192.476C133.385 193.454 132.599 194.431 131.839 195.423C130.124 197.663 130.409 199.155 132.948 200.725C137.787 203.717 143.225 205.455 149.003 206.286C155.595 207.233 162.204 207.347 168.671 205.567C176.705 203.355 182.521 198.608 187.182 192.593C194.011 183.778 195.666 173.913 194.669 163.522C194.562 162.405 194.42 161.291 194.275 160.177L194.212 159.7L194.212 159.699C194.056 158.51 193.9 157.321 193.78 156.13C193.568 154.018 194.161 153.189 196.41 152.339C200.029 150.969 203.874 150.491 207.756 150.288C209.794 150.181 210.31 150.949 209.322 152.602C207.683 155.344 206.036 158.091 204.182 160.72C200.988 165.252 199.338 170.055 199.565 175.465C199.778 180.523 199.869 185.6 198.524 190.615ZM104.824 82.6507C100.924 89.0635 97.6013 95.716 94.3751 102.408C90.6529 110.294 87.1838 117.989 84.0378 125.797C83.3472 127.511 82.311 127.752 80.7145 126.673C70.9715 120.09 62.8831 112.231 57.0007 102.652C56.1506 101.268 56.4703 99.9192 56.7875 98.5817C56.8963 98.1228 57.0048 97.6651 57.0657 97.2077C57.455 94.2816 58.5379 91.4964 59.9279 88.8206C60.4491 87.8174 60.5015 86.9086 59.8232 85.9382C52.8537 75.9647 54.1607 66.2215 60.9214 56.651C61.854 55.3312 62.8595 54.051 63.8639 52.7722L63.906 52.7186C63.962 52.6472 64.0167 52.5736 64.0716 52.4997C64.3989 52.0588 64.7372 51.6032 65.4642 51.4939C66.3019 51.8512 66.2457 52.496 66.1921 53.112C66.1789 53.2632 66.1659 53.4126 66.1663 53.5556C66.1778 57.8883 66.9303 62.0889 68.9425 66.0653C71.5305 71.1811 75.9586 73.2195 81.6716 71.9619C86.9524 70.7994 90.6284 66.1293 90.1722 61.0735C90.0856 60.1131 89.9619 59.1554 89.8336 58.198C89.8162 58.068 89.7987 57.938 89.7811 57.808L89.7784 57.7878L89.7784 57.7871L89.7783 57.7865C89.632 56.7007 89.4858 55.6149 89.3868 54.5256C88.9963 50.2407 90.3255 46.2608 92.2987 42.4145C94.5293 38.0675 97.0744 33.8631 99.6194 29.6587C101.799 26.0574 103.979 22.4561 105.962 18.7654C106.207 18.3087 106.453 17.8525 106.7 17.3963L106.701 17.3941C107.224 16.4268 107.747 15.4594 108.257 14.4868C108.997 13.0744 110.244 12.8234 111.749 13.7085C112.934 14.4058 113.479 15.4622 114.02 16.5117C114.162 16.7861 114.303 17.06 114.455 17.3269C115.937 19.9204 117.482 22.4856 119.027 25.0508C122.187 30.2977 125.347 35.5445 127.964 41.0329C128.706 42.5896 129.356 44.1829 129.996 45.7758C130.886 47.9928 130.457 50.1741 130.028 52.3538C129.849 53.2687 129.669 54.1834 129.587 55.1004C129.506 55.9997 129.307 56.8906 129.107 57.7816C128.996 58.2767 128.886 58.7721 128.795 59.2692C128.783 59.3344 128.77 59.4007 128.757 59.4676C128.681 59.8551 128.6 60.2647 128.716 60.6101C130.303 65.3181 132.633 69.6353 138.091 71.6838C142.45 73.3194 146.314 72.1397 149.62 69.3054C151.057 68.0728 152.094 68.2493 152.686 70.0058C153.196 71.5178 154.098 72.3544 155.933 72.2806C157.472 72.2183 158.397 71.4497 158.878 70.2307C159.352 69.0334 158.536 68.2601 157.543 67.6952C156.64 67.1814 155.638 66.7787 154.63 66.4433C153.387 66.0305 152.616 65.2768 152.833 64.1489C152.918 63.7078 153.005 63.2668 153.091 62.8258C153.75 59.4604 154.41 56.0915 154.458 52.5943C156.114 52.7928 157.159 53.413 157.945 54.4538C159.47 56.4735 160.866 58.5549 161.987 60.7758C163.194 63.166 162.309 65.4421 161.354 67.6464C160.819 68.8793 161.091 69.7918 161.604 70.9813C161.887 71.6365 162.223 72.2848 162.559 72.9349C163.728 75.1915 164.908 77.4699 163.923 80.1342C163.267 81.9053 162.471 83.6516 161.273 85.1829C160.169 86.5926 160.022 87.9915 160.778 89.4913C162.401 92.7103 163.334 96.0906 163.944 99.559C164.168 100.828 164.005 101.953 163.29 103.127C157.646 112.392 149.516 119.704 140.359 126.22C139.862 126.574 139.31 126.869 138.761 127.163C138.655 127.22 138.549 127.276 138.443 127.334C138.302 127.41 138.133 127.448 137.97 127.486C137.896 127.502 137.823 127.519 137.754 127.539C137.002 127.035 136.756 126.338 136.513 125.648L136.502 125.617C136.446 125.461 136.391 125.305 136.329 125.152C130.487 110.643 124.089 96.3399 116.172 82.6013C115.592 81.594 114.993 80.5985 114.125 79.7555C112.205 77.8896 109.672 77.7483 107.515 79.39C106.332 80.29 105.55 81.4558 104.824 82.6507ZM85.3552 146.723C87.0809 137.643 90.9863 129.192 94.9104 120.749C95.9744 118.46 97.0855 116.188 98.1966 113.916C98.7048 112.877 99.213 111.838 99.7167 110.797C100.083 110.075 100.446 109.356 100.808 108.639C103.751 102.814 106.622 97.1299 110.219 91.4801C112.046 93.729 113.22 95.9664 114.365 98.1479L114.504 98.4135C114.556 98.5124 114.608 98.6112 114.66 98.7098C120.716 110.204 126.339 121.867 131.333 133.76C133.088 137.939 134.423 142.23 135.29 146.625C135.604 148.216 135.357 149.664 134.246 151.098C128.804 158.123 123.169 165.019 117.247 171.732C116.461 172.622 115.545 173.416 114.525 174.095C111.548 176.085 108.49 175.92 105.716 173.669C104.039 172.308 102.703 170.701 101.369 169.099C101.043 168.707 100.717 168.315 100.386 167.926C96.1284 162.933 91.9694 157.872 87.814 152.811C87.4279 152.34 87.1249 151.826 86.8203 151.308C86.4529 150.684 86.0832 150.056 85.5628 149.497C84.924 148.811 85.1079 147.925 85.285 147.071C85.3093 146.954 85.3333 146.838 85.3552 146.723ZM141.412 197.365C140.996 197.229 140.6 197.04 140.211 196.849C140.075 196.783 139.954 196.693 139.78 196.564C139.74 196.535 139.697 196.504 139.651 196.47C139.586 196.422 139.514 196.37 139.432 196.313C141.705 193.897 143.775 191.354 145.856 188.795C149.011 184.918 152.195 181.005 156.165 177.443C156.409 178.615 156.516 179.75 156.619 180.848C156.793 182.698 156.957 184.441 157.753 186.082C157.776 186.131 157.798 186.18 157.821 186.229L157.887 186.374C158.39 187.466 158.81 188.377 159.73 189.202C161.336 187.964 162.305 186.445 163.096 184.885C165.314 180.51 166.484 175.915 166.132 171.097C166.027 169.66 166.386 168.677 167.82 167.832C170.73 166.116 173.595 164.34 176.46 162.565L176.463 162.564C177.874 161.69 179.284 160.816 180.7 159.949L180.746 159.921L180.813 159.88C181.503 159.456 182.209 159.022 183.228 158.945C183.96 160.571 184.218 162.307 184.474 164.024L184.474 164.025C184.521 164.34 184.568 164.655 184.618 164.968C185.851 172.743 185.075 180.294 180.564 187.233C176.057 194.165 169.573 198.619 160.316 199.551C153.783 200.21 147.523 199.379 141.412 197.365ZM78.697 197.101C79.1143 196.965 79.5123 196.777 79.9031 196.587C80.0391 196.521 80.1605 196.432 80.3358 196.303C80.4322 196.233 80.5448 196.15 80.685 196.053C78.4026 193.648 76.3255 191.116 74.2357 188.569C71.0688 184.71 67.8725 180.814 63.888 177.268C63.6427 178.435 63.5355 179.565 63.4319 180.658C63.2572 182.499 63.0926 184.235 62.2938 185.868C62.2478 185.966 62.2028 186.063 62.1585 186.159C61.6537 187.246 61.2323 188.153 60.3088 188.974C58.697 187.742 57.7235 186.229 56.9301 184.677C54.7029 180.322 53.5291 175.747 53.8822 170.95C53.9874 169.52 53.6273 168.542 52.1879 167.7C49.2669 165.992 46.3907 164.224 43.5144 162.457L43.5125 162.456L43.5114 162.455L43.511 162.455L43.5105 162.455C42.0949 161.585 40.6793 160.715 39.2583 159.853C39.2206 159.83 39.183 159.807 39.1453 159.784C38.4527 159.362 37.7439 158.93 36.7209 158.853C35.9861 160.472 35.7266 162.2 35.4698 163.91C35.4226 164.224 35.3755 164.537 35.3256 164.849C34.0876 172.589 34.8661 180.106 39.3949 187.014C43.9195 193.915 50.4279 198.349 59.7208 199.277C66.2791 199.933 72.5629 199.105 78.697 197.101Z" fill="#363333"/>
<path d="M90.5224 226.291C89.0458 225.102 87.8952 223.894 87.2284 222.442C86.6218 221.121 86.5155 219.704 87.8001 218.57C88.9991 217.512 90.4172 217.573 91.8915 218.119C95.2811 219.374 98.301 221.131 100.879 223.428C102.6 224.961 103.47 226.867 101.948 228.804C100.431 230.734 98.1534 230.232 96.0796 229.525C94.0467 228.832 92.3374 227.648 90.5224 226.291Z" fill="#363333"/>
<path d="M122.399 230.075C124.894 229.973 126.779 228.692 128.912 227.443C131.037 226.003 132.942 224.607 133.915 222.541C134.537 221.22 134.679 219.817 133.391 218.674C132.22 217.636 130.742 217.517 129.295 218.061C125.269 219.574 121.747 221.727 119.044 224.804C118.106 225.871 117.564 227.108 118.377 228.423C119.233 229.808 120.725 230.143 122.399 230.075Z" fill="#363333"/>
<defs>
<linearGradient id="paint0_linear_9884_1152" x1="110.512" y1="76.7169" x2="110.512" y2="197.635" gradientUnits="userSpaceOnUse">
<stop stop-color="#FE8A79"/>
<stop offset="1" stop-color="#A2A99A"/>
</linearGradient>
<linearGradient id="paint1_linear_9884_1152" x1="110.5" y1="0" x2="110.509" y2="138.531" gradientUnits="userSpaceOnUse">
<stop stop-color="#FD9277"/>
<stop offset="1" stop-color="#E6605B"/>
</linearGradient>
</defs>
</svg>
