<svg xmlns="http://www.w3.org/2000/svg" fill="none" viewBox="0 0 221 256"><path fill="#363333" fill-rule="evenodd" d="M94.375 102.408c3.226-6.692 6.549-13.344 10.449-19.757.726-1.195 1.508-2.361 2.691-3.261 2.157-1.642 4.69-1.5 6.61.365.868.844 1.467 1.839 2.047 2.846 7.917 13.739 14.315 28.042 20.157 42.551.062.153.117.309.173.465l.011.031c.243.69.489 1.387 1.241 1.891q.104-.03.216-.053c.163-.038.332-.076.473-.152l.318-.171c.549-.294 1.101-.589 1.598-.943 9.157-6.516 17.287-13.828 22.931-23.093.715-1.174.878-2.299.654-3.568-.61-3.468-1.543-6.849-3.166-10.068-.756-1.5-.609-2.898.495-4.308 1.198-1.531 1.994-3.278 2.65-5.049.985-2.664-.195-4.942-1.364-7.2-.336-.65-.672-1.297-.955-1.953-.513-1.19-.785-2.102-.25-3.335.955-2.204 1.84-4.48.633-6.87-1.121-2.221-2.517-4.303-4.042-6.322-.786-1.041-1.831-1.661-3.487-1.86-.048 3.498-.708 6.866-1.367 10.232l-.258 1.323c-.217 1.128.554 1.882 1.797 2.294 1.008.336 2.01.738 2.913 1.252.993.565 1.809 1.338 1.335 2.536-.481 1.219-1.406 1.987-2.945 2.05-1.835.073-2.737-.763-3.247-2.275-.592-1.757-1.629-1.933-3.066-.7-3.306 2.834-7.17 4.013-11.529 2.378-5.458-2.049-7.788-6.366-9.375-11.074-.116-.345-.035-.755.041-1.142l.038-.199c.091-.497.201-.992.312-1.487.2-.891.399-1.782.48-2.682.082-.917.262-1.831.441-2.746.429-2.18.858-4.361-.032-6.578-.64-1.593-1.29-3.186-2.032-4.743-2.617-5.489-5.777-10.735-8.937-15.982-1.545-2.565-3.09-5.13-4.572-7.724a23 23 0 0 1-.435-.815c-.541-1.05-1.086-2.106-2.271-2.803-1.505-.886-2.752-.635-3.492.778-.51.972-1.033 1.94-1.556 2.907l-.001.002q-.37.684-.738 1.37c-1.983 3.69-4.163 7.291-6.343 10.893-2.545 4.204-5.09 8.409-7.32 12.755-1.974 3.847-3.303 7.827-2.912 12.112.099 1.089.245 2.175.391 3.26v.001l.003.021.053.39c.128.957.252 1.915.338 2.876.456 5.055-3.22 9.725-8.5 10.888-5.713 1.257-10.141-.78-12.73-5.897-2.012-3.976-2.764-8.177-2.776-12.51 0-.142.013-.292.026-.443.054-.616.11-1.26-.728-1.618-.727.11-1.065.565-1.392 1.006q-.082.111-.166.219l-.042.053c-1.005 1.279-2.01 2.56-2.943 3.879-6.76 9.57-8.067 19.314-1.098 29.287.678.97.626 1.88.105 2.883-1.39 2.675-2.473 5.46-2.862 8.387-.061.457-.17.915-.279 1.374-.317 1.337-.636 2.686.214 4.07 5.882 9.579 13.97 17.438 23.714 24.021 1.596 1.079 2.632.838 3.323-.876 3.146-7.808 6.615-15.503 10.337-23.389m3.822 11.508a385 385 0 0 0-3.287 6.833c-3.924 8.443-7.83 16.894-9.555 25.974l-.07.348c-.177.854-.361 1.74.278 2.426.52.559.89 1.187 1.257 1.811.305.518.608 1.032.994 1.503 4.155 5.061 8.314 10.122 12.572 15.115q.495.584.983 1.173c1.334 1.602 2.67 3.209 4.347 4.57 2.774 2.251 5.832 2.416 8.809.426a14 14 0 0 0 2.722-2.363c5.922-6.713 11.557-13.609 16.999-20.634 1.111-1.434 1.358-2.882 1.044-4.473-.867-4.395-2.202-8.686-3.957-12.865-4.994-11.893-10.617-23.556-16.673-35.05l-.156-.296-.139-.266c-1.145-2.182-2.319-4.419-4.146-6.668-3.597 5.65-6.468 11.334-9.411 17.159l-1.091 2.158a815 815 0 0 1-1.52 3.119m58.422 66.932c-.103-1.098-.21-2.233-.454-3.405-3.97 3.562-7.154 7.475-10.309 11.352-2.081 2.559-4.151 5.102-6.424 7.518q.122.085.219.157l.129.094c.174.129.295.219.431.285.389.191.785.38 1.201.516 6.111 2.014 12.371 2.845 18.904 2.186 9.257-.932 15.741-5.386 20.248-12.318 4.511-6.939 5.287-14.49 4.054-22.265q-.074-.47-.144-.943v-.001c-.256-1.717-.514-3.453-1.246-5.079-1.019.077-1.725.511-2.415.935l-.067.041-.046.028q-2.122 1.302-4.237 2.615l-.003.001c-2.865 1.775-5.73 3.551-8.64 5.267-1.434.845-1.793 1.828-1.688 3.265.352 4.818-.818 9.413-3.036 13.788-.791 1.56-1.76 3.079-3.366 4.317-.92-.825-1.34-1.736-1.843-2.828l-.066-.145-.068-.147c-.796-1.641-.96-3.384-1.134-5.234m-93.187-.19c-.175 1.841-.34 3.577-1.138 5.21l-.136.291c-.504 1.087-.926 1.994-1.85 2.815-1.611-1.232-2.584-2.745-3.378-4.297-2.227-4.355-3.4-8.93-3.048-13.727.105-1.43-.255-2.408-1.694-3.25-2.921-1.708-5.797-3.476-8.674-5.243l-.002-.001v-.001h-.001q-2.123-1.307-4.253-2.602l-.113-.069c-.692-.422-1.401-.854-2.424-.931-.735 1.619-.994 3.347-1.251 5.057q-.07.471-.144.939c-1.238 7.74-.46 15.257 4.069 22.165 4.524 6.901 11.033 11.335 20.326 12.263 6.558.656 12.842-.172 18.976-2.176a10 10 0 0 0 1.206-.514 3 3 0 0 0 .433-.284c.096-.07.209-.153.349-.25-2.282-2.405-4.36-4.937-6.45-7.484-3.166-3.859-6.362-7.755-10.347-11.301-.245 1.167-.352 2.297-.456 3.39" clip-rule="evenodd"/><path fill="#FFC94A" d="M140.211 196.849c.389.191.785.38 1.201.516 6.111 2.014 12.371 2.845 18.904 2.186 9.257-.932 15.741-5.386 20.248-12.318 4.511-6.939 5.287-14.49 4.054-22.265q-.074-.47-.144-.943v-.001c-.256-1.717-.514-3.453-1.246-5.079-1.019.077-1.725.511-2.415.935l-.067.041-.046.028q-2.122 1.302-4.237 2.615l-.003.001c-2.865 1.775-5.73 3.551-8.64 5.267-1.434.845-1.793 1.828-1.688 3.265.352 4.818-.818 9.413-3.036 13.788-.791 1.56-1.76 3.079-3.366 4.317-.92-.825-1.34-1.736-1.843-2.828l-.066-.145-.068-.147c-.796-1.641-.96-3.384-1.134-5.234-.103-1.098-.21-2.233-.454-3.405-3.97 3.562-7.154 7.475-10.309 11.352-2.081 2.559-4.151 5.102-6.424 7.518q.122.085.219.157l.129.094c.174.129.295.219.431.285m-60.308-.262a10 10 0 0 1-1.206.514c-6.134 2.004-12.418 2.832-18.976 2.176-9.293-.928-15.801-5.362-20.326-12.263-4.529-6.908-5.307-14.425-4.07-22.165q.075-.468.145-.939c.257-1.71.516-3.438 1.25-5.057 1.024.077 1.733.509 2.425.931l.113.069q2.13 1.295 4.252 2.602h.001l.002.001.001.001c2.877 1.767 5.753 3.535 8.674 5.243 1.44.842 1.8 1.82 1.694 3.25-.353 4.797.82 9.372 3.048 13.727.794 1.552 1.767 3.065 3.379 4.297.923-.821 1.345-1.728 1.85-2.815l.135-.291c.799-1.633.963-3.369 1.138-5.21.103-1.093.21-2.223.456-3.39 3.985 3.546 7.18 7.442 10.348 11.301 2.09 2.547 4.167 5.079 6.449 7.484-.14.097-.253.18-.35.25a3 3 0 0 1-.432.284"/><path fill="url(#paint0_linear_9884_1152)" d="M94.91 120.749c-3.924 8.443-7.83 16.894-9.555 25.974l-.07.348c-.177.854-.361 1.74.278 2.426.52.559.89 1.187 1.257 1.811.305.518.608 1.032.994 1.503 4.155 5.061 8.314 10.122 12.572 15.115q.495.584.983 1.173c1.334 1.602 2.67 3.209 4.347 4.57 2.774 2.251 5.832 2.416 8.809.426a14 14 0 0 0 2.722-2.363c5.922-6.713 11.557-13.609 16.999-20.634 1.111-1.434 1.358-2.882 1.044-4.473-.867-4.395-2.202-8.686-3.957-12.865-4.994-11.893-10.617-23.556-16.673-35.05l-.156-.296-.139-.266c-1.145-2.182-2.319-4.419-4.146-6.668-3.597 5.65-6.468 11.334-9.411 17.159l-1.091 2.158a815 815 0 0 1-1.52 3.119 385 385 0 0 0-3.287 6.833"/><path fill="url(#paint1_linear_9884_1152)" d="M94.375 102.408c3.226-6.692 6.549-13.344 10.449-19.757.726-1.195 1.508-2.361 2.691-3.261 2.157-1.642 4.69-1.5 6.61.365.868.844 1.467 1.839 2.047 2.846 7.917 13.739 14.315 28.042 20.157 42.551.062.153.117.309.173.465l.011.031c.243.69.489 1.387 1.241 1.891q.104-.03.216-.053c.163-.038.332-.076.473-.152l.318-.171c.549-.294 1.101-.589 1.598-.943 9.157-6.516 17.287-13.828 22.931-23.093.715-1.174.878-2.299.654-3.568-.61-3.468-1.543-6.849-3.166-10.068-.756-1.5-.609-2.898.495-4.308 1.198-1.531 1.994-3.278 2.65-5.049.985-2.664-.195-4.942-1.364-7.2-.336-.65-.672-1.297-.955-1.953-.513-1.19-.785-2.102-.25-3.335.955-2.204 1.84-4.48.633-6.87-1.121-2.221-2.517-4.303-4.042-6.322-.786-1.041-1.831-1.661-3.487-1.86-.048 3.498-.708 6.866-1.367 10.232l-.258 1.323c-.217 1.128.554 1.882 1.797 2.294 1.008.336 2.01.738 2.913 1.252.993.565 1.809 1.338 1.335 2.536-.481 1.219-1.406 1.987-2.945 2.05-1.835.073-2.737-.763-3.247-2.275-.592-1.757-1.629-1.933-3.066-.7-3.306 2.834-7.17 4.013-11.529 2.378-5.458-2.049-7.788-6.366-9.375-11.074-.116-.345-.035-.755.041-1.142l.038-.199c.091-.497.201-.992.312-1.487.2-.891.399-1.782.48-2.682.082-.917.262-1.831.441-2.746.429-2.18.858-4.361-.032-6.578-.64-1.593-1.29-3.186-2.032-4.743-2.617-5.489-5.777-10.735-8.937-15.982-1.545-2.565-3.09-5.13-4.572-7.724a23 23 0 0 1-.435-.815c-.541-1.05-1.086-2.106-2.271-2.803-1.505-.886-2.752-.635-3.492.778-.51.972-1.033 1.94-1.556 2.907l-.001.002q-.37.684-.738 1.37c-1.983 3.69-4.163 7.291-6.343 10.893-2.545 4.204-5.09 8.409-7.32 12.755-1.974 3.847-3.303 7.827-2.912 12.112.099 1.089.245 2.175.391 3.26v.001l.003.021.053.39c.128.957.252 1.915.338 2.876.456 5.055-3.22 9.725-8.5 10.888-5.713 1.257-10.141-.78-12.73-5.897-2.012-3.976-2.764-8.177-2.776-12.51 0-.142.013-.292.026-.443.054-.616.11-1.26-.728-1.618-.727.11-1.065.565-1.392 1.006q-.082.111-.166.219l-.042.053c-1.005 1.279-2.01 2.56-2.943 3.879-6.76 9.57-8.067 19.314-1.098 29.287.678.97.626 1.88.105 2.883-1.39 2.675-2.473 5.46-2.862 8.387-.061.457-.17.915-.279 1.374-.317 1.337-.636 2.686.214 4.07 5.882 9.579 13.97 17.438 23.714 24.021 1.596 1.079 2.632.838 3.323-.876 3.146-7.808 6.615-15.503 10.337-23.389"/><path fill="#ACB0A7" fill-rule="evenodd" d="m89.778 57.787.003.021q0-.01-.003-.02m89.182 162.711c10.229-9.995 18.048-24.234 19.564-29.883 1.345-5.015 1.254-10.092 1.041-15.15-.227-5.41 1.423-10.213 4.617-14.745 1.854-2.629 3.501-5.376 5.14-8.118.988-1.653.472-2.421-1.566-2.314-3.882.203-7.727.681-11.346 2.051-2.249.85-2.842 1.679-2.63 3.791.12 1.191.276 2.38.432 3.569v.001l.063.477c.145 1.114.287 2.228.394 3.345.997 10.391-.658 20.256-7.487 29.071-4.661 6.015-10.477 10.762-18.511 12.974-6.467 1.78-13.076 1.666-19.668.719-5.778-.831-11.216-2.569-16.055-5.561-2.539-1.57-2.824-3.062-1.109-5.302.76-.992 1.546-1.969 2.332-2.947l.001-.001.287-.356c.669-.832 1.336-1.666 1.984-2.51 7.291-9.499 15.1-18.618 25.072-26.078 7.41-5.543 15.218-10.598 23.907-14.512 4.959-2.235 10.053-4.122 15.526-5.114 1.49-.27 2.178-.874 1.843-2.35-.306-1.347-.833-2.597-1.461-3.828-.812-1.591-.771-3.077.129-4.697l.144-.259c2.903-5.226 5.807-10.454 7.85-16.021.477-1.298.387-2.344-.677-3.237-.752-.633-1.517-.303-2.248.013-.191.082-.379.163-.564.226-1.353.459-2.699.937-4.044 1.415h-.001c-1.727.613-3.455 1.227-5.198 1.802-3.082 1.016-4.103.304-3.966-2.631l.002-.078.001-.027c.001-.078.002-.156.015-.233.236-1.463.452-2.928.667-4.394l.043-.292v-.001c.491-3.352.982-6.703 1.698-10.027.801-3.71 1.488-7.469 1.427-11.23-.05-3.1-.058-6.142.363-9.234.075-.548.116-1.135.157-1.73v-.003c.036-.511.072-1.03.131-1.534.006-.05-.047-.106-.13-.194a3 3 0 0 1-.175-.196c-.886.464-1.539 1.148-2.187 1.826l-.015.016-.068.071-.038.04-.042.043-.031.033-.153.157c-9.024 9.245-16.704 19.345-24.134 29.613l-.579.8c-3.822 5.288-7.651 10.587-12.774 15.025-4.833 4.186-10.029 7.994-15.363 11.66l-.079.054-.072.049c-.655.444-1.272.863-1.104 1.794.27 1.49.507 2.985.744 4.48v.001l.002.009c.177 1.118.354 2.236.545 3.353.666 3.888.234 7.433-2.353 10.918-2.426 3.271-4.711 6.628-6.996 9.987a635 635 0 0 1-3.125 4.564 45.7 45.7 0 0 1-8.675 9.398c-5.269 4.314-11.639 4.884-17.7 1.487-3.493-1.958-6.2-4.685-8.534-7.662-4.482-5.716-8.527-11.679-12.572-17.643l-.462-.68c-1.726-2.545-2.854-5.139-2.374-8.153.111-.697.205-1.398.297-2.099l.018-.14c.189-1.435.377-2.869.71-4.276.668-2.825.41-4.833-2.73-6.808-10.328-6.493-18.782-14.571-25.393-24.269-6.682-9.801-13.867-19.347-22.26-28.11q-.498-.522-.99-1.053l-.065-.07c-1.45-1.562-2.91-3.133-4.81-4.363-.593.551-.745 1.065-.723 1.654.027.764.041 1.526.055 2.29.027 1.539.055 3.078.198 4.625.432 4.676 1.223 9.306 2.014 13.935.481 2.821.963 5.642 1.364 8.473a63 63 0 0 0 .53 3.03c.381 1.99.762 3.979.76 6.009-.002 1.979-1.01 2.656-3.18 2.037-.985-.282-1.94-.649-2.895-1.017l-.213-.081a49 49 0 0 0-1.493-.555c-.91-.318-1.793-.694-2.676-1.071-1.581-.675-3.163-1.35-4.906-1.688-1.28-.247-1.792.218-1.87 1.275-.08 1.097.285 2.113.651 3.132l.118.331c1.68 4.749 4.245 9.159 6.801 13.555l.109.186c1.461 2.513 2.188 4.854.469 7.45-.289.435-.436.951-.58 1.457h-.001v.002l-.017.056-.07.241c-.697 2.331-.429 2.753 2.112 3.388.433.108.87.205 1.306.302h.001v.001h.003q.455.1.91.206c9.83 2.314 18.385 6.855 26.578 12.003 9.553 6.002 18.404 12.698 25.47 21.053 3.43 4.055 6.792 8.155 10.153 12.255l.002.001v.002l.002.002.55.67q1.921 2.345 3.85 4.686c2.144 2.599 1.946 3.808-.984 5.775-.607.408-1.265.767-1.937 1.084-7.168 3.378-14.775 4.934-22.934 4.921-10.085-.017-18.474-3.394-25.107-9.818-10.16-9.84-13.725-21.611-11.567-34.766q.101-.617.21-1.233c.332-1.925.664-3.847.636-5.815-.023-1.5-.7-2.421-2.255-2.983-2.67-.965-5.431-1.684-8.262-2.027-1.339-.163-2.707-.136-4.11-.097l-.281.008-.256.007c-.598.017-1.201.032-1.812.032.254 1.334.777 2.354 1.412 3.32a99 99 0 0 0 1.49 2.182c.767 1.101 1.534 2.203 2.224 3.342.441.726.92 1.44 1.403 2.152l.208.305c1.778 2.614 3.559 5.232 3.714 8.449l.004.087.082 1.718c.192 4.02.367 8.042.413 12.065.111 9.718 8.678 24.664 20.607 36.678 19.381 19.519 39.293 27.123 68.64 27.096 29.279-.027 48.784-7.882 68.448-27.096" clip-rule="evenodd"/><path fill="#363333" fill-rule="evenodd" d="M13.388 175.951c-.085-4-.92-7.838-3.352-11.305a261 261 0 0 1-4.04-5.946c-2.028-3.07-3.873-6.221-5.362-9.531-1.683-3.739-.116-7.022 5.924-6.74 1.21.057 2.417.179 3.622.3l1.12.111c.47.045 1.058.069 1.15-.359.086-.397.213-.786.34-1.174.385-1.177.768-2.345-.022-3.698l-1.27-2.167v-.001l-.002-.004c-3.188-5.432-6.38-10.868-8.72-16.653-.688-1.702-1.095-3.433-1.287-5.257-.572-5.445 5.204-10.29 12.536-7.882 1.082.355 2.165.704 3.318 1.075l.001.001q.819.263 1.695.547c-.26-1.111-.526-2.202-.789-3.28-.57-2.34-1.125-4.623-1.58-6.92-1.806-9.11-3.255-18.26-2.865-27.547.092-2.168.419-4.422 3-5.462 2.51-1.01 4.91-.321 6.96 1.118 4.666 3.273 8.685 7.133 12.495 11.16 4.342 4.59 8.323 9.419 12.002 14.444.226.31.477.605.766.945q.22.26.474.565c1.37-2.232 2.146-4.08.675-6.644-5.316-9.266-4.487-18.64.326-27.865 4.255-8.156 10.74-14.745 18.625-20.307a13 13 0 0 1 2.944-1.554c1.755-.655 3.412-.476 4.841.582 1.352 1.003 1.625 2.408 1.207 3.866-.388 1.352-.805 2.697-1.22 4.043h-.001a177 177 0 0 0-1.427 4.773c-1.26 4.524-.77 8.947 1.244 13.236.571 1.217 1.237 2.612 3.093 2.184 1.737-.4 2.182-1.814 2.041-3.255-.158-1.622-.435-3.24-.763-4.842-1.114-5.45.533-10.494 2.78-15.47 2.55-5.647 5.69-11.04 8.831-16.433 2.086-3.581 4.172-7.163 6.085-10.819 1.66-3.172 3.336-6.34 5.071-9.48 1.297-2.348 3.183-4.086 6.356-4.289 3.084-.196 5.032 1.3 6.449 3.488 2.012 3.105 3.72 6.344 5.428 9.583 1.041 1.974 2.082 3.947 3.192 5.891l1.124 1.965.008.014c3.594 6.28 7.188 12.56 10.144 19.115 2.804 6.22 4.116 12.515 2.277 19.154-.251.908-.212 1.92-.083 2.86.17 1.246.892 2.31 2.39 2.546 1.482.234 2.178-.801 2.652-1.8 1.143-2.407 1.72-4.946 1.908-7.546.294-4.053-.958-7.878-2.208-11.696l-.238-.728c-.356-1.09-.661-2.177-.691-3.313-.083-3.152 2.408-4.753 5.827-3.744 2.459.727 4.334 2.242 6.185 3.737l.078.063c8.085 6.53 14.543 14.06 17.723 23.481 2.654 7.862 2.47 15.628-2.099 22.939-1.409 2.252-.586 3.955.484 6.17l.181.376c.496-.619.974-1.206 1.436-1.774l.001-.001.001-.001a134 134 0 0 0 2.689-3.378c6.29-8.27 13.274-16.002 22.07-22.324a8.6 8.6 0 0 1 1.941-1.058c4.038-1.534 7.324.154 7.605 4.186.35 5.01.098 10.033-.489 15.034-.938 8.003-2.347 15.938-4.665 24.034.634-.204 1.234-.401 1.813-.591h.001c1.181-.388 2.273-.747 3.377-1.072 7.764-2.287 14.014 2.598 12.304 9.682-1.135 4.704-3.506 8.992-5.873 13.273l-.002.004-.794 1.44a442 442 0 0 1-4.43 7.875c-.692 1.203-.266 2.295.158 3.381.111.283.221.566.311.85.16.503.666.484 1.146.465.118-.004.234-.009.343-.005.901.026 1.796-.069 2.692-.165 1.252-.133 2.505-.267 3.777-.066 4.002.632 5.568 3.068 4.113 6.439-2.026 4.692-4.996 8.94-7.96 13.178l-.024.034-.637.912c-2.78 3.985-4.507 8.151-4.423 12.902.044 2.509-.055 5.02-.154 7.53v.001c-.041 1.043-1.164 5.845-2.435 10.214C194.405 229.414 156.131 256 110.512 256s-83.893-26.586-94.321-62.429c-1.456-5.002-2.89-10.464-2.832-13.251.03-1.458.06-2.917.03-4.369m185.136 14.664c-1.516 5.649-9.335 19.888-19.564 29.883-19.664 19.214-39.169 27.069-68.448 27.096-29.347.027-49.259-7.577-68.64-27.096-11.929-12.014-20.496-26.96-20.607-36.678-.046-4.023-.221-8.045-.413-12.065l-.082-1.718-.004-.087c-.155-3.217-1.936-5.835-3.714-8.449q-.105-.152-.207-.305a51 51 0 0 1-1.404-2.152c-.69-1.139-1.457-2.241-2.224-3.342a99 99 0 0 1-1.49-2.182c-.635-.966-1.158-1.986-1.412-3.32.61 0 1.214-.015 1.812-.032l.255-.007.282-.008c1.403-.039 2.771-.066 4.11.097 2.83.343 5.593 1.062 8.262 2.027 1.555.562 2.232 1.483 2.255 2.983.028 1.968-.304 3.89-.637 5.815l-.21 1.233c-2.157 13.155 1.408 24.926 11.568 34.766 6.633 6.424 15.022 9.801 25.107 9.818 8.16.013 15.766-1.543 22.934-4.921.672-.317 1.33-.676 1.937-1.084 2.93-1.967 3.128-3.176.984-5.775q-1.93-2.34-3.85-4.686l-.55-.67-.001-.002v-.001l-.001-.001-.002-.001c-3.361-4.1-6.723-8.2-10.153-12.255-7.066-8.355-15.917-15.051-25.47-21.053-8.193-5.148-16.749-9.689-26.579-12.003a70 70 0 0 0-.909-.206h-.002v-.001h-.002c-.436-.097-.873-.194-1.306-.302-2.54-.635-2.809-1.057-2.112-3.388q.036-.119.07-.241l.016-.056.001-.002c.145-.506.292-1.022.58-1.457 1.72-2.596.993-4.937-.468-7.45l-.109-.186c-2.556-4.396-5.12-8.806-6.8-13.555l-.062-.171-.057-.16c-.366-1.019-.731-2.035-.65-3.132.077-1.057.59-1.522 1.869-1.275 1.743.338 3.325 1.013 4.906 1.688.883.377 1.766.753 2.676 1.071.502.175.998.364 1.493.555l.213.081c.955.368 1.91.735 2.896 1.017 2.17.619 3.177-.058 3.18-2.037.002-2.03-.38-4.019-.761-6.009a63 63 0 0 1-.53-3.03c-.401-2.831-.883-5.652-1.364-8.473-.791-4.63-1.582-9.26-2.014-13.935-.143-1.547-.17-3.086-.198-4.626-.014-.763-.028-1.525-.055-2.289-.022-.589.13-1.103.724-1.654 1.899 1.23 3.359 2.801 4.81 4.363l.065.07q.49.531.989 1.054c8.393 8.762 15.578 18.308 22.26 28.109 6.61 9.698 15.065 17.776 25.393 24.269 3.14 1.975 3.398 3.983 2.73 6.808-.333 1.407-.521 2.841-.71 4.276l-.018.14a77 77 0 0 1-.297 2.099c-.48 3.014.648 5.608 2.374 8.153l.462.68c4.045 5.964 8.09 11.927 12.572 17.643 2.334 2.977 5.04 5.704 8.534 7.662 6.061 3.397 12.431 2.827 17.7-1.487a45.7 45.7 0 0 0 8.675-9.398 635 635 0 0 0 3.125-4.564c2.285-3.359 4.57-6.716 6.996-9.987 2.587-3.485 3.019-7.03 2.353-10.918-.191-1.117-.368-2.235-.545-3.353l-.002-.009v-.001c-.237-1.495-.474-2.99-.744-4.48-.168-.931.449-1.35 1.104-1.794l.072-.049.079-.054c5.334-3.666 10.53-7.474 15.363-11.66 5.123-4.438 8.952-9.737 12.774-15.025l.579-.8c7.43-10.268 15.11-20.368 24.134-29.613l.153-.157.031-.033.042-.043.038-.04.068-.071.015-.016c.648-.678 1.301-1.362 2.187-1.826q.099.119.175.196c.083.088.136.144.13.194-.059.505-.095 1.023-.131 1.534v.002a26 26 0 0 1-.157 1.731c-.421 3.092-.413 6.134-.363 9.234.061 3.761-.626 7.52-1.427 11.23-.716 3.324-1.207 6.675-1.698 10.027v.001l-.043.292a310 310 0 0 1-.667 4.394 1.5 1.5 0 0 0-.015.233l-.001.027-.002.078c-.137 2.935.884 3.647 3.966 2.631 1.743-.575 3.471-1.189 5.198-1.802h.001c1.345-.478 2.691-.956 4.044-1.415.185-.063.373-.144.564-.226.731-.316 1.496-.646 2.248-.013 1.064.893 1.154 1.939.677 3.237-2.043 5.567-4.947 10.795-7.85 16.021l-.144.259c-.9 1.62-.941 3.106-.129 4.697.628 1.231 1.155 2.481 1.461 3.828.335 1.476-.353 2.08-1.843 2.35-5.473.992-10.567 2.879-15.526 5.114-8.689 3.914-16.497 8.969-23.907 14.512-9.972 7.46-17.781 16.579-25.072 26.078-.648.844-1.315 1.678-1.984 2.51l-.287.356-.001.001c-.786.978-1.572 1.955-2.332 2.947-1.715 2.24-1.43 3.732 1.109 5.302 4.839 2.992 10.277 4.73 16.055 5.561 6.592.947 13.201 1.061 19.668-.719 8.034-2.212 13.85-6.959 18.511-12.974 6.829-8.815 8.484-18.68 7.487-29.071a99 99 0 0 0-.394-3.345l-.063-.477v-.001a120 120 0 0 1-.432-3.569c-.212-2.112.381-2.941 2.63-3.791 3.619-1.37 7.464-1.848 11.346-2.051 2.038-.107 2.554.661 1.566 2.314-1.639 2.742-3.286 5.489-5.14 8.118-3.194 4.532-4.844 9.335-4.617 14.745.213 5.058.304 10.135-1.041 15.15m-93.7-107.964c-3.9 6.413-7.223 13.065-10.449 19.757-3.722 7.886-7.191 15.581-10.337 23.389-.69 1.714-1.727 1.955-3.323.876-9.743-6.583-17.832-14.442-23.714-24.021-.85-1.384-.53-2.733-.213-4.07.108-.46.217-.917.278-1.374.389-2.926 1.472-5.712 2.862-8.387.521-1.004.574-1.912-.105-2.883-6.97-9.973-5.662-19.716 1.098-29.287.933-1.32 1.938-2.6 2.943-3.879l.042-.053q.083-.108.166-.22c.327-.44.665-.896 1.392-1.005.838.357.782 1.002.728 1.618-.013.151-.026.3-.026.444.012 4.332.764 8.533 2.776 12.51 2.589 5.115 7.017 7.153 12.73 5.896 5.28-1.163 8.956-5.833 8.5-10.888a67 67 0 0 0-.338-2.876l-.053-.39-.003-.02v-.002a76 76 0 0 1-.391-3.26c-.39-4.285.939-8.265 2.912-12.112 2.23-4.346 4.775-8.55 7.32-12.755 2.18-3.602 4.36-7.203 6.343-10.894l.738-1.369.001-.002a260 260 0 0 0 1.556-2.907c.74-1.413 1.987-1.664 3.492-.778 1.185.697 1.73 1.753 2.271 2.803.142.274.283.548.435.815 1.482 2.593 3.027 5.159 4.572 7.724 3.16 5.247 6.32 10.494 8.937 15.982.742 1.557 1.392 3.15 2.032 4.743.89 2.217.461 4.398.032 6.578-.179.915-.359 1.83-.441 2.746-.081.9-.28 1.79-.48 2.682-.111.495-.221.99-.312 1.487l-.038.199c-.076.387-.157.797-.041 1.142 1.587 4.708 3.917 9.025 9.375 11.074 4.359 1.635 8.223.456 11.529-2.379 1.437-1.232 2.474-1.056 3.066.7.51 1.513 1.412 2.35 3.247 2.276 1.539-.063 2.464-.831 2.945-2.05.474-1.198-.342-1.97-1.335-2.536-.903-.514-1.905-.916-2.913-1.252-1.243-.412-2.014-1.166-1.797-2.294l.258-1.323c.659-3.366 1.319-6.734 1.367-10.232 1.656.199 2.701.819 3.487 1.86 1.525 2.02 2.921 4.1 4.042 6.322 1.207 2.39.322 4.666-.633 6.87-.535 1.233-.263 2.146.25 3.335.283.656.619 1.304.955 1.954 1.169 2.257 2.349 4.535 1.364 7.2-.656 1.77-1.452 3.517-2.65 5.048-1.104 1.41-1.251 2.808-.495 4.308 1.623 3.22 2.556 6.6 3.166 10.068.224 1.269.061 2.394-.654 3.568-5.644 9.265-13.774 16.577-22.931 23.093-.497.354-1.049.649-1.598.943l-.318.171c-.141.076-.31.114-.473.152a3 3 0 0 0-.216.053c-.752-.504-.998-1.201-1.241-1.891l-.011-.031c-.056-.156-.111-.312-.173-.465-5.842-14.509-12.24-28.812-20.157-42.55-.58-1.008-1.179-2.004-2.047-2.847-1.92-1.865-4.453-2.007-6.61-.365-1.183.9-1.965 2.066-2.691 3.26m-19.469 64.072c1.726-9.08 5.631-17.531 9.555-25.974a385 385 0 0 1 3.287-6.833 815 815 0 0 0 1.52-3.119l1.091-2.158c2.943-5.825 5.814-11.51 9.411-17.159 1.827 2.249 3.001 4.486 4.146 6.668l.139.266.156.296c6.056 11.494 11.679 23.157 16.673 35.05 1.755 4.179 3.09 8.47 3.957 12.865.314 1.591.067 3.039-1.044 4.473-5.442 7.025-11.077 13.921-16.999 20.634a14 14 0 0 1-2.722 2.363c-2.977 1.99-6.035 1.825-8.809-.426-1.677-1.361-3.013-2.968-4.347-4.57q-.488-.589-.983-1.173c-4.258-4.993-8.417-10.054-12.572-15.115-.386-.471-.69-.985-.994-1.503-.367-.624-.737-1.252-1.257-1.811-.639-.686-.455-1.572-.278-2.426q.037-.175.07-.348m56.057 50.642a9 9 0 0 1-1.201-.516c-.136-.066-.257-.156-.431-.285l-.129-.094-.219-.157c2.273-2.416 4.343-4.959 6.424-7.518 3.155-3.877 6.339-7.79 10.309-11.352.244 1.172.351 2.307.454 3.405.174 1.85.338 3.593 1.134 5.234l.068.147.066.145c.503 1.092.923 2.003 1.843 2.828 1.606-1.238 2.575-2.757 3.366-4.317 2.218-4.375 3.388-8.97 3.036-13.788-.105-1.437.254-2.42 1.688-3.265 2.91-1.716 5.775-3.492 8.64-5.267l.003-.001q2.115-1.313 4.237-2.615l.046-.028.067-.041c.69-.424 1.396-.858 2.415-.935.732 1.626.99 3.362 1.246 5.079v.001q.07.473.144.943c1.233 7.775.457 15.326-4.054 22.265-4.507 6.932-10.991 11.386-20.248 12.318-6.533.659-12.793-.172-18.904-2.186m-62.715-.264a10 10 0 0 0 1.206-.514 3 3 0 0 0 .433-.284c.096-.07.209-.153.349-.25-2.282-2.405-4.36-4.937-6.45-7.484-3.166-3.859-6.362-7.755-10.347-11.301-.245 1.167-.352 2.297-.456 3.39-.175 1.841-.34 3.577-1.138 5.21l-.136.291c-.504 1.087-.926 1.994-1.85 2.815-1.611-1.232-2.584-2.745-3.378-4.297-2.227-4.355-3.4-8.93-3.048-13.727.105-1.43-.255-2.408-1.694-3.25-2.921-1.708-5.797-3.476-8.674-5.243l-.002-.001v-.001h-.001q-2.123-1.307-4.253-2.602l-.113-.069c-.692-.422-1.401-.854-2.424-.931-.735 1.619-.994 3.347-1.251 5.057q-.07.471-.144.939c-1.238 7.74-.46 15.257 4.069 22.165 4.524 6.901 11.033 11.335 20.326 12.263 6.558.656 12.842-.172 18.976-2.176" clip-rule="evenodd"/><path fill="#363333" d="M90.522 226.291c-1.476-1.189-2.627-2.397-3.294-3.849-.606-1.321-.712-2.738.572-3.872 1.2-1.058 2.617-.997 4.091-.451 3.39 1.255 6.41 3.012 8.988 5.309 1.721 1.533 2.591 3.439 1.069 5.376-1.517 1.93-3.795 1.428-5.868.721-2.033-.693-3.743-1.877-5.558-3.234m31.877 3.784c2.495-.102 4.38-1.383 6.513-2.632 2.125-1.44 4.03-2.836 5.003-4.902.622-1.321.764-2.724-.524-3.867-1.171-1.038-2.649-1.157-4.096-.613-4.026 1.513-7.548 3.666-10.251 6.743-.938 1.067-1.48 2.304-.667 3.619.856 1.385 2.348 1.72 4.022 1.652"/><defs><linearGradient id="paint0_linear_9884_1152" x1="110.512" x2="110.512" y1="76.717" y2="197.635" gradientUnits="userSpaceOnUse"><stop stop-color="#FE8A79"/><stop offset="1" stop-color="#A2A99A"/></linearGradient><linearGradient id="paint1_linear_9884_1152" x1="110.5" x2="110.509" y1="0" y2="138.531" gradientUnits="userSpaceOnUse"><stop stop-color="#FD9277"/><stop offset="1" stop-color="#E6605B"/></linearGradient></defs></svg>
