<svg width="222" height="256" viewBox="0 0 222 256" fill="none" xmlns="http://www.w3.org/2000/svg">
<path fill-rule="evenodd" clip-rule="evenodd" d="M94.451 102.408C97.6799 95.716 101.006 89.0635 104.908 82.6507C105.635 81.4558 106.418 80.29 107.601 79.39C109.76 77.7483 112.295 77.8896 114.217 79.7555C115.085 80.5985 115.685 81.594 116.266 82.6013C124.189 96.3399 130.592 110.643 136.439 125.152C136.501 125.305 136.556 125.461 136.611 125.617C136.615 125.627 136.619 125.638 136.623 125.648C136.866 126.338 137.113 127.035 137.865 127.539C137.934 127.519 138.007 127.502 138.081 127.486C138.245 127.449 138.413 127.41 138.555 127.334C138.66 127.276 138.766 127.22 138.873 127.163C139.422 126.869 139.975 126.574 140.472 126.22C149.637 119.704 157.773 112.392 163.421 103.127C164.137 101.953 164.3 100.828 164.076 99.559C163.466 96.0906 162.532 92.7103 160.907 89.4913C160.15 87.9915 160.297 86.5926 161.402 85.1829C162.602 83.6516 163.399 81.9053 164.054 80.1342C165.04 77.4699 163.859 75.1915 162.69 72.9349C162.353 72.2848 162.017 71.6365 161.734 70.9813C161.22 69.7918 160.949 68.8793 161.483 67.6464C162.44 65.4421 163.326 63.166 162.118 60.7758C160.995 58.5549 159.598 56.4735 158.072 54.4538C157.286 53.413 156.239 52.7928 154.582 52.5943C154.535 56.0914 153.874 59.4604 153.214 62.8258C153.128 63.2668 153.042 63.7078 152.956 64.1489C152.739 65.2768 153.51 66.0304 154.754 66.4433C155.763 66.7786 156.766 67.1814 157.67 67.6952C158.663 68.2601 159.48 69.0334 159.006 70.2307C158.524 71.4497 157.599 72.2183 156.058 72.2806C154.222 72.3544 153.319 71.5178 152.809 70.0058C152.216 68.2493 151.178 68.0728 149.74 69.3054C146.431 72.1397 142.565 73.3194 138.202 71.6838C132.74 69.6353 130.408 65.3181 128.82 60.6101C128.703 60.2647 128.784 59.8551 128.861 59.4676C128.874 59.4007 128.887 59.3344 128.899 59.2692C128.989 58.7721 129.1 58.2767 129.211 57.7816C129.411 56.8906 129.61 55.9997 129.691 55.1004C129.773 54.1834 129.953 53.2687 130.133 52.3538C130.562 50.1741 130.991 47.9928 130.1 45.7758C129.46 44.1829 128.81 42.5896 128.067 41.0329C125.448 35.5445 122.285 30.2977 119.122 25.0508C117.576 22.4856 116.03 19.9204 114.547 17.3269C114.395 17.06 114.254 16.7861 114.112 16.5117C113.57 15.4622 113.025 14.4058 111.839 13.7085C110.333 12.8234 109.085 13.0744 108.344 14.4868C107.834 15.4594 107.31 16.4268 106.787 17.3941L106.786 17.3963C106.539 17.8525 106.292 18.3087 106.047 18.7654C104.063 22.4561 101.881 26.0574 99.6996 29.6587C97.1525 33.8631 94.6054 38.0676 92.373 42.4145C90.3982 46.2608 89.068 50.2407 89.4587 54.5256C89.5578 55.6149 89.7042 56.7007 89.8505 57.7865L89.8506 57.7871L89.8507 57.7878C89.8516 57.7945 89.8525 57.8013 89.8534 57.808C89.8709 57.938 89.8885 58.068 89.9059 58.198C90.0343 59.1554 90.1581 60.1131 90.2448 61.0735C90.7013 66.1293 87.0224 70.7994 81.7373 71.9619C76.0198 73.2195 71.5881 71.1811 68.998 66.0653C66.9842 62.0889 66.231 57.8883 66.2196 53.5556C66.2192 53.4126 66.2322 53.2632 66.2454 53.112C66.299 52.496 66.3552 51.8512 65.5169 51.4939C64.7893 51.6032 64.4508 52.0588 64.1231 52.4997C64.0682 52.5736 64.0135 52.6472 63.9574 52.7186L63.9153 52.7722C62.9101 54.051 61.9038 55.3312 60.9704 56.651C54.2043 66.2215 52.8962 75.9647 59.8713 85.9382C60.5502 86.9086 60.4978 87.8174 59.9762 88.8206C58.585 91.4964 57.5012 94.2816 57.1116 97.2077C57.0507 97.6651 56.9421 98.1228 56.8332 98.5817C56.5158 99.9192 56.1958 101.268 57.0466 102.652C62.9337 112.231 71.0286 120.09 80.7794 126.673C82.3772 127.752 83.4143 127.511 84.1055 125.797C87.254 117.989 90.7258 110.294 94.451 102.408ZM98.2756 113.916C97.1636 116.188 96.0516 118.46 94.9868 120.749C91.0595 129.192 87.151 137.643 85.4239 146.723C85.402 146.838 85.3779 146.954 85.3537 147.071C85.1764 147.925 84.9924 148.811 85.6317 149.497C86.1524 150.056 86.5224 150.684 86.8902 151.308C87.195 151.826 87.4983 152.34 87.8846 152.811C92.0435 157.872 96.2057 162.933 100.467 167.926C100.798 168.315 101.124 168.707 101.451 169.099C102.785 170.701 104.123 172.308 105.801 173.669C108.577 175.92 111.637 176.085 114.617 174.095C115.638 173.416 116.554 172.622 117.342 171.732C123.268 165.019 128.908 158.123 134.354 151.098C135.466 149.664 135.714 148.216 135.399 146.625C134.531 142.23 133.195 137.939 131.439 133.76C126.441 121.868 120.813 110.204 114.752 98.7098C114.7 98.6112 114.648 98.5124 114.596 98.4136L114.457 98.1479C113.311 95.9664 112.136 93.729 110.308 91.4801C106.708 97.1299 103.834 102.814 100.889 108.639C100.527 109.356 100.163 110.075 99.797 110.797C99.2929 111.838 98.7843 112.877 98.2756 113.916ZM156.745 180.848C156.642 179.75 156.535 178.615 156.29 177.443C152.318 181.005 149.131 184.918 145.974 188.795C143.89 191.354 141.819 193.897 139.544 196.313C139.626 196.37 139.698 196.422 139.764 196.47C139.81 196.504 139.852 196.535 139.892 196.564C140.067 196.693 140.188 196.783 140.324 196.849C140.713 197.04 141.11 197.229 141.526 197.365C147.642 199.379 153.906 200.21 160.445 199.551C169.71 198.619 176.198 194.165 180.709 187.233C185.224 180.294 186 172.743 184.766 164.968C184.717 164.655 184.67 164.34 184.623 164.025L184.622 164.024C184.366 162.307 184.108 160.571 183.375 158.945C182.355 159.022 181.649 159.456 180.958 159.88C180.936 159.893 180.914 159.907 180.891 159.921C180.876 159.93 180.861 159.94 180.845 159.949C179.428 160.816 178.017 161.69 176.605 162.564L176.602 162.565C173.735 164.34 170.867 166.116 167.955 167.832C166.52 168.677 166.161 169.66 166.266 171.097C166.618 175.915 165.447 180.51 163.227 184.885C162.436 186.445 161.465 187.964 159.859 189.202C158.938 188.377 158.518 187.466 158.014 186.374C157.992 186.326 157.97 186.278 157.948 186.229C157.925 186.18 157.903 186.131 157.88 186.082C157.083 184.441 156.919 182.698 156.745 180.848ZM63.4829 180.658C63.3082 182.499 63.1434 184.235 62.3439 185.868C62.2979 185.966 62.2529 186.063 62.2085 186.159C61.7033 187.246 61.2816 188.153 60.3574 188.974C58.7443 187.742 57.77 186.229 56.9759 184.677C54.747 180.322 53.5722 175.747 53.9256 170.95C54.0309 169.52 53.6705 168.542 52.2299 167.7C49.3065 165.992 46.428 164.224 43.5494 162.457L43.5475 162.456L43.5464 162.455L43.546 162.455L43.5455 162.455C42.1288 161.585 40.712 160.715 39.2898 159.853C39.2522 159.83 39.2145 159.807 39.1768 159.784C38.4837 159.362 37.7743 158.93 36.7505 158.853C36.015 160.472 35.7553 162.2 35.4983 163.91C35.4511 164.224 35.404 164.537 35.354 164.849C34.1151 172.589 34.8942 180.106 39.4266 187.014C43.9548 193.915 50.4685 198.349 59.7688 199.277C66.3324 199.933 72.6213 199.105 78.7603 197.101C79.1779 196.965 79.5763 196.777 79.9674 196.587C80.1035 196.521 80.225 196.432 80.4005 196.303C80.4969 196.233 80.6096 196.15 80.75 196.053C78.4657 193.648 76.387 191.116 74.2954 188.569C71.126 184.71 67.9271 180.814 63.9394 177.268C63.6939 178.435 63.5866 179.565 63.4829 180.658Z" fill="#363333"/>
<path d="M140.324 196.849C140.713 197.04 141.11 197.229 141.526 197.365C147.642 199.379 153.906 200.21 160.445 199.551C169.71 198.619 176.198 194.165 180.709 187.233C185.224 180.294 186 172.743 184.766 164.968C184.717 164.655 184.67 164.34 184.623 164.025L184.622 164.024C184.366 162.307 184.108 160.571 183.375 158.945C182.355 159.022 181.649 159.456 180.958 159.88L180.891 159.921L180.845 159.949C179.428 160.816 178.017 161.69 176.605 162.564L176.602 162.565C173.735 164.34 170.867 166.116 167.955 167.832C166.52 168.677 166.161 169.66 166.266 171.097C166.618 175.915 165.447 180.51 163.227 184.885C162.436 186.445 161.465 187.964 159.859 189.202C158.938 188.377 158.518 187.466 158.014 186.374L157.948 186.229C157.925 186.18 157.903 186.131 157.88 186.082C157.083 184.441 156.919 182.698 156.745 180.848C156.642 179.75 156.535 178.615 156.29 177.443C152.318 181.005 149.131 184.918 145.974 188.795C143.89 191.354 141.819 193.897 139.544 196.313C139.626 196.37 139.698 196.422 139.764 196.47C139.81 196.504 139.852 196.535 139.892 196.564C140.067 196.693 140.188 196.783 140.324 196.849Z" fill="#FFC94A"/>
<path d="M79.9674 196.587C79.5763 196.777 79.1779 196.965 78.7603 197.101C72.6213 199.105 66.3324 199.933 59.7688 199.277C50.4685 198.349 43.9548 193.915 39.4266 187.014C34.8942 180.106 34.1151 172.589 35.354 164.849C35.404 164.537 35.4511 164.224 35.4983 163.91C35.7553 162.2 36.015 160.472 36.7505 158.853C37.7743 158.93 38.4837 159.362 39.1768 159.784C39.2145 159.807 39.2522 159.83 39.2898 159.853C40.712 160.715 42.1288 161.585 43.5455 162.455L43.546 162.455L43.5464 162.455L43.5475 162.456L43.5494 162.457C46.428 164.224 49.3065 165.992 52.2299 167.7C53.6705 168.542 54.0309 169.52 53.9256 170.95C53.5722 175.747 54.747 180.322 56.9759 184.677C57.77 186.229 58.7443 187.742 60.3574 188.974C61.2816 188.153 61.7033 187.246 62.2085 186.159C62.2529 186.063 62.2979 185.966 62.3439 185.868C63.1434 184.235 63.3082 182.499 63.4829 180.658C63.5866 179.565 63.6939 178.435 63.9394 177.268C67.9271 180.814 71.126 184.71 74.2954 188.569C76.387 191.116 78.4657 193.648 80.75 196.053C80.6096 196.15 80.4969 196.233 80.4005 196.303C80.225 196.432 80.1035 196.521 79.9674 196.587Z" fill="#FFC94A"/>
<path d="M94.9868 120.749C91.0595 129.192 87.151 137.643 85.4239 146.723C85.402 146.838 85.3779 146.954 85.3537 147.071C85.1764 147.925 84.9924 148.811 85.6317 149.497C86.1524 150.056 86.5224 150.684 86.8902 151.308C87.195 151.826 87.4983 152.34 87.8846 152.811C92.0435 157.872 96.2057 162.933 100.467 167.926C100.798 168.315 101.124 168.707 101.451 169.099C102.785 170.701 104.123 172.308 105.801 173.669C108.577 175.92 111.637 176.085 114.617 174.095C115.638 173.416 116.554 172.622 117.342 171.732C123.268 165.019 128.908 158.123 134.354 151.098C135.466 149.664 135.714 148.216 135.399 146.625C134.531 142.23 133.195 137.939 131.439 133.76C126.441 121.868 120.813 110.204 114.752 98.7098C114.7 98.6112 114.648 98.5124 114.596 98.4136L114.457 98.1479C113.311 95.9664 112.136 93.729 110.308 91.4801C106.708 97.1299 103.834 102.814 100.889 108.639C100.527 109.356 100.163 110.075 99.797 110.797C99.2929 111.838 98.7843 112.877 98.2756 113.916C97.1636 116.188 96.0516 118.46 94.9868 120.749Z" fill="url(#paint0_linear_9884_1152)"/>
<path d="M94.451 102.408C97.6799 95.716 101.006 89.0635 104.908 82.6507C105.635 81.4558 106.418 80.29 107.601 79.39C109.76 77.7483 112.295 77.8896 114.217 79.7555C115.085 80.5985 115.685 81.594 116.266 82.6013C124.189 96.3399 130.592 110.643 136.439 125.152C136.501 125.305 136.556 125.461 136.611 125.617C136.615 125.627 136.619 125.638 136.623 125.648C136.866 126.338 137.113 127.035 137.865 127.539C137.934 127.519 138.007 127.502 138.081 127.486C138.245 127.449 138.413 127.41 138.555 127.334C138.66 127.276 138.766 127.22 138.873 127.163C139.422 126.869 139.975 126.574 140.472 126.22C149.637 119.704 157.773 112.392 163.421 103.127C164.137 101.953 164.3 100.828 164.076 99.559C163.466 96.0906 162.532 92.7103 160.907 89.4913C160.15 87.9915 160.297 86.5926 161.402 85.1829C162.602 83.6516 163.399 81.9053 164.054 80.1342C165.04 77.4699 163.859 75.1915 162.69 72.9349C162.353 72.2848 162.017 71.6365 161.734 70.9813C161.22 69.7918 160.949 68.8793 161.483 67.6464C162.44 65.4421 163.326 63.166 162.118 60.7758C160.995 58.5549 159.598 56.4735 158.072 54.4538C157.286 53.413 156.239 52.7928 154.582 52.5943C154.535 56.0914 153.874 59.4604 153.214 62.8258C153.128 63.2668 153.042 63.7078 152.956 64.1489C152.739 65.2768 153.51 66.0304 154.754 66.4433C155.763 66.7786 156.766 67.1814 157.67 67.6952C158.663 68.2601 159.48 69.0334 159.006 70.2307C158.524 71.4497 157.599 72.2183 156.058 72.2806C154.222 72.3544 153.319 71.5178 152.809 70.0058C152.216 68.2493 151.178 68.0728 149.74 69.3054C146.431 72.1397 142.565 73.3194 138.202 71.6838C132.74 69.6353 130.408 65.3181 128.82 60.6101C128.703 60.2647 128.784 59.8551 128.861 59.4676C128.874 59.4007 128.887 59.3344 128.899 59.2692C128.989 58.7721 129.1 58.2767 129.211 57.7816C129.411 56.8906 129.61 55.9997 129.691 55.1004C129.773 54.1834 129.953 53.2687 130.133 52.3538C130.562 50.1741 130.991 47.9928 130.1 45.7758C129.46 44.1829 128.81 42.5896 128.067 41.0329C125.448 35.5445 122.285 30.2977 119.122 25.0508C117.576 22.4856 116.03 19.9204 114.547 17.3269C114.395 17.06 114.254 16.7861 114.112 16.5117C113.57 15.4622 113.025 14.4058 111.839 13.7085C110.333 12.8234 109.085 13.0744 108.344 14.4868C107.834 15.4594 107.31 16.4268 106.787 17.3941L106.786 17.3963C106.539 17.8525 106.292 18.3087 106.047 18.7654C104.063 22.4561 101.881 26.0574 99.6996 29.6587C97.1525 33.8631 94.6054 38.0676 92.373 42.4145C90.3982 46.2608 89.068 50.2407 89.4587 54.5256C89.5578 55.6149 89.7042 56.7007 89.8505 57.7865L89.8506 57.7871L89.8507 57.7878C89.8516 57.7945 89.8525 57.8013 89.8534 57.808C89.8709 57.938 89.8885 58.068 89.9059 58.198C90.0343 59.1554 90.1581 60.1131 90.2448 61.0735C90.7013 66.1293 87.0224 70.7994 81.7373 71.9619C76.0198 73.2195 71.5881 71.1811 68.998 66.0653C66.9842 62.0889 66.231 57.8883 66.2196 53.5556C66.2192 53.4126 66.2322 53.2632 66.2454 53.112C66.299 52.496 66.3552 51.8512 65.5169 51.4939C64.7893 51.6032 64.4508 52.0588 64.1231 52.4997C64.0682 52.5736 64.0135 52.6472 63.9574 52.7186L63.9153 52.7722C62.9101 54.051 61.9038 55.3312 60.9704 56.651C54.2043 66.2215 52.8962 75.9647 59.8713 85.9382C60.5502 86.9086 60.4978 87.8174 59.9762 88.8206C58.585 91.4964 57.5012 94.2816 57.1116 97.2077C57.0507 97.6651 56.9421 98.1228 56.8332 98.5817C56.5158 99.9192 56.1958 101.268 57.0466 102.652C62.9337 112.231 71.0286 120.09 80.7794 126.673C82.3772 127.752 83.4143 127.511 84.1055 125.797C87.254 117.989 90.7258 110.294 94.451 102.408Z" fill="url(#paint1_linear_9884_1152)"/>
<path fill-rule="evenodd" clip-rule="evenodd" d="M89.8506 57.7871L89.8507 57.7878C89.8516 57.7945 89.8525 57.8013 89.8534 57.808C89.8525 57.8012 89.8515 57.794 89.8506 57.7871ZM179.104 220.498C189.341 210.503 197.167 196.264 198.684 190.615C200.03 185.6 199.938 180.523 199.726 175.465C199.499 170.055 201.15 165.252 204.347 160.72C206.201 158.091 207.85 155.344 209.49 152.602C210.479 150.949 209.963 150.181 207.923 150.288C204.038 150.491 200.19 150.969 196.568 152.339C194.317 153.189 193.724 154.018 193.936 156.13C194.056 157.321 194.212 158.51 194.368 159.699L194.368 159.7L194.431 160.177C194.577 161.291 194.718 162.405 194.826 163.522C195.824 173.913 194.167 183.778 187.332 192.593C182.668 198.608 176.847 203.355 168.807 205.567C162.335 207.347 155.72 207.233 149.123 206.286C143.34 205.455 137.898 203.717 133.055 200.725C130.514 199.155 130.229 197.663 131.945 195.423C132.706 194.431 133.492 193.454 134.279 192.476L134.28 192.475L134.567 192.119C135.237 191.287 135.904 190.453 136.553 189.609C143.849 180.11 151.665 170.991 161.645 163.531C169.061 157.988 176.876 152.933 185.571 149.019C190.535 146.784 195.632 144.897 201.11 143.905C202.6 143.635 203.29 143.031 202.954 141.555C202.648 140.208 202.121 138.958 201.492 137.727C200.68 136.136 200.72 134.65 201.621 133.03L201.765 132.771C204.67 127.545 207.577 122.317 209.622 116.75C210.099 115.452 210.008 114.406 208.945 113.513C208.191 112.88 207.426 113.21 206.694 113.526C206.503 113.608 206.315 113.689 206.13 113.752C204.775 114.211 203.429 114.689 202.082 115.167L202.082 115.167C200.353 115.78 198.624 116.394 196.879 116.969C193.795 117.985 192.773 117.273 192.91 114.338C192.911 114.312 192.912 114.286 192.912 114.26L192.913 114.233C192.914 114.155 192.915 114.077 192.928 114C193.164 112.537 193.381 111.072 193.596 109.606L193.639 109.314L193.639 109.313C194.13 105.961 194.621 102.61 195.338 99.2863C196.139 95.5761 196.827 91.8172 196.766 88.0558C196.716 84.956 196.708 81.9137 197.129 78.822C197.204 78.2737 197.245 77.6868 197.287 77.0917V77.0906L197.287 77.089C197.323 76.5776 197.359 76.0598 197.418 75.5555C197.423 75.5051 197.371 75.4493 197.287 75.3611C197.238 75.3088 197.178 75.2452 197.113 75.1647C196.226 75.6295 195.572 76.3133 194.924 76.9907L194.909 77.0068L194.84 77.0784L194.803 77.1177L194.761 77.1611L194.729 77.1939C194.679 77.2466 194.628 77.2991 194.577 77.3514C185.545 86.5957 177.859 96.6959 170.423 106.964C170.23 107.23 170.037 107.497 169.844 107.764C166.019 113.052 162.186 118.351 157.059 122.789C152.222 126.975 147.023 130.783 141.684 134.449C141.658 134.467 141.632 134.485 141.605 134.503L141.533 134.552C140.878 134.996 140.26 135.415 140.428 136.346C140.698 137.836 140.935 139.331 141.173 140.826L141.173 140.827L141.174 140.836C141.352 141.954 141.529 143.072 141.72 144.189C142.386 148.077 141.954 151.622 139.365 155.107C136.937 158.378 134.65 161.735 132.364 165.094C131.326 166.618 130.288 168.142 129.236 169.658C126.815 173.151 123.942 176.284 120.554 179.056C115.281 183.37 108.905 183.94 102.84 180.543C99.3435 178.585 96.6351 175.858 94.2987 172.881C89.8131 167.165 85.765 161.202 81.7165 155.238L81.2544 154.558C79.5268 152.013 78.3979 149.419 78.8785 146.405C78.9899 145.708 79.0833 145.007 79.1755 144.306L79.194 144.166C79.3826 142.731 79.5711 141.297 79.9042 139.89C80.5731 137.065 80.3152 135.057 77.1721 133.082C66.8361 126.589 58.3746 118.511 51.7584 108.813C45.0715 99.0116 37.8805 89.4655 29.4806 80.7039C29.1475 80.3563 28.8192 80.0038 28.4908 79.6505L28.4251 79.5798C26.9735 78.0183 25.5125 76.4465 23.6119 75.2168C23.0179 75.7682 22.8656 76.2821 22.8871 76.8711C22.9148 77.6347 22.9286 78.3975 22.9423 79.1604C22.97 80.6996 22.9977 82.2391 23.1408 83.7861C23.5733 88.4619 24.3646 93.0916 25.1557 97.7207C25.6379 100.542 26.12 103.363 26.5208 106.194C26.6643 107.207 26.8579 108.216 27.0514 109.224C27.4331 111.214 27.8148 113.203 27.8128 115.233C27.8109 117.212 26.8025 117.889 24.6306 117.27C23.6436 116.988 22.6883 116.621 21.7324 116.253L21.5197 116.172C21.0238 115.981 20.5272 115.792 20.0252 115.617C19.1141 115.299 18.2307 114.923 17.3473 114.546C15.7646 113.871 14.1815 113.196 12.437 112.858C11.1569 112.611 10.6433 113.076 10.5656 114.133C10.4852 115.23 10.8508 116.246 11.2171 117.265C11.2363 117.318 11.2554 117.371 11.2744 117.425C11.2949 117.482 11.3153 117.539 11.3356 117.596C13.0168 122.345 15.5837 126.755 18.142 131.151L18.2502 131.337C19.7129 133.85 20.4401 136.191 18.7198 138.787C18.4309 139.222 18.2834 139.738 18.1387 140.244L18.1386 140.244L18.138 140.246L18.1219 140.302C18.0988 140.383 18.0755 140.464 18.0516 140.543C17.3543 142.874 17.6222 143.296 20.1653 143.931C20.5988 144.039 21.0358 144.136 21.4728 144.233L21.4733 144.233L21.4741 144.234L21.4762 144.234C21.7798 144.301 22.0837 144.369 22.3861 144.44C32.2242 146.754 40.7871 151.295 48.9861 156.443C58.5471 162.445 67.4048 169.141 74.4771 177.496C77.9095 181.551 81.274 185.651 84.6385 189.751L84.6395 189.752L84.6403 189.753L84.6408 189.754L84.6422 189.756L85.1919 190.426C86.4747 191.989 87.7581 193.552 89.0458 195.112C91.1908 197.711 90.993 198.92 88.0603 200.887C87.4533 201.295 86.7951 201.654 86.1219 201.971C78.9482 205.349 71.3355 206.905 63.1694 206.892C53.0768 206.875 44.6807 203.498 38.0424 197.074C27.874 187.234 24.3065 175.463 26.4661 162.308C26.5337 161.897 26.6047 161.486 26.6758 161.075C27.0089 159.15 27.3413 157.228 27.3126 155.26C27.2904 153.76 26.6123 152.839 25.0562 152.277C22.3849 151.312 19.6203 150.593 16.7879 150.25C15.4478 150.087 14.0783 150.114 12.674 150.153C12.5804 150.156 12.4867 150.158 12.3927 150.161H12.3922L12.1366 150.168C11.5387 150.185 10.9344 150.2 10.3234 150.2C10.5775 151.534 11.1014 152.554 11.7363 153.52C12.219 154.254 12.7234 154.978 13.2276 155.702C13.9954 156.803 14.763 157.905 15.4538 159.044C15.895 159.77 16.374 160.484 16.858 161.196C16.9272 161.298 16.9964 161.4 17.0657 161.501C18.8449 164.115 20.6273 166.733 20.7826 169.95L20.7868 170.037C20.8144 170.61 20.842 171.182 20.8693 171.755C21.0607 175.775 21.2361 179.797 21.2824 183.82C21.3934 193.538 29.9675 208.484 41.9058 220.498C61.3022 240.017 81.2299 247.621 110.601 247.594C139.903 247.567 159.425 239.712 179.104 220.498Z" fill="#ACB0A7"/>
<path fill-rule="evenodd" clip-rule="evenodd" d="M13.3991 175.951C13.3142 171.951 12.4776 168.113 10.0436 164.646C8.66671 162.68 7.3191 160.697 6.00113 158.7C3.9709 155.63 2.12513 152.479 0.634124 149.169C-1.04976 145.43 0.518171 142.147 6.56332 142.429C7.77447 142.486 8.98183 142.608 10.1886 142.729C10.5624 142.767 10.9362 142.804 11.31 142.84C11.7795 142.885 12.3677 142.909 12.4604 142.481C12.546 142.084 12.6734 141.695 12.8006 141.307C13.1859 140.13 13.5685 138.962 12.7784 137.609C12.3563 136.886 11.9322 136.164 11.508 135.442L11.5074 135.441L11.5053 135.437C8.31432 130.005 5.12079 124.569 2.7784 118.784C2.08954 117.082 1.68235 115.351 1.49061 113.527C0.918091 108.082 6.69802 103.237 14.0367 105.645C15.1189 106 16.2035 106.349 17.3568 106.72L17.3581 106.721C17.9056 106.897 18.4685 107.078 19.0539 107.268C18.7935 106.157 18.5277 105.066 18.2649 103.988C17.6945 101.648 17.1383 99.3652 16.6827 97.0671C14.8764 87.9573 13.4263 78.8085 13.8167 69.5208C13.9077 67.3531 14.2353 65.099 16.8186 64.0592C19.331 63.0481 21.7317 63.7377 23.7845 65.1769C28.4534 68.4498 32.476 72.3101 36.2892 76.3373C40.6344 80.9267 44.6191 85.756 48.3007 90.7807C48.5275 91.0902 48.7784 91.3858 49.0671 91.7258C49.215 91.8999 49.3727 92.0857 49.5422 92.291C50.9123 90.0593 51.6892 88.2103 50.2177 85.6466C44.8974 76.3806 45.7267 67.0079 50.5433 57.7823C54.8017 49.6262 61.2915 43.037 69.184 37.4748C70.0806 36.8392 71.0721 36.3163 72.1304 35.9208C73.887 35.2664 75.5452 35.4446 76.975 36.5034C78.3282 37.5056 78.6015 38.9113 78.1824 40.3691C77.7941 41.7207 77.3776 43.0662 76.9612 44.4116L76.9609 44.4126C76.4695 46.0002 75.9781 47.5877 75.533 49.1852C74.2723 53.7087 74.7618 58.1315 76.7779 62.4212C77.3496 63.6378 78.0155 65.0333 79.8728 64.6052C81.6118 64.2041 82.0569 62.7911 81.9164 61.3502C81.7576 59.7285 81.4801 58.1108 81.1525 56.5081C80.037 51.0573 81.6857 46.0139 83.934 41.038C86.4858 35.3907 89.6292 29.9979 92.7727 24.605C94.8602 21.0237 96.9478 17.4423 98.8621 13.7864C100.523 10.6137 102.201 7.44649 103.938 4.30566C105.236 1.95843 107.123 0.21951 110.298 0.0173022C113.386 -0.179147 115.335 1.31692 116.753 3.50462C118.766 6.60985 120.476 9.8489 122.185 13.0881C123.227 15.0617 124.269 17.0354 125.379 18.9791C125.754 19.6343 126.129 20.2894 126.504 20.9443L126.512 20.9583C130.11 27.2385 133.707 33.5176 136.665 40.0727C139.471 46.2927 140.784 52.5879 138.944 59.2265C138.692 60.1353 138.732 61.1477 138.86 62.0879C139.031 63.3333 139.753 64.3975 141.252 64.6333C142.736 64.8666 143.433 63.8316 143.907 62.8331C145.051 60.4265 145.629 57.8866 145.816 55.2867C146.11 51.2339 144.857 47.4092 143.606 43.5909C143.564 43.4622 143.522 43.3336 143.48 43.205C143.443 43.091 143.405 42.977 143.368 42.8629C143.012 41.7723 142.707 40.6861 142.677 39.5504C142.594 36.3984 145.087 34.7967 148.508 35.8063C150.969 36.5328 152.846 38.048 154.698 39.543L154.777 39.6063C162.868 46.1365 169.332 53.6666 172.514 63.0871C175.17 70.9491 174.986 78.715 170.413 86.0256C169.003 88.2781 169.826 89.981 170.897 92.1954C170.957 92.3192 171.017 92.4446 171.079 92.5718C171.575 91.9534 172.053 91.3662 172.516 90.7983L172.517 90.7969L172.518 90.7957C173.472 89.6228 174.36 88.532 175.209 87.4177C181.504 79.1472 188.493 71.4162 197.297 65.0936C197.883 64.6722 198.547 64.2983 199.24 64.0355C203.281 62.5018 206.569 64.1896 206.851 68.2219C207.201 73.2313 206.948 78.2554 206.361 83.2564C205.422 91.2593 204.012 99.1942 201.692 107.29C202.327 107.086 202.928 106.889 203.507 106.699L203.508 106.699C204.69 106.311 205.782 105.952 206.888 105.627C214.658 103.34 220.912 108.225 219.201 115.309C218.065 120.013 215.692 124.301 213.324 128.582L213.324 128.582L213.322 128.586C213.056 129.066 212.79 129.546 212.527 130.026C211.077 132.664 209.599 135.289 208.093 137.901C207.401 139.104 207.827 140.196 208.252 141.282L208.252 141.282C208.362 141.565 208.473 141.848 208.563 142.132C208.723 142.635 209.229 142.616 209.71 142.597C209.828 142.593 209.944 142.588 210.053 142.592C210.955 142.618 211.851 142.523 212.747 142.427C214 142.294 215.254 142.16 216.527 142.361C220.533 142.993 222.1 145.429 220.643 148.8C218.616 153.492 215.643 157.74 212.677 161.978L212.653 162.012C212.441 162.316 212.228 162.62 212.016 162.924C209.233 166.909 207.505 171.075 207.589 175.826C207.633 178.335 207.534 180.846 207.435 183.356V183.357C207.394 184.4 206.27 189.202 204.998 193.571C194.561 229.414 156.257 256 110.601 256C64.9446 256 26.6402 229.414 16.2035 193.571C14.7473 188.569 13.3127 183.107 13.3701 180.32C13.4001 178.862 13.4301 177.403 13.3991 175.951ZM198.684 190.615C197.167 196.264 189.341 210.503 179.104 220.498C159.425 239.712 139.903 247.567 110.601 247.594C81.2299 247.621 61.3022 240.017 41.9058 220.498C29.9675 208.484 21.3934 193.538 21.2824 183.82C21.2361 179.797 21.0607 175.775 20.8693 171.755C20.842 171.182 20.8144 170.61 20.7868 170.037L20.7826 169.95C20.6273 166.733 18.8449 164.115 17.0657 161.501C16.9964 161.4 16.9272 161.298 16.858 161.196C16.374 160.484 15.895 159.77 15.4538 159.044C14.763 157.905 13.9954 156.803 13.2276 155.702C12.7234 154.978 12.219 154.254 11.7363 153.52C11.1014 152.554 10.5775 151.534 10.3234 150.2C10.9344 150.2 11.5387 150.185 12.1366 150.168L12.3922 150.161H12.3927C12.4867 150.158 12.5804 150.156 12.674 150.153C14.0783 150.114 15.4478 150.087 16.7879 150.25C19.6203 150.593 22.3849 151.312 25.0562 152.277C26.6123 152.839 27.2904 153.76 27.3126 155.26C27.3413 157.228 27.0089 159.15 26.6758 161.075C26.6047 161.486 26.5337 161.897 26.4661 162.308C24.3065 175.463 27.874 187.234 38.0424 197.074C44.6807 203.498 53.0768 206.875 63.1694 206.892C71.3355 206.905 78.9482 205.349 86.1219 201.971C86.7951 201.654 87.4533 201.295 88.0603 200.887C90.993 198.92 91.1908 197.711 89.0458 195.112C87.7581 193.552 86.4747 191.989 85.1919 190.426L84.6422 189.756L84.6408 189.754L84.6403 189.753L84.6395 189.752L84.6385 189.751C81.274 185.651 77.9095 181.551 74.4771 177.496C67.4048 169.141 58.5471 162.445 48.9861 156.443C40.7871 151.295 32.2242 146.754 22.3861 144.44C22.0837 144.369 21.7798 144.301 21.4762 144.234L21.4741 144.234L21.4733 144.233L21.4728 144.233C21.0358 144.136 20.5988 144.039 20.1653 143.931C17.6222 143.296 17.3543 142.874 18.0516 140.543C18.0755 140.464 18.0988 140.383 18.1219 140.302L18.138 140.246L18.1386 140.244L18.1387 140.244C18.2834 139.738 18.4309 139.222 18.7198 138.787C20.4401 136.191 19.7129 133.85 18.2502 131.337L18.142 131.151C15.5837 126.755 13.0168 122.345 11.3356 117.596C11.3153 117.539 11.2949 117.482 11.2744 117.425C11.2554 117.371 11.2363 117.318 11.2171 117.265C10.8508 116.246 10.4852 115.23 10.5656 114.133C10.6433 113.076 11.1569 112.611 12.437 112.858C14.1815 113.196 15.7646 113.871 17.3473 114.546C18.2307 114.923 19.1141 115.299 20.0252 115.617C20.5272 115.792 21.0238 115.981 21.5197 116.172L21.7324 116.253C22.6883 116.621 23.6436 116.988 24.6306 117.27C26.8025 117.889 27.8109 117.212 27.8128 115.233C27.8148 113.203 27.4331 111.214 27.0514 109.224C26.8579 108.216 26.6643 107.207 26.5208 106.194C26.12 103.363 25.6379 100.542 25.1557 97.7207C24.3646 93.0916 23.5733 88.4619 23.1408 83.7861C22.9977 82.2391 22.97 80.6996 22.9423 79.1604C22.9286 78.3975 22.9148 77.6347 22.8871 76.8711C22.8656 76.2821 23.0179 75.7682 23.6119 75.2168C25.5125 76.4465 26.9735 78.0183 28.4251 79.5798L28.4908 79.6505C28.8192 80.0038 29.1475 80.3563 29.4806 80.7039C37.8805 89.4655 45.0715 99.0116 51.7584 108.813C58.3746 118.511 66.8361 126.589 77.1721 133.082C80.3152 135.057 80.5731 137.065 79.9042 139.89C79.5711 141.297 79.3826 142.731 79.194 144.166L79.1755 144.306C79.0833 145.007 78.9899 145.708 78.8785 146.405C78.3979 149.419 79.5268 152.013 81.2544 154.558L81.7165 155.238C85.765 161.202 89.8131 167.165 94.2987 172.881C96.6351 175.858 99.3435 178.585 102.84 180.543C108.905 183.94 115.281 183.37 120.554 179.056C123.942 176.284 126.815 173.151 129.236 169.658C130.288 168.142 131.326 166.618 132.364 165.094C134.65 161.735 136.937 158.378 139.365 155.107C141.954 151.622 142.386 148.077 141.72 144.189C141.529 143.072 141.352 141.954 141.174 140.836L141.173 140.827L141.173 140.826C140.935 139.331 140.698 137.836 140.428 136.346C140.26 135.415 140.878 134.996 141.533 134.552L141.605 134.503C141.632 134.485 141.658 134.467 141.684 134.449C147.023 130.783 152.222 126.975 157.059 122.789C162.186 118.351 166.019 113.052 169.844 107.764C170.037 107.497 170.23 107.23 170.423 106.964C177.859 96.6959 185.545 86.5957 194.577 77.3514C194.628 77.2991 194.679 77.2466 194.729 77.1939L194.761 77.1611L194.803 77.1177L194.84 77.0784L194.909 77.0068L194.924 76.9907C195.572 76.3133 196.226 75.6295 197.113 75.1647C197.178 75.2452 197.238 75.3088 197.287 75.3611C197.371 75.4493 197.423 75.5051 197.418 75.5555C197.359 76.0598 197.323 76.5776 197.287 77.089L197.287 77.0906V77.0917C197.245 77.6868 197.204 78.2737 197.129 78.822C196.708 81.9137 196.716 84.956 196.766 88.0558C196.827 91.8172 196.139 95.5761 195.338 99.2863C194.621 102.61 194.13 105.961 193.639 109.313L193.639 109.314L193.596 109.606C193.381 111.072 193.164 112.537 192.928 114C192.915 114.077 192.914 114.155 192.913 114.233L192.912 114.26C192.912 114.286 192.911 114.312 192.91 114.338C192.773 117.273 193.795 117.985 196.879 116.969C198.624 116.394 200.353 115.78 202.082 115.167L202.082 115.167C203.429 114.689 204.775 114.211 206.13 113.752C206.315 113.689 206.503 113.608 206.694 113.526C207.426 113.21 208.191 112.88 208.945 113.513C210.008 114.406 210.099 115.452 209.622 116.75C207.577 122.317 204.67 127.545 201.765 132.771L201.621 133.03C200.72 134.65 200.68 136.136 201.492 137.727C202.121 138.958 202.648 140.208 202.954 141.555C203.29 143.031 202.6 143.635 201.11 143.905C195.632 144.897 190.535 146.784 185.571 149.019C176.876 152.933 169.061 157.988 161.645 163.531C151.665 170.991 143.849 180.11 136.553 189.609C135.904 190.453 135.237 191.287 134.567 192.119L134.28 192.475L134.279 192.476C133.492 193.454 132.706 194.431 131.945 195.423C130.229 197.663 130.514 199.155 133.055 200.725C137.898 203.717 143.34 205.455 149.123 206.286C155.72 207.233 162.335 207.347 168.807 205.567C176.847 203.355 182.668 198.608 187.332 192.593C194.167 183.778 195.824 173.913 194.826 163.522C194.718 162.405 194.577 161.291 194.431 160.177L194.368 159.7L194.368 159.699C194.212 158.51 194.056 157.321 193.936 156.13C193.724 154.018 194.317 153.189 196.568 152.339C200.19 150.969 204.038 150.491 207.923 150.288C209.963 150.181 210.479 150.949 209.49 152.602C207.85 155.344 206.201 158.091 204.347 160.72C201.15 165.252 199.499 170.055 199.726 175.465C199.938 180.523 200.03 185.6 198.684 190.615ZM104.908 82.6507C101.006 89.0635 97.6799 95.716 94.451 102.408C90.7258 110.294 87.254 117.989 84.1055 125.797C83.4143 127.511 82.3772 127.752 80.7794 126.673C71.0286 120.09 62.9337 112.231 57.0466 102.652C56.1958 101.268 56.5158 99.9192 56.8332 98.5817C56.9421 98.1228 57.0507 97.6651 57.1116 97.2077C57.5012 94.2816 58.585 91.4964 59.9762 88.8206C60.4978 87.8174 60.5502 86.9086 59.8713 85.9382C52.8962 75.9647 54.2043 66.2215 60.9704 56.651C61.9038 55.3312 62.9101 54.051 63.9153 52.7722L63.9574 52.7186C64.0135 52.6472 64.0682 52.5736 64.1231 52.4997C64.4508 52.0588 64.7893 51.6032 65.5169 51.4939C66.3552 51.8512 66.299 52.496 66.2454 53.112C66.2322 53.2632 66.2192 53.4126 66.2196 53.5556C66.231 57.8883 66.9842 62.0889 68.998 66.0653C71.5881 71.1811 76.0198 73.2195 81.7373 71.9619C87.0224 70.7994 90.7013 66.1293 90.2448 61.0735C90.1581 60.1131 90.0343 59.1554 89.9059 58.198C89.8885 58.068 89.8709 57.938 89.8534 57.808L89.8507 57.7878L89.8506 57.7871L89.8505 57.7865C89.7042 56.7007 89.5578 55.6149 89.4587 54.5256C89.068 50.2407 90.3982 46.2608 92.373 42.4145C94.6054 38.0676 97.1525 33.8631 99.6996 29.6587C101.881 26.0574 104.063 22.4561 106.047 18.7654C106.292 18.3087 106.539 17.8525 106.786 17.3963L106.787 17.3941C107.31 16.4268 107.834 15.4594 108.344 14.4868C109.085 13.0744 110.333 12.8234 111.839 13.7085C113.025 14.4058 113.57 15.4622 114.112 16.5117C114.254 16.7861 114.395 17.06 114.547 17.3269C116.03 19.9204 117.576 22.4856 119.122 25.0508C122.285 30.2977 125.448 35.5445 128.067 41.0329C128.81 42.5896 129.46 44.1829 130.1 45.7758C130.991 47.9928 130.562 50.1741 130.133 52.3538C129.953 53.2687 129.773 54.1834 129.691 55.1004C129.61 55.9997 129.411 56.8906 129.211 57.7816C129.1 58.2767 128.989 58.7721 128.899 59.2692C128.887 59.3344 128.874 59.4007 128.861 59.4676C128.784 59.8551 128.703 60.2647 128.82 60.6101C130.408 65.3181 132.74 69.6353 138.202 71.6838C142.565 73.3194 146.431 72.1397 149.74 69.3054C151.178 68.0728 152.216 68.2493 152.809 70.0058C153.319 71.5178 154.222 72.3544 156.058 72.2806C157.599 72.2183 158.524 71.4497 159.006 70.2307C159.48 69.0334 158.663 68.2601 157.67 67.6952C156.766 67.1814 155.763 66.7786 154.754 66.4433C153.51 66.0304 152.739 65.2768 152.956 64.1489C153.042 63.7078 153.128 63.2668 153.214 62.8258C153.874 59.4604 154.535 56.0914 154.582 52.5943C156.239 52.7928 157.286 53.413 158.072 54.4538C159.598 56.4735 160.995 58.5549 162.118 60.7758C163.326 63.166 162.44 65.4421 161.483 67.6464C160.949 68.8793 161.22 69.7918 161.734 70.9813C162.017 71.6365 162.353 72.2848 162.69 72.9349C163.859 75.1915 165.04 77.4699 164.054 80.1342C163.399 81.9053 162.602 83.6516 161.402 85.1829C160.297 86.5926 160.15 87.9915 160.907 89.4913C162.532 92.7103 163.466 96.0906 164.076 99.559C164.3 100.828 164.137 101.953 163.421 103.127C157.773 112.392 149.637 119.704 140.472 126.22C139.975 126.574 139.422 126.869 138.873 127.163C138.766 127.22 138.66 127.276 138.555 127.334C138.413 127.41 138.245 127.449 138.081 127.486C138.007 127.502 137.934 127.519 137.865 127.539C137.113 127.035 136.866 126.338 136.623 125.648L136.611 125.617C136.556 125.461 136.501 125.305 136.439 125.152C130.592 110.643 124.189 96.3399 116.266 82.6013C115.685 81.594 115.085 80.5985 114.217 79.7555C112.295 77.8896 109.76 77.7483 107.601 79.39C106.418 80.29 105.635 81.4558 104.908 82.6507ZM85.4239 146.723C87.151 137.643 91.0595 129.192 94.9868 120.749C96.0516 118.46 97.1636 116.188 98.2756 113.916C98.7843 112.877 99.2929 111.838 99.797 110.797C100.163 110.075 100.527 109.356 100.889 108.639C103.834 102.814 106.708 97.1299 110.308 91.4801C112.136 93.729 113.311 95.9664 114.457 98.1479L114.596 98.4136C114.648 98.5124 114.7 98.6112 114.752 98.7098C120.813 110.204 126.441 121.868 131.439 133.76C133.195 137.939 134.531 142.23 135.399 146.625C135.714 148.216 135.466 149.664 134.354 151.098C128.908 158.123 123.268 165.019 117.342 171.732C116.554 172.622 115.638 173.416 114.617 174.095C111.637 176.085 108.577 175.92 105.801 173.669C104.123 172.308 102.785 170.701 101.451 169.099C101.124 168.707 100.798 168.315 100.467 167.926C96.2057 162.933 92.0435 157.872 87.8846 152.811C87.4983 152.34 87.195 151.826 86.8902 151.308C86.5224 150.684 86.1524 150.056 85.6317 149.497C84.9924 148.811 85.1764 147.925 85.3537 147.071C85.3779 146.954 85.402 146.838 85.4239 146.723ZM141.526 197.365C141.11 197.229 140.713 197.04 140.324 196.849C140.188 196.783 140.067 196.693 139.892 196.564C139.852 196.535 139.81 196.504 139.764 196.47C139.698 196.422 139.626 196.37 139.544 196.313C141.819 193.897 143.89 191.354 145.974 188.795C149.131 184.918 152.318 181.005 156.29 177.443C156.535 178.615 156.642 179.75 156.745 180.848C156.919 182.698 157.083 184.441 157.88 186.082C157.903 186.131 157.925 186.18 157.948 186.229L158.014 186.374C158.518 187.466 158.938 188.377 159.859 189.202C161.465 187.964 162.436 186.445 163.227 184.885C165.447 180.51 166.618 175.915 166.266 171.097C166.161 169.66 166.52 168.677 167.955 167.832C170.867 166.116 173.735 164.34 176.602 162.565L176.605 162.564C178.017 161.69 179.428 160.816 180.845 159.949L180.891 159.921L180.958 159.88C181.649 159.456 182.355 159.022 183.375 158.945C184.108 160.571 184.366 162.307 184.622 164.024L184.623 164.025C184.67 164.34 184.717 164.655 184.766 164.968C186 172.743 185.224 180.294 180.709 187.233C176.198 194.165 169.71 198.619 160.445 199.551C153.906 200.21 147.642 199.379 141.526 197.365ZM78.7603 197.101C79.1779 196.965 79.5763 196.777 79.9674 196.587C80.1035 196.521 80.225 196.432 80.4005 196.303C80.4969 196.233 80.6096 196.15 80.75 196.053C78.4657 193.648 76.387 191.116 74.2954 188.569C71.126 184.71 67.9271 180.814 63.9394 177.268C63.6939 178.435 63.5866 179.565 63.4829 180.658C63.3082 182.499 63.1434 184.235 62.3439 185.868C62.2979 185.966 62.2529 186.063 62.2085 186.159C61.7033 187.246 61.2816 188.153 60.3574 188.974C58.7443 187.742 57.77 186.229 56.9759 184.677C54.747 180.322 53.5722 175.747 53.9256 170.95C54.0309 169.52 53.6705 168.542 52.2299 167.7C49.3065 165.992 46.428 164.224 43.5494 162.457L43.5475 162.456L43.5464 162.455L43.546 162.455L43.5455 162.455C42.1288 161.585 40.712 160.715 39.2898 159.853C39.2522 159.83 39.2145 159.807 39.1768 159.784C38.4837 159.362 37.7743 158.93 36.7505 158.853C36.015 160.472 35.7553 162.2 35.4983 163.91C35.4511 164.224 35.404 164.537 35.354 164.849C34.1151 172.589 34.8942 180.106 39.4266 187.014C43.9548 193.915 50.4685 198.349 59.7688 199.277C66.3324 199.933 72.6213 199.105 78.7603 197.101Z" fill="#363333"/>
<path d="M90.5952 226.291C89.1175 225.102 87.966 223.894 87.2986 222.442C86.6916 221.121 86.5851 219.704 87.8708 218.57C89.0708 217.512 90.49 217.573 91.9654 218.119C95.3578 219.374 98.3801 221.131 100.96 223.428C102.683 224.961 103.554 226.867 102.03 228.804C100.512 230.734 98.2324 230.232 96.157 229.525C94.1224 228.832 92.4117 227.648 90.5952 226.291Z" fill="#363333"/>
<path d="M122.498 230.075C124.995 229.973 126.881 228.692 129.016 227.443C131.142 226.003 133.049 224.607 134.022 222.541C134.646 221.22 134.787 219.817 133.499 218.674C132.327 217.636 130.847 217.517 129.399 218.061C125.37 219.574 121.845 221.727 119.14 224.804C118.201 225.871 117.658 227.108 118.472 228.423C119.329 229.808 120.822 230.143 122.498 230.075Z" fill="#363333"/>
<defs>
<linearGradient id="paint0_linear_9884_1152" x1="110.601" y1="76.7169" x2="110.601" y2="197.635" gradientUnits="userSpaceOnUse">
<stop stop-color="#FE8A79"/>
<stop offset="1" stop-color="#A2A99A"/>
</linearGradient>
<linearGradient id="paint1_linear_9884_1152" x1="110.589" y1="0" x2="110.598" y2="138.531" gradientUnits="userSpaceOnUse">
<stop stop-color="#FD9277"/>
<stop offset="1" stop-color="#E6605B"/>
</linearGradient>
</defs>
</svg>
