<svg xmlns="http://www.w3.org/2000/svg" fill="none" viewBox="0 0 222 256"><path fill="#363333" fill-rule="evenodd" d="M94.451 102.408c3.229-6.692 6.555-13.344 10.457-19.757.727-1.195 1.51-2.361 2.693-3.261 2.159-1.642 4.694-1.5 6.616.365.868.844 1.468 1.839 2.049 2.846 7.923 13.739 14.326 28.042 20.173 42.551q.091.23.172.465l.012.031c.243.69.49 1.387 1.242 1.891q.104-.03.216-.053c.164-.037.332-.076.474-.152l.318-.171c.549-.294 1.102-.589 1.599-.943 9.165-6.516 17.301-13.828 22.949-23.093.716-1.174.879-2.299.655-3.568-.61-3.468-1.544-6.849-3.169-10.068-.757-1.5-.61-2.898.495-4.308 1.2-1.531 1.997-3.278 2.652-5.049.986-2.664-.195-4.942-1.364-7.2a31 31 0 0 1-.956-1.953c-.514-1.19-.785-2.102-.251-3.335.957-2.204 1.843-4.48.635-6.87-1.123-2.221-2.52-4.303-4.046-6.322-.786-1.041-1.833-1.661-3.49-1.86-.047 3.497-.708 6.866-1.368 10.232l-.258 1.323c-.217 1.128.554 1.881 1.798 2.294 1.009.336 2.012.738 2.916 1.252.993.565 1.81 1.338 1.336 2.536-.482 1.219-1.407 1.987-2.948 2.05-1.836.073-2.739-.763-3.249-2.275-.593-1.757-1.631-1.933-3.069-.7-3.309 2.834-7.175 4.013-11.538 2.378-5.462-2.049-7.794-6.366-9.382-11.074-.117-.345-.036-.755.041-1.142l.038-.199c.09-.497.201-.992.312-1.487.2-.891.399-1.782.48-2.682.082-.917.262-1.831.442-2.746.429-2.18.858-4.361-.033-6.578-.64-1.593-1.29-3.186-2.033-4.743-2.619-5.489-5.782-10.735-8.945-15.982-1.546-2.565-3.092-5.13-4.575-7.724a23 23 0 0 1-.435-.815c-.542-1.05-1.087-2.106-2.273-2.803-1.506-.886-2.754-.635-3.495.778-.51.972-1.034 1.94-1.557 2.907l-.001.002q-.371.684-.739 1.37c-1.984 3.69-4.166 7.291-6.347 10.893-2.547 4.204-5.095 8.409-7.327 12.755-1.975 3.847-3.305 7.827-2.914 12.112.099 1.089.245 2.175.391 3.26v.001l.003.021.053.39c.128.957.252 1.915.339 2.876.456 5.055-3.223 9.725-8.508 10.888-5.717 1.257-10.149-.78-12.739-5.897-2.014-3.976-2.767-8.177-2.778-12.51 0-.142.012-.292.025-.443.054-.616.11-1.26-.728-1.618-.728.11-1.066.565-1.394 1.006q-.082.111-.166.219l-.042.053c-1.005 1.279-2.011 2.56-2.945 3.879-6.766 9.57-8.074 19.314-1.099 29.287.68.97.627 1.88.105 2.883-1.391 2.675-2.475 5.46-2.864 8.387-.061.457-.17.915-.279 1.374-.317 1.337-.637 2.686.214 4.07 5.887 9.579 13.982 17.438 23.732 24.021 1.598 1.079 2.635.838 3.327-.876 3.148-7.808 6.62-15.503 10.345-23.389m3.825 11.508c-1.112 2.272-2.224 4.544-3.29 6.833-3.927 8.443-7.835 16.894-9.562 25.974l-.07.348c-.178.854-.362 1.74.278 2.426.52.559.89 1.187 1.258 1.811.305.518.608 1.032.995 1.503 4.158 5.061 8.32 10.122 12.582 15.115q.495.584.984 1.173c1.334 1.602 2.672 3.209 4.35 4.57 2.776 2.251 5.836 2.416 8.816.426a14 14 0 0 0 2.725-2.363c5.926-6.713 11.566-13.609 17.012-20.634 1.112-1.434 1.36-2.882 1.045-4.473-.868-4.395-2.204-8.686-3.96-12.865-4.998-11.892-10.626-23.556-16.687-35.05l-.156-.296-.139-.266c-1.146-2.182-2.321-4.419-4.149-6.668-3.6 5.65-6.474 11.334-9.419 17.159l-1.092 2.158a801 801 0 0 1-1.521 3.119m58.469 66.932c-.103-1.098-.21-2.233-.455-3.405-3.972 3.562-7.159 7.475-10.316 11.352-2.084 2.559-4.155 5.102-6.43 7.518a12 12 0 0 1 .348.251c.175.129.296.219.432.285.389.191.786.38 1.202.516 6.116 2.014 12.38 2.845 18.919 2.186 9.265-.932 15.753-5.386 20.264-12.318 4.515-6.939 5.291-14.49 4.057-22.265q-.073-.47-.143-.943l-.001-.001c-.256-1.717-.514-3.453-1.247-5.079-1.02.077-1.726.511-2.417.935l-.067.041-.046.028q-2.124 1.302-4.24 2.615l-.003.001c-2.867 1.775-5.735 3.551-8.647 5.267-1.435.845-1.794 1.828-1.689 3.265.352 4.818-.819 9.413-3.039 13.788-.791 1.56-1.762 3.079-3.368 4.317-.921-.825-1.341-1.736-1.845-2.828l-.066-.145-.068-.147c-.797-1.641-.961-3.384-1.135-5.234m-93.262-.19c-.175 1.841-.34 3.577-1.14 5.21l-.135.291c-.505 1.087-.926 1.994-1.85 2.815-1.614-1.232-2.588-2.745-3.382-4.297-2.229-4.355-3.404-8.93-3.05-13.727.105-1.43-.256-2.408-1.696-3.25-2.923-1.708-5.802-3.476-8.68-5.243l-.002-.001-.002-.001a856 856 0 0 0-4.37-2.671c-.692-.422-1.402-.854-2.425-.931-.736 1.619-.996 3.347-1.253 5.057q-.07.471-.144.939c-1.239 7.74-.46 15.257 4.073 22.165 4.528 6.901 11.042 11.335 20.342 12.263 6.563.656 12.852-.172 18.991-2.176a10 10 0 0 0 1.207-.514c.136-.066.258-.155.433-.284.097-.07.21-.153.35-.25-2.284-2.405-4.363-4.937-6.455-7.484-3.169-3.859-6.368-7.755-10.356-11.301-.245 1.167-.352 2.297-.456 3.39" clip-rule="evenodd"/><path fill="#FFC94A" d="M140.324 196.849c.389.191.786.38 1.202.516 6.116 2.014 12.38 2.845 18.919 2.186 9.265-.932 15.753-5.386 20.264-12.318 4.515-6.939 5.291-14.49 4.057-22.265q-.073-.47-.143-.943l-.001-.001c-.256-1.717-.514-3.453-1.247-5.079-1.02.077-1.726.511-2.417.935l-.067.041-.046.028q-2.124 1.302-4.24 2.615l-.003.001c-2.867 1.775-5.735 3.551-8.647 5.267-1.435.845-1.794 1.828-1.689 3.265.352 4.818-.819 9.413-3.039 13.788-.791 1.56-1.762 3.079-3.368 4.317-.921-.825-1.341-1.736-1.845-2.828l-.066-.145-.068-.147c-.797-1.641-.961-3.384-1.135-5.234-.103-1.098-.21-2.233-.455-3.405-3.972 3.562-7.159 7.475-10.316 11.352-2.084 2.559-4.155 5.102-6.43 7.518a12 12 0 0 1 .348.251c.175.129.296.219.432.285m-60.357-.262c-.39.19-.79.378-1.207.514-6.139 2.004-12.428 2.832-18.991 2.176-9.3-.928-15.814-5.362-20.342-12.263-4.533-6.908-5.312-14.425-4.073-22.165q.074-.468.144-.939c.257-1.71.517-3.438 1.253-5.057 1.023.077 1.733.509 2.426.931l.113.069q2.132 1.295 4.255 2.602h.001l.002.001.001.001c2.879 1.767 5.758 3.535 8.68 5.243 1.441.842 1.802 1.82 1.697 3.25-.354 4.797.821 9.372 3.05 13.727.794 1.552 1.768 3.065 3.381 4.297.925-.821 1.346-1.728 1.852-2.815l.135-.291c.8-1.633.964-3.369 1.139-5.21.104-1.093.21-2.223.456-3.39 3.988 3.546 7.187 7.442 10.356 11.301 2.092 2.547 4.17 5.079 6.455 7.484-.14.097-.253.18-.35.25a3 3 0 0 1-.433.284"/><path fill="url(#paint0_linear_9884_1152)" d="M94.987 120.749c-3.927 8.443-7.836 16.894-9.563 25.974l-.07.348c-.178.854-.362 1.74.278 2.426.52.559.89 1.187 1.258 1.811.305.518.608 1.032.995 1.503 4.158 5.061 8.32 10.122 12.582 15.115q.495.584.984 1.173c1.334 1.602 2.672 3.209 4.35 4.57 2.776 2.251 5.836 2.416 8.816.426a14 14 0 0 0 2.725-2.363c5.926-6.713 11.566-13.609 17.012-20.634 1.112-1.434 1.36-2.882 1.045-4.473-.868-4.395-2.204-8.686-3.96-12.865-4.998-11.892-10.626-23.556-16.687-35.05l-.156-.296-.139-.266c-1.146-2.182-2.321-4.419-4.149-6.668-3.6 5.65-6.474 11.334-9.419 17.159l-1.092 2.158a801 801 0 0 1-1.521 3.119c-1.112 2.272-2.224 4.544-3.29 6.833"/><path fill="url(#paint1_linear_9884_1152)" d="M94.451 102.408c3.229-6.692 6.555-13.344 10.457-19.757.727-1.195 1.51-2.361 2.693-3.261 2.159-1.642 4.694-1.5 6.616.365.868.844 1.468 1.839 2.049 2.846 7.923 13.739 14.326 28.042 20.173 42.551q.091.23.172.465l.012.031c.243.69.49 1.387 1.242 1.891q.104-.03.216-.053c.164-.037.332-.076.474-.152l.318-.171c.549-.294 1.102-.589 1.599-.943 9.165-6.516 17.301-13.828 22.949-23.093.716-1.174.879-2.299.655-3.568-.61-3.468-1.544-6.849-3.169-10.068-.757-1.5-.61-2.898.495-4.308 1.2-1.531 1.997-3.278 2.652-5.049.986-2.664-.195-4.942-1.364-7.2a31 31 0 0 1-.956-1.953c-.514-1.19-.785-2.102-.251-3.335.957-2.204 1.843-4.48.635-6.87-1.123-2.221-2.52-4.303-4.046-6.322-.786-1.041-1.833-1.661-3.49-1.86-.047 3.497-.708 6.866-1.368 10.232l-.258 1.323c-.217 1.128.554 1.881 1.798 2.294 1.009.336 2.012.738 2.916 1.252.993.565 1.81 1.338 1.336 2.536-.482 1.219-1.407 1.987-2.948 2.05-1.836.073-2.739-.763-3.249-2.275-.593-1.757-1.631-1.933-3.069-.7-3.309 2.834-7.175 4.013-11.538 2.378-5.462-2.049-7.794-6.366-9.382-11.074-.117-.345-.036-.755.041-1.142l.038-.199c.09-.497.201-.992.312-1.487.2-.891.399-1.782.48-2.682.082-.917.262-1.831.442-2.746.429-2.18.858-4.361-.033-6.578-.64-1.593-1.29-3.186-2.033-4.743-2.619-5.489-5.782-10.735-8.945-15.982-1.546-2.565-3.092-5.13-4.575-7.724a23 23 0 0 1-.435-.815c-.542-1.05-1.087-2.106-2.273-2.803-1.506-.886-2.754-.635-3.495.778-.51.972-1.034 1.94-1.557 2.907l-.001.002q-.371.684-.739 1.37c-1.984 3.69-4.166 7.291-6.347 10.893-2.547 4.204-5.095 8.409-7.327 12.755-1.975 3.847-3.305 7.827-2.914 12.112.099 1.089.245 2.175.391 3.26v.001l.003.021.053.39c.128.957.252 1.915.339 2.876.456 5.055-3.223 9.725-8.508 10.888-5.717 1.257-10.149-.78-12.739-5.897-2.014-3.976-2.767-8.177-2.778-12.51 0-.142.012-.292.025-.443.054-.616.11-1.26-.728-1.618-.728.11-1.066.565-1.394 1.006q-.082.111-.166.219l-.042.053c-1.005 1.279-2.011 2.56-2.945 3.879-6.766 9.57-8.074 19.314-1.099 29.287.68.97.627 1.88.105 2.883-1.391 2.675-2.475 5.46-2.864 8.387-.061.457-.17.915-.279 1.374-.317 1.337-.637 2.686.214 4.07 5.887 9.579 13.982 17.438 23.732 24.021 1.598 1.079 2.635.838 3.327-.876 3.148-7.808 6.62-15.503 10.345-23.389"/><path fill="#ACB0A7" fill-rule="evenodd" d="m89.85 57.787.003.021zm89.254 162.711c10.237-9.995 18.063-24.234 19.58-29.883 1.346-5.015 1.254-10.092 1.042-15.15-.227-5.41 1.424-10.213 4.621-14.745 1.854-2.629 3.503-5.376 5.143-8.118.989-1.653.473-2.421-1.567-2.314-3.885.203-7.733.681-11.355 2.051-2.251.85-2.844 1.679-2.632 3.791.12 1.191.276 2.38.432 3.569v.001l.063.477c.146 1.114.287 2.228.395 3.345.998 10.391-.659 20.256-7.494 29.071-4.664 6.015-10.485 10.762-18.525 12.974-6.472 1.78-13.087 1.666-19.684.719-5.783-.831-11.225-2.569-16.068-5.561-2.541-1.57-2.826-3.062-1.11-5.302.761-.992 1.547-1.969 2.334-2.947l.001-.001.287-.356c.67-.832 1.337-1.666 1.986-2.51 7.296-9.499 15.112-18.618 25.092-26.078 7.416-5.543 15.231-10.598 23.926-14.512 4.964-2.235 10.061-4.122 15.539-5.114 1.49-.27 2.18-.874 1.844-2.35-.306-1.347-.833-2.597-1.462-3.828-.812-1.591-.772-3.077.129-4.697l.144-.259c2.905-5.226 5.812-10.454 7.857-16.021.477-1.298.386-2.344-.677-3.237-.754-.633-1.519-.303-2.251.013-.191.082-.379.163-.564.226-1.355.459-2.701.937-4.048 1.415-1.729.613-3.458 1.227-5.203 1.802-3.084 1.016-4.106.304-3.969-2.631l.002-.078.001-.027c.001-.078.002-.156.015-.233.236-1.463.453-2.928.668-4.394l.043-.292v-.001c.491-3.352.982-6.703 1.699-10.027.801-3.71 1.489-7.469 1.428-11.23-.05-3.1-.058-6.142.363-9.234.075-.548.116-1.135.158-1.73v-.003c.036-.511.072-1.03.131-1.534.005-.05-.047-.106-.131-.194q-.075-.077-.174-.196c-.887.464-1.541 1.148-2.189 1.826l-.015.016-.069.071-.037.04-.042.043-.032.033-.152.157c-9.032 9.245-16.718 19.345-24.154 29.613l-.579.8c-3.825 5.288-7.658 10.587-12.785 15.025-4.837 4.186-10.036 7.994-15.375 11.66l-.079.054-.072.049c-.655.444-1.273.863-1.105 1.794.27 1.49.507 2.985.745 4.48v.001l.001.009c.178 1.118.355 2.236.546 3.353.666 3.888.234 7.433-2.355 10.918-2.428 3.271-4.715 6.628-7.001 9.987a635 635 0 0 1-3.128 4.564 45.7 45.7 0 0 1-8.682 9.398c-5.273 4.314-11.649 4.884-17.714 1.487-3.496-1.958-6.205-4.685-8.541-7.662-4.486-5.716-8.534-11.679-12.583-17.643l-.462-.68c-1.727-2.545-2.856-5.139-2.376-8.153.112-.697.205-1.398.297-2.099l.019-.14c.189-1.435.377-2.869.71-4.276.67-2.825.411-4.833-2.732-6.808-10.336-6.493-18.797-14.571-25.414-24.269-6.687-9.801-13.878-19.347-22.277-28.11q-.5-.522-.99-1.053l-.066-.07c-1.451-1.562-2.913-3.133-4.813-4.363-.594.551-.746 1.065-.725 1.654.028.764.042 1.526.055 2.29.028 1.539.056 3.078.199 4.625.432 4.676 1.224 9.306 2.015 13.935.482 2.821.964 5.642 1.365 8.473a63 63 0 0 0 .53 3.03c.382 1.99.764 3.979.762 6.009-.002 1.979-1.01 2.656-3.182 2.037-.987-.282-1.943-.649-2.899-1.017l-.212-.081a50 50 0 0 0-1.495-.555c-.91-.318-1.794-.694-2.678-1.071-1.582-.675-3.166-1.35-4.91-1.688-1.28-.247-1.794.218-1.871 1.275-.08 1.097.285 2.113.651 3.132l.119.331c1.68 4.749 4.248 9.159 6.806 13.555l.108.186c1.463 2.513 2.19 4.854.47 7.45-.29.435-.437.951-.581 1.457l-.001.002-.016.056q-.034.122-.07.241c-.698 2.331-.43 2.753 2.113 3.388.434.108.87.205 1.308.302l.001.001h.002q.456.1.91.206c9.838 2.314 18.401 6.855 26.6 12.003 9.561 6.002 18.419 12.698 25.491 21.053 3.432 4.055 6.797 8.155 10.161 12.255l.001.001.001.001v.001l.002.002.55.67q1.923 2.345 3.854 4.686c2.145 2.599 1.947 3.808-.986 5.775-.607.408-1.265.767-1.938 1.084-7.174 3.378-14.787 4.934-22.953 4.921-10.092-.017-18.488-3.394-25.127-9.818-10.168-9.84-13.736-21.611-11.576-34.766q.103-.617.21-1.233c.333-1.925.665-3.847.637-5.815-.023-1.5-.7-2.421-2.257-2.983-2.671-.965-5.436-1.684-8.268-2.027-1.34-.163-2.71-.136-4.114-.097l-.281.008-.256.007a64 64 0 0 1-1.814.032c.255 1.334.778 2.354 1.413 3.32.483.734.987 1.458 1.492 2.182.767 1.101 1.535 2.203 2.226 3.342.441.726.92 1.44 1.404 2.152l.208.305c1.779 2.614 3.561 5.232 3.717 8.449l.004.087.082 1.718c.192 4.02.367 8.042.413 12.065.111 9.718 8.686 24.664 20.624 36.678 19.396 19.519 39.324 27.123 68.695 27.096 29.302-.027 48.824-7.882 68.503-27.096" clip-rule="evenodd"/><path fill="#363333" fill-rule="evenodd" d="M13.4 175.951c-.086-4-.922-7.838-3.356-11.305A261 261 0 0 1 6 158.7c-2.03-3.07-3.876-6.221-5.367-9.531-1.684-3.739-.116-7.022 5.93-6.74 1.21.057 2.418.179 3.625.3q.56.057 1.121.111c.47.045 1.058.069 1.15-.359.086-.397.213-.786.34-1.174.386-1.177.768-2.345-.022-3.698q-.634-1.084-1.27-2.167v-.001l-.003-.004c-3.19-5.432-6.384-10.868-8.727-16.653-.688-1.702-1.096-3.433-1.287-5.257-.573-5.445 5.207-10.29 12.546-7.882 1.082.355 2.166.704 3.32 1.075l.001.001 1.696.547a327 327 0 0 0-.79-3.28c-.57-2.34-1.126-4.623-1.581-6.92-1.807-9.11-3.257-18.26-2.866-27.547.09-2.168.418-4.422 3.002-5.462 2.512-1.01 4.913-.321 6.966 1.118 4.668 3.273 8.691 7.133 12.504 11.16 4.345 4.59 8.33 9.419 12.012 14.444.227.31.477.605.766.945q.222.26.475.565c1.37-2.232 2.147-4.08.676-6.644-5.32-9.266-4.491-18.64.325-27.865 4.259-8.156 10.749-14.745 18.641-20.307a13 13 0 0 1 2.946-1.554c1.757-.655 3.415-.476 4.845.582 1.353 1.003 1.627 2.408 1.207 3.866-.388 1.352-.804 2.697-1.22 4.043h-.001a174 174 0 0 0-1.428 4.773c-1.26 4.524-.771 8.947 1.245 13.236.572 1.217 1.237 2.612 3.095 2.184 1.739-.4 2.184-1.814 2.043-3.255-.158-1.622-.436-3.24-.763-4.842-1.116-5.45.533-10.494 2.781-15.47 2.552-5.647 5.695-11.04 8.839-16.433 2.087-3.581 4.175-7.163 6.09-10.819 1.66-3.172 3.338-6.34 5.075-9.48 1.298-2.348 3.185-4.086 6.36-4.289 3.088-.196 5.037 1.3 6.455 3.488 2.013 3.105 3.723 6.344 5.432 9.583 1.042 1.974 2.084 3.947 3.194 5.891l1.125 1.965.008.014c3.598 6.28 7.195 12.56 10.153 19.115 2.806 6.22 4.119 12.515 2.279 19.154-.252.908-.212 1.92-.084 2.86.171 1.246.893 2.31 2.392 2.546 1.484.234 2.181-.801 2.655-1.8 1.144-2.407 1.722-4.946 1.909-7.546.294-4.053-.959-7.878-2.21-11.696l-.126-.386-.112-.342c-.356-1.09-.661-2.177-.691-3.313-.083-3.152 2.41-4.753 5.831-3.744 2.461.727 4.338 2.242 6.19 3.737l.079.063c8.091 6.53 14.555 14.06 17.737 23.481 2.656 7.862 2.472 15.628-2.101 22.939-1.41 2.252-.587 3.955.484 6.17l.182.376c.496-.619.974-1.206 1.437-1.774l.001-.001.001-.001c.954-1.173 1.842-2.264 2.691-3.378 6.295-8.27 13.284-16.002 22.088-22.324a8.6 8.6 0 0 1 1.943-1.058c4.041-1.534 7.329.154 7.611 4.186.35 5.01.097 10.033-.49 15.034-.939 8.003-2.349 15.938-4.669 24.034.635-.204 1.236-.401 1.815-.591h.001c1.182-.388 2.274-.747 3.38-1.072 7.77-2.287 14.024 2.598 12.313 9.682-1.136 4.704-3.509 8.992-5.877 13.273l-.002.004q-.4.72-.795 1.44a442 442 0 0 1-4.434 7.875c-.692 1.203-.266 2.295.159 3.381.11.283.221.566.311.85.16.503.666.484 1.147.465.118-.004.234-.009.343-.005.902.026 1.798-.069 2.694-.165 1.253-.133 2.507-.267 3.78-.066 4.006.632 5.573 3.068 4.116 6.439-2.027 4.692-5 8.94-7.966 13.178l-.024.034-.637.912c-2.783 3.985-4.511 8.151-4.427 12.902.044 2.509-.055 5.02-.154 7.53v.001c-.041 1.043-1.165 5.845-2.437 10.214C194.561 229.414 156.257 256 110.601 256s-83.96-26.586-94.398-62.429c-1.456-5.002-2.89-10.464-2.833-13.251.03-1.458.06-2.917.03-4.369m185.284 14.664c-1.517 5.649-9.343 19.888-19.58 29.883-19.679 19.214-39.201 27.069-68.503 27.096-29.371.027-49.299-7.577-68.695-27.096-11.938-12.014-20.513-26.96-20.624-36.678-.046-4.023-.221-8.045-.413-12.065l-.082-1.718-.004-.087c-.156-3.217-1.938-5.835-3.717-8.449l-.208-.305a51 51 0 0 1-1.404-2.152c-.691-1.139-1.459-2.241-2.226-3.342a98 98 0 0 1-1.492-2.182c-.635-.966-1.158-1.986-1.413-3.32.611 0 1.216-.015 1.814-.032l.255-.007.282-.008c1.404-.039 2.774-.066 4.114.097 2.832.343 5.597 1.062 8.268 2.027 1.556.562 2.234 1.483 2.257 2.983.028 1.968-.304 3.89-.637 5.815q-.107.617-.21 1.233c-2.16 13.155 1.408 24.926 11.576 34.766 6.639 6.424 15.035 9.801 25.127 9.818 8.166.013 15.78-1.543 22.953-4.921a15 15 0 0 0 1.938-1.084c2.933-1.967 3.13-3.176.986-5.775q-1.93-2.34-3.854-4.686l-.55-.67-.001-.002v-.001l-.002-.001v-.001c-3.365-4.1-6.73-8.2-10.162-12.255-7.072-8.355-15.93-15.051-25.49-21.053-8.2-5.148-16.763-9.689-26.6-12.003a70 70 0 0 0-.91-.206h-.003v-.001h-.001a52 52 0 0 1-1.308-.302c-2.543-.635-2.81-1.057-2.113-3.388q.036-.119.07-.241l.016-.056v-.002c.145-.506.293-1.022.582-1.457 1.72-2.596.993-4.937-.47-7.45l-.108-.186c-2.558-4.396-5.125-8.806-6.806-13.555l-.119-.331c-.366-1.019-.732-2.035-.651-3.132.077-1.057.59-1.522 1.871-1.275 1.745.338 3.328 1.013 4.91 1.688.884.377 1.767.753 2.678 1.071.502.175.999.364 1.495.555l.212.081c.956.368 1.912.735 2.899 1.017 2.171.619 3.18-.058 3.182-2.037.002-2.03-.38-4.019-.762-6.009a63 63 0 0 1-.53-3.03c-.401-2.831-.883-5.652-1.365-8.473-.791-4.63-1.583-9.26-2.015-13.935-.143-1.547-.171-3.086-.199-4.626-.013-.763-.027-1.525-.055-2.289-.021-.589.13-1.103.725-1.654 1.9 1.23 3.362 2.801 4.813 4.363l.066.07q.491.531.99 1.054c8.4 8.762 15.59 18.308 22.277 28.109 6.617 9.698 15.078 17.776 25.414 24.269 3.143 1.975 3.401 3.983 2.732 6.808-.333 1.407-.521 2.841-.71 4.276l-.019.14a77 77 0 0 1-.296 2.099c-.481 3.014.648 5.608 2.375 8.153l.462.68c4.049 5.964 8.097 11.927 12.583 17.643 2.336 2.977 5.044 5.704 8.541 7.662 6.065 3.397 12.441 2.827 17.714-1.487a45.7 45.7 0 0 0 8.682-9.398c1.052-1.516 2.09-3.04 3.128-4.564 2.286-3.359 4.573-6.716 7.001-9.987 2.589-3.485 3.021-7.03 2.355-10.918-.191-1.117-.368-2.235-.546-3.353l-.001-.009v-.001c-.238-1.495-.475-2.99-.745-4.48-.168-.931.45-1.35 1.105-1.794l.072-.049.079-.054c5.339-3.666 10.538-7.474 15.375-11.66 5.127-4.438 8.96-9.737 12.785-15.025l.579-.8c7.436-10.268 15.122-20.368 24.154-29.613l.152-.157.032-.033.042-.043.037-.04.069-.071.015-.016c.648-.678 1.302-1.362 2.189-1.826q.099.119.174.196c.084.088.136.144.131.194-.059.505-.095 1.023-.131 1.534v.002c-.042.596-.083 1.183-.158 1.731-.421 3.092-.413 6.134-.363 9.234.061 3.761-.627 7.52-1.428 11.23-.717 3.324-1.208 6.675-1.699 10.027v.001l-.043.292a310 310 0 0 1-.668 4.394 1.5 1.5 0 0 0-.015.233l-.001.027-.002.078c-.137 2.935.885 3.647 3.969 2.631 1.745-.575 3.474-1.189 5.203-1.802 1.347-.478 2.693-.956 4.048-1.415.185-.063.373-.144.564-.226.732-.316 1.497-.646 2.251-.013 1.063.893 1.154 1.939.677 3.237-2.045 5.567-4.952 10.795-7.857 16.021l-.144.259c-.901 1.62-.941 3.106-.129 4.697.629 1.231 1.156 2.481 1.462 3.828.336 1.476-.354 2.08-1.844 2.35-5.478.992-10.575 2.879-15.539 5.114-8.695 3.914-16.51 8.969-23.926 14.512-9.98 7.46-17.796 16.579-25.092 26.078-.649.844-1.316 1.678-1.986 2.51l-.287.356-.001.001c-.787.978-1.573 1.955-2.334 2.947-1.716 2.24-1.431 3.732 1.11 5.302 4.843 2.992 10.285 4.73 16.068 5.561 6.597.947 13.212 1.061 19.684-.719 8.04-2.212 13.861-6.959 18.525-12.974 6.835-8.815 8.492-18.68 7.494-29.071a99 99 0 0 0-.395-3.345l-.063-.477v-.001a120 120 0 0 1-.432-3.569c-.212-2.112.381-2.941 2.632-3.791 3.622-1.37 7.47-1.848 11.355-2.051 2.04-.107 2.556.661 1.567 2.314-1.64 2.742-3.289 5.489-5.143 8.118-3.197 4.532-4.848 9.335-4.621 14.745.212 5.058.304 10.135-1.042 15.15M104.908 82.651c-3.902 6.413-7.228 13.065-10.457 19.757-3.725 7.886-7.197 15.581-10.345 23.389-.692 1.714-1.729 1.955-3.327.876-9.75-6.583-17.845-14.442-23.732-24.021-.851-1.384-.531-2.733-.214-4.07.11-.46.218-.917.279-1.374.39-2.926 1.473-5.712 2.864-8.387.522-1.004.574-1.912-.105-2.883-6.975-9.973-5.667-19.716 1.1-29.287.933-1.32 1.94-2.6 2.944-3.879l.042-.053q.084-.108.166-.22c.328-.44.666-.896 1.394-1.005.838.357.782 1.002.728 1.618-.013.151-.026.3-.025.444.011 4.332.764 8.533 2.778 12.51 2.59 5.115 7.022 7.153 12.74 5.896 5.284-1.163 8.963-5.833 8.507-10.888a65 65 0 0 0-.34-2.876l-.052-.39-.002-.02v-.002a75 75 0 0 1-.392-3.26c-.391-4.285.94-8.265 2.914-12.112 2.232-4.346 4.78-8.55 7.327-12.755 2.181-3.602 4.363-7.203 6.347-10.894q.368-.684.739-1.369l.001-.002c.523-.967 1.047-1.935 1.557-2.907.741-1.413 1.989-1.664 3.495-.778 1.186.697 1.731 1.753 2.273 2.803.142.274.283.548.435.815 1.483 2.593 3.029 5.159 4.575 7.724 3.163 5.247 6.326 10.494 8.945 15.982.743 1.557 1.393 3.15 2.033 4.743.891 2.217.462 4.398.033 6.578-.18.915-.36 1.83-.442 2.746-.081.9-.28 1.79-.48 2.682-.111.495-.222.99-.312 1.487l-.038.199c-.077.387-.158.797-.041 1.142 1.588 4.708 3.92 9.025 9.382 11.074 4.363 1.635 8.229.456 11.538-2.379 1.438-1.232 2.476-1.056 3.069.7.51 1.513 1.413 2.35 3.249 2.276 1.541-.063 2.466-.831 2.948-2.05.474-1.198-.343-1.97-1.336-2.536-.904-.514-1.907-.916-2.916-1.252-1.244-.413-2.015-1.166-1.798-2.294l.258-1.323c.66-3.366 1.321-6.735 1.368-10.232 1.657.199 2.704.819 3.49 1.86 1.526 2.02 2.923 4.1 4.046 6.322 1.208 2.39.322 4.666-.635 6.87-.534 1.233-.263 2.146.251 3.335.283.656.619 1.304.956 1.954 1.169 2.257 2.35 4.535 1.364 7.2-.655 1.77-1.452 3.517-2.652 5.048-1.105 1.41-1.252 2.808-.495 4.308 1.625 3.22 2.559 6.6 3.169 10.068.224 1.269.061 2.394-.655 3.568-5.648 9.265-13.784 16.577-22.949 23.093-.497.354-1.05.649-1.599.943l-.318.171c-.142.076-.31.115-.474.152a3 3 0 0 0-.216.053c-.752-.504-.999-1.201-1.242-1.891l-.012-.031q-.08-.235-.172-.465c-5.847-14.509-12.25-28.812-20.173-42.55-.581-1.008-1.181-2.004-2.049-2.847-1.922-1.865-4.457-2.007-6.616-.365-1.183.9-1.966 2.066-2.693 3.26m-19.484 64.072c1.727-9.08 5.635-17.531 9.563-25.974 1.065-2.289 2.177-4.561 3.289-6.833a801 801 0 0 0 1.521-3.119l1.092-2.158c2.945-5.825 5.819-11.51 9.419-17.159 1.828 2.249 3.003 4.486 4.149 6.668l.139.266.156.296c6.061 11.494 11.689 23.158 16.687 35.05 1.756 4.179 3.092 8.47 3.96 12.865.315 1.591.067 3.039-1.045 4.473-5.446 7.025-11.086 13.921-17.012 20.634a14 14 0 0 1-2.725 2.363c-2.98 1.99-6.04 1.825-8.816-.426-1.678-1.361-3.016-2.968-4.35-4.57q-.489-.589-.984-1.173c-4.261-4.993-8.424-10.054-12.582-15.115-.387-.471-.69-.985-.995-1.503-.368-.624-.738-1.252-1.258-1.811-.64-.686-.456-1.572-.278-2.426q.037-.175.07-.348m56.102 50.642a9 9 0 0 1-1.202-.516c-.136-.066-.257-.156-.432-.285l-.128-.094-.22-.157c2.275-2.416 4.346-4.959 6.43-7.518 3.157-3.877 6.344-7.79 10.316-11.352.245 1.172.352 2.307.455 3.405.174 1.85.338 3.593 1.135 5.234l.068.147.066.145c.504 1.092.924 2.003 1.845 2.828 1.606-1.238 2.577-2.757 3.368-4.317 2.22-4.375 3.391-8.97 3.039-13.788-.105-1.437.254-2.42 1.689-3.265 2.912-1.716 5.78-3.492 8.647-5.267l.003-.001q2.116-1.313 4.24-2.615l.046-.028.067-.041c.691-.424 1.397-.858 2.417-.935.733 1.626.991 3.362 1.247 5.079l.001.001q.07.473.143.943c1.234 7.775.458 15.326-4.057 22.265-4.511 6.932-10.999 11.386-20.264 12.318-6.539.659-12.803-.172-18.919-2.186M78.76 197.1a10 10 0 0 0 1.207-.514c.136-.066.258-.155.433-.284.097-.07.21-.153.35-.25-2.284-2.405-4.363-4.937-6.455-7.484-3.169-3.859-6.368-7.755-10.356-11.301-.245 1.167-.352 2.297-.456 3.39-.175 1.841-.34 3.577-1.14 5.21l-.135.291c-.505 1.087-.926 1.994-1.85 2.815-1.614-1.232-2.588-2.745-3.382-4.297-2.229-4.355-3.404-8.93-3.05-13.727.105-1.43-.256-2.408-1.696-3.25-2.923-1.708-5.802-3.476-8.68-5.243l-.002-.001-.002-.001a856 856 0 0 0-4.37-2.671c-.692-.422-1.402-.854-2.425-.931-.736 1.619-.996 3.347-1.253 5.057q-.07.471-.144.939c-1.239 7.74-.46 15.257 4.073 22.165 4.528 6.901 11.042 11.335 20.342 12.263 6.563.656 12.852-.172 18.991-2.176" clip-rule="evenodd"/><path fill="#363333" d="M90.595 226.291c-1.477-1.189-2.629-2.397-3.296-3.849-.607-1.321-.714-2.738.572-3.872 1.2-1.058 2.619-.997 4.094-.451 3.393 1.255 6.415 3.012 8.995 5.309 1.723 1.533 2.594 3.439 1.07 5.376-1.518 1.93-3.798 1.428-5.873.721-2.035-.693-3.745-1.877-5.562-3.234m31.903 3.784c2.497-.102 4.383-1.383 6.518-2.632 2.126-1.44 4.033-2.836 5.006-4.902.624-1.321.765-2.724-.523-3.867-1.172-1.038-2.652-1.157-4.1-.613-4.029 1.513-7.554 3.666-10.259 6.743-.939 1.067-1.482 2.304-.668 3.619.857 1.385 2.35 1.72 4.026 1.652"/><defs><linearGradient id="paint0_linear_9884_1152" x1="110.601" x2="110.601" y1="76.717" y2="197.635" gradientUnits="userSpaceOnUse"><stop stop-color="#FE8A79"/><stop offset="1" stop-color="#A2A99A"/></linearGradient><linearGradient id="paint1_linear_9884_1152" x1="110.589" x2="110.598" y1="0" y2="138.531" gradientUnits="userSpaceOnUse"><stop stop-color="#FD9277"/><stop offset="1" stop-color="#E6605B"/></linearGradient></defs></svg>