<svg xmlns="http://www.w3.org/2000/svg" fill="none" viewBox="0 0 288 256"><path fill="#0C6CF3" d="M255.54 255.821c-38.3-4.188-72.234-13.139-99.649-27.603a9.54 9.54 0 0 1-3.511-3.15 9.57 9.57 0 0 1-.835-9.116 9.56 9.56 0 0 1 2.881-3.738c26.611-20.825 42.249-47.651 42.249-79.414 0-25.646-14.217-46.442-53.062-46.442S90.55 107.154 90.55 132.8c0 31.763 15.653 58.618 42.249 79.414a9.56 9.56 0 0 1 3.624 8.403 9.6 9.6 0 0 1-1.577 4.451 9.54 9.54 0 0 1-3.512 3.15c-27.414 14.435-61.348 23.415-99.648 27.603-23.28 2.548-39.521-22.667-27.76-42.974L118.812 14.313c11.058-19.084 38.53-19.084 49.573 0l114.914 198.534c11.747 20.307-4.48 45.522-27.759 42.974m-104.216-80.234c.316-4.044 1.738-13.039 8.531-19.026 6.907-6.131 17.376-7.311 21.785-7.541a1.91 1.91 0 0 1 2.01 2.015c-.301 4.044-1.737 13.039-8.516 19.04-6.921 6.117-17.405 7.311-21.799 7.541a1.9 1.9 0 0 1-1.892-1.236 1.9 1.9 0 0 1-.119-.793m-15.423 0a1.9 1.9 0 0 1-1.222 1.896 1.9 1.9 0 0 1-.788.119c-4.409-.216-14.878-1.439-21.8-7.527-6.778-6.001-8.2-14.996-8.516-19.026a1.9 1.9 0 0 1 .546-1.472 1.9 1.9 0 0 1 1.465-.557c4.408.216 14.877 1.439 21.799 7.541 6.778 5.987 8.2 14.982 8.516 19.026"/></svg>