<svg xmlns="http://www.w3.org/2000/svg" fill="none" viewBox="0 0 287 256"><path fill="#0C6CF3" d="M255.345 255.821c-38.271-4.188-72.179-13.139-99.573-27.603a9.5 9.5 0 0 1-3.509-3.15 9.59 9.59 0 0 1-.834-9.116 9.56 9.56 0 0 1 2.879-3.738c26.59-20.825 42.217-47.651 42.217-79.414 0-25.646-14.206-46.442-53.022-46.442S90.481 107.154 90.481 132.8c0 31.763 15.641 58.618 42.217 79.414a9.55 9.55 0 0 1 2.878 3.738 9.59 9.59 0 0 1-.833 9.116 9.54 9.54 0 0 1-3.509 3.15c-27.394 14.435-61.302 23.415-99.573 27.603-23.26 2.548-39.49-22.667-27.738-42.974L118.721 14.313c11.049-19.084 38.5-19.084 49.535 0l114.827 198.534c11.738 20.307-4.478 45.522-27.738 42.974m-104.136-80.234c.315-4.044 1.736-13.039 8.523-19.026 6.903-6.131 17.364-7.311 21.769-7.541a1.914 1.914 0 0 1 2.009 2.015c-.301 4.044-1.736 13.039-8.509 19.04-6.917 6.117-17.392 7.311-21.783 7.541a1.9 1.9 0 0 1-1.89-1.236 1.9 1.9 0 0 1-.119-.793m-15.412 0a1.9 1.9 0 0 1-.551 1.462 1.88 1.88 0 0 1-1.458.553c-4.405-.216-14.866-1.439-21.783-7.527-6.773-6.001-8.193-14.996-8.509-19.026a1.905 1.905 0 0 1 1.217-1.909 1.9 1.9 0 0 1 .792-.12c4.405.216 14.866 1.439 21.783 7.541 6.773 5.987 8.193 14.982 8.509 19.026"/></svg>