<svg xmlns="http://www.w3.org/2000/svg" fill="none" viewBox="0 0 302 262"><path fill="#8A89F1" stroke="#8A89F1" stroke-width="3" d="M92.819 110.376h-3c0 34.763 27.125 63.045 60.706 63.045s60.707-28.282 60.707-63.045h-3c0 31.018-25.8 56.228-57.707 56.228-31.906 0-57.706-25.21-57.706-56.228Zm-11.482-.32c0-8.034.872-15.68 3.268-22.77l-1.42-.48-1.422-.48c-2.494 7.38-4.374 15.372-4.374 23.73 0 41.813 32.693 75.805 73.136 75.805 40.444 0 73.137-33.992 73.137-75.805 0-8.323-1.83-16.284-4.308-23.646l-1.421.478-1.422.479c2.377 7.062 3.203 14.679 3.203 22.689 0 38.063-30.95 68.136-69.189 68.136s-69.188-30.073-69.188-68.136Zm143.685-42.174-1.306.736c6.91 12.25 10.388 26.44 10.388 41.604 0 45.281-37.364 80.781-83.579 80.781s-83.578-35.5-83.578-80.781c0-15.187 3.527-29.4 10.46-41.665l-1.305-.739-1.306-.738c-7.18 12.702-11.8 27.425-11.8 43.142 0 49.337 39.158 89.388 87.529 89.388s87.53-40.051 87.53-89.388c0-15.688-4.568-30.388-11.726-43.077zM49.936 110.139c0-23.22 7.24-44.6 20.166-61.713l-1.197-.904-1.197-.904c-13.306 17.615-21.721 39.627-21.721 63.521 0 59.493 46.76 107.803 104.538 107.803 57.78 0 104.539-48.31 104.539-107.803 0-23.873-8.363-45.87-21.651-63.479l-1.197.904-1.197.903c12.906 17.105 20.095 38.468 20.095 61.672 0 54.665-44.992 97.985-100.589 97.985-55.596 0-100.589-43.32-100.589-97.985Zm221.638.204c0 65.862-54.146 117.556-121.049 117.556-66.902 0-121.048-51.694-121.048-117.556 0-45.26 23.892-84.76 60.203-105.91l-.755-1.295-.755-1.297c-37.194 21.664-63.118 62.13-63.118 108.502 0 70.962 56.142 128.551 125.473 128.551 69.332 0 125.474-57.589 125.474-128.551 0-46.47-25.993-87.011-63.32-108.64L211.927 3l-.752 1.298c36.439 21.115 60.399 60.688 60.399 106.045Zm24.977.033c0 79.25-65.286 138.768-146.026 138.768S4.5 189.626 4.5 110.376h-3c0 84.69 66.722 150.124 149.025 150.124s149.026-65.434 149.026-150.124z"/></svg>