<svg xmlns="http://www.w3.org/2000/svg" fill="none" viewBox="0 0 301 262"><path fill="#8A89F1" stroke="#8A89F1" stroke-width="3" d="M92.804 110.376h-3c0 34.763 27.12 63.045 60.696 63.045s60.696-28.282 60.696-63.045h-3c0 31.018-25.796 56.228-57.696 56.228s-57.696-25.21-57.696-56.228Zm-11.48-.32c0-8.034.872-15.68 3.268-22.77l-1.421-.48-1.422-.48c-2.494 7.38-4.373 15.373-4.373 23.73 0 41.813 32.687 75.805 73.124 75.805s73.124-33.992 73.124-75.805c0-8.323-1.829-16.284-4.307-23.646l-1.421.478-1.422.478c2.377 7.063 3.202 14.68 3.202 22.69 0 38.064-30.944 68.136-69.176 68.136s-69.176-30.072-69.176-68.136Zm143.66-42.174-1.306.736c6.909 12.25 10.386 26.44 10.386 41.604 0 45.282-37.357 80.781-83.564 80.781s-83.564-35.499-83.564-80.781c0-15.187 3.527-29.4 10.46-41.666l-1.307-.738-1.306-.738c-7.178 12.702-11.797 27.425-11.797 43.142 0 49.337 39.151 89.388 87.514 89.388s87.514-40.051 87.514-89.388c0-15.688-4.567-30.388-11.723-43.077zM49.928 110.139c0-23.22 7.239-44.6 20.162-61.713l-1.197-.904-1.197-.904C54.393 64.233 45.98 86.245 45.98 110.139c0 59.493 46.752 107.803 104.521 107.803 57.77 0 104.521-48.31 104.521-107.803 0-23.873-8.362-45.87-21.647-63.479l-1.197.904-1.198.903c12.904 17.105 20.092 38.468 20.092 61.672 0 54.666-44.984 97.985-100.571 97.985S49.929 164.805 49.929 110.139Zm221.599.204c0 65.862-54.137 117.556-121.027 117.556S29.472 176.205 29.472 110.343c0-45.26 23.889-84.76 60.193-105.91l-.755-1.295-.755-1.297c-37.187 21.664-63.107 62.13-63.107 108.502 0 70.961 56.132 128.551 125.452 128.551s125.452-57.59 125.452-128.551c0-46.47-25.988-87.011-63.309-108.64L211.891 3l-.753 1.298c36.434 21.115 60.389 60.687 60.389 106.045Zm24.973.033c0 79.251-65.275 138.768-146 138.768s-146-59.517-146-138.768h-3c0 84.689 66.71 150.124 149 150.124s149-65.435 149-150.124z"/></svg>