<svg xmlns="http://www.w3.org/2000/svg" fill="none" viewBox="0 0 377 256"><path fill="#9756DD" d="M361.54 1.932a24.8 24.8 0 0 0-27.227 5.426l-87.949 88.357v51.147l94.623-94.93v167.857H179.535l-19.246-31.339-31.088 31.339h-.074L93.14 256h258.926a25.15 25.15 0 0 0 17.611-7.466 25.13 25.13 0 0 0 7.26-17.694V25.106c0-10.212-6.021-19.29-15.421-23.187z"/><path fill="#9756DD" d="M87.12 219.777 197.547 108.69v99.543h35.986V81.938c0-10.212-6.02-19.29-15.421-23.186a24.8 24.8 0 0 0-27.215 5.439L.293 255.914h77.426l35.987-36.137z"/></svg>