<svg xmlns="http://www.w3.org/2000/svg" fill="none" viewBox="0 0 303 256"><path fill="#fff" d="M182.383 168.697v-.071c-17.514-.375-31.606-15.379-31.606-33.864 0 18.446-14.041 33.426-31.504 33.856v.079c17.463.43 31.504 15.411 31.504 33.856-.007-18.476 14.092-33.481 31.606-33.856"/><path fill="#fff" d="M175.896 0h-48.792c-6.292 0-12.053 3.77-14.936 9.779L1.06 241.215c-3.233 6.744 1.318 14.777 8.382 14.777h56.104c6.35 0 12.154-3.84 15.009-9.927l29.843-63.622c4.056-8.652 3.991-18.869-.182-27.458L88.74 110.771c-5.84-12.024 2.287-26.418 14.915-26.402l95.799.109c12.628.016 20.726 14.425 14.864 26.433l-24.17 49.534c-2.52 5.155-2.564 11.304-.124 16.506l32.421 69.122c2.855 6.086 8.659 9.927 15.009 9.927h56.104c7.064 0 11.615-8.034 8.382-14.777L190.832 9.779C187.948 3.77 182.181 0 175.896 0"/></svg>
