<svg xmlns="http://www.w3.org/2000/svg" fill="none" viewBox="0 0 308 256"><path fill="#DFD7CE" d="M225.961 156.378c48.344 8.921 81.226 26.483 81.226 46.694 0 29.248-68.772 52.928-153.594 52.928S0 232.307 0 203.072c0-20.211 32.895-37.773 81.225-46.694 21.004 5.452 45.81 8.588 72.368 8.588 26.559 0 51.365-3.136 72.368-8.576zm-18.508-85.722c41.061 6.835 69.348 21.21 69.348 37.862 0 23.232-55.166 42.074-123.208 42.074-68.041 0-123.207-18.842-123.207-42.074 0-16.64 28.287-31.027 69.347-37.862 15.782 4.006 34.188 6.298 53.86 6.298 19.673 0 38.079-2.304 53.86-6.298M154.157 0c50.954 0 92.271 14.26 92.271 31.86 0 17.586-41.317 31.846-92.271 31.846s-92.272-14.26-92.272-31.847C61.885 14.26 103.202 0 154.157 0"/></svg>