<svg xmlns="http://www.w3.org/2000/svg" fill="none" viewBox="0 0 307 256"><path fill="#DFD7CE" d="M225.824 156.378C274.138 165.299 307 182.861 307 203.072 307 232.32 238.27 256 153.5 256S0 232.307 0 203.072c0-20.211 32.875-37.773 81.176-46.694 20.991 5.452 45.781 8.588 72.324 8.588s51.333-3.136 72.324-8.576zm-18.497-85.722c41.036 6.835 69.306 21.21 69.306 37.862 0 23.232-55.133 42.074-123.133 42.074S30.367 131.75 30.367 108.518c0-16.64 28.27-31.027 69.306-37.862 15.772 4.006 34.166 6.298 53.827 6.298s38.055-2.304 53.827-6.298M154.063 0c50.923 0 92.215 14.26 92.215 31.86 0 17.586-41.292 31.846-92.215 31.846s-92.215-14.26-92.215-31.847C61.848 14.26 103.139 0 154.063 0"/></svg>