<svg xmlns="http://www.w3.org/2000/svg" fill="none" viewBox="0 0 256 256"><path fill="red" fill-rule="evenodd" d="M112.006 200.651v-.018c0-17.667-14.322-31.991-31.991-31.991h-.018c-17.667 0-31.99 14.324-31.99 31.991v.018c0 17.668 14.323 31.991 31.99 31.991h.018c17.67 0 31.991-14.323 31.991-31.991m-22-.018v.018a9.993 9.993 0 0 1-9.993 9.993h-.017a9.993 9.993 0 0 1-9.993-9.993v-.018a9.993 9.993 0 0 1 9.993-9.992h.017a9.99 9.99 0 0 1 9.993 9.992" clip-rule="evenodd"/><path fill="#05D690" fill-rule="evenodd" d="M207.992 200.651v-.018c0-17.667-14.322-31.991-31.991-31.991h-.018c-17.667 0-31.991 14.324-31.991 31.991v.018c0 17.668 14.324 31.991 31.991 31.991h.018c17.669 0 31.991-14.323 31.991-31.991m-21.993-.018v.018a9.994 9.994 0 0 1-9.993 9.993h-.017a9.99 9.99 0 0 1-9.993-9.993v-.018a9.99 9.99 0 0 1 9.993-9.992h.017a9.993 9.993 0 0 1 9.993 9.992" clip-rule="evenodd"/><path fill="#fff" fill-rule="evenodd" d="M128 0C57.309 0 0 57.309 0 128v128h256V128C256 57.309 198.691 0 128 0m-15.994 200.651v-.018c0-17.667-14.322-31.991-31.991-31.991h-.018c-17.667 0-31.99 14.324-31.99 31.991v.018c0 17.668 14.323 31.991 31.99 31.991h.018c17.67 0 31.991-14.323 31.991-31.991m95.986-.018v.018c0 17.668-14.322 31.991-31.991 31.991h-.018c-17.667 0-31.991-14.323-31.991-31.991v-.018c0-17.667 14.324-31.991 31.991-31.991h.018c17.669 0 31.991 14.324 31.991 31.991" clip-rule="evenodd"/><path fill="#000" d="M185.999 200.651v-.018a9.994 9.994 0 0 0-9.993-9.992h-.017a9.99 9.99 0 0 0-9.993 9.992v.018a9.99 9.99 0 0 0 9.993 9.993h.017a9.994 9.994 0 0 0 9.993-9.993m-95.993 0v-.018a9.993 9.993 0 0 0-9.993-9.992h-.017a9.99 9.99 0 0 0-9.993 9.992v.018a9.993 9.993 0 0 0 9.993 9.993h.017a9.993 9.993 0 0 0 9.993-9.993"/></svg>
