<svg xmlns="http://www.w3.org/2000/svg" fill="none" viewBox="0 0 256 256"><path fill="#fff" d="M128 256c70.692 0 128-57.308 128-128S198.692 0 128 0 0 57.308 0 128s57.308 128 128 128"/><path fill="#1A1A1A" d="M128 58.88c-35.346 0-64 28.654-64 64v64h128v-64c0-35.346-28.654-64-64-64"/><path fill="#fff" d="M167.996 159.206v-.009c0-8.834-7.161-15.996-15.996-15.996h-.008c-8.834 0-15.996 7.162-15.996 15.996v.009c0 8.833 7.162 15.995 15.996 15.995H152c8.835 0 15.996-7.162 15.996-15.995m-47.993 0v-.009c0-8.834-7.161-15.996-15.996-15.996h-.008c-8.834 0-15.996 7.162-15.996 15.996v.009c0 8.833 7.162 15.995 15.996 15.995h.008c8.835 0 15.996-7.162 15.996-15.995"/><path fill="#05D690" d="M156.999 159.206v-.009a4.996 4.996 0 0 0-4.996-4.997h-.009a4.997 4.997 0 0 0-4.996 4.997v.009a4.996 4.996 0 0 0 4.996 4.996h.009a4.996 4.996 0 0 0 4.996-4.996"/><path fill="red" d="M109.003 159.206v-.009a4.996 4.996 0 0 0-4.996-4.997h-.009a4.997 4.997 0 0 0-4.997 4.997v.009a4.996 4.996 0 0 0 4.997 4.996h.009a4.996 4.996 0 0 0 4.996-4.996"/></svg>