<svg xmlns="http://www.w3.org/2000/svg" fill="none" viewBox="0 0 262 256"><path fill="#37B3FF" d="m21.762 0 17.555 41.144v173.713H17.883l-17.55 41.14h123.371v-41.141H87.537V148.57h36.167v-41.143H87.537V41.144h36.167V0zm239.903 181.714c0-26.032-15.706-48.923-39.458-62.187 11.294-12.531 18.025-28.212 18.025-45.242 0-41.027-38.979-74.284-87.062-74.284h-8.038v41.142h8.038c21.42 0 38.846 14.87 38.846 33.142 0 18.274-17.426 33.142-38.846 33.142h-8.038v41.144h29.467c21.42 0 38.846 14.869 38.846 33.143s-17.426 33.142-38.846 33.142h-29.467V256h29.467c48.087 0 87.066-33.261 87.066-74.286"/></svg>