<svg xmlns="http://www.w3.org/2000/svg" fill="none" viewBox="0 0 196 256"><path fill="#9C64E4" fill-rule="evenodd" d="M49.25.266a8.6 8.6 0 0 0-1.657.615c-.415.219-10.67 7.795-22.79 16.837C2.835 34.106 2.763 34.163 1.9 35.914l-.866 1.758-.088 72.067c-.06 49.351.014 73.324.235 76.057 2.07 25.567 16.087 47.557 38.45 60.322 5.602 3.198 12.043 5.813 18.315 7.435a76.49 76.49 0 0 0 65.227-12.956c6.071-4.568 12.356-11.072 16.56-17.138l1.586-2.287 3.687-1.295c15.292-5.37 28.737-15.828 37.943-29.514 2.946-4.38 6.489-11.275 8.245-16.045 1.405-3.818 3.261-11.095 3.911-15.334.684-4.46.925-13.818.472-18.335-1.492-14.881-7.416-29.332-16.793-40.97-4.482-5.562-8.308-8.904-25.432-22.206-33.564-26.074-90.671-70.51-94.459-73.5C54.123.209 52.341-.476 49.25.267M32.595 31.741c-5.658 4.253-10.26 7.826-10.226 7.94s4.705 3.861 10.382 8.325l10.321 8.115V40.065c0-8.83-.042-16.056-.094-16.056s-4.724 3.48-10.383 7.732m26.449 14.594v22.326l8.35 6.576c4.592 3.617 8.922 7.014 9.622 7.55l1.272.973 2.357-1.397c10.481-6.215 22.869-9.933 35.13-10.545l4.292-.215-30.286-23.795C73.124 34.72 59.394 24.012 59.27 24.01c-.125-.001-.226 10.045-.226 22.324m-42.48 48 .01 38.825 1.271-1.501c6.69-7.907 13.984-13.999 22.44-18.743l2.787-1.564-.002-17.623-.002-17.622-12.85-10.059c-7.067-5.532-13.032-10.167-13.257-10.3-.342-.2-.405 6.03-.397 38.586m95.216-6.04c-5.431.696-12.935 2.838-17.592 5.02l-2.373 1.111 13.975 10.983c7.687 6.04 15.196 11.892 16.688 13.004 23.308 17.385 34.808 45.783 29.968 73.999-.324 1.885-.799 4.236-1.056 5.226-.258.99-.404 1.864-.325 1.942.232.232 4.499-2.752 7.347-5.137 27.372-22.927 28.992-64.188 3.504-89.256-9.069-8.92-21.423-14.984-34.12-16.749-3.638-.505-12.563-.585-16.016-.142M59.054 95.1l.009 6.231.772-.901c.425-.496 1.585-1.816 2.577-2.934a223 223 0 0 0 2.52-2.881l.716-.848-3.133-2.449c-1.723-1.347-3.209-2.449-3.302-2.449s-.165 2.804-.16 6.231m9.934 24.563c-1.574.221-2.973.409-3.108.419-.37.024-2.428 4.574-3.622 8.009-1.26 3.623-2.436 8.763-2.933 12.825-.59 4.811-.207 14.198.765 18.819 1.926 9.146 5.77 17.611 11.358 25.017 2.35 3.114 8.097 8.835 11.308 11.256 7.346 5.539 15.873 9.389 25.106 11.335 5.93 1.251 17.836 1.38 22.494.244.46-.112.991-.904 1.851-2.76 2.244-4.85 3.719-9.729 4.785-15.828.728-4.167.729-14.406.002-18.604-1.867-10.788-6.042-20.216-12.565-28.377-2.312-2.893-7.689-8.199-10.389-10.253-8.54-6.495-18.826-10.752-29.278-12.117-4.176-.546-11.832-.538-15.774.015m-27.573 11.161c-2.55 1.829-6.838 5.647-8.758 7.797-8.402 9.411-13.251 19.415-15.402 31.774-.722 4.152-.72 14.394.005 18.617 3.418 19.921 15.25 35.993 33.045 44.885 8.571 4.283 16.939 6.296 26.217 6.306 12.164.013 22.767-2.955 32.927-9.217 2.554-1.575 8.83-6.333 8.611-6.53-.057-.05-1.933-.247-4.171-.438-10.471-.891-19.086-3.283-28.304-7.858-8.297-4.119-14.301-8.495-20.82-15.176-6.008-6.159-9.85-11.618-13.708-19.479-3.778-7.696-5.812-14.193-7.113-22.714-.562-3.685-.684-6.106-.84-16.679l-.182-12.368z" clip-rule="evenodd"/></svg>
