<svg xmlns="http://www.w3.org/2000/svg" fill="none" viewBox="0 0 237 256"><path fill="#5BD9FC" d="M134.436 255.181q75.496-43.264 82.042-46.882c6.545-3.618 19.929-15.047 19.929-32.122V82.271c0-8.537-2.182-21.561-14.837-29.662-12.658-8.107-75.349-43.7-86.989-49.488-11.636-5.788-42.183-6.51-42.183 24.744v108.666c0 13.454 11.927 24.741 24.872 24.741 12.948 0 29.821-8.101 29.821-32.122 0-17.508-14.981-22.716-22.4-24.741-7.421-2.026-13.821-4.196-17.456-4.921-3.638-.723-7.418-2.893-7.418-9.839v-14.76c0-3.76-.293-10.561 9.89-7.378 10.183 3.186 27.494 8.104 34.767 9.842 7.274 1.735 37.237 15.914 37.237 51.942.148 35.305-28.51 64.102-64.003 64.244-35.638 0-60.222-29.226-60.222-56.863V72.432c0-12.735-16.873-27.205-27.347-27.205S.32 63.893.32 77.35v96.369c0 13.889 5.82 26.331 19.928 34.58s70.84 39.501 79.425 44.421q8.58 4.919 34.764 2.461"/></svg>
