<svg xmlns="http://www.w3.org/2000/svg" fill="none" viewBox="0 0 323 256"><path fill="url(#paint0_linear_9883_792)" d="M322.425.001c-61.761-.22-122.124 26.564-163.429 72.284-14.864 15.379-24.773 34.216-36.693 51.656C93.753 163.014 49.185 185.604.89 185.579v70.273c61.736.245 122.099-26.638 163.429-72.358 14.79-15.379 24.847-34.192 36.693-51.655 28.551-39.024 73.118-61.614 121.413-61.59z"/><path fill="#2A54FF" d="M322.425 185.579c-48.27 0-92.862-22.565-121.413-61.589-11.797-17.464-21.878-36.252-36.644-51.656C123.137 26.614 62.675-.219.938.05v70.273c53.471-.27 103.14 28.501 130.023 74.712a221 221 0 0 0 28.084 38.606c41.281 45.696 101.693 72.578 163.429 72.358z"/><defs><linearGradient id="paint0_linear_9883_792" x1="21.913" x2="302.785" y1="230.99" y2="24.116" gradientUnits="userSpaceOnUse"><stop stop-color="#2A54FF"/><stop offset=".52" stop-color="#2143CB"/><stop offset="1" stop-color="#2A54FF"/></linearGradient></defs></svg>