<svg xmlns="http://www.w3.org/2000/svg" fill="none" viewBox="0 0 257 256"><path fill="#fff" d="M128.5 256c70.968 0 128.5-57.307 128.5-128C257 57.308 199.468 0 128.5 0S0 57.308 0 128s57.531 128 128.5 128"/><path fill="url(#paint0_linear_10907_1041)" d="M228.016 48.372c-8.917 1.753-17.421 4.228-24.42 5.775-15.97 3.557-30.902 15.725-34.169 37.999-2.903 19.901 3.837 28.46.881 51.61-5.184 40.422-44.174 54.343-62.373 62.799-10.526 4.847-36.087 15.983-55.79 24.49C73.507 246.72 99.845 256 128.415 256 199.448 256 257 198.77 257 128.134c0-30.11-10.473-57.798-27.998-79.607a41 41 0 0 0-.986-.155"/><path fill="url(#paint1_linear_10907_1041)" d="M114.252 109.043c9.915-21.283 6.333-21.335 13.86-41.33 9.499-25.353 39.035-18.139 47.185-17.056 13.444 1.803 16.974-2.938 45.317-7.473 1.401-.206 2.75-.412 4.1-.567C201.148 16.49 166.888 0 128.734 0 77.5 0 33.274 29.683 12.562 72.712c42.462 10.462 88.297 33.187 101.69 36.331m-28.135-86.78c3.737.566 21.906 22.983 25.332 80.544 0 0-23.36-5.565-28.394-17.52-4.154-9.843 1.245-22.778 3.062-63.025M229.23 47.976c.052.103.156.154.208.258-.311-.052-.675-.052-.987-.104.26-.103.52-.103.779-.154M0 127.8c0-10.204 1.194-20.098 3.478-29.58 4.672 3.865 9.655 8.142 14.95 13.038 33.533 30.868 88.089 55.243 107.971 32.568.051.052.103.052.103.103-3.634 4.742-17.493 19.738-43.967 15.099l-41.838 61.994C15.677 197.73 0 164.595 0 127.801"/><defs><linearGradient id="paint0_linear_10907_1041" x1="192.562" x2="156.159" y1="41.292" y2="246.493" gradientUnits="userSpaceOnUse"><stop stop-color="#FF496A"/><stop offset="1" stop-color="#E42648"/></linearGradient><linearGradient id="paint1_linear_10907_1041" x1="62.136" x2="128.423" y1="188.259" y2="-.304" gradientUnits="userSpaceOnUse"><stop offset=".002" stop-color="#1158F1"/><stop offset="1" stop-color="#119BED"/></linearGradient></defs></svg>
