<svg xmlns="http://www.w3.org/2000/svg" fill="none" viewBox="0 0 257 256"><path fill="gray" fill-rule="evenodd" d="M74.647 68.197V89.18h-30.49v15.738h30.49v45.115h30.489v-14.689h14.719V89.18h14.72V74.492h8.41-53.62V59.803H74.648V52.46zm14.719 67.147h15.77v-30.426h-15.77zm90.417 44.066h-14.719v15.738-15.738zv15.738h-14.719v14.688h-14.719v14.689h45.209v-14.689h14.719v-14.688h-14.719V179.41zv-74.492zm45.209-22.033v7.344h-22.079 7.36v30.427h14.719v-22.033q.246-7.869 0-15.738M74.647 224.525v15.737zh14.719v15.737h30.489v-15.737h-14.719v-14.689h-30.49z" clip-rule="evenodd"/><path fill="#FFA100" fill-rule="evenodd" d="M89.366 14.689H59.928v14.688h-15.77v14.689h-14.72v15.737H14.72V89.18H0v75.541h14.72v30.427h14.718v14.688h14.72v14.689h15.77v15.737h14.719v-15.737h-14.72V179.41h-15.77v-74.492H29.438V74.492h30.49V59.803h14.719V44.066h90.417v15.737h14.719v14.689h30.49v30.426h14.719v90.23h-14.719v14.688h-14.719v14.689h-30.49v15.737H89.366V256h75.698v-15.738h30.49v-15.737h14.719v-14.689h14.719v-14.688h15.77v-30.427h15.771v-38.819s1.051-37.77 0-36.722h-15.771V59.803h-15.77V44.066h-14.719V29.377h-14.719V14.689h-30.49V0H89.366z" clip-rule="evenodd"/><path fill="#FFD775" fill-rule="evenodd" d="M105.136 59.803h29.439V44.066h-29.439zm98.829 45.115h-8.411v45.115h29.438v-45.115zM44.157 150.033h15.77v-30.426h-15.77z" clip-rule="evenodd"/><path fill="#ED9B9D" fill-rule="evenodd" d="M59.928 179.41h14.719v15.738h90.417V179.41h14.719v-14.689h-14.719v-14.688H59.928zm29.438-14.689v14.689h15.77v-14.689zm30.489 14.689h14.72v-14.689h-14.72z" clip-rule="evenodd"/><path fill="#fff" fill-rule="evenodd" d="M150.345 74.492h-15.77V89.18h-14.72v46.164h-14.719v14.689h59.928v14.688h14.719v-59.803h15.771V89.18h-30.49V59.803h-14.719zm-15.77 60.852h15.77v-30.426h-15.77zm60.979 44.066v15.738h14.719v-30.427h-14.719zm-90.418 45.115h14.719v15.737h45.209v-15.737h-14.719v-14.689h-45.209z" clip-rule="evenodd"/><path fill="#080707" fill-rule="evenodd" d="M74.647 52.459v7.344h14.719v14.689h60.979V59.803h14.719V44.066h-30.489v15.737h-29.439V44.066h-30.49zm-14.72 7.344v14.689H29.439v30.426h14.72v14.689h15.77v30.426h-15.77v29.377h15.77v45.115h14.719v15.737h14.719v-15.737h-14.72v-14.689h90.417v-14.688h14.719V179.41h15.771v-14.689h29.438v-14.688h-29.438v-45.115h14.719V74.492h-30.49V59.803h-14.719V89.18h30.49v15.738h-15.771v74.492h-14.719v15.738H74.647V179.41h-14.72v-29.377h14.72v-45.115h-30.49V89.18h30.49V59.803zm29.439 75.541h15.77v-30.426h-15.77zm45.209 0h15.77v-30.426h-15.77zm-45.21 44.066h15.771v-14.689h-15.77zm30.49 0h14.72v-14.689h-14.72z" clip-rule="evenodd"/></svg>