<svg xmlns="http://www.w3.org/2000/svg" fill="none" viewBox="0 0 257 256"><path fill="gray" fill-rule="evenodd" d="M74.587 68.197V89.18H44.122v15.738h30.465v45.115h30.466v-14.689h14.707V89.18h14.707V74.492h8.404-53.576V59.803H74.587V52.46zm14.708 67.147h15.758v-30.426H89.295zm90.345 44.066h-14.708v15.738-15.738zv15.738h-14.708v14.688h-14.707v14.689h45.173v-14.689h14.707v-14.688h-14.707V179.41zv-74.492zm45.172-22.033v7.344h-22.061 7.354v30.427h14.707v-22.033q.248-7.869 0-15.738M74.587 224.525v15.737zh14.708v15.737h30.465v-15.737h-14.707v-14.689H74.587z" clip-rule="evenodd"/><path fill="#FFA100" fill-rule="evenodd" d="M89.295 14.689H59.88v14.688H44.122v14.689H29.415v15.737H14.707V89.18H0v75.541h14.707v30.427h14.708v14.688h14.707v14.689H59.88v15.737h14.707v-15.737H59.88V179.41H44.122v-74.492H29.415V74.492H59.88V59.803h14.707V44.066h90.345v15.737h14.708v14.689h30.465v30.426h14.707v90.23h-14.707v14.688h-14.707v14.689h-30.466v15.737H89.295V256h75.637v-15.738h30.466v-15.737h14.707v-14.689h14.707v-14.688h15.758v-30.427h15.758v-38.819s1.051-37.77 0-36.722H240.57V59.803h-15.758V44.066h-14.707V29.377h-14.707V14.689h-30.466V0H89.295z" clip-rule="evenodd"/><path fill="#FFD775" fill-rule="evenodd" d="M105.053 59.803h29.414V44.066h-29.414zm98.749 45.115h-8.404v45.115h29.414v-45.115zm-159.68 45.115H59.88v-30.426H44.122z" clip-rule="evenodd"/><path fill="#ED9B9D" fill-rule="evenodd" d="M59.88 179.41h14.707v15.738h90.345V179.41h14.708v-14.689h-14.708v-14.688H59.88zm29.415-14.689v14.689h15.758v-14.689zm30.465 14.689h14.707v-14.689H119.76z" clip-rule="evenodd"/><path fill="#fff" fill-rule="evenodd" d="M150.225 74.492h-15.758V89.18H119.76v46.164h-14.707v14.689h59.879v14.688h14.708v-59.803h15.758V89.18h-30.466V59.803h-14.707zm-15.758 60.852h15.758v-30.426h-15.758zm60.931 44.066v15.738h14.707v-30.427h-14.707zm-90.345 45.115h14.707v15.737h45.172v-15.737h-14.707v-14.689h-45.172z" clip-rule="evenodd"/><path fill="#080707" fill-rule="evenodd" d="M74.587 52.459v7.344h14.708v14.689h60.93V59.803h14.707V44.066h-30.465v15.737h-29.414V44.066H74.587zM59.88 59.803v14.689H29.415v30.426h14.707v14.689H59.88v30.426H44.122v29.377H59.88v45.115h14.707v15.737h14.708v-15.737H74.587v-14.689h90.345v-14.688h14.708V179.41h15.758v-14.689h29.414v-14.688h-29.414v-45.115h14.707V74.492H179.64V59.803h-14.708V89.18h30.466v15.738H179.64v74.492h-14.708v15.738H74.587V179.41H59.88v-29.377h14.707v-45.115H44.122V89.18h30.465V59.803zm29.415 75.541h15.758v-30.426H89.295zm45.172 0h15.758v-30.426h-15.758zM89.295 179.41h15.758v-14.689H89.295zm30.465 0h14.707v-14.689H119.76z" clip-rule="evenodd"/></svg>