<svg width="257" height="256" viewBox="0 0 257 256" fill="none" xmlns="http://www.w3.org/2000/svg">
<path fill-rule="evenodd" clip-rule="evenodd" d="M74.6468 68.1967V89.1803H44.1573V104.918H59.9277H74.6468V150.033H105.136V135.344H119.855V89.1803H134.575V74.4918H142.985H89.3659V59.8033H74.6468V52.459V68.1967ZM89.3659 135.344H105.136V104.918H89.3659V135.344ZM179.783 179.41H165.064V195.148V187.803V179.41H179.783V195.148H165.064V209.836H150.345V224.525H195.554V209.836H210.273V195.148H195.554V179.41H179.783V142.689V104.918V179.41ZM224.992 157.377V164.721H210.273C201.862 164.721 198.708 164.721 202.913 164.721H210.273V179.41V195.148H224.992V173.115C225.156 167.87 225.156 162.622 224.992 157.377ZM74.6468 224.525V232.918V240.262V224.525H83.0577H89.3659V240.262H119.855V224.525H105.136V209.836H74.6468V224.525Z" fill="#808080"/>
<path fill-rule="evenodd" clip-rule="evenodd" d="M89.3659 14.6885H59.9277V29.377H52.5682H44.1573V36.7213V44.0656H36.7977H29.4382V52.459V59.8033H14.7191V89.1803H0V164.721H14.7191V195.148H29.4382V209.836H44.1573V218.229V224.525H59.9277V240.262H74.6468V224.525H59.9277V179.41H44.1573V104.918H29.4382V89.1803V74.4918H44.1573H59.9277V59.8033H74.6468V44.0656H165.064V59.8033H179.783V74.4918H210.273V104.918H224.992V135.344V179.41V195.148H210.273V209.836H195.554V224.525H165.064V240.262H89.3659V247.607V256H165.064V240.262H195.554V224.525H210.273V209.836H224.992V195.148H240.762V164.721H256.533V125.902C256.533 125.902 257.584 88.1311 256.533 89.1803H240.762V59.8033H224.992V44.0656H218.684H210.273V29.377H202.913H195.554V14.6885H165.064V0H89.3659V14.6885Z" fill="#FFA100"/>
<path fill-rule="evenodd" clip-rule="evenodd" d="M105.136 59.8033H134.575V44.0656H105.136V59.8033ZM203.965 104.918H195.554V150.033H224.992V104.918H218.684H203.965ZM44.1573 150.033H59.9277V119.607H44.1573V150.033Z" fill="#FFD775"/>
<path fill-rule="evenodd" clip-rule="evenodd" d="M59.9277 179.41H68.3386H74.6468V195.148H165.064V179.41H179.783V164.721H165.064V150.033H59.9277V179.41ZM89.3659 164.721V174.164V179.41H105.136V164.721H97.7768H89.3659ZM119.855 179.41H134.575V164.721H119.855V179.41Z" fill="#ED9B9D"/>
<path fill-rule="evenodd" clip-rule="evenodd" d="M150.345 74.4918H134.575V89.1803H119.855V135.344H105.136V150.033H165.064V164.721H179.783V104.918H195.554V89.1803H165.064V59.8033H150.345V74.4918ZM134.575 135.344H150.345V104.918H134.575V135.344ZM195.554 179.41V195.148H210.273V164.721H195.554V179.41ZM105.136 224.525H112.496H119.855V240.262H165.064V224.525H150.345V209.836H105.136V224.525Z" fill="white"/>
<path fill-rule="evenodd" clip-rule="evenodd" d="M74.6468 52.459V59.8033H89.3659V74.4918H108.29H134.575H150.345V59.8033H165.064V44.0656H134.575V59.8033H105.136V44.0656H74.6468V52.459ZM59.9277 59.8033V68.1967V74.4918H29.4382V104.918H44.1573V119.607H59.9277V150.033H44.1573V179.41H59.9277V224.525H74.6468V240.262H89.3659V224.525H83.0577H74.6468V209.836H165.064V195.148H179.783V179.41H195.554V164.721H224.992V150.033H195.554V104.918H210.273V74.4918H179.783V59.8033H173.475H165.064V89.1803H195.554V104.918H179.783V179.41H165.064V195.148H74.6468V179.41H59.9277V150.033H74.6468V104.918H59.9277H44.1573V89.1803H74.6468V59.8033H68.3386H59.9277ZM89.3659 135.344H105.136V104.918H89.3659V135.344ZM134.575 135.344H150.345V104.918H134.575V135.344ZM89.3659 179.41H105.136V164.721H89.3659V179.41ZM119.855 179.41H134.575V164.721H128.266H119.855V179.41Z" fill="#080707"/>
</svg>
