<svg width="260" height="256" viewBox="0 0 260 256" fill="none" xmlns="http://www.w3.org/2000/svg">
<path d="M10.3969 219.742C22.3024 232.368 87.7702 292.865 190.521 222.65C264.837 164.788 262.973 39.345 255.839 1.44119C253.354 6.95899 167.132 195.956 10.3969 219.742ZM255.839 1.41634C254.92 1.04351 159.328 -11.9805 64.8292 48.8893C6.14672 86.6688 -1.63296 141.996 1.05137 178.955C138.425 163.495 252.708 5.76595 255.839 1.41634Z" fill="#1FE1B4"/>
<path d="M255.839 1.41634C254.92 1.04351 159.328 -11.9805 64.8292 48.8893C6.14672 86.6688 -1.63296 141.996 1.05137 178.955C138.425 163.495 252.708 5.76595 255.839 1.41634Z" fill="#1FE1B4"/>
</svg>
