<svg xmlns="http://www.w3.org/2000/svg" fill="none" viewBox="0 0 260 256"><path fill="#1FE1B4" d="M10.397 219.742c11.905 12.626 77.373 73.123 180.124 2.908 74.316-57.862 72.452-183.305 65.318-221.209-2.485 5.518-88.707 194.515-245.442 218.301M255.839 1.416c-.919-.372-96.511-13.396-191.01 47.473C6.147 86.67-1.633 141.996 1.051 178.955 138.425 163.495 252.708 5.765 255.84 1.416"/><path fill="#1FE1B4" d="M255.839 1.416c-.919-.372-96.511-13.396-191.01 47.473C6.147 86.67-1.633 141.996 1.051 178.955 138.425 163.495 252.708 5.765 255.84 1.416"/></svg>
