<svg xmlns="http://www.w3.org/2000/svg" fill="none" viewBox="0 0 196 256"><path fill="#D53127" d="M13.157 60.97h36.44l-28.335 69.3s-14.811-.242-19.34-13.183a20.57 20.57 0 0 1-.306-11.878z"/><path fill="#F47320" d="m154.483 62.452-46.335-.806 10.428-34.393a21.096 21.096 0 0 0-10.643-24.975A21.1 21.1 0 0 0 98.462 0h-42.29L7.822 173.657s-17.326 74.266 48.35 80.986c0 0 103.823 21.226 137.137-104.226 0 0 17.583-75.877-38.826-87.965m-31.669 86.127s-1.853 32.04-26.028 37.665a15.66 15.66 0 0 1-10.653-1.096c-3.788-1.934-7.704-5.947-7.607-14.36a27 27 0 0 1 1.16-7.172l8.929-33.345h24.368s11.04 3.594 9.831 18.308"/><path fill="url(#paint0_linear_10243_725)" d="M195.533 115.444c-4.432-50.977-41.05-52.992-41.05-52.992l-46.335-.806-19.904 69.028h24.304c4.464.242 12.603 7.607 9.96 20.645"/><defs><linearGradient id="paint0_linear_10243_725" x1="187.023" x2="113.998" y1="183.633" y2="71.574" gradientUnits="userSpaceOnUse"><stop offset=".41" stop-color="#F47320"/><stop offset=".5" stop-color="#F16D21"/><stop offset=".62" stop-color="#E95C22"/><stop offset=".75" stop-color="#DC4125"/><stop offset=".81" stop-color="#D53127"/></linearGradient></defs></svg>