<svg xmlns="http://www.w3.org/2000/svg" fill="none" viewBox="0 0 218 256"><path fill="#fff" d="M138.564 183.868H59.783v6.884h78.781zM79.5 226.685H20.408v6.884H79.5zm-39.463-42.787H.72v6.884h39.317zm98.527-19.922H79.471v6.884h59.093zm-78.839 0H20.437v6.884h39.288zm78.838-88.988H40.066v6.883h98.497zM59.725 52.093H20.407v6.882h39.318z"/><path fill="#fff" d="M190.801 118.272v-.175a78.893 78.893 0 0 0-28.94-107.481A78.9 78.9 0 0 0 122.55 0H40.066v9.857h82.718a68.97 68.97 0 0 1 67.459 55.921 69 69 0 0 1-1.22 31.347 60.318 60.318 0 0 0-58.626-73.997H59.783v9.86h70.701a50.37 50.37 0 0 1 49.699 42.276 50.4 50.4 0 0 1-1.719 23.378 39.47 39.47 0 0 0-20.559-45.45 39.5 39.5 0 0 0-17.358-4.133H79.296v9.945h60.959a29.634 29.634 0 0 1 25.726 44.247 79.1 79.1 0 0 0-27.535-4.958h-78.75v9.858h78.75a69 69 0 0 1 43.998 15.852 69 69 0 0 1 23.787 40.265 59.15 59.15 0 0 0-57.576-45.909H40.037v9.771h108.764a49.24 49.24 0 0 1 48.563 42.205 39.41 39.41 0 0 0-38.705-32.288H40.096v9.859H158.63a29.546 29.546 0 0 1 0 59.092H20.408v9.859h138.251a39.41 39.41 0 0 0 38.705-32.288 49.234 49.234 0 0 1-48.709 42.117H99.071v9.858h49.584a59.18 59.18 0 0 0 56.817-42.904 69.04 69.04 0 0 1-66.879 52.5h-98.41v9.859h98.263a78.75 78.75 0 0 0 52.502-137.785z"/></svg>