<svg xmlns="http://www.w3.org/2000/svg" fill="none" viewBox="0 0 225 256"><path fill="#F7D356" d="M187.59 171.296V43.611l37.314 21.255v127.842l-68.487 39.046-37.314-21.255zM.864 114.303l37.314-21.255v77.934l112.098 63.763L112.963 256 .864 192.236zM112.963 0l68.487 38.888v42.667l-68.487-38.888L.864 106.588v-42.51zm-41.88 75.887L96.431 61.56v53.53c2.677-1.889 8.66-6.613 17.949-6.613 11.965 0 22.199 4.094 30.701 12.438s12.595 18.421 12.595 30.229-4.251 21.884-12.595 30.229c-8.502 8.344-18.578 12.595-30.701 12.595s-22.357-4.251-30.701-12.595c-8.502-8.345-12.596-18.421-12.596-30.229zm30.544 87.695q5.196 5.195 12.753 5.195c4.88 0 9.131-1.731 12.595-5.195 3.464-3.306 5.353-7.872 5.353-12.596 0-4.88-1.732-8.974-5.353-12.437-3.306-3.307-7.872-5.196-12.595-5.196q-7.322 0-12.753 5.196c-3.464 3.148-5.353 7.714-5.353 12.437.157 4.881 1.89 9.132 5.353 12.596"/></svg>
