<svg xmlns="http://www.w3.org/2000/svg" fill="none" viewBox="0 0 229 256"><path fill="#42C952" d="M139.234 255.99c15.511.171 31.463-1.763 45.835-7.933 14.373-6.171 27.228-16.307 34.904-29.97 11.189-19.477 11.458-44.685 1.052-64.615-7.578-14.544-21.155-25.207-36.311-31.022 9.794-5.118 18.952-11.9 24.938-21.241 9.439-13.136 10.847-30.153 8.729-45.75a61.6 61.6 0 0 0-18.511-34.021C185.486 8.13 165.898 1.334 146.628.099 97.977-.072 49.411.013.846.099.93 11.301.748 22.49.93 33.778c6.256.257 12.512 1.408 17.985 4.578 11.36 5.73 18.681 17.813 19.918 30.325a39 39 0 0 1-9.794 28.157C21.89 104.686 11.497 109.62.882 109.18c.086 10.222 0 20.445.086 30.765 7.407.526 14.985 2.204 21.07 6.611C33.14 153.692 39.482 167 38.87 180.05a40.7 40.7 0 0 1-3.526 19.649C29.346 212.835 15.426 222.09.882 221.833c.086 11.361 0 22.734 0 34.108zm38.343-66.819a36.81 36.81 0 0 1-23.542 26.713c-8.631 3.256-17.984 2.913-27.056 2.913-17.139 0-34.205-.098-51.308.086a5838 5838 0 0 1 0-77.482c14.201.269 28.476.085 42.751.085 9.61.086 19.392-.44 28.916 1.066 10.051 2.02 19.747 7.578 25.293 16.392 5.913 8.815 6.966 20.004 4.946 30.227M75.5 36.863h55.176c11.545-.44 23.714 3.783 31.561 12.512 7.407 8.116 9.427 19.832 7.664 30.41-1.934 12.867-12.867 23.003-25.036 26.443-7.345 2.388-15.156 1.506-22.82 1.678h-46.52c.06-23.714.06-47.33-.025-71.043"/></svg>
