<svg xmlns="http://www.w3.org/2000/svg" fill="none" viewBox="0 0 325 256"><path fill="#9DEF32" d="M317.875 0H160.07c-18.391 0-35.447 6.208-49.092 16.85h53.838c70.003 0 122.655 63.704 109.455 132.138l-9.937 50.846-.89 4.138c17.093-11.801 28.903-29.773 32.925-50.106L324.697 8.277a6.93 6.93 0 0 0-1.455-5.74A6.97 6.97 0 0 0 317.875 0"/><path fill="#9DEF32" d="M106.529 39.316c-37.671 0-70.152 26.605-77.27 63.557l-28.18 144.85C.189 252.009 3.6 256 7.9 256h164.775a69.56 69.56 0 0 0 44.086-15.776 69.13 69.13 0 0 0 23.99-40.095l10.827-55.723c10.53-54.392-31.294-105.09-86.911-105.09z"/></svg>