<svg xmlns="http://www.w3.org/2000/svg" fill="none" viewBox="0 0 261 256"><path fill="#397BFF" d="M242.96 226.865c-14.615 16.438-31.59 26.047-50.548 28.47-31.277 3.913-53.367-10.228-71.115-21.704-15.283-9.756-26.558-15.252-40.557-15.252-2.601-.011-5.2.157-7.778.503-9.333 1.133-18.332 5.749-26.715 13.564a94.6 94.6 0 0 0-15.763 20.193L.03 237.386a148 148 0 0 1 18-25.396c14.929-16.889 31.966-26.644 50.549-29.025 30.524-3.908 52.032 9.936 71.065 22.186l.08.052c18.061 11.634 30.463 17.183 48.21 14.896 9.156-1.196 18.217-5.864 26.715-13.679a94.6 94.6 0 0 0 15.962-20.12l30.327 15.158a148.7 148.7 0 0 1-17.956 25.397zm0-91.084c-14.615 16.448-31.59 26.015-50.548 28.501-31.277 3.913-53.367-10.291-71.115-21.714-15.283-9.892-26.558-15.316-40.557-15.316-2.6.017-5.198.192-7.778.525-9.333 1.185-18.269 5.853-26.715 13.532a95.6 95.6 0 0 0-15.763 20.204L.02 146.302a148.6 148.6 0 0 1 17.998-25.543c14.928-16.857 31.966-26.592 50.548-28.952 30.567-3.902 52.094 9.923 71.146 22.176 18.06 11.717 30.463 17.172 48.21 14.895 9.155-1.153 18.217-5.853 26.715-13.668A93.7 93.7 0 0 0 230.6 95.153l30.4 15.19a146 146 0 0 1-18.04 25.522zm0-91.116c-14.615 16.438-31.59 26.068-50.548 28.49-31.277 3.903-53.367-10.237-71.115-21.724-15.283-9.766-26.558-15.263-40.557-15.263a54 54 0 0 0-7.778.525c-9.333 1.196-18.269 5.748-26.715 13.542A95.7 95.7 0 0 0 30.484 70.44L0 55.176a152 152 0 0 1 18.008-25.49C32.978 12.827 49.964 3.113 68.557.67c30.556-3.902 52.135 9.987 71.135 22.239 18.061 11.717 30.463 17.172 48.21 14.896 9.156-1.186 18.217-5.854 26.715-13.669a95.3 95.3 0 0 0 15.962-20.099L260.99 19.27a148.8 148.8 0 0 1-18.03 25.48z"/></svg>
