<svg xmlns="http://www.w3.org/2000/svg" fill="none" viewBox="0 0 342 256"><path fill="#397BFF" d="M341.267 128c0 14.649-6.086 27.961-15.968 37.717l-78.165 74.781a56.8 56.8 0 0 1-15.215 10.211A58.5 58.5 0 0 1 207.49 256a57 57 0 0 1-24.073-5.575c-5.816-2.674-11.518-6.045-16.025-10.34l-64.201-61.454a34.49 34.49 0 0 1 26.69-12.387c8.062 0 15.47 2.673 21.3 7.168l40.839 39.082c4.052 3.655 9.47 5.846 15.47 5.846 6.015 0 11.476-2.233 15.528-5.888l72.946-69.803c3.697-3.84 5.958-9.003 5.958-14.649s-2.261-10.809-5.972-14.649L222.819 43.35a23.15 23.15 0 0 0-15.314-5.69c-5.901-.014-11.291 2.148-15.315 5.69L9.627 218.055a5.843 5.843 0 0 1-7.992 0A5.3 5.3 0 0 1 0 214.756v-34.134c0-2.844 1.138-5.418 3-7.353l31.866-30.492a21.094 21.094 0 0 0-.569-30.052L3.227 82.987A10.6 10.6 0 0 1 0 75.392V41.245a5.3 5.3 0 0 1 1.635-3.286 5.86 5.86 0 0 1 8.006 0L61.2 87.296c4.08 3.812 9.655 6.116 15.812 6.116 6.142 0 11.73-2.318 15.812-6.13l75.15-71.907a57 57 0 0 1 15.072-10.098A58.5 58.5 0 0 1 207.505 0c8.759 0 17.049 1.906 24.457 5.305a57 57 0 0 1 15.187 10.198l78.15 74.78c4.237 4.181 7.778 9.002 10.423 14.322A52 52 0 0 1 341.267 128"/></svg>