<svg xmlns="http://www.w3.org/2000/svg" fill="none" viewBox="0 0 341 256"><path fill="#397BFF" d="M341 128c0 14.649-6.081 27.961-15.956 37.717l-78.103 74.781a56.8 56.8 0 0 1-15.203 10.211 58.45 58.45 0 0 1-24.41 5.291 56.9 56.9 0 0 1-24.055-5.575c-5.811-2.674-11.508-6.045-16.012-10.34l-64.151-61.454a34.5 34.5 0 0 1 11.949-9.183 34.4 34.4 0 0 1 14.72-3.204c8.056 0 15.459 2.673 21.284 7.168l40.806 39.082c4.05 3.655 9.463 5.846 15.459 5.846 6.01 0 11.466-2.233 15.516-5.888l72.888-69.803c3.694-3.84 5.954-9.003 5.954-14.649s-2.26-10.809-5.968-14.649L222.645 43.35a23.12 23.12 0 0 0-15.303-5.69c-5.896-.014-11.281 2.148-15.302 5.69L9.619 218.055a5.836 5.836 0 0 1-7.985 0A5.3 5.3 0 0 1 0 214.756v-34.134c0-2.844 1.137-5.418 2.998-7.353l31.84-30.492a21.1 21.1 0 0 0 6.002-15.145 21.1 21.1 0 0 0-6.57-14.907L3.225 82.987A10.6 10.6 0 0 1 0 75.392V41.245a5.3 5.3 0 0 1 1.634-3.286 5.85 5.85 0 0 1 8 0l51.519 49.337c4.078 3.812 9.647 6.116 15.8 6.116 6.137 0 11.721-2.318 15.799-6.13l75.091-71.907a57 57 0 0 1 15.061-10.098A58.4 58.4 0 0 1 207.342 0c8.753 0 17.036 1.906 24.439 5.305a56.9 56.9 0 0 1 15.174 10.198l78.089 74.78c4.234 4.181 7.772 9.002 10.415 14.322A52 52 0 0 1 341 128"/></svg>