<svg xmlns="http://www.w3.org/2000/svg" fill="none" viewBox="0 0 256 256"><path fill="#397BFF" d="M127.679 0a127.47 127.47 0 0 0-70.94 21.58A127.93 127.93 0 0 0 9.715 79.03a128.3 128.3 0 0 0-7.259 73.956 128.1 128.1 0 0 0 34.955 65.535 127.6 127.6 0 0 0 65.385 35.023 127.4 127.4 0 0 0 73.777-7.294 127.76 127.76 0 0 0 57.3-47.152 128.2 128.2 0 0 0 21.51-71.117 128.3 128.3 0 0 0-9.721-48.983 128 128 0 0 0-27.684-41.524 127.7 127.7 0 0 0-41.431-27.74A127.4 127.4 0 0 0 127.679 0m66.31 186.082c-8.614 9.665-18.618 15.315-29.792 16.739-18.434 2.301-31.454-6.013-41.914-12.761-9.008-5.736-15.653-8.968-23.904-8.968a34 34 0 0 0-4.584.296c-5.5.666-10.804 3.38-15.745 7.975a55.7 55.7 0 0 0-9.291 11.873l-17.948-8.968a87 87 0 0 1 10.608-14.932c8.798-9.93 18.84-15.666 29.792-17.066 17.99-2.298 30.667 5.842 41.884 13.045l.048.03c10.645 6.841 17.954 10.103 28.414 8.759 5.396-.703 10.737-3.448 15.746-8.043a55.7 55.7 0 0 0 9.407-11.83l17.875 8.913a87.5 87.5 0 0 1-10.583 14.932zm0-53.555c-8.614 9.671-18.618 15.296-29.792 16.758-18.434 2.301-31.454-6.051-41.914-12.767-9.008-5.817-15.653-9.005-23.904-9.005a38 38 0 0 0-4.584.308c-5.5.697-10.767 3.442-15.745 7.957a56.3 56.3 0 0 0-9.291 11.879l-17.954-8.944a87.4 87.4 0 0 1 10.607-15.018c8.799-9.912 18.84-15.635 29.793-17.023 18.016-2.295 30.703 5.835 41.932 13.038 10.644 6.89 17.954 10.097 28.414 8.759 5.396-.679 10.737-3.442 15.745-8.037a55 55 0 0 0 9.408-11.793l17.918 8.931a86 86 0 0 1-10.633 15.006zm0-53.573c-8.614 9.665-18.618 15.327-29.792 16.752-18.434 2.294-31.454-6.02-41.914-12.774-9.008-5.742-15.653-8.974-23.904-8.974a32 32 0 0 0-4.584.308c-5.5.703-10.767 3.38-15.745 7.963a56.3 56.3 0 0 0-9.291 11.879l-17.967-8.974a89.5 89.5 0 0 1 10.614-14.988C70.23 60.235 80.24 54.523 91.2 53.086c18.009-2.294 30.727 5.872 41.926 13.076 10.644 6.89 17.954 10.096 28.414 8.758 5.396-.697 10.737-3.442 15.745-8.037a56 56 0 0 0 9.408-11.817l17.923 8.956a87.5 87.5 0 0 1-10.626 14.981z"/><path fill="#fff" d="M193.989 186.082c-8.614 9.665-18.618 15.315-29.792 16.739-18.434 2.301-31.454-6.013-41.914-12.761-9.008-5.736-15.653-8.968-23.904-8.968a34 34 0 0 0-4.584.296c-5.5.666-10.804 3.38-15.745 7.975a55.7 55.7 0 0 0-9.291 11.873l-17.948-8.968a87 87 0 0 1 10.608-14.932c8.798-9.93 18.84-15.666 29.792-17.066 17.99-2.298 30.667 5.842 41.884 13.045l.048.03c10.645 6.841 17.954 10.103 28.414 8.759 5.396-.703 10.737-3.448 15.746-8.043a55.7 55.7 0 0 0 9.407-11.83l17.875 8.913a87.5 87.5 0 0 1-10.583 14.932zm0-53.555c-8.614 9.671-18.618 15.296-29.792 16.758-18.434 2.301-31.454-6.051-41.914-12.767-9.008-5.817-15.653-9.005-23.904-9.005a38 38 0 0 0-4.584.308c-5.5.697-10.767 3.442-15.745 7.957a56.3 56.3 0 0 0-9.291 11.879l-17.954-8.944a87.4 87.4 0 0 1 10.607-15.018c8.799-9.912 18.84-15.635 29.793-17.023 18.016-2.295 30.703 5.835 41.932 13.038 10.644 6.89 17.954 10.097 28.414 8.759 5.396-.679 10.737-3.442 15.745-8.037a55 55 0 0 0 9.408-11.793l17.918 8.931a86 86 0 0 1-10.633 15.006zm0-53.573c-8.614 9.665-18.618 15.327-29.792 16.752-18.434 2.294-31.454-6.02-41.914-12.774-9.008-5.742-15.653-8.974-23.904-8.974a32 32 0 0 0-4.584.308c-5.5.703-10.767 3.38-15.745 7.963a56.3 56.3 0 0 0-9.291 11.879l-17.967-8.974a89.5 89.5 0 0 1 10.614-14.988C70.23 60.235 80.24 54.523 91.2 53.086c18.009-2.294 30.727 5.872 41.926 13.076 10.644 6.89 17.954 10.096 28.414 8.758 5.396-.697 10.737-3.442 15.745-8.037a56 56 0 0 0 9.408-11.817l17.923 8.956a87.5 87.5 0 0 1-10.626 14.981z"/></svg>