<svg xmlns="http://www.w3.org/2000/svg" fill="none" viewBox="0 0 223 256"><path fill="#006CE0" d="M120.767 198.944c21.023 0 33.131-8.416 33.131-23.413v-.722c0-13.903-10.692-23.041-33.844-23.041H67.327v47.176zm-9.978-96.909c21.022 0 32.779-7.323 32.779-22.309v-.732c0-13.893-10.692-21.948-31.352-21.948H67.338v44.989zM0 0h127.892c31.342 0 53.43 8.045 68.041 23.041 9.968 10.242 16.028 23.774 16.028 41.328v.722c0 29.631-16.39 47.175-38.467 57.056 30.277 10.242 49.51 27.796 49.51 62.533v.732c0 43.885-34.909 70.588-94.409 70.588H.01V.01z"/></svg>
