<svg width="223" height="256" viewBox="0 0 223 256" fill="none" xmlns="http://www.w3.org/2000/svg">
<path d="M120.767 198.944C141.79 198.944 153.898 190.528 153.898 175.531V174.809C153.898 160.906 143.206 151.768 120.054 151.768H67.3274V198.944H120.767ZM110.789 102.035C131.811 102.035 143.568 94.7121 143.568 79.726V78.9938C143.568 65.101 132.876 57.0459 112.216 57.0459H67.3377V102.035H110.789ZM0 0H127.892C159.234 0 181.322 8.0448 195.933 23.0411C205.901 33.2828 211.961 46.8146 211.961 64.3687V65.0907C211.961 94.7224 195.571 112.266 173.494 122.147C203.771 132.389 223.004 149.943 223.004 184.68V185.412C223.004 229.297 188.095 256 128.595 256H0.0103407V0.0103136L0 0Z" fill="#006CE0"/>
</svg>
