<svg xmlns="http://www.w3.org/2000/svg" fill="none" viewBox="0 0 365 256"><path fill="#fff" fill-rule="evenodd" d="M360.38 4.089c-3.616 17.156-5.318 22.546-10.33 32.735-9.876 20.073-34.58 43.342-58.68 55.275-25.124 12.436-52.13 17.651-98.141 18.951-57.508 1.627-87.895-3.278-119.949-19.363C38.302 74.137 17.66 51.95 7.817 21.329 5.024 12.635 2.265 4.299 1.685 2.803 1.107 1.307.376 5.305.06 11.69c-.647 13.12 3.946 30.754 12.313 47.265 15.303 30.193 46.806 57.813 88.325 77.438 9.411 4.448 17.109 8.343 17.109 8.658s-2.014 4.962-4.476 10.329c-11.998 26.145-6.007 56.474 15.396 77.968 23.287 23.382 53.071 28.929 82.691 15.398 10.893-4.976 24.828-16.961 30.837-26.521 11.005-17.503 13.162-42.272 5.609-64.376-2.386-6.981-4.205-12.751-4.043-12.817 57.849-24.249 92.69-53.429 110.445-92.502 8.406-18.495 13.692-49.486 8.943-52.415-.97-.598-2.243 1.19-2.829 3.974M193.404 145.106c20.918 6.198 33.631 32.948 25.213 53.052-7.097 16.947-20.265 25.88-38.147 25.88-24.084 0-40.775-16.332-40.775-39.895 0-17.859 11.332-33.988 27.391-38.986 10.476-3.259 15.46-3.27 26.318-.051" clip-rule="evenodd"/></svg>
