<svg width="365" height="256" viewBox="0 0 365 256" fill="none" xmlns="http://www.w3.org/2000/svg">
<path fill-rule="evenodd" clip-rule="evenodd" d="M360.38 4.08864C356.764 21.2452 355.062 26.6347 350.05 36.8242C340.174 56.8968 315.47 80.1664 291.37 92.0986C266.246 104.535 239.24 109.75 193.229 111.05C135.721 112.677 105.334 107.772 73.2801 91.687C38.3022 74.1368 17.6601 51.9499 7.81695 21.3287C5.02359 12.6352 2.26479 4.29901 1.68503 2.80295C1.1071 1.30686 0.376499 5.30546 0.060269 11.6904C-0.58673 24.8104 4.00587 42.444 12.3732 58.955C27.6758 89.1482 59.1788 116.768 100.698 136.393C110.109 140.841 117.807 144.736 117.807 145.051C117.807 145.365 115.793 150.013 113.331 155.38C101.333 181.525 107.324 211.854 128.727 233.348C152.014 256.73 181.798 262.277 211.418 248.746C222.311 243.77 236.246 231.785 242.255 222.225C253.26 204.722 255.417 179.953 247.864 157.849C245.478 150.868 243.659 145.098 243.821 145.032C301.67 120.783 336.511 91.6035 354.266 52.5301C362.672 34.0352 367.958 3.04409 363.209 0.11545C362.239 -0.482977 360.966 1.30505 360.38 4.08864ZM193.404 145.106C214.322 151.304 227.035 178.054 218.617 198.158C211.52 215.105 198.352 224.038 180.47 224.038C156.386 224.038 139.695 207.706 139.695 184.143C139.695 166.284 151.027 150.155 167.086 145.157C177.562 141.898 182.546 141.887 193.404 145.106Z" fill="white"/>
</svg>
