<svg xmlns="http://www.w3.org/2000/svg" fill="none" viewBox="0 0 497 256"><path fill="#fff" d="M226.472 80.761c-32.18-25.928-66.205-37.974-109.429-44.018C78.195 31.319 54.726 23.563 20.668 0L.094 30.583c30.509 22.654 59.09 33.89 97.814 40.58 27.399 4.737 48.825 5.067 77.332 20.173-5.609 7.267-10.721 17.966-13.823 25.234-14.229-8.417-35.208-14.866-63.22-15.147v36.42c13.617.57 25.844 2.241 42.323 9.384 20.078 8.698 34.058 21.728 34.058 21.728 16.032-56.222 51.894-88.194 51.894-88.194m89.922 47.648c-29.442 21.844-47.798 54.627-52.745 90.964h-30.22C249.991 87.21 371.638 75.329 394.744 72.063c41.71-5.878 71.607-18.784 102.066-41.439L476.245.034c-34.067 23.563-57.536 31.326-96.375 36.75-43.233 6.044-78.73 18.992-110.91 44.911-50.049 39.438-73.601 97.422-73.601 156.016L195.4 256h102.472v-18.33c-.414-53.775 40.155-79.91 40.155-79.91 14.518-9.797 36.317-20.777 60.687-19.843v-36.412c-27.398-.289-55.748 8.409-82.32 26.904"/></svg>