<svg xmlns="http://www.w3.org/2000/svg" fill="none" viewBox="0 0 169 256"><path fill="#F58B00" d="M168.972 103.801a172.45 172.45 0 0 0-67.578-21.082v47.743L84.5 137.733l-16.894-7.271V82.719A172.7 172.7 0 0 0 .028 103.8S-4.012 215.316 84.494 256h.012c88.505-40.678 84.466-152.199 84.466-152.199m-52.144 53.234-31.262 13.451 15.169.153c.359 0 .618 41.811.542 41.917l-16.783 25.139L67.6 212.391s.294-42.076.653-42.076l15.116.153-49.564-21.324 18.355-7.896 32.07 13.799a.64.64 0 0 0 .511 0l32.07-13.799 18.354 7.896-18.354 7.896z"/><path fill="#FFF3D4" d="m135.183 164.931-18.355-7.896-32.069 13.799a.64.64 0 0 1-.512 0l-32.07-13.799-18.354 7.896 50.683 21.807 50.683-21.807zm0-31.638s-18.773-8.079-33.789-14.537v11.7L84.5 137.727l-16.894-7.271v-11.7l-32.393 13.941c-.525.224-.525.973 0 1.203l49.028 21.094a.64.64 0 0 0 .512 0l50.424-21.695zm6.978-69.173a200 200 0 0 0-46.502-8.168l-3.84-34.67a3.07 3.07 0 0 1 .772-2.393 11.23 11.23 0 0 0 2.956-7.614C95.547 5.048 90.507 0 84.288 0h-.059C78.011 0 72.97 5.048 72.97 11.275a11.23 11.23 0 0 0 2.956 7.614 3.03 3.03 0 0 1 .772 2.394l-3.84 34.669a199.8 199.8 0 0 0-46.502 8.167l7.06 16.076.501-.16c15.864-4.646 33.094-6.964 50.33-6.964 17.242 0 34.483 2.318 50.353 6.965l.512.124z"/></svg>
