<svg xmlns="http://www.w3.org/2000/svg" fill="none" viewBox="0 0 170 256"><path fill="#F58B00" d="M169.217 103.801a172.9 172.9 0 0 0-67.676-21.082v47.743l-16.918 7.271-16.92-7.271V82.719A173.1 173.1 0 0 0 .029 103.8S-4.017 215.316 84.617 256h.011c88.634-40.678 84.589-152.199 84.589-152.199m-52.219 53.234L85.69 170.486l15.191.153c.36 0 .619 41.811.542 41.917l-16.806 25.139-16.92-25.304s.296-42.076.655-42.076l15.138.153-49.636-21.324 18.382-7.896 32.115 13.799a.64.64 0 0 0 .513 0l32.116-13.799 18.381 7.896-18.381 7.896z"/><path fill="#FFF3D4" d="m135.379 164.931-18.381-7.896-32.116 13.799a.64.64 0 0 1-.513 0l-32.116-13.799-18.381 7.896 50.756 21.807 50.757-21.807zm0-31.638s-18.8-8.079-33.838-14.537v11.7l-16.918 7.271-16.92-7.271v-11.7l-32.44 13.941c-.524.224-.524.973 0 1.203l49.1 21.094a.64.64 0 0 0 .513 0l50.497-21.695zm6.988-69.173a200.7 200.7 0 0 0-46.57-8.168l-3.844-34.67a3.07 3.07 0 0 1 .772-2.393 11.22 11.22 0 0 0 2.96-7.614C95.686 5.048 90.639 0 84.41 0h-.059c-6.227 0-11.275 5.048-11.275 11.275 0 2.937 1.12 5.609 2.96 7.614a3.02 3.02 0 0 1 .773 2.394l-3.845 34.669a200.3 200.3 0 0 0-46.57 8.167l7.071 16.076.501-.16c15.887-4.646 33.142-6.964 50.403-6.964 17.267 0 34.534 2.318 50.426 6.965l.513.124z"/></svg>