<svg xmlns="http://www.w3.org/2000/svg" fill="none" viewBox="0 0 233 256"><path fill="#21D192" d="M22.813 47.428C8.738 55.392 0 70.398 0 86.58v82.838c0 16.182 8.748 31.189 22.823 39.163L106.54 256v-70.23l-45.466-25.754V95.974L106.54 70.22V0zM86.81 58.72 43.184 83.431a3.63 3.63 0 0 0-1.842 3.159v82.838c0 1.308.705 2.511 1.842 3.15l43.625 24.711v24.852l-54.27-30.738a25.29 25.29 0 0 1-12.808-21.975V86.59a25.29 25.29 0 0 1 12.807-21.974L86.81 33.869zM233 86.58v82.839c0 16.182-8.748 31.189-22.823 39.163L126.459 256v-70.23l45.467-25.754v-11.631h19.732v21.034a3.61 3.61 0 0 1-1.842 3.15l-43.625 24.711v24.851l54.271-30.738a25.29 25.29 0 0 0 12.807-21.974V86.581a25.29 25.29 0 0 0-12.807-21.975L146.191 33.86v24.852l43.625 24.71a3.63 3.63 0 0 1 1.842 3.16v21.034h-19.732V95.983L126.459 70.23V0l83.718 47.428c14.075 7.973 22.813 22.98 22.813 39.162z"/></svg>