<svg xmlns="http://www.w3.org/2000/svg" fill="none" viewBox="0 0 228 256"><path fill="#2CD4A6" fill-rule="evenodd" d="M24.492 247.546c-1.283 3.51.744 7.44 4.453 7.894 3.019.37 6.093.56 9.211.56 23.843 0 45.086-11.122 58.82-28.459a114.4 114.4 0 0 0 16.959 1.259c58.901 0 107.363-44.879 113.319-102.439.464-4.487-3.174-8.236-7.685-8.247l-37.019-.085c-13.592 48.816-58.397 84.638-111.574 84.638-12.515 0-24.567-1.984-35.856-5.655l.017.017s-.84 23.702-10.645 50.517M201.756 41.515c-12.215-14.823-28.081-26.5-46.214-33.647a115.8 115.8 0 0 1 23.592 37.627c3.507 9.137 8.111 25.13 8.111 25.13 5.302 12.343 10.914 19.712 28.642 22.322 5.131.755 9.187-3.993 7.754-8.977-4.474-15.563-12.129-30.618-21.885-42.455" clip-rule="evenodd"/><path fill="#04EDBF" d="M112.6 117.867c-24.757 0-44.826-20.058-44.826-44.8 0-24.743 20.07-44.8 44.826-44.8 12.039 0 22.97 4.743 31.023 12.46 8.508 8.155 13.804 19.629 13.804 32.34a44.7 44.7 0 0 1-2.502 14.794c-.812 2.321.576 4.939 3.036 4.939 12.973 0 26.149-7.875 29.284-22.174 0 0-4.604-15.994-8.111-25.131a115.8 115.8 0 0 0-23.592-37.627C142.653 2.79 128.618 0 113.935 0 51.01 0 0 51.219 0 114.4q0 1.07.02 2.137c.576 31.622 13.932 60.109 35.1 80.475 11.29 3.671 23.34 5.655 35.856 5.655 53.177 0 97.982-35.822 111.574-84.638z"/></svg>