<svg xmlns="http://www.w3.org/2000/svg" fill="none" viewBox="0 0 228 256"><path fill="#2CD4A6" fill-rule="evenodd" d="M24.514 247.543c-1.285 3.511.742 7.443 4.453 7.897 3.022.37 6.1.56 9.221.56 23.863 0 45.124-11.122 58.868-28.459a114.6 114.6 0 0 0 16.974 1.259c58.951 0 107.453-44.879 113.414-102.439.464-4.487-3.173-8.236-7.685-8.247l-37.056-.085c-13.603 48.816-58.446 84.638-111.668 84.638-12.525 0-24.587-1.984-35.886-5.655l.017.017s-.84 23.7-10.652 50.514M201.925 41.515c-12.226-14.823-28.104-26.5-46.253-33.647a115.8 115.8 0 0 1 23.612 37.627c3.51 9.137 8.117 25.13 8.117 25.13 5.308 12.345 10.925 19.714 28.674 22.323 5.131.754 9.187-3.995 7.753-8.98-4.477-15.562-12.14-30.616-21.903-42.453" clip-rule="evenodd"/><path fill="#04EDBF" d="M112.695 117.867c-24.778 0-44.865-20.058-44.865-44.8 0-24.743 20.087-44.8 44.865-44.8 12.048 0 22.988 4.743 31.048 12.46 8.515 8.155 13.816 19.629 13.816 32.34 0 5.183-.882 10.16-2.503 14.79-.813 2.323.576 4.943 3.037 4.943 12.984 0 26.171-7.875 29.308-22.174 0 0-4.607-15.994-8.117-25.131a115.8 115.8 0 0 0-23.612-37.627C142.772 2.79 128.726 0 114.03 0 51.053 0 0 51.219 0 114.4q0 1.07.02 2.137c.577 31.622 13.943 60.109 35.129 80.475 11.3 3.671 23.36 5.655 35.886 5.655 53.222 0 98.065-35.822 111.668-84.638z"/></svg>
