<svg width="228" height="256" viewBox="0 0 228 256" fill="none" xmlns="http://www.w3.org/2000/svg">
<path fill-rule="evenodd" clip-rule="evenodd" d="M24.5136 247.543C23.2287 251.054 25.2564 254.986 28.9673 255.44C31.989 255.81 35.0662 256 38.188 256C62.0507 256 83.3119 244.878 97.0563 227.541C102.594 228.37 108.262 228.8 114.03 228.8C172.981 228.8 221.483 183.921 227.444 126.361C227.908 121.874 224.271 118.125 219.759 118.114L182.703 118.029C169.1 166.845 124.257 202.667 71.035 202.667C58.5095 202.667 46.4481 200.683 35.1488 197.012L35.1664 197.029C35.1664 197.029 34.3265 220.729 24.5136 247.543ZM201.925 41.5146C189.699 26.6925 173.821 15.0141 155.672 7.86841C165.801 18.6758 173.879 31.4245 179.284 45.495C182.794 54.6318 187.401 70.6255 187.401 70.6255C192.709 82.9698 198.326 90.3393 216.075 92.9482C221.206 93.7024 225.262 88.953 223.828 83.9689C219.351 68.4063 211.688 53.352 201.925 41.5146Z" fill="#2CD4A6"/>
<path d="M112.695 117.867C87.9167 117.867 67.8304 97.809 67.8304 73.0667C67.8304 48.3243 87.9167 28.2667 112.695 28.2667C124.743 28.2667 135.683 33.0096 143.743 40.7278C152.258 48.8816 157.559 60.356 157.559 73.0667C157.559 78.2496 156.677 83.2269 155.056 87.8574C154.243 90.1802 155.632 92.8 158.093 92.8V92.8C171.077 92.8 184.264 84.925 187.401 70.6255C187.401 70.6255 182.794 54.6318 179.284 45.495C173.879 31.4245 165.801 18.6758 155.672 7.86841C142.772 2.78908 128.726 0 114.03 0C51.0529 0 0 51.2186 0 114.4C0 115.114 0.00651773 115.826 0.019494 116.537C0.59687 148.159 13.9634 176.646 35.1488 197.012C46.4481 200.683 58.5095 202.667 71.035 202.667C124.257 202.667 169.1 166.845 182.703 118.029L112.695 117.867Z" fill="#04EDBF"/>
</svg>
