<svg xmlns="http://www.w3.org/2000/svg" fill="none" viewBox="0 0 244 256"><path fill="url(#paint0_linear_10243_746)" d="M163.202 94.59c-19.501-19.418-50.499-19.418-69.796 0-19.298 19.631-19.092 51.576.206 71.203 19.294 19.631 50.703 19.836 70.001.209q.493-.5 4.067-4.547l-23.268-23.696a320 320 0 0 1-3.791 4.441 16.64 16.64 0 0 1-11.907 5.013 16.65 16.65 0 0 1-11.908-5.013c-6.569-6.684-6.569-17.541-.202-24.014 6.362-6.472 17.04-6.472 23.606.209l62.227 63.249c-17.041 25.055-45.598 40.945-76.394 40.945-50.91 0-92.376-42.388-92.376-94.587 0-52.203 41.467-94.59 92.38-94.59 29.766 0 57.07 14.616 74.107 38.212-2.746 3.24-9.758 11.377-21.04 24.4l22.96 23.287 38.11-43.721C220.478 30.069 175.931 0 126.043 0 56.868 0 .82 57.422.82 128.002.82 198.578 56.862 256 126.047 256c31.409 0 57.478-10.024 82.936-32.158 23.198-20.045 34.101-47.838 34.101-47.838z"/><defs><linearGradient id="paint0_linear_10243_746" x1="243.084" x2=".82" y1="128.002" y2="128.002" gradientUnits="userSpaceOnUse"><stop stop-color="#22E6B8"/><stop offset="1" stop-color="#00C1CE"/></linearGradient></defs></svg>
