<svg width="239" height="256" viewBox="0 0 239 256" fill="none" xmlns="http://www.w3.org/2000/svg">
<path d="M65.6111 87.2357L93.5694 88.1101C123.485 89.0456 126.076 89.6897 137.061 98.931C139.989 101.393 144.107 107.106 146.214 111.627C155.437 131.43 147.547 154.729 128.054 165.244C121.905 168.563 118.991 168.793 77.3037 169.266L33.0777 169.769L16.5307 211.661C7.43148 234.703 -0.00814856 254.104 6.6984e-06 254.777C0.00816196 255.45 29.8197 256 66.2472 256C139.634 256 141.806 255.762 164.74 245.179C214.057 222.424 244.684 167.898 238.117 114.548C231.132 57.8242 188.293 12.105 133.141 2.5172C125.175 1.13325 114.461 0 109.333 0H100.01L65.6111 87.2357Z" fill="white"/>
</svg>
