<svg xmlns="http://www.w3.org/2000/svg" fill="none" viewBox="0 0 239 256"><path fill="#fff" d="m65.611 87.236 27.958.874c29.916.936 32.507 1.58 43.492 10.821 2.928 2.462 7.046 8.175 9.153 12.696 9.223 19.803 1.333 43.102-18.16 53.617-6.149 3.319-9.063 3.549-50.75 4.022l-44.226.503-16.547 41.892C7.43 234.703-.01 254.104 0 254.777.008 255.45 29.82 256 66.247 256c73.387 0 75.559-.238 98.493-10.821 49.317-22.755 79.944-77.281 73.377-130.631-6.985-56.724-49.824-102.443-104.976-112.03C125.175 1.132 114.461 0 109.333 0h-9.323z"/></svg>
