<svg xmlns="http://www.w3.org/2000/svg" fill="none" viewBox="0 0 348 256"><path fill="url(#paint0_linear_10907_809)" fill-rule="evenodd" d="M339.313 0c4.98 0 8.81 4.08 8.681 8.924-1.658 56.48-18.764 109.64-48.765 150.311-32.932 44.876-77.485 69.479-125.228 69.479-35.233 0-68.679-13.385-97.019-38.372-2.553-2.421-3.574-6.12-2.427-9.434 3.193-9.18 6.897-17.849 11.234-26.137a8.53 8.53 0 0 1 6.276-4.569 8.54 8.54 0 0 1 7.385 2.403c21.191 20.783 46.848 33.018 74.551 33.018 37.275 0 70.976-22.183 94.85-57.625-23.874-35.438-57.575-57.624-94.85-57.624-70.34 0-127.911 78.791-130.975 177.338a8.57 8.57 0 0 1-2.601 5.867 8.6 8.6 0 0 1-5.95 2.421H8.685a8.7 8.7 0 0 1-6.236-2.626 8.65 8.65 0 0 1-2.445-6.302c1.277-42.962 11.49-84.013 29.49-119.07C11.494 92.937 1.281 52.019.004 8.921-.122 4.08 3.834 0 8.684 0h25.787a8.6 8.6 0 0 1 5.953 2.42 8.57 8.57 0 0 1 2.602 5.868c.892 27.793 6.127 53.93 14.682 77.258 31.914-37.61 72.764-58.134 116.293-58.134 43.532 0 84.382 20.527 116.296 58.134 8.68-23.332 13.787-49.465 14.678-77.258a8.57 8.57 0 0 1 2.603-5.868A8.6 8.6 0 0 1 313.53 0zm-20.04 164.589c4.085-5.99 13.021-4.589 15.189 2.295 8.174 25.117 12.769 52.27 13.535 80.192.126 4.844-3.83 8.924-8.68 8.924H313.53a8.6 8.6 0 0 1-5.952-2.42 8.57 8.57 0 0 1-2.603-5.868 254.5 254.5 0 0 0-6.764-51.251 8.93 8.93 0 0 1 2.043-7.904 228 228 0 0 0 14.679-17.848c1.531-2.04 2.934-4.08 4.34-6.12" clip-rule="evenodd"/><defs><linearGradient id="paint0_linear_10907_809" x1="174.001" x2="174.001" y1="0" y2="256" gradientUnits="userSpaceOnUse"><stop stop-color="#55C1F8"/><stop offset=".505" stop-color="#0085FF"/><stop offset="1" stop-color="#4A4CFF"/></linearGradient></defs></svg>