<svg width="264" height="256" viewBox="0 0 264 256" fill="none" xmlns="http://www.w3.org/2000/svg">
<path d="M263.331 128.916C262.422 90.0944 243.832 68.3985 225.476 56.4006C210.769 46.9547 193.631 41.9919 176.151 42.1173H171.757V0H130.386V42.1173H85.3391V0H43.9543V42.1173H0.738281L0.928725 85.3333H43.7785V170.491H0.738281V212.418H43.9543V256H85.3391V212.418H130.386V256H171.771V212.418H179.096C193.53 212.503 207.757 208.978 220.481 202.163C264.429 178.284 263.331 128.916 263.331 128.916ZM216.174 148.575C213.486 153.823 209.699 158.43 205.07 162.082C197.696 167.739 188.638 170.762 179.345 170.667H85.4563V85.4505L179.594 85.2161C184.009 85.1686 188.407 85.7708 192.647 87.0034C197.543 88.4442 202.106 90.8387 206.073 94.0492C210.04 97.2597 213.334 101.223 215.764 105.711C219.356 112.27 221.273 119.614 221.344 127.092C221.416 134.569 219.64 141.949 216.174 148.575Z" fill="#44D7C1"/>
</svg>
