<svg xmlns="http://www.w3.org/2000/svg" fill="none" viewBox="0 0 264 256"><path fill="#44D7C1" d="M263.331 128.916c-.909-38.822-19.499-60.517-37.855-72.515a90.1 90.1 0 0 0-49.325-14.284h-4.394V0h-41.371v42.117H85.339V0H43.954v42.117H.738l.19 43.216h42.85v85.158H.739v41.927h43.216V256H85.34v-43.582h45.047V256h41.385v-43.582h7.325a86.6 86.6 0 0 0 41.385-10.255c43.948-23.879 42.85-73.247 42.85-73.247m-47.157 19.659a41 41 0 0 1-11.104 13.507 41.57 41.57 0 0 1-25.725 8.585h-93.89V85.451l94.138-.235a45 45 0 0 1 13.053 1.787 38.72 38.72 0 0 1 23.117 18.708 45.41 45.41 0 0 1 .41 42.864"/></svg>
