<svg xmlns="http://www.w3.org/2000/svg" fill="none" viewBox="0 0 320 256"><path fill="url(#paint0_linear_9885_1233)" fill-rule="evenodd" d="M58.483 164.381c2.858 42.602 52.289 92.132 100.729 91.615 52.793-.564 101.485-47.504 101.485-91.992v-1.509c60.362-32.423 58.476-72.764 58.476-72.764l-72.435 45.242c56.967-43.734 56.213-91.616 56.213-91.616l-76.208 72.765C277.674 34.686 259.942 0 259.942 0L199.58 98.025c-12.45-3.393-26.031-5.278-40.368-5.278h-1.509c-14.713 0-27.917 1.885-40.367 5.278L58.86 0S38.865 31.67 89.418 113.483L15.852 43.357s-7.168 42.226 53.194 88.977c0 .754-69.04-42.226-69.04-42.226s-1.886 40.341 58.477 72.764zm173.542 7.54s-17.355-1.131-27.918 9.425c-9.809 9.803-9.432 27.9-9.432 27.9s17.355 1.131 27.918-9.426c10.941-10.179 9.432-27.899 9.432-27.899m-113.934 9.425c-10.187-10.933-27.918-9.425-27.918-9.425s-1.132 18.097 9.432 27.899c10.186 10.934 27.917 9.426 27.917 9.426s1.132-17.343-9.431-27.9" clip-rule="evenodd"/><defs><linearGradient id="paint0_linear_9885_1233" x1="60.241" x2="236.962" y1="431.554" y2="20.746" gradientUnits="userSpaceOnUse"><stop stop-color="#F5477B"/><stop offset="1" stop-color="#CD31AE"/></linearGradient></defs></svg>