<svg xmlns="http://www.w3.org/2000/svg" fill="none" viewBox="0 0 319 256"><path fill="url(#paint0_linear_9885_1233)" fill-rule="evenodd" d="M58.45 164.381c2.856 42.602 52.26 92.132 100.673 91.615 52.762-.564 101.427-47.504 101.427-91.992v-1.509c60.329-32.423 58.443-72.764 58.443-72.764l-72.394 45.242c56.935-43.734 56.181-91.616 56.181-91.616l-76.165 72.765C277.518 34.686 259.796 0 259.796 0l-60.328 98.025c-12.443-3.393-26.017-5.278-40.345-5.278h-1.508c-14.705 0-27.902 1.885-40.345 5.278L58.827 0S38.843 31.67 89.368 113.483L15.843 43.357s-7.164 42.226 53.164 88.977c0 .754-69-42.226-69-42.226s-1.886 40.341 58.443 72.764zm173.444 7.54s-17.344-1.131-27.902 9.425c-9.803 9.803-9.426 27.9-9.426 27.9s17.344 1.131 27.902-9.426c10.934-10.179 9.426-27.899 9.426-27.899m-113.87 9.425c-10.18-10.933-27.902-9.425-27.902-9.425s-1.13 18.097 9.427 27.899c10.18 10.934 27.901 9.426 27.901 9.426s1.132-17.343-9.426-27.9" clip-rule="evenodd"/><defs><linearGradient id="paint0_linear_9885_1233" x1="60.208" x2="236.997" y1="431.554" y2="20.819" gradientUnits="userSpaceOnUse"><stop stop-color="#F5477B"/><stop offset="1" stop-color="#CD31AE"/></linearGradient></defs></svg>