<svg xmlns="http://www.w3.org/2000/svg" fill="none" viewBox="0 0 267 256"><path fill="#fff" fill-rule="evenodd" d="M188.415 64c3.493 2.155 9.091 7.915 13.289 18.699l60.139-12.95c-8.396-30.922-30.764-53.034-60.139-64.362C192.613 1.877 176.526 0 162.533 0H61.149c-2.093 0-4.187 1.44-4.187 3.595l-6.303 46.741c0 2.155 1.4 4.32 4.199 4.32h99.983c13.994.715 25.189 3.595 33.574 9.344m-49.639 191.285c35.667 0 67.831-9.354 92.292-38.112 18.886-22.293 31.47-57.536 34.974-92.053l-65.033 14.389c-9.09 40.267-27.271 60.406-65.032 60.406H91.23L83.539 256z" clip-rule="evenodd"/><path fill="#01B5AB" fill-rule="evenodd" d="M91.924 194.88c1.388-7.915 4.198-28.768 4.892-36.683 0-2.154 2.105-3.594 4.198-3.594h34.963c2.093 0 3.493-1.44 4.198-3.595l6.291-47.467c0-2.154-1.399-4.31-4.198-4.31H47.177c-2.105 0-3.504 1.441-4.198 3.596L31.089 192c-.704 5.76-2.798 10.784-5.597 15.819L1.03 248.811c-1.41 2.88 0 6.474 3.483 6.474h79.72z" clip-rule="evenodd"/></svg>