<svg width="394" height="256" viewBox="0 0 394 256" fill="none" xmlns="http://www.w3.org/2000/svg">
<path fill-rule="evenodd" clip-rule="evenodd" d="M0 59.0769C0 26.4497 26.4599 0 59.1 0H334.9C367.54 0 394 26.4496 394 59.0769V196.923C394 229.55 367.54 256 334.9 256H59.1C26.4599 256 0 229.55 0 196.923V59.0769ZM197 128C197 171.503 161.72 206.769 118.2 206.769C74.6799 206.769 39.4 171.503 39.4 128C39.4 84.4973 74.6799 49.2308 118.2 49.2308C161.72 49.2308 197 84.4973 197 128ZM197 128C197 84.4973 232.28 49.2308 275.8 49.2308C319.32 49.2308 354.6 84.4973 354.6 128C354.6 171.503 319.32 206.769 275.8 206.769C232.28 206.769 197 171.503 197 128Z" fill="white"/>
</svg>
