<svg xmlns="http://www.w3.org/2000/svg" fill="none" viewBox="0 0 228 256"><mask id="mask0_9886_1467" width="225" height="59" x="0" y="0" maskUnits="userSpaceOnUse" style="mask-type:luminance"><path fill="#fff" d="m0 58.748 101.858-25.71a96 96 0 0 1 22.992-2.787h.207c2.227-.155 52.405-3.2 91.139 26.277l7.819-1.962C196 14.61 146.34-4.75 98.493 5.73v-.05L51.42 17.5 53.026 0z"/></mask><g mask="url(#mask0_9886_1467)"><path fill="url(#paint0_linear_9886_1467)" d="M224.015-4.8H0v63.548h224.015z"/></g><mask id="mask1_9886_1467" width="225" height="60" x="3" y="197" maskUnits="userSpaceOnUse" style="mask-type:luminance"><path fill="#fff" d="M125.264 222.961a96 96 0 0 1-22.992 2.787h-.208c-2.226.155-52.404 3.2-91.138-26.276l-7.82 1.962c28.015 39.956 77.676 59.315 125.523 48.834v.052l47.072-11.821L174.095 256l52.975-58.8z"/></mask><g mask="url(#mask1_9886_1467)"><path fill="url(#paint1_linear_9886_1467)" d="M227.122 197.252H3.106v63.547h224.016z"/></g><mask id="mask2_9886_1467" width="124" height="152" x="52" y="54" maskUnits="userSpaceOnUse" style="mask-type:luminance"><path fill="#fff" d="M80.834 54.668c-15.846 0-28.74 11.72-28.74 26.174v98.704c0 14.454 12.842 26.172 28.74 26.172h94.194c0-16.674-14.862-30.199-33.142-30.199h-18.642c-18.435 0-33.348-13.629-33.348-30.406h48.78c9.165 0 16.57-6.763 16.57-15.126s-7.405-15.126-16.57-15.126h-48.78c0-16.57 14.758-30.044 32.934-30.044h19.056c18.331 0 33.142-13.525 33.142-30.2H80.834z"/></mask><g mask="url(#mask2_9886_1467)"><path fill="url(#paint2_linear_9886_1467)" d="M175.028 54.668H52.094v151.05h122.934z"/></g><mask id="mask3_9886_1467" width="124" height="58" x="52" y="54" maskUnits="userSpaceOnUse" style="mask-type:luminance"><path fill="#fff" d="M80.834 54.668c-15.846 0-28.74 11.718-28.74 26.173v30.303c0-14.455 12.842-26.173 28.74-26.173l9.061-.103h51.991c18.331 0 33.142-13.526 33.142-30.2z"/></mask><g mask="url(#mask3_9886_1467)"><path fill="url(#paint3_linear_9886_1467)" d="M175.028 54.668H52.094v56.476h122.934z"/></g><mask id="mask4_9886_1467" width="124" height="57" x="52" y="149" maskUnits="userSpaceOnUse" style="mask-type:luminance"><path fill="#fff" d="M52.094 179.495c0 14.454 12.842 26.173 28.74 26.173h94.194c0-16.675-14.862-30.2-33.142-30.2h-51.99l-9.062-.103c-15.846 0-28.74-11.719-28.74-26.173z"/></mask><g mask="url(#mask4_9886_1467)"><path fill="url(#paint4_linear_9886_1467)" d="M175.028 149.242H52.094v56.476h122.934z"/></g><mask id="mask5_9886_1467" width="122" height="58" x="52" y="88" maskUnits="userSpaceOnUse" style="mask-type:luminance"><path fill="#fff" d="M52.094 119.146c0 14.455 12.842 26.173 28.74 26.173h92.537c0-16.674-14.862-30.199-33.142-30.199h.673l-60.016-.104c-15.846 0-28.74-11.718-28.74-26.173v30.303z"/></mask><g mask="url(#mask5_9886_1467)"><path fill="url(#paint5_linear_9886_1467)" d="M173.319 88.843H52.094v56.476h121.225z"/></g><defs><linearGradient id="paint0_linear_9886_1467" x1=".023" x2="224.025" y1="27.014" y2="27.014" gradientUnits="userSpaceOnUse"><stop stop-color="#0056D4"/><stop offset="1" stop-color="#2EFFEF"/></linearGradient><linearGradient id="paint1_linear_9886_1467" x1="3.104" x2="227.106" y1="229.026" y2="229.026" gradientUnits="userSpaceOnUse"><stop stop-color="#0056D4"/><stop offset="1" stop-color="#2EFFEF"/></linearGradient><linearGradient id="paint2_linear_9886_1467" x1="113.558" x2="113.558" y1="205.685" y2="54.658" gradientUnits="userSpaceOnUse"><stop stop-color="#0056D4"/><stop offset="1" stop-color="#2EFFEF"/></linearGradient><linearGradient id="paint3_linear_9886_1467" x1="52.096" x2="175.032" y1="82.889" y2="82.889" gradientUnits="userSpaceOnUse"><stop stop-color="#0056D4"/><stop offset="1" stop-color="#2EFFEF"/></linearGradient><linearGradient id="paint4_linear_9886_1467" x1="52.096" x2="175.032" y1="177.44" y2="177.44" gradientUnits="userSpaceOnUse"><stop stop-color="#0056D4"/><stop offset="1" stop-color="#2EFFEF"/></linearGradient><linearGradient id="paint5_linear_9886_1467" x1="52.096" x2="173.338" y1="117.088" y2="117.088" gradientUnits="userSpaceOnUse"><stop stop-color="#0056D4"/><stop offset="1" stop-color="#2EFFEF"/></linearGradient></defs></svg>
