<svg xmlns="http://www.w3.org/2000/svg" fill="none" viewBox="0 0 259 256"><path fill="#fff" d="M18.641 16.37C10.168 25.261 3.178 32.74 3.107 32.883c-.07.212 7.555 7.691 16.947 16.582 9.39 8.962 17.582 16.794 18.147 17.288l1.059.988-1.907 3.175c-16.735 27.66-20.194 60.966-9.673 91.59 1.977 5.786 5.366 13.195 8.26 18.064 1.413 2.399 2.049 3.951 1.907 4.234-.14.282-8.685 9.314-18.994 20.11C8.544 215.638.141 224.6 0 224.741c-.07.212 28.81 28.084 31.563 30.342l1.06.917 16.31-17.006c8.968-9.384 17.37-18.205 18.642-19.545l2.4-2.399 2.26 1.411c11.51 7.338 24.996 12.419 39.895 15.1 7.485 1.341 21.748 1.694 29.727.706 15.393-1.764 30.645-6.915 43.143-14.465l3.248-1.976 3.46 3.387c7.555 7.338 35.8 34.152 36.082 34.293s31.281-32.247 31.21-32.67c-.071-.212-21.325-20.604-34.317-32.812l-4.307-4.092 1.977-3.246c16.593-27.59 20.053-61.037 9.321-91.872-1.554-4.516-6.285-14.677-9.039-19.334l-1.341-2.329 18.147-18.981c9.956-10.373 18.076-19.052 18.005-19.264-.282-.705-32.057-30.694-32.48-30.694-.283 0-8.262 8.114-17.794 18.134-9.533 9.95-17.441 18.135-17.653 18.205-.141.07-1.059-.352-1.906-.988-2.401-1.623-8.474-4.939-11.863-6.491-10.309-4.728-19.912-7.621-31.069-9.244-5.79-.847-23.16-.988-28.526-.212-12.852 1.835-23.373 5.01-34.105 10.373-3.107 1.482-6.708 3.457-8.12 4.304l-2.543 1.553-2.895-2.823c-1.553-1.552-8.614-8.185-15.605-14.889-6.99-6.632-14.122-13.406-15.816-15.1L33.964 0zm118.556 46.007c11.227 1.34 21.253 5.151 30.503 11.643 4.731 3.316 11.792 10.373 15.111 15.1 18.853 26.673 15.252 62.942-8.473 85.169-20.265 18.911-49.569 23.144-74.212 10.584-17.794-9.102-30.363-25.755-34.387-45.724-1.271-6.351-1.271-18.205 0-24.485 1.2-6.21 2.824-10.655 5.86-16.865 12.145-24.414 38.483-38.668 65.598-35.422"/></svg>
