<svg width="259" height="256" viewBox="0 0 259 256" fill="none" xmlns="http://www.w3.org/2000/svg">
<path d="M18.6415 16.3705C10.1682 25.2613 3.17763 32.7409 3.10702 32.882C3.03641 33.0937 10.6624 40.5733 20.0538 49.4642C29.4451 58.4256 37.636 66.258 38.2009 66.7519L39.2601 67.7398L37.3536 70.9151C20.6187 98.5755 17.1587 131.881 27.6798 162.505C29.6569 168.291 33.0463 175.7 35.9413 180.569C37.3536 182.968 37.9891 184.52 37.8478 184.803C37.7066 185.085 29.1626 194.117 18.8534 204.913C8.54411 215.638 0.141352 224.6 0.000129267 224.741C-0.0704822 224.953 28.8096 252.825 31.5634 255.083L32.6226 256L48.9338 238.994C57.9015 229.61 66.3043 220.789 67.5753 219.449L69.976 217.05L72.2356 218.461C83.7453 225.799 97.232 230.88 112.131 233.561C119.616 234.902 133.879 235.255 141.858 234.267C157.252 232.503 172.504 227.352 185.002 219.802L188.25 217.826L191.71 221.213C199.266 228.551 227.51 255.365 227.793 255.506C228.075 255.647 259.073 223.259 259.003 222.836C258.932 222.624 237.678 202.232 224.686 190.024L220.378 185.932L222.355 182.686C238.949 155.096 242.409 121.649 231.676 90.8137C230.123 86.2977 225.392 76.1367 222.638 71.4796L221.296 69.151L239.443 50.1698C249.4 39.7971 257.52 31.118 257.449 30.9063C257.167 30.2007 225.392 0.211688 224.968 0.211688C224.686 0.211688 216.707 8.32635 207.174 18.3462C197.641 28.2955 189.733 36.4807 189.521 36.5513C189.38 36.6218 188.462 36.1985 187.615 35.5634C185.214 33.9405 179.141 30.624 175.752 29.0717C165.443 24.344 155.84 21.4509 144.683 19.828C138.893 18.9813 121.522 18.8401 116.156 19.6163C103.305 21.4509 92.7835 24.6262 82.0506 29.989C78.9437 31.4708 75.3425 33.4465 73.9303 34.2933L71.3883 35.8456L68.4932 33.0232C66.9398 31.4708 59.8786 24.8379 52.8881 18.1345C45.8976 11.5017 38.7658 4.72768 37.0711 3.03418L33.9642 0L18.6415 16.3705ZM137.198 62.3771C148.425 63.7177 158.452 67.5281 167.702 74.0198C172.433 77.3363 179.494 84.3925 182.813 89.1202C201.666 115.793 198.065 152.062 174.34 174.289C154.074 193.2 124.771 197.433 100.127 184.873C82.333 175.771 69.7642 159.118 65.7394 139.149C64.4684 132.798 64.4684 120.944 65.7394 114.664C66.9398 108.454 68.5638 104.009 71.6001 97.7993C83.7453 73.3848 110.083 59.1312 137.198 62.3771Z" fill="white"/>
</svg>
