<svg xmlns="http://www.w3.org/2000/svg" fill="none" viewBox="0 0 259 256"><path fill="#fff" d="M18.642 16.37C10.168 25.261 3.178 32.74 3.107 32.883c-.07.212 7.555 7.691 16.947 16.582 9.391 8.962 17.582 16.794 18.147 17.288l1.06.988-1.907 3.175c-16.735 27.66-20.195 60.966-9.674 91.59 1.977 5.786 5.366 13.195 8.261 18.064 1.413 2.399 2.048 3.951 1.907 4.234s-8.685 9.314-18.995 20.11C8.544 215.638.141 224.6 0 224.741c-.07.212 28.81 28.084 31.563 30.342l1.06.917 16.31-17.006a12334 12334 0 0 0 18.642-19.545l2.401-2.399 2.26 1.411c11.51 7.338 24.996 12.419 39.895 15.1 7.485 1.341 21.748 1.694 29.727.706 15.394-1.764 30.646-6.915 43.144-14.465l3.248-1.976 3.46 3.387c7.556 7.338 35.8 34.152 36.083 34.293.282.141 31.28-32.247 31.21-32.67-.071-.212-21.325-20.604-34.317-32.812l-4.308-4.092 1.977-3.246c16.594-27.59 20.054-61.037 9.321-91.872-1.553-4.516-6.284-14.677-9.038-19.334l-1.342-2.329 18.147-18.981c9.957-10.373 18.077-19.052 18.006-19.264-.282-.705-32.057-30.694-32.481-30.694-.282 0-8.261 8.114-17.794 18.134-9.533 9.95-17.441 18.135-17.653 18.205-.141.07-1.059-.352-1.906-.988-2.401-1.623-8.474-4.939-11.863-6.491-10.309-4.728-19.912-7.621-31.069-9.244-5.79-.847-23.161-.988-28.527-.212-12.851 1.835-23.373 5.01-34.105 10.373-3.107 1.482-6.709 3.457-8.12 4.304l-2.543 1.553-2.895-2.823c-1.553-1.552-8.614-8.185-15.605-14.889-6.99-6.632-14.122-13.406-15.817-15.1L33.964 0zm118.556 46.007c11.227 1.34 21.254 5.151 30.504 11.643 4.731 3.316 11.792 10.373 15.111 15.1 18.853 26.673 15.252 62.942-8.473 85.169-20.266 18.911-49.569 23.144-74.213 10.584-17.794-9.102-30.363-25.755-34.388-45.724-1.27-6.351-1.27-18.205 0-24.485 1.2-6.21 2.825-10.655 5.861-16.865 12.145-24.414 38.483-38.668 65.598-35.422"/></svg>