<svg xmlns="http://www.w3.org/2000/svg" fill="none" viewBox="0 0 348 256"><path fill="url(#paint0_linear_10243_974)" fill-rule="evenodd" d="M338.868 0c4.974 0 8.799 4.08 8.669 8.924-1.655 56.48-18.739 109.64-48.7 150.311-32.889 44.876-77.384 69.479-125.064 69.479-35.187 0-68.589-13.385-96.892-38.372-2.55-2.421-3.57-6.12-2.424-9.434 3.19-9.18 6.888-17.849 11.22-26.137a8.524 8.524 0 0 1 13.642-2.166c21.163 20.783 46.787 33.018 74.454 33.018 37.226 0 70.883-22.183 94.725-57.625-23.842-35.438-57.499-57.624-94.725-57.624-70.248 0-127.744 78.791-130.803 177.338A8.574 8.574 0 0 1 34.43 256H8.672a8.66 8.66 0 0 1-6.227-2.626 8.65 8.65 0 0 1-2.442-6.302c1.275-42.962 11.474-84.013 29.452-119.07C11.478 92.937 1.279 52.019.004 8.921-.122 4.08 3.83 0 8.674 0h25.752a8.574 8.574 0 0 1 8.543 8.288c.891 27.793 6.12 53.93 14.663 77.258 31.872-37.61 72.669-58.134 116.141-58.134 43.475 0 84.271 20.527 116.143 58.134 8.669-23.332 13.769-49.465 14.66-77.258A8.57 8.57 0 0 1 313.119 0zm-20.014 164.589c4.08-5.99 13.004-4.589 15.17 2.295 8.162 25.117 12.752 52.27 13.517 80.192.126 4.844-3.825 8.924-8.669 8.924h-25.753a8.573 8.573 0 0 1-8.543-8.288 255 255 0 0 0-6.756-51.251 8.95 8.95 0 0 1 2.04-7.904 228 228 0 0 0 14.66-17.848c1.53-2.04 2.93-4.08 4.334-6.12" clip-rule="evenodd"/><defs><linearGradient id="paint0_linear_10243_974" x1="173.773" x2="173.773" y1="0" y2="256" gradientUnits="userSpaceOnUse"><stop stop-color="#55C1F8"/><stop offset=".505" stop-color="#0085FF"/><stop offset="1" stop-color="#4A4CFF"/></linearGradient></defs></svg>