<svg xmlns="http://www.w3.org/2000/svg" fill="none" viewBox="0 0 236 256"><path fill="url(#paint0_linear_10243_964)" d="m160.588 188.775-39.977-16.765c-17.798 13.824-48.606 26.683-56.8 19.798l-.108.078c14.262 14.353 33.297 23.966 54.528 26.268l.374-.39c18.196-9.474 30.741-19.539 41.983-28.989"/><path fill="#EBFF68" d="M128.136 0C57.369 0 0 57.308 0 128s57.369 128 128.136 128a128.24 128.24 0 0 0 61.262-15.649 128.1 128.1 0 0 0 46.311-43.008h.134v-82.719h-37.718l-20.171-.041c-9.241 13.887-21.354 26.384-33.743 38.743h53.914v31.654a90.8 90.8 0 0 1-31.202 24.712 90.9 90.9 0 0 1-38.787 8.995c-3.347 0-6.652-.181-9.905-.533-21.231-2.302-40.266-11.915-54.528-26.268l-.034-.034.104-.076.021.018.016.014.055-.04c-9.46-10.764 5.68-67.316 75.894-133.311-38.077 11.485-77.567 44.705-100.882 85.53l-.115.018A91 91 0 0 1 37.352 128c0-50.085 40.646-90.687 90.784-90.687a90.86 90.86 0 0 1 42.836 10.932 90.75 90.75 0 0 1 32.587 29.848l31.258-20.781a128.1 128.1 0 0 0-46.132-42.045A128.24 128.24 0 0 0 128.136 0"/><defs><linearGradient id="paint0_linear_10243_964" x1="96.084" x2="109.858" y1="208.294" y2="183.097" gradientUnits="userSpaceOnUse"><stop stop-color="#EBFF68"/><stop offset="1" stop-color="#EBFF68" stop-opacity="0"/></linearGradient></defs></svg>