<svg xmlns="http://www.w3.org/2000/svg" fill="none" viewBox="0 0 236 256"><path fill="url(#paint0_linear_10243_964)" d="m160.695 188.775-40.003-16.765c-17.811 13.824-48.638 26.683-56.84 19.798l-.106.078c14.271 14.353 33.319 23.966 54.564 26.268l.374-.39c18.208-9.474 30.761-19.539 42.011-28.989"/><path fill="#EBFF68" d="M128.222 0C57.407 0 0 57.308 0 128s57.407 128 128.222 128a128.4 128.4 0 0 0 61.302-15.649 128.1 128.1 0 0 0 46.342-43.008H236v-82.719h-37.743l-20.184-.041c-9.248 13.887-21.369 26.384-33.766 38.743h53.95v31.654a90.8 90.8 0 0 1-31.222 24.712 91 91 0 0 1-38.813 8.995c-3.349 0-6.656-.181-9.912-.533-21.245-2.302-40.293-11.915-54.564-26.268l-.034-.034.103-.076.022.018.016.014.055-.04c-9.466-10.764 5.683-67.316 75.944-133.311-38.102 11.485-77.618 44.705-100.949 85.53l-.115.018A91 91 0 0 1 37.378 128c0-50.085 40.672-90.687 90.844-90.687a91 91 0 0 1 42.864 10.932 90.8 90.8 0 0 1 32.609 29.848l31.278-20.781a128.1 128.1 0 0 0-46.162-42.045A128.4 128.4 0 0 0 128.222 0"/><defs><linearGradient id="paint0_linear_10243_964" x1="96.148" x2="109.917" y1="208.294" y2="183.089" gradientUnits="userSpaceOnUse"><stop stop-color="#EBFF68"/><stop offset="1" stop-color="#EBFF68" stop-opacity="0"/></linearGradient></defs></svg>