<svg width="274" height="256" viewBox="0 0 274 256" fill="none" xmlns="http://www.w3.org/2000/svg">
<path d="M98.9332 53.4743L85.9656 103.595L0 115.105L98.9332 53.4743Z" fill="#57BAE5"/>
<path d="M143.663 164.791L115.834 152.988L122.246 256L143.663 164.791Z" fill="#005472"/>
<path d="M85.9656 103.595L63.3819 151.24L0 115.105L85.9656 103.595Z" fill="#34AFE4"/>
<path d="M115.834 152.988L63.3819 151.24L122.246 256L115.834 152.988Z" fill="#0076A7"/>
<path d="M85.9656 103.595L115.834 152.988L63.3819 151.24L85.9656 103.595Z" fill="#009DE2"/>
<path d="M98.9332 53.4743L170.327 62.6529L85.9656 103.595L98.9332 53.4743ZM248.423 30.5975L203.402 84.0718L206.608 34.5308L248.423 30.5975ZM248.423 30.5975L273.194 0L267.803 33.0744L248.423 30.5975Z" fill="#7ACDF2"/>
<path d="M224.092 58.4266L267.803 33.0744L248.423 30.5975L224.092 58.4266Z" fill="#00ABE7"/>
<path d="M143.663 164.791L145.703 103.45L115.834 152.988L143.663 164.791Z" fill="#0076A7"/>
<path d="M145.703 103.45L115.834 152.988L85.9656 103.595L145.703 103.45Z" fill="#008DBE"/>
<path d="M170.327 62.6529L145.703 103.45L85.9656 103.595L170.327 62.6529Z" fill="#57BAE5"/>
<path d="M145.703 103.45L143.663 164.791L198.448 222.051L145.703 103.45Z" fill="#00698D"/>
<path d="M227.006 190.143L198.157 116.563L198.448 222.051L227.006 190.143Z" fill="#09A1CB"/>
<path d="M203.402 84.0718L198.157 116.563L145.703 103.45L203.402 84.0718Z" fill="#09A1CB"/>
<path d="M229.92 128.219L198.157 116.563L203.402 84.0718L229.92 128.219Z" fill="#8BDAFF"/>
<path d="M241.43 187.957L206.608 131.133H226.423L241.43 187.957Z" fill="#7ACDF2"/>
<path d="M176.738 50.5585L203.402 84.0718L206.608 34.5308L176.738 50.5585Z" fill="#57BAE5"/>
<path d="M198.157 116.563L145.703 103.45L198.448 222.051L198.157 116.563Z" fill="#008DBE"/>
<path d="M227.006 190.143L238.662 196.699L198.594 222.051L227.006 190.143Z" fill="#0076A7"/>
<path d="M241.43 187.374L198.157 116.563L227.006 190.143L241.43 187.374Z" fill="#57BAE5"/>
<path d="M176.738 50.5585L145.703 103.45L203.402 84.0718L176.738 50.5585Z" fill="#7ACDF2"/>
</svg>
