<svg xmlns="http://www.w3.org/2000/svg" fill="none" viewBox="0 0 274 256"><path fill="#57BAE5" d="m98.933 53.474-12.967 50.121L0 115.105z"/><path fill="#005472" d="m143.663 164.791-27.829-11.803L122.246 256z"/><path fill="#34AFE4" d="M85.966 103.595 63.382 151.24 0 115.105z"/><path fill="#0076A7" d="m115.834 152.988-52.452-1.748L122.246 256z"/><path fill="#009DE2" d="m85.966 103.595 29.868 49.393-52.452-1.748z"/><path fill="#7ACDF2" d="m98.933 53.474 71.394 9.179-84.361 40.942zm149.49-22.876-45.021 53.474 3.206-49.541zm0 0L273.194 0l-5.391 33.074z"/><path fill="#00ABE7" d="m224.092 58.427 43.711-25.353-19.38-2.476z"/><path fill="#0076A7" d="m143.663 164.791 2.04-61.341-29.869 49.538z"/><path fill="#008DBE" d="m145.703 103.45-29.869 49.538-29.868-49.393z"/><path fill="#57BAE5" d="m170.327 62.653-24.624 40.797-59.737.145z"/><path fill="#00698D" d="m145.703 103.45-2.04 61.341 54.785 57.26z"/><path fill="#09A1CB" d="m227.006 190.143-28.849-73.58.291 105.488zM203.402 84.072l-5.245 32.491-52.454-13.113z"/><path fill="#8BDAFF" d="m229.92 128.219-31.763-11.656 5.245-32.491z"/><path fill="#7ACDF2" d="m241.43 187.957-34.822-56.824h19.815z"/><path fill="#57BAE5" d="m176.738 50.559 26.664 33.513 3.206-49.541z"/><path fill="#008DBE" d="m198.157 116.563-52.454-13.113 52.745 118.601z"/><path fill="#0076A7" d="m227.006 190.143 11.656 6.556-40.068 25.352z"/><path fill="#57BAE5" d="m241.43 187.374-43.273-70.811 28.849 73.58z"/><path fill="#7ACDF2" d="m176.738 50.559-31.035 52.891 57.699-19.378z"/></svg>