<svg xmlns="http://www.w3.org/2000/svg" fill="none" viewBox="0 0 372 256"><path fill="#427DF4" fill-rule="evenodd" d="M.826 142.13C.826 79.25 50.827 28.26 112.5 28.26v171.412h31.058V142.13h85.458c0 62.183-51.971 112.712-116.531 113.839 0 .059-.948.015-1.067.015C49.82 256.785.826 202.178.826 142.13" clip-rule="evenodd"/><path fill="#427DF4" fill-rule="evenodd" d="M371.096 113.87c0 62.895-50.001 113.869-111.673 113.869V56.328h-31.059v57.542h-85.458c0-62.183 51.971-112.712 116.532-113.84 0-.058.947-.014 1.066-.014 61.598-.8 110.592 53.806 110.592 113.854" clip-rule="evenodd"/></svg>
