<svg width="372" height="256" viewBox="0 0 372 256" fill="none" xmlns="http://www.w3.org/2000/svg">
<path fill-rule="evenodd" clip-rule="evenodd" d="M0.826172 142.13C0.826172 79.2498 50.8274 28.2608 112.5 28.2608V199.672H143.558V142.13H229.016C229.016 204.313 177.045 254.842 112.485 255.969C112.485 256.028 111.537 255.984 111.418 255.984C49.8203 256.785 0.826172 202.178 0.826172 142.13Z" fill="#427DF4"/>
<path fill-rule="evenodd" clip-rule="evenodd" d="M371.096 113.87C371.096 176.765 321.095 227.739 259.423 227.739V56.3278H228.364V113.87H142.906C142.906 51.687 194.877 1.15767 259.438 0.0308398C259.438 -0.0284669 260.385 0.0160122 260.504 0.0160122C322.102 -0.784629 371.096 53.8221 371.096 113.87Z" fill="#427DF4"/>
</svg>
