<svg xmlns="http://www.w3.org/2000/svg" fill="none" viewBox="0 0 169 256"><path fill="#fff" d="M110.751 78.533c.76-37.676-20.574-70.507-31.686-78.398-.05-.05-1.04-.584-.965.889 0 .025-.025.025-.025.05-1.141 71.168-37.723 90.348-57.587 116.43-44.141 57.999-7.306 124.169 40.412 136.701.813.204 3.02.864 7.204 1.726 2.183.457 2.817-1.396 1.219-4.161-5.708-9.92-15.856-26.666-17.86-48.181-4.566-49.957 58.399-81.214 59.288-125.056"/><path fill="#008CD6" d="M134.8 102.662c-.381-.279-.913-.254-.963.228-1.015 9.058-10.377 27.833-22.706 45.39-41.504 59.192-20.599 86.034-4.363 104.658 2.993 3.45 4.489 2.689 6.063.229 1.471-2.335 3.703-5.304 13.294-9.845 1.496-.71 37.723-19.942 41.655-63.733 3.78-42.371-23.391-69.164-32.98-76.927"/></svg>