<svg width="247" height="256" viewBox="0 0 247 256" fill="none" xmlns="http://www.w3.org/2000/svg">
<path d="M230.294 145.406C233.223 142.48 236.985 138.72 240.737 134.985C249.088 126.655 249.088 113.127 240.737 104.784L231.889 95.9437C200.223 127.582 152.848 133.928 114.869 115.021C140.536 119.76 167.145 116.065 190.721 103.399C206.495 94.9251 209.488 73.5629 196.825 60.9102L144.614 8.74525C132.944 -2.91508 114.033 -2.91508 102.376 8.74525L46.1007 64.9711C83.1643 49.2368 127.677 56.5359 157.814 86.8556C111.838 64.5533 54.87 72.4661 16.6956 110.607C13.7681 113.532 9.99125 117.306 6.25351 121.04C-2.0845 129.384 -2.0845 142.899 6.25351 151.229L15.0881 160.057C46.7541 128.417 94.1291 122.072 132.108 140.98C106.44 136.24 79.8317 139.934 56.2553 152.6C40.481 161.074 37.4882 182.437 50.1521 195.089L102.363 247.255C114.033 258.915 132.944 258.915 144.602 247.255L200.876 191.029C163.812 206.763 119.299 199.463 89.163 169.144C135.14 191.447 192.107 183.534 230.282 145.392L230.294 145.406Z" fill="white"/>
</svg>
