<svg xmlns="http://www.w3.org/2000/svg" fill="none" viewBox="0 0 247 256"><path fill="#fff" d="M230.294 145.406c2.929-2.926 6.691-6.686 10.443-10.421 8.351-8.33 8.351-21.858 0-30.201l-8.848-8.84c-31.666 31.638-79.041 37.984-117.02 19.077 25.667 4.739 52.276 1.044 75.852-11.622 15.774-8.474 18.767-29.836 6.104-42.489L144.614 8.745c-11.67-11.66-30.581-11.66-42.238 0L46.101 64.971c37.063-15.734 81.576-8.435 111.713 21.885-45.976-22.303-102.944-14.39-141.118 23.751L6.254 121.04c-8.338 8.344-8.338 21.859 0 30.189l8.834 8.828c31.666-31.64 79.041-37.985 117.02-19.077-25.668-4.74-52.276-1.046-75.853 11.62-15.774 8.474-18.767 29.837-6.103 42.489l52.211 52.166c11.67 11.66 30.581 11.66 42.239 0l56.274-56.226c-37.064 15.734-81.577 8.434-111.713-21.885 45.977 22.303 102.944 14.39 141.119-23.752z"/></svg>