<svg xmlns="http://www.w3.org/2000/svg" fill="none" viewBox="0 0 343 256"><path fill="#97FCE4" d="M342.988 126.767c.313 28.225-5.58 55.195-17.156 80.963-16.53 36.692-56.162 66.694-92.352 34.758-29.515-26.03-34.991-78.872-79.21-86.608-58.51-7.108-59.917 60.892-98.14 68.576-42.604 8.676-56.736-63.14-56.11-95.755.626-32.616 9.282-78.455 46.306-78.455 42.604 0 45.472 64.656 99.548 61.154 53.555-3.659 54.493-70.928 89.483-99.727 30.193-24.88 65.705-6.638 83.487 23.311 16.478 27.702 23.727 60.213 24.091 91.783z"/></svg>
