<svg xmlns="http://www.w3.org/2000/svg" fill="none" viewBox="0 0 362 256"><path fill="#4AFC38" d="M133.356 2.673C83.346-11.63 26.724 32.89 6.889 102.106c-19.836 69.216 4.625 136.92 54.635 151.221s106.632-30.217 126.468-99.433-4.626-136.92-54.636-151.221m-8.425 65.02c-1.187 14.327-13.777 24.978-28.12 23.792S71.805 77.723 72.993 63.396s13.777-24.978 28.12-23.792c14.342 1.186 25.006 13.761 23.818 28.088m189.031-10.943c-39.048-11.166-83.259 23.594-98.747 77.638s3.611 106.909 42.659 118.074c39.048 11.166 83.26-23.594 98.747-77.638 15.488-54.044-3.611-106.909-42.659-118.074m-5.753 62.566c-1.188 14.327-13.777 24.979-28.12 23.793s-25.006-13.762-23.819-28.089 13.777-24.978 28.12-23.792 25.006 13.761 23.819 28.088"/></svg>