<svg width="343" height="256" viewBox="0 0 343 256" fill="none" xmlns="http://www.w3.org/2000/svg">
<path d="M342.768 126.767C343.08 154.992 337.191 181.962 325.623 207.73C309.103 244.422 269.497 274.424 233.33 242.488C203.834 216.458 198.362 163.616 154.171 155.88C95.6993 148.772 94.2923 216.772 56.0934 224.456C13.517 233.132 -0.605599 161.316 0.019759 128.701C0.645116 96.0854 9.29589 50.2463 46.2962 50.2463C88.8726 50.2463 91.7387 114.902 145.78 111.4C199.301 107.741 200.238 40.4722 235.206 11.6726C265.379 -13.207 300.869 5.03453 318.639 34.9841C335.107 62.6861 342.351 95.1968 342.715 126.767H342.768Z" fill="#97FCE4"/>
</svg>
