<svg xmlns="http://www.w3.org/2000/svg" fill="none" viewBox="0 0 259 256"><path fill="#2ABA4C" d="M128.157 0h.944c9.906.314 19.656 1.415 29.248 3.774 20.128 4.56 38.84 13.995 54.722 27.047 13.681 11.95 24.688 26.575 32.551 42.928a121.65 121.65 0 0 1 12.422 54.566l-129.572-.158V89.474l83.027-.157c-2.044-4.246-4.403-8.177-6.919-12.108-9.592-13.995-22.958-25.003-38.683-31.607a96.2 96.2 0 0 0-36.954-7.862c-.314-12.895-.786-25.317-.786-37.74M74.536 5.032c10.85-1.887 22.172 5.032 26.575 15.096 2.673 6.29 2.516 13.209-.158 19.499-3.616 7.233-10.378 12.422-18.24 13.837-6.448 1.416-13.052 0-18.398-3.774-2.517-2.201-5.19-4.088-6.92-6.918-2.987-4.718-4.245-10.379-3.616-15.883.943-8.177 5.975-16.039 13.523-19.498 2.202-1.101 4.718-1.887 7.234-2.359M.157 122.496a124.8 124.8 0 0 1 37.74-85.228A2105 2105 0 0 1 64.157 64c-7.39 8.334-13.366 17.77-17.926 27.99-6.919 15.882-10.378 33.651-7.076 50.791 1.887 11.479 6.133 22.487 12.265 32.393a100.3 100.3 0 0 0 16.826 19.656c4.403 3.932 9.12 7.234 14.152 10.222 8.491 5.189 17.612 9.277 27.047 11.95 0 12.266-.472 24.531-.472 36.797l-.157.314c-14.31-2.673-28.148-7.548-41.2-14.31-12.894-6.918-24.687-15.882-34.594-26.574-3.931-4.403-7.548-9.121-11.007-13.838C7.705 178.634.472 153.317 0 128.157z"/><path fill="#fff" d="M219.204 137.435c12.894-2.988 25.789-6.133 38.683-8.963-.157 21.543-5.504 42.614-15.725 61.641-7.233 13.366-16.825 25.16-28.462 35.066-4.245 3.46-7.823 6.271-13.209 9.75-24.517 15.835-47.174 20.442-71.705 21.071v-36.796c12.58-.157 25.16-2.831 36.639-7.548 7.391-3.145 14.467-7.391 20.6-12.423 6.132-5.032 11.479-10.85 15.882-17.454 9.12-13.366 13.995-28.934 17.297-44.344"/></svg>
