<svg xmlns="http://www.w3.org/2000/svg" fill="none" viewBox="0 0 244 256"><path fill="#BEE2F1" d="M1.455 115.631 81.627 0l40.517 58.679-41.092 58.391H2.317c-.288 0-.288 0-.575-.288-.287 0-.287-.288-.287-.288v-.575c-.288 0 0 0 0-.288m241.09 0L162.373 0l-40.229 58.679 40.804 58.678h78.735c.287 0 .287 0 .575-.287.287 0 .287-.288.287-.288v-.575c.288-.288 0-.288 0-.576"/><path fill="#33A9C9" d="M243.982 132.315c.287 16.107-2.874 32.215-8.908 47.173s-14.942 28.764-26.437 40.269c-11.494 11.506-24.999 20.71-39.655 26.751-14.655 6.04-30.746 9.492-47.126 9.492-16.092 0-32.183-3.164-47.126-9.492s-28.448-15.245-39.655-26.751c-11.207-11.505-20.402-25.024-26.436-40.269C2.892 164.53-.27 148.422.018 132.315h77.586c0 6.04.862 11.793 3.16 17.258 2.3 5.465 5.46 10.643 9.483 14.67 4.023 4.314 9.196 7.478 14.655 9.779q8.19 3.453 17.242 3.452 9.051 0 17.241-3.452c5.46-2.301 10.345-5.752 14.655-9.779 4.023-4.315 7.471-9.205 9.483-14.67 2.299-5.465 3.161-11.506 3.161-17.258z"/></svg>