<svg width="245" height="256" viewBox="0 0 245 256" fill="none" xmlns="http://www.w3.org/2000/svg">
<path d="M1.45718 115.631L81.7604 0L122.344 58.6787L81.1848 117.07H2.32065C2.03283 117.07 2.03283 117.07 1.745 116.782C1.45718 116.782 1.45718 116.494 1.45718 116.494V115.919C1.16935 115.919 1.45718 115.919 1.45718 115.631ZM242.943 115.631L162.639 0L122.344 58.6787L163.215 117.357H242.079C242.367 117.357 242.367 117.357 242.655 117.07C242.943 117.07 242.943 116.782 242.943 116.782V116.207C243.23 115.919 242.943 115.919 242.943 115.631Z" fill="#BEE2F1"/>
<path d="M244.382 132.315C244.67 148.422 241.503 164.53 235.459 179.488C229.415 194.445 220.492 208.252 208.979 219.757C197.466 231.263 183.938 240.467 169.259 246.508C154.58 252.548 138.462 256 122.056 256C105.938 256 89.8195 252.836 74.8526 246.508C59.8857 240.18 46.3579 231.263 35.1327 219.757C23.9075 208.252 14.6971 194.733 8.65281 179.488C2.8963 164.53 -0.269773 148.422 0.018052 132.315H77.7309C77.7309 138.355 78.5943 144.108 80.8969 149.573C83.1995 155.038 86.3656 160.216 90.3952 164.243C94.4247 168.557 99.6056 171.721 105.074 174.022C110.543 176.324 116.299 177.474 122.344 177.474C128.388 177.474 134.145 176.324 139.613 174.022C145.082 171.721 149.975 168.27 154.292 164.243C158.322 159.928 161.776 155.038 163.791 149.573C166.093 144.108 166.957 138.067 166.957 132.315H244.382Z" fill="#33A9C9"/>
</svg>
