<svg xmlns="http://www.w3.org/2000/svg" fill="none" viewBox="0 0 245 256"><path fill="#BEE2F1" d="M1.457 115.631 81.76 0l40.584 58.679-41.16 58.391H2.322c-.288 0-.288 0-.576-.288-.288 0-.288-.288-.288-.288v-.575c-.288 0 0 0 0-.288m241.486 0L162.639 0l-40.295 58.679 40.871 58.678h78.864c.288 0 .288 0 .576-.287.288 0 .288-.288.288-.288v-.575c.287-.288 0-.288 0-.576"/><path fill="#33A9C9" d="M244.382 132.315c.288 16.107-2.879 32.215-8.923 47.173s-14.967 28.764-26.48 40.269c-11.513 11.506-25.041 20.71-39.72 26.751-14.679 6.04-30.797 9.492-47.203 9.492-16.118 0-32.236-3.164-47.203-9.492s-28.495-15.245-39.72-26.751c-11.226-11.505-20.436-25.024-26.48-40.269C2.896 164.53-.27 148.422.018 132.315h77.713c0 6.04.863 11.793 3.166 17.258s5.469 10.643 9.498 14.67c4.03 4.314 9.21 7.478 14.679 9.779q8.203 3.453 17.27 3.452t17.269-3.452c5.469-2.301 10.362-5.752 14.679-9.779 4.03-4.315 7.484-9.205 9.499-14.67 2.302-5.465 3.166-11.506 3.166-17.258z"/></svg>