<svg width="255" height="256" viewBox="0 0 255 256" fill="none" xmlns="http://www.w3.org/2000/svg">
<path d="M219.466 7.04914L219.736 8.61542C220.283 12.7751 219.561 16.4696 218.216 20.3863C217.928 20.8913 217.728 21.4292 217.613 22C215.593 26.9666 212.76 31.1629 209.114 34.5891C207.541 36.0687 205.478 37.6496 202.927 39.3316C202.864 39.3291 202.805 39.3032 202.75 39.2538C202.699 39.2095 202.697 39.1627 202.743 39.1133C204.289 37.4331 206.482 35.6352 207.655 34.4448C212.722 29.3074 216.477 22.1386 216.718 14.8331C216.84 11.1253 215.481 5.22466 211.337 3.94885C209.384 3.34702 207.255 4.46905 205.511 5.555C202.551 7.39404 199.755 9.45584 197.124 11.7404C186.817 20.6881 177.339 30.4219 167.425 39.7797C165.409 41.6839 163.709 43.3375 160.982 43.8501C159.17 44.1919 156.414 44.4735 152.714 44.695C147.917 44.8317 143.119 44.8633 138.32 44.7899L128.637 44.545L126.187 44.5127C126.124 44.5114 126.069 44.4899 126.022 44.4482C125.699 44.1634 124.299 44.3551 123.675 44.3361C121.952 44.283 120.23 44.2134 118.507 44.1273C117.988 44.1026 117.376 44.1729 116.812 44.1368C110.651 43.7286 103.822 45.443 98.1689 47.8237C97.69 48.025 97.2492 47.987 96.7627 48.0649L95.6093 48.0212C95.375 47.8048 95.3895 47.6427 95.653 47.5352C98.2031 46.4948 100.751 45.4563 103.298 44.4197C105.033 43.8666 106.795 43.4495 108.582 43.1686C112.278 42.5876 115.626 42.4338 119.542 42.2554C120.103 42.2288 121.009 42.3142 121.872 42.2516C123.155 42.1592 125.327 42.1111 128.386 42.1073C128.939 42.1073 129.412 42.3351 129.971 42.3142C131.031 42.2725 132.152 42.4148 133.123 42.394C140.859 42.2288 149.014 42.8249 157.427 42.0313C159.794 41.8092 161.696 40.8429 163.405 39.2272C166.32 36.4725 169.181 33.6532 171.916 30.7161C178.639 23.4942 184.622 17.3474 189.867 12.2758C192.677 9.55962 196.162 6.63653 200.324 3.5065C202.134 2.68127 203.962 1.88326 205.809 1.11246C207.065 0.5872 208.085 0.265083 208.869 0.146109C214.129 -0.658865 218.197 1.89275 219.466 7.04914Z" fill="#FD0000"/>
<path d="M200.324 3.5065C196.162 6.63653 192.677 9.55962 189.867 12.2758C184.622 17.3474 178.639 23.4942 171.916 30.7161C169.181 33.6532 166.32 36.4725 163.405 39.2272C161.696 40.8429 159.794 41.8092 157.427 42.0313C149.014 42.8249 140.859 42.2288 133.123 42.394C132.152 42.4148 131.031 42.2725 129.971 42.3142C129.412 42.3351 128.939 42.1073 128.386 42.1073C125.327 42.1111 123.155 42.1592 121.872 42.2516C121.009 42.3142 120.103 42.2288 119.542 42.2554C115.626 42.4338 112.278 42.5876 108.582 43.1686C106.795 43.4495 105.033 43.8666 103.298 44.4197C120.081 37.2838 131.996 32.2324 139.04 29.2657C139.14 29.2239 139.204 29.1752 139.23 29.1195C139.287 29.1233 139.342 29.1138 139.394 29.091C156.897 21.7146 174.397 14.33 191.892 6.93713C194.182 5.97015 196.992 4.8266 200.324 3.5065Z" fill="#FF5251"/>
<path d="M202.927 39.3316L155.604 48.0003L152.714 44.695C156.414 44.4735 159.17 44.1919 160.982 43.8501C163.709 43.3375 165.409 41.6839 167.425 39.7797C177.339 30.4219 186.817 20.6881 197.124 11.7404C199.755 9.45584 202.551 7.39404 205.511 5.555C207.255 4.46905 209.384 3.34702 211.337 3.94885C215.481 5.22466 216.84 11.1253 216.718 14.8331C216.477 22.1386 212.722 29.3074 207.655 34.4448C206.482 35.6352 204.289 37.4331 202.743 39.1133C202.697 39.1627 202.699 39.2095 202.75 39.2538C202.805 39.3032 202.864 39.3291 202.927 39.3316Z" fill="#993414"/>
<path d="M219.466 7.04914C219.66 7.55162 219.75 8.07371 219.736 8.61542L219.466 7.04914Z" fill="#993414"/>
<path d="M116.278 17.1189L116.116 17.2632C116.073 17.3024 116.022 17.3246 115.962 17.3296C114.584 17.4461 113.328 17.6087 112.194 17.8176C97.7205 20.4926 93.1125 34.9328 94.6535 47.6965C94.6675 47.8117 94.6706 47.9294 94.663 48.0497L72.8449 60.5078C71.872 49.859 78.1978 39.0829 84.8979 31.3218C92.7609 22.2127 104.282 17.3448 116.278 17.1189Z" fill="#FF5251"/>
<path d="M116.278 17.1189C120.637 17.1284 123.865 17.1911 127.721 18.5485C132.975 20.3996 136.513 24.0143 139.143 28.8214C139.204 28.9328 139.233 29.0321 139.23 29.1195C139.204 29.1752 139.14 29.2239 139.04 29.2657C131.996 32.2324 120.081 37.2838 103.298 44.4197C100.751 45.4563 98.2031 46.4948 95.653 47.5352C95.3895 47.6427 95.375 47.8048 95.6093 48.0212L94.663 48.0497C94.6706 47.9294 94.6675 47.8117 94.6535 47.6965C93.1125 34.9328 97.7205 20.4926 112.194 17.8176C113.328 17.6087 114.584 17.4461 115.962 17.3296C116.022 17.3246 116.073 17.3024 116.116 17.2632L116.278 17.1189Z" fill="#D20B09"/>
<path d="M218.216 20.3863C218.12 20.9622 217.919 21.5001 217.613 22C217.728 21.4292 217.928 20.8913 218.216 20.3863Z" fill="#993414"/>
<path d="M128.637 44.545C127.027 44.6361 125.397 44.5924 123.782 44.6228C120.511 44.6823 117.029 45.0911 113.336 45.8493C106.912 47.1668 103.501 53.4661 101.937 59.2737C101.933 59.289 101.933 59.3052 101.939 59.3202C101.944 59.3352 101.953 59.3484 101.966 59.3579C101.979 59.3675 101.994 59.3731 102.01 59.374C102.025 59.3749 102.041 59.3711 102.055 59.363C106.541 56.6272 111.871 54.273 117.169 53.9389C117.976 53.887 119.24 53.9256 120.96 54.0547C124.899 54.3509 128.815 54.4116 132.741 53.8762C132.804 53.8674 132.857 53.8383 132.899 53.7889L133.95 52.5112C134.014 52.5207 134.01 52.5036 134.056 52.5492C137.14 55.6495 139.436 59.5092 139.603 63.815C139.823 69.5201 140.184 74.555 141.338 79.8898C142.24 84.0628 143.692 88.5471 146.267 92.1258C147.11 93.2972 149.081 94.89 148.423 96.3614C147.057 99.4193 145.711 102.498 144.386 105.598C138.843 105.087 134.484 101.814 131.189 97.6125C129.187 95.0596 127.194 92.4979 125.209 89.9273C125.285 89.9362 125.343 89.9153 125.384 89.8646C125.425 89.8128 125.439 89.7539 125.423 89.6881C124.572 86.1473 124.565 82.7053 126.537 79.6468C126.549 79.6287 126.556 79.6079 126.557 79.5864C126.559 79.5649 126.555 79.5433 126.546 79.5238C126.536 79.5042 126.523 79.4873 126.505 79.4746C126.488 79.4619 126.467 79.4539 126.446 79.4512C125.273 79.2918 124.076 80.0094 123.107 80.6055C121.372 81.6738 120.611 83.2356 120.825 85.2911C120.836 85.4031 120.8 85.4582 120.743 85.5455C117.96 83.4951 114.92 82.4996 111.624 82.5591C101.994 82.7338 94.3704 87.5617 90.6156 96.3994C90.5903 96.4589 90.5446 96.4911 90.4788 96.4962C84.1663 96.9556 80.6376 92.9725 79.6134 87.2504C78.1693 79.176 80.2139 70.5472 87.9477 66.3723C89.7662 65.3908 91.5334 64.8079 91.2104 62.3323C90.8436 59.5205 90.9329 57.1151 92.1662 54.5274C93.3202 52.1062 94.8524 49.952 96.7627 48.0649C97.2492 47.987 97.69 48.025 98.1689 47.8237C103.822 45.443 110.651 43.7286 116.812 44.1368C117.376 44.1729 117.988 44.1026 118.507 44.1273C120.23 44.2134 121.952 44.283 123.675 44.3361C124.299 44.3551 125.699 44.1634 126.022 44.4482C126.069 44.4899 126.124 44.5114 126.187 44.5127L128.637 44.545ZM108.856 64.5478C107.968 64.7567 107.144 65.1085 106.383 65.6034C105.768 66.0046 105.437 66.552 105.392 67.2456C105.387 67.3192 105.403 67.3925 105.438 67.4573C105.473 67.5221 105.525 67.5757 105.589 67.6121C106.548 68.1614 107.541 68.6335 108.567 69.0283C108.687 69.1777 108.82 69.2884 108.966 69.3606C112.958 71.3389 117.044 73.0969 121.226 74.6347C121.307 74.6638 121.437 74.653 121.617 74.6024C123.16 75.277 124.674 75.6694 126.159 75.7795C130.645 76.1155 132.627 70.7446 132.659 67.0956C132.678 64.8991 131.354 63.9137 129.315 63.329C127.62 62.8417 125.89 62.5645 124.124 62.4974C121.097 62.2481 118.176 62.3905 115.36 62.9246C113.372 63.3018 111.204 63.8428 108.856 64.5478Z" fill="#DC9370"/>
<path d="M128.637 44.545L138.32 44.7899C136.971 47.4238 135.514 49.9975 133.95 52.5112L132.899 53.7889C132.857 53.8383 132.804 53.8674 132.741 53.8762C128.815 54.4116 124.899 54.3509 120.96 54.0547C119.24 53.9256 117.976 53.887 117.169 53.9389C111.871 54.273 106.541 56.6272 102.055 59.363C102.041 59.3711 102.025 59.3749 102.01 59.374C101.994 59.3731 101.979 59.3675 101.966 59.3579C101.953 59.3484 101.944 59.3352 101.939 59.3202C101.933 59.3052 101.933 59.289 101.937 59.2737C103.501 53.4661 106.912 47.1668 113.336 45.8493C117.029 45.0911 120.511 44.6823 123.782 44.6228C125.397 44.5924 127.027 44.6361 128.637 44.545Z" fill="#ECE1DF"/>
<path d="M152.714 44.695L155.604 48.0003L158.227 51.6303C156.772 51.3506 155.5 51.6904 154.409 52.6498C152.507 54.3224 151.386 56.9746 150.869 59.4009C143.397 71.5078 149.294 85.1582 156.513 95.5564C157.314 96.7107 154.647 101.861 153.919 103.325C153.901 103.362 153.909 103.392 153.942 103.416L153.997 103.454C153.016 104.758 151.703 105.471 150.056 105.592C148.26 105.725 146.16 105.888 144.386 105.598C145.711 102.498 147.057 99.4193 148.423 96.3614C149.081 94.89 147.11 93.2972 146.267 92.1258C143.692 88.5471 142.24 84.0628 141.338 79.8898C140.184 74.555 139.823 69.5201 139.603 63.815C139.436 59.5092 137.14 55.6495 134.056 52.5492C134.01 52.5036 134.014 52.5207 133.95 52.5112C135.514 49.9975 136.971 47.4238 138.32 44.7899C143.119 44.8633 147.917 44.8317 152.714 44.695Z" fill="#E8A887"/>
<path d="M95.6093 48.0212L96.7627 48.0649C94.8524 49.952 93.3202 52.1062 92.1662 54.5274C90.9329 57.1151 90.8436 59.5205 91.2104 62.3323C91.5334 64.8079 89.7662 65.3908 87.9477 66.3723C80.2139 70.5472 78.1693 79.176 79.6134 87.2504C80.6376 92.9725 84.1663 96.9556 90.4788 96.4962C90.5446 96.4911 90.5903 96.4589 90.6156 96.3994C94.3704 87.5617 101.994 82.7338 111.624 82.5591C114.92 82.4996 117.96 83.4951 120.743 85.5455C122.362 86.8732 123.851 88.3338 125.209 89.9273C127.194 92.4979 129.187 95.0596 131.189 97.6125C134.484 101.814 138.843 105.087 144.386 105.598C146.16 105.888 148.26 105.725 150.056 105.592C151.703 105.471 153.016 104.758 153.997 103.454C155.318 102.24 156.419 100.852 157.299 99.2889C159.302 95.7349 160.906 92.3289 165.212 91.1158C166.487 90.7563 167.911 90.545 169.483 90.4817C170.257 90.5823 171.114 90.5557 171.819 90.7854C178.813 93.0485 179.19 102.556 178.488 108.464C178.391 109.281 178.144 110.205 178.496 110.872C182.821 119.096 189.515 125.762 197.141 131.125C198.138 131.826 199.199 132.518 200.325 133.198C209.023 138.457 218.283 142.449 228.104 145.174C229.816 145.734 231.561 146.157 233.34 146.444C233.35 146.446 233.359 146.443 233.366 146.435C233.378 146.424 233.389 146.412 233.4 146.401C233.417 146.383 233.437 146.377 233.461 146.382C234.575 146.663 235.703 146.841 236.845 146.915L238.039 147.101C238.15 147.119 238.16 147.161 238.069 147.229L237.7 147.5C237.499 147.461 237.368 147.451 237.307 147.47C226.225 151.045 214.186 150.6 205.019 142.606C204.85 142.46 204.836 142.474 204.975 142.647L214.716 154.914C221.87 164.116 228.239 172.192 234.033 181.523C237.376 186.908 242.166 191.033 247.405 194.5C249.778 196.07 252.357 197.705 254.952 199.13C254.969 199.139 254.982 199.153 254.99 199.169C254.998 199.186 255.002 199.205 254.999 199.223C254.997 199.241 254.989 199.258 254.977 199.272C254.965 199.286 254.949 199.296 254.932 199.301L253.947 199.567C253.874 199.332 253.693 199.222 253.406 199.239C252.868 199.269 252.07 199.28 251.42 199.25C226.949 198.081 205.954 185.115 193.234 164.3C193.22 164.276 193.2 164.263 193.173 164.262C193.14 164.258 193.131 164.272 193.147 164.302C193.255 164.515 193.428 164.889 193.663 165.426C197.59 174.374 200.951 183.328 203.744 192.286C204.508 194.737 205.213 197.416 205.927 199.987C207.25 205.228 208.209 210.622 208.487 216.023C209.123 228.341 210.119 241.126 214.13 252.862C214.438 253.761 214.92 254.748 215.576 255.824C215.621 255.896 215.601 255.932 215.516 255.932L214.376 255.938C214.386 255.916 214.402 255.903 214.423 255.898C214.447 255.892 214.452 255.887 214.436 255.883C213.547 255.712 212.66 255.564 211.774 255.439C208.65 255.002 204.992 254.098 202.912 253.595C157.731 242.69 121.317 206.658 100.57 154.458C100.583 154.464 100.563 154.446 100.57 154.458C100.584 154.456 100.557 154.452 100.57 154.458C100.573 154.444 100.56 154.468 100.57 154.458C96.6424 172.562 82.7773 201.823 68.3795 213.738C52.661 226.746 33.0453 229.558 13.2718 226.629C13.0305 226.593 12.8214 226.663 12.5744 226.669L11.7991 226.414C11.7897 226.411 11.7814 226.406 11.7752 226.398C11.7691 226.391 11.7654 226.381 11.7648 226.371C11.7642 226.362 11.7666 226.352 11.7717 226.344C11.7768 226.335 11.7844 226.329 11.7934 226.325C16.9506 223.939 21.6054 220.815 25.758 216.954C37.0585 206.451 45.045 193.148 51.0458 179.055C53.5617 173.066 55.7634 166.903 57.6509 160.566C57.6538 160.556 57.6535 160.545 57.6501 160.535C57.6468 160.525 57.6405 160.516 57.6321 160.51C57.6238 160.503 57.6138 160.5 57.6036 160.5C57.5933 160.5 57.5833 160.503 57.5749 160.509C45.8773 168.363 32.7792 174.482 19.1814 177.687C16.1348 178.404 12.639 178.886 8.69421 179.131C7.12465 179.228 5.36127 179.192 3.69099 179.222C3.24254 179.23 2.69339 179.04 2.12333 179.205L0.0369073 178.873C0.0278932 178.871 0.0196174 178.867 0.0131635 178.86C0.00670958 178.854 0.00237823 178.846 0.000735599 178.837C-0.000907036 178.828 0.000216082 178.818 0.00395764 178.81C0.0076992 178.801 0.0138846 178.794 0.0217053 178.79C11.205 172.524 21.2172 164.766 30.0582 155.516C31.7405 153.756 33.3392 151.923 34.8543 150.016C40.513 143.292 44.9836 135.839 48.2659 127.655C48.271 127.641 48.2712 127.626 48.2663 127.612C48.2613 127.598 48.2517 127.586 48.239 127.579C48.2263 127.571 48.2113 127.569 48.1968 127.571C48.1822 127.573 48.169 127.581 48.1594 127.592C43.2949 133.54 38.0732 139.181 32.4942 144.516C28.823 148.028 24.9561 151.257 20.2626 153.323C20.0587 153.413 19.6349 153.524 18.9914 153.657C18.9382 153.667 18.904 153.647 18.8888 153.596C18.8812 153.572 18.8799 153.547 18.885 153.52C28.69 144.21 37.6076 133.948 45.1951 122.749C52.1879 112.431 57.4362 102.137 60.7198 90.176C61.8941 92.8453 63.3655 95.3356 65.1339 97.6467C65.1443 97.6602 65.1577 97.6711 65.173 97.6785C65.1884 97.6858 65.2053 97.6895 65.2223 97.6891C65.2393 97.6888 65.256 97.6844 65.2711 97.6763C65.2861 97.6683 65.299 97.6569 65.3087 97.6429C72.1609 88.1047 77.584 75.1625 74.9276 63.2018C74.9136 63.1398 74.875 63.1056 74.8116 63.0993C73.403 62.9613 72.0101 62.9841 70.6331 63.1676C71.1943 62.0867 71.9316 61.2001 72.8449 60.5078L94.663 48.0497L95.6093 48.0212ZM109.093 105.389C110.254 103.98 111.957 103.819 112.787 105.691C116.451 113.958 122.576 119.422 131.164 122.081C138.757 124.431 146.531 122.269 153.461 118.952C153.821 118.78 154.106 118.611 154.316 118.445C154.492 118.307 154.481 118.289 154.282 118.39C144.353 123.461 132.365 122.793 123.227 116.391C119.614 113.859 117.094 110.433 115.668 106.11C115.255 104.865 115.153 103.276 116.633 102.721C118.511 102.021 120.996 103.301 122.581 104.413C122.697 104.494 122.719 104.474 122.645 104.354C122.278 103.752 121.802 103.195 121.218 102.683C117.807 99.6971 112.78 99.4066 109.772 103.116C108.484 104.704 107.594 106.492 107.1 108.482C107.081 108.556 107.088 108.558 107.121 108.487C107.602 107.433 108.26 106.4 109.093 105.389Z" fill="#FBF9FC"/>
<path d="M158.227 51.6303C158.797 51.8809 159.399 52.1239 159.844 52.5606C162.696 55.359 162.812 60.6862 162.413 64.3561C161.845 63.7713 161.146 62.9898 160.315 62.0114C158.002 59.2965 154.325 57.4284 150.869 59.4009C151.386 56.9746 152.507 54.3224 154.409 52.6498C155.5 51.6904 156.772 51.3506 158.227 51.6303Z" fill="#ECE1DF"/>
<path d="M162.413 64.3561C163.083 67.8076 163.408 71.0123 162.658 74.498C162.644 74.5588 162.65 74.6222 162.675 74.6794C162.7 74.7366 162.741 74.7847 162.795 74.817C168.32 78.202 171.798 83.9052 169.483 90.4817C167.911 90.545 166.487 90.7563 165.212 91.1158C160.906 92.3289 159.302 95.7349 157.299 99.2889C156.419 100.852 155.318 102.24 153.997 103.454L153.942 103.416C153.909 103.392 153.901 103.362 153.919 103.325C154.647 101.861 157.314 96.7107 156.513 95.5564C149.294 85.1582 143.397 71.5078 150.869 59.4009C154.325 57.4284 158.002 59.2965 160.315 62.0114C161.146 62.9898 161.845 63.7713 162.413 64.3561ZM157.592 76.6889C158.564 76.7408 159.581 76.5478 160.646 76.1098C162.472 75.358 162.515 74.2265 162.515 72.3166C162.515 69.6416 162.287 66.7425 158.69 67.1317C156.861 67.2115 155.202 67.75 153.714 68.7474C152.815 69.3492 152.192 70.0574 151.81 71.0294C150.905 73.3285 150.185 77.1123 154.044 77.0515C155.526 77.0268 156.619 77.1085 157.592 76.6889Z" fill="#C9836D"/>
<path d="M124.124 62.4974C123.217 62.6468 122.473 63.0043 121.893 63.5701C120.92 64.5175 120.684 66.1369 121.317 67.3197C122.195 68.9625 123.535 69.5055 125.338 68.9486C125.356 68.943 125.375 68.9421 125.393 68.9463C125.411 68.9504 125.428 68.9593 125.441 68.9721C125.455 68.9849 125.465 69.0011 125.47 69.019C125.475 69.0369 125.476 69.0559 125.471 69.0739C124.895 71.4142 123.61 73.257 121.617 74.6024C121.437 74.653 121.307 74.6638 121.226 74.6347C117.044 73.0969 112.958 71.3389 108.966 69.3606C108.82 69.2884 108.687 69.1777 108.567 69.0283C108.402 67.5399 108.498 66.0464 108.856 64.5478C111.204 63.8428 113.372 63.3018 115.36 62.9246C118.176 62.3905 121.097 62.2481 124.124 62.4974ZM119.605 67.7013C119.605 67.1887 119.401 66.6971 119.038 66.3347C118.676 65.9722 118.184 65.7686 117.671 65.7686C117.158 65.7686 116.666 65.9722 116.303 66.3347C115.94 66.6971 115.736 67.1887 115.736 67.7013C115.736 68.2139 115.94 68.7055 116.303 69.0679C116.666 69.4304 117.158 69.634 117.671 69.634C118.184 69.634 118.676 69.4304 119.038 69.0679C119.401 68.7055 119.605 68.2139 119.605 67.7013Z" fill="#5A2F30"/>
<path d="M121.617 74.6024C123.61 73.257 124.895 71.4142 125.471 69.0739C125.476 69.0559 125.475 69.0369 125.47 69.019C125.465 69.0011 125.455 68.9849 125.441 68.9721C125.428 68.9593 125.411 68.9504 125.393 68.9463C125.375 68.9421 125.356 68.943 125.338 68.9486C123.535 69.5055 122.195 68.9625 121.317 67.3197C120.684 66.1369 120.92 64.5175 121.893 63.5701C122.473 63.0043 123.217 62.6468 124.124 62.4974C125.89 62.5645 127.62 62.8417 129.315 63.329C131.354 63.9137 132.678 64.8991 132.659 67.0956C132.627 70.7446 130.645 76.1155 126.159 75.7795C124.674 75.6694 123.16 75.277 121.617 74.6024Z" fill="#ECE1DF"/>
<path d="M60.7198 90.176C60.6982 90.1254 60.6951 90.0627 60.7103 89.988C60.7242 89.9286 60.7204 89.8697 60.6989 89.8115C58.7062 84.1792 58.6131 78.5045 60.4195 72.7874C62.0024 67.781 65.4323 64.2593 70.6331 63.1676C72.0101 62.9841 73.403 62.9613 74.8116 63.0993C74.875 63.1056 74.9136 63.1398 74.9276 63.2018C77.584 75.1625 72.1609 88.1047 65.3087 97.6429C65.299 97.6569 65.2861 97.6683 65.2711 97.6763C65.256 97.6844 65.2393 97.6888 65.2223 97.6891C65.2053 97.6895 65.1884 97.6858 65.173 97.6785C65.1577 97.6711 65.1443 97.6602 65.1339 97.6467C63.3655 95.3356 61.8941 92.8453 60.7198 90.176ZM69.1053 71.7755C69.0993 71.7675 69.0903 71.7621 69.0803 71.7607C69.0703 71.7593 69.0602 71.7619 69.0521 71.7679C69.0441 71.774 69.0387 71.783 69.0373 71.7929C69.0359 71.8029 69.0385 71.813 69.0445 71.8211C71.4027 75.489 69.13 82.0237 67.4104 85.8189C67.0683 86.5758 67.088 86.5846 67.4693 85.8455C69.1034 82.6882 72.0545 75.0239 69.1053 71.7755Z" fill="#DC9370"/>
<path d="M108.856 64.5478C108.498 66.0464 108.402 67.5399 108.567 69.0283C107.541 68.6335 106.548 68.1614 105.589 67.6121C105.525 67.5757 105.473 67.5221 105.438 67.4573C105.403 67.3925 105.387 67.3192 105.392 67.2456C105.437 66.552 105.768 66.0046 106.383 65.6034C107.144 65.1085 107.968 64.7567 108.856 64.5478Z" fill="#ECE1DF"/>
<path d="M119.605 67.7013C119.605 68.2139 119.401 68.7055 119.038 69.0679C118.676 69.4304 118.184 69.634 117.671 69.634C117.158 69.634 116.666 69.4304 116.303 69.0679C115.94 68.7055 115.736 68.2139 115.736 67.7013C115.736 67.1887 115.94 66.6971 116.303 66.3347C116.666 65.9722 117.158 65.7686 117.671 65.7686C118.184 65.7686 118.676 65.9722 119.038 66.3347C119.401 66.6971 119.605 67.1887 119.605 67.7013Z" fill="#ECE1DF"/>
<path d="M158.69 67.1317L159.144 67.7336C159.157 67.7507 159.166 67.7703 159.171 67.791C159.175 67.8118 159.176 67.8333 159.172 67.854C159.167 67.8748 159.159 67.8944 159.147 67.9116C159.135 67.9288 159.119 67.9432 159.101 67.9538C156.834 69.3074 157.436 72.6469 160.184 72.6925C160.196 72.6927 160.208 72.6956 160.218 72.701C160.229 72.7064 160.238 72.7141 160.246 72.7236C160.253 72.7331 160.258 72.7441 160.26 72.7558C160.263 72.7675 160.263 72.7796 160.26 72.7912C159.844 74.3986 158.955 75.6979 157.592 76.6889C156.619 77.1085 155.526 77.0268 154.044 77.0515C150.185 77.1123 150.905 73.3285 151.81 71.0294C152.192 70.0574 152.815 69.3492 153.714 68.7474C155.202 67.75 156.861 67.2115 158.69 67.1317ZM156.388 72.9089C156.737 72.9065 157.072 72.7529 157.317 72.482C157.563 72.2111 157.699 71.8451 157.696 71.4645C157.695 71.276 157.66 71.0896 157.592 70.9159C157.525 70.7422 157.426 70.5847 157.303 70.4523C157.18 70.3199 157.034 70.2152 156.873 70.1441C156.713 70.0731 156.541 70.0372 156.368 70.0384C156.018 70.0409 155.684 70.1944 155.438 70.4653C155.193 70.7362 155.056 71.1022 155.059 71.4828C155.06 71.6713 155.096 71.8577 155.163 72.0314C155.231 72.2051 155.329 72.3626 155.452 72.495C155.576 72.6274 155.722 72.7321 155.882 72.8032C156.043 72.8742 156.215 72.9101 156.388 72.9089Z" fill="#5A2F30"/>
<path d="M157.592 76.6889C158.955 75.6979 159.844 74.3986 160.26 72.7912C160.263 72.7796 160.263 72.7675 160.26 72.7558C160.258 72.7441 160.253 72.7331 160.246 72.7236C160.238 72.7141 160.229 72.7064 160.218 72.701C160.208 72.6956 160.196 72.6927 160.184 72.6925C157.436 72.6469 156.834 69.3074 159.101 67.9538C159.119 67.9432 159.135 67.9288 159.147 67.9116C159.159 67.8944 159.167 67.8748 159.172 67.854C159.176 67.8333 159.175 67.8118 159.171 67.791C159.166 67.7703 159.157 67.7507 159.144 67.7336L158.69 67.1317C162.287 66.7425 162.515 69.6416 162.515 72.3166C162.515 74.2265 162.472 75.358 160.646 76.1098C159.581 76.5478 158.564 76.7408 157.592 76.6889Z" fill="#ECE1DF"/>
<path d="M156.388 72.9089C156.215 72.9101 156.043 72.8742 155.882 72.8032C155.722 72.7321 155.576 72.6274 155.452 72.495C155.329 72.3626 155.231 72.2051 155.163 72.0314C155.096 71.8577 155.06 71.6713 155.059 71.4828C155.056 71.1022 155.193 70.7362 155.438 70.4653C155.684 70.1944 156.018 70.0409 156.368 70.0384C156.541 70.0372 156.713 70.0731 156.873 70.1441C157.034 70.2152 157.18 70.3199 157.303 70.4523C157.426 70.5847 157.525 70.7422 157.592 70.9159C157.66 71.0896 157.695 71.276 157.696 71.4645C157.699 71.8451 157.563 72.2111 157.317 72.482C157.072 72.7529 156.737 72.9065 156.388 72.9089Z" fill="#ECE1DF"/>
<path d="M69.1053 71.7755C72.0545 75.0239 69.1034 82.6882 67.4693 85.8455C67.088 86.5846 67.0683 86.5758 67.4104 85.8189C69.13 82.0237 71.4027 75.489 69.0445 71.8211C69.0385 71.813 69.0359 71.8029 69.0373 71.7929C69.0387 71.783 69.0441 71.774 69.0521 71.7679C69.0602 71.7619 69.0703 71.7593 69.0803 71.7607C69.0903 71.7621 69.0993 71.7675 69.1053 71.7755Z" fill="#5A2F30"/>
<path d="M125.209 89.9273C123.851 88.3338 122.362 86.8732 120.743 85.5455C120.8 85.4582 120.836 85.4031 120.825 85.2911C120.611 83.2356 121.372 81.6738 123.107 80.6055C124.076 80.0094 125.273 79.2918 126.446 79.4512C126.467 79.4539 126.488 79.4619 126.505 79.4746C126.523 79.4873 126.536 79.5042 126.546 79.5238C126.555 79.5433 126.559 79.5649 126.557 79.5864C126.556 79.6079 126.549 79.6287 126.537 79.6468C124.565 82.7053 124.572 86.1473 125.423 89.6881C125.439 89.7539 125.425 89.8128 125.384 89.8646C125.343 89.9153 125.285 89.9362 125.209 89.9273Z" fill="#C9836D"/>
<path d="M112.787 105.691C111.957 103.819 110.254 103.98 109.093 105.389C108.26 106.4 107.602 107.433 107.121 108.487C107.088 108.558 107.081 108.556 107.1 108.482C107.594 106.492 108.484 104.704 109.772 103.116C112.78 99.4066 117.807 99.6971 121.218 102.683C121.802 103.195 122.278 103.752 122.645 104.354C122.719 104.474 122.697 104.494 122.581 104.413C120.996 103.301 118.511 102.021 116.633 102.721C115.153 103.276 115.255 104.865 115.668 106.11C117.094 110.433 119.614 113.859 123.227 116.391C132.365 122.793 144.353 123.461 154.282 118.39C154.481 118.289 154.492 118.307 154.316 118.445C154.106 118.611 153.821 118.78 153.461 118.952C146.531 122.269 138.757 124.431 131.164 122.081C122.576 119.422 116.451 113.958 112.787 105.691Z" fill="#5A2F30"/>
<path d="M34.8543 150.016C30.0049 152.094 24.0193 153.953 18.7026 153.807C18.624 153.806 18.6082 153.773 18.6551 153.71C18.7184 153.627 18.795 153.563 18.885 153.52C18.8799 153.547 18.8812 153.572 18.8888 153.596C18.904 153.647 18.9382 153.667 18.9914 153.657C19.6349 153.524 20.0587 153.413 20.2626 153.323C24.9561 151.257 28.823 148.028 32.4942 144.516C38.0732 139.181 43.2949 133.54 48.1594 127.592C48.169 127.581 48.1822 127.573 48.1968 127.571C48.2113 127.569 48.2263 127.571 48.239 127.579C48.2517 127.586 48.2613 127.598 48.2663 127.612C48.2712 127.626 48.271 127.641 48.2659 127.655C44.9836 135.839 40.513 143.292 34.8543 150.016Z" fill="#C7C3C5"/>
<path d="M237.7 147.5C237.616 147.609 237.476 147.734 237.281 147.874C231.215 152.239 223.899 155.337 216.238 154.891C215.74 154.862 215.233 154.869 214.716 154.914L204.975 142.647C204.836 142.474 204.85 142.46 205.019 142.606C214.186 150.6 226.225 151.045 237.307 147.47C237.368 147.451 237.499 147.461 237.7 147.5Z" fill="#C7C3C5"/>
<path d="M228.104 145.174C229.218 145.093 231.031 145.698 232.165 145.947C233.408 146.219 235.302 146.439 236.845 146.915C235.703 146.841 234.575 146.663 233.461 146.382C233.437 146.377 233.417 146.383 233.4 146.401C233.389 146.412 233.378 146.424 233.366 146.435C233.359 146.443 233.35 146.446 233.34 146.444C231.561 146.157 229.816 145.734 228.104 145.174Z" fill="#C7C3C5"/>
<path d="M51.0458 179.055C50.9863 179.055 50.9261 179.062 50.8653 179.074C34.9417 182.503 18.2959 181.934 2.12333 179.205C2.69339 179.04 3.24254 179.23 3.69099 179.222C5.36127 179.192 7.12465 179.228 8.69421 179.131C12.639 178.886 16.1348 178.404 19.1814 177.687C32.7792 174.482 45.8773 168.363 57.5749 160.509C57.5833 160.503 57.5933 160.5 57.6036 160.5C57.6138 160.5 57.6238 160.503 57.6321 160.51C57.6405 160.516 57.6468 160.525 57.6501 160.535C57.6535 160.545 57.6538 160.556 57.6509 160.566C55.7634 166.903 53.5617 173.066 51.0458 179.055Z" fill="#C7C3C5"/>
<path d="M253.947 199.567C248.832 201.42 243.583 202.751 238.2 203.56C238.189 203.561 237.955 203.625 237.497 203.751C237.075 203.867 236.764 203.715 236.378 203.77C226.138 205.238 215.493 204.359 206.039 199.956C206.017 199.946 205.994 199.947 205.973 199.96L205.927 199.987C205.213 197.416 204.508 194.737 203.744 192.286C200.951 183.328 197.59 174.374 193.663 165.426C193.428 164.889 193.255 164.515 193.147 164.302C193.131 164.272 193.14 164.258 193.173 164.262C193.2 164.263 193.22 164.276 193.234 164.3C205.954 185.115 226.949 198.081 251.42 199.25C252.07 199.28 252.868 199.269 253.406 199.239C253.693 199.222 253.874 199.332 253.947 199.567Z" fill="#C7C3C5"/>
<path d="M214.376 255.938C214.346 255.963 214.315 255.976 214.281 255.976C205.846 256.129 197.464 255.549 189.133 254.235C189.054 254.222 188.812 254.22 188.409 254.229C187.986 254.239 187.775 254.047 187.433 253.992C154.229 248.748 123.472 234.373 99.2558 211.059C99.2392 211.042 99.2173 211.032 99.1937 211.03C99.1701 211.028 99.1464 211.034 99.1266 211.047C84.4666 220.981 67.4997 228.079 50.0691 230.857C49.2179 230.992 47.3132 231.186 44.3552 231.438C33.5488 232.356 22.5866 230.923 12.5744 226.669C12.8214 226.663 13.0305 226.593 13.2718 226.629C33.0453 229.558 52.661 226.746 68.3795 213.738C82.7773 201.823 96.6424 172.562 100.57 154.458C100.573 154.444 100.56 154.468 100.57 154.458C100.584 154.456 100.557 154.452 100.57 154.458C100.583 154.464 100.563 154.446 100.57 154.458C121.317 206.658 157.731 242.69 202.912 253.595C204.992 254.098 208.65 255.002 211.774 255.439C212.66 255.564 213.547 255.712 214.436 255.883C214.452 255.887 214.447 255.892 214.423 255.898C214.402 255.903 214.386 255.916 214.376 255.938Z" fill="#C7C3C5"/>
</svg>
