<svg xmlns="http://www.w3.org/2000/svg" fill="none" viewBox="0 0 256 256"><path fill="#FD0000" d="m219.506 7.05.27 1.565c.548 4.16-.175 7.855-1.52 11.771a5.4 5.4 0 0 0-.603 1.614q-3.031 7.45-8.501 12.59-2.36 2.219-6.188 4.742a.28.28 0 0 1-.177-.078q-.076-.066-.007-.14c1.547-1.68 3.74-3.479 4.912-4.67 5.069-5.137 8.825-12.305 9.066-19.61.122-3.709-1.237-9.61-5.382-10.885-1.954-.602-4.083.52-5.827 1.606a65.4 65.4 0 0 0-8.389 6.185c-10.309 8.948-19.789 18.682-29.704 28.04-2.016 1.904-3.717 3.557-6.445 4.07q-2.718.513-8.269.845a329 329 0 0 1-14.397.095l-9.685-.245-2.45-.032a.25.25 0 0 1-.165-.065c-.323-.285-1.724-.093-2.347-.112a271 271 0 0 1-5.17-.209c-.518-.024-1.13.046-1.695.01-6.161-.408-12.992 1.306-18.646 3.687-.48.201-.92.163-1.407.24l-1.153-.043q-.352-.324.044-.486l7.645-3.115a35.6 35.6 0 0 1 5.286-1.251c3.696-.581 7.045-.735 10.962-.914.561-.026 1.467.06 2.33-.003q1.926-.139 6.515-.145c.553 0 1.027.228 1.585.207 1.061-.041 2.182.1 3.153.08 7.737-.165 15.895.43 24.308-.363 2.368-.222 4.271-1.188 5.979-2.804 2.916-2.754 5.778-5.574 8.513-8.51q10.086-10.834 17.954-18.441 4.216-4.075 10.459-8.77 2.716-1.238 5.487-2.394 1.884-.788 3.06-.966c5.261-.805 9.33 1.747 10.599 6.903"/><path fill="#FF5251" d="M200.36 3.507q-6.243 4.695-10.459 8.769-7.868 7.607-17.954 18.44c-2.735 2.937-5.597 5.756-8.513 8.511-1.708 1.616-3.611 2.582-5.979 2.804-8.413.794-16.571.198-24.308.363-.971.02-2.092-.121-3.153-.08-.558.021-1.032-.207-1.585-.207q-4.59.006-6.515.145c-.863.062-1.769-.023-2.33.003-3.917.179-7.266.333-10.962.914q-2.682.421-5.286 1.25a13040 13040 0 0 1 35.75-15.153q.15-.062.19-.146a.34.34 0 0 0 .163-.029 59210 59210 0 0 0 52.508-22.154q3.435-1.45 8.433-3.43"/><path fill="#993414" d="M202.964 39.332 155.633 48l-2.891-3.305q5.551-.332 8.269-.845c2.728-.513 4.429-2.166 6.445-4.07 9.915-9.358 19.395-19.092 29.704-28.04a65.4 65.4 0 0 1 8.389-6.185c1.744-1.086 3.873-2.208 5.827-1.606 4.145 1.276 5.504 7.176 5.382 10.884-.241 7.306-3.997 14.474-9.066 19.612-1.172 1.19-3.365 2.988-4.912 4.668q-.07.074.007.14.083.075.177.079M219.506 7.05q.291.753.27 1.565z"/><path fill="#FF5251" d="m116.299 17.119-.162.144a.25.25 0 0 1-.153.067q-2.068.174-3.769.488c-14.477 2.675-19.086 17.115-17.544 29.879q.02.172.01.353L72.857 60.508c-.973-10.649 5.354-21.425 12.055-29.186 7.865-9.11 19.388-13.977 31.386-14.203"/><path fill="#D20B09" d="M116.299 17.119c4.36.01 7.589.072 11.445 1.43 5.255 1.85 8.794 5.465 11.424 10.272q.091.168.088.298-.04.084-.19.147a13040 13040 0 0 0-35.75 15.154q-3.82 1.554-7.645 3.115-.396.162-.044.486l-.947.029q.012-.18-.01-.353c-1.54-12.764 3.068-27.204 17.545-29.88a39 39 0 0 1 3.769-.487.25.25 0 0 0 .153-.067z"/><path fill="#993414" d="M218.256 20.386a4.5 4.5 0 0 1-.603 1.614q.171-.856.603-1.614"/><path fill="#DC9370" d="M128.66 44.545c-1.61.091-3.24.047-4.856.078q-4.907.09-10.447 1.226c-6.426 1.318-9.837 7.617-11.401 13.425a.1.1 0 0 0 .001.046.1.1 0 0 0 .027.038.08.08 0 0 0 .089.005c4.488-2.736 9.819-5.09 15.117-5.424q1.21-.078 3.792.116c3.94.296 7.857.357 11.783-.179a.24.24 0 0 0 .158-.087l1.051-1.278c.065.01.061-.007.107.038 3.084 3.1 5.38 6.96 5.547 11.266.221 5.705.582 10.74 1.735 16.075.903 4.173 2.355 8.657 4.93 12.236.844 1.171 2.815 2.764 2.158 4.235a602 602 0 0 0-4.039 9.237c-5.544-.511-9.904-3.784-13.199-7.986a1302 1302 0 0 1-5.981-7.685q.114.014.174-.062a.2.2 0 0 0 .04-.177c-.851-3.54-.859-6.983 1.114-10.041a.1.1 0 0 0 .02-.06.12.12 0 0 0-.052-.112.13.13 0 0 0-.059-.024c-1.173-.16-2.37.558-3.339 1.155q-2.604 1.602-2.283 4.685c.011.112-.025.167-.082.255q-4.175-3.075-9.12-2.987c-9.632.175-17.257 5.003-21.013 13.84a.15.15 0 0 1-.137.097c-6.313.46-9.843-3.523-10.867-9.246-1.444-8.074.6-16.703 8.336-20.878 1.819-.981 3.586-1.564 3.263-4.04-.367-2.812-.278-5.217.956-7.805a22.8 22.8 0 0 1 4.597-6.462c.487-.078.928-.04 1.407-.241 5.654-2.381 12.485-4.095 18.646-3.687.565.036 1.177-.034 1.695-.01q2.586.129 5.17.21c.623.018 2.024-.174 2.347.111a.25.25 0 0 0 .165.065zm-19.785 20.003a7.8 7.8 0 0 0-2.472 1.055q-.924.602-.992 1.643a.39.39 0 0 0 .197.366q1.44.825 2.979 1.416.18.224.399.333a124 124 0 0 0 12.262 5.274q.122.043.392-.033 2.315 1.012 4.542 1.177c4.487.337 6.469-5.034 6.502-8.683.019-2.197-1.306-3.182-3.345-3.767a21.7 21.7 0 0 0-5.193-.832q-4.54-.373-8.765.428-2.982.566-6.506 1.623"/><path fill="#ECE1DF" d="m128.66 44.545 9.685.245a106 106 0 0 1-4.371 7.721l-1.051 1.278a.24.24 0 0 1-.158.087c-3.926.536-7.843.475-11.783.179q-2.582-.195-3.792-.116c-5.298.334-10.629 2.688-15.117 5.424a.08.08 0 0 1-.089-.005.1.1 0 0 1-.027-.038.1.1 0 0 1-.001-.046c1.564-5.808 4.975-12.107 11.401-13.425q5.54-1.137 10.447-1.226c1.616-.03 3.246.013 4.856-.078"/><path fill="#E8A887" d="M152.742 44.695 155.633 48l2.622 3.63q-2.181-.42-3.818 1.02c-1.902 1.672-3.023 4.325-3.54 6.75-7.473 12.108-1.576 25.758 5.644 36.156.802 1.155-1.866 6.305-2.594 7.769q-.027.055.023.091l.055.038q-1.471 1.956-3.942 2.138c-1.796.133-3.896.296-5.671.006q1.987-4.65 4.039-9.237c.657-1.471-1.314-3.064-2.158-4.235-2.575-3.579-4.027-8.063-4.93-12.236-1.153-5.335-1.514-10.37-1.735-16.075-.167-4.306-2.463-8.165-5.547-11.266-.046-.045-.042-.028-.107-.038a106 106 0 0 0 4.371-7.721q7.2.11 14.397-.095"/><path fill="#FBF9FC" d="m95.627 48.021 1.153.044a22.8 22.8 0 0 0-4.597 6.462c-1.234 2.588-1.323 4.993-.956 7.805.323 2.476-1.444 3.059-3.263 4.04-7.735 4.175-9.78 12.804-8.336 20.878 1.024 5.722 4.554 9.706 10.867 9.246a.15.15 0 0 0 .137-.097c3.756-8.837 11.381-13.665 21.013-13.84q4.945-.09 9.12 2.987a35 35 0 0 1 4.467 4.381 1302 1302 0 0 0 5.981 7.685c3.295 4.202 7.655 7.475 13.199 7.986 1.775.29 3.875.127 5.671-.006q2.47-.182 3.942-2.138a16.9 16.9 0 0 0 3.303-4.165c2.003-3.554 3.607-6.96 7.914-8.173q1.914-.54 4.272-.634c.774.1 1.631.074 2.336.303 6.996 2.264 7.372 11.771 6.671 17.679-.097.817-.344 1.741.008 2.408 4.325 8.224 11.021 14.89 18.648 20.253a55 55 0 0 0 3.185 2.073 110.6 110.6 0 0 0 27.784 11.976q2.568.84 5.236 1.27a.03.03 0 0 0 .027-.009l.034-.034a.06.06 0 0 1 .061-.019q1.67.422 3.385.533l1.193.186q.168.026.031.128l-.369.271q-.303-.059-.393-.03c-11.084 3.575-23.126 3.13-32.295-4.864q-.253-.219-.043.041l9.742 12.267c7.155 9.202 13.526 17.278 19.321 26.609 3.343 5.385 8.134 9.51 13.374 12.977 2.374 1.57 4.953 3.205 7.549 4.63a.1.1 0 0 1 .037.039.09.09 0 0 1-.012.103.1.1 0 0 1-.046.029l-.984.266q-.11-.353-.542-.328c-.538.03-1.336.041-1.986.011-24.475-1.169-45.474-14.135-58.197-34.95a.07.07 0 0 0-.061-.038q-.049-.005-.026.04.163.319.517 1.124 5.892 13.422 10.082 26.86c.764 2.451 1.469 5.13 2.184 7.701 1.323 5.241 2.282 10.635 2.56 16.036.637 12.318 1.632 25.103 5.645 36.839q.461 1.348 1.446 2.962.066.108-.061.108l-1.14.006a.07.07 0 0 1 .047-.04q.036-.009.014-.015a54 54 0 0 0-2.663-.444c-3.125-.437-6.783-1.341-8.864-1.844-45.19-10.905-81.61-46.937-102.361-99.137-.007-.012.013.006 0 0s.014-.002 0 0c-.01.01.004-.014 0 0-3.928 18.104-17.796 47.365-32.196 59.28-15.721 13.008-35.34 15.82-55.118 12.891-.241-.036-.45.034-.697.04l-.776-.255a.05.05 0 0 1-.024-.016.05.05 0 0 1-.01-.027q0-.014.007-.027a.05.05 0 0 1 .022-.019 53.2 53.2 0 0 0 13.967-9.371c11.302-10.503 19.29-23.806 25.292-37.899a181 181 0 0 0 6.606-18.489.05.05 0 0 0 0-.031.05.05 0 0 0-.018-.025.04.04 0 0 0-.029-.01.05.05 0 0 0-.029.009c-11.7 7.854-24.8 13.973-38.4 17.178q-4.57 1.076-10.49 1.444c-1.57.097-3.333.061-5.003.091-.449.008-.998-.182-1.568-.017l-2.087-.332-.024-.013a.04.04 0 0 1-.012-.023l.003-.027a.04.04 0 0 1 .018-.02 127.6 127.6 0 0 0 30.042-23.274 80 80 0 0 0 4.797-5.5 81.8 81.8 0 0 0 13.414-22.361.06.06 0 0 0 0-.043.06.06 0 0 0-.027-.033.06.06 0 0 0-.08.013A189 189 0 0 1 32.5 144.516c-3.672 3.512-7.54 6.741-12.234 8.807q-.306.135-1.271.334-.08.015-.103-.061a.15.15 0 0 1-.004-.076c9.807-9.31 18.726-19.572 26.315-30.771 6.994-10.318 12.244-20.612 15.528-32.573a36.3 36.3 0 0 0 4.415 7.47.11.11 0 0 0 .088.043.1.1 0 0 0 .087-.046c6.853-9.538 12.277-22.48 9.62-34.441q-.02-.093-.116-.103a18 18 0 0 0-4.179.069q.842-1.622 2.212-2.66L94.68 48.05zm13.486 57.368c1.161-1.409 2.864-1.57 3.695.302q5.496 12.401 18.38 16.39c7.594 2.35 15.37.188 22.301-3.129q.54-.258.855-.507.264-.207-.034-.055c-9.93 5.071-21.921 4.403-31.061-1.999q-5.42-3.797-7.56-10.281c-.412-1.245-.515-2.834.965-3.389 1.878-.7 4.364.58 5.949 1.692q.175.121.065-.059a7.3 7.3 0 0 0-1.428-1.671c-3.411-2.986-8.44-3.276-11.448.433a13.64 13.64 0 0 0-2.673 5.366q-.029.111.021.005.722-1.581 1.973-3.098"/><path fill="#ECE1DF" d="M158.255 51.63c.571.25 1.173.494 1.618.93 2.853 2.799 2.969 8.126 2.569 11.796a50 50 0 0 1-2.098-2.345c-2.313-2.715-5.99-4.583-9.447-2.61.517-2.426 1.638-5.079 3.54-6.751q1.637-1.44 3.818-1.02"/><path fill="#C9836D" d="M162.442 64.356c.671 3.452.996 6.656.246 10.142a.3.3 0 0 0 .136.319c5.527 3.385 9.005 9.088 6.69 15.665q-2.358.094-4.272.634c-4.307 1.213-5.911 4.619-7.914 8.173a16.9 16.9 0 0 1-3.303 4.165l-.055-.038q-.05-.036-.023-.091c.728-1.464 3.396-6.614 2.594-7.769-7.22-10.398-13.117-24.048-5.644-36.155 3.457-1.973 7.134-.105 9.447 2.61q1.247 1.468 2.098 2.345m-4.821 12.333q1.457.078 3.054-.58c1.826-.751 1.87-1.882 1.87-3.792 0-2.675-.228-5.574-3.826-5.185q-2.744.12-4.977 1.615c-.899.602-1.523 1.31-1.905 2.282-.904 2.3-1.625 6.083 2.235 6.023 1.483-.025 2.576.056 3.549-.363"/><path fill="#5A2F30" d="M124.146 62.497q-1.36.224-2.231 1.073c-.973.947-1.209 2.567-.576 3.75q1.317 2.465 4.022 1.629a.105.105 0 0 1 .132.07.1.1 0 0 1 .001.055q-.865 3.51-3.854 5.528-.27.076-.392.033a124 124 0 0 1-12.262-5.274 1.2 1.2 0 0 1-.399-.333 13 13 0 0 1 .288-4.48q3.524-1.058 6.506-1.623 4.225-.801 8.765-.428m-4.519 5.204a1.93 1.93 0 0 0-1.935-1.932 1.936 1.936 0 0 0-1.935 1.932 1.93 1.93 0 0 0 1.935 1.933 1.936 1.936 0 0 0 1.935-1.933"/><path fill="#ECE1DF" d="M121.64 74.602q2.989-2.018 3.854-5.528a.1.1 0 0 0-.001-.055.1.1 0 0 0-.029-.047.1.1 0 0 0-.103-.023q-2.705.835-4.022-1.63c-.633-1.182-.397-2.802.576-3.749q.87-.849 2.231-1.073 2.65.102 5.193.832c2.039.585 3.364 1.57 3.345 3.767-.033 3.649-2.015 9.02-6.502 8.683q-2.227-.165-4.542-1.177"/><path fill="#DC9370" d="M60.73 90.176a.3.3 0 0 1-.009-.188.3.3 0 0 0-.011-.177q-2.99-8.448-.28-17.024c1.584-5.006 5.014-8.528 10.216-9.62a18 18 0 0 1 4.18-.068q.094.01.115.103c2.657 11.96-2.767 24.903-9.62 34.44a.11.11 0 0 1-.136.037.1.1 0 0 1-.04-.032 36.3 36.3 0 0 1-4.414-7.471m8.388-18.4a.04.04 0 0 0-.053-.008.04.04 0 0 0-.015.025q-.002.016.007.028c2.359 3.668.086 10.203-1.634 13.998q-.513 1.136.059.026c1.634-3.157 4.586-10.821 1.636-14.07"/><path fill="#ECE1DF" d="M108.875 64.548a13 13 0 0 0-.288 4.48 21.6 21.6 0 0 1-2.979-1.416.4.4 0 0 1-.197-.366q.068-1.04.992-1.643a7.8 7.8 0 0 1 2.472-1.055m10.752 3.153a1.93 1.93 0 0 1-1.935 1.933 1.936 1.936 0 0 1-1.935-1.933 1.93 1.93 0 0 1 1.935-1.932 1.936 1.936 0 0 1 1.935 1.932"/><path fill="#5A2F30" d="m158.719 67.132.454.602a.16.16 0 0 1 .028.12.15.15 0 0 1-.071.1c-2.268 1.353-1.665 4.693 1.083 4.738q.019 0 .034.009a.1.1 0 0 1 .028.023q.01.014.015.032a.1.1 0 0 1-.001.035q-.624 2.412-2.668 3.898c-.973.42-2.066.338-3.549.363-3.86.06-3.139-3.724-2.235-6.023.382-.972 1.006-1.68 1.905-2.282q2.233-1.495 4.977-1.615m-2.303 5.777a1.27 1.27 0 0 0 .93-.427 1.5 1.5 0 0 0 .379-1.017 1.6 1.6 0 0 0-.104-.55 1.5 1.5 0 0 0-.289-.463 1.3 1.3 0 0 0-.43-.308 1.2 1.2 0 0 0-.506-.106c-.35.003-.684.156-.929.427a1.5 1.5 0 0 0-.38 1.018c.002.188.037.375.105.548.067.174.165.332.289.464s.269.237.43.308.332.107.505.106"/><path fill="#ECE1DF" d="M157.621 76.689q2.044-1.486 2.668-3.898a.1.1 0 0 0 .001-.035.1.1 0 0 0-.015-.032.1.1 0 0 0-.028-.023.1.1 0 0 0-.034-.008c-2.748-.046-3.351-3.386-1.083-4.74a.15.15 0 0 0 .071-.099.16.16 0 0 0-.028-.12l-.454-.602c3.598-.39 3.826 2.51 3.826 5.185 0 1.91-.044 3.041-1.87 3.793q-1.597.656-3.054.579"/><path fill="#ECE1DF" d="M156.416 72.909a1.2 1.2 0 0 1-.505-.106 1.3 1.3 0 0 1-.43-.308 1.4 1.4 0 0 1-.289-.464 1.6 1.6 0 0 1-.105-.548c-.002-.38.134-.747.38-1.018a1.23 1.23 0 0 1 1.435-.321c.16.071.306.176.43.308q.186.201.289.464c.067.174.103.36.104.549.003.38-.134.746-.379 1.017-.246.27-.58.424-.93.427"/><path fill="#5A2F30" d="M69.118 71.776c2.95 3.248-.002 10.912-1.636 14.07q-.572 1.109-.06-.027c1.72-3.795 3.994-10.33 1.635-13.998a.04.04 0 0 1-.007-.028.04.04 0 0 1 .015-.025.04.04 0 0 1 .053.008"/><path fill="#C9836D" d="M125.232 89.927a35 35 0 0 0-4.467-4.382c.057-.087.093-.142.082-.254q-.321-3.083 2.283-4.685c.969-.597 2.166-1.314 3.339-1.155a.13.13 0 0 1 .1.073q.014.03.011.062a.1.1 0 0 1-.02.06c-1.973 3.06-1.965 6.501-1.114 10.042a.2.2 0 0 1-.04.177q-.06.075-.174.062"/><path fill="#5A2F30" d="M112.808 105.691c-.831-1.872-2.534-1.711-3.695-.302q-1.25 1.517-1.973 3.098-.05.106-.021-.005a13.64 13.64 0 0 1 2.673-5.366c3.008-3.71 8.037-3.419 11.448-.433a7.3 7.3 0 0 1 1.428 1.671q.11.18-.065.059c-1.585-1.112-4.071-2.392-5.949-1.692-1.48.555-1.377 2.144-.965 3.389q2.14 6.484 7.56 10.281c9.14 6.402 21.131 7.07 31.061 1.999q.298-.152.034.055-.315.249-.855.507c-6.931 3.317-14.707 5.479-22.301 3.129q-12.884-3.989-18.38-16.39"/><path fill="#C7C3C5" d="M34.86 150.016c-4.85 2.078-10.836 3.937-16.154 3.791q-.118-.002-.047-.097a.6.6 0 0 1 .23-.19.15.15 0 0 0 .003.076q.023.076.103.061.965-.2 1.271-.334c4.695-2.066 8.562-5.295 12.234-8.807a189 189 0 0 0 15.668-16.924.06.06 0 0 1 .08-.013.06.06 0 0 1 .027.033.06.06 0 0 1 0 .043 81.8 81.8 0 0 1-13.414 22.361m202.883-2.516a2 2 0 0 1-.42.374c-6.067 4.365-13.384 7.463-21.047 7.017a10.5 10.5 0 0 0-1.522.023l-9.742-12.267q-.21-.26.043-.041c9.169 7.994 21.211 8.439 32.295 4.864q.09-.029.393.03m-9.598-2.326c1.114-.081 2.927.524 4.062.773 1.243.272 3.137.492 4.681.968a19 19 0 0 1-3.385-.533.06.06 0 0 0-.061.019l-.034.034a.03.03 0 0 1-.027.009 34.5 34.5 0 0 1-5.236-1.27M51.055 179.055q-.09 0-.18.019c-15.927 3.429-32.576 2.86-48.751.131.57-.165 1.12.025 1.568.017 1.67-.03 3.434.006 5.004-.091q5.918-.368 10.489-1.444c13.6-3.205 26.7-9.324 38.4-17.178a.05.05 0 0 1 .03-.009q.016 0 .028.01a.05.05 0 0 1 .018.025.05.05 0 0 1 0 .031 181 181 0 0 1-6.606 18.489m202.939 20.512a82 82 0 0 1-15.75 3.993q-.018.002-.703.191c-.422.116-.734-.036-1.12.019-10.242 1.468-20.889.589-30.344-3.814a.07.07 0 0 0-.066.004l-.046.027c-.715-2.571-1.42-5.25-2.184-7.701q-4.19-13.437-10.082-26.86a24 24 0 0 0-.517-1.124q-.023-.046.026-.04a.07.07 0 0 1 .061.038c12.723 20.815 33.722 33.781 58.197 34.95.65.03 1.448.019 1.986-.011q.431-.025.542.328m-39.579 56.371a.14.14 0 0 1-.095.038q-12.654.23-25.152-1.741-.12-.02-.724-.006c-.424.01-.635-.182-.977-.237-33.21-5.244-63.973-19.619-88.193-42.933a.1.1 0 0 0-.062-.029.1.1 0 0 0-.067.017c-14.663 9.934-31.633 17.032-49.067 19.81q-1.276.203-5.715.581c-10.808.918-21.772-.515-31.786-4.769.247-.006.456-.076.697-.04 19.777 2.929 39.397.117 55.118-12.891 14.4-11.915 28.268-41.176 32.196-59.28-.01.01.004-.014 0 0-.012-.006.014-.002 0 0-.007-.012.013.006 0 0 20.751 52.2 57.171 88.232 102.361 99.137 2.081.503 5.739 1.407 8.864 1.844q1.328.188 2.663.444.022.006-.014.015a.07.07 0 0 0-.047.04"/></svg>