<svg width="256" height="256" viewBox="0 0 256 256" fill="none" xmlns="http://www.w3.org/2000/svg">
<path d="M219.506 7.04914L219.776 8.61542C220.324 12.7751 219.601 16.4696 218.256 20.3863C217.968 20.8913 217.767 21.4292 217.653 22C215.632 26.9666 212.799 31.1629 209.152 34.5891C207.578 36.0687 205.516 37.6496 202.964 39.3316C202.901 39.3291 202.842 39.3032 202.787 39.2538C202.736 39.2095 202.734 39.1627 202.78 39.1133C204.327 37.4331 206.52 35.6352 207.692 34.4448C212.761 29.3074 216.517 22.1386 216.758 14.8331C216.88 11.1253 215.521 5.22466 211.376 3.94885C209.422 3.34702 207.293 4.46905 205.549 5.555C202.588 7.39404 199.791 9.45584 197.16 11.7404C186.851 20.6881 177.371 30.4219 167.456 39.7797C165.44 41.6839 163.739 43.3375 161.011 43.8501C159.199 44.1919 156.443 44.4735 152.742 44.695C147.944 44.8317 143.145 44.8633 138.345 44.7899L128.66 44.545L126.21 44.5127C126.147 44.5114 126.092 44.4899 126.045 44.4482C125.722 44.1634 124.321 44.3551 123.698 44.3361C121.975 44.283 120.252 44.2134 118.528 44.1273C118.01 44.1026 117.398 44.1729 116.833 44.1368C110.672 43.7286 103.841 45.443 98.1868 47.8237C97.7079 48.025 97.2669 47.987 96.7804 48.0649L95.6268 48.0212C95.3924 47.8048 95.407 47.6427 95.6705 47.5352C98.221 46.4948 100.77 45.4563 103.316 44.4197C105.052 43.8666 106.814 43.4495 108.602 43.1686C112.298 42.5876 115.647 42.4338 119.564 42.2554C120.125 42.2288 121.031 42.3142 121.894 42.2516C123.178 42.1592 125.349 42.1111 128.409 42.1073C128.962 42.1073 129.436 42.3351 129.994 42.3142C131.055 42.2725 132.176 42.4148 133.147 42.394C140.884 42.2288 149.042 42.8249 157.455 42.0313C159.823 41.8092 161.726 40.8429 163.434 39.2272C166.35 36.4725 169.212 33.6532 171.947 30.7161C178.671 23.4942 184.656 17.3474 189.901 12.2758C192.712 9.55962 196.198 6.63653 200.36 3.5065C202.171 2.68127 204 1.88326 205.847 1.11246C207.103 0.5872 208.123 0.265083 208.907 0.146109C214.168 -0.658865 218.237 1.89275 219.506 7.04914Z" fill="#FD0000"/>
<path d="M200.36 3.5065C196.198 6.63653 192.712 9.55962 189.901 12.2758C184.656 17.3474 178.671 23.4942 171.947 30.7161C169.212 33.6532 166.35 36.4725 163.434 39.2272C161.726 40.8429 159.823 41.8092 157.455 42.0313C149.042 42.8249 140.884 42.2288 133.147 42.394C132.176 42.4148 131.055 42.2725 129.994 42.3142C129.436 42.3351 128.962 42.1073 128.409 42.1073C125.349 42.1111 123.178 42.1592 121.894 42.2516C121.031 42.3142 120.125 42.2288 119.564 42.2554C115.647 42.4338 112.298 42.5876 108.602 43.1686C106.814 43.4495 105.052 43.8666 103.316 44.4197C120.103 37.2838 132.02 32.2324 139.066 29.2657C139.166 29.2239 139.229 29.1752 139.256 29.1195C139.313 29.1233 139.367 29.1138 139.419 29.091C156.926 21.7146 174.428 14.33 191.927 6.93713C194.217 5.97015 197.028 4.8266 200.36 3.5065Z" fill="#FF5251"/>
<path d="M202.964 39.3316L155.633 48.0003L152.742 44.695C156.443 44.4735 159.199 44.1919 161.011 43.8501C163.739 43.3375 165.44 41.6839 167.456 39.7797C177.371 30.4219 186.851 20.6881 197.16 11.7404C199.791 9.45584 202.588 7.39404 205.549 5.555C207.293 4.46905 209.422 3.34702 211.376 3.94885C215.521 5.22466 216.88 11.1253 216.758 14.8331C216.517 22.1386 212.761 29.3074 207.692 34.4448C206.52 35.6352 204.327 37.4331 202.78 39.1133C202.734 39.1627 202.736 39.2095 202.787 39.2538C202.842 39.3032 202.901 39.3291 202.964 39.3316Z" fill="#993414"/>
<path d="M219.506 7.04914C219.7 7.55162 219.79 8.07371 219.776 8.61542L219.506 7.04914Z" fill="#993414"/>
<path d="M116.299 17.1189L116.137 17.2632C116.094 17.3024 116.043 17.3246 115.984 17.3296C114.605 17.4461 113.349 17.6087 112.215 17.8176C97.7383 20.4926 93.1295 34.9328 94.6708 47.6965C94.6847 47.8117 94.6879 47.9294 94.6803 48.0497L72.8582 60.5078C71.8852 49.859 78.2121 39.0829 84.9134 31.3218C92.7779 22.2127 104.301 17.3448 116.299 17.1189Z" fill="#FF5251"/>
<path d="M116.299 17.1189C120.659 17.1284 123.888 17.1911 127.744 18.5485C132.999 20.3996 136.538 24.0143 139.168 28.8214C139.229 28.9328 139.258 29.0321 139.256 29.1195C139.229 29.1752 139.166 29.2239 139.066 29.2657C132.02 32.2324 120.103 37.2838 103.316 44.4197C100.77 45.4563 98.221 46.4948 95.6705 47.5352C95.407 47.6427 95.3924 47.8048 95.6268 48.0212L94.6803 48.0497C94.6879 47.9294 94.6847 47.8117 94.6708 47.6965C93.1295 34.9328 97.7383 20.4926 112.215 17.8176C113.349 17.6087 114.605 17.4461 115.984 17.3296C116.043 17.3246 116.094 17.3024 116.137 17.2632L116.299 17.1189Z" fill="#D20B09"/>
<path d="M218.256 20.3863C218.159 20.9622 217.959 21.5001 217.653 22C217.767 21.4292 217.968 20.8913 218.256 20.3863Z" fill="#993414"/>
<path d="M128.66 44.545C127.05 44.6361 125.42 44.5924 123.804 44.6228C120.533 44.6823 117.05 45.0911 113.357 45.8493C106.931 47.1668 103.52 53.4661 101.956 59.2737C101.951 59.289 101.952 59.3052 101.957 59.3202C101.962 59.3352 101.972 59.3484 101.984 59.3579C101.997 59.3675 102.012 59.3731 102.028 59.374C102.044 59.3749 102.06 59.3711 102.073 59.363C106.561 56.6272 111.892 54.273 117.19 53.9389C117.997 53.887 119.261 53.9256 120.982 54.0547C124.922 54.3509 128.839 54.4116 132.765 53.8762C132.829 53.8674 132.881 53.8383 132.923 53.7889L133.974 52.5112C134.039 52.5207 134.035 52.5036 134.081 52.5492C137.165 55.6495 139.461 59.5092 139.628 63.815C139.849 69.5201 140.21 74.555 141.363 79.8898C142.266 84.0628 143.718 88.5471 146.293 92.1258C147.137 93.2972 149.108 94.89 148.451 96.3614C147.083 99.4193 145.737 102.498 144.412 105.598C138.868 105.087 134.508 101.814 131.213 97.6125C129.211 95.0596 127.217 92.4979 125.232 89.9273C125.308 89.9362 125.366 89.9153 125.406 89.8646C125.448 89.8128 125.462 89.7539 125.446 89.6881C124.595 86.1473 124.587 82.7053 126.56 79.6468C126.572 79.6287 126.579 79.6079 126.58 79.5864C126.582 79.5649 126.578 79.5433 126.569 79.5238C126.56 79.5042 126.546 79.4873 126.528 79.4746C126.511 79.4619 126.49 79.4539 126.469 79.4512C125.296 79.2918 124.099 80.0094 123.13 80.6056C121.394 81.6738 120.633 83.2356 120.847 85.2911C120.858 85.4031 120.822 85.4582 120.765 85.5455C117.982 83.4951 114.941 82.4996 111.645 82.5591C102.013 82.7338 94.3876 87.5618 90.6321 96.3994C90.6068 96.4589 90.5612 96.4911 90.4953 96.4962C84.1817 96.9556 80.6524 92.9725 79.628 87.2504C78.1836 79.176 80.2286 70.5472 87.9638 66.3723C89.7826 65.3908 91.5501 64.8079 91.227 62.3323C90.8602 59.5205 90.9495 57.1151 92.183 54.5274C93.3373 52.1062 94.8697 49.952 96.7804 48.0649C97.2669 47.987 97.7079 48.025 98.1868 47.8237C103.841 45.443 110.672 43.7286 116.833 44.1368C117.398 44.1729 118.01 44.1026 118.528 44.1273C120.252 44.2134 121.975 44.283 123.698 44.3361C124.321 44.3551 125.722 44.1634 126.045 44.4482C126.092 44.4899 126.147 44.5114 126.21 44.5127L128.66 44.545ZM108.875 64.5478C107.987 64.7567 107.163 65.1085 106.403 65.6034C105.787 66.0046 105.456 66.552 105.411 67.2456C105.406 67.3192 105.422 67.3925 105.457 67.4573C105.492 67.5221 105.545 67.5757 105.608 67.6121C106.568 68.1614 107.56 68.6335 108.587 69.0284C108.707 69.1777 108.84 69.2884 108.986 69.3606C112.978 71.3389 117.066 73.0969 121.248 74.6347C121.329 74.6638 121.46 74.653 121.64 74.6024C123.183 75.277 124.697 75.6694 126.182 75.7795C130.669 76.1155 132.651 70.7446 132.684 67.0956C132.703 64.8991 131.378 63.9137 129.339 63.329C127.643 62.8417 125.913 62.5645 124.146 62.4974C121.119 62.2481 118.198 62.3905 115.381 62.9246C113.393 63.3018 111.225 63.8428 108.875 64.5478Z" fill="#DC9370"/>
<path d="M128.66 44.545L138.345 44.7899C136.996 47.4238 135.539 49.9975 133.974 52.5112L132.923 53.7889C132.881 53.8383 132.829 53.8674 132.765 53.8762C128.839 54.4116 124.922 54.3509 120.982 54.0547C119.261 53.9256 117.997 53.887 117.19 53.9389C111.892 54.273 106.561 56.6272 102.073 59.363C102.06 59.3711 102.044 59.3749 102.028 59.374C102.012 59.3731 101.997 59.3675 101.984 59.3579C101.972 59.3484 101.962 59.3352 101.957 59.3202C101.952 59.3052 101.951 59.289 101.956 59.2737C103.52 53.4661 106.931 47.1668 113.357 45.8493C117.05 45.0911 120.533 44.6823 123.804 44.6228C125.42 44.5924 127.05 44.6361 128.66 44.545Z" fill="#ECE1DF"/>
<path d="M152.742 44.695L155.633 48.0003L158.255 51.6303C156.801 51.3506 155.528 51.6904 154.437 52.6498C152.535 54.3224 151.414 56.9746 150.897 59.4009C143.424 71.5078 149.321 85.1582 156.541 95.5564C157.343 96.7107 154.675 101.861 153.947 103.325C153.929 103.362 153.937 103.392 153.97 103.416L154.025 103.454C153.044 104.758 151.73 105.471 150.083 105.592C148.287 105.725 146.187 105.888 144.412 105.598C145.737 102.498 147.083 99.4193 148.451 96.3614C149.108 94.89 147.137 93.2972 146.293 92.1258C143.718 88.5471 142.266 84.0628 141.363 79.8898C140.21 74.555 139.849 69.5201 139.628 63.815C139.461 59.5092 137.165 55.6495 134.081 52.5492C134.035 52.5036 134.039 52.5207 133.974 52.5112C135.539 49.9975 136.996 47.4238 138.345 44.7899C143.145 44.8633 147.944 44.8317 152.742 44.695Z" fill="#E8A887"/>
<path d="M95.6268 48.0212L96.7804 48.0649C94.8697 49.952 93.3373 52.1062 92.183 54.5274C90.9495 57.1151 90.8602 59.5205 91.227 62.3323C91.5501 64.8079 89.7826 65.3908 87.9638 66.3723C80.2286 70.5472 78.1836 79.176 79.628 87.2504C80.6524 92.9725 84.1817 96.9556 90.4953 96.4962C90.5612 96.4911 90.6068 96.4589 90.6321 96.3994C94.3876 87.5618 102.013 82.7338 111.645 82.5591C114.941 82.4996 117.982 83.4951 120.765 85.5455C122.385 86.8732 123.873 88.3338 125.232 89.9273C127.217 92.4979 129.211 95.0596 131.213 97.6125C134.508 101.814 138.868 105.087 144.412 105.598C146.187 105.888 148.287 105.725 150.083 105.592C151.73 105.471 153.044 104.758 154.025 103.454C155.346 102.24 156.447 100.852 157.328 99.2889C159.331 95.7349 160.935 92.3289 165.242 91.1158C166.518 90.7563 167.942 90.545 169.514 90.4817C170.288 90.5823 171.145 90.5557 171.85 90.7854C178.846 93.0485 179.222 102.556 178.521 108.464C178.424 109.281 178.177 110.205 178.529 110.872C182.854 119.096 189.55 125.762 197.177 131.125C198.174 131.826 199.236 132.518 200.362 133.198C209.062 138.457 218.323 142.449 228.146 145.174C229.858 145.734 231.603 146.157 233.382 146.444C233.392 146.446 233.401 146.443 233.409 146.435C233.42 146.424 233.432 146.412 233.443 146.401C233.459 146.383 233.48 146.377 233.504 146.382C234.618 146.663 235.746 146.841 236.889 146.915L238.082 147.101C238.194 147.119 238.204 147.161 238.113 147.229L237.744 147.5C237.542 147.461 237.411 147.451 237.351 147.47C226.267 151.045 214.225 150.6 205.056 142.606C204.888 142.46 204.873 142.474 205.013 142.647L214.755 154.914C221.91 164.116 228.281 172.192 234.076 181.523C237.419 186.908 242.21 191.033 247.45 194.5C249.824 196.07 252.403 197.705 254.999 199.13C255.015 199.139 255.028 199.153 255.036 199.169C255.045 199.186 255.048 199.205 255.046 199.223C255.044 199.241 255.036 199.258 255.024 199.272C255.012 199.286 254.996 199.296 254.978 199.301L253.994 199.567C253.92 199.332 253.74 199.222 253.452 199.239C252.914 199.269 252.116 199.28 251.466 199.25C226.991 198.081 205.992 185.115 193.269 164.3C193.255 164.276 193.235 164.263 193.208 164.262C193.175 164.258 193.167 164.272 193.182 164.302C193.291 164.515 193.463 164.889 193.699 165.426C197.627 174.374 200.987 183.328 203.781 192.286C204.545 194.737 205.25 197.416 205.965 199.987C207.288 205.228 208.247 210.622 208.525 216.023C209.162 228.341 210.157 241.126 214.17 252.862C214.477 253.761 214.96 254.748 215.616 255.824C215.66 255.896 215.64 255.932 215.555 255.932L214.415 255.938C214.425 255.916 214.441 255.903 214.462 255.898C214.486 255.892 214.491 255.887 214.476 255.883C213.586 255.712 212.699 255.564 211.813 255.439C208.688 255.002 205.03 254.098 202.949 253.595C157.759 242.69 121.339 206.658 100.588 154.458C100.581 154.446 100.601 154.464 100.588 154.458C100.576 154.452 100.602 154.456 100.588 154.458C100.578 154.468 100.592 154.444 100.588 154.458C96.66 172.562 82.7924 201.823 68.392 213.738C52.6706 226.746 33.0513 229.558 13.2742 226.629C13.0328 226.593 12.8238 226.663 12.5767 226.669L11.8013 226.414C11.7919 226.411 11.7835 226.406 11.7774 226.398C11.7712 226.391 11.7676 226.381 11.767 226.371C11.7663 226.362 11.7687 226.352 11.7739 226.344C11.779 226.335 11.7866 226.329 11.7956 226.325C16.9537 223.939 21.6094 220.815 25.7627 216.954C37.0653 206.451 45.0532 193.148 51.0552 179.055C53.5715 173.066 55.7736 166.903 57.6615 160.566C57.6643 160.556 57.664 160.545 57.6607 160.535C57.6573 160.525 57.651 160.516 57.6427 160.51C57.6343 160.503 57.6243 160.5 57.6141 160.5C57.6038 160.5 57.5938 160.503 57.5854 160.509C45.8857 168.363 32.7852 174.482 19.1849 177.687C16.1377 178.404 12.6413 178.886 8.6958 179.131C7.12595 179.228 5.36224 179.192 3.69166 179.222C3.24314 179.23 2.69388 179.04 2.12371 179.205L0.036914 178.873C0.0278983 178.871 0.0196209 178.867 0.0131659 178.86C0.00671081 178.854 0.00237867 178.846 0.000735734 178.837C-0.000907202 178.828 0.000216122 178.818 0.00395836 178.81C0.0077006 178.801 0.0138871 178.794 0.0217093 178.79C11.2071 172.524 21.221 164.766 30.0636 155.516C31.7463 153.756 33.3453 151.923 34.8606 150.016C40.5204 143.292 44.9918 135.839 48.2747 127.655C48.2798 127.641 48.28 127.626 48.2751 127.612C48.2701 127.598 48.2605 127.586 48.2478 127.579C48.2351 127.571 48.2201 127.569 48.2056 127.571C48.191 127.573 48.1778 127.581 48.1682 127.592C43.3028 133.54 38.0801 139.181 32.5001 144.516C28.8283 148.028 24.9607 151.257 20.2663 153.323C20.0623 153.413 19.6385 153.524 18.9949 153.657C18.9416 153.667 18.9074 153.647 18.8922 153.596C18.8846 153.572 18.8834 153.547 18.8884 153.52C28.6952 144.21 37.6145 133.948 45.2034 122.749C52.1974 112.431 57.4467 102.137 60.7309 90.176C61.9054 92.8453 63.377 95.3356 65.1458 97.6467C65.1562 97.6602 65.1696 97.6711 65.1849 97.6785C65.2003 97.6858 65.2172 97.6895 65.2342 97.6891C65.2513 97.6888 65.268 97.6844 65.283 97.6763C65.298 97.6683 65.3109 97.6569 65.3207 97.6429C72.174 88.1047 77.5982 75.1625 74.9412 63.2018C74.9273 63.1398 74.8886 63.1056 74.8253 63.0993C73.4164 62.9613 72.0233 62.9841 70.646 63.1676C71.2073 62.0867 71.9447 61.2001 72.8582 60.5078L94.6803 48.0497L95.6268 48.0212ZM109.113 105.389C110.274 103.98 111.977 103.819 112.808 105.691C116.472 113.958 122.599 119.422 131.188 122.081C138.782 124.431 146.558 122.269 153.489 118.952C153.849 118.78 154.134 118.611 154.344 118.445C154.52 118.307 154.509 118.289 154.31 118.39C144.38 123.461 132.389 122.793 123.249 116.391C119.636 113.859 117.116 110.433 115.689 106.11C115.277 104.865 115.174 103.276 116.654 102.721C118.532 102.021 121.018 103.301 122.603 104.413C122.72 104.494 122.741 104.474 122.668 104.354C122.3 103.752 121.825 103.195 121.24 102.683C117.829 99.6971 112.8 99.4066 109.792 103.116C108.504 104.704 107.614 106.492 107.119 108.482C107.1 108.556 107.107 108.558 107.14 108.487C107.622 107.433 108.279 106.4 109.113 105.389Z" fill="#FBF9FC"/>
<path d="M158.255 51.6303C158.826 51.8809 159.428 52.1239 159.873 52.5606C162.726 55.359 162.842 60.6862 162.442 64.3561C161.875 63.7713 161.175 62.9898 160.344 62.0114C158.031 59.2965 154.354 57.4284 150.897 59.4009C151.414 56.9746 152.535 54.3224 154.437 52.6498C155.528 51.6904 156.801 51.3506 158.255 51.6303Z" fill="#ECE1DF"/>
<path d="M162.442 64.3561C163.113 67.8076 163.438 71.0123 162.688 74.498C162.674 74.5588 162.68 74.6222 162.705 74.6794C162.729 74.7366 162.771 74.7847 162.824 74.817C168.351 78.202 171.829 83.9052 169.514 90.4817C167.942 90.545 166.518 90.7563 165.242 91.1158C160.935 92.3289 159.331 95.7349 157.328 99.2889C156.447 100.852 155.346 102.24 154.025 103.454L153.97 103.416C153.937 103.392 153.929 103.362 153.947 103.325C154.675 101.861 157.343 96.7107 156.541 95.5564C149.321 85.1582 143.424 71.5078 150.897 59.4009C154.354 57.4284 158.031 59.2965 160.344 62.0114C161.175 62.9898 161.875 63.7713 162.442 64.3561ZM157.621 76.6889C158.592 76.7408 159.611 76.5478 160.675 76.1098C162.501 75.358 162.545 74.2265 162.545 72.3166C162.545 69.6416 162.317 66.7425 158.719 67.1317C156.89 67.2115 155.23 67.75 153.742 68.7474C152.843 69.3492 152.219 70.0574 151.837 71.0294C150.933 73.3285 150.212 77.1123 154.072 77.0515C155.555 77.0268 156.648 77.1085 157.621 76.6889Z" fill="#C9836D"/>
<path d="M124.146 62.4974C123.239 62.6468 122.495 63.0043 121.915 63.5701C120.942 64.5175 120.706 66.1369 121.339 67.3197C122.217 68.9625 123.558 69.5055 125.361 68.9486C125.379 68.943 125.398 68.9421 125.416 68.9463C125.434 68.9504 125.451 68.9593 125.464 68.9721C125.478 68.9849 125.488 69.0011 125.493 69.019C125.498 69.0369 125.498 69.0559 125.494 69.0739C124.917 71.4142 123.633 73.257 121.64 74.6024C121.46 74.653 121.329 74.6638 121.248 74.6347C117.066 73.0969 112.978 71.3389 108.986 69.3606C108.84 69.2884 108.707 69.1777 108.587 69.0284C108.422 67.5399 108.518 66.0464 108.875 64.5478C111.225 63.8428 113.393 63.3018 115.381 62.9246C118.198 62.3905 121.119 62.2481 124.146 62.4974ZM119.627 67.7013C119.627 67.1887 119.423 66.6971 119.06 66.3347C118.697 65.9722 118.205 65.7686 117.692 65.7686C117.179 65.7686 116.687 65.9722 116.324 66.3347C115.961 66.6971 115.757 67.1887 115.757 67.7013C115.757 68.2139 115.961 68.7055 116.324 69.0679C116.687 69.4304 117.179 69.634 117.692 69.634C118.205 69.634 118.697 69.4304 119.06 69.0679C119.423 68.7055 119.627 68.2139 119.627 67.7013Z" fill="#5A2F30"/>
<path d="M121.64 74.6024C123.633 73.257 124.917 71.4142 125.494 69.0739C125.498 69.0559 125.498 69.0369 125.493 69.019C125.488 69.0011 125.478 68.9849 125.464 68.9721C125.451 68.9593 125.434 68.9504 125.416 68.9463C125.398 68.9421 125.379 68.943 125.361 68.9486C123.558 69.5055 122.217 68.9625 121.339 67.3197C120.706 66.1369 120.942 64.5175 121.915 63.5701C122.495 63.0043 123.239 62.6468 124.146 62.4974C125.913 62.5645 127.643 62.8417 129.339 63.329C131.378 63.9137 132.703 64.8991 132.684 67.0956C132.651 70.7446 130.669 76.1155 126.182 75.7795C124.697 75.6694 123.183 75.277 121.64 74.6024Z" fill="#ECE1DF"/>
<path d="M60.7309 90.176C60.7093 90.1254 60.7061 90.0627 60.7214 89.9881C60.7353 89.9286 60.7315 89.8697 60.7099 89.8115C58.7169 84.1792 58.6238 78.5045 60.4306 72.7874C62.0137 67.781 65.4442 64.2593 70.646 63.1676C72.0233 62.9841 73.4164 62.9613 74.8253 63.0993C74.8886 63.1056 74.9273 63.1398 74.9412 63.2018C77.5982 75.1625 72.174 88.1047 65.3207 97.6429C65.3109 97.6569 65.298 97.6683 65.283 97.6763C65.268 97.6844 65.2513 97.6888 65.2342 97.6891C65.2172 97.6895 65.2003 97.6858 65.1849 97.6785C65.1696 97.6711 65.1562 97.6602 65.1458 97.6467C63.377 95.3356 61.9054 92.8453 60.7309 90.176ZM69.118 71.7755C69.1119 71.7675 69.1029 71.7621 69.0929 71.7607C69.083 71.7593 69.0728 71.7619 69.0647 71.7679C69.0567 71.774 69.0513 71.783 69.0499 71.7929C69.0485 71.8029 69.0511 71.813 69.0571 71.8211C71.4157 75.489 69.1427 82.0237 67.4227 85.8189C67.0806 86.5758 67.1002 86.5846 67.4816 85.8455C69.1161 82.6882 72.0676 75.0239 69.118 71.7755Z" fill="#DC9370"/>
<path d="M108.875 64.5478C108.518 66.0464 108.422 67.5399 108.587 69.0284C107.56 68.6335 106.568 68.1614 105.608 67.6121C105.545 67.5757 105.492 67.5221 105.457 67.4573C105.422 67.3925 105.406 67.3192 105.411 67.2456C105.456 66.552 105.787 66.0046 106.403 65.6034C107.163 65.1085 107.987 64.7567 108.875 64.5478Z" fill="#ECE1DF"/>
<path d="M119.627 67.7013C119.627 68.2139 119.423 68.7055 119.06 69.0679C118.697 69.4304 118.205 69.634 117.692 69.634C117.179 69.634 116.687 69.4304 116.324 69.0679C115.961 68.7055 115.757 68.2139 115.757 67.7013C115.757 67.1887 115.961 66.6971 116.324 66.3347C116.687 65.9722 117.179 65.7686 117.692 65.7686C118.205 65.7686 118.697 65.9722 119.06 66.3347C119.423 66.6971 119.627 67.1887 119.627 67.7013Z" fill="#ECE1DF"/>
<path d="M158.719 67.1317L159.173 67.7336C159.186 67.7507 159.195 67.7703 159.2 67.791C159.204 67.8118 159.205 67.8333 159.201 67.854C159.196 67.8748 159.188 67.8944 159.176 67.9116C159.164 67.9288 159.148 67.9432 159.13 67.9538C156.862 69.3074 157.465 72.6469 160.213 72.6925C160.225 72.6927 160.237 72.6956 160.247 72.701C160.258 72.7064 160.268 72.7141 160.275 72.7236C160.282 72.7331 160.287 72.7441 160.29 72.7558C160.292 72.7675 160.292 72.7796 160.289 72.7912C159.873 74.3987 158.984 75.6979 157.621 76.6889C156.648 77.1085 155.555 77.0268 154.072 77.0515C150.212 77.1123 150.933 73.3285 151.837 71.0294C152.219 70.0574 152.843 69.3492 153.742 68.7474C155.23 67.75 156.89 67.2115 158.719 67.1317ZM156.416 72.9089C156.766 72.9065 157.1 72.7529 157.346 72.482C157.591 72.2111 157.728 71.8451 157.725 71.4645C157.724 71.276 157.688 71.0896 157.621 70.9159C157.553 70.7422 157.455 70.5847 157.332 70.4523C157.208 70.3199 157.062 70.2151 156.902 70.1441C156.741 70.0731 156.569 70.0372 156.396 70.0384C156.046 70.0408 155.712 70.1944 155.467 70.4653C155.221 70.7362 155.085 71.1022 155.087 71.4828C155.089 71.6713 155.124 71.8577 155.192 72.0314C155.259 72.2051 155.357 72.3626 155.481 72.495C155.604 72.6274 155.75 72.7321 155.911 72.8032C156.071 72.8742 156.243 72.9101 156.416 72.9089Z" fill="#5A2F30"/>
<path d="M157.621 76.6889C158.984 75.6979 159.873 74.3987 160.289 72.7912C160.292 72.7796 160.292 72.7675 160.29 72.7558C160.287 72.7441 160.282 72.7331 160.275 72.7236C160.268 72.7141 160.258 72.7064 160.247 72.701C160.237 72.6956 160.225 72.6927 160.213 72.6925C157.465 72.6469 156.862 69.3074 159.13 67.9538C159.148 67.9432 159.164 67.9288 159.176 67.9116C159.188 67.8944 159.196 67.8748 159.201 67.854C159.205 67.8333 159.204 67.8118 159.2 67.791C159.195 67.7703 159.186 67.7507 159.173 67.7336L158.719 67.1317C162.317 66.7425 162.545 69.6416 162.545 72.3166C162.545 74.2265 162.501 75.358 160.675 76.1098C159.611 76.5478 158.592 76.7408 157.621 76.6889Z" fill="#ECE1DF"/>
<path d="M156.416 72.9089C156.243 72.9101 156.071 72.8742 155.911 72.8032C155.75 72.7321 155.604 72.6274 155.481 72.495C155.357 72.3626 155.259 72.2051 155.192 72.0314C155.124 71.8577 155.089 71.6713 155.087 71.4828C155.085 71.1022 155.221 70.7362 155.467 70.4653C155.712 70.1944 156.046 70.0408 156.396 70.0384C156.569 70.0372 156.741 70.0731 156.902 70.1441C157.062 70.2151 157.208 70.3199 157.332 70.4523C157.455 70.5847 157.553 70.7422 157.621 70.9159C157.688 71.0896 157.724 71.276 157.725 71.4645C157.728 71.8451 157.591 72.2111 157.346 72.482C157.1 72.7529 156.766 72.9065 156.416 72.9089Z" fill="#ECE1DF"/>
<path d="M69.118 71.7755C72.0676 75.0239 69.1161 82.6882 67.4816 85.8455C67.1002 86.5846 67.0806 86.5758 67.4227 85.8189C69.1427 82.0237 71.4157 75.489 69.0571 71.8211C69.0511 71.813 69.0485 71.8029 69.0499 71.7929C69.0513 71.783 69.0567 71.774 69.0647 71.7679C69.0728 71.7619 69.083 71.7593 69.0929 71.7607C69.1029 71.7621 69.1119 71.7675 69.118 71.7755Z" fill="#5A2F30"/>
<path d="M125.232 89.9273C123.873 88.3338 122.385 86.8732 120.765 85.5455C120.822 85.4582 120.858 85.4031 120.847 85.2911C120.633 83.2356 121.394 81.6738 123.13 80.6056C124.099 80.0094 125.296 79.2918 126.469 79.4512C126.49 79.4539 126.511 79.4619 126.528 79.4746C126.546 79.4873 126.56 79.5042 126.569 79.5238C126.578 79.5433 126.582 79.5649 126.58 79.5864C126.579 79.6079 126.572 79.6287 126.56 79.6468C124.587 82.7053 124.595 86.1473 125.446 89.6881C125.462 89.7539 125.448 89.8128 125.406 89.8646C125.366 89.9153 125.308 89.9362 125.232 89.9273Z" fill="#C9836D"/>
<path d="M112.808 105.691C111.977 103.819 110.274 103.98 109.113 105.389C108.279 106.4 107.622 107.433 107.14 108.487C107.107 108.558 107.1 108.556 107.119 108.482C107.614 106.492 108.504 104.704 109.792 103.116C112.8 99.4066 117.829 99.6971 121.24 102.683C121.825 103.195 122.3 103.752 122.668 104.354C122.741 104.474 122.72 104.494 122.603 104.413C121.018 103.301 118.532 102.021 116.654 102.721C115.174 103.276 115.277 104.865 115.689 106.11C117.116 110.433 119.636 113.859 123.249 116.391C132.389 122.793 144.38 123.461 154.31 118.39C154.509 118.289 154.52 118.307 154.344 118.445C154.134 118.611 153.849 118.78 153.489 118.952C146.558 122.269 138.782 124.431 131.188 122.081C122.599 119.422 116.472 113.958 112.808 105.691Z" fill="#5A2F30"/>
<path d="M34.8606 150.016C30.0104 152.094 24.0237 153.953 18.706 153.807C18.6274 153.806 18.6116 153.773 18.6585 153.71C18.7218 153.627 18.7985 153.563 18.8884 153.52C18.8834 153.547 18.8846 153.572 18.8922 153.596C18.9074 153.647 18.9416 153.667 18.9949 153.657C19.6385 153.524 20.0623 153.413 20.2663 153.323C24.9607 151.257 28.8283 148.028 32.5001 144.516C38.0801 139.181 43.3028 133.54 48.1682 127.592C48.1778 127.581 48.191 127.573 48.2056 127.571C48.2201 127.569 48.2351 127.571 48.2478 127.579C48.2605 127.586 48.2701 127.598 48.2751 127.612C48.28 127.626 48.2798 127.641 48.2747 127.655C44.9918 135.839 40.5204 143.292 34.8606 150.016Z" fill="#C7C3C5"/>
<path d="M237.744 147.5C237.659 147.609 237.519 147.734 237.324 147.874C231.257 152.239 223.94 155.337 216.277 154.891C215.779 154.862 215.272 154.869 214.755 154.914L205.013 142.647C204.873 142.474 204.888 142.46 205.056 142.606C214.225 150.6 226.267 151.045 237.351 147.47C237.411 147.451 237.542 147.461 237.744 147.5Z" fill="#C7C3C5"/>
<path d="M228.146 145.174C229.26 145.093 231.073 145.698 232.208 145.947C233.451 146.219 235.345 146.439 236.889 146.915C235.746 146.841 234.618 146.663 233.504 146.382C233.48 146.377 233.459 146.383 233.443 146.401C233.432 146.412 233.42 146.424 233.409 146.435C233.401 146.443 233.392 146.446 233.382 146.444C231.603 146.157 229.858 145.734 228.146 145.174Z" fill="#C7C3C5"/>
<path d="M51.0552 179.055C50.9956 179.055 50.9354 179.062 50.8746 179.074C34.948 182.503 18.2993 181.934 2.12371 179.205C2.69388 179.04 3.24314 179.23 3.69166 179.222C5.36224 179.192 7.12595 179.228 8.6958 179.131C12.6413 178.886 16.1377 178.404 19.1849 177.687C32.7852 174.482 45.8857 168.363 57.5854 160.509C57.5938 160.503 57.6038 160.5 57.6141 160.5C57.6243 160.5 57.6343 160.503 57.6427 160.51C57.651 160.516 57.6573 160.525 57.6607 160.535C57.664 160.545 57.6643 160.556 57.6615 160.566C55.7736 166.903 53.5715 173.066 51.0552 179.055Z" fill="#C7C3C5"/>
<path d="M253.994 199.567C248.877 201.42 243.627 202.751 238.244 203.56C238.232 203.561 237.998 203.625 237.541 203.751C237.119 203.867 236.807 203.715 236.421 203.77C226.179 205.238 215.532 204.359 206.077 199.956C206.054 199.946 206.032 199.947 206.011 199.96L205.965 199.987C205.25 197.416 204.545 194.737 203.781 192.286C200.987 183.328 197.627 174.374 193.699 165.426C193.463 164.889 193.291 164.515 193.182 164.302C193.167 164.272 193.175 164.258 193.208 164.262C193.235 164.263 193.255 164.276 193.269 164.3C205.992 185.115 226.991 198.081 251.466 199.25C252.116 199.28 252.914 199.269 253.452 199.239C253.74 199.222 253.92 199.332 253.994 199.567Z" fill="#C7C3C5"/>
<path d="M214.415 255.938C214.386 255.963 214.354 255.976 214.32 255.976C205.884 256.129 197.5 255.549 189.168 254.235C189.088 254.222 188.847 254.22 188.444 254.229C188.02 254.239 187.809 254.047 187.467 253.992C154.257 248.748 123.494 234.373 99.2739 211.059C99.2574 211.042 99.2354 211.032 99.2118 211.03C99.1882 211.028 99.1645 211.034 99.1447 211.047C84.482 220.981 67.512 228.079 50.0783 230.857C49.2268 230.992 47.3219 231.186 44.3633 231.438C33.5549 232.356 22.5907 230.923 12.5767 226.669C12.8238 226.663 13.0328 226.593 13.2742 226.629C33.0513 229.558 52.6706 226.746 68.392 213.738C82.7924 201.823 96.66 172.562 100.588 154.458C100.578 154.468 100.592 154.444 100.588 154.458C100.576 154.452 100.602 154.456 100.588 154.458C100.581 154.446 100.601 154.464 100.588 154.458C121.339 206.658 157.759 242.69 202.949 253.595C205.03 254.098 208.688 255.002 211.813 255.439C212.699 255.564 213.586 255.712 214.476 255.883C214.491 255.887 214.486 255.892 214.462 255.898C214.441 255.903 214.425 255.916 214.415 255.938Z" fill="#C7C3C5"/>
</svg>
