<svg xmlns="http://www.w3.org/2000/svg" fill="none" viewBox="0 0 184 256"><path fill="#004DE5" fill-rule="evenodd" d="M0 19.693v157.938c.002 2.95.673 5.862 1.964 8.52a19.7 19.7 0 0 0 5.495 6.84l75.217 59.769A15 15 0 0 0 92 256c3.39 0 6.678-1.142 9.325-3.24l75.216-59.769a19.7 19.7 0 0 0 5.495-6.84 19.5 19.5 0 0 0 1.964-8.52V19.693a19.6 19.6 0 0 0-5.826-13.925A20 20 0 0 0 164.108 0H19.892A20 20 0 0 0 5.826 5.768 19.6 19.6 0 0 0 0 19.693" clip-rule="evenodd"/><path fill="#fff" d="M149.215 87.68V51.015c0-4.862-1.928-9.525-5.359-12.963a18.28 18.28 0 0 0-12.938-5.37h-77.76a18.28 18.28 0 0 0-12.938 5.37 18.35 18.35 0 0 0-5.359 12.963v106.391c.002 2.746.62 5.457 1.807 7.932a18.3 18.3 0 0 0 5.054 6.368l28.314 22.778a2.28 2.28 0 0 0 3.378-.56 2.3 2.3 0 0 0 .35-1.227v-75.223a2.29 2.29 0 0 1 2.287-2.293h20.584c3.639 0 7.13 1.449 9.703 4.028a13.76 13.76 0 0 1 4.019 9.723v63.765a2.28 2.28 0 0 0 1.298 2.064 2.28 2.28 0 0 0 2.418-.277l28.315-22.778a18.34 18.34 0 0 0 6.861-14.3v-33.058c0-4.862-1.928-9.525-5.359-12.963a18.28 18.28 0 0 0-12.937-5.37 18.28 18.28 0 0 0 12.915-5.382 18.35 18.35 0 0 0 5.347-12.951m-52.603 9.167H76.028a2.285 2.285 0 0 1-2.287-2.291v-41.25a2.294 2.294 0 0 1 2.287-2.292h32.019a2.286 2.286 0 0 1 2.288 2.292V83.1c0 3.646-1.446 7.143-4.02 9.722a13.7 13.7 0 0 1-9.703 4.027"/></svg>
