<svg xmlns="http://www.w3.org/2000/svg" fill="none" viewBox="0 0 397 256"><path fill="#fff" d="M396.834 255.771 264.689 64.607l-38.095 28.941 46.527 58.878L144.744 24.15 0 255.771z"/><path fill="#3083DC" d="M281.416 209.782c-13.359-44.342-53.461-52.057-70.101-52.057-7.667 0-35.984-12.291-46.335-17.632-1.454-.748-3.437-5.094-2.836-6.623l2.937-4.811c.801-3.336 1.41-6.995-1.366-8.98l-4.851-2.426a3.9 3.9 0 0 0-4.407.602l-4.614 4.201s-23.17-5.167-27.188-4.557c-2.351.36-4.546 4.302-5.964 7.517a3.76 3.76 0 0 1-1.903 1.855 3.7 3.7 0 0 1-2.644.118c-8.255-2.919-11.616-1.969-11.616-1.969s-7.25 9.514 0 16.832c56.14 58.222 75.172 46.606 82.29 114.144h25.637l11.945-25.472 20.313.182 9.69 25.294h37.874zm-156.405-79.83a2.54 2.54 0 0 1-1.422-.435 2.6 2.6 0 0 1-.943-1.159 2.6 2.6 0 0 1 .555-2.816 2.56 2.56 0 0 1 1.311-.707 2.53 2.53 0 0 1 1.478.147 2.56 2.56 0 0 1 1.149.952 2.6 2.6 0 0 1-.318 3.262 2.55 2.55 0 0 1-1.81.756"/><path fill="#fff" fill-rule="evenodd" d="M211.048.64c.406-.41.956-.64 1.53-.64v.02c.573 0 1.124.23 1.529.64.406.41.634.965.634 1.544a16.56 16.56 0 0 0 4.782 11.638 16.25 16.25 0 0 0 11.529 4.83c.574 0 1.124.23 1.53.64.406.409.633.964.633 1.543s-.227 1.134-.633 1.544-.956.64-1.53.64a16.25 16.25 0 0 0-11.509 4.826 16.56 16.56 0 0 0-4.782 11.617 2.2 2.2 0 0 1-.634 1.544 2.15 2.15 0 0 1-3.059 0 2.2 2.2 0 0 1-.633-1.544 16.56 16.56 0 0 0-4.79-11.644 16.25 16.25 0 0 0-11.542-4.82c-.574 0-1.124-.23-1.53-.64a2.196 2.196 0 0 1 0-3.087c.406-.41.956-.64 1.53-.64a16.26 16.26 0 0 0 11.53-4.83 16.57 16.57 0 0 0 4.782-11.638c0-.579.228-1.134.633-1.544M29.638 62.5a2.15 2.15 0 0 1 1.53-.639v.02c.573 0 1.123.23 1.529.64s.633.965.633 1.544a16.56 16.56 0 0 0 4.782 11.639 16.26 16.26 0 0 0 11.53 4.829c.573 0 1.124.23 1.53.64a2.193 2.193 0 0 1 0 3.088 2.16 2.16 0 0 1-1.53.639 16.25 16.25 0 0 0-11.51 4.827 16.56 16.56 0 0 0-4.782 11.616c0 .58-.228 1.135-.633 1.544a2.15 2.15 0 0 1-3.06 0 2.2 2.2 0 0 1-.633-1.544 16.56 16.56 0 0 0-4.79-11.644 16.25 16.25 0 0 0-11.541-4.82c-.574 0-1.124-.23-1.53-.639a2.194 2.194 0 0 1 0-3.088c.406-.41.956-.64 1.53-.64a16.26 16.26 0 0 0 11.529-4.829 16.56 16.56 0 0 0 4.782-11.638c0-.58.228-1.135.633-1.544" clip-rule="evenodd"/><path fill="url(#paint0_linear_10902_664)" d="M141.163 179.003s9.205 23.207 3.105 76.763h25.897s8.065-24.891 5.548-35.631c-4.936-21.06-34.55-41.132-34.55-41.132"/><defs><linearGradient id="paint0_linear_10902_664" x1="149.591" x2="177.017" y1="223.441" y2="194.31" gradientUnits="userSpaceOnUse"><stop stop-color="#3083DC"/><stop offset=".1" stop-color="#2E7FD5"/><stop offset=".24" stop-color="#2A72C0"/><stop offset=".41" stop-color="#235F9F"/><stop offset=".61" stop-color="#194370"/><stop offset=".82" stop-color="#0C2036"/><stop offset="1"/></linearGradient></defs></svg>
