<svg xmlns="http://www.w3.org/2000/svg" fill="none" viewBox="0 0 256 256"><path fill="#fff" d="M0 64.002c35.344 0 64-28.657 64-64.002 0 35.345 28.656 64.002 64 64.002 0 35.344-28.657 64.001-64 64.001S0 99.346 0 64.002M192 0c0 35.345 28.657 64.002 64 64.002-35.343 0-64 28.656-64 64.001-35.343 0-64-28.657-64-64.001S156.657 0 192 0m64 191.998c-35.343 0-64 28.657-64 64.002 0-35.345-28.656-64.002-64-64.002 0-35.344 28.657-63.995 64-63.995s64 28.651 64 63.995M64 256c0-35.345-28.656-64.002-64-64.002 35.344 0 64-28.65 64-63.995 35.343 0 64 28.651 64 63.995C128 227.343 99.343 256 64 256"/></svg>
