<svg xmlns="http://www.w3.org/2000/svg" fill="none" viewBox="0 0 235 256"><path fill="#34CEA8" fill-rule="evenodd" d="m74.198 128 75.908 75.739 47.844-47.844c8.453-8.453 22.147-8.453 30.6 0s8.453 22.147 0 30.6l-63.229 63.228c-8.453 8.454-22.316 8.284-30.6 0L43.598 158.6v54.099c0 11.834-9.806 21.64-21.64 21.64a21.573 21.573 0 0 1-21.64-21.64V43.301a21.574 21.574 0 0 1 21.64-21.64 21.574 21.574 0 0 1 21.64 21.64v54.1L134.72 6.276c8.284-8.284 22.147-8.453 30.6 0l63.229 63.06c8.453 8.452 8.453 22.146 0 30.599s-22.147 8.453-30.6 0l-47.844-47.844zm75.739-21.64a21.574 21.574 0 0 1 21.64 21.64 21.574 21.574 0 0 1-21.64 21.64 21.574 21.574 0 0 1-21.64-21.64c0-11.834 9.806-21.64 21.64-21.64" clip-rule="evenodd"/></svg>
