<svg xmlns="http://www.w3.org/2000/svg" fill="none" viewBox="0 0 201 256"><path fill="#FFD634" fill-rule="evenodd" d="M1.847 247.617C.18 244.331.18 240.025.18 231.423V24.576c0-8.602 0-12.902 1.667-16.185a15.34 15.34 0 0 1 6.694-6.716C11.82 0 16.111 0 24.692 0h80.172c21.365 0 32.052 0 40.821 2.358 23.786 6.389 42.371 25.017 48.746 48.873 2.345 8.79 2.345 19.505 2.345 40.929v.005c0 13.947-6.301 19.058-11.674 23.41-3.99 3.234-7.471 6.059-7.471 11.79 0 5.649 4.055 8.468 8.757 11.745 6.489 4.517 14.219 9.893 14.219 24.735 0 21.388 0 32.086-2.34 40.858-6.369 23.873-24.959 42.518-48.763 48.907-8.752 2.352-19.416 2.358-40.752 2.361l-84.054.028c-8.583.006-12.872.006-16.151-1.669a15.36 15.36 0 0 1-6.7-6.713M114.45 83.947c4.809-7.574 8.976-14.127 8.976-22.507 0-16.964-13.746-30.72-30.7-30.72-16.96 0-30.705 14.401-30.705 30.72 0 8.38 4.28 14.933 9.22 22.508 6.766 10.35 14.766 22.613 14.766 44.057 0 21.439-8 33.701-14.765 44.061-4.941 7.566-9.222 14.12-9.222 22.499 0 16.964 13.747 30.72 30.709 30.72 16.951 0 30.697-13.756 30.697-30.72 0-8.379-4.167-14.933-8.976-22.499-6.583-10.36-14.37-22.622-14.37-44.061 0-21.447 7.787-33.706 14.372-44.06z" clip-rule="evenodd"/></svg>
