<svg xmlns="http://www.w3.org/2000/svg" fill="none" viewBox="0 0 277 256"><path fill="#FAF0F0" d="m120.545 82.17-65.148 43.14c-1.918 1.276-1.918 4.105 0 5.38l65.738 43.528a11.99 11.99 0 0 1 5.364 10.003v68.361c0 2.756-3.097 4.383-5.346 2.792L4.793 173.94a11.2 11.2 0 0 1-3.52-4.015A11.3 11.3 0 0 1 0 164.732V91.268a11.2 11.2 0 0 1 4.793-9.208L121.135.626c2.248-1.572 5.346.037 5.346 2.792v67.658c.002 2.2-.541 4.365-1.58 6.302a13.25 13.25 0 0 1-4.375 4.792zM277 91.268v73.464c0 3.68-1.788 7.119-4.793 9.208l-116.36 81.434c-2.249 1.572-5.346-.037-5.346-2.792v-68.361a12 12 0 0 1 1.424-5.68 11.95 11.95 0 0 1 3.941-4.323l65.738-43.528c1.917-1.275 1.917-4.104 0-5.38l-65.149-43.14a13.3 13.3 0 0 1-4.371-4.794 13.3 13.3 0 0 1-1.583-6.3V3.418c0-2.755 3.097-4.383 5.346-2.792l116.36 81.434a11.2 11.2 0 0 1 3.52 4.015A11.3 11.3 0 0 1 277 91.268"/></svg>
