<svg xmlns="http://www.w3.org/2000/svg" fill="none" viewBox="0 0 278 256"><path fill="#FAF0F0" d="m120.745 82.17-65.256 43.14c-1.92 1.276-1.92 4.105 0 5.38l65.847 43.528a11.96 11.96 0 0 1 5.374 10.003v68.361c0 2.756-3.103 4.383-5.356 2.792L4.801 173.94A11.24 11.24 0 0 1 0 164.732V91.268c0-3.68 1.791-7.12 4.801-9.208L121.336.626c2.253-1.572 5.355.037 5.355 2.792v67.658a13.27 13.27 0 0 1-5.964 11.094zm156.716 9.098v73.464c0 3.68-1.791 7.119-4.801 9.208l-116.553 81.434c-2.253 1.572-5.355-.037-5.355-2.792v-68.361a11.98 11.98 0 0 1 5.373-10.003l65.848-43.528c1.92-1.275 1.92-4.104 0-5.38l-65.257-43.14a13.29 13.29 0 0 1-5.964-11.094V3.418c0-2.755 3.102-4.383 5.355-2.792L272.66 82.06a11.26 11.26 0 0 1 4.801 9.208"/></svg>