<svg xmlns="http://www.w3.org/2000/svg" fill="none" viewBox="0 0 273 256"><path fill="#FFDB57" d="M16.28 179.327c24.16 72.953 91.197 91.13 162.016 66.004 69.796-24.765 112.749-84.949 87.319-154.465C276.212 199.29 71.247 269.658 16.28 179.327"/><path fill="#fff" d="M95.252 10.561C17.235 38.247-12.393 102.472 4.663 150.687c17.058 48.223 78.913 75.132 156.938 47.45 78.029-27.691 112.177-88.659 95.122-136.876-17.064-48.22-83.432-78.38-161.47-50.7"/><path fill="#FFDB57" d="M95.252 10.561C17.235 38.247-12.393 102.472 4.663 150.687c17.058 48.223 78.913 75.132 156.938 47.45 78.029-27.691 112.177-88.659 95.122-136.876-17.064-48.22-83.432-78.38-161.47-50.7m-81.7 105.279c-2.031.704-3.324-.694-4.027-2.729s1.29-4.572 3.323-5.276 3.325.694 4.028 2.729-1.29 4.572-3.323 5.276m57.083-67.134c-44.872 30.954-49.829 55.351-55.696 53.258-6.143-2.186 10.673-41.591 46.958-66.812s77.64-31.025 81.356-25.658c3.717 5.366-27.697 8.228-72.618 39.212"/></svg>
