<svg width="273" height="256" viewBox="0 0 273 256" fill="none" xmlns="http://www.w3.org/2000/svg">
<path d="M16.2805 179.327C40.4402 252.28 107.477 270.457 178.296 245.331C248.092 220.566 291.045 160.382 265.615 90.8658C276.212 199.29 71.2474 269.658 16.2805 179.327Z" fill="#FFDB57"/>
<path d="M95.2521 10.5612C17.2354 38.2474 -12.3926 102.472 4.66305 150.687C21.7208 198.91 83.5761 225.819 161.601 198.137C239.63 170.446 273.778 109.478 256.723 61.2614C239.659 13.0417 173.291 -17.1195 95.2521 10.5612Z" fill="white"/>
<path d="M95.2521 10.5612C17.2354 38.2474 -12.3926 102.472 4.66305 150.687C21.7208 198.91 83.5761 225.819 161.601 198.137C239.63 170.446 273.778 109.478 256.723 61.2614C239.659 13.0417 173.291 -17.1195 95.2521 10.5612ZM13.5529 115.84C11.5206 116.544 10.2276 115.146 9.52474 113.111C8.82183 111.075 10.8154 108.539 12.8476 107.835C14.8799 107.131 16.173 108.529 16.8758 110.564C17.5788 112.599 15.5852 115.136 13.5529 115.84ZM70.6348 48.7063C25.7635 79.6597 20.8065 104.057 14.939 101.964C8.79606 99.7778 25.6118 60.3725 61.8965 35.1523C98.1809 9.93202 139.537 4.1273 143.253 9.49379C146.97 14.8603 115.556 17.7217 70.6348 48.7063Z" fill="#FFDB57"/>
</svg>
