<svg xmlns="http://www.w3.org/2000/svg" fill="none" viewBox="0 0 430 256"><path fill="#F474AB" fill-rule="evenodd" d="M157.603.756c-3.245.518-11.213.696-31.872.713l-27.547.021c-25.126 0-59.22 26.457-69.952 53.082-4.296 10.66-6.803 24.625-4.73 26.347.64.53 37.01.701 191.313.896l190.524.24.842-1.2c1.579-2.255.342-10.298-3.357-21.845-8.355-26.079-31.188-48.1-57.178-55.151C331.027-.107 332.732-.044 241.478.014c-64.381.041-80.373.182-83.875.742m168.994 1.261c35.217 2.967 63.115 24.004 74.225 55.975 3.431 9.872 5.595 21.259 4.202 22.119-.898.555-300.377.304-301.417-.253-2.755-1.474-1.113-24.208 2.589-35.865 6.342-19.968 25.857-38.257 43.241-40.526 2.392-.313 5.837-.862 7.657-1.22 4.326-.85 159.618-1.062 169.503-.23M25.033 98.007c-33.812 6.715-33.195 55.563.778 61.543 6.475 1.139 371.129 1.139 377.604 0 34.477-6.068 34.477-55.542 0-61.61-6.212-1.093-372.867-1.029-378.382.067m37.432 77.954c-27.326.092-38.58.294-39.068.698-1.967 1.632.66 15.902 4.835 26.259C38.963 229.544 71.248 256 98.184 256h232.979c35.142 0 67.449-34.319 74.368-67.954 1.694-8.237 1.788-9.785.691-11.351l-.801-1.143-152.287.139c-83.758.076-169.56.197-190.67.27m342.93 2.781c.454 3.749-4.757 22.862-6.848 25.117l-1.148 1.239H380.34c-19.541 0-18.09.395-18.142-4.93-.061-6.341-2.862-9.577-8.289-9.577-5.564 0-8.446 3.388-8.468 9.951-.016 4.701.341 4.556-11.249 4.556-11.641 0-11.071.256-11.592-5.201-1.303-13.64-15.655-12.891-17.315.906-.527 4.379-.261 4.279-11.331 4.287-10.857.009-10.352.222-10.865-4.573-1.44-13.455-16.224-13.983-17.411-.622-.495 5.57.307 5.203-11.392 5.203-11.745 0-10.853.445-11.434-5.709-1.155-12.269-15.443-12.397-16.561-.147-.565 6.2.121 5.856-11.679 5.856-11.836 0-11.218.311-11.711-5.896-.97-12.21-15.378-12.047-16.529.187-.581 6.154.311 5.709-11.434 5.709-11.517 0-11.225.108-11.231-4.166-.016-12.434-14.059-14.701-17.487-2.821-.467 1.617-.908 2.193-1.78 2.318-3.048.44-18.53-9.083-23.538-14.48-3.789-4.081-6.142-7.755-5.422-8.463.291-.285 287.809-.613 288.742-.329.595.18 1.081.838 1.172 1.585M77.83 192.052c4.02 1.714 4.166 2.195 4.324 14.231.166 12.643-.054 13.479-4.086 15.535-4.605 2.348-8.97-.569-9.62-6.426-1.994-17.915 1.531-26.684 9.382-23.34m40.067.066c.812.419 2.118 1.605 2.901 2.633l1.427 1.871v10.256c0 11.754-.375 12.956-4.701 15.067-3.506 1.711-8.178-.574-9.279-4.536-.888-3.197-.671-19.057.294-21.468 1.468-3.67 6.042-5.538 9.358-3.823m40.499.783c3.213 1.986 3.787 4.185 3.786 14.521 0 10.27-.371 11.73-3.51 13.827-3.879 2.591-8.684.885-10.392-3.693-1.291-3.457-1.088-18.891.282-21.432 2.186-4.057 6.304-5.406 9.834-3.223m39.772-.042c3.323 2.027 3.464 2.619 3.464 14.592v10.798l-1.273 1.363c-4.171 4.467-10.602 3.292-12.261-2.244-.972-3.245-.422-20.391.709-22.117 1.265-1.929 3.824-3.384 5.953-3.384.98 0 2.514.447 3.408.992m39.704 0c3.215 1.961 3.446 2.798 3.633 13.233.231 12.874-1.177 16.315-6.677 16.311-6.268-.006-7.575-2.757-7.386-15.548.183-12.411 1.389-14.988 7.022-14.988.98 0 2.513.447 3.408.992m40.605.585c5.033 4.42 4.748 24.83-.389 27.963-3.586 2.186-8.306.654-10.256-3.329-1.511-3.087-1.346-18.64.233-21.902 2.147-4.435 7.017-5.712 10.412-2.732m39.29-.513c3.068 1.895 3.345 3.042 3.418 14.169.077 11.579-.215 12.56-4.368 14.698-6.279 3.231-10.073-1.91-10.073-13.652 0-14.049 3.994-19.56 11.023-15.215m39.704 0c3.032 1.873 3.229 2.771 3.229 14.647 0 10.641-.003 10.682-1.271 12.186-3.036 3.61-7.159 3.733-10.473.311l-1.745-1.801v-10.81c0-9.563.106-10.973.919-12.212 2.134-3.256 6.196-4.265 9.341-2.321" clip-rule="evenodd"/><path fill="#F7AACC" fill-rule="evenodd" d="M157.094 2.248c-1.82.357-5.265.906-7.657 1.219-17.384 2.269-36.899 20.558-43.241 40.526-3.702 11.657-5.344 34.391-2.589 35.865 1.04.557 300.519.808 301.417.253 1.393-.86-.771-12.247-4.202-22.12-11.11-31.97-39.008-53.007-74.225-55.974-9.885-.832-165.177-.62-169.503.23m27.659 18.712c.682.91 1.865 2.915 2.627 4.454 3.985 8.04 6.672 10.444 17.665 15.79 4.149 2.018 3.512 3.585-2.871 7.042-6.792 3.68-10.099 6.35-12.014 9.705-7.672 13.435-7.034 13.18-11.913 4.776-4.46-7.681-5.16-8.416-12.87-13.5-8.699-5.737-8.697-5.811.249-10.611 7.163-3.845 8.475-5.022 10.646-9.556 4.536-9.475 6.232-11.096 8.481-8.1m175.456 19.85c3.141 5.234 3.615 5.702 8.191 8.084 5.899 3.068 5.862 3.552-.586 7.717-4.207 2.717-4.739 3.254-6.853 6.917-3.893 6.75-4.754 6.852-8.067.956-2.051-3.65-4.333-5.963-8.893-9.008-4.221-2.819-4.13-3.618.734-6.373 4.632-2.623 5.017-2.965 7.167-6.36 4.684-7.395 4.987-7.465 8.307-1.933M259.407 177.105c-79.089.141-143.856.313-143.926.381-.72.708 1.633 4.382 5.422 8.463 5.008 5.397 20.49 14.92 23.538 14.48.872-.125 1.313-.701 1.78-2.318 3.428-11.88 17.471-9.613 17.487 2.821.006 4.274-.286 4.166 11.231 4.166 11.745 0 10.853.445 11.434-5.709 1.151-12.234 15.559-12.397 16.529-.187.493 6.207-.125 5.896 11.711 5.896 11.8 0 11.114.344 11.679-5.856 1.118-12.25 15.406-12.122 16.561.147.581 6.154-.311 5.709 11.434 5.709 11.699 0 10.897.367 11.392-5.203 1.187-13.361 15.971-12.833 17.411.622.513 4.795.008 4.582 10.865 4.573 11.07-.008 10.804.092 11.331-4.287 1.66-13.797 16.012-14.546 17.315-.906.521 5.457-.049 5.201 11.592 5.201 11.59 0 11.233.145 11.249-4.556.022-6.563 2.904-9.951 8.468-9.951 5.427 0 8.228 3.236 8.289 9.577.052 5.325-1.399 4.93 18.142 4.93h17.058l1.148-1.239c2.091-2.255 7.302-21.368 6.848-25.117-.24-1.976 5.755-1.908-145.988-1.637" clip-rule="evenodd"/></svg>