<svg xmlns="http://www.w3.org/2000/svg" fill="none" viewBox="0 0 255 256"><path fill="#C29D4D" d="m219.466 7.05.27 1.565c.547 4.16-.175 7.855-1.52 11.771a5.4 5.4 0 0 0-.602 1.614q-3.031 7.45-8.5 12.59-2.36 2.219-6.187 4.742a.28.28 0 0 1-.177-.078q-.076-.066-.007-.14c1.546-1.68 3.739-3.479 4.912-4.67 5.067-5.137 8.822-12.305 9.064-19.61.121-3.709-1.237-9.61-5.382-10.885-1.953-.602-4.081.52-5.826 1.606a65.5 65.5 0 0 0-8.387 6.185c-10.307 8.948-19.785 18.682-29.699 28.04-2.016 1.904-3.716 3.557-6.443 4.07q-2.718.513-8.268.845-7.196.205-14.394.095l-9.683-.245-2.45-.032a.25.25 0 0 1-.165-.065c-.323-.285-1.723-.093-2.347-.112a271 271 0 0 1-5.168-.209c-.519-.024-1.131.046-1.695.01-6.161-.408-12.99 1.306-18.643 3.687-.479.201-.92.163-1.406.24l-1.154-.043q-.352-.324.044-.486 3.825-1.56 7.645-3.115a35.6 35.6 0 0 1 5.284-1.251c3.696-.581 7.044-.735 10.96-.914.561-.026 1.467.06 2.33-.003q1.925-.139 6.514-.145c.553 0 1.026.228 1.585.207 1.06-.041 2.181.1 3.152.08 7.736-.165 15.891.43 24.304-.363 2.367-.222 4.269-1.188 5.978-2.804 2.915-2.754 5.776-5.574 8.511-8.51Q182 19.882 189.867 12.275q4.214-4.075 10.457-8.77 2.715-1.238 5.485-2.394 1.884-.788 3.06-.966c5.26-.805 9.328 1.747 10.597 6.903"/><path fill="#275974" d="M200.324 3.507q-6.243 4.695-10.457 8.769-7.867 7.607-17.951 18.44c-2.735 2.937-5.596 5.756-8.511 8.511-1.709 1.616-3.611 2.582-5.978 2.804-8.413.794-16.568.198-24.304.363-.971.02-2.092-.121-3.152-.08-.559.021-1.032-.207-1.585-.207q-4.589.006-6.514.145c-.863.062-1.769-.023-2.33.003-3.916.179-7.264.333-10.96.914q-2.681.421-5.284 1.25a13061 13061 0 0 1 35.742-15.153q.15-.062.19-.146a.35.35 0 0 0 .164-.029 59191 59191 0 0 0 52.498-22.154q3.435-1.45 8.432-3.43"/><path fill="#0F3C54" d="M202.927 39.332 155.604 48l-2.89-3.305q5.55-.332 8.268-.845c2.727-.513 4.427-2.166 6.443-4.07 9.914-9.358 19.392-19.092 29.699-28.04a65.5 65.5 0 0 1 8.387-6.185c1.745-1.086 3.873-2.208 5.826-1.606 4.145 1.276 5.503 7.176 5.382 10.884-.242 7.306-3.997 14.474-9.064 19.612-1.173 1.19-3.366 2.988-4.912 4.668q-.07.074.007.14.082.075.177.079M219.466 7.05q.291.753.27 1.565z"/><path fill="#275974" d="m116.278 17.119-.162.144a.25.25 0 0 1-.154.067q-2.067.174-3.768.488c-14.474 2.675-19.082 17.115-17.54 29.879q.021.172.009.353L72.845 60.508c-.973-10.649 5.353-21.425 12.053-29.186 7.863-9.11 19.384-13.977 31.38-14.203"/><path fill="#2B7CA8" d="M116.278 17.119c4.359.01 7.587.072 11.443 1.43 5.254 1.85 8.792 5.465 11.422 10.272q.092.168.087.298-.04.084-.19.147-10.567 4.45-35.742 15.154l-7.645 3.115q-.396.162-.044.486l-.946.029q.012-.18-.01-.353c-1.54-12.764 3.067-27.204 17.541-29.88a39 39 0 0 1 3.768-.487.25.25 0 0 0 .154-.067z"/><path fill="#0F3C54" d="M218.216 20.386a4.5 4.5 0 0 1-.602 1.614 5.4 5.4 0 0 1 .602-1.614"/><path fill="#DC9370" d="M128.637 44.545c-1.61.091-3.24.047-4.855.078q-4.906.09-10.446 1.226c-6.424 1.318-9.835 7.617-11.399 13.425a.1.1 0 0 0 .002.046.1.1 0 0 0 .027.038.08.08 0 0 0 .089.005c4.486-2.736 9.816-5.09 15.114-5.424q1.21-.078 3.791.116c3.939.296 7.855.357 11.781-.179a.25.25 0 0 0 .158-.087l1.051-1.278c.064.01.06-.007.106.038 3.084 3.1 5.38 6.96 5.547 11.266.22 5.705.581 10.74 1.735 16.075.902 4.173 2.354 8.657 4.929 12.236.843 1.171 2.814 2.764 2.156 4.235a622 622 0 0 0-4.037 9.237c-5.543-.511-9.902-3.784-13.197-7.986a1298 1298 0 0 1-5.98-7.685q.114.014.175-.062a.2.2 0 0 0 .039-.177c-.851-3.54-.858-6.983 1.114-10.041a.1.1 0 0 0 .02-.06.12.12 0 0 0-.052-.112.13.13 0 0 0-.059-.024c-1.173-.16-2.37.558-3.339 1.155q-2.603 1.602-2.282 4.685c.011.112-.025.167-.082.255q-4.175-3.075-9.119-2.987c-9.63.175-17.254 5.003-21.008 13.84a.15.15 0 0 1-.137.097c-6.313.46-9.841-3.523-10.865-9.246-1.445-8.074.6-16.703 8.334-20.878 1.818-.981 3.585-1.564 3.262-4.04-.366-2.812-.277-5.217.956-7.805a22.8 22.8 0 0 1 4.597-6.462c.486-.078.927-.04 1.406-.241 5.653-2.381 12.482-4.095 18.643-3.687.564.036 1.176-.034 1.695-.01q2.584.129 5.168.21c.624.018 2.024-.174 2.347.111a.25.25 0 0 0 .165.065zm-19.781 20.003a7.8 7.8 0 0 0-2.473 1.055q-.923.602-.991 1.643a.39.39 0 0 0 .197.366 21.6 21.6 0 0 0 2.978 1.416q.18.224.399.333a124 124 0 0 0 12.26 5.274q.121.043.391-.033 2.315 1.012 4.542 1.177c4.486.337 6.468-5.034 6.5-8.683.019-2.197-1.305-3.182-3.344-3.767a21.7 21.7 0 0 0-5.191-.832q-4.54-.373-8.764.428-2.982.566-6.504 1.623"/><path fill="#ECE1DF" d="m128.637 44.545 9.683.245a107 107 0 0 1-4.37 7.721l-1.051 1.278a.25.25 0 0 1-.158.087c-3.926.536-7.842.475-11.781.179q-2.58-.195-3.791-.116c-5.298.334-10.628 2.688-15.114 5.424a.08.08 0 0 1-.089-.005.1.1 0 0 1-.027-.038.1.1 0 0 1-.002-.046c1.564-5.808 4.975-12.107 11.399-13.425q5.54-1.137 10.446-1.226c1.615-.03 3.245.013 4.855-.078"/><path fill="#E8A887" d="m152.714 44.695 2.89 3.305 2.623 3.63q-2.182-.42-3.818 1.02c-1.902 1.672-3.023 4.325-3.54 6.75-7.472 12.108-1.575 25.758 5.644 36.156.801 1.155-1.866 6.305-2.594 7.769q-.027.055.023.091l.055.038q-1.471 1.956-3.941 2.138c-1.796.133-3.896.296-5.67.006q1.988-4.65 4.037-9.237c.658-1.47-1.313-3.064-2.156-4.235-2.575-3.579-4.027-8.063-4.929-12.236-1.154-5.335-1.515-10.37-1.735-16.075-.167-4.306-2.463-8.165-5.547-11.266-.046-.045-.042-.028-.106-.038a107 107 0 0 0 4.37-7.721q7.198.11 14.394-.095"/><path fill="#FBF9FC" d="m95.61 48.021 1.153.044a22.8 22.8 0 0 0-4.597 6.462c-1.233 2.588-1.322 4.993-.956 7.805.323 2.476-1.444 3.059-3.262 4.04-7.734 4.175-9.779 12.804-8.334 20.878 1.024 5.722 4.552 9.706 10.865 9.246a.15.15 0 0 0 .137-.097c3.754-8.837 11.378-13.665 21.008-13.84q4.944-.09 9.119 2.987a35 35 0 0 1 4.466 4.381q2.977 3.856 5.98 7.685c3.295 4.202 7.654 7.475 13.197 7.986 1.774.29 3.874.127 5.67-.006q2.47-.182 3.941-2.138a16.9 16.9 0 0 0 3.302-4.165c2.003-3.554 3.607-6.96 7.913-8.173q1.913-.54 4.271-.634c.774.1 1.631.074 2.336.303 6.994 2.264 7.371 11.771 6.669 17.679-.096.817-.344 1.741.008 2.408 4.325 8.224 11.019 14.89 18.645 20.253a54 54 0 0 0 3.185 2.073 110.6 110.6 0 0 0 27.779 11.976q2.566.84 5.235 1.27a.03.03 0 0 0 .026-.009l.034-.034a.06.06 0 0 1 .061-.019 19 19 0 0 0 3.384.533l1.194.186q.167.026.03.128l-.368.271q-.303-.059-.394-.03c-11.082 3.575-23.121 3.13-32.288-4.864q-.252-.219-.044.041l9.741 12.267c7.154 9.202 13.523 17.278 19.317 26.61 3.343 5.384 8.133 9.509 13.372 12.976 2.373 1.57 4.952 3.205 7.547 4.63q.026.014.038.04a.09.09 0 0 1-.013.102.1.1 0 0 1-.045.029l-.985.266q-.11-.353-.541-.328c-.538.03-1.336.041-1.986.011-24.471-1.169-45.466-14.134-58.186-34.95a.07.07 0 0 0-.061-.038q-.05-.005-.026.04.163.319.516 1.124 5.891 13.422 10.081 26.86c.764 2.451 1.469 5.13 2.183 7.701 1.323 5.241 2.282 10.635 2.56 16.036.636 12.318 1.632 25.103 5.643 36.839q.462 1.348 1.446 2.962.067.108-.06.108l-1.14.006a.07.07 0 0 1 .047-.04q.036-.009.013-.015a54 54 0 0 0-2.662-.444c-3.124-.437-6.782-1.341-8.862-1.844-45.181-10.905-81.595-46.937-102.342-99.137.013.006-.007-.012 0 0 .014-.002-.013-.006 0 0 .003-.014-.01.01 0 0-3.928 18.104-17.793 47.365-32.19 59.28-15.719 13.008-35.335 15.82-55.108 12.891-.242-.036-.45.034-.698.04l-.775-.255a.048.048 0 0 1-.027-.07.05.05 0 0 1 .021-.019 53.2 53.2 0 0 0 13.965-9.371c11.3-10.503 19.287-23.806 25.288-37.899a181 181 0 0 0 6.605-18.489.05.05 0 0 0 0-.031.05.05 0 0 0-.019-.025.04.04 0 0 0-.028-.01.05.05 0 0 0-.03.009c-11.697 7.854-24.795 13.973-38.393 17.178q-4.57 1.076-10.487 1.444c-1.57.097-3.333.061-5.003.091-.448.008-.998-.182-1.568-.017l-2.086-.332-.024-.013a.04.04 0 0 1-.012-.023l.003-.027a.04.04 0 0 1 .018-.02 127.6 127.6 0 0 0 30.036-23.274 80 80 0 0 0 4.796-5.5 81.8 81.8 0 0 0 13.412-22.361.06.06 0 0 0 0-.043.06.06 0 0 0-.027-.033.06.06 0 0 0-.08.013 189 189 0 0 1-15.665 16.924c-3.671 3.512-7.538 6.741-12.231 8.807q-.306.135-1.272.334-.08.015-.102-.061a.15.15 0 0 1-.004-.076c9.805-9.31 18.723-19.572 26.31-30.771 6.993-10.318 12.241-20.612 15.525-32.573a36.3 36.3 0 0 0 4.414 7.47.11.11 0 0 0 .088.043.11.11 0 0 0 .087-.046c6.852-9.538 12.275-22.48 9.619-34.441q-.021-.093-.116-.103a18 18 0 0 0-4.179.069q.842-1.622 2.212-2.66L94.663 48.05zm13.483 57.368c1.161-1.409 2.864-1.57 3.694.302q5.495 12.401 18.377 16.39c7.593 2.35 15.367.188 22.297-3.129q.54-.258.855-.507.264-.207-.034-.055c-9.929 5.071-21.917 4.403-31.055-1.999q-5.42-3.797-7.559-10.281c-.413-1.245-.515-2.834.965-3.389 1.878-.7 4.363.58 5.948 1.692q.175.121.064-.059a7.2 7.2 0 0 0-1.427-1.671c-3.411-2.986-8.438-3.276-11.446.433a13.6 13.6 0 0 0-2.672 5.366q-.029.111.021.005.722-1.581 1.972-3.098"/><path fill="#ECE1DF" d="M158.227 51.63c.57.25 1.172.494 1.617.93 2.852 2.799 2.968 8.126 2.569 11.796a49 49 0 0 1-2.098-2.345c-2.313-2.715-5.99-4.583-9.446-2.61.517-2.426 1.638-5.079 3.54-6.751q1.636-1.44 3.818-1.02"/><path fill="#C9836D" d="M162.413 64.356c.671 3.452.995 6.656.245 10.142a.3.3 0 0 0 .137.319c5.525 3.385 9.003 9.088 6.688 15.665q-2.358.094-4.271.634c-4.306 1.213-5.91 4.619-7.913 8.173a16.9 16.9 0 0 1-3.302 4.165l-.055-.038q-.05-.036-.023-.091c.728-1.464 3.395-6.614 2.594-7.769-7.219-10.398-13.116-24.048-5.644-36.155 3.456-1.973 7.133-.105 9.446 2.61a49 49 0 0 0 2.098 2.345m-4.821 12.333q1.457.078 3.054-.58c1.826-.751 1.869-1.882 1.869-3.792 0-2.675-.228-5.574-3.825-5.185q-2.744.12-4.976 1.615c-.899.602-1.522 1.31-1.904 2.282-.905 2.3-1.625 6.083 2.234 6.023 1.482-.025 2.575.056 3.548-.363"/><path fill="#5A2F30" d="M124.124 62.497q-1.36.224-2.231 1.073c-.973.947-1.209 2.567-.576 3.75q1.317 2.465 4.021 1.629a.1.1 0 0 1 .055-.003.1.1 0 0 1 .048.026.1.1 0 0 1 .03.102q-.864 3.51-3.854 5.528-.27.076-.391.033a124 124 0 0 1-12.26-5.274 1.2 1.2 0 0 1-.399-.333 13 13 0 0 1 .289-4.48q3.522-1.058 6.504-1.623 4.224-.801 8.764-.428m-4.519 5.204a1.93 1.93 0 0 0-1.934-1.932 1.936 1.936 0 0 0-1.935 1.932 1.93 1.93 0 0 0 1.935 1.933 1.93 1.93 0 0 0 1.934-1.933"/><path fill="#ECE1DF" d="M121.617 74.602q2.99-2.018 3.854-5.528a.1.1 0 0 0-.03-.102.1.1 0 0 0-.048-.026.1.1 0 0 0-.055.003q-2.704.835-4.021-1.63c-.633-1.182-.397-2.802.576-3.749q.87-.849 2.231-1.073 2.649.102 5.191.832c2.039.585 3.363 1.57 3.344 3.767-.032 3.649-2.014 9.02-6.5 8.683q-2.227-.165-4.542-1.177"/><path fill="#DC9370" d="M60.72 90.176a.3.3 0 0 1-.01-.188.3.3 0 0 0-.011-.177q-2.99-8.448-.28-17.024c1.583-5.006 5.013-8.528 10.214-9.62a18 18 0 0 1 4.179-.068q.095.01.116.103c2.656 11.96-2.767 24.903-9.62 34.44a.108.108 0 0 1-.174.005 36.3 36.3 0 0 1-4.414-7.471m8.385-18.4a.04.04 0 0 0-.053-.008.04.04 0 0 0-.015.025q-.002.016.007.028c2.359 3.668.086 10.203-1.634 13.998q-.513 1.136.06.026c1.633-3.157 4.585-10.821 1.635-14.07"/><path fill="#ECE1DF" d="M108.856 64.548a13 13 0 0 0-.289 4.48 21.6 21.6 0 0 1-2.978-1.416.39.39 0 0 1-.197-.366q.068-1.04.991-1.643a7.8 7.8 0 0 1 2.473-1.055m10.749 3.153a1.93 1.93 0 0 1-1.934 1.933 1.936 1.936 0 0 1-1.935-1.933 1.93 1.93 0 0 1 1.935-1.932 1.93 1.93 0 0 1 1.934 1.932"/><path fill="#5A2F30" d="m158.69 67.132.454.602a.16.16 0 0 1 .028.12.15.15 0 0 1-.071.1c-2.267 1.353-1.665 4.693 1.083 4.738q.019 0 .034.009t.028.023q.01.014.014.032a.1.1 0 0 1 0 .035q-.624 2.412-2.668 3.898c-.973.42-2.066.338-3.548.363-3.859.06-3.139-3.724-2.234-6.023.382-.972 1.005-1.68 1.904-2.282q2.232-1.495 4.976-1.615m-2.302 5.777c.349-.003.684-.156.929-.427.246-.27.382-.637.379-1.017a1.5 1.5 0 0 0-.104-.55 1.5 1.5 0 0 0-.289-.463 1.3 1.3 0 0 0-.43-.308 1.2 1.2 0 0 0-.505-.106 1.27 1.27 0 0 0-.93.427 1.5 1.5 0 0 0-.379 1.018c.001.188.037.375.104.548.068.174.166.332.289.464.124.132.27.237.43.308.161.071.333.107.506.106"/><path fill="#ECE1DF" d="M157.592 76.689q2.044-1.486 2.668-3.898a.1.1 0 0 0 0-.035.1.1 0 0 0-.014-.032.1.1 0 0 0-.028-.023.1.1 0 0 0-.034-.008c-2.748-.046-3.35-3.386-1.083-4.74a.15.15 0 0 0 .071-.099.16.16 0 0 0-.028-.12l-.454-.602c3.597-.39 3.825 2.51 3.825 5.185 0 1.91-.043 3.041-1.869 3.793q-1.597.656-3.054.579"/><path fill="#ECE1DF" d="M156.388 72.909a1.2 1.2 0 0 1-.506-.106 1.3 1.3 0 0 1-.43-.308 1.5 1.5 0 0 1-.289-.464 1.6 1.6 0 0 1-.104-.548c-.003-.38.134-.747.379-1.018.246-.27.58-.424.93-.427.173 0 .345.035.505.106q.243.108.43.308c.123.133.222.29.289.464.068.174.103.36.104.549.003.38-.133.746-.379 1.017-.245.27-.58.424-.929.427"/><path fill="#5A2F30" d="M69.105 71.776c2.95 3.248-.002 10.912-1.636 14.07q-.571 1.109-.059-.027c1.72-3.795 3.993-10.33 1.635-13.998a.04.04 0 0 1-.008-.028.04.04 0 0 1 .015-.025.04.04 0 0 1 .053.007"/><path fill="#C9836D" d="M125.209 89.927a35 35 0 0 0-4.466-4.382c.057-.087.093-.142.082-.254q-.32-3.083 2.282-4.685c.969-.597 2.166-1.314 3.339-1.155q.032.004.059.024t.041.049.011.062a.1.1 0 0 1-.02.06c-1.972 3.06-1.965 6.501-1.114 10.042a.2.2 0 0 1-.039.177q-.061.075-.175.062"/><path fill="#5A2F30" d="M112.787 105.691c-.83-1.872-2.533-1.711-3.694-.302q-1.25 1.517-1.972 3.098-.05.106-.021-.005a13.6 13.6 0 0 1 2.672-5.366c3.008-3.71 8.035-3.419 11.446-.433a7.2 7.2 0 0 1 1.427 1.671q.11.18-.064.059c-1.585-1.112-4.07-2.392-5.948-1.692-1.48.555-1.378 2.144-.965 3.389q2.14 6.484 7.559 10.281c9.138 6.402 21.126 7.07 31.055 1.999q.298-.152.034.055-.315.249-.855.507c-6.93 3.317-14.704 5.479-22.297 3.129q-12.882-3.989-18.377-16.39"/><path fill="#C7C3C5" d="M34.854 150.016c-4.849 2.078-10.835 3.937-16.151 3.791q-.119-.002-.048-.097a.6.6 0 0 1 .23-.19.15.15 0 0 0 .004.076q.023.076.102.061.966-.2 1.272-.334c4.693-2.066 8.56-5.295 12.231-8.807a189 189 0 0 0 15.666-16.924.06.06 0 0 1 .08-.013.06.06 0 0 1 .026.033.06.06 0 0 1 0 .043 81.8 81.8 0 0 1-13.412 22.361m202.847-2.516a2 2 0 0 1-.42.374c-6.066 4.365-13.382 7.463-21.043 7.017a10.5 10.5 0 0 0-1.522.023l-9.741-12.267q-.208-.26.044-.041c9.167 7.994 21.206 8.439 32.288 4.864q.091-.029.394.03m-9.596-2.326c1.113-.081 2.926.524 4.06.773 1.243.272 3.137.492 4.68.968a19 19 0 0 1-3.384-.533.06.06 0 0 0-.061.019l-.034.034a.03.03 0 0 1-.026.009 34.4 34.4 0 0 1-5.235-1.27M51.046 179.055q-.09 0-.18.019c-15.924 3.429-32.57 2.86-48.743.131.57-.165 1.12.025 1.568.017 1.67-.03 3.434.006 5.003-.091q5.917-.368 10.487-1.444c13.598-3.205 26.696-9.324 38.394-17.178a.05.05 0 0 1 .029-.009q.016 0 .028.01a.05.05 0 0 1 .018.025.05.05 0 0 1 0 .031 181 181 0 0 1-6.604 18.489m202.901 20.512a82 82 0 0 1-15.747 3.993 40 40 0 0 0-.703.191c-.422.116-.733-.036-1.119.019-10.24 1.468-20.885.589-30.339-3.814a.07.07 0 0 0-.066.004l-.046.027c-.714-2.571-1.419-5.25-2.183-7.701q-4.19-13.437-10.081-26.86a24 24 0 0 0-.516-1.124q-.024-.046.026-.04a.07.07 0 0 1 .061.038c12.72 20.816 33.715 33.781 58.186 34.95.65.03 1.448.019 1.986-.011q.431-.025.541.328m-39.571 56.371a.15.15 0 0 1-.095.038 144.3 144.3 0 0 1-25.148-1.741q-.119-.019-.724-.006c-.423.01-.634-.182-.976-.237-33.204-5.244-63.961-19.619-88.177-42.933a.1.1 0 0 0-.062-.029.1.1 0 0 0-.067.017c-14.66 9.934-31.627 17.032-49.058 19.81q-1.277.203-5.714.581c-10.806.919-21.768-.515-31.78-4.769.246-.006.456-.076.697-.04 19.773 2.929 39.389.117 55.107-12.891 14.398-11.915 28.263-41.176 32.191-59.28.003-.014-.01.01 0 0 .014-.002-.013-.006 0 0s-.007-.012 0 0c20.747 52.2 57.161 88.232 102.342 99.137 2.08.503 5.738 1.407 8.862 1.844q1.329.188 2.662.444.023.006-.013.015a.07.07 0 0 0-.047.04"/></svg>