<svg xmlns="http://www.w3.org/2000/svg" fill="none" viewBox="0 0 215 256"><path fill="#FBA534" d="m55.77 256 27.684-37.86c10.71 4.007 22.43 6.211 34.554 6.211 4.041 0 8.284-.201 12.123-.802h.404C178.224 217.339 215 177.076 215 128.2c0-15.023-3.435-29.246-9.699-41.665-1.819-4.006-4.041-7.612-6.466-11.217-3.031-4.608-6.466-8.814-10.104-12.62-4.849-5.208-10.305-9.815-16.165-13.621C174.183 32.05 187.115 0 187.115 0l-24.45 29.646c-17.176-14.222-39.202-22.835-63.45-22.835C44.455 6.81 0 50.879 0 105.365c0 31.249 16.368 57.89 35.766 79.323 9.497 10.617 19.6 18.83 31.523 25.841zM15.156 113.978c0-53.083 43.445-96.15 96.993-96.15 17.983 0 34.957 4.807 49.304 13.22l-7.274 8.013c-11.114-4.407-23.44-7.01-36.372-7.01-53.548 0-96.993 43.066-96.993 96.149 0 9.415 1.415 18.629 4.041 27.443-6.264-12.62-9.699-26.842-9.699-41.665m67.895 88.338c-23.44-14.423-39-40.263-39-69.508 0-32.452 18.995-60.495 46.679-73.716-22.43 16.827-36.979 43.669-36.979 73.716 0 28.044 12.528 53.082 32.33 69.909 1.415 1.201 3.032 2.604 4.648 3.805-2.626-1.201-5.253-2.604-7.678-4.206m43.646 12.419c-10.305 0-20.004-1.803-29.097-5.208-.203-.2-.607-.401-.809-.601-2.425-1.803-4.85-3.605-6.87-5.608C73.15 188.093 62.44 166.06 62.44 141.621c0-46.272 37.786-83.73 84.464-83.73 5.254 0 10.508.4 15.56 1.402 14.548 7.01 26.672 18.028 34.756 31.449 6.061 9.815 10.103 21.233 11.315 33.251q.606 4.507.606 9.015c0 45.07-36.978 81.727-82.444 81.727"/></svg>
