<svg xmlns="http://www.w3.org/2000/svg" fill="none" viewBox="0 0 256 256"><path fill="url(#paint0_linear_10243_956)" fill-rule="evenodd" d="m152.586.06.051-.06c-14.672.275-28.838 4.242-41.026 11.988a797 797 0 0 0-26.732 29.893 618 618 0 0 0-27.16 34.264 281 281 0 0 0-9.378 13.568c4.65-3.006 9.122-6.183 13.533-9.403a595 595 0 0 0 15.4-11.8c24.753-19.57 47.93-40.996 70.199-63.229 1.713-1.734 3.408-3.478 5.121-5.23zm-10.963 58.223a1907 1907 0 0 0 48.743-51.035A97.7 97.7 0 0 0 170.11 1.4a1998 1998 0 0 0-43.408 41.924 1856 1856 0 0 0-48.47 50.666c-22.902 24.963-44.88 50.794-65.076 78.137 24.633-18.309 48.05-38.043 70.687-58.635 19.734-17.914 38.894-36.446 57.78-55.218zm77.076-33.749c-23.297 25.866-47.45 50.924-71.903 75.664a2702 2702 0 0 1-44.435 43.324C69.608 174.643 35.836 204.716 0 232.427c28.265-36.754 58.996-71.335 90.806-104.878 13.533-14.264 27.254-28.338 41.078-42.31 24.059-23.899 48.435-47.532 73.54-70.348 4.59 2.816 9.036 6.02 13.275 9.643m21.927 25.333a106 106 0 0 0-9.73-13.199c-25.807 23.367-50.825 47.618-75.518 72.143-14.56 14.711-29.018 29.541-43.253 44.595-31.04 32.83-61 66.681-88.631 102.594 36.598-28.296 71.038-59.039 104.442-90.881a2858 2858 0 0 0 42.362-41.348c23.897-24.183 47.519-48.674 70.319-73.912zm7.717 14.994a98.6 98.6 0 0 1 6.047 20.06 2004 2004 0 0 1-42.311 44.036 1860 1860 0 0 1-51.048 49.078c-24.736 22.799-50.337 44.654-77.42 64.775 18.176-24.595 37.773-47.97 58.217-70.58 17.944-19.889 36.521-39.193 55.33-58.223a1897 1897 0 0 1 51.185-49.146m-2.45 76.754c6.715-11.893 10.064-25.436 10.107-39.416l-5.996 5.9c-22.423 22.585-44.024 46.088-63.723 71.207a618 618 0 0 0-11.101 14.607 280 280 0 0 0-9.378 13.568 280 280 0 0 0 13.532-9.395 616 616 0 0 0 31.494-24.955 801 801 0 0 0 35.065-31.516" clip-rule="evenodd"/><defs><linearGradient id="paint0_linear_10243_956" x1="206.211" x2="514.691" y1="570.833" y2="204.23" gradientUnits="userSpaceOnUse"><stop stop-color="#FF2189"/><stop offset="1" stop-color="#FF9D00"/></linearGradient></defs></svg>
