<svg width="256" height="256" viewBox="0 0 256 256" fill="none" xmlns="http://www.w3.org/2000/svg">
<path fill-rule="evenodd" clip-rule="evenodd" d="M152.586 0.0601118L152.637 0C137.965 0.274798 123.799 4.24219 111.611 11.9881C102.452 21.7258 93.5382 31.6933 84.8794 41.8809C75.4258 52.9773 66.3669 64.4058 57.7197 76.1448C54.4617 80.5745 51.3341 85.0991 48.341 89.7129C52.9918 86.7073 57.4627 83.53 61.8737 80.3097C67.0706 76.4608 72.2046 72.5272 77.2737 68.5106C102.027 48.9398 125.204 27.5141 147.473 5.28127C149.186 3.54661 150.881 1.80336 152.594 0.051525L152.586 0.0601118ZM141.623 58.2829C158.183 41.5742 174.434 24.5595 190.366 7.2478C183.844 4.57337 177.052 2.61266 170.11 1.39975C155.431 15.1545 140.96 29.1307 126.702 43.3236C110.229 59.9045 94.0695 76.7961 78.2329 93.9895C55.3301 118.953 33.3522 144.784 13.1559 172.127C37.7889 153.818 61.2057 134.084 83.843 113.492C103.577 95.5781 122.737 77.0465 141.623 58.2743V58.2829ZM218.699 24.5343C195.402 50.3997 171.249 75.4578 146.796 100.198C132.15 114.81 117.337 129.252 102.361 143.522C69.608 174.643 35.8361 204.716 0 232.427C28.2646 195.673 58.9959 161.092 90.8064 127.549C104.339 113.285 118.06 99.2106 131.884 85.2389C155.943 61.34 180.319 37.7074 205.424 14.8906C210.014 17.7073 214.46 20.9104 218.699 24.5343ZM240.626 49.8672C237.727 45.2228 234.474 40.81 230.896 36.6683C205.089 60.0348 180.071 84.2857 155.378 108.811C140.818 123.522 126.36 138.352 112.125 153.406C81.0851 186.236 51.1246 220.087 23.4939 256C60.0922 227.704 94.5322 196.961 127.936 165.119C142.199 151.483 156.32 137.7 170.298 123.771C194.195 99.5885 217.817 75.0971 240.617 49.8586L240.626 49.8672ZM248.343 64.8609C251.109 71.4217 253.122 78.1714 254.39 84.9211C240.51 99.8145 226.405 114.495 212.079 128.957C195.375 145.64 178.356 162.002 161.031 178.035C136.295 200.834 110.694 222.689 83.6118 242.81C101.787 218.215 121.384 194.84 141.828 172.23C159.772 152.341 178.349 133.037 197.158 114.007C213.913 97.3065 230.977 80.9216 248.343 64.8609ZM245.893 141.615C252.608 129.722 255.957 116.179 256 102.199L250.004 108.099C227.581 130.684 205.98 154.187 186.281 179.306C182.512 184.115 178.812 188.984 175.18 193.913C171.922 198.342 168.794 202.867 165.802 207.481C170.403 204.483 174.916 201.35 179.334 198.086C190.1 190.113 200.603 181.79 210.828 173.131C222.822 162.973 234.515 152.463 245.893 141.615Z" fill="url(#paint0_linear_10243_956)"/>
<defs>
<linearGradient id="paint0_linear_10243_956" x1="206.211" y1="570.833" x2="514.691" y2="204.23" gradientUnits="userSpaceOnUse">
<stop stop-color="#FF2189"/>
<stop offset="1" stop-color="#FF9D00"/>
</linearGradient>
</defs>
</svg>
