<svg xmlns="http://www.w3.org/2000/svg" fill="none" viewBox="0 0 393 256"><path fill="#fff" d="M28.582 156.862a8.4 8.4 0 0 1-1.258-7.396L72.14 5.916A8.47 8.47 0 0 1 80.199 0h90.627a8.43 8.43 0 0 1 8.393 7.142 8.4 8.4 0 0 1-.332 3.952l-44.814 143.29a8.43 8.43 0 0 1-8.061 5.917H35.385a8.36 8.36 0 0 1-6.803-3.439m128.527-16.899a8.35 8.35 0 0 1-1.258-7.396l23.96-76.73a8.47 8.47 0 0 1 8.061-5.916h57.312a8.43 8.43 0 0 1 6.882 3.474 8.43 8.43 0 0 1 1.179 7.62l-24.034 76.433a8.5 8.5 0 0 1-8.098 5.954h-57.201a8.47 8.47 0 0 1-6.803-3.439m85.08 16.899a8.4 8.4 0 0 1-1.257-7.396l44.814-143.55A8.47 8.47 0 0 1 293.807 0h90.701a8.43 8.43 0 0 1 8.393 7.142 8.44 8.44 0 0 1-.332 3.952l-45.037 143.29a8.43 8.43 0 0 1-8.06 5.917h-90.479a8.43 8.43 0 0 1-6.804-3.439m-240.6 95.699a8.43 8.43 0 0 1-1.22-7.396l18.081-57.944a8.47 8.47 0 0 1 8.061-6.028h300.611a8.432 8.432 0 0 1 8.061 11.094l-18.118 57.76a8.43 8.43 0 0 1-8.061 5.953H8.394a8.55 8.55 0 0 1-6.804-3.439"/></svg>