<svg xmlns="http://www.w3.org/2000/svg" fill="none" viewBox="0 0 418 256"><path fill="#1C56C8" d="M411.062 180.783 320.759 24.45c-19.796-32.587-68.066-32.939-87.17 1.381l-94.817 162.572c-17.708 29.813 4.175 67.246 39.592 67.246h189.974c35.769 0 62.507-38.475 42.724-74.866"/><path fill="#3A8EF7" d="m280.821 192.909-5.546-9.703c-5.22-9.013-16.677-28.42-16.677-28.42l-76.405-132.42c-19.796-29.462-66.682-31.884-86.479 5.197L6.796 181.122c-18.4 32.236 3.484 74.187 43.428 74.526h317.428c-48.974.352-64.595-24.955-86.831-62.739"/><path fill="url(#paint0_linear_9883_898)" d="m280.821 192.909-5.546-9.703c-5.22-9.013-16.677-28.42-16.677-28.42l-49.317-86.665-70.846 120.633C120.714 218.567 142.598 256 178.027 256h189.622c-49.314-.351-64.592-25.307-86.828-63.091"/><defs><linearGradient id="paint0_linear_9883_898" x1="113.218" x2="332.597" y1="133.936" y2="215.162" gradientUnits="userSpaceOnUse"><stop stop-color="#1C56C8" stop-opacity="0"/><stop offset="1" stop-color="#1C56C8"/></linearGradient></defs></svg>
