<svg width="418" height="256" viewBox="0 0 418 256" fill="none" xmlns="http://www.w3.org/2000/svg">
<path d="M411.062 180.783L320.759 24.4501C300.963 -8.13708 252.693 -8.48856 233.589 25.831L138.772 188.403C121.064 218.216 142.947 255.649 178.364 255.649H368.338C404.107 255.649 430.845 217.174 411.062 180.783Z" fill="#1C56C8"/>
<path d="M280.821 192.909L275.275 183.206C270.055 174.193 258.598 154.786 258.598 154.786L182.193 22.3659C162.397 -7.09563 115.511 -9.51833 95.7145 27.5628L6.79593 181.122C-11.6041 213.358 10.2797 255.309 50.2239 255.648H367.652C318.678 256 303.057 230.693 280.821 192.909Z" fill="#3A8EF7"/>
<path d="M280.821 192.909L275.275 183.206C270.055 174.193 258.598 154.786 258.598 154.786L209.281 68.1213L138.435 188.754C120.714 218.567 142.598 256 178.027 256H367.649C318.335 255.649 303.057 230.693 280.821 192.909Z" fill="url(#paint0_linear_9883_898)"/>
<defs>
<linearGradient id="paint0_linear_9883_898" x1="113.218" y1="133.936" x2="332.597" y2="215.162" gradientUnits="userSpaceOnUse">
<stop stop-color="#1C56C8" stop-opacity="0"/>
<stop offset="1" stop-color="#1C56C8"/>
</linearGradient>
</defs>
</svg>
