<svg xmlns="http://www.w3.org/2000/svg" fill="none" viewBox="0 0 260 256"><path fill="#89AAFF" d="m256.312.31-96.501 45.483c-1.844.922-2.151 3.688-.308 4.61 11.371 5.839 45.485 17.825 63.925 47.02 0 0-41.796-39.644-93.428-39.644S36.572 97.423 36.572 97.423c18.44-29.195 52.553-41.181 63.924-47.02 1.844-.922 1.844-3.688-.307-4.61L3.688.31C2.15-.305 0 .924 0 2.768v134.299c0 39.338 19.976 76.216 53.475 97.113.307.307.615.307.922.615C85.437 253.849 115.556 256 130 256c15.366 0 44.563-2.151 75.603-21.205.307-.308.615-.308.922-.615C240.023 213.59 260 176.405 260 137.067V2.768c-.308-2.151-2.152-3.38-3.688-2.458"/><path fill="#001947" fill-rule="evenodd" d="M34.325 144.681a6.495 6.495 0 0 1 9.069 1.508c1.47 2.059 11.664 15.609 28.322 15.105l.094-.002c15.957-.253 25.656-13.102 27.085-15.103a6.496 6.496 0 0 1 9.069-1.508 6.516 6.516 0 0 1 1.505 9.081c-1.642 2.299-14.669 20.16-37.406 20.545-23.88.698-37.642-18.303-39.243-20.545a6.515 6.515 0 0 1 1.505-9.081m117.707 0a6.495 6.495 0 0 1 9.068 1.508c1.47 2.059 11.665 15.609 28.323 15.105l.093-.002c15.958-.253 25.657-13.102 27.086-15.103a6.495 6.495 0 0 1 9.068-1.508 6.515 6.515 0 0 1 1.506 9.081c-1.642 2.299-14.669 20.16-37.406 20.545-23.881.698-37.642-18.303-39.244-20.545a6.515 6.515 0 0 1 1.506-9.081" clip-rule="evenodd"/><path fill="#001947" d="M111.527 181.322 128.737 193c1.229.922 3.073.922 3.995 0l17.211-11.678c2.15-1.536.922-4.302-2.151-4.302h-34.421c-2.459 0-3.996 2.766-1.844 4.302"/></svg>
