<svg xmlns="http://www.w3.org/2000/svg" fill="none" viewBox="0 0 360 256"><path fill="#DECFB1" d="M160.352 27.054c1.145 1.305 1.311 2.755 1.92 3.984.575 1.156.703 2.529 1.715 3.807.443-.791.825-1.345 1.09-1.953 2.507-5.76 4.985-11.527 7.481-17.287 1.892-4.383 3.773-8.776 5.699-13.148.377-.858.653-1.81 1.323-2.457.769.116.901.675 1.084 1.14 3.486 8.893 6.961 17.796 10.441 26.688a460 460 0 0 0 2.263 5.672c.155.377.41.714.775 1.322 1.433-2.534 2.003-5.123 3.242-7.713.653.758.742 1.434.886 2.058 1.073 4.837 2.13 9.673 3.198 14.51 2.041 9.246 4.089 18.487 6.131 27.734 1.488 6.734 2.96 13.48 4.459 20.208.316 1.406.36 2.779.072 4.2a19244 19244 0 0 0-8.742 43.19c-2.02 10.066-3.984 20.137-5.998 30.203-2.418 12.057-4.87 24.109-7.287 36.167-1.477 7.376-2.927 14.752-4.388 22.129-1.683 8.505-3.359 17.01-5.046 25.51-.155.774-.377 1.532-.548 2.252-.764.127-.814-.36-.902-.77-.979-4.587-1.97-9.169-2.921-13.762-2.673-12.909-5.318-25.819-7.985-38.729-2.512-12.13-5.057-24.254-7.564-36.389-2.772-13.424-5.506-26.86-8.278-40.29a5447 5447 0 0 0-6.246-29.881c-.25-1.168-.227-2.252.021-3.398 1.202-5.533 2.358-11.078 3.553-16.612 2.8-12.97 5.61-25.941 8.411-38.911.503-2.337.979-4.677 1.488-7.006.16-.747.393-1.478.664-2.49zM360 135.29c-1.66 2.142-3.375 3.415-4.924 4.831-10.774 9.844-21.597 19.639-32.387 29.461-7.718 7.028-15.409 14.083-23.123 21.111-9.876 8.992-19.77 17.961-29.641 26.959-7.647 6.973-15.277 13.967-22.918 20.945-2.025 1.848-4.045 3.707-6.114 5.5-.653.564-1.422 1.09-2.23 1.378-9.573 3.431-19.162 6.812-28.751 10.198-.392.139-.813.189-1.255.283-.172-.986.453-1.428.851-1.948 2.955-3.862 5.932-7.714 8.904-11.56l37.448-48.524c10.485-13.585 20.976-27.158 31.434-40.766.858-1.118 1.815-1.754 3.22-2.064 6.822-1.5 13.618-3.11 20.418-4.692 10.767-2.502 21.535-5.019 32.302-7.52 4.997-1.163 9.988-2.313 14.99-3.459.415-.094.858-.066 1.776-.127zM.233 137.985c1.194.238 2.401.432 3.585.714 11.625 2.734 23.245 5.49 34.876 8.229 9.987 2.352 19.969 4.703 29.968 6.988 1.471.338 2.506 1.019 3.447 2.203 8.128 10.27 16.306 20.496 24.473 30.733 10.762 13.492 21.519 26.982 32.281 40.473a37384 37384 0 0 1 21.501 26.993c.321.403.587.852 1.091 1.593-.82-.127-1.323-.122-1.766-.287-6.208-2.336-12.405-4.698-18.608-7.056-3.309-1.256-6.601-2.539-9.92-3.768-1.185-.437-2.181-1.084-3.127-1.926-7.475-6.635-14.995-13.219-22.487-19.832-10.607-9.369-21.198-18.759-31.804-28.122-8.157-7.199-16.34-14.371-24.501-21.57-6.768-5.97-13.513-11.963-20.274-17.934-5.832-5.151-11.68-10.292-17.513-15.449-.514-.454-.968-.969-1.455-1.45l.227-.526zm159.399 117.943c-.708-.891-1.427-1.765-2.119-2.667-10.889-14.178-21.767-28.355-32.657-42.531-14.386-18.737-28.767-37.485-43.18-56.205-1.207-1.566-2.114-3.209-2.657-5.124-2.384-8.428-4.841-16.833-7.281-25.244q-4.724-16.31-9.456-32.62c-.614-2.126-1.234-4.25-1.832-6.376-.094-.326-.105-.674-.15-.973.599-.443.891-.011 1.157.266A466 466 0 0 1 66 89.29q12.299 13.204 24.606 26.412c.232.249.531.426.763.614.703-.232.504-.725.47-1.129-.293-3.171-.608-6.342-.907-9.512-.038-.426 0-.863 0-1.329.913-.127 1.35.498 1.826.952 2.894 2.734 5.76 5.501 8.632 8.257 1.084 1.04 2.108 2.152 3.254 3.126.951.808 1.333 1.754 1.455 2.971a430 430 0 0 0 1.389 11.865c.149 1.123.42 2.274.863 3.314a5876 5876 0 0 0 14.104 32.631c4.172 9.568 8.421 19.103 12.621 28.654 5.234 11.897 10.507 23.782 15.67 35.714 2.844 6.573 5.506 13.224 8.211 19.859.526 1.289 1.046 2.612.681 4.239zm107.632-152.09c.016 4.532-1.073 8.416-.93 12.655.487-.266.825-.36 1.035-.581 5.14-5.49 10.264-10.99 15.393-16.49 4.344-4.66 8.682-9.325 13.036-13.978.521-.559 1.046-1.151 2.086-1.665-.188 1.001-.26 1.676-.448 2.323a7337 7337 0 0 1-5.738 19.888q-3.695 12.74-7.398 25.488c-1.847 6.374-3.734 12.733-5.516 19.124-.398 1.433-1.217 2.54-2.075 3.658-5.378 7.027-10.779 14.033-16.168 21.049-9.805 12.772-19.609 25.549-29.414 38.32a207971 207971 0 0 1-31.208 40.628c-.465.603-.984 1.167-1.477 1.743-.636-.465-.376-.897-.238-1.273 1.189-3.237 2.252-6.529 3.619-9.689 6.734-15.594 13.54-31.154 20.34-46.72 6.341-14.509 12.721-28.996 19.062-43.505 2.799-6.403 5.494-12.849 8.316-19.246.802-1.82 1.151-3.696 1.355-5.639.372-3.519.814-7.033 1.146-10.552.1-1.068.609-1.81 1.328-2.496 2.567-2.434 5.14-4.869 7.702-7.309 1.345-1.285 2.662-2.596 4.012-3.874.559-.532 1.172-.996 2.185-1.849zm-97.511 151.21c-.388-.764-.814-1.516-1.152-2.302-5.228-12.19-10.44-24.386-15.669-36.577-5.821-13.568-11.664-27.131-17.485-40.7-3.591-8.366-7.16-16.75-10.74-25.122-2.468-5.771-4.93-11.543-7.426-17.303-.636-1.472-1.078-2.972-1.25-4.577-.775-7.121-1.599-14.243-2.413-21.365q-1.13-9.893-2.268-19.776c-1.024-8.876-2.059-17.752-3.082-26.634-.354-3.077-.708-6.153-1.04-9.23-.034-.315.044-.642.071-.974.958-.055 1.085.68 1.384 1.157 2.523 4.056 5.024 8.123 7.514 12.201 6.413 10.492 12.798 20.995 19.239 31.47.99 1.61 1.699 3.275 2.086 5.118 1.433 6.84 2.899 13.674 4.349 20.508 2.407 11.333 4.803 22.665 7.209 33.998 1.931 9.086 3.869 18.172 5.794 27.259 2.324 10.989 4.615 21.979 6.95 32.968 2.65 12.462 5.328 24.913 7.99 37.369.166.769.265 1.55.398 2.324-.15.066-.304.127-.454.194zM250.936 50.66c-.217 2.108-.404 4.217-.648 6.319-.459 4.046-.962 8.085-1.422 12.13-.803 7.033-1.593 14.072-2.39 21.11l-2.557 22.433c-.625 5.457-1.223 10.913-1.903 16.358a12.7 12.7 0 0 1-.886 3.309c-2.489 5.959-5.04 11.892-7.58 17.829q-6.217 14.518-12.444 29.035-5.387 12.566-10.768 25.133a66799 66799 0 0 1-14.413 33.678 4108 4108 0 0 1-6.817 15.853 3.36 3.36 0 0 1-1.206 1.472c.027-.459 0-.929.088-1.372 2.086-9.784 4.205-19.555 6.286-29.339 3.032-14.282 6.014-28.576 9.047-42.852 2.461-11.599 4.979-23.191 7.447-34.79 1.953-9.175 3.857-18.36 5.81-27.535 1.422-6.668 2.899-13.319 4.316-19.987.244-1.151.686-2.17 1.295-3.166 8.327-13.579 16.638-27.17 24.954-40.76.83-1.361 1.638-2.733 2.485-4.084.215-.343.514-.63.78-.946q.267.091.526.183z"/></svg>
