<svg xmlns="http://www.w3.org/2000/svg" fill="none" viewBox="0 0 360 256"><path fill="#DECFB1" d="M160.136 27.054c1.144 1.305 1.31 2.755 1.918 3.984.574 1.156.702 2.529 1.713 3.807.442-.791.823-1.345 1.088-1.953 2.504-5.76 4.979-11.527 7.471-17.287 1.89-4.383 3.769-8.776 5.692-13.148.376-.858.652-1.81 1.321-2.457.768.116.9.675 1.082 1.14 3.482 8.893 6.952 17.796 10.428 26.689q1.11 2.843 2.26 5.671c.154.377.409.714.773 1.322 1.431-2.534 2.001-5.123 3.239-7.713.651.758.74 1.434.884 2.058 1.071 4.837 2.127 9.673 3.193 14.51 2.039 9.246 4.084 18.487 6.123 27.734 1.486 6.734 2.956 13.48 4.453 20.208.316 1.406.36 2.779.073 4.2a19242 19242 0 0 0-8.731 43.19c-2.017 10.066-3.979 20.137-5.99 30.203-2.415 12.057-4.863 24.109-7.277 36.167-1.476 7.376-2.923 14.752-4.382 22.129-1.681 8.505-3.354 17.01-5.04 25.51-.154.774-.376 1.532-.547 2.252-.762.127-.813-.36-.901-.77-.978-4.587-1.967-9.169-2.917-13.762-2.669-12.909-5.31-25.819-7.974-38.729-2.509-12.13-5.05-24.254-7.554-36.389-2.768-13.424-5.498-26.86-8.266-40.29a5542 5542 0 0 0-6.239-29.881c-.249-1.168-.226-2.252.022-3.398 1.2-5.533 2.354-11.078 3.548-16.612 2.796-12.97 5.603-25.941 8.399-38.911.503-2.337.978-4.677 1.486-7.006.161-.747.393-1.478.664-2.49zM359.517 135.29c-1.658 2.142-3.371 3.415-4.918 4.831-10.759 9.844-21.567 19.639-32.343 29.461-7.707 7.028-15.389 14.083-23.092 21.111-9.863 8.992-19.743 17.961-29.601 26.959-7.637 6.973-15.256 13.967-22.888 20.945-2.022 1.848-4.039 3.707-6.105 5.5-.653.564-1.421 1.09-2.227 1.378-9.56 3.431-19.136 6.812-28.712 10.198-.393.139-.812.189-1.254.283-.172-.986.452-1.428.85-1.948 2.951-3.862 5.924-7.714 8.891-11.56l37.399-48.524c10.471-13.585 20.948-27.158 31.391-40.766.857-1.118 1.813-1.754 3.216-2.064 6.813-1.5 13.599-3.11 20.39-4.692 10.753-2.502 21.507-5.019 32.26-7.52a4392 4392 0 0 1 14.969-3.459c.415-.094.857-.066 1.774-.127zM.232 137.985c1.193.238 2.399.432 3.581.714 11.61 2.734 23.213 5.49 34.829 8.229 9.974 2.352 19.942 4.703 29.927 6.988 1.47.338 2.504 1.019 3.443 2.203 8.117 10.27 16.284 20.496 24.44 30.733 10.748 13.492 21.49 26.982 32.238 40.473q10.743 13.491 21.472 26.993c.321.403.587.852 1.089 1.593-.818-.127-1.321-.122-1.763-.287-6.2-2.336-12.388-4.698-18.583-7.056-3.304-1.256-6.592-2.539-9.907-3.768-1.183-.437-2.177-1.084-3.122-1.926-7.465-6.635-14.975-13.219-22.457-19.832-10.593-9.369-21.17-18.759-31.762-28.122-8.145-7.199-16.318-14.371-24.468-21.57-6.758-5.97-13.494-11.963-20.247-17.934-5.824-5.151-11.664-10.292-17.489-15.449-.514-.454-.967-.969-1.453-1.45.077-.177.149-.349.227-.526zm159.186 117.943c-.707-.891-1.425-1.765-2.116-2.667-10.875-14.178-21.738-28.355-32.613-42.531-14.367-18.737-28.729-37.485-43.123-56.205-1.205-1.566-2.111-3.209-2.653-5.124-2.381-8.428-4.835-16.833-7.272-25.244q-4.717-16.31-9.443-32.62c-.613-2.126-1.232-4.25-1.829-6.376-.094-.326-.105-.674-.15-.973.598-.443.89-.011 1.155.266a467 467 0 0 1 4.538 4.836q12.282 13.204 24.572 26.412c.232.249.531.426.763.614.702-.232.502-.725.47-1.129-.293-3.171-.608-6.342-.907-9.512-.038-.426 0-.863 0-1.329.912-.127 1.349.498 1.824.952 2.89 2.734 5.752 5.501 8.62 8.257 1.083 1.04 2.105 2.152 3.249 3.126.951.808 1.332 1.754 1.453 2.971q.612 5.942 1.387 11.865c.149 1.123.42 2.274.862 3.314a6028 6028 0 0 0 14.085 32.631c4.167 9.568 8.411 19.103 12.605 28.654 5.227 11.897 10.493 23.782 15.649 35.714 2.84 6.573 5.498 13.224 8.2 19.859.525 1.289 1.044 2.612.68 4.239zm107.487-152.09c.017 4.532-1.072 8.416-.928 12.655.486-.266.823-.36 1.033-.581 5.134-5.49 10.25-10.99 15.373-16.49 4.338-4.66 8.67-9.325 13.018-13.978.52-.559 1.045-1.151 2.083-1.665-.187 1.001-.259 1.676-.447 2.323a7717 7717 0 0 1-5.73 19.888q-3.69 12.74-7.388 25.488c-1.845 6.374-3.73 12.733-5.509 19.124-.398 1.433-1.216 2.54-2.072 3.658-5.371 7.027-10.765 14.033-16.147 21.049-9.791 12.772-19.583 25.549-29.374 38.32a207782 207782 0 0 1-31.166 40.628c-.464.603-.983 1.167-1.475 1.743-.636-.465-.376-.897-.238-1.273 1.188-3.237 2.249-6.529 3.614-9.689 6.725-15.594 13.522-31.154 20.313-46.72 6.332-14.509 12.703-28.996 19.036-43.505 2.796-6.403 5.487-12.849 8.305-19.246.801-1.82 1.149-3.696 1.354-5.639.37-3.519.812-7.032 1.144-10.552.099-1.068.608-1.81 1.326-2.496 2.564-2.434 5.133-4.869 7.692-7.309 1.343-1.285 2.658-2.596 4.006-3.874.558-.532 1.171-.996 2.183-1.849zm-97.38 151.21c-.387-.764-.813-1.516-1.15-2.302-5.221-12.19-10.426-24.386-15.648-36.577-5.814-13.568-11.649-27.131-17.462-40.7-3.586-8.366-7.15-16.75-10.725-25.122-2.465-5.771-4.924-11.543-7.416-17.303-.635-1.472-1.077-2.972-1.249-4.577-.773-7.121-1.597-14.243-2.409-21.365q-1.128-9.893-2.266-19.776c-1.022-8.876-2.055-17.752-3.077-26.634-.354-3.077-.707-6.153-1.039-9.23-.034-.315.044-.642.071-.974.956-.055 1.084.68 1.382 1.157 2.52 4.056 5.017 8.123 7.504 12.201 6.404 10.492 12.781 20.995 19.213 31.47.989 1.61 1.697 3.275 2.083 5.118 1.432 6.84 2.895 13.674 4.343 20.508 2.404 11.333 4.797 22.665 7.2 33.998 1.929 9.086 3.863 18.172 5.786 27.259 2.321 10.989 4.609 21.979 6.941 32.968 2.646 12.462 5.321 24.913 7.979 37.369.166.769.265 1.55.397 2.324-.149.066-.303.127-.452.194zM250.599 50.66c-.216 2.108-.404 4.217-.647 6.319-.458 4.046-.961 8.085-1.42 12.13-.801 7.033-1.591 14.072-2.387 21.11l-2.553 22.433c-.625 5.457-1.221 10.913-1.901 16.358a12.7 12.7 0 0 1-.884 3.309c-2.487 5.959-5.034 11.892-7.57 17.829q-6.21 14.518-12.428 29.035-5.38 12.566-10.753 25.133a66774 66774 0 0 1-14.394 33.678 3956 3956 0 0 1-6.808 15.853 3.36 3.36 0 0 1-1.205 1.472c.028-.459 0-.929.089-1.372 2.083-9.784 4.199-19.555 6.277-29.339 3.028-14.282 6.006-28.576 9.035-42.852 2.458-11.599 4.973-23.191 7.437-34.79 1.951-9.175 3.852-18.36 5.802-27.535 1.42-6.668 2.895-13.319 4.31-19.987.244-1.151.686-2.17 1.294-3.166 8.316-13.579 16.615-27.17 24.921-40.76.828-1.361 1.635-2.733 2.48-4.084.216-.343.515-.63.78-.946q.267.091.525.183z"/></svg>