<svg xmlns="http://www.w3.org/2000/svg" fill="none" viewBox="0 0 187 256"><path fill="#CCE20C" d="M0 243.109v-18.653c0-7.129 5.798-12.891 12.9-12.891h9.936c7.133 0 12.899-5.795 12.899-12.892v-45.281c0-7.129 5.795-12.892 12.896-12.892h9.936c7.134 0 12.9-5.794 12.9-12.891 0-7.129-5.799-12.891-12.9-12.891h-9.936c-7.134 0-12.896-5.794-12.896-12.891V57.75c0-7.13-5.798-12.892-12.9-12.892H12.9c-7.134 0-12.9-5.794-12.9-12.89V12.89C0 5.761 5.798 0 12.9 0h17.883c7.134 0 12.9 5.794 12.9 12.891v9.538c0 7.13 5.795 12.891 12.896 12.891h9.545c7.134 0 12.897 5.795 12.897 12.892v44.89c0 7.13 5.798 12.892 12.899 12.892h2.77c7.133 0 12.899-5.795 12.899-12.891V48.212c0-7.13 5.798-12.892 12.899-12.892h9.543c7.134 0 12.899-5.794 12.899-12.891v-9.538c0-7.13 5.798-12.891 12.9-12.891h18.271C181.234 0 187 5.794 187 12.891v19.076c0 7.13-5.798 12.891-12.899 12.891h-10.324c-7.134 0-12.899 5.795-12.899 12.892v44.077c0 7.129-5.799 12.891-12.9 12.891h-9.936c-7.13 0-12.896 5.795-12.896 12.891 0 7.129 5.798 12.891 12.896 12.891h9.936c7.134 0 12.9 5.795 12.9 12.892v45.281c0 7.13 5.798 12.892 12.899 12.892h10.324c7.133 0 12.899 5.794 12.899 12.891v18.653c0 7.129-5.798 12.891-12.899 12.891H155.83c-7.134 0-12.9-5.794-12.9-12.891v-9.538c0-7.129-5.798-12.891-12.899-12.891h-9.543c-7.134 0-12.899-5.795-12.899-12.891v-44.892c0-7.129-5.798-12.891-12.9-12.891H91.92c-7.134 0-12.9 5.795-12.9 12.891v44.892c0 7.129-5.794 12.891-12.895 12.891h-9.546c-7.134 0-12.896 5.794-12.896 12.891v9.538c0 7.129-5.799 12.891-12.9 12.891H12.9C5.766 256 0 250.206 0 243.109"/></svg>
