<svg xmlns="http://www.w3.org/2000/svg" fill="none" viewBox="0 0 268 256"><path fill="#fff" fill-rule="evenodd" d="M268 128c0 70.935-60.245 128-134 128C62.221 256 3.228 201.726.119 133.445c0 0-.119-3.621-.119-5.445C0 57.065 60.245 0 134 0s134 57.065 134 128m-134.41 46.074c3.542-1.623 6.026-4.857 6.627-8.63.6-3.771-.761-7.587-3.633-10.181-6.497-5.87-11.506-11.762-12.937-17.188-1.324-5.015-1.743-10.609-1.131-16.592 1.675-.306 3.453-.638 5.321-.986 17.592-3.284 43.257-8.075 66.974-7.277 14.866.499 27.046 3.21 35.223 8.556 7.158 4.68 12.328 12.046 12.58 25.393-9.459 48.7-54.298 85.871-108.614 85.871-46.579 0-86.188-27.335-102.492-65.835 17.58 11.613 35.615 16.063 51.784 16.685 24.718.951 44.232-7.038 50.298-9.816M134 22.96C72.747 22.96 23.548 70.23 23.548 128q-.001.466.004.932c20.411 24.448 42.6 31.321 60.669 32.017 9.022.347 17.216-.849 23.845-2.432-3.115-4.342-5.788-9.281-7.224-14.721-2.879-10.909-2.81-22.683-.128-34.418 1.014-4.437 4.537-7.697 8.789-8.678.83-.337 1.713-.586 2.639-.733 2.496-.396 5.831-1.024 9.821-1.775 17.293-3.253 46.875-8.82 73.659-7.92 15.633.527 32.024 3.24 45.217 11.002C228.43 56.337 185.47 22.96 134 22.96" clip-rule="evenodd"/></svg>