<svg xmlns="http://www.w3.org/2000/svg" fill="none" viewBox="0 0 260 256"><path fill="#fff" d="M6.589.037C3.394.037.787 2.638.787 5.826v74.378c0 3.224 2.607 5.826 5.802 5.826h74.54c3.194 0 5.801-2.602 5.801-5.826V5.826c0-3.188-2.607-5.79-5.801-5.79zM81.129 256c3.194 0 5.801-2.601 5.801-5.789v-74.378c0-3.224-2.607-5.826-5.801-5.826H6.589c-3.195 0-5.802 2.602-5.802 5.826v74.378c0 3.188 2.607 5.789 5.802 5.789zm11.529-85.004h74.54c3.231 0 5.839-2.638 5.839-5.825V90.793c0-3.225-2.644-5.826-5.839-5.826h-74.54c-3.23 0-5.838 2.638-5.838 5.826v74.378c0 3.224 2.644 5.825 5.838 5.825M253.341 256c3.232 0 5.839-2.601 5.839-5.789v-74.378c0-3.224-2.644-5.826-5.839-5.826h-74.54c-3.194 0-5.801 2.602-5.801 5.826v74.378c0 3.188 2.607 5.789 5.801 5.789zm0-170.007a5.823 5.823 0 0 0 5.839-5.826V5.79c0-3.188-2.644-5.789-5.839-5.789h-74.54C175.607 0 173 2.601 173 5.789v74.378c0 3.224 2.607 5.826 5.801 5.826z"/></svg>
