<svg xmlns="http://www.w3.org/2000/svg" fill="none" viewBox="0 0 257 256"><path fill="#1DAE68" fill-rule="evenodd" d="M125.593 0H35.999a35.04 35.04 0 0 0-24.816 10.279C4.596 16.872.901 25.736.901 35.087V124.2a130.4 130.4 0 0 0 10.054 50.388 130.9 130.9 0 0 0 28.573 42.788 131 131 0 0 0 12.113 10.714 127 127 0 0 1-2.444-1.96v-94.944c0-26.38 7.31-47.275 21.671-62.26 14.44-14.987 33.761-22.601 57.476-22.601 25.131 0 44.994 7.37 59.049 21.971v.016c13.976 14.6 21.05 33.28 21.05 55.574 0 13.886-2.586 26.215-7.695 36.659-5.188 10.601-12.247 18.915-21.129 24.73a95.4 95.4 0 0 1-27.245 12.479c-9.574 2.672-19.698 4.008-30.074 4.008H89.796v47.024q-.602-.207-1.202-.419A131.2 131.2 0 0 0 132.825 256h89.028c4.63 0 9.189-.943 13.426-2.672a34.8 34.8 0 0 0 11.382-7.622 33.65 33.65 0 0 0 7.625-11.379c1.808-4.236 2.672-8.794 2.672-13.43v-89.569a131.2 131.2 0 0 0-38.477-92.862C193.838 13.815 160.47 0 125.593 0m29.839 151.83c-7.138 7.544-16.885 11.222-29.674 11.222H89.796v-33.123c0-13.658 3.459-24.809 10.368-32.973 6.745-8.016 15.863-11.93 27.874-11.93s21.829 3.459 28.345 10.523c6.674 7.222 9.904 16.259 9.904 27.708 0 11.458-3.631 20.966-10.855 28.573" clip-rule="evenodd"/><path fill="#fff" fill-rule="evenodd" d="M187.393 68.297c-14.055-14.601-33.918-21.972-59.049-21.972-23.715 0-43.036 7.614-57.476 22.6-14.36 14.986-21.671 35.881-21.671 62.261v94.944q1.21.996 2.444 1.96l.014.011a131.4 131.4 0 0 0 30.674 17.848q3.105 1.29 6.265 2.418.6.213 1.202.419v-47.024H122.3c10.376 0 20.5-1.336 30.074-4.008a95.4 95.4 0 0 0 27.245-12.479c8.882-5.815 15.941-14.129 21.129-24.73 5.109-10.444 7.695-22.773 7.695-36.659 0-22.294-7.074-40.973-21.05-55.574zm-61.635 94.755c12.789 0 22.536-3.678 29.674-11.222 7.224-7.607 10.855-17.115 10.855-28.573 0-11.449-3.23-20.486-9.904-27.708-6.516-7.065-16.334-10.522-28.345-10.522s-21.129 3.913-27.874 11.929c-6.909 8.164-10.368 19.315-10.368 32.973v33.123z" clip-rule="evenodd"/></svg>