<svg xmlns="http://www.w3.org/2000/svg" fill="none" viewBox="0 0 253 256"><path fill="#FEDC90" d="M10.375 156.8v18.4c0 39.2 51.877 71.2 115.726 71.2s116.524-32.8 116.524-72v-17.6c0 39.2-51.877 71.2-115.726 71.2S10.375 196 10.375 156.8"/><path fill="#633001" fill-rule="evenodd" d="M45.492 40C41.502 19.2 57.464 0 78.215 0c18.356 0 33.52 15.2 33.52 33.6v41.6c4.769-.8 8.801-1.04 14.42-1.022 5.308.017 8.617.222 13.514 1.022V33.6c0-18.4 15.164-33.6 33.52-33.6 20.751 0 36.713 19.2 33.521 40l-8.779 48.8C229.057 102.4 253 126.4 253 156v18.4c0 24.8-15.962 45.6-39.107 59.2C190.748 248 160.42 256 126.101 256s-64.647-8-87.792-22.4C15.962 220 0 199.2 0 174.4V156c0-29.6 23.145-53.6 54.271-67.2zm150.842-2.4L185.959 96c34.319 12.8 57.464 34.4 56.666 60.8v17.6c0 39.2-52.675 72-116.524 72s-115.726-32-115.726-71.2v-18.4c0-25.6 23.146-48 56.666-60.8L55.868 38.4c-3.193-14.4 7.98-28 22.347-28 12.77 0 23.145 10.4 23.145 23.2v52.8c7.981-.8 15.962-1.6 24.741-1.6 7.981 0 15.962.8 23.943 1.6V32.8c0-12.8 10.376-23.2 23.145-23.2 14.048 0 26.04 12.48 23.145 28" clip-rule="evenodd"/><path fill="#633001" d="M182.767 151.2c0 10.4-5.587 19.2-12.77 19.2s-12.77-8.8-12.77-19.2 5.587-19.2 12.77-19.2 12.77 8.8 12.77 19.2"/><path fill="#D2884F" fill-rule="evenodd" d="M126.899 228c-63.848 0-116.524-32-116.524-71.2 0-25.6 23.146-48 56.666-60.8L55.868 38.4c-3.193-14.4 7.98-28 22.347-28 12.77 0 23.145 10.4 23.145 23.2v52.8c7.981-.8 15.962-1.6 24.741-1.6 7.981 0 15.962.8 23.943 1.6V32.8c0-12.8 10.376-23.2 23.145-23.2 14.048 0 26.04 12.48 23.145 28L185.959 96c34.319 12.8 57.464 34.4 56.666 60.8 0 39.2-51.877 71.2-115.726 71.2m55.868-76.8c0 10.4-5.587 19.2-12.77 19.2s-12.77-8.8-12.77-19.2 5.587-19.2 12.77-19.2 12.77 8.8 12.77 19.2m-101.36 19.2c7.183 0 12.77-8.8 12.77-19.2S88.59 132 81.407 132s-12.77 8.8-12.77 19.2 5.587 19.2 12.77 19.2" clip-rule="evenodd"/><path fill="#633001" d="M94.177 151.2c0 10.4-5.587 19.2-12.77 19.2s-12.77-8.8-12.77-19.2 5.587-19.2 12.77-19.2 12.77 8.8 12.77 19.2"/></svg>
