<svg xmlns="http://www.w3.org/2000/svg" fill="none" viewBox="0 0 254 256"><path fill="#FEDC90" d="M10.394 156.8v18.4c0 39.2 51.97 71.2 115.935 71.2 63.964 0 116.734-32.8 116.734-72v-17.6c0 39.2-51.971 71.2-115.935 71.2S10.394 196 10.394 156.8"/><path fill="#633001" fill-rule="evenodd" d="M45.574 40C41.577 19.2 57.568 0 78.356 0c18.39 0 33.581 15.2 33.581 33.6v41.6c4.778-.8 8.817-1.04 14.446-1.022 5.317.017 8.633.222 13.538 1.022V33.6c0-18.4 15.191-33.6 33.581-33.6 20.788 0 36.779 19.2 33.581 40l-8.795 48.8c31.183 13.6 55.169 37.6 55.169 67.2v18.4c0 24.8-15.991 45.6-39.178 59.2-23.187 14.4-53.57 22.4-87.95 22.4s-64.764-8-87.95-22.4C15.99 220 0 199.2 0 174.4V156c0-29.6 23.187-53.6 54.37-67.2zm151.115-2.4L186.295 96c34.38 12.8 57.567 34.4 56.768 60.8v17.6c0 39.2-52.77 72-116.734 72s-115.935-32-115.935-71.2v-18.4c0-25.6 23.187-48 56.768-60.8L55.968 38.4c-3.198-14.4 7.996-28 22.388-28 12.793 0 23.187 10.4 23.187 23.2v52.8c7.995-.8 15.991-1.6 24.786-1.6 7.995 0 15.991.8 23.986 1.6V32.8c0-12.8 10.394-23.2 23.187-23.2 14.073 0 26.087 12.48 23.187 28" clip-rule="evenodd"/><path fill="#633001" d="M183.097 151.2c0 10.4-5.597 19.2-12.793 19.2s-12.793-8.8-12.793-19.2 5.597-19.2 12.793-19.2 12.793 8.8 12.793 19.2"/><path fill="#D2884F" fill-rule="evenodd" d="M127.128 228c-63.964 0-116.734-32-116.734-71.2 0-25.6 23.187-48 56.768-60.8L55.968 38.4c-3.198-14.4 7.996-28 22.388-28 12.793 0 23.187 10.4 23.187 23.2v52.8c7.995-.8 15.991-1.6 24.786-1.6 7.995 0 15.991.8 23.986 1.6V32.8c0-12.8 10.394-23.2 23.187-23.2 14.073 0 26.087 12.48 23.187 28L186.295 96c34.38 12.8 57.567 34.4 56.768 60.8 0 39.2-51.971 71.2-115.935 71.2m55.969-76.8c0 10.4-5.597 19.2-12.793 19.2s-12.793-8.8-12.793-19.2 5.597-19.2 12.793-19.2 12.793 8.8 12.793 19.2M81.554 170.4c7.196 0 12.793-8.8 12.793-19.2S88.75 132 81.554 132s-12.793 8.8-12.793 19.2 5.597 19.2 12.793 19.2" clip-rule="evenodd"/><path fill="#633001" d="M94.347 151.2c0 10.4-5.597 19.2-12.793 19.2s-12.793-8.8-12.793-19.2S74.358 132 81.554 132s12.793 8.8 12.793 19.2"/></svg>