<svg xmlns="http://www.w3.org/2000/svg" fill="none" viewBox="0 0 282 256"><path fill="#FFC800" d="M147.473 41.891 205.015.05l9.712 29.793-67.254 48.924v-36.88z"/><path fill="#FFC800" d="m157.956 86.806 71.673-52.138L218.342.03 256.236 0 282 79.058l-67.254 48.914zm-10.515 8.012 67.137 48.701-67.107 49.345zm.045 113.715 54.733-39.816 12.506 38.359L147.471 256zM134.53 41.891 76.988.05 67.27 29.843l67.26 48.924v-36.88z"/><path fill="#FFC800" d="m124.045 86.806-71.69-52.138L63.644.03 25.759 0 0 79.058l67.254 48.914zm10.514 8.012-67.152 48.701 67.122 49.345zm-.045 113.715-54.749-39.816-12.496 38.359L134.53 256z"/></svg>
