<svg width="282" height="256" viewBox="0 0 282 256" fill="none" xmlns="http://www.w3.org/2000/svg">
<path d="M147.264 41.8912L204.724 0.0495825L214.423 29.8429L147.264 78.7673V41.8861V41.8912Z" fill="#FFC800"/>
<path d="M157.731 86.8057L229.303 34.6675L218.032 0.0304635L255.873 0L281.6 79.0579L214.441 127.972L157.731 86.8057ZM147.232 94.8176L214.274 143.519L147.262 192.864L147.232 94.8176ZM147.277 208.533L201.933 168.717L214.421 207.076L147.262 256L147.277 208.533Z" fill="#FFC800"/>
<path d="M134.339 41.8912L76.8785 0.0495825L67.1749 29.8429L134.339 78.7673V41.8861V41.8912Z" fill="#FFC800"/>
<path d="M123.869 86.8057L52.2815 34.6675L63.5524 0.0304635L25.7223 0L0 79.0579L67.1589 127.972L123.869 86.8057ZM134.368 94.8176L67.3111 143.519L134.338 192.864L134.368 94.8176ZM134.323 208.533L79.6523 168.717L67.1741 207.076L134.338 256L134.323 208.533Z" fill="#FFC800"/>
</svg>
