<svg width="282" height="256" viewBox="0 0 282 256" fill="none" xmlns="http://www.w3.org/2000/svg">
<path d="M147.473 41.8912L205.015 0.0495825L214.727 29.8429L147.473 78.7673V41.8861V41.8912Z" fill="#FFC800"/>
<path d="M157.956 86.8057L229.629 34.6675L218.342 0.0304635L256.236 0L282 79.0579L214.746 127.972L157.956 86.8057ZM147.441 94.8176L214.578 143.519L147.471 192.864L147.441 94.8176ZM147.486 208.533L202.219 168.717L214.725 207.076L147.471 256L147.486 208.533Z" fill="#FFC800"/>
<path d="M134.53 41.8912L76.9877 0.0495825L67.2703 29.8429L134.53 78.7673V41.8861V41.8912Z" fill="#FFC800"/>
<path d="M124.045 86.8057L52.3557 34.6675L63.6427 0.0304635L25.7588 0L0 79.0579L67.2543 127.972L124.045 86.8057ZM134.559 94.8176L67.4067 143.519L134.529 192.864L134.559 94.8176ZM134.514 208.533L79.7654 168.717L67.2695 207.076L134.529 256L134.514 208.533Z" fill="#FFC800"/>
</svg>
