<svg xmlns="http://www.w3.org/2000/svg" fill="none" viewBox="0 0 282 256"><path fill="#FFC800" d="M147.264 41.891 204.724.05l9.699 29.793-67.159 48.924v-36.88z"/><path fill="#FFC800" d="m157.731 86.806 71.572-52.138L218.032.03 255.873 0 281.6 79.058l-67.159 48.914zm-10.499 8.012 67.042 48.701-67.012 49.345zm.045 113.715 54.656-39.816 12.488 38.359L147.262 256zM134.339 41.891 76.879.05l-9.704 29.793 67.164 48.924v-36.88z"/><path fill="#FFC800" d="M123.869 86.806 52.282 34.668 63.551.03 25.722 0 0 79.058l67.159 48.914zm10.499 8.012-67.057 48.701 67.027 49.345zm-.045 113.715-54.67-39.816-12.479 38.359L134.338 256z"/></svg>