<svg xmlns="http://www.w3.org/2000/svg" fill="none" viewBox="0 0 250 256"><path fill="#E81899" d="M181.185 54.326c-2.311-1.93-25.142-21.878-25.966-48.856 0 0 0-7.326-4.815-5.022-4.707 2.226-7.543 7.336-11.416 20.342-3.873 13.007 9.201 19.18 17.065 26.782 0 0-16.444-1.635-20.628-1.251-4.194.492-7.436 1.644-14.133 12.721 0 0-8.378 13.105-2.407 19.466.417.492 1.144.68 1.776.68a5.16 5.16 0 0 0 3.241-1.163s26.812-22.646 55.293-19.268c22.404 22.547 9.319 42.397-7.221 52.134-4.066 2.383-7.864 4.529-10.999 7.227-8.174 7.03-12.978 15.222-14.872 18.698-4.387 7.7-5.863 11.274-13.502 11.461-7.65.197-10.057-8.763-11.106-11.461-.941-2.698-5.435-26.22-7.329-31.222-1.99-5.021-3.98-7.71-9.843-5.405-5.863 2.215-13.288 8.96-13.288 8.96-22.629-5.879-37.383-1.832-37.383-1.832l-1.401-2.717c-1.648-2.659-6.463-14.819-14.316-7.208-7.853 7.621-14.23 30.356-14.23 30.356-10.795 47.507 14.23 80.078 14.23 80.078 42.304 60.612 119.477 49.338 136.649 42.977 15.503-5.681 51.837-23.601 67.437-62.542 1.679-4.233 3.145-8.664 4.29-13.489.428-1.831.845-3.662 1.059-5.494 15.385-74.002-47.964-107.046-66.292-114.952z"/><path fill="#fff" d="m133.581 145.043-26.873 7.42a2.1 2.1 0 0 0-1.228.964 1.84 1.84 0 0 0-.152 1.479c.16.492.521.908 1.008 1.159a2.3 2.3 0 0 0 1.601.186l26.873-7.419c.53-.163.97-.508 1.228-.964a1.84 1.84 0 0 0 .153-1.479 2.02 2.02 0 0 0-1.009-1.16 2.3 2.3 0 0 0-1.601-.186m2.811 22.653-27.738-3.868a2.3 2.3 0 0 0-1.595.364 1.96 1.96 0 0 0-.848 1.294 1.86 1.86 0 0 0 .395 1.468c.338.422.844.703 1.406.781l27.739 3.867a2.28 2.28 0 0 0 1.594-.363c.458-.311.763-.777.848-1.295a1.86 1.86 0 0 0-.395-1.467 2.18 2.18 0 0 0-1.406-.781M87.82 136.098c-1.942.003-3.803.713-5.178 1.977-1.374 1.263-2.149 2.976-2.154 4.764 0 3.66 3.345 6.74 7.332 6.74 1.936-.02 3.785-.737 5.153-1.997 1.369-1.259 2.147-2.962 2.17-4.743-.023-1.782-.801-3.484-2.17-4.744s-3.218-1.977-5.153-1.997m-30.036 6.731c-.009-1.785-.783-3.494-2.155-4.754-1.371-1.261-3.229-1.972-5.167-1.977-1.935.02-3.785.737-5.153 1.997s-2.147 2.962-2.17 4.744c0 3.66 3.346 6.74 7.323 6.74 1.937-.018 3.789-.733 5.16-1.993s2.15-2.964 2.172-4.747zm34.109 13.491c-1.25-.669-2.822-.197-3.56.964-2.715 4.429-5.547 6.456-8.68 5.688-4.179-.866-7.738-5.973-7.738-7.419v-.158a2.32 2.32 0 0 0-.767-1.705 2.74 2.74 0 0 0-1.852-.706 2.74 2.74 0 0 0-1.852.706 2.32 2.32 0 0 0-.767 1.705v.158c-.107 1.348-3.549 6.543-7.739 7.409-3.025.778-5.954-1.249-8.68-5.678a2.4 2.4 0 0 0-.639-.743 2.6 2.6 0 0 0-.907-.448 2.75 2.75 0 0 0-2.002.227c-1.261.669-1.785 2.116-1.048 3.267 4.073 6.751 8.68 8.384 12.133 8.384 1.047 0 1.988-.197 2.822-.384 3.559-.866 6.595-3.463 8.69-6.258 2.084 2.696 5.13 5.294 8.68 6.258.726.197 1.774.384 2.821.384 3.346 0 7.953-1.633 12.036-8.384h.107a2.3 2.3 0 0 0 .174-1.826 2.54 2.54 0 0 0-1.232-1.441"/><path fill="#E81899" d="m30.005 165.701-28.12 4.045a2.3 2.3 0 0 0-.814.259 2.1 2.1 0 0 0-.64.526 1.9 1.9 0 0 0-.368.713 1.8 1.8 0 0 0-.037.786c.045.262.147.513.3.739.152.225.352.421.588.575s.503.263.786.321c.283.059.575.065.86.019l28.132-4.046c.297-.025.586-.105.848-.236.262-.132.491-.31.674-.526a1.9 1.9 0 0 0 .39-.728c.074-.264.088-.54.04-.809a1.9 1.9 0 0 0-.314-.758 2.1 2.1 0 0 0-.619-.58 2.3 2.3 0 0 0-.82-.307 2.4 2.4 0 0 0-.886.007m1.632-11.478-27.304-7.335a2.37 2.37 0 0 0-1.66.165 2.04 2.04 0 0 0-1.046 1.19 1.84 1.84 0 0 0 .18 1.518c.278.464.746.808 1.302.957l27.304 7.334a2.36 2.36 0 0 0 1.66-.165 2.04 2.04 0 0 0 1.046-1.19 1.84 1.84 0 0 0-.18-1.518 2.15 2.15 0 0 0-1.302-.956"/></svg>
