<svg xmlns="http://www.w3.org/2000/svg" fill="none" viewBox="0 0 300 256"><path fill="#9863F0" d="M209.87 147.789c4.044 4.098 1.18 11.107-4.539 11.107h-79.153c13.261 26.868 20.353 56.735 20.353 87.344v2.999c0 6.011 7.17 9.022 11.364 4.771l139.457-141.364c5.657-5.735 1.65-15.542-6.351-15.542H173.822a195 195 0 0 0 36.048 50.685"/><path fill="#6518E6" d="M205.331 158.896c5.719 0 8.583-7.009 4.539-11.107a195 195 0 0 1-36.048-50.685H94.669c-5.72 0-8.583 7.009-4.539 11.108a195.1 195.1 0 0 1 36.048 50.684z"/><path fill="#6BECD4" d="M142.105 1.99 2.649 143.354c-5.658 5.735-1.651 15.542 6.35 15.542h117.179a195.1 195.1 0 0 0-36.048-50.684c-4.044-4.099-1.18-11.108 4.539-11.108h79.153C160.56 70.236 153.469 40.37 153.469 9.76V6.762c0-6.012-7.17-9.023-11.364-4.772"/></svg>
