<svg width="300" height="256" viewBox="0 0 300 256" fill="none" xmlns="http://www.w3.org/2000/svg">
<path d="M209.87 147.789C213.914 151.887 211.05 158.896 205.331 158.896H126.178C139.439 185.764 146.531 215.631 146.531 246.24V249.239C146.531 255.25 153.701 258.261 157.895 254.01L297.352 112.646C303.009 106.911 299.002 97.1041 291.001 97.1041H173.822C182.99 115.681 195.108 132.825 209.87 147.789Z" fill="#9863F0"/>
<path d="M205.331 158.896C211.05 158.896 213.914 151.887 209.87 147.789C195.108 132.825 182.99 115.681 173.822 97.1041H94.6686C88.9496 97.1041 86.0863 104.113 90.1301 108.212C104.892 123.176 117.009 140.319 126.178 158.896H205.331Z" fill="#6518E6"/>
<path d="M142.105 1.98999L2.64854 143.354C-3.00931 149.089 0.997822 158.896 8.99921 158.896H126.178C117.009 140.319 104.892 123.176 90.1301 108.212C86.0863 104.113 88.9496 97.1041 94.6686 97.1041H173.822C160.56 70.2355 153.469 40.3686 153.469 9.76046V6.76155C153.469 0.749704 146.299 -2.26105 142.105 1.98999Z" fill="#6BECD4"/>
</svg>
