<svg xmlns="http://www.w3.org/2000/svg" fill="none" viewBox="0 0 344 256"><path fill="#D54B4B" fill-rule="evenodd" d="m98.829 82.624 18.62 82.053c.008.028-.003.058-.011.086L95.185 191.39l-.011.086 8.852 64.452h29.842L120.491 45.68l-.021-.063-.045-.048-.062-.023-.066.005a.15.15 0 0 0-.075.064L98.851 82.516c-.022.043-.022.075-.022.108M83.404 255.928l-20.89-109.217c-.01-.03-.029-.045-.053-.065a.2.2 0 0 0-.062-.038.2.2 0 0 0-.072-.01.2.2 0 0 0-.07.021l-.027.019-.027.03-14.298 24.421-.019.038-.007.029a.2.2 0 0 0 .004.073l15.008 51.962q.015.05 0 .097L46.4 248.839v.107l1.959 6.982zm-83.306 0c-.118.162-.096 0-.096 0h20.706l-7.355-22a.16.16 0 0 0-.053-.075l-.06-.034-.069-.008-.066.019-.053.044zM244.314 82.623l-18.63 82.054h.022l-.006.045.006.041 22.242 26.626.011.02.008.026.002.021v.019l-8.852 64.453h-29.845l13.37-210.249.021-.066.048-.05.066-.022.069.01a.15.15 0 0 1 .075.064l21.361 36.9a.16.16 0 0 1 .032.108m15.414 173.305 20.89-109.218a.17.17 0 0 1 .134-.118.17.17 0 0 1 .093.009l.044.025.03.03 14.298 24.422a.2.2 0 0 1 .032.064v.076l-15.007 51.962-.007.044.001.026.006.027 16.491 25.551v.107l-1.962 6.993zm83.306 0c.119.162.097 0 .097 0h-20.706l7.354-22a.16.16 0 0 1 .043-.076l.06-.034.068-.008.066.02.053.044z" clip-rule="evenodd"/><path fill="#D54B4B" d="M163.942 255.928h18.599l8.246-242.512L186.01 4.2 183.744 0q-6.101.226-12.207.202Q165.46.226 159.385 0l-2.356 4.369-4.697 9.047 8.246 242.512zm32.681-103.229-9.883-14.368-4.008 117.597h6.688zm-40.233-14.372-9.893 14.376 7.208 103.225h6.693z"/></svg>