<svg xmlns="http://www.w3.org/2000/svg" fill="none" viewBox="0 0 343 256"><path fill="#D54B4B" fill-rule="evenodd" d="m98.79 82.624 18.613 82.053c.009.028-.002.058-.011.086L95.148 191.39l-.01.086 8.848 64.452h29.831L120.444 45.68l-.02-.063-.046-.048-.061-.023-.066.005a.15.15 0 0 0-.075.064L98.812 82.516c-.021.043-.021.075-.021.108M83.373 255.928 62.49 146.711c-.01-.03-.029-.045-.053-.065a.2.2 0 0 0-.062-.038.2.2 0 0 0-.072-.01.2.2 0 0 0-.07.021l-.027.019-.027.03-14.293 24.421-.018.038-.007.029a.2.2 0 0 0 .004.073l15.002 51.962q.015.049 0 .097l-16.485 25.551v.107l1.958 6.982zm-83.274 0c-.118.162-.096 0-.096 0H20.7l-7.352-22a.16.16 0 0 0-.054-.075l-.06-.034-.068-.008-.066.019-.053.044zM244.22 82.623l-18.623 82.054h.021l-.005.045.005.041 22.234 26.626.011.02.008.026.002.021.001.019-8.849 64.453h-29.834l13.365-210.249.021-.066.048-.05.066-.022.069.01a.15.15 0 0 1 .075.064l21.353 36.9a.16.16 0 0 1 .032.108m15.408 173.305L280.51 146.71a.17.17 0 0 1 .134-.118.16.16 0 0 1 .092.009l.045.025.03.03 14.292 24.422a.2.2 0 0 1 .032.064v.076l-15.001 51.962-.007.044.001.026.006.027 16.484 25.551v.107l-1.96 6.993zm83.274 0c.118.162.096 0 .096 0H322.3l7.352-22a.16.16 0 0 1 .043-.076l.06-.034.068-.008.066.02.053.044z" clip-rule="evenodd"/><path fill="#D54B4B" d="M163.878 255.928h18.592l8.243-242.512-4.775-9.215L183.673 0a296 296 0 0 1-12.202.202A296 296 0 0 1 159.324 0l-2.355 4.369-4.696 9.047 8.243 242.512zm32.669-103.229-9.879-14.368-4.007 117.597h6.686zm-40.218-14.372-9.888 14.376 7.205 103.225h6.69z"/></svg>