<svg xmlns="http://www.w3.org/2000/svg" fill="none" viewBox="0 0 302 256"><path fill="url(#paint0_linear_10243_837)" d="M74.967 118.361c11.64-21.384 34.102-34.72 58.521-34.72 58.816-6.194 114.664-5.984 167.796 0 0 46.202-37.597 83.641-83.972 83.641H48.358z"/><path fill="url(#paint1_linear_10243_837)" d="M68.904 129.211C84.166 101.106 113.68 83.62 145.74 83.62h61.616l-73.657 135.49C121.342 241.842 97.47 256 71.514 256H.004z"/><path fill="url(#paint2_linear_10243_837)" d="M137.656 211.609c-27.682-39.166-72.941-43.99-89.634-44.201h113.8s-16.251 29.77-24.166 44.201"/><path fill="url(#paint3_linear_10243_837)" d="M133.404 83.662c-24.461 0-46.965 13.336-58.585 34.762-12.988 23.955-26.46 48.837-26.46 48.837h113.526l47.954-88.192z"/><path fill="url(#paint4_linear_10243_837)" d="M74.967 48.92c11.64 21.385 34.102 34.72 58.521 34.72h167.796c0-46.18-37.597-83.64-83.972-83.64H48.358z"/><defs><linearGradient id="paint0_linear_10243_837" x1="19.037" x2="428.34" y1="127.962" y2="127.962" gradientUnits="userSpaceOnUse"><stop stop-color="#FF7028"/><stop offset="1" stop-color="#FFCD4D"/></linearGradient><linearGradient id="paint1_linear_10243_837" x1="321.44" x2="-67.194" y1="128" y2="128" gradientUnits="userSpaceOnUse"><stop stop-color="#FF7028"/><stop offset="1" stop-color="#FFCD4D"/></linearGradient><linearGradient id="paint2_linear_10243_837" x1="27.48" x2="227.274" y1="128" y2="128" gradientUnits="userSpaceOnUse"><stop stop-color="#C44100" stop-opacity=".3"/><stop offset="1" stop-color="#C84300" stop-opacity="0"/></linearGradient><linearGradient id="paint3_linear_10243_837" x1="761.98" x2="-55.634" y1="-135.828" y2="19.876" gradientUnits="userSpaceOnUse"><stop stop-color="#FF7028"/><stop offset="1" stop-color="#FFCD4D"/></linearGradient><linearGradient id="paint4_linear_10243_837" x1="343.553" x2="-92.114" y1="41.82" y2="41.82" gradientUnits="userSpaceOnUse"><stop stop-color="#FF7028"/><stop offset="1" stop-color="#FFCD4D"/></linearGradient></defs></svg>