<svg width="237" height="256" viewBox="0 0 237 256" fill="none" xmlns="http://www.w3.org/2000/svg">
<path d="M127.362 132.976C122.258 129.948 116.691 128.202 110.891 126.805C103.351 125.058 95.5797 124.243 87.924 124.709C82.4723 124.941 77.0205 125.757 72.0327 128.202C71.4528 128.435 70.8728 128.784 70.2928 129.25C66.233 131.928 65.537 135.654 68.5529 139.613C69.1329 140.428 69.8288 141.243 70.6408 142.175C67.9729 142.175 65.653 141.709 63.3331 141.243C57.0694 139.962 51.2697 137.866 46.1659 133.791C43.73 131.812 42.1061 130.414 40.4822 127.736C40.5251 127.671 40.569 127.607 40.6137 127.543C41.2763 126.598 42.1272 125.763 43.0775 125.215C43.1016 125.202 43.1258 125.188 43.15 125.174C45.122 124.359 46.5139 122.846 48.4858 121.914C57.3014 117.839 66.697 115.393 76.3245 114.462C80.1524 114.112 83.9802 113.763 87.924 113.88C99.2915 114.345 110.659 116.325 121.446 119.818C124.23 120.633 127.014 121.681 129.914 122.613C129.914 121.798 129.45 121.332 129.102 120.75C127.942 118.77 126.55 116.907 125.042 115.044C124.462 114.345 123.766 113.88 123.766 112.832C123.951 112.874 124.137 112.917 124.324 112.96C125.67 113.266 127.083 113.573 128.406 113.88C128.87 113.996 129.334 114.229 129.566 113.88C129.743 113.614 129.102 112.715 129.102 112.715C129.102 112.715 124.23 105.962 121.215 103.283L122.864 103.311C123.861 103.343 124.858 103.678 125.854 103.749C141.862 105.845 156.477 111.551 169.236 121.565C186.172 134.839 197.075 152.072 201.599 173.148C203.107 180.251 203.571 187.47 202.991 194.573C202.063 207.033 198.119 218.56 190.811 228.807C190.526 229.236 190.154 229.577 189.829 229.965C189.729 230.084 189.633 230.208 189.546 230.34C189.524 230.374 189.502 230.408 189.48 230.443C189.415 230.551 189.355 230.665 189.303 230.787C188.92 231.363 188.486 231.901 188.016 232.411C186.495 234.062 184.608 235.418 182.924 236.842C176.447 242.105 169.38 246.051 161.879 248.96C158.014 250.459 154.034 251.683 149.96 252.67C147.073 253.369 144.139 253.949 141.166 254.424C129.218 256.287 117.155 256.52 105.091 255.006C86.1841 252.678 68.2049 245.808 52.5456 235.095C48.7178 232.533 45.006 229.739 41.6421 226.595C41.5261 226.478 41.5261 226.362 41.6421 226.245C41.7293 226.216 41.8128 226.198 41.8931 226.189C42.4543 226.127 42.8602 226.522 43.266 226.828C51.2697 232.883 60.4333 237.307 70.0608 239.869C73.3087 240.684 76.5565 241.383 79.9204 241.849C80.6163 242.081 81.5443 241.965 82.2403 242.081C82.3563 242.081 82.5883 242.081 82.7043 242.198C90.2439 243.129 97.7836 242.547 105.207 241.266C121.562 238.355 136.062 231.485 148.473 220.423C156.941 212.971 163.669 204.005 167.148 193.06C170.744 182.114 170.164 171.518 165.177 160.922C164.133 165.696 161.697 169.538 158.565 173.148C155.433 176.641 151.837 179.669 147.777 181.881C147.313 182.114 146.733 182.696 146.269 182.231C145.805 181.881 146.037 181.183 146.269 180.833C147.313 177.573 147.893 174.196 148.241 170.819C149.633 156.497 144.181 145.319 132.814 136.935C130.958 135.538 128.986 134.257 126.898 133.209L127.362 132.976Z" fill="#262F71"/>
<path d="M80.2684 241.732C76.0925 241.266 71.9167 240.451 67.9729 239.17C60.4333 236.842 53.2416 233.465 46.5139 229.156C44.89 228.108 43.614 226.711 41.8741 225.896C40.9136 225.789 40.5422 224.893 39.8566 224.479C39.797 224.443 39.7351 224.41 39.6702 224.382C22.967 209.478 11.5995 191.197 5.10377 169.888C1.97191 159.525 0.231989 148.812 0 137.866C0 137.051 0.115995 136.236 0.115995 134.955C0.927958 136.818 1.50793 138.216 2.2039 139.613C8.23563 152.887 15.8913 164.881 26.4468 174.895C37.6983 185.491 50.8057 192.71 66.117 195.156C84.2122 198.067 101.031 194.923 116.575 185.142C124.346 180.251 130.61 173.963 134.322 165.463C138.73 155.1 137.106 145.435 130.262 136.469C129.682 135.654 128.986 134.955 128.406 134.14C129.218 133.442 129.682 134.257 130.146 134.606C134.206 137.983 137.338 142.175 139.426 146.949C141.514 151.607 142.558 156.497 142.674 161.504C142.79 166.627 141.63 171.751 139.426 176.409C139.89 176.409 140.354 176.292 140.702 175.943C142.906 174.662 144.877 173.265 146.733 171.634C147.313 171.169 147.893 170.354 148.821 170.47C148.357 174.313 147.429 178.272 146.269 181.998C148.705 180.6 151.141 178.97 153.461 177.224C155.201 175.826 156.709 174.08 158.449 172.566C159.145 172.915 159.145 173.614 159.377 174.313C162.277 184.676 160.189 194.34 155.085 203.423C148.937 214.485 139.774 222.752 129.218 229.389C120.635 234.746 111.355 238.588 101.379 240.801C95.2317 242.198 88.852 242.547 82.4723 241.965C81.6603 241.499 80.7324 241.965 80.0364 241.616L80.2684 241.732Z" fill="#4189C9"/>
<path d="M189.535 230.554C189.535 230.481 189.539 230.409 189.546 230.34C189.651 229.301 190.507 228.632 191.159 227.759C196.843 219.725 200.207 210.759 202.063 200.978C203.223 194.923 203.223 188.868 202.875 182.929C202.295 173.73 199.859 164.764 196.147 156.264C193.479 149.976 189.999 144.038 185.94 138.565C181.648 132.859 176.544 127.503 170.976 122.962C162.393 115.859 152.533 110.503 141.862 107.126C136.178 105.263 130.378 104.098 124.462 103.516C123.935 103.457 122.864 103.311 122.864 103.311L121.215 103.283C117.503 100.489 113.675 97.8107 109.267 95.8312V95.3654C110.775 95.3654 112.399 95.3654 113.907 95.3654C135.482 95.0161 155.549 100.256 172.948 113.53C191.043 127.27 202.295 145.319 206.471 167.675C210.066 186.772 207.283 204.82 196.727 221.238C194.735 224.461 192.637 227.471 189.829 229.965C189.694 230.085 189.558 230.204 189.419 230.321L189.48 230.443L189.535 230.554Z" fill="#161F42"/>
<path d="M173.18 24.6856C170.717 32.9946 168.018 39.21 164.133 44.9463C160.189 50.8848 155.433 56.1247 149.981 60.5495C149.633 60.7823 149.401 61.1317 149.053 61.3646C149.01 61.3862 148.967 61.4081 148.924 61.4303C147.122 62.3662 145.533 63.8368 143.833 64.9742C137.454 69.1661 130.61 72.7758 123.418 75.5704C123.302 75.5704 123.07 75.6868 122.838 75.6868C122.49 75.2211 122.838 75.1046 123.07 74.8717C127.13 71.0292 129.682 66.2551 131.306 60.8988C131.422 60.2001 132.002 59.6179 132.582 59.3851C145.225 54.3781 155.201 46.1107 163.437 35.3981C164.133 34.4666 164.945 33.4186 165.872 32.2542C163.321 32.2542 159.377 34.0009 159.377 34.0009C159.377 34.0009 158.374 33.6841 158.328 33.6543L158.327 33.6535C158.325 33.6522 158.324 33.6515 158.324 33.6515L157.926 33.9516C162.004 27.4616 173.237 9.58979 175.537 2.21538C175.769 1.51674 176.544 0 176.544 0C176.66 0 176.66 0.116441 176.66 0.232882C176.66 0.349323 176.66 0.349324 176.66 0.349324C176.544 8.50021 175.908 15.4815 173.18 24.6856Z" fill="#4189C9"/>
<path d="M124.324 112.96C124.216 112.839 124.434 113.079 124.324 112.96C126.738 115.663 128.834 118.682 130.61 121.914C130.726 122.263 131.19 122.613 130.842 122.962C130.494 123.195 130.146 122.846 129.798 122.729C121.446 119.585 112.747 117.256 103.931 115.626C99.5235 114.811 94.9997 114.462 90.4759 114.229C86.4161 113.996 82.3563 113.996 78.2965 114.345C69.0169 115.044 60.0853 117.023 51.5017 120.866C48.8338 122.03 46.1659 123.428 43.73 125.058C43.508 125.169 43.3922 125.494 43.0775 125.215C43.0634 125.203 43.049 125.189 43.0341 125.174C50.4577 119.935 58.4614 115.51 67.277 112.948C79.3404 109.338 91.6358 108.523 104.047 109.455C110.427 109.921 118.061 111.562 124.324 112.96Z" fill="#161F42"/>
<path d="M109.383 63.4605C107.991 68.7003 104.743 72.31 100.103 74.8717C97.2036 76.5019 93.9557 77.317 90.7079 78.2485C89.8959 75.9197 90.8239 73.9402 92.0998 72.1936C93.7237 70.0976 95.9277 68.8168 98.2476 67.7688C101.794 66.1611 105.453 64.7799 109.113 63.5136C109.165 63.4959 109.332 63.4782 109.383 63.4605Z" fill="#418AC9"/>
<path d="M52.7776 104.797C53.0096 105.496 52.1976 105.845 52.3136 106.427C51.8497 104.564 50.9217 103.866 48.9498 104.215C46.9779 104.681 45.122 105.729 43.73 107.242C43.4117 107.669 42.9962 107.997 42.5725 108.318C42.5331 108.347 42.4936 108.377 42.4541 108.407C42.1061 107.941 42.4541 107.592 42.5701 107.242C43.382 104.564 45.238 102.701 47.4419 101.071C47.9058 100.722 48.4858 100.489 49.1818 100.256C51.8497 99.6737 53.2416 100.955 52.8936 103.633C52.8936 103.982 52.8936 104.331 52.6616 104.681L52.7776 104.797Z" fill="#428AC9"/>
<path d="M52.7776 104.797C52.7776 104.729 52.7776 104.664 52.7776 104.6C52.7776 104.227 52.7776 103.914 52.7776 103.516C52.7776 100.838 51.2697 99.7902 48.7178 100.955C45.8179 102.235 43.962 104.681 42.6861 107.475C42.4962 107.475 42.3064 107.475 42.3072 107.284C42.3074 107.241 42.317 107.189 42.3381 107.126C43.266 103.749 45.006 100.955 47.9058 98.9751C48.6018 98.5093 49.5298 98.16 50.3417 98.0436C51.7337 97.8107 53.0096 98.6258 53.3576 99.9066C53.8016 101.467 53.6083 103.133 52.7776 104.6C52.7402 104.666 52.7016 104.732 52.6616 104.797L52.7776 104.797Z" fill="#182144"/>
<path d="M229.554 105.03C229.89 104.805 229.87 104.615 229.555 104.355C229.554 104.347 229.554 104.339 229.554 104.331L231.129 105.28L232.221 106.66C232.221 106.66 231.1 105.846 229.554 105.03Z" fill="white"/>
<path d="M39.7862 224.382C40.7142 224.499 41.1781 225.547 41.9901 225.896V226.245C41.9578 226.227 41.9254 226.208 41.8931 226.189C41.1462 225.752 40.4071 225.212 39.8566 224.479C39.8328 224.447 39.8093 224.415 39.7862 224.382Z" fill="#424A7F"/>
<path d="M236.397 164.997L236.977 165.347C236.988 165.398 236.994 165.449 236.997 165.501C237.032 166.033 236.715 166.573 236.397 167.21V164.997Z" fill="#8CB7DE"/>
<path d="M42.4541 107.126L42.8021 107.475C42.696 107.688 42.5899 107.999 42.5725 108.318C42.5709 108.347 42.5701 108.377 42.5701 108.407L41.8741 109.222C41.972 108.337 42.0699 107.785 42.3072 107.284C42.3511 107.191 42.3998 107.1 42.4541 107.01V107.126Z" fill="#4F668A"/>
<path d="M149.053 170.586C145.921 173.148 142.906 175.71 138.73 177.573C139.89 175.128 140.818 172.682 141.398 170.004C143.833 159.175 141.514 149.394 135.25 140.545C133.626 138.332 131.538 136.702 129.682 134.723C129.45 134.373 129.102 134.024 128.522 134.257C127.942 134.024 127.71 133.442 127.246 132.976C127.478 132.627 127.826 132.859 128.058 132.976C135.482 137.284 141.746 142.757 145.573 150.675C147.429 154.518 148.589 158.826 148.937 163.134C149.169 165.579 149.169 168.141 148.821 170.586H149.053Z" fill="#0E1F66"/>
<path d="M82.7043 242.081C92.7958 242.547 102.887 240.917 112.399 237.424C121.562 234.047 130.146 229.273 137.802 223.101C145.225 217.047 151.721 210.06 156.013 201.327C158.333 196.669 159.725 191.546 160.189 186.422C160.653 181.765 159.841 177.34 158.565 172.915C158.681 171.867 159.725 171.285 160.305 170.586C162.509 167.675 164.133 164.532 164.829 160.805C164.945 160.34 165.061 159.874 165.292 159.408C166.684 162.203 167.844 165.114 168.54 168.141C169.584 172.45 170.28 176.758 169.932 181.183C169.352 188.751 167.032 196.204 163.321 202.841C159.493 209.594 154.621 215.3 149.053 220.423C144.065 224.848 138.614 228.691 132.814 231.835C125.738 235.677 118.199 238.588 110.427 240.451C105.555 241.616 100.567 242.314 95.5797 242.664C93.1438 242.78 90.7079 243.013 88.388 242.896C86.6481 242.78 84.6762 242.896 82.8202 242.314L82.7043 242.081Z" fill="#0E1F66"/>
<path fill-rule="evenodd" clip-rule="evenodd" d="M128.406 113.88C128.87 113.996 129.334 114.229 129.566 113.88C129.743 113.614 129.102 112.715 129.102 112.715C129.102 112.715 124.23 105.962 121.215 103.283C117.503 100.489 113.675 97.8107 109.267 95.8312V95.3654H113.907C135.482 95.0161 155.549 100.256 172.948 113.53C191.043 127.27 202.295 145.319 206.471 167.675C210.066 186.772 207.283 204.82 196.727 221.238C194.735 224.461 192.637 227.471 189.829 229.965C189.729 230.084 189.633 230.208 189.546 230.34C189.539 230.409 189.535 230.481 189.535 230.554L189.48 230.443C189.415 230.551 189.355 230.665 189.303 230.787C188.92 231.363 188.486 231.901 188.016 232.411C186.495 234.062 184.608 235.418 182.924 236.842C176.447 242.105 169.38 246.051 161.879 248.96C172.275 245.115 181.995 239.888 190.811 233.496C212.821 217.538 229.198 194.319 236.397 167.21V164.997C235.817 153.12 232.917 141.593 227.814 130.88C224.45 123.894 220.274 117.373 215.286 111.551C210.762 106.194 205.659 101.653 200.207 97.3449C197.423 95.5983 194.755 93.6188 191.855 91.9886C182.692 86.6323 172.6 83.0226 162.045 81.276C161.813 81.1596 161.581 81.1596 161.349 81.0431C164.481 80.4609 175.268 82.0911 182.692 84.187C189.651 86.0501 196.263 88.7283 202.759 92.105C202.063 90.1255 200.368 87.3846 200.368 87.3846C200.368 87.3846 199.385 85.6615 198.931 84.8857C200.86 85.6615 202.1 86.5152 204.032 87.5493C213.036 92.1844 221.7 97.9882 229.555 104.355C229.554 104.347 229.554 104.339 229.554 104.331L231.129 105.28C226.289 98.9711 220.436 93.6789 214.242 88.7283C206.819 82.6733 198.815 77.5499 190.231 73.4744C178.284 67.5359 165.64 63.6934 152.417 62.0632C151.257 61.9468 149.981 62.0632 148.937 61.5974C148.929 61.5388 148.925 61.4832 148.924 61.4303C147.122 62.3662 145.533 63.8368 143.833 64.9742C137.454 69.1661 130.61 72.7758 123.418 75.5704C123.302 75.5704 123.07 75.6868 122.838 75.6868C122.49 75.2211 122.838 75.1046 123.07 74.8717C127.13 71.0292 129.682 66.2551 131.306 60.8988C131.422 60.2001 132.002 59.6179 132.582 59.3851C145.225 54.3781 155.201 46.1107 163.437 35.3981C164.133 34.4666 164.945 33.4186 165.872 32.2542C163.321 32.2542 159.377 34.0009 159.377 34.0009L157.59 34.7077C157.59 34.4615 157.926 33.9516 157.926 33.9516C158.082 33.9692 158.168 33.7685 158.324 33.6515L157.926 33.9516C173.772 14.8099 176.544 0 176.544 0C162.049 27.5692 145.341 39.4736 133.858 47.1587C132.118 37.9599 131.538 39.2407 128.522 32.72C128.522 33.4186 121.099 43.7819 111.819 49.604C102.423 55.5425 77.9485 59.3851 78.2964 73.2416C78.2964 79.5294 81.7763 82.0911 87.924 83.7213C80.1524 86.1665 78.0645 80.9267 77.2525 81.9746C74.0047 85.5843 61.7092 96.8791 54.8655 93.9681C49.9937 93.0366 51.9656 86.0501 52.6616 82.9062V82.7897C50.3417 83.4462 48.6424 84.8574 46.9575 86.1538C32.3718 97.3766 30.0426 113.064 33.8705 130.764C34.2184 132.394 34.6824 132.044 35.6104 131.346C37.2343 130.065 38.7422 128.551 40.4822 127.503C40.5271 127.514 40.5709 127.528 40.6137 127.543C41.2763 126.598 42.1272 125.763 43.0775 125.215C43.0634 125.203 43.049 125.189 43.0341 125.174C50.4577 119.935 58.4614 115.51 67.277 112.948C79.3404 109.338 91.6358 108.523 104.047 109.455C110.427 109.921 118.061 111.562 124.324 112.96C124.216 112.839 124.434 113.079 124.324 112.96C125.67 113.266 127.083 113.573 128.406 113.88ZM109.383 63.4605C112.631 61.8303 116.779 59.8154 119.483 57.3538C116.287 70.6462 108.339 76.9677 97.2036 78.0156L97.0383 78.0331C94.8951 78.2599 92.8566 78.4756 90.7079 78.2485C89.8959 75.9197 90.8239 73.9402 92.0998 72.1936C93.7237 70.0976 95.9277 68.8168 98.2476 67.7688C101.794 66.1611 105.453 64.7799 109.113 63.5136L109.383 63.4605ZM52.7776 104.797C53.0096 105.496 52.1976 105.845 52.3136 106.427C51.8497 104.564 50.9217 103.866 48.9498 104.215C46.9779 104.681 45.122 105.729 43.73 107.242C43.4117 107.669 42.9962 107.997 42.5725 108.318C42.5709 108.347 42.5701 108.377 42.5701 108.407L41.8741 109.222C41.972 108.337 42.0699 107.785 42.3072 107.284C42.3074 107.241 42.317 107.189 42.3381 107.126C43.266 103.749 45.006 100.955 47.9058 98.9751C48.6018 98.5093 49.5298 98.16 50.3417 98.0436C51.7337 97.8107 53.0096 98.6258 53.3576 99.9066C53.8016 101.467 53.6083 103.133 52.7776 104.6V104.797Z" fill="white"/>
<path d="M157.59 34.7077L159.377 34.0009C159.377 34.0009 158.374 33.6841 158.328 33.6543C158.326 33.6555 158.326 33.6548 158.327 33.6535C158.325 33.6522 158.324 33.6515 158.324 33.6515L157.926 33.9516C157.926 33.9516 157.59 34.4615 157.59 34.7077Z" fill="#4189C9"/>
<path d="M206.587 98.0436C214.59 99.3244 222.246 101.537 229.554 105.03C229.89 104.805 229.87 104.615 229.555 104.355C221.7 97.9882 213.036 92.1844 204.032 87.5493C202.1 86.5152 200.86 85.6615 198.931 84.8857C199.385 85.6615 200.368 87.3846 200.368 87.3846C200.368 87.3846 202.063 90.1255 202.759 92.105C196.263 88.7283 189.651 86.0501 182.692 84.187C175.268 82.0911 164.481 80.4609 161.349 81.0431C161.581 81.1596 161.813 81.1596 162.045 81.276C172.6 83.0226 182.692 86.6323 191.855 91.9886C194.755 93.6188 197.423 95.5983 200.207 97.3449C202.251 97.3639 204.429 97.7016 206.587 98.0436Z" fill="#4189C9"/>
</svg>
