<svg width="238" height="256" viewBox="0 0 238 256" fill="none" xmlns="http://www.w3.org/2000/svg">
<path d="M127.519 132.976C122.409 129.948 116.835 128.202 111.028 126.805C103.479 125.058 95.6976 124.243 88.0325 124.709C82.574 124.941 77.1155 125.757 72.1216 128.202C71.5409 128.435 70.9602 128.784 70.3795 129.25C66.3147 131.928 65.6179 135.654 68.6375 139.613C69.2181 140.428 69.915 141.243 70.7279 142.175C68.0568 142.175 65.734 141.709 63.4112 141.243C57.1398 139.962 51.3329 137.866 46.2229 133.791C43.784 131.812 42.158 130.414 40.5321 127.736C40.5751 127.671 40.619 127.607 40.6638 127.543C41.3272 126.598 42.1792 125.763 43.1306 125.215C43.1548 125.202 43.179 125.188 43.2033 125.174C45.1776 124.359 46.5713 122.846 48.5456 121.914C57.3721 117.839 66.7792 115.393 76.4187 114.462C80.2512 114.112 84.0838 113.763 88.0325 113.88C99.414 114.345 110.795 116.325 121.596 119.818C124.384 120.633 127.171 121.681 130.074 122.613C130.074 121.798 129.61 121.332 129.261 120.75C128.1 118.77 126.706 116.907 125.197 115.044C124.616 114.345 123.919 113.88 123.919 112.832C124.104 112.874 124.29 112.917 124.478 112.96C125.825 113.266 127.239 113.573 128.565 113.88C129.029 113.996 129.494 114.229 129.726 113.88C129.903 113.614 129.261 112.715 129.261 112.715C129.261 112.715 124.384 105.962 121.364 103.283L123.016 103.311C124.014 103.343 125.012 103.678 126.01 103.749C142.037 105.845 156.67 111.551 169.445 121.565C186.401 134.839 197.318 152.072 201.847 173.148C203.357 180.251 203.822 187.47 203.241 194.573C202.312 207.033 198.363 218.56 191.047 228.807C190.761 229.236 190.389 229.577 190.063 229.965C189.963 230.084 189.867 230.208 189.78 230.34C189.757 230.374 189.735 230.408 189.714 230.443C189.649 230.551 189.589 230.665 189.537 230.787C189.153 231.363 188.718 231.901 188.248 232.411C186.725 234.062 184.836 235.418 183.149 236.842C176.665 242.105 169.589 246.051 162.079 248.96C158.209 250.459 154.224 251.683 150.145 252.67C147.255 253.369 144.317 253.949 141.34 254.424C129.378 256.287 117.299 256.52 105.221 255.006C86.2904 252.678 68.289 245.808 52.6104 235.095C48.7779 232.533 45.0615 229.739 41.6935 226.595C41.5773 226.478 41.5773 226.362 41.6935 226.245C41.7807 226.216 41.8643 226.198 41.9448 226.189C42.5066 226.127 42.913 226.522 43.3194 226.828C51.3329 232.883 60.5078 237.307 70.1472 239.869C73.3991 240.684 76.6509 241.383 80.0189 241.849C80.7158 242.081 81.6449 241.965 82.3417 242.081C82.4579 242.081 82.6901 242.081 82.8063 242.198C90.3552 243.129 97.9042 242.547 105.337 241.266C121.712 238.355 136.23 231.485 148.656 220.423C157.134 212.971 163.87 204.005 167.355 193.06C170.955 182.114 170.374 171.518 165.38 160.922C164.335 165.696 161.896 169.538 158.76 173.148C155.625 176.641 152.024 179.669 147.96 181.881C147.495 182.114 146.914 182.696 146.45 182.231C145.985 181.881 146.217 181.183 146.45 180.833C147.495 177.573 148.076 174.196 148.424 170.819C149.818 156.497 144.359 145.319 132.978 136.935C131.12 135.538 129.145 134.257 127.055 133.209L127.519 132.976Z" fill="#262F71"/>
<path d="M80.3674 241.732C76.1864 241.266 72.0054 240.451 68.0568 239.17C60.5078 236.842 53.3073 233.465 46.5713 229.156C44.9453 228.108 43.6678 226.711 41.9257 225.896C40.9641 225.789 40.5922 224.893 39.9058 224.479C39.8461 224.443 39.7841 224.41 39.7191 224.382C22.9953 209.478 11.6138 191.197 5.11006 169.888C1.97434 159.525 0.232276 148.812 0 137.866C0 137.051 0.116138 136.236 0.116138 134.955C0.929102 136.818 1.50979 138.216 2.20662 139.613C8.24578 152.887 15.9109 164.881 26.4794 174.895C37.7448 185.491 50.8684 192.71 66.1985 195.156C84.316 198.067 101.156 194.923 116.718 185.142C124.5 180.251 130.771 173.963 134.488 165.463C138.901 155.1 137.275 145.435 130.423 136.469C129.842 135.654 129.145 134.955 128.565 134.14C129.378 133.442 129.842 134.257 130.307 134.606C134.371 137.983 137.507 142.175 139.598 146.949C141.688 151.607 142.733 156.497 142.85 161.504C142.966 166.627 141.804 171.751 139.598 176.409C140.062 176.409 140.527 176.292 140.875 175.943C143.082 174.662 145.056 173.265 146.914 171.634C147.495 171.169 148.076 170.354 149.005 170.47C148.54 174.313 147.611 178.272 146.45 181.998C148.889 180.6 151.328 178.97 153.65 177.224C155.392 175.826 156.902 174.08 158.644 172.566C159.341 172.915 159.341 173.614 159.573 174.313C162.477 184.676 160.386 194.34 155.276 203.423C149.121 214.485 139.946 222.752 129.378 229.389C120.783 234.746 111.492 238.588 101.504 240.801C95.3491 242.198 88.9616 242.547 82.574 241.965C81.761 241.499 80.8319 241.965 80.1351 241.616L80.3674 241.732Z" fill="#4189C9"/>
<path d="M189.769 230.554C189.769 230.481 189.773 230.409 189.78 230.34C189.885 229.301 190.742 228.632 191.395 227.759C197.086 219.725 200.454 210.759 202.312 200.978C203.473 194.923 203.473 188.868 203.125 182.929C202.544 173.73 200.105 164.764 196.389 156.264C193.718 149.976 190.234 144.038 186.169 138.565C181.872 132.859 176.762 127.503 171.187 122.962C162.593 115.859 152.721 110.503 142.037 107.126C136.346 105.263 130.539 104.098 124.616 103.516C124.087 103.457 123.016 103.311 123.016 103.311L121.364 103.283C117.648 100.489 113.815 97.8107 109.402 95.8312V95.3654C110.912 95.3654 112.538 95.3654 114.047 95.3654C135.649 95.0161 155.741 100.256 173.161 113.53C191.279 127.27 202.544 145.319 206.725 167.675C210.326 186.772 207.538 204.82 196.97 221.238C194.975 224.461 192.874 227.471 190.063 229.965C189.928 230.085 189.791 230.204 189.653 230.321L189.714 230.443L189.769 230.554Z" fill="#161F42"/>
<path d="M173.394 24.6856C170.928 32.9946 168.226 39.21 164.335 44.9463C160.386 50.8848 155.625 56.1247 150.166 60.5495C149.818 60.7823 149.586 61.1317 149.237 61.3646C149.194 61.3862 149.151 61.4081 149.108 61.4303C147.303 62.3662 145.713 63.8368 144.011 64.9742C137.623 69.1661 130.771 72.7758 123.571 75.5704C123.454 75.5704 123.222 75.6868 122.99 75.6868C122.642 75.2211 122.99 75.1046 123.222 74.8717C127.287 71.0292 129.842 66.2551 131.468 60.8988C131.584 60.2001 132.165 59.6179 132.746 59.3851C145.405 54.3781 155.392 46.1107 163.638 35.3981C164.335 34.4666 165.148 33.4186 166.077 32.2542C163.522 32.2542 159.573 34.0009 159.573 34.0009C159.573 34.0009 158.569 33.6841 158.524 33.6544L158.522 33.6535C158.52 33.6522 158.519 33.6515 158.519 33.6515L158.121 33.9516C162.204 27.4616 173.451 9.58979 175.754 2.21538C175.986 1.51674 176.762 0 176.762 0C176.878 0 176.878 0.116441 176.878 0.232882C176.878 0.349323 176.878 0.349324 176.878 0.349324C176.762 8.50021 176.125 15.4815 173.394 24.6856Z" fill="#4189C9"/>
<path d="M124.478 112.96C124.37 112.839 124.587 113.079 124.478 112.96C126.895 115.663 128.993 118.682 130.771 121.914C130.887 122.263 131.352 122.613 131.003 122.962C130.655 123.195 130.307 122.846 129.958 122.729C121.596 119.585 112.886 117.256 104.059 115.626C99.6462 114.811 95.1169 114.462 90.5875 114.229C86.5227 113.996 82.4579 113.996 78.393 114.345C69.102 115.044 60.1594 117.023 51.5652 120.866C48.894 122.03 46.2229 123.428 43.784 125.058C43.5616 125.169 43.4457 125.494 43.1306 125.215C43.1165 125.203 43.102 125.189 43.0871 125.174C50.5199 119.935 58.5335 115.51 67.3599 112.948C79.4383 109.338 91.7489 108.523 104.176 109.455C110.563 109.921 118.206 111.562 124.478 112.96Z" fill="#161F42"/>
<path d="M109.518 63.4605C108.124 68.7003 104.872 72.31 100.227 74.8717C97.3235 76.5019 94.0716 77.317 90.8198 78.2485C90.0068 75.9197 90.9359 73.9402 92.2134 72.1936C93.8393 70.0976 96.046 68.8168 98.3687 67.7688C101.919 66.1611 105.583 64.7799 109.248 63.5136C109.299 63.4959 109.467 63.4782 109.518 63.4605Z" fill="#418AC9"/>
<path d="M52.8427 104.797C53.075 105.496 52.262 105.845 52.3782 106.427C51.9136 104.564 50.9845 103.866 49.0102 104.215C47.0358 104.681 45.1776 105.729 43.784 107.242C43.4652 107.669 43.0493 107.997 42.625 108.318C42.5856 108.347 42.546 108.377 42.5064 108.407C42.158 107.941 42.5064 107.592 42.6226 107.242C43.4355 104.564 45.2938 102.701 47.5004 101.071C47.9649 100.722 48.5456 100.489 49.2424 100.256C51.9136 99.6737 53.3073 100.955 52.9588 103.633C52.9588 103.982 52.9589 104.331 52.7266 104.681L52.8427 104.797Z" fill="#428AC9"/>
<path d="M52.8427 104.797C52.8427 104.729 52.8427 104.664 52.8427 104.6C52.8427 104.227 52.8427 103.914 52.8427 103.516C52.8427 100.838 51.3329 99.7902 48.7779 100.955C45.8744 102.235 44.0162 104.681 42.7387 107.475C42.5486 107.475 42.3586 107.475 42.3594 107.284C42.3596 107.241 42.3692 107.189 42.3903 107.126C43.3194 103.749 45.0615 100.955 47.9649 98.9751C48.6617 98.5093 49.5908 98.16 50.4038 98.0436C51.7975 97.8107 53.075 98.6258 53.4234 99.9066C53.8679 101.467 53.6744 103.133 52.8427 104.6C52.8053 104.666 52.7666 104.732 52.7266 104.797L52.8427 104.797Z" fill="#182144"/>
<path d="M229.837 105.03C230.174 104.805 230.154 104.615 229.838 104.355C229.837 104.347 229.837 104.339 229.837 104.331L231.414 105.28L232.508 106.66C232.508 106.66 231.385 105.846 229.837 105.03Z" fill="white"/>
<path d="M39.8353 224.382C40.7644 224.499 41.2289 225.547 42.0419 225.896V226.245C42.0095 226.227 41.9771 226.208 41.9448 226.189C41.1969 225.752 40.4569 225.212 39.9058 224.479C39.8819 224.447 39.8584 224.415 39.8353 224.382Z" fill="#424A7F"/>
<path d="M236.689 164.997L237.27 165.347C237.28 165.398 237.286 165.449 237.29 165.501C237.324 166.033 237.006 166.573 236.689 167.21V164.997Z" fill="#8CB7DE"/>
<path d="M42.5064 107.126L42.8548 107.475C42.7486 107.688 42.6424 107.999 42.625 108.318C42.6234 108.347 42.6226 108.377 42.6226 108.407L41.9257 109.222C42.0238 108.337 42.1218 107.785 42.3594 107.284C42.4033 107.191 42.4521 107.1 42.5064 107.01V107.126Z" fill="#4F668A"/>
<path d="M149.237 170.586C146.101 173.148 143.082 175.71 138.901 177.573C140.062 175.128 140.991 172.682 141.572 170.004C144.011 159.175 141.688 149.394 135.417 140.545C133.791 138.332 131.7 136.702 129.842 134.723C129.61 134.373 129.261 134.024 128.681 134.257C128.1 134.024 127.868 133.442 127.403 132.976C127.635 132.627 127.984 132.859 128.216 132.976C135.649 137.284 141.92 142.757 145.753 150.675C147.611 154.518 148.773 158.826 149.121 163.134C149.353 165.579 149.353 168.141 149.005 170.586H149.237Z" fill="#0E1F66"/>
<path d="M82.8063 242.081C92.9102 242.547 103.014 240.917 112.538 237.424C121.712 234.047 130.307 229.273 137.972 223.101C145.405 217.047 151.908 210.06 156.205 201.327C158.528 196.669 159.922 191.546 160.386 186.422C160.851 181.765 160.038 177.34 158.76 172.915C158.877 171.867 159.922 171.285 160.502 170.586C162.709 167.675 164.335 164.532 165.032 160.805C165.148 160.34 165.264 159.874 165.496 159.408C166.89 162.203 168.051 165.114 168.748 168.141C169.793 172.45 170.49 176.758 170.142 181.183C169.561 188.751 167.238 196.204 163.522 202.841C159.689 209.594 154.812 215.3 149.237 220.423C144.243 224.848 138.785 228.691 132.978 231.835C125.893 235.677 118.344 238.588 110.563 240.451C105.685 241.616 100.691 242.314 95.6976 242.664C93.2587 242.78 90.8198 243.013 88.497 242.896C86.7549 242.78 84.7806 242.896 82.9224 242.314L82.8063 242.081Z" fill="#0E1F66"/>
<path fill-rule="evenodd" clip-rule="evenodd" d="M128.565 113.88C129.029 113.996 129.494 114.229 129.726 113.88C129.903 113.614 129.261 112.715 129.261 112.715C129.261 112.715 124.384 105.962 121.364 103.283C117.648 100.489 113.815 97.8107 109.402 95.8312V95.3654H114.047C135.649 95.0161 155.741 100.256 173.161 113.53C191.279 127.27 202.544 145.319 206.725 167.675C210.326 186.772 207.538 204.82 196.97 221.238C194.975 224.461 192.874 227.471 190.063 229.965C189.963 230.084 189.867 230.208 189.78 230.34C189.773 230.409 189.769 230.481 189.769 230.554L189.714 230.443C189.649 230.551 189.589 230.665 189.537 230.787C189.153 231.363 188.718 231.901 188.248 232.411C186.725 234.062 184.836 235.418 183.149 236.842C176.665 242.105 169.589 246.051 162.079 248.96C172.488 245.115 182.22 239.888 191.047 233.496C213.084 217.538 229.48 194.319 236.689 167.21V164.997C236.108 153.12 233.205 141.593 228.095 130.88C224.727 123.894 220.546 117.373 215.552 111.551C211.022 106.194 205.912 101.653 200.454 97.3449C197.667 95.5983 194.995 93.6188 192.092 91.9886C182.917 86.6323 172.813 83.0226 162.245 81.276C162.012 81.1596 161.78 81.1596 161.548 81.0431C164.683 80.4609 175.484 82.0911 182.917 84.187C189.885 86.0501 196.505 88.7282 203.009 92.105C202.312 90.1255 200.615 87.3846 200.615 87.3846C200.615 87.3846 199.631 85.6615 199.176 84.8857C201.108 85.6615 202.349 86.5152 204.284 87.5493C213.298 92.1844 221.973 97.9882 229.838 104.355C229.837 104.347 229.837 104.339 229.837 104.331L231.414 105.28C226.568 98.9711 220.707 93.6789 214.507 88.7283C207.074 82.6733 199.06 77.5499 190.466 73.4744C178.504 67.5359 165.845 63.6934 152.605 62.0632C151.444 61.9468 150.166 62.0632 149.121 61.5974C149.113 61.5388 149.108 61.4832 149.108 61.4303C147.303 62.3662 145.713 63.8368 144.011 64.9742C137.623 69.1661 130.771 72.7758 123.571 75.5704C123.454 75.5704 123.222 75.6868 122.99 75.6868C122.642 75.2211 122.99 75.1046 123.222 74.8717C127.287 71.0292 129.842 66.2551 131.468 60.8988C131.584 60.2001 132.165 59.6179 132.746 59.3851C145.405 54.3781 155.392 46.1107 163.638 35.3981C164.335 34.4666 165.148 33.4186 166.077 32.2542C163.522 32.2542 159.573 34.0009 159.573 34.0009L157.785 34.7077C157.785 34.4615 158.121 33.9516 158.121 33.9516C158.277 33.9692 158.363 33.7685 158.519 33.6515L158.121 33.9516C173.986 14.8099 176.762 0 176.762 0C162.249 27.5692 145.521 39.4736 134.023 47.1587C132.281 37.9599 131.7 39.2407 128.681 32.72C128.681 33.4186 121.248 43.7819 111.957 49.604C102.55 55.5425 78.0446 59.3851 78.393 73.2416C78.393 79.5294 81.8772 82.0911 88.0325 83.7213C80.2512 86.1665 78.1608 80.9267 77.3478 81.9746C74.0959 85.5843 61.7853 96.8791 54.9332 93.9681C50.0554 93.0366 52.0297 86.0501 52.7266 82.9062V82.7897C50.4038 83.4462 48.7024 84.8574 47.0154 86.1538C32.4117 97.3766 30.0797 113.064 33.9122 130.764C34.2607 132.394 34.7252 132.044 35.6543 131.346C37.2802 130.065 38.79 128.551 40.5321 127.503C40.5771 127.514 40.621 127.528 40.6638 127.543C41.3272 126.598 42.1792 125.763 43.1306 125.215C43.1165 125.203 43.102 125.189 43.0871 125.174C50.5199 119.935 58.5335 115.51 67.3599 112.948C79.4383 109.338 91.7489 108.523 104.176 109.455C110.563 109.921 118.206 111.562 124.478 112.96C124.37 112.839 124.587 113.079 124.478 112.96C125.825 113.266 127.239 113.573 128.565 113.88ZM109.518 63.4605C112.77 61.8303 116.923 59.8154 119.631 57.3538C116.431 70.6462 108.473 76.9677 97.3235 78.0156L97.158 78.0331C95.0122 78.2599 92.9712 78.4756 90.8198 78.2485C90.0068 75.9197 90.9359 73.9402 92.2134 72.1936C93.8393 70.0976 96.046 68.8168 98.3687 67.7688C101.919 66.1611 105.583 64.7799 109.248 63.5136L109.518 63.4605ZM52.8427 104.797C53.075 105.496 52.262 105.845 52.3782 106.427C51.9136 104.564 50.9845 103.866 49.0102 104.215C47.0358 104.681 45.1776 105.729 43.784 107.242C43.4652 107.669 43.0493 107.997 42.625 108.318C42.6234 108.347 42.6226 108.377 42.6226 108.407L41.9257 109.222C42.0238 108.337 42.1218 107.785 42.3594 107.284C42.3596 107.241 42.3692 107.189 42.3903 107.126C43.3194 103.749 45.0615 100.955 47.9649 98.9751C48.6617 98.5093 49.5908 98.16 50.4038 98.0436C51.7975 97.8107 53.075 98.6258 53.4234 99.9066C53.8679 101.467 53.6744 103.133 52.8427 104.6V104.797Z" fill="white"/>
<path d="M157.785 34.7077L159.573 34.0009C159.573 34.0009 158.569 33.6841 158.524 33.6544C158.521 33.6555 158.521 33.6548 158.522 33.6535C158.52 33.6522 158.519 33.6515 158.519 33.6515L158.121 33.9516C158.121 33.9516 157.785 34.4615 157.785 34.7077Z" fill="#4189C9"/>
<path d="M206.841 98.0436C214.855 99.3244 222.52 101.537 229.837 105.03C230.174 104.805 230.154 104.615 229.838 104.355C221.973 97.9882 213.298 92.1844 204.284 87.5493C202.349 86.5152 201.108 85.6615 199.176 84.8857C199.631 85.6615 200.615 87.3846 200.615 87.3846C200.615 87.3846 202.312 90.1255 203.009 92.105C196.505 88.7282 189.885 86.0501 182.917 84.187C175.484 82.0911 164.683 80.4609 161.548 81.0431C161.78 81.1596 162.012 81.1596 162.245 81.276C172.813 83.0226 182.917 86.6323 192.092 91.9886C194.995 93.6188 197.667 95.5983 200.454 97.3449C202.5 97.3639 204.681 97.7016 206.841 98.0436Z" fill="#4189C9"/>
</svg>
