<svg xmlns="http://www.w3.org/2000/svg" fill="none" viewBox="0 0 238 256"><path fill="#262F71" d="M127.519 132.976c-5.11-3.028-10.684-4.774-16.491-6.171-7.549-1.747-15.33-2.562-22.996-2.096-5.458.232-10.916 1.048-15.91 3.493q-.871.35-1.743 1.048c-4.064 2.678-4.761 6.404-1.742 10.363.581.815 1.278 1.63 2.09 2.562-2.67 0-4.993-.466-7.316-.932-6.271-1.281-12.078-3.377-17.188-7.452-2.439-1.979-4.065-3.377-5.69-6.055q.063-.097.13-.193c.664-.945 1.516-1.78 2.468-2.328l.072-.041c1.975-.815 3.368-2.328 5.343-3.26 8.826-4.075 18.233-6.521 27.873-7.452 3.832-.35 7.665-.699 11.614-.582 11.381.465 22.762 2.445 33.563 5.938 2.788.815 5.575 1.863 8.478 2.795 0-.815-.464-1.281-.813-1.863-1.161-1.98-2.555-3.843-4.064-5.706-.581-.699-1.278-1.164-1.278-2.212l.559.128c1.347.306 2.761.613 4.087.92.464.116.929.349 1.161 0 .177-.266-.465-1.165-.465-1.165s-4.877-6.753-7.897-9.432l1.652.028c.998.032 1.996.367 2.994.438 16.027 2.096 30.66 7.802 43.435 17.816 16.956 13.274 27.873 30.507 32.402 51.583a74 74 0 0 1 1.394 21.425c-.929 12.46-4.878 23.987-12.194 34.234-.286.429-.658.77-.984 1.158a4 4 0 0 0-.349.478 3 3 0 0 0-.177.344 13 13 0 0 1-1.289 1.624c-1.523 1.651-3.412 3.007-5.099 4.431-6.484 5.263-13.56 9.209-21.07 12.118a95 95 0 0 1-11.934 3.71c-2.89.699-5.828 1.279-8.805 1.754-11.962 1.863-24.041 2.096-36.119.582-18.93-2.328-36.932-9.198-52.61-19.911-3.833-2.562-7.55-5.356-10.917-8.5q-.175-.175 0-.35.13-.043.25-.056c.563-.062.969.333 1.375.639 8.014 6.055 17.189 10.479 26.828 13.041 3.252.815 6.504 1.514 9.872 1.98.697.232 1.626.116 2.323.232.116 0 .348 0 .464.117 7.55.931 15.098.349 22.531-.932 16.375-2.911 30.893-9.781 43.319-20.843 8.478-7.452 15.214-16.418 18.699-27.363 3.6-10.946 3.019-21.542-1.975-32.138-1.045 4.774-3.484 8.616-6.62 12.226-3.135 3.493-6.736 6.521-10.8 8.733-.465.233-1.046.815-1.51.35-.465-.35-.233-1.048 0-1.398 1.045-3.26 1.626-6.637 1.974-10.014 1.394-14.322-4.065-25.5-15.446-33.884-1.858-1.397-3.833-2.678-5.923-3.726z"/><path fill="#4189C9" d="M80.367 241.732c-4.18-.466-8.362-1.281-12.31-2.562-7.55-2.328-14.75-5.705-21.486-10.014-1.626-1.048-2.903-2.445-4.645-3.26-.962-.107-1.334-1.003-2.02-1.417a2 2 0 0 0-.187-.097c-16.724-14.904-28.105-33.185-34.609-54.494C1.974 159.525.232 148.812 0 137.866c0-.815.116-1.63.116-2.911.813 1.863 1.394 3.261 2.09 4.658 6.04 13.274 13.705 25.268 24.273 35.282 11.266 10.596 24.39 17.815 39.72 20.261 18.117 2.911 34.957-.233 50.519-10.014 7.782-4.891 14.053-11.179 17.77-19.679 4.413-10.363 2.787-20.028-4.065-28.994-.581-.815-1.278-1.514-1.858-2.329.813-.698 1.277.117 1.742.466a33.4 33.4 0 0 1 9.291 12.343c2.09 4.658 3.135 9.548 3.252 14.555.116 5.123-1.046 10.247-3.252 14.905.464 0 .929-.117 1.277-.466 2.207-1.281 4.181-2.678 6.039-4.309.581-.465 1.162-1.28 2.091-1.164-.465 3.843-1.394 7.802-2.555 11.528 2.439-1.398 4.878-3.028 7.2-4.774 1.742-1.398 3.252-3.144 4.994-4.658.697.349.697 1.048.929 1.747 2.904 10.363.813 20.027-4.297 29.11-6.155 11.062-15.33 19.329-25.898 25.966-8.595 5.357-17.886 9.199-27.874 11.412-6.155 1.397-12.542 1.746-18.93 1.164-.813-.466-1.742 0-2.439-.349z"/><path fill="#161F42" d="M189.769 230.554q0-.11.011-.214c.105-1.039.962-1.708 1.615-2.581 5.691-8.034 9.059-17 10.917-26.781 1.161-6.055 1.161-12.11.813-18.049-.581-9.199-3.02-18.165-6.736-26.665-2.671-6.288-6.155-12.226-10.22-17.699-4.297-5.706-9.407-11.062-14.982-15.603-8.594-7.103-18.466-12.459-29.15-15.836-5.691-1.863-11.498-3.028-17.421-3.61-.529-.059-1.6-.205-1.6-.205l-1.652-.028c-3.716-2.794-7.549-5.472-11.962-7.452v-.466h4.645c21.602-.349 41.694 4.891 59.114 18.165 18.118 13.74 29.383 31.789 33.564 54.145 3.601 19.097.813 37.145-9.755 53.563-1.995 3.223-4.096 6.233-6.907 8.727q-.203.18-.41.356l.061.122z"/><path fill="#4189C9" d="M173.394 24.686c-2.466 8.309-5.168 14.524-9.059 20.26a69.7 69.7 0 0 1-14.169 15.604c-.348.232-.58.582-.929.815l-.129.065c-1.805.936-3.395 2.407-5.097 3.544-6.388 4.192-13.24 7.802-20.44 10.596-.117 0-.349.117-.581.117-.348-.466 0-.582.232-.815 4.065-3.843 6.62-8.617 8.246-13.973.116-.699.697-1.281 1.278-1.514 12.659-5.007 22.646-13.274 30.892-23.987q1.045-1.397 2.439-3.144c-2.555 0-6.504 1.747-6.504 1.747s-1.004-.317-1.049-.347h-.002l-.003-.003-.398.3c4.083-6.49 15.33-24.361 17.633-31.736.232-.698 1.008-2.215 1.008-2.215.116 0 .116.116.116.233v.116c-.116 8.151-.753 15.133-3.484 24.337"/><path fill="#161F42" d="M124.478 112.96c-.108-.121.109.119 0 0 2.417 2.703 4.515 5.722 6.293 8.954.116.349.581.699.232 1.048-.348.233-.696-.116-1.045-.233-8.362-3.144-17.072-5.473-25.899-7.103-4.413-.815-8.942-1.164-13.471-1.397-4.065-.233-8.13-.233-12.195.116-9.291.699-18.234 2.678-26.828 6.521-2.671 1.164-5.342 2.562-7.781 4.192-.222.111-.338.436-.653.157l-.044-.041c7.433-5.239 15.446-9.664 24.273-12.226 12.078-3.61 24.389-4.425 36.816-3.493 6.387.466 14.03 2.107 20.302 3.505"/><path fill="#418AC9" d="M109.518 63.46c-1.394 5.24-4.646 8.85-9.291 11.412-2.904 1.63-6.155 2.445-9.407 3.377-.813-2.33.116-4.309 1.393-6.055 1.626-2.096 3.833-3.377 6.156-4.425 3.55-1.608 7.214-2.99 10.879-4.255.051-.018.219-.036.27-.053"/><path fill="#428AC9" d="M52.843 104.797c.232.699-.581 1.048-.465 1.63-.464-1.863-1.394-2.561-3.368-2.212-1.974.466-3.832 1.514-5.226 3.027-.319.427-.735.755-1.159 1.076l-.119.089c-.348-.466 0-.815.117-1.165.813-2.678 2.67-4.541 4.877-6.171.465-.349 1.046-.582 1.742-.815 2.672-.582 4.065.699 3.717 3.377 0 .349 0 .698-.232 1.048z"/><path fill="#182144" d="M52.843 104.797v-1.281c0-2.678-1.51-3.726-4.065-2.561-2.904 1.28-4.762 3.726-6.04 6.52-.19 0-.38 0-.379-.191q0-.064.031-.158c.93-3.377 2.672-6.171 5.575-8.15a6.25 6.25 0 0 1 2.439-.932c1.393-.233 2.671.582 3.02 1.863.444 1.56.25 3.226-.581 4.693a6 6 0 0 1-.116.197z"/><path fill="#fff" d="M229.837 105.03c.337-.225.317-.415.001-.675l-.001-.024 1.577.949 1.094 1.38s-1.123-.814-2.671-1.63"/><path fill="#424A7F" d="M39.835 224.382c.93.117 1.394 1.165 2.207 1.514v.349l-.097-.056c-.748-.437-1.488-.977-2.04-1.71z"/><path fill="#8CB7DE" d="m236.689 164.997.581.35q.014.076.02.154c.034.532-.284 1.072-.601 1.709z"/><path fill="#4F668A" d="m42.506 107.126.349.349a2.25 2.25 0 0 0-.232.932l-.697.815c.098-.885.196-1.437.433-1.938q.066-.14.147-.274z"/><path fill="#0E1F66" d="M149.237 170.586c-3.136 2.562-6.155 5.124-10.336 6.987 1.161-2.445 2.09-4.891 2.671-7.569 2.439-10.829.116-20.61-6.155-29.459-1.626-2.213-3.717-3.843-5.575-5.822-.232-.35-.581-.699-1.161-.466-.581-.233-.813-.815-1.278-1.281.232-.349.581-.117.813 0 7.433 4.308 13.704 9.781 17.537 17.699 1.858 3.843 3.02 8.151 3.368 12.459.232 2.445.232 5.007-.116 7.452zm-66.431 71.495c10.104.466 20.208-1.164 29.732-4.657 9.174-3.377 17.769-8.151 25.434-14.323 7.433-6.054 13.936-13.041 18.233-21.774 2.323-4.658 3.717-9.781 4.181-14.905.465-4.657-.348-9.082-1.626-13.507.117-1.048 1.162-1.63 1.742-2.329 2.207-2.911 3.833-6.054 4.53-9.781.116-.465.232-.931.464-1.397 1.394 2.795 2.555 5.706 3.252 8.733 1.045 4.309 1.742 8.617 1.394 13.042-.581 7.568-2.904 15.021-6.62 21.658-3.833 6.753-8.71 12.459-14.285 17.582-4.994 4.425-10.452 8.268-16.259 11.412a92 92 0 0 1-22.415 8.616c-4.878 1.165-9.872 1.863-14.865 2.213-2.44.116-4.878.349-7.201.232-1.742-.116-3.716 0-5.575-.582z"/><path fill="#fff" fill-rule="evenodd" d="M128.565 113.88c.464.116.929.349 1.161 0 .177-.266-.465-1.165-.465-1.165s-4.877-6.753-7.897-9.432c-3.716-2.794-7.549-5.472-11.962-7.452v-.466h4.645c21.602-.349 41.694 4.891 59.114 18.165 18.118 13.74 29.383 31.789 33.564 54.145 3.601 19.097.813 37.145-9.755 53.563-1.995 3.223-4.096 6.233-6.907 8.727q-.151.178-.283.375a2 2 0 0 0-.011.214l-.055-.111a3 3 0 0 0-.177.344 13 13 0 0 1-1.289 1.624c-1.523 1.651-3.412 3.007-5.099 4.431-6.484 5.263-13.56 9.209-21.07 12.118a120.7 120.7 0 0 0 28.968-15.464c22.037-15.958 38.433-39.177 45.642-66.286v-2.213a89.1 89.1 0 0 0-8.594-34.117c-3.368-6.986-7.549-13.507-12.543-19.329-4.53-5.357-9.64-9.898-15.098-14.206-2.787-1.747-5.459-3.726-8.362-5.356-9.175-5.357-19.279-8.966-29.847-10.713-.233-.116-.465-.116-.697-.233 3.135-.582 13.936 1.048 21.369 3.144 6.968 1.863 13.588 4.541 20.092 7.918-.697-1.98-2.394-4.72-2.394-4.72s-.984-1.724-1.439-2.5c1.932.776 3.173 1.63 5.108 2.664 9.014 4.635 17.689 10.44 25.554 16.806l-.001-.024 1.577.949c-4.846-6.309-10.707-11.601-16.907-16.552-7.433-6.055-15.447-11.178-24.041-15.254-11.962-5.938-24.621-9.78-37.861-11.41-1.161-.117-2.439 0-3.484-.467a1 1 0 0 1-.013-.167c-1.805.936-3.395 2.407-5.097 3.544-6.388 4.192-13.24 7.802-20.44 10.596-.117 0-.349.117-.581.117-.348-.466 0-.582.232-.815 4.065-3.843 6.62-8.617 8.246-13.973.116-.699.697-1.281 1.278-1.514 12.659-5.007 22.646-13.274 30.892-23.987q1.045-1.397 2.439-3.144c-2.555 0-6.504 1.747-6.504 1.747l-1.788.707c0-.246.336-.756.336-.756.156.017.242-.183.398-.3l-.398.3C173.986 14.81 176.762 0 176.762 0c-14.513 27.57-31.241 39.474-42.739 47.159-1.742-9.2-2.323-7.918-5.342-14.439 0 .699-7.433 11.062-16.724 16.884-9.407 5.938-33.912 9.781-33.564 23.638 0 6.287 3.484 8.85 9.64 10.48-7.782 2.445-9.872-2.795-10.685-1.747-3.252 3.61-15.563 14.904-22.415 11.993-4.878-.931-2.903-7.918-2.206-11.062v-.116c-2.323.656-4.025 2.067-5.712 3.364-14.603 11.223-16.935 26.91-13.103 44.61.349 1.63.813 1.28 1.742.582 1.626-1.281 3.136-2.795 4.878-3.843q.067.017.132.04c.663-.945 1.515-1.78 2.467-2.328l-.044-.041c7.433-5.239 15.446-9.664 24.273-12.226 12.078-3.61 24.389-4.425 36.816-3.493 6.387.466 14.03 2.107 20.302 3.505-.108-.121.109.119 0 0 1.347.306 2.761.613 4.087.92m-19.047-50.42c3.252-1.63 7.405-3.645 10.113-6.106-3.2 13.292-11.158 19.614-22.308 20.662l-.165.017c-2.146.227-4.187.443-6.338.216-.813-2.33.116-4.309 1.393-6.055 1.626-2.096 3.833-3.377 6.156-4.425 3.55-1.608 7.214-2.99 10.879-4.255zm-56.675 41.337c.232.699-.581 1.048-.465 1.63-.464-1.863-1.394-2.561-3.368-2.212-1.974.466-3.832 1.514-5.226 3.027-.319.427-.735.755-1.159 1.076l-.002.089-.697.815c.098-.885.196-1.437.433-1.938q0-.064.031-.158c.93-3.377 2.672-6.171 5.575-8.15a6.25 6.25 0 0 1 2.439-.932c1.393-.233 2.671.582 3.02 1.863.444 1.56.25 3.226-.581 4.693z" clip-rule="evenodd"/><path fill="#4189C9" d="m157.785 34.708 1.788-.707s-1.004-.317-1.049-.347q-.004.002-.002 0l-.003-.003-.398.3s-.336.51-.336.757m49.056 63.336c8.014 1.28 15.679 3.493 22.996 6.986.337-.225.317-.415.001-.675-7.865-6.367-16.54-12.17-25.554-16.806-1.935-1.034-3.176-1.888-5.108-2.663a366 366 0 0 1 1.439 2.499s1.697 2.74 2.394 4.72c-6.504-3.377-13.124-6.055-20.092-7.918-7.433-2.096-18.234-3.726-21.369-3.144.232.117.464.117.697.233 10.568 1.747 20.672 5.356 29.847 10.713 2.903 1.63 5.575 3.61 8.362 5.356 2.046.019 4.227.357 6.387.699"/></svg>