<svg xmlns="http://www.w3.org/2000/svg" fill="none" viewBox="0 0 237 256"><path fill="#262F71" d="M127.362 132.976c-5.104-3.028-10.671-4.774-16.471-6.171-7.54-1.747-15.311-2.562-22.967-2.096-5.452.232-10.904 1.048-15.891 3.493q-.87.35-1.74 1.048c-4.06 2.678-4.756 6.404-1.74 10.363.58.815 1.276 1.63 2.088 2.562-2.668 0-4.988-.466-7.308-.932-6.264-1.281-12.063-3.377-17.167-7.452-2.436-1.979-4.06-3.377-5.684-6.055q.065-.097.132-.193c.662-.945 1.513-1.78 2.464-2.328l.072-.041c1.972-.815 3.364-2.328 5.336-3.26 8.815-4.075 18.211-6.521 27.839-7.452 3.827-.35 7.655-.699 11.599-.582 11.367.465 22.735 2.445 33.522 5.938 2.784.815 5.568 1.863 8.468 2.795 0-.815-.464-1.281-.812-1.863-1.16-1.98-2.552-3.843-4.06-5.706-.58-.699-1.276-1.164-1.276-2.212l.558.128c1.346.306 2.759.613 4.082.92.464.116.928.349 1.16 0 .177-.266-.464-1.165-.464-1.165s-4.872-6.753-7.887-9.432l1.649.028c.997.032 1.994.367 2.99.438 16.008 2.096 30.623 7.802 43.382 17.816 16.936 13.274 27.839 30.507 32.363 51.583a74.1 74.1 0 0 1 1.392 21.425c-.928 12.46-4.872 23.987-12.18 34.234-.285.429-.657.77-.982 1.158q-.151.178-.283.375l-.066.103a3 3 0 0 0-.177.344 13 13 0 0 1-1.287 1.624c-1.521 1.651-3.408 3.007-5.092 4.431-6.477 5.263-13.544 9.209-21.045 12.118a94 94 0 0 1-11.919 3.71 113 113 0 0 1-8.794 1.754c-11.948 1.863-24.011 2.096-36.075.582-18.907-2.328-36.886-9.198-52.545-19.911-3.828-2.562-7.54-5.356-10.904-8.5q-.174-.175 0-.35.13-.043.251-.056c.561-.062.967.333 1.373.639 8.004 6.055 17.167 10.479 26.795 13.041 3.248.815 6.495 1.514 9.86 1.98.695.232 1.623.116 2.32.232.115 0 .347 0 .463.117 7.54.931 15.08.349 22.503-.932 16.355-2.911 30.855-9.781 43.266-20.843 8.468-7.452 15.196-16.418 18.675-27.363 3.596-10.946 3.016-21.542-1.971-32.138-1.044 4.774-3.48 8.616-6.612 12.226-3.132 3.493-6.728 6.521-10.788 8.733-.464.233-1.044.815-1.508.35-.464-.35-.232-1.048 0-1.398 1.044-3.26 1.624-6.637 1.972-10.014 1.392-14.322-4.06-25.5-15.427-33.884-1.856-1.397-3.828-2.678-5.916-3.726z"/><path fill="#4189C9" d="M80.268 241.732c-4.175-.466-8.351-1.281-12.295-2.562-7.54-2.328-14.731-5.705-21.46-10.014-1.623-1.048-2.899-2.445-4.639-3.26-.96-.107-1.332-1.003-2.017-1.417a2 2 0 0 0-.187-.097c-16.703-14.904-28.07-33.185-34.566-54.494C1.972 159.525.232 148.812 0 137.866c0-.815.116-1.63.116-2.911.812 1.863 1.392 3.261 2.088 4.658 6.032 13.274 13.687 25.268 24.243 35.282 11.251 10.596 24.359 17.815 39.67 20.261 18.095 2.911 34.914-.233 50.458-10.014 7.771-4.891 14.035-11.179 17.747-19.679 4.408-10.363 2.784-20.028-4.06-28.994-.58-.815-1.276-1.514-1.856-2.329.812-.698 1.276.117 1.74.466a33.36 33.36 0 0 1 9.28 12.343c2.088 4.658 3.132 9.548 3.248 14.555.116 5.123-1.044 10.247-3.248 14.905.464 0 .928-.117 1.276-.466 2.204-1.281 4.175-2.678 6.031-4.309.58-.465 1.16-1.28 2.088-1.164-.464 3.843-1.392 7.802-2.552 11.528 2.436-1.398 4.872-3.028 7.192-4.774 1.74-1.398 3.248-3.144 4.988-4.658.696.349.696 1.048.928 1.747 2.9 10.363.812 20.027-4.292 29.11-6.148 11.062-15.311 19.329-25.867 25.966-8.583 5.357-17.863 9.199-27.839 11.412-6.147 1.397-12.527 1.746-18.907 1.164-.812-.466-1.74 0-2.436-.349z"/><path fill="#161F42" d="M189.535 230.554q0-.11.011-.214c.105-1.039.961-1.708 1.613-2.581 5.684-8.034 9.048-17 10.904-26.781 1.16-6.055 1.16-12.11.812-18.049-.58-9.199-3.016-18.165-6.728-26.665-2.668-6.288-6.148-12.226-10.207-17.699-4.292-5.706-9.396-11.062-14.964-15.603-8.583-7.103-18.443-12.459-29.114-15.836-5.684-1.863-11.484-3.028-17.4-3.61a95 95 0 0 1-1.598-.205l-1.649-.028c-3.712-2.794-7.54-5.472-11.948-7.452v-.466h4.64c21.575-.349 41.642 4.891 59.041 18.165 18.095 13.74 29.347 31.789 33.523 54.145 3.595 19.097.812 37.145-9.744 53.563-1.992 3.223-4.09 6.233-6.898 8.727q-.202.18-.41.356l.061.122z"/><path fill="#4189C9" d="M173.18 24.686c-2.463 8.309-5.162 14.524-9.047 20.26a69.7 69.7 0 0 1-14.152 15.604c-.348.232-.58.582-.928.815l-.129.065c-1.802.936-3.391 2.407-5.091 3.544-6.379 4.192-13.223 7.802-20.415 10.596-.116 0-.348.117-.58.117-.348-.466 0-.582.232-.815 4.06-3.843 6.612-8.617 8.236-13.973.116-.699.696-1.281 1.276-1.514 12.643-5.007 22.619-13.274 30.855-23.987q1.044-1.397 2.435-3.144c-2.551 0-6.495 1.747-6.495 1.747s-1.003-.317-1.049-.347h-.001l-.003-.003-.398.3c4.078-6.49 15.311-24.361 17.611-31.736.232-.698 1.007-2.215 1.007-2.215.116 0 .116.116.116.233v.116c-.116 8.151-.752 15.133-3.48 24.337"/><path fill="#161F42" d="M124.324 112.96c-.108-.121.11.119 0 0 2.414 2.703 4.51 5.722 6.286 8.954.116.349.58.699.232 1.048-.348.233-.696-.116-1.044-.233-8.352-3.144-17.051-5.473-25.867-7.103-4.407-.815-8.931-1.164-13.455-1.397-4.06-.233-8.12-.233-12.18.116-9.28.699-18.21 2.678-26.794 6.521-2.668 1.164-5.336 2.562-7.772 4.192-.222.111-.338.436-.652.157l-.044-.041c7.424-5.239 15.427-9.664 24.243-12.226 12.063-3.61 24.359-4.425 36.77-3.493 6.38.466 14.014 2.107 20.277 3.505"/><path fill="#418AC9" d="M109.383 63.46c-1.392 5.24-4.64 8.85-9.28 11.412-2.9 1.63-6.147 2.445-9.395 3.377-.812-2.33.116-4.309 1.392-6.055 1.624-2.096 3.828-3.377 6.148-4.425 3.546-1.608 7.205-2.99 10.865-4.255.052-.018.219-.036.27-.053"/><path fill="#428AC9" d="M52.778 104.797c.232.699-.58 1.048-.464 1.63-.464-1.863-1.392-2.561-3.364-2.212-1.972.466-3.828 1.514-5.22 3.027-.318.427-.734.755-1.157 1.076l-.119.089c-.348-.466 0-.815.116-1.165.812-2.678 2.668-4.541 4.872-6.171.464-.349 1.044-.582 1.74-.815 2.668-.582 4.06.699 3.712 3.377 0 .349 0 .698-.232 1.048z"/><path fill="#182144" d="M52.778 104.797v-1.281c0-2.678-1.508-3.726-4.06-2.561-2.9 1.28-4.756 3.726-6.032 6.52-.19 0-.38 0-.379-.191q0-.064.031-.158c.928-3.377 2.668-6.171 5.568-8.15a6.2 6.2 0 0 1 2.436-.932c1.392-.233 2.668.582 3.016 1.863.444 1.56.25 3.226-.58 4.693a6 6 0 0 1-.116.197z"/><path fill="#fff" d="M229.554 105.03c.336-.225.316-.415.001-.675l-.001-.024 1.575.949 1.092 1.38s-1.121-.814-2.667-1.63"/><path fill="#424A7F" d="M39.786 224.382c.928.117 1.392 1.165 2.204 1.514v.349l-.097-.056c-.747-.437-1.486-.977-2.036-1.71z"/><path fill="#8CB7DE" d="m236.397 164.997.58.35a1 1 0 0 1 .02.154c.035.532-.282 1.072-.6 1.709z"/><path fill="#4F668A" d="m42.454 107.126.348.349a2.25 2.25 0 0 0-.232.932l-.696.815c.098-.885.196-1.437.433-1.938q.066-.14.147-.274z"/><path fill="#0E1F66" d="M149.053 170.586c-3.132 2.562-6.147 5.124-10.323 6.987 1.16-2.445 2.088-4.891 2.668-7.569 2.435-10.829.116-20.61-6.148-29.459-1.624-2.213-3.712-3.843-5.568-5.822-.232-.35-.58-.699-1.16-.466-.58-.233-.812-.815-1.276-1.281.232-.349.58-.117.812 0 7.424 4.308 13.688 9.781 17.515 17.699 1.856 3.843 3.016 8.151 3.364 12.459.232 2.445.232 5.007-.116 7.452zm-66.349 71.495c10.092.466 20.183-1.164 29.695-4.657 9.163-3.377 17.747-8.151 25.403-14.323 7.423-6.054 13.919-13.041 18.211-21.774 2.32-4.658 3.712-9.781 4.176-14.905.464-4.657-.348-9.082-1.624-13.507.116-1.048 1.16-1.63 1.74-2.329 2.204-2.911 3.828-6.054 4.524-9.781.116-.465.232-.931.463-1.397 1.392 2.795 2.552 5.706 3.248 8.733 1.044 4.309 1.74 8.617 1.392 13.042-.58 7.568-2.9 15.021-6.611 21.658-3.828 6.753-8.7 12.459-14.268 17.582-4.988 4.425-10.439 8.268-16.239 11.412-7.076 3.842-14.615 6.753-22.387 8.616-4.872 1.165-9.86 1.863-14.847 2.213-2.436.116-4.872.349-7.192.232-1.74-.116-3.712 0-5.568-.582z"/><path fill="#fff" fill-rule="evenodd" d="M128.406 113.88c.464.116.928.349 1.16 0 .177-.266-.464-1.165-.464-1.165s-4.872-6.753-7.887-9.432c-3.712-2.794-7.54-5.472-11.948-7.452v-.466h4.64c21.575-.349 41.642 4.891 59.041 18.165 18.095 13.74 29.347 31.789 33.523 54.145 3.595 19.097.812 37.145-9.744 53.563-1.992 3.223-4.09 6.233-6.898 8.727q-.151.178-.283.375a2 2 0 0 0-.011.214l-.055-.111a3 3 0 0 0-.177.344 13 13 0 0 1-1.287 1.624c-1.521 1.651-3.408 3.007-5.092 4.431-6.477 5.263-13.544 9.209-21.045 12.118a120.5 120.5 0 0 0 28.932-15.464c22.01-15.958 38.387-39.177 45.586-66.286v-2.213a89.2 89.2 0 0 0-8.583-34.117c-3.364-6.986-7.54-13.507-12.528-19.329-4.524-5.357-9.627-9.898-15.079-14.206-2.784-1.747-5.452-3.726-8.352-5.356-9.163-5.357-19.255-8.966-29.81-10.713-.232-.116-.464-.116-.696-.233 3.132-.582 13.919 1.048 21.343 3.144 6.959 1.863 13.571 4.541 20.067 7.918-.696-1.98-2.391-4.72-2.391-4.72s-.983-1.724-1.437-2.5c1.929.776 3.169 1.63 5.101 2.664 9.004 4.635 17.668 10.44 25.523 16.806l-.001-.024 1.575.949c-4.84-6.309-10.693-11.601-16.887-16.552-7.423-6.055-15.427-11.178-24.011-15.254-11.947-5.938-24.591-9.78-37.814-11.41-1.16-.117-2.436 0-3.48-.467a1.4 1.4 0 0 1-.013-.167c-1.802.936-3.391 2.407-5.091 3.544-6.379 4.192-13.223 7.802-20.415 10.596-.116 0-.348.117-.58.117-.348-.466 0-.582.232-.815 4.06-3.843 6.612-8.617 8.236-13.973.116-.699.696-1.281 1.276-1.514 12.643-5.007 22.619-13.274 30.855-23.987q1.044-1.397 2.435-3.144c-2.551 0-6.495 1.747-6.495 1.747l-1.787.707c0-.246.336-.756.336-.756.156.017.242-.183.398-.3l-.398.3C173.772 14.81 176.544 0 176.544 0c-14.495 27.57-31.203 39.474-42.686 47.159-1.74-9.2-2.32-7.918-5.336-14.439 0 .699-7.423 11.062-16.703 16.884-9.396 5.938-33.87 9.781-33.523 23.638 0 6.287 3.48 8.85 9.628 10.48-7.772 2.445-9.86-2.795-10.672-1.747-3.247 3.61-15.543 14.904-22.386 11.993-4.872-.931-2.9-7.918-2.204-11.062v-.116c-2.32.656-4.02 2.067-5.704 3.364-14.586 11.223-16.915 26.91-13.087 44.61.347 1.63.811 1.28 1.74.582 1.623-1.281 3.131-2.795 4.871-3.843q.068.017.132.04c.662-.945 1.513-1.78 2.464-2.328l-.044-.041c7.424-5.239 15.427-9.664 24.243-12.226 12.063-3.61 24.359-4.425 36.77-3.493 6.38.466 14.014 2.107 20.277 3.505-.108-.121.11.119 0 0 1.346.306 2.759.613 4.082.92m-19.023-50.42c3.248-1.63 7.396-3.645 10.1-6.106-3.196 13.292-11.144 19.614-22.28 20.662l-.165.017c-2.143.227-4.181.443-6.33.216-.812-2.33.116-4.309 1.392-6.055 1.624-2.096 3.828-3.377 6.148-4.425 3.546-1.608 7.205-2.99 10.865-4.255zm-56.605 41.337c.232.699-.58 1.048-.464 1.63-.464-1.863-1.392-2.561-3.364-2.212-1.972.466-3.828 1.514-5.22 3.027-.318.427-.734.755-1.157 1.076l-.003.089-.696.815c.098-.885.196-1.437.433-1.938q0-.064.031-.158c.928-3.377 2.668-6.171 5.568-8.15a6.2 6.2 0 0 1 2.436-.932c1.392-.233 2.668.582 3.016 1.863.444 1.56.25 3.226-.58 4.693z" clip-rule="evenodd"/><path fill="#4189C9" d="m157.59 34.708 1.787-.707s-1.003-.317-1.049-.347q-.003.002-.001 0l-.003-.003-.398.3s-.336.51-.336.757m48.997 63.336c8.003 1.28 15.659 3.493 22.967 6.986.336-.225.316-.415.001-.675-7.855-6.367-16.519-12.17-25.523-16.806-1.932-1.034-3.172-1.888-5.101-2.663.454.776 1.437 2.499 1.437 2.499s1.695 2.74 2.391 4.72c-6.496-3.377-13.108-6.055-20.067-7.918-7.424-2.096-18.211-3.726-21.343-3.144.232.117.464.117.696.233 10.555 1.747 20.647 5.356 29.81 10.713 2.9 1.63 5.568 3.61 8.352 5.356 2.044.019 4.222.357 6.38.699"/></svg>