<svg xmlns="http://www.w3.org/2000/svg" fill="none" viewBox="0 0 384 256"><path fill="#C6FAFD" d="m222.229 2.29-18.656 85.74H180l-4.021-18.496-2.976-13.878L160.96.37a418 418 0 0 1 61.269 1.92m-59.232 85.74L132.405 3.528a203.7 203.7 0 0 0-40.693 10.57l34.059 55.436 11.328 18.496zm178.454 18.507 13.482 37.014h-93.568l3.04-37.014zm34.058 92.524H256.725l3.051-37.014h102.208zM347.157 256h-95.456l4.16-37.248H384zm-214.858 0H36.843L0 218.752h128.139zm-9.686-112.46-3.029-37.003h-77.27l-13.418 37.014h93.728zm4.64 55.521H8.448l13.461-37.014h102.315l3.051 37.014zm156.8-171.17 8.032-12.95s-16.64-4.49-41.888-8.576l-29.61 81.665h25.909l11.531-18.485 8.704-13.878zm22.464 0-41.344 60.14h67.883l-22.624-60.14zM118.4 88.03 77.067 27.89h-3.915L50.528 88.03z"/></svg>
