<svg width="384" height="256" viewBox="0 0 384 256" fill="none" xmlns="http://www.w3.org/2000/svg">
<path d="M222.229 2.29041L203.573 88.0301H180L175.979 69.5338L173.003 55.6564L160.96 0.370384C181.408 -0.493626 201.888 0.157048 222.229 2.29041ZM162.997 88.0301L132.405 3.52775C118.507 5.63978 104.875 9.18115 91.712 14.0985L125.771 69.5338L137.099 88.0301H162.997ZM341.451 106.537L354.933 143.551H261.365L264.405 106.537H341.451ZM375.509 199.061H256.725L259.776 162.047H361.984L375.509 199.061ZM347.157 256H251.701L255.861 218.752H384L347.157 256ZM132.299 256H36.8427L0 218.752H128.139L132.299 256ZM122.613 143.54L119.584 106.537H42.3147L28.896 143.551H122.624L122.613 143.54ZM127.253 199.061H8.448L21.9093 162.047H124.224L127.275 199.061H127.253ZM284.053 27.8907L292.085 14.9412C292.085 14.9412 275.445 10.4505 250.197 6.36512L220.587 88.0301H246.496L258.027 69.5445L266.731 55.667L284.053 27.8907ZM306.517 27.8907L265.173 88.0301H333.056L310.432 27.8907H306.517ZM118.4 88.0301L77.0667 27.8907H73.152L50.528 88.0301H118.4Z" fill="#C6FAFD"/>
</svg>
