<svg xmlns="http://www.w3.org/2000/svg" fill="none" viewBox="0 0 385 256"><path fill="#C6FAFD" d="m222.426 2.29-18.673 85.74h-23.594l-4.025-18.496-2.978-13.878L161.102.37a419 419 0 0 1 61.324 1.92m-59.285 85.74L132.522 3.528a204 204 0 0 0-40.729 10.57l34.089 55.436L137.22 88.03zm178.611 18.507 13.495 37.014h-93.651l3.043-37.014zm34.089 92.524H256.952l3.054-37.014h102.298zM347.464 256h-95.54l4.163-37.248h128.252zm-215.048 0h-95.54L0 218.752h128.252zm-9.694-112.46-3.032-37.003H42.352l-13.43 37.014h93.81zm4.644 55.521H8.456l13.473-37.014h102.405l3.053 37.014zm156.938-171.17 8.039-12.95s-16.654-4.49-41.925-8.576L220.782 88.03h25.932l11.541-18.485 8.711-13.878zm22.484 0-41.38 60.14h67.942l-22.644-60.14zM118.505 88.03l-41.37-60.14h-3.918L50.573 88.03z"/></svg>