<svg xmlns="http://www.w3.org/2000/svg" fill="none" viewBox="0 0 222 256"><path fill="url(#paint0_linear_10243_908)" d="M210.063 96.075v89.272l-99.248 57.308-99.304-57.315V70.66l99.304-57.37 76.275 44.08 11.511-6.65L110.815 0 0 64.016V191.99L110.815 256l110.815-64.016V89.437z"/><path fill="url(#paint1_linear_10243_908)" d="m198.497 77.527 11.455 6.367 11.456-6.374V64.07l-11.456-6.652-11.462 6.652z"/><path fill="url(#paint2_linear_10243_908)" d="M79.929 199H59v-69.978h69.751a25.16 25.16 0 0 0 11.7-3.035 25.1 25.1 0 0 0 8.922-8.137 24.98 24.98 0 0 0 2.358-23.286 23.9 23.9 0 0 0-5.472-7.972 24.2 24.2 0 0 0-8.007-5.434 24.3 24.3 0 0 0-9.501-1.869H59V58h69.821a46.5 46.5 0 0 1 32.574 13.566 46.26 46.26 0 0 1 13.604 32.485 44.65 44.65 0 0 1-8.161 26.085 45.44 45.44 0 0 1-20.091 16.415 80.7 80.7 0 0 1-24.961 3.76H79.929z"/><path fill="url(#paint3_linear_10243_908)" d="M174.51 197.259h-24.411l-18.834-32.76a79.7 79.7 0 0 0 21.836-4.448z"/><defs><linearGradient id="paint0_linear_10243_908" x1="221.436" x2="-13.581" y1="64.085" y2="158.027" gradientUnits="userSpaceOnUse"><stop stop-color="#C200FB"/><stop offset=".49" stop-color="#3772FF"/><stop offset="1" stop-color="#38DBD2"/></linearGradient><linearGradient id="paint1_linear_10243_908" x1="221.436" x2="-13.581" y1="64.085" y2="158.027" gradientUnits="userSpaceOnUse"><stop stop-color="#C200FB"/><stop offset=".49" stop-color="#3772FF"/><stop offset="1" stop-color="#5AC4BE"/></linearGradient><linearGradient id="paint2_linear_10243_908" x1="254.341" x2="-41.553" y1="46.616" y2="165.267" gradientUnits="userSpaceOnUse"><stop stop-color="#C200FB"/><stop offset=".49" stop-color="#3772FF"/><stop offset="1" stop-color="#5AC4BE"/></linearGradient><linearGradient id="paint3_linear_10243_908" x1="630.761" x2="-985.334" y1="-780.456" y2="-297.739" gradientUnits="userSpaceOnUse"><stop stop-color="#C200FB"/><stop offset=".49" stop-color="#3772FF"/><stop offset="1" stop-color="#5AC4BE"/></linearGradient></defs></svg>