<svg width="222" height="256" viewBox="0 0 222 256" fill="none" xmlns="http://www.w3.org/2000/svg">
<path d="M210.063 96.0754V185.347L110.815 242.655L11.5109 185.34V70.6604L110.815 13.2895L187.09 57.3708L198.601 50.7191L110.815 0L0 64.0156V191.991L110.815 256L221.63 191.984V89.4375L210.063 96.0754Z" fill="url(#paint0_linear_10243_908)"/>
<path d="M198.497 77.5269L209.952 83.8945L221.408 77.5199V64.071L209.952 57.4193L198.49 64.071L198.497 77.5269Z" fill="url(#paint1_linear_10243_908)"/>
<path d="M79.9288 199H59V129.022H128.751C132.841 128.976 136.857 127.934 140.451 125.987C144.045 124.04 147.108 121.247 149.373 117.85C151.638 114.454 153.037 110.557 153.448 106.499C153.859 102.441 153.269 98.3436 151.731 94.5642C150.471 91.5625 148.609 88.8493 146.259 86.5917C143.984 84.2609 141.261 82.4127 138.252 81.1578C135.244 79.9029 132.012 79.2674 128.751 79.2893H59V58H128.821C141.046 58.0708 152.75 62.9454 161.395 71.5664C170.04 80.1874 174.928 91.8596 174.999 104.051C175.073 113.382 172.22 122.503 166.838 130.136C161.884 137.439 154.902 143.144 146.747 146.551C138.677 149.105 130.253 150.374 121.786 150.311H79.9288V199Z" fill="url(#paint2_linear_10243_908)"/>
<path d="M174.51 197.259H150.099L131.265 164.499C138.717 164.046 146.068 162.549 153.101 160.051L174.51 197.259Z" fill="url(#paint3_linear_10243_908)"/>
<defs>
<linearGradient id="paint0_linear_10243_908" x1="221.436" y1="64.0849" x2="-13.5813" y2="158.027" gradientUnits="userSpaceOnUse">
<stop stop-color="#C200FB"/>
<stop offset="0.49" stop-color="#3772FF"/>
<stop offset="1" stop-color="#38DBD2"/>
</linearGradient>
<linearGradient id="paint1_linear_10243_908" x1="221.436" y1="64.085" x2="-13.5812" y2="158.027" gradientUnits="userSpaceOnUse">
<stop stop-color="#C200FB"/>
<stop offset="0.49" stop-color="#3772FF"/>
<stop offset="1" stop-color="#5AC4BE"/>
</linearGradient>
<linearGradient id="paint2_linear_10243_908" x1="254.341" y1="46.6156" x2="-41.5529" y2="165.267" gradientUnits="userSpaceOnUse">
<stop stop-color="#C200FB"/>
<stop offset="0.49" stop-color="#3772FF"/>
<stop offset="1" stop-color="#5AC4BE"/>
</linearGradient>
<linearGradient id="paint3_linear_10243_908" x1="630.761" y1="-780.456" x2="-985.334" y2="-297.739" gradientUnits="userSpaceOnUse">
<stop stop-color="#C200FB"/>
<stop offset="0.49" stop-color="#3772FF"/>
<stop offset="1" stop-color="#5AC4BE"/>
</linearGradient>
</defs>
</svg>
