<svg xmlns="http://www.w3.org/2000/svg" fill="none" viewBox="0 0 222 256"><path fill="url(#paint0_linear_10243_908)" d="M210.414 96.075v89.272L111 242.655 11.53 185.34V70.66L111 13.29l76.403 44.08 11.53-6.65L111 0 0 64.016V191.99L111 256l111-64.016V89.437z"/><path fill="url(#paint1_linear_10243_908)" d="m198.829 77.527 11.474 6.367 11.475-6.374V64.07l-11.475-6.652-11.481 6.652z"/><path fill="url(#paint2_linear_10243_908)" d="M80.062 199H59.1v-69.978h69.867a25.2 25.2 0 0 0 11.72-3.035 25.1 25.1 0 0 0 8.937-8.137 24.94 24.94 0 0 0 2.361-23.286 23.9 23.9 0 0 0-5.481-7.972 24.2 24.2 0 0 0-8.02-5.434 24.3 24.3 0 0 0-9.517-1.869H59.099V58h69.937a46.63 46.63 0 0 1 32.629 13.566 46.22 46.22 0 0 1 13.626 32.485 44.6 44.6 0 0 1-8.174 26.085 45.5 45.5 0 0 1-20.124 16.415 81 81 0 0 1-25.003 3.76H80.062z"/><path fill="url(#paint3_linear_10243_908)" d="M174.801 197.259H150.35l-18.866-32.76a80 80 0 0 0 21.873-4.448z"/><defs><linearGradient id="paint0_linear_10243_908" x1="221.806" x2="-13.496" y1="64.085" y2="158.298" gradientUnits="userSpaceOnUse"><stop stop-color="#C200FB"/><stop offset=".49" stop-color="#3772FF"/><stop offset="1" stop-color="#38DBD2"/></linearGradient><linearGradient id="paint1_linear_10243_908" x1="221.806" x2="-13.495" y1="64.085" y2="158.298" gradientUnits="userSpaceOnUse"><stop stop-color="#C200FB"/><stop offset=".49" stop-color="#3772FF"/><stop offset="1" stop-color="#5AC4BE"/></linearGradient><linearGradient id="paint2_linear_10243_908" x1="254.766" x2="-41.485" y1="46.616" y2="165.609" gradientUnits="userSpaceOnUse"><stop stop-color="#C200FB"/><stop offset=".49" stop-color="#3772FF"/><stop offset="1" stop-color="#5AC4BE"/></linearGradient><linearGradient id="paint3_linear_10243_908" x1="631.815" x2="-986.537" y1="-780.456" y2="-296.257" gradientUnits="userSpaceOnUse"><stop stop-color="#C200FB"/><stop offset=".49" stop-color="#3772FF"/><stop offset="1" stop-color="#5AC4BE"/></linearGradient></defs></svg>
