<svg xmlns="http://www.w3.org/2000/svg" fill="none" viewBox="0 0 222 256"><path fill="#80D8FF" d="M221.656 192.059 110.888 128V0l110.768 64.06z"/><path fill="#7ACFFF" d="M0 192.059 110.886 128V0L0 64.06z"/><path fill="url(#paint0_linear_10907_1036)" d="M110.886 192.059 221.653 128 110.886 64.06 0 128z"/><path fill="#E4F0FE" d="M110.886 256 0 192.059v-128L110.886 128z" opacity=".3"/><path fill="url(#paint1_linear_10907_1036)" d="M0 192.059 110.886 256v-63.941L0 128z"/><path fill="#D0E6FF" d="m110.888 256 110.768-63.941v-128L110.888 128z" opacity=".3"/><path fill="url(#paint2_linear_10907_1036)" d="M221.656 192.059 110.888 256v-63.941L221.656 128z"/><path fill="#fff" d="m110.886 128 110.767-63.94L110.886 0 0 64.06z" opacity=".3"/><defs><linearGradient id="paint0_linear_10907_1036" x1="4.147" x2="220.5" y1="151.898" y2="103.539" gradientUnits="userSpaceOnUse"><stop stop-color="#C132CE"/><stop offset="1" stop-color="#425AFA"/></linearGradient><linearGradient id="paint1_linear_10907_1036" x1="42.62" x2="74.531" y1="149.452" y2="255.607" gradientUnits="userSpaceOnUse"><stop stop-color="#425AFA"/><stop offset=".16" stop-color="#5A52F2"/><stop offset=".55" stop-color="#9241DE"/><stop offset=".84" stop-color="#6E56CF"/><stop offset="1" stop-color="#C132CE"/></linearGradient><linearGradient id="paint2_linear_10907_1036" x1="130.478" x2="201.169" y1="235.965" y2="149.229" gradientUnits="userSpaceOnUse"><stop stop-color="#C132CE"/><stop offset=".1" stop-color="#AB39D6"/><stop offset=".28" stop-color="#8545E3"/><stop offset=".47" stop-color="#684EED"/><stop offset=".65" stop-color="#5355F4"/><stop offset=".83" stop-color="#4659F9"/><stop offset="1" stop-color="#425AFA"/></linearGradient></defs></svg>
