<svg width="222" height="256" viewBox="0 0 222 256" fill="none" xmlns="http://www.w3.org/2000/svg">
<path d="M221.656 192.059L110.888 128V0L221.656 64.0593V192.059Z" fill="#80D8FF"/>
<path d="M0 192.059L110.886 128V0L0 64.0593V192.059Z" fill="#7ACFFF"/>
<path d="M110.886 192.059L221.653 128L110.886 64.0596L0 128L110.886 192.059Z" fill="url(#paint0_linear_10907_1036)"/>
<path opacity="0.3" d="M110.886 256L0 192.059V64.0596L110.886 128V256Z" fill="#E4F0FE"/>
<path d="M0 192.059L110.886 256V192.059L0 128V192.059Z" fill="url(#paint1_linear_10907_1036)"/>
<path opacity="0.3" d="M110.888 256L221.656 192.059V64.0596L110.888 128V256Z" fill="#D0E6FF"/>
<path d="M221.656 192.059L110.888 256V192.059L221.656 128V192.059Z" fill="url(#paint2_linear_10907_1036)"/>
<path opacity="0.3" d="M110.886 128L221.653 64.0593L110.886 0L0 64.0593L110.886 128Z" fill="white"/>
<defs>
<linearGradient id="paint0_linear_10907_1036" x1="4.14725" y1="151.898" x2="220.5" y2="103.539" gradientUnits="userSpaceOnUse">
<stop stop-color="#C132CE"/>
<stop offset="1" stop-color="#425AFA"/>
</linearGradient>
<linearGradient id="paint1_linear_10907_1036" x1="42.6205" y1="149.452" x2="74.5315" y2="255.607" gradientUnits="userSpaceOnUse">
<stop stop-color="#425AFA"/>
<stop offset="0.16" stop-color="#5A52F2"/>
<stop offset="0.55" stop-color="#9241DE"/>
<stop offset="0.84" stop-color="#6E56CF"/>
<stop offset="1" stop-color="#C132CE"/>
</linearGradient>
<linearGradient id="paint2_linear_10907_1036" x1="130.478" y1="235.965" x2="201.169" y2="149.229" gradientUnits="userSpaceOnUse">
<stop stop-color="#C132CE"/>
<stop offset="0.1" stop-color="#AB39D6"/>
<stop offset="0.28" stop-color="#8545E3"/>
<stop offset="0.47" stop-color="#684EED"/>
<stop offset="0.65" stop-color="#5355F4"/>
<stop offset="0.83" stop-color="#4659F9"/>
<stop offset="1" stop-color="#425AFA"/>
</linearGradient>
</defs>
</svg>
