<svg width="255" height="256" viewBox="0 0 255 256" fill="none" xmlns="http://www.w3.org/2000/svg">
<path d="M0.00289566 128C0.00289566 57.309 57.0881 0 127.504 0C197.921 0 255 57.3061 255 128C255 198.694 197.918 256 127.501 256C57.0823 256 0 198.694 0 128H0.00289566ZM27.8955 128C27.8955 183.228 72.4923 227.998 127.501 227.998C182.516 227.998 227.11 183.228 227.11 128.003C227.11 72.7717 182.516 28.0021 127.504 28.0021C72.4894 28.0021 27.8984 72.7717 27.8984 128H27.8955Z" fill="#F0E7D8"/>
<path d="M125.916 159.916L116.451 142.21L115.493 142.37V184.548H73.16V71.8622H145.322C170.979 71.8622 188.135 86.5112 188.135 106.472C188.135 124.664 174.341 139.313 150.934 139.313C146.923 139.313 143.237 138.993 139.867 138.351L139.224 139.482C148.365 147.209 154.62 149.621 162.316 149.621C171.941 149.621 181.238 145.593 185.891 139.479L191.187 182.144C185.891 184.722 177.393 186.974 171.947 186.974C150.459 186.974 137.316 181.825 125.925 159.934L125.916 159.916ZM149.324 116.292C149.324 109.527 144.031 105.668 136.332 105.668H115.484V122.252C123.18 125.794 128.795 127.401 135.365 127.401C143.061 127.401 149.318 123.057 149.318 116.292H149.324Z" fill="#F0E7D8"/>
</svg>
