<svg xmlns="http://www.w3.org/2000/svg" fill="none" viewBox="0 0 255 256"><path fill="#F0E7D8" d="M.003 128C.003 57.309 57.088 0 127.504 0 197.921 0 255 57.306 255 128s-57.082 128-127.499 128C57.082 256 0 198.694 0 128zm27.893 0c0 55.228 44.596 99.998 99.605 99.998 55.015 0 99.609-44.77 99.609-99.995 0-55.231-44.594-100-99.606-100-55.015 0-99.606 44.769-99.606 99.997z"/><path fill="#F0E7D8" d="m125.916 159.916-9.465-17.706-.958.16v42.178H73.16V71.862h72.162c25.657 0 42.813 14.65 42.813 34.61 0 18.192-13.794 32.841-37.201 32.841-4.011 0-7.697-.32-11.067-.962l-.643 1.131c9.141 7.727 15.396 10.139 23.092 10.139 9.625 0 18.922-4.028 23.575-10.142l5.296 42.665c-5.296 2.578-13.794 4.83-19.24 4.83-21.488 0-34.631-5.149-46.022-27.04zm23.408-43.624c0-6.765-5.293-10.624-12.992-10.624h-20.848v16.584c7.696 3.542 13.311 5.149 19.881 5.149 7.696 0 13.953-4.344 13.953-11.109z"/></svg>
