<svg xmlns="http://www.w3.org/2000/svg" fill="none" viewBox="0 0 256 256"><path fill="#F0E7D8" d="M.003 128C.003 57.309 57.116 0 127.567 0c70.452 0 127.559 57.306 127.559 128s-57.11 128-127.561 128C57.111 256 0 198.694 0 128zm27.906 0c0 55.228 44.62 99.998 99.656 99.998 55.042 0 99.658-44.77 99.658-99.995 0-55.231-44.616-100-99.656-100-55.042 0-99.655 44.769-99.655 99.997z"/><path fill="#F0E7D8" d="m125.979 159.916-9.47-17.706-.959.16v42.178H73.196V71.862h72.198c25.67 0 42.835 14.65 42.835 34.61 0 18.192-13.801 32.841-37.22 32.841-4.013 0-7.701-.32-11.073-.962l-.643 1.131c9.146 7.727 15.403 10.139 23.103 10.139 9.63 0 18.932-4.028 23.587-10.142l5.299 42.665c-5.299 2.578-13.801 4.83-19.25 4.83-21.499 0-34.648-5.149-46.045-27.04zm23.419-43.624c0-6.765-5.296-10.624-12.999-10.624h-20.858v16.584c7.7 3.542 13.317 5.149 19.891 5.149 7.7 0 13.96-4.344 13.96-11.109z"/></svg>