<svg xmlns="http://www.w3.org/2000/svg" fill="none" viewBox="0 0 341 256"><path fill="#fff" fill-rule="evenodd" d="M102.633 255.999h-.161C45.878 255.999 0 210.153 0 153.599c0-49.026 34.477-90.005 80.524-100.046C103.762 21.129 141.777 0 184.732 0c66.208 0 120.684 50.199 127.394 114.587C329.769 129.248 341 151.349 341 176.071 341 220.215 305.19 256 261.016 256l-.437-.001h-75.295l-.552.001-.552-.001zm55.199-152.313c12.145 0 21.992-9.84 21.992-21.977s-9.847-21.977-21.992-21.977-21.991 9.84-21.991 21.977 9.845 21.977 21.991 21.977m87.959 0c12.144 0 21.991-9.84 21.991-21.977s-9.847-21.977-21.991-21.977c-12.146 0-21.992 9.84-21.992 21.977s9.846 21.977 21.992 21.977m-3.932 19.899c8.349-1.174 15.395-2.165 19.639-2.165 10.408 0 18.849 8.434 18.849 18.836 0 43.344-35.162 78.482-78.536 78.482-43.373 0-78.535-35.138-78.535-78.482 0-10.402 8.439-18.836 18.849-18.836 4.242 0 11.289.991 19.639 2.165 12.135 1.707 27.021 3.8 40.047 3.8s27.912-2.093 40.048-3.8m-40.051 79.456c17.212 0 32.808-6.917 44.154-18.121 5.049-4.987 3.39-13.514-3.126-16.325-11.007-4.747-25.347-7.62-41.03-7.62s-30.025 2.873-41.032 7.62c-6.516 2.811-8.169 11.341-3.12 16.325 11.349 11.204 26.942 18.121 44.154 18.121" clip-rule="evenodd"/></svg>