<svg width="236" height="256" viewBox="0 0 236 256" fill="none" xmlns="http://www.w3.org/2000/svg">
<path d="M233.508 21.694C230.547 24.2127 227.368 23.1182 225.213 22.0023C224.322 21.5425 223.603 21.0754 223.148 20.8651C221.591 20.1343 217.976 21.0594 217.976 21.0594C210.842 22.0986 199.039 28.7937 198.423 31.0682C198.37 31.2732 198.326 31.4639 198.304 31.6422C198.028 33.4728 199.105 34.1234 199.105 34.1234C219.468 58.4297 218.527 70.2424 218.527 70.2424L219.062 74.1425L219.014 79.2601L220.138 89.7893C220.138 89.7893 224.364 109.482 226.7 115.331C229.035 121.181 230.687 134.732 230.687 134.732C232.633 156.764 217.426 166.676 217.426 166.676L218.627 169.569L219.016 177.726C219.692 184.881 215.357 192.43 211.699 198.269C204.981 208.982 196.999 218.558 188.282 227.461C179.559 236.365 170.108 244.593 160.455 252.596C156.246 255.694 151.441 256.345 146.529 255.851C146.518 255.851 146.513 255.846 146.502 255.846C140.725 255.272 134.792 253.122 129.49 251.534C125.211 250.251 120.995 248.755 116.849 247.081C104.349 242.033 91.6004 235.686 81.1119 227.101C71.1464 218.95 64.4126 208.93 57.9278 198.098C51.3399 187.093 47.6973 173.899 43.8662 161.746C41.3103 153.66 39.0355 145.498 36.6024 137.379C32.2039 122.702 30.4146 107.477 29.5235 92.226C29.07 84.4276 30.4964 74.6772 34.2582 64.344C38.0199 54.0108 44.7964 43.0431 46.5964 41.093C48.3963 39.1429 46.7902 38.364 46.7902 38.364C44.6008 35.7312 35.3111 27.0058 35.3111 27.0058C27.4319 19.1575 14.3485 19.2074 14.3485 19.2074C11.4796 24.9595 8.51111 25.398 8.51111 25.398C2.9672 27.2501 0.242362 19.3535 0.0484946 18.4765C0.0324872 18.3892 0.0164867 18.227 0.0111509 18.0006C0.00581504 17.9846 0.00580983 17.9632 0.00580983 17.9471C-0.0582199 15.7154 0.583861 7.87954 6.07975 6.38936C12.2088 4.73163 14.3485 11.3126 14.3485 11.3126H15.2556C18.6225 11.2752 22.1139 10.949 25.4416 11.4962C32.8406 12.7208 40.1578 14.9454 46.6266 18.8134C49.6964 20.6494 52.2523 23.2483 55.3008 25.0576C56.4943 25.7617 57.3871 26.0273 58.0417 26.0914C59.1604 26.1948 59.5819 25.6904 59.5819 25.6904L62.0133 23.2038C62.0133 23.2038 76.4093 9.68522 95.7356 3.96515C97.5516 3.42862 99.3355 2.95268 101.091 2.53023C118.034 -1.52141 132.414 -0.280784 147.81 3.25036C164.801 7.15049 181.142 16.9632 185.294 21.3838C189.445 25.8027 191.876 23.8865 191.876 23.8865C203.549 14.8206 220.67 15.8438 220.67 15.8438C220.67 15.8438 220.622 13.4071 222.86 11.9936C225.097 10.58 228.549 10.0934 232.343 12.1879C236.133 14.2841 237.69 18.1361 233.508 21.694Z" fill="#063B2A"/>
<path d="M217.424 166.674L218.625 169.567L212.4 171.778C212.4 171.778 217.652 165.799 219.338 162.938C221.024 160.079 231.4 146.43 228.028 123.997C224.656 101.565 207.275 93.5273 207.275 93.5273C213.177 92.4221 219.272 97.4916 219.272 97.4916L212.008 82.4775C218.299 81.3723 218.963 77.5542 218.963 77.5542L218.623 73.6059C215.51 51.0857 189.246 27.6885 189.246 27.6885C183.798 23.3998 153.254 -1.94743 114.539 8.77614C75.8242 19.4997 60.6491 54.6935 60.6491 54.6935C58.0221 58.6899 56.3698 66.2941 56.3698 66.2941C54.424 80.0408 68.8218 80.6255 68.8218 80.6255L61.9475 94.8267C73.1011 88.3277 78.3551 91.4471 78.3551 91.4471C55.0092 105.356 52.8144 126.997 52.8144 126.997C49.8957 156.829 79.3262 177.236 79.3262 177.236C79.3262 177.236 71.8205 178.482 67.4701 175.009C67.9734 175.41 68.2758 177.913 68.4696 178.546C69.4265 181.638 70.5239 184.688 71.744 187.688C75.2621 196.348 79.8171 204.791 86.044 211.811C90.7395 217.114 96.5876 220.964 102.381 224.923C102.381 225.643 107.579 228.476 108.325 228.985C110.438 230.426 112.551 231.871 114.664 233.319C119.096 236.345 123.797 239.244 127.839 242.764C129.995 244.648 132.169 246.441 134.595 247.98C142.275 252.844 151.554 255.281 160.454 252.595C156.244 255.693 151.44 256.343 146.527 255.85C146.517 255.85 146.511 255.844 146.501 255.844C127.439 252.377 97.9393 237.158 97.9393 237.158C54.2301 211.811 54.7175 168.072 54.7175 168.072C58.2195 170.12 64.5425 170.412 64.5425 170.412C42.9466 147.794 45.6715 137.266 45.6715 125.177C45.6715 113.089 52.9993 98.1725 52.9993 98.1725C50.664 99.2117 48.784 98.1725 48.784 98.1725C45.266 94.3704 51.4324 87.7466 52.0424 87.1067C51.5284 87.5612 46.8383 91.6182 43.5301 89.5933C40.028 87.4489 38.9572 77.1139 38.9572 77.1139C38.6495 74.0926 38.7243 71.0534 39.1298 68.0427C40.0493 61.132 42.7777 55.3049 46.5661 49.5528C48.3447 46.8558 49.7498 43.9147 51.5106 41.2017C53.4251 38.266 55.4923 35.4333 57.7037 32.7152C63.7937 25.2251 70.9597 18.5853 79.0132 13.2502C85.3948 9.02034 93.4199 5.12022 101.089 2.53201C118.032 -1.51963 132.412 -0.278999 147.808 3.25215C164.799 7.15228 181.141 16.965 185.292 21.3856C189.441 25.8044 191.875 23.8882 191.875 23.8882C203.548 14.8224 220.668 15.8456 220.668 15.8456C220.668 15.8456 220.425 16.842 221.117 18.2288C220.711 18.2234 205.093 18.1521 196.771 29.5762C196.771 29.5762 196.408 31.168 198.306 31.6457C198.03 33.4764 199.106 34.127 199.106 34.127C219.47 58.4332 218.529 70.2459 218.529 70.2459L219.064 74.146L219.016 79.2636L220.14 89.7929C220.14 89.7929 224.366 109.486 226.701 115.334C229.037 121.185 230.689 134.735 230.689 134.735C232.633 156.762 217.424 166.674 217.424 166.674Z" fill="#106F55"/>
<path d="M225.213 22.0006C224.322 21.5407 223.603 21.0737 223.148 20.8633C221.591 20.1325 217.976 21.0576 217.976 21.0576C210.842 22.0968 199.039 28.7919 198.423 31.0664C198.37 31.2714 198.326 31.4621 198.304 31.6404C196.408 31.1644 196.769 29.5709 196.769 29.5709C205.091 18.1486 220.709 18.2181 221.115 18.2234C221.673 19.3411 222.835 20.7011 225.213 22.0006Z" fill="url(#paint0_linear_10907_996)"/>
<path d="M232.34 12.1861C228.546 10.0898 225.092 10.5783 222.856 11.9918C220.62 13.4053 220.667 15.842 220.667 15.842C220.667 15.842 220.423 16.8384 221.115 18.2252C221.672 19.3411 222.833 20.7011 225.211 22.0006C227.367 23.1164 230.545 24.2109 233.506 21.6922C237.69 18.1325 236.133 14.2823 232.34 12.1861ZM229.471 19.5461C227.838 19.243 225.99 18.3714 224.942 17.0488C224.407 16.3714 224.131 15.5479 224.359 14.6976C224.613 13.7333 225.186 13.154 225.915 12.8135C226.872 12.359 228.099 12.3198 229.211 12.359C230.968 12.4178 233.296 12.8527 233.848 14.8171C234.869 18.4266 231.854 19.9863 229.471 19.5461Z" fill="#03623A"/>
<path d="M146.501 255.842C140.724 255.268 134.79 253.119 129.488 251.531C125.209 250.247 120.994 248.752 116.848 247.078C104.348 242.03 91.5986 235.682 81.1102 227.098C71.1447 218.946 64.4109 208.927 57.9261 198.095C51.3381 187.089 47.6955 173.895 43.8644 161.742C41.3086 153.657 39.0337 145.494 36.6006 137.375C32.2021 122.698 30.4128 107.474 29.5218 92.2225C29.0682 84.424 30.4947 74.6737 34.2564 64.3405C38.0182 54.0073 44.7946 43.0395 46.5946 41.0894C48.3945 39.1394 46.7885 38.3604 46.7885 38.3604C44.599 35.7277 35.3093 27.0023 35.3093 27.0023C27.4301 19.1539 14.3467 19.2038 14.3467 19.2038C14.5352 18.6566 14.6597 18.0826 14.7416 17.5033C14.7416 17.5033 33.9967 14.9151 51.3115 33.5352C51.3115 33.5352 55.0394 27.1164 58.0399 26.0879C59.1586 26.1912 59.5802 25.6868 59.5802 25.6868L62.0115 23.2002C62.0115 23.2002 76.4076 9.68165 95.7339 3.96159C97.5498 3.42505 99.3338 2.94912 101.089 2.52666C93.4199 5.11487 85.3948 9.01499 79.0132 13.2449C70.9615 18.5799 63.7955 25.2198 57.7037 32.7099C55.4923 35.4279 53.4251 38.2607 51.5107 41.1964C49.7481 43.9094 48.3447 46.8505 46.5661 49.5474C42.7777 55.2996 40.0493 61.1266 39.1298 68.0374C38.7243 71.048 38.6496 74.0872 38.9572 77.1086C38.9572 77.1086 40.028 87.4418 43.5301 89.5879C46.8383 91.6128 51.5284 87.5576 52.0425 87.1013C51.4324 87.7412 45.266 94.365 48.784 98.1671C48.784 98.1671 50.664 99.2063 52.9993 98.1671C52.9993 98.1671 45.6715 113.083 45.6715 125.172C45.6715 137.261 42.9484 147.789 64.5425 170.407C64.5425 170.407 58.2195 170.114 54.7175 168.066C54.7175 168.066 54.2319 211.806 97.9393 237.153C97.9393 237.158 127.439 252.377 146.501 255.842Z" fill="#0E573F"/>
<path d="M58.0399 26.0896C55.0412 27.1181 51.3115 33.537 51.3115 33.537C33.9967 14.9169 14.7416 17.5051 14.7416 17.5051C15.1684 14.4712 14.3467 11.3091 14.3467 11.3091H15.2556C18.6225 11.2716 22.1139 10.9455 25.4416 11.4927C32.8406 12.7173 40.1578 14.9418 46.6266 18.8099C49.6965 20.6459 52.2523 23.2448 55.3008 25.054C56.4943 25.7599 57.3854 26.0237 58.0399 26.0896Z" fill="url(#paint1_linear_10907_996)"/>
<path d="M14.7416 17.5051C14.7416 17.5051 10.5529 24.5085 5.73825 22.6173C1.07475 20.7867 0.0698431 18.6263 0.00937052 17.9971C0.0040347 17.981 0.00402949 17.9596 0.00402949 17.9436C-0.0600003 15.7119 0.58208 7.87597 6.07797 6.38579C12.207 4.72806 14.3467 11.3091 14.3467 11.3091C14.3467 11.3091 15.1684 14.4712 14.7416 17.5051Z" fill="#218139"/>
<path d="M14.7416 17.5051C14.6597 18.0844 14.537 18.6584 14.3467 19.2056C11.4778 24.9577 8.51112 25.3962 8.51112 25.3962C2.96543 27.2483 0.242371 19.3518 0.0485034 18.4748C0.032496 18.3874 0.0164955 18.2252 0.0111597 17.9988C0.0698536 18.6263 1.07476 20.7885 5.74004 22.6191C10.5529 24.5086 14.7416 17.5051 14.7416 17.5051Z" fill="#05382A"/>
<path d="M219.336 162.938C217.65 165.797 212.398 171.778 212.398 171.778L218.623 169.567L219.012 177.724C219.688 184.879 215.354 192.428 211.695 198.267C198.265 219.688 179.757 236.586 160.454 252.596C151.554 255.283 142.275 252.846 134.595 247.982C132.169 246.443 129.995 244.65 127.839 242.766C123.797 239.245 119.096 236.347 114.664 233.32C112.551 231.875 110.438 230.427 108.325 228.987C107.579 228.477 102.381 225.645 102.381 224.925C96.5876 220.966 90.7395 217.116 86.044 211.813C79.8189 204.793 75.2621 196.349 71.7441 187.69C70.5222 184.69 69.4248 181.64 68.4696 178.548C68.2758 177.915 67.9716 175.412 67.4701 175.011C71.8205 178.483 79.3263 177.237 79.3263 177.237C79.3263 177.237 49.8957 156.829 52.8126 126.999C52.8126 126.999 55.0074 105.356 78.3533 91.4489C78.3533 91.4489 73.1011 88.3295 61.9457 94.8285L68.82 80.6272C68.82 80.6272 54.424 80.0426 56.3698 66.2959C56.3698 66.2959 58.0239 58.6917 60.6491 54.6953C60.6491 54.6953 75.8242 19.5015 114.539 8.77792C153.254 -1.94565 183.8 23.4016 189.246 27.6903C189.246 27.6903 215.51 51.0875 218.623 73.6077L218.963 77.556C218.963 77.556 218.297 81.3741 212.008 82.4793L219.272 97.4933C219.272 97.4933 213.177 92.4239 207.275 93.529C207.275 93.529 224.656 101.566 228.028 123.999C231.4 146.432 221.022 160.079 219.336 162.938Z" fill="#67FE57"/>
<path d="M211.912 165C197.84 180.366 178.206 177.236 173.537 176.261C168.943 175.302 169.656 171.516 169.679 171.396C170.122 172.517 170.441 173.043 170.441 173.043C175.31 176.84 185.351 174.868 190.674 173.986C209.086 170.936 220.953 153.785 220.942 136.199C221.067 136.545 225.807 149.835 211.912 165ZM100.533 175.772C68.4376 166.268 66.2588 140.915 66.2001 140.156C67.0005 143.427 68.2153 146.698 69.9227 149.548C71.7067 152.526 73.9104 155.191 76.3649 157.633C82.9848 164.22 91.2055 169.077 99.846 172.494C104.461 174.319 109.374 175.972 114.345 176.838C119.695 177.77 125.088 177.433 130.482 177.303C132.892 177.245 135.368 176.589 136.887 174.997C138.022 176.665 133.12 185.424 100.533 175.772Z" fill="#CAEFA3"/>
<path d="M216.615 114.712C216.615 114.712 215.875 101.898 199.083 99.6395C198.171 99.5147 197.246 99.488 196.326 99.5913C191.782 100.101 178.741 103.436 171.451 124.668C171.602 123.812 176.682 96.3953 199.606 95.898C203.389 95.816 207.123 97.0031 210.086 99.365C213.474 102.071 216.955 106.794 216.615 114.712ZM120.739 113.536C116.583 106.442 107.218 96.0638 87.8387 95.3757C86.8231 95.3383 85.8075 95.4185 84.8132 95.636C79.3921 96.8267 62.9097 102.531 61.526 127.997C61.4228 126.99 61.3855 125.978 61.3641 124.971C61.3108 122.473 61.4228 119.978 61.7163 117.497C62.0898 114.274 62.7639 111.067 63.8559 108.008C65.0387 104.705 66.7302 101.552 69.0655 98.9211C71.6373 96.0174 74.9456 93.8784 78.6148 92.6556C82.2734 91.4364 86.3962 91.03 90.2611 91.0692C92.5911 91.0906 94.9193 91.4382 97.1621 92.0549C100.431 92.9479 103.533 94.4114 106.338 96.3115C110.148 98.8837 113.395 102.226 116.102 105.935C117.853 108.333 119.388 110.889 120.739 113.536Z" fill="#80D65A"/>
<path d="M130.196 200.941C128.796 205.692 118.987 206.97 108.293 203.795C97.5925 200.62 90.0583 194.198 91.4634 189.448C92.8685 184.697 102.678 183.419 113.372 186.594C124.067 189.767 131.601 196.191 130.196 200.941ZM199.266 201.353C191.241 203.991 183.426 202.15 181.817 197.237C180.207 192.325 185.406 186.2 193.431 183.556C201.456 180.913 209.266 182.754 210.875 187.667C212.485 192.583 207.286 198.709 199.266 201.353Z" fill="#30A038"/>
<path d="M123.645 120.014C123.537 119.764 123.428 119.52 123.311 119.277C123.083 118.796 122.847 118.318 122.598 117.858C122.516 117.702 122.436 117.55 122.344 117.399C122.267 117.258 122.187 117.117 122.105 116.976C121.965 116.727 121.819 116.49 121.673 116.251C121.668 116.24 121.662 116.229 121.657 116.224C121.365 115.753 121.063 115.302 120.755 114.859C120.641 114.696 120.528 114.534 120.41 114.377C120.296 114.215 120.177 114.058 120.06 113.907C119.942 113.749 119.821 113.594 119.697 113.441C119.578 113.29 119.459 113.138 119.329 112.987C119.252 112.889 119.167 112.787 119.08 112.689C118.95 112.532 118.815 112.375 118.674 112.219C118.139 111.613 117.588 111.033 117.02 110.481C116.832 110.297 116.641 110.112 116.447 109.939C116.259 109.761 116.063 109.581 115.869 109.413C115.48 109.065 115.09 108.736 114.692 108.422C114.493 108.26 114.292 108.103 114.093 107.951C113.936 107.827 113.78 107.707 113.623 107.593C113.337 107.376 113.05 107.171 112.764 106.976C112.478 106.778 112.19 106.583 111.9 106.392C111.613 106.203 111.322 106.017 111.035 105.839C110.743 105.661 110.457 105.488 110.165 105.319C109.646 105.016 109.123 104.729 108.609 104.458C108.458 104.376 108.307 104.301 108.156 104.224C107.254 103.759 106.361 103.347 105.497 102.983C105.118 102.821 104.746 102.67 104.383 102.529C104.015 102.383 103.654 102.247 103.302 102.117C102.951 101.987 102.605 101.868 102.265 101.754C101.682 101.554 101.114 101.379 100.584 101.222C100.356 101.153 100.141 101.092 99.9243 101.033C99.2804 100.85 98.6864 100.704 98.1563 100.579C98.0425 100.552 97.934 100.525 97.8273 100.502C97.5623 100.443 97.3186 100.388 97.0927 100.345C96.865 100.297 96.6552 100.253 96.472 100.221C96.2834 100.183 96.1216 100.156 95.974 100.133C95.8495 100.112 95.741 100.09 95.6449 100.08C95.5418 100.064 95.4564 100.048 95.3959 100.042C95.3586 100.037 95.3319 100.032 95.3088 100.032C95.2928 100.026 95.2821 100.026 95.2821 100.026C65.9049 97.6858 61.5277 128.001 61.5277 128.001C62.9115 102.534 79.3938 96.832 84.815 95.6395C85.8093 95.4221 86.8248 95.3419 87.8404 95.3793C107.22 96.0673 116.584 106.445 120.741 113.539C121.826 115.648 122.781 117.816 123.645 120.014Z" fill="#1F7B31"/>
<path d="M216.615 114.712C213.972 108.5 207.558 104.926 203.969 103.344C202.174 102.552 200.223 102.163 198.261 102.249C181.87 102.969 171.798 123.94 171.451 124.666C178.741 103.434 191.782 100.099 196.326 99.5896C197.246 99.4862 198.169 99.5129 199.083 99.6377C215.873 101.898 216.615 114.712 216.615 114.712Z" fill="#1F7B31"/>
<path d="M137.908 160.856C137.584 156.735 137.124 152.755 136.309 148.828C135.628 145.546 134.7 142.307 133.38 139.058C130.554 132.081 126.722 125.258 121.707 119.527C114.655 111.463 104.164 105.283 93.2438 105.094C84.9217 104.948 76.8522 109.34 71.4702 115.525C65.9476 121.867 64.1636 129.878 65.7466 138.072C65.8764 138.76 66.0276 139.454 66.2002 140.142V140.158C67.0005 143.429 68.2153 146.699 69.9228 149.55C71.7067 152.528 73.9104 155.193 76.3649 157.635C82.9848 164.222 91.2056 169.079 99.846 172.496C104.461 174.321 109.374 175.974 114.345 176.84C119.695 177.772 125.088 177.435 130.482 177.305C132.892 177.246 135.368 176.59 136.887 174.999C137.762 174.089 138.319 172.87 138.374 171.289C138.502 167.822 138.178 164.312 137.908 160.856ZM136.848 172.945C136.848 172.945 136.329 175.544 127.768 174.895C127.768 174.895 101.569 176.585 84.0591 162.027C66.5505 147.47 64.9925 134.536 69.0139 124.689C73.0353 114.842 95.6023 104.055 112.983 117.443C130.363 130.832 135.292 145.259 136.848 158.778C138.404 172.294 136.848 172.945 136.848 172.945Z" fill="#1F7C30"/>
<path d="M136.848 172.947C136.848 172.947 136.329 175.546 127.768 174.897C127.768 174.897 101.569 176.587 84.0591 162.029C66.5505 147.471 64.9925 134.537 69.0139 124.691C73.0353 114.844 95.6022 104.057 112.983 117.445C130.363 130.833 135.292 145.261 136.848 158.78C138.404 172.298 136.848 172.947 136.848 172.947Z" fill="url(#paint2_linear_10907_996)"/>
<path d="M220.942 136.197C220.953 153.783 209.086 170.936 190.674 173.984C185.351 174.867 175.31 176.838 170.441 173.041C170.441 173.041 170.122 172.516 169.679 171.394C169.382 170.626 169.019 169.574 168.669 168.227C169.053 169.441 169.717 170.794 170.864 171.774C172.502 173.166 175.885 172.965 177.857 173.02C181.598 173.123 185.379 172.879 189.077 172.316C197.502 171.032 205.575 165.562 211.45 159.528C218.892 151.887 221.848 141.352 219.432 130.905C215.007 111.807 191.346 105.541 178.117 119.91C173.825 124.568 171.232 130.548 169.676 136.63C167.205 146.309 167.913 155.553 168.141 165.341C168.141 165.341 168.151 165.84 168.276 166.582C167.223 161.712 166.46 153.897 167.87 142.539C169.411 130.147 175.691 115.015 187.19 108.976C199.009 102.764 213.881 110.889 218.436 122.641C220.138 127.033 220.942 131.627 220.942 136.197Z" fill="#1F7C30"/>
<path d="M211.446 159.532C205.572 165.566 197.499 171.036 189.073 172.319C185.377 172.883 181.594 173.127 177.854 173.024C175.881 172.97 172.498 173.17 170.86 171.778C169.715 170.797 169.05 169.442 168.666 168.23C168.655 168.214 168.655 168.198 168.65 168.182C168.536 167.749 168.422 167.289 168.31 166.79C168.299 166.726 168.288 166.655 168.272 166.585C168.148 165.844 168.137 165.345 168.137 165.345C167.91 155.559 167.202 146.313 169.672 136.634C171.229 130.552 173.822 124.571 178.113 119.914C191.343 105.545 215.002 111.81 219.429 130.908C221.844 141.355 218.888 151.89 211.446 159.532Z" fill="url(#paint3_linear_10907_996)"/>
<path d="M197.159 132.52C194.176 142.659 187.949 145.388 182.503 141.749C177.055 138.11 181.466 123.996 181.466 123.996C181.466 123.996 183.931 116.272 191.842 119.131C191.841 119.131 200.141 122.381 197.159 132.52ZM191.323 156.113C189.573 160.402 187.757 160.728 185.488 158.908C183.218 157.088 185.424 149.029 188.794 150.849C188.794 150.847 193.073 151.822 191.323 156.113Z" fill="white"/>
<path d="M217.976 137.135C217.716 140.839 210.194 151.888 210.194 151.888L208.055 148.639C212.01 143.179 214.863 134.015 214.863 134.015L217.976 137.135ZM209.87 154.357C209.87 154.357 201.959 164.106 192.49 166.836C192.49 166.836 205.655 155.332 206.886 150.913L209.87 154.357Z" fill="#33352F"/>
<path d="M112.595 144.024C108.186 145.844 99.9491 142.01 97.2261 135.054C94.5031 128.101 91.7996 123.356 101.614 119.325C101.614 119.325 112.271 115.436 116.163 128.853C120.053 142.268 117.004 142.204 112.595 144.024ZM115.188 159.102C115.01 160.587 114.199 161.788 112.686 162.097C110.151 162.607 108.563 161.366 107.195 159.421C106.525 158.462 105.925 157.402 105.671 156.247C105.379 154.926 105.411 153.359 106.708 152.644C108.081 151.881 109.934 151.398 111.426 152.081C111.428 152.083 115.772 154.293 115.188 159.102Z" fill="white"/>
<path d="M84.1249 145.193L80.8167 147.468C73.9424 141.489 72.2563 129.27 72.2563 129.27L77.6383 126.345C77.1866 130.181 84.1249 145.193 84.1249 145.193ZM108.303 166.993C107.773 166.799 90.7715 160.526 82.7305 150.584L86.7181 147.47C86.7199 147.468 90.9138 156.557 108.303 166.993Z" fill="#33352F"/>
<path d="M174.948 213.11C174.948 213.11 162.204 222.761 146.737 217.399C146.737 217.399 140.35 215.741 137.026 212.622L138.468 211.16L138.079 210.576L131.27 216.132H132.535L133.702 215.351C133.702 215.351 144.791 227.148 155.394 226.271C155.394 226.271 162.592 226.173 165.704 222.274C168.817 218.374 176.598 213.012 176.598 213.012L174.948 213.11ZM162.8 222.296C160.217 223.611 157.402 224.618 154.714 224.711C146.408 225.003 135.356 214.572 135.356 214.572L135.841 213.695L136.377 213.305L136.862 213.695C139.224 215.428 141.807 216.875 144.569 217.866C147.114 218.775 149.784 219.274 152.48 219.458C154.869 219.62 157.419 219.827 159.856 219.604H159.861C160.553 219.545 161.24 219.447 161.91 219.306C165.596 218.526 169.222 217.053 172.605 215.406C172.408 215.592 168.096 219.599 162.8 222.296Z" fill="#1B7A30"/>
<path d="M162.8 222.296C160.217 223.611 157.402 224.618 154.714 224.711C146.408 225.003 135.356 214.572 135.356 214.572L135.841 213.695L136.377 213.305L136.862 213.695C139.224 215.428 141.807 216.875 144.569 217.866C147.114 218.775 149.784 219.274 152.48 219.458C154.869 219.62 157.419 219.827 159.856 219.604H159.861C162.464 220.21 162.8 222.296 162.8 222.296Z" fill="#203A2E"/>
<path d="M172.609 215.406C172.409 215.59 168.096 219.599 162.8 222.296C162.8 222.296 162.465 220.21 159.865 219.604C160.557 219.545 161.243 219.447 161.914 219.306C165.599 218.526 169.226 217.053 172.609 215.406Z" fill="#141F1E"/>
<path d="M157.049 181.622C157.049 181.622 151.893 174.116 155.104 165.731C155.104 165.731 154.714 175.966 157.049 181.622Z" fill="#CAEFA3"/>
<path d="M162.394 188.045C162.264 187.833 159.865 184.038 155.552 184.984C151.947 185.776 150.661 188.369 150.305 189.317C150.862 187.665 153.574 180.733 158.945 183.621C158.945 183.621 161.567 185.565 162.394 188.045Z" fill="#42BA3A"/>
<path d="M161.914 188.738C161.612 188.207 160.174 187.784 159.655 187.596C158.186 187.064 156.471 187.086 154.96 187.428C153.944 187.651 151.982 188.23 151.285 189.216C151.9 188.137 155.052 183.291 159.872 186.296C159.87 186.296 161.183 187.471 161.914 188.738Z" fill="#CAEFA3"/>
<path d="M155.305 198.471V198.481C155.299 198.497 155.294 198.508 155.294 198.508C155.175 198.731 155.056 198.957 154.926 199.18C154.872 199.283 154.812 199.385 154.748 199.488C154.679 199.619 154.597 199.749 154.515 199.879C154.417 200.036 154.321 200.187 154.223 200.339C154.12 200.496 154.019 200.652 153.91 200.804C153.841 200.907 153.764 201.009 153.693 201.107L153.547 201.301C153.505 201.355 153.466 201.405 153.428 201.453C153.407 201.485 153.38 201.517 153.352 201.551C153.249 201.676 153.153 201.79 153.06 201.891C152.989 201.973 152.914 202.043 152.848 202.109C152.79 202.162 152.735 202.212 152.681 202.255C152.644 202.287 152.605 202.314 152.573 202.337C152.53 202.369 152.486 202.39 152.448 202.408C152.427 202.419 152.411 202.424 152.39 202.43C152.347 202.44 152.313 202.44 152.281 202.435C151.6 202.289 151.016 201.119 151.552 196.488C151.552 196.488 152.806 193.553 154.519 194.587C156.125 195.551 155.406 198.141 155.305 198.471Z" fill="#1E8A33"/>
<path d="M156.029 196.683C155.915 197.164 155.65 197.799 155.305 198.471C155.408 198.141 156.126 195.551 154.52 194.587C152.807 193.553 151.554 196.488 151.554 196.488C151.911 193.444 153.396 191.533 154.374 190.585C154.915 190.059 155.822 190.271 156.087 190.975C156.704 192.599 156.368 195.259 156.029 196.683Z" fill="#234B35"/>
<path d="M164.151 199.169C163.958 203.166 161.914 201.119 161.914 201.119C161.914 201.119 160.562 199.711 159.488 197.415C159.488 197.415 158.568 193.239 160.893 193.661C163.075 194.057 163.974 197.009 164.077 197.376C164.082 197.387 164.082 197.398 164.082 197.403C164.151 197.995 164.178 198.59 164.151 199.169Z" fill="#1E8A33"/>
<path d="M164.075 197.376C163.972 197.007 163.075 194.055 160.891 193.661C158.567 193.239 159.486 197.415 159.486 197.415C159.07 196.544 158.702 195.542 158.46 194.442C158.012 192.373 158.401 191.219 158.887 190.587C159.34 189.997 160.194 189.92 160.767 190.387C162.27 191.62 163.717 194.48 164.075 197.376Z" fill="#234B35"/>
<path d="M229.471 19.5461C227.838 19.243 225.99 18.3714 224.942 17.0488C224.407 16.3714 224.131 15.5479 224.359 14.6976C224.613 13.7333 225.186 13.154 225.915 12.8135C226.872 12.359 228.099 12.3198 229.211 12.359C230.968 12.4178 233.296 12.8527 233.848 14.8171C234.869 18.4266 231.854 19.9863 229.471 19.5461Z" fill="#2F7245"/>
<defs>
<linearGradient id="paint0_linear_10907_996" x1="0.00505732" y1="128.024" x2="235.996" y2="128.024" gradientUnits="userSpaceOnUse">
<stop stop-color="#02513B"/>
<stop offset="0.191" stop-color="#04573B"/>
<stop offset="0.435" stop-color="#0B663B"/>
<stop offset="0.708" stop-color="#16813A"/>
<stop offset="1" stop-color="#26A53A"/>
</linearGradient>
<linearGradient id="paint1_linear_10907_996" x1="0.000960677" y1="128" x2="235.999" y2="128" gradientUnits="userSpaceOnUse">
<stop stop-color="#26A53A"/>
<stop offset="0.292" stop-color="#16813A"/>
<stop offset="0.565" stop-color="#0B663B"/>
<stop offset="0.809" stop-color="#04573B"/>
<stop offset="1" stop-color="#02513B"/>
</linearGradient>
<linearGradient id="paint2_linear_10907_996" x1="0.00276827" y1="127.999" x2="235.999" y2="127.999" gradientUnits="userSpaceOnUse">
<stop stop-color="#0C0C0D"/>
<stop offset="0.228" stop-color="#0D0F0E"/>
<stop offset="0.404" stop-color="#111912"/>
<stop offset="0.563" stop-color="#182919"/>
<stop offset="0.711" stop-color="#214123"/>
<stop offset="0.852" stop-color="#2C5E30"/>
<stop offset="0.936" stop-color="#357439"/>
</linearGradient>
<linearGradient id="paint3_linear_10907_996" x1="10.0065" y1="85.3422" x2="199.462" y2="202.511" gradientUnits="userSpaceOnUse">
<stop offset="0.048" stop-color="#357439"/>
<stop offset="0.053" stop-color="#347338"/>
<stop offset="0.221" stop-color="#234626"/>
<stop offset="0.371" stop-color="#162718"/>
<stop offset="0.497" stop-color="#0F1310"/>
<stop offset="0.583" stop-color="#0C0C0D"/>
</linearGradient>
</defs>
</svg>
