<svg xmlns="http://www.w3.org/2000/svg" fill="none" viewBox="0 0 236 256"><path fill="#063B2A" d="M233.508 21.694c-2.961 2.519-6.14 1.424-8.295.308-.891-.46-1.61-.927-2.065-1.137-1.557-.73-5.172.194-5.172.194-7.134 1.04-18.937 7.735-19.553 10.01a5 5 0 0 0-.119.573c-.276 1.83.801 2.481.801 2.481 20.363 24.307 19.422 36.12 19.422 36.12l.535 3.9-.048 5.117 1.124 10.53s4.226 19.692 6.562 25.541c2.335 5.85 3.987 19.401 3.987 19.401 1.946 22.032-13.261 31.944-13.261 31.944l1.201 2.893.389 8.157c.676 7.155-3.659 14.704-7.317 20.543-6.718 10.713-14.7 20.289-23.417 29.192-8.723 8.904-18.174 17.132-27.827 25.135-4.209 3.098-9.014 3.749-13.926 3.255-.011 0-.016-.005-.027-.005-5.777-.574-11.71-2.724-17.012-4.312a145 145 0 0 1-12.641-4.453c-12.5-5.048-25.249-11.395-35.737-19.98-9.966-8.151-16.7-18.171-23.184-29.003-6.588-11.005-10.23-24.199-14.062-36.352-2.556-8.086-4.83-16.248-7.264-24.367-4.398-14.677-6.187-29.902-7.078-45.153-.454-7.798.972-17.549 4.734-27.882s10.538-21.3 12.338-23.251c1.8-1.95.194-2.729.194-2.729-2.19-2.633-11.479-11.358-11.479-11.358-7.88-7.849-20.962-7.799-20.962-7.799-2.87 5.752-5.838 6.191-5.838 6.191C2.967 27.25.242 19.354.048 18.477A3.4 3.4 0 0 1 .011 18a.2.2 0 0 1-.005-.054C-.058 15.715.584 7.88 6.08 6.39c6.129-1.657 8.269 4.924 8.269 4.924h.907c3.366-.038 6.858-.364 10.186.183 7.399 1.225 14.716 3.45 21.185 7.317 3.07 1.836 5.625 4.435 8.674 6.245 1.193.704 2.086.97 2.74 1.033 1.12.104 1.54-.4 1.54-.4l2.432-2.487S76.41 9.685 95.736 3.965a108 108 0 0 1 5.355-1.435c16.943-4.051 31.323-2.81 46.719.72 16.991 3.9 33.332 13.713 37.484 18.134 4.151 4.419 6.582 2.503 6.582 2.503 11.673-9.066 28.794-8.043 28.794-8.043s-.048-2.437 2.19-3.85 5.689-1.9 9.483.194c3.79 2.096 5.347 5.948 1.165 9.506"/><path fill="#106F55" d="m217.424 166.674 1.201 2.893-6.225 2.211s5.252-5.979 6.938-8.84c1.686-2.859 12.062-16.508 8.69-38.941-3.372-22.432-20.753-30.47-20.753-30.47 5.902-1.105 11.997 3.965 11.997 3.965l-7.264-15.014c6.291-1.106 6.955-4.924 6.955-4.924l-.34-3.948c-3.113-22.52-29.377-45.917-29.377-45.917-5.448-4.29-35.992-29.636-74.707-18.913-38.715 10.724-53.89 45.918-53.89 45.918-2.627 3.996-4.28 11.6-4.28 11.6-1.945 13.747 12.453 14.332 12.453 14.332l-6.875 14.2c11.154-6.498 16.408-3.379 16.408-3.379-23.346 13.909-25.54 35.55-25.54 35.55-2.92 29.832 26.511 50.239 26.511 50.239s-7.505 1.246-11.856-2.227c.503.401.806 2.904 1 3.537a113 113 0 0 0 3.274 9.142c3.518 8.66 8.073 17.103 14.3 24.123 4.696 5.303 10.544 9.153 16.337 13.112 0 .72 5.198 3.553 5.944 4.062q3.17 2.162 6.339 4.334c4.432 3.026 9.133 5.925 13.175 9.445 2.156 1.884 4.33 3.677 6.756 5.216 7.68 4.864 16.959 7.301 25.859 4.615-4.21 3.098-9.014 3.748-13.927 3.255-.01 0-.016-.006-.026-.006-19.062-3.467-48.562-18.686-48.562-18.686-43.709-25.347-43.221-69.086-43.221-69.086 3.501 2.048 9.825 2.34 9.825 2.34-21.596-22.618-18.872-33.146-18.872-45.235S53 98.172 53 98.172c-2.335 1.04-4.215 0-4.215 0-3.518-3.802 2.648-10.425 3.258-11.065-.514.454-5.204 4.511-8.512 2.486-3.502-2.144-4.573-12.48-4.573-12.48a38.6 38.6 0 0 1 .173-9.07c.92-6.911 3.648-12.738 7.436-18.49 1.779-2.697 3.184-5.638 4.945-8.351a100 100 0 0 1 6.193-8.487c6.09-7.49 13.256-14.13 21.31-19.465 6.38-4.23 14.406-8.13 22.075-10.718 16.943-4.052 31.323-2.811 46.719.72 16.991 3.9 33.333 13.713 37.484 18.134 4.149 4.418 6.583 2.502 6.583 2.502 11.673-9.066 28.793-8.042 28.793-8.042s-.243.996.449 2.383c-.406-.006-16.024-.077-24.346 11.347 0 0-.363 1.592 1.535 2.07-.276 1.83.8 2.481.8 2.481 20.364 24.306 19.423 36.119 19.423 36.119l.535 3.9-.048 5.118 1.124 10.529s4.226 19.693 6.561 25.541c2.336 5.851 3.988 19.401 3.988 19.401 1.944 22.027-13.265 31.939-13.265 31.939"/><path fill="url(#paint0_linear_10907_996)" d="M225.213 22c-.891-.46-1.61-.926-2.065-1.137-1.557-.73-5.172.195-5.172.195-7.134 1.039-18.937 7.734-19.553 10.008a5 5 0 0 0-.119.574c-1.896-.476-1.535-2.07-1.535-2.07 8.322-11.421 23.94-11.352 24.346-11.347.558 1.118 1.72 2.478 4.098 3.778"/><path fill="#03623A" d="M232.34 12.186c-3.794-2.096-7.248-1.608-9.484-.194-2.236 1.413-2.189 3.85-2.189 3.85s-.244.996.448 2.383c.557 1.116 1.718 2.476 4.096 3.776 2.156 1.115 5.334 2.21 8.295-.309 4.184-3.56 2.627-7.41-1.166-9.506m-2.869 7.36c-1.633-.303-3.481-1.175-4.529-2.497-.535-.678-.811-1.501-.583-2.351.254-.965.827-1.544 1.556-1.885.957-.454 2.184-.493 3.296-.454 1.757.059 4.085.494 4.637 2.458 1.021 3.61-1.994 5.17-4.377 4.73"/><path fill="#0E573F" d="M146.501 255.842c-5.777-.574-11.711-2.723-17.013-4.311a145 145 0 0 1-12.64-4.453c-12.5-5.048-25.25-11.396-35.738-19.98-9.965-8.152-16.7-18.171-23.184-29.003-6.588-11.006-10.23-24.2-14.062-36.353-2.555-8.085-4.83-16.248-7.263-24.367-4.399-14.677-6.188-29.901-7.08-45.152-.453-7.799.974-17.55 4.735-27.882 3.762-10.334 10.539-21.301 12.339-23.252 1.8-1.95.194-2.729.194-2.729-2.19-2.632-11.48-11.358-11.48-11.358-7.879-7.848-20.962-7.798-20.962-7.798a9 9 0 0 0 .395-1.7s19.255-2.589 36.57 16.031c0 0 3.727-6.419 6.728-7.447 1.119.103 1.54-.401 1.54-.401l2.432-2.487S76.408 9.682 95.733 3.962a108 108 0 0 1 5.355-1.435c-7.67 2.588-15.694 6.488-22.076 10.718C70.96 18.58 63.794 25.22 57.702 32.71a100 100 0 0 0-6.192 8.486c-1.763 2.713-3.166 5.654-4.945 8.351-3.788 5.753-6.517 11.58-7.436 18.49a38.6 38.6 0 0 0-.173 9.072s1.071 10.333 4.573 12.479c3.308 2.025 7.998-2.03 8.512-2.487-.61.64-6.776 7.264-3.258 11.066 0 0 1.88 1.04 4.215 0 0 0-7.328 14.916-7.328 27.005s-2.723 22.617 18.872 45.235c0 0-6.324-.293-9.826-2.341 0 0-.485 43.74 43.222 69.087 0 .005 29.5 15.224 48.562 18.689"/><path fill="url(#paint1_linear_10907_996)" d="M58.04 26.09c-2.999 1.028-6.728 7.447-6.728 7.447-17.315-18.62-36.57-16.032-36.57-16.032.426-3.034-.395-6.196-.395-6.196h.909c3.366-.037 6.858-.364 10.186.184 7.399 1.224 14.716 3.449 21.185 7.317 3.07 1.836 5.625 4.435 8.674 6.244 1.193.706 2.084.97 2.739 1.036"/><path fill="#218139" d="M14.742 17.505s-4.19 7.004-9.004 5.112C1.075 20.787.07 18.627.01 17.997a.2.2 0 0 1-.005-.053C-.06 15.712.582 7.876 6.078 6.386c6.129-1.658 8.269 4.923 8.269 4.923s.821 3.162.395 6.196"/><path fill="#05382A" d="M14.742 17.505a9 9 0 0 1-.395 1.7c-2.87 5.753-5.836 6.191-5.836 6.191C2.965 27.248.242 19.352.05 18.475a3.4 3.4 0 0 1-.038-.476c.059.627 1.064 2.79 5.729 4.62 4.813 1.89 9.002-5.114 9.002-5.114"/><path fill="#67FE57" d="M219.336 162.938c-1.686 2.859-6.938 8.84-6.938 8.84l6.225-2.211.389 8.157c.676 7.155-3.658 14.704-7.317 20.543-13.43 21.421-31.938 38.319-51.241 54.329-8.9 2.687-18.179.25-25.859-4.614-2.426-1.539-4.6-3.332-6.756-5.216-4.042-3.521-8.743-6.419-13.175-9.446-2.113-1.445-4.226-2.893-6.339-4.333-.746-.51-5.944-3.342-5.944-4.062-5.793-3.959-11.641-7.809-16.337-13.112-6.225-7.02-10.782-15.464-14.3-24.123-1.222-3-2.32-6.05-3.274-9.142-.194-.633-.498-3.136-1-3.537 4.35 3.472 11.856 2.226 11.856 2.226s-29.43-20.408-26.513-50.238c0 0 2.194-21.643 25.54-35.55 0 0-5.252-3.12-16.407 3.38l6.874-14.202s-14.396-.584-12.45-14.331c0 0 1.654-7.604 4.28-11.6 0 0 15.174-35.194 53.889-45.918S183.8 23.402 189.246 27.69c0 0 26.264 23.397 29.377 45.918l.34 3.948s-.666 3.818-6.955 4.923l7.264 15.014s-6.095-5.07-11.997-3.964c0 0 17.381 8.037 20.753 30.47s-7.006 36.08-8.692 38.939"/><path fill="#CAEFA3" d="M211.912 165c-14.072 15.366-33.706 12.236-38.375 11.261-4.594-.959-3.881-4.745-3.858-4.865.443 1.121.762 1.647.762 1.647 4.869 3.797 14.91 1.825 20.233.943 18.412-3.05 30.279-20.201 30.268-37.787.125.346 4.865 13.636-9.03 28.801m-111.379 10.772c-32.095-9.504-34.274-34.857-34.333-35.616.8 3.271 2.015 6.542 3.723 9.392 1.784 2.978 3.987 5.643 6.442 8.085 6.62 6.587 14.84 11.444 23.481 14.861 4.615 1.825 9.528 3.478 14.499 4.344 5.35.932 10.743.595 16.137.465 2.41-.058 4.886-.714 6.405-2.306 1.135 1.668-3.767 10.427-36.354.775"/><path fill="#80D65A" d="M216.615 114.712s-.74-12.814-17.532-15.073a11.2 11.2 0 0 0-2.757-.048c-4.544.51-17.585 3.845-24.875 25.077.151-.856 5.231-28.273 28.155-28.77 3.783-.082 7.517 1.105 10.48 3.467 3.388 2.706 6.869 7.429 6.529 15.347m-95.876-1.176c-4.156-7.094-13.521-17.472-32.9-18.16a12 12 0 0 0-3.026.26c-5.42 1.19-21.903 6.895-23.287 32.361a38 38 0 0 1-.162-3.026 54 54 0 0 1 .352-7.474c.374-3.223 1.048-6.43 2.14-9.489 1.183-3.303 2.874-6.456 5.21-9.087 2.571-2.904 5.88-5.043 9.549-6.265 3.658-1.22 7.781-1.626 11.646-1.587 2.33.022 4.658.37 6.901.986 3.269.893 6.371 2.356 9.176 4.256 3.81 2.573 7.057 5.915 9.764 9.624 1.751 2.398 3.286 4.954 4.637 7.601"/><path fill="#30A038" d="M130.196 200.941c-1.4 4.751-11.209 6.029-21.903 2.854-10.7-3.175-18.235-9.597-16.83-14.347 1.406-4.751 11.215-6.029 21.909-2.854 10.695 3.173 18.229 9.597 16.824 14.347m69.07.412c-8.025 2.638-15.84.797-17.449-4.116s3.589-11.037 11.614-13.681 15.835-.802 17.444 4.111c1.61 4.916-3.589 11.042-11.609 13.686"/><path fill="#1F7B31" d="M123.645 120.014q-.16-.374-.334-.737a30 30 0 0 0-1.206-2.301c-.14-.249-.286-.486-.432-.725a31 31 0 0 0-.918-1.392q-.17-.246-.345-.482a13 13 0 0 0-.35-.47 15 15 0 0 0-.363-.466c-.119-.151-.238-.303-.368-.454a7 7 0 0 0-.249-.298q-.195-.236-.406-.47a31 31 0 0 0-2.805-2.806 25 25 0 0 0-1.177-.991q-.3-.243-.599-.471a15 15 0 0 0-.47-.358 21 21 0 0 0-.859-.617 38 38 0 0 0-1.729-1.137 41 41 0 0 0-2.426-1.381c-.151-.082-.302-.157-.453-.234a38 38 0 0 0-2.659-1.241 48 48 0 0 0-2.195-.866q-.527-.194-1.037-.363a41 41 0 0 0-2.34-.721 40 40 0 0 0-1.769-.454q-.17-.042-.329-.077c-.265-.059-.508-.114-.734-.157a19 19 0 0 0-.621-.124 11 11 0 0 0-.498-.088c-.124-.021-.233-.043-.33-.053-.102-.016-.188-.032-.248-.038q-.054-.009-.087-.01-.026-.008-.027-.006c-29.377-2.34-33.754 27.975-33.754 27.975 1.383-25.467 17.866-31.169 23.287-32.362.994-.217 2.01-.297 3.025-.26 19.38.688 28.744 11.066 32.901 18.16a71 71 0 0 1 2.904 6.475m92.97-5.302c-2.643-6.212-9.057-9.786-12.646-11.368a12.8 12.8 0 0 0-5.708-1.095c-16.391.72-26.463 21.691-26.81 22.417 7.29-21.232 20.331-24.567 24.875-25.076.92-.104 1.843-.077 2.757.048 16.79 2.26 17.532 15.074 17.532 15.074"/><path fill="#1F7C30" d="M137.908 160.856c-.324-4.121-.784-8.101-1.599-12.028-.681-3.282-1.609-6.521-2.929-9.77-2.826-6.977-6.658-13.8-11.673-19.531-7.052-8.064-17.543-14.244-28.463-14.433-8.322-.146-16.392 4.246-21.774 10.431-5.522 6.342-7.306 14.353-5.723 22.547.13.688.28 1.382.453 2.07v.016c.8 3.271 2.015 6.541 3.723 9.392 1.784 2.978 3.987 5.643 6.442 8.085 6.62 6.587 14.84 11.444 23.481 14.861 4.615 1.825 9.528 3.478 14.499 4.344 5.35.932 10.743.595 16.137.465 2.41-.059 4.886-.715 6.405-2.306.875-.91 1.432-2.129 1.487-3.71.128-3.467-.196-6.977-.466-10.433m-1.06 12.089s-.519 2.599-9.08 1.95c0 0-26.199 1.69-43.709-12.868-17.508-14.557-19.066-27.491-15.045-37.338s26.588-20.634 43.969-7.246c17.38 13.389 22.309 27.816 23.865 41.335 1.556 13.516 0 14.167 0 14.167"/><path fill="url(#paint2_linear_10907_996)" d="M136.848 172.947s-.519 2.599-9.08 1.95c0 0-26.199 1.69-43.709-12.868-17.508-14.558-19.066-27.492-15.045-37.338s26.588-20.634 43.969-7.246c17.38 13.388 22.309 27.816 23.865 41.335 1.556 13.518 0 14.167 0 14.167"/><path fill="#1F7C30" d="M220.942 136.197c.011 17.586-11.856 34.739-30.268 37.787-5.323.883-15.364 2.854-20.233-.943 0 0-.319-.525-.762-1.647-.297-.768-.66-1.82-1.01-3.167.384 1.214 1.048 2.567 2.195 3.547 1.638 1.392 5.021 1.191 6.993 1.246a63 63 0 0 0 11.22-.704c8.425-1.284 16.498-6.754 22.373-12.788 7.442-7.641 10.398-18.176 7.982-28.623-4.425-19.098-28.086-25.364-41.315-10.995-4.292 4.658-6.885 10.638-8.441 16.72-2.471 9.679-1.763 18.923-1.535 28.711 0 0 .01.499.135 1.241-1.053-4.87-1.816-12.685-.406-24.043 1.541-12.392 7.821-27.524 19.32-33.563 11.819-6.212 26.691 1.913 31.246 13.665 1.702 4.392 2.506 8.986 2.506 13.556"/><path fill="url(#paint3_linear_10907_996)" d="M211.446 159.532c-5.874 6.034-13.947 11.504-22.373 12.787a63 63 0 0 1-11.219.705c-1.973-.054-5.356.146-6.994-1.246-1.145-.981-1.81-2.336-2.194-3.548-.011-.016-.011-.032-.016-.048a39 39 0 0 1-.34-1.392q-.015-.098-.038-.205c-.124-.741-.135-1.24-.135-1.24-.227-9.786-.935-19.032 1.535-28.711 1.557-6.082 4.15-12.063 8.441-16.72 13.23-14.369 36.889-8.104 41.316 10.994 2.415 10.447-.541 20.982-7.983 28.624"/><path fill="#fff" d="M197.159 132.52c-2.983 10.139-9.21 12.868-14.656 9.229-5.448-3.639-1.037-17.753-1.037-17.753s2.465-7.724 10.376-4.865c-.001 0 8.299 3.25 5.317 13.389m-5.836 23.593c-1.75 4.289-3.566 4.615-5.835 2.795s-.064-9.879 3.306-8.059c0-.002 4.279.973 2.529 5.264"/><path fill="#33352F" d="M217.976 137.135c-.26 3.704-7.782 14.753-7.782 14.753l-2.139-3.249c3.955-5.46 6.808-14.624 6.808-14.624zm-8.106 17.222s-7.911 9.749-17.38 12.479c0 0 13.165-11.504 14.396-15.923z"/><path fill="#fff" d="M112.595 144.024c-4.409 1.82-12.646-2.014-15.369-8.97-2.723-6.953-5.426-11.698 4.388-15.729 0 0 10.657-3.889 14.549 9.528 3.89 13.415.841 13.351-3.568 15.171m2.593 15.078c-.178 1.485-.989 2.686-2.502 2.995-2.535.51-4.123-.731-5.491-2.676-.67-.959-1.27-2.019-1.524-3.174-.292-1.321-.26-2.888 1.037-3.603 1.373-.763 3.226-1.246 4.718-.563.002.002 4.346 2.212 3.762 7.021"/><path fill="#33352F" d="m84.125 145.193-3.308 2.275c-6.875-5.979-8.56-18.198-8.56-18.198l5.381-2.925c-.451 3.836 6.487 18.848 6.487 18.848m24.178 21.8c-.53-.194-17.531-6.467-25.572-16.409l3.987-3.114c.002-.002 4.196 9.087 21.585 19.523"/><path fill="#1B7A30" d="M174.948 213.11s-12.744 9.651-28.211 4.289c0 0-6.387-1.658-9.711-4.777l1.442-1.462-.389-.584-6.809 5.556h1.265l1.167-.781s11.089 11.797 21.692 10.92c0 0 7.198-.098 10.31-3.997s10.894-9.262 10.894-9.262zm-12.148 9.186c-2.583 1.315-5.398 2.322-8.086 2.415-8.306.292-19.358-10.139-19.358-10.139l.485-.877.536-.39.485.39c2.362 1.733 4.945 3.18 7.707 4.171 2.545.909 5.215 1.408 7.911 1.592 2.389.162 4.939.369 7.376.146h.005a17 17 0 0 0 2.049-.298c3.686-.78 7.312-2.253 10.695-3.9-.197.186-4.509 4.193-9.805 6.89"/><path fill="#203A2E" d="M162.8 222.296c-2.583 1.315-5.398 2.322-8.086 2.415-8.306.292-19.358-10.139-19.358-10.139l.485-.877.536-.39.485.39c2.362 1.733 4.945 3.18 7.707 4.171 2.545.909 5.215 1.408 7.911 1.592 2.389.162 4.939.369 7.376.146h.005c2.603.606 2.939 2.692 2.939 2.692"/><path fill="#141F1E" d="M172.609 215.406c-.2.184-4.513 4.193-9.809 6.89 0 0-.335-2.086-2.935-2.692a17 17 0 0 0 2.049-.298c3.685-.78 7.312-2.253 10.695-3.9"/><path fill="#CAEFA3" d="M157.049 181.622s-5.156-7.506-1.945-15.891c0 0-.39 10.235 1.945 15.891"/><path fill="#42BA3A" d="M162.394 188.045c-.13-.212-2.529-4.007-6.842-3.061-3.605.792-4.891 3.385-5.247 4.333.557-1.652 3.269-8.584 8.64-5.696 0 0 2.622 1.944 3.449 4.424"/><path fill="#CAEFA3" d="M161.914 188.738c-.302-.531-1.74-.954-2.259-1.142-1.469-.532-3.184-.51-4.695-.168-1.016.223-2.978.802-3.675 1.788.615-1.079 3.767-5.925 8.587-2.92-.002 0 1.311 1.175 2.042 2.442"/><path fill="#1E8A33" d="M155.305 198.471v.01l-.011.027c-.119.223-.238.449-.368.672a5 5 0 0 1-.178.308 6 6 0 0 1-.233.391q-.146.234-.292.46c-.103.157-.204.313-.313.465-.069.103-.146.205-.217.303l-.146.194-.119.152q-.033.047-.076.098a8 8 0 0 1-.292.34c-.071.082-.146.152-.212.218a3 3 0 0 1-.167.146c-.037.032-.076.059-.108.082a.7.7 0 0 1-.183.093.3.3 0 0 1-.109.005c-.681-.146-1.265-1.316-.729-5.947 0 0 1.254-2.935 2.967-1.901 1.606.964.887 3.554.786 3.884"/><path fill="#234B35" d="M156.029 196.683c-.114.481-.379 1.116-.724 1.788.103-.33.821-2.92-.785-3.884-1.713-1.034-2.966 1.901-2.966 1.901.357-3.044 1.842-4.955 2.82-5.903.541-.526 1.448-.314 1.713.39.617 1.624.281 4.284-.058 5.708"/><path fill="#1E8A33" d="M164.151 199.169c-.193 3.997-2.237 1.95-2.237 1.95s-1.352-1.408-2.426-3.704c0 0-.92-4.176 1.405-3.754 2.182.396 3.081 3.348 3.184 3.715a11 11 0 0 1 .074 1.793"/><path fill="#234B35" d="M164.075 197.376c-.103-.369-1-3.321-3.184-3.715-2.324-.422-1.405 3.754-1.405 3.754a13.8 13.8 0 0 1-1.026-2.973c-.448-2.069-.059-3.223.427-3.855.453-.59 1.307-.667 1.88-.2 1.503 1.233 2.95 4.093 3.308 6.989"/><path fill="#2F7245" d="M229.471 19.546c-1.633-.303-3.481-1.175-4.529-2.497-.535-.678-.811-1.501-.583-2.351.254-.965.827-1.544 1.556-1.885.957-.454 2.184-.493 3.296-.454 1.757.059 4.085.494 4.637 2.458 1.021 3.61-1.994 5.17-4.377 4.73"/><defs><linearGradient id="paint0_linear_10907_996" x1=".005" x2="235.996" y1="128.024" y2="128.024" gradientUnits="userSpaceOnUse"><stop stop-color="#02513B"/><stop offset=".191" stop-color="#04573B"/><stop offset=".435" stop-color="#0B663B"/><stop offset=".708" stop-color="#16813A"/><stop offset="1" stop-color="#26A53A"/></linearGradient><linearGradient id="paint1_linear_10907_996" x1=".001" x2="235.999" y1="128" y2="128" gradientUnits="userSpaceOnUse"><stop stop-color="#26A53A"/><stop offset=".292" stop-color="#16813A"/><stop offset=".565" stop-color="#0B663B"/><stop offset=".809" stop-color="#04573B"/><stop offset="1" stop-color="#02513B"/></linearGradient><linearGradient id="paint2_linear_10907_996" x1=".003" x2="235.999" y1="127.999" y2="127.999" gradientUnits="userSpaceOnUse"><stop stop-color="#0C0C0D"/><stop offset=".228" stop-color="#0D0F0E"/><stop offset=".404" stop-color="#111912"/><stop offset=".563" stop-color="#182919"/><stop offset=".711" stop-color="#214123"/><stop offset=".852" stop-color="#2C5E30"/><stop offset=".936" stop-color="#357439"/></linearGradient><linearGradient id="paint3_linear_10907_996" x1="10.007" x2="199.462" y1="85.342" y2="202.511" gradientUnits="userSpaceOnUse"><stop offset=".048" stop-color="#357439"/><stop offset=".053" stop-color="#347338"/><stop offset=".221" stop-color="#234626"/><stop offset=".371" stop-color="#162718"/><stop offset=".497" stop-color="#0F1310"/><stop offset=".583" stop-color="#0C0C0D"/></linearGradient></defs></svg>
