<svg xmlns="http://www.w3.org/2000/svg" fill="none" viewBox="0 0 272 256"><path fill="#F2F4F8" fill-rule="evenodd" d="M30.927 95.921c-1.826 11.76.324 23.861 2.557 35.489.861 1.858 2.747 3.109 5.071 3.91-4.767 10.066-7.387 21.043-7.387 32.534 0 48.662 47.09 88.146 105.174 88.146s105.208-39.393 105.208-88.146c0-11.611-2.673-22.696-7.532-32.845 1.944-.801 3.494-1.965 4.253-3.599 2.234-11.628 4.375-23.729 2.549-35.489-1.71-15.78-7.123-20.597-23.379-16.553-8.27 1.921-19.17 6.804-27.552 12.548-15.688-7.788-33.997-12.257-53.547-12.257-19.774 0-38.274 4.576-54.077 12.535-8.431-5.864-19.553-10.874-27.95-12.826-16.264-4.044-21.67.773-23.388 16.553m61.238 69.575c-12.329-5.44-33.4-4.062-33.4-4.062s.988 19.842 13.084 26.578c14.347 7.981 41.022 4.028 41.022 4.028s-2.267-18.454-20.706-26.585zm68.503 26.577s26.675 3.954 41.022-4.028c12.096-6.736 13.084-26.577 13.084-26.577s-21.071-1.379-33.4 4.061c-18.439 8.057-20.706 26.469-20.706 26.469zm-29.59 13.986c0 1.463 2.715 2.65 6.061 2.65s6.061-1.187 6.061-2.65c0-1.461-2.715-2.64-6.061-2.64s-6.061 1.137-6.061 2.64" clip-rule="evenodd"/><path fill="#F2F4F8" fill-rule="evenodd" d="M256.205 193.842a86.6 86.6 0 0 0-30.853-5.813h.017c-2.673 0-2.673-4.153 0-4.153a89.8 89.8 0 0 1 31.956 5.988 2.117 2.117 0 0 1 1.436 2.525 2.094 2.094 0 0 1-2.556 1.453M16.05 189.956a89.9 89.9 0 0 1 31.964-5.989v.025c2.673 0 2.665 4.153 0 4.153a86.5 86.5 0 0 0-30.86 5.813 2.09 2.09 0 0 1-2.549-1.454 2.125 2.125 0 0 1 1.445-2.548m21.163 11.901a56.5 56.5 0 0 1 15.773-2.649c2.658.015 2.653 4.152-.015 4.152a52.2 52.2 0 0 0-14.388 2.417c-4.334 1.271-9.29 3.065-12.454 5.997-1.959 1.818-4.898-1.113-2.93-2.932 3.844-3.554 9.132-5.515 14.014-6.985m15.773-2.649h.002-.017zm4.733 10.373a79 79 0 0 0-11.963 6.387 37.3 37.3 0 0 0-9.963 8.978 2.084 2.084 0 0 0 .739 2.84 2.13 2.13 0 0 0 2.848-.739c2.332-3.223 5.678-5.722 8.991-7.857a81 81 0 0 1 11.407-6.021 2.09 2.09 0 0 0 .748-2.841 2.13 2.13 0 0 0-2.84-.747zm162.661-6.304c4.886.122 9.73.932 14.388 2.409a48.6 48.6 0 0 1 7.032 2.599 21.4 21.4 0 0 1 5.405 3.406c1.96 1.81 4.898-1.113 2.94-2.941-3.819-3.546-9.075-5.514-13.99-6.984a56.4 56.4 0 0 0-15.775-2.642c-2.673 0-2.681 4.153 0 4.153m4.584 15.789a83 83 0 0 0-11.234-5.814v-.041a2.1 2.1 0 0 1-.747-2.841 2.15 2.15 0 0 1 2.848-.739c8.086 3.529 16.596 8.065 21.885 15.365a2.09 2.09 0 0 1-.739 2.84 2.124 2.124 0 0 1-2.839-.747c-2.392-3.297-5.771-5.856-9.174-8.023" clip-rule="evenodd"/><path fill="#6665DD" d="M.275 141.991c1.918-2.99 18.772-11.984 39.627-17.325a245 245 0 0 1 16.605-37.05c-.083 0 16.68-30.1 16.605-30.116a95 95 0 0 1-13.799-7.732 12 12 0 0 1-2-1.952 4.6 4.6 0 0 1-.665-2.433c0-.698.988-1.944 1.428-2.492a29 29 0 0 1 3.703-3.638 98 98 0 0 1 10.054-7.225c1.66-1.097 3.388-2.168 5.09-3.248 11.955-7.616 18.505-13.347 29.457-19.642 10.461-5.997 15.542-9.693 27.671-9.07 15.243 0 53.135 48.288 70.222 73.171 10.245 14.95 23.993 41.868 29.058 51.992a91 91 0 0 1 3.321.897c15.542 4.667 30.785 11.512 34.513 15.863 3.321 3.871-11.192 5.599-25.497 8.09-14.305 2.492-62.832 3.729-109.466 4.045s-101.065-1.246-112.913-3.115c-11.847-1.868-25.397-5.29-23.014-9.02"/><path fill="#FF99A5" d="M220.329 100.282s-30.719-7.7-84.841-7.7c-58.118 0-86.105 8.971-86.105 8.971s-3.32 6.311-4.765 9.966-4.716 13.147-4.716 13.147 42.284-7.574 96.399-7.574a609 609 0 0 1 97.254 8.223s-4.907-11.488-7.846-16.387c-2.939-4.901-5.38-8.646-5.38-8.646"/><path fill="#FFE600" d="M37.503 35.325c3.52-.515 8.302 10.265 8.302 10.265s11.076-2.982 12.803 0c1.726 2.982-7.788 10.141-7.788 10.141s5.745 10.108 3.927 12.209-12.063-4.277-12.063-4.277-7.813 8.804-10.362 7.475.34-12.8.34-12.8-11.05-4.7-10.294-7.49c.755-2.791 12.27-3.638 12.27-3.638s-.647-11.37 2.865-11.885"/></svg>