<svg xmlns="http://www.w3.org/2000/svg" fill="none" viewBox="0 0 272 256"><path fill="#F2F4F8" fill-rule="evenodd" d="M30.968 95.921c-1.83 11.76.324 23.861 2.56 35.489.862 1.858 2.75 3.109 5.078 3.91-4.774 10.066-7.398 21.043-7.398 32.534 0 48.662 47.153 88.146 105.313 88.146 58.159 0 105.345-39.393 105.345-88.146 0-11.611-2.677-22.695-7.542-32.845 1.947-.801 3.499-1.965 4.259-3.599 2.237-11.628 4.381-23.729 2.553-35.489-1.713-15.78-7.133-20.597-23.41-16.553-8.281 1.921-19.195 6.804-27.588 12.548-15.709-7.788-34.042-12.257-53.617-12.257-19.8 0-38.325 4.576-54.148 12.535-8.443-5.864-19.58-10.874-27.987-12.826-16.285-4.044-21.697.773-23.418 16.553m61.318 69.575c-12.346-5.44-33.444-4.062-33.444-4.062s.989 19.842 13.101 26.578c14.365 7.981 41.076 4.028 41.076 4.028s-2.27-18.454-20.733-26.585zm68.592 26.577s26.71 3.954 41.076-4.028c12.112-6.736 13.102-26.577 13.102-26.577s-21.099-1.379-33.445 4.061c-18.463 8.057-20.733 26.469-20.733 26.469zm-29.628 13.986c0 1.463 2.718 2.65 6.068 2.65s6.069-1.187 6.069-2.65c0-1.461-2.719-2.64-6.069-2.64s-6.068 1.137-6.068 2.64" clip-rule="evenodd"/><path fill="#F2F4F8" fill-rule="evenodd" d="M256.54 193.842a86.8 86.8 0 0 0-30.893-5.813h.017c-2.677 0-2.677-4.153 0-4.153a90 90 0 0 1 31.998 5.988 2.12 2.12 0 0 1 1.438 2.525 2.095 2.095 0 0 1-2.56 1.453m-240.469-3.886a90.1 90.1 0 0 1 32.006-5.989v.025c2.677 0 2.669 4.153 0 4.153a86.7 86.7 0 0 0-30.9 5.813 2.093 2.093 0 0 1-2.552-1.454 2.124 2.124 0 0 1 1.446-2.548m21.19 11.901a56.7 56.7 0 0 1 15.794-2.649c2.662.015 2.657 4.152-.015 4.152a52.3 52.3 0 0 0-14.407 2.417c-4.34 1.271-9.302 3.065-12.47 5.997-1.961 1.818-4.904-1.113-2.934-2.932 3.849-3.554 9.145-5.515 14.033-6.985m15.794-2.649h.002-.017zm4.74 10.373a79.3 79.3 0 0 0-11.98 6.387 37.3 37.3 0 0 0-9.975 8.978 2.08 2.08 0 0 0 .74 2.84 2.136 2.136 0 0 0 2.851-.739c2.336-3.223 5.686-5.722 9.003-7.857a81 81 0 0 1 11.423-6.021 2.093 2.093 0 0 0 .748-2.841 2.137 2.137 0 0 0-2.843-.747zm162.874-6.304c4.892.122 9.742.932 14.406 2.409a49 49 0 0 1 7.042 2.599 21.4 21.4 0 0 1 5.412 3.406c1.962 1.81 4.904-1.113 2.943-2.941-3.824-3.546-9.087-5.514-14.008-6.984a56.5 56.5 0 0 0-15.795-2.642c-2.677 0-2.685 4.153 0 4.153m4.589 15.789a83 83 0 0 0-11.248-5.814v-.041a2.1 2.1 0 0 1-.748-2.841 2.15 2.15 0 0 1 2.851-.739c8.098 3.529 16.619 8.065 21.914 15.365a2.09 2.09 0 0 1-.74 2.84 2.13 2.13 0 0 1-2.843-.747c-2.394-3.297-5.778-5.856-9.186-8.023" clip-rule="evenodd"/><path fill="#6665DD" d="M.276 141.991c1.92-2.99 18.796-11.984 39.679-17.325a245 245 0 0 1 16.626-37.05c-.083 0 16.701-30.1 16.627-30.116a95 95 0 0 1-13.817-7.732 12 12 0 0 1-2.004-1.952 4.6 4.6 0 0 1-.665-2.433c0-.698.99-1.944 1.43-2.492a29 29 0 0 1 3.708-3.638 98 98 0 0 1 10.067-7.225c1.663-1.097 3.392-2.168 5.096-3.248 11.972-7.616 18.53-13.347 29.496-19.642 10.475-5.997 15.562-9.693 27.708-9.07 15.263 0 53.204 48.288 70.314 73.171 10.257 14.95 24.024 41.868 29.096 51.992a92 92 0 0 1 3.325.897c15.562 4.667 30.825 11.512 34.558 15.863 3.325 3.871-11.206 5.599-25.53 8.09-14.324 2.492-62.915 3.729-109.61 4.045s-101.197-1.246-113.06-3.115c-11.863-1.868-25.43-5.29-23.044-9.02"/><path fill="#FF99A5" d="M220.617 100.282s-30.759-7.7-84.952-7.7c-58.193 0-86.217 8.971-86.217 8.971s-3.325 6.311-4.772 9.966-4.721 13.147-4.721 13.147 42.338-7.574 96.524-7.574a611 611 0 0 1 97.381 8.223s-4.912-11.488-7.856-16.387c-2.943-4.901-5.387-8.646-5.387-8.646"/><path fill="#FFE600" d="M37.552 35.325c3.525-.515 8.313 10.265 8.313 10.265s11.09-2.982 12.82 0c1.728 2.982-7.799 10.141-7.799 10.141S56.64 65.839 54.82 67.94s-12.08-4.277-12.08-4.277-7.822 8.804-10.374 7.475.34-12.8.34-12.8-11.064-4.7-10.308-7.49 12.287-3.638 12.287-3.638-.648-11.37 2.868-11.885"/></svg>
