<svg xmlns="http://www.w3.org/2000/svg" fill="none" viewBox="0 0 257 256"><path fill="url(#paint0_linear_10907_1023)" fill-rule="evenodd" d="M102.425 221.239c23.218 24.509 48.936 33.608 67.442 34.727q1.096.068 2.194 0c8.978-.33 17.335-.807 25.436-3.997a104 104 0 0 0 21.943-11.423 94.1 94.1 0 0 0 25.418-26.622c7.771-11.514 13.86-33.002 11.703-49.724a104.3 104.3 0 0 0-7.004-27.263 83 83 0 0 0-9.527-16.997c-4.89-7.103-13.327-13.892-20.59-18.526-13.166-7.884-17.469-9.429-34.176-16.34-21.049-8.706-44.135-24.208-54.255-29.305-4.42-2.227-2.607 3.612-1.423 5.477 4.753 7.489 6.927 12.779 7.823 15.186.878 2.329 1.17 4.052-.786 5.775-1.957 1.724-3.658 1.1-5.486-.11l-.003-.002S13.114 6.78 1.972.653C-11.44-6.723 46.066 49.673 98.351 105.5c1.496 1.598 2.301 3.324 2.643 4.519a5.83 5.83 0 0 1-.139 3.633c-.896 2.64-3.218 3.19-5.486 3.373-.723.059-1.449.104-2.175.15-1.55.097-3.102.194-4.645.419a9 9 0 0 0-3.651 1.272 9.03 9.03 0 0 0-4.189 6.3 9.1 9.1 0 0 0 .233 3.868c1.554 5.721 3.017 11.423 4.06 17.235 1.243 6.949-1.555 9.461-8.175 6.949-7.415-2.808-14.713-5.817-22.047-8.84-3.536-1.457-7.08-2.918-10.648-4.361-5.486-2.237-9.467-3.881-16.457-6.619-2.758-1.08-4.366 1.559-2.835 4.1 2.284 3.79 46.927 51.377 77.585 83.741m121.001-68.287a54.6 54.6 0 0 1 3.859 21.314c-.183 27.942-24.906 54.784-54.547 53.574-28.691 1.834-53.944-27.172-53.944-53.171.091-31.792 24.265-55.829 53.633-55.994a54.2 54.2 0 0 1 21.215 4.096 54.3 54.3 0 0 1 17.945 12.061 54.5 54.5 0 0 1 11.839 18.12" clip-rule="evenodd"/><path fill="url(#paint1_linear_10907_1023)" d="M61.817 121.857a8.56 8.56 0 0 0 2.366 5.987 8.5 8.5 0 0 0 5.862 2.63 8.1 8.1 0 0 0 3.241-.702 8.18 8.18 0 0 0 4.404-4.785 8.2 8.2 0 0 0 .438-3.295 8.8 8.8 0 0 0-2.625-5.912 8.75 8.75 0 0 0-5.951-2.504 8.33 8.33 0 0 0-5.586 2.733 8.38 8.38 0 0 0-2.15 5.848"/><path fill="url(#paint2_linear_10907_1023)" d="M117.762 42.508c4.447-.259 7.899-3.19 7.881-8.27a8.46 8.46 0 0 0-2.521-5.519c-1.494-1.463-3.199-2.31-5.561-2.4-4.656-.18-8.853 3.49-8.723 8.158.071 2.539 1.138 4.356 2.81 5.861s3.585 2.317 6.114 2.17"/><path fill="url(#paint3_linear_10907_1023)" d="M21.523 93.874a7.22 7.22 0 0 0-2.103-5.46 7.2 7.2 0 0 0-5.45-2.094 8.35 8.35 0 0 0-5.263 2.533 8.4 8.4 0 0 0-2.325 5.369 7.93 7.93 0 0 0 2.396 5.121 7.9 7.9 0 0 0 5.192 2.213 7.31 7.31 0 0 0 7.079-4.712c.36-.947.522-1.958.474-2.97"/><path fill="url(#paint4_linear_10907_1023)" d="M172.738 227.84c29.641 1.302 54.364-25.632 54.547-53.574a54.6 54.6 0 0 0-3.859-21.314 54.5 54.5 0 0 0-11.839-18.12 54.3 54.3 0 0 0-17.945-12.061 54.2 54.2 0 0 0-21.215-4.096c-29.368.165-53.542 24.202-53.633 55.994-.092 25.999 25.253 55.005 53.944 53.171"/><defs><linearGradient id="paint0_linear_10907_1023" x1="276.201" x2="-22.815" y1="161.278" y2="80.68" gradientUnits="userSpaceOnUse"><stop stop-color="#E2107B"/><stop offset="1" stop-color="#C991DD"/></linearGradient><linearGradient id="paint1_linear_10907_1023" x1="256.67" x2="-1.096" y1="127.727" y2="127.727" gradientUnits="userSpaceOnUse"><stop stop-color="#E2107B"/><stop offset="1" stop-color="#C991DD"/></linearGradient><linearGradient id="paint2_linear_10907_1023" x1="257.004" x2=".33" y1="128.056" y2="128.056" gradientUnits="userSpaceOnUse"><stop stop-color="#E2107B"/><stop offset="1" stop-color="#C991DD"/><stop offset="1" stop-color="#C991DD"/></linearGradient><linearGradient id="paint3_linear_10907_1023" x1="257.47" x2=".62" y1="127.586" y2="127.586" gradientUnits="userSpaceOnUse"><stop stop-color="#E2107B"/><stop offset="1" stop-color="#C991DD"/></linearGradient><linearGradient id="paint4_linear_10907_1023" x1="276.055" x2="141.012" y1="224.037" y2="172.116" gradientUnits="userSpaceOnUse"><stop stop-color="#C991DD"/><stop offset="1" stop-color="#E2107B"/></linearGradient></defs></svg>