<svg xmlns="http://www.w3.org/2000/svg" fill="none" viewBox="0 0 227 256"><path fill="#fff" d="M196.85 89.054C161.354 68.525 186.805 25.727 211.639 0L79.883 136.492a17.83 17.83 0 0 1-21.761 3.057c-15.857-9.17-21.29-29.48-12.135-45.363l4.52-7.844c8.307-14.411 25.77-20.227 40.78-14.33L140.142 21.4c-7.198 7.457-24.205 20.861-34.645 14.823-28.83-16.673-65.696-6.778-82.342 22.1L8.085 84.468C-8.56 113.347 1.32 150.273 30.15 166.946 65.647 187.475 40.195 230.274 15.361 256l131.756-136.492a17.83 17.83 0 0 1 21.762-3.056c15.857 9.17 21.29 29.48 12.135 45.363l-4.521 7.844c-8.307 14.411-25.769 20.227-40.78 14.331l-48.855 50.611c7.198-7.458 24.205-20.861 34.646-14.823 28.83 16.673 65.696 6.778 82.34-22.101l15.07-26.145c16.646-28.878 6.768-65.805-22.064-82.478"/></svg>