<svg xmlns="http://www.w3.org/2000/svg" fill="none" viewBox="0 0 280 256"><path fill="url(#paint0_linear_9884_966)" d="m57.668 14.758 217.105 148.265-53.692 79.387L3.975 92.977z"/><path fill="url(#paint1_linear_9884_966)" d="M221.081 241.242c-18.676 26.852-81.707 16.345-141.236-25.683-59.529-42.029-93.378-95.731-74.703-123.75 18.676-26.851 81.707-16.344 141.236 25.684s92.211 96.898 74.703 123.749"/><path fill="url(#paint2_linear_9884_966)" d="M274.773 163.023c-18.675 26.852-81.706 16.345-141.235-25.683-60.696-40.861-93.379-95.731-75.87-122.583 18.676-26.85 81.707-16.344 141.236 25.684 60.696 39.694 93.378 95.731 75.869 122.582"/><path fill="#fff" fill-rule="evenodd" d="M266.603 158.354c-16.341 23.349-73.536 11.674-128.396-26.852C82.18 92.977 49.497 43.944 65.839 20.595c16.34-23.35 73.535-11.675 128.395 26.851s87.543 87.559 72.369 110.908m-51.358-35.024c-8.171 11.675-36.185 5.837-64.198-12.842-26.847-18.679-43.188-43.195-35.017-54.87s36.184-5.837 64.198 12.842c26.846 18.68 43.187 43.196 35.017 54.87" clip-rule="evenodd"/><path fill="#fff" d="M52.999 41.609c0-1.168-1.167-2.335-2.335-1.168s-2.334 1.168-2.334 2.335c1.167 3.503 2.334 5.837 2.334 8.172 0 1.168 1.168 2.335 2.335 1.168 1.167 0 2.334-1.168 1.167-2.335 0-2.335 0-4.67-1.167-8.172m5.836 18.679c0-1.167-1.167-2.335-2.334-1.167s-1.167 1.167-1.167 2.334c12.84 29.187 39.686 60.708 74.703 84.057 1.167 1.167 2.334 0 3.501 0 1.168-1.168 0-2.335 0-3.503-36.184-23.349-61.863-53.702-74.703-81.721m141.236 114.41c-1.168 0-2.335 0-2.335 1.167s0 2.335 1.167 2.335c3.502 1.168 8.171 2.335 11.673 3.503 1.167 0 2.334 0 2.334-1.168s0-2.335-1.167-2.335c-3.502-1.167-8.171-2.335-11.672-3.502m21.01 4.67c-1.167 0-2.334 1.167-2.334 2.335s1.167 2.335 2.334 2.335c9.338 1.167 19.843 2.334 28.014 1.167 1.167 0 2.334-1.167 2.334-2.335s-1.167-2.335-2.334-2.335c-9.338 1.168-18.676 0-28.014-1.167"/><defs><linearGradient id="paint0_linear_9884_966" x1="99.314" x2="151.324" y1="-23.706" y2="140.175" gradientUnits="userSpaceOnUse"><stop stop-color="#03B8FF"/><stop offset="1" stop-color="#FA52A0"/></linearGradient><linearGradient id="paint1_linear_9884_966" x1="65.969" x2="113.325" y1="-11.446" y2="144.39" gradientUnits="userSpaceOnUse"><stop stop-color="#03B8FF"/><stop offset="1" stop-color="#FA52A0"/></linearGradient><linearGradient id="paint2_linear_9884_966" x1="102.034" x2="172.424" y1="-23.978" y2="183.085" gradientUnits="userSpaceOnUse"><stop stop-color="#03B8FF"/><stop offset="1" stop-color="#FA52A0"/></linearGradient></defs></svg>