<svg xmlns="http://www.w3.org/2000/svg" fill="none" viewBox="0 0 279 256"><path fill="url(#paint0_linear_9884_966)" d="m57.569 14.758 216.733 148.265-53.6 79.387L3.968 92.977z"/><path fill="url(#paint1_linear_9884_966)" d="M220.702 241.242c-18.644 26.852-81.567 16.345-140.993-25.683-59.427-42.029-93.22-95.731-74.575-123.75C23.777 64.958 86.7 75.465 146.127 117.493s92.053 96.898 74.575 123.749"/><path fill="url(#paint2_linear_9884_966)" d="M274.302 163.023c-18.643 26.852-81.566 16.345-140.993-25.683-60.592-40.861-93.218-95.731-75.74-122.583 18.644-26.85 81.567-16.344 140.993 25.684 60.593 39.694 93.219 95.731 75.74 122.582"/><path fill="#fff" fill-rule="evenodd" d="M266.146 158.354c-16.313 23.349-73.41 11.674-128.176-26.852C82.039 92.977 49.413 43.944 65.726 20.595 82.039-2.755 139.135 8.92 193.9 47.446s87.393 87.559 72.245 110.908m-51.27-35.024c-8.157 11.675-36.123 5.837-64.088-12.842-26.801-18.679-43.114-43.195-34.957-54.87s36.122-5.837 64.088 12.842c26.8 18.68 43.113 43.196 34.957 54.87" clip-rule="evenodd"/><path fill="#fff" d="M52.908 41.609c0-1.168-1.165-2.335-2.33-1.168s-2.33 1.168-2.33 2.335c1.164 3.503 2.33 5.837 2.33 8.172 0 1.168 1.165 2.335 2.33 1.168 1.165 0 2.33-1.168 1.165-2.335 0-2.335 0-4.67-1.165-8.172m5.827 18.679c0-1.167-1.166-2.335-2.33-1.167-1.166 1.167-1.166 1.167-1.166 2.334 12.817 29.187 39.618 60.708 74.575 84.057 1.165 1.167 2.33 0 3.495 0 1.166-1.168 0-2.335 0-3.503-36.122-23.349-61.757-53.702-74.574-81.721m140.992 114.41c-1.165 0-2.33 0-2.33 1.167s0 2.335 1.165 2.335c3.496 1.168 8.157 2.335 11.653 3.503 1.165 0 2.33 0 2.33-1.168s0-2.335-1.165-2.335c-3.496-1.167-8.157-2.335-11.653-3.502m20.975 4.67c-1.165 0-2.331 1.167-2.331 2.335s1.166 2.335 2.331 2.335c9.322 1.167 19.809 2.334 27.966 1.167 1.165 0 2.33-1.167 2.33-2.335s-1.165-2.335-2.33-2.335c-9.322 1.168-18.644 0-27.966-1.167"/><defs><linearGradient id="paint0_linear_9884_966" x1="99.144" x2="151.226" y1="-23.706" y2="140.123" gradientUnits="userSpaceOnUse"><stop stop-color="#03B8FF"/><stop offset="1" stop-color="#FA52A0"/></linearGradient><linearGradient id="paint1_linear_9884_966" x1="65.856" x2="113.28" y1="-11.446" y2="144.344" gradientUnits="userSpaceOnUse"><stop stop-color="#03B8FF"/><stop offset="1" stop-color="#FA52A0"/></linearGradient><linearGradient id="paint2_linear_9884_966" x1="101.859" x2="172.345" y1="-23.978" y2="183.011" gradientUnits="userSpaceOnUse"><stop stop-color="#03B8FF"/><stop offset="1" stop-color="#FA52A0"/></linearGradient></defs></svg>
