<svg xmlns="http://www.w3.org/2000/svg" fill="none" viewBox="0 0 231 256"><path fill="#E2BCFF" d="M56.633 36.571c-8.942 0-17.884 1.493-25.336 5.225A58.9 58.9 0 0 0 8.815 63.69a59.04 59.04 0 0 0-8.07 30.35h49.926c2.981 0 5.962-2.24 5.962-5.225zM90.91 0c-5.961 0-11.177 1.493-14.903 3.732a36.53 36.53 0 0 0-14.534 13.233 36.6 36.6 0 0 0-5.585 18.86h31.296c2.236 0 3.726-1.493 3.726-2.985z"/><path fill="#E2BCFF" d="M90.91 82.1c-5.216 0-10.432 0-14.903-2.986a36.54 36.54 0 0 1-14.3-13.69 36.6 36.6 0 0 1-5.074-19.15h31.296c1.49 0 2.981 1.493 2.981 3.732v32.84zM105.813 256c-6.706 0-12.668-1.493-18.629-3.732-13.413-7.463-22.355-22.39-22.355-38.064h37.258c1.491 0 3.726 1.493 3.726 3.732z"/><path fill="#E2BCFF" d="M105.813 223.16q-25.708 0-46.945-11.195a111.1 111.1 0 0 1-43.11-41.062A111.34 111.34 0 0 1 .002 113.446h94.635c5.961 0 11.177 4.478 11.177 11.195zM231 112.7h-96.871c-5.961 0-11.177 5.224-11.177 11.941v101.505c17.139 0 33.532-3.732 48.435-11.196C207.155 196.292 231 157.481 231 113.446zm-42.474 32.839a7.44 7.44 0 0 1-5.551-2.443 7.47 7.47 0 0 1-1.901-5.767c0-4.478 2.981-8.209 7.452-8.209s7.451 3.731 7.451 7.463c0 5.225-2.98 8.956-7.451 8.956M157.229 71.65l14.903 15.674s7.452 7.463 15.649 7.463c8.942 0 14.903-7.463 14.903-7.463l15.648-15.674s-5.961-7.463-14.903-7.463-14.903 7.463-14.903 7.463-5.961-6.717-16.394-6.717c-9.687 0-14.903 6.717-14.903 6.717"/></svg>
