<svg xmlns="http://www.w3.org/2000/svg" fill="none" viewBox="0 0 327 256"><path fill="url(#paint0_linear_10905_710)" d="M294.297 154.948c-14.971-19.022-30.335-38.44-45.306-57.461 11.425-14.267 22.457-28.137 33.881-42.403 10.246-13.078 20.885-26.155 31.524-39.233L327 0l-20.492.396h-38.607c-9.057 0-16.543 0-23.635-.396h-1.975c-12.211 0-20.875 4.755-27.968 14.663-7.485 10.303-14.971 20.21-23.635 30.514l-10.639 13.077-4.735 5.944 4.735 5.945c9.45 12.284 18.91 24.173 28.361 36.061l17.338 22.193c-6.699 8.322-13.792 17.04-20.885 25.758l-4.725 5.945 4.725 5.944c1.582 1.981 3.154 3.962 4.735 5.944 4.332 5.548 8.665 11.096 12.604 16.248 3.939 5.151 9.057 7.926 15.364 7.926h68.549l19.304-.397-12.211-15.455zM106.765 7.926C102.433 2.378 97.315 0 90.615 0H0l12.608 15.851c15.365 19.022 30.335 38.044 45.306 56.67l43.733 54.687c-29.55 37.647-59.098 74.898-89.04 112.94L.395 256H89.83c8.271 0 12.997-4.359 15.757-7.926l.786-.792c28.763-36.062 58.313-73.313 87.459-109.771 3.94-4.756 6.7-12.285 0-21.003-31.907-38.836-60.277-74.502-87.066-108.582"/><defs><linearGradient id="paint0_linear_10905_710" x1="-.224" x2="326.99" y1="127.872" y2="127.872" gradientUnits="userSpaceOnUse"><stop stop-color="#E1FF66"/><stop offset="1" stop-color="#27FF93"/></linearGradient></defs></svg>