<svg xmlns="http://www.w3.org/2000/svg" fill="none" viewBox="0 0 181 256"><path fill="#8767D5" d="M78.728 107.178c13.801 10.756 29.49 18.794 42.23 31.087 20.407 19.74 30.198 46.336 17.576 73.759-13.212 28.606-46.005 50.946-83.516 41.963-31.85-7.684-53.908-34.989-54.97-67.967-.471-15.012 2.478-29.079 10.263-41.963 1.415-2.246 1.297-3.546-1.18-4.846-1.887-.946-4.954-1.773-4.836-3.783s3.303-2.364 5.308-3.428c9.555-4.964 19.11-9.929 28.665-14.775 1.297-.709 2.477-1.655 4.482-1.655-.59 14.303-1.18 28.487-1.887 43.026-3.067-.945-5.309-2.718-7.668-4.373-2.005-1.419-3.067-1.537-4.482.827-16.279 28.369-4.247 70.095 32.32 78.015 23.24 5.082 44.118-7.92 54.145-23.523 11.56-18.085 9.437-36.17-5.78-52.482-3.185-3.428-6.606-6.738-10.027-10.048-2.241-7.683-7.078-14.066-10.616-21.158-3.303-6.147-7.55-11.939-10.027-18.676"/><path fill="#B4B8FF" d="M78.728 107.178c2.477 6.737 6.724 12.529 9.909 19.031 3.538 7.092 8.375 13.475 10.616 21.158-9.319-6.383-18.874-12.648-27.957-19.385-10.498-7.684-19.11-17.14-25.243-28.724-8.847-16.903-10.027-34.634-2.123-52.128 11.088-24.94 30.198-41.253 57.093-46.1 28.9-5.318 57.918 10.403 71.366 36.644 12.268 23.877 11.206 47.518-1.77 70.686-2.477 4.373-1.887 6.383 2.359 8.156 1.77.709 3.185 2.009 5.663 3.546-13.33 6.856-26.188 13.475-39.753 20.567.59-15.012 1.179-29.314 1.887-44.444 2.595 1.655 4.719 2.837 6.724 4.255 2.005 1.419 3.185 1.182 4.482-.945 14.864-23.641 8.494-55.202-14.509-70.686-18.755-12.648-42.82-10.048-60.042 6.383-6.605 6.264-12.15 13.239-15.334 21.986-6.134 17.02-.59 31.205 10.616 43.971 1.887 2.128 4.01 4.019 6.016 6.029"/></svg>