<svg xmlns="http://www.w3.org/2000/svg" fill="none" viewBox="0 0 182 256"><path fill="#8767D5" d="M78.895 107.178c13.83 10.756 29.553 18.794 42.319 31.087 20.451 19.74 30.262 46.336 17.614 73.759-13.24 28.606-46.102 50.946-83.693 41.963C23.218 246.303 1.112 218.998.048 186.02c-.472-15.012 2.483-29.079 10.285-41.963 1.418-2.246 1.3-3.546-1.182-4.846-1.892-.946-4.965-1.773-4.847-3.783s3.31-2.364 5.32-3.428c9.575-4.964 19.15-9.929 28.725-14.775 1.3-.709 2.482-1.655 4.492-1.655-.591 14.303-1.182 28.487-1.892 43.026-3.073-.945-5.32-2.718-7.683-4.373-2.01-1.419-3.074-1.537-4.492.827-16.313 28.369-4.256 70.095 32.39 78.015 23.287 5.082 44.21-7.92 54.258-23.523 11.585-18.085 9.457-36.17-5.792-52.482-3.192-3.428-6.62-6.738-10.048-10.048-2.246-7.683-7.093-14.066-10.64-21.158-3.309-6.147-7.565-11.939-10.047-18.676"/><path fill="#B4B8FF" d="M78.895 107.178c2.482 6.737 6.738 12.529 9.93 19.031 3.546 7.092 8.393 13.475 10.639 21.158-9.339-6.383-18.914-12.648-28.016-19.385-10.521-7.684-19.15-17.14-25.297-28.724-8.866-16.903-10.048-34.634-2.128-52.128 11.112-24.94 30.262-41.253 57.214-46.1 28.961-5.318 58.041 10.403 71.517 36.644 12.294 23.877 11.23 47.518-1.773 70.686-2.482 4.373-1.891 6.383 2.364 8.156 1.773.709 3.192 2.009 5.674 3.546-13.357 6.856-26.242 13.475-39.837 20.567a5844 5844 0 0 1 1.892-44.444c2.6 1.655 4.728 2.837 6.738 4.255 2.009 1.419 3.191 1.182 4.492-.945 14.894-23.641 8.511-55.202-14.54-70.686-18.796-12.648-42.91-10.048-60.17 6.383-6.62 6.264-12.175 13.239-15.367 21.986-6.147 17.02-.59 31.205 10.64 43.971 1.89 2.128 4.018 4.019 6.028 6.029"/></svg>