<svg xmlns="http://www.w3.org/2000/svg" fill="none" viewBox="0 0 183 256"><path fill="#3576EE" fill-rule="evenodd" d="M15.463 0h83.285c8.437 0 15.394 6.916 15.394 15.366v83.743c0 8.422-6.929 15.366-15.394 15.366H15.463C7.026 114.475.07 107.559.07 99.109V15.366C.07 6.916 7.026 0 15.463 0m103.512 113.555h54.005c5.42 0 9.946 4.517 9.946 9.927v54.212c0 5.41-4.526 9.928-9.946 9.928h-54.005c-6.342 0-10.868-.307-10.868 9.649v49.694c0 5.131-4.218 9.035-9.052 9.035H49.576c-5.14 0-9.052-4.211-9.052-9.035v-49.667c0-5.131 4.219-9.035 9.052-9.035h49.48c7.85 0 9.945-2.705 9.945-10.541v-54.24c0-5.41 4.526-9.927 9.974-9.927" clip-rule="evenodd"/></svg>