<svg width="261" height="256" viewBox="0 0 261 256" fill="none" xmlns="http://www.w3.org/2000/svg">
<path d="M112.596 256H148.418V186.875L215.017 225.079L231.651 196.444L143.256 145.724C135.396 141.226 125.648 141.226 117.788 145.724L29.3769 196.444L46.0121 225.079L112.611 186.875V256H112.596Z" fill="white"/>
<path d="M0 145.886L16.6351 174.521L105.046 123.802C112.906 119.303 117.773 110.906 117.773 101.878V0H84.5026V76.8778L24.2742 42.3076L6.37088 73.1409L66.5843 107.696L0 145.886Z" fill="white"/>
<path d="M143.242 0V101.893C143.242 110.906 148.123 119.303 155.969 123.802L244.366 174.521L261 145.886L194.563 107.77L253.891 73.1847L235.989 42.3663L176.497 77.0242V0H143.242Z" fill="white"/>
</svg>
