<svg xmlns="http://www.w3.org/2000/svg" fill="none" viewBox="0 0 261 256"><path fill="#fff" d="M112.596 256h35.822v-69.125l66.599 38.204 16.634-28.635-88.395-50.72c-7.86-4.498-17.608-4.498-25.468 0l-88.411 50.72 16.635 28.635 66.599-38.204V256zM0 145.886l16.635 28.635 88.411-50.719c7.86-4.499 12.727-12.896 12.727-21.924V0h-33.27v76.878l-60.229-34.57L6.371 73.14l60.213 34.555zM143.242 0v101.893c0 9.013 4.881 17.41 12.727 21.909l88.397 50.719L261 145.886l-66.437-38.116 59.328-34.585-17.902-30.819-59.492 34.658V0z"/></svg>