<svg xmlns="http://www.w3.org/2000/svg" fill="none" viewBox="0 0 123 256"><path fill="#797979" fill-rule="evenodd" d="M59.177 1.942c12.149-5.38 26.307.843 30.51 13.41l11.454 34.239a33.88 33.88 0 0 1 11.722 25.615v84.831c0 7.624-6.203 13.805-13.855 13.805q-.34 0-.675-.016v36.539c0 5.548 3.992 10.298 9.474 11.271l5.058.898c5.864 1.04 10.135 6.12 10.135 12.056 0 1.447-.257 2.856-.737 4.168q.061.37.061.743c0 9.112-27.383 16.499-61.162 16.499S0 248.613 0 239.501c0-7.703 19.566-14.172 46.022-15.99l.587-78.561c-6.896-6.696-11.063-16.153-10.714-26.532l1.84-54.808a13.45 13.45 0 0 1 3.358-8.445l5.98-6.78a1.68 1.68 0 0 0 .414-1.227L45.858 24.02c-.663-9.418 4.66-18.243 13.319-22.078m8.406 168.89v60.147c-1.012.186-2.144.271-3.375.257-2.386-.026-4.868-.417-7.057-.911-1.666-.376-3.054-2.021-3.037-4.359l.438-58.675c2.802 1.311 9.175 3.342 13.03 3.541m17.57 2c0 3.33 2.11 6.169 5.07 7.263v30.27c0 9.465 6.81 17.567 16.162 19.227l5.058.898a4.17 4.17 0 0 1 3.447 4.1c0 1.983-1.353 3.53-3.107 3.821-8.471 1.406-23.163 3.221-34.508 1.509-.75-.113-1.583-.859-1.583-2.178v-86.546a4.3 4.3 0 0 0-4.306-4.291c-15.493 0-27.904-12.788-27.386-28.217l1.84-54.808a5.38 5.38 0 0 1 1.344-3.38l5.98-6.78a9.74 9.74 0 0 0 2.414-7.128l-1.63-23.138A14.35 14.35 0 0 1 62.47 9.327c7.774-3.443 16.834.54 19.524 8.581l11.754 35.138c.283.844.8 1.592 1.492 2.156a25.81 25.81 0 0 1 9.513 20.004v84.831c0 3.161-2.572 5.724-5.745 5.724s-5.744-2.563-5.744-5.724V81.583h-8.11z" clip-rule="evenodd"/><path fill="#F2FE67" fill-rule="evenodd" d="M67.527 170.835v60.148c-1.011.185-2.143.27-3.375.256-2.385-.025-4.867-.416-7.056-.911-1.667-.376-3.054-2.021-3.037-4.358l.438-58.676c2.802 1.311 9.174 3.342 13.03 3.541m17.572 2c0 3.33 2.108 6.169 5.068 7.263v30.271c0 9.464 6.811 17.566 16.163 19.226l5.058.898a4.17 4.17 0 0 1 3.447 4.1c0 1.984-1.353 3.53-3.107 3.822-8.471 1.405-23.163 3.22-34.508 1.508-.75-.113-1.583-.859-1.583-2.177v-86.547a4.3 4.3 0 0 0-4.306-4.291c-15.493 0-27.904-12.788-27.386-28.217l1.84-54.807a5.4 5.4 0 0 1 1.344-3.381l5.98-6.78a9.74 9.74 0 0 0 2.413-7.127l-1.63-23.138c-.424-6.027 2.983-11.673 8.523-14.128 7.774-3.442 16.834.54 19.524 8.582l11.754 35.137c.282.845.8 1.592 1.491 2.156a25.81 25.81 0 0 1 9.513 20.004v84.831c0 3.162-2.571 5.724-5.744 5.724s-5.744-2.562-5.744-5.724V81.586h-8.11z" clip-rule="evenodd"/></svg>
