<svg xmlns="http://www.w3.org/2000/svg" fill="none" viewBox="0 0 260 256"><path fill="#2E69FF" fill-rule="evenodd" d="M189.319 54.38a41.4 41.4 0 0 1 6.488-.34 64.5 64.5 0 0 1 44.564 18.349 64.28 64.28 0 0 1 19.348 44.073 63.8 63.8 0 0 1-18.975 44.313 64.04 64.04 0 0 1-44.596 18.463 54 54 0 0 1-7.851-.68c-.196.195-.279.278-.314.378-.026.074-.026.157-.026.302-7.993 17.869-19.492 30.495-34.427 46.253-.697 1.044-1.691 2.128-2.77 3.305-1.03 1.123-2.137 2.331-3.135 3.667l-.788.866-.017.019c-5.571 6.123-10.235 11.251-16.969 22.652-10.338-16.5-12.179-18.449-16.021-22.514-.448-.474-.923-.976-1.441-1.534a118 118 0 0 0-3.279-3.409c-.717-.717-1.348-1.349-2.925-3.067-7.31-6.461-26.476-28.284-34.426-45.884a63.06 63.06 0 0 1-37.989-6.718 62.9 62.9 0 0 1-26.931-27.575A63.14 63.14 0 0 1 9.8 83.945 63.3 63.3 0 0 1 32.796 62.04a63.45 63.45 0 0 1 30.757-8h.682c.9 0 1.802.094 2.655.183.763.08 1.486.156 2.129.156a66.5 66.5 0 0 1 15.375-17.047c2.887-2.245 5.775-4.178 8.65-6.104l.577-.386c-3.066-4.436-9.227-12.286-14.352-14.667a8.17 8.17 0 0 1-4.148-4.685 8.16 8.16 0 0 1 .386-6.24A8.18 8.18 0 0 1 80.2 1.11a8.2 8.2 0 0 1 6.252.384c11.272 5.13 22.899 22.192 22.899 22.532a75.3 75.3 0 0 1 19.818-2.735 69.1 69.1 0 0 1 23.921 4.095 7.4 7.4 0 0 0 1.022-1.7S166.08 6.285 176.67.829a8.19 8.19 0 0 1 9.005 1.215 8.17 8.17 0 0 1 2.749 5.613 8.15 8.15 0 0 1-4.57 7.84c-6.147 3.414-14.353 15.346-15.73 17.4a69 69 0 0 1 6.147 4.436 72 72 0 0 1 15.048 17.047m-88.67-1.828c9.27-7.51 16.908-10.486 28.861-10.472 11.925.057 19.563 3.019 28.861 10.486a37 37 0 0 1 7.297 7.27c-16.268 7.497-25.602 20.703-33.62 32.046l-.003.004a667 667 0 0 1-2.194 3.093 449 449 0 0 1-3.198-4.371l-.002-.003c-8.06-11.11-17.332-23.89-33.3-31.11 2.386-2.38 4.217-4.208 7.298-6.943m42.731 151.839s-4.217 3.188-7.042 5.059l-.198.141a13.02 13.02 0 0 1-14.168-.141l-6.488-5.059a104.7 104.7 0 0 1-23.027-31.275 76.9 76.9 0 0 0 25.44-19.456l5.111-5.116-13.998-19.102-7.864 8.177c-12.635 13.32-25.299 20.122-37.252 20.122a39.7 39.7 0 0 1-15.402-2.795 39.6 39.6 0 0 1-13.119-8.527 39.6 39.6 0 0 1-8.79-12.931 39.5 39.5 0 0 1 0-30.638 39.6 39.6 0 0 1 8.79-12.93 39.7 39.7 0 0 1 13.119-8.528 39.7 39.7 0 0 1 15.402-2.794 44.5 44.5 0 0 1 25.284 8.87 108.8 108.8 0 0 1 27.683 32.423l2.058 3.401c.097.13.333.544.707 1.2 3.596 6.309 19.948 34.999 47.504 48.284a108.4 108.4 0 0 1-23.75 31.615m51.746-47.33a40.4 40.4 0 0 1-16.752-4.081 82.9 82.9 0 0 1-21.181-17.062 130 130 0 0 1-14.012-18.762c7.865-12.612 27.683-39.578 52.285-39.238a39.7 39.7 0 0 1 15.385 2.866 39.7 39.7 0 0 1 13.075 8.585 39.6 39.6 0 0 1 8.728 12.966 39.5 39.5 0 0 1-.131 30.628 39.6 39.6 0 0 1-8.84 12.891 39.7 39.7 0 0 1-28.557 11.207" clip-rule="evenodd"/><path fill="#2E69FF" fill-rule="evenodd" d="M195.807 54.04a41.4 41.4 0 0 0-6.488.34 72 72 0 0 0-15.048-17.047 69 69 0 0 0-6.147-4.435c1.377-2.055 9.583-13.987 15.73-17.402a8.18 8.18 0 0 0 4.143-4.683 8.15 8.15 0 0 0-2.322-8.769 8.18 8.18 0 0 0-5.92-2.028 8.2 8.2 0 0 0-3.085.813c-10.59 5.456-22.558 22.858-22.558 22.858a7.4 7.4 0 0 1-1.022 1.7 69.1 69.1 0 0 0-23.921-4.095 75.3 75.3 0 0 0-19.818 2.735c0-.34-11.627-17.402-22.899-22.532A8.2 8.2 0 0 0 80.2 1.11a8.18 8.18 0 0 0-4.693 4.14 8.16 8.16 0 0 0-.386 6.241 8.17 8.17 0 0 0 4.148 4.685c5.125 2.38 11.286 10.232 14.352 14.667l-.576.386c-2.876 1.926-5.764 3.86-8.651 6.104A66.5 66.5 0 0 0 69.019 54.38c-.643 0-1.366-.076-2.129-.156-.853-.09-1.756-.184-2.655-.184h-.682a63.45 63.45 0 0 0-30.757 8.001A63.3 63.3 0 0 0 9.801 83.945a63.14 63.14 0 0 0-2.963 61.354 62.9 62.9 0 0 0 26.932 27.575 63.06 63.06 0 0 0 37.989 6.718c7.95 17.6 27.115 39.423 34.426 45.884 1.577 1.718 2.208 2.35 2.925 3.067.697.697 1.474 1.475 3.279 3.409.518.558.993 1.06 1.441 1.534 3.842 4.065 5.683 6.014 16.021 22.514 6.734-11.401 11.398-16.529 16.969-22.652l.017-.019.788-.866c.998-1.336 2.105-2.544 3.135-3.667 1.079-1.177 2.073-2.261 2.77-3.305 14.935-15.758 26.434-28.384 34.427-46.253 0-.145 0-.228.026-.302.035-.1.118-.183.314-.378a54 54 0 0 0 7.851.68 64.04 64.04 0 0 0 44.596-18.463 63.8 63.8 0 0 0 18.975-44.313 64.28 64.28 0 0 0-19.348-44.073 64.5 64.5 0 0 0-44.564-18.349M129.51 42.08c-11.953-.014-19.591 2.962-28.861 10.472-3.081 2.735-4.912 4.563-7.297 6.944 15.967 7.22 25.239 20 33.299 31.11l.002.002a449 449 0 0 0 3.198 4.371 667 667 0 0 0 2.194-3.093l.003-.004c8.018-11.343 17.352-24.55 33.62-32.046a37 37 0 0 0-7.297-7.27c-9.298-7.468-16.936-10.43-28.861-10.486m6.828 167.37c2.825-1.871 7.042-5.059 7.042-5.059a108.4 108.4 0 0 0 23.75-31.615c-27.556-13.285-43.908-41.975-47.504-48.284-.374-.656-.61-1.07-.707-1.2l-2.058-3.401a108.8 108.8 0 0 0-27.683-32.422 44.5 44.5 0 0 0-25.284-8.871 39.7 39.7 0 0 0-15.402 2.794 39.7 39.7 0 0 0-13.119 8.528 39.6 39.6 0 0 0-8.79 12.93 39.52 39.52 0 0 0 8.79 43.569 39.6 39.6 0 0 0 13.119 8.527 39.7 39.7 0 0 0 15.402 2.795c11.953 0 24.617-6.802 37.252-20.122l7.864-8.177 13.998 19.102-5.111 5.116a76.9 76.9 0 0 1-25.44 19.456 104.7 104.7 0 0 0 23.027 31.275l6.488 5.059a13.02 13.02 0 0 0 14.168.141zm42.036-56.47a40.4 40.4 0 0 0 16.752 4.081 39.7 39.7 0 0 0 28.557-11.207 39.53 39.53 0 0 0 11.994-28.192 39.5 39.5 0 0 0-3.023-15.327 39.6 39.6 0 0 0-8.728-12.966 39.7 39.7 0 0 0-13.075-8.585 39.7 39.7 0 0 0-15.385-2.866c-24.602-.34-44.42 26.626-52.285 39.238a130 130 0 0 0 14.012 18.762 82.9 82.9 0 0 0 21.181 17.062" clip-rule="evenodd"/></svg>