<svg xmlns="http://www.w3.org/2000/svg" fill="none" viewBox="0 0 276 256"><path fill="#33D130" fill-rule="evenodd" d="M213.137 256H88.803l21.445-36.206 124.571.192zM103.06 97.097 40.894 203.886l20.612 36.626 62.459-106.88-20.905-36.526zM63.115 27.703.959 134.49l20.613 36.618L84.03 64.229 63.125 27.712zm66.319 159.296h124.342l21.683-36.014-124.571-.183-21.454 36.206zm83.931-174.126 62.167 106.78-17.293-.128 8.505 15.35-10.846-.155-8.56-15.278-14.147-.109L171.07 12.261l16.351.237L180.718.54l11.605-.054 6.74 12.178zm-33.854 106.268 8.45 15.25-10.846-.156-8.505-15.177-16.003-.119-62.121-107.08 18.216.274L101.935.055 113.549 0l6.804 12.297 12.437.183 62.176 106.77z" clip-rule="evenodd"/></svg>
