<svg width="276" height="256" viewBox="0 0 276 256" fill="none" xmlns="http://www.w3.org/2000/svg">
<path fill-rule="evenodd" clip-rule="evenodd" d="M213.137 256H88.8033L110.248 219.794L234.819 219.986L213.137 256ZM103.06 97.0971L40.8935 203.886L61.506 240.512L123.965 133.632L103.06 97.1063V97.0971ZM63.1155 27.7029L0.958008 134.491L21.5705 171.109L84.0297 64.2286L63.1246 27.712L63.1155 27.7029ZM129.434 186.999H253.776L275.459 150.985L150.888 150.802L129.434 187.008V186.999ZM213.365 12.8731L275.532 119.653L258.239 119.525L266.744 134.875L255.898 134.72L247.338 119.442L233.191 119.333L171.07 12.2606L187.421 12.4983L180.718 0.539429L192.323 0.484571L199.063 12.6629L213.365 12.8731ZM179.511 119.141L187.961 134.391L177.115 134.235L168.61 119.058L152.607 118.939L90.486 11.8583L108.702 12.1326L101.935 0.0548571L113.549 0L120.353 12.2971L132.79 12.48L194.966 119.25L179.511 119.141Z" fill="#33D130"/>
</svg>
