<svg xmlns="http://www.w3.org/2000/svg" fill="none" viewBox="0 0 229 256"><path fill="#F7499D" fill-rule="evenodd" d="M106.262 238.557c7.941-3.094 11.198-11.245 6.752-18.786q-2.394-4.06-.669.327c5.457 13.818-12.507 20.467-19.987 8.523-5.413-8.642-.03-17.79 9.636-18.905 33.951-3.942 23.259 67.589 68.199 39.893 4.803-2.96 9.518-5.132 13.83-9.044a89 89 0 0 1 11.139-8.597c16.893-11.052 25.489-26.968 22.961-47.242-3.227-25.822-26.501-35.535-46.413-46.393-4.684-2.559-6.633-6.917-9.086-11.32q-.462-.833.431-.491a716 716 0 0 1 36.047 15.47c11.6 5.369 22.01 14.309 22.01 27.309a.534.534 0 0 0 .996.253c11.808-21.241 5.948-47.628-14.41-60.718-15.6-10.04-38.843-11.17-54.949-14.487q-9.041-1.86-16.179-8.256a2.45 2.45 0 0 1-.714-1.13l-2.707-8.895q-.223-.729.372-.253c11.495 8.94 24.835 11.528 39.051 12.063 15.333.58 30.798 1.264 38.502 14.547a.565.565 0 0 0 1.041-.416c-9.131-36.309-42.323-58.695-79.085-57.877q-3.717.075-15.629 1.86-.789.118-1.294-.491c-11.912-14.577-25.028-24.157-44.494-25.838q-3.287-.282-5.622.134-.683.12-.803.803l-.446 2.693q-.12.744-.847.892-2.023.417-2.023 2.812-.105 20.467 12.373 36.383.297.357-.164.253-8.045-1.994-10.84-5.132C36.491 28.534 18.82 9.242 10.175 0L8.033 2.142c4.506 5.411 5.093 6.012 9.806 11.215a6575 6575 0 0 1 54.354 60.732c1.829 2.083 2.17 4.463 1.22 7.155-7.124 19.932-31.706 1.86-33.505 29.005q-.863 13.045-6.395 24.796c-10.038 21.286-6.157 29.63 12.521 42.809q4.03 2.856 5.518 5.861c8.476 17.076-18.99 26.833-31.69 29.258q-.64.119-.982-.416l-.296-.46C8.05 195.768-1.543 180.894 7.504 162.414c2.468-5.012 7.926-11.274 11.807-15.93q14.157-17.016 16.254-39.403.774-8.24 7.822-16.213c3.153-3.555 1.547-8.3-.699-12.45a4819 4819 0 0 0-21.473-39.135c-4.209-7.586-9.518-13.893-14.797-20.646a.341.341 0 0 0-.62.13.34.34 0 0 0 .055.257 31310 31310 0 0 0 31.541 56.479 73 73 0 0 1 4.521 9.608c.186.482.226 1.007.115 1.512a2.65 2.65 0 0 1-.74 1.33c-6.736 6.574-8.297 11.974-9.606 22.192-2.29 18.013-10.811 28.307-21.37 42.11q-6.35 8.33-7.941 12.48c-8.075 21.033 6.484 34.925 13.473 52.433q.268.699 1.011.848c11.808 2.498 21.995 3.108 32.077-3.392a2.32 2.32 0 0 1 1.368-.401q13.176.148 23.764 7.02c10.38 6.738 17.132 23.19 32.196 17.314M64.712 25.851c11.838 1.205 21.98 7.423 25.608 19.352 3.837 12.628 5.399 21.776 14.188 31.46a.757.757 0 0 1-.172 1.154.76.76 0 0 1-.423.11c-24.954-.878-41.282-28.886-39.959-51.436a.685.685 0 0 1 .759-.64m55.693 25.555c31.229-6.233 62.637 6.069 79.248 33.735a.44.44 0 0 1-.037.466.43.43 0 0 1-.439.159c-17.459-4.522-35.884-.967-52.793-8.538-10.811-4.82-19.421-15.291-26.277-25.064q-.446-.61.298-.758m64.704 54.188c23.139 4.403 40.553 21.85 37.222 46.825a.345.345 0 0 1-.254.293.38.38 0 0 1-.385-.115c-21.296-25.316-69.121-23.859-80.631-55.303a.56.56 0 0 1 .128-.6.57.57 0 0 1 .6-.13c14.158 5.028 28.687 6.248 43.32 9.03m-89.227 10.412-15.05 4.135a4.804 4.804 0 0 1-5.903-3.347l-.625-2.261c-.9-3.27-.482-6.758 1.16-9.698a12.52 12.52 0 0 1 7.6-5.98 12.5 12.5 0 0 1 4.911-.343 12.6 12.6 0 0 1 4.681 1.587 12.8 12.8 0 0 1 3.738 3.276 13 13 0 0 1 2.225 4.465l.624 2.246a4.804 4.804 0 0 1-3.36 5.92m18.664 56.836c18.484-2.321 40.33-5.564 40.984-29.571q.194-6.887-1.636-12.361a.75.75 0 0 1 .413-.908.72.72 0 0 1 .926.313c14.975 27.503-4.06 47.078-31.111 47.584q-17.592.342-33.519 4.76-.758.208-.104-.238 11.912-8.048 24.047-9.579m57.119-27.95a142.8 142.8 0 0 1 28.017 16.987c18.322 14.22 16.73 40.325 3.317 57.103a.67.67 0 0 1-1.19-.401c-.342-18.891-12.626-34.45-22.664-49.518-4.818-7.258-8.773-15.529-8.208-23.739q.059-.744.728-.432m-73.582 50.395c18.321-1.591 33.832 8.256 36.494 26.581q1.547 10.74 3.524 19.456a.58.58 0 0 1-1.1.342q-4.893-11.736-10.246-21.687c-6.335-11.796-27.095-21.181-37.223-7.051q-4.61 6.397-1.546 15.232.743 2.172-.684.372-10.574-13.328-27.185-16.927-1.085-.238-.223-.937 16.79-13.507 38.19-15.381" clip-rule="evenodd"/><path fill="#F7499D" d="M90.863 105.473a3 3 0 0 0-.665-1.269 3.7 3.7 0 0 0-1.243-.912 4.8 4.8 0 0 0-1.633-.417 5.7 5.7 0 0 0-1.775.142c-1.184.284-2.232.929-2.91 1.792-.68.863-.935 1.874-.71 2.81.11.463.336.894.664 1.268.327.375.75.685 1.243.913a4.8 4.8 0 0 0 1.633.417 5.7 5.7 0 0 0 1.775-.142c1.185-.285 2.232-.93 2.911-1.793.68-.863.934-1.873.71-2.809"/></svg>