<svg xmlns="http://www.w3.org/2000/svg" fill="none" viewBox="0 0 219 256"><path fill="#F7499D" fill-rule="evenodd" d="M102.749 239.347c7.574-2.954 10.68-10.736 6.44-17.935q-2.285-3.878-.639.312c5.206 13.193-11.928 19.54-19.062 8.137-5.163-8.251-.028-16.984 9.19-18.049 32.381-3.763 22.183 64.528 65.045 38.087 4.581-2.826 9.077-4.9 13.191-8.635a85 85 0 0 1 10.623-8.208c16.112-10.551 24.31-25.746 21.899-45.102-3.078-24.652-25.275-33.925-44.266-44.292-4.468-2.443-6.326-6.603-8.666-10.807q-.44-.795.411-.468a683 683 0 0 1 34.38 14.768c11.063 5.127 20.992 13.662 20.992 26.073a.506.506 0 0 0 .384.478.51.51 0 0 0 .566-.236c11.261-20.279 5.673-45.472-13.744-57.968-14.878-9.586-37.046-10.665-52.407-13.832q-8.624-1.775-15.431-7.881a2.34 2.34 0 0 1-.681-1.08l-2.581-8.492q-.213-.696.354-.241c10.964 8.535 23.686 11.005 37.245 11.517 14.623.554 29.374 1.207 36.721 13.888a.54.54 0 0 0 .993-.397c-8.709-34.665-40.366-56.037-75.427-55.256q-3.546.072-14.906 1.775-.753.114-1.234-.468c-11.361-13.917-23.87-23.063-42.437-24.667q-3.135-.27-5.36.128-.654.112-.767.766l-.425 2.57q-.113.71-.809.853-1.929.398-1.929 2.684-.099 19.54 11.8 34.735.285.341-.155.241-7.673-1.902-10.34-4.899C36.207 38.836-18.3-22.074 6.17 8.253 16.185 20.665 26.2 32.121 26.2 32.121s26.895 30.771 44.057 50.208c1.744 1.988 2.07 4.26 1.162 6.83-6.793 19.029-30.238 1.775-31.954 27.692q-.823 12.454-6.1 23.673c-9.573 20.321-5.871 28.288 11.943 40.87q3.845 2.725 5.262 5.595c8.085 16.302-18.112 25.618-30.224 27.933q-.61.114-.936-.398l-.283-.438C9.08 198.496-.069 184.296 8.558 166.653c2.355-4.786 7.56-10.764 11.262-15.209q13.503-16.246 15.502-37.618.738-7.867 7.46-15.479c3.007-3.394 1.476-7.924-.666-11.886-6.77-12.487-12.207-23.062-21.162-37.155-5.032-7.918-8.396-13.471-13.431-19.918a.33.33 0 0 0-.454-.085.327.327 0 0 0-.085.454q15.048 27.04 30.083 53.92a70 70 0 0 1 4.311 9.174c.178.46.216.962.11 1.444a2.53 2.53 0 0 1-.705 1.269c-6.425 6.277-7.915 11.431-9.163 21.187-2.184 17.198-10.31 27.025-20.381 40.203q-6.056 7.953-7.574 11.914c-7.701 20.08 6.184 33.344 12.85 50.058q.255.668.965.81c11.261 2.386 20.977 2.968 30.593-3.238a2.2 2.2 0 0 1 1.305-.383q12.566.142 22.665 6.702c9.9 6.433 16.339 22.14 30.706 16.53M63.121 36.275c11.29 1.15 20.963 7.087 24.424 18.476 3.66 12.056 5.148 20.79 13.531 30.034a.727.727 0 0 1-.164 1.103.7.7 0 0 1-.404.104c-23.8-.838-39.372-27.578-38.11-49.106a.654.654 0 0 1 .723-.61m53.117 24.397c29.784-5.95 59.739 5.794 75.582 32.208a.41.41 0 0 1-.035.444.41.41 0 0 1-.419.152c-16.651-4.317-34.224-.923-50.35-8.151-10.311-4.601-18.524-14.599-25.062-23.928q-.426-.583.284-.725m61.711 51.734c22.069 4.203 38.678 20.861 35.501 44.704a.33.33 0 0 1-.242.28.36.36 0 0 1-.368-.109c-20.311-24.17-65.924-22.779-76.902-52.799a.538.538 0 0 1 .695-.696c13.503 4.8 27.36 5.964 41.316 8.62m-85.1 9.941-14.353 3.947a4.57 4.57 0 0 1-3.475-.431 4.6 4.6 0 0 1-2.156-2.764l-.596-2.158a12.32 12.32 0 0 1 1.107-9.259 11.95 11.95 0 0 1 7.247-5.709 11.9 11.9 0 0 1 4.685-.328c1.57.204 3.087.719 4.464 1.515a12.2 12.2 0 0 1 3.565 3.127 12.4 12.4 0 0 1 2.122 4.263l.596 2.145a4.59 4.59 0 0 1-3.206 5.652m17.8 54.261c17.63-2.215 38.465-5.311 39.089-28.231q.185-6.576-1.56-11.801a.72.72 0 0 1 .394-.867.68.68 0 0 1 .883.299c14.282 26.257-3.872 44.945-29.672 45.428q-16.778.327-31.969 4.544-.723.2-.099-.227 11.361-7.683 22.934-9.145m54.478-26.683a136.2 136.2 0 0 1 26.722 16.217c17.473 13.576 15.956 38.498 3.162 54.517a.63.63 0 0 1-.7.204.63.63 0 0 1-.434-.588c-.326-18.035-12.042-32.889-21.616-47.274-4.595-6.93-8.368-14.826-7.829-22.665q.057-.71.695-.411m-70.179 48.112c17.474-1.52 32.267 7.881 34.806 25.377q1.476 10.253 3.362 18.575a.556.556 0 0 1-.773.607.56.56 0 0 1-.277-.281q-4.666-11.204-9.772-20.705c-6.042-11.261-25.842-20.222-35.5-6.731q-4.398 6.106-1.476 14.542.709 2.073-.652.355-10.084-12.724-25.927-16.161-1.035-.226-.213-.894 16.013-12.895 36.422-14.684" clip-rule="evenodd"/><path fill="#F7499D" d="M88.062 112.29a2.85 2.85 0 0 0-.633-1.211 3.5 3.5 0 0 0-1.186-.871 4.6 4.6 0 0 0-1.558-.398 5.4 5.4 0 0 0-1.692.136c-1.13.271-2.13.887-2.777 1.711s-.891 1.789-.677 2.682c.106.443.321.854.633 1.211a3.5 3.5 0 0 0 1.186.872c.471.217 1 .353 1.558.398a5.4 5.4 0 0 0 1.692-.136c1.13-.272 2.13-.887 2.777-1.711s.891-1.789.677-2.683"/></svg>