<svg xmlns="http://www.w3.org/2000/svg" fill="none" viewBox="0 0 569 256"><path fill="#fff" fill-rule="evenodd" d="m262.773 256 63.7-193.54 30.681 9.984L335.231 0h189.604c34.403 0 52.304 30.738 39.937 68.536l-12.01 36.571c-.144.434-.301.855-.47 1.309l-.043.118-.514 1.34a101 101 0 0 1-13.593 25.19c-18.043 24.533-45.514 40.451-69.976 40.593h-95.194l-27.015 82.3zm174.755-125.076h-50.507l28.927-88.105h50.521c12.608 0 19.184 11.282 14.62 25.175l-12.41 37.755c-4.535 13.878-18.513 25.175-31.151 25.175M37.681 255.401a58 58 0 0 0 6.448.585l168.779.014 63.729-193.498-37.527 9.985L308.615.043h-94.852L143.759 213.21h-41.464a15.3 15.3 0 0 1-7.745-1.869c-7.374-3.865-9.985-13.008-6.618-23.292L149.692.043H65.823L4.975 185.139s-1.255 4.065-1.512 5.007c-3.052 10.84-4.065 21.965-1.626 33.048a49 49 0 0 0 1.897 6.461 42.3 42.3 0 0 0 6.376 11.511c4.493 5.72 10.427 9.129 17.116 11.653a44 44 0 0 0 10.455 2.582" clip-rule="evenodd"/></svg>