<svg xmlns="http://www.w3.org/2000/svg" fill="none" viewBox="0 0 292 256"><path fill="#F10" d="M18.575 64.193C29.185 45.43 73.84 22.662 167.587 81.71c43 27.085 69.494 59.881 85.185 90.897 2.994 6.22 8.184 22.055 4.996 35.63-1.248 5.313-6.359 14.873-12.944 25.679 1.173-2.567 2.009-4.779 2.422-6.531 3.197-13.574-2.074-29.422-5.11-35.65-15.906-31.053-42.73-63.906-86.219-91.076-78.279-48.904-122.652-41.962-141.762-27.5z"/><path fill="#FDBF41" d="M22.688 47.246c10.816-18.73 56.61-41.3 153.264 18.253 44.333 27.315 71.728 60.267 88.007 91.385 3.108 6.24 8.52 22.113 5.308 35.684-1.258 5.312-6.464 14.856-13.182 25.639 1.194-2.563 2.043-4.775 2.459-6.526 3.221-13.57-2.275-29.457-5.425-35.705-16.502-31.155-44.236-64.166-89.072-91.569-80.704-49.324-126.285-42.59-145.858-28.21z"/><path fill="#F4F4F4" d="M34.884 33.906c1.367-2.367 3.292-4.795 5.808-7.11a38 38 0 0 1 2.834-2.364c19.237-14.56 64.421-21.689 144.622 27.727 44.334 27.315 71.728 60.267 88.008 91.385 3.107 6.24 8.519 22.113 5.307 35.684-1.258 5.312-6.465 14.856-13.182 25.639 1.194-2.564 2.043-4.775 2.459-6.526 3.221-13.569-2.275-29.457-5.425-35.705-16.502-31.156-44.235-64.166-89.072-91.569C95.54 21.743 49.958 28.477 30.384 42.857z"/><path fill="#F10" d="M250.046 235.805c-10.873 18.719-56.987 41.235-154.455-18.459-44.708-27.38-72.354-60.376-88.799-91.522-6.045-11.45-8.614-22.129-5.395-35.699 1.82-7.671 11.929-24.161 22.935-40.458-.127 1.85-.237 3.64-.342 5.347-.382 6.192-.698 11.316-1.447 14.492-3.204 13.571 2.126 29.43 5.192 35.663 16.061 31.08 43.121 63.974 86.96 91.204 79.397 49.317 124.149 42.037 143.181 27.415z"/><path fill="#FDBF41" d="M261.233 220.082c-10.954 18.705-57.512 41.144-156.118-18.746-45.229-27.472-73.226-60.528-89.901-91.714-3.184-6.254-8.745-22.152-5.517-35.72 1.409-5.923 7.803-17.096 15.75-29.375-2.516 4.663-4.283 8.6-4.946 11.38-3.234 13.567 2.384 29.475 5.598 35.733 16.829 31.213 45.06 64.31 90.637 91.841 99.362 60.021 145.034 36.44 156.042 17.744l8.833-16.129z"/><path fill="#F4F4F4" d="M271.167 205.249c-11.034 18.692-58.038 41.052-157.78-19.034-45.75-27.561-74.1-60.678-91.004-91.904-3.23-6.261-8.877-22.175-5.64-35.741 1.463-6.13 8.311-17.876 16.708-30.65-2.297 4.413-3.911 8.138-4.549 10.795-3.256 13.563 1.582 29.223 4.9 35.5 17.365 31.306 46.418 64.544 93.21 92.285 87.106 51.642 137.074 34.951 155.48 19.854z"/><path fill="#007FFF" fill-rule="evenodd" d="M46.487 35.782c-13.393 27.367 21.933 75.953 81.719 114.393 61.722 39.686 125.629 50.13 142.74 23.33l.011.018c13.394-27.368-21.932-75.954-81.719-114.395-61.722-39.685-125.629-50.13-142.74-23.33zm233.654 155.091c-12.741 18.297-60.164 37.772-157.885-20.782-46.097-27.621-72.658-57.442-89.715-88.695-7.675-14.062-9.281-26.19-5.949-41.864 1.41-6.633 3.224-12.953 12.408-23.299a27.4 27.4 0 0 0-2.7 3.753l4.392 6.81a38 38 0 0 1 2.834-2.364l-4.277-8.479-.249.28C53.92-1.3 101.378-16.999 195.188 39.212c46.098 27.62 74.648 61.042 87.664 85.298 8.486 15.815 10.844 28.812 8 45.262-1.3 6.118-4.137 13.165-10.711 21.101" clip-rule="evenodd"/><path fill="#007FFF" d="M39 16.233a27.4 27.4 0 0 0-2.7 3.753l4.392 6.81a38 38 0 0 1 2.834-2.364l-4.277-8.479z"/></svg>