<svg xmlns="http://www.w3.org/2000/svg" fill="none" viewBox="0 0 293 256"><path fill="#F10" d="M18.586 64.193C29.202 45.43 73.883 22.662 167.684 81.71c43.025 27.085 69.535 59.881 85.235 90.897 2.996 6.22 8.189 22.055 4.999 35.63-1.249 5.313-6.363 14.874-12.951 25.679 1.174-2.567 2.01-4.779 2.423-6.531 3.199-13.574-2.075-29.422-5.113-35.65-15.916-31.053-42.755-63.906-86.269-91.076-78.325-48.904-122.724-41.962-141.844-27.5z"/><path fill="#FDBF41" d="M22.7 47.246c10.823-18.73 56.644-41.3 153.354 18.253 44.36 27.315 71.77 60.267 88.059 91.385 3.11 6.24 8.525 22.113 5.31 35.684-1.258 5.312-6.467 14.856-13.189 25.639 1.195-2.563 2.044-4.775 2.46-6.526 3.223-13.57-2.276-29.457-5.428-35.705-16.511-31.155-44.261-64.166-89.124-91.569-80.75-49.324-126.358-42.59-145.943-28.21z"/><path fill="#F4F4F4" d="M34.904 33.906c1.368-2.367 3.294-4.795 5.811-7.11a38 38 0 0 1 2.836-2.364C62.8 9.872 108.009 2.743 188.257 52.159c44.36 27.315 71.77 60.267 88.059 91.385 3.11 6.24 8.525 22.113 5.311 35.684-1.258 5.312-6.469 14.856-13.189 25.639 1.193-2.564 2.044-4.775 2.459-6.526 3.223-13.569-2.276-29.457-5.428-35.705-16.512-31.156-44.261-64.166-89.123-91.569-80.75-49.324-126.359-42.59-145.944-28.21z"/><path fill="#F10" d="M250.192 235.805c-10.88 18.719-57.021 41.235-154.546-18.459-44.733-27.38-72.396-60.376-88.85-91.522-6.049-11.45-8.619-22.129-5.398-35.699 1.82-7.671 11.936-24.161 22.948-40.458-.127 1.85-.237 3.64-.343 5.347-.381 6.192-.698 11.316-1.447 14.492-3.206 13.571 2.128 29.43 5.195 35.663 16.07 31.08 43.146 63.974 87.011 91.204 79.443 49.317 124.221 42.037 143.264 27.415z"/><path fill="#FDBF41" d="M261.385 220.082c-10.96 18.705-57.546 41.144-156.209-18.746-45.255-27.472-73.269-60.528-89.953-91.714-3.186-6.254-8.75-22.152-5.52-35.72 1.41-5.923 7.807-17.096 15.758-29.375-2.517 4.663-4.285 8.6-4.948 11.38-3.236 13.567 2.386 29.475 5.601 35.733 16.839 31.213 45.087 64.31 90.69 91.841 99.42 60.021 145.119 36.44 156.133 17.744l8.838-16.129z"/><path fill="#F4F4F4" d="M271.324 205.249c-11.04 18.692-58.071 41.052-157.871-19.034-45.777-27.561-74.142-60.678-91.057-91.904-3.231-6.261-8.882-22.175-5.643-35.741 1.463-6.13 8.316-17.876 16.718-30.65-2.3 4.413-3.914 8.138-4.552 10.795-3.258 13.563 1.583 29.223 4.903 35.5 17.375 31.306 46.444 64.544 93.264 92.285 87.156 51.642 137.154 34.951 155.57 19.854z"/><path fill="#007FFF" fill-rule="evenodd" d="M46.514 35.782c-13.401 27.367 21.946 75.953 81.767 114.393 61.758 39.686 125.702 50.13 142.823 23.33l.011.018c13.402-27.368-21.945-75.954-81.767-114.395C127.59 19.443 63.646 8.998 46.525 35.798zm233.79 155.091c-12.748 18.297-60.199 37.772-157.976-20.782-46.125-27.621-72.701-57.442-89.768-88.695-7.68-14.062-9.287-26.19-5.953-41.864 1.411-6.633 3.227-12.953 12.416-23.299a27.4 27.4 0 0 0-2.702 3.753l4.394 6.81a38 38 0 0 1 2.836-2.364l-4.279-8.479-.25.28C53.952-1.3 101.438-16.999 195.303 39.212c46.124 27.62 74.691 61.042 87.715 85.298 8.491 15.815 10.85 28.812 8.004 45.262-1.301 6.118-4.139 13.165-10.717 21.101" clip-rule="evenodd"/><path fill="#007FFF" d="M39.023 16.233a27.4 27.4 0 0 0-2.702 3.753l4.394 6.81a38 38 0 0 1 2.836-2.364l-4.279-8.479z"/></svg>