<svg width="293" height="256" viewBox="0 0 293 256" fill="none" xmlns="http://www.w3.org/2000/svg">
<path d="M18.5856 64.1934C29.2015 45.4286 73.883 22.6615 167.684 81.71C210.709 108.795 237.219 141.591 252.919 172.607C255.915 178.827 261.108 194.662 257.918 208.237C256.669 213.55 251.555 223.111 244.967 233.916C246.141 231.349 246.977 229.137 247.39 227.385C250.589 213.811 245.315 197.963 242.277 191.735C226.361 160.682 199.522 127.829 156.008 100.659C77.6832 51.755 33.2841 58.6973 14.1635 73.1592L18.5856 64.1934Z" fill="#FF1100"/>
<path d="M22.7009 47.246C33.523 28.5169 79.3443 5.94629 176.054 65.4986C220.414 92.8143 247.824 125.766 264.113 156.884C267.223 163.124 272.638 178.997 269.423 192.568C268.165 197.88 262.956 207.424 256.234 218.207C257.429 215.644 258.278 213.432 258.694 211.681C261.917 198.111 256.418 182.224 253.266 175.976C236.755 144.821 209.005 111.81 164.142 84.4072C83.3919 35.0833 37.7838 41.8165 18.1993 56.1973L22.7009 47.246Z" fill="#FDBF41"/>
<path d="M34.9042 33.906C36.2716 31.5392 38.198 29.1111 40.7154 26.7951C41.5889 25.9915 42.5337 25.2013 43.5509 24.4319C62.7995 9.87236 108.009 2.74313 188.257 52.1586C232.617 79.4742 260.027 112.426 276.316 143.544C279.426 149.784 284.841 165.657 281.627 179.228C280.369 184.54 275.158 194.084 268.438 204.867C269.631 202.303 270.482 200.092 270.897 198.341C274.12 184.772 268.621 168.884 265.469 162.636C248.957 131.48 221.208 98.4699 176.346 71.0672C95.5952 21.7433 49.9871 28.4764 30.4018 42.8572L34.9042 33.906Z" fill="#F4F4F4"/>
<path d="M250.192 235.805C239.312 254.524 193.171 277.04 95.6462 217.346C50.9131 189.966 23.2503 156.97 6.79598 125.824C0.747301 114.374 -1.82293 103.695 1.39792 90.1251C3.21827 82.4535 13.3336 65.964 24.3458 49.6669C24.2191 51.5176 24.1092 53.3066 24.0035 55.0137C23.622 61.2058 23.3053 66.3302 22.5557 69.5056C19.3504 83.0773 24.6837 98.9358 27.7512 105.169C43.8218 136.249 70.8974 169.143 114.762 196.373C194.205 245.69 238.983 238.41 258.026 223.788L250.192 235.805Z" fill="#FF1100"/>
<path d="M261.385 220.082C250.425 238.787 203.839 261.226 105.176 201.336C59.9212 173.864 31.907 140.808 15.2227 109.622C12.0367 103.368 6.47283 87.4698 9.70239 73.9023C11.1125 67.9792 17.5098 56.8064 25.4613 44.527C22.9443 49.1903 21.1761 53.1265 20.5131 55.9064C17.2767 69.4735 22.8988 85.3819 26.1144 91.6402C42.9526 122.853 71.201 155.95 116.804 183.481C216.224 243.502 261.923 219.921 272.937 201.225L281.775 185.096L261.385 220.082Z" fill="#FDBF41"/>
<path d="M271.324 205.249C260.284 223.941 213.253 246.301 113.453 186.215C67.6762 158.654 39.3106 125.537 22.3959 94.3105C19.1648 88.0496 13.514 72.1362 16.7532 58.5696C18.2165 52.4402 25.0688 40.6944 33.4707 27.9208C31.1716 32.3335 29.5568 36.058 28.9188 38.7155C25.6612 52.2782 30.5023 67.9384 33.8218 74.2146C51.1969 105.521 80.2662 138.759 127.086 166.5C214.242 218.142 264.24 201.451 282.656 186.354L271.324 205.249Z" fill="#F4F4F4"/>
<path fill-rule="evenodd" clip-rule="evenodd" d="M46.5141 35.7817C33.1129 63.1494 68.4601 111.735 128.281 150.175C190.039 189.861 253.983 200.305 271.104 173.505L271.115 173.523C284.517 146.155 249.17 97.5692 189.348 59.1283C127.59 19.443 63.6461 8.99768 46.5253 35.7989L46.5141 35.7817ZM280.304 190.873C267.556 209.17 220.105 228.645 122.328 170.091C76.2029 142.47 49.6268 112.649 32.5595 81.3963C24.8802 67.3338 23.273 55.2058 26.6075 39.532C28.0181 32.8992 29.8336 26.5793 39.0228 16.2331C37.9585 17.4831 37.0597 18.7424 36.3214 19.9856L40.7154 26.7951C41.5889 25.9915 42.5337 25.2013 43.5509 24.4319L39.2724 15.9531C39.1886 16.0467 39.1054 16.1401 39.0228 16.2331C53.951 -1.3002 101.437 -16.9988 195.302 39.2118C241.426 66.8327 269.993 100.254 283.017 124.51C291.508 140.325 293.867 153.322 291.021 169.772C289.72 175.89 286.882 182.937 280.304 190.873Z" fill="#007FFF"/>
<path d="M39.0228 16.2331C37.9585 17.4831 37.0597 18.7424 36.3214 19.9856L40.7154 26.7951C41.5889 25.9915 42.5337 25.2013 43.5509 24.4319L39.2724 15.9531C39.1886 16.0467 39.1054 16.1401 39.0228 16.2331Z" fill="#007FFF"/>
</svg>
