<svg xmlns="http://www.w3.org/2000/svg" fill="none" viewBox="0 0 287 256"><path fill="#fff" d="M143.523 256a80.2 80.2 0 0 1-30.918-6.118 80.3 80.3 0 0 1-26.182-17.562l-62.805-62.819c-31.49-31.537-31.49-82.845 0-114.362l31.373-31.41A80.3 80.3 0 0 1 81.196 6.132 80.2 80.2 0 0 1 112.151 0h62.745c21.587 0 41.877 8.419 57.12 23.67l31.373 31.41c31.481 31.527 31.481 82.835 0 114.353l-62.745 62.877A80.2 80.2 0 0 1 143.523 256M112.151 25.384c-14.812 0-28.718 5.76-39.153 16.275l-31.432 31.4c-21.577 21.602-21.577 56.802 0 78.454l62.746 62.818a55.1 55.1 0 0 0 39.162 16.276c14.811 0 28.718-5.76 39.152-16.266l62.756-62.828c21.577-21.603 21.577-56.803 0-78.454l-31.373-31.41a55.1 55.1 0 0 0-17.956-12.057 55.1 55.1 0 0 0-21.206-4.218h-62.696z"/><path fill="#fff" d="M143.533 218.24a47.13 47.13 0 0 1-33.615-13.972l-56.796-56.802a47.73 47.73 0 0 1-13.903-33.679c0-12.626 5-24.737 13.903-33.679l28.403-28.376a47.2 47.2 0 0 1 15.414-10.33 47.1 47.1 0 0 1 18.201-3.583h56.727c12.687 0 24.666 4.953 33.615 13.972l28.393 28.426a47.74 47.74 0 0 1 13.903 33.678c0 12.626-5 24.737-13.903 33.679l-56.727 56.694a47.2 47.2 0 0 1-15.405 10.37 47.1 47.1 0 0 1-18.21 3.602M115.14 63.212c-5.92 0-11.506 2.294-15.667 6.499L71.081 98.147a22.29 22.29 0 0 0 0 31.41l56.736 56.801c8.36 8.369 23.013 8.369 31.373 0l56.737-56.802a22.29 22.29 0 0 0 0-31.41l-28.393-28.435a21.96 21.96 0 0 0-15.667-6.508z"/><path fill="#fff" d="M143.523 181.011 78.427 115.84l40.864-40.852h48.475l40.863 40.862z"/></svg>
