<svg xmlns="http://www.w3.org/2000/svg" fill="none" viewBox="0 0 287 256"><path fill="#fff" d="M143.486 256a80.2 80.2 0 0 1-30.91-6.118 80.2 80.2 0 0 1-26.175-17.562l-62.789-62.819c-31.483-31.537-31.483-82.845 0-114.362l31.365-31.41A80.3 80.3 0 0 1 81.176 6.132 80.2 80.2 0 0 1 112.122 0h62.729c21.582 0 41.866 8.419 57.106 23.67l31.364 31.41c31.473 31.527 31.473 82.835 0 114.353l-62.729 62.877a80.3 80.3 0 0 1-26.184 17.572A80.2 80.2 0 0 1 143.486 256M112.122 25.384c-14.808 0-28.71 5.76-39.142 16.275l-31.424 31.4c-21.572 21.602-21.572 56.802 0 78.454l62.729 62.818a55.1 55.1 0 0 0 17.952 12.057 55.1 55.1 0 0 0 21.2 4.219c14.808 0 28.71-5.76 39.142-16.266l62.74-62.828c21.572-21.603 21.572-56.803 0-78.454l-31.365-31.41a55.1 55.1 0 0 0-17.951-12.057 55.1 55.1 0 0 0-21.201-4.218h-62.68z"/><path fill="#fff" d="M143.496 218.24a47.1 47.1 0 0 1-33.606-13.972l-56.781-56.802a47.74 47.74 0 0 1-13.9-33.679 47.74 47.74 0 0 1 13.9-33.679l28.395-28.376a47.2 47.2 0 0 1 15.41-10.33 47.1 47.1 0 0 1 18.197-3.583h56.712c12.683 0 24.659 4.953 33.606 13.972l28.386 28.426a47.74 47.74 0 0 1 13.899 33.678 47.74 47.74 0 0 1-13.899 33.679l-56.712 56.694a47.1 47.1 0 0 1-15.402 10.37 47.1 47.1 0 0 1-18.205 3.602M115.111 63.212c-5.919 0-11.504 2.294-15.663 6.499L71.062 98.147a22.29 22.29 0 0 0 0 31.41l56.722 56.801c8.358 8.369 23.008 8.369 31.365 0l56.722-56.802a22.29 22.29 0 0 0 0-31.41l-28.386-28.435a21.95 21.95 0 0 0-15.662-6.508z"/><path fill="#fff" d="M143.486 181.011 78.407 115.84l40.853-40.852h48.463l40.853 40.862z"/></svg>