<svg xmlns="http://www.w3.org/2000/svg" fill="none" viewBox="0 0 256 256"><path fill="#fff" d="m255.471 127.382-19.577-11.291c-5.556-50.547-45.68-90.773-96.209-96.33L128.485.528a1.075 1.075 0 0 0-1.852 0L115.61 19.76c-50.794 5.47-91.095 45.96-96.474 96.86L.529 127.382c-.705.441-.705 1.412 0 1.765l18.695 10.762c5.468 50.724 45.768 91.038 96.474 96.507l11.023 19.055a1.075 1.075 0 0 0 1.852 0l11.023-19.055c50.53-5.469 90.654-45.519 96.298-95.978l19.577-11.379c.705-.265.705-1.324 0-1.677M127.515 34.668c3.175 2.294 6.438 4.676 9.7 6.97-.088 3.705-.088 7.321-.176 11.026-6.085 0-12.258 0-18.343.088 0-3.705-.088-7.41-.088-11.026 2.91-2.382 5.908-4.676 8.907-7.057m-96.65 93.42c0-7.763.881-15.261 2.645-22.583 4.939-14.82 12.787-25.23 18.078-31.228-1.323 3.793-5.29 16.496 0 31.052 6.526 18.172 22.31 25.494 25.133 26.817-15.256-.088-30.513-.265-45.768-.353 0-1.235-.088-2.47-.088-3.705m76.72 17.555c-2.469 5.028-7.672 6.175-8.377 6.351-3.087 2.647-9.083 8.557-11.553 17.996-5.29 20.29 11.288 36.698 12.082 37.403-5.908-.793-31.041-4.94-48.15-27.17-9.259-11.997-12.345-24.347-13.492-31.404 3.175 2.47 7.76 5.293 13.846 6.527 19.224 3.794 34.48-12.438 35.714-13.849-.088-.529-.97-6.087 2.91-9.792s10.495-3.264 14.463.265c4.056 3.616 4.674 9.439 2.557 13.673m29.63 73.218c-2.822 4.147-7.848 4.323-8.642 4.411-.794 0-6.614.176-9.789-4.587-2.204-3.352-2.292-7.675-.264-11.292.088-.176.794-.882.617-2.028-.088-.706-.441-1.147-.617-1.412V99.507c6.173 0 12.346.088 18.519.088 0 34.668-.088 69.337-.088 104.005-.089 0-.882.618-.882 1.588 0 1.058.793 1.676.882 1.676 2.469 3.881 2.557 8.557.264 11.997m.353-131.705c-6.349 0-12.787-.088-19.136-.088-1.147-.088-2.822-.088-4.762.088-9.877 1.147-16.314 7.675-17.99 9.351-6.437 6.704-8.113 14.379-8.554 17.467-1.94-1.764-17.813-16.496-16.314-39.785 1.147-17.378 11.2-28.67 16.843-33.875 3.88 13.85 16.579 24.083 31.659 24.083h16.578c15.168 0 27.955-10.233 31.747-24.26 2.645 2.382 15.432 14.38 16.579 34.316 1.322 22.495-13.316 37.139-15.433 39.256-.352-2.646-1.675-11.027-8.818-17.996-6.349-6.175-13.581-7.586-15.874-8.027-2.557-.53-4.85-.618-6.525-.53m66.932 93.155c-1.852 2.47-11.111 14.027-27.866 21.437-8.025 3.528-15.256 5.028-20.283 5.733 2.911-2.734 8.466-8.733 11.2-18.172 1.058-3.528 3.086-10.585.881-19.319-2.557-9.968-8.994-15.878-11.552-17.996-5.291-1.323-9.082-5.645-9.524-10.497 0-.353-.44-5.734 3.704-9.351 3.528-3.087 9.612-4.234 13.757-.882 2.91 2.382 4.233 6.351 3.527 10.321 1.323 1.5 16.491 17.555 35.715 13.85 6.085-1.147 10.759-3.97 13.845-6.44-.97 6.44-3.88 18.966-13.404 31.316m19.577-48.253c-15.344 0-30.688 0-46.032-.088 2.733-1.147 18.871-8.469 25.397-26.818 5.114-14.467 1.146-26.906-.176-30.699a77.15 77.15 0 0 1 18.165 30.699v.089c1.764 7.409 2.734 15.084 2.734 22.847 0 1.323 0 2.647-.088 3.97"/></svg>
