<svg xmlns="http://www.w3.org/2000/svg" fill="none" viewBox="0 0 321 256"><path fill="#fff" fill-rule="evenodd" d="M7.913 92.47Q.368 104.704.368 120.704h59.438v33.649C59.806 210.195 105.705 256 161.663 256h103.114V57.097L320.738.626h-68.537c-30.812 0-55.96 25.1-55.96 55.843H127.71L184.298 0h-68.534c-30.81 0-55.958 25.097-55.958 55.843v1.254h-1.26c-20.748 0-38.982 11.293-48.413 28.234h49.673v7.138zm178.696 46.589a23.9 23.9 0 0 0 5.236 7.764 23.9 23.9 0 0 0 16.974 7.059c3.156 0 6.281-.624 9.194-1.835a23.9 23.9 0 0 0 7.78-5.224l-33.948-33.883a23.82 23.82 0 0 0-5.236 26.119" clip-rule="evenodd"/></svg>