<svg xmlns="http://www.w3.org/2000/svg" fill="none" viewBox="0 0 275 256"><path fill="#fff" fill-rule="evenodd" d="M194.27 3.458C183.998 0 172.494 0 149.479 0h-23.957C102.507 0 91 0 80.731 3.458a66.2 66.2 0 0 0-22.655 13.086c-8.13 7.168-13.882 17.14-25.389 37.079L20.709 74.377C9.2 94.32 3.448 104.288 1.306 114.914a66.2 66.2 0 0 0 0 26.172c2.143 10.626 7.899 20.595 19.403 40.537l11.978 20.754c11.508 19.942 17.26 29.911 25.389 37.079a66.2 66.2 0 0 0 22.655 13.086C91.003 256 102.503 256 125.522 256h23.957c23.015 0 34.523 0 44.791-3.458a66.1 66.1 0 0 0 22.652-13.086c8.129-7.168 13.885-17.14 25.392-37.079l11.979-20.754c11.507-19.942 17.259-29.911 19.403-40.537a66.3 66.3 0 0 0 0-26.172c-2.144-10.626-7.9-20.595-19.407-40.537L242.31 53.623c-11.503-19.942-17.259-29.911-25.388-37.08a66.2 66.2 0 0 0-22.648-13.085zm-8.414 64.326c-1.469-2.196-2.147-2.597-2.188-2.623a4.45 4.45 0 0 0-3.512 0c-.045.026-.72.427-2.188 2.623-1.61 2.393-3.486 5.847-6.312 11.064l-26.735 49.356 26.746 49.122c2.826 5.187 4.702 8.619 6.305 10.997 1.468 2.178 2.143 2.579 2.188 2.605a4.43 4.43 0 0 0 3.504 0c.045-.026.716-.427 2.188-2.605 1.598-2.378 3.479-5.81 6.305-11l20.545-37.733c3.234-5.943 4.027-7.568 4.328-9.138.285-1.484.289-3.016.007-4.5-.297-1.569-1.09-3.198-4.313-9.146l-20.556-37.958c-2.826-5.216-4.706-8.67-6.312-11.064m-26.687 3.889L136.733 113.1l-22.437-41.427c-2.61-4.82-4.809-8.882-6.842-11.91-2.039-3.042-4.613-6.166-8.418-7.814a18.83 18.83 0 0 0-14.96 0c-3.809 1.648-6.379 4.772-8.418 7.81-2.033 3.032-4.236 7.094-6.843 11.914l-20.73 38.273-.445.828c-2.563 4.719-4.577 8.429-5.348 12.484a26.4 26.4 0 0 0 .011 9.918c.779 4.051 2.8 7.761 5.37 12.473l.453.828 20.715 38.047c2.611 4.794 4.81 8.834 6.843 11.847 2.035 3.027 4.61 6.132 8.407 7.772a18.83 18.83 0 0 0 14.93 0c3.798-1.64 6.371-4.749 8.407-7.772 2.029-3.013 4.232-7.053 6.839-11.847l22.466-41.257 22.466 41.257c2.607 4.79 4.81 8.834 6.839 11.847 2.039 3.027 4.609 6.132 8.407 7.772a18.83 18.83 0 0 0 14.93 0c3.798-1.64 6.371-4.749 8.411-7.772 2.029-3.013 4.228-7.053 6.839-11.847l20.715-38.047.453-.828c2.57-4.712 4.591-8.422 5.37-12.473.63-3.276.634-6.642.011-9.918-.772-4.055-2.782-7.765-5.344-12.484l-.449-.828-20.73-38.273c-2.608-4.82-4.81-8.886-6.843-11.91-2.039-3.042-4.609-6.166-8.418-7.814a18.83 18.83 0 0 0-14.956 0c-3.809 1.648-6.383 4.772-8.419 7.81-2.032 3.032-4.235 7.094-6.846 11.914m-57.37 105.65 26.746-49.123-26.735-49.352c-2.822-5.216-4.703-8.67-6.308-11.064-1.473-2.196-2.151-2.597-2.192-2.623a4.45 4.45 0 0 0-3.508 0c-.045.026-.723.427-2.192 2.623-1.606 2.393-3.486 5.847-6.312 11.064l-20.556 37.955c-3.223 5.951-4.013 7.58-4.313 9.149a12 12 0 0 0 .007 4.5c.3 1.57 1.094 3.195 4.332 9.138l20.545 37.733c2.822 5.19 4.702 8.622 6.304 11 1.469 2.182 2.14 2.579 2.188 2.605a4.42 4.42 0 0 0 3.501 0c.045-.026.72-.427 2.188-2.605 1.602-2.378 3.483-5.81 6.305-11" clip-rule="evenodd"/></svg>