<svg xmlns="http://www.w3.org/2000/svg" fill="none" viewBox="0 0 276 256"><path fill="#fff" fill-rule="evenodd" d="M194.356 3.458C184.079 0 172.57 0 149.545 0h-23.968c-23.025 0-34.537 0-44.81 3.458A66.2 66.2 0 0 0 58.1 16.544c-8.132 7.168-13.887 17.14-25.4 37.079L20.718 74.377C9.205 94.32 3.45 104.288 1.306 114.914a66.2 66.2 0 0 0 0 26.172c2.145 10.626 7.903 20.595 19.412 40.537L32.7 202.377c11.513 19.942 17.268 29.911 25.4 37.079a66.2 66.2 0 0 0 22.665 13.086C91.043 256 102.55 256 125.577 256h23.968c23.025 0 34.538 0 44.811-3.458a66.2 66.2 0 0 0 22.662-13.086c8.132-7.168 13.89-17.14 25.403-37.079l11.984-20.754c11.512-19.942 17.267-29.911 19.411-40.537a66.3 66.3 0 0 0 0-26.172c-2.144-10.626-7.902-20.595-19.415-40.537l-11.984-20.754c-11.509-19.942-17.267-29.911-25.399-37.08A66.2 66.2 0 0 0 194.36 3.459zm-8.418 64.326c-1.469-2.196-2.148-2.597-2.189-2.623a4.45 4.45 0 0 0-3.514 0c-.044.026-.719.427-2.189 2.623-1.61 2.393-3.487 5.847-6.314 11.064l-26.747 49.356 26.758 49.122c2.827 5.187 4.704 8.619 6.307 10.997 1.469 2.178 2.145 2.579 2.189 2.605a4.43 4.43 0 0 0 3.506 0c.045-.026.716-.427 2.189-2.605 1.599-2.378 3.48-5.81 6.307-11l20.555-37.733c3.235-5.943 4.029-7.568 4.329-9.138a12 12 0 0 0 .008-4.5c-.297-1.569-1.091-3.198-4.315-9.146l-20.565-37.958c-2.828-5.216-4.709-8.67-6.315-11.064m-26.698 3.889L136.793 113.1l-22.446-41.427c-2.612-4.82-4.812-8.882-6.845-11.91-2.041-3.042-4.616-6.166-8.422-7.813a18.85 18.85 0 0 0-14.967 0c-3.81 1.647-6.382 4.77-8.422 7.81-2.033 3.03-4.237 7.093-6.845 11.913l-20.74 38.273-.445.828c-2.564 4.719-4.579 8.429-5.35 12.484a26.4 26.4 0 0 0 .01 9.918c.78 4.051 2.802 7.761 5.373 12.473l.453.828 20.725 38.047c2.612 4.794 4.812 8.834 6.845 11.847 2.037 3.027 4.612 6.132 8.41 7.772a18.84 18.84 0 0 0 14.938 0c3.799-1.64 6.374-4.749 8.411-7.772 2.029-3.013 4.233-7.053 6.841-11.847l22.476-41.257 22.476 41.257c2.609 4.79 4.812 8.834 6.842 11.847 2.04 3.027 4.612 6.132 8.411 7.772a18.84 18.84 0 0 0 14.937 0c3.799-1.64 6.374-4.749 8.414-7.772 2.03-3.013 4.23-7.053 6.842-11.847l20.725-38.047.452-.828c2.572-4.712 4.594-8.422 5.373-12.473.63-3.276.634-6.642.011-9.918-.772-4.055-2.783-7.765-5.347-12.484l-.448-.828-20.74-38.273c-2.608-4.82-4.812-8.886-6.845-11.91-2.041-3.042-4.612-6.166-8.422-7.813a18.85 18.85 0 0 0-14.963 0c-3.811 1.647-6.386 4.77-8.422 7.81-2.034 3.03-4.237 7.093-6.849 11.913m-57.396 105.65 26.757-49.123-26.746-49.352c-2.824-5.216-4.705-8.67-6.311-11.064-1.473-2.196-2.152-2.597-2.193-2.623a4.45 4.45 0 0 0-3.51 0c-.044.026-.723.427-2.192 2.623-1.607 2.393-3.488 5.847-6.315 11.064l-20.565 37.955c-3.224 5.951-4.015 7.58-4.315 9.149a12 12 0 0 0 .007 4.5c.3 1.57 1.095 3.195 4.334 9.138l20.554 37.733c2.823 5.19 4.704 8.622 6.307 11 1.47 2.182 2.14 2.579 2.19 2.605a4.42 4.42 0 0 0 3.501 0c.045-.026.72-.427 2.19-2.605 1.602-2.378 3.483-5.81 6.307-11" clip-rule="evenodd"/></svg>