<svg xmlns="http://www.w3.org/2000/svg" fill="none" viewBox="0 0 285 256"><path fill="#4A402E" d="m85.186 20.77-42.394.085a.197.197 0 0 0-.197.198V85.04a.13.13 0 0 1-.132.132l-20.972.008c-.05 0-.099.02-.134.056a.2.2 0 0 0-.056.137l.004 113.67-.008 13.872a.5.5 0 0 0 .496.491l42.084-.019.127 7.065-.112 13.686q-.003.569.565.569l155.468.004a.433.433 0 0 0 .433-.434l.004-13.945.016-.693.004-5.629a.61.61 0 0 1 .608-.604h41.541a.43.43 0 0 0 .43-.429l.012-13.938q.003-56.856 0-113.724-.058-.084.065-.143h21.1a.13.13 0 0 1 .093.039.13.13 0 0 1 .039.093v127.901a.16.16 0 0 1-.045.112.15.15 0 0 1-.11.047h-20.972q-.17 0-.17.17l.003 20.929q0 .244-.244.244h-42.265a.1.1 0 0 0-.063.026.1.1 0 0 0-.026.063l.004 21.127a.08.08 0 0 1-.078.077H64.109q-.216 0-.217-.221v-20.84q0-.232-.232-.232H21.468a.17.17 0 0 1-.17-.17v-20.98q0-.193-.194-.193H.194q-.194 0-.194-.194V85.292q.001-.05.035-.088a.12.12 0 0 1 .085-.036h20.96a.217.217 0 0 0 .217-.217V.171c0-.046.018-.09.05-.121a.16.16 0 0 1 .117-.05h63.52c.052 0 .101.02.137.058a.2.2 0 0 1 .057.14z"/><path fill="#4A402E" d="M262.973 85.04a1 1 0 0 1-.07.101.11.11 0 0 1-.081.035h-21a.15.15 0 0 1-.104-.044.16.16 0 0 1-.043-.107l.004-64.034a.13.13 0 0 0-.041-.096.14.14 0 0 0-.098-.04h-42.239q-.213 0-.213.217v20.52q0 .12-.12.12H85.376a.185.185 0 0 1-.186-.187l.08-20.67h113.66q.151 0 .151-.15V.181a.18.18 0 0 1 .054-.129.18.18 0 0 1 .128-.053h63.614q.096 0 .097.097z"/><path fill="#B7A38E" d="M85.186 20.77q-.229.055.085.085l-.081 20.67a.186.186 0 0 0 .186.186h113.592q.12 0 .12-.12V21.072q0-.216.213-.216h42.239a.14.14 0 0 1 .098.04c.026.025.041.06.041.095l-.004 64.034q.001.062.043.107a.15.15 0 0 0 .104.044h21q.046 0 .081-.035a1 1 0 0 0 .07-.1q-.012.096.065.131-.123.059-.065.143.003 56.868 0 113.724l-42.452.004a.2.2 0 0 0-.052.01.14.14 0 0 0-.083.126l-.008 20.46-.016.693h-63.849v-6.693a.225.225 0 0 1 .224-.229h13.936a.147.147 0 0 0 .148-.147l-.004-6.988q0-.267.263-.267h13.901q.167 0 .167-.167v-49.31a.08.08 0 0 0-.023-.055.07.07 0 0 0-.054-.023h-14.037q-.221 0-.221.217v27.875q0 .17-.167.17H156.71q-.217 0-.217-.213v-6.535q0-.22-.22-.221h-28.295q-.194 0-.194.194v6.581q0 .194-.193.194h-13.94a.194.194 0 0 1-.194-.194v-27.874q0-.194-.194-.194H99.226a.16.16 0 0 0-.106.043.15.15 0 0 0-.044.104v49.284q0 .124.123.124h14.064q.195 0 .194.193v6.992q0 .22.217.221l13.897-.004q.17 0 .175.17l.035 6.752-63.777.12-.127-7.065.011-14.228a.1.1 0 0 0-.034-.079.12.12 0 0 0-.082-.033l-42.467-.004-.004-113.67c0-.051.02-.1.056-.136a.2.2 0 0 1 .134-.057l20.972-.008a.13.13 0 0 0 .132-.132V21.053a.197.197 0 0 1 .197-.198zM64.334 42.795a.2.2 0 0 1 .121-.182.2.2 0 0 1 .076-.015h6.583a.2.2 0 0 0 .197-.198l.004-13.94a.197.197 0 0 0-.197-.198l-20.914.003a.2.2 0 0 0-.198.198v20.902a.197.197 0 0 0 .198.197l13.944.004a.2.2 0 0 0 .197-.197zm155.893-.201q.067.001.115.047c.03.03.047.072.047.115l-.003 6.644q.001.066.047.115.049.046.115.047l14.01.004a.164.164 0 0 0 .163-.162l.003-20.972a.16.16 0 0 0-.047-.115.16.16 0 0 0-.115-.048h-20.965a.16.16 0 0 0-.115.048.16.16 0 0 0-.047.115l-.016 14.003q0 .032.013.062a.16.16 0 0 0 .15.1zm-113.299 78.37a.126.126 0 0 0-.127-.128H85.317a.127.127 0 0 0-.127.128v21.471a.127.127 0 0 0 .127.127h21.484a.126.126 0 0 0 .127-.127zm92.036 21.602a.13.13 0 0 0 .088-.036.13.13 0 0 0 .036-.088V120.96a.13.13 0 0 0-.036-.088.13.13 0 0 0-.088-.036h-21.491a.12.12 0 0 0-.087.036.12.12 0 0 0-.037.088v21.479c0 .032.013.064.037.087a.12.12 0 0 0 .087.036zm-71.18-.286a.15.15 0 0 0-.044-.107.15.15 0 0 0-.107-.044h-14.025a.15.15 0 0 0-.107.044.15.15 0 0 0-.044.107v14.022c0 .04.016.079.044.107a.15.15 0 0 0 .107.044h14.025c.04 0 .079-.016.107-.044a.15.15 0 0 0 .044-.107zm43.037-.012a.14.14 0 0 0-.14-.139h-14.056a.14.14 0 0 0-.139.139v14.046a.14.14 0 0 0 .139.139h14.056a.14.14 0 0 0 .099-.041.14.14 0 0 0 .041-.098z"/><path fill="#6A5C52" d="m64.334 42.795.011 6.574a.197.197 0 0 1-.197.197l-13.944-.004a.197.197 0 0 1-.198-.197V28.463a.2.2 0 0 1 .198-.198l20.914-.003a.197.197 0 0 1 .197.197L71.311 42.4a.197.197 0 0 1-.197.198h-6.583a.197.197 0 0 0-.197.197m155.893-.201-6.645.004a.16.16 0 0 1-.15-.1.2.2 0 0 1-.013-.063l.016-14.003c0-.043.017-.084.047-.115a.16.16 0 0 1 .115-.048h20.965a.164.164 0 0 1 .162.163l-.003 20.972a.164.164 0 0 1-.163.163l-14.01-.005a.16.16 0 0 1-.115-.047.16.16 0 0 1-.047-.115l.003-6.644a.16.16 0 0 0-.047-.115.16.16 0 0 0-.115-.047"/><path fill="#4A402E" d="M106.801 120.836H85.317a.13.13 0 0 0-.127.128v21.471c0 .07.057.127.127.127h21.484c.07 0 .127-.057.127-.127v-21.471a.127.127 0 0 0-.127-.128m92.163 21.73-21.491-.004a.12.12 0 0 1-.087-.036.12.12 0 0 1-.037-.087V120.96q0-.052.037-.088a.12.12 0 0 1 .087-.036h21.491q.051 0 .088.036a.13.13 0 0 1 .036.088v21.482a.13.13 0 0 1-.036.088.13.13 0 0 1-.088.036m-71.331-.437h-14.025a.15.15 0 0 0-.151.151v14.022a.15.15 0 0 0 .151.151h14.025a.15.15 0 0 0 .151-.151V142.28a.15.15 0 0 0-.151-.151m43.048 0h-14.056a.14.14 0 0 0-.139.139v14.046c0 .077.062.139.139.139h14.056a.14.14 0 0 0 .14-.139v-14.046a.14.14 0 0 0-.14-.139"/><path fill="#4A402E" d="m156.513 220.332-7.245-.004q-.186 0-.186.182v6.694q0 .097-.097.097h-14.134a.097.097 0 0 1-.097-.097v-6.67q0-.21-.209-.209l-6.764.007-.035-6.752q-.004-.17-.175-.17l-13.897.004q-.217 0-.217-.221v-6.992q0-.193-.194-.193H99.199q-.123 0-.123-.124V156.6q0-.06.044-.104a.16.16 0 0 1 .106-.043h14.037q.195 0 .194.194v27.874a.194.194 0 0 0 .194.194h13.94q.193 0 .193-.194v-6.581q0-.194.194-.194h28.295q.22 0 .22.221v6.535q0 .213.217.213h13.936q.167 0 .167-.17V156.67q0-.216.221-.217h14.037q.031 0 .054.023a.08.08 0 0 1 .023.055v49.31q0 .167-.167.167H171.08q-.263 0-.263.267l.004 6.988a.147.147 0 0 1-.148.147h-13.936a.225.225 0 0 0-.224.229z"/><path fill="#6A5C52" d="m21.305 199.043 42.467.004q.048 0 .082.033a.1.1 0 0 1 .034.079l-.011 14.228-42.084.019a.5.5 0 0 1-.35-.144.5.5 0 0 1-.146-.347zm241.668-.004-.012 13.938a.427.427 0 0 1-.43.429H220.99a.61.61 0 0 0-.608.604l-.004 5.629.008-20.46a.135.135 0 0 1 .135-.136zm-135.192 21.293 6.764-.007q.21 0 .209.209v6.67a.097.097 0 0 0 .097.097h14.134q.097 0 .097-.097v-6.694q0-.182.186-.182l7.245.004h63.849l-.004 13.945a.43.43 0 0 1-.433.434l-155.468-.004q-.568 0-.565-.569l.112-13.686z"/></svg>