<svg xmlns="http://www.w3.org/2000/svg" fill="none" viewBox="0 0 284 256"><path fill="#4A402E" d="m85.105 20.77-42.353.085a.197.197 0 0 0-.198.198V85.04a.13.13 0 0 1-.131.132l-20.952.008c-.05 0-.099.02-.134.056a.2.2 0 0 0-.056.137l.004 113.67-.008 13.872c0 .13.052.255.145.347a.5.5 0 0 0 .35.144l42.044-.019.128 7.065-.113 13.686q-.003.569.565.569l155.32.004a.433.433 0 0 0 .433-.434l.004-13.945.015-.693.004-5.629c0-.16.064-.314.178-.427a.6.6 0 0 1 .43-.177h41.502a.43.43 0 0 0 .303-.126.43.43 0 0 0 .126-.303l.012-13.938q.003-56.856 0-113.724-.058-.084.066-.143h21.08c.034 0 .068.014.093.039a.13.13 0 0 1 .038.093v127.901a.16.16 0 0 1-.045.112.15.15 0 0 1-.11.047h-20.952q-.17 0-.17.17l.004 20.929q0 .244-.244.244h-42.226a.1.1 0 0 0-.062.026.1.1 0 0 0-.027.063l.004 21.127a.077.077 0 0 1-.077.077H64.048q-.216 0-.217-.221v-20.84q0-.232-.232-.232H21.447a.17.17 0 0 1-.17-.17v-20.98q0-.193-.193-.193H.194q-.194 0-.194-.194V85.292q.001-.05.035-.088a.12.12 0 0 1 .085-.036h20.94a.217.217 0 0 0 .217-.217V.171c0-.046.018-.09.049-.121a.16.16 0 0 1 .117-.05h63.46c.052 0 .101.02.137.058a.2.2 0 0 1 .057.14z"/><path fill="#4A402E" d="M262.723 85.04a1 1 0 0 1-.07.101.11.11 0 0 1-.081.035h-20.979a.14.14 0 0 1-.104-.044.15.15 0 0 1-.043-.107l.004-64.034a.13.13 0 0 0-.041-.096.14.14 0 0 0-.099-.04h-42.198q-.213 0-.213.217v20.52q0 .12-.12.12H85.294a.185.185 0 0 1-.185-.187l.081-20.67h113.55q.151 0 .151-.15V.182a.18.18 0 0 1 .054-.129.18.18 0 0 1 .128-.053h63.553q.097 0 .097.097z"/><path fill="#B7A38E" d="M85.105 20.77q-.228.055.085.085l-.081 20.67a.186.186 0 0 0 .185.186H198.78q.12 0 .12-.12V21.072q0-.216.213-.216h42.198a.14.14 0 0 1 .099.04c.026.025.041.06.041.095l-.004 64.034q0 .062.043.107a.14.14 0 0 0 .104.044h20.979a.11.11 0 0 0 .081-.035 1 1 0 0 0 .07-.1q-.012.096.066.131-.125.059-.066.143.003 56.868 0 113.724l-42.411.004a.2.2 0 0 0-.052.01.1.1 0 0 0-.044.03.1.1 0 0 0-.029.044.1.1 0 0 0-.011.052l-.008 20.46-.015.693h-63.789v-6.693c0-.061.024-.119.066-.162a.22.22 0 0 1 .158-.067h13.923a.146.146 0 0 0 .147-.147l-.003-6.988q0-.267.263-.267h13.888q.166 0 .166-.167v-49.31a.08.08 0 0 0-.023-.055.07.07 0 0 0-.054-.023h-14.024q-.22 0-.22.217v27.875q0 .17-.167.17h-13.923q-.216 0-.216-.213v-6.535q0-.22-.221-.221h-28.268q-.193 0-.193.194v6.581q0 .194-.193.194h-13.927a.194.194 0 0 1-.194-.194v-27.874q0-.194-.193-.194H99.132a.16.16 0 0 0-.106.043.15.15 0 0 0-.045.104v49.284q0 .124.124.124h14.051q.193 0 .193.193v6.992q0 .22.217.221l13.884-.004q.171 0 .174.17l.035 6.752-63.715.12-.128-7.065.012-14.228a.1.1 0 0 0-.034-.079.12.12 0 0 0-.082-.033l-42.427-.004-.004-113.67c0-.051.02-.1.056-.136a.2.2 0 0 1 .134-.057l20.952-.008a.13.13 0 0 0 .131-.132V21.053a.197.197 0 0 1 .198-.198zM64.272 42.795a.2.2 0 0 1 .198-.197h6.576a.197.197 0 0 0 .198-.198l.004-13.94a.197.197 0 0 0-.198-.198l-20.894.003a.197.197 0 0 0-.197.198v20.902a.197.197 0 0 0 .197.197l13.93.004a.197.197 0 0 0 .198-.197zm155.746-.201q.067.001.115.047c.03.03.047.072.047.115l-.004 6.644a.16.16 0 0 0 .163.163l13.996.003a.16.16 0 0 0 .163-.162l.004-20.972a.16.16 0 0 0-.163-.163h-20.944a.16.16 0 0 0-.163.163l-.015 14.003a.17.17 0 0 0 .047.115.16.16 0 0 0 .115.048zm-113.191 78.37a.13.13 0 0 0-.037-.091.13.13 0 0 0-.091-.037H85.236a.127.127 0 0 0-.127.128v21.471a.127.127 0 0 0 .127.127H106.7a.13.13 0 0 0 .091-.037.13.13 0 0 0 .037-.09zm91.948 21.602a.13.13 0 0 0 .088-.036.13.13 0 0 0 .036-.088V120.96a.13.13 0 0 0-.036-.088.13.13 0 0 0-.088-.036h-21.47a.13.13 0 0 0-.088.036.13.13 0 0 0-.036.088v21.479c0 .032.013.064.036.087a.13.13 0 0 0 .088.036zm-71.112-.286a.15.15 0 0 0-.044-.107.15.15 0 0 0-.107-.044H113.5a.15.15 0 0 0-.106.044.15.15 0 0 0-.045.107v14.022c0 .04.016.079.045.107a.15.15 0 0 0 .106.044h14.012c.04 0 .079-.016.107-.044a.15.15 0 0 0 .044-.107zm42.995-.012a.14.14 0 0 0-.139-.139h-14.043a.14.14 0 0 0-.098.041.14.14 0 0 0-.041.098v14.046q.001.057.041.098a.13.13 0 0 0 .098.041h14.043a.14.14 0 0 0 .139-.139z"/><path fill="#6A5C52" d="m64.272 42.795.012 6.574a.197.197 0 0 1-.197.197l-13.93-.004a.197.197 0 0 1-.198-.197V28.463a.2.2 0 0 1 .197-.198l20.894-.003a.197.197 0 0 1 .198.197L71.244 42.4a.197.197 0 0 1-.198.198H64.47a.2.2 0 0 0-.182.121.2.2 0 0 0-.016.076m155.746-.201-6.639.004a.17.17 0 0 1-.115-.048.16.16 0 0 1-.047-.115l.015-14.003a.16.16 0 0 1 .163-.163h20.944a.16.16 0 0 1 .163.163l-.004 20.972a.16.16 0 0 1-.163.163l-13.996-.005a.16.16 0 0 1-.163-.162l.004-6.644a.16.16 0 0 0-.047-.115.16.16 0 0 0-.115-.047"/><path fill="#4A402E" d="M106.699 120.836H85.236a.13.13 0 0 0-.127.128v21.471c0 .07.057.127.127.127H106.7a.127.127 0 0 0 .128-.127v-21.471a.13.13 0 0 0-.128-.128m92.075 21.73-21.47-.004a.13.13 0 0 1-.088-.036.12.12 0 0 1-.036-.087V120.96q0-.052.036-.088a.13.13 0 0 1 .088-.036h21.47q.052 0 .088.036a.13.13 0 0 1 .036.088v21.482a.13.13 0 0 1-.036.088.13.13 0 0 1-.088.036m-71.263-.437H113.5a.15.15 0 0 0-.151.151v14.022a.15.15 0 0 0 .151.151h14.012a.15.15 0 0 0 .151-.151V142.28a.15.15 0 0 0-.151-.151m43.007 0h-14.043a.14.14 0 0 0-.139.139v14.046c0 .077.062.139.139.139h14.043a.14.14 0 0 0 .139-.139v-14.046a.14.14 0 0 0-.139-.139"/><path fill="#4A402E" d="m156.364 220.332-7.238-.004q-.186 0-.186.182v6.694q0 .097-.096.097h-14.121a.097.097 0 0 1-.097-.097v-6.67q0-.21-.208-.209l-6.759.007-.035-6.752q-.003-.17-.174-.17l-13.884.004q-.216 0-.217-.221v-6.992q0-.193-.193-.193h-14.05q-.125 0-.125-.124V156.6q0-.06.045-.104a.16.16 0 0 1 .106-.043h14.024q.193 0 .193.194v27.874a.194.194 0 0 0 .194.194h13.927q.193 0 .193-.194v-6.581q0-.194.193-.194h28.268q.22 0 .221.221v6.535q0 .213.216.213h13.923q.167 0 .167-.17V156.67q0-.216.22-.217h14.024q.032 0 .054.023a.08.08 0 0 1 .023.055v49.31q0 .167-.166.167h-13.888q-.263 0-.263.267l.003 6.988a.146.146 0 0 1-.147.147h-13.923a.22.22 0 0 0-.158.067.23.23 0 0 0-.066.162z"/><path fill="#6A5C52" d="m21.285 199.043 42.427.004a.114.114 0 0 1 .116.112l-.012 14.228-42.044.019a.5.5 0 0 1-.35-.144.5.5 0 0 1-.145-.347zm241.438-.004-.012 13.938a.43.43 0 0 1-.126.303.43.43 0 0 1-.303.126H220.78a.6.6 0 0 0-.43.177.6.6 0 0 0-.178.427l-.004 5.629.008-20.46q0-.028.011-.052a.1.1 0 0 1 .029-.044.1.1 0 0 1 .044-.03.2.2 0 0 1 .052-.01zm-135.064 21.293 6.759-.007q.208 0 .208.209v6.67a.097.097 0 0 0 .097.097h14.121q.096 0 .096-.097v-6.694q0-.182.186-.182l7.238.004h63.789l-.004 13.945a.435.435 0 0 1-.433.434l-155.32-.004q-.568 0-.565-.569l.113-13.686z"/></svg>