<svg xmlns="http://www.w3.org/2000/svg" fill="none" viewBox="0 0 258 256"><path fill="#FBBD43" fill-rule="evenodd" d="M195.834 4.313c-24.906 24.61-171.07 170.72-191.21 191.619-5.515 5.555-4.727 12.055-1.378 15.601l41.956 41.365c4.333 4.136 11.818 4.136 16.152 0 0 0 5.841-5.753 33.585-33.441l34.569-34.502 34.373 34.346c46.883 46.847 38.796 45.314 70.661 13.391 23.676-23.719 23.198-23.128 23.198-28.645 0-5.796 2.537-2.875-36.186-41.658l-34.711-34.764 34.504-34.572c46.842-46.934 45.269-38.777 13.593-70.505-25.013-25.053-32.157-25.326-39.106-18.235M24.24 22.587c-30.613 30.246-30.953 26.052.218 57.247 31.096 31.121 26.15 31.12 57.266.003 31.172-31.173 31.179-26.183-.081-57.436-29.744-29.737-26.79-30.061-57.403.186" clip-rule="evenodd"/></svg>
