<svg width="258" height="256" viewBox="0 0 258 256" fill="none" xmlns="http://www.w3.org/2000/svg">
<path fill-rule="evenodd" clip-rule="evenodd" d="M195.834 4.31298C170.928 28.9228 24.7648 175.033 4.62473 195.932C-0.890714 201.487 -0.103101 207.987 3.24581 211.533L45.2015 252.898C49.535 257.034 57.0201 257.034 61.3536 252.898C61.3536 252.898 67.1953 247.145 94.9387 219.457L129.508 184.955L163.881 219.301C210.764 266.148 202.677 264.615 234.542 232.692C258.218 208.973 257.74 209.564 257.74 204.047C257.74 198.251 260.277 201.172 221.554 162.389L186.843 127.625L221.347 93.053C268.189 46.119 266.616 54.2758 234.94 22.5484C209.927 -2.5055 202.783 -2.77818 195.834 4.31298ZM24.2402 22.5865C-6.37285 52.8333 -6.71267 48.6391 24.4577 79.8335C55.5544 110.955 50.6075 110.954 81.7239 79.8371C112.896 48.6636 112.903 53.6541 81.6428 22.4014C51.8987 -7.33557 54.8533 -7.66032 24.2402 22.5865Z" fill="#FBBD43"/>
</svg>
