<svg xmlns="http://www.w3.org/2000/svg" fill="none" viewBox="0 0 1024 626"><path fill="#000" fill-rule="evenodd" d="M399.589 40.8Q340.801 0 259.009 0T118.428 40.8Q59.64 80.753 29.82 151.304T0 312.807 29.82 474.31t88.608 111.353q58.789 39.951 140.581 39.951t140.58-39.951q58.788-40.801 88.608-111.353 29.82-70.55 29.82-161.503t-29.82-161.504-88.608-110.502m-66.777 104.757q-28.562-29.954-73.803-29.954-60.492 0-92.017 53.551-30.672 53.551-30.672 143.653 0 56.562 12.088 98.722zM184.662 479.99q29.053 30.02 74.347 30.021 60.492 0 91.164-53.551 31.524-53.551 31.524-143.653 0-56.737-12.499-98.979z" clip-rule="evenodd"/><path fill="#000" d="M679.791 377.408 519.615 612.014h153.36l74.976-132.603q8.52-13.6 10.224-35.701.852-8.5 3.408-12.75 2.556-5.101 10.224-5.101 11.928 0 13.632 15.301v2.55q1.704 22.1 10.224 35.701l74.977 132.603H1024L863.824 377.408l146.546-214.204H857.008l-61.345 111.352q-10.224 17.85-10.224 35.701 0 7.65-3.408 12.75-2.556 5.1-10.224 5.1t-11.076-5.1q-2.556-5.1-2.556-12.75 0-17.85-10.224-35.701l-61.344-111.352h-153.36z"/></svg>
