<svg xmlns="http://www.w3.org/2000/svg" fill="none" viewBox="0 0 1024 243"><path fill="#000" fill-rule="evenodd" d="M0 242.953h126.597l-.008-36.101h9.503v-17.563h-9.503v-36.101h18.997v36.101h10.55l-.005 17.563h-10.545v36.101h10.545v-36.101h11.61v36.101h18.989v-36.101h-9.495v-17.563h9.495v-36.101h-18.989v36.101h-11.605V0H0zm116.047-36.101H39.035V36.102h77.012z" clip-rule="evenodd"/><path fill="#000" d="M310.639 80.65h13.007l-36.234 106.688h-13.937L237.108 80.65h12.875l30.527 89.016zm62.133 11.739h37.412V80.78h-42.185l-8.128-.13v106.687h12.901v-.131h37.412V175.73h-37.412v-40.823h36.122V123.43h-36.122zM524.897 80.65h-12.706v82.601l-55.193-82.47h-10.589v106.557h12.574v-82.47l54.796 82.47h11.118zm172.004 108.701q10.485 0 18.848-3.929l.132-.393q8.362-4.19 13.274-12.049 5.043-7.989 5.043-18.466V80.65h-13.273v73.864q0 10.74-6.769 16.633-6.637 5.893-17.255 5.893-10.62 0-17.256-5.893t-6.636-16.633V80.65h-13.274v74.126q0 10.608 4.912 18.466 5.043 7.989 13.405 12.18 8.363 3.929 18.849 3.929m-75.403-96.948V80.65l-60.376.13v11.623h23.71v94.935h12.956V92.403zm262.452-.014h37.412V80.78h-42.185l-8.128-.13v106.687h12.901v-.131h37.412V175.73H883.95v-40.823h36.122V123.43H883.95z"/><path fill="#000" fill-rule="evenodd" d="m819.793 187.338-24.102-44.976h-12.439v44.845h-12.828V80.65h27.6q6.738 0 12.18 1.83 5.572 1.7 9.718 5.361 4.277 3.661 6.479 9.806 2.463 6.015 2.462 14.251 0 24.841-20.603 29.418l26.564 45.891zm-36.541-55.828V92.287l14.513-.131q8.163 0 12.957 4.968 4.795 5.1 4.795 14.774 0 9.807-4.665 14.774-4.665 4.838-12.958 4.838z" clip-rule="evenodd"/><path fill="#000" d="M975.604 186.052a37.3 37.3 0 0 0 15.124 3.167l.131.132c6.05 0 11.571-1.32 16.571-3.959 5.08-2.551 9.12-6.246 12.1-11.084q4.47-7.39 4.47-16.759 0-5.41-1.71-10.029c-1.05-2.991-2.37-5.498-3.94-7.522-1.67-2.111-3.86-4.047-6.58-5.806-2.81-1.935-5.39-3.475-7.76-4.618l-8.942-3.827q-5.524-2.243-8.812-3.959-3.156-1.584-6.312-3.959-3.025-2.375-4.34-5.014-1.315-2.904-1.315-6.598 0-7.127 4.734-11.349 4.735-4.222 12.099-4.222 6.313 0 11.048 4.09c2.98 2.64 4.73 6.246 5.26 10.821l12.36-4.355q-2.235-10.292-10.26-16.362-7.889-6.203-18.408-6.203-13.413 0-21.831 8.05-8.285 8.181-8.285 20.585 0 4.751 1.315 8.71 1.447 3.958 3.683 6.862 2.236 2.638 6.049 5.278a41.5 41.5 0 0 0 7.628 4.355q3.813 1.847 9.206 3.826 5.391 2.244 8.679 3.959a29.3 29.3 0 0 1 6.574 4.355q3.165 2.375 4.47 5.674 1.32 3.167 1.32 7.39c0 5.894-1.76 10.6-5.26 14.119-3.6 3.607-8.243 5.411-13.942 5.411q-7.76 0-13.677-4.883-5.787-4.882-6.313-13.328l-13.151 2.639q.789 8.446 5.787 14.912 5.129 6.466 12.23 9.501"/></svg>
