<svg xmlns="http://www.w3.org/2000/svg" fill="none" viewBox="0 0 1024 456"><path fill="#000" d="M0 68.278h68.253V341.38h68.277V0H68.265C30.714 0 0 30.729 0 68.278M204.795 341.38h68.265V204.823c0-37.549-30.714-68.266-68.253-68.266zm136.542-204.823V341.38h68.254V204.823h68.276v68.279c0 37.549 30.726 68.278 68.266 68.278V204.823c0-37.549-30.715-68.266-68.266-68.266zm614.398 0H887.47V68.278C887.47 30.728 856.756 0 819.205 0v273.102H682.674v-68.267h68.266v-68.278h-68.266c-37.551 0-68.276 30.717-68.276 68.266v68.279c0 37.549 30.725 68.278 68.276 68.278H887.47V204.823h68.265v68.279c0 37.549 30.726 68.278 68.265 68.278V204.823c0-37.549-30.714-68.266-68.265-68.266m-750.94-68.279h68.265C273.06 30.728 242.346 0 204.807 0z"/><path fill="#000" fill-rule="evenodd" d="M106.348 410.018v44.068h-6.259l-24.564-30.541v30.53h-7.346v-44.069h6.26l24.563 30.671v-30.659zm138.881 44.068H218.74v-44.068h25.851v7.234h-17.998v10.959h16.085v7.235h-16.085v11.394h18.636zm112.391-36.834h14.491v36.823h7.853v-36.823h14.479v-7.234H357.62zm203.917-7.234h7.534l-12.766 44.068h-7.346l-10.782-31.861-10.593 31.85h-7.405l-13.344-44.069h8.81l8.998 31.425 9.956-31.413h7.794l10.204 31.46zm126.433 6.539c-4.334 4.36-6.507 9.757-6.507 16.178 0 6.764 2.197 12.231 6.578 16.438q6.572 6.292 16.651 6.292c6.685 0 12.235-2.145 16.664-6.422 4.428-4.277 6.637-9.721 6.637-16.308 0-6.716-2.209-12.183-6.637-16.425-4.382-4.195-9.932-6.292-16.664-6.292q-10.079 0-16.722 6.539m6.07 27.266c-2.858-2.945-4.275-6.634-4.275-11.076 0-4.536 1.405-8.248 4.204-11.147a14.43 14.43 0 0 1 10.723-4.348q6.324 0 10.664 4.348c2.894 2.946 4.346 6.646 4.346 11.135 0 4.454-1.37 8.143-4.086 11.077-2.681 2.945-6.318 4.418-10.924 4.418-4.251 0-7.806-1.473-10.652-4.407m154.198-6.115v16.496h-7.853v-44.069c2.208 0 4.617-.011 7.215-.058 2.586-.036 4.724-.059 6.377-.059 10.806 0 16.215 4.524 16.215 13.597q0 5.038-2.622 8.307a13.23 13.23 0 0 1-5.999 4.278l13.982 18.004h-9.506l-12.318-16.496zm5.361-20.456c-.212 0-.555.024-1.027.059-.461 0-1.122.024-1.972.071h-2.362v13.091h5.102a9.72 9.72 0 0 0 6.129-1.826 5.9 5.9 0 0 0 2.421-4.973c0-4.277-2.764-6.422-8.291-6.422m134.346 36.823h7.842v-22.718l18.253 22.718h9.96l-19.53-23.543 18.38-20.514h-9.44l-17.623 20.891v-20.88h-7.842v44.069z" clip-rule="evenodd"/></svg>