<svg xmlns="http://www.w3.org/2000/svg" fill="none" viewBox="0 0 1024 240"><path fill="#000" d="M494.259 158.345c13.735 4.173 27.94-3.324 27.58-18.906a1.4 1.4 0 0 1 .099-.556 1.39 1.39 0 0 1 1.339-.881q10.152.26 20.253.948 2.286.159 2.226 2.286c-.489 18.946-12.956 33.43-31.064 37.363-15.192 3.304-33.06.988-44.869-10.052q-11.829-11.07-11.869-27.8a8241 8241 0 0 1-.02-35.856q.02-11.45 1.478-17c5.759-21.96 27.5-31.033 48.922-28.548 21.291 2.476 37.063 15.912 37.312 38.441q.021 1.926-1.896 2.036l-20.882 1.238a.76.76 0 0 1-.48-.13.73.73 0 0 1-.289-.399c-.449-1.507-.17-3.214-.409-4.542q-2.935-16.14-19.336-16.62c-13.236-.379-20.513 8.126-20.513 20.623l.02 36.684q0 8.285 1.468 11.929 2.955 7.327 10.93 9.742m293.362-19.455a41 41 0 0 1-2.98 15.7 41 41 0 0 1-8.762 13.364 41 41 0 0 1-13.209 8.994 41 41 0 0 1-15.646 3.254l-7.167.062a40.96 40.96 0 0 1-38.058-24.951 41 41 0 0 1-3.254-15.646l-.342-39.208a40.95 40.95 0 0 1 11.743-29.064A40.95 40.95 0 0 1 738.8 59.147l7.167-.062a40.96 40.96 0 0 1 38.058 24.951 41 41 0 0 1 3.254 15.646zm-24.086-39.808a19.603 19.603 0 0 0-19.605-19.605h-2.116a19.603 19.603 0 0 0-19.605 19.605v41.225a19.605 19.605 0 0 0 19.605 19.605h2.116a19.604 19.604 0 0 0 19.605-19.605zm118.667-.739c.389-15.672-15.782-21.272-28.509-18.168-5.58 1.368-9.223 4.183-10.142 9.903-1.457 8.993 6.518 13.186 13.636 15.731a564 564 0 0 1 25.384 9.793c10.87 4.502 21.421 11.779 23.318 24.136 3.394 22.15-11.19 36.485-31.703 39.439-24.466 3.524-57.437-4.801-55.78-36.324.1-2.077-.579-4.073 2.616-4.073q9.104 0 18.626.04a1.86 1.86 0 0 1 1.208.452c.335.289.554.688.619 1.125.329 2.246.05 4.722.749 6.768q2.245 6.558 8.245 9.373c9.762 4.582 33.01 5.46 32.202-11.06-.39-7.906-12.608-12.228-18.976-14.504-19.166-6.848-44.57-13.915-43.572-39.698 1.847-47.655 90.917-40.937 85.247 7.396a1.3 1.3 0 0 1-.429.82 1.3 1.3 0 0 1-.859.328l-20.423.01a1.446 1.446 0 0 1-1.457-1.487m108.264 60.112c8.186-2.556 13.104-12.078 6.678-19.136q-1.527-1.677-5.4-3.853-4.891-2.765-20.653-8.255c-15.682-5.47-31.663-12.867-33.469-31.673-4.742-49.251 87.608-49.7 85.318 2.585a1.78 1.78 0 0 1-1.78 1.697l-20.22.01c-.34 0-.67-.135-.92-.376a1.3 1.3 0 0 1-.38-.911q-.03-13.915-13.416-17.998c-6.648-2.026-16.5-1.747-21.691 2.805-4.632 4.063-5.34 12.008-.409 16.61 2.735 2.556 6.378 4.342 10.331 5.78a922 922 0 0 1 27.505 10.521c17.41 6.977 26.53 23.348 19.84 41.585-8.18 22.29-38.78 24.815-58.275 20.024-18.437-4.522-29.068-18.167-27.58-37.493a1.657 1.657 0 0 1 1.657-1.537l19.435-.06a2.08 2.08 0 0 1 1.957 1.403c.092.272.125.559.099.843-1.487 16.66 19.744 21.052 31.373 17.429m-631.363 1.187a.84.84 0 0 0-.798.599l-4.951 16.85a2 2 0 0 1-1.927 1.437l-21.93.01a1.594 1.594 0 0 1-1.528-2.076l36.624-114.613q.47-1.478 2.017-1.478h27.111a1.69 1.69 0 0 1 1.617 1.178l36.854 115.273c.072.23.084.475.033.708a1.3 1.3 0 0 1-.323.619q-.22.24-.928.25-10.99.14-22.43.129c-.408 0-.805-.13-1.132-.371a1.9 1.9 0 0 1-.685-.966l-5.13-16.9a1 1 0 0 0-.316-.482.8.8 0 0 0-.503-.187zm5.131-18.995a.5.5 0 0 0 .08.439.5.5 0 0 0 .399.2l30.405-.05a.5.5 0 0 0 .48-.639l-15.293-50.649a.495.495 0 0 0-.479-.36.5.5 0 0 0-.479.36zm239.958-11.11a.45.45 0 0 0-.449.449l-.02 47.215a1.33 1.33 0 0 1-1.328 1.328l-20.773-.01a1.67 1.67 0 0 1-1.657-1.667l-.01-114.444a2.02 2.02 0 0 1 2.007-2.016q22.659-.07 44.43-.01 10.051.03 14.344 1.047c17.888 4.243 27.281 20.374 25.564 38.122q-1.997 20.693-21.611 27.81-.819.29-.439 1.078l23.218 48.233q.449.928-.389 1.537-.65.47-2.027.449a759 759 0 0 0-20.074-.09 2.7 2.7 0 0 1-2.475-1.587l-20.863-46.286q-.528-1.178-1.826-1.178zm-.499-47.595v28.13a1.285 1.285 0 0 0 1.287 1.288h22.19c4.162 0 8.153-1.58 11.096-4.392s4.596-6.625 4.596-10.602v-.718c0-3.977-1.653-7.79-4.596-10.602s-6.934-4.391-11.096-4.391h-22.19a1.286 1.286 0 0 0-1.287 1.287"/><path fill="#000" fill-rule="evenodd" d="M239.569 119.784C239.569 53.629 185.939 0 119.784 0S0 53.63 0 119.784c0 66.155 53.63 119.785 119.784 119.785 66.155 0 119.785-53.63 119.785-119.785m-97.153-9.922q-4.048-9.396-13.449-13.438a.37.37 0 0 1-.217-.27.37.37 0 0 1 .101-.33l46.774-46.673a.15.15 0 0 1 .157-.032l.024.014.021.018 13.848 13.802q.243.242 0 .485l-46.629 46.545q-.404.41-.63-.121m.098 19.003a8 8 0 0 0-.596 1.076q-4.05 8.796-12.958 12.618a.354.354 0 0 0-.11.578l46.551 46.517a.5.5 0 0 0 .341.143.5.5 0 0 0 .341-.143l13.635-13.618a.27.27 0 0 0 0-.382l-46.869-46.823q-.19-.191-.335.034m-45.64.114q4.147 9.531 13.795 13.563a.25.25 0 0 1 .152.184.26.26 0 0 1-.007.124.26.26 0 0 1-.063.108l-47.249 46.72a.42.42 0 0 1-.585 0L49.27 176.185a.54.54 0 0 1-.16-.382.54.54 0 0 1 .16-.382l47.097-46.54q.327-.318.509.098m-.44-18.982c2.438-5.789 7.406-11.342 13.507-13.526a.336.336 0 0 0 .209-.402.3.3 0 0 0-.082-.14L63.305 49.18a.26.26 0 0 0-.178-.072.25.25 0 0 0-.174.072L49.179 62.966a.25.25 0 0 0-.07.172.24.24 0 0 0 .07.169l46.827 46.777a.26.26 0 0 0 .237.073.26.26 0 0 0 .19-.16" clip-rule="evenodd"/></svg>
