<svg xmlns="http://www.w3.org/2000/svg" fill="none" viewBox="0 0 1024 194"><path fill="#000" d="M173.244 113.704 107.346 1.831a3.65 3.65 0 0 0-1.339-1.334 3.74 3.74 0 0 0-3.689-.023 3.65 3.65 0 0 0-1.356 1.317L81.226 35.313a7.1 7.1 0 0 0-.987 3.61c0 1.266.34 2.51.987 3.608l42.97 72.983a7.3 7.3 0 0 0 2.698 2.643 7.5 7.5 0 0 0 3.687.966h39.472a3.75 3.75 0 0 0 1.839-.488 3.66 3.66 0 0 0 1.347-1.322c.323-.548.493-1.17.495-1.804 0-.633-.168-1.256-.49-1.805M.508 172.173 66.406 60.3a3.65 3.65 0 0 1 1.348-1.32 3.74 3.74 0 0 1 3.68 0 3.66 3.66 0 0 1 1.347 1.32l19.746 33.492c.646 1.1.986 2.345.986 3.614s-.34 2.515-.986 3.614l-42.97 72.982a7.3 7.3 0 0 1-2.693 2.645 7.5 7.5 0 0 1-3.682.965H3.701a3.74 3.74 0 0 1-1.854-.481 3.64 3.64 0 0 1-1.356-1.328 3.56 3.56 0 0 1 .017-3.63m72.263 5.414h131.796a3.73 3.73 0 0 0 1.842-.485 3.65 3.65 0 0 0 1.346-1.323 3.55 3.55 0 0 0-.005-3.61l-19.715-33.512a7.3 7.3 0 0 0-2.699-2.644 7.5 7.5 0 0 0-3.686-.965H95.71a7.5 7.5 0 0 0-3.686.965 7.3 7.3 0 0 0-2.7 2.644L69.59 172.169a3.56 3.56 0 0 0-.005 3.61 3.65 3.65 0 0 0 1.346 1.323 3.73 3.73 0 0 0 1.841.485M332.419 93.3v-2.513q0-9.47-6.476-14.494-6.28-5.219-16.486-5.219-7.85 0-12.364 2.707-4.317 2.511-8.242 7.73-1.178 1.545-2.551 2.126-1.374.58-3.729.58h-5.888q-2.158 0-3.925-1.547-1.569-1.545-1.374-3.671.59-5.798 5.692-11.403 5.298-5.798 13.934-9.47 8.634-3.672 18.447-3.672 18.253 0 29.439 10.05 11.382 10.049 11.382 28.216v58.945q0 2.126-1.569 3.672-1.571 1.546-3.73 1.546h-7.261q-2.159 0-3.729-1.546t-1.57-3.672v-7.924q-3.14 6.959-13.345 11.016-10.205 4.06-20.41 4.059-10.01 0-17.859-3.479-7.851-3.671-12.168-9.856-4.122-6.184-4.122-13.915 0-14.495 10.99-22.612 10.991-8.31 29.242-11.209zm0 15.461-23.157 3.672q-12.758 1.932-19.823 6.377-7.064 4.252-7.064 10.824 0 4.831 4.513 8.696 4.515 3.865 13.738 3.865 14.13 0 22.962-7.923 8.83-7.924 8.831-20.68zm64.352 42.904q0 2.126-1.571 3.672-1.569 1.546-3.729 1.546h-7.261q-2.159 0-3.729-1.546t-1.569-3.672V24.885q0-2.127 1.569-3.672 1.57-1.546 3.729-1.546h7.261q2.16 0 3.729 1.546 1.57 1.545 1.571 3.672zm70.692-9.47q19.625 0 26.495-15.074 1.373-2.9 2.747-4.058 1.373-1.161 3.728-1.161h5.888q2.159 0 3.729 1.547 1.57 1.353 1.57 3.285 0 6.572-5.299 14.109-5.298 7.537-15.307 12.755t-23.551 5.218q-13.933 0-24.139-5.798-10.205-5.797-15.701-15.847-5.495-10.244-6.084-22.805-.195-2.32-.195-8.891 0-4.638.195-6.57 1.768-19.714 13.542-32.082 11.775-12.369 32.382-12.369 13.542 0 23.354 5.218 10.009 5.025 15.111 12.563 5.3 7.343 5.692 13.914.196 2.126-1.57 3.672-1.57 1.546-3.729 1.546h-5.888q-2.355 0-3.728-1.16t-2.747-4.058q-6.87-15.075-26.495-15.075-10.794 0-18.84 7.151-8.047 7.152-9.225 21.646-.195 2.125-.195 6.958 0 4.444.195 6.571 1.375 14.495 9.225 21.644 8.046 7.151 18.84 7.151m158.315 9.47q0 2.126-1.57 3.672t-3.729 1.546h-7.261q-2.16 0-3.729-1.546-1.57-1.546-1.57-3.672v-51.021q0-14.495-7.262-22.032t-20.213-7.538q-12.757 0-20.215 7.538-7.261 7.537-7.261 22.032v51.021q0 2.126-1.57 3.672t-3.729 1.546h-7.261q-2.16 0-3.729-1.546-1.57-1.546-1.57-3.672V24.885q0-2.127 1.57-3.672t3.729-1.546h7.261q2.158 0 3.729 1.546 1.57 1.545 1.57 3.672v42.71q4.317-5.604 11.775-9.276 7.655-3.865 18.644-3.865 12.364 0 21.981 5.218 9.616 5.219 14.915 15.074 5.495 9.664 5.495 23zm68.771-97.211q21 0 33.167 13.142t12.168 35.754v5.218q0 2.126-1.57 3.671-1.57 1.546-3.729 1.546h-67.511v1.161q.393 12.755 7.85 20.098 7.653 7.151 19.625 7.151 9.814 0 15.112-2.512 5.495-2.513 9.812-7.151 1.571-1.546 2.748-2.126 1.374-.579 3.532-.579h5.889q2.353 0 3.924 1.546t1.374 3.671q-.785 5.219-5.887 10.824-4.907 5.41-14.327 9.276-9.223 3.672-22.177 3.672-12.56 0-22.372-5.605-9.812-5.796-15.701-15.847-5.691-10.05-6.869-22.612-.392-5.797-.392-8.89 0-3.092.392-8.89 1.178-11.983 6.869-21.645 5.889-9.664 15.504-15.268 9.813-5.605 22.569-5.605m27.672 43.097v-.58q0-11.788-7.654-18.746-7.457-7.15-20.018-7.15-11.382 0-19.429 7.15-7.85 7.151-8.046 18.747v.58zm59.198-29.955q4.71-5.99 10.597-9.47 5.888-3.672 15.701-3.672 22.962 0 32.186 16.814 5.691-8.118 12.952-12.369 7.262-4.445 19.037-4.445 19.233 0 28.457 11.402 9.42 11.403 9.42 32.276v53.533q0 2.126-1.57 3.672t-3.729 1.546h-7.262q-2.159 0-3.728-1.546t-1.57-3.672v-51.601q0-28.99-23.159-28.99-10.596 0-16.877 6.958-6.28 6.957-6.28 20.68v52.953q0 2.126-1.57 3.672t-3.729 1.546h-7.261q-2.16 0-3.729-1.546-1.57-1.546-1.57-3.672v-51.601q0-28.99-23.158-28.99-10.598 0-16.877 6.958-6.281 6.957-6.281 20.68v52.953q0 2.126-1.57 3.672t-3.729 1.546h-7.261q-2.159 0-3.729-1.546t-1.57-3.672v-90.06q0-2.126 1.57-3.672t3.729-1.546h7.261q2.16 0 3.729 1.546 1.57 1.546 1.57 3.672zm183.316 121.37c-1.179 3.092-3.072 4.638-5.689 4.638h-8.048c-1.313 0-2.421-.451-3.341-1.353-.911-.902-1.375-1.997-1.375-3.285 0-.516.071-.967.196-1.354l18.847-40.392-38.864-84.842a4.4 4.4 0 0 1-.196-1.353c0-1.288.464-2.384 1.375-3.285.92-.902 2.028-1.353 3.341-1.353h8.048c2.608 0 4.51 1.546 5.689 4.638l30.218 65.709 30.624-65.71c1.17-3.091 3.07-4.637 5.68-4.637h8.05q1.965 0 3.33 1.352 1.38 1.353 1.38 3.286c0 .515-.06.966-.2 1.353z"/></svg>