<svg xmlns="http://www.w3.org/2000/svg" fill="none" viewBox="0 0 1024 144"><path fill="#000" fill-rule="evenodd" d="M131.064 22.423h52.754V0h-64.262l-64.71 89.843H0v22.423h51.11a29.88 29.88 0 0 0 24.21-12.407zm52.754 67.27h-70.239v22.424h70.239zm46.328 22.424v-2.392L268.553 0h30.487l38.408 109.725v2.392h-24.061l-8.518-25.114h-42.891l-8.22 25.114zm37.361-42.754h32.131l-15.393-46.94h-1.494l-15.393 46.94zM366.291 0h-23.015v112.117h23.015zm10.162 0h23.015v30.346h21.968v15.697h-21.819v45.145h21.221v20.929h-20.324c-7.473 0-13.301-1.944-17.635-5.681-4.184-3.887-6.277-9.418-6.277-16.743V0zm53.8 47.538a48.46 48.46 0 0 0-5.38 23.619c0 9.567 1.794 17.49 5.38 23.918a34.4 34.4 0 0 0 14.795 14.201c6.277 2.99 13.749 4.784 22.118 4.784a44.8 44.8 0 0 0 20.474-4.186 32.89 32.89 0 0 0 17.784-21.675v-2.392h-20.025c-.299 1.794-1.196 3.587-2.541 5.53-1.494 1.795-3.437 3.29-5.978 4.486-2.54 1.494-5.828 1.943-10.013 1.943-6.127 0-10.909-1.944-14.496-5.83-3.437-3.887-5.23-8.97-5.38-15.099h60.077v-8.67c0-12.557-3.586-22.423-10.76-29.3-7.024-7.026-16.887-10.464-29.291-10.464-8.369 0-15.692 1.495-21.969 4.784a34.4 34.4 0 0 0-14.795 14.35m55.146 14.65h-38.258c.448-4.934 2.241-9.12 5.529-12.558 3.139-3.587 7.921-5.232 13.899-5.232 6.276 0 10.909 1.645 14.047 5.083 2.989 3.438 4.633 7.624 4.783 12.706m160.355 8.969c0-9.418 1.942-17.34 5.529-23.62 3.736-6.278 8.967-11.062 15.393-14.35 6.576-3.14 14.048-4.784 22.417-4.784s15.393 1.495 21.072 4.335c5.828 2.84 10.162 6.428 13.3 10.913 2.989 4.484 4.783 9.418 5.081 14.65v2.242h-21.071c-.299-2.392-1.047-4.634-2.242-7.026s-2.989-4.485-5.53-5.98c-2.54-1.494-5.828-2.391-9.863-2.391-6.426 0-11.358 2.392-15.243 6.876-3.737 4.485-5.679 10.913-5.679 19.284 0 8.222 1.942 14.65 5.679 19.284q5.827 6.727 15.243 6.727c4.185 0 7.472-.897 10.013-2.54 2.54-1.496 4.483-3.589 5.679-5.98 1.195-2.542 1.943-5.083 2.241-7.774h21.222v2.392c-.449 5.381-2.242 10.464-5.38 15.098-2.989 4.634-7.473 8.372-13.152 11.212a47.95 47.95 0 0 1-21.37 4.335c-8.369 0-15.841-1.644-22.417-4.784a35.4 35.4 0 0 1-15.393-14.35 46.65 46.65 0 0 1-5.529-23.62zm88.172 0c0 9.418 1.794 17.34 5.53 23.62 3.736 6.427 8.967 11.211 15.542 14.499 6.725 2.99 14.198 4.784 22.716 4.784s15.991-1.644 22.716-4.784c6.575-3.288 11.806-8.072 15.542-14.5 3.886-6.278 5.679-14.201 5.679-23.47 0-9.567-1.793-17.34-5.679-23.619-3.736-6.428-8.967-11.212-15.542-14.5a50.95 50.95 0 0 0-22.716-4.784c-8.518 0-15.991 1.495-22.716 4.784-6.575 3.288-11.806 8.072-15.542 14.5a45.45 45.45 0 0 0-5.679 23.62zm28.843 19.433c-3.885-4.335-5.679-10.763-5.679-19.433 0-8.521 1.794-14.95 5.679-19.434 3.737-4.335 8.668-6.577 14.945-6.577s11.358 2.242 14.945 6.577c3.885 4.485 5.828 10.913 5.828 19.434 0 8.67-1.943 15.098-5.679 19.433-3.736 4.485-8.817 6.727-15.094 6.727s-11.208-2.242-14.945-6.577zm160.804-42.903a48.44 48.44 0 0 0-5.231 23.62c0 9.567 1.793 17.49 5.231 23.918a34.4 34.4 0 0 0 14.944 14.201c6.277 2.99 13.6 4.784 22.118 4.784a44.8 44.8 0 0 0 20.474-4.186 32.88 32.88 0 0 0 17.635-21.826v-2.391h-20.026c-.448 1.794-1.345 3.587-2.69 5.53q-2.018 2.692-5.828 4.486c-2.541 1.494-5.978 1.943-10.013 1.943-6.127 0-11.059-1.944-14.496-5.83s-5.231-8.97-5.38-15.099h59.929v-8.67c0-12.557-3.589-22.423-10.612-29.3-7.174-7.026-16.888-10.464-29.292-10.464-8.369 0-15.691 1.495-21.968 4.784a34.4 34.4 0 0 0-14.945 14.35zm55.294 14.65H940.46c.448-4.933 2.391-9.119 5.529-12.557 3.288-3.588 7.921-5.232 14.048-5.232 6.277 0 10.91 1.644 14.048 5.082 2.989 3.439 4.484 7.624 4.782 12.707m18.532 37.821h10.761v2.242h-3.89v9.717h-2.99V102.4h-3.881zm12.101 0h3.59l3.59 8.67h.15l3.58-8.67h3.59v11.959h-2.99v-6.877l-2.99 6.877h-2.54l-2.99-6.877v6.877h-2.99zm-182.32-69.81h21.969v9.269h1.494c1.794-2.99 4.633-5.532 8.519-7.475 4.035-2.392 9.415-3.438 16.439-3.438 6.725 0 12.852 1.495 18.531 4.634 5.679 2.99 10.162 7.624 13.45 14.052 3.437 6.13 5.231 14.202 5.231 23.918 0 9.568-1.794 17.49-5.082 23.919a33.03 33.03 0 0 1-13.45 13.902c-5.828 2.99-11.955 4.634-18.83 4.634a32.86 32.86 0 0 1-15.841-2.99 24.5 24.5 0 0 1-7.921-6.577h-1.494v39.166H827.18zm21.67 40.96c0 8.372 1.943 14.65 5.679 18.985 3.587 4.336 8.518 6.428 14.645 6.428 5.978 0 10.91-2.092 14.646-6.428 3.736-4.335 5.53-10.613 5.53-18.985 0-8.52-1.794-14.949-5.53-19.134a18.38 18.38 0 0 0-14.646-6.428c-5.977 0-11.058 2.093-14.645 6.428-3.736 4.335-5.679 10.613-5.679 19.134M575.365 35.578q-9.415 6.952-9.415 17.94c0 7.324 2.54 12.706 7.323 16.443 4.782 3.737 11.208 6.278 19.129 7.474l15.841 2.99c3.587.449 6.277 1.495 8.219 2.69 1.943 1.197 2.989 2.99 2.989 5.682 0 2.84-1.494 5.082-3.885 6.876a19.7 19.7 0 0 1-11.209 2.69c-5.081 0-9.265-1.046-12.852-2.989a11.21 11.21 0 0 1-5.679-9.567h-21.072v2.391a25.43 25.43 0 0 0 11.059 18.238c6.576 4.933 16.14 7.475 28.694 7.475s21.819-2.542 27.797-7.475q8.966-7.624 8.966-18.835c0-7.325-2.391-12.707-7.472-16.444a47.4 47.4 0 0 0-20.026-7.475l-15.99-2.69a17.9 17.9 0 0 1-7.024-2.542c-1.794-1.345-2.69-3.14-2.69-5.68q0-4.037 3.586-6.279a20.9 20.9 0 0 1 11.059-2.392c4.783 0 8.668.897 11.807 2.691 2.988 1.644 4.782 4.634 5.23 8.97h20.923v-2.392a25.4 25.4 0 0 0-11.209-17.79 45.57 45.57 0 0 0-27.199-7.026c-11.657 0-20.773 2.392-26.9 7.026m-61.572-5.232h21.969v11.96h1.494l.299-.45c1.196-3.886 2.092-6.427 6.426-9.118 2.989-1.794 7.024-2.84 11.956-2.84h5.231v17.939h-5.53c-6.277 0-11.059 1.494-14.197 4.933-3.139 3.288-4.633 8.52-4.633 15.845v43.502h-23.015z" clip-rule="evenodd"/></svg>