<svg xmlns="http://www.w3.org/2000/svg" fill="none" viewBox="0 0 1024 270"><path fill="#000" d="M234.575 50.32 147.793 4.234a36.35 36.35 0 0 0-34.057 0L26.135 50.41C12.84 58.334.546 67.806 0 95.037v22.04h34.148V86.931l96.708-51.548 95.979 51.548v30.146h34.148v-22.04c-.546-27.414-13.022-36.794-26.317-44.718z"/><path fill="#000" d="m226.835 185.748-78.951 44.171v-35.701c27.774-6.558 45.987-29.053 45.987-59.29 0-36.613-25.316-61.294-63.015-61.294-37.7 0-63.015 24.59-63.015 61.294 0 30.237 18.212 52.823 45.986 59.29v35.701l-79.679-44.171v-32.969H0v22.04c.546 27.231 12.84 36.703 26.135 44.627l87.692 46.175c10.654 5.647 23.403 5.555 34.057 0l86.782-45.993c13.295-8.015 25.771-17.305 26.408-44.718v-22.04h-34.148v32.969zm-127.304-50.82c0-20.037 11.109-31.057 31.325-31.057 20.215 0 31.325 11.02 31.325 31.057s-11.747 31.147-31.325 31.147c-19.579 0-31.325-11.657-31.325-31.147m789.241-74.134h-47.534l-61.102 62.569V29.92h-39.157v189.345h39.157v-47.359l20.215-20.674 53.18 68.033h43.983l-72.758-93.079zm127.848-4.104c-37.604 0-57.547 15.392-65.014 22.86V60.698h-39.794V219.26h39.794V92.028l72.394-.274-.18-35.063zm-363.787-.088c-30.05 0-48.991 19.49-50.357 20.947V60.61h-39.794v158.654h39.794V88.478h34.057c9.926.365 17.484 1.913 23.13 4.919 1.821 1.001 3.551 2.185 5.099 3.551 8.469 7.56 10.654 20.31 10.654 39.436v82.879h39.248v-94.719c0-39.253-18.03-67.942-61.74-67.942zM494.932 82.378c-4.917-6.921-10.654-12.295-17.393-16.393-11.747-6.011-25.042-9.472-39.247-9.472-46.988 0-85.052 37.523-85.052 83.789 0 34.882 21.673 64.846 52.543 77.414a85.8 85.8 0 0 0 32.509 6.375 87.3 87.3 0 0 0 20.944-2.55c.182 0 .364-.091.546-.182.729-.182 1.366-.364 2.095-.546 2.914-.911 5.737-1.913 8.377-3.097 11.747-5.191 20.034-12.933 24.678-21.767v23.315h39.794V60.611h-39.794zm-49.72 109.108c-31.052 0-51.085-20.947-51.085-51.093 0-32.058 19.487-51.093 51.085-51.093 27.865 0 51.086 18.488 51.086 51.093s-24.04 51.093-51.086 51.093"/></svg>
