<svg xmlns="http://www.w3.org/2000/svg" fill="none" viewBox="0 0 1024 302"><path fill="#000" fill-rule="evenodd" d="M521.298 72.723c-4.27 1.636-6.974 4.98-10.674 13.59l-5.479 12.097a584 584 0 0 0-13.449 29.958 585 585 0 0 1-9.25 20.635l-14.73 32.59a2037 2037 0 0 1-17.647 39.208 729 729 0 0 1-9.748 21.703l-6.404 14.018a58 58 0 0 0-1.211 2.501c-2.549 5.598.156 10.028 6.297 9.672 2.705-.156 5.313-.472 6.797-.93 5.764-1.708 8.61-4.626 12.523-12.951a264 264 0 0 0 1.651-3.485c1.274-2.742 2.478-5.625 3.72-8.381l1.674-3.717a149 149 0 0 0 4.91-11.172l2.846-6.404 1.423-3.345 51.732.143 51.802.213 3.558 8.254a13673 13673 0 0 0 14.445 32.519c1.565 3.345 6.333 7.116 10.46 8.326 3.629 1.067 14.374 1.423 15.797.498.783-.498-.712-4.27-7.827-19.711a1530 1530 0 0 1-15.37-34.155l-15.299-33.8a1155 1155 0 0 0-11.03-24.549 2273 2273 0 0 1-21.56-48.031 1299 1299 0 0 1-4.483-9.962c-9.464-20.992-9.82-21.561-13.093-23.625a14.51 14.51 0 0 0-12.381-1.707m434.699-.214c-3.558.285-9.037.996-12.31 1.708-12.025 2.42-26.328 8.325-30.811 12.737-5.123 4.981-6.404 13.093-3.131 19.64 2.135 4.269 2.846 4.696 4.839 3.273 17.789-13.164 33.444-18.786 49.596-18.003 11.813.64 19.071 3.558 25.404 10.318 4.055 4.269 6.546 10.958 7.115 18.714 1.281 18.928-8.539 32.377-27.182 37.358-2.704.711-8.539 1.209-16.01 1.423-6.404.213-12.808.711-14.018 1.067a12.1 12.1 0 0 0-4.483 3.202 8.755 8.755 0 0 0-.498 11.03c2.846 4.198 4.198 4.483 21.845 4.981 8.824.284 17.078.854 18.501 1.209a36.43 36.43 0 0 1 17.22 8.966c7.685 7.614 10.606 18.003 8.686 30.74a30.85 30.85 0 0 1-8.828 18.857c-6.547 6.688-14.801 9.748-28.179 10.389-17.504.854-30.882-3.345-48.244-15.228-6.262-4.269-6.476-4.269-8.895.783a20.35 20.35 0 0 0-.284 14.516c2.277 4.839 5.977 7.543 16.579 12.097 4.341 1.85 10.656 4.168 17.79 5.692 15.19 3.247 32.234 1.779 39.776-.071 28.105-6.831 43.475-25.19 43.475-52.087a49.7 49.7 0 0 0-4.91-23.838 46.95 46.95 0 0 0-24.974-21.774c-1.992-.64-3.344-1.423-3.202-1.779a27 27 0 0 1 4.839-2.917 53.2 53.2 0 0 0 17.437-17.505c4.27-8.041 5.9-13.947 6.4-22.913.43-9.535-.43-15.156-3.27-22.628-7.83-20.493-31.098-32.02-60.273-29.886m-298.504 2.49c-1.352.712-3.131 2.207-3.914 3.274-1.423 1.921-1.423 2.562-1.423 96.062v90.577a3.643 3.643 0 0 0 3.415 3.636c4.626.284 9.962-1.637 13.449-4.697 5.408-4.91 5.123-2.917 5.55-41.413l.356-34.512 31.665-.071c20.778-.071 33.515-.427 37.002-.925 27.538-4.412 44.544-20.493 48.387-45.754a87.5 87.5 0 0 0-1.423-28.605c-4.981-18.572-18.501-28.128-32.021-34.37-7.99-3.687-27.395-4.269-56.57-4.269s-42.125-.213-44.473 1.068m173.552-.426c-.142.498-.284 41.271-.284 90.583v85.615c0 2.654.66 5.266 1.921 7.601 1.067 2.064 3.06 4.696 4.411 5.906a21.14 21.14 0 0 0 13.378 4.27 3.3 3.3 0 0 0 3.067-3.281l.206-86.947c.143-69.449 0-90.725-.711-93.216-1.068-4.056-6.262-9.25-10.318-10.531-3.842-1.139-11.385-1.139-11.67 0m-147.65 17.809c-5.356.12-8.548 3.22-8.636 8.576-.116 7.1-.189 18.075-.189 30.256v37.998l30.1-.356c31.167-.427 32.021-.427 38.282-1.921a33.72 33.72 0 0 0 23.482-18.287 48.9 48.9 0 0 0-.355-36.789 30.96 30.96 0 0 0-13.947-14.018l-4.625-2.134c-.783-.356-3.985-1.139-7.116-1.85-4.625-.925-11.243-1.21-35.223-1.424a440 440 0 0 0-21.773-.051m-159.891 14.639a2062 2062 0 0 1-18.146 41.413 1324 1324 0 0 0-9.748 22.059c-9.606 22.201-9.535 21.916-11.03 25.047-.711 1.423-1.138 2.775-.925 2.989.57.569 82.97.569 84.393 0 .854-.285.071-2.562-3.771-11.172l-19.924-44.971c-18.928-42.837-17.719-40.204-18.359-40.204-.285 0-1.423 2.135-2.562 4.839" clip-rule="evenodd"/><path fill="#000" d="M61.728 301.115c67.344-1.007 102.066-17.91 116.704-66.766-74.717-51.662-78.603-102.022-58.612-141.85L0 301.443z"/><path fill="#000" d="M142.297 53.587c-32.799 58.787-35.513 97.289-.494 134.386 82.129-38.834 127.714-17.018 152.232 20.198L172.877 0z"/><path fill="#000" d="M316.811 247.676c-34.545-57.78-66.554-79.38-116.211-67.621-7.411 90.496-49.109 119.04-93.619 121.652l240.978-.772z"/></svg>