<svg xmlns="http://www.w3.org/2000/svg" fill="none" viewBox="0 0 1024 288"><path fill="#000" d="M277.102 114.069v75.652h-28.114V3.435h31.852c15.592 0 27.385 1.094 35.348 3.252 8.055 2.158 15.106 6.26 21.246 12.31q16.048 15.682 16.048 39.573c0 17.05-5.715 30.576-17.143 40.546s-26.837 14.953-46.198 14.953zm10.486-26.047c25.804 0 38.721-9.94 38.721-29.787s-13.312-28.844-39.937-28.844h-9.301v58.63zm94.373 7.781c0-26.23 9.604-48.753 28.843-67.567C429.952 9.422 452.961 0 479.798 0s49.299 9.483 68.295 28.48c19.057 18.996 28.601 41.791 28.601 68.417 0 26.625-9.574 49.512-28.722 68.174-19.209 18.753-42.43 28.115-69.602 28.115-24.042 0-45.652-8.328-64.8-24.984-21.063-18.419-31.609-42.552-31.609-72.4m28.357.364c0 20.577 6.93 37.507 20.759 50.789 13.768 13.282 29.634 19.908 47.658 19.908 19.543 0 36.016-6.747 49.45-20.273 13.434-13.677 20.151-30.333 20.151-49.937 0-19.605-6.625-36.504-19.908-49.938-13.19-13.526-29.512-20.273-48.994-20.273-19.483 0-35.744 6.747-49.117 20.273-13.343 13.343-20.029 29.847-20.029 49.451zM643.226 3.495V163.34h54.77v26.412h-82.884V3.495zm121.758 0V163.34h54.769v26.412h-82.884V3.495zm64.283 92.308c0-26.23 9.604-48.753 28.843-67.567C877.259 9.422 900.267 0 927.104 0s49.299 9.483 68.295 28.48C1014.46 47.475 1024 70.27 1024 96.896s-9.57 49.512-28.722 68.174c-19.209 18.753-42.43 28.115-69.602 28.115-24.042 0-45.652-8.328-64.8-24.984-21.063-18.419-31.609-42.552-31.609-72.4m28.357.364c0 20.577 6.93 37.507 20.759 50.789 13.769 13.282 29.634 19.908 47.658 19.908 19.543 0 36.016-6.747 49.45-20.273 13.434-13.677 20.152-30.333 20.152-49.937 0-19.605-6.626-36.504-19.908-49.938-13.191-13.526-29.513-20.273-48.995-20.273-19.483 0-35.743 6.747-49.117 20.273-13.343 13.343-20.029 29.847-20.029 49.451zM33.008 189.781H0L97.868 3.495h21.853l95.771 186.286h-32.248L108.141 49.877z"/><path fill="#000" d="m62.824 189.842 88.811-.121-44.406 80.848zm44.922-71.183c8.46 0 15.319-6.858 15.319-15.319 0-8.46-6.859-15.318-15.319-15.318S92.428 94.88 92.428 103.34s6.858 15.319 15.318 15.319m589.268 120.144h-8.47q-.75-3.653-2.629-6.417a17.5 17.5 0 0 0-4.508-4.643 19.2 19.2 0 0 0-5.84-2.868 23.3 23.3 0 0 0-6.694-.955q-6.352 0-11.509 3.209-5.123 3.209-8.162 9.455-3.006 6.247-3.006 15.328t3.006 15.327q3.04 6.248 8.162 9.456 5.157 3.209 11.509 3.209 3.483 0 6.694-.956a19.6 19.6 0 0 0 5.84-2.834 18 18 0 0 0 4.508-4.676q1.879-2.8 2.629-6.418h8.47q-.956 5.36-3.483 9.592t-6.284 7.203q-3.758 2.936-8.436 4.472-4.644 1.536-9.938 1.536-8.947 0-15.915-4.369-6.967-4.37-10.962-12.426T638 251.912t3.996-19.117q3.995-8.056 10.962-12.426T668.873 216q5.294 0 9.938 1.536 4.679 1.536 8.436 4.506 3.756 2.936 6.284 7.169 2.527 4.199 3.483 9.592m66.843-21.847h9.7l19.398 32.634h.819l19.399-32.634h9.699l-25.273 41.1v28.811h-8.469v-28.811zm127.19 7.51v-7.51h52.457v7.51H921.51v62.401h-8.469v-62.401zm121.633 27.446c0 7.373-1.33 13.745-4 19.116-2.66 5.371-6.32 9.513-10.96 12.426q-6.967 4.37-15.915 4.369-8.947 0-15.915-4.369-6.966-4.37-10.962-12.426t-3.996-19.116 3.996-19.117 10.962-12.426q6.968-4.37 15.915-4.369 8.948 0 15.915 4.369c4.64 2.913 8.3 7.055 10.96 12.426 2.67 5.371 4 11.743 4 19.117m-8.2 0c0-6.054-1.01-11.163-3.04-15.328q-3.002-6.246-8.16-9.455-5.122-3.21-11.475-3.209t-11.509 3.209q-5.123 3.209-8.162 9.455-3.006 6.247-3.006 15.328t3.006 15.327q3.04 6.248 8.162 9.456 5.157 3.209 11.509 3.209t11.475-3.209q5.158-3.209 8.16-9.456c2.03-4.165 3.04-9.274 3.04-15.327"/><path fill="#000" fill-rule="evenodd" d="M710.7 286.867v-69.911h23.633q8.197 0 13.456 2.799 5.26 2.765 7.787 7.612 2.527 4.848 2.527 11.027t-2.527 10.957q-2.527 4.78-7.753 7.51a20 20 0 0 1-2.788 1.178l15.8 28.828h-9.836l-14.748-27.342q-.872.033-1.781.033h-15.3v27.309zm23.497-34.955H719.17v-27.446h14.89q5.67 0 9.119 1.741 3.449 1.707 5.02 4.847t1.571 7.34q0 4.198-1.571 7.237-1.538 3.004-4.986 4.642-3.415 1.638-9.016 1.639m99.629 34.955v-69.911h23.633q8.23 0 13.456 2.97 5.259 2.935 7.786 7.954 2.527 5.017 2.527 11.196t-2.527 11.231q-2.493 5.052-7.718 8.056-5.226 2.97-13.388 2.97h-15.3v25.534zm32.546-34.989q-3.414 1.945-9.05 1.945h-15.027v-29.357h14.891q5.703 0 9.152 1.912 3.45 1.877 4.986 5.188 1.572 3.312 1.571 7.51 0 4.2-1.571 7.544-1.536 3.311-4.952 5.258" clip-rule="evenodd"/></svg>