<svg xmlns="http://www.w3.org/2000/svg" fill="none" viewBox="0 0 1024 251"><path fill="#000" d="m134.88 144.208-12.64 33.235a3.82 3.82 0 0 0 0 2.868l21.707 57.202 25.12-13.929-30.134-79.376c-.693-1.844-3.359-1.844-4.053 0m25.28-55.92c-.693-1.844-3.361-1.844-4.054 0l-12.639 33.235a3.8 3.8 0 0 0 0 2.868l35.573 93.664 25.12-13.929z"/><path fill="#000" d="M115.52 15.517c.64 0 1.227.153 1.814.46l95.786 53.106c1.12.615 1.814 1.74 1.814 2.97v106.211c0 1.229-.694 2.355-1.814 2.97l-95.786 53.157a3.67 3.67 0 0 1-1.814.46c-.64 0-1.227-.153-1.814-.46l-95.733-53.106c-1.12-.615-1.813-1.741-1.813-2.97V72.053c0-1.23.693-2.355 1.813-2.97l95.787-53.105a3.6 3.6 0 0 1 1.76-.461m0-15.517c-3.414 0-6.826.87-9.867 2.56L9.867 55.667C3.787 59.046 0 65.293 0 72.053v106.211c0 6.759 3.787 13.058 9.867 16.438l95.786 53.105a20.34 20.34 0 0 0 9.867 2.561c3.414 0 6.826-.87 9.867-2.561l95.786-53.105c6.134-3.38 9.867-9.627 9.867-16.438V72.054c0-6.76-3.787-13.06-9.867-16.44L125.44 2.562A20.7 20.7 0 0 0 115.52 0"/><path fill="#000" d="M107.467 64.475H83.201c-1.814 0-3.467 1.075-4.054 2.714L27.094 204.23l25.12 13.928L109.547 67.24c.48-1.331-.533-2.765-2.08-2.765m42.506 0h-24.267c-1.813 0-3.467 1.075-4.053 2.714L62.187 223.688l25.12 13.93 64.692-170.326c.534-1.383-.533-2.817-2.026-2.817m184.48 28.523c2.4 0 4.48.46 6.134 1.433s3.306 2.817 4.906 5.583l31.68 55.204c.32.615.374 1.127.214 1.536s-.64.615-1.387.615h-12.16c-1.067 0-1.813-.41-2.187-1.178l-6.773-11.83h-44.96l-6.613 11.83c-.427.819-1.174 1.178-2.187 1.178h-12.427c-.853 0-1.333-.205-1.493-.615-.16-.409-.107-.921.213-1.536l31.414-55.204c1.6-2.766 3.146-4.61 4.693-5.583s3.307-1.433 5.333-1.433zm-18.613 40.609h32.96l-15.2-26.936c-.267-.41-.587-.666-1.067-.666h-.586c-.427 0-.8.205-1.067.666zm130.933-40.609c7.36 0 12.587 1.587 15.787 4.762q4.8 4.763 4.8 14.134v5.223c0 5.275-1.12 9.423-3.36 12.496s-5.866 5.018-10.933 5.889l16.373 19.46c.32.308.427.768.267 1.383-.107.614-.64.921-1.547.921h-12.32c-.853 0-1.387-.102-1.707-.256q-.48-.307-.96-.921l-15.146-19.102h-30.934v18.283q0 1.996-2.079 1.996h-10.347c-1.493 0-2.187-.665-2.187-1.996V95.763q0-2.766 2.88-2.765zm-39.626 32.825h36.64q4.88 0 6.88-1.997c1.333-1.331 2.027-3.38 2.027-6.145v-3.841c0-2.765-.694-4.814-2.027-6.145q-2-1.997-6.88-1.997h-35.414c-.853 0-1.226.358-1.226 1.126zm140.268-32.825c6.559 0 11.249 1.28 14.024 3.789q4.162 3.764 4.162 11.369v4.404c0 5.121-2.027 9.013-6.133 11.676 4.372 2.458 6.609 6.401 6.609 11.83v5.325c0 2.458-.266 4.661-.849 6.607-.589 1.945-1.496 3.635-2.827 5.018-1.336 1.383-3.041 2.458-5.227 3.175s-4.854 1.127-8.054 1.127h-56.853q-2.88 0-2.88-2.766v-58.79q0-2.764 2.88-2.764zm-43.362 26.731h39.256c3.2 0 5.33-.461 6.502-1.382 1.178-.922 1.71-2.254 1.71-4.046v-3.124c0-1.895-.532-3.277-1.653-4.199-1.122-.871-2.934-1.331-5.387-1.331h-39.148c-.853 0-1.226.409-1.226 1.177v12.905zm0 10.037v13.674c0 .819.427 1.177 1.227 1.177h39.253c2.56 0 4.372-.46 5.442-1.331 1.065-.871 1.654-2.304 1.654-4.25v-3.482q-.001-2.843-1.761-4.302c-1.173-.973-3.359-1.486-6.559-1.486zm97.706-36.768q2.08 0 2.078 1.997v60.275q.001 1.996-2.078 1.996h-10.348c-1.49 0-2.186-.665-2.186-1.996V95.046c0-1.332.747-1.997 2.186-1.997zm100.27 0c1.49 0 2.186.665 2.186 1.997v9.013c0 1.434-.747 2.099-2.186 2.099H672v49.163q.001 1.996-2.079 1.996h-10.455q-2.08 0-2.078-1.996v-49.163h-30.029c-1.49 0-2.186-.716-2.186-2.099v-9.013c0-1.332.747-1.997 2.186-1.997zm75.679 0c7.357 0 12.585 1.587 15.785 4.762q4.801 4.763 4.802 14.134v5.223c0 5.275-1.121 9.423-3.364 12.496-2.237 3.073-5.862 5.018-10.931 5.889l16.374 19.46c.317.308.425.768.266 1.383-.107.614-.64.921-1.546.921h-12.319c-.855 0-1.387-.102-1.71-.256-.317-.204-.64-.512-.957-.921l-15.145-19.102h-30.935v18.283c0 1.331-.697 1.996-2.079 1.996h-10.348c-1.495 0-2.186-.665-2.186-1.996V95.763q-.001-2.766 2.878-2.765zm-39.573 32.825h36.639q4.877 0 6.881-1.997c1.331-1.331 2.028-3.38 2.028-6.145v-3.841c0-2.765-.697-4.814-2.028-6.145q-2.004-1.997-6.881-1.997h-35.415c-.85 0-1.224.358-1.224 1.126zm93.384-32.825q2.082 0 2.084 1.997v36.666c0 2.458.209 4.507.64 6.095q.636 2.458 2.078 3.84c.958.973 2.238 1.639 3.892 1.997 1.653.41 3.681.615 6.19.615h26.506c2.504 0 4.531-.205 6.185-.615 1.654-.409 2.934-1.075 3.891-1.997.963-.973 1.654-2.253 2.028-3.84.373-1.639.588-3.637.588-6.095V94.995q0-1.998 2.079-1.997h10.455q2.08 0 2.079 1.997v38.049c0 4.404-.481 8.143-1.439 11.266q-1.442 4.61-4.644 7.528c-2.13 1.946-4.905 3.329-8.32 4.2-3.41.87-7.516 1.28-12.37 1.28h-27.576c-4.854 0-8.96-.41-12.319-1.28s-6.133-2.254-8.263-4.2c-2.135-1.946-3.682-4.455-4.695-7.528s-1.495-6.862-1.495-11.266v-38.05c0-1.33.747-1.996 2.186-1.996zm109.814 0c1.387 0 2.616.102 3.624.256 1.014.204 1.92.512 2.668 1.075.747.512 1.439 1.23 2.079 2.1.589.87 1.229 2.048 1.869 3.533l19.896 44.092c.266.563.691.819 1.331.819h1.173c.64 0 1.064-.256 1.331-.819L995.2 99.962c.64-1.485 1.28-2.663 1.869-3.534.584-.87 1.28-1.587 2.079-2.1.747-.511 1.652-.87 2.612-1.074 1.01-.205 2.19-.256 3.57-.256h10.24c3.31 0 5.55.716 6.73 2.15 1.17 1.434 1.7 3.892 1.7 7.375v52.747c0 1.331-.75 1.996-2.19 1.996h-9.75c-1.39 0-2.09-.665-2.09-1.996v-47.985c0-.614-.26-.922-.74-.922h-.86c-.64 0-1.06.256-1.23.717l-19.303 41.174c-.742 1.638-1.546 3.072-2.344 4.199a15 15 0 0 1-2.56 2.817 8.6 8.6 0 0 1-3.144 1.587c-1.178.307-2.56.461-4.163.461h-4.587q-2.398 0-4.158-.461c-1.172-.307-2.242-.819-3.148-1.587a12.3 12.3 0 0 1-2.56-2.817c-.799-1.127-1.598-2.51-2.345-4.199L939.52 107.08c-.215-.512-.589-.717-1.229-.717h-.85c-.537 0-.747.308-.747.922v47.985c0 1.331-.697 1.996-2.079 1.996h-9.764c-1.49 0-2.186-.665-2.186-1.996v-52.747c0-3.483.589-5.94 1.71-7.374 1.173-1.435 3.41-2.151 6.774-2.151z"/></svg>