<svg xmlns="http://www.w3.org/2000/svg" fill="none" viewBox="0 0 1024 142"><path fill="#000" d="M243.62 34.816h11.63l32.542 75.54h-15.364l-7.042-17.284h-32.755l-6.829 17.284h-15.044zm17.072 46.733-11.63-30.729-11.844 30.729zm41.52-46.733h15.471l20.592 57.082 21.232-57.082h14.513l-30.516 75.54h-11.629zm119.852 0h11.632l32.54 75.54h-15.364l-7.041-17.284h-32.757l-6.829 17.284h-15.042zm17.072 46.733L427.507 50.82l-11.844 30.73zm56.835-46.733h13.445v63.377h32.114v12.163h-45.559zm101.099 0h11.632l32.539 75.54h-15.363l-7.041-17.284H586.08l-6.829 17.284h-15.042zm17.071 46.733L602.512 50.82l-11.843 30.73zm56.836-46.733h17.819l36.595 56.122h.215V34.816h13.441v75.54h-17.068l-37.346-57.935h-.211v57.935h-13.445zm158.112 17.711q-4.161-4.48-8.109-5.975-3.843-1.494-7.788-1.493-5.868-.001-10.671 2.134a23.5 23.5 0 0 0-8.109 5.761c-2.277 2.419-4.052 5.264-5.335 8.536q-1.813 4.908-1.812 10.562 0 6.083 1.812 11.203c1.283 3.415 3.058 6.367 5.335 8.856q3.417 3.735 8.109 5.869 4.803 2.134 10.671 2.134 4.586 0 8.856-2.134 4.371-2.24 8.109-7.042l11.093 7.895q-5.119 7.042-12.483 10.243-7.361 3.201-15.682 3.201-8.75 0-16.11-2.774-7.26-2.881-12.591-8.002-5.23-5.229-8.216-12.484-2.988-7.255-2.987-16.11-.001-9.07 2.987-16.432 2.986-7.469 8.216-12.697 5.331-5.228 12.591-8.002 7.36-2.88 16.11-2.88 7.683 0 14.188 2.773 6.616 2.668 12.273 9.176zm42.527-17.711h13.441v30.088h35.316V34.816h13.445v75.54h-13.445V77.067h-35.316v33.289h-13.441zm100.421 0h50.043v12.163h-36.598v18.565h34.678v12.164h-34.678v20.485H1024v12.163h-51.963zM40.013 141.676H13.206c-5.633 0-8.416 0-10.113-1.087-1.832-1.189-2.952-3.16-3.088-5.334-.101-2.005 1.29-4.451 4.072-9.343L70.27 9.097c2.816-4.96 4.241-7.44 6.04-8.358a6.82 6.82 0 0 1 6.176 0c1.798.917 3.224 3.397 6.04 8.358L102.202 33l.003.005c3.04 5.318 4.582 8.016 5.255 10.848a20.2 20.2 0 0 1 0 9.445c-.679 2.854-2.206 5.572-5.294 10.974L67.398 125.81l-.09.158-.003.003c-3.06 5.363-4.612 8.081-6.762 10.134a20.2 20.2 0 0 1-8.246 4.79c-2.816.781-5.972.781-12.284.781m67.698.003h38.413c5.667 0 8.517 0 10.214-1.121a6.8 6.8 0 0 0 3.088-5.368c.098-1.938-1.263-4.29-3.93-8.898l-.278-.479-19.24-32.956-.219-.371c-2.704-4.578-4.069-6.89-5.821-7.783a6.75 6.75 0 0 0-6.142 0c-1.765.917-3.19 3.33-6.007 8.187l-19.172 32.957-.066.113v.002c-2.807 4.849-4.21 7.273-4.108 9.262.136 2.175 1.255 4.179 3.088 5.368 1.663 1.087 4.513 1.087 10.18 1.087"/></svg>