<svg xmlns="http://www.w3.org/2000/svg" fill="none" viewBox="0 0 1024 242"><path fill="#000" fill-rule="evenodd" d="M174.891 231.326h-62.385l-4.502-28.123H67.325l-4.924 28.123H0L53.715 9.686h73.836zm-73.971-75.648-3.943-25.833a23.5 23.5 0 0 1-.574-3.886c-.181-2.109-1.208-10.424-3.021-24.975q-.395-3.333-.74-6.673a1014 1014 0 0 0-1.148-10.695l-1.888-20.953c-.182 2.004-.453 4.263-.786 6.748l-1.087 8.18q-.694 6.18-1.45 12.352-.124.93-.219 1.666v.001c-.17 1.304-.279 2.14-.355 2.49l-4.2 26.828-6.072 34.75zm446.925 75.648v-53.248h-51.827v-33.893h46.465v-50.07h-46.465v-32.31h51.812V9.684H435.642v221.641zm118.744-53.248h-45.316V9.671h-60.377v221.655h105.693zm185.39 53.248h-62.386l-4.501-28.123h-40.679l-4.925 28.123h-62.4l53.715-221.64h73.835zm-73.972-75.648-3.927-25.833a24.5 24.5 0 0 1-.574-3.886c-.181-2.109-1.209-10.424-3.021-24.975-.212-1.627-.453-3.841-.74-6.673l-1.148-10.695-1.889-20.953a165 165 0 0 1-.8 6.748l-1.088 8.18-.127 1.115-.003.023v.005c-.61 5.323-1.038 9.055-1.32 11.209a177 177 0 0 1-.559 4.157l-4.214 26.828-6.088 34.75zM1024 231.326h-65.301l-29.818-78.946a56 56 0 0 0-1.526-5.318 555 555 0 0 0-2.689-7.893l.454 14.642v77.515h-60.105V9.686h61.827c27.22 0 47.582 5.317 61.101 15.937 17.177 13.587 25.767 32.928 25.767 57.993 0 26.797-11.52 45.325-34.588 55.553zM953.76 84.324c0-16.54-8.716-24.824-26.193-24.824h-2.176v52.827h4.064c6.948 0 12.734-2.637 17.371-7.909 4.637-5.242 6.934-11.945 6.934-20.094" clip-rule="evenodd"/><path fill="#000" d="m297.381 181.391 60.15 59.621 28.157-27.912-74.213-73.569a20 20 0 0 0-14.071-5.777 20 20 0 0 0-14.071 5.777L209.135 213.1l28.127 27.912 60.119-59.606zm121.599-1.325-60.119-59.605 60.119-59.62-28.141-27.913-74.198 73.569a19.65 19.65 0 0 0-5.83 13.956 19.64 19.64 0 0 0 5.83 13.956l74.198 73.569zm-107.415-78.585 74.199-73.569L357.622 0l-60.12 59.62L237.352 0l-28.141 27.912 74.213 73.569c3.882 3.856 8.973 5.769 14.063 5.769 5.106 0 10.196-1.913 14.078-5.769m-33.322 33.034a19.63 19.63 0 0 0 4.31-21.515 19.7 19.7 0 0 0-4.31-6.397l-74.198-73.57-28.142 27.913 60.12 59.605-60.12 59.62 28.142 27.912z"/></svg>
