<svg xmlns="http://www.w3.org/2000/svg" fill="none" viewBox="0 0 1024 196"><path fill="#000" d="M171.719 119.416c36.7 6.863 61.792 20.246 61.792 35.688 0 22.305-52.233 40.492-116.756 40.492S0 177.58 0 155.104c0-15.442 24.922-28.825 61.792-35.688 16.045 4.118 34.821 6.52 54.963 6.52s38.919-2.23 54.964-6.52m-13.997-65.37c31.237 5.147 52.745 16.128 52.745 28.996 0 17.673-41.991 32.085-93.712 32.085-51.72 0-93.711-14.412-93.711-32.256 0-12.697 21.507-23.678 52.745-28.996 11.948 3.088 25.945 4.804 40.966 4.804a168.2 168.2 0 0 0 40.967-4.633M117.097 0c38.748 0 70.156 10.98 70.156 24.364 0 13.382-31.408 24.363-70.156 24.363s-70.156-10.98-70.156-24.363S78.35 0 117.097 0m265.26 161.281c9.73 0 17.923-1.545 24.239-4.461 6.486-3.089 11.266-7.207 14.509-12.525a32.7 32.7 0 0 0 4.779-17.844c0-6.52-1.365-12.01-3.926-16.643a29.1 29.1 0 0 0-9.76-10.313 28.9 28.9 0 0 0-13.454-4.443v-1.2c3.926-.858 7.852-2.574 11.266-4.976 3.414-2.23 5.974-5.319 8.022-8.922s2.902-8.064 2.902-13.383q0-9.522-4.609-16.986a31.6 31.6 0 0 0-13.826-11.839 53.7 53.7 0 0 0-23.044-4.289h-48.819v127.995h51.721zm-5.633-73.606h-22.873V52.33h23.385c6.828 0 11.949 1.716 15.363 4.805 3.414 3.26 5.291 7.206 5.291 12.181 0 3.775-1.024 7.035-2.731 9.78a19.5 19.5 0 0 1-7.51 6.348 27.2 27.2 0 0 1-10.925 2.23m2.048 54.218h-24.75v-37.575h25.433c4.78 0 8.876.857 12.29 2.745a19.3 19.3 0 0 1 7.975 7.166 19.47 19.47 0 0 1 2.95 10.334c0 5.148-1.878 9.266-5.633 12.525-3.926 3.26-9.9 4.805-18.265 4.805m88.933 21.275a37.4 37.4 0 0 0 12.972-2.059 27 27 0 0 0 15.022-13.04h.682v13.212h21.679V97.11a28.8 28.8 0 0 0-2.716-14.736 28.6 28.6 0 0 0-9.745-11.343 38 38 0 0 0-12.461-5.319 55.9 55.9 0 0 0-31.92 1.373 37.5 37.5 0 0 0-13.997 8.922 35.05 35.05 0 0 0-8.193 14.755l20.995 3.089a17.15 17.15 0 0 1 6.487-8.58c3.243-2.401 7.51-3.602 13.143-3.602 5.292 0 9.218 1.2 11.949 3.946a14.25 14.25 0 0 1 3.317 5.026 14.3 14.3 0 0 1 .95 5.955v.343c0 2.059-.853 3.775-2.389 4.804-1.537 1.029-4.097 1.716-7.682 2.23l-13.655 1.545c-4.438.514-9.047 1.201-13.485 2.402-4.097 1.029-8.023 2.573-11.778 4.804-3.414 2.059-6.145 4.975-8.194 8.579a26.7 26.7 0 0 0-3.072 13.382 26.87 26.87 0 0 0 3.897 15.307 26.7 26.7 0 0 0 11.807 10.43c4.779 1.715 10.242 2.745 16.387 2.745m5.803-16.643c-4.779 0-8.534-1.029-11.607-3.26-3.073-2.059-4.609-5.319-4.609-9.436a10.33 10.33 0 0 1 2.39-7.207 14.7 14.7 0 0 1 6.145-4.289c2.902-1.201 5.974-1.887 9.047-2.23l5.291-.687 6.145-1.029 5.633-1.373c1.707-.515 2.902-1.029 3.585-1.716v11.324a19.64 19.64 0 0 1-2.89 9.928 19.5 19.5 0 0 1-7.522 7.058 21.26 21.26 0 0 1-11.608 2.917m84.836 14.756V33.286h-22.532V161.28zm45.746 1.887c4.95 0 9.388-.686 12.973-2.059a27 27 0 0 0 15.021-13.04h.683v13.212h21.849V97.11a28.8 28.8 0 0 0-2.715-14.736 28.6 28.6 0 0 0-9.746-11.343 38 38 0 0 0-12.461-5.319 55.9 55.9 0 0 0-31.92 1.373 37.5 37.5 0 0 0-13.997 8.922c-3.926 4.118-6.828 9.265-8.193 14.755l20.995 3.089c1.195-3.26 3.244-6.177 6.487-8.58 3.243-2.401 7.51-3.602 13.143-3.602 5.292 0 9.218 1.2 11.949 3.946 2.731 2.573 4.097 6.177 4.097 10.98v.344c0 2.059-.854 3.775-2.39 4.804s-4.097 1.716-7.681 2.23l-13.656 1.545c-4.609.514-9.047 1.201-13.485 2.402-4.097 1.029-8.023 2.573-11.607 4.804-3.414 2.059-6.316 4.975-8.193 8.579a26.7 26.7 0 0 0-2.902 13.382 26.87 26.87 0 0 0 3.897 15.307 26.7 26.7 0 0 0 11.807 10.43c4.608 1.715 10.071 2.745 16.045 2.745m5.974-16.643c-4.608 0-8.534-1.029-11.607-3.26-3.072-2.059-4.438-5.319-4.438-9.436 0-2.917.683-5.319 2.219-7.207a14.34 14.34 0 0 1 6.316-4.289c2.902-1.201 5.974-1.887 9.047-2.23l5.291-.687 6.145-1.029 5.633-1.373c1.707-.515 2.902-1.029 3.585-1.716v11.324a19.64 19.64 0 0 1-2.89 9.928 19.5 19.5 0 0 1-7.523 7.058c-3.414 2.059-7.34 2.917-11.778 2.917M694.9 161.28v-56.277c0-4.633.853-8.579 2.731-11.839 1.707-3.26 4.097-5.833 7.169-7.55a22.3 22.3 0 0 1 10.413-2.573c5.803 0 10.412 1.888 13.655 5.49 3.243 3.604 4.95 8.58 4.95 15.099v57.65h22.532V100.2a44.8 44.8 0 0 0-3.926-19.56 29.6 29.6 0 0 0-11.437-12.353 33.5 33.5 0 0 0-17.24-4.29c-7.169 0-13.143 1.545-17.923 4.805a27.93 27.93 0 0 0-10.583 12.868h-1.195v-16.3h-21.507v96.082H694.9zm121.193 1.887c8.023 0 15.022-1.544 20.825-4.461a35.2 35.2 0 0 0 14.273-12.369 35.47 35.47 0 0 0 5.869-18h-21.507c-.512 3.088-1.878 6.177-3.756 8.75a16.06 16.06 0 0 1-6.657 5.491c-2.731 1.201-5.633 1.887-8.876 1.887-4.779 0-8.705-1.201-12.29-3.774-3.414-2.574-6.145-6.177-8.023-10.81a44.8 44.8 0 0 1-2.902-16.814c0-6.52 1.025-12.01 2.902-16.643 1.878-4.632 4.609-8.235 8.194-10.638 3.414-2.573 7.51-3.774 12.119-3.774 5.462 0 9.73 1.544 12.973 4.632 3.243 3.089 5.291 7.035 6.145 11.668h21.507a35.3 35.3 0 0 0-6.033-17.983 35.04 35.04 0 0 0-14.45-12.215 46.4 46.4 0 0 0-20.654-4.29 42.17 42.17 0 0 0-23.616 5.877 42.47 42.47 0 0 0-16.497 17.973 56.85 56.85 0 0 0-5.633 25.908c0 9.779 1.877 18.358 5.462 25.736 3.755 7.378 8.876 13.211 15.704 17.501 7.169 4.289 15.362 6.348 24.921 6.348m96.955 0c7.34 0 13.997-1.201 19.801-3.432s10.412-5.49 14.167-9.608c3.756-4.118 6.316-9.093 7.511-14.584l-20.995-2.402a18.2 18.2 0 0 1-4.462 6.813 18.1 18.1 0 0 1-6.975 4.168c-2.902 1.029-5.804 1.544-8.876 1.373q-7.426 0-12.802-3.089a20.9 20.9 0 0 1-8.535-9.093 31 31 0 0 1-3.072-14.413v.515h66.571v-6.863c0-8.407-1.195-15.613-3.585-21.79a40.9 40.9 0 0 0-9.559-15.098c-3.926-3.947-8.705-6.863-13.997-8.75a49.8 49.8 0 0 0-16.728-2.918 41.65 41.65 0 0 0-23.272 5.983 41.96 41.96 0 0 0-16.159 17.866 56.9 56.9 0 0 0-5.633 26.08c0 10.123 1.878 18.701 5.633 26.079s9.047 13.211 16.046 17.158c6.998 3.946 15.362 6.005 24.921 6.005M888.98 103.46c.171-3.432 1.195-6.692 2.902-9.78a22.26 22.26 0 0 1 8.439-8.94 22.1 22.1 0 0 1 11.874-3.07c4.267 0 8.022 1.03 11.266 2.916a21.74 21.74 0 0 1 7.912 8.423 21.9 21.9 0 0 1 2.5 11.309H888.98zm103.271 57.821v-56.449a20 20 0 0 1 2.628-10.584 19.86 19.86 0 0 1 7.781-7.603c3.42-1.887 7.17-2.745 10.93-2.745l5.97.343c2.05.344 3.59.515 4.44.858v-20.76l-3.93-.515-4.26-.172a25.5 25.5 0 0 0-14.68 4.461 24.7 24.7 0 0 0-9.05 12.868h-1.024V65.027h-21.849v96.082h23.044z"/></svg>
