<svg xmlns="http://www.w3.org/2000/svg" fill="none" viewBox="0 0 1024 283"><path fill="#000" d="M141.058 282.32c78.176 0 141.55-63.199 141.55-141.16C282.608 63.2 219.234 0 141.058 0 66.888 0 6.043 56.886 0 129.295h187.097v23.73H0C6.043 225.433 66.889 282.32 141.058 282.32m212.201-35.478h84.031c37.515 0 64.227-22.187 64.227-58.464 0-28.181-16.206-46.17-42.617-51.267v-.899c22.208-5.397 36.013-21.587 36.013-45.871 0-33.58-24.909-54.566-60.622-54.566h-81.032zM472.404 93.039c0 21.586-15.604 35.377-41.115 35.377h-55.521V54.963h55.521c25.511 0 41.115 13.491 41.115 35.078zm6.604 95.939c0 23.385-17.106 38.675-45.018 38.675h-58.222v-80.649h57.921c27.913 0 45.319 14.691 45.319 38.976zm180.263 57.864h24.01L613.053 35.775h-27.31l-69.325 211.067h22.806l18.008-57.265h84.03zM598.649 58.861h1.799l35.114 111.829h-72.328zm179.364 192.18c46.218 0 76.527-24.885 76.527-62.361 0-34.778-22.806-51.268-57.322-56.965l-30.61-5.096c-23.408-3.897-39.016-14.091-39.016-36.577 0-22.785 17.406-40.174 50.421-40.174 32.111 0 48.618 16.19 50.417 39.275h23.111c-1.802-30.58-25.211-57.864-73.231-57.864-47.418 0-73.528 26.684-73.528 59.663 0 35.078 23.713 51.267 56.125 56.664l30.911 4.797c25.809 4.497 40.213 14.99 40.213 37.176 0 26.083-21.305 42.873-53.721 42.873-33.613 0-54.62-16.19-56.419-43.772h-22.81c1.802 35.977 29.414 62.361 78.932 62.361M888.348 35.775v211.067H1024v-19.489H910.861v-80.349h104.129v-19.187H910.861V55.263H1024V35.775z"/></svg>
