<svg xmlns="http://www.w3.org/2000/svg" fill="none" viewBox="0 0 1024 290"><path fill="#000" fill-rule="evenodd" d="M21.477.449c-5.193.64-11.668 2.244-16.284 4.039L0 6.475v29.49c0 16.156.128 29.426.32 29.426.193 0 1.54-.64 3.014-1.282 4.36-2.308 13.783-4.36 23.271-5.129 4.937-.32 9.937-.769 11.091-.961l2.052-.257v56.801l-5.962.449a88.5 88.5 0 0 0-29.106 5.641L0 122.577v29.362c0 16.155.128 29.426.256 29.426l4.488-1.924c5.77-2.628 12.95-4.231 25.003-5.641l10-1.218v57.698l1.667-.449c4.04-1.026 18.592-1.603 26.606-1.026l10 .641h1.475v-28.208c0-15.514.129-28.208.32-28.208 1.668 0 21.157 4.36 27.888 6.219l8.655 2.436.321 28.208.32 28.08 1.603.513 19.233 5.962a382 382 0 0 0 29.297 7.885l11.732 2.437.129 13.783.192 13.783 11.86 2.052c6.539 1.154 12.63 2.051 13.655 2.051l1.731.065V259.45l2.436.384c2.629.449 19.233 2.308 20.515 2.308.641 0 .77 3.077.77 13.399v13.399l1.987.384c1.09.193 7.18.385 13.463.385h11.475v-26.733l6.219-.77c32.888-4.295 56.608-28.208 61.096-61.48 1.026-7.181.513-19.938-.962-25.452a37.5 37.5 0 0 0-25.771-26.926l-3.398-1.089 2.051-1.667a68.42 68.42 0 0 0 20.387-49.62c0-27.952-15.386-42.12-51.287-47.12l-8.335-1.155V20.515h-2.756c-2.821 0-18.464-1.667-22.118-2.308l-2.051-.385v27.183l-2.116-.321-11.86-2.116-9.745-1.795v-27.31l-1.795-.385-12.822-3.205c-6.154-1.539-11.539-2.821-12.052-2.821-.769 0-.898 2.372-.898 13.463v13.463l-1.474-.32-12.309-3.463-10.899-3.077-.192 27.503c-.064 15.066-.385 27.439-.641 27.439s-7.501-2.565-16.156-5.706l-17.63-6.283-1.923-.64-.192-28.209-.128-28.208-10.45-3.27a218 218 0 0 0-26.734-7.18c-1.154 0-1.218.962-1.218 28.208 0 26.67-.064 28.273-1.154 27.952-3.846-1.09-14.937-1.923-25.259-1.923l-12.052-.065V0l-8.527.064c-4.615.064-9.295.257-10.385.385m57.954 87.316v28.144l3.078.449c5.833.833 28.143 6.475 33.144 8.398.897.385.962-2.628.833-27.374l-.192-27.76-7.693-2.436c-6.219-1.987-20.13-5.641-27.76-7.308l-1.41-.257zm126.936 18.848v20.772l10.771 1.731c23.592 3.654 32.888 3.846 39.363.769 6.795-3.205 9.68-8.398 9.744-17.374 0-5.064-.128-6.218-1.731-9.424-3.846-7.82-9.616-10.45-27.054-12.373-8.847-.961-27.567-3.846-30.003-4.487-1.026-.385-1.09.897-1.09 20.386m304.198-13.078a12.056 12.056 0 0 0-7.052 13.591c.833 4.873 6.667 9.553 11.86 9.553 3.077 0 7.052-1.924 9.168-4.424a12.05 12.05 0 0 0 2.272-11.163 12.05 12.05 0 0 0-8.042-8.07 10.13 10.13 0 0 0-8.206.513m43.274 10.963v12.181h-14.81l.193 10.129.192 10.065 7.18.192 7.18.193.193 28.336c.192 28.208.192 28.336 1.731 32.183a36.93 36.93 0 0 0 21.54 21.54c3.206 1.154 5.642 1.475 14.297 1.731l10.449.257-.192-10.13-.192-10.193-9.36-.321c-6.796-.256-9.681-.577-10.578-1.282a21.2 21.2 0 0 1-6.219-6.731c-1.346-2.5-1.41-3.334-1.602-29.042l-.193-26.413h19.938v-20.514h-19.874V92.317h-19.873zm60.262 52.249v64.429h20.515l-.128-64.301-.193-64.237-10.129-.193-10.065-.192zM399.4 158.991v62.185l31.926-.192 31.862-.192 4.744-1.731a38.47 38.47 0 0 0 25.813-31.941 38.47 38.47 0 0 0-17.735-37.041c-.962-.513-.897-.769.256-2.756a35.2 35.2 0 0 0 4.001-13.371 35.3 35.3 0 0 0-1.5-13.876c-3.847-11.155-12.822-19.489-23.913-22.438-2.436-.641-9.616-.897-29.362-.897H399.4v62.185M46.8 114.435c-1.924.128-4.167.384-5 .641l-1.411.256v56.48l3.397-.32c8.976-.898 14.36-1.026 22.567-.385q5.401.338 10.77 1.026l1.731.385v-56.352l-6.282-.706a194 194 0 0 0-25.772-1.025m373.115 15.963v13.847l15.578-.192 15.643-.192 2.692-1.795c3.013-1.988 4.873-4.68 5.898-8.463 1.475-5.257-1.667-12.18-6.795-15.193-2.436-1.411-3.206-1.475-17.823-1.667l-15.193-.257zm336.572-12.245 19.874 45.646c10.899 25.002 19.874 45.774 19.874 46.222 0 .513-2.949 8.591-6.475 17.951l-6.796 17.95c-.256.642 2.116.834 10.578.834h10.899l1.795-4.68 7.116-18.72c12.95-33.785 39.299-104.049 39.299-104.754 0-.513-2.885-.641-10.642-.577l-10.706.192-11.796 31.414c-6.54 17.309-12.053 31.67-12.309 31.926-.257.256-6.796-13.912-14.553-31.606l-14.04-32.054h-11.091c-6.026 0-11.027.128-11.027.256m140.72.128a51.93 51.93 0 0 0-43.723 49.621c-.641 14.552 3.526 25.643 13.784 36.606a50.2 50.2 0 0 0 56.672 12.822 58.34 58.34 0 0 0 24.81-20.836c1.219-1.987 2.052-3.718 1.924-3.846a290 290 0 0 0-17.887-8.014c-.32 0-1.346 1.154-2.308 2.565a30.9 30.9 0 0 1-40.004 10.129 32.64 32.64 0 0 1-15.835-18.592l-.384-1.795h81.611v-7.565c0-5.513-.385-8.975-1.283-12.629-4.487-17.438-18.591-31.927-35.901-36.863-4.744-1.282-17.117-2.244-21.476-1.539m70.648 0c-.256.257-.449 23.528-.449 51.672v51.159h20.515l.128-32.888.193-32.823 2.115-4.296a22.31 22.31 0 0 1 21.153-12.95l5.45-.064 3.4-7.949c4.81-11.155 4.74-10.066.45-11.027a61 61 0 0 0-10.13-.834 39.4 39.4 0 0 0-19.361 4.744l-3.334 1.796-.192-3.334-.192-3.27-9.617-.192c-5.321-.064-9.873 0-10.129.256m-280.541 2.885a52.19 52.19 0 0 0-36.543 28.401c-3.397 6.988-4.551 11.539-5 19.617a50.14 50.14 0 0 0 15.514 39.427c5.834 5.77 11.989 9.616 19.874 12.245a38.5 38.5 0 0 0 13.335 2.051c5 .193 9.744 0 12.181-.512 5.321-1.026 12.373-3.847 17.309-7.052l3.975-2.565.192 4.167.192 4.167h20.451v-92.958h-10.257c-9.617 0-10.194.064-10.386 1.282-.192 1.09-.577.962-4.359-1.41a46.1 46.1 0 0 0-16.541-6.667c-5.128-.962-15.386-1.09-19.937-.193M505.18 172.133v49.043h20.515v-98.087H505.18zm-387.86-18.399v27.567l17.886 5.769c9.809 3.27 18.079 5.898 18.271 5.898s.385-12.18.385-27.182v-27.182l-16.669-5.77c-9.231-3.27-17.501-6.09-18.335-6.283l-1.538-.384zm779.951-14.874c-7.886 1.924-16.156 8.27-20.13 15.515l-1.475 2.692h57.826l-1.795-3.397a30.77 30.77 0 0 0-34.426-14.81m-207.265 2.436a32.96 32.96 0 0 0-23.592 23.144 31.477 31.477 0 0 0 53.659 28.721 32.5 32.5 0 0 0 7.309-29.49 31.86 31.86 0 0 0-37.376-22.375m-270.091 41.415v17.95h19.425c22.822 0 23.784-.192 29.041-5.449 2.308-2.244 3.59-4.295 4.424-6.667 3.141-9.488-2.372-19.938-11.989-22.823-2.628-.769-7.116-.962-22.117-.962h-18.784zm-213.355 9.873.192 21.797 5.449.833c21.156 3.013 41.35 3.847 47.761 1.924 9.745-3.014 15.066-10.322 15.066-20.964 0-10.835-5.193-17.31-15.643-19.489-2.5-.577-9.744-1.283-16.091-1.667-11.027-.641-21.156-1.795-31.926-3.462l-4.937-.833z" clip-rule="evenodd"/></svg>