<svg xmlns="http://www.w3.org/2000/svg" fill="none" viewBox="0 0 1024 342"><path fill="#000" d="M135.521 258.729a54.56 54.56 0 0 0 38.585-15.985 54.584 54.584 0 0 0 0-77.184 54.56 54.56 0 0 0-77.17 0 54.58 54.58 0 0 0 0 77.184 54.56 54.56 0 0 0 38.585 15.985M0 179.207V30.845A30.87 30.87 0 0 1 9.041 9.04 30.86 30.86 0 0 1 30.845 0 14.667 14.667 0 0 1 45.48 14.62v85.787a136.84 136.84 0 0 1 67.106-31.682v36.056a14.88 14.88 0 0 1-9.703 13.84 91.7 91.7 0 0 0-31.48 20.178 91.75 91.75 0 0 0-20.815 31.067 14.76 14.76 0 0 1-5.125 6.538 14.45 14.45 0 0 1-8.541 2.82z"/><path fill="#000" fill-rule="evenodd" d="M312.872 120.887v161.5l72.458.006q17.896 0 30.436-5.878a44.76 44.76 0 0 0 19.161-16.089 41.73 41.73 0 0 0 6.622-23.219 39.1 39.1 0 0 0-5.045-20.23 36.6 36.6 0 0 0-13.364-13.366 39.44 39.44 0 0 0-18.096-5.286v-1.577a42.5 42.5 0 0 0 15.687-6.624 33.9 33.9 0 0 0 10.648-11.948 34.3 34.3 0 0 0 3.861-16.442 37.47 37.47 0 0 0-6.19-21.369 40.03 40.03 0 0 0-18.449-14.352c-8.171-3.417-18.307-5.126-30.395-5.126zm60.632 66.401H351.9v-35.413h22.236q9.777.008 15.533 4.653a15.55 15.55 0 0 1 5.757 12.775c.099 3.447-.88 6.84-2.801 9.704a17.7 17.7 0 0 1-7.767 6.151 28.6 28.6 0 0 1-11.354 2.13m2.522 63.639H351.9v-38.489h24.838a30.4 30.4 0 0 1 12.852 2.489 19.14 19.14 0 0 1 8.279 7.017 19.5 19.5 0 0 1 2.921 10.764 16.17 16.17 0 0 1-6.036 13.406c-4.02 3.207-10.266 4.813-18.728 4.813m82.07-130.04v161.5h106.202v-31.699h-67.18V120.887zm119.202 161.5h41.943l10.622-33.909h55.764l10.645 33.909h41.949l-54.482-161.5H631.78zm99.022-63.559h-37.169l17.934-57.248h1.264zm157.302-57.04a18.4 18.4 0 0 1 2.026 7.515h37.377a47.5 47.5 0 0 0-7.807-26.495 50.4 50.4 0 0 0-21.484-17.786 77.65 77.65 0 0 0-32.605-6.345 80.55 80.55 0 0 0-32.719 6.305 53.5 53.5 0 0 0-22.475 17.587 43.38 43.38 0 0 0-8.04 26.261q-.076 18.376 11.987 29.142 12.06 10.763 33.037 15.571l16.872 3.947a92 92 0 0 1 14.549 4.454 22.1 22.1 0 0 1 8.473 5.678 12.1 12.1 0 0 1 2.835 7.842 14 14 0 0 1-3.069 8.68 19.5 19.5 0 0 1-8.558 5.911 37.6 37.6 0 0 1-13.444 2.13 39.2 39.2 0 0 1-15.095-2.682 22.86 22.86 0 0 1-10.21-7.888 24.45 24.45 0 0 1-4.18-13.008h-37.376q.237 18.921 8.598 31.307a49.9 49.9 0 0 0 23.414 18.452 94.1 94.1 0 0 0 35.321 6.072q20.19 0 34.496-5.832a48 48 0 0 0 21.956-16.801 45.1 45.1 0 0 0 7.727-26.261 46.3 46.3 0 0 0-3.308-17.507 40.3 40.3 0 0 0-9.503-13.8 58 58 0 0 0-15.449-10.331 98.7 98.7 0 0 0-21.171-6.937l-13.876-3.155a78 78 0 0 1-9.937-2.762 33.7 33.7 0 0 1-7.527-3.668 14.96 14.96 0 0 1-4.732-4.847 11.34 11.34 0 0 1-1.458-6.39c.011-2.825.922-5.57 2.602-7.848a16.54 16.54 0 0 1 7.568-5.399 35 35 0 0 1 12.612-1.97c7.625 0 13.496 1.617 17.624 4.852a18.4 18.4 0 0 1 4.949 6.006m53.894-40.901v31.7h49.044v129.8h38.476v-129.8H1024v-31.7zM234.262 299.806a137.44 137.44 0 0 0 38.54-90.944l.006-.006a137.5 137.5 0 0 0-30.942-91.562 137.45 137.45 0 0 0-83.545-48.57v36.108a14.7 14.7 0 0 0 9.395 13.806 91.6 91.6 0 0 1 37.115 25.911 91.6 91.6 0 0 1 20.179 40.522 91.64 91.64 0 0 1-24.821 84.148 91.59 91.59 0 0 1-84.172 24.692 91.6 91.6 0 0 1-66.33-57.41 14.6 14.6 0 0 0-13.666-9.306H0a137.43 137.43 0 0 0 50.357 84.97 137.38 137.38 0 0 0 183.905-12.359" clip-rule="evenodd"/></svg>
