<svg xmlns="http://www.w3.org/2000/svg" fill="none" viewBox="0 0 1024 161"><path fill="#000" d="M1024 32.414 983.591 2.652H834.076l-9.727 29.762h78.872L860.868 160.89h32.626l42.205-128.476zM466.054 2.652l-40.56 29.762h152.958l9.878-29.762zm-40.56 29.762L383.141 160.89h32.626l36.07-109.47z"/><path fill="#000" d="M588.33 2.652 544.178 136.58l15.417-1.179-63.308-47.295H449.29l93.84 72.784h25.592L614.67 21.658zM191.42 80.298l38.464-18.712 13.17-39.928-26.341-19.006H40.709L0 32.414h206.836L195.91 66.006h-82.914l-8.082 24.31h82.914L164.63 160.89l38.763-19.006 13.919-42.285-26.041-18.86z"/><path fill="#000" d="m58.519 130.539 23.946-73.373-26.64-19.596-39.811 123.32H164.63l9.878-30.351zM293.042 19.006 266.701 0l-46.396 140.558 27.988 20.332h118.235l10.026-30.351H256.225zm358.147 47.737 5.237-15.47-26.192-18.86L615.27 77.5l26.041 18.711v.148h116.738l-11.225 34.181H598.208l-9.878 30.351h148.466l38.911-19.006 19.16-58.05-24.098-17.386z"/><path fill="#000" d="m670.643 2.652-40.409 29.762h177.952l9.877-29.762z"/></svg>