<svg xmlns="http://www.w3.org/2000/svg" fill="none" viewBox="0 0 1024 180"><path fill="#000" d="M30.006 27.548 77.736 0l47.728 27.548-17.548 10.177-30.18-17.371-30.182 17.37zm95.458 34.741-17.548-10.176-30.18 17.37-30.182-17.37-17.548 10.176v20.354l30.182 17.371v34.741l17.547 10.178 17.548-10.178v-34.741l30.181-17.37zm0 55.096V97.031l-17.548 10.177v20.353zm12.459 7.194-30.182 17.37v20.354l47.729-27.548V79.66l-17.547 10.177zm-17.547-79.66 17.547 10.176V75.45l17.547-10.177V44.92l-17.547-10.177zM60.188 149.32v20.353l17.547 10.177 17.548-10.177V149.32l-17.548 10.176zm-30.182-31.935 17.548 10.176v-20.353L30.006 97.031zm30.182-72.466 17.547 10.176L95.283 44.92 77.735 34.742zm-42.64 10.176L35.094 44.92 17.547 34.742 0 44.919v20.353L17.547 75.45zm0 34.742L0 79.66v55.095l47.729 27.548v-20.354l-30.182-17.37zm276.262 23.031v-.287c0-13.44-7.15-20.16-18.732-24.593 7.149-4.003 13.155-10.295 13.155-21.591v-.286c0-15.729-12.584-25.881-33.032-25.881h-46.474v100.092h47.618c22.594 0 37.465-9.152 37.465-27.454m-27.456-42.754c0 7.436-6.148 10.582-15.872 10.582h-20.305V59.533h21.735c9.295 0 14.442 3.718 14.442 10.295zm5.578 40.037c0 7.436-5.863 10.867-15.587 10.867h-26.168v-22.02h25.453c11.297 0 16.302 4.147 16.302 10.867zm130.367 30.171V40.23h-21.736v61.628L333.66 40.23h-20.305v100.092h21.735v-63.63l48.476 63.63zm110.542-27.454v-.287c0-13.44-7.15-20.16-18.733-24.593 7.15-4.003 13.156-10.295 13.156-21.591v-.286c0-15.729-12.584-25.881-33.033-25.881h-46.473v100.092h47.618c22.593 0 37.465-9.152 37.465-27.454m-27.455-42.754c0 7.436-6.149 10.582-15.873 10.582h-20.305V59.533h21.735c9.294 0 14.443 3.718 14.443 10.295zm5.576 40.037c0 7.436-5.862 10.867-15.586 10.867h-26.168v-22.02h25.453c11.297 0 16.301 4.147 16.301 10.867zM645.56 122.64l-11.297-11.439c-8.58 8.007-16.444 13.011-28.742 13.011-19.162 0-33.032-16.014-33.032-35.746s13.87-35.461 33.032-35.461c11.44 0 20.019 5.004 28.027 12.44l11.297-13.012c-9.581-9.151-20.735-15.586-39.181-15.586-30.316 0-51.622 23.307-51.622 51.905 0 28.883 21.736 51.618 50.907 51.618 18.732 0 30.172-6.863 40.611-17.73m85.266-26.167v42.181h17.589V38.563h-17.589v41.61h-47.76v-41.61h-17.589v100.091h17.589V96.473zm96.489-58.625h-16.3l-44.044 100.806h18.016l10.297-24.165h47.334l10.155 24.165h18.585zm8.865 61.056h-34.458l17.154-40.037zm54.775-60.341v100.091h17.589V38.563zm115.745 69.206-53.633-69.206h-16.299v100.091h17.304V67.447l55.198 71.207H1024V38.563h-17.3z"/></svg>
