<svg xmlns="http://www.w3.org/2000/svg" fill="none" viewBox="0 0 1024 276"><path fill="#000" d="M469.531 55.452c15.308 0 27.718-12.413 27.718-27.726S484.839 0 469.531 0s-27.717 12.413-27.717 27.726 12.409 27.726 27.717 27.726m-177.3 52.834q19.814 12.629 23.381 34.296c4.977 30.27-9.843 54.812-37.597 65.28q-12.532 4.74-23.893 4.795-45.336.201-90.636 0-.878 0-.878-.879l.018-201.73c0-.185.072-.362.199-.493a.67.67 0 0 1 .478-.203 8212 8212 0 0 1 77.536.036c36.17.202 67.693 15.757 68.919 56.02q.768 25.109-17.655 41.414-.915.806.128 1.464m-77.591-51.59V86.93a.88.88 0 0 0 .878.879h26.4c4.217 0 8.261-1.552 11.243-4.315 2.981-2.763 4.656-6.51 4.656-10.417V70.55a13.8 13.8 0 0 0-1.21-5.638 14.7 14.7 0 0 0-3.446-4.78 16 16 0 0 0-5.158-3.193 17 17 0 0 0-6.085-1.121h-26.4a.88.88 0 0 0-.878.878m.037 76.333-.074 31.734a1.26 1.26 0 0 0 1.263 1.263l31.541.055a17.7 17.7 0 0 0 6.582-1.251 17.2 17.2 0 0 0 5.583-3.591 16.6 16.6 0 0 0 3.735-5.384 16.1 16.1 0 0 0 1.316-6.355v-1.061c.005-4.399-1.798-8.62-5.013-11.736s-7.577-4.872-12.13-4.882l-31.541-.054c-.335 0-.656.133-.893.369a1.27 1.27 0 0 0-.369.893m409.011-53.878V10.358q0-1.025 1.025-1.025l46.58.037a.75.75 0 0 1 .75.75l.037 202.171a.42.42 0 0 1-.124.297.42.42 0 0 1-.297.123l-47.056.019a.87.87 0 0 1-.621-.263.9.9 0 0 1-.257-.634l-.037-10.523q-.018-2.178-1.463-.567c-6.093 6.844-13.484 11.346-22.632 13.689-33.883 8.656-65.643-8.62-78.706-40.665q-12.094-29.63-2.726-60.283c10.483-34.241 41.109-55.397 77.279-48.809 12.386 2.27 18.662 7.046 27.206 14.934q1.042.97 1.042-.458m-30.759 92.931c4.06.036 8.087-.759 11.853-2.337a30.9 30.9 0 0 0 10.091-6.863 32.2 32.2 0 0 0 6.793-10.343 33.1 33.1 0 0 0 2.46-12.249A33.1 33.1 0 0 0 621.88 128a32.2 32.2 0 0 0-6.612-10.46 30.9 30.9 0 0 0-9.969-7.038 30 30 0 0 0-11.811-2.544 30 30 0 0 0-11.853 2.338 30.9 30.9 0 0 0-10.091 6.862 32.2 32.2 0 0 0-6.793 10.343 33.1 33.1 0 0 0-2.461 12.249 33.1 33.1 0 0 0 2.247 12.29 32.2 32.2 0 0 0 6.611 10.461 30.9 30.9 0 0 0 9.97 7.037 30 30 0 0 0 11.811 2.544M101.611 123.22c-10.044-15.428-32.438-17.056-44.677-4.557-8.251 8.437-10.886 22.419-6.385 33.216 9.312 22.291 39.079 23.846 51.684 3.935a.675.675 0 0 1 .915-.238l39.39 22.803q.227.13.385.34a1.31 1.31 0 0 1 .072 1.472C106.276 240.712 11.708 222.777.932 151.769c-7.428-48.9 30.516-90.9 79.822-88.265q41.018 2.178 62.516 36.346a.9.9 0 0 1 .106.704.93.93 0 0 1-.436.577l-39.097 22.62a1.7 1.7 0 0 1-1.226.176 1.66 1.66 0 0 1-1.006-.707m700.787 71.557q-21.37 20.899-52.526 14.714c-58.582-11.658-73.731-88.138-33.847-127.247 21.369-20.954 63.394-28.092 85.696-2.891q1.665 1.884 1.683-.64l.018-10.542q0-.879.897-.879h46.214a.73.73 0 0 1 .732.733q.092 61.307.036 122.744-.018 26.902-2.598 36.4c-16.411 60.265-114.181 63.157-144.734 13.744a1.37 1.37 0 0 1-.165-1.058 1.35 1.35 0 0 1 .64-.845l38.128-22.071c.254-.144.553-.184.833-.113.281.072.52.251.667.497q6.513 10.761 19.1 14.165c16.722 4.539 37.945-.842 40.013-20.277q.804-7.577 0-16.16-.11-.952-.787-.274m.722-60.214a27.104 27.104 0 0 0-27-27.199l-6.44-.022a27.1 27.1 0 0 0-19.187 7.872 27.1 27.1 0 0 0-8.003 19.137l-.019 5.307a27.11 27.11 0 0 0 16.639 25.099 27.1 27.1 0 0 0 10.362 2.099l6.44.023a27.1 27.1 0 0 0 19.187-7.872 27.1 27.1 0 0 0 8.003-19.137zm119.149 24.106c9.715 21.723 42.885 20.717 58.253 6.973q.384-.33.805-.037l33.393 23.37c.14.103.27.235.36.388s.15.324.17.502c.03.178.01.358-.04.529s-.14.33-.26.466q-15.93 18.429-40.045 23.407c-42.024 8.711-85.696-6.863-99.655-50.035q-4.226-13.048-3.385-27.872c2.47-43.318 36.225-74.869 80.189-72.947 50.626 2.196 77.916 44.361 70.836 92.072a2.68 2.68 0 0 1-.89 1.634c-.49.42-1.11.652-1.76.653l-97.404.037q-.951 0-.567.86m54.539-35.303c-7.3-26.7-46.8-25.218-55.051-.237a.84.84 0 0 0 .119.764.87.87 0 0 0 .704.352l53.569-.018a.67.67 0 0 0 .665-.547.7.7 0 0 0-.006-.314m-593.21-32.374a.658.658 0 0 0 1.281.22c5.671-17.166 24.168-26.683 41.457-26.537q.696 0 .695.696l.055 51.206q0 1.061-1.061.988c-20.601-1.281-41.604 7.302-42.025 32.027a2989 2989 0 0 0-.439 62.607.527.527 0 0 1-.53.531l-46.928-.019a.74.74 0 0 1-.53-.225.78.78 0 0 1-.22-.543l-.091-143.864a.785.785 0 0 1 .786-.786h46.178c.359 0 .703.144.957.401.254.258.397.607.397.971zM492.693 67.31h-46.58a.75.75 0 0 0-.75.751V211.98a.75.75 0 0 0 .75.751h46.58a.75.75 0 0 0 .751-.751V68.061a.75.75 0 0 0-.751-.75"/></svg>
