<svg xmlns="http://www.w3.org/2000/svg" fill="none" viewBox="0 0 1024 311"><path fill="#000" d="M60.853 31.022c69.939-51.223 169.033-36.995 225.217 27.82q.493.57-.052 1.089l-38.515 36.891q-.505.48-.985-.013c-20.21-20.758-43.104-36.528-72.272-41.297-59.827-9.757-114.003 30.607-118.682 91.755-4.81 62.704 39.85 109.702 102.464 109.521 36.117-.104 64.17-16.884 88.27-42.308a.74.74 0 0 1 .547-.237.77.77 0 0 1 .555.237l37.4 39.043q.401.428-.013.842c-38.632 39.198-80.712 59.127-136.806 56.289-78.365-3.965-137.868-55.239-146.8-134.451-6.378-56.575 13.016-111.011 59.672-145.181M617.59 304.188a.61.61 0 0 1-.61.609h-53.54a.6.6 0 0 1-.562-.376.6.6 0 0 1-.047-.233V1.879a.6.6 0 0 1 .179-.43.6.6 0 0 1 .43-.179h53.54a.61.61 0 0 1 .61.61zm-170.498 4.25c-71.637 12.233-136.754-27.82-141.654-103.624-5.147-79.666 58.868-137.316 137.726-122.505 62.847 11.818 96.371 66.954 91.199 128.206q-.053.674-.726.674H359.263a.96.96 0 0 0-.758.355.96.96 0 0 0-.201.811c6.261 31.229 28.494 48.295 59.218 49.5 21.195.829 40.291-5.754 55.562-20.681a1.52 1.52 0 0 1 1.698-.285l44.789 21.043a.416.416 0 0 1 .169.609c-17.553 25.864-42.262 40.714-72.648 45.897m-8.116-179.143c-33.407-9.174-65.803 4.626-78.119 38.031a.352.352 0 0 0 .325.467l117.956-.013a.56.56 0 0 0 .455-.239.54.54 0 0 0 .063-.5q-10.41-29.44-40.68-37.746m259.973 82.659c10.229 56.133 78.625 64.349 114.807 29.181q.738-.726 1.685-.285l44.517 20.992q.687.324.246.959-27.067 39.184-74.955 45.961c-39.527 5.598-77.821-1.904-106.691-30.101-26.576-25.955-37.102-65.917-31.502-102.134 11.162-72.228 79.247-111.335 148.525-91.328 56.145 16.21 84.211 69.247 79.48 125.29a.75.75 0 0 1-.242.499.77.77 0 0 1-.523.201H699.585q-.765 0-.636.765m37.401-81.143c-16.283 5.753-29.026 20.227-34.769 36.153q-.298.816.57.816h117.581a.49.49 0 0 0 .383-.197.48.48 0 0 0 .071-.425c-11.46-35.194-50.649-48.074-83.836-36.347m214.405-14.617a.34.34 0 0 0 .476.306.34.34 0 0 0 .16-.15c12.574-24.413 46.591-33.056 71.859-31.643q.75.038.75.803v48.229c0 .148-.03.294-.09.429a1.07 1.07 0 0 1-.63.592c-.14.052-.28.075-.43.068-25.348-1.27-50.38 2.151-60.985 28.417-3.578 8.837-3.604 22.132-3.617 31.98q-.077 55.175-.026 109.831c0 .279-.109.546-.303.743a1.04 1.04 0 0 1-.734.307H904.41a.97.97 0 0 1-.972-.972V87.441a.646.646 0 0 1 .648-.648h46.021q.648 0 .648.648z"/></svg>
