<svg xmlns="http://www.w3.org/2000/svg" fill="none" viewBox="0 0 1024 233"><path fill="#000" fill-rule="evenodd" d="M231.244 0H0v232.649h231.24v-81.211h-38.377c-13.228 29.627-43.004 50.261-77.079 50.261-46.977 0-85.02-38.605-85.02-85.537s38.043-85.207 85.02-85.207c34.736 0 64.511 21.303 77.745 51.589h37.715zm223.943 151.434c-13.562 29.625-43.006 50.258-77.408 50.26-45.656 0-83.038-36.611-84.692-82.21h200.476V0H262.318v232.644h231.245v-81.21zm2.964-60.571h-161.44c10.254-38.275 44.325-59.907 81.048-59.907 36.721 0 68.483 20.299 80.392 59.907m534.758 25.294c0 47.263-37.716 85.537-84.693 85.537-46.646 0-84.69-38.605-84.69-85.537s37.716-85.207 84.69-85.207c46.977 0 84.693 37.945 84.693 85.207M1024 0H792.758v232.649H1024zM725.471 151.434h38.376v81.21H524.334V0h39.036v116.157c0 51.923 38.377 85.207 84.028 85.207 35.397 0 66.493-19.309 78.073-49.93" clip-rule="evenodd"/></svg>