<svg xmlns="http://www.w3.org/2000/svg" fill="none" viewBox="0 0 1024 191"><path fill="#000" d="M289.611 146.659c32.262 0 51.62-16.989 51.62-45.407v-2.699h-30.112v2.699c0 12.066-5.162 16.829-21.078 16.829-19.501 0-24.807-5.081-24.807-26.196s5.306-26.196 24.807-26.196c15.916 0 21.078 4.763 21.078 16.83v2.698h30.112v-2.699c0-28.418-19.358-45.406-51.62-45.406-33.411 0-53.055 21.592-53.055 54.773s19.644 54.774 53.055 54.774m85.68-1.588v-40.009h44.739v40.009h26.958V38.7H420.03v39.532h-44.739V38.7h-26.957v106.37zm104.826 0 7.457-19.687h45.598l7.314 19.687h30.972L529.874 38.7h-38.572l-41.44 106.371zm23.23-61.442 6.165-17.94h1.865l6.309 17.94 5.592 14.924h-25.523zm97.954 61.442V38.7h-26.958v106.37zm35.568 0v-41.597l-1.147-20.32h1.864l12.188 20.956 28.392 40.961h28.678V38.7h-26.958v41.12l1.291 23.179h-1.864l-14.053-24.45-26.67-39.85h-28.678v106.372zm105.583 0v-36.992h56.783V81.407h-56.783V65.53h58.932V38.7h-85.889v106.37zm148.474 0V118.24h-55.494V38.7h-26.955v106.37zm34.129 0V38.7h-26.963v106.37zm35.566 0V118.24h26.243c22.796 0 37.136-14.606 37.136-39.85 0-25.243-14.34-39.69-37.136-39.69h-53.198v106.37zm23.229-79.54c9.462 0 13.334 2.063 13.334 12.86 0 10.954-3.872 13.018-13.334 13.018h-23.229V65.531zM175.377 0v80.59c0 14.327-4.095 28.207-11.484 39.624-2.298 3.581-4.894 6.827-7.79 9.85l-.199.111H121.75V55.518H23.784l.4-.448L50.947 27.2l9.886-10.186C72.019 5.373 85.8 0 100.979 0z"/><path fill="#000" d="m151.493 135.683-.2.225-1.797 1.902-6.791 7.164-24.667 25.632-2.397 2.462c-11.184 11.529-25.864 17.797-40.943 17.797H0v-36.041l.1-19.253.2-25.632c.1-18.692 6.99-36.377 19.173-49.137H51.13v74.769h100.363z"/></svg>
