<svg xmlns="http://www.w3.org/2000/svg" fill="none" viewBox="0 0 1024 315"><path fill="#000" d="M351.537 155.179a55.4 55.4 0 0 1 3.398-21.471 55.42 55.42 0 0 1 29.048-31.22 55.5 55.5 0 0 1 21.18-4.947h2.274c28.283 0 44.975 16.626 49.911 36.079l-17.58 5.875a30.93 30.93 0 0 0-11.649-18.146 30.96 30.96 0 0 0-20.682-6.129c-18.3 0-36.656 13.357-36.656 40.291 0 26.935 17.912 39.792 36.878 39.792a33.3 33.3 0 0 0 20.722-6.525 33.26 33.26 0 0 0 12.275-17.915l17.246 5.542a49.87 49.87 0 0 1-18.773 27.232 49.93 49.93 0 0 1-31.692 9.512 54.97 54.97 0 0 1-39.136-15.359 54.9 54.9 0 0 1-16.819-38.51c-.056-1.33 0-2.716.055-4.101M492.119 210.6h-18.19V97.208h18.19v44.337a26.9 26.9 0 0 1 21.628-9.532c18.8 0 27.728 13.467 27.728 30.26V210.6h-17.524v-45.113a14.8 14.8 0 0 0-2.807-10.854 14.8 14.8 0 0 0-9.615-5.772 16 16 0 0 0-3.272 0c-4.207 0-8.241 1.67-11.215 4.642a15.84 15.84 0 0 0-4.646 11.208q-.04.692 0 1.386zm90.172-43.672 19.52-3.048c4.437-.554 5.546-2.827 5.546-5.542 0-6.429-4.326-11.583-14.419-11.583a14.54 14.54 0 0 0-10.519 3.357 14.52 14.52 0 0 0-5.119 9.777v.832l-16.637-3.713c1.386-13.191 13.365-24.94 32.109-24.94 23.513 0 32.442 13.301 32.442 28.819v37.853a75.4 75.4 0 0 0 .943 12.248H609.52a44.3 44.3 0 0 1-.721-9.755 26.5 26.5 0 0 1-10.151 9.149 26.53 26.53 0 0 1-13.363 2.878 23.97 23.97 0 0 1-17.439-5.578 23.94 23.94 0 0 1-8.403-16.258v-1.108c-.277-14.022 9.76-21.559 22.848-23.388m25.177 12.248v-3.492l-19.909 2.993a10.473 10.473 0 0 0-10.148 10.364 10.07 10.07 0 0 0 3.132 7.144 10.1 10.1 0 0 0 3.367 2.121c1.252.477 2.587.7 3.926.655h.832a17.3 17.3 0 0 0 12.743-3.802 17.3 17.3 0 0 0 4.311-5.231 17.3 17.3 0 0 0 1.968-6.485 17.8 17.8 0 0 0-.278-4.267zm48.691-83.519a11.88 11.88 0 0 1 8.46 3.375 11.87 11.87 0 0 1 3.574 8.374 11.86 11.86 0 0 1-7.289 10.94 11.87 11.87 0 0 1-12.912-2.497 11.85 11.85 0 0 1-2.678-12.868 11.86 11.86 0 0 1 4.297-5.356 11.9 11.9 0 0 1 6.548-2.08zm-8.873 115.275V134.34h18.189v76.26zm59.615-.332h-18.134v-76.26h17.69v10.142a25.23 25.23 0 0 1 22.571-12.358c18.633 0 27.728 13.467 27.728 30.259V210.6h-18.134v-45.113c0-9.366-4.27-16.959-15.694-16.959a16.1 16.1 0 0 0-11.34 4.786 16.08 16.08 0 0 0-4.632 11.397v1.829zm71.816 0V97.208h18.19V210.6zm50.632-114.943a11.82 11.82 0 0 1 10.957 7.261 11.8 11.8 0 0 1-2.55 12.89 11.818 11.818 0 0 1-18.197-1.823 11.8 11.8 0 0 1-1.967-6.579 11.86 11.86 0 0 1 11.757-11.75m-8.929 115.275V134.34h18.023v76.26zm59.726-.331h-18.189v-76.26h17.69v10.142a25.29 25.29 0 0 1 22.571-12.358c18.633 0 27.728 13.467 27.728 30.259V210.6h-18.189v-45.113a14.8 14.8 0 0 0-2.807-10.854 14.8 14.8 0 0 0-9.616-5.772 16.7 16.7 0 0 0-3.327 0 16.1 16.1 0 0 0-11.265 4.765 16.07 16.07 0 0 0-4.651 11.307 11 11 0 0 0 0 1.939zm111.856-44.06L1024 210.877h-22.18l-22.185-31.424-9.372 9.865V210.6H952.24V97.208h18.023v67.946l29.281-30.814h24.126zM136.201 66.505l78.637 45.113v90.668l-78.416 45.39-78.581-45.002v-90.613zm0-66.505-28.838 16.626-78.526 45.556L0 78.81v157.229l28.837 16.626 78.637 45.113 28.838 16.626 28.837-16.626 78.359-45.445 28.838-16.627V78.255l-28.838-16.627-78.581-45.002L136.09 0z"/></svg>