<svg xmlns="http://www.w3.org/2000/svg" fill="none" viewBox="0 0 1024 335"><path fill="#000" d="m145.209 167.498 39.391-22.731.129-.074v-3.851l-.129-1.893-44.516 25.647v50.694l1.311.349 3.814-2.53zm-79.041-14.323v-31.288l26.707-15.411-1.044-.692-2.933-1.943-.217.128-26.827 15.786v31.829l3.617 1.334zm39.433-8.355 27.813-16.11 11.795-6.833.147-.085v-3.851l-.147-1.881-44.733 25.858v50.453l1.312.59 3.772-2.502.041-.028z"/><path fill="#000" d="M0 114.672v136.575l145.209 83.749 117.831-68.08-65.824-38.346-52.007 30.15v-45.611l-3.814 2.53-1.311-.349-34.524 20.496v-45.327l-3.772 2.502-1.312-.59-34.308 20.738v-59.784l-.697-.407-3.617-1.334v-.779zm290.16-30.923L145.209 0 26.792 68.297l61.889 35.672.217-.128 2.933 1.943 1.113.642 52.265-30.15v39.784l.147 1.881v3.851l-.147.085v.01L184.6 99.21v39.739l.129 1.893v3.851l10.449-6.03 28.814-16.776v.149l.258-.149v60.042l-.258-.147v.147l66.168 38.503z"/><path fill="#000" d="m171.212 182.702 26.776-15.719 3.063 1.743v-8.647l-34.461 20.548v39.786l7.732-4.774-3.11-1.757z"/><path fill="#000" fill-rule="evenodd" d="M145.209 213.109v-45.611l39.391-22.731v.054l10.578-6.158 28.814-16.627v59.746l.258.147v-60.042l-.258.149v-.149l-28.814 16.776-10.449 6.03v-3.851l-.129-1.893-44.516 25.647v50.694l1.311.349zm144.951 7.323.257.15V83.492L145.209 0 26.776 68.288l.016.009L145.209 0 290.16 83.749zm-27.12 46.484-117.831 68.08 117.917-68.03zM88.68 103.969l-26.826 15.786v31.829l3.617 1.334.697.407v-31.438l26.707-15.411 52.334-30.2-52.265 30.15-1.113-.642-2.933-1.943zm13.108 88.992-1.312-.59v-50.453l44.733-25.858.147 1.881v3.851l-.147.085v.01l-11.795 6.823-27.813 16.11v45.611l-.041.028z" clip-rule="evenodd"/><path fill="#000" d="M812.274 74.735h29.793v185.268h-29.793zm144.501 0q21.135 0 36.159 7.126 15.025 7.125 22.916 20.359c5.43 8.822 8.15 19.511 8.15 32.065 0 7.296-1.19 14.591-3.56 21.886-2.21 7.296-5.78 13.912-10.7 19.85-4.75 5.938-11.204 10.774-19.352 14.506q-11.969 5.345-29.538 5.345h-26.737v64.131H904.32V74.735zm4.075 92.379q9.676 0 16.297-3.308 6.62-3.309 10.185-8.398 3.82-5.09 5.348-10.434 1.782-5.6 1.782-9.925 0-4.58-1.528-9.925-1.527-5.6-5.093-10.434-3.564-5.09-9.931-8.144-6.366-3.309-16.296-3.308h-27.501v63.876zm-568.693.075a88.8 88.8 0 0 1 5.45-34.44 88.9 88.9 0 0 1 18.285-29.696 89 89 0 0 1 62.28-28.318h3.647c45.365 0 72.139 26.669 80.056 57.873l-28.198 9.423a49.6 49.6 0 0 0-18.684-29.106 49.66 49.66 0 0 0-33.174-9.832c-29.354 0-58.797 21.425-58.797 64.629s28.732 63.829 59.153 63.829a53.4 53.4 0 0 0 33.237-10.467 53.34 53.34 0 0 0 19.689-28.737l27.663 8.89a80 80 0 0 1-30.112 43.682 80.1 80.1 0 0 1-50.833 15.257 88.18 88.18 0 0 1-62.774-24.636 88.07 88.07 0 0 1-26.977-61.773c-.089-2.133 0-4.356.089-6.578m200.497 0a88.86 88.86 0 0 1 23.736-64.136 88.9 88.9 0 0 1 28.306-20.383 89 89 0 0 1 33.974-7.935h3.647c45.365 0 72.139 26.669 80.056 57.873l-28.198 9.423a49.6 49.6 0 0 0-18.685-29.106 49.66 49.66 0 0 0-33.173-9.832c-29.354 0-58.797 21.425-58.797 64.629s28.731 63.829 59.153 63.829a53.4 53.4 0 0 0 33.237-10.467 53.34 53.34 0 0 0 19.688-28.737l27.664 8.89a80 80 0 0 1-30.112 43.682 80.1 80.1 0 0 1-50.833 15.257 88.18 88.18 0 0 1-62.774-24.636 88.08 88.08 0 0 1-26.978-61.773c-.089-2.133 0-4.356.089-6.578"/></svg>