<svg xmlns="http://www.w3.org/2000/svg" fill="none" viewBox="0 0 1024 317"><path fill="#000" d="m295.926 79.83-6.832-11.994a7.01 7.01 0 0 0-5.174-3.483 7.02 7.02 0 0 0-5.906 2.008l-15.713 15.695a7.06 7.06 0 0 0-.874 8.893 123.3 123.3 0 0 1 13.663 28.113 123.2 123.2 0 0 1-60.517 148.959 123.25 123.25 0 0 1-56.233 13.595 122.14 122.14 0 0 1-57.74-14.33l26.575-26.582a88.02 88.02 0 0 0 96.064-22.906 88 88 0 0 0 22.145-46.656 87.96 87.96 0 0 0-7.854-51.042 7.03 7.03 0 0 0-5.164-3.894 7.03 7.03 0 0 0-6.162 1.968L210.3 133.965a7.02 7.02 0 0 0-1.872 6.584l1.367 5.71A52.76 52.76 0 0 1 190 200.607a52.79 52.79 0 0 1-57.743 3.556l-7.009-4.016a7.01 7.01 0 0 0-8.471 1.134l-64.913 64.885a7.037 7.037 0 0 0 .697 10.56l9.564 7.335a156.96 156.96 0 0 0 96.27 32.62 158.5 158.5 0 0 0 78.966-21.185 158.5 158.5 0 0 0 57.897-57.715 158.43 158.43 0 0 0 .668-157.951m-41.29-47.195A156.9 156.9 0 0 0 158.367 0a158.5 158.5 0 0 0-79.01 21.165A158.5 158.5 0 0 0 21.423 78.9a158.43 158.43 0 0 0-.63 158.02l6.832 11.98a7.052 7.052 0 0 0 11.095 1.489l15.685-15.682a7.09 7.09 0 0 0 .874-8.879 122.7 122.7 0 0 1-13.663-28.112A123.19 123.19 0 0 1 58.301 86.508a123.26 123.26 0 0 1 100.066-51.347 122 122 0 0 1 57.726 14.371l-26.588 26.569a88 88 0 0 0-81.173 9.873 87.94 87.94 0 0 0-37.982 72.4c0 1.463.397 8.129.52 9.276a88.5 88.5 0 0 0 8.293 29.055 7.04 7.04 0 0 0 5.172 3.893 7.04 7.04 0 0 0 6.168-1.967l15.904-15.914a7.03 7.03 0 0 0 1.885-6.57l-1.366-5.724a52.74 52.74 0 0 1 19.791-54.353 52.78 52.78 0 0 1 57.746-3.538l7.01 4.016a7.05 7.05 0 0 0 8.471-1.134l64.899-64.885a7.06 7.06 0 0 0 2.053-5.44 7.1 7.1 0 0 0-.814-2.862 7.1 7.1 0 0 0-1.922-2.27zm481.583 69.255h52.226v130.895a6.25 6.25 0 0 0 1.829 4.233 6.3 6.3 0 0 0 4.242 1.839h14.316a6.1 6.1 0 0 0 4.294-1.787 6.06 6.06 0 0 0 1.777-4.285V101.89h50.111a6.1 6.1 0 0 0 5.625-3.76 6 6 0 0 0 .459-2.325V83.85a6.05 6.05 0 0 0-1.759-4.33 6.1 6.1 0 0 0-4.325-1.805H736.219a6.12 6.12 0 0 0-4.307 1.788 6.1 6.1 0 0 0-1.317 1.972 6 6 0 0 0-.459 2.325v11.956a6.05 6.05 0 0 0 1.759 4.33 6.12 6.12 0 0 0 4.324 1.805m-211.785 96.604a5.905 5.905 0 0 0-7.654.176c-9.364 7.269-20.224 13.997-36.099 13.997-29.06 0-52.702-24.485-52.702-54.605s23.554-54.819 52.488-54.819c12.57 0 26.144 5.294 36.124 14.06a5.88 5.88 0 0 0 4.55 2.037 5.13 5.13 0 0 0 3.771-2.138l9.452-9.734a6.08 6.08 0 0 0 1.848-4.502 6.2 6.2 0 0 0-2.162-4.452c-16.504-14.387-33.082-20.8-53.809-20.8-44.243 0-80.241 36.244-80.241 80.788a80.44 80.44 0 0 0 23.517 56.775 80.34 80.34 0 0 0 56.724 23.574 75.8 75.8 0 0 0 54.048-21.757 6.7 6.7 0 0 0 1.91-4.842 5.3 5.3 0 0 0-1.709-3.772zm162.865 0a5.906 5.906 0 0 0-7.655.176c-9.364 7.269-20.223 13.997-36.098 13.997-29.06 0-52.703-24.485-52.703-54.605s23.542-54.819 52.477-54.819c12.569 0 26.143 5.294 36.136 14.06a5.83 5.83 0 0 0 4.587 2.037 5.12 5.12 0 0 0 3.771-2.138l9.452-9.734a6.06 6.06 0 0 0 1.835-4.502 6.13 6.13 0 0 0-2.149-4.452c-16.466-14.387-33.044-20.8-53.771-20.8-44.243 0-80.241 36.244-80.241 80.788a80.44 80.44 0 0 0 23.517 56.775 80.34 80.34 0 0 0 56.724 23.574 75.8 75.8 0 0 0 29.195-5.479 75.9 75.9 0 0 0 24.853-16.278 6.7 6.7 0 0 0 1.91-4.854 5.28 5.28 0 0 0-1.709-3.773z"/><path fill="#000" fill-rule="evenodd" d="M974.767 77.714c27.153 0 49.233 21.747 49.233 48.465 0 19.393-10.73 36.495-30.166 45.096-8.823 3.906-28.343 4.194-28.343 4.194h-32.543v57.304a6.25 6.25 0 0 1-1.824 4.24 6.3 6.3 0 0 1-4.246 1.844h-14.103a6.1 6.1 0 0 1-4.299-1.792 6.06 6.06 0 0 1-1.772-4.292V83.786a6.06 6.06 0 0 1 1.777-4.284 6.1 6.1 0 0 1 4.294-1.788zm-1.735 73.942c13.286 0 24.51-11.48 24.51-25.039h-.05c0-12.971-11.199-23.926-24.51-23.926h-39.594v48.965z" clip-rule="evenodd"/></svg>