<svg xmlns="http://www.w3.org/2000/svg" fill="none" viewBox="0 0 1024 216"><path fill="#000" d="M345.09 123.687v-6.188c0-17.847 6.009-28.878 20.717-28.878 12.377 0 18.206 7.712 18.206 19.73h23.767v-4.215c0-20.717-13.543-37.398-42.6-37.398-31.569 0-45.291 21.255-45.291 50.671v6.188c0 29.237 13.722 50.672 45.291 50.672 29.057 0 42.6-16.233 42.6-35.784v-4.036h-23.767c0 10.045-5.381 17.847-18.206 17.847-14.797.09-20.717-10.941-20.717-28.609m122.957 50.761c32.107 0 46.457-21.524 46.457-50.671v-6.188c0-29.417-14.35-50.672-46.457-50.672s-46.456 21.255-46.456 50.672v6.188c0 29.147 14.349 50.671 46.456 50.671m0-22.062c-14.708 0-21.255-11.031-21.255-28.609v-6.188c0-17.848 6.547-28.879 21.255-28.879 14.709 0 21.256 11.031 21.256 28.879v6.188c0 17.578-6.547 28.609-21.256 28.609m152.464 19.551v-70.223c0-18.564-9.058-34.887-31.569-34.887-16.233 0-26.905 6.816-33.273 16.054l-2.332-13.543h-22.242l1.704 29.058v73.541h25.202v-71.388c2.87-4.843 9.506-11.839 21.255-11.839 11.39 0 16.233 7.175 16.233 17.04v66.187zm109.056 0v-70.223c0-18.564-9.058-34.887-31.569-34.887-16.233 0-26.905 6.816-33.273 16.054l-2.332-13.543h-22.242l1.704 29.058v73.541h25.202v-71.388c2.87-4.843 9.506-11.839 21.255-11.839 11.39 0 16.233 7.175 16.233 17.04v66.187zm110.042-42.062v-11.838c0-29.237-14.349-51.3-45.918-51.3-31.748 0-46.995 22.063-46.995 51.3v5.022c0 29.237 14.888 51.3 47.981 51.3 29.417 0 44.932-16.233 44.932-34.618v-.808h-23.766c0 7.713-7.175 15.875-20.897 15.875-14.349 0-22.062-8.162-23.048-24.933zm-46.456-43.497c13.721 0 20.358 8.7 21.076 24.933h-42.421c1.076-16.233 7.802-24.933 21.345-24.933m57.308-17.04 27.892 50.134-27.892 52.465h28.609l19.372-39.461 19.551 39.461h28.609l-27.891-52.465 27.891-50.134h-29.237l-18.744 36.95-19.013-36.95zm145.199 0V40.281h-25.202v29.057h-42.6v22.063h42.6v46.994c0 26.547 14.709 35.964 35.782 35.964 9.06 0 14.35-1.704 15.88-2.511v-20.897c-1.17.538-6.19 1.345-9.87 1.345-10.49 0-16.68-2.87-16.68-16.681V91.311H1024V69.25h-28.34zM12.92 81.75c-21.393 21.848-12.985 44.123 1.915 59.045l43 42.845c3.83 3.837 18.731 19.504 30.652 7.247 6.918-6.928 5.321-17.586 1.49-21.849l-49.385-49.027c-8.834-8.846-4.576-16.839 4.257-25.259L86.89 52.546l26.396 26.432c9.153 9.166 20.647 12.683 30.226 3.091s3.832-18.758-5.321-28.03l-29.056-29.097L90.415 6.3c-6.918-6.928-15.339-9.707-24.918-.114-8.407 8.418-5.583 17.74-.664 24.001zm240.853 51.407c21.846-21.846 13.428-44.118-1.918-59.038L208.909 31.6c-3.836-3.836-18.755-19.5-30.691-7.246-6.926 6.927-5.328 17.584-1.492 21.846l49.447 49.02c8.845 8.845 4.582 16.838-4.263 25.257l-42.2 42.2-26.428-26.429c-9.165-9.164-20.674-12.681-30.265-3.09s-3.836 18.756 5.329 28.027l29.092 29.092 17.504 17.547c6.927 6.927 16.704 11.226 26.295 1.635 8.525-8.526 5.515-17.977.474-24.239z"/></svg>
