<svg xmlns="http://www.w3.org/2000/svg" fill="none" viewBox="0 0 1024 335"><path fill="#000" fill-rule="evenodd" d="M146.056 34.719 31.321 101.044v132.65l114.735 66.326 114.734-66.326v-132.65zm4.818-33.426a9.63 9.63 0 0 0-9.637 0L4.819 80.153A9.65 9.65 0 0 0 0 88.508v157.72a9.65 9.65 0 0 0 4.819 8.356l136.418 78.861a9.63 9.63 0 0 0 9.637 0l136.418-78.861a9.65 9.65 0 0 0 4.819-8.356V88.509a9.65 9.65 0 0 0-4.819-8.357z" clip-rule="evenodd"/><path fill="#000" d="m146.056 82.765-73.178 42.302v84.604l72.696 42.024a.97.97 0 0 1 .482.835v14.485a.964.964 0 0 1-1.446.836l-82.574-47.735a7.24 7.24 0 0 1-3.614-6.267v-92.96a7.24 7.24 0 0 1 3.614-6.268l80.406-46.48a7.22 7.22 0 0 1 7.227 0l82.903 47.751a.963.963 0 0 1 .012 1.662c-4.893 2.905-7.398 4.198-12.872 7.246a.97.97 0 0 1-.952-.007z"/><path fill="#000" d="M158.102 169.155c0-.357.196-.684.511-.852l72.76-38.776a.964.964 0 0 1 1.417.852v94.33a.96.96 0 0 1-.48.834l-72.761 42.301a.963.963 0 0 1-1.447-.834zm277.651 82.544q-24.981 0-42.587-8.689-17.369-8.923-26.648-27.474t-9.279-47.199q0-42.269 20.699-62.698 20.938-20.665 58.053-20.664 20.461 0 36.64 6.81 16.416 6.81 25.696 20.429 9.516 13.385 9.516 34.284H480.72q0-12.916-5.472-21.604t-15.703-13.15q-9.992-4.461-23.316-4.461-16.655 0-28.313 6.575-11.42 6.34-17.367 19.255-5.712 12.916-5.711 32.875v5.166q0 19.96 5.711 32.876 5.947 12.916 17.367 19.255 11.421 6.105 28.313 6.105 13.8 0 24.03-4.226 10.231-4.462 15.703-13.15 5.71-8.688 5.71-21.604h26.171q0 20.9-9.516 34.519-9.28 13.619-25.696 20.195-16.18 6.575-36.878 6.575m175.731 0q-25.22 0-43.777-9.159-18.321-9.158-28.313-27.709-9.755-18.55-9.755-46.494 0-28.18 9.755-46.495 9.992-18.55 28.313-27.71 18.557-9.157 43.777-9.157 25.695 0 44.016 9.157 18.32 9.16 28.074 27.71 9.992 18.316 9.993 46.495 0 27.944-9.993 46.494-9.755 18.551-28.074 27.709-18.321 9.159-44.016 9.159m0-22.309q13.085 0 23.079-3.522 10.23-3.522 17.13-10.802 7.137-7.28 10.706-18.316 3.807-11.036 3.807-25.596v-5.166q0-15.028-3.807-26.065-3.569-11.037-10.706-18.316-6.9-7.28-17.13-10.802-9.995-3.522-23.079-3.522-12.848 0-23.079 3.522-9.992 3.522-17.129 10.802-6.9 7.28-10.469 18.316-3.569 11.037-3.569 26.065v5.166q0 14.56 3.569 25.596 3.569 11.037 10.469 18.316 7.137 7.28 17.129 10.802 10.232 3.522 23.079 3.522m112.815 19.491V87.792h85.883c11.585 0 21.177 2.036 28.792 6.106s13.32 9.784 17.131 17.142q5.706 10.802 5.705 25.361c0 10.802-2.454 20.194-7.372 28.178q-7.375 11.976-20.935 17.612l34.02 66.69h-29.026l-30.929-62.228h-56.622v62.228zm26.647-84.302h57.099q12.845 0 19.746-7.514 7.137-7.515 7.137-20.899 0-8.22-3.091-13.854c-2.061-3.915-5.077-6.889-9.04-8.924q-5.955-3.053-14.752-3.053h-57.099zm145.051 84.302V87.792h126.583v22.543h-99.935v44.852h89.455v22.542h-89.455v48.609H1024v22.543z"/></svg>
