<svg xmlns="http://www.w3.org/2000/svg" fill="none" viewBox="0 0 1024 163"><path fill="#000" fill-rule="evenodd" d="M268.454 155.098h41.301q0-2.595-.085-5.17h-32.22l31.884-6.351a156 156 0 0 0-1.177-10.835l-30.225 6.021 29.221-12.122a154 154 0 0 0-2.524-11.263l-28.597 11.862 26.851-17.967a154 154 0 0 0-4.08-11.571l-27.172 18.181 24.485-24.519a155 155 0 0 0-5.867-11.673l-25.507 25.544 21.535-32.275a156 156 0 0 0-7.884-11.448l-22.909 34.334 17.159-41.485a156 156 0 0 0-10.086-10.74L245.053 85.94c14.677 19.163 23.401 43.141 23.401 69.158m-227.153 0q.001-4.7.374-9.305H.275A158 158 0 0 0 0 155.098zm3.097-26.494-40.537-8.075a154 154 0 0 1 5.062-17.441l41.113 8.19a113 113 0 0 0-5.638 17.326m13.517-32.765L19.408 79.866a155 155 0 0 1 9.536-15.07l39.58 16.418a114 114 0 0 0-10.609 14.625m22.33-26.479L45.01 45.782a156 156 0 0 1 13.076-11.77L94.78 58.569A114 114 0 0 0 80.245 69.36m28.132-18.062L77.713 20.591c5.012-2.89 10.2-5.507 15.545-7.83l32.362 32.408a112.6 112.6 0 0 0-17.243 6.13m30.562-8.827L114.207 5.403a154 154 0 0 1 16.858-3.581l26.4 39.566q-1.29-.028-2.588-.028c-5.409 0-10.73.378-15.938 1.11m29.687-.286L151.196.042a158 158 0 0 1 16.979.52l18.776 45.395a113 113 0 0 0-18.325-3.773m26.306 6.45L185.89 3.11a154 154 0 0 1 16.098 4.196l9.801 49.341a113 113 0 0 0-16.857-8.012m21.552 10.895V12.756a154 154 0 0 1 14.455 7.206v50.67a114 114 0 0 0-14.455-11.102m16.52 13.013 9.066-45.647a156 156 0 0 1 12.35 9.377l-9.763 49.152a114.4 114.4 0 0 0-11.653-12.882" clip-rule="evenodd"/><path fill="#000" fill-rule="evenodd" d="M227.153 155.098h41.301q0-2.97-.15-5.903l-20.545-.359 20.268-3.67a114 114 0 0 0-2.197-14.488l-23.271 4.214 22.181-8.75a113 113 0 0 0-4.438-13.437l-25.384 10.013 23.253-14.978a114 114 0 0 0-6.422-12.05L225.34 112.7l23.001-22.243a114 114 0 0 0-8.094-10.38l-25.896 25.043 20.988-30.297a114 114 0 0 0-9.42-8.473l-23.398 33.777 16.802-38.698a114 114 0 0 0-10.367-6.375l-16.57 38.162c20.845 12.698 34.767 35.661 34.767 61.882m-144.552 0h-41.3q0-2.884.141-5.732l41.33.722a74 74 0 0 0-.17 5.01m117.967-104.16a113 113 0 0 0-10.9-4.144l-8.831 40.733a72 72 0 0 1 10.678 5.167zm-21.039-6.893c-3.6-.797-7.263-1.424-10.983-1.871l-.727 41.701a72 72 0 0 1 10.965 2.896zm-24.652-2.685q-4.344 0-8.606.32l7.413 41.048q.595-.01 1.193-.01c3.25 0 6.45.215 9.586.631l-7.579-41.973q-1.001-.017-2.007-.016m-21.552 44.63-22.868-35.603a113 113 0 0 0-8.615 4.108l22.476 34.992a72 72 0 0 1 9.007-3.496m-15.156 6.745-29.199-30.28a114 114 0 0 0-7.115 5.522l28.799 29.865a72 72 0 0 1 7.514-5.108M70.265 79.222a114 114 0 0 0-5.411 6.518l34.002 23.622a73 73 0 0 1 5.759-6.276zm-14.776 20.784a114 114 0 0 0-3.601 7.075l37.904 16.505a72 72 0 0 1 3.856-6.965zm-9.839 23.809a113 113 0 0 0-1.797 7.192l40.369 8.778a72 72 0 0 1 1.932-7.163zm103.42-40.867a72 72 0 0 0-10.124 1.534L123.691 45.7a113 113 0 0 1 9.811-2.33z" clip-rule="evenodd"/><path fill="#000" fill-rule="evenodd" d="m221.388 155.097 5.765-.202a73 73 0 0 0-.09-3.446l-35.035 1.226-.614-.101 34.946-8.24a73 73 0 0 0-.692-3.909l-33.187 7.826 31.514-14.383a72 72 0 0 0-1.451-4.261l-29.514 13.469 26.959-19.435a72 72 0 0 0-2.35-4.464l-25.377 18.295 22.007-23.633a72 72 0 0 0-3.366-4.472l-20.863 22.405 16.723-27.063a73 73 0 0 0-4.465-4.236l-15.987 25.872 11.113-29.764a73 73 0 0 0-5.599-3.705l-10.713 28.694 5.154-31.69a72 72 0 0 0-6.689-2.826l-5.003 30.765-1.14-32.694a72 72 0 0 0-7.632-1.586l1.112 31.894-7.662-32.585a73 73 0 0 0-8.315-.025l7.498 31.888-14.205-31.214a72 72 0 0 0-8.626 1.822l13.904 30.553-20.423-28.41a72 72 0 0 0-8.451 3.878l19.927 27.72-25.854-24.144a72.5 72.5 0 0 0-7.729 5.978l25.074 23.415-30.013-18.599a73 73 0 0 0-6.44 7.966l28.86 17.884-32.472-12.157a72 72 0 0 0-4.582 9.691l30.84 11.547-32.9-5.366a72 72 0 0 0-2.211 10.989l30.699 5.006-31.181 1.091a74 74 0 0 0-.05 2.737l41.3-.001c0-17.132 13.868-31.02 30.975-31.02s30.976 13.888 30.976 31.02z" clip-rule="evenodd"/><path fill="#000" d="M1024 97.85h-59.07c2.32 11.441 10.515 17.78 22.577 17.78 8.813 0 14.073-1.7 22.573-7.575l8.97 12.987c-9.89 8.194-19.02 11.441-32.162 11.441-24.433 0-41.754-18.399-41.754-42.054s18.094-42.054 40.979-42.054c24.897 0 37.887 19.326 37.887 42.363zm-59.227-13.915h40.207c-.93-9.74-6.65-19.017-18.71-19.017-10.98 0-19.331 6.803-21.497 19.017m-104.421 72.049 4.948-16.234c7.268 3.401 15.463 5.566 23.814 5.566 19.485 0 24.588-8.04 24.588-21.646v-6.184c-4.33 5.566-13.3 12.678-26.753 12.678-21.649 0-36.958-17.317-36.958-40.663 0-23.5 15.309-41.126 36.958-41.126 14.536 0 24.433 6.493 30.153 13.76l3.403-12.06h12.525v70.039c0 29.685-15.771 42.054-42.37 42.054-15.309 0-25.514-3.711-30.308-6.184m31.391-43.446c12.989 0 21.959-9.431 21.959-23.037s-8.97-23.5-21.959-23.5c-13.3 0-22.267 9.43-22.267 23.5 0 13.915 8.967 23.037 22.267 23.037m-66.383 18.244-3.401-12.214c-5.721 7.267-15.62 13.915-30.154 13.915-21.651 0-36.96-18.708-36.96-42.054 0-23.5 15.309-42.054 36.96-42.054 13.454 0 22.421 7.267 26.751 12.833V22.95h19.33v107.832zm-28.763-15.925c12.991 0 21.959-10.822 21.959-24.428 0-13.76-8.968-24.429-21.959-24.429-13.297 0-22.267 10.36-22.267 24.43 0 13.915 8.97 24.428 22.267 24.428m-75.341-90.293c0-6.494 4.948-11.75 11.598-11.75 6.495 0 11.752 5.256 11.752 11.75s-5.257 11.75-11.752 11.75c-6.65 0-11.598-5.257-11.598-11.75m21.494 106.217h-19.328V50.076h19.328zm-58.599 0H664.82V50.076h12.371l4.64 14.224c4.33-7.73 11.444-17.007 32.166-15.77l-2.631 20.563c-20.722-1.392-27.215 9.43-27.215 22.418zm-70.948 0h-45.774V22.555h41.908c17.63 0 38.814 7.267 38.814 29.685 0 12.833-8.195 19.48-14.999 23.037v.155c7.268 3.092 18.864 9.895 18.864 25.82 0 21.8-18.402 29.53-38.813 29.53m-25.978-91.066v27.985H609.8c11.908 0 18.404-5.411 18.404-13.606 0-10.358-6.806-14.378-19.796-14.378zm0 44.838v29.067h24.895c13.918 0 19.949-4.639 19.949-14.07 0-8.968-7.268-14.997-19.485-14.997zM554.464 97.85h-59.071c2.32 11.441 10.515 17.78 22.578 17.78 8.813 0 14.072-1.7 22.577-7.575l8.967 12.987c-9.896 8.194-19.02 11.441-32.163 11.441-24.433 0-41.752-18.399-41.752-42.054s18.092-42.054 40.977-42.054c24.898 0 37.887 19.326 37.887 42.363zm-59.225-13.915h40.204c-.926-9.74-6.649-19.017-18.71-19.017-10.979 0-19.33 6.803-21.494 19.017m-44.27 46.847-3.401-12.214c-5.723 7.267-15.619 13.915-30.156 13.915-21.648 0-36.957-18.708-36.957-42.054 0-23.5 15.309-42.054 36.957-42.054 13.454 0 22.423 7.267 26.753 12.833V22.95h19.331v107.832zm-28.763-15.925c12.989 0 21.959-10.822 21.959-24.428 0-13.76-8.97-24.429-21.959-24.429-13.299 0-22.267 10.36-22.267 24.429 0 13.915 8.968 24.428 22.267 24.428"/></svg>