<svg xmlns="http://www.w3.org/2000/svg" fill="none" viewBox="0 0 1024 198"><path fill="#000" d="M33.428 44.452C53.258 36.22 80.223 11.434 91.368 0c20.29 21.954 46.987 38.735 57.94 44.452-1.729 19.438-5.544 63.259-6.927 82.468-1.359 18.867-9.229 24.773-12.105 28.014l-38.908 42.878c-9.8-10.481-31.88-33.731-40.64-42.878-8.763-9.147-10.953-22.487-10.953-28.014-1.922-22.297-5.425-70.119-6.347-82.468"/><path fill="#000" d="M153.764 43.334c-18.907-8.69-45.873-31.945-56.825-42.236 28.591 18.295 57.207 30.106 67.968 33.345-2.498 29.73-7.79 89.722-8.69 94.756-1.338 7.484-3.459 16.008-10.376 24.584-5.534 6.861-29.382 25.984-41.103 35.131 9.223-9.719 26.185-28.338 31.199-33.894 6.852-7.594 9.458-16.506 10.028-23.338 2.113-25.346 6.877-77.372 7.799-88.348m-124.794 0c18.908-8.69 45.874-31.94 56.826-42.23-28.59 18.295-57.208 30.1-67.968 33.34 2.498 29.728 7.211 89.727 8.111 94.762 1.338 7.484 4.038 16.007 10.955 24.583 5.534 6.861 29.382 25.984 41.103 35.132-9.224-9.719-26.764-28.339-31.778-33.895-6.852-7.593-9.458-16.506-10.028-23.338-2.114-25.345-6.298-77.378-7.22-88.354"/><path fill="#000" d="M171.592 30.01c-35.97-12.807-58.093-24.511-64.626-28.894 34.125 13.72 64.816 17.78 75.768 17.78-2.306 27.252-7.842 85.274-9.225 101.739-1.73 20.582-5.188 28.015-14.411 40.02-7.379 9.605-39.318 27.16-54.36 36.05 11.144-8.194 34.684-27.318 44.56-37.193 10.595-10.593 13.259-26.68 13.835-33.731 2.306-27.252 7.537-84.794 8.459-95.771m-160.45 0C47.112 17.203 69.235 5.499 75.768 1.116 41.643 14.836 10.952 18.896 0 18.896c2.306 27.252 7.263 85.28 8.647 101.746 1.729 20.582 5.187 28.014 14.41 40.02 7.379 9.604 39.318 27.159 54.36 36.05-11.145-8.195-34.684-27.319-44.56-37.194-10.594-10.592-13.258-26.68-13.835-33.731-2.305-27.251-6.957-84.8-7.88-95.777m219.997 25.031h27.54q9.052 0 16.447 2.492t12.24 6.602q4.844 4.112 8.032 9.842a40.7 40.7 0 0 1 4.717 11.834q1.53 6.105 1.53 12.832 0 6.23-1.402 12.208-1.275 5.98-4.59 11.835a38.9 38.9 0 0 1-8.033 10.091q-4.844 4.236-12.494 6.851-7.522 2.617-16.957 2.617h-27.03zm29.197 73.127q6.757 0 11.857-2.616 5.228-2.616 8.033-6.977 2.932-4.484 4.207-9.468 1.403-4.982 1.403-10.464 0-12.209-6.121-20.804-6.119-8.72-17.976-8.72h-15.3v59.049zm61.266 14.077V55.041h58.377V69.12h-43.015v20.547h25.877v14.106h-25.877v24.396h45.831v14.077zm81.144 0V55.041h57.203V69.12h-42.016v20.547h26.053v14.106h-26.053v38.473zm77.16 0V55.041h15.963v87.204zm71.633 1.276q-12.021 0-20.781-5.951c-5.764-4.05-9.851-9.547-12.272-16.491l13.899-5.083c1.836 4.05 4.461 7.315 7.886 9.795 3.42 2.397 7.347 3.596 11.77 3.596 4.589 0 8.223-1.034 10.892-3.1q4.13-3.1 4.131-8.927 0-2.357-1.125-4.34-1.125-2.107-2.631-3.472c-.915-.909-2.338-1.818-4.257-2.727q-2.88-1.364-4.881-2.108-2.004-.868-5.885-2.108a697 697 0 0 1-7.765-2.728q-2.631-.992-6.883-3.224-4.137-2.355-6.387-4.711c-1.417-1.57-2.714-3.637-3.883-6.2q-1.628-3.967-1.627-8.678-.001-9.92 7.766-16.615 7.76-6.696 21.029-6.696 11.02 0 18.283 5.208c4.843 3.389 8.096 7.853 9.768 13.39l-13.524 4.464c-2.669-5.951-7.848-8.927-15.525-8.927q-5.882 0-9.266 2.48c-2.173 1.57-3.254 3.844-3.254 6.82q-.001 2.975 2.504 5.33c1.754 1.571 3.585 2.77 5.51 3.596q3.004 1.117 8.764 2.976 3.755 1.364 5.631 2.108 2.001.62 5.509 2.232 3.508 1.611 5.51 2.976c1.335.826 2.84 1.983 4.506 3.471q2.63 2.231 4.01 4.712 1.374 2.355 2.377 5.703 1.002 3.223 1.003 7.068-.001 12.15-8.763 19.218-8.646 6.943-22.039 6.943m110.348-1.276-7.042-19.236h-35.921l-6.911 19.236h-16.369l33.637-87.204h15.333l33.51 87.204zm-11.703-32.06-10.209-26.616c-1.285-3.156-2.277-6.104-2.961-8.845q-1.034 3.613-2.967 8.845l-10.468 26.616zm47.889 32.06V55.041h57.204V69.12h-42.015v20.547h26.054v14.106h-26.054v38.473zm79.821 0V55.041h58.379V69.12h-43.019v20.547h25.878v14.106h-25.938l.06 24.396h45.832v14.077zm122.113-73.097v73.097h-15.41V69.148h-25.552V55.04h66.514v14.107zm76.408 73.097v-34.134l-32.237-53.07h17.401l22.513 37.747 22.508-37.747h17.4l-32.363 53.07v34.134z"/></svg>
