<svg xmlns="http://www.w3.org/2000/svg" fill="none" viewBox="0 0 1024 197"><path fill="#000" fill-rule="evenodd" d="M283.034 185.217c-48.912 18.279-129.996 14.314-182.603-10.131C47.825 150.64 0 122.01 0 75.54s54.78-60.784 81.084-63.647c13.71-1.493 26.18-1.19 36.795-.932 9.749.236 17.932.435 24.073-.83l1.563-.324C157.409 6.927 190.817 0 238.905 0c49.998 0 88.693 9.69 88.693 62.546l.082 54.838c-.292 31.431-4.761 52.927-44.646 67.833m-2.608-104.391c-9.565 7.415-43.173 26.384-101.084 42.945-72.389 20.702-117.605.661-130.865-11.892-13.26-12.554-14.13-33.256 15.869-56.16s69.128-39.642 122.169-22.464c42.434 13.743 80.288 37.44 93.911 47.57" clip-rule="evenodd"/><path fill="#000" d="M283.031 185.216c-48.912 18.279-129.997 14.315-182.603-10.131-37.934-17.627-73.38-37.43-90.204-64.528 23.706 29.952 80.639 46.69 200.635 13.214 95.997-26.78 115.393-68.42 113.092-85.891 2.374 6.939 3.643 15.095 3.643 24.666l.082 54.838c-.291 31.43-4.761 52.926-44.645 67.832"/><path fill="#000" fill-rule="evenodd" d="M186.507 33.255c-18.912-7.34-49.57-18.987-97.568-16.872C28.94 19.026-.606 54.269 8.905 91.396c4.866 18.995 36.162 52.509 122.362 40.953-44.485 2.79-72.773-10.98-82.798-20.47-13.26-12.554-14.13-33.255 15.869-56.16s69.127-39.642 122.169-22.464" clip-rule="evenodd"/><path fill="#000" fill-rule="evenodd" d="M300.315 10.53q2.55 1.334 4.894 2.885c12.227 8.794 16.091 25.086 5.221 40.103-9.565 13.214-23.984 23.712-29.999 27.309-13.623-10.13-51.477-33.829-93.91-47.571q-2.132-.69-4.232-1.308c6.363-4.154 14.279-8.201 24.014-11.685 39.164-14.017 78.119-17.054 94.012-9.733m573.788 11.936-4.58-4.315a8.52 8.52 0 0 0-5.84-2.317h-8.536a8.516 8.516 0 0 0-8.52 8.52v146.768a8.516 8.516 0 0 0 8.52 8.519h11.345a8.52 8.52 0 0 0 8.52-8.519V79.165c0-7.452 8.888-11.313 14.336-6.225l23.954 22.387a8.515 8.515 0 0 0 11.132.43l7.414-5.92c4.055-3.241 4.293-9.329.5-12.877zM996.516 173.01l4.584 4.315a8.52 8.52 0 0 0 5.84 2.316h8.54c4.7 0 8.52-3.814 8.52-8.519V24.354c0-4.706-3.82-8.52-8.52-8.52h-11.35a8.515 8.515 0 0 0-8.515 8.52v91.956c0 7.453-8.897 11.313-14.336 6.225l-23.954-22.386a8.53 8.53 0 0 0-11.141-.432l-7.405 5.921c-4.064 3.242-4.301 9.329-.508 12.877zM680.794 15.834a8.52 8.52 0 0 1 8.519 8.52v146.768a8.52 8.52 0 0 1-8.519 8.519h-11.349a8.52 8.52 0 0 1-8.519-8.519V24.354a8.52 8.52 0 0 1 8.519-8.52zm25.932 146.445a8.52 8.52 0 0 1 8.52-8.52h68.124a8.52 8.52 0 0 1 8.519 8.52v8.843a8.52 8.52 0 0 1-8.519 8.519h-68.124a8.52 8.52 0 0 1-8.52-8.519zM445.858 55.156a8.52 8.52 0 0 1 8.519 8.52v68.157a8.52 8.52 0 0 1-8.519 8.519h-11.354a8.52 8.52 0 0 1-8.52-8.519V63.675a8.52 8.52 0 0 1 8.52-8.52z" clip-rule="evenodd"/><path fill="#000" fill-rule="evenodd" d="M425.984 24.387a8.52 8.52 0 0 1 8.52-8.52h81.874c26.711 0 49.778 6.622 66.087 21.222C598.706 51.627 606.26 72.3 606.26 96.91v1.528c0 26.068-8.298 46.891-25.04 61.141-16.689 14.203-39.676 20.094-64.842 20.094h-81.874a8.52 8.52 0 0 1-8.52-8.52v-7.531a8.52 8.52 0 0 1 8.52-8.52h81.874c20.291 0 35.147-4.71 44.938-13.043 9.738-8.288 16.556-21.94 16.556-43.621V96.91c0-20.464-6.238-34.17-15.815-42.742-9.508-8.512-24.286-13.731-45.679-13.731h-81.874a8.52 8.52 0 0 1-8.52-8.52zm-142.95 160.83c-48.912 18.279-129.996 14.314-182.603-10.131C47.825 150.64 0 122.01 0 75.54s54.78-60.784 81.084-63.647c13.71-1.493 26.18-1.19 36.795-.932 9.749.236 17.932.435 24.073-.83l1.563-.324C157.409 6.927 190.817 0 238.905 0c49.998 0 88.693 9.69 88.693 62.546l.082 54.838c-.292 31.431-4.761 52.927-44.646 67.833m-2.608-104.391c-9.565 7.415-43.173 26.384-101.084 42.945-72.389 20.702-117.605.661-130.865-11.892-13.26-12.554-14.13-33.256 15.869-56.16s69.128-39.642 122.169-22.464c42.434 13.743 80.288 37.44 93.911 47.57" clip-rule="evenodd"/><path fill="#000" fill-rule="evenodd" d="M283.034 185.217c-48.912 18.279-129.996 14.314-182.603-10.131C47.825 150.64 0 122.01 0 75.54s54.78-60.784 81.084-63.647c13.71-1.493 26.18-1.19 36.795-.932 9.749.236 17.932.435 24.073-.83l1.563-.324C157.409 6.927 190.817 0 238.905 0c49.998 0 88.693 9.69 88.693 62.546l.082 54.838c-.292 31.431-4.761 52.927-44.646 67.833m-2.608-104.391c-9.565 7.415-43.173 26.384-101.084 42.945-72.389 20.702-117.605.661-130.865-11.892-13.26-12.554-14.13-33.256 15.869-56.16s69.128-39.642 122.169-22.464c42.434 13.743 80.288 37.44 93.911 47.57" clip-rule="evenodd"/><path fill="#000" d="M283.031 185.216c-48.912 18.279-129.997 14.315-182.603-10.131-37.934-17.627-73.38-37.43-90.204-64.528 23.706 29.952 80.639 46.69 200.635 13.214 95.997-26.78 115.393-68.42 113.092-85.891 2.374 6.939 3.643 15.095 3.643 24.666l.082 54.838c-.291 31.43-4.761 52.926-44.645 67.832"/><path fill="#000" fill-rule="evenodd" d="M186.507 33.255c-18.912-7.34-49.57-18.987-97.568-16.872C28.94 19.026-.606 54.269 8.905 91.396c4.866 18.995 36.162 52.509 122.362 40.953-44.485 2.79-72.773-10.98-82.798-20.47-13.26-12.554-14.13-33.255 15.869-56.16s69.127-39.642 122.169-22.464" clip-rule="evenodd"/><path fill="#000" fill-rule="evenodd" d="M283.034 185.217c-48.912 18.279-129.996 14.314-182.603-10.131C47.825 150.64 0 122.01 0 75.54s54.78-60.784 81.084-63.647c13.71-1.493 26.18-1.19 36.795-.932 9.749.236 17.932.435 24.073-.83l1.563-.324C157.409 6.927 190.817 0 238.905 0c49.998 0 88.693 9.69 88.693 62.546l.082 54.838c-.292 31.431-4.761 52.927-44.646 67.833m-2.608-104.391c-9.565 7.415-43.173 26.384-101.084 42.945-72.389 20.702-117.605.661-130.865-11.892-13.26-12.554-14.13-33.256 15.869-56.16s69.128-39.642 122.169-22.464c42.434 13.743 80.288 37.44 93.911 47.57" clip-rule="evenodd"/><path fill="#000" d="M283.031 185.216c-48.912 18.279-129.997 14.315-182.603-10.131-37.934-17.627-73.38-37.43-90.204-64.528 23.706 29.952 80.639 46.69 200.635 13.214 95.997-26.78 115.393-68.42 113.092-85.891 2.374 6.939 3.643 15.095 3.643 24.666l.082 54.838c-.291 31.43-4.761 52.926-44.645 67.832"/><path fill="#000" fill-rule="evenodd" d="M186.507 33.255c-18.912-7.34-49.57-18.987-97.568-16.872C28.94 19.026-.606 54.269 8.905 91.396c4.866 18.995 36.162 52.509 122.362 40.953-44.485 2.79-72.773-10.98-82.798-20.47-13.26-12.554-14.13-33.255 15.869-56.16s69.127-39.642 122.169-22.464" clip-rule="evenodd"/><path fill="#000" fill-rule="evenodd" d="M300.315 10.53q2.55 1.334 4.894 2.885c12.227 8.794 16.091 25.086 5.221 40.103-9.565 13.214-23.984 23.712-29.999 27.309-13.623-10.13-51.477-33.829-93.91-47.571q-2.132-.69-4.232-1.308c6.363-4.154 14.279-8.201 24.014-11.685 39.164-14.017 78.119-17.054 94.012-9.733m573.788 11.936-4.58-4.315a8.52 8.52 0 0 0-5.84-2.317h-8.536a8.516 8.516 0 0 0-8.52 8.52v146.768a8.516 8.516 0 0 0 8.52 8.519h11.345a8.52 8.52 0 0 0 8.52-8.519V79.165c0-7.452 8.888-11.313 14.336-6.225l23.954 22.387a8.515 8.515 0 0 0 11.132.43l7.414-5.92c4.055-3.241 4.293-9.329.5-12.877zM996.516 173.01l4.584 4.315a8.52 8.52 0 0 0 5.84 2.316h8.54c4.7 0 8.52-3.814 8.52-8.519V24.354c0-4.706-3.82-8.52-8.52-8.52h-11.35a8.515 8.515 0 0 0-8.515 8.52v91.956c0 7.453-8.897 11.313-14.336 6.225l-23.954-22.386a8.53 8.53 0 0 0-11.141-.432l-7.405 5.921c-4.064 3.242-4.301 9.329-.508 12.877zM680.794 15.834a8.52 8.52 0 0 1 8.519 8.52v146.768a8.52 8.52 0 0 1-8.519 8.519h-11.349a8.52 8.52 0 0 1-8.519-8.519V24.354a8.52 8.52 0 0 1 8.519-8.52zm25.932 146.445a8.52 8.52 0 0 1 8.52-8.52h68.124a8.52 8.52 0 0 1 8.519 8.52v8.843a8.52 8.52 0 0 1-8.519 8.519h-68.124a8.52 8.52 0 0 1-8.52-8.519zM445.858 55.156a8.52 8.52 0 0 1 8.519 8.52v68.157a8.52 8.52 0 0 1-8.519 8.519h-11.354a8.52 8.52 0 0 1-8.52-8.519V63.675a8.52 8.52 0 0 1 8.52-8.52z" clip-rule="evenodd"/><path fill="#000" fill-rule="evenodd" d="M425.984 24.387a8.52 8.52 0 0 1 8.52-8.52h81.874c26.711 0 49.778 6.622 66.087 21.222C598.706 51.627 606.26 72.3 606.26 96.91v1.528c0 26.068-8.298 46.891-25.04 61.141-16.689 14.203-39.676 20.094-64.842 20.094h-81.874a8.52 8.52 0 0 1-8.52-8.52v-7.531a8.52 8.52 0 0 1 8.52-8.52h81.874c20.291 0 35.147-4.71 44.938-13.043 9.738-8.288 16.556-21.94 16.556-43.621V96.91c0-20.464-6.238-34.17-15.815-42.742-9.508-8.512-24.286-13.731-45.679-13.731h-81.874a8.52 8.52 0 0 1-8.52-8.52zM300.315 10.53q2.55 1.334 4.894 2.885c12.227 8.794 16.091 25.086 5.221 40.103-9.565 13.214-23.984 23.712-29.999 27.309-13.623-10.13-51.477-33.829-93.91-47.571q-2.132-.69-4.232-1.308c6.363-4.154 14.279-8.201 24.014-11.685 39.164-14.017 78.119-17.054 94.012-9.733m573.788 11.936-4.58-4.315a8.52 8.52 0 0 0-5.84-2.317h-8.536a8.516 8.516 0 0 0-8.52 8.52v146.768a8.516 8.516 0 0 0 8.52 8.519h11.345a8.52 8.52 0 0 0 8.52-8.519V79.165c0-7.452 8.888-11.313 14.336-6.225l23.954 22.387a8.515 8.515 0 0 0 11.132.43l7.414-5.92c4.055-3.241 4.293-9.329.5-12.877zM996.516 173.01l4.584 4.315a8.52 8.52 0 0 0 5.84 2.316h8.54c4.7 0 8.52-3.814 8.52-8.519V24.354c0-4.706-3.82-8.52-8.52-8.52h-11.35a8.515 8.515 0 0 0-8.515 8.52v91.956c0 7.453-8.897 11.313-14.336 6.225l-23.954-22.386a8.53 8.53 0 0 0-11.141-.432l-7.405 5.921c-4.064 3.242-4.301 9.329-.508 12.877zM680.794 15.834a8.52 8.52 0 0 1 8.519 8.52v146.768a8.52 8.52 0 0 1-8.519 8.519h-11.349a8.52 8.52 0 0 1-8.519-8.519V24.354a8.52 8.52 0 0 1 8.519-8.52zm25.932 146.445a8.52 8.52 0 0 1 8.52-8.52h68.124a8.52 8.52 0 0 1 8.519 8.52v8.843a8.52 8.52 0 0 1-8.519 8.519h-68.124a8.52 8.52 0 0 1-8.52-8.519z" clip-rule="evenodd"/><path fill="#000" fill-rule="evenodd" d="M445.858 55.156a8.52 8.52 0 0 1 8.519 8.52v68.157a8.52 8.52 0 0 1-8.519 8.519h-11.354a8.52 8.52 0 0 1-8.52-8.519V63.675a8.52 8.52 0 0 1 8.52-8.52z" clip-rule="evenodd"/><path fill="#000" fill-rule="evenodd" d="M425.984 24.387a8.52 8.52 0 0 1 8.52-8.52h81.874c26.711 0 49.778 6.622 66.087 21.222C598.706 51.627 606.26 72.3 606.26 96.91v1.528c0 26.068-8.298 46.891-25.04 61.141-16.689 14.203-39.676 20.094-64.842 20.094h-81.874a8.52 8.52 0 0 1-8.52-8.52v-7.531a8.52 8.52 0 0 1 8.52-8.52h81.874c20.291 0 35.147-4.71 44.938-13.043 9.738-8.288 16.556-21.94 16.556-43.621V96.91c0-20.464-6.238-34.17-15.815-42.742-9.508-8.512-24.286-13.731-45.679-13.731h-81.874a8.52 8.52 0 0 1-8.52-8.52z" clip-rule="evenodd"/><path fill="#000" d="M283.031 185.216c-48.912 18.279-129.997 14.315-182.603-10.131-37.934-17.627-73.38-37.43-90.204-64.528 23.706 29.952 80.639 46.69 200.635 13.214 95.997-26.78 115.393-68.42 113.092-85.891 2.374 6.939 3.643 15.095 3.643 24.666l.082 54.838c-.291 31.43-4.761 52.926-44.645 67.832"/><path fill="#000" fill-rule="evenodd" d="M186.507 33.255c-18.912-7.34-49.57-18.987-97.568-16.872C28.94 19.026-.606 54.269 8.905 91.396c4.866 18.995 36.162 52.509 122.362 40.953-44.485 2.79-72.773-10.98-82.798-20.47-13.26-12.554-14.13-33.255 15.869-56.16s69.127-39.642 122.169-22.464" clip-rule="evenodd"/><path fill="#000" fill-rule="evenodd" d="M300.315 10.53q2.55 1.334 4.894 2.885c12.227 8.794 16.091 25.086 5.221 40.103-9.565 13.214-23.984 23.712-29.999 27.309-13.623-10.13-51.477-33.829-93.91-47.571q-2.132-.69-4.232-1.308c6.363-4.154 14.279-8.201 24.014-11.685 39.164-14.017 78.119-17.054 94.012-9.733m573.788 11.936-4.58-4.315a8.52 8.52 0 0 0-5.84-2.317h-8.536a8.516 8.516 0 0 0-8.52 8.52v146.768a8.516 8.516 0 0 0 8.52 8.519h11.345a8.52 8.52 0 0 0 8.52-8.519V79.165c0-7.452 8.888-11.313 14.336-6.225l23.954 22.387a8.515 8.515 0 0 0 11.132.43l7.414-5.92c4.055-3.241 4.293-9.329.5-12.877zM996.516 173.01l4.584 4.315a8.52 8.52 0 0 0 5.84 2.316h8.54c4.7 0 8.52-3.814 8.52-8.519V24.354c0-4.706-3.82-8.52-8.52-8.52h-11.35a8.515 8.515 0 0 0-8.515 8.52v91.956c0 7.453-8.897 11.313-14.336 6.225l-23.954-22.386a8.53 8.53 0 0 0-11.141-.432l-7.405 5.921c-4.064 3.242-4.301 9.329-.508 12.877zM680.794 15.834a8.52 8.52 0 0 1 8.519 8.52v146.768a8.52 8.52 0 0 1-8.519 8.519h-11.349a8.52 8.52 0 0 1-8.519-8.519V24.354a8.52 8.52 0 0 1 8.519-8.52zm25.932 146.445a8.52 8.52 0 0 1 8.52-8.52h68.124a8.52 8.52 0 0 1 8.519 8.52v8.843a8.52 8.52 0 0 1-8.519 8.519h-68.124a8.52 8.52 0 0 1-8.52-8.519zM445.858 55.156a8.52 8.52 0 0 1 8.519 8.52v68.157a8.52 8.52 0 0 1-8.519 8.519h-11.354a8.52 8.52 0 0 1-8.52-8.519V63.675a8.52 8.52 0 0 1 8.52-8.52z" clip-rule="evenodd"/><path fill="#000" fill-rule="evenodd" d="M425.984 24.387a8.52 8.52 0 0 1 8.52-8.52h81.874c26.711 0 49.778 6.622 66.087 21.222C598.706 51.627 606.26 72.3 606.26 96.91v1.528c0 26.068-8.298 46.891-25.04 61.141-16.689 14.203-39.676 20.094-64.842 20.094h-81.874a8.52 8.52 0 0 1-8.52-8.52v-7.531a8.52 8.52 0 0 1 8.52-8.52h81.874c20.291 0 35.147-4.71 44.938-13.043 9.738-8.288 16.556-21.94 16.556-43.621V96.91c0-20.464-6.238-34.17-15.815-42.742-9.508-8.512-24.286-13.731-45.679-13.731h-81.874a8.52 8.52 0 0 1-8.52-8.52z" clip-rule="evenodd"/></svg>