<svg xmlns="http://www.w3.org/2000/svg" fill="none" viewBox="0 0 1024 337"><path fill="#000" d="M945.656 260.273q-27.756 0-46.701-8.383-18.933-8.597-28.622-25.578-9.462-16.98-9.464-42.559 0-37.187 21.732-56.746 21.958-19.561 63.055-19.561 22.812 0 40.465 7.093 17.86 6.879 27.759 20.205c6.75 8.885 10.12 19.704 10.12 32.457h-34.866q0-10.102-5.6-16.98c-3.583-4.729-8.679-8.312-15.274-10.748q-9.903-3.869-23.029-3.869-15.286 0-26.043 5.374c-7.172 3.582-12.628 8.741-16.355 15.476-3.733 6.735-5.593 14.831-5.593 24.289v6.019c0 9.457 1.86 17.625 5.593 24.503 3.727 6.736 9.111 11.894 16.139 15.477 7.172 3.582 15.93 5.373 26.259 5.373 9.327 0 17.284-1.146 23.887-3.439q10.11-3.654 15.497-10.532 5.591-7.094 5.593-17.196H1024q0 18.915-9.9 32.242-9.691 13.111-27.337 20.205-17.645 6.879-41.107 6.878m-427.77-2.58V110.025h105.67q16.14 0 26.471 6.233 10.545 6.234 15.711 16.766 5.164 10.533 5.164 23.644 0 13.757-6.671 25.149-6.672 11.178-19.8 17.625l30.56 58.251h-39.598l-26.041-52.232h-55.956v52.232zm35.51-79.96h61.551q9.255 0 14.419-5.589 5.38-5.588 5.381-14.831 0-6.018-2.367-10.317-2.153-4.3-6.672-6.449-4.52-2.365-10.761-2.365h-61.551zm138.026 79.96V110.025h105.67q16.142 0 26.468 6.233c7.035 4.156 12.268 9.744 15.714 16.766s5.16 14.903 5.16 23.644q.002 13.757-6.667 25.149-6.672 11.178-19.801 17.625s-13.161 6.019-35.081 6.019H726.93v52.232zm35.508-79.96h61.556q9.246 0 14.416-5.589c3.589-3.725 5.377-8.669 5.377-14.831q.002-6.018-2.364-10.317-2.154-4.3-6.675-6.449c-3.013-1.576-6.595-2.365-10.754-2.365H726.93zM415.689 260.15q-17.217 0-30.13-6.448-12.913-6.45-20.231-19.561-7.317-13.112-7.317-33.101 0-20.42 7.102-33.317 7.317-13.111 20.015-19.56t29.054-6.449q8.394 0 16.141 1.935 7.963 1.72 14.419 5.374 6.672 3.653 11.406 9.027h1.507v-47.932h33.358v147.606h-29.699v-17.779h-1.722q-7.963 11.178-19.37 15.691-11.19 4.514-24.533 4.514m9.253-26.653q10.546 0 17.863-3.654 7.317-3.87 11.191-10.962 3.874-7.095 3.874-16.982v-1.72q0-7.522-2.152-13.326-2.152-6.018-6.457-10.102t-10.545-6.234q-6.242-2.15-14.204-2.15-10.33 0-17.647 3.655-7.102 3.654-10.976 10.532-3.659 6.878-3.659 16.551v3.654q0 9.673 3.659 16.551 3.874 6.878 11.191 10.533t17.862 3.654M6.994 255.351l45.759-26.407 45.759 26.407-45.76 26.405zm279.422-113.487-45.556 26.504-137.373-79.217.001-.011 45.775-26.366zM109.7 310.005l45.556 26.504 137.382-79.217-45.776-26.377z"/><path fill="#000" d="m57.751 62.774 45.759 26.152-.002 158.431-45.759-26.406zm233.671 69.095.204-52.655L154.243 0l.016 52.782zm-39.547 37.272-.017 52.782 45.776 26.377.018-52.782zM45.76 62.774 0 88.926v158.431l45.759-26.406zM143.251 1l.017 52.782-45.776 26.376-.017-52.782zm-39.538 300.014-.204-52.655 137.375-79.218-.017 52.782z"/></svg>