<svg xmlns="http://www.w3.org/2000/svg" fill="none" viewBox="0 0 1024 225"><path fill="#000" d="m140.711 113.298-68.013-31.57a.24.24 0 0 1-.139-.225L72.546.248a.245.245 0 0 1 .457-.126l68.025 112.825a.24.24 0 0 1-.024.297.245.245 0 0 1-.293.054M68.202.83l-.682 80.832a.25.25 0 0 1-.139.225L.832 112.132a.246.246 0 0 1-.311-.344L67.746.698a.245.245 0 0 1 .456.132m347.856 86.056c8.436-9.197 21.095-13.044 32.987-9.144 12.282 4.026 19.963 15.679 21.625 28.246q.337 2.569.37 13.242.047 16.13.02 32.265c-.013 6.76-8.561 8.826-10.878 2.45q-.384-1.059-.384-3.291.026-30.464-.02-39.541c-.066-12.567-7.846-24.161-21.665-23.499-14.685.709-22.677 13.752-22.412 27.465a987 987 0 0 1 .073 35.218q-.047 3.006-.623 4.303c-1.887 4.284-8.316 4.264-10.183-.066q-.457-1.067-.457-3.171V20.065q0-2.132 2.357-3.92 2.834-2.158 5.906-.516c2.503 1.337 2.913 3.536 2.907 6.422q-.014 32.166.006 64.69 0 .555.371.145m-75.686-9.528q-.014-10.494.006-21.042c.007-4.059 3.397-7.244 7.462-5.9 3.51 1.166 3.874 3.84 3.867 7.41v19.459c0 .08.033.158.091.215.059.058.138.09.22.09q6.973-.027 13.759.013c7.879.053 7.628 11.455-.496 11.342q-6.7-.086-13.415-.132a.25.25 0 0 0-.173.07.24.24 0 0 0-.072.168v63.603c0 7.045-11.296 7.396-11.289-.59q.034-31.542.046-63.046a.18.18 0 0 0-.054-.127.2.2 0 0 0-.131-.052h-10.687q-3.7 0-5.184-.596c-5.356-2.139-3.642-10.58 2.218-10.633q6.8-.06 13.593-.014a.24.24 0 0 0 .239-.238m-113.725 46.255c3.098 17.023 17.943 27.908 35.343 23.28 6.032-1.609 10.521-5.144 14.289-9.951q1.953-2.496 3.072-3.125c5.171-2.954 10.27 3.184 7.105 8.21-11.183 17.738-37.456 22.856-54.479 10.355-24.545-18.023-22.472-55.836 2.913-71.35q4.284-2.615 9.621-3.932c25.756-6.33 47.122 15.169 47.745 39.813.145 5.78-4.152 6.416-9.045 6.402q-28.14-.08-56.28-.039-.344 0-.284.337m36.542-34.244c-17.487-7.257-33.331 5.475-36.622 22.445a.2.2 0 0 0 .001.072.164.164 0 0 0 .158.127h53.155q.338 0 .278-.331c-1.675-9.448-8.124-18.645-16.97-22.313m254.775 34.072c2.596 13.395 12.64 24.24 27.008 24.492q14.097.252 22.751-10.938 2.125-2.748 3.33-3.384c3.284-1.728 8.131 1.113 7.978 5.046q-.066 1.655-1.469 3.866c-6.132 9.674-16.547 15.209-27.836 16.507-18.983 2.185-35.734-9.952-41.481-27.756-4.715-14.613-1.556-31.45 9.097-42.905 12.415-13.355 32.563-16.64 48.043-5.992 10.627 7.31 17.07 19.148 18.189 32 .397 4.588-.524 8.879-5.926 8.879q-29.703.02-59.538.013a.147.147 0 0 0-.146.172m35.192-34.662c-17.049-5.985-31.954 6.608-35.238 22.963a.2.2 0 0 0 .002.098.23.23 0 0 0 .125.15.2.2 0 0 0 .098.023h52.943q.477 0 .384-.463c-1.98-10.012-8.581-19.354-18.314-22.77m145.05 34.668c3.059 16.632 17.115 27.643 34.383 23.717 7.178-1.636 12.283-5.926 16.52-11.746 4.105-5.641 12.872.02 9.078 6.277q-6.429 10.6-18.129 14.818c-21.148 7.627-42.256-1.55-50.652-22.393-7.568-18.817-1.139-41.813 16.566-52.592 27.399-16.685 57.472 6.37 57.929 35.543.086 5.323-4.052 6.184-8.661 6.19q-28.385.013-56.889 0a.2.2 0 0 0-.063.016.16.16 0 0 0-.082.17m38.071-33.417c-17.877-8.628-34.33 4.065-38.104 21.578q-.087.404.324.404h52.996a.237.237 0 0 0 .232-.278c-1.596-8.899-7.277-17.758-15.448-21.704m177.434-3.536a.207.207 0 0 0 .358.159c14.633-15.937 40.104-13.269 50.301 6.098a.15.15 0 0 0 .13.08.15.15 0 0 0 .077-.018.15.15 0 0 0 .058-.055c8.117-13.6 23.981-20.228 38.995-14.441 10.7 4.125 17.43 14.024 19.62 25.127.49 2.525.74 6.546.74 12.064.01 11.684.01 23.366.01 35.046q0 2.86-.87 4.343c-2.75 4.642-10.39 2.854-10.39-2.734q.015-20.248.06-40.495c.02-12.534-7.85-25.677-22.098-24.101-16.069 1.774-21.677 19.406-21.711 32.973a7843 7843 0 0 0-.013 28.696q0 3.456-.463 4.774c-1.669 4.708-8.449 4.774-10.362.179q-.444-1.053-.444-3.132.013-20.314-.02-40.614c-.013-10.72-6.482-21.433-17.718-22.797-10.621-1.298-20.168 4.152-23.863 14.507q-2.356 6.621-2.37 14.249-.054 25.08.02 34.595c.02 2.397-.696 4.456-2.722 5.801-2.522 1.675-6.614.854-8.051-1.98q-.556-1.093-.556-3.43-.007-33.099-.007-66.205 0-3.403.901-4.933c1.926-3.264 7.528-3.509 9.494-.013.98 1.748 1.086 4.211.894 6.257m-282.326 2.781c6.548-6.35 12.507-10.726 21.731-11.726 1.933-.212 4.383.232 5.886 1.55 2.642 2.31 2.238 6.945-.742 8.839q-.98.621-4.085 1.218c-12.746 2.47-20.499 12.256-22.505 24.703q-.517 3.211-.57 10.402-.105 12.779-.066 25.558.013 3.297-.834 4.853c-2.563 4.734-10.422 3.238-10.422-2.344q-.006-33.43 0-66.86 0-2.973.51-4.277c1.324-3.37 5.323-4.476 8.309-2.59 3.351 2.113 2.424 7.463 2.424 10.515q0 .51.364.159m222.405 58.981q-2.49 2.616-3.609 3.622c-8.243 7.396-19.049 9.746-29.517 6.277-11.256-3.734-18.427-13.805-20.817-25.227q-.84-3.992-.861-12.256-.046-17.87-.006-35.734.006-2.907.887-4.396c1.98-3.318 7.919-3.218 9.68.503q.596 1.257.589 3.926-.033 24.684.106 39.873c.133 14.699 10.29 26.551 26.041 22.883 14.693-3.424 17.295-21.811 17.639-34.139q.22-7.866.053-28.332-.02-3.073.768-4.443c2.198-3.8 7.893-3.774 9.78.225q.662 1.398.662 4.628-.007 33.576-.007 67.152c0 3.94-4.86 6.469-8.17 4.714-3.635-1.933-3.066-5.336-2.967-9.17q.013-.377-.251-.106m-781.244 9.495.013-71.37a.266.266 0 0 1 .377-.245l67.616 31.391q.067.031.11.092a.26.26 0 0 1 .015.275.27.27 0 0 1-.099.104l-67.635 39.978a.265.265 0 0 1-.397-.225M.143 117.078 67.865 86.29a.24.24 0 0 1 .337.218l-.073 70.794a.24.24 0 0 1-.032.119.237.237 0 0 1-.325.086L.117 117.502a.24.24 0 0 1-.117-.22.24.24 0 0 1 .143-.204m2.258 12.832 65.676 38.793a.22.22 0 0 1 .099.179l.708 55.095a.2.2 0 0 1-.04.126.214.214 0 0 1-.344 0L2.117 130.215a.21.21 0 0 1 .015-.272.21.21 0 0 1 .27-.033m70.806 93.901.007-54.439a.2.2 0 0 1 .099-.172l66.576-39.297a.199.199 0 0 1 .258.285l-66.582 93.736a.2.2 0 0 1-.099.07.2.2 0 0 1-.12 0 .2.2 0 0 1-.099-.069.2.2 0 0 1-.04-.114"/></svg>
