<svg xmlns="http://www.w3.org/2000/svg" fill="none" viewBox="0 0 1024 174"><path fill="#000" d="M1024 146.053c0 .1-.04.196-.11.267a.38.38 0 0 1-.27.11h-15.94a.36.36 0 0 1-.26-.11.38.38 0 0 1-.11-.267V36.129a.38.38 0 0 1 .37-.377h15.94c.1 0 .2.04.27.11s.11.167.11.267zM855.074 47.344l-.042 22.335a.697.697 0 0 0 .699.697l22.366.042-.405 14.3q-.014.64-.658.641h-20.967q-1.049 0-1.049 1.046v43.596q0 1.046 1.049 1.046h18.715q.868 0 .868.865v13.741q0 .74-.756.74c-21.219.153-36.675.962-36.661-25.39q.013-17.132 0-34.277c0-.362-.146-.71-.406-.966a1.4 1.4 0 0 0-.979-.4h-14.001q-.7-.001-.7-.698V71.408q0-1.046 1.049-1.046h13.652a1.4 1.4 0 0 0 .994-.413 1.4 1.4 0 0 0 .405-.996l-.056-21.01q0-.725.713-.78a89.3 89.3 0 0 1 16.17.18m-570.998 98.826c-21.248-5.826-28.368-28.361-24.397-47.921 9.349-46.092 78.989-36.62 71.674 14.851q-.084.56-.641.559h-53.965q-.78 0-.752.782c.334 16.026 13.446 21.432 27.324 18.443 5.949-1.272 9.446-4.848 11.369-10.409q.279-.81 1.087-.489l14.003 5.63q.53.21.307.741c-8.04 18.177-28.411 22.633-46.009 17.813m30.626-45.812c1.087-23.807-36.603-24.1-38.428.168q-.042.56.515.559h37.147a.77.77 0 0 0 .532-.211.75.75 0 0 0 .234-.516m114.965-17.332c7.519-11.69 19.446-16.122 33.06-13.983 24.775 3.915 32.196 30.958 26.588 52.897-6.877 27.015-42.42 36.439-58.923 12.487a.878.878 0 0 0-1.59.503l-.167 37.418q0 .67-.67.671h-15.317q-.697 0-.697-.699V70.944q0-.7.697-.7h15.526q.53 0 .544.532l.112 12.011q.014 1.51.837.238m44.201 19.594a18.4 18.4 0 0 0-1.419-7.02 18.35 18.35 0 0 0-9.947-9.902 18.3 18.3 0 0 0-7.014-1.373l-8.76.03a18.3 18.3 0 0 0-12.933 5.423 18.4 18.4 0 0 0-5.319 13.001l.038 10.99a18.4 18.4 0 0 0 1.419 7.021 18.35 18.35 0 0 0 9.947 9.902 18.3 18.3 0 0 0 7.014 1.373l8.76-.031a18.3 18.3 0 0 0 12.933-5.423 18.38 18.38 0 0 0 5.319-13z"/><path fill="#000" d="M532.765 68.53c52.522-.88 58.455 70.551 9.46 79.012-56.286 7.02-64.683-73.278-9.46-79.011m25.46 34.152a18.3 18.3 0 0 0-5.388-12.934 18.33 18.33 0 0 0-12.963-5.339l-8.9.016a18.32 18.32 0 0 0-12.944 5.384 18.3 18.3 0 0 0-5.343 12.953l.019 11.103a18.3 18.3 0 0 0 5.389 12.935 18.33 18.33 0 0 0 12.962 5.339l8.901-.016a18.33 18.33 0 0 0 12.944-5.384 18.3 18.3 0 0 0 5.343-12.953z"/><path fill="#000" d="M602.778 83.964a.4.4 0 0 0 .327.404.4.4 0 0 0 .455-.25c5.347-13.32 19.561-17.718 32.839-14.674 14.102 3.24 19.352 15.456 19.394 28.776q.084 23.72.028 47.554a.656.656 0 0 1-.656.656h-15.373a.8.8 0 0 1-.313-.062.83.83 0 0 1-.439-.447.8.8 0 0 1-.058-.314q.266-22.968-.07-44.972c-.153-10.332-5.082-16.14-15.582-16.447-13.292-.391-19.659 10.206-20.524 22.451q-.684 9.564-.28 38.996.014.795-.781.795h-15.373a.7.7 0 0 1-.698-.698V71.036q0-.698.698-.698h15.359a1.047 1.047 0 0 1 1.047 1.047zm80.071 30.655c.6 14.83 11.488 20.597 25.349 18.628 6.826-.964 11.153-4.315 13.261-10.808q.28-.838 1.088-.517l13.903 5.628q.684.265.377.949-5.709 12.958-19.207 17.175c-28.49 8.937-54.062-8.95-52.429-39.74 2.792-52.308 79.174-49.57 73.158 6.996q-.084.67-.754.67l-53.853.084q-.935 0-.893.935m38.428-14.075c1.117-14.41-11.013-19.87-23.59-17.161q-13.707 2.946-14.699 17.147-.042.531.503.531h37.242q.502 0 .544-.517m44.734-16.504c7.057-12.327 17.055-17.952 31.451-15.097 19.058 3.764 21.494 19.07 21.565 35.511q.098 20.638-.127 41.277 0 .699-.7.699h-15.599q-.728 0-.728-.727a6377 6377 0 0 1-.056-46.482c.028-7.57-4.229-13.152-11.847-14.663-17.154-3.442-24.575 10.788-24.533 25.703a3739 3739 0 0 1-.057 35.442q0 .727-.728.727h-15.333q-1.05 0-1.05-1.049V70.874a.696.696 0 0 1 .7-.7h15.767q.715 0 .715.714l-.084 12.984q-.015 1.302.644.168m208.456-1.531-.098-11.604q-.014-.713.713-.713h15.369q.685 0 .685.685l.098 74.767q.014.741-.727.741h-15.411q-.699 0-.699-.699v-11.547q0-1.455-.838-.252c-10.759 15.588-31.368 18.3-46.584 7.843-13.259-9.115-16.752-28.268-14-43.41 3.158-17.251 14.839-29.498 32.877-29.791 11.82-.196 21.349 4.334 27.665 14.26a.52.52 0 0 0 .579.213.52.52 0 0 0 .371-.493m.429 20.06a18.27 18.27 0 0 0-5.322-12.92 18.26 18.26 0 0 0-12.894-5.37l-8.97-.016a18.24 18.24 0 0 0-16.878 11.241 18.3 18.3 0 0 0-1.402 6.985l-.019 11.185a18.26 18.26 0 0 0 5.322 12.92 18.24 18.24 0 0 0 12.894 5.37l8.97.015a18.24 18.24 0 0 0 12.912-5.325 18.25 18.25 0 0 0 5.367-12.901zm-606.779 15.785-16.169 27.295q-.475.781-1.385.781h-18.574q-1.133 0-.476-.921l25.848-36.449q.462-.642.014-1.284L332.17 71.159q-.531-.78.42-.781h18.925q.755 0 1.133.641l15.665 27.24a.28.28 0 0 0 .387.105.3.3 0 0 0 .103-.105l15.483-27.184q.406-.697 1.217-.697h19.107a.432.432 0 0 1 .363.683l-25.624 36.757q-.433.629 0 1.242l26.002 36.422a.58.58 0 0 1 .038.619.62.62 0 0 1-.542.329h-18.686q-.966 0-1.455-.823l-16.155-27.253q-.21-.377-.434 0m518.602-48.222 14.785.07q.704 0 .704.7v74.465q0 1.05-1.056 1.049l-16.066.014q-.295-49.299-.127-75.193.014-1.441 1.76-1.105"/><path fill="#000" fill-rule="evenodd" d="M200.818.291q0-.504-.338-.135C167.01 32.976 121.215 58.593 74.498 65.1 49.842 68.53 25.536 68.727.287 68.483q-.287 0-.287.286v30.653C95.338 96.86 144.275 85.851 200.48.156 150.827 77.483 109.589 105.128 0 107.509v28.145C115.429 123.41 154.477 88.786 200.818.291m0 17.965C168.616 92.55 129.568 152.081 31.855 166.67c.97-.145-.96.149 0 0 81.365-12.148 118.252-17.831 168.963-90.71zM0 170.898v-26.877C108.856 135.654 157.641 90.144 200.818.291 148.383 125.116 102.688 158.841 0 170.898m200.818-42.597v-40.38c-51.979 75.2-106.468 71.956-197.553 82.977-.997.121-1.998-.121-3.005 0 99.56-.102 164.046-.259 200.558-42.597m0 42.597H49.586c73.856-1.569 129.426-5.832 151.232-33.723l.261 33.1c0 .173-.087.623-.261.623" clip-rule="evenodd"/></svg>