<svg xmlns="http://www.w3.org/2000/svg" fill="none" viewBox="0 0 1024 266"><path fill="#000" d="M93.376 2.547c6.462-3.396 16.294-3.396 22.756 0l65.937 34.656c3.891 2.045 6.029 5.093 6.412 8.24h.063v174.196c-.086 3.431-2.244 6.84-6.475 9.065l-65.937 34.655c-6.462 3.397-16.294 3.397-22.756 0L27.44 228.704c-4.213-2.214-6.236-5.648-6.336-9.065-.01-.337-.011-.617-.002-.85V46.561a9 9 0 0 1-.002-.564l.004-.555h.03c.293-3.18 2.333-6.15 6.307-8.24zm84.788 140.078-62.032 32.604c-6.462 3.396-16.294 3.396-22.756 0L31.48 142.698v76.596l61.896 32.359c3.495 1.86 7.123 3.671 10.67 3.902l.708.023c3.696.012 7.285-1.856 10.924-3.623l62.486-32.94zM10.379 215.852c0 6.672.779 11.06 2.327 14.151 1.283 2.561 3.207 4.518 6.722 6.901l.2.135a80 80 0 0 0 2.656 1.695l1.22.744 3.744 2.25-5.371 8.837-4.192-2.52-.705-.43a94 94 0 0 1-3.153-2.013C3.81 238.882.075 231.557 0 216.315v-.463zM99.563 95.936a9 9 0 0 0-1.34.57L32.287 131.16q-.105.054-.198.107l-.056.033.103.059.15.081 65.937 34.655c.41.216.86.406 1.34.57zm10.382 0v70.73c.48-.164.93-.354 1.34-.57l65.937-34.655q.104-.055.198-.108l.056-.032-.104-.059-.15-.081-65.937-34.656a9.5 9.5 0 0 0-1.34-.57m68.219-38.137-59.149 31.089 59.149 31.088zm-146.684.073v62.031l59.012-31.016zm79.805-46.193c-3.429-1.802-9.633-1.802-13.062 0L32.287 46.335q-.105.054-.198.108l-.056.032.103.059.15.081 65.937 34.656c3.429 1.802 9.633 1.802 13.062 0l65.937-34.656q.104-.054.198-.108l.056-.032-.104-.059-.15-.081zm76.623 3.8L192.1 18l.705.43a93 93 0 0 1 3.153 2.013c10.017 6.72 13.752 14.046 13.825 29.287l.002.464h-10.379c0-6.674-.779-11.06-2.327-14.151-1.283-2.562-3.207-4.52-6.722-6.901l-.2-.135a81 81 0 0 0-2.656-1.697l-1.219-.743-3.745-2.25zm127.309 196.898V115.23h26.936V97.443h-26.936v-12.77q0-21.664 18.948-21.664 5.478 0 11.642 1.824V45.906q-7.534-2.28-16.665-2.28-17.576 0-27.278 10.033-9.702 10.034-9.702 29.19v14.594H270.02v17.787h22.142v97.146zm93.592 1.595q13.24.001 23.169-5.473 9.93-5.472 14.953-15.734v19.612h22.827V97.443h-22.827v18.699q-5.251-10.261-15.067-15.849-9.815-5.587-23.055-5.587-14.838 0-26.479 7.526t-18.147 21.207q-6.506 13.683-6.506 31.47-.001 17.787 6.391 31.128 6.39 13.34 17.919 20.637 11.527 7.297 26.822 7.297m5.479-18.243q-15.752 0-24.539-10.718-8.79-10.718-8.79-30.101 0-19.611 8.79-30.671 8.788-11.06 24.31-11.06 15.751 0 24.311 10.718t8.561 30.557q0 19.611-8.561 30.443t-24.082 10.832m112.081 16.648v-65.448q0-15.28 8.788-24.401 8.79-9.121 23.399-9.121 12.782 0 18.604 6.841 5.82 6.841 5.82 21.892v70.237h23.056v-71.605q0-46.065-41.318-46.065-13.238 0-23.626 5.815-10.385 5.815-15.865 16.761l-2.054-19.84h-21.457q1.827 14.367 1.826 32.383v82.551zm156.822 1.595q9.587 0 17.121-2.507v-18.7q-6.164 1.824-12.099 1.824-9.13 0-14.267-4.903t-5.137-16.761V115.23h31.732V97.443h-31.732V60.728l-23.053 7.982v28.733h-22.373v17.787h22.373v59.518q0 19.156 9.814 29.19 9.816 10.033 27.621 10.033m88.114 0q16.663 0 29.446-7.297 12.783-7.298 19.745-20.751 6.962-13.455 6.962-31.47t-6.962-31.584q-6.962-13.568-19.745-20.865-12.784-7.298-29.446-7.298-16.892 0-29.676 7.298-12.783 7.297-19.746 20.865-6.962 13.569-6.963 31.584 0 18.015 6.963 31.47 6.963 13.453 19.746 20.751 12.784 7.297 29.676 7.297m-.229-18.243q-15.751 0-24.312-10.49-8.56-10.49-8.56-30.785 0-19.84 8.674-30.557 8.674-10.719 24.427-10.718 15.523 0 24.081 10.718 8.561 10.718 8.56 30.557 0 20.295-8.446 30.785t-24.424 10.49m106.145 16.648v-64.992q0-15.735 7.762-24.857 7.76-9.121 21.001-9.121 11.413 0 16.549 6.841 5.137 6.841 5.136 21.664v70.465h23.056v-64.992q-.001-15.735 7.648-24.857 7.645-9.121 20.887-9.121 11.413 0 16.548 6.841c3.425 4.561 5.132 11.782 5.132 21.664v70.465H1024v-71.605c0-30.71-12.78-46.065-38.349-46.065q-12.784 0-22.941 5.929-10.16 5.93-15.408 16.191-8.22-22.12-34.926-22.12-12.556 0-21.916 5.701-9.358 5.701-14.379 16.191l-2.054-19.155h-21.459q1.826 14.365 1.826 32.382v82.551z"/></svg>
