<svg xmlns="http://www.w3.org/2000/svg" fill="none" viewBox="0 0 1024 183"><path fill="#000" d="m95.75 68.589 68.746.007q.11 0 .208.058a.43.43 0 0 1 .154.16q.204.355-.159.747-52.175 56.282-104.283 112.467a.63.63 0 0 1-.769.109l-11.297-6.668a.57.57 0 0 1-.238-.278.55.55 0 0 1-.016-.36l19.177-63.703q.355-1.183-.878-1.183H.465a.5.5 0 0 1-.268-.078.53.53 0 0 1-.19-.212q-.036-.073.11-.261a37 37 0 0 1 2.386-2.837Q51.731 53.585 101.315.25a.78.78 0 0 1 .972-.138l11.312 6.69a.385.385 0 0 1 .167.428L95.38 68.096q-.144.493.37.493M72.185 94.745C78.22 74.756 84.519 54.724 90.258 34.56q.166-.58.109-.922a.377.377 0 0 0-.668-.174 312 312 0 0 1-16.796 18.589C59.523 65.724 47.45 80.53 33.607 93.758q-.63.603-.544 1.313a.52.52 0 0 0 .515.457h37.547a1.11 1.11 0 0 0 1.06-.783m59.813-10.963a.45.45 0 0 0 .084-.497.46.46 0 0 0-.425-.272H91.245a.46.46 0 0 0-.443.326l-19.546 64.509a.456.456 0 0 0 .769.449zm242.8 63.676c2.52 1.525 7.661 1.143 10.694.95a1.834 1.834 0 0 1 1.952 1.827v5.74a2.03 2.03 0 0 1-.608 1.446 2.02 2.02 0 0 1-1.459.574c-14.005-.326-27.967-.659-41.984.025a2.064 2.064 0 0 1-2.169-2.063v-5.589a1.985 1.985 0 0 1 1.325-1.873c.257-.09.53-.126.801-.105 4.103.314 12.857 1.149 12.857-5.263q.03-51.041-.09-102.082-.006-2.892-.695-4.852c-1.311-3.726-9.474-3.49-12.519-3.193-.9.084-1.649-.956-1.661-1.9a275 275 0 0 1-.012-6.267 1.63 1.63 0 0 1 1.51-1.61l27.491-2.007a2.06 2.06 0 0 1 2.034 1.225c.113.259.171.538.171.82q-.03 59.365-.121 119.104-.006 3.58 2.483 5.093m229.621-65.165q0 .816.483.157c8.555-11.68 22.27-15.231 36.178-11.765q10.03 2.498 14.277 11.36c2.393 4.984 3.015 11.353 3.064 17.524q.157 22.138.151 44.278c0 2.178.755 3.151 2.755 3.744 3.534 1.047 6.779 1.004 10.186.805a1.9 1.9 0 0 1 1.867 1.171c.1.242.15.502.145.764a550 550 0 0 1-.127 5.947q-.054 1.887-2.29 1.766a384 384 0 0 0-42.595.03c-2.743.157-1.969-6.013-1.969-7.7.006-1.343 1.045-1.99 2.35-1.942a39.5 39.5 0 0 0 9.709-.841c3.686-.78 2.918-5.075 2.943-7.93q.236-25.757-.018-46.595c-.103-8.3-4.073-16.792-13.939-15.461q-12.96 1.759-18.844 13.223c-2.961 5.77-3.571 10.912-3.68 18.074q-.313 19.587.012 34.981c.109 5.208 8.368 4.833 11.872 4.561 4.127-.314 3.021 4.071 2.973 6.557-.048 1.996-.665 3.14-2.804 3.019q-19.865-1.15-40.951.006c-1.408.072-3.003-.496-3.015-2.021a294 294 0 0 1 .006-5.649 2 2 0 0 1 .645-1.454 2 2 0 0 1 1.5-.524c3.311.242 12.579.859 12.603-4.198q.217-51.719.024-103.438c-.03-8.704-6.283-8.154-12.923-7.773-1.396.085-1.855-1.113-1.855-2.365q-.006-2.764.006-5.662a1.73 1.73 0 0 1 1.595-1.718l27.194-2.002a2.303 2.303 0 0 1 2.472 2.299zm100.717-3.164c.979-.671 1.915-1.67 2.719-2.256 10.386-7.55 22.917-9.207 34.928-5.027 15.727 5.462 26.856 19.768 28.952 36.36 3.42 27.07-16.578 52.566-44.933 51.695-9.981-.309-18.174-3.926-24.107-11.953q-.224-.302-.417.024l-5.105 8.741a2.48 2.48 0 0 1-2.139 1.228h-4.465a1.85 1.85 0 0 1-1.849-1.851q-.054-56.981.067-113.835c.024-9.812-5.263-9.485-13.335-9.376a1.82 1.82 0 0 1-1.309-.526 1.84 1.84 0 0 1-.545-1.307l.006-6.007a1.81 1.81 0 0 1 1.673-1.809q13.202-.986 26.645-1.971 2.864-.206 2.876 2.51.078 27.608.066 55.215 0 .327.272.145m37.025 3.944c-11.522-9.83-26.923-5.934-34.856 6.303-1.589 2.456-1.824 4.3-1.831 7.168q-.024 16.411-.012 32.822.006 5.553.695 7.918c1.855 6.345 7.22 10.997 13.274 13.301 5.408 2.063 10.966 2.003 16.319-.411 16.331-7.361 18.168-29.077 16.283-44.46-1.063-8.68-2.979-16.761-9.872-22.641M256.36 96.036q-.224 26.113.072 47.539c.049 3.665 4.961 4.307 7.752 4.543q6.15.525 14.658.266c3.014-.091 2.126 5.426 2.096 7.283-.024 1.96-1.245 2.25-2.966 2.183q-28.446-1.01-60.038.012c-3.13.103-2.163-6.012-2.115-7.942.03-1.046 1.275-1.512 2.266-1.5q6.61.096 13.177-.635c4.676-.526 4.314-4.809 4.32-8.293q.06-48.09.048-96.179c0-3.63.49-8.039-4.06-9.134-4.404-1.065-9.038-.962-13.455-.66a2.2 2.2 0 0 1-2.344-2.195l.018-5.372c.003-.57.231-1.116.634-1.519a2.15 2.15 0 0 1 1.517-.628h105.448a1.68 1.68 0 0 1 1.668 1.47q2.543 20.524 5.147 41.327c.127 1.004.369 2.298-.229 3.133-.955 1.337-4.701.89-6.078.859a2.096 2.096 0 0 1-2.036-1.912c-1.438-16.447-5.843-33.85-25.962-34.805a473 473 0 0 0-35.943-.351q-2.937.084-3.378 2.97-.326 2.13-.344 6.666-.084 21.177.145 42.488.001.077.052.133c.034.036.08.057.129.06q10.072.872 20.192-.133c2.604-.26 5.474-.822 7.552-2.298 5.317-3.8 5.462-12.25 5.323-18.026a1.75 1.75 0 0 1 1.074-1.67 1.8 1.8 0 0 1 .684-.139h4.369q2.35 0 2.35 2.347l-.006 50.116a1.97 1.97 0 0 1-.581 1.401 1.98 1.98 0 0 1-1.401.577c-2.652-.012-6.604 1.198-6.477-3.006.242-8.009-.876-17.373-10.639-18.752q-8.23-1.162-22.355-.52-.278.017-.284.296m640.327-14.62a.224.224 0 0 0-.224-.224l-14.222.006a1.915 1.915 0 0 1-1.916-1.875c-.06-2.293-.948-5.777 2.411-6.05 17.364-1.397 21.684-20.693 22.252-34.956.115-2.734 4.538-2.057 6.362-2.045a2.27 2.27 0 0 1 1.599.676c.424.428.661 1.007.661 1.61v32.883q0 .046.017.088a.24.24 0 0 0 .213.142h25.49a1.7 1.7 0 0 1 1.698 1.7v5.897a1.93 1.93 0 0 1-1.927 1.93l-25.267-.012a.2.2 0 0 0-.141.058.2.2 0 0 0-.059.141q-.097 27.608.224 55.233.072 6.213 2.435 10.096c2.543 4.186 7.721 6.212 12.077 3.787 8.731-4.845 7.601-20.942 7.359-29.041a1.696 1.696 0 0 1 1.613-1.748 68 68 0 0 1 5.039-.067c1.342.03 1.662 1.107 1.728 2.311.719 14.239-.223 37.134-19.593 38.054-15.546.738-27.479-9.122-27.624-24.904a5200 5200 0 0 1-.205-53.69m-386.854 71.656c-2.096 2.359-5.981 7.984-9.824 6.714-1.987-.659-2.404-2.498-2.44-4.549q-.32-20.542-.007-30.414c.109-3.551 7.51-4.41 8.266-.375 2.223 11.85 7.522 24.891 20.874 27.281 8.664 1.554 20.851-.684 23.612-10.592 3.19-11.469-5.287-17.881-15.31-19.726-11.311-2.087-26.657-4.827-33.653-15.14-7.124-10.49-4.06-24.317 5.643-31.878 6.313-4.924 15.485-6.176 23.49-6.055q9.498.138 17.316 4.615.267.15.49-.048c1.691-1.495 3.365-3.539 5.57-4.344 3.499-1.27 5.257.865 5.251 4.156q-.024 10.9.078 21.8c.037 3.666-.278 6.116-4.531 6.056-2.791-.037-3.649-1.289-3.939-4.017-1.233-11.584-5.541-19.006-17.788-20.724-7.987-1.119-19.998.823-22.143 10.26-3.027 13.325 17.715 15.43 26.004 17.312q6.816 1.554 9.86 2.927c11.238 5.075 18.917 16.502 17.208 28.945-1.475 10.755-8.187 19.326-18.712 22.713-11.673 3.763-24.469 2.517-34.759-4.978q-.301-.218-.556.061M415.732 82.08c4.875 1.247 7.262 5.47 7.292 10.23.097 14.802-23.877 13.931-21.086-3.847 2.236-14.24 18.899-20.482 31.508-20.168 13.099.333 28.874 7.616 32.814 20.978q1.262 4.282 1.311 9.69.187 20.628.157 41.255-.006 3.036.471 4.542c.87 2.728 3.921 6.086 6.888 3.999 4.042-2.843 3.154-15.437 2.894-20.022a2.08 2.08 0 0 1 .573-1.551 2.07 2.07 0 0 1 1.523-.639q2.273.03 4.64-.006c1.342-.018 1.771 1.198 1.837 2.413.689 12.401.653 27.021-14.984 29.906-8.355 1.537-15.684-3.841-18.186-11.837q-.12-.4-.344-.043-6.73 10.816-19.219 12.594c-9.057 1.295-19.388-.066-27.4-4.936-8.199-4.984-12.144-13.422-9.679-22.859 3.323-12.727 14.597-19.701 26.663-23.113a114.7 114.7 0 0 1 27.091-4.276.42.42 0 0 0 .405-.406c.115-6.448-.163-13.011-3.679-18.63-6.991-11.18-21.751-11.59-31.551-3.545q-.236.194.061.272m.966 48.151c-1.963 4.367-3.015 8.577-1.015 13.005 4.151 9.17 15.123 10.834 23.364 6.442 14.205-7.567 12.416-23.73 11.812-37.243q-.018-.303-.314-.297c-13.969.339-27.63 4.259-33.847 18.093m553.838 22.507a.28.28 0 0 0-.202-.056.26.26 0 0 0-.178.104c-1.946 2.511-6.199 8.281-10.006 7.084-2.114-.66-2.465-2.529-2.489-4.67q-.17-13.888-.048-27.783.024-2.698.749-3.847c1.389-2.19 5.462-2.583 7.027-.278q.447.659.99 3c3.088 13.332 9.867 26.567 25.853 25.871 6.23-.272 12.268-1.5 16.238-6.992 4.4-6.067 3.83-13.931-1.85-18.728-4.31-3.641-10.339-5.202-15.759-6.23a162 162 0 0 1-14.47-3.436c-12.138-3.478-20.367-14.191-18.41-27.081 3.378-22.224 34.288-26.35 49.979-16.617.07.044.15.06.23.047a.34.34 0 0 0 .21-.12 22.6 22.6 0 0 1 3.84-3.599c1.94-1.44 5.2-1.826 6.5.539q.51.913.57 3.387c.16 7.787.17 15.574.01 23.361-.09 4.87-7.87 5.692-8.4.333-.2-2.012-.64-4.333-1.31-6.962-2.3-9.034-8.14-13.885-17.504-14.554q-7.274-.515-13.613 1.984a12.56 12.56 0 0 0-7.365 7.864c-2.99 9.388 6.205 13.32 13.999 15.436q3.522.957 14.933 3.4c13.45 2.879 23.69 12.866 23.93 27.124.19 10.666-4.05 18.697-12.7 24.093-7.32 4.561-19.438 5.788-27.522 3.859q-7.407-1.773-13.232-6.533m-140.451 7.518a43.3 43.3 0 0 1-17.005-3.552 44.4 44.4 0 0 1-14.392-9.997 46 46 0 0 1-9.587-14.921 47.2 47.2 0 0 1-3.324-17.572 47.2 47.2 0 0 1 3.446-17.549 46 46 0 0 1 9.691-14.853 44.4 44.4 0 0 1 14.461-9.896 43.3 43.3 0 0 1 17.03-3.434 43.3 43.3 0 0 1 17.004 3.552 44.4 44.4 0 0 1 14.392 9.998 46 46 0 0 1 9.588 14.92 47.2 47.2 0 0 1 3.323 17.573 47.2 47.2 0 0 1-3.446 17.548 46 46 0 0 1-9.691 14.853 44.4 44.4 0 0 1-14.461 9.897 43.3 43.3 0 0 1-17.029 3.433m8.872-82.047c-11.788-5.027-24.312.647-29.69 11.825q-2.295 4.784-3.003 10.592-1.45 11.966-.368 22.653c.483 4.713 1.009 8.663 2.61 12.613 4.356 10.773 16.011 18.582 27.696 14.916 10.936-3.435 16.379-12.727 18.125-23.718q2.405-15.128-1.057-30.686c-1.782-7.997-6.646-14.929-14.313-18.195"/></svg>
