<svg xmlns="http://www.w3.org/2000/svg" fill="none" viewBox="0 0 1024 239"><path fill="#000" fill-rule="evenodd" d="M119.194 158.924v-39.73H79.462V79.462h79.462v119.194H39.731v-39.732H0V0h158.924v39.731H39.731v119.193z" clip-rule="evenodd"/><path fill="#000" d="M198.653 39.732h-39.729v39.73h39.729zM39.731 198.656 0 198.658v39.731h39.731zm296.519-17.201c-42.72 0-61.6-28.988-61.6-66.749 0-37.57 20.025-66.749 65.032-66.749 39.096 0 57.977 17.164 61.409 48.06h-20.406c-2.67-21.17-14.875-31.85-41.765-31.85-30.705 0-43.673 17.546-43.673 50.539 0 32.612 12.205 50.539 43.863 50.539 29.751 0 40.24-16.783 42.72-36.045h-53.59v-14.494h72.661v63.507h-17.736v-26.89c-5.912 18.308-22.314 30.132-46.915 30.132m115.435-.763c-19.453 0-31.658-10.489-31.658-28.034 0-15.257 7.628-25.174 28.988-28.798l23.839-4.005c9.154-1.525 13.349-4.386 13.349-11.061 0-8.582-4.577-14.494-20.978-14.494-15.638 0-23.076 6.293-24.03 18.308h-19.071c.191-20.215 15.257-32.993 42.338-32.993 26.318 0 39.287 12.015 39.287 29.56v47.297c0 7.056.19 12.778.953 21.741h-17.354c-.763-7.438-1.145-13.922-1.145-21.55-3.814 12.014-14.303 24.029-34.518 24.029m4.005-14.685c20.024 0 30.513-15.066 30.513-34.137v-5.721c-5.149 3.814-11.252 5.34-16.973 6.675l-13.159 3.051c-11.824 2.67-16.973 7.247-16.973 16.02 0 9.154 6.675 14.112 16.592 14.112m136.534-83.15h19.071v95.356h-19.071v-20.788c-5.531 13.922-15.829 23.839-33.756 23.839-25.365 0-35.472-13.922-35.472-38.905V82.857h19.071v57.786c0 20.025 9.535 24.792 22.313 24.792 16.973 0 27.844-13.922 27.844-42.338zm95.548-3.051c25.365 0 34.71 13.922 34.71 38.905v59.502h-19.071v-57.786c0-20.024-9.155-24.792-21.169-24.792-18.69 0-28.989 12.015-28.989 42.338v40.24h-19.071V82.857h19.071v21.36c5.722-14.113 16.211-24.411 34.519-24.411m93.428 98.407c-23.076 0-28.798-8.963-28.798-28.035V97.542h-18.117V84.478l18.117-1.62 9.536-21.551h9.536v21.55h30.513v14.685h-30.513v65.414h28.606v15.257zm37.644 0V44.715h19.072v133.498zm85.506-11.061c17.354 0 24.983-7.819 27.653-17.736h17.545c-1.716 13.159-12.205 31.848-45.771 31.848-33.946 0-48.249-22.694-48.249-50.92 0-27.843 15.638-50.538 48.249-50.538 30.324 0 45.962 21.55 45.962 48.822 0 2.479 0 4.768-.382 7.247h-75.14c1.526 24.03 13.731 31.277 30.133 31.277m-.382-73.233c-16.401 0-27.272 6.865-29.56 28.034h57.023c-.954-19.262-10.49-28.034-27.463-28.034m99.242 84.294c-23.074 0-28.795-8.963-28.795-28.035V97.542h-18.118V84.478l18.118-1.62 9.536-21.551h9.535v21.55H1024v14.685h-30.514v65.414h28.604v15.257z"/></svg>