<svg xmlns="http://www.w3.org/2000/svg" fill="none" viewBox="0 0 1024 466"><path fill="#000" d="M771.604 204.627h109.468V.605H771.604zM689.321.564h64.896v26.339h-60.012c-9.901 0-18.009 2.872-24.317 8.595-6.318 5.733-9.472 13.262-9.472 22.595 0 9.528 3.154 17.159 9.472 22.882 6.308 5.734 14.416 8.595 24.317 8.595h60.012v115.047H623.206v-26.389h68.676c10.68 0 19.371-3.016 26.068-9.036 6.697-6.021 10.045-13.703 10.045-23.026q0-13.985-10.045-22.739c-6.697-5.826-15.388-8.749-26.068-8.749l-8.714.154c-28.024 0-50.787-22.646-50.961-50.688l-.042-6.154v-.225c0-31.59 25.59-57.2 57.156-57.2m271.801 0H1024v26.339h-57.996c-9.901 0-18.009 2.872-24.317 8.595-6.318 5.733-9.47 13.262-9.47 22.595 0 9.528 3.152 17.159 9.47 22.882 6.308 5.734 14.416 8.595 24.317 8.595H1024v56.75c0 32.205-26.078 58.307-58.251 58.307H899.02v-26.389h62.655c10.679 0 19.371-3.015 26.068-9.036s10.045-13.703 10.045-23.026q0-13.985-10.045-22.739c-6.697-5.825-15.389-8.595-26.068-8.595h-57.341l-.358-56.851v-.226c-.01-31.59 25.578-57.2 57.146-57.2m-858.813 0h73.405v26.339h-71.368q-20.104 0-37.137 10.062C55.853 43.672 46.863 52.81 40.269 64.37c-6.604 11.56-9.901 24.144-9.901 37.744 0 13.61 3.297 27.344 9.901 38.811 6.594 11.466 15.584 20.554 26.94 27.251q17.048 10.062 37.137 10.062h43.394v-63.396H77.264V89.18h98.45v115.437H102.38C46.055 204.669.367 158.976.367 102.596.367 46.246 46.014.564 102.31.564m287.22 94.73v109.405h-25.977V95.632c0-37.96-30.749-68.74-68.675-68.74s-68.673 30.77-68.673 68.74v109.067h-26.212V.677h95.019c52.198 0 94.518 42.36 94.518 94.616m472.18-33.16c0 19.57-15.83 35.426-35.367 35.426s-35.365-15.856-35.365-35.426 15.828-35.426 35.365-35.426c19.527.01 35.367 15.867 35.367 35.426M601.817 50.657c-9.348-15.754-21.962-28.134-37.812-37.15C548.143 4.514 530.87 0 512.174 0c-18.134 0-35.265 4.513-51.401 13.508-16.147 9.005-28.753 21.395-37.814 37.149-9.072 15.764-13.598 32.924-13.598 51.508 0 18.575 4.526 35.755 13.598 51.498 9.051 15.765 21.667 28.288 37.814 37.57 16.148 9.293 33.267 13.928 51.401 13.928 18.686 0 35.959-4.645 51.831-13.928 15.85-9.292 28.464-21.805 37.812-37.57 9.348-15.754 14.017-32.933 14.017-51.498 0-18.585-4.669-35.744-14.017-51.508m-89.214 87.498c-19.587 0-35.459-15.908-35.459-35.538 0-19.631 15.882-35.54 35.459-35.54 19.589 0 35.458 15.909 35.458 35.54.01 19.63-15.869 35.538-35.458 35.538M0 345.003v-.279c0-66.588 53.933-120.573 120.46-120.573h51.386v31.076h-48.583c-48.996 0-90.177 38.672-91.22 87.698-1.079 50.412 39.435 91.624 89.569 91.624h50.234v31.27h-51.048C54.089 465.819 0 411.774 0 345.003m797.224-120.852h112.597c61.867 0 112.019 50.193 112.019 112.114v129.542h-30.797V336.666c0-44.991-36.438-81.451-81.38-81.451s-81.378 36.472-81.378 81.451v129.141h-31.061zm-456.483 97.968c4.708-4.594 7.073-10.233 7.073-16.917v-81.051h30.711v241.656h-30.711V383.25c0-6.672-2.365-12.311-7.073-16.917-4.707-4.594-10.289-6.903-16.731-6.903h-71.771c-6.673 0-12.315 2.296-16.913 6.903-4.61 4.606-6.903 10.245-6.903 16.917v82.557h-31.061V224.151h31.061v81.051c0 6.672 2.304 12.311 6.903 16.917 4.598 4.606 10.24 6.903 16.913 6.903h71.771c6.43 0 12.012-2.297 16.731-6.903"/><path fill="#000" fill-rule="evenodd" d="M528.311 237.009c-4.1-9.103-9.9-13.66-17.41-13.66-7.511 0-13.311 4.557-17.413 13.66L390.053 465.807h240.652zm-59.32 147.213c0 23.189 18.759 41.978 41.91 41.978 23.136 0 41.906-18.789 41.906-41.978 0-23.188-18.758-41.977-41.906-41.977-23.151 0-41.91 18.789-41.91 41.977m172.998-160.071v241.656h129.718V224.151zm22.957 72.823c0 23.188 18.758 41.977 41.907 41.977 23.139 0 41.897-18.789 41.909-41.977 0-23.189-18.758-41.978-41.909-41.978-23.149 0-41.907 18.789-41.907 41.978" clip-rule="evenodd"/></svg>