<svg xmlns="http://www.w3.org/2000/svg" fill="none" viewBox="0 0 1024 104"><path fill="#000" d="m198.283 1.538-50.767 100.739h22.003l11.781-23.42h56.919l11.646 23.42h22.297L221.417 1.537zm11.488 20.342L229.4 61.298h-39.393zm64.94 58.517c9.815 14.166 33.65 23.42 57.62 23.42 28.471 0 50.474-11.088 50.474-33.105 0-21.745-20.194-25.524-48.801-28.76-25.507-2.941-32.247-4.639-32.247-11.925 0-6.743 8.141-12.49 26.074-12.49 17.096 0 31.41 5.747 39.121 15.703l13.75-13.192C371.611 7.988 351.417 0 328.984 0c-28.606 0-47.24 13.056-47.24 32.132 0 19.912 18.928 24.551 43.6 27.357 28.312 3.077 36.588 3.937 36.588 13.464 0 8.146-11.918 13.192-28.742 13.192-14.857 0-33.083-4.775-44.594-20.207zM486.106 1.538v40.119h-64.629V1.537h-20.601v100.74h20.601v-42.79h64.629v42.79h20.76V1.537zm58.018 100.739V62.294h67.569V44.486h-67.569V19.368h75.575V1.538h-95.905v100.739zm94.356 0h91.404V84.469h-70.803V1.538H638.48zM793.395 0c-34.485 0-59.451 22.017-59.451 51.909 0 29.891 24.966 51.908 59.451 51.908 34.351 0 59.452-22.017 59.452-51.908S827.746 0 793.395 0m0 18.102c22.569 0 38.285 13.464 38.285 33.807 0 20.342-15.694 33.806-38.285 33.806S755.11 72.25 755.11 51.908s15.717-33.806 38.285-33.806M929.811 1.538l-25.24 77.998-26.503-77.998h-21.594l35.183 100.739h23.837l24.807-77.025 24.538 77.025h23.968L1024 1.537h-21.17l-26.505 78-25.101-78zM142.466 47.294V29.395h-18.295V1.563h-20.623v27.855h-64.63V1.563H18.295v27.855H0v17.899h18.295v9.232H0v17.899h18.295v27.832h20.623V74.425h64.63v27.855h20.623V74.425h18.295V56.526h-18.295v-9.232zm-38.918 9.232h-64.63v-9.232h64.63z"/></svg>
