<svg xmlns="http://www.w3.org/2000/svg" fill="none" viewBox="0 0 1024 283"><path fill="#000" d="M527.907 41.122v115.422h144.631v-31.025H559.005V93.791h113.538V0H569.125zm112.812-10.097v31.026h-81.714V54.11l23.138-23.085zm293.607 0H1024V0H921.314l-41.95 41.122v52.67h113.539v31.745H879.364v31.025H1024V62.789H911.184v-8.68zm-230.69 10.097v115.422h31.819V54.11l22.416-23.085h58.577v125.537h31.819V0H744.854zM175.729 166.664v115.421H320.36V251.06H207.548v-31.025H320.36v-93.773H216.947zm113.538 20.924h-81.719v-8.657l23.138-23.084h58.581zM31.098 135.639V31.025H0V282.1h31.098V179.651l23.138-23.084h58.576v125.532h31.819V125.537H41.218zm464.999 83.694v-41.847l-46.276-36.076 46.276-36.076V62.771H465v26.695l-41.218 31.745-40.506-31.745V62.77h-31.097v42.567l46.276 36.076-46.276 36.077v41.847h31.097v-26.7l40.496-31.745 41.219 31.745v26.695zM383.276 0h-47.002l-47.007 46.898v46.893h31.097v-33.91l28.923-28.856h33.989zm144.655 222.219-28.946 28.878h-33.99v31.025h47.007l47.003-46.916v-46.898h-31.074z"/></svg>
