<svg xmlns="http://www.w3.org/2000/svg" fill="none" viewBox="0 0 1024 368"><path fill="#000" d="M495.011 290.956a69 69 0 0 1-12.395 1.048q-13.266 0-18.674-4.884t-5.407-16.408V77.702q2.788-.708 8.897-1.757a72 72 0 0 1 12.049-1.039q12.556 0 18.495 4.537 5.94 4.538 5.915 16.755v68.761h87.24V77.703q2.787-.71 8.905-1.758a71.6 71.6 0 0 1 12.041-1.039q12.564 0 18.495 4.706t5.915 16.9v192.644c-2.096.465-5.07 1.057-8.906 1.75a69 69 0 0 1-12.387 1.047q-13.273 0-18.673-4.883-5.398-4.884-5.416-16.409v-69.454h-87.231v88c-2.104.482-5.061 1.056-8.863 1.749m339.056-84.122q0 20.279-6.109 36.485a79.65 79.65 0 0 1-17.279 27.781 74.5 74.5 0 0 1-26.869 17.626q-15.717 6.091-35.26 6.108t-35.25-6.108a75.6 75.6 0 0 1-26.878-17.457 77.7 77.7 0 0 1-17.279-27.57q-6.109-16.232-6.109-36.831 0-20.228 6.109-36.467a76.5 76.5 0 0 1 17.457-27.579 77.5 77.5 0 0 1 27.038-17.448q15.716-6.11 34.904-6.109 19.188 0 34.904 6.109a76.3 76.3 0 0 1 27.038 17.625 78.4 78.4 0 0 1 17.448 27.748q6.117 16.206 6.135 36.087m-85.517-52.698q-18.841 0-29.665 13.781-10.824 13.78-10.824 38.917 0 25.493 10.646 39.096t29.843 13.611q19.19 0 29.844-13.789t10.646-38.918q0-25.12-10.824-38.917-10.824-13.799-29.666-13.781m192.317 140.309a85.5 85.5 0 0 1-18.674-1.918 103 103 0 0 1-15.529-4.706v64.215a506 506 0 0 1-8.374 1.749 61.3 61.3 0 0 1-11.829 1.047q-12.218 0-18.149-4.537t-5.915-16.054V157.278q0-8.374 3.313-13.612 3.312-5.238 10.646-9.776 10.139-5.914 25.137-10.3 14.997-4.384 33.856-4.36a118.6 118.6 0 0 1 35.428 5.07 75 75 0 0 1 28.094 15.707c7.889 7.098 14.049 16.111 18.499 27.038q6.66 16.392 6.63 39.096c0 14.645-2.09 27.443-6.28 38.394q-6.27 16.425-17.28 27.57a70.2 70.2 0 0 1-26.19 16.755 96.1 96.1 0 0 1-33.383 5.585m-6.625-35.251q20.938 0 32.809-12.919t11.829-40.134q0-28.263-12.218-40.135t-31.406-11.871a51.5 51.5 0 0 0-16.586 2.442 85 85 0 0 0-12.387 5.238v89.699a51.8 51.8 0 0 0 12.387 5.585 53 53 0 0 0 15.572 2.095M362.539 121.46 285.391 9.224C273.274-8.367 245.876.97 246.772 22.344c.819 19.48 8.1 40.101 25.523 65.406q.012.021.01.047a.1.1 0 0 1-.02.043.08.08 0 0 1-.089.016c-7.128-5.314-114.59-86.02-242.33-43.047h-.143C15.625 50.093 8.427 61.625 11.996 75.147c3.302 12.52 16.14 20.036 28.902 17.918 27.133-4.518 54.06-6.666 80.541-4.343s52.383 9.11 76.502 20.962 45.968 28.623 66.049 47.831c22.585 21.585 50.607 67.616 50.607 67.616a14.2 14.2 0 0 0 17.134 6.416c7.592-2.718 11.13-11.472 8.275-18.981a294 294 0 0 0-21.781-45.303.08.08 0 0 1-.001-.1.1.1 0 0 1 .048-.026.07.07 0 0 1 .052.013c9.444 3.553 18.182 7.979 28.522 5.557 8.435-1.981 15.837-7.721 19.276-15.754a36.5 36.5 0 0 0-3.583-35.493M6.578 245.011l77.59 112.861c12.148 17.644 39.041 7.972 38.213-13.422-.759-19.572-8.025-40.275-25.534-65.708-.053-.076 0-.175.091-.122 7.145 5.315 114.649 86.009 242.35 43.046a1 1 0 0 0 .152 0c14.1-5.268 21.259-16.778 17.721-30.314-3.295-12.512-16.134-20.028-28.89-17.902-27.144 4.555-54.067 6.658-80.558 4.335s-52.389-9.11-76.503-20.954c-24.115-11.843-45.974-28.629-66.057-47.829-22.58-21.583-50.612-67.613-50.612-67.613a14.19 14.19 0 0 0-17.82-6.165c-7.228 3.037-10.318 11.578-7.547 18.897a294 294 0 0 0 21.73 45.156.1.1 0 0 1 .011.049.1.1 0 0 1-.018.046.1.1 0 0 1-.042.028.1.1 0 0 1-.05-.001c-9.445-3.553-18.222-7.979-28.525-5.558-8.436 1.944-15.846 7.714-19.255 15.723a36.49 36.49 0 0 0 3.553 35.447"/></svg>
