<svg xmlns="http://www.w3.org/2000/svg" fill="none" viewBox="0 0 1032 203"><g fill="#000" filter="url(#filter0_d_6293_2941)"><path d="M77.66 85.974H27.966V32.756H4v129.058h23.966v-53.726H77.66v53.726h23.966V32.756H77.66zm394.97 20.546c6.868-7.585 10.691-18.276 10.691-30.222 0-12.2-3.688-22.697-10.632-30.357-5.315-5.973-15.29-13.185-32.746-13.185h-39.211v129.058h23.966v-42.138h10.84l31.358 42.138h27.579l-34.493-46.29a37 37 0 0 0 12.648-9.004m-11.453-30.222c0 6.734-1.673 11.945-4.988 15.47-3.494 3.957-8.959 5.972-16.276 5.972h-15.215V54.87h15.215c7.466 0 12.887 1.956 16.321 5.839 3.27 3.509 4.943 8.75 4.943 15.589m110.109-43.542H547.32v129.058h23.966zm69.733 0v23.95h48.276l-59.624 105.108H732.03v-23.966h-59.624L732.03 32.756zm147.933 129.058h79.2V139.7h-55.234v-34.135h45.498V83.45h-45.498V54.706h55.234v-21.95h-79.2zm214.918-48.201L943.2 32.756h-17.56v129.058h23.951V80.777l60.979 81.037H1028V32.756h-24.13zM329.52 40.744l-15.828 24.624a70.69 70.69 0 0 1-94.953 95.013l-24.608 15.962a97.06 97.06 0 0 0 125.391-10.192 97.06 97.06 0 0 0 9.998-125.407"/><path d="M250.619 145.926a48.784 48.784 0 0 0 47.962-39.913 111.6 111.6 0 0 0-88.443 18.381 48.74 48.74 0 0 0 40.481 21.532"/><path d="M274.66 94.65c8.318 0 16.613.89 24.742 2.657a48.797 48.797 0 0 0-97.581 0c.002 2.183.157 4.364.463 6.526a107 107 0 0 0-18.307 16.962 70.673 70.673 0 0 1 98.432-86.606l24.623-15.917a97.058 97.058 0 0 0-134.568 136.703 117.6 117.6 0 0 1 16.62-22.906s9.571-10.004 16.918-15.021a116.2 116.2 0 0 1 68.658-22.399"/></g><defs><filter id="filter0_d_6293_2941" width="1032" height="202.632" x="0" y="0" color-interpolation-filters="sRGB" filterUnits="userSpaceOnUse"><feFlood flood-opacity="0" result="BackgroundImageFix"/><feColorMatrix in="SourceAlpha" result="hardAlpha" values="0 0 0 0 0 0 0 0 0 0 0 0 0 0 0 0 0 0 127 0"/><feOffset dy="4"/><feGaussianBlur stdDeviation="2"/><feComposite in2="hardAlpha" operator="out"/><feColorMatrix values="0 0 0 0 0 0 0 0 0 0 0 0 0 0 0 0 0 0 0.25 0"/><feBlend in2="BackgroundImageFix" result="effect1_dropShadow_6293_2941"/><feBlend in="SourceGraphic" in2="effect1_dropShadow_6293_2941" result="shape"/></filter></defs></svg>