<svg xmlns="http://www.w3.org/2000/svg" fill="none" viewBox="0 0 1024 223"><path fill="#000" d="M138.565 83.787 109.772 4.819a3.55 3.55 0 0 1 .412-3.25 3.54 3.54 0 0 1 2.892-1.53q21.419-.064 42.62-.021c6.147 0 10.851 4.209 13.105 10.194a11390 11390 0 0 1 36.712 98.699 2.95 2.95 0 0 1 0 2.061 85011 85011 0 0 0-36.231 99.927c-2.385 6.599-6.848 11.4-13.74 11.51q-20.653.329-41.285-.132c-5.032-.109-4.966-3.398-3.675-7.169q13.717-39.55 27.589-79.121a1.694 1.694 0 0 0-.825-2.051 1.7 1.7 0 0 0-.772-.185H89.447a2.67 2.67 0 0 0-2.516 1.775 7018 7018 0 0 1-27.655 76.184c-2.231 6.051-6.87 10.655-13.105 10.721q-20.763.219-42.423.066a3.78 3.78 0 0 1-3.053-1.603 3.8 3.8 0 0 1-.491-3.418 75311 75311 0 0 1 37.281-107.403q.81-2.28-1.05-7.213A11167 11167 0 0 1 .816 6.617c-1.794-4.933.526-6.6 5.142-6.6h40.87q8.75 0 12.448 9.998Q73.081 47.24 86.887 84.489a.88.88 0 0 0 .81.548l50.058-.066q1.246 0 .81-1.184M292.172 97.14l46.211-.11a1.1 1.1 0 0 0 1.098-1.076l.638-45.475a1.096 1.096 0 0 1 1.098-1.097l22.391-.22a1.1 1.1 0 0 1 1.035.672c.057.135.086.28.086.425l.022 120.866a1.1 1.1 0 0 1-1.099 1.097h-23.116a1.1 1.1 0 0 1-1.099-1.097l.066-52.191a1.1 1.1 0 0 0-1.098-1.098l-46.211.11a1.1 1.1 0 0 0-1.098 1.097l.088 52.082a1.1 1.1 0 0 1-1.099 1.097h-22.589a1.1 1.1 0 0 1-1.099-1.097V50.238a1.1 1.1 0 0 1 .33-.784 1.1 1.1 0 0 1 .791-.314l22.567.242a1.1 1.1 0 0 1 1.021.692q.081.206.078.427l-.11 45.541a1.096 1.096 0 0 0 1.098 1.098m449.486 73.964a1.12 1.12 0 0 1-.684 1.034 1.1 1.1 0 0 1-.423.084l-20.625-.036a1.1 1.1 0 0 1-.78-.33 1.13 1.13 0 0 1-.323-.792l.208-120.806a1.14 1.14 0 0 1 .325-.791 1.1 1.1 0 0 1 .782-.327l20.625.037a1.1 1.1 0 0 1 .781.329c.207.21.323.495.322.792zm-251.589-7.312.131 35.985q0 1.67-1.664 1.67h-20.053c-.342 0-.671-.136-.913-.38a1.3 1.3 0 0 1-.378-.917l-.154-115.141q0-1.165 1.161-1.165h19.396q2.386 0 2.145 2.396l-.7 6.946q-.308 2.901 1.62.703c21.957-25.125 55.933-10.09 61.997 19.652 5.648 27.654-4.181 62.363-38.573 61.022-9.545-.373-16.988-3.517-22.286-11.298a.94.94 0 0 0-1.062-.388.94.94 0 0 0-.667.915m29.225-61.396c-32.028-15.673-41.682 49.02-10.858 52.647 27.036 3.166 28.021-44.271 10.858-52.647"/><path fill="#000" d="M600.666 174.189c-60.412-5.721-50.142-102.157 12.033-91.653 24.597 4.171 35.441 27.734 34.714 50.686q-.044 1.113-1.169 1.113h-61.646a.93.93 0 0 0-.882.627.9.9 0 0 0-.043.378c1.829 21.073 26.999 29.852 39.804 11.224q.53-.764 1.455-.764h20.277a1.04 1.04 0 0 1 .836.417 1.02 1.02 0 0 1 .155.915c-6.546 20.549-24.618 29.044-45.534 27.057m22.701-58.154c-6.877-22.908-34.801-21.641-39.342 1.092a1.15 1.15 0 0 0 .247.955 1.16 1.16 0 0 0 .899.421h36.344a1.95 1.95 0 0 0 1.549-.775 1.9 1.9 0 0 0 .303-1.693m186.266 47.814c-18.861 18.221-58.463 13.792-55.84-19.47 2.032-26.093 35.143-23.396 53.37-29.623q1.115-.372 1.508-1.469c6.688-17.782-26.663-20.545-30.597-3.64q-.306 1.338-1.683 1.338l-17.987-.022a1.26 1.26 0 0 1-1.221-.93 1.2 1.2 0 0 1-.025-.539q3.76-21.312 24.784-26.268c14.927-3.508 39.536-1.666 47.098 14.822q2.863 6.249 2.95 21.094c.088 15.348-2.513 37.845 2.514 52.075q.393 1.162-.831 1.162h-20.128q-1.377 0-1.683-1.36l-1.443-6.928q-.196-.834-.786-.242m-.612-35.038c-8.874 2.807-40.76 6.753-32.106 23.176 3.322 6.271 11.015 6.819 17.397 5.635 16.697-3.113 15.932-14.12 15.845-27.978q0-1.206-1.136-.833m60.563-33.94a.703.703 0 0 0 1.276.483c17.889-23.771 56.022-15.057 56.286 15.563q.264 28.841.154 59.549 0 1.756-1.76 1.756h-20.178q-1.143 0-1.166-1.141c-.022-12.446 3.279-58.211-4.973-65.52-8.119-7.156-21.058-3.732-25.854 5.224q-2.663 4.96-2.685 16.133l-.088 44.141q0 1.164-1.166 1.163h-20.816q-1.65 0-1.65-1.646v-85.34q0-1.362 1.364-1.361h20.486q1.495 0 1.386 1.492z"/><path fill="#000" d="M991.354 173.754c-67.257 10.002-71.28-87.998-13.732-91.893 31.328-2.123 47.078 23.416 46.358 51.56-.02.671-.36 1.007-1.03 1.007h-61.552a.745.745 0 0 0-.714.507.7.7 0 0 0-.029.302q2.34 20.288 22.368 21.644 10.823.744 16.268-9.848c.379-.744.989-1.116 1.839-1.116h20.22c1.11 0 1.5.533 1.16 1.598-4.93 15.144-15.31 23.89-31.156 26.239m-21.712-70.687c-5.346 3.636-7.959 9.826-8.506 14.203q-.153 1.291 1.137 1.291h36.143c.288.002.571-.066.827-.197a1.82 1.82 0 0 0 .967-1.352c.05-.287.02-.581-.07-.858-5.215-15.553-19.781-20.377-30.498-13.087m-288.97-6.56a.99.99 0 0 0 .763.993.984.984 0 0 0 1.122-.555q6.97-14.99 23.914-14.026a2.326 2.326 0 0 1 2.214 2.323l.022 17.423q0 1.183-1.184 1.139-24.68-.635-25.558 23.624-.329 8.832.022 43.436.022 1.358-1.337 1.358h-20.713q-1.206 0-1.206-1.227l-.044-85.73q0-1.25 1.228-1.25h19.815q1.27 0 1.227 1.271zm-263.415 44.947q.026.092.102.149a.283.283 0 0 0 .445-.149l16.978-56.02q.459-1.449 1.971-1.449l21.162.022a.678.678 0 0 1 .657.9 30133 30133 0 0 0-30.121 88.913c-8.544 25.41-17.394 27.188-43.068 27.626q-2.3.044-2.3-2.26v-14.877q0-1.47 1.467-1.536c11.501-.505 24.579-.702 19.563-17.686Q398 144.438 374.474 85.499q-.614-1.514 1.007-1.514h21.49q1.994 0 2.607 1.91z"/></svg>