<svg xmlns="http://www.w3.org/2000/svg" fill="none" viewBox="0 0 1024 127"><path fill="#000" fill-rule="evenodd" d="m951.276 73.186 16.125-44.442h3.919l16.141 44.442zm27.941-69.77h-19.661l-44.783 122.875h17.24l13.499-37.21h47.727l13.511 37.21H1024zM804.742 64.744V19.616h36.089c10.074 0 26.982 2.937 26.982 22.64 0 18.583-14.672 22.487-26.982 22.487zm79.308-22.486c0-19.335-13.366-38.84-43.226-38.84h-52.348V126.29h16.259v-45.2h31.277l27.454 45.201h19.602l-28.628-46.87c7.713-1.83 29.61-9.446 29.61-37.164M724.394 77.355c0 1.343-.361 32.782-31.491 32.782-28.975 0-31.432-25.1-31.484-32.782V0h-16.31v77.355c0 22.575 12.524 48.929 47.794 48.929S740.69 99.93 740.69 77.355V0h-16.296zM515.41 126.291h16.266V68.116h70.436V51.954h-70.436V19.778h79.307V3.409H515.41zM447.261 3.417v97.65h-3.69l-59.839-97.65h-21.926V126.29h16.945V31.733h3.705l57.108 94.558h24.649V3.417zm-218.564 0v15.165h36.222v92.543h-36.222v15.166h88.747v-15.166h-36.222V18.582h36.222V3.417zm-224.417 0V22.11l45.256-4.598h16.709V47.77l-28.135 8.5L0 65.341l5.66 18.28 36.525-13.852 24.06-7.255v49.682h-16.71l-45.254-4.605v18.7h138.216v-18.7l-45.263 4.605H80.525V62.515l23.941 7.217 36.65 13.889 5.654-18.28-38.008-9.048-28.237-8.516V17.52h16.709l45.263 4.59V3.417z" clip-rule="evenodd"/></svg>
