<svg xmlns="http://www.w3.org/2000/svg" fill="none" viewBox="0 0 1024 389"><path fill="#000" d="M622.851 162.933c8.364 0 14.646-3.503 18.943-8.314V135.53c-15.397.943-30.408 4.811-30.408 17.406 0 5.936 4.624 9.997 11.465 9.997m18.943-42.403v-8.679c0-7.437-4.297-11.873-13.74-11.873-9.442 0-19.463 3.907-31.699 9.814l-9.635-20.003c13.335-6.649 28.905-11.277 42.462-11.277 28.529 0 39.667 13.875 39.667 34.244v41.488c0 5.34 3.17 7.784 8.171 7.784v18.676c-18.74 0-26.535-2.781-32.104-12.22-8.315 8.881-17.575 13.875-30.929 13.875-17.44 0-29.676-10.526-29.676-26.267 0-21.688 20.561-32.964 57.483-35.562m52.01-39.805h25.591l1.282 11.47c7.265-7.554 17.805-13.865 30.254-13.865 22.257 0 31.7 13.682 31.7 36.119v65.697h-27.249v-66.457c0-8.9-3.728-14.99-12.988-14.99-8.353 0-15.58 4.243-21.524 11.642v69.805h-27.066M537.503 50.552v86.296c0 13.297-6.513 20.898-17.805 20.898-7.612 0-13.547-3.723-18.211-10.006l-18.595 16.809c9.596 11.575 22.575 17.848 38.27 17.848 27.065 0 44.341-15.375 44.341-45.029V50.552m-30.938 213.744c-14.231-3.608-26.535-6.735-26.535-17.29 0-8.794 8.43-14.73 20.966-14.73 11.774 0 23.895 2.886 35.11 8.303l9.751-20.706c-15.32-7.149-30.447-10.641-46.181-10.641-27.894 0-47.386 15.712-47.386 38.149 0 28.529 23.375 34.581 44.033 39.949 14.452 3.753 26.949 6.995 26.949 17.82 0 9.467-8.315 15.106-22.276 15.106-12.083 0-25.668-4.061-38.396-11.498l-12.603 20.667c13.846 8.467 33.829 13.874 51.182 13.874 30.755 0 49.871-14.769 49.871-38.525 0-29.278-24.656-35.484-44.485-40.478m66.424-3.425h-15.763v-19.243h15.763v-24.805h27.258v24.805h22.276v19.243h-22.276v49.455c0 7.38 2.785 11.094 9.105 11.094 5.01 0 9.635-1.655 13.509-4.426l10.02 16.26a48.36 48.36 0 0 1-29.098 10.007c-20.783 0-30.794-10.151-30.794-32.396m72.264-69.237h25.032l1.84 15.375c7.612-13.345 17.054-18.156 28.385-18.156 4.625 0 8.884.751 12.237 2.03l-3.922 24.805a37.9 37.9 0 0 0-13.325-2.213c-10.194 0-17.054 6.312-23.182 17.771v59.798h-27.065m290.865-80.167h-15.773v-19.243h15.773v-24.805h27.248v24.805h22.284v19.243h-22.284v49.455c0 7.38 2.794 11.094 9.064 11.094 5.01 0 9.64-1.655 13.56-4.426l10.01 16.26a48.37 48.37 0 0 1-29.098 10.007c-20.773 0-30.784-10.151-30.784-32.396M849.547 97.717c12.988 0 17.805 9.622 17.805 22.217h-40.236c2.601-14.433 11.292-22.217 22.431-22.217m-.752-19.618c-27.624 0-49.871 19.628-49.871 51.495 0 33.29 20.783 52.726 50.064 52.726a71 71 0 0 0 40.987-12.931l-11.33-17.242c-8.315 5.186-17.613 8.524-27.624 8.524-13.74 0-21.573-7.023-23.944-21.158h64.209c.723-4.243 1.811-8.678 1.811-16.048 0-26.681-15.734-45.366-44.302-45.366m48.176 180.559c12.949 0 17.767 9.622 17.767 22.207h-40.236c2.601-14.433 11.33-22.207 22.469-22.207m-.752-19.628c-27.624 0-49.91 19.628-49.91 51.495 0 33.3 20.783 52.774 50.103 52.774 14.828 0 28.712-4.474 40.949-12.97l-11.292-17.251c-8.364 5.196-17.613 8.534-27.634 8.534-13.778 0-21.602-7.024-23.933-21.167h64.169c.752-4.234 1.85-8.679 1.85-16.04 0-26.69-15.772-45.365-44.302-45.365m-103.356 19.618c12.988 0 17.806 9.622 17.806 22.207h-40.237c2.602-14.433 11.332-22.207 22.431-22.207m-.713-19.628c-27.624 0-49.91 19.628-49.91 51.495 0 33.3 20.783 52.774 50.064 52.774 14.867 0 28.751-4.474 41.027-12.97L822 313.078c-8.354 5.196-17.613 8.534-27.624 8.534-13.778 0-21.602-7.024-23.982-21.167h64.218c.752-4.234 1.831-8.679 1.831-16.04 0-26.651-15.763-45.365-44.293-45.365M62.436 271.657c26.689 45.481 76.213 76.039 132.714 75.885 84.5-.259 153.073-69.083 152.842-153.493-.222-84.411-69.18-152.888-153.709-152.666-84.5.22-153.074 69.112-152.842 153.493a154.5 154.5 0 0 0 3.083 29.991c.299 1.241 1.58 1.924 2.794 1.616l21.332-5.292a2.34 2.34 0 0 0 1.468-1.026 2.33 2.33 0 0 0 .305-1.764h.029a125 125 0 0 1-2.293-23.602C67.966 125.12 124.582 68.256 194.36 68.063c69.816-.192 126.759 56.383 126.914 126.063.221 69.68-56.424 126.543-126.201 126.736-46.22.106-86.793-24.66-108.954-61.646a2.45 2.45 0 0 0-3.17-1.049l-19.53 10.295a2.364 2.364 0 0 0-.983 3.195"/><path fill="#000" d="m275.391 227.532 19.463 10.411c1.156.606 2.698.269 3.16-.972a109.4 109.4 0 0 0 8.508-41.566c.52-61.568-49.235-112.043-110.881-112.572h-.944c-61.125 0-111.257 49.647-111.787 110.687-.481 61.568 49.236 112.082 110.881 112.573l.944.028c29.205 0 55.855-11.353 75.839-29.836.982-.866 1.165-2.367.26-3.349l-16.592-14.952c-.983-.865-2.447-.673-3.314.145l-.039-.039a84.57 84.57 0 0 1-56.154 21.351h-.713c-46.932-.414-84.76-38.824-84.384-85.69.376-46.454 38.541-84.267 85.059-84.267h.751c46.895.414 84.761 38.862 84.346 85.691a84.3 84.3 0 0 1-5.453 29.163 2.47 2.47 0 0 0 1.05 3.194"/><path fill="#000" d="M307.312 35.86c-1.06-.722-2.486-.53-3.199.558l-12.506 18.04c-.723 1.059-.607 2.521.453 3.272 42.78 30.481 70.789 80.388 70.751 136.771 0 92.531-75.386 167.772-168.047 167.772S26.709 286.994 26.709 194.424c0-92.492 75.394-167.772 168.094-167.743a167.3 167.3 0 0 1 57.425 10.112 2.365 2.365 0 0 0 2.987-1.347l7.862-20.6a2.32 2.32 0 0 0-1.281-2.935A193.3 193.3 0 0 0 194.813.002C87.391-.04.039 87.2 0 194.452c0 107.233 87.39 194.511 194.774 194.511 107.374 0 194.774-87.24 194.774-194.463 0-65.427-32.519-123.387-82.236-158.641"/></svg>
