<svg xmlns="http://www.w3.org/2000/svg" fill="none" viewBox="0 0 1024 309"><path fill="#000" d="M711.868 99.96a35.66 35.66 0 0 1 18.082 4.503 35.9 35.9 0 0 1 13.378 13.026l-10.931 8.465a29.2 29.2 0 0 0-9.008-8.764 21.9 21.9 0 0 0-11.528-3.121 18.5 18.5 0 0 0-10.341 2.895 9.9 9.9 0 0 0-3.418 3.889 10 10 0 0 0-1.012 5.095 10.44 10.44 0 0 0 1.032 4.825 12.1 12.1 0 0 0 2.808 3.563 20 20 0 0 0 4.283 2.825c1.675.844 3.492 1.759 5.462 2.747l10.931 5.052a84 84 0 0 1 9.899 5.349 34.5 34.5 0 0 1 7.386 6.161 25.7 25.7 0 0 1 4.577 7.355 24 24 0 0 1 1.629 9.058 27.1 27.1 0 0 1-2.52 11.805 25.55 25.55 0 0 1-6.943 8.909 32.4 32.4 0 0 1-10.415 5.641 40.4 40.4 0 0 1-12.929 2.003 41.1 41.1 0 0 1-21.708-5.719 42.4 42.4 0 0 1-15.066-15.524l11.078-8.462a47.5 47.5 0 0 0 4.658 5.942 33.5 33.5 0 0 0 5.684 4.975 26.8 26.8 0 0 0 6.863 3.418 26.1 26.1 0 0 0 8.351 1.261 19.2 19.2 0 0 0 12.184-3.636 11.94 11.94 0 0 0 3.545-4.437 12.06 12.06 0 0 0 1.113-5.584 11.5 11.5 0 0 0-1.032-4.974 11.5 11.5 0 0 0-2.956-3.791 27 27 0 0 0-4.51-3.045 95 95 0 0 0-5.831-2.894l-10.777-5.052a92 92 0 0 1-8.867-4.754 35 35 0 0 1-7.238-5.794 25.1 25.1 0 0 1-4.873-7.35 23 23 0 0 1-1.769-9.281c-.06-3.806.777-7.57 2.44-10.991a25.5 25.5 0 0 1 6.641-8.387 30.2 30.2 0 0 1 9.759-5.347 37.2 37.2 0 0 1 11.889-1.854m120.088 73.978 18.766-47.223 16.4.004-32.07 74.543h-5.321l-22.888-48.712-22.606 48.704h-5.321l-32.19-74.555 16.54.002 19.048 47.673 22.023-49.299h5.315zm71.21-48.844c4.115-.048 8.21.605 12.11 1.933a25.5 25.5 0 0 1 9.377 5.719 26.1 26.1 0 0 1 6.132 9.508 36.6 36.6 0 0 1 2.218 13.291l-.006 44.105-14.483-.002v-8.167a26.25 26.25 0 0 1-9.745 7.199 33.2 33.2 0 0 1-13.445 2.597 34.2 34.2 0 0 1-10.415-1.488 22.8 22.8 0 0 1-7.975-4.307 19.2 19.2 0 0 1-5.1-6.683 20.3 20.3 0 0 1-1.77-8.614 18.2 18.2 0 0 1 1.749-8.508 18.1 18.1 0 0 1 5.489-6.712 31.2 31.2 0 0 1 19.504-5.566l20.528.002.007-4.752c.248-2.108.02-4.246-.671-6.253a14 14 0 0 0-8.618-8.668 13.9 13.9 0 0 0-6.227-.675 21.23 21.23 0 0 0-11.072 2.82 37.6 37.6 0 0 0-9.161 8.019l-8.867-9.208a35.04 35.04 0 0 1 13.451-11.806 38.5 38.5 0 0 1 16.99-3.784m-4.598 64.155a20.6 20.6 0 0 0 7.245-1.261 18.6 18.6 0 0 0 5.978-3.564 16.5 16.5 0 0 0 4.068-5.494 16.25 16.25 0 0 0 1.475-6.906v-1.336l-18.612-.002a17.1 17.1 0 0 0-9.53 2.225 7.5 7.5 0 0 0-2.547 2.896 7.55 7.55 0 0 0-.777 3.787 8.13 8.13 0 0 0 .884 4.101 8.07 8.07 0 0 0 2.808 3.102 15.93 15.93 0 0 0 9.008 2.452m89.835-64.147a34.9 34.9 0 0 1 14.257 2.899 33.8 33.8 0 0 1 11.3 8.019 37.6 37.6 0 0 1 7.38 12.032 41.7 41.7 0 0 1 2.66 15.073c.04 5.17-.85 10.306-2.66 15.147a36.6 36.6 0 0 1-7.47 12.102 34.32 34.32 0 0 1-25.481 10.91 34.9 34.9 0 0 1-13.812-2.674 26.8 26.8 0 0 1-10.416-7.725l-.006 35.492-15.502-.002.013-99.646 14.329.002-.006 10.544a26.7 26.7 0 0 1 10.643-8.984 33.7 33.7 0 0 1 14.771-3.189m-2.513 14.255a23.2 23.2 0 0 0-7.909 1.409 20.3 20.3 0 0 0-7.017 4.308 21.5 21.5 0 0 0-5.02 7.348 26.9 26.9 0 0 0-1.923 10.692 27.9 27.9 0 0 0 1.843 10.694 21.6 21.6 0 0 0 4.953 7.427 19.7 19.7 0 0 0 7.01 4.38 23.6 23.6 0 0 0 8.056 1.414 22.1 22.1 0 0 0 8.639-1.706 21.2 21.2 0 0 0 7.088-4.828 22 22 0 0 0 4.73-7.498 28.82 28.82 0 0 0 .01-19.455 22.7 22.7 0 0 0-4.66-7.5 21.3 21.3 0 0 0-7.014-4.9 21.6 21.6 0 0 0-8.786-1.785m-670.291 60.188-15.657-.002.016-98.014 15.657.003zm19.952-52.123 45.048 52.133-19.353-.004-45.197-52.131 40.931-45.882 19.204.004z"/><path fill="#000" d="M415.021 207.882a36.74 36.74 0 0 1-11.011 15.293 25.74 25.74 0 0 1-15.735 4.75 52 52 0 0 1-6.056-.372 44 44 0 0 1-5.908-1.114v-13.217q2.66.293 4.729.445a57 57 0 0 0 3.985.148 18.75 18.75 0 0 0 8.939-2.076 17.4 17.4 0 0 0 6.876-8.612l2.951-6.831-28.94-69.655 16.69.004 20.676 53.168 21.578-53.162 16.542.002zm58.947-72.315a28.9 28.9 0 0 1 10.419-7.721 33.3 33.3 0 0 1 13.812-2.82 34.3 34.3 0 0 1 13.882 2.769 34.4 34.4 0 0 1 11.599 8.15 36.5 36.5 0 0 1 7.458 12.107 42.2 42.2 0 0 1 2.654 15.147 41.6 41.6 0 0 1-2.658 15.072 37.3 37.3 0 0 1-7.388 12.028 33.8 33.8 0 0 1-11.229 8.017 34.4 34.4 0 0 1-14.181 2.893 34.8 34.8 0 0 1-14.846-3.121 26 26 0 0 1-10.713-8.911v10.394l-14.325-.002.016-111.38 15.508.003zm21.718 3.715a23.6 23.6 0 0 0-8.054 1.409 19.8 19.8 0 0 0-7.016 4.381 21.6 21.6 0 0 0-4.949 7.425 27.9 27.9 0 0 0-1.848 10.691 27.45 27.45 0 0 0 1.919 10.767 21.4 21.4 0 0 0 5.023 7.427 19.3 19.3 0 0 0 7.012 4.233 24.3 24.3 0 0 0 7.905 1.338 21.7 21.7 0 0 0 8.789-1.781 21.45 21.45 0 0 0 7.021-4.9 22.8 22.8 0 0 0 4.655-7.497 28.8 28.8 0 0 0 .004-19.453 22.2 22.2 0 0 0-4.73-7.502 21.25 21.25 0 0 0-7.09-4.828 22.1 22.1 0 0 0-8.641-1.71m85.978-14.24a35.3 35.3 0 0 1 13.441 2.527 31.1 31.1 0 0 1 10.611 6.96 31.25 31.25 0 0 1 6.964 10.64 34.8 34.8 0 0 1 2.51 13.291 42 42 0 0 1-.373 5.644 30 30 0 0 1-.81 4.156l-54.069-.008a22.3 22.3 0 0 0 7.979 14.11 24.34 24.34 0 0 0 15.653 5.052 28 28 0 0 0 11.522-2.3 36.3 36.3 0 0 0 9.608-6.309l7.529 10.694a43.8 43.8 0 0 1-12.998 8.609 39.9 39.9 0 0 1-15.955 3.118 41.8 41.8 0 0 1-15.661-2.897 36.3 36.3 0 0 1-12.324-7.941 36.5 36.5 0 0 1-8.203-12.188 38 38 0 0 1-2.956-14.997 38.9 38.9 0 0 1 2.885-15 36.9 36.9 0 0 1 7.976-12.101 38.2 38.2 0 0 1 11.895-8.092 36.5 36.5 0 0 1 14.776-2.968m-.45 13.217a20.13 20.13 0 0 0-13.59 4.825 22.96 22.96 0 0 0-7.385 12.993l39.442.006a17.3 17.3 0 0 0-5.689-13.219 19.05 19.05 0 0 0-12.778-4.605m84.356-12.314a21.6 21.6 0 0 1 3.324.224 29 29 0 0 1 2.587.52l-.006 13.81-4.725-.002a26.5 26.5 0 0 0-8.197 1.264 19 19 0 0 0-6.796 3.785 18.05 18.05 0 0 0-4.584 6.31 21.5 21.5 0 0 0-1.702 8.836l-.007 38.909-15.502-.003.007-72.915 14.329.002-.007 9.802a25.2 25.2 0 0 1 9.39-7.872 27.04 27.04 0 0 1 11.889-2.67M92.12 154.403l114.728 66.162a6.06 6.06 0 0 0 8.227-2.214 6.16 6.16 0 0 0 .844-3.009l.019-121.837a6.1 6.1 0 0 0-.834-3.019 6.07 6.07 0 0 0-2.214-2.203 6.04 6.04 0 0 0-6.021-.004zm108.059-94.635L124.02 1.228a6.06 6.06 0 0 0-5.756-.853 6.1 6.1 0 0 0-2.477 1.705 6.14 6.14 0 0 0-1.366 2.688L86.574 135.101l112.988-65.238a6.03 6.03 0 0 0 3.049-4.878 6.03 6.03 0 0 0-2.432-5.217M123.97 307.677l76.354-58.604a6.1 6.1 0 0 0 1.831-2.308 6.12 6.12 0 0 0-.348-5.719 6.1 6.1 0 0 0-2.097-2.067L86.567 173.792l27.894 130.342a6 6 0 0 0 1.318 2.704 5.954 5.954 0 0 0 8.191.839"/><path fill="#000" d="m62.708 154.401 30.05-140.427a6.1 6.1 0 0 0-.34-3.63 6.04 6.04 0 0 0-2.353-2.773 5.985 5.985 0 0 0-6.904.38L6.278 66.999a16 16 0 0 0-4.61 5.64 16.1 16.1 0 0 0-1.644 7.11L0 229.298a16.1 16.1 0 0 0 1.641 7.111 16 16 0 0 0 4.609 5.641l76.864 58.983a6.04 6.04 0 0 0 6.85.296 6.1 6.1 0 0 0 2.347-2.73c.49-1.127.63-2.377.402-3.586z"/></svg>