<svg xmlns="http://www.w3.org/2000/svg" fill="none" viewBox="0 0 1024 274"><path fill="#000" d="M78.207 0C67.904 0 57.77 2.194 48.144 6.076c-9.458 4.05-18.071 9.789-25.334 17.215S9.805 39.324 5.921 48.944C2.036 58.564.01 68.86.179 79.154v26.161h63.334V67.341c0-1.857.338-3.544 1.013-5.232a13.2 13.2 0 0 1 2.871-4.388 13.2 13.2 0 0 1 4.392-2.87 13.8 13.8 0 0 1 5.235-1.012h2.365c1.689 0 3.547.337 5.236 1.013a13.2 13.2 0 0 1 4.39 2.869 13.2 13.2 0 0 1 2.872 4.388A13.7 13.7 0 0 1 92.9 67.34v101.602c8.276 0 16.552-1.688 24.321-4.895s14.693-7.932 20.604-13.839c5.912-5.907 10.641-12.996 13.681-20.591 3.209-7.763 4.897-16.033 4.897-24.303v-26.16c0-20.928-8.106-41.18-22.8-56.033-7.262-7.426-15.876-13.164-25.334-17.215C98.642 2.025 88.509 0 78.207 0"/><path fill="#000" d="M79.389 220.419h-2.365c-1.689 0-3.546-.338-5.235-1.013s-3.04-1.688-4.392-2.869a13.2 13.2 0 0 1-2.87-4.388 13.8 13.8 0 0 1-1.014-5.232V105.315c-8.276 0-16.551 1.688-24.32 4.894s-14.694 7.933-20.605 13.84-10.64 12.995-13.68 20.59C1.698 152.403.01 160.673.01 168.943v25.822c-.17 10.295 1.858 20.59 5.742 30.211s9.627 18.396 16.89 25.653c7.262 7.426 15.875 13.165 25.333 17.215s19.76 6.076 30.063 6.076 20.605-2.025 30.062-6.076c9.458-4.05 18.241-9.789 25.334-17.215 7.263-7.426 13.005-16.033 16.889-25.653 3.885-9.621 5.743-19.916 5.743-30.211v-25.822H92.731v37.974a13.7 13.7 0 0 1-1.013 5.232 13.2 13.2 0 0 1-2.871 4.388 13.2 13.2 0 0 1-4.391 2.869q-2.28 1.013-5.067 1.013M264.663 80.336h-22.294v113.248h65.193v-21.435h-43.068c.169.169.169-91.813.169-91.813m114.171 42.025c-3.209-3.882-7.094-7.088-11.654-9.114-4.56-2.025-9.627-3.038-14.524-2.7-5.236 0-10.303 1.013-15.201 3.207-4.729 2.194-8.951 5.232-12.498 9.282-7.431 8.27-11.484 19.072-11.484 30.379a45.96 45.96 0 0 0 11.484 30.38c3.378 3.882 7.769 7.088 12.498 9.282s9.965 3.207 15.201 3.207c11.315 0 20.098-3.882 26.178-11.814v9.62h20.773v-80.843h-20.773zm-6.249 47.426c-2.027 2.025-4.56 3.713-7.431 4.894-2.703 1.181-5.743 1.688-8.614 1.519-2.871.169-5.911-.506-8.613-1.519-2.703-1.181-5.236-2.7-7.263-4.894-4.053-4.557-6.249-10.296-6.249-16.372 0-6.075 2.196-11.982 6.249-16.371 2.027-2.025 4.56-3.713 7.263-4.894 2.702-1.181 5.742-1.688 8.613-1.519 3.04-.169 5.911.506 8.614 1.519 2.702 1.181 5.235 2.7 7.431 4.894 4.053 4.557 6.418 10.296 6.418 16.371-.169 5.908-2.365 11.815-6.418 16.372m80.561-2.701-20.942-54.345h-22.801l32.934 78.311c-1.351 4.726-4.053 8.776-7.769 11.983-3.884 2.7-8.613 3.882-13.342 3.544v19.409c9.12.844 18.409-1.687 25.84-7.088 6.925-5.232 12.498-13.671 16.72-25.148l29.387-81.011H470.88zm85.122-56.539c-5.743-.169-11.316.844-16.552 2.869s-9.964 5.232-14.018 9.283c-7.769 8.27-11.991 19.24-11.991 30.548s4.391 22.278 12.16 30.548c8.107 8.101 18.747 12.151 32.089 12.151 15.538 0 27.192-5.738 35.13-17.383l-16.72-9.789c-2.196 2.7-4.898 4.894-8.107 6.245s-6.587 2.025-9.965 1.856c-12.329 0-19.929-5.063-22.631-15.19h60.801c.506-2.869.844-5.738.844-8.607.338-11.308-3.884-22.278-11.484-30.379-3.716-4.051-8.276-7.258-13.343-9.283-5.404-2.025-10.809-3.038-16.213-2.869m-21.112 35.105c.845-4.726 3.547-8.945 7.262-11.983 4.054-3.038 8.952-4.557 13.85-4.219 4.56 0 8.951 1.35 12.666 4.05 3.885 3.038 6.587 7.426 7.263 12.321 0-.169-41.041-.169-41.041-.169m97.113-18.903V112.91h-20.774v80.842h20.774v-38.649c0-7.763 2.533-13.333 7.431-16.708 5.067-3.376 10.978-4.726 17.058-3.882v-23.291c-5.236 0-10.302 1.35-14.862 3.882s-7.938 6.751-9.627 11.645m125.655-28.86V80.336h-73.805v21.435h45.769l-46.952 74.091v17.89h76.002v-21.434h-47.797c-.169 0 46.783-74.43 46.783-74.43m49.992 12.658c-5.742-.169-11.316.844-16.551 2.869-5.236 2.025-9.965 5.232-14.018 9.283-7.769 8.27-11.992 19.24-11.992 30.548s4.392 22.278 12.161 30.548c8.106 8.101 18.747 12.151 32.089 12.151 15.538 0 27.192-5.738 35.129-17.383l-16.72-9.789c-2.195 2.7-4.898 4.894-8.107 6.245s-6.586 2.025-9.964 1.856c-12.329 0-19.929-5.063-22.632-15.19h60.801c.507-2.869.845-5.738.845-8.607.338-11.308-3.885-22.278-11.485-30.379-3.715-4.051-8.275-7.258-13.342-9.283-5.236-2.025-10.809-3.038-16.214-2.869m-21.111 35.105c.844-4.726 3.546-8.945 7.262-11.983 4.053-3.038 8.951-4.557 13.849-4.219 4.56 0 8.951 1.35 12.667 4.05 3.885 3.038 6.587 7.426 7.262 12.321zm97.112-18.903V112.91h-20.773v80.842h20.773v-38.649c0-7.763 2.534-13.333 7.432-16.708 5.066-3.376 10.978-4.726 17.058-3.882v-23.291c-5.236 0-10.303 1.35-14.863 3.882s-7.938 6.751-9.627 11.645m71.948-16.202c-9.795.169-19.085 3.544-26.685 9.958-7.431 6.244-12.498 15.02-14.355 24.641s-.338 19.577 4.391 28.185 12.16 15.358 21.111 19.071 19.085 4.051 28.374 1.182 17.396-8.945 22.8-17.047c5.405-8.101 7.769-17.89 6.756-27.678s-5.236-18.903-12.16-25.823c-3.885-4.05-8.614-7.257-13.849-9.282-5.236-2.363-10.809-3.376-16.383-3.207m15.538 58.733c-2.027 2.026-4.391 3.713-7.093 4.726s-5.574 1.688-8.445 1.519c-2.871 0-5.742-.506-8.444-1.519s-5.067-2.7-7.094-4.726a23.62 23.62 0 0 1-6.249-16.033 23.62 23.62 0 0 1 6.249-16.034c2.027-2.025 4.391-3.713 7.094-4.726 2.702-1.012 5.573-1.687 8.444-1.518 2.871 0 5.743.506 8.445 1.518s5.066 2.701 7.093 4.726a23.62 23.62 0 0 1 6.249 16.034 23.6 23.6 0 0 1-6.249 16.033m70.597-.506h-25.334v24.978H1024z"/></svg>