<svg xmlns="http://www.w3.org/2000/svg" fill="none" viewBox="0 0 1024 412"><path fill="#000" d="M594.679 264.61H491.841V102.904h-47.464v205.808h150.302zm30.949 44.102h47.463V102.904h-47.463zm82.913 0h45.119v-45.278h-45.119zm127.914-80.265h99.321v-40.574h-99.321v-43.22h107.819v-41.749H788.991v205.808h47.464zm140.082 80.265H1024V102.904h-47.463zm-846.234-29.653L8.161 307.297c-4.455 1.114-7.796 5.572-7.796 10.031v83.969c0 7.061 5.569 11.519 12.622 10.032l170.404-39.384c7.055-1.485 10.025-8.173 7.055-14.49l-30.814-63.534c-4.826-10.032 0-20.436 10.765-22.665l111.377-26.751c7.796-1.857 14.479-10.032 14.479-18.206v-77.653c0-7.059-5.57-11.889-12.623-10.032l-160.753 38.27c-10.023 2.229-14.479 11.89-10.023 21.178l28.215 58.332c4.826 10.032 0 20.064-10.766 22.665"/><path fill="#000" d="m49.748 69.136 31.927 65.392c4.085 8.546 0 17.463-9.281 19.321l-59.029 13.747C5.94 169.453 0 176.884 0 184.315v70.223c0 11.89 9.653 19.32 21.161 16.72l54.946-12.633c7.424-1.486 13.365-9.289 13.365-16.72l.37-72.08c0-10.032 8.168-20.064 17.821-22.293l180.057-43.099c4.455-1.115 7.796-5.573 7.796-10.032v-83.97c0-7.059-5.568-11.889-12.623-10.031L56.802 54.646c-7.054 1.486-10.024 8.174-7.054 14.49"/></svg>
