<svg xmlns="http://www.w3.org/2000/svg" fill="none" viewBox="0 0 1024 297"><path fill="#000" d="M268.564 292.051h-42.577V84.491h42.577zM422.413 80.417c23.505 0 42.706 8.255 57.584 24.768 14.856 16.512 22.305 37.506 22.305 62.961v123.883h-42.577V174.643c0-15.976-5.138-29.185-15.413-39.608-10.275-10.421-22.969-15.632-38.104-15.632-17.039 0-30.954 5.211-41.764 15.632-10.81 10.423-16.226 23.632-16.226 39.608v117.386H305.64V84.491h42.578v53.61c5.673-17.862 15.07-31.951 28.192-42.245 13.101-10.293 28.45-15.44 46.024-15.44zm212.631 0c33.244 0 60.281 11.922 81.088 35.747 20.807 23.846 29.327 52.668 25.538 86.528H570.16c2.976 16.792 10.682 30.409 23.12 40.83 12.437 10.423 27.421 15.634 44.997 15.634 13.506 0 25.602-3.324 36.284-9.951 10.681-6.626 18.987-15.633 24.937-27.019l35.686 15.847c-9.184 17.606-22.306 31.673-39.324 42.245-17.018 10.573-36.627 15.847-58.804 15.847-31.082 0-57.176-10.293-78.262-30.858s-31.639-46.169-31.639-76.771c0-30.601 10.34-56.249 31.018-76.985 20.679-20.715 46.281-31.073 76.849-31.073zm0 36.97c-15.691 0-29.263 4.803-40.758 14.431-11.495 9.607-19.138 22.132-22.905 37.571h127.326c-3.511-15.439-11.024-27.964-22.498-37.571-11.496-9.606-25.217-14.431-41.165-14.431m224.341-36.97q37.313 0 60.816 19.492c15.671 12.996 23.529 31.696 23.529 56.056v136.086h-42.581v-55.24c-12.715 39.543-38.253 59.314-76.635 59.314-17.853 0-32.71-5.339-44.611-16.04-11.902-10.701-17.832-24.704-17.832-42.031 0-20.308 7.15-35.554 21.492-45.698 14.321-10.143 32.581-16.447 54.737-18.892l40.137-4.075c15.134-1.351 22.712-8.127 22.712-20.308 0-10.014-3.853-18.012-11.559-23.953-7.707-5.962-17.768-8.942-30.205-8.942s-23.461 3.26-32.238 9.757q-13.165 9.746-16.826 28.435l-42.17-10.165c3.788-19.492 13.914-34.997 30.418-46.513 16.483-11.493 36.755-17.262 60.816-17.262zM838.3 261.578c17.575 0 32.43-5.897 44.589-17.67q18.239-17.659 18.239-41.237v-11.366c-3.232 5.426-11.089 8.793-23.526 10.143l-39.324 4.869c-10.275 1.372-18.452 4.396-24.532 9.135q-9.119 7.109-9.119 19.3 0 12.19 9.119 19.493c6.08 4.868 14.257 7.313 24.532 7.313zm-641.639 30.473H0V84.491h44.997v167.352H196.66zM983.869 80.417c22.161 0 40.131-18.002 40.131-40.209C1024 18.002 1006.03 0 983.869 0c-22.17 0-40.139 18.002-40.139 40.208 0 22.207 17.969 40.209 40.139 40.209"/></svg>
