<svg xmlns="http://www.w3.org/2000/svg" fill="none" viewBox="0 0 1024 224"><path fill="#000" d="m46.121 78.474-33.98-17.278a111.4 111.4 0 0 0-6.723 16.252l36.284 11.717a73 73 0 0 1 4.42-10.692m28.864-30.45 18.82 32.386a36.2 36.2 0 0 1 8.752-3.638l-9.74-36.162a73 73 0 0 1 7.53-1.614L94.363 1.382A112 112 0 0 0 77.26 5.496L88.9 41.119a74.4 74.4 0 0 0-10.78 4.479L61.013 12.249a112.4 112.4 0 0 0-14.964 9.204l22.48 30.76a75 75 0 0 1 6.457-4.19m100.997 26.832L143.566 93.67a36 36 0 0 1 3.648 8.734l36.207-9.746a73 73 0 0 1 1.619 7.516l37.657-5.989a112 112 0 0 0-4.13-17.082l-35.665 11.646a74 74 0 0 0-4.491-10.762l33.382-17.108a112.4 112.4 0 0 0-9.222-14.935l-30.792 22.465a74 74 0 0 1 4.204 6.447m-13.219-62.759A112 112 0 0 0 146.49 5.39l-11.713 36.242a74 74 0 0 1 10.709 4.41zm-13.54 35.263-19.036 32.994a36.6 36.6 0 0 1 7.559 5.779l53.391-53.502a113 113 0 0 0-13.372-11.377l-22.021 30.33a75 75 0 0 0-6.521-4.225M47.445 74.736l33.03 19.031a36.7 36.7 0 0 1 5.796-7.552l-53.55-53.34a113 113 0 0 0-11.398 13.348L51.68 68.23a75 75 0 0 0-4.236 6.507m76.162-36.382 5.761-37.024A113 113 0 0 0 112.047 0h-.088v75.536h.088c3.188 0 6.343.408 9.378 1.213l9.78-36.808a74 74 0 0 0-7.599-1.587m-46.753 64.157-36.85-9.793a74 74 0 0 0-1.595 7.589l-37.066-5.77A113 113 0 0 0 0 111.893h75.636c0-3.19.41-6.349 1.217-9.383m101.121 42.815 33.98 17.278a111.5 111.5 0 0 0 6.722-16.252l-36.283-11.717a73 73 0 0 1-4.419 10.691m-28.867 30.443-18.821-32.386a36 36 0 0 1-8.751 3.637l9.742 36.162a73 73 0 0 1-7.532 1.615l5.982 37.609a112 112 0 0 0 17.103-4.113l-11.639-35.624a74 74 0 0 0 10.779-4.478l17.108 33.348a112.5 112.5 0 0 0 14.963-9.203l-22.48-30.76a75 75 0 0 1-6.454 4.193M48.113 148.945l32.42-18.813a36 36 0 0 1-3.648-8.734l-36.207 9.745a73 73 0 0 1-1.62-7.516L1.4 129.616a111.6 111.6 0 0 0 4.13 17.082l35.666-11.646a74 74 0 0 0 4.49 10.763l-33.381 17.107a112 112 0 0 0 9.221 14.935l30.792-22.465a74 74 0 0 1-4.204-6.447m13.216 62.754a112 112 0 0 0 16.275 6.706l11.712-36.242a74 74 0 0 1-10.708-4.411zm13.54-35.258 19.037-32.994a36.6 36.6 0 0 1-7.56-5.779l-53.39 53.501a113 113 0 0 0 13.371 11.378l22.021-30.33a75 75 0 0 0 6.521 4.224m101.778-27.378-33.03-19.03a36.7 36.7 0 0 1-5.795 7.552l53.547 53.343a113 113 0 0 0 11.398-13.349l-30.358-22.005a75 75 0 0 0 4.238-6.511m-73.979-2.019-9.78 36.808a75 75 0 0 0 7.599 1.586l-5.758 37.023a113 113 0 0 0 17.321 1.331h.087v-75.535h-.087c-3.189 0-6.346-.409-9.382-1.213m45.79-35.142c0 3.19-.411 6.345-1.22 9.382l36.851 9.793a73 73 0 0 0 1.594-7.589l37.07 5.774a113 113 0 0 0 1.341-17.358zm181.664-42.838h-38.595v91.642h19.904V88.922h5.724l31.788 71.784h21.762zm347.399 91.642h19.904V69.064h-19.904z"/><path fill="#000" d="m411.283 69.064-40.579 91.642h21.758l31.788-71.784h5.724v71.784h19.904V69.064zm127.605 0h-36.414l-40.581 91.642h21.761l13.221-29.861h47.612l13.221 29.861h21.761zm-33.218 41.923 9.771-22.065h10.479l9.771 22.065zm131.271-41.923h-45.963v91.642h19.903V88.922h13.093l31.787 71.784h21.761zm71.54 0v19.858h46.443v71.784h19.907V88.922h46.439V69.064zm143.754 0h-19.907v91.642h86.62v-19.859h-66.713zM1024 88.922V69.064h-93.995v91.642H1024v-19.859h-74.087V123.49h64.227v-19.858h-64.227v-14.71z"/></svg>