<svg xmlns="http://www.w3.org/2000/svg" fill="none" viewBox="0 0 1024 176"><path fill="#000" fill-rule="evenodd" d="M40.838 151.114C21.661 136.756 9.246 113.831 9.246 88c0-43.485 35.187-78.737 78.589-78.737 35.822 0 74.94 21.448 84.4 54.295C161.666 26.852 127.886 0 87.836 0 39.326 0 0 39.4 0 88c0 48.602 39.327 88 87.835 88 48.511 0 87.836-39.398 87.836-88v-4.632h-4.827l-.643-.009q-5.311-.098-10.603-.554c-6.59-.574-14.106-1.693-19.225-3.742-8.235-3.296-12.885-7.664-18.198-12.776l-.307-.296c-5.322-5.12-11.302-10.875-21.664-15.76-10.207-4.814-21.495-4.041-29.791-2.331a75.4 75.4 0 0 0-10.38 2.942c-1.283.465-2.31.88-3.032 1.184-4.174 1.76-8.225 3.844-12.322 5.776 0 0 8.039 2.208 12.012 3.442q1.597.513 3.153 1.143a46.5 46.5 0 0 1 7.577 3.89c4.287 2.761 7.843 6.237 9.301 10.504-9.102 1.198-17.64 5.202-24.025 8.964a98 98 0 0 0-9.347 6.268 82 82 0 0 0-2.643 2.086c-.521.43-8.741 7.688-8.741 7.688s10.604 1.13 15.838 2.186c3.48.704 8.172 1.834 13.067 3.544 4.918 1.72 9.887 3.973 14.009 6.855 4.132 2.89 7.157 6.229 8.648 10.053 4.35 11.134.084 21.979-8.484 28.08-8.464 6.028-21.336 7.462-34.206-1.391m29.97 13.77a35.4 35.4 0 0 0 9.592-4.828c11.66-8.303 17.793-23.51 11.74-39.007-2.378-6.088-6.922-10.745-11.968-14.273-5.054-3.534-10.872-6.123-16.253-8.003a106 106 0 0 0-9.956-2.918 87 87 0 0 1 3.42-2.127c7.116-4.192 16.077-8.044 24.67-8.044 12.956 0 22.602 3.983 31.813 8.255q1.256.585 2.523 1.18c8.231 3.87 16.874 7.934 26.919 7.934 9.739 0 17.327-2.761 22.555-5.614-4.653 39.037-37.811 69.298-78.028 69.298a78.7 78.7 0 0 1-17.027-1.853m85.066-73.132c-3.461 1.183-7.658 2.038-12.565 2.038-7.878 0-14.647-3.163-23.243-7.178l-2.313-1.078c-8.605-3.992-18.56-8.224-31.52-8.99-1.738-8.597-8.243-14.47-13.811-18.058q-.915-.588-1.854-1.136c.555-.13 1.127-.26 1.708-.378 7.484-1.543 16.423-1.928 23.991 1.64 8.984 4.235 14.051 9.11 19.323 14.184l.182.174c5.424 5.219 11.162 10.69 21.171 14.695 5.563 2.225 12.759 3.421 18.931 4.087" clip-rule="evenodd"/><path fill="#000" d="M233.595 120.421V58.173h11.887l10.29 24.988 10.29-24.988h11.887v62.248h-9.315V72.579l-12.951 30.857-12.951-30.857v47.842zm58.423 0 19.515-62.248h12.597l19.515 62.248h-10.822l-4.524-15.028h-21.378l-4.436 15.028zm17.298-23.299h16.677l-8.339-27.656zm49.552 23.299V58.173h10.733l22.443 43.574-.176-43.574h9.047v62.248h-9.847l-23.33-44.997.178 44.997zm77.762 0V67.243h-19.249v-9.07h49.143v9.07h-19.249v53.178zm41.568 0 19.516-62.248h12.596l19.516 62.248h-10.822l-4.524-15.028h-21.379l-4.435 15.028zm17.298-23.299h16.677l-8.338-27.656zm112.944 23.299V58.173h21.822q6.299 0 10.911 2.49 4.701 2.4 7.274 6.758 2.573 4.357 2.573 10.138 0 5.513-2.573 9.87-2.573 4.358-7.274 6.848-4.612 2.4-10.911 2.4h-11.177v23.744zm10.645-32.547h9.492q5.677 0 8.693-2.846t3.016-7.558q0-4.624-3.016-7.47t-8.693-2.846h-9.492zm45.294 32.547 19.516-62.248h12.596l19.516 62.248h-10.823l-4.524-15.028h-21.378l-4.435 15.028zm17.298-23.299h16.677l-8.339-27.656zm71.285 24.277q-6.564 0-12.064-3.735t-8.782-10.849q-3.282-7.203-3.282-17.518t3.282-17.43q3.282-7.203 8.782-10.938t12.064-3.734q5.5 0 10.024 2.4 4.613 2.313 7.895 6.848 3.37 4.446 4.879 10.849l-9.581 2.757q-1.33-6.492-4.967-9.871-3.548-3.38-8.072-3.38-3.815 0-6.92 2.49-3.016 2.49-4.878 7.56-1.775 4.98-1.775 12.449 0 7.47 1.775 12.539 1.862 4.979 4.878 7.469 3.105 2.49 6.92 2.49 4.524 0 8.072-3.379 3.637-3.38 4.967-9.87l9.581 2.756q-1.509 6.314-4.879 10.849-3.282 4.536-7.895 6.936-4.524 2.313-10.024 2.312m40.415-.978v-9.07h15.613V67.243h-15.613v-9.07h41.87v9.07h-15.613v44.108h15.613v9.07zm64.546 0V58.173h40.893v9.07h-30.249V85.03h20.137v8.892h-20.137v26.5zm59.575 0v-9.07h15.613V67.243h-15.613v-9.07h41.87v9.07h-15.612v44.108h15.612v9.07zm83.702.978q-6.561 0-12.062-3.735t-8.782-10.849q-3.282-7.203-3.282-17.518t3.282-17.43q3.283-7.203 8.782-10.938t12.062-3.734c3.67 0 7.01.8 10.03 2.4q4.605 2.313 7.89 6.848c2.25 2.964 3.87 6.58 4.88 10.849l-9.58 2.757c-.89-4.328-2.54-7.618-4.97-9.871q-3.54-3.38-8.07-3.38-3.814 0-6.919 2.49-3.016 2.49-4.879 7.56-1.774 4.98-1.774 12.449 0 7.47 1.774 12.539 1.863 4.979 4.879 7.469 3.105 2.49 6.919 2.49 4.53 0 8.07-3.379c2.43-2.253 4.08-5.543 4.97-9.87l9.58 2.756c-1.01 4.209-2.63 7.826-4.88 10.849q-3.285 4.536-7.89 6.936c-3.02 1.542-6.36 2.312-10.03 2.312"/></svg>
