<svg xmlns="http://www.w3.org/2000/svg" fill="none" viewBox="0 0 1024 192"><path fill="#000" d="M95.848 191.696c52.935 0 95.848-42.913 95.848-95.848S148.783 0 95.848 0 0 42.913 0 95.848c0 23.529 8.478 45.078 22.546 61.758l24.27-22.533c25.622-23.705 26.159-24.242 26.647-25.364.75-1.7 1.212-3.513 1.366-5.365l-14.348-2.195c-16.447-2.439-16.105-2.292-16.105-4.78 0-2.487 0-2.487 14.885-4.682 6.979-.976 12.689-1.903 12.737-1.951L42.521 50.74c-.976-1.903 1.171-4.439 3.27-3.854.342.098 9.565 6.829 20.497 14.974 10.981 8.097 20.01 14.682 20.01 14.633L88.25 63.47c1.464-9.999 1.952-12.974 2.245-13.364 1.269-1.659 3.416-1.659 4.685.048.342.488.39.732 3.221 19.657l.976 6.829 20.058-14.877c14.495-10.73 20.254-14.877 20.693-14.925a2.928 2.928 0 0 1 3.221 3.414c-.098.293-6.1 8.584-14.836 20.34a2716 2716 0 0 0-14.739 19.997c-.048.144 1.869.474 4.606.945l.177.03c20.973 3.065 20.986 3.074 21.469 3.412l.004.003c1.757 1.317 1.757 3.415.049 4.731-.341.244-3.367.732-13.323 2.244l-13.031 1.951c-.097 0 6.442 8.877 14.446 19.705 16.886 22.779 15.178 20.389 15.178 21.364.049 1.951-2.245 3.512-3.904 2.683L119.24 132.78l-19.814-14.632-1.952 12.73c-2.14 14.877-2.148 14.877-4.612 14.877h-.024c-2.49 0-2.392.39-4.832-16.096l-2.147-14.34c-.098-.244-4.588.878-5.418 1.463-.615.263-39.81 42.522-47.644 51.257 16.852 14.731 38.91 23.657 63.05 23.657M250.478 49.881h20.998l28.122 68.623h1.11l28.122-68.623h20.999v94.704h-16.466V79.522h-.879l-26.179 64.785h-12.304l-26.179-64.923h-.878v65.201h-16.466zm148.749 96.091q-10.685 0-18.455-4.439-7.725-4.486-11.887-12.671-4.163-8.23-4.163-19.375 0-10.959 4.163-19.237 4.209-8.324 11.748-12.947 7.539-4.67 17.715-4.67 6.569 0 12.396 2.126 5.874 2.082 10.36 6.474 4.533 4.394 7.123 11.19 2.59 6.753 2.591 16.093v5.133h-58.233v-11.283h42.183q-.047-4.81-2.082-8.555-2.034-3.792-5.689-5.965-3.608-2.174-8.418-2.174-5.133 0-9.019 2.498a17.2 17.2 0 0 0-6.059 6.473q-2.128 3.978-2.174 8.74v9.85q0 6.197 2.266 10.635 2.266 4.393 6.337 6.752 4.07 2.312 9.528 2.312 3.654 0 6.614-1.018 2.96-1.063 5.134-3.098 2.174-2.034 3.284-5.04l15.634 1.757q-1.48 6.197-5.643 10.821-4.117 4.578-10.546 7.121-6.43 2.497-14.708 2.497m45.756-1.387V73.557h16.234v11.838h.74q1.943-6.15 6.661-9.48 4.764-3.375 10.869-3.375 1.387 0 3.099.138 1.758.093 2.914.324v15.399q-1.064-.37-3.376-.648a31 31 0 0 0-4.394-.323q-4.58 0-8.233 1.988-3.608 1.942-5.69 5.41-2.08 3.469-2.081 8v41.757zm68.384-94.704v94.704h-16.743V49.881zm17.218 94.704V73.557h16.744v71.028zm8.418-81.109q-3.978 0-6.845-2.636-2.868-2.682-2.868-6.427 0-3.791 2.868-6.428 2.867-2.682 6.845-2.682 4.024 0 6.846 2.682 2.867 2.636 2.867 6.428 0 3.746-2.867 6.427-2.822 2.636-6.846 2.636m42.287 39.491v41.618h-16.744V73.557h16.004v12.07h.832q2.452-5.966 7.817-9.48 5.411-3.515 13.367-3.515 7.355 0 12.812 3.145 5.504 3.144 8.511 9.11 3.053 5.964 3.006 14.473v45.225h-16.743V101.95q0-7.122-3.701-11.145-3.654-4.023-10.129-4.023-4.394 0-7.817 1.942-3.376 1.897-5.319 5.503-1.896 3.607-1.896 8.74m176.755-21.133h-17.298q-.74-4.254-2.729-7.537-1.99-3.33-4.949-5.642-2.961-2.312-6.753-3.468-3.747-1.202-8.095-1.202-7.724 0-13.69 3.884-5.967 3.838-9.344 11.283-3.375 7.4-3.376 18.08 0 10.868 3.376 18.313 3.423 7.398 9.344 11.19 5.966 3.746 13.644 3.746 4.256 0 7.956-1.11 3.746-1.156 6.706-3.376a19.8 19.8 0 0 0 5.042-5.456q2.081-3.237 2.868-7.399l17.298.093a37.2 37.2 0 0 1-4.209 12.67q-3.19 5.92-8.372 10.451-5.18 4.485-12.118 7.028-6.937 2.498-15.402 2.498-12.489 0-22.294-5.781t-15.448-16.693q-5.643-10.913-5.643-26.173 0-15.306 5.689-26.173 5.689-10.914 15.495-16.693t22.201-5.78q7.91 0 14.708 2.219 6.8 2.22 12.119 6.52 5.32 4.255 8.741 10.45 3.47 6.15 4.533 14.058m31.718 21.133v41.618H773.02V49.881h16.373v35.745h.833q2.498-6.011 7.724-9.48 5.272-3.513 13.413-3.514 7.4 0 12.905 3.098 5.504 3.099 8.51 9.064 3.053 5.965 3.053 14.566v45.225h-16.743V101.95q0-7.168-3.701-11.145-3.654-4.023-10.268-4.023-4.44 0-7.955 1.942-3.47 1.897-5.458 5.503-1.943 3.607-1.943 8.74m83.579 43.051q-6.753 0-12.164-2.404-5.365-2.451-8.511-7.214-3.099-4.763-3.099-11.746 0-6.01 2.22-9.942a17.2 17.2 0 0 1 6.059-6.288q3.84-2.36 8.65-3.561a70.4 70.4 0 0 1 10.037-1.804q6.244-.647 10.129-1.156 3.885-.555 5.643-1.664 1.803-1.156 1.804-3.561v-.277q0-5.225-3.099-8.093-3.1-2.867-8.927-2.867-6.152 0-9.759 2.682-3.562 2.682-4.811 6.335l-15.633-2.22q1.85-6.473 6.105-10.82 4.256-4.392 10.407-6.566 6.152-2.22 13.598-2.22 5.134 0 10.222 1.203 5.088 1.202 9.297 3.976 4.209 2.729 6.753 7.445 2.59 4.717 2.59 11.792v47.537h-16.096v-9.757h-.555q-1.526 2.959-4.301 5.549-2.73 2.543-6.892 4.115-4.116 1.526-9.667 1.526m4.348-12.3q5.042 0 8.742-1.989 3.7-2.034 5.689-5.364 2.035-3.329 2.035-7.26v-8.369q-.787.647-2.683 1.202-1.85.555-4.162.971-2.313.416-4.58.74-2.265.324-3.931.555-3.746.509-6.707 1.664-2.96 1.156-4.671 3.237-1.712 2.035-1.712 5.272 0 4.624 3.377 6.983t8.603 2.358m49.999 10.867V73.557h16.744v71.028zm8.418-81.109q-3.977 0-6.845-2.636-2.868-2.682-2.868-6.427 0-3.791 2.868-6.428 2.868-2.682 6.845-2.682 4.024 0 6.846 2.682 2.867 2.636 2.867 6.428 0 3.746-2.867 6.427-2.822 2.636-6.846 2.636m42.287 39.491v41.618H961.65V73.557h16.004v12.07h.832q2.452-5.966 7.817-9.48 5.412-3.515 13.367-3.515 7.35 0 12.81 3.145c3.67 2.096 6.51 5.132 8.51 9.11 2.04 3.976 3.04 8.8 3.01 14.473v45.225h-16.74V101.95c0-4.748-1.24-8.463-3.7-11.145q-3.66-4.023-10.134-4.023-4.394 0-7.817 1.942-3.376 1.897-5.319 5.503-1.896 3.607-1.896 8.74"/></svg>