<svg xmlns="http://www.w3.org/2000/svg" fill="none" viewBox="0 0 1024 253"><path fill="#000" d="M550.673 126.059c0 69.752-53.806 126.059-120.223 126.059s-119.383-56.307-119.383-126.059C311.067 56.306 364.033 0 430.45 0c67.258 0 120.223 56.306 120.223 126.059M193.366 0l-50.443 144.547v42.02h-16.815v-42.02L79.868 0H0v252.118h52.966V126.059L31.947 54.626l15.133-5.043 68.098 202.535h40.355l68.939-202.535 15.133 5.043-21.018 72.273v125.219h52.965V0h-79.028zm580.099 28.573c-12.611-10.084-26.903-16.807-44.559-21.85A226.3 226.3 0 0 0 674.259 0h-79.868v252.118h86.594a159.8 159.8 0 0 0 51.284-8.404 115.18 115.18 0 0 0 62.816-43.991 115.1 115.1 0 0 0 21.257-73.664c0-22.691-4.204-42.02-11.771-58.828-7.566-15.127-16.814-28.573-30.266-38.658zM755.81 159.675a62.2 62.2 0 0 1-18.496 24.371c-8.408 5.883-16.815 10.085-26.904 12.606-10.929 2.521-21.858 4.202-34.469 4.202h-28.585V51.264h31.107c11.77 0 21.859 1.68 31.947 4.202 10.089 3.361 19.337 8.404 26.063 13.446 8.407 5.883 13.451 13.446 18.496 22.69a88.2 88.2 0 0 1 0 68.073zm152.17 41.179V149.59h104.25V98.326H907.98V50.424H1024V0H855.855v252.118H1024v-51.264z"/></svg>
