<svg xmlns="http://www.w3.org/2000/svg" fill="none" viewBox="0 0 1024 176"><path fill="#000" d="M159.884 132.259c.029-3.928 14.981-3.759 14.879-7.431-.073-2.831-6.695-2.765-4.614-8.755 3.066-8.923 4.731-18.504 4.731-28.473 0-48.382-39.161-87.6-87.44-87.6C39.146 0 0 39.218 0 87.6a87.5 87.5 0 0 0 4.95 29.109c1.241 3.972-4.935 5.53-4.935 7.9 0 3.715 13.01 3.218 13.01 7.533 0 3.774-12.857 4.93-12.857 8.733 0 5.244 28.48 3.416 28.838 7.928.284 3.489-9.783 3.694-9.849 7.417-.095 5.939 38.876 3.993 38.876 7.95 0 2.991-17.726 1.909-17.726 5.442 0 3.532 23.333 5.778 49.046 5.778s43.46-2.867 43.46-5.969c0-3.093-16.557-2.45-16.214-5.251.598-4.878 37.335-2.384 37.335-8.023 0-2.977-10.104-3.672-9.783-6.876.468-4.534 30.729-3.854 30.729-8.557 0-3.694-14.988-4.608-14.974-8.44zm-23.435-11.381c-.803 2.992 8.411 3.438 8.411 6.561 0 3.796-28.093 2.282-27.816 7.307.175 3.159 19.96 3.693 19.58 6.999-.54 4.784-30.633 2.399-30.932 6.978-.219 3.364 14.688 3.474 14.718 6.539.029 2.581-11.711 3.986-34.167 3.986-25.604 0-38.037-1.383-36.628-4.264 1.322-2.692 23.983-2.195 23.757-6.429-.234-4.228-40.242-2.977-41.453-7.08-1-3.409 13.148-4.111 13.06-7.351-.095-3.299-18.127-2.552-18.521-6.546-.256-2.633 9.425-2.457 9.009-5.763-.307-2.399-4.308-2.063-6.673-7.022a64.81 64.81 0 0 1 4.18-62.045A64.64 64.64 0 0 1 56.38 30.832a64.5 64.5 0 0 1 31.038-7.954 64.5 64.5 0 0 1 30.484 7.65 64.64 64.64 0 0 1 23.272 21.157 64.8 64.8 0 0 1 10.554 29.655 64.8 64.8 0 0 1-4.664 31.135c-3.029 6.889-9.856 5.507-10.637 8.411h.015zm201.288 15.591V39.332h-21.522l-29.15 81.873-28.882-81.873h-21.522v97.137h14.307v-80.07l28.456 80.07h15.13l28.882-80.765v80.765zm310.855 0V39.332h-14.435v76.465l-45.121-76.46h-19.163v97.126h14.441V57.647l46.364 78.822zm103.361.006h65.941v-13.053h-51.086V93.455h45.536V80.41h-45.536V52.38h50.532V39.325h-65.387zm272.047-.006V39.332h-21.52l-29.158 81.873-28.876-81.873h-21.522v97.137h14.301v-80.07l28.462 80.07h15.13l28.883-80.765v80.765z"/><path fill="#000" fill-rule="evenodd" d="M507.703 37.529a50.2 50.2 0 0 0-35.486 14.693 50.156 50.156 0 0 0 .001 70.945 50.2 50.2 0 0 0 70.976 0 50.16 50.16 0 0 0 10.879-54.672 50.2 50.2 0 0 0-10.88-16.276 50.2 50.2 0 0 0-35.49-14.69m26.335 23.84c-7.031-7.03-16.378-10.903-26.335-10.903a37 37 0 0 0-26.329 10.909c-7.032 7.028-10.907 16.378-10.907 26.318a37 37 0 0 0 10.907 26.325 37 37 0 0 0 26.329 10.903 37 37 0 0 0 26.335-10.903 37 37 0 0 0 10.907-26.325 36.98 36.98 0 0 0-10.907-26.325M400.272 37.529a50.2 50.2 0 0 0-35.489 14.69 50.154 50.154 0 0 0-.002 70.948 50.2 50.2 0 0 0 35.488 14.694 50.2 50.2 0 0 0 35.488-14.694 50.17 50.17 0 0 0 14.7-35.474 50.16 50.16 0 0 0-14.699-35.471 50.2 50.2 0 0 0-35.486-14.693m26.329 23.84c-7.031-7.03-16.378-10.903-26.329-10.903a37 37 0 0 0-26.335 10.909c-7.032 7.028-10.907 16.378-10.907 26.318a37 37 0 0 0 10.907 26.325 37 37 0 0 0 26.335 10.903c4.893.013 9.74-.944 14.26-2.815a37 37 0 0 0 12.075-8.088 37 37 0 0 0 10.907-26.325 36.97 36.97 0 0 0-10.913-26.324m281.498 75.1c18.877 0 31.235-10.817 31.235-26.922 0-11.243-5.966-19.57-15.965-23.45 8.47-4.02 13.326-11.657 13.326-21.366 0-15.13-12.217-25.4-30.399-25.4h-40.679v97.138zm-2.224-84.51h-25.403v28.724h25.403c9.719 0 16.099-5.83 16.099-14.296s-6.38-14.429-16.099-14.429m1.383 41.082c10.56 0 17.22 5.963 17.22 15.258l-.006.012c0 9.155-6.52 15.398-17.073 15.398h-26.927V93.041zm184.219 21.648h-44.554l-8.33 21.787h-15.55l38.455-97.137h15.684l38.315 97.137h-15.684zm-22.192-58.564 17.628 46.346v.006h-35.262z" clip-rule="evenodd"/></svg>