<svg xmlns="http://www.w3.org/2000/svg" fill="none" viewBox="0 0 1024 154"><path fill="#000" d="M319.36 24.08h15.808v108.869h-15.712L253.16 44.816v88.133h-15.712V24.079h19.16l62.752 81.892zm29.7 0h80.476v15.456h-64.668v29.57h59.877v15.456h-59.877v33.026h64.668v15.456H349.06zm83.732 54.435c0-31.01 22.706-56.74 56.429-56.74 34.011 0 56.62 25.634 56.62 56.74 0 31.201-22.705 56.546-56.62 56.546-33.627 0-56.429-25.345-56.429-56.546m97.146 0c0-22.562-16.095-41.283-40.717-41.283-24.334 0-40.525 18.721-40.525 41.283 0 22.464 16.095 41.281 40.525 41.281 24.813 0 40.717-18.912 40.717-41.281M637.719 24.08h15.709v108.869h-15.709l-66.298-88.133v88.133h-15.712V24.079h19.257l62.753 81.892zm64.667 0h80.476v15.456h-64.668v29.57h59.878v15.456h-59.878v33.026h64.668v15.456h-80.476zm180.303 0h17.147l-46.748 108.869h-17.534l-46.753-108.87h17.533l38.414 89.861zM1024 132.949h-15.71V48.464l-36.503 84.485h-13.603l-36.215-84.005v84.005h-15.71V24.079h21.746l37.457 86.788 37.268-86.788H1024zM7.752 1.31l64.2 64.158V4.7c0-.484 0-1.21.243-1.695.242-.484.484-.968.969-1.452.484-.484.969-.726 1.453-.968.485-.243 1.211-.243 1.696-.243h72.679c.484 0 1.211.243 1.696.243.484.242.969.484 1.453.968s.727.968.969 1.452c.243.485.243 1.211.243 1.695v144.294c0 .728 0 1.212-.243 1.695-.242.485-.484.969-.969 1.453-.481.482-.963.723-1.445.965l-.008.004c-.485.242-1.212.242-1.696.242-.727 0-1.211 0-1.938-.242-.485-.243-1.212-.484-1.454-.969L81.4 87.984v61.01c0 .485 0 1.212-.242 1.695-.242.485-.484.969-.969 1.453-.482.482-.963.723-1.445.965l-.008.004c-.485.242-1.212.242-1.696.242H4.36c-.484 0-1.21-.242-1.695-.242l-.008-.004c-.482-.242-.964-.483-1.446-.965-.484-.484-.726-.968-.969-1.453C0 150.206 0 149.479 0 148.994V76.848c0-.484 0-.727.242-1.211V4.7c0-.968.243-1.695.727-2.663C1.454 1.311 2.18.584 3.149.342 3.876.1 4.845-.142 5.814.1 6.3.342 7.268.827 7.752 1.31"/></svg>
