<svg xmlns="http://www.w3.org/2000/svg" fill="none" viewBox="0 0 1024 232"><path fill="#000" d="M46.622 115.738c0-52.468 29.612-80.553 65.208-80.553s65.208 28.085 65.208 80.553c0 52.777-29.611 80.864-65.208 80.864s-65.208-28.087-65.208-80.864m177.039 0C223.661 46.295 179.873 0 111.83 0S0 46.295 0 115.738s43.787 116.048 111.83 116.048 111.831-46.605 111.831-116.048m168.603 112.036 56.073-168.207v168.207h41.897V4.012h-66.153l-53.867 174.38-55.443-174.38h-65.523v223.762h41.897V59.567l56.388 168.207zm324.948 0V4.012h-42.526v170.676L583.331 4.012h-58.593v223.762h42.527V57.098l91.354 170.676zM796.977 4.012h-45.046v223.762h45.046zm11.238 223.762h45.992l16.065-45.37h88.835l16.069 45.37H1024L938.631 4.012h-45.362zM914.69 58.024l31.501 88.269h-63.003z"/></svg>