<svg xmlns="http://www.w3.org/2000/svg" fill="none" viewBox="0 0 1024 244"><path fill="#000" d="M141.461 237.183a204.8 204.8 0 0 0 73.592-99.129c1.385-4.012 1.986-6.504 0-8.021-1.794-1.371-43.764-12.159-68.871-19.105-3.599 21.042 4.899 42.621-6.571 63.637-10.412 19.077-43.44 33.551-50.81 36.953 10.68 10.189 22.175 19.633 33.036 26.754 4.694 3.127 6.893 4.758 9.103 4.774 2.411.017 4.834-1.886 10.521-5.863"/><path fill="#000" d="M101.72 100.777c-2.167 1.084-3.324 1.874-2.233 22.571q.95 13.336 1.635 26.688c.279 6.42.415 9.55-.839 11.955-1.193 2.289-3.644 3.922-8.428 7.109l-1.154.73c-20.633 13.074-21.722 13.764-22.287 15.61-.574 1.879 0 4.357 2.18 7.08a286 286 0 0 0 15.289 16.178s39.464-17.187 50.303-37.924c10.838-20.738 1.842-40.2 5.852-61.001-23.44-5.991-38.15-10.08-40.318-8.996M105.514.117s-7.262.324-8.753 1.77c-1.491 1.447-2.18 2.724-1.635 20.153.769 15.249 1.586 33.006 2.27 48.258.127 3.901.204 6.263 1.308 7.954 1.693 2.595 5.801 3.614 16.208 6.196 20.922 5.532 45.965 12.211 66.835 17.936 11.228 3.012 16.252 4.36 18.965 2.442 2.198-1.554 4.529-14.158 4.529-14.158a253 253 0 0 0 3.129-29.549c-12.141-8.776-50.616-5.85-73.593-12.894C111.8 41.182 105.514.117 105.514.117"/><path fill="#000" d="M207.967 30.755c-.546-12.527-1.091-13.072-9.813-16.34C174.271 5.077 141.487-.416 109.693.025c1.141 6.697 7.536 38.084 28.035 44.368 22.091 6.771 57.351 4.099 70.827 11.682a253 253 0 0 0-.588-25.32M83.133 141.322a3083 3083 0 0 1-2.726-61.547l-2.18-47.93q-.817-8.17-9.813-6.537a245.5 245.5 0 0 0-41.91 11.678c6.106 1.506 33.372 9.252 37.121 28.246 4.227 21.41-8.02 46.05-9.212 68.696-1.098 20.847 4.421 33.313 5.305 35.162 4.895-3.102 12.09-7.634 12.09-7.634s9.32-5.851 10.9-9.203c.913-1.938.624-6.783.425-10.931"/><path fill="#000" d="M21.193 39.059S2.433 46.6 1.357 50.177c-1.617 5.379-1.994 25.89.007 38.312 3.816 28.323 15.809 61.547 30.527 86.602 2.726 4.357 4.584 5.868 7.402 5.977s3.671-.706 16.04-9.177c0 0-6.828-13.47-5.636-36.116s13.44-47.286 9.212-68.696c-4.226-21.41-37.716-28.02-37.716-28.02"/><path fill="#000" fill-rule="evenodd" d="M389.745 131.603q0 20.062-7.511 34.366-7.45 14.244-20.354 21.82-12.843 7.576-29.137 7.576-16.296 0-29.198-7.576-12.843-7.637-20.354-21.881-7.452-14.304-7.451-34.305 0-20.062 7.451-34.306 7.51-14.304 20.354-21.88 12.902-7.576 29.198-7.576 16.294 0 29.137 7.576 12.903 7.576 20.354 21.88 7.512 14.244 7.511 34.306m-27.017-23.82q4.422 9.698 4.422 23.82t-4.422 23.88q-4.362 9.699-12.115 14.729-7.754 4.97-17.87 4.97t-17.871-4.97q-7.753-5.03-12.176-14.729-4.36-9.757-4.361-23.88t4.361-23.82q4.423-9.759 12.176-14.728 7.754-5.031 17.871-5.031t17.87 5.03q7.753 4.97 12.115 14.729" clip-rule="evenodd"/><path fill="#000" d="M410.023 193.668V100.57h20.96v15.82h1.09q2.908-8.001 9.632-12.486 6.724-4.546 16.053-4.546 9.45 0 15.932 4.607 6.542 4.545 9.207 12.425h.97q3.089-7.758 10.419-12.365 7.39-4.667 17.507-4.667 12.842 0 20.959 8.122 8.118 8.121 8.117 23.699v62.489H518.88v-59.095q0-8.667-4.604-12.668-4.604-4.06-11.267-4.061-7.936 0-12.418 4.97-4.422 4.91-4.422 12.789v58.065h-21.505v-60.004q0-7.213-4.362-11.516-4.3-4.304-11.267-4.304-4.725 0-8.602 2.425-3.877 2.363-6.179 6.728-2.302 4.302-2.302 10.061v56.61zm175.022-54.549v54.549h-21.929V100.57h20.96v15.82h1.09q3.211-7.82 10.238-12.425 7.087-4.607 17.506-4.607 9.633 0 16.78 4.122 7.209 4.12 11.146 11.94 3.999 7.818 3.938 18.971v59.277h-21.929v-55.883q0-9.334-4.846-14.607-4.787-5.273-13.266-5.273-5.755 0-10.238 2.546-4.422 2.484-6.966 7.212-2.484 4.727-2.484 11.456m82.021 54.549V100.57h21.929v93.098zm11.025-106.311q-5.21 0-8.965-3.454-3.756-3.516-3.756-8.425 0-4.97 3.756-8.425 3.756-3.516 8.965-3.516 5.27 0 8.966 3.516 3.755 3.454 3.755 8.425 0 4.909-3.755 8.425-3.696 3.454-8.966 3.454m106.994 37.821-19.99 2.182q-.848-3.03-2.969-5.697-2.059-2.667-5.573-4.304-3.513-1.636-8.602-1.636-6.845 0-11.509 2.97-4.605 2.97-4.544 7.697-.06 4.062 2.969 6.607 3.089 2.546 10.177 4.182l15.871 3.394q13.206 2.849 19.627 9.031 6.482 6.183 6.542 16.183-.06 8.788-5.149 15.517-5.028 6.666-13.993 10.425-8.966 3.757-20.596 3.757-17.083 0-27.502-7.152-10.42-7.212-12.419-20.062l21.384-2.06q1.454 6.303 6.179 9.515t12.297 3.213q7.815 0 12.539-3.213 4.786-3.212 4.786-7.94 0-4-3.089-6.606-3.03-2.607-9.451-4l-15.871-3.334q-13.387-2.788-19.808-9.395-6.421-6.666-6.361-16.849-.06-8.607 4.665-14.911 4.785-6.363 13.266-9.818 8.542-3.516 19.687-3.516 16.356 0 25.746 6.97 9.45 6.97 11.691 18.85m60.668 70.308q-13.933 0-23.928-6.121-9.935-6.121-15.326-16.911-5.331-10.848-5.331-24.971 0-14.183 5.452-25.032 5.452-10.911 15.386-16.971 9.996-6.122 23.625-6.122 11.328 0 20.051 4.182 8.784 4.122 13.994 11.698 5.21 7.516 5.936 17.577h-20.959q-1.273-6.728-6.058-11.213-4.725-4.546-12.661-4.546-6.724 0-11.812 3.637-5.088 3.576-7.936 10.304-2.786 6.728-2.786 16.122 0 9.516 2.786 16.365 2.787 6.789 7.815 10.486 5.088 3.636 11.933 3.636 4.847 0 8.663-1.818 3.876-1.88 6.481-5.394 2.605-3.516 3.575-8.546h20.959q-.787 9.88-5.815 17.516-5.028 7.576-13.691 11.88-8.662 4.242-20.353 4.242m57.866-1.818V100.57h21.928v93.098zm11.025-106.311q-5.21 0-8.966-3.454-3.755-3.516-3.755-8.425 0-4.97 3.755-8.425 3.756-3.516 8.966-3.516 5.27 0 8.965 3.516 3.756 3.454 3.756 8.425 0 4.909-3.756 8.425-3.695 3.454-8.965 3.454"/><path fill="#000" fill-rule="evenodd" d="M974.872 195.547q-8.844 0-15.932-3.152-7.026-3.212-11.146-9.455-4.058-6.243-4.058-15.395 0-7.88 2.907-13.031 2.908-5.153 7.936-8.243 5.028-3.092 11.328-4.667a92 92 0 0 1 13.145-2.364q8.178-.849 13.266-1.515 5.089-.728 7.391-2.182c1.571-1.011 2.361-2.566 2.361-4.667v-.364q.002-6.85-4.058-10.607-4.057-3.758-11.691-3.758-8.057 0-12.782 3.516-4.664 3.515-6.299 8.303l-20.476-2.909q2.423-8.486 7.997-14.183 5.572-5.758 13.629-8.607 8.058-2.909 17.81-2.909 6.724 0 13.387 1.576 6.666 1.576 12.173 5.213 5.52 3.575 8.85 9.758 3.39 6.182 3.39 15.455v62.308h-21.08v-12.789h-.73q-1.996 3.88-5.631 7.274-3.575 3.333-9.026 5.394-5.392 2-12.661 2m17.143-18.729q-4.846 2.607-11.449 2.607-6.845 0-11.267-3.092-4.422-3.09-4.422-9.152 0-4.242 2.241-6.909 2.242-2.728 6.119-4.243t8.783-2.182q2.18-.303 5.149-.727t5.997-.97q3.03-.546 5.452-1.273c1.652-.485 2.832-1.01 3.512-1.576v10.971q-.001 5.151-2.664 9.516-2.604 4.363-7.451 7.03" clip-rule="evenodd"/></svg>