<svg xmlns="http://www.w3.org/2000/svg" fill="none" viewBox="0 0 1024 162"><path fill="#000" d="M146.802 161.684v-41.973H101.6c-12.17 0-23.595 6.457-30.052 17.137l-14.654 24.836zM4 0v41.973h118.965L147.802 0zm54.613 66.561L.248 161.684h49.921l70.038-113.75H92.639a39.74 39.74 0 0 0-34.026 18.627m187.266 58.117c-24.34 0-42.222-17.882-42.222-42.221 0-23.843 18.131-42.222 42.47-42.222 24.34 0 42.47 18.379 42.47 42.222 0 23.842-18.379 42.221-42.718 42.221m.248-14.902c15.399 0 26.575-11.673 26.575-27.32s-10.928-27.32-26.575-27.32-26.575 11.922-26.575 27.32c0 15.647 10.928 27.32 26.575 27.32m58.614 39.987V62.091h14.653v7.699h.745c1.491-2.484 7.203-9.19 18.131-9.19 16.889 0 28.562 12.667 28.562 31.791s-11.425 32.287-28.065 32.287a20.62 20.62 0 0 1-18.379-9.438h-.745v34.523zm31.045-38.993c9.686 0 16.144-7.451 16.144-18.379 0-11.176-6.458-18.379-16.392-18.379-9.935 0-16.144 7.948-16.144 18.379 0 11.425 6.954 18.379 16.392 18.379m74.012 13.908c-17.882 0-30.548-13.411-30.548-31.79 0-19.373 12.666-32.288 30.548-32.288 19.373 0 30.052 14.406 30.052 31.791v4.719h-45.947c.497 9.189 6.706 15.647 16.392 15.647 7.451 0 12.915-3.477 15.15-8.445h13.909c-2.981 12.17-13.909 20.366-29.556 20.366m-15.647-38.496h31.543c-.745-8.196-6.955-13.66-15.647-13.66-8.445 0-14.902 5.96-15.896 13.66m61.843 36.758V61.842h14.157v7.451h.745c2.483-4.47 8.444-8.94 17.137-8.94 13.66 0 21.856 9.685 21.856 22.6v39.987h-14.902V86.927c0-7.45-4.719-12.418-11.673-12.418-7.203 0-12.418 5.712-12.418 13.411v35.02zm68.796 0v-13.909l41.974-53.398v-.745h-40.483V41.477h59.358v13.66l-41.973 53.398v.993h42.222v13.412zm101.829 1.738c-17.882 0-30.548-13.411-30.548-31.79 0-19.373 12.666-32.288 30.548-32.288 19.373 0 30.052 14.406 30.052 31.791v4.719h-45.947c.497 9.189 6.706 15.647 16.392 15.647 7.451 0 12.915-3.477 15.15-8.445h13.908c-3.228 12.17-13.908 20.366-29.555 20.366m-15.895-38.496h31.542c-.745-8.196-6.954-13.66-15.647-13.66-8.444 0-14.902 5.96-15.895 13.66m61.842 63.581V62.091h14.654v7.699h.745c1.49-2.484 7.202-9.19 18.13-9.19 16.889 0 28.562 12.667 28.562 31.791s-11.425 32.287-28.065 32.287a20.62 20.62 0 0 1-18.379-9.438h-.745v34.523zm30.797-38.993c9.686 0 16.144-7.451 16.144-18.379 0-11.176-6.458-18.379-16.392-18.379-9.935 0-16.144 7.948-16.144 18.379.249 11.425 7.203 18.379 16.392 18.379m47.686 38.993V62.091h14.653v7.699h.745c1.491-2.484 7.203-9.19 18.131-9.19 16.889 0 28.562 12.667 28.562 31.791s-11.425 32.287-28.065 32.287a20.62 20.62 0 0 1-18.379-9.438h-.745v34.523zm30.797-38.993c9.686 0 16.144-7.451 16.144-18.379 0-11.176-6.458-18.379-16.392-18.379-9.935 0-16.144 7.948-16.144 18.379.248 11.425 6.954 18.379 16.392 18.379m74.26 13.908c-17.882 0-30.548-13.411-30.548-31.79 0-19.373 12.666-32.288 30.548-32.288 19.373 0 30.052 14.406 30.052 31.791v4.719h-45.947c.497 9.189 6.706 15.647 16.392 15.647 7.451 0 12.915-3.477 15.15-8.445h13.909c-3.229 12.17-13.909 20.366-29.556 20.366m-15.895-38.496h31.542c-.745-8.196-6.954-13.66-15.647-13.66-8.444 0-14.901 5.96-15.895 13.66m76.744 36.758c-10.679 0-16.64-6.458-16.64-17.137v-69.79h14.902v68.548c0 3.477 1.738 5.464 4.719 5.464h2.483v13.163h-5.464zm27.32-69.045c-5.464 0-9.189-3.477-9.189-8.941 0-5.216 3.725-8.693 9.189-8.693s9.19 3.477 9.19 8.693c.248 5.464-3.726 8.94-9.19 8.94m-7.451 69.045V61.842h14.902v61.098zm33.281 0V61.842h14.157v7.451h.745c2.483-4.47 8.444-8.94 17.133-8.94 13.66 0 21.86 9.685 21.86 22.6v39.987h-14.9V86.927c0-7.45-4.72-12.418-11.675-12.418-7.203 0-12.418 5.712-12.418 13.411v35.02z"/></svg>