<svg xmlns="http://www.w3.org/2000/svg" fill="none" viewBox="0 0 1024 206"><path fill="#000" fill-rule="evenodd" d="m178.088 107.098.013-.352.052-.939c.058-1.018.116-2.036.116-3.07 0-.499-.015-.995-.03-1.491l-.016-.543-.004-.183-.011-.364c-.107-.65-.504-1.2-1.085-1.456-.038-.017-.08-.024-.122-.032a77 77 0 0 1-6.84-1.918l-.978-.334c-21.22-7.42-41.55-3.988-50.953-1.608q-.83.206-1.54.404-.038.002-.075.009-.043.007-.088.008c-1.847 0-3.39-1.325-3.742-3.084V73.06a3.83 3.83 0 0 1 2-2.64c.249-.103.506-.203.809-.316 6.306-2.322 23.402-6.53 52.223.876a.7.7 0 0 0 .17.046q.052.01.103.023l.101.029c.128.037.256.074.396.074 1.056 0 1.91-.863 1.91-1.927 0-.13-.033-.247-.065-.364l-.03-.113a1.9 1.9 0 0 0-.312-.663c-12.584-25.142-38.393-42.4-68.223-42.4-42.194 0-76.4 34.497-76.4 77.053s34.207 77.053 76.4 77.053c30.459 0 56.711-17.997 68.981-44.002l.065-.136q.202-.416.396-.835.012-.061.029-.122a1 1 0 0 0 .037-.222c0-.765-.451-1.416-1.093-1.726l-.081-.026-.04-.013-.146-.048-.832-.286c-21.856-7.643-42.78-3.772-51.778-1.397l-.094.024-.043.012a3.7 3.7 0 0 1-.741.077c-1.847 0-3.39-1.325-3.742-3.084v-18.958a3.85 3.85 0 0 1 2.208-2.754q.041-.018.085-.033l.063-.023c5.977-2.309 23.598-7.074 54.042 1.037 2.154.576 4.219 1.064 6.246 1.514q.448.1.892.195c.851-.029 1.53-.62 1.747-1.418q.012-.232.02-.468m42.747-33.957q.369-.074.751-.074c2.089 0 3.78 1.682 3.826 3.773v17.152a3.85 3.85 0 0 1-2.137 3.123 70 70 0 0 1-1.189.349c-3.362.956-9.095 2.31-16.276 3.008l-.711.062a1.88 1.88 0 0 0-1.367 1.666v.164l.002.163.001.107.001.103c0 2.34-.101 4.651-.252 6.951l-.003.062-.007.107a1.897 1.897 0 0 0 1.747 1.839l.027-.001c.118-.005.242-.01.361-.017 6.466-.362 11.304-1.397 14.577-2.379.231-.069.476-.141.69-.207.239-.044.484-.075.738-.075 1.908 0 3.482 1.397 3.798 3.229v17.573a3.85 3.85 0 0 1-2.237 3.285l-.109.033c-.271.08-.555.164-.871.254-4.276 1.223-12.532 3.129-22.793 3.432l-.135.006-.127.004c-.67.057-1.228.45-1.523 1.017a2 2 0 0 0-.125.333l-.006.014c-14.319 39.263-51.716 67.278-95.618 67.278-58.728 0-105.85-50.121-101.602-110.263C3.844 44.537 44.57 3.645 94.831.239c49.544-3.357 92.133 29.046 104.956 74.138.028.136.053.27.112.392a1.9 1.9 0 0 0 1.563 1.072l.309-.005c8.332-.09 14.419-1.308 18.316-2.461.264-.08.507-.157.748-.234m757.639 27.154v48.911h-19.913V79.232h16.553l2.135 9.716q9.179-10.826 24.121-10.826c7.24 0 12.82 2.14 16.75 6.424 3.91 4.281 5.88 10.338 5.88 18.161v46.499h-19.85v-45.389c0-4.09-.8-7.043-2.4-8.87q-2.386-2.737-7.692-2.737c-3.192 0-6.163.727-8.922 2.183-2.759 1.457-4.974 3.424-6.662 5.902m-78.689 34.662q2.576 2.25 7.308 2.25 4.26-.001 8.18-1.891 3.907-1.893 6.56-5.088v-12.911h-6.787q-8.475 0-13.163 2.935-4.688 2.933-4.688 8.15c0 2.871.858 5.055 2.59 6.555m13.61 12.911c-3.558 1.587-7.359 2.381-11.416 2.381q-10.731 0-17.037-5.607c-4.204-3.74-6.302-8.761-6.302-15.067 0-7.301 3.045-12.998 9.149-17.085q9.146-6.132 25.577-6.13h8.467v-1.76q-.385-12.131-13.647-12.13-4.525-.001-10.47 1.337c-3.969.889-7.55 2.032-10.734 3.424l-4.204-13.5c4.571-1.872 9.376-3.315 14.417-4.338 5.04-1.022 9.766-1.53 14.16-1.53 9.788 0 17.286 2.432 22.503 7.302s7.829 11.935 7.829 21.195v42.846h-16.428l-2.26-8.283c-2.847 3.044-6.045 5.357-9.604 6.945m-88.168-41.508h28.064c-.565-9.74-4.806-14.607-12.737-14.607-4.403 0-7.858 1.207-10.382 3.619s-4.168 6.074-4.945 10.988m44.616 36.846c-10.521 4.911-20.243 7.346-29.157 7.306-10.954 0-19.553-3.22-25.805-9.653q-9.376-9.654-9.376-26.804c0-11.392 3.059-20.27 9.186-26.64q9.179-9.554 25.73-9.553 31.102-.001 31.102 35.542v4.565h-46.685c1.034 11.912 7.117 17.868 18.232 17.868 3.448 0 6.926-.403 10.411-1.207q5.24-1.206 11.578-3.881zm-81.411 5.869c-3.705.784-7.242 1.174-10.602 1.174q-17.204-.002-26.318-9.326-9.121-9.328-9.12-26.868 0-17.089 9.377-26.51c6.251-6.282 15.085-9.423 26.516-9.423 7.065 0 13.771 1.651 20.103 4.957l-4.395 13.238q-7.045-3.718-13.639-3.717-8.607-.002-13.295 5.61c-3.126 3.737-4.681 9.018-4.681 15.845 0 6.783 1.6 12.02 4.813 15.718q4.82 5.542 13.867 5.543 7.44 0 14.549-3.195l3.17 13.628c-3.184 1.436-6.64 2.545-10.345 3.326M670.327 125.99c4.075 5.609 10.075 8.412 18.008 8.412q11.899 0 18.01-8.412 6.11-8.415 6.109-24.585c0-10.523-2.036-18.52-6.109-24q-6.111-8.216-18.01-8.216-12.027-.002-18.072 8.152-6.047 8.149-6.046 24.064-.001 16.17 6.11 24.585m51.505 11.804q-11.514 12.585-33.497 12.586-22.114-.002-33.559-12.555-11.447-12.552-11.447-36.42 0-23.218 11.575-35.737 11.575-12.522 33.431-12.522 21.854-.001 33.431 12.488 11.574 12.488 11.574 35.771 0 23.799-11.508 36.389m-136.891-37.499v48.911h-19.918V79.232h16.553l2.134 9.716q9.185-10.826 24.12-10.826c7.244 0 12.823 2.14 16.748 6.424 3.922 4.281 5.885 10.338 5.885 18.161v46.499h-19.852v-45.389c0-4.09-.8-7.043-2.394-8.87q-2.394-2.737-7.693-2.737-4.787 0-8.924 2.183-4.14 2.185-6.659 5.902m-79.667 6.065h28.065q-.844-14.608-12.739-14.607-6.597 0-10.378 3.619-3.783 3.617-4.948 10.988m44.619 36.846q-15.78 7.366-29.163 7.306-16.426-.002-25.801-9.653-9.377-9.654-9.377-26.804c0-11.392 3.058-20.27 9.183-26.64q9.18-9.554 25.736-9.553 31.102-.001 31.102 35.542v4.565h-46.686q1.552 17.868 18.234 17.868 5.174 0 10.412-1.207 5.237-1.206 11.574-3.881zm-116.2-6.847c1.294.172 2.865.262 4.722.262q8.985 0 13.803-5.872 4.818-5.868 4.818-17.216.001-21.128-14.549-21.064c-3.538 0-6.563.956-9.084 2.87q-3.785 2.866-5.466 8.087v31.759q3.816.91 5.756 1.174m-5.755 12.457v30.975h-19.852V79.231h15.196l3.038 8.281c2.932-3.215 6.003-5.555 9.217-7.01q4.815-2.183 11.088-2.184c9.615 0 17.092 3 22.44 9q8.016 9 8.017 25.563 0 11.61-4.592 20.021-4.591 8.413-12.996 12.88-8.408 4.466-19.915 4.467-5.433 0-11.641-1.433M330.46 125.99q6.108 8.413 18.008 8.412 11.897 0 18.007-8.412 6.112-8.415 6.112-24.585c0-10.523-2.037-18.52-6.112-24q-6.11-8.216-18.007-8.216c-8.018 0-14.046 2.715-18.075 8.152q-6.046 8.149-6.046 24.064 0 16.17 6.113 24.585m51.502 11.804q-11.51 12.585-33.494 12.586-22.114-.002-33.561-12.555-11.445-12.552-11.445-36.42 0-23.218 11.575-35.737 11.571-12.522 33.431-12.522 21.854-.001 33.431 12.488c7.713 8.324 11.574 20.25 11.574 35.771q0 23.799-11.511 36.389" clip-rule="evenodd"/></svg>
