<svg xmlns="http://www.w3.org/2000/svg" fill="none" viewBox="0 0 936 162"><path fill="#000" d="M146.802 161.684v-41.973H101.6c-12.17 0-23.595 6.457-30.052 17.137l-14.654 24.836zM5 0v41.973h118.965L148.802 0zm53.613 66.561L.248 161.684h49.921l70.038-113.75H92.639a39.74 39.74 0 0 0-34.026 18.627M264.708 131H231V31h34.388q14.815 0 25.452 6.006 10.686 5.957 16.417 17.139t5.731 26.757q0 15.626-5.78 26.856-5.732 11.23-16.562 17.236Q279.862 131 264.708 131m-15.688-15.674h14.814q10.395 0 17.34-3.808 6.947-3.858 10.443-11.475 3.497-7.665 3.497-19.14t-3.497-19.044q-3.497-7.617-10.346-11.377-6.8-3.808-16.903-3.808H249.02zM330.11 131V31h64.697v15.186H348.13v27.148h43.325v15.185H348.13v27.295h47.065V131zm83.081 0V31h63.725v15.186h-45.705v27.148h41.334v15.185h-41.334V131zm80.142 0V31h64.697v15.186h-46.677v27.148h43.326v15.185h-43.326v27.295h47.066V131zM658.16 31v100h-16.028L595.26 62.885h-.825V131h-18.02V31h16.125l46.823 68.164h.874V31zm53.344 100h-33.709V31h34.389q14.813 0 25.451 6.006 10.686 5.957 16.417 17.139t5.731 26.757q0 15.626-5.78 26.856-5.731 11.23-16.562 17.236Q726.657 131 711.504 131m-15.689-15.674h14.814q10.395 0 17.34-3.808 6.947-3.858 10.443-11.475 3.497-7.665 3.497-19.14t-3.497-19.044q-3.497-7.617-10.346-11.377-6.8-3.808-16.902-3.808h-15.349zM776.905 131V31h64.697v15.186h-46.677v27.148h43.325v15.185h-43.325v27.295h47.065V131zm83.081 0V31h37.303q11.463 0 19.234 4.004 7.82 4.005 11.803 11.23 4.03 7.178 4.031 16.748 0 9.62-4.08 16.7-4.03 7.031-11.9 10.888-7.868 3.81-19.331 3.809h-26.569v-15.04h24.14q6.704 0 10.977-1.855 4.275-1.904 6.315-5.517 2.088-3.662 2.088-8.985t-2.088-9.082q-2.09-3.809-6.363-5.761-4.275-2.002-11.026-2.002h-16.514V131zm51.388-45.312L936 131h-20.109l-24.188-45.312z"/></svg>
