<svg xmlns="http://www.w3.org/2000/svg" fill="none" viewBox="0 0 1024 137"><path fill="#000" d="M51.706 136.533q-22.789 0-37.343-10.619Q0 115.105 0 95.194q0-4.172.958-10.24Q3.448 71.3 8.043 52.148 21.065 0 75.261 0q14.746 0 26.427 4.93 11.681 4.74 18.384 14.412 6.703 9.481 6.703 22.756 0 3.982-.957 10.05-2.874 16.878-6.895 32.806-6.702 25.98-23.172 38.874-16.469 12.705-44.045 12.705m2.68-27.306q10.724 0 18.194-6.258 7.66-6.258 10.915-19.152 4.405-17.826 6.703-31.1.766-3.983.766-8.154 0-17.256-18.193-17.256-10.725 0-18.384 6.258-7.47 6.257-10.724 19.152-3.447 12.705-6.894 31.1-.767 3.791-.767 7.963 0 17.447 18.385 17.447m91.82 25.41q-2.107 0-3.256-1.327-.957-1.517-.575-3.414L168.804 6.637q.383-2.085 2.106-3.413 1.724-1.328 3.639-1.328h50.939q21.257 0 34.088 8.723 13.022 8.724 13.022 25.221 0 4.74-1.149 9.86-4.788 21.808-19.342 32.238-14.362 10.43-39.45 10.43h-25.852l-8.809 41.528q-.384 2.086-2.107 3.414-1.723 1.327-3.639 1.327zm67.791-72.438q8.044 0 13.98-4.362 6.128-4.362 8.043-12.516.575-3.224.575-5.688 0-5.5-3.256-8.344-3.256-3.034-11.107-3.034h-22.98l-7.278 33.944zm101.748 72.438q-2.106 0-3.255-1.327-1.15-1.517-.766-3.414l21.257-98.228h-34.088q-2.106 0-3.256-1.327-.957-1.518-.574-3.414l4.405-20.29q.382-2.085 2.106-3.413t3.638-1.328h103.029q2.106 0 3.256 1.328.765 1.137.766 2.275 0 .57-.192 1.138l-4.405 20.29q-.382 2.086-2.106 3.414-1.532 1.327-3.638 1.327h-33.897l-21.257 98.228q-.382 2.086-2.106 3.414-1.724 1.327-3.638 1.327zm101.402 0q-2.106 0-3.255-1.327-1.15-1.517-.766-3.414L439.746 6.637q.383-2.085 2.107-3.413 1.723-1.328 3.638-1.328h25.853q2.106 0 3.255 1.328.766 1.137.766 2.275 0 .57-.191 1.138l-26.428 123.259q-.382 2.086-2.106 3.414-1.724 1.327-3.638 1.327zm72.92 0q-2.106 0-3.256-1.327-1.149-1.328-.766-3.414L512.474 6.637q.383-2.085 2.106-3.413 1.724-1.328 3.83-1.328h20.682q4.597 0 5.937 4.172l20.874 59.734 46.535-59.734q.957-1.517 2.681-2.844 1.915-1.328 4.596-1.328h20.874q2.106 0 3.255 1.328.767 1.137.767 2.275 0 .57-.192 1.138l-26.427 123.259q-.384 2.086-2.107 3.414-1.724 1.327-3.639 1.327h-23.172q-2.106 0-3.255-1.327-.958-1.517-.574-3.414l14.937-69.973-29.3 38.495q-1.916 2.085-3.639 3.224-1.723 1.138-4.021 1.138h-9.958q-4.021 0-5.554-4.362l-13.596-40.202-15.321 71.68q-.383 2.086-2.106 3.414-1.723 1.327-3.639 1.327zm169.036 0q-2.107 0-3.256-1.327-1.149-1.517-.766-3.414L681.701 6.637q.382-2.085 2.106-3.413 1.722-1.328 3.638-1.328h25.853q2.11 0 3.256 1.328.766 1.137.765 2.275.001.57-.191 1.138l-26.426 123.259q-.38 2.086-2.11 3.414-1.722 1.327-3.638 1.327zm120.221 1.896q-16.855 0-28.917-4.551-11.879-4.55-18.002-12.136-5.94-7.586-5.939-16.877.001-1.516.382-4.551.388-1.707 1.536-2.845c.894-.758 1.911-1.138 3.065-1.138h24.508q2.302 0 3.447.759 1.341.758 2.683 2.655 1.34 4.93 6.13 8.154 4.979 3.224 13.592 3.224c7.278 0 13.155-1.138 17.62-3.414q6.708-3.413 8.042-9.291.193-.76.191-2.276c0-3.16-1.973-5.626-5.932-7.396q-5.94-2.844-21.832-6.637-18.577-3.982-28.153-11.946-9.573-8.154-9.571-21.239 0-4.55 1.147-9.292 3.831-17.635 18.957-27.686Q777.596 0 801.731 0c9.7 0 18.322 1.707 25.852 5.12q11.295 5.12 17.429 13.084c4.212 5.184 6.314 10.367 6.314 15.55 0 1.517-.061 2.592-.191 3.224a5.08 5.08 0 0 1-1.72 2.844c-.765.759-1.727 1.138-2.874 1.138h-25.662c-2.805 0-4.724-1.075-5.741-3.224q-.197-4.36-4.601-7.395-4.403-3.034-11.489-3.034c-5.619 0-10.275 1.011-13.981 3.034-3.571 2.023-5.81 4.993-6.697 8.912q-.196.948-.198 2.465 0 4.552 5.366 7.586c3.7 1.896 10.151 3.855 19.339 5.878q21.451 4.173 31.219 11.947 9.953 7.775 9.953 20.67 0 4.361-1.147 9.481-4.21 19.343-20.493 29.393c-10.718 6.573-25.082 9.86-43.084 9.86m90.133-1.896q-2.11 0-3.256-1.327c-.765-.886-1.024-2.023-.765-3.414L891.863 6.637q.38-2.085 2.109-3.413 1.72-1.328 3.83-1.328h20.678q4.598 0 5.939 4.172l20.876 59.734 46.531-59.734q.963-1.517 2.683-2.844 1.912-1.328 4.594-1.328h20.877c1.41 0 2.49.443 3.26 1.328.51.758.76 1.517.76 2.275 0 .38-.06.759-.19 1.138l-26.427 123.259q-.39 2.086-2.11 3.414-1.722 1.327-3.638 1.327h-23.17q-2.11 0-3.256-1.327-.963-1.517-.574-3.414l14.937-69.973-29.3 38.495q-1.917 2.085-3.639 3.224c-1.146.758-2.491 1.138-4.021 1.138h-9.96q-4.024 0-5.55-4.362l-13.599-40.202-15.318 71.68q-.39 2.086-2.11 3.414-1.722 1.327-3.639 1.327z"/></svg>