<svg xmlns="http://www.w3.org/2000/svg" fill="none" viewBox="0 0 1024 356"><path fill="#000" fill-rule="evenodd" d="m161.234.278-7.339.958a181.25 181.25 0 0 0-70.52 25.145 188.4 188.4 0 0 0-53.61 51.693 182.7 182.7 0 0 0-28.527 74.031 257 257 0 0 0 0 50.418 178.7 178.7 0 0 0 27.89 72.562c5.935 8.935 14.678 19.976 15.7 19.976.382 0 3.382-2.872 6.828-6.382l6.127-6.382-4.149-5.105a165.3 165.3 0 0 1-31.144-64.777c-4.786-21.699-4.85-45.759-.319-67.904a162.55 162.55 0 0 1 33.76-68.734c5.043-6.063 19.53-20.359 20.615-20.359.319 0 5.999 5.553 12.7 12.381L101.37 80.18l4.914-3.51c27.443-19.656 62.99-27.25 96.177-20.55a127.26 127.26 0 0 1 65.734 36.441l5.424 5.744-7.658 8.105a622 622 0 0 1-12.126 12.509c-2.425 2.425-4.467 4.659-4.467 4.914s1.276 2.425 2.936 4.787a94.7 94.7 0 0 1 13.402 32.101c.957 4.148 1.212 8.296 1.212 17.55 0 13.402-.765 18.316-4.276 28.719a89.537 89.537 0 0 1-109.386 56.799 112.5 112.5 0 0 1-23.422-10.849c-1.915-1.213-3.765-2.234-4.085-2.234-.382 0-3.446 3-6.764 6.574l-6.127 6.637 5.871 3.829c26.166 17.232 57.438 22.337 87.561 14.232a108.11 108.11 0 0 0 77.668-82.583c1.277-5.616 1.404-8.296 1.404-21.124 0-12.764-.191-15.508-1.404-21.188-1.914-8.743-4.659-16.976-8.232-24.571l-2.936-6.254 5.807-5.999c3.957-4.021 6.063-5.744 6.446-5.233a123.81 123.81 0 0 1-9.445 139.765l-2.042 2.553 6.573 6.573 6.573 6.637 1.915-2.361a144.36 144.36 0 0 0 31.527-103.069 142.83 142.83 0 0 0-211.371-111.94l-5.233 2.936-5.935-5.935c-3.191-3.19-5.744-6.063-5.425-6.382 1.532-1.404 16.274-9.254 22.465-11.87 21.06-9.063 40.653-13.02 64.139-12.956 21.06 0 37.781 3.128 57.118 10.53 12.764 4.979 28.4 13.85 39.185 22.337 2.106 1.596 3.957 2.936 4.212 2.936.319 0 4.914-4.659 10.403-10.594l2.361-2.553-3.957-3.19a181.7 181.7 0 0 0-85.071-37.016C196.973.47 165.382-.488 161.234.278m143.403 66.5c-3.383 3.383-6.191 6.382-6.191 6.638 0 .255 1.915 2.871 4.276 5.743 14.487 17.934 26.549 43.589 31.08 66.373 2.553 12.445 3.191 19.146 3.191 32.42 0 6.829-.383 15.189-.766 18.508a162.86 162.86 0 0 1-34.398 81.37c-4.914 6.126-21.316 22.656-22.465 22.656-.319 0-5.999-5.616-12.572-12.445-10.658-11.105-12.126-12.381-13.083-11.679-24.89 17.806-47.865 25.528-75.882 25.528-28.527 0-53.927-8.807-76.902-26.549a168 168 0 0 1-18.189-17.806c0-.319 5.425-6.19 12.062-13.083l12.062-12.445-2.872-4.212c-6.127-8.935-11.168-21.06-13.721-32.803-1.787-8.68-1.915-24.124-.255-32.995 3.573-18.508 11.551-33.633 24.889-46.971a86.35 86.35 0 0 1 45.95-24.635c9.19-1.914 25.4-1.914 34.654 0a86.2 86.2 0 0 1 29.804 12.062c2.425 1.532 4.723 2.681 5.106 2.553.383-.191 3.446-3.191 6.701-6.765l5.935-6.382-6.382-4.212a113 113 0 0 0-38.419-15.7c-8.999-1.914-30.315-2.17-39.25-.382a107.602 107.602 0 0 0-77.86 153.614l2.234 4.467-5.935 6.19-6 6.191-2.36-4.212a124.45 124.45 0 0 1 9.19-133.766l3.956-5.297-6.254-6.637c-3.382-3.702-6.382-6.701-6.51-6.701a142.446 142.446 0 0 0 .192 185.459 142.89 142.89 0 0 0 179.971 30.442l2.489-1.595 6.063 6.063 6.063 6.063-6.191 3.637a161.8 161.8 0 0 1-64.074 20.805c-9.318.958-31.463.383-40.334-1.021a189 189 0 0 1-29.74-7.658c-13.849-5.106-32.165-15.125-43.079-23.677-1.914-1.532-3.701-2.808-3.829-2.808-.51 0-12.317 11.998-12.572 12.764s7.977 7.211 15.636 12.381a183.4 183.4 0 0 0 72.882 28.208c10.275 1.596 34.462 1.915 45.631.638 21.634-2.553 40.461-8.105 59.671-17.678 35.356-17.678 62.543-45.12 80.094-80.668a173.3 173.3 0 0 0 17.997-83.603A175.9 175.9 0 0 0 311.21 60.524c-.191 0-3.191 2.808-6.573 6.254m188.268 34.271a74 74 0 0 0-27.251 11.807c0 .192 3.318 3.765 7.275 7.978l7.212 7.658 5.041-2.361a48.625 48.625 0 0 1 56.066 10.098 48.63 48.63 0 0 1 8.009 56.402 49.4 49.4 0 0 1-30.633 24.698 65.7 65.7 0 0 1-24.89 0 49.58 49.58 0 0 1-31.271-25.592 40.66 40.66 0 0 1-4.723-22.018 33.2 33.2 0 0 1 1.723-13.721c.957-2.808 2.553-6.701 3.574-8.616l1.851-3.446-7.403-7.85c-5.999-6.382-7.531-7.658-8.297-7.02a67.2 67.2 0 0 0-13.083 40.972c0 16.593 4.85 30.761 14.87 43.334a71.04 71.04 0 0 0 44.227 25.911c7.658 1.276 21.699.51 29.102-1.532a70.26 70.26 0 0 0 50.8-55.587c1.596-8.296 1.021-21.379-1.149-29.804-6.382-24.251-25.144-43.142-49.651-50.034-5.106-1.468-7.531-1.723-16.529-1.915-7.404-.127-11.807.064-14.934.702m471.244-.191c-20.231 1.276-36.25 9.828-43.653 23.485-5.233 9.573-5.552 26.166-.766 35.739 6.127 12.19 18.253 18.317 46.333 23.295 12.637 2.233 20.167 4.084 23.933 5.743 6.701 2.936 9.828 7.34 9.892 13.721v3.511l8.866 8.871 8.88 8.807 1.65-2.872a33.23 33.23 0 0 0 4.73-17.678c.44-12.126-1.92-19.146-8.75-26.039-7.65-7.594-17.036-11.104-41.925-15.699-17.487-3.255-23.231-5.17-28.081-9.446-7.02-6.19-6.063-17.486 1.979-23.613 6.445-4.914 18.188-7.02 31.271-5.744a60.9 60.9 0 0 1 23.866 6.638l7.15 3.574c.32.127 2.81-4.34 5.62-9.956l5.1-10.211-4.59-2.553c-12.32-7.02-32.359-10.722-51.505-9.573m-153.869 2.106c-24.89 4.722-45.631 22.528-53.736 46.269a63.1 63.1 0 0 0-3.447 25.209 67 67 0 0 0 10.211 34.462l2.489 3.702 7.659-7.658 7.786-7.786-2.362-4.978c-3.191-6.893-4.467-12.573-4.467-20.614a43.4 43.4 0 0 1 5.106-21.699c2.552-5.169 3.829-6.956 9.126-12.125a45.3 45.3 0 0 1 20.741-12.764 49.52 49.52 0 0 1 47.354 11.679 49.71 49.71 0 0 1 12.956 48.63 45.57 45.57 0 0 1-12.445 20.422 42.6 42.6 0 0 1-18.635 11.998 36.4 36.4 0 0 1-13.786 2.234c-9.764.319-14.487-.638-23.038-4.531l-5.744-2.617-7.212 7.659a126 126 0 0 0-7.211 7.85 70.84 70.84 0 0 0 89.985-5.553 74.4 74.4 0 0 0 19.593-33.186 51.2 51.2 0 0 0 1.723-17.806c0-9.573-.255-12.253-1.34-16.274a70.52 70.52 0 0 0-51.758-51.821 95 95 0 0 0-29.548-.83m-206.904.766c-.255.191-.446 30.251-.446 66.691v66.309h31.271c18.891 0 33.187-.255 36.122-.638 14.041-1.979 27.826-9.126 38.037-19.657a66.56 66.56 0 0 0 16.912-29.995 49.2 49.2 0 0 0 1.659-16.401 49.1 49.1 0 0 0-1.595-16.338c-.957-3.383-2.681-8.424-3.957-11.169l-2.361-4.978-8.935 8.935-8.935 8.935 1.085 5.361c4.148 20.422-6.19 41.163-24.826 50.034-8.296 3.893-10.722 4.212-32.867 4.212h-19.912v-89.985h19.338c14.551 0 20.422.255 23.741.957 5.233 1.149 13.402 4.914 17.742 8.169 1.659 1.276 3.191 2.361 3.51 2.361.574 0 16.082-15.508 16.082-16.082 0-.958-10.211-7.786-14.997-10.084-13.466-6.446-17.806-7.02-55.906-7.02-16.721 0-30.57.192-30.762.447m-487.517 30.506c-.383.383 61.522 119.598 62.096 119.661.638 0 62.416-118.959 62.097-119.47-.383-.574-123.619-.702-124.193-.191m32.994 24.123 17.87 34.272c8.296 15.954 15.316 29.229 15.508 29.484.383.383 6.829-11.551 33.122-61.522l3.957-7.531h-73.265zm768.069 58.459-5.105 10.211 2.68 2.043a92.6 92.6 0 0 0 19.274 9.19 106.6 106.6 0 0 0 52.076 3.51c6.127-1.277 13.402-3.638 13.402-4.404 0-.191-3.701-4.212-8.168-8.871l-8.106-8.488-6.381.702c-10.084 1.213-22.146-.127-32.676-3.574a120.5 120.5 0 0 1-19.784-9.19l-2.042-1.34-5.106 10.211" clip-rule="evenodd"/></svg>
