<svg xmlns="http://www.w3.org/2000/svg" fill="none" viewBox="0 0 1024 193"><path fill="#000" d="M240.941 192.771 129.508 0 18.071 192.771zM51.199 90.361 102.4 0H0zm144.233 76.894H63.584l65.924-114.047zm683.901-32.718q6.08 0 11.86-.421c3.861-.276 7.365-.641 10.534-1.084 3.157-.448 5.935-.866 8.345-1.256q3.59-.586 5.504-1.089V76.136c0-4.57-.629-8.807-1.904-12.714-1.265-3.903-3.294-7.28-6.061-10.123q-4.193-4.273-10.913-6.696c-4.49-1.615-9.966-2.427-16.407-2.427-6.326 0-11.735.394-16.225 1.172-4.49.782-7.812 1.616-9.955 2.507l1.706 9.54c1.644-.558 4.241-1.279 7.773-2.174 3.549-.891 8.918-1.339 16.129-1.339 5.051 0 9.133.694 12.234 2.09q4.65 2.098 7.217 5.527a18 18 0 0 1 3.311 7.696c.43 2.432.64 4.939.708 7.495h.046v1.172c0 .042.011.076.011.118v5.355h-.011v9.536h.011v30.454q-3.8.673-9.207 1.089c-3.6.28-7.812.417-12.619.417-3.912 0-7.427-.307-10.528-.922-3.09-.61-5.754-1.585-7.965-2.924s-3.924-3.122-5.12-5.36c-1.207-2.231-1.803-4.957-1.803-8.196 0-3.683.885-6.634 2.654-8.868q2.652-3.347 6.837-5.273c2.772-1.282 5.811-2.116 9.099-2.511a82 82 0 0 1 9.49-.58c2.381 0 4.507.068 6.429.194v-9.263c-.159-.012-.306-.038-.459-.053a65 65 0 0 0-5.596-.255c-5.935 0-11.44.505-16.503 1.51q-7.587 1.507-13.09 4.768c-3.662 2.177-6.514 4.935-8.538 8.284-2.018 3.345-3.033 7.358-3.033 12.047q.002 7.366 2.75 12.464c1.825 3.406 4.365 6.194 7.591 8.371 3.226 2.173 7.013 3.762 11.378 4.768 4.365 1 9.144 1.505 14.32 1.505m-313.214 0c4.038 0 7.996-.14 11.851-.421 3.86-.276 7.37-.641 10.533-1.084q4.738-.672 8.345-1.256 3.607-.586 5.505-1.089V76.136q.002-6.854-1.894-12.714c-1.264-3.903-3.293-7.28-6.071-10.123q-4.178-4.273-10.914-6.696c-4.49-1.615-9.955-2.427-16.406-2.427-6.329 0-11.738.394-16.225 1.172q-6.734 1.172-9.958 2.507l1.705 9.54c1.642-.558 4.237-1.279 7.782-2.174q5.308-1.338 16.12-1.339c5.066 0 9.131.694 12.243 2.09 3.095 1.4 5.494 3.24 7.211 5.527 1.701 2.283 2.801 4.847 3.322 7.696.431 2.432.63 4.939.698 7.495h.056v46.635c-2.534.448-5.589.812-9.201 1.089q-5.41.418-12.614.417-5.891 0-10.531-.922-4.653-.915-7.973-2.924c-2.214-1.339-3.919-3.122-5.12-5.36-1.2-2.231-1.799-4.957-1.799-8.196 0-3.683.883-6.634 2.656-8.868q2.648-3.347 6.828-5.273c2.784-1.282 5.819-2.116 9.103-2.511a82 82 0 0 1 9.484-.58c2.387 0 4.501.068 6.434.194v-9.263c-.158-.012-.294-.038-.459-.053a64 64 0 0 0-5.59-.255c-5.944 0-11.449.505-16.503 1.51q-7.59 1.507-13.093 4.768c-3.672 2.177-6.518 4.935-8.541 8.284q-3.033 5.016-3.032 12.047c0 4.911.92 9.065 2.748 12.464q2.753 5.107 7.588 8.371c3.227 2.173 7.026 3.762 11.382 4.768 4.364 1 9.141 1.505 14.33 1.505m-150.587 0q6.064 0 11.855-.421c3.855-.276 7.367-.641 10.531-1.084a430 430 0 0 0 8.346-1.256q3.603-.586 5.501-1.089V76.136q-.001-6.854-1.892-12.714-1.904-5.857-6.074-10.123-4.173-4.273-10.911-6.696c-4.492-1.615-9.96-2.427-16.41-2.427-6.327 0-11.731.394-16.222 1.172-4.492.782-7.809 1.616-9.96 2.507l1.71 9.54c1.641-.558 4.233-1.279 7.779-2.174 3.537-.891 8.915-1.339 16.124-1.339q7.586-.002 12.237 2.09c3.096 1.4 5.505 3.24 7.21 5.527 1.708 2.283 2.812 4.847 3.321 7.696.429 2.432.635 4.939.706 7.495h.049l.002 1.231.002.059v45.345c-2.532.448-5.594.812-9.204 1.089q-5.403.418-12.614.417-5.884 0-10.531-.922-4.651-.915-7.969-2.924c-2.213-1.339-3.922-3.122-5.119-5.36-1.204-2.231-1.802-4.957-1.802-8.196 0-3.683.882-6.634 2.655-8.868q2.648-3.347 6.828-5.273c2.783-1.282 5.815-2.116 9.107-2.511a81 81 0 0 1 9.487-.58c2.378 0 4.498.068 6.428.194v-9.263c-.157-.012-.296-.038-.453-.053a64 64 0 0 0-5.598-.255q-8.919.001-16.503 1.51-7.589 1.507-13.093 4.768c-3.671 2.177-6.517 4.935-8.541 8.284q-3.03 5.016-3.032 12.047.002 7.366 2.749 12.464 2.752 5.107 7.587 8.371 4.846 3.26 11.391 4.768c4.364 1 9.133 1.505 14.323 1.505m536.537 30.121v-36.379q3.248 2.202 10.397 4.658c4.774 1.63 10.409 2.45 16.883 2.45 7.127 0 13.453-1.128 18.987-3.383s10.204-5.385 14.024-9.394c3.81-4.004 6.71-8.795 8.67-14.384q2.97-8.376 2.97-18.358c0-7.108-1.18-13.479-3.53-19.121-2.36-5.64-5.67-10.433-9.92-14.385-4.26-3.947-9.36-6.962-15.265-9.053-5.913-2.086-12.495-3.133-19.745-3.133-8.782 0-16.027.51-21.747 1.527-5.726 1.012-10.437 2.086-14.122 3.214v115.741zm-469.468-30.121V56.865q1.576-.68 6.583-1.714c3.337-.683 7.755-1.03 13.261-1.03 5.235 0 9.456.261 12.669.773 3.206.518 5.332 1 6.381 1.454l2.552-9.6c-1.441-.57-4.023-1.138-7.756-1.713q-5.597-.859-11.887-.86c-8.247 0-15.256.662-21.021 1.975-5.76 1.314-10.279 2.605-13.548 3.86v84.527zm-193.116 30.121v-36.379c2.159 1.469 5.627 3.02 10.395 4.658 4.772 1.63 10.398 2.45 16.885 2.45q10.686 0 18.984-3.383 8.304-3.382 14.023-9.394c3.817-4.004 6.71-8.795 8.68-14.384q2.961-8.376 2.96-18.358-.002-10.66-3.528-19.121-3.535-8.459-9.921-14.385c-4.264-3.947-9.349-6.962-15.263-9.053-5.92-2.086-12.498-3.133-19.748-3.133q-13.167 0-21.752 1.527-8.585 1.52-14.118 3.214v115.741zm359.883-30.121q17.323 0 27.325-6.119c6.656-4.082 9.989-10.086 9.989-18.025 0-4.19-.827-7.673-2.471-10.456-1.661-2.778-3.81-5.152-6.475-7.137-2.67-1.985-5.754-3.684-9.229-5.095a287 287 0 0 0-10.953-4.142 451 451 0 0 1-9.808-3.728c-2.851-1.125-5.266-2.343-7.234-3.645-1.973-1.31-3.458-2.814-4.467-4.521-1.026-1.704-1.531-3.746-1.531-6.136 0-.132.017-15.848.029-20.233l.005-1.124h-12.523c-.023.441-.068 18.145-.074 21.734v.622c0 3.738.76 6.914 2.285 9.519 1.531 2.609 3.549 4.848 6.094 6.717 2.535 1.87 5.454 3.511 8.748 4.93a216 216 0 0 0 10.482 4.166c4.564 1.698 8.408 3.171 11.52 4.42 3.101 1.245 5.613 2.551 7.512 3.911 1.91 1.361 3.265 2.887 4.104 4.59.817 1.7 1.231 3.742 1.231 6.121q-.002 7.48-6.951 10.625c-4.626 2.1-10.499 3.145-17.608 3.145q-5.91.002-10.375-.679c-2.988-.451-5.55-.995-7.716-1.615-2.16-.621-3.872-1.195-5.136-1.699q-1.907-.768-2.478-1.106l-3.237 10.028c1.525.685 4.57 1.676 9.145 2.974 4.563 1.308 11.162 1.958 19.797 1.958m89.794 0c1.967-3.786 4.048-8.041 6.236-12.775a653 653 0 0 0 6.747-15.163 317 317 0 0 0 6.723-16.98 427 427 0 0 0 6.214-18.214 445 445 0 0 0 6.236 18.178 323 323 0 0 0 6.758 16.945 617 617 0 0 0 6.78 15.157 316 316 0 0 0 6.298 12.852h11.934c6.752-12.278 12.96-25.261 18.584-38.953q8.452-20.535 15.601-45.384H824.58c-1.451 5.775-3.265 12.01-5.454 18.706a428 428 0 0 1-7.047 19.908c-2.528 6.574-5.034 12.82-7.557 18.738-2.517 5.924-4.903 10.946-7.154 15.076q-3.988-8.157-7.841-17.464a412 412 0 0 1-7.324-18.839 428 428 0 0 1-6.316-18.755c-1.91-6.144-3.447-11.931-4.626-17.37h-11.094a650 650 0 0 1-5.307 17.367 699 699 0 0 1-6.304 18.685 409 409 0 0 1-7.155 18.778 386 386 0 0 1-7.608 17.431c-2.245-4.13-4.665-9.136-7.239-15.016-2.591-5.875-5.136-12.102-7.659-18.68a414 414 0 0 1-7.053-19.893c-2.188-6.68-4.019-12.904-5.476-18.672h-13.657c4.734 16.535 9.898 31.658 15.516 45.36 5.607 13.701 11.792 26.695 18.567 38.977zm239.348-6.024c-2.999 0-5.862-.26-8.594-.771q-4.116-.771-7.637-1.977-3.527-1.196-6.162-2.572c-1.757-.915-3.226-1.775-4.399-2.577V58.629c1.956-.571 4.864-1.117 8.702-1.635q5.773-.77 15.159-.77c10.953 0 19.746 3.122 26.401 9.36 6.66 6.24 9.97 15.195 9.97 26.872 0 4.92-.58 9.59-1.75 13.992-1.18 4.41-3.07 8.24-5.68 11.505-2.6 3.262-6.026 5.839-10.261 7.727-4.24 1.887-9.484 2.833-15.749 2.833m-662.589 0c-3.003 0-5.868-.26-8.604-.771q-4.11-.771-7.629-1.977-3.523-1.196-6.16-2.572-2.638-1.373-4.399-2.577V58.629c1.951-.571 4.858-1.117 8.702-1.635 3.846-.513 8.9-.77 15.152-.77q16.434.002 26.402 9.36 9.98 9.358 9.98 26.872c0 4.92-.587 9.59-1.762 13.992-1.171 4.41-3.064 8.24-5.67 11.505-2.613 3.262-6.033 5.839-10.269 7.727q-6.361 2.832-15.743 2.833"/></svg>