<svg xmlns="http://www.w3.org/2000/svg" fill="none" viewBox="0 0 1024 284"><path fill="#000" d="M363.379 139.795v-91.74h37.745q8.65 0 15.202 3.538 6.684 3.408 10.354 9.698 3.801 6.291 3.801 14.941v1.835q0 8.52-3.932 14.94-3.801 6.291-10.485 9.83-6.553 3.407-14.94 3.407h-20.446v33.551zm17.299-49.278h18.742q6.159 0 9.96-3.407t3.801-9.305v-1.31q0-5.899-3.801-9.306-3.801-3.408-9.96-3.407h-18.742zm81.224 51.113q-6.946 0-12.451-2.359-5.504-2.49-8.781-7.077-3.145-4.718-3.145-11.402t3.145-11.14q3.277-4.587 8.912-6.815 5.767-2.36 13.106-2.359h17.824v-3.67q0-4.587-2.883-7.47-2.885-3.014-9.174-3.014-6.16 0-9.174 2.883-3.015 2.752-3.932 7.208l-15.203-5.111a26.3 26.3 0 0 1 4.98-9.043q3.539-4.194 9.305-6.684 5.898-2.621 14.286-2.621 12.843 0 20.314 6.421 7.47 6.423 7.47 18.61v24.246q0 3.932 3.67 3.932h5.242v13.63h-11.009q-4.85 0-7.994-2.359-3.146-2.359-3.146-6.291v-.131h-2.49q-.524 1.574-2.359 4.194-1.834 2.49-5.767 4.456-3.932 1.966-10.746 1.966m2.883-13.368q6.946 0 11.271-3.801 4.456-3.932 4.456-10.353v-1.311h-16.644q-4.587 0-7.209 1.966-2.62 1.967-2.621 5.505t2.752 5.766 7.995 2.228m79.188 13.368q-12.712 0-20.839-5.504-8.125-5.505-9.829-15.727l15.203-3.932q.917 4.587 3.014 7.208 2.228 2.621 5.374 3.801 3.276 1.048 7.077 1.048 5.766 0 8.518-1.966 2.753-2.096 2.753-5.111 0-3.013-2.621-4.587-2.622-1.704-8.388-2.752l-3.67-.655q-6.814-1.311-12.45-3.539-5.636-2.359-9.043-6.422-3.408-4.062-3.408-10.485 0-9.697 7.077-14.81 7.077-5.241 18.611-5.241 10.877 0 18.086 4.849 7.207 4.849 9.436 12.712l-15.334 4.719q-1.049-4.98-4.325-7.078-3.145-2.097-7.863-2.097-4.719 0-7.209 1.704-2.49 1.573-2.49 4.456 0 3.146 2.621 4.718 2.622 1.442 7.078 2.228l3.669.656q7.34 1.31 13.237 3.538 6.029 2.097 9.436 6.16 3.539 3.931 3.539 10.747 0 10.222-7.471 15.858-7.339 5.504-19.789 5.504m41.73-1.835v-91.74h16.514v34.73h2.359q1.048-2.097 3.276-4.194t5.898-3.407q3.801-1.442 9.567-1.442 7.602 0 13.237 3.538 5.766 3.408 8.912 9.568 3.145 6.029 3.145 14.154v38.793h-16.513v-37.482q0-7.34-3.67-11.01-3.538-3.669-10.222-3.669-7.602 0-11.795 5.111-4.194 4.98-4.194 14.024v33.026zm111.689 1.835q-9.697 0-17.43-3.932t-12.189-11.402-4.456-17.955v-2.097q0-10.484 4.456-17.955t12.189-11.402 17.43-3.931 17.431 3.931q7.732 3.932 12.189 11.402t4.456 17.955v2.097q0 10.485-4.456 17.955t-12.189 11.402-17.431 3.932m0-14.678q7.602 0 12.582-4.85 4.98-4.98 4.98-14.154v-1.31q0-9.173-4.98-14.024-4.85-4.98-12.582-4.98-7.6 0-12.581 4.98-4.98 4.85-4.98 14.024v1.31q0 9.174 4.98 14.154 4.98 4.85 12.581 4.85m61.028 12.843L737.713 74.79h17.562l15.072 52.948h2.359l15.071-52.948h17.562l-20.707 65.005zM354.73 253.453l21.579-82.305h26.973l21.579 82.305h-15.949l-4.457-18.107h-29.319l-4.456 18.107zm24.042-32.452h22.048l-9.969-40.094h-2.111zm78.55 33.393q-6.802 0-11.962-3.057-5.043-3.174-7.858-8.701-2.814-5.526-2.814-12.698v-34.804h14.776v33.628q0 6.584 3.167 9.876 3.284 3.293 9.264 3.293 6.802 0 10.555-4.468 3.753-4.585 3.753-12.699v-29.63h14.777v58.319h-14.542v-7.642h-2.111q-1.407 2.939-5.278 5.761t-11.727 2.822m73.556.706q-6.92 0-13.017-3.41-5.982-3.528-9.617-10.23t-3.635-16.226v-1.881q0-9.524 3.635-16.226t9.617-10.112q5.98-3.527 13.017-3.527 5.278 0 8.796 1.293 3.635 1.176 5.864 3.057t3.401 3.998h2.111v-30.688h14.776v82.305h-14.542v-7.054h-2.111q-1.994 3.291-6.215 5.996-4.105 2.705-12.08 2.705m4.457-12.934q6.801 0 11.375-4.351 4.574-4.468 4.574-12.933v-1.176q0-8.466-4.574-12.816-4.456-4.468-11.375-4.468-6.803 0-11.376 4.468-4.574 4.35-4.574 12.816v1.176q0 8.465 4.574 12.933 4.574 4.351 11.376 4.351m46.874 11.287v-58.319h14.777v58.319zm7.389-65.139q-3.988 0-6.802-2.586-2.698-2.587-2.698-6.82t2.698-6.82q2.814-2.586 6.802-2.586 4.104 0 6.802 2.586 2.697 2.587 2.697 6.82t-2.697 6.82-6.802 2.586m46.045 65.139q-5.746 0-9.382-3.527-3.519-3.645-3.518-9.641v-32.923H608.2v-12.228h14.543v-18.107h14.776v18.107h15.95v12.228h-15.95v30.336q0 3.527 3.284 3.527h11.258v12.228zm88.89 1.647q-8.443 0-15.363-3.763-6.802-3.88-10.907-11.17-3.987-7.407-3.987-17.99v-19.753q0-15.873 8.913-24.339 8.913-8.583 24.159-8.583 15.128 0 23.338 8.113 8.326 7.995 8.326 21.752v.47h-15.246v-.94q0-4.351-1.876-7.878-1.76-3.528-5.395-5.526-3.635-2.117-9.147-2.117-8.21 0-12.9 5.056-4.692 5.056-4.692 13.757v20.223q0 8.584 4.692 13.875 4.69 5.173 13.134 5.173 8.445 0 12.314-4.468 3.87-4.468 3.87-11.287v-1.176h-19.467V211.36h34.713v42.093h-14.307v-7.877h-2.111q-.822 1.998-2.698 4.232-1.759 2.235-5.394 3.763t-9.969 1.529m49.738-1.647v-58.319h14.542v6.584h2.111q1.29-3.527 4.222-5.173 3.05-1.646 7.036-1.646h7.037v13.169h-7.271q-5.63 0-9.265 3.057-3.635 2.94-3.635 9.171v33.157zm72.113 1.647q-8.678 0-15.597-3.528-6.92-3.527-10.907-10.229t-3.987-16.109v-1.881q0-9.406 3.987-16.108t10.907-10.23q6.92-3.527 15.597-3.527 8.679 0 15.598 3.527t10.907 10.23q3.987 6.702 3.987 16.108v1.881q0 9.407-3.987 16.109t-10.907 10.229-15.598 3.528m0-13.169q6.803 0 11.259-4.351 4.456-4.468 4.456-12.698v-1.176q0-8.23-4.456-12.581-4.34-4.468-11.259-4.468-6.801 0-11.258 4.468-4.457 4.35-4.457 12.581v1.176q0 8.23 4.457 12.698 4.457 4.35 11.258 4.351m66.297 12.463q-6.802 0-11.962-3.057-5.043-3.174-7.858-8.701-2.814-5.526-2.814-12.698v-34.804h14.776v33.628q0 6.584 3.167 9.876 3.284 3.293 9.264 3.293 6.802 0 10.555-4.468 3.753-4.585 3.753-12.699v-29.63h14.777v58.319h-14.542v-7.642h-2.111q-1.408 2.939-5.278 5.761t-11.727 2.822m50.101 22.575v-81.835h14.542v7.055h2.111q1.993-3.41 6.216-5.997 4.222-2.704 12.079-2.704 7.035 0 13.02 3.527c3.99 2.273 7.19 5.644 9.61 10.112 2.43 4.468 3.64 9.877 3.64 16.226v1.881c0 6.35-1.21 11.758-3.64 16.226-2.42 4.468-5.62 7.878-9.61 10.23q-5.985 3.41-13.02 3.41-5.277 0-8.913-1.294-3.518-1.176-5.746-3.057-2.111-1.998-3.401-3.998h-2.111v30.218zm30.492-34.803q6.92 0 11.376-4.351c3.05-2.978 4.57-7.29 4.57-12.933v-1.176c0-5.644-1.52-9.916-4.57-12.816q-4.575-4.468-11.376-4.468-6.803 0-11.376 4.468-4.574 4.35-4.574 12.816v1.176q0 8.465 4.574 12.933 4.573 4.351 11.376 4.351M101.898 0h2.59l-1.783.56q.042-.375-.807-.56m74.267 11.282q17.241-5.86 35.282-2.81 9.321 1.578 16.64 6.094c4.983 3.078 9.958 6.377 14.176 10.482q10.958 10.665 16.095 25.133 2.236 6.291 2.782 13.773.906 12.506-1.133 24.666c-.325 1.932-2.328 2.717-3.638 3.956-8.811 8.33-18.664 14.488-29.223 20.348q-7.071 3.929-14.135 6.434c-1.083.382-2.257-.361-3.362-.566q-12.017-2.195-22.478-3.164a22 22 0 0 1-6.073-1.451c-4.53-1.769 3.921-16.066 5.393-18.664a407 407 0 0 1 9.449-15.875 1.45 1.45 0 0 0-.264-1.871 1.5 1.5 0 0 0-.6-.323 9.7 9.7 0 0 0-3.369-.29 589 589 0 0 1-17.842 1.231q-4.714.248-17.334-.22-9.137-.339-21.544-2.427-2.244-.375-7.127-2.116-4.891-1.741-8.593-5.726a.9.9 0 0 1-.226-.771q.665-3.809 2.215-6.894 8.203-16.35 22.571-30.002c9.222-8.756 20.228-14.835 32.338-18.947"/><path fill="#000" d="M146.699 129.996c-12.562-.595-25.6-3.185-36.683-9.576a2.03 2.03 0 0 1-1.012-1.699q-.446-15.111 3.078-31.418 1.466-6.773 3.624-12.414.898-2.357 2.676-4.381a.83.83 0 0 1 .561-.279.82.82 0 0 1 .592.194q6.731 5.712 15.656 7.254 18.522 3.2 36.854 2.407c6.908-.297 14.7-1.557 22.018-1.678a.66.66 0 0 1 .582.33.66.66 0 0 1 .085.336.66.66 0 0 1-.1.332 467 467 0 0 0-8.89 14.87q-4.134 7.241-6.214 12.882c-.743 2.024-1.663 6.957.623 8.423 1.408.898 3.51 1.387 5.166 1.592q7.51.949 15.642 1.861c2.506.284 4.919.899 7.524 1.076q1.606.114.148.793-1.167.552-2.385.927-19.258 6.03-38.481 7.863-9.088.864-21.064.305m92.917-22.181a265 265 0 0 1 6.936-4.395c4.536-2.782 8.486-6.377 12.032-10.404q.339-.383.828-.383a.41.41 0 0 1 .32.158.43.43 0 0 1 .083.352 161 161 0 0 0-2.003 11.515q-.46 3.363-1.996 6.031a.654.654 0 0 1-1.083.063c-1.351-1.776-2.668-3.645-5.025-4.126q-5.046-1.04-10.135 1.925l-.027.006-.026-.005-.021-.014-.011-.022-.057-.205a.45.45 0 0 1 .011-.28.44.44 0 0 1 .174-.216"/><path fill="#000" d="m252.617 113.929.078-.191a.47.47 0 0 0 .001-.352.47.47 0 0 0-.242-.257c-5.712-2.647-9.342 1.062-14.155 3.362-.892.425-1.494.998-2.039 1.805a.71.71 0 0 1-.665.333l-4.112-.156a.56.56 0 0 1-.487-.341.54.54 0 0 1 .105-.579q5.004-5.457 11.522-8.628 3.263-1.585 6.384-.87c2.357.538 4.219 3.107 5.379 5.081q1.175 1.982.963 5.04a130 130 0 0 0-.304 8.911.3.3 0 0 1-.038.151.31.31 0 0 1-.408.132l-16.484-7.687a.616.616 0 0 1-.029-1.104 68 68 0 0 0 6.894-4.119q3.32-2.258 7.269-.389a.3.3 0 0 0 .106.027.3.3 0 0 0 .109-.018.26.26 0 0 0 .153-.151"/><path fill="#000" d="M205.104 144.222a9.2 9.2 0 0 0-2.25.368q-.701.205-1.14.637c-.474.467-1.267.991-1.953 1.048a.8.8 0 0 0-.63.353.84.84 0 0 1-.475.326l-.976.255a1.6 1.6 0 0 0-.658.34 8.3 8.3 0 0 1-2.761 1.599q-4.374 1.5-7.87 3.744-1.494.963-2.69 1.317-1.083.318-2.066.792-.546.255-1.09.46-3.624 1.367-7.184 2.732-3.78 1.451-7.283 2.102-3.815.708-7.29 1.55-3.405.83-7.227 1.204-8.217.8-14.353.467-5.429-.297-12.131-2.654-2.421-5.252-4.82-13.129-.375-1.239-.234-2.124a.65.65 0 0 1 .404-.516.69.69 0 0 1 .693.063c.51.34.489.935.885 1.331q.284.29.708.325 2.244.213 4.105-.629a.84.84 0 0 1 1.02.28.8.8 0 0 1 .141.349q.92 6.115-1.373 12.174-.029.07.028.128l.184.184q.156.162.255-.043 2.25-4.65 2.229-10.27-.014-2.867-1.267-4.968-2.102-4.204-4.268-5.655c-5.4-3.617-11.012-8.494-14.332-14.092a.12.12 0 0 0-.06-.05.1.1 0 0 0-.074 0l-.241.085a.43.43 0 0 0-.237.23.4.4 0 0 0-.032.165q0 .086.035.165a345 345 0 0 1 2.506 5.867q.029.056.729 2.258c.637 2.003 2.576 3.836 4.034 5.343-.34 2.584.297 3.348 1.876 5.167q.552.644.792 1.635a114 114 0 0 0 4.155 13.426q-.028.73-.34.998a.44.44 0 0 1-.244.104.46.46 0 0 1-.265-.054 132 132 0 0 0-4.417-2.3 4.7 4.7 0 0 1-1.231-.913q-.7-.716-.786-1.451-.17-1.317-.757-1.996a1.14 1.14 0 0 1-.269-.581c-.17-1.182-.934-2.038-1.373-3.114a155 155 0 0 1-5.124-14.665c-.531-1.833.127-3.411-.821-5.145q-.567-1.033-.68-2.52a68 68 0 0 0-.616-5.167q-.212-.48.191-1.132.475-.765 1.076-.099c.481.517.786 1.012 1.451 1.309 6.49 2.902 12.733 5.769 19.634 7.205q34.872 7.269 68.851-2.13 20.823-5.761 38.758-16.838.07-.042.134.014l.149.142q.148.149-.021.269-4.693 3.241-7.63 7.828a205 205 0 0 0-8.776 15.075q-.8 1.515-2.286 2.64a114 114 0 0 1-12.422 8.182m-44.681-3.093q7.771-.319 16.024.743a.276.276 0 0 0 .29-.375l-.064-.163a1.01 1.01 0 0 0-.729-.644 427 427 0 0 0-10.05-2.442q-6.54-1.493-15.338-.467-8.366.984-13.334 1.671-1.748.24-1.175 1.911.056.162.128.297a2.42 2.42 0 0 0 1.092 1.09 2.74 2.74 0 0 0 1.59.262q11.267-1.466 21.566-1.883m-13.271 9.251c1.048 3.071 4.317 5.619 7.453 5.641q2.484.013 4.876-1.395 4.637-2.724 10.695-5.45.432-.19.906-.325 2.321-.65.198-1.798c-3.652-1.967-8.727-3.857-12.846-3.878q-4.53-.036-8.536.792c-3.822.786-3.808 3.306-2.746 6.413m-4.445-3.709q1.812 2.038.496 4.126a.65.65 0 0 0 .237.91.6.6 0 0 0 .336.074q1.911-.092 1.67-1.975-.304-2.413-2.286-4.466a.36.36 0 0 0-.161-.099.36.36 0 0 0-.358.095.4.4 0 0 0-.096.167l-.064.234a1.04 1.04 0 0 0 .226.934"/><path fill="#000" d="M234.448 119.783q.424 1.543-.219 2.095a.556.556 0 0 0-.107.727.6.6 0 0 0 .192.186q1.232.729 2.583 1.111 1.268.362 2.541.906 9.208 3.942 16.456 8.309a243 243 0 0 1 8.196 5.195.85.85 0 0 0 1.309-.778q-.106-1.36.963-1.168l.771.92q.318.375.488-.085l.17-.453v7.906a11 11 0 0 1-.247-1.812c-.135-2.598-3.61-2.711-5.061-1.366-1.239 1.153-2.378 2.569-3.107 4.112q-1.5 3.178-3.206 6.455-1.31 2.52-.765 4.544c.559 2.095 3.122 3.772 5.153 2.201a8.3 8.3 0 0 0 1.904-2.031 116 116 0 0 0 4.091-6.767c.941-1.684 1.054-3.22 1.238-5.082v43.033q-.07-.573-.233-.807-.22-.304-.446-.007-.722.941-2.201 2.47a99.4 99.4 0 0 0-13.774 17.984.18.18 0 0 1-.264.05.2.2 0 0 1-.061-.078q-.538-1.387-.382-3.008.381-4.049.983-7.955.751-4.863-2.824-7.956a.49.49 0 0 1-.106-.608l15.649-26.98q.403-.694.814 0l2.293 3.892q.333.567.389-.085.276-3.036-1.953-4.926-.594-.51-.127-1.125 2.448-3.228 2.052-6.618-.135-1.174-.538-.063c-.453 1.231-.828 2.406-1.5 3.538a1764 1764 0 0 0-18.169 31.05q-1.012 1.77-1.075-.269-.291-9.328-3.737-17.885c-1.742-4.324-2.754-8.868-4.467-13.037a159 159 0 0 1-2.923-7.651c-1.373-3.886-2.519-8.465-4.678-12.032q-1.309-2.173-5.252-3.029a.82.82 0 0 0-.736.177l-3.333 2.71q.396-2.01 1.507-3.779l1.395-2.215a564 564 0 0 0 4.105-7.581q1.288-2.413 6.249-2.335"/><path fill="#000" d="M234.448 119.783q10.907 4.176 15.997 7.099c5.386 3.086 10.856 5.867 15.917 9.484q-1.07-.191-.963 1.168a.853.853 0 0 1-.864.915.85.85 0 0 1-.445-.137 243 243 0 0 0-8.196-5.195q-7.248-4.367-16.456-8.309a21 21 0 0 0-2.541-.906 11 11 0 0 1-2.583-1.111.57.57 0 0 1-.24-.7.56.56 0 0 1 .155-.213q.644-.552.219-2.095m-128.451 1.974q.403 2.548.615 5.167.114 1.487.68 2.519c.948 1.734.29 3.313.821 5.146a155 155 0 0 0 5.124 14.665c.439 1.076 1.203 1.932 1.373 3.114q.05.326.269.58.588.68.757 1.996.086.737.786 1.451.552.567 1.232.913 2.18 1.083 4.416 2.301a.47.47 0 0 0 .265.053.43.43 0 0 0 .245-.103q.31-.269.339-.998l.482 2.442a.9.9 0 0 0 .617.679.9.9 0 0 0 .89-.226q.34-.34.17-.595 6.702 2.357 12.131 2.654 6.137.333 14.354-.467a52 52 0 0 0 7.226-1.203 138 138 0 0 1 7.29-1.55q3.504-.651 7.283-2.102 3.56-1.366 7.184-2.732.545-.205 1.09-.46.984-.474 2.067-.793 1.195-.353 2.689-1.316 3.496-2.244 7.87-3.744a8.3 8.3 0 0 0 2.761-1.6q.29-.247.658-.34l.977-.254a.85.85 0 0 0 .474-.326.81.81 0 0 1 .63-.354c.686-.056 1.479-.58 1.953-1.047q.44-.432 1.14-.637a9.3 9.3 0 0 1 2.25-.368q-13.942 8.4-28.353 14.226-3.814 1.542-8.5 2.852a9.5 9.5 0 0 0-2.123.885 3.9 3.9 0 0 1-1.586.502 8 8 0 0 0-1.578.326q-11.912 3.737-25.664 3.164-3.85-.163-7.311-1.027-3.858-.962-6.625-2.328-2.95-1.458-5.91-4.275-2.2-2.095-3.899-5.252-5.81-10.822-7.885-22.627-.8-4.537.326-8.911"/><path fill="#000" d="M112.253 131.935q-.616-.319.247-.602a.79.79 0 0 1 .814.198 45.6 45.6 0 0 0 5.492 4.763q1.155.857-.276 1.055c-3.121.432-4.996-2.52-5.931-5.025a.72.72 0 0 0-.346-.389m134.483 151.173H190.22q.199-.828-.226-2.067-.552-1.585-.637-1.946-4.232-17.482-5.627-34.235a15.7 15.7 0 0 1 .418-5.11.824.824 0 0 0-.404-.913q-7.403-4.105-12.718-11.147-.418-.553-.354.134.092.963.764 1.72a30 30 0 0 1 2.973 3.964.456.456 0 0 1-.168.652.46.46 0 0 1-.243.055l-6.462-.247q-.247-.008-.184.226l.043.177a.2.2 0 0 0 .066.106.2.2 0 0 0 .118.043c2.859.049 5.436.764 8.274.552a.74.74 0 0 1 .8.736q.07 4.926-3.61 6.83c-5.903 3.05-8.097-5.004-8.451-8.847q-.297-3.186 1.14-6.816 1.995-5.04 4.19-8.72 2.463-4.105 6.44-2.81 3.554 1.147 6.915 3.327 5.882 3.807 11.367 7.346 4.778 3.079 9.017 4.679 2.76 1.047.219-.46c-6.426-3.808-13.115-7.821-19.527-12.188q-3.872-2.626-7.955-4.162a.57.57 0 0 1-.375-.453.57.57 0 0 1 .067-.38.6.6 0 0 1 .294-.257c2.441-.962 5.931-2.413 5.867-5.464q-.007-.198-.191-.226-.12-.021-.205.106a.3.3 0 0 0-.057.12c-.198.871-.503 1.756-1.324 2.223a62 62 0 0 1-3.829 2.045c-2.087 1.019-4.197.071-6.143-.693q-.127-.057-.205.063l-.099.149q-.29.438.205.63l2.42.927a.6.6 0 0 1 .022 1.118q-4.275 1.848-5.882 7.135a.84.84 0 0 1-.481.537q-1.43.596-1.628-1.875a1.5 1.5 0 0 1 .035-.481 52.4 52.4 0 0 0 1.395-9.789q.248-5.393 4.211-8.514 3.864-3.05 8.705-5.839 2.584-1.494 4.87-2.18c3.723-1.126 7.439 1.359 10.185 3.786 6.851 6.059 13.277 12.655 19.662 19.259a25.1 25.1 0 0 0 5.775 4.466c.054.03.117.039.177.024a.23.23 0 0 0 .141-.102l.107-.163a.414.414 0 0 0-.114-.566c-1.288-.927-2.576-1.876-3.68-3.001a1180 1180 0 0 0-17.305-17.256q-4.452-4.352-9.42-7.403c-3.008-1.854-5.74-1.309-8.685.489a158 158 0 0 1-8.16 4.635q-.85.446-.453-.424 2.03-4.523 3.199-8.706.644-2.328 2.944-3.482a29.5 29.5 0 0 1 7.347-2.548q6.518-1.352 11.82-3.496a5.25 5.25 0 0 1 2.095-.397c2.923.071 4.862-.87 6.971 2.039q10.482 14.516 23.399 28.799a133 133 0 0 0 7.594 7.736q.114.105.227 0l.141-.128a.34.34 0 0 0 .083-.407.34.34 0 0 0-.09-.116 28.6 28.6 0 0 1-3.355-3.207q-6.023-6.752-9.547-11.515-.595-.807-.255-1.819c.382-.248.743-.495.906-.941q.998-2.753.573-5.309-.31-1.91-.233-4.324.276-8.401-.899-16.208l-.085-2.506a.85.85 0 0 1 .141-.502 2.8 2.8 0 0 0 .446-1.861c-.304-2.853-.262-6.809 1.593-9.258q.367-.489.679.035a11 11 0 0 1 1.083 2.378 97 97 0 0 1 2.732 10.164q.008.05.057.042l.177-.035q.212-.042.176-.255a66.7 66.7 0 0 0-2.965-11.487q-.396-1.096-1.458-1.656a.59.59 0 0 0-.672.05c-2.202 1.649-2.138 5.485-2.011 8.019q.022.431-.382.283-.417-.156-.715-.75a54 54 0 0 1-.495-5.188c-.099-2.216-2.06-3.957-2.718-5.974q-2.867-8.748.949-16.696.714-1.501 2.349-2.626 1.239-.857 2.52-.503c2.307.63 3.567 1.989 4.126 4.219q1.827 7.275 4.58 13.44a124 124 0 0 1 3.829 9.654 447 447 0 0 1 4.175 12.563q.984 3.121 1.536 9.251.34 3.7 1.041 7.028c.771 3.659 1.203 7.538 1.982 11.26.396 1.883.679 3.744 1.323 5.542 2.102 5.853 4.685 12.032 3.355 18.331a70 70 0 0 0-.602 3.27c-1.996 12.719-3.27 25.579-5.626 38.156-.963 5.11-.73 10.263-.553 15.401q.014.39.383.517zm-21.778-140.025q-.566-1.79-.489-4.225.008-.255-.247-.241l-.213.014q-.17.008-.177.177a15.8 15.8 0 0 0 .545 4.735c.616 2.265 4.842 1.791 6.3 1.267a1.02 1.02 0 0 0 .537-.446q.439-.708-.346-.439c-1.437.489-5.245 1.239-5.91-.842m-1.161 10.843-1.345-1.55q-.354-.41-.262.127a3.32 3.32 0 0 0 1.154 2.039 1.47 1.47 0 0 0 1.275.304 1.46 1.46 0 0 0 1.004-.842q.722-1.671.17-3.582-.127-.446-.205.015l-.503 3.128a.73.73 0 0 1-.528.593.74.74 0 0 1-.76-.232m4.947 1.451 5.238.318a.3.3 0 0 0 .211-.069.3.3 0 0 0 .1-.2l.007-.169a1.05 1.05 0 0 0-.126-.559 1.5 1.5 0 0 0-.427-.494 2.4 2.4 0 0 0-.665-.353 3 3 0 0 0-.799-.159l-1.614-.099c-.558-.033-1.102.087-1.512.332s-.653.597-.675.978l-.014.17a.3.3 0 0 0 .075.209.3.3 0 0 0 .201.095m-2.137 15.493q-.403-.693-.489.106-.332 3.057 2.301 5.768a.64.64 0 0 0 .658.184q2.258-.602 2.774-2.816a.3.3 0 0 0-.056-.269q-.064-.093-.205-.071a.29.29 0 0 0-.248.17 7.3 7.3 0 0 1-1.642 2.059q-.304.262-.637.043-1.345-.906-1.876-2.293c-.382-.984-.021-1.918-.58-2.881m13.603 5.832c-.863.248-2.173.035-2.796-.687q-.219-.254-.46-.028l-.828.757a.383.383 0 0 0 .135.644q2.632.871 5.188.616.998-.099.354-.87-.595-.722-1.593-.432m-40.473 3.798q.076.057.177.066a.5.5 0 0 0 .213-.029.8.8 0 0 0 .217-.119 1 1 0 0 0 .316-.426.8.8 0 0 0 .052-.242.5.5 0 0 0-.034-.213.34.34 0 0 0-.291-.216.5.5 0 0 0-.213.029.8.8 0 0 0-.217.119 1 1 0 0 0-.317.426.8.8 0 0 0-.051.242.5.5 0 0 0 .034.213.34.34 0 0 0 .114.15m6.691 12.608a111 111 0 0 1 6.186 5.924q5.953 6.172 11.721 12.145a142 142 0 0 1 2.081 2.202c1.982 2.137 1.946 4.798.616 7.268q-.164.312.184.383l.254.049a.33.33 0 0 0 .22-.032.32.32 0 0 0 .148-.166 16.4 16.4 0 0 0 1.083-4.027c.163-1.211-.63-2.626-1.429-3.447-6.016-6.193-11.969-12.62-18.296-18.572-4.027-3.787-7-7.064-10.093-11.112q-.113-.156-.269-.035l-.156.12a.353.353 0 0 0-.07.488q3.552 5.04 7.82 8.812m30.321-4.339a19 19 0 0 0-.439-3.192q-.007-.042.036-.049h.014q.057-.007.057.049c-.163 2.117.24 4.169.035 6.236q-.362 3.752-1.479 8.175-.73 2.873-2.669 4.635a.62.62 0 0 1-.405.162.64.64 0 0 1-.416-.14q-3.177-2.513-3.977-6.257-.135-.644-.184.014c-.05.694-.333 1.182.049 1.897q1.515 2.867 3.851 4.77a1.08 1.08 0 0 0 1.366.007q1.917-1.557 2.632-3.998 1.713-5.896 1.749-11.707a.62.62 0 0 0-.149-.41.3.3 0 0 1-.071-.192m-53.075 7.22q.353-.482.778-.963.651-.75-.297-.467a2.13 2.13 0 0 0-1.38 1.175 3 3 0 0 0-.269 1.387q.063 2.449 2.916 4.862a359 359 0 0 0 11.777 9.555q.8.624 2.994 1.812a28 28 0 0 1 2.916 1.819 87 87 0 0 0 6.257 4.056c.99.587 1.684 1.536 2.774 1.939q.453.17.326-.304a2.2 2.2 0 0 0-1.012-1.352c-5.429-3.277-10.702-6.597-15.883-10.411-3.291-2.428-7.007-5.84-10.666-8.699-.878-.686-2.18-3.149-1.231-4.409m32.132 33.838c-.304 1.607-2.024 2.47-3.524 2.18a19.4 19.4 0 0 1-2.739-.743q-.546-.191-.843.304l-.099.17a.26.26 0 0 0-.033.21.28.28 0 0 0 .132.172c7.255 3.992 10.532-2.349 7.361-8.203a.84.84 0 0 0-.545-.417l-.276-.071a.27.27 0 0 0-.29.098.27.27 0 0 0-.021.305q1.5 2.661.877 5.995m-12.428 3.22q-2.845-.438-3.178 2.088a38.4 38.4 0 0 1-1.168 5.67c-.941 3.27-3.893 6.285-7.41 4.338a.79.79 0 0 0-.864.064q-1.352 1.005-1.62 2.569-.616 3.574.311 7.552c1.932 8.26 4.869 16.123 7.828 24.1a23 23 0 0 0 1.656 3.482q.056.091.149.042l.177-.085q.17-.084.099-.262a213 213 0 0 1-8.048-22.691q-1.38-4.728-1.656-9.208-.12-1.946.503-3.822a1.3 1.3 0 0 1 .696-.774 1.3 1.3 0 0 1 1.045-.018c3.801 1.564 6.646-1.239 7.715-4.657q.92-2.945 1.026-6.427a1.756 1.756 0 0 1 1.819-1.706l.927.036q2.414.085-.007-.291"/><path fill="#000" d="M150.309 172.01a3 3 0 0 0-.007.368q.021.432.255.785a19.5 19.5 0 0 1 2.456 5.316c1.04 3.51-2.124 5.549-5.167 5.966-2.669.361-5.351-.991-7.956-1.529-2.753-.566-5.308.446-8.026 1.005-3.22.659-8.026-2.413-9.88-4.345q-1.267-1.316-.814-3.263.97-4.19 2.732-8.925a6.5 6.5 0 0 1 .955-1.741q.255-.333.652-.205 10.021 3.284 21.919 2.102 13.228-1.317 27.207-6.427 6.03-2.2 12.902-5.393 13.668-6.35 26.089-15.33a19 19 0 0 0 2.095-1.77q1.869-1.812.793.552a39 39 0 0 1-1.734 3.362 2006 2006 0 0 0-19.337 34.461q-.559 1.027-1.833 1.289-8.627 1.776-15.125 4.636c-1.472.644-3.057 1.634-3.687 3.213a465 465 0 0 1-5.436 13.03c-.864 1.989-2.548 3.234-3.15 5.358-1.309 4.671-1.33 9.838-2.427 14.728a5.3 5.3 0 0 0-.078 1.975.506.506 0 0 1-.368.559c-8.083 2.265-13.243-1.911-16.293-8.769a4 4 0 0 0-.566-.927l-.743-.927a.44.44 0 0 1-.077-.424.45.45 0 0 1 .317-.291q4.353-1.07 8.734-4.339c1.635-1.224 3.567-2.123 5.606-2.399a.44.44 0 0 0 .389-.333q.106-.411-.311-.432c-4.559-.212-6.915 2.265-10.369 4.396q-3.709 2.279-7.616 1.903c-3.617-.353-6.016-5.011-6.412-8.153a.55.55 0 0 1 .559-.623q1.585.036 3.072-.8.417-.24.254-.764a.52.52 0 0 0-.538-.361c-1.38.113-3.786.623-4.805-.396a53 53 0 0 1-3.985-4.502 1.7 1.7 0 0 1-.375-1.238q.255-2.888-.113-5.903a.96.96 0 0 1 .216-.742.97.97 0 0 1 .69-.348 20.8 20.8 0 0 0 5.485-1.048c2.385-.807 5.124.206 7.417.991 3.136 1.069 6.745.425 9.067-1.882 3.475-3.461.594-8.508-2.117-11.622q-.445-.51-.516.156m-13.766 22.096-1.062 2.06a.51.51 0 0 0 .411.743l.254.021q.475.036.637-.41.496-1.317.114-2.385-.149-.418-.354-.029m12.832 7.057a27 27 0 0 0 2.866 1.564q.184.085.269-.099l.078-.184q.106-.234-.113-.361a188 188 0 0 0-3.815-2.131q-2.28-1.238-5.783-1.373-.078 0-.078.071l-.014.191q-.021.284.262.312 3.715.367 6.328 2.01m-1.319 2.421a.2.2 0 0 0-.003-.072.2.2 0 0 0-.03-.065.2.2 0 0 0-.053-.049.2.2 0 0 0-.067-.025l-9.102-1.441a.18.18 0 0 0-.185.085.2.2 0 0 0-.025.068l-.029.181a.2.2 0 0 0 .003.072.2.2 0 0 0 .03.065q.021.03.053.049.03.02.067.025l9.102 1.441a.2.2 0 0 0 .071-.002.2.2 0 0 0 .066-.03.2.2 0 0 0 .073-.12zm71.558-64.288a41 41 0 0 1-1.161 4.148c-.431 1.295-.325 2.3-.148 3.581a.96.96 0 0 0-.475-.007q-.17.05-.318.297a543 543 0 0 0-16.576 28.707 6.4 6.4 0 0 0-1.564.305q-2.01.657-.977-1.19l20.398-36.223a.38.38 0 0 1 .304-.191q.475-.043.517.573m-102.585-.376c.573.234 1.026.503 1.692.496 1.748-.028 4.621.396 5.096 2.505q-1.077 1.798-2.718 1.777c-1.543-.021-2.308-1.118-2.803-2.421a.68.68 0 0 0-.51-.446 2.27 2.27 0 0 1-1.366-.898.52.52 0 0 1-.028-.645q.213-.325.637-.368m144.188 5.671q.623.099.672.991.021 1.138.51 1.719.269.312.332-.092.185-1.182-.34-2.463l.411-1.231q3.284-2.315 3.666 1.401.107 1.062-.771 2.272-.142.198.049.361.354.291.255.75c-.417 1.954-1.812 3.051-2.583 4.856-.807 1.882-2.23 3.963-4.063 5.032a.97.97 0 0 1-.892.049c-3.213-1.422-1.755-4.437-.587-6.646q.764-1.458 1.607-3.545a23 23 0 0 1 1.734-3.454m3.857 2.753a2.25 2.25 0 0 0-1.317.304q-.573.326-.212.927.248.418.602.092l1.054-.934q.383-.34-.127-.389m-2.3 1.224a1.3 1.3 0 0 1-.199-.198.34.34 0 0 0-.261-.133.36.36 0 0 0-.276.112l-.383.396q-.232.248.078.382.772.333 1.154 1.232.77 1.826.616-.149a5.2 5.2 0 0 1 .049-1.238q.043-.248-.205-.227a.6.6 0 0 1-.227-.014.8.8 0 0 1-.346-.163m-.729 3.872a5 5 0 0 0-1.48.205.43.43 0 0 0-.297.276.43.43 0 0 0 .014.304.554.554 0 0 0 .609.319q.92-.184 1.784-.899.381-.312-.1-.403a.5.5 0 0 0-.53.198m-2.257 2.853c-.019-.185-.153-.35-.374-.46a1.5 1.5 0 0 0-.802-.125 1.7 1.7 0 0 0-.418.096c-.13.049-.247.113-.343.188a.8.8 0 0 0-.217.25.5.5 0 0 0-.057.276c.019.185.153.35.374.46.221.109.509.154.803.124.145-.014.287-.047.417-.096q.197-.073.344-.187a.8.8 0 0 0 .216-.251.5.5 0 0 0 .057-.275m-102.09-2.216q3.333-3.54 1.295-6.908a.59.59 0 0 1 .022-.653.6.6 0 0 1 .608-.239q4.374.898 8.38 1.996a4.7 4.7 0 0 1 1.408.658.35.35 0 0 1 .15.335.36.36 0 0 1-.073.176.36.36 0 0 1-.155.112 98 98 0 0 0-9.512 4.204 4.6 4.6 0 0 1-2.038.51.1.1 0 0 1-.064-.018.1.1 0 0 1-.043-.05.1.1 0 0 1-.008-.065.1.1 0 0 1 .03-.058"/><path fill="#000" d="M156.629 145.362a1.665 1.665 0 0 1 1.841 1.458l.106.92a5 5 0 0 1-.113 1.77 4.6 4.6 0 0 1-.726 1.575 4.2 4.2 0 0 1-1.228 1.138c-.475.286-1 .465-1.543.528l-.141.014c-1.097.127-2.203-.229-3.076-.988s-1.442-1.86-1.581-3.06l-.107-.92a1.66 1.66 0 0 1 .841-1.648c.19-.106.4-.174.617-.2zm-7.99 4.118a.08.08 0 0 1-.035.047.08.08 0 0 1-.057.01l-.05-.007c-.254-.067-.461-.272-.575-.571a1.7 1.7 0 0 1-.034-1.022l.057-.219c.092-.355.28-.67.524-.876s.524-.285.778-.221l.05.014a.08.08 0 0 1 .047.035q.016.027.01.057zm69.666-2.456q.212 2.244.396 4.53.24 2.867 2.888 6.795.587.863.835 2.746.771 5.98 1.451 11.798c.219 1.89 1.253 3.737 1.111 5.578q-.524 6.823.248 16.165.212 2.598-1.274 4.714-.645-.432-.878-.701a288 288 0 0 1-15.528-19.556c-1.076-1.486-2.265-2.661-3.985-2.739q-1.571-.078-2.633-.332a543 543 0 0 1 16.576-28.707q.149-.248.318-.297a.96.96 0 0 1 .475.006"/><path fill="#000" fill-rule="evenodd" d="M57.174 283.108h52.092q-.184-1.026.113-2.357.269-1.196.432-2.357c1.883-13.511 4.728-26.937 8.104-39.868q1.266-4.841 3.985-12.959 3.106-9.25 7.219-16.697 1.989-3.588 4.692-6.016c.836-.75.871-2.18.163-3.001q-2.385-2.752-4.834-5.598a2.37 2.37 0 0 1-.573-1.692l.389-6.171a1.3 1.3 0 0 0-.764-1.267c-6.215-2.817-10.773-5.429-7.191-13.285a.48.48 0 0 0-.19-.611.5.5 0 0 0-.221-.069 9 9 0 0 0-1.967.114q-9.612 1.591-21.064 4.671c-1.504.407-2.933.956-4.362 1.505-1.8.691-3.601 1.383-5.553 1.793-5.422 1.133-9.046 6.837-11.318 11.374q-1.755 3.51-4.09 6.278c-2.01 2.385-3.016 5.188-3.957 8.125-1.09 3.403-3.631 6.059-6.132 8.674-1.104 1.155-2.2 2.301-3.161 3.5l-1.337 1.669c-4.29 5.348-8.516 10.619-12.139 16.634a19.9 19.9 0 0 0-2.428 6.023c-.257 1.176-1.473 2.227-2.479 3.096-.21.181-.411.355-.592.52a11 11 0 0 0-1.826 2.145c-.48.737-.978 1.416-1.468 2.085-1.17 1.597-2.294 3.13-3.012 5.226a.73.73 0 0 1-.574.51c-1.45.298-1.92 1.285-2.427 2.348-.179.375-.363.76-.595 1.127a5.8 5.8 0 0 1-1.465 1.557 107 107 0 0 0-9.109 7.524q-9.45 8.776-16.739 14.594c-.32.257-.39.479-.441.637-.033.102-.057.178-.135.219h-.546c.306.05.46.047.546 0h52.923q.665-5.683 2.144-15.04.312-2.01.085-4.848-.063-.856-.686-1.302c-2.867-2.067-5.124 5.35-5.436 7.063-.134.765-.573 1.989-1.175 2.513-1.546 1.328-1.76 2.533-2.022 4.009-.087.49-.18 1.011-.328 1.575q-.68 2.626-2.944 1.43c-1.755-.927-3.532-2.845-4.6-4.572a108 108 0 0 1-3.914-6.816 11 11 0 0 0-1.338-2.003q-1.99-2.343-1.72.715.177 2.038.764 4.126 1.38 4.94 3.992 8.054c.716.852 1.524 1.61 2.334 2.37.744.698 1.49 1.398 2.168 2.174a.19.19 0 0 1 .029.191.2.2 0 0 1-.064.074.17.17 0 0 1-.093.025h-.46a1.11 1.11 0 0 1-.892-.446c-.521-.689-1.118-1.243-1.716-1.798-.457-.424-.915-.849-1.341-1.337q-4.678-5.316-5.365-12.457a11.2 11.2 0 0 1 .212-3.489.73.73 0 0 1 .43-.514.73.73 0 0 1 .667.054q.807.502 1.338 1.246a57 57 0 0 1 3.928 6.377q2.272 4.274 5.96 7.169a1.05 1.05 0 0 0 .998.159 1.03 1.03 0 0 0 .658-.76l.842-4.042c.069-.326.24-.623.488-.849q1.791-1.571 2.145-3.595.693-3.97 3.008-6.738c1.182-1.423 3.03-2.265 4.459-.404a.41.41 0 0 0 .412.146.41.41 0 0 0 .303-.316q3.644-19.222 9.873-37.342a173 173 0 0 1 9.527-22.478q.609-1.197 2.038-3.086.091-.12.198-.029a.2.2 0 0 1 .043.057.13.13 0 0 1 0 .12q-10.44 22.21-15.635 43.394-4.678 19.095-7.283 41.22m7.459-14.484a.3.3 0 0 0-.07.152q-.064.361.114.686 1.11 2.038 3.241 3.9 5.47 4.785 10.56 9.194.283.248-.085.354a1.5 1.5 0 0 1-.672.035 2.15 2.15 0 0 1-1.04-.467q-4.53-3.807-9.195-7.743-4.246-3.58-5.598-8.705a.559.559 0 0 1 .856-.609c.42.281.774.656 1.131 1.034.263.279.528.56.823.806A1311 1311 0 0 1 80.29 280.56c.899.779 1.904 1.402 2.937 1.954q.602.326-.078.354a2.6 2.6 0 0 1-1.805-.616 603 603 0 0 1-16.264-13.667.3.3 0 0 0-.311-.058.3.3 0 0 0-.136.097m-2.736 13.767q.057.129.032.25c-.034.162-.177.294-.4.367a1.6 1.6 0 0 1-.787.024 1.8 1.8 0 0 1-.396-.131 1.3 1.3 0 0 1-.316-.203.7.7 0 0 1-.19-.246.4.4 0 0 1-.032-.25c.034-.162.178-.294.4-.367s.506-.081.787-.023q.212.044.396.13.185.088.317.204a.7.7 0 0 1 .189.245" clip-rule="evenodd"/><path fill="#000" d="M267.792 188.578v94.529l-20.794.001.198-.127a.43.43 0 0 0 .219-.453q-.807-6.823-.085-11.636a3675 3675 0 0 0 3.667-24.772c.884-6.122 1.996-12.06 2.838-18.324q.75-5.564.382-8.394-.573-4.417-2.336-8.798a1.55 1.55 0 0 1 .121-1.394q6.9-11.281 15.79-20.632m-7.014 63.324.941.708a.13.13 0 0 0 .094.022.13.13 0 0 0 .083-.051l2.109-2.803a150 150 0 0 0 3.263-4.496c.839-1.215 1.277-1.929 1.217-1.987l-.644-.481c-.024-.036-.172.093-.436.381s-.639.728-1.102 1.296c-.462.568-1.005 1.251-1.595 2.01-.59.76-1.216 1.58-1.842 2.414l-2.109 2.81a.13.13 0 0 0-.026.093.13.13 0 0 0 .047.084m-7.241 31.113 6.646-.255a.1.1 0 0 0 .032-.009.1.1 0 0 0 .043-.049.1.1 0 0 0 .003-.034v-.07c-.016-.277-.378-.528-1.008-.699s-1.476-.248-2.354-.214l-.17.007c-.878.033-1.716.175-2.331.394s-.958.497-.953.774v.07q0 .018.007.035a.1.1 0 0 0 .051.046q.017.006.034.004m-4.933-82.206-1.394-10.093a.566.566 0 0 1 .807-.588q.312.15.502.489 2.64 4.65.963 10.255-.588 1.996-.878-.063m-110.66 82.298h-27.858a383 383 0 0 1 12.152-55.701c1.373-4.615 3.313-9.216 5.315-13.582q2.47-5.386 6.505-9.987a.69.69 0 0 1 .88-.138.7.7 0 0 1 .231.223c1.649 2.555 3.305 5.202 6.285 6.087q1.21.36 2.463.637a1.34 1.34 0 0 1 .906.7 74 74 0 0 0 3.164 5.705q2.768 4.452 7.566 6.15.863.312.46 1.133-3.497 7.155-6.278 15.224-4.275 12.408-7.778 26.272a857 857 0 0 1-3.638 13.922 14 14 0 0 1-.545 1.621q-.63 1.557.17 1.734"/><path fill="#000" d="M189.64 283.107h-50.23q3.885-16.03 5.733-22.464 4.742-16.526 10.269-29.783a978 978 0 0 1 2.52-6.016q.418-.998 1.508-1.09 3.163-.255 5.577-.934a.63.63 0 0 1 .659.206.63.63 0 0 1 .084.685q-4.799 9.86.75 19.075c.857 1.422 2.867 1.691 4.396 1.642 4.338-.135 6.058-2.909 6.978-6.639q.269-1.083 1.133-.375a14.7 14.7 0 0 0 3.694 2.229.86.86 0 0 1 .48.51c.04.113.056.234.047.353a.9.9 0 0 1-.102.341q-.396.721-.389 1.528.02 5.535.877 11.707 1.274 9.18 4.126 23.271.773 3.793 1.89 5.754"/></svg>