<svg xmlns="http://www.w3.org/2000/svg" fill="none" viewBox="0 0 1024 222"><path fill="#000" d="M325.969 206.794V67.46h20.764l1.977 11.247h.989c5.932-7.703 16.014-13.221 30.051-13.221 25.69 0 46.259 20.924 46.259 51.898 0 30.973-20.551 51.897-46.259 51.897-13.842 0-23.519-5.729-28.656-12.234h-.99v49.729h-24.117zm75.904-89.393c0-18.157-11.67-29.598-25.902-29.598-14.231 0-25.901 11.441-25.901 29.598 0 18.158 11.67 29.598 25.901 29.598s25.902-11.44 25.902-29.598m36.38.002c0-30.198 21.735-51.898 50.797-51.898s50.797 21.7 50.797 51.898c0 30.197-21.735 51.898-50.797 51.898s-50.797-21.912-50.797-51.898m77.282 0c0-17.77-11.865-29.598-26.485-29.598s-26.679 11.847-26.679 29.598c0 17.752 12.059 29.404 26.679 29.404s26.485-11.635 26.485-29.404m41.777-88.213h24.118v138.152h-24.118zm113.66 38.27h25.69l-43.488 121.37c-4.343 12.04-10.276 17.962-25.901 17.962h-23.325v-22.299h19.776c3.567 0 5.526-1.78 6.727-4.742l2.365-6.505-40.715-105.787h25.69l25.902 69.28h3.955zm30.302 104.8h24.507c.989 6.506 7.504 15.39 22.936 15.39 14.424 0 23.924-9.079 23.924-22.899v-14.014h-.99c-5.332 5.728-15.219 10.858-27.878 10.858-25.69 0-45.466-19.744-45.466-48.16 0-28.417 19.776-47.95 45.466-47.95 13.241 0 22.936 5.325 29.061 12.834h.989l1.978-10.859h20.958v97.291c0 26.442-17.798 44.018-48.042 44.018-33.794 0-46.842-22.107-47.443-36.509m71.367-58.808c0-15.583-11.071-26.442-25.107-26.442-14.037 0-24.914 10.859-24.914 26.442s11.071 26.637 24.914 26.637c13.842 0 25.107-10.86 25.107-26.637m40.88 3.951c0-30.198 21.735-51.898 50.797-51.898s50.797 21.7 50.797 51.898c0 30.197-21.735 51.898-50.797 51.898s-50.797-21.912-50.797-51.898m77.282 0c0-17.77-11.866-29.598-26.485-29.598s-26.679 11.847-26.679 29.598c0 17.752 12.059 29.404 26.679 29.404s26.485-11.635 26.485-29.404m41.102 49.922V67.46h20.746l1.977 9.467h.99c3.954-4.53 13.842-11.441 28.855-11.441 22.927 0 39.527 16.57 39.527 41.832v59.989h-24.116v-56.833c0-12.834-9.093-22.106-21.54-22.106s-22.338 9.677-22.338 22.106v56.833h-24.119zm-746.319-11.652 59.289-34.181a10.18 10.18 0 0 0 5.085-8.797V44.333c0-3.614-1.942-6.98-5.085-8.797l-59.289-34.18a10.22 10.22 0 0 0-10.171 0l-59.29 34.18a10.18 10.18 0 0 0-5.084 8.797v122.164L69.46 190.453l-41.58-23.956v-47.931l41.58-23.957 27.42 15.812V78.267L74.546 65.381a10.26 10.26 0 0 0-5.085-1.357 10.26 10.26 0 0 0-5.085 1.357L5.085 99.562A10.18 10.18 0 0 0 0 108.36v68.363a10.18 10.18 0 0 0 5.085 8.795l59.29 34.182a10.26 10.26 0 0 0 10.17 0l59.29-34.182a10.18 10.18 0 0 0 5.084-8.795V54.54l.742-.423 40.822-23.534 41.581 23.957v47.931l-41.581 23.957-27.386-15.778v32.155l22.3 12.851c3.144 1.798 7.045 1.798 10.171 0z"/></svg>
