<svg xmlns="http://www.w3.org/2000/svg" fill="none" viewBox="0 0 1024 280"><path fill="#000" d="M426.853 128.446c0 14.732-10.648 26.752-32.198 26.752h-22.641v28.047a1.74 1.74 0 0 1-1.706 1.705h-7.811a1.73 1.73 0 0 1-1.704-1.705v-79.84a1.73 1.73 0 0 1 1.704-1.709h32.161c21.551 0 32.198 12.011 32.198 26.75zm-11.764 0c0-9.451-5.694-17.193-22.646-17.193h-20.418v34.387h20.418c16.949 0 22.647-7.711 22.647-17.194m146.216 14.874a41.87 41.87 0 0 1-24.904 39.285 41.8 41.8 0 0 1-15.933 3.567q-.796.02-1.592 0a42.84 42.84 0 0 1-39.874-26.167 42.9 42.9 0 0 1-2.609-24.796 42.87 42.87 0 0 1 11.627-22.053 42.84 42.84 0 0 1 21.928-11.847 42.8 42.8 0 0 1 24.808 2.367 42.86 42.86 0 0 1 26.543 39.636zm-11.774-.008c0-19.719-12.856-33.299-30.657-33.299s-30.659 13.586-30.659 33.299 12.858 33.304 30.661 33.304 30.657-13.581 30.657-33.304m129.127 38.256a2.053 2.053 0 0 1-1.804 3.374h-8.016a1.6 1.6 0 0 1-.743-.209 1.56 1.56 0 0 1-.555-.537l-20.12-30.367h-21.626v29.412c-.006.451-.188.88-.507 1.198-.317.319-.746.5-1.197.506h-7.821a1.74 1.74 0 0 1-1.198-.506 1.74 1.74 0 0 1-.507-1.198v-79.844a1.74 1.74 0 0 1 1.705-1.706h30.794c21.556 0 32.198 11.329 32.198 26.07 0 11.701-6.675 21.257-20.222 24.701zm-33.809-37.301c16.949 0 22.642-7.028 22.642-16.514 0-9.452-5.693-16.517-22.642-16.517h-19.044v33.031zm155.16-40.864v6.14c-.006.444-.182.87-.494 1.189a1.72 1.72 0 0 1-1.18.515h-28.86v71.998a1.73 1.73 0 0 1-1.706 1.705h-7.806a1.733 1.733 0 0 1-1.708-1.705v-71.998h-28.843a1.74 1.74 0 0 1-1.201-.504 1.73 1.73 0 0 1-.506-1.2v-6.14a1.733 1.733 0 0 1 1.707-1.706h68.928a1.73 1.73 0 0 1 1.673 1.706m106.181 82.228a1.9 1.9 0 0 1-1.944-1.265l-9.07-20.98h-39.084l-9.714 20.98a2 2 0 0 1-1.943 1.265h-8.322c-1.227 0-1.941-.746-1.36-2.013l38.468-81.344a1.97 1.97 0 0 1 1.941-1.263h2.726a2.04 2.04 0 0 1 1.95 1.263l36.999 81.344c.549 1.263-.031 2.013-1.261 2.013zm-14.929-31.253-14.975-34.634-16.029 34.634zM1024 177.103v6.141a1.65 1.65 0 0 1-.41 1.165 1.62 1.62 0 0 1-1.11.539c-.06.005-.13.005-.19 0h-55.489a1.726 1.726 0 0 1-1.701-1.704v-79.841c.006-.451.188-.88.506-1.198.317-.319.746-.5 1.195-.508h7.811a1.73 1.73 0 0 1 1.704 1.706v71.991h45.974a1.62 1.62 0 0 1 1.71 1.517v.196m-744.201-37.208a139.9 139.9 0 0 1-10.65 53.537 139.88 139.88 0 0 1-75.713 75.713 139.89 139.89 0 0 1-152.46-30.326 139.899 139.899 0 1 1 238.823-98.924M139.591 1.927c-24.209.066-47.852 6.38-68.816 18.536a.06.06 0 0 0-.03.037.06.06 0 0 0 .007.047l14.202 24.599q.06.1.16.045 1.535-.842 3.078-1.67 21.521-11.532 45.97-12.86 1.692-.09 5.386-.142.111 0 .111-.11V1.994q0-.068-.068-.068m67.826 17.621C187.16 8.14 164.437 2.162 141.208 1.938q-.111-.003-.111.11v28.358q0 .103.103.107 1.695.064 3.389.138 25.891 1.132 48.526 13.644a.08.08 0 0 0 .109-.029l14.218-24.625q.035-.058-.025-.093m1.26.812-14.214 24.62a.07.07 0 0 0-.007.055.07.07 0 0 0 .034.045q22.147 12.905 36.441 34.149.705 1.045 2.871 4.522.066.108.175.046l24.599-14.204q.057-.033.024-.088c-12.202-20.411-29.179-37.206-49.798-49.178q-.08-.046-.125.033m-139.08 1.046q-.117-.204-.318-.082-30.76 18.561-48.905 49.572-.06.1.041.158l24.577 14.19q.084.048.134-.034 1.126-1.833 2.276-3.645 13.992-22.03 36.3-35.546.078-.047.033-.125zm29.504 39.972c12.494-6.529 26.348-9.862 40.435-9.888q.123 0 .123-.124V32.62q0-.2-.201-.199-28.666.222-53.401 14.436a.1.1 0 0 0-.037.135l9.374 16.238q.06.103.163.047a214 214 0 0 1 3.544-1.898m93.065-15.408c-15.7-8.715-33.023-13.3-50.976-13.54q-.093 0-.093.09v18.891q0 .087.085.087 22.1.444 41.367 11.102a.08.08 0 0 0 .107-.029l9.534-16.513q.033-.057-.024-.088m1.426.795a.14.14 0 0 0-.104-.014.1.1 0 0 0-.048.023.14.14 0 0 0-.035.04l-9.512 16.473q-.031.053.022.084 19.664 11.566 31.475 31.08.033.055.088.025L232.1 84.88a.12.12 0 0 0 .061-.08.13.13 0 0 0-.015-.098q-14.459-23.864-38.554-37.936M46.839 86.31l16.218 9.364a.14.14 0 0 0 .189-.052Q74.73 75.97 94.157 64.113a.1.1 0 0 0 .04-.051.08.08 0 0 0-.009-.063l-9.397-16.275q-.05-.09-.14-.035c-15.637 9.446-28.688 22.62-37.849 38.482q-.051.088.037.14m92.729-32.922c-15.198.064-29.921 3.958-43.046 11.555q-.104.062-.045.164l4.887 8.462a.1.1 0 0 0 .028.032.1.1 0 0 0 .039.02.1.1 0 0 0 .083-.012q17.626-10.102 38.032-10.21.113 0 .113-.112v-9.81q0-.09-.091-.089m42.025 10.873c-12.337-6.921-26.257-10.593-40.385-10.844q-.111-.002-.111.109v9.76q0 .115.115.12 1.973.084 3.942.226 16.638 1.19 31.405 9.257.107.058.168-.047l4.895-8.48a.1.1 0 0 0 .009-.028.1.1 0 0 0-.002-.029l-.013-.025a.1.1 0 0 0-.023-.02m1.227.881-4.862 8.43q-.054.092.039.147 16.865 9.938 27.04 26.65.063.1.161.041l8.431-4.868q.14-.08.055-.218-11.507-18.976-30.628-30.243-.15-.09-.236.061m-44.6.185c-12.645.271-24.845 3.63-35.755 9.944a.104.104 0 0 0-.037.14l2.516 4.358q.051.088.141.037 15.957-9.155 34.442-9.257.132 0 .132-.132V65.44q0-.12-.117-.121-.45-.01-1.322.008m37.381 9.239c-10.369-5.91-22.565-8.988-34.387-9.239q-.117-.002-.117.115v5.03q0 .093.093.095 16.967.42 31.791 8.534.099.054.154-.043l2.507-4.34q.055-.096-.041-.152M64.912 96.745l8.524 4.921a.07.07 0 0 0 .052.007.07.07 0 0 0 .042-.032q9.87-16.923 26.558-27.188.1-.062.041-.164l-4.862-8.421a.16.16 0 0 0-.1-.076.16.16 0 0 0-.124.018Q76.074 77.406 64.879 96.615q-.046.082.033.13m212.967 43.033c-.049-24.223-6.339-47.926-18.463-68.866a.133.133 0 0 0-.183-.047l-24.539 14.169q-.105.06-.043.164 14.501 25.308 14.641 54.615 0 .04.027.068a.1.1 0 0 0 .067.029h28.362q.132 0 .131-.132m-233.606-53.3L19.72 72.304q-.095-.056-.148.039C7.946 92.966 1.956 116.16 1.927 139.805q0 .043.03.074a.1.1 0 0 0 .073.031h28.41q.07 0 .071-.074.113-28.417 13.811-53.179.064-.115-.05-.179m62.697-3.36c9.943-5.704 21.015-8.71 32.391-8.739q.298-.002.298-.3v-1.334q0-.29-.294-.29-17.882.147-33.32 9.001-.096.056-.041.152l.857 1.48q.007.013.02.024a.1.1 0 0 0 .028.014q.015.004.031.003a.1.1 0 0 0 .03-.01m65.117-2.328c-9.456-5.264-20.134-8.067-30.942-8.312q-.048-.001-.048.047v1.805l.004.019a.05.05 0 0 0 .046.03q16.005.407 29.995 8.063.029.015.045-.014l.919-1.574q.023-.041-.019-.064m4.809-5.382-2.509 4.344q-.06.105.043.165 15.229 8.976 24.432 24.061a.08.08 0 0 0 .049.036q.031.009.06-.008l4.406-2.543a.1.1 0 0 0 .023-.02.08.08 0 0 0 .014-.058.1.1 0 0 0-.01-.029q-9.917-16.304-26.36-25.986a.11.11 0 0 0-.121.007.1.1 0 0 0-.027.031m-97.145 29.77q8.891-15.254 23.914-24.528a.12.12 0 0 0 .054-.072.12.12 0 0 0-.013-.09l-2.521-4.377q-.039-.066-.103-.026-16.243 9.972-25.852 26.434a.16.16 0 0 0-.017.121q.016.062.072.097l4.31 2.484a.1.1 0 0 0 .086.01.12.12 0 0 0 .07-.053m59.861-28.902c-11.107.022-22.109 2.887-31.699 8.517q-.056.033-.023.089l.892 1.53q.033.056.088.025c9.418-5.437 19.867-8.22 30.742-8.26q.045 0 .045-.046l.002-1.806a.05.05 0 0 0-.014-.035.05.05 0 0 0-.033-.014m1.543 1.921c9.775.249 19.324 2.758 27.868 7.447q.243.134.381-.109l.688-1.214q.13-.229-.107-.344a27 27 0 0 1-.785-.4q-13.154-6.91-28.059-7.289-.044 0-.044.043v1.806q0 .024.017.042a.06.06 0 0 0 .041.018m-1.556 1.89a59.54 59.54 0 0 0-29.73 7.97q-.11.06-.049.172l.098.177q.072.127.198.053 13.668-7.828 29.494-7.9l.023-.006.02-.014.013-.02q.005-.012.003-.025l-.02-.361q-.002-.045-.05-.045m28.607 7.277c-8.253-4.593-17.679-7.026-27.049-7.254q-.066-.002-.064.064l.013.351q.002.051.053.054 14.26.395 26.759 7.159.125.067.216-.041l.108-.126a.1.1 0 0 0 .028-.053.2.2 0 0 0 .003-.06.2.2 0 0 0-.023-.055.14.14 0 0 0-.044-.04m4.259-4.18q14.39 8.475 23.11 22.721a.04.04 0 0 0 .014.016l.02.01q.011.002.023 0l.021-.007 1.551-.907q.048-.026.019-.071-8.969-14.683-23.802-23.41a.05.05 0 0 0-.042-.006l-.02.01-.014.017-.898 1.555q-.027.045.018.072m-89.513 23.979q.045.024.072-.021c5.563-9.588 13.174-17.351 22.598-23.214l.019-.017.011-.022.001-.025-.009-.024-.908-1.558q-.023-.038-.062-.014-14.651 9.041-23.308 23.923-.023.039.018.061zm113.909 32.498a57.2 57.2 0 1 0-114.4-.001 57.2 57.2 0 0 0 114.4.001m-25.41-54.819-.908 1.57q-.031.05.02.08 13.512 7.949 21.7 21.309a.07.07 0 0 0 .039.029.06.06 0 0 0 .047-.007l1.544-.881q.01-.007.02-.018l.011-.023.001-.027-.01-.025q-8.456-13.812-22.419-22.02-.029-.018-.045.013m-86.768 23.323 1.564.891.024.009.025-.001a.07.07 0 0 0 .04-.03q7.876-13.559 21.208-21.813.035-.022.014-.057l-.894-1.568-.016-.02a.06.06 0 0 0-.048-.012l-.024.01q-13.77 8.527-21.91 22.531-.022.039.017.06M232.99 86.133q-.05-.088-.135-.037l-16.61 9.588q-.103.058-.043.163 11.593 20.406 11.639 43.985 0 .031.022.053a.07.07 0 0 0 .054.023l19.365.002a.1.1 0 0 0 .038-.008.1.1 0 0 0 .032-.023.1.1 0 0 0 .022-.033.1.1 0 0 0 .007-.039q-.136-28.806-14.391-53.674M62.362 96.923l-16.223-9.368a.12.12 0 0 0-.133.01.1.1 0 0 0-.03.035q-13.44 24.32-13.558 52.229a.08.08 0 0 0 .023.056.08.08 0 0 0 .055.023l18.893.002q.096 0 .096-.099.038-22.797 10.928-42.709.062-.115-.051-.179m128.213 11.775c-5.149-8.362-12.389-15.677-20.911-20.512q-.085-.05-.147.029l-.155.19a.1.1 0 0 0-.021.042.12.12 0 0 0 .016.09.1.1 0 0 0 .034.031q12.918 7.61 20.773 20.376a.13.13 0 0 0 .076.058.14.14 0 0 0 .095-.01l.187-.099a.14.14 0 0 0 .068-.086.14.14 0 0 0-.015-.109m-102.138 1.455q7.539-12.92 20.236-20.833.103-.063.041-.168l-.105-.181a.14.14 0 0 0-.089-.067.15.15 0 0 0-.112.017q-12.786 7.974-20.38 20.989a.17.17 0 0 0 .02.205.2.2 0 0 0 .06.044l.13.057q.128.058.198-.063m137.486 28.135c-.24-14.495-4.099-28.933-11.396-41.492q-.054-.09-.144-.037l-8.46 4.886q-.099.058-.043.157 10.011 17.647 10.046 38.032 0 .03.022.052a.07.07 0 0 0 .052.022h9.769q.128 0 .134-.128.033-.752.02-1.492m-162.517 1.531c-.023-12.868 3.156-25.481 9.352-36.776q.05-.091-.04-.142l-8.482-4.897a.12.12 0 0 0-.13.009.1.1 0 0 0-.03.034q-10.649 19.459-10.684 41.743.001.048.035.083a.12.12 0 0 0 .084.035h9.807q.035-.001.062-.026a.1.1 0 0 0 .026-.063m150.599-.029c.027-12.982-3.319-25.801-9.806-37.056a.1.1 0 0 0-.052-.039.08.08 0 0 0-.065.009l-4.356 2.517q-.102.058-.044.16 9.067 15.975 9.089 34.43 0 .096.097.097h5.022q.115 0 .115-.118m-143.458 0c.012-11.54 2.809-23.082 8.42-33.188a.08.08 0 0 0 .007-.061.08.08 0 0 0-.037-.048l-4.363-2.521q-.123-.072-.193.053-9.043 16.692-9.072 35.763 0 .12.119.12h5.002q.117 0 .117-.118m136.342.058c-.105-12.029-3.021-23.422-8.888-33.554l-.015-.019-.022-.01-.024-.002-.023.008-1.555.886q-.04.022-.017.063 8.596 15.141 8.621 32.636a.05.05 0 0 0 .014.035.05.05 0 0 0 .035.014l1.812.005.024-.005.02-.013.013-.02zM80.694 107.506q-.046-.025-.07.021-8.166 15.094-8.166 32.331 0 .048.047.047l1.802.005q.055 0 .055-.054c.023-11.074 2.656-21.652 7.912-31.378a.05.05 0 0 0-.02-.068zm112.347 1.623c5.324 9.41 8.08 19.696 8.1 30.524q.002.255.257.255h1.398q.261 0 .258-.261-.069-16.868-8.355-31.467-.024-.043-.065-.019l-1.577.907a.05.05 0 0 0-.021.027.05.05 0 0 0 .005.034m-109.043.29a.06.06 0 0 0-.043-.005.05.05 0 0 0-.033.026q-7.648 14.211-7.655 30.42 0 .045.046.045l1.808.003q.058 0 .058-.056-.003-15.698 7.397-29.469.025-.046-.02-.07zm115.232 30.425c.031-10.314-2.601-20.748-7.823-29.714q-.043-.074-.123-.039l-.249.115q-.096.043-.043.136 7.755 13.685 7.772 29.49 0 .03.021.051a.07.07 0 0 0 .051.022l.329.003.024-.005.021-.013.015-.021zM87.202 111.398q-7.104 13.265-7.119 28.382a.14.14 0 0 0 .09.13.14.14 0 0 0 .054.008l.206-.008q.123-.007.123-.13.03-15.022 7.083-28.207.042-.075-.039-.105l-.287-.111q-.075-.029-.112.041m-67.448 96.079 24.543-14.169a.104.104 0 0 0 .04-.142q-13.351-24.1-13.814-51.76-.001-.087-.088-.087H2.03q-.11 0-.109.111.506 35.287 17.607 65.985.08.146.226.062m42.902-24.83c-7.063-12.695-10.844-26.703-11.156-41.225q-.003-.102-.103-.103H32.55q-.105 0-.105.103.008 1.876.102 3.75c.833 16.411 5.325 32.702 13.437 47.014q.063.11.173.045l16.48-9.514a.05.05 0 0 0 .023-.031.05.05 0 0 0-.004-.039m10.31-5.992c-6.026-10.788-9.246-22.895-9.546-35.233q-.001-.102-.105-.103h-9.808q-.102 0-.1.103.501 21.506 10.887 40.247.007.015.02.024a.08.08 0 0 0 .059.017.1.1 0 0 0 .03-.01l8.53-4.928a.086.086 0 0 0 .033-.117m6.205-3.547a69.1 69.1 0 0 1-8.598-31.674q-.002-.114-.117-.115h-5.03q-.1 0-.099.103.484 18.307 9.286 34.286a.1.1 0 0 0 .021.024.08.08 0 0 0 .062.017.1.1 0 0 0 .03-.01l4.424-2.559a.05.05 0 0 0 .025-.031.06.06 0 0 0-.004-.041m3.282-1.835q.045-.024.02-.071-7.632-13.91-8.088-29.827-.001-.056-.057-.056l-1.809.002q-.04 0-.04.041.455 16.437 8.342 30.797.027.047.074.021zm3.335-1.978c-4.757-8.557-7.31-18.174-7.587-27.933q0-.042-.043-.043h-1.841q-.027.002-.027.029.451 15.405 7.821 28.88a.1.1 0 0 0 .02.023.1.1 0 0 0 .027.014q.015.004.03.003a.1.1 0 0 0 .03-.01l1.551-.898q.042-.024.019-.065m.306-4.616q-5.13-11.082-5.505-23.239-.001-.116-.12-.119l-.24-.006a.12.12 0 0 0-.084.035.1.1 0 0 0-.025.039.1.1 0 0 0-.008.045c.255 9.434 2.789 18.622 7.3 26.874q.032.065.098.033l.316-.146q.045-.02.02-.063-1.353-2.592-1.752-3.453m105.13 4.829c4.984-8.548 7.686-18.188 7.99-28.125q.002-.062-.062-.062h-.361q-.05 0-.05.05-.483 14.965-7.915 27.903-.058.099.022.181.089.088.212.121.109.029.164-.068m9.901-28.125c-.314 10.297-3.101 20.23-8.29 29.153q-.029.05.021.078l1.574.908q.033.02.054-.014 8.063-13.968 8.548-30.154 0-.033-.033-.033l-1.808-.002q-.065 0-.066.064m3.814-.008q-.492 16.678-8.789 31.068a.07.07 0 0 0-.007.054.07.07 0 0 0 .032.042l1.549.872q.05.029.076-.021 8.558-14.838 9.044-32.026.002-.043-.043-.043l-1.803-.002q-.057 0-.059.056m3.812.051c-.311 11.561-3.451 22.875-9.282 32.88q-.056.093.037.146l4.368 2.522a.1.1 0 0 0 .079.011.1.1 0 0 0 .036-.018.1.1 0 0 0 .027-.03q9.467-16.458 9.979-35.513.004-.105-.101-.105h-5.034q-.108 0-.109.107m-3.083 36.581 8.499 4.91a.14.14 0 0 0 .101.013.1.1 0 0 0 .046-.024.1.1 0 0 0 .034-.039q11.041-19.203 11.567-41.443.002-.105-.103-.105h-9.81q-.096 0-.098.095-.512 19.593-10.26 36.503-.033.057.024.09m27.326 15.632c9.202-15.901 14.117-33.889 14.364-52.246q.001-.074-.072-.074h-19.363q-.097 0-.099.097c-.333 14.964-4.317 29.399-11.805 42.361q-.09.157.068.247l16.735 9.662a.1.1 0 0 0 .046.016.1.1 0 0 0 .049-.003.13.13 0 0 0 .077-.06m26.383 15.284c11.984-20.376 18.211-43.903 18.478-67.495q0-.108-.107-.109h-28.356q-.112 0-.115.111-.492 28.53-14.633 53.173-.059.102.044.162l24.576 14.189q.072.04.113-.031m-150.488-18.792q-12.059-7.44-19.49-19.363a23 23 0 0 1-.757-1.303q-.035-.063-.1-.033l-.336.15q-.061.029-.026.087 7.656 12.982 20.487 20.883a.07.07 0 0 0 .058.01.08.08 0 0 0 .049-.034l.152-.245q.057-.094-.037-.152M84.906 171.51l-.017.015-.01.02a.05.05 0 0 0 .005.043q8.174 13.87 21.899 22.283a.06.06 0 0 0 .041.006.04.04 0 0 0 .019-.009l.014-.015.908-1.558q.022-.037-.017-.062c-8.836-5.562-15.904-12.584-21.208-21.592q-.03-.054-.082-.023zm105.057-.81q-7.896 12.664-20.788 20.173a.06.06 0 0 0-.026.032.06.06 0 0 0 .004.042l.162.335.014.018.02.012.023.002.021-.007q13-7.585 20.975-20.344.049-.08-.029-.133l-.232-.159q-.088-.059-.144.029m2.149 1.141q-.035-.02-.055.014-8.232 13.242-21.702 21.096-.051.03-.021.082l.894 1.543a.07.07 0 0 0 .039.029.07.07 0 0 0 .048-.006q13.9-8.107 22.388-21.78l.009-.024a.06.06 0 0 0-.011-.047l-.019-.016zm-86.287 23.682q-14.16-8.68-22.598-22.99-.024-.041-.065-.016l-1.566.904q-.048.027-.02.072 8.7 14.745 23.298 23.684l.024.009.025-.001a.06.06 0 0 0 .039-.03l.882-1.556q.026-.047-.019-.076m89.604-21.773q-.044-.025-.068.016-8.756 14.117-23.105 22.495a.05.05 0 0 0-.024.032.05.05 0 0 0 .005.04l.908 1.56q.023.04.062.016 14.796-8.632 23.808-23.196.022-.036-.014-.059zm-92.156 24.642q-14.607-9.128-23.36-23.95a.04.04 0 0 0-.025-.018.04.04 0 0 0-.03.004l-4.413 2.546a.1.1 0 0 0-.047.062.1.1 0 0 0 .01.077q9.652 16.35 25.861 26.244.015.009.032.012a.1.1 0 0 0 .066-.017.1.1 0 0 0 .024-.026l2.517-4.361q.053-.088-.031-.152a8 8 0 0 0-.604-.421m99.903-20.169-4.383-2.534q-.103-.06-.165.042-9.246 14.934-24.412 23.799-.096.056-.041.152l2.519 4.361q.048.084.134.035 16.406-9.586 26.37-25.769l.009-.022a.07.07 0 0 0-.013-.047zM100.353 205.12a.1.1 0 0 0 .008-.06.07.07 0 0 0-.035-.047q-16.657-10.149-26.565-26.946-.054-.09-.144-.037l-8.5 4.907q-.08.048-.032.127 11.263 19.109 30.223 30.614a.1.1 0 0 0 .034.012.1.1 0 0 0 .036-.002.1.1 0 0 0 .032-.016.1.1 0 0 0 .023-.027zm113.081-20.977-8.483-4.899a.1.1 0 0 0-.06-.008.08.08 0 0 0-.049.037q-10.231 16.632-27.094 26.473-.053.033-.022.087l4.909 8.499a.13.13 0 0 0 .173.047c12.658-7.379 23.023-17.549 30.675-30.041a.14.14 0 0 0 .016-.107.14.14 0 0 0-.065-.088m-119.022 31.22q-19.437-11.764-30.975-31.337-.052-.088-.142-.037l-16.478 9.514a.1.1 0 0 0-.026.024.09.09 0 0 0-.005.098q14.057 24.05 37.87 38.496.081.05.131-.035l9.633-16.688q.013-.022-.008-.035m137.631-20.477L215.3 185.22a.1.1 0 0 0-.081-.01.1.1 0 0 0-.065.049q-11.832 19.347-31.411 30.789a.1.1 0 0 0-.048.062.1.1 0 0 0 .011.079l9.684 16.777q.08.14.22.057 24.05-14.058 38.503-37.863.104-.174-.07-.274m-92.46 3.876c-10.359-.033-20.251-2.674-29.262-7.79q-.117-.065-.181.051l-.107.195q-.061.114.05.175 13.687 7.77 29.5 7.85.066 0 .07-.068l.014-.327q.002-.086-.084-.086m28.14-7.081c-8.146 4.438-17.282 6.816-26.519 7.058q-.109.003-.109.111l.002.267q.003.108.107.103 14.219-.401 26.718-7.093.17-.091.092-.268l-.043-.094q-.08-.177-.248-.084m-58.651 1.335a.07.07 0 0 0-.052-.007.07.07 0 0 0-.043.032l-.892 1.541a.06.06 0 0 0-.004.04.05.05 0 0 0 .025.032q14.612 8.328 31.512 8.398.04 0 .041-.041v-1.798q0-.066-.066-.065c-10.798-.066-21.077-2.766-30.521-8.132m59.818.736c-8.473 4.671-18.106 7.128-27.749 7.375q-.046.002-.046.047l.004 1.825q0 .01.005.021a.04.04 0 0 0 .012.018l.018.011q.01.004.021.003 15.296-.495 28.238-7.412.29-.153.454-.236.163-.082.07-.24l-.783-1.344q-.088-.155-.244-.068m-85.143 40.134a.076.076 0 0 0-.026-.103q-24.258-14.7-38.58-39.186-.052-.095-.15-.04l-24.62 14.216a.05.05 0 0 0-.023.029.05.05 0 0 0 .004.037c11.85 20.473 28.672 37.467 48.98 49.667q.149.088.237-.062zm174.806-23.693-24.587-14.195q-.098-.058-.158.041-14.746 24.342-39.322 38.681-.06.037-.025.097l14.164 24.533a.21.21 0 0 0 .202.1.2.2 0 0 0 .074-.026c20.538-11.976 37.456-28.676 49.683-49.112q.045-.075-.031-.119m-121.257-5.275c-10.501-.384-20.841-3.273-29.963-8.517q-.217-.126-.343.092l-.715 1.235q-.121.208.086.325 15.435 8.735 33.249 8.815a.05.05 0 0 0 .034-.014.05.05 0 0 0 .015-.035v-1.831q0-.05-.051-.049-1.106.024-2.312-.021m33.451-7.833c-9.076 4.961-19.262 7.622-29.606 7.856q-.044.001-.044.045l.002 1.825q0 .04.042.041 15.89-.399 29.851-7.753.479-.253.717-.354.22-.094.101-.302l-.732-1.266q-.121-.207-.331-.092m-31.193 11.688c-11.98-.039-23.777-3.111-34.179-9.097q-.171-.099-.267.072l-2.45 4.246q-.078.135.058.213 17.091 9.705 36.834 9.812.11 0 .109-.109v-5.032q0-.105-.105-.105m33.234-8.443c-9.839 5.266-20.335 8.16-31.567 8.417q-.124.002-.124.125v5.034q0 .02.008.037a.1.1 0 0 0 .089.058q18.23-.425 34.185-9.107a.13.13 0 0 0 .064-.081.14.14 0 0 0-.012-.102l-2.512-4.342q-.047-.084-.131-.039m-76.095 14.154c13.088 7.508 27.78 11.413 42.859 11.444q.107 0 .107-.105v-9.804q0-.093-.093-.093-20.316-.105-37.882-10.116a.07.07 0 0 0-.052-.006.1.1 0 0 0-.042.033l-4.926 8.538a.08.08 0 0 0 .029.109m79.675-7.963c-10.865 5.933-22.789 9.118-35.164 9.387q-.107.004-.107.109v9.808a.1.1 0 0 0 .008.036.1.1 0 0 0 .021.031.1.1 0 0 0 .031.021.1.1 0 0 0 .037.006q21.416-.441 40.132-10.695.132-.072.058-.204l-4.891-8.464a.1.1 0 0 0-.055-.043.1.1 0 0 0-.07.008m-36.81 21.313c-15.387-.034-30.433-3.998-43.781-11.682a.13.13 0 0 0-.093-.011.12.12 0 0 0-.074.057l-9.571 16.576a.14.14 0 0 0 .05.189q24.778 14.223 53.482 14.42a.1.1 0 0 0 .033-.006.09.09 0 0 0 .055-.081v-19.361q0-.1-.101-.101m42.894-10.958a.086.086 0 0 0-.117-.035q-19.174 10.542-41.133 10.983-.105.003-.105.109v19.314q0 .103.103.105a67 67 0 0 0 3.136-.062q25.409-1.105 47.735-13.387.16-.089.068-.247zM84.97 234.63l-14.23 24.642a.04.04 0 0 0-.004.032q.006.017.02.026c20.933 12.124 44.602 18.48 68.796 18.547a.107.107 0 0 0 .107-.107v-28.404a.08.08 0 0 0-.022-.053.07.07 0 0 0-.052-.023q-29.245-.198-54.488-14.695-.081-.047-.127.035m108.149.857c-16.026 8.865-33.61 13.548-51.933 13.788q-.089.003-.089.091v28.402q0 .047.034.08a.11.11 0 0 0 .081.033q35.386-.452 66.17-17.594.101-.055.043-.156l-14.213-24.619a.06.06 0 0 0-.041-.031.07.07 0 0 0-.052.006"/></svg>
