<svg xmlns="http://www.w3.org/2000/svg" fill="none" viewBox="0 0 1024 349"><path fill="#000" d="M390.295 203.706v-23.587h55.961c8.555 0 15.235-2.428 20.025-7.284s7.184-11.258 7.184-19.173-2.395-14.442-7.184-19.172c-4.79-4.73-11.47-7.095-20.025-7.095h-73.78v115.082h-24.153V103.003h97.933c8.051 0 15.235 1.183 21.569 3.548 6.318 2.365 11.659 5.692 16.007 9.98s7.673 9.492 9.973 15.625q3.45 9.2 3.45 20.718c0 7.678-1.15 14.411-3.45 20.623-2.3 6.196-5.625 11.541-9.973 16.019s-9.674 7.962-16.007 10.454c-6.318 2.491-13.518 3.736-21.569 3.736zm186.219 38.739V189.5l-73.97-86.497h32.771l54.244 64.25 54.419-64.25h31.052L600.856 189.5v52.945zm182.476 0V127.363h-64.092v-24.36h152.621v24.36h-64.184v115.082zm240.762-139.442H1024v139.442h-24.248zM895.167 242.445V182.09h90.207v-21.585h-90.207v-57.502h-24.248v139.442zm-721.009-102.95c0 19.251-15.597 34.86-34.834 34.86v34.86c38.473 0 69.668-31.218 69.668-69.72 0-38.503-31.195-69.722-69.668-69.722-12.683 0-24.594 3.39-34.834 9.334-20.829 12.046-34.835 34.577-34.835 60.388v174.301l34.835 34.861V139.495c0-19.252 15.597-34.861 34.834-34.861s34.834 15.609 34.834 34.861"/><path fill="#000" d="M139.337 0c-25.381 0-49.171 6.796-69.668 18.668a139.4 139.4 0 0 0-34.835 28.554C13.155 71.802 0 104.093 0 139.442v104.581l34.834 34.861V139.442c0-30.966 13.455-58.795 34.834-77.951 10.052-8.987 21.853-16.083 34.835-20.655 10.886-3.878 22.624-5.976 34.834-5.976 57.711 0 104.503 46.828 104.503 104.582s-46.792 104.581-104.503 104.581v34.861c76.964 0 139.338-62.437 139.338-139.442S216.301 0 139.337 0"/></svg>