<svg xmlns="http://www.w3.org/2000/svg" fill="none" viewBox="0 0 1024 194"><path fill="#000" d="M173.997 96.539c0-15.114-4.344-29.99-12.637-42.651l30.566-30.782L169.021 0l-30.566 30.782c-25.748-16.934-59.078-16.934-84.826 0L22.984 0 0 23.106l30.566 30.782c-16.823 25.954-16.823 59.426 0 85.381L0 169.971l22.984 23.106 30.566-30.781c25.748 16.934 59.078 16.934 84.826 0l30.566 30.781 22.984-23.106-30.566-30.781c8.293-12.661 12.716-27.458 12.637-42.651m-123.528 0c0-18.675 11.216-35.53 28.434-42.493s36.963-2.77 49.837 10.682 16.35 33.472 8.688 50.485l-30.013-30.227-22.904 23.106 30.013 30.227c-14.059 6.331-30.408 5.144-43.361-3.323-12.874-8.467-20.694-22.948-20.694-38.457m288.837.949c0 18.912-9.478 35.925-26.459 43.759l9.004 11.791-18.561 9.416-12.4-16.538h-.395c-30.645 0-48.731-22.394-48.731-48.507s18.086-48.507 48.731-48.507 48.811 22.473 48.811 48.586m-48.732 29.437c17.297 0 26.696-13.532 26.696-29.516s-9.399-29.515-26.696-29.515c-17.455 0-26.853 13.53-26.696 29.515-.157 16.064 9.241 29.516 26.696 29.516m82.852 18.12c-15.085 0-23.22-9.416-23.22-25.796v-39.09h20.219v34.58c0 8.625 2.843 13.373 10.426 13.373 8.451 0 12.084-5.539 12.084-14.006V80.159h19.824v63.146h-19.824v-9.021c-3.475 6.726-9.952 10.761-19.509 10.761m80.957 0c-18.798 0-29.618-14.322-29.618-33.313 0-18.912 11.61-33.314 29.855-33.314 9.162 0 16.27 4.352 19.666 10.762v-9.021h19.825v63.146h-19.825v-8.942c-3.317 6.33-11.136 10.682-19.903 10.682m5.765-16.617c9.873 0 15.007-7.438 15.007-16.617 0-9.021-5.055-16.538-15.007-16.538-9.24 0-15.006 6.963-15.006 16.538 0 9.495 5.766 16.617 15.006 16.617m50.549-48.27h19.982v9.18c3.633-7.043 10.821-10.84 20.299-10.84 15.243 0 22.904 8.624 22.904 25.795v39.091h-20.061v-32.523c0-10.603-3.001-15.43-11.058-15.43-7.977 0-12.084 5.222-12.084 14.955v32.998h-19.982zm112.075 47.558c2.449 0 5.055-.158 6.872-.396v15.985c-2.844.554-7.583 1.028-13.269 1.028-9.399 0-22.273-2.136-22.273-23.185V95.985h-9.873V80.159h9.873V61.405h19.982v18.754h14.217v15.826h-14.217v20.969c0 9.338 3.791 10.762 8.688 10.762m43.598 17.567c-18.403 0-29.697-9.021-29.697-20.97h19.824c0 4.353 4.186 7.439 10.268 7.439 4.265 0 7.266-2.216 7.266-5.935 0-2.453-1.184-4.59-4.581-5.381l-15.401-3.956c-10.426-2.612-15.796-9.18-15.796-18.2 0-11.79 10.267-20.02 26.853-20.02 18.403 0 28.039 7.754 28.039 19.624h-19.667c0-4.431-3.238-6.963-8.609-6.963-4.265 0-7.187 2.136-7.187 5.222 0 2.849 1.975 4.748 5.371 5.618l14.848 4.036c9.636 2.611 15.876 8.546 15.876 17.567.079 13.135-10.268 21.919-27.407 21.919m72.821-17.567c2.449 0 5.055-.158 6.872-.396v15.985c-2.844.554-7.582 1.028-13.269 1.028-9.399 0-22.273-2.136-22.273-23.185V95.985h-9.873V80.159h9.873V61.405h19.982v18.754h14.217v15.826h-14.217v20.969c0 9.338 3.713 10.762 8.688 10.762m43.44 17.329c-18.797 0-29.618-14.322-29.618-33.313 0-18.912 11.611-33.314 29.855-33.314 9.162 0 16.271 4.352 19.667 10.762v-9.021h19.824v63.146h-19.824v-8.942c-3.396 6.33-11.216 10.682-19.904 10.682m5.687-16.617c9.873 0 15.007-7.438 15.007-16.617 0-9.021-5.055-16.538-15.007-16.538-9.241 0-15.006 6.963-15.006 16.538 0 9.495 5.765 16.617 15.006 16.617m50.628-48.27h19.982v9.18c2.764-6.33 9.241-10.84 18.008-10.84 11.215 0 16.981 4.984 19.666 11.631 3.397-6.805 10.821-11.632 20.062-11.632 18.008 0 22.273 12.424 22.273 25.717v39.17h-20.062v-35.53c0-8.783-3.238-12.423-9.399-12.423-6.239 0-10.583 3.56-10.583 15.43v32.523h-20.062v-35.688c0-8.783-3.159-12.344-9.24-12.344-6.398 0-10.663 3.56-10.663 15.43v32.523h-19.982zm115.708 0h19.982v9.022c3.239-6.014 11.058-10.762 20.457-10.762 17.217 0 28.907 13.373 28.907 33.314 0 19.782-12.08 33.313-29.46 33.313-9.241 0-16.823-4.747-19.904-10.603v35.134h-19.982zm34.12 48.27c8.767 0 14.846-6.805 14.846-16.617 0-9.733-6.158-16.538-14.846-16.538-9.004 0-15.085 6.647-15.085 16.538s6.239 16.617 15.085 16.617"/></svg>
