<svg xmlns="http://www.w3.org/2000/svg" fill="none" viewBox="0 0 1024 189"><path fill="#000" fill-rule="evenodd" d="M603.627 143.473q-9.353-3.873-14.948-11.463t-5.903-18.279h27.903q.613 6.041 4.139 9.217 3.526 3.175 9.199 3.175 5.825 0 9.198-2.71 3.373-2.712 3.373-7.513 0-4.028-2.683-6.661t-6.592-4.338q-3.909-1.704-11.115-3.872-10.426-3.254-17.017-6.507-6.593-3.252-11.345-9.604t-4.753-16.575q0-15.18 10.885-23.778t28.362-8.597q17.784 0 28.669 8.597 10.885 8.598 11.652 23.933h-28.363q-.306-5.265-3.832-8.287-3.526-3.02-9.046-3.02-4.752 0-7.665 2.555t-2.913 7.358q0 5.267 4.906 8.21t15.331 6.351q10.425 3.563 16.94 6.816 6.516 3.254 11.269 9.45 4.752 6.195 4.752 15.955 0 9.294-4.676 16.885-4.676 7.59-13.567 12.082t-21.004 4.492q-11.805 0-21.156-3.872m124.18-19.673v22.461h-13.338q-14.257 0-22.23-7.048-7.972-7.049-7.972-23.004V81.82h-10.425V59.824h10.425V38.756h26.216v21.068h17.171V81.82h-17.171v34.699q0 3.873 1.84 5.577 1.839 1.704 6.132 1.704zm30.892 18.279q-10.042-5.422-15.791-15.491t-5.749-23.546q0-13.322 5.825-23.468t15.945-15.568q10.117-5.421 22.689-5.422t22.69 5.422 15.944 15.568 5.826 23.468-5.902 23.469-16.098 15.568q-10.195 5.421-22.766 5.421-12.572 0-22.613-5.421m35.414-23.081q5.289-5.576 5.289-15.956 0-10.378-5.136-15.955-5.135-5.577-12.648-5.577-7.665 0-12.724 5.5-5.06 5.499-5.06 16.032 0 10.38 4.983 15.956t12.495 5.576 12.801-5.576m122.034-50.267q8.969 9.836 8.969 27.03v50.5h-26.063V99.325q0-8.676-4.446-13.477t-11.958-4.802q-7.512 0-11.958 4.802t-4.446 13.477v46.936h-26.216V59.824h26.216v11.463q3.985-5.732 10.732-9.062 6.745-3.33 15.177-3.33 15.024 0 23.993 9.836m107.393 40.663h-59.331q.614 8.055 5.136 12.315t11.115 4.259q9.812 0 13.645-8.364h27.905c-1.43 5.679-4.01 10.791-7.75 15.335-3.73 4.544-8.4 8.107-14.02 10.689q-8.436 3.873-18.86 3.872-12.571 0-22.383-5.421t-15.331-15.491q-5.519-10.069-5.519-23.546t5.442-23.545 15.255-15.491q9.812-5.421 22.536-5.422 12.418 0 22.08 5.267c6.44 3.511 11.47 8.52 15.1 15.026s5.44 14.096 5.44 22.771c0 2.479-.15 5.06-.46 7.746m-26.369-14.717q0-6.816-4.599-10.843t-11.499-4.028q-6.591 0-11.114 3.873t-5.596 10.998zm-656.262 51.316-22.345-40.965h-6.275v40.965h-26.171V37.475h43.924q12.704 0 21.657 4.483t13.391 12.29q4.439 7.806 4.439 17.39 0 10.821-6.046 19.323-6.045 8.503-17.83 12.058l24.794 42.974zm-28.62-59.67h16.223q7.193 0 10.79-3.555t3.596-10.048q0-6.183-3.596-9.738t-10.79-3.556h-16.223zm154.075 23.067h-59.319q.614 8.056 5.135 12.316 4.522 4.26 11.113 4.26 9.81 0 13.641-8.365h27.897q-2.146 8.52-7.741 15.337-5.594 6.816-14.024 10.689t-18.854 3.873q-12.568 0-22.378-5.422t-15.328-15.492-5.518-23.548 5.442-23.548q5.44-10.07 15.251-15.492t22.531-5.422q12.416 0 22.072 5.267 9.657 5.267 15.098 15.028 5.442 9.759 5.442 22.773 0 3.719-.46 7.746M440 94.672q0-6.816-4.598-10.844-4.599-4.028-11.496-4.028-6.59 0-11.113 3.873-4.521 3.873-5.594 11zm40.844-15.906q4.986-9.953 13.576-15.314 8.59-5.36 19.175-5.36 8.438 0 15.417 3.523 6.98 3.521 10.968 9.494V31.447h26.232v113.321H539.98v-12.251q-3.681 6.126-10.508 9.801t-15.877 3.675q-10.584 0-19.175-5.436-8.59-5.436-13.576-15.467-4.985-10.03-4.985-23.2t4.985-23.124m53.691 7.81q-5.446-5.666-13.27-5.666-7.822 0-13.269 5.59-5.445 5.589-5.445 15.39t5.445 15.543q5.446 5.743 13.269 5.743t13.27-5.666q5.445-5.666 5.445-15.467t-5.445-15.467m-354.891 1.69-27.981-46.315 14.493-23.737 42.322 70.052zm-95.247 65.09h56.571l14.122 23.168H70.53zm56.55-117.672H84.329l-13.84-23.222h84.636zm-.042 105.21H84.313L56.295 94.52l28.018-46.375h56.592l28.017 46.375zM59.5 18.264 73.586 41.9 45.582 88.25H17.217zm-42.296 82.449h28.332l28.083 46.483-14.1 23.557zm148.933 70.089-14.464-23.73 27.999-46.344h28.801zm5.325-167.806A6.19 6.19 0 0 0 166.166 0H59.519a6.19 6.19 0 0 0-5.295 2.996L.9 91.258a6.26 6.26 0 0 0 0 6.47l53.323 88.261a6.19 6.19 0 0 0 5.295 2.996h106.647a6.19 6.19 0 0 0 5.296-2.996l53.323-88.262a6.26 6.26 0 0 0 0-6.47z" clip-rule="evenodd"/><path fill="#000" fill-rule="evenodd" d="M144.68 104.225a6.18 6.18 0 0 0-8.551 1.93l-10.966 17.412c-1.831 2.907-.972 6.756 1.919 8.598a6.14 6.14 0 0 0 3.31.967 6.18 6.18 0 0 0 5.24-2.897l10.967-17.412c1.831-2.907.972-6.756-1.919-8.598m9.015-16.033c-2.948-1.745-6.748-.755-8.482 2.211l-.807 1.38c-1.735 2.966-.75 6.784 2.2 8.529a6.13 6.13 0 0 0 3.135.862 6.19 6.19 0 0 0 5.347-3.073l.806-1.38c1.735-2.966.751-6.784-2.199-8.529" clip-rule="evenodd"/></svg>