<svg xmlns="http://www.w3.org/2000/svg" fill="none" viewBox="0 0 1024 236"><path fill="#000" fill-rule="evenodd" d="M4.557.645 60.69 51.664v.16h95.619s13.086.507 19.438 5.12c7.564 5.493 10.792 11.185 11.411 21.043.475 4.2.012 8.454-1.357 12.453s-2.925 7.854-5.875 10.881c-2.884 2.969-5.152 5.128-8.988 7.138s-14.629 2.073-14.629 2.073h-34.375c.711.651 47.573 41.632 49.191 42.415 4.273 1.958 15.283.707 21.512-1.284a61.4 61.4 0 0 0 23.969-15.1 64.4 64.4 0 0 0 13.673-19.41 71.7 71.7 0 0 0 8.912-30.902c.665-5.574.543-8.233-.216-14.266l-1.394-10.702c-.633-4.8-2.561-10.318-6.236-17.202-7.734-14.613-13.615-20.92-28.883-31.212A73.2 73.2 0 0 0 170.409.645c-8.424-1.452-165.852 0-165.852 0m4.068 74.527c-4.287 2.58-5.596 6.661-3.6 11.206 1.61 3.636 4.004 5.005 8.672 5.02 3.177.01 3.565.205 5.309 2.35l1.873 2.34-.868 8.297-.74 8.946c-.002.389 18.42 18.082 40.916 39.289a20688 20688 0 0 1 68.263 64.595l17.647 16.654 8.623.026-2.909-2.862-35.553-33.631-61.67-58.092-28.96-27.386.41-7.132c.272-3.889.673-7.779.804-8.427.198-.907-.64-2.595-2.577-5.065-2.712-3.575-2.905-4.029-2.765-7.53.078-4.344-1.018-6.487-4.253-8.507a8.43 8.43 0 0 0-8.687-.027m.828 4.671c-1.497 2.07-1.31 4.6.435 6.226 1.94 1.822 4.403 1.83 6.16-.046a4.67 4.67 0 0 0 .407-6.158c-1.355-2.014-5.634-2.028-7.002-.022m-4.83 32.212c-4.158 2.58-5.597 6.856-3.795 11.27 1.415 3.506 3.875 4.94 8.283 4.953l3.89.012 4.136 4.228c2.973 2.927 4.135 4.551 3.873 5.328-.131.648-.528 3.241-.73 5.704-.203 2.528-.535 5.316-.733 6.288-.394 1.814.317 2.594 12.533 14.368 2.844 2.797 4.847 5.202 4.457 5.33l-4.542 1.543-3.635 1.285-3.232-2.992-3.297-2.928.012-4.085c.01-3.502-.246-4.41-1.667-6.1-6.46-7.801-18.736-.058-14.68 9.227 1.61 3.571 4.005 4.94 8.867 4.955 3.63.011 3.63.011 7.507 4.238 2.197 2.341 4.396 4.228 4.914 4.229.454.002 3.893-1.025 7.398-2.246 3.634-1.286 7.008-2.248 7.527-2.247a39 39 0 0 1 7.111 6.506l6.204 6.503 8.557.026-5.494-5.398-33.418-32.264 1.257-8.295 1.192-8.232-9.697-8.977.011-3.631c.014-4.539-1.662-7.592-4.834-8.963-3.043-1.306-5.442-1.184-7.976.365m.958 4.412c-1.626 1.81-1.443 5.636.304 6.874 3.234 2.279 7.65.023 7.66-3.738.012-3.631-5.557-5.787-7.964-3.136m30.4 22.917a8.75 8.75 0 0 0-6.212 9.074 8.76 8.76 0 0 0 1.181 3.749 8.43 8.43 0 0 0 8.739 4.436l3.242-.315 25.536 23.421 25.537 23.356 4.019.012c2.269.007 4.085-.182 4.021-.506.001-.259-12.412-11.709-27.475-25.437l-27.411-25.047.01-3.113c.017-5.835-2.372-9.085-7.166-9.877-1.232-.199-3.047-.01-4.085.246m-.47 5.057c-3.25 2.583-.996 7.907 3.282 7.92 1.945.006 4.546-2.58 4.552-4.525.002-.648-.642-1.947-1.288-2.857-1.68-2.015-4.336-2.282-6.481-.538M10.12 158.821a4.41 4.41 0 0 0 .175 6.355c2.973 2.862 7.582.931 7.594-3.089a5.2 5.2 0 0 0-1.286-3.246 5.18 5.18 0 0 0-3.238-1.307 5.2 5.2 0 0 0-3.245 1.287" clip-rule="evenodd"/><path fill="#000" d="m34.534 110.532 131.932 125.212s67.976.26 67.652 0c-23.075-22.57-126.396-123.388-129.049-125.212zm278.361 84.384V60.597h60.385q15.216 0 25.973 5.444 10.823 5.378 16.463 15.28 5.707 9.84 5.707 23.153 0 13.379-5.772 23.02-5.772 9.576-16.726 14.691-10.887 5.115-26.367 5.116h-42.872v-22.824h38.281q8.133 0 13.511-2.23t8.002-6.69q2.69-4.46 2.69-11.083 0-6.69-2.69-11.281-2.623-4.59-8.067-6.952-5.38-2.427-13.577-2.427h-26.541v111.102zm79.93-61.126 33.386 61.126h-31.352l-32.664-61.126zm57.288 61.126V60.597h90.514v23.414h-62.114v32.006h57.457v23.413h-57.457v32.072h62.376v23.414zm115.96 0V178.06l61.491-94.05h-61.623V60.598h97.304v16.855l-61.557 94.05h61.689v23.414zm236.223-67.16q0 21.972-8.33 37.384-8.263 15.412-22.563 23.545-14.233 8.067-32.008 8.067-17.905 0-32.139-8.133-14.233-8.132-22.497-23.545-8.264-15.412-8.264-37.318 0-21.97 8.264-37.383t22.497-23.48q14.234-8.133 32.139-8.132 17.775 0 32.008 8.132 14.3 8.067 22.563 23.48 8.33 15.413 8.33 37.383m-28.794 0q0-14.232-4.263-24.004-4.198-9.772-11.872-14.822t-17.972-5.05-17.971 5.05-11.938 14.822q-4.197 9.772-4.197 24.004t4.197 24.005q4.264 9.771 11.938 14.822t17.971 5.05 17.972-5.05 11.872-14.822q4.263-9.773 4.263-24.005m49.832 67.16V60.597h28.4v110.905h57.588v23.414zM930.581 60.597l32.467 102.051h1.246l32.533-102.051H1024l-41.997 134.319h-36.599L899.032 60.597z"/></svg>