<svg xmlns="http://www.w3.org/2000/svg" fill="none" viewBox="0 0 1024 287"><path fill="#000" d="M389.377 79.253c-19.081 0-33.786 11.157-33.786 27.721 0 16.103 12.46 21.624 27.95 24.614l19.53 3.222c25.928 4.37 43.775 16.564 43.775 45.549 0 30.251-24.245 47.965-55.112 47.965-27.836 0-54.101-16.793-57.918-49.69-.336-2.761 1.796-5.176 4.49-5.176h11.673c2.245 0 4.153 1.725 4.49 4.026 2.469 23.234 20.092 32.436 37.377 32.436 18.858 0 33.786-9.546 33.786-28.871 0-17.253-12.01-23.235-27.949-26.341l-19.305-3.45c-27.052-4.601-44-17.944-44-43.249 0-29.331 24.918-47.275 54.886-47.275 23.909 0 50.286 13.803 55.45 46.585.449 2.76-1.684 5.406-4.49 5.406h-12.123c-2.133 0-4.041-1.61-4.378-3.796-3.478-21.74-18.968-29.676-34.346-29.676m135.138 17.943c28.847 0 49.387 15.758 56.683 41.524.786 2.875-1.347 5.865-4.378 5.865h-13.582c-1.908 0-3.59-1.264-4.264-3.105-5.051-14.723-16.725-23.12-34.459-23.12-24.133 0-37.602 20.13-37.602 44.4 0 24.155 13.581 44.399 37.602 44.399 17.734 0 29.408-8.397 34.459-23.12.674-1.841 2.356-3.106 4.264-3.106h13.582c3.031 0 5.164 2.992 4.266 5.867-7.745 26.916-27.612 41.522-56.571 41.522-37.153 0-60.724-29.445-60.724-65.562-.113-36.003 23.571-65.564 60.724-65.564m78.461 110.191h29.071V124.57h-25.928c-2.469 0-4.49-2.072-4.49-4.602v-11.732c0-2.531 2.021-4.601 4.49-4.601h35.357c7.407 0 13.47 6.211 13.47 13.803v3.335c6.397-15.758 20.203-19.669 41.641-19.669 8.194 0 13.694 1.381 16.837 2.531a4.56 4.56 0 0 1 2.919 4.256v12.192c0 3.106-2.919 5.407-5.837 4.371-3.816-1.265-9.204-2.415-16.276-2.415-22.897 0-39.173 15.989-39.173 43.708v41.64h37.377c2.47 0 4.49 2.07 4.49 4.601v11.732c0 2.531-2.02 4.601-4.49 4.601h-89.345c-2.47 0-4.49-2.07-4.49-4.601v-11.732c-.113-2.531 1.908-4.601 4.377-4.601m130.428-44.627c0-36.003 23.346-65.564 61.285-65.564s61.286 29.447 61.286 65.564-23.348 65.562-61.286 65.562-61.285-29.445-61.285-65.562m61.285 44.399c24.357 0 38.387-20.13 38.387-44.399 0-24.156-14.03-44.4-38.387-44.4s-38.388 20.13-38.388 44.4c0 24.269 14.031 44.399 38.388 44.399m147.148 1.266c2.469 0 4.49 2.07 4.49 4.601v10.811c0 2.531-2.021 4.601-4.49 4.601h-52.642c-2.47 0-4.49-2.07-4.49-4.601V81.898h-17.511c-2.468 0-4.488-2.07-4.488-4.6V66.485c0-2.53 2.02-4.6 4.488-4.6h25.93c7.408 0 13.468 6.21 13.468 13.802v132.738zm77.673 0c2.47 0 4.49 2.07 4.49 4.601v10.811c0 2.531-2.02 4.601-4.49 4.601h-52.642c-2.47 0-4.49-2.07-4.49-4.601V81.898h-17.511c-2.469 0-4.49-2.07-4.49-4.6V66.485c0-2.53 2.021-4.6 4.49-4.6h25.928c7.409 0 13.47 6.21 13.47 13.802v132.738zM35.47 110.539C24.58 99.957 16.948 86.269 16.948 70.05v-1.725c.898-27.72 23.122-50.036 50.173-50.84h172.182c4.49.23 8.082 3.45 8.082 8.166v149.301c3.928.691 5.835 1.266 9.653 2.646 3.031 1.151 7.183 3.565 7.183 3.565V25.651C263.997 11.503 252.998.116 239.192.116H67.01C29.857.69 0 31.862 0 70.05c0 22.2 9.877 41.179 26.04 54.521 1.123.921 2.133 2.072 5.052 2.072 5.05 0 8.642-4.142 8.418-8.628-.112-3.796-1.684-5.176-4.04-7.476"/><path fill="#000" d="M234.814 184.729H99.785c-9.091.114-16.388 7.592-16.388 16.908v19.899c.225 9.203 7.858 17.024 16.949 17.024h9.99v-17.024h-9.99v-19.438h5.5c17.061 0 29.633 16.217 29.633 33.586 0 15.414-13.694 35.082-36.592 33.473-20.316-1.381-31.316-19.9-31.316-33.473V67.059c0-7.591-6.06-13.803-13.469-13.803h-13.47V70.51h9.99v165.289c-.56 33.588 23.347 50.496 48.265 50.496l136.04.46c27.387 0 49.612-22.774 49.612-50.956 0-28.18-22.336-51.07-49.725-51.07m32.775 52.106c-.561 18.058-15.04 32.552-32.775 32.552l-94.621-.346c7.521-8.972 12.123-20.59 12.123-33.242 0-19.899-11.562-33.587-11.562-33.587h94.173c18.071 0 32.775 15.069 32.775 33.587zM198.445 73.618H96.64V56.364h101.805c4.602 0 8.419 3.796 8.419 8.627 0 4.716-3.704 8.627-8.419 8.627"/><path fill="#000" d="M198.445 154.822H96.64v-17.255h101.805c4.602 0 8.419 3.797 8.419 8.628 0 4.715-3.704 8.627-8.419 8.627m17.959-40.602H96.64V96.966h119.65c4.603 0 8.419 3.796 8.419 8.627.112 4.716-3.704 8.627-8.306 8.627"/></svg>
