<svg xmlns="http://www.w3.org/2000/svg" fill="none" viewBox="0 0 1024 402"><path fill="#000" d="M535.486 401.709a.24.24 0 0 1-.239.239H133.861a.24.24 0 0 1-.239-.239V.239a.24.24 0 0 1 .239-.239h401.386a.24.24 0 0 1 .239.239zM304.203 201.001a63.65 63.65 0 0 0-18.647-45.012 63.673 63.673 0 0 0-90.037 0 63.65 63.65 0 0 0-18.648 45.012 63.65 63.65 0 0 0 18.648 45.013 63.669 63.669 0 0 0 108.684-45.013m169.017-27.889 16.668-16.822a.52.52 0 0 0 .02-.717 36 36 0 0 0-4.219-4.062c-.827-.683-2.069-1.086-2.991-1.864-1.653-1.4-3.1-2.171-4.889-3.455q-4.76-3.406-13.083-5.94-6.623-2.02-11.731-2.512-29.388-2.834-50.46 16.263c-18.6 16.856-25.605 44.158-17.22 67.958 15.465 43.906 71.347 57.206 104.798 24.333q.238-.232 0-.465l-17.002-17.047a.34.34 0 0 0-.24-.1.35.35 0 0 0-.245.1c-14.776 14.31-38.47 14.876-53.614.58q-6.57-6.206-10.086-15.327-.935-2.41-1.208-4.117c-.956-5.913-1.434-10.384-.116-16.72q2.212-10.691 9.027-18.113c8.371-9.107 19.979-13.886 32.263-12.78 9.061.812 16.995 4.738 23.775 10.828q.287.252.553-.021M.172 244.102l15.31-18.331a.704.704 0 0 1 1.146.089q.526.873 1.503 1.515a671 671 0 0 1 6.11 4.049c1.155.771 2.923 1.352 4.282 2.348 1.598 1.181 3.667 1.905 5.483 2.677 8.597 3.645 21.536 6.014 30.215 1.488 3.762-1.966 6.739-5.633 6.234-9.913-.984-8.261-8.938-10.384-15.384-12.87q-.157-.062-.458-.027a1.2 1.2 0 0 1-.437-.034c-17.753-4.882-41.187-7.879-47.94-27.78-.362-1.079-.512-2.513-.881-3.789a12 12 0 0 1-.348-1.502c-2.732-18.523 5.415-34.772 23.482-41.162 15.356-5.434 31.696-4.24 46.814 1.748q10.03 3.974 17.862 10.377.3.246.082.567L79.563 173.44q-.232.335-.573.116-7.313-4.766-10.42-6.104a145 145 0 0 1-4.117-1.85 31.6 31.6 0 0 0-4.193-1.632c-3.223-.983-6.282-2.082-9.62-2.253a66 66 0 0 0-7.682.055c-2.301.15-3.981 1.352-6.132 1.837q-.717.156-2.417 1.679-.09.082-.069.178.014.027.021.054.028.055-.014.089c-2.8 2.096-3.36 7.162-2.465 10.268q.588 2.041 2.452 3.885 3.168 3.133 7.579 4.554c8.638 2.792 17.487 4.724 26.18 7.339 2.266.69 4.704 1.843 7.128 2.635q3.08 1.01 8.275 4.465c11.164 7.422 15.104 19.636 13.527 32.607q-1.966 16.12-15.316 25.111a92 92 0 0 1-3.175 2.041 23 23 0 0 1-3.346 1.7c-24.93 10.112-54.973 2.144-74.932-15.081a.74.74 0 0 1-.082-1.031m683.963-104.259-48.848 50.918a1.48 1.48 0 0 0-.123 1.918l51.491 69.686a.195.195 0 0 1-.057.289.2.2 0 0 1-.107.032l-32.079.007a.58.58 0 0 1-.464-.239l-37.767-51.847a.33.33 0 0 0-.248-.136.34.34 0 0 0-.264.102l-13.533 14.03a1.1 1.1 0 0 0-.314.785v36.963q0 .342-.342.342h-26.602q-.362 0-.362-.369V139.433a.19.19 0 0 1 .191-.191l26.418.014q.697 0 .697.696v52.563q0 .478.328.13l48.985-52.775a1.95 1.95 0 0 1 1.434-.621h31.314a.35.35 0 0 1 .326.212.35.35 0 0 1-.074.382m100.893 48.589 57.602.007q.05 0 .095.019a.24.24 0 0 1 .151.227l.007 23.807a.247.247 0 0 1-.246.246h-57.629a.245.245 0 0 0-.246.245v25.227q0 .049.019.094a.24.24 0 0 0 .133.133.2.2 0 0 0 .094.019h66.424q.048 0 .094.019a.24.24 0 0 1 .133.133.3.3 0 0 1 .019.094l.007 23.738a.247.247 0 0 1-.246.246l-93.403.007a.245.245 0 0 1-.245-.246V139.481a.245.245 0 0 1 .245-.246l92.501.007a.245.245 0 0 1 .246.246l.021 23.786a.247.247 0 0 1-.246.246l-65.55.007a.245.245 0 0 0-.246.245l.02 24.415a.245.245 0 0 0 .246.245m202.448-24.093a.73.73 0 0 1-.471.062.4.4 0 0 0-.196.007.44.44 0 0 0-.294.245.45.45 0 0 0-.043.191v97.48q0 .369-.368.369h-26.323q-.396 0-.396-.403l-.082-97.487a.4.4 0 0 0-.403-.402l-36.756.006a.29.29 0 0 1-.293-.293l.007-24.613c0-.068.026-.134.074-.183a.25.25 0 0 1 .178-.076h101.45c.12 0 .23.046.31.128s.13.193.13.309l-.01 24.681c0 .053-.01.106-.04.151a.27.27 0 0 1-.28.115.23.23 0 0 1-.13-.075.8.8 0 0 0-.2-.15c-.02-.01-.03-.014-.04-.014-11.83.023-23.663.025-35.489.007a.3.3 0 0 1-.171-.048.16.16 0 0 0-.164-.007"/><path fill="#000" d="M279.362 201.001a38.82 38.82 0 0 0-11.371-27.449 38.83 38.83 0 0 0-54.907 0 38.8 38.8 0 0 0-11.372 27.449 38.82 38.82 0 0 0 38.825 38.82 38.83 38.83 0 0 0 27.454-11.37 38.82 38.82 0 0 0 11.371-27.45"/></svg>
