<svg xmlns="http://www.w3.org/2000/svg" fill="none" viewBox="0 0 1024 469"><path fill="#000" d="M207.585 237.95c-22.262-31.771-43.056-61.623-72.782-92.271-16.831-17.352-32.765-36.346-34.923-58.266-2.288-23.214 34.296-34.46 40.389-8.828 5.879 24.736 3.267 49.809 16.748 73.394 6.437 11.256 18.581 18.927 33.592 13.59 25.929-9.232 1.213-37.17-6.182-49.211-12.096-19.675-13.743-40.3-16.548-61.54-2.02-15.272-9.525-30.4-23.117-41.418C128.428.158 107.482-3.166 85.545 2.968c-34.42 9.625-100.44 63.106-12.8 148.048 17.41 16.87 39.41 30.256 59.922 44.709 34.412 24.254 62.829 51.506 76.985 85.247 14.619 34.835 17.576 76.253-11.379 104.733-36.404 35.82-76.992 24.027-98.779 7.152-29.925-23.181-19.422-42.861-26.17-71.812-3.659-15.697-13.377-30.311-25.652-42.878-8.712-8.916-23.282-17.03-36.053-12.207-12.317 4.652-14.226 18.756-8.615 28.713 5.61 9.956 16.307 17.373 24.377 26.168 6.162 6.709 18.837 23.54 16.032 46.932-2.51 20.919 2.219 43.464 14.921 62.088 39.258 57.574 134.315 53.116 170.451-37.292 29.499-73.803-3.535-129.397-21.2-154.608zM666.068 72.656c-7.747-5.587-11.469-14.199-11.358-22.562.103-8.358 3.708-16.489 8.711-23.823 6.217-9.115 14.95-17.434 26.48-22.158s26.122-5.343 37.17.078c11.048 5.415 17.051 17.434 11.772 26.92-5.19 9.314-15.914 10.1-24.406 16.134-7.547 5.371-5.617 7.622-7.705 14.807-4.501 15.46-25.046 21.865-40.657 10.604zm95.147 13.866c-15.198-5.287-31.932 4.641-41.753 15.355-21.318 23.242-32.538 50.638-32.463 79.539.097 37.877 19.436 73.045 36.019 107.77 15.535 32.54 15.156 67.679-2.578 99.854-8.953 16.245-27.189 27.739-35.543 44.134-6.044 11.864-3.06 28.347 11.634 33.375 15.239 5.216 32.118-4.674 41.636-15.559 40.919-46.8 15.632-133.274 4.646-158.502-50.72-116.471 16.417-145.991 29.781-172.535 5.982-11.887 3.273-28.33-11.379-33.43M469.261 90.2C444.559 4.064 370.42-5.305 336.945 3.096c-81.673 20.505-89.523 89.833-75.077 135.332 22.124 69.688 94.34 64.914 119.159 52.48 19.884-9.961 25.984-28.17 35.64-22.506 13.267 7.782-14.502 32.402-19.243 36.489-53.298 45.87-107.202 74.516-123.095 161.992-4.694 25.82 3.115 57.254 18.781 80.164 4.818 7.047 20.243 27.667 41.76 19.254 25.032-9.79 13.771-33.607 9.325-41.03-4.445-7.423-28.616-37.33-31.449-62.271-11.737-103.273 96.436-121.708 134.798-162.528 39.375-41.894 28.313-87.238 21.71-110.27zm-112.377-9.718c-1.489 1.947-2.626 3.684-3.467 5.344-2.309 4.58-2.323 8.55-.993 14.624 3.571 16.234-10.2 31.301-32.331 25.582-10.283-2.661-18.347-9.553-22.655-17.506-4.307-7.954-5.183-16.876-4.314-25.521 1.075-10.742 4.955-21.589 13.385-29.974 8.429-8.39 21.917-13.933 35.233-12.556s25.342 10.714 25.342 21.489c0 7.301-5.714 12.628-10.207 18.513zm638.769 187.956c-38.362-40.815-144.468-59.25-132.73-162.529 2.833-24.934 24.936-54.847 29.381-62.27 4.439-7.423 15.708-31.235-9.325-41.03-21.517-8.413-36.942 12.207-41.76 19.254-15.673 22.91-23.475 54.344-18.781 80.163 15.893 87.482 69.804 116.122 123.095 161.993 4.749 4.087 32.51 28.707 19.243 36.489-9.656 5.664-15.756-12.545-35.64-22.507-24.825-12.434-97.035-17.207-119.159 52.481-14.446 45.499-6.596 114.827 75.077 135.331 33.468 8.402 107.615-.968 132.316-87.105 6.6-23.032 17.67-68.377-21.71-110.27zm-80.466 138.501c0 10.775-12.027 20.112-25.343 21.489s-26.804-4.165-35.233-12.556c-8.429-8.385-12.31-19.237-13.385-29.973-.868-8.646.007-17.568 4.315-25.521 4.307-7.954 12.371-14.846 22.654-17.507 22.124-5.719 35.895 9.348 32.332 25.582-1.337 6.068-1.324 10.045.992 14.625.841 1.659 1.978 3.396 3.467 5.343 4.494 5.885 10.214 11.212 10.207 18.513z"/><path fill="#000" d="M605.32 147.642c-1.882-9.917-2.853-22.468-2.736-32.612.2-17.257-8.884-30.372-26.011-30.742-24.13-.514-28.672 15.769-29.251 22.6-1.22 14.437 3.577 26.224 11.338 39.283 14.039 23.635 42.573 55.716 54.579 80.258 14.846 30.333 17.72 59.725 10.635 91.242-9.629 42.839-42.05 97.111-106.071 95.563-9.766-.238-20.47-3.336-28.024-8.12-12.578-7.971-22.103-22.086-25.136-34.758-6.534-27.313 9.139-54.41 15.453-80.733 4.383-18.264-2.296-48.974-33.758-47.204-20.477 1.151-31.801 19.741-34.978 36.014-5.776 29.603-4.983 59.665-.29 89.362 4.563 28.895 20.174 57.735 44.124 78.2 28.01 23.933 76.297 28.22 112.171 12.556 35.908-15.676 64.393-49.267 77.496-88.776 11.716-35.322 10.834-76.513-1.91-111.819-6.458-17.904-13.136-35.753-19.422-53.696-6.94-19.797-14.349-36.23-18.216-56.618z"/></svg>
