<svg xmlns="http://www.w3.org/2000/svg" fill="none" viewBox="0 0 1024 259"><path fill="#000" d="M344.846 151.615h22.496c0 7.607 3.806 12.563 18.199 12.563 13.063 0 17.697-3.805 17.697-9.758 0-2.97-1.49-5.286-5.787-6.273-4.303-.992-10.917-1.653-19.026-2.32-11.74-.993-20.841-2.806-25.801-6.279-4.634-3.307-7.778-9.255-7.778-16.029 0-17.684 18.193-27.441 40.855-27.441 26.799 0 39.04 10.253 39.04 29.259h-22.165c-.166-8.599-4.132-13.058-16.539-13.058-11.248 0-16.213 3.797-16.213 9.421 0 3.466 1.324 6.112 5.958 7.27 4.132.992 11.408 1.654 20.179 2.481 10.09.992 17.2 1.985 23.318 5.457 5.296 2.971 9.103 9.09 9.103 16.195 0 17.187-14.724 27.275-42.681 27.275-28.78 0-40.855-12.231-40.855-28.763m101.559-.658v-34.044H434.33V97.404h9.759c3.806 0 5.13-2.144 5.627-7.105l1.158-11.405h20.676v18.51h26.131v19.509H471.55v32.72c0 8.434 3.966 11.074 13.89 11.074 3.475 0 8.606-.496 11.413-1.157v19.006c-2.151.496-9.096 1.825-15.875 1.825-25.476 0-34.573-11.239-34.573-29.424"/><path fill="#000" fill-rule="evenodd" d="M504.966 155.584c0-13.39 9.593-23.141 31.261-23.141h26.628v-5.451c0-9.923-5.62-13.892-17.2-13.892-9.428 0-14.889 3.969-14.889 10.578 0 .497 0 1.825.166 3.473h-23.153c-.171-1.318-.337-3.136-.337-4.79 0-16.526 14.559-26.283 39.372-26.283 25.965 0 41.186 11.571 41.186 33.388v49.583h-25.145c.497-4.128 1.158-11.57 1.158-16.525h-.164c-2.483 11.57-11.745 17.854-26.629 17.854-19.026 0-32.254-8.269-32.254-24.794m57.889-7.933v-1.653h-24.31c-6.786 0-10.918 3.136-10.918 7.766 0 6.279 5.456 9.587 14.553 9.587 13.069 0 20.675-5.783 20.675-15.7" clip-rule="evenodd"/><path fill="#000" d="M599.723 97.401h25.138l-.993 23.306h.331c3.476-15.539 12.242-24.63 28.289-24.63 16.704 0 26.468 10.745 26.468 31.901 0 4.63-.496 11.901-.827 16.201h-22.828c.326-3.969.497-8.098.497-10.578 0-11.902-4.8-16.691-12.738-16.691-10.751 0-18.199 8.753-18.199 26.932v35.207h-25.138z"/><path fill="#000" fill-rule="evenodd" d="M776.38 185.831c0 18.675-16.707 28.598-44.99 28.598-28.779 0-45.819-7.939-45.819-21.493 0-8.594 5.627-13.886 14.723-14.878v-.16c-4.965-3.141-7.613-7.606-7.613-13.389 0-7.767 3.972-12.563 10.096-15.374v-.165c-8.606-4.956-13.4-13.053-13.4-23.631 0-18.351 14.227-29.26 38.207-29.26 9.593 0 17.537 1.654 23.655 4.962l.166-.331c-3.31-2.977-4.794-6.285-4.794-9.261 0-6.77 6.779-10.738 17.2-10.738 4.468 0 6.785.331 9.097.827v15.864q-2.236-.496-4.965-.496c-5.291 0-7.774 2.315-7.774 6.113 0 1.984.663 4.465 1.822 7.442 2.647 4.128 3.965 9.09 3.965 14.878 0 18.345-14.221 29.082-38.372 29.082-4.959 0-9.422-.49-13.565-1.317-.656.992-1.483 2.977-1.483 5.286 0 3.638 2.972 5.789 7.938 5.789h26.467c18.525 0 29.439 8.097 29.439 21.652m-25.151 3.471c0-4.464-3.304-6.945-10.586-6.945h-19.351c-6.786 0-10.752 2.812-10.752 7.442 0 6.113 7.613 9.415 20.51 9.415 12.738 0 20.179-3.468 20.179-9.912m-38.203-63.963c0 8.262 5.462 13.218 14.558 13.218 9.268 0 14.723-4.956 14.723-13.218 0-8.428-5.455-13.39-14.723-13.39-9.096 0-14.558 4.962-14.558 13.39m68.97 30.245c0-13.39 9.589-23.141 31.263-23.141h26.624v-5.451c0-9.923-5.624-13.892-17.198-13.892-9.426 0-14.887 3.969-14.887 10.578 0 .497 0 1.825.163 3.473h-23.156c-.163-1.318-.334-3.136-.334-4.79 0-16.526 14.561-26.283 39.369-26.283 25.965 0 41.185 11.571 41.185 33.388v49.583h-25.142c.497-4.128 1.164-11.57 1.164-16.525h-.171c-2.482 11.57-11.745 17.854-26.624 17.854-19.021 0-32.256-8.269-32.256-24.794m57.887-7.933v-1.653h-24.312c-6.78 0-10.915 3.136-10.915 7.766 0 6.279 5.454 9.587 14.553 9.587 13.064 0 20.674-5.783 20.674-15.7" clip-rule="evenodd"/><path fill="#000" d="M883.705 150.957v-34.044h-12.078V97.404h9.766c3.802 0 5.128-2.144 5.625-7.105l1.156-11.405h20.673v18.51h26.143v19.509h-26.143v32.72c0 8.434 3.972 11.074 13.902 11.074 3.475 0 8.595-.496 11.403-1.157v19.006c-2.148.496-9.099 1.825-15.871 1.825-25.476 0-34.576-11.239-34.576-29.424"/><path fill="#000" fill-rule="evenodd" d="M1024 143.021h-58.057c1.156 13.383 7.936 19.172 19.184 19.172 9.759 0 16.043-3.468 16.713-11.405H1024c-.5 18.676-16.05 29.59-39.369 29.59-27.128 0-44.001-15.38-44.001-41.326 0-26.944 16.872-42.974 44.497-42.974 22.823 0 38.873 13.059 38.873 39.838zm-22.16-14.712c0-9.256-6.295-14.046-16.713-14.046-10.589 0-16.539 4.625-18.525 15.369h35.238z" clip-rule="evenodd"/><path fill="#000" d="m154.902 10.276 6.879 16.1a133.37 133.37 0 0 0 70.341 70.289l16.114 6.874c4.217 1.797 7.64 4.373 10.283 7.443C250.495 53.49 204.989 8.012 147.453 0c3.066 2.634 5.651 6.062 7.449 10.276M10.284 103.539l16.113-6.874a133.4 133.4 0 0 0 70.347-70.288l6.873-16.101c1.805-4.214 4.384-7.642 7.449-10.276C53.53 8.012 8.025 53.49 0 110.982c2.643-3.07 6.066-5.646 10.284-7.443m237.952 51.231-16.114 6.875a133.38 133.38 0 0 0-70.341 70.293l-6.879 16.095c-1.798 4.214-4.383 7.642-7.449 10.283 57.536-8.019 103.042-53.496 111.066-110.989-2.643 3.069-6.066 5.646-10.283 7.443m-144.619 93.263-6.873-16.095a133.4 133.4 0 0 0-70.347-70.293l-16.113-6.875c-4.218-1.797-7.641-4.374-10.284-7.443 8.025 57.493 53.53 102.97 111.066 110.989-3.065-2.641-5.644-6.069-7.449-10.283m-33.003-131.5 7.94-3.389a65.75 65.75 0 0 0 34.666-34.633l3.386-7.935c4.748-11.114 20.515-11.114 25.263 0l3.386 7.935a65.74 65.74 0 0 0 34.665 34.633l7.941 3.389c11.122 4.744 11.122 20.494 0 25.239l-7.941 3.389a65.73 65.73 0 0 0-34.665 34.639l-3.386 7.928c-4.748 11.114-20.515 11.114-25.263 0l-3.386-7.928a65.73 65.73 0 0 0-34.665-34.639l-7.941-3.389c-11.122-4.745-11.122-20.495 0-25.239"/></svg>