<svg xmlns="http://www.w3.org/2000/svg" fill="none" viewBox="0 0 1024 242"><path fill="#000" d="M369.053 172.25c29.234 0 48.846-15.858 48.846-39.55 0-54.262-69.199-36.302-69.199-60.568 0-8.98 7.586-14.52 19.983-14.52 13.507 0 22.943 8.215 25.533 21.208l22.573-9.554c-4.07-20.252-23.498-33.818-48.106-33.818-25.533 0-44.96 15.285-44.96 36.684 0 48.531 68.643 32.29 68.643 61.141 0 10.127-8.881 16.814-22.388 16.814-14.432 0-26.459-10.891-28.494-26.94l-22.387 7.069c3.145 24.265 24.423 42.034 49.956 42.034m125.086-97.824-23.128 61.904-22.387-61.905h-25.349L459.54 166.9l-14.432 38.595h23.683l49.216-131.07zm36.694 96.296h23.313v-42.226c0-21.59 8.326-34.2 22.572-34.2 10.917 0 17.763 7.834 17.763 19.107v57.319h23.313V107.67c0-21.016-13.692-34.773-34.045-34.773-13.136 0-23.683 6.687-29.603 16.05V74.424h-23.313zm145.391-97.825c-19.798 0-36.264 12.228-39.228 31.334l20.725 3.822c1.109-10.318 8.327-16.814 18.503-16.814 11.284 0 18.502 6.687 18.502 17.578v.955l-17.394 1.719c-27.75 3.058-41.631 13.184-41.631 32.099 0 16.432 12.766 28.66 31.088 28.66 11.471 0 22.756-6.114 27.937-15.476v13.948h22.575v-58.657c0-25.603-16.653-39.168-41.077-39.168m-4.254 81.584c-8.513 0-13.694-4.968-13.694-11.655 0-6.878 6.29-12.228 18.689-13.756l17.761-2.102v2.102c0 14.138-8.326 25.411-22.756 25.411m68.099 51.014h23.31v-44.327c5.368 6.879 15.357 11.082 26.087 11.082 27.389 0 44.963-20.253 44.963-49.676s-16.466-49.677-43.294-49.677c-12.399 0-22.575 5.158-27.756 12.61V74.425h-23.31zm46.626-54.071c-14.99 0-24.792-11.464-24.792-28.85 0-17.388 9.802-28.851 24.792-28.851 14.803 0 24.605 11.463 24.605 28.851 0 17.386-9.802 28.85-24.605 28.85m97.059 20.826c21.467 0 35.896-13.374 35.896-29.997 0-39.359-51.253-25.794-51.253-42.798 0-5.54 4.995-8.79 12.399-8.79 7.585 0 15.725 4.778 18.316 13.949l18.875-8.216c-4.072-13.948-19.43-23.501-37.564-23.501-20.352 0-33.119 11.846-33.119 26.94 0 36.493 50.886 24.647 50.886 42.798 0 6.114-5.736 10.891-14.436 10.891-11.658 0-18.869-8.025-21.647-17.769l-19.056 8.025c4.627 14.138 18.128 28.468 40.703 28.468M1024 119.325c0-22.354-15.36-46.428-46.813-46.428-30.895 0-46.072 24.647-46.072 49.677 0 25.029 16.472 49.676 47.368 49.676 21.837 0 38.117-10.7 43.297-28.85l-21.831-6.115c-2.41 9.363-10.176 14.712-21.093 14.712-13.321 0-22.388-8.597-24.424-23.118h69.198c.18-1.911.37-6.115.37-9.554m-69.014-8.024c2.59-12.992 10.73-20.062 22.201-20.062 13.508 0 20.726 8.598 21.834 20.062zm-890.982-2.008h129.422q.168 0 .234-.165c9.49-23.88 39.795-28.35 56.354-10.302 10.518 11.464 11.212 29.054 1.762 41.397-9.82 12.826-26.66 16.376-40.836 10.152a.27.27 0 0 0-.314.052l-50.957 45.804a.19.19 0 0 0-.049.214c4.354 11.453 2.129 24.059-5.701 33.181-15.299 17.839-43.392 14.422-54.366-6.476q-3.872-7.372-3.479-16.529c.658-15.332 12.314-27.619 26.125-30.448q12.334-2.53 23.669 3.97.162.094.307-.032l49.053-44.095q.125-.116.056-.277l-2.083-4.754q-.066-.15-.222-.15H64.309q-.206 0-.275.199c-10.353 29.65-51.744 29.709-62.345.035a.43.43 0 0 0-.198-.238l-.136-.077q-.11-.063-.05-.175c.268-.528-.092-.969-.201-1.389-4.52-17.559 5.284-34.484 21.37-39.784q11.976-3.948 23.933 1.19.159.07.294-.049l51.542-45.443a.2.2 0 0 0 .06-.104.2.2 0 0 0-.007-.124c-4.407-11.933-2.189-25.07 6.422-34.28 11.814-12.64 30.78-14.055 44.281-3.795 18.04 13.712 16.605 41.047-1.829 53.338-10.597 7.064-24.048 7.256-34.976.97a.31.31 0 0 0-.357.038L62.116 104.98q-.145.129-.063.312l1.73 3.854a.23.23 0 0 0 .221.147"/></svg>
