<svg xmlns="http://www.w3.org/2000/svg" fill="none" viewBox="0 0 1024 265"><path fill="#000" d="M389.458 104.956h-22.025v35.466q0 7.601 2.923 10.912 3.12 3.119 10.721 3.119 3.703 0 8.381-.586v22.022q-9.55 2.142-16.568 2.142-15.203 0-23.584-8.964-8.186-9.158-8.187-27.281v-36.83h-14.618V84.689h14.618v-23.19h26.314v23.19h22.025zm57.006-23.384q12.28 0 22.61 5.066 10.525 5.067 16.957 16.369 6.433 11.303 6.433 28.646 0 4.092-.195 6.236h-65.882q1.56 8.77 6.628 14.031 5.066 5.262 13.839 5.262 13.058-.001 17.542-11.303h26.509q-3.705 16.174-15.788 24.553-11.89 8.379-28.458 8.379-12.67 0-23.389-5.067-10.72-5.26-17.349-16.174-6.626-11.106-6.626-27.671 0-16.368 6.626-27.087 6.628-10.912 17.349-15.979 10.72-5.26 23.194-5.261m-.195 21.63q-8.576 0-13.449 5.262-4.873 5.066-6.433 13.835h39.568q-3.12-19.097-19.686-19.097m114.468-21.24q14.814 0 22.611 9.353t7.796 25.724v58.655h-26.313v-52.225q0-8.769-4.094-13.446-3.898-4.677-11.694-4.677t-12.085 4.872q-4.094 4.872-4.094 13.251v52.225H506.55V84.69h26.314v12.472q3.51-5.847 10.526-10.523 7.212-4.677 17.347-4.677M671.04 57.408h26.503v118.286h-26.314v-9.938q-4.676 6.04-11.887 9.353-7.017 3.314-15.594 3.314-11.306 0-20.076-5.457-8.77-5.65-13.644-16.564-4.873-10.912-4.872-26.112 0-22.995 10.524-35.662 10.721-12.666 28.068-12.666 8.577 0 15.594 3.313c4.678 2.208 8.574 5.326 11.698 9.353zm-18.91 98.799q10.331 0 15.397-7.21 5.268-7.21 5.267-18.707.001-11.498-5.267-18.708-5.066-7.405-15.397-7.405t-15.203 7.015q-4.873 7.016-4.873 19.098t4.873 19.097q4.873 6.82 15.203 6.82m106.465-74.635c8.183 0 15.722 1.689 22.606 5.066 7.021 3.378 12.67 8.834 16.957 16.369q6.437 11.303 6.435 28.646 0 4.092-.194 6.236h-65.884q1.557 8.77 6.631 14.031 5.063 5.262 13.839 5.262c8.702 0 14.553-3.769 17.541-11.303h26.509c-2.468 10.782-7.735 18.967-15.788 24.553q-11.894 8.379-28.464 8.379c-8.442 0-16.242-1.688-23.385-5.067q-10.723-5.26-17.346-16.174-6.633-11.106-6.631-27.671-.002-16.368 6.631-27.087 6.623-10.912 17.346-15.979 10.716-5.26 23.197-5.261m-.195 21.63q-8.58 0-13.449 5.262-4.88 5.066-6.436 13.835h39.569c-2.078-12.731-8.644-19.097-19.684-19.097m86.373-2.728q4.48-9.548 10.715-14.03 6.243-4.483 14.619-4.482 3.515 0 8.774.974v27.477h-.78c-3.766-1.559-7.474-2.339-11.111-2.339q-9.546 0-15.788 6.821-6.234 6.626-6.234 18.513v42.286h-26.315V84.69h26.12zm72.391 75.218h-26.315V57.212h26.315zm58.5-28.449 19.879-62.554H1024l-45.998 122.378h-28.848l13.255-30.009-34.698-92.37h28.457zM197.887 80.067l72.33-43.322.059 80.482-56.032 30.526c-38.219 20.824-54.389 36.35-69.144 72.394-6.711 16.394-9.64 38.15-9.926 44.211 0-38.602 2.179-50.145 2.179-82.648 0-8.008.942-16.819 2.047-21.036 0 0 9.512-53.922 58.487-80.607m-62.749 103.308.036 80.983-68.43-37.182-.03-62.735c-.02-42.79-13.711-74.897-31.05-94.3C18.327 50.748 5.274 44.886 0 41.694c34.153 17.928 43.188 22.764 72.312 38.068 7.215 3.79 16.607 11.005 19.836 14 0 0 42.965 34.779 42.99 89.614"/><path fill="#000" d="M197.772 76.154c29.196-15.69 50.406-27.452 72.445-39.409-5.554 2.743-17.404 10.722-43.538 15.07-26.148 4.35-62.902 3.413-100.774-18.982L70.381 0 0 41.693l76.758 35.318c18.607 10.924 65.061 29.211 121.014-.857"/></svg>