<svg xmlns="http://www.w3.org/2000/svg" fill="none" viewBox="0 0 1024 220"><path fill="#000" fill-rule="evenodd" d="m151.853 16.556-67.502 28.37q-14.12 5.85-28.134 11.948c.095.228 48.33 49.118 48.462 49.118.057 0 2.368-2.75 5.116-6.126Q150.277 50.375 190.748.873c.398-.493.663-.872.568-.872-.076 0-17.846 7.453-39.463 16.556m308.809 50.938c-5.684.455-10.951 1.783-14.399 3.603-6.555 3.509-10.799 11-12.599 22.227a133.6 133.6 0 0 0-.568 29.622c.966 9.35 3.012 15.741 6.555 20.577 1.023 1.422 3.278 3.641 4.528 4.494 3.164 2.143 8.222 3.717 14.304 4.457 3.183.379 13.337.322 16.482-.095 11.083-1.479 16.52-4.931 20.537-12.991 2.273-4.551 3.656-10.525 4.414-19.002.322-3.622.303-16.442 0-20.197-.72-8.401-2.046-14.242-4.3-18.983-1.327-2.845-2.672-4.78-4.623-6.733-2.652-2.674-5.21-4.096-9.681-5.386-5.267-1.517-13.565-2.162-20.65-1.593m189.074-.076c-5.4.512-8.677 1.271-12.087 2.845-2.066.91-3.79 2.162-5.57 3.983-5.154 5.29-7.844 13.275-8.886 26.417-.284 3.565-.284 14.773 0 18.775.644 8.913 2.046 15.456 4.358 20.405 3.902 8.269 9.491 11.72 20.764 12.801 2.842.285 12.314.114 16.293-.284a85.4 85.4 0 0 0 13.508-2.39l.795-.189v-10.867l-1.288.133c-10.42 1.005-21.219 1.365-25.747.853-9.245-1.024-12.788-5.31-14.171-17.144a132 132 0 0 1-.511-17.693c.341-7.776.928-11.91 2.216-15.513 2.691-7.586 7.541-9.843 20.272-9.482 6.14.142 12.266.674 18.339 1.593l.89.19V70.926l-1.477-.38c-5.646-1.517-12.561-2.654-18.51-3.072-2.652-.17-7.673-.208-9.188-.057m-406.813.759c-.076.057-.132 2.92-.132 6.353v6.24h24.06l.038 35.709.057 35.691 7.066.057 7.048.038V80.769h24.061l-.038-6.315-.057-6.296-30.995-.057c-17.05 0-31.051.02-31.108.095m92.226.095c-.057.133-.076 19.059-.057 42.063l.057 41.816h14.019l.057-17.504.038-17.485h35.238v35.084l7.067-.038 7.048-.057V68.158l-7.067-.057-7.048-.038v36.412h-35.238l-.038-18.168-.057-18.149-6.971-.057c-5.476-.038-6.991 0-7.048.19m199.02 41.873v42.101h14.02v-32.619l8.203.133c4.49.057 8.203.133 8.222.152.038 0 3.316 7.263 7.294 16.12l7.256 16.119 6.915.057c3.789.019 7.01 0 7.143-.038.132-.057-2.804-6.505-7.825-17.2a1391 1391 0 0 1-7.995-17.163l1.8-.797a21.53 21.53 0 0 0 8.829-7.187c1.951-2.94 2.936-6.562 3.353-12.194.493-6.581-.436-13.882-2.33-18.339-2.463-5.765-7.578-9.368-15.384-10.81-1.515-.284-3.978-.322-20.612-.379l-18.889-.076v42.101m177.802-41.854c-.057.133-.076 19.059-.057 42.063l.057 41.816h14.019l.057-17.504.038-17.485h35.238v35.084l7.067-.038 7.048-.057V68.158l-7.067-.057-7.048-.038v36.412h-35.238l-.038-18.168-.057-18.149-6.971-.057c-5.476-.038-6.991 0-7.048.19m121.572.095c-.284.53-27.13 83.291-27.13 83.595 0 .246 1.004.284 7.105.284 6.555 0 7.104-.019 7.256-.341a1175 1175 0 0 0 5.93-18.396l.379-1.176h30.388l3.221 9.919 3.22 9.899 7.351.057c4.035.019 7.332-.019 7.332-.095 0-.095-6.138-19.021-13.622-42.063l-13.622-41.911-8.809-.057c-8.26-.038-8.848-.019-8.999.285m75.838-.095c-.057.133-.076 19.059-.057 42.063l.057 41.816H923.4V68.158l-6.971-.057c-5.476-.038-6.991 0-7.048.19m51.058 41.873v42.101l7.066-.038 7.048-.057.095-29.812.094-29.793 19.021 29.85 19.017 29.85 5.61-.038 5.61-.057V68.158l-7.05-.057-7.06-.038-.04 29.907-.06 29.926-18.831-29.585a5119 5119 0 0 0-19.115-29.925c-.266-.285-.796-.323-5.855-.323h-5.55zM462.177 80.2c-3.789.38-7.711 1.764-9.321 3.3-3.978 3.869-5.532 9.406-6.062 21.847-.36 8.686.227 18.206 1.439 23.118a16.05 16.05 0 0 0 4.301 8.154c2.785 2.504 8.109 3.699 15.308 3.452 7.085-.247 11.14-1.707 13.603-4.969 2.273-3.015 3.561-7.396 4.262-14.602.322-3.338.322-17.201 0-20.482-1.099-11.132-3.467-16.195-8.525-18.32-3.372-1.403-9.473-2.01-15.005-1.479m380.005.475c-.076.094-2.69 8.723-5.816 19.153-3.126 10.45-5.76 19.155-5.816 19.306-.114.285.928.304 11.67.304h11.765l-.114-.38a16511 16511 0 0 1-11.518-38.402c-.038-.095-.114-.095-.19 0M548.189 94.613v13.844h9.813c10.742 0 11.33-.057 13.622-1.138a9.1 9.1 0 0 0 4.13-4.077 16.7 16.7 0 0 0 1.459-6.41c.246-2.901.019-6.694-.53-8.761-.948-3.641-3.107-5.747-6.991-6.846-.985-.285-2.406-.342-11.33-.418l-10.173-.076zM73.704 139.787A324518 324518 0 0 1 .007 219.949c-.057.114.265.038.7-.171l109.372-46.083a5932 5932 0 0 0 42.968-18.206c.132-.133-47.989-49.175-48.33-49.269-.076-.019-14.02 15.076-31.013 33.548" clip-rule="evenodd"/></svg>
