<svg xmlns="http://www.w3.org/2000/svg" fill="none" viewBox="0 0 1024 249"><path fill="#000" d="M71.465 18.103c-3.237-.5-3.373-.558-1.85-.79 2.919-.447 9.81.162 14.56 1.284 11.089 2.62 21.178 9.334 31.947 21.256l2.862 3.168 4.093-.654c17.243-2.756 34.785-.566 49.458 6.173 4.036 1.854 10.4 5.545 11.195 6.493.253.302.718 2.248 1.034 4.324 1.089 7.183.543 12.688-1.666 16.8-1.202 2.238-1.27 2.947-.461 4.862.645 1.528 2.445 2.66 4.226 2.657 3.646-.005 7.57-5.865 9.389-14.02l.722-3.238 1.431 1.611c7.849 8.842 14.013 20.9 15.073 29.481l.275 2.239-1.32-2.035c-2.27-3.5-4.551-5.883-7.473-7.805-5.266-3.465-10.833-4.644-25.58-5.416-13.317-.698-20.855-1.83-28.329-4.252-12.716-4.123-19.126-9.613-34.231-29.318-6.71-8.752-10.857-13.594-14.982-17.494-9.373-8.86-18.583-13.508-30.373-15.326"/><path fill="#000" d="M186.734 37.645c.334-5.865 1.135-9.734 2.743-13.266.637-1.399 1.233-2.543 1.325-2.543s-.185 1.032-.615 2.293c-1.169 3.429-1.361 8.118-.556 13.574 1.022 6.923 1.604 7.922 8.963 15.4 3.452 3.507 7.467 7.93 8.921 9.83l2.647 3.453-2.647-2.468c-3.235-3.018-10.678-8.904-12.322-9.745-1.102-.564-1.267-.555-1.946.118-.627.62-.759 1.552-.846 5.957-.135 6.865-1.076 11.27-3.348 15.677-1.228 2.383-1.421 1.874-.311-.816.831-2.008.915-2.89.909-9.536-.013-13.353-1.607-16.563-10.957-22.062-2.369-1.393-6.271-3.402-8.673-4.465-2.401-1.062-4.309-1.988-4.239-2.057.265-.262 9.383 2.384 13.053 3.788 5.459 2.087 6.36 2.358 7.024 2.106.444-.169.659-1.456.875-5.238M77.752 60.487c-6.57-8.994-10.636-22.785-9.756-33.094l.272-3.19 1.496.272c2.808.51 7.651 2.301 9.919 3.67 6.223 3.759 8.916 8.706 11.657 21.41.804 3.72 1.857 7.932 2.341 9.358.78 2.294 3.73 7.654 6.127 11.135 1.726 2.507.579 3.695-3.238 3.352-5.83-.523-13.724-5.94-18.818-12.913m101.012 66.94c-30.707-12.293-41.522-22.963-41.522-40.967 0-2.649.092-4.817.203-4.817.113 0 1.3.875 2.641 1.944 6.227 4.965 13.199 7.086 32.502 9.886 11.359 1.648 17.751 2.979 23.648 4.923 18.742 6.18 30.338 18.722 33.103 35.804.803 4.964.333 14.272-.97 19.178-1.029 3.875-4.167 10.86-4.999 11.127-.231.075-.458-.806-.517-2.002-.316-6.414-3.576-12.659-9.051-17.336-6.225-5.32-14.589-9.554-35.038-17.74m-21.558 5.106c-.384-2.275-1.051-5.182-1.482-6.46l-.784-2.321 1.456 1.625c2.014 2.247 3.606 5.123 4.954 8.954 1.029 2.924 1.145 3.793 1.137 8.543-.007 4.665-.136 5.642-1.087 8.274-1.498 4.15-3.359 7.092-6.481 10.25-5.608 5.676-12.82 8.819-23.227 10.123-1.809.226-7.081.607-11.717.846-11.681.605-19.369 1.853-26.277 4.265-.993.347-1.88.558-1.97.468-.28-.277 4.424-3.065 8.308-4.925 5.478-2.623 10.932-4.055 23.15-6.078 6.035-1 12.267-2.213 13.851-2.695 14.946-4.556 22.629-16.314 20.169-30.869"/><path fill="#000" d="M171.283 157.389c-4.08-8.72-5.017-17.139-2.782-24.991.24-.838.624-1.525.855-1.525.232 0 1.194.517 2.14 1.149 1.88 1.259 5.65 3.378 15.696 8.824 12.536 6.795 19.682 12.056 24.542 18.069 4.257 5.265 6.891 11.26 8.159 18.572.718 4.142.297 14.108-.772 18.278-3.37 13.151-11.203 23.48-22.376 29.508-1.636.883-3.106 1.608-3.265 1.612-.159.003.437-1.505 1.325-3.351 3.759-7.812 4.187-15.411 1.345-23.868-1.739-5.179-5.287-11.497-12.449-22.177-8.327-12.416-10.369-15.721-12.418-20.1M55.945 204.44c11.395-9.567 25.573-16.363 38.489-18.449 5.565-.899 14.838-.543 19.992.77 8.261 2.102 15.652 6.81 19.495 12.42 3.757 5.483 5.368 10.261 7.046 20.89.662 4.194 1.382 8.405 1.599 9.358 1.26 5.51 3.712 9.913 6.751 12.124 4.826 3.512 13.136 3.732 21.311.56 1.387-.538 2.592-.91 2.677-.826.296.293-3.821 3.033-6.725 4.476-3.907 1.94-7.014 2.69-11.143 2.69-7.488 0-13.703-3.787-18.891-11.509-1.02-1.519-3.314-6.071-5.097-10.114-5.476-12.419-8.181-16.203-14.539-20.343-5.534-3.603-12.67-4.248-18.04-1.631-7.052 3.438-9.019 12.399-3.968 18.077 2.008 2.257 5.751 4.203 8.812 4.581 5.727.709 10.648-3.623 10.648-9.371 0-3.732-1.443-5.864-5.076-7.493-4.96-2.226-10.294.376-10.268 5.01.012 1.976.876 3.217 2.869 4.113 1.278.575 1.307.621.265.405-4.552-.938-5.618-6.394-1.958-10.017 4.395-4.349 13.481-2.43 16.602 3.507 1.31 2.492 1.463 7.458.32 10.456-2.558 6.711-10.017 10.24-17.582 8.32-5.152-1.307-7.25-2.724-13.46-9.084-10.792-11.054-14.982-13.195-30.54-15.61l-2.981-.462z"/><path fill="#000" fill-rule="evenodd" d="M5.308 6.611c36.04 43.492 60.863 61.436 63.621 65.227 2.278 3.13 1.42 5.945-2.481 8.15-2.17 1.227-6.631 2.469-8.865 2.469-2.526 0-3.393-.969-3.393-.969-1.465-1.381-2.29-1.14-9.812-14.415-10.443-16.112-19.182-29.477-19.42-29.7-.552-.518-.542-.5 18.355 33.119 3.054 7.007.608 9.58.608 10.577 0 2.03-.557 3.098-3.076 5.891-4.2 4.658-6.076 9.891-7.431 20.722-1.52 12.141-5.791 20.718-17.628 35.396-6.93 8.592-8.063 10.167-9.812 13.631-2.202 4.361-2.808 6.803-3.053 12.311-.26 5.822.246 9.583 2.035 15.15 1.566 4.874 3.201 8.093 7.38 14.529 3.608 5.555 5.685 9.683 5.685 11.298 0 1.285.246 1.286 5.836.032 13.376-3.004 24.238-8.286 30.346-14.759 3.78-4.007 4.668-6.219 4.697-11.71.019-3.592-.108-4.343-1.084-6.409-1.59-3.363-4.483-6.158-10.86-10.493-8.356-5.68-11.925-10.252-12.91-16.539-.81-5.16.129-8.8 4.751-18.432 4.785-9.971 5.97-14.22 6.773-24.27.518-6.493 1.235-9.054 3.111-11.11 1.957-2.143 3.719-2.869 8.562-3.526 7.895-1.073 12.922-3.104 17.055-6.89 3.585-3.285 5.085-6.45 5.315-11.214l.175-3.611-2.004-2.322C70.53 60.334.45 0 .003 0c-.096 0 2.292 2.975 5.305 6.611m16.785 168.996c1.64-2.887.769-6.601-1.975-8.414-2.592-1.715-6.62-.907-6.62 1.326 0 .681.38 1.178 1.234 1.614 1.438.737 1.543 1.564.411 3.256-1.146 1.712-1.054 3.219.261 4.242 2.119 1.649 5.118.742 6.69-2.024M84.77 94.675c-3.706 1.132-7.31 5.037-8.424 9.133-.68 2.498-.295 6.881.724 8.235 1.647 2.186 3.239 2.762 7.55 2.732 8.441-.059 15.779-3.658 16.632-8.158.699-3.689-2.524-8.8-6.963-11.045-2.29-1.157-7.162-1.617-9.519-.897m9.867 7.671c1.302-1.839.733-3.826-1.481-5.17-4.216-2.56-10.591-.442-10.591 3.518 0 1.971 3.324 4.122 6.372 4.122 2.028 0 4.804-1.202 5.7-2.47" clip-rule="evenodd"/><path fill="#000" d="M929.696 238.288V107.07h18.938v14.88c5.218-8.502 15.267-17.199 32.079-17.199 25.127 0 43.287 19.905 43.287 50.052s-18.16 50.052-43.287 50.052c-17.199 0-27.054-9.083-31.886-16.813v50.246zm46.573-48.7c18.745 0 27.831-15.654 27.831-34.785 0-19.132-9.086-34.785-27.831-34.785-18.746 0-28.215 16.04-28.215 34.785s9.469 34.785 28.215 34.785m-117.967 15.267c-17.2 0-32.661-10.436-32.661-28.215 0-17.392 12.175-25.316 32.854-29.374l13.14-2.705c10.243-2.126 15.074-4.252 15.074-12.175s-6.57-13.528-18.165-13.528c-12.562 0-20.679 7.73-21.451 20.484l-19.712-1.739c1.353-20.484 17.779-32.852 41.356-32.852 24.35 0 37.297 11.788 37.297 31.887v65.898h-18.359v-11.209h-.193c-4.445 7.344-14.301 13.528-29.18 13.528m5.024-13.721c13.527 0 24.156-8.889 24.156-24.736v-11.595c-20.098 3.285-29.567 5.99-35.365 9.662-4.444 2.706-6.957 6.57-6.957 11.789 0 8.889 7.344 14.88 18.166 14.88m-160.663 11.404-30.34-95.465h20.292l20.871 72.082h.193l21.644-72.082h19.131l21.837 71.888h.194l20.871-71.888h19.905l-30.341 95.465h-20.098l-21.644-73.628h-.193l-22.03 73.628zm-77.165 2.317c-23.77 0-41.164-11.015-43.289-33.82l18.939-2.318c.966 15.073 11.595 22.031 24.736 22.031 12.948 0 21.644-5.798 21.644-15.074s-8.889-11.209-20.871-13.914l-14.107-3.285c-15.461-3.672-26.09-11.015-26.09-25.703 0-16.233 16.041-28.021 38.651-28.021 21.837 0 36.718 11.015 39.229 28.794l-19.131 2.706c-1.353-11.402-9.663-17.393-20.871-17.393-11.402 0-18.746 5.605-18.746 12.948 0 6.957 4.252 9.469 16.233 12.175l14.108 3.285c20.098 4.638 30.727 11.209 30.727 26.475 0 19.133-17.779 31.114-41.162 31.114m-78.915-2.317v-95.466h19.132v95.466zm0-110.346v-22.61h19.132v22.61zm-106.96 110.344V107.07h18.939v13.528h.193c5.411-8.31 16.04-15.847 30.534-15.847 21.258 0 33.819 12.754 33.819 35.944v61.841h-19.133v-53.531c0-17.199-3.864-28.214-19.904-28.214s-25.316 12.948-25.316 28.407v53.338zm-74.4 2.321c-31.693 0-51.018-17.973-51.018-51.018V69.582h20.099v83.097c0 21.451 10.048 35.365 30.919 35.365 22.611 0 30.92-13.914 30.92-35.365V69.582h20.099v84.257c0 33.045-19.326 51.018-51.019 51.018"/></svg>