<svg xmlns="http://www.w3.org/2000/svg" fill="none" viewBox="0 0 1024 201"><path fill="#000" d="M136.149 178.663c22.926 0 41.511-20.197 41.511-45.111s-18.585-45.11-41.511-45.11-41.512 20.196-41.512 45.11 18.586 45.111 41.512 45.111"/><path fill="#000" d="M136.149 178.663c22.926 0 41.511-19.796 41.511-44.217s-18.585-44.217-41.511-44.217-41.512 19.797-41.512 44.217c0 24.421 18.586 44.217 41.512 44.217"/><path fill="#000" d="M136.149 178.663c22.926 0 41.511-19.796 41.511-44.217s-18.585-44.217-41.511-44.217-41.512 19.797-41.512 44.217c0 24.421 18.586 44.217 41.512 44.217"/><path fill="#000" d="M77.677 194.74c42.9 0 77.677-31.596 77.677-70.57 0-38.975-34.777-70.57-77.677-70.57S0 85.195 0 124.17s34.777 70.57 77.677 70.57"/><path fill="#000" d="M77.677 194.74c42.9 0 77.677-31.596 77.677-70.57 0-38.975-34.777-70.57-77.677-70.57S0 85.195 0 124.17s34.777 70.57 77.677 70.57m178.553-24.122c25.149 0 45.536-20.197 45.536-45.111s-20.387-45.111-45.536-45.111c-25.148 0-45.535 20.197-45.535 45.111s20.387 45.111 45.535 45.111"/><path fill="#000" d="M204.005 200.103c22.926 0 41.511-20.197 41.511-45.111s-18.585-45.111-41.511-45.111-41.511 20.197-41.511 45.111 18.585 45.111 41.511 45.111"/><path fill="#000" d="M204.005 200.096c22.926 0 41.511-19.797 41.511-44.217 0-24.421-18.585-44.217-41.511-44.217s-41.511 19.796-41.511 44.217 18.585 44.217 41.511 44.217"/><path fill="#000" d="M204.005 200.096c22.926 0 41.511-19.797 41.511-44.217 0-24.421-18.585-44.217-41.511-44.217s-41.511 19.796-41.511 44.217 18.585 44.217 41.511 44.217"/><path fill="#000" d="M256.681 170.618c24.899 0 45.085-20.197 45.085-45.111s-20.186-45.111-45.085-45.111-45.085 20.197-45.085 45.111 20.185 45.111 45.085 45.111"/><path fill="#000" d="M256.681 170.618c24.899 0 45.085-20.197 45.085-45.111s-20.186-45.111-45.085-45.111-45.085 20.197-45.085 45.111 20.185 45.111 45.085 45.111"/><path fill="#000" d="M157.133 139.352c42.9 0 77.677-31.195 77.677-69.676S200.033 0 157.133 0 79.456 31.195 79.456 69.676s34.777 69.676 77.677 69.676"/><path fill="#000" d="M157.133 139.352c42.9 0 77.677-31.195 77.677-69.676S200.033 0 157.133 0 79.456 31.195 79.456 69.676s34.777 69.676 77.677 69.676"/><path fill="#000" d="M157.133 139.352c42.9 0 77.677-31.195 77.677-69.676S200.033 0 157.133 0 79.456 31.195 79.456 69.676s34.777 69.676 77.677 69.676m227.618-89.498c3.618 0 6.83 1.345 9.629 4.026a13.12 13.12 0 0 1 4.172 9.812v36.356a21.9 21.9 0 0 0 1.882 8.984c2.385 5.526 6.838 9.929 12.427 12.293a22.6 22.6 0 0 0 9.082 1.862 23.5 23.5 0 0 0 8.757-1.648 24.7 24.7 0 0 0 7.414-4.543 20.9 20.9 0 0 0 5.117-7.026 21.2 21.2 0 0 0 1.882-8.88V63.492c0-3.435 1.322-6.538 3.966-9.294a13.5 13.5 0 0 1 4.356-3.132 13.7 13.7 0 0 1 5.25-1.205 13.36 13.36 0 0 1 9.717 4.027c2.71 2.682 4.142 5.681 4.275 8.984v37.183a48.1 48.1 0 0 1-3.965 19.423c-5.161 11.991-14.819 21.544-26.943 26.649a49.9 49.9 0 0 1-19.84 3.923 44.7 44.7 0 0 1-19.213-3.406c-12.146-5.009-21.922-14.377-27.357-26.235a44.4 44.4 0 0 1-4.179-18.906v-38.01a13.2 13.2 0 0 1 .982-5.084 13.3 13.3 0 0 1 2.88-4.322 13.5 13.5 0 0 1 4.415-3.095 13.7 13.7 0 0 1 5.294-1.138m162.893-.414a51.9 51.9 0 0 1 19.212 3.62 49.6 49.6 0 0 1 16.082 10.122 50.5 50.5 0 0 1 11.068 15.39 44.54 44.54 0 0 1 4.172 19.215v38.218a12.7 12.7 0 0 1-.974 5.039 13 13 0 0 1-2.888 4.263 13.4 13.4 0 0 1-4.334 3.007 13.7 13.7 0 0 1-5.168 1.13 14.1 14.1 0 0 1-9.71-3.62 11.8 11.8 0 0 1-3.079-4.145 11.65 11.65 0 0 1-.997-5.046V99.449a23 23 0 0 0-1.772-8.983 21.7 21.7 0 0 0-5.006-7.337 25.4 25.4 0 0 0-7.524-4.957 23.1 23.1 0 0 0-9.289-1.862 22.5 22.5 0 0 0-8.779 1.751 25 25 0 0 0-7.31 4.647 21.6 21.6 0 0 0-5.006 7.026 20.7 20.7 0 0 0-1.883 8.681v37.598c0 3.583-1.396 6.715-4.179 9.397q-4.178 4.023-9.584 4.034a14 14 0 0 1-9.614-3.724 11.6 11.6 0 0 1-3.108-4.085 11.6 11.6 0 0 1-1.064-5.002V99.449a51.9 51.9 0 0 1 4.076-19.422 50.1 50.1 0 0 1 10.647-15.907 49.9 49.9 0 0 1 16.503-10.956 50.3 50.3 0 0 1 19.515-3.709zm89.373 1.234a14.6 14.6 0 0 0-9.4 3.724 12.9 12.9 0 0 0-3.101 4.004 12.6 12.6 0 0 0-1.292 4.876v74.788c.554 3.99 2.089 7.093 4.592 9.294a13.46 13.46 0 0 0 9.193 3.303c4.039-.281 7.229-1.655 9.584-4.13 2.356-2.475 3.53-5.571 3.53-9.294V64.105a15.25 15.25 0 0 0-4.069-9.478 11.8 11.8 0 0 0-4.09-2.948 12 12 0 0 0-4.955-.998zm127.399-.62a12.9 12.9 0 0 1 5.109 1.004 12.8 12.8 0 0 1 4.29 2.926c2.636 2.889 3.958 5.991 3.965 9.294.03 1.766-.31 3.517-.997 5.142a12.9 12.9 0 0 1-2.968 4.337c-.701.694-1.395 1.374-2.09 2.068L746.348 99.93a3675 3675 0 0 1-23.496 23.035h41.564c3.477.141 6.608 1.515 9.399 4.13q3.954 4.344 3.965 9.708c0 3.31-1.322 6.405-3.965 9.294q-4.385 3.933-9.399 3.931h-74.554a13 13 0 0 1-5.11-.998 12.8 12.8 0 0 1-4.29-2.926c-2.791-2.755-4.112-5.851-3.972-9.294a10.7 10.7 0 0 1 .731-5.105 10.9 10.9 0 0 1 3.027-4.196l50.948-50.615h-41.364a14.38 14.38 0 0 1-9.399-4.13c-2.924-2.615-4.253-5.777-3.972-9.479q-.213-5.162 3.972-9.294a12.4 12.4 0 0 1 4.275-2.962 12.55 12.55 0 0 1 5.124-.968h74.584zm85.621 0a46.4 46.4 0 0 1 19.213 4.13c12.116 5.407 21.841 14.982 27.364 26.943a44.4 44.4 0 0 1 4.179 18.906c0 3.583-1.359 6.413-4.068 8.482-2.71 2.076-6.092 3.036-10.131 2.896h-55.555q6.9 11.778 19.006 11.776c1.897.037 3.788-.17 5.633-.621a25.6 25.6 0 0 0 4.076-1.448 41 41 0 0 1 3.53-1.448 12.3 12.3 0 0 1 4.068-.62c2.636.081 5.191.886 7.391 2.327a14 14 0 0 1 5.036 5.836 13.13 13.13 0 0 1 1.048 7.337 12.9 12.9 0 0 1-3.655 7.233 32.6 32.6 0 0 1-12.53 6.294 65.6 65.6 0 0 1-14.627 1.965 42.9 42.9 0 0 1-19.212-3.62 52.9 52.9 0 0 1-16.185-10.949 51.8 51.8 0 0 1-11.069-16.216 47.4 47.4 0 0 1-4.068-19.209c0-6.612 1.388-12.885 4.068-18.795a53.5 53.5 0 0 1 10.965-16.01 53.5 53.5 0 0 1 16.104-11.052 46.8 46.8 0 0 1 19.427-4.13zm18.999 38.424q-3.556-6.403-8.351-8.983a23.42 23.42 0 0 0-21.398 0q-4.698 2.58-8.255 8.983h38.011zm104.435-39.045a51.9 51.9 0 0 1 19.213 3.62 49.7 49.7 0 0 1 16.086 10.122 50.8 50.8 0 0 1 11.06 15.389A44.5 44.5 0 0 1 1024 97.78v38.218a12.8 12.8 0 0 1-.97 5.038 12.9 12.9 0 0 1-2.89 4.263 13.5 13.5 0 0 1-4.33 3.007c-1.63.709-3.4 1.094-5.18 1.123a14.1 14.1 0 0 1-9.71-3.62 11.8 11.8 0 0 1-3.068-4.145 11.85 11.85 0 0 1-.997-5.046V99.435a22.9 22.9 0 0 0-1.772-8.984 21.6 21.6 0 0 0-5.013-7.336 25.5 25.5 0 0 0-7.517-4.958 23.1 23.1 0 0 0-9.296-1.861 22.5 22.5 0 0 0-8.772 1.758 24.9 24.9 0 0 0-7.31 4.647 21.7 21.7 0 0 0-5.013 7.026 20.7 20.7 0 0 0-1.905 8.673v37.598q-.002 5.374-4.18 9.397-4.176 4.023-9.584 4.034a14 14 0 0 1-9.584-3.723 11.6 11.6 0 0 1-3.108-4.086 11.6 11.6 0 0 1-1.064-5.002V99.435a51.7 51.7 0 0 1 4.069-19.423 50 50 0 0 1 10.655-15.907 49.9 49.9 0 0 1 16.495-10.956 50.4 50.4 0 0 1 19.508-3.716z"/></svg>