<svg xmlns="http://www.w3.org/2000/svg" fill="none" viewBox="0 0 1024 172"><path fill="#000" d="M861.769 162.352V0H1024v23.193H908.121V69.58h92.699v23.193h-92.699v46.387H1024v23.193H861.769m-175.394-.001V0h115.879v23.193h23.176v23.193h23.176v69.579H825.43v23.194h-23.176v23.193zm46.352-23.193h46.351v-23.194h23.176V46.386h-23.176V23.193h-46.351V139.16m-198.385 23.192v-23.193h46.351V23.193h-46.351V0h139.054v23.193h-46.351V139.16h46.351v23.193H534.342m-152.219-.001v-23.193h-23.176v-23.194h46.352v23.194h69.527V92.772h-92.703V69.58h-23.176V23.193h23.176V0h115.879v23.193h23.176v23.193h-46.352V23.193h-69.527V69.58h92.703v23.193h23.176v46.387h-23.176v23.193H382.123m-198.57-.001V0h139.055v23.193h23.175v69.58h-23.175v23.192h-92.704v46.387zm46.351-69.58h69.528V23.193h-69.528zm-198.57 69.579v-23.193H8.158V0H54.51v139.159h69.527V0h46.352v139.159h-23.176v23.193z"/><path fill="#000" fill-rule="evenodd" d="M139.055 166.352v5.647H23.175v-23.193H0V9.648h4v133.511h23.176v23.193zm4-4H31.334v-23.193H8.158V4h42.194v139.159h65.527V9.648h4v129.511h4.158V4h42.194v135.159h-19.018v4h15.018v5.647h-19.176zm78.691 9.647v-5.647h-42.352V9.648h-4v162.351zm0-9.647h4v-36.739h88.703v-5.648h-84.545v-4h88.545V102.42h19.176v-5.648h-15.017v-4h19.017V27.193h-23.176V4H183.553v158.352zm4-65.58h65.527V32.841h-65.527zm73.686-4h-4.159V27.193h-65.369v-4h69.528zm190.412 73.58v5.647H373.965v-23.193h-23.176v-23.193h4v17.546h23.176v23.193zm-130.897-46.387v19.194h23.176v23.193h111.721v-13.546h19.176v-5.647h-15.018v-4h19.018V96.772h-23.176V73.58h-92.703V32.841h65.527v23.193h46.352v-5.648h-42.352V27.193h-65.369v-4h69.527v23.193h42.194V27.193h-23.176V4H382.123v19.193h-4.158V9.648h-4v17.545h-15.018V69.58h23.176v23.193h92.703v46.387h-4.158V96.772h-92.703V73.58h-23.176V32.841h-4v46.386h23.176v23.193h92.703v40.739h-65.527v-23.194zm306.291 46.387v5.647H526.183v-23.193h4v17.546zm0-4h4v-19.193h-46.351V32.841h42.351v-5.648h-38.193v-4h42.193V4H534.342v19.193h46.351V139.16h-4.158V27.193h-46.352V9.648h-4V32.84h46.352v110.318h-38.193v19.193zm128.858 9.647v-5.647H682.217V9.648h-4v162.351zM686.375 4v158.352h111.721v-13.546h19.176v-5.647h-15.018v-4h19.018v-13.546h19.175v-5.648H825.43v-4h19.017V50.386h-23.175V27.193h-23.176V4zm42.193 139.159h42.352v-17.546h4v13.546h4.158v-19.194h15.018V56.034H770.92V32.84h-42.352zm73.686-27.194h-4.158V50.386H774.92V27.193h-42.193v-4h46.351v23.193h23.176zm213.586 50.387v5.647H853.611V9.648h4v156.704zM861.769 4v158.352h158.071v-19.193H903.963V102.42h88.703v-5.648h-84.545v-4h88.545V73.58h-92.703V32.841h111.877v-5.648H908.121v-4h111.719V4z" clip-rule="evenodd"/></svg>
