<svg xmlns="http://www.w3.org/2000/svg" fill="none" viewBox="0 0 1024 154"><path fill="#000" d="M173.767 3.532H94.633l70.389 75.167-32.818 34.65 9.147 8.663 40.956-43.245-58.643-62.639h44.897l60.832 60.852-64.799 67.984 9.096 8.696 73.27-76.902L173.767 3.54z"/><path fill="#000" d="m81.938 78.767 32.827-34.65-9.156-8.663L64.653 78.7l58.643 62.639h-44.88L17.567 80.512l64.799-68.018-9.105-8.689L0 80.708l73.193 73.217h79.126z"/><path fill="#000" fill-rule="evenodd" d="M530.978 0h-24.227v122.961h24.227V69.882c0-4.891 1.017-9.082 3.026-12.57 2.035-3.48 4.864-6.192 8.549-8.158 3.676-1.933 7.95-2.925 12.848-2.925 6.848 0 12.028 1.984 15.516 5.952 3.488 3.993 5.223 9.783 5.223 17.36v53.445h24.235V66.975c0-9.056-1.427-16.804-4.308-23.217s-7.19-11.331-12.951-14.769c-5.736-3.42-12.909-5.13-21.474-5.13-4.642 0-9.096.65-13.311 1.932s-8.061 3.215-11.472 5.79a39.5 39.5 0 0 0-5.881 5.404zM298.602 120.926c-6.241-2.643-11.113-6.397-14.593-11.288-3.487-4.883-5.351-10.647-5.599-17.257h24.423c.248 3.797 1.941 6.704 5.061 8.714 3.129 2.009 7.386 3.027 12.763 3.027 5.369 0 9.463-.821 12.567-2.471 3.111-1.642 4.667-4.07 4.667-7.269 0-1.958-.607-3.557-1.846-4.763-1.231-1.215-3.317-2.258-6.241-3.121-2.932-.856-7.164-1.65-12.66-2.395-8.805-1.368-15.952-3.275-21.372-5.798-5.445-2.514-9.489-5.763-12.13-9.731-2.633-3.968-3.95-8.791-3.95-14.41 0-6.362 1.727-11.809 5.138-16.333 3.42-4.532 8.207-8.02 14.302-10.467 6.129-2.445 13.096-3.677 20.918-3.677 7.814 0 14.302 1.283 20.183 3.849 5.882 2.565 10.532 6.216 13.943 10.92 3.42 4.72 5.326 10.073 5.693 16.076H336.19a10.45 10.45 0 0 0-4.958-7.627c-2.804-1.77-6.685-2.66-11.575-2.66s-8.908.82-11.66 2.463c-2.761 1.65-4.146 3.9-4.146 6.713 0 2.078.701 3.797 2.111 5.13 1.402 1.352 3.608 2.472 6.608 3.387 3.001.923 7.181 1.744 12.567 2.48 12.224 1.47 21.457 4.54 27.714 9.27 6.241 4.72 9.361 11.399 9.361 20.095 0 6.491-1.761 12.058-5.326 16.71-3.556 4.643-8.489 8.209-14.857 10.646-6.369 2.455-13.652 3.677-21.833 3.677s-15.422-1.299-21.663-3.933zm83.699-95.212h21.474l.778 10.467a48.7 48.7 0 0 1 7.694-5.79c7.334-4.455 15.661-6.704 24.961-6.704 9.293 0 17.645 2.172 25.048 6.508a45.7 45.7 0 0 1 17.353 18.086c4.164 7.697 6.241 16.393 6.241 26.082s-2.052 17.992-6.138 25.714a46.57 46.57 0 0 1-17.165 18.283c-7.335 4.481-15.781 6.704-25.321 6.704-9.532 0-17.277-2.206-24.689-6.61h-.051a48 48 0 0 1-5.95-4.173v32.624h-24.235zm65.696 73.004c4.163-2.395 7.411-5.687 9.737-9.92 2.316-4.216 3.479-9.039 3.479-14.41 0-5.378-1.163-10.193-3.479-14.408a25.43 25.43 0 0 0-9.746-9.929c-4.163-2.394-8.882-3.583-14.131-3.583-5.257 0-10.001 1.189-14.233 3.583-4.214 2.395-7.506 5.696-9.831 9.92s-3.488 9.039-3.488 14.418c0 5.37 1.163 10.193 3.488 14.409 2.325 4.207 5.591 7.525 9.831 9.92q6.309 3.591 14.233 3.591c5.275 0 9.977-1.197 14.14-3.591M644.7 118.53a47.36 47.36 0 0 1-18.089-18.086c-4.403-7.696-6.608-16.393-6.608-26.082s2.205-18.351 6.608-26.082a47.54 47.54 0 0 1 18.08-18.086c7.651-4.335 16.362-6.508 26.167-6.508 10.652 0 20.047 2.54 28.176 7.62a46.74 46.74 0 0 1 18.183 20.925c3.967 8.894 5.3 18.933 3.941 30.186h-4.599v.035h-71.851c.547 2.497 1.368 4.823 2.454 6.944 2.205 4.284 5.351 7.61 9.463 9.928q6.142 3.489 14.233 3.489c4.651 0 8.908-.898 12.763-2.668 3.847-1.762 6.873-4.19 9.07-7.26h26.244a45.83 45.83 0 0 1-18.088 23.413c-8.609 5.815-18.636 8.723-30.006 8.723-9.805 0-18.525-2.181-26.167-6.517zm51.966-54.558c.129.402.24.804.351 1.214h-52.035a28.4 28.4 0 0 1 2.18-5.712c2.205-4.293 5.377-7.61 9.463-10.005 4.12-2.395 8.839-3.583 14.233-3.583 6.369 0 11.814 1.625 16.345 4.874 4.531 3.241 7.694 7.645 9.463 13.212m68.158-38.259h-22.748v97.315h24.227V73.08c0-5.379 1.086-10.073 3.291-14.041a22 22 0 0 1 9.37-9.082c4.043-2.086 8.736-3.12 14.139-3.12 3.317 0 6.967.427 11.01 1.282V25.714a49.4 49.4 0 0 0-11.369-1.47c-6.882 0-12.96 1.598-18.286 4.762q-5.064 3.025-8.847 7.834zm72.424 92.817a47.36 47.36 0 0 1-18.08-18.086c-4.403-7.696-6.608-16.393-6.608-26.082s2.205-18.351 6.608-26.082a47.54 47.54 0 0 1 18.08-18.086c7.651-4.335 16.362-6.508 26.167-6.508q15.98 0 28.176 7.62a46.8 46.8 0 0 1 18.183 20.925c3.966 8.894 5.3 18.933 3.941 30.186h-4.599v.035h-71.851c.547 2.497 1.368 4.823 2.453 6.944 2.206 4.284 5.352 7.61 9.464 9.928q6.142 3.489 14.233 3.489c4.65 0 8.908-.898 12.754-2.668 3.856-1.762 6.882-4.19 9.079-7.26h26.244a45.83 45.83 0 0 1-18.089 23.413c-8.617 5.815-18.635 8.723-30.014 8.723-9.805 0-18.516-2.181-26.158-6.517zm51.975-54.558c.128.402.239.804.351 1.214h-52.036a28.5 28.5 0 0 1 2.18-5.712c2.206-4.293 5.377-7.61 9.464-10.005 4.12-2.395 8.839-3.583 14.233-3.583q9.553 0 16.336 4.874c4.531 3.241 7.703 7.645 9.472 13.212m70.415 9.689-32.562 47.169.026.018v2.206h27.518l11.378-17.069 9.634-14.88 9.634 14.88 11.208 17.069H1024v-2.206L991.575 73.79l30.775-45.87v-2.206h-26.629L985.07 42.253l-9.446 14.563-9.455-14.564-10.823-16.538h-26.987v2.206z" clip-rule="evenodd"/></svg>
