<svg xmlns="http://www.w3.org/2000/svg" fill="none" viewBox="0 0 1024 179"><path fill="#000" d="M48.912 168.876A89.41 89.41 0 0 1 9.607 48.848 89.42 89.42 0 0 1 61.533 4.417a89.42 89.42 0 0 1 68.14 5.221 89.416 89.416 0 0 1 39.301 120.037 89.405 89.405 0 0 1-120.062 39.201m77.652-153.108a82.53 82.53 0 0 0-110.827 36.19 82.47 82.47 0 0 0-4.786 62.902 82.467 82.467 0 0 0 103.971 52.731 82.46 82.46 0 0 0 47.922-41.025 82.527 82.527 0 0 0-36.28-110.798"/><path fill="#000" d="M65.376 161.39a74.07 74.07 0 0 1-36.844-42.991 74.08 74.08 0 0 1 4.283-56.455 74.1 74.1 0 0 1 43.019-36.81 74.08 74.08 0 0 1 56.452 4.328 74.08 74.08 0 0 1 36.841 42.988 74.08 74.08 0 0 1-4.283 56.456 74.075 74.075 0 0 1-99.468 32.484m64.496-127.167a68.733 68.733 0 0 0-92.288 30.14 68.73 68.73 0 0 0 30.21 92.257 68.73 68.73 0 0 0 92.28-30.133 68.726 68.726 0 0 0-30.207-92.255z"/><path fill="#000" d="M81.832 153.908a58.74 58.74 0 0 1-25.819-78.853 58.75 58.75 0 0 1 34.112-29.189 58.75 58.75 0 0 1 44.763 3.43 58.733 58.733 0 0 1 25.817 78.856 58.74 58.74 0 0 1-78.873 25.756m51.33-101.21a54.91 54.91 0 0 0-73.748 24.08 54.91 54.91 0 0 0 24.148 73.717 54.913 54.913 0 0 0 73.743-24.069 54.91 54.91 0 0 0-24.143-73.728"/><path fill="#000" d="M98.29 146.423a43.405 43.405 0 0 1-19.076-58.264 43.4 43.4 0 0 1 25.203-21.572 43.4 43.4 0 0 1 33.081 2.531 43.4 43.4 0 0 1 21.585 25.195 43.4 43.4 0 0 1-2.514 33.078 43.407 43.407 0 0 1-58.278 19.032m38.172-75.263a41.12 41.12 0 0 0-31.332-2.397 41.1 41.1 0 0 0-23.872 20.433 41.1 41.1 0 0 0-2.375 31.327 41.12 41.12 0 0 0 20.444 23.856 41.11 41.11 0 0 0 55.198-18.024 41.114 41.114 0 0 0-18.063-55.195m195.212-16.477-23.442 65.783c-.107.317-.318.59-.6.775s-.618.27-.954.245h-1.777a1.64 1.64 0 0 1-1.584-1.02l-17.575-46.135-17.545 46.135a1.575 1.575 0 0 1-1.556 1.02h-1.805a1.58 1.58 0 0 1-.947-.255 1.56 1.56 0 0 1-.608-.765l-23.442-65.76c-.36-1.02.028-1.652 1.027-1.652h7.255a1.53 1.53 0 0 1 .973.232c.287.186.504.463.611.786l16.709 49.806 16.99-45.612c.121-.315.341-.581.625-.765.285-.183.619-.272.959-.254h1.526a1.58 1.58 0 0 1 1.556 1.019l17.493 45.612 16.32-49.806a1.5 1.5 0 0 1 .613-.786 1.53 1.53 0 0 1 .973-.232h7.144c1.027 0 1.416.632 1.056 1.63m102.035 32.04a34.16 34.16 0 0 1-5.992 18.98 34.53 34.53 0 0 1-15.591 12.496 34.84 34.84 0 0 1-19.96 1.823 34.67 34.67 0 0 1-17.623-9.469 34.26 34.26 0 0 1-9.376-17.582 34.1 34.1 0 0 1 2.022-19.788 34.4 34.4 0 0 1 12.742-15.354 34.8 34.8 0 0 1 19.184-5.762 34.35 34.35 0 0 1 13.391 2.513 34.1 34.1 0 0 1 11.332 7.514 33.8 33.8 0 0 1 7.465 11.316 33.7 33.7 0 0 1 2.406 13.313m-9.594 0c0-15.948-10.484-26.935-25-26.935s-24.996 10.987-24.996 26.935c0 15.949 10.48 26.933 24.996 26.933s25-10.984 25-26.933m101.197 30.931a1.65 1.65 0 0 1 .211 1.87 1.68 1.68 0 0 1-1.684.861h-6.536a1.3 1.3 0 0 1-.604-.171 1.3 1.3 0 0 1-.453-.434l-16.401-24.559h-17.627v23.788a1.4 1.4 0 0 1-.412.973 1.42 1.42 0 0 1-.981.41h-6.383a1.43 1.43 0 0 1-.977-.413 1.4 1.4 0 0 1-.41-.97V54.44a1.403 1.403 0 0 1 1.387-1.386h25.107c17.573 0 26.251 9.165 26.251 21.082a19.75 19.75 0 0 1-4.521 13.017 20 20 0 0 1-11.967 6.962zm-27.555-30.156c13.819 0 18.459-5.687 18.459-13.358s-4.64-13.357-18.459-13.357h-15.546V87.5zm135.526-35.528h2.084a1.32 1.32 0 0 1 1.013.38 1.3 1.3 0 0 1 .38 1.003v65.66c.014.183-.015.37-.081.543a1.3 1.3 0 0 1-.299.461 1.35 1.35 0 0 1-.464.297 1.3 1.3 0 0 1-.549.082h-6.381a1.32 1.32 0 0 1-1.314-.84 1.3 1.3 0 0 1-.081-.543V72.4l-25.722 36.949a1.1 1.1 0 0 1-.391.447 1.08 1.08 0 0 1-1.142 0 1.07 1.07 0 0 1-.39-.447l-25.718-36.95v46.608a1.3 1.3 0 0 1-.845 1.302c-.174.065-.36.093-.548.081h-6.384a1.32 1.32 0 0 1-1.311-.84 1.3 1.3 0 0 1-.082-.543v-65.66a1.3 1.3 0 0 1 .082-.542c.065-.173.169-.33.299-.462.133-.13.291-.232.466-.298a1.35 1.35 0 0 1 .546-.08h2.06a2.09 2.09 0 0 1 1.741.939l30.646 42.467 30.668-42.467a2.03 2.03 0 0 1 1.695-.938m106.688 2.471v64.567a1.4 1.4 0 0 1-.415.972 1.43 1.43 0 0 1-.98.41h-6.385a1.42 1.42 0 0 1-.977-.41 1.4 1.4 0 0 1-.412-.972V89.59h-42.237v29.414a1.42 1.42 0 0 1-.414.972 1.43 1.43 0 0 1-.978.41h-6.385a1.415 1.415 0 0 1-1.395-1.382V54.437c.007-.365.158-.71.417-.969.262-.258.611-.407.978-.414h6.385c.367.008.717.156.978.414.258.258.407.604.414.97v27.428h42.237V54.437a1.4 1.4 0 0 1 .412-.969c.259-.258.611-.407.977-.414h6.385c.367.008.719.156.98.414.26.258.409.604.415.97m108.529 32.286a34.16 34.16 0 0 1-5.99 18.98 34.53 34.53 0 0 1-15.591 12.496 34.84 34.84 0 0 1-19.96 1.823 34.7 34.7 0 0 1-17.625-9.469 34.26 34.26 0 0 1-9.376-17.582 34.1 34.1 0 0 1 2.024-19.788 34.4 34.4 0 0 1 12.742-15.354 34.8 34.8 0 0 1 19.184-5.762 34.3 34.3 0 0 1 13.391 2.513 34.1 34.1 0 0 1 11.33 7.514 33.8 33.8 0 0 1 7.465 11.316 33.6 33.6 0 0 1 2.406 13.313m-9.594 0c0-15.948-10.482-26.935-24.998-26.935s-24.998 10.987-24.998 26.935c0 15.949 10.482 26.933 24.998 26.933s24.998-10.984 24.998-26.933m96.974 27.314v4.964q.017.282-.083.543a1.31 1.31 0 0 1-1.314.84h-45.234a1.414 1.414 0 0 1-1.394-1.383V54.437c.007-.365.156-.713.416-.97a1.43 1.43 0 0 1 .978-.413h6.384c.367.01.717.156.975.414.26.258.407.604.412.97v58.217h37.482a1.3 1.3 0 0 1 .547.081c.175.066.333.168.466.298.131.132.233.289.299.462.066.171.094.358.082.542m88.12-.004v4.964c.01.186-.02.369-.08.542-.07.171-.17.331-.3.462-.13.13-.29.232-.46.298-.18.064-.37.093-.55.081h-48.853a1.43 1.43 0 0 1-.978-.412 1.4 1.4 0 0 1-.416-.971V54.432a1.41 1.41 0 0 1 1.394-1.383h47.743c.19-.012.37.018.55.082.17.066.33.168.46.297.13.132.23.29.3.463s.1.358.08.541v4.966c.02.185-.01.369-.08.543a1.4 1.4 0 0 1-.3.46c-.13.13-.29.233-.46.298a1.3 1.3 0 0 1-.55.08h-39.982V81.86h35.532q.285-.018.54.078a1.3 1.3 0 0 1 .76.743c.07.17.1.351.09.533v4.992c.01.183-.01.37-.08.541a1.4 1.4 0 0 1-.3.457 1.34 1.34 0 0 1-1.01.381h-35.532v23.065h41.102c.18-.012.37.017.54.083.17.064.33.166.46.298.14.129.24.287.31.462.06.171.09.356.08.541"/></svg>