<svg xmlns="http://www.w3.org/2000/svg" fill="none" viewBox="0 0 1024 202"><path fill="#000" fill-rule="evenodd" d="M355.479 100.576 254.652 0v73.64l-100.101 73.725 100.101.085v53.661zM0 100.534l100.826 100.534v-73.042l100.101-74.323-100.101-.085V0z" clip-rule="evenodd"/><path fill="#000" d="M505.712 150.777h-77.188v-22.156l44.162-49.264h-43.052V57.543h75.267v21.046l-45.485 50.203h46.254v21.985zm105.306-93.231-37.335 39.231 38.103 54.002h-30.892l-24.662-35.645-10.412 10.971v24.632h-25.217V13.575h25.217V92.21l32.215-34.664zm109.702-9.099-23.51 7.215c-.897-4.781-3.286-9.178-7.211-13.063-3.926-3.928-9.686-5.891-17.239-5.891-6.187 0-11.264 1.707-15.189 5.123-3.926 3.287-5.889 7.257-5.889 11.953 0 8.196 4.865 13.276 14.593 15.154l18.774 3.586c11.904 2.263 21.12 7.001 27.692 14.216s9.857 15.667 9.857 25.4c0 11.099-4.438 20.833-13.27 29.2-8.705 8.196-20.481 12.337-35.287 12.337-8.492 0-16.13-1.281-22.956-3.799-6.827-2.519-12.331-5.891-16.513-10.033q-6.273-6.467-9.857-13.447c-2.261-4.781-3.669-9.733-4.181-14.77l24.279-6.446c.639 7.214 3.413 13.191 8.362 18.015 5.035 4.781 12.076 7.214 21.036 7.214 6.827 0 12.118-1.537 15.915-4.568 3.926-3.031 5.889-7.001 5.889-11.952 0-3.928-1.451-7.257-4.353-10.033-2.773-2.902-6.784-4.866-11.946-5.89l-18.775-3.8c-10.88-2.263-19.457-6.745-25.772-13.447-6.315-6.703-9.473-15.027-9.473-25.016 0-11.868 4.566-21.857 13.655-29.926 9.216-8.068 20.31-12.124 33.196-12.124 7.723 0 14.592 1.068 20.652 3.202q9.087 3.202 14.593 8.709c3.669 3.543 6.527 7.214 8.533 10.97 2.005 3.8 3.499 7.77 4.352 11.954z"/><path fill="#000" d="M765.093 187.533h-26.754l21.975-48.496-39.639-81.494h28.247l24.832 54.6 22.956-54.6h26.92l-58.58 129.99zm93.388-90.417v53.618h-25.216V57.543h24.446v11.569c2.646-4.568 6.447-8.026 11.395-10.416 4.949-2.391 10.11-3.586 15.533-3.586 11.011 0 19.326 3.458 25.044 10.416 5.801 6.83 8.709 15.667 8.709 26.552v58.742h-25.225V96.433q0-8.325-4.35-13.447c-2.769-3.415-7.078-5.123-12.886-5.123-5.293 0-9.553 1.836-12.715 5.507q-4.733 5.508-4.735 13.831zM980.22 77.991c-6.702 0-12.33 2.348-16.893 7.002-4.571 4.653-6.832 11.056-6.832 19.124 0 8.069 2.261 14.514 6.832 19.339 4.686 4.696 10.363 7 17.065 7 5.931 0 10.666-1.536 14.205-4.567 3.548-3.159 5.933-6.873 7.213-11.184l22.19 7.384c-2.26 8.581-7.21 15.966-14.8 22.156-7.61 6.19-17.2 9.306-28.849 9.306-13.911 0-25.601-4.653-35.08-14.044-9.339-9.477-14.034-21.303-14.034-35.432 0-14.131 4.605-26.084 13.821-35.433 9.348-9.349 20.866-14.045 34.523-14.045 11.903 0 21.639 3.117 29.179 9.307 7.6 6.062 12.46 13.447 14.6 22.156l-22.58 7.599c-3.02-10.502-9.935-15.71-20.642-15.71z"/></svg>
