<svg xmlns="http://www.w3.org/2000/svg" fill="none" viewBox="0 0 512 512"><g clip-path="url(#clip0_4193_3442)"><rect width="512" height="512" fill="#E6E6E6" rx="256"/><path fill="#fff" d="m167.988 339.987 12.408-93.433-107.622-74.88 98.333 33.384 23.223-35.711 84.797-52.735 186.911 103.209 9.687 157.473-83.271 115.977-65.82 10.108 34.038-62.444v-60.117l-24.749-46.949-25.147-16.692-38.683 39.967v42.295l-30.189 28.329-38.351 4.655-16.986 9.642-27.868-8.911-11.611-41.895 20.9-29.46v-21.812Z"/><path fill="#94A6C3" d="M339.838 170.876c-20.503-4.256-42.929-3.125-42.929-3.125s-7.365 34.115-53.015 43.092c.332 0 60.313 20.549 95.944-39.967Zm18.578 309.56c24.749-19.418 43.328-46.151 51.887-76.409.398-1.13 3.848-3.125 6.17-4.655 3.849-2.327 7.764-4.256 8.493-7.381a163.923 163.923 0 0 0 2.323-27.532c0-3.458-3.517-6.982-6.967-10.44-2.721-2.328-5.441-5.054-5.441-6.983-3.848-35.312-20.104-68.296-46.048-92.302l-2.72 2.726c25.147 23.674 41.403 55.86 44.92 89.975.398 3.126 3.45 6.185 6.568 9.31 2.721 2.328 5.839 5.852 5.839 7.382 0 8.911-.796 17.822-2.322 26.733-.398 1.53-3.848 3.126-6.569 4.655-3.848 1.929-7.365 3.857-8.095 6.983-9.289 32.984-30.587 61.712-58.853 80.332 5.043-10.839 20.901-46.151 29.394-64.04l-1.527-57.39-49.166-47.681-27.867 3.857-30.588 49.676s14.332 18.221-5.839 39.568c-19.706 20.948-35.233 25.603-35.233 25.603l-14.331-7.781c4.246-5.453 12.805-13.566 19.374-19.019 11.214-9.31 22.427-10.108 22.427-20.15.464-21.014-22.029-15.228-22.029-15.228l-8.161 7.78-3.45 28.729-16.986 21.346-1.924-.399-27.868-6.184s17.053-8.911 19.773-19.019c2.72-9.709-5.441-41.896-5.839-43.824.398.399 8.161 6.982 11.611 17.822 6.171-17.091 14.332-33.383 16.655-34.913 2.322-1.529 33.64-18.221 33.64-18.221l-10.417 27.531 7.763-4.256 18.578-45.752s18.18-8.911 31.716-8.911c24.351-.399 60.379-30.258 44.123-83.791 4.645 1.929 85.129 42.294 99.063 121.43 10.417 60.848-24.02 117.839-82.077 150.823Z"/><path fill="#1B314F" d="M266.321 179.388c8.891-10.507 5.441-26.001 5.441-26.001l-25.944 38.437c-.398 0 9.223.399 20.503-12.436Zm-87.119 209.876 3.118-15.495s-12.806 22.478-13.934 25.603c-1.194 3.525.797 9.709 5.773 9.31 5.043-.399 11.213-7.78 11.213-13.167 0-6.982-6.17-6.251-6.17-6.251Z"/><path fill="#1B314F" d="M409.108 142.547s19.375.798 39.479 3.126c-45.317-35.711-88.247-46.152-123.081-46.152-47.972 0-80.484 19.818-82.474 20.948l15.128-24.073s-60.38-5.852-81.679 58.188c-5.44-13.566-10.417-33.383-10.417-33.383s-31.384 27.597-16.654 73.35c-36.029-13.168-87.45-31.455-89.441-31.788-2.72-.399-3.517.798-3.517.798s-.796 1.131 1.526 3.126c4.313 3.391 85.593 63.574 103.442 75.212-3.849 13.965-3.849 20.549 0 27.132 5.44 8.911 5.772 13.566 5.042 20.15-.796 6.583-7.763 63.641-9.289 70.623-1.526 6.983-17.782 31.788-17.052 39.169.796 7.382 10.815 38.77 19.773 42.294 6.568 2.328 22.824 7.382 33.64 7.382 3.848 0 7.365-.798 8.891-2.328 6.568-5.785 8.493-6.982 13.137-6.982h1.128c1.924 0 4.247.399 6.967.399 6.171 0 14.332-1.197 20.104-6.584 8.493-8.512 23.223-20.149 27.868-25.602 5.839-7.382 8.891-17.423 7.365-27.532-1.194-9.31 3.848-17.489 9.687-25.602 7.365-9.709 20.901-27.132 20.901-27.132 26.739 20.083 43.393 50.739 43.393 84.854 0 60.516-52.616 109.393-117.64 109.393-10.086 0-19.707-1.13-29.394-3.458 29.792 10.441 54.939 13.966 75.508 13.966 43.725 0 66.948-15.894 66.948-15.894s-8.095 10.507-21.299 22.477c72.39-10.108 108.02-69.825 108.02-69.825s-2.72 19.418-6.171 32.585c96.276-72.552 80.02-163.325 79.622-166.384.796 1.13 10.483 12.768 15.46 19.019 15.526-159.867-114.921-211.472-114.921-211.472ZM260.88 397.843c-1.526 1.928-8.095 7.78-12.739 12.036-4.645 4.256-9.688 8.512-13.536 12.436-1.526 1.529-4.645 2.327-9.289 2.327h-11.612c5.839-7.78 22.825-25.602 28.664-29.459 6.967-4.656 10.484-9.311 6.171-17.424-4.247-8.179-15.46-6.184-15.46-6.184s6.569-2.727 12.408-2.727c-7.365-1.928-16.655 0-20.901 4.256-4.645 4.256-3.848 19.419-5.773 29.061-1.924 10.108-8.493 15.162-18.578 24.472-5.441 5.054-9.289 6.584-12.408 6.584-6.568-1.131-14.331-3.126-19.772-5.054-3.849-5.054-9.688-21.746-11.214-28.728 1.128-3.857 5.773-12.037 8.095-16.692 4.645-8.911 7.365-13.965 8.161-18.62 1.526-6.584 6.569-47.349 8.493-64.373 5.043 6.584 12.01 17.49 10.417 24.473 11.214-15.894 3.119-31.455-.796-37.64-3.45-6.184-8.095-18.62-4.246-31.787 3.848-13.167 17.782-49.676 17.782-49.676s4.644 8.18 11.213 6.584c6.569-1.53 59.584-81.463 59.584-81.463s14.331 31.388-.797 54.33c-15.459 22.877-30.587 27.133-30.587 27.133s21.298 3.857 41.005-10.507c8.094 19.019 15.857 38.769 16.256 41.496-1.195 2.726-16.655 39.967-18.181 42.294-.796.798-6.17 2.328-10.085 3.126-6.569 1.928-10.417 3.125-12.01 4.256-2.72 2.327-15.128 36.442-20.9 53.134-6.967 1.928-13.934 5.852-18.977 13.566 2.721-1.929 11.214-3.126 17.451-3.857 5.441-.399 22.028 8.512 26.341 25.203v.798c.863 6.118-1.061 11.971-4.18 16.626Zm-36.36 4.655c3.516-5.054 3.118-13.566 3.516-16.293.398-2.727 1.128-7.781 4.247-8.512 3.118-.798 10.483.399 10.483 5.785 0 5.054-5.441 6.185-9.289 9.71-2.787 2.66-8.228 8.512-8.957 9.31Zm154.399-74.148c3.848-19.751 4.246-36.842 3.118-50.807 15.062 20.15 24.351 44.622 27.071 69.826.399 3.125 3.451 6.184 6.569 9.31 2.721 2.327 5.839 5.453 5.839 7.381 0 8.911-.796 17.822-2.322 26.8-.398 1.131-3.848 3.126-6.569 4.655-3.848 1.929-7.365 3.857-8.095 6.983-8.493 29.858-26.739 56.259-51.09 74.879 35.962-37.639 53.346-99.751 25.479-149.027Zm-24.351 152.485c25.147-19.418 44.521-46.55 53.014-77.207.399-1.13 3.849-3.125 6.171-4.655 3.848-1.928 7.763-4.256 8.493-7.381a164.028 164.028 0 0 0 2.322-27.532c0-3.458-3.516-6.982-6.967-10.44-1.924-2.328-5.042-5.054-5.042-6.983-3.119-28.329-14.332-55.062-31.716-77.207-7.763-46.55-38.683-60.914-39.479-61.313.796 1.197 20.901 30.257 6.967 64.372-14.332 34.514-51.091 29.127-54.209 29.46-3.119 0-15.062 15.494-30.19 44.223-1.924-.798-10.085-2.727-19.374-1.131 6.966-19.418 17.45-46.949 19.374-49.277.796-.798 6.569-2.327 10.484-3.458 7.365-1.928 10.815-3.125 12.009-4.655.796-1.197 4.645-10.108 8.493-19.418 3.517 0 12.408-.798 13.138-1.197.796-.798 8.161-19.751 8.161-22.078 0-1.929-15.128-39.568-20.901-53.932 2.721-3.125 5.441-6.983 8.095-11.239 79.356 8.579 141.328 76.077 141.328 157.873 0 62.843-36.758 117.572-90.171 143.175Z"/><path fill="#1B314F" d="M251.591 271.359c7.365-8.512 3.516-24.406-10.086-27.133 3.517-8.113 8.493-24.405 8.493-24.405s-39.479 62.045-42.929 63.242c-3.516 1.197-6.967-12.436-6.967-12.436-7.365 28.329 12.408 32.186 14.73 23.275 10.816-2.793 29.394-14.43 36.759-22.543Z"/><path fill="#FFD923" d="m217.884 286.454 20.105-34.514s11.611 5.853 5.772 15.163c-7.298 10.839-25.877 19.351-25.877 19.351Z"/><path fill="#D82122" d="M466.768 446.321c-5.839 7.781-12.408 15.894-20.105 23.675 49.896-96.227 2.323-184.273.398-187.731 3.517 3.524 6.967 7.381 10.086 10.839 38.284 42.627 42.929 106.667 9.621 153.217Zm46.445-123.757c-17.45-46.949-42.199-86.916-96.74-122.959-52.616-34.913-109.147-32.187-112.266-31.788h-.796c1.924-.798 3.848-1.197 5.773-1.529 12.009-3.857 27.469-6.983 42.995-8.911 41.072-5.919 82.475 8.046 110.74 37.972l.797.798c32.113 34.114 48.768 76.741 49.497 126.417ZM404.066 130.511c-57.659-10.84-94.816-5.453-121.556 4.655-.796-3.126-3.516-9.31-5.838-14.364-8.029 9.709-16.588 21.346-21.963 28.728-14.73 10.108-20.9 19.817-20.9 19.817 8.493-29.127 33.308-50.807 63.498-56.26 8.493-1.529 17.782-2.327 27.867-2.327 26.673.399 53.347 6.982 78.892 19.751Zm-213.253 74.48c-45.251-1.529-30.19-54.331-29.393-57.39 0 .399 3.052 41.497 29.393 57.39Zm44.522-95.029c-34.835 20.948-27.868 70.956-27.868 70.956-33.308-50.74 25.147-69.759 27.868-70.956Z"/><path fill="#fff" d="M178.074 218.956c2.322 1.929 4.644 5.453 1.924 10.507-1.526 2.727-3.848 2.328-7.365.798-4.645-2.327-32.512-18.62-57.659-35.311 28.663 10.108 57.659 20.947 62.304 23.275 0 0 .398.399.796.731Z"/></g><defs><clipPath id="clip0_4193_3442"><rect width="512" height="512" fill="#fff" rx="256"/></clipPath></defs></svg>