<svg xmlns="http://www.w3.org/2000/svg" fill="none" viewBox="0 0 512 512"><g clip-path="url(#clip0_4193_3459)"><rect width="512" height="512" fill="#E6E6E6" rx="256"/><path fill="#fff" d="M270.121 287.526s-.515 10.948-18.534 10.948c-18.02 0-17.877-10.304-17.877-10.304 9.124-.644 12.728-3.091 17.877-10.304.635.636 1.231 1.25 1.803 1.84 4.534 4.673 7.589 7.82 16.731 7.82Zm39.129-69.422c1.536 1.03-.373 6.568-4.491 6.568-3.089 0-3.604-5.667-2.057-6.697 1.546-1.03 5.011-.902 6.548.129Zm-129.227 0c1.544 1.718-2.202 6.826-5.664 6.182-3.461-.644-4.118-5.667-2.574-7.213 1.545-1.545 6.693-.687 8.238 1.031Zm-1.917-79.984s-3.602 4.121-5.661 6.182c-.333.333-.626.666-.895.973-1.399 1.593-2.181 2.483-4.771-.973-7.208-9.273-19.192-35.935-19.192-47.784 0-5.152 3.749-6.826 7.868-2.705 4.709 3.927 7.622 8.453 12.389 15.859a577.493 577.493 0 0 0 7.103 10.817c5.076 7.581 6.917 10.331 6.478 12.648-.249 1.318-1.237 2.496-2.786 4.345l-.004.005-.024.029-.013.016-.492.588Zm163.209-46.368c1.802 3.607-4.116 17.002-8.237 26.275-1.306 2.937-2.197 4.995-2.922 6.666l-.001.005c-1.561 3.602-2.342 5.404-4.802 10.331-.466.932-.88 1.813-1.261 2.624-2.569 5.465-3.657 7.778-9.036 1.497a332.086 332.086 0 0 0-5.543-6.079l-.001-.001c-3.328-3.577-3.866-4.155-3.207-5.254 4.636-7.728 24.715-32.46 28.317-36.064 2.06-2.06 5.663-2.06 6.693 0Z"/><path fill="#31C77F" d="M394.342 437.963c2.947-1.417 18.535-9.274 18.535-9.274 21.207-12.732 47.268-26.437 65.52-35.111 23.961-35.669 40.033-77.082 45.715-121.739a575.45 575.45 0 0 0-175.076 84.723c-7.208 7.213-7.208 8.243-6.179 28.851l.05.598c.982 11.8 1.064 12.797 6.129 12.797 13.386 0 21.623 9.274 18.906 23.828 10.256.882 12.489 6.197 14.211 10.295l.001.002c.29.69.565 1.345.862 1.939 3.089 5.152 8.38 4.508 11.326 3.091Z"/><path fill="#31C77F" d="M353.154 408.082c7.208 2.06 8.238 6.182 4.119 16.486-3.089 5.152-3.089 7.213-2.059 8.243 2.059 1.03 4.119 1.03 7.208-1.03 4.118-2.061 10.297 1.03 13.386 7.212 3.089 7.213-4.119 18.547-17.505 26.79-12.356 8.244-55.087 21.123-86.492 25.76 2.574-5.152-2.06-11.849-2.06-11.849 29.207-17.338 44.132-32.294 58.052-46.242l1.668-1.671c11.327-11.335 14.416-15.456 14.416-20.608 0-4.122 3.089-5.152 9.267-3.091Zm-202.333 19.062s8.753 8.243 18.535 17.001c9.782 8.759 36.924 29.882 66.785 37.094 0 0-5.518 8.243 1.69 15.456-73.624 12.88-103.63-17.903-103.63-31.813 0-3.481 3.374-5.41 5.806-4.251 2.432 1.16 5.521 1.16 6.551 0 1.029-1.159 1.687-4.121-4.491-10.303-9.268-10.304-10.297-19.578-1.03-26.79 2.534-2.536 4.03-1.259 7.328 1.557a97.616 97.616 0 0 0 2.456 2.049Zm108.631 54.095c5.149 2.061 7.208 8.243 4.119 11.335-5.149 6.182-18.535 5.151-20.594-2.061-1.03-7.213 8.237-12.365 16.475-9.274Z"/><path fill="#2E2E2E" fill-rule="evenodd" d="M348.006 54.658c-8.238 2.061-20.594 12.365-35.01 28.851a3398.378 3398.378 0 0 1-20.594 23.699c-6.178 7.213-6.691 7.42-12.356 5.152-15.446-6.182-47.366-5.152-67.96 1.031-.389.111-.754.219-1.098.321-1.6.474-2.771.821-3.917.751-3.128-.192-6.066-3.5-17.028-15.841l-.61-.687c-30.891-36.064-39.129-43.277-51.485-43.277-12.357 0-16.475 9.274-11.327 35.034 4.119 25.759 17.505 60.793 27.802 75.218.394.493.75.929 1.07 1.321l.001.001c1.294 1.584 2.003 2.452 2.245 3.435.293 1.189-.098 2.547-.962 5.55l-.144.503-.088.304-.063.22c-4.119 18.547-5.148 26.79-4.119 41.216 1.176 13.891 1.029 24.9.931 32.207v.002a352.354 352.354 0 0 0-.043 4.498c0 3.037.305 8.062.612 13.102v.002c.383 6.289.767 12.601.56 15.103-.372 4.508-3.089 17.517-3.089 17.517s-2.717 19.191-2.06 30.912c.658 11.72 0 29.881-2.059 41.215-1.03 10.304-1.03 14.426-1.03 19.577 0 11.85-1.029 18.032-5.148 20.093-15.446 5.152-19.564 18.032-14.416 34.518 2.059 6.182 2.66 9.402 0 13.395-2.059 3.091-2.717 5.281-2.717 10.433 0 5.667 5.434 13.18 7.866 16.357 1.214 1.587-.069 5.703-1.658 9.424 2.693 1.17 5.407 2.3 8.143 3.388 1.989-4.391 2.74-3.827 5.871-1.478 10.297 6.183 27.802 10.304 49.425 10.304l35.01-3.091 16.992-2.061c9.268 3.092 15.446 2.061 21.109-2.576 44.792-6.182 62.809-11.849 88.552-23.183 4.539-1.947 6.22-2.668 7.356-2.162.669.297 1.149 1.017 1.911 2.162l5.743 11.935a282.827 282.827 0 0 0 8.333-4.371l-.688-1.377-.002-.005-7.208-15.456 3.089-3.091 6.179-8.243c4.118-7.213 7.207-8.243 20.593-12.365 11.327-3.091 23.088-12.955 34.889-19.577 11.802-6.622 32.57-16.486 32.57-16.486 3.62-4.72 7.095-9.557 10.418-14.504-18.252 8.674-44.313 22.379-65.52 35.111 0 0-15.588 7.857-18.535 9.274-2.946 1.417-8.237 2.061-11.326-3.091-.297-.594-.572-1.249-.862-1.939l-.001-.002c-1.722-4.098-3.955-9.413-14.211-10.295 2.717-14.554-5.52-23.828-18.906-23.828-5.065 0-5.147-.997-6.129-12.797l-.05-.598c-1.029-20.608-1.029-21.638 6.179-28.851a575.45 575.45 0 0 1 175.076-84.723c.473-3.711.873-7.444 1.2-11.198a538.747 538.747 0 0 0-28 10.399 797.73 797.73 0 0 0-118.415 53.58c-8.238 4.122-23.683 15.456-33.98 24.73l-.157.105-.058.039-.062.042-.141.097-.003.002c-.714.488-1.237.845-1.62.732-1.048-.312-1.048-4.158-1.048-18.534 0-20.676-.94-26.299-2.821-37.546l-.268-1.609c-1.344-6.052-.934-12.544-.487-19.618.238-3.764.487-7.693.487-11.809 0-3.912-.057-8.386-.114-12.903v-.006c-.115-9.16-.233-18.494.114-23.67l.034-.512.026-.37c.58-8.433 2.059-29.932-6.381-55.145 22.653-36.063 41.33-99.561 30.004-110.896-3.089-3.09-9.268-4.121-14.416-3.09Zm-16.475 78.31c-8.238 16.486-8.238 16.486-6.178 20.608.551.919.971 1.71 1.313 2.352.638 1.202 1.003 1.888 1.436 1.935.578.063 1.278-1.006 2.909-3.494v-.002l.131-.199.19-.29.199-.302c25.341-38.541 27.733-67.597 28.293-74.395l.026-.308c.055-.663.122-1.342.19-2.033.567-5.758 1.208-12.264-4.309-15.484-6.178-3.607-19.052 6.697-37.586 27.305a17724.477 17724.477 0 0 1-26.772 32.973s-1.545 2.06-3.087 2.576c-1.543.515-3.604-.516-5.664-1.546-7.355-3.68-13.069-4.247-19.708-4.906h-.003c-.795-.079-1.603-.159-2.429-.246-19.565-2.061-40.158 0-53.545 7.213-4.118 2.061-6.178 1.03-8.237-3.091a1006.583 1006.583 0 0 1-21.624-27.82c-22.653-25.76-33.98-35.034-41.188-31.943-3.089 2.06-4.118 4.122-3.089 16.486 1.03 20.608 8.238 44.307 23.683 72.128a358.94 358.94 0 0 1 2.093 3.398l.003.005.002.004c3.103 5.086 3.379 5.538 5.11 3.805 2.901-2.903 2.467-3.802-.493-9.944a251.051 251.051 0 0 1-2.596-5.512 268.15 268.15 0 0 1-14.416-32.972c-5.148-16.486-1.029-25.76 8.238-21.638 4.119 2.06 16.475 16.486 26.772 32.972 4.119 7.213 5.149 8.243 7.208 8.243 6.178 0 5.148 2.061-1.03 9.274-13.386 15.456-21.623 34.003-24.713 55.641-3.034 13.156-2.094 13.391 5.745 15.347l.434.109 33.98 7.212c6.18 1.031 6.974 2.576 6.695 4.122l-.012.067c-.275 1.526-.565 3.136-4.624 1.994-3.247-.914-3.613.09-4.38 2.2-.206.566-.441 1.212-.768 1.921-6.179 13.395-27.945 14.426-38.612-2.447 0 0-1.03 21.767-.517 31.427.052.988.116 2.107.185 3.329.606 10.728 1.664 29.433-.185 37.758-2.059 15.456-3.089 28.851-2.059 38.124 1.029 8.243 1.172 17.903-2.06 35.033-3.231 17.131-5.806 43.792 0 50.489 5.806 6.698 46.194 42.246 76.198 52.55l.15.064.121.053.204.087.574.249.389.169.06.026.027.012.008.003c2.824 1.226 4.081 1.771 5.258 1.635.944-.108 1.836-.654 3.444-1.636.331-.202.693-.423 1.092-.662 5.148-2.061 10.297-2.061 15.445 0l3.089 1.031 2.06-1.031s36.269-24.085 48.253-36.579c11.984-12.493 22.796-26.275 21.766-31.427l-2.06-72.127s1.402-23.055-1.029-31.942c-2.432-8.887-3.606-16.615-2.06-35.548 1.547-18.934 1.547-48.944 1.547-48.944-13.386 27.821-35.01 17.517-38.099 2.061 0 0-3.086.515-5.148.515s-2.059-3.606.513-4.636l33.979-9.274c4.152-1.038 6.211-1.554 7.101-2.864.876-1.29.618-3.351.107-7.44-4.118-24.729-14.415-45.337-27.801-59.762-4.119-4.122-4.119-5.152-1.03-9.274 6.598-11.066 14.097-19.495 22.927-29.42.589-.661 1.185-1.33 1.786-2.007 8.237-9.273 12.356-10.819 15.445-9.788 9.267 4.121 6.178 16.486-9.267 48.428Zm-159.086 11.334c2.059-2.061 5.661-6.182 5.661-6.182l.492-.588.013-.016.024-.029.004-.005c1.549-1.849 2.537-3.027 2.786-4.345.439-2.317-1.402-5.067-6.478-12.648a577.493 577.493 0 0 1-7.103-10.817c-4.767-7.406-7.68-11.932-12.389-15.859-4.119-4.121-7.868-2.447-7.868 2.705 0 11.849 11.984 38.511 19.192 47.784 2.59 3.456 3.372 2.566 4.771.973.269-.307.562-.64.895-.973Zm160.633-26.275c4.121-9.273 10.039-22.668 8.237-26.275-1.03-2.06-4.633-2.06-6.693 0-3.602 3.605-23.681 28.336-28.317 36.064-.659 1.099-.121 1.677 3.207 5.254l.001.001a332.086 332.086 0 0 1 5.543 6.079c5.379 6.281 6.467 3.968 9.036-1.497.381-.811.795-1.692 1.261-2.624 2.46-4.927 3.241-6.729 4.802-10.331l.001-.005c.725-1.671 1.616-3.729 2.922-6.666ZM174.359 224.286c3.462.644 7.208-4.464 5.664-6.182-1.545-1.718-6.693-2.576-8.238-1.031-1.544 1.546-.887 6.569 2.574 7.213Zm130.4.386c4.118 0 6.027-5.538 4.491-6.568-1.537-1.031-5.002-1.159-6.548-.129-1.547 1.03-1.032 6.697 2.057 6.697Zm52.514 199.896c4.119-10.304 3.089-14.426-4.119-16.486-6.178-2.061-9.267-1.031-9.267 3.091 0 5.152-3.089 9.273-14.416 20.608l-1.668 1.671c-13.92 13.948-28.845 28.904-58.052 46.242 0 0 4.634 6.697 2.06 11.849 31.405-4.637 74.136-17.516 86.492-25.76 13.386-8.243 20.594-19.577 17.505-26.79-3.089-6.182-9.268-9.273-13.386-7.212-3.089 2.06-5.149 2.06-7.208 1.03-1.03-1.03-1.03-3.091 2.059-8.243Zm-187.917 19.577c-9.782-8.758-18.535-17.001-18.535-17.001a97.616 97.616 0 0 1-2.456-2.049c-3.298-2.816-4.794-4.093-7.328-1.557-9.267 7.212-8.238 16.486 1.03 26.79 6.178 6.182 5.52 9.144 4.491 10.303-1.03 1.16-4.119 1.16-6.551 0-2.432-1.159-5.806.77-5.806 4.251 0 13.91 30.006 44.693 103.63 31.813-7.208-7.213-1.69-15.456-1.69-15.456-29.861-7.212-57.003-28.335-66.785-37.094Zm94.215 48.429c3.089-3.092 1.03-9.274-4.119-11.335-8.238-3.091-17.505 2.061-16.475 9.274 2.059 7.212 15.445 8.243 20.594 2.061Z" clip-rule="evenodd"/><path fill="#2E2E2E" fill-rule="evenodd" d="M250.042 227.892c-15.445-8.758-31.406 4.122-22.138 26.275-10.297 10.304-19.565 22.669-.515 33.359 0 0 1.03 17.646 24.198 17.646s25.227-19.063 25.227-19.063c24.198-18.547-6.035-33.487-6.035-33.487 16.332-28.851-8.895-34.518-20.737-24.73Zm20.737 29.753c-6.179-3.091-6.179-4.122-3.089-10.304 9.202-18.418-10.955-24.085-17.133-11.721-10.812-10.532-21.996-1.674-17.877 13.782 1.119 3.361 1.63 4.895 1.202 6.091-.36 1.005-1.382 1.772-3.262 3.182-12.356 9.274-10.296 23.699 3.09 23.699 5.148 0 9.267-2.061 14.415-9.273 1.626-2.169 2.396-3.196 3.211-3.233.733-.033 1.504.737 2.967 2.202 9.268 10.304 13.387 12.365 19.565 9.274 10.297-5.152 9.267-17.517-3.089-23.699Zm-19.192 40.829c18.019 0 18.534-10.948 18.534-10.948-9.142 0-12.197-3.147-16.731-7.82-.572-.59-1.168-1.204-1.803-1.84-5.149 7.213-8.753 9.66-17.877 10.304 0 0-.143 10.304 17.877 10.304Z" clip-rule="evenodd"/><path fill="#2E2E2E" d="M258.422 239.098c-2.431 1.932-3.089 9.273-1.029 10.304 2.059 1.03 4.348-2.834 5.006-6.054.657-3.22-1.545-6.182-3.977-4.25Zm-19.564 2.061c-2.059 2.06-.142 7.856 2.947 9.402 3.089 1.546 4.633 0 4.261-3.22-.372-3.22-5.149-8.243-7.208-6.182Z"/><path fill="#fff" fill-rule="evenodd" d="M178.106 138.12s-3.602 4.121-5.661 6.182c-.333.333-.626.666-.895.973-1.399 1.593-2.181 2.483-4.771-.973-7.208-9.273-19.192-35.935-19.192-47.784 0-5.152 3.749-6.826 7.868-2.705 4.709 3.927 7.622 8.453 12.389 15.859a577.493 577.493 0 0 0 7.103 10.817c5.076 7.581 6.917 10.331 6.478 12.648-.249 1.318-1.237 2.496-2.786 4.345l-.004.005-.024.029-.013.016-.492.588Zm163.209-46.368c1.802 3.607-4.116 17.002-8.237 26.275-1.306 2.937-2.197 4.995-2.922 6.666l-.001.005c-1.561 3.602-2.342 5.404-4.802 10.331-.466.932-.88 1.813-1.261 2.624-2.569 5.465-3.657 7.778-9.036 1.497a332.086 332.086 0 0 0-5.543-6.079l-.001-.001c-3.328-3.577-3.866-4.155-3.207-5.254 4.636-7.728 24.715-32.46 28.317-36.064 2.06-2.06 5.663-2.06 6.693 0ZM180.023 218.104c1.544 1.718-2.202 6.826-5.664 6.182-3.461-.644-4.118-5.667-2.574-7.213 1.545-1.545 6.693-.687 8.238 1.031Zm129.227 0c1.536 1.03-.373 6.568-4.491 6.568-3.089 0-3.604-5.667-2.057-6.697 1.546-1.03 5.011-.902 6.548.129Zm-57.663 80.37c18.019 0 18.534-10.948 18.534-10.948-9.142 0-12.197-3.147-16.731-7.82-.572-.59-1.168-1.204-1.803-1.84-5.149 7.213-8.753 9.66-17.877 10.304 0 0-.143 10.304 17.877 10.304Z" clip-rule="evenodd"/><path fill="#fff" fill-rule="evenodd" d="M267.69 247.341c-3.09 6.182-3.09 7.213 3.089 10.304 12.356 6.182 13.386 18.547 3.089 23.699-6.178 3.091-10.297 1.03-19.565-9.274-1.463-1.465-2.234-2.235-2.967-2.202-.815.037-1.585 1.064-3.211 3.233-5.148 7.212-9.267 9.273-14.415 9.273-13.386 0-15.446-14.425-3.09-23.699 1.88-1.41 2.902-2.177 3.262-3.182.428-1.196-.083-2.73-1.202-6.091-4.119-15.456 7.065-24.314 17.877-13.782 6.178-12.364 26.335-6.697 17.133 11.721Zm-10.297 2.061c-2.06-1.031-1.402-8.372 1.029-10.304 2.432-1.932 4.634 1.03 3.977 4.25-.658 3.22-2.947 7.084-5.006 6.054Zm-15.588 1.159c-3.089-1.546-5.006-7.342-2.947-9.402 2.059-2.061 6.836 2.962 7.208 6.182.372 3.22-1.172 4.766-4.261 3.22Z" clip-rule="evenodd"/><path fill="#fff" fill-rule="evenodd" d="M325.353 153.576c-2.06-4.122-2.06-4.122 6.178-20.608 15.445-31.942 18.534-44.307 9.267-48.428-3.089-1.03-7.208.515-15.445 9.788l-1.786 2.008c-8.83 9.924-16.329 18.353-22.927 29.419-3.089 4.122-3.089 5.152 1.03 9.274 13.386 14.425 23.683 35.033 27.801 59.762.511 4.089.769 6.15-.107 7.44-.89 1.31-2.949 1.826-7.101 2.864l-33.979 9.274c-2.572 1.03-2.575 4.636-.513 4.636 2.062 0 5.148-.515 5.148-.515 3.089 15.456 24.713 25.76 38.099-2.061 0 0 0 30.01-1.547 48.944-1.546 18.933-.372 26.661 2.06 35.548 2.431 8.887 1.029 31.942 1.029 31.942l2.06 72.127c1.03 5.152-9.782 18.934-21.766 31.427-11.984 12.494-48.253 36.579-48.253 36.579l-2.06 1.031-3.089-1.031c-5.148-2.061-10.297-2.061-15.445 0-.399.239-.761.46-1.092.662-1.608.982-2.5 1.528-3.444 1.636-1.177.136-2.434-.409-5.258-1.635l-.008-.003-.027-.012-.06-.026-.389-.169-.574-.249-.204-.087-.121-.053-.15-.064c-30.004-10.304-70.392-45.852-76.198-52.55-5.806-6.697-3.231-33.358 0-50.489 3.232-17.13 3.089-26.79 2.06-35.033-1.03-9.273 0-22.668 2.059-38.124 1.849-8.325.791-27.03.185-37.758-.069-1.222-.133-2.341-.185-3.329-.513-9.66.517-31.427.517-31.427 10.667 16.873 32.433 15.842 38.612 2.447.327-.709.562-1.355.768-1.921.767-2.11 1.133-3.114 4.38-2.2 4.059 1.142 4.349-.468 4.624-1.994l.012-.067c.279-1.546-.515-3.091-6.695-4.122l-33.98-7.212-.434-.109c-7.839-1.956-8.779-2.191-5.745-15.347 3.09-21.638 11.327-40.185 24.713-55.641 6.178-7.213 7.208-9.274 1.03-9.274-2.059 0-3.089-1.03-7.208-8.243-10.297-16.486-22.653-30.911-26.772-32.972-9.267-4.122-13.386 5.152-8.238 21.638a268.15 268.15 0 0 0 14.416 32.972 251.051 251.051 0 0 0 2.596 5.512c2.96 6.142 3.394 7.041.493 9.944-1.731 1.733-2.007 1.281-5.11-3.805l-.002-.004-.003-.005a358.94 358.94 0 0 0-2.093-3.398c-15.445-27.821-22.653-51.52-23.683-72.128-1.029-12.364 0-14.425 3.089-16.486 7.208-3.091 18.535 6.182 41.188 31.942a1006.583 1006.583 0 0 0 21.624 27.821c2.059 4.121 4.119 5.152 8.237 3.091 13.387-7.213 33.98-9.274 53.545-7.213.826.087 1.634.167 2.429.246h.003c6.639.659 12.353 1.226 19.708 4.906 2.06 1.03 4.121 2.061 5.664 1.546 1.542-.516 3.087-2.576 3.087-2.576 8.937-10.98 17.861-21.971 26.772-32.973 18.534-20.608 31.408-30.912 37.586-27.305 5.517 3.22 4.876 9.726 4.309 15.484a134.3 134.3 0 0 0-.19 2.032l-.026.309c-.56 6.798-2.952 35.854-28.293 74.395l-.199.302-.19.29-.131.199v.002c-1.631 2.488-2.331 3.557-2.909 3.494-.433-.047-.798-.733-1.436-1.935-.342-.642-.762-1.433-1.313-2.352Zm-97.449 100.591c-9.268-22.153 6.693-35.033 22.138-26.275 11.842-9.788 37.069-4.121 20.737 24.73 0 0 30.233 14.94 6.035 33.487 0 0-2.059 19.063-25.227 19.063s-24.198-17.646-24.198-17.646c-19.05-10.69-9.782-23.055.515-33.359Z" clip-rule="evenodd"/><path fill="#fff" d="M193.551 508.029c-21.623 0-39.128-4.121-49.425-10.304-3.131-2.349-3.882-2.913-5.871 1.478 32.39 12.882 67.716 19.965 104.696 19.965 45.768 0 89.002-10.849 127.273-30.115l-5.743-11.935c-.762-1.145-1.242-1.865-1.911-2.162-1.136-.506-2.817.215-7.356 2.162-25.743 11.334-43.76 17.001-88.552 23.183-5.663 4.637-11.841 5.668-21.109 2.576l-16.992 2.061-35.01 3.091Z"/></g><defs><clipPath id="clip0_4193_3459"><rect width="512" height="512" fill="#fff" rx="256"/></clipPath></defs></svg>