<svg xmlns="http://www.w3.org/2000/svg" fill="none" viewBox="0 0 512 512"><path fill="#EDC29E" d="M512 256a255.997 255.997 0 0 1-74.981 181.019 255.997 255.997 0 0 1-362.038 0A256 256 0 1 1 437.019 74.981 255.998 255.998 0 0 1 512 256ZM35.609 342.25c34.953 88.364 118.916 147.933 214.432 150.26.145.003.217-.068.217-.213l.104-37.969a.386.386 0 0 0-.037-.164.387.387 0 0 0-.106-.132A2422052.69 2422052.69 0 0 1 84.779 322.96c-1.718-1.359-2.278-3.003-2.287-5.312-.118-40.798-.117-81.598.004-122.402.01-2.903.734-4.136 2.882-5.837A181110.924 181110.924 0 0 1 250.16 59.031a.41.41 0 0 0 .16-.334l-.043-38.977c0-.173-.089-.259-.265-.256-41.003 1.178-79.041 12.062-114.112 32.653C76.842 86.793 34.506 147.221 22.949 214.91c-7.3 42.752-3.315 86.962 12.66 127.34ZM262.202 59.26c54.886 43.621 109.928 87.054 164.932 130.531 1.901 1.502 2.365 3.055 2.365 5.594V317.57c0 2.838-.642 4.096-2.747 5.763-54.833 43.439-109.664 86.88-164.494 130.322a.48.48 0 0 0-.195.399l-.013 38.113c0 .237.117.353.351.347a129.13 129.13 0 0 0 4.327-.152c37.514-1.805 72.542-11.845 105.086-30.119 89.249-50.108 136.107-151.799 116.356-252.12C466.848 101.844 372.66 22.35 262.297 19.499c-.153-.003-.231.072-.234.226l-.044 39.163c0 .153.061.277.183.373ZM132.388 317.019c13.839 25.441 36.251 47.279 61.89 60.598 4.719 2.451 9.061 4.884 13.024 7.3 2.697 1.643 4.627 3.13 5.79 4.461 5.386 6.163 4.934 15.684 3.506 23.349a.36.36 0 0 0 .139.373l39.076 30.952a.31.31 0 0 0 .382 0l38.07-30.154a.35.35 0 0 0 .134-.373c-1.449-7.317-1.415-16.791 3.858-22.619 2.044-2.261 5.464-4.279 8.233-5.889 2.028-1.178 6.715-3.834 14.061-7.968 23.483-13.22 43.104-32.081 56.609-55.455 7.599-13.146 11.675-27.927 13.51-42.926 3.859-31.512 1.446-64.082-15.102-91.953-12.985-21.87-30.495-39.156-52.53-51.857-6.423-3.702-14.079-7.495-20.558-11.488-9.144-5.633-9.895-14.291-8.45-24.233a.351.351 0 0 0-.139-.356l-37.678-29.824c-.139-.107-.278-.107-.417 0l-38.178 30.17a.426.426 0 0 0-.169.387c.229 3.107.321 5.358.278 6.753-.222 7.243-4.232 13.375-10.663 16.695-9.236 4.768-15.008 7.818-17.316 9.149-13.68 7.893-26.299 18.058-37.857 30.496-16.96 18.245-28.187 41.177-32.367 65.992-5.038 29.923-1.792 61.474 12.864 88.42Z"/><path fill="#000" d="M132.388 317.018c13.839 25.441 36.251 47.279 61.89 60.598 4.719 2.451 9.061 4.884 13.024 7.3 2.697 1.643 4.627 3.13 5.79 4.461 5.386 6.163 4.934 15.684 3.506 23.349a.36.36 0 0 0 .139.373l39.076 30.952a.31.31 0 0 0 .382 0l38.07-30.154a.35.35 0 0 0 .134-.373c-1.449-7.317-1.415-16.791 3.858-22.619 2.044-2.261 5.464-4.279 8.233-5.889 2.028-1.178 6.715-3.834 14.061-7.968 23.483-13.22 43.104-32.081 56.609-55.455 7.599-13.146 11.675-27.927 13.51-42.926 3.859-31.512 1.446-64.082-15.102-91.953-12.985-21.87-30.495-39.156-52.53-51.857-6.423-3.702-14.079-7.495-20.558-11.488-9.144-5.633-9.895-14.291-8.45-24.233a.351.351 0 0 0-.139-.356l-37.678-29.824c-.139-.107-.278-.107-.417 0l-38.178 30.17a.426.426 0 0 0-.169.387c.229 3.107.321 5.358.278 6.753-.222 7.243-4.232 13.375-10.663 16.695-9.236 4.768-15.008 7.818-17.316 9.149-13.68 7.893-26.299 18.058-37.857 30.496-16.96 18.245-28.187 41.177-32.367 65.992-5.038 29.923-1.792 61.474 12.864 88.42Z"/><path fill="#000" d="M35.609 342.25c34.953 88.364 118.916 147.933 214.432 150.26.145.003.217-.068.217-.213l.104-37.969a.386.386 0 0 0-.037-.164.387.387 0 0 0-.106-.132A2422052.69 2422052.69 0 0 1 84.779 322.96c-1.718-1.359-2.278-3.003-2.287-5.312-.118-40.798-.117-81.598.004-122.402.01-2.903.734-4.136 2.882-5.837A181110.924 181110.924 0 0 1 250.16 59.031a.41.41 0 0 0 .16-.334l-.043-38.977c0-.173-.089-.259-.265-.256-41.003 1.178-79.041 12.062-114.112 32.653C76.842 86.793 34.506 147.221 22.949 214.91c-7.3 42.752-3.315 86.962 12.66 127.34ZM262.202 59.26c54.886 43.621 109.928 87.054 164.932 130.531 1.901 1.502 2.365 3.055 2.365 5.594V317.57c0 2.838-.642 4.096-2.747 5.763-54.833 43.439-109.664 86.88-164.494 130.322a.48.48 0 0 0-.195.399l-.013 38.113c0 .237.117.353.351.347a129.13 129.13 0 0 0 4.327-.152c37.514-1.805 72.542-11.845 105.086-30.119 89.249-50.108 136.107-151.799 116.356-252.12C466.848 101.844 372.66 22.35 262.297 19.499c-.153-.003-.231.072-.234.226l-.044 39.163c0 .153.061.277.183.373Z"/><path fill="#EDC29E" d="M272.634 340.489a.194.194 0 0 0-.12.069.211.211 0 0 0-.049.135c.009 7.583-.021 15.153-.091 22.71-.026 2.587-2.222 5.981-4.726 7.1-.882.394-2.25.592-4.101.595-4.357.011-8.713.013-13.068.004-1.021 0-2.371-.484-4.049-1.454-3.111-1.796-3.667-4.153-3.658-7.825.02-7.013.017-14.029-.009-21.048 0-.159-.078-.25-.234-.273-18.136-2.674-35.4-10.581-44.449-27.407-3.226-5.994-5.235-11.944-6.028-17.849-.673-5.013 2.33-8.146 7.148-8.129 5.025.02 10.048.023 15.068.009 3.48-.009 6.288 1.675 7.217 5.134 1.001 3.723 1.74 6.206 2.218 7.447 3.437 8.888 10.65 14.2 19.763 16.309 6.799 1.577 13.513 1.999 20.142 1.267 14.226-1.566 26.486-11.157 26.069-26.46-.295-11.079-6.141-16.578-16.14-19.985-9.456-3.22-18.01-4.557-28.257-6.115-22.84-3.467-46.18-11.748-49.826-38.329-.915-6.675-.95-13.35.651-19.79 5.286-21.239 24.837-33.421 45.473-36.064.145-.021.217-.105.217-.252.009-7.259.011-14.492.005-21.699-.005-2.535 2.543-6.102 4.83-7.087.987-.423 2.639-.633 4.956-.63 3.217.006 6.433.007 9.648.005 2.08 0 3.638.178 4.674.533 3.211 1.107 5.533 3.672 5.55 7.278.035 7.52.065 15.039.092 22.559 0 .15.073.233.221.247 20.267 1.975 36.85 15.845 42.049 35.487 1.818 6.87.226 11.293-7.456 11.267-4.224-.015-8.445-.021-12.664-.018-4.396.005-6.575-1.497-8.094-5.589-2.287-6.167-5.75-11.575-11.392-14.882-7.92-4.643-19.004-4.991-28.07-3.719-14.526 2.044-22.411 11.544-20.363 26.269 1.901 13.679 17.685 17.403 28.821 19.109 23.752 3.641 56.501 6.14 64.009 35.122 1.033 3.996 1.632 8.228 1.797 12.699 1.063 29.042-20.532 48.91-47.774 53.25Z"/></svg>