<svg width="256" height="256" viewBox="0 0 256 256" fill="none" xmlns="http://www.w3.org/2000/svg">
<path fill-rule="evenodd" clip-rule="evenodd" d="M128 0C198.697 0 256 57.3026 256 128C256 198.697 198.697 256 128 256C57.3026 256 0 198.697 0 128C0 57.3026 57.3026 0 128 0ZM172.965 101.439L173.056 121.025L144.637 137.753V171.29L128.133 180.992L111.629 171.29V137.753L83.2101 121.025V101.439L99.7846 91.6453L128.032 108.454L156.451 91.6453L173.036 101.439H172.965ZM156.672 164.352L173.056 154.6V134.912L156.672 144.756V164.352ZM185.086 161.756L185.178 128.302L201.728 118.51V171.629L156.678 198.057V178.472L185.086 161.756ZM128.169 195.29L111.618 185.497V204.991L128.169 214.784L144.8 204.991V185.497L128.169 195.29ZM70.8698 128.225L70.9613 161.629L99.4611 178.331V197.888L54.2822 171.499V118.457L70.8698 128.225ZM83.2 135.236V154.822L99.7503 164.523V145.029L83.2 135.236ZM70.8698 94.8207V114.286L54.272 104.508V85.0424L70.8698 75.264L87.5489 85.0424L70.8698 94.8207ZM128.042 41.472L83.2 67.9932L99.7038 77.7865L128.042 60.9776L156.461 77.7865L172.965 67.9932L128.042 41.472ZM111.363 85.0424L127.961 75.264L144.64 85.0424L127.961 94.8207L111.363 85.0424ZM185.086 75.264L168.536 85.0567L185.086 94.8493V114.343L201.718 104.551V85.0567L185.086 75.264Z" fill="black"/>
</svg>
