<svg xmlns="http://www.w3.org/2000/svg" fill="none" viewBox="0 0 512 512"><path fill="url(#paint0_linear_4193_3352)" d="M256 512c141.385 0 256-114.615 256-256S397.385 0 256 0 0 114.615 0 256s114.615 256 256 256Z"/><path fill="#fff" fill-rule="evenodd" d="M277.532 101.369v.081c46.177 1.986 83.006 40.051 83.006 86.718 0 21.676-7.947 41.496-21.085 56.706 26.24 15.488 43.846 44.053 43.846 76.726 0 49.096-39.742 88.911-88.809 89.032H161.503l-.001-309.263h116.03Zm-40.61 57.014c0-5 3.357-9.216 7.939-10.518a10.827 10.827 0 0 1 11.01 2.64l29.467 29.466c.245.206.486.426.716.657 4.229 4.228 4.229 11.082 0 15.31l-30.005 30.008a10.801 10.801 0 0 1-7.922 3.167c-.09.002-.181.003-.271.003-6.039 0-10.934-4.895-10.934-10.933v-59.8Zm52.215 193.003c0 4.999-3.359 9.216-7.941 10.519a10.822 10.822 0 0 1-11.009-2.642l-29.463-29.461a10.887 10.887 0 0 1-.722-.66c-4.228-4.229-4.228-11.083 0-15.312l30.006-30.008a10.806 10.806 0 0 1 7.921-3.167l.166-.002h.108c6.036 0 10.934 4.894 10.934 10.934v59.799Z" clip-rule="evenodd"/><defs><linearGradient id="paint0_linear_4193_3352" x1=".843" x2="627.789" y1="58.429" y2="361.997" gradientUnits="userSpaceOnUse"><stop offset=".054" stop-color="#6D5CFF"/><stop offset=".559" stop-color="#E86EFF"/><stop offset=".924" stop-color="#FFD66E"/></linearGradient></defs></svg>