<svg xmlns="http://www.w3.org/2000/svg" fill="none" viewBox="0 0 512 512"><path fill="#F5AC3A" d="M256 512c141.868 0 256-114.132 256-256S397.868 0 256 0 0 114.132 0 256s114.132 256 256 256Z"/><path fill="#fff" fill-rule="evenodd" d="M393.03 212.066c6.973-43.046-25.561-66.619-70.252-82.911l15.143-57.822-35.418-9.276-14.862 56.75-28.308-7.414 14.862-56.75-35.15-9.204-15.248 58.225-71.842-18.815-9.926 37.9s26.284 6.382 25.759 6.746a18.93 18.93 0 0 1 16.048 20.833l-41.74 159.381a12.827 12.827 0 0 1-6.559 7.529 12.687 12.687 0 0 1-9.931.696c.364.526-25.759-6.746-25.759-6.746l-17.793 40.571 71.172 18.639-15.495 59.164 35.418 9.276 15.266-58.293 28.308 7.414-15.196 58.024 35.485 9.293 15.319-58.494c60.784 12.048 106.372 8.218 126.273-46.424 16.031-43.97.104-69.646-31.645-86.634 23.246-4.736 40.91-20.18 46.071-51.658ZM221.23 259.9l-20.449 78.08c1.969.516 4.274 1.156 6.853 1.872 28.887 8.017 92.186 25.587 102.766-14.81 10.801-41.244-50.297-55.81-80.277-62.957l-.004-.001c-3.419-.815-6.433-1.534-8.889-2.184Zm27.964-106.505-18.587 70.97c1.715.449 3.736 1.017 6.005 1.654l.006.002c24.185 6.795 76.522 21.499 86.158-15.294 9.879-37.724-41.41-49.74-66.351-55.583-2.778-.651-5.228-1.225-7.231-1.749Z" clip-rule="evenodd"/></svg>