<svg xmlns="http://www.w3.org/2000/svg" fill="none" viewBox="0 0 512 512"><path fill="#FAC315" d="M256 512c141.868 0 256-114.132 256-256S397.868 0 256 0 0 114.132 0 256s114.132 256 256 256Z"/><path fill="#fff" d="m256.512 69.632 46.048 47.147-115.952 115.925-46.048-46.037L256.512 69.632Zm69.904 69.888 46.048 47.147L186.608 372.48l-46.048-46.037L326.416 139.52Zm-209.712 69.888 46.048 47.147-46.048 46.037-46.048-46.037 46.048-47.147Zm279.616 0 46.048 47.147-185.856 185.813-46.048-46.037L396.32 209.408Z"/></svg>