<svg xmlns="http://www.w3.org/2000/svg" fill="none" viewBox="0 0 512 512"><path fill="#000" d="M256 512c141.385 0 256-114.615 256-256S397.385 0 256 0 0 114.615 0 256s114.615 256 256 256Z"/><path fill="#fff" d="M256 512c141.385 0 256-114.615 256-256S397.385 0 256 0 0 114.615 0 256s114.615 256 256 256Z"/><path fill="#0052FF" d="M255.998 54H256l-.002 279.036 124-73.081L255.998 54Z"/><path fill="#6697FF" d="M256 54 132 259.955l124 73.081V54Z"/><path fill="#0052FF" d="M256 356.763V458l62-87.317 62-87.317-124 73.397Z"/><path fill="#6697FF" d="M256 458V356.763l-124-73.397L256 458Zm0-124.964 124-73.081-124-56.63v129.711Z"/><path fill="#CCDCFF" d="m132 259.955 124 73.081V203.325l-124 56.63Z"/></svg>