<svg xmlns="http://www.w3.org/2000/svg" fill="none" viewBox="0 0 512 512"><path fill="#000" d="M256 512c141.385 0 256-114.615 256-256S397.385 0 256 0 0 114.615 0 256s114.615 256 256 256Z"/><path fill="#00D395" fill-rule="evenodd" d="M107.042 369.268c-9.867-6.038-15.906-16.762-15.906-28.31v-64.472c0-7.655 6.237-13.858 13.893-13.825 2.442 0 4.851.66 6.963 1.881l145.5 84.83a27.666 27.666 0 0 1 13.762 23.921v66.782c.033 9.172-7.393 16.629-16.567 16.629-3.069 0-6.105-.858-8.712-2.442l-138.933-84.994ZM323.923 246.89c8.514 4.949 13.728 14.088 13.761 23.921v135.543c0 3.992-2.145 7.688-5.643 9.634l-31.846 17.917a5.506 5.506 0 0 1-1.287.527v-75.261a27.729 27.729 0 0 0-13.497-23.789l-127.779-76.416v-84.962c0-7.655 6.237-13.858 13.894-13.825 2.442 0 4.851.66 6.963 1.881l145.434 84.83Zm63.691-100.107a27.68 27.68 0 0 1 13.794 23.954v197.97a11.211 11.211 0 0 1-5.841 9.733l-30.196 16.3V256.92a27.757 27.757 0 0 0-13.431-23.756l-130.616-78.33V74.26c0-2.441.66-4.85 1.848-6.961 3.861-6.6 12.342-8.843 18.942-5.016l145.5 84.5Z" clip-rule="evenodd"/></svg>