<svg xmlns="http://www.w3.org/2000/svg" fill="none" viewBox="0 0 512 512"><path fill="#000" d="M256 512c141.385 0 256-114.615 256-256S397.385 0 256 0 0 114.615 0 256s114.615 256 256 256Z"/><path fill="#00ED76" d="M256 512c141.385 0 256-114.615 256-256S397.385 0 256 0 0 114.615 0 256s114.615 256 256 256Z"/><path fill="#06330B" d="M255.998 58v279.036l124-73.081L255.998 58Z"/><path fill="#0F8C58" d="M256 58 132 263.955l124 73.081V58Z"/><path fill="#06330B" d="M256 360.763V462l124-174.634-124 73.397Z"/><path fill="#0F8C58" d="M256 462V360.763l-124-73.397L256 462Z"/><path fill="#021406" d="m256 337.036 124-73.081-124-56.63v129.711Z"/><path fill="#06330B" d="m132 263.955 124 73.081V207.325l-124 56.63Z"/></svg>