<svg width="256" height="256" viewBox="0 0 256 256" fill="none" xmlns="http://www.w3.org/2000/svg">
<path fill-rule="evenodd" clip-rule="evenodd" d="M256 128C256 198.692 198.692 256 128 256C57.3075 256 0 198.692 0 128C0 57.3075 57.3075 0 128 0C198.692 0 256 57.3075 256 128ZM131.082 160.444V106.443L184.19 128.405L131.082 160.444ZM183.707 122.118L131.082 100.348V36.7061L183.707 122.118ZM125.433 106.443V160.444L72.3255 128.405L125.433 106.443ZM125.433 100.348L72.8079 122.118L125.433 36.7061V100.348ZM131.082 176.896L183.593 145.215L131.082 218.855V176.896ZM72.922 145.215L125.433 176.896V218.847L72.922 145.215Z" fill="black"/>
</svg>
