<svg xmlns="http://www.w3.org/2000/svg" fill="none" viewBox="0 0 512 512"><path fill="#E6E6E6" d="M512 256a255.997 255.997 0 0 1-74.981 181.019 255.997 255.997 0 0 1-362.038 0A256 256 0 1 1 512 256Z"/><path fill="#343434" d="M255.742 46.08h.002l-.002 289.727 128.768-75.881L255.742 46.08Z"/><path fill="#8C8C8C" d="M255.744 46.08 126.976 259.926l128.768 75.881V46.08Z"/><path fill="#3C3C3B" d="M255.744 360.443V465.56l128.768-181.326-128.768 76.209Z"/><path fill="#8C8C8C" d="M255.744 465.56V360.443l-128.768-76.209L255.744 465.56Z"/><path fill="#141414" d="m255.744 335.807 128.768-75.88-128.768-58.8v134.68Z"/><path fill="#393939" d="m126.976 259.926 128.768 75.881v-134.68l-128.768 58.799Z"/></svg>