<svg xmlns="http://www.w3.org/2000/svg" fill="none" viewBox="0 0 512 512"><path fill="#13B5EC" d="M256 512c141.385 0 256-114.615 256-256S397.385 0 256 0 0 114.615 0 256s114.615 256 256 256Z"/><path fill="#fff" fill-rule="evenodd" d="m278.528 199.677 66.816-38.955v77.911l-66.816-38.956Zm66.816 166.954-89.088 51.941-89.088-51.941v-90.897l89.088 51.941 89.088-51.941v90.897ZM167.168 160.722l66.816 38.955-66.816 38.956v-77.911Zm100.224 57.506 66.816 38.956-66.816 38.955v-77.911Zm-22.272 77.911-66.816-38.955 66.816-38.956v77.911Zm89.088-153.968-77.952 44.521-77.952-44.521 77.952-46.375 77.952 46.375Zm-189.312-7.42v243.01l111.36 63.071 111.36-63.071v-243.01L256.256 71.68l-111.36 63.071Z" clip-rule="evenodd"/></svg>