<svg xmlns="http://www.w3.org/2000/svg" fill="none" viewBox="0 0 512 512"><path fill="#fff" d="M256 512c141.385 0 256-114.615 256-256S397.385 0 256 0 0 114.615 0 256s114.615 256 256 256Z"/><path fill="#E1177C" d="M312.766 411.877c4.283 0 7.955 2.452 7.955 5.517 0 3.066-3.672 5.518-7.955 5.518H196.5c-4.283 0-7.955-2.452-7.955-5.518 0-3.065 3.672-5.517 7.955-5.517h116.266Zm-141.355 11.035c4.394 0 7.955-3.568 7.955-7.97 0-4.401-3.561-7.97-7.955-7.97-4.393 0-7.955 3.569-7.955 7.97 0 4.402 3.562 7.97 7.955 7.97Zm69.76-29.427c4.393 0 7.955-3.568 7.955-7.97 0-4.402-3.562-7.97-7.955-7.97-4.394 0-7.955 3.568-7.955 7.97 0 4.402 3.561 7.97 7.955 7.97Zm136.459-15.94c4.283 0 7.955 3.679 7.955 7.97 0 4.292-3.672 7.97-7.955 7.97H263.812c-4.284 0-7.955-3.678-7.955-7.97 0-4.291 3.671-7.97 7.955-7.97H377.63ZM91.861 364.058c4.394 0 7.955-3.568 7.955-7.97 0-4.402-3.561-7.97-7.955-7.97-4.393 0-7.955 3.568-7.955 7.97 0 4.402 3.562 7.97 7.955 7.97Zm113.206-15.94c4.284 0 7.955 3.678 7.955 7.97 0 4.291-3.671 7.97-7.955 7.97h-93.624c-4.284 0-7.955-3.679-7.955-7.97 0-4.292 3.671-7.97 7.955-7.97h93.624Zm209.89 0c4.283 0 7.955 3.678 7.955 7.97 0 4.291-3.672 7.97-7.955 7.97H228.932c-4.283 0-7.955-3.679-7.955-7.97 0-4.292 3.672-7.97 7.955-7.97h186.025Zm-34.88-29.427c4.284 0 7.955 3.678 7.955 7.97 0 4.291-3.671 7.97-7.955 7.97H151.83c-4.284 0-7.955-3.679-7.955-7.97 0-4.292 3.671-7.97 7.955-7.97h228.247Zm-253.336 15.94c4.393 0 7.955-3.569 7.955-7.97 0-4.402-3.562-7.97-7.955-7.97-4.394 0-7.955 3.568-7.955 7.97 0 4.401 3.561 7.97 7.955 7.97Zm205.606-44.754c4.284 0 7.955 3.678 7.955 7.97 0 4.291-3.671 7.97-7.955 7.97H104.1c-4.284 0-7.955-3.679-7.955-7.97 0-4.292 3.671-7.97 7.955-7.97h228.247Zm-255.784 15.94c4.394 0 7.955-3.569 7.955-7.97 0-4.402-3.561-7.97-7.955-7.97-4.393 0-7.955 3.568-7.955 7.97 0 4.401 3.562 7.97 7.955 7.97Zm50.178-29.428c4.393 0 7.955-3.568 7.955-7.97 0-4.401-3.562-7.969-7.955-7.969-4.394 0-7.955 3.568-7.955 7.969 0 4.402 3.561 7.97 7.955 7.97Zm275.366-15.939c4.283 0 7.955 3.678 7.955 7.969 0 4.292-3.672 7.97-7.955 7.97H153.665c-4.283 0-7.955-3.678-7.955-7.97 0-4.291 3.672-7.969 7.955-7.969h248.442Z"/><path fill="#5FC0C1" d="M319.115 104.68c52.749 22.398 87.915 77.594 83.919 133.59-94.309 0-188.619.8-282.928-.8 0-37.597 12.787-75.994 39.961-102.392 39.962-40.798 106.298-53.597 159.048-30.398Z"/></svg>