<svg xmlns="http://www.w3.org/2000/svg" fill="none" viewBox="0 0 512 512"><path fill="#000" d="M256 512c141.385 0 256-114.615 256-256S397.385 0 256 0 0 114.615 0 256s114.615 256 256 256Z"/><path fill="url(#paint0_radial_4232_4921)" fill-rule="evenodd" d="M158.93 200.664v-74.405a1.86 1.86 0 0 0-.524.2l-62.559 35.909a1.713 1.713 0 0 0-.847 1.479v183.502a1.445 1.445 0 0 0 .74 1.263l62.281 35.739c.596.349.965.185 1.109-.493.387-1.901.157-4.193-.031-6.066-.089-.889-.169-1.684-.169-2.299V200.664Z" clip-rule="evenodd"/><path fill="url(#paint1_linear_4232_4921)" d="M159.452 200.132a.524.524 0 0 1 .264.07l19.24 11.05-20.026-84.993v74.388a.515.515 0 0 1 .258-.443.521.521 0 0 1 .264-.072Z"/><path fill="url(#paint2_linear_4232_4921)" fill-opacity=".5" d="M159.452 200.132a.524.524 0 0 1 .264.07l19.24 11.05-20.026-84.993v74.388a.515.515 0 0 1 .258-.443.521.521 0 0 1 .264-.072Z"/><path fill="#3C89E7" d="m284.849 198.523-124.795-72.064c-.372-.211-.747-.277-1.124-.2l20.026 84.993 43.796 25.151c.201.117.429.178.659.178.23 0 .455-.061.65-.178l60.788-35.246c1.509-.883 1.509-1.761 0-2.634Z"/><path fill="url(#paint3_linear_4232_4921)" d="m284.849 198.523-124.795-72.064c-.372-.211-.747-.277-1.124-.2l20.026 84.993 43.796 25.151c.201.117.429.178.659.178.23 0 .455-.061.65-.178l60.788-35.246c1.509-.883 1.509-1.761 0-2.634Z"/><path fill="url(#paint4_radial_4232_4921)" fill-rule="evenodd" d="m256.879 366.417-.015.009-64.421 37.193c.118.133.263.251.435.354l62.377 36.223a1.703 1.703 0 0 0 1.704-.005l158.918-91.751a1.453 1.453 0 0 0 .724-1.272l-.19-71.807c.005-.691-.322-.929-.981-.714-1.84.616-3.709 1.96-5.238 3.06-.725.522-1.374.988-1.906 1.295l-151.407 87.415Z" clip-rule="evenodd"/><path fill="url(#paint5_linear_4232_4921)" d="M256.158 366.231a.52.52 0 0 1-.072-.263l-.051-22.188-63.592 59.839 64.421-37.193a.533.533 0 0 1-.247.066.514.514 0 0 1-.459-.261Z"/><path fill="url(#paint6_linear_4232_4921)" fill-opacity=".5" d="M256.158 366.231a.52.52 0 0 1-.072-.263l-.051-22.188-63.592 59.839 64.421-37.193a.533.533 0 0 1-.247.066.514.514 0 0 1-.459-.261Z"/><path fill="#3C89E7" d="m192.066 258.439-.012 144.107c.003.428.133.785.389 1.073l63.592-59.839-.116-50.504c0-.233-.06-.46-.175-.66a1.274 1.274 0 0 0-.479-.474l-60.918-35.02c-1.52-.866-2.28-.427-2.281 1.317Z"/><path fill="url(#paint7_linear_4232_4921)" d="m192.066 258.439-.012 144.107c.003.428.133.785.389 1.073l63.592-59.839-.116-50.504c0-.233-.06-.46-.175-.66a1.274 1.274 0 0 0-.479-.474l-60.918-35.02c-1.52-.866-2.28-.427-2.281 1.317Z"/><path fill="url(#paint8_radial_4232_4921)" fill-rule="evenodd" d="m351.648 199.297.015.009 64.421 37.194c.056-.169.086-.354.089-.554l.182-72.132a1.718 1.718 0 0 0-.857-1.473L256.58 70.591a1.45 1.45 0 0 0-1.464.008l-62.091 36.068c-.601.341-.643.743-.128 1.207 1.453 1.285 3.553 2.232 5.269 3.006.815.367 1.543.695 2.075 1.003l151.407 87.414Z" clip-rule="evenodd"/><path fill="url(#paint9_linear_4232_4921)" d="M351.848 200.015a.528.528 0 0 1-.193.194l-19.189 11.138 83.618 25.153-64.421-37.194a.526.526 0 0 1 .185.709Z"/><path fill="url(#paint10_linear_4232_4921)" fill-opacity=".5" d="M351.848 200.015a.528.528 0 0 1-.193.194l-19.189 11.138 83.618 25.153-64.421-37.194a.526.526 0 0 1 .185.709Z"/><path fill="#3C89E7" d="m290.543 309.417 124.806-72.043c.369-.217.614-.509.735-.874l-83.618-25.153-43.68 25.352a1.316 1.316 0 0 0-.484.482 1.272 1.272 0 0 0-.171.652l.13 70.267c.01 1.749.771 2.188 2.282 1.317Z"/><path fill="url(#paint11_linear_4232_4921)" d="m290.543 309.417 124.806-72.043c.369-.217.614-.509.735-.874l-83.618-25.153-43.68 25.352a1.316 1.316 0 0 0-.484.482 1.272 1.272 0 0 0-.171.652l.13 70.267c.01 1.749.771 2.188 2.282 1.317Z"/><defs><radialGradient id="paint0_radial_4232_4921" cx="0" cy="0" r="1" gradientTransform="rotate(-13.57 1270.481 1558.31) scale(551.483 407.753)" gradientUnits="userSpaceOnUse"><stop stop-color="#396FCF"/><stop offset=".808" stop-color="#396FCF"/><stop offset="1" stop-color="#50C9ED"/></radialGradient><linearGradient id="paint1_linear_4232_4921" x1="286.02" x2="169.713" y1="199.116" y2="174.468" gradientUnits="userSpaceOnUse"><stop stop-color="#65F6EE"/><stop offset="1" stop-color="#48AEE9"/></linearGradient><linearGradient id="paint2_linear_4232_4921" x1="151.998" x2="167.403" y1="169.847" y2="166.766" gradientUnits="userSpaceOnUse"><stop/><stop offset="1" stop-opacity="0"/></linearGradient><linearGradient id="paint3_linear_4232_4921" x1="286.02" x2="169.713" y1="199.116" y2="174.468" gradientUnits="userSpaceOnUse"><stop stop-color="#65F6EE"/><stop offset="1" stop-color="#48AEE9"/></linearGradient><radialGradient id="paint4_radial_4232_4921" cx="0" cy="0" r="1" gradientTransform="matrix(-380.1043 -399.56755 295.43044 -281.03979 623.494 719.519)" gradientUnits="userSpaceOnUse"><stop stop-color="#396FCF"/><stop offset=".808" stop-color="#396FCF"/><stop offset="1" stop-color="#50C9ED"/></radialGradient><linearGradient id="paint5_linear_4232_4921" x1="191.994" x2="228.801" y1="257.128" y2="370.176" gradientUnits="userSpaceOnUse"><stop stop-color="#65F6EE"/><stop offset="1" stop-color="#48AEE9"/></linearGradient><linearGradient id="paint6_linear_4232_4921" x1="233.657" x2="223.286" y1="387.829" y2="376.029" gradientUnits="userSpaceOnUse"><stop/><stop offset="1" stop-opacity="0"/></linearGradient><linearGradient id="paint7_linear_4232_4921" x1="191.994" x2="228.801" y1="257.128" y2="370.176" gradientUnits="userSpaceOnUse"><stop stop-color="#65F6EE"/><stop offset="1" stop-color="#48AEE9"/></linearGradient><radialGradient id="paint8_radial_4232_4921" cx="0" cy="0" r="1" gradientTransform="rotate(106.43 347.259 29.877) scale(551.483 407.753)" gradientUnits="userSpaceOnUse"><stop stop-color="#396FCF"/><stop offset=".808" stop-color="#396FCF"/><stop offset="1" stop-color="#50C9ED"/></radialGradient><linearGradient id="paint9_linear_4232_4921" x1="289.444" x2="368.942" y1="310.134" y2="221.734" gradientUnits="userSpaceOnUse"><stop stop-color="#65F6EE"/><stop offset="1" stop-color="#48AEE9"/></linearGradient><linearGradient id="paint10_linear_4232_4921" x1="381.802" x2="376.768" y1="208.703" y2="223.584" gradientUnits="userSpaceOnUse"><stop/><stop offset="1" stop-opacity="0"/></linearGradient><linearGradient id="paint11_linear_4232_4921" x1="289.444" x2="368.942" y1="310.134" y2="221.734" gradientUnits="userSpaceOnUse"><stop stop-color="#65F6EE"/><stop offset="1" stop-color="#48AEE9"/></linearGradient></defs></svg>