<svg xmlns="http://www.w3.org/2000/svg" fill="none" viewBox="0 0 512 512"><path fill="#000" d="M256 512c141.385 0 256-114.615 256-256S397.385 0 256 0 0 114.615 0 256s114.615 256 256 256Z"/><path fill="#FFAF1D" d="M285.594 453.632V310.886c34.816 3.482 57.446 19.149 57.446 19.149l22.63-24.371c-36.556-26.112-88.78-26.112-88.78-26.112l-8.704-97.485a20.885 20.885 0 0 0 7.654-10.43 20.885 20.885 0 0 0-7.538-23.42 20.89 20.89 0 1 0-24.488 33.85l-8.704 97.485s-52.224 0-88.78 26.112l22.63 24.371s22.63-15.667 57.446-19.149v142.746C92.365 354.406 81.92 211.661 81.92 162.918c0-8.704 5.222-19.148 15.667-22.63 26.112-12.186 87.04-34.816 158.413-34.816s132.301 22.63 158.413 34.816c8.704 3.482 15.667 13.926 15.667 22.63 0 48.743-10.445 191.488-144.486 290.714Z"/></svg>