<svg xmlns="http://www.w3.org/2000/svg" fill="none" viewBox="0 0 512 512"><path fill="#000" d="M256 512c141.385 0 256-114.615 256-256S397.385 0 256 0 0 114.615 0 256s114.615 256 256 256Z"/><path fill="url(#paint0_linear_4232_4912)" fill-rule="evenodd" d="M291.144 75.644 256.5 41 41 256.5l129.065 129.065 80.613-80.614-43.581-43.582-47.698 47.698-50.839-50.838L291.144 75.644Zm-35.199 136.877 43.582 43.581 53.769-53.769 52.594 52.594-183.232 183.231L256.5 472 472 256.5 341.984 126.484l-86.039 86.037Z" clip-rule="evenodd"/><defs><linearGradient id="paint0_linear_4232_4912" x1="364.25" x2="148.75" y1="256.5" y2="256.498" gradientUnits="userSpaceOnUse"><stop stop-color="#ECB854"/><stop offset="1" stop-color="#F8DF95"/></linearGradient></defs></svg>