<svg xmlns="http://www.w3.org/2000/svg" fill="none" viewBox="0 0 512 512"><path fill="#fff" d="m304.456 4.63-.093 64.047a.26.26 0 0 0 .181.246c27.434 9.327 48.717 24.948 63.85 49.053 3.299 5.253 7.157 13.782 10.763 20.076a.236.236 0 0 1-.077.318l-61.57 37.73a.157.157 0 0 1-.117.021.153.153 0 0 1-.096-.07c-5.727-9.794-11.257-20.98-18.704-29.728-7.574-8.895-16.66-13.316-28.075-14.592-21.598-2.416-45.026 8.737-47.18 32.68-1.742 19.325 21.466 29.207 35.572 35.348a9862.88 9862.88 0 0 0 43.195 18.673c24.607 10.561 49.881 25.017 65.905 46.802 20.946 28.484 22.957 67.497 10.561 99.64-13.103 33.962-40.247 59.094-74.169 71.709-.179.066-.269.195-.269.389l.033 71.227c-24.95 4.7-50.197 4.638-75.742 2.005-1.56-.161-2.716-.314-3.469-.46l-.219-69.097c0-.193-.093-.31-.28-.35-38.865-8.825-69.763-33.491-86.357-69.841-6.56-14.363-9.333-27.991-12.423-42.842-.07-.343.063-.56.4-.651l74.344-20.082a.206.206 0 0 1 .089-.005.22.22 0 0 1 .083.032.214.214 0 0 1 .091.149c1.277 8.945 2.324 19.057 4.686 27.262 7.058 24.508 27.691 41.083 53.832 39.632 23.91-1.321 46.138-16.417 50.347-40.804.38-2.224.482-4.689.306-7.395a20.524 20.524 0 0 0-.169-5.078c-2.242-19.44-18.688-29.229-34.75-36.744a863.952 863.952 0 0 0-38.959-17.064c-39.825-16.296-80.998-39.861-87.821-87.107-7.716-53.413 25.692-98.747 76.537-112.682.186-.051.279-.173.279-.367V1.805l.192-.017a264.614 264.614 0 0 1 71.079 1.31c2.751.423 5.489.934 8.214 1.533Z"/><path fill="#58B4E6" d="M224.971 1.805V66.71c0 .194-.093.316-.279.367-50.845 13.935-84.253 59.269-76.537 112.682 6.823 47.246 47.996 70.811 87.821 87.107a863.952 863.952 0 0 1 38.959 17.064c16.062 7.515 32.508 17.304 34.75 36.744l.169 5.078c.176 2.706.074 5.171-.306 7.395-4.209 24.387-26.437 39.483-50.347 40.804-26.141 1.451-46.774-15.124-53.832-39.632-2.362-8.205-3.409-18.317-4.686-27.262a.214.214 0 0 0-.091-.149.22.22 0 0 0-.083-.032.206.206 0 0 0-.089.005l-74.344 20.082c-.337.091-.47.308-.4.651 3.09 14.851 5.863 28.479 12.423 42.842 16.594 36.35 47.492 61.016 86.357 69.841.187.04.28.157.28.35l.219 69.097C136.85 499.166 59.875 442.795 23.091 362.13-29.097 247.672 9.627 112.175 114.518 42.663 147.929 20.522 184.571 6.92 224.445 1.859l.526-.054Z"/><path fill="#705ED9" d="M304.456 4.63c80.154 15.355 147.435 69.146 182.623 142.126 50.999 105.775 21.619 234.118-68.892 308.046-32.57 26.603-69.6 44.218-111.089 52.844-.954.2-1.931.385-2.932.553l-.033-71.227c0-.194.09-.323.269-.389 33.922-12.615 61.066-37.747 74.169-71.709 12.396-32.143 10.385-71.156-10.561-99.64-16.024-21.785-41.298-36.241-65.905-46.802a9862.88 9862.88 0 0 1-43.195-18.673c-14.106-6.141-37.314-16.023-35.572-35.348 2.154-23.943 25.582-35.096 47.18-32.68 11.415 1.276 20.501 5.697 28.075 14.592 7.447 8.748 12.977 19.934 18.704 29.728a.153.153 0 0 0 .213.049l61.57-37.73a.236.236 0 0 0 .077-.318c-3.606-6.294-7.464-13.727-10.763-18.98-15.133-24.106-36.416-40.822-63.85-50.149a.26.26 0 0 1-.181-.247l.093-64.045Z"/></svg>