<svg xmlns="http://www.w3.org/2000/svg" fill="none" viewBox="0 0 512 512"><path fill="#DB3737" fill-rule="evenodd" d="M512 256c0 141.385-114.615 256-256 256S0 397.385 0 256 114.615 0 256 0s256 114.615 256 256Z" clip-rule="evenodd"/><path fill="#fff" d="m383.387 127.638-.072 83.713c0 .643.315.964.945.964h36.285c.243 0 .476.097.65.271a.957.957 0 0 1 .278.657l.091 16.648-37.34.6c-.655.013-.982.34-.982.983v50.89c0 .594.297.891.891.891l4.456.055 31.374.018c.63 0 1.079.285 1.346.855l.691 1.51-.509 14.847c-.025.631-.352.946-.982.946h-36.358c-.606 0-.909.303-.909.91v83.694a.91.91 0 0 1-.91.91h-30.646a.717.717 0 0 1-.514-.219.751.751 0 0 1-.214-.527v-83.858c0-.607-.303-.91-.909-.91h-47.306a1.423 1.423 0 0 0-1.328.928l-30.647 83.658c-.23.619-.672.928-1.327.928h-27.064c-.63 0-1.055-.297-1.273-.892l-30.683-83.694c-.23-.619-.673-.928-1.327-.928h-47.289a.91.91 0 0 0-.909.91v83.239c0 .91-.455 1.365-1.364 1.365h-30.01c-.606 0-.909-.303-.909-.91v-83.239a1.365 1.365 0 0 0-1.364-1.365H91.728c-.825 0-1.255-.412-1.291-1.237L90 288.04l.618-3.784c.097-.643.473-.964 1.128-.964h35.957a.89.89 0 0 0 .891-.892l-.054-42.32-.073-8.552c0-.727-.364-1.091-1.091-1.091L90.418 230l.018-16.484a1.23 1.23 0 0 1 .358-.85 1.19 1.19 0 0 1 .843-.351l33.338-.036c.716.254 1.589.248 2.619-.018.667-.182 1-.613 1-1.292l.091-85.514 45.47-.273c.703 0 1.176.334 1.419 1.001l31.21 85.222c.218.619.655.928 1.309.928h95.941c.376 0 .63-.176.764-.527l31.592-85.86c.23-.631.679-.946 1.346-.946h44.16c.643 0 1.067.303 1.273.91a4.54 4.54 0 0 1 .218 1.728Zm-206.395 83.658-15.332-42.102a.402.402 0 0 0-.666-.097.403.403 0 0 0-.098.243v41.865c0 .752.382 1.128 1.146 1.128l14.223-.018c.727 0 .97-.339.727-1.019Zm172.857-40.974-14.878 40.756c-.303.837-.012 1.255.873 1.255h14.06c.751 0 1.127-.376 1.127-1.128l-.2-40.719c-.012-1.868-.339-1.922-.982-.164ZM163.624 283.219h34.102c1.516.327 3.068.291 4.656-.109.607-.146.807-.51.601-1.092l-18.716-50.926a.895.895 0 0 0-.319-.408.838.838 0 0 0-.481-.156h-21.425c-.764 0-1.146.376-1.146 1.128V282.4c0 .594.297.886.891.873l1.837-.054Zm53.581-43.594 15.533 42.684c.23.655.691.983 1.382.983h43.196c.752 0 1.255-.352 1.51-1.056l15.477-42.193 3.001-8.333c.279-.788 0-1.182-.836-1.182h-81.154c-.958 0-1.273.449-.946 1.346l2.837 7.751Zm97.36 43.63 30.955-.018 4.547.018c.594 0 .891-.291.891-.873v-50.944c0-.607-.303-.91-.909-.91h-21.698a.91.91 0 0 0-.818.582l-18.588 50.835c-.279.789 0 1.195.836 1.219l4.784.091Zm-72.661 24.144 13.314 35.953c.352.933.703.927 1.055-.019l13.35-36.48c.933-1.213 1.461-2.607 1.582-4.184.061-.789-.303-1.183-1.091-1.183h-28.828c-.897 0-1.206.425-.928 1.274l1.546 4.639Z"/></svg>