<svg xmlns="http://www.w3.org/2000/svg" fill="none" viewBox="0 0 512 512"><path fill="#5552FD" d="M512 256a255.997 255.997 0 0 1-74.981 181.019 255.997 255.997 0 0 1-362.038 0A256 256 0 1 1 437.019 74.981 255.998 255.998 0 0 1 512 256Z"/><path fill="#FED955" d="M110 219.5h36.5V183H110v36.5Zm0 73h36.5V256H110v36.5Zm0-36.5h36.5v-36.5H110V256Zm0 73h36.5v-36.5H110V329Zm146-182.5h36.5V110H256v36.5Zm0 219h36.5V402H256v-36.5Zm36.5-219H329V110h-36.5v36.5Z"/><path fill="#9695F8" d="M329 146.5h36.5V110H329v36.5Zm-146 0h-36.5V110H183v36.5Zm219 219h-36.5V329H402v36.5Zm-292 0h36.5V329H110v36.5ZM292.5 110H329V73.5h-36.5V110Z"/><path fill="#5552FD" d="M292.5 73.5H329V37h-36.5v36.5Zm0 401.5H329v-36.5h-36.5V475Z"/><path fill="#9695F8" d="M292.5 438.5H329V402h-36.5v36.5Zm-73-328.5H256V73.5h-36.5V110Z"/><path fill="#5552FD" d="M219.5 73.5H256V37h-36.5v36.5Zm0 401.5H256v-36.5h-36.5V475Z"/><path fill="#9695F8" d="M219.5 438.5H256V402h-36.5v36.5ZM256 110h36.5V73.5H256V110Z"/><path fill="#5552FD" d="M256 73.5h36.5V37H256v36.5Zm0 401.5h36.5v-36.5H256V475Z"/><path fill="#9695F8" d="M256 438.5h36.5V402H256v36.5ZM183 110h36.5V73.5H183V110Z"/><path fill="#5552FD" d="M183 73.5h36.5V37H183v36.5Zm0 401.5h36.5v-36.5H183V475Z"/><path fill="#9695F8" d="M183 438.5h36.5V402H183v36.5ZM365.5 183H402v-36.5h-36.5V183Zm-219 0H110v-36.5h36.5V183Zm219 219H329v-36.5h36.5V402Zm-219 0H183v-36.5h-36.5V402ZM402 219.5h36.5V183H402v36.5Zm-328.5 0H110V183H73.5v36.5Z"/><path fill="#5552FD" d="M37 219.5h36.5V183H37v36.5ZM73.5 183H110v-36.5H73.5V183Zm365 0H402v-36.5h36.5V183ZM329 438.5h36.5V402H329v36.5ZM73.5 329v36.5H110V329H73.5ZM110 146.5h36.5V110H110v36.5Zm292 0h-36.5V110H402v36.5ZM365.5 402H402v-36.5h-36.5V402ZM110 365.5V402h36.5v-36.5H110ZM146.5 110H183V73.5h-36.5V110Zm219 0H329V73.5h36.5V110ZM402 365.5h36.5V329H402v36.5ZM146.5 402v36.5H183V402h-36.5Zm292-182.5H475V183h-36.5v36.5Z"/><path fill="#9695F8" d="M402 256h36.5v-36.5H402V256Zm-328.5 0H110v-36.5H73.5V256Z"/><path fill="#5552FD" d="M37 256h36.5v-36.5H37V256Zm401.5 0H475v-36.5h-36.5V256Z"/><path fill="#9695F8" d="M402 292.5h36.5V256H402v36.5Zm-328.5 0H110V256H73.5v36.5Z"/><path fill="#5552FD" d="M37 292.5h36.5V256H37v36.5Zm401.5 0H475V256h-36.5v36.5Z"/><path fill="#9695F8" d="M402 329h36.5v-36.5H402V329Zm-328.5 0H110v-36.5H73.5V329Z"/><path fill="#5552FD" d="M37 329h36.5v-36.5H37V329Zm401.5 0H475v-36.5h-36.5V329Z"/><path fill="#FED955" d="M292.5 365.5H329V402h-36.5v-36.5Zm-36.5-146h36.5V183H256v36.5Zm0 73h36.5V256H256v36.5Zm0 36.5h36.5v-36.5H256V329Zm0-146h36.5v-36.5H256V183Zm0 146h36.5v36.5H256V329Zm-73-36.5h36.5V256H183v36.5Zm0-36.5h36.5v-36.5H183V256Zm0 73h36.5v-36.5H183V329Zm0-146h36.5v-36.5H183V183Zm0 146h36.5v36.5H183V329Zm109.5-36.5H329V256h-36.5v36.5Zm0-36.5H329v-36.5h-36.5V256Zm0 73H329v-36.5h-36.5V329Zm0-146H329v-36.5h-36.5V183Zm0 146H329v36.5h-36.5V329Zm-73-182.5H256V110h-36.5v36.5Zm0 219H256V402h-36.5v-36.5Zm-36.5-219h36.5V110H183v36.5Zm0 219h36.5V402H183v-36.5Zm36.5-146H256V183h-36.5v36.5Zm0 73H256V256h-36.5v36.5Z"/><path fill="#5552FD" d="M183 219.5h36.5V183H183v36.5Zm73 36.5h36.5v-36.5H256V256Zm73-36.5h36.5V183H329v36.5Zm0 73h36.5V256H329v36.5Zm0-36.5h36.5v-36.5H329V256Zm0 73h36.5v-36.5H329V329Zm0-146h36.5v-36.5H329V183Zm0 146h36.5v36.5H329V329ZM146.5 219.5H183V183h-36.5v36.5Zm0 73H183V256h-36.5v36.5Zm0-36.5H183v-36.5h-36.5V256Zm0 73H183v-36.5h-36.5V329Zm0-146H183v-36.5h-36.5V183Zm0 146H183v36.5h-36.5V329Zm146-109.5H329V183h-36.5v36.5Zm-73 36.5H256v-36.5h-36.5V256Z"/><path fill="#FED955" d="M219.5 329H256v-36.5h-36.5V329Zm0-146H256v-36.5h-36.5V183Zm0 146H256v36.5h-36.5V329Zm146-109.5H402V183h-36.5v36.5Zm0 73H402V256h-36.5v36.5Zm0-36.5H402v-36.5h-36.5V256Zm0 73H402v-36.5h-36.5V329Z"/></svg>