<svg xmlns="http://www.w3.org/2000/svg" fill="none" viewBox="0 0 512 512"><path fill="#000" d="M256 512c141.385 0 256-114.615 256-256S397.385 0 256 0 0 114.615 0 256s114.615 256 256 256Z"/><path fill="#A9D6FF" d="M125.054 325.086v92.562c0 5.698 4.837 8.064 6.342 8.601 1.505.645 6.557 2.043 11.072-2.15l79.223-75.899c7.31-9.461 9.997-15.373 9.997-15.373 4.3-8.709 4.3-17.094.108-25.479-6.235-12.471-22.144-25.157-46.115-37.198l-40.956 22.792c-12.147 6.88-19.671 19.028-19.671 32.144Z" opacity=".9"/><path fill="url(#paint0_linear_4193_3466)" d="M84 119.223v97.078c0 12.148 8.17 22.899 19.779 26.339 39.558 11.396 108.462 35.907 125.123 71.921 2.15 4.731 3.44 9.354 3.87 14.191 11.072-20.103 16.125-43.217 13.76-66.653-3.225-33.22-20.854-63.429-48.373-82.672l-98.142-68.482a9.662 9.662 0 0 0-5.805-1.935c-1.72 0-3.225.323-4.837 1.183-3.225 1.827-5.375 5.16-5.375 9.03Z"/><path fill="#A9D6FF" d="M386.313 325.086v92.562c0 5.698-4.837 8.064-6.342 8.601-1.505.645-6.557 2.043-11.072-2.15L289.676 348.2c-7.31-9.461-9.997-15.373-9.997-15.373-4.3-8.709-4.3-17.094-.108-25.479 6.235-12.471 22.144-25.157 46.115-37.198l40.956 22.792c12.254 6.88 19.671 19.028 19.671 32.144Z" opacity=".9"/><path fill="url(#paint1_linear_4193_3466)" d="M427.438 119.213v97.078c0 12.148-8.17 22.899-19.779 26.339-39.558 11.396-108.462 35.907-125.124 71.921-2.149 4.731-3.439 9.353-3.869 14.191-11.072-20.104-16.125-43.218-13.76-66.654 3.225-33.219 20.855-63.428 48.373-82.672l98.142-68.481a9.662 9.662 0 0 1 5.805-1.935c1.72 0 3.225.323 4.837 1.183 3.225 1.827 5.375 5.16 5.375 9.03Z"/><defs><linearGradient id="paint0_linear_4193_3466" x1="252.336" x2="84" y1="327.341" y2="327.341" gradientUnits="userSpaceOnUse"><stop offset=".068" stop-color="#EFFDFF"/><stop offset="1" stop-color="#A9D6FF"/></linearGradient><linearGradient id="paint1_linear_4193_3466" x1="264.791" x2="426.149" y1="327.33" y2="327.33" gradientUnits="userSpaceOnUse"><stop offset=".068" stop-color="#EFFDFF"/><stop offset="1" stop-color="#A9D6FF"/></linearGradient></defs></svg>