<svg xmlns="http://www.w3.org/2000/svg" fill="none" viewBox="0 0 512 512"><path fill="#FC0423" d="M512 256a255.997 255.997 0 0 1-74.981 181.019 255.997 255.997 0 0 1-362.038 0A256 256 0 1 1 512 256Z"/><path fill="#fff" fill-rule="evenodd" d="M201.216 164.864c45.056 11.776 60.416 71.68 34.304 132.096-29.184 65.024-114.688 71.68-137.216 10.24-11.776-37.888 0-91.136 25.6-118.784 20.992-22.016 51.712-30.72 77.312-23.552Zm-70.144 104.448c3.584-43.008 16.896-68.608 39.424-73.728 6.656-2.048 17.408-2.048 22.528 1.536 11.776 5.12 16.896 15.36 16.896 37.888 0 49.664-18.944 83.968-48.128 83.968-22.016 0-32.256-16.896-30.72-49.664ZM371.2 166.4c32.256 4.608 56.32 40.96 42.496 75.264-7.68 20.48-25.6 41.472-79.872 41.472-14.336 0-20.48-2.048-24.576.512-4.096 3.072-4.608 10.752-8.192 31.744-5.632 33.28-6.656 33.28-18.432 32.768h-5.632c-12.288 0-19.456 0-17.408-11.776l27.648-158.208c1.536-8.192 5.12-11.776 10.24-13.312 0 0 41.984-3.072 73.728 1.536Zm0 37.376c16.384 9.216 10.24 37.888-16.896 46.592-7.68 3.072-16.896 3.072-23.552 2.56 1.024 0-1.024 0 0 0-7.68 0-14.848.512-16.896-1.536-2.56-3.072-1.024-9.728 2.56-26.624.512-3.584-.512 2.56 0 0 5.632-27.648 5.632-27.648 24.576-27.648 15.36 0 22.016 2.048 30.208 6.656Z" clip-rule="evenodd"/></svg>