<svg xmlns="http://www.w3.org/2000/svg" fill="none" viewBox="0 0 512 512"><path fill="#030C17" d="M511.999 255.143c.474 141.383-113.757 256.382-255.142 256.855C115.474 512.473.475 398.242.001 256.859-.472 115.474 113.758.475 255.143.001c141.383-.473 256.382 113.757 256.856 255.142Z"/><path fill="#fff" d="M416.099 415.036c87.814-88.452 87.389-231.121-1.063-318.935C326.585 8.287 183.915 8.712 96.101 97.164L416.1 415.036Z" opacity=".2"/><path fill="#FAFBFC" d="M280.02 233.031c-2.551-.427-4.89-1.063-7.23-1.49-31.468-6.378-54.218-10.843-54.218-32.743 0-13.608 13.396-24.453 37.422-24.453 21.475 0 38.485 8.718 49.541 25.09l1.701.426 34.233-35.084-.214-1.274c-13.607-16.16-30.83-27.429-50.604-33.383-2.764-.85-5.315-1.488-8.079-2.126h-.214c-1.063-.212-1.913-.425-2.976-.638V96.313h-46.776v31.043c-1.49.213-2.978.638-4.466.851h-.213c-22.112 5.315-41.461 16.796-56.558 34.444-6.378 10.631-9.568 23.39-9.568 38.06 0 50.179 37.847 66.126 74.844 75.057 6.804 1.7 13.608 2.976 20.199 4.039 23.176 4.253 43.162 7.867 43.162 28.704 0 12.97-14.245 29.13-44.012 29.13-17.648 0-32.106-5.953-42.737-16.798-.639-.638-1.488-1.275-2.127-1.913l-40.399 28.066v1.488a115.118 115.118 0 0 0 18.924 17.861c2.34 1.701 4.678 3.189 7.017 4.677h.212c2.339 1.488 4.89 2.765 7.23 4.041 0 0 .213 0 .213.212a114.75 114.75 0 0 0 7.442 3.402c.211 0 .211 0 .425.213 2.551 1.064 5.102 1.914 7.653 2.763.213 0 .426 0 .426.214 1.275.425 2.338.638 3.615 1.063h.425c1.276.425 2.551.638 4.04 1.063.212 0 .425 0 .637.213 1.063.212 2.339.425 3.403.637v31.043h46.776v-31.043c.851-.212 1.701-.212 2.553-.425h.425a79.713 79.713 0 0 0 9.568-2.551c1.488-.425 3.189-1.063 4.677-1.488 17.223-6.379 32.319-17.01 44.652-31.469 4.677-5.528 8.716-11.269 12.331-17.647 1.914-6.805 2.764-14.459 2.764-22.539.213-54.006-40.611-68.678-76.119-75.693Z"/><path fill="url(#paint0_linear_4193_3721)" d="M170.946 348.272c-2.34-2.764-4.466-5.528-6.379-8.505-.851-1.276-1.701-2.551-2.552-3.614-.212-.213-.425-.638-.637-.851-.638-1.063-1.49-2.338-2.126-3.615-.214-.424-.427-.849-.639-1.276-.638-1.063-1.276-2.338-1.914-3.401l-.637-1.276c-.638-1.063-1.276-2.34-1.701-3.614-.213-.425-.425-1.064-.638-1.489-.638-1.276-1.063-2.339-1.701-3.615a10.34 10.34 0 0 1-.638-1.488c-.425-1.275-1.064-2.551-1.488-3.828 0-.211-.214-.636-.214-.85-1.063-2.976-2.126-5.953-2.976-8.929 0-.214-.213-.427-.213-.852-.212-1.063-.637-2.126-.85-3.189l-.638-2.551c-.212-1.063-.425-1.913-.638-2.976-.212-.852-.425-1.915-.637-2.765-.213-1.063-.426-1.914-.638-2.977l-.638-3.19c-.213-.849-.213-1.913-.425-2.764-.213-1.063-.425-2.126-.425-3.401-.213-.851-.213-1.701-.426-2.764-.212-1.277-.212-2.34-.425-3.615 0-.851-.212-1.701-.212-2.551 0-1.489-.213-2.764-.213-4.252 0-.638 0-1.276-.214-2.126 0-2.128-.211-4.254-.211-6.38 0-2.127 0-4.04.211-6.166v-1.913c0-1.489.214-2.764.214-4.252 0-.638.213-1.49.213-2.127.212-1.276.212-2.764.425-4.04 0-.638.212-1.276.212-1.913.213-1.701.426-3.19.638-4.679 0-.425 0-.85.213-1.063.212-1.913.638-3.826 1.063-5.741.212-.638.212-1.274.425-1.701.213-1.275.638-2.551.85-3.826.213-.638.426-1.489.426-2.127.212-1.275.637-2.338.85-3.615.213-.638.425-1.488.638-2.126.425-1.275.85-2.551 1.063-3.827.212-.637.425-1.063.638-1.7.637-1.701 1.275-3.403 1.914-5.104.213-.638.424-1.063.638-1.701.425-1.275.85-2.338 1.488-3.614.213-.639.638-1.277.85-2.127a19.496 19.496 0 0 1 1.489-2.976c.425-.638.638-1.489 1.063-2.126.425-1.063 1.063-1.914 1.488-2.978.425-.638.638-1.274 1.063-1.913l2.552-4.465c-1.913 7.017-2.765 14.671-2.765 22.751 0 27.641 11.694 48.69 34.871 62.937 1.276 24.876 8.505 44.438 20.837 56.982l-42.524 27.854Z"/><path fill="url(#paint1_linear_4193_3721)" d="M305.748 199.435c7.23 10.844 11.907 24.453 13.609 40.824a81.56 81.56 0 0 1 15.733 9.568c17.223 13.395 25.941 32.956 25.941 57.834 0 2.976-.213 5.954-.425 8.93v-.212c.85-1.914 1.7-4.041 2.338-6.167.213-.638.425-1.063.638-1.701.425-1.488 1.063-2.976 1.488-4.464.213-.638.425-1.49.638-2.127.213-.851.638-1.914.85-2.764.426-1.276.638-2.339 1.063-3.614.213-.851.427-1.915.638-2.764.214-1.064.425-2.127.639-3.19.213-.638.213-1.489.424-2.126.214-1.489.639-3.189.852-4.679 0-.637.212-1.275.212-1.913l.638-5.102c0-.426 0-.638.213-1.063.212-1.702.425-3.19.425-4.891 0-.425 0-.851.213-1.276.212-1.913.212-3.828.425-5.741v-1.276c0-1.913.212-4.039.212-5.953 0-2.127 0-4.253-.212-6.591 0-.638 0-1.276-.213-2.126 0-1.49-.212-2.978-.212-4.253 0-.851-.213-1.701-.213-2.552-.213-1.275-.213-2.551-.425-3.826 0-.851-.213-1.701-.425-2.765-.213-1.276-.213-2.339-.426-3.614-.212-.851-.212-1.914-.425-2.764-.214-1.063-.425-2.34-.639-3.403-.211-.85-.424-1.913-.638-2.764l-.636-3.189c-.214-.85-.427-1.913-.639-2.765-.213-1.063-.638-2.126-.851-3.189-.212-.85-.425-1.913-.85-2.763-.213-1.063-.638-1.914-.85-2.977-.213-.85-.638-1.913-.851-2.765-.425-1.063-.638-1.913-1.063-2.764-.425-.85-.638-1.913-1.063-2.763-.425-.851-.638-1.915-1.063-2.764-.425-.852-.85-1.915-1.063-2.765l-1.275-2.551c-.427-.851-.852-1.701-1.277-2.764-.425-.85-.85-1.702-1.276-2.551-.425-.852-.85-1.702-1.488-2.552-.425-.851-.85-1.701-1.488-2.339-.425-.85-1.063-1.701-1.488-2.551-.425-.852-1.063-1.49-1.488-2.34-1.49-2.339-3.191-4.677-4.891-7.016-1.276-1.702-2.552-3.19-3.827-4.678l-35.509 36.571Z"/><defs><linearGradient id="paint0_linear_4193_3721" x1="213.869" x2="114.103" y1="268.254" y2="193.977" gradientUnits="userSpaceOnUse"><stop offset=".001" stop-color="#fff"/><stop offset="1" stop-color="#1E313F"/></linearGradient><linearGradient id="paint1_linear_4193_3721" x1="300.894" x2="393.029" y1="230.86" y2="302.69" gradientUnits="userSpaceOnUse"><stop offset=".001" stop-color="#fff"/><stop offset=".997" stop-color="#4E5A64"/></linearGradient></defs></svg>