<svg xmlns="http://www.w3.org/2000/svg" fill="none" viewBox="0 0 512 512"><path fill="#3CEAAA" d="M256 512c141.385 0 256-114.615 256-256S397.385 0 256 0 0 114.615 0 256s114.615 256 256 256Z"/><path fill="#404040" fill-rule="evenodd" d="M178.896 118.452c19.036-18.672 49.489-18.672 68.525 0l51.419 50.438 8.581-8.415c19.037-18.672 49.488-18.672 68.525 0l50.698 49.731c19.6 19.224 19.6 50.82 0 70.046L290.263 414.028c-19.037 18.672-49.49 18.672-68.525 0L85.355 280.252c-19.599-19.226-19.599-50.822 0-70.046l93.541-91.754Zm84.962 84.753-50.699-49.73-93.541 91.753 50.699 49.733 93.541-91.756Zm-58.557 126.07L256 379.005l50.698-49.73L256 279.545l-50.699 49.73Zm85.681-84.047 50.702 49.733 50.698-49.733-50.698-49.73-50.702 49.73Z" clip-rule="evenodd"/></svg>