<svg xmlns="http://www.w3.org/2000/svg" fill="none" viewBox="0 0 512 512"><g clip-path="url(#clip0_4193_3453)"><rect width="512" height="512" fill="#4189C9" rx="256"/><path fill="#262F71" d="M243.024 313.107c-10.38-6.149-21.704-9.697-33.499-12.535-15.334-3.548-31.139-5.204-46.709-4.258-11.088.473-22.175 2.129-32.319 7.096-1.18.473-2.359 1.183-3.539 2.129-8.256 5.44-9.672 13.008-3.538 21.05 1.179 1.656 2.595 3.311 4.246 5.204-5.426 0-10.144-.947-14.862-1.893-12.739-2.601-24.534-6.859-34.914-15.137-4.954-4.021-8.257-6.859-11.56-12.299.088-.132.177-.262.268-.392 1.348-1.919 3.079-3.616 5.011-4.728l.148-.084c4.01-1.655 6.84-4.73 10.851-6.622 17.929-8.278 37.037-13.245 56.617-15.138 7.785-.709 15.57-1.419 23.591-1.182 23.119.946 46.237 4.967 68.176 12.062 5.662 1.656 11.324 3.785 17.222 5.677 0-1.656-.944-2.602-1.652-3.784-2.359-4.021-5.19-7.806-8.257-11.59-1.179-1.419-2.594-2.365-2.594-4.494l1.134.261c2.737.622 5.61 1.245 8.302 1.868.943.236 1.887.709 2.359 0 .359-.54-.944-2.365-.944-2.365s-9.908-13.719-16.041-19.159l3.354.056c2.027.065 4.055.745 6.082.891 32.555 4.257 62.279 15.846 88.228 36.187 34.442 26.964 56.617 61.969 65.818 104.779 3.066 14.428 4.01 29.092 2.831 43.52-1.888 25.308-9.908 48.724-24.77 69.537-.58.872-1.337 1.565-1.999 2.353a8.52 8.52 0 0 0-.575.761 5.444 5.444 0 0 0-.493.907 26.552 26.552 0 0 1-2.618 3.299c-3.093 3.355-6.932 6.108-10.357 9-13.172 10.691-27.545 18.707-42.8 24.616-7.86 3.045-15.955 5.531-24.24 7.535a230.206 230.206 0 0 1-17.886 3.564c-24.298 3.784-48.832 4.257-73.366 1.183-38.453-4.731-75.018-18.685-106.865-40.445-7.785-5.204-15.334-10.88-22.175-17.266-.236-.237-.236-.474 0-.71a2.47 2.47 0 0 1 .51-.114c1.142-.126 1.967.676 2.793 1.297 16.277 12.299 34.913 21.286 54.494 26.49 6.605 1.656 13.21 3.075 20.051 4.021 1.416.473 3.303.236 4.719.473.236 0 .707 0 .943.236 15.334 1.893 30.668.71 45.766-1.892 33.262-5.913 62.75-19.868 87.992-42.337 17.221-15.138 30.904-33.35 37.981-55.583 7.313-22.233 6.134-43.756-4.01-65.28-2.124 9.698-7.078 17.503-13.447 24.835-6.369 7.096-13.682 13.245-21.939 17.739-.944.473-2.123 1.656-3.067.71-.944-.71-.472-2.129 0-2.838 2.123-6.623 3.303-13.482 4.01-20.341 2.831-29.092-8.256-51.798-31.375-68.828-3.774-2.838-7.785-5.44-12.031-7.569l.944-.473Z"/><path fill="#182144" d="M147.246 534.018c-8.492-.946-16.985-2.601-25.006-5.203-15.334-4.731-29.96-11.59-43.642-20.341-3.303-2.129-5.898-4.967-9.436-6.623-1.954-.217-2.709-2.037-4.103-2.879a3.017 3.017 0 0 0-.38-.195C30.71 468.502 7.59 431.368-5.62 388.085c-6.369-21.051-9.907-42.811-10.379-65.044 0-1.655.236-3.311.236-5.913 1.651 3.785 2.83 6.623 4.246 9.461C.75 353.553 16.32 377.914 37.786 398.255c22.883 21.523 49.54 36.188 80.68 41.155 36.801 5.913 71.007-.473 102.618-20.341 15.806-9.934 28.545-22.706 36.094-39.972 8.964-21.051 5.662-40.682-8.257-58.894-1.179-1.656-2.595-3.075-3.774-4.73 1.651-1.42 2.595.236 3.538.946a67.765 67.765 0 0 1 18.873 25.071c4.246 9.461 6.369 19.395 6.605 29.565.236 10.407-2.123 20.814-6.605 30.275.943 0 1.887-.237 2.595-.946 4.482-2.602 8.492-5.44 12.267-8.752 1.179-.946 2.359-2.601 4.246-2.365-.944 7.805-2.831 15.847-5.19 23.416 4.954-2.838 9.908-6.15 14.626-9.698 3.539-2.838 6.606-6.386 10.144-9.46 1.416.709 1.416 2.128 1.887 3.547 5.898 21.051 1.652 40.682-8.728 59.131-12.503 22.469-31.14 39.262-52.607 52.744-17.457 10.88-36.329 18.685-56.617 23.179-12.503 2.838-25.478 3.548-38.453 2.365-1.651-.946-3.538 0-4.954-.709l.472.236Z"/><path fill="#161F42" d="M369.469 511.312c0-.148.007-.293.021-.434.214-2.111 1.955-3.469 3.281-5.242 11.56-16.32 18.401-34.532 22.175-54.4 2.359-12.299 2.359-24.598 1.652-36.661-1.18-18.685-6.134-36.897-13.683-54.163-5.426-12.773-12.503-24.835-20.759-35.952-8.729-11.589-19.109-22.469-30.432-31.693-17.457-14.428-37.509-25.308-59.212-32.167-11.56-3.785-23.355-6.15-35.386-7.333a181.953 181.953 0 0 1-3.251-.417l-3.354-.056c-7.549-5.676-15.334-11.116-24.299-15.137v-.946h9.437c43.878-.71 84.69 9.934 120.075 36.897 36.801 27.91 59.684 64.571 68.177 109.983 7.313 38.789 1.651 75.45-19.816 108.8-4.052 6.545-8.319 12.659-14.03 17.726-.274.243-.551.484-.832.722l.124.249.112.224Z"/><path fill="#182144" d="M336.206 93.142c-5.009 16.878-10.498 29.503-18.401 41.155-8.02 12.063-17.692 22.706-28.78 31.694-.708.473-1.179 1.183-1.887 1.656l-.262.133c-3.666 1.901-6.897 4.889-10.354 7.199-12.975 8.515-26.893 15.847-41.519 21.523-.236 0-.708.237-1.18.237-.707-.946 0-1.183.472-1.656 8.257-7.805 13.447-17.502 16.749-28.382.236-1.419 1.416-2.602 2.595-3.075 25.714-10.171 46.002-26.964 62.751-48.724a263.258 263.258 0 0 1 4.954-6.386c-5.19 0-13.211 3.548-13.211 3.548s-2.039-.643-2.132-.704l-.002-.001-.007-.004-.809.609C313.476 98.781 336.322 62.479 341 47.5c.472-1.42 2.047-4.5 2.047-4.5.236 0 .236.236.236.473v.237c-.236 16.556-1.529 30.737-7.077 49.432Z"/><path fill="#161F42" d="M236.845 272.45c-.219-.246.223.243 0 0 4.91 5.491 9.171 11.623 12.784 18.188.236.709 1.179 1.419.472 2.129-.708.473-1.416-.237-2.123-.474-16.986-6.386-34.678-11.116-52.607-14.427-8.965-1.656-18.165-2.366-27.365-2.839-8.257-.473-16.513-.473-24.77.237-18.873 1.419-37.037 5.44-54.494 13.245-5.426 2.365-10.852 5.204-15.806 8.515-.451.226-.687.886-1.327.32a1.558 1.558 0 0 1-.088-.084c15.098-10.643 31.375-19.631 49.304-24.834 24.534-7.332 49.54-8.988 74.782-7.096 12.974.946 28.5 4.281 41.238 7.12Z"/><path fill="#182144" d="M91.337 255.869c.472 1.419-1.18 2.129-.944 3.311-.944-3.784-2.83-5.203-6.841-4.493-4.01.946-7.785 3.074-10.616 6.149-.647.866-1.492 1.533-2.354 2.184l-.24.181c-.709-.946 0-1.655.235-2.365 1.651-5.44 5.426-9.224 9.908-12.535.944-.71 2.123-1.183 3.539-1.656 5.425-1.183 8.256 1.419 7.549 6.859 0 .71 0 1.419-.472 2.129l.236.236Z"/><path fill="#182144" d="M91.337 255.869v-2.602c0-5.44-3.067-7.568-8.257-5.203-5.898 2.602-9.672 7.569-12.267 13.245-.386 0-.772 0-.77-.389 0-.086.02-.191.062-.32 1.888-6.859 5.426-12.536 11.324-16.557 1.415-.946 3.302-1.655 4.954-1.892 2.83-.473 5.426 1.183 6.133 3.784.903 3.169.51 6.554-1.18 9.534a10.72 10.72 0 0 1-.235.4h.236Z"/><path fill="#fff" d="M450.856 256.342c.684-.457.644-.842.002-1.372a.708.708 0 0 1-.002-.047l3.203 1.927 2.223 2.804S454 258 450.856 256.342Z"/><path fill="#424A7F" d="M64.915 498.777c1.888.236 2.831 2.365 4.483 3.074v.71l-.198-.114c-1.519-.889-3.022-1.985-4.141-3.475a8.154 8.154 0 0 1-.144-.195Z"/><path fill="#8CB7DE" d="m464.774 378.151 1.18.709c.021.105.034.209.041.314.07 1.08-.576 2.177-1.221 3.471v-4.494Z"/><path fill="#4F668A" d="m70.341 260.6.708.709a4.565 4.565 0 0 0-.467 1.711c-.003.06-.005.121-.005.181l-1.415 1.656c.199-1.796.398-2.919.88-3.937.09-.188.189-.372.3-.557v.237Z"/><path fill="#0E1F66" d="M287.138 389.504c-6.37 5.203-12.503 10.407-20.996 14.191 2.359-4.967 4.247-9.934 5.426-15.374 4.954-21.996.236-41.864-12.503-59.84-3.303-4.494-7.549-7.805-11.323-11.826-.472-.709-1.18-1.419-2.359-.946-1.18-.473-1.652-1.656-2.595-2.602.472-.709 1.179-.236 1.651 0 15.098 8.752 27.837 19.868 35.622 35.952 3.774 7.805 6.133 16.556 6.841 25.307.472 4.967.472 10.171-.236 15.138h.472ZM152.2 534.728c20.524.946 41.048-2.365 60.392-9.461 18.636-6.859 36.093-16.557 51.663-29.092 15.098-12.299 28.309-26.491 37.037-44.23 4.718-9.46 7.549-19.867 8.493-30.274.943-9.461-.708-18.449-3.303-27.437.236-2.129 2.359-3.311 3.539-4.73 4.482-5.913 7.784-12.299 9.2-19.868.236-.946.472-1.892.943-2.838 2.831 5.676 5.19 11.589 6.606 17.739 2.123 8.751 3.538 17.502 2.831 26.49-1.18 15.374-5.898 30.511-13.447 43.993-7.785 13.718-17.693 25.308-29.016 35.715-10.144 8.988-21.232 16.793-33.027 23.179-14.39 7.805-29.724 13.718-45.53 17.503-9.908 2.365-20.051 3.784-30.195 4.493-4.954.237-9.908.71-14.626.474-3.539-.237-7.549-.001-11.324-1.183l-.236-.473Z"/><path fill="#fff" fill-rule="evenodd" d="M245.147 274.318c.943.236 1.887.709 2.359 0 .359-.54-.944-2.365-.944-2.365s-9.908-13.719-16.041-19.159c-7.549-5.676-15.334-11.116-24.299-15.137v-.946h9.437c43.878-.71 84.69 9.934 120.075 36.897 36.801 27.91 59.684 64.571 68.177 109.983 7.313 38.789 1.651 75.45-19.816 108.8-4.052 6.545-8.319 12.659-14.03 17.726a8.52 8.52 0 0 0-.575.761 4.396 4.396 0 0 0-.021.434l-.112-.224c-.133.219-.255.45-.36.697a26.552 26.552 0 0 1-2.618 3.299c-3.093 3.355-6.932 6.108-10.357 9-13.172 10.691-27.545 18.707-42.8 24.616a245.192 245.192 0 0 0 58.842-31.412c44.762-32.414 78.068-79.577 92.71-134.643v-4.494c-1.179-24.125-7.077-47.541-17.457-69.301-6.841-14.191-15.334-27.437-25.477-39.263-9.201-10.88-19.581-20.104-30.668-28.855-5.662-3.548-11.088-7.569-16.985-10.88-18.637-10.88-39.161-18.212-60.628-21.76-.472-.237-.943-.237-1.415-.473 6.369-1.183 28.308 2.129 43.406 6.386 14.154 3.784 27.601 9.224 40.812 16.083-1.416-4.02-4.862-9.588-4.862-9.588s-2-3.5-2.923-5.076c3.923 1.576 6.445 3.31 10.374 5.411 18.311 9.415 35.932 21.204 51.907 34.135a.708.708 0 0 1-.002-.047l3.203 1.927c-9.843-12.815-21.747-23.565-34.343-33.621-15.098-12.299-31.375-22.706-48.832-30.984-24.298-12.063-50.012-19.868-76.905-23.179-2.359-.237-4.954 0-7.077-.946a2.407 2.407 0 0 1-.026-.34c-3.666 1.901-6.897 4.889-10.354 7.199-12.975 8.515-26.893 15.847-41.519 21.523-.236 0-.708.237-1.18.237-.707-.946 0-1.183.472-1.656 8.257-7.805 13.447-17.502 16.749-28.382.236-1.419 1.416-2.602 2.595-3.075 25.714-10.171 46.002-26.964 62.751-48.724a263.258 263.258 0 0 1 4.954-6.386c-5.19 0-13.211 3.548-13.211 3.548L304.5 113.5c0-.5.683-1.536.683-1.536.317.036.492-.372.809-.609l-.809.609C337.409 73.083 343.047 43 343.047 43c-29.478 56-63.458 80.181-86.813 95.791-3.538-18.685-4.718-16.083-10.851-29.329 0 1.42-15.098 22.47-33.971 34.296-19.108 12.063-68.884 19.868-68.176 48.014 0 12.772 7.077 17.976 19.58 21.287-15.806 4.967-20.052-5.677-21.703-3.548-6.606 7.332-31.612 30.275-45.53 24.362-9.908-1.892-5.898-16.084-4.482-22.47v-.236c-4.718 1.333-8.174 4.2-11.601 6.833-29.664 22.796-34.4 54.662-26.616 90.613.708 3.312 1.652 2.602 3.539 1.183 3.302-2.602 6.37-5.676 9.908-7.805.091.023.18.05.267.081 1.348-1.919 3.079-3.616 5.011-4.728a1.558 1.558 0 0 1-.088-.084c15.098-10.643 31.375-19.631 49.304-24.834 24.534-7.332 49.54-8.988 74.782-7.096 12.974.946 28.5 4.281 41.238 7.12-.219-.246.223.243 0 0 2.737.622 5.61 1.245 8.302 1.868Zm-38.689-102.414C213.064 168.593 221.5 164.5 227 159.5c-6.5 27-22.665 39.841-45.312 41.969l-.336.036c-4.359.46-8.504.899-12.874.437-1.652-4.73.236-8.751 2.83-12.299 3.303-4.257 7.785-6.859 12.503-8.988 7.213-3.265 14.654-6.071 22.099-8.643l.275-.054.273-.054ZM91.337 255.869c.472 1.419-1.18 2.129-.944 3.311-.944-3.784-2.83-5.203-6.841-4.493-4.01.946-7.785 3.074-10.616 6.149-.647.866-1.492 1.533-2.354 2.184-.003.06-.005.121-.005.181l-1.415 1.656c.199-1.796.398-2.919.88-3.937 0-.086.02-.191.063-.32 1.888-6.859 5.426-12.536 11.324-16.557 1.415-.946 3.302-1.655 4.954-1.892 2.83-.473 5.426 1.183 6.133 3.784.903 3.169.51 6.554-1.18 9.534v.4Z" clip-rule="evenodd"/><path fill="#182144" d="m304.5 113.5 3.633-1.436s-2.039-.643-2.132-.704c-.004.003-.004.001-.002-.001l-.007-.004-.809.609S304.5 113 304.5 113.5Zm99.647 128.651c16.277 2.602 31.847 7.096 46.709 14.191.684-.457.644-.842.002-1.372-15.975-12.931-33.596-24.72-51.907-34.135-3.929-2.101-6.451-3.835-10.374-5.411a806.7 806.7 0 0 1 2.923 5.076s3.446 5.568 4.862 9.588c-13.211-6.859-26.658-12.299-40.812-16.083-15.098-4.257-37.037-7.569-43.406-6.386.472.236.943.236 1.415.473 21.467 3.548 41.991 10.88 60.628 21.76 5.897 3.311 11.323 7.332 16.985 10.88 4.157.038 8.587.724 12.975 1.419ZM227 159.5c-5.5 5-13.936 9.093-20.542 12.404-2.831 10.644-9.436 17.976-18.872 23.179-5.231 2.937-11.019 4.572-16.869 6.224-.746.211-1.493.421-2.239.635 4.37.462 8.515.023 12.874-.437l.336-.036C204.335 199.341 220.5 186.5 227 159.5Z"/><path fill="#182144" fill-rule="evenodd" d="M187.586 195.083c9.436-5.203 16.041-12.535 18.872-23.179-.052.018-.163.036-.273.054a2.21 2.21 0 0 0-.275.054c-.594.715-1.138 1.723-1.339 2.73-3.538 8.988-9.908 15.611-18.4 20.105-4.483 2.365-9.437 3.784-14.391 5.203-.323.13-.682.206-1.043.283-.953.203-1.917.408-2.259 1.609.746-.214 1.493-.424 2.239-.635 5.85-1.652 11.638-3.287 16.869-6.224Z" clip-rule="evenodd"/></g><defs><clipPath id="clip0_4193_3453"><rect width="512" height="512" fill="#fff" rx="256"/></clipPath></defs></svg>