<svg xmlns="http://www.w3.org/2000/svg" fill="none" viewBox="0 0 512 512"><path fill="#fff" d="M256 512c141.385 0 256-114.615 256-256S397.385 0 256 0 0 114.615 0 256s114.615 256 256 256Z"/><path fill="url(#paint0_linear_4193_3725)" d="M416.63 368.458c-16.196 18.512-34.964 27.766-56.304 27.766-22.366 0-41.264-8.098-56.689-24.294-15.168-16.199-27.509-41.136-37.023-74.816l-6.169-19.282h-55.147v80.986h48.592v32.008H115.828v-31.623h49.748V158.282h-49.748v-32.009h153.487c30.08 0 53.861 6.814 71.344 20.44 17.482 13.626 26.224 32.137 26.224 55.532 0 19.283-6.299 35.608-18.897 48.977-12.341 13.112-29.823 21.34-52.447 24.682l6.941 18.896c7.97 22.624 16.84 39.078 26.61 49.363 9.769 10.283 20.824 15.426 33.164 15.426 7.714 0 14.269-1.543 19.669-4.629 5.399-3.085 10.411-7.198 15.04-12.341l19.667 25.839ZM205.298 247.752h65.174c16.454 0 30.08-3.986 40.878-11.955 10.797-8.227 16.197-19.411 16.197-33.552 0-13.626-5.4-24.295-16.197-32.008-10.54-7.97-24.168-11.955-40.878-11.955h-65.174v89.47Z"/><defs><linearGradient id="paint0_linear_4193_3725" x1="115.828" x2="384.673" y1="126.273" y2="421.053" gradientUnits="userSpaceOnUse"><stop stop-color="#FF4A07"/><stop offset=".271" stop-color="#FF5411"/><stop offset=".502" stop-color="#FF671B"/><stop offset=".696" stop-color="#FF7824"/><stop offset="1" stop-color="#FF722B"/></linearGradient></defs></svg>