<svg xmlns="http://www.w3.org/2000/svg" fill="none" viewBox="0 0 512 512"><path fill="#000" d="M256 512c141.385 0 256-114.615 256-256S397.385 0 256 0 0 114.615 0 256s114.615 256 256 256Z"/><path fill="#00D1FF" d="M165 190.101c-2.208-2.743-5.559-4.267-9.137-4.267H82.08c-.609 0-1.142-.229-1.599-.61-.38-.381-.609-.838-.609-1.371v-49.761c0-.533.228-.991.61-1.372.456-.457.989-.685 1.598-.609h77.97c19.645 0 36.625 8.077 50.94 24.156l18.96 23.166-36.93 45.036L165 190.101Zm136.296-34.062c14.238-15.927 31.294-23.928 51.168-23.928h77.741c.533-.076 1.066.152 1.447.457.381.381.533.914.457 1.524v49.761c0 .533-.152.99-.457 1.371-.381.457-.914.686-1.447.61h-73.782c-3.503-.076-6.853 1.524-9.137 4.267l-54.366 66.221 54.594 66.677c2.208 2.515 5.483 4.039 8.833 3.963h73.782c.533-.076 1.142.228 1.447.609.305.458.533 1.067.457 1.601v49.76c0 .534-.152.991-.457 1.372-.381.457-.914.686-1.447.61h-77.665c-19.874 0-36.777-8.078-50.94-24.157l-45.229-55.247-45.229 55.247c-14.239 16.079-31.295 24.157-51.168 24.157H82.08c-.533.076-1.142-.229-1.447-.61a2.09 2.09 0 0 1-.456-1.6v-49.761c0-.533.152-.991.456-1.372.381-.457.914-.685 1.447-.609h73.783c3.502 0 6.852-1.6 9.137-4.268l136.296-166.655Z"/></svg>