<svg xmlns="http://www.w3.org/2000/svg" fill="none" viewBox="0 0 512 512"><path fill="#2F3058" fill-rule="evenodd" d="M512 256c0 141.385-114.615 256-256 256S0 397.385 0 256 114.615 0 256 0s256 114.615 256 256Zm-57.832 16.827c6.881-74.196-29.351-145.044-91.99-184.952-48.485-30.907-101.057-38.61-157.715-23.109C92.175 95.503 30.287 213.178 70.111 323.001c28.011 77.239 100.17 128.63 182.255 130.922 104.27 2.922 192.282-78.152 201.802-181.096Zm-240.957-59.791c-27.726 8.42-45.812 17.793-43.884 50.782.677 11.524 5.927 19.139 15.752 22.845 19.486 7.365 34.344-6.411 42.645-22.926 2.646-5.259 5.345-11.006 8.136-16.951 8.924-19.004 18.796-40.028 30.918-53.613 30.203-33.841 82.368-28.607 107.883 6.777 6.058 8.41 9.735 19.709 13.177 30.284.502 1.543.999 3.071 1.498 4.572.257.771.799 1.156 1.624 1.156l20.014-.081c.988 0 1.434-.501 1.339-1.501-2.178-23.143-9.573-44.412-22.185-63.808-58.884-90.57-183.473-98.258-254.13-17.875-19.919 22.669-31.813 49.965-35.683 81.885-.109.866.27 1.299 1.136 1.299l24.601-.02c.731 0 1.171-.359 1.32-1.076 7.733-37.311 30.568-68.941 70.271-74.662a2.62 2.62 0 0 1 2.903 1.907l13.437 49.626c.189.704-.068 1.163-.772 1.38Zm91.28 73.546c11.976-2.069 20.968-4.389 26.976-6.959 16.604-7.121 27.098-32.299 12.422-46.664-12.199-11.929-31.096-6.736-40.677 6.209a91.697 91.697 0 0 0-10.108 17.326c-1.729 3.886-3.435 7.883-5.161 11.928-14.506 33.992-30.471 71.4-74.041 75.172-15.089 1.312-29.629-1.211-43.621-7.568-28.193-12.782-36.739-34.329-43.924-62.388a1.31 1.31 0 0 0-.47-.73 1.348 1.348 0 0 0-.829-.284h-24.297c-.636 0-.927.324-.873.974 9.54 102.011 116.531 165.332 211.443 130.456 50.908-18.706 101.307-72.857 100.455-130.416-.014-.676-.359-1.014-1.036-1.014h-18.795c-.731 0-1.239.338-1.523 1.014-13.944 33.172-32.862 66.831-74.168 65.837a1.882 1.882 0 0 1-1.139-.428 1.84 1.84 0 0 1-.627-1.033l-11.022-49.91c-.189-.852.149-1.359 1.015-1.522Z" clip-rule="evenodd"/><path fill="#fff" fill-rule="evenodd" d="M362.178 87.875c62.639 39.908 98.871 110.756 91.99 184.952-9.52 102.944-97.532 184.018-201.802 181.096-82.085-2.292-154.244-53.683-182.255-130.922C30.287 213.178 92.175 95.504 204.463 64.766c56.658-15.5 109.23-7.798 157.715 23.109ZM169.327 263.818c-1.928-32.989 16.158-42.362 43.884-50.782.704-.217.961-.676.772-1.38l-13.437-49.626a2.621 2.621 0 0 0-2.903-1.907c-39.703 5.721-62.538 37.351-70.271 74.662-.149.717-.589 1.076-1.32 1.076l-24.601.02c-.866 0-1.245-.433-1.136-1.299 3.87-31.92 15.764-59.216 35.683-81.885 70.657-80.383 195.246-72.694 254.13 17.875 12.612 19.396 20.007 40.665 22.185 63.808.095 1-.351 1.501-1.339 1.501l-20.014.081c-.825 0-1.367-.385-1.624-1.156-.499-1.501-.996-3.029-1.498-4.572-3.442-10.575-7.119-21.874-13.177-30.284-25.515-35.384-77.68-40.618-107.883-6.777-12.122 13.585-21.994 34.609-30.918 53.613-2.791 5.945-5.49 11.692-8.136 16.951-8.301 16.515-23.159 30.291-42.645 22.926-9.825-3.706-15.075-11.321-15.752-22.845Zm162.14 15.805c-6.008 2.57-15 4.89-26.976 6.959-.866.163-1.204.67-1.015 1.522l11.022 49.91c.086.404.307.768.627 1.033.32.264.721.415 1.139.428 41.306.994 60.224-32.665 74.168-65.837.284-.676.792-1.014 1.523-1.014h18.795c.677 0 1.022.338 1.036 1.014.852 57.559-49.547 111.71-100.455 130.416-94.912 34.876-201.903-28.445-211.443-130.456-.054-.65.237-.974.873-.974h24.297c.301 0 .593.1.829.284.236.184.401.441.47.73 7.185 28.059 15.731 49.606 43.924 62.388 13.992 6.357 28.532 8.88 43.621 7.568 43.57-3.772 59.535-41.18 74.041-75.172 1.726-4.045 3.432-8.042 5.161-11.928a91.697 91.697 0 0 1 10.108-17.326c9.581-12.945 28.478-18.138 40.677-6.209 14.676 14.365 4.182 39.543-12.422 46.664Z" clip-rule="evenodd"/></svg>