<svg xmlns="http://www.w3.org/2000/svg" fill="none" viewBox="0 0 512 512"><path fill="#000" d="M256 512c141.385 0 256-114.615 256-256S397.385 0 256 0 0 114.615 0 256s114.615 256 256 256Z"/><path fill="#fff" d="M256 512c141.385 0 256-114.615 256-256S397.385 0 256 0 0 114.615 0 256s114.615 256 256 256Z"/><path fill="#00A3FF" d="m144.119 237.012-2.957 4.436c-34.01 53.234-26.616 122.735 19.223 167.097 25.138 26.617 60.627 39.926 96.115 39.926L144.119 237.012Z"/><path fill="#00A3FF" d="m256.5 300.597-112.339-63.246C256.542 450.288 256.5 448.47 256.5 448.47V300.597Z" opacity=".6"/><path fill="#00A3FF" d="m368.839 236.866 2.999 4.582c34.01 53.234 26.617 122.735-19.223 167.097-26.616 26.617-60.626 39.925-96.115 39.925 0 0-.042-.145 112.339-211.604Z" opacity=".6"/><path fill="#00A3FF" d="m256.5 300.597 112.339-63.731C256.458 449.804 256.5 448.47 256.5 448.47V300.597Zm0-143.437v110.905l97.594-54.713L256.5 157.16Z" opacity=".2"/><path fill="#00A3FF" d="m256.5 157.16-97.594 56.192 97.594 54.713V157.16Z" opacity=".6"/><path fill="#00A3FF" d="m256.5 64-97.594 149.352L256.5 157.16V64Z"/><path fill="#00A3FF" d="m256.5 157.16 97.594 56.192L256.5 64v93.16Z" opacity=".6"/></svg>