<svg xmlns="http://www.w3.org/2000/svg" fill="none" viewBox="0 0 512 512"><path fill="url(#paint0_linear_4193_4264)" d="M0 256c0 141.385 114.615 256 256 256s256-114.615 256-256S397.385 0 256 0 0 114.615 0 256Z"/><path fill="#fff" fill-rule="evenodd" d="M142.802 260.308c23.692 11.882 57.19 8.395 100.493-10.456a203.79 203.79 0 0 1 12.852-5.091V73.514L142.802 260.308Zm113.345 25.402a312.891 312.891 0 0 0-5.272 2.24c-39.16 17.048-70.301 21.53-93.424 13.446-4.1-1.434-7.485-3.566-10.277-6.149l108.973 152.907V285.71Z" clip-rule="evenodd"/><path fill="#9FB4FC" d="m256.147 448.154 112.245-158.112c-31.655-24.088-66-23.474-112.245-4.332v162.444Zm104.032-202.523L256.147 73.514v171.247c40.556-14.476 77.731-12.71 104.032.87Z"/><defs><linearGradient id="paint0_linear_4193_4264" x1="208.062" x2="328.511" y1="528.319" y2="-12.694" gradientUnits="userSpaceOnUse"><stop stop-color="#3068EF"/><stop offset="1" stop-color="#1322AC"/></linearGradient></defs></svg>