<svg xmlns="http://www.w3.org/2000/svg" fill="none" viewBox="0 0 512 512"><path fill="#2E5CFF" fill-rule="evenodd" d="M512 256c0 141.385-114.615 256-256 256S0 397.385 0 256 114.615 0 256 0s256 114.615 256 256Z" clip-rule="evenodd"/><path fill="#fff" fill-rule="evenodd" d="M306.416 239.279c-7.039 31.466-23.078 59.907-46.459 82.295 5.782 5.194 12.017 9.934 18.503 14.22.029-.029.058-.057.086-.082l.068-.061a1.41 1.41 0 0 0 .248-.26c23.883-23.952 40.828-53.804 48.923-86.328 2.314-9.33 3.972-19.061 4.828-28.793.503-5.598.754-11.245.754-16.692 0-59.3-28.509-115.574-76.226-150.57l-.251-.201-.856-.807-1.106 1.008c-47.766 34.996-76.226 91.27-76.226 150.57 0 4.237.152 8.574.453 12.96 7.341-3.227 14.933-6 22.627-8.32l-.014-.43c-.045-1.496-.087-2.874-.087-4.21 0-45.433 19.157-89.201 52.543-120.112l1.81-1.665 1.811 1.665c33.386 30.911 52.492 74.679 52.492 120.112 0 2.068-.05 4.287-.15 6.757a164.637 164.637 0 0 1-3.771 28.944ZM131.79 253.448c-34.192 30.76-55.712 72.965-60.64 118.751l-.15 1.262 1.307.655C96.141 384.654 121.381 390 147.427 390c37.459 0 73.26-10.992 103.93-31.768-6.435-4.74-12.62-9.984-18.503-15.582a162.046 162.046 0 0 1-85.427 24.305c-15.99 0-31.777-2.319-47.013-6.958l-2.363-.706-1.558-.454.301-1.362.553-2.42c10.71-46.391 40.98-85.672 83.014-107.708 8.648-4.538 17.749-8.321 27.051-11.195 15.687-4.891 32.029-7.362 48.571-7.362 15.587 0 30.973 2.169 45.757 6.504 1.558-7.563 2.512-15.329 2.965-23.095-15.889-4.335-32.229-6.504-48.722-6.504-17.196 0-34.291 2.37-50.784 7.059a187.684 187.684 0 0 0-27.352 10.186 184.856 184.856 0 0 0-46.057 30.508ZM439.743 374.06c-23.834 10.589-49.125 15.934-75.17 15.934-38.666 0-75.672-11.748-107.049-33.936a193.06 193.06 0 0 1-22.475-18.758l-.503-.505a18.322 18.322 0 0 0-.948-.961c-.155-.151-.31-.301-.459-.45-23.381-23.448-40.074-52.543-48.371-84.261 6.939-3.53 14.129-6.505 21.521-8.976 7.592 31.264 24.084 59.401 47.917 81.437 7.14 6.605 14.933 12.657 23.18 17.902a161.725 161.725 0 0 0 87.187 25.464c16.543 0 32.883-2.471 48.571-7.413l2.363-.756-.552-2.42c-10.308-46.291-39.975-85.523-81.506-108.011 1.86-7.716 3.218-15.683 4.073-23.751a184.962 184.962 0 0 1 42.688 28.844c34.191 30.759 55.712 72.915 60.639 118.751l.151 1.361-1.157.454-.1.051Z" clip-rule="evenodd"/></svg>