<svg xmlns="http://www.w3.org/2000/svg" fill="none" viewBox="0 0 512 512"><path fill="#fff" d="M256 512c141.385 0 256-114.615 256-256S397.385 0 256 0 0 114.615 0 256s114.615 256 256 256Z"/><path fill="#356EFF" d="M352.301 145c-12.592 0-24.135 6.677-30.343 17.43l-78.804 135.195h-58.745V367h79.043c12.502 0 24.054-6.618 30.299-17.358l78.662-135.267H431V145h-78.699Z"/><path fill="#356EFF" d="M141.394 367 81 332.399l98.456-169.969c6.169-10.753 17.641-17.43 30.154-17.43h78.208v69.375h-58.222L141.394 367ZM88.955 145v71.357c39.554 0 71.591-31.932 71.591-71.357H88.955Zm306.249 182.357c19.77 0 35.796-15.974 35.796-35.678C431 271.974 414.974 256 395.204 256c-19.769 0-35.795 15.974-35.795 35.679 0 19.704 16.026 35.678 35.795 35.678Z"/></svg>