<svg xmlns="http://www.w3.org/2000/svg" fill="none" viewBox="0 0 512 512"><path fill="#356EFF" d="M256 512c141.385 0 256-114.615 256-256S397.385 0 256 0 0 114.615 0 256s114.615 256 256 256Z"/><path fill="#fff" d="M105.609 136.348a.163.163 0 0 1 .164-.156h100.253c.093 0 .139.047.139.14-.283 39.034-22.214 74.262-57.606 90.935-10.518 4.956-21.229 7.942-32.133 8.958-1.486.139-5.023.399-10.612.78-.17.013-.252-.066-.246-.239.033-.775-.095-1.502-.095-2.229-.005-31.31.007-62.621.037-93.932.003-1.409.036-2.828.099-4.257Zm301.7 101.156c-31.804-.033-68.334-.088-100.152-.066a.185.185 0 0 0-.074.015.193.193 0 0 0-.12.179v204.426a.308.308 0 0 1-.309.31H206.379c-.138 0-.206-.069-.206-.206-.008-69.661-.01-139.314-.004-208.959.002-4.392.605-9.583 1.808-15.574 6.482-32.286 27.452-58.765 57.293-72.457 13.508-6.199 28.335-8.944 43.453-8.961 0 0 65.671-.03 98.64 0a.19.19 0 0 1 .189.19V237.24c0 .162-.081.25-.243.264Z"/></svg>