<svg xmlns="http://www.w3.org/2000/svg" fill="none" viewBox="0 0 512 512"><rect width="512" height="512" fill="#9505FF" rx="256"/><path fill="#fff" d="M90.002 225.597c.492-38.564 21.803-72.511 52.082-95.143 30.388-22.717 67.471-34.613 105.246-36.272 33.386-1.464 66.194 5.926 95.774 21.296 40.597 21.101 78.068 61.034 79.869 109.094.091 2.439-.046 4.32-.408 5.644-1.129 4.139-4.443 7.537-8.489 8.889-3.902 1.3-9.613.774-14.423.774-98.344.01-196.687.012-295.028.004-8.873 0-14.736-5.241-14.623-14.286Zm330.403 34.44H91.792a.186.186 0 0 0-.187.185v30.912c0 .102.084.185.187.185h328.613a.187.187 0 0 0 .188-.185v-30.912a.187.187 0 0 0-.188-.185Zm-224.016 76.431c3.287.433 5.171-.875 5.651-3.926 1.041-6.633.412-17.714 8.452-20.456 1.131-.385 3.087-.578 5.867-.578 63.149.008 126.297-.037 189.444-.136 1.412-.004 3.437.024 4.926.252 5.038.773 9.276 4.384 10.785 9.163.427 1.356.647 3.691.66 7.008.024 5.134.03 10.266.016 15.398-.008 3.321-.134 5.971-.38 7.948-3.005 24.103-21.526 43.427-45.905 46.488-1.95.247-4.614.371-7.992.371H141.336c-6.803 0-13.625-1.584-20.466-4.751-16.948-7.845-28.397-23.669-30.518-42.12-.21-1.829-.32-4.481-.328-7.956-.013-5.437-.021-10.874-.024-16.311 0-2.291.179-4.072.536-5.345 1.725-6.139 6.871-9.917 13.406-9.981a828.57 828.57 0 0 1 18.721.02c6.751.079 12.002 3.491 13.755 10.056.352 1.326.525 3.24.52 5.74-.008 3.689-.008 7.374 0 11.057.002 1.151.417 2.268 1.244 3.353 3.514 4.599 11.002 4.671 13.427-1.105.341-.815.513-2.026.516-3.631.008-3.193-.108-6.792.504-9.678 1.541-7.246 7.039-13.353 14.343-15.238 11.845-3.057 22.478 4.982 24.295 16.633.524 3.357.844 7.163 5.122 7.725Z"/></svg>