<svg xmlns="http://www.w3.org/2000/svg" fill="none" viewBox="0 0 512 512"><path fill="#477BFF" fill-rule="evenodd" d="M256 0c141.385 0 256 114.615 256 256S397.385 512 256 512 0 397.385 0 256 114.615 0 256 0Zm58.493 75.74C308.721 73.896 304 77.322 304 83.383v14.905c0 4.064 3.063 8.689 6.878 10.087C372.153 130.818 416 189.714 416 258.667s-43.847 127.848-105.122 150.291c-4.184 1.533-6.878 5.631-6.878 10.089v14.904c0 6.06 4.721 9.487 10.493 7.643C391.928 416.853 448 344.309 448 258.667S391.928 100.481 314.493 75.74Zm-106.492 7.643c0-6.061-4.721-9.487-10.493-7.643C120.072 100.48 64 173.025 64 258.667s56.072 158.186 133.508 182.927c5.772 1.844 10.493-1.583 10.493-7.643v-14.904c0-4.065-3.063-8.691-6.879-10.089C139.848 386.515 96 327.62 96 258.667s43.848-127.849 105.122-150.292c3.816-1.398 6.879-6.023 6.879-10.087V83.383ZM264 130.667h-15.999a8 8 0 0 0-8 8v24.784c-31.719 4.51-52.224 25.619-52.224 52.698 0 35.052 21.189 48.653 65.915 54.672 30.343 4.97 38.979 11.505 38.979 28.773 0 17.263-14.655 28.773-35.313 28.773-27.933 0-37.125-12.223-40.515-28.044-.803-3.747-4.013-6.487-7.846-6.487h-18.249c-4.597 0-8.191 4.14-7.401 8.669 4.647 26.629 21.749 46.167 56.654 50.903v25.259a8 8 0 0 0 8 8H264a8 8 0 0 0 8.001-8v-25.273c33.042-5.248 54.152-28.25 54.152-56.679 0-37.404-22.759-49.962-66.708-55.976-32.434-4.709-38.708-12.297-38.708-27.469 0-14.383 10.983-24.589 32.173-24.589 19.166 0 30.188 6.689 34.742 22.113 1.016 3.443 4.096 5.876 7.686 5.876h16.829c4.693 0 8.346-4.312 7.344-8.898-5.328-24.376-21.756-39.003-47.51-43.617v-25.488a8 8 0 0 0-8.001-8Z" clip-rule="evenodd"/><path fill="#fff" d="M314.493 75.74C308.721 73.896 304 77.322 304 83.383v14.905c0 4.064 3.063 8.689 6.878 10.087C372.153 130.818 416 189.714 416 258.667s-43.847 127.848-105.122 150.291c-4.184 1.533-6.878 5.631-6.878 10.089v14.904c0 6.06 4.721 9.487 10.493 7.643C391.928 416.853 448 344.309 448 258.667S391.928 100.481 314.493 75.74Z"/><path fill="#fff" d="M264 130.667h-15.999a8 8 0 0 0-8 8v24.784c-31.719 4.51-52.224 25.619-52.224 52.698 0 35.052 21.189 48.653 65.915 54.672 30.343 4.97 38.979 11.505 38.979 28.773 0 17.263-14.655 28.773-35.313 28.773-27.933 0-37.125-12.223-40.515-28.044-.803-3.747-4.013-6.487-7.846-6.487h-18.249c-4.597 0-8.191 4.14-7.401 8.669 4.647 26.629 21.749 46.167 56.654 50.903v25.259a8 8 0 0 0 8 8H264a8 8 0 0 0 8.001-8v-25.273c33.042-5.248 54.152-28.25 54.152-56.679 0-37.404-22.759-49.962-66.708-55.976-32.434-4.709-38.708-12.297-38.708-27.469 0-14.383 10.983-24.589 32.173-24.589 19.166 0 30.188 6.689 34.742 22.113 1.016 3.443 4.096 5.876 7.686 5.876h16.829c4.693 0 8.346-4.312 7.344-8.898-5.328-24.376-21.756-39.003-47.51-43.617v-25.488a8 8 0 0 0-8.001-8Z"/><path fill="#fff" d="M208.001 83.383c0-6.061-4.721-9.487-10.493-7.643C120.072 100.48 64 173.025 64 258.667s56.072 158.186 133.508 182.927c5.772 1.844 10.493-1.583 10.493-7.643v-14.904c0-4.065-3.063-8.691-6.879-10.089C139.848 386.515 96 327.62 96 258.667s43.848-127.849 105.122-150.292c3.816-1.398 6.879-6.023 6.879-10.087V83.383Z"/></svg>