<svg xmlns="http://www.w3.org/2000/svg" fill="none" viewBox="0 0 512 512"><path fill="#376B59" d="M256 512c141.385 0 256-114.615 256-256S397.385 0 256 0 0 114.615 0 256s114.615 256 256 256Z"/><path fill="#fff" d="M477.15 235.523c.772 8.579-11.987 9.892-12.855.998C452.496 115.658 342.65 29.986 222.226 49.343 128.868 64.347 57.141 141.39 48.039 235.485c-.157 1.616-.43 2.794-.818 3.535-3.305 6.353-12.373 3.64-11.707-3.485 3.904-41.702 18.18-79.17 42.829-112.405C140.767 38.964 253.579 10.634 348.63 53.775c72.244 32.789 121.402 102.962 128.519 181.748Z"/><path fill="#fff" d="M345.636 97.563H183.76a8.71 8.71 0 0 0-8.712 8.71v4.068a8.71 8.71 0 0 0 8.712 8.709h161.876a8.71 8.71 0 0 0 8.712-8.709v-4.068c0-4.81-3.9-8.71-8.712-8.71Zm-110.827 44.631a.186.186 0 0 1-.078-.004.2.2 0 0 1-.069-.037.183.183 0 0 1-.063-.14v-14.362c0-.14.07-.21.21-.21h21.077c.14 0 .209.07.209.21v12.488c0 .165-.082.249-.247.252-7.047.195-14.06.796-21.039 1.803Zm34.146-1.686a.177.177 0 0 1-.172-.176v-12.681c0-.14.07-.21.21-.21h21.077a.209.209 0 0 1 .209.21v14.782c0 .134-.067.191-.201.172a167.435 167.435 0 0 0-21.123-2.097Zm-34.532 149.751c-21.475-4.801-42.182-11.355-59.354-25.508-16.228-13.373-21.253-35.099-17.126-55.123 2.983-14.446 10.851-26.1 22.05-35.514 27.154-22.837 65.956-27.437 99.889-24.213 21.408 2.038 43.738 9.574 60.197 23.777 12.161 10.495 19.555 23.701 22.184 39.619.489 2.958-.323 5.378-2.437 7.259-1.82 1.619-3.708 1.971-6.321 1.971-12.631.003-25.263.002-37.896-.004-1.468 0-2.655-.175-3.561-.524-5.356-2.072-5.679-6.701-8.275-11.146-3.185-5.441-7.635-9.607-13.351-12.501a.104.104 0 0 0-.049-.012.098.098 0 0 0-.094.1v49.223c0 .145-.071.202-.214.171l-21.064-4.499c-.145-.031-.218-.119-.218-.264v-50.33c0-.17-.085-.262-.256-.276a99.222 99.222 0 0 0-12.205-.265c-.151.006-.227.084-.227.235v47.805c0 .143-.068.199-.205.168-7.726-1.728-14.269-3.648-21.123-7.23a.294.294 0 0 1-.168-.281v-36.26c0-.14-.065-.183-.197-.13-10.909 4.47-18.744 13.796-17.96 25.92 1.174 18.065 27.46 24.191 41.239 27.202a8686.388 8686.388 0 0 0 30.954 6.697c23.849 5.108 51.079 15.151 66.363 35.158 10.847 14.199 13.9 31.731 10.62 49.08-6.874 36.382-42.224 53.063-75.12 57.969-.14.02-.21.101-.21.244-.017 5.65-.017 11.293 0 16.929.025 8.621-4.929 10.806-12.848 10.278-3.8-.256-6.727-2.038-8.065-5.624-.392-1.045-.587-2.632-.587-4.759 0-4.949-.003-9.898-.009-14.849 0-.129-.064-.193-.193-.193l-12.298.117c-.125 0-.188.063-.188.189a3890.61 3890.61 0 0 0-.005 15.277c.009 4.612-1.728 8.277-6.497 9.561-1.644.444-3.77.293-5.683.31-4.102.042-7.424-2.013-8.77-5.804-.369-1.034-.55-2.514-.541-4.441.016-5.476.009-10.951-.021-16.425 0-.151-.076-.236-.227-.256-40.241-4.952-79.68-25.098-84.126-70.395-.331-3.38 1.883-6.684 5.109-7.775.908-.307 2.406-.462 4.492-.465 12.793-.011 25.587-.013 38.382-.004 4.17 0 7.71 3.782 8.754 7.674 6.816 25.483 39.1 30.771 61.091 28.758 14.483-1.329 34.23-7.074 39.196-22.938 4.354-13.918-4.614-24.074-16.736-28.867-.159-.062-.239-.007-.239.163v36.08a.72.72 0 0 1-.385.634 57.535 57.535 0 0 1-20.935 6.109c-.117.014-.176-.039-.176-.159l.005-49.671c0-.157-.077-.252-.231-.285l-12.189-2.722c-.182-.039-.273.034-.273.218v52.888c0 .137-.068.205-.205.205a66.968 66.968 0 0 1-21.123-3.744.253.253 0 0 1-.121-.093.264.264 0 0 1-.047-.146v-54.07c0-.123-.058-.198-.176-.223Z"/><path fill="#fff" d="M169.822 459.954C94.76 428.642 41.172 355.991 34.835 274.735c-.495-6.365 8.854-8.948 12.013-3.413.455.802.787 2.214.994 4.235C60.232 397.15 172.733 482.884 293.61 460.894c91.235-16.598 160.488-91.761 170.19-183.735.407-3.849.495-6.537 4.324-8.362 3.117-1.484 6.929.411 8.062 3.447.335.895.414 2.291.235 4.19-9.819 104.286-92.431 188.418-196.493 199.435-38.261 4.05-74.963-1.254-110.106-15.915Z"/></svg>