<svg xmlns="http://www.w3.org/2000/svg" fill="none" viewBox="0 0 512 512"><path fill="url(#paint0_linear_4193_4372)" fill-rule="evenodd" d="M74.678 437.321C26.34 388.983 0 324.271 0 256S27.052 123.017 74.678 74.678C123.017 26.34 187.73 0 256 0c70.407 0 134.407 28.476 181.321 74.678C485.66 123.017 512 187.73 512 256s-27.052 132.983-74.679 181.321C391.119 483.524 327.119 512 256 512c-68.271 0-132.983-27.052-181.322-74.679Z" clip-rule="evenodd"/><path fill="#fff" fill-rule="evenodd" d="M373.321 134.407H278.71V72.543h-47.627v61.864h-40.507c-21.357 0-63.288 17.086-62.576 70.407.712 54.034 38.372 67.56 52.61 67.56h50.473v68.271h-95.252v37.66h95.252v62.576h47.627v-62.576h36.947c22.069 0 66.848-18.51 66.848-71.119 0-51.898-39.795-69.695-64-69.695h-40.507v-65.424h94.54v-37.66h.783Zm-69.695 138.679c9.255 0 30.541 3.559 30.541 33.388 0 29.829-19.222 34.1-26.341 34.1h-29.188v-68.2.712h24.988Zm-72.543-34.884h-23.492c-8.543 0-33.389-4.983-33.389-33.388 0-28.405 17.798-31.964 24.205-31.964h32.676v65.352Z" clip-rule="evenodd"/><defs><linearGradient id="paint0_linear_4193_4372" x1="59.51" x2="452.008" y1="420.785" y2="91.57" gradientUnits="userSpaceOnUse"><stop stop-color="#024C2A"/><stop offset=".502" stop-color="#0C9943"/><stop offset="1" stop-color="#98D435"/></linearGradient></defs></svg>