<svg xmlns="http://www.w3.org/2000/svg" fill="none" viewBox="0 0 512 512"><path fill="#2E5CFF" fill-rule="evenodd" d="M512 256c0 141.385-114.615 256-256 256S0 397.385 0 256 114.615 0 256 0s256 114.615 256 256Z" clip-rule="evenodd"/><path fill="#fff" d="M392.731 145.266c-26.718-32.669-61.064-53.425-103.04-62.267-17.5-3.698-13.352-30.885 7.636-26.278 53.725 11.83 95.948 40.175 126.669 85.033 8.812 12.871.557 19.833-10.896 25.452a11072.536 11072.536 0 0 0-70.166 34.852c-7.8 3.925-13.682 7.437-21.875 1.446a15954.998 15954.998 0 0 0-55.554-40.451c-5.682-4.118-11.124-4.324-16.324-.619a5326.302 5326.302 0 0 0-56.38 40.719c-9.246 6.755-14.24 2.727-22.887-1.467a3092.496 3092.496 0 0 1-76.088-38.302c-9.018-4.69-10.442-13.015-4.747-21.279 31.685-46.028 74.5-74.62 128.445-85.777 14.59-3.016 23.835 15.515 11.66 24.068-1.665 1.157-4.802 2.266-9.411 3.326-38.839 8.939-71.699 29.088-98.583 60.449-1.128 1.308-.921 2.348.62 3.12l58.732 29.439c.908.454 1.768.379 2.58-.227a3539.642 3539.642 0 0 1 45.628-33.324c22.433-16.114 36.589-13.924 58.052 1.674a9436.084 9436.084 0 0 1 43.482 31.711c.55.4 1.135.448 1.754.145l60.363-29.976c.729-.358.839-.847.33-1.467ZM87.263 212.305c-19.357 81.479 18.677 161.348 92.66 199.257 4.926 2.52 8.117 4.827 9.576 6.921 5.345 7.685-.723 20.06-10.071 20.576-2.876.166-6.638-.888-11.288-3.161C77.915 391.605 33.855 288.31 64.893 191.997c3.735-11.611 10.009-18.738 22.618-12.54a6515.647 6515.647 0 0 1 79.266 39.583c5.449 2.768 9.184 6.982 9.287 12.912.179 10.081.2 29.239.062 57.473-.124 27.022 6.728 35.865 33.452 35.823 12.506-.027 25.026.014 37.56.124.784 0 1.176.393 1.176 1.178.179 33.895.124 67.686-.165 101.374-.165 20.06-27.303 19.936-27.509-1.549-.234-24.323-.213-48.721.062-73.196a.955.955 0 0 0-.27-.678.98.98 0 0 0-.68-.293c-11.143-.144-23.773 1.157-33.823-2.045-27.406-8.697-37.106-29.935-37.126-56.978V241.31c0-.564-.255-.971-.764-1.219l-58.65-28.799c-1.128-.55-1.837-.213-2.126 1.013Zm277.505 29.294c-.55 19.117-.756 38.24-.619 57.371.186 25.576-15.808 47.268-40.902 52.288-8.379 1.673-19.709.806-29.346.95-.825.014-1.218.434-1.176 1.261.185 3.346-.434 6.487-.434 9.503-.055 21.155-.082 42.31-.082 63.465 0 16.692-19.729 23.097-25.858 8.201-.936-2.3-1.41-6.473-1.424-12.519a31927.33 31927.33 0 0 1-.021-95.9.96.96 0 0 1 .278-.672.957.957 0 0 1 .671-.278c11.942.083 23.939.083 35.991 0 22.949-.145 35.269-5.144 35.248-29.605v-62.308c-.014-6.225 2.738-10.708 8.255-13.449a15833.692 15833.692 0 0 0 76.542-38.343c12.589-6.342 21.298-6.425 26.023 8.553 30.811 97.697-10.628 199.175-101.698 245.451-4.857 2.465-8.764 3.664-11.722 3.595-9.369-.248-15.952-12.127-11.02-20.184 1.417-2.314 4.43-4.628 9.039-6.942 74.932-37.744 113.193-118.728 93.155-200.786a.876.876 0 0 0-.494-.594.914.914 0 0 0-.786.016l-58.526 29.212c-.715.358-1.08.929-1.094 1.714Z"/></svg>