<svg xmlns="http://www.w3.org/2000/svg" fill="none" viewBox="0 0 512 512"><path fill="#fff" d="M256 512c141.385 0 256-114.615 256-256S397.385 0 256 0 0 114.615 0 256s114.615 256 256 256Z"/><path fill="#122B60" fill-rule="evenodd" d="M403.021 256.512c0-81.494-66.096-147.558-147.628-147.558V55.296a202.31 202.31 0 0 1 40.571 4.088c91.734 18.763 160.74 99.89 160.74 197.128 0 111.129-90.13 201.216-201.311 201.216-87.653 0-162.221-55.992-189.857-134.144h58.325c24.435 47.778 74.162 80.486 131.532 80.486 81.532 0 147.628-66.063 147.628-147.558Zm-325.72-93.901c33.752 63.823 100.841 107.316 178.092 107.316v-53.658c-66.162 0-122.159-43.503-140.92-103.452A201.914 201.914 0 0 0 77.3 162.611Zm59.879-68.988c11.486 54.724 60.049 95.817 118.213 95.817 37.06 0 67.104 30.029 67.104 67.072 0 37.043-30.044 67.072-67.104 67.072H154.946c21.668 32.355 58.568 53.658 100.447 53.658 66.709 0 120.786-54.053 120.786-120.73s-54.077-120.73-120.786-120.73c-37.061 0-67.104-30.029-67.104-67.072v-1.964a200.814 200.814 0 0 0-51.109 26.877Z" clip-rule="evenodd"/></svg>