<svg xmlns="http://www.w3.org/2000/svg" fill="none" viewBox="0 0 512 512"><path fill="#5A5564" d="M431.091 94.945 415.834 110.2a215.977 215.977 0 0 1 0 291.496l15.257 15.256a237.793 237.793 0 0 0 0-322.364v.356Zm-320.839 1.322a215.978 215.978 0 0 1 291.496 0l15.256-15.256a237.792 237.792 0 0 0-322.365 0l15.613 15.256ZM95.962 401.85a215.979 215.979 0 0 1 0-291.344L80.705 95.25a237.793 237.793 0 0 0 0 322.364l15.257-15.764Zm305.583 14.086a215.98 215.98 0 0 1-291.497 0l-15.256 15.256a237.796 237.796 0 0 0 322.365 0l-15.612-15.256Z"/><path fill="#494949" fill-rule="evenodd" d="M431.091 94.945 415.834 110.2a215.977 215.977 0 0 1 0 291.496l15.257 15.256a237.793 237.793 0 0 0 0-322.364v.356Zm-320.839 1.322a215.978 215.978 0 0 1 291.496 0l15.256-15.256a237.792 237.792 0 0 0-322.365 0l15.613 15.256ZM95.962 401.85a215.979 215.979 0 0 1 0-291.344L80.705 95.25a237.793 237.793 0 0 0 0 322.364l15.257-15.764Zm305.583 14.086a215.98 215.98 0 0 1-291.497 0l-15.256 15.256a237.796 237.796 0 0 0 322.365 0l-15.612-15.256Z" clip-rule="evenodd"/><path fill="#F5AC3A" fill-rule="evenodd" d="M382.258 218.843c6.066-37.45-22.238-57.959-61.12-72.133l13.175-50.306-30.815-8.07-12.93 49.372-24.627-6.449 12.93-49.373-30.581-8.009-13.266 50.657-62.504-16.369-8.635 32.973s22.867 5.552 22.41 5.869a16.466 16.466 0 0 1 13.962 18.125l-36.314 138.663a11.161 11.161 0 0 1-5.707 6.55 11.04 11.04 0 0 1-8.64.606c.317.457-22.41-5.869-22.41-5.869l-15.48 35.297 61.92 16.216-13.48 51.474 30.814 8.069 13.281-50.714 24.628 6.449-13.22 50.482 30.872 8.085 13.328-50.89c52.882 10.482 92.544 7.149 109.858-40.389 13.948-38.255.091-60.593-27.531-75.373 20.224-4.12 35.592-17.557 40.082-44.943ZM232.79 260.458 215 328.389c1.713.449 3.718 1.006 5.962 1.628 25.132 6.976 80.203 22.262 89.407-12.884 9.397-35.883-43.759-48.555-69.842-54.773l-.003-.001c-2.974-.709-5.597-1.335-7.734-1.901Zm24.329-92.66-16.17 61.745c1.492.391 3.25.885 5.224 1.439l.005.002c21.042 5.911 66.575 18.704 74.958-13.306 8.596-32.82-36.027-43.274-57.726-48.358-2.416-.566-4.548-1.065-6.291-1.522Z" clip-rule="evenodd"/><path fill="#F5AC3A" fill-rule="evenodd" d="M321.138 146.71c38.882 14.174 67.186 34.683 61.12 72.133-4.49 27.386-19.858 40.823-40.082 44.943 27.622 14.78 41.479 37.118 27.531 75.373-17.314 47.538-56.976 50.871-109.858 40.389l-13.328 50.89-30.872-8.085 13.22-50.482-24.628-6.449-13.281 50.714-30.814-8.069 13.48-51.474-61.92-16.216 15.48-35.297s22.727 6.326 22.41 5.869a11.04 11.04 0 0 0 8.64-.606 11.16 11.16 0 0 0 5.707-6.55l36.314-138.663a16.466 16.466 0 0 0-13.962-18.125c.457-.317-22.41-5.869-22.41-5.869l8.635-32.973 62.504 16.369 13.266-50.657 30.581 8.009-12.93 49.373 24.627 6.449 12.93-49.372 30.815 8.07-13.175 50.306ZM215 328.389l17.79-67.931c2.137.566 4.76 1.192 7.734 1.901l.003.001c26.083 6.218 79.239 18.89 69.842 54.773-9.204 35.146-64.275 19.86-89.407 12.884-2.244-.622-4.249-1.179-5.962-1.628Zm42.119-160.591-16.17 61.745c1.492.391 3.25.885 5.224 1.439l.005.002c21.042 5.911 66.575 18.704 74.958-13.306 8.596-32.82-36.027-43.274-57.726-48.358-2.416-.566-4.548-1.065-6.291-1.522Z" clip-rule="evenodd"/><path fill="#fff" fill-rule="evenodd" d="M255.797 0a256 256 0 0 0-49.728 507.083A255.997 255.997 0 0 0 353.85 19.438 256.002 256.002 0 0 0 255.797 0Zm160.037 110.201 15.257-15.256v-.356a237.794 237.794 0 0 1 0 322.364l-15.257-15.256a215.977 215.977 0 0 0 0-291.496ZM256 39.675a215.978 215.978 0 0 0-145.748 56.592L94.64 81.01a237.795 237.795 0 0 1 322.364 0l-15.256 15.256A215.978 215.978 0 0 0 256 39.675ZM39.44 256.178c0 53.91 20.161 105.87 56.522 145.672l-15.257 15.764a237.792 237.792 0 0 1 0-322.364l15.257 15.256A215.977 215.977 0 0 0 39.44 256.178Zm216.357 216.35a215.98 215.98 0 0 0 145.748-56.592l15.612 15.256a237.794 237.794 0 0 1-322.365 0l15.256-15.256a215.98 215.98 0 0 0 145.749 56.592Zm65.341-325.818c38.882 14.174 67.186 34.683 61.12 72.133-4.49 27.386-19.858 40.823-40.082 44.943 27.622 14.78 41.479 37.118 27.531 75.373-17.314 47.538-56.976 50.871-109.858 40.389l-13.328 50.89-30.872-8.085 13.22-50.482-24.628-6.449-13.281 50.714-30.814-8.069 13.48-51.474-61.92-16.216 15.48-35.297s22.727 6.326 22.41 5.869a11.04 11.04 0 0 0 8.64-.606 11.16 11.16 0 0 0 5.707-6.55l36.314-138.663a16.466 16.466 0 0 0-13.962-18.125c.457-.317-22.41-5.869-22.41-5.869l8.635-32.973 62.504 16.369 13.266-50.657 30.581 8.009-12.93 49.373 24.627 6.449 12.93-49.372 30.815 8.07-13.175 50.306Z" clip-rule="evenodd"/><path fill="#fff" d="m240.949 229.543 16.17-61.745c1.743.457 3.875.956 6.291 1.522 21.699 5.084 66.322 15.538 57.726 48.358-8.383 32.01-53.916 19.217-74.958 13.306l-.005-.002c-1.974-.554-3.732-1.048-5.224-1.439ZM215 328.389l17.79-67.931c2.137.566 4.76 1.192 7.734 1.901l.003.001c26.083 6.218 79.239 18.89 69.842 54.773-9.204 35.146-64.275 19.86-89.407 12.884-2.244-.622-4.249-1.179-5.962-1.628Z"/></svg>