<svg xmlns="http://www.w3.org/2000/svg" fill="none" viewBox="0 0 512 512"><path fill="#000" d="M256 512c141.385 0 256-114.615 256-256S397.385 0 256 0 0 114.615 0 256s114.615 256 256 256Z"/><path fill="#fff" fill-rule="evenodd" d="M207.456 158.261C192.797 148.087 175.27 143 154.875 143c-20.394 0-37.921 5.087-52.58 15.261-14.659 9.962-25.706 23.739-33.142 41.331C61.718 217.185 58 237.321 58 260c0 22.679 3.718 42.815 11.153 60.408 7.436 17.592 18.483 31.475 33.142 41.649 14.659 9.962 32.186 14.943 52.58 14.943 20.395 0 37.922-4.981 52.581-14.943 14.658-10.174 25.706-24.057 33.141-41.649 7.436-17.593 11.154-37.729 11.154-60.408 0-22.679-3.718-42.815-11.154-60.408-7.435-17.592-18.483-31.369-33.141-41.331Zm-24.976 39.182c-7.122-7.469-16.324-11.204-27.605-11.204-15.083 0-26.555 6.677-34.416 20.03-7.648 13.353-11.472 31.264-11.472 53.731 0 14.104 1.507 26.413 4.521 36.925l68.972-99.482Zm-55.412 125.089c7.244 7.486 16.513 11.229 27.807 11.229 15.084 0 26.45-6.677 34.098-20.03 7.86-13.353 11.791-31.264 11.791-53.731 0-14.148-1.559-26.488-4.675-37.021l-69.021 99.553Z" clip-rule="evenodd"/><path fill="#fff" d="m312.258 284.163-59.91 87.75h57.36l28.043-49.598c2.125-3.391 3.399-7.842 3.824-13.353.213-2.12.638-3.709 1.275-4.769.637-1.272 1.912-1.908 3.824-1.908 2.974 0 4.674 1.908 5.099 5.723v.954c.425 5.511 1.699 9.962 3.824 13.353l28.043 49.598H441l-59.91-87.75 54.811-80.12h-57.36l-22.944 41.65c-2.55 4.451-3.824 8.902-3.824 13.353 0 1.908-.425 3.497-1.275 4.769-.637 1.272-1.912 1.908-3.824 1.908s-3.293-.636-4.143-1.908c-.637-1.272-.956-2.861-.956-4.769 0-4.451-1.274-8.902-3.824-13.353l-22.944-41.65h-57.36l54.811 80.12Z"/></svg>