<svg xmlns="http://www.w3.org/2000/svg" fill="none" viewBox="0 0 512 512"><g clip-path="url(#clip0_4190_2984)"><rect width="512" height="512" fill="#000" rx="256"/><mask id="path-2-outside-1_4190_2984" width="489" height="467" x="46.32" y="86.256" fill="#000" maskUnits="userSpaceOnUse"><path fill="#fff" d="M46.32 86.256h489v467h-489z"/><path d="m167.988 339.987 12.408-93.433-107.622-74.88 98.333 33.384 23.223-35.711 84.796-52.735 186.912 103.209 9.687 157.473-83.271 115.977-65.82 10.108 34.038-62.444v-60.117l-24.749-46.949-25.147-16.692-38.683 39.967v42.294l-30.19 28.33-38.351 4.655-16.986 9.642-27.867-8.911-11.611-41.895 20.9-29.46v-21.812Z"/><path d="M339.838 170.876c-20.503-4.256-42.93-3.125-42.93-3.125s-7.365 34.115-53.014 43.092c.332 0 60.313 20.549 95.944-39.967Zm18.578 309.56c24.749-19.418 43.327-46.151 51.887-76.409.398-1.131 3.848-3.126 6.17-4.655 3.849-2.328 7.763-4.256 8.493-7.382a164.007 164.007 0 0 0 2.322-27.531c0-3.458-3.516-6.982-6.966-10.44-2.721-2.328-5.441-5.054-5.441-6.983-3.849-35.312-20.105-68.296-46.048-92.303l-2.72 2.727c25.147 23.674 41.403 55.86 44.919 89.975.399 3.126 3.451 6.185 6.569 9.31 2.721 2.328 5.839 5.852 5.839 7.382 0 8.911-.796 17.822-2.322 26.733-.398 1.529-3.849 3.125-6.569 4.655-3.848 1.928-7.365 3.857-8.095 6.982-9.289 32.985-30.588 61.713-58.853 80.333 5.042-10.84 20.9-46.151 29.393-64.04l-1.526-57.39-49.166-47.681-27.867 3.857-30.588 49.676s14.331 18.221-5.839 39.568c-19.707 20.948-35.233 25.603-35.233 25.603l-14.332-7.781c4.247-5.453 12.806-13.566 19.375-19.019 11.213-9.31 22.427-10.108 22.427-20.15.464-21.014-22.029-15.228-22.029-15.228l-8.161 7.78-3.45 28.728-16.986 21.347-1.924-.399-27.868-6.184s17.052-8.911 19.773-19.02c2.72-9.709-5.441-41.895-5.839-43.823.398.399 8.161 6.982 11.611 17.822 6.171-17.091 14.332-33.383 16.654-34.913 2.323-1.529 33.64-18.221 33.64-18.221l-10.417 27.531 7.763-4.256 18.579-45.752s18.18-8.911 31.716-8.911c24.35-.399 60.379-30.258 44.123-83.791 4.645 1.929 85.129 42.294 99.062 121.43 10.418 60.848-24.019 117.839-82.076 150.823Zm-92.095-301.048c8.891-10.507 5.44-26.001 5.44-26.001l-25.943 38.437c-.398 0 9.223.399 20.503-12.436Z"/><path d="m179.201 389.264 3.119-15.495s-12.806 22.477-13.934 25.603c-1.194 3.524.796 9.709 5.773 9.31 5.042-.399 11.213-7.781 11.213-13.167 0-6.983-6.171-6.251-6.171-6.251Z"/><path d="M409.108 142.547s19.375.798 39.479 3.126c-45.318-35.711-88.247-46.152-123.081-46.152-47.972 0-80.484 19.817-82.475 20.948l15.128-24.073s-60.379-5.852-81.678 58.188c-5.441-13.566-10.417-33.384-10.417-33.384s-31.384 27.598-16.654 73.35c-36.029-13.167-87.451-31.454-89.442-31.787-2.72-.399-3.516.798-3.516.798s-.796 1.131 1.526 3.126c4.313 3.391 85.593 63.574 103.441 75.212-3.848 13.965-3.848 20.548 0 27.132 5.441 8.911 5.773 13.566 5.043 20.15-.796 6.583-7.763 63.641-9.289 70.623-1.526 6.983-17.782 31.787-17.052 39.169.796 7.382 10.815 38.77 19.772 42.294 6.569 2.328 22.825 7.382 33.64 7.382 3.849 0 7.365-.798 8.891-2.328 6.569-5.785 8.493-6.982 13.138-6.982h1.128c1.924 0 4.246.399 6.967.399 6.17 0 14.332-1.197 20.104-6.584 8.493-8.512 23.223-20.149 27.868-25.602 5.839-7.382 8.891-17.424 7.365-27.532-1.195-9.31 3.848-17.489 9.687-25.602 7.365-9.709 20.901-27.133 20.901-27.133 26.739 20.084 43.393 50.74 43.393 84.855 0 60.516-52.616 109.393-117.64 109.393-10.086 0-19.707-1.13-29.394-3.458 29.792 10.441 54.939 13.965 75.508 13.965 43.725 0 66.948-15.893 66.948-15.893s-8.095 10.507-21.299 22.477c72.389-10.108 108.02-69.826 108.02-69.826s-2.721 19.419-6.171 32.586c96.276-72.552 80.02-163.325 79.622-166.385.796 1.131 10.483 12.769 15.459 19.02 15.527-159.868-114.92-211.472-114.92-211.472ZM260.88 397.842c-1.526 1.929-8.095 7.781-12.74 12.037-4.644 4.256-9.687 8.512-13.535 12.436-1.526 1.529-4.645 2.327-9.289 2.327h-11.612c5.839-7.78 22.825-25.603 28.664-29.46 6.967-4.655 10.483-9.31 6.17-17.423-4.246-8.179-15.459-6.184-15.459-6.184s6.568-2.727 12.407-2.727c-7.365-1.928-16.654 0-20.9 4.256-4.645 4.256-3.849 19.418-5.773 29.061-1.924 10.108-8.493 15.162-18.578 24.472-5.441 5.054-9.289 6.584-12.408 6.584-6.569-1.131-14.332-3.126-19.773-5.054-3.848-5.054-9.687-21.746-11.213-28.729 1.128-3.857 5.773-12.036 8.095-16.691 4.645-8.911 7.365-13.965 8.161-18.62 1.526-6.584 6.569-47.349 8.493-64.373 5.043 6.584 12.01 17.49 10.417 24.472 11.214-15.893 3.119-31.454-.796-37.639-3.45-6.184-8.095-18.62-4.246-31.787 3.848-13.167 17.782-49.676 17.782-49.676s4.644 8.18 11.213 6.584c6.569-1.53 59.583-81.464 59.583-81.464s14.332 31.389-.796 54.331c-15.46 22.877-30.588 27.133-30.588 27.133s21.299 3.857 41.005-10.508c8.095 19.02 15.858 38.77 16.256 41.497-1.194 2.726-16.654 39.967-18.18 42.294-.796.798-6.171 2.328-10.085 3.126-6.569 1.928-10.417 3.125-12.01 4.256-2.72 2.327-15.128 36.442-20.9 53.134-6.967 1.928-13.934 5.852-18.977 13.566 2.721-1.929 11.213-3.126 17.45-3.857 5.441-.399 22.029 8.512 26.342 25.203v.798c.862 6.118-1.062 11.97-4.18 16.625Zm-36.361 4.655c3.517-5.054 3.119-13.566 3.517-16.292.398-2.727 1.128-7.781 4.246-8.512 3.119-.798 10.484.399 10.484 5.785 0 5.054-5.441 6.185-9.289 9.709-2.787 2.66-8.228 8.512-8.958 9.31Zm154.399-74.148c3.849-19.75 4.247-36.841 3.119-50.806 15.062 20.15 24.351 44.622 27.071 69.826.398 3.125 3.451 6.184 6.569 9.31 2.72 2.327 5.839 5.453 5.839 7.381 0 8.911-.796 17.822-2.322 26.8-.398 1.13-3.849 3.125-6.569 4.655-3.848 1.928-7.365 3.857-8.095 6.982-8.493 29.859-26.74 56.26-51.09 74.88 35.962-37.639 53.346-99.751 25.478-149.028Zm-24.35 152.486c25.147-19.418 44.521-46.55 53.014-77.207.398-1.131 3.849-3.126 6.171-4.655 3.848-1.929 7.763-4.256 8.493-7.382a164.007 164.007 0 0 0 2.322-27.531c0-3.458-3.517-6.982-6.967-10.44-1.924-2.328-5.042-5.054-5.042-6.983-3.119-28.329-14.332-55.062-31.716-77.207-7.763-46.55-38.683-60.914-39.479-61.313.796 1.197 20.9 30.257 6.967 64.372-14.332 34.514-51.091 29.127-54.209 29.46-3.119 0-15.062 15.494-30.19 44.223-1.924-.798-10.085-2.727-19.375-1.131 6.967-19.418 17.451-46.949 19.375-49.277.796-.798 6.569-2.327 10.483-3.458 7.365-1.928 10.816-3.125 12.01-4.655.796-1.197 4.645-10.108 8.493-19.418 3.517 0 12.408-.798 13.137-1.197.797-.798 8.162-19.751 8.162-22.078 0-1.929-15.128-39.568-20.901-53.932 2.72-3.126 5.441-6.983 8.095-11.239 79.356 8.579 141.328 76.077 141.328 157.873 0 62.842-36.759 117.572-90.171 143.175Z"/><path d="M251.591 271.359c7.365-8.513 3.516-24.406-10.086-27.133 3.517-8.113 8.493-24.405 8.493-24.405s-39.479 62.045-42.929 63.242c-3.517 1.197-6.967-12.436-6.967-12.436-7.365 28.329 12.408 32.186 14.73 23.275 10.815-2.793 29.394-14.43 36.759-22.543Z"/><path d="m217.884 286.454 20.105-34.514s11.611 5.852 5.772 15.162c-7.298 10.84-25.877 19.352-25.877 19.352Zm248.883 159.867c-5.839 7.781-12.407 15.894-20.104 23.675 49.896-96.227 2.322-184.273.398-187.731 3.517 3.524 6.967 7.381 10.085 10.839 38.285 42.627 42.93 106.667 9.621 153.217Zm46.446-123.757c-17.45-46.949-42.199-86.916-96.74-122.96-52.616-34.912-109.147-32.186-112.266-31.787h-.796c1.924-.798 3.848-1.197 5.772-1.529 12.01-3.857 27.47-6.983 42.996-8.911 41.071-5.919 82.474 8.046 110.74 37.971l.796.798c32.114 34.115 48.768 76.742 49.498 126.418ZM404.066 130.51c-57.66-10.839-94.816-5.453-121.556 4.656-.796-3.126-3.516-9.311-5.839-14.365-8.028 9.709-16.587 21.347-21.962 28.729-14.73 10.108-20.901 19.817-20.901 19.817 8.493-29.127 33.309-50.807 63.499-56.26 8.492-1.529 17.782-2.327 27.867-2.327 26.673.399 53.346 6.982 78.892 19.75Zm-213.253 74.481c-45.252-1.529-30.19-54.331-29.394-57.39 0 .399 3.053 41.496 29.394 57.39Zm44.522-95.029c-34.835 20.947-27.868 70.956-27.868 70.956-33.308-50.74 25.147-69.759 27.868-70.956Zm-57.262 108.994c2.323 1.929 4.645 5.453 1.925 10.507-1.526 2.727-3.849 2.328-7.365.798-4.645-2.327-32.512-18.62-57.659-35.312 28.663 10.109 57.659 20.948 62.303 23.276 0 0 .398.399.796.731Z"/></mask><path fill="#fff" d="m167.988 339.987 12.408-93.433-107.622-74.88 98.333 33.384 23.223-35.711 84.796-52.735 186.912 103.209 9.687 157.473-83.271 115.977-65.82 10.108 34.038-62.444v-60.117l-24.749-46.949-25.147-16.692-38.683 39.967v42.294l-30.19 28.33-38.351 4.655-16.986 9.642-27.867-8.911-11.611-41.895 20.9-29.46v-21.812Z"/><path fill="#94A6C3" d="M339.838 170.876c-20.503-4.256-42.93-3.125-42.93-3.125s-7.365 34.115-53.014 43.092c.332 0 60.313 20.549 95.944-39.967Zm18.578 309.56c24.749-19.418 43.327-46.151 51.887-76.409.398-1.131 3.848-3.126 6.17-4.655 3.849-2.328 7.763-4.256 8.493-7.382a164.007 164.007 0 0 0 2.322-27.531c0-3.458-3.516-6.982-6.966-10.44-2.721-2.328-5.441-5.054-5.441-6.983-3.849-35.312-20.105-68.296-46.048-92.303l-2.72 2.727c25.147 23.674 41.403 55.86 44.919 89.975.399 3.126 3.451 6.185 6.569 9.31 2.721 2.328 5.839 5.852 5.839 7.382 0 8.911-.796 17.822-2.322 26.733-.398 1.529-3.849 3.125-6.569 4.655-3.848 1.928-7.365 3.857-8.095 6.982-9.289 32.985-30.588 61.713-58.853 80.333 5.042-10.84 20.9-46.151 29.393-64.04l-1.526-57.39-49.166-47.681-27.867 3.857-30.588 49.676s14.331 18.221-5.839 39.568c-19.707 20.948-35.233 25.603-35.233 25.603l-14.332-7.781c4.247-5.453 12.806-13.566 19.375-19.019 11.213-9.31 22.427-10.108 22.427-20.15.464-21.014-22.029-15.228-22.029-15.228l-8.161 7.78-3.45 28.728-16.986 21.347-1.924-.399-27.868-6.184s17.052-8.911 19.773-19.02c2.72-9.709-5.441-41.895-5.839-43.823.398.399 8.161 6.982 11.611 17.822 6.171-17.091 14.332-33.383 16.654-34.913 2.323-1.529 33.64-18.221 33.64-18.221l-10.417 27.531 7.763-4.256 18.579-45.752s18.18-8.911 31.716-8.911c24.35-.399 60.379-30.258 44.123-83.791 4.645 1.929 85.129 42.294 99.062 121.43 10.418 60.848-24.019 117.839-82.076 150.823Z"/><path fill="#12243D" d="M266.321 179.388c8.891-10.507 5.44-26.001 5.44-26.001l-25.943 38.437c-.398 0 9.223.399 20.503-12.436Zm-87.12 209.876 3.119-15.495s-12.806 22.477-13.934 25.603c-1.194 3.524.796 9.709 5.773 9.31 5.042-.399 11.213-7.781 11.213-13.167 0-6.983-6.171-6.251-6.171-6.251Z"/><path fill="#12243D" d="M409.108 142.547s19.375.798 39.479 3.126c-45.318-35.711-88.247-46.152-123.081-46.152-47.972 0-80.484 19.817-82.475 20.948l15.128-24.073s-60.379-5.852-81.678 58.188c-5.441-13.566-10.417-33.384-10.417-33.384s-31.384 27.598-16.654 73.35c-36.029-13.167-87.451-31.454-89.442-31.787-2.72-.399-3.516.798-3.516.798s-.796 1.131 1.526 3.126c4.313 3.391 85.593 63.574 103.441 75.212-3.848 13.965-3.848 20.548 0 27.132 5.441 8.911 5.773 13.566 5.043 20.15-.796 6.583-7.763 63.641-9.289 70.623-1.526 6.983-17.782 31.787-17.052 39.169.796 7.382 10.815 38.77 19.772 42.294 6.569 2.328 22.825 7.382 33.64 7.382 3.849 0 7.365-.798 8.891-2.328 6.569-5.785 8.493-6.982 13.138-6.982h1.128c1.924 0 4.246.399 6.967.399 6.17 0 14.332-1.197 20.104-6.584 8.493-8.512 23.223-20.149 27.868-25.602 5.839-7.382 8.891-17.424 7.365-27.532-1.195-9.31 3.848-17.489 9.687-25.602 7.365-9.709 20.901-27.133 20.901-27.133 26.739 20.084 43.393 50.74 43.393 84.855 0 60.516-52.616 109.393-117.64 109.393-10.086 0-19.707-1.13-29.394-3.458 29.792 10.441 54.939 13.965 75.508 13.965 43.725 0 66.948-15.893 66.948-15.893s-8.095 10.507-21.299 22.477c72.389-10.108 108.02-69.826 108.02-69.826s-2.721 19.419-6.171 32.586c96.276-72.552 80.02-163.325 79.622-166.385.796 1.131 10.483 12.769 15.459 19.02 15.527-159.868-114.92-211.472-114.92-211.472ZM260.88 397.842c-1.526 1.929-8.095 7.781-12.74 12.037-4.644 4.256-9.687 8.512-13.535 12.436-1.526 1.529-4.645 2.327-9.289 2.327h-11.612c5.839-7.78 22.825-25.603 28.664-29.46 6.967-4.655 10.483-9.31 6.17-17.423-4.246-8.179-15.459-6.184-15.459-6.184s6.568-2.727 12.407-2.727c-7.365-1.928-16.654 0-20.9 4.256-4.645 4.256-3.849 19.418-5.773 29.061-1.924 10.108-8.493 15.162-18.578 24.472-5.441 5.054-9.289 6.584-12.408 6.584-6.569-1.131-14.332-3.126-19.773-5.054-3.848-5.054-9.687-21.746-11.213-28.729 1.128-3.857 5.773-12.036 8.095-16.691 4.645-8.911 7.365-13.965 8.161-18.62 1.526-6.584 6.569-47.349 8.493-64.373 5.043 6.584 12.01 17.49 10.417 24.472 11.214-15.893 3.119-31.454-.796-37.639-3.45-6.184-8.095-18.62-4.246-31.787 3.848-13.167 17.782-49.676 17.782-49.676s4.644 8.18 11.213 6.584c6.569-1.53 59.583-81.464 59.583-81.464s14.332 31.389-.796 54.331c-15.46 22.877-30.588 27.133-30.588 27.133s21.299 3.857 41.005-10.508c8.095 19.02 15.858 38.77 16.256 41.497-1.194 2.726-16.654 39.967-18.18 42.294-.796.798-6.171 2.328-10.085 3.126-6.569 1.928-10.417 3.125-12.01 4.256-2.72 2.327-15.128 36.442-20.9 53.134-6.967 1.928-13.934 5.852-18.977 13.566 2.721-1.929 11.213-3.126 17.45-3.857 5.441-.399 22.029 8.512 26.342 25.203v.798c.862 6.118-1.062 11.97-4.18 16.625Zm-36.361 4.655c3.517-5.054 3.119-13.566 3.517-16.292.398-2.727 1.128-7.781 4.246-8.512 3.119-.798 10.484.399 10.484 5.785 0 5.054-5.441 6.185-9.289 9.709-2.787 2.66-8.228 8.512-8.958 9.31Zm154.399-74.148c3.849-19.75 4.247-36.841 3.119-50.806 15.062 20.15 24.351 44.622 27.071 69.826.398 3.125 3.451 6.184 6.569 9.31 2.72 2.327 5.839 5.453 5.839 7.381 0 8.911-.796 17.822-2.322 26.8-.398 1.13-3.849 3.125-6.569 4.655-3.848 1.928-7.365 3.857-8.095 6.982-8.493 29.859-26.74 56.26-51.09 74.88 35.962-37.639 53.346-99.751 25.478-149.028Zm-24.35 152.486c25.147-19.418 44.521-46.55 53.014-77.207.398-1.131 3.849-3.126 6.171-4.655 3.848-1.929 7.763-4.256 8.493-7.382a164.007 164.007 0 0 0 2.322-27.531c0-3.458-3.517-6.982-6.967-10.44-1.924-2.328-5.042-5.054-5.042-6.983-3.119-28.329-14.332-55.062-31.716-77.207-7.763-46.55-38.683-60.914-39.479-61.313.796 1.197 20.9 30.257 6.967 64.372-14.332 34.514-51.091 29.127-54.209 29.46-3.119 0-15.062 15.494-30.19 44.223-1.924-.798-10.085-2.727-19.375-1.131 6.967-19.418 17.451-46.949 19.375-49.277.796-.798 6.569-2.327 10.483-3.458 7.365-1.928 10.816-3.125 12.01-4.655.796-1.197 4.645-10.108 8.493-19.418 3.517 0 12.408-.798 13.137-1.197.797-.798 8.162-19.751 8.162-22.078 0-1.929-15.128-39.568-20.901-53.932 2.72-3.126 5.441-6.983 8.095-11.239 79.356 8.579 141.328 76.077 141.328 157.873 0 62.842-36.759 117.572-90.171 143.175Z"/><path fill="#12243D" d="M251.591 271.359c7.365-8.513 3.516-24.406-10.086-27.133 3.517-8.113 8.493-24.405 8.493-24.405s-39.479 62.045-42.929 63.242c-3.517 1.197-6.967-12.436-6.967-12.436-7.365 28.329 12.408 32.186 14.73 23.275 10.815-2.793 29.394-14.43 36.759-22.543Z"/><path fill="#FFD923" d="m217.884 286.454 20.105-34.514s11.611 5.852 5.772 15.162c-7.298 10.84-25.877 19.352-25.877 19.352Z"/><path fill="#D82122" d="M466.767 446.321c-5.839 7.781-12.407 15.894-20.104 23.675 49.896-96.227 2.322-184.273.398-187.731 3.517 3.524 6.967 7.381 10.085 10.839 38.285 42.627 42.93 106.667 9.621 153.217Zm46.446-123.757c-17.45-46.949-42.199-86.916-96.74-122.96-52.616-34.912-109.147-32.186-112.266-31.787h-.796c1.924-.798 3.848-1.197 5.772-1.529 12.01-3.857 27.47-6.983 42.996-8.911 41.071-5.919 82.474 8.046 110.74 37.971l.796.798c32.114 34.115 48.768 76.742 49.498 126.418ZM404.066 130.51c-57.66-10.839-94.816-5.453-121.556 4.656-.796-3.126-3.516-9.311-5.839-14.365-8.028 9.709-16.587 21.347-21.962 28.729-14.73 10.108-20.901 19.817-20.901 19.817 8.493-29.127 33.309-50.807 63.499-56.26 8.492-1.529 17.782-2.327 27.867-2.327 26.673.399 53.346 6.982 78.892 19.75Zm-213.253 74.481c-45.252-1.529-30.19-54.331-29.394-57.39 0 .399 3.053 41.496 29.394 57.39Zm44.522-95.029c-34.835 20.947-27.868 70.956-27.868 70.956-33.308-50.74 25.147-69.759 27.868-70.956Z"/><path fill="#fff" d="M178.073 218.956c2.323 1.929 4.645 5.453 1.925 10.507-1.526 2.727-3.849 2.328-7.365.798-4.645-2.327-32.512-18.62-57.659-35.312 28.663 10.109 57.659 20.948 62.303 23.276 0 0 .398.399.796.731Z"/><path stroke="#fff" stroke-width="20" d="m167.988 339.987 12.408-93.433-107.622-74.88 98.333 33.384 23.223-35.711 84.796-52.735 186.912 103.209 9.687 157.473-83.271 115.977-65.82 10.108 34.038-62.444v-60.117l-24.749-46.949-25.147-16.692-38.683 39.967v42.294l-30.19 28.33-38.351 4.655-16.986 9.642-27.867-8.911-11.611-41.895 20.9-29.46v-21.812Z" mask="url(#path-2-outside-1_4190_2984)"/><path stroke="#fff" stroke-width="20" d="M339.838 170.876c-20.503-4.256-42.93-3.125-42.93-3.125s-7.365 34.115-53.014 43.092c.332 0 60.313 20.549 95.944-39.967Zm18.578 309.56c24.749-19.418 43.327-46.151 51.887-76.409.398-1.131 3.848-3.126 6.17-4.655 3.849-2.328 7.763-4.256 8.493-7.382a164.007 164.007 0 0 0 2.322-27.531c0-3.458-3.516-6.982-6.966-10.44-2.721-2.328-5.441-5.054-5.441-6.983-3.849-35.312-20.105-68.296-46.048-92.303l-2.72 2.727c25.147 23.674 41.403 55.86 44.919 89.975.399 3.126 3.451 6.185 6.569 9.31 2.721 2.328 5.839 5.852 5.839 7.382 0 8.911-.796 17.822-2.322 26.733-.398 1.529-3.849 3.125-6.569 4.655-3.848 1.928-7.365 3.857-8.095 6.982-9.289 32.985-30.588 61.713-58.853 80.333 5.042-10.84 20.9-46.151 29.393-64.04l-1.526-57.39-49.166-47.681-27.867 3.857-30.588 49.676s14.331 18.221-5.839 39.568c-19.707 20.948-35.233 25.603-35.233 25.603l-14.332-7.781c4.247-5.453 12.806-13.566 19.375-19.019 11.213-9.31 22.427-10.108 22.427-20.15.464-21.014-22.029-15.228-22.029-15.228l-8.161 7.78-3.45 28.728-16.986 21.347-1.924-.399-27.868-6.184s17.052-8.911 19.773-19.02c2.72-9.709-5.441-41.895-5.839-43.823.398.399 8.161 6.982 11.611 17.822 6.171-17.091 14.332-33.383 16.654-34.913 2.323-1.529 33.64-18.221 33.64-18.221l-10.417 27.531 7.763-4.256 18.579-45.752s18.18-8.911 31.716-8.911c24.35-.399 60.379-30.258 44.123-83.791 4.645 1.929 85.129 42.294 99.062 121.43 10.418 60.848-24.019 117.839-82.076 150.823Zm-92.095-301.048c8.891-10.507 5.44-26.001 5.44-26.001l-25.943 38.437c-.398 0 9.223.399 20.503-12.436Z" mask="url(#path-2-outside-1_4190_2984)"/><path stroke="#fff" stroke-width="20" d="m179.201 389.264 3.119-15.495s-12.806 22.477-13.934 25.603c-1.194 3.524.796 9.709 5.773 9.31 5.042-.399 11.213-7.781 11.213-13.167 0-6.983-6.171-6.251-6.171-6.251Z" mask="url(#path-2-outside-1_4190_2984)"/><path stroke="#fff" stroke-width="20" d="M409.108 142.547s19.375.798 39.479 3.126c-45.318-35.711-88.247-46.152-123.081-46.152-47.972 0-80.484 19.817-82.475 20.948l15.128-24.073s-60.379-5.852-81.678 58.188c-5.441-13.566-10.417-33.384-10.417-33.384s-31.384 27.598-16.654 73.35c-36.029-13.167-87.451-31.454-89.442-31.787-2.72-.399-3.516.798-3.516.798s-.796 1.131 1.526 3.126c4.313 3.391 85.593 63.574 103.441 75.212-3.848 13.965-3.848 20.548 0 27.132 5.441 8.911 5.773 13.566 5.043 20.15-.796 6.583-7.763 63.641-9.289 70.623-1.526 6.983-17.782 31.787-17.052 39.169.796 7.382 10.815 38.77 19.772 42.294 6.569 2.328 22.825 7.382 33.64 7.382 3.849 0 7.365-.798 8.891-2.328 6.569-5.785 8.493-6.982 13.138-6.982h1.128c1.924 0 4.246.399 6.967.399 6.17 0 14.332-1.197 20.104-6.584 8.493-8.512 23.223-20.149 27.868-25.602 5.839-7.382 8.891-17.424 7.365-27.532-1.195-9.31 3.848-17.489 9.687-25.602 7.365-9.709 20.901-27.133 20.901-27.133 26.739 20.084 43.393 50.74 43.393 84.855 0 60.516-52.616 109.393-117.64 109.393-10.086 0-19.707-1.13-29.394-3.458 29.792 10.441 54.939 13.965 75.508 13.965 43.725 0 66.948-15.893 66.948-15.893s-8.095 10.507-21.299 22.477c72.389-10.108 108.02-69.826 108.02-69.826s-2.721 19.419-6.171 32.586c96.276-72.552 80.02-163.325 79.622-166.385.796 1.131 10.483 12.769 15.459 19.02 15.527-159.868-114.92-211.472-114.92-211.472ZM260.88 397.842c-1.526 1.929-8.095 7.781-12.74 12.037-4.644 4.256-9.687 8.512-13.535 12.436-1.526 1.529-4.645 2.327-9.289 2.327h-11.612c5.839-7.78 22.825-25.603 28.664-29.46 6.967-4.655 10.483-9.31 6.17-17.423-4.246-8.179-15.459-6.184-15.459-6.184s6.568-2.727 12.407-2.727c-7.365-1.928-16.654 0-20.9 4.256-4.645 4.256-3.849 19.418-5.773 29.061-1.924 10.108-8.493 15.162-18.578 24.472-5.441 5.054-9.289 6.584-12.408 6.584-6.569-1.131-14.332-3.126-19.773-5.054-3.848-5.054-9.687-21.746-11.213-28.729 1.128-3.857 5.773-12.036 8.095-16.691 4.645-8.911 7.365-13.965 8.161-18.62 1.526-6.584 6.569-47.349 8.493-64.373 5.043 6.584 12.01 17.49 10.417 24.472 11.214-15.893 3.119-31.454-.796-37.639-3.45-6.184-8.095-18.62-4.246-31.787 3.848-13.167 17.782-49.676 17.782-49.676s4.644 8.18 11.213 6.584c6.569-1.53 59.583-81.464 59.583-81.464s14.332 31.389-.796 54.331c-15.46 22.877-30.588 27.133-30.588 27.133s21.299 3.857 41.005-10.508c8.095 19.02 15.858 38.77 16.256 41.497-1.194 2.726-16.654 39.967-18.18 42.294-.796.798-6.171 2.328-10.085 3.126-6.569 1.928-10.417 3.125-12.01 4.256-2.72 2.327-15.128 36.442-20.9 53.134-6.967 1.928-13.934 5.852-18.977 13.566 2.721-1.929 11.213-3.126 17.45-3.857 5.441-.399 22.029 8.512 26.342 25.203v.798c.862 6.118-1.062 11.97-4.18 16.625Zm-36.361 4.655c3.517-5.054 3.119-13.566 3.517-16.292.398-2.727 1.128-7.781 4.246-8.512 3.119-.798 10.484.399 10.484 5.785 0 5.054-5.441 6.185-9.289 9.709-2.787 2.66-8.228 8.512-8.958 9.31Zm154.399-74.148c3.849-19.75 4.247-36.841 3.119-50.806 15.062 20.15 24.351 44.622 27.071 69.826.398 3.125 3.451 6.184 6.569 9.31 2.72 2.327 5.839 5.453 5.839 7.381 0 8.911-.796 17.822-2.322 26.8-.398 1.13-3.849 3.125-6.569 4.655-3.848 1.928-7.365 3.857-8.095 6.982-8.493 29.859-26.74 56.26-51.09 74.88 35.962-37.639 53.346-99.751 25.478-149.028Zm-24.35 152.486c25.147-19.418 44.521-46.55 53.014-77.207.398-1.131 3.849-3.126 6.171-4.655 3.848-1.929 7.763-4.256 8.493-7.382a164.007 164.007 0 0 0 2.322-27.531c0-3.458-3.517-6.982-6.967-10.44-1.924-2.328-5.042-5.054-5.042-6.983-3.119-28.329-14.332-55.062-31.716-77.207-7.763-46.55-38.683-60.914-39.479-61.313.796 1.197 20.9 30.257 6.967 64.372-14.332 34.514-51.091 29.127-54.209 29.46-3.119 0-15.062 15.494-30.19 44.223-1.924-.798-10.085-2.727-19.375-1.131 6.967-19.418 17.451-46.949 19.375-49.277.796-.798 6.569-2.327 10.483-3.458 7.365-1.928 10.816-3.125 12.01-4.655.796-1.197 4.645-10.108 8.493-19.418 3.517 0 12.408-.798 13.137-1.197.797-.798 8.162-19.751 8.162-22.078 0-1.929-15.128-39.568-20.901-53.932 2.72-3.126 5.441-6.983 8.095-11.239 79.356 8.579 141.328 76.077 141.328 157.873 0 62.842-36.759 117.572-90.171 143.175Z" mask="url(#path-2-outside-1_4190_2984)"/><path stroke="#fff" stroke-width="20" d="M251.591 271.359c7.365-8.513 3.516-24.406-10.086-27.133 3.517-8.113 8.493-24.405 8.493-24.405s-39.479 62.045-42.929 63.242c-3.517 1.197-6.967-12.436-6.967-12.436-7.365 28.329 12.408 32.186 14.73 23.275 10.815-2.793 29.394-14.43 36.759-22.543Z" mask="url(#path-2-outside-1_4190_2984)"/><path stroke="#fff" stroke-width="20" d="m217.884 286.454 20.105-34.514s11.611 5.852 5.772 15.162c-7.298 10.84-25.877 19.352-25.877 19.352Zm248.883 159.867c-5.839 7.781-12.407 15.894-20.104 23.675 49.896-96.227 2.322-184.273.398-187.731 3.517 3.524 6.967 7.381 10.085 10.839 38.285 42.627 42.93 106.667 9.621 153.217Zm46.446-123.757c-17.45-46.949-42.199-86.916-96.74-122.96-52.616-34.912-109.147-32.186-112.266-31.787h-.796c1.924-.798 3.848-1.197 5.772-1.529 12.01-3.857 27.47-6.983 42.996-8.911 41.071-5.919 82.474 8.046 110.74 37.971l.796.798c32.114 34.115 48.768 76.742 49.498 126.418ZM404.066 130.51c-57.66-10.839-94.816-5.453-121.556 4.656-.796-3.126-3.516-9.311-5.839-14.365-8.028 9.709-16.587 21.347-21.962 28.729-14.73 10.108-20.901 19.817-20.901 19.817 8.493-29.127 33.309-50.807 63.499-56.26 8.492-1.529 17.782-2.327 27.867-2.327 26.673.399 53.346 6.982 78.892 19.75Zm-213.253 74.481c-45.252-1.529-30.19-54.331-29.394-57.39 0 .399 3.053 41.496 29.394 57.39Zm44.522-95.029c-34.835 20.947-27.868 70.956-27.868 70.956-33.308-50.74 25.147-69.759 27.868-70.956Zm-57.262 108.994c2.323 1.929 4.645 5.453 1.925 10.507-1.526 2.727-3.849 2.328-7.365.798-4.645-2.327-32.512-18.62-57.659-35.312 28.663 10.109 57.659 20.948 62.303 23.276 0 0 .398.399.796.731Z" mask="url(#path-2-outside-1_4190_2984)"/></g><defs><clipPath id="clip0_4190_2984"><rect width="512" height="512" fill="#fff" rx="256"/></clipPath></defs></svg>