<svg xmlns="http://www.w3.org/2000/svg" fill="none" viewBox="0 0 512 512"><path fill="#000" fill-rule="evenodd" d="M512 256c0 141.385-114.615 256-256 256S0 397.385 0 256 114.615 0 256 0s256 114.615 256 256Z" clip-rule="evenodd"/><path fill="#5E65FF" d="M378.978 272.658 262.211 74.248a6.463 6.463 0 0 0-2.374-2.367 6.622 6.622 0 0 0-6.535-.041 6.463 6.463 0 0 0-2.404 2.337l-34.971 59.452a12.616 12.616 0 0 0-1.748 6.401c0 2.247.603 4.454 1.748 6.401l76.141 129.436a12.919 12.919 0 0 0 4.781 4.689 13.232 13.232 0 0 0 6.532 1.712h69.942a6.627 6.627 0 0 0 3.259-.865 6.475 6.475 0 0 0 2.387-2.344 6.313 6.313 0 0 0 .009-6.401ZM72.9 376.355l116.768-198.411a6.46 6.46 0 0 1 2.388-2.34 6.619 6.619 0 0 1 3.26-.856c1.144 0 2.269.295 3.26.856a6.464 6.464 0 0 1 2.387 2.34l34.989 59.399a12.655 12.655 0 0 1 1.748 6.411c0 2.249-.603 4.459-1.748 6.409l-76.14 129.436a12.902 12.902 0 0 1-4.771 4.69 13.215 13.215 0 0 1-6.525 1.711H78.557a6.615 6.615 0 0 1-3.285-.852 6.465 6.465 0 0 1-2.403-2.356 6.307 6.307 0 0 1-.869-3.223 6.306 6.306 0 0 1 .9-3.214Zm128.047 9.602h233.534a6.623 6.623 0 0 0 3.263-.86 6.475 6.475 0 0 0 2.386-2.348 6.301 6.301 0 0 0-.01-6.402l-34.934-59.434a12.926 12.926 0 0 0-4.781-4.689 13.245 13.245 0 0 0-6.532-1.712H241.592a13.239 13.239 0 0 0-6.531 1.712 12.925 12.925 0 0 0-4.783 4.689l-34.97 59.434a6.305 6.305 0 0 0-.01 6.402 6.47 6.47 0 0 0 2.387 2.348c.991.562 2.116.86 3.262.86Z"/></svg>