<svg xmlns="http://www.w3.org/2000/svg" fill="none" viewBox="0 0 512 512"><path fill="#000" fill-rule="evenodd" d="M512 256c0 141.385-114.615 256-256 256S0 397.385 0 256 114.615 0 256 0s256 114.615 256 256Z" clip-rule="evenodd"/><path fill="#8A89F1" stroke="#8A89F1" stroke-width="3" d="M174.129 247.481h-1.5c0 47.775 37.272 86.605 83.371 86.605s83.371-38.83 83.371-86.605h-3c0 43.223-35.947 78.327-80.371 78.327-44.424 0-80.371-35.104-80.371-78.327h-1.5Zm-14.377-.442c0-11.149 1.209-21.79 4.549-31.671l-1.421-.481-1.421-.48c-3.438 10.173-6.019 21.159-6.019 32.632 0 57.522 44.971 104.249 100.56 104.249 55.589 0 100.56-46.727 100.56-104.249 0-11.426-2.512-22.371-5.927-32.516l-1.421.479-1.422.478c3.314 9.845 4.458 20.446 4.458 31.559 0 52.962-43.064 94.793-96.248 94.793-53.184 0-96.248-41.831-96.248-94.793Zm199.263-58.32-1.306.737c9.609 17.035 14.438 36.755 14.438 57.811 0 62.955-51.945 112.281-116.148 112.281-64.202 0-116.147-49.326-116.147-112.281 0-21.089 4.899-40.841 14.54-57.897l-1.306-.738-1.306-.738c-9.887 17.491-16.242 37.754-16.242 59.373 0 67.92 53.903 123.034 120.461 123.034 66.56 0 120.463-55.114 120.463-123.034 0-21.58-6.283-41.811-16.14-59.285l-1.307.737ZM116.33 247.153c0-32.23 10.049-61.917 28.001-85.684l-1.197-.904-1.197-.904c-18.332 24.269-29.92 54.589-29.92 87.492 0 81.968 64.419 148.498 143.983 148.498 79.564 0 143.983-66.53 143.983-148.498 0-32.876-11.517-63.173-29.823-87.433l-1.197.903-1.198.904c17.925 23.755 27.905 53.42 27.905 85.626 0 75.925-62.489 136.069-139.67 136.069-77.181 0-139.67-60.144-139.67-136.069Zm307.631.283c0 91.41-75.149 163.132-167.961 163.132-92.812 0-167.962-71.722-167.962-163.132 0-62.793 33.149-117.603 83.535-146.95l-.755-1.296-.755-1.296c-51.269 29.861-86.995 85.637-86.995 149.542 0 97.822 77.389 177.187 172.932 177.187 95.542 0 172.932-79.365 172.932-177.187 0-64.042-35.821-119.92-87.274-149.734L340.906 99l-.752 1.298c50.565 29.3 83.807 84.209 83.807 147.138Zm34.539.045c0 109.94-90.57 192.464-202.5 192.464S53.5 357.421 53.5 247.481h-3C50.5 364.273 142.506 454.5 256 454.5s205.5-90.227 205.5-207.019h-3Z"/></svg>