<svg xmlns="http://www.w3.org/2000/svg" fill="none" viewBox="0 0 512 512"><path fill="#000" d="M256 512c141.385 0 256-114.615 256-256S397.385 0 256 0 0 114.615 0 256s114.615 256 256 256Z"/><path fill="#fff" d="M456.551 389.91c-.297-.214-257.314-129.674-257.314-129.674l-129.41 41.409c-.998.578-2.272.845-3.541.743-1.27-.102-2.432-.566-3.23-1.288-.798-.723-1.168-1.645-1.026-2.565.14-.92.78-1.761 1.778-2.339l69.219-90.445-69.219-98.073c-.402-.61-.533-1.295-.376-1.962.158-.666.597-1.28 1.258-1.759.66-.478 1.508-.796 2.428-.91a6.092 6.092 0 0 1 2.71.272l130.913 52.306 130.915-52.306a6.087 6.087 0 0 1 2.708-.272c.921.114 1.769.432 2.429.91.66.479 1.099 1.093 1.257 1.759.158.667.027 1.352-.375 1.962l-60.191 98.073L461 387s1.229 1.133.757 2.16c-.166.363-.396.536-.692.75a3.44 3.44 0 0 1-1.036.501 3.85 3.85 0 0 1-1.221.176c-.92-.005-2.257-.677-2.257-.677Z"/></svg>