<svg xmlns="http://www.w3.org/2000/svg" fill="none" viewBox="0 0 512 512"><path fill="#000" fill-rule="evenodd" d="M512 256c0 141.385-114.615 256-256 256S0 397.385 0 256 114.615 0 256 0s256 114.615 256 256Z" clip-rule="evenodd"/><path fill="#fff" d="M256.41 341.44 345.741 430l41.816-41.461L277.341 279.26a29.72 29.72 0 0 0-20.897-8.581 29.72 29.72 0 0 0-20.897 8.581L125.354 388.539 167.125 430l89.285-88.538v-.022ZM437 339.471l-89.285-88.538L437 162.373l-41.794-41.461-110.193 109.279a29.194 29.194 0 0 0-6.407 9.502 29.134 29.134 0 0 0 0 22.457 29.183 29.183 0 0 0 6.407 9.502l110.193 109.28L437 339.471ZM277.475 222.74l110.194-109.279L345.875 72l-89.285 88.56L167.26 72l-41.794 41.461L235.682 222.74c5.765 5.728 13.325 8.57 20.885 8.57 7.583 0 15.143-2.842 20.908-8.57Zm-49.488 49.069a29.227 29.227 0 0 0 6.401-9.504 29.162 29.162 0 0 0-6.401-31.957l-110.193-109.28L76 162.529l89.285 88.538L76 339.627l41.794 41.461 110.193-109.279Z"/></svg>