<svg xmlns="http://www.w3.org/2000/svg" fill="none" viewBox="0 0 512 512"><path fill="#000" d="M256 512c141.385 0 256-114.615 256-256S397.385 0 256 0 0 114.615 0 256s114.615 256 256 256Z"/><path fill="#fff" d="M342.363 290.043c57.692 10.647 96.933 31.604 96.933 55.724 0 34.904-82.071 63.164-183.296 63.164S72.704 380.656 72.704 345.767c0-24.12 39.256-45.077 96.933-55.724 25.066 6.507 54.668 10.249 86.363 10.249s61.297-3.742 86.363-10.234v-.015Zm-22.087-102.299c49.001 8.157 82.758 25.311 82.758 45.184 0 27.725-65.834 50.21-147.034 50.21-81.2 0-147.034-22.485-147.034-50.21 0-19.858 33.757-37.027 82.758-45.184 18.834 4.781 40.799 7.515 64.276 7.515 23.477 0 45.442-2.749 64.276-7.515Zm-63.604-84.32c60.809 0 110.115 17.017 110.115 38.02 0 20.989-49.306 38.005-110.115 38.005-60.808 0-110.115-17.016-110.115-38.005 0-21.003 49.307-38.02 110.115-38.02Z"/></svg>