<svg xmlns="http://www.w3.org/2000/svg" fill="none" viewBox="0 0 512 512"><path fill="#000" d="M256 512c141.385 0 256-114.615 256-256S397.385 0 256 0 0 114.615 0 256s114.615 256 256 256Z"/><path fill="#FA0404" fill-rule="evenodd" d="M288.6 137.723c28.579-30.829 37.924-39.289 46.293-41.912 8.287-2.597 16.23 3.262 31.581 23.298 8.604 11.231 12.993 16.014 22.203 24.197 27.324 24.281 31.727 33.194 22.472 45.494-3.701 4.917-20.797 21.403-30.919 29.815-13.444 11.172-15.117 12.676-20.597 18.504-19.169 20.391-17.755 24.686 19.388 58.908 45.384 41.813 46.638 48.185 15.097 76.716-6.686 6.049-15.575 14.529-19.752 18.844-11.535 11.915-21.162 20.049-28.119 23.759-12.324 6.573-25.225-2.742-57.302-41.372-23.321-28.087-30.666-32.375-42.827-25.009-6.297 3.816-18.363 14.995-30.042 27.832-12.326 13.55-13.935 15.161-23.507 23.544-19.873 17.402-24.343 15.949-53.653-17.425-9.395-10.7-12.49-13.896-22.683-23.428-15.178-14.193-22.421-28.67-18.342-36.658 3.515-6.883 20.174-24.538 34.456-36.516 30.922-25.93 36.066-36.148 24.675-49.006-1.552-1.752-10.707-11.349-20.343-21.327-31.252-32.358-36.838-39.785-36.877-49.029-.03-7.191 7.887-16.346 26.37-30.497 8.561-6.554 13.189-10.823 20.007-18.453 10.38-11.616 22.466-20.52 29.723-21.897 7.925-1.504 15.364 4.463 37.167 29.814 12.167 14.145 29.724 30.29 37.515 34.497 9.011 4.866 16.753.244 38.016-22.693Zm48.115 33.396c.833 0 1.429-1.95.899-2.942-.522-.975-1.501-1.277-2.123-.653-.876.875.05 3.595 1.224 3.595Zm-144.312 2.376c.894-.228 1.886-.48 2.875-.232 2.45.613.438-5.339-1.909-3.93-.774.465-1.572.717-2.259.934-1.396.442-2.337.74-1.699 2.383.568 1.461 1.673 1.18 2.992.845Zm102.664 6.28c1.889.229.568 5.072-1.8 5.072-3.57 0-.09-5.301 1.8-5.072Zm-61.03 13.278c-.767-4.613-1.766-6.812-3.78-8.312-3.356-2.504-6.619-1.433-9.522 3.127-3.447 5.414-5.782 6.838-12.406 7.562-7.697.843-11.912 10.968-7.185 17.26 2.432 3.238 2.72 4.787 1.452 7.825-2.798 6.7 2.149 7.972 10.355 2.665 4.442-2.872 5.487-5.164 4.73-10.365-1.198-8.222 2.97-11.719 7.321-6.145 2.131 2.731 3.406 3.466 8.052 4.637 2.945.743 4.512 2.187 5.157 4.754.646 2.567 1.517 3.106 2.938 1.819 3.195-2.893 3.113-5.441-.321-10.044-3.894-5.218-5.945-9.683-6.791-14.783Zm48.219-8.146c4.9 1.226-2.648 11.677-9.672 9.784-5.443-1.466 4.772-11.01 9.672-9.784Zm-82.189 7.954c2.217.013 1.604-4.277.525-5.439-1.08-1.163-3.718-1.46-6.553-.368-.943.364-2.597.683-3.675.709-5.477.138-8.085 1.942-8.085 5.594 0 3.951 2.191 4.329 5.915 1.019 3.519-3.127 4.325-3.351 8.441-2.349 0 0 1.216.821 3.432.834Zm128.006.124c2.444.614 4.683-1.315 3.048-2.624-1.31-1.049-2.68-1.124-3.811-.209-1.379 1.12-1.04 2.38.763 2.833Zm-16.097 7.368c-.16-1.044-.665-2.313-1.123-2.819-.814-.9-1.78-1.091-3.008-.595-1.11.449-.641 2.094 1.17 4.098 1.751 1.939 1.775 2.025 1.403 4.782-.857 6.329-.675 7.692 1.043 7.86 4.217.41 5.465-3.779 2.552-8.562-.959-1.575-1.877-3.718-2.037-4.764Zm-43.385 3.553a77.71 77.71 0 0 1-.423-.613 15.921 15.921 0 0 1-.472-.751c-1.108-1.832-2.306-3.812-6.306-.1-1.631 1.513-3.671 3.34-4.532 4.057-2.643 2.199-.354 4.75 1.497 4.075 1.85-.674 4.885-.808 6.736-.674.501.037.99.135 1.469.232 1.29.26 2.505.505 3.676-.525 1.444-1.267-.329-3.812-1.645-5.701Zm60.838 5.516c1.838 0 3.676-1.226 4.288-3.603.613-2.378-4.287-2.526-5.712-.661-1.425 1.865-.413 4.264 1.424 4.264Zm-160.405 1.154c3.189 1.648 5.985-2.113 3.454-4.646-1.054-1.055-2.049-1.178-3.808-.471-2.219.892-2.012 3.892.354 5.117Zm111.987 4.666c-1.75-1.14-4.007-2.368-5.017-2.73-3.197-1.141-3.554-.945-3.55 1.958.006 4.316 4.729 12.098 9.416 15.515l2.097 1.529 4.964-.332c9.862-.661 13.628 4.212 5.692 7.367-3.351 1.333-4.531 3.131-4.531 6.904 0 7.425 2.834 9.136 9.689 5.85 2.218-1.064 5.439-2.056 8.646-2.664 5.962-1.132 7.812-1.968 9.126-4.121 3.179-5.218-.927-10.157-8.84-10.635l-4.166-.251.037-2.452c.021-1.348.446-4.657.946-7.354 1.12-6.05.782-7.049-3.188-9.392-5.756-3.396-9.283-3.308-13.491.335-3.311 2.868-4.084 2.915-7.83.473Zm-102.438 13.524c5.397 1.354 3.493-7.892-2.236-10.855-2.309-1.196-3.763-.531-4.557 2.08-.712 2.337 3.663 7.988 6.793 8.775Zm87.002-1.992c1.313-1.19 1.337-3.952.038-4.647-2.519-1.348-5.912.021-5.912 2.387 0 2.755 3.738 4.194 5.874 2.26Zm-32.308 6.858c2.81-4.128 4.189-8.094 3.354-9.652-.523-.979-2.843-1.094-7.736-.383-6.467.94-8.08 5.364-3.958 10.854 3.417 4.548 1.726 8.191-5.617 12.099-3.843 2.044-3.911 2.028-6.192-1.519-3.2-4.978-5.246-5.919-7.646-3.518-3.634 3.638 1.931 12.807 6.935 11.425 2.655-.734 2.747-.416 2.121 7.289-.653 8.026-.589 8.267 2.786 10.51 5.66 3.763 6.507 11.006 1.838 15.722-4.662 4.709-3.479 8.705 2.58 8.705 3.941 0 4.377 1.083 2.149 5.338-3.309 6.314.948 10.019 9.492 8.261 8.352-1.718 11.549-6.992 8.128-13.407a16.654 16.654 0 0 1-1.899-6.149c-.282-2.572-.674-3.661-1.851-5.148-2.505-3.165-2.302-5.332.812-8.659 3.831-4.091 4.182-5.386 2.642-9.725l-.855-2.408 1.402-2.59c1.35-2.499 1.378-2.69.789-5.324-1.075-4.801.509-8.097 4.432-9.222 3.97-1.139 8.318 3.617 8.318 9.102 0 3.647.88 4.628 4.152 4.632 4.026.006 5.446.763 7.365 3.921 2.227 3.67 3.767 4.902 6.123 4.902 4.008 0 5.756-3.915 3.444-7.709-1.038-1.704-1.546-1.889-6.349-2.313-4.001-.353-4.967-1.011-7.112-4.85-2.065-3.693-2.115-4.254-.553-6.061l1.189-1.375 1.66 1.602c3.928 3.79 9.682 3.338 9.682-.76 0-4.49-3.487-6.187-8.262-4.018-1.175.533-2.213.969-2.307.969-.093 0-.644-1.599-1.222-3.554-.878-2.964-1.417-3.881-3.244-5.516-1.206-1.079-3.461-3.222-5.013-4.762-5.705-5.661-11.571-5.348-13.543.723-1.585 4.883-4.767 7.405-7.857 6.229-1.445-.549-1.501-1.715-.177-3.661Zm-39.397 7.109c2.154 0 3.89-5.844 2.408-8.106-.934-1.426-1.84-1.464-6.076-.252-3.91 1.118-4.454 1.615-3.495 3.197 1.033 1.703 5.831 5.161 7.163 5.161Zm64.361 39.465c7.707-.861 8.603-4.904 1.802-8.124-6.548-3.099-12.364.195-16.807 9.519-2.052 4.304 3.082 6.402 6.403 2.617 2.313-2.638 4.203-3.519 8.602-4.012Zm-59.042 9.069c2.224-2.632 2.672-7.513.304-10.694-2.368-3.181-13.613.148-13.207 2.94.407 2.809 10.679 10.386 12.903 7.754Zm84.422-.307c.973-.612 1.703-6.576 1.027-8.39-.744-1.993-1.991-1.4-3.56 1.691-1.682 3.313.162 8.188 2.533 6.699Zm29.325-.336c2.72 1.807 4.614-3.513 2.112-5.934-1.814-1.755-3.17-1.988-4.402-.755-1.575 1.575-.446 4.87 2.29 6.689Zm-11.818 1.629c2.132 0 3.058-3.969 1.299-5.562-1.165-1.055-2.188-1.028-3.194.084-1.665 1.841-.406 5.478 1.895 5.478Zm10.496 12.433c.263-1.331.52-2.633-1.026-3.942-2.348-1.988-5.856-.124-9.913 3.153-3.945 3.189-4.643 3.539-7.056 3.548-5.502.019-7.898 3.978-4.479 7.4 1.347 1.348 2.585.896 5.613-2.051 3.006-2.927 3.62-2.959 8.373-.439 4.183 2.216 5.845 1.331 7.459.471l.061-.032c1.617-.861 1.142-3.875.815-5.951l-.009-.06c-.112-.71.026-1.407.162-2.097Zm-135.165 17.86c5.95.571 7.746-6.922 2.533-10.568-2.646-1.851-4.953-1.767-7.105.261-4.149 3.91-1.574 9.715 4.572 10.307Zm80.978-.169c1.837-.269 2.92-.427 4.003-1.872 1.838-2.452-5.513-3.065-8.575-1.839-3.063 1.226-6.125 6.767-.613 4.903 2.263-.765 3.907-1.005 5.185-1.192Zm12.277 12.532c4.978 0 7.478-3.848 4.575-7.042-1.46-1.608-2.629-1.844-5.198-1.047-6.421 1.991-5.952 8.089.623 8.089Zm65.866-16.835c3.943 0 6.249-7.363 3.202-10.227-1.298-1.22-3.562-1.697-5.064-1.064-3.75 1.576-2.148 11.291 1.862 11.291Zm-126.792 11.37c2.444.614 4.683-1.315 3.048-2.624-1.31-1.049-2.681-1.124-3.811-.208-1.38 1.119-1.04 2.379.763 2.832Zm-43.679-165.716c3.046 2.865.741 10.228-3.203 10.228-4.009 0-5.612-9.716-1.862-11.292 1.502-.632 3.766-.156 5.065 1.064Zm40.182-6.074c2.444.614 4.684-1.315 3.048-2.624-1.309-1.049-2.68-1.124-3.811-.208-1.379 1.119-1.04 2.379.763 2.832Z" clip-rule="evenodd"/></svg>