<svg xmlns="http://www.w3.org/2000/svg" fill="none" viewBox="0 0 512 512"><path fill="#000" d="M256 512c141.385 0 256-114.615 256-256S397.385 0 256 0 0 114.615 0 256s114.615 256 256 256Z"/><path fill="#fff" d="M256.391 353.518h-.332a97.712 97.712 0 0 1-72.778-32.549c-35.84-40.104-32.347-101.877 7.754-137.702a97.33 97.33 0 0 1 64.921-24.799 97.69 97.69 0 0 1 72.777 32.548c24.097 26.972 30.384 63.744 19.749 95.836l43.827 58.88c39.771-60.307 35.782-142.047-14.629-198.459-32.23-36.078-76.88-54.462-121.728-54.458a162.555 162.555 0 0 0-108.653 41.512c-67.197 60.036-72.993 163.178-12.968 230.378 32.23 36.078 76.88 54.469 121.735 54.469a163.364 163.364 0 0 0 45.1-6.37c-1.69-1.792-44.775-59.286-44.775-59.286Z"/><path fill="#00B2EC" d="m416.98 418.834-86.305-115.957-1.997-2.688a62.764 62.764 0 0 0-1.828-2.132 65.168 65.168 0 0 0-4.974-4.999 68.643 68.643 0 0 0-2.487-2.143 55.161 55.161 0 0 0-1.382-1.097l-1.426-1.098a76.77 76.77 0 0 0-3.131-2.194c-9.892-6.583-24.239-12.602-43.52-12.602h-42.613l.154.208-.154.117 88.302 118.671a66.084 66.084 0 0 0 9.289 9.274c.446.366.907.732 1.382 1.097.476.366.95.732 1.423 1.098a82.12 82.12 0 0 0 3.134 2.194c9.874 6.561 24.236 12.599 43.52 12.599h42.613l-.153-.209.153-.139Z"/></svg>