<svg xmlns="http://www.w3.org/2000/svg" fill="none" viewBox="0 0 512 512"><path fill="#000" d="M256 512c141.385 0 256-114.615 256-256S397.385 0 256 0 0 114.615 0 256s114.615 256 256 256Z"/><path fill="#fff" d="M256 441c102.172 0 185-82.603 185-184.499C441 154.604 358.172 72 256 72 153.827 72 71 154.604 71 256.501 71 358.397 153.827 441 256 441Z"/><path fill="url(#paint0_linear_3538_788)" d="M399.272 141.724c-12.838 2.527-25.081 6.094-35.158 8.323-22.991 5.128-44.489 22.667-49.192 54.772-4.18 28.687 5.524 41.024 1.269 74.392-7.464 58.264-63.598 78.33-89.799 90.518-15.153 6.987-51.954 23.039-80.32 35.301C176.826 427.623 214.747 441 255.877 441 358.143 441 441 358.508 441 256.692c0-43.401-15.078-83.309-40.308-114.745a54.48 54.48 0 0 0-1.42-.223Z"/><path fill="url(#paint1_linear_3538_788)" d="M235.487 229.175c14.274-30.677 9.118-30.752 19.954-59.572 13.676-36.545 56.199-26.146 67.932-24.586 19.355 2.599 24.438-4.234 65.242-10.771 2.017-.297 3.96-.594 5.903-.817C360.59 95.769 311.266 72 256.338 72c-73.762 0-137.434 42.785-167.253 104.808 61.132 15.079 127.121 47.836 146.402 52.367Zm-40.505-125.086c5.38.817 31.537 33.128 36.47 116.098 0 0-33.631-8.022-40.879-25.254-5.98-14.188 1.793-32.832 4.409-90.844Zm206.038 37.065c.074.149.225.223.299.372-.448-.075-.971-.075-1.42-.149.374-.149.747-.149 1.121-.223ZM71 256.213c0-14.707 1.719-28.969 5.007-42.637 6.726 5.571 13.9 11.736 21.523 18.793 48.278 44.493 126.821 79.628 155.445 46.944.074.075.149.075.149.149-5.232 6.834-25.185 28.449-63.299 21.764l-60.234 89.358C93.569 357.009 71 309.248 71 256.213Z"/><defs><linearGradient id="paint0_linear_3538_788" x1="348.23" x2="295.7" y1="131.519" y2="427.275" gradientUnits="userSpaceOnUse"><stop stop-color="#FF496A"/><stop offset="1" stop-color="#E42648"/></linearGradient><linearGradient id="paint1_linear_3538_788" x1="160.457" x2="256.092" y1="343.357" y2="71.634" gradientUnits="userSpaceOnUse"><stop offset=".002" stop-color="#1158F1"/><stop offset="1" stop-color="#119BED"/></linearGradient></defs></svg>