<svg xmlns="http://www.w3.org/2000/svg" fill="none" viewBox="0 0 512 512"><path fill="#000" fill-rule="evenodd" d="M512 256c0 141.385-114.615 256-256 256S0 397.385 0 256 114.615 0 256 0s256 114.615 256 256Z" clip-rule="evenodd"/><path fill="#7E6DCE" d="M255.458 356.019a61.777 61.777 0 0 0 43.691-18.104 61.822 61.822 0 0 0 0-87.414 61.782 61.782 0 0 0-43.691-18.104 61.782 61.782 0 0 0-43.692 18.104 61.822 61.822 0 0 0 0 87.414 61.778 61.778 0 0 0 43.692 18.104ZM102 265.957V97.933a34.966 34.966 0 0 1 10.238-24.696A34.941 34.941 0 0 1 136.928 63a16.607 16.607 0 0 1 11.699 4.86 16.621 16.621 0 0 1 4.872 11.697v97.157a154.934 154.934 0 0 1 75.987-35.881v40.835a16.853 16.853 0 0 1-10.987 15.673 103.877 103.877 0 0 0-59.217 58.038 16.72 16.72 0 0 1-5.803 7.405 16.35 16.35 0 0 1-9.671 3.192L102 265.957Z"/><path fill="#fff" d="M410.908 299.542a155.669 155.669 0 0 1-43.641 102.997 155.566 155.566 0 0 1-101.428 47.111 155.551 155.551 0 0 1-106.817-33.114A155.653 155.653 0 0 1 102 320.305h40.789a16.527 16.527 0 0 1 9.371 2.869 16.53 16.53 0 0 1 6.103 7.67 103.756 103.756 0 0 0 29.269 42.088 103.696 103.696 0 0 0 97.06 21.104 103.703 103.703 0 0 0 44.092-26.137 103.764 103.764 0 0 0 26.198-44.065 103.792 103.792 0 0 0 1.908-51.235 103.767 103.767 0 0 0-22.85-45.893 103.711 103.711 0 0 0-42.027-29.345 16.639 16.639 0 0 1-10.638-15.635v-40.893a155.636 155.636 0 0 1 94.602 55.006 155.736 155.736 0 0 1 35.037 103.697l-.006.006Z"/></svg>