<svg xmlns="http://www.w3.org/2000/svg" fill="none" viewBox="0 0 512 512"><path fill="#000" d="M256 512c141.385 0 256-114.615 256-256S397.385 0 256 0 0 114.615 0 256s114.615 256 256 256Z"/><path fill="#A46FFF" d="M253.344 333.287c43.075 0 77.995-34.743 77.995-77.601 0-42.857-34.92-77.601-77.995-77.601-43.076 0-77.995 34.744-77.995 77.601 0 42.858 34.919 77.601 77.995 77.601Z"/><path fill="url(#paint0_linear_3537_611)" d="M253.344 333.287c43.075 0 77.995-34.743 77.995-77.601 0-42.857-34.92-77.601-77.995-77.601-43.076 0-77.995 34.744-77.995 77.601 0 42.858 34.919 77.601 77.995 77.601Z"/><path fill="url(#paint1_linear_3537_611)" d="M185.092 323.346c-.597-.655-1.174-1.332-1.751-2.008-.865-1.005-1.73-2.009-2.554-3.055-.577-.717-1.113-1.434-1.669-2.172a6.219 6.219 0 0 1-.33-.472c-.659-.88-1.318-1.783-1.957-2.684l-1.545-2.276a81.456 81.456 0 0 1-2.081-3.341c-.453-.778-.926-1.537-1.359-2.316a88.752 88.752 0 0 1-1.937-3.668c-.412-.841-.865-1.641-1.256-2.502a16 16 0 0 1-.392-.86 109.376 109.376 0 0 1-2.163-5.022c-.062-.184-.144-.369-.206-.553-.659-1.722-1.298-3.444-1.874-5.206a1.464 1.464 0 0 1-.103-.328c-.165-.471-.268-.963-.413-1.455a125.957 125.957 0 0 1-1.133-3.916 99.154 99.154 0 0 1-3.234-26.502 11.607 11.607 0 0 0 6.654-7.051c2.06-6.087-1.236-12.688-7.354-14.737-6.119-2.05-12.752 1.23-14.812 7.318-1.958 5.78.927 12.031 6.468 14.389a108.05 108.05 0 0 0 3.255 27.813c0 .042 0 .061.021.103.041.164.103.327.144.512a107.485 107.485 0 0 0 1.73 6.068c.021.04.021.081.042.123.432 1.352.927 2.663 1.421 3.996.227.615.433 1.25.68 1.886.082.225.185.471.268.697a107.43 107.43 0 0 0 2.369 5.513c.144.329.288.636.453.963.165.329.309.677.453 1.005a104.7 104.7 0 0 0 2.205 4.283c.164.308.329.596.494.903a133.408 133.408 0 0 0 3.07 5.227c.103.184.226.348.329.532a96.789 96.789 0 0 0 3.461 5.104c.062.082.124.184.186.267.741 1.003 1.524 1.987 2.286 2.971.515.636.989 1.312 1.504 1.948.186.225.371.45.556.696a92.19 92.19 0 0 0 3.976 4.51c.124.123.227.267.351.409.041.042.082.062.123.104 2.884 3.074 5.954 5.943 9.188 8.67a669.739 669.739 0 0 0 7.211-5.78 96.736 96.736 0 0 1-10.775-10.106Z"/><path fill="url(#paint2_linear_3537_611)" d="M363.208 256.096c.165-13.118-2.081-26.174-6.593-38.533a109.105 109.105 0 0 0-4.263-10.147 107.395 107.395 0 0 0-11.97-19.226 108.772 108.772 0 0 0-15.574-16.233c-2.39 1.886-4.8 3.833-7.272 5.821a97.42 97.42 0 0 1 7.623 6.908c.082.081.184.143.267.225 3.255 3.3 6.284 6.846 9.064 10.556a98.76 98.76 0 0 1 9.703 15.864c2.267 4.653 4.1 9.47 5.604 14.368 2.987 9.819 4.491 20.026 4.347 30.295a11.604 11.604 0 0 0-6.654 7.051c-2.06 6.087 1.236 12.687 7.354 14.736 6.119 2.05 12.752-1.229 14.812-7.317 1.958-5.759-.927-11.991-6.448-14.368Z"/><path fill="url(#paint3_linear_3537_611)" fill-rule="evenodd" d="M404.493 108.497c-6.983-6.948-16.13-6.907-21.692-6.087-6.015.881-12.403 3.259-18.624 6.169-12.587 5.924-28.079 15.885-45.096 28.552-15.636 11.642-33.022 25.908-51.317 42.162a77.702 77.702 0 0 1 31.644 13.63 761.499 761.499 0 0 1 25.401-20.988c4.45-3.505 8.776-6.846 12.958-9.962 14.956-11.129 27.585-19.246 37.164-24.083-3.873 7.583-9.909 17.237-18.067 28.613-4.862 6.784-10.383 14.04-16.481 21.686 4.614 5.944 8.653 12.38 11.969 19.226 1.607 3.32 3.007 6.703 4.265 10.146 9.703-11.725 18.335-22.834 25.648-33.021 10.568-14.737 18.85-28.203 23.67-39.312 2.391-5.473 4.327-11.274 4.883-16.849.556-5.349.062-13.528-6.325-19.882Zm-60.298 102.846c-2.72-5.616-5.996-10.904-9.704-15.865-18.087 22.035-40.604 46.794-66.088 72.128-25.504 25.375-50.43 47.819-72.597 65.836a575.704 575.704 0 0 1-6.09 4.889l-1.12.891c-7.685 6.068-14.977 11.56-21.796 16.398-11.434 8.117-21.137 14.101-28.759 17.975 4.923-9.633 13.184-22.341 24.535-37.406 3.214-4.285 6.675-8.712 10.322-13.282a98.299 98.299 0 0 0-.703-.893 45.9 45.9 0 0 1-1.636-2.152l-.041-.06a3.888 3.888 0 0 0-.093-.134 111.587 111.587 0 0 1-3.461-5.104 4.518 4.518 0 0 0-.164-.266 4.224 4.224 0 0 1-.165-.266 109.155 109.155 0 0 1-3.317-5.678c-.082-.149-.165-.297-.247-.451a104.078 104.078 0 0 1-2.204-4.284c-.127-.252-.241-.516-.353-.773l-.101-.231a14.207 14.207 0 0 0-.226-.482 108.835 108.835 0 0 1-2.596-5.995 11.137 11.137 0 0 0-.134-.348c-.046-.119-.093-.236-.134-.349-.13-.324-.243-.654-.357-.986-.103-.298-.206-.599-.323-.9-6.922 8.342-13.287 16.378-19.014 23.982-12.855 17.053-22.95 32.549-28.965 45.154-2.967 6.211-5.377 12.606-6.284 18.611-.824 5.534-.906 14.696 6.119 21.665 6.386 6.354 14.606 6.826 19.983 6.292 5.603-.553 11.433-2.479 16.934-4.858 11.166-4.796 24.7-13.055 39.512-23.55 29.831-21.173 67.303-53.292 105.539-91.333 22.084-21.973 42.171-43.679 59.31-63.848a99.599 99.599 0 0 0-5.582-14.327Zm-178.304 81.109a98.776 98.776 0 0 1-1.875-5.206 2.18 2.18 0 0 0-.124-.307c-.072-.246-.139-.488-.206-.728-.067-.241-.134-.482-.206-.728a858.411 858.411 0 0 1 13.288-15.27 76.649 76.649 0 0 0 13.823 31.441 743.862 743.862 0 0 0-11.804 14.02 88.177 88.177 0 0 1-1.957-2.684 72.59 72.59 0 0 1-1.545-2.276c-.721-1.086-1.401-2.213-2.081-3.341l-.23-.383c-.381-.637-.77-1.285-1.13-1.933a88.729 88.729 0 0 1-1.936-3.668 48.559 48.559 0 0 0-.53-1.044c-.25-.485-.499-.968-.727-1.458-.062-.143-.129-.286-.196-.43a17.946 17.946 0 0 1-.195-.43 108.285 108.285 0 0 1-2.163-5.022c-.031-.092-.067-.184-.103-.276-.036-.093-.072-.185-.103-.277Z" clip-rule="evenodd" opacity=".9"/><path fill="url(#paint4_linear_3537_611)" d="M271.659 143.054c-5.809-1.947-12.072.902-14.461 6.416a109.533 109.533 0 0 0-38.998 6.661c-3.358 1.23-6.675 2.583-9.909 4.14a108.747 108.747 0 0 0-19.53 12.073 108.439 108.439 0 0 0-16.316 15.578 712.111 712.111 0 0 0 5.892 7.276 100.09 100.09 0 0 1 12.464-12.749l.247-.246a104.033 104.033 0 0 1 5.027-3.976c5.047-3.751 10.444-7.051 16.172-9.798 4.573-2.193 9.311-3.997 14.131-5.472 9.972-3.034 20.334-4.551 30.758-4.407a11.617 11.617 0 0 0 7.086 6.62c6.119 2.05 12.753-1.23 14.813-7.317 2.039-6.129-1.257-12.729-7.376-14.799Z"/><path fill="url(#paint5_linear_3537_611)" fill-rule="evenodd" d="M188.718 172.341c6.036-4.673 12.587-8.711 19.53-12.073 3.234-1.557 6.551-2.91 9.909-4.14-11.805-9.674-22.991-18.283-33.25-25.559-14.792-10.515-28.327-18.755-39.492-23.551-5.501-2.378-11.331-4.304-16.934-4.858-5.377-.533-13.618-.041-19.983 6.293-6.984 6.948-6.943 16.069-6.119 21.583.886 5.985 3.276 12.359 6.201 18.529 5.954 12.523 15.966 27.937 28.697 44.867 10.96 14.573 24.227 30.684 39.307 47.634a76.953 76.953 0 0 1 13.844-31.441 858.689 858.689 0 0 1-12.155-14.43 865.19 865.19 0 0 1-4.997-6.165l-.895-1.111a608.97 608.97 0 0 1-10.135-13.057c-11.187-14.881-19.345-27.445-24.207-36.976 7.623 3.853 17.326 9.859 28.759 17.976 6.861 4.837 14.215 10.371 21.92 16.479Zm222.121 210.726c-.557-5.576-2.493-11.375-4.883-16.848-4.821-11.11-13.123-24.576-23.671-39.313-21.28-29.679-53.562-66.963-91.797-105.005-22.085-21.973-43.88-41.937-64.131-58.99-4.821 1.476-9.559 3.28-14.132 5.473-5.728 2.746-11.125 6.046-16.172 9.797 22.105 17.996 46.949 40.358 72.371 65.651 25.586 25.457 48.185 50.32 66.315 72.415a514.945 514.945 0 0 1 5.809 7.194c6.037 7.564 11.516 14.758 16.336 21.481 8.159 11.376 14.174 21.03 18.067 28.614-9.682-4.899-22.455-13.118-37.597-24.411a624.368 624.368 0 0 1-13.184-10.146 108.268 108.268 0 0 1-19.179 11.785 103.779 103.779 0 0 1-10.383 4.304c8.363 6.866 16.398 13.18 24.041 18.878 17.14 12.79 32.714 22.834 45.385 28.818 6.241 2.951 12.669 5.35 18.705 6.252 5.562.819 14.77.902 21.775-6.087 6.365-6.314 6.86-14.512 6.325-19.862Zm-111.594-64.729a723.868 723.868 0 0 0 17.594 14.757c-4.945 3.649-10.219 6.868-15.802 9.531-4.738 2.276-9.641 4.141-14.626 5.638a858.326 858.326 0 0 1-18.81-16.295 77.937 77.937 0 0 0 31.644-13.631Z" clip-rule="evenodd" opacity=".9"/><path fill="url(#paint6_linear_3537_611)" d="M334.742 316.273c-5.253 6.334-11.269 11.97-17.903 16.849-4.944 3.628-10.218 6.866-15.8 9.551-4.738 2.275-9.642 4.14-14.627 5.637a100.119 100.119 0 0 1-30.264 4.262 11.612 11.612 0 0 0-7.086-6.62c-6.119-2.05-12.752 1.23-14.812 7.318-2.06 6.087 1.237 12.688 7.355 14.737 5.81 1.947 12.072-.902 14.461-6.415a109.694 109.694 0 0 0 38.524-6.478c3.523-1.27 7.004-2.684 10.383-4.304a109.513 109.513 0 0 0 19.179-11.785 108.594 108.594 0 0 0 16.398-15.537 518.486 518.486 0 0 0-5.808-7.215Z"/><defs><linearGradient id="paint0_linear_3537_611" x1="333.084" x2="488.782" y1="459.028" y2="141.579" gradientUnits="userSpaceOnUse"><stop stop-color="#040444"/><stop offset=".36" stop-color="#7303C0"/><stop offset=".669" stop-color="#EC38BC"/><stop offset="1" stop-color="#FDEFF9"/></linearGradient><linearGradient id="paint1_linear_3537_611" x1="204.832" x2="230.921" y1="345.004" y2="276.523" gradientUnits="userSpaceOnUse"><stop stop-color="#01F9FF" stop-opacity=".3"/><stop offset=".276" stop-color="#01F9FF"/><stop offset="1" stop-color="#01F9FF"/></linearGradient><linearGradient id="paint2_linear_3537_611" x1="317.486" x2="286.787" y1="161.561" y2="235.09" gradientUnits="userSpaceOnUse"><stop stop-color="#01F9FF" stop-opacity=".3"/><stop offset=".276" stop-color="#01F9FF"/><stop offset="1" stop-color="#01F9FF"/></linearGradient><linearGradient id="paint3_linear_3537_611" x1="295.305" x2="214.303" y1="277.288" y2="200.258" gradientUnits="userSpaceOnUse"><stop stop-color="#2580FF"/><stop offset=".53" stop-color="#7406FF"/><stop offset="1" stop-color="#FF06FE"/></linearGradient><linearGradient id="paint4_linear_3537_611" x1="171.265" x2="278.662" y1="184.402" y2="149.329" gradientUnits="userSpaceOnUse"><stop stop-color="#01F9FF" stop-opacity=".3"/><stop offset=".276" stop-color="#01F9FF"/><stop offset="1" stop-color="#01F9FF"/></linearGradient><linearGradient id="paint5_linear_3537_611" x1="298.96" x2="194.17" y1="233.025" y2="324.545" gradientUnits="userSpaceOnUse"><stop stop-color="#2580FF"/><stop offset=".53" stop-color="#7406FF"/><stop offset="1" stop-color="#FF06FE"/></linearGradient><linearGradient id="paint6_linear_3537_611" x1="344.704" x2="247.33" y1="316.163" y2="358.32" gradientUnits="userSpaceOnUse"><stop stop-color="#01F9FF" stop-opacity=".3"/><stop offset=".276" stop-color="#01F9FF"/><stop offset="1" stop-color="#01F9FF"/></linearGradient></defs></svg>