<svg xmlns="http://www.w3.org/2000/svg" fill="none" viewBox="0 0 512 512"><path fill="#000" fill-rule="evenodd" d="M512 256c0 141.385-114.615 256-256 256S0 397.385 0 256 114.615 0 256 0s256 114.615 256 256Z" clip-rule="evenodd"/><path fill="#FFD202" fill-rule="evenodd" d="M139.096 256.001c0-69.593 48.753-127.708 113.737-141.626a143.51 143.51 0 0 0-30.048-3.175c-28.048 0-54.214 8.095-76.338 22.082C105.935 158.893 79 204.276 79 256.001c0 51.725 26.935 97.108 67.447 122.719 22.124 13.985 48.29 22.08 76.338 22.08 10.308 0 20.356-1.1 30.048-3.175-64.984-13.917-113.737-72.031-113.737-141.624ZM339.58 108.674c-4.856 0-9.493-.91-13.754-2.552a38.18 38.18 0 0 1-4.268-1.946c-20.219-8.878-42.636-13.82-66.239-13.82A166.3 166.3 0 0 0 228 92.613c25.187.772 48.903 7.252 69.844 18.157 38.455 20.028 67.534 54.985 79.156 96.962V75c-1.585 18.853-17.725 33.674-37.42 33.674Zm-41.736 292.555c-20.941 10.905-44.653 17.385-69.844 18.159a166.68 166.68 0 0 0 27.321 2.255c23.601 0 46.018-4.941 66.237-13.817a37.932 37.932 0 0 1 4.269-1.948 38.163 38.163 0 0 1 13.753-2.552c19.695 0 35.835 14.821 37.42 33.674V304.267c-11.622 41.977-40.701 76.932-79.156 96.962Z" clip-rule="evenodd"/></svg>