<svg xmlns="http://www.w3.org/2000/svg" fill="none" viewBox="0 0 512 512"><path fill="#000" d="M256 512c141.385 0 256-114.615 256-256S397.385 0 256 0 0 114.615 0 256s114.615 256 256 256Z"/><path fill="url(#paint0_linear_2081_181)" d="m418.827 163.084-8.085-14.194a8.304 8.304 0 0 0-6.123-4.122 8.306 8.306 0 0 0-6.99 2.377l-18.595 18.575a8.353 8.353 0 0 0-1.035 10.524 145.822 145.822 0 0 1 16.169 33.27 145.792 145.792 0 0 1-19.745 131.611 145.839 145.839 0 0 1-51.874 44.679 145.878 145.878 0 0 1-66.551 16.088 144.543 144.543 0 0 1-68.333-16.958l31.45-31.46a104.164 104.164 0 0 0 113.689-27.109 104.11 104.11 0 0 0 16.914-115.622 8.333 8.333 0 0 0-6.112-4.608 8.323 8.323 0 0 0-7.293 2.328l-18.821 18.688a8.308 8.308 0 0 0-2.216 7.792l1.617 6.758a62.437 62.437 0 0 1-23.426 64.32 62.473 62.473 0 0 1-68.337 4.209l-8.295-4.753a8.295 8.295 0 0 0-10.025 1.342l-76.823 76.789a8.336 8.336 0 0 0-2.42 6.435 8.336 8.336 0 0 0 .967 3.382 8.34 8.34 0 0 0 2.278 2.68l11.319 8.681a185.753 185.753 0 0 0 113.932 38.605 187.6 187.6 0 0 0 93.454-25.072 187.551 187.551 0 0 0 68.52-68.304 187.506 187.506 0 0 0 25.353-93.36 187.504 187.504 0 0 0-24.563-93.571Z"/><path fill="url(#paint1_linear_2081_181)" d="M369.962 107.23A185.701 185.701 0 0 0 256.03 68.609a187.6 187.6 0 0 0-93.507 25.048 187.544 187.544 0 0 0-68.561 68.328 187.495 187.495 0 0 0-.745 187.011l8.085 14.178a8.343 8.343 0 0 0 13.13 1.762l18.563-18.559a8.388 8.388 0 0 0 1.035-10.508 145.149 145.149 0 0 1-16.17-33.27 145.8 145.8 0 0 1 71.62-176.289 145.863 145.863 0 0 1 66.55-16.089 144.407 144.407 0 0 1 68.318 17.007l-31.467 31.443a104.124 104.124 0 0 0-49.473-5.994 104.124 104.124 0 0 0-46.593 17.679 104.098 104.098 0 0 0-44.95 85.684c0 1.73.469 9.619.615 10.977a104.667 104.667 0 0 0 9.815 34.386 8.346 8.346 0 0 0 10.054 4.331 8.34 8.34 0 0 0 3.366-2.052l18.822-18.833a8.327 8.327 0 0 0 2.231-7.776l-1.617-6.774a62.43 62.43 0 0 1 23.422-64.325 62.454 62.454 0 0 1 68.342-4.188l8.295 4.753a8.344 8.344 0 0 0 10.025-1.341l76.806-76.79a8.339 8.339 0 0 0-.808-12.513l-11.271-8.665Z"/><defs><linearGradient id="paint0_linear_2081_181" x1="142.609" x2="473.138" y1="458.442" y2="145.789" gradientUnits="userSpaceOnUse"><stop stop-color="#B090F5"/><stop offset="1" stop-color="#5FBFFF"/></linearGradient><linearGradient id="paint1_linear_2081_181" x1="58.242" x2="322.092" y1="320.511" y2="56.621" gradientUnits="userSpaceOnUse"><stop stop-color="#68D7FA"/><stop offset="1" stop-color="#4EE498"/></linearGradient></defs></svg>