<svg xmlns="http://www.w3.org/2000/svg" fill="none" viewBox="0 0 512 512"><path fill="#000" d="M256 512c141.385 0 256-114.615 256-256S397.385 0 256 0 0 114.615 0 256s114.615 256 256 256Z"/><path fill="#1682FE" d="m306.077 140.716-24.645 10.169v37.686l24.645-10.17v-37.685Zm-75.509-75.11-24.383 10.17v37.685l24.383-10.169V65.606Z"/><path fill="#14CA7B" d="m155.322 103.292-24.384 10.169v37.686l24.384-10.17v-37.685Z"/><path fill="#F4BB3B" d="M117.567 253.641 93.184 263.68v112.795l24.383-10.17V253.641Z"/><path fill="#14CA7B" d="m117.567 140.977-24.383 9.908V263.68l24.383-10.039V140.977Z"/><path fill="#1682FE" d="m343.832 178.401-24.908 10.17v37.685l24.908-10.169v-37.686Z"/><path fill="#FF5A5A" d="m343.569 290.934-24.645 10.17v37.685l24.645-10.169v-37.686Zm-37.754 37.686-24.383 10.169v37.686l24.383-10.17V328.62Zm-75.247 75.371-24.383 10.169v37.424l24.383-9.908v-37.685Z"/><path fill="#F4BB3B" d="m155.322 366.305-24.384 10.17v37.424l24.384-9.908v-37.686Z"/><path fill="#fff" d="M418.816 140.716h-37.754v-37.424h-75.247V65.606h-75.247v37.686h-75.246v37.685h-37.755v225.328h37.755v37.686h75.246v37.685h75.247v-37.685h75.247v-37.686h37.754v-75.371h-75.247v37.686h-37.754v37.685h-75.247V328.62h-37.492V178.401h37.754v-37.685h75.247v37.685h37.755v37.686h74.984v-75.371Z"/></svg>