<svg xmlns="http://www.w3.org/2000/svg" fill="none" viewBox="0 0 512 512"><path fill="#000" d="M256 512c141.385 0 256-114.615 256-256S397.385 0 256 0 0 114.615 0 256s114.615 256 256 256Z"/><path fill="#69E2DC" d="m274.906 269.29 102.015 99.101c8.363 8.122 7.359 21.446-2.006 28.268C343.474 420.703 304.007 435 261.194 435 152.49 435 65.527 343.371 78.236 235.498c9.366-82.854 78.602-149.462 164.228-157.585 50.505-4.874 97.331 10.072 133.455 37.69 9.031 6.824 9.365 19.821 1.336 27.618l-102.349 99.427c-7.692 7.472-7.692 19.17 0 26.642Z"/></svg>