<svg xmlns="http://www.w3.org/2000/svg" fill="none" viewBox="0 0 512 512"><path fill="#000" fill-rule="evenodd" d="M512 256c0 141.385-114.615 256-256 256S0 397.385 0 256 114.615 0 256 0s256 114.615 256 256Z" clip-rule="evenodd"/><path fill="#fff" d="M116 174.182C116 140.155 128.524 121 154.562 121c19.917 0 29.051 11.483 33.76 25.461l-14.879 5.036c-3.108-9.413-7.345-16.802-18.834-16.802-14.549 0-20.905 11.907-20.905 30.78v17.366c0 18.826 6.356 30.78 20.905 30.78 11.677 0 15.915-7.342 18.834-16.755l14.879 4.989c-4.709 14.119-13.843 25.461-33.76 25.461-26.273 0-38.562-19.108-38.562-53.134Zm123.126 51.393H222.74V122.788h38.468c19.446 0 30.182 11.766 30.182 30.921 0 15.578-7.911 26.497-22.224 28.85l23.542 43.016h-18.269l-21.847-41.557h-13.654l.188 41.557Zm19.728-54.782c10.312 0 15.303-4.706 15.303-14.119v-6.306c0-9.413-4.991-14.119-15.303-14.119h-19.728v34.309l19.728.235Zm67.378 54.782V122.788h64.365v13.837h-47.885v29.885h46.378v13.837h-46.143v31.391h47.885v13.837h-64.6ZM116 287.416h30.652c26.038 0 38.75 17.978 38.75 51.393s-12.712 51.441-38.75 51.441H116V287.416Zm29.616 89.42c15.02 0 22.365-10.636 22.365-29.32v-17.084c0-18.825-7.345-29.321-22.365-29.321h-13.278v75.725h13.278Zm72.981 13.414v-12.519h24.201v-77.796h-24.201v-12.519h64.835v12.519h-24.154v77.796h24.154v12.519h-64.835Zm177.179 0h-18.834l-11.394-20.332-10.924-19.437h-.848l-11.206 19.437-12.1 20.332h-17.657l31.499-52.664-29.569-50.076h18.834l10.453 18.402 10.594 18.825h.753l10.594-18.825 10.924-18.402h17.515l-29.898 50.076 31.264 52.664Z"/></svg>