<svg xmlns="http://www.w3.org/2000/svg" fill="none" viewBox="0 0 512 512"><path fill="#000" d="M256 0c141.312 0 256 114.688 256 256S397.312 512 256 512 0 397.312 0 256 114.688 0 256 0Z"/><path fill="#fff" d="M99.328 163.784v-45h313.13a.22.22 0 0 1 .151.06.2.2 0 0 1 .063.145v44.54a.308.308 0 0 1-.092.22.317.317 0 0 1-.222.091H384.77c-.478 0-.713-.236-.704-.708l.157-10.267c0-.244-.124-.367-.371-.367H128.079a.327.327 0 0 0-.298.196.317.317 0 0 0-.023.121l.044 10.72c0 .187-.092.28-.276.28l-28.198-.031Zm238.511 108.718H177.314a.456.456 0 0 0-.456.456l-.006 5.957a.452.452 0 0 1-.134.322.452.452 0 0 1-.322.134h-27.46a.452.452 0 0 1-.322-.134.452.452 0 0 1-.134-.322v-47.004a.45.45 0 0 1 .134-.322.45.45 0 0 1 .322-.134l27.46-.031c.121 0 .237.048.322.134a.452.452 0 0 1 .134.322v6.132a.456.456 0 0 0 .456.456h160.494a.46.46 0 0 0 .322-.133.46.46 0 0 0 .133-.323l.019-6.12a.454.454 0 0 1 .456-.456h27.404a.46.46 0 0 1 .421.282.454.454 0 0 1 .035.174v47.204a.46.46 0 0 1-.136.325.453.453 0 0 1-.326.131l-27.385-.206a.455.455 0 0 1-.45-.456v-5.932a.456.456 0 0 0-.456-.456ZM99.328 392.192v-45l28.185-.031c.185 0 .277.089.277.267l-.025 10.441a.452.452 0 0 0 .452.453h255.522a.443.443 0 0 0 .446-.447l-.157-10.248a.478.478 0 0 1 .141-.347.51.51 0 0 1 .16-.107.509.509 0 0 1 .189-.037h27.84c.083 0 .163.033.222.091a.308.308 0 0 1 .092.22v44.422a.326.326 0 0 1-.327.323H99.328Z"/></svg>