<svg xmlns="http://www.w3.org/2000/svg" fill="none" viewBox="0 0 512 512"><path fill="#000" d="M256 0c141.312 0 256 114.688 256 256S397.312 512 256 512 0 397.312 0 256 114.688 0 256 0Z"/><path fill="#D9D9D9" d="M105.055 256.564a.117.117 0 0 0 .047-.044.126.126 0 0 0-.036-.174c-22.714-14.697-32.324-39.861-29.399-66.294 4.471-40.325 41.544-57.858 78.146-57.912 26.426-.035 52.892-.049 79.397-.042.044 0 .086.017.117.047.031.03.049.07.049.113l-.006 42.249c0 .175-.087.262-.262.262-22.964.085-45.982.416-68.941 0-16.178-.288-37.795 2.511-41.127 22.252-5.209 30.886 26.773 40.81 50.427 40.928 14.753.074 29.505.115 44.255.122.182 0 .273.091.273.272l-.006 41.45c0 .149-.074.222-.224.219a2584.286 2584.286 0 0 0-45.496-.016c-18.499.154-48.057 3.418-52.502 26.518-4.246 22.066 9.354 38.251 30.399 42.399a76.164 76.164 0 0 0 14.712 1.44c22.722.018 45.444 0 68.166-.053.186 0 .278.092.278.277l.15 42.319c0 .217-.109.324-.326.32-23.482-.075-46.895-.151-70.241-.229-29.725-.096-59.604-9.86-78.044-34.289-12.606-16.701-15.649-40.479-11.338-60.764 3.872-18.237 14.83-32.742 31.532-41.37Z"/><path fill="url(#paint0_linear_4202_4803)" d="M105.055 256.564a.117.117 0 0 0 .047-.044.126.126 0 0 0-.036-.174c-22.714-14.697-32.324-39.861-29.399-66.294 4.471-40.325 41.544-57.858 78.146-57.912 26.426-.035 52.892-.049 79.397-.042.044 0 .086.017.117.047.031.03.049.07.049.113l-.006 42.249c0 .175-.087.262-.262.262-22.964.085-45.982.416-68.941 0-16.178-.288-37.795 2.511-41.127 22.252-5.209 30.886 26.773 40.81 50.427 40.928 14.753.074 29.505.115 44.255.122.182 0 .273.091.273.272l-.006 41.45c0 .149-.074.222-.224.219a2584.286 2584.286 0 0 0-45.496-.016c-18.499.154-48.057 3.418-52.502 26.518-4.246 22.066 9.354 38.251 30.399 42.399a76.164 76.164 0 0 0 14.712 1.44c22.722.018 45.444 0 68.166-.053.186 0 .278.092.278.277l.15 42.319c0 .217-.109.324-.326.32-23.482-.075-46.895-.151-70.241-.229-29.725-.096-59.604-9.86-78.044-34.289-12.606-16.701-15.649-40.479-11.338-60.764 3.872-18.237 14.83-32.742 31.532-41.37Z"/><path fill="#fff" d="m254.487 392.869 66.505-86.514c.121-.157.121-.313 0-.47l-66.948-86.44c-.161-.206-.111-.309.149-.309h45.823a.55.55 0 0 1 .438.219l42.028 57.109a.512.512 0 0 0 .54.218c.488-.088.939-.43 1.352-1.024a56481.528 56481.528 0 0 1 39.237-56.266.572.572 0 0 1 .492-.256h43.7c.242 0 .292.098.15.293l-63.88 86.584a.202.202 0 0 0 0 .24l63.874 86.686a.177.177 0 0 1 .013.182.178.178 0 0 1-.157.095h-44.491a.395.395 0 0 1-.337-.192l-39.098-62.717a.825.825 0 0 0-1.101-.288.837.837 0 0 0-.305.283l-39.894 62.685a.465.465 0 0 1-.417.229h-47.502a.214.214 0 0 1-.171-.347Z"/><defs><linearGradient id="paint0_linear_4202_4803" x1="140.962" x2="281.835" y1="79.31" y2="679.539" gradientUnits="userSpaceOnUse"><stop stop-color="#208FFF"/><stop offset="1" stop-color="#2D65FF"/></linearGradient></defs></svg>