<svg xmlns="http://www.w3.org/2000/svg" fill="none" viewBox="0 0 512 512"><path fill="#000" d="M256 512c141.385 0 256-114.615 256-256S397.385 0 256 0 0 114.615 0 256s114.615 256 256 256Z"/><path fill="#4AC69C" d="M118.777 380.928c-18.585 0-29.82-20.508-19.788-36.12l78.071-121.516a31.358 31.358 0 0 1 26.385-14.396h105.11a31.359 31.359 0 0 1 26.386 14.396l78.071 121.516c10.031 15.612-1.204 36.12-19.789 36.12H118.777Zm151.619-280.702 33.166 49.765c6.899 10.352-.664 24.089-13.263 24.089h-67.572c-12.721 0-20.26-13.973-13.116-24.308l34.407-49.765c6.353-9.19 20.184-9.076 26.378.219Z"/></svg>