<svg width="277" height="320" viewBox="0 0 277 320" fill="none" xmlns="http://www.w3.org/2000/svg">
<path d="M159.507 21.2992C83.1599 21.2992 21.2677 83.2833 21.2677 159.744V202.821C13.1364 212.475 5.9949 222.992 0 234.216V159.744C0 71.5198 71.414 0 159.507 0H276.48V21.2992H159.507Z" fill="black"/>
<path d="M159.507 63.8976C106.652 63.8976 63.8031 106.81 63.8031 159.744V165.869C56.3303 170.547 49.2234 175.759 42.5354 181.448V159.744C42.5354 95.0461 94.9057 42.5984 159.507 42.5984H276.48V63.8976H159.507Z" fill="black"/>
<path d="M108.167 145.85C114.268 123.179 134.942 106.496 159.507 106.496H276.48V85.1971H159.507C120.201 85.1971 88.0112 115.707 85.2612 154.37C92.6456 151.035 100.294 148.181 108.167 145.85Z" fill="black"/>
<path d="M159.507 181.043C83.1599 181.043 21.2677 243.027 21.2677 319.488H0C0 267.233 25.0536 220.837 63.7875 191.693L63.8031 191.681C90.4621 171.627 123.599 159.744 159.507 159.744H276.48V181.043H159.507Z" fill="black"/>
<path d="M63.8031 319.488C63.8031 266.554 106.652 223.642 159.507 223.642H276.48V202.342H159.507C94.9057 202.342 42.5354 254.79 42.5354 319.488H63.8031Z" fill="black"/>
<path d="M106.338 319.488C106.338 290.08 130.143 266.24 159.507 266.24H276.48V244.941H159.507C118.397 244.941 85.0706 278.316 85.0706 319.488H106.338Z" fill="black"/>
</svg>
