<svg xmlns="http://www.w3.org/2000/svg" fill="none" viewBox="0 0 512 512"><path fill="#000" d="M256 512c141.385 0 256-114.615 256-256S397.385 0 256 0 0 114.615 0 256s114.615 256 256 256Z"/><path fill="#fff" d="M268.051 117.555c-76.347 0-138.239 61.984-138.239 138.445v43.077a181.387 181.387 0 0 0-21.268 31.395V256c0-88.224 71.414-159.744 159.507-159.744h116.973v21.299H268.051Z"/><path fill="#fff" d="M268.051 160.154c-52.855 0-95.704 42.912-95.704 95.846v6.125a181.312 181.312 0 0 0-21.268 15.579V256c0-64.698 52.371-117.146 116.972-117.146h116.973v21.3H268.051Z"/><path fill="#fff" d="M216.711 242.106c6.101-22.671 26.775-39.354 51.34-39.354h116.973v-21.299H268.051c-39.306 0-71.496 30.51-74.246 69.173a179.384 179.384 0 0 1 22.906-8.52Zm51.34 35.193c-76.347 0-138.239 61.984-138.239 138.445h-21.268c0-52.255 25.054-98.651 63.788-127.795l.015-.012C199.006 267.883 232.143 256 268.051 256h116.973v21.299H268.051Z"/><path fill="#fff" d="M172.347 415.744c0-52.934 42.849-95.846 95.704-95.846h116.973v-21.3H268.051c-64.601 0-116.972 52.448-116.972 117.146h21.268Z"/><path fill="#fff" d="M214.882 415.744c0-29.408 23.805-53.248 53.169-53.248h116.973v-21.299H268.051c-41.11 0-74.436 33.375-74.436 74.547h21.267Z"/></svg>