<svg xmlns="http://www.w3.org/2000/svg" fill="none" viewBox="0 0 512 512"><path fill="#000" d="M256 512c141.385 0 256-114.615 256-256S397.385 0 256 0 0 114.615 0 256s114.615 256 256 256Z"/><path fill="#FE0024" d="M288.17 269.053c39.196.107 78.381 0 117.555-.321 15.695-.129 18.397-23.772-4.117-23.74-36.301.043-73.534-.01-111.701-.16-4.695-.022-5.382-1.692-2.058-5.012a33165.767 33165.767 0 0 0 122.347-122.328c14.087-14.134-2.959-30.55-15.471-18.053L269.291 224.722c-1.994 1.992-3.002 1.574-3.023-1.253-.022-36.685-.011-73.339.032-109.96.032-22.23-23.125-21.62-23.189-5.044-.086 38.742-.15 76.52-.193 113.334 0 3.384-1.201 3.887-3.603 1.51a129496.13 129496.13 0 0 0-77.898-77.805c-9.938-9.862-23.639-3.083-19.94 11.854a5.632 5.632 0 0 0 1.511 2.634l80.889 80.824c2.788 2.784 2.22 4.176-1.704 4.176-37.095 0-75.315.011-114.66.032-15.6 0-14.699 23.933 2.219 23.965 37.888.107 75.025.139 111.412.096 2.551-.021 2.926.868 1.125 2.667A27706.908 27706.908 0 0 0 96.577 397.453c-9.68 9.701 2.284 23.161 12.222 19.21 2.402-.964 5.94-3.791 10.614-8.481a25007.666 25007.666 0 0 1 121.639-121.364c1.051-1.071 1.587-.857 1.608.642.601 38.164.654 76.348.161 114.554-.289 22.519 23.801 18.921 23.608 3.566a4851.75 4851.75 0 0 1 .064-119.854c.021-1.414.536-1.628 1.544-.643l88.543 88.148a5.483 5.483 0 0 0 2.799 1.478c12.254 2.216 20.841-11.243 11.353-20.431a3328.311 3328.311 0 0 1-83.301-83.522c-1.115-1.157-.869-1.724.739-1.703Z"/></svg>