<svg xmlns="http://www.w3.org/2000/svg" fill="none" viewBox="0 0 512 512"><path fill="#000" fill-rule="evenodd" d="M512 256c0 141.385-114.615 256-256 256S0 397.385 0 256 114.615 0 256 0s256 114.615 256 256Z" clip-rule="evenodd"/><path fill="#fff" d="M323.561 213.258 278.769 90.491a5.537 5.537 0 0 1 .641-5.052 5.508 5.508 0 0 1 4.499-2.377c22.214-.069 44.315-.08 66.302-.035 9.564 0 16.882 6.544 20.387 15.849a17706.97 17706.97 0 0 1 57.113 153.442 4.586 4.586 0 0 1 0 3.203 130321.913 130321.913 0 0 0-56.364 155.351c-3.71 10.259-10.653 17.723-21.374 17.893-21.42.341-42.829.273-64.226-.204-7.829-.17-7.727-5.283-5.718-11.145a39597.227 39597.227 0 0 1 42.919-123.006 2.62 2.62 0 0 0-2.485-3.476H247.15a4.15 4.15 0 0 0-3.914 2.76 10923.558 10923.558 0 0 1-43.022 118.439c-3.471 9.407-10.687 16.564-20.387 16.666-21.534.228-43.532.262-65.996.103a5.896 5.896 0 0 1-5.514-7.805c19.06-55.01 38.393-110.668 57.997-166.973.84-2.363.295-6.101-1.633-11.213A17359.346 17359.346 0 0 1 109.27 93.286c-2.791-7.668.817-10.259 7.999-10.259h63.579c9.076 0 15.532 5.18 19.366 15.542a632658.36 632658.36 0 0 1 42.954 115.78 1.36 1.36 0 0 0 1.259.852l77.874-.102c1.294 0 1.713-.614 1.26-1.841Z"/></svg>