<svg xmlns="http://www.w3.org/2000/svg" fill="none" viewBox="0 0 512 512"><path fill="#000" fill-rule="evenodd" d="M512 256c0 141.385-114.615 256-256 256S0 397.385 0 256 114.615 0 256 0s256 114.615 256 256Z" clip-rule="evenodd"/><path fill="#FF5833" fill-rule="evenodd" d="M107.245 121v40.315l97.745-9.916h36.088v65.256l-60.764 18.335L98 254.55l12.226 39.424 78.887-29.874 51.965-15.645v107.146H204.99l-97.745-9.932V386h298.526v-40.331l-97.761 9.932h-36.088V248.455l51.71 15.565 79.158 29.954L415 254.55l-82.091-19.512-60.987-18.367v-65.256h36.088l97.761 9.9V121H107.245Z" clip-rule="evenodd"/></svg>