<svg xmlns="http://www.w3.org/2000/svg" fill="none" viewBox="0 0 512 512"><path fill="#000" d="M256 512c141.385 0 256-114.615 256-256S397.385 0 256 0 0 114.615 0 256s114.615 256 256 256Z"/><path fill="#4E80EE" d="M256.496 416.402c0 10.192 8.251 18.549 18.336 17.511C364.248 424.693 434 348.782 434 256.5c0-92.282-69.752-168.192-159.168-177.411-10.085-1.046-18.336 7.318-18.336 17.509v49.201c0 10.19 8.306 18.259 18.247 20.27 41.969 8.506 73.569 45.758 73.569 90.431 0 44.675-31.6 81.925-73.569 90.432-9.941 2.01-18.247 10.086-18.247 20.271v49.199ZM201.411 112.33c0-12.546-12.223-21.39-23.412-15.837C119.342 125.602 79 186.315 79 256.5s40.342 130.899 98.999 160.007c11.189 5.554 23.412-3.289 23.412-15.837V112.33Z"/></svg>