<svg xmlns="http://www.w3.org/2000/svg" fill="none" viewBox="0 0 512 512"><path fill="#000" d="M256 512c141.385 0 256-114.615 256-256S397.385 0 256 0 0 114.615 0 256s114.615 256 256 256Z"/><path fill="#5488E2" d="M274.453 143.586c-47.962 6.276-87.986 40.081-98.96 87.273-1.894 8.109-2.854 20.504-2.88 37.187-.065 33.456-.071 66.944-.019 100.465a.66.66 0 0 0 .661.66h38.156c.675 0 1.012-.336 1.012-1.01.078-32.769.091-65.494.039-98.172-.039-28.424 2.938-46.124 21.617-65.455a.723.723 0 0 1 1.127.095.72.72 0 0 1 .118.41v185.99a.97.97 0 0 1-.972.971h-84.193a.82.82 0 0 1-.817-.816c-.272-42.354-.24-84.734.097-127.141.13-14.973 1.116-26.727 2.958-35.262 14.846-68.544 77.674-112.706 147.585-108.392.674.038 1.011.401 1.011 1.088v246.296a.845.845 0 0 0 .291.644.834.834 0 0 0 .682.191c47.146-6.955 87.792-39.693 98.766-87.059 1.868-8.057 2.822-20.07 2.861-36.04.077-33.975.084-67.981.019-102.02a.66.66 0 0 0-.661-.66h-38.157c-.674 0-1.011.336-1.011 1.01a23693.18 23693.18 0 0 0-.039 96.113c.058 29.667-2.257 47.581-21.617 67.514a.721.721 0 0 1-1.246-.505v-185.99c0-.647.325-.971.973-.971h84.134c.649 0 .973.324.973.971.052 43.741.052 87.455 0 131.143-.097 83.465-67.615 144.005-150.192 139.633-1.038-.064-1.557-.621-1.557-1.67l.02-245.811c0-.518-.26-.744-.779-.68ZM85.016 183.298c0-25.082 3.891-43.695 23.465-59.199.895-.712 1.343-.492 1.343.661v265.472a.8.8 0 0 1-.778.797h-22.96c-.7 0-1.051-.35-1.051-1.05-.039-68.919-.045-137.813-.02-206.681Z"/></svg>