<svg xmlns="http://www.w3.org/2000/svg" fill="none" viewBox="0 0 512 512"><path fill="#000" d="M256 512c141.385 0 256-114.615 256-256S397.385 0 256 0 0 114.615 0 256s114.615 256 256 256Z"/><path fill="url(#paint0_linear_3539_834)" d="M253.639 87 444 195.96v108.975L253.625 195.96V87h.014Z"/><path fill="#3C3C3C" d="M253.639 426 444 318.142V210.269L253.639 318.142V426Z"/><path fill="url(#paint1_linear_3539_834)" d="M253.639 87 68 195.96v108.975L253.639 195.96V87Z"/><path fill="#474747" d="M253.639 426 68 318.142V210.269l185.639 107.873V426Z"/><defs><linearGradient id="paint0_linear_3539_834" x1="764.549" x2="-162.484" y1="255.544" y2="255.544" gradientUnits="userSpaceOnUse"><stop stop-color="#996939"/><stop offset="1" stop-color="#D0A875"/></linearGradient><linearGradient id="paint1_linear_3539_834" x1="446.326" x2="164.976" y1="156.496" y2="460.93" gradientUnits="userSpaceOnUse"><stop stop-color="#996939"/><stop offset="1" stop-color="#D0A875"/></linearGradient></defs></svg>