<svg xmlns="http://www.w3.org/2000/svg" fill="none" viewBox="0 0 512 512"><path fill="#000" fill-rule="evenodd" d="M512 256c0 141.385-114.615 256-256 256S0 397.385 0 256 114.615 0 256 0s256 114.615 256 256Z" clip-rule="evenodd"/><path fill="#fff" d="M256.007 67c-14.228 0-28.223 3.028-41.518 8.385-13.062 5.59-24.958 13.508-34.987 23.755-10.03 10.248-17.96 22.126-23.325 35.402-5.365 13.275-8.164 27.482-7.93 41.689v36.1h87.467v-52.403c0-2.562.467-4.891 1.4-7.22.933-2.329 2.332-4.425 3.965-6.055 1.633-1.631 3.732-3.028 6.064-3.96a19.046 19.046 0 0 1 7.231-1.397h3.265c2.333 0 4.899.466 7.231 1.397 2.333.932 4.432 2.329 6.065 3.96 1.632 1.63 3.032 3.726 3.965 6.055a18.954 18.954 0 0 1 1.399 7.22v140.207c11.429 0 22.858-2.329 33.588-6.754 10.729-4.425 20.292-10.947 28.456-19.098 8.163-8.152 14.694-17.934 18.893-28.414 4.432-10.714 6.764-22.126 6.764-33.538v-36.1c0-28.88-11.196-56.828-31.488-77.323-10.03-10.248-21.926-18.167-34.987-23.756C284.23 69.795 270.235 67 256.007 67Z"/><path fill="#fff" d="M257.639 371.17h-3.265c-2.332 0-4.898-.466-7.231-1.397-2.332-.932-4.198-2.329-6.064-3.96-1.633-1.63-3.032-3.726-3.965-6.055a18.955 18.955 0 0 1-1.4-7.22V212.331c-11.429 0-22.858 2.329-33.587 6.754-10.73 4.425-20.293 10.946-28.456 19.098-8.164 8.152-14.695 17.933-18.893 28.414-4.432 10.714-6.765 22.126-6.765 33.538v35.634c-.233 14.207 2.566 28.414 7.931 41.689 5.365 13.276 13.295 25.387 23.325 35.401 10.029 10.248 21.925 18.167 34.987 23.757 13.061 5.589 27.289 8.384 41.517 8.384 14.229 0 28.457-2.795 41.518-8.384 13.062-5.59 25.191-13.509 34.987-23.757 10.03-10.247 17.96-22.125 23.325-35.401 5.365-13.275 7.931-27.482 7.931-41.689v-35.634h-87.468v52.403c0 2.562-.467 4.891-1.4 7.22-.933 2.329-2.332 4.425-3.965 6.055-1.632 1.631-3.732 3.028-6.064 3.96-2.099.931-4.432 1.397-6.998 1.397Z"/></svg>