<svg xmlns="http://www.w3.org/2000/svg" fill="none" viewBox="0 0 512 512"><path fill="#000" d="M256 512c141.385 0 256-114.615 256-256S397.385 0 256 0 0 114.615 0 256s114.615 256 256 256Z"/><path fill="#E5D540" d="M256.989 105.247c5.035 19.172 12.639 37.332 22.508 53.915a411.028 411.028 0 0 1 10.941-8.291C273.511 121.77 263.784 87.977 263.784 52h-13.59c0 35.977-9.727 69.77-26.654 98.871 3.539 2.588 7.2 5.379 10.941 8.291 9.868-16.583 17.473-34.743 22.508-53.915ZM362.13 222.542a145.882 145.882 0 0 1-11.628-7.28c-4.086-2.73-7.948-5.642-11.77-8.695a159.905 159.905 0 0 1-10.476-8.838 231.413 231.413 0 0 1-12.983-12.983c-3.539 2.507-7.199 5.298-10.88 8.23 4.894 5.501 10.132 10.739 15.633 15.572 3.336 3.054 6.794 6.047 10.395 8.838 3.801 3.054 7.745 5.925 11.769 8.696 3.802 2.588 7.685 5.035 11.628 7.401a210.711 210.711 0 0 0 53.914 22.509c-19.171 5.035-37.27 12.639-53.914 22.508-3.943 2.387-7.826 4.834-11.628 7.402-4.004 2.79-7.948 5.641-11.769 8.695-3.601 2.792-7.079 5.784-10.395 8.838-5.501 4.833-10.739 10.071-15.633 15.572a261.33 261.33 0 0 0 10.88 8.23 231.75 231.75 0 0 1 12.983-12.983 159.905 159.905 0 0 1 10.476-8.838c3.802-3.053 7.684-5.985 11.77-8.695a145.882 145.882 0 0 1 11.628-7.28c29.1-16.927 62.833-26.655 98.87-26.655v-13.589c-36.037 0-69.77-9.727-98.87-26.655Zm-198.632 74.179c4.085 2.73 7.948 5.642 11.77 8.695a159.905 159.905 0 0 1 10.476 8.838 231.75 231.75 0 0 1 12.983 12.983c3.539-2.507 7.199-5.298 10.88-8.23-4.894-5.501-10.132-10.739-15.633-15.572-3.336-3.054-6.794-6.046-10.395-8.838-3.801-3.054-7.745-5.925-11.769-8.695-3.802-2.589-7.685-5.036-11.628-7.402a210.665 210.665 0 0 0-53.915-22.508c19.172-5.036 37.271-12.64 53.915-22.509 3.943-2.386 7.826-4.834 11.628-7.401 4.004-2.791 7.947-5.642 11.769-8.696 3.601-2.791 7.079-5.784 10.395-8.838 5.501-4.833 10.739-10.071 15.633-15.572a261.33 261.33 0 0 0-10.88-8.23 231.413 231.413 0 0 1-12.983 12.983 159.905 159.905 0 0 1-10.476 8.838c-3.802 3.053-7.685 5.985-11.77 8.695a145.882 145.882 0 0 1-11.628 7.28C122.769 239.47 89.037 249.197 53 249.197v13.589c36.037 0 69.769 9.728 98.87 26.655a145.882 145.882 0 0 1 11.628 7.28Zm93.491 110.032c-5.035-19.171-12.64-37.332-22.508-53.915a410.509 410.509 0 0 1-10.941 8.291c16.927 29.102 26.654 62.894 26.654 98.871h13.59c0-35.977 9.727-69.769 26.654-98.871-3.54-2.588-7.2-5.379-10.941-8.291-9.869 16.583-17.473 34.744-22.508 53.915Z"/><path fill="#E5D540" d="M358.306 307.883a160.51 160.51 0 0 0-11.77 8.777c16.866 25.36 24.611 45.482 28.009 56.908-11.426-3.397-31.548-11.143-56.908-28.008a522.164 522.164 0 0 1-11.223-7.827 310.778 310.778 0 0 1-10.819-8.291 516.086 516.086 0 0 1-10.537-8.697 621.039 621.039 0 0 1-7.745-6.875h-.06c-3.256-2.993-6.532-6.047-9.87-9.323l38.141-38.14a440.443 440.443 0 0 1 9.322 9.868h.061c2.306 2.649 4.631 5.237 6.795 7.827a174.798 174.798 0 0 1 11.77-8.697c-2.589-3.054-5.298-6.188-8.292-9.384-2.932-3.194-5.985-6.673-9.241-9.99 3.256-3.336 6.33-6.794 9.241-9.99 2.994-3.195 5.703-6.33 8.292-9.383a193.658 193.658 0 0 1-11.77-8.696c-2.184 2.588-4.489 5.177-6.795 7.827h-.061c-2.931 3.195-6.046 6.532-9.322 9.868l-38.141-38.141a413.445 413.445 0 0 1 9.87-9.322h.06a629.762 629.762 0 0 1 7.745-6.877c3.6-3.053 7.139-5.985 10.537-8.695 3.74-2.993 7.28-5.703 10.819-8.291a515.09 515.09 0 0 1 11.223-7.827c25.36-16.866 45.482-24.612 56.908-28.009-3.398 11.426-11.143 31.548-28.009 56.907 3.802 3.135 7.746 6.048 11.77 8.777 29.303-43.58 33.044-72.964 33.247-74.602l1.091-9.182-9.181 1.092c-1.637.203-31.001 3.944-74.602 33.248-3.6 2.386-7.341 4.953-11.143 7.825-3.539 2.589-7.139 5.299-10.82 8.292a281.688 281.688 0 0 0-10.617 8.777c-3.054 2.507-6.187 5.299-9.322 8.23h-.061c-3.256 2.933-6.532 6.048-9.869 9.324l-.061-.061-.061.061c-3.336-3.256-6.592-6.391-9.868-9.324h-.061c-3.134-2.931-6.248-5.703-9.322-8.23a269.777 269.777 0 0 0-10.617-8.777c-3.681-2.993-7.28-5.703-10.82-8.292-3.801-2.851-7.543-5.439-11.142-7.825-43.581-29.304-72.965-33.045-74.603-33.248l-9.181-1.092 1.092 9.182c.202 1.638 3.943 31.002 33.246 74.602a159.442 159.442 0 0 0 11.77-8.777c-16.866-25.359-24.611-45.481-28.009-56.907 11.426 3.397 31.548 11.143 56.908 28.009a517.518 517.518 0 0 1 11.224 7.827 313.649 313.649 0 0 1 10.819 8.291 515.829 515.829 0 0 1 10.536 8.695 622.483 622.483 0 0 1 7.745 6.877h.061c3.256 2.993 6.532 6.046 9.869 9.322l-38.141 38.141a445.186 445.186 0 0 1-9.323-9.868h-.061c-2.304-2.65-4.63-5.239-6.794-7.827a174.421 174.421 0 0 1-11.769 8.696c2.588 3.053 5.298 6.188 8.291 9.383 2.931 3.196 5.985 6.674 9.242 9.99-3.257 3.337-6.33 6.796-9.242 9.99-2.993 3.196-5.703 6.33-8.291 9.384a193.967 193.967 0 0 1 11.769 8.697c2.184-2.59 4.49-5.178 6.794-7.827h.061c2.933-3.195 6.047-6.532 9.323-9.868l38.141 38.14a411.494 411.494 0 0 1-9.869 9.323h-.061a613.958 613.958 0 0 1-7.745 6.875 454.949 454.949 0 0 1-10.536 8.697 313.649 313.649 0 0 1-10.819 8.291 524.66 524.66 0 0 1-11.224 7.827c-25.36 16.865-45.482 24.611-56.908 28.008 3.398-11.426 11.143-31.548 28.009-56.908-3.802-3.134-7.745-6.046-11.77-8.777-29.303 43.582-33.044 72.966-33.246 74.604l-1.092 9.181 9.181-1.092c1.638-.202 31.002-3.944 74.603-33.247 3.599-2.386 7.341-4.955 11.142-7.827 3.54-2.588 7.139-5.298 10.82-8.291a282.775 282.775 0 0 0 10.617-8.776c3.053-2.508 6.188-5.299 9.322-8.232h.061c3.256-2.931 6.532-6.046 9.868-9.322l.061.061.061-.061c3.337 3.256 6.593 6.391 9.869 9.322h.061c3.135 2.933 6.248 5.703 9.322 8.232 3.6 3.134 7.139 6.046 10.617 8.776 3.681 2.993 7.281 5.703 10.82 8.291 3.802 2.852 7.543 5.441 11.143 7.827 43.58 29.303 72.965 33.045 74.602 33.247l9.181 1.092-1.091-9.181c-.203-1.638-3.944-31.002-33.247-74.604Zm-101.317-13.589-38.302-38.302 38.302-38.304 38.302 38.304-38.302 38.302Z"/></svg>