<svg xmlns="http://www.w3.org/2000/svg" fill="none" viewBox="0 0 512 512"><path fill="#000" d="M256 512c141.385 0 256-114.615 256-256S397.385 0 256 0 0 114.615 0 256s114.615 256 256 256Z"/><path fill="#21D1BE" d="M106.509 346V204.021l107.742 81.028V346h27.509v-66.667a16.03 16.03 0 0 0-6.398-12.813l-130.667-98.268C94.121 160.299 79 167.839 79 181.066V346h27.509Zm297.982 0V204.021l-107.743 81.028V346h-27.509v-66.667c0-5.038 2.37-9.784 6.399-12.813l130.665-98.268c10.576-7.953 25.697-.413 25.697 12.814V346h-27.509Z"/></svg>