<svg xmlns="http://www.w3.org/2000/svg" fill="none" viewBox="0 0 512 512"><path fill="#000" d="M256 512c141.385 0 256-114.615 256-256S397.385 0 256 0 0 114.615 0 256s114.615 256 256 256Z"/><path fill="#C4C4C4" fill-rule="evenodd" d="M270.384 281.899a381.652 381.652 0 0 0 55.038-5.473 9.113 9.113 0 0 1 7.45 1.96 9.057 9.057 0 0 1 2.407 3.114 8.994 8.994 0 0 1 .854 3.836v34.31a391.432 391.432 0 0 1-79.35 7.788c-62.719 0-117.615-13.541-147.988-33.818a59.18 59.18 0 0 1-22.48-24.206 30.133 30.133 0 0 1-2.82-12.489 33.228 33.228 0 0 1 6.132-18.523 3.938 3.938 0 0 1 2.913-1.783 3.962 3.962 0 0 1 3.217 1.152 85.183 85.183 0 0 0 10.923 9.12 178.227 178.227 0 0 0 56.377 24.137 363.41 363.41 0 0 0 80.337 11.015v16.979a13.372 13.372 0 0 0 3.942 9.476 13.466 13.466 0 0 0 4.367 2.905 13.52 13.52 0 0 0 5.151 1.021 13.564 13.564 0 0 0 9.497-3.946 13.44 13.44 0 0 0 3.963-9.456l.07-17.119Z" clip-rule="evenodd"/><path fill="#FF7900" fill-rule="evenodd" d="M270.384 281.899a381.652 381.652 0 0 0 55.038-5.473 9.113 9.113 0 0 1 7.45 1.96 9.057 9.057 0 0 1 2.407 3.114 8.994 8.994 0 0 1 .854 3.836v34.31a391.432 391.432 0 0 1-79.35 7.788c-62.719 0-117.615-13.541-147.988-33.818a59.18 59.18 0 0 1-22.48-24.206 30.133 30.133 0 0 1-2.82-12.489 33.228 33.228 0 0 1 6.132-18.523 3.938 3.938 0 0 1 2.913-1.783 3.962 3.962 0 0 1 3.217 1.152 85.183 85.183 0 0 0 10.923 9.12 178.227 178.227 0 0 0 56.377 24.137 363.41 363.41 0 0 0 80.337 11.015v16.979a13.372 13.372 0 0 0 3.942 9.476 13.466 13.466 0 0 0 4.367 2.905 13.52 13.52 0 0 0 5.151 1.021 13.564 13.564 0 0 0 9.497-3.946 13.44 13.44 0 0 0 3.963-9.456l.07-17.119Zm159.615-25.4a29.925 29.925 0 0 1-2.889 12.77 59.952 59.952 0 0 1-22.41 23.925 167.045 167.045 0 0 1-41.859 19.014v-38.73a8.953 8.953 0 0 1 1.647-5.25 9.02 9.02 0 0 1 4.413-3.31 152.381 152.381 0 0 0 37.773-18.453 82.482 82.482 0 0 0 11.064-9.19 3.963 3.963 0 0 1 4.878-.591c.504.309.932.726 1.252 1.222a32.659 32.659 0 0 1 6.131 18.593Z" clip-rule="evenodd"/><path fill="#C4C4C4" fill-rule="evenodd" d="M430 328.557a30.072 30.072 0 0 1-2.89 12.699 59.959 59.959 0 0 1-22.409 23.926C374.187 385.459 319.29 399 256.712 399c-62.579 0-117.616-13.541-147.989-33.818a59.182 59.182 0 0 1-22.48-24.206 29.851 29.851 0 0 1-2.819-12.419 33.299 33.299 0 0 1 6.13-18.593 3.939 3.939 0 0 1 2.914-1.783 3.947 3.947 0 0 1 3.218 1.152 80.518 80.518 0 0 0 10.923 9.12 176.594 176.594 0 0 0 56.376 24.137 374.499 374.499 0 0 0 93.657 11.155 390.938 390.938 0 0 0 79.349-7.788v14.033a13.289 13.289 0 0 0 1.006 5.139 13.332 13.332 0 0 0 2.916 4.358 13.428 13.428 0 0 0 9.539 3.904 13.482 13.482 0 0 0 9.517-3.925 13.393 13.393 0 0 0 3.942-9.476v-21.049a159.602 159.602 0 0 0 43.763-20.417 73.12 73.12 0 0 0 11.064-9.191 4.026 4.026 0 0 1 6.201.631A33.162 33.162 0 0 1 430 328.557Z" clip-rule="evenodd"/><path fill="#FF7900" fill-rule="evenodd" d="M430 328.557a30.072 30.072 0 0 1-2.89 12.699 59.959 59.959 0 0 1-22.409 23.926C374.187 385.459 319.29 399 256.712 399c-62.579 0-117.616-13.541-147.989-33.818a59.182 59.182 0 0 1-22.48-24.206 29.851 29.851 0 0 1-2.819-12.419 33.299 33.299 0 0 1 6.13-18.593 3.939 3.939 0 0 1 2.914-1.783 3.947 3.947 0 0 1 3.218 1.152 80.518 80.518 0 0 0 10.923 9.12 176.594 176.594 0 0 0 56.376 24.137 374.499 374.499 0 0 0 93.657 11.155 390.938 390.938 0 0 0 79.349-7.788v14.033a13.289 13.289 0 0 0 1.006 5.139 13.332 13.332 0 0 0 2.916 4.358 13.428 13.428 0 0 0 9.539 3.904 13.482 13.482 0 0 0 9.517-3.925 13.393 13.393 0 0 0 3.942-9.476v-21.049a159.602 159.602 0 0 0 43.763-20.417 73.12 73.12 0 0 0 11.064-9.191 4.026 4.026 0 0 1 6.201.631A33.162 33.162 0 0 1 430 328.557Z" clip-rule="evenodd"/><path fill="#C4C4C4" fill-rule="evenodd" d="M429.999 184.513a31.462 31.462 0 0 1-3.031 13.261 59.175 59.175 0 0 1-21.141 22.663 137.625 137.625 0 0 1-23.467 12.628 320.737 320.737 0 0 1-112.26 21.751v-18.874a26.925 26.925 0 0 1 4.616-15.095 27.107 27.107 0 0 1 12.297-9.953l18.604-7.577c15.856-5.754 25.934-14.384 25.934-23.925 0-17.471-33.545-31.644-74.911-31.644s-74.91 14.033-74.91 31.644c0 9.541 10.077 18.171 25.933 23.925l18.675 7.577a27.19 27.19 0 0 1 12.286 9.961 27.004 27.004 0 0 1 4.627 15.087v18.874a320.043 320.043 0 0 1-112.754-21.82 139.326 139.326 0 0 1-23.326-12.559 59.539 59.539 0 0 1-21.14-22.663A31.46 31.46 0 0 1 83 184.513C83 145.573 160.518 114 256.288 114c95.77 0 173.711 31.573 173.711 70.513Z" clip-rule="evenodd"/><path fill="#FF7900" fill-rule="evenodd" d="M429.999 184.513a31.462 31.462 0 0 1-3.031 13.261 59.175 59.175 0 0 1-21.141 22.663 137.625 137.625 0 0 1-23.467 12.628 320.737 320.737 0 0 1-112.26 21.751v-18.874a26.925 26.925 0 0 1 4.616-15.095 27.107 27.107 0 0 1 12.297-9.953l18.604-7.577c15.856-5.754 25.934-14.384 25.934-23.925 0-17.471-33.545-31.644-74.911-31.644s-74.91 14.033-74.91 31.644c0 9.541 10.077 18.171 25.933 23.925l18.675 7.577a27.19 27.19 0 0 1 12.286 9.961 27.004 27.004 0 0 1 4.627 15.087v18.874a320.043 320.043 0 0 1-112.754-21.82 139.326 139.326 0 0 1-23.326-12.559 59.539 59.539 0 0 1-21.14-22.663A31.46 31.46 0 0 1 83 184.513C83 145.573 160.518 114 256.288 114c95.77 0 173.711 31.573 173.711 70.513Z" clip-rule="evenodd"/></svg>