<svg xmlns="http://www.w3.org/2000/svg" fill="none" viewBox="0 0 512 512"><path fill="#000" fill-rule="evenodd" d="M512 256c0 141.385-114.615 256-256 256S0 397.385 0 256 114.615 0 256 0s256 114.615 256 256Z" clip-rule="evenodd"/><path fill="#F2F2F2" d="M220.016 367.199c-13.41 4.442-27.928 6.834-43 6.834C106.334 374.033 49 321.011 49 255.517 49 190.022 106.334 137 177.016 137c15.072 0 29.528 2.392 43 6.834-49.582 16.345-85.077 60.198-85.077 111.683 0 51.484 35.495 95.337 85.077 111.682ZM335.984 137c-15.072 0-29.528 2.392-43 6.834 49.582 16.345 85.077 60.198 85.077 111.683 0 51.484-35.495 95.337-85.077 111.682 13.41 4.442 27.928 6.834 43 6.834 70.744 0 128.016-53.079 128.016-118.516C464 190.079 406.666 137 335.984 137Z"/></svg>