<svg width="415" height="238" viewBox="0 0 415 238" fill="none" xmlns="http://www.w3.org/2000/svg">
<path d="M171.016 230.199C157.606 234.641 143.088 237.033 128.016 237.033C57.3335 237.033 0 184.011 0 118.517C0 53.0221 57.3335 0 128.016 0C143.088 0 157.544 2.39197 171.016 6.83421C121.434 23.1794 85.9388 67.0323 85.9388 118.517C85.9388 170.001 121.434 213.854 171.016 230.199ZM286.984 0C271.912 0 257.456 2.39197 243.984 6.83421C293.566 23.1794 329.061 67.0323 329.061 118.517C329.061 170.001 293.566 213.854 243.984 230.199C257.394 234.641 271.912 237.033 286.984 237.033C357.728 237.033 415 183.954 415 118.517C415 53.0791 357.666 0 286.984 0Z" fill="black"/>
</svg>
