<svg xmlns="http://www.w3.org/2000/svg" fill="none" viewBox="0 0 512 512"><path fill="#000" d="M256 512c141.385 0 256-114.615 256-256S397.385 0 256 0 0 114.615 0 256s114.615 256 256 256Z"/><path fill="url(#paint0_linear_3537_617)" d="M388.413 340.641c-6.712-5.933-15.285-9.27-24.234-9.27-10.067 0-19.387 4.078-26.471 11.495-26.099 28.183-49.586 38.937-83.142 38.937-35.047 0-59.281-11.125-85.752-39.307-6.711-7.047-16.405-11.496-26.098-11.496-8.948 0-17.896 3.337-24.607 9.641-14.168 13.721-14.913 36.341-1.492 50.431C156.883 433.717 199.386 453 254.566 453c54.061 0 95.817-19.283 135.71-61.928 13.796-14.461 12.677-37.081-1.863-50.431Z"/><path fill="url(#paint1_linear_3537_617)" d="M387.501 271C409.867 271 428 252.644 428 230s-18.133-41-40.499-41C365.133 189 347 207.356 347 230s18.133 41 40.501 41Z"/><path fill="url(#paint2_linear_3537_617)" d="M103.48 264.384c-18.915-11.575-25.22-36.592-13.723-55.635l67.501-113.137c11.498-19.043 36.347-25.39 55.262-13.816 18.915 11.576 25.22 36.593 13.722 55.636l-67.5 112.764c-11.498 19.416-36.347 25.39-55.262 14.188Z"/><path fill="url(#paint3_linear_3537_617)" d="M235.48 264.384c-18.915-11.575-25.22-36.592-13.722-55.635l67.5-113.137c11.497-19.043 36.347-25.39 55.261-13.816 18.917 11.576 25.22 36.593 13.724 55.636l-67.131 112.764c-11.497 19.416-36.346 25.39-55.632 14.188Z"/><defs><linearGradient id="paint0_linear_3537_617" x1="280.988" x2="77.675" y1="394.777" y2="186.313" gradientUnits="userSpaceOnUse"><stop stop-color="#5ACEFF"/><stop offset="1" stop-color="#00EEEA"/></linearGradient><linearGradient id="paint1_linear_3537_617" x1="415.832" x2="227.028" y1="259.408" y2="69.216" gradientUnits="userSpaceOnUse"><stop stop-color="#5ACEFF"/><stop offset="1" stop-color="#00EEEA"/></linearGradient><linearGradient id="paint2_linear_3537_617" x1="326.284" x2="138.877" y1="345.819" y2="155.985" gradientUnits="userSpaceOnUse"><stop stop-color="#5ACEFF"/><stop offset="1" stop-color="#00EEEA"/></linearGradient><linearGradient id="paint3_linear_3537_617" x1="394.606" x2="207.199" y1="280.169" y2="90.334" gradientUnits="userSpaceOnUse"><stop stop-color="#5ACEFF"/><stop offset="1" stop-color="#00EEEA"/></linearGradient></defs></svg>