<svg xmlns="http://www.w3.org/2000/svg" fill="none" viewBox="0 0 512 512"><path fill="#000" fill-rule="evenodd" d="M512 256c0 141.385-114.615 256-256 256S0 397.385 0 256 114.615 0 256 0s256 114.615 256 256Z" clip-rule="evenodd"/><path fill="#fff" d="M256 137.75c-63.677 0-115.297 48.932-115.297 109.292H84C84 156.996 161.007 84 256 84s172 72.996 172 163.042h-56.703c0-60.36-51.62-109.292-115.297-109.292Zm106.897 176.206c-18.448 35.343-58.268 60.294-105.006 60.294-46.74 0-86.559-24.951-105.007-60.294l-50.822 23.838C130.072 391.455 189.587 428 257.891 428c68.302 0 127.818-36.545 155.828-90.206l-50.822-23.838Z"/></svg>