<svg xmlns="http://www.w3.org/2000/svg" fill="none" viewBox="0 0 512 512"><path fill="#000" d="M256 512c141.385 0 256-114.615 256-256S397.385 0 256 0 0 114.615 0 256s114.615 256 256 256Z"/><path fill="#fff" fill-rule="evenodd" d="M459.203 206.231a6.568 6.568 0 0 1 1.28-.127c3.559 0 6.438 2.857 6.517 6.408v29.133a6.54 6.54 0 0 1-3.64 5.305c-.607.183-1.276.38-2.026.593-5.727 1.623-15.493 3.923-27.727 5.109l-1.21.105a3.2 3.2 0 0 0-2.33 2.831v.151l.001.127c.002.091.003.183.003.276l.002.182c.002.059.002.117.002.176 0 3.974-.173 7.9-.429 11.805l-.006.106-.005.062-.007.12a3.224 3.224 0 0 0 2.976 3.123l.045-.002c.203-.008.413-.016.615-.029 11.016-.614 19.259-2.373 24.833-4.039l.198-.059c.333-.099.674-.2.978-.294a6.914 6.914 0 0 1 1.258-.127c3.249 0 5.93 2.373 6.469 5.484v29.848a6.54 6.54 0 0 1-3.81 5.579l-.186.056-.163.048c-.412.122-.845.249-1.32.385-7.285 2.076-21.35 5.313-38.83 5.828l-.23.01-.106.004-.111.004a3.212 3.212 0 0 0-2.594 1.727 3.55 3.55 0 0 0-.213.565l-.009.025C395.034 383.418 331.327 431 256.537 431c-100.045 0-180.32-85.13-173.083-187.282C89.549 157.646 158.926 88.19 244.55 82.406c84.4-5.702 156.952 49.335 178.796 125.923l.007.033c.045.219.089.435.185.634a3.227 3.227 0 0 0 2.663 1.82c.101-.003.201-.004.3-.005l.225-.004c14.195-.153 24.564-2.221 31.202-4.179.452-.135.864-.266 1.275-.397Zm-72.798 57.078c-.01.198-.017.398-.024.597-.009.267-.019.534-.034.796-.369 1.356-1.526 2.359-2.976 2.408-.502-.105-1.011-.219-1.518-.332a255.492 255.492 0 0 1-10.642-2.57c-51.862-13.777-81.88-5.684-92.062-1.763a1.377 1.377 0 0 1-.128.047c-.043.015-.086.03-.124.049a6.533 6.533 0 0 0-3.761 4.677v32.2c.598 2.988 3.227 5.239 6.373 5.239.434 0 .858-.047 1.262-.131l.074-.02c.054-.015.104-.028.16-.041 15.329-4.035 50.973-10.61 88.206 2.373l1.419.485.247.082.069.023.062.019.077.024c1.093.528 1.861 1.632 1.861 2.932 0 .135-.032.257-.064.378a2.833 2.833 0 0 0-.049.207c-.22.476-.446.946-.674 1.417l-.111.232c-20.903 44.169-65.624 74.738-117.512 74.738-71.879 0-130.153-58.593-130.153-130.875s58.274-130.875 130.153-130.875c50.817 0 94.783 29.312 116.22 72.016.246.336.425.707.532 1.126.016.064.034.128.052.191.055.2.109.398.109.62a3.261 3.261 0 0 1-3.253 3.272c-.237 0-.456-.063-.674-.126l-.104-.03-.068-.019a1.887 1.887 0 0 0-.166-.036l-.01-.002c-.098-.018-.197-.036-.289-.079-49.098-12.578-78.222-5.432-88.965-1.488-.516.192-.953.362-1.378.537-1.728.898-3.016 2.517-3.406 4.484v32.418c.598 2.988 3.227 5.239 6.373 5.239.051 0 .101-.008.15-.015l.006-.001c.04-.006.08-.012.121-.014a98.339 98.339 0 0 1 2.625-.686c16.017-4.043 50.652-9.871 86.8 2.731l1.666.567c3.865 1.288 7.701 2.33 11.505 3.225.049.014.098.024.148.032l.014.003c.067.013.133.025.194.052.989.436 1.667 1.37 1.848 2.473.009.205.013.41.018.613l.001.007.007.31.028.922.003.112v.002c.024.805.048 1.61.048 2.419 0 1.735-.098 3.445-.195 5.154l-.004.06-.003.054-.001.011c-.028.511-.057 1.02-.083 1.53Z" clip-rule="evenodd"/></svg>