<svg xmlns="http://www.w3.org/2000/svg" fill="none" viewBox="0 0 512 512"><path fill="#000" d="M256 512c141.385 0 256-114.615 256-256S397.385 0 256 0 0 114.615 0 256s114.615 256 256 256Z"/><path fill="#fff" d="m177.757 299.725.03-2.022.02-.505.03-.506.061-1.516.06-.981.041-.505.04-.485.03-.506.091-.97.05-.505.262-2.396.323-2.366.151-.94.071-.455.241-1.395.081-.444.171-.92.101-.445.091-.455.091-.445.1-.455.182-.879.101-.445.413-1.749.231-.859.101-.435.131-.424.101-.415.111-.434.131-.425.101-.414.131-.425.131-.404.111-.405.131-.424.252-.809.12-.414.142-.405.262-.808.131-.384.131-.405.141-.404.131-.384.141-.405.141-.374.131-.384.141-.404.433-1.142.141-.364.293-.758.151-.374.141-.374.151-.364.151-.374.454-1.092.161-.354.141-.364.161-.354.151-.364.152-.343.161-.354.151-.344.323-.707.161-.334.302-.697.504-1.011.141-.344.161-.323.051-.081-.222-.435-.474-1.011-.171-.344-.161-.333-.151-.354-.162-.333-.161-.354-.151-.354-.161-.354-.151-.344-.162-.353-.151-.354-.161-.364-.141-.354-.161-.364-.142-.364-.473-1.091-.282-.749-.162-.363-.151-.374-.131-.374-.141-.385-.151-.374-.433-1.162-.131-.384-.283-.779-.685-1.991-.766-2.436-.121-.415-.131-.414-.1-.404-.252-.85-.111-.434-.131-.415-.101-.424-.232-.87-.201-.859-.101-.434-.121-.435-.403-1.779-.172-.89-.1-.455-.101-.444-.403-2.295-.161-.93-.071-.465-.151-.94-.061-.465-.07-.485-.051-.476-.07-.475-.061-.475-.262-2.416-.05-.495-.03-.485-.04-.506-.071-.97-.04-.506-.101-1.991-.04-1.011v-.505l-.031-.506v-1.546l-.01-.213-.141.081-.453.253-.454.273-.443.263-.464.263-.443.273-.454.283-.443.273-.454.293-.453.273-.444.293-.463.293-.433.293-.454.303-.443.293-.907.607-.434.313-.443.314-1.33.96-.434.334-.453.323-.434.334-.443.333-.867.688-.443.353-.423.344-.877.708-.423.374-.434.354-.433.363-.847.749-.433.374-.413.374-.423.394-.424.374-.423.404-.413.374-.837.799-.413.414-.413.405-.403.404-.423.404-.403.435-.403.404-.807.849-.393.435-.806.869-.383.435-.403.435-.383.445-.393.465-.383.444-.383.465-.383.445-.766.93-1.471 1.88-.373.496-.353.475-.735.98-.706.991-.342.505-.363.496-.685 1.01-1.341 2.063-.987 1.577-.958 1.617-1.239 2.183-.293.546-.302.556-.292.566-.857 1.688-.836 1.719-.806 1.718-.101.243.08.192.534 1.163.545 1.142.292.576.272.566.292.576.272.566 1.2 2.224.907 1.638.332.536.303.535.332.536.312.526.323.546.333.505.332.536 1.008 1.557.685 1.01.353.506.343.505.352.506.353.495 1.078 1.456.373.485.353.485.383.485 1.491 1.86.383.475.373.455.403.455.383.455 1.169 1.324.393.435.806.88 1.603 1.688.413.414.806.819.423.414.827.799.423.394.423.384.403.405.434.374.413.384 1.28 1.132 1.3 1.102.423.354 1.3 1.061.433.344.444.343.867.678.443.323.443.344.444.323.453.314.434.323 1.34.94.443.303.454.304.887.606.453.283.444.304 1.35.849 2.257 1.364.907.506.182.111v-.758Zm.705-88.683.454-.263.463-.243.444-.242 1.36-.708.454-.232.453-.243.464-.222.443-.223.454-.212.453-.232 2.268-1.052.453-.192.444-.202.463-.192.444-.202 2.7-1.082.887-.344.454-.161.453-.172.444-.152.443-.172.444-.151.443-.162.443-.152.444-.141.453-.152 1.31-.424.444-.132.443-.141.867-.263.443-.131.867-.243.433-.111.434-.132.433-.121.433-.101 1.714-.445.433-.101.413-.101.433-.101.847-.182.423-.101 1.673-.364 1.26-.243.403-.07.413-.081.826-.142.404-.071.816-.141.403-.061.413-.07 1.21-.182.382-.051.404-.061.403-.05.393-.061.796-.101.383-.05.403-.051.373-.04.403-.051.383-.03.383-.041.393-.04.756-.081.403-.04.363-.031.383-.03.382-.041 1.119-.101.091-.101.201-.293.665-.91.202-.313.222-.303.232-.324.231-.303.444-.607.231-.303.232-.313 1.189-1.547.242-.323.242-.304.262-.323.242-.303.242-.314.262-.313.252-.303.766-.94.272-.324.272-.303.252-.303.554-.647.262-.304.565-.626.272-.324 1.149-1.243.292-.324.292-.303.292-.313.303-.304.604-.636.303-.304.302-.313.302-.303.313-.334.645-.606.312-.304.323-.333 1.31-1.233.332-.294.333-.303.342-.313.333-.314.363-.303.685-.606.353-.304.342-.303.353-.303.373-.303.705-.607.383-.303.363-.283.373-.303.383-.283.373-.304.373-.293.766-.586.403-.303.373-.273 1.189-.88 2.025-1.415.424-.273.403-.283.433-.273.837-.556.856-.536.434-.283.443-.263.423-.273.887-.525.443-.253.444-.263.453-.263.182-.101-.051-.03-.453-.253-.464-.252-.463-.263-.927-.495-.464-.253-.474-.233-.473-.242-.464-.233-.957-.485-.978-.465-.494-.233-.493-.222-.484-.232-.494-.223-.504-.232-.504-.202-.504-.233-.503-.212-.504-.202-.504-.213-.524-.202-.504-.222-1.048-.405-1.562-.576-.544-.192-.525-.192-.534-.182-.544-.182-.534-.182-.544-.182-.544-.172-.555-.161-.534-.172-.554-.172-.544-.162-1.129-.303-.544-.162-.564-.151-1.139-.294-.554-.141-.575-.142-1.149-.273-.564-.131-1.754-.364-.574-.111-1.179-.222-.585-.102-1.189-.212-.584-.101-.605-.091-.605-.101-.584-.071-.605-.091-.604-.07-.605-.081-1.209-.142-1.22-.131-.625-.041-1.834-.161-1.239-.081-.625-.021-.625-.05-.605-.02-.645-.02-1.249-.041h-.635l-.625-.02h-2.529l-.635.01-.635.03-.635.01-1.28.061-.635.02-.645.041-.645.05-.635.041-1.29.101-.645.06-.645.051-.635.071-.403.05-.04.061-.756 1.021-.373.536-.373.505-.352.536-.373.515-.353.526-.342.526-.363.525-.343.536-.332.536-.353.536-.323.525-.322.546-.333.526-.635 1.071-.302.546-.322.526-.303.546-.887 1.637-.292.536-.282.556-.282.536-.272.556-.282.546-.525 1.101-.262.536-.503 1.112-.504 1.092-.242.566-.464 1.102-.221.546-.454 1.112-.212.556-.826 2.223-.201.556-.182.546-.201.566-.192.546-.534 1.668-.171.556-.162.556-.483 1.658-.293 1.112-.423 1.658-.403 1.658-.111.545-.453 2.204-.101.536-.393 2.204-.161 1.071-.081.556-.151 1.082-.081.535-.07.536-.232 2.153-.05.536-.121 1.597-.061.526-.02.536-.071 1.051-.06 1.577-.05 1.557v.525l-.011.506v.829l.303-.182.463-.243-.01-.01Zm76.661 133.262-2.207-1.314-1.713-1.102-.403-.273-.433-.273-.404-.273-.433-.283-.806-.566-.413-.283-.806-.566-.404-.293-.383-.293-.403-.283-1.914-1.456-.383-.303-.373-.283-.383-.304-.353-.293-.383-.303-.343-.303-.372-.304-.363-.303-.353-.303-.363-.293-.342-.304-.706-.606-.322-.303-.353-.304-.343-.303-.997-.92-.323-.313-.332-.303-.323-.324-.645-.606-1.26-1.244-.302-.313-.302-.303-.605-.637-.302-.303-.887-.941-.272-.313-.302-.313-.283-.303-.272-.324-.282-.303-.282-.324-.262-.303-.282-.323-.262-.304-.282-.323-.807-.94-.252-.304-.262-.323-.252-.303-.252-.314-.262-.303-.251-.323-.232-.304-.262-.303-.252-.323-.474-.617-.242-.313-.715-.93-.222-.304-.232-.313-.232-.303-.221-.314-.665-.909-.232-.304-.222-.323-.211-.293-.222-.304-.202-.313-.06-.061-.041-.01-.745-.06-1.139-.101-.383-.031-.373-.04-.403-.041-.373-.03-.383-.04-.393-.051-.776-.081-.383-.05-.403-.041-.383-.05-.403-.051-.786-.101-.403-.05-.786-.112-.806-.131-.404-.051-.806-.131-.423-.071-1.209-.212-.837-.142-.826-.161-.423-.091-.403-.071-2.117-.445-.403-.101-.433-.091-.857-.202-.433-.101-.847-.202-.443-.122-.413-.111-.877-.222-.857-.243-.433-.121-.887-.253-.433-.121-.434-.142-.443-.131-.443-.152-.444-.121-.433-.142-1.34-.444-.434-.162-.443-.142-.434-.161-1.36-.496-.433-.151-.454-.172-.453-.182-.444-.172-.453-.182-.444-.172-.453-.192-.454-.182-.443-.192-.464-.182-.453-.202-.444-.192-.463-.202-.444-.202-.453-.203-1.351-.626-.463-.233-.454-.202-.907-.465-.443-.222-.474-.233-.443-.242-.454-.233-.453-.243-.464-.242-.433-.253-.464-.242-.453-.263-.272-.152v.778l.02.526v.506l.04 1.566.071 1.587.03.506.04.546.021.525.05.526.04.536.051.525.04.546.101 1.052.07.545.192 1.618.08.536.061.545.101.536.141 1.092.101.536.08.546.101.545.101.556.201 1.092.121.546.101.546.121.556.242 1.092.262 1.112.262 1.091.443 1.668.161.556.142.556.171.546.151.566.181.556.162.546.181.546.171.566.202.546.171.556.383 1.112.403 1.112.202.545.201.567.454 1.112.201.545.242.566.222.536.222.556.242.556.252.556.252.546.231.546.252.566.524 1.092.262.556.282.535.273.556.544 1.082.292.556.292.536.282.546.605 1.091.302.536.303.546.322.526.323.545.312.536.655 1.062.343.546.332.515.343.536 1.048 1.587.353.526 1.098 1.566.373.506.766 1.041.081.101.322.04.645.071.655.061 1.925.162.645.03.645.051 1.28.06.625.02.645.031.635.02h.634l.635.02.645.01h2.52l1.249-.04.625-.031.625-.01.635-.03 1.239-.071.625-.05.605-.031 2.469-.212.605-.061 2.428-.283.605-.101.605-.07.604-.091.585-.081.604-.101 1.19-.203.584-.101 1.179-.212.585-.121.594-.111.575-.122 1.733-.384 1.149-.273 2.257-.566.555-.162.554-.151 1.129-.324 2.197-.667 1.068-.354.554-.182.534-.171 1.068-.385.524-.181 2.621-.991.504-.223 1.027-.404.504-.232.504-.203.504-.232.504-.202.504-.233.504-.212.473-.243.504-.222.484-.243.484-.212.473-.243.968-.475.947-.485.464-.253.473-.242 1.391-.748.907-.516.091-.05-.212-.132-.897-.505Zm79.433-131.867-.031 1.516-.02.506v.505l-.06 1.011-.02.505-.132 1.972-.04.505-.121 1.466-.06.475-.041.485-.05.485-.06.496-.061.465-.06.485-.252 1.89-.081.475-.07.455-.232 1.405-.081.455-.07.455-.091.465-.101.455-.07.445-.101.454-.081.445-.101.455-.1.435-.091.445-.202.889-.201.87-.111.434-.101.435-.463 1.718-.101.415-.131.424-.101.425-.252.839-.121.414-.131.405-.242.808-.141.425-.262.809-.121.404-.141.384-.121.404-.141.405-.272.768-.141.404-.141.385-.131.384-.151.394-.151.374-.131.394-.152.374-.141.364-.292.768-.151.354-.141.384-.303.728-.151.374-.161.354-.302.728-.161.354-.142.353-.312.708-.302.697-.172.354-.151.344-.161.334-.161.353-.162.334-.151.344-.161.343-.161.324-.161.343-.101.203.121.252.161.334.635 1.344.161.354.161.334.152.354.161.353.161.334.151.364.151.354.172.353.151.344.141.364.474 1.092.141.364.453 1.091.302.759.131.374.303.748.141.384.151.374.282.778.121.394.292.769.676 1.991.131.415.121.394.262.808.121.425.131.404.12.425.131.404.101.425.252.839.111.435.101.424.131.414.111.435.534 2.174.403 1.779.262 1.334.101.465.09.455.172.91.07.465.162.93.06.465.161.93.061.465.07.485.061.465.07.485.061.465.05.485.061.475.05.486.04.495.101.96.05.506.041.485.04.495.03.485.031.506.04.505.03.485.03.496.081 2.022v1.01l.03.516v1.031l.323-.202.453-.253.454-.273.443-.263.464-.262.443-.273.454-.294.443-.272 1.36-.85.444-.303.453-.303.444-.283.897-.607.443-.303.444-.323.443-.304.443-.323.434-.324.453-.323.434-.344.443-.313.443-.344.434-.344.876-.677.434-.343.877-.708.423-.364.433-.364.423-.354.434-.374.423-.364.423-.384.434-.374.846-.758.403-.404.434-.374 1.249-1.203.403-.405.424-.404.403-.404.403-.415 1.612-1.688.806-.869.787-.88.382-.444.404-.445.383-.445.382-.465.383-.445 1.149-1.395 1.482-1.89.725-.971.353-.475 1.068-1.486.343-.505.363-.505.342-.506.333-.505.353-.516.665-1.031 1.31-2.113.635-1.061.625-1.092.322-.546.292-.546.313-.555.302-.546.282-.566.303-.556.292-.566.272-.556.282-.567.564-1.142.262-.576.283-.576.252-.587.272-.576-.242-.535-.262-.577-.272-.576-.272-.586-.555-1.132-.302-.566-.272-.566-.302-.567-1.18-2.223-.614-1.092-.313-.536-.322-.536-.313-.535-.322-.546-.333-.526-.312-.526-.333-.525-.675-1.041-.322-.506-.353-.526-.695-1.01-1.401-1.992-.373-.495-.705-.971-.373-.485-.736-.95-.383-.465-.373-.465-.373-.475-.373-.465-.393-.455-.373-.455-.393-.465-.382-.435-.404-.454-.383-.445-.403-.435-.383-.435-.806-.869-1.209-1.274-.816-.818-.807-.819-.433-.404-.826-.809-.837-.768-.423-.395-.423-.384-1.703-1.516-.424-.354-.856-.728-.444-.354-.423-.353-.443-.354-.434-.344-.443-.343-1.31-1.011-.444-.334-.887-.647-.433-.323-1.34-.951-.444-.303-.453-.303-.433-.303-.444-.304-.463-.293-.444-.303-1.34-.849-.464-.273-.443-.283-.907-.546-.454-.253-.453-.273-.816-.455v1.062Zm-77.629-45.054.444.273.453.252.887.536.423.273.434.253 1.713 1.092.413.283.423.283 1.643 1.112 1.209.859.403.283.383.293.403.283 1.532 1.162.766.607 1.471 1.183.726.606.705.597 1.411 1.213.323.303.352.303.333.303.343.304.322.323.665.607.333.313.312.303.333.314 1.249 1.243.303.313.302.304.323.303 1.773 1.89.575.607.282.333.292.304.262.313.282.313.282.304.263.323.282.313.534.627.524.627.252.303.262.324.262.303.242.313.262.304.494.636.251.304.242.303.252.323.948 1.234.231.323.222.303.242.304.222.303.221.313.232.304.212.303.232.303.221.324.212.293.222.303.211.303.182.253.201.02.373.03 1.129.102.373.03.383.04.393.031.372.03.404.04.372.051.787.081.382.05.383.041.404.05.382.041.797.111.403.04.786.112.403.07.403.051 2.016.323.413.081.403.061.423.071.816.161.424.071.403.081.846.172.403.081 1.27.263.423.101.424.091.433.101.423.101 1.714.414.433.111.423.102.433.131.434.101.866.263.444.101.423.131.444.132.433.141.887.253.433.141.444.142.433.142 1.784.596.443.152.443.171.444.142.453.172.444.172.907.333.433.172.454.182.443.172 1.371.556.886.384.464.202.443.192.464.202.433.203.464.202.453.202.464.222.443.202.454.233.463.212.454.233.443.222.454.233.453.242.464.233.907.475.453.253.444.242.463.253.454.253.091.06-.01-.485v-1.031l-.021-.526-.02-.505-.01-.526-.03-.525v-.516l-.061-1.061-.04-.516-.02-.536-.04-.535-.041-.516-.05-.546-.04-.525-.101-1.072-.071-.536-.05-.525-.071-.556-.131-1.072-.07-.546-.081-.536-.161-1.081-.081-.546-.191-1.082-.091-.556-.302-1.637-.121-.546-.111-.546-.121-.556-.373-1.658-.403-1.647-.443-1.668-.162-.546-.151-.566-.493-1.648-.525-1.678-.967-2.77-.202-.556-.201-.546-.212-.566-.665-1.668-.232-.546-.221-.555-.958-2.204-.262-.546-.252-.556-.252-.546-.272-.556-.262-.546-.826-1.627-.857-1.648-.584-1.082-.303-.545-.322-.536-.302-.546-.323-.536-.312-.536-.333-.535-.322-.536-.655-1.061-.343-.536-1.048-1.577-.353-.536-.363-.505-.725-1.052-.383-.525-.373-.506-.373-.535-.302-.405h-.071l-.645-.081-.655-.06-.635-.071-.645-.051-.645-.04-.645-.061-1.269-.07-.645-.021-.645-.04-1.905-.061h-.645l-.635-.03h-1.894l-.625.02h-.635l-.625.02-.625.031-.625.01-.635.03-1.854.101-.604.041-.635.05-1.845.152-.604.06-1.834.203-1.21.161-.604.091-.605.071-2.378.384-1.169.202-1.19.233-2.317.475-1.149.273-.575.121-.564.142-.574.141-.575.152-.564.141-.555.152-.554.162-.554.151-.564.162-.545.162-.564.162-.554.171-.534.172-1.089.344-.544.182-.524.182-.544.182-.534.202-.534.172-.514.202-.534.192-1.049.404-.503.203-.535.202-.514.202-1.007.425-.504.222-.504.202-.504.233-.504.212-.998.465-.483.212-.494.243-.494.222-.484.243-.473.222-2.369 1.213-1.39.748-.444.263-.463.253-.272.162.393.222.443.253v.01Zm59.408 188.799.383-.506.726-1.051.372-.526.706-1.051 1.038-1.577 1.33-2.143.958-1.618.917-1.617.594-1.092.282-.535.303-.546.544-1.082.282-.556.806-1.648.242-.545.262-.556.242-.536.252-.566.242-.546.242-.556.221-.556.232-.546.232-.566.212-.546.231-.556.212-.546.625-1.668.393-1.112.373-1.112.181-.566.363-1.091.171-.566.172-.546.161-.566.322-1.112.151-.556.142-.546.151-.546.131-.556.141-.546.141-.566.141-.546.111-.556.131-.546.131-.556.332-1.647.101-.546.101-.556.111-.536.191-1.092.071-.546.101-.545.302-2.174.071-.525.07-.556.171-1.618.051-.515.04-.536.061-.536.04-.536.03-.525.04-.536.071-1.041.071-1.587.06-2.072v-1.042l.01-.505-.131.05-.907.516-.453.253-.444.242-1.824.961-.907.455-.453.222-.444.222-.453.213-.464.222-1.36.627-.444.202-.453.212-.454.192-.453.202-.454.192-.443.182-.454.203-1.35.535-.444.172-.453.182-.443.172-.454.162-.443.172-.444.161-.453.162-.444.152-.443.161-.887.304-1.33.434-.423.142-.444.141-.453.142-1.744.515-.433.122-.433.131-.444.101-.423.132-.444.101-.423.131-.433.101-.423.101-.434.101-.413.122-1.713.404-.423.081-.404.101-.856.172-.413.081-.403.091-1.27.242-.403.071-.403.081-1.24.202-.403.081-.403.071-.816.121-1.21.182-.383.061-.403.05-.403.061-.403.04-.383.061-.403.04-.383.061-.393.03-.393.051-1.149.121-.403.051-.373.03-.373.041-.403.04-.736.061-.403.04-.363.03-.362.021-.182.02-.191.273-.222.303-.201.313-1.109 1.527-.222.313-.232.303-.453.627-.242.303-.232.304-.473.626-.252.314-.474.616-.252.314-.242.303-.504.637-.252.303-.503.637-.273.303-.262.324-.272.303-.252.313-.272.324-.272.303-.544.637-.292.303-.262.313-.575.617-.282.334-.282.303-.302.313-.293.324-.282.303-.302.324-.302.303-.907.94-.625.617-.303.323-.634.607-.323.303-.322.323-.666.607-.322.303-.665.637-.685.606-.323.304-.363.303-.342.303-.353.314-1.058.909-.363.304-.736.586-.725.606-.383.294-.373.293-1.149.879-.383.303-.786.577-.383.293-.403.273-.403.293-2.016 1.415-1.259.829-.434.283-.423.273-.857.536-.443.273-.423.262-1.321.799-.463.263-.443.253-.363.202.242.141.453.253.474.253.453.263.454.242.473.253.464.232.474.253.947.485.484.233.483.242 1.452.688.503.232.988.435.504.232.484.223 1.028.424.503.213 2.056.818 1.048.405.524.192.535.192.534.182.524.202.544.172.534.182.534.172.554.182.535.171.554.172.544.162 1.109.344.554.141 1.118.314.555.141.564.162.574.141.565.132.564.141 1.149.273.584.122.575.121 1.753.374.575.101.594.101.585.121.584.091 1.2.203.594.091.605.091.605.07.594.091.605.081.605.071.604.061.605.08.615.051.614.071 1.845.151.614.041.605.05.635.031.615.04.634.03.605.021 1.27.04.615.02.645.01h3.144l.645-.03h.635l.635-.03 1.28-.051 1.914-.111 1.935-.152.645-.07 1.29-.122.121-.02.272-.364.383-.525Z"/><path fill="#EA5CF7" d="M281.023 211.77a2.255 2.255 0 0 1 1.915 1.091l24.64 41.911a2.13 2.13 0 0 1 0 2.183l-24.63 42.012a2.208 2.208 0 0 1-1.915 1.091l-49.401.142a2.264 2.264 0 0 1-1.925-1.082l-24.74-42.041a2.16 2.16 0 0 1 0-2.184l24.64-42.153a2.193 2.193 0 0 1 1.934-1.092l49.482.122Z"/><path fill="#fff" d="m99.171 344.001-.534-1.739-.232-.869-.262-.89-.474-1.749-.866-3.518-.575-2.658-.181-.869-.332-1.79-.474-2.638-.524-3.548-.111-.9-.121-.879-.192-1.769-.08-.9-.1-.879-.142-1.78-.181-2.648-.05-.89-.081-1.758-.04-1.759v-.89l-.03-.879v-1.769l.01-.87.03-.879.01-.88.03-.869.04-.879.03-.87.04-.879.05-.87.072-.859.05-.879.07-.859.081-.85.08-.879.081-.859.303-2.578.1-.849.121-.849.131-.87.131-.839.121-.849.151-.839.142-.859.14-.829.162-.849.161-.829.343-1.678.171-.819.373-1.668.605-2.466.201-.809.222-.829.232-.808.211-.809.242-.809.232-.808.242-.809.484-1.587.262-.789.272-.798.262-.789.272-.778.272-.799.574-1.536.293-.789.604-1.526.303-.778.604-1.517.333-.748.322-.768.323-.738.201-.445-.242-.505-.957-2.254-1.24-3.053-.302-.779-.282-.758-.272-.788-.302-.779-.283-.778-.262-.799-.534-1.566-.252-.789-.262-.809-.484-1.607-.231-.788-.242-.809-.444-1.617-.634-2.467-.202-.829-.191-.808-.192-.829-.181-.839-.192-.819-.322-1.678-.172-.839-.16-.839-.142-.839-.161-.849-.262-1.699-.252-1.688-.242-1.718-.1-.849-.102-.87-.1-.849-.081-.859-.07-.869-.091-.86-.131-1.738-.05-.87-.061-.869-.09-1.749-.031-.859-.08-3.518v-1.769l.03-1.749.03-.889.01-.87.04-.879.03-.89.06-.889.051-.9.05-.869.061-.88.09-.899.061-.88.081-.889.1-.89.081-.889.101-.88.121-.889.11-.9.122-.89.14-.879.122-.89.13-.879.162-.879.151-.9.151-.88.182-.879.161-.9.181-.879.787-3.528.423-1.759.222-.89.231-.879.252-.869.232-.88.262-.879.242-.87.272-.879.262-.859.03-.041-.443.445-1.24 1.375-.604.667-1.824 2.072-.605.718-.605.708-.564.707-.595.728-.574.708-1.149 1.465-.564.708-.565.748-.534.748-.564.748-.544.748-1.603 2.285-1.552 2.304-.504.789-.493.778-.504.799-.494.778-1.431 2.406-1.39 2.426-.908 1.618-.876 1.667-.404.829-.433.839-.413.829-.413.849-.403.839-.414.85-.383.839-.383.869-.755 1.708-.383.86-.353.869-.343.859-.363.869-.332.88-.343.869-.332.87-1.27 3.548-.302.889-.282.9-.283.889-.282.91-.282.88-.262.909-.252.9-.262.92-.242.89-.252.909-.221.92-.232.92-.434 1.82-.201.93-.403 1.839-.192.93-.171.91-.192.93-.16.92-.152.95-.171.91-.282 1.88-.121.92-.131.94-.333 2.8-.202 1.881-.08.93-.09.95-.061.95-.07.93-.061.95-.05.93-.081 1.891-.02.95-.03.93v.95l-.031.95v1.87l.08 3.781.04.94.061.94.04.95.061.94.07.951.071.93.162 1.88.1.94.101.93.1.95.122.93.13.93.122.94.13.92.132.95.171.93.141.93.504 2.78.564 2.77.212.91.202.93.221.909.212.91.705 2.73.504 1.819.272.91.262.9.565 1.799.292.889.282.9.302.88.303.889.635 1.769.322.89 1.008 2.628.363.859.342.859.373.86.373.879.363.859 1.562 3.397.413.849.423.829.404.839.433.839.423.829 1.32 2.466.907 1.618.474.829.464.798.473.809 1.461 2.365.504.789.504.778.504.789 1.552 2.325.524.748.544.768.534.748.545.758.554.738.554.748.565.728.554.738 1.149 1.455.574.708 1.18 1.446.584.707.604.698 1.814 2.072.635.687.605.678.635.667.473.515-.03-.111-.262-.879Zm155.227 89.319-.887-.202-2.691-.697-.887-.243-.897-.253-.887-.242-.876-.253-.887-.273-.867-.273-.887-.273-.866-.273-.877-.303-.857-.283-2.6-.92-.836-.313-1.713-.647-1.693-.667-.827-.344-1.673-.708-1.663-.727-2.469-1.133-.806-.363-4.031-2.022-.776-.405-.796-.424-2.348-1.294-1.542-.89-3.043-1.839-.746-.465-.736-.475-.746-.476-.735-.475-.736-.505-.736-.475-.715-.506-.716-.495-1.441-1.011-.705-.525-.706-.506-.705-.526-.685-.515-1.381-1.061-1.36-1.092-.666-.526-.665-.566-.655-.546-.675-.556-1.945-1.688-1.28-1.152-.625-.566-.635-.597-.624-.566-.605-.596-.615-.576-1.209-1.193-1.189-1.213-.585-.607-.574-.606-.585-.607-.574-.616-.554-.617-.575-.617-.554-.627-.544-.626-.555-.627-1.088-1.264-.524-.646-.544-.637-.504-.647-.534-.647-.504-.627-1.008-1.314-.494-.647-.393-.526-.383-.04-.826-.101-.836-.101-.817-.101-2.489-.334-1.643-.263-.836-.131-2.479-.455-.837-.152-.816-.172-1.663-.343-1.652-.374-.837-.202-.816-.182-1.663-.415-.816-.222-.847-.223-.816-.222-.826-.243-.817-.222-.826-.253-.816-.263-.847-.252-.806-.263-.837-.263-.806-.273-1.653-.566-2.448-.9-1.613-.606-.816-.334-.816-.323-1.623-.667-1.612-.688-.807-.354-.796-.363-.806-.374-.796-.354-1.592-.769-.786-.404-.807-.384-.776-.404-.796-.405-1.562-.819-2.338-1.293-2.318-1.345-1.531-.91-2.278-1.435-2.257-1.466-1.482-1.011-.756-.525-1.461-1.042-1.451-1.061-.746-.536-1.431-1.091-.705-.566-.726-.567-.705-.566-1.411-1.142-.696-.606-1.38-1.173-2.046-1.799-1.35-1.234-1.986-1.89-1.31-1.294-.645-.647-1.29-1.314-.624-.667-.162-.152.252.758.564 1.729.605 1.749.605 1.718.342.849.313.87.353.859.332.839.353.859.705 1.698.373.839.373.86.373.839.776 1.678.403.839.403.819.403.839.837 1.657.866 1.638.444.819.443.808.464.809.907 1.638.483.808.484.789.474.809.977 1.577 1.522 2.355.514.778.534.779.544.768.514.768.555.758.554.779.544.748.564.768.555.738 1.149 1.496.574.728 1.199 1.486.585.717.604.728 1.22 1.436.635.707.614.708.635.707.635.698 1.29 1.385 1.31 1.375.655.677.665.667.686.657.675.677.665.657 2.096 1.951 2.117 1.901.705.627.716.616 1.471 1.233.725.587.736.606.746.597.746.606.755.576 2.278 1.719.776.566.776.556.776.546.786.556.776.536 1.592 1.071 2.399 1.557.806.505.816.496.817.505.826.475.826.505 1.643.941 1.683.94 2.519 1.344 1.703.869.867.425.857.415 2.59 1.213.887.404 1.743.778.877.364.887.364.886.374.887.364.887.334.897.353.887.324.907.354.887.323 1.814.617.907.323 1.814.587.907.283.907.273.927.283 1.824.525.937.253 1.854.495.907.223.938.232.937.223.917.222 3.739.788.927.172.947.182.937.162.927.172.948.151.937.152.937.142.948.131 2.821.364.958.111.947.091.927.101.968.101.927.071 1.904.141.938.071 1.894.101.937.021.948.05.947.03 1.905.031.937.02 2.832-.02 1.884-.041 1.885-.06.937-.061.947-.04.928-.061.947-.061.927-.081.947-.07.917-.071.938-.101.927-.101.947-.101.927-.101.917-.132.937-.111.907-.121 1.865-.273 2.761-.475 1.814-.324.927-.182.907-.192.907-.182.907-.202.504-.121-.836-.192-.907-.203Zm145.179-59.752 1.441-2.405.907-1.608 1.35-2.436.444-.839.423-.809 1.25-2.486.806-1.668.776-1.688.383-.829.373-.86.372-.828.363-.86.353-.849.343-.849.352-.849.333-.859.322-.86.333-.859.312-.869.313-.849.302-.87.302-.859.575-1.739.272-.879.101-.303-1.845 1.91-.655.667-.645.637-1.31 1.284-.655.627-.675.637-.665.616-1.35 1.223-.686.607-.675.617-.695.586-.686.606-1.39 1.163-2.127 1.708-2.146 1.668-.736.536-.715.536-.726.535-2.217 1.567-.746.506-.725.505-.756.506-.746.505-.756.485-.756.465-.755.485-.756.465-.766.486-.766.444-.766.465-.786.445-.766.445-1.562.869-1.542.849-1.572.819-.806.405-.786.404-.796.404-.786.384-1.593.759-.796.363-.806.354-.786.364-.806.354-.807.344-.816.333-.806.354-.806.313-.827.324-.806.323-.816.304-.806.313-.827.293-.806.303-.826.283-2.459.839-.807.263-2.479.758-1.652.465-.817.243-.826.233-.836.212-.827.222-.836.202-.827.203-.806.202-2.499.556-1.643.343-.846.162-.827.162-.806.141-.846.152-1.653.273-.816.121-.837.142-.826.101-.807.121-.846.101-1.643.202-.665.071-.141.182-.494.667-.504.647-.503.657-.494.647-1.038 1.294-.514.637-1.613 1.921-.534.606-.554.637-.564.627-.545.627-.564.626-.584.607-.565.606-1.159 1.234-1.179 1.213-1.814 1.789-1.844 1.759-1.26 1.142-.635.586-.655.566-.635.556-.655.577-.665.555-.655.556-.665.536-.665.566-.665.536-.685.536-.696.546-.675.535-2.096 1.567-.685.506-.716.515-.726.506-.705.515-.726.496-.735.495-.726.495-.725.475-2.984 1.901-.755.475-.766.445-.766.465-1.532.889-2.338 1.304-.796.425-.786.404-.786.435-2.399 1.213-.816.404-.806.374-.806.394-2.469 1.112-1.663.738-.837.344-.846.354-1.683.687-.847.314-.846.333-.867.313-.846.324-.857.303-.867.303-.866.294-.877.303-.867.283-.877.283-.866.263-.877.283-2.65.768-.897.233-.877.242-.907.233-.887.232-.907.223-.887.212-.907.202-.403.101.071.02.907.192.907.203.907.171.917.192 2.751.496.917.151.907.142.927.152.917.131.937.131 3.699.465.947.081.927.101.938.081 1.864.152.937.071.947.05.938.061 1.864.081.957.04.948.03h.937l.947.011 1.875.01 1.884-.021 1.915-.04.937-.03 3.789-.203 1.885-.141.947-.081.937-.091.948-.081 1.894-.202.928-.121 1.884-.253.947-.141.948-.132.947-.141.937-.162.937-.152.928-.172.957-.171.927-.172.937-.192 1.855-.405.947-.202.917-.212.937-.202 1.854-.475 1.845-.486.927-.252.907-.263.917-.253 1.834-.556.927-.283.897-.293 2.721-.91.907-.313.887-.334.907-.333.897-.334.897-.344 1.773-.707.887-.364.877-.354 1.754-.758 3.496-1.587.857-.405 1.713-.859.857-.404.846-.455.857-.435.836-.455.847-.454 1.673-.91.836-.485.827-.465.806-.496.836-.485.827-.505.796-.496.826-.505.806-.506 2.379-1.577.806-.535.786-.536.776-.546.786-.546.766-.566.776-.566 1.532-1.132.746-.576.755-.587.746-.596.756-.576.726-.607.745-.606.726-.607.736-.606.725-.627.706-.637.705-.606.726-.647.705-.637.695-.637.676-.657.705-.647 1.361-1.324.675-.667.655-.678.665-.667 1.31-1.354.655-.698.635-.708.645-.687.635-.707.605-.708.634-.708.605-.707.635-.728.584-.718.605-.738.605-.717.584-.738.575-.738 1.169-1.486.564-.758.544-.748.565-.759.544-.768.544-.758 1.078-1.537 1.038-1.546 1.522-2.355.998-1.598Zm13.685-204.194.252.88.716 2.628.453 1.749.202.899.221.88.202.869.584 2.659.333 1.779.474 2.648.141.89.141.879.131.89.131.899.121.88.101.889.1.87.121.899.081.9.081.869.1.89.071.89.06.879.071.89.03.889.061.88.05.899.05.87v.889l.071 2.628v2.649l-.01.869-.03.89-.01.879-.031.87-.04.879-.06.869-.041.86-.101 1.738-.07.87-.081.869-.08.859-.091.87-.081.859-.312 2.577-.111.839-.131.86-.121.859-.262 1.678-.141.859-.151.839-.151.849-.151.829-.172.839-.181.839-.161.829-.373 1.658-.796 3.295-.212.809-.232.809-.201.809-.242.828-.242.789-.232.809-.242.798-.262.809-.242.788-.272.779-.252.788-.282.799-.272.778-.272.799-.575 1.536-.302.768-.292.789-.605 1.516-.322.768-.625 1.507-.655 1.496.01.06.333.759.342.748.323.748.604 1.516.323.758.604 1.537.303.778.282.778.282.769.282.778.282.788.263.789.544 1.577.242.809.252.788.493 1.597.232.809.665 2.426.645 2.466.575 2.477.352 1.658.172.829.161.849.161.829.161.849.141.839.152.859.141.829.121.859.131.849.121.85.231 1.718.081.849.121.859.091.86.07.859.081.879.08.849.121 1.749.071.87.131 2.618.03.859.061 2.628v2.649l-.01.869-.031.889-.01.88-.03.89-.071 1.758-.05.89-.191 2.659-.071.879-.07.91-.192 1.769-.202 1.769-.11.879-.111.91-.141.869-.121.89-.131.879-.151.89-.162.889-.131.88-.171.9-.343 1.748-.362 1.79-.202.879-.202.869-.201.88-.222.889-.211.88-.706 2.628-.252.89-.252.869-.272.879-.242.87-.201.556.705-.738 1.23-1.355.624-.677 1.814-2.092 1.19-1.416.574-.707.585-.728.564-.718.594-.728.555-.738.574-.727.554-.728 1.089-1.506.554-.759 1.592-2.274 1.028-1.536 1.008-1.567.504-.799.504-.768.484-.809.483-.788.484-.809 1.854-3.235.444-.808 1.31-2.477.423-.839.423-.829.424-.839.403-.839.403-.859.393-.829.403-.859.746-1.709.383-.859.715-1.718.696-1.749.352-.88.655-1.759.303-.869.342-.879.605-1.79.302-.889.061-.162.282-.889.282-.91.282-.89.262-.9.252-.909.262-.89.252-.91.706-2.749.221-.91.222-.92.212-.91.403-1.839.373-1.85.181-.91.171-.94.162-.93.151-.94.161-.92.131-.93.141-.93.121-.94.131-.93.121-.95.202-1.86.191-1.881.071-.94.08-.95.071-.92.121-1.89.04-.95.071-1.881.03-.95.01-.94.02-.94v-2.83l-.06-2.831-.041-.94-.06-.94-.03-.95-.192-2.82-.161-1.871-.303-2.83-.1-.93-.121-.94-.131-.92-.131-.95-.131-.92-.141-.94-.172-.92-.141-.94-.161-.92-.181-.94-.182-.91-.373-1.85-.201-.93-.645-2.749-.232-.91-.222-.9-.242-.91-.241-.919-.776-2.72-.273-.889-.564-1.8-.282-.889-.605-1.789-.635-1.759-.332-.89-.323-.869-.332-.869-.343-.89-.353-.859-1.078-2.608-.373-.839-.766-1.729-.393-.859-.403-.829-.403-.849-.806-1.678-.857-1.668-.433-.839-.877-1.638-.907-1.617-.463-.829-.464-.799-.957-1.617-.968-1.577-.504-.778-.504-.799-.503-.768-1.008-1.557-.534-.758-.534-.778-.524-.759-.555-.758-.534-.738-.544-.758-1.673-2.224-1.129-1.445-1.169-1.456-.584-.687-.595-.728-.604-.708-2.419-2.759-.615-.678-.645-.677-.604-.677-.121-.101.201.616.524 1.739ZM259.023 79.003l1.784.465 2.661.728.886.273 1.754.505.887.293.866.263.877.303.857.284.877.293 1.723.606.856.303.857.334.847.334.856.323.827.344.846.333 1.673.708 2.489 1.082 2.469 1.142.796.374 3.225 1.617.776.405 1.592.849.776.424.776.445.786.435 1.542.89 1.512.909 2.993 1.88 1.481.96 2.187 1.487.716.505.705.505.726.506 1.391 1.041.705.536.695.505.686.536 1.36 1.092.665.525.686.546.655.546.665.566 2.6 2.244.635.576 1.259 1.163.605.586.635.587.625.586 1.804 1.779.584.606.605.607.564.607 1.169 1.213.565.636.564.607.554.617.565.636.554.617.544.637.524.627.534.647.534.626 1.048 1.284 1.018 1.314 1.008 1.284.504.667.101.121.715.091 1.653.182.826.112.817.101.826.121.836.131.827.132.826.141.826.122 2.48.455 2.489.515.826.162.837.202.816.182.846.202 3.296.829.836.233.817.222 3.305.98.806.263.837.263.816.263 2.469.849 1.623.596.806.304.826.303.806.313.807.334.826.323.806.344.806.334 1.603.697.806.354.806.364.806.374.796.374.786.384.797.384 2.368 1.193.796.414.786.405 3.124 1.718 1.542.89 2.288 1.375 2.287 1.425 1.502.98 2.227 1.517.746.525 1.471 1.042.726.525.715.546.736.546.726.546.705.556.716.546.705.586.715.556 1.401 1.152.706.607 1.38 1.162.686.607.665.616.685.607.675.606.665.637.676.607.665.637 1.955 1.93 1.29 1.315.625.667.534.546-.081-.253-.564-1.719-.303-.879-.282-.869-.302-.85-.645-1.738-.302-.859-.333-.85-.353-.859-.352-.849-.343-.859-.706-1.698-1.128-2.528-.776-1.678-.403-.839-.403-.818-1.27-2.497-.867-1.628-.443-.829-1.361-2.426-.463-.808-.948-1.618-.494-.778-.503-.809-.484-.778-1.532-2.355-.514-.779-.534-.778-1.612-2.295-.555-.758-.564-.758-.554-.758-1.139-1.496-.585-.728-.564-.748-.605-.728-.604-.748-.585-.718-.604-.707-.605-.738-.635-.708-.615-.708-.625-.707-.634-.708-1.935-2.082-.645-.688-.665-.657-.666-.697-.665-.667-1.37-1.314-.665-.657-.686-.668-.695-.647-.706-.626-.705-.647-1.411-1.254-1.451-1.253-.726-.607-.735-.606-1.482-1.213-.725-.587-.756-.586-.756-.566-.766-.606-.756-.567-2.307-1.668-.787-.555-.786-.546-2.368-1.598-1.602-1.04-2.439-1.517-1.622-.98-1.673-.97-2.5-1.386-2.519-1.344-.857-.435-2.58-1.263-.876-.405-1.734-.809-1.743-.788-1.764-.748-.876-.354-1.774-.728-.907-.343-1.764-.678-.907-.343-.907-.304-.887-.323-2.721-.91-.927-.283-.907-.303-.907-.273-.927-.263-1.834-.526-1.844-.495-1.865-.465-.907-.222-.947-.223-.907-.222-2.822-.586-.937-.182-.917-.192-.937-.162-.957-.162-1.875-.323-.927-.142-.947-.141-2.822-.374-1.905-.213-.937-.1-2.822-.263-.957-.071-.937-.061-3.79-.202-1.884-.06-1.905-.021h-.937l-3.779.03-1.875.061-1.884.101-.947.04-.938.061-.927.07-.947.072-.927.08-1.875.183-.917.1-.947.102-.927.1-.927.132-.907.121-.948.132-.907.141-.927.132-.907.151-1.844.314-.917.182-.907.161-1.834.364-.907.203-.907.192-.131.03.463.101 2.711.647Z"/><path fill="#fff" d="m100.179 166.382.645-.667 1.28-1.304.655-.647.645-.627.675-.637.655-.647.675-.606.655-.627 1.361-1.223 1.36-1.203.696-.607.695-.576.705-.606.686-.556 1.411-1.153.715-.545.705-.577.726-.556 1.451-1.081.726-.526.725-.546 1.472-1.041.746-.505.725-.506.766-.505.746-.506 2.257-1.465 2.278-1.395 3.084-1.81 1.562-.869.765-.415.797-.434 2.358-1.213 2.378-1.173 2.399-1.112.806-.364.786-.354.806-.353.826-.334.807-.354.806-.323.806-.334.806-.323.827-.304 3.255-1.213.806-.273.836-.293.807-.263 1.652-.545 1.653-.506.806-.242 1.663-.465.816-.243.837-.202.826-.243 1.653-.404 2.479-.597 1.663-.343.806-.182.847-.172.836-.152.816-.161.837-.132.816-.162 1.663-.273.816-.121.837-.121.816-.121.836-.102 1.653-.202.806-.101.333-.03.433-.586.504-.637 1.008-1.314.504-.647.514-.647.534-.627.514-.647 1.068-1.284.554-.627.545-.616.544-.637 2.257-2.487.565-.606.604-.607.565-.606.604-.607 2.419-2.396.605-.566 1.249-1.182 1.26-1.143.645-.576.645-.556.645-.576.665-.556.655-.556.665-.556.655-.556.665-.536.696-.545.665-.536.705-.526.675-.536 2.097-1.566 1.421-1.031.725-.496.716-.505 1.451-.97.725-.506.746-.475.736-.486.746-.475.755-.465.746-.475.766-.445.766-.465 2.298-1.334 1.552-.87 1.592-.858.786-.405.796-.434 1.592-.81.817-.393.806-.384.806-.395 1.643-.748.826-.384.826-.344 1.673-.727.837-.344.826-.354 1.713-.667.827-.344.866-.303.837-.323.867-.314.866-.303.857-.303.867-.304.866-.283 1.754-.556.876-.262.887-.273 1.774-.516.867-.243.887-.232.896-.253 2.691-.667.897-.212.766-.172-.433-.101-.907-.192-.907-.182-.927-.182-1.814-.364-.918-.152-.906-.161-1.855-.304-.917-.131-.937-.131-.907-.132-2.792-.344-.937-.1-.907-.102-.957-.08-2.802-.243-.947-.05-.927-.051-.948-.05-1.864-.082-.957-.04h-.938l-.917-.04-.947-.02h-.937l-2.842.03-.947.02-.938.03-1.894.081-.958.06-.927.051-.957.06-1.885.132-.937.101-.957.071-2.832.313-.947.132-.938.1-.957.142-.927.142-.947.141-1.865.304-1.884.323-2.822.556-3.719.819-.917.222-1.854.465-.937.243-1.845.505-.906.263-.928.273-.907.263-.907.303-.917.273-1.814.597-1.814.606-.886.334-.907.313-.907.354-.887.323-.897.344-.887.354-.897.364-.867.364-.886.364-.887.384-.867.384-.867.394-.897.384-2.569 1.223-.867.425-1.713.86-.837.434-2.549 1.354-.837.465-.816.465-.847.475-.826.486-.806.485-.837.485-.816.485-1.612 1.031-.807.506-.796.515-.806.536-.796.526-.786.546-.776.535-.796.536-.776.556-.766.576-.776.556-.756.566-3.023 2.325-.726.607-.746.606-.735.607-.726.606-.736.607-.715.627-.706.616-.705.637-.705.647-1.411 1.274-.686.667-.695.637-.685.667-.665.657-1.341 1.344-1.32 1.365-1.935 2.072-.625.698-.645.708-1.229 1.415-.625.728-.604.707-.605.728-.595.728-.594.738-.585.728-.584.748-.565.748-.574.738-.575.748-1.108 1.526-.534.758-1.613 2.315-.524.768-.504.789-.534.778-.504.799-.493.778-.988 1.577-.957 1.617-1.391 2.416-.907 1.628-.857 1.637-.433.839-1.25 2.477-.403.839-.393.839-.393.819-.373.859-.383.839-.735 1.678-.363.859-.706 1.699-.665 1.708-.645 1.729-.312.849-.302.869-.303.859-.312.9-.303.859-.261.87-.262.828.201-.212.625-.667Z"/></svg>