<svg xmlns="http://www.w3.org/2000/svg" fill="none" viewBox="0 0 512 512"><path fill="#000" fill-rule="evenodd" d="M512 256c0 141.385-114.615 256-256 256S0 397.385 0 256 114.615 0 256 0s256 114.615 256 256Z" clip-rule="evenodd"/><path fill="#3CEAAA" fill-rule="evenodd" d="M171.675 102.234c20.695-20.312 53.803-20.312 74.498 0l55.902 54.867 9.328-9.154c20.696-20.312 53.802-20.312 74.499 0l55.117 54.098c21.308 20.913 21.308 55.283 0 76.198l-148.27 145.523c-20.696 20.312-53.803 20.312-74.498 0L69.981 278.243c-21.308-20.915-21.308-55.285 0-76.198l101.694-99.811Zm92.368 92.196-55.119-54.098-101.694 99.811 55.118 54.1 101.695-99.813Zm-63.662 137.141 55.119 54.097 55.117-54.097-55.117-54.098-55.119 54.098Zm93.151-91.428 55.12 54.1 55.118-54.1-55.118-54.098-55.12 54.098Z" clip-rule="evenodd"/></svg>