<svg xmlns="http://www.w3.org/2000/svg" fill="none" viewBox="0 0 512 512"><path fill="#000" d="M256 512c141.385 0 256-114.615 256-256S397.385 0 256 0 0 114.615 0 256s114.615 256 256 256Z"/><path fill="#FBE74E" d="M207.686 349.641c-19.356-5.152-36.365-14.309-51.027-27.471-57.604-51.707-67.504-159.507-4.637-212.013 17.895-14.942 42.822-24.464 66.241-25.572 2.966-.142 5.387.214 7.261 1.068 8.116 3.7 9.24 15.928 2.192 21.341-3.317 2.543-8.654 3.505-11.457 4.728-43.686 19.157-43.449 88.92-39.09 127.478 3.357 29.592 13.706 59.142 39.758 75.967 7.423 4.794 14.203-3.342 14.203-10.189.022-47.401.025-94.801.008-142.201 0-7.027.247-12.451.742-16.271 4.066-31.491 22.947-60.12 57.375-62.305 37.566-2.388 71.44 16.622 91.168 48.276 27.274 43.775 28.496 104.017 4.775 149.455-17.188 32.939-43.881 55.196-80.077 66.772-5.248 1.679-17.023 2.853-22.629 6.497-6.202 4.019-7.546 9.513-7.546 17.103.005 22.749.051 45.498.138 68.247.038 10.146-4.223 17.279-12.785 21.398-11.783 5.674-26.1-.978-29.971-13.157-.793-2.511-1.19-6.554-1.19-12.13.006-21.26.014-42.522.025-63.788 0-4.565-.389-7.913-1.166-10.043-3.707-10.116-13.201-10.768-22.311-13.19Zm68.303-42.022c.008 7.768 6.079 14.013 14.105 11.184 21.081-7.434 37.191-24.553 45.307-45.177 14.073-35.746 10.789-77.092-4.221-111.746-6.706-15.48-18.864-32.672-37.72-33.267-16.893-.538-17.471 17.926-17.479 29.664-.033 49.786-.03 99.567.008 149.342Z"/></svg>