<svg xmlns="http://www.w3.org/2000/svg" fill="none" viewBox="0 0 512 512"><path fill="#000" fill-rule="evenodd" d="M512 256c0 141.385-114.615 256-256 256S0 397.385 0 256 114.615 0 256 0s256 114.615 256 256Z" clip-rule="evenodd"/><path fill="#4F66FF" d="M255.481 200.519 171.1 346.779a1.335 1.335 0 0 1-1.155.666l-88.603-.003a.342.342 0 0 1-.342-.34c0-.059.016-.118.046-.169l174.67-302.762a.343.343 0 0 1 .471-.124.36.36 0 0 1 .127.127l174.63 302.646a.405.405 0 0 1 .001.414.41.41 0 0 1-.361.208l-88.652.003a.996.996 0 0 1-.921-.532l-84.467-146.394a.615.615 0 0 0-1.062 0Z"/><path fill="#78FBCF" d="m336.703 352-80.219 115.754a.567.567 0 0 1-.47.246.571.571 0 0 1-.471-.246L175.328 352a.575.575 0 0 1 .471-.901h160.433a.576.576 0 0 1 .572.609.585.585 0 0 1-.101.292Z"/></svg>