<svg xmlns="http://www.w3.org/2000/svg" fill="none" viewBox="0 0 512 512"><path fill="#000" d="M256 512c141.385 0 256-114.615 256-256S397.385 0 256 0 0 114.615 0 256s114.615 256 256 256Z"/><path fill="#9975F3" d="M252.917 62h6.534c90.275 1.968 169.622 62.878 190.104 152.246.501 2.188-.391 3.358-2.702 3.369-11.762.061-23.527.066-35.295.015-1.365-.003-1.976-.121-2.375-1.565-14.832-53.628-57.753-95.533-111.572-109.79-68.689-18.196-141.059 10.303-178.16 71.057-.33.54-.273 1.387.467 1.387h134.938c20.501 0 38.96 6.633 54.305 20.054 16.429 14.371 26.162 35.682 26.158 57.537-.003 12.795-.003 25.586 0 38.376a.647.647 0 0 0 .203.478.662.662 0 0 0 .484.183c.956-.038 1.988.091 2.879.091h110.753c.155 0 .253.073.296.22.092.297.088.668-.011 1.113C429.938 386.937 350.701 449.306 259.026 451h-6.34c-41.237-.957-80.835-13.725-114.134-37.84-38.539-27.91-65.612-68.402-76.138-114.679-.474-2.089.687-3.047 2.672-3.043 10.247 0 26.093.057 36.338.057.517 0 1.241.707 1.381 1.219 13.573 49.317 50.609 88.361 98.122 105.737 71.318 26.079 152.29-1.687 191.774-67.004a.769.769 0 0 0-.657-1.166H255.448c-43.032 0-78.566-34.752-78.627-77.994-.015-12.528-.016-25.057-.003-37.585 0-1.406-1.818-1.14-2.797-1.14H63.018c-.793 0-1.154-.293-.972-1.121C81.834 126.01 161.428 63.831 252.917 62Zm-36.19 199.583c2.602 19.229 18.709 32.939 37.871 33.68 12.316.471 24.747.148 37.074.065.987-.008 4 .463 4-1.22-.008-11.647-.007-23.298.003-34.953.003-3.282-.117-5.808-.36-7.578-2.383-17.498-16.099-31.177-33.622-33.559-1.677-.228-4.2-.353-7.569-.376a3620.74 3620.74 0 0 0-34.722-.061c-.96.004-3.032-.091-3.032 1.406-.008 11.675-.006 23.347.004 35.017.002 3.325.12 5.852.353 7.579Z"/></svg>