<svg width="246" height="328" viewBox="0 0 246 328" fill="none" xmlns="http://www.w3.org/2000/svg">
<path d="M27.312 226.864C27.312 282.544 76.208 327.68 136.528 327.68C196.848 327.68 245.76 282.544 245.76 226.848C245.76 171.168 196.864 126.032 136.528 126.032V205.072C140.311 205.713 143.838 207.404 146.707 209.952C149.575 212.5 151.671 215.802 152.754 219.483C153.837 223.164 153.864 227.075 152.833 230.771C151.801 234.466 149.752 237.798 146.919 240.386C144.086 242.973 140.583 244.713 136.809 245.407C133.036 246.1 129.143 245.72 125.575 244.309C122.007 242.898 118.907 240.513 116.629 237.426C114.35 234.339 112.985 230.673 112.688 226.848L27.312 226.864Z" fill="black"/>
<path d="M218.448 100.816L133.056 100.832C132.762 97.0056 131.399 93.3387 129.123 90.2494C126.846 87.1601 123.747 84.7726 120.179 83.3592C116.611 81.9458 112.718 81.5633 108.943 82.2553C105.168 82.9473 101.664 84.686 98.8295 87.2732C95.995 89.8604 93.9445 93.1919 92.9117 96.8879C91.8789 100.584 91.9054 104.496 92.9881 108.178C94.0708 111.859 96.1662 115.163 99.0354 117.711C101.905 120.26 105.432 121.951 109.216 122.592V201.648C48.896 201.648 0 156.512 0 100.816C0 45.136 48.896 0 109.232 0C169.552 0 218.448 45.136 218.448 100.816Z" fill="black"/>
</svg>
