<svg xmlns="http://www.w3.org/2000/svg" fill="none" viewBox="0 0 512 512"><path fill="#000" fill-rule="evenodd" d="M512 256c0 141.385-114.615 256-256 256S0 397.385 0 256 114.615 0 256 0s256 114.615 256 256Z" clip-rule="evenodd"/><path fill="#0BE078" fill-rule="evenodd" d="M356.221 91.022c7.038.816 11.498 7.958 9.146 14.644l-34.416 97.843c-3.073 8.735-14.879 10.041-19.785 2.187l-7.344-11.76-132.824 83.035-13.66-21.871c-21.818-34.932-11.2-80.946 23.717-102.775l69.6-43.511-8.059-12.904c-4.905-7.854 1.443-17.898 10.638-16.832l102.987 11.944ZM216.969 317.886c-47.986 27.717-64.428 89.105-36.722 137.114l135.147-78.063c35.657-20.597 47.873-66.211 27.287-101.884l-12.889-22.336-112.823 65.169Z" clip-rule="evenodd"/></svg>