<svg xmlns="http://www.w3.org/2000/svg" fill="none" viewBox="0 0 512 512"><path fill="#fff" fill-rule="evenodd" d="M283.648 510.524c-.005.001.005 0 0 0Z" clip-rule="evenodd"/><path fill="#fff" d="m346.588 413.174-23.198 47.619 8.163 39.878a254.566 254.566 0 0 0 52.891-23.171l-6.925-72.26-30.931 7.934Z"/><path fill="#fff" d="m221.932 423.496-7.761-54.272h-.007l-23.296 23.264-23.289-23.264 7.767-62.024 69.889-15.504 31.057 31.008-46.585 162.816-17.98 22.666A257.64 257.64 0 0 0 256 512c8.837 0 19.042-.602 27.648-1.476l54.743-110.284 138.281-13.68C499.257 348.407 512 303.551 512 256c0-26.51-4.029-52.078-11.509-76.127 0 0-.55-1.751-.847-2.671l-114.667-17.314 23.296-23.256-93.177-46.52-69.875 38.768-69.875 7.752L121 206.408l-15.528 139.56 46.585 77.528 31.057 7.752 38.818-7.752Z"/><path fill="#000" d="M256 0C114.615 0 0 114.615 0 256c0 126.286 91.443 231.215 211.727 252.186l17.98-22.666 46.585-162.816-31.057-31.008-69.889 15.504-7.767 62.024 23.289 23.264 23.296-23.264h.007l7.761 54.272-38.818 7.752-31.057-7.752-46.585-77.528L121 206.408l54.346-69.776 69.875-7.752 69.875-38.768 93.177 46.52-23.296 23.256 114.667 17.314C466.403 74.389 369.88 0 256 0Zm82.391 400.24-54.743 110.284a254.622 254.622 0 0 0 47.905-9.853l-8.163-39.878 23.198-47.619 30.931-7.934 6.925 72.26c37.927-22.04 69.892-53.208 92.228-90.94l-138.281 13.68Z"/></svg>