<svg width="367" height="367" viewBox="0 0 367 367" fill="none" xmlns="http://www.w3.org/2000/svg">
<path d="M219.641 14.8022L229.395 37.793C248.59 82.5147 284.148 118.418 329.146 137.629L352.117 147.393C358.096 149.912 362.816 153.691 366.592 158.101C355.264 76.5308 290.756 11.9678 209.256 0.629875C213.347 4.09423 217.123 8.81835 219.641 14.8022ZM14.7896 147.078L37.7606 137.315C82.4439 118.103 118.316 82.5147 137.511 37.478L147.266 14.4873C149.469 8.81833 153.245 3.7793 157.965 0C76.4651 11.3379 11.9575 75.9009 0.629364 157.471C4.09075 153.377 8.81081 149.597 14.7896 147.078ZM351.802 219.829L328.831 229.592C284.148 248.804 248.276 284.392 229.081 329.429L219.326 352.105C217.123 357.774 213.347 362.813 208.627 366.592C290.127 355.254 354.634 290.691 365.963 209.121C362.501 213.845 357.467 217.625 351.802 219.829ZM146.951 352.105L137.197 329.429C118.002 284.707 82.4439 248.804 37.4459 229.592L14.4749 219.829C8.81079 217.625 3.77605 213.845 0 209.121C11.3282 290.691 75.8358 355.254 157.336 366.592C152.93 362.813 149.469 357.774 146.951 352.105Z" fill="black"/>
<path d="M100.38 165.659L111.708 160.935C133.735 151.487 151.357 133.85 160.797 111.804L165.517 100.466C172.125 84.7193 194.467 84.7193 201.39 100.466L206.11 111.804C215.55 133.85 233.171 151.487 255.198 160.935L266.527 165.659C282.26 172.273 282.26 194.634 266.527 201.563L255.198 206.287C233.171 215.735 215.55 233.372 206.11 255.418L201.39 266.756C194.781 282.503 172.44 282.503 165.517 266.756L160.797 255.418C151.357 233.372 133.735 215.735 111.708 206.287L100.38 201.563C84.6466 194.634 84.6466 172.273 100.38 165.659Z" fill="black"/>
</svg>
