<svg xmlns="http://www.w3.org/2000/svg" fill="none" viewBox="0 0 512 512"><path fill="#000" d="M256 512c141.385 0 256-114.615 256-256S397.385 0 256 0 0 114.615 0 256s114.615 256 256 256Z"/><path fill="url(#paint0_linear_31_3278)" d="m144.527 102.896 293.527 200.456-72.593 107.33L71.934 208.648l72.593-105.752Z"/><path fill="url(#paint1_linear_31_3278)" d="M365.461 409.104c-25.249 36.303-110.467 22.097-190.95-34.725C94.028 317.557 48.263 244.951 73.513 207.07c25.25-36.303 110.467-22.098 190.95 34.725 80.483 56.822 124.67 131.006 100.998 167.309Z"/><path fill="url(#paint2_linear_31_3278)" d="M438.054 303.352c-25.25 36.303-110.467 22.097-190.95-34.725-82.061-55.244-126.249-129.428-102.577-165.731 25.25-36.303 110.467-22.097 190.951 34.725 82.061 53.665 126.247 129.428 102.576 165.731Z"/><path fill="#fff" fill-rule="evenodd" d="M427.007 297.038c-22.093 31.568-99.42 15.784-173.591-36.303-75.749-52.087-119.936-118.379-97.842-149.947 22.093-31.568 99.42-15.784 173.591 36.303 74.171 52.087 118.358 118.379 97.842 149.947Zm-69.436-47.352c-11.047 15.784-48.921 7.892-86.796-17.362-36.296-25.254-58.39-58.4-47.343-74.184 11.047-15.784 48.921-7.892 86.796 17.362 36.296 25.254 58.389 58.401 47.343 74.184Z" clip-rule="evenodd"/><path fill="#fff" d="M138.214 139.199c0-1.578-1.578-3.157-3.156-1.578-1.578 1.578-3.156 1.578-3.156 3.157 1.578 4.735 3.156 7.892 3.156 11.048 0 1.579 1.578 3.157 3.156 1.579 1.579 0 3.157-1.579 1.579-3.157 0-3.157 0-6.314-1.579-11.049Zm7.891 25.254c0-1.578-1.578-3.156-3.156-1.578s-1.578 1.578-1.578 3.157c17.359 39.46 53.656 82.076 100.999 113.644 1.578 1.578 3.156 0 4.734 0 1.578-1.579 0-3.157 0-4.735-48.921-31.568-83.639-72.606-100.999-110.488Zm190.95 154.683c-1.578 0-3.156 0-3.156 1.578s0 3.157 1.578 3.157c4.735 1.578 11.047 3.157 15.781 4.735 1.578 0 3.156 0 3.156-1.578 0-1.579 0-3.157-1.578-3.157-4.734-1.579-11.046-3.157-15.781-4.735Zm28.407 6.313c-1.578 0-3.157 1.579-3.157 3.157s1.579 3.157 3.157 3.157c12.624 1.578 26.827 3.157 37.874 1.578 1.578 0 3.156-1.578 3.156-3.157 0-1.578-1.578-3.156-3.156-3.156-12.625 1.578-25.25 0-37.874-1.579Z"/><defs><linearGradient id="paint0_linear_31_3278" x1="181.941" x2="293.542" y1="-47.411" y2="274.695" gradientUnits="userSpaceOnUse"><stop stop-color="#03B8FF"/><stop offset="1" stop-color="#FA52A0"/></linearGradient><linearGradient id="paint1_linear_31_3278" x1="120.854" x2="222.603" y1="-22.892" y2="283.805" gradientUnits="userSpaceOnUse"><stop stop-color="#03B8FF"/><stop offset="1" stop-color="#FA52A0"/></linearGradient><linearGradient id="paint2_linear_31_3278" x1="186.924" x2="337.62" y1="-47.955" y2="358.1" gradientUnits="userSpaceOnUse"><stop stop-color="#03B8FF"/><stop offset="1" stop-color="#FA52A0"/></linearGradient></defs></svg>