<svg xmlns="http://www.w3.org/2000/svg" fill="none" viewBox="0 0 512 512"><path fill="#000" fill-rule="evenodd" d="M512 256c0 141.385-114.615 256-256 256S0 397.385 0 256 114.615 0 256 0s256 114.615 256 256Z" clip-rule="evenodd"/><path fill="url(#paint0_linear_4193_4270)" d="m438.272 298.154-.503.529c-.235.242-.473.484-.713.723L299.22 437.02c-24.011 23.973-62.941 23.973-86.952 0l-38.064-38a6.886 6.886 0 0 1-.018-9.743 6.908 6.908 0 0 1 2.831-1.716c40.798-12.594 73.948-27.131 99.449-43.612 60.731-39.25 114.667-54.515 161.806-45.795Zm-28.898-113.203c50.891 16.037 44.951 53.474 45.626 68.232-55.732-29.224-122.78-18.512-201.143 32.133-58.408 37.748-107.334 53.312-146.777 46.69-39.443-6.621-48.316-54.793-50.08-67.593 43.341 21.914 101.424 9.336 174.248-37.729 67.861-43.858 127.236-57.769 178.126-41.733ZM299.22 74.979l35.765 35.703a6.893 6.893 0 0 1-3.501 11.632c-51.776 10.431-93.183 25.677-124.223 45.737-53.189 34.376-98.515 50.354-135.978 47.934l.004-.011L212.268 74.979c24.011-23.972 62.941-23.972 86.952 0Z"/><defs><linearGradient id="paint0_linear_4193_4270" x1="256" x2="252.098" y1="57" y2="728.137" gradientUnits="userSpaceOnUse"><stop stop-color="#5486FD"/><stop offset="1" stop-color="#4554DB"/></linearGradient></defs></svg>