<svg xmlns="http://www.w3.org/2000/svg" fill="none" viewBox="0 0 512 512"><path fill="#000" fill-rule="evenodd" d="M510.923 279.636C498.995 409.941 389.416 512 256 512S13.006 409.941 1.077 279.636h348.712V426h29.369V279.636h131.765Zm1.016-29.272C508.941 111.582 395.501 0 256 0 116.499 0 3.059 111.582.06 250.364h123.782V104h29.369v146.364h358.728Z" clip-rule="evenodd"/><path fill="#fff" d="M153.211 104h-29.369v146.364H.061a259.215 259.215 0 0 0 1.016 29.272h348.712V426h29.369V279.636h131.765a259.044 259.044 0 0 0 1.016-29.272H153.211V104Z"/></svg>