<svg xmlns="http://www.w3.org/2000/svg" fill="none" viewBox="0 0 512 512"><path fill="#000" d="M256 512c141.385 0 256-114.615 256-256S397.385 0 256 0 0 114.615 0 256s114.615 256 256 256Z"/><path fill="#3DE0C3" d="M173.104 100.046c2.509 0 2.158-.274 2.208 2.078-1.481 58.353 73.509 103.141 127.266 64.634 10.946-7.705 19.804-17.591 25.895-28.899 6.091-11.308 9.252-23.736 9.241-36.329 0-1.119.251-1.53 1.606-1.53h55.062c1.23 0 1.506.343 1.506 1.416 1.054 93.64-108.995 164.577-202.807 117.826-46.58-22.816-76.069-69.522-75.918-117.62 0-1.211.301-1.576 1.681-1.576h54.26Z"/><path fill="#3DE0C3" d="M395.964 306.51c1.781 69.11-61.914 134.749-139.614 133.47-79.783 1.37-144.207-68.357-139.062-139.066.882-26.439 10.319-52.054 27.13-73.633.728-1.096 1.255-1.142 2.309-.228 13.103 11.751 28.399 21.287 45.174 28.16 1.255.48 1.355.823.577 1.782-12.509 15.912-18.527 35.297-17.015 54.813.652 50.817 62.742 93.023 114.943 68.151 47.684-21.468 61.989-82.699 31.421-121.457-2.936-2.672-2.359-3.357 1.381-4.362 11.067-4.752 21.458-10.711 30.944-17.746a132.633 132.633 0 0 0 12.247-9.912c.979-.936 1.456-.708 2.159.205 18.173 23.304 27.767 51.248 27.406 79.823Z"/></svg>