<svg width="308" height="309" viewBox="0 0 308 309" fill="none" xmlns="http://www.w3.org/2000/svg">
<path d="M245.104 47.4745L187.946 57.9379L184.455 53.9482C188.924 53.6809 192.253 53.341 194.441 52.9285C197.662 52.3234 199.697 50.401 202.063 48.1667C202.117 48.1164 202.17 48.0659 202.224 48.0153C214.197 36.7201 225.646 24.9712 238.094 14.171C241.272 11.4135 244.649 8.92484 248.225 6.70506C250.332 5.39428 252.903 4.03996 255.262 4.76639C260.268 6.30633 261.909 13.4286 261.762 17.904C261.47 26.722 256.935 35.375 250.814 41.576C249.398 43.0128 246.749 45.183 244.881 47.211C244.826 47.2706 244.829 47.3271 244.89 47.3806C244.956 47.4402 245.027 47.4715 245.104 47.4745Z" fill="black"/>
<path d="M265.081 8.50854C265.315 9.11504 265.423 9.74522 265.407 10.3991L265.081 8.50854Z" fill="black"/>
<path d="M140.445 20.6631L140.25 20.8372C140.198 20.8846 140.136 20.9113 140.064 20.9174C138.4 21.058 136.883 21.2543 135.513 21.5064C118.031 24.7352 112.465 42.1649 114.327 57.5712C114.343 57.7102 114.347 57.8523 114.338 57.9975L87.9853 73.0348C86.8101 60.1813 94.4507 47.1743 102.543 37.8064C112.041 26.8114 125.956 20.9358 140.445 20.6631Z" fill="black"/>
<path d="M140.445 20.6631C145.71 20.6745 149.61 20.7501 154.267 22.3886C160.613 24.6229 164.886 28.9861 168.063 34.7883C168.136 34.9228 168.171 35.0427 168.168 35.1481C168.136 35.2153 168.06 35.2742 167.939 35.3246C159.43 38.9056 145.039 45.0027 124.767 53.616C121.692 54.8672 118.614 56.1207 115.534 57.3764C115.216 57.5063 115.198 57.7018 115.481 57.9631L114.338 57.9975C114.347 57.8523 114.343 57.7102 114.327 57.5712C112.465 42.1649 118.031 24.7352 135.513 21.5064C136.883 21.2543 138.4 21.058 140.064 20.9174C140.136 20.9113 140.198 20.8846 140.25 20.8372L140.445 20.6631Z" fill="black"/>
<path d="M263.571 24.6069C263.454 25.302 263.212 25.9513 262.843 26.5547C262.981 25.8657 263.223 25.2164 263.571 24.6069Z" fill="black"/>
<path d="M184.455 53.9482L187.946 57.9379L191.113 62.3194C189.356 61.9817 187.819 62.3919 186.502 63.55C184.204 65.5688 182.85 68.7702 182.226 71.6988C173.202 86.3122 180.323 102.789 189.043 115.34C190.011 116.733 186.789 122.95 185.91 124.717C185.888 124.761 185.898 124.798 185.937 124.827L186.004 124.873C184.82 126.446 183.233 127.306 181.244 127.453C179.075 127.613 176.539 127.81 174.395 127.46C175.996 123.718 177.621 120.002 179.272 116.311C180.066 114.535 177.686 112.613 176.667 111.199C173.557 106.879 171.804 101.466 170.714 96.4295C169.321 89.9902 168.884 83.9129 168.618 77.0267C168.416 71.8294 165.644 67.1706 161.919 63.4285C161.864 63.3735 161.868 63.3941 161.79 63.3827C163.68 60.3486 165.439 57.242 167.069 54.0628C172.865 54.1514 178.66 54.1132 184.455 53.9482Z" fill="black"/>
<path d="M115.481 57.9631L116.874 58.0158C114.567 60.2936 112.716 62.8938 111.322 65.8163C109.833 68.9397 109.725 71.8432 110.168 75.237C110.558 78.2252 108.424 78.9287 106.227 80.1135C96.8858 85.1527 94.4162 95.5679 96.1605 105.314C97.3976 112.221 101.66 117.028 109.284 116.474C109.364 116.468 109.419 116.429 109.449 116.357C113.985 105.69 123.193 99.8623 134.825 99.6515C138.806 99.5797 142.477 100.781 145.839 103.256C147.794 104.859 149.592 106.622 151.232 108.545C153.63 111.648 156.038 114.74 158.455 117.821C162.435 122.893 167.7 126.843 174.395 127.46C176.539 127.81 179.075 127.613 181.244 127.453C183.233 127.306 184.82 126.446 186.004 124.873C187.6 123.407 188.929 121.732 189.993 119.845C192.412 115.555 194.349 111.444 199.55 109.98C201.091 109.546 202.81 109.291 204.709 109.214C205.643 109.336 206.679 109.304 207.53 109.581C215.978 112.312 216.433 123.789 215.586 130.92C215.469 131.905 215.171 133.021 215.595 133.826C220.819 143.753 228.905 151.799 238.115 158.272C239.319 159.119 240.602 159.953 241.962 160.775C252.467 167.122 263.652 171.941 275.514 175.23C277.582 175.905 279.689 176.416 281.838 176.763C281.85 176.765 281.861 176.761 281.87 176.752C281.883 176.738 281.897 176.724 281.911 176.71C281.931 176.689 281.955 176.681 281.984 176.687C283.329 177.027 284.692 177.241 286.072 177.331L287.513 177.556C287.648 177.577 287.66 177.629 287.55 177.709L287.105 178.037C286.862 177.99 286.703 177.978 286.63 178.001C273.245 182.316 258.703 181.779 247.631 172.129C247.427 171.954 247.41 171.971 247.578 172.18L259.343 186.986C267.984 198.093 275.677 207.841 282.675 219.105C286.712 225.603 292.499 230.583 298.826 234.767C301.693 236.663 304.807 238.636 307.943 240.357C307.962 240.368 307.978 240.384 307.988 240.404C307.998 240.424 308.002 240.446 307.999 240.468C307.996 240.49 307.987 240.511 307.973 240.528C307.958 240.545 307.939 240.557 307.917 240.563L306.728 240.884C306.64 240.6 306.422 240.467 306.074 240.487C305.425 240.524 304.461 240.538 303.676 240.501C274.119 239.089 248.76 223.44 233.396 198.315C233.379 198.286 233.355 198.271 233.323 198.27C233.283 198.265 233.272 198.281 233.291 198.318C233.422 198.574 233.63 199.027 233.915 199.674C238.658 210.475 242.717 221.282 246.091 232.095C247.013 235.054 247.865 238.287 248.728 241.39C250.325 247.717 251.484 254.228 251.819 260.747C252.588 275.615 253.791 291.046 258.636 305.213C259.008 306.298 259.59 307.489 260.383 308.788C260.436 308.875 260.412 308.918 260.309 308.918L258.932 308.925C258.944 308.899 258.963 308.883 258.989 308.877C259.018 308.869 259.024 308.863 259.005 308.859C257.931 308.653 256.86 308.474 255.79 308.323C252.017 307.796 247.599 306.705 245.085 306.097C190.514 292.935 146.532 249.443 121.473 186.436C121.464 186.421 121.488 186.443 121.473 186.436C121.458 186.428 121.49 186.433 121.473 186.436C121.46 186.447 121.477 186.419 121.473 186.436C116.729 208.288 99.982 243.606 82.5917 257.988C63.6062 273.69 39.9135 277.084 16.0302 273.548C15.7388 273.504 15.4863 273.589 15.1879 273.596L14.2515 273.289C14.2401 273.286 14.23 273.279 14.2226 273.27C14.2152 273.261 14.2108 273.249 14.21 273.237C14.2093 273.226 14.2122 273.214 14.2184 273.204C14.2246 273.194 14.2337 273.186 14.2446 273.181C20.4736 270.301 26.096 266.531 31.1116 261.87C44.7608 249.193 54.4073 233.136 61.6554 216.126C64.6941 208.896 67.3535 201.457 69.6333 193.808C69.6367 193.796 69.6364 193.782 69.6323 193.77C69.6283 193.758 69.6207 193.748 69.6106 193.74C69.6005 193.732 69.5884 193.728 69.5761 193.728C69.5637 193.728 69.5516 193.732 69.5415 193.739C55.4126 203.219 39.5922 210.605 23.1681 214.473C19.4883 215.339 15.266 215.921 10.5012 216.217C8.60546 216.334 6.47557 216.29 4.45814 216.327C3.91648 216.336 3.25319 216.107 2.56464 216.307L0.0445782 215.906C0.0336906 215.903 0.0236947 215.898 0.0158994 215.89C0.00810412 215.882 0.00287253 215.872 0.000888489 215.861C-0.00109556 215.85 0.000260994 215.839 0.00478021 215.829C0.00929942 215.819 0.0167704 215.81 0.0262166 215.805C13.5339 208.242 25.627 198.878 36.3055 187.712C38.3375 185.589 40.2685 183.376 42.0985 181.074C48.9334 172.958 54.3331 163.962 58.2976 154.083C58.3038 154.067 58.304 154.048 58.2981 154.032C58.2921 154.015 58.2804 154.001 58.2651 153.992C58.2498 153.983 58.2317 153.979 58.2142 153.982C58.1966 153.985 58.1806 153.994 58.1691 154.008C52.2935 161.186 45.9864 167.995 39.2479 174.435C34.8137 178.674 30.1431 182.572 24.4741 185.065C24.2277 185.174 23.7159 185.308 22.9386 185.469C22.8744 185.481 22.833 185.457 22.8147 185.395C22.8055 185.366 22.804 185.336 22.8101 185.304C34.653 174.066 45.4241 161.68 54.5886 148.162C63.0348 135.707 69.3739 123.282 73.34 108.845C74.7583 112.067 76.5356 115.073 78.6716 117.863C78.6841 117.879 78.7002 117.892 78.7188 117.901C78.7373 117.91 78.7577 117.914 78.7783 117.914C78.7989 117.913 78.8191 117.908 78.8372 117.898C78.8553 117.889 78.8709 117.875 78.8827 117.858C87.159 106.345 93.7093 90.7235 90.5007 76.2865C90.4839 76.2117 90.4372 76.1704 90.3607 76.1628C88.6593 75.9963 86.9769 76.0238 85.3137 76.2453C85.9915 74.9406 86.8821 73.8704 87.9853 73.0348L114.338 57.9975L115.481 57.9631ZM131.767 127.208C133.17 125.507 135.226 125.313 136.229 127.572C140.654 137.551 148.053 144.146 158.425 147.355C167.597 150.192 176.986 147.582 185.357 143.579C185.791 143.371 186.135 143.167 186.389 142.967C186.602 142.8 186.588 142.778 186.348 142.9C174.356 149.021 159.876 148.215 148.839 140.487C144.475 137.432 141.431 133.296 139.709 128.078C139.211 126.575 139.087 124.657 140.875 123.988C143.142 123.142 146.144 124.687 148.058 126.03C148.199 126.128 148.225 126.104 148.136 125.959C147.693 125.232 147.118 124.559 146.413 123.942C142.293 120.338 136.22 119.987 132.587 124.465C131.032 126.38 129.957 128.539 129.36 130.941C129.337 131.031 129.345 131.033 129.385 130.948C129.966 129.675 130.761 128.428 131.767 127.208Z" fill="black"/>
<path d="M146.895 90.0475C149.302 88.4235 150.853 86.1991 151.549 83.3744C151.555 83.3526 151.554 83.3297 151.548 83.3081C151.542 83.2865 151.53 83.267 151.513 83.2515C151.509 83.2472 151.504 83.2433 151.499 83.2397L151.494 83.2365L151.489 83.2335L151.488 83.2327C151.485 83.2314 151.483 83.2302 151.48 83.2291C151.479 83.2282 151.477 83.2274 151.475 83.2266C151.472 83.2254 151.469 83.2243 151.466 83.2234C151.462 83.2222 151.459 83.2212 151.455 83.2203C151.433 83.2153 151.41 83.2163 151.389 83.2231C149.211 83.8953 147.592 83.2399 146.532 81.257C145.768 79.8293 146.052 77.8746 147.227 76.7311C147.928 76.0482 148.826 75.6166 149.922 75.4364C152.055 75.5173 154.145 75.8519 156.192 76.4401C158.655 77.1459 160.255 78.3352 160.232 80.9866C160.193 85.391 157.799 91.8738 152.38 91.4682C150.587 91.3353 148.758 90.8617 146.895 90.0475Z" fill="black"/>
<path d="M131.481 77.9113C131.049 79.7201 130.933 81.5228 131.132 83.3194C129.892 82.8427 128.693 82.2729 127.535 81.6099C127.458 81.566 127.395 81.5013 127.353 81.4231C127.311 81.3449 127.291 81.2564 127.296 81.1676C127.352 80.3304 127.751 79.6697 128.495 79.1854C129.413 78.588 130.408 78.1633 131.481 77.9113Z" fill="black"/>
<path d="M190.346 92.5659C191.993 91.3697 193.067 89.8015 193.569 87.8613C193.572 87.8473 193.572 87.8327 193.569 87.8185C193.566 87.8044 193.56 87.7911 193.551 87.7797C193.543 87.7682 193.531 87.7589 193.518 87.7524C193.506 87.7459 193.491 87.7424 193.477 87.7421C190.158 87.6871 189.431 83.6562 192.169 82.0224C192.191 82.0095 192.21 81.9922 192.224 81.9714C192.239 81.9507 192.249 81.927 192.254 81.9019C192.259 81.8769 192.259 81.851 192.253 81.8259C192.248 81.8009 192.237 81.7772 192.221 81.7565L191.673 81.0301C196.018 80.5603 196.293 84.0596 196.293 87.2884C196.293 89.5937 196.24 90.9595 194.035 91.867C192.749 92.3956 191.52 92.6285 190.346 92.5659Z" fill="black"/>
<path d="M83.4684 86.6353C87.0305 90.5562 83.4661 99.8073 81.4923 103.618C81.0317 104.51 81.008 104.5 81.4211 103.586C83.4982 99.0052 86.2432 91.1176 83.395 86.6903C83.3877 86.6806 83.3845 86.6684 83.3862 86.6563C83.388 86.6443 83.3944 86.6334 83.4041 86.6261C83.4139 86.6188 83.4261 86.6157 83.4382 86.6174C83.4502 86.6191 83.4611 86.6256 83.4684 86.6353Z" fill="black"/>
<path d="M151.232 108.545C149.592 106.622 147.794 104.859 145.839 103.256C145.908 103.151 145.951 103.084 145.938 102.949C145.679 100.468 146.598 98.5828 148.694 97.2934C149.865 96.5739 151.311 95.7076 152.727 95.9001C152.753 95.9033 152.777 95.913 152.798 95.9283C152.819 95.9437 152.836 95.9641 152.847 95.9877L152.848 95.9901C152.852 95.9977 152.855 96.0057 152.857 96.0138L152.857 96.0151C152.861 96.0308 152.862 96.047 152.861 96.0633C152.859 96.0893 152.851 96.1143 152.837 96.1362C150.454 99.8279 150.464 103.983 151.492 108.256C151.51 108.336 151.494 108.407 151.444 108.469C151.395 108.531 151.324 108.556 151.232 108.545Z" fill="black"/>
<path d="M42.0985 181.074C36.2413 183.583 29.0116 185.826 22.5898 185.65C22.4949 185.648 22.4758 185.609 22.5324 185.533C22.6089 185.432 22.7015 185.356 22.8101 185.304C22.804 185.336 22.8055 185.366 22.8147 185.395C22.833 185.457 22.8744 185.481 22.9386 185.469C23.7159 185.308 24.2277 185.174 24.4741 185.065C30.1431 182.572 34.8137 178.674 39.2479 174.435C45.9864 167.995 52.2935 161.186 58.1691 154.008C58.1806 153.994 58.1966 153.985 58.2142 153.982C58.2317 153.979 58.2498 153.983 58.2651 153.992C58.2804 154.001 58.2921 154.015 58.2981 154.032C58.304 154.048 58.3038 154.067 58.2976 154.083C54.3331 163.962 48.9334 172.958 42.0985 181.074Z" fill="black"/>
<path d="M287.105 178.037C287.002 178.169 286.833 178.319 286.598 178.489C279.272 183.757 270.435 187.497 261.181 186.958C260.58 186.923 259.967 186.932 259.343 186.986L247.578 172.18C247.41 171.971 247.427 171.954 247.631 172.129C258.703 181.779 273.245 182.316 286.63 178.001C286.703 177.978 286.862 177.99 287.105 178.037Z" fill="black"/>
<path d="M275.514 175.23C276.859 175.131 279.049 175.862 280.419 176.163C281.92 176.49 284.208 176.756 286.072 177.331C284.692 177.241 283.329 177.027 281.984 176.687C281.955 176.681 281.931 176.689 281.911 176.71C281.897 176.724 281.883 176.738 281.87 176.752C281.861 176.761 281.85 176.765 281.838 176.763C279.689 176.416 277.582 175.905 275.514 175.23Z" fill="black"/>
<path d="M61.6554 216.126C61.5835 216.126 61.5108 216.133 61.4373 216.148C42.204 220.287 22.0986 219.6 2.56464 216.307C3.25319 216.107 3.91648 216.336 4.45814 216.327C6.47557 216.29 8.60546 216.334 10.5012 216.217C15.266 215.921 19.4883 215.339 23.1681 214.473C39.5922 210.605 55.4126 203.219 69.5415 193.739C69.5516 193.732 69.5637 193.728 69.5761 193.728C69.5884 193.728 69.6005 193.732 69.6106 193.74C69.6207 193.748 69.6283 193.758 69.6323 193.77C69.6364 193.782 69.6367 193.796 69.6333 193.808C67.3535 201.457 64.6941 208.896 61.6554 216.126Z" fill="black"/>
<path d="M306.728 240.884C300.55 243.12 294.21 244.727 287.709 245.703C287.695 245.704 287.412 245.782 286.859 245.934C286.35 246.074 285.973 245.891 285.508 245.957C273.139 247.729 260.282 246.668 248.863 241.353C248.836 241.341 248.809 241.343 248.783 241.358L248.728 241.39C247.865 238.287 247.013 235.054 246.091 232.095C242.717 221.282 238.658 210.475 233.915 199.674C233.63 199.027 233.422 198.574 233.291 198.318C233.272 198.281 233.283 198.265 233.323 198.27C233.355 198.271 233.379 198.286 233.396 198.315C248.76 223.44 274.119 239.089 303.676 240.501C304.461 240.538 305.425 240.524 306.074 240.487C306.422 240.467 306.64 240.6 306.728 240.884Z" fill="black"/>
<path d="M258.932 308.925C258.897 308.956 258.859 308.971 258.817 308.971C248.63 309.156 238.505 308.455 228.443 306.87C228.347 306.854 228.056 306.852 227.569 306.863C227.057 306.874 226.802 306.643 226.389 306.576C186.284 300.247 149.135 282.895 119.885 254.755C119.865 254.735 119.839 254.722 119.81 254.72C119.782 254.717 119.753 254.725 119.729 254.741C102.022 266.73 81.529 275.299 60.4757 278.651C59.4475 278.815 57.147 279.048 53.5742 279.352C40.5217 280.462 27.281 278.731 15.1879 273.596C15.4863 273.589 15.7388 273.504 16.0302 273.548C39.9135 277.084 63.6062 273.69 82.5917 257.988C99.982 243.606 116.729 208.288 121.473 186.436C121.46 186.447 121.477 186.419 121.473 186.436C121.458 186.428 121.49 186.433 121.473 186.436C121.464 186.421 121.488 186.443 121.473 186.436C146.532 249.443 190.514 292.935 245.085 306.097C247.599 306.705 252.017 307.796 255.79 308.323C256.86 308.474 257.931 308.653 259.005 308.859C259.024 308.863 259.018 308.869 258.989 308.877C258.963 308.883 258.944 308.899 258.932 308.925Z" fill="black"/>
<path fill-rule="evenodd" clip-rule="evenodd" d="M151.48 83.2291C151.479 83.2282 151.477 83.2274 151.475 83.2266C151.472 83.2254 151.469 83.2243 151.466 83.2234C151.471 83.225 151.476 83.2269 151.48 83.2291Z" fill="black"/>
<path fill-rule="evenodd" clip-rule="evenodd" d="M131.132 83.3194C131.277 83.4997 131.438 83.6333 131.614 83.7204C136.435 86.1082 141.371 88.2302 146.422 90.0864C146.52 90.1216 146.677 90.1086 146.895 90.0475C149.302 88.4235 150.853 86.1991 151.549 83.3744C151.555 83.3526 151.554 83.3297 151.548 83.3081C151.542 83.2865 151.53 83.267 151.513 83.2515C151.509 83.2472 151.504 83.2433 151.499 83.2397L151.494 83.2365L151.489 83.2335L151.488 83.2327C151.485 83.2314 151.483 83.2302 151.48 83.2291C151.476 83.2269 151.471 83.225 151.466 83.2234C151.462 83.2222 151.459 83.2212 151.455 83.2203C151.433 83.2153 151.41 83.2163 151.389 83.2231C149.211 83.8953 147.592 83.2399 146.532 81.257C145.768 79.8293 146.052 77.8746 147.227 76.7311C147.928 76.0482 148.826 75.6166 149.922 75.4364C146.267 75.1354 142.738 75.3073 139.337 75.952C136.936 76.4072 134.317 77.0603 131.481 77.9113C131.049 79.7201 130.933 81.5228 131.132 83.3194ZM143.78 80.068C144.218 80.5055 144.464 81.0989 144.464 81.7176C144.464 82.3363 144.218 82.9296 143.78 83.3671C143.342 83.8046 142.747 84.0504 142.128 84.0504C141.508 84.0504 140.914 83.8046 140.476 83.3671C140.037 82.9296 139.791 82.3363 139.791 81.7176C139.791 81.0989 140.037 80.5055 140.476 80.068C140.914 79.6305 141.508 79.3848 142.128 79.3848C142.747 79.3848 143.342 79.6305 143.78 80.068Z" fill="black"/>
<path fill-rule="evenodd" clip-rule="evenodd" d="M191.673 81.0301C189.463 81.1264 187.46 81.7764 185.662 82.9802C184.576 83.7067 183.824 84.5614 183.362 85.7347C182.27 88.5098 181.4 93.0769 186.061 93.0036C187.851 92.9738 189.171 93.0723 190.346 92.5659C191.993 91.3697 193.067 89.8015 193.569 87.8613C193.572 87.8473 193.572 87.8327 193.569 87.8185C193.566 87.8044 193.56 87.7911 193.551 87.7797C193.543 87.7682 193.531 87.7589 193.518 87.7524C193.506 87.7459 193.491 87.7424 193.477 87.7421C190.158 87.6871 189.431 83.6562 192.169 82.0224C192.191 82.0095 192.21 81.9922 192.224 81.9714C192.239 81.9507 192.249 81.927 192.254 81.9019C192.259 81.8769 192.259 81.851 192.253 81.8259C192.248 81.8009 192.237 81.7772 192.221 81.7565L191.673 81.0301ZM190.015 87.4881C189.718 87.815 189.314 88.0004 188.892 88.0033C188.683 88.0048 188.475 87.9614 188.281 87.8757C188.088 87.79 187.911 87.6636 187.762 87.5038C187.613 87.3439 187.494 87.1538 187.413 86.9441C187.331 86.7345 187.289 86.5095 187.287 86.282C187.284 85.8226 187.448 85.3808 187.745 85.0538C188.041 84.7268 188.445 84.5415 188.868 84.5386C189.077 84.5371 189.284 84.5805 189.478 84.6662C189.672 84.7519 189.848 84.8783 189.997 85.0381C190.146 85.198 190.265 85.3881 190.347 85.5977C190.428 85.8074 190.471 86.0323 190.472 86.2598C190.476 86.7193 190.311 87.1611 190.015 87.4881Z" fill="black"/>
<path d="M167.069 54.0628L155.373 53.7672C153.429 53.8772 151.46 53.8245 149.509 53.8612C145.558 53.933 141.353 54.4264 136.892 55.3415C129.133 56.9319 125.013 64.5353 123.124 71.5452C123.119 71.5637 123.12 71.5833 123.126 71.6014C123.132 71.6195 123.143 71.6353 123.159 71.6469C123.174 71.6584 123.192 71.6652 123.212 71.6663C123.231 71.6674 123.25 71.6627 123.266 71.653C128.685 68.3508 135.123 65.5092 141.522 65.1059C142.496 65.0433 144.023 65.0899 146.101 65.2457C150.858 65.6032 155.589 65.6765 160.33 65.0303C160.407 65.0196 160.47 64.9845 160.521 64.9249L161.79 63.3827C163.68 60.3486 165.439 57.242 167.069 54.0628Z" fill="black"/>
<path d="M191.113 62.3194C189.356 61.9817 187.819 62.3919 186.502 63.55C184.204 65.5688 182.85 68.7702 182.226 71.6988C186.401 69.3178 190.842 71.5728 193.635 74.8497C194.639 76.0306 195.484 76.974 196.169 77.6798C196.651 73.2502 196.511 66.82 193.066 63.4422C192.529 62.9152 191.801 62.6219 191.113 62.3194Z" fill="black"/>
<path d="M265.407 10.3991L265.081 8.50854C263.548 2.28461 258.634 -0.795271 252.281 0.176358C251.334 0.319964 250.102 0.708768 248.586 1.34277C246.355 2.27315 244.146 3.23638 241.959 4.23245C236.933 8.0105 232.723 11.5388 229.329 14.8173C222.995 20.9388 215.767 28.3582 207.647 37.0753C204.344 40.6204 200.888 44.0234 197.367 47.3485C195.304 49.2986 193.006 50.465 190.147 50.7332C179.986 51.691 170.135 50.9715 160.792 51.1708C159.619 51.1961 158.265 51.0242 156.984 51.0746C156.309 51.0998 155.738 50.8248 155.07 50.8248C151.375 50.8294 148.752 50.8874 147.202 50.999C146.16 51.0746 145.065 50.9715 144.388 51.0036C139.658 51.219 135.614 51.4046 131.15 52.1058C128.991 52.445 126.863 52.9483 124.767 53.616C121.692 54.8672 118.614 56.1207 115.534 57.3764C115.216 57.5063 115.198 57.7018 115.481 57.9631L116.874 58.0158C117.462 57.9218 117.994 57.9677 118.573 57.7248C125.401 54.8511 133.649 52.7818 141.09 53.2745C141.772 53.3181 142.511 53.2333 143.138 53.2631C145.218 53.3669 147.299 53.451 149.38 53.5151C150.133 53.538 151.825 53.3066 152.215 53.6503C152.271 53.7007 152.338 53.7267 152.415 53.7282L155.373 53.7672L167.069 54.0628C172.865 54.1514 178.66 54.1132 184.455 53.9482C188.924 53.6809 192.253 53.341 194.441 52.9285C197.662 52.3234 199.697 50.401 202.063 48.1667L202.224 48.0153C214.197 36.7201 225.646 24.9712 238.094 14.171C241.272 11.4135 244.649 8.92484 248.225 6.70506C250.332 5.39428 252.903 4.03996 255.262 4.76639C260.268 6.30633 261.909 13.4286 261.762 17.904C261.47 26.722 256.935 35.375 250.814 41.576C249.398 43.0128 246.749 45.183 244.881 47.211C244.826 47.2706 244.829 47.3271 244.89 47.3806C244.956 47.4402 245.027 47.4715 245.104 47.4745C248.185 45.4442 250.676 43.5361 252.577 41.7502C256.98 37.6146 260.402 32.5495 262.843 26.5547C262.981 25.8657 263.223 25.2164 263.571 24.6069C265.195 19.8793 266.068 15.4199 265.407 10.3991Z" fill="black"/>
</svg>
