<svg xmlns="http://www.w3.org/2000/svg" fill="none" viewBox="0 0 512 512"><g clip-path="url(#clip0_4190_3031)"><rect width="512" height="512" fill="#000" rx="256"/><path fill="#FD0000" d="m414.156 105.254.579 3.364c1.176 8.935-.375 16.871-3.266 25.284a11.543 11.543 0 0 0-1.294 3.466c-4.341 10.668-10.427 19.682-18.26 27.042-3.38 3.178-7.811 6.573-13.292 10.186a.591.591 0 0 1-.38-.167c-.109-.095-.114-.196-.016-.302 3.323-3.609 8.034-7.47 10.553-10.027 10.887-11.036 18.954-26.434 19.473-42.126.261-7.965-2.658-20.639-11.562-23.38-4.196-1.292-8.769 1.118-12.516 3.45a140.576 140.576 0 0 0-18.02 13.286c-22.143 19.22-42.505 40.128-63.803 60.229-4.332 4.09-7.985 7.642-13.844 8.743-3.891.734-9.812 1.339-17.762 1.815a708.476 708.476 0 0 1-30.924.204l-20.804-.526-5.262-.07a.533.533 0 0 1-.355-.138c-.694-.612-3.703-.2-5.042-.241a588.924 588.924 0 0 1-11.104-.448c-1.114-.053-2.429.097-3.641.02-13.235-.877-27.907 2.806-40.052 7.919-1.029.433-1.976.351-3.021.518l-2.478-.093c-.504-.465-.473-.813.093-1.044 5.479-2.235 10.953-4.466 16.424-6.692a76.358 76.358 0 0 1 11.353-2.688c7.94-1.248 15.133-1.578 23.547-1.961 1.204-.057 3.152.126 5.005-.009 2.757-.198 7.422-.301 13.994-.309 1.188 0 2.205.489 3.405.444 2.278-.09 4.687.216 6.773.171 16.619-.354 34.141.926 52.213-.779 5.087-.477 9.173-2.552 12.843-6.023 6.263-5.917 12.411-11.973 18.285-18.282 14.444-15.512 27.299-28.716 38.567-39.61 6.036-5.834 13.524-12.113 22.465-18.836a397.307 397.307 0 0 1 11.786-5.142c2.697-1.129 4.888-1.82 6.572-2.076 11.3-1.73 20.041 3.752 22.768 14.828Z"/><path fill="#FF5251" d="M373.03 97.644c-8.941 6.723-16.429 13.002-22.465 18.836-11.268 10.894-24.123 24.098-38.567 39.61-5.874 6.309-12.022 12.365-18.285 18.282-3.67 3.471-7.756 5.546-12.843 6.023-18.072 1.705-35.594.425-52.213.779-2.086.045-4.495-.261-6.773-.171-1.2.045-2.217-.444-3.405-.444-6.572.008-11.237.111-13.994.309-1.853.135-3.801-.048-5.005.009-8.414.383-15.607.713-23.547 1.961a76.358 76.358 0 0 0-11.353 2.688c36.058-15.328 61.655-26.179 76.789-32.551.215-.09.351-.195.409-.314a.754.754 0 0 0 .351-.061c37.604-15.845 75.2-31.707 112.787-47.587 4.918-2.077 10.956-4.533 18.114-7.369Z"/><path fill="#993414" d="m378.623 174.596-101.668 18.621-6.209-7.1c7.95-.476 13.871-1.081 17.762-1.815 5.859-1.101 9.512-4.653 13.844-8.743 21.298-20.101 41.66-41.009 63.803-60.229a140.576 140.576 0 0 1 18.02-13.286c3.747-2.332 8.32-4.742 12.516-3.45 8.904 2.741 11.823 15.415 11.562 23.38-.519 15.692-8.586 31.09-19.473 42.126-2.519 2.557-7.23 6.418-10.553 10.027-.098.106-.093.207.016.302a.591.591 0 0 0 .38.167Zm35.533-69.342a8.64 8.64 0 0 1 .579 3.364l-.579-3.364Z"/><path fill="#FF5251" d="m192.467 126.883-.347.31a.545.545 0 0 1-.331.143c-2.961.25-5.66.6-8.095 1.048-31.096 5.746-40.996 36.764-37.685 64.18.03.248.037.5.021.759l-46.874 26.76c-2.09-22.874 11.5-46.021 25.894-62.692 16.893-19.566 41.645-30.022 67.417-30.508Z"/><path fill="#D20B09" d="M192.467 126.883c9.365.021 16.3.155 24.584 3.071 11.287 3.976 18.889 11.741 24.539 22.066.13.24.193.453.188.641-.058.119-.194.224-.409.314-15.134 6.372-40.731 17.223-76.789 32.551-5.471 2.226-10.945 4.457-16.424 6.692-.566.231-.597.579-.093 1.044l-2.033.061a4.16 4.16 0 0 0-.021-.759c-3.311-27.416 6.589-58.434 37.685-64.18 2.435-.448 5.134-.798 8.095-1.048a.545.545 0 0 0 .331-.143l.347-.31Z"/><path fill="#993414" d="M411.469 133.902a9.623 9.623 0 0 1-1.294 3.466 11.543 11.543 0 0 1 1.294-3.466Z"/><path fill="#DC9370" d="M219.018 185.795c-3.457.195-6.96.102-10.43.167-7.027.128-14.508 1.006-22.441 2.634-13.802 2.83-21.13 16.361-24.49 28.836a.17.17 0 0 0 .156.215.172.172 0 0 0 .097-.023c9.638-5.877 21.09-10.933 32.471-11.651 1.734-.112 4.449-.029 8.145.249 8.462.636 16.876.766 25.31-.384a.526.526 0 0 0 .339-.187l2.258-2.745c.138.02.13-.016.228.082 6.626 6.659 11.557 14.95 11.917 24.199.473 12.254 1.249 23.069 3.727 34.528 1.939 8.964 5.058 18.596 10.59 26.283 1.812 2.516 6.046 5.938 4.633 9.098a1323.225 1323.225 0 0 0-8.675 19.84c-11.908-1.097-21.273-8.128-28.352-17.152-4.3-5.484-8.583-10.986-12.847-16.508.163.019.288-.026.375-.135a.421.421 0 0 0 .086-.379c-1.829-7.605-1.845-14.999 2.392-21.569a.259.259 0 0 0 .044-.129.283.283 0 0 0-.025-.135.278.278 0 0 0-.215-.156c-2.518-.342-5.09 1.199-7.172 2.48-3.729 2.294-5.363 5.649-4.903 10.064.024.241-.053.359-.176.547-5.979-4.404-12.51-6.543-19.591-6.415-20.69.375-37.068 10.746-45.135 29.729a.323.323 0 0 1-.294.208c-13.561.987-21.142-7.569-23.343-19.86-3.102-17.344 1.29-35.879 17.905-44.846 3.907-2.109 7.704-3.36 7.01-8.678-.788-6.04-.596-11.207 2.053-16.765a49.014 49.014 0 0 1 9.876-13.882c1.045-.167 1.992-.085 3.021-.518 12.145-5.113 26.817-8.796 40.052-7.919 1.212.077 2.527-.073 3.641-.02 3.702.184 7.403.334 11.104.448 1.339.041 4.348-.371 5.042.241a.533.533 0 0 0 .355.138l5.262.07Zm-42.497 42.966a16.628 16.628 0 0 0-5.311 2.267c-1.323.862-2.033 2.038-2.131 3.528a.843.843 0 0 0 .424.787 46.312 46.312 0 0 0 6.397 3.042c.259.321.545.559.858.714a266.072 266.072 0 0 0 26.339 11.328c.174.063.455.04.841-.069 3.315 1.449 6.567 2.292 9.757 2.528 9.638.722 13.896-10.815 13.966-18.652.041-4.719-2.805-6.835-7.185-8.091a46.614 46.614 0 0 0-11.153-1.786c-6.502-.536-12.778-.23-18.828.917-4.27.81-8.928 1.972-13.974 3.487Z"/><path fill="#ECE1DF" d="m219.018 185.795 20.804.526a228.529 228.529 0 0 1-9.389 16.585l-2.258 2.745a.526.526 0 0 1-.339.187c-8.434 1.15-16.848 1.02-25.31.384-3.696-.278-6.411-.361-8.145-.249-11.381.718-22.833 5.774-32.471 11.651a.172.172 0 0 1-.253-.192c3.36-12.475 10.688-26.006 24.49-28.836 7.933-1.628 15.414-2.506 22.441-2.634 3.47-.065 6.973.028 10.43-.167Z"/><path fill="#E8A887" d="m270.746 186.117 6.209 7.1 5.634 7.797c-3.124-.601-5.858.129-8.201 2.19-4.087 3.593-6.496 9.29-7.606 14.501-16.052 26.006-3.384 55.327 12.125 77.662 1.722 2.48-4.009 13.543-5.573 16.688-.038.078-.021.144.049.195l.119.082c-2.107 2.8-4.929 4.331-8.467 4.592-3.858.285-8.369.636-12.182.012a1323.225 1323.225 0 0 1 8.675-19.84c1.413-3.16-2.821-6.582-4.633-9.098-5.532-7.687-8.651-17.319-10.59-26.283-2.478-11.459-3.254-22.274-3.727-34.528-.36-9.249-5.291-17.54-11.917-24.199-.098-.098-.09-.062-.228-.082a228.529 228.529 0 0 0 9.389-16.585c10.309.157 20.617.089 30.924-.204Z"/><path fill="#FBF9FC" d="m148.063 193.262 2.478.093a49.014 49.014 0 0 0-9.876 13.882c-2.649 5.558-2.841 10.725-2.053 16.765.694 5.318-3.103 6.569-7.01 8.678-16.615 8.967-21.007 27.502-17.905 44.846 2.201 12.291 9.782 20.847 23.343 19.86a.323.323 0 0 0 .294-.208c8.067-18.983 24.445-29.354 45.135-29.729 7.081-.128 13.612 2.011 19.591 6.415a75.434 75.434 0 0 1 9.594 9.412 2818.502 2818.502 0 0 0 12.847 16.508c7.079 9.024 16.444 16.055 28.352 17.152 3.813.624 8.324.273 12.182-.012 3.538-.261 6.36-1.792 8.467-4.592a36.228 36.228 0 0 0 7.095-8.947c4.303-7.634 7.748-14.95 16.999-17.556 2.74-.772 5.8-1.226 9.177-1.362 1.662.216 3.503.159 5.017.652 15.027 4.861 15.836 25.284 14.329 37.975-.208 1.753-.739 3.739.017 5.171 9.291 17.666 23.673 31.984 40.056 43.504a118.168 118.168 0 0 0 6.842 4.453c18.686 11.296 38.58 19.871 59.68 25.725a74.338 74.338 0 0 0 11.247 2.728.066.066 0 0 0 .057-.021l.074-.073a.13.13 0 0 1 .13-.041c2.393.604 4.816.986 7.271 1.146l2.564.4c.239.038.261.129.065.273l-.792.583c-.433-.084-.714-.106-.845-.065-23.808 7.679-49.674 6.725-69.368-10.448-.362-.313-.393-.283-.093.09l20.926 26.348c15.37 19.766 29.054 37.114 41.501 57.158 7.181 11.565 17.473 20.426 28.728 27.873 5.099 3.372 10.639 6.884 16.215 9.946a.198.198 0 0 1 .054.305.2.2 0 0 1-.099.062l-2.115.571c-.157-.506-.545-.741-1.163-.705-1.155.065-2.87.089-4.266.024-52.573-2.512-97.679-30.361-125.006-75.072a.153.153 0 0 0-.131-.082c-.071-.008-.09.02-.057.086.234.456.604 1.261 1.11 2.414 8.437 19.221 15.656 38.453 21.657 57.696 1.641 5.265 3.156 11.019 4.691 16.54 2.841 11.26 4.903 22.845 5.499 34.447 1.367 26.459 3.507 53.92 12.124 79.131.662 1.93 1.697 4.05 3.107 6.361.095.155.052.233-.131.233l-2.449.012a.148.148 0 0 1 .102-.086c.052-.013.061-.024.029-.032a118.82 118.82 0 0 0-5.72-.955c-6.711-.937-14.57-2.879-19.04-3.959-97.066-23.424-175.297-100.821-219.87-212.947.027.013-.015-.026 0 0 .03-.004-.027-.013 0 0 .007-.029-.022.02 0 0-8.438 38.888-38.226 101.739-69.158 127.333-33.77 27.942-75.912 33.982-118.393 27.689-.518-.077-.967.074-1.498.086l-1.666-.546a.101.101 0 0 1-.051-.035.102.102 0 0 1 .04-.157 114.2 114.2 0 0 0 30-20.129c24.278-22.56 41.437-51.135 54.329-81.406a389.638 389.638 0 0 0 14.19-39.716.115.115 0 0 0-.04-.121.113.113 0 0 0-.062-.021.105.105 0 0 0-.061.02c-25.131 16.871-53.271 30.014-82.485 36.898-6.545 1.541-14.055 2.576-22.53 3.103-3.372.208-7.16.131-10.75.196-.962.016-2.142-.392-3.367-.037l-4.483-.713a.101.101 0 0 1-.077-.079.097.097 0 0 1 .007-.057.097.097 0 0 1 .038-.044c24.026-13.457 45.536-30.122 64.53-49.992a170.829 170.829 0 0 0 10.304-11.814c12.157-14.442 21.762-30.452 28.813-48.031a.137.137 0 0 0 .001-.093.138.138 0 0 0-.059-.071.13.13 0 0 0-.09-.016.134.134 0 0 0-.08.045 405.252 405.252 0 0 1-33.655 36.351c-7.888 7.545-16.195 14.482-26.279 18.918-.438.194-1.348.433-2.73.718-.115.022-.189-.022-.221-.13a.328.328 0 0 1-.008-.163c21.065-19.999 40.223-42.041 56.524-66.097 15.023-22.164 26.299-44.275 33.353-69.967a77.97 77.97 0 0 0 9.484 16.047.224.224 0 0 0 .084.068.224.224 0 0 0 .105.023.226.226 0 0 0 .186-.099c14.721-20.488 26.372-48.288 20.665-73.98-.03-.133-.113-.206-.249-.22a39.013 39.013 0 0 0-8.977.147c1.206-2.322 2.79-4.226 4.752-5.713l46.874-26.76 2.033-.061Zm28.968 123.225c2.494-3.026 6.152-3.372 7.936.649 7.871 17.758 21.031 29.493 39.481 35.205 16.313 5.049 33.014.404 47.902-6.72.773-.37 1.386-.733 1.837-1.089.379-.296.354-.336-.073-.118-21.33 10.892-47.086 9.457-66.718-4.294-7.762-5.438-13.175-12.799-16.24-22.083-.886-2.675-1.106-6.088 2.074-7.279 4.033-1.505 9.373 1.244 12.778 3.633.25.174.296.132.139-.126-.79-1.294-1.812-2.49-3.066-3.589-7.328-6.415-18.13-7.038-24.592.93a29.264 29.264 0 0 0-5.74 11.524c-.041.161-.026.165.045.013 1.034-2.265 2.446-4.483 4.237-6.656Z"/><path fill="#ECE1DF" d="M282.589 201.014c1.225.538 2.519 1.06 3.474 1.998 6.128 6.011 6.377 17.454 5.519 25.337-1.219-1.256-2.721-2.935-4.506-5.036-4.969-5.832-12.868-9.845-20.294-5.608 1.11-5.211 3.519-10.908 7.606-14.501 2.343-2.061 5.077-2.791 8.201-2.19Z"/><path fill="#C9836D" d="M291.582 228.349c1.442 7.414 2.14 14.298.527 21.785a.644.644 0 0 0 .294.685c11.872 7.271 19.342 19.521 14.37 33.648-3.377.136-6.437.59-9.177 1.362-9.251 2.606-12.696 9.922-16.999 17.556a36.228 36.228 0 0 1-7.095 8.947l-.119-.082c-.07-.051-.087-.117-.049-.195 1.564-3.145 7.295-14.208 5.573-16.688-15.509-22.335-28.177-51.656-12.125-77.662 7.426-4.237 15.325-.224 20.294 5.608 1.785 2.101 3.287 3.78 4.506 5.036Zm-10.357 26.491c2.088.111 4.275-.303 6.561-1.244 3.923-1.615 4.017-4.045 4.017-8.148 0-5.746-.49-11.973-8.218-11.137-3.93.171-7.494 1.328-10.692 3.47-1.931 1.293-3.27 2.814-4.09 4.902-1.943 4.939-3.491 13.066 4.801 12.936 3.184-.053 5.531.122 7.621-.779Z"/><path fill="#5A2F30" d="M209.323 224.357c-1.949.32-3.547 1.088-4.793 2.304-2.09 2.035-2.596 5.513-1.237 8.054 1.886 3.529 4.765 4.695 8.638 3.499a.225.225 0 0 1 .286.269c-1.238 5.027-3.998 8.985-8.279 11.875-.386.109-.667.132-.841.069a266.072 266.072 0 0 1-26.339-11.328 2.587 2.587 0 0 1-.858-.714c-.354-3.197-.147-6.405.621-9.624 5.046-1.515 9.704-2.677 13.974-3.487 6.05-1.147 12.326-1.453 18.828-.917Zm-9.708 11.177a4.148 4.148 0 0 0-1.217-2.935 4.159 4.159 0 0 0-7.095 2.935 4.153 4.153 0 0 0 4.156 4.152 4.153 4.153 0 0 0 4.156-4.152Z"/><path fill="#ECE1DF" d="M203.938 250.358c4.281-2.89 7.041-6.848 8.279-11.875a.225.225 0 0 0-.286-.269c-3.873 1.196-6.752.03-8.638-3.499-1.359-2.541-.853-6.019 1.237-8.054 1.246-1.216 2.844-1.984 4.793-2.304 3.794.144 7.511.739 11.153 1.786 4.38 1.256 7.226 3.372 7.185 8.091-.07 7.837-4.328 19.374-13.966 18.652-3.19-.236-6.442-1.079-9.757-2.528Z"/><path fill="#DC9370" d="M73.106 283.81a.68.68 0 0 1-.02-.404.645.645 0 0 0-.025-.379c-4.28-12.098-4.48-24.287-.6-36.568 3.4-10.753 10.77-18.318 21.943-20.663a39.013 39.013 0 0 1 8.977-.147c.136.014.219.087.249.22 5.707 25.692-5.944 53.492-20.665 73.98a.23.23 0 0 1-.186.099.228.228 0 0 1-.105-.023.224.224 0 0 1-.085-.068 77.97 77.97 0 0 1-9.483-16.047Zm18.016-39.524a.083.083 0 0 0-.054-.032.082.082 0 0 0-.077.13c5.066 7.878.184 21.915-3.51 30.067-.736 1.626-.694 1.645.126.057 3.51-6.782 9.85-23.245 3.515-30.222Z"/><path fill="#ECE1DF" d="M176.521 228.761c-.768 3.219-.975 6.427-.621 9.624a46.312 46.312 0 0 1-6.397-3.042.844.844 0 0 1-.424-.787c.098-1.49.808-2.666 2.131-3.528a16.628 16.628 0 0 1 5.311-2.267Zm23.094 6.773a4.153 4.153 0 0 1-4.156 4.152 4.153 4.153 0 0 1-2.939-7.087 4.159 4.159 0 0 1 7.095 2.935Z"/><path fill="#5A2F30" d="m283.585 234.311.976 1.293a.335.335 0 0 1 .058.259.329.329 0 0 1-.152.214c-4.87 2.907-3.576 10.081 2.327 10.179a.171.171 0 0 1 .133.066.177.177 0 0 1 .03.146c-.893 3.452-2.803 6.243-5.732 8.372-2.09.901-4.437.726-7.621.779-8.292.13-6.744-7.997-4.801-12.936.82-2.088 2.159-3.609 4.09-4.902 3.198-2.142 6.762-3.299 10.692-3.47Zm-4.947 12.409a2.72 2.72 0 0 0 1.997-.917 3.22 3.22 0 0 0 .815-2.185 3.327 3.327 0 0 0-.224-1.179 3.107 3.107 0 0 0-.621-.995 2.813 2.813 0 0 0-.924-.662 2.623 2.623 0 0 0-1.086-.227 2.722 2.722 0 0 0-1.997.917 3.223 3.223 0 0 0-.814 2.185c.003.405.079.805.224 1.178a3.1 3.1 0 0 0 .621.996c.265.285.579.51.924.662.344.153.713.23 1.085.227Z"/><path fill="#ECE1DF" d="M281.225 254.84c2.929-2.129 4.839-4.92 5.732-8.372a.177.177 0 0 0-.03-.146.171.171 0 0 0-.133-.066c-5.903-.098-7.197-7.272-2.327-10.179a.32.32 0 0 0 .15-.35.335.335 0 0 0-.056-.123l-.976-1.293c7.728-.836 8.218 5.391 8.218 11.137 0 4.103-.094 6.533-4.017 8.148-2.286.941-4.473 1.355-6.561 1.244Z"/><path fill="#ECE1DF" d="M278.638 246.72a2.615 2.615 0 0 1-1.085-.227 2.813 2.813 0 0 1-.924-.662 3.1 3.1 0 0 1-.621-.996 3.322 3.322 0 0 1-.224-1.178 3.223 3.223 0 0 1 .814-2.185 2.722 2.722 0 0 1 1.997-.917c.372-.003.741.074 1.086.227.345.152.659.377.924.662.265.284.476.622.621.995.145.373.221.774.224 1.179a3.22 3.22 0 0 1-.815 2.185 2.72 2.72 0 0 1-1.997.917Z"/><path fill="#5A2F30" d="M91.122 244.286c6.335 6.977-.004 23.44-3.515 30.222-.82 1.588-.862 1.569-.127-.057 3.695-8.152 8.577-22.189 3.511-30.067a.08.08 0 0 1 .016-.114.082.082 0 0 1 .06-.016.084.084 0 0 1 .055.032Z"/><path fill="#C9836D" d="M211.654 283.276a75.434 75.434 0 0 0-9.594-9.412c.123-.188.2-.306.176-.547-.46-4.415 1.174-7.77 4.903-10.064 2.082-1.281 4.654-2.822 7.172-2.48a.275.275 0 0 1 .196.42c-4.237 6.57-4.221 13.964-2.392 21.569a.421.421 0 0 1-.086.379c-.087.109-.212.154-.375.135Z"/><path fill="#5A2F30" d="M184.967 317.136c-1.784-4.021-5.442-3.675-7.936-.649-1.791 2.173-3.203 4.391-4.237 6.656-.071.152-.086.148-.045-.013a29.264 29.264 0 0 1 5.74-11.524c6.462-7.968 17.264-7.345 24.592-.93 1.254 1.099 2.276 2.295 3.066 3.589.157.258.111.3-.139.126-3.405-2.389-8.745-5.138-12.778-3.633-3.18 1.191-2.96 4.604-2.074 7.279 3.065 9.284 8.478 16.645 16.24 22.083 19.632 13.751 45.388 15.186 66.718 4.294.427-.218.452-.178.073.118-.451.356-1.064.719-1.837 1.089-14.888 7.124-31.589 11.769-47.902 6.72-18.45-5.712-31.61-17.447-39.481-35.205Z"/><path fill="#C7C3C5" d="M17.537 412.346c-10.418 4.465-23.278 8.457-34.7 8.143-.169-.002-.203-.072-.102-.208.136-.179.3-.315.494-.407a.328.328 0 0 0 .008.163c.032.108.106.152.22.13 1.383-.285 2.293-.524 2.731-.718 10.084-4.436 18.391-11.373 26.279-18.918a405.252 405.252 0 0 0 33.655-36.351.134.134 0 0 1 .08-.045.13.13 0 0 1 .09.016.138.138 0 0 1 .06.071c.01.03.01.063-.002.093-7.051 17.579-16.656 33.589-28.813 48.031Zm435.793-5.404c-.182.234-.483.502-.902.804-13.031 9.375-28.748 16.03-45.208 15.072a22.68 22.68 0 0 0-3.27.049l-20.926-26.348c-.3-.373-.269-.403.093-.09 19.694 17.173 45.56 18.127 69.368 10.448.131-.041.412-.019.845.065Zm-20.616-4.995c2.392-.176 6.287 1.125 8.724 1.659 2.67.583 6.74 1.057 10.055 2.08a40.376 40.376 0 0 1-7.271-1.146.13.13 0 0 0-.13.041l-.074.073a.066.066 0 0 1-.057.021 74.338 74.338 0 0 1-11.247-2.728ZM52.323 474.723c-.128 0-.257.014-.388.041-34.21 7.365-69.972 6.141-104.717.281 1.225-.355 2.404.053 3.368.037 3.588-.065 7.377.012 10.749-.196 8.475-.527 15.985-1.562 22.53-3.103 29.214-6.884 57.354-20.027 82.485-36.898a.105.105 0 0 1 .061-.02.113.113 0 0 1 .062.021.115.115 0 0 1 .04.121 389.638 389.638 0 0 1-14.19 39.716Zm435.911 44.059a175.775 175.775 0 0 1-33.83 8.576c-.025.003-.528.14-1.511.412-.906.249-1.575-.077-2.404.041-22 3.152-44.869 1.264-65.179-8.193a.148.148 0 0 0-.143.008l-.098.057c-1.535-5.521-3.05-11.275-4.691-16.54-6.001-19.243-13.22-38.475-21.657-57.696-.506-1.153-.876-1.958-1.11-2.414-.033-.066-.014-.094.057-.086.057.003.101.03.131.082 27.327 44.711 72.433 72.56 125.006 75.072 1.396.065 3.111.041 4.266-.024.618-.036 1.006.199 1.163.705Zm-85.015 121.085a.309.309 0 0 1-.204.082 310.167 310.167 0 0 1-54.026-3.74c-.172-.027-.69-.031-1.556-.012-.91.02-1.363-.392-2.098-.51-71.335-11.264-137.413-42.142-189.438-92.221a.223.223 0 0 0-.134-.062.226.226 0 0 0-.144.038c-31.495 21.336-67.947 36.584-105.395 42.55-1.828.291-5.92.707-12.275 1.248-23.217 1.974-46.768-1.105-68.278-10.244.53-.012.98-.163 1.498-.086 42.481 6.293 84.624.253 118.393-27.689 30.932-25.594 60.72-88.445 69.158-127.333.007-.029-.022.02 0 0 .03-.004-.027-.013 0 0s-.015-.026 0 0c44.573 112.126 122.804 189.523 219.87 212.947 4.47 1.08 12.329 3.022 19.04 3.959 1.903.27 3.809.588 5.72.955.032.008.023.019-.029.032a.148.148 0 0 0-.102.086Z"/></g><defs><clipPath id="clip0_4190_3031"><rect width="512" height="512" fill="#fff" rx="256"/></clipPath></defs></svg>