<svg xmlns="http://www.w3.org/2000/svg" fill="none" viewBox="0 0 512 512"><path fill="#000" d="M256 512c141.385 0 256-114.615 256-256S397.385 0 256 0 0 114.615 0 256s114.615 256 256 256Z"/><path fill="#FF060A" d="M407.77 226.211c-15.338-14.11-36.557-35.656-53.838-50.937l-1.023-.713a19.509 19.509 0 0 0-5.675-3.158c-41.67-7.743-235.599-43.857-239.383-43.399a7.172 7.172 0 0 0-2.965 1.121l-.972.764a11.347 11.347 0 0 0-2.658 4.279l-.256.662v4.177c21.832 60.564 108.034 258.963 125.009 305.519 1.022 3.158 2.965 9.168 6.595 9.474h.818c1.943 0 10.226-10.9 10.226-10.9s148.068-178.891 163.048-197.941a48.216 48.216 0 0 0 5.113-7.539 12.232 12.232 0 0 0-.511-6.235 12.264 12.264 0 0 0-3.528-5.174Zm-126.134 20.833 63.195-52.211 37.068 34.026-100.263 18.185Zm-24.541-3.413-108.801-88.834 176.035 32.345-67.234 56.489Zm9.816 23.278 111.358-17.879-127.31 152.811 15.952-134.932ZM133.518 163.66l114.476 96.78-16.566 141.503-97.91-238.283Z"/></svg>