<svg xmlns="http://www.w3.org/2000/svg" fill="none" viewBox="0 0 512 512"><rect width="512" height="512" fill="#000" rx="256"/><path fill="#fff" d="M73.002 228.017c.542-42.497 24.03-79.906 57.4-104.846 33.491-25.033 74.36-38.142 115.992-39.97 36.794-1.613 72.953 6.53 105.552 23.468 44.742 23.252 86.039 67.257 88.024 120.218.1 2.687-.05 4.76-.45 6.219-1.244 4.562-4.896 8.306-9.355 9.796-4.3 1.433-10.594.853-15.896.853-108.385.011-216.769.013-325.15.004-9.78 0-16.24-5.775-16.117-15.742Zm345.634-5.652c-.406-7.08-2.607-14.946-4.852-21.042-11.362-30.838-36.574-55.915-64.621-72.158-32.157-18.625-66.931-26.878-104.321-24.76-51.998 2.945-107.294 27.323-135.514 72.8-8.548 13.776-13.61 28.801-15.186 45.077a.269.269 0 0 0 .265.29l324.052-.018c.127 0 .185-.063.177-.189Z"/><path fill="#9505FF" d="M437.14 265.968H74.975a.206.206 0 0 0-.206.204v34.065c0 .112.092.204.206.204H437.14a.206.206 0 0 0 .207-.204v-34.065a.206.206 0 0 0-.207-.204Z"/><path fill="#fff" d="M190.252 350.194c3.622.477 5.698-.965 6.228-4.327 1.146-7.309.454-19.52 9.315-22.542 1.246-.425 3.401-.637 6.465-.637 69.597.009 139.193-.041 208.787-.149 1.557-.005 3.789.026 5.429.276 5.553.853 10.224 4.832 11.886 10.099.471 1.493.713 4.067.728 7.722.027 5.657.032 11.313.018 16.968-.009 3.66-.149 6.58-.419 8.758-3.312 26.561-23.724 47.856-50.593 51.229-2.149.273-5.085.409-8.807.409H129.577c-7.497 0-15.016-1.745-22.555-5.236-18.678-8.644-31.296-26.082-33.634-46.415-.232-2.015-.353-4.937-.362-8.767-.014-5.992-.023-11.983-.026-17.974 0-2.524.197-4.488.591-5.891 1.9-6.764 7.573-10.928 14.775-10.998a909.6 909.6 0 0 1 20.632.022c7.441.088 13.227 3.847 15.159 11.082.388 1.461.579 3.569.573 6.325-.009 4.065-.009 8.126 0 12.185.003 1.268.46 2.499 1.372 3.694 3.872 5.069 12.124 5.148 14.797-1.217.376-.899.566-2.233.569-4.001.009-3.519-.119-7.485.556-10.665 1.698-7.986 7.758-14.715 15.807-16.793 13.055-3.369 24.773 5.491 26.776 18.33.577 3.698.93 7.893 5.645 8.513Zm26.158 1.844c-6.571 24.567-39.822 26.096-50.041 3.361-1.477-3.29-2.152-7.314-2.743-11.047a.54.54 0 0 0-.604-.457c-.171.02-.302.13-.393.329-.053.114-.078.273-.075.475.03 4.951-.016 8.073-.136 9.364-.997 10.845-7.701 20.192-17.704 24.528-15.176 6.575-33.136-1.138-39.24-16.511-2.236-5.64-1.901-10.859-1.773-17.996.003-.197-.094-.295-.291-.295l-9.165-.004c-.15 0-.223.073-.22.22.044 4.866.064 9.732.061 14.596-.002 3.256.175 5.856.534 7.801 2.774 14.982 14.444 27.303 29.7 29.991 1.982.349 4.91.523 8.786.523 82.111-.003 164.222-.001 246.333.005 3.505 0 6.277-.192 8.318-.576 15.189-2.864 26.943-14.93 29.607-30.123 1.182-6.743.556-15.185.556-22.406a.067.067 0 0 0-.021-.05.071.071 0 0 0-.05-.021l-199.904.071c-.17 0-.264.086-.282.259-.269 2.688-.617 5.592-1.253 7.963Z"/></svg>