<svg xmlns="http://www.w3.org/2000/svg" fill="none" viewBox="0 0 514 514"><path fill="#000" d="M257 513c141.385 0 256-114.615 256-256S398.385 1 257 1 1 115.615 1 257s114.615 256 256 256Z"/><path fill="#fff" d="M434.291 257.426a176.581 176.581 0 0 0-13.91-68.951 177.678 177.678 0 0 0-316.484-21.908 177.679 177.679 0 0 0 284.428 210.077 177.69 177.69 0 0 0 45.966-119.218Zm-13.91 0c0 9.754-.848 19.422-2.544 29.006h-53.092L264.074 185.591V94.334a163.263 163.263 0 0 1 156.307 163.092Zm-326.524 0c0-87.78 69.376-159.445 156.308-163.092v91.427L149.494 286.347H96.402a164.034 164.034 0 0 1-2.545-28.836v-.085Zm320.842 42.83a163.35 163.35 0 0 1-157.58 120.326 163.35 163.35 0 0 1-157.58-120.326h55.722l.763-.678 101.011-101.181L358.13 299.578l.848.678h55.721Z"/><path stroke="#fff" stroke-width=".6" d="M434.291 257.426a176.581 176.581 0 0 0-13.91-68.951 177.678 177.678 0 0 0-316.484-21.908 177.679 177.679 0 0 0 284.428 210.077 177.69 177.69 0 0 0 45.966-119.218Zm0 0h-2.545M513 257c0 141.385-114.615 256-256 256S1 398.385 1 257 115.615 1 257 1s256 114.615 256 256Zm-92.619.426c0 9.754-.848 19.422-2.544 29.006h-53.092L264.074 185.591V94.334a163.263 163.263 0 0 1 156.307 163.092Zm-326.524 0c0-87.78 69.376-159.445 156.308-163.092v91.427L149.494 286.347H96.402a164.034 164.034 0 0 1-2.545-28.836v-.085Zm320.842 42.83a163.35 163.35 0 0 1-157.58 120.326 163.35 163.35 0 0 1-157.58-120.326h55.722l.763-.678 101.011-101.181L358.13 299.578l.848.678h55.721Z"/></svg>