<svg width="356" height="310" viewBox="0 0 356 310" fill="none" xmlns="http://www.w3.org/2000/svg">
<path d="M348.742 66.2976L220.978 287.935C217.159 294.569 211.659 300.079 205.032 303.911C198.405 307.743 190.885 309.76 183.23 309.76C175.574 309.76 168.055 307.743 161.427 303.911C154.8 300.079 149.3 294.569 145.481 287.935L123.219 249.221V248.253C127.217 252.279 132.092 255.325 137.463 257.153C142.833 258.982 148.554 259.543 154.178 258.793C159.802 258.043 165.176 256.003 169.88 252.831C174.584 249.659 178.49 245.443 181.294 240.51L287.764 55.6513C290.838 50.7316 292.705 45.1544 293.212 39.3754C293.719 33.5963 292.851 27.7794 290.68 22.3996C288.509 17.0198 285.097 12.2299 280.721 8.421C276.345 4.61213 271.13 1.89238 265.502 0.483926H310.993C318.795 0.252647 326.515 2.12161 333.346 5.89536C340.177 9.66912 345.869 15.209 349.826 21.9356C353.784 28.6623 355.86 36.3285 355.84 44.1326C355.819 51.9367 353.702 59.5919 349.71 66.2976H348.742ZM197.748 0.483926H153.224C156.399 1.57375 159.286 3.36726 161.669 5.73025C164.053 8.09324 165.871 10.9645 166.988 14.1294C168.105 17.2943 168.492 20.6707 168.12 24.0062C167.748 27.3417 166.626 30.5499 164.839 33.3908L99.9895 144.693C98.2763 147.473 95.9724 149.843 93.2411 151.633C90.5099 153.423 87.4182 154.59 84.1853 155.052C80.9524 155.514 77.6575 155.259 74.5343 154.305C71.411 153.351 68.5359 151.722 66.1127 149.533V150.5L88.3746 189.214C90.9206 193.637 94.5874 197.311 99.0054 199.865C103.423 202.42 108.437 203.764 113.54 203.764C118.644 203.764 123.657 202.42 128.075 199.865C132.493 197.311 136.16 193.637 138.706 189.214L222.914 44.0371C225.463 39.6218 226.805 34.6131 226.804 29.5147C226.803 24.4164 225.46 19.4081 222.909 14.9936C220.358 10.5791 216.69 6.91403 212.273 4.36697C207.857 1.81991 202.847 0.480656 197.748 0.483926ZM44.8187 0.483926C39.2883 -0.398755 33.6322 -0.0711731 28.2407 1.44407C22.8491 2.95931 17.8505 5.62615 13.5897 9.26057C9.32895 12.895 5.90742 17.4105 3.56122 22.4954C1.21502 27.5804 0 33.1139 0 38.714C0 44.3141 1.21502 49.8475 3.56122 54.9325C5.90742 60.0174 9.32895 64.5329 13.5897 68.1673C17.8505 71.8018 22.8491 74.4686 28.2407 75.9838C33.6322 77.4991 39.2883 77.8267 44.8187 76.944C53.9141 75.4923 62.194 70.8459 68.1715 63.839C74.149 56.8321 77.4326 47.9239 77.4326 38.714C77.4326 29.504 74.149 20.5958 68.1715 13.5889C62.194 6.58205 53.9141 1.93559 44.8187 0.483926Z" fill="black"/>
</svg>
