<svg xmlns="http://www.w3.org/2000/svg" fill="none" viewBox="0 0 512 512"><path fill="#000" fill-rule="evenodd" d="M512 256c0 141.385-114.615 256-256 256S0 397.385 0 256 114.615 0 256 0s256 114.615 256 256Z" clip-rule="evenodd"/><path fill="#fff" d="M176.618 418.763a176.724 176.724 0 0 1-77.692-237.249 176.748 176.748 0 0 1 102.638-87.825 176.759 176.759 0 0 1 134.688 10.321 176.756 176.756 0 0 1 87.901 102.571 176.728 176.728 0 0 1-10.218 134.697 176.723 176.723 0 0 1-237.317 77.485Zm153.489-302.636a163.127 163.127 0 0 0-219.065 71.532 163.003 163.003 0 0 0-9.459 124.334 163.007 163.007 0 0 0 81.181 94.651 163.017 163.017 0 0 0 124.331 9.579 163.001 163.001 0 0 0 94.724-81.09 163.134 163.134 0 0 0-71.712-219.006Z"/><path fill="#fff" d="M209.16 403.966a146.408 146.408 0 0 1-72.826-84.978 146.434 146.434 0 0 1 8.465-111.589 146.442 146.442 0 0 1 85.032-72.759 146.435 146.435 0 0 1 111.586 8.554 146.43 146.43 0 0 1 72.821 84.972 146.43 146.43 0 0 1-8.466 111.592 146.417 146.417 0 0 1-85.031 72.757 146.405 146.405 0 0 1-111.581-8.549Zm127.484-251.362a135.864 135.864 0 0 0-103.529-7.929 135.86 135.86 0 0 0-78.888 67.506 135.854 135.854 0 0 0 59.715 182.357 135.853 135.853 0 0 0 103.515 7.926 135.829 135.829 0 0 0 78.887-67.488 135.842 135.842 0 0 0 7.844-103.521 135.844 135.844 0 0 0-67.553-78.832l.009-.019Z"/><path fill="#fff" d="M241.687 389.176a116.105 116.105 0 0 1-51.034-155.862 116.117 116.117 0 0 1 67.426-57.695 116.122 116.122 0 0 1 88.48 6.779 116.062 116.062 0 0 1 57.751 67.378 116.086 116.086 0 0 1-6.72 88.491 116.093 116.093 0 0 1-67.426 57.687 116.088 116.088 0 0 1-88.477-6.778Zm101.462-200.053a108.541 108.541 0 0 0-82.727-6.347 108.555 108.555 0 0 0-63.045 53.944 108.565 108.565 0 0 0-6.263 82.727 108.532 108.532 0 0 0 53.995 62.983 108.532 108.532 0 0 0 82.716 6.353 108.568 108.568 0 0 0 63.045-53.928 108.558 108.558 0 0 0 6.275-82.737 108.543 108.543 0 0 0-53.996-62.995Z"/><path fill="#fff" d="M274.22 374.382a85.805 85.805 0 0 1-42.664-49.79 85.799 85.799 0 0 1 4.958-65.376 85.783 85.783 0 0 1 49.817-42.639 85.784 85.784 0 0 1 65.387 5.002 85.768 85.768 0 0 1 42.667 49.8 85.772 85.772 0 0 1-4.97 65.384 85.797 85.797 0 0 1-115.195 37.619Zm75.451-148.766a81.28 81.28 0 0 0-61.931-4.738 81.25 81.25 0 0 0-47.186 40.387 81.265 81.265 0 0 0-4.695 61.922 81.272 81.272 0 0 0 40.41 47.155 81.255 81.255 0 0 0 109.106-35.627 81.233 81.233 0 0 0 4.707-61.931 81.263 81.263 0 0 0-40.411-47.168Z"/></svg>