<svg xmlns="http://www.w3.org/2000/svg" fill="none" viewBox="0 0 512 512"><path fill="#000" d="M256 512c141.385 0 256-114.615 256-256S397.385 0 256 0 0 114.615 0 256s114.615 256 256 256Z"/><path fill="#3879F0" fill-rule="evenodd" d="m146.639 110.418-20.681 21.028 100.86 102.511v95.461h58.585v-95.457l100.864-102.525-41.677-42.348-43.938 44.657c-24.167 24.562-44.212 44.658-44.543 44.658-.333 0-20.308-20.028-44.389-44.506-24.082-24.479-43.922-44.507-44.092-44.507-.169 0-9.613 9.462-20.989 21.028Zm-21.663 119.648c-7.336 12.914-14.097 35.903-15.96 54.272-.92 9.059-.433 28.83.926 37.713 12.726 83.115 89.968 139.61 171.254 125.255 53.586-9.462 97.65-47.887 114.779-100.086 5.636-17.178 7.463-28.795 7.481-47.575.018-20.328-2.259-33.838-8.849-52.487-2.26-6.396-8.074-19.03-8.756-19.03-.273 0-10.384 10.05-22.466 22.336-20.317 20.655-21.948 22.468-21.666 24.094.168.968.749 3.784 1.289 6.257 1.571 7.189 2.184 16.917 1.578 25.027-.639 8.522-1.646 13.774-4.197 21.865-8.186 25.975-29.869 48.225-55.762 57.219-9.89 3.434-15.44 4.282-28.214 4.31-12.985.028-17.881-.673-27.945-4.001-27.379-9.05-49.691-32.405-57.726-60.421-2.609-9.1-3.36-14.913-3.326-25.783.031-10.105.349-12.693 3.014-24.556.215-.956-4.636-6.214-22.007-23.844l-22.282-22.617-1.165 2.052Z" clip-rule="evenodd"/></svg>