<svg xmlns="http://www.w3.org/2000/svg" viewBox="0 0 257 256"><path d="m128.109 182.179 52.993 52.977 24.806-24.802-65.383-65.371a17.56 17.56 0 0 0-12.396-5.133c-4.644 0-9.1 1.845-12.397 5.133l-65.37 65.371 24.78 24.802 52.967-52.964zm107.131-1.178-52.967-52.963 52.967-52.977-24.793-24.802-65.37 65.371a17.5 17.5 0 0 0-3.801 5.684 17.54 17.54 0 0 0 3.801 19.118l65.37 65.371zm-94.635-69.828 65.37-65.371L181.182 21l-52.967 52.977L75.222 21 50.429 45.802l65.383 65.371c3.42 3.426 7.905 5.126 12.39 5.126 4.498 0 8.983-1.7 12.403-5.126m-29.358 29.353a17.5 17.5 0 0 0 3.797-5.685 17.56 17.56 0 0 0-3.797-19.117l-65.37-65.371-24.793 24.802 52.967 52.963-52.967 52.977 24.793 24.802z"/></svg>