<svg xmlns="http://www.w3.org/2000/svg" viewBox="0 0 257 256"><path fill-rule="evenodd" d="M220.337 112.366c10.576 9.216 13.011 19.501 13.126 33.611.117 14.411-2.314 25.037-13.126 34.438-6.229 5.415-13.806 7.306-19.672 8.769q-1.057.263-2.034.514v17.597c0 2.912-1.661 5.582-4.341 6.654-16.192 6.476-39.906 10.564-66.331 10.564s-50.14-4.088-66.332-10.564c-2.68-1.072-4.341-3.742-4.341-6.654v-17.597q-1.066-.274-2.23-.559l-.002-.001c-5.85-1.444-13.37-3.301-19.473-8.723-10.618-9.433-12.311-20.154-12.201-34.438.108-13.98 1.822-24.363 12.2-33.611 6.904-6.152 15.564-9.396 22.968-9.396 0-29.671 28.503-53.962 64.587-55.964V34.439c-5.289-1.98-9.059-7.123-9.059-13.155 0-7.745 6.216-14.024 13.883-14.024s13.882 6.279 13.882 14.024c0 6.032-3.77 11.175-9.059 13.155v12.567c36.084 2.002 64.587 26.293 64.587 55.964 7.404 0 15.997 3.322 22.968 9.396M50.601 130.445a39.5 39.5 0 0 0-3.159 15.532c0 16.069 9.554 29.884 23.237 35.963h31.267c13.682-6.079 23.236-19.894 23.236-35.963a39.5 39.5 0 0 0-3.159-15.532zm85.144 0a39.5 39.5 0 0 0-3.159 15.532c0 16.069 9.554 29.884 23.236 35.963h31.267c13.683-6.079 23.237-19.894 23.237-35.963a39.5 39.5 0 0 0-3.16-15.532z" clip-rule="evenodd"/><path fill-rule="evenodd" d="M220.337 112.366c10.576 9.216 13.011 19.501 13.126 33.611.117 14.411-2.314 25.037-13.126 34.438-6.229 5.415-13.806 7.306-19.672 8.769q-1.057.263-2.034.514v17.597c0 2.912-1.661 5.582-4.341 6.654-16.192 6.476-39.906 10.564-66.331 10.564s-50.14-4.088-66.332-10.564c-2.68-1.072-4.341-3.742-4.341-6.654v-17.597q-1.066-.274-2.23-.559l-.002-.001c-5.85-1.444-13.37-3.301-19.473-8.723-10.618-9.433-12.311-20.154-12.201-34.438.108-13.98 1.822-24.363 12.2-33.611 6.904-6.152 15.564-9.396 22.968-9.396 0-29.671 28.503-53.962 64.587-55.964V34.439c-5.289-1.98-9.059-7.123-9.059-13.155 0-7.745 6.216-14.024 13.883-14.024s13.882 6.279 13.882 14.024c0 6.032-3.77 11.175-9.059 13.155v12.567c36.084 2.002 64.587 26.293 64.587 55.964 7.404 0 15.997 3.322 22.968 9.396M50.601 130.445a39.5 39.5 0 0 0-3.159 15.532c0 16.069 9.554 29.884 23.237 35.963h31.267c13.682-6.079 23.236-19.894 23.236-35.963a39.5 39.5 0 0 0-3.159-15.532zm85.144 0a39.5 39.5 0 0 0-3.159 15.532c0 16.069 9.554 29.884 23.236 35.963h31.267c13.683-6.079 23.237-19.894 23.237-35.963a39.5 39.5 0 0 0-3.16-15.532z" clip-rule="evenodd"/><path d="M147.254 136.543h19.251c.925 0 1.674.757 1.674 1.691v19.455c0 .935-.749 1.692-1.674 1.692h-19.251a1.68 1.68 0 0 1-1.674-1.692v-19.455c0-.934.749-1.691 1.674-1.691"/><path d="M147.254 136.543h19.251c.925 0 1.674.757 1.674 1.691v19.455c0 .935-.749 1.692-1.674 1.692h-19.251a1.68 1.68 0 0 1-1.674-1.692v-19.455c0-.934.749-1.691 1.674-1.691m-84.539 0h18.414c.925 0 1.674.757 1.674 1.691v19.455c0 .935-.75 1.692-1.674 1.692H62.715a1.683 1.683 0 0 1-1.674-1.692v-19.455c0-.934.75-1.691 1.674-1.691"/><path d="M62.715 136.543h18.414c.925 0 1.674.757 1.674 1.691v19.455c0 .935-.75 1.692-1.674 1.692H62.715a1.683 1.683 0 0 1-1.674-1.692v-19.455c0-.934.75-1.691 1.674-1.691"/></svg>