<svg xmlns="http://www.w3.org/2000/svg" viewBox="0 0 257 256"><path d="m146.571 181.226 90.042-51.128c5.739-3.258 8.648-7.688 8.694-12.19v-.179c-.028-4.307-2.674-8.665-7.966-12.114l-24.799-16.163c-8.356-5.447-19.467-7.169-29.298-4.779q-.543.132-1.08.28a32.7 32.7 0 0 0-7.335 3.004c5.624-3.194 8.395-7.138 8.415-11.17v-.09c-.02-4.042-2.801-8.166-8.235-11.709l-24.507-15.972c-10.9-7.105-28.898-7.661-40.2-1.244L20.259 98.9c-5.757 3.269-8.666 7.717-8.694 12.234v.137c.03 4.306 2.675 8.663 7.966 12.112l8.882 5.789L116.77 79c7.005-3.977 18.156-3.635 24.907.765l4.721 3.078c2.757 1.796 4.405 4.114 4.647 6.535.661 6.607 9.016 12.117 19.792 13.052l.357.031c3.955.343 7.631 1.517 10.392 3.316l4.474 2.916c4.098 2.671 5.632 6.223 4.638 9.492-.643 2.116-2.346 4.114-5.099 5.677l-88.358 50.171 9.128 5.949c10.9 7.105 28.899 7.661 40.201 1.244"/><path d="m238.26 134.161-90.043 51.128c-11.302 6.417-31.76 5.86-42.66-1.244l-9.128-5.949v22.988l9.128 5.949c10.9 7.105 31.358 7.662 42.66 1.244l90.043-51.127c5.607-3.184 8.512-7.487 8.686-11.882l.007-23.298c-.046 4.502-2.955 8.932-8.693 12.191"/><path fill-rule="evenodd" d="m145.939 87.735-4.721-3.077c-6.751-4.4-17.902-4.742-24.907-.765l-87.087 49.449v22.989l87.087-49.449c7.005-3.978 18.156-3.635 24.907.765l4.721 3.077c2.757 1.797 4.405 4.114 4.647 6.536.661 6.607 9.015 12.116 19.791 13.052.233.02.467-.032.669-.148l12.761-7.309c3.767-2.159 5.431-6.899 1.793-9.269l-4.473-2.916c-2.761-1.8-6.438-2.973-10.392-3.316l-.358-.031c-10.776-.935-19.13-6.445-19.791-13.052-.242-2.421-1.89-4.739-4.647-6.536M26.751 156.331v-22.989l-7.797-5.081c-5.29-3.449-7.937-7.807-7.966-12.112l.002 23.095c.071 4.271 2.717 8.585 7.964 12.005z" clip-rule="evenodd"/><path d="M182.17 84.207s.821-.41 2.462-.819l-.001-6.14c.001 3.274-1.23 5.73-2.461 6.959"/></svg>