<svg xmlns="http://www.w3.org/2000/svg" viewBox="0 0 513 513"><path fill-rule="evenodd" d="M61.78 266.178c-39.424 22.762-51.417 75.798-26.786 118.461l181.111-104.565c24.632 42.663 76.559 58.795 115.983 36.034l119.452-68.966c39.424-22.762 51.417-75.798 26.785-118.461L297.214 233.246c-24.631-42.662-76.558-58.795-115.982-36.034z" clip-rule="evenodd"/><path fill-rule="evenodd" d="M384.642 478.324c88.802-51.271 135.26-147.718 127.102-243.55l-80.859 46.684c-7.386 51.638-37.557 99.49-86.237 127.595-78.49 45.316-177.379 23.293-229.77-48.145l-69.558 40.16c74.733 109.623 222.549 144.675 339.322 77.256M168.678 104.263c78.49-45.316 177.38-23.293 229.77 48.145l69.559-40.16C393.273 2.626 245.457-32.426 128.684 34.993 39.882 86.263-6.576 182.71 1.582 278.543l80.86-46.684c7.385-51.639 37.556-99.491 86.236-127.596" clip-rule="evenodd"/></svg>