<svg xmlns="http://www.w3.org/2000/svg" viewBox="0 0 256 256"><path d="M206.25 43h-156a9.72 9.72 0 0 0-6.894 2.875 9.85 9.85 0 0 0-2.856 6.94V78.24c0 5.134 2.077 10.179 5.684 13.81L99 145.223v74.464a9.9 9.9 0 0 0 1.237 4.776 9.8 9.8 0 0 0 3.389 3.569 9.7 9.7 0 0 0 9.482.44l39-19.632a9.84 9.84 0 0 0 5.392-8.785v-54.832l52.816-53.172C213.923 88.419 216 83.374 216 78.24V52.816c0-2.604-1.027-5.1-2.856-6.941A9.72 9.72 0 0 0 206.25 43m-65.393 91.219a9.8 9.8 0 0 0-2.117 3.182 9.8 9.8 0 0 0-.74 3.758v52.829l-19.5 9.816v-62.645a9.8 9.8 0 0 0-.74-3.758 9.8 9.8 0 0 0-2.117-3.182L60 78.239V62.632h136.51l.019 15.538z"/></svg>