<?xml version="1.0" standalone="no"?>
<!DOCTYPE svg PUBLIC "-//W3C//DTD SVG 20010904//EN"
 "http://www.w3.org/TR/2001/REC-SVG-20010904/DTD/svg10.dtd">
<svg version="1.0" xmlns="http://www.w3.org/2000/svg"
 width="512.000000pt" height="512.000000pt" viewBox="0 0 512.000000 512.000000"
 preserveAspectRatio="xMidYMid meet">
<metadata>
Created by potrace 1.14, written by Peter Selinger 2001-2017
</metadata>
<g transform="translate(0.000000,512.000000) scale(0.100000,-0.100000)"
fill="#000000" stroke="none">
<path d="M2369 5116 c-2 -2 -33 -6 -69 -10 -862 -82 -1640 -621 -2030 -1405
-84 -169 -183 -442 -204 -564 -3 -15 -7 -35 -10 -45 -3 -9 -8 -35 -11 -57 -4
-22 -9 -49 -10 -60 -8 -42 -16 -103 -24 -170 -9 -79 -9 -470 0 -479 5 -5 111
52 297 161 17 10 96 56 177 102 144 83 145 83 146 120 0 20 2 43 3 51 2 8 6
39 10 69 23 194 107 452 207 639 217 406 576 725 1004 894 85 34 243 81 310
92 17 3 43 8 58 12 147 32 462 37 622 9 434 -75 778 -247 1073 -538 46 -45 96
-97 110 -116 15 -18 39 -47 53 -63 l25 -30 125 72 c68 40 188 109 266 153 79
45 143 86 143 91 0 8 -69 105 -95 132 -5 6 -30 35 -55 65 -150 179 -398 385
-625 521 -240 143 -579 271 -830 313 -16 3 -39 7 -50 9 -11 2 -45 7 -75 11
-30 4 -64 9 -75 12 -23 5 -461 14 -466 9z"/>
<path d="M4700 3796 c-159 -93 -377 -219 -415 -240 -22 -12 -114 -65 -205
-118 -91 -53 -280 -162 -420 -243 -140 -81 -347 -200 -460 -266 -113 -65 -213
-121 -221 -124 -10 -4 -27 12 -53 49 -213 309 -622 432 -976 294 -62 -24 -71
-29 -248 -132 -70 -40 -203 -117 -297 -171 -642 -370 -815 -472 -855 -504
-199 -159 -309 -381 -313 -631 -2 -150 16 -241 75 -368 l29 -63 57 32 c31 18
62 35 67 39 6 4 30 19 55 33 35 19 500 287 655 377 17 10 75 44 130 75 55 32
127 74 160 93 33 19 76 43 95 54 82 47 441 254 509 294 40 24 77 44 81 44 3 0
23 -24 44 -54 53 -77 134 -157 213 -209 73 -49 170 -96 211 -103 14 -3 29 -7
33 -10 4 -2 39 -10 78 -17 73 -14 203 -15 281 -2 62 10 178 50 235 81 65 34
771 441 817 470 21 13 40 24 43 24 2 0 29 16 59 35 30 19 57 35 60 35 2 0 40
21 83 46 43 26 98 58 123 72 228 126 370 303 431 537 36 139 31 318 -12 447
-18 55 -67 168 -72 168 -1 0 -36 -20 -77 -44z"/>
<path d="M4925 2699 c-93 -54 -230 -133 -302 -175 -131 -75 -133 -76 -134
-112 -1 -21 -3 -46 -4 -57 -2 -11 -6 -42 -9 -69 -4 -27 -9 -59 -11 -70 -3 -12
-7 -32 -9 -46 -2 -14 -12 -52 -21 -85 -9 -33 -18 -67 -20 -75 -8 -32 -24 -78
-47 -140 -216 -565 -685 -997 -1268 -1168 -112 -33 -121 -35 -275 -58 -142
-22 -427 -22 -542 1 -11 2 -38 6 -59 9 -303 49 -642 205 -897 414 -73 61 -200
188 -273 276 l-40 48 -267 -153 c-146 -85 -266 -159 -267 -164 -1 -33 252
-316 390 -438 368 -325 869 -553 1345 -612 28 -4 77 -10 110 -15 64 -8 473 -6
515 4 14 3 45 8 70 10 166 18 499 110 666 186 570 257 995 658 1267 1195 107
211 197 476 233 685 4 25 8 47 9 50 1 3 5 34 9 70 5 36 10 74 13 85 7 29 12
434 6 473 -3 17 -8 32 -12 31 -3 0 -82 -45 -176 -100z"/>
</g>
</svg>
