<svg xmlns="http://www.w3.org/2000/svg" viewBox="0 0 256 256"><path d="M50.146 199.489q-4.737 0-7.936-3.217-3.2-3.216-3.21-7.953 0-4.747 3.21-7.953t7.936-3.217h11.147v-64.787q0-23.178 13.933-41.185 13.933-18.006 36.225-23.603v-7.819q0-6.981 4.882-11.862T128.171 23q6.966 0 11.848 4.893t4.871 11.862v7.82q22.293 5.584 36.226 23.602t13.933 41.185v64.787h11.146q4.738 0 7.948 3.217t3.199 7.953q0 4.748-3.21 7.964-3.211 3.218-7.937 3.206zM128.171 233q-9.196 0-15.739-6.557-6.542-6.556-6.554-15.783h44.586q0 9.215-6.543 15.783T128.171 233m-44.586-55.851h89.171v-64.787q0-18.431-13.097-31.556T128.171 67.68 96.682 80.806Q83.586 93.93 83.585 112.362z"/></svg>