<svg xmlns="http://www.w3.org/2000/svg" viewBox="0 0 256 256"><path d="M202.006 60.374a179 179 0 0 0-43.761-13.348.67.67 0 0 0-.707.323c-1.882 3.305-3.978 7.614-5.447 11.018a166.3 166.3 0 0 0-49.153 0 111 111 0 0 0-5.527-11.018.69.69 0 0 0-.708-.34 179 179 0 0 0-43.76 13.356.63.63 0 0 0-.286.242C24.779 101.59 17.136 141.56 20.89 181.03a.72.72 0 0 0 .278.493 179.4 179.4 0 0 0 53.686 26.695.7.7 0 0 0 .752-.233A124 124 0 0 0 86.59 190.4a.66.66 0 0 0-.128-.783.65.65 0 0 0-.24-.148 118.4 118.4 0 0 1-16.77-7.865.675.675 0 0 1-.072-1.12 96 96 0 0 0 3.334-2.571.68.68 0 0 1 .698-.09c35.179 15.802 73.277 15.802 108.044 0a.67.67 0 0 1 .707.081 80 80 0 0 0 3.333 2.58.673.673 0 0 1-.054 1.12 110.7 110.7 0 0 1-16.778 7.856.668.668 0 0 0-.368.94c3.225 6.155 6.916 12.013 10.974 17.576a.69.69 0 0 0 .752.251 178.9 178.9 0 0 0 53.767-26.704.7.7 0 0 0 .286-.484c4.479-45.632-7.506-85.28-31.792-120.414a.54.54 0 0 0-.277-.251M91.848 156.996c-10.588 0-19.323-9.576-19.323-21.32 0-11.753 8.564-21.321 19.323-21.321 10.839 0 19.493 9.648 19.323 21.321 0 11.753-8.564 21.32-19.323 21.32m71.441 0c-10.598 0-19.323-9.576-19.323-21.32 0-11.753 8.555-21.321 19.323-21.321 10.839 0 19.492 9.648 19.322 21.321 0 11.753-8.474 21.32-19.322 21.32"/></svg>