<svg xmlns="http://www.w3.org/2000/svg" viewBox="0 0 256 256"><path fill-rule="evenodd" d="M208.972 44.358H100.979l19.856 19.541h78.412l.02 15.467-31.05 31.165 13.9 13.68 30.915-31.029c3.601-3.615 5.675-8.637 5.675-13.747V54.128a9.8 9.8 0 0 0-2.851-6.909 9.72 9.72 0 0 0-6.884-2.861m-155.754 0a9.72 9.72 0 0 0-6.883 2.861 9.8 9.8 0 0 0-2.851 6.91v25.306c0 5.11 2.073 10.132 5.675 13.747l52.732 52.928v74.121a9.8 9.8 0 0 0 1.236 4.755 9.76 9.76 0 0 0 3.383 3.551 9.72 9.72 0 0 0 9.467.439l38.939-19.542a9.79 9.79 0 0 0 5.383-8.745V146.11l1.575-1.581 41.768 41.648c3.742 3.731 9.809 3.731 13.551 0a9.534 9.534 0 0 0 0-13.513l-41.811-41.692-13.81-13.771-53.455-53.302-19.598-19.541-35.66-35.56c-3.743-3.73-9.81-3.73-13.552 0a9.536 9.536 0 0 0 0 13.514l22.109 22.046zm88.351 93.967a9.7 9.7 0 0 1 2.113-3.168l4.382-4.399-67.05-66.859H62.952v15.536l55.555 55.722a9.74 9.74 0 0 1 2.853 6.908v62.357l19.469-9.771v-52.586a9.8 9.8 0 0 1 .739-3.74" clip-rule="evenodd"/></svg>