<svg xmlns="http://www.w3.org/2000/svg" viewBox="0 0 256 256"><path d="M41.878 196.916V49.807a9.8 9.8 0 0 1 2.869-6.934A9.8 9.8 0 0 1 51.673 40h88.164a9.8 9.8 0 0 1 6.926 2.873 9.8 9.8 0 0 1 2.87 6.934v78.458h19.592a19.58 19.58 0 0 1 13.853 5.745 19.63 19.63 0 0 1 5.738 13.87v39.229a9.82 9.82 0 0 0 2.869 6.935 9.793 9.793 0 0 0 16.723-6.935v-68.651h-19.592a9.8 9.8 0 0 1-6.926-2.872 9.8 9.8 0 0 1-2.87-6.935V73.482l-16.231-16.25 13.851-13.868 48.49 48.546a9.8 9.8 0 0 1 2.87 6.934v88.265a29.44 29.44 0 0 1-8.607 20.804 29.37 29.37 0 0 1-20.781 8.618c-7.794 0-15.269-3.1-20.78-8.618a29.44 29.44 0 0 1-8.607-20.804V147.88h-19.592v49.036h4.07c5.416 0 9.807 4.391 9.807 9.807s-4.391 9.808-9.807 9.808H37.807c-5.416 0-9.807-4.391-9.807-9.808s4.39-9.807 9.807-9.807zM61.469 59.615v58.843h68.572V59.615z"/></svg>