<svg xmlns="http://www.w3.org/2000/svg" viewBox="0 0 256 256"><path d="M103.357 166.971c0 9.473-4.882 24.974-16.438 24.974S70.48 176.444 70.48 166.971c0-9.472 4.882-24.973 16.439-24.973 11.556 0 16.438 15.501 16.438 24.973M235 144.083c0 14.458-1.433 29.778-7.839 43.057-16.976 34.718-63.649 33.902-97.063 33.902-33.952 0-83.402 1.224-101.05-33.902C22.508 173.997 20 158.541 20 144.083c0-18.991 6.226-36.939 18.589-51.487-2.33-7.162-3.45-14.685-3.45-22.118 0-9.745 2.195-14.64 6.54-23.478 20.29 0 33.28 4.08 48.733 16.316 12.99-3.127 26.338-4.532 39.731-4.532 12.093 0 24.277 1.315 36.012 4.17C181.384 50.852 194.374 47 214.441 47c4.389 8.838 6.539 13.733 6.539 23.478 0 7.433-1.164 14.82-3.449 21.846C229.849 107.008 235 125.092 235 144.083m-28.801 22.888c0-19.897-11.959-37.437-32.922-37.437-8.466 0-16.573 1.541-25.083 2.72-6.674 1.042-13.348 1.45-20.201 1.45-6.809 0-13.483-.408-20.201-1.45-8.376-1.179-16.573-2.72-25.084-2.72-20.962 0-32.921 17.54-32.921 37.437 0 39.795 36.012 45.913 67.366 45.913h21.59c31.488 0 67.456-6.073 67.456-45.913m-36.998-24.973c-11.556 0-16.439 15.501-16.439 24.973 0 9.473 4.883 24.974 16.439 24.974s16.439-15.501 16.439-24.974c0-9.472-4.883-24.973-16.439-24.973"/></svg>