<svg xmlns="http://www.w3.org/2000/svg" viewBox="0 0 256 256"><path fill-rule="evenodd" d="M213.75 115.461c10.786 3.007 11.508 19.908 1.012 23.809a15.6 15.6 0 0 1-5.494.967h-135.5l31.523 36.671a12.52 12.52 0 0 1 3.651 8.84c0 3.316-1.313 6.496-3.651 8.84a12.45 12.45 0 0 1-8.814 3.662 12.45 12.45 0 0 1-8.815-3.662l-50.488-58.354a14.05 14.05 0 0 1 .196-18.605l50.292-55.717a12.45 12.45 0 0 1 8.814-3.662c3.307 0 6.477 1.317 8.815 3.662a12.52 12.52 0 0 1 3.651 8.84 12.52 12.52 0 0 1-3.651 8.84l-31.522 35.267h135.499c1.622 0 3.114.22 4.482.602" clip-rule="evenodd"/></svg>