<svg xmlns="http://www.w3.org/2000/svg" viewBox="0 0 256 256"><path fill-rule="evenodd" d="M42.25 141.039c-10.786-3.007-11.508-19.908-1.012-23.809a15.6 15.6 0 0 1 5.494-.967h135.5l-31.523-36.671a12.52 12.52 0 0 1-3.651-8.84c0-3.316 1.313-6.496 3.651-8.84a12.45 12.45 0 0 1 8.814-3.662 12.45 12.45 0 0 1 8.815 3.662l50.488 58.354a14.05 14.05 0 0 1-.196 18.605l-50.292 55.717a12.45 12.45 0 0 1-8.815 3.662 12.45 12.45 0 0 1-8.814-3.662 12.52 12.52 0 0 1-3.651-8.84 12.52 12.52 0 0 1 3.651-8.84l31.523-35.267h-135.5a16.6 16.6 0 0 1-4.482-.602" clip-rule="evenodd"/></svg>