<svg xmlns="http://www.w3.org/2000/svg" viewBox="0 0 256 256"><path d="M196.125 80.317H53.156V79.15a5 5 0 0 1 4.32-4.954l115.832-15.913a5 5 0 0 1 5.681 4.963l-.02 10.544h17.156V58.204c0-12.163-10.191-20.699-22.635-18.985L58.646 55.075C46.191 56.799 36 68.155 36 80.317v104.569c0 5.865 2.41 11.49 6.7 15.637S52.808 207 58.875 207h137.25c6.067 0 11.885-2.33 16.175-6.477s6.7-9.772 6.7-15.637v-82.455c0-5.865-2.41-11.49-6.7-15.637s-10.108-6.477-16.175-6.477m-20.156 72.465a17.7 17.7 0 0 1-6.567-1.265 17.2 17.2 0 0 1-5.567-3.598 16.6 16.6 0 0 1-3.718-5.384 16.1 16.1 0 0 1-1.305-6.349 16.1 16.1 0 0 1 1.309-6.349 16.6 16.6 0 0 1 3.722-5.381 17.2 17.2 0 0 1 5.569-3.595 17.7 17.7 0 0 1 6.568-1.261c4.552.002 8.916 1.751 12.134 4.863s5.024 7.333 5.022 11.734-1.811 8.619-5.03 11.729c-3.22 3.111-7.586 4.857-12.137 4.856"/></svg>