<svg xmlns="http://www.w3.org/2000/svg" fill="none" viewBox="0 0 512 512"><path fill="url(#paint0_linear_4193_3713)" d="M256 512c141.385 0 256-114.615 256-256S397.385 0 256 0 0 114.615 0 256s114.615 256 256 256Z"/><path fill="#fff" d="M395.646 220.743 255.815 77.956 115.971 220.743l69.915 71.386 69.929-71.386 69.916 71.386 69.915-71.386Z"/><path fill="#1F2333" d="M250.181 421.113c-6.951 0-12.932-1.252-17.943-3.758-4.93-2.587-8.728-6.223-11.396-10.911-2.586-4.769-3.879-10.385-3.879-16.851v-55.04h16.003v55.525c0 5.172 1.454 9.254 4.364 12.245 2.99 2.991 7.274 4.485 12.851 4.485 5.577 0 9.82-1.494 12.729-4.485 2.991-2.991 4.485-7.073 4.485-12.245v-55.525H283.4v55.04c0 6.466-1.336 12.082-4.003 16.851-2.585 4.688-6.384 8.324-11.396 10.911-4.929 2.506-10.87 3.758-17.82 3.758Zm69.803-1.697v-84.863h36.856c5.336 0 9.982.93 13.942 2.788 3.96 1.86 7.033 4.485 9.215 7.881 2.181 3.394 3.272 7.394 3.272 12.003v1.454c0 5.091-1.212 9.212-3.636 12.366-2.424 3.152-5.415 5.455-8.972 6.909v2.182c3.233.163 5.739 1.294 7.517 3.394 1.776 2.021 2.667 4.73 2.667 8.124v27.762h-16.002v-25.459c0-1.94-.527-3.515-1.576-4.728-.97-1.212-2.627-1.818-4.972-1.818h-22.306v32.005h-16.005Zm16.005-46.553h19.154c3.8 0 6.748-1.011 8.851-3.032 2.182-2.101 3.273-4.849 3.273-8.243v-1.212c0-3.394-1.051-6.103-3.152-8.124-2.102-2.1-5.093-3.151-8.972-3.151h-19.154v23.762Z"/><path fill="#1F2333" fill-rule="evenodd" d="M127.237 421.413v-88.857h58.551v18.542h-38.553v16.25h35.158v18.545h-35.158v16.978h39.28v18.542h-59.278Zm104.09-2.279-.018-.01c-5.257-2.757-9.341-6.662-12.204-11.692l-.01-.018-.01-.016c-2.772-5.112-4.121-11.07-4.121-17.805v-57.037h19.999v57.522c0 4.777 1.331 8.311 3.789 10.84 2.507 2.504 6.213 3.892 11.428 3.892 5.226 0 8.878-1.394 11.298-3.881l.019-.019c2.536-2.534 3.9-6.063 3.9-10.832v-57.522h19.998v57.037c0 6.74-1.392 12.706-4.251 17.821-2.788 5.051-6.885 8.959-12.226 11.717l-.011.006c-5.275 2.68-11.54 3.973-18.727 3.973-7.188 0-13.489-1.293-18.836-3.968l-.017-.008Zm48.07-12.69c2.667-4.769 4.003-10.385 4.003-16.851v-55.04h-16.005v55.525c0 5.172-1.494 9.254-4.485 12.245-2.909 2.991-7.152 4.485-12.729 4.485-5.577 0-9.861-1.494-12.851-4.485-2.91-2.991-4.364-7.073-4.364-12.245v-55.525h-16.003v55.04c0 6.466 1.293 12.082 3.879 16.851 2.668 4.688 6.466 8.324 11.396 10.911 5.011 2.506 10.992 3.758 17.943 3.758 6.95 0 12.891-1.252 17.82-3.758 5.012-2.587 8.811-6.223 11.396-10.911Zm38.59 14.969v-88.857h38.853c5.565 0 10.514.969 14.79 2.977 4.272 2.005 7.645 4.87 10.045 8.609 2.419 3.76 3.592 8.147 3.592 13.083v1.454c0 5.407-1.292 9.995-4.053 13.584-2.053 2.669-4.493 4.793-7.317 6.353 2.295.614 4.255 1.799 5.791 3.61 2.169 2.471 3.154 5.686 3.154 9.428v29.759h-19.999v-27.456c0-1.563-.414-2.643-1.089-3.421l-.023-.029-.027-.029c-.429-.537-1.357-1.069-3.409-1.069h-20.308v32.004h-20Zm18.002-34.002h22.306c2.345 0 4.002.606 4.972 1.818 1.049 1.213 1.576 2.788 1.576 4.728v25.459h16.002v-27.762c0-3.394-.891-6.103-2.667-8.124-1.778-2.1-4.284-3.231-7.517-3.394v-2.182c3.557-1.454 6.548-3.757 8.972-6.909 2.424-3.154 3.636-7.275 3.636-12.366v-1.454c0-4.609-1.091-8.609-3.272-12.003-2.182-3.396-5.255-6.021-9.215-7.881-3.96-1.858-8.606-2.788-13.942-2.788h-36.856v84.863h16.005v-32.005Zm26.711-33.746c-1.62-1.621-4.039-2.567-7.557-2.567h-17.156v19.768h17.156c3.444 0 5.837-.909 7.465-2.474 1.742-1.676 2.659-3.882 2.659-6.804v-1.212c0-2.949-.893-5.101-2.538-6.682l-.029-.029Zm1.294 16.166c-2.103 2.021-5.051 3.032-8.851 3.032h-19.154v-23.762h19.154c3.879 0 6.87 1.051 8.972 3.151 2.101 2.021 3.152 4.73 3.152 8.124v1.212c0 3.394-1.091 6.142-3.273 8.243Z" clip-rule="evenodd"/><defs><linearGradient id="paint0_linear_4193_3713" x1="83.019" x2="368.972" y1="411.14" y2="156.813" gradientUnits="userSpaceOnUse"><stop offset=".073" stop-color="#AAC4FD"/><stop offset="1" stop-color="#76A0FC"/></linearGradient></defs></svg>