<svg xmlns="http://www.w3.org/2000/svg" fill="none" viewBox="0 0 512 512"><path fill="#28A0F0" d="m309.487 294.935-50.415 85.003 76.337 119.435a256.003 256.003 0 0 0 78.078-41.546l-104-162.892Zm59.313-99.863-43.891 73.709 107.596 172.643c19.054-19.054 39.309-45.208 51.365-68.755L368.8 195.072Z"/><path fill="#2D374B" fill-rule="evenodd" d="M512 256c0 40.949-9.811 80.886-28.13 116.669L368.8 195.072l-43.891 73.709 107.596 172.643a256.007 256.007 0 0 1-19.018 16.403l-104-162.892-50.415 85.003 76.337 119.435A255.94 255.94 0 0 1 256 512a255.942 255.942 0 0 1-93.205-17.57L355.84 170.611l-87.238.594L94.809 454.882a255.978 255.978 0 0 1-19.828-17.863l168.696-266.408-33.233-.593c-27.893-.594-58.752 6.527-72.402 29.075L27.256 370.944A256 256 0 1 1 512 256Z" clip-rule="evenodd"/><path fill="#fff" d="m355.84 170.611-87.238.594L94.809 454.882a255.986 255.986 0 0 0 67.986 39.548L355.84 170.611ZM27.256 370.944a255.908 255.908 0 0 0 47.725 66.075l168.696-266.408-33.233-.593c-27.893-.594-58.752 6.527-72.402 29.075L27.256 370.944Z"/></svg>