<svg xmlns="http://www.w3.org/2000/svg" fill="none" viewBox="0 0 512 512"><path fill="#1543D8" d="M425.637 135.672c-61.35-86.707-179.813-113.936-273.62-59.777-72.785 42.023-110.559 121.4-103.085 199.936l50.064-28.905c2.997-51.039 30.791-99.633 78.38-127.108 69.526-40.141 156.964-21.154 204.086 41.359l44.175-25.505Zm37.431 100.494c7.474 78.535-30.3 157.913-103.086 199.935-93.807 54.16-212.269 26.931-273.62-59.777l44.175-25.504c47.123 62.513 134.561 81.5 204.087 41.359 47.588-27.475 75.383-76.069 78.379-127.109l50.065-28.904Z"/><path fill="#1543D8" fill-rule="evenodd" d="M75.897 359.981c-18.494-32.032-7.519-72.992 24.513-91.485l97.055-56.035c32.032-18.494 72.992-7.519 91.485 24.513l147.153-84.958c18.494 32.032 7.519 72.991-24.513 91.485l-97.055 56.035c-32.033 18.493-72.992 7.518-91.486-24.514L75.897 359.981Z" clip-rule="evenodd"/><path fill="#fff" fill-rule="evenodd" d="M512 256c0 141.385-114.615 256-256 256S0 397.385 0 256 114.615 0 256 0s256 114.615 256 256Zm-411.59 12.496c-32.032 18.493-43.007 59.453-24.513 91.485l147.152-84.959c18.494 32.032 59.453 43.007 91.486 24.514l97.055-56.035c32.032-18.494 43.007-59.453 24.513-91.485L288.95 236.974c-18.493-32.032-59.453-43.007-91.485-24.513l-97.055 56.035Zm259.572 167.605c72.786-42.022 110.56-121.4 103.086-199.935l-50.065 28.904c-2.996 51.04-30.791 99.634-78.379 127.109-69.526 40.141-156.964 21.154-204.087-41.359l-44.175 25.504c61.351 86.708 179.813 113.937 273.62 59.777ZM152.017 75.895c93.807-54.16 212.27-26.93 273.62 59.777l-44.175 25.505c-47.122-62.513-134.56-81.5-204.086-41.359-47.589 27.475-75.383 76.069-78.38 127.108l-50.064 28.905c-7.474-78.536 30.3-157.913 103.085-199.936Z" clip-rule="evenodd"/></svg>