<svg xmlns="http://www.w3.org/2000/svg" fill="none" viewBox="0 0 512 512"><path fill="#D36CF5" d="M256 512c141.385 0 256-114.615 256-256S397.385 0 256 0 0 114.615 0 256s114.615 256 256 256Z"/><path fill="#fff" d="M393.474 243.541a377.943 377.943 0 0 0-10.893-2.147 135.334 135.334 0 0 0-5.57-25.071c49.02 7.862 80.717 20.363 80.717 34.441 0 .157-.004.314-.013.471-1.168 23.58-91.261 42.62-202.228 42.62-111.693 0-202.239-19.291-202.239-43.084 0-.147.003-.293.01-.439.65-14.066 32.937-26.518 82.429-34.282a135.163 135.163 0 0 0-5.622 25.043 382.265 382.265 0 0 0-12.563 2.448 281.16 281.16 0 0 0-14.387 3.44v.006c-4.641 1.249-8.775 2.517-12.402 3.781 7.027 2.449 15.957 4.911 26.789 7.219 3.669.782 7.5 1.535 11.482 2.254v.006c33.469 6.052 77.637 9.837 126.503 9.837 49.668 0 94.482-3.91 128.14-10.136v-.006c3.398-.628 6.684-1.28 9.847-1.955 10.836-2.309 19.77-4.772 26.798-7.223-7.028-2.45-15.962-4.914-26.798-7.223Zm14.378-67.088c.005-.113.008-.225.008-.337 0-12.703-33.855-23.708-83.23-29.071 11.75 7.762 22.191 17.467 30.899 28.678.64.129 1.274.26 1.902.393-.456.096-.916.191-1.378.286l.004.006c-25.156 5.154-60.261 8.496-99.646 8.496-39.482 0-74.661-3.358-99.831-8.534l.005-.007a155.83 155.83 0 0 1-1.193-.247 249.25 249.25 0 0 1 1.647-.341c8.706-11.22 19.145-20.932 30.897-28.702-49.236 5.374-82.974 16.362-82.974 29.043v.006c0 15.868 73.322 28.481 122.743 31.968 11.057.78 28.374.836 28.374.836 6.112.264 17.243-.048 28.256-.804 49.69-3.415 122.787-15.889 123.517-31.669Zm-302.89 164.338c0-8.3 14.453-15.874 38.242-21.624a132.677 132.677 0 0 0 13.369 21.378c-.396.081-.79.163-1.181.246.54.113 1.083.226 1.632.338l.106.138h.544c25.089 5.05 59.824 8.311 98.737 8.311s73.648-3.261 98.737-8.311h.329l.067-.086a282.08 282.08 0 0 0 1.887-.39c-.452-.096-.908-.19-1.367-.284a132.858 132.858 0 0 0 13.363-21.386c23.903 5.755 38.433 13.348 38.433 21.67 0 .159-.005.317-.016.476-1.169 17.761-68.52 32.082-151.433 32.082s-150.264-14.321-151.433-32.082a6.88 6.88 0 0 1-.016-.476Z"/></svg>