<svg xmlns="http://www.w3.org/2000/svg" fill="none" viewBox="0 0 512 512"><path fill="#F7BB38" d="M255.999 512C397.384 512 512 397.387 512 256.001S397.384 0 255.999 0C114.615 0 0 114.615 0 256.001 0 397.387 114.615 512 255.999 512Z"/><path fill="url(#paint0_linear_4193_3611)" d="M389.895 384.29c-113.516 22.933-224.416-50.639-247.486-163.494-11.54-54.683.311-109.3 28.507-153.405C85.425 106.682 34.865 200.723 54.473 297.29c23.07 112.853 133.97 186.425 247.484 163.492 58.513-11.46 105.395-46.211 135.935-92.634-15.223 6.934-30.446 12.705-47.997 16.142Z"/><path fill="#fff" fill-rule="evenodd" d="m453.069 348.292 13.435 9.543c3.027 2.151 2.712 6.737-.581 8.453l-43.49 22.66c-3.454 1.798-7.542-.896-7.249-4.778l3.83-50.83c.29-3.854 4.678-5.915 7.827-3.675l12.046 8.555c30.753-69.887 19.387-154.352-35.652-214.063-73.55-79.794-197.476-85.423-277.942-13.068-1.02.917-2.598.862-3.527-.147l-8.201-8.897a2.47 2.47 0 0 1 .16-3.506c87.398-78.743 222.119-72.673 302.06 14.051 60.642 65.789 72.45 159.209 37.284 235.702ZM65.114 164.22l-13.435-9.542c-3.026-2.15-2.71-6.738.582-8.454l43.49-22.659c3.453-1.799 7.54.895 7.247 4.778l-3.828 50.83c-.29 3.854-4.678 5.915-7.829 3.676l-12.046-8.556c-30.752 69.888-19.387 154.354 35.652 214.062 73.552 79.795 197.477 85.425 277.943 13.069 1.02-.916 2.597-.861 3.528.147l8.2 8.897a2.471 2.471 0 0 1-.159 3.507c-87.399 78.742-222.12 72.673-302.06-14.053-60.643-65.787-72.451-159.209-37.285-235.702Z" clip-rule="evenodd"/><path fill="#FEFEFD" d="M348.603 275.7c1.561 0 2.298 0 2.41-2.034.599-7.404.599-14.851 0-22.264 0-1.44-.719-2.034-2.289-2.034H203.022c-1.803 0-2.289.594-2.289 2.275v21.307c0 2.75 0 2.75 2.887 2.75h144.983Zm-5.766-51.234a2.318 2.318 0 0 0 0-1.672 47.22 47.22 0 0 0-4.352-7.542 61.145 61.145 0 0 0-8.913-11.137 29.48 29.48 0 0 0-5.54-5.387 86.749 86.749 0 0 0-36.129-18.195 90.262 90.262 0 0 0-20.47-2.155h-64.662c-1.804 0-2.046.715-2.046 2.275v42.494c0 1.793 0 2.276 2.289 2.276H341.97s1.205-.242 1.448-.957h-.589.008Zm0 76.136a28.272 28.272 0 0 0-6.155 0H203.144c-1.804 0-2.411 0-2.411 2.396v41.546c0 1.913 0 2.396 2.411 2.396h61.653c2.948.224 5.896.017 8.783-.595a92.234 92.234 0 0 0 26.141-5.749 48.04 48.04 0 0 0 8.782-4.068h.841c14.454-7.473 26.193-19.213 33.597-33.625 0 0 .841-1.81-.104-2.284v-.017ZM176.535 368.48v-66.198c0-1.56 0-1.792-1.925-1.792h-26.132c-1.448 0-2.046 0-2.046-1.914v-22.747h27.935c1.561 0 2.168 0 2.168-2.034V251.29c0-1.44 0-1.793-1.925-1.793h-26.132c-1.448 0-2.046 0-2.046-1.914v-21.066c0-1.318 0-1.672 1.925-1.672h25.889c1.803 0 2.289 0 2.289-2.275v-64.525c0-1.914 0-2.397 2.41-2.397h90.309a138.4 138.4 0 0 1 19.507 2.155 118.128 118.128 0 0 1 37.69 13.886 106.166 106.166 0 0 1 21.19 16.282 115.506 115.506 0 0 1 12.883 15.92 95.815 95.815 0 0 1 9.408 18.317 3.134 3.134 0 0 0 3.598 2.517h21.554c2.766 0 2.766 0 2.887 2.637v19.635c0 1.914-.72 2.397-2.653 2.397h-16.621c-1.682 0-2.167 0-2.046 2.154.659 7.292.659 14.61 0 21.902 0 2.035 0 2.276 2.298 2.276h19.013c.841 1.077 0 2.155 0 3.241a23.915 23.915 0 0 1 0 4.18v14.49c0 2.034-.598 2.637-2.41 2.637h-22.759a3.012 3.012 0 0 0-3.494 2.276 95.712 95.712 0 0 1-25.291 36.632 144.962 144.962 0 0 1-12.884 10.292c-4.821 2.758-9.511 5.629-14.453 7.904a130.77 130.77 0 0 1-28.421 8.973 148.952 148.952 0 0 1-28.178 2.275H176.5v-.12l.035-.026Z"/><defs><linearGradient id="paint0_linear_4193_3611" x1="-14.726" x2="288.813" y1="569.992" y2="208.42" gradientUnits="userSpaceOnUse"><stop offset=".073" stop-color="#FFD923"/><stop offset=".477" stop-color="#FFEDC7"/><stop offset="1" stop-color="#F7BB38"/></linearGradient></defs></svg>