<svg xmlns="http://www.w3.org/2000/svg" fill="none" viewBox="0 0 512 512"><path fill="#F7BB38" d="M256 0c141.398 0 256 114.625 256 256 0 141.398-114.602 256-256 256C114.625 512 0 397.386 0 256 0 114.625 114.625 0 256 0Z"/><path fill="#FEFEFD" d="M362.711 274.075c2.073 0 3.053 0 3.202-2.719a185.92 185.92 0 0 0 0-29.756c0-1.924-.956-2.719-3.041-2.719H169.277c-2.397 0-3.042.795-3.042 3.041V270.4c0 3.675 0 3.675 3.836 3.675h192.64Zm-7.661-68.476a3.117 3.117 0 0 0 0-2.234 63.217 63.217 0 0 0-5.783-10.08 81.598 81.598 0 0 0-11.843-14.884 39.251 39.251 0 0 0-7.361-7.201 115.02 115.02 0 0 0-48.004-24.319 119.404 119.404 0 0 0-27.199-2.88h-85.918c-2.396 0-2.718.957-2.718 3.042v56.794c0 2.396 0 3.041 3.041 3.041h184.633s1.601-.322 1.924-1.279h-.784.012Zm0 101.758c-2.719-.3-5.461-.3-8.179 0H169.438c-2.396 0-3.203 0-3.203 3.202v55.527c0 2.558 0 3.203 3.203 3.203h81.919c3.917.299 7.834.023 11.67-.795a121.96 121.96 0 0 0 34.733-7.684 63.567 63.567 0 0 0 11.67-5.437h1.118a103.947 103.947 0 0 0 44.64-44.94s1.118-2.42-.138-3.053v-.023Zm-220.967 90.721v-88.475c0-2.085 0-2.396-2.558-2.396H96.803c-1.923 0-2.718 0-2.718-2.558v-30.401h37.118c2.073 0 2.88 0 2.88-2.719V241.45c0-1.924 0-2.396-2.558-2.396H96.803c-1.923 0-2.718 0-2.718-2.558v-28.155c0-1.762 0-2.235 2.557-2.235h34.399c2.396 0 3.042 0 3.042-3.041v-86.24c0-2.557 0-3.202 3.202-3.202h119.994a182.769 182.769 0 0 1 25.92 2.88c17.637 3.26 34.583 9.562 50.078 18.559a141.141 141.141 0 0 1 28.155 21.761 154.211 154.211 0 0 1 17.119 21.278 128.343 128.343 0 0 1 12.499 24.48c.404 2.235 2.546 3.744 4.781 3.364h28.639c3.675 0 3.675 0 3.836 3.525v26.243c0 2.558-.956 3.203-3.525 3.203h-22.084c-2.235 0-2.88 0-2.719 2.88.876 9.746.876 19.526 0 29.272 0 2.719 0 3.042 3.053 3.042h25.264c1.117 1.44 0 2.88 0 4.331a32.374 32.374 0 0 1 0 5.587v19.366c0 2.718-.795 3.525-3.203 3.525h-30.24c-2.108-.403-4.159.945-4.643 3.041a127.949 127.949 0 0 1-33.604 48.961 192.584 192.584 0 0 1-17.119 13.755c-6.405 3.686-12.637 7.522-19.204 10.564a172.999 172.999 0 0 1-37.763 11.992c-12.349 2.212-24.872 3.214-37.44 3.041H134.037v-.161l.046-.034Z"/></svg>