<svg xmlns="http://www.w3.org/2000/svg" fill="none" viewBox="0 0 512 512"><path fill="#000" d="M270.8 375.874s-40.431 14.568-84.129 28.047c-40.839 12.662-96.926 29.954-110.403 34.037 12.933 12.662 26.954 23.827 42.065 33.493 7.895-3.539 14.021-6.807 22.325-10.619 26.138-12.254 97.471-49.967 130.142-84.958ZM215.134 499.77c-3.13 1.226-12.932 3.813-19.057 5.311 35.257 8.441 72.558 9.257 109.45 1.906 53.499-28.183 85.626-76.108 85.49-76.38 0 0-103.187 50.784-175.883 69.163Zm111.205-95.44c-35.257 14.703-105.91 40.299-132.184 49.014-31.582 10.482-60.034 19.469-69.427 22.328 17.969 10.756 37.3 19.061 57.448 25.188 5.036-1.77 13.749-5.175 24.503-10.484 55.542-27.366 98.151-61.267 119.66-86.046Zm-95.974-63.31c-41.112 9.94-88.485 20.968-142.938 38.531-14.839 4.765-31.31 10.483-46.15 16.066 8.577 13.342 18.242 25.732 28.997 36.896 10.346-4.221 21.1-8.577 31.174-13.342 54.998-25.87 100.329-55.141 128.917-78.151Zm-29.517-40.436S70.569 329.312 17.206 348.373a252.324 252.324 0 0 0 20.283 41.253c14.566-5.719 28.044-11.709 42.61-18.245 37.572-17.018 94.611-50.374 120.749-70.797Zm-19.616-92.309c-36.619 1.225-90.119 8.577-148.656 24.778-10.754 2.996-21.645 6.535-32.263 10.212-.817 15.521 0 31.179 2.042 46.971 14.838-5.445 31.038-11.844 45.468-17.971 52.683-22.193 95.837-44.657 133.545-63.99h-.136Zm7.765-52.826c-47.645-5.309-126.193 12.662-154.1 20.423-8.849 2.45-15.656 3.947-23.823 6.399C5.9 199.425 2.496 216.988 1 235.096c12.932-5.582 66.704-28.999 105.91-46.154 41.929-18.245 82.087-33.629 82.087-33.629v.136ZM47.426 283.157c-15.247 4.493-29.404 8.713-44.243 13.887a249.314 249.314 0 0 0 11.572 44.521c52.955-20.15 170.437-83.46 170.437-83.46-33.081 1.498-98.152 13.479-137.766 25.052Zm197.236-247.52s-55.678-15.793-114.623-2.178c-32.944 18.516-60.58 43.431-81.816 72.84 5.582-2.859 14.839-7.352 17.97-8.442 67.113-33.356 178.469-62.22 178.469-62.22Zm-31.995 61.948c-32.536-4.765-86.853-2.723-146.887 12.798-11.571 2.995-20.42 6.127-25.457 8.033-11.299 17.7-20.42 36.625-27.09 56.502 8.985-3.949 36.347-15.657 67.25-28.319 25.728-10.483 95.836-37.169 132.184-49.014Z"/><path fill="#FFD600" d="M495.836 167.021C446.692 34.548 299.398-33.119 166.942 16.031c-12.933 4.766-25.185 10.756-36.756 17.428 58.945-13.48 114.486 1.906 114.622 2.178 0 0-111.355 28.864-178.468 62.22-3.131 1.09-12.252 5.582-17.97 8.442-2.858 3.948-5.309 8.032-7.895 12.117 5.036-1.906 13.885-5.038 25.456-8.033C125.83 94.998 180.282 92.82 212.817 97.585 176.47 109.43 106.226 135.98 80.634 146.6c-30.902 12.662-58.265 24.506-67.25 28.319-.816 2.45-1.497 4.901-2.178 7.353 8.304-2.452 14.975-3.949 23.823-6.399 27.907-7.625 106.456-25.734 154.102-20.423 0 0-40.16 15.384-82.088 33.629-39.206 17.019-92.978 40.436-105.91 46.154-.273 2.724-.681 5.446-.817 8.169 10.618-3.539 21.509-7.215 32.263-10.212 58.537-16.201 112.036-23.553 148.656-24.778-37.708 19.197-80.726 41.661-133.545 63.99-14.43 6.127-30.63 12.526-45.468 17.971.272 2.315.544 4.629.952 6.944 14.839-5.173 28.996-9.394 44.243-13.887 39.615-11.572 104.55-23.418 137.766-25.052 0 0-117.482 63.174-170.437 83.46.408 1.226.68 2.314 1.089 3.54.408 1.226.953 2.178 1.497 3.404 53.228-19.197 183.643-47.789 183.643-47.789-26.139 20.423-83.177 53.779-120.75 70.798-14.43 6.535-27.907 12.526-42.61 18.244a86.17 86.17 0 0 0 3.813 5.855c14.838-5.583 31.31-11.165 46.148-16.066 54.453-17.563 101.827-28.591 142.938-38.53-28.587 23.009-74.055 52.282-128.916 78.15-10.074 4.765-20.692 9.121-31.174 13.342 1.905 2.042 3.947 3.813 5.853 5.719 13.477-4.085 69.428-21.376 110.403-34.038 43.698-13.479 84.129-28.046 84.129-28.046-32.671 34.99-104.003 72.704-130.142 84.956-8.303 3.949-14.429 7.217-22.325 10.62 2.178 1.362 4.22 2.86 6.398 4.22 9.393-2.858 37.845-11.844 69.427-22.328 26.41-8.713 96.927-34.309 132.184-49.013-21.509 24.779-64.118 58.679-119.66 86.046-10.754 5.31-19.466 8.713-24.503 10.483 4.628 1.362 9.257 2.86 14.021 4.085 6.126-1.498 16.064-4.085 19.059-5.309 72.694-18.517 175.883-69.165 175.883-69.165 0 .272-31.991 48.333-85.491 76.38 13.205-2.586 26.273-5.991 39.205-10.756 132.593-49.15 200.251-196.463 151.107-329.073l-.136-.545Z"/></svg>