<svg xmlns="http://www.w3.org/2000/svg" fill="none" viewBox="0 0 512 512"><path fill="#8247E5" d="M512 256a255.997 255.997 0 0 1-74.981 181.019 255.997 255.997 0 0 1-362.038 0A256 256 0 1 1 512 256Z"/><path fill="#fff" d="M344.289 195.636c-6.522-3.731-14.908-3.731-22.362 0l-52.179 30.784-35.407 19.59-51.246 30.783c-6.523 3.732-14.909 3.732-22.363 0l-40.065-24.253c-6.523-3.732-11.181-11.194-11.181-19.59v-46.642c0-7.463 3.727-14.926 11.181-19.59l40.065-23.321c6.523-3.731 14.909-3.731 22.363 0l40.065 24.254c6.523 3.731 11.181 11.194 11.181 19.59v30.784l35.407-20.523v-31.717c0-7.462-3.727-14.925-11.181-19.589l-74.541-43.844c-6.522-3.731-14.908-3.731-22.362 0L85.26 147.128c-7.454 3.732-11.181 11.195-11.181 18.657v87.688c0 7.462 3.727 14.925 11.18 19.589l75.473 43.844c6.523 3.731 14.909 3.731 22.363 0l51.246-29.851 35.407-20.523 51.247-29.851c6.522-3.731 14.908-3.731 22.362 0l40.066 23.321c6.522 3.732 11.181 11.194 11.181 19.59v46.642c0 7.463-3.727 14.925-11.181 19.59l-39.134 23.321c-6.522 3.731-14.908 3.731-22.362 0l-40.066-23.321c-6.522-3.732-11.182-11.194-11.182-19.59v-29.851l-35.406 20.523v30.783c0 7.463 3.727 14.926 11.181 19.59l75.473 43.844c6.522 3.731 14.908 3.731 22.362 0l75.473-43.844c6.522-3.731 11.181-11.194 11.181-19.59V259.07c0-7.463-3.727-14.926-11.181-19.59l-75.473-43.844Z"/></svg>