<svg xmlns="http://www.w3.org/2000/svg" fill="none" viewBox="0 0 512 512"><rect width="512" height="512" fill="#E6E6E6" rx="256"/><path fill="url(#paint0_radial_4193_3455)" d="M256.512 510.976c90.769 0 164.352-73.354 164.352-163.84s-73.583-163.84-164.352-163.84S92.16 256.65 92.16 347.136s73.583 163.84 164.352 163.84Z"/><path fill="url(#paint1_linear_4193_3455)" fill-rule="evenodd" d="M256.501 512c-89.42 0-169.98-37.916-226.505-98.725-18.026-19.316-.509-46.195 21.694-50.692 95.633-19.52 220.597 101.588 342.507 87.995 22.609-2.555 45.015-9.811 68.949-24.119 5.907-3.475 12.629-7.257 17.11-10.22C423.834 475.31 344.496 512 256.501 512Z" clip-rule="evenodd" opacity=".48"/><path fill="url(#paint2_linear_4193_3455)" fill-rule="evenodd" d="M256.479 512c89.444 0 170.026-37.916 226.565-98.726 18.031-19.316.407-46.195-21.699-50.692-74.673-15.228-167.275 55.189-262.322 80.432-54.501 14.411-121.431 11.242-166.255-26.776C89.307 475.208 168.462 512 256.479 512Z" clip-rule="evenodd" opacity=".48"/><defs><radialGradient id="paint0_radial_4193_3455" cx="0" cy="0" r="1" gradientTransform="matrix(164.402 0 0 163.889 256.525 347.186)" gradientUnits="userSpaceOnUse"><stop stop-color="#587DFF"/><stop offset="1" stop-color="#00326F"/></radialGradient><linearGradient id="paint1_linear_4193_3455" x1="22.548" x2="480.319" y1="436.22" y2="436.22" gradientUnits="userSpaceOnUse"><stop stop-color="#03B0DC"/><stop offset=".116" stop-color="#0BA5DE"/><stop offset=".317" stop-color="#2289E4"/><stop offset=".579" stop-color="#475BED"/><stop offset=".89" stop-color="#791BFA"/><stop offset="1" stop-color="#8C03FF"/></linearGradient><linearGradient id="paint2_linear_4193_3455" x1="32.827" x2="490.52" y1="436.219" y2="436.219" gradientUnits="userSpaceOnUse"><stop stop-color="#03B0DC"/><stop offset=".116" stop-color="#0BA5DE"/><stop offset=".317" stop-color="#2289E4"/><stop offset=".579" stop-color="#475BED"/><stop offset=".89" stop-color="#791BFA"/><stop offset="1" stop-color="#8C03FF"/></linearGradient></defs></svg>