<svg xmlns="http://www.w3.org/2000/svg" fill="none" viewBox="0 0 512 512"><path fill="#fff" d="M256 512c141.385 0 256-114.615 256-256S397.385 0 256 0 0 114.615 0 256s114.615 256 256 256Z"/><path fill="url(#paint0_linear_4193_3726)" d="M269.913 449.253c45.365-3.109 89.846-21.915 124.526-56.418 34.596-34.418 53.49-78.546 56.684-123.568H345.778c-2.821 18.251-11.297 35.805-25.425 49.863-14.213 14.138-31.979 22.588-50.44 25.346v104.777Z"/><path fill="url(#paint1_linear_4193_3726)" d="M244.201 449.253V344.644c-18.835-2.518-37.026-11.032-51.5-25.541-14.015-14.05-22.423-31.595-25.222-49.836H62.991c3.167 44.998 21.909 89.102 56.225 123.502 34.772 34.859 79.48 53.687 124.985 56.484Z"/><path fill="url(#paint2_linear_4193_3726)" d="M62.991 243.555c2.72-45.813 21.492-90.844 56.32-125.848 34.746-34.923 79.42-53.785 124.89-56.587v104.803c-18.821 2.522-36.998 11.052-51.461 25.589-14.545 14.618-23.045 33.012-25.501 52.043H62.991Z"/><path fill="url(#paint3_linear_4193_3726)" d="M269.913 61.12v104.972c18.447 2.763 36.2 11.227 50.402 25.392 14.663 14.627 23.232 33.03 25.707 52.071h105.101c-2.742-45.837-21.669-90.892-56.779-125.915-34.654-34.564-79.101-53.404-124.431-56.52Z"/><defs><linearGradient id="paint0_linear_4193_3726" x1="112.214" x2="402.535" y1="127.05" y2="387.96" gradientUnits="userSpaceOnUse"><stop stop-color="#FF661E"/><stop offset="1" stop-color="#FF9308"/></linearGradient><linearGradient id="paint1_linear_4193_3726" x1="113.088" x2="403.011" y1="127.126" y2="385.705" gradientUnits="userSpaceOnUse"><stop stop-color="#FF661E"/><stop offset="1" stop-color="#FF9308"/></linearGradient><linearGradient id="paint2_linear_4193_3726" x1="113.187" x2="403.555" y1="126.571" y2="384.877" gradientUnits="userSpaceOnUse"><stop stop-color="#FF661E"/><stop offset="1" stop-color="#FF9308"/></linearGradient><linearGradient id="paint3_linear_4193_3726" x1="112.333" x2="403.104" y1="126.509" y2="387.148" gradientUnits="userSpaceOnUse"><stop stop-color="#FF661E"/><stop offset="1" stop-color="#FF9308"/></linearGradient></defs></svg>