<svg xmlns="http://www.w3.org/2000/svg" fill="none" viewBox="0 0 512 512"><path fill="#fff" fill-rule="evenodd" d="M512 256c0 141.385-114.615 256-256 256S0 397.385 0 256 114.615 0 256 0s256 114.615 256 256Z" clip-rule="evenodd"/><path fill="#000" d="M256 108.188c-79.596 0-144.121 61.164-144.121 136.614H41C41 132.245 137.259 41 256 41c118.742 0 215 91.245 215 203.802h-70.879c0-75.45-64.525-136.614-144.121-136.614Zm133.621 220.257c-23.06 44.179-72.834 75.367-131.258 75.367-58.424 0-108.197-31.188-131.258-75.367l-63.528 29.797C98.59 425.318 172.984 471 258.363 471s159.773-45.682 194.785-112.758l-63.527-29.797Z"/><path fill="#000" d="M227.16 359V234.92h-49.2V191H333v43.92h-49.2V359h-56.64Z"/></svg>