<svg xmlns="http://www.w3.org/2000/svg" fill="none" viewBox="0 0 512 512"><path fill="#27C59F" d="M256 512c141.868 0 256-114.132 256-256S397.868 0 256 0 0 114.132 0 256s114.132 256 256 256Z"/><path fill="#fff" fill-rule="evenodd" d="M291.419 285.956c-1.978.148-12.199.758-34.999.758-18.134 0-31.009-.544-35.526-.758-70.081-3.081-122.39-15.274-122.39-29.872 0-14.597 52.309-26.773 122.39-29.904v47.633c4.583.329 17.705 1.104 35.84 1.104 21.761 0 32.658-.906 34.619-1.088v-47.616c69.932 3.114 122.126 15.307 122.126 29.871 0 14.565-52.177 26.758-122.126 29.855l.066.017Zm0-64.669v-42.624h97.595v-64.999H123.299v64.999h97.578v42.607c-79.312 3.641-138.957 19.343-138.957 38.159s59.645 34.501 138.957 38.159v136.588h70.526V297.539c79.131-3.642 138.677-19.327 138.677-38.126 0-18.8-59.497-34.485-138.677-38.143l.016.017Z" clip-rule="evenodd"/></svg>