<svg xmlns="http://www.w3.org/2000/svg" fill="none" viewBox="0 0 512 512"><path fill="#000" d="M256 512c141.385 0 256-114.615 256-256S397.385 0 256 0 0 114.615 0 256s114.615 256 256 256Z"/><path fill="#fff" d="m310.553 231.286 62.279 67.238 7.154-7.643-62.278-67.238 17.561-19.025 62.36 67.238 7.155-7.642-62.36-67.238 56.343-60.816h-42.521l-35.042 37.807-61.954-66.751-7.155 7.643 61.873 66.75-17.643 19.025-61.873-66.75-7.154 7.561 61.953 66.832-36.587 39.513-103.418-111.63h-42.603l124.801 134.558-124.801 134.639h42.603l103.5-111.63 103.418 111.63h42.603l-124.638-134.72 36.586-39.433-.162.082Z"/></svg>