<svg xmlns="http://www.w3.org/2000/svg" fill="none" viewBox="0 0 512 512"><path fill="#000" d="M256 512c141.385 0 256-114.615 256-256S397.385 0 256 0 0 114.615 0 256s114.615 256 256 256Z"/><path fill="url(#paint0_linear_4209_4832)" d="M427.078 209.146 299.314 430.783a43.557 43.557 0 0 1-75.497 0l-22.262-38.714v-.968a36.77 36.77 0 0 0 14.244 8.9 36.78 36.78 0 0 0 43.831-16.643L366.1 198.499a36.78 36.78 0 0 0-22.262-55.167h45.491a43.557 43.557 0 0 1 38.717 65.814h-.968Zm-150.994-65.814H231.56a22.256 22.256 0 0 1 14.896 23.522 22.26 22.26 0 0 1-3.281 9.385l-64.85 111.302a22.261 22.261 0 0 1-33.876 4.84v.967l22.262 38.714a29.03 29.03 0 0 0 25.165 14.55 29.031 29.031 0 0 0 25.166-14.55l84.208-145.177a29.034 29.034 0 0 0-25.166-43.553Zm-152.929 0a38.716 38.716 0 0 0-41.258 54.448 38.712 38.712 0 0 0 24.68 21.052 38.716 38.716 0 0 0 39.931-62.395 38.72 38.72 0 0 0-23.353-13.105Z"/><defs><linearGradient id="paint0_linear_4209_4832" x1="491.64" x2="92.878" y1="394.047" y2="123.026" gradientUnits="userSpaceOnUse"><stop stop-color="#5433FF"/><stop offset=".5" stop-color="#20BDFF"/><stop offset="1" stop-color="#5CFFA2"/></linearGradient></defs></svg>