<svg xmlns="http://www.w3.org/2000/svg" fill="none" viewBox="0 0 256 256"><g clip-path="url(#clip0_4193_3442)"><rect width="256" height="256" fill="#E6E6E6" rx="128"/><path fill="#fff" d="m83.994 169.993 6.204-46.716-53.81-37.44 49.165 16.692 11.612-17.856 42.398-26.367 93.456 51.604 4.844 78.737-41.636 57.988-32.91 5.054 17.019-31.222v-30.058l-12.374-23.475-12.574-8.345-19.341 19.983v21.147l-15.095 14.165-19.176 2.327-8.493 4.822-13.933-4.456-5.806-20.948 10.45-14.729z"/><path fill="#94A6C3" d="M169.919 85.438c-10.251-2.128-21.465-1.563-21.465-1.563s-3.682 17.058-26.507 21.546c.166 0 30.157 10.275 47.972-19.983m9.289 154.78c12.375-9.709 21.664-23.076 25.943-38.205.199-.565 1.925-1.562 3.086-2.327 1.924-1.164 3.881-2.128 4.246-3.691a82 82 0 0 0 1.161-13.765c0-1.729-1.758-3.492-3.483-5.221-1.36-1.164-2.72-2.527-2.72-3.491-1.925-17.656-10.053-34.148-23.024-46.151l-1.361 1.363c12.574 11.837 20.702 27.93 22.46 44.987.199 1.563 1.725 3.093 3.285 4.656 1.36 1.163 2.919 2.926 2.919 3.69 0 4.456-.398 8.911-1.161 13.367-.199.765-1.924 1.563-3.284 2.327-1.925.965-3.683 1.929-4.048 3.492-4.644 16.492-15.294 30.856-29.427 40.166 2.522-5.42 10.451-23.076 14.697-32.02l-.763-28.695-24.583-23.84-13.934 1.928-15.294 24.838s7.166 9.111-2.919 19.784c-9.853 10.474-17.616 12.801-17.616 12.801l-7.166-3.89c2.123-2.727 6.403-6.783 9.687-9.51 5.607-4.655 11.213-5.054 11.213-10.074.233-10.507-11.014-7.615-11.014-7.615l-4.08 3.891-1.726 14.364-8.493 10.673-.962-.199-13.933-3.093s8.526-4.455 9.886-9.509c1.36-4.855-2.72-20.948-2.92-21.912.2.199 4.081 3.491 5.806 8.911 3.086-8.545 7.166-16.692 8.327-17.457 1.161-.764 16.82-9.11 16.82-9.11l-5.208 13.765 3.881-2.128 9.289-22.876s9.091-4.455 15.858-4.455c12.176-.2 30.19-15.129 22.062-41.896 2.322.965 42.564 21.148 49.531 60.715 5.209 30.424-12.009 58.92-41.038 75.412"/><path fill="#1B314F" d="M133.16 89.694c4.446-5.253 2.721-13 2.721-13l-12.972 19.218c-.199 0 4.612.2 10.251-6.218M89.6 194.632l1.56-7.747s-6.403 11.238-6.967 12.801c-.597 1.762.398 4.854 2.886 4.655 2.522-.2 5.607-3.89 5.607-6.584 0-3.491-3.085-3.125-3.085-3.125"/><path fill="#1B314F" d="M204.554 71.274s9.687.398 19.74 1.562c-22.659-17.855-44.124-23.075-61.541-23.075-23.986 0-40.242 9.908-41.237 10.473l7.564-12.036s-30.19-2.926-40.84 29.094C85.52 70.509 83.033 60.6 83.033 60.6S67.34 74.4 74.705 97.275c-18.014-6.583-43.725-15.727-44.72-15.894-1.36-.199-1.759.4-1.759.4s-.398.565.763 1.562c2.156 1.696 42.797 31.788 51.72 37.606-1.923 6.983-1.923 10.275 0 13.566 2.721 4.456 2.887 6.783 2.522 10.075-.398 3.292-3.881 31.821-4.644 35.312s-8.892 15.894-8.527 19.584c.398 3.691 5.408 19.385 9.887 21.148 3.284 1.163 11.412 3.69 16.82 3.69 1.924 0 3.682-.399 4.445-1.163 3.285-2.893 4.247-3.492 6.569-3.492h.564c.962 0 2.123.2 3.483.2 3.086 0 7.166-.599 10.053-3.292 4.246-4.256 11.611-10.075 13.933-12.801 2.92-3.691 4.446-8.712 3.683-13.766-.597-4.655 1.924-8.745 4.844-12.801 3.682-4.855 10.45-13.566 10.45-13.566 13.37 10.041 21.697 25.37 21.697 42.427 0 30.258-26.309 54.697-58.821 54.697-5.042 0-9.853-.566-14.696-1.729 14.895 5.22 27.469 6.982 37.753 6.982 21.863 0 33.475-7.947 33.475-7.947s-4.048 5.254-10.65 11.239c36.195-5.054 54.01-34.913 54.01-34.913s-1.36 9.709-3.085 16.293c48.138-36.276 40.01-81.663 39.81-83.192.399.565 5.242 6.384 7.73 9.509 7.763-79.933-57.46-105.735-57.46-105.735M130.44 198.92c-.763.964-4.047 3.89-6.37 6.018-2.322 2.128-4.843 4.256-6.768 6.218-.763.765-2.322 1.164-4.644 1.164h-5.806c2.92-3.89 11.413-12.801 14.332-14.73 3.483-2.327 5.242-4.655 3.085-8.711-2.123-4.09-7.73-3.093-7.73-3.093s3.285-1.363 6.204-1.363c-3.682-.964-8.327 0-10.45 2.128-2.322 2.128-1.924 9.709-2.886 14.53-.962 5.054-4.247 7.581-9.289 12.237-2.72 2.527-4.645 3.291-6.204 3.291-3.285-.565-7.166-1.562-9.887-2.527-1.924-2.527-4.843-10.873-5.606-14.364.564-1.928 2.886-6.018 4.047-8.346 2.322-4.455 3.683-6.982 4.08-9.31.764-3.291 3.285-23.674 4.247-32.186 2.522 3.292 6.005 8.745 5.209 12.236 5.606-7.947 1.559-15.727-.398-18.819-1.725-3.093-4.048-9.311-2.124-15.894 1.925-6.584 8.891-24.838 8.891-24.838s2.323 4.09 5.607 3.292c3.285-.765 29.792-40.732 29.792-40.732s7.166 15.694-.398 27.166c-7.73 11.438-15.294 13.566-15.294 13.566s10.649 1.928 20.502-5.254c4.048 9.51 7.929 19.385 8.128 20.748-.597 1.364-8.327 19.984-9.09 21.147-.398.399-3.085 1.164-5.043 1.563-3.284.965-5.208 1.563-6.004 2.128-1.36 1.164-7.564 18.221-10.451 26.567-3.483.964-6.966 2.926-9.488 6.783 1.36-.964 5.607-1.562 8.725-1.928 2.721-.2 11.015 4.256 13.171 12.602v.399c.431 3.059-.531 5.985-2.09 8.312m-18.18 2.328c1.758-2.527 1.559-6.783 1.758-8.147s.564-3.89 2.123-4.256c1.56-.399 5.242.2 5.242 2.893 0 2.527-2.72 3.092-4.645 4.855-1.393 1.33-4.113 4.256-4.478 4.655m77.199-37.074c1.925-9.876 2.124-18.421 1.56-25.404 7.53 10.075 12.175 22.311 13.535 34.913.199 1.563 1.725 3.093 3.285 4.655 1.36 1.164 2.919 2.727 2.919 3.691 0 4.456-.398 8.911-1.161 13.4-.199.565-1.924 1.563-3.284 2.327-1.925.965-3.683 1.929-4.048 3.492-4.246 14.929-13.37 28.129-25.545 37.439 17.981-18.819 26.673-49.875 12.739-74.513m-12.175 76.242c12.573-9.709 22.261-23.275 26.507-38.603.199-.565 1.924-1.563 3.086-2.328 1.924-.964 3.881-2.128 4.246-3.69a82 82 0 0 0 1.161-13.766c0-1.729-1.758-3.491-3.483-5.22-.962-1.164-2.522-2.527-2.522-3.492-1.559-14.164-7.166-27.531-15.858-38.603-3.881-23.275-19.341-30.457-19.739-30.657.398.599 10.45 15.129 3.483 32.186-7.165 17.257-25.545 14.564-27.104 14.73-1.559 0-7.531 7.748-15.095 22.112-.962-.399-5.043-1.364-9.687-.566 3.483-9.709 8.725-23.474 9.687-24.638.398-.399 3.284-1.164 5.242-1.729 3.682-.964 5.407-1.563 6.005-2.327.398-.599 2.322-5.055 4.246-9.71 1.758 0 6.204-.399 6.569-.598.398-.399 4.08-9.875 4.08-11.039 0-.964-7.564-19.784-10.45-26.966 1.36-1.563 2.721-3.491 4.048-5.62 39.678 4.29 70.664 38.039 70.664 78.937 0 31.421-18.38 58.786-45.086 71.587"/><path fill="#1B314F" d="M125.795 135.679c3.683-4.256 1.759-12.203-5.042-13.566 1.758-4.056 4.246-12.203 4.246-12.203s-19.739 31.023-21.464 31.621c-1.759.599-3.484-6.218-3.484-6.218-3.682 14.165 6.204 16.094 7.365 11.638 5.408-1.396 14.697-7.215 18.379-11.272"/><path fill="#FFD923" d="m108.942 143.227 10.052-17.257s5.806 2.926 2.887 7.581c-3.65 5.42-12.939 9.676-12.939 9.676"/><path fill="#D82122" d="M233.384 223.161c-2.92 3.89-6.204 7.946-10.052 11.837 24.948-48.113 1.161-92.137.199-93.866 1.758 1.763 3.483 3.691 5.042 5.42 19.143 21.313 21.465 53.333 4.811 76.609m23.223-61.879c-8.725-23.475-21.1-43.458-48.37-61.48-26.308-17.456-54.574-16.093-56.133-15.893h-.398c.962-.4 1.924-.599 2.886-.765 6.005-1.929 13.735-3.492 21.498-4.456 20.535-2.959 41.237 4.023 55.37 18.986l.398.4c16.057 17.057 24.384 38.37 24.749 63.208m-54.574-96.027c-28.83-5.42-47.408-2.726-60.778 2.328-.398-1.563-1.758-4.655-2.919-7.182-4.014 4.854-8.294 10.673-10.981 14.364-7.365 5.054-10.451 9.908-10.451 9.908 4.247-14.563 16.655-25.403 31.749-28.13 4.247-.764 8.891-1.163 13.934-1.163 13.337.2 26.673 3.491 39.446 9.875m-106.626 37.24C72.78 101.731 80.312 75.33 80.71 73.8c0 .2 1.526 20.749 14.697 28.695m22.26-47.515c-17.417 10.476-13.933 35.48-13.933 35.48-16.654-25.37 12.573-34.88 13.933-35.478"/><path fill="#fff" d="M89.037 109.478c1.161.964 2.322 2.727.962 5.254-.763 1.363-1.924 1.163-3.682.399-2.323-1.164-16.257-9.311-28.83-17.656 14.332 5.054 28.83 10.473 31.152 11.637 0 0 .199.2.398.366"/></g><defs><clipPath id="clip0_4193_3442"><rect width="256" height="256" fill="#fff" rx="128"/></clipPath></defs></svg>
