<svg xmlns="http://www.w3.org/2000/svg" fill="none" viewBox="0 0 256 256"><path fill="#fff" fill-rule="evenodd" d="M194.03 237.676a128.5 128.5 0 0 0 24.407-19.094L152.512 59.084c-4.64-10.289-11.536-15.308-20.626-15.308h-7.273c-9.09 0-15.986 5.019-20.626 15.308L68.19 145.786H41.105c-8.087.063-14.67 6.588-14.733 14.744v.188c.063 8.093 6.646 14.68 14.733 14.743H55.65l-17.907 43.302a128.5 128.5 0 0 0 24.475 19.063l25.155-62.428h26.08c8.087-.062 14.67-6.587 14.733-14.743v-.376c-.063-8.093-6.646-14.681-14.733-14.743H99.536l28.713-71.583 32.891 81.861z" clip-rule="evenodd"/><path fill="#fff" d="M128 0C57.308 0 0 57.308 0 128c0 35.475 14.432 67.58 37.744 90.763l17.907-43.302H41.106c-8.087-.063-14.67-6.65-14.733-14.743v-.188c.063-8.156 6.646-14.681 14.733-14.744h27.083l35.798-86.702c4.64-10.289 11.536-15.308 20.626-15.308h7.273c9.09 0 15.986 5.019 20.626 15.308l65.925 159.498C241.643 195.413 256 163.383 256 128 256 57.308 198.692 0 128 0"/><path fill="url(#paint0_linear_4193_3534)" d="M128 0C57.308 0 0 57.308 0 128c0 35.475 14.432 67.58 37.744 90.763l17.907-43.302H41.106c-8.087-.063-14.67-6.65-14.733-14.743v-.188c.063-8.156 6.646-14.681 14.733-14.744h27.083l35.798-86.702c4.64-10.289 11.536-15.308 20.626-15.308h7.273c9.09 0 15.986 5.019 20.626 15.308l65.925 159.498C241.643 195.413 256 163.383 256 128 256 57.308 198.692 0 128 0"/><path fill="#fff" d="M113.454 175.398h-26.08l-25.155 62.428C81.443 249.365 103.947 256 128 256c24.157 0 46.752-6.692 66.03-18.324l-32.89-81.862-32.891-81.861-28.713 71.583h13.918c8.087.062 14.67 6.65 14.733 14.743v.376c-.063 8.156-6.646 14.681-14.733 14.743"/><path fill="url(#paint1_linear_4193_3534)" d="M113.454 175.398h-26.08l-25.155 62.428C81.443 249.365 103.947 256 128 256c24.157 0 46.752-6.692 66.03-18.324l-32.89-81.862-32.891-81.861-28.713 71.583h13.918c8.087.062 14.67 6.65 14.733 14.743v.376c-.063 8.156-6.646 14.681-14.733 14.743"/><defs><linearGradient id="paint0_linear_4193_3534" x1="44.032" x2="212.992" y1="247.808" y2="17.664" gradientUnits="userSpaceOnUse"><stop stop-color="#2ED7E6"/><stop offset=".49" stop-color="#8EADD3"/><stop offset="1" stop-color="#B6509E"/><stop offset="1" stop-color="#FF00C3"/></linearGradient><linearGradient id="paint1_linear_4193_3534" x1="44.032" x2="212.992" y1="247.808" y2="17.664" gradientUnits="userSpaceOnUse"><stop stop-color="#2ED7E6"/><stop offset=".49" stop-color="#8EADD3"/><stop offset="1" stop-color="#B6509E"/><stop offset="1" stop-color="#FF00C3"/></linearGradient></defs></svg>
