<svg xmlns="http://www.w3.org/2000/svg" fill="none" viewBox="0 0 512 512"><path fill="#E6E6E6" fill-rule="evenodd" d="M256 512c141.385 0 256-114.615 256-256S397.385 0 256 0 0 114.615 0 256s114.615 256 256 256m.5-63C363.367 449 450 362.591 450 256S363.367 63 256.5 63 63 149.409 63 256s86.633 193 193.5 193" clip-rule="evenodd"/><path fill="#000" fill-rule="evenodd" d="M450 256c0 106.591-86.633 193-193.5 193S63 362.591 63 256 149.633 63 256.5 63 450 149.409 450 256" clip-rule="evenodd"/><path fill="#E6E6E6" d="M256.541 245.05q3.804 9.453 11.542 19.295 4.588 5.84 6.916 13.371 2.08 6.743 1.788 14.693-.738 19.838-13.321 36.128-3.386 4.394-7.473 6.971-9.83 6.21-21.447 7.114a350 350 0 0 1-25.761 1.074c-.83 0-1.639.27-2.309.77a50.1 50.1 0 0 1-14.834 7.57q-6.574 2.073-13.008-.313a42.7 42.7 0 0 1-9.981-5.269 27 27 0 0 0-3.16-1.95q-1.514-.807-3.5-.817-13.216-.105-24.408-.942-9.83-.732-18.864-5.525-6.301-3.348-10.804-9.206-3.549-4.622-7.067-12.039-4.551-9.596-5.601-20.066-1.467-14.674 5.705-27.065.009-.029 6.546-9.216a73.6 73.6 0 0 0 7.947-14.264 1.68 1.68 0 0 0-.18-1.636q-9.1-12.848-12.213-27.94-1.353-6.543 1.012-15.264 5.109-18.838 24.058-22.063 9.045-1.54 18.108 2.064 10.056 3.995 18.59 11.127 1.334 1.122 2.999.646 17.644-5.012 36.877.114a1.866 1.866 0 0 0 1.617-.313q5.639-4.242 12.129-8.179 15.213-9.244 31.295-3.813 4.843 1.626 8.259 4.469a27.3 27.3 0 0 1 6.206 7.304q3.369 5.782 4.645 12.943 1.23 6.905-.539 14.036-2.516 10.071-6.376 16.367a328 328 0 0 0-5.326 8.987.97.97 0 0 0-.067.837M331.951 300.7q9.295 2.41 13.828 9.921 2.62 4.34 3.845 11.97.977 6.081.956 12.671a.9.9 0 0 1-.26.623.87.87 0 0 1-.616.257h-16.228a.6.6 0 0 1-.452-.198.64.64 0 0 1-.166-.472q.538-7.89-1.594-14.491-.359-1.12-1.026-.16-1.256 1.8-2.73 3.06a7.57 7.57 0 0 1-3.596 1.721q-5.579 1.04-8.946-4.061-.737-1.11-1.175.15a17.3 17.3 0 0 0-.986 5.951q.04 3.76-.379 7.99a.58.58 0 0 1-.183.365.55.55 0 0 1-.375.145h-16.646a.66.66 0 0 1-.658-.64q-.228-9.01 1.524-16.951 2.919-13.23 16.687-17.661a1.012 1.012 0 0 0 .697-.96v-5.1c0-.148-.05-.29-.141-.405a.63.63 0 0 0-.357-.225q-8.736-2.03-13.449-9.311-3.725-5.76-4.692-14.731a65.1 65.1 0 0 1 1.773-23.751q3.298-12.552 16.348-16.401a.72.72 0 0 0 .368-.253.7.7 0 0 0 .14-.417l-.03-5.401a.64.64 0 0 0-.143-.386.7.7 0 0 0-.355-.234q-13.947-3.99-16.965-18.421a67.4 67.4 0 0 1-1.385-16.691.53.53 0 0 1 .528-.51l16.786-.06a.556.556 0 0 1 .558.52q.389 4.6.329 8.981a12.3 12.3 0 0 0 1.215 5.56.3.3 0 0 0 .249.178.35.35 0 0 0 .299-.118q7.94-8.79 15.899.56.688.81.967-.21 1.873-6.84 1.444-14.751a.7.7 0 0 1 .04-.272.66.66 0 0 1 .369-.393.7.7 0 0 1 .268-.055h16.288a.74.74 0 0 1 .737.73q.16 8.45-1.524 16.091-1.694 7.74-5.27 11.921-4.482 5.25-11.805 6.96a.7.7 0 0 0-.372.226.62.62 0 0 0-.146.394l-.029 5.161a.74.74 0 0 0 .157.456.8.8 0 0 0 .41.274q8.248 2.18 12.772 8.34 3.416 4.67 4.921 13.571 2.35 13.96-1.335 27.132-3.417 12.2-16.139 15.441a.93.93 0 0 0-.429.235.58.58 0 0 0-.178.375l-.199 5.15a.52.52 0 0 0 .147.372.85.85 0 0 0 .41.238m-1.723-50.663q-1.474 2.59-4.015 3.91-2.56 1.33-5.24.96-3.336-.47-5.519-3.53-1.534-2.16-1.972.46-1.773 10.53.179 21.681.15.9.797.26 8.577-8.6 15.9.44.726.89 1.016-.22 3.137-11.97-.04-23.821-.379-1.42-1.106-.14M402.442 265.188q12.313 2.97 15.939 14.641 3.388 10.86 2.311 22.651-.996 11.072-4.054 16.551-4.364 7.83-14.624 10.871a.53.53 0 0 0-.379.51v5.06a.67.67 0 0 1-.187.463.618.618 0 0 1-.45.187l-16.358-.15a.45.45 0 0 1-.328-.152.56.56 0 0 1-.14-.368l-.1-5.12a.62.62 0 0 0-.152-.39.72.72 0 0 0-.376-.23q-7.371-1.88-11.894-7.211-3.627-4.28-5.35-12.15-3.098-14.262.698-28.762 3.327-12.711 16.257-16.281c.29-.083.543-.258.717-.496.174-.239.259-.526.24-.814l-.279-4.601a.7.7 0 0 0-.162-.4.76.76 0 0 0-.376-.24q-8.448-2.3-12.891-8.53-3.377-4.75-4.802-13.801-2.052-12.99 1.455-26.002 3.317-12.33 16.258-15.991c.22-.062.414-.185.55-.351a.83.83 0 0 0 .197-.559l-.209-5.38a.53.53 0 0 1 .121-.36.41.41 0 0 1 .317-.15h16.437a.65.65 0 0 1 .42.146c.113.095.18.226.188.364l.349 5.19a1.1 1.1 0 0 0 .152.514.6.6 0 0 0 .336.276q8.438 2.54 12.93 8.651 3.438 4.68 4.941 13.901 2.222 13.731-1.325 26.211-3.486 12.252-16.118 15.871a.9.9 0 0 0-.391.236.9.9 0 0 0-.227.404q-.777 2.911-.259 5.191c.03.143.104.275.213.381.11.107.25.182.405.219m-1.365-50.683q-8.139 9.22-15.869.51-.817-.92-1.106.28-2.68 11.22.14 23.021.228.93.737.13 3.995-6.26 11.864-3.75 1.156.37 4.394 4 .338.38.448-.11 2.55-11.52.249-23.841-.18-1-.857-.24m-1.086 93.505q.509.69.777 1.151.887 1.56 1.236-.21.956-4.99.976-9.851.03-5.79-.02-6.921a24 24 0 0 0-1.345-6.86q-.17-.48-.498-.09-8.726 10.47-16.427-.1-.31-.43-.428.09-2.85 11.95-.04 23.982.179.81.677.15 6.207-8.331 14.136-2.331.538.411.956.99"/></svg>