<svg xmlns="http://www.w3.org/2000/svg" fill="none" viewBox="0 0 512 512"><path fill="#10F3A1" fill-rule="evenodd" d="M256 512c141.385 0 256-114.615 256-256S397.385 0 256 0 0 114.615 0 256s114.615 256 256 256m.5-63C363.367 449 450 362.591 450 256S363.367 63 256.5 63 63 149.409 63 256s86.633 193 193.5 193" clip-rule="evenodd"/><path fill="#000" fill-rule="evenodd" d="M450 256c0 106.591-86.633 193-193.5 193S63 362.591 63 256 149.633 63 256.5 63 450 149.409 450 256" clip-rule="evenodd"/><path fill="#10F3A1" d="m345.687 259.682 48.57-24.136L411 184.3 377.515 160H154.554L103 198.186h262.082l-13.925 42.981H246.059l-10.112 31.409h105.098l-16.83 51.576H177.099l30.336-94.226-33.651-25.127L123.224 363h188.314l49.234-24.3 17.571-54.222-32.988-24.135z"/></svg>