<svg xmlns="http://www.w3.org/2000/svg" fill="none" viewBox="0 0 512 512"><path fill="#FFD53F" fill-rule="evenodd" d="M256 512c141.385 0 256-114.615 256-256S397.385 0 256 0 0 114.615 0 256s114.615 256 256 256m.5-63C363.367 449 450 362.591 450 256S363.367 63 256.5 63 63 149.409 63 256s86.633 193 193.5 193" clip-rule="evenodd"/><path fill="#000" fill-rule="evenodd" d="M450 256c0 106.591-86.633 193-193.5 193S63 362.591 63 256 149.633 63 256.5 63 450 149.409 450 256" clip-rule="evenodd"/><path fill="#FFD53F" d="m299.605 279.146-40.3 68.129L320.326 443a204.5 204.5 0 0 0 62.413-33.298zm47.412-80.038-35.084 59.076 86.008 138.371c15.231-15.272 31.422-36.233 41.059-55.106zm-10.359-19.605-69.735.475L128 407.341a204.5 204.5 0 0 0 54.345 31.697zM74 340.066a205.1 205.1 0 0 0 38.15 52.959l134.849-213.522-26.565-.476c-22.296-.475-46.965 5.231-57.875 23.303z"/></svg>
