<svg xmlns="http://www.w3.org/2000/svg" fill="none" viewBox="0 0 512 512"><path fill="#FFD53F" fill-rule="evenodd" d="M256 512c141.385 0 256-114.615 256-256S397.385 0 256 0 0 114.615 0 256s114.615 256 256 256m.5-63C363.367 449 450 362.591 450 256S363.367 63 256.5 63 63 149.409 63 256s86.633 193 193.5 193" clip-rule="evenodd"/><path fill="#000" fill-rule="evenodd" d="M450 256c0 106.591-86.633 193-193.5 193S63 362.591 63 256 149.633 63 256.5 63 450 149.409 450 256" clip-rule="evenodd"/><path fill="#FFD53F" d="M253.685 139a123.62 123.62 0 0 0-87.447 36.25 123.8 123.8 0 0 0-36.222 87.515 125.5 125.5 0 0 0 2.19 23.303l15.977-10.936c28.089-19.28 73.643-19.28 101.732 0l25.871 17.744c25.315 17.356 66.326 17.356 91.618 0l7.454-5.108a124 124 0 0 0-1.055-54.404 123.9 123.9 0 0 0-24.255-48.701 123.8 123.8 0 0 0-42.772-33.595 123.7 123.7 0 0 0-53.032-12.004z"/><path fill="#FFD53F" d="M323.184 337.117a89.03 89.03 0 0 1-49.866-14.258l-25.83-17.717a89.33 89.33 0 0 0-46.718-13.192 89.33 89.33 0 0 0-46.718 13.192l-16.701 11.442a7.25 7.25 0 0 1-8.059.092 7.26 7.26 0 0 1-3.168-7.417 7.27 7.27 0 0 1 3.032-4.654l16.696-11.442a103.84 103.84 0 0 1 54.918-15.712c19.413 0 38.438 5.443 54.918 15.712l25.83 17.716a79.77 79.77 0 0 0 83.323 0l9.808-6.712a7.25 7.25 0 0 1 10.083 1.889 7.264 7.264 0 0 1-1.888 10.091l-9.803 6.716a89 89 0 0 1-49.857 14.254"/><path fill="#FFD53F" d="M200.235 389.091v-69.923a28 28 0 0 1 .187-4.406 7.87 7.87 0 0 1 7.827-6.99 7.615 7.615 0 0 1 7.385 6.99c.297 2.427.382 4.876.255 7.318v98.435a8.2 8.2 0 0 1-.524 3.183 8.2 8.2 0 0 1-4.34 4.598 8.2 8.2 0 0 1-3.145.704 8 8 0 0 1-5.669-2.822 8.03 8.03 0 0 1-1.853-6.059V408.64zm-14.693-35.196v34.749c0 5.924-3.187 9.884-7.663 9.743a8.9 8.9 0 0 1-6.001-3.256 8.9 8.9 0 0 1-1.922-6.555V319.1c0-6.088 3.543-10.194 8.151-9.957s7.362 3.919 7.385 9.998c.073 11.588.05 23.171.05 34.754m45.113-.046v-24.428c0-5.664 3-9.324 7.476-9.324a8.393 8.393 0 0 1 7.968 9.114q.255 24.943 0 49.86a7.985 7.985 0 0 1-7.922 9.017c-4.585-.045-7.518-3.522-7.568-9.323v-24.939zm-90.972 5.099v-24.429c0-5.659 3.005-9.322 7.476-9.322a8.38 8.38 0 0 1 5.923 2.858 8.4 8.4 0 0 1 2.045 6.255q.228 24.944 0 49.859a8 8 0 0 1-1.926 6.3 8 8 0 0 1-5.997 2.718c-4.553-.045-7.521-3.522-7.571-9.323v-24.939zm128.872-20.81a7.66 7.66 0 0 1 5.419 2.249 7.68 7.68 0 0 1 2.244 5.424v13.283a7.67 7.67 0 0 1-2.244 5.423 7.66 7.66 0 0 1-10.839 0 7.68 7.68 0 0 1-2.247-5.423v-13.283a7.666 7.666 0 0 1 7.667-7.673m30.37 11.633a7.66 7.66 0 0 1 5.419 2.249 7.68 7.68 0 0 1 2.244 5.425v68.511a7.664 7.664 0 1 1-15.326 0v-68.511a7.666 7.666 0 0 1 7.663-7.674m30.178 2.889a7.674 7.674 0 0 1 7.668 7.669v53.338a7.68 7.68 0 0 1-4.735 7.083 7.68 7.68 0 0 1-5.865 0 7.66 7.66 0 0 1-4.147-4.149 7.7 7.7 0 0 1-.584-2.934v-53.338c0-2.034.808-3.985 2.245-5.423a7.66 7.66 0 0 1 5.418-2.246m30.561-7.222a7.664 7.664 0 0 1 7.663 7.669v27.313a7.664 7.664 0 0 1-13.082 5.422 7.67 7.67 0 0 1-2.244-5.422v-27.313a7.664 7.664 0 0 1 7.663-7.669"/></svg>
