<svg xmlns="http://www.w3.org/2000/svg" fill="none" viewBox="0 0 512 512"><path fill="#FFD53F" fill-rule="evenodd" d="M256 512c141.385 0 256-114.615 256-256S397.385 0 256 0 0 114.615 0 256s114.615 256 256 256m.5-63C363.367 449 450 362.591 450 256S363.367 63 256.5 63 63 149.409 63 256s86.633 193 193.5 193" clip-rule="evenodd"/><path fill="#000" fill-rule="evenodd" d="M450 256c0 106.591-86.633 193-193.5 193S63 362.591 63 256 149.633 63 256.5 63 450 149.409 450 256" clip-rule="evenodd"/><path fill="#FFD53F" d="M261.272 312.552v-91.015L351 258.553zm88.913-64.596-88.913-36.693V104zm-98.457-26.419v91.015L162 258.553zm0-10.274-88.913 36.693L251.728 104zm9.544 129.016 88.721-53.395L261.272 411zm-98.264-53.395 88.72 53.395v70.706z"/></svg>