<svg xmlns="http://www.w3.org/2000/svg" fill="none" viewBox="0 0 512 512"><path fill="#FFD53F" fill-rule="evenodd" d="M256 512c141.385 0 256-114.615 256-256S397.385 0 256 0 0 114.615 0 256s114.615 256 256 256m.5-63C363.367 449 450 362.591 450 256S363.367 63 256.5 63 63 149.409 63 256s86.633 193 193.5 193" clip-rule="evenodd"/><path fill="#000" fill-rule="evenodd" d="M450 256c0 106.591-86.633 193-193.5 193S63 362.591 63 256 149.633 63 256.5 63 450 149.409 450 256" clip-rule="evenodd"/><path fill="#FFD53F" d="M294.535 451.654c.33.255.651.502.981.74.478.362 1.013.822.931 1.423-.083.6-.676.879-1.211 1.085-19.712 7.539-45.66 6.782-66.279 4.612a194 194 0 0 1-31.557-5.985c-7.595-2.105-22.76-4.645-28.107-10.746-3.879-4.431 5.322-11.098 7.628-14.132 4.77-6.265 8.369-14.042 11.739-21.129 7.067-14.872 14.901-33.617 16.541-50.068.296-1.801.873-2.212 2.685-2.088q.784.077 1.548.263c1.275.271 2.58.37 3.88.296 3.65-.42 7.224-1.291 10.841-1.768 7.051-.822 33.164-8.608 28.666-19.657a2.14 2.14 0 0 0-2.051-1.316 5.3 5.3 0 0 1-2.241-.715 3.12 3.12 0 0 0-3.196-.099c-1.334.757-2.842.444-4.25.707a48 48 0 0 0-7.505 2.22c-2.767.987-5.428 2.195-8.163 3.223a11.2 11.2 0 0 0-2.932 1.48 3.3 3.3 0 0 1-1.03.567c-2.158.617-3.863 2.121-5.914 2.952a5.3 5.3 0 0 0-2.101 1.422c-.243.311-.56.557-.923.715-.716.263-1.45.748-2.24.148-2.826-2.146 5.766-17.955 6.961-20.792 1.07-2.589 2.676-4.11 5.592-3.074a7.7 7.7 0 0 0 2.703.435c2.174-.041 4.357-.107 6.524 0a45 45 0 0 0 10.527-1.052 28 28 0 0 1 3.509-.452 15.8 15.8 0 0 0 5.767-1.793q.455-.183.93-.304c1.648-.501 3.295-.731 4.663-1.965a4.2 4.2 0 0 1 1.59-.756c3.295-1.011 5.766-3.231 8.328-5.327a2.62 2.62 0 0 0 .733-3.042 2.466 2.466 0 0 0-2.381-2.039 61 61 0 0 0-8.056.411c-4.119.542-7.982 2.154-12.192 2.055-1.984.068-3.938.5-5.766 1.274-2.084.749-4.217.921-6.318 1.398-1.819.27-3.575.857-5.189 1.735-6.59 3.609-1.771-5.525-.643-7.654a121 121 0 0 1 8.559-13.837 6 6 0 0 1 2.084-2.047 6.2 6.2 0 0 1 2.916-.362 83.57 83.57 0 0 0 47.67-13.491c1.647-1.069 3.41-2.672 2.974-4.555-.503-2.187-3.402-2.614-5.643-2.466a114.9 114.9 0 0 0-37.505 8.336c-.972-.657-.247-2.162.535-3.042l12.628-14.222a13.2 13.2 0 0 1 3.13-2.837c2.513-1.455 5.627-1.11 8.526-.896a69.54 69.54 0 0 0 40.776-9.866c1.746-1.06 3.674-2.704 3.295-4.702-.511-2.565-4.053-2.828-6.648-2.467l-27.472 3.782c-.27.072-.554.072-.824 0-1.12-.485 0-2.121 1.088-2.672a303.3 303.3 0 0 0 46.055-28.668c2.134-1.644 4.424-4.521 2.71-6.577-1.227-1.463-3.558-1.06-5.387-.477a107.5 107.5 0 0 0-36.426 20.061c-3.072 2.581-6.137 5.409-9.984 6.577a227 227 0 0 0 11.516-29.17c.544-1.693.948-3.831-.387-4.99-1.812-1.587-4.514.321-6.087 2.146-11.813 13.631-22.307 29.301-25.1 47.108-.354 2.236-.593 4.538-1.648 6.577a18.5 18.5 0 0 1-2.891 3.905l-8.55 9.644c-.667.748-1.746 1.554-2.545.962a114 114 0 0 0 2.932-36.626c-.14-1.719-.494-3.716-2.018-4.547-2.167-1.184-4.654.938-6.022 2.993-4.448 6.684-6.392 14.757-7.035 22.757-.642 7.999-.065 16.039.124 24.064.14 5.894-.544 10.687-3.468 15.785-.824 1.455-4.572 9.865-6.985 8.92a1.204 1.204 0 0 1-.775-1.25v-4.111a50 50 0 0 0-.593-6.84 60 60 0 0 1-.914-8.591 29.7 29.7 0 0 0-2.109-10.951c-.305-.822-.436-1.644-.725-2.466a5.3 5.3 0 0 0-4.942-3.61 3.69 3.69 0 0 0-3.221 1.579 8.35 8.35 0 0 0-1.936 5.434c.124 6.38.116 12.76.165 19.14q-.036.394.041.781c.964 3.954.906 8.073 1.961 12.011.551 2.047.148 4.193.667 6.257.231 1.424.561 2.831.988 4.209.956 2.401 1.187 4.974 1.722 7.465.898 4.176-3.608 11.189-5.107 15.07-1.854 4.834-3.147 1.94-4.753-1.398-1.524-3.165-2.743-6.462-4.119-9.718-2.471-5.903-5.058-12.101-9.934-16.442a5.61 5.61 0 0 0-5.157-1.234 3.4 3.4 0 0 0-2.685 2.557 8 8 0 0 0-.272 4.612c.519 1.941.922 3.922 1.367 5.879a.7.7 0 0 0 .074.181c1.648 2.269 2.018 5.097 3.378 7.481.42.74.766 1.529 1.112 2.302a38.8 38.8 0 0 0 4.423 7.852c.948 1.241 1.788 2.597 2.603 3.921 1.153 1.866 2.71 3.371 3.979 5.114.75 1.036 2.001 1.447 2.908 2.318a4.28 4.28 0 0 1 1.178 4.999 8 8 0 0 1-.346.88 17.4 17.4 0 0 0-1.903 6.387 22 22 0 0 1-1.145 4.572 24 24 0 0 0-1.392 7.127 14.4 14.4 0 0 1-.56 3.495c-.511 1.866-1.005 2.285-2.958 2.071a19.4 19.4 0 0 1-5.477-1.521c-6.533-2.894-12.455-6.988-19.004-9.865-2.793-1.225-5.626-2.006-8.056-3.642-2.175-1.464-3.641-4.111-5.882-5.336a1.44 1.44 0 0 1-.676-.945 1.3 1.3 0 0 0-.321-.707c-1.993-1.563-2.471-4.111-3.88-6.019a2.2 2.2 0 0 1-.403-.674c-.643-2.672-1.969-5.105-2.809-7.703a21.3 21.3 0 0 0-1.837-4.736c-1.055-1.718-1.392-3.798-2.546-5.524a5.9 5.9 0 0 0-3.476-2.681 20.9 20.9 0 0 1-5.89-3.05 4.86 4.86 0 0 1-1.705-2.82 8.2 8.2 0 0 0-1.433-3.124 4.24 4.24 0 0 1-.824-1.997 14 14 0 0 0-.519-2.467c-1.524-3.346-1.581-7.005-2.306-10.523a1.5 1.5 0 0 0-.099-.378c-1.4-2.039-2.644-4.259-5.124-5.213a2.9 2.9 0 0 1-1.301-.822 1.9 1.9 0 0 0-.824-.526 14.2 14.2 0 0 1-6.104-3.683c-2.01-1.834-4.415-3.412-4.827-6.454a.4.4 0 0 0-.058-.189c-2.471-3.017-1.87-6.824-2.677-10.269-.198-.822-.222-1.693-.412-2.524-.346-1.488-.823-2.885-2.347-3.683a3.04 3.04 0 0 1-1.631-3.066c.107-2.204.189-4.366 1.993-5.985.049 0 .107-.091.115-.148.462-2.722 2.472-4.744 3.238-7.326.403-1.34.478-2.557-.75-3.568a1.643 1.643 0 0 1-.305-2.31c1.104-1.644.882-3.338.445-5.114a19.4 19.4 0 0 1-.066-7.999c.279-.948.472-1.919.577-2.902.023-.262.084-.52.181-.765a58 58 0 0 1 4.226-7.399c1.252-1.587 2.867-2.902 3.682-4.826.173-.346.445-.632.783-.822 1.647-.987 2.809-2.573 4.341-3.716a15.5 15.5 0 0 1 2.043-1.521c1.334-.699 1.491-1.488.675-2.689-.964-1.43-.725-2.285.873-2.959a13 13 0 0 1 2.966-1.053 3.145 3.145 0 0 0 2.726-2.737c.544-2.582 2.389-4.333 3.831-6.331 2.018-2.787 4.942-1.644 7.364-3.288 2.62-1.71 3.353-4.892 6.845-6.331 2.99-1.225 6.228-1.776 9.177-3.083 5.371-2.392 9.292-7.037 13.41-11.279 17.299-18.194 42.885-35.418 68.931-35.747 7.496-.099 14.935 1.036 22.34 2.154 16.162 2.466 32.95 6.577 49.202 7.506 2.521.271 4.77 1.34 7.134 2.105 12.834 4.069 20.083 11.929 25.849 24.031 4.424 9.29 9.012 18.498 13.921 27.541 2.76 5.081 7.126 10.178 7.628 16.155.272 3.24-1.095 5.098-2.018 8-1.095 3.412-1.153 7.243-1.211 10.786a7.8 7.8 0 0 0 2.002 5.361c2.669 2.968 4.885 6.322 7.801 9.092 1.079 1.02 1.705 2.467 2.677 3.618 4.728 5.648 12.719 9.915 18.567 14.363a4 4 0 0 1 1.771 2.219 3.4 3.4 0 0 1-.494 2.089c-2.76 5.22-9.061 7.259-13.732 10.909a2.65 2.65 0 0 0-1.178 3.141c.659 3.848 3.921 6.922 3.509 10.803a2.7 2.7 0 0 1-.873 1.71c-1.03 1.019-2.059 2.031-3.064 3.075a3.9 3.9 0 0 0-1.208 2.722 3.9 3.9 0 0 0 .261 1.496c.185.476.462.912.815 1.282.041.041.083.09.132.131.766.822 1.581 1.587 2.347 2.401 1.557 1.644 1.582 2.771.067 4.464-1.393 1.562-2.884 3.05-4.177 4.719a6.7 6.7 0 0 0-1.244 5.508c.445 3.026 1.598 5.912 1.425 9.102-.197 4.028-1.31 9.323-4.481 12.085-2.257 1.973-5.42 2.466-8.394 2.803a465 465 0 0 1-20.124 2.015c-9.168.715-22.356-2.195-27.48 7.136-1.648 2.96-2.471 6.289-3.295 9.553a282 282 0 0 1-14.638 41.74c-4.119 9.274-13.625 21.524-11.631 32.105.832 4.497 4.349 7.892 8.006 10.728"/></svg>