<svg xmlns="http://www.w3.org/2000/svg" fill="none" viewBox="0 0 512 512"><path fill="#E6E6E6" fill-rule="evenodd" d="M256 512c141.385 0 256-114.615 256-256S397.385 0 256 0 0 114.615 0 256s114.615 256 256 256m.5-63C363.367 449 450 362.591 450 256S363.367 63 256.5 63 63 149.409 63 256s86.633 193 193.5 193" clip-rule="evenodd"/><path fill="#000" fill-rule="evenodd" d="M450 256c0 106.591-86.633 193-193.5 193S63 362.591 63 256 149.633 63 256.5 63 450 149.409 450 256" clip-rule="evenodd"/><path fill="#E6E6E6" d="m378.522 167.708-24.529 38.129a109.4 109.4 0 0 1 10.438 66.683 109.43 109.43 0 0 1-30.692 60.125 109.62 109.62 0 0 1-126.895 20.317l-38.136 24.718a150.5 150.5 0 0 0 194.319-15.782 150.206 150.206 0 0 0 15.495-194.19"/><path fill="#E6E6E6" d="M256.495 330.75a75.62 75.62 0 0 0 48.322-17.459 75.44 75.44 0 0 0 25.968-44.286 173.1 173.1 0 0 0-71.506-.246 173 173 0 0 0-65.487 28.681 75.44 75.44 0 0 0 27.184 24.479 75.6 75.6 0 0 0 35.519 8.831"/><path fill="#E6E6E6" d="M293.354 251.123a179.8 179.8 0 0 1 38.194 4.104 75.336 75.336 0 0 0-75.317-74.019 75.336 75.336 0 0 0-75.316 74.019c.003 3.37.242 6.736.714 10.074a165 165 0 0 0-28.259 26.188 109.12 109.12 0 0 1 30.835-118.16 109.09 109.09 0 0 1 121.112-15.546l38.01-24.575a149.82 149.82 0 0 0-194.274 16.517 149.855 149.855 0 0 0-13.455 194.531 181.6 181.6 0 0 1 25.655-35.363s14.775-15.445 26.116-23.191a179.34 179.34 0 0 1 105.985-34.579"/></svg>