<svg xmlns="http://www.w3.org/2000/svg" fill="none" viewBox="0 0 512 512"><path fill="#E6E6E6" fill-rule="evenodd" d="M256 512c141.385 0 256-114.615 256-256S397.385 0 256 0 0 114.615 0 256s114.615 256 256 256m.5-63C363.367 449 450 362.591 450 256S363.367 63 256.5 63 63 149.409 63 256s86.633 193 193.5 193" clip-rule="evenodd"/><path fill="#000" fill-rule="evenodd" d="M450 256c0 106.591-86.633 193-193.5 193S63 362.591 63 256 149.633 63 256.5 63 450 149.409 450 256" clip-rule="evenodd"/><path fill="#E6E6E6" fill-rule="evenodd" d="M255.383 337.649c-8.712 0-16.808-1.826-23.416-5.282l-71.157-37.203-21.322 12.814c-10.135 6.088-9.958 15.422.395 20.835l98.417 51.46c4.779 2.497 10.891 3.727 17.083 3.727 7.231 0 14.568-1.674 20.029-4.953l96.347-57.9c10.135-6.092 9.958-15.426-.395-20.836l-20.461-10.703-68.454 41.14c-7.408 4.448-17.019 6.901-27.066 6.901" clip-rule="evenodd"/><path fill="#E6E6E6" fill-rule="evenodd" d="m371.997 238.704-17.085-9.065-72.065 43.942c-7.428 4.532-17.067 7.024-27.137 7.024-8.735 0-16.852-1.858-23.478-5.37l-74.779-39.675-17.944 10.944c-10.162 6.197-9.988 15.689.392 21.197l98.68 52.352c4.789 2.54 10.92 3.788 17.129 3.788 7.247 0 14.606-1.7 20.078-5.036l96.605-58.904c10.162-6.194 9.984-15.69-.396-21.197" clip-rule="evenodd"/><path fill="#E6E6E6" fill-rule="evenodd" d="m371.997 183.164-98.68-51.439C268.528 129.226 262.4 128 256.188 128c-7.247 0-14.606 1.673-20.078 4.951l-96.601 57.88c-10.162 6.086-9.988 15.414.392 20.826l98.68 51.445c4.789 2.496 10.92 3.722 17.129 3.722 7.247 0 14.606-1.673 20.078-4.952l96.605-57.88c10.162-6.086 9.984-15.416-.396-20.828" clip-rule="evenodd"/></svg>
