<svg xmlns="http://www.w3.org/2000/svg" fill="none" viewBox="0 0 512 512"><path fill="#E6E6E6" fill-rule="evenodd" d="M256 512c141.385 0 256-114.615 256-256S397.385 0 256 0 0 114.615 0 256s114.615 256 256 256m.5-63C363.367 449 450 362.591 450 256S363.367 63 256.5 63 63 149.409 63 256s86.633 193 193.5 193" clip-rule="evenodd"/><path fill="#000" fill-rule="evenodd" d="M450 256c0 106.591-86.633 193-193.5 193S63 362.591 63 256 149.633 63 256.5 63 450 149.409 450 256" clip-rule="evenodd"/><path fill="#E6E6E6" d="M186.272 366h-47.08c-9.893 0-14.78 0-17.76-1.902-3.218-2.082-5.184-5.532-5.423-9.339-.179-3.507 2.265-7.791 7.152-16.355l116.247-204.48c4.947-8.683 7.45-13.025 10.608-14.631a12.02 12.02 0 0 1 10.847 0c3.158 1.606 5.661 5.948 10.608 14.631l24.019 41.843c5.343 9.316 8.052 14.04 9.235 18.997a35.24 35.24 0 0 1 0 16.534c-1.192 4.996-3.874 9.754-9.297 19.21l-61.062 107.718-.158.276-.003.005c-5.376 9.389-8.101 14.148-11.877 17.738a35.55 35.55 0 0 1-14.482 8.388C202.899 366 197.357 366 186.272 366m118.894 0h67.461c9.952 0 14.959 0 17.941-1.96a11.9 11.9 0 0 0 5.423-9.397c.172-3.394-2.219-7.51-6.902-15.576l-.001-.001q-.21-.357-.422-.726l-.065-.113-33.792-57.688-.385-.65-.007-.012c-4.743-8.005-7.14-12.048-10.216-13.612a11.89 11.89 0 0 0-10.787 0c-3.099 1.606-5.602 5.829-10.548 14.333l-33.672 57.689-.115.199-.001.002c-4.928 8.489-7.391 12.732-7.214 16.213.239 3.807 2.205 7.315 5.423 9.397C290.208 366 295.214 366 305.166 366"/></svg>
