<svg xmlns="http://www.w3.org/2000/svg" fill="none" viewBox="0 0 512 512"><path fill="#E6E6E6" fill-rule="evenodd" d="M256 512c141.385 0 256-114.615 256-256S397.385 0 256 0 0 114.615 0 256s114.615 256 256 256m.5-63C363.367 449 450 362.591 450 256S363.367 63 256.5 63 63 149.409 63 256s86.633 193 193.5 193" clip-rule="evenodd"/><path fill="#000" fill-rule="evenodd" d="M450 256c0 106.591-86.633 193-193.5 193S63 362.591 63 256 149.633 63 256.5 63 450 149.409 450 256" clip-rule="evenodd"/><path fill="#E6E6E6" d="M335.579 221.853c23.11 0 41.844-18.995 41.844-42.427S358.689 137 335.579 137s-41.844 18.995-41.844 42.426 18.734 42.427 41.844 42.427M356.027 378 151 377.999V158.966h46.91V335.55h158.117z"/></svg>
