<svg xmlns="http://www.w3.org/2000/svg" fill="none" viewBox="0 0 512 512"><path fill="#E6E6E6" fill-rule="evenodd" d="M256 512c141.385 0 256-114.615 256-256S397.385 0 256 0 0 114.615 0 256s114.615 256 256 256m.5-63C363.367 449 450 362.591 450 256S363.367 63 256.5 63 63 149.409 63 256s86.633 193 193.5 193" clip-rule="evenodd"/><path fill="#000" fill-rule="evenodd" d="M450 256c0 106.591-86.633 193-193.5 193S63 362.591 63 256 149.633 63 256.5 63 450 149.409 450 256" clip-rule="evenodd"/><path fill="#E6E6E6" d="M255.752 362.982h-86.847c-26.792 0-48.799-19.064-52.413-45.545-1.649-11.99.893-23.196 6.944-33.65q20.506-35.424 40.947-70.917 22.903-39.681 45.816-79.357c8.676-14.972 21.645-24.139 38.786-26.076 22.737-2.574 40.539 6.246 52.269 26.004 13.074 22.021 25.664 44.327 38.478 66.511q24.219 41.93 48.438 83.886c5.122 8.863 7.637 18.356 7.37 28.607-.644 24.547-19.747 46.268-43.951 49.825a64 64 0 0 1-9.16.683q-43.34.076-86.677.029m0-32.507h86.496c3.742 0 7.288-.651 10.581-2.494 8.7-4.862 13.623-16.91 7.157-28.018-19.397-33.306-38.587-66.738-57.857-100.127q-14.478-25.075-28.951-50.151c-4.081-7.059-10.265-10.555-18.362-10.226-7.519.304-12.963 4.128-16.707 10.628a70783 70783 0 0 1-57.409 99.556 86345 86345 0 0 1-29.044 50.306c-2.368 4.084-3.662 8.39-2.936 13.11 1.631 10.577 9.641 17.405 20.373 17.412q43.325.02 86.663.004z"/></svg>
