<svg xmlns="http://www.w3.org/2000/svg" fill="none" viewBox="0 0 512 512"><path fill="#FFD53F" fill-rule="evenodd" d="M256 512c141.385 0 256-114.615 256-256S397.385 0 256 0 0 114.615 0 256s114.615 256 256 256m.5-63C363.367 449 450 362.591 450 256S363.367 63 256.5 63 63 149.409 63 256s86.633 193 193.5 193" clip-rule="evenodd"/><path fill="#000" fill-rule="evenodd" d="M450 256c0 106.591-86.633 193-193.5 193S63 362.591 63 256 149.633 63 256.5 63 450 149.409 450 256" clip-rule="evenodd"/><path fill="#FFD53F" fill-rule="evenodd" d="m274 215.899 52.5-30.708v61.417zm52.5 131.609-70 40.944-70-40.944v-71.654l70 40.945 70-40.945zm-140-162.317 52.5 30.708-52.5 30.709zm78.75 45.332 52.5 30.708-52.5 30.709zm-17.5 61.417-52.5-30.709 52.5-30.708zm70-121.372-61.25 35.095-61.25-35.095 61.25-36.558zM169 164.719v191.562L256.5 406l87.5-49.719V164.719L256.5 115z" clip-rule="evenodd"/></svg>