<svg xmlns="http://www.w3.org/2000/svg" fill="none" viewBox="0 0 512 512"><path fill="#FFD53F" fill-rule="evenodd" d="M256 512c141.385 0 256-114.615 256-256S397.385 0 256 0 0 114.615 0 256s114.615 256 256 256m.5-63C363.367 449 450 362.591 450 256S363.367 63 256.5 63 63 149.409 63 256s86.633 193 193.5 193" clip-rule="evenodd"/><path fill="#000" fill-rule="evenodd" d="M450 256c0 106.591-86.633 193-193.5 193S63 362.591 63 256 149.633 63 256.5 63 450 149.409 450 256" clip-rule="evenodd"/><path fill="#FFD53F" d="m168.332 211.495-45.187-23.007a148.6 148.6 0 0 0-8.94 21.641l48.25 15.602a97.4 97.4 0 0 1 5.877-14.236M206.715 170.947l25.029 43.124a48 48 0 0 1 11.637-4.844l-12.953-48.152a97 97 0 0 1 10.015-2.15l-7.96-50.084a149 149 0 0 0-22.742 5.477l15.477 47.436a99 99 0 0 0-14.334 5.964l-22.75-44.407a149.4 149.4 0 0 0-19.898 12.256l29.894 40.959a100 100 0 0 1 8.585-5.579M341.021 206.677l-43.108 25.051a48 48 0 0 1 4.851 11.63l48.147-12.977a98 98 0 0 1 2.154 10.008l50.076-7.974a149 149 0 0 0-5.492-22.746l-47.428 15.507a99 99 0 0 0-5.971-14.331l44.391-22.78a150 150 0 0 0-12.263-19.888l-40.947 29.915a98 98 0 0 1 5.59 8.585M323.442 123.108a149 149 0 0 0-21.64-8.929l-15.576 48.258a98 98 0 0 1 14.24 5.874zM305.437 170.063l-25.314 43.936a48.7 48.7 0 0 1 10.052 7.694l71-71.242a150.3 150.3 0 0 0-17.783-15.149l-29.283 40.386a100 100 0 0 0-8.672-5.625M170.093 206.518l43.922 25.342a48.9 48.9 0 0 1 7.707-10.057l-71.211-71.027a150 150 0 0 0-15.156 17.774l40.369 29.303a99 99 0 0 0-5.631 8.665M271.371 158.072l7.661-49.299A150.4 150.4 0 0 0 255.999 107h-.116v100.583h.116c4.24 0 8.435.544 12.471 1.615l13.006-49.013a99 99 0 0 0-10.105-2.113M209.199 243.503l-49.004-13.041a98 98 0 0 0-2.12 10.106l-49.291-7.684A150.6 150.6 0 0 0 107 255.997h100.58c0-4.248.544-8.454 1.619-12.494M343.668 300.514l45.186 23.007a148.4 148.4 0 0 0 8.94-21.641l-48.249-15.603a97.6 97.6 0 0 1-5.877 14.237M305.282 341.051l-25.028-43.125a48 48 0 0 1-11.637 4.844l12.954 48.152a97 97 0 0 1-10.015 2.151l7.955 50.08a149 149 0 0 0 22.743-5.477l-15.478-47.437a98.6 98.6 0 0 0 14.334-5.963l22.75 44.407a149.5 149.5 0 0 0 19.898-12.256l-29.894-40.96a100 100 0 0 1-8.582 5.584M170.981 305.333l43.112-25.051a48 48 0 0 1-4.852-11.63l-48.147 12.977a98 98 0 0 1-2.154-10.008l-50.079 7.974a149 149 0 0 0 5.492 22.747l47.427-15.508a99 99 0 0 0 5.972 14.332l-44.391 22.78a149.7 149.7 0 0 0 12.263 19.887l40.947-29.914a98 98 0 0 1-5.59-8.586M188.557 388.896a149 149 0 0 0 21.641 8.93l15.576-48.259a98 98 0 0 1-14.241-5.874zM206.562 341.947l25.315-43.935a48.7 48.7 0 0 1-10.053-7.695l-70.999 71.242a150 150 0 0 0 17.782 15.15l29.283-40.386a100 100 0 0 0 8.672 5.624M341.906 305.492l-43.924-25.342a48.8 48.8 0 0 1-7.706 10.056l71.207 71.032a150 150 0 0 0 15.157-17.775l-40.37-29.302a100 100 0 0 0 5.636-8.669M243.529 302.802l-13.006 49.014a99 99 0 0 0 10.106 2.112l-7.657 49.299A150.4 150.4 0 0 0 256.004 405h.117V304.417h-.117c-4.24 0-8.439-.543-12.475-1.615M304.42 256.007c0 4.248-.547 8.45-1.622 12.494l49.004 13.04a98 98 0 0 0 2.119-10.106l49.295 7.689A150.6 150.6 0 0 0 405 256.011z"/></svg>