<svg xmlns="http://www.w3.org/2000/svg" fill="none" viewBox="0 0 512 512"><path fill="#FFD53F" fill-rule="evenodd" d="M256 512c141.385 0 256-114.615 256-256S397.385 0 256 0 0 114.615 0 256s114.615 256 256 256m.5-63C363.367 449 450 362.591 450 256S363.367 63 256.5 63 63 149.409 63 256s86.633 193 193.5 193" clip-rule="evenodd"/><path fill="#000" fill-rule="evenodd" d="M450 256c0 106.591-86.633 193-193.5 193S63 362.591 63 256 149.633 63 256.5 63 450 149.409 450 256" clip-rule="evenodd"/><path fill="#FFD53F" d="m249.63 241.201-93.357-93.295c-.704-.704-2.113-1.408-2.818-1.76-1.409-.352-2.818 0-3.875.352-1.409.352-2.466 1.408-3.171 2.464-.704 1.408-1.057 2.465-1.057 3.873v103.153c-.352.704-.352 1.058-.352 1.762v104.912c0 .705 0 1.762.352 2.465.353.704.705 1.409 1.409 2.113.701.7 1.402 1.052 2.102 1.403l.012.006c.705 0 1.762.351 2.466.351h105.687c.705 0 1.762 0 2.466-.351l.012-.006c.701-.351 1.402-.703 2.102-1.403.705-.704 1.057-1.409 1.409-2.113.353-.703.353-1.76.353-2.465v-88.719l93.357 93.297c.352.704 1.409 1.056 2.113 1.409 1.057.351 1.762.351 2.819.351.704 0 1.761 0 2.466-.351l.012-.006c.7-.351 1.401-.703 2.102-1.403.704-.704 1.056-1.409 1.409-2.113.352-.703.352-1.407.352-2.464V152.835c0-.704 0-1.76-.352-2.465h-.001c-.352-.704-.704-1.408-1.408-2.112-.705-.704-1.41-1.056-2.114-1.408-.705 0-1.762-.352-2.466-.352H255.972c-.705 0-1.762 0-2.466.352s-1.41.704-2.114 1.408c-.705.704-1.057 1.408-1.409 2.112s-.353 1.761-.353 2.465z"/></svg>