<svg xmlns="http://www.w3.org/2000/svg" fill="none" viewBox="0 0 512 512"><path fill="#10F3A1" fill-rule="evenodd" d="M256 512c141.385 0 256-114.615 256-256S397.385 0 256 0 0 114.615 0 256s114.615 256 256 256m.5-63C363.367 449 450 362.591 450 256S363.367 63 256.5 63 63 149.409 63 256s86.633 193 193.5 193" clip-rule="evenodd"/><path fill="#000" fill-rule="evenodd" d="M450 256c0 106.591-86.633 193-193.5 193S63 362.591 63 256 149.633 63 256.5 63 450 149.409 450 256" clip-rule="evenodd"/><path fill="#10F3A1" fill-rule="evenodd" d="M375.492 165.595c-22.8-29.132-56.213-47.611-93.217-47.611-71.548.04-123.887 66.494-123.887 138.516 0 50.194 33.333 87.758 70.378 87.758 3.47 0 6.9-.323 10.29-.928-24.818-18.116-40.717-51.081-40.717-86.83 0-56.932 38.497-101.315 83.895-101.315 49.515 0 83.937 49.144 83.937 101.315-.121 38.492-13.842 76.783-38.014 105.027-21.105 24.653-48.384 40.308-78.448 45.271 0 0 2.502.202 5.771.202C338.609 407 406 339.618 406 256.5c0-34.135-11.38-65.607-30.548-90.865zm-22.84 90.865c0-50.194-33.332-87.758-70.377-87.758-3.471 0-6.901.322-10.29.928 24.817 18.116 40.717 51.081 40.717 86.83 0 56.931-38.498 101.315-83.896 101.315-49.514 0-83.936-49.145-83.936-101.315.121-38.493 13.841-76.784 38.013-105.028 21.065-24.653 48.384-40.267 78.408-45.23 0 0-2.502-.202-5.771-.202C172.391 106 105 173.382 105 256.5c0 34.135 11.38 65.607 30.548 90.865 22.8 29.132 56.213 47.611 93.218 47.611 71.547 0 123.846-66.454 123.846-138.476z" clip-rule="evenodd"/></svg>