<svg xmlns="http://www.w3.org/2000/svg" fill="none" viewBox="0 0 512 512"><path fill="#E6E6E6" fill-rule="evenodd" d="M256 512c141.385 0 256-114.615 256-256S397.385 0 256 0 0 114.615 0 256s114.615 256 256 256m.5-63C363.367 449 450 362.591 450 256S363.367 63 256.5 63 63 149.409 63 256s86.633 193 193.5 193" clip-rule="evenodd"/><path fill="#000" fill-rule="evenodd" d="M450 256c0 106.591-86.633 193-193.5 193S63 362.591 63 256 149.633 63 256.5 63 450 149.409 450 256" clip-rule="evenodd"/><path fill="#E6E6E6" fill-rule="evenodd" d="M205.88 172.257c41.445 10.814 55.574 65.822 31.555 121.3-26.846 59.709-105.498 65.821-126.221 9.403-10.832-34.792 0-83.687 23.549-109.076 19.31-20.216 47.568-28.209 71.117-21.627m-64.524 95.911c3.297-39.492 15.542-63 36.265-67.702 6.123-1.88 16.013-1.88 20.723 1.411 10.832 4.701 15.542 14.104 15.542 34.791 0 45.605-17.426 77.105-44.271 77.105-20.252 0-29.672-15.515-28.259-45.605m220.887-94.5c29.671 4.231 51.807 37.612 39.091 69.112-7.065 18.806-23.549 38.082-73.472 38.082-13.188 0-18.839-1.88-22.607.471-3.768 2.821-4.239 9.873-7.536 29.149-5.18 30.56-6.122 30.56-16.955 30.09h-5.18c-11.304 0-17.897 0-16.013-10.814l25.432-145.277c1.413-7.522 4.71-10.813 9.42-12.224 0 0 38.619-2.821 67.82 1.411m0 34.321c15.071 8.463 9.419 34.791-15.542 42.784-7.065 2.821-15.542 2.821-21.665 2.35-.942 0 .942 0 0 0-7.065 0-13.658.471-15.542-1.41-2.355-2.821-.942-8.933 2.355-24.448-.471 2.351.471-3.291 0 0 5.18-25.388 5.18-25.388 22.606-25.388 14.13 0 20.252 1.88 27.788 6.112" clip-rule="evenodd"/></svg>