<svg xmlns="http://www.w3.org/2000/svg" fill="none" viewBox="0 0 512 512"><path fill="#10F3A1" fill-rule="evenodd" d="M256 512c141.385 0 256-114.615 256-256S397.385 0 256 0 0 114.615 0 256s114.615 256 256 256m.5-63C363.367 449 450 362.591 450 256S363.367 63 256.5 63 63 149.409 63 256s86.633 193 193.5 193" clip-rule="evenodd"/><path fill="#000" fill-rule="evenodd" d="M450 256c0 106.591-86.633 193-193.5 193S63 362.591 63 256 149.633 63 256.5 63 450 149.409 450 256" clip-rule="evenodd"/><path fill="#10F3A1" fill-rule="evenodd" d="M179.487 358.56c-31.222-23.332-51.434-60.584-51.434-102.56 0-70.663 57.286-127.947 127.945-127.947 58.322 0 122.007 34.852 137.409 88.229C376.2 156.635 321.203 113 256.001 113 177.026 113 113 177.025 113 256c0 78.978 64.026 143 142.998 143C334.977 399 399 334.978 399 256v-7.526h-7.859l-1.047-.015a256 256 0 0 1-17.261-.901c-10.729-.933-22.965-2.751-31.3-6.081-13.406-5.355-20.976-12.454-29.626-20.76l-.5-.482c-8.665-8.321-18.401-17.672-35.271-25.611-16.617-7.821-34.995-6.566-48.501-3.787a123 123 0 0 0-16.9 4.781c-2.088.756-3.761 1.43-4.934 1.924-6.797 2.86-13.392 6.246-20.062 9.386 0 0 13.088 3.589 19.557 5.594a74 74 0 0 1 5.132 1.857 75.7 75.7 0 0 1 12.336 6.323c6.98 4.485 12.769 10.133 15.143 17.066-14.818 1.948-28.718 8.454-39.113 14.568a160 160 0 0 0-15.218 10.185 133 133 0 0 0-4.303 3.39c-.848.698-14.231 12.493-14.231 12.493s17.264 1.837 25.785 3.553c5.665 1.144 13.304 2.98 21.274 5.759 8.006 2.794 16.097 6.454 22.806 11.139 6.728 4.696 11.653 10.121 14.081 16.335 7.083 18.093.136 35.717-13.813 45.631-13.78 9.796-34.736 12.126-55.688-2.261m48.792 22.377a57.7 57.7 0 0 0 15.615-7.846c18.982-13.493 28.968-38.203 19.115-63.386-3.872-9.893-11.271-17.461-19.485-23.193-8.228-5.744-17.7-9.95-26.461-13.006a173 173 0 0 0-16.208-4.741 141 141 0 0 1 5.566-3.456c11.586-6.813 26.176-13.072 40.166-13.072 21.091 0 36.797 6.472 51.792 13.415q2.044.95 4.107 1.917c13.401 6.289 27.473 12.892 43.825 12.892 15.856 0 28.21-4.486 36.722-9.122-7.576 63.434-61.559 112.608-127.035 112.608-9.516 0-18.792-1.038-27.719-3.01m138.492-118.841c-5.636 1.924-12.469 3.312-20.457 3.312-12.826 0-23.847-5.139-37.84-11.663l-3.767-1.752c-14.009-6.488-30.217-13.364-51.317-14.61-2.828-13.969-13.419-23.512-22.484-29.344a81 81 0 0 0-3.018-1.845 98 98 0 0 1 2.78-.614c12.185-2.508 26.739-3.134 39.059 2.664 14.626 6.882 22.876 14.806 31.459 23.049l.295.283c8.831 8.48 18.173 17.37 34.468 23.879 9.056 3.616 20.772 5.561 30.822 6.641" clip-rule="evenodd"/><path fill="#10F3A1" d="M228.279 380.937a57.7 57.7 0 0 0 15.615-7.846c18.982-13.493 28.968-38.203 19.115-63.386-3.872-9.893-11.271-17.461-19.485-23.193-8.228-5.744-17.7-9.95-26.461-13.006a173 173 0 0 0-16.208-4.741 141 141 0 0 1 5.566-3.456c11.586-6.813 26.176-13.072 40.166-13.072 21.091 0 36.797 6.472 51.792 13.415q2.044.95 4.107 1.917c13.401 6.289 27.473 12.892 43.825 12.892 15.856 0 28.21-4.486 36.722-9.122-7.576 63.434-61.559 112.608-127.035 112.608-9.516 0-18.792-1.038-27.719-3.01"/></svg>