<svg xmlns="http://www.w3.org/2000/svg" fill="none" viewBox="0 0 512 512"><path fill="#10F3A1" fill-rule="evenodd" d="M256 512c141.385 0 256-114.615 256-256S397.385 0 256 0 0 114.615 0 256s114.615 256 256 256m.5-63C363.367 449 450 362.591 450 256S363.367 63 256.5 63 63 149.409 63 256s86.633 193 193.5 193" clip-rule="evenodd"/><path fill="#000" fill-rule="evenodd" d="M450 256c0 106.591-86.633 193-193.5 193S63 362.591 63 256 149.633 63 256.5 63 450 149.409 450 256" clip-rule="evenodd"/><path fill="#10F3A1" fill-rule="evenodd" d="M360 136v240l-181.187-.002v-42.353H137V178.353h41.813V136zm-146.346 42.355h104.531v42.353H213.654zm104.531 120H213.654v-77.647l-41.812.002v77.647l41.812-.002v42.353h104.531z" clip-rule="evenodd"/></svg>
