<svg xmlns="http://www.w3.org/2000/svg" fill="none" viewBox="0 0 512 512"><path fill="#10F3A1" fill-rule="evenodd" d="M256 512c141.385 0 256-114.615 256-256S397.385 0 256 0 0 114.615 0 256s114.615 256 256 256m.5-63C363.367 449 450 362.591 450 256S363.367 63 256.5 63 63 149.409 63 256s86.633 193 193.5 193" clip-rule="evenodd"/><path fill="#000" fill-rule="evenodd" d="M450 256c0 106.591-86.633 193-193.5 193S63 362.591 63 256 149.633 63 256.5 63 450 149.409 450 256" clip-rule="evenodd"/><path fill="#10F3A1" d="M148.72 235.683c-9.737-9.447-16.563-21.667-16.563-36.146v-1.54c.803-24.748 20.678-44.669 44.87-45.388h153.982c4.015.205 7.228 3.081 7.228 7.291v133.288c3.512.617 5.218 1.13 8.632 2.363 2.711 1.027 6.424 3.183 6.424 3.183V159.9c-.201-12.631-10.038-22.797-22.384-22.797H176.926c-33.225.514-59.926 28.342-59.926 62.434 0 19.819 8.833 36.762 23.288 48.674.506.415.987.881 1.674 1.242.675.355 1.55.607 2.843.607 4.517 0 7.729-3.697 7.529-7.702-.097-3.257-1.399-4.522-3.371-6.438z"/><path fill="#10F3A1" d="M326.994 301.916H206.238c-8.131.103-14.656 6.778-14.656 15.095v17.765c.201 8.216 7.027 15.198 15.158 15.198h8.933v-15.198h-8.933v-17.353h4.918c15.258 0 26.501 14.478 26.501 29.984 0 13.76-12.247 31.319-32.724 29.882-18.169-1.232-28.006-17.765-28.006-29.882v-150.54c0-6.777-5.421-12.323-12.046-12.323h-12.045v15.404h8.934v147.561c-.09 5.36.519 10.244 1.708 14.651 5.462 20.249 23.153 30.43 41.455 30.43l121.66.41c24.492 0 44.367-20.332 44.367-45.491 0-13.112-5.426-24.942-14.091-33.264l-.002-.002-.001-.001-.153-.147c-7.942-7.556-18.571-12.179-30.221-12.179m29.309 46.518c-.501 16.122-13.45 29.06-29.31 29.06l-84.62-.308c6.725-8.009 10.84-18.381 10.84-29.677 0-17.764-10.338-29.984-10.338-29.984h84.218c16.161 0 29.31 13.451 29.31 29.984zm-61.834-145.712h-91.044v-15.403h91.044c4.115 0 7.529 3.389 7.529 7.702 0 4.21-3.313 7.701-7.529 7.701"/><path fill="#10F3A1" d="M310.53 238.969H203.425v-15.403h107.004c4.116 0 7.529 3.389 7.529 7.702.1 4.21-3.313 7.701-7.428 7.701m-16.061 36.248h-91.044v-15.404h91.044c4.115 0 7.529 3.389 7.529 7.702 0 4.21-3.313 7.702-7.529 7.702"/><path fill="#10F3A1" fill-rule="evenodd" d="M353.293 159.797v138.937s-3.713-2.156-6.424-3.183c-3.414-1.233-5.12-1.746-8.632-2.363V159.9c0-4.21-3.213-7.086-7.228-7.291H177.027c-24.192.719-44.067 20.64-44.87 45.388v1.54c0 14.479 6.826 26.699 16.563 36.146l.243.237c1.972 1.916 3.274 3.181 3.371 6.438.2 4.005-3.012 7.702-7.529 7.702-1.293 0-2.168-.252-2.843-.607l-.15-.111c-.252-.191-.493-.395-.873-.715l-.249-.211c-6.023-5.032-12.146-11.809-16.061-18.997-4.618-8.626-7.629-18.484-7.629-29.985 0-34.092 26.701-61.921 59.926-62.434h153.983c12.346 0 22.183 10.166 22.384 22.797m4.075 154.445zl.002.002zm-153.943-111.52h91.044c4.216 0 7.529-3.491 7.529-7.701 0-4.313-3.414-7.702-7.529-7.702h-91.044zm0 36.247H310.53c4.115 0 7.528-3.491 7.428-7.701 0-4.313-3.413-7.702-7.529-7.702H203.425z" clip-rule="evenodd"/></svg>