<svg xmlns="http://www.w3.org/2000/svg" fill="none" viewBox="0 0 512 512"><path fill="#10F3A1" fill-rule="evenodd" d="M256 512c141.385 0 256-114.615 256-256S397.385 0 256 0 0 114.615 0 256s114.615 256 256 256m.5-63C363.367 449 450 362.591 450 256S363.367 63 256.5 63 63 149.409 63 256s86.633 193 193.5 193" clip-rule="evenodd"/><path fill="#000" fill-rule="evenodd" d="M450 256c0 106.591-86.633 193-193.5 193S63 362.591 63 256 149.633 63 256.5 63 450 149.409 450 256" clip-rule="evenodd"/><path fill="#10F3A1" d="M195.848 276.31c8.806 0 16.943-2.924 23.492-7.986l-53.756-53.561a37.4 37.4 0 0 0-8.025 23.412c-.112 21.039 17.054 38.141 38.283 38.141zm159.922-38.258c0-8.777-2.934-16.874-8.019-23.4l-53.756 53.555a37.73 37.73 0 0 0 23.492 7.991c21.116.112 38.283-16.99 38.283-38.14z"/><path fill="#10F3A1" d="m382.877 179.886-23.833 23.739a53.53 53.53 0 0 1 12.651 34.655c0 29.816-24.279 54.006-54.208 54.006-13.216 0-25.303-4.721-34.791-12.602l-26.084 25.99-26.091-25.99a54 54 0 0 1-34.785 12.609c-29.929 0-54.208-24.197-54.208-54.013 0-13.165 4.744-25.204 12.651-34.655l-23.833-23.739A145.9 145.9 0 0 0 109 256.056C109 337.294 175.066 403 256.5 403c81.427 0 147.493-65.824 147.493-146.944a143.06 143.06 0 0 0-21.116-76.17"/><path fill="#10F3A1" d="M363.336 154.57a147.1 147.1 0 0 0-48.661-33.729A147.5 147.5 0 0 0 256.605 109c-42.01 0-79.84 17.553-106.724 45.57a177 177 0 0 0-10.387 12.04L256.5 283.176l117-116.678a100 100 0 0 0-10.164-11.928m-106.731-26.441c34.568 0 66.643 13.276 90.699 37.467l-90.699 90.348-90.686-90.348c24.168-24.191 56.131-37.467 90.693-37.467z"/></svg>
