<svg xmlns="http://www.w3.org/2000/svg" fill="none" viewBox="0 0 512 512"><path fill="#10F3A1" fill-rule="evenodd" d="M256 512c141.385 0 256-114.615 256-256S397.385 0 256 0 0 114.615 0 256s114.615 256 256 256m.5-63C363.367 449 450 362.591 450 256S363.367 63 256.5 63 63 149.409 63 256s86.633 193 193.5 193" clip-rule="evenodd"/><path fill="#000" fill-rule="evenodd" d="M450 256c0 106.591-86.633 193-193.5 193S63 362.591 63 256 149.633 63 256.5 63 450 149.409 450 256" clip-rule="evenodd"/><path fill="#10F3A1" d="M199.685 384V128.058H155V384zm122.126-.058-97.908-127.971L321.811 128h55.947l-96.455 127.971 96.455 127.971z"/></svg>