<svg xmlns="http://www.w3.org/2000/svg" fill="none" viewBox="0 0 512 512"><path fill="#10F3A1" fill-rule="evenodd" d="M256 512c141.385 0 256-114.615 256-256S397.385 0 256 0 0 114.615 0 256s114.615 256 256 256m.5-63C363.367 449 450 362.591 450 256S363.367 63 256.5 63 63 149.409 63 256s86.633 193 193.5 193" clip-rule="evenodd"/><path fill="#000" fill-rule="evenodd" d="M450 256c0 106.591-86.633 193-193.5 193S63 362.591 63 256 149.633 63 256.5 63 450 149.409 450 256" clip-rule="evenodd"/><path fill="#10F3A1" d="M150.46 145h217.08c4.12 0 7.46 3.344 7.46 7.468V220.2c0 4.125-3.34 7.468-7.46 7.468h-25.502c-2.963 0-5.619-1.769-6.957-4.414-14.151-27.967-42.786-47.252-75.919-47.252-47.13 0-85.298 38.332-85.298 85.335s38.168 85.666 85.298 85.666c32.487 0 61.079-18.661 75.23-45.979 1.354-2.613 3.994-4.357 6.935-4.357h26.209c4.12 0 7.459 3.343 7.459 7.468v66.397c0 4.125-3.339 7.468-7.459 7.468H150.46c-4.12 0-7.46-3.343-7.46-7.468V152.468c0-4.124 3.34-7.468 7.46-7.468"/></svg>
