<svg xmlns="http://www.w3.org/2000/svg" fill="none" viewBox="0 0 512 512"><path fill="#10F3A1" fill-rule="evenodd" d="M256 512c141.385 0 256-114.615 256-256S397.385 0 256 0 0 114.615 0 256s114.615 256 256 256m.5-63C363.367 449 450 362.591 450 256S363.367 63 256.5 63 63 149.409 63 256s86.633 193 193.5 193" clip-rule="evenodd"/><path fill="#000" fill-rule="evenodd" d="M450 256c0 106.591-86.633 193-193.5 193S63 362.591 63 256 149.633 63 256.5 63 450 149.409 450 256" clip-rule="evenodd"/><path fill="#10F3A1" d="m156.816 254.668.158 58.015 49.479 29.008v33.965l-78.435-45.832v-92.121zm0-58.015v33.807L128 213.478v-33.807l28.816-16.983 28.956 16.983zm70.301-16.982 28.815-16.983 28.957 16.983-28.957 16.982z"/><path fill="#10F3A1" d="M178.222 300.86v-34.014l28.733 17.007v33.856zm49.338 53.276 28.733 17.008 28.874-17.008v33.857L256.293 405l-28.733-17.007zm98.815-174.44 28.733-17.008 28.874 17.008v33.856l-28.874 17.008v-33.857zm28.733 133.207.159-58.1L384 237.796v92.255l-78.211 45.899v-34.015z"/><path fill="#10F3A1" d="m334.222 300.475-28.444 16.937v-34.033l28.444-17.097z"/><path fill="#10F3A1" d="m334.064 208.147.158 34.017-49.339 29.053v58.244l-28.652 16.851-28.652-16.851v-58.244l-49.339-29.053v-34.017l28.775-17.008 49.041 29.192 49.338-29.192 28.793 17.008zm-155.842-58.086L256.073 104l77.991 46.061-28.652 17.008-49.339-29.193-49.198 29.193z"/></svg>
