<svg xmlns="http://www.w3.org/2000/svg" fill="none" viewBox="0 0 512 512"><path fill="#10F3A1" fill-rule="evenodd" d="M256 512c141.385 0 256-114.615 256-256S397.385 0 256 0 0 114.615 0 256s114.615 256 256 256m.5-63C363.367 449 450 362.591 450 256S363.367 63 256.5 63 63 149.409 63 256s86.633 193 193.5 193" clip-rule="evenodd"/><path fill="#000" fill-rule="evenodd" d="M450 256c0 106.591-86.633 193-193.5 193S63 362.591 63 256 149.633 63 256.5 63 450 149.409 450 256" clip-rule="evenodd"/><path fill="#10F3A1" d="M244.088 394.922c3.745 0 6.781-3.041 6.781-6.792s-3.036-6.792-6.781-6.792-6.781 3.041-6.781 6.792 3.036 6.792 6.781 6.792m116.314-13.584c3.652 0 6.781 3.134 6.781 6.792s-3.129 6.792-6.781 6.792h-97.015c-3.651 0-6.781-3.135-6.781-6.792s3.13-6.792 6.781-6.792zM116.82 369.843c3.745 0 6.781-3.041 6.781-6.792s-3.036-6.792-6.781-6.792-6.78 3.041-6.78 6.792 3.036 6.792 6.78 6.792m96.494-13.584c3.651 0 6.781 3.135 6.781 6.792s-3.13 6.792-6.781 6.792h-79.803c-3.651 0-6.78-3.134-6.78-6.792s3.129-6.792 6.78-6.792zm178.905 0c3.651 0 6.781 3.135 6.781 6.792s-3.13 6.792-6.781 6.792H233.656c-3.651 0-6.78-3.134-6.78-6.792s3.129-6.792 6.78-6.792zm-29.73-25.078c3.651 0 6.78 3.135 6.78 6.792s-3.129 6.792-6.78 6.792H167.936c-3.651 0-6.781-3.135-6.781-6.792s3.13-6.792 6.781-6.792zm-215.938 13.584c3.745 0 6.781-3.041 6.781-6.792s-3.036-6.792-6.781-6.792-6.781 3.041-6.781 6.792 3.036 6.792 6.781 6.792m175.254-38.14c3.651 0 6.78 3.135 6.78 6.792s-3.129 6.792-6.78 6.792H127.252c-3.651 0-6.78-3.135-6.78-6.792s3.129-6.792 6.78-6.792zm-218.024 13.584c3.745 0 6.78-3.041 6.78-6.792s-3.035-6.792-6.78-6.792S97 309.666 97 313.417s3.036 6.792 6.781 6.792m42.77-25.078c3.745 0 6.781-3.041 6.781-6.792s-3.036-6.792-6.781-6.792-6.781 3.041-6.781 6.792 3.036 6.792 6.781 6.792m234.715-13.584c3.651 0 6.781 3.134 6.781 6.792s-3.13 6.792-6.781 6.792H169.501c-3.651 0-6.781-3.135-6.781-6.792s3.13-6.792 6.781-6.792zm-76.74-132.75c44.962 19.088 74.937 66.127 71.531 113.848-80.387 0-160.775.682-241.162-.682 0-32.041 10.9-64.764 34.063-87.261 34.062-34.768 90.605-45.675 135.568-25.905M186.781 420.584c3.745 0 6.78-3.041 6.78-6.792s-3.035-6.792-6.78-6.792-6.781 3.041-6.781 6.792 3.036 6.792 6.781 6.792M303.095 407c3.651 0 6.781 3.135 6.781 6.792s-3.13 6.792-6.781 6.792h-97.016c-3.651 0-6.78-3.135-6.78-6.792s3.129-6.792 6.78-6.792z"/></svg>