<svg xmlns="http://www.w3.org/2000/svg" fill="none" viewBox="0 0 256 256"><path fill="#000" fill-rule="evenodd" d="M128 256c70.692 0 128-57.308 128-128S198.692 0 128 0 0 57.308 0 128s57.308 128 128 128m-.051-49.763c-2.917-.154-5.424 2.104-5.629 5.03-.204 2.925 2.098 5.44 5.015 5.645a5.356 5.356 0 0 0 5.628-4.978c.154-2.977-2.098-5.491-5.014-5.697m9.517-63.38c6.345-3.233 14.123-.667 17.346 5.748.051.051.051.051.051.103 3.173 6.415.563 14.113-5.782 17.294-6.344 3.234-14.122.668-17.346-5.747-3.223-6.364-.665-14.165 5.731-17.398m-13.815 18.732c3.888-6.005 2.251-14.01-3.736-17.962a12.93 12.93 0 0 0-17.909 3.746c-3.94 6.005-2.251 14.011 3.736 17.962a12.8 12.8 0 0 0 7.061 2.104c4.4.052 8.443-2.155 10.848-5.85m-3.633 18.321c.204-4.208 3.786-7.441 7.982-7.185 4.196.206 7.419 3.849 7.164 8.006-.205 4.208-3.787 7.39-7.983 7.185s-7.419-3.798-7.163-8.006m39.041 1.027c-3.172 1.642-4.451 5.542-2.814 8.724s5.526 4.465 8.699 2.822c3.172-1.59 4.451-5.491 2.865-8.673-1.637-3.181-5.526-4.516-8.75-2.873m11.257 28.585c-1.023-2.053-.204-4.619 1.842-5.645 2.098-1.078 4.606-.206 5.629 1.898 1.023 2.053.205 4.568-1.842 5.594s-4.605.206-5.629-1.847m32.85-44.341a5.34 5.34 0 0 0-7.368 1.54 5.377 5.377 0 0 0 1.535 7.39 5.34 5.34 0 0 0 7.368-1.54c1.638-2.463.922-5.799-1.535-7.39m-36.278-15.293c2.251-3.541 6.959-4.516 10.49-2.207 3.53 2.31 4.502 7.031 2.2 10.521-2.252 3.541-6.959 4.516-10.49 2.207-3.53-2.259-4.503-6.98-2.2-10.521m-7.726-34.898c-7.113-.41-13.253 5.081-13.611 12.215-.41 7.133 5.065 13.291 12.178 13.651h.716c7.113 0 12.895-5.8 12.895-12.984.051-6.826-5.322-12.522-12.178-12.882m36.892 6.415a6.443 6.443 0 0 1 6.089 6.826c-.205 3.541-3.275 6.312-6.805 6.107a6.44 6.44 0 0 1-6.089-6.826c.204-3.592 3.223-6.312 6.805-6.107m23.947 2.207c-2.303-.154-4.298 1.642-4.401 3.952s1.638 4.311 3.94 4.413c2.303.154 4.247-1.642 4.401-3.951a4.22 4.22 0 0 0-3.94-4.414m-15.248-39.978c1.33 2.617.307 5.85-2.303 7.185-2.661 1.334-5.833.256-7.215-2.361-1.279-2.617-.256-5.8 2.354-7.133 2.61-1.335 5.833-.308 7.164 2.309m-35.051 11.29c-3.735 1.9-5.27 6.467-3.377 10.213s6.447 5.286 10.183 3.387 5.27-6.466 3.377-10.213-6.447-5.234-10.183-3.387m-2.558-22.221c-1.945 2.976-5.987 3.797-8.955 1.847-3.019-1.95-3.837-5.953-1.842-8.98 1.945-2.977 5.987-3.798 8.955-1.848s3.786 6.004 1.842 8.98m4.247-20.99c1.944 1.283 4.503.718 5.782-1.232s.716-4.516-1.228-5.799c-1.945-1.283-4.503-.718-5.782 1.18-1.228 1.95-.665 4.568 1.228 5.85m-38.274-6.98c-.205 2.926-2.712 5.184-5.629 5.03-2.916-.206-5.168-2.72-5.014-5.697a5.356 5.356 0 0 1 5.628-4.978c2.917.206 5.22 2.72 5.015 5.645m-5.68 38.542c4.196.256 7.778-2.977 7.982-7.185a7.55 7.55 0 0 0-7.163-8.006c-4.196-.257-7.778 2.977-7.982 7.185s2.967 7.8 7.163 8.006m8.648 29.047c-5.987-3.901-7.624-11.906-3.736-17.91 2.405-3.645 6.448-5.851 10.797-5.851 2.507 0 4.963.718 7.061 2.104 5.987 3.9 7.624 11.906 3.735 17.91-3.888 6.005-11.871 7.647-17.857 3.747m-34.897-4.927a12.94 12.94 0 0 0 11.564 7.134c7.112 0 12.894-5.8 12.894-12.984 0-2.002-.46-4.003-1.381-5.85-3.224-6.416-11.002-8.982-17.346-5.749-6.396 3.285-8.955 11.085-5.731 17.449m-4.35 33.615c-7.112-.411-12.587-6.518-12.178-13.652.359-6.876 6.038-12.265 12.895-12.265 7.163-.051 12.945 5.748 12.945 12.933a12.87 12.87 0 0 1-12.894 12.984zm-18.215-32.691c3.53 2.309 8.238 1.334 10.489-2.207 2.303-3.541 1.33-8.262-2.2-10.52-3.53-2.31-8.238-1.335-10.49 2.206-2.302 3.49-1.33 8.211 2.2 10.521M99.806 66.39c1.586 3.182.307 7.083-2.865 8.674s-7.062.307-8.648-2.874-.307-7.083 2.866-8.673c3.172-1.591 7.061-.308 8.647 2.873M83.842 52.124c2.046-1.027 2.865-3.593 1.842-5.646s-3.582-2.874-5.629-1.847c-2.047 1.026-2.865 3.54-1.842 5.594 1.024 2.104 3.53 2.976 5.629 1.898m-23.64 37.155a5.34 5.34 0 0 1-7.368 1.54c-2.457-1.591-3.173-4.927-1.536-7.39a5.34 5.34 0 0 1 7.369-1.54 5.377 5.377 0 0 1 1.535 7.39M36.46 124.023c-2.303-.154-4.299 1.642-4.4 3.951-.103 2.31 1.637 4.311 3.94 4.414 2.302.154 4.246-1.642 4.4-3.952s-1.638-4.259-3.94-4.413m17.397 3.797c.205-3.592 3.224-6.312 6.805-6.107a6.474 6.474 0 0 1 6.09 6.826c-.205 3.592-3.224 6.312-6.806 6.107a6.44 6.44 0 0 1-6.09-6.826m32.44 33.256c3.736-1.899 5.271-6.467 3.378-10.213s-6.447-5.286-10.183-3.387-5.27 6.466-3.377 10.213 6.447 5.286 10.183 3.387m-35.1 11.29a5.36 5.36 0 0 1 2.353-7.185c2.61-1.334 5.833-.256 7.164 2.361a5.36 5.36 0 0 1-2.354 7.185 5.33 5.33 0 0 1-7.164-2.361m46.614 9.084c-2.968-1.95-7.01-1.129-8.955 1.847-1.944 2.977-1.126 7.031 1.842 8.981s7.01 1.129 8.955-1.847c1.995-2.977 1.177-7.031-1.842-8.981m-19.035 24.017c1.28-1.898 3.838-2.463 5.782-1.18s2.507 3.9 1.177 5.799c-1.28 1.899-3.838 2.464-5.782 1.181-1.893-1.283-2.456-3.849-1.177-5.8" clip-rule="evenodd"/></svg>
