<svg xmlns="http://www.w3.org/2000/svg" fill="none" viewBox="0 0 256 256"><path fill="#fff" d="M128 256c70.692 0 128-57.308 128-128S198.692 0 128 0 0 57.308 0 128s57.308 128 128 128"/><path fill="#033DF5" d="M178.106 58.286q-1.025-.03-1.712.102c-2.724.516-5.47.972-8.178 1.565q-10.08 2.205-20.123 4.565-1.285.303-2.545.644a967 967 0 0 0-18.643 5.252c-2.174.635-4.506 1.285-6.104 1.824-10.198 3.442-20.304 7.138-30.257 11.23a73 73 0 0 0-3.764 1.665 301 301 0 0 0-9.441 4.74c-8.93 4.673-17.553 9.901-25.206 16.47a55.7 55.7 0 0 0-8.048 8.534q-.967 1.272-1.306 1.797c-1.161 1.801-2.334 3.914-3.256 6.284q-.024.061-.067.04-.76-1.731-1.224-3.937-.23-1.093-.227-1.883c.005-1.257-.036-2.568.135-3.761.313-2.175.977-4.268 1.827-6.34.501-1.223 1.153-2.373 1.802-3.518a31 31 0 0 1 2.41-3.63c4.684-6.078 10.63-10.965 16.968-15.268 5.034-3.418 10.274-6.439 15.653-9.29a281 281 0 0 1 8.995-4.564 80 80 0 0 1 4.26-1.915c10.09-4.188 20.358-7.948 30.715-11.433q1.013-.34 3.382-1.015c.456-.128 1.155-.388 1.748-.544q.552-.144.705-.19a935 935 0 0 1 19.126-5.385 77 77 0 0 1 2.546-.642 1574 1574 0 0 1 18.955-4.304c2.768-.612 5.446-1.076 8.177-1.594q1.602-.306 2.379-.283c5.996.163 9.299 7.084 5.708 11.808q-1.92 2.526-5.39 2.976"/><path fill="#607DF4" d="M178.106 58.286q2.963.354 4.846 2.334c2.556 2.684 2.735 6.804.385 9.68q-1.898 2.323-5.186 2.784a8.7 8.7 0 0 0-2.12.166c-1.821.351-4.984.863-7.684 1.457a1485 1485 0 0 0-19.998 4.54 79 79 0 0 0-2.547.641 924 924 0 0 0-19.408 5.467q-.145.041-.607.159c-.505.128-1.145.371-1.49.473-1.232.36-2.472.712-3.68 1.115a488 488 0 0 0-29.51 10.927 87 87 0 0 0-4.94 2.192 240 240 0 0 0-9.541 4.856q-.756.406-1.519.797c-1.7.867-3.36 1.827-5.016 2.772-6.421 3.659-12.557 7.825-18.141 12.654a56 56 0 0 0-7.966 8.487c-1.056 1.39-1.883 2.82-2.77 4.313q-.862 1.455-1.727 3.764a19 19 0 0 1-1.345-4.463c-.174-1.022-.132-2.121-.127-3.192a16 16 0 0 1 .145-2.145c.156-1.088.404-1.999.659-2.955.18-.677.444-1.301.647-1.963a.2.2 0 0 0-.01-.148q.043.021.067-.04c.922-2.37 2.095-4.483 3.256-6.284q.338-.525 1.306-1.797a55.7 55.7 0 0 1 8.048-8.534c7.653-6.569 16.275-11.797 25.206-16.47a301 301 0 0 1 9.441-4.74 73 73 0 0 1 3.764-1.665c9.953-4.092 20.059-7.788 30.257-11.23 1.598-.54 3.93-1.189 6.104-1.824a967 967 0 0 1 18.643-5.252q1.26-.34 2.545-.644a1338 1338 0 0 1 20.123-4.565c2.708-.593 5.454-1.049 8.178-1.565q.686-.13 1.712-.102"/><path fill="#AFBCFA" d="M178.151 73.084q1.851.225 3.162 1.02c5.552 3.36 4.639 11.53-1.669 13.447q-.306.093-1.531.33-1.038-.038-1.394.03c-2.875.542-5.774 1.022-8.631 1.65a1642 1642 0 0 0-19.933 4.51 54 54 0 0 0-1.75.45 932 932 0 0 0-19.899 5.594c-1.957.574-3.909 1.118-5.535 1.66a493 493 0 0 0-29.278 10.798 102 102 0 0 0-6.248 2.777 258 258 0 0 0-10.64 5.464c-4.61 2.504-9.108 5.142-13.457 8.064q-4.728 3.177-9.468 7.263a53 53 0 0 0-5.486 5.485q-.183.213-.752.849-1.144 1.28-2.832 3.729-.388.564-1.63 2.742c-.457.802-.87 1.697-1.221 2.56q-.222.546-.485 1.107a19.7 19.7 0 0 1-1.271-4.119c-.244-1.243-.192-2.347-.187-3.551a15 15 0 0 1 .146-2.115c.16-1.094.411-1.962.644-2.874.181-.713.471-1.396.681-2.09q.864-2.309 1.727-3.764c.887-1.493 1.714-2.923 2.77-4.313a56 56 0 0 1 7.965-8.487c5.585-4.829 11.72-8.995 18.142-12.654 1.656-.945 3.317-1.905 5.016-2.772a87 87 0 0 0 1.519-.797 240 240 0 0 1 9.54-4.856 87 87 0 0 1 4.94-2.192 488 488 0 0 1 29.511-10.927c1.208-.403 2.448-.754 3.68-1.115.345-.102.985-.345 1.49-.473q.462-.117.607-.159a924 924 0 0 1 19.408-5.467 79 79 0 0 1 2.547-.64q9.983-2.34 19.998-4.54c2.7-.595 5.863-1.107 7.684-1.458a8.7 8.7 0 0 1 2.12-.166"/><path fill="#F5F3E7" d="M178.113 87.881c2.693.345 4.814 1.662 6.037 3.996 2.325 4.437-.349 9.658-5.228 10.626q-.382.077-.783.175-.965-.074-1.42.013c-2.809.537-5.647.998-8.439 1.612a1501 1501 0 0 0-19.767 4.475q-1.288.301-2.545.64a881 881 0 0 0-18.343 5.151q-.325.094-1.625.456-.813.227-1.618.481c-1.266.397-2.598.774-3.798 1.176-10.333 3.465-20.575 7.231-30.639 11.403q-1.26.522-2.398 1.057a243 243 0 0 0-12.378 6.266c-.348.19-.814.407-1.208.633q-.855.49-.89.508c-7.618 4.146-14.796 8.808-21.125 14.31q-4.38 3.805-7.748 8.188a35 35 0 0 0-3.87 6.366c-.285.601-.556 1.336-.85 2.007a18.8 18.8 0 0 1-1.35-4.541c-.163-.99-.114-2.068-.11-3.107q.004-1.186.142-2.144.192-1.36.43-2.114c.2-.637.334-1.231.583-1.891q.198-.524.301-1.01.263-.561.485-1.107c.35-.863.764-1.758 1.221-2.56q1.242-2.178 1.63-2.742 1.688-2.45 2.832-3.729.569-.636.752-.849a53 53 0 0 1 5.486-5.485q4.74-4.086 9.468-7.263c4.35-2.922 8.847-5.56 13.457-8.064a258 258 0 0 1 10.64-5.464 102 102 0 0 1 6.248-2.777 493 493 0 0 1 29.278-10.798c1.626-.542 3.578-1.086 5.535-1.66a932 932 0 0 1 19.899-5.593 54 54 0 0 1 1.75-.451 1642 1642 0 0 1 19.933-4.51c2.857-.629 5.756-1.108 8.631-1.65q.356-.067 1.394-.03"/><path fill="#EB3724" d="M178.139 102.678c6.794.68 9.321 9.051 3.947 13.215q-1.37 1.06-3.201 1.401c-2.792.517-5.6 1.009-8.372 1.62a1262 1262 0 0 0-19.899 4.553 86 86 0 0 0-2.544.646 749 749 0 0 0-23.614 6.815q-1.257.385-2.492.82a674 674 0 0 0-11.832 4.305 374 374 0 0 0-18.435 7.473l-1.857.833q-.977.44-1.841.877a204 204 0 0 0-7.47 3.983.2.2 0 0 0-.074.085 1 1 0 0 0-.093.045 115 115 0 0 0-4.434 2.603q-.066.04-.075.087a.14.14 0 0 0-.075.02 114 114 0 0 0-10.022 6.854l-1.662 1.328c-.824.642-1.579 1.365-2.36 2.056q-1.504 1.33-4.32 4.421c-.463.509-.886 1.06-1.31 1.598-1.28 1.669-2.522 3.6-2.949 5.673-.182.883-.127 1.81-.12 2.721q.005.84.169 1.443c.62 2.274 2.355 4.511 4.046 6.113a32 32 0 0 0 3.708 3.3c3.49 2.65 7.235 4.969 11.09 7.058a33 33 0 0 0 2.353 1.152 249 249 0 0 0 17.195 6.869q1.203.429 2.494.813a521 521 0 0 0 18.279 5.085q1.253.323 2.557.602a1133 1133 0 0 0 16.741 3.428q1.283.252 2.583.456 8.61 1.351 17.235 2.59a76 76 0 0 0 2.604.326q10.015 1.072 20.034 2.097 1.086.112 1.537.351c1.145.607 1.456 2.181.646 3.245-.671.881-1.437.906-2.441.839a4294 4294 0 0 1-22.937-1.589 74 74 0 0 1-2.617-.236 3219 3219 0 0 1-20.981-2.363 63 63 0 0 1-2.6-.355 1165 1165 0 0 1-18.028-2.979 58 58 0 0 1-2.577-.508c-6.069-1.348-12.133-2.74-18.151-4.3a55 55 0 0 1-2.524-.718c-5.625-1.742-11.216-3.628-16.706-5.754a37 37 0 0 1-2.41-1.032 128 128 0 0 1-9.954-5.253q-3.632-2.126-6.217-4.208-1.311-1.056-3.158-2.981-2.871-2.994-4.502-5.94c-1.12-2.021-1.829-3.888-2.286-6.118-.267-1.31-.224-2.596-.195-3.887q.027-1.22.219-2.323.312-1.8.737-3.005.414-1.178.5-1.508c.294-.671.565-1.406.85-2.007a35 35 0 0 1 3.87-6.366q3.369-4.383 7.748-8.188c6.329-5.502 13.507-10.164 21.126-14.31q.034-.018.889-.508c.394-.226.86-.443 1.208-.633a243 243 0 0 1 12.378-6.266 56 56 0 0 1 2.398-1.057c10.064-4.172 20.306-7.938 30.639-11.403 1.2-.402 2.532-.779 3.798-1.176q.805-.254 1.618-.481 1.3-.362 1.625-.456 9.143-2.675 18.343-5.151a78 78 0 0 1 2.545-.64 1501 1501 0 0 1 19.767-4.475c2.792-.614 5.63-1.075 8.439-1.612q.455-.087 1.42-.013"/><path fill="#033DF5" d="M91.697 143.526q.4.134.769.265.432.155.772.256a544 544 0 0 0 19.178 5.344 58 58 0 0 0 2.556.601 1311 1311 0 0 0 17.163 3.508q.993.197 1.442.266a1965 1965 0 0 0 18.059 2.721q.622.092 1.248.159 10.66 1.155 21.328 2.241 1.019.105 1.43.319.723.376.993 1.177c.455 1.337-.329 2.678-1.727 2.951q-.263.053-.977.003a7537 7537 0 0 1-22.791-1.591 72 72 0 0 1-2.615-.235q-10.57-1.149-21.13-2.374a65 65 0 0 1-2.602-.354 1147 1147 0 0 1-18.224-3.012c-2.744-.475-5.47-1.173-8.184-1.791q-6.15-1.397-12.261-2.949c-1.867-.475-3.757-1.115-5.635-1.678q-.015-.005-.017-.022a.03.03 0 0 0-.017-.027.2.2 0 0 1 .074-.085 204 204 0 0 1 7.47-3.983q.864-.438 1.841-.877z"/><path fill="#607DF4" d="M75.853 152.039c5.125 2.262 10.361 4.294 15.632 6.196q1.213.438 2.492.819a523 523 0 0 0 18.334 5.101q1.254.326 2.555.602a1164 1164 0 0 0 17.399 3.559 42 42 0 0 0 1.756.317q8.448 1.305 16.907 2.541 1.296.19 2.603.331 10.342 1.122 20.692 2.173.975.099 1.415.329c1.671.877 1.46 3.452-.457 4.048q-.386.119-1.201.066a4070 4070 0 0 1-23.167-1.613 69 69 0 0 1-2.616-.238 4260 4260 0 0 1-21.153-2.375 46 46 0 0 1-1.93-.262 1280 1280 0 0 1-18.182-3.007 59 59 0 0 1-2.578-.505 644 644 0 0 1-16.775-3.928 76 76 0 0 1-6.141-1.783c-.21-.07-.464-.109-.689-.182a349 349 0 0 1-9.453-3.225 169 169 0 0 1-5.54-2.09 114 114 0 0 1 10.022-6.854.14.14 0 0 1 .075-.02"/><path fill="#AFBCFA" d="M64.094 160.241a101 101 0 0 0 7.458 4.538 42 42 0 0 0 3.291 1.61q8.192 3.6 16.617 6.626 1.204.435 2.49.818a502 502 0 0 0 18.558 5.161q1.239.318 2.555.599 13.512 2.877 17.874 3.648 4.044.714 18.451 2.783 1.297.186 2.604.327 10.112 1.083 20.231 2.119.915.093 1.297.272c1.379.639 1.689 2.588.558 3.593-.807.718-1.566.61-2.52.547a6692 6692 0 0 1-22.384-1.551 69 69 0 0 1-2.616-.235q-9.57-1.043-19.135-2.136a118 118 0 0 1-5.091-.668 1100 1100 0 0 1-17.861-2.958c-2.7-.47-5.381-1.161-8.052-1.768a481 481 0 0 1-12.096-2.906 54 54 0 0 1-2.528-.707 270 270 0 0 1-16.9-5.793 32 32 0 0 1-2.48-1.064 182 182 0 0 1-7.246-3.68l-1.065-1.1c.424-.538.847-1.089 1.31-1.598q2.816-3.09 4.32-4.421c.781-.691 1.536-1.414 2.36-2.056"/><path fill="#F5F3E7" d="m56.104 168.316 1.065 1.1c3.955 4.024 9.196 7.281 14.252 10.073a45 45 0 0 0 3.68 1.818 257 257 0 0 0 17.109 6.755q.895.318 1.22.414a562 562 0 0 0 18.651 5.205q1.256.327 2.555.605a1011 1011 0 0 0 17.064 3.5q1.281.252 2.586.456 8.476 1.327 16.971 2.555 1.289.187 2.605.329a3986 3986 0 0 0 20.413 2.14q.907.093 1.308.297c1.811.922 1.459 3.605-.5 4.104q-.344.087-1.061.039-11.477-.77-22.947-1.594a71 71 0 0 1-2.616-.236 3095 3095 0 0 1-21.06-2.367 66 66 0 0 1-2.602-.355q-8.912-1.395-17.799-2.937a60 60 0 0 1-2.579-.503 542 542 0 0 1-18.293-4.315 50 50 0 0 1-2.527-.71c-5.675-1.757-11.314-3.658-16.852-5.801-3.507-1.356-6.38-3.03-9.497-4.622-1.691-1.602-3.426-3.839-4.046-6.113q-.165-.603-.17-1.443c-.006-.911-.061-1.838.121-2.721.427-2.073 1.668-4.004 2.949-5.673"/></svg>