<svg xmlns="http://www.w3.org/2000/svg" fill="none" viewBox="0 0 256 256"><path fill="url(#paint0_radial_9892_1973)" d="M128 256c70.692 0 128-57.308 128-128S198.692 0 128 0 0 57.308 0 128s57.308 128 128 128"/><path fill="#363333" fill-rule="evenodd" d="M115.44 106.807c2.613-5.412 5.304-10.79 8.462-15.976.589-.966 1.222-1.909 2.18-2.637 1.747-1.327 3.799-1.213 5.354.296.703.681 1.188 1.486 1.658 2.3 6.413 11.11 11.594 22.675 16.327 34.407q.073.186.139.376l.009.025c.197.558.397 1.122 1.006 1.529q.085-.023.174-.043c.133-.03.269-.061.384-.123l.257-.138c.445-.238.892-.476 1.294-.762 7.417-5.269 14.002-11.182 18.573-18.673.58-.95.711-1.859.53-2.885-.494-2.805-1.25-5.538-2.564-8.14-.613-1.214-.494-2.345.4-3.485.971-1.238 1.616-2.65 2.147-4.082.798-2.154-.158-3.997-1.104-5.821a25 25 0 0 1-.774-1.58c-.416-.962-.636-1.7-.203-2.697.774-1.782 1.491-3.622.513-5.555-.908-1.796-2.039-3.479-3.273-5.112-.637-.842-1.484-1.343-2.825-1.504-.039 2.828-.573 5.552-1.107 8.274l-.209 1.07c-.176.911.448 1.52 1.455 1.855.817.27 1.628.596 2.36 1.012.804.457 1.465 1.082 1.081 2.05-.39.986-1.139 1.607-2.386 1.658-1.486.06-2.216-.617-2.629-1.84-.48-1.42-1.32-1.563-2.484-.566-2.678 2.292-5.807 3.246-9.337 1.923-4.421-1.656-6.308-5.147-7.594-8.954-.094-.28-.029-.61.033-.924q.017-.082.031-.16c.074-.402.163-.803.253-1.203.161-.72.323-1.441.388-2.168.067-.742.213-1.481.358-2.221.347-1.763.694-3.526-.026-5.319-.518-1.288-1.045-2.576-1.646-3.835-2.12-4.438-4.679-8.68-7.239-12.923-1.251-2.074-2.502-4.148-3.702-6.246-.124-.215-.238-.437-.353-.659-.438-.848-.88-1.703-1.84-2.266-1.218-.716-2.228-.513-2.828.629a197 197 0 0 1-1.26 2.35l-.001.003q-.3.552-.598 1.107c-1.605 2.984-3.371 5.896-5.137 8.808-2.061 3.4-4.123 6.8-5.929 10.314-1.598 3.11-2.675 6.328-2.359 9.793.08.88.199 1.759.317 2.637l.003.017.042.316c.104.774.204 1.548.274 2.325.37 4.088-2.607 7.864-6.885 8.804-4.627 1.017-8.214-.631-10.31-4.768-1.63-3.215-2.239-6.612-2.248-10.115 0-.116.01-.237.02-.359.044-.498.09-1.02-.589-1.308-.589.088-.863.456-1.128.813q-.066.09-.134.177l-.034.043c-.814 1.034-1.628 2.07-2.383 3.137-5.476 7.738-6.535 15.617-.89 23.681.55.785.507 1.52.085 2.33-1.126 2.164-2.003 4.416-2.318 6.783-.05.369-.138.739-.226 1.111-.257 1.081-.516 2.171.173 3.291 4.764 7.745 11.316 14.1 19.207 19.423 1.293.872 2.132.678 2.692-.708 2.548-6.314 5.358-12.536 8.373-18.912m3.095 9.305c-.9 1.837-1.8 3.674-2.662 5.525-3.178 6.827-6.341 13.66-7.739 21.002l-.057.282c-.143.69-.292 1.407.225 1.961.421.452.721.96 1.018 1.465.247.418.493.834.805 1.215 3.366 4.093 6.735 8.184 10.183 12.222q.4.472.797.948c1.079 1.296 2.162 2.595 3.52 3.696 2.247 1.82 4.724 1.953 7.135.344a11.2 11.2 0 0 0 2.205-1.911c4.796-5.428 9.361-11.004 13.768-16.684.9-1.159 1.1-2.331.846-3.617a53.7 53.7 0 0 0-3.205-10.402c-4.045-9.617-8.599-19.048-13.505-28.342l-.126-.239-.113-.215c-.927-1.764-1.878-3.573-3.358-5.392-2.913 4.569-5.239 9.165-7.622 13.875l-.884 1.745q-.613 1.262-1.231 2.522m47.319 54.121c-.083-.888-.17-1.806-.368-2.754-3.215 2.881-5.794 6.045-8.349 9.18-1.686 2.068-3.362 4.125-5.204 6.078l.178.127.104.077c.142.104.24.176.349.23.316.154.637.307.973.417 4.95 1.628 10.02 2.3 15.312 1.768 7.498-.754 12.749-4.356 16.4-9.961 3.654-5.61 4.282-11.716 3.283-18.003q-.06-.38-.116-.762c-.208-1.389-.417-2.793-1.01-4.108-.825.062-1.397.413-1.956.756l-.054.033-.037.023a701 701 0 0 0-3.432 2.114l-.002.001c-2.321 1.436-4.642 2.871-6.999 4.259-1.161.683-1.451 1.478-1.367 2.64.285 3.896-.662 7.612-2.459 11.149-.64 1.261-1.425 2.49-2.726 3.49-.745-.667-1.085-1.404-1.492-2.286l-.054-.117-.056-.119c-.644-1.327-.777-2.737-.918-4.232m-75.477-.154c-.141 1.489-.275 2.892-.922 4.213l-.11.235c-.408.879-.75 1.612-1.498 2.276-1.305-.996-2.093-2.219-2.736-3.474-1.804-3.522-2.755-7.221-2.469-11.1.085-1.156-.206-1.947-1.372-2.628-2.366-1.381-4.696-2.81-7.025-4.239l-.002-.001v-.001q-1.72-1.056-3.446-2.104l-.091-.056c-.561-.341-1.135-.69-1.964-.752-.595 1.309-.805 2.706-1.013 4.088q-.056.382-.117.76c-1.003 6.258-.372 12.337 3.296 17.922 3.665 5.58 8.936 9.166 16.463 9.916 5.312.53 10.402-.139 15.37-1.759.338-.111.66-.262.977-.416.11-.053.208-.125.35-.229q.115-.085.283-.203c-1.848-1.945-3.531-3.992-5.224-6.051-2.564-3.121-5.153-6.271-8.38-9.138-.2.944-.286 1.857-.37 2.741" clip-rule="evenodd"/><path fill="#FFC94A" d="M152.564 183.171c.316.154.637.307.973.417 4.95 1.628 10.02 2.3 15.312 1.768 7.498-.754 12.749-4.356 16.4-9.961 3.654-5.61 4.282-11.716 3.283-18.003q-.06-.38-.116-.762c-.208-1.389-.417-2.793-1.01-4.108-.825.062-1.397.413-1.956.756l-.054.033-.037.023a701 701 0 0 0-3.432 2.114l-.002.001c-2.321 1.436-4.642 2.871-6.999 4.259-1.161.683-1.451 1.478-1.367 2.64.285 3.896-.662 7.612-2.459 11.149-.64 1.261-1.425 2.49-2.726 3.49-.745-.667-1.085-1.404-1.492-2.286l-.054-.117-.056-.119c-.644-1.327-.777-2.737-.918-4.232-.083-.888-.17-1.806-.368-2.754-3.215 2.881-5.794 6.045-8.349 9.18-1.686 2.068-3.362 4.125-5.204 6.078l.178.127.104.077c.142.104.24.176.349.23m-48.846-.212a8 8 0 0 1-.977.416c-4.968 1.62-10.058 2.289-15.37 1.759-7.527-.75-12.798-4.336-16.463-9.916-3.668-5.585-4.299-11.664-3.296-17.922q.06-.379.117-.76c.208-1.382.418-2.779 1.013-4.088.829.062 1.403.411 1.964.752l.091.056q1.726 1.048 3.445 2.104l.001.001.002.001c2.33 1.429 4.659 2.858 7.025 4.239 1.166.681 1.457 1.472 1.372 2.628-.286 3.879.665 7.578 2.469 11.1.642 1.255 1.43 2.478 2.736 3.474.748-.664 1.09-1.397 1.499-2.276q.053-.117.11-.235c.646-1.321.78-2.724.92-4.213.085-.884.172-1.797.37-2.741 3.228 2.867 5.817 6.017 8.382 9.138 1.692 2.059 3.375 4.106 5.223 6.051q-.168.118-.283.203c-.142.104-.24.176-.35.229"/><path fill="url(#paint1_linear_9892_1973)" d="M115.873 121.637c-3.178 6.827-6.341 13.66-7.739 21.002l-.057.282c-.143.69-.292 1.407.225 1.961.421.452.721.96 1.018 1.465.247.418.493.834.805 1.215 3.366 4.093 6.735 8.184 10.183 12.222q.4.472.797.948c1.079 1.296 2.162 2.595 3.52 3.696 2.247 1.82 4.724 1.953 7.135.344a11.2 11.2 0 0 0 2.205-1.911c4.796-5.428 9.361-11.004 13.768-16.684.9-1.159 1.1-2.331.846-3.617a53.7 53.7 0 0 0-3.205-10.402c-4.045-9.617-8.599-19.048-13.505-28.342l-.126-.239-.113-.215c-.927-1.764-1.878-3.573-3.358-5.392-2.913 4.569-5.239 9.165-7.622 13.875l-.884 1.745q-.613 1.262-1.231 2.522c-.9 1.837-1.8 3.674-2.662 5.525"/><path fill="url(#paint2_linear_9892_1973)" d="M115.44 106.807c2.613-5.412 5.304-10.79 8.462-15.976.589-.966 1.222-1.909 2.18-2.637 1.747-1.327 3.799-1.213 5.354.296.703.681 1.188 1.486 1.658 2.3 6.413 11.11 11.594 22.675 16.327 34.407q.073.186.139.376l.009.025c.197.558.397 1.122 1.006 1.529q.085-.023.174-.043c.133-.03.269-.061.384-.123l.257-.138c.445-.238.892-.476 1.294-.762 7.417-5.269 14.002-11.182 18.573-18.673.58-.95.711-1.859.53-2.885-.494-2.805-1.25-5.538-2.564-8.14-.613-1.214-.494-2.345.4-3.485.971-1.238 1.616-2.65 2.147-4.082.798-2.154-.158-3.997-1.104-5.821a25 25 0 0 1-.774-1.58c-.416-.962-.636-1.7-.203-2.697.774-1.782 1.491-3.622.513-5.555-.908-1.796-2.039-3.479-3.273-5.112-.637-.842-1.484-1.343-2.825-1.504-.039 2.828-.573 5.552-1.107 8.274l-.209 1.07c-.176.911.448 1.52 1.455 1.855.817.27 1.628.596 2.36 1.012.804.457 1.465 1.082 1.081 2.05-.39.986-1.139 1.607-2.386 1.658-1.486.06-2.216-.617-2.629-1.84-.48-1.42-1.32-1.563-2.484-.566-2.678 2.292-5.807 3.246-9.337 1.923-4.421-1.656-6.308-5.147-7.594-8.954-.094-.28-.029-.61.033-.924q.017-.082.031-.16c.074-.402.163-.803.253-1.203.161-.72.323-1.441.388-2.168.067-.742.213-1.481.358-2.221.347-1.763.694-3.526-.026-5.319-.518-1.288-1.045-2.576-1.646-3.835-2.12-4.438-4.679-8.68-7.239-12.923-1.251-2.074-2.502-4.148-3.702-6.246-.124-.215-.238-.437-.353-.659-.438-.848-.88-1.703-1.84-2.266-1.218-.716-2.228-.513-2.828.629a197 197 0 0 1-1.26 2.35l-.001.003q-.3.552-.598 1.107c-1.605 2.984-3.371 5.896-5.137 8.808-2.061 3.4-4.123 6.8-5.929 10.314-1.598 3.11-2.675 6.328-2.359 9.793.08.88.199 1.759.317 2.637l.003.017.042.316c.104.774.204 1.548.274 2.325.37 4.088-2.607 7.864-6.885 8.804-4.627 1.017-8.214-.631-10.31-4.768-1.63-3.215-2.239-6.612-2.248-10.115 0-.116.01-.237.02-.359.044-.498.09-1.02-.589-1.308-.589.088-.863.456-1.128.813q-.066.09-.134.177l-.034.043c-.814 1.034-1.628 2.07-2.383 3.137-5.476 7.738-6.535 15.617-.89 23.681.55.785.507 1.52.085 2.33-1.126 2.164-2.003 4.416-2.318 6.783-.05.369-.138.739-.226 1.111-.257 1.081-.516 2.171.173 3.291 4.764 7.745 11.316 14.1 19.207 19.423 1.293.872 2.132.678 2.692-.708 2.548-6.314 5.358-12.536 8.373-18.912"/><path fill="#7A7D77" fill-rule="evenodd" d="m111.716 70.726.003.017zm72.234 131.567c8.284-8.082 14.618-19.595 15.845-24.163 1.09-4.055 1.016-8.16.844-12.25-.184-4.374 1.152-8.259 3.74-11.922 1.5-2.127 2.835-4.348 4.162-6.565.8-1.336.383-1.957-1.268-1.871-3.144.164-6.259.551-9.19 1.658-1.822.688-2.301 1.358-2.13 3.066.097.963.224 1.924.35 2.885l.051.387c.118.901.232 1.802.319 2.705.808 8.402-.533 16.379-6.064 23.507-3.775 4.864-8.486 8.702-14.993 10.49-5.238 1.44-10.591 1.347-15.93.581-4.68-.671-9.085-2.077-13.004-4.496-2.056-1.269-2.288-2.476-.898-4.287.615-.803 1.252-1.593 1.889-2.383v-.001l.233-.288a114 114 0 0 0 1.607-2.03c5.905-7.68 12.23-15.054 20.307-21.086 6.002-4.482 12.326-8.569 19.363-11.735 4.017-1.806 8.143-3.332 12.576-4.134 1.206-.218 1.764-.707 1.493-1.9-.248-1.089-.675-2.1-1.184-3.096-.657-1.286-.624-2.488.104-3.798l.117-.209c2.351-4.226 4.704-8.453 6.359-12.954.386-1.05.313-1.896-.548-2.618-.61-.512-1.23-.245-1.822.01-.154.066-.307.132-.456.183-1.097.372-2.187.758-3.277 1.144-1.399.496-2.798.992-4.21 1.457-2.496.822-3.323.246-3.213-2.127l.002-.063.001-.022a1.3 1.3 0 0 1 .012-.188c.192-1.183.367-2.368.541-3.553l.034-.237c.398-2.71.796-5.42 1.376-8.108.648-3 1.205-6.04 1.155-9.08-.04-2.507-.046-4.967.294-7.467.061-.443.094-.918.128-1.4v-.001c.029-.414.058-.833.106-1.24.004-.041-.038-.086-.106-.157a3 3 0 0 1-.141-.16c-.718.376-1.247.93-1.771 1.477l-.013.013-.055.058-.031.032-.033.035-.026.026-.123.128c-7.309 7.475-13.53 15.642-19.548 23.944l-.469.647c-3.095 4.277-6.197 8.561-10.347 12.149-3.914 3.385-8.122 6.464-12.442 9.429l-.064.043-.059.04c-.53.359-1.03.698-.894 1.45.218 1.206.41 2.415.603 3.624l.001.007c.143.904.287 1.809.442 2.711.539 3.144.189 6.01-1.906 8.829-1.965 2.644-3.816 5.359-5.667 8.075-.84 1.232-1.68 2.465-2.531 3.691a37 37 0 0 1-7.026 7.599c-4.268 3.488-9.428 3.949-14.336 1.202-2.83-1.584-5.022-3.788-6.913-6.195-3.63-4.622-6.906-9.444-10.183-14.266l-.374-.551c-1.398-2.057-2.311-4.155-1.922-6.592.09-.564.165-1.13.24-1.697l.015-.113c.153-1.16.305-2.32.575-3.458.541-2.284.332-3.908-2.211-5.505-8.365-5.25-15.213-11.782-20.568-19.623-5.412-7.926-11.231-15.645-18.03-22.73q-.402-.422-.8-.851l-.053-.057c-1.175-1.263-2.358-2.534-3.896-3.528-.48.446-.604.861-.586 1.338.022.617.033 1.234.044 1.85.023 1.245.045 2.49.16 3.74.351 3.782.991 7.525 1.632 11.268.39 2.281.78 4.562 1.104 6.851.117.82.273 1.636.43 2.451.309 1.609.618 3.217.616 4.858-.002 1.601-.818 2.149-2.575 1.647-.8-.227-1.572-.524-2.346-.821l-.172-.066a43 43 0 0 0-1.21-.449 34 34 0 0 1-2.167-.866c-1.28-.546-2.562-1.091-3.974-1.365-1.036-.2-1.451.177-1.514 1.031-.065.887.23 1.709.527 2.533l.046.129.05.138c1.36 3.841 3.438 7.407 5.508 10.961l.088.15c1.184 2.032 1.772 3.925.38 6.024-.234.352-.353.769-.47 1.178v.002l-.014.045-.057.196c-.564 1.884-.347 2.225 1.71 2.739q.528.129 1.059.244h.001l.002.001q.368.08.736.166c7.962 1.871 14.892 5.543 21.528 9.706 7.737 4.853 14.906 10.267 20.63 17.023 2.777 3.279 5.5 6.594 8.223 9.91l.001.001.001.001.001.001.445.542q1.556 1.897 3.119 3.789c1.736 2.102 1.576 3.08-.797 4.67-.492.33-1.024.62-1.569.876-5.806 2.732-11.967 3.99-18.576 3.979-8.168-.013-14.963-2.743-20.335-7.938-8.23-7.957-11.117-17.475-9.369-28.112q.083-.498.17-.997c.27-1.557.538-3.11.515-4.702-.018-1.213-.567-1.958-1.826-2.412-2.162-.78-4.4-1.361-6.691-1.639-1.085-.132-2.193-.11-3.33-.078l-.227.006-.208.006c-.484.014-.973.026-1.467.026.205 1.078.63 1.903 1.143 2.684.39.594.8 1.179 1.207 1.764.622.891 1.243 1.782 1.802 2.703.357.587.745 1.164 1.136 1.74l.168.247c1.44 2.113 2.883 4.23 3.008 6.831l.004.071.067 1.389c.154 3.251.297 6.503.334 9.756.09 7.858 7.029 19.943 16.69 29.657 15.698 15.783 31.826 21.932 55.595 21.91 23.715-.022 39.514-6.373 55.441-21.91" clip-rule="evenodd"/><path fill="#363333" fill-rule="evenodd" d="M49.844 166.273c-.069-3.234-.746-6.338-2.716-9.141a211 211 0 0 1-3.271-4.808c-1.643-2.482-3.137-5.03-4.344-7.707-1.363-3.023-.094-5.678 4.799-5.45.98.046 1.957.145 2.934.243l.907.09c.38.036.856.055.931-.291.07-.321.173-.635.276-.949.311-.952.621-1.897-.018-2.991l-1.029-1.752-.002-.003c-2.582-4.392-5.167-8.788-7.062-13.466a15.5 15.5 0 0 1-1.043-4.251c-.463-4.403 4.215-8.32 10.154-6.373.876.287 1.754.569 2.687.869l.001.001 1.372.442q-.317-1.346-.638-2.652c-.462-1.892-.912-3.738-1.28-5.596-1.463-7.366-2.636-14.764-2.32-22.274.074-1.753.339-3.575 2.43-4.416 2.033-.818 3.975-.26 5.637.904 3.779 2.646 7.034 5.767 10.12 9.024a121 121 0 0 1 9.72 11.679c.184.25.388.489.621.764q.18.208.385.457c1.109-1.805 1.737-3.3.546-5.373-4.305-7.492-3.634-15.07.264-22.53C83.35 64.126 88.603 58.8 94.99 54.301a10.4 10.4 0 0 1 2.384-1.257c1.422-.529 2.764-.385 3.921.471 1.095.81 1.316 1.947.977 3.126a166 166 0 0 1-.988 3.27c-.398 1.284-.796 2.567-1.156 3.859-1.02 3.657-.624 7.234 1.008 10.702.462.984 1.001 2.112 2.504 1.766 1.408-.324 1.768-1.467 1.654-2.632-.128-1.31-.353-2.619-.618-3.915-.903-4.407.431-8.485 2.251-12.509 2.065-4.566 4.609-8.927 7.153-13.288 1.69-2.895 3.379-5.791 4.928-8.747a388 388 0 0 1 4.108-7.667c1.05-1.897 2.578-3.304 5.148-3.467 2.498-.159 4.076 1.05 5.223 2.82 1.63 2.51 3.013 5.13 4.397 7.749.843 1.596 1.686 3.192 2.585 4.763l.91 1.59.007.01c2.911 5.079 5.822 10.156 8.216 15.457 2.271 5.029 3.334 10.12 1.845 15.487-.204.735-.172 1.554-.068 2.314.138 1.007.722 1.867 1.936 2.058 1.201.189 1.764-.648 2.148-1.456.926-1.945 1.394-4 1.546-6.102.237-3.277-.777-6.37-1.789-9.457l-.102-.312-.091-.276c-.288-.882-.535-1.76-.559-2.679-.067-2.548 1.95-3.844 4.719-3.027 1.992.587 3.511 1.812 5.01 3.021l.063.051c6.548 5.28 11.78 11.37 14.355 18.987 2.149 6.357 2.001 12.636-1.7 18.548-1.141 1.821-.475 3.198.392 4.989l.146.304c.402-.5.789-.975 1.163-1.434l.001-.001.001-.001c.773-.949 1.491-1.83 2.178-2.732 5.095-6.687 10.751-12.938 17.876-18.05a7 7 0 0 1 1.572-.856c3.271-1.24 5.932.124 6.16 3.385.283 4.05.079 8.113-.396 12.157-.76 6.47-1.901 12.887-3.779 19.433.514-.165 1-.324 1.469-.478h.001c.956-.314 1.84-.604 2.735-.867 6.288-1.849 11.35 2.101 9.965 7.83-.919 3.803-2.84 7.271-4.757 10.732l-.001.003q-.323.582-.643 1.164a366 366 0 0 1-3.588 6.368c-.561.973-.216 1.856.128 2.734.089.229.179.457.252.687.129.407.539.391.928.376.095-.003.189-.007.277-.004.731.021 1.455-.056 2.181-.133 1.014-.108 2.029-.216 3.059-.054 3.242.511 4.51 2.481 3.331 5.207-1.64 3.794-4.046 7.228-6.447 10.655l-.019.028-.516.737c-2.252 3.223-3.651 6.591-3.583 10.433.036 2.028-.044 4.059-.124 6.089-.034.843-.943 4.726-1.973 8.259-8.446 28.983-39.446 50.48-76.396 50.48s-67.949-21.497-76.395-50.48c-1.179-4.044-2.34-8.461-2.294-10.715.025-1.179.05-2.358.024-3.532m149.951 11.857c-1.227 4.568-7.561 16.081-15.845 24.163-15.927 15.537-31.726 21.888-55.441 21.91-23.769.022-39.897-6.127-55.594-21.91-9.662-9.714-16.601-21.799-16.691-29.657-.037-3.253-.18-6.505-.334-9.756l-.067-1.389-.004-.071c-.125-2.601-1.568-4.718-3.008-6.831l-.168-.247a41 41 0 0 1-1.136-1.74c-.56-.921-1.18-1.812-1.802-2.703-.408-.585-.816-1.17-1.207-1.764-.514-.781-.938-1.606-1.143-2.684.494 0 .983-.012 1.467-.026l.207-.006.228-.006c1.137-.032 2.245-.054 3.33.078 2.292.278 4.53.859 6.691 1.639 1.26.454 1.808 1.199 1.826 2.412.023 1.592-.246 3.145-.515 4.702q-.087.5-.17.997c-1.748 10.637 1.14 20.155 9.369 28.112 5.372 5.195 12.167 7.925 20.335 7.938 6.61.011 12.77-1.247 18.576-3.979a12 12 0 0 0 1.569-.876c2.373-1.59 2.533-2.568.797-4.67a1607 1607 0 0 1-3.119-3.789l-.445-.542-.001-.001-.001-.001-.001-.001c-2.723-3.316-5.446-6.631-8.223-9.91-5.724-6.756-12.893-12.17-20.63-17.023-6.636-4.163-13.566-7.835-21.528-9.706q-.367-.085-.736-.166l-.002-.001h-.001a42 42 0 0 1-1.058-.244c-2.058-.514-2.275-.855-1.71-2.739l.056-.196.013-.045v-.002c.118-.409.237-.826.471-1.178 1.392-2.099.804-3.992-.38-6.024l-.088-.15c-2.07-3.554-4.147-7.12-5.508-10.961l-.05-.138-.046-.129c-.296-.824-.592-1.646-.527-2.533.063-.854.478-1.231 1.514-1.031 1.412.274 2.693.819 3.974 1.365.715.305 1.43.609 2.167.866.407.142.809.295 1.21.449l.172.066c.774.297 1.547.594 2.346.821 1.757.502 2.573-.046 2.575-1.647.002-1.641-.307-3.249-.616-4.858a51 51 0 0 1-.43-2.451c-.324-2.289-.714-4.57-1.104-6.851-.64-3.743-1.281-7.486-1.631-11.267-.116-1.251-.138-2.496-.16-3.74-.012-.617-.023-1.234-.045-1.852-.018-.476.105-.891.586-1.337 1.538.994 2.72 2.265 3.895 3.528l.054.057q.398.428.8.852c6.799 7.084 12.619 14.803 18.03 22.729 5.355 7.841 12.203 14.373 20.568 19.623 2.543 1.597 2.752 3.221 2.211 5.505-.27 1.138-.422 2.298-.575 3.458l-.015.113c-.075.567-.15 1.133-.24 1.697-.389 2.437.524 4.535 1.922 6.592l.374.551c3.277 4.822 6.553 9.644 10.183 14.266 1.891 2.407 4.083 4.611 6.913 6.195 4.908 2.747 10.068 2.286 14.336-1.202a37 37 0 0 0 7.026-7.599c.851-1.226 1.691-2.459 2.531-3.691 1.851-2.716 3.702-5.431 5.667-8.075 2.095-2.819 2.445-5.685 1.906-8.829-.155-.902-.299-1.807-.442-2.711l-.001-.007c-.193-1.209-.385-2.418-.603-3.624-.136-.752.364-1.091.894-1.45l.059-.04.064-.043c4.32-2.965 8.528-6.044 12.442-9.429 4.15-3.588 7.252-7.872 10.347-12.149l.469-.647c6.018-8.302 12.239-16.47 19.548-23.944l.123-.128.026-.026.033-.035.031-.032.055-.058.013-.013c.524-.548 1.053-1.1 1.771-1.476q.08.096.141.158c.068.072.11.117.106.158-.048.407-.077.826-.106 1.24v.002c-.034.481-.067.956-.128 1.399-.34 2.5-.334 4.96-.294 7.466.05 3.042-.507 6.081-1.155 9.081-.58 2.688-.978 5.398-1.376 8.108l-.034.237a238 238 0 0 1-.541 3.553c-.01.062-.011.125-.012.188l-.001.022-.002.063c-.11 2.373.717 2.949 3.213 2.127 1.412-.465 2.811-.961 4.21-1.457 1.09-.386 2.18-.772 3.277-1.144.149-.051.302-.117.456-.183.592-.255 1.212-.522 1.822-.01.861.722.934 1.568.548 2.618-1.655 4.501-4.008 8.728-6.359 12.954l-.117.209c-.728 1.31-.761 2.512-.104 3.798.509.996.936 2.007 1.184 3.096.271 1.193-.287 1.682-1.493 1.9-4.433.802-8.559 2.328-12.576 4.134-7.037 3.166-13.361 7.253-19.363 11.735-8.077 6.032-14.402 13.406-20.307 21.086a114 114 0 0 1-1.607 2.03l-.233.288v.001c-.637.79-1.274 1.58-1.889 2.383-1.39 1.811-1.158 3.018.898 4.287 3.919 2.419 8.324 3.825 13.004 4.496 5.339.766 10.692.859 15.93-.581 6.507-1.788 11.218-5.626 14.993-10.49 5.531-7.128 6.872-15.105 6.064-23.507a80 80 0 0 0-.319-2.705l-.051-.387c-.126-.961-.253-1.922-.35-2.885-.171-1.708.308-2.378 2.13-3.066 2.931-1.107 6.046-1.494 9.19-1.658 1.651-.086 2.068.535 1.268 1.871-1.327 2.217-2.662 4.438-4.162 6.565-2.588 3.663-3.924 7.548-3.74 11.922.172 4.09.246 8.195-.844 12.25m-75.893-87.3c-3.158 5.186-5.849 10.565-8.462 15.977-3.015 6.376-5.825 12.598-8.373 18.912-.56 1.386-1.399 1.58-2.692.708-7.891-5.323-14.443-11.678-19.207-19.423-.689-1.12-.43-2.21-.173-3.291.088-.372.176-.742.226-1.111.315-2.367 1.192-4.619 2.318-6.782.422-.811.465-1.546-.085-2.33-5.645-8.065-4.586-15.944.89-23.682.755-1.068 1.57-2.103 2.383-3.137l.034-.043q.068-.087.134-.177c.265-.357.54-.725 1.128-.813.678.289.633.81.59 1.308a4 4 0 0 0-.021.359c.009 3.503.618 6.9 2.248 10.115 2.096 4.137 5.683 5.785 10.31 4.768 4.278-.94 7.255-4.716 6.885-8.804-.07-.777-.17-1.551-.274-2.326l-.042-.315-.003-.016v-.001c-.118-.878-.237-1.756-.317-2.637-.316-3.465.761-6.683 2.359-9.793 1.806-3.515 3.868-6.914 5.929-10.314 1.766-2.912 3.532-5.824 5.137-8.808q.298-.555.598-1.107l.001-.002c.424-.782.847-1.565 1.26-2.351.6-1.142 1.61-1.345 2.828-.63.96.564 1.402 1.419 1.84 2.267.115.222.229.444.353.66 1.2 2.096 2.451 4.17 3.702 6.245 2.56 4.243 5.119 8.485 7.239 12.923.601 1.259 1.128 2.547 1.646 3.835.72 1.793.373 3.556.026 5.319-.145.74-.291 1.48-.358 2.22-.065.728-.227 1.448-.388 2.169-.09.4-.179.8-.253 1.203q-.014.079-.031.16c-.062.313-.127.645-.033.924 1.286 3.807 3.173 7.298 7.594 8.954 3.53 1.323 6.659.369 9.337-1.923 1.164-.997 2.004-.854 2.484.566.413 1.223 1.143 1.9 2.629 1.84 1.247-.05 1.996-.672 2.386-1.658.384-.968-.277-1.593-1.081-2.05-.732-.416-1.543-.741-2.36-1.012-1.007-.334-1.631-.944-1.455-1.856l.209-1.07c.534-2.72 1.068-5.445 1.107-8.273 1.341.16 2.188.662 2.825 1.504 1.234 1.633 2.365 3.316 3.273 5.112.978 1.933.261 3.773-.513 5.555-.433.997-.213 1.735.203 2.697.229.53.501 1.054.774 1.58.946 1.824 1.902 3.667 1.104 5.821-.531 1.432-1.176 2.844-2.147 4.082-.894 1.14-1.013 2.271-.4 3.484 1.314 2.603 2.07 5.336 2.564 8.141.181 1.026.05 1.935-.53 2.885-4.571 7.491-11.156 13.404-18.573 18.673-.402.286-.849.524-1.294.762l-.257.138a1.5 1.5 0 0 1-.384.123q-.09.02-.174.043c-.609-.407-.809-.971-1.006-1.529l-.009-.025q-.066-.19-.139-.376c-4.733-11.732-9.914-23.297-16.327-34.406-.47-.815-.955-1.62-1.658-2.301-1.555-1.509-3.607-1.623-5.354-.296-.958.728-1.591 1.67-2.18 2.637m-15.768 51.809c1.398-7.342 4.561-14.175 7.739-21.002a311 311 0 0 1 2.662-5.525q.618-1.26 1.231-2.522l.884-1.745c2.383-4.71 4.709-9.306 7.622-13.875 1.48 1.819 2.431 3.628 3.358 5.392l.113.215.126.239c4.906 9.294 9.46 18.725 13.505 28.342a53.7 53.7 0 0 1 3.205 10.402c.254 1.286.054 2.458-.846 3.617-4.407 5.68-8.972 11.256-13.768 16.684a11.2 11.2 0 0 1-2.205 1.911c-2.411 1.609-4.888 1.476-7.135-.344-1.358-1.101-2.441-2.4-3.52-3.696q-.396-.476-.797-.948c-3.448-4.038-6.817-8.129-10.183-12.222-.312-.381-.558-.797-.805-1.215-.297-.505-.597-1.013-1.018-1.465-.517-.554-.368-1.271-.225-1.961zm45.403 40.949a8 8 0 0 1-.973-.417c-.109-.054-.207-.126-.349-.23l-.104-.077-.178-.127c1.842-1.953 3.518-4.01 5.204-6.078 2.555-3.135 5.134-6.299 8.349-9.18.198.948.285 1.866.368 2.754.141 1.495.274 2.905.918 4.232l.056.119.054.117c.407.882.747 1.619 1.492 2.286 1.301-1 2.086-2.229 2.726-3.49 1.797-3.537 2.744-7.253 2.459-11.149-.084-1.162.206-1.957 1.367-2.64 2.357-1.388 4.678-2.823 6.999-4.259l.002-.001a701 701 0 0 1 3.432-2.114l.037-.023.054-.033c.559-.343 1.131-.694 1.956-.756.593 1.315.802 2.719 1.01 4.108q.057.382.116.762c.999 6.287.371 12.393-3.283 18.003-3.651 5.605-8.902 9.207-16.4 9.961-5.292.532-10.362-.14-15.312-1.768m-50.796-.213c.338-.111.66-.262.977-.416.11-.053.208-.125.35-.229q.115-.085.283-.203c-1.848-1.945-3.531-3.992-5.224-6.051-2.564-3.121-5.153-6.271-8.38-9.138-.2.944-.286 1.857-.37 2.741-.141 1.489-.275 2.892-.922 4.213l-.11.235c-.408.879-.75 1.612-1.498 2.276-1.305-.996-2.093-2.219-2.736-3.474-1.804-3.522-2.755-7.221-2.469-11.1.085-1.156-.206-1.947-1.372-2.628-2.366-1.381-4.696-2.81-7.025-4.239l-.002-.001v-.001q-1.72-1.056-3.446-2.104l-.091-.056c-.561-.341-1.135-.69-1.964-.752-.595 1.309-.805 2.706-1.013 4.088q-.056.382-.117.76c-1.003 6.258-.372 12.337 3.296 17.922 3.665 5.58 8.936 9.166 16.463 9.916 5.312.53 10.402-.139 15.37-1.759" clip-rule="evenodd"/><path fill="#363333" d="M112.319 206.978c-1.196-.962-2.128-1.939-2.668-3.113-.491-1.068-.577-2.214.463-3.131.971-.855 2.12-.806 3.314-.364 2.745 1.014 5.191 2.435 7.28 4.292 1.394 1.24 2.098 2.781.865 4.348-1.228 1.56-3.073 1.155-4.753.583-1.646-.561-3.031-1.518-4.501-2.615m25.819 3.059c2.02-.082 3.547-1.118 5.275-2.128 1.721-1.165 3.264-2.293 4.052-3.963.504-1.069.619-2.203-.424-3.127-.949-.84-2.146-.936-3.318-.497-3.261 1.224-6.113 2.965-8.303 5.453-.76.863-1.199 1.863-.54 2.926.694 1.12 1.902 1.391 3.258 1.336"/><defs><radialGradient id="paint0_radial_9892_1973" cx="0" cy="0" r="1" gradientTransform="rotate(-64.773 222.995 57.985)scale(239.325)" gradientUnits="userSpaceOnUse"><stop stop-color="#E6553F"/><stop offset="1" stop-color="#FFA08C"/></radialGradient><linearGradient id="paint1_linear_9892_1973" x1="128.014" x2="128.014" y1="76.717" y2="197.635" gradientUnits="userSpaceOnUse"><stop stop-color="#FE8A79"/><stop offset="1" stop-color="#A2A99A"/></linearGradient><linearGradient id="paint2_linear_9892_1973" x1="128" x2="128.008" y1="0" y2="138.531" gradientUnits="userSpaceOnUse"><stop stop-color="#FD9277"/><stop offset="1" stop-color="#E6605B"/></linearGradient></defs></svg>
