<svg xmlns="http://www.w3.org/2000/svg" fill="none" viewBox="0 0 256 256"><path fill="url(#paint0_linear_9225_919)" d="M255.934 123.886a128 128 0 0 1-35.981 93.157 128 128 0 0 1-141.885 28.816A127.998 127.998 0 0 1 128 0a128 128 0 0 1 127.934 123.886"/><path fill="#fff" d="m197.752 106.167-69.818-71.404-70.083 71.404 34.91 35.703 35.041-35.703 34.909 35.703z"/><path fill="#1F2333" d="M81.256 207.192c-3.1.095-6.18-.539-8.992-1.851-2.38-1.322-4.363-3.174-5.685-5.554-1.323-2.38-1.852-5.157-1.852-8.33v-27.504h7.934v27.768c0 2.645.661 4.628 2.116 6.083 1.587 1.454 3.702 2.248 6.48 2.248 2.644 0 4.892-.794 6.346-2.248a8.2 8.2 0 0 0 2.248-6.083v-27.768h7.934v27.504q0 4.76-1.983 8.33a13.2 13.2 0 0 1-5.686 5.554c-2.513 1.19-5.29 1.851-8.86 1.851"/><path fill="#1F2333" fill-rule="evenodd" d="M71.736 206.267c-2.645-1.323-4.629-3.438-6.083-5.951a18.5 18.5 0 0 1-1.984-8.859v-28.562h10.05v28.826c0 2.38.661 3.967 1.851 5.289 1.323 1.323 3.042 1.984 5.686 1.984s4.364-.661 5.554-1.984c1.322-1.322 1.983-2.909 1.983-5.289v-28.826h10.05v28.562c0 3.305-.661 6.347-2.116 8.859-1.322 2.645-3.438 4.496-6.082 5.951-2.645 1.322-5.818 1.983-9.389 1.983s-6.744-.661-9.388-1.983zm3.04-8.463a8.34 8.34 0 0 1-2.115-6.083v-27.768h-7.934v27.504c0 3.173.53 5.95 1.852 8.33s3.305 4.232 5.686 5.554a19.8 19.8 0 0 0 8.991 1.851c3.438 0 6.347-.661 8.86-1.851a13.2 13.2 0 0 0 5.686-5.554q1.983-3.57 1.983-8.33v-27.504h-7.934v27.768c0 2.645-.793 4.628-2.248 6.083-1.454 1.454-3.57 2.248-6.347 2.248s-4.892-.794-6.48-2.248" clip-rule="evenodd"/><path fill="#1F2333" d="M128.595 207.192c-3.174 0-6.083-.661-8.595-1.851-2.512-1.058-4.496-2.777-5.818-5.025-1.455-2.115-2.116-4.76-2.116-7.801v-1.719H120v1.719c0 2.644.661 4.495 2.248 5.686q2.38 1.983 6.347 1.983c2.777 0 4.76-.529 6.215-1.719 1.322-1.058 1.983-2.38 1.983-4.099a3.96 3.96 0 0 0-1.057-2.909 6.6 6.6 0 0 0-2.91-1.719c-1.322-.529-2.644-.926-4.495-1.323l-1.323-.264c-3.041-.661-5.553-1.455-7.669-2.512a12.3 12.3 0 0 1-4.76-3.967c-1.058-1.587-1.587-3.571-1.587-6.215 0-2.645.661-4.761 1.851-6.612a11.9 11.9 0 0 1 5.157-4.231c2.248-.926 4.893-1.455 7.934-1.455q4.562 0 7.934 1.587c2.512.926 4.363 2.512 5.686 4.628a13.23 13.23 0 0 1 1.983 7.537v1.851h-7.934v-1.851q0-2.38-.793-3.967a5.15 5.15 0 0 0-2.645-2.115c-1.322-.397-2.644-.662-4.231-.662-2.38 0-4.232.397-5.289 1.323-1.323.925-1.852 2.115-1.852 3.702 0 1.058.265 1.984.794 2.645.661.793 1.322 1.322 2.644 1.851.926.529 2.381.926 3.967 1.322l1.455.265c3.041.661 5.686 1.454 7.934 2.512 2.248.926 3.967 2.248 5.289 3.967 1.19 1.587 1.851 3.703 1.851 6.347s-.793 4.893-2.115 6.876a13.2 13.2 0 0 1-5.554 4.496c-2.38 1.19-5.157 1.719-8.463 1.719"/><path fill="#1F2333" fill-rule="evenodd" d="M111.008 189.738h9.918v2.777c0 2.38.661 3.966 1.983 4.892 1.322 1.058 3.174 1.719 5.686 1.719 2.645 0 4.496-.529 5.554-1.322a3.97 3.97 0 0 0 1.587-3.438c0-.926-.265-1.587-.662-2.116-.529-.529-1.322-1.058-2.644-1.454-1.058-.529-2.645-.926-4.364-1.323l-1.322-.264a38.4 38.4 0 0 1-7.802-2.645 13.23 13.23 0 0 1-5.289-4.231 12.04 12.04 0 0 1-1.587-6.744c0-2.645.661-5.157 1.984-7.141s3.305-3.57 5.686-4.628 5.289-1.586 8.33-1.586c3.174 0 5.951.528 8.463 1.719 2.645 1.057 4.496 2.644 5.95 4.892 1.587 2.248 2.248 5.025 2.248 8.198v2.91h-9.917v-3.042c0-1.454-.265-2.644-.793-3.306a3.98 3.98 0 0 0-2.116-1.719c-1.058-.396-2.38-.661-3.967-.661-2.248 0-3.703.397-4.628 1.19-.794.662-1.323 1.587-1.323 2.777 0 .926.265 1.587.662 2.116.396.529 1.057 1.058 1.983 1.322 1.058.529 2.38.926 3.967 1.323l1.322.264a39.8 39.8 0 0 1 8.199 2.645c2.38 1.057 4.231 2.38 5.686 4.231 1.322 1.851 1.983 4.231 1.983 7.008s-.661 5.29-2.116 7.405c-1.322 2.116-3.438 3.835-5.95 5.025a21.2 21.2 0 0 1-8.992 1.719 21.1 21.1 0 0 1-8.991-1.851c-2.645-1.322-4.761-3.041-6.348-5.422s-2.247-5.289-2.247-8.462zm31.736 11.239a11.9 11.9 0 0 0 1.983-6.876c0-2.644-.661-4.628-1.983-6.347a13.1 13.1 0 0 0-5.289-3.967 38.4 38.4 0 0 0-7.802-2.512l-1.322-.265c-1.719-.396-3.174-.793-4.232-1.322-1.058-.397-1.851-1.058-2.512-1.719a4.77 4.77 0 0 1-.794-2.645c0-1.719.662-2.909 1.719-3.834 1.323-.926 3.042-1.323 5.29-1.323 1.719 0 3.173.265 4.231.662 1.322.529 2.116 1.322 2.645 2.248.661.925 1.058 2.247 1.058 3.966v1.719h7.933v-1.851a13.2 13.2 0 0 0-2.115-7.537 11.9 11.9 0 0 0-5.554-4.628c-2.38-1.058-5.025-1.587-8.066-1.587s-5.686.529-7.934 1.455c-2.248 1.058-3.967 2.38-5.289 4.231-1.058 1.851-1.719 3.967-1.719 6.612q0 3.966 1.587 6.347c1.19 1.587 2.644 2.909 4.76 3.967q3.174 1.388 7.537 2.38l1.322.264c1.852.397 3.438.794 4.628 1.323a6.6 6.6 0 0 1 2.91 1.719c.661.793 1.057 1.719 1.057 2.909 0 1.719-.661 3.041-1.983 4.099-1.322 1.19-3.438 1.719-6.215 1.719-2.645 0-4.76-.661-6.347-1.851-1.587-1.323-2.38-3.306-2.38-5.818v-1.719h-7.934v1.719a13.75 13.75 0 0 0 7.934 12.826c2.644 1.322 5.553 1.851 8.727 1.851 3.306 0 6.083-.529 8.463-1.719a13.2 13.2 0 0 0 5.554-4.496z" clip-rule="evenodd"/><path fill="#1F2333" d="M158.876 206.267v-6.876h5.554v-28.298h-5.554v-7.008h17.455c5.686 0 9.917 1.454 12.958 4.363 2.909 2.91 4.364 7.141 4.364 12.827v7.934c0 5.686-1.322 10.049-4.364 12.958-3.041 2.777-7.272 4.232-12.958 4.232zm13.488-7.273h3.967c3.305 0 5.686-.793 7.14-2.512 1.455-1.72 2.248-3.967 2.248-7.141v-8.463c0-3.041-.793-5.421-2.248-7.14-1.454-1.587-3.835-2.513-7.008-2.513h-3.967z"/><path fill="#1F2333" fill-rule="evenodd" d="M157.818 207.324v-9.123h5.554v-26.182h-5.554v-9.124h18.513c5.818 0 10.446 1.586 13.619 4.628 3.306 3.173 4.761 7.801 4.761 13.62v7.934c0 5.95-1.455 10.578-4.761 13.752-3.173 3.041-7.801 4.495-13.619 4.495zm6.612-36.363v28.43h-5.554v7.008h17.455c5.686 0 9.917-1.322 12.958-4.232 2.909-2.909 4.364-7.272 4.364-12.958v-7.934c0-5.686-1.322-9.917-4.364-12.827-3.041-2.909-7.272-4.363-12.958-4.363h-17.455v7.008zm18.248 3.57c-1.323-1.322-3.174-2.248-6.215-2.248h-3.042v25.785h3.042c3.041 0 5.025-.793 6.215-2.115 1.322-1.455 1.983-3.571 1.983-6.48v-8.595q0-4.364-1.983-6.347m-6.215 24.463c3.173 0 5.554-.793 7.008-2.512 1.455-1.72 2.248-3.967 2.248-7.141v-8.463c0-3.041-.793-5.421-2.248-7.14-1.454-1.587-3.835-2.513-7.008-2.513h-3.967v27.769z" clip-rule="evenodd"/><defs><linearGradient id="paint0_linear_9225_919" x1="41.455" x2="184.529" y1="201.374" y2="74.3" gradientUnits="userSpaceOnUse"><stop offset=".1" stop-color="#C3EEE4"/><stop offset="1" stop-color="#2AC8A5"/></linearGradient></defs></svg>
