<svg xmlns="http://www.w3.org/2000/svg" fill="none" viewBox="0 0 256 256"><path fill="#0C6CF3" d="M128 256c70.692 0 128-57.308 128-128S198.692 0 128 0 0 57.308 0 128s57.308 128 128 128"/><path fill="#fff" d="M202.043 200.882c-25.336-2.765-47.784-8.674-65.919-18.223a6.305 6.305 0 0 1-2.875-8.097 6.3 6.3 0 0 1 1.906-2.467c17.603-13.748 27.949-31.458 27.949-52.426 0-16.931-9.405-30.66-35.102-30.66S92.9 102.739 92.9 119.67c0 20.968 10.355 38.697 27.949 52.426a6.3 6.3 0 0 1 2.397 5.546 6.31 6.31 0 0 1-3.366 5.018c-18.136 9.53-40.584 15.458-65.92 18.223-15.399 1.682-26.143-14.964-18.363-28.369L111.596 41.45c7.315-12.598 25.488-12.598 32.793 0l76.018 131.064c7.77 13.405-2.964 30.051-18.364 28.369m-68.94-52.967c.209-2.67 1.15-8.608 5.643-12.56 4.57-4.048 11.495-4.827 14.411-4.979a1.265 1.265 0 0 1 1.33 1.331c-.199 2.669-1.149 8.607-5.633 12.569-4.579 4.038-11.514 4.827-14.421 4.979a1.27 1.27 0 0 1-.965-.372 1.25 1.25 0 0 1-.365-.968m-10.202 0a1.26 1.26 0 0 1-.809 1.251c-.166.063-.344.09-.521.079-2.917-.142-9.842-.95-14.421-4.969-4.484-3.962-5.425-9.9-5.634-12.56a1.27 1.27 0 0 1 .362-.972 1.25 1.25 0 0 1 .968-.368c2.917.143 9.842.95 14.421 4.979 4.484 3.952 5.425 9.89 5.634 12.56"/></svg>
