<svg xmlns="http://www.w3.org/2000/svg" fill="none" viewBox="0 0 256 256"><path fill="#000" d="M128 256c70.692 0 128-57.308 128-128S198.692 0 128 0 0 57.308 0 128s57.308 128 128 128"/><path fill="url(#paint0_linear_9890_1947)" d="M128 256c70.692 0 128-57.308 128-128S198.692 0 128 0 0 57.308 0 128s57.308 128 128 128"/><path fill="#000" fill-rule="evenodd" d="M57.677 153.296c1.987 29.622 36.369 64.061 70.061 63.701 36.718-.392 70.585-33.03 70.585-63.963v-1.049c41.984-22.544 40.672-50.594 40.672-50.594l-50.38 31.457c39.622-30.409 39.097-63.701 39.097-63.701l-53.005 50.594C210.131 63.117 197.799 39 197.799 39l-41.985 68.158c-8.659-2.359-18.105-3.67-28.076-3.67h-1.05c-10.234 0-19.418 1.311-28.077 3.67L57.94 39s-13.907 22.02 21.255 78.906l-51.169-48.76s-4.985 29.361 36.999 61.867c0 .525-48.02-29.36-48.02-29.36s-1.312 28.05 40.673 50.594zm120.704 5.243s-12.071-.787-19.418 6.553c-6.822 6.816-6.56 19.399-6.56 19.399s12.071.787 19.418-6.553c7.61-7.078 6.56-19.399 6.56-19.399m-79.245 6.553c-7.085-7.602-19.418-6.553-19.418-6.553s-.787 12.583 6.56 19.399c7.085 7.602 19.418 6.553 19.418 6.553s.787-12.058-6.56-19.399" clip-rule="evenodd"/><path fill="#fff" d="M158.963 165.092c7.347-7.34 19.418-6.553 19.418-6.553s1.05 12.321-6.56 19.399c-7.347 7.34-19.418 6.553-19.418 6.553s-.262-12.583 6.56-19.399m-79.245-6.553s12.333-1.049 19.418 6.553c7.347 7.341 6.56 19.399 6.56 19.399s-12.333 1.049-19.418-6.553c-7.347-6.816-6.56-19.399-6.56-19.399"/><defs><linearGradient id="paint0_linear_9890_1947" x1="76.5" x2="254.593" y1="261.5" y2="46.678" gradientUnits="userSpaceOnUse"><stop stop-color="#FC0166"/><stop offset="1" stop-color="#E22084"/></linearGradient></defs></svg>
