<svg xmlns="http://www.w3.org/2000/svg" fill="none" viewBox="0 0 256 256"><g clip-path="url(#clip0_4193_3459)"><rect width="256" height="256" fill="#E6E6E6" rx="128"/><path fill="#fff" d="M135.061 143.763s-.258 5.474-9.268 5.474c-9.009 0-8.938-5.152-8.938-5.152 4.562-.322 6.364-1.545 8.938-5.152q.475.477.902.92c2.267 2.337 3.794 3.91 8.366 3.91m19.564-34.711c.768.515-.186 3.284-2.246 3.284-1.544 0-1.802-2.833-1.028-3.348.773-.515 2.506-.451 3.274.064m-64.614 0c.773.859-1.1 3.413-2.831 3.091s-2.06-2.833-1.287-3.606c.772-.773 3.346-.344 4.118.515m-.958-39.992s-1.8 2.061-2.83 3.091a10 10 0 0 0-.448.487c-.7.796-1.09 1.241-2.385-.487-3.604-4.636-9.596-17.967-9.596-23.892 0-2.576 1.874-3.413 3.933-1.352 2.355 1.963 3.812 4.226 6.195 7.93.744 1.154 1.577 2.45 2.557 3.92l.995 1.488c2.537 3.79 3.458 5.165 3.239 6.324-.125.659-.619 1.248-1.393 2.172l-.003.003-.012.014-.006.008q-.12.141-.246.294m81.605-23.184c.901 1.804-2.059 8.501-4.119 13.138a348 348 0 0 0-1.461 3.333l-.001.002a83 83 0 0 1-2.401 5.166c-.232.466-.44.906-.63 1.312-1.285 2.732-1.828 3.889-4.518.748a167 167 0 0 0-2.772-3.04c-1.664-1.788-1.933-2.077-1.603-2.627 2.318-3.864 12.357-16.23 14.158-18.032 1.03-1.03 2.832-1.03 3.347 0"/><path fill="#31C77F" d="M197.171 218.982c1.473-.709 9.267-4.637 9.267-4.637 10.604-6.366 23.634-13.219 32.761-17.556 11.98-17.834 20.016-38.541 22.857-60.869a287.7 287.7 0 0 0-87.538 42.361c-3.604 3.607-3.604 4.122-3.089 14.426l.025.299c.49 5.9.532 6.398 3.064 6.398 6.693 0 10.812 4.637 9.453 11.914 5.128.441 6.245 3.099 7.106 5.148v.001c.145.345.282.672.431.969 1.544 2.576 4.19 2.254 5.663 1.546"/><path fill="#31C77F" d="M176.577 204.041c3.604 1.03 4.119 3.091 2.06 8.243-1.545 2.576-1.545 3.607-1.03 4.122 1.03.515 2.059.515 3.604-.515 2.059-1.031 5.148.515 6.693 3.606 1.544 3.606-2.06 9.273-8.753 13.395-6.178 4.122-27.543 10.561-43.246 12.88 1.287-2.576-1.029-5.925-1.029-5.925 14.603-8.669 22.066-16.147 29.026-23.121l.834-.835c5.663-5.668 7.208-7.728 7.208-10.304q0-3.091 4.633-1.546M75.41 213.572s4.377 4.122 9.268 8.501c4.89 4.379 18.462 14.941 33.393 18.547 0 0-2.76 4.121.844 7.728-36.811 6.44-51.814-8.952-51.814-15.907 0-1.74 1.687-2.705 2.903-2.125s2.76.58 3.275 0 .843-2.061-2.246-5.152c-4.633-5.152-5.148-9.789-.515-13.395 1.267-1.268 2.016-.629 3.664.779.361.308.766.654 1.229 1.024m54.315 27.048c2.574 1.03 3.604 4.121 2.059 5.667-2.574 3.091-9.267 2.576-10.297-1.03-.514-3.607 4.119-6.183 8.238-4.637"/><path fill="#2E2E2E" fill-rule="evenodd" d="M174.003 27.33c-4.119 1.03-10.297 6.182-17.505 14.425a1686 1686 0 0 1-10.297 11.85c-3.089 3.606-3.345 3.71-6.178 2.575-7.723-3.09-23.683-2.576-33.98.516l-.549.16c-.8.237-1.386.411-1.958.376-1.565-.096-3.034-1.75-8.515-7.921l-.305-.343C79.271 30.936 75.152 27.329 68.974 27.329s-8.238 4.637-5.664 17.517c2.06 12.88 8.753 30.397 13.901 37.61q.296.367.536.66c.647.792 1.001 1.226 1.122 1.718.147.594-.049 1.273-.48 2.775l-.073.251-.043.153-.032.11c-2.06 9.273-2.574 13.394-2.06 20.607.589 6.946.515 12.45.466 16.104v.001c-.012.852-.022 1.603-.022 2.249 0 1.518.153 4.031.306 6.551v.001c.192 3.144.384 6.3.28 7.551-.186 2.254-1.544 8.759-1.544 8.759s-1.359 9.595-1.03 15.455c.329 5.861 0 14.941-1.03 20.608-.514 5.152-.514 7.213-.514 9.789 0 5.925-.515 9.016-2.575 10.046-7.722 2.576-9.782 9.016-7.208 17.259 1.03 3.091 1.33 4.701 0 6.698-1.03 1.545-1.358 2.64-1.358 5.216 0 2.834 2.717 6.59 3.933 8.179.607.793-.035 2.851-.83 4.712q2.021.878 4.072 1.694c.995-2.196 1.37-1.914 2.936-.739 5.148 3.091 13.9 5.152 24.713 5.152l17.505-1.546 8.496-1.03c4.633 1.546 7.722 1.03 10.554-1.288 22.396-3.091 31.405-5.925 44.276-11.592 2.27-.973 3.11-1.334 3.678-1.081.334.149.574.509.956 1.081l2.871 5.968a142 142 0 0 0 4.167-2.186l-.344-.688-.001-.003-3.604-7.728 1.544-1.545 3.089-4.122c2.06-3.606 3.604-4.121 10.297-6.182 5.664-1.546 11.544-6.478 17.445-9.789s16.284-8.243 16.284-8.243q2.716-3.54 5.21-7.252c-9.127 4.337-22.157 11.19-32.761 17.556 0 0-7.794 3.928-9.267 4.637s-4.119 1.03-5.663-1.546c-.149-.297-.286-.624-.431-.969v-.001c-.861-2.049-1.978-4.707-7.106-5.148 1.359-7.277-2.76-11.914-9.453-11.914-2.532 0-2.574-.498-3.064-6.398l-.025-.299c-.515-10.304-.515-10.819 3.089-14.426a287.7 287.7 0 0 1 87.538-42.361q.354-2.784.6-5.599a270 270 0 0 0-14 5.199 399 399 0 0 0-59.208 26.79c-4.118 2.061-11.841 7.728-16.99 12.365l-.078.053-.029.019-.031.021-.071.049-.001.001c-.357.244-.618.422-.81.365-.524-.155-.524-2.078-.524-9.266 0-10.338-.47-13.15-1.41-18.773l-.135-.805c-.672-3.026-.467-6.272-.243-9.809.119-1.882.243-3.846.243-5.904 0-1.956-.028-4.193-.056-6.452v-.003c-.058-4.58-.117-9.247.056-11.835l.018-.256.012-.185c.29-4.216 1.03-14.966-3.19-27.572 11.327-18.032 20.665-49.78 15.002-55.448-1.545-1.546-4.634-2.06-7.208-1.546m-8.238 39.154c-4.118 8.243-4.118 8.243-3.089 10.304.276.46.486.855.657 1.177.319.6.501.943.718.967.289.031.639-.503 1.454-1.747l.001-.001.065-.1.095-.145.099-.15c12.671-19.271 13.867-33.8 14.147-37.198l.013-.154q.042-.497.095-1.017c.283-2.879.604-6.132-2.155-7.742-3.089-1.803-9.525 3.349-18.793 13.653a8415 8415 0 0 1-13.386 16.486s-.772 1.03-1.543 1.288-1.802-.258-2.832-.773c-3.678-1.84-6.535-2.123-9.854-2.453h-.001l-1.215-.123c-9.782-1.03-20.079 0-26.772 3.607-2.06 1.03-3.089.515-4.12-1.546a503 503 0 0 1-10.81-13.91C77.21 34.027 71.548 29.39 67.943 30.936c-1.544 1.03-2.06 2.06-1.544 8.243.514 10.304 4.118 22.153 11.841 36.064.41.654.753 1.218 1.046 1.699l.002.002.001.002c1.551 2.543 1.69 2.77 2.555 1.903 1.45-1.452 1.234-1.901-.247-4.972-.36-.746-.794-1.648-1.297-2.756a134 134 0 0 1-7.208-16.486c-2.575-8.243-.515-12.88 4.118-10.82 2.06 1.031 8.238 8.244 13.386 16.487 2.06 3.606 2.575 4.121 3.605 4.121 3.089 0 2.574 1.03-.515 4.637Q83.647 80.653 81.33 96.88c-1.517 6.579-1.047 6.696 2.873 7.674l.216.055 16.99 3.606c3.091.515 3.488 1.288 3.348 2.061l-.006.033c-.137.763-.282 1.568-2.312.997-1.624-.457-1.806.045-2.19 1.1-.103.283-.221.606-.384.961-3.09 6.697-13.972 7.213-19.306-1.224 0 0-.515 10.884-.258 15.714.026.494.057 1.053.092 1.664.303 5.364.832 14.717-.093 18.879-1.03 7.728-1.544 14.426-1.03 19.062.516 4.122.587 8.952-1.029 17.517s-2.903 21.896 0 25.244c2.903 3.349 23.097 21.123 38.099 26.275l.075.032.061.027.102.043.287.125.194.084.03.013.014.006.003.001c1.412.614 2.041.886 2.63.818.471-.054.918-.327 1.722-.818l.545-.331q3.862-1.545 7.723 0l1.545.516 1.029-.516s18.135-12.042 24.127-18.289 11.398-13.138 10.883-15.714l-1.03-36.063s.701-11.528-.515-15.971c-1.215-4.444-1.803-8.308-1.029-17.774.773-9.467.773-24.472.773-24.472-6.693 13.91-17.505 8.758-19.049 1.03 0 0-1.544.258-2.575.258-1.03 0-1.029-1.803.257-2.318l16.99-4.637c2.076-.519 3.105-.777 3.55-1.432.438-.645.309-1.676.054-3.72-2.06-12.365-7.208-22.669-13.901-29.881-2.06-2.061-2.06-2.576-.515-4.637 3.299-5.533 7.049-9.748 11.464-14.71l.892-1.004c4.119-4.636 6.178-5.41 7.723-4.894 4.634 2.06 3.089 8.243-4.634 24.214m-79.543 5.667c1.03-1.03 2.831-3.09 2.831-3.09l.246-.295.006-.008.012-.014.003-.002c.774-.925 1.268-1.514 1.393-2.174.219-1.158-.701-2.533-3.24-6.323l-.994-1.489c-.98-1.47-1.813-2.765-2.557-3.92-2.383-3.703-3.84-5.966-6.195-7.93-2.059-2.06-3.933-1.223-3.933 1.353 0 5.925 5.992 19.256 9.596 23.892 1.295 1.728 1.686 1.283 2.385.487.135-.154.281-.32.447-.487m80.317-13.137c2.06-4.637 5.02-11.334 4.119-13.138-.515-1.03-2.317-1.03-3.347 0-1.801 1.803-11.84 14.168-14.158 18.032-.33.55-.061.839 1.603 2.627.676.727 1.582 1.701 2.772 3.04 2.69 3.14 3.233 1.984 4.518-.748q.284-.611.63-1.312a83 83 0 0 0 2.401-5.166l.001-.002c.362-.836.808-1.865 1.461-3.333m-79.36 53.129c1.731.322 3.605-2.232 2.832-3.091-.772-.859-3.346-1.288-4.118-.515s-.444 3.284 1.287 3.606m65.2.193c2.06 0 3.014-2.769 2.246-3.284s-2.501-.579-3.274-.064-.516 3.348 1.028 3.348m26.258 99.948c2.059-5.152 1.544-7.213-2.06-8.243q-4.633-1.545-4.633 1.546c0 2.576-1.545 4.636-7.208 10.304l-.834.835c-6.96 6.974-14.423 14.452-29.026 23.121 0 0 2.316 3.349 1.029 5.925 15.703-2.319 37.068-8.758 43.246-12.88 6.693-4.122 10.297-9.789 8.753-13.395-1.545-3.091-4.634-4.637-6.693-3.606-1.545 1.03-2.574 1.03-3.604.515-.515-.515-.515-1.546 1.03-4.122m-93.96 9.789c-4.89-4.379-9.266-8.501-9.266-8.501-.463-.37-.868-.716-1.229-1.024-1.648-1.408-2.397-2.047-3.664-.779-4.633 3.606-4.118 8.243.515 13.395 3.09 3.091 2.76 4.572 2.246 5.152-.515.58-2.06.58-3.275 0-1.216-.58-2.903.385-2.903 2.125 0 6.955 15.003 22.347 51.814 15.907-3.604-3.607-.844-7.728-.844-7.728-14.931-3.606-28.502-14.168-33.393-18.547m47.108 24.214c1.545-1.546.515-4.637-2.059-5.667-4.119-1.546-8.752 1.03-8.238 4.637 1.03 3.606 7.723 4.121 10.297 1.03" clip-rule="evenodd"/><path fill="#2E2E2E" fill-rule="evenodd" d="M125.021 113.946c-7.723-4.379-15.703 2.061-11.069 13.138-5.149 5.152-9.782 11.334-.258 16.679 0 0 .515 8.823 12.099 8.823s12.614-9.531 12.614-9.531c12.099-9.274-3.018-16.744-3.018-16.744 8.167-14.425-4.447-17.259-10.368-12.365m10.368 14.877c-3.089-1.546-3.089-2.061-1.544-5.152 4.601-9.209-5.477-12.043-8.566-5.861-5.406-5.266-10.998-.837-8.939 6.891.56 1.681.815 2.447.601 3.046-.18.502-.691.886-1.631 1.591-6.178 4.637-5.148 11.849 1.545 11.849 2.574 0 4.633-1.03 7.208-4.636.812-1.085 1.197-1.598 1.605-1.617.367-.016.752.369 1.484 1.101 4.633 5.152 6.693 6.183 9.782 4.637 5.148-2.576 4.633-8.758-1.545-11.849m-9.596 20.414c9.01 0 9.268-5.474 9.268-5.474-4.572 0-6.099-1.573-8.366-3.91a82 82 0 0 0-.902-.92c-2.574 3.607-4.376 4.83-8.938 5.152 0 0-.071 5.152 8.938 5.152" clip-rule="evenodd"/><path fill="#2E2E2E" d="M129.211 119.549c-1.216.966-1.544 4.637-.515 5.152 1.03.515 2.175-1.417 2.503-3.027s-.772-3.091-1.988-2.125m-9.782 1.031c-1.03 1.03-.071 3.928 1.473 4.701s2.317 0 2.131-1.61-2.574-4.122-3.604-3.091"/><path fill="#fff" fill-rule="evenodd" d="M89.053 69.06s-1.8 2.061-2.83 3.091a10 10 0 0 0-.448.487c-.7.796-1.09 1.241-2.385-.487-3.604-4.636-9.596-17.967-9.596-23.892 0-2.576 1.874-3.413 3.933-1.352 2.355 1.963 3.812 4.226 6.195 7.93.744 1.154 1.577 2.45 2.557 3.92l.995 1.488c2.537 3.79 3.458 5.165 3.239 6.324-.125.659-.619 1.248-1.393 2.172l-.003.003-.012.014-.006.008q-.12.141-.246.294m81.605-23.184c.901 1.804-2.059 8.501-4.119 13.138a348 348 0 0 0-1.461 3.333l-.001.002a83 83 0 0 1-2.401 5.166c-.232.466-.44.906-.63 1.312-1.285 2.732-1.828 3.889-4.518.748a167 167 0 0 0-2.772-3.04c-1.664-1.788-1.933-2.077-1.603-2.627 2.318-3.864 12.357-16.23 14.158-18.032 1.03-1.03 2.832-1.03 3.347 0m-80.647 63.176c.773.859-1.1 3.413-2.831 3.091s-2.06-2.833-1.287-3.606c.772-.773 3.346-.344 4.118.515m64.614 0c.768.515-.186 3.284-2.246 3.284-1.544 0-1.802-2.833-1.028-3.348.773-.515 2.506-.451 3.274.064m-28.832 40.185c9.01 0 9.268-5.474 9.268-5.474-4.572 0-6.099-1.573-8.366-3.91a82 82 0 0 0-.902-.92c-2.574 3.607-4.376 4.83-8.938 5.152 0 0-.071 5.152 8.938 5.152" clip-rule="evenodd"/><path fill="#fff" fill-rule="evenodd" d="M133.845 123.671c-1.545 3.091-1.545 3.606 1.544 5.152 6.178 3.091 6.693 9.273 1.545 11.849-3.089 1.546-5.149.515-9.782-4.637-.732-.732-1.117-1.117-1.484-1.101-.408.019-.793.532-1.605 1.617-2.575 3.606-4.634 4.636-7.208 4.636-6.693 0-7.723-7.212-1.545-11.849.94-.705 1.451-1.089 1.631-1.591.214-.599-.041-1.365-.601-3.046-2.059-7.728 3.533-12.157 8.939-6.891 3.089-6.182 13.167-3.348 8.566 5.861m-5.149 1.03c-1.029-.515-.701-4.186.515-5.152s2.317.515 1.988 2.125c-.328 1.61-1.473 3.542-2.503 3.027m-7.794.58c-1.544-.773-2.503-3.671-1.473-4.701 1.03-1.031 3.418 1.481 3.604 3.091s-.586 2.383-2.131 1.61" clip-rule="evenodd"/><path fill="#fff" fill-rule="evenodd" d="M162.676 76.788c-1.029-2.06-1.029-2.06 3.089-10.304 7.723-15.97 9.268-22.153 4.634-24.214-1.545-.515-3.604.258-7.723 4.894l-.892 1.004c-4.415 4.962-8.165 9.177-11.464 14.71-1.545 2.06-1.545 2.576.515 4.637 6.693 7.212 11.841 17.516 13.901 29.88.255 2.045.384 3.076-.054 3.721-.445.655-1.474.913-3.55 1.432l-16.99 4.637c-1.286.515-1.287 2.318-.257 2.318 1.031 0 2.575-.258 2.575-.258 1.544 7.728 12.356 12.88 19.049-1.03 0 0 0 15.005-.773 24.472-.774 9.466-.186 13.33 1.029 17.774 1.216 4.443.515 15.971.515 15.971l1.03 36.063c.515 2.576-4.891 9.467-10.883 15.714S132.3 236.498 132.3 236.498l-1.029.516-1.545-.516q-3.86-1.545-7.723 0l-.545.331c-.804.491-1.251.764-1.722.818-.589.068-1.218-.204-2.63-.818l-.003-.001-.014-.006-.03-.013-.194-.084-.287-.125-.102-.043-.061-.027-.075-.032c-15.002-5.152-35.196-22.926-38.099-26.275-2.903-3.348-1.616-16.679 0-25.244s1.545-13.395 1.03-17.517c-.515-4.636 0-11.334 1.03-19.062.924-4.162.395-13.515.092-18.879l-.093-1.664c-.256-4.83.26-15.714.26-15.714 5.333 8.437 16.216 7.921 19.305 1.224.163-.355.281-.678.384-.961.384-1.055.566-1.557 2.19-1.1 2.03.571 2.175-.234 2.312-.997l.006-.033c.14-.773-.257-1.546-3.348-2.061l-16.99-3.606-.216-.055c-3.92-.978-4.39-1.095-2.873-7.673q2.318-16.23 12.357-27.82c3.089-3.607 3.604-4.638.514-4.638-1.03 0-1.544-.515-3.603-4.121-5.149-8.243-11.327-15.456-13.386-16.486-4.634-2.061-6.694 2.576-4.12 10.819a134 134 0 0 0 7.209 16.486c.503 1.108.938 2.01 1.297 2.756 1.48 3.07 1.698 3.52.247 4.972-.865.866-1.004.64-2.555-1.903l-.001-.002-.002-.002c-.293-.481-.637-1.045-1.046-1.7-7.723-13.91-11.326-25.76-11.841-36.063-.515-6.182 0-7.213 1.544-8.243 3.604-1.546 9.267 3.091 20.594 15.97q5.284 7.05 10.812 13.911c1.03 2.06 2.059 2.576 4.119 1.546 6.693-3.607 16.99-4.637 26.772-3.607q.619.065 1.215.123h.001c3.319.33 6.176.613 9.854 2.453 1.03.515 2.061 1.03 2.832.773.771-.258 1.543-1.288 1.543-1.288q6.703-8.235 13.386-16.486c9.268-10.304 15.704-15.456 18.793-13.653 2.759 1.61 2.438 4.863 2.155 7.742q-.053.519-.095 1.017l-.013.154c-.28 3.399-1.476 17.927-14.147 37.197l-.099.151-.095.145-.065.1h-.001c-.815 1.245-1.165 1.78-1.454 1.748-.217-.024-.399-.367-.718-.968-.171-.321-.381-.716-.657-1.176m-48.724 50.296c-4.634-11.077 3.346-17.517 11.069-13.138 5.921-4.894 18.535-2.06 10.368 12.365 0 0 15.117 7.47 3.018 16.744 0 0-1.03 9.531-12.614 9.531s-12.099-8.823-12.099-8.823c-9.524-5.345-4.891-11.527.258-16.679" clip-rule="evenodd"/><path fill="#fff" d="M96.776 254.015c-10.812 0-19.565-2.061-24.713-5.152-1.565-1.175-1.941-1.457-2.936.739 16.195 6.441 33.858 9.982 52.348 9.982 22.884 0 44.502-5.424 63.637-15.057l-2.871-5.968c-.382-.572-.622-.932-.956-1.081-.568-.253-1.408.108-3.678 1.081-12.871 5.667-21.88 8.501-44.276 11.592-2.832 2.318-5.921 2.834-10.554 1.288l-8.496 1.03z"/></g><defs><clipPath id="clip0_4193_3459"><rect width="256" height="256" fill="#fff" rx="128"/></clipPath></defs></svg>
