<svg xmlns="http://www.w3.org/2000/svg" fill="none" viewBox="0 0 512 512"><path fill="#EDC29E" d="M512 256a256 256 0 0 1-74.981 181.019 255.997 255.997 0 0 1-362.038 0A256 256 0 1 1 437.019 74.981 256 256 0 0 1 512 256M35.609 342.25c34.953 88.365 118.916 147.933 214.432 150.26q.217.005.217-.213l.105-37.969a.387.387 0 0 0-.144-.296q-82.722-65.531-165.44-131.072c-1.718-1.359-2.278-3.003-2.287-5.312q-.177-61.197.004-122.402c.01-2.903.734-4.136 2.882-5.837A181111 181111 0 0 1 250.16 59.031a.41.41 0 0 0 .16-.334l-.043-38.977q0-.26-.265-.256-61.505 1.767-114.112 32.653C76.842 86.793 34.506 147.221 22.949 214.91c-7.3 42.752-3.315 86.962 12.66 127.34M262.202 59.26c54.886 43.621 109.928 87.054 164.932 130.531 1.901 1.502 2.365 3.055 2.365 5.594V317.57c0 2.838-.642 4.096-2.747 5.763q-82.25 65.159-164.494 130.322a.48.48 0 0 0-.195.399l-.013 38.113q0 .356.351.347a129 129 0 0 0 4.327-.152q56.27-2.708 105.086-30.119c89.249-50.108 136.107-151.799 116.356-252.12C466.848 101.844 372.66 22.35 262.297 19.499q-.23-.005-.234.226l-.044 39.163q0 .23.183.373M132.388 317.019c13.839 25.441 36.251 47.279 61.89 60.598q7.079 3.676 13.024 7.3 4.046 2.464 5.79 4.461c5.386 6.163 4.934 15.684 3.506 23.349a.36.36 0 0 0 .139.373l39.076 30.952a.31.31 0 0 0 .382 0l38.07-30.154a.35.35 0 0 0 .134-.373c-1.449-7.317-1.415-16.791 3.858-22.619 2.044-2.261 5.464-4.279 8.233-5.889q3.042-1.767 14.061-7.968c23.483-13.22 43.104-32.081 56.609-55.455 7.599-13.146 11.675-27.927 13.51-42.926 3.859-31.512 1.446-64.082-15.102-91.953q-19.478-32.805-52.53-51.857c-6.423-3.702-14.079-7.495-20.558-11.488-9.144-5.633-9.895-14.291-8.45-24.233a.35.35 0 0 0-.139-.356l-37.678-29.824q-.209-.16-.417 0l-38.178 30.17a.43.43 0 0 0-.169.387q.343 4.66.278 6.753c-.222 7.243-4.232 13.375-10.663 16.695q-13.854 7.152-17.316 9.149-20.52 11.84-37.857 30.496c-16.96 18.245-28.187 41.177-32.367 65.992-5.038 29.923-1.792 61.474 12.864 88.42"/><path fill="#000" d="M132.388 317.018c13.839 25.441 36.251 47.279 61.89 60.598q7.079 3.676 13.024 7.3 4.046 2.464 5.79 4.461c5.386 6.163 4.934 15.684 3.506 23.349a.36.36 0 0 0 .139.373l39.076 30.952a.31.31 0 0 0 .382 0l38.07-30.154a.35.35 0 0 0 .134-.373c-1.449-7.317-1.415-16.791 3.858-22.619 2.044-2.261 5.464-4.279 8.233-5.889q3.042-1.767 14.061-7.968c23.483-13.22 43.104-32.081 56.609-55.455 7.599-13.146 11.675-27.927 13.51-42.926 3.859-31.512 1.446-64.082-15.102-91.953q-19.478-32.805-52.53-51.857c-6.423-3.702-14.079-7.495-20.558-11.488-9.144-5.633-9.895-14.291-8.45-24.233a.35.35 0 0 0-.139-.356l-37.678-29.824q-.209-.16-.417 0l-38.178 30.17a.43.43 0 0 0-.169.387q.343 4.66.278 6.753c-.222 7.243-4.232 13.375-10.663 16.695q-13.854 7.152-17.316 9.149-20.52 11.84-37.857 30.496c-16.96 18.245-28.187 41.177-32.367 65.992-5.038 29.923-1.792 61.474 12.864 88.42"/><path fill="#000" d="M35.609 342.25c34.953 88.365 118.916 147.933 214.432 150.26q.217.005.217-.213l.105-37.969a.387.387 0 0 0-.144-.296q-82.722-65.531-165.44-131.072c-1.718-1.359-2.278-3.003-2.287-5.312q-.177-61.197.004-122.402c.01-2.903.734-4.136 2.882-5.837A181111 181111 0 0 1 250.16 59.031a.41.41 0 0 0 .16-.334l-.043-38.977q0-.26-.265-.256-61.505 1.767-114.112 32.653C76.842 86.793 34.506 147.221 22.949 214.91c-7.3 42.752-3.315 86.962 12.66 127.34M262.202 59.26c54.886 43.621 109.928 87.054 164.932 130.531 1.901 1.502 2.365 3.055 2.365 5.594V317.57c0 2.838-.642 4.096-2.747 5.763q-82.25 65.159-164.494 130.322a.48.48 0 0 0-.195.399l-.013 38.113q0 .356.351.347a129 129 0 0 0 4.327-.152q56.27-2.708 105.086-30.119c89.249-50.108 136.107-151.799 116.356-252.12C466.848 101.844 372.66 22.35 262.297 19.499q-.23-.005-.234.226l-.044 39.163q0 .23.183.373"/><path fill="#EDC29E" d="M272.634 340.489a.2.2 0 0 0-.12.069.2.2 0 0 0-.049.135q.014 11.375-.091 22.71c-.026 2.587-2.222 5.981-4.726 7.1q-1.324.59-4.101.595-6.536.017-13.068.004-1.532 0-4.049-1.454c-3.111-1.796-3.667-4.153-3.658-7.825q.03-10.52-.009-21.048 0-.238-.234-.273c-18.136-2.674-35.4-10.581-44.449-27.407q-4.839-8.991-6.028-17.849c-.673-5.013 2.33-8.146 7.148-8.129q7.538.03 15.068.009c3.48-.009 6.288 1.675 7.217 5.134q1.501 5.585 2.218 7.447c3.437 8.888 10.65 14.2 19.763 16.309q10.198 2.365 20.142 1.267c14.226-1.566 26.486-11.157 26.069-26.46-.295-11.079-6.141-16.578-16.14-19.985-9.456-3.22-18.01-4.557-28.257-6.115-22.84-3.467-46.18-11.748-49.826-38.329-.915-6.675-.95-13.35.651-19.79 5.286-21.239 24.837-33.421 45.473-36.064q.217-.031.217-.252.014-10.889.005-21.699c-.005-2.535 2.543-6.102 4.83-7.087q1.48-.635 4.956-.63 4.826.008 9.648.005 3.12 0 4.674.533c3.211 1.107 5.533 3.672 5.55 7.278q.052 11.28.091 22.559 0 .226.222.247c20.267 1.975 36.85 15.845 42.049 35.487 1.818 6.87.226 11.293-7.456 11.267q-6.336-.022-12.664-.018c-4.396.005-6.575-1.497-8.094-5.589-2.287-6.167-5.75-11.575-11.392-14.882-7.92-4.643-19.004-4.991-28.07-3.719-14.526 2.044-22.411 11.544-20.363 26.269 1.901 13.679 17.685 17.403 28.821 19.109 23.752 3.641 56.501 6.141 64.009 35.122q1.55 5.993 1.797 12.699c1.063 29.042-20.532 48.91-47.774 53.25"/></svg>