<svg xmlns="http://www.w3.org/2000/svg" fill="none" viewBox="0 0 256 256"><path fill="#EDC29E" d="M256 128a128 128 0 0 1-37.49 90.51 128.003 128.003 0 0 1-181.02 0A128.001 128.001 0 1 1 256 128M17.804 171.125c17.477 44.182 59.459 73.967 107.217 75.13q.108.002.108-.107l.052-18.984a.2.2 0 0 0-.019-.082.2.2 0 0 0-.052-.066Q83.748 194.25 42.39 161.48c-.86-.679-1.14-1.502-1.144-2.656q-.09-30.598.002-61.2c.005-1.453.367-2.069 1.441-2.92a91765 91765 0 0 1 82.39-65.189.2.2 0 0 0 .081-.167l-.022-19.488q0-.13-.133-.128-30.752.883-57.056 16.327C38.421 43.397 17.253 73.61 11.475 107.455c-3.65 21.376-1.658 43.481 6.33 63.67M131.101 29.63c27.443 21.81 54.964 43.527 82.466 65.266.95.75 1.183 1.527 1.183 2.797v61.092c0 1.419-.322 2.048-1.374 2.881l-82.247 65.161a.24.24 0 0 0-.098.2l-.006 19.056q0 .179.176.174a66 66 0 0 0 2.163-.076q28.135-1.354 52.543-15.059c44.624-25.054 68.053-75.9 58.178-126.06-10.661-54.14-57.755-93.887-112.936-95.312q-.115-.003-.118.112l-.021 19.582q0 .115.091.186M66.194 158.51c6.92 12.72 18.125 23.639 30.945 30.299q3.54 1.838 6.512 3.65 2.022 1.233 2.895 2.231c2.693 3.081 2.467 7.842 1.753 11.674a.18.18 0 0 0 .07.186l19.538 15.476a.15.15 0 0 0 .191 0l19.034-15.076a.18.18 0 0 0 .068-.187c-.725-3.658-.708-8.395 1.929-11.31 1.022-1.13 2.732-2.139 4.116-2.944a803 803 0 0 1 7.031-3.984c11.741-6.61 21.551-16.04 28.304-27.728 3.8-6.572 5.837-13.963 6.755-21.462 1.929-15.756.723-32.042-7.551-45.977q-9.74-16.403-26.265-25.928c-3.212-1.852-7.039-3.748-10.279-5.744-4.572-2.817-4.947-7.146-4.225-12.117a.18.18 0 0 0-.069-.178l-18.84-14.912q-.104-.08-.208 0l-19.089 15.085a.22.22 0 0 0-.085.194q.172 2.33.139 3.376c-.11 3.622-2.115 6.688-5.331 8.348q-6.927 3.576-8.658 4.574-10.26 5.92-18.928 15.248c-8.48 9.122-14.094 20.588-16.184 32.996-2.52 14.962-.896 30.737 6.432 44.21"/><path fill="#000" d="M66.194 158.509c6.92 12.72 18.125 23.639 30.945 30.299q3.54 1.838 6.512 3.65 2.022 1.233 2.895 2.231c2.693 3.081 2.467 7.842 1.753 11.674a.18.18 0 0 0 .07.186l19.538 15.476a.15.15 0 0 0 .191 0l19.034-15.076a.18.18 0 0 0 .068-.187c-.725-3.658-.708-8.395 1.929-11.31 1.022-1.13 2.732-2.139 4.116-2.944a803 803 0 0 1 7.031-3.984c11.741-6.61 21.551-16.04 28.304-27.728 3.8-6.572 5.837-13.963 6.755-21.462 1.929-15.756.723-32.042-7.551-45.977q-9.74-16.403-26.265-25.928c-3.212-1.852-7.039-3.748-10.279-5.744-4.572-2.817-4.947-7.146-4.225-12.117a.18.18 0 0 0-.069-.178l-18.84-14.912q-.104-.08-.208 0l-19.089 15.085a.22.22 0 0 0-.085.194q.172 2.33.139 3.376c-.11 3.622-2.115 6.688-5.331 8.348q-6.927 3.576-8.658 4.574-10.26 5.92-18.928 15.248c-8.48 9.122-14.094 20.588-16.184 32.996-2.52 14.962-.896 30.737 6.432 44.21"/><path fill="#000" d="M17.804 171.125c17.477 44.182 59.459 73.967 107.217 75.13q.108.002.108-.107l.052-18.984a.2.2 0 0 0-.019-.082.2.2 0 0 0-.052-.066Q83.748 194.25 42.39 161.48c-.86-.679-1.14-1.502-1.144-2.656q-.09-30.598.002-61.2c.005-1.453.367-2.069 1.441-2.92a91765 91765 0 0 1 82.39-65.189.2.2 0 0 0 .081-.167l-.022-19.488q0-.13-.133-.128-30.752.883-57.056 16.327C38.421 43.397 17.253 73.61 11.475 107.455c-3.65 21.376-1.658 43.481 6.33 63.67M131.101 29.63c27.443 21.81 54.964 43.527 82.466 65.265.95.751 1.183 1.528 1.183 2.798v61.092c0 1.419-.322 2.048-1.374 2.881l-82.247 65.161a.24.24 0 0 0-.098.2l-.006 19.056q0 .179.176.174a66 66 0 0 0 2.163-.076q28.135-1.354 52.543-15.059c44.624-25.054 68.053-75.9 58.178-126.06-10.661-54.14-57.755-93.887-112.936-95.312q-.115-.003-.118.112l-.021 19.582q0 .115.091.186"/><path fill="#EDC29E" d="M136.317 170.244a.1.1 0 0 0-.06.035.1.1 0 0 0-.024.067q.006 5.688-.046 11.356c-.013 1.293-1.111 2.99-2.363 3.55q-.662.294-2.051.297-3.267.008-6.533.002-.766 0-2.025-.727c-1.556-.898-1.833-2.077-1.829-3.912q.015-5.26-.004-10.524 0-.12-.118-.137c-9.068-1.337-17.7-5.29-22.224-13.703q-2.42-4.497-3.014-8.925c-.336-2.506 1.165-4.073 3.574-4.064q3.77.015 7.534.004c1.74-.004 3.144.837 3.608 2.567q.752 2.793 1.109 3.723c1.719 4.445 5.325 7.101 9.882 8.155q5.1 1.183 10.071.634c7.113-.784 13.243-5.579 13.035-13.23-.148-5.54-3.071-8.29-8.07-9.993-4.729-1.61-9.006-2.278-14.129-3.057-11.42-1.734-23.09-5.874-24.913-19.165-.458-3.338-.475-6.675.326-9.895 2.643-10.62 12.418-16.71 22.736-18.032q.11-.015.109-.126.006-5.444.002-10.85c-.002-1.267 1.271-3.05 2.415-3.543q.74-.317 2.478-.315 2.413.005 4.824.002 1.56 0 2.337.267c1.606.553 2.767 1.836 2.775 3.64q.027 5.639.046 11.279 0 .112.11.123c10.134.987 18.425 7.923 21.025 17.744.909 3.435.113 5.646-3.728 5.633q-3.168-.01-6.332-.009c-2.198.002-3.287-.748-4.047-2.795-1.143-3.083-2.875-5.787-5.696-7.44-3.96-2.322-9.502-2.496-14.035-1.86-7.263 1.022-11.206 5.772-10.181 13.135.95 6.839 8.842 8.701 14.41 9.554 11.876 1.82 28.251 3.07 32.005 17.561q.774 2.997.898 6.349c.532 14.521-10.266 24.455-23.887 26.625"/></svg>
