<svg xmlns="http://www.w3.org/2000/svg" fill="none" viewBox="0 0 256 256"><path fill="#fff" d="M128 256c70.692 0 128-57.308 128-128S198.692 0 128 0 0 57.308 0 128s57.308 128 128 128"/><path fill="#585858" d="m127.993 173.981-43.73 44.141-8.746-21.857 52.476-52.962z"/><path fill="#FAF1E7" d="m40.527 173.972 43.735 44.136-8.745-21.843-52.477-52.962zm87.465.009 43.731 44.141 8.745-21.857-52.476-52.962z"/><path fill="#585858" d="m215.458 173.972-43.735 44.136 8.746-21.843 52.476-52.962z"/><path fill="url(#paint0_linear_4193_3526)" d="M23.04 143.299 127.994 37.376l104.952 105.923-52.477 52.962-52.476-52.962-52.475 52.961z"/><defs><linearGradient id="paint0_linear_4193_3526" x1="23.042" x2="232.945" y1="116.817" y2="116.817" gradientUnits="userSpaceOnUse"><stop stop-color="#FAF1E7"/><stop offset=".26" stop-color="#FDCEAA"/><stop offset=".612" stop-color="#F4837D"/><stop offset="1" stop-color="#B9AAFD"/></linearGradient></defs></svg>
