<svg xmlns="http://www.w3.org/2000/svg" fill="none" viewBox="0 0 256 256"><path fill="#000" d="M128 256c70.692 0 128-57.308 128-128S198.692 0 128 0 0 57.308 0 128s57.308 128 128 128"/><path fill="#FFE81C" d="M128 256c70.692 0 128-57.308 128-128S198.692 0 128 0 0 57.308 0 128s57.308 128 128 128"/><path fill="#332E06" d="M127.999 29v139.518l62-36.541z"/><path fill="#8C800F" d="M128 29 66 131.977l62 36.541z"/><path fill="#332E06" d="M128 180.381V231l62-87.317z"/><path fill="#8C800F" d="M128 231v-50.619l-62-36.698z"/><path fill="#141302" d="m128 168.518 62-36.54-62-28.315z"/><path fill="#332E06" d="m66 131.977 62 36.541v-64.855z"/></svg>