<svg xmlns="http://www.w3.org/2000/svg" fill="none" viewBox="0 0 512 512"><path fill="#10F3A1" fill-rule="evenodd" d="M256 512c141.385 0 256-114.615 256-256S397.385 0 256 0 0 114.615 0 256s114.615 256 256 256m.5-63C363.367 449 450 362.591 450 256S363.367 63 256.5 63 63 149.409 63 256s86.633 193 193.5 193" clip-rule="evenodd"/><path fill="#000" fill-rule="evenodd" d="M450 256c0 106.591-86.633 193-193.5 193S63 362.591 63 256 149.633 63 256.5 63 450 149.409 450 256" clip-rule="evenodd"/><path fill="#10F3A1" d="M350.789 399a11.85 11.85 0 0 1-8.385-3.509 12.02 12.02 0 0 1-3.484-8.446v-34.828c0-3.17-1.251-6.211-3.476-8.453a11.83 11.83 0 0 0-8.393-3.502c-3.148 0-6.167 1.26-8.392 3.502a12 12 0 0 0-3.477 8.453v16.533c0 3.171-1.25 6.212-3.476 8.454a11.83 11.83 0 0 1-8.392 3.502c-3.148 0-6.168-1.26-8.393-3.502a12 12 0 0 1-3.476-8.454v-16.533a12 12 0 0 0-3.477-8.453 11.83 11.83 0 0 0-8.392-3.502c-3.148 0-6.167 1.26-8.393 3.502a12 12 0 0 0-3.476 8.453v4.5c0 3.173-1.252 6.216-3.479 8.46a11.84 11.84 0 0 1-8.399 3.504c-3.151 0-6.171-1.26-8.399-3.504a12 12 0 0 1-3.479-8.46v-4.5c0-3.17-1.25-6.211-3.477-8.453a11.82 11.82 0 0 0-8.392-3.502c-3.148 0-6.166 1.26-8.393 3.502a12 12 0 0 0-3.476 8.453v16.533c0 3.171-1.25 6.212-3.476 8.454a11.83 11.83 0 0 1-8.393 3.502c-3.147 0-6.166-1.26-8.392-3.502a12 12 0 0 1-3.477-8.454v-16.533c0-3.17-1.25-6.211-3.476-8.453a11.83 11.83 0 0 0-8.392-3.502c-3.148 0-6.167 1.26-8.393 3.502a12 12 0 0 0-3.476 8.453v34.828a12 12 0 0 1-3.477 8.453 11.82 11.82 0 0 1-8.392 3.502c-3.148 0-6.167-1.26-8.393-3.502a12 12 0 0 1-3.476-8.453V203.28c.573-24.498 9.413-48.069 25.064-66.828 15.651-18.76 37.18-31.59 61.038-36.376a106.35 106.35 0 0 1 70.216 10.047c21.591 11.289 38.721 29.65 48.567 52.058a107.9 107.9 0 0 1 9.108 41.099.78.78 0 0 1-.349.761v182.995a12.01 12.01 0 0 1-3.474 8.449 11.84 11.84 0 0 1-8.381 3.515m-106.97-164.35c-3.014 0-4.236 1.174-4.236 4.078 0 7.056 7.74 12.795 17.269 12.795s17.243-5.739 17.243-12.795c0-2.898-1.223-4.073-4.228-4.073a37 37 0 0 0-4.797.491l-.15.026a56 56 0 0 1-8.065.741 56 56 0 0 1-8.087-.741 36 36 0 0 0-4.949-.522m51.666-58.091c-10.507 0-19.047 9.853-19.047 21.97s8.54 21.951 19.047 21.951c10.506 0 19.016-9.848 19.016-21.951s-8.528-21.97-19.016-21.97m-78.967 0c-10.48 0-19.016 9.853-19.016 21.97s8.536 21.951 19.016 21.951c10.481 0 19.022-9.848 19.022-21.951s-8.533-21.97-19.022-21.97"/></svg>