<svg xmlns="http://www.w3.org/2000/svg" fill="none" viewBox="0 0 512 512"><path fill="#10F3A1" fill-rule="evenodd" d="M256 512c141.385 0 256-114.615 256-256S397.385 0 256 0 0 114.615 0 256s114.615 256 256 256m.5-63C363.367 449 450 362.591 450 256S363.367 63 256.5 63 63 149.409 63 256s86.633 193 193.5 193" clip-rule="evenodd"/><path fill="#000" fill-rule="evenodd" d="M450 256c0 106.591-86.633 193-193.5 193S63 362.591 63 256 149.633 63 256.5 63 450 149.409 450 256" clip-rule="evenodd"/><path fill="#10F3A1" fill-rule="evenodd" d="M410 255.5c0-84.776-68.724-153.5-153.5-153.5S103 170.724 103 255.5 171.724 409 256.5 409 410 340.276 410 255.5m-138.258 29.342 57.504 57.503 14.958-14.959-58.134-58.135a31.7 31.7 0 0 1-6.759 9.986 31.7 31.7 0 0 1-7.569 5.605m71.579-101.227-58.374 58.373a31.7 31.7 0 0 0-5.636-7.629 31.7 31.7 0 0 0-9.923-6.732l58.973-58.972zm-173.642-.837 14.959-14.959L244.42 227.6a31.7 31.7 0 0 0-9.988 6.759 31.8 31.8 0 0 0-5.603 7.569zm-.885 145.444 58.908-58.908a31.7 31.7 0 0 0 6.73 9.923 31.8 31.8 0 0 0 7.629 5.636l-58.307 58.308z" clip-rule="evenodd"/></svg>