<svg xmlns="http://www.w3.org/2000/svg" fill="none" viewBox="0 0 512 512"><path fill="#10F3A1" fill-rule="evenodd" d="M256 512c141.385 0 256-114.615 256-256S397.385 0 256 0 0 114.615 0 256s114.615 256 256 256m.5-63C363.367 449 450 362.591 450 256S363.367 63 256.5 63 63 149.409 63 256s86.633 193 193.5 193" clip-rule="evenodd"/><path fill="#000" fill-rule="evenodd" d="M450 256c0 106.591-86.633 193-193.5 193S63 362.591 63 256 149.633 63 256.5 63 450 149.409 450 256" clip-rule="evenodd"/><path fill="#10F3A1" d="M322.228 286.328c43.907 8.12 73.772 24.104 73.772 42.499C396 355.447 333.539 377 256.5 377S117 355.436 117 328.827c0-18.395 29.876-34.379 73.772-42.499 19.077 4.963 41.606 7.817 65.728 7.817s46.651-2.854 65.728-7.805zm-16.81-78.02c37.293 6.221 62.984 19.304 62.984 34.461 0 21.144-50.104 38.293-111.902 38.293s-111.902-17.149-111.902-38.293c0-15.145 25.691-28.24 62.984-34.461 14.334 3.646 31.05 5.732 48.918 5.732s34.584-2.097 48.918-5.732M257.012 144c46.279 0 83.804 12.978 83.804 28.997 0 16.007-37.525 28.985-83.804 28.985s-83.805-12.978-83.805-28.985c0-16.019 37.525-28.997 83.805-28.997"/></svg>