<svg xmlns="http://www.w3.org/2000/svg" fill="none" viewBox="0 0 512 512"><path fill="#10F3A1" fill-rule="evenodd" d="M256 512c141.385 0 256-114.615 256-256S397.385 0 256 0 0 114.615 0 256s114.615 256 256 256m.5-63C363.367 449 450 362.591 450 256S363.367 63 256.5 63 63 149.409 63 256s86.633 193 193.5 193" clip-rule="evenodd"/><path fill="#000" fill-rule="evenodd" d="M450 256c0 106.591-86.633 193-193.5 193S63 362.591 63 256 149.633 63 256.5 63 450 149.409 450 256" clip-rule="evenodd"/><path fill="#10F3A1" fill-rule="evenodd" d="M165.066 168.844C160.587 145.525 178.505 124 201.798 124c20.606 0 37.628 17.041 37.628 37.669v46.637c5.353-.897 9.88-1.166 16.187-1.146 5.958.02 9.673.249 15.169 1.146v-46.637c0-20.628 17.022-37.669 37.628-37.669 23.293 0 41.211 21.525 37.628 44.844l-9.855 54.709C371.123 238.8 398 265.706 398 298.891v20.628c0 27.803-17.918 51.122-43.899 66.368C328.12 402.031 294.076 411 255.552 411s-72.568-8.969-98.549-25.113C131.918 370.641 114 347.322 114 319.519v-20.628c0-33.185 25.981-60.091 60.921-75.338zm169.325-2.691-11.647 65.472c38.524 14.35 64.505 38.566 63.609 68.162v19.732c0 43.947-59.129 80.718-130.801 80.718s-129.905-35.875-129.905-79.821v-20.629c0-28.7 25.981-53.812 63.609-68.162l-12.543-64.575c-3.584-16.144 8.959-31.391 25.085-31.391 14.335 0 25.981 11.66 25.981 26.01v59.193c8.959-.896 17.918-1.793 27.773-1.793 8.959 0 17.918.897 26.877 1.793v-60.09c0-14.35 11.647-26.01 25.981-26.01 15.769 0 29.23 13.993 25.981 31.391" clip-rule="evenodd"/><path fill="#10F3A1" fill-rule="evenodd" d="M256.448 379.609c-71.672 0-130.801-35.875-130.801-79.822 0-28.7 25.981-53.812 63.609-68.162l-12.543-64.575c-3.584-16.144 8.959-31.391 25.085-31.391 14.335 0 25.981 11.66 25.981 26.01v59.193c8.959-.896 17.918-1.793 27.773-1.793 8.959 0 17.918.897 26.877 1.793v-60.09c0-14.35 11.647-26.01 25.981-26.01 15.769 0 29.23 13.993 25.981 31.391l-11.647 65.472c38.524 14.35 64.505 38.566 63.609 68.162 0 43.947-58.233 79.822-129.905 79.822m62.713-86.1c0 11.66-6.271 21.525-14.335 21.525s-14.334-9.865-14.334-21.525 6.271-21.525 14.334-21.525c8.064 0 14.335 9.866 14.335 21.525m-113.779 21.525c8.063 0 14.334-9.865 14.334-21.525s-6.271-21.525-14.334-21.525-14.335 9.866-14.335 21.525c0 11.66 6.272 21.525 14.335 21.525" clip-rule="evenodd"/></svg>