<svg xmlns="http://www.w3.org/2000/svg" fill="none" viewBox="0 0 512 512"><path fill="#10F3A1" fill-rule="evenodd" d="M256 512c141.385 0 256-114.615 256-256S397.385 0 256 0 0 114.615 0 256s114.615 256 256 256m.5-63C363.367 449 450 362.591 450 256S363.367 63 256.5 63 63 149.409 63 256s86.633 193 193.5 193" clip-rule="evenodd"/><path fill="#000" fill-rule="evenodd" d="M450 256c0 106.591-86.633 193-193.5 193S63 362.591 63 256 149.633 63 256.5 63 450 149.409 450 256" clip-rule="evenodd"/><path fill="#10F3A1" fill-rule="evenodd" d="M134.56 345.94c-7.791-4.769-12.56-13.239-12.56-22.36v-50.921c0-6.046 4.925-10.946 10.971-10.92 1.928 0 3.83.521 5.498 1.486l114.891 67.001a21.85 21.85 0 0 1 10.866 18.894v52.746c.026 7.244-5.837 13.134-13.081 13.134-2.424 0-4.821-.678-6.88-1.928zm171.255-96.658c6.723 3.909 10.84 11.128 10.866 18.894v107.056a8.7 8.7 0 0 1-4.456 7.61l-25.146 14.15a4.3 4.3 0 0 1-1.016.417v-59.443a21.9 21.9 0 0 0-10.658-18.79L174.507 258.82v-67.105c0-6.046 4.925-10.945 10.971-10.919 1.928 0 3.831.521 5.498 1.485zm50.293-79.067A21.86 21.86 0 0 1 367 189.135v156.362a8.86 8.86 0 0 1-4.612 7.688l-23.844 12.874V257.205a21.93 21.93 0 0 0-10.605-18.764L224.8 176.574v-63.639c0-1.929.521-3.831 1.459-5.499 3.049-5.212 9.746-6.984 14.958-3.961z" clip-rule="evenodd"/></svg>