<svg xmlns="http://www.w3.org/2000/svg" fill="none" viewBox="0 0 512 512"><path fill="#10F3A1" fill-rule="evenodd" d="M256 512c141.385 0 256-114.615 256-256S397.385 0 256 0 0 114.615 0 256s114.615 256 256 256m.5-63C363.367 449 450 362.591 450 256S363.367 63 256.5 63 63 149.409 63 256s86.633 193 193.5 193" clip-rule="evenodd"/><path fill="#000" fill-rule="evenodd" d="M450 256c0 106.591-86.633 193-193.5 193S63 362.591 63 256 149.633 63 256.5 63 450 149.409 450 256" clip-rule="evenodd"/><path fill="#10F3A1" d="M268.524 142.218q25.937 9.776 52.595 23.197a493 493 0 0 1 16.668 8.778q4.238 2.34 7.688 4.692c12.06 8.208 24.005 17.646 34.271 28.224a49 49 0 0 1 4.563 5.427c4.661 6.47 9.246 13.332 12.83 20.497q6.576 13.145 4.256 28.687-.93 6.22-2.431 11.924-3.311 12.602-12.287 20.51c-8.254 7.272-18.364 10.592-28.999 12.477a377 377 0 0 0-58.877 15.404 7035 7035 0 0 0-39.074 13.8.27.27 0 0 1-.27-.056.267.267 0 0 1-.077-.265c5.854-22.694 7.457-46.021 6.13-69.436a.3.3 0 0 1 .017-.111.3.3 0 0 1 .057-.096.3.3 0 0 1 .09-.066.3.3 0 0 1 .108-.026q18.043-.566 37.721-2.107 10.11-.793 20.029-2.193c12.768-1.804 29.378-7.517 28.621-23.495-.539-11.323-9.087-21.193-17.514-28.233-9.229-7.717-20.278-14.339-31.181-19.811q-18.315-9.187-40.263-17.07-3.482-1.248-5.894-1.408c-3.174-.214-6.456-.054-9.354 1.328-5.907 2.807-7.684 9.455-6.353 15.724q.441 2.064 1.893 5.232 2.706 5.904 5.693 13.572c7.208 18.501 12.706 37.233 13.868 56.233q.583 9.51.557 19.562-.062 26.128-6.095 50.253a392 392 0 0 0-2.008 8.413c-4.416 19.49-15.76 39.817-34.315 49.01q-3.7 1.831-8.111 2.959-7.243 1.853-13.81 2.183-16.9.842-29.294-8.587c-11.312-8.608-18.35-22.292-22.824-36.248-5.401-16.848-7.858-35.063-8.717-52.865a368.6 368.6 0 0 1 1.451-55.034q.486-4.79.975-8.997c2.644-22.698 9.549-45.503 20.942-65.389 5.208-9.09 11.432-17.423 19.134-24.24 19.7-17.441 48.383-15.73 71.738-7.896q10.337 3.467 15.853 5.543m-70.928 122.323c-6.415 2.579-10.145 12.026-11.681 18.193q-4.6 18.438.298 37.064a46.6 46.6 0 0 0 5.235 12.365c2.542 4.197 7.689 10.302 13.227 6.956 4.492-2.714 7.354-8.271 9.175-13.591 4.483-13.091 4.399-27.969.735-41.306q-1.986-7.214-5.467-12.784c-2.115-3.373-6.86-8.773-11.522-6.897"/><path fill="#10F3A1" d="M262.541 175.102c14.945 5.49 29.587 11.541 43.713 18.929 10.199 5.333 20.118 11.496 28.71 19.102 5.16 4.572 9.928 10.057 12.706 16.255 3.726 8.297 3.036 17.227-4.808 22.868a27.7 27.7 0 0 1-5.476 3.083q-7.377 3.084-16.615 4.189c-18.537 2.219-36.732 3.333-55.096 3.921q-.242.01-.258-.232c-1.83-24.619-10.031-48.627-20.119-71.182q-1.42-3.169-1.651-5.232c-.641-5.73 1.229-11.139 7.328-12.619q2.862-.69 6.179-.401 2.368.21 5.387 1.319"/></svg>