<svg xmlns="http://www.w3.org/2000/svg" fill="none" viewBox="0 0 512 512"><path fill="#10F3A1" fill-rule="evenodd" d="M256 512c141.385 0 256-114.615 256-256S397.385 0 256 0 0 114.615 0 256s114.615 256 256 256m.5-63C363.367 449 450 362.591 450 256S363.367 63 256.5 63 63 149.409 63 256s86.633 193 193.5 193" clip-rule="evenodd"/><path fill="#000" fill-rule="evenodd" d="M450 256c0 106.591-86.633 193-193.5 193S63 362.591 63 256 149.633 63 256.5 63 450 149.409 450 256" clip-rule="evenodd"/><path fill="#10F3A1" d="M260.769 150.8c-74.558 0-135 60.531-135 135.2v42.068A177 177 0 0 0 105 358.726V286c0-86.156 69.74-156 155.769-156H375v20.8z"/><path fill="#10F3A1" d="M260.769 192.4c-51.617 0-93.461 41.906-93.461 93.6v5.981a177 177 0 0 0-20.77 15.215V286c0-63.182 51.143-114.4 114.231-114.4H375v20.8z"/><path fill="#10F3A1" d="M210.631 272.432C216.59 250.292 236.779 234 260.769 234H375v-20.8H260.769c-38.385 0-69.821 29.795-72.506 67.552a175 175 0 0 1 22.368-8.32M260.769 306.8c-74.558 0-135 60.531-135 135.2H105c0-51.031 24.466-96.339 62.292-124.8l.016-.012C193.342 297.605 225.702 286 260.769 286H375v20.8z"/><path fill="#10F3A1" d="M167.308 442c0-51.694 41.844-93.6 93.461-93.6H375v-20.8H260.769c-63.088 0-114.231 51.218-114.231 114.4z"/><path fill="#10F3A1" d="M208.846 442c0-28.719 23.247-52 51.923-52H375v-20.8H260.769c-40.147 0-72.692 32.593-72.692 72.8z"/></svg>