<svg xmlns="http://www.w3.org/2000/svg" fill="none" viewBox="0 0 512 512"><path fill="#10F3A1" fill-rule="evenodd" d="M256 512c141.385 0 256-114.615 256-256S397.385 0 256 0 0 114.615 0 256s114.615 256 256 256m.5-63C363.367 449 450 362.591 450 256S363.367 63 256.5 63 63 149.409 63 256s86.633 193 193.5 193" clip-rule="evenodd"/><path fill="#000" fill-rule="evenodd" d="M450 256c0 106.591-86.633 193-193.5 193S63 362.591 63 256 149.633 63 256.5 63 450 149.409 450 256" clip-rule="evenodd"/><path fill="#10F3A1" d="M118.787 226.191c-24.485 25.041-14.862 50.57 2.193 67.671l49.215 49.105c4.385 4.398 21.44 22.354 35.083 8.306 7.919-7.939 6.091-20.154 1.706-25.041l-56.524-56.189c-10.111-10.139-5.238-19.3 4.873-28.95l48.118-48.372 30.211 30.294c10.477 10.505 23.633 14.536 34.597 3.542 10.963-10.993 4.385-21.498-6.091-32.126 0 0-45.073-45.561-52.991-53.501-7.919-7.94-19.248-12.337-30.211-1.343-9.622 9.648-6.39 20.331-.761 27.507zM394.213 285.809c24.485-25.041 14.862-50.57-2.193-67.671l-49.215-49.105c-4.385-4.398-21.44-22.354-35.084-8.306-7.918 7.939-6.09 20.154-1.705 25.041l56.524 56.189c10.111 10.139 5.238 19.3-4.873 28.95l-48.118 48.372-30.211-30.294c-10.477-10.505-23.633-14.536-34.597-3.542-10.963 10.993-4.385 21.498 6.091 32.126 0 0 45.073 45.561 52.991 53.501 7.919 7.94 19.248 12.337 30.211 1.343 9.622-9.648 6.39-20.331.761-27.507z"/></svg>