<svg xmlns="http://www.w3.org/2000/svg" fill="none" viewBox="0 0 512 512"><path fill="#10F3A1" fill-rule="evenodd" d="M256 512c141.385 0 256-114.615 256-256S397.385 0 256 0 0 114.615 0 256s114.615 256 256 256m.5-63C363.367 449 450 362.591 450 256S363.367 63 256.5 63 63 149.409 63 256s86.633 193 193.5 193" clip-rule="evenodd"/><path fill="#000" fill-rule="evenodd" d="M450 256c0 106.591-86.633 193-193.5 193S63 362.591 63 256 149.633 63 256.5 63 450 149.409 450 256" clip-rule="evenodd"/><path fill="#10F3A1" d="m257.316 147.032-2.19-.031c-5.862-.082-10.681 4.614-10.763 10.488l-.199 14.324c-.082 5.875 4.604 10.703 10.466 10.785l2.19.031c5.862.082 10.681-4.614 10.763-10.488l.2-14.324c.082-5.875-4.604-10.703-10.467-10.785M168.928 170.223l-1.146.693c-5.107 3.086-6.749 9.737-3.669 14.854l6.945 11.536c3.08 5.117 9.717 6.763 14.823 3.676l1.146-.693c5.107-3.087 6.749-9.737 3.669-14.854l-6.945-11.536c-3.08-5.117-9.717-6.763-14.823-3.676M323.336 179.227c-5.329 8.514-5 18.338.735 21.943s14.704-.374 20.034-8.888 5.001-18.337-.734-21.942-14.705.374-20.035 8.887M262.391 206.908c37.597 2.073 82.797 27.767 97.398 64.801q1.308 3.322-2.251 3.322-81.732.213-160.18.061c-7.421 0-21.657-14.661-30.752-25.055a1.75 1.75 0 0 1-.433-1.15c0-.422.154-.826.433-1.136 24.882-27.371 58.676-42.916 95.785-40.843M396.932 253.319c8.684-4.646 13.203-13.144 10.093-18.979-3.11-5.836-12.67-6.801-21.354-2.154-8.684 4.646-13.203 13.144-10.093 18.979 3.109 5.836 12.67 6.801 21.354 2.154M114.142 253.153c8.62 4.729 18.152 3.906 21.29-1.838s-1.306-14.233-9.926-18.963c-8.62-4.729-18.152-3.906-21.29 1.838s1.306 14.234 9.926 18.963"/><path fill="#10F3A1" d="M186.53 292.679h180.407a2.704 2.704 0 0 1 2.707 2.469l1.855 20.97q.153 1.707-1.551 1.707H140.995q-1.765 0-1.643-1.768 1.46-24.2 11.376-46.36a5.09 5.09 0 0 1 3.664-2.914 5.14 5.14 0 0 1 2.414.103 5.2 5.2 0 0 1 2.105 1.195l24.668 23.44a4.2 4.2 0 0 0 2.951 1.158M107.997 310.437 91.94 310.1c-5.358-.113-9.793 4.148-9.905 9.517l-.033 1.585c-.112 5.368 4.14 9.812 9.498 9.924l16.057.337c5.358.113 9.792-4.148 9.904-9.517l.033-1.585c.113-5.368-4.14-9.812-9.497-9.924M420.934 310.22l-17.581.092c-4.973.026-8.983 4.087-8.957 9.069l.016 2.926c.026 4.983 4.078 9.001 9.05 8.975l17.582-.092c4.972-.026 8.982-4.087 8.956-9.069l-.015-2.926c-.026-4.983-4.079-9.001-9.051-8.975M140.417 335.259l229.349.061a1.617 1.617 0 0 1 1.612 1.585q.456 28.103-14.297 51.725-1.034 1.646-2.22.122-12.32-15.636-28.836-26.548a5.6 5.6 0 0 0-3.163-.945H144.797q-1.795 0-2.129-1.798l-4.016-22.068q-.395-2.134 1.765-2.134"/><path fill="#10F3A1" fill-rule="evenodd" d="M378.629 394.79c4.08.214 11.367.597 19.205.481a199 199 0 0 0 14.79-17.165l-28.927-.144a2.4 2.4 0 0 0-1.298.383 2.3 2.3 0 0 0-.862 1.019l-6.266 14.051q-.517 1.19.761 1.25c.581.019 1.466.066 2.597.125M332.048 392.471l-12.319-12.314a4.09 4.09 0 0 0-2.89-1.189l-217.761-.6a199 199 0 0 0 13.765 16.046q108.98.46 218.231.404a1.368 1.368 0 0 0 1.353-1.643 1.37 1.37 0 0 0-.379-.704" clip-rule="evenodd"/></svg>