<svg xmlns="http://www.w3.org/2000/svg" fill="none" viewBox="0 0 512 512"><path fill="#10F3A1" d="m288.126 108.881 8.489 20.006c16.703 38.915 47.644 70.158 86.8 86.875l19.989 8.496c5.203 2.192 9.31 5.481 12.596 9.318-9.858-70.981-65.991-127.162-136.91-137.028a32.8 32.8 0 0 1 9.036 12.333M109.87 223.984l19.988-8.496c38.883-16.717 70.098-47.686 86.801-86.875l8.489-20.007c1.916-4.932 5.202-9.317 9.31-12.606-70.92 9.866-127.053 66.047-136.91 137.027a32.8 32.8 0 0 1 12.322-9.043m293.26 63.306-19.988 8.496c-38.883 16.717-70.098 47.686-86.801 86.876l-8.489 19.731c-1.916 4.933-5.202 9.318-9.31 12.607 70.92-9.866 127.053-66.047 136.91-137.027-3.012 4.11-7.393 7.399-12.322 9.317M224.874 402.393l-8.489-19.731c-16.703-38.916-47.644-70.159-86.8-86.876l-19.989-8.496c-4.929-1.918-9.31-5.207-12.596-9.317 9.858 70.98 65.991 127.161 136.91 137.027-3.834-3.289-6.846-7.674-9.036-12.607M184.348 240.153l9.858-4.111c19.167-8.222 34.501-23.569 42.716-42.752l4.107-9.866c5.75-13.703 25.192-13.703 31.216 0l4.107 9.866c8.215 19.183 23.548 34.53 42.716 42.752l9.857 4.111c13.691 5.755 13.691 25.213 0 31.242l-9.857 4.111c-19.168 8.222-34.501 23.569-42.716 42.753l-4.107 9.866c-5.751 13.702-25.192 13.702-31.216 0l-4.107-9.866c-8.215-19.184-23.549-34.531-42.716-42.753l-9.858-4.111c-13.69-6.029-13.69-25.487 0-31.242"/><path fill="#10F3A1" fill-rule="evenodd" d="M256 512c141.385 0 256-114.615 256-256S397.385 0 256 0 0 114.615 0 256s114.615 256 256 256m.5-63C363.367 449 450 362.591 450 256S363.367 63 256.5 63 63 149.409 63 256s86.633 193 193.5 193" clip-rule="evenodd"/><path fill="#000" fill-rule="evenodd" d="M450 256c0 106.591-86.633 193-193.5 193S63 362.591 63 256 149.633 63 256.5 63 450 149.409 450 256M296.615 128.887l-8.489-20.006a32.8 32.8 0 0 0-9.036-12.333c70.919 9.866 127.052 66.047 136.91 137.028-3.286-3.837-7.393-7.126-12.596-9.318l-19.989-8.496c-39.156-16.717-70.097-47.96-86.8-86.875m-166.757 86.601-19.988 8.496a32.8 32.8 0 0 0-12.322 9.043c9.857-70.98 65.99-127.161 136.91-137.027-4.108 3.289-7.394 7.674-9.31 12.606l-8.489 20.007c-16.703 39.189-47.918 70.158-86.801 86.875m253.284 80.298 19.988-8.496c4.929-1.918 9.31-5.207 12.322-9.317-9.857 70.98-65.99 127.161-136.91 137.027 4.108-3.289 7.394-7.674 9.31-12.607l8.489-19.731c16.703-39.19 47.918-70.159 86.801-86.876m-166.757 86.876 8.489 19.731c2.19 4.933 5.202 9.318 9.036 12.607-70.919-9.866-127.052-66.047-136.91-137.027 3.286 4.11 7.667 7.399 12.596 9.317l19.989 8.496c39.156 16.717 70.097 47.96 86.8 86.876m-22.179-146.62-9.858 4.111c-13.69 5.755-13.69 25.213 0 31.242l9.858 4.111c19.167 8.222 34.501 23.569 42.716 42.753l4.107 9.866c6.024 13.702 25.465 13.702 31.216 0l4.107-9.866c8.215-19.184 23.548-34.531 42.716-42.753l9.857-4.111c13.691-6.029 13.691-25.487 0-31.242l-9.857-4.111c-19.168-8.222-34.501-23.569-42.716-42.752l-4.107-9.866c-6.024-13.703-25.466-13.703-31.216 0l-4.107 9.866c-8.215 19.183-23.549 34.53-42.716 42.752" clip-rule="evenodd"/></svg>