<svg xmlns="http://www.w3.org/2000/svg" fill="none" viewBox="0 0 512 512"><path fill="#10F3A1" fill-rule="evenodd" d="M256 512c141.385 0 256-114.615 256-256S397.385 0 256 0 0 114.615 0 256s114.615 256 256 256m.5-63C363.367 449 450 362.591 450 256S363.367 63 256.5 63 63 149.409 63 256s86.633 193 193.5 193" clip-rule="evenodd"/><path fill="#000" fill-rule="evenodd" d="M450 256c0 106.591-86.633 193-193.5 193S63 362.591 63 256 149.633 63 256.5 63 450 149.409 450 256" clip-rule="evenodd"/><path fill="#10F3A1" d="M161.594 246.982h187.514v25.483H161.594zM144.586 224.778l78.992-69.708 17.008 18.977-78.992 69.707zM276.394 341.209l78.992-69.708 17.008 18.976-78.992 69.708z"/><path fill="#10F3A1" d="M260.112 184.069a45.03 45.03 0 0 0 45.028-45.035 45.028 45.028 0 0 0-76.868-31.844 45.04 45.04 0 0 0 0 63.689 45.03 45.03 0 0 0 31.84 13.19M135.028 303.069a45.03 45.03 0 0 0 45.028-45.035 45.03 45.03 0 0 0-76.868-31.844 45.04 45.04 0 0 0 0 63.689 45.03 45.03 0 0 0 31.84 13.19M260.112 418.249a45.03 45.03 0 0 0 31.84-13.191 45.037 45.037 0 0 0-31.84-76.878 45.03 45.03 0 0 0-31.84 13.19 45.04 45.04 0 0 0 0 63.688 45.03 45.03 0 0 0 31.84 13.191M378.19 303.069a45.03 45.03 0 0 0 45.028-45.035 45.03 45.03 0 0 0-76.868-31.844 45.04 45.04 0 0 0 0 63.689 45.03 45.03 0 0 0 31.84 13.19"/></svg>