<svg xmlns="http://www.w3.org/2000/svg" fill="none" viewBox="0 0 256 256"><path fill="#000" d="M123.395 0h8.74q22.84.845 43.355 9.035 33.14 13.22 54.875 41.9-11.385.105-22.58.07c-3.865-.01-6.32-.425-8.835-3.24l-9.045-10.13c-2.9-3.245-8.065-3.32-11.1-.185A2129 2129 0 0 0 168.4 48.285C167.045 49.7 164.995 51 163.125 51q-68.635.005-137.48-.005Q35.545 37.6 48.36 27.59 81.24 1.915 123.395 0M248.82 85.55q5.37 15.425 6.77 31.945-48.005.015-95.965-.005c-2.175 0-4.805-1.57-6.375-3.37q-4.545-5.2-8.64-9.92c-1.905-2.195-4.315-3.035-7.23-2.67q-2.285.285-4.725 2.875a2876 2876 0 0 1-9.2 9.715c-2.01 2.11-3.57 3.39-6.33 3.385Q58.77 117.495.42 117.5a128.4 128.4 0 0 1 6.775-31.94q60.05.005 119.92 0 5.87 0 7.73-.645a14.1 14.1 0 0 0 6.04-4.07 1037 1037 0 0 0 7.31-8.405c3.19-3.7 8.23-4.065 11.525-.2a517 517 0 0 0 8.9 10.185q2.885 3.215 7.43 3.21 36.31-.06 72.77-.085M12.585 183.505a113.5 113.5 0 0 1-10.495-31.76q40.65.015 81.145-.005 3.875 0 5.735-.555c2.75-.825 4.815-2.43 6.685-4.53a911 911 0 0 0 6.5-7.38c2.515-2.885 5.695-4.275 9.28-2.56q1.525.725 3.27 2.745a380 380 0 0 0 8.475 9.51c1.71 1.85 4.2 2.79 6.685 2.785q62.305-.015 123.435 0a.17.17 0 0 1 .165.205q-3.08 16.07-10.275 31.2a.6.6 0 0 1-.54.34H113.94c-2.595 0-5.085-1.24-6.85-3.225q-4.025-4.515-8.81-9.93c-2.9-3.285-8.14-3.635-11.265-.385a5292 5292 0 0 1-10.885 11.295c-1.87 1.93-4 2.255-6.725 2.255q-28.365-.02-56.82-.005M202.645 231.955q-28.095 20.165-62.78 23.42-3.585.335-7.175.625h-8q-43.225-1.495-76.865-28.2a.63.63 0 0 1-.22-.335 177 177 0 0 1-12.825-12.17.19.19 0 0 1-.034-.194.172.172 0 0 1 .16-.106q6.183-.065 10.234-4.62 3.475-3.905 7.69-8.755 1.715-1.97 4.13-2.465c3.09-.63 5.445.67 7.44 2.985q4.14 4.8 8.29 9.51c1.8 2.045 4.235 3.35 6.935 3.35q71.32.005 141.375-.005a.32.32 0 0 1 .265.5.62.62 0 0 1-.34.245.94.94 0 0 0-.405.255 150 150 0 0 1-17.875 15.96"/></svg>