<svg xmlns="http://www.w3.org/2000/svg" fill="none" viewBox="0 0 256 256"><path fill="#000" d="M123.395 0h8.74q22.84.845 43.355 9.035 33.14 13.22 54.875 41.9-11.385.105-22.58.07c-3.865-.01-6.32-.425-8.835-3.24l-9.045-10.13c-2.9-3.245-8.065-3.32-11.1-.185A2129 2129 0 0 0 168.4 48.285C167.045 49.7 164.995 51 163.125 51q-68.635.005-137.48-.005Q35.545 37.6 48.36 27.59 81.24 1.915 123.395 0"/><path fill="#fff" d="M230.365 50.935A137.5 137.5 0 0 1 248.82 85.55q-36.46.025-72.77.085-4.545.004-7.43-3.21a517 517 0 0 1-8.9-10.185c-3.295-3.865-8.335-3.5-11.525.2q-3.9 4.53-7.31 8.405a14.1 14.1 0 0 1-6.04 4.07q-1.86.645-7.73.645-59.87.005-119.92 0a134.4 134.4 0 0 1 18.45-34.565q68.845.01 137.48.005c1.87 0 3.92-1.3 5.275-2.715q5.13-5.38 10.405-10.835c3.035-3.135 8.2-3.06 11.1.185l9.045 10.13c2.515 2.815 4.97 3.23 8.835 3.24q11.195.035 22.58-.07"/><path fill="#000" d="M248.82 85.55q5.37 15.425 6.77 31.945-48.005.015-95.965-.005c-2.175 0-4.805-1.57-6.375-3.37q-4.545-5.2-8.64-9.92c-1.905-2.195-4.315-3.035-7.23-2.67q-2.285.285-4.725 2.875a2876 2876 0 0 1-9.2 9.715c-2.01 2.11-3.57 3.39-6.33 3.385Q58.77 117.495.42 117.5a128.4 128.4 0 0 1 6.775-31.94q60.05.005 119.92 0 5.87 0 7.73-.645a14.1 14.1 0 0 0 6.04-4.07 1037 1037 0 0 0 7.31-8.405c3.19-3.7 8.23-4.065 11.525-.2a517 517 0 0 0 8.9 10.185q2.885 3.215 7.43 3.21 36.31-.06 72.77-.085"/><path fill="#fff" d="m255.59 117.495.41 5.945v8.675q-1.82 43.015-28.275 76.135-10.6 13.27-25.08 23.705a150 150 0 0 0 17.875-15.96.94.94 0 0 1 .405-.255.62.62 0 0 0 .34-.245.31.31 0 0 0 .018-.33.32.32 0 0 0-.283-.17q-70.055.01-141.375.005c-2.7 0-5.135-1.305-6.935-3.35q-4.15-4.71-8.29-9.51c-1.995-2.315-4.35-3.615-7.44-2.985q-2.415.495-4.13 2.465-4.215 4.85-7.69 8.755-4.05 4.555-10.235 4.62a.17.17 0 0 0-.16.106.18.18 0 0 0 .035.194q6.064 6.365 12.825 12.17a94 94 0 0 1-7.585-6.485q-17.025-16.205-27.435-37.475 28.455-.015 56.82.005c2.725 0 4.855-.325 6.725-2.255q5.21-5.39 10.885-11.295c3.125-3.25 8.365-2.9 11.265.385q4.785 5.415 8.81 9.93c1.765 1.985 4.255 3.225 6.85 3.225h128.71a.6.6 0 0 0 .54-.34q7.195-15.13 10.275-31.2a.17.17 0 0 0-.034-.142.17.17 0 0 0-.131-.063q-61.13-.015-123.435 0c-2.485.005-4.975-.935-6.685-2.785a380 380 0 0 1-8.475-9.51q-1.745-2.02-3.27-2.745c-3.585-1.715-6.765-.325-9.28 2.56a911 911 0 0 1-6.5 7.38c-1.87 2.1-3.935 3.705-6.685 4.53q-1.86.555-5.735.555-40.495.02-81.145.005A198 198 0 0 1 0 132.435V123.5l.42-6q58.35-.005 116.705.005c2.76.005 4.32-1.275 6.33-3.385q4.87-5.12 9.2-9.715 2.44-2.59 4.725-2.875c2.915-.365 5.325.475 7.23 2.67q4.095 4.72 8.64 9.92c1.57 1.8 4.2 3.37 6.375 3.37q47.96.02 95.965.005"/><path fill="#000" d="M12.585 183.505a113.5 113.5 0 0 1-10.495-31.76q40.65.015 81.145-.005 3.875 0 5.735-.555c2.75-.825 4.815-2.43 6.685-4.53a911 911 0 0 0 6.5-7.38c2.515-2.885 5.695-4.275 9.28-2.56q1.525.725 3.27 2.745a380 380 0 0 0 8.475 9.51c1.71 1.85 4.2 2.79 6.685 2.785q62.305-.015 123.435 0a.17.17 0 0 1 .165.205q-3.08 16.07-10.275 31.2a.6.6 0 0 1-.54.34H113.94c-2.595 0-5.085-1.24-6.85-3.225q-4.025-4.515-8.81-9.93c-2.9-3.285-8.14-3.635-11.265-.385a5292 5292 0 0 1-10.885 11.295c-1.87 1.93-4 2.255-6.725 2.255q-28.365-.02-56.82-.005m190.06 48.45q-28.095 20.165-62.78 23.42-3.585.335-7.175.625h-8q-43.225-1.495-76.865-28.2a.63.63 0 0 1-.22-.335 177 177 0 0 1-12.825-12.17.19.19 0 0 1-.034-.194.17.17 0 0 1 .16-.106q6.183-.065 10.234-4.62 3.475-3.905 7.69-8.755 1.715-1.97 4.13-2.465c3.09-.63 5.445.67 7.44 2.985q4.14 4.8 8.29 9.51c1.8 2.045 4.235 3.35 6.935 3.35q71.32.005 141.375-.005a.32.32 0 0 1 .265.5.62.62 0 0 1-.34.245.94.94 0 0 0-.405.255 150 150 0 0 1-17.875 15.96"/></svg>