<svg xmlns="http://www.w3.org/2000/svg" fill="none" viewBox="0 0 512 512"><path fill="#10F3A1" fill-rule="evenodd" d="M256 512c141.385 0 256-114.615 256-256S397.385 0 256 0 0 114.615 0 256s114.615 256 256 256m.5-63C363.367 449 450 362.591 450 256S363.367 63 256.5 63 63 149.409 63 256s86.633 193 193.5 193" clip-rule="evenodd"/><path fill="#000" fill-rule="evenodd" d="M450 256c0 106.591-86.633 193-193.5 193S63 362.591 63 256 149.633 63 256.5 63 450 149.409 450 256" clip-rule="evenodd"/><path fill="#10F3A1" fill-rule="evenodd" d="M279.99 418.177c11.402-4.367 16.078-15.872 9.694-26.516q-3.438-5.733-.961.461c7.836 19.505-17.957 28.889-28.697 12.03-7.772-12.198-.043-25.109 13.836-26.684 29.968-3.42 45.34 39.095 46.783 62.377.854 13.775 26.281 8.991 51.138-6.069 6.897-4.178 13.666-7.243 19.858-12.765a127.4 127.4 0 0 1 15.993-12.135c24.256-15.599 36.597-38.063 32.968-66.679-4.634-36.447-38.05-50.157-66.641-65.483-6.726-3.611-9.523-9.763-13.046-15.977q-.662-1.176.619-.693a1038 1038 0 0 1 51.758 21.834c16.655 7.58 31.601 20.197 31.601 38.547a.75.75 0 0 0 .17.448.77.77 0 0 0 .894.223.76.76 0 0 0 .367-.314c16.954-29.981 8.541-67.226-20.69-85.701-22.399-14.172-55.772-15.767-78.897-20.449q-12.982-2.625-23.231-11.652a3.45 3.45 0 0 1-1.025-1.596l-3.886-12.555q-.321-1.029.534-.357c16.505 12.618 35.658 16.271 56.071 17.027 22.014.819 44.22 1.785 55.281 20.533.095.17.251.299.437.364s.39.061.573-.011a.8.8 0 0 0 .423-.38.8.8 0 0 0 .061-.561c-13.11-51.248-60.768-82.846-113.551-81.691q-5.338.105-22.441 2.625-1.132.168-1.858-.693c-17.103-20.575-35.936-34.096-63.886-36.468q-4.718-.399-8.071.189-.982.168-1.153 1.133l-.64 3.8q-.171 1.05-1.217 1.26-2.904.588-2.904 3.968-.15 28.889 17.765 51.353.426.504-.235.357-11.552-2.813-15.566-7.243c-38.405-42.297-96.055-101.765-97.183-101.027s25.228 29.965 31.995 37.308a9332 9332 0 0 1 78.042 85.722c2.626 2.939 3.118 6.298 1.751 10.098-10.228 28.133-45.523 2.625-48.106 40.94q-1.24 18.413-9.182 34.999c-14.413 30.043-8.84 41.822 17.979 60.423q5.786 4.031 7.921 8.272c12.171 24.102-27.267 37.875-45.501 41.297q-.918.168-1.41-.588l-.425-.648c-15.123-23.049-28.898-44.042-15.909-70.126 3.544-7.075 11.381-15.914 16.954-22.485q20.327-24.018 23.338-55.616 1.11-11.631 11.231-22.884c4.527-5.018 2.221-11.715-1.004-17.573a6769 6769 0 0 0-30.832-55.237c-6.043-10.708-13.666-19.609-21.246-29.141a.49.49 0 0 0-.683-.126.5.5 0 0 0-.206.31.48.48 0 0 0 .078.362 43851 43851 0 0 0 45.288 79.717 102.4 102.4 0 0 1 6.491 13.563c.267.679.324 1.421.165 2.134a3.73 3.73 0 0 1-1.062 1.876c-9.672 9.28-11.914 16.901-13.793 31.324-3.289 25.425-15.523 39.954-30.683 59.437q-9.118 11.757-11.402 17.615c-11.595 29.686 9.309 49.295 19.345 74.006q.384.987 1.452 1.197c16.953 3.527 31.579 4.388 46.056-4.787a3.4 3.4 0 0 1 1.965-.567q18.918.21 34.12 9.91c14.904 9.511 24.598 32.731 46.228 24.438m-59.658-300.226c16.996 1.7 31.559 10.476 36.768 27.314 5.509 17.824 7.751 30.736 20.371 44.404a1.054 1.054 0 0 1 .174 1.17 1.07 1.07 0 0 1-.42.46 1.1 1.1 0 0 1-.609.154c-35.829-1.238-59.273-40.771-57.373-72.6a.97.97 0 0 1 .695-.867 1 1 0 0 1 .394-.035m79.964 36.069c44.84-8.797 89.936 8.566 113.786 47.616a.61.61 0 0 1-.053.657.62.62 0 0 1-.63.225c-25.068-6.383-51.523-1.365-75.801-12.051-15.523-6.803-27.886-21.583-37.729-35.377q-.64-.86.427-1.07m92.904 76.484c33.224 6.214 58.227 30.841 53.444 66.092a.48.48 0 0 1-.117.261.5.5 0 0 1-.247.153.55.55 0 0 1-.554-.162c-30.576-35.734-99.245-33.676-115.772-78.059a.79.79 0 0 1 .185-.847.8.8 0 0 1 .404-.216.83.83 0 0 1 .458.034c20.327 7.096 41.188 8.818 62.199 12.744M265.086 245.2l-21.608 5.837a7 7 0 0 1-5.232-.638 6.8 6.8 0 0 1-3.245-4.086l-.897-3.191a17.92 17.92 0 0 1 1.666-13.689 17.94 17.94 0 0 1 10.911-8.44 18.2 18.2 0 0 1 7.052-.484 18.3 18.3 0 0 1 12.087 6.863 18.2 18.2 0 0 1 3.195 6.302l.897 3.17c.243.861.311 1.76.199 2.646a6.7 6.7 0 0 1-.847 2.518 6.8 6.8 0 0 1-1.765 2.006 7 7 0 0 1-2.413 1.186m26.797 80.222c26.541-3.275 57.908-7.852 58.847-41.738q.277-9.72-2.349-17.447a1.061 1.061 0 0 1 1.346-1.317c.246.082.451.252.576.477 21.502 38.82-5.829 66.449-44.669 67.163q-25.26.483-48.128 6.718-1.09.294-.149-.336 17.103-11.358 34.526-13.52m82.014-39.45q21.566 9.742 40.228 23.977c26.306 20.071 24.021 56.917 4.761 80.599a.96.96 0 0 1-.479.314.965.965 0 0 1-1.041-.346.94.94 0 0 1-.188-.535c-.491-26.664-18.128-48.624-32.541-69.892-6.918-10.245-12.597-21.919-11.786-33.508q.086-1.05 1.046-.609m-105.651 71.131c26.306-2.246 48.577 11.652 52.399 37.518q2.22 15.158 5.06 27.461a.8.8 0 0 1-.104.574.845.845 0 0 1-1.059.324.83.83 0 0 1-.417-.415c-4.683-11.043-7.354-18.58-12.479-27.944-11.33-21.683-41.136-32.563-55.677-12.618q-6.62 9.027-2.221 21.499 1.068 3.065-.982.525-15.182-18.811-39.032-23.893-1.559-.336-.32-1.322 24.106-19.063 54.832-21.709" clip-rule="evenodd"/><path fill="#10F3A1" d="M252.517 234.248a4.2 4.2 0 0 0-.954-1.791 5.3 5.3 0 0 0-1.785-1.287 7 7 0 0 0-2.345-.589 8.3 8.3 0 0 0-2.548.2c-1.701.402-3.205 1.312-4.18 2.53s-1.342 2.645-1.019 3.966c.159.654.484 1.263.953 1.791.47.528 1.077.966 1.786 1.288a7 7 0 0 0 2.345.588 8.3 8.3 0 0 0 2.547-.2c1.702-.402 3.206-1.312 4.181-2.53s1.341-2.645 1.019-3.966"/></svg>