<svg xmlns="http://www.w3.org/2000/svg" fill="none" viewBox="0 0 512 512"><path fill="#10F3A1" fill-rule="evenodd" d="M256 512c141.385 0 256-114.615 256-256S397.385 0 256 0 0 114.615 0 256s114.615 256 256 256m.5-63C363.367 449 450 362.591 450 256S363.367 63 256.5 63 63 149.409 63 256s86.633 193 193.5 193" clip-rule="evenodd"/><path fill="#000" fill-rule="evenodd" d="M450 256c0 106.591-86.633 193-193.5 193S63 362.591 63 256 149.633 63 256.5 63 450 149.409 450 256" clip-rule="evenodd"/><path fill="#10F3A1" d="M182.116 202.088c-1.793-2.227-4.513-3.464-7.419-3.464h-59.904c-.495 0-.927-.186-1.298-.495-.31-.309-.495-.68-.495-1.113V156.62c0-.433.185-.804.495-1.113.371-.371.803-.557 1.298-.495h63.305c15.95 0 29.736 6.557 41.358 19.61l15.393 18.806-29.983 36.56zm110.66-27.652c11.56-12.929 25.408-19.424 41.544-19.424h63.119c.433-.062.866.124 1.175.371.309.309.432.742.371 1.237v40.396q0 .65-.371 1.113c-.309.371-.742.557-1.175.495h-59.905c-2.843-.062-5.564 1.237-7.418 3.464l-44.14 53.757 44.325 54.129c1.793 2.041 4.451 3.279 7.172 3.217h59.904c.433-.062.928.185 1.175.495.247.371.433.866.371 1.299v40.395q0 .65-.371 1.113c-.309.372-.742.557-1.175.495H334.32c-16.136 0-29.86-6.557-41.359-19.61l-36.721-44.849-36.722 44.849c-11.561 13.053-25.409 19.61-41.544 19.61h-63.181c-.433.062-.928-.185-1.175-.495a1.7 1.7 0 0 1-.371-1.299v-40.395q0-.65.371-1.113c.309-.372.742-.557 1.175-.495h59.904c2.844 0 5.564-1.299 7.419-3.465z"/></svg>
