<svg xmlns="http://www.w3.org/2000/svg" fill="none" viewBox="0 0 512 512"><path fill="#10F3A1" fill-rule="evenodd" d="M256 512c141.385 0 256-114.615 256-256S397.385 0 256 0 0 114.615 0 256s114.615 256 256 256m.5-63C363.367 449 450 362.591 450 256S363.367 63 256.5 63 63 149.409 63 256s86.633 193 193.5 193" clip-rule="evenodd"/><path fill="#000" fill-rule="evenodd" d="M450 256c0 106.591-86.633 193-193.5 193S63 362.591 63 256 149.633 63 256.5 63 450 149.409 450 256" clip-rule="evenodd"/><path fill="#10F3A1" d="M373 254.112c0 28.975-10.839 57.103-30.316 78.623-19.477 21.519-46.236 35.075-75.198 37.955 1.355-16.605-3.726-33.211-14.396-46.089a65.2 65.2 0 0 0-42.341-23.214V146.175c17.784-7.455 37.091-10.505 56.399-8.641a117.66 117.66 0 0 1 53.688 18.978 117.3 117.3 0 0 1 38.306 42.26A117.4 117.4 0 0 1 373 254.112M139.447 372.724c-1.185-9.828 0-19.656 3.388-28.975s8.637-17.623 15.75-24.57q2.657 3.999 5.62 7.749a116.43 116.43 0 0 0 91.765 44.271c3.895 0 7.621-.17 11.516-.509-1.355 15.928-8.468 30.839-20.154 41.853a64.37 64.37 0 0 1-43.018 17.453c-15.921.17-31.502-5.422-43.527-16.097-11.855-10.675-19.477-25.247-21.34-41.175m-.338-118.612a116.9 116.9 0 0 1 15.253-57.793 116.84 116.84 0 0 1 41.653-42.587l.169-.101v147.756l-.169.019c-13.994 1.557-27.14 7.816-37.43 17.773a115.53 115.53 0 0 1-19.476-65.067"/><path fill="#10F3A1" fill-rule="evenodd" d="M210.749 301.387c16.598 1.864 31.841 10.167 42.341 23.214a65.2 65.2 0 0 0-42.341-23.214m-14.734.019.169-.019V153.631l-.169.101z" clip-rule="evenodd"/></svg>
