<svg xmlns="http://www.w3.org/2000/svg" fill="none" viewBox="0 0 512 512"><path fill="#10F3A1" fill-rule="evenodd" d="M256 512c141.385 0 256-114.615 256-256S397.385 0 256 0 0 114.615 0 256s114.615 256 256 256m.5-63C363.367 449 450 362.591 450 256S363.367 63 256.5 63 63 149.409 63 256s86.633 193 193.5 193" clip-rule="evenodd"/><path fill="#000" fill-rule="evenodd" d="M450 256c0 106.591-86.633 193-193.5 193S63 362.591 63 256 149.633 63 256.5 63 450 149.409 450 256" clip-rule="evenodd"/><path fill="#10F3A1" d="M285.335 265.41q46.492.127 92.958-.253c12.412-.102 14.548-18.767-3.255-18.742q-43.059.051-88.33-.127-5.57-.025-1.628-3.956a26185 26185 0 0 0 96.749-96.575c11.139-11.159-2.34-24.118-12.234-14.253l-99.189 98.908q-2.365 2.36-2.391-.989-.026-43.443.025-86.811c.026-17.55-18.286-17.068-18.337-3.981q-.102 45.878-.153 89.473 0 4.008-2.848 1.192-30.85-30.788-61.6-61.424c-7.858-7.786-18.693-2.435-15.768 9.358a4.45 4.45 0 0 0 1.195 2.08l63.965 63.808q3.306 3.297-1.348 3.297-44 0-90.67.025c-12.335 0-11.623 18.894 1.755 18.92q44.94.127 88.101.076 3.026-.025.89 2.105a21962 21962 0 0 0-99.393 99.237c-7.655 7.659 1.806 18.286 9.665 15.166q2.848-1.14 8.393-6.695a19730 19730 0 0 1 96.188-95.814q1.247-1.267 1.272.507.712 45.193.127 90.438c-.229 17.778 18.821 14.937 18.668 2.815q-.56-47.273.051-94.622.025-1.674 1.221-.507l70.017 69.59a4.33 4.33 0 0 0 2.213 1.167c9.69 1.75 16.481-8.877 8.978-16.13a2629 2629 0 0 1-65.872-65.938q-1.323-1.37.585-1.345"/></svg>
