<svg xmlns="http://www.w3.org/2000/svg" fill="none" viewBox="0 0 512 512"><path fill="#10F3A1" fill-rule="evenodd" d="M256 512c141.385 0 256-114.615 256-256S397.385 0 256 0 0 114.615 0 256s114.615 256 256 256m.5-63C363.367 449 450 362.591 450 256S363.367 63 256.5 63 63 149.409 63 256s86.633 193 193.5 193" clip-rule="evenodd"/><path fill="#000" fill-rule="evenodd" d="M450 256c0 106.591-86.633 193-193.5 193S63 362.591 63 256 149.633 63 256.5 63 450 149.409 450 256" clip-rule="evenodd"/><path fill="#10F3A1" d="M224.901 333.675c0-17.592-8.204-31.854-18.323-31.854s-18.323 14.262-18.323 31.854c0 17.593 8.203 31.854 18.323 31.854 10.119 0 18.323-14.261 18.323-31.854m99.844 0c0-17.592-8.203-31.854-18.323-31.854s-18.323 14.262-18.323 31.854c0 17.593 8.203 31.854 18.323 31.854s18.323-14.261 18.323-31.854"/><path fill="#10F3A1" fill-rule="evenodd" d="M282.187 153.815C279.507 133.31 268.965 118 256.359 118s-23.147 15.31-25.827 35.815c-14.172-11.481-30.383-14.956-38.01-7.504-8.493 8.3-3.128 26.996 11.983 41.76a68 68 0 0 0 5.3 4.662c-33.846 7.3-65.317 23.189-91.296 46.508-27.15 24.37-46.546 55.264-56.509 89.336 8.119 28.149 22.207 53.774 40.81 75.423l2.986-34.239c3.136-36.059 19.885-69.401 47.16-93.882 27.275-24.483 62.694-37.966 99.731-37.966h7.625c37.038 0 72.457 13.483 99.732 37.966 27.276 24.481 44.023 57.823 47.159 93.882l3.017 34.203c18.588-21.642 32.666-47.255 40.78-75.389-9.963-34.071-29.36-64.965-56.51-89.334-26.035-23.368-57.587-39.278-91.516-46.556a68 68 0 0 0 5.24-4.614c15.11-14.764 20.475-33.46 11.982-41.76-7.628-7.452-23.838-3.977-38.009 7.504" clip-rule="evenodd"/></svg>
