<svg xmlns="http://www.w3.org/2000/svg" fill="none" viewBox="0 0 512 512"><path fill="#10F3A1" fill-rule="evenodd" d="M256 512c141.385 0 256-114.615 256-256S397.385 0 256 0 0 114.615 0 256s114.615 256 256 256m.5-63C363.367 449 450 362.591 450 256S363.367 63 256.5 63 63 149.409 63 256s86.633 193 193.5 193" clip-rule="evenodd"/><path fill="#000" fill-rule="evenodd" d="M450 256c0 106.591-86.633 193-193.5 193S63 362.591 63 256 149.633 63 256.5 63 450 149.409 450 256" clip-rule="evenodd"/><path fill="#10F3A1" d="M171.227 311.469c0 49.447 43.373 89.531 96.879 89.531S365 360.916 365 311.455c0-49.447-43.373-89.531-96.894-89.531v70.193a18.15 18.15 0 0 1 9.029 4.333 18.206 18.206 0 0 1 .189 27.027 18.15 18.15 0 0 1-26.869-2.628 18.2 18.2 0 0 1-3.496-9.394z"/><path fill="#10F3A1" d="m340.773 199.531-75.746.014a18.2 18.2 0 0 0-3.49-9.398 18.16 18.16 0 0 0-17.9-7.099 18.15 18.15 0 0 0-8.971 4.456 18.19 18.19 0 0 0-5.181 18.564 18.2 18.2 0 0 0 5.364 8.467 18.16 18.16 0 0 0 9.03 4.334v70.207c-53.506 0-96.879-40.084-96.879-89.545C147 150.084 190.373 110 243.894 110c53.506 0 96.879 40.084 96.879 89.531"/></svg>
