<svg xmlns="http://www.w3.org/2000/svg" fill="none" viewBox="0 0 512 512"><path fill="#10F3A1" fill-rule="evenodd" d="M256 512c141.385 0 256-114.615 256-256S397.385 0 256 0 0 114.615 0 256s114.615 256 256 256m.5-63C363.367 449 450 362.591 450 256S363.367 63 256.5 63 63 149.409 63 256s86.633 193 193.5 193" clip-rule="evenodd"/><path fill="#000" fill-rule="evenodd" d="M450 256c0 106.591-86.633 193-193.5 193S63 362.591 63 256 149.633 63 256.5 63 450 149.409 450 256" clip-rule="evenodd"/><path fill="#10F3A1" d="M228.104 342.666c-10.437 3.467-21.737 5.334-33.467 5.334C139.623 348 95 306.617 95 255.5s44.623-92.5 99.637-92.5c11.73 0 22.982 1.867 33.467 5.334-38.59 12.757-66.217 46.983-66.217 87.166s27.627 74.409 66.217 87.166M318.363 163c-11.73 0-22.982 1.867-33.467 5.334 38.59 12.757 66.217 46.983 66.217 87.166s-27.627 74.409-66.217 87.166c10.437 3.467 21.737 5.334 33.467 5.334C373.424 348 418 306.573 418 255.5S373.377 163 318.363 163"/></svg>