<svg xmlns="http://www.w3.org/2000/svg" fill="none" viewBox="0 0 512 512"><path fill="#10F3A1" fill-rule="evenodd" d="M256 512c141.385 0 256-114.615 256-256S397.385 0 256 0 0 114.615 0 256s114.615 256 256 256m.5-63C363.367 449 450 362.591 450 256S363.367 63 256.5 63 63 149.409 63 256s86.633 193 193.5 193" clip-rule="evenodd"/><path fill="#000" fill-rule="evenodd" d="M450 256c0 106.591-86.633 193-193.5 193S63 362.591 63 256 149.633 63 256.5 63 450 149.409 450 256" clip-rule="evenodd"/><path fill="#10F3A1" d="M281.6 229.989V113h-66.923a83.73 83.73 0 0 0-59.169 24.481A83.53 83.53 0 0 0 131 196.582a83.54 83.54 0 0 0 24.508 59.101 83.73 83.73 0 0 0 59.169 24.48H231.4v-50.331zm16.74.848h-16.75v50.331H231.4V398h66.94a83.7 83.7 0 0 0 59.157-24.481A83.54 83.54 0 0 0 382 314.418a83.54 83.54 0 0 0-24.503-59.101 83.7 83.7 0 0 0-59.157-24.48"/></svg>
