<svg xmlns="http://www.w3.org/2000/svg" fill="none" viewBox="0 0 512 512"><path fill="#10F3A1" fill-rule="evenodd" d="M256 512c141.385 0 256-114.615 256-256S397.385 0 256 0 0 114.615 0 256s114.615 256 256 256m.5-63C363.367 449 450 362.591 450 256S363.367 63 256.5 63 63 149.409 63 256s86.633 193 193.5 193" clip-rule="evenodd"/><path fill="#000" fill-rule="evenodd" d="M450 256c0 106.591-86.633 193-193.5 193S63 362.591 63 256 149.633 63 256.5 63 450 149.409 450 256" clip-rule="evenodd"/><path fill="#10F3A1" d="m401.837 205.52-63.109-91.987c-9.899-14.295-32.173-6.837-31.554 10.566.619 16.16 6.806 32.942 21.036 54.074-6.187-4.351-93.425-70.855-197.988-35.428-11.137 4.351-17.324 13.674-14.23 24.862 2.475 9.944 12.993 16.16 23.511 14.916 22.274-3.729 43.929-5.593 65.584-3.729 21.654 1.865 42.691 7.459 62.49 16.782 19.798 9.323 37.122 23.618 53.828 39.156 18.561 18.025 41.453 55.938 41.453 55.938a11.76 11.76 0 0 0 5.953 4.842c2.467.902 5.163.947 7.659.131 6.187-2.486 9.281-9.323 6.806-15.539a241 241 0 0 0-17.943-37.292c8.043 3.108 14.849 6.837 23.511 4.351 6.806-1.243 12.993-6.215 15.468-12.431a29.94 29.94 0 0 0-2.475-29.212M111.383 305.707l63.186 92.919c9.911 14.344 31.593 6.237 30.973-11.225A102.05 102.05 0 0 0 185.1 333.77c5.575 4.365 93.54 70.469 197.611 34.922 11.77-4.365 17.345-13.719 14.247-24.944-2.477-9.978-13.008-16.215-23.539-14.344-21.682 3.742-43.983 4.989-65.664 3.118s-42.744-7.483-61.947-16.837c-19.204-9.355-37.788-23.698-53.894-39.289-18.584-18.085-41.504-55.502-41.504-55.502a11.8 11.8 0 0 0-6.489-5.347 11.7 11.7 0 0 0-8.379.358c-5.575 2.495-8.053 9.355-6.194 15.591a242 242 0 0 0 17.964 36.793c-8.053-3.118-14.867-6.236-23.54-4.365-6.814 1.247-13.008 6.236-15.486 13.096a30.1 30.1 0 0 0-2.112 14.744 30.06 30.06 0 0 0 5.209 13.943"/></svg>
