<svg xmlns="http://www.w3.org/2000/svg" fill="none" viewBox="0 0 512 512"><path fill="#10F3A1" fill-rule="evenodd" d="M256 512c141.385 0 256-114.615 256-256S397.385 0 256 0 0 114.615 0 256s114.615 256 256 256m.5-63C363.367 449 450 362.591 450 256S363.367 63 256.5 63 63 149.409 63 256s86.633 193 193.5 193" clip-rule="evenodd"/><path fill="#000" fill-rule="evenodd" d="M450 256c0 106.591-86.633 193-193.5 193S63 362.591 63 256 149.633 63 256.5 63 450 149.409 450 256" clip-rule="evenodd"/><path fill="#10F3A1" fill-rule="evenodd" d="M151.879 269.608v58.681c-20.059 8.256-52.4 17.716-75.879 23.743A207.5 207.5 0 0 0 112.388 399c50.569-14.851 103.536-38.108 143.96-64.807 40.332 26.637 92.765 49.859 143.206 64.716A207.5 207.5 0 0 0 436 351.762c-22.511-5.793-53.542-14.713-72.487-22.373v-58.751a437 437 0 0 0 49.201 15.021l12.797-52.611c-57.071-13.817-108.83-40.171-151.883-75.746L256.321 143l-17.307 14.302c-43.052 35.575-94.811 61.929-151.883 75.746l12.797 52.611a437 437 0 0 0 51.951-16.051m88.533 9.748c-10.855 7.859-22.295 15.287-34.269 22.241v-56.931a429 429 0 0 0 50.178-32.108 429 429 0 0 0 52.928 33.597v56.995c-12.956-7.397-25.299-15.346-36.967-23.794l-15.934-11.536z" clip-rule="evenodd"/></svg>
