<svg xmlns="http://www.w3.org/2000/svg" fill="none" viewBox="0 0 512 512"><path fill="#10F3A1" fill-rule="evenodd" d="M256 512c141.385 0 256-114.615 256-256S397.385 0 256 0 0 114.615 0 256s114.615 256 256 256m.5-63C363.367 449 450 362.591 450 256S363.367 63 256.5 63 63 149.409 63 256s86.633 193 193.5 193" clip-rule="evenodd"/><path fill="#000" fill-rule="evenodd" d="M450 256c0 106.591-86.633 193-193.5 193S63 362.591 63 256 149.633 63 256.5 63 450 149.409 450 256" clip-rule="evenodd"/><path fill="#10F3A1" d="M372 255.913c0 28.678-10.747 56.518-30.057 77.818a116.08 116.08 0 0 1-74.555 37.567c1.343-16.436-3.694-32.872-14.273-45.618a64.67 64.67 0 0 0-41.979-22.976V149.082c17.631-7.38 36.774-10.399 55.916-8.554a116.8 116.8 0 0 1 53.23 18.784 116.2 116.2 0 0 1 37.979 41.828A116.04 116.04 0 0 1 372 255.913M140.443 373.31c-1.175-9.727 0-19.454 3.359-28.678s8.563-17.442 15.616-24.318a115.4 115.4 0 0 0 41.779 37.896 115.6 115.6 0 0 0 54.773 13.591c3.862 0 7.556-.168 11.418-.503-1.343 15.764-8.396 30.523-19.982 41.424a63.88 63.88 0 0 1-42.651 17.274c-15.784.168-31.232-5.366-43.154-15.932-11.754-10.566-19.31-24.989-21.158-40.754m-.335-117.397a115.56 115.56 0 0 1 15.123-57.202 115.75 115.75 0 0 1 41.296-42.15l.168-.1v146.243l-.168.019c-13.874 1.54-26.907 7.736-37.109 17.591a114.2 114.2 0 0 1-19.31-64.401"/><path fill="#fff" fill-rule="evenodd" d="M211.136 302.704c16.456 1.845 31.568 10.063 41.979 22.976a64.67 64.67 0 0 0-41.979-22.976m-45.37 26.248q-.39-.48-.774-.966a115 115 0 0 1 .774.966m30.761-26.229.168-.019V156.461l-.168.1z" clip-rule="evenodd"/></svg>