<svg xmlns="http://www.w3.org/2000/svg" fill="none" viewBox="0 0 512 512"><path fill="#10F3A1" fill-rule="evenodd" d="M256 512c141.385 0 256-114.615 256-256S397.385 0 256 0 0 114.615 0 256s114.615 256 256 256m.5-63C363.367 449 450 362.591 450 256S363.367 63 256.5 63 63 149.409 63 256s86.633 193 193.5 193" clip-rule="evenodd"/><path fill="#000" fill-rule="evenodd" d="M450 256c0 106.591-86.633 193-193.5 193S63 362.591 63 256 149.633 63 256.5 63 450 149.409 450 256" clip-rule="evenodd"/><path fill="#10F3A1" d="m336.165 148.782-55.074 10.531-3.363-4.016q6.459-.404 9.622-1.026c3.103-.609 5.065-2.544 7.344-4.793l.155-.152c11.537-11.368 22.568-23.193 34.562-34.063a76.5 76.5 0 0 1 9.762-7.515c2.03-1.319 4.507-2.682 6.78-1.951 4.823 1.55 6.404 8.718 6.263 13.223-.281 8.875-4.651 17.584-10.549 23.825-1.364 1.446-3.916 3.63-5.716 5.671q-.08.09.009.171.094.09.205.095m19.249-39.218q.338.915.314 1.902zm-120.091 12.233c5.073.011 8.83.087 13.317 1.736 6.115 2.249 10.233 6.641 13.293 12.48a.75.75 0 0 1 .102.363q-.046.1-.221.177-12.298 5.406-41.597 18.41-4.446 1.889-8.897 3.785-.46.195-.051.59l-1.101.035a2.5 2.5 0 0 0-.011-.429c-1.794-15.506 3.569-33.049 20.414-36.298a43 43 0 0 1 4.385-.593.3.3 0 0 0 .179-.081zm118.636 3.969a5.6 5.6 0 0 1-.702 1.961 6.7 6.7 0 0 1 .702-1.961"/><path fill="#10F3A1" d="m277.728 155.297 3.363 4.016 3.052 4.41q-2.538-.51-4.443 1.238c-2.213 2.032-3.518 5.254-4.12 8.202-8.695 14.708-1.833 31.291 6.568 43.923.934 1.402-2.171 7.659-3.018 9.438q-.031.066.026.11l.064.047q-1.712 2.375-4.586 2.597l-.113.008c-2.065.16-4.458.345-6.486-.002a765 765 0 0 1 4.699-11.22c.765-1.788-1.528-3.723-2.51-5.146-2.996-4.347-4.686-9.795-5.736-14.865-1.343-6.481-1.763-12.597-2.019-19.528-.195-5.231-2.866-9.92-6.456-13.686-.053-.055-.048-.035-.123-.046a131 131 0 0 0 5.086-9.38 367 367 0 0 0 16.752-.116m-36.191 36.333q3.478-2.451 4.485-6.716a.14.14 0 0 0-.001-.067.14.14 0 0 0-.033-.057l-.014-.012-.01-.006-.014-.007-.008-.003-.011-.003a.1.1 0 0 0-.064.003q-3.147 1.014-4.679-1.979c-.737-1.437-.462-3.405.67-4.555q1.013-1.031 2.596-1.304 3.082.123 6.042 1.011c2.373.71 3.914 1.907 3.892 4.576-.038 4.432-2.344 10.957-7.565 10.549q-2.592-.2-5.286-1.43m-14.852-12.215a16.5 16.5 0 0 0-.336 5.443 24.6 24.6 0 0 1-3.465-1.72.49.49 0 0 1-.23-.445q.08-1.264 1.154-1.995a8.8 8.8 0 0 1 2.877-1.283"/><path fill="#10F3A1" d="M283.404 194.165q2.38-1.806 3.105-4.735a.1.1 0 0 0 .001-.043.1.1 0 0 0-.017-.039.1.1 0 0 0-.032-.028.1.1 0 0 0-.04-.01c-3.198-.055-3.899-4.112-1.261-5.757a.18.18 0 0 0 .083-.121.2.2 0 0 0-.032-.146l-.528-.732c4.186-.472 4.451 3.049 4.451 6.299 0 2.32-.051 3.695-2.176 4.608q-1.857.798-3.554.704m-102.98-5.969c3.432 3.946-.002 13.257-1.904 17.093q-.666 1.347-.069-.033c2.002-4.61 4.647-12.549 1.902-17.005l-.008-.034.017-.03.033-.009zm65.293 22.051a42 42 0 0 0-5.197-5.323c.066-.106.108-.173.095-.309q-.374-3.745 2.656-5.692c1.128-.724 2.521-1.596 3.886-1.402a.15.15 0 0 1 .069.028q.03.023.047.06l.009.027a.16.16 0 0 1-.019.122c-2.296 3.716-2.287 7.897-1.296 12.199a.25.25 0 0 1-.047.214q-.07.093-.203.076"/><path fill="#10F3A1" fill-rule="evenodd" d="M226.349 184.858q.21.273.464.404a141 141 0 0 0 14.269 6.407q.141.054.455-.039 3.478-2.451 4.485-6.716a.14.14 0 0 0-.001-.067.14.14 0 0 0-.033-.057l-.014-.012-.01-.006-.014-.007-.008-.003-.011-.003a.1.1 0 0 0-.064.003q-3.147 1.014-4.679-1.979c-.737-1.437-.462-3.405.67-4.555q1.013-1.031 2.596-1.304-5.283-.453-10.199.519-3.47.688-7.57 1.972a16.5 16.5 0 0 0-.336 5.443m12.187-3.272a2.4 2.4 0 0 1 .659 1.66c0 .623-.237 1.22-.659 1.661-.422.44-.995.687-1.592.687s-1.17-.247-1.592-.687a2.4 2.4 0 0 1-.659-1.661 2.4 2.4 0 0 1 .659-1.66c.422-.44.995-.688 1.592-.688s1.17.248 1.592.688m46.147.968q-3.194.146-5.792 1.963c-1.046.731-1.772 1.592-2.216 2.772-1.053 2.794-1.891 7.39 2.601 7.316 1.725-.03 2.996.07 4.128-.44q2.38-1.806 3.105-4.735a.1.1 0 0 0 .001-.043.1.1 0 0 0-.017-.039.1.1 0 0 0-.032-.028.1.1 0 0 0-.04-.01c-3.198-.055-3.899-4.112-1.261-5.757a.18.18 0 0 0 .083-.121.2.2 0 0 0-.032-.146zm-1.598 6.5a1.45 1.45 0 0 1-1.082.519 1.4 1.4 0 0 1-.588-.129 1.5 1.5 0 0 1-.501-.374 1.8 1.8 0 0 1-.336-.563 1.9 1.9 0 0 1-.121-.667 1.87 1.87 0 0 1 .441-1.236 1.45 1.45 0 0 1 1.082-.518c.201-.002.401.042.588.128s.357.213.5.374.258.353.337.564c.078.211.119.437.121.666.003.462-.156.907-.441 1.236" clip-rule="evenodd"/><path fill="#10F3A1" d="m260.976 155.413-11.27-.298c-1.873.111-3.77.058-5.65.095q-5.71.108-12.156 1.49c-7.477 1.6-11.447 9.253-13.267 16.308a.1.1 0 0 0 .002.057.1.1 0 0 0 .032.045.1.1 0 0 0 .051.02.1.1 0 0 0 .052-.013c5.222-3.324 11.425-6.184 17.59-6.59q1.409-.094 4.412.141c4.584.36 9.142.433 13.711-.217a.28.28 0 0 0 .184-.106l1.223-1.552a131 131 0 0 0 5.086-9.38"/><path fill="#10F3A1" d="m355.728 111.466-.314-1.902c-1.478-6.265-6.212-9.364-12.334-8.387q-1.368.217-3.56 1.174-3.225 1.405-6.385 2.909-5.592 4.391-9.786 8.335a94 94 0 0 0-2.383 2.318q-9.156 9.242-20.892 22.402c-3.182 3.568-6.512 6.993-9.905 10.34-1.988 1.963-4.201 3.137-6.957 3.406-9.79.964-19.282.24-28.284.441-1.13.025-2.435-.148-3.669-.097-.65.025-1.201-.251-1.845-.251q-5.34.006-7.58.175c-1.004.076-2.059-.028-2.712.005-4.557.216-8.454.403-12.755 1.109a40 40 0 0 0-6.15 1.52q-4.446 1.889-8.897 3.785-.46.195-.051.59l1.343.053c.566-.094 1.079-.048 1.636-.293 6.579-2.892 14.527-4.975 21.697-4.479.656.044 1.368-.041 1.972-.011q3.007.156 6.015.253c.726.023 2.355-.209 2.731.136a.3.3 0 0 0 .193.079l2.85.039 11.27.298a367 367 0 0 0 16.752-.116q6.459-.404 9.622-1.026c3.103-.609 5.065-2.544 7.344-4.793l.155-.152c11.537-11.368 22.568-23.193 34.562-34.063a76.5 76.5 0 0 1 9.762-7.515c2.03-1.319 4.507-2.682 6.78-1.951 4.823 1.55 6.404 8.718 6.263 13.223-.281 8.875-4.651 17.584-10.549 23.825-1.364 1.446-3.916 3.63-5.716 5.671q-.08.09.009.171.094.09.205.095 4.454-3.065 7.201-5.762 6.365-6.243 9.891-15.293a6.7 6.7 0 0 1 .702-1.961c1.565-4.758 2.406-9.246 1.769-14.3"/><path fill="#10F3A1" fill-rule="evenodd" d="M221.879 123.875c-8.864 2.636-16.93 7.744-23.076 15.176-7.797 9.429-15.159 22.52-14.027 35.456l23.139-14.688s-1.789-19.922 5.396-28.395c3.095-3.65 5.99-6.026 8.568-7.549" clip-rule="evenodd"/><path fill="#10F3A1" d="M170.654 210.321a.4.4 0 0 0 .011.229q.175.415.358.826s-2.686-13.323 1.61-24.087c2.533-6.345 11.058-9.701 11.058-9.701a20 20 0 0 0-1.489.151c-6.053 1.326-10.045 5.604-11.887 11.686q-3.153 10.418.325 20.682.038.105.014.214m49.563-55.358a40 40 0 0 1 6.15-1.52l96.982-39.848q4.194-3.944 9.786-8.335a473 473 0 0 0-9.812 4.168 66524 66524 0 0 1-61.098 26.913.4.4 0 0 1-.19.035q-.046.1-.221.177-12.298 5.406-41.597 18.41"/><path fill="#10F3A1" fill-rule="evenodd" d="m211.269 159.338 1.343.053a27.7 27.7 0 0 0-5.35 7.851c-1.435 3.144-1.539 6.066-1.112 9.482.334 2.673-1.254 3.529-3.097 4.524q-.346.186-.7.384c-9.001 5.072-11.381 15.554-9.7 25.363 1.192 6.952 5.299 11.791 12.645 11.233a.18.18 0 0 0 .159-.118c4.37-10.736 13.243-16.602 24.45-16.814q5.754-.108 10.613 3.628a42 42 0 0 1 5.197 5.323q3.465 4.684 6.959 9.337c3.835 5.104 8.908 9.08 15.359 9.7 2.028.347 4.421.162 6.486.002l.113-.008q2.874-.222 4.586-2.597a20.4 20.4 0 0 0 3.844-5.061q.26-.483.516-.963c2.111-3.957 4.055-7.602 8.692-8.966 1.485-.436 3.17-.793 4.972-.77 13.572.171 0 39.2 79.82 69.722-13.23 5.736-27.796 3.313-38.464-6.4q-.294-.266-.051.051l2.335 3.07 9.001 11.832 1.376 1.846c7.77 10.425 14.737 19.773 21.106 30.48 3.89 6.541 9.465 11.553 15.562 15.765 2.762 1.907 5.817 4.158 8.838 5.89-.01-.02.019.011 0 0-.085-.286.335-.02 0 0-.626.037.756.037 0 0-28.479-1.421-57.079-17.291-71.882-42.578q-.025-.044-.071-.047-.058-.006-.031.049.19.387.601 1.365.636 1.512 1.254 3.023 6.054 14.797 10.478 29.608c.672 2.251 1.305 4.66 1.933 7.05v.001q.304 1.16.608 2.304c1.539 6.368 2.656 12.921 2.979 19.482.741 14.964 1.899 30.496 6.568 44.754.358 1.091 1.112 2.786 1.683 3.782-72.219-20.411-107.518-52.936-133.845-123.328-4.571 21.994-20.707 57.54-37.463 72.015-18.293 15.804-42.876 19.059-65.888 15.501 6.002-2.899 11.453-6.902 16.285-11.594 13.152-12.759 22.446-28.92 29.43-46.04a226 226 0 0 0 7.687-22.462l-.001-.038-.021-.03-.033-.012-.033.011c-13.614 9.541-28.857 16.975-44.683 20.868-3.545.872-18.688 1.959-22.322 1.603a155 155 0 0 0 34.981-28.537 95 95 0 0 0 5.581-6.682 99.7 99.7 0 0 0 12.895-20.748 104 104 0 0 0 2.714-6.417l.005-.025-.005-.027a.07.07 0 0 0-.031-.04.07.07 0 0 0-.049-.009.07.07 0 0 0-.044.025 226 226 0 0 1-18.231 20.559c-4.273 4.267-10.579 8.572-16.106 10.994a213.2 213.2 0 0 0 30.887-37.436c8.138-12.536 14.246-25.041 18.068-39.571q.175.415.358.826a44.5 44.5 0 0 0 4.779 8.249q.019.025.045.039.015.007.029.01t.029.003a.13.13 0 0 0 .057-.016.1.1 0 0 0 .043-.04c7.975-11.588 14.286-27.311 11.195-41.841q-.024-.113-.135-.124a20.4 20.4 0 0 0-4.863.083l27.966-18.366zm15.693 69.693c1.351-1.712 3.332-1.908 4.299.366q6.394 15.066 21.387 19.912c8.837 2.855 17.884.228 25.949-3.801q.627-.314.995-.616.308-.252-.04-.067c-11.555 6.16-25.507 5.349-36.142-2.429q-6.306-4.612-8.797-12.489c-.48-1.513-.599-3.443 1.124-4.117 2.185-.851 5.077.704 6.921 2.055q.204.148.076-.071a8.7 8.7 0 0 0-1.661-2.03c-3.97-3.628-9.821-3.981-13.322.526a16.85 16.85 0 0 0-3.109 6.518q-.033.136.024.007.84-1.922 2.296-3.764" clip-rule="evenodd"/><path fill="#10F3A1" fill-rule="evenodd" d="M350.887 411.97c-9.823.206-22.069-.666-31.764-2.262-.093-.016.468-.011 0 0-38.643-6.371-75.427-23.982-103.61-52.305a.114.114 0 0 0-.15-.014c-17.062 12.067-36.808 20.691-57.093 24.065q-1.487.247-6.65.706c-12.577 1.116-26.277-.834-37.929-6.002 51.954 6.327 75.931-1.244 103.904-72.966 14.129 52.081 58.127 90.61 118.552 105.886l.393.099c2.47.625 11.823 2.446 14.347 2.793m-191.691-93.423q.107-.023.21-.023a226 226 0 0 0 6.855-19.615c-21.208 18.402-38.48 23.499-66.261 19.555 18.52 4.217 40.664 4.248 59.196.083m-37.486-30.99c6.178-.178 13.209-1.786 18.852-4.312a99.7 99.7 0 0 0 12.895-20.748c-10.695 16.707-13.031 18.551-31.747 25.06m255.354-6.914c-9.188 5.852-28.19 4.129-36.18-3.279l9.001 11.832a12 12 0 0 1 1.771-.028c8.917.542 18.616-2.712 25.408-8.525m-.908 67.782c6.264-.983 14.658-2.997 20.611-5.248-15.88 1.731-53.57-4.977-70.129-38.188q6.054 14.797 10.478 29.608c.672 2.251 1.305 4.66 1.933 7.05v.001q.304 1.16.608 2.304l.053-.032a.08.08 0 0 1 .078-.005c11.002 5.349 24.45 6.293 36.368 4.51" clip-rule="evenodd"/><path fill="#10F3A1" d="M284.143 163.723q-2.538-.51-4.443 1.238c-2.213 2.032-3.518 5.254-4.12 8.202 4.023-2.397 8.302-.127 10.993 3.171q1.451 1.783 2.442 2.848c.464-4.458.329-10.93-2.99-14.329-.517-.531-1.219-.826-1.882-1.13"/></svg>