<svg xmlns="http://www.w3.org/2000/svg" fill="none" viewBox="0 0 512 512"><path fill="#10F3A1" fill-rule="evenodd" d="M256 512c141.385 0 256-114.615 256-256S397.385 0 256 0 0 114.615 0 256s114.615 256 256 256m.5-63C363.367 449 450 362.591 450 256S363.367 63 256.5 63 63 149.409 63 256s86.633 193 193.5 193" clip-rule="evenodd"/><path fill="#000" fill-rule="evenodd" d="M450 256c0 106.591-86.633 193-193.5 193S63 362.591 63 256 149.633 63 256.5 63 450 149.409 450 256" clip-rule="evenodd"/><path fill="#10F3A1" d="M400.016 211.076 292.301 398.54a36.8 36.8 0 0 1-13.444 13.513 36.63 36.63 0 0 1-36.762 0 36.8 36.8 0 0 1-13.443-13.513l-18.769-32.745v-.818a31 31 0 0 0 12.008 7.527 30.9 30.9 0 0 0 14.093 1.387 30.96 30.96 0 0 0 13.238-5.042 31.1 31.1 0 0 0 9.622-10.421l89.762-156.357a31.18 31.18 0 0 0 2.459-28.125 31.1 31.1 0 0 0-8.396-11.823 31 31 0 0 0-12.831-6.714h38.353a36.63 36.63 0 0 1 18.845 4.577 36.8 36.8 0 0 1 13.894 13.568 36.93 36.93 0 0 1 5.07 18.774 36.9 36.9 0 0 1-5.168 18.748zm-127.299-55.667H235.18a18.76 18.76 0 0 1 7.119 4.438 18.8 18.8 0 0 1 4.485 7.104 18.9 18.9 0 0 1 .954 8.354 18.86 18.86 0 0 1-2.766 7.937l-54.673 94.142a18.8 18.8 0 0 1-5.69 5.869 18.72 18.72 0 0 1-15.771 2.261 18.75 18.75 0 0 1-7.1-4.037v.819l18.768 32.745a24.5 24.5 0 0 0 8.963 9.008 24.42 24.42 0 0 0 24.508 0 24.5 24.5 0 0 0 8.962-9.008l70.994-122.794a24.62 24.62 0 0 0-.004-24.565 24.5 24.5 0 0 0-8.967-8.988 24.4 24.4 0 0 0-12.245-3.285m-128.931 0a32.56 32.56 0 0 0-26.329 7.424 32.7 32.7 0 0 0-8.455 11.194 32.83 32.83 0 0 0 0 27.436 32.7 32.7 0 0 0 8.455 11.194 32.6 32.6 0 0 0 12.352 6.611 32.5 32.5 0 0 0 13.977.812 32.6 32.6 0 0 0 19.688-11.084 32.8 32.8 0 0 0 7.808-21.251c0-7.79-2.769-15.325-7.808-21.251a32.62 32.62 0 0 0-19.688-11.085"/></svg>