<svg xmlns="http://www.w3.org/2000/svg" fill="none" viewBox="0 0 512 512"><path fill="#10F3A1" fill-rule="evenodd" d="M256 512c141.385 0 256-114.615 256-256S397.385 0 256 0 0 114.615 0 256s114.615 256 256 256m.5-63C363.367 449 450 362.591 450 256S363.367 63 256.5 63 63 149.409 63 256s86.633 193 193.5 193" clip-rule="evenodd"/><path fill="#000" fill-rule="evenodd" d="M450 256c0 106.591-86.633 193-193.5 193S63 362.591 63 256 149.633 63 256.5 63 450 149.409 450 256" clip-rule="evenodd"/><path fill="#10F3A1" fill-rule="evenodd" d="M161.109 227.731a319 319 0 0 1-.915-18.434c-.536-26.967 2.499-45.052 2.625-45.811l2.405-14.151 11.618 8.413c.631.443 15.443 11.229 33.927 30.87a281 281 0 0 1 6.778 7.42l-.505 1.613a273.6 273.6 0 0 0-11.776 65.643 270 270 0 0 0-29.408-25.284c-4.814-3.572-9.733-7-14.749-10.279m197.693 0c.537-6.661.789-12.88.916-18.434.536-26.967-2.5-45.052-2.626-45.811l-2.404-14.151-11.612 8.413c-.638.443-15.449 11.229-33.933 30.87a288 288 0 0 0-6.772 7.42l.505 1.645a273.7 273.7 0 0 1 11.77 65.643 270 270 0 0 1 29.408-25.284q7.222-5.359 14.748-10.28z" clip-rule="evenodd"/><path fill="#10F3A1" fill-rule="evenodd" d="M259.956 414.861c-71.426 3.422-142.859-56.439-151.978-191.242L107 209.278l13.291 5.428c2.347.949 53.175 22.077 92.864 69.097a231 231 0 0 1-.095-6.63c0-55.268 18.074-106.792 46.94-153.173 28.866 46.349 46.934 97.905 46.934 153.173 0 2.214-.032 4.441-.095 6.63 39.695-47.02 90.523-68.148 92.864-69.097L413 209.278l-.985 14.341c-9.119 134.803-80.557 194.671-151.99 191.242zm-15.727-59.52c-3.641 0-5.124 1.43-5.124 4.922 0 8.502 9.365 15.384 20.857 15.384 11.517 0 20.857-6.882 20.857-15.384 0-3.492-1.489-4.89-5.13-4.89a38.5 38.5 0 0 0-5.787.607l-.19.032a67 67 0 0 1-9.75.885 67.5 67.5 0 0 1-9.782-.885 47 47 0 0 0-5.982-.633zm-37.505-33.912a16.73 16.73 0 0 1 11.865 4.921 16.8 16.8 0 0 1 4.909 11.893 16.82 16.82 0 0 1-4.909 11.893 16.762 16.762 0 0 1-27.366-5.457 16.8 16.8 0 0 1-1.273-6.436 16.8 16.8 0 0 1 4.909-11.893 16.73 16.73 0 0 1 11.865-4.921m106.439 0a16.72 16.72 0 0 1 11.868 4.918 16.8 16.8 0 0 1 4.912 11.896 16.83 16.83 0 0 1-4.912 11.895 16.75 16.75 0 0 1-11.868 4.919 16.73 16.73 0 0 1-11.865-4.921 16.84 16.84 0 0 1-4.91-11.893 16.8 16.8 0 0 1 1.274-6.437 16.8 16.8 0 0 1 9.079-9.101 16.7 16.7 0 0 1 6.422-1.276" clip-rule="evenodd"/></svg>