<svg xmlns="http://www.w3.org/2000/svg" fill="none" viewBox="0 0 512 512"><path fill="#10F3A1" fill-rule="evenodd" d="M256 512c141.385 0 256-114.615 256-256S397.385 0 256 0 0 114.615 0 256s114.615 256 256 256m.5-63C363.367 449 450 362.591 450 256S363.367 63 256.5 63 63 149.409 63 256s86.633 193 193.5 193" clip-rule="evenodd"/><path fill="#000" fill-rule="evenodd" d="M450 256c0 106.591-86.633 193-193.5 193S63 362.591 63 256 149.633 63 256.5 63 450 149.409 450 256" clip-rule="evenodd"/><path fill="#10F3A1" fill-rule="evenodd" d="M189.939 137.802 246.728 104l113.877 67.604-56.938 33.643-56.939-33.643zm142.122 219.396L389 323.555v-67.604l-56.939 33.802-56.789 33.802V391zm-113.728-67.445v67.445L275.272 391v-67.445zm142.272-50.704-56.938 33.803v-67.605l56.938-33.643zm-170.666 0 56.789-33.802-56.789-33.643L133 205.247v135.209l56.939 33.643z" clip-rule="evenodd"/></svg>