<svg xmlns="http://www.w3.org/2000/svg" fill="none" viewBox="0 0 512 512"><path fill="#10F3A1" fill-rule="evenodd" d="M256 512c141.385 0 256-114.615 256-256S397.385 0 256 0 0 114.615 0 256s114.615 256 256 256m.5-63C363.367 449 450 362.591 450 256S363.367 63 256.5 63 63 149.409 63 256s86.633 193 193.5 193" clip-rule="evenodd"/><path fill="#000" fill-rule="evenodd" d="M450 256c0 106.591-86.633 193-193.5 193S63 362.591 63 256 149.633 63 256.5 63 450 149.409 450 256" clip-rule="evenodd"/><path fill="#10F3A1" d="M256.805 333.488h-.267a78.16 78.16 0 0 1-58.208-26.03c-28.665-32.072-25.872-81.472 6.201-110.122a77.85 77.85 0 0 1 51.925-19.832 78.13 78.13 0 0 1 58.209 26.029c19.273 21.57 24.301 50.977 15.795 76.641l35.053 47.087c31.81-48.228 28.619-113.597-11.7-158.71-25.778-28.852-61.49-43.554-97.359-43.551a130.03 130.03 0 0 0-86.903 33.198c-53.745 48.011-58.381 130.496-10.372 184.236 25.778 28.852 61.49 43.56 97.365 43.56a130.7 130.7 0 0 0 36.072-5.095c-1.352-1.433-35.811-47.411-35.811-47.411"/><path fill="#10F3A1" d="m385.246 385.722-69.028-92.732-1.597-2.15a51 51 0 0 0-1.463-1.705 52 52 0 0 0-3.978-3.998 56 56 0 0 0-1.989-1.714 46 46 0 0 0-1.105-.877l-1.141-.877a61 61 0 0 0-2.504-1.755c-7.912-5.265-19.387-10.079-34.808-10.079h-34.082l.122.167-.122.094 70.624 94.902a52.8 52.8 0 0 0 8.536 8.294l1.138.878a65 65 0 0 0 2.506 1.755C324.253 381.171 335.74 386 351.163 386h34.083l-.123-.167z"/></svg>