<svg xmlns="http://www.w3.org/2000/svg" fill="none" viewBox="0 0 512 512"><path fill="#10F3A1" fill-rule="evenodd" d="M256 512c141.385 0 256-114.615 256-256S397.385 0 256 0 0 114.615 0 256s114.615 256 256 256m.5-63C363.367 449 450 362.591 450 256S363.367 63 256.5 63 63 149.409 63 256s86.633 193 193.5 193" clip-rule="evenodd"/><path fill="#000" fill-rule="evenodd" d="M450 256c0 106.591-86.633 193-193.5 193S63 362.591 63 256 149.633 63 256.5 63 450 149.409 450 256" clip-rule="evenodd"/><path fill="#10F3A1" d="M308.515 362.013c-4.928 5.649-11.278 10.656-17.481 14.431-.618.402-1.298.844-1.867.257-.422-.565 0-2.26 0-2.26s2.468-10.223 3.024-15.428c-4.46 3.753-8.922 7.42-14.888 10.156 1.825-3.955 3.285-7.909 4.198-12.24 3.833-17.513.182-33.331-9.674-47.642-2.555-3.578-5.841-6.214-8.761-9.415 8.213 9.038 12.959 19.584 13.142 32.012.182 8.474-2.008 16.571-6.206 24.103-7.484 13.37-18.253 23.35-31.213 30.694-13.141 7.533-27.744 12.24-42.711 13.935-26.831 3.013-51.838-3.013-74.654-17.701-18.982-12.24-33.767-28.999-45.631-48.395-5.476-9.227-15.515-27.869-16.793-34.272.365 17.701 3.103 39.733 8.031 56.492 10.222 34.461 37.003 73.801 65.322 95.954 10.541 6.917 40.577 18.196 68.562 17.491 31.631-.796 62.881-17.408 74.928-27.388 11.681-9.792 21.903-21.09 28.656-35.214 3.651-7.532 5.841-15.817 6.571-24.103.721-7.433-.514-14.499-2.476-21.561zm-11.806-191.454c-1.708 3.513-2.772 6.924-3.364 10.785 12.29-8.73 18.38-15.039 26.669-27.627C335.721 129.864 336.807 82 336.807 82s-4.683 37.013-15.799 57.245c-7.484 13.622-20.601 23.708-24.299 31.314"/><path fill="#10F3A1" fill-rule="evenodd" d="M261.461 266.281c-.133-.04-.268-.082-.403-.116-1.183-.282-5.408-1.093-6.611-1.27-9.64-2.899-21.681-5.133-31.72-5.886-19.53-1.507-38.878-.188-57.861 5.649-13.872 4.143-26.467 11.299-38.148 19.772q.035.037.068.067c-1.495.885-2.834 2.236-3.877 3.765a2 2 0 0 0-.207-.065c-1.825 1.129-3.488 2.594-5.151 4.059-.832.732-1.663 1.464-2.515 2.155-1.46 1.13-2.19 1.695-2.738-.942-6.023-28.623-2.358-53.993 20.593-72.142l.615-.488.002-.002c2.455-1.953 4.991-3.971 8.359-4.95v.188q-.111.513-.243 1.103l-.001.002c-1.219 5.454-3.438 15.379 3.712 16.784 10.77 4.708 30.117-13.558 35.228-19.396.396-.524.983-.075 1.969.679 2.199 1.681 6.379 4.877 14.824 2.146-9.674-2.636-15.15-6.779-15.15-16.948-.39-15.954 19.019-23.699 35.569-30.303 6.695-2.672 12.923-5.157 17.181-7.923 14.603-9.415 26.284-26.175 26.284-27.305a110 110 0 0 0 3.236 6.59c2.172 4.14 3.197 6.092 5.161 16.76 18.07-12.428 44.361-31.679 67.17-76.264 0 0-4.363 23.95-29.297 54.906 0 0-.529.825-.529 1.223l2.812-1.143s6.206-2.825 10.221-2.825a209 209 0 0 0-3.833 5.084c-12.959 17.325-28.657 30.695-48.552 38.792-.913.376-1.825 1.318-2.008 2.448-2.555 8.662-6.571 16.383-12.959 22.597q-.105.104-.216.196c-.316.27-.595.509-.149 1.122.213 0 .427-.065.604-.118.126-.038.233-.071.308-.071 11.317-4.519 22.086-10.356 32.125-17.135 1.001-.689 7.032-4.965 8.011-5.732 20.986 2.319 46.2 9.874 65 19.478 13.507 6.591 26.101 14.876 37.783 24.668 9.746 8.006 18.956 16.565 26.572 26.768l1.72 2.232s-1.766-1.317-4.198-2.637c.529-.364.498-.67.002-1.092-12.361-10.296-25.995-19.682-40.163-27.177-.949-.522-1.791-1.016-2.594-1.486l-.002-.001c-1.768-1.036-3.343-1.958-5.431-2.821a620 620 0 0 1 2.262 4.041s2.667 4.433 3.762 7.634c-10.222-5.461-20.626-9.792-31.577-12.805-11.682-3.389-28.657-6.026-33.585-5.084.182.094.365.141.547.188s.365.094.548.189c16.61 2.824 32.49 8.662 46.909 17.324 2.824 1.631 5.508 3.479 8.182 5.32l.002.001.001.001c1.646 1.133 3.289 2.264 4.957 3.34 8.579 6.967 16.61 14.311 23.729 22.973 7.849 9.416 14.419 19.961 19.713 31.259 8.031 17.325 12.594 35.967 13.507 55.175 0 0 .021 2.18 0 3.577-.753 50.814-37.099 81.391-71.733 107.197-13.874 10.338-29.169 18.791-45.528 25.009 11.803-4.704 34.456-20.132 43.155-29.39 4.162-4.434 8.546-10.23 11.681-15.441 16.61-26.551 20.991-55.739 15.333-86.621-6.571-36.155-24.276-65.343-52.751-87.563-27.379-21.467-58.956-29.941-92.906-29.376h-7.301v.753c6.936 3.201 12.996 7.086 18.8 12.052l12.412 15.253s1.008 1.452.73 1.883c-.297.46-.838.295-1.422.116m-59.563-57.941-.06.008c13.843-.906 41.45-7.166 45.179-33.596-2.588 17.306-22.944 31.573-45.119 33.588m0 0-.162.014s-.669-5.461 2.191-9.603c2.555-3.39 6.023-5.461 9.674-7.156 5.58-2.6 11.68-5.026 17.522-6.967 5.775 10.641-25.926 23.227-29.225 23.712m-60.578 45.773c-.73-3.013-2.19-4.143-5.293-3.578-3.103.753-5.444 2.362-8.214 4.896-1.246 1.139-2.921 3.201-2.921 3.201.131-1.213.287-1.756.538-2.628l.144-.506c1.706-6.081 4.247-10.235 8.81-13.437a9.65 9.65 0 0 1 3.833-1.506c2.19-.377 4.198.941 4.746 3.013.572 2.067.07 4.026-.52 6.329-.13.508-.265 1.033-.393 1.58-.093.394-.246.733-.391 1.054-.238.524-.452.997-.339 1.582" clip-rule="evenodd"/><path fill="#10F3A1" fill-rule="evenodd" d="M169.417 311.075c.27.305.521.588.742.848-4.198 0-7.849-.753-11.499-1.506-9.857-2.072-18.983-5.461-27.014-12.052-3.833-3.201-6.389-5.461-8.944-9.792q.102-.156.207-.311c1.043-1.529 2.382-2.88 3.877-3.765.355.323.549.145.759-.049.083-.076.169-.155.268-.206 3.833-2.636 8.031-4.896 12.229-6.779 13.507-6.214 27.562-9.415 42.164-10.545 6.388-.565 12.777-.565 19.165-.188 7.119.376 14.238.941 21.174 2.259 13.872 2.637 27.561 6.403 40.703 11.487.157.054.313.138.469.223.392.211.783.423 1.174.154.383-.396.14-.791-.102-1.187a2.5 2.5 0 0 1-.263-.508 69.6 69.6 0 0 0-10.079-14.263c1.203.177 5.428.988 6.611 1.27.135.034.27.076.403.116.584.179 1.125.344 1.422-.116.278-.431-.73-1.883-.73-1.883l-12.412-15.253c12.891.839 20.2 2.237 32.49 6.214 19.615 6.348 32.797 14.499 46.027 25.848a148 148 0 0 1 2.888 2.531c3.99 3.622 8.305 8.017 12.243 12.435 3.074 3.447 5.919 6.909 8.202 10.029 6.389 8.85 11.865 18.454 16.063 28.622 2.555 6.015 4.726 12.173 6.437 18.444l.167.619.001.003.001.003.069.259a144 144 0 0 1 1.904 7.977c2.372 11.487 3.103 23.162 2.19 34.649-1.46 20.149-9.594 42.266-21.538 58.563-8.699 9.258-31.352 24.686-43.155 29.39a183 183 0 0 1-18.755 5.999 174 174 0 0 1-13.839 2.838c-18.8 3.012-37.783 3.389-56.766.941-29.752-3.766-56.891-8.594-82.685-32.2-1.903-1.742-2.912-2.843-4.095-4.133a103 103 0 0 0-5.237-5.366c11.285 7.823 18.839 12.695 32.199 17.075 6.984 2.289 23.867 5.448 39.368 5.132 25.985-.53 52.94-11.767 64.074-17.981 9.126-5.084 17.705-11.298 25.554-18.454 8.761-8.286 16.427-17.513 22.451-28.435 5.84-10.733 9.491-22.785 10.404-35.025.547-7.155-.548-14.123-2.191-21.09-1.095-4.896-2.92-9.604-5.11-14.123-.366.753-.548 1.506-.731 2.259-1.095 6.026-3.226 10.313-7.118 15.818-3.191 4.514-7.363 7.937-10.136 10.213l-.633.521c-3.651 2.824-7.484 5.461-11.317 7.72 1.771-5.847 3.266-12.413 4.016-18.454.547-3.954.547-8.097.182-12.051-.547-6.968-2.373-13.935-5.293-20.149-6.024-12.805-14.325-20.739-27.562-28.623-7.368-4.389-13.533-6.328-20.26-8.286-8.762-2.636-17.34-5.084-26.284-5.649-10.952-.753-21.904-.188-32.673 2.637l-.222.057c-5.062 1.305-10.967 2.827-14.745 6.91-3.103 3.389-2.738 8.285-.913 12.617.984 2.334 2.713 4.285 4.004 5.742" clip-rule="evenodd"/></svg>