<svg xmlns="http://www.w3.org/2000/svg" fill="none" viewBox="0 0 512 512"><path fill="#10F3A1" fill-rule="evenodd" d="M256 512c141.385 0 256-114.615 256-256S397.385 0 256 0 0 114.615 0 256s114.615 256 256 256m.5-63C363.367 449 450 362.591 450 256S363.367 63 256.5 63 63 149.409 63 256s86.633 193 193.5 193" clip-rule="evenodd"/><path fill="#000" fill-rule="evenodd" d="M450 256c0 106.591-86.633 193-193.5 193S63 362.591 63 256 149.633 63 256.5 63 450 149.409 450 256" clip-rule="evenodd"/><path fill="#10F3A1" d="M187.848 138.037c2.051 0 1.764-.223 1.805 1.693-1.21 47.541 60.071 84.03 104.002 52.658 8.945-6.277 16.184-14.332 21.162-23.544s7.561-19.338 7.551-29.597c0-.912.205-1.247 1.313-1.247h44.997c1.005 0 1.231.279 1.231 1.154.861 76.288-89.072 134.082-165.735 95.993-38.066-18.588-62.164-56.64-62.041-95.826 0-.986.246-1.284 1.374-1.284z"/><path fill="#10F3A1" d="M369.97 306.245c1.456 56.304-50.596 109.781-114.093 108.739-65.199 1.116-117.846-55.691-113.642-113.298.721-21.541 8.433-42.409 22.171-59.989.595-.893 1.025-.931 1.887-.186 10.708 9.574 23.208 17.342 36.917 22.942 1.025.391 1.107.67.471 1.452-10.223 12.963-15.14 28.756-13.905 44.656.533 41.401 51.273 75.787 93.932 55.524 38.968-17.491 50.658-67.376 25.678-98.952-2.4-2.177-1.928-2.736 1.128-3.554 9.044-3.872 17.536-8.726 25.288-14.458a109 109 0 0 0 10.008-8.075c.8-.763 1.19-.577 1.764.167 14.851 18.986 22.692 41.752 22.396 65.032"/></svg>