<svg xmlns="http://www.w3.org/2000/svg" fill="none" viewBox="0 0 512 512"><path fill="#10F3A1" fill-rule="evenodd" d="M256 512c141.385 0 256-114.615 256-256S397.385 0 256 0 0 114.615 0 256s114.615 256 256 256m.5-63C363.367 449 450 362.591 450 256S363.367 63 256.5 63 63 149.409 63 256s86.633 193 193.5 193" clip-rule="evenodd"/><path fill="#000" fill-rule="evenodd" d="M450 256c0 106.591-86.633 193-193.5 193S63 362.591 63 256 149.633 63 256.5 63 450 149.409 450 256" clip-rule="evenodd"/><path fill="#10F3A1" d="M256 409h10.85a152.5 152.5 0 0 0 67.566-21.155H256c-72.816 0-131.844-59.029-131.844-131.845 0-72.815 59.028-131.844 131.844-131.844S387.845 183.185 387.845 256c0 7.603-.643 15.049-1.875 22.289h21.416A154 154 0 0 0 409 256c0-84.5-68.501-153-153-153s-153 68.5-153 153 68.501 153 153 153"/><path fill="#10F3A1" d="M256 365.178h107.727a154 154 0 0 0 17.895-21.156H256c-48.613 0-88.022-39.408-88.022-88.022 0-48.613 39.409-88.022 88.022-88.022s88.022 39.409 88.022 88.022c0 7.71-.989 15.178-2.844 22.289h21.721A109.6 109.6 0 0 0 365.178 256c0-60.297-48.881-109.178-109.178-109.178S146.822 195.703 146.822 256 195.703 365.178 256 365.178"/><path fill="#10F3A1" d="M394.797 321.356H256c-36.095 0-65.356-29.261-65.356-65.356s29.261-65.355 65.356-65.355 65.355 29.26 65.355 65.355a65.2 65.2 0 0 1-3.902 22.289h-23.274c3.828-6.54 6.021-14.147 6.021-22.289 0-24.411-19.789-44.2-44.2-44.2s-44.2 19.789-44.2 44.2 19.789 44.2 44.2 44.2h146.913a152 152 0 0 1-8.116 21.156"/></svg>
