<svg xmlns="http://www.w3.org/2000/svg" fill="none" viewBox="0 0 512 512"><path fill="#10F3A1" fill-rule="evenodd" d="M256 512c141.385 0 256-114.615 256-256S397.385 0 256 0 0 114.615 0 256s114.615 256 256 256m.5-63C363.367 449 450 362.591 450 256S363.367 63 256.5 63 63 149.409 63 256s86.633 193 193.5 193" clip-rule="evenodd"/><path fill="#000" fill-rule="evenodd" d="M450 256c0 106.591-86.633 193-193.5 193S63 362.591 63 256 149.633 63 256.5 63 450 149.409 450 256" clip-rule="evenodd"/><path fill="#10F3A1" d="m236.005 417.034-112.278-123.39c-2.105-2.309.751-5.647 3.582-4.184l75.497 38.7c3.556 1.829 6.315 4.823 7.719 8.411l30.392 77.72c1.113 2.857-2.808 5.052-4.912 2.743m16.213-28.368-30.973-144.648c-.46-2.15 0-4.413 1.235-6.264l54.058-79.912c1.087-1.602 3.725-.756 3.532 1.165l-24.053 229.476c-.217 2.08-3.363 2.217-3.799.183m26.81-42.609 59.429-81.673c2.034-2.789 5.567-4.228 9.124-3.726l38.013 5.44c2.445.344 3.268 3.292 1.332 4.733l-104.922 77.878c-1.862 1.371-4.306-.799-2.976-2.628zm8.881-56.003 30.393-181.519c.314-1.874 3.072-2.102 3.725-.296l26.957 74.153a8.08 8.08 0 0 1-.556 6.72l-56.913 102.085c-1.017 1.806-3.944.892-3.606-1.12zm-130.28-35.817 6.799-45.604c.291-1.874 3.001-2.216 3.8-.48l41.935 92.326c.847 1.874-1.623 3.497-3.195 2.102l-46.798-41.487c-1.985-1.761-2.952-4.343-2.565-6.881z"/></svg>