<svg xmlns="http://www.w3.org/2000/svg" fill="none" viewBox="0 0 512 512"><path fill="#10F3A1" fill-rule="evenodd" d="M256 512c141.385 0 256-114.615 256-256S397.385 0 256 0 0 114.615 0 256s114.615 256 256 256m.5-63C363.367 449 450 362.591 450 256S363.367 63 256.5 63 63 149.409 63 256s86.633 193 193.5 193" clip-rule="evenodd"/><path fill="#000" fill-rule="evenodd" d="M450 256c0 106.591-86.633 193-193.5 193S63 362.591 63 256 149.633 63 256.5 63 450 149.409 450 256" clip-rule="evenodd"/><path fill="#10F3A1" d="M321.51 123 136 388.978h56.956L379.429 123zm-122.623 0 54.583 78.375-28.478 42.75L140.745 123z"/><path fill="#10F3A1" fill-rule="evenodd" d="M266.523 302.312 327.039 389h56.956l-88.994-128.25zM357 374h-22.5l-50-70.688L296.001 287z" clip-rule="evenodd"/></svg>