<svg xmlns="http://www.w3.org/2000/svg" fill="none" viewBox="0 0 512 512"><path fill="#10F3A1" fill-rule="evenodd" d="M256 512c141.385 0 256-114.615 256-256S397.385 0 256 0 0 114.615 0 256s114.615 256 256 256m.5-63C363.367 449 450 362.591 450 256S363.367 63 256.5 63 63 149.409 63 256s86.633 193 193.5 193" clip-rule="evenodd"/><path fill="#000" fill-rule="evenodd" d="M450 256c0 106.591-86.633 193-193.5 193S63 362.591 63 256 149.633 63 256.5 63 450 149.409 450 256" clip-rule="evenodd"/><path fill="#10F3A1" d="m236.827 248.628 5.176-5.259v-18.582l-5.166-5.28h-7.118l-4.926 5.28v18.582l4.926 5.259zm46.475-.249 4.926-5.269v-18.323l-4.926-5.28h-7.119l-5.175 5.28v18.323l5.175 5.279z"/><path fill="#10F3A1" d="m392.464 205.695-25.565 20.09-.998 7.285-1.143.998h-6.963l-5.165 5.279v7.026l4.677 4.781v2.504l-4.926 5.27.249 32.893 5.165 5.03.239 2.494.146.115-4.822 4.926v7.275l-2.204 2.266h-36.145l-2.203-2.276v-36.906l-.977-.997-4.198-4.261v-2.526l-.364-.374 5.04-5.144v-7.026l-.363-.395.862-.114 1.466-1.746 7.139-.769 17.21-22.584-.727-7.057 1.704-1.735-.052-.697.052-.052-.208-2.057-.031-.458 5.155-5.279-.478-42.174-5.165-5.02v-.509l.239-2.256-1.975-2.515.738-7.275-17.459-22.604-7.119-.759-1.04-1.424.052-.072v-7.026l-4.915-5.29h-6.88l-2.463-2.006v-7.275L292.645 100h-72.269l-5.404 5.28v7.275l-2.474 2.005h-6.879l-4.926 5.28v7.026l.072.072-1.039 1.424-7.14.759-17.459 22.594.728 7.285-1.944 2.515.239 2.256v.519l-5.165 5.01-.499 42.174 5.165 5.279-.239 3.264 1.913 1.954-.676 6.838 17.2 22.584 7.129.769 1.476 1.746.633.083-.394.416v7.036l4.926 5.269-.25.249v2.515l-4.178 4.261-.976 1.008v36.906l-2.224 2.276h-36.125l-2.224-2.276v-7.275l-4.915-5.031.239-2.494 5.165-5.03.249-32.893-4.915-5.27.228-2.484 4.677-4.801v-7.026l-5.144-5.279h-6.963l-1.144-.998-.997-7.275-25.566-20.089-7.129.997-4.427 5.779.977 7.275 25.565 20.1 7.14-1.019.551.447-.063.062v7.026l4.916 5.28h.26v1.507l-5.176 5.269-.488 32.893 4.905 5.269v2.515h-.239l-4.905 5.28v7.275l4.905 5.02h7.14l2.203 2.255v7.275l4.916 5.03h36.145l5.165-5.03v-7.275l2.213-2.255h7.379l4.905-5.03v-36.906l-4.417-5.269-.26-2.754 5.176-5.279v-7.026l-5.176-5.28h-6.921l-1.185-1.506.728-7.275-17.449-22.605-7.119-.759-.031-.02.031-.219 5.155-5.019.249-41.925-4.905-5.28.062-.8.177-.208 7.119-.759 17.21-22.583-.728-7.286.561-.748h7.046l5.176-5.279v-7.026l2.463-2.016h72.259l2.463 2.016v7.026l5.154 5.279h7.046l.582.748-.727 7.286 17.189 22.583 7.14.77.166.207.073.79-4.916 5.28.239 41.925 5.175 5.019.021.271-6.9.727-17.46 22.594.728 7.286-1.31 1.683-.156-.177h-7.129l-4.915 5.28v7.026l4.915 5.269h.239l-.239 2.764-4.178 5.269v36.906l4.906 5.03h7.139l2.203 2.255v7.275l5.176 5.03h36.134l4.916-5.03v-7.275l2.214-2.255h7.129l4.916-5.03v-7.275l-4.916-5.27h-.489v-2.515l4.906-5.269-.478-32.893-5.165-5.269v-1.507h.488l4.916-5.28v-7.026l-.052-.052.55-.457 7.119 1.019 25.566-20.1.987-7.275-4.427-5.779-7.119-.997z"/><path fill="#10F3A1" d="m234.125 315.163-5.155 5.28v7.285l-2.213 2.256h-7.119l-34.43 34.4v7.025l-2.214 2.266H146.86l-2.214-2.266v-7.275l-5.165-5.279h-7.119l-4.926 5.279v7.275l4.926 5.031h7.119l2.224 2.255v7.275l4.916 5.03h36.134l5.155-5.03v-7.275l2.213-2.255.25.249h7.139l34.41-34.4v-7.286l1.974-2.255h6.88l5.643-5.02v-7.275l-5.154-5.29zm139.893 43.692-5.165 5.279v7.275l-2.214 2.266h-36.134l-2.214-2.266v-7.025l-34.42-34.4h-7.129l-2.214-2.256v-7.275l-5.165-5.29h-7.118l-5.165 5.28v7.285l5.663 5.02h6.88l1.964 2.255v7.286l34.42 34.4h7.119l.249-.249 2.214 2.255v7.275l5.165 5.03h36.145l4.916-5.03v-7.275l2.203-2.255h7.129l4.916-5.031v-7.275l-4.916-5.279z"/></svg>