<svg xmlns="http://www.w3.org/2000/svg" fill="none" viewBox="0 0 512 512"><path fill="#10F3A1" fill-rule="evenodd" d="M256 512c141.385 0 256-114.615 256-256S397.385 0 256 0 0 114.615 0 256s114.615 256 256 256m.5-63C363.367 449 450 362.591 450 256S363.367 63 256.5 63 63 149.409 63 256s86.633 193 193.5 193" clip-rule="evenodd"/><path fill="#000" fill-rule="evenodd" d="M450 256c0 106.591-86.633 193-193.5 193S63 362.591 63 256 149.633 63 256.5 63 450 149.409 450 256" clip-rule="evenodd"/><path fill="#10F3A1" d="M255.991 134.068c4.073 15.506 10.223 30.195 18.205 43.607a334 334 0 0 1 8.849-6.706c-13.691-23.538-21.558-50.87-21.558-79.969h-10.992c0 29.099-7.867 56.431-21.558 79.969a374 374 0 0 1 8.849 6.706c7.982-13.412 14.133-28.101 18.205-43.607m85.041 94.871a118 118 0 0 1-9.405-5.889c-3.305-2.208-6.429-4.563-9.52-7.033a129 129 0 0 1-8.473-7.148 187 187 0 0 1-10.501-10.501c-2.863 2.028-5.823 4.285-8.8 6.657a146 146 0 0 0 12.644 12.595c2.698 2.47 5.495 4.891 8.407 7.148 3.075 2.47 6.265 4.792 9.52 7.034a195 195 0 0 0 9.405 5.986 170.4 170.4 0 0 0 43.607 18.205c-15.506 4.073-30.145 10.223-43.607 18.206a224 224 0 0 0-9.405 5.986c-3.239 2.257-6.429 4.563-9.52 7.033-2.912 2.258-5.725 4.678-8.407 7.149a146 146 0 0 0-12.644 12.594 211 211 0 0 0 8.8 6.658 187 187 0 0 1 10.501-10.502 129 129 0 0 1 8.473-7.148c3.075-2.469 6.215-4.841 9.52-7.033a118 118 0 0 1 9.405-5.888c23.537-13.691 50.82-21.559 79.968-21.559v-10.992c-29.148 0-56.431-7.867-79.968-21.558m-160.659 59.997c3.304 2.208 6.429 4.564 9.52 7.033a129 129 0 0 1 8.473 7.148 187 187 0 0 1 10.501 10.502c2.863-2.029 5.823-4.286 8.8-6.658a146 146 0 0 0-12.644-12.594c-2.698-2.471-5.495-4.891-8.407-7.149-3.075-2.47-6.265-4.792-9.52-7.033a194 194 0 0 0-9.405-5.986 170.4 170.4 0 0 0-43.607-18.206c15.506-4.073 30.145-10.223 43.607-18.205a226 226 0 0 0 9.405-5.986c3.239-2.258 6.428-4.564 9.52-7.034 2.912-2.257 5.725-4.678 8.407-7.148 4.45-3.91 8.686-8.146 12.644-12.595a211 211 0 0 0-8.8-6.657 187 187 0 0 1-10.501 10.501 129 129 0 0 1-8.473 7.148c-3.075 2.47-6.216 4.842-9.52 7.033a118 118 0 0 1-9.405 5.889c-23.537 13.691-50.82 21.558-79.968 21.558v10.992c29.148 0 56.431 7.868 79.968 21.559a118 118 0 0 1 9.405 5.888m75.618 88.996c-4.072-15.506-10.223-30.195-18.205-43.607a333 333 0 0 1-8.849 6.706c13.691 23.538 21.558 50.87 21.558 79.969h10.992c0-29.099 7.867-56.431 21.558-79.969a372 372 0 0 1-8.849-6.706c-7.982 13.412-14.132 28.101-18.205 43.607"/><path fill="#10F3A1" d="M337.939 297.964a130 130 0 0 0-9.52 7.099c13.641 20.512 19.906 36.787 22.654 46.029-9.241-2.748-25.517-9.013-46.028-22.654a424 424 0 0 1-9.078-6.33 254 254 0 0 1-8.751-6.707 411 411 0 0 1-8.522-7.034 490 490 0 0 1-6.264-5.56h-.049c-2.634-2.421-5.283-4.892-7.983-7.541l30.849-30.849a358 358 0 0 1 7.54 7.982h.049c1.865 2.143 3.746 4.236 5.497 6.33a141 141 0 0 1 9.519-7.033c-2.093-2.471-4.285-5.006-6.706-7.59-2.372-2.584-4.841-5.398-7.475-8.081 2.634-2.698 5.12-5.495 7.475-8.08 2.421-2.584 4.613-5.12 6.706-7.589a157 157 0 0 1-9.519-7.034c-1.767 2.094-3.632 4.188-5.497 6.33h-.049a321 321 0 0 1-7.54 7.982l-30.849-30.849c2.7-2.633 5.332-5.119 7.983-7.54h.049a506 506 0 0 1 6.264-5.562 370 370 0 0 1 8.522-7.033 252 252 0 0 1 8.751-6.706 417 417 0 0 1 9.078-6.33c20.511-13.642 36.787-19.907 46.028-22.655-2.748 9.242-9.013 25.517-22.654 46.028a127 127 0 0 0 9.52 7.099c23.701-35.249 26.726-59.015 26.89-60.34l.883-7.426-7.425.883c-1.325.164-25.075 3.19-60.341 26.891-2.911 1.93-5.938 4.007-9.012 6.33-2.863 2.093-5.774 4.286-8.752 6.706a230 230 0 0 0-8.587 7.099c-2.47 2.028-5.004 4.286-7.54 6.657h-.049a258 258 0 0 0-7.983 7.541l-.049-.049-.049.049c-2.699-2.633-5.332-5.169-7.982-7.541h-.049c-2.535-2.371-5.054-4.613-7.54-6.657a220 220 0 0 0-8.587-7.099c-2.977-2.42-5.889-4.613-8.752-6.706a188 188 0 0 0-9.012-6.33c-35.249-23.701-59.015-26.727-60.34-26.891l-7.426-.883.883 7.426c.164 1.325 3.19 25.075 26.891 60.34a129 129 0 0 0 9.519-7.099c-13.641-20.511-19.906-36.786-22.654-46.028 9.242 2.748 25.517 9.013 46.028 22.655a415 415 0 0 1 9.078 6.33 251 251 0 0 1 8.751 6.706 417 417 0 0 1 8.522 7.033 506 506 0 0 1 6.264 5.562h.049c2.634 2.421 5.284 4.89 7.983 7.54l-30.849 30.849a356 356 0 0 1-7.541-7.982h-.049c-1.864-2.142-3.745-4.236-5.496-6.33a141 141 0 0 1-9.519 7.034c2.094 2.469 4.285 5.005 6.706 7.589 2.372 2.585 4.842 5.398 7.475 8.08-2.633 2.699-5.12 5.497-7.475 8.081-2.421 2.584-4.612 5.119-6.706 7.59a156 156 0 0 1 9.519 7.033c1.767-2.094 3.632-4.187 5.496-6.33h.049c2.372-2.584 4.891-5.283 7.541-7.982l30.849 30.849a334 334 0 0 1-7.983 7.541h-.049a490 490 0 0 1-6.264 5.56 363 363 0 0 1-8.522 7.034 253 253 0 0 1-8.751 6.707 422 422 0 0 1-9.078 6.33c-20.511 13.641-36.786 19.906-46.028 22.654 2.748-9.242 9.013-25.517 22.654-46.029a128 128 0 0 0-9.519-7.099c-23.701 35.25-26.727 59.017-26.891 60.341l-.883 7.426 7.426-.883c1.325-.163 25.075-3.189 60.34-26.891 2.912-1.93 5.938-4.007 9.012-6.33 2.863-2.094 5.775-4.285 8.752-6.706a229 229 0 0 0 8.587-7.099c2.469-2.028 5.005-4.286 7.54-6.658h.049a254 254 0 0 0 7.982-7.54l.049.049.049-.049c2.7 2.634 5.333 5.169 7.983 7.54h.049c2.536 2.372 5.054 4.613 7.54 6.658a218 218 0 0 0 8.587 7.099c2.978 2.421 5.889 4.612 8.752 6.706 3.074 2.307 6.101 4.4 9.012 6.33 35.249 23.702 59.016 26.728 60.341 26.891l7.425.883-.883-7.426c-.164-1.324-3.189-25.075-26.89-60.341m-81.948-10.991-30.979-30.98 30.979-30.981 30.98 30.981z"/></svg>