<svg xmlns="http://www.w3.org/2000/svg" fill="none" viewBox="0 0 512 512"><path fill="#10F3A1" fill-rule="evenodd" d="M256 512c141.385 0 256-114.615 256-256S397.385 0 256 0 0 114.615 0 256s114.615 256 256 256m.5-63C363.367 449 450 362.591 450 256S363.367 63 256.5 63 63 149.409 63 256s86.633 193 193.5 193" clip-rule="evenodd"/><path fill="#000" fill-rule="evenodd" d="M450 256c0 106.591-86.633 193-193.5 193S63 362.591 63 256 149.633 63 256.5 63 450 149.409 450 256" clip-rule="evenodd"/><path fill="#10F3A1" fill-rule="evenodd" d="M348.777 123.592c-32.693-22.906-77.692-15.045-95.248 10.042L141.127 294.256c-17.555 25.087-9.725 70.339 22.968 93.245 32.693 22.905 77.869 14.79 95.425-10.297l112.402-160.622c17.555-25.086 9.548-70.085-23.145-92.99m-80.996 42.127c13.308-19.017 39.546-23.609 58.603-10.257s23.719 39.593 10.411 58.61L244.99 345.26c-13.308 19.017-39.545 23.609-58.603 10.257-19.057-13.352-23.718-39.593-10.41-58.61z" clip-rule="evenodd"/></svg>
