<svg xmlns="http://www.w3.org/2000/svg" fill="none" viewBox="0 0 512 512"><path fill="#10F3A1" fill-rule="evenodd" d="M256 512c141.385 0 256-114.615 256-256S397.385 0 256 0 0 114.615 0 256s114.615 256 256 256m.5-63C363.367 449 450 362.591 450 256S363.367 63 256.5 63 63 149.409 63 256s86.633 193 193.5 193" clip-rule="evenodd"/><path fill="#000" fill-rule="evenodd" d="M450 256c0 106.591-86.633 193-193.5 193S63 362.591 63 256 149.633 63 256.5 63 450 149.409 450 256" clip-rule="evenodd"/><path fill="#10F3A1" d="M266.254 133c-66.227 0-119.915 53.799-119.916 120.166v31.532a1.463 1.463 0 0 0 1.463 1.466h16.731c.809 0 1.463-.656 1.463-1.466l.001-31.532c.002-55.486 44.887-100.467 100.259-100.467h111.99c1.121 0 1.82-1.208 1.224-2.158-6.374-10.164-15.918-17.533-30.212-17.541z"/><path fill="#10F3A1" d="M390.127 181.49a1.46 1.46 0 0 0-1.435-1.21H266.258c-41.257 0-74.702 33.515-74.702 74.858v29.561a1.463 1.463 0 0 0 1.463 1.466h12.343a5.8 5.8 0 0 0 2.239-.446 5.86 5.86 0 0 0 3.613-5.418v-25.163c0-30.463 24.644-55.158 55.044-55.158h124.285c.836 0 1.502-.7 1.455-1.537-.272-4.756-.81-10.657-1.871-16.953M245.745 380c66.227 0 119.916-53.8 119.916-120.166v-31.532a1.46 1.46 0 0 0-1.463-1.466h-16.732a1.466 1.466 0 0 0-1.463 1.466v31.532c-.001 55.486-44.887 100.467-100.257 100.467h-111.99c-1.121 0-1.821 1.207-1.225 2.158 6.374 10.164 15.918 17.532 30.212 17.541z"/><path fill="#10F3A1" d="M121.873 331.51c.118.701.727 1.21 1.435 1.21h122.434c41.257 0 74.702-33.515 74.702-74.858v-29.561a1.463 1.463 0 0 0-1.463-1.466h-12.343a5.8 5.8 0 0 0-2.239.446 5.86 5.86 0 0 0-3.613 5.418v25.163c0 30.463-24.644 55.158-55.044 55.158H121.457c-.836 0-1.502.7-1.455 1.536.272 4.757.809 10.658 1.871 16.954"/></svg>