<svg xmlns="http://www.w3.org/2000/svg" fill="none" viewBox="0 0 256 256"><path fill="#00F99B" d="M128 256c70.692 0 128-57.308 128-128S198.692 0 128 0 0 57.308 0 128s57.308 128 128 128"/><path fill="#000" d="M134.904 48c-42.975 0-77.813 34.85-77.813 77.84v20.426a.95.95 0 0 0 .949.95h10.857a.95.95 0 0 0 .95-.95V125.84c0-35.942 29.127-65.08 65.058-65.08h72.67c.727 0 1.18-.782.794-1.398-4.136-6.583-10.33-11.357-19.605-11.362z"/><path fill="#000" d="M215.284 79.41a.94.94 0 0 0-.931-.784h-79.447c-26.771.001-48.474 21.711-48.474 48.492v19.149a.95.95 0 0 0 .95.949h8.009a3.8 3.8 0 0 0 1.453-.289 3.78 3.78 0 0 0 2.056-2.056c.19-.461.289-.955.289-1.453v-16.3c0-19.733 15.991-35.73 35.717-35.73h80.648a.943.943 0 0 0 .944-.996c-.176-3.08-.525-6.903-1.214-10.981M121.595 208c42.975 0 77.813-34.85 77.814-77.84v-20.426a.95.95 0 0 0-.949-.95h-10.858a.95.95 0 0 0-.949.95v20.426c-.001 35.942-29.127 65.079-65.057 65.079h-72.67c-.727 0-1.181.782-.794 1.398 4.135 6.584 10.329 11.357 19.604 11.363z"/><path fill="#000" d="M41.216 176.589a.94.94 0 0 0 .93.784h79.448c26.771 0 48.474-21.71 48.474-48.491v-19.149a.95.95 0 0 0-.95-.949h-8.009a3.8 3.8 0 0 0-1.453.289 3.8 3.8 0 0 0-2.345 3.509v16.3c0 19.733-15.991 35.73-35.717 35.73H40.946a.943.943 0 0 0-.944.995c.176 3.081.524 6.904 1.214 10.982"/></svg>