<svg xmlns="http://www.w3.org/2000/svg" fill="none" viewBox="0 0 512 512"><path fill="#10F3A1" fill-rule="evenodd" d="M256 512c141.385 0 256-114.615 256-256S397.385 0 256 0 0 114.615 0 256s114.615 256 256 256m.5-63C363.367 449 450 362.591 450 256S363.367 63 256.5 63 63 149.409 63 256s86.633 193 193.5 193" clip-rule="evenodd"/><path fill="#000" fill-rule="evenodd" d="M450 256c0 106.591-86.633 193-193.5 193S63 362.591 63 256 149.633 63 256.5 63 450 149.409 450 256" clip-rule="evenodd"/><path fill="#10F3A1" fill-rule="evenodd" d="M368.357 215.851h19.521q.05.001.086.035a.12.12 0 0 1 .036.087v118.408q0 .05-.029.088l-.002.004-.003.004-.004.004-.004.004a.14.14 0 0 1-.101.043h-19.403q-.158 0-.158.158l.004 19.376q0 .225-.226.225h-39.103a.083.083 0 0 0-.083.083l.004 19.558a.07.07 0 0 1-.021.051.07.07 0 0 1-.051.021H184.312q-.2 0-.2-.204v-19.294q0-.215-.215-.215h-39.036a.157.157 0 0 1-.157-.157v-19.423q0-.179-.179-.179h-19.346q-.179 0-.179-.179V215.962q0-.048.033-.081a.1.1 0 0 1 .078-.034h19.392a.2.2 0 0 0 .201-.201v-78.488a.155.155 0 0 1 .154-.158h58.768c.047 0 .093.019.126.054.034.034.053.08.053.129l.046 27.122h105.366l-.032-27.137a.17.17 0 0 1 .168-.168h58.854q.089 0 .089.09v78.639q-.01.09.061.122m-98.555 118.932v6.196l-6.703-.003q-.172 0-.172.168v6.197q0 .09-.09.09h-13.076a.1.1 0 0 1-.038-.009h-.001l-.015-.009-.009-.008a.1.1 0 0 1-.017-.025.1.1 0 0 1-.009-.039v-6.175q0-.194-.194-.194l-6.258.007-.033-6.25q-.003-.158-.161-.158l-12.858.004q-.2 0-.2-.205v-6.473q0-.179-.179-.179h-13.012q-.115 0-.115-.114v-45.626c0-.036.015-.071.041-.097a.14.14 0 0 1 .099-.039h12.987q.179 0 .179.179v25.805a.179.179 0 0 0 .179.18h12.897q.179 0 .179-.18v-6.093q0-.179.179-.179h26.178q.204 0 .204.204v6.05q0 .198.201.198h12.893q.154 0 .154-.158v-25.806q0-.2.204-.2h12.987q.03 0 .051.02a.08.08 0 0 1 .021.051v45.651q0 .154-.154.154h-12.862q-.243 0-.243.248l.003 6.469a.13.13 0 0 1-.04.096.13.13 0 0 1-.096.04H270.01a.2.2 0 0 0-.147.062.21.21 0 0 0-.061.15m-45.909-85.881a.12.12 0 0 1 .035.084v19.877a.12.12 0 0 1-.118.119h-19.876a.12.12 0 0 1-.119-.119v-19.877q.001-.05.035-.084a.12.12 0 0 1 .084-.034h19.876q.048 0 .083.034m85.265 20.05a.12.12 0 0 1-.081.033l-19.883-.003a.117.117 0 0 1-.115-.115v-19.885q.001-.047.034-.081a.12.12 0 0 1 .081-.033h19.883a.114.114 0 0 1 .115.114v19.889q0 .046-.034.081m-65.976-.331a.14.14 0 0 1 .041.099v12.982a.14.14 0 0 1-.14.14h-12.975a.14.14 0 0 1-.14-.14V268.72a.14.14 0 0 1 .14-.14h12.975a.14.14 0 0 1 .099.041m39.82-.003a.13.13 0 0 1 .037.091v13.003a.13.13 0 0 1-.037.092.13.13 0 0 1-.092.038h-13.004a.13.13 0 0 1-.129-.13v-13.003a.13.13 0 0 1 .129-.129h13.004q.054.001.092.038m-106.298-98.565a.2.2 0 0 1 .059-.143.2.2 0 0 1 .143-.059h6.731a.2.2 0 0 0 .202-.202l.004-14.272a.2.2 0 0 0-.202-.202l-21.387.004a.202.202 0 0 0-.202.202v21.398a.204.204 0 0 0 .202.202l14.26.004a.204.204 0 0 0 .202-.202zm159.536-.157a.17.17 0 0 0-.118-.049l-6.795.004a.2.2 0 0 1-.064-.013.2.2 0 0 1-.054-.036.2.2 0 0 1-.036-.054.2.2 0 0 1-.012-.064l.015-14.335c0-.044.018-.086.049-.117a.16.16 0 0 1 .118-.049h21.438c.044 0 .087.017.118.049a.17.17 0 0 1 .049.117l-.004 21.469a.17.17 0 0 1-.167.167l-14.326-.004a.17.17 0 0 1-.167-.167l.004-6.801a.17.17 0 0 0-.048-.117" clip-rule="evenodd"/></svg>