<svg xmlns="http://www.w3.org/2000/svg" fill="none" viewBox="0 0 256 256"><path fill="#28A0F0" d="m154.744 147.468-25.208 42.501 38.168 59.717a128 128 0 0 0 39.04-20.772zM184.4 97.536l-21.946 36.854 53.798 86.322c9.528-9.527 19.655-22.604 25.683-34.378z"/><path fill="#2D374B" fill-rule="evenodd" d="M256 128c0 20.474-4.905 40.443-14.065 58.334L184.4 97.536l-21.946 36.854 53.798 86.322a128 128 0 0 1-9.508 8.202l-52-81.446-25.208 42.501 38.168 59.717A128 128 0 0 1 128 256a128 128 0 0 1-46.603-8.785l96.523-161.91-43.619.297-86.896 141.839a128 128 0 0 1-9.915-8.931l84.35-133.204-16.617-.297c-13.946-.297-29.376 3.263-36.2 14.537l-55.394 85.926A128 128 0 1 1 256 128" clip-rule="evenodd"/><path fill="#fff" d="m177.92 85.306-43.619.296-86.896 141.839a128 128 0 0 0 33.992 19.774zM13.628 185.472A128 128 0 0 0 37.49 218.51l84.35-133.204-16.617-.297c-13.946-.297-29.376 3.263-36.2 14.537z"/></svg>
