<svg xmlns="http://www.w3.org/2000/svg" fill="none" viewBox="0 0 512 512"><path fill="#F8F8F8" d="M0 256C0 114.615 114.615 0 256 0s256 114.615 256 256-114.615 256-256 256S0 397.385 0 256"/><path fill="#1543D8" fill-rule="evenodd" d="M96.12 264.465c-32.485 18.79-42.495 62.35-22.359 97.293l149.23-86.32c20.136 34.943 62.793 48.038 95.277 29.248l98.425-56.933c32.484-18.79 42.495-62.35 22.359-97.293l-149.23 86.32c-20.136-34.944-62.793-48.038-95.278-29.248z" clip-rule="evenodd"/><path fill="#1543D8" d="M102.018 240.167c4.921-47.614 31.831-92.278 76.455-118.042 67.578-39.016 152.379-21.178 199.016 38.673l49.667-28.675c-62.624-86.465-181.764-113.297-276.25-58.745C78.207 115.35 39.935 194.053 45.996 272.511zm307.279 32.748c-5.255 47.153-32.084 91.27-76.324 116.812-67.277 38.843-151.626 21.335-198.392-37.879l-48.925 28.247c62.625 86.465 181.765 113.297 276.25 58.745 72.7-41.973 110.972-120.675 104.911-199.134z"/></svg>