<svg xmlns="http://www.w3.org/2000/svg" fill="none" viewBox="0 0 256 256"><path fill="#2E3148" d="M128 256c70.692 0 128-57.308 128-128S198.692 0 128 0 0 57.308 0 128s57.308 128 128 128"/><path fill="#1B1E36" d="M128 198.5c38.936 0 70.5-31.564 70.5-70.5S166.936 57.5 128 57.5 57.5 89.064 57.5 128s31.564 70.5 70.5 70.5"/><path fill="#fff" d="M128 140c6.627 0 12-5.373 12-12s-5.373-12-12-12-12 5.373-12 12 5.373 12 12 12"/><path fill="#fff" d="M145.628 62.649c1.758 9.581 2.926 18.959 3.796 28.506q.01.123.122.07a318 318 0 0 1 20.379-8.624q.11-.041.102-.156-.181-3.324 2.035-5.744 2.732-2.67 6.323-1.933 2.66.542 4.486 3.254.063.092.169.058 7.495-2.333 14.487-3.57c4.771-.846 15.538-2.28 18.62 2.675 1.034 1.664 1.025 3.665.519 5.515q-.822 3.016-2.758 6.009a64.5 64.5 0 0 1-7.234 9.221q-1.328 1.414-2.636 2.727a175 175 0 0 1-10.826 10 289 289 0 0 1-22.507 17.114.1.1 0 0 0-.025.027.08.08 0 0 0 0 .072q.009.017.025.027a301 301 0 0 1 22.158 16.992c5.94 5.099 11.653 10.456 16.673 16.472q3.02 3.618 5.127 7.381c1.514 2.704 3.071 6.722 1.405 9.705-1.516 2.716-5.176 3.48-7.987 3.664-3.293.212-6.688-.116-10.04-.69q-7.63-1.31-15.583-3.858a304 304 0 0 1-7.039-2.347 287 287 0 0 1-17.471-6.967 518 518 0 0 1-8.422-3.777q-.104-.047-.116.066-.317 3.156-.637 6.284a284 284 0 0 1-3.048 21.535q-.408 2.184-1.697 8.086-1.95 8.92-5.136 16.754a43 43 0 0 1-2.398 4.916c-1.577 2.793-4.347 6.66-7.907 6.877-9.018.545-14.536-21.632-16.021-28.106a.2.2 0 0 0-.152-.158q-3.458-.93-4.816-4.055-1.079-2.487-.251-5.18a7.5 7.5 0 0 1 2.552-3.578.18.18 0 0 0 .07-.183 306 306 0 0 1-2.862-23.321q-.02-.201-.202-.115a297 297 0 0 1-26.4 10.836q-3.93 1.37-10.229 3.227-7.667 2.261-15.13 3.19c-4.931.613-16.29 1.12-15.617-6.946a11 11 0 0 1 .623-2.884 27.2 27.2 0 0 1 3.078-5.924 70 70 0 0 1 7.245-8.905q5.995-6.271 12.52-11.789a291 291 0 0 1 22.774-17.353.1.1 0 0 0 .032-.124.1.1 0 0 0-.03-.034 304 304 0 0 1-19.608-14.848.19.19 0 0 0-.197-.032q-1.91.733-3.76.421c-3.824-.672-6.113-4.091-5.777-7.849q.039-.421.14-.821a.28.28 0 0 0-.081-.272q-3.214-2.946-6.956-7.055-4.024-4.423-6.724-8.679c-1.768-2.788-3.467-6.361-3.012-9.531.7-4.867 6.87-5.64 10.74-5.584 5.983.089 12.3 1.414 18.15 3.046a191 191 0 0 1 11.689 3.657 295 295 0 0 1 26.605 11.017q.021.01.046.009a.1.1 0 0 0 .079-.046.1.1 0 0 0 .015-.044 295 295 0 0 1 3.753-28.366 217 217 0 0 1 1.872-8.815 108 108 0 0 1 4.467-14.515q.847-2.185 2.28-4.941c2.303-4.435 7.071-10.86 12.769-6.244 1.956 1.587 3.44 3.797 4.616 6.004q2.224 4.162 3.889 9.22c2.083 6.322 3.638 12.787 4.862 19.329m-29.508-1.284a63 63 0 0 0-.503 2.401 360 360 0 0 0-4.08 29.323.17.17 0 0 0 .105.183 399 399 0 0 1 16.612 8.512.14.14 0 0 0 .067.017.14.14 0 0 0 .067-.015 434 434 0 0 1 16.777-8.498q.077-.036.071-.122a298 298 0 0 0-4.787-31.86 265 265 0 0 0-2.978-12.707 67 67 0 0 0-3.873-10.872q-1.21-2.656-2.806-4.767c-.789-1.045-2.312-2.711-3.767-1.472q-.385.33-.688.71-1.839 2.3-3.216 5.312-1.352 2.955-2.076 5.04-3.065 8.83-4.925 18.815M66.65 99.794q1.74 1.038 2.588 2.587 1.836 3.35.293 6.856a.21.21 0 0 0 .06.246 440 440 0 0 0 20.203 15.346.18.18 0 0 0 .204.002 424 424 0 0 1 15.651-10.033.22.22 0 0 0 .109-.19q.253-9.012.927-18.317a.17.17 0 0 0-.091-.156 325 325 0 0 0-17-7.74 200 200 0 0 0-12.675-4.84 108 108 0 0 0-7.155-2.16 486 486 0 0 0-6.203-1.598 60 60 0 0 0-10.07-1.642q-3.96-.294-7.358.224-2.01.307-1.7 2.16c.2 1.191.882 2.677 1.5 3.794a41 41 0 0 0 3.382 5.172q4.281 5.565 9.779 10.723.081.077.177.013 3.476-2.374 7.379-.447M181.708 86.98c-2.774 2.587-6.693 2.598-9.476.025a.18.18 0 0 0-.192-.038 397 397 0 0 0-22.072 9.088.24.24 0 0 0-.159.262q.657 8.777.932 18.348.002.12.104.184a420 420 0 0 1 15.898 10.304.14.14 0 0 0 .17-.002 301 301 0 0 0 24.751-19.542.27.27 0 0 0 .088-.127q.153-.084.302-.217a267 267 0 0 0 8.628-7.978q5.072-4.902 8.555-9.794c1.401-1.967 2.824-4.294 3.225-6.628.236-1.386-.714-2.112-1.987-2.318-3.665-.59-7.658-.156-11.232.484q-7.538 1.35-15.305 3.86a.18.18 0 0 0-.131.145q-.508 2.348-2.099 3.944m-48.466 17.539a434 434 0 0 1 13.14 7.607.1.1 0 0 0 .041.011.1.1 0 0 0 .04-.011.1.1 0 0 0 .03-.03.1.1 0 0 0 .009-.04q-.258-7.02-.822-13.957-.009-.135-.132-.077c-1.928.898-3.841 1.716-5.684 2.716a771 771 0 0 0-6.622 3.629q-.136.078 0 .152m-10.185.029a441 441 0 0 0-11.898-6.162q-.15-.077-.166.09c-.165 1.782-.369 3.644-.419 5.482a514 514 0 0 0-.156 7.842.04.04 0 0 0 .005.023q.006.011.017.018a.05.05 0 0 0 .046 0l12.571-7.202q.082-.048 0-.091m-2.182 40.207c2.481 1.37 4.777 2.713 7.13 4.066q.158.09.319.004a237 237 0 0 0 11.672-6.58c2.117-1.274 4.324-2.49 6.491-3.766a.18.18 0 0 0 .095-.158q.251-6.827.097-13.638c-.05-2.207-.02-4.516-.031-6.809a.2.2 0 0 0-.105-.185 679 679 0 0 0-18.378-10.396.15.15 0 0 0-.07-.017.14.14 0 0 0-.07.02 683 683 0 0 0-17.598 10.311.13.13 0 0 0-.048.049.13.13 0 0 0-.018.067q-.036 10.42.22 20.876a.19.19 0 0 0 .1.172 226 226 0 0 0 10.194 5.984m30.16-24.414q-.168-.099-.165.095.13 7.676-.007 15.21 0 .026.013.049a.1.1 0 0 0 .085.048.1.1 0 0 0 .049-.013 291 291 0 0 0 11.792-7.709q.111-.077.002-.152c-1.695-1.189-3.39-2.449-5.149-3.53a549 549 0 0 0-6.62-3.998m-45.556 15.215a.1.1 0 0 0 .037.012.07.07 0 0 0 .066-.034.1.1 0 0 0 .011-.037l-.007-14.832a.1.1 0 0 0-.01-.037.1.1 0 0 0-.028-.026.06.06 0 0 0-.037-.009.1.1 0 0 0-.036.011l-11.341 7.22a.073.073 0 0 0-.023.094.1.1 0 0 0 .023.026zM64.431 149.73q-2.647 2.31-4.154 3.767a275 275 0 0 0-5.045 5.025c-4.422 4.497-8.34 9.416-10.815 15.051-.546 1.251-.5 2.551 1.022 2.96 1.603.432 3.223.59 4.868.565a52.4 52.4 0 0 0 9.134-.927 123 123 0 0 0 17.58-4.758q2.388-.786 4.632-1.637a439 439 0 0 0 24.973-10.352q.072-.031.066-.111a390 390 0 0 1-.929-18.466.23.23 0 0 0-.114-.197 419 419 0 0 1-15.481-10.017.174.174 0 0 0-.21-.003q-5.608 3.727-12.16 8.521-7.21 5.274-13.367 10.579m114.628 21.618q8.909 2.98 14.846 4.461 5.71 1.425 11.21 1.771a21 21 0 0 0 4.455-.183c1.419-.213 3.2-.859 2.734-2.659q-.348-1.344-1.165-2.854c-1.804-3.333-4.148-6.3-6.768-9.183a150 150 0 0 0-12.809-12.501 346 346 0 0 0-24.869-19.518.165.165 0 0 0-.201-.002 421 421 0 0 1-15.643 10.029.22.22 0 0 0-.108.188 410 410 0 0 1-.959 18.742.17.17 0 0 0 .106.181 302 302 0 0 0 29.171 11.528m-46.372-19.995a281 281 0 0 0 12.612 6.334q.021.01.044.01a.1.1 0 0 0 .043-.013.1.1 0 0 0 .033-.031.1.1 0 0 0 .014-.043q.6-7.017.952-14.07.009-.14-.114-.068a455 455 0 0 1-13.584 7.768.1.1 0 0 0-.026.023.07.07 0 0 0 0 .067q.01.015.026.023m-9.077-.007a.1.1 0 0 0 .029-.024.1.1 0 0 0 .011-.036.06.06 0 0 0-.009-.037.1.1 0 0 0-.026-.027l-12.794-7.383a.1.1 0 0 0-.036-.009.06.06 0 0 0-.035.011.1.1 0 0 0-.026.027.1.1 0 0 0-.007.036l.628 13.295q0 .017.01.032a.08.08 0 0 0 .056.033.1.1 0 0 0 .033-.006zm-2.774 42.979q-.401 3.824-3.721 5.782-.098.06-.068.168a274 274 0 0 0 2.441 8.591q.986 3.246 2.64 6.964 1.877 4.211 4.428 7.497c.936 1.201 2.11 1.273 3.142.138a20.6 20.6 0 0 0 3.048-4.376 63.3 63.3 0 0 0 4.562-11.408q2.252-7.711 3.452-14.163.677-3.383 1.235-7.042a458 458 0 0 0 2.994-24.047.19.19 0 0 0-.112-.194 413 413 0 0 1-16.061-8.213 6 6 0 0 0-.58-.276.23.23 0 0 0-.202.009A382 382 0 0 1 111.793 162a.16.16 0 0 0-.067.063.15.15 0 0 0-.021.088 300 300 0 0 0 2.593 24.309q.018.114.131.129c4.032.502 6.616 3.707 6.407 7.736"/></svg>
