<svg xmlns="http://www.w3.org/2000/svg" fill="none" viewBox="0 0 256 256"><path fill="#000" d="M128 140c6.627 0 12-5.373 12-12s-5.373-12-12-12-12 5.373-12 12 5.373 12 12 12"/><path fill="#000" fill-rule="evenodd" d="M256 128c0 70.692-57.308 128-128 128S0 198.692 0 128 57.308 0 128 0s128 57.308 128 128m-61.866 24.48a70.4 70.4 0 0 1-11.476 20.051 326 326 0 0 1-3.599-1.182 302 302 0 0 1-29.171-11.528.17.17 0 0 1-.106-.181q.691-9.306.959-18.742a.22.22 0 0 1 .108-.188 421 421 0 0 0 15.643-10.029.165.165 0 0 1 .201.002 346 346 0 0 1 24.869 19.518q1.3 1.126 2.572 2.279m1.652-5.041a70 70 0 0 1-1.652 5.041 150 150 0 0 1 10.237 10.222c2.62 2.883 4.964 5.85 6.768 9.183q.817 1.51 1.165 2.854c.466 1.8-1.315 2.446-2.734 2.659a21 21 0 0 1-4.455.183q-5.5-.346-11.21-1.771-4.694-1.17-11.247-3.279a71 71 0 0 1-3.484 3.961 295 295 0 0 1-3.755-1.276 287 287 0 0 1-17.471-6.967 518 518 0 0 1-8.422-3.777q-.104-.047-.116.066-.317 3.156-.637 6.284a284 284 0 0 1-3.048 21.535q-.252 1.347-.838 4.108a71 71 0 0 1-4.939 1.027q.453-2.043.812-3.973.677-3.383 1.235-7.042a458 458 0 0 0 2.994-24.047.19.19 0 0 0-.112-.194 413 413 0 0 1-16.061-8.213 6 6 0 0 0-.58-.276.23.23 0 0 0-.202.009 382 382 0 0 1-16.241 8.245.16.16 0 0 0-.067.063.15.15 0 0 0-.021.088 300 300 0 0 0 2.593 24.309q.018.114.131.129c4.032.502 6.616 3.707 6.407 7.736q-.222 2.12-1.341 3.666a70 70 0 0 1-12.327-2.62q-.435-1.884.179-3.881a7.5 7.5 0 0 1 2.552-3.578.18.18 0 0 0 .07-.183 306 306 0 0 1-2.862-23.321q-.02-.201-.202-.115a297 297 0 0 1-26.4 10.836q-1.675.584-3.78 1.256a71 71 0 0 1-3.31-3.766 124 124 0 0 0 3.606-1.206q2.388-.786 4.632-1.637a439 439 0 0 0 24.973-10.352q.072-.031.066-.111a390 390 0 0 1-.929-18.466.23.23 0 0 0-.114-.197 419 419 0 0 1-15.481-10.017.174.174 0 0 0-.21-.003q-5.608 3.727-12.16 8.521-7.21 5.274-13.367 10.579a156 156 0 0 0-2.693 2.399 70 70 0 0 1-1.509-4.638q1.371-1.213 2.765-2.393a291 291 0 0 1 22.775-17.353l.01-.007.002-.003.004-.004.014-.018.001-.003a.1.1 0 0 0 .012-.045v-.008l-.001-.006-.001-.006-.002-.006v-.004l-.007-.014a.1.1 0 0 0-.03-.034 304 304 0 0 1-19.608-14.848.19.19 0 0 0-.197-.032q-1.91.733-3.76.421a7 7 0 0 1-2.869-1.187 70 70 0 0 1 4.407-12.992q1.422.11 2.906.844 1.74 1.038 2.588 2.587 1.836 3.35.293 6.856a.21.21 0 0 0 .06.246 440 440 0 0 0 20.203 15.346.18.18 0 0 0 .204.002 424 424 0 0 1 15.651-10.033.22.22 0 0 0 .109-.19q.253-9.012.927-18.317a.17.17 0 0 0-.091-.156 325 325 0 0 0-17-7.74 200 200 0 0 0-12.675-4.84 108 108 0 0 0-2.876-.933 71 71 0 0 1 3.267-3.62q1.545.508 3.065 1.039a295 295 0 0 1 26.605 11.017q.021.01.046.009a.1.1 0 0 0 .079-.046.1.1 0 0 0 .015-.044 295 295 0 0 1 3.753-28.366q.3-1.578.629-3.17a70 70 0 0 1 5.202-1.04q-.305 1.468-.584 2.964a63 63 0 0 0-.503 2.401 360 360 0 0 0-4.08 29.323.17.17 0 0 0 .105.183 399 399 0 0 1 16.612 8.512.14.14 0 0 0 .067.017.14.14 0 0 0 .067-.015 434 434 0 0 1 16.777-8.498q.077-.036.071-.122a298 298 0 0 0-4.787-31.86q-.294-1.41-.603-2.815a70 70 0 0 1 5.179 1.078q.314 1.537.603 3.08c1.758 9.581 2.926 18.959 3.796 28.506q.01.123.122.07a318 318 0 0 1 20.379-8.624q.11-.041.102-.156-.181-3.324 2.035-5.744 1.163-1.137 2.48-1.656a71 71 0 0 1 8.857 9.347 7.6 7.6 0 0 1-1.691 2.589c-2.774 2.587-6.693 2.598-9.476.025a.18.18 0 0 0-.192-.038 397 397 0 0 0-22.072 9.088.24.24 0 0 0-.159.262q.657 8.777.932 18.348.002.12.104.184a420 420 0 0 1 15.898 10.304.14.14 0 0 0 .17-.002 301 301 0 0 0 24.751-19.542.27.27 0 0 0 .088-.127q.153-.084.302-.217 1.025-.906 2.048-1.83a70 70 0 0 1 1.654 5.021q-1.266 1.117-2.544 2.2a289 289 0 0 1-22.507 17.114.1.1 0 0 0-.025.027l-.007.023-.001.004-.001.006v.003l.002.014.002.008.005.014q.009.017.025.027a301 301 0 0 1 22.158 16.992q1.472 1.263 2.923 2.55m0 0A70.6 70.6 0 0 0 198.5 128a70.5 70.5 0 0 0-2.744-19.543 177 177 0 0 0 8.282-7.8q1.308-1.312 2.636-2.727a64.5 64.5 0 0 0 7.234-9.221q1.936-2.992 2.758-6.009c.506-1.85.515-3.85-.519-5.515-3.082-4.955-13.849-3.521-18.62-2.675q-6.992 1.237-14.487 3.57-.106.034-.169-.058-1.825-2.712-4.486-3.255-2.063-.423-3.843.278a70.3 70.3 0 0 0-29.517-15.476c-1.123-5.491-2.503-10.921-4.259-16.25q-1.666-5.056-3.889-9.22c-1.176-2.206-2.66-4.416-4.616-6.003-5.698-4.615-10.466 1.809-12.769 6.244q-1.433 2.756-2.28 4.94a108 108 0 0 0-4.467 14.516q-.666 2.847-1.243 5.645c-13.243 3.175-25.033 10.088-34.191 19.56q-4.222-1.39-8.626-2.617c-5.85-1.632-12.166-2.957-18.149-3.046-3.87-.056-10.04.717-10.74 5.584-.455 3.17 1.244 6.743 3.012 9.531q2.7 4.256 6.724 8.679 3.742 4.11 6.956 7.055a.28.28 0 0 1 .082.272q-.103.4-.141.821c-.24 2.687.862 5.202 2.908 6.662A70.7 70.7 0 0 0 57.5 128a70.5 70.5 0 0 0 2.73 19.492 163 163 0 0 0-9.755 9.396 70 70 0 0 0-7.245 8.905 27.2 27.2 0 0 0-3.078 5.924q-.495 1.337-.623 2.884c-.673 8.066 10.685 7.559 15.617 6.946q7.463-.929 15.13-3.19 3.615-1.066 6.45-1.971c8.24 8.729 18.684 15.354 30.442 18.986q.151.656.43 1.299 1.358 3.125 4.816 4.055a.2.2 0 0 1 .152.158c1.485 6.474 7.003 28.651 16.021 28.106 3.56-.217 6.33-4.084 7.907-6.877a43 43 0 0 0 2.398-4.916q3.186-7.835 5.136-16.754a879 879 0 0 0 .859-3.978c13.319-3.274 25.151-10.334 34.287-19.973q1.608.534 3.284 1.071 7.953 2.549 15.583 3.858c3.352.574 6.747.902 10.04.69 2.811-.184 6.471-.948 7.987-3.664 1.666-2.983.109-7.001-1.405-9.705q-2.108-3.763-5.127-7.381c-4.19-5.022-8.864-9.585-13.75-13.922m-1.684-44.003a273 273 0 0 0 6.58-6.148q5.072-4.902 8.555-9.794c1.401-1.967 2.824-4.294 3.225-6.628.236-1.386-.714-2.112-1.987-2.318-3.665-.59-7.658-.156-11.232.484q-7.538 1.35-15.305 3.86a.18.18 0 0 0-.131.145 9 9 0 0 1-.408 1.355 70.4 70.4 0 0 1 10.703 19.044m-54.256-44.945A71 71 0 0 0 128 57.5c-3.845 0-7.618.308-11.296.9q1.735-8.341 4.341-15.85.724-2.085 2.076-5.04 1.377-3.012 3.216-5.312.303-.38.688-.71c1.455-1.24 2.978.427 3.767 1.472q1.596 2.11 2.806 4.767a67 67 0 0 1 3.873 10.872q1.283 4.924 2.375 9.892M74.043 82.622a108 108 0 0 0-4.279-1.227 486 486 0 0 0-6.203-1.598 60 60 0 0 0-10.07-1.642q-3.96-.294-7.358.224-2.01.307-1.7 2.16c.2 1.191.882 2.677 1.5 3.794a41 41 0 0 0 3.382 5.172q4.281 5.565 9.779 10.723.081.077.177.013 2.155-1.47 4.473-1.29a70.5 70.5 0 0 1 10.3-16.329m-.629 89.998a122 122 0 0 1-13.973 3.552 52.4 52.4 0 0 1-9.134.927c-1.645.025-3.265-.133-4.868-.565-1.523-.409-1.568-1.709-1.022-2.96 2.475-5.635 6.393-10.554 10.815-15.051a275 275 0 0 1 5.045-5.025q.63-.609 1.46-1.368a70.4 70.4 0 0 0 11.677 20.49m46.081 25.372q-.9 1.244-2.38 2.116-.098.06-.068.168a274 274 0 0 0 2.441 8.591q.986 3.246 2.64 6.964 1.877 4.211 4.428 7.497c.936 1.201 2.11 1.273 3.142.138a20.6 20.6 0 0 0 3.048-4.376 63.3 63.3 0 0 0 4.562-11.408q1.578-5.405 2.64-10.19A71 71 0 0 1 128 198.5c-2.879 0-5.717-.173-8.505-.508m25.804-40.304a281 281 0 0 1-12.612-6.334.1.1 0 0 1-.026-.023.1.1 0 0 1-.009-.033l.003-.021.004-.008.002-.005.003-.004.005-.005.007-.007.011-.007a455 455 0 0 0 13.584-7.768q.123-.072.114.068a399 399 0 0 1-.952 14.07.1.1 0 0 1-.014.043.1.1 0 0 1-.033.031.1.1 0 0 1-.043.013l-.025-.003-.003-.001zm-21.674-6.35.012-.013.002-.002a.1.1 0 0 0 .011-.036.06.06 0 0 0-.009-.037l-.012-.017-.014-.01-12.794-7.383-.013-.006-.003-.001-.011-.002h-.009a.06.06 0 0 0-.035.011q-.009.005-.016.013l-.008.011-.002.003a.1.1 0 0 0-.007.036l.628 13.295q0 .017.01.032a.08.08 0 0 0 .056.033.1.1 0 0 0 .033-.006l12.166-5.912.007-.004zm-18.109-15.769a.1.1 0 0 1-.037-.012l-11.345-7.612-.004-.003-.005-.004-.002-.002-.008-.01-.004-.007a.07.07 0 0 1 0-.068.1.1 0 0 1 .023-.026l11.341-7.22a.1.1 0 0 1 .036-.011.06.06 0 0 1 .037.009.1.1 0 0 1 .028.026l.006.014.004.023.007 14.832-.005.025-.004.007-.002.005-.007.009-.007.007-.005.004-.009.006a.1.1 0 0 1-.038.008m27.726-31.049a434 434 0 0 1 13.14 7.607.1.1 0 0 0 .041.011.1.1 0 0 0 .04-.011l.008-.005.009-.008.008-.009.005-.008a.1.1 0 0 0 .009-.04q-.258-7.02-.822-13.957-.009-.135-.132-.077-.73.339-1.456.669c-1.434.654-2.85 1.3-4.228 2.047a771 771 0 0 0-6.622 3.629q-.136.078 0 .152m-22.083-6.133a441 441 0 0 1 11.898 6.162l-12.631 7.28-.002-.003-.001-.002-.004-.011-.001-.012q.047-3.88.156-7.842c.041-1.527.189-3.07.333-4.57v-.002l.086-.91q.016-.166.166-.09m15.243 49.511 1.603.924q.158.09.319.004a237 237 0 0 0 11.672-6.58c1.204-.725 2.438-1.431 3.677-2.14l.001-.001h.001l.001-.001.002-.001h.001l.001-.001.002-.001.001-.001h.001c.935-.535 1.873-1.072 2.803-1.62a.18.18 0 0 0 .095-.158q.251-6.827.097-13.638c-.033-1.457-.031-2.958-.029-4.47v-.006q.001-1.165-.002-2.333a.2.2 0 0 0-.105-.185 679 679 0 0 0-18.378-10.396.15.15 0 0 0-.07-.017.14.14 0 0 0-.07.02 683 683 0 0 0-17.598 10.311.13.13 0 0 0-.048.049.13.13 0 0 0-.018.067q-.036 10.42.22 20.876a.19.19 0 0 0 .1.172 226 226 0 0 0 10.194 5.984c1.916 1.058 3.721 2.1 5.527 3.142M128 140c6.627 0 12-5.373 12-12s-5.373-12-12-12-12 5.373-12 12 5.373 12 12 12m22.87-19.563q-.003-.194.165-.095a549 549 0 0 1 6.62 3.998c1.339.823 2.642 1.75 3.936 2.671q.607.433 1.213.859.11.075-.002.152a291 291 0 0 1-11.792 7.709.1.1 0 0 1-.098.001.1.1 0 0 1-.036-.036.1.1 0 0 1-.013-.049q.136-7.534.007-15.21" clip-rule="evenodd"/></svg>
