<svg xmlns="http://www.w3.org/2000/svg" fill="none" viewBox="0 0 256 256"><path fill="#D36CF5" d="M128 256c70.692 0 128-57.308 128-128S198.692 0 128 0 0 57.308 0 128s57.308 128 128 128"/><path fill="#fff" d="M196.737 121.771q-2.617-.558-5.446-1.074a68 68 0 0 0-2.785-12.535c24.51 3.93 40.358 10.181 40.358 17.22q0 .117-.006.235c-.584 11.791-45.631 21.31-101.114 21.31-55.847 0-101.12-9.645-101.12-21.542q0-.11.005-.219c.325-7.033 16.468-13.259 41.214-17.141a67.6 67.6 0 0 0-2.81 12.522 187 187 0 0 0-6.282 1.224 139 139 0 0 0-7.194 1.72v.003a90 90 0 0 0-6.2 1.89c3.513 1.224 7.978 2.456 13.394 3.609q2.753.587 5.741 1.127v.003c16.734 3.026 38.819 4.919 63.252 4.919 24.834 0 47.241-1.955 64.07-5.068v-.003q2.55-.471 4.923-.978c5.418-1.154 9.885-2.386 13.399-3.611-3.514-1.225-7.981-2.457-13.399-3.611m7.189-33.545.004-.168c0-6.352-16.928-11.854-41.615-14.536a64.9 64.9 0 0 1 15.449 14.34q.48.096.951.196l-.688.143.002.003c-12.579 2.577-30.131 4.248-49.824 4.248-19.741 0-37.33-1.679-49.915-4.267l.002-.003-.596-.124.823-.17a64.9 64.9 0 0 1 15.449-14.351c-24.618 2.686-41.487 8.18-41.487 14.52v.004c0 7.934 36.661 14.24 61.371 15.984 5.529.39 14.188.418 14.188.418 3.055.132 8.621-.024 14.127-.402 24.845-1.708 61.394-7.945 61.759-15.835m-151.445 82.17c0-4.151 7.226-7.938 19.121-10.812a66.4 66.4 0 0 0 6.685 10.689q-.299.06-.59.123l.815.169.053.068h.272c12.545 2.525 29.912 4.156 49.368 4.156s36.824-1.631 49.369-4.156h.164l.034-.043q.477-.096.943-.194l-.683-.143a66.4 66.4 0 0 0 6.682-10.692c11.951 2.877 19.216 6.673 19.216 10.835q0 .119-.008.237c-.584 8.881-34.26 16.042-75.717 16.042s-75.132-7.161-75.716-16.042a4 4 0 0 1-.008-.237"/></svg>