<svg xmlns="http://www.w3.org/2000/svg" fill="none" viewBox="0 0 256 256"><path fill="#9A9350" d="M256 127.973a127.9 127.9 0 0 1-21.568 71.181 128.04 128.04 0 0 1-57.539 47.173 128.14 128.14 0 0 1-73.862 7.206 128.1 128.1 0 0 1-65.492-35.005 127.93 127.93 0 0 1-35.031-65.443 127.87 127.87 0 0 1 7.146-73.94 128 128 0 0 1 47.049-57.516 128.14 128.14 0 0 1 131.56-6.544 128 128 0 0 1 49.508 47.074A127.9 127.9 0 0 1 256 127.973"/><path fill="#fff" d="M125.762 108.538V49H109.31a5.94 5.94 0 0 0-3.27.971 5.57 5.57 0 0 0-2.118 2.578L91.713 83.09l29.134 27.424c1.826 1.723 4.915.48 4.915-1.976m0 54.978V130.07l.011-.01c0-2.922-1.233-5.731-3.414-7.783l-32.93-31-13.246 33.117 45.143 40.958c.374.336.843.56 1.349.645a2.74 2.74 0 0 0 1.497-.169 2.6 2.6 0 0 0 1.155-.929c.283-.41.434-.891.435-1.383m0 35.484v-14.997l-.003.011c0-2.696-1.155-5.265-3.2-7.115l-48.668-44.154-23.51 58.753a5.3 5.3 0 0 0-.34 2.628c.11.889.444 1.74.973 2.478a5.7 5.7 0 0 0 2.066 1.759 6 6 0 0 0 2.682.637zm7.472-90.462V49h16.449a5.94 5.94 0 0 1 3.27.971 5.57 5.57 0 0 1 2.118 2.578L167.28 83.09l-29.13 27.424c-1.827 1.723-4.916.48-4.916-1.976m0 54.978V130.07l-.007-.01c.002-1.45.304-2.884.89-4.221a10.9 10.9 0 0 1 2.524-3.562l32.927-31 13.245 33.117-45.146 40.958c-1.669 1.514-4.433.373-4.433-1.836m0 35.484v-14.997l.011.011c0-1.332.283-2.65.832-3.873a9.8 9.8 0 0 1 2.364-3.242l48.668-44.154 23.509 58.753c.335.837.452 1.739.342 2.629a5.4 5.4 0 0 1-.975 2.478 5.7 5.7 0 0 1-2.067 1.76 6 6 0 0 1-2.684.635z"/></svg>
