<svg xmlns="http://www.w3.org/2000/svg" fill="none" viewBox="0 0 256 256"><path fill="#DD3E3E" d="M128 256c70.693 0 128-57.307 128-128C256 57.308 198.693 0 128 0 57.308 0 0 57.308 0 128s57.308 128 128 128"/><path fill="#fff" d="M88.697 184.927H62.159c-5.576 0-8.33 0-10.01-1.075-1.814-1.176-2.923-3.125-3.057-5.275-.101-1.982 1.276-4.402 4.03-9.24l65.526-115.516c2.788-4.905 4.199-7.358 5.979-8.265a6.76 6.76 0 0 1 6.114 0c1.78.907 3.191 3.36 5.979 8.265l13.539 23.639c3.012 5.262 4.539 7.93 5.206 10.732a19.95 19.95 0 0 1 0 9.34c-.672 2.822-2.184 5.51-5.241 10.852l-34.418 60.853c-3.03 5.303-4.657 8.151-6.786 10.179a20.04 20.04 0 0 1-8.163 4.739c-2.788.772-5.912.772-12.16.772m67.016 0h38.026c5.61 0 8.432 0 10.113-1.107a6.73 6.73 0 0 0 3.057-5.309c.096-1.917-1.251-4.243-3.891-8.8l-.238-.41-.037-.064-19.048-32.589-.216-.367-.004-.007c-2.674-4.522-4.025-6.807-5.759-7.69a6.69 6.69 0 0 0-6.08 0c-1.747.907-3.158 3.293-5.946 8.097l-18.979 32.59-.065.112-.001.001c-2.778 4.796-4.166 7.193-4.066 9.16.134 2.151 1.243 4.132 3.057 5.308 1.646 1.075 4.467 1.075 10.077 1.075"/></svg>
