<svg xmlns="http://www.w3.org/2000/svg" fill="none" viewBox="0 0 512 512"><path fill="#DD3E3E" d="M256 512c141.386 0 256-114.614 256-256C512 114.615 397.386 0 256 0 114.615 0 0 114.615 0 256c0 141.386 114.615 256 256 256Z"/><path fill="#fff" d="M177.393 369.854h-53.075c-11.153 0-16.662 0-20.021-2.149-3.628-2.353-5.845-6.25-6.114-10.552-.201-3.963 2.554-8.802 8.063-18.478l131.049-231.032c5.577-9.81 8.398-14.716 11.959-16.53a13.52 13.52 0 0 1 12.228 0c3.561 1.814 6.382 6.72 11.958 16.53l27.079 47.276c6.023 10.525 9.077 15.863 10.411 21.464a39.933 39.933 0 0 1 0 18.681c-1.344 5.644-4.367 11.02-10.481 21.704l-68.838 121.705c-6.06 10.608-9.313 16.303-13.571 20.359a40.066 40.066 0 0 1-16.326 9.477c-5.576 1.545-11.824 1.545-24.321 1.545Zm134.034 0h76.051c11.219 0 16.864 0 20.225-2.215a13.447 13.447 0 0 0 6.114-10.617c.193-3.835-2.501-8.486-7.781-17.599l-.001-.001c-.158-.269-.316-.542-.476-.82l-.074-.127-38.094-65.18-.434-.734-.008-.013c-5.348-9.045-8.049-13.613-11.517-15.38a13.375 13.375 0 0 0-12.16 0c-3.494 1.815-6.315 6.585-11.892 16.194l-37.959 65.18-.13.224-.001.003c-5.556 9.592-8.333 14.385-8.132 18.319.268 4.301 2.485 8.264 6.113 10.617 3.292 2.149 8.936 2.149 20.156 2.149Z"/></svg>