<svg xmlns="http://www.w3.org/2000/svg" fill="none" viewBox="0 0 256 256"><path fill="#fff" d="M128 256c70.692 0 128-57.308 128-128S198.692 0 128 0 0 57.308 0 128s57.308 128 128 128"/><path fill="#000" d="M171.182 145.021c28.846 5.324 48.466 15.803 48.466 27.863 0 17.452-41.035 31.581-91.648 31.581s-91.648-14.137-91.648-31.581c0-12.06 19.628-22.539 48.467-27.863 12.532 3.254 27.334 5.125 43.181 5.125s30.649-1.871 43.182-5.117zm-11.044-51.15c24.5 4.08 41.379 12.657 41.379 22.593 0 13.862-32.917 25.105-73.517 25.105s-73.517-11.243-73.517-25.105c0-9.929 16.879-18.514 41.38-22.592 9.416 2.39 20.398 3.758 32.137 3.758s22.721-1.375 32.138-3.758m-31.802-42.159c30.404 0 55.058 8.508 55.058 19.01 0 10.494-24.654 19.003-55.058 19.003s-55.058-8.509-55.058-19.003c0-10.502 24.654-19.01 55.058-19.01"/></svg>
