<svg xmlns="http://www.w3.org/2000/svg" fill="none" viewBox="0 0 256 256"><path fill="#89775C" fill-rule="evenodd" d="M128 256c70.934 0 128-57.066 128-128S198.934 0 128 0 0 57.066 0 128s57.066 128 128 128" clip-rule="evenodd"/><path fill="#fff" fill-rule="evenodd" d="M185.634 113.645c2.705-16.7-9.916-25.846-27.252-32.166l5.874-22.433-13.739-3.599-5.766 22.017-10.981-2.876 5.766-22.017L125.9 49l-5.915 22.589-27.87-7.3-3.85 14.704s10.197 2.476 9.993 2.617a7.344 7.344 0 0 1 6.225 8.083l-16.192 61.833a4.98 4.98 0 0 1-2.544 2.921 4.93 4.93 0 0 1-3.852.27c.14.204-9.993-2.617-9.993-2.617L65 167.84l27.609 7.231-6.01 22.953 13.739 3.599 5.922-22.615 10.981 2.876-5.895 22.511L125.112 208l5.942-22.693c23.579 4.674 41.264 3.188 48.984-18.011 6.219-17.059.041-27.019-12.276-33.61 9.018-1.837 15.87-7.829 17.872-20.041m-66.645 18.557-7.932 30.292c.763.2 1.656.448 2.655.725l.003.001c11.206 3.111 35.761 9.927 39.865-5.745 4.19-16.002-19.511-21.652-31.141-24.425l-.002-.001a156 156 0 0 1-3.448-.847m10.848-41.32-7.21 27.534c.665.174 1.449.395 2.329.642h.003c9.382 2.637 29.684 8.341 33.422-5.933 3.833-14.635-16.064-19.297-25.739-21.564a115 115 0 0 1-2.805-.679" clip-rule="evenodd"/><path fill="#fff" fill-rule="evenodd" d="M244 128c0 64.065-51.935 116-116 116S12 192.065 12 128 63.935 12 128 12s116 51.935 116 116M128 233.209c58.105 0 105.209-47.104 105.209-105.209S186.105 22.79 128 22.79 22.79 69.895 22.79 128 69.895 233.209 128 233.209" clip-rule="evenodd"/></svg>
