<svg xmlns="http://www.w3.org/2000/svg" fill="none" viewBox="0 0 256 256"><path fill="#89775C" fill-rule="evenodd" d="M128 256c70.934 0 128-57.066 128-128S198.934 0 128 0 0 57.066 0 128s57.066 128 128 128" clip-rule="evenodd"/><path fill="#fff" fill-rule="evenodd" d="M244 128c0 64.065-51.935 116-116 116S12 192.065 12 128 63.935 12 128 12s116 51.935 116 116M128 233.209c58.105 0 105.209-47.104 105.209-105.209S186.105 22.79 128 22.79 22.79 69.895 22.79 128 69.895 233.209 128 233.209" clip-rule="evenodd"/><path fill="#fff" d="M125.465 185.253a91.8 91.8 0 0 1-24.449-3.285q-8.706-2.429-14.935-5.756c-2.461-1.315-3.368-4.298-2.362-6.901l5.868-15.17c1.396-3.611 5.81-4.97 9.284-3.259q4.419 2.178 9.57 3.781 9.236 2.669 18.11 2.669 8.693 0 11.953-2.053 3.441-2.053 3.441-5.543 0-3.285-3.26-4.722-3.078-1.642-8.331-2.464-5.07-.82-11.228-1.847a145 145 0 0 1-12.496-2.669 42.6 42.6 0 0 1-11.41-5.338q-5.07-3.696-8.15-9.855-3.078-6.159-3.078-15.603 0-10.676 5.433-18.887 5.614-8.418 16.299-13.14 10.686-4.927 26.079-4.927 10.323 0 20.827 2.464 7.752 1.638 13.692 4.573c2.547 1.258 3.498 4.303 2.466 6.95l-5.87 15.062c-1.383 3.547-5.671 4.887-9.126 3.288q-4.022-1.862-8.044-2.773Q138.504 98 131.984 98q-8.693 0-12.315 2.258-3.441 2.258-3.441 5.543t3.079 5.133q3.079 1.642 8.15 2.669 5.252.82 11.409 1.847a79.4 79.4 0 0 1 12.315 2.669q6.339 1.848 11.41 5.544 5.252 3.49 8.33 9.649 3.08 5.953 3.079 15.397 0 10.266-5.614 18.477-5.433 8.212-16.299 13.14-10.686 4.927-26.622 4.927"/><path fill="#fff" d="M125.465 185.253q-4.501 0-8.932-.426V201a6 6 0 0 0 6 6h11.377a6 6 0 0 0 6-6v-16.946q-6.584 1.199-14.445 1.199m-8.932-113.528q6.947-1.44 15.27-1.44 4.04 0 8.107.376V54a6 6 0 0 0-6-6h-11.377a6 6 0 0 0-6 6z"/></svg>