<svg xmlns="http://www.w3.org/2000/svg" fill="none" viewBox="0 0 256 256"><path fill="#000" d="M128 256c70.692 0 128-57.308 128-128S198.692 0 128 0 0 57.308 0 128s57.308 128 128 128"/><path fill="#FAC315" d="M128 256c70.692 0 128-57.308 128-128S198.692 0 128 0 0 57.308 0 128s57.308 128 128 128"/><path fill="#3B3213" d="M127.999 45v114.653l51-30.028z"/><path fill="#A48114" d="M127.999 45 77 129.625l50.999 30.028.001-53.297z"/><path fill="#3B3213" d="M128 169.402V211l51-71.756z"/><path fill="#A48114" d="M128 211v-41.598l-51-30.158z"/><path fill="#181302" d="m127.999 159.653 51-30.028L128 106.356z"/><path fill="#3B3213" d="m77 129.625 50.999 30.028.001-53.297z"/><path fill="#fff" d="m60.959 206.16-7.484 7.484c42.715 37.483 106.847 37.483 149.562 0l-7.483-7.484c-38.565 33.384-96.03 33.384-134.595 0"/><path fill="#fff" fill-rule="evenodd" d="M213.644 53.476c37.483 42.715 37.483 106.846 0 149.561l-7.484-7.483c33.384-38.565 33.384-96.03 0-134.595zM53.475 42.869c42.715-37.483 106.847-37.483 149.562 0l-7.483 7.483c-38.565-33.383-96.03-33.383-134.595 0zM42.87 203.037c-37.484-42.715-37.484-106.846 0-149.562l7.483 7.484c-33.384 38.564-33.384 96.03 0 134.595z" clip-rule="evenodd"/></svg>