<svg xmlns="http://www.w3.org/2000/svg" fill="none" viewBox="0 0 256 256"><path fill="#000" fill-rule="evenodd" d="M128 0c70.697 0 128 57.303 128 128s-57.303 128-128 128S0 198.697 0 128 57.303 0 128 0m44.965 101.439.091 19.586-28.419 16.728v33.537l-16.504 9.702-16.504-9.702v-33.537L83.21 121.025v-19.586l16.575-9.794 28.247 16.809 28.419-16.809 16.585 9.794zm-16.293 62.913 16.384-9.752v-19.688l-16.384 9.844zm28.414-2.596.092-33.454 16.55-9.792v53.119l-45.05 26.428v-19.585zm-56.917 33.534-16.551-9.793v19.494l16.551 9.793 16.631-9.793v-19.494zm-57.3-67.065.092 33.404 28.5 16.702v19.557l-45.179-26.389v-53.042zm12.331 7.011v19.586l16.55 9.701v-19.494zM70.87 94.821v19.465l-16.598-9.778V85.042l16.598-9.778 16.679 9.778zm57.172-53.349L83.2 67.993l16.504 9.794 28.338-16.81 28.419 16.81 16.504-9.794zm-16.679 43.57 16.598-9.778 16.679 9.778-16.679 9.779zm73.723-9.778-16.55 9.793 16.55 9.792v19.494l16.632-9.792V85.057z" clip-rule="evenodd"/></svg>
