<svg xmlns="http://www.w3.org/2000/svg" fill="none" viewBox="0 0 256 256"><path fill="#FAC315" fill-rule="evenodd" d="M128 0c70.697 0 128 57.303 128 128s-57.303 128-128 128S0 198.697 0 128 57.303 0 128 0" clip-rule="evenodd"/><path fill="#fff" d="m70.87 128.225.091 33.404 28.5 16.702v19.557l-45.179-26.389v-53.042zm0-33.404v19.465l-16.598-9.778V85.042l16.598-9.778 16.679 9.778zm40.493-9.779 16.598-9.778 16.679 9.778-16.679 9.779z"/><path fill="#fff" d="M83.2 154.822v-19.586l16.55 9.793v19.494zm28.418 30.675 16.551 9.793 16.631-9.793v19.494l-16.631 9.793-16.551-9.793zm56.918-100.44 16.55-9.793 16.632 9.793v19.494l-16.632 9.792V94.849zm16.55 76.699.092-33.454 16.55-9.792v53.119l-45.05 26.428v-19.585z"/><path fill="#fff" d="m173.056 154.6-16.384 9.752v-19.596l16.384-9.844z"/><path fill="#fff" d="m172.965 101.439.091 19.586-28.419 16.728v33.537l-16.504 9.702-16.504-9.702v-33.537L83.21 121.025v-19.586l16.575-9.794 28.247 16.809 28.419-16.809 16.585 9.794zM83.2 67.993l44.842-26.521 44.923 26.521-16.504 9.794-28.419-16.81-28.338 16.81z"/></svg>
