<svg xmlns="http://www.w3.org/2000/svg" fill="none" viewBox="0 0 256 256"><path fill="#000" d="M128 256c70.692 0 128-57.308 128-128S198.692 0 128 0 0 57.308 0 128s57.308 128 128 128"/><path fill="#FAC315" d="M128 256c70.692 0 128-57.308 128-128S198.692 0 128 0 0 57.308 0 128s57.308 128 128 128"/><path fill="#fff" d="m60.959 206.16-7.484 7.484c42.715 37.483 106.847 37.483 149.562 0l-7.483-7.484c-38.565 33.384-96.03 33.384-134.595 0"/><path fill="#fff" fill-rule="evenodd" d="M213.644 53.476c37.483 42.715 37.483 106.846 0 149.561l-7.484-7.483c33.384-38.565 33.384-96.03 0-134.595zM53.475 42.869c42.715-37.483 106.847-37.483 149.562 0l-7.483 7.483c-38.565-33.383-96.03-33.383-134.595 0zM42.87 203.037c-37.484-42.715-37.484-106.846 0-149.562l7.483 7.484c-33.384 38.564-33.384 96.03 0 134.595z" clip-rule="evenodd"/><path fill="#3B3213" d="M84.958 154.087a4.22 4.22 0 0 1 2.984-1.232h102.943c1.881 0 2.822 2.269 1.492 3.597l-20.335 20.317a4.23 4.23 0 0 1-2.984 1.231H66.115c-1.881 0-2.822-2.268-1.492-3.597zm0-75.856C85.77 77.454 86.84 77 87.942 77h102.943c1.881 0 2.822 2.268 1.492 3.597l-20.335 20.316a4.22 4.22 0 0 1-2.984 1.232H66.115c-1.881 0-2.822-2.269-1.492-3.597zm87.084 37.685a4.22 4.22 0 0 0-2.984-1.231H66.115c-1.881 0-2.822 2.268-1.492 3.596l20.335 20.317a4.22 4.22 0 0 0 2.984 1.231h102.943c1.881 0 2.822-2.268 1.492-3.596z"/></svg>