<svg xmlns="http://www.w3.org/2000/svg" fill="none" viewBox="0 0 256 256"><path fill="url(#paint0_linear_4193_3352)" d="M128 256c70.692 0 128-57.308 128-128S198.692 0 128 0 0 57.308 0 128s57.308 128 128 128"/><path fill="#fff" fill-rule="evenodd" d="M138.766 50.685v.04c23.089.993 41.503 20.026 41.503 43.359a43.23 43.23 0 0 1-10.542 28.353c13.12 7.744 21.922 22.026 21.922 38.363 0 24.548-19.87 44.456-44.404 44.516H80.751V50.684zm-20.305 28.507a5.47 5.47 0 0 1 3.97-5.26 5.41 5.41 0 0 1 5.505 1.32l14.733 14.734q.185.154.358.328a5.41 5.41 0 0 1 0 7.655l-15.003 15.004a5.4 5.4 0 0 1-3.961 1.584l-.135.001a5.467 5.467 0 0 1-5.467-5.467zm26.107 96.501a5.47 5.47 0 0 1-3.97 5.259 5.41 5.41 0 0 1-5.504-1.321l-14.732-14.73a5.414 5.414 0 0 1-.361-7.986l15.003-15.004a5.4 5.4 0 0 1 3.96-1.583l.084-.002h.053a5.467 5.467 0 0 1 5.467 5.467z" clip-rule="evenodd"/><defs><linearGradient id="paint0_linear_4193_3352" x1=".422" x2="313.894" y1="29.215" y2="180.998" gradientUnits="userSpaceOnUse"><stop offset=".054" stop-color="#6D5CFF"/><stop offset=".559" stop-color="#E86EFF"/><stop offset=".924" stop-color="#FFD66E"/></linearGradient></defs></svg>
