<svg xmlns="http://www.w3.org/2000/svg" fill="none" viewBox="0 0 256 256"><path fill="#000" d="M128 256c70.692 0 128-57.308 128-128S198.692 0 128 0 0 57.308 0 128s57.308 128 128 128"/><path fill="#F2F4F8" fill-rule="evenodd" d="M52.476 104.903c-1.315 8.468.233 17.18 1.84 25.552.62 1.338 1.978 2.239 3.652 2.815-3.433 7.248-5.32 15.152-5.32 23.425 0 35.036 33.906 63.465 75.726 63.465s75.75-28.363 75.75-63.465c0-8.36-1.925-16.341-5.423-23.648 1.399-.577 2.516-1.416 3.062-2.592 1.608-8.372 3.15-17.084 1.836-25.552-1.232-11.362-5.129-14.83-16.833-11.918-5.955 1.383-13.803 4.899-19.838 9.034-11.296-5.607-24.478-8.825-38.554-8.825-14.237 0-27.557 3.295-38.935 9.026-6.07-4.222-14.079-7.83-20.124-9.235-11.71-2.912-15.602.556-16.84 11.918m44.09 50.094c-8.876-3.917-24.047-2.924-24.047-2.924s.711 14.286 9.42 19.136c10.33 5.746 29.536 2.9 29.536 2.9s-1.632-13.287-14.908-19.142zm49.323 19.135s19.206 2.847 29.536-2.9c8.709-4.85 9.421-19.135 9.421-19.135s-15.172-.993-24.049 2.924c-13.276 5.801-14.908 19.058-14.908 19.058zm-21.305 10.071c0 1.053 1.955 1.908 4.364 1.908s4.364-.855 4.364-1.908-1.955-1.901-4.364-1.901-4.364.818-4.364 1.901" clip-rule="evenodd"/><path fill="#F2F4F8" fill-rule="evenodd" d="M214.675 175.407a62.3 62.3 0 0 0-22.213-4.186h.012c-1.925 0-1.925-2.991 0-2.991a64.7 64.7 0 0 1 23.008 4.312 1.523 1.523 0 0 1 1.034 1.818 1.505 1.505 0 0 1-1.841 1.047m-172.911-2.799a64.8 64.8 0 0 1 23.014-4.312v.018c1.925 0 1.919 2.99 0 2.99a62.2 62.2 0 0 0-22.219 4.186 1.507 1.507 0 0 1-1.835-1.047 1.53 1.53 0 0 1 1.04-1.835m15.237 8.569a40.7 40.7 0 0 1 11.357-1.908c1.914.011 1.91 2.99-.01 2.99A37.5 37.5 0 0 0 57.987 184c-3.12.914-6.69 2.206-8.967 4.317-1.41 1.309-3.527-.801-2.11-2.111 2.768-2.559 6.575-3.97 10.09-5.029m11.357-1.908h-.012zm3.408 7.469a57 57 0 0 0-8.614 4.599 26.8 26.8 0 0 0-7.173 6.464 1.5 1.5 0 0 0 .532 2.045 1.534 1.534 0 0 0 2.05-.532c1.68-2.32 4.089-4.12 6.474-5.657a58 58 0 0 1 8.214-4.335 1.51 1.51 0 0 0 .538-2.046 1.536 1.536 0 0 0-2.045-.538zm117.116-4.539c3.518.088 7.005.672 10.359 1.735a35 35 0 0 1 5.063 1.871 15.4 15.4 0 0 1 3.892 2.452c1.411 1.304 3.526-.801 2.116-2.117-2.75-2.553-6.534-3.97-10.072-5.029a40.5 40.5 0 0 0-11.358-1.901c-1.925 0-1.931 2.989 0 2.989m3.3 11.368a60 60 0 0 0-8.088-4.186v-.029a1.516 1.516 0 0 1-.538-2.045 1.547 1.547 0 0 1 2.05-.532c5.823 2.541 11.95 5.806 15.757 11.062a1.51 1.51 0 0 1-.532 2.045 1.527 1.527 0 0 1-2.044-.538c-1.722-2.374-4.155-4.216-6.605-5.777" clip-rule="evenodd"/><path fill="#6665DD" d="M30.406 138.074c1.38-2.153 13.516-8.629 28.532-12.474a176.5 176.5 0 0 1 11.955-26.677c-.06 0 12.01-21.67 11.956-21.683a68 68 0 0 1-9.935-5.567 8.6 8.6 0 0 1-1.441-1.405 3.3 3.3 0 0 1-.478-1.753c0-.502.711-1.399 1.028-1.793.808-.952 1.7-1.828 2.666-2.62a71 71 0 0 1 7.239-5.202c1.196-.79 2.439-1.561 3.664-2.338 8.608-5.484 13.325-9.61 21.209-14.143 7.532-4.317 11.191-6.978 19.924-6.53 10.975 0 38.257 34.767 50.56 52.683 7.376 10.764 17.275 30.145 20.922 37.435.872.221 1.661.43 2.39.645 11.191 3.361 22.166 8.289 24.85 11.422 2.391 2.787-8.058 4.031-18.358 5.824-10.299 1.794-45.239 2.685-78.816 2.912-33.576.228-72.766-.896-81.297-2.242-8.53-1.345-18.285-3.809-16.57-6.494"/><path fill="#FF99A5" d="M188.845 108.043s-22.118-5.543-61.086-5.543c-41.844 0-61.995 6.458-61.995 6.458s-2.391 4.544-3.431 7.175-3.395 9.467-3.395 9.467 30.444-5.454 69.407-5.454a438.6 438.6 0 0 1 70.022 5.92s-3.532-8.27-5.649-11.798-3.873-6.225-3.873-6.225"/><path fill="#FFE600" d="M57.21 61.274c2.535-.371 5.978 7.39 5.978 7.39s7.974-2.146 9.217 0c1.244 2.148-5.607 7.302-5.607 7.302s4.137 7.278 2.828 8.79c-1.31 1.514-8.686-3.079-8.686-3.079s-5.625 6.339-7.46 5.382.245-9.215.245-9.215-7.956-3.385-7.412-5.394 8.835-2.62 8.835-2.62-.467-8.186 2.062-8.556"/></svg>