<svg xmlns="http://www.w3.org/2000/svg" fill="none" viewBox="0 0 256 256"><path fill="#000" fill-rule="evenodd" d="M128 256c70.934 0 128-57.066 128-128S198.934 0 128 0 0 57.066 0 128s57.066 128 128 128m35.219-185.372c21.205 7.712 36.642 18.87 33.334 39.247-2.449 14.9-10.831 22.211-21.86 24.452 15.064 8.042 22.621 20.195 15.015 41.009-9.443 25.865-31.074 27.679-59.915 21.976L122.525 225l-16.837-4.399 7.21-27.466-13.431-3.509-7.244 27.593-16.805-4.391 7.352-28.006L49 175.999l8.442-19.204s12.395 3.442 12.222 3.193a6.04 6.04 0 0 0 4.712-.33 6.08 6.08 0 0 0 3.113-3.563L97.294 80.65a8.95 8.95 0 0 0-1.811-6.465 9 9 0 0 0-5.804-3.396c.25-.173-12.222-3.193-12.222-3.193l4.71-17.94 34.087 8.905L123.49 31l16.677 4.357-7.051 26.863 13.431 3.51 7.052-26.863 16.805 4.39z" clip-rule="evenodd"/><path fill="#000" d="m105.334 169.477 9.702-36.96c1.166.308 2.596.648 4.218 1.034h.002c14.225 3.383 43.215 10.278 38.09 29.802-5.02 19.122-35.054 10.805-48.76 7.01l-.004-.001a244 244 0 0 0-3.248-.885m14.152-53.781 8.819-33.594c.95.248 2.113.52 3.431.828 11.834 2.766 36.17 8.454 31.482 26.311-4.572 17.416-29.405 10.456-40.88 7.239l-.003-.001c-1.076-.301-2.035-.57-2.849-.783"/></svg>