<svg xmlns="http://www.w3.org/2000/svg" fill="none" viewBox="0 0 256 256"><path fill="#F5AC3A" d="M128 256c70.934 0 128-57.066 128-128S198.934 0 128 0 0 57.066 0 128s57.066 128 128 128"/><path fill="#fff" fill-rule="evenodd" d="M196.515 106.033c3.486-21.523-12.781-33.31-35.126-41.455l7.571-28.912-17.709-4.637-7.431 28.374-14.153-3.706 7.431-28.375-17.575-4.603-7.625 29.113-35.92-9.407-4.963 18.95s13.141 3.19 12.879 3.373a9.465 9.465 0 0 1 8.024 10.416l-20.87 79.69a6.42 6.42 0 0 1-3.28 3.765 6.34 6.34 0 0 1-4.965.348c.182.263-12.88-3.373-12.88-3.373l-8.896 20.285 35.586 9.32-7.747 29.582 17.709 4.638 7.633-29.146 14.154 3.706-7.598 29.012 17.742 4.647 7.66-29.247c30.391 6.024 53.186 4.109 63.136-23.212 8.016-21.985.052-34.823-15.823-43.317 11.623-2.368 20.455-10.09 23.036-25.829m-85.9 23.917-10.224 39.04c.984.258 2.136.578 3.426.936 14.443 4.009 46.093 12.793 51.383-7.405 5.401-20.622-25.148-27.905-40.139-31.479h-.002c-1.709-.408-3.216-.767-4.444-1.092m13.982-53.253-9.293 35.485c.857.225 1.868.509 3.002.828h.003c12.093 3.398 38.261 10.75 43.079-7.646 4.94-18.862-20.705-24.87-33.176-27.792-1.388-.325-2.614-.612-3.615-.875" clip-rule="evenodd"/></svg>