<svg width="256" height="256" viewBox="0 0 256 256" fill="none" xmlns="http://www.w3.org/2000/svg">
<path d="M128 256C198.934 256 256 198.934 256 128C256 57.0662 198.934 0 128 0C57.0662 0 0 57.0662 0 128C0 198.934 57.0662 256 128 256Z" fill="#FAC315"/>
<path d="M128.256 34.816L151.28 58.3893L93.304 116.352L70.28 93.3333L128.256 34.816Z" fill="white"/>
<path d="M163.208 69.76L186.232 93.3333L93.304 186.24L70.28 163.221L163.208 69.76Z" fill="white"/>
<path d="M58.352 104.704L81.3759 128.277L58.352 151.296L35.328 128.277L58.352 104.704Z" fill="white"/>
<path d="M198.16 104.704L221.184 128.277L128.256 221.184L105.232 198.165L198.16 104.704Z" fill="white"/>
</svg>
