<svg xmlns="http://www.w3.org/2000/svg" fill="none" viewBox="0 0 256 256"><path fill="#7FEBEB" fill-rule="evenodd" d="M256 128c0 70.692-57.308 128-128 128S0 198.692 0 128 57.308 0 128 0s128 57.308 128 128M91.882 33.28c-15.412 0-27.267 14.246-24.303 29.68l6.52 36.21c-23.117 10.091-40.307 27.899-40.307 49.862v13.653c0 18.401 11.855 33.835 28.452 43.926 17.19 10.685 39.715 16.621 65.204 16.621s48.013-5.936 65.203-16.621c17.19-10.091 29.045-25.525 29.045-43.926v-13.653c0-21.963-17.783-39.771-40.9-49.862l6.52-36.21c2.371-15.434-9.484-29.68-24.896-29.68-13.633 0-24.896 11.278-24.896 24.931v30.867c-3.636-.593-6.094-.745-10.036-.758-4.173-.014-7.168.165-10.71.758V58.211c0-13.653-11.262-24.931-24.896-24.931" clip-rule="evenodd"/><path fill="#FEDC90" d="M41.498 149.626v13.652c0 29.087 38.53 52.831 85.95 52.831s86.542-24.338 86.542-53.424v-13.059c0 29.086-38.529 52.83-85.95 52.83s-86.542-23.744-86.542-52.83"/><path fill="#633001" fill-rule="evenodd" d="M67.58 62.96c-2.965-15.434 8.89-29.68 24.302-29.68 13.634 0 24.896 11.278 24.896 24.931v30.867c3.542-.593 6.537-.772 10.71-.758 3.942.013 6.4.165 10.036.758V58.211c0-13.653 11.263-24.931 24.896-24.931 15.412 0 27.267 14.246 24.896 29.68l-6.52 36.21c23.117 10.091 40.9 27.899 40.9 49.862v13.653c0 18.401-11.855 33.835-29.045 43.926-17.19 10.685-39.715 16.621-65.203 16.621-25.489 0-48.014-5.936-65.204-16.621-16.597-10.091-28.452-25.525-28.452-43.926v-13.653c0-21.963 17.19-39.771 40.308-49.862zm112.03-1.78-7.706 43.332c25.489 9.498 42.679 25.525 42.086 45.114v13.059c0 29.086-39.122 53.424-86.542 53.424s-85.95-23.744-85.95-52.831v-13.652c0-18.996 17.19-35.616 42.086-45.114l-8.299-42.74c-2.371-10.684 5.928-20.775 16.597-20.775 9.484 0 17.19 7.717 17.19 17.214V97.39c5.928-.594 11.855-1.187 18.376-1.187 5.927 0 11.855.593 17.782 1.187V57.618c0-9.498 7.706-17.215 17.19-17.215 10.433 0 19.34 9.261 17.19 20.776" clip-rule="evenodd"/><path fill="#633001" d="M169.533 145.47c0 7.717-4.149 14.247-9.484 14.247s-9.484-6.53-9.484-14.247 4.149-14.246 9.484-14.246 9.484 6.53 9.484 14.246"/><path fill="#D2884F" fill-rule="evenodd" d="M128.04 202.456c-47.42 0-86.542-23.744-86.542-52.83 0-18.996 17.19-35.616 42.086-45.114l-8.299-42.74c-2.371-10.684 5.928-20.775 16.597-20.775 9.484 0 17.19 7.717 17.19 17.214V97.39c5.928-.594 11.855-1.187 18.376-1.187 5.927 0 11.855.593 17.782 1.187V57.618c0-9.498 7.706-17.215 17.19-17.215 10.433 0 19.34 9.261 17.19 20.776l-7.706 43.333c25.489 9.498 42.679 25.525 42.086 45.114 0 29.086-38.529 52.83-85.95 52.83m41.493-56.986c0 7.717-4.149 14.247-9.484 14.247s-9.484-6.53-9.484-14.247 4.149-14.246 9.484-14.246 9.484 6.53 9.484 14.246m-75.28 14.247c5.335 0 9.484-6.53 9.484-14.247s-4.149-14.246-9.484-14.246-9.484 6.53-9.484 14.246 4.15 14.247 9.484 14.247" clip-rule="evenodd"/><path fill="#633001" d="M103.737 145.47c0 7.717-4.149 14.247-9.484 14.247s-9.484-6.53-9.484-14.247 4.15-14.246 9.484-14.246c5.335 0 9.484 6.53 9.484 14.246"/></svg>
