<svg xmlns="http://www.w3.org/2000/svg" fill="none" viewBox="0 0 256 256"><path fill="#1552F0" d="M128 256c70.934 0 128-57.066 128-128S198.934 0 128 0 0 57.066 0 128s57.066 128 128 128"/><path fill="#fff" d="M128.5 242c63.452 0 114.5-51.048 114.5-114.5S191.952 13 128.5 13 14 64.048 14 127.5 65.048 242 128.5 242"/><path fill="#1552F0" fill-rule="evenodd" d="M192.492 111.369c3.04-18.695-11.145-28.933-30.631-36.01l6.603-25.113-15.443-4.028-6.48 24.647-12.342-3.22 6.48-24.647L125.353 39l-6.648 25.288-31.324-8.171-4.328 16.46s11.46 2.772 11.231 2.93a8.26 8.26 0 0 1 5.333 3.116 8.2 8.2 0 0 1 1.664 5.932l-18.199 69.222a5.57 5.57 0 0 1-2.86 3.27 5.54 5.54 0 0 1-4.33.303c.16.228-11.23-2.93-11.23-2.93l-7.759 17.621 31.032 8.095-6.756 25.696 15.443 4.029 6.656-25.318 12.342 3.22-6.625 25.201L124.467 217l6.679-25.405c26.502 5.233 46.379 3.569 55.056-20.163 6.99-19.097.046-30.248-13.797-37.626 10.135-2.057 17.837-8.765 20.087-22.437m-74.907 20.775-8.915 33.912c.858.224 1.863.502 2.988.813 12.595 3.482 40.194 11.113 44.807-6.432 4.709-17.913-21.93-24.239-35.002-27.344h-.002c-1.49-.354-2.805-.666-3.876-.949m12.193-46.257-8.104 30.824c.748.195 1.629.442 2.618.719h.003c10.545 2.951 33.364 9.338 37.566-6.642 4.307-16.384-18.056-21.603-28.93-24.14a141 141 0 0 1-3.153-.76" clip-rule="evenodd"/></svg>
