<svg width="256" height="256" viewBox="0 0 256 256" fill="none" xmlns="http://www.w3.org/2000/svg">
<path d="M128 256C198.934 256 256 198.934 256 128C256 57.0662 198.934 0 128 0C57.0662 0 0 57.0662 0 128C0 198.934 57.0662 256 128 256Z" fill="#1552F0"/>
<path d="M128.5 242C191.952 242 243 190.952 243 127.5C243 64.0475 191.952 13 128.5 13C65.0475 13 14 64.0475 14 127.5C14 190.952 65.0475 242 128.5 242Z" fill="white"/>
<path d="M127.999 34V164.517L185.999 130.334L127.999 34Z" fill="#1552F0"/>
<path d="M127.999 34L70 130.334L127.999 164.517L128 103.846L127.999 34Z" fill="#6697FF"/>
<path d="M128 175.615V222.968L186 141.284L128 175.615Z" fill="#1552F0"/>
<path d="M128 222.968V175.615L70 141.284L128 222.968Z" fill="#6697FF"/>
<path d="M127.999 164.517L185.999 130.334L128 103.846L127.999 164.517Z" fill="#6697FF"/>
<path d="M70 130.334L127.999 164.517L128 103.846L70 130.334Z" fill="#CCDCFF"/>
</svg>
