<svg xmlns="http://www.w3.org/2000/svg" fill="none" viewBox="0 0 256 256"><path fill="#1552F0" d="M128 256c70.934 0 128-57.066 128-128S198.934 0 128 0 0 57.066 0 128s57.066 128 128 128"/><path fill="#fff" d="M128.5 242c63.452 0 114.5-51.048 114.5-114.5S191.952 13 128.5 13 14 64.048 14 127.5 65.048 242 128.5 242"/><path fill="#1552F0" d="M127.999 34v130.517l58-34.183z"/><path fill="#6697FF" d="M127.999 34 70 130.334l57.999 34.183.001-60.671z"/><path fill="#1552F0" d="M128 175.615v47.353l58-81.684z"/><path fill="#6697FF" d="M128 222.968v-47.353l-58-34.331zm-.001-58.451 58-34.183L128 103.846z"/><path fill="#CCDCFF" d="m70 130.334 57.999 34.183.001-60.671z"/></svg>