<svg xmlns="http://www.w3.org/2000/svg" fill="none" viewBox="0 0 256 256"><path fill="#fff" d="M256 128C256 57.308 198.692 0 128 0S0 57.308 0 128s57.308 128 128 128 128-57.308 128-128"/><path fill="#D82292" d="m128.128 26 33.061 46.571-33.061 11.725L95.072 72.57z"/><path fill="#DE46AB" d="M95.372 137.657h65.688V72.581l-32.844 11.687-32.844-11.692z"/><path fill="#FFA4CB" d="M161.069 72.576v65.081l-32.839-11.821V84.268z"/><path fill="#D82292" d="m128.211 183.93-32.84-46.273 32.845-11.642 32.839 11.646-32.839 46.273zm5.051 45.07 5.811-37.23 18.472 2.355 8.703 16.384z"/><path fill="#FFA4CB" d="m193.198 171.48-26.991-18.619-27.111 38.937 18.366 2.318 8.625 16.301z"/><path fill="#DE46AB" d="m139.115 191.803 27.11-38.942 8.579 16.383-17.319 24.872z"/><path fill="#D82292" d="m199 134.489-5.775 36.986-18.352-2.341-8.648-16.273z"/><path fill="#FFA4CB" d="m119.738 229-5.811-37.23-18.472 2.355-8.703 16.389z"/><path fill="#D82292" d="m59.765 171.48 26.991-18.619 27.111 38.942-18.366 2.313-8.625 16.306-27.115-38.942z"/><path fill="#DE46AB" d="M113.885 191.803 86.77 152.861l-8.57 16.383 17.315 24.872z"/><path fill="#FFA4CB" d="m54 134.489 5.775 36.991 18.352-2.341 8.643-16.278z"/></svg>