<svg width="256" height="256" viewBox="0 0 256 256" fill="none" xmlns="http://www.w3.org/2000/svg">
<path d="M256 128C256 57.3075 198.692 0 128 0C57.3075 0 0 57.3075 0 128C0 198.692 57.3075 256 128 256C198.692 256 256 198.692 256 128Z" fill="white"/>
<path d="M128.128 26L161.189 72.5714L128.128 84.2958L95.0721 72.5714L128.128 26Z" fill="#D82292"/>
<path d="M95.3719 137.657H161.06V72.5806L128.216 84.2682L95.3719 72.576V137.657Z" fill="#DE46AB"/>
<path d="M161.069 72.576V137.657L128.23 125.836V84.2682L161.069 72.576Z" fill="#FFA4CB"/>
<path d="M128.211 183.93L95.3719 137.657L128.216 126.015L161.055 137.661L128.216 183.934L128.211 183.93ZM133.262 229L139.073 191.77L157.545 194.125L166.248 210.509L133.262 229Z" fill="#D82292"/>
<path d="M193.198 171.48L166.207 152.861L139.096 191.798L157.462 194.116L166.087 210.417L193.198 171.48Z" fill="#FFA4CB"/>
<path d="M139.115 191.803L166.225 152.861L174.804 169.244L157.485 194.116L139.115 191.803Z" fill="#DE46AB"/>
<path d="M199 134.489L193.225 171.475L174.873 169.134L166.225 152.861L199 134.489Z" fill="#D82292"/>
<path d="M119.738 229L113.927 191.77L95.4549 194.125L86.7516 210.514L119.738 229Z" fill="#FFA4CB"/>
<path d="M59.7653 171.48L86.7562 152.861L113.867 191.803L95.5011 194.116L86.8761 210.422L59.7607 171.48H59.7653Z" fill="#D82292"/>
<path d="M113.885 191.803L86.7701 152.861L78.2005 169.244L95.5149 194.116L113.885 191.803Z" fill="#DE46AB"/>
<path d="M54 134.489L59.7745 171.48L78.1267 169.139L86.7701 152.861L54 134.489Z" fill="#FFA4CB"/>
</svg>
