<svg xmlns="http://www.w3.org/2000/svg" fill="none" viewBox="0 0 256 256"><path fill="#fff" d="M128 256c70.692 0 128-57.308 128-128S198.692 0 128 0 0 57.308 0 128s57.308 128 128 128"/><path fill="url(#paint0_linear_4193_3536)" d="m205.656 154.436-5.583-9.58-67.542-115.444-.483-.758-.62-.62-.62-.414s-.483-.207-.759-.344c-.275-.07-.482-.138-.758-.207-.206 0-.482-.069-.758-.069h-.965c-.275 0-.482 0-.758.069-.276 0-.551.138-.758.207a2.6 2.6 0 0 0-.758.344s-.483.276-.62.414c0 0-.483.413-.69.62l-.344.62-68.507 117.099-3.722 6.479v.206C48.516 158.847 47 164.982 47 171.391c0 1.517.069 2.964.207 4.48.551 5.101 2.067 10.062 4.41 14.75 3.033 5.996 7.375 11.51 12.889 16.403 5.79 5.169 12.888 9.649 20.814 13.095 7.65 3.377 16.196 5.858 25.294 7.237 5.651.896 11.509 1.309 17.506 1.309s11.716-.413 17.299-1.309c9.097-1.379 17.643-3.86 25.294-7.237 7.994-3.515 15.024-7.926 20.882-13.025 5.514-4.894 9.926-10.34 12.958-16.335 2.343-4.618 3.929-9.581 4.48-14.681.206-1.586.275-3.101.275-4.755 0-5.927-1.24-11.579-3.652-16.956z"/><path fill="url(#paint1_linear_4193_3536)" d="m131.428 28.034 1.24 2.413 52.518 100.212 23.846 45.489c.208-1.586.277-3.102.277-4.757 0-5.927-1.242-11.578-3.654-16.954l-5.582-9.58-67.542-115.444-.483-.759z"/><path fill="url(#paint2_linear_4193_3536)" d="m130.809 27.62 1.654 3.722 42.042 93.045 29.979 66.44c2.345-4.618 3.929-9.579 4.481-14.681l-23.847-45.488L132.67 30.446l-1.241-2.412z"/><path fill="url(#paint3_linear_4193_3536)" d="m130.049 27.275 1.723 5.032 29.705 86.841 30.118 88.014c5.514-4.894 9.924-10.338 12.958-16.335l-29.981-66.441-42.111-93.044-1.654-3.722s-.482-.207-.758-.345"/><path fill="url(#paint4_linear_4193_3536)" d="m129.223 27.138 1.309 5.996 17.782 82.775 22.399 104.349c7.994-3.516 15.024-7.927 20.883-13.027l-30.119-88.014-29.704-86.91-1.723-5.031s-.483-.138-.758-.207z"/><path fill="url(#paint5_linear_4193_3536)" d="m128.534 27 .551 6.548 6.823 80.845 9.58 113.032c9.098-1.378 17.644-3.86 25.294-7.237L148.383 115.84l-17.851-82.706-1.309-5.996s-.482-.07-.758-.07z"/><path fill="url(#paint6_linear_4193_3536)" d="M110.682 227.425c5.652.895 11.51 1.309 17.506 1.309s11.717-.414 17.299-1.309l-9.58-113.032-6.823-80.845-.551-6.548h-.965l-.552 6.548-6.823 80.845-9.58 113.032z"/><path fill="url(#paint7_linear_4193_3536)" d="M85.39 220.119c7.65 3.377 16.196 5.858 25.293 7.237l9.58-113.032 6.754-80.776.552-6.548s-.483 0-.758.069l-1.31 5.996-17.781 82.844-22.4 104.21z"/><path fill="url(#paint8_linear_4193_3536)" d="M64.564 207.019c5.792 5.171 12.893 9.653 20.822 13.1l22.406-104.245 17.788-82.803 1.31-5.999s-.552.138-.759.207l-1.723 5.033-29.784 86.871z"/><path fill="url(#paint9_linear_4193_3536)" d="M51.686 190.621c3.032 5.995 7.374 11.509 12.888 16.402l30.05-87.806 29.773-86.91 1.723-5.032s-.551.207-.758.345l-1.654 3.722-42.18 93.113z"/><path fill="url(#paint10_linear_4193_3536)" d="M47.207 175.871c.551 5.169 2.068 10.063 4.411 14.75l29.911-66.166 42.111-93.113 1.654-3.722s-.482.276-.62.414l-1.241 2.412-52.586 100.419z"/><path fill="url(#paint11_linear_4193_3536)" d="M47 171.391c0 1.517.069 2.965.207 4.48l23.57-45.005 52.656-100.42 1.241-2.412s-.483.414-.69.62l-.344.62-68.507 117.099-3.722 6.479v.206C48.516 158.847 47 164.982 47 171.391"/><path fill="url(#paint12_linear_4193_3536)" d="m132.048 28.654.484.76s-.277-.553-.484-.76"/><defs><linearGradient id="paint0_linear_4193_3536" x1="79.599" x2="226.195" y1="112.601" y2="170.7" gradientUnits="userSpaceOnUse"><stop stop-color="#FF5A5A"/><stop offset=".2" stop-color="#FDD55A"/><stop offset=".35" stop-color="#57F7AE"/><stop offset=".69" stop-color="#197CEF"/><stop offset="1" stop-color="#3A3A3A"/></linearGradient><linearGradient id="paint1_linear_4193_3536" x1="221.989" x2="47.891" y1="192.689" y2="-133.241" gradientUnits="userSpaceOnUse"><stop stop-color="#3A3A3A"/><stop offset=".5" stop-color="#1682FE"/><stop offset="1" stop-color="#2DBDE1"/></linearGradient><linearGradient id="paint2_linear_4193_3536" x1="214.548" x2="15.498" y1="204.749" y2="-254.13" gradientUnits="userSpaceOnUse"><stop stop-color="#3A3A3A"/><stop offset=".5" stop-color="#1682FE"/><stop offset="1" stop-color="#2DBDE1"/></linearGradient><linearGradient id="paint3_linear_4193_3536" x1="229.502" x2="-16.691" y1="276.98" y2="-333.941" gradientUnits="userSpaceOnUse"><stop stop-color="#3A3A3A"/><stop offset=".5" stop-color="#1682FE"/><stop offset="1" stop-color="#2DBDE1"/></linearGradient><linearGradient id="paint4_linear_4193_3536" x1="217.923" x2="49.751" y1="329.912" y2="-201.957" gradientUnits="userSpaceOnUse"><stop stop-color="#3A3A3A"/><stop offset=".5" stop-color="#1682FE"/><stop offset="1" stop-color="#2DBDE1"/></linearGradient><linearGradient id="paint5_linear_4193_3536" x1="190.838" x2="26.319" y1="304.687" y2="-241.104" gradientUnits="userSpaceOnUse"><stop stop-color="#3A3A3A"/><stop offset=".22" stop-color="#1682FE"/><stop offset=".5" stop-color="#57F7AE"/><stop offset="1" stop-color="#FED55A"/></linearGradient><linearGradient id="paint6_linear_4193_3536" x1="168.438" x2="46.513" y1="313.302" y2="-151.162" gradientUnits="userSpaceOnUse"><stop stop-color="#3A3A3A"/><stop offset=".22" stop-color="#1682FE"/><stop offset=".5" stop-color="#57F7AE"/><stop offset="1" stop-color="#FED55A"/></linearGradient><linearGradient id="paint7_linear_4193_3536" x1="120.47" x2="90.971" y1="335.426" y2="-111.257" gradientUnits="userSpaceOnUse"><stop stop-color="#3A3A3A"/><stop offset=".22" stop-color="#1682FE"/><stop offset=".5" stop-color="#57F7AE"/><stop offset="1" stop-color="#FED55A"/></linearGradient><linearGradient id="paint8_linear_4193_3536" x1="125.925" x2="91.934" y1="352.012" y2="87.4" gradientUnits="userSpaceOnUse"><stop offset=".4" stop-color="#1682FE"/><stop offset=".7" stop-color="#57F7AE"/><stop offset="1" stop-color="#FED55A"/></linearGradient><linearGradient id="paint9_linear_4193_3536" x1="99.723" x2="89.66" y1="360.306" y2="127.557" gradientUnits="userSpaceOnUse"><stop offset=".4" stop-color="#1682FE"/><stop offset=".7" stop-color="#57F7AE"/><stop offset="1" stop-color="#FED55A"/></linearGradient><linearGradient id="paint10_linear_4193_3536" x1="55.133" x2="119.714" y1="266.779" y2="-75.142" gradientUnits="userSpaceOnUse"><stop offset=".03" stop-color="#1682FE"/><stop offset=".21" stop-color="#FCA75B"/><stop offset=".52" stop-color="#FF5A5A"/></linearGradient><linearGradient id="paint11_linear_4193_3536" x1="49.068" x2="115.854" y1="239.694" y2="-19.246" gradientUnits="userSpaceOnUse"><stop offset=".03" stop-color="#1682FE"/><stop offset=".21" stop-color="#FCA75B"/><stop offset=".52" stop-color="#FF5A5A"/></linearGradient><linearGradient id="paint12_linear_4193_3536" x1="132.324" x2="132.324" y1="29.414" y2="28.654" gradientUnits="userSpaceOnUse"><stop stop-color="#2DBDE1"/><stop offset=".5" stop-color="#1682FE"/><stop offset="1" stop-color="#3A3A3A"/></linearGradient></defs></svg>
