<svg xmlns="http://www.w3.org/2000/svg" fill="none" viewBox="0 0 256 256"><path fill="#000" d="M128 256c70.692 0 128-57.308 128-128S198.692 0 128 0 0 57.308 0 128s57.308 128 128 128"/><path fill="#00D395" fill-rule="evenodd" d="M53.521 184.634a16.61 16.61 0 0 1-7.953-14.155v-32.236a6.92 6.92 0 0 1 6.947-6.912c1.22 0 2.425.33 3.481.94l72.75 42.415a13.83 13.83 0 0 1 6.881 11.96v33.391a8.284 8.284 0 0 1-8.283 8.315 8.4 8.4 0 0 1-4.356-1.221zm108.44-61.189c4.257 2.474 6.864 7.044 6.881 11.96v67.772a5.51 5.51 0 0 1-2.822 4.817l-15.922 8.958a2.8 2.8 0 0 1-.644.264v-37.63c0-4.867-2.558-9.387-6.749-11.895l-63.889-38.208V87.002a6.92 6.92 0 0 1 6.947-6.912c1.22 0 2.425.33 3.481.94zm31.846-50.053a13.84 13.84 0 0 1 6.897 11.977v98.984a5.6 5.6 0 0 1-2.921 4.867l-15.097 8.15v-68.91c0-4.867-2.558-9.37-6.716-11.878l-65.308-39.165V37.13c0-1.22.33-2.425.924-3.48 1.93-3.3 6.171-4.422 9.471-2.508z" clip-rule="evenodd"/></svg>