<svg xmlns="http://www.w3.org/2000/svg" fill="none" viewBox="0 0 256 256"><path fill="#000" d="M128 256c70.692 0 128-57.308 128-128S198.692 0 128 0 0 57.308 0 128s57.308 128 128 128"/><path fill="#FF9211" fill-rule="evenodd" d="M127.974 52.674 62.876 90.349v75.299l65.098 37.624 65.202-37.675V90.349zm2.79-18.941a5.48 5.48 0 0 0-5.476 0L47.79 78.479A5.47 5.47 0 0 0 45 83.227v89.543a5.44 5.44 0 0 0 2.738 4.697l77.498 44.798c1.705.98 3.823.98 5.528 0l77.498-44.798A5.44 5.44 0 0 0 211 172.77V83.227a5.46 5.46 0 0 0-2.738-4.748z" clip-rule="evenodd"/><path fill="#FF9211" d="m127.974 79.976-41.539 23.998v47.998l41.333 23.895a.54.54 0 0 1 .258.465v8.257c0 .096-.027.19-.077.272a.52.52 0 0 1-.486.242.5.5 0 0 1-.264-.101l-46.912-27.044a4.13 4.13 0 0 1-2.066-3.561V101.6a4.13 4.13 0 0 1 2.066-3.56l45.621-26.27a4.14 4.14 0 0 1 4.133 0l47.067 27.043a.52.52 0 0 1 .355.49.51.51 0 0 1-.355.49c-2.739 1.652-4.185 2.375-7.285 4.13a.52.52 0 0 1-.517 0l-41.332-23.896z"/><path fill="#FF9211" d="M134.846 129.005c0-.206.103-.413.31-.516l41.332-21.986a.51.51 0 0 1 .596-.034.51.51 0 0 1 .23.55v53.52c0 .206-.103.361-.31.516l-41.332 23.947a.515.515 0 0 1-.771-.174.5.5 0 0 1-.055-.29z"/></svg>