<svg xmlns="http://www.w3.org/2000/svg" fill="none" viewBox="0 0 256 256"><path fill="#fff" d="M128 256c70.692 0 128-57.308 128-128S198.692 0 128 0 0 57.308 0 128s57.308 128 128 128"/><path fill="#fff" fill-rule="evenodd" d="M127.836 190.679V226c-49.812 0-90.93-37.289-97.05-85.518A99 99 0 0 1 30 128c0-54.124 43.8-98 97.832-98l.003 26.349.001 8.972h-.002c-31.808 0-58.148 23.898-62.07 54.708A63 63 0 0 0 65.26 128c0 2.869.194 5.693.568 8.461 4.137 30.573 30.369 54.218 62.007 54.218z" clip-rule="evenodd"/><path fill="#000" d="M127.836 65.32c23.774.002 44.501 13.363 55.085 32.982L214 81.55C197.469 50.86 165.085 30 127.835 30v26.349zm55.083 92.38c-9.923 18.391-28.76 31.285-50.666 32.824q-2.19.155-4.417.155V226c37.251-.001 69.635-20.86 86.159-51.55zM65.26 128c0 2.869.194 5.693.568 8.461 4.137 30.573 30.369 54.218 62.007 54.218V65.321h-.001c-31.808 0-58.148 23.898-62.07 54.708A63 63 0 0 0 65.26 128"/></svg>