<svg xmlns="http://www.w3.org/2000/svg" fill="none" viewBox="0 0 256 256"><path fill="#fff" d="M128 256c70.692 0 128-57.308 128-128S198.692 0 128 0 0 57.308 0 128s57.308 128 128 128"/><path fill="#1682FE" d="m153.039 70.358-12.323 5.085v18.842l12.323-5.084zm-37.755-37.555-12.191 5.085v18.843l12.191-5.085z"/><path fill="#14CA7B" d="M77.66 51.646 65.47 56.73v18.842l12.19-5.084z"/><path fill="#F4BB3B" d="m58.784 126.821-12.192 5.019v56.397l12.191-5.084z"/><path fill="#14CA7B" d="m58.784 70.489-12.192 4.954v56.397l12.191-5.019z"/><path fill="#1682FE" d="m171.916 89.2-12.454 5.085v18.843l12.454-5.085z"/><path fill="#FF5A5A" d="m171.785 145.467-12.323 5.085v18.843l12.323-5.085zm-18.878 18.843-12.191 5.085v18.842l12.191-5.084zm-37.623 37.685-12.191 5.085v18.712l12.191-4.954z"/><path fill="#F4BB3B" d="m77.66 183.153-12.19 5.084v18.712l12.19-4.954z"/><path fill="#000" d="M209.408 70.358h-18.877V51.646h-37.624V32.803h-37.623v18.843H77.661v18.843H58.783v112.664h18.878v18.842h37.623v18.843h37.623v-18.843h37.624v-18.842h18.877v-37.686h-37.623v18.843h-18.878v18.843h-37.623V164.31H96.538V89.2h18.877V70.359h37.624V89.2h18.877v18.842h37.492z"/></svg>