<svg xmlns="http://www.w3.org/2000/svg" fill="none" viewBox="0 0 256 256"><path fill="#F7BB38" d="M127.999 256C198.692 256 256 198.693 256 128 256 57.308 198.692 0 127.999 0 57.308 0 0 57.308 0 128s57.308 128 127.999 128"/><path fill="url(#paint0_linear_4193_3611)" d="M194.947 192.145c-56.757 11.466-112.207-25.32-123.742-81.747-5.77-27.342.155-54.65 14.253-76.703-42.746 19.646-68.025 66.666-58.221 114.95 11.534 56.427 66.985 93.213 123.741 81.746 29.257-5.73 52.698-23.106 67.968-46.317-7.611 3.467-15.223 6.352-23.999 8.071"/><path fill="#fff" fill-rule="evenodd" d="m226.535 174.146 6.717 4.772c1.513 1.075 1.356 3.368-.291 4.226l-21.744 11.33c-1.728.899-3.771-.448-3.625-2.389l1.915-25.415c.145-1.927 2.339-2.958 3.913-1.838l6.024 4.278c15.376-34.944 9.693-77.176-17.827-107.031-36.774-39.897-98.737-42.712-138.97-6.535-.51.459-1.3.431-1.764-.073l-4.1-4.448a1.236 1.236 0 0 1 .08-1.753c43.698-39.372 111.059-36.337 151.03 7.025 30.321 32.895 36.225 79.605 18.642 117.851M32.557 82.11l-6.717-4.77c-1.513-1.075-1.356-3.37.29-4.227l21.746-11.33c1.726-.899 3.77.448 3.623 2.39l-1.914 25.415c-.145 1.927-2.339 2.957-3.914 1.838l-6.023-4.278c-15.376 34.944-9.694 77.176 17.826 107.03 36.776 39.898 98.738 42.713 138.971 6.535a1.26 1.26 0 0 1 1.764.073l4.1 4.449c.466.504.43 1.294-.079 1.753-43.7 39.372-111.06 36.337-151.03-7.026-30.322-32.894-36.226-79.605-18.643-117.85" clip-rule="evenodd"/><path fill="#FEFEFD" d="M174.302 137.85c.78 0 1.148 0 1.205-1.017a69 69 0 0 0 0-11.132c0-.72-.36-1.017-1.145-1.017h-72.851c-.902 0-1.144.297-1.144 1.138v10.653c0 1.375 0 1.375 1.443 1.375zm-2.883-25.617a1.16 1.16 0 0 0 0-.836 23.7 23.7 0 0 0-2.177-3.771 30.5 30.5 0 0 0-4.456-5.568 14.8 14.8 0 0 0-2.77-2.694 43.4 43.4 0 0 0-18.064-9.098 45.2 45.2 0 0 0-10.236-1.077h-32.331c-.901 0-1.023.358-1.023 1.138v21.247c0 .896 0 1.137 1.145 1.137h69.478s.603-.12.724-.478h-.295zm0 38.068a14 14 0 0 0-3.078 0h-66.769c-.902 0-1.205 0-1.205 1.198v20.773c0 .957 0 1.198 1.205 1.198h30.827c1.474.112 2.947.009 4.391-.297a46.1 46.1 0 0 0 13.07-2.875c1.526-.526 3-1.211 4.392-2.034h.42a39 39 0 0 0 16.799-16.812s.42-.905-.052-1.143zM88.267 184.24v-33.099c0-.78 0-.896-.962-.896H74.239c-.724 0-1.023 0-1.023-.957v-11.373h13.968c.78 0 1.083 0 1.083-1.017v-11.253c0-.72 0-.897-.962-.897H74.239c-.724 0-1.023 0-1.023-.956v-10.533c0-.66 0-.836.962-.836h12.945c.902 0 1.144 0 1.144-1.138V79.022c0-.957 0-1.198 1.206-1.198h45.154a69 69 0 0 1 9.754 1.078 59 59 0 0 1 18.844 6.943 53 53 0 0 1 10.595 8.14 57.7 57.7 0 0 1 6.442 7.961 48 48 0 0 1 4.704 9.158 1.566 1.566 0 0 0 1.799 1.258h10.777c1.383 0 1.383 0 1.443 1.319v9.818c0 .956-.359 1.198-1.326 1.198h-8.31c-.841 0-1.084 0-1.023 1.077a61 61 0 0 1 0 10.951c0 1.017 0 1.138 1.148 1.138h9.507c.421.539 0 1.077 0 1.62.061.694.061 1.397 0 2.091v7.244c0 1.017-.299 1.319-1.205 1.319h-11.38a1.506 1.506 0 0 0-1.747 1.138 47.85 47.85 0 0 1-12.645 18.316 72 72 0 0 1-6.442 5.146c-2.41 1.379-4.756 2.814-7.227 3.952a65.4 65.4 0 0 1-14.21 4.486 74.4 74.4 0 0 1-14.089 1.138H88.25v-.06z"/><defs><linearGradient id="paint0_linear_4193_3611" x1="-7.363" x2="144.406" y1="284.996" y2="104.21" gradientUnits="userSpaceOnUse"><stop offset=".073" stop-color="#FFD923"/><stop offset=".477" stop-color="#FFEDC7"/><stop offset="1" stop-color="#F7BB38"/></linearGradient></defs></svg>