<svg xmlns="http://www.w3.org/2000/svg" fill="none" viewBox="0 0 256 256"><path fill="#000" fill-rule="evenodd" d="M256 128C256 57.313 198.699 0 128 0 57.313 0 0 57.313 0 128c0 70.693 57.313 128 128 128 70.699 0 128-57.301 128-128M65.763 153.603c1.278 0 1.278.156 1.278 1.199v44.237l-.023.017v.081h55.521a98.5 98.5 0 0 0 18.721-1.521 86.5 86.5 0 0 0 18.881-5.996c2.62-1.214 5.134-2.68 7.67-4.16q.962-.562 1.932-1.122a97 97 0 0 0 8.56-6.878 64 64 0 0 0 16.802-24.48 2 2 0 0 1 2.321-1.521h15.12c1.204 0 1.601-.403 1.601-1.762v-9.683c.081-.927.081-1.866 0-2.793 0-.243.063-.484.125-.726.124-.481.248-.961-.125-1.44h-12.631c-1.527 0-1.527-.161-1.527-1.521a81.7 81.7 0 0 0 0-14.636c-.08-1.44.242-1.44 1.36-1.44h11.042c1.284 0 1.762-.323 1.762-1.601v-13.122c-.04-.869-.06-1.31-.29-1.533-.237-.229-.697-.229-1.628-.229h-14.319a2.084 2.084 0 0 1-2.391-1.682 64 64 0 0 0-6.25-12.24 77 77 0 0 0-8.559-10.64 70.6 70.6 0 0 0-14.078-10.88 78.2 78.2 0 0 0-25.039-9.28 91 91 0 0 0-12.96-1.44H68.643c-1.602 0-1.602.323-1.602 1.602v43.12c0 1.52-.322 1.52-1.52 1.52h-17.2c-1.279 0-1.279.236-1.279 1.118v14.077c0 1.279.398 1.279 1.36 1.279h17.36c1.28 0 1.28.236 1.28 1.198v15.04c0 1.359-.404 1.359-1.44 1.359h-18.56v15.201c0 1.278.398 1.278 1.36 1.278zm115.592-16.565c1.037 0 1.527 0 1.602-1.36a93 93 0 0 0 0-14.878c0-.962-.478-1.359-1.521-1.359H84.638c-1.198 0-1.52.397-1.52 1.52V135.2c0 .906 0 1.365.23 1.598.236.24.715.24 1.688.24zm-3.83-34.238a1.56 1.56 0 0 0 0-1.118 31.6 31.6 0 0 0-2.892-5.04 40.8 40.8 0 0 0-5.921-7.442 19.6 19.6 0 0 0-3.681-3.6 57.5 57.5 0 0 0-24.002-12.16A59.7 59.7 0 0 0 127.43 72H84.471c-1.198 0-1.36.479-1.36 1.521v28.397c0 1.199 0 1.521 1.521 1.521h92.317s.801-.161.962-.639zm0 50.878a18.8 18.8 0 0 0-4.09 0H84.719c-1.198 0-1.601 0-1.601 1.602v27.763c0 1.279 0 1.601 1.6 1.601h40.961a20.5 20.5 0 0 0 5.835-.397 61 61 0 0 0 17.366-3.842 31.8 31.8 0 0 0 5.835-2.719h.559a51.97 51.97 0 0 0 22.32-22.47s.559-1.209-.069-1.526z" clip-rule="evenodd"/></svg>
