<svg xmlns="http://www.w3.org/2000/svg" fill="none" viewBox="0 0 256 256"><path fill="#F7BB38" d="M128 0c70.699 0 128 57.313 128 128 0 70.699-57.301 128-128 128C57.313 256 0 198.693 0 128 0 57.313 57.313 0 128 0"/><path fill="#FEFEFD" d="M181.355 137.038c1.037 0 1.527 0 1.602-1.36a93 93 0 0 0 0-14.878c0-.962-.478-1.359-1.521-1.359H84.638c-1.198 0-1.52.397-1.52 1.52V135.2c0 1.838 0 1.838 1.918 1.838zm-3.83-34.238a1.56 1.56 0 0 0 0-1.118 31.6 31.6 0 0 0-2.892-5.04 40.8 40.8 0 0 0-5.921-7.442 19.6 19.6 0 0 0-3.681-3.6 57.5 57.5 0 0 0-24.002-12.16A59.7 59.7 0 0 0 127.43 72H84.471c-1.198 0-1.36.479-1.36 1.521v28.397c0 1.199 0 1.521 1.521 1.521h92.317s.801-.161.962-.639h-.392zm0 50.878a18.8 18.8 0 0 0-4.09 0H84.719c-1.198 0-1.601 0-1.601 1.602v27.763c0 1.279 0 1.601 1.6 1.601h40.961a20.5 20.5 0 0 0 5.835-.397 61 61 0 0 0 17.366-3.842 31.8 31.8 0 0 0 5.835-2.719h.559a51.97 51.97 0 0 0 22.32-22.47s.559-1.209-.069-1.526zM67.041 199.039v-44.237c0-1.043 0-1.199-1.278-1.199H48.402c-.962 0-1.36 0-1.36-1.278v-15.201h18.56c1.036 0 1.44 0 1.44-1.359v-15.04c0-.962 0-1.198-1.28-1.198h-17.36c-.962 0-1.36 0-1.36-1.279v-14.077c0-.882 0-1.118 1.28-1.118H65.52c1.198 0 1.52 0 1.52-1.52v-43.12c0-1.279 0-1.602 1.602-1.602h59.996c4.355.173 8.681.651 12.96 1.44a78.2 78.2 0 0 1 25.039 9.28 70.6 70.6 0 0 1 14.078 10.88 77 77 0 0 1 8.559 10.64 64 64 0 0 1 6.25 12.24 2.084 2.084 0 0 0 2.391 1.682h14.319c1.838 0 1.838 0 1.918 1.762v13.122c0 1.278-.478 1.601-1.762 1.601h-11.042c-1.118 0-1.44 0-1.36 1.44a81.7 81.7 0 0 1 0 14.636c0 1.36 0 1.521 1.527 1.521h12.631c.559.72 0 1.44 0 2.166.081.927.081 1.866 0 2.793v9.683c0 1.359-.397 1.762-1.601 1.762h-15.12a2 2 0 0 0-2.321 1.521 64 64 0 0 1-16.802 24.48 97 97 0 0 1-8.56 6.878c-3.202 1.843-6.319 3.761-9.602 5.282a86.5 86.5 0 0 1-18.881 5.996 98.5 98.5 0 0 1-18.721 1.521h-55.52v-.081z"/></svg>
