<svg xmlns="http://www.w3.org/2000/svg" fill="none" viewBox="0 0 256 256"><path fill="#fff" d="M253.49 128c0 69.306-56.184 125.49-125.49 125.49S2.51 197.306 2.51 128 58.694 2.51 128 2.51 253.49 58.694 253.49 128"/><path fill="url(#paint0_linear_9885_1344)" d="M52.39 99.858c-15.714 41.672 5.96 88.758 48.222 103.909 1.625 1.084 3.25 3.248 3.25 4.872v7.577c0 1.083 0 1.624-.541 2.165-.542 2.164-2.709 3.246-4.877 2.164-30.343-9.742-53.642-33.014-63.395-63.32C18.795 105.812 46.971 51.149 98.444 34.913c.543-.54 1.626-.54 2.168-.54 2.167.54 3.25 2.163 3.25 4.33v7.575c0 2.707-1.083 4.33-3.25 5.413-22.215 8.118-40.094 25.437-48.222 48.167"/><path fill="url(#paint1_linear_9885_1344)" d="M153.17 37.079c.54-2.166 2.709-3.248 4.876-2.166 29.8 9.741 53.641 33.014 63.394 63.862 16.256 51.414-11.92 106.076-63.394 122.312-.542.54-1.625.54-2.167.54-2.169-.54-3.252-2.163-3.252-4.328v-7.577c0-2.707 1.083-4.331 3.252-5.413 22.214-8.118 40.094-25.435 48.222-48.167 15.714-41.672-5.96-88.758-48.222-103.91-1.626-1.084-3.252-3.247-3.252-5.412v-7.577c0-1.083 0-1.624.543-2.164"/><path fill="url(#paint2_linear_9885_1344)" fill-rule="evenodd" d="M128 0C57.308 0 0 57.308 0 128s57.308 128 128 128 128-57.308 128-128S198.692 0 128 0M5.02 128C5.02 60.08 60.08 5.02 128 5.02S250.98 60.08 250.98 128 195.92 250.98 128 250.98 5.02 195.92 5.02 128" clip-rule="evenodd"/><path fill="url(#paint3_linear_9885_1344)" d="m91 153.253 18.484-13.019c4.086 6.084 9.144 9.813 15.24 11.317v-13.738c-2.594-.785-4.734-1.439-6.356-2.028a107 107 0 0 1-6.031-2.355c-4.734-1.963-7.263-3.533-10.635-6.477-4.93-4.121-7.264-9.486-7.524-17.468 0-5.036 1.427-9.615 4.344-13.671 2.855-4.057 6.552-7.197 11.156-9.42 4.605-2.225 9.599-3.535 15.046-3.927V72h8.497v10.599c12.192 1.373 21.921 7.784 29.248 19.233l-17.575 12.3q-4.28-7.068-11.673-9.421v13.345c8.106 2.356 13.555 4.449 19.197 7.654 2.788 1.635 5.123 3.337 6.875 5.233 3.502 3.795 5.707 9.16 5.707 15.506 0 8.177-3.892 15.178-9.988 19.56-6.096 4.449-13.75 7.066-21.791 7.655V184h-8.495v-10.402c-14.853-1.374-26.656-8.57-33.726-20.345m47.149-3.403c2.466-2.028 2.336-4.971.26-6.738-1.037-.85-2.789-1.766-5.188-2.617v11.449c2.01-.393 3.697-1.113 4.928-2.094m-13.425-34.542v-11.186c-3.306.719-5.512 2.484-5.512 5.298 0 2.29 1.816 4.251 5.512 5.888"/><defs><linearGradient id="paint0_linear_9885_1344" x1="267.294" x2="143.872" y1="-19.082" y2="232.365" gradientUnits="userSpaceOnUse"><stop stop-color="#FFE47C"/><stop offset=".526" stop-color="#FF43C3"/><stop offset="1" stop-color="#4156E0"/></linearGradient><linearGradient id="paint1_linear_9885_1344" x1="267.294" x2="143.872" y1="-19.082" y2="232.365" gradientUnits="userSpaceOnUse"><stop stop-color="#FFE47C"/><stop offset=".526" stop-color="#FF43C3"/><stop offset="1" stop-color="#4156E0"/></linearGradient><linearGradient id="paint2_linear_9885_1344" x1="267.294" x2="143.872" y1="-19.082" y2="232.365" gradientUnits="userSpaceOnUse"><stop stop-color="#FFE47C"/><stop offset=".526" stop-color="#FF43C3"/><stop offset="1" stop-color="#4156E0"/></linearGradient><linearGradient id="paint3_linear_9885_1344" x1="166.828" x2="92.036" y1="66.219" y2="157.524" gradientUnits="userSpaceOnUse"><stop stop-color="#FFE47C"/><stop offset=".526" stop-color="#FF43C3"/><stop offset="1" stop-color="#4156E0"/></linearGradient></defs></svg>
