<svg xmlns="http://www.w3.org/2000/svg" fill="none" viewBox="0 0 256 256"><path fill="#FFE804" d="M128 256c38.903 0 73.753-17.355 97.228-44.746 11.757-13.717 20.662-29.952 25.794-47.784C254.263 152.207 256 140.306 256 128 256 57.308 198.692 0 128 0S0 57.308 0 128c0 12.307 1.737 24.208 4.979 35.471 5.135 17.842 14.046 34.084 25.812 47.806C54.267 238.654 89.108 256 128 256"/><path fill="#000" d="M108.014 166.703c0-11.151-5.189-20.19-11.59-20.19s-11.59 9.039-11.59 20.19c0 11.15 5.19 20.19 11.59 20.19 6.401 0 11.59-9.04 11.59-20.19m63.151 0c0-11.151-5.188-20.19-11.589-20.19s-11.59 9.039-11.59 20.19c0 11.15 5.189 20.19 11.59 20.19s11.589-9.04 11.589-20.19"/><path fill="#000" fill-rule="evenodd" d="M144.247 52.7c-1.695-12.996-8.363-22.7-16.336-22.7-7.974 0-14.641 9.704-16.336 22.7-8.963-7.277-19.217-9.479-24.041-4.755-5.372 5.26-1.979 17.11 7.58 26.469a43 43 0 0 0 3.351 2.954c-21.407 4.627-41.313 14.699-57.744 29.479-17.173 15.446-29.441 35.028-35.742 56.624 5.135 17.842 14.046 34.084 25.812 47.806l1.889-21.702c1.983-22.855 12.577-43.989 29.828-59.506 17.252-15.518 39.654-24.064 63.081-24.064h4.822c23.427 0 45.83 8.546 63.081 24.064 17.252 15.517 27.845 36.651 29.828 59.506l1.908 21.679c11.757-13.717 20.662-29.952 25.794-47.784-6.302-21.595-18.571-41.177-35.743-56.623-16.467-14.812-36.424-24.896-57.884-29.51a43 43 0 0 0 3.314-2.923c9.558-9.359 12.951-21.209 7.579-26.47-4.825-4.723-15.078-2.52-24.041 4.757" clip-rule="evenodd"/></svg>