<svg xmlns="http://www.w3.org/2000/svg" fill="none" viewBox="0 0 512 512"><path fill="#FFE804" d="M256 512c77.806 0 147.505-34.711 194.457-89.492 23.514-27.435 41.322-59.904 51.586-95.568C508.527 304.414 512 280.612 512 256 512 114.615 397.385 0 256 0S0 114.615 0 256c0 24.613 3.474 48.415 9.957 70.943 10.27 35.682 28.093 68.167 51.625 95.611C108.534 477.309 178.215 512 256 512Z"/><path fill="#000" d="M216.027 333.405c0-22.301-10.377-40.38-23.179-40.38-12.801 0-23.178 18.079-23.178 40.38 0 22.302 10.377 40.38 23.178 40.38 12.802 0 23.179-18.078 23.179-40.38Zm126.304 0c0-22.301-10.378-40.38-23.179-40.38-12.802 0-23.179 18.079-23.179 40.38 0 22.302 10.377 40.38 23.179 40.38 12.801 0 23.179-18.078 23.179-40.38Z"/><path fill="#000" fill-rule="evenodd" d="M288.494 105.401C285.104 79.408 271.768 60 255.822 60c-15.947 0-29.282 19.407-32.672 45.401-17.926-14.554-38.434-18.959-48.082-9.511-10.743 10.52-3.957 34.221 15.158 52.937a86.088 86.088 0 0 0 6.705 5.91c-42.815 9.254-82.627 29.396-115.49 58.956-34.344 30.893-58.881 70.057-71.484 113.25 10.27 35.682 28.093 68.167 51.625 95.611l3.778-43.404c3.967-45.711 25.153-87.977 59.657-119.012 34.503-31.036 79.308-48.127 126.16-48.127h9.646c46.852 0 91.658 17.091 126.16 48.127 34.505 31.035 55.69 73.301 59.657 119.012l3.817 43.358c23.514-27.435 41.322-59.904 51.586-95.568-12.603-43.191-37.14-82.354-71.485-113.247-32.934-29.623-72.848-49.791-115.768-59.018a85.853 85.853 0 0 0 6.628-5.848c19.115-18.716 25.902-42.417 15.158-52.938-9.649-9.447-30.155-5.042-48.082 9.512Z" clip-rule="evenodd"/></svg>