<svg xmlns="http://www.w3.org/2000/svg" fill="none" viewBox="0 0 256 256"><path fill="#000" fill-rule="evenodd" d="M128 256c70.692 0 128-57.308 128-128S198.692 0 128 0 0 57.308 0 128s57.308 128 128 128m78.934-120.217c9.158 5.29 9.212 22.351.12 38.105-9.091 15.755-23.885 24.238-33.043 18.948-9.158-5.291-9.212-22.351-.121-38.106 9.092-15.754 23.886-24.238 33.044-18.947m.008-15.117c9.158-5.291 9.212-22.351.12-38.106-9.091-15.755-23.885-24.238-33.043-18.947-9.158 5.29-9.212 22.35-.121 38.105s23.886 24.238 33.044 18.948m-46.017-64.623c0 10.58-14.74 19.158-32.923 19.158s-32.923-8.577-32.923-19.158c0-10.58 14.74-19.158 32.923-19.158s32.923 8.577 32.923 19.158m-78.804 45.678c9.092-15.755 9.033-32.818-.132-38.112s-23.963 3.186-33.055 18.94c-9.09 15.755-9.032 32.819.132 38.113s23.964-3.187 33.055-18.941m.005 52.998c9.091 15.755 9.032 32.818-.132 38.112s-23.963-3.186-33.055-18.941-9.032-32.818.132-38.112c9.164-5.293 23.963 3.187 33.055 18.941m45.876 64.835c18.183 0 32.923-8.577 32.923-19.158s-14.74-19.158-32.923-19.158-32.923 8.577-32.923 19.158 14.74 19.158 32.923 19.158" clip-rule="evenodd"/></svg>