<svg xmlns="http://www.w3.org/2000/svg" fill="none" viewBox="0 0 256 256"><path fill="#000" d="M128 256c70.692 0 128-57.308 128-128S198.692 0 128 0 0 57.308 0 128s57.308 128 128 128"/><path fill="#E6007A" d="M128.002 75.201c18.182 0 32.923-8.577 32.923-19.158 0-10.58-14.741-19.158-32.923-19.158s-32.923 8.577-32.923 19.158c0 10.58 14.74 19.158 32.923 19.158m0 144.353c18.182 0 32.923-8.577 32.923-19.158s-14.741-19.158-32.923-19.158-32.923 8.577-32.923 19.158 14.74 19.158 32.923 19.158M82.121 101.721c9.092-15.755 9.033-32.818-.132-38.112s-23.963 3.186-33.055 18.94c-9.09 15.755-9.032 32.819.132 38.113s23.964-3.187 33.055-18.941m124.933 72.167c9.092-15.754 9.038-32.815-.12-38.105-9.158-5.291-23.952 3.193-33.044 18.947-9.091 15.755-9.037 32.815.121 38.106 9.158 5.29 23.952-3.193 33.043-18.948m-125.06 18.943c9.164-5.294 9.223-22.357.132-38.112-9.092-15.754-23.89-24.234-33.055-18.941s-9.223 22.358-.132 38.112 23.89 24.235 33.055 18.941m124.948-72.165c9.158-5.291 9.212-22.351.12-38.106-9.091-15.755-23.885-24.238-33.043-18.947-9.158 5.29-9.212 22.35-.121 38.105s23.886 24.238 33.044 18.948"/></svg>
