<svg xmlns="http://www.w3.org/2000/svg" fill="none" viewBox="0 0 256 256"><path fill="#000" fill-rule="evenodd" d="M128 256c70.934 0 128-57.066 128-128S198.934 0 128 0 0 57.066 0 128s57.066 128 128 128" clip-rule="evenodd"/><path fill="#fff" fill-rule="evenodd" d="M244 128c0 64.065-51.935 116-116 116S12 192.065 12 128 63.935 12 128 12s116 51.935 116 116M128 233.209c58.105 0 105.209-47.104 105.209-105.209S186.105 22.79 128 22.79 22.79 69.895 22.79 128 69.895 233.209 128 233.209" clip-rule="evenodd"/><path fill="url(#paint0_linear_9890_1819)" fill-rule="evenodd" d="M244 128c0 64.065-51.935 116-116 116S12 192.065 12 128 63.935 12 128 12s116 51.935 116 116M128 233.209c58.105 0 105.209-47.104 105.209-105.209S186.105 22.79 128 22.79 22.79 69.895 22.79 128 69.895 233.209 128 233.209" clip-rule="evenodd"/><path fill="#fff" fill-rule="evenodd" d="M179.814 98.72c-1.669-16.836-16.213-22.439-34.59-24.102l-.075-23.189-14.203.045.073 22.76-11.351.035-.074-22.758-14.095.045.076 23.35-28.81.092.05 15.2s10.49-.222 10.33-.033a7.343 7.343 0 0 1 8.09 6.215l.206 63.918a4.98 4.98 0 0 1-1.71 3.476 4.92 4.92 0 0 1-3.654 1.249c.188.161-10.33.033-10.33.033l-2.635 16.983 28.54-.091.077 23.727 14.203-.045-.076-23.378 11.352-.036.075 23.27 14.23-.045-.076-23.459c23.989-1.529 40.701-7.501 42.727-29.97 1.636-18.083-6.89-26.126-20.485-29.338 8.245-4.089 13.331-11.637 12.135-23.955m-59.658 35.028.102 31.313c.788-.003 1.715.008 2.752.02h.004c11.628.133 37.11.424 37.058-15.777-.054-16.541-24.412-15.924-36.364-15.622h-.001a155 155 0 0 1-3.551.066m-.111-42.72.092 28.462c.688-.002 1.502.009 2.416.023h.003c9.744.142 30.83.449 30.783-14.306-.049-15.13-20.476-14.532-30.409-14.242-1.106.032-2.082.06-2.885.063" clip-rule="evenodd"/><path fill="url(#paint1_linear_9890_1819)" fill-rule="evenodd" d="M179.814 98.72c-1.669-16.836-16.213-22.439-34.59-24.102l-.075-23.189-14.203.045.073 22.76-11.351.035-.074-22.758-14.095.045.076 23.35-28.81.092.05 15.2s10.49-.222 10.33-.033a7.343 7.343 0 0 1 8.09 6.215l.206 63.918a4.98 4.98 0 0 1-1.71 3.476 4.92 4.92 0 0 1-3.654 1.249c.188.161-10.33.033-10.33.033l-2.635 16.983 28.54-.091.077 23.727 14.203-.045-.076-23.378 11.352-.036.075 23.27 14.23-.045-.076-23.459c23.989-1.529 40.701-7.501 42.727-29.97 1.636-18.083-6.89-26.126-20.485-29.338 8.245-4.089 13.331-11.637 12.135-23.955m-59.658 35.028.102 31.313c.788-.003 1.715.008 2.752.02h.004c11.628.133 37.11.424 37.058-15.777-.054-16.541-24.412-15.924-36.364-15.622h-.001a155 155 0 0 1-3.551.066m-.111-42.72.092 28.462c.688-.002 1.502.009 2.416.023h.003c9.744.142 30.83.449 30.783-14.306-.049-15.13-20.476-14.532-30.409-14.242-1.106.032-2.082.06-2.885.063" clip-rule="evenodd"/><defs><linearGradient id="paint0_linear_9890_1819" x1="72.688" x2="183.677" y1="183.527" y2="72.599" gradientUnits="userSpaceOnUse"><stop stop-color="#34A3ED"/><stop offset=".999" stop-color="#8165F5"/></linearGradient><linearGradient id="paint1_linear_9890_1819" x1="88.567" x2="167.396" y1="197.23" y2="61.548" gradientUnits="userSpaceOnUse"><stop stop-color="#34A3ED"/><stop offset=".999" stop-color="#8165F5"/></linearGradient></defs></svg>
