<svg xmlns="http://www.w3.org/2000/svg" fill="none" viewBox="0 0 256 256"><path fill="#4BFF00" d="M128 256c70.692 0 128-57.308 128-128S198.692 0 128 0 0 57.308 0 128s57.308 128 128 128"/><path fill="#000" d="M126.265 36.502a91.75 91.75 0 0 0-90.003 109.645 91.75 91.75 0 0 0 181.296-26.901 91.737 91.737 0 0 0-91.293-82.744m0 163.46a71.64 71.64 0 0 1-48.89-19.215 71.62 71.62 0 0 1-22.642-47.395 71.647 71.647 0 0 1 61.487-75.985v43.858a28.88 28.88 0 0 0-15.035 12.754 28.882 28.882 0 0 0 43.612 36.481 28.86 28.86 0 0 0 9.897-17.048 28.884 28.884 0 0 0-18.387-32.185V57.301a71.65 71.65 0 0 1 45.714 25.877 71.65 71.65 0 0 1-6.869 97.503 71.65 71.65 0 0 1-48.89 19.213v.066z"/></svg>
