<svg xmlns="http://www.w3.org/2000/svg" fill="none" viewBox="0 0 256 256"><mask id="mask0_9886_1434" width="256" height="256" x="0" y="0" maskUnits="userSpaceOnUse" style="mask-type:luminance"><path fill="#fff" d="M256 0H0v256h256z"/></mask><g mask="url(#mask0_9886_1434)"><path fill="#000" d="M.43 128C.43 57.546 57.546.431 128 .431S255.568 57.546 255.568 128s-57.114 127.569-127.569 127.569C57.545 255.569.431 198.454.431 128"/></g><mask id="mask1_9886_1434" width="256" height="256" x="0" y="0" maskUnits="userSpaceOnUse" style="mask-type:luminance"><path fill="#fff" d="M17.448 158.128c-2.801-11.508-4.24-21.016-4.24-30.147 0-63.236 51.624-114.813 115.17-114.813 48.861 0 92.12 31.165 107.601 77.46 4.579 12.64 6.698 24.902 6.698 37.353 0 63.425-51.245 114.814-114.299 114.814-51.7 0-97.381-34.864-110.93-84.667M0 127.981c0 10.15 1.438 20.827 4.655 33.505C19.832 217.175 70.737 256 128.416 256 198.736 256 256 198.65 256 127.981c0-13.998-2.499-27.656-7.458-41.654C231.322 34.674 182.992 0 128.416 0 57.604 0 0 57.501 0 127.981"/></mask><g mask="url(#mask1_9886_1434)"><path fill="url(#paint0_linear_9886_1434)" d="M256 0H0v256h256z"/></g><mask id="mask2_9886_1434" width="164" height="44" x="45" y="33" maskUnits="userSpaceOnUse" style="mask-type:luminance"><path fill="#fff" d="m45 76.781 74.446-18.79a70.2 70.2 0 0 1 16.804-2.037h.151c1.628-.113 38.302-2.34 66.612 19.205l5.715-1.434c-20.476-29.203-56.771-43.352-91.742-35.692v-.038l-34.404 8.64 1.174-12.79z"/></mask><g mask="url(#mask2_9886_1434)"><path fill="url(#paint1_linear_9886_1434)" d="M208.728 30.335H45v46.446h163.728z"/></g><mask id="mask3_9886_1434" width="164" height="44" x="47" y="177" maskUnits="userSpaceOnUse" style="mask-type:luminance"><path fill="#fff" d="M136.552 196.801a70.2 70.2 0 0 1-16.804 2.037h-.151c-1.628.113-38.302 2.339-66.612-19.205l-5.715 1.434c20.476 29.203 56.771 43.353 91.742 35.692v.038l34.404-8.639-1.174 12.791 38.718-42.976z"/></mask><g mask="url(#mask3_9886_1434)"><path fill="url(#paint2_linear_9886_1434)" d="M210.998 178.012H47.271v46.445h163.727z"/></g><mask id="mask4_9886_1434" width="90" height="112" x="83" y="73" maskUnits="userSpaceOnUse" style="mask-type:luminance"><path fill="#fff" d="M104.08 73.8c-11.582 0-21.006 8.565-21.006 19.13v72.14c0 10.565 9.386 19.129 21.006 19.129h68.844c0-12.187-10.863-22.072-24.223-22.072h-13.625c-13.473 0-24.373-9.961-24.373-22.223h35.652c6.699 0 12.111-4.943 12.111-11.055s-5.412-11.055-12.111-11.055h-35.652c0-12.112 10.786-21.96 24.071-21.96h13.927c13.398 0 24.223-9.884 24.223-22.071H104.08z"/></mask><g mask="url(#mask4_9886_1434)"><path fill="url(#paint3_linear_9886_1434)" d="M172.924 73.8h-89.85v110.399h89.85z"/></g><mask id="mask5_9886_1434" width="90" height="43" x="83" y="73" maskUnits="userSpaceOnUse" style="mask-type:luminance"><path fill="#fff" d="M104.08 73.8c-11.582 0-21.006 8.565-21.006 19.129v22.148c0-10.565 9.386-19.13 21.006-19.13l6.623-.075h37.998c13.398 0 24.223-9.885 24.223-22.072z"/></mask><g mask="url(#mask5_9886_1434)"><path fill="url(#paint4_linear_9886_1434)" d="M172.924 73.8h-89.85v41.277h89.85z"/></g><mask id="mask6_9886_1434" width="90" height="43" x="83" y="142" maskUnits="userSpaceOnUse" style="mask-type:luminance"><path fill="#fff" d="M83.074 165.033c0 10.564 9.386 19.129 21.006 19.129h68.844c0-12.187-10.863-22.072-24.223-22.072h-37.998l-6.623-.076c-11.582 0-21.006-8.564-21.006-19.129z"/></mask><g mask="url(#mask6_9886_1434)"><path fill="url(#paint5_linear_9886_1434)" d="M172.924 142.922h-89.85v41.277h89.85z"/></g><mask id="mask7_9886_1434" width="89" height="43" x="83" y="98" maskUnits="userSpaceOnUse" style="mask-type:luminance"><path fill="#fff" d="M83.074 120.925c0 10.565 9.386 19.13 21.006 19.13h67.633c0-12.187-10.863-22.072-24.223-22.072h.492l-43.865-.076c-11.581 0-21.005-8.564-21.005-19.13v22.148z"/></mask><g mask="url(#mask7_9886_1434)"><path fill="url(#paint6_linear_9886_1434)" d="M171.675 98.778h-88.6v41.277h88.6z"/></g><defs><linearGradient id="paint0_linear_9886_1434" x1=".006" x2="256" y1="128.023" y2="128.023" gradientUnits="userSpaceOnUse"><stop stop-color="#0056D4"/><stop offset="1" stop-color="#2EFFEF"/></linearGradient><linearGradient id="paint1_linear_9886_1434" x1="45.017" x2="208.735" y1="53.588" y2="53.588" gradientUnits="userSpaceOnUse"><stop stop-color="#0056D4"/><stop offset="1" stop-color="#2EFFEF"/></linearGradient><linearGradient id="paint2_linear_9886_1434" x1="47.269" x2="210.986" y1="201.235" y2="201.235" gradientUnits="userSpaceOnUse"><stop stop-color="#0056D4"/><stop offset="1" stop-color="#2EFFEF"/></linearGradient><linearGradient id="paint3_linear_9886_1434" x1="127.997" x2="127.997" y1="184.175" y2="73.793" gradientUnits="userSpaceOnUse"><stop stop-color="#0056D4"/><stop offset="1" stop-color="#2EFFEF"/></linearGradient><linearGradient id="paint4_linear_9886_1434" x1="83.076" x2="172.927" y1="94.426" y2="94.426" gradientUnits="userSpaceOnUse"><stop stop-color="#0056D4"/><stop offset="1" stop-color="#2EFFEF"/></linearGradient><linearGradient id="paint5_linear_9886_1434" x1="83.076" x2="172.927" y1="163.531" y2="163.531" gradientUnits="userSpaceOnUse"><stop stop-color="#0056D4"/><stop offset="1" stop-color="#2EFFEF"/></linearGradient><linearGradient id="paint6_linear_9886_1434" x1="83.076" x2="171.689" y1="119.421" y2="119.421" gradientUnits="userSpaceOnUse"><stop stop-color="#0056D4"/><stop offset="1" stop-color="#2EFFEF"/></linearGradient></defs></svg>
