<svg xmlns="http://www.w3.org/2000/svg" fill="none" viewBox="0 0 256 256"><path fill="#fff" d="M128 256c70.692 0 128-57.308 128-128S198.692 0 128 0 0 57.308 0 128s57.308 128 128 128"/><path fill="url(#paint0_linear_9890_1666)" d="M128 256c70.692 0 128-57.308 128-128S198.692 0 128 0 0 57.308 0 128s57.308 128 128 128"/><path fill="#fff" d="M227.891 142.309q0-.083 0 0c0-.109 0-.164.054-.164.055-.164.055-.327.055-.546v-.218c0-.164 0-.328-.055-.492v-.109l-7.096-29.656a2.96 2.96 0 0 0-2.183-2.185l-29.367-7.1h-.164c-.163-.054-.273-.054-.436-.054h-.219c-.163 0-.327.054-.546.054h-.218c-.218.055-.382.164-.6.274-.055 0-.055.054-.109.054a3 3 0 0 0-.437.328l-.055.054-35.535 34.517a2.46 2.46 0 0 0-1.473 1.475l-12.719 12.397-7.096-24.413a.4.4 0 0 0-.109-.218c-.055-.109-.055-.164-.109-.219-.164-.327-.328-.6-.601-.819a4.8 4.8 0 0 0-.873-.546c-.055-.055-.164-.055-.218-.109a.4.4 0 0 1-.219-.109l-23.744-5.735 50.218-50.027-7.642-33.48L114.026 28 28 113.745l7.26 32.333 29.421 7.646 7.206 28.454a2.88 2.88 0 0 0 2.237 2.13l27.238 5.462 8.024 28.672c0 .055.055.11.11.219.054.054.054.164.109.218.164.273.327.601.546.82v.054c.218.219.545.437.873.546.109.055.164.055.273.11.055.054.164.054.218.109l28.821 7.373c.219.054.491.109.71.109.273 0 .491-.055.709-.109h.11c.054 0 .109-.055.109-.055.109-.054.218-.054.273-.109.109-.055.163-.109.273-.109.054-.055.163-.11.218-.164s.164-.109.218-.164l.109-.109 84.007-83.507.055-.054c.109-.109.218-.273.327-.437 0-.055.055-.055.055-.109.218-.383.327-.601.382-.765m-38.21 30.148-5.622-22.611 13.865-13.872 21.67 6.717zm-47.216 46.968-6.277-21.627 25.273-25.287 21.233 6.936zm-34.498-27.853 19.978 6.117-14.246 14.254zm42.74-45.931 6.059 23.266-24.181 24.194-23.362-7.155zm36.518-35.5 6.55 21.737-13.646 13.653-22.107-6.99zm-3.221 63.572-17.904-5.844 13.155-13.162zM161.57 164.1l-5.186-19.934 19.105 6.008zm-30.131 38.395 5.349 18.35-18.886-4.806zm89.629-65.374-21.616-6.718-6.496-21.682 22.653 5.461zm-115.721 44.456-5.295-21.791 8.079-8.465 21.889 6.28zm3.221-39.213-5.841-17.859 18.614 4.478zm4.148 4.15 12.828-13.489 5.458 18.678zm-8.733.656-8.08 8.465-23.089-5.898 24.127-24.031zM76.908 73.276l6.168 20.48-25.382 25.615-20.906-6.117zm42.031-15.73-13.319 13.49-21.561-4.86 29.421-29.274zM116.046 98.4l-5.677-23.867 12.609-12.725 22.38 7.373zm-28.275-9.34-5.186-17.203 18.177 4.096zm17.74-9.666L110.151 99l-18.177-5.898zm-48.472 48.935 5.732 18.842-19.378-5.025zm4.695-4.697 25.6-25.833 22.107 7.209-40.939 40.797zm85.098-60.186-22.216-7.318-5.623-21.027 22.49 5.08zM35.151 118.88 53 124.122l-13.592 13.709zm41.921 60.022-5.95-23.539 23.254 5.953 5.403 22.119z"/><defs><linearGradient id="paint0_linear_9890_1666" x1="72.688" x2="183.677" y1="183.527" y2="72.599" gradientUnits="userSpaceOnUse"><stop stop-color="#34A3ED"/><stop offset=".999" stop-color="#8165F5"/></linearGradient></defs></svg>