<svg xmlns="http://www.w3.org/2000/svg" fill="none" viewBox="0 0 512 512"><path fill="#000" fill-rule="evenodd" d="M512 256c0 141.384-114.616 256-256 256C114.615 512 0 397.384 0 256 0 114.615 114.615 0 256 0c141.384 0 256 114.615 256 256ZM365.699 456.207l90.508-90.508-43.046-43.047c-17.265 40.661-49.848 73.244-90.509 90.509l43.047 43.046ZM201.236 417.69c-42.234-14.298-77.051-44.683-97.162-83.856l-34.898 34.898 90.51 90.509 41.55-41.551ZM98.839 189.348c17.265-40.66 49.849-73.244 90.509-90.51L154.51 64 64 154.51l34.838 34.838Zm234.995-85.274 37.041-37.042 90.509 90.51-43.694 43.694c-14.298-42.234-44.683-77.051-83.856-97.162Z" clip-rule="evenodd"/><path fill="#B7B7B7" d="M256.021 103.94h.006l-.006 210.056 93.341-55.177-93.341-154.879Z"/><path fill="#fff" d="m256.027 103.94-93.342 154.879 93.342 55.177V103.94Z"/><path fill="#939090" d="M256.083 331.662h-.056v76.389h.056l93.399-131.535-93.399 55.146Z"/><path fill="#fff" d="M256.027 408.051v-76.389l-93.342-55.146 93.342 131.535Z"/><path fill="#939090" d="m256.061 313.993 93.34-55.177-93.34-42.427v97.604Z"/><path fill="#B1B1B1" d="m162.685 258.816 93.342 55.177v-97.604l-93.342 42.427Z"/></svg>