<svg xmlns="http://www.w3.org/2000/svg" fill="none" viewBox="0 0 256 256"><path fill="#000" fill-rule="evenodd" d="M256 128c0 70.692-57.308 128-128 128S0 198.692 0 128 57.308 0 128 0s128 57.308 128 128" clip-rule="evenodd"/><path fill="#B7B7B7" d="M129.011 51.97h.003l-.003 105.028 46.67-27.588z"/><path fill="#fff" d="m129.014 51.97-46.672 77.44 46.672 27.588z"/><path fill="#939090" d="M129.042 165.831h-.028v38.194h.028l46.699-65.767z"/><path fill="#fff" d="M129.014 204.025v-38.194l-46.672-27.573z"/><path fill="#939090" d="m129.03 156.996 46.671-27.588-46.671-21.214z"/><path fill="#B1B1B1" d="m82.343 129.408 46.671 27.588v-48.802z"/><path fill="#fff" fill-rule="evenodd" d="m180.584 31.431-20.005 20.006c19.967 8.489 35.942 24.545 44.324 44.569l20.127-20.128zM31.2 75.647 75.647 31.2l20.099 20.1c-20.01 8.407-36.048 24.4-44.512 44.38z" clip-rule="evenodd"/><path fill="#fff" d="M95.844 205.064c-20.023-8.382-36.08-24.357-44.569-44.324l-19.844 19.844 44.447 44.447zm109.018-44.649c-8.408 20.011-24.401 36.048-44.382 44.512l19.873 19.873 44.446-44.447z"/></svg>
