<svg xmlns="http://www.w3.org/2000/svg" fill="none" viewBox="0 0 512 512"><path fill="#000" fill-rule="evenodd" d="M512 256c0 141.384-114.616 256-256 256S0 397.384 0 256 114.615 0 256 0c141.384 0 256 114.615 256 256" clip-rule="evenodd"/><path fill="#B7B7B7" d="M258.021 103.94h.006l-.006 210.056 93.341-55.177z"/><path fill="#fff" d="m258.027 103.94-93.342 154.879 93.342 55.177z"/><path fill="#939090" d="M258.083 331.662h-.056v76.389h.056l93.399-131.535z"/><path fill="#fff" d="M258.027 408.051v-76.389l-93.342-55.146z"/><path fill="#939090" d="m258.061 313.993 93.34-55.177-93.34-42.427z"/><path fill="#B1B1B1" d="m164.685 258.816 93.342 55.177v-97.604z"/><path fill="#fff" fill-rule="evenodd" d="m361.167 62.863-40.01 40.01c39.935 16.979 71.884 49.091 88.649 89.138l40.255-40.255zM62.4 151.294l88.894-88.893 40.197 40.198c-40.021 16.814-72.095 48.801-89.024 88.762z" clip-rule="evenodd"/><path fill="#fff" d="M191.689 410.128c-40.047-16.764-72.16-48.714-89.138-88.648l-39.689 39.688 88.894 88.893zm218.034-89.298c-16.814 40.021-48.801 72.096-88.762 89.024l39.744 39.745 88.894-88.893z"/></svg>