<svg xmlns="http://www.w3.org/2000/svg" fill="none" viewBox="0 0 256 256"><path fill="#000" d="M128 256c70.692 0 128-57.308 128-128S198.692 0 128 0 0 57.308 0 128s57.308 128 128 128"/><path fill="#37BEC1" d="m148.033 40.317-98.599 43.9c-9.076 4.04-13.158 14.674-9.117 23.75s14.675 13.158 23.75 9.117l98.6-43.9c9.076-4.04 13.158-14.674 9.117-23.75s-14.675-13.158-23.751-9.117"/><path fill="#FBB144" d="M120.683 111.566 54.95 140.833c-9.076 4.041-13.158 14.674-9.117 23.75s14.674 13.159 23.75 9.118l65.734-29.267c9.076-4.041 13.158-14.675 9.117-23.751s-14.674-13.158-23.751-9.117"/><path fill="#E4615E" d="m191.933 138.916-98.6 43.899c-9.076 4.041-13.157 14.675-9.117 23.751 4.041 9.076 14.675 13.158 23.751 9.117l98.6-43.899c9.076-4.041 13.158-14.675 9.117-23.751s-14.675-13.158-23.751-9.117"/></svg>