<svg xmlns="http://www.w3.org/2000/svg" fill="none" viewBox="0 0 256 256"><path fill="url(#paint0_linear_4193_3713)" d="M128 256c70.692 0 128-57.308 128-128S198.692 0 128 0 0 57.308 0 128s57.308 128 128 128"/><path fill="#fff" d="m197.823 110.372-69.916-71.394-69.922 71.394 34.958 35.693 34.964-35.693 34.959 35.693z"/><path fill="#1F2333" d="M125.09 210.557q-5.212 0-8.971-1.879-3.697-1.94-5.698-5.456-1.94-3.576-1.94-8.425v-27.52h8.002v27.762q0 3.88 2.182 6.122 2.243 2.243 6.425 2.243t6.365-2.243q2.242-2.243 2.242-6.122v-27.762h8.003v27.52q0 4.849-2.001 8.425-1.94 3.516-5.699 5.456-3.696 1.88-8.91 1.879m34.902-.849v-42.431h18.428q4.002 0 6.971 1.393 2.97 1.395 4.607 3.941t1.637 6.001v.728q0 3.817-1.819 6.183-1.818 2.363-4.486 3.454v1.091q2.425.123 3.759 1.697 1.333 1.516 1.334 4.062v13.881h-8.002v-12.73q0-1.454-.788-2.363-.726-.909-2.486-.909h-11.152v16.002zm8.003-23.276h9.577q2.849 0 4.425-1.517 1.636-1.575 1.636-4.121v-.606q0-2.545-1.575-4.062-1.578-1.576-4.486-1.576h-9.577z"/><path fill="#1F2333" fill-rule="evenodd" d="M63.618 210.707v-44.429h29.276v9.271H73.618v8.125h17.578v9.273H73.618v8.488h19.64v9.272zm52.045-1.14-.008-.005c-2.629-1.378-4.671-3.331-6.102-5.846l-.005-.009-.005-.008c-1.387-2.556-2.061-5.535-2.061-8.902v-28.519h9.999v28.761c0 2.389.666 4.155 1.895 5.42 1.254 1.252 3.106 1.946 5.714 1.946 2.613 0 4.439-.697 5.649-1.941l.009-.009c1.268-1.267 1.951-3.031 1.951-5.416v-28.761h9.998v28.519c0 3.37-.695 6.353-2.125 8.91-1.394 2.525-3.442 4.479-6.113 5.859l-.005.002c-2.638 1.34-5.771 1.987-9.364 1.987s-6.744-.647-9.418-1.984zm24.036-6.345q2-3.576 2.001-8.425v-27.52h-8.003v27.762q0 3.88-2.242 6.122-2.182 2.243-6.365 2.243t-6.425-2.243q-2.182-2.243-2.182-6.122v-27.762h-8.002v27.52q0 4.849 1.94 8.425 2 3.516 5.698 5.456 3.759 1.88 8.971 1.879 5.214 0 8.91-1.879 3.76-1.94 5.699-5.456m19.294 7.485v-44.429h19.427c2.783 0 5.257.485 7.395 1.489 2.136 1.002 3.822 2.434 5.023 4.304 1.209 1.88 1.795 4.074 1.795 6.541v.728c0 2.703-.645 4.997-2.026 6.791-1.026 1.335-2.246 2.397-3.659 3.177 1.148.307 2.128.9 2.896 1.805 1.084 1.236 1.577 2.843 1.577 4.714v14.88h-10v-13.729c0-.781-.206-1.321-.544-1.71l-.012-.014-.013-.015c-.215-.269-.678-.535-1.705-.535h-10.154v16.003zm9.002-17.001h11.152q1.76 0 2.486.909.788.91.788 2.363v12.73h8.002v-13.881q-.001-2.546-1.334-4.062-1.334-1.575-3.759-1.697v-1.091q2.668-1.091 4.486-3.454 1.82-2.366 1.819-6.183v-.728q0-3.456-1.637-6.001t-4.607-3.941q-2.97-1.392-6.971-1.393h-18.428v42.431h8.003zm13.355-16.874c-.81-.81-2.02-1.283-3.778-1.283h-8.579v9.884h8.579c1.722 0 2.918-.455 3.732-1.237.871-.838 1.329-1.941 1.329-3.402v-.606c0-1.474-.446-2.551-1.268-3.341zm.647 8.083q-1.577 1.517-4.425 1.517h-9.577V174.55h9.577q2.908 0 4.486 1.576 1.575 1.517 1.575 4.062v.606q0 2.546-1.636 4.121" clip-rule="evenodd"/><defs><linearGradient id="paint0_linear_4193_3713" x1="41.509" x2="184.486" y1="205.57" y2="78.406" gradientUnits="userSpaceOnUse"><stop offset=".073" stop-color="#AAC4FD"/><stop offset="1" stop-color="#76A0FC"/></linearGradient></defs></svg>