<svg xmlns="http://www.w3.org/2000/svg" fill="none" viewBox="0 0 512 512"><path fill="url(#paint0_linear_4193_3713)" d="M256 512c141.385 0 256-114.615 256-256S397.385 0 256 0 0 114.615 0 256s114.615 256 256 256"/><path fill="#fff" d="M395.646 220.743 255.815 77.956 115.971 220.743l69.915 71.386 69.929-71.386 69.916 71.386z"/><path fill="#1F2333" d="M250.181 421.113q-10.427 0-17.943-3.758-7.394-3.88-11.396-10.911-3.879-7.153-3.879-16.851v-55.04h16.003v55.525q0 7.758 4.364 12.245 4.485 4.486 12.851 4.485t12.729-4.485q4.486-4.487 4.485-12.245v-55.525H283.4v55.04q-.001 9.698-4.003 16.851-3.878 7.031-11.396 10.911-7.394 3.758-17.82 3.758M319.984 419.416v-84.863h36.856q8.003 0 13.942 2.788 5.941 2.788 9.215 7.881 3.272 5.09 3.272 12.003v1.454q0 7.636-3.636 12.366-3.636 4.728-8.972 6.909v2.182q4.85.244 7.517 3.394 2.665 3.032 2.667 8.124v27.762h-16.002v-25.459q-.001-2.91-1.576-4.728-1.455-1.818-4.972-1.818h-22.306v32.005zm16.005-46.553h19.154q5.698 0 8.851-3.032 3.273-3.152 3.273-8.243v-1.212q0-5.092-3.152-8.124-3.153-3.15-8.972-3.151h-19.154z"/><path fill="#1F2333" fill-rule="evenodd" d="M127.237 421.413v-88.857h58.551v18.542h-38.553v16.25h35.158v18.545h-35.158v16.978h39.28v18.542zm104.09-2.279-.018-.01c-5.257-2.757-9.341-6.662-12.204-11.692l-.01-.018-.01-.016c-2.772-5.112-4.121-11.07-4.121-17.805v-57.037h19.999v57.522c0 4.777 1.331 8.311 3.789 10.84 2.507 2.504 6.213 3.892 11.428 3.892 5.226 0 8.878-1.394 11.298-3.881l.019-.019c2.536-2.534 3.9-6.063 3.9-10.832v-57.522h19.998v57.037c0 6.74-1.392 12.706-4.251 17.821-2.788 5.051-6.885 8.959-12.226 11.717l-.011.006c-5.275 2.68-11.54 3.973-18.727 3.973s-13.489-1.293-18.836-3.968zm48.07-12.69q4.002-7.153 4.003-16.851v-55.04h-16.005v55.525q0 7.758-4.485 12.245-4.363 4.486-12.729 4.485t-12.851-4.485q-4.365-4.487-4.364-12.245v-55.525h-16.003v55.04q0 9.698 3.879 16.851 4.002 7.031 11.396 10.911 7.516 3.758 17.943 3.758 10.426 0 17.82-3.758 7.518-3.88 11.396-10.911m38.59 14.969v-88.857h38.853c5.565 0 10.514.969 14.79 2.977 4.272 2.005 7.645 4.87 10.045 8.609 2.419 3.76 3.592 8.147 3.592 13.083v1.454c0 5.407-1.292 9.995-4.053 13.584-2.053 2.669-4.493 4.793-7.317 6.353 2.295.614 4.255 1.799 5.791 3.61 2.169 2.471 3.154 5.686 3.154 9.428v29.759h-19.999v-27.456c0-1.563-.414-2.643-1.089-3.421l-.023-.029-.027-.029c-.429-.537-1.357-1.069-3.409-1.069h-20.308v32.004zm18.002-34.002h22.306q3.517 0 4.972 1.818 1.575 1.819 1.576 4.728v25.459h16.002v-27.762q-.002-5.092-2.667-8.124-2.667-3.15-7.517-3.394v-2.182q5.336-2.181 8.972-6.909 3.636-4.73 3.636-12.366v-1.454q0-6.913-3.272-12.003-3.274-5.093-9.215-7.881-5.939-2.788-13.942-2.788h-36.856v84.863h16.005zm26.711-33.746c-1.62-1.621-4.039-2.567-7.557-2.567h-17.156v19.768h17.156c3.444 0 5.837-.909 7.465-2.474 1.742-1.676 2.659-3.882 2.659-6.804v-1.212c0-2.949-.893-5.101-2.538-6.682zm1.294 16.166q-3.153 3.032-8.851 3.032h-19.154v-23.762h19.154q5.819 0 8.972 3.151 3.152 3.032 3.152 8.124v1.212q0 5.091-3.273 8.243" clip-rule="evenodd"/><defs><linearGradient id="paint0_linear_4193_3713" x1="83.019" x2="368.972" y1="411.14" y2="156.813" gradientUnits="userSpaceOnUse"><stop offset=".073" stop-color="#AAC4FD"/><stop offset="1" stop-color="#76A0FC"/></linearGradient></defs></svg>