<svg xmlns="http://www.w3.org/2000/svg" fill="none" viewBox="0 0 256 256"><path fill="#000" fill-rule="evenodd" d="M128 0C57.308 0 0 57.308 0 128s57.308 128 128 128 128-57.308 128-128S198.692 0 128 0M77.938 140.13l4.638-6.261a3.27 3.27 0 0 1 2.919-1.791h8.77a73 73 0 0 1-.076-4.135c0-1.409.063-2.772.128-4.131H80.855c-2.433 0-4.012-2.565-2.915-4.738l4.638-6.26a3.27 3.27 0 0 1 2.915-1.793h10.57c1.724-7.294 4.632-13.698 8.807-19.157 7.144-9.268 16.553-13.936 28.297-13.936 12.87 0 22.663 6.093 29.379 18.223.921 1.665.181 3.77-1.56 4.539l-7.277 3.212c-1.516.671-3.329.115-4.134-1.335-3.592-6.47-9.194-10.42-16.408-10.42-9.47-.148-16.829 7.381-20.353 18.874h24.099c2.433 0 4.012 2.567 2.915 4.738l-4.637 6.261a3.27 3.27 0 0 1-2.915 1.792h-21.649a64 64 0 0 0-.099 4.131c0 1.416.047 2.789.122 4.135h26.263c2.433 0 4.012 2.566 2.915 4.739l-4.637 6.26a3.27 3.27 0 0 1-2.915 1.792h-19.439c.988 3.181 2.286 6.083 3.917 8.684 4.174 6.72 9.622 10.045 16.413 10.045 7.5 0 13.178-4.419 16.595-11.353a3.253 3.253 0 0 1 4.245-1.52l7.239 3.234c1.698.758 2.436 2.791 1.594 4.447-6.617 13.015-16.527 19.552-29.673 19.552-18.517.279-32.337-13.25-37.136-33.09H80.853c-2.432 0-4.012-2.567-2.915-4.738m-34.165-17.522c2.635-42.08 36.51-76.06 78.58-78.82 22.115-1.45 42.563 5.695 58.373 18.389a4.024 4.024 0 0 0 5.2-.135l6.201-5.532c1.84-1.64 1.802-4.548-.098-6.118-18.442-15.242-42.386-24.053-68.362-22.958-51.52 2.173-93.442 43.613-96.178 95.107-1.183 22.273 4.925 43.092 16.142 60.291 1.343 2.06 4.22 2.417 6.056.78l6.194-5.527a4.014 4.014 0 0 0 .731-5.138c-9.121-14.431-14-31.796-12.84-50.339m162.54-50.222c1.836-1.636 4.713-1.278 6.056.78 11.215 17.196 17.321 38.015 16.14 60.286-2.732 51.494-44.655 92.936-96.174 95.11-25.978 1.096-49.922-7.714-68.366-22.957-1.9-1.57-1.937-4.478-.098-6.119l6.2-5.532a4.025 4.025 0 0 1 5.2-.134c15.812 12.694 36.258 19.838 58.372 18.388 42.07-2.759 75.945-36.739 78.582-78.815 1.164-18.544-3.716-35.91-12.837-50.342a4.014 4.014 0 0 1 .731-5.138z" clip-rule="evenodd"/></svg>
