<svg xmlns="http://www.w3.org/2000/svg" fill="none" viewBox="0 0 512 512"><path fill="#477BFF" fill-rule="evenodd" d="M256 0c141.385 0 256 114.615 256 256S397.385 512 256 512 0 397.385 0 256 114.615 0 256 0m58.493 75.74C308.721 73.896 304 77.322 304 83.383v14.905c0 4.064 3.063 8.689 6.878 10.087C372.153 130.818 416 189.714 416 258.667s-43.847 127.848-105.122 150.291c-4.184 1.533-6.878 5.632-6.878 10.089v14.904c0 6.06 4.721 9.487 10.493 7.643C391.928 416.853 448 344.309 448 258.667S391.928 100.481 314.493 75.74m-106.492 7.643c0-6.061-4.721-9.487-10.493-7.643C120.072 100.48 64 173.025 64 258.667s56.072 158.186 133.508 182.927c5.772 1.844 10.493-1.583 10.493-7.643v-14.904c0-4.065-3.063-8.691-6.879-10.089C139.848 386.515 96 327.62 96 258.667s43.848-127.849 105.122-150.292c3.816-1.398 6.879-6.023 6.879-10.087z" clip-rule="evenodd"/><path fill="#fff" d="M314.493 75.74C308.721 73.896 304 77.322 304 83.383v14.905c0 4.064 3.063 8.689 6.878 10.087C372.153 130.818 416 189.714 416 258.667s-43.847 127.848-105.122 150.291c-4.184 1.533-6.878 5.632-6.878 10.089v14.904c0 6.06 4.721 9.487 10.493 7.643C391.928 416.853 448 344.309 448 258.667S391.928 100.481 314.493 75.74m-106.492 7.643c0-6.061-4.721-9.487-10.493-7.643C120.072 100.48 64 173.025 64 258.667s56.072 158.186 133.508 182.927c5.772 1.844 10.493-1.583 10.493-7.643v-14.904c0-4.065-3.063-8.691-6.879-10.089C139.848 386.515 96 327.62 96 258.667s43.848-127.849 105.122-150.292c3.816-1.398 6.879-6.023 6.879-10.087z"/><path fill="#fff" d="m159.985 273.884-9.275 12.52c-2.194 4.342.964 9.476 5.83 9.476h30.354c9.598 39.68 37.238 66.739 74.272 66.18 26.292 0 46.113-13.072 59.346-39.103 1.686-3.313.208-7.378-3.187-8.895l-14.478-6.468c-3.187-1.424-6.945-.09-8.49 3.04-6.834 13.869-18.189 22.707-33.191 22.707-13.581 0-24.477-6.651-32.824-20.089-3.263-5.203-5.859-11.008-7.835-17.368h38.877a6.53 6.53 0 0 0 5.83-3.586l9.276-12.52c2.194-4.346-.965-9.476-5.83-9.476h-52.527c-.15-2.693-.244-5.439-.244-8.272-.028-2.807.051-5.554.198-8.261h43.297a6.53 6.53 0 0 0 5.83-3.585l9.276-12.521c2.194-4.342-.965-9.476-5.83-9.476h-48.199c7.049-22.986 21.767-38.045 40.705-37.747 14.428 0 25.633 7.898 32.818 20.838 1.61 2.901 5.235 4.012 8.268 2.671l14.553-6.425c3.482-1.538 4.962-5.747 3.119-9.078C306.493 174.187 286.906 162 261.166 162c-23.488 0-42.304 9.336-56.592 27.873-8.351 10.918-14.166 23.725-17.615 38.314h-21.14a6.54 6.54 0 0 0-5.83 3.586l-9.276 12.52c-2.194 4.346.965 9.476 5.83 9.476h26.923c-.129 2.718-.254 5.443-.254 8.261-.036 2.793.032 5.547.15 8.272h-17.54a6.54 6.54 0 0 0-5.837 3.582"/></svg>