<svg xmlns="http://www.w3.org/2000/svg" fill="none" viewBox="0 0 256 256"><path fill="#477BFF" fill-rule="evenodd" d="M128 0c70.693 0 128 57.307 128 128s-57.307 128-128 128S0 198.693 0 128 57.307 0 128 0m29.247 37.87c-2.887-.922-5.247.791-5.247 3.821v7.453c0 2.032 1.532 4.344 3.439 5.044C186.076 65.409 208 94.857 208 129.334c0 34.476-21.924 63.923-52.561 75.145-2.092.767-3.439 2.816-3.439 5.044v7.453c0 3.029 2.36 4.743 5.247 3.821C195.964 208.427 224 172.154 224 129.334c0-42.822-28.036-79.094-66.753-91.464M104 41.69c0-3.03-2.36-4.743-5.246-3.821C60.036 50.24 32 86.512 32 129.334c0 42.82 28.036 79.093 66.754 91.463 2.886.922 5.246-.792 5.246-3.821v-7.453c0-2.032-1.531-4.345-3.439-5.044C69.924 193.257 48 163.81 48 129.334s21.924-63.925 52.561-75.146c1.908-.7 3.439-3.012 3.439-5.044z" clip-rule="evenodd"/><path fill="#fff" d="M157.247 37.87c-2.887-.922-5.247.791-5.247 3.821v7.453c0 2.032 1.532 4.344 3.439 5.044C186.076 65.409 208 94.857 208 129.334c0 34.476-21.924 63.923-52.561 75.145-2.092.767-3.439 2.816-3.439 5.044v7.453c0 3.029 2.36 4.743 5.247 3.821C195.964 208.427 224 172.154 224 129.334c0-42.822-28.036-79.094-66.753-91.464M104 41.691c0-3.03-2.36-4.743-5.246-3.821C60.036 50.24 32 86.512 32 129.334c0 42.82 28.036 79.093 66.754 91.463 2.886.922 5.246-.792 5.246-3.821v-7.453c0-2.032-1.531-4.345-3.439-5.044C69.924 193.257 48 163.81 48 129.334s21.924-63.925 52.561-75.146c1.908-.7 3.439-3.012 3.439-5.044z"/><path fill="#fff" d="m79.993 136.942-4.638 6.26c-1.097 2.171.482 4.738 2.915 4.738h15.177c4.8 19.84 18.619 33.37 37.136 33.09 13.146 0 23.056-6.536 29.673-19.551.843-1.657.104-3.69-1.594-4.448l-7.239-3.234a3.254 3.254 0 0 0-4.245 1.52c-3.417 6.934-9.094 11.353-16.595 11.353-6.791 0-12.239-3.325-16.412-10.044-1.632-2.601-2.929-5.504-3.917-8.684h19.438a3.27 3.27 0 0 0 2.915-1.793l4.638-6.26c1.097-2.173-.482-4.738-2.915-4.738h-26.263a73 73 0 0 1-.122-4.136 64 64 0 0 1 .098-4.13h21.649a3.27 3.27 0 0 0 2.915-1.793l4.638-6.26c1.097-2.171-.482-4.738-2.915-4.738h-24.1c3.525-11.494 10.884-19.023 20.353-18.874 7.214 0 12.816 3.95 16.409 10.419.805 1.45 2.617 2.006 4.134 1.336l7.277-3.213c1.74-.769 2.481-2.874 1.559-4.539C153.247 87.093 143.453 81 130.583 81c-11.744 0-21.152 4.668-28.296 13.937-4.175 5.458-7.083 11.862-8.808 19.157H82.91a3.27 3.27 0 0 0-2.915 1.792l-4.637 6.26c-1.097 2.173.482 4.739 2.915 4.739h13.461c-.064 1.359-.127 2.721-.127 4.13a73 73 0 0 0 .075 4.136h-8.77a3.27 3.27 0 0 0-2.918 1.791"/></svg>
