<svg xmlns="http://www.w3.org/2000/svg" fill="none" viewBox="0 0 512 512"><path fill="url(#paint0_linear_9209_870)" d="M256 512c141.385 0 256-114.615 256-256S397.385 0 256 0 0 114.615 0 256s114.615 256 256 256"/><path fill="#fff" d="m388.163 342.773-35.638-20.519a3.3 3.3 0 0 0-1.62-.432 3.5 3.5 0 0 0-.874.119 3.23 3.23 0 0 0-1.966 1.566 71 71 0 0 1-11.318 15.378 88 88 0 0 1-20.4 15.692 89.2 89.2 0 0 1-23.175 8.899 103.8 103.8 0 0 1-23.241 2.786 85.1 85.1 0 0 1-39.677-9.406 99.5 99.5 0 0 1-30.724-24.677 107.7 107.7 0 0 1-11.015-16.037l-4.191-7.441h90.478a3.24 3.24 0 0 0 3.24-3.24v-28.186a3.244 3.244 0 0 0-3.24-3.24H174.259l-.496-4.449a132 132 0 0 1-.81-14.461c0-4.049.216-8.294.648-12.635l.453-4.503h100.748a3.244 3.244 0 0 0 3.24-3.24V206.56a3.244 3.244 0 0 0-3.24-3.24h-91.439l3.877-7.332a107.6 107.6 0 0 1 9.46-14.86 93.25 93.25 0 0 1 29.893-25.465c12.031-6.566 26.297-9.903 42.41-9.903 7.65.032 15.275.887 22.743 2.548a91.5 91.5 0 0 1 22.463 8.186 80.9 80.9 0 0 1 31.923 30.735 3.23 3.23 0 0 0 2.095 1.523q.342.078.691.076a3.24 3.24 0 0 0 1.847-.573l33.1-22.797a3.24 3.24 0 0 0 .95-4.32c-9.805-16.491-23.823-30.303-41.664-41.038-20.195-12.149-44.547-18.359-72.356-18.359-23.596 0-44.893 4.45-63.306 13.219a147.43 147.43 0 0 0-76.395 83.242c-.108.27-.194.54-.281.81v.075a13 13 0 0 1-.291.842l-1.188 3.327H59.742a3.24 3.24 0 0 0-3.24 3.24v28.186a3.24 3.24 0 0 0 3.24 3.24h61.967l-.356 5.324c-.248 3.834-.367 7.03-.367 10.043 0 5.022.259 10.13.756 15.184l.54 5.497h-62.54a3.24 3.24 0 0 0-3.24 3.24v28.187a3.237 3.237 0 0 0 3.24 3.239h71.449l1.264 3.154a166.6 166.6 0 0 0 29.957 48.975 155.7 155.7 0 0 0 46.503 35.779c17.765 9.028 37.69 13.607 59.202 13.607a159.5 159.5 0 0 0 37.733-4.72 155.6 155.6 0 0 0 36.211-13.715 133.4 133.4 0 0 0 30.238-21.944 90.3 90.3 0 0 0 17.095-22.679 3.24 3.24 0 0 0-1.231-4.32"/><defs><linearGradient id="paint0_linear_9209_870" x1="127.984" x2="384.016" y1="34.267" y2="477.733" gradientUnits="userSpaceOnUse"><stop stop-color="#0095D7"/><stop offset="1" stop-color="#0072AA"/></linearGradient></defs></svg>