<svg xmlns="http://www.w3.org/2000/svg" fill="none" viewBox="0 0 256 256"><path fill="url(#paint0_linear_9209_870)" d="M128 256c70.692 0 128-57.308 128-128S198.692 0 128 0 0 57.308 0 128s57.308 128 128 128"/><path fill="#fff" d="m194.082 171.387-17.819-10.26a1.66 1.66 0 0 0-.81-.216 1.61 1.61 0 0 0-1.42.843 35.6 35.6 0 0 1-5.659 7.689 44 44 0 0 1-10.2 7.846 44.6 44.6 0 0 1-11.588 4.449 52 52 0 0 1-11.62 1.393 42.56 42.56 0 0 1-19.839-4.703 49.7 49.7 0 0 1-15.362-12.338 54 54 0 0 1-5.508-8.019l-2.095-3.72h45.239a1.62 1.62 0 0 0 1.62-1.62v-14.094a1.62 1.62 0 0 0-1.62-1.619H87.13l-.249-2.225a66 66 0 0 1-.405-7.23c0-2.025.108-4.147.324-6.318l.227-2.252h50.374a1.62 1.62 0 0 0 1.62-1.62V103.28a1.62 1.62 0 0 0-1.62-1.62h-45.72l1.94-3.666a54 54 0 0 1 4.73-7.43 46.6 46.6 0 0 1 14.946-12.733c6.015-3.283 13.148-4.951 21.204-4.951 3.826.016 7.638.444 11.372 1.274a45.7 45.7 0 0 1 11.231 4.093 40.45 40.45 0 0 1 15.962 15.368 1.62 1.62 0 0 0 1.393.799c.33 0 .652-.1.923-.286l16.551-11.4a1.62 1.62 0 0 0 .475-2.159c-4.903-8.245-11.912-15.152-20.832-20.519-10.098-6.074-22.274-9.18-36.178-9.18-11.799 0-22.447 2.225-31.653 6.61A73.7 73.7 0 0 0 65.547 99.1c-.054.136-.097.27-.14.406v.038q-.065.21-.146.42l-.594 1.664H29.87a1.623 1.623 0 0 0-1.62 1.62v14.093a1.617 1.617 0 0 0 1.62 1.62h30.984l-.178 2.662a77 77 0 0 0-.184 5.022c0 2.511.13 5.065.378 7.592l.27 2.748H29.87a1.62 1.62 0 0 0-1.62 1.62v14.093a1.62 1.62 0 0 0 1.62 1.62h35.725l.631 1.577a83.3 83.3 0 0 0 14.98 24.488 77.8 77.8 0 0 0 23.25 17.889c8.883 4.514 18.845 6.803 29.601 6.803a79.7 79.7 0 0 0 18.867-2.359 77.8 77.8 0 0 0 18.105-6.858 66.7 66.7 0 0 0 15.119-10.972 45.2 45.2 0 0 0 8.548-11.339c.197-.37.242-.802.127-1.204a1.62 1.62 0 0 0-.742-.956"/><defs><linearGradient id="paint0_linear_9209_870" x1="63.992" x2="192.008" y1="17.133" y2="238.867" gradientUnits="userSpaceOnUse"><stop stop-color="#0095D7"/><stop offset="1" stop-color="#0072AA"/></linearGradient></defs></svg>