<svg width="256" height="256" viewBox="0 0 256 256" fill="none" xmlns="http://www.w3.org/2000/svg">
<path d="M128 256C198.692 256 256 198.692 256 128C256 57.3075 198.692 0 128 0C57.3075 0 0 57.3075 0 128C0 198.692 57.3075 256 128 256Z" fill="white"/>
<path fill-rule="evenodd" clip-rule="evenodd" d="M216.829 220.16C240.978 196.878 256 164.193 256 128C256 85.228 235.021 47.357 202.793 24.113C158.415 29.183 121.545 49.813 108.8 79.355H227.84L214.4 110.08H102.4C102.4 110.08 101.699 121.856 101.76 127.36C101.849 135.393 102.4 144.64 102.4 144.64H199.68L186.88 174.343H115.84C129.907 200.935 169.527 220.125 216.829 220.16ZM179.475 245.229C163.723 252.155 146.311 256 128 256C57.3075 256 0 198.692 0 128C0 57.3075 57.3075 0 128 0C139.727 0 151.085 1.577 161.875 4.53C120.432 12.115 86.354 40.929 71.195 79.355H44.8L31.36 110.08H65.28V124.16C65.28 126.512 65.28 127.279 65.296 128.045C65.329 129.554 65.424 131.061 65.708 144.64H43.52L31.36 174.343H73.468C91.09 214.071 122.614 237.583 179.475 245.229Z" fill="url(#paint0_linear_9208_865)"/>
<defs>
<linearGradient id="paint0_linear_9208_865" x1="30.08" y1="203.52" x2="224" y2="52.48" gradientUnits="userSpaceOnUse">
<stop offset="0.333" stop-color="#15BCFF"/>
<stop offset="0.664" stop-color="#406BEE"/>
<stop offset="0.925" stop-color="#AE3EEB"/>
</linearGradient>
</defs>
</svg>
