<svg xmlns="http://www.w3.org/2000/svg" fill="none" viewBox="0 0 512 512"><path fill="#fff" d="M256 512c141.385 0 256-114.615 256-256S397.385 0 256 0 0 114.615 0 256s114.615 256 256 256"/><path fill="url(#paint0_linear_9208_865)" fill-rule="evenodd" d="M433.658 440.32C481.956 393.756 512 328.386 512 256c0-85.544-41.958-161.286-106.414-207.774C316.83 58.366 243.09 99.626 217.6 158.71h238.08l-26.88 61.45h-224s-1.402 23.552-1.28 34.56c.178 16.066 1.28 34.56 1.28 34.56h194.56l-25.6 59.406H231.68c28.134 53.184 107.374 91.564 201.978 91.634m-74.708 50.138C327.446 504.31 292.622 512 256 512 114.615 512 0 397.385 0 256S114.615 0 256 0c23.454 0 46.17 3.154 67.75 9.06-82.886 15.17-151.042 72.798-181.36 149.65H89.6l-26.88 61.45h67.84v28.16c0 4.704 0 6.238.032 7.77.066 3.018.256 6.032.824 33.19H87.04l-24.32 59.406h84.216c35.244 79.456 98.292 126.48 212.014 141.772" clip-rule="evenodd"/><defs><linearGradient id="paint0_linear_9208_865" x1="60.16" x2="448" y1="407.04" y2="104.96" gradientUnits="userSpaceOnUse"><stop offset=".333" stop-color="#15BCFF"/><stop offset=".664" stop-color="#406BEE"/><stop offset=".925" stop-color="#AE3EEB"/></linearGradient></defs></svg>