<svg xmlns="http://www.w3.org/2000/svg" fill="none" viewBox="0 0 256 256"><path fill="#fff" d="M256 128C256 57.308 198.692 0 128 0S0 57.308 0 128s57.308 128 128 128 128-57.308 128-128"/><path fill="#000" fill-rule="evenodd" d="M222.5 128c0 52.192-42.308 94.5-94.5 94.5S33.5 180.192 33.5 128 75.808 33.5 128 33.5s94.5 42.308 94.5 94.5m17.5 0c0 61.856-50.144 112-112 112S16 189.856 16 128 66.144 16 128 16s112 50.144 112 112M136.748 49.248h-17.496v12.896a47 47 0 0 0-24.868 12.528A47.4 47.4 0 0 0 81.88 95.2a47.6 47.6 0 0 0-.86 24.04 47.45 47.45 0 0 0 11.004 21.376 47.1 47.1 0 0 0 17.172 12.108 15.748 15.748 0 1 0 6.028-16.448 29.6 29.6 0 0 1-10.184-7.36 29.96 29.96 0 0 1-6.94-13.488 30.1 30.1 0 0 1 .544-15.2 29.9 29.9 0 0 1 7.884-12.952 29.54 29.54 0 0 1 13.16-7.352 29.4 29.4 0 0 1 15.028.116 29.55 29.55 0 0 1 13.048 7.548 29.9 29.9 0 0 1 7.692 13.068l16.84-4.772a47.4 47.4 0 0 0-12.2-20.712 47.05 47.05 0 0 0-23.348-12.64zm-10.496 76.128a17.498 17.498 0 0 1-17.39-19.48 17.5 17.5 0 0 1 11.642-14.55 17.5 17.5 0 0 1 22.82 12.694 48.2 48.2 0 0 1 12.372 7.416 46.74 46.74 0 0 1 13.988 19.52 45.6 45.6 0 0 1 2.288 23.788 46.16 46.16 0 0 1-10.056 21.744 47.9 47.9 0 0 1-19.636 14.032 49 49 0 0 1-7.28 2.168v14.04h-17.5v-13.46a48.65 48.65 0 0 1-21.772-8.924 46.9 46.9 0 0 1-15.096-18.704l15.988-7.112a29.44 29.44 0 0 0 9.48 11.72 31.2 31.2 0 0 0 14.388 5.764 31.7 31.7 0 0 0 15.508-1.828 30.4 30.4 0 0 0 12.472-8.892 28.65 28.65 0 0 0 6.256-13.5c.84-4.92.36-9.968-1.412-14.664a29.24 29.24 0 0 0-8.768-12.2 30.6 30.6 0 0 0-6.532-4.132 17.52 17.52 0 0 1-11.76 4.56" clip-rule="evenodd"/></svg>
