<svg xmlns="http://www.w3.org/2000/svg" fill="none" viewBox="0 0 256 256"><path fill="#000" d="M128 0c70.656 0 128 57.344 128 128s-57.344 128-128 128S0 198.656 0 128 57.344 0 128 0"/><path fill="url(#paint0_linear_4202_4804)" d="M128 0c70.656 0 128 57.344 128 128s-57.344 128-128 128S0 198.656 0 128 57.344 0 128 0"/><path fill="#fff" d="M52.527 128.282a.07.07 0 0 0 .034-.053.06.06 0 0 0-.028-.056c-11.357-7.348-16.162-19.93-14.7-33.147 2.236-20.162 20.773-28.93 39.073-28.956q19.821-.027 39.699-.021.034 0 .059.023a.08.08 0 0 1 .024.057l-.003 21.125q0 .13-.131.13c-11.482.043-22.991.208-34.47 0-8.09-.144-18.898 1.256-20.564 11.127-2.604 15.443 13.386 20.405 25.214 20.463q11.064.056 22.127.062.136 0 .136.136l-.002 20.724q0 .113-.113.11-11.385-.105-22.748-.008c-9.249.077-24.028 1.709-26.25 13.259-2.123 11.033 4.677 19.125 15.199 21.2q3.639.717 7.356.72 17.042.013 34.083-.027.14 0 .139.139l.075 21.159q0 .162-.163.16-17.612-.056-35.12-.115c-14.863-.048-29.803-4.93-39.023-17.144-6.302-8.351-7.824-20.239-5.669-30.382 1.936-9.119 7.415-16.371 15.766-20.685"/><path fill="#BFBFBF" d="m127.244 196.435 33.252-43.258q.092-.117 0-.234l-33.474-43.22q-.12-.155.075-.155h22.911a.27.27 0 0 1 .219.109l21.014 28.555a.26.26 0 0 0 .27.109q.366-.066.676-.512 9.802-14.073 19.618-28.133a.29.29 0 0 1 .246-.128h21.851q.182 0 .074.147l-31.94 43.292a.1.1 0 0 0-.02.059q0 .033.02.061l31.938 43.342a.1.1 0 0 1 .016.045.1.1 0 0 1-.01.047.1.1 0 0 1-.033.034.1.1 0 0 1-.045.013h-22.246a.2.2 0 0 1-.169-.096l-19.549-31.358a.41.41 0 0 0-.55-.144.4.4 0 0 0-.152.141l-19.948 31.342a.23.23 0 0 1-.208.115h-23.751a.1.1 0 0 1-.057-.016.105.105 0 0 1-.028-.157"/><defs><linearGradient id="paint0_linear_4202_4804" x1="129.904" x2="125.742" y1="-20.114" y2="304.273" gradientUnits="userSpaceOnUse"><stop stop-color="#208FFF"/><stop offset="1" stop-color="#2D65FF"/></linearGradient></defs></svg>
