<svg xmlns="http://www.w3.org/2000/svg" fill="none" viewBox="0 0 256 256"><path fill="#B1E93D" d="M128 256c70.934 0 128-57.066 128-128S198.934 0 128 0 0 57.066 0 128s57.066 128 128 128"/><path fill="#fff" d="M128.5 242c63.452 0 114.5-51.048 114.5-114.5S191.952 13 128.5 13 14 64.048 14 127.5 65.048 242 128.5 242"/><path fill="#90C228" d="M128.009 33v130.539l58.01-34.189z"/><path fill="#C2ED68" d="M128.009 33 70 129.35l58.009 34.189.001-60.681z"/><path fill="#71A010" d="M128.01 174.639V222l58.01-81.698z"/><path fill="#C2ED68" d="M128.01 222v-47.361L70 140.302zm-.001-58.461 58.01-34.189-58.009-26.492z"/><path fill="#E3F7B9" d="m70 129.35 58.009 34.189.001-60.681z"/></svg>
