<svg xmlns="http://www.w3.org/2000/svg" fill="none" viewBox="0 0 512 512"><path fill="#000" d="M256 512c141.385 0 256-114.615 256-256S397.385 0 256 0 0 114.615 0 256s114.615 256 256 256"/><path fill="#fff" d="M256 512c141.385 0 256-114.615 256-256S397.385 0 256 0 0 114.615 0 256s114.615 256 256 256"/><path fill="#90C228" d="M255.998 54H256l-.002 279.036 124-73.081z"/><path fill="#C2ED68" d="M256 54 132 259.955l124 73.081z"/><path fill="#71A010" d="M256 356.763V458l62-87.317 62-87.317z"/><path fill="#C2ED68" d="M256 458V356.763l-124-73.397zm0-124.964 124-73.081-124-56.63z"/><path fill="#E3F7B9" d="m132 259.955 124 73.081V203.325z"/></svg>