<svg width="256" height="256" viewBox="0 0 256 256" fill="none" xmlns="http://www.w3.org/2000/svg">
<path d="M197.5 103.577V134.557H112.379V53.6375H197.5V84.6182H147.538V103.577H197.5Z" fill="white"/>
<path fill-rule="evenodd" clip-rule="evenodd" d="M256 128C256 198.692 198.692 256 128 256C57.3075 256 0 198.692 0 128C0 57.3075 57.3075 0 128 0C198.692 0 256 57.3075 256 128ZM197.5 134.557V103.577H147.538V84.6182H197.5V53.6375H112.379V134.557H197.5ZM152.626 152.591H46.6875V196.75H152.626V152.591Z" fill="black"/>
<path d="M46.6875 152.591H152.626V196.75H46.6875V152.591Z" fill="#25E7A1"/>
</svg>
