<svg xmlns="http://www.w3.org/2000/svg" fill="none" viewBox="0 0 256 256"><path fill="#000" d="M128 256c70.692 0 128-57.308 128-128S198.692 0 128 0 0 57.308 0 128s57.308 128 128 128"/><path fill="#fff" d="M52.65 51.613c-5.78 6.063-10.547 11.164-10.595 11.26-.048.145 5.153 5.246 11.558 11.31 6.405 6.111 11.99 11.453 12.376 11.79l.722.674-1.3 2.165c-11.413 18.864-13.773 41.579-6.597 62.464 1.348 3.947 3.66 8.999 5.634 12.32.963 1.636 1.397 2.695 1.3 2.887s-5.923 6.353-12.954 13.716c-7.03 7.314-12.762 13.426-12.858 13.522-.048.145 19.648 19.153 21.526 20.693l.723.626 11.124-11.598c6.116-6.4 11.847-12.416 12.713-13.33l1.638-1.636 1.54.962c7.85 5.005 17.048 8.47 27.209 10.299 5.105.914 14.833 1.155 20.274.481 10.499-1.203 20.901-4.716 29.424-9.865l2.216-1.348 2.359 2.31c5.153 5.005 24.416 23.292 24.609 23.388.192.096 21.333-21.992 21.285-22.281-.048-.144-14.543-14.052-23.404-22.377l-2.938-2.792 1.348-2.213c11.317-18.817 13.677-41.627 6.357-62.657-1.059-3.08-4.286-10.01-6.164-13.186l-.915-1.588 12.376-12.945c6.791-7.074 12.329-12.994 12.28-13.138-.192-.481-21.863-20.934-22.152-20.934-.192 0-5.634 5.535-12.135 12.368-6.501 6.785-11.895 12.368-12.04 12.416-.096.048-.722-.24-1.3-.674-1.637-1.107-5.779-3.368-8.09-4.427-7.031-3.224-13.58-5.197-21.189-6.304-3.949-.578-15.796-.674-19.456-.145-8.764 1.252-15.94 3.417-23.26 7.075-2.118 1.01-4.574 2.357-5.538 2.935l-1.733 1.059-1.975-1.925c-1.06-1.059-5.875-5.582-10.642-10.154-4.768-4.524-9.632-9.144-10.787-10.299l-2.12-2.069zm80.855 31.376c7.657.914 14.495 3.513 20.804 7.94 3.226 2.262 8.042 7.075 10.306 10.299 12.857 18.191 10.401 42.926-5.779 58.085-13.821 12.897-33.807 15.785-50.613 7.219-12.136-6.208-20.708-17.566-23.453-31.184-.867-4.332-.867-12.416 0-16.699.819-4.235 1.927-7.267 3.997-11.502 8.283-16.65 26.246-26.372 44.738-24.158"/></svg>