<svg xmlns="http://www.w3.org/2000/svg" fill="none" viewBox="0 0 256 256"><path fill="#000" fill-rule="evenodd" d="M256 128c0 70.692-57.308 128-128 128S0 198.692 0 128 57.308 0 128 0s128 57.308 128 128M42.055 62.874c.048-.097 4.816-5.198 10.595-11.261L63.1 40.448l2.119 2.07c1.155 1.154 6.02 5.774 10.787 10.298 2.29 2.195 4.59 4.38 6.48 6.175 2.046 1.942 3.612 3.428 4.162 3.979l1.975 1.925 1.733-1.059c.964-.578 3.42-1.925 5.538-2.935 7.32-3.658 14.496-5.824 23.26-7.075 3.66-.529 15.507-.433 19.456.145 7.609 1.107 14.158 3.08 21.189 6.304 2.311 1.059 6.453 3.32 8.09 4.427.578.433 1.204.722 1.3.674.145-.048 5.539-5.63 12.04-12.416 6.501-6.833 11.943-12.368 12.135-12.368.289 0 21.96 20.453 22.152 20.934.049.144-5.489 6.064-12.28 13.138L190.86 87.609l.915 1.588c1.878 3.176 5.105 10.106 6.164 13.186 7.32 21.03 4.96 43.84-6.357 62.657l-1.348 2.213 2.938 2.792c8.861 8.325 23.356 22.233 23.404 22.377.048.289-21.093 22.377-21.285 22.281s-19.456-18.383-24.609-23.388l-2.359-2.31-2.216 1.348c-8.523 5.149-18.925 8.662-29.424 9.865-5.441.674-15.169.433-20.274-.481-10.161-1.829-19.359-5.294-27.208-10.299l-1.541-.962-1.638 1.636c-.867.914-6.597 6.93-12.713 13.33L62.185 215.04l-.723-.626c-1.878-1.54-21.574-20.548-21.526-20.693l.503-.532a1815 1815 0 0 1 12.355-12.99c7.03-7.363 12.858-13.523 12.954-13.716s-.337-1.251-1.3-2.887c-1.974-3.321-4.286-8.373-5.634-12.32-7.176-20.885-4.816-43.6 6.597-62.464l1.3-2.165-.722-.674c-.299-.261-3.724-3.53-8.232-7.835l-4.144-3.955c-6.405-6.064-11.606-11.165-11.558-11.31m91.45 20.115c7.657.914 14.495 3.513 20.804 7.94 3.226 2.262 8.042 7.075 10.306 10.299 12.857 18.191 10.401 42.926-5.779 58.085-13.821 12.897-33.807 15.785-50.613 7.219-12.136-6.208-20.708-17.566-23.453-31.184-.867-4.332-.867-12.416 0-16.699.819-4.235 1.927-7.267 3.997-11.502 8.283-16.65 26.246-26.372 44.738-24.158" clip-rule="evenodd"/></svg>