<svg xmlns="http://www.w3.org/2000/svg" fill="none" viewBox="0 0 512 512"><path fill="#000" d="M256 512c141.385 0 256-114.615 256-256S397.385 0 256 0 0 114.615 0 256s114.615 256 256 256Z"/><path fill="#fff" d="M262.165 212.886v108.002L368.38 256.81l-106.215-43.924Zm0-12.19 105.25 43.539-25.159-40.832 53.494-53.25-31.967-31.839-45.826 45.636-55.792-90.537v127.283Zm-11.299 120.192V212.886L144.651 256.81l106.215 64.078Zm-105.25-76.653 105.25-43.539V73.413l-55.774 90.537-45.844-45.636-31.967 31.839 53.494 53.232-25.159 40.85Zm221.571 46.195-105.022 63.362v83.918l43.212-60.62 45.107 44.902 31.967-31.821-50.529-50.299 35.265-49.442Zm-116.321 63.362L145.844 290.43l35.265 49.442-50.529 50.299 31.966 31.821 45.108-44.885 43.212 60.586v-83.901Z"/></svg>