<svg xmlns="http://www.w3.org/2000/svg" fill="none" viewBox="0 0 256 256"><path fill="#000" d="M128 256c70.692 0 128-57.308 128-128S198.692 0 128 0 0 57.308 0 128s57.308 128 128 128"/><path fill="#fff" d="M131.082 106.443v54.001l53.108-32.039zm0-6.095 52.625 21.77-12.579-20.417 26.747-26.625-15.983-15.919-22.914 22.818-27.896-45.269zm-5.649 60.096v-54.001l-53.107 21.962zm-52.625-38.326 52.625-21.77V36.706L97.546 81.975 74.624 59.157 58.64 75.077l26.746 26.616zm110.785 23.097-52.511 31.681v41.959l21.607-30.31 22.553 22.451 15.983-15.911-25.264-25.149zm-58.16 31.681-52.511-31.681 17.632 24.721-25.264 25.149 15.983 15.911 22.554-22.442 21.606 30.292z"/></svg>
