<svg xmlns="http://www.w3.org/2000/svg" fill="none" viewBox="0 0 512 512"><path fill="#000" d="M256.002 0a256.001 256.001 0 0 1 181.017 437.02 256.004 256.004 0 0 1-278.986 55.493A255.998 255.998 0 0 1 0 256 256.095 256.095 0 0 1 256.002 0Z"/><path fill="#fff" d="m408.554 405.615-39.881 39.76a.217.217 0 0 1-.239.048.208.208 0 0 1-.07-.048l-48.169-48.023a.293.293 0 0 0-.321-.062 71.43 71.43 0 0 1-7.761 2.789c-17.821 5.273-36.68 7.15-55.209 6.949-21.311-.23-42.435-3.076-61.661-11.882a.282.282 0 0 0-.346.062l-50.245 50.093c-.121.121-.242.121-.363 0l-39.752-39.633c-.119-.12-.119-.241 0-.361l48.819-48.669a.34.34 0 0 0 .058-.402 129.962 129.962 0 0 1-13.784-40.183c-.601-3.56-.925-6.587-.972-9.081-.003-.151.07-.237.219-.259 2.518-.353 4.383-.594 5.594-.723a2568.927 2568.927 0 0 1 50.945-4.965c.291-.025.462.107.511.394 2.822 16.231 10.291 35.567 24.906 44.779 7.308 4.608 15.453 7.841 23.98 9.212 14.884 2.395 31.72 1.516 45.887-4.164 10.558-4.239 20.041-12.781 23.975-23.624 1.854-5.105 1.87-11.668 1.116-16.933-2.29-16.026-21.899-22.922-35.279-26.556a2751.252 2751.252 0 0 0-36.663-9.689c-16.214-4.164-32.696-9.195-47.881-16.301-39.324-18.399-57.326-60.332-41.013-100.934a.288.288 0 0 0-.066-.337l-50.34-50.184c-.113-.112-.113-.225 0-.337l39.518-39.707c.113-.112.225-.112.338 0l50.303 50.147a.372.372 0 0 0 .408.078c6.813-2.969 13.862-5.487 21.124-7.154 22.352-5.13 46.06-5.044 68.697-1.931 11.954 1.643 21.4 4.736 32.844 9.065a.318.318 0 0 0 .363-.078l50.2-50.04c.123-.124.245-.125.366-.005l39.819 39.695a.142.142 0 0 1 .028.041c.006.016.01.032.01.049a.134.134 0 0 1-.038.091 8091.897 8091.897 0 0 0-48.68 48.841c-.441.443-.947.509-.647 1.302 3.304 8.67 5.957 16.514 7.148 25.188.461 3.376.863 7.264 1.207 11.664.013.186-.073.283-.26.292l-58.187 2.259c-.434.016-.697-.187-.787-.608-1.846-8.469-4.251-16.708-9.339-23.875-11.374-16.033-33.71-18.292-51.753-16.896-10.764.834-21.487 2.83-30.682 8.736-2.716 1.744-4.821 3.487-6.315 5.228-8.395 9.791-5.499 24.909 4.659 32.158 3.721 2.656 8.305 4.996 13.751 7.019 31.942 11.865 65.038 15.484 97.627 30.088 13.015 5.835 23.941 14.275 32.779 25.32 14.542 18.166 18.142 41.079 15.979 63.733a73.844 73.844 0 0 1-7.225 25.628c-1.291 2.64-2.589 5.278-3.893 7.915a.317.317 0 0 0 .066.394l44.548 44.459a.166.166 0 0 1 .032.043.122.122 0 0 1 .017.047.093.093 0 0 1-.001.044.081.081 0 0 1-.019.034Z"/></svg>