<svg xmlns="http://www.w3.org/2000/svg" fill="none" viewBox="0 0 512 512"><path fill="#000" d="M256.002 0a256.001 256.001 0 0 1 181.017 437.02 256 256 0 0 1-278.986 55.493A256 256 0 0 1 0 256 256.095 256.095 0 0 1 256.002 0"/><path fill="#fff" d="m408.554 405.615-39.881 39.76a.22.22 0 0 1-.239.048.2.2 0 0 1-.07-.048l-48.169-48.023a.29.29 0 0 0-.321-.062 71 71 0 0 1-7.761 2.789c-17.821 5.273-36.68 7.15-55.209 6.949-21.311-.23-42.435-3.076-61.661-11.882a.28.28 0 0 0-.346.062l-50.245 50.093q-.181.181-.363 0l-39.752-39.633q-.179-.18 0-.361l48.819-48.669a.34.34 0 0 0 .058-.402 130 130 0 0 1-13.784-40.183q-.901-5.34-.972-9.081-.004-.226.219-.259 3.777-.53 5.594-.723a2569 2569 0 0 1 50.945-4.965q.437-.037.511.394c2.822 16.231 10.291 35.567 24.906 44.779 7.308 4.608 15.453 7.841 23.98 9.212 14.884 2.395 31.72 1.516 45.887-4.164 10.558-4.239 20.041-12.781 23.975-23.624 1.854-5.105 1.87-11.668 1.116-16.933-2.29-16.026-21.899-22.922-35.279-26.556a2751 2751 0 0 0-36.663-9.689c-16.214-4.164-32.696-9.195-47.881-16.301-39.324-18.399-57.326-60.332-41.013-100.934a.29.29 0 0 0-.066-.337l-50.34-50.184q-.17-.168 0-.337l39.518-39.707q.169-.168.338 0l50.303 50.147a.37.37 0 0 0 .408.078c6.813-2.969 13.862-5.487 21.124-7.154 22.352-5.13 46.06-5.044 68.697-1.931 11.954 1.643 21.4 4.736 32.844 9.065a.32.32 0 0 0 .363-.078l50.2-50.04q.185-.185.366-.005l39.819 39.695a.1.1 0 0 1 .028.041q.01.024.01.049a.13.13 0 0 1-.038.091 8092 8092 0 0 0-48.68 48.841c-.441.443-.947.509-.647 1.302 3.304 8.67 5.957 16.514 7.148 25.188q.691 5.064 1.207 11.664.02.279-.26.292l-58.187 2.259q-.652.024-.787-.608c-1.846-8.469-4.251-16.708-9.339-23.875-11.374-16.033-33.71-18.292-51.753-16.896-10.764.834-21.487 2.83-30.682 8.736q-4.074 2.616-6.315 5.228c-8.395 9.791-5.499 24.909 4.659 32.158q5.582 3.984 13.751 7.019c31.942 11.865 65.038 15.484 97.627 30.088q19.522 8.753 32.779 25.32c14.542 18.166 18.142 41.079 15.979 63.733a73.8 73.8 0 0 1-7.225 25.628q-1.937 3.96-3.893 7.915a.32.32 0 0 0 .066.394l44.548 44.459a.2.2 0 0 1 .032.043.1.1 0 0 1 .017.047.1.1 0 0 1-.001.044.1.1 0 0 1-.019.034"/></svg>