<svg xmlns="http://www.w3.org/2000/svg" fill="none" viewBox="0 0 256 256"><path fill="#000" d="M128.001 0a128 128 0 0 1 118.256 79.017A127.999 127.999 0 1 1 0 128 128.047 128.047 0 0 1 128.001 0"/><path fill="#fff" d="m204.277 202.808-19.94 19.88a.1.1 0 0 1-.036.024.12.12 0 0 1-.084 0 .1.1 0 0 1-.035-.024l-24.084-24.012a.145.145 0 0 0-.161-.031 36 36 0 0 1-3.881 1.394c-8.91 2.637-18.34 3.576-27.604 3.475-10.655-.115-21.218-1.538-30.83-5.941a.14.14 0 0 0-.173.031l-25.123 25.047q-.09.09-.181 0l-19.877-19.817q-.089-.09 0-.181l24.41-24.334a.17.17 0 0 0 .03-.201 65 65 0 0 1-6.893-20.092q-.45-2.669-.486-4.54-.002-.113.11-.129a95 95 0 0 1 2.796-.362q12.63-1.36 25.473-2.482.218-.02.255.197c1.412 8.115 5.146 17.783 12.454 22.389 3.654 2.304 7.726 3.92 11.989 4.606 7.442 1.197 15.86.758 22.944-2.082 5.279-2.119 10.02-6.391 11.988-11.812.926-2.552.935-5.834.558-8.467-1.146-8.012-10.95-11.46-17.64-13.278a1383 1383 0 0 0-18.332-4.844c-8.107-2.082-16.348-4.598-23.94-8.15-19.662-9.2-28.663-30.167-20.507-50.468a.14.14 0 0 0-.033-.168l-25.17-25.092q-.084-.084 0-.169l19.76-19.853q.084-.084.168 0l25.152 25.074a.185.185 0 0 0 .204.039c3.407-1.485 6.931-2.744 10.562-3.578 11.176-2.565 23.03-2.521 34.348-.965 5.978.822 10.701 2.368 16.423 4.532a.16.16 0 0 0 .181-.039l25.1-25.02q.093-.092.183-.002l19.91 19.848q.008.008.013.02l.005.025-.005.024-.013.02a4040 4040 0 0 0-24.34 24.421c-.221.222-.474.255-.324.651 1.652 4.335 2.979 8.257 3.574 12.594q.346 2.533.603 5.833.01.14-.129.145l-29.094 1.13q-.325.012-.394-.304c-.922-4.234-2.125-8.354-4.669-11.937-5.687-8.017-16.855-9.147-25.876-8.448-5.383.416-10.744 1.414-15.341 4.367q-2.037 1.308-3.158 2.615c-4.198 4.895-2.75 12.454 2.33 16.079q2.79 1.992 6.875 3.509c15.971 5.933 32.519 7.742 48.814 15.044q9.76 4.377 16.389 12.66c7.271 9.083 9.071 20.539 7.99 31.867a37 37 0 0 1-3.613 12.814 903 903 0 0 1-1.947 3.957.16.16 0 0 0 .033.197l22.274 22.229.017.022.008.023v.022z"/></svg>
