<svg xmlns="http://www.w3.org/2000/svg" fill="none" viewBox="0 0 256 256"><path fill="#000" fill-rule="evenodd" d="M256 128c0 70.692-57.308 128-128 128S0 198.692 0 128 57.308 0 128 0s128 57.308 128 128M72.448 188.88V67.376l55.68-31.536 55.68 31.536V188.88l-55.68 31.536zm66.816-89.041 33.408-19.478v38.956zm33.408 83.476-44.544 25.971-44.544-25.971v-45.448l44.544 25.97 44.544-25.97zM83.584 80.361l33.408 19.478-33.408 19.478zm50.112 28.753 33.408 19.478-33.408 19.478zM122.56 148.07l-33.408-19.478 33.408-19.478zm44.544-76.984-38.976 22.26-38.976-22.26 38.976-23.188z" clip-rule="evenodd"/></svg>