<svg xmlns="http://www.w3.org/2000/svg" fill="none" viewBox="0 0 256 256"><path fill="#fff" d="M256 127.973a127.9 127.9 0 0 1-21.568 71.181 128.04 128.04 0 0 1-57.539 47.173 128.14 128.14 0 0 1-73.862 7.206 128.1 128.1 0 0 1-65.492-35.005 127.93 127.93 0 0 1-35.031-65.443 127.87 127.87 0 0 1 7.146-73.94 128 128 0 0 1 47.049-57.516 128.14 128.14 0 0 1 131.56-6.544 128 128 0 0 1 49.508 47.074A127.9 127.9 0 0 1 256 127.973"/><path fill="#A6C15B" d="M212.478 65.408c-20.632-26.236-47.55-41.739-89.667-41.739-49.87 0-95.405 44.78-95.405 92.66 0 33.391 19.35 49.371 40.714 49.371a43.8 43.8 0 0 0 23.615-6.078c7.106-4.211 12.811-10.343 16.426-17.653a1.57 1.57 0 0 0-.015-1.578 1.6 1.6 0 0 0-.586-.581 1.7 1.7 0 0 0-.802-.226H77.947a2.16 2.16 0 0 1-1.45-.611 2.06 2.06 0 0 1-.625-1.417v-20.392c0-1.133.915-2.027 2.075-2.027h38.821c1.587 0 3.052-.954 3.662-2.385 16.908-37.923 47.001-46.151 64.275-47.523 8.851-.656 17.762 0 26.43 2.087.275.174.61.234.93.167s.601-.256.779-.525.24-.596.171-.909a1.2 1.2 0 0 0-.537-.76z"/><path fill="#187F49" d="M43.46 190.446c20.997 26.355 48.22 41.381 90.094 41.261 49.869-.417 95.343-45.555 95.038-93.614-.244-33.391-19.594-49.371-41.14-49.132a43.9 43.9 0 0 0-23.587 6.221c-7.083 4.253-12.755 10.417-16.333 17.749a1.58 1.58 0 0 0 .046 1.63c.155.243.374.441.635.574.26.133.552.195.845.181l28.688-.179c1.16 0 2.076.894 2.076 2.027l.183 20.452a1.95 1.95 0 0 1-.633 1.435 2.02 2.02 0 0 1-1.504.533l-38.76.298a4.04 4.04 0 0 0-2.152.642 3.9 3.9 0 0 0-1.449 1.683c-16.725 38.102-46.817 46.509-64.091 48.06a85 85 0 0 1-26.43-1.968 1.365 1.365 0 0 0-1.77.391 1.29 1.29 0 0 0 .244 1.756"/></svg>
