<svg xmlns="http://www.w3.org/2000/svg" fill="none" viewBox="0 0 256 256"><g clip-path="url(#clip0_4193_3451)"><rect width="256" height="256" fill="#E0CB95" rx="128"/><path fill="#51504F" d="M155.966 77.895c0 1.852-3.579 4.502-6.825 6.521-3.238 2.019-6.475 3.976-10.072 1.87-3.598-2.116-6.844-3.634-9.362-4.336a48 48 0 0 0-7.545-1.405c-2.562-.316-3.044-3.028-3.685-6.67l-.263-1.431-.29-1.457c-1.017-4.95-2.851-13.833 3.405-13.087 6.931.825 17.494 6.293 25.153 11.112 7.659 4.81 9.476 7.03 9.476 8.883z"/><path fill="#51504F" d="M74.066 96.151c3.772-9.786 5.72-13.367 10.738-19.511 5.001-6.145 8.897-7.891 13.705-9.462 4.597-1.51 7.404-1.054 8.194 1.808s1.72 9.005 1.72 10.813v.237c0 1.703.017 3.195-3.843 6.996-4.036 3.976-7.063 9.532-7.063 17.414s1.895 11.05 6.589 16.606c4.703 5.556 14.257 7.75 21.32 7.031 7.062-.711 12.344-3.467 16.283-8.883 3.931-5.424 5.37-11.691 5.721-16.633.298-4.09 2.07-5.371 5.939-8.162a135 135 0 0 0 2.659-1.958c5.72-4.336 9.3-6.864 12.151-6.635 2.851.228 4.264.614 11.8 3.432 7.458 2.782 11.731 5.67 13.906 7.127l.079.052c2.141 1.449 1.053 2.58-2.175 4.749-1.202.816-2.58 1.694-4.036 2.633a163 163 0 0 0-7.396 4.915c-1.465 1.053-2.974 2.054-4.422 3.02-3.22 2.15-6.168 4.107-7.756 6.056-4.001 4.915-5.378 10.287-3.229 17.352 1.334 4.389 3.141 7.101 5.879 11.226 1.667 2.493 3.667 5.513 6.124 9.734 11.23 19.284 7.369 49.873-2.317 71.561-9.686 21.68-27.934 37.944-46.552 47.344-18.609 9.392-34.34 13.377-50.088 14.097s-27.549-1.08-32.927-2.897c-5.36-1.799-10.476-10.708 5.089-14.324 15.573-3.608 26.33-6.364 42.078-17.923 15.748-11.569 24.732-23.321 31.172-35.969 6.44-12.657 7.089-25.876 4.229-32.739-2.861-6.873-11.845-13.57-24.382-18.266-12.52-4.704-21.785-8.882-30.383-14.254-8.124-5.082-11.695-12.534-9.905-21.206s6.194-22.698 11.099-35.38"/><path fill="#51504F" d="M113.099 113.75c4.588 4.616 15.301 4.669 19.889-.466 4.589-5.126 4.589-14.105 0-18.204-4.588-4.107-13.774-6.161-19.889-.526-6.124 5.644-4.589 14.579 0 19.196M13.853 227.476c-1.807.474-3.194 2.984-5.86 7.812a317 317 0 0 1-2.642 4.739c-4.562 7.961-8.826 13.781-16.976 22.663-8.16 8.883-13.275 12.552-26.233 20.512l-.334.211c-12.704 7.794-16.432 10.085-17.31 12.446-.895 2.37-.368 5.512 9.16 6.978s17.477 1.799 31.242-7.689c3.72-2.571 7.23-5.108 10.643-7.592 9.23-6.688 17.801-12.903 28.206-17.818 9.634-4.555 14.801-5.837 22.057-7.645 3.492-.869 7.466-1.852 12.652-3.388 15.985-4.704 30.549-13.956 40.603-25.182 10.046-11.234 15.073-22.557 17.109-28.982 2.035-6.434 2.325-15.009-3.115-19.292-5.194-4.099-8.001-5.328-19.46-9.611l-2.983-1.115c-9.949-3.686-14.037-5.205-22.25-11.735a101 101 0 0 1-6-5.17c-2.773-2.537-3.729-3.414-7.282-3.888-5.317-.72-9.344 7.241-11.143 11.235-1.35 2.993-1.579 8.285 1.992 13.271l.93 1.299c3.272 4.634 6.817 9.655 15.766 14.745 9.8 5.565 14.362 6.452 21.039 7.566 6.685 1.115 9.29 2.695 7.492 5.864-1.79 3.177-5.387 4.713-11.493 4.713-6.097 0-14.713-2.809-23.329-7.882a48.4 48.4 0 0 1-13.572-11.586c-3.08-3.879-4.931-4.441-7.782-4.441s-5.203 1.808-8.616 6.881-5.922 10.568-6.282 13.543c-.36 2.976-.684 6.294 4.703 10.279 5.387 3.984 10.037 6.152 16.143 7.241 6.098 1.088 10.739 2.993 6.273 7.065-4.474 4.073-9.888 3.169-14.196 2.089-4.307-1.088-10.563-4.458-12.923-5.994l-.614-.395c-2.035-1.335-3.51-2.3-5.615-1.747"/></g><defs><clipPath id="clip0_4193_3451"><rect width="256" height="256" fill="#fff" rx="128"/></clipPath></defs></svg>
