<svg xmlns="http://www.w3.org/2000/svg" fill="none" viewBox="0 0 512 512"><g clip-path="url(#clip0_4193_3451)"><rect width="512" height="512" fill="#E0CB95" rx="256"/><path fill="#51504F" d="M311.932 155.789c0 3.704-7.159 9.006-13.652 13.043-6.475 4.038-12.95 7.952-20.144 3.739-7.194-4.23-13.687-7.267-18.723-8.672a95.578 95.578 0 0 0-15.09-2.808c-5.124-.632-6.089-6.057-7.37-13.342l-.526-2.861-.579-2.914c-2.036-9.901-5.703-27.666 6.808-26.174 13.862 1.65 34.989 12.587 50.307 22.224 15.319 9.62 18.951 14.061 18.951 17.765h.018Z"/><path fill="#51504F" d="M148.13 192.302c7.545-19.573 11.441-26.735 21.478-39.023 10.002-12.288 17.792-15.781 27.408-18.924 9.195-3.019 14.81-2.106 16.389 3.617 1.579 5.722 3.439 18.01 3.439 21.627v.474c0 3.405.035 6.389-7.685 13.99-8.072 7.953-14.126 19.065-14.126 34.828 0 15.764 3.791 22.101 13.178 33.213 9.405 11.112 28.514 15.501 42.639 14.062 14.126-1.422 24.689-6.934 32.568-17.766 7.861-10.848 10.739-23.382 11.44-33.265.597-8.181 4.142-10.744 11.88-16.326a271.939 271.939 0 0 0 5.317-3.914c11.44-8.672 18.599-13.728 24.302-13.272 5.703.457 8.528 1.229 23.601 6.864 14.915 5.565 23.46 11.34 27.812 14.254l.158.106c4.281 2.896 2.106 5.161-4.352 9.497-2.404 1.632-5.159 3.388-8.071 5.266a326.903 326.903 0 0 0-14.793 9.83c-2.93 2.107-5.948 4.108-8.843 6.039-6.44 4.301-12.336 8.216-15.512 12.113-8.001 9.83-10.756 20.574-6.457 34.705 2.667 8.777 6.282 14.201 11.756 22.452 3.334 4.985 7.335 11.024 12.248 19.468 22.46 38.567 14.74 99.744-4.632 143.121-19.372 43.36-55.87 75.888-93.105 94.689-37.217 18.783-68.679 26.753-100.176 28.192-31.497 1.44-55.097-2.159-65.854-5.793-10.721-3.599-20.951-21.416 10.177-28.649 31.146-7.215 52.659-12.727 84.156-35.846 31.497-23.137 49.465-46.642 62.345-71.938 12.879-25.313 14.178-51.75 8.457-65.478-5.72-13.745-23.688-27.139-48.763-36.531-25.04-9.409-43.569-17.765-60.765-28.508-16.249-10.164-23.39-25.068-19.811-42.412 3.58-17.343 12.388-45.395 22.197-70.762Z"/><path fill="#51504F" d="M226.197 227.499c9.177 9.234 30.602 9.339 39.779-.93 9.177-10.252 9.177-28.21 0-36.408-9.177-8.216-27.549-12.323-39.779-1.053-12.248 11.287-9.177 29.157 0 38.391ZM27.705 454.952c-3.615.948-6.387 5.968-11.722 15.623a633.687 633.687 0 0 1-5.281 9.48c-9.125 15.922-17.653 27.56-33.954 45.325-16.319 17.765-26.548 25.103-52.465 41.025l-.667.421c-25.408 15.589-32.866 20.17-34.62 24.892-1.79 4.74-.737 11.025 18.319 13.956 19.056 2.932 34.953 3.599 62.485-15.378 7.44-5.143 14.458-10.216 21.284-15.184 18.46-13.377 35.603-25.805 56.414-35.636 19.267-9.11 29.602-11.673 44.113-15.29 6.984-1.737 14.933-3.704 25.303-6.776 31.971-9.409 61.099-27.911 81.208-50.363 20.091-22.47 30.145-45.115 34.216-57.965 4.071-12.867 4.65-30.018-6.229-38.585-10.388-8.197-16.003-10.655-38.919-19.222l-5.966-2.229c-19.899-7.373-28.075-10.41-44.499-23.47-5.615-4.477-9.265-7.812-12.003-10.34-5.544-5.073-7.457-6.829-14.564-7.776-10.633-1.44-18.687 14.482-22.284 22.469-2.703 5.986-3.159 16.572 3.983 26.542l1.86 2.599c6.545 9.268 13.634 19.309 31.532 29.491 19.6 11.129 28.724 12.902 42.078 15.132 13.37 2.229 18.582 5.389 14.985 11.726-3.58 6.355-10.774 9.427-22.987 9.427-12.195 0-29.426-5.617-46.657-15.764a96.866 96.866 0 0 1-27.146-23.172c-6.159-7.759-9.861-8.882-15.564-8.882-5.703 0-10.405 3.616-17.231 13.762-6.826 10.147-11.844 21.136-12.564 27.087-.72 5.951-1.368 12.586 9.406 20.556 10.773 7.97 20.073 12.306 32.286 14.483 12.195 2.176 21.478 5.986 12.546 14.131-8.949 8.145-19.775 6.337-28.391 4.178-8.616-2.177-21.127-8.918-25.847-11.99l-1.228-.79c-4.071-2.668-7.019-4.599-11.23-3.493Z"/></g><defs><clipPath id="clip0_4193_3451"><rect width="512" height="512" fill="#fff" rx="256"/></clipPath></defs></svg>