<svg xmlns="http://www.w3.org/2000/svg" fill="none" viewBox="0 0 512 512"><path fill="#28D358" d="M256 512c141.385 0 256-114.615 256-256S397.385 0 256 0 0 114.615 0 256s114.615 256 256 256"/><path fill="#fff" d="M161.792 222.549a41.73 41.73 0 0 0 25.759 38.552 41.73 41.73 0 0 0 57.697-38.552 41.727 41.727 0 0 0-71.234-29.506 41.73 41.73 0 0 0-12.222 29.506m105.131 0a41.64 41.64 0 0 0 12.197 29.446 41.635 41.635 0 0 0 45.381 9.027 41.64 41.64 0 0 0 25.707-38.473 41.64 41.64 0 0 0-71.088-29.445 41.64 41.64 0 0 0-12.197 29.445"/><path fill="#fff" d="M453.461 418.816V276.821h-53.589C389.12 348.501 329.899 400.725 256 400.725c-81.749 0-147.115-63.829-147.115-147.114 0-83.286 65.366-148.139 147.115-148.139 71.339 0 130.048 49.323 143.872 117.077h53.589A201.21 201.21 0 0 0 256 52.395c-109.227 0-197.632 90.112-197.632 201.386 0 111.275 88.747 201.046 197.632 201.046a159.91 159.91 0 0 0 145.92-81.92l2.048.512v91.306a256.6 256.6 0 0 0 49.493-46.08z"/></svg>