<svg xmlns="http://www.w3.org/2000/svg" fill="none" viewBox="0 0 256 256"><path fill="#28D358" d="M128 256c70.692 0 128-57.308 128-128S198.692 0 128 0 0 57.308 0 128s57.308 128 128 128"/><path fill="#fff" d="M80.896 111.275a20.86 20.86 0 0 0 12.88 19.275 20.86 20.86 0 0 0 22.737-4.522 20.87 20.87 0 0 0 0-29.506 20.865 20.865 0 0 0-35.617 14.753m52.565 0a20.83 20.83 0 0 0 6.099 14.723 20.82 20.82 0 0 0 22.691 4.513 20.83 20.83 0 0 0 11.268-11.268 20.83 20.83 0 0 0-4.513-22.691 20.822 20.822 0 0 0-35.545 14.723"/><path fill="#fff" d="M226.731 209.408v-70.997h-26.795c-5.376 35.84-34.987 61.952-71.936 61.952-40.875 0-73.557-31.915-73.557-73.558 0-41.642 32.682-74.069 73.557-74.069 35.669 0 65.024 24.661 71.936 58.539h26.795A100.61 100.61 0 0 0 128 26.197c-54.613 0-98.816 45.056-98.816 100.694 0 55.637 44.373 100.522 98.816 100.522a79.95 79.95 0 0 0 72.96-40.96l1.024.256v45.654a128.4 128.4 0 0 0 24.747-23.04z"/></svg>