<svg xmlns="http://www.w3.org/2000/svg" fill="none" viewBox="0 0 256 256"><path fill="#958FDC" d="M128 256c70.692 0 128-57.308 128-128S198.692 0 128 0 0 57.308 0 128s57.308 128 128 128"/><path fill="#2F2142" d="M201.323 173.35c.029-3.974 15.162-3.804 15.059-7.52-.074-2.865-6.776-2.798-4.67-8.86 3.103-9.031 4.788-18.727 4.788-28.816C216.5 79.19 176.865 39.5 128 39.5c-48.88 0-88.5 39.69-88.5 88.654a88.6 88.6 0 0 0 5.01 29.46c1.256 4.019-4.995 5.596-4.995 7.994 0 3.76 13.167 3.257 13.167 7.624 0 3.819-13.012 4.989-13.012 8.838 0 5.307 28.825 3.457 29.187 8.024.288 3.53-9.901 3.738-9.968 7.505-.096 6.011 39.348 4.042 39.348 8.046 0 3.028-17.941 1.932-17.941 5.507 0 3.576 23.615 5.848 49.64 5.848s43.988-2.902 43.988-6.04c0-3.131-16.759-2.48-16.412-5.315.606-4.937 37.789-2.413 37.789-8.12 0-3.012-10.227-3.716-9.902-6.958.473-4.589 31.101-3.9 31.101-8.66 0-3.738-15.17-4.663-15.155-8.542zm-23.72-11.517c-.812 3.027 8.513 3.479 8.513 6.639 0 3.842-28.434 2.31-28.153 7.395.177 3.198 20.202 3.738 19.818 7.084-.547 4.841-31.005 2.428-31.308 7.061-.222 3.405 14.867 3.516 14.896 6.618.03 2.613-11.852 4.034-34.581 4.034-25.914 0-38.497-1.399-37.071-4.316 1.337-2.724 24.273-2.22 24.044-6.506-.236-4.278-40.729-3.013-41.955-7.165-1.013-3.449 13.307-4.16 13.219-7.439-.096-3.338-18.348-2.583-18.747-6.625-.258-2.665 9.54-2.487 9.119-5.833-.31-2.428-4.36-2.087-6.754-7.106a65.59 65.59 0 0 1 4.23-62.792 65.4 65.4 0 0 1 23.69-22.18 65.3 65.3 0 0 1 31.415-8.048 65.3 65.3 0 0 1 30.853 7.742 65.4 65.4 0 0 1 23.555 21.411 65.59 65.59 0 0 1 5.961 61.52c-3.066 6.974-9.975 5.575-10.766 8.513h.015z"/></svg>
