<svg xmlns="http://www.w3.org/2000/svg" fill="none" viewBox="0 0 512 512"><path fill="#000" d="M256.002 0a256.001 256.001 0 0 1 181.017 437.02 256 256 0 0 1-278.986 55.493A256 256 0 0 1 0 256 256.095 256.095 0 0 1 256.002 0"/><path fill="url(#paint0_linear_4193_3348)" d="m88.93 340.989-2.9-5.622h49.044l1.249 1.712a144.47 144.47 0 0 0 74.353 55.912 144.5 144.5 0 0 0 93.03-1.007 144.4 144.4 0 0 0 73.106-57.518 144.37 144.37 0 0 0 22.856-90.159l-87.628-.149 25.565 72.37-31.337 43.05-56.228-159.42 184.939.362.787 2.811a170 170 0 0 1 4.998 21.425 187.37 187.37 0 0 1-32.002 139.791 187.43 187.43 0 0 1-121.487 76.234 204.4 204.4 0 0 1-31.849 2.611 186.5 186.5 0 0 1-97.772-27.649 186.47 186.47 0 0 1-68.762-74.792l.05.025zm31.487-29.983H76.585l-.813-2.811a183 183 0 0 1-4.585-21.125 187.45 187.45 0 0 1 24.315-127.725 187.5 187.5 0 0 1 101.565-81.197 187.54 187.54 0 0 1 129.968 4.384 187.5 187.5 0 0 1 95.861 87.856l2.911 5.622H376.44l-1.25-1.699a144.5 144.5 0 0 0-74.361-55.824 144.53 144.53 0 0 0-92.984 1.034 144.5 144.5 0 0 0-73.102 57.463 144.46 144.46 0 0 0-22.947 90.098l87.977.15-25.577-72.358 31.487-43.05 56.003 159.407z"/><defs><linearGradient id="paint0_linear_4193_3348" x1="368.443" x2="152.944" y1="101.228" y2="409.673" gradientUnits="userSpaceOnUse"><stop stop-color="#03D1CF" stop-opacity=".988"/><stop offset="1" stop-color="#4E09F8"/></linearGradient></defs></svg>