<svg xmlns="http://www.w3.org/2000/svg" fill="none" viewBox="0 0 256 256"><path fill="#000" d="M128.001 0a128 128 0 0 1 118.256 79.017A127.999 127.999 0 1 1 0 128 128.047 128.047 0 0 1 128.001 0"/><path fill="url(#paint0_linear_4193_3348)" d="m44.465 170.494-1.45-2.81h24.522l.625.855a72.23 72.23 0 0 0 37.176 27.956 72.21 72.21 0 0 0 83.068-29.262 72.2 72.2 0 0 0 11.428-45.079l-43.814-.075 12.783 36.185-15.669 21.525-28.114-79.71 92.469.181.394 1.406a85 85 0 0 1 2.499 10.712 93.68 93.68 0 0 1-16.001 69.895 93.7 93.7 0 0 1-60.743 38.117c-5.267.85-10.59 1.287-15.925 1.306a93.25 93.25 0 0 1-83.267-51.22l.025.012zm15.743-14.991H38.293l-.406-1.405a92 92 0 0 1-2.293-10.563 93.73 93.73 0 0 1 12.158-63.863 93.75 93.75 0 0 1 50.783-40.598 93.77 93.77 0 0 1 64.983 2.192 93.75 93.75 0 0 1 47.931 43.928l1.456 2.81H188.22l-.625-.849a72.265 72.265 0 0 0-83.673-27.395 72.25 72.25 0 0 0-36.55 28.732 72.23 72.23 0 0 0-11.474 45.049l43.988.075-12.788-36.18 15.743-21.524 28.002 79.704z"/><defs><linearGradient id="paint0_linear_4193_3348" x1="184.221" x2="76.472" y1="50.614" y2="204.836" gradientUnits="userSpaceOnUse"><stop stop-color="#03D1CF" stop-opacity=".988"/><stop offset="1" stop-color="#4E09F8"/></linearGradient></defs></svg>
