<svg xmlns="http://www.w3.org/2000/svg" fill="none" viewBox="0 0 256 256"><path fill="#000" d="M128 256c70.692 0 128-57.308 128-128S198.692 0 128 0 0 57.308 0 128s57.308 128 128 128"/><path fill="url(#paint0_radial_4232_4921)" fill-rule="evenodd" d="M79.465 100.332V63.13a1 1 0 0 0-.262.1l-31.28 17.954a.86.86 0 0 0-.423.74v91.751a.72.72 0 0 0 .37.631l31.14 17.87q.447.261.555-.247c.193-.95.078-2.096-.016-3.033a13 13 0 0 1-.084-1.149z" clip-rule="evenodd"/><path fill="url(#paint1_linear_4232_4921)" d="M79.726 100.066q.07 0 .132.035l9.62 5.525L79.465 63.13v37.194a.26.26 0 0 1 .26-.258"/><path fill="url(#paint2_linear_4232_4921)" fill-opacity=".5" d="M79.726 100.066q.07 0 .132.035l9.62 5.525L79.465 63.13v37.194a.26.26 0 0 1 .26-.258"/><path fill="#3C89E7" d="M142.424 99.262 80.027 63.23a.8.8 0 0 0-.562-.1l10.013 42.496 21.898 12.576a.64.64 0 0 0 .655 0l30.393-17.623q1.133-.662 0-1.317"/><path fill="url(#paint3_linear_4232_4921)" d="M142.424 99.262 80.027 63.23a.8.8 0 0 0-.562-.1l10.013 42.496 21.898 12.576a.64.64 0 0 0 .655 0l30.393-17.623q1.133-.662 0-1.317"/><path fill="url(#paint4_radial_4232_4921)" fill-rule="evenodd" d="m128.44 183.209-.008.004-32.21 18.597q.088.099.217.177l31.189 18.111a.86.86 0 0 0 .852-.003l79.458-45.875a.72.72 0 0 0 .363-.636l-.095-35.904q.003-.517-.491-.357c-.92.308-1.855.981-2.619 1.53-.363.261-.687.495-.953.648z" clip-rule="evenodd"/><path fill="url(#paint5_linear_4232_4921)" d="M128.079 183.116a.26.26 0 0 1-.036-.132l-.025-11.094-31.796 29.92 32.21-18.597a.265.265 0 0 1-.353-.097"/><path fill="url(#paint6_linear_4232_4921)" fill-opacity=".5" d="M128.079 183.116a.26.26 0 0 1-.036-.132l-.025-11.094-31.796 29.92 32.21-18.597a.265.265 0 0 1-.353-.097"/><path fill="#3C89E7" d="m96.033 129.219-.006 72.054a.8.8 0 0 0 .195.537l31.796-29.92-.058-25.252a.64.64 0 0 0-.328-.567l-30.459-17.51q-1.14-.65-1.14.658"/><path fill="url(#paint7_linear_4232_4921)" d="m96.033 129.219-.006 72.054a.8.8 0 0 0 .195.537l31.796-29.92-.058-25.252a.64.64 0 0 0-.328-.567l-30.459-17.51q-1.14-.65-1.14.658"/><path fill="url(#paint8_radial_4232_4921)" fill-rule="evenodd" d="m175.824 99.649.007.004 32.211 18.597a.9.9 0 0 0 .044-.277l.091-36.066a.86.86 0 0 0-.428-.737L128.29 35.296a.72.72 0 0 0-.732.004L96.512 53.333q-.45.256-.064.604c.727.643 1.777 1.116 2.635 1.503.407.184.772.348 1.038.501z" clip-rule="evenodd"/><path fill="url(#paint9_linear_4232_4921)" d="M175.924 100.008a.26.26 0 0 1-.096.096l-9.595 5.569 41.809 12.577-32.211-18.597a.26.26 0 0 1 .091.09q.035.061.037.133a.3.3 0 0 1-.035.132"/><path fill="url(#paint10_linear_4232_4921)" fill-opacity=".5" d="M175.924 100.008a.26.26 0 0 1-.096.096l-9.595 5.569 41.809 12.577-32.211-18.597a.26.26 0 0 1 .091.09q.035.061.037.133a.3.3 0 0 1-.035.132"/><path fill="#3C89E7" d="m145.271 154.708 62.403-36.021a.8.8 0 0 0 .368-.437l-41.809-12.577-21.84 12.677a.64.64 0 0 0-.328.567l.066 35.133q.008 1.312 1.14.658"/><path fill="url(#paint11_linear_4232_4921)" d="m145.271 154.708 62.403-36.021a.8.8 0 0 0 .368-.437l-41.809-12.577-21.84 12.677a.64.64 0 0 0-.328.567l.066 35.133q.008 1.312 1.14.658"/><defs><radialGradient id="paint0_radial_4232_4921" cx="0" cy="0" r="1" gradientTransform="matrix(268.04438 -64.69822 47.83607 198.1846 -165.082 170.8)" gradientUnits="userSpaceOnUse"><stop stop-color="#396FCF"/><stop offset=".808" stop-color="#396FCF"/><stop offset="1" stop-color="#50C9ED"/></radialGradient><linearGradient id="paint1_linear_4232_4921" x1="143.01" x2="84.857" y1="99.558" y2="87.234" gradientUnits="userSpaceOnUse"><stop stop-color="#65F6EE"/><stop offset="1" stop-color="#48AEE9"/></linearGradient><linearGradient id="paint2_linear_4232_4921" x1="75.999" x2="83.701" y1="84.924" y2="83.383" gradientUnits="userSpaceOnUse"><stop/><stop offset="1" stop-opacity="0"/></linearGradient><linearGradient id="paint3_linear_4232_4921" x1="143.01" x2="84.857" y1="99.558" y2="87.234" gradientUnits="userSpaceOnUse"><stop stop-color="#65F6EE"/><stop offset="1" stop-color="#48AEE9"/></linearGradient><radialGradient id="paint4_radial_4232_4921" cx="0" cy="0" r="1" gradientTransform="rotate(-133.57 233.026 113.024)scale(275.742 203.876)" gradientUnits="userSpaceOnUse"><stop stop-color="#396FCF"/><stop offset=".808" stop-color="#396FCF"/><stop offset="1" stop-color="#50C9ED"/></radialGradient><linearGradient id="paint5_linear_4232_4921" x1="95.997" x2="114.401" y1="128.564" y2="185.088" gradientUnits="userSpaceOnUse"><stop stop-color="#65F6EE"/><stop offset="1" stop-color="#48AEE9"/></linearGradient><linearGradient id="paint6_linear_4232_4921" x1="116.828" x2="111.643" y1="193.915" y2="188.014" gradientUnits="userSpaceOnUse"><stop/><stop offset="1" stop-opacity="0"/></linearGradient><linearGradient id="paint7_linear_4232_4921" x1="95.997" x2="114.401" y1="128.564" y2="185.088" gradientUnits="userSpaceOnUse"><stop stop-color="#65F6EE"/><stop offset="1" stop-color="#48AEE9"/></linearGradient><radialGradient id="paint8_radial_4232_4921" cx="0" cy="0" r="1" gradientTransform="matrix(-77.9919 264.48235 -195.55093 -57.66504 237.068 -147.375)" gradientUnits="userSpaceOnUse"><stop stop-color="#396FCF"/><stop offset=".808" stop-color="#396FCF"/><stop offset="1" stop-color="#50C9ED"/></radialGradient><linearGradient id="paint9_linear_4232_4921" x1="144.722" x2="184.471" y1="155.067" y2="110.867" gradientUnits="userSpaceOnUse"><stop stop-color="#65F6EE"/><stop offset="1" stop-color="#48AEE9"/></linearGradient><linearGradient id="paint10_linear_4232_4921" x1="190.901" x2="188.384" y1="104.351" y2="111.792" gradientUnits="userSpaceOnUse"><stop/><stop offset="1" stop-opacity="0"/></linearGradient><linearGradient id="paint11_linear_4232_4921" x1="144.722" x2="184.471" y1="155.067" y2="110.867" gradientUnits="userSpaceOnUse"><stop stop-color="#65F6EE"/><stop offset="1" stop-color="#48AEE9"/></linearGradient></defs></svg>