<svg xmlns="http://www.w3.org/2000/svg" fill="none" viewBox="0 0 512 512"><path fill="#000" d="M256 512c141.385 0 256-114.615 256-256S397.385 0 256 0 0 114.615 0 256s114.615 256 256 256"/><path fill="url(#paint0_radial_4232_4921)" fill-rule="evenodd" d="M158.93 200.664v-74.405a1.9 1.9 0 0 0-.524.2l-62.559 35.909a1.71 1.71 0 0 0-.847 1.479v183.502a1.45 1.45 0 0 0 .74 1.263l62.281 35.739q.894.524 1.109-.493c.387-1.901.157-4.193-.031-6.066-.089-.889-.169-1.684-.169-2.299z" clip-rule="evenodd"/><path fill="url(#paint1_linear_4232_4921)" d="M159.452 200.132a.5.5 0 0 1 .264.07l19.24 11.05-20.026-84.993v74.388a.52.52 0 0 1 .258-.443.5.5 0 0 1 .264-.072"/><path fill="url(#paint2_linear_4232_4921)" fill-opacity=".5" d="M159.452 200.132a.5.5 0 0 1 .264.07l19.24 11.05-20.026-84.993v74.388a.52.52 0 0 1 .258-.443.5.5 0 0 1 .264-.072"/><path fill="#3C89E7" d="m284.849 198.523-124.795-72.064q-.558-.316-1.124-.2l20.026 84.993 43.796 25.151c.201.117.429.178.659.178s.455-.061.65-.178l60.788-35.246q2.264-1.325 0-2.634"/><path fill="url(#paint3_linear_4232_4921)" d="m284.849 198.523-124.795-72.064q-.558-.316-1.124-.2l20.026 84.993 43.796 25.151c.201.117.429.178.659.178s.455-.061.65-.178l60.788-35.246q2.264-1.325 0-2.634"/><path fill="url(#paint4_radial_4232_4921)" fill-rule="evenodd" d="m256.879 366.417-.015.009-64.421 37.193q.177.2.435.354l62.377 36.223a1.7 1.7 0 0 0 1.704-.005l158.918-91.751a1.45 1.45 0 0 0 .724-1.272l-.19-71.807q.007-1.036-.981-.714c-1.84.616-3.709 1.96-5.238 3.06-.725.522-1.374.988-1.906 1.295z" clip-rule="evenodd"/><path fill="url(#paint5_linear_4232_4921)" d="M256.158 366.231a.5.5 0 0 1-.072-.263l-.051-22.188-63.592 59.839 64.421-37.193a.5.5 0 0 1-.247.066.51.51 0 0 1-.459-.261"/><path fill="url(#paint6_linear_4232_4921)" fill-opacity=".5" d="M256.158 366.231a.5.5 0 0 1-.072-.263l-.051-22.188-63.592 59.839 64.421-37.193a.5.5 0 0 1-.247.066.51.51 0 0 1-.459-.261"/><path fill="#3C89E7" d="m192.066 258.439-.012 144.107q.005.641.389 1.073l63.592-59.839-.116-50.504c0-.233-.06-.46-.175-.66a1.3 1.3 0 0 0-.479-.474l-60.918-35.02q-2.28-1.299-2.281 1.317"/><path fill="url(#paint7_linear_4232_4921)" d="m192.066 258.439-.012 144.107q.005.641.389 1.073l63.592-59.839-.116-50.504c0-.233-.06-.46-.175-.66a1.3 1.3 0 0 0-.479-.474l-60.918-35.02q-2.28-1.299-2.281 1.317"/><path fill="url(#paint8_radial_4232_4921)" fill-rule="evenodd" d="m351.648 199.297.015.009 64.421 37.194q.084-.254.089-.554l.182-72.132a1.72 1.72 0 0 0-.857-1.473L256.58 70.591a1.45 1.45 0 0 0-1.464.008l-62.091 36.068q-.901.511-.128 1.207c1.453 1.285 3.553 2.232 5.269 3.006.815.367 1.543.695 2.075 1.003z" clip-rule="evenodd"/><path fill="url(#paint9_linear_4232_4921)" d="M351.848 200.015a.53.53 0 0 1-.193.194l-19.189 11.138 83.618 25.153-64.421-37.194a.526.526 0 0 1 .185.709"/><path fill="url(#paint10_linear_4232_4921)" fill-opacity=".5" d="M351.848 200.015a.53.53 0 0 1-.193.194l-19.189 11.138 83.618 25.153-64.421-37.194a.526.526 0 0 1 .185.709"/><path fill="#3C89E7" d="m290.543 309.417 124.806-72.043q.553-.326.735-.874l-83.618-25.153-43.68 25.352a1.3 1.3 0 0 0-.484.482 1.27 1.27 0 0 0-.171.652l.13 70.267q.015 2.624 2.282 1.317"/><path fill="url(#paint11_linear_4232_4921)" d="m290.543 309.417 124.806-72.043q.553-.326.735-.874l-83.618-25.153-43.68 25.352a1.3 1.3 0 0 0-.484.482 1.27 1.27 0 0 0-.171.652l.13 70.267q.015 2.624 2.282 1.317"/><defs><radialGradient id="paint0_radial_4232_4921" cx="0" cy="0" r="1" gradientTransform="rotate(-13.57 1270.481 1558.31)scale(551.483 407.753)" gradientUnits="userSpaceOnUse"><stop stop-color="#396FCF"/><stop offset=".808" stop-color="#396FCF"/><stop offset="1" stop-color="#50C9ED"/></radialGradient><linearGradient id="paint1_linear_4232_4921" x1="286.02" x2="169.713" y1="199.116" y2="174.468" gradientUnits="userSpaceOnUse"><stop stop-color="#65F6EE"/><stop offset="1" stop-color="#48AEE9"/></linearGradient><linearGradient id="paint2_linear_4232_4921" x1="151.998" x2="167.403" y1="169.847" y2="166.766" gradientUnits="userSpaceOnUse"><stop/><stop offset="1" stop-opacity="0"/></linearGradient><linearGradient id="paint3_linear_4232_4921" x1="286.02" x2="169.713" y1="199.116" y2="174.468" gradientUnits="userSpaceOnUse"><stop stop-color="#65F6EE"/><stop offset="1" stop-color="#48AEE9"/></linearGradient><radialGradient id="paint4_radial_4232_4921" cx="0" cy="0" r="1" gradientTransform="matrix(-380.1043 -399.56755 295.43044 -281.03979 623.494 719.519)" gradientUnits="userSpaceOnUse"><stop stop-color="#396FCF"/><stop offset=".808" stop-color="#396FCF"/><stop offset="1" stop-color="#50C9ED"/></radialGradient><linearGradient id="paint5_linear_4232_4921" x1="191.994" x2="228.801" y1="257.128" y2="370.176" gradientUnits="userSpaceOnUse"><stop stop-color="#65F6EE"/><stop offset="1" stop-color="#48AEE9"/></linearGradient><linearGradient id="paint6_linear_4232_4921" x1="233.657" x2="223.286" y1="387.829" y2="376.029" gradientUnits="userSpaceOnUse"><stop/><stop offset="1" stop-opacity="0"/></linearGradient><linearGradient id="paint7_linear_4232_4921" x1="191.994" x2="228.801" y1="257.128" y2="370.176" gradientUnits="userSpaceOnUse"><stop stop-color="#65F6EE"/><stop offset="1" stop-color="#48AEE9"/></linearGradient><radialGradient id="paint8_radial_4232_4921" cx="0" cy="0" r="1" gradientTransform="rotate(106.43 347.259 29.877)scale(551.483 407.753)" gradientUnits="userSpaceOnUse"><stop stop-color="#396FCF"/><stop offset=".808" stop-color="#396FCF"/><stop offset="1" stop-color="#50C9ED"/></radialGradient><linearGradient id="paint9_linear_4232_4921" x1="289.444" x2="368.942" y1="310.134" y2="221.734" gradientUnits="userSpaceOnUse"><stop stop-color="#65F6EE"/><stop offset="1" stop-color="#48AEE9"/></linearGradient><linearGradient id="paint10_linear_4232_4921" x1="381.802" x2="376.768" y1="208.703" y2="223.584" gradientUnits="userSpaceOnUse"><stop/><stop offset="1" stop-opacity="0"/></linearGradient><linearGradient id="paint11_linear_4232_4921" x1="289.444" x2="368.942" y1="310.134" y2="221.734" gradientUnits="userSpaceOnUse"><stop stop-color="#65F6EE"/><stop offset="1" stop-color="#48AEE9"/></linearGradient></defs></svg>