<svg xmlns="http://www.w3.org/2000/svg" fill="none" viewBox="0 0 512 512"><path fill="#000" d="M256 512c141.385 0 256-114.615 256-256S397.385 0 256 0 0 114.615 0 256s114.615 256 256 256"/><path fill="#78C8C0" d="M415.633 220.618c-1.218-.084-1.582.703-2.268 1.515q-39.659 47.164-56.717 67.062c-.758.883-1.063 1.093-.967 2.365q4.381 59.14 8.728 118.287c.046.665-.167 1.029-.716 1.435-17.652 13.098-37.253 21.81-58.353 27.861-36.187 10.382-73.349 8.78-108.745-3.486-4.314-1.493-8.694-2.661-13.004-4.042a.688.688 0 0 1-.373-1.007.7.7 0 0 1 .302-.269c9.498-4.323 19.43-9.077 29.116-11.83 1.255-.36 2.992-.36 4.456-.067q42.914 8.6 85.244-1.946a43.6 43.6 0 0 0 6.037-2.009q10.138-4.188 20.263-8.423c4.326-1.808 7.816-3.725 11.539-6.131q.636-.41 1.101-1.146a.66.66 0 0 0 .072-.544.65.65 0 0 0-.369-.402 8870 8870 0 0 0-87.75-35.599c-.439-.175-1.004-.142-1.481.059a164080 164080 0 0 0-108.883 46.127.83.83 0 0 1-.829-.105c-52.232-39.436-80.708-101.355-75.407-166.732a.477.477 0 0 1 .587-.419.47.47 0 0 1 .229.139l22.932 25.107q.15.163.188.381.473 2.644.866 5.265 3.9 25.953 14.092 49.717.117.276.456.31.213.016.272.226c.372 1.335.72 2.628 1.318 3.9q12.799 27.242 33.961 48.558c2.828 2.846 5.251 4.582 8.694 6.122a.175.175 0 0 0 .223-.067.16.16 0 0 0 .024-.079 380642 380642 0 0 0 5.376-92.572c.042-.733-.167-1.222-.673-1.804q-4.779-5.52-6.259-7.168a540344 540344 0 0 1-72.634-80.822c-.761-.85-.929-1.607-.527-2.741 21.213-60.05 68.684-105.281 130.414-121.852a.31.31 0 0 1 .381.218q.108.392-.155.857a8434 8434 0 0 0-14.431 25.346c-.18.314-.611.783-.979.975q-16.363 8.412-30.706 18.81-33.048 23.954-52.559 60.087c-2.181 4.712-3.702 8.922-4.999 12.998a2.6 2.6 0 0 0-.105 1.067.58.58 0 0 0 .484.515q.127.02.252-.013c30.28-8.478 60.492-16.906 90.675-25.208.406-.113.916-.511 1.171-.929q30.477-50.173 60.956-100.347.364-.6.628-.988a.4.4 0 0 1 .347-.18q32.823.267 63.174 11.504 62.457 23.12 98.08 79.256.552.871.82 1.553a.44.44 0 0 1 .023.23.44.44 0 0 1-.29.339.44.44 0 0 1-.231.013 55832 55832 0 0 0-34.727-7.612c-1.163-.251-1.845-.415-2.69-1.327-29.409-31.782-68.688-54.153-112.264-58.3-1.464-.138-1.82 1.201-1.138 2.28q24.5 38.838 49.024 77.659c.242.389.815.887 1.158.971q58.785 14.34 117.574 28.66.48.118.878.394a.56.56 0 0 1 .23.322q2.934 11.076 3.816 14.931 7.276 31.757 2.615 63.51-1.046 7.105-3.171 17.023-9.348 43.637-38.145 77.583a.47.47 0 0 1-.369.171h-.761a.34.34 0 0 0-.318.193l-2.339 4.503a.43.43 0 0 1-.326.228.43.43 0 0 1-.373-.141q-.154-.176-.184-.498a6544 6544 0 0 1-2.832-32.15c-.025-.31.104-.523.075-.854a.74.74 0 0 1 .075-.393 4038 4038 0 0 1 9.427-18.852q2.084-4.134 3.422-7.633a206.7 206.7 0 0 0 12.51-51.525 70 70 0 0 0 .419-6.909q.192-16.923-2.414-33.268-.62-3.882-1.904-7.975a.35.35 0 0 0-.339-.268M181.52 354.43c-.075 1.083-.59 4.645 1.904 3.577a37807 37807 0 0 0 69.529-29.748c.648-.276 1.564-.46 2.142-.218q36.852 15.504 73.717 30.983c1.966.825 2.749.042 2.602-2.004a80272 80272 0 0 1-5.485-77.629q-.08-1.134.925-2.318 24.15-28.381 48.287-56.777c.644-.758 1.912-2.712 1.682-3.708a.6.6 0 0 0-.205-.331 3.1 3.1 0 0 0-1.209-.602 46605 46605 0 0 0-49.869-12.55c-7.824-1.963-15.598-3.092-23.464-5.519-2.138-.657-3.531-1.273-4.794-3.235q-15.264-23.664-41.878-65.586c-.435-.682-1.184-.439-1.56.168a56662 56662 0 0 0-39.605 64.376q-.549.895-1.168 1.054a7030 7030 0 0 0-61.726 16.015c-5.807 1.536-11.489 2.825-17.258 4.134-1.774.406-.368 2.34.242 3.022q30.22 33.916 51.618 57.496.933 1.026.874 1.85z"/></svg>