<svg xmlns="http://www.w3.org/2000/svg" fill="none" viewBox="0 0 256 256"><path fill="#000" d="M128 256c70.692 0 128-57.308 128-128S198.692 0 128 0 0 57.308 0 128s57.308 128 128 128"/><path fill="#78C8C0" d="M207.816 110.309c-.608-.042-.79.351-1.133.757q-19.83 23.583-28.359 33.532c-.379.441-.532.546-.483 1.182q2.19 29.57 4.363 59.143c.023.333-.083.515-.357.718-8.826 6.549-18.627 10.905-29.177 13.931-18.094 5.191-36.674 4.389-54.373-1.743-2.156-.747-4.347-1.331-6.501-2.021a.346.346 0 0 1-.187-.504.35.35 0 0 1 .151-.135c4.749-2.161 9.715-4.538 14.558-5.915.628-.18 1.496-.18 2.228-.033q21.457 4.3 42.622-.973a22 22 0 0 0 3.019-1.004q5.069-2.095 10.131-4.212c2.163-.904 3.908-1.862 5.77-3.065q.318-.205.55-.574a.33.33 0 0 0 .036-.271.32.32 0 0 0-.185-.202 4447 4447 0 0 0-43.875-17.799c-.219-.088-.502-.071-.74.029a84547 84547 0 0 0-54.442 23.064.41.41 0 0 1-.414-.052c-26.116-19.718-40.354-50.678-37.704-83.366a.238.238 0 0 1 .294-.21.24.24 0 0 1 .114.069l11.466 12.554a.37.37 0 0 1 .095.191q.236 1.322.433 2.632 1.95 12.976 7.045 24.859.06.138.228.154a.14.14 0 0 1 .137.113c.186.668.36 1.314.658 1.95a86.3 86.3 0 0 0 16.981 24.28c1.414 1.422 2.625 2.291 4.347 3.061a.1.1 0 0 0 .042.007.1.1 0 0 0 .04-.012.08.08 0 0 0 .041-.069q1.345-23.12 2.689-46.286c.02-.366-.084-.611-.337-.901a343 343 0 0 0-3.13-3.585 262665 262665 0 0 1-36.316-40.41c-.381-.425-.465-.804-.264-1.371 10.606-30.025 34.342-52.64 65.207-60.926a.16.16 0 0 1 .118.015.15.15 0 0 1 .072.094q.055.196-.077.429-3.62 6.33-7.215 12.673c-.09.157-.306.391-.49.487Q87.311 54.8 80.14 60 63.615 71.975 53.86 90.043c-1.09 2.356-1.85 4.46-2.5 6.498a1.3 1.3 0 0 0-.052.534.29.29 0 0 0 .243.257.3.3 0 0 0 .126-.006c15.14-4.239 30.245-8.453 45.337-12.604.203-.056.458-.255.586-.465l30.478-50.173q.182-.3.313-.494a.2.2 0 0 1 .174-.09q16.412.135 31.587 5.752 31.229 11.56 49.04 39.628.276.436.41.776a.2.2 0 0 1 .011.115.2.2 0 0 1-.049.105.22.22 0 0 1-.211.071q-8.703-1.91-17.363-3.806c-.582-.125-.923-.207-1.346-.663-14.704-15.891-34.343-27.076-56.131-29.15-.733-.07-.91.6-.569 1.14a79370 79370 0 0 0 24.511 38.83c.122.194.408.443.58.485q29.392 7.17 58.786 14.33.241.059.44.197a.28.28 0 0 1 .115.161q1.465 5.538 1.908 7.465 3.638 15.879 1.307 31.755-.523 3.553-1.586 8.512-4.673 21.819-19.072 38.791a.23.23 0 0 1-.184.086h-.381a.17.17 0 0 0-.159.096l-1.169 2.252a.2.2 0 0 1-.068.077.22.22 0 0 1-.282-.033.43.43 0 0 1-.092-.249q-.727-8.037-1.416-16.076c-.013-.154.052-.261.038-.426a.37.37 0 0 1 .037-.197 2178 2178 0 0 1 4.713-9.426 42 42 0 0 0 1.712-3.816 103.5 103.5 0 0 0 6.255-25.763q.19-1.722.209-3.454a98.3 98.3 0 0 0-1.207-16.634 28 28 0 0 0-.952-3.988q-.04-.126-.17-.134M90.76 177.215c-.038.542-.295 2.322.952 1.789q17.388-7.42 34.764-14.875c.325-.138.783-.23 1.071-.108a56331 56331 0 0 0 36.859 15.491c.983.412 1.374.021 1.301-1.002q-1.38-19.407-2.742-38.815-.04-.567.462-1.159 12.075-14.19 24.143-28.388c.323-.379.956-1.356.841-1.854a.3.3 0 0 0-.102-.165 1.54 1.54 0 0 0-.605-.302q-12.466-3.145-24.934-6.274c-3.912-.982-7.799-1.547-11.732-2.76-1.069-.329-1.765-.636-2.397-1.618q-7.631-11.832-20.939-32.792c-.217-.341-.592-.22-.78.083a29161 29161 0 0 0-19.803 32.188q-.274.449-.583.528a3504 3504 0 0 0-30.863 8.007c-2.904.768-5.745 1.412-8.63 2.067-.887.203-.184 1.17.122 1.511q15.11 16.958 25.808 28.748.466.513.438.925-1.327 19.387-2.65 38.775"/></svg>