<svg xmlns="http://www.w3.org/2000/svg" fill="none" viewBox="0 0 256 256"><path fill="#F58B00" d="M128 256c70.692 0 128-57.308 128-128S198.692 0 128 0 0 57.308 0 128s57.308 128 128 128"/><path fill="#fff" d="M134.4 151.962v8.96c0 1.228.717 2.457 1.843 2.969l25.344 12.595c1.075.512 1.69 1.588 1.69 2.714v3.174c0 1.127-.615 2.202-1.69 2.714l-31.129 15.462a5.43 5.43 0 0 1-5.018 0l-31.13-15.462c-1.075-.512-1.69-1.587-1.69-2.714V179.2c0-1.126.615-2.202 1.69-2.714l25.344-12.595c1.127-.512 1.844-1.741 1.844-2.969v-8.96c0-1.127-.871-2.202-2.048-2.304-3.687-.461-6.708-1.076-8.96-1.844-4.66-1.484-8.244-5.376-9.524-10.188L82.483 67.942l-.46-1.587c0-6.451 20.582-11.622 45.926-11.622s45.926 5.171 45.926 11.622l-.461 1.587-18.483 69.684c-1.229 4.761-4.813 8.601-9.523 10.188-2.304.82-5.274 1.434-8.96 1.844-1.126.102-2.048 1.177-2.048 2.304"/></svg>