<svg xmlns="http://www.w3.org/2000/svg" fill="none" viewBox="0 0 257 256"><path fill="#F0FF9B" d="M128.051 256c70.693 0 128-57.308 128-128s-57.307-128-128-128c-70.692 0-128 57.308-128 128s57.308 128 128 128"/><path fill="url(#paint0_radial_9528_693)" d="M128.051 256c70.693 0 128-57.308 128-128s-57.307-128-128-128c-70.692 0-128 57.308-128 128s57.308 128 128 128"/><path fill="url(#paint1_radial_9528_693)" d="M128.051 256c70.693 0 128-57.308 128-128s-57.307-128-128-128c-70.692 0-128 57.308-128 128s57.308 128 128 128"/><path fill="#232832" d="M127.976 27.876c-55.263 0-100.062 44.8-100.062 100.062S72.714 228 127.976 228a100.06 100.06 0 0 0 84.003-45.854h.105v-64.665H182.63v55a70.88 70.88 0 0 1-54.654 26.35c-39.154 0-70.894-31.74-70.894-70.893s31.74-70.893 70.894-70.893a70.89 70.89 0 0 1 58.897 31.879l24.409-16.245a100.05 100.05 0 0 0-83.306-44.803m38.903 89.574c-7.217 10.855-16.676 20.625-26.351 30.286h42.105v-30.255z"/><path fill="#232832" d="M58.476 140.626c18.186-31.911 48.989-57.878 78.689-66.855-54.768 51.586-66.577 95.79-59.198 104.204l-14.073 10.292-21.068-45.243z"/><path fill="url(#paint2_linear_9528_693)" d="m63.894 188.267 14.073-10.292c6.333 5.374 30.362-4.573 44.236-15.267l31.113 12.949c-8.75 7.299-18.513 15.073-32.674 22.392l-11.496 11.888z"/><defs><radialGradient id="paint0_radial_9528_693" cx="0" cy="0" r="1" gradientTransform="matrix(164.07784 -90.75152 82.4814 149.12555 62.307 237.823)" gradientUnits="userSpaceOnUse"><stop stop-color="#91F5F5"/><stop offset="1" stop-color="#91F5F5" stop-opacity="0"/></radialGradient><radialGradient id="paint1_radial_9528_693" cx="0" cy="0" r="1" gradientTransform="rotate(37.379 -11.475 89.132)scale(183.196 372.587)" gradientUnits="userSpaceOnUse"><stop stop-color="#FFB4FF"/><stop offset="1" stop-color="#FFB4FF" stop-opacity="0"/></radialGradient><linearGradient id="paint2_linear_9528_693" x1="107.898" x2="109.166" y1="183.635" y2="180.902" gradientUnits="userSpaceOnUse"><stop stop-color="#232832"/><stop offset="1" stop-color="#232832" stop-opacity="0"/></linearGradient></defs></svg>