<svg xmlns="http://www.w3.org/2000/svg" fill="none" viewBox="0 0 256 256"><path fill="#000" d="M135.4 187.937s-20.216 7.284-42.065 14.023c-20.42 6.331-48.462 14.977-55.201 17.019a130.6 130.6 0 0 0 21.032 16.747c3.948-1.77 7.011-3.404 11.163-5.31 13.07-6.127 48.735-24.983 65.071-42.479m-27.833 61.948c-1.565.613-6.466 1.906-9.528 2.655 17.628 4.221 36.279 4.629 54.724.953 26.75-14.091 42.814-38.054 42.746-38.19 0 0-51.594 25.392-87.942 34.582m55.602-47.72c-17.628 7.352-52.954 20.15-66.092 24.507-15.79 5.241-30.016 9.735-34.713 11.164 8.985 5.378 18.65 9.531 28.724 12.594 2.518-.885 6.874-2.587 12.252-5.242 27.77-13.683 49.075-30.634 59.829-43.023m-47.987-31.655c-20.555 4.97-44.242 10.484-71.469 19.265a516 516 0 0 0-23.074 8.033c4.288 6.672 9.12 12.867 14.498 18.448 5.173-2.11 10.55-4.288 15.587-6.671 27.499-12.934 50.165-27.57 64.458-39.075m-14.758-20.218s-65.14 14.364-91.821 23.895a126 126 0 0 0 10.142 20.626c7.283-2.859 14.021-5.855 21.304-9.122 18.787-8.51 47.306-25.188 60.375-35.399m-9.808-46.154c-18.31.612-45.06 4.288-74.328 12.389-5.377 1.498-10.822 3.267-16.132 5.105-.408 7.761 0 15.59 1.021 23.486a508 508 0 0 0 22.735-8.985c26.341-11.097 47.918-22.329 66.772-31.995zm3.883-26.414c-23.823-2.654-63.097 6.331-77.05 10.212-4.425 1.225-7.828 1.973-11.912 3.2A127.6 127.6 0 0 0 .5 117.547c6.466-2.791 33.352-14.5 52.955-23.077C74.42 85.349 94.5 77.656 94.5 77.656zm-70.786 63.855c-7.623 2.246-14.702 4.356-22.121 6.943a124.6 124.6 0 0 0 5.785 22.26c26.478-10.074 85.219-41.729 85.219-41.729-16.54.749-49.076 6.739-68.883 12.526m98.618-123.76s-27.84-7.897-57.312-1.09c-16.472 9.259-30.29 21.716-40.907 36.42 2.79-1.43 7.419-3.676 8.984-4.22 33.557-16.679 89.235-31.11 89.235-31.11m-15.998 30.974C90.066 46.41 62.907 47.43 32.89 55.192c-5.786 1.497-10.21 3.063-12.728 4.016-5.65 8.85-10.21 18.312-13.545 28.25C11.109 85.486 24.79 79.632 40.24 73.3c12.865-5.242 47.919-18.585 66.092-24.507"/><path fill="#FFD600" d="M247.918 83.51C223.346 17.274 149.699-16.56 83.471 8.016c-6.466 2.382-12.593 5.378-18.378 8.713 29.472-6.74 57.243.953 57.311 1.09 0 0-55.678 14.431-89.234 31.11-1.566.544-6.126 2.79-8.985 4.22-1.43 1.974-2.654 4.017-3.948 6.059 2.519-.953 6.943-2.519 12.729-4.016 29.949-7.693 57.175-8.782 73.443-6.4C88.235 54.716 53.113 67.99 40.317 73.3 24.866 79.63 11.185 85.553 6.692 87.459c-.408 1.225-.749 2.45-1.089 3.676 4.152-1.226 7.487-1.974 11.912-3.2 13.953-3.812 53.227-12.866 77.05-10.21 0 0-20.08 7.692-41.043 16.814-19.603 8.509-46.49 20.218-52.956 23.077-.136 1.362-.34 2.723-.408 4.084 5.309-1.769 10.754-3.607 16.131-5.105 29.269-8.101 56.019-11.777 74.328-12.389-18.854 9.598-40.363 20.83-66.772 31.995a508 508 0 0 1-22.734 8.985c.136 1.157.272 2.315.476 3.472 7.42-2.587 14.498-4.697 22.122-6.943 19.807-5.786 52.275-11.709 68.882-12.526 0 0-58.74 31.587-85.218 41.729.204.613.34 1.158.544 1.771s.477 1.089.75 1.702c26.613-9.599 91.82-23.895 91.82-23.895-13.069 10.212-41.588 26.889-60.374 35.399-7.215 3.267-13.954 6.263-21.305 9.122a44 44 0 0 0 1.906 2.928c7.419-2.792 15.655-5.583 23.074-8.034 27.227-8.781 50.913-14.295 71.469-19.265-14.294 11.505-37.027 26.141-64.458 39.075-5.037 2.383-10.346 4.561-15.587 6.672.953 1.021 1.974 1.906 2.927 2.859 6.738-2.042 34.714-10.688 55.201-17.019 21.849-6.74 42.065-14.023 42.065-14.023-16.336 17.495-52.002 36.352-65.071 42.478-4.152 1.974-7.215 3.608-11.163 5.31 1.09.681 2.11 1.43 3.2 2.11 4.696-1.429 18.922-5.922 34.713-11.164 13.205-4.357 48.463-17.155 66.092-24.507-10.755 12.39-32.059 29.34-59.83 43.023-5.377 2.656-9.734 4.357-12.252 5.242 2.314.681 4.628 1.43 7.01 2.042 3.064-.749 8.033-2.042 9.53-2.654 36.347-9.259 87.941-34.583 87.941-34.583 0 .137-15.995 24.167-42.745 38.191 6.602-1.294 13.137-2.996 19.603-5.378 66.296-24.575 100.125-98.232 75.553-164.537z"/></svg>
