<svg xmlns="http://www.w3.org/2000/svg" fill="none" viewBox="0 0 512 512"><path fill="#000" d="M256 512c141.385 0 256-114.615 256-256S397.385 0 256 0 0 114.615 0 256s114.615 256 256 256Z"/><path fill="url(#paint0_linear_4193_3372)" d="M256 512c141.385 0 256-114.615 256-256S397.385 0 256 0 0 114.615 0 256s114.615 256 256 256Z"/><path fill="#fff" d="M429.825 195.761 354.346 85.99c-11.84-17.06-38.479-8.16-37.739 12.608.74 19.285 8.14 39.31 25.16 64.528-7.4-5.192-111.739-84.553-236.797-42.277-13.32 5.192-20.72 16.318-17.02 29.668 2.96 11.867 15.54 19.284 28.12 17.801 26.64-4.45 52.539-6.675 78.439-4.45 25.899 2.225 51.059 8.9 74.739 20.026 23.679 11.125 44.399 28.184 64.379 46.727 22.199 21.509 49.579 66.752 49.579 66.752a14.067 14.067 0 0 0 7.12 5.779 14.03 14.03 0 0 0 9.16.155c7.4-2.967 11.099-11.126 8.139-18.543a287.372 287.372 0 0 0-21.459-44.501c9.62 3.708 17.76 8.158 28.119 5.192 8.14-1.484 15.54-7.417 18.5-14.834a35.675 35.675 0 0 0-2.96-34.86ZM82.438 315.317l75.571 110.884c11.855 17.116 37.786 7.442 37.045-13.396a121.62 121.62 0 0 0-24.449-64c6.668 5.209 111.874 84.093 236.345 41.675 14.077-5.21 20.745-16.372 17.04-29.768-2.963-11.907-15.559-19.349-28.154-17.116-25.931 4.465-52.603 5.953-78.535 3.721-25.931-2.233-51.121-8.931-74.089-20.093-22.968-11.163-45.194-28.279-64.458-46.884-22.226-21.582-49.639-66.233-49.639-66.233a14.094 14.094 0 0 0-7.761-6.381 14.017 14.017 0 0 0-10.021.428c-6.668 2.976-9.632 11.162-7.409 18.604a288.473 288.473 0 0 0 21.486 43.907c-9.632-3.721-17.781-7.442-28.154-5.209-8.15 1.488-15.559 7.442-18.522 15.628a35.863 35.863 0 0 0 3.704 34.233Z"/><defs><linearGradient id="paint0_linear_4193_3372" x1="-105.5" x2="303.206" y1="567" y2="-220.847" gradientUnits="userSpaceOnUse"><stop offset=".15" stop-color="#B32EFF"/><stop offset=".42" stop-color="#CE60D3"/><stop offset=".65" stop-color="#E185B3"/><stop offset=".84" stop-color="#EE9C9F"/><stop offset=".96" stop-color="#F2A498"/></linearGradient></defs></svg>