<svg xmlns="http://www.w3.org/2000/svg" fill="none" viewBox="0 0 256 256"><path fill="#000" d="M128 256c70.692 0 128-57.308 128-128S198.692 0 128 0 0 57.308 0 128s57.308 128 128 128"/><path fill="url(#paint0_linear_4193_3372)" d="M128 256c70.692 0 128-57.308 128-128S198.692 0 128 0 0 57.308 0 128s57.308 128 128 128"/><path fill="#fff" d="m214.913 97.88-37.74-54.885c-5.92-8.53-19.24-4.08-18.87 6.304.37 9.642 4.07 19.655 12.58 32.264-3.7-2.596-55.869-42.277-118.398-21.138-6.66 2.596-10.36 8.158-8.51 14.834 1.48 5.933 7.77 9.642 14.06 8.9 13.32-2.225 26.27-3.338 39.22-2.225s25.529 4.45 37.369 10.013 22.199 14.092 32.189 23.363c11.1 10.755 24.79 33.377 24.79 33.377a7.04 7.04 0 0 0 3.56 2.889 7 7 0 0 0 4.58.077c3.7-1.483 5.55-5.562 4.07-9.271a144 144 0 0 0-10.73-22.251c4.81 1.855 8.88 4.08 14.06 2.596 4.07-.741 7.77-3.708 9.25-7.417a17.84 17.84 0 0 0-1.48-17.43M41.22 157.658 79.004 213.1c5.927 8.559 18.893 3.721 18.522-6.697a60.8 60.8 0 0 0-12.225-32c3.334 2.604 55.938 42.046 118.173 20.837 7.038-2.605 10.372-8.186 8.52-14.884-1.482-5.953-7.779-9.674-14.077-8.558-12.966 2.232-26.302 2.977-39.267 1.86s-25.561-4.465-37.045-10.046c-11.484-5.582-22.597-14.14-32.229-23.442-11.113-10.791-24.82-33.116-24.82-33.116a7.04 7.04 0 0 0-3.88-3.191 7 7 0 0 0-5.01.214c-3.334 1.488-4.816 5.581-3.705 9.302a144 144 0 0 0 10.743 21.954c-4.816-1.861-8.89-3.721-14.077-2.605-4.075.744-7.78 3.721-9.261 7.814a17.93 17.93 0 0 0 1.852 17.116"/><defs><linearGradient id="paint0_linear_4193_3372" x1="-52.75" x2="151.603" y1="283.5" y2="-110.424" gradientUnits="userSpaceOnUse"><stop offset=".15" stop-color="#B32EFF"/><stop offset=".42" stop-color="#CE60D3"/><stop offset=".65" stop-color="#E185B3"/><stop offset=".84" stop-color="#EE9C9F"/><stop offset=".96" stop-color="#F2A498"/></linearGradient></defs></svg>
