<svg xmlns="http://www.w3.org/2000/svg" fill="none" viewBox="0 0 256 256"><path fill="#000" d="M128 256c70.692 0 128-57.308 128-128S198.692 0 128 0 0 57.308 0 128s57.308 128 128 128"/><path fill="#97FCE4" d="M222.993 126.821c.174 15.546-3.091 30.4-9.503 44.593-9.157 20.209-31.11 36.734-51.157 19.144-16.349-14.337-19.383-43.442-43.877-47.702-32.41-3.915-33.19 33.538-54.364 37.77-23.6 4.779-31.428-34.776-31.081-52.74s5.142-43.211 25.65-43.211c23.6 0 25.19 35.611 55.144 33.682 29.666-2.015 30.185-39.066 49.568-54.928 16.725-13.703 36.396-3.656 46.246 12.84 9.128 15.257 13.143 33.164 13.345 50.552z"/></svg>
