<svg xmlns="http://www.w3.org/2000/svg" fill="none" viewBox="0 0 256 256"><path fill="#000" d="M128 256c70.692 0 128-57.308 128-128S198.692 0 128 0 0 57.308 0 128s57.308 128 128 128"/><path fill="#FDFFFF" fill-rule="evenodd" d="M40.807 111.616C32.453 173.917 90.35 223.301 150.62 207.54c22.741-5.944 42.996-21.839 54.206-42.509q12.903-23.79 10.209-51.076c-1.739-17.616-10.564-32.704-24.918-42.755-10.876-7.611-24.13-12.052-36.394-14.095q-23.07-3.847-47.355-.664c-31.423 4.123-60.932 20.657-65.561 55.175m106.604 48.547a303 303 0 0 0 18.508-28.245q.108-.191.275-.045c12.145 10.642 31.43 4.33 33.212-12.136 1.47-13.571-11.318-24.388-24.478-20.985q-7.681 1.99-11.899 8.708c-.565.902-1.074 2.034-1.555 3.106-.354.787-.693 1.542-1.029 2.148a420 420 0 0 1-20.136 32.784c-4.438 6.531-8.191 11.444-13.264 16.137q-.16.146-.317 0a54 54 0 0 1-6.593-7.338c-9.323-12.523-17.213-26.294-24.503-40.068-.477-.901-.888-1.911-1.278-2.874-.348-.857-.68-1.675-1.03-2.343-9.32-17.769-35.931-12.473-37.3 7.501-.702 10.234 6.918 19.158 17.034 20.51q8.713 1.165 15.886-4.789a.2.2 0 0 1 .07-.035.2.2 0 0 1 .077-.003q.039.007.072.03.033.024.052.058a291 291 0 0 0 17.644 28.082c3.352 4.718 7.143 9.565 11.773 13.005 12.099 8.991 22.458-4.647 28.779-13.208" clip-rule="evenodd"/></svg>