<svg xmlns="http://www.w3.org/2000/svg" fill="none" viewBox="0 0 512 512"><path fill="#000" d="M256 512c141.385 0 256-114.615 256-256S397.385 0 256 0 0 114.615 0 256s114.615 256 256 256"/><path fill="#FDFFFF" fill-rule="evenodd" d="M81.613 223.231C64.907 347.833 180.7 446.603 301.24 415.08c45.481-11.888 85.992-43.678 108.411-85.017q25.806-47.58 20.418-102.153c-3.478-35.232-21.127-65.409-49.835-85.51-21.753-15.223-48.259-24.104-72.789-28.189q-46.14-7.695-94.708-1.329c-62.847 8.247-121.865 41.314-131.124 110.349m213.208 97.094a605 605 0 0 0 37.016-56.488q.218-.383.551-.092c24.291 21.284 62.859 8.662 66.425-24.271 2.939-27.142-22.637-48.775-48.956-41.969q-15.365 3.977-23.798 17.415c-1.131 1.803-2.148 4.068-3.111 6.211-.708 1.576-1.386 3.085-2.058 4.298a841 841 0 0 1-40.272 65.566c-8.876 13.063-16.383 22.89-26.528 32.276q-.317.291-.635 0a107.6 107.6 0 0 1-13.184-14.678c-18.646-25.045-34.428-52.586-49.007-80.136-.954-1.8-1.775-3.822-2.557-5.747-.696-1.713-1.361-3.35-2.061-4.687-18.637-35.537-71.86-24.945-74.599 15.002-1.403 20.469 13.836 38.317 34.068 41.021q17.427 2.33 31.772-9.577a.35.35 0 0 1 .295-.077.36.36 0 0 1 .248.177 582 582 0 0 0 35.287 56.164c6.705 9.435 14.287 19.129 23.547 26.01 24.199 17.981 44.915-9.294 57.557-26.418" clip-rule="evenodd"/></svg>