<svg xmlns="http://www.w3.org/2000/svg" fill="none" viewBox="0 0 256 256"><path fill="#4E80EE" d="M128 256c70.692 0 128-57.308 128-128S198.692 0 128 0 0 57.308 0 128s57.308 128 128 128"/><path fill="#fff" d="M128.248 208.201c0 5.096 4.125 9.275 9.168 8.755C182.124 212.347 217 174.391 217 128.25s-34.876-84.096-79.584-88.706c-5.043-.522-9.168 3.66-9.168 8.755v24.6c0 5.095 4.153 9.13 9.124 10.135 20.984 4.253 36.784 22.879 36.784 45.216s-15.8 40.962-36.784 45.216c-4.971 1.005-9.124 5.043-9.124 10.135zM100.706 56.165c0-6.273-6.112-10.695-11.707-7.918C59.671 62.8 39.5 93.157 39.5 128.25s20.171 65.449 49.5 80.003c5.594 2.777 11.706-1.644 11.706-7.918z"/></svg>
