<svg xmlns="http://www.w3.org/2000/svg" fill="none" viewBox="0 0 256 256"><path fill="#000" fill-rule="evenodd" d="M256 128c0 70.692-57.308 128-128 128S0 198.692 0 128 57.308 0 128 0s128 57.308 128 128" clip-rule="evenodd"/><path fill="#9061FF" d="M40.555 118.788 98.713 35l29.391 42.52-29.808 42.31H41.18c-.209 0-.209 0-.417-.209-.209 0-.209-.208-.209-.208v-.417c-.208 0 0 0 0-.208m174.891 0L157.287 35l-29.183 42.52 29.6 42.518h57.115c.209 0 .209 0 .417-.208.209 0 .209-.209.209-.209v-.417c.208-.208 0-.208 0-.416"/><path fill="#297FFF" d="M216.487 130.876c.208 11.672-2.085 23.344-6.462 34.182s-10.839 20.843-19.177 29.18-18.136 15.007-28.766 19.384c-10.631 4.377-22.305 6.878-34.186 6.878-11.673 0-23.347-2.293-34.186-6.878-10.84-4.585-20.636-11.047-28.766-19.384s-14.8-18.133-19.177-29.18c-4.17-10.838-6.462-22.51-6.254-34.182h56.282c0 4.377.625 8.546 2.293 12.506 1.667 3.96 3.96 7.712 6.878 10.63 2.919 3.126 6.671 5.419 10.631 7.086q5.942 2.501 12.507 2.501 6.567 0 12.507-2.501c3.961-1.667 7.504-4.168 10.631-7.086 2.918-3.127 5.42-6.67 6.879-10.63 1.668-3.96 2.293-8.337 2.293-12.506z"/></svg>