<svg xmlns="http://www.w3.org/2000/svg" fill="none" viewBox="0 0 256 256"><path fill="url(#paint0_radial_9890_1680)" d="M128 256c70.692 0 128-57.308 128-128S198.692 0 128 0 0 57.308 0 128s57.308 128 128 128"/><path fill="#fff" d="M84.958 154.087a4.22 4.22 0 0 1 2.984-1.232h102.943c1.881 0 2.822 2.269 1.492 3.597l-20.335 20.317a4.23 4.23 0 0 1-2.984 1.231H66.115c-1.881 0-2.822-2.268-1.492-3.597zm0-75.856C85.77 77.454 86.84 77 87.942 77h102.943c1.881 0 2.822 2.268 1.492 3.597l-20.335 20.316a4.22 4.22 0 0 1-2.984 1.232H66.115c-1.881 0-2.822-2.269-1.492-3.597zm87.084 37.685a4.22 4.22 0 0 0-2.984-1.231H66.115c-1.881 0-2.822 2.268-1.492 3.596l20.335 20.317a4.22 4.22 0 0 0 2.984 1.231h102.943c1.881 0 2.822-2.268 1.492-3.596z"/><path fill="#fff" fill-rule="evenodd" d="M236 127.5c0 59.371-48.129 107.5-107.5 107.5C69.13 235 21 186.871 21 127.5 21 68.13 69.13 20 128.5 20 187.871 20 236 68.13 236 127.5M128.5 225c53.848 0 97.5-43.652 97.5-97.5S182.348 30 128.5 30 31 73.652 31 127.5 74.652 225 128.5 225" clip-rule="evenodd"/><defs><radialGradient id="paint0_radial_9890_1680" cx="0" cy="0" r="1" gradientTransform="rotate(51.414 -17.18 79.912)scale(243.709)" gradientUnits="userSpaceOnUse"><stop stop-color="#8AE29A"/><stop offset="1" stop-color="#309475"/></radialGradient></defs></svg>
