<svg xmlns="http://www.w3.org/2000/svg" fill="none" viewBox="0 0 512 512"><g clip-path="url(#clip0_4193_3444)"><rect width="512" height="512" fill="#E6E6E6" rx="256"/><path fill="#FD0000" d="m414.156 105.254.579 3.364c1.176 8.935-.375 16.871-3.266 25.284a11.5 11.5 0 0 0-1.294 3.466q-6.511 16.002-18.26 27.042-5.07 4.767-13.292 10.186a.6.6 0 0 1-.38-.167q-.163-.143-.016-.302c3.323-3.609 8.034-7.47 10.553-10.027 10.887-11.036 18.954-26.434 19.473-42.126.261-7.965-2.658-20.639-11.562-23.38-4.196-1.292-8.769 1.118-12.516 3.45a140.6 140.6 0 0 0-18.02 13.286c-22.143 19.22-42.505 40.128-63.803 60.229-4.332 4.09-7.985 7.642-13.844 8.743q-5.837 1.101-17.762 1.815a709 709 0 0 1-30.924.204l-20.804-.526-5.262-.07a.53.53 0 0 1-.355-.138c-.694-.612-3.703-.2-5.042-.241a589 589 0 0 1-11.104-.448c-1.114-.053-2.429.097-3.641.02-13.235-.877-27.907 2.806-40.052 7.919-1.029.433-1.976.351-3.021.518l-2.478-.093q-.756-.697.093-1.044 8.218-3.353 16.424-6.692a76.4 76.4 0 0 1 11.353-2.688c7.94-1.248 15.133-1.578 23.547-1.961 1.204-.057 3.152.126 5.005-.009q4.136-.297 13.994-.309c1.188 0 2.205.489 3.405.444 2.278-.09 4.687.216 6.773.171 16.619-.354 34.141.926 52.213-.779 5.087-.477 9.173-2.552 12.843-6.023 6.263-5.917 12.411-11.973 18.285-18.282q21.666-23.269 38.567-39.61 9.054-8.751 22.465-18.836a397 397 0 0 1 11.786-5.142q4.046-1.693 6.572-2.076c11.3-1.73 20.041 3.752 22.768 14.828"/><path fill="#FF5251" d="M373.03 97.644q-13.411 10.085-22.465 18.836-16.901 16.342-38.567 39.61c-5.874 6.309-12.022 12.365-18.285 18.282-3.67 3.471-7.756 5.546-12.843 6.023-18.072 1.705-35.594.425-52.213.779-2.086.045-4.495-.261-6.773-.171-1.2.045-2.217-.444-3.405-.444q-9.858.012-13.994.309c-1.853.135-3.801-.048-5.005.009-8.414.383-15.607.713-23.547 1.961a76.4 76.4 0 0 0-11.353 2.688q54.088-22.993 76.789-32.551.322-.135.409-.314a.75.75 0 0 0 .351-.061q56.406-23.767 112.787-47.587 7.377-3.115 18.114-7.369"/><path fill="#993414" d="m378.623 174.596-101.668 18.621-6.209-7.1q11.925-.714 17.762-1.815c5.859-1.101 9.512-4.653 13.844-8.743 21.298-20.101 41.66-41.009 63.803-60.229a140.6 140.6 0 0 1 18.02-13.286c3.747-2.332 8.32-4.742 12.516-3.45 8.904 2.741 11.823 15.415 11.562 23.38-.519 15.692-8.586 31.09-19.473 42.126-2.519 2.557-7.23 6.418-10.553 10.027q-.147.16.016.302a.6.6 0 0 0 .38.167m35.533-69.342a8.6 8.6 0 0 1 .579 3.364z"/><path fill="#FF5251" d="m192.467 126.883-.347.31a.55.55 0 0 1-.331.143q-4.442.376-8.095 1.048c-31.096 5.746-40.996 36.764-37.685 64.18q.045.371.021.759l-46.874 26.76c-2.09-22.874 11.5-46.021 25.894-62.692 16.893-19.566 41.645-30.022 67.417-30.508"/><path fill="#D20B09" d="M192.467 126.883c9.365.021 16.3.155 24.584 3.071 11.287 3.976 18.889 11.741 24.539 22.066q.195.36.188.641-.087.179-.409.314-22.702 9.558-76.789 32.551-8.206 3.34-16.424 6.692-.849.346-.093 1.044l-2.033.061a4 4 0 0 0-.021-.759c-3.311-27.416 6.589-58.434 37.685-64.18q3.653-.672 8.095-1.048a.55.55 0 0 0 .331-.143z"/><path fill="#993414" d="M411.469 133.902a9.6 9.6 0 0 1-1.294 3.466 11.5 11.5 0 0 1 1.294-3.466"/><path fill="#DC9370" d="M219.018 185.795c-3.457.195-6.96.102-10.43.167q-10.541.192-22.441 2.634c-13.802 2.83-21.13 16.361-24.49 28.836a.17.17 0 0 0 .156.215.17.17 0 0 0 .097-.023c9.638-5.877 21.09-10.933 32.471-11.651q2.601-.168 8.145.249c8.462.636 16.876.766 25.31-.384a.53.53 0 0 0 .339-.187l2.258-2.745c.138.02.13-.016.228.082 6.626 6.659 11.557 14.95 11.917 24.199.473 12.254 1.249 23.069 3.727 34.528 1.939 8.964 5.058 18.596 10.59 26.283 1.812 2.516 6.046 5.938 4.633 9.098a1323 1323 0 0 0-8.675 19.84c-11.908-1.097-21.273-8.128-28.352-17.152q-6.45-8.226-12.847-16.508.245.028.375-.135a.42.42 0 0 0 .086-.379c-1.829-7.605-1.845-14.999 2.392-21.569a.26.26 0 0 0 .044-.129.3.3 0 0 0-.025-.135.28.28 0 0 0-.215-.156c-2.518-.342-5.09 1.199-7.172 2.48q-5.593 3.441-4.903 10.064c.024.241-.053.359-.176.547q-8.969-6.606-19.591-6.415c-20.69.375-37.068 10.746-45.135 29.729a.32.32 0 0 1-.294.208c-13.561.987-21.142-7.569-23.343-19.86-3.102-17.344 1.29-35.879 17.905-44.846 3.907-2.109 7.704-3.36 7.01-8.678-.788-6.04-.596-11.207 2.053-16.765a49 49 0 0 1 9.876-13.882c1.045-.167 1.992-.085 3.021-.518 12.145-5.113 26.817-8.796 40.052-7.919 1.212.077 2.527-.073 3.641-.02q5.553.276 11.104.448c1.339.041 4.348-.371 5.042.241a.53.53 0 0 0 .355.138zm-42.497 42.966a16.6 16.6 0 0 0-5.311 2.267q-1.984 1.293-2.131 3.528a.84.84 0 0 0 .424.787 46 46 0 0 0 6.397 3.042q.388.481.858.714a266 266 0 0 0 26.339 11.328q.262.094.841-.069 4.972 2.174 9.757 2.528c9.638.722 13.896-10.815 13.966-18.652.041-4.719-2.805-6.835-7.185-8.091a46.6 46.6 0 0 0-11.153-1.786q-9.753-.804-18.828.917-6.405 1.215-13.974 3.487"/><path fill="#ECE1DF" d="m219.018 185.795 20.804.526a229 229 0 0 1-9.389 16.585l-2.258 2.745a.53.53 0 0 1-.339.187c-8.434 1.15-16.848 1.02-25.31.384q-5.544-.417-8.145-.249c-11.381.718-22.833 5.774-32.471 11.651a.172.172 0 0 1-.253-.192c3.36-12.475 10.688-26.006 24.49-28.836q11.9-2.442 22.441-2.634c3.47-.065 6.973.028 10.43-.167"/><path fill="#E8A887" d="m270.746 186.117 6.209 7.1 5.634 7.797q-4.686-.902-8.201 2.19c-4.087 3.593-6.496 9.29-7.606 14.501-16.052 26.006-3.384 55.327 12.125 77.662 1.722 2.48-4.009 13.543-5.573 16.688q-.057.118.049.195l.119.082q-3.16 4.2-8.467 4.592c-3.858.285-8.369.636-12.182.012a1323 1323 0 0 1 8.675-19.84c1.413-3.16-2.821-6.582-4.633-9.098-5.532-7.687-8.651-17.319-10.59-26.283-2.478-11.459-3.254-22.274-3.727-34.528-.36-9.249-5.291-17.54-11.917-24.199-.098-.098-.09-.062-.228-.082a229 229 0 0 0 9.389-16.585q15.463.236 30.924-.204"/><path fill="#FBF9FC" d="m148.063 193.262 2.478.093a49 49 0 0 0-9.876 13.882c-2.649 5.558-2.841 10.725-2.053 16.765.694 5.318-3.103 6.569-7.01 8.678-16.615 8.967-21.007 27.502-17.905 44.846 2.201 12.291 9.782 20.847 23.343 19.86a.32.32 0 0 0 .294-.208c8.067-18.983 24.445-29.354 45.135-29.729q10.622-.191 19.591 6.415a75.4 75.4 0 0 1 9.594 9.412 2819 2819 0 0 0 12.847 16.508c7.079 9.024 16.444 16.055 28.352 17.152 3.813.624 8.324.273 12.182-.012q5.307-.392 8.467-4.592a36.2 36.2 0 0 0 7.095-8.947c4.303-7.634 7.748-14.95 16.999-17.556q4.11-1.158 9.177-1.362c1.662.216 3.503.159 5.017.652 15.027 4.861 15.836 25.284 14.329 37.975-.208 1.753-.739 3.739.017 5.171 9.291 17.666 23.673 31.984 40.056 43.504a118 118 0 0 0 6.842 4.453q28.03 16.944 59.68 25.725a74.3 74.3 0 0 0 11.247 2.728.07.07 0 0 0 .057-.021l.074-.073a.13.13 0 0 1 .13-.041q3.589.906 7.271 1.146l2.564.4q.359.057.065.273l-.792.583q-.649-.126-.845-.065c-23.808 7.679-49.674 6.725-69.368-10.448q-.543-.47-.093.09l20.926 26.348c15.37 19.766 29.054 37.114 41.501 57.158 7.181 11.565 17.473 20.426 28.728 27.873 5.099 3.372 10.639 6.884 16.215 9.946a.198.198 0 0 1 .054.305.2.2 0 0 1-.099.062l-2.115.571q-.236-.759-1.163-.705c-1.155.065-2.87.089-4.266.024-52.573-2.512-97.679-30.361-125.006-75.072a.15.15 0 0 0-.131-.082q-.106-.013-.057.086.351.684 1.11 2.414 12.656 28.831 21.657 57.696c1.641 5.265 3.156 11.019 4.691 16.54 2.841 11.26 4.903 22.845 5.499 34.447 1.367 26.459 3.507 53.92 12.124 79.131q.992 2.895 3.107 6.361.143.233-.131.233l-2.449.012a.15.15 0 0 1 .102-.086q.077-.02.029-.032a119 119 0 0 0-5.72-.955c-6.711-.937-14.57-2.879-19.04-3.959-97.066-23.424-175.297-100.821-219.87-212.947.027.013-.015-.026 0 0 .03-.004-.027-.013 0 0 .007-.029-.022.02 0 0-8.438 38.888-38.226 101.739-69.158 127.333-33.77 27.942-75.912 33.982-118.393 27.689-.518-.077-.967.074-1.498.086l-1.666-.546a.1.1 0 0 1-.051-.035.102.102 0 0 1 .04-.157 114.2 114.2 0 0 0 30-20.129c24.278-22.56 41.437-51.135 54.329-81.406a390 390 0 0 0 14.19-39.716.12.12 0 0 0-.04-.121.1.1 0 0 0-.062-.021.1.1 0 0 0-.061.02c-25.131 16.871-53.271 30.014-82.485 36.898q-9.817 2.312-22.53 3.103c-3.372.208-7.16.131-10.75.196-.962.016-2.142-.392-3.367-.037l-4.483-.713a.1.1 0 0 1-.077-.079.1.1 0 0 1 .007-.057.1.1 0 0 1 .038-.044q36.039-20.186 64.53-49.992a171 171 0 0 0 10.304-11.814q18.236-21.663 28.813-48.031a.14.14 0 0 0 .001-.093.14.14 0 0 0-.059-.071.13.13 0 0 0-.09-.016.13.13 0 0 0-.08.045 405 405 0 0 1-33.655 36.351c-7.888 7.545-16.195 14.482-26.279 18.918q-.657.29-2.73.718-.173.033-.221-.13a.3.3 0 0 1-.008-.163c21.065-19.999 40.223-42.041 56.524-66.097 15.023-22.164 26.299-44.275 33.353-69.967a78 78 0 0 0 9.484 16.047.2.2 0 0 0 .084.068.2.2 0 0 0 .105.023.23.23 0 0 0 .186-.099c14.721-20.488 26.372-48.288 20.665-73.98q-.045-.2-.249-.22a39 39 0 0 0-8.977.147q1.809-3.483 4.752-5.713l46.874-26.76zm28.968 123.225c2.494-3.026 6.152-3.372 7.936.649q11.806 26.637 39.481 35.205c16.313 5.049 33.014.404 47.902-6.72q1.16-.555 1.837-1.089.568-.445-.073-.118c-21.33 10.892-47.086 9.457-66.718-4.294q-11.643-8.157-16.24-22.083c-.886-2.675-1.106-6.088 2.074-7.279 4.033-1.505 9.373 1.244 12.778 3.633q.375.261.139-.126-1.185-1.94-3.066-3.589c-7.328-6.415-18.13-7.038-24.592.93a29.3 29.3 0 0 0-5.74 11.524q-.062.241.045.013 1.55-3.397 4.237-6.656"/><path fill="#ECE1DF" d="M282.589 201.014c1.225.538 2.519 1.06 3.474 1.998 6.128 6.011 6.377 17.454 5.519 25.337q-1.829-1.884-4.506-5.036c-4.969-5.832-12.868-9.845-20.294-5.608 1.11-5.211 3.519-10.908 7.606-14.501q3.515-3.092 8.201-2.19"/><path fill="#C9836D" d="M291.582 228.349c1.442 7.414 2.14 14.298.527 21.785a.64.64 0 0 0 .294.685c11.872 7.271 19.342 19.521 14.37 33.648q-5.066.204-9.177 1.362c-9.251 2.606-12.696 9.922-16.999 17.556a36.2 36.2 0 0 1-7.095 8.947l-.119-.082q-.105-.077-.049-.195c1.564-3.145 7.295-14.208 5.573-16.688-15.509-22.335-28.177-51.656-12.125-77.662 7.426-4.237 15.325-.224 20.294 5.608q2.678 3.152 4.506 5.036m-10.357 26.491q3.132.167 6.561-1.244c3.923-1.615 4.017-4.045 4.017-8.148 0-5.746-.49-11.973-8.218-11.137q-5.895.257-10.692 3.47c-1.931 1.293-3.27 2.814-4.09 4.902-1.943 4.939-3.491 13.066 4.801 12.936 3.184-.053 5.531.122 7.621-.779"/><path fill="#5A2F30" d="M209.323 224.357q-2.924.48-4.793 2.304c-2.09 2.035-2.596 5.513-1.237 8.054q2.829 5.293 8.638 3.499a.225.225 0 0 1 .286.269q-1.857 7.54-8.279 11.875-.58.163-.841.069a266 266 0 0 1-26.339-11.328 2.6 2.6 0 0 1-.858-.714q-.531-4.796.621-9.624 7.569-2.272 13.974-3.487 9.075-1.72 18.828-.917m-9.708 11.177a4.15 4.15 0 0 0-1.217-2.935 4.159 4.159 0 0 0-7.095 2.935 4.153 4.153 0 0 0 4.156 4.152 4.153 4.153 0 0 0 4.156-4.152"/><path fill="#ECE1DF" d="M203.938 250.358q6.422-4.335 8.279-11.875a.225.225 0 0 0-.286-.269q-5.81 1.794-8.638-3.499c-1.359-2.541-.853-6.019 1.237-8.054q1.87-1.824 4.793-2.304 5.69.216 11.153 1.786c4.38 1.256 7.226 3.372 7.185 8.091-.07 7.837-4.328 19.374-13.966 18.652q-4.785-.354-9.757-2.528"/><path fill="#DC9370" d="M73.106 283.81a.7.7 0 0 1-.02-.404.65.65 0 0 0-.025-.379q-6.42-18.147-.6-36.568c3.4-10.753 10.77-18.318 21.943-20.663a39 39 0 0 1 8.977-.147q.204.02.249.22c5.707 25.692-5.944 53.492-20.665 73.98a.23.23 0 0 1-.186.099.2.2 0 0 1-.105-.023.2.2 0 0 1-.085-.068 78 78 0 0 1-9.483-16.047m18.016-39.524a.08.08 0 0 0-.054-.032.082.082 0 0 0-.077.13c5.066 7.878.184 21.915-3.51 30.067q-1.104 2.439.126.057c3.51-6.782 9.85-23.245 3.515-30.222"/><path fill="#ECE1DF" d="M176.521 228.761q-1.152 4.828-.621 9.624a46 46 0 0 1-6.397-3.042.84.84 0 0 1-.424-.787q.147-2.235 2.131-3.528a16.6 16.6 0 0 1 5.311-2.267m23.094 6.773a4.153 4.153 0 0 1-4.156 4.152 4.153 4.153 0 0 1-2.939-7.087 4.159 4.159 0 0 1 7.095 2.935"/><path fill="#5A2F30" d="m283.585 234.311.976 1.293a.34.34 0 0 1 .058.259.33.33 0 0 1-.152.214c-4.87 2.907-3.576 10.081 2.327 10.179a.17.17 0 0 1 .133.066.18.18 0 0 1 .03.146q-1.339 5.178-5.732 8.372c-2.09.901-4.437.726-7.621.779-8.292.13-6.744-7.997-4.801-12.936.82-2.088 2.159-3.609 4.09-4.902q4.797-3.213 10.692-3.47m-4.947 12.409a2.72 2.72 0 0 0 1.997-.917 3.22 3.22 0 0 0 .815-2.185 3.3 3.3 0 0 0-.224-1.179 3.1 3.1 0 0 0-.621-.995 2.8 2.8 0 0 0-.924-.662 2.6 2.6 0 0 0-1.086-.227 2.72 2.72 0 0 0-1.997.917 3.22 3.22 0 0 0-.814 2.185c.003.405.079.805.224 1.178a3.1 3.1 0 0 0 .621.996c.265.285.579.51.924.662.344.153.713.23 1.085.227"/><path fill="#ECE1DF" d="M281.225 254.84q4.393-3.194 5.732-8.372a.18.18 0 0 0-.03-.146.17.17 0 0 0-.133-.066c-5.903-.098-7.197-7.272-2.327-10.179a.32.32 0 0 0 .15-.35.3.3 0 0 0-.056-.123l-.976-1.293c7.728-.836 8.218 5.391 8.218 11.137 0 4.103-.094 6.533-4.017 8.148q-3.429 1.411-6.561 1.244"/><path fill="#ECE1DF" d="M278.638 246.72a2.6 2.6 0 0 1-1.085-.227 2.8 2.8 0 0 1-.924-.662 3.1 3.1 0 0 1-.621-.996 3.3 3.3 0 0 1-.224-1.178 3.22 3.22 0 0 1 .814-2.185 2.72 2.72 0 0 1 1.997-.917c.372-.003.741.074 1.086.227.345.152.659.377.924.662.265.284.476.622.621.995s.221.774.224 1.179a3.22 3.22 0 0 1-.815 2.185 2.72 2.72 0 0 1-1.997.917"/><path fill="#5A2F30" d="M91.122 244.286c6.335 6.977-.004 23.44-3.515 30.222q-1.23 2.382-.127-.057c3.695-8.152 8.577-22.189 3.511-30.067a.08.08 0 0 1 .016-.114.08.08 0 0 1 .06-.016.08.08 0 0 1 .055.032"/><path fill="#C9836D" d="M211.654 283.276a75.4 75.4 0 0 0-9.594-9.412c.123-.188.2-.306.176-.547q-.69-6.623 4.903-10.064c2.082-1.281 4.654-2.822 7.172-2.48a.275.275 0 0 1 .196.42c-4.237 6.57-4.221 13.964-2.392 21.569a.42.42 0 0 1-.086.379q-.13.163-.375.135"/><path fill="#5A2F30" d="M184.967 317.136c-1.784-4.021-5.442-3.675-7.936-.649q-2.686 3.259-4.237 6.656-.106.228-.045-.013a29.3 29.3 0 0 1 5.74-11.524c6.462-7.968 17.264-7.345 24.592-.93q1.881 1.648 3.066 3.589.236.387-.139.126c-3.405-2.389-8.745-5.138-12.778-3.633-3.18 1.191-2.96 4.604-2.074 7.279q4.597 13.926 16.24 22.083c19.632 13.751 45.388 15.186 66.718 4.294q.641-.326.073.118-.677.534-1.837 1.089c-14.888 7.124-31.589 11.769-47.902 6.72q-27.675-8.568-39.481-35.205"/><path fill="#C7C3C5" d="M17.537 412.346c-10.418 4.465-23.278 8.457-34.7 8.143q-.254-.003-.102-.208.203-.269.494-.407a.3.3 0 0 0 .008.163q.049.163.22.13 2.074-.427 2.731-.718c10.084-4.436 18.391-11.373 26.279-18.918a405 405 0 0 0 33.655-36.351.13.13 0 0 1 .08-.045.13.13 0 0 1 .09.016.14.14 0 0 1 .06.071q.015.046-.002.093-10.577 26.368-28.813 48.031m435.793-5.404q-.273.351-.902.804c-13.031 9.375-28.748 16.03-45.208 15.072a23 23 0 0 0-3.27.049l-20.926-26.348q-.45-.56.093-.09c19.694 17.173 45.56 18.127 69.368 10.448q.196-.061.845.065m-20.616-4.995c2.392-.176 6.287 1.125 8.724 1.659 2.67.583 6.74 1.057 10.055 2.08a40.4 40.4 0 0 1-7.271-1.146.13.13 0 0 0-.13.041l-.074.073a.07.07 0 0 1-.057.021 74.3 74.3 0 0 1-11.247-2.728M52.323 474.723q-.192 0-.388.041c-34.21 7.365-69.972 6.141-104.717.281 1.225-.355 2.404.053 3.368.037 3.588-.065 7.377.012 10.749-.196q12.712-.791 22.53-3.103c29.214-6.884 57.354-20.027 82.485-36.898a.1.1 0 0 1 .061-.02.1.1 0 0 1 .062.021.12.12 0 0 1 .04.121 390 390 0 0 1-14.19 39.716m435.911 44.059a175.8 175.8 0 0 1-33.83 8.576q-.037.004-1.511.412c-.906.249-1.575-.077-2.404.041-22 3.152-44.869 1.264-65.179-8.193a.15.15 0 0 0-.143.008l-.098.057c-1.535-5.521-3.05-11.275-4.691-16.54q-9.001-28.864-21.657-57.696-.759-1.73-1.11-2.414-.05-.099.057-.086.086.004.131.082c27.327 44.711 72.433 72.56 125.006 75.072 1.396.065 3.111.041 4.266-.024q.927-.054 1.163.705m-85.015 121.085a.3.3 0 0 1-.204.082 310 310 0 0 1-54.026-3.74q-.258-.04-1.556-.012c-.91.02-1.363-.392-2.098-.51-71.335-11.264-137.413-42.142-189.438-92.221a.22.22 0 0 0-.134-.062.23.23 0 0 0-.144.038c-31.495 21.336-67.947 36.584-105.395 42.55q-2.742.437-12.275 1.248c-23.217 1.974-46.768-1.105-68.278-10.244.53-.012.98-.163 1.498-.086 42.481 6.293 84.624.253 118.393-27.689 30.932-25.594 60.72-88.445 69.158-127.333.007-.029-.022.02 0 0 .03-.004-.027-.013 0 0s-.015-.026 0 0c44.573 112.126 122.804 189.523 219.87 212.947 4.47 1.08 12.329 3.022 19.04 3.959q2.854.405 5.72.955.048.012-.029.032a.15.15 0 0 0-.102.086"/></g><defs><clipPath id="clip0_4193_3444"><rect width="512" height="512" fill="#fff" rx="256"/></clipPath></defs></svg>