<svg xmlns="http://www.w3.org/2000/svg" fill="none" viewBox="0 0 256 256"><g clip-path="url(#clip0_4193_3444)"><rect width="256" height="256" fill="#E6E6E6" rx="128"/><path fill="#FD0000" d="m207.078 52.627.29 1.682c.588 4.468-.188 8.436-1.633 12.642a5.7 5.7 0 0 0-.647 1.733q-3.256 8.001-9.131 13.52-2.535 2.385-6.646 5.094a.3.3 0 0 1-.189-.083q-.083-.072-.009-.151c1.662-1.805 4.017-3.736 5.277-5.014 5.444-5.518 9.477-13.217 9.736-21.063.131-3.982-1.329-10.32-5.78-11.69-2.099-.646-4.385.559-6.259 1.725a70 70 0 0 0-9.009 6.643c-11.072 9.61-21.253 20.064-31.902 30.115-2.166 2.045-3.993 3.82-6.922 4.371q-2.919.55-8.881.908-7.73.219-15.462.102l-10.402-.264-2.631-.034a.27.27 0 0 1-.178-.07c-.347-.305-1.851-.1-2.52-.12a292 292 0 0 1-5.552-.224c-.558-.027-1.215.049-1.821.01-6.618-.438-13.954 1.403-20.026 3.96-.515.216-.988.175-1.51.259l-1.24-.047q-.378-.349.047-.522 4.11-1.676 8.212-3.346a38 38 0 0 1 5.676-1.344c3.97-.624 7.567-.789 11.774-.98.602-.03 1.576.063 2.503-.005q2.067-.148 6.997-.155c.594 0 1.102.245 1.702.223 1.139-.045 2.343.108 3.386.085 8.31-.177 17.071.463 26.107-.39 2.543-.238 4.587-1.276 6.422-3.01 3.131-2.96 6.205-5.987 9.142-9.142q10.833-11.634 19.283-19.805 4.528-4.375 11.233-9.418a199 199 0 0 1 5.893-2.571q2.023-.846 3.286-1.038c5.65-.864 10.02 1.876 11.384 7.414"/><path fill="#FF5251" d="M186.515 48.822q-6.705 5.043-11.233 9.418-8.45 8.17-19.283 19.805c-2.937 3.155-6.011 6.183-9.142 9.141-1.835 1.735-3.879 2.773-6.422 3.012-9.036.852-17.797.212-26.107.39-1.043.022-2.247-.131-3.386-.086-.6.022-1.108-.223-1.702-.223q-4.93.007-6.997.155c-.927.068-1.901-.024-2.503.004-4.207.192-7.803.357-11.773.981q-2.88.453-5.677 1.344 27.043-11.497 38.395-16.276.16-.067.204-.156a.4.4 0 0 0 .175-.031 64312 64312 0 0 0 56.394-23.793 447 447 0 0 1 9.057-3.685"/><path fill="#993414" d="m189.311 87.298-50.833 9.31-3.105-3.55q5.962-.356 8.881-.907c2.929-.55 4.756-2.326 6.922-4.371 10.649-10.05 20.83-20.505 31.902-30.115a70 70 0 0 1 9.009-6.643c1.874-1.166 4.16-2.371 6.259-1.725 4.451 1.37 5.911 7.708 5.78 11.69-.259 7.846-4.292 15.545-9.736 21.063-1.26 1.278-3.615 3.21-5.277 5.014q-.073.08.009.15.087.081.189.084m17.767-34.671q.312.81.29 1.682z"/><path fill="#FF5251" d="m96.233 63.442-.173.155a.27.27 0 0 1-.166.071q-2.22.188-4.047.524c-15.548 2.873-20.498 18.382-18.842 32.09q.021.186.01.38l-23.437 13.38c-1.045-11.437 5.75-23.01 12.947-31.346 8.447-9.784 20.822-15.011 33.708-15.254"/><path fill="#D20B09" d="M96.233 63.442c4.683.01 8.151.077 12.292 1.535 5.644 1.988 9.445 5.87 12.27 11.033q.097.18.094.32-.044.09-.204.157-11.352 4.78-38.395 16.276-4.103 1.67-8.212 3.346-.425.174-.047.522l-1.016.03q.011-.193-.01-.379c-1.656-13.708 3.294-29.217 18.842-32.09a42 42 0 0 1 4.047-.524.27.27 0 0 0 .166-.071z"/><path fill="#993414" d="M205.735 66.951a4.8 4.8 0 0 1-.647 1.733q.183-.919.647-1.733"/><path fill="#DC9370" d="M109.509 92.898c-1.729.097-3.48.05-5.215.083q-5.271.096-11.22 1.317c-6.902 1.415-10.566 8.181-12.245 14.418a.1.1 0 0 0 .001.05q.009.024.03.041.02.015.046.017a.1.1 0 0 0 .049-.012c4.82-2.938 10.545-5.467 16.236-5.825q1.3-.084 4.072.124c4.231.318 8.438.383 12.655-.192a.26.26 0 0 0 .17-.094l1.128-1.372c.07.01.066-.008.115.041 3.312 3.33 5.778 7.475 5.958 12.099.237 6.128.624 11.535 1.863 17.265.97 4.482 2.529 9.298 5.295 13.141.907 1.258 3.023 2.969 2.317 4.549a659 659 0 0 0-4.337 9.92c-5.955-.548-10.637-4.064-14.177-8.576q-3.225-4.113-6.423-8.254.122.014.188-.067a.21.21 0 0 0 .043-.19c-.915-3.803-.923-7.499 1.196-10.784a.14.14 0 0 0-.035-.185.13.13 0 0 0-.063-.025c-1.26-.171-2.546.599-3.587 1.24q-2.796 1.72-2.451 5.032c.012.12-.027.179-.088.273q-4.485-3.303-9.796-3.207c-10.344.187-18.534 5.372-22.567 14.864a.16.16 0 0 1-.147.104c-6.78.494-10.571-3.784-11.671-9.93-1.552-8.672.645-17.939 8.952-22.423 1.954-1.054 3.852-1.68 3.505-4.339-.394-3.02-.298-5.603 1.027-8.382a24.5 24.5 0 0 1 4.937-6.941c.523-.084.996-.043 1.51-.26 6.073-2.556 13.41-4.397 20.027-3.959.606.039 1.263-.037 1.82-.01q2.776.138 5.553.224c.669.02 2.173-.185 2.52.12a.27.27 0 0 0 .178.07zM88.26 114.38a8.3 8.3 0 0 0-2.655 1.133q-.993.646-1.066 1.764a.42.42 0 0 0 .213.393q1.545.885 3.198 1.522.194.24.429.356a133 133 0 0 0 13.17 5.665q.13.047.42-.035 2.486 1.087 4.878 1.264c4.82.361 6.949-5.407 6.983-9.326.021-2.359-1.402-3.418-3.592-4.046a23.3 23.3 0 0 0-5.577-.893q-4.876-.4-9.414.459-3.203.607-6.987 1.744"/><path fill="#ECE1DF" d="m109.509 92.898 10.402.263a114 114 0 0 1-4.695 8.292l-1.128 1.372a.26.26 0 0 1-.17.094c-4.217.575-8.424.51-12.655.192q-2.773-.208-4.072-.124c-5.691.358-11.417 2.887-16.236 5.825a.1.1 0 0 1-.049.012.1.1 0 0 1-.047-.017.1.1 0 0 1-.029-.041.1.1 0 0 1-.001-.05c1.68-6.237 5.343-13.003 12.245-14.418q5.949-1.221 11.22-1.317c1.735-.033 3.486.014 5.215-.084"/><path fill="#E8A887" d="m135.373 93.059 3.105 3.55 2.817 3.898q-2.344-.45-4.101 1.095c-2.043 1.796-3.248 4.645-3.803 7.251-8.026 13.003-1.692 27.663 6.062 38.831.862 1.239-2.004 6.771-2.786 8.343q-.029.06.025.098l.059.041q-1.58 2.1-4.234 2.296c-1.929.143-4.184.318-6.09.006a659 659 0 0 1 4.337-9.92c.706-1.58-1.41-3.291-2.317-4.549-2.766-3.843-4.325-8.659-5.295-13.141-1.239-5.73-1.626-11.137-1.863-17.265-.18-4.624-2.646-8.769-5.958-12.099-.049-.049-.045-.031-.115-.041a114 114 0 0 0 4.695-8.293q7.732.119 15.462-.101"/><path fill="#FBF9FC" d="m74.031 96.63 1.24.048a24.5 24.5 0 0 0-4.938 6.941c-1.325 2.779-1.421 5.362-1.027 8.382.347 2.659-1.551 3.285-3.505 4.339-8.307 4.484-10.504 13.751-8.952 22.423 1.1 6.146 4.89 10.424 11.671 9.93q.106-.008.147-.104c4.033-9.492 12.223-14.677 22.567-14.864q5.311-.096 9.796 3.207a38 38 0 0 1 4.797 4.706q3.198 4.141 6.423 8.254c3.54 4.512 8.222 8.028 14.177 8.576 1.906.312 4.161.137 6.09-.006q2.654-.196 4.234-2.296a18.1 18.1 0 0 0 3.547-4.474c2.152-3.817 3.875-7.475 8.5-8.777q2.056-.58 4.588-.682c.831.109 1.752.08 2.509.327 7.514 2.43 7.918 12.642 7.165 18.987-.104.877-.37 1.87.008 2.585 4.646 8.833 11.837 15.992 20.028 21.753a59 59 0 0 0 3.421 2.226 118.8 118.8 0 0 0 29.84 12.862 37 37 0 0 0 5.624 1.365q.016.001.028-.011l.037-.036a.07.07 0 0 1 .065-.021 20 20 0 0 0 3.636.573l1.281.2q.18.029.033.137l-.396.291q-.324-.063-.422-.032c-11.905 3.839-24.838 3.362-34.684-5.224q-.272-.235-.047.044l10.463 13.175c7.685 9.883 14.527 18.557 20.751 28.578 3.59 5.783 8.736 10.214 14.363 13.937 2.55 1.686 5.32 3.442 8.108 4.973q.026.016.04.042a.1.1 0 0 1 .01.057.1.1 0 0 1-.072.085l-1.058.285q-.119-.379-.582-.353a23 23 0 0 1-2.133.013c-26.286-1.256-48.839-15.181-62.503-37.537a.08.08 0 0 0-.065-.04q-.053-.006-.029.042.175.343.556 1.208 6.328 14.415 10.828 28.848c.821 2.632 1.578 5.509 2.345 8.27 1.421 5.63 2.452 11.422 2.75 17.223.684 13.229 1.753 26.96 6.062 39.565q.496 1.449 1.554 3.181.07.117-.066.117l-1.224.006a.07.07 0 0 1 .051-.043q.038-.01.014-.017a60 60 0 0 0-2.86-.477c-3.356-.469-7.285-1.439-9.52-1.98-48.533-11.712-87.649-50.41-109.935-106.473.014.007-.007-.013 0 0 .015-.002-.013-.006 0 0 .004-.015-.011.01 0 0-4.219 19.444-19.113 50.87-34.579 63.666-16.885 13.972-37.956 16.991-59.196 13.845-.26-.038-.484.037-.75.043l-.832-.273a.05.05 0 0 1-.026-.017.05.05 0 0 1-.011-.029q0-.016.007-.03a.05.05 0 0 1 .024-.02 57 57 0 0 0 15-10.065c12.14-11.279 20.718-25.567 27.164-40.702a195 195 0 0 0 7.096-19.858.06.06 0 0 0-.02-.061.1.1 0 0 0-.031-.01.05.05 0 0 0-.031.01c-12.566 8.435-26.636 15.007-41.242 18.449q-4.91 1.156-11.266 1.551c-1.686.104-3.58.065-5.374.098-.482.008-1.072-.196-1.684-.018l-2.241-.357a.05.05 0 0 1-.04-.039.05.05 0 0 1 .023-.051A137 137 0 0 0 3.616 212.08a86 86 0 0 0 5.152-5.907 87.8 87.8 0 0 0 14.407-24.016.07.07 0 0 0-.029-.081.07.07 0 0 0-.045-.009.07.07 0 0 0-.04.023 203 203 0 0 1-16.828 18.176c-3.943 3.772-8.097 7.24-13.139 9.459q-.328.144-1.365.359-.087.017-.11-.066a.16.16 0 0 1-.005-.081c10.533-9.999 20.112-21.02 28.263-33.048 7.511-11.082 13.149-22.138 16.676-34.984a39 39 0 0 0 4.742 8.024.1.1 0 0 0 .042.034.1.1 0 0 0 .053.011.1.1 0 0 0 .052-.013.1.1 0 0 0 .04-.036c7.361-10.244 13.187-24.144 10.333-36.99q-.022-.1-.124-.11a19.5 19.5 0 0 0-4.49.073q.906-1.741 2.377-2.856l23.437-13.38zm14.485 61.614c1.247-1.513 3.076-1.686 3.968.324q5.903 13.319 19.74 17.603c8.157 2.524 16.507.202 23.951-3.36q.58-.278.919-.545.284-.222-.037-.059c-10.665 5.446-23.543 4.728-33.359-2.147q-5.822-4.078-8.12-11.041c-.443-1.338-.553-3.045 1.037-3.64 2.017-.752 4.687.622 6.389 1.817q.187.13.069-.063a7.7 7.7 0 0 0-1.533-1.795c-3.664-3.207-9.065-3.519-12.296.465a14.64 14.64 0 0 0-2.87 5.762q-.03.121.023.006.775-1.698 2.119-3.327"/><path fill="#ECE1DF" d="M141.295 100.507c.612.269 1.259.53 1.737.999 3.063 3.006 3.188 8.727 2.759 12.669a53 53 0 0 1-2.253-2.519c-2.484-2.915-6.434-4.922-10.147-2.803.555-2.606 1.76-5.455 3.803-7.251q1.757-1.545 4.101-1.095"/><path fill="#C9836D" d="M145.791 114.175c.721 3.707 1.07 7.148.264 10.892a.32.32 0 0 0 .147.343c5.935 3.635 9.671 9.76 7.184 16.823q-2.532.102-4.588.682c-4.625 1.302-6.348 4.96-8.5 8.777a18.1 18.1 0 0 1-3.547 4.474l-.059-.041q-.054-.038-.025-.098c.782-1.572 3.648-7.104 2.786-8.343-7.754-11.168-14.088-25.828-6.062-38.831 3.713-2.119 7.663-.112 10.147 2.803a53 53 0 0 0 2.253 2.519m-5.178 13.245q1.565.083 3.28-.622c1.962-.807 2.008-2.023 2.008-4.074 0-2.873-.244-5.986-4.108-5.568q-2.947.128-5.346 1.735c-.966.646-1.635 1.407-2.046 2.451-.971 2.469-1.745 6.533 2.401 6.467 1.592-.026 2.766.062 3.811-.389"/><path fill="#5A2F30" d="M104.661 112.178q-1.461.242-2.396 1.152c-1.045 1.018-1.298 2.757-.619 4.027q1.415 2.647 4.32 1.75a.1.1 0 0 1 .059-.003.1.1 0 0 1 .052.028.1.1 0 0 1 .031.051.13.13 0 0 1 .001.059q-.93 3.77-4.14 5.937-.29.082-.42.035a133 133 0 0 1-13.17-5.665 1.3 1.3 0 0 1-.429-.356 14 14 0 0 1 .31-4.812q3.785-1.137 6.987-1.744 4.537-.86 9.414-.459m-4.854 5.589a2.073 2.073 0 0 0-2.078-2.075 2.076 2.076 0 1 0 1.47 3.543c.39-.389.608-.917.608-1.468"/><path fill="#ECE1DF" d="M101.969 125.179q3.21-2.168 4.14-5.937a.13.13 0 0 0-.001-.059.1.1 0 0 0-.031-.051.1.1 0 0 0-.052-.028.1.1 0 0 0-.059.003q-2.905.897-4.32-1.75c-.679-1.27-.426-3.009.619-4.027q.935-.91 2.396-1.152 2.846.108 5.577.893c2.19.628 3.613 1.687 3.592 4.046-.034 3.919-2.163 9.687-6.983 9.326q-2.392-.177-4.878-1.264"/><path fill="#DC9370" d="M36.553 141.905a.34.34 0 0 1-.01-.202.32.32 0 0 0-.012-.189q-3.21-9.074-.3-18.284c1.7-5.377 5.384-9.159 10.97-10.332a19.5 19.5 0 0 1 4.49-.073q.101.01.124.11c2.854 12.846-2.972 26.746-10.332 36.99a.1.1 0 0 1-.041.036.1.1 0 0 1-.052.013.1.1 0 0 1-.053-.011.1.1 0 0 1-.042-.034 39 39 0 0 1-4.742-8.024m9.008-19.762a.04.04 0 0 0-.027-.016.04.04 0 0 0-.03.008.04.04 0 0 0-.016.027.04.04 0 0 0 .008.03c2.533 3.939.091 10.958-1.756 15.034q-.55 1.22.063.028c1.756-3.391 4.926-11.622 1.758-15.111"/><path fill="#ECE1DF" d="M88.26 114.381a14 14 0 0 0-.31 4.812 23 23 0 0 1-3.198-1.522.42.42 0 0 1-.213-.393q.074-1.118 1.066-1.764a8.3 8.3 0 0 1 2.655-1.133m11.547 3.386a2.074 2.074 0 0 1-2.078 2.076 2.08 2.08 0 0 1-2.078-2.076 2.074 2.074 0 0 1 2.079-2.075 2.076 2.076 0 0 1 2.077 2.075"/><path fill="#5A2F30" d="m141.793 117.156.487.646a.2.2 0 0 1 .029.062.2.2 0 0 1 .001.067.17.17 0 0 1-.077.108c-2.435 1.453-1.788 5.04 1.164 5.089a.1.1 0 0 1 .037.009.1.1 0 0 1 .029.024.1.1 0 0 1 .016.035.1.1 0 0 1 0 .038q-.67 2.59-2.866 4.186c-1.045.451-2.219.363-3.811.389-4.146.066-3.372-3.998-2.401-6.467.411-1.044 1.08-1.805 2.046-2.451q2.399-1.607 5.346-1.735m-2.474 6.204a1.36 1.36 0 0 0 .999-.458c.263-.291.41-.684.407-1.093a1.6 1.6 0 0 0-.112-.589 1.5 1.5 0 0 0-.311-.498 1.4 1.4 0 0 0-.461-.331 1.3 1.3 0 0 0-.543-.114 1.36 1.36 0 0 0-.999.459c-.263.291-.41.684-.407 1.093.001.202.039.402.112.589.072.186.178.356.31.498.133.142.29.254.462.331.173.076.357.115.543.113"/><path fill="#ECE1DF" d="M140.613 127.42q2.196-1.597 2.866-4.186a.1.1 0 0 0 0-.038.1.1 0 0 0-.016-.035.1.1 0 0 0-.029-.024.1.1 0 0 0-.037-.009c-2.952-.049-3.599-3.636-1.164-5.089a.17.17 0 0 0 .077-.108.2.2 0 0 0-.001-.067.2.2 0 0 0-.029-.062l-.487-.646c3.864-.418 4.108 2.695 4.108 5.568 0 2.051-.046 3.267-2.008 4.074q-1.715.705-3.28.622"/><path fill="#ECE1DF" d="M139.319 123.36a1.3 1.3 0 0 1-.543-.113 1.4 1.4 0 0 1-.462-.331 1.6 1.6 0 0 1-.31-.498 1.6 1.6 0 0 1-.112-.589 1.62 1.62 0 0 1 .407-1.093c.264-.291.623-.456.999-.459.186-.001.37.038.543.114.172.076.329.189.461.331.133.142.239.311.311.498.073.186.111.387.112.589.003.409-.144.802-.407 1.093a1.36 1.36 0 0 1-.999.458"/><path fill="#5A2F30" d="M45.56 122.143c3.169 3.489-.001 11.72-1.757 15.111q-.614 1.191-.063-.028c1.847-4.076 4.289-11.095 1.755-15.034a.04.04 0 0 1-.007-.03.04.04 0 0 1 .016-.027.04.04 0 0 1 .03-.008q.016.003.027.016"/><path fill="#C9836D" d="M105.827 141.638a38 38 0 0 0-4.797-4.706c.061-.094.1-.153.088-.273q-.345-3.312 2.451-5.032c1.041-.641 2.327-1.411 3.587-1.24a.13.13 0 0 1 .063.025.13.13 0 0 1 .056.12.14.14 0 0 1-.021.065c-2.119 3.285-2.111 6.981-1.196 10.784a.21.21 0 0 1-.043.19q-.066.081-.188.067"/><path fill="#5A2F30" d="M92.484 158.568c-.892-2.01-2.721-1.837-3.968-.324q-1.343 1.629-2.12 3.327-.052.115-.022-.006a14.64 14.64 0 0 1 2.87-5.762c3.231-3.984 8.632-3.672 12.296-.465a7.7 7.7 0 0 1 1.533 1.795q.118.194-.069.063c-1.702-1.195-4.372-2.569-6.389-1.817-1.59.595-1.48 2.302-1.037 3.64q2.298 6.963 8.12 11.041c9.816 6.875 22.694 7.593 33.359 2.147q.32-.163.037.059-.339.267-.919.545c-7.444 3.562-15.794 5.884-23.951 3.36q-13.837-4.284-19.74-17.603"/><path fill="#C7C3C5" d="M8.768 206.173c-5.209 2.233-11.638 4.229-17.35 4.072q-.126-.002-.05-.104a.7.7 0 0 1 .246-.204.16.16 0 0 0 .004.081q.025.083.11.066 1.038-.215 1.366-.359c5.042-2.219 9.196-5.687 13.14-9.459A203 203 0 0 0 23.06 182.09a.07.07 0 0 1 .04-.023.07.07 0 0 1 .045.009q.021.012.03.035a.07.07 0 0 1 0 .046 87.8 87.8 0 0 1-14.408 24.016m217.898-2.702a2.2 2.2 0 0 1-.451.402c-6.515 4.688-14.374 8.015-22.604 7.536a11 11 0 0 0-1.635.025l-10.463-13.175q-.225-.28.047-.044c9.846 8.586 22.779 9.063 34.684 5.224q.098-.031.422.032m-10.308-2.498c1.196-.087 3.144.563 4.362.83 1.335.292 3.37.528 5.028 1.04a20 20 0 0 1-3.636-.573.07.07 0 0 0-.065.021l-.037.036a.04.04 0 0 1-.028.011 37 37 0 0 1-5.624-1.365M26.161 237.362a1 1 0 0 0-.194.02c-17.105 3.683-34.985 3.071-52.358.141.612-.178 1.202.026 1.684.018 1.794-.033 3.688.006 5.374-.098q6.357-.395 11.266-1.551c14.606-3.442 28.676-10.014 41.242-18.449a.05.05 0 0 1 .03-.01q.018 0 .031.01a.06.06 0 0 1 .02.061 195 195 0 0 1-7.095 19.858m217.956 22.029a88 88 0 0 1-16.915 4.288q-.018.002-.755.206c-.453.125-.788-.039-1.203.021-11 1.576-22.434.632-32.589-4.097a.08.08 0 0 0-.072.004l-.049.029c-.767-2.761-1.524-5.638-2.345-8.27q-4.5-14.433-10.828-28.848a27 27 0 0 0-.556-1.208q-.024-.048.029-.042.043.002.065.04c13.664 22.356 36.217 36.281 62.503 37.537.699.032 1.556.02 2.133-.013q.463-.026.582.353m-42.507 60.543a.16.16 0 0 1-.103.04q-13.59.248-27.013-1.869-.128-.02-.777-.007c-.455.011-.682-.195-1.049-.254-35.668-5.632-68.707-21.072-94.72-46.111a.1.1 0 0 0-.066-.031.12.12 0 0 0-.073.019c-15.747 10.668-33.973 18.292-52.697 21.275q-1.371.219-6.138.624c-11.608.987-23.383-.552-34.138-5.122.265-.006.49-.081.749-.043 21.24 3.146 42.311.127 59.196-13.845 15.466-12.796 30.36-44.222 34.58-63.666.003-.015-.012.01 0 0 .014-.002-.014-.006 0 0 .013.007-.008-.013 0 0 22.285 56.063 61.401 94.761 109.934 106.473 2.235.541 6.164 1.511 9.52 1.98q1.427.202 2.86.477.024.007-.014.017a.07.07 0 0 0-.051.043"/></g><defs><clipPath id="clip0_4193_3444"><rect width="256" height="256" fill="#fff" rx="128"/></clipPath></defs></svg>