<svg xmlns="http://www.w3.org/2000/svg" fill="none" viewBox="0 0 256 256"><path fill="url(#paint0_linear_4232_4898)" fill-rule="evenodd" d="M128 256c70.692 0 128-57.308 128-128S198.692 0 128 0 0 57.308 0 128s57.308 128 128 128" clip-rule="evenodd"/><path fill="#fff" d="M151.092 74.187a6.93 6.93 0 0 1 3.209-3.035c1.894-.87 3.809-.958 5.572.283a4.26 4.26 0 0 1 1.38 1.654c1.588 3.426 3.169 6.858 4.62 10.354 2.331 5.647 5.489 10.896 8.069 16.429q5.498 11.803 11.087 23.554c2.134 4.485 4.156 9.071 6.838 13.297a32 32 0 0 0 2.404 3.196c.365.416.821.746 1.332.968 3.912 1.781 8.125 2.122 12.325 2.383 2.143.136 4.247-.151 6.374-.152 4.078.007 8.155.014 12.211.153 2.687.096 5.372.404 8.045.682 1.032.144 2.055.357 3.059.64.418.117.823.28 1.205.486 2.18 1.11 2.616 2.972 1.114 4.862a12.9 12.9 0 0 1-4.723 3.734 66.4 66.4 0 0 1-12.296 4.11 230 230 0 0 0-12.412 3.403 120 120 0 0 1-19.254 4.347c-4.347.558-8.729.831-13.114.818-3.943.015-7.881-.281-11.835-.424-6.032-.221-12.046-.666-18.07-1.156a71.7 71.7 0 0 0-26.116 2.909c-5.698 1.658-11.418 3.257-17.095 5.059-2.675.848-5.262 2.074-7.814 3.176-3.372 1.445-6.708 3.007-10.112 4.406-8.288 3.443-16.92 5.623-26.021 5.654a83.6 83.6 0 0 1-14.287-.891c-2.823-.486-5.676-.706-8.447-1.668-8.878-3.133-14.795-9.003-16.897-18.182-.57-2.388-.59-4.87-.06-7.264a16.3 16.3 0 0 1 3.12-6.572c1.496-1.962 2.938-4.029 4.548-5.929a36.4 36.4 0 0 1 11.75-9.306 36 36 0 0 1 13.56-3.773 46 46 0 0 1 9.1.046c1.03.113 2.043.38 3.068.549l1.535.168q.191-.554.29-1.131c.232-3.241.436-6.485.654-9.727a38 38 0 0 0 .172-2.56c.073-1.714.088-3.427.195-5.13.242-3.793.2-7.616 1.042-11.357a10 10 0 0 0 .195-1.786c.125-2.976 1.19-5.68 2.464-8.318q.19-.409.445-.78a37.3 37.3 0 0 1 8.787-8.455 70.9 70.9 0 0 1 21.538-10.042 97 97 0 0 1 16.483-3.07 64.3 64.3 0 0 1 15.449.514c1.762.271 3.54.515 5.289.636 3.039.198 6.033.844 8.881 1.915.354.123.691.195 1.144.323M72.09 134.155c.558.224 1.104.49 1.683.659a3813 3813 0 0 0 12.812 3.847l.628.111a4.3 4.3 0 0 0-1.516-.74c-3.195-.966-6.376-1.937-9.582-2.869-1.324-.386-2.681-.669-4.019-1-.261-1.687-.113-1.989 1.437-2.677.674-.309 1.356-.56 2.023-.877a145.8 145.8 0 0 1 32.27-9.781 212 212 0 0 1 25.564-3.182 173 173 0 0 1 22.131-.143 94 94 0 0 1 16.891 2.324 42.3 42.3 0 0 1 7.418 2.406 3.9 3.9 0 0 1 1.958 1.823c1.139 2.215 2.344 4.402 3.528 6.6l5.319 9.885c.191.354.556.706.121 1.331-.932-.286-1.925-.55-2.887-.889a75 75 0 0 0-15.33-3.521c-5.16-.692-10.369-1.135-15.568-1.47-4.107-.258-8.243-.194-12.367-.227a71 71 0 0 0-7.417.145c-4.58.448-9.135 1.126-13.697 1.675l-22.335 2.862c-.248.03-.491.081-.732.118l-.03.266a59 59 0 0 1 9.841 2.084c-2.022-.122-4.03-.371-6.045-.556s-4.061-.281-6.103-.484-3.885-.85-5.912-.59c.416.305.873.55 1.358.73a111 111 0 0 0 11.854 3.926c5.517 1.376 10.993 2.932 16.476 4.418 1.97.527 3.921 1.173 5.926 1.513 3.247.554 6.526.955 9.803 1.314 2.331.255 4.674.398 7.014.576 1.911.146 3.806.247 5.711.384 4.686.357 9.373.318 14.062.25 7.341-.089 14.662-.74 21.897-1.947 2.472-.438 4.904-1.099 7.334-1.755 2.223-.592 4.379-1.369 6.595-1.97 3.792-1.002 7.672-.577 11.543-.324.993.059 1.979.252 2.97.396 1.289.191 2.563.444 3.858.571 2.672.293 5.356.53 8.044.682 2.509.14 5.013.202 7.547.175a15 15 0 0 0 3.19-.558 3.3 3.3 0 0 0 1.244-.658c1.057-.855.995-1.854-.23-2.434a10.8 10.8 0 0 0-3.088-.947 75.6 75.6 0 0 0-11.553-.84c-1.736.023-3.474.066-5.208.068-1.129-.003-2.259-.063-3.391-.095 2.204.567 4.425.973 6.636 1.4 2.043.393 4.083.808 6.122 1.229a10 10 0 0 1 1.24.441l-.072.254c-.289.011-.58.043-.865.026a60 60 0 0 1-2.471-.164c-2.684-.244-5.368-.432-8.034-.78s-5.485-.877-8.229-1.298c-2.533-.391-5.084-.677-7.602-1.123a47.6 47.6 0 0 1-9.059-2.656 2.77 2.77 0 0 1-1.525-1.308c-2.571-4.773-5.217-9.506-7.74-14.31-2.84-5.398-5.603-10.844-8.365-16.291-2.083-4.103-4.18-8.201-6.142-12.356a1272 1272 0 0 1-8.211-17.96c-.889-1.996-1.981-3.916-2.21-6.095-1.75-.694-4.375-.04-5.447 1.338 1.345.856 3.22.615 4.605 2.085-.398.2-.826.34-1.268.413a10 10 0 0 1-2.183-.288c-1.681-.418-3.314-1.071-5.019-1.393-2.893-.571-5.816-1.005-8.727-1.48a49.7 49.7 0 0 0-9.087-.562c-3.337.06-6.693-.024-10.024.115-10.941.545-21.121 3.796-30.85 8.569a63.3 63.3 0 0 0-9.04 5.579 12 12 0 0 0-4.023 4.626c-2.577 5.478-3.562 11.322-3.927 17.283a865 865 0 0 1-.598 9.472 833 833 0 0 1-.728 9.344 99 99 0 0 0-.37 3.835c-.193.524-.28 1.046.173 1.45m165.043 16.556c-1.224.419-2.423.918-3.671 1.221a27 27 0 0 1-4.844.887c-3.178.183-6.315-.394-9.457-.794-3.142-.401-6.109-.825-9.162-1.258a14.7 14.7 0 0 0-4.535.162c-3.531.592-6.812 1.99-10.228 2.969-2.035.585-4.047 1.293-6.113 1.768-2.781.645-5.623 1.043-8.412 1.687a51 51 0 0 1-10.613.964c-5.308.071-10.58-.393-15.869-.688-2.945-.167-5.894-.171-8.847-.26-3.301-.135-6.602-.198-9.88-.543-2.885-.316-5.741-.905-8.602-1.445a64.4 64.4 0 0 1-9.545-2.554c-5.324-1.879-10.644-3.744-16.013-5.48a906 906 0 0 0-20.638-6.411c-5.32-1.595-10.662-3.122-16.047-4.512a23.6 23.6 0 0 0-6.183-.741 35.15 35.15 0 0 0-14.212 3.348 71 71 0 0 0-7.643 4.123 36 36 0 0 0-5.375 4.031 25.2 25.2 0 0 0-7.49 13.096 13.93 13.93 0 0 0 1.513 10.433 26.7 26.7 0 0 0 5.9 6.81q.232.182.489.33a12.5 12.5 0 0 0-1.525-2.236 24.4 24.4 0 0 1-4.157-7.094c-1.273-3.746-1.232-7.405.792-10.917a17.9 17.9 0 0 1 5.615-5.763c4.141-2.813 8.817-4.398 13.656-5.505a93.4 93.4 0 0 1 19.729-2.439c2.816-.032 5.635.036 8.457.075 1.651.025 3.309-.006 4.945.159 2.811.195 5.607.57 8.37 1.122 3.03.714 5.96 1.864 8.915 2.86 6.091 2.048 12.183 4.076 18.244 6.199a92 92 0 0 0 15.213 3.989 143 143 0 0 0 19.458 1.613c4.122.125 8.244.307 12.362.403 2.948.075 5.915.237 8.85.034 7.022-.479 13.995-1.303 20.767-3.325 2.618-.783 5.256-1.486 7.865-2.271 1.325-.4 2.604-.983 3.938-1.34 4.359-1.188 8.78-.704 13.187-.236 1.464.16 2.909.496 4.374.642 1.466.146 2.949.131 4.414.278 1.772.165 3.557.142 5.323-.07 2.64-.27 4.708-1.61 6.668-3.223z"/><path fill="#fff" d="M101.955 88.258c-.306-.232-.816-.43-.912-.737-.096-.308.185-.774.421-1.088.241-.246.529-.443.847-.58a37.5 37.5 0 0 1 9.693-3.984c2.052-.484 4.147-.963 6.218-1.36a4.1 4.1 0 0 1 1.289-.015.65.65 0 0 1 .439.395.8.8 0 0 1-.312.618c-.48.21-.98.374-1.492.489q-3.201.861-6.408 1.707a8.4 8.4 0 0 0-3.79 2.164 7.15 7.15 0 0 1-3.489 1.85c-.778.206-1.577.352-2.504.541m66.102 13.343a3.72 3.72 0 0 1-2.44-.975 21 21 0 0 1-2.559-2.18 48.2 48.2 0 0 1-7.125-9.282 4.4 4.4 0 0 1-.542-1.157.93.93 0 0 1 .187-.795.9.9 0 0 1 .824-.1c.348.165.652.41.886.713.845 1.084 1.618 2.238 2.516 3.293 1.959 2.34 3.979 4.645 5.953 6.98a49 49 0 0 1 1.973 2.546q.215.462.327.957M60.942 136.846q.62.015 1.23.135a4502 4502 0 0 1 15.348 4.33c.238.066.455.192.629.366-6.033-.533-11.652-2.558-17.344-4.3z"/><defs><linearGradient id="paint0_linear_4232_4898" x1="-12.762" x2="232.078" y1="113.946" y2="29.626" gradientUnits="userSpaceOnUse"><stop stop-color="#DE6B38"/><stop offset="1" stop-color="#7163BB"/></linearGradient></defs></svg>