<svg xmlns="http://www.w3.org/2000/svg" fill="none" viewBox="0 0 256 256"><path fill="#152E2E" d="M128 256c70.934 0 128-57.066 128-128S198.934 0 128 0C93.69 0 62.626 13.35 39.694 35.163L100.675 35l17.197.058-.093 27.753 13.849.047.092-27.753 17.328.058-.094 28.278c22.407 2.175 40.105 9.124 42.006 29.667 1.361 15.03-4.904 24.194-14.996 29.114 16.56 4.025 26.897 13.902 24.756 35.94-2.65 27.384-23.086 34.532-52.365 36.205l.693 28.633-18.149-.085.095-28.376-13.849-.047L117.05 223l-17.327-.058-57.707.05C64.702 243.526 94.836 256 128 256"/><path fill="url(#paint0_linear_9890_1807)" fill-rule="evenodd" d="m99.723 222.942-57.707.05C16.179 199.607 0 165.769 0 128c0-36.625 15.213-69.552 39.694-92.837L100.675 35l-.094 28.475-35.147-.118-.062 18.535s12.8-.187 12.602.042a8.96 8.96 0 0 1 9.82 7.644l-.26 77.946a6.07 6.07 0 0 1-2.114 4.225 6 6 0 0 1-4.468 1.494c.23.198-12.602-.042-12.602-.042L65 193.89l34.819.117zm18.049-49.411.127-38.185c1.203.007 2.669-.021 4.332-.052h.002c14.584-.273 44.305-.83 44.238 19.341-.066 19.756-31.151 19.197-45.337 18.942h-.004c-1.265-.022-2.395-.043-3.358-.046m.218-55.572.115-34.708c.98.003 2.171-.024 3.521-.055 12.12-.274 37.045-.838 36.983 17.611-.059 17.993-25.782 17.45-37.669 17.199h-.003c-1.115-.023-2.108-.044-2.947-.047" clip-rule="evenodd"/><path fill="#C3FBF1" fill-rule="evenodd" d="M190.96 93.108c-1.901-20.543-19.599-27.492-42.006-29.667l.094-28.278-17.328-.058-.092 27.753-13.849-.047.093-27.753L100.675 35l-.094 28.475-35.147-.118-.062 18.535s12.8-.187 12.602.042a8.96 8.96 0 0 1 9.82 7.644l-.26 77.946a6.07 6.07 0 0 1-2.114 4.225 6 6 0 0 1-4.468 1.494c.23.198-12.602-.042-12.602-.042L65 193.89l34.819.117-.096 28.935 17.327.058.095-28.508 13.849.047-.095 28.376 18.149.085-.693-28.633c29.279-1.673 49.715-8.821 52.365-36.205 2.141-22.038-8.196-31.915-24.756-35.94 10.092-4.92 16.357-14.084 14.996-29.114m-73.061 42.238-.127 38.185c.963.003 2.093.024 3.358.046h.004c14.186.255 45.271.814 45.337-18.942.067-20.171-29.654-19.614-44.238-19.341h-.002c-1.663.031-3.129.059-4.332.052m.206-52.095-.115 34.708c.839.003 1.832.024 2.947.047h.003c11.887.251 37.61.794 37.669-17.199.062-18.45-24.863-17.885-36.983-17.61-1.35.03-2.541.057-3.521.053" clip-rule="evenodd"/><defs><linearGradient id="paint0_linear_9890_1807" x1="201.5" x2="0" y1="128" y2="128" gradientUnits="userSpaceOnUse"><stop stop-color="#3CB19B"/><stop offset="1" stop-color="#305F58"/></linearGradient></defs></svg>
