<svg xmlns="http://www.w3.org/2000/svg" fill="none" viewBox="0 0 512 512"><path fill="#FFD600" d="M256 512c141.385 0 256-114.615 256-256S397.385 0 256 0 0 114.615 0 256s114.615 256 256 256"/><path fill="#fff" d="m294.823 238.199-20.406 2.229q-.867-3.097-3.031-5.821-2.102-2.725-5.689-4.396-3.587-1.673-8.781-1.673-6.989 0-11.75 3.034-4.7 3.036-4.638 7.865-.063 4.15 3.029 6.75 3.154 2.6 10.39 4.273l16.203 3.467q9.58 2.069 15.662 5.858 2.477 1.542 4.373 3.37 6.617 6.317 6.679 16.535-.06 8.978-5.257 15.854-3.913 5.193-10.163 8.658a42 42 0 0 1-4.122 1.992q-9.151 3.84-21.025 3.84-17.44 0-28.076-7.308-7.051-4.885-10.325-12.302-1.664-3.771-2.351-8.196l21.829-2.106q1.485 6.441 6.307 9.723 4.823 3.282 12.554 3.282 7.979 0 12.801-3.282 4.885-3.281 4.885-8.112 0-4.088-3.154-6.749-3.092-2.663-9.647-4.088l-16.201-3.406q-13.073-2.725-19.64-9.02-.298-.285-.583-.579-6.555-6.811-6.493-17.216-.06-8.793 4.761-15.234a28 28 0 0 1 2.418-2.804q4.438-4.501 11.126-7.228 8.72-3.591 20.097-3.591 16.7 0 26.282 7.121 7.705 5.688 10.716 14.574a34.5 34.5 0 0 1 1.22 4.686"/><path fill="#fff" fill-rule="evenodd" d="M225.382 222.637q4.438-4.501 11.126-7.228 8.72-3.591 20.097-3.591 16.7 0 26.282 7.121 7.705 5.688 10.716 14.574a34.5 34.5 0 0 1 1.22 4.686l-20.406 2.229q-.867-3.097-3.031-5.821-2.102-2.725-5.689-4.396-3.587-1.673-8.781-1.673-6.989 0-11.75 3.034-4.7 3.036-4.638 7.865-.063 4.15 3.029 6.75 3.154 2.6 10.39 4.273l16.203 3.467q9.58 2.069 15.662 5.858 2.477 1.542 4.373 3.37 6.617 6.317 6.679 16.535-.06 8.978-5.257 15.854-3.913 5.193-10.163 8.658a42 42 0 0 1-4.122 1.992q-9.151 3.84-21.025 3.84-17.44 0-28.076-7.308-7.051-4.885-10.325-12.302-1.664-3.771-2.351-8.196l21.829-2.106q1.485 6.441 6.307 9.723 4.823 3.282 12.554 3.282 7.979 0 12.801-3.282 4.885-3.281 4.885-8.112 0-4.088-3.154-6.749-3.092-2.663-9.647-4.088l-16.201-3.406q-13.073-2.725-19.64-9.02-.298-.285-.583-.579-6.555-6.811-6.493-17.216-.06-8.793 4.761-15.234a28 28 0 0 1 2.418-2.804m.277-32.788c2.314-47.353 15.906-87.397 78.122-106.16-98.22-30.4-209.94 41.504-234.6 135.634-15.364 58.643 4.889 116.384 49.167 130.089 28.555 8.839 65.59-4.947 87.893-37.011-14.563-13.672-23.662-33.111-23.662-54.678 0-30.018 17.626-55.914 43.08-67.874m52.52 139.884c-7.554 45.049-25.941 81.609-87.945 93.227 94.559 40.817 213.032-18.649 247.207-109.602 21.293-56.662 7.071-116.266-35.555-134.666-27.339-11.801-65.31-2.255-90.776 26.846 13.077 13.492 21.128 31.897 21.128 52.185 0 34.168-22.836 62.995-54.059 72.01" clip-rule="evenodd"/></svg>