<svg xmlns="http://www.w3.org/2000/svg" fill="none" viewBox="0 0 256 256"><path fill="#FFD600" d="M128 256c70.692 0 128-57.308 128-128S198.692 0 128 0 0 57.308 0 128s57.308 128 128 128"/><path fill="#fff" d="m147.411 119.099-10.203 1.115q-.433-1.549-1.515-2.91-1.052-1.363-2.844-2.199-1.795-.836-4.391-.836-3.495 0-5.875 1.517-2.35 1.517-2.319 3.932-.03 2.076 1.515 3.375 1.576 1.301 5.195 2.137l8.101 1.734q4.79 1.033 7.831 2.928a13.2 13.2 0 0 1 2.187 1.686q3.308 3.158 3.339 8.267-.03 4.488-2.629 7.927-1.956 2.596-5.081 4.329-.973.54-2.061.996-4.576 1.92-10.513 1.92-8.72 0-14.038-3.654-3.525-2.442-5.162-6.151a16.3 16.3 0 0 1-1.176-4.098l10.915-1.053q.742 3.22 3.153 4.862t6.278 1.641q3.988 0 6.4-1.641 2.443-1.642 2.443-4.056 0-2.044-1.578-3.375-1.544-1.332-4.823-2.044l-8.101-1.703q-6.537-1.362-9.819-4.51-.15-.143-.292-.289-3.277-3.406-3.247-8.608-.03-4.397 2.381-7.618.555-.74 1.209-1.402 2.219-2.25 5.563-3.613 4.36-1.796 10.049-1.796 8.349 0 13.141 3.56 3.852 2.844 5.357 7.287.38 1.12.61 2.343"/><path fill="#fff" fill-rule="evenodd" d="M112.691 111.318q2.219-2.25 5.563-3.613 4.36-1.796 10.049-1.796 8.349 0 13.141 3.56 3.852 2.844 5.357 7.287.38 1.12.61 2.343l-10.203 1.115q-.433-1.549-1.515-2.91-1.052-1.363-2.844-2.199-1.795-.836-4.391-.836-3.495 0-5.875 1.517-2.35 1.517-2.319 3.932-.03 2.076 1.515 3.375 1.576 1.301 5.195 2.137l8.101 1.734q4.79 1.033 7.831 2.928a13.2 13.2 0 0 1 2.187 1.686q3.308 3.158 3.339 8.267-.03 4.488-2.629 7.927-1.956 2.596-5.081 4.329-.973.54-2.061.996-4.576 1.92-10.513 1.92-8.72 0-14.038-3.654-3.525-2.442-5.162-6.151a16.3 16.3 0 0 1-1.176-4.098l10.915-1.053q.742 3.22 3.153 4.862t6.278 1.641q3.988 0 6.4-1.641 2.443-1.642 2.443-4.056 0-2.044-1.578-3.375-1.544-1.332-4.823-2.044l-8.101-1.703q-6.537-1.362-9.819-4.51-.15-.143-.292-.289-3.277-3.406-3.247-8.608-.03-4.397 2.381-7.618.555-.74 1.209-1.402m.138-16.394c1.158-23.676 7.953-43.698 39.061-53.079-49.109-15.2-104.97 20.751-117.3 67.816-7.682 29.322 2.445 58.192 24.584 65.045 14.278 4.42 32.795-2.474 43.946-18.506-7.281-6.835-11.83-16.555-11.83-27.339 0-15.009 8.813-27.956 21.539-33.937m26.261 69.942c-3.777 22.525-12.971 40.805-43.973 46.614 47.279 20.408 106.516-9.324 123.603-54.801 10.647-28.331 3.536-58.133-17.777-67.333-13.67-5.9-32.655-1.127-45.388 13.423 6.538 6.746 10.564 15.948 10.564 26.092 0 17.084-11.418 31.498-27.029 36.005" clip-rule="evenodd"/></svg>