<svg xmlns="http://www.w3.org/2000/svg" fill="none" viewBox="0 0 256 256"><path fill="#1C1C8C" d="M128 256c70.934 0 128-57.066 128-128S198.934 0 128 0 0 57.066 0 128s57.066 128 128 128"/><path fill="#F8F8FA" fill-rule="evenodd" d="M118.709 31.641c-39.19 5.476-65.484 42.98-57.172 81.55 5.08 23.571 21.259 41.653 44.812 50.083 5.238 1.876 5.526 2.085 13.043 9.473 9.479 9.316 7.313 9.694 20.619-3.591 11.137-11.121 11.126-11.105 10.284-13.249-.453-1.154-19.313-20.16-20.74-20.9-2.16-1.122-2.883-.726-8.19 4.485-6.564 6.444-7.314 6.575-15.093 2.644-33.265-16.813-36.043-62.86-5.04-83.535 29.584-19.73 69.717-1.566 74.664 33.791.889 6.35 1.055 6.454 10.342 6.454 9.872 0 10.305-.479 8.935-9.882-5.315-36.473-39.936-62.427-76.464-57.323m7.102 45.521c-2.927 2.164-20.198 20-20.394 21.06-.347 1.88.14 2.482 10.189 12.589 13.123 13.198 11.782 12.792 18.971 5.737 6.623-6.499 7.121-6.569 15.673-2.213 30.326 15.448 35.147 58.024 9.031 79.759-29.436 24.498-73.775 7.562-79.297-30.289-.95-6.515-1.03-6.566-10.35-6.566-9.871 0-10.304.479-8.934 9.883 7.968 54.684 75.122 77.198 114.732 38.465 36.325-35.521 22.581-95.434-25.868-112.763-5.277-1.887-5.621-2.135-12.813-9.205-8.292-8.153-8.49-8.27-10.94-6.457" clip-rule="evenodd"/></svg>
