<svg xmlns="http://www.w3.org/2000/svg" fill="none" viewBox="0 0 512 512"><path fill="#1C1C8C" d="M256 512c141.868 0 256-114.132 256-256S397.868 0 256 0 0 114.132 0 256s114.132 256 256 256"/><path fill="#F8F8FA" fill-rule="evenodd" d="M237.417 63.282c-78.38 10.952-130.966 85.962-114.343 163.1 10.161 47.141 42.517 83.306 89.625 100.167 10.476 3.751 11.05 4.168 26.086 18.945 18.957 18.631 14.624 19.387 41.236-7.183 22.275-22.241 22.253-22.21 20.569-26.497-.906-2.308-38.626-40.32-41.479-41.8-4.322-2.243-5.766-1.453-16.381 8.97-13.128 12.888-14.628 13.151-30.187 5.287-66.528-33.624-72.084-125.72-10.079-167.069 59.169-39.459 139.434-3.132 149.328 67.583 1.777 12.699 2.11 12.908 20.684 12.908 19.743 0 20.61-.959 17.87-19.766-10.63-72.944-79.872-124.854-152.929-114.645m14.205 91.042c-5.854 4.328-40.396 39.999-40.787 42.121-.695 3.759.278 4.962 20.378 25.176 26.245 26.397 23.562 25.585 37.942 11.475 13.246-12.998 14.241-13.139 31.344-4.426 60.654 30.896 70.295 116.048 18.063 159.518-58.872 48.995-147.55 15.123-158.594-60.579-1.9-13.029-2.061-13.131-20.699-13.131-19.743 0-20.61.958-17.869 19.765 15.937 109.369 150.245 154.397 229.464 76.932 72.651-71.042 45.162-190.87-51.736-225.527-10.553-3.774-11.242-4.269-25.626-18.41-16.585-16.306-16.979-16.539-21.88-12.914" clip-rule="evenodd"/></svg>