<svg xmlns="http://www.w3.org/2000/svg" fill="none" viewBox="0 0 256 256"><path fill="#E5D540" d="M128 256c70.692 0 128-57.308 128-128S198.692 0 128 0 0 57.308 0 128s57.308 128 128 128"/><path fill="#000" d="M128.495 52.624c2.517 9.585 6.319 18.666 11.253 26.957a207 207 0 0 1 5.471-4.146A98.05 98.05 0 0 1 131.892 26h-6.795a98.05 98.05 0 0 1-13.327 49.435 231 231 0 0 1 5.47 4.146c4.935-8.291 8.737-17.372 11.255-26.957m52.57 58.647a73 73 0 0 1-5.814-3.64c-2.043-1.365-3.974-2.821-5.885-4.348a80 80 0 0 1-5.238-4.418 116 116 0 0 1-6.491-6.492c-1.77 1.254-3.6 2.649-5.44 4.115a90 90 0 0 0 7.816 7.786c1.668 1.527 3.397 3.024 5.197 4.419 1.901 1.527 3.873 2.962 5.885 4.348a120 120 0 0 0 5.814 3.7 105.4 105.4 0 0 0 26.957 11.255 105.2 105.2 0 0 0-26.957 11.254 139 139 0 0 0-5.814 3.701c-2.002 1.395-3.974 2.821-5.885 4.348a81 81 0 0 0-5.197 4.419 90 90 0 0 0-7.816 7.785c1.84 1.467 3.67 2.852 5.44 4.116a116 116 0 0 1 6.491-6.492 80 80 0 0 1 5.238-4.419c1.901-1.526 3.842-2.993 5.885-4.348a73 73 0 0 1 5.814-3.64c14.55-8.463 31.416-13.327 49.435-13.327v-6.795c-18.019 0-34.885-4.863-49.435-13.327M81.749 148.36c2.042 1.365 3.974 2.822 5.885 4.348a80 80 0 0 1 5.238 4.419 116 116 0 0 1 6.492 6.492 122 122 0 0 0 5.439-4.116 90 90 0 0 0-7.816-7.785c-1.668-1.527-3.397-3.024-5.197-4.419a99 99 0 0 0-5.885-4.348 120 120 0 0 0-5.814-3.701 105.3 105.3 0 0 0-26.957-11.254 105.2 105.2 0 0 0 26.957-11.255 138 138 0 0 0 5.814-3.7c2.002-1.396 3.974-2.821 5.885-4.348a81 81 0 0 0 5.197-4.419 90 90 0 0 0 7.816-7.786 130 130 0 0 0-5.44-4.115 116 116 0 0 1-6.491 6.492 80 80 0 0 1-5.238 4.418c-1.901 1.527-3.843 2.993-5.885 4.348a73 73 0 0 1-5.814 3.64c-14.55 8.464-31.416 13.327-49.435 13.327v6.795c18.019 0 34.885 4.864 49.435 13.327a73 73 0 0 1 5.814 3.64m46.746 55.016c-2.518-9.585-6.32-18.666-11.255-26.957a206 206 0 0 1-5.47 4.146A98.05 98.05 0 0 1 125.097 230h6.795a98.05 98.05 0 0 1 13.327-49.435 231 231 0 0 1-5.471-4.146c-4.934 8.291-8.736 17.372-11.253 26.957"/><path fill="#000" d="M179.153 153.942a80 80 0 0 0-5.885 4.388c8.433 12.68 12.305 22.741 14.005 28.454-5.713-1.698-15.774-5.571-28.454-14.004a262 262 0 0 1-5.612-3.913 158 158 0 0 1-5.41-4.146 259 259 0 0 1-5.268-4.348 308 308 0 0 1-3.872-3.438h-.031a205 205 0 0 1-4.934-4.662l19.07-19.07a223 223 0 0 1 4.661 4.935h.03c1.153 1.324 2.316 2.618 3.398 3.913a87 87 0 0 1 5.885-4.348c-1.294-1.527-2.649-3.095-4.146-4.692-1.466-1.597-2.993-3.337-4.621-4.995 1.628-1.669 3.165-3.398 4.621-4.995a124 124 0 0 0 4.146-4.692 97 97 0 0 1-5.885-4.348c-1.092 1.294-2.245 2.589-3.398 3.913h-.03a201 201 0 0 1-4.661 4.935l-19.07-19.071a206 206 0 0 1 4.934-4.661h.031a308 308 0 0 1 3.872-3.438 231 231 0 0 1 5.268-4.348 156 156 0 0 1 5.41-4.146 258 258 0 0 1 5.612-3.913c12.68-8.433 22.741-12.306 28.454-14.004-1.7 5.713-5.572 15.773-14.005 28.453a79 79 0 0 0 5.885 4.389c14.652-21.79 16.522-36.483 16.623-37.302l.546-4.59-4.59.546c-.819.1-15.501 1.971-37.302 16.623-1.799 1.194-3.67 2.477-5.571 3.913a132 132 0 0 0-5.41 4.146 141 141 0 0 0-5.308 4.388 97 97 0 0 0-4.661 4.116h-.031a159 159 0 0 0-4.935 4.661l-.03-.03-.03.03c-1.669-1.628-3.297-3.195-4.935-4.661h-.03a98 98 0 0 0-4.661-4.116 136 136 0 0 0-5.308-4.388 133 133 0 0 0-5.41-4.146 117 117 0 0 0-5.572-3.913c-21.79-14.652-36.482-16.522-37.301-16.623l-4.59-.546.545 4.59c.102.82 1.972 15.502 16.624 37.302a80 80 0 0 0 5.884-4.389c-8.432-12.68-12.305-22.74-14.004-28.453 5.713 1.698 15.774 5.571 28.454 14.004a261 261 0 0 1 5.612 3.913 156 156 0 0 1 5.409 4.146 255 255 0 0 1 5.268 4.348 315 315 0 0 1 3.873 3.438h.03a207 207 0 0 1 4.935 4.661l-19.07 19.071a222 222 0 0 1-4.662-4.935h-.03c-1.153-1.324-2.315-2.619-3.398-3.913a87 87 0 0 1-5.884 4.348 125 125 0 0 0 4.145 4.692c1.466 1.597 2.993 3.336 4.621 4.995-1.628 1.668-3.165 3.398-4.62 4.995-1.497 1.597-2.852 3.165-4.146 4.692a97 97 0 0 1 5.884 4.348c1.093-1.295 2.245-2.589 3.398-3.913h.03a201 201 0 0 1 4.662-4.935l19.07 19.07a208 208 0 0 1-4.935 4.662h-.03a315 315 0 0 1-3.873 3.438 225 225 0 0 1-5.268 4.348 158 158 0 0 1-5.409 4.146 265 265 0 0 1-5.612 3.913c-12.68 8.433-22.74 12.306-28.454 14.004 1.699-5.713 5.572-15.774 14.004-28.454a79 79 0 0 0-5.884-4.388c-14.652 21.79-16.522 36.482-16.624 37.301l-.546 4.591 4.591-.546c.82-.101 15.5-1.972 37.301-16.623 1.8-1.194 3.671-2.478 5.572-3.914a132 132 0 0 0 5.41-4.146 140 140 0 0 0 5.308-4.388 97 97 0 0 0 4.661-4.115h.03a160 160 0 0 0 4.935-4.661l.03.03.03-.03c1.669 1.628 3.297 3.195 4.935 4.661h.031a98 98 0 0 0 4.661 4.115 134 134 0 0 0 5.308 4.388 131 131 0 0 0 5.41 4.146 118 118 0 0 0 5.571 3.914c21.79 14.651 36.483 16.522 37.302 16.623l4.59.546-.546-4.591c-.101-.819-1.971-15.501-16.623-37.301m-50.658-6.795-19.152-19.151 19.152-19.152 19.151 19.152z"/></svg>