<svg xmlns="http://www.w3.org/2000/svg" fill="none" viewBox="0 0 512 512"><path fill="#fff" d="M256 512c141.385 0 256-114.615 256-256S397.385 0 256 0 0 114.615 0 256s114.615 256 256 256Z"/><path fill="#2EB6EA" d="M257.626 405.825c82.496 0 149.373-66.894 149.373-149.412 0-82.519-66.877-149.413-149.373-149.413-82.497 0-149.374 66.894-149.374 149.413 0 82.518 66.877 149.412 149.374 149.412Z"/><path fill="#1542CD" d="M256.813 405.825c-148.563 0-207.195-195.493-75.971-277.88-15.606 163.392 67.411 167.006 144.447 163.392 129.085-6.056 129.172 114.488 129.172 114.488H256.813Z"/><path fill="#745DDF" fill-rule="evenodd" d="M398.819 305.29c-22.473 57.614-77.737 98.812-142.847 100.646 1.53.042 3.071.064 4.621.064H457s-.051-70.653-58.181-100.71Z" clip-rule="evenodd"/></svg>