<svg xmlns="http://www.w3.org/2000/svg" fill="none" viewBox="0 0 256 256"><path fill="#fff" d="M128 256c70.692 0 128-57.308 128-128S198.692 0 128 0 0 57.308 0 128s57.308 128 128 128"/><path fill="#2EB6EA" d="M128.813 202.913c41.248 0 74.686-33.448 74.686-74.707S170.061 53.5 128.813 53.5s-74.687 33.447-74.687 74.706 33.439 74.707 74.687 74.707"/><path fill="#1542CD" d="M128.406 202.912c-74.28 0-103.597-97.746-37.985-138.94-7.803 81.697 33.705 83.504 72.223 81.697 64.543-3.028 64.586 57.243 64.586 57.243z"/><path fill="#745DDF" fill-rule="evenodd" d="M199.41 152.645c-11.237 28.807-38.869 49.406-71.424 50.323q1.148.032 2.31.032H228.5s-.025-35.326-29.09-50.355" clip-rule="evenodd"/></svg>