<svg xmlns="http://www.w3.org/2000/svg" fill="none" viewBox="0 0 256 256"><path fill="#DCE474" d="M128 256c70.692 0 128-57.308 128-128S198.692 0 128 0 0 57.308 0 128s57.308 128 128 128"/><path fill="#000" d="M229.99 128.245c0-8.047-3.129-15.613-8.824-21.298-5.562-5.562-12.924-8.66-20.766-8.793 5.235-5.419 8.476-12.78 8.476-20.899 0-16.614-13.517-30.131-30.131-30.131-8.108 0-15.47 3.241-20.899 8.476-.133-7.842-3.231-15.204-8.793-20.766C143.358 29.129 135.792 26 127.745 26s-15.613 3.129-21.308 8.824c-5.562 5.562-8.66 12.924-8.803 20.766-5.42-5.235-12.78-8.466-20.889-8.466-16.615 0-30.131 13.517-30.131 30.131 0 8.108 3.24 15.47 8.476 20.9-7.843.132-15.204 3.23-20.766 8.792-5.695 5.685-8.824 13.251-8.824 21.298s3.129 15.613 8.824 21.308c5.562 5.562 12.924 8.66 20.766 8.803-5.235 5.419-8.466 12.781-8.466 20.889 0 16.614 13.517 30.131 30.131 30.131 8.108 0 15.47-3.241 20.889-8.466.133 7.843 3.231 15.204 8.803 20.766s13.261 8.824 21.308 8.824 15.613-3.139 21.298-8.824c5.562-5.562 8.66-12.923 8.793-20.776 5.419 5.235 12.78 8.476 20.899 8.476 16.614 0 30.131-13.517 30.131-30.131 0-8.108-3.241-15.47-8.466-20.889 7.843-.133 15.204-3.231 20.766-8.803 5.695-5.695 8.824-13.261 8.824-21.308zm-81.377 20.868v29.518l-20.868-20.868-20.868 20.868v-29.518H77.369l20.868-20.868-20.868-20.868h29.508V77.869l20.868 20.868 20.868-20.868v29.508h29.508l-20.868 20.868 20.868 20.868zm10.766-71.858c0-10.674 8.691-19.365 19.366-19.365s19.365 8.691 19.365 19.365c0 10.675-8.691 19.366-19.365 19.366h-19.366zm-45.325-34.824a19.3 19.3 0 0 1 13.691-5.665c4.959 0 9.918 1.892 13.69 5.665 7.546 7.556 7.546 19.835 0 27.391l-13.69 13.69-13.691-13.69a19.23 19.23 0 0 1-5.674-13.69c0-5.174 2.014-10.03 5.674-13.691zM76.755 57.88c10.675 0 19.366 8.69 19.366 19.365V96.61H76.755c-10.674 0-19.365-8.69-19.365-19.365S66.081 57.88 76.755 57.88m-34.824 56.674a19.3 19.3 0 0 1 13.69-5.664 19.3 19.3 0 0 1 13.69 5.664l13.691 13.691-13.69 13.69a19.22 19.22 0 0 1-13.69 5.675 19.22 19.22 0 0 1-13.691-5.675c-7.546-7.555-7.546-19.835 0-27.391zm54.18 64.691c0 10.674-8.692 19.365-19.366 19.365s-19.365-8.691-19.365-19.365c0-10.675 8.69-19.366 19.365-19.366H96.11zm45.324 34.814c-7.555 7.556-19.835 7.546-27.391 0-7.546-7.556-7.546-19.835 0-27.391l13.691-13.691 13.69 13.691a19.22 19.22 0 0 1 5.675 13.69c0 5.174-2.014 10.041-5.675 13.691zm50.99-21.124c-3.66 3.65-8.517 5.675-13.691 5.675-10.674 0-19.365-8.691-19.365-19.365v-19.366h19.365a19.23 19.23 0 0 1 13.691 5.675 19.23 19.23 0 0 1 5.675 13.691 19.2 19.2 0 0 1-5.675 13.69m21.124-50.989a19.23 19.23 0 0 1-13.691 5.674c-5.173 0-10.04-2.014-13.69-5.674l-13.691-13.691 13.691-13.69c7.556-7.556 19.835-7.546 27.391 0 7.546 7.555 7.546 19.835 0 27.391z"/></svg>
