<svg xmlns="http://www.w3.org/2000/svg" fill="none" viewBox="0 0 256 256"><path fill="#345D9D" d="M128 0a128 128 0 1 0 127.999 128A127.623 127.623 0 0 0 128.744 0zm2.169 132.339-13.327 44.939h71.284a3.6 3.6 0 0 1 2.579.965 3.6 3.6 0 0 1 1.14 2.507v1.177l-6.199 21.385a4.6 4.6 0 0 1-1.727 2.519 4.6 4.6 0 0 1-2.922.89H71.903l18.286-62.295-20.455 6.199 4.648-14.257 20.456-6.199 25.724-87.399a4.676 4.676 0 0 1 4.648-3.41h27.584a3.59 3.59 0 0 1 3.398 2.105c.196.43.305.895.321 1.367v1.178l-21.695 73.762 20.455-6.198-4.339 14.876z"/><path fill="#fff" d="m130.169 132.339-13.327 44.939h71.284a3.6 3.6 0 0 1 2.579.965 3.6 3.6 0 0 1 1.14 2.507v1.177l-6.199 21.385a4.6 4.6 0 0 1-1.727 2.519 4.6 4.6 0 0 1-2.922.89H71.903l18.286-62.295-20.455 6.199 4.648-14.257 20.456-6.199 25.724-87.399a4.676 4.676 0 0 1 4.648-3.41h27.584a3.59 3.59 0 0 1 3.398 2.105c.196.43.305.895.321 1.367v1.178l-21.695 73.762 20.455-6.198-4.339 14.876z"/></svg>