<svg xmlns="http://www.w3.org/2000/svg" fill="none" viewBox="0 0 512 512"><path fill="#fff" d="m304.456 4.63-.093 64.047a.26.26 0 0 0 .181.246c27.434 9.327 48.717 24.948 63.85 49.053 3.299 5.253 7.157 13.782 10.763 20.076a.236.236 0 0 1-.077.318l-61.57 37.73a.16.16 0 0 1-.117.021.15.15 0 0 1-.096-.07c-5.727-9.794-11.257-20.98-18.704-29.728-7.574-8.895-16.66-13.316-28.075-14.592-21.598-2.416-45.026 8.737-47.18 32.68-1.742 19.325 21.466 29.207 35.572 35.348a9916 9916 0 0 0 43.195 18.673c24.607 10.561 49.881 25.017 65.905 46.802 20.946 28.484 22.957 67.497 10.561 99.64-13.103 33.962-40.247 59.094-74.169 71.709q-.269.099-.269.389l.033 71.227c-24.95 4.7-50.197 4.638-75.742 2.005q-2.34-.241-3.469-.46l-.219-69.097q0-.29-.28-.35c-38.865-8.825-69.763-33.491-86.357-69.841-6.56-14.363-9.333-27.991-12.423-42.842q-.105-.515.4-.651l74.344-20.082a.2.2 0 0 1 .089-.005.2.2 0 0 1 .083.032.21.21 0 0 1 .091.149c1.277 8.945 2.324 19.057 4.686 27.262 7.058 24.508 27.691 41.083 53.832 39.632 23.91-1.321 46.138-16.417 50.347-40.804q.57-3.336.306-7.395a20.5 20.5 0 0 0-.169-5.078c-2.242-19.44-18.688-29.229-34.75-36.744a864 864 0 0 0-38.959-17.064c-39.825-16.296-80.998-39.861-87.821-87.107-7.716-53.413 25.692-98.747 76.537-112.682q.279-.076.279-.367V1.805l.192-.017a264.6 264.6 0 0 1 71.079 1.31q4.127.634 8.214 1.533"/><path fill="#58B4E6" d="M224.971 1.805V66.71q0 .29-.279.367c-50.845 13.935-84.253 59.269-76.537 112.682 6.823 47.246 47.996 70.811 87.821 87.107a864 864 0 0 1 38.959 17.064c16.062 7.515 32.508 17.304 34.75 36.744l.169 5.078q.264 4.059-.306 7.395c-4.209 24.387-26.437 39.483-50.347 40.804-26.141 1.451-46.774-15.124-53.832-39.632-2.362-8.205-3.409-18.317-4.686-27.262a.21.21 0 0 0-.091-.149.2.2 0 0 0-.083-.032.2.2 0 0 0-.089.005l-74.344 20.082q-.505.137-.4.651c3.09 14.851 5.863 28.479 12.423 42.842 16.594 36.35 47.492 61.016 86.357 69.841q.28.06.28.35l.219 69.097C136.85 499.166 59.875 442.795 23.091 362.13-29.097 247.672 9.627 112.175 114.518 42.663Q164.634 9.452 224.445 1.859z"/><path fill="#705ED9" d="M304.456 4.63c80.154 15.355 147.435 69.146 182.623 142.126 50.999 105.775 21.619 234.118-68.892 308.046q-48.855 39.905-111.089 52.844-1.43.3-2.932.553l-.033-71.227q0-.29.269-.389c33.922-12.615 61.066-37.747 74.169-71.709 12.396-32.143 10.385-71.156-10.561-99.64-16.024-21.785-41.298-36.241-65.905-46.802a9916 9916 0 0 1-43.195-18.673c-14.106-6.141-37.314-16.023-35.572-35.348 2.154-23.943 25.582-35.096 47.18-32.68 11.415 1.276 20.501 5.697 28.075 14.592 7.447 8.748 12.977 19.934 18.704 29.728q.015.027.041.045a.15.15 0 0 0 .172.004l61.57-37.73a.236.236 0 0 0 .077-.318c-3.606-6.294-7.464-13.727-10.763-18.98q-22.7-36.159-63.85-50.149a.26.26 0 0 1-.181-.246z"/></svg>