<svg xmlns="http://www.w3.org/2000/svg" fill="none" viewBox="0 0 256 256"><path fill="#fff" d="m152.228 2.315-.046 32.023q0 .042.025.076a.13.13 0 0 0 .065.047c13.717 4.664 24.359 12.474 31.925 24.527 1.65 2.627 3.579 6.891 5.382 10.038.015.026.02.058.012.087a.12.12 0 0 1-.051.072L158.755 88.05a.07.07 0 0 1-.058.01.1.1 0 0 1-.028-.012.1.1 0 0 1-.021-.023c-2.863-4.897-5.628-10.49-9.352-14.863-3.787-4.448-8.33-6.659-14.037-7.297-10.799-1.207-22.513 4.369-23.59 16.34-.871 9.663 10.733 14.604 17.786 17.674q10.788 4.695 21.598 9.337c12.303 5.281 24.94 12.509 32.952 23.401 10.473 14.242 11.479 33.748 5.28 49.82-6.551 16.981-20.123 29.547-37.084 35.854q-.135.05-.134.195l.016 35.613c-12.475 2.35-25.098 2.319-37.871 1.003q-1.17-.12-1.734-.23l-.11-34.548q0-.145-.14-.176c-19.433-4.412-34.881-16.745-43.178-34.92-3.28-7.181-4.667-13.996-6.212-21.421q-.052-.257.2-.326l37.172-10.04a.1.1 0 0 1 .045-.003.1.1 0 0 1 .041.016.1.1 0 0 1 .046.074c.638 4.473 1.161 9.529 2.342 13.632 3.53 12.253 13.846 20.541 26.916 19.815 11.956-.66 23.069-8.208 25.174-20.402q.285-1.667.153-3.697.116-1.282-.085-2.539c-1.12-9.72-9.343-14.615-17.375-18.372a432 432 0 0 0-19.479-8.532c-19.912-8.148-40.499-19.931-43.91-43.553-3.858-26.707 12.845-49.374 38.268-56.341q.14-.039.14-.184V.903l.096-.009a132.3 132.3 0 0 1 35.539.655q2.063.317 4.107.766"/><path fill="#58B4E6" d="M112.486.903v32.452q0 .145-.14.184c-25.423 6.967-42.126 29.634-38.268 56.34 3.411 23.623 23.998 35.406 43.91 43.554a432 432 0 0 1 19.479 8.532c8.032 3.757 16.255 8.652 17.375 18.372l.085 2.539q.132 2.03-.153 3.697c-2.105 12.194-13.218 19.742-25.174 20.402-13.07.726-23.386-7.562-26.916-19.815-1.181-4.103-1.704-9.159-2.342-13.632a.1.1 0 0 0-.046-.074.1.1 0 0 0-.041-.016.1.1 0 0 0-.045.003l-37.172 10.04q-.252.07-.2.326c1.545 7.425 2.932 14.24 6.212 21.421 8.297 18.175 23.745 30.508 43.178 34.92q.14.031.14.176l.11 34.548c-44.053-5.289-82.54-33.475-100.932-73.807-26.094-57.229-6.733-124.977 45.713-159.734Q82.317 4.726 112.223.93z"/><path fill="#705ED9" d="M152.228 2.315c40.077 7.677 73.717 34.573 91.312 71.063 25.499 52.888 10.809 117.059-34.446 154.023q-24.429 19.953-55.545 26.422-.715.15-1.466.276l-.016-35.613q0-.146.134-.195c16.961-6.307 30.533-18.873 37.084-35.854 6.199-16.072 5.193-35.578-5.28-49.82-8.012-10.892-20.649-18.12-32.952-23.401a4882 4882 0 0 1-21.598-9.337c-7.053-3.07-18.657-8.01-17.786-17.674 1.077-11.971 12.791-17.547 23.59-16.34 5.707.639 10.25 2.849 14.037 7.297 3.724 4.374 6.489 9.966 9.352 14.863a.1.1 0 0 0 .021.023q.013.009.028.012a.08.08 0 0 0 .058-.01l30.785-18.865a.12.12 0 0 0 .051-.072.12.12 0 0 0-.012-.087c-1.803-3.147-3.732-6.864-5.382-9.49q-11.35-18.08-31.925-25.074a.13.13 0 0 1-.09-.124z"/></svg>
