<svg xmlns="http://www.w3.org/2000/svg" fill="none" viewBox="0 0 256 256"><path fill="#000" d="M128 256c70.692 0 128-57.308 128-128S198.692 0 128 0 0 57.308 0 128s57.308 128 128 128"/><path fill="#FAF0F0" d="M114.99 96.134 69.598 126.13c-1.336.888-1.336 2.855 0 3.742l45.803 30.265a8.3 8.3 0 0 1 2.745 3.006 8.3 8.3 0 0 1 .992 3.949v47.533c0 1.916-2.158 3.047-3.725 1.941L34.34 159.943A7.82 7.82 0 0 1 31 153.54v-51.08a7.79 7.79 0 0 1 3.34-6.403l81.06-56.622c1.566-1.093 3.725.026 3.725 1.941V88.42a9.23 9.23 0 0 1-4.149 7.714zM224 102.46v51.08a7.79 7.79 0 0 1-3.34 6.403l-81.073 56.622c-1.567 1.093-3.725-.026-3.725-1.941v-47.533a8.32 8.32 0 0 1 3.738-6.955l45.803-30.265c1.335-.887 1.335-2.854 0-3.742L140.01 96.134a9.24 9.24 0 0 1-4.148-7.714V41.376c0-1.915 2.158-3.047 3.725-1.941l81.073 56.622a7.81 7.81 0 0 1 3.34 6.403"/></svg>
