<svg xmlns="http://www.w3.org/2000/svg" fill="none" viewBox="0 0 512 512"><path fill="#DB3737" fill-rule="evenodd" d="M512 256c0 141.385-114.615 256-256 256S0 397.385 0 256 114.615 0 256 0s256 114.615 256 256" clip-rule="evenodd"/><path fill="#fff" d="m383.387 127.638-.072 83.713q0 .964.945.964h36.285c.243 0 .476.097.65.271a.96.96 0 0 1 .278.657l.091 16.648-37.34.6q-.982.019-.982.983v50.89q0 .891.891.891l4.456.055 31.374.018q.946 0 1.346.855l.691 1.51-.509 14.847q-.037.946-.982.946h-36.358q-.909 0-.909.91v83.694a.91.91 0 0 1-.91.91h-30.646a.72.72 0 0 1-.514-.219.75.75 0 0 1-.214-.527v-83.858q0-.91-.909-.91h-47.306a1.42 1.42 0 0 0-1.328.928l-30.647 83.658q-.345.928-1.327.928h-27.064q-.946 0-1.273-.892l-30.683-83.694q-.346-.928-1.327-.928h-47.289a.91.91 0 0 0-.909.91v83.239q0 1.365-1.364 1.365h-30.01q-.909 0-.909-.91v-83.239a1.365 1.365 0 0 0-1.364-1.365H91.728q-1.237 0-1.291-1.237L90 288.04l.618-3.784q.145-.964 1.128-.964h35.957a.89.89 0 0 0 .891-.892l-.054-42.32-.073-8.552q0-1.09-1.091-1.091L90.418 230l.018-16.484a1.23 1.23 0 0 1 .358-.85 1.2 1.2 0 0 1 .843-.351l33.338-.036q1.074.381 2.619-.018 1-.273 1-1.292l.091-85.514 45.47-.273q1.054 0 1.419 1.001l31.21 85.222q.328.928 1.309.928h95.941q.563 0 .764-.527l31.592-85.86q.345-.946 1.346-.946h44.16q.964 0 1.273.91a4.5 4.5 0 0 1 .218 1.728m-206.395 83.658-15.332-42.102a.402.402 0 0 0-.666-.097.4.4 0 0 0-.098.243v41.865q0 1.128 1.146 1.128l14.223-.018q1.091 0 .727-1.019m172.857-40.974-14.878 40.756q-.455 1.255.873 1.255h14.06q1.127 0 1.127-1.128l-.2-40.719q-.018-2.801-.982-.164M163.624 283.219h34.102q2.274.49 4.656-.109.91-.219.601-1.092l-18.716-50.926a.9.9 0 0 0-.319-.408.84.84 0 0 0-.481-.156h-21.425q-1.146 0-1.146 1.128V282.4q0 .892.891.873zm53.581-43.594 15.533 42.684q.345.983 1.382.983h43.196q1.128 0 1.51-1.056l15.477-42.193 3.001-8.333q.418-1.182-.836-1.182h-81.154q-1.437 0-.946 1.346zm97.36 43.63 30.955-.018 4.547.018q.891 0 .891-.873v-50.944q0-.91-.909-.91h-21.698a.91.91 0 0 0-.818.582l-18.588 50.835q-.418 1.183.836 1.219zm-72.661 24.144 13.314 35.953q.528 1.4 1.055-.019l13.35-36.48q1.4-1.818 1.582-4.184.091-1.183-1.091-1.183h-28.828q-1.345 0-.928 1.274z"/></svg>