<svg xmlns="http://www.w3.org/2000/svg" fill="none" viewBox="0 0 256 256"><path fill="#DB3737" fill-rule="evenodd" d="M256 128c0 70.692-57.308 128-128 128S0 198.692 0 128 57.308 0 128 0s128 57.308 128 128" clip-rule="evenodd"/><path fill="#fff" d="m191.694 63.82-.037 41.855q0 .483.473.483h18.142c.122 0 .239.048.325.135a.48.48 0 0 1 .139.329l.046 8.323-18.67.301q-.49.01-.491.491v25.445q0 .446.446.446l2.228.027 15.686.009a.69.69 0 0 1 .673.428l.346.755-.255 7.423q-.017.473-.491.473h-18.178q-.456 0-.455.455v41.847a.457.457 0 0 1-.455.455h-15.323a.36.36 0 0 1-.257-.109.38.38 0 0 1-.107-.264v-41.929q0-.455-.454-.455h-23.654a.71.71 0 0 0-.664.464l-15.323 41.829q-.172.464-.664.464h-13.531q-.474 0-.637-.446l-15.341-41.847q-.173-.464-.664-.464H80.903a.456.456 0 0 0-.455.455v41.62q0 .682-.682.682H64.761q-.455 0-.455-.455v-41.62a.68.68 0 0 0-.682-.682h-17.76q-.618 0-.646-.619L45 144.02l.31-1.892q.072-.482.563-.482h17.979a.444.444 0 0 0 .445-.446l-.027-21.16-.036-4.276q0-.546-.546-.546L45.209 115l.01-8.242a.6.6 0 0 1 .178-.425.6.6 0 0 1 .421-.175l16.67-.019q.536.192 1.31-.009.499-.136.5-.646l.045-42.757 22.734-.136q.527 0 .71.5l15.605 42.612q.163.464.655.464h47.97a.38.38 0 0 0 .382-.264l15.796-42.93q.173-.473.673-.473h22.08q.481 0 .637.455a2.3 2.3 0 0 1 .109.864M88.496 105.647l-7.666-21.05a.2.2 0 0 0-.382.072v20.933q0 .564.573.564l7.111-.009q.546 0 .364-.51m86.428-20.487-7.438 20.378q-.228.628.436.628h7.03q.564 0 .564-.564l-.1-20.36q-.009-1.4-.492-.082m-93.112 56.45h17.051a5.05 5.05 0 0 0 2.328-.054q.454-.11.3-.546l-9.357-25.463a.45.45 0 0 0-.16-.204.42.42 0 0 0-.24-.078H81.02q-.573 0-.573.564V141.2q0 .446.446.437zm26.791-21.797 7.766 21.343q.172.49.691.491h21.598q.564 0 .755-.528l7.739-21.096 1.5-4.167q.21-.591-.418-.591h-40.577q-.719 0-.473.673zm48.679 21.816 15.478-.009 2.274.009q.445 0 .445-.437V115.72q0-.455-.454-.455h-10.849a.45.45 0 0 0-.41.291l-9.294 25.418q-.209.591.419.609zm-36.33 12.072 6.657 17.976q.264.7.527-.009l6.675-18.24a3.83 3.83 0 0 0 .791-2.093q.046-.591-.545-.591h-14.414q-.673 0-.464.637z"/></svg>