<svg xmlns="http://www.w3.org/2000/svg" fill="none" viewBox="0 0 256 256"><path fill="#000" fill-rule="evenodd" d="M218.51 218.51a128.003 128.003 0 0 0 0-181.02 128.001 128.001 0 1 0 0 181.02M160.963 97.818c3.727-1.865 7.92-1.865 11.182 0l37.736 21.922c3.727 2.332 5.59 6.063 5.59 9.795v44.31c0 4.197-2.329 7.929-5.59 9.795l-37.736 21.921c-3.728 1.866-7.92 1.866-11.182 0l-37.736-21.921c-3.727-2.333-5.59-6.064-5.59-9.795v-15.392l17.703-10.261v14.925c0 4.198 2.329 7.929 5.591 9.795l20.032 11.66c3.727 1.866 7.92 1.866 11.182 0l19.566-11.66c3.728-2.332 5.591-6.064 5.591-9.795v-23.321c0-4.198-2.329-7.929-5.591-9.795l-20.032-11.66c-3.727-1.866-7.92-1.866-11.181 0l-25.624 14.925-17.703 10.261-25.624 14.926c-3.727 1.865-7.92 1.865-11.18 0L42.63 136.531c-3.727-2.332-5.59-6.063-5.59-9.795V82.893c0-3.732 1.863-7.463 5.59-9.329l38.202-22.388c3.727-1.866 7.92-1.866 11.181 0l37.27 21.922c3.727 2.332 5.591 6.063 5.591 9.795V98.75l-17.703 10.261V93.62c0-4.197-2.33-7.929-5.591-9.794L91.547 71.699c-3.727-1.866-7.92-1.866-11.18 0l-20.034 11.66c-3.727 2.332-5.59 6.064-5.59 9.795v23.321c0 4.198 2.33 7.929 5.59 9.795l20.033 12.127c3.727 1.865 7.92 1.865 11.181 0l25.624-15.392 17.703-9.795z" clip-rule="evenodd"/></svg>