<svg xmlns="http://www.w3.org/2000/svg" fill="none" viewBox="0 0 256 256"><path fill="#000" d="M128 256c70.692 0 128-57.308 128-128S198.692 0 128 0 0 57.308 0 128s57.308 128 128 128"/><path fill="#F474AB" fill-rule="evenodd" d="M99.732 66.37c-1.58.252-5.459.34-15.517.347l-13.412.01c-12.233 0-28.833 12.919-34.058 25.92-2.091 5.204-3.312 12.024-2.303 12.864.312.259 18.02.343 93.145.438l92.76.117.411-.586c.768-1.101.166-5.028-1.635-10.667-4.068-12.733-15.184-23.486-27.838-26.929-7.118-1.936-6.288-1.906-50.717-1.877-31.345.02-39.131.089-40.836.362m82.278.615c17.146 1.448 30.729 11.72 36.139 27.331 1.67 4.82 2.723 10.381 2.045 10.801-.437.271-146.244.148-146.75-.124-1.342-.719-.543-11.82 1.26-17.512 3.087-9.75 12.589-18.68 21.052-19.788a72 72 0 0 0 3.728-.596c2.107-.415 77.714-.518 82.526-.112m-146.822 46.87c-16.462 3.279-16.162 27.13.379 30.05 3.152.556 180.691.556 183.844 0 16.785-2.962 16.785-27.12 0-30.082-3.025-.534-181.538-.503-184.223.032m18.224 38.063c-13.304.046-18.783.144-19.02.341-.958.797.321 7.765 2.353 12.822C41.97 178.082 57.688 191 70.803 191h113.43c17.11 0 32.839-16.757 36.208-33.181.825-4.022.87-4.777.336-5.542l-.389-.558-74.144.068c-40.78.037-82.554.096-92.832.131m166.963 1.359c.221 1.83-2.316 11.162-3.334 12.263l-.559.606h-8.305c-9.514 0-8.808.192-8.833-2.408-.03-3.096-1.393-4.676-4.036-4.676-2.709 0-4.112 1.654-4.122 4.859-.008 2.295.166 2.225-5.477 2.225-5.668 0-5.391.124-5.644-2.54-.634-6.66-7.622-6.294-8.43.442-.257 2.139-.127 2.089-5.517 2.094-5.286.004-5.04.108-5.29-2.233-.701-6.57-7.899-6.828-8.477-.304-.241 2.719.15 2.541-5.546 2.541-5.719 0-5.284.217-5.567-2.788-.562-5.991-7.519-6.053-8.063-.072-.275 3.027.059 2.86-5.686 2.86-5.763 0-5.462.151-5.702-2.879-.472-5.962-7.487-5.883-8.048.091-.282 3.005.152 2.788-5.567 2.788-5.607 0-5.465.052-5.467-2.035-.008-6.071-6.845-7.178-8.514-1.377-.228.789-.443 1.071-.867 1.132-1.484.215-9.022-4.436-11.46-7.071-1.845-1.992-2.99-3.786-2.64-4.132.142-.139 140.126-.299 140.58-.161.29.089.527.41.571.775m-159.482 6.498c1.958.837 2.029 1.072 2.106 6.949.08 6.173-.026 6.581-1.99 7.586-2.241 1.146-4.366-.278-4.684-3.138-.97-8.748.746-13.03 4.568-11.397m19.508.033c.395.204 1.031.783 1.413 1.285l.694.914v5.008c0 5.739-.183 6.326-2.288 7.357-1.707.835-3.982-.28-4.518-2.215-.433-1.561-.327-9.305.143-10.483.715-1.792 2.942-2.704 4.556-1.866m19.718.382c1.564.97 1.844 2.043 1.843 7.09 0 5.015-.18 5.728-1.709 6.752-1.888 1.265-4.228.432-5.06-1.803-.628-1.689-.529-9.224.138-10.465 1.064-1.981 3.07-2.64 4.788-1.574m19.364-.021c1.617.99 1.686 1.279 1.686 7.125v5.273l-.619.665c-2.031 2.182-5.163 1.608-5.97-1.095-.473-1.585-.206-9.957.345-10.8.616-.942 1.862-1.652 2.898-1.652.478 0 1.224.218 1.66.484m19.33 0c1.566.958 1.678 1.367 1.769 6.462.113 6.286-.573 7.966-3.251 7.964-3.051-.003-3.688-1.346-3.596-7.591.089-6.06.677-7.319 3.419-7.319.477 0 1.224.218 1.659.484m19.77.286c2.45 2.158 2.311 12.124-.19 13.654-1.746 1.067-4.044.319-4.993-1.626-.736-1.507-.655-9.101.114-10.694 1.045-2.165 3.416-2.789 5.069-1.334m19.129-.25c1.494.925 1.628 1.485 1.664 6.918.037 5.654-.105 6.133-2.127 7.177-3.057 1.577-4.904-.933-4.904-6.666 0-6.86 1.944-9.551 5.367-7.429m19.33 0c1.477.914 1.573 1.352 1.573 7.152 0 5.195-.002 5.215-.619 5.95-1.478 1.763-3.486 1.822-5.099.151l-.85-.879v-5.278c0-4.67.052-5.358.448-5.963 1.039-1.59 3.016-2.083 4.547-1.133" clip-rule="evenodd"/><path fill="#F7AACC" fill-rule="evenodd" d="M99.484 67.098c-.886.174-2.563.442-3.728.595C87.293 68.8 77.791 77.73 74.704 87.48c-1.803 5.692-2.602 16.793-1.26 17.512.505.272 146.313.395 146.75.124.678-.42-.375-5.98-2.045-10.8-5.41-15.611-18.993-25.884-36.139-27.332-4.812-.406-80.419-.303-82.526.112m13.467 9.137c.332.444.908 1.422 1.279 2.174 1.94 3.926 3.248 5.1 8.6 7.71 2.021.986 1.71 1.75-1.398 3.439-3.306 1.796-4.916 3.1-5.849 4.738-3.735 6.561-3.424 6.436-5.8 2.332-2.171-3.75-2.512-4.109-6.266-6.592-4.235-2.8-4.234-2.837.121-5.18 3.488-1.878 4.127-2.453 5.184-4.666 2.208-4.627 3.034-5.419 4.129-3.955m85.424 9.692c1.529 2.555 1.76 2.784 3.988 3.947 2.872 1.498 2.854 1.734-.285 3.768-2.049 1.327-2.308 1.589-3.337 3.378-1.895 3.295-2.314 3.345-3.927.466-.999-1.782-2.11-2.911-4.33-4.398-2.055-1.376-2.011-1.767.357-3.112 2.255-1.28 2.443-1.448 3.49-3.106 2.28-3.61 2.428-3.645 4.044-.943m-49.078 66.55c-38.506.069-70.038.153-70.072.186-.351.346.794 2.14 2.639 4.132 2.438 2.635 9.976 7.286 11.46 7.071.424-.061.64-.343.867-1.132 1.669-5.801 8.506-4.694 8.514 1.377.002 2.087-.14 2.035 5.467 2.035 5.719 0 5.285.217 5.567-2.788.561-5.974 7.576-6.053 8.048-.091.24 3.03-.061 2.879 5.702 2.879 5.745 0 5.411.167 5.686-2.86.544-5.981 7.501-5.919 8.063.072.283 3.005-.152 2.788 5.567 2.788 5.696 0 5.305.178 5.546-2.541.578-6.524 7.776-6.266 8.477.304.25 2.341.004 2.237 5.29 2.233 5.39-.005 5.26.045 5.517-2.094.808-6.736 7.796-7.102 8.43-.442.253 2.664-.024 2.54 5.644 2.54 5.643 0 5.469.07 5.477-2.225.01-3.205 1.413-4.859 4.122-4.859 2.643 0 4.006 1.58 4.036 4.676.025 2.6-.681 2.408 8.833 2.408h8.305l.559-.606c1.018-1.101 3.555-10.433 3.334-12.263-.117-.965 2.802-.932-71.078-.8" clip-rule="evenodd"/></svg>
