<svg xmlns="http://www.w3.org/2000/svg" fill="none" viewBox="0 0 256 256"><path fill="#fff" d="M256 128C256 57.308 198.692 0 128 0S0 57.308 0 128s57.308 128 128 128 128-57.308 128-128"/><path fill="#FF596E" d="m85.107 118.253 43.393-20.69V41z"/><path fill="#FF596E" d="m128.5 97.562-.005 45.066 43.398-24.375z"/><path fill="#800010" d="m128.5 97.562.005 45.066-43.398-24.375z"/><path fill="#800010" d="M171.893 118.253 128.5 97.563V41z"/><path fill="#FF596E" d="M128.495 160.024v48.035l-44.23-72.879z"/><path fill="#800010" d="M128.495 160.024v48.035l44.232-72.879zm51.537-13.839 10.024 28.906L212 137.412z"/><path fill="#FF596E" d="m190.056 175.091 21.944-6.68v-30.999z"/><path fill="#800010" d="m211.986 168.411-31.967 54.904L155.74 234l34.298-58.909z"/><path fill="#FF596E" d="m45.005 168.411 31.963 54.904L101.247 234l-34.298-58.909z"/><path fill="#800010" d="m128.495 234-51.527-87.815-10.02 28.906 34.3 58.909z"/><path fill="#FF596E" d="m76.968 146.185-10.02 28.906L45 137.412z"/><path fill="#800010" d="m66.949 175.091-21.944-6.68L45 137.412z"/><path fill="#FF596E" d="m128.495 234 51.533-87.815 10.019 28.906L155.749 234z"/></svg>
