<svg width="256" height="256" viewBox="0 0 256 256" fill="none" xmlns="http://www.w3.org/2000/svg">
<path d="M256 128C256 57.3075 198.692 0 128 0C57.3075 0 0 57.3075 0 128C0 198.692 57.3075 256 128 256C198.692 256 256 198.692 256 128Z" fill="white"/>
<path d="M85.1072 118.253L128.5 97.5622V41L85.1072 118.253Z" fill="#FF596E"/>
<path d="M128.5 97.5622L128.495 142.628L171.893 118.253L128.5 97.5622Z" fill="#FF596E"/>
<path d="M128.5 97.5622L128.505 142.628L85.1072 118.253L128.5 97.5622Z" fill="#800010"/>
<path d="M171.893 118.253L128.5 97.5622V41L171.893 118.253Z" fill="#800010"/>
<path d="M128.495 160.024V208.059L84.2644 135.18L128.495 160.024Z" fill="#FF596E"/>
<path d="M128.495 160.024V208.059L172.727 135.18L128.495 160.024ZM180.032 146.185L190.056 175.091L212 137.412L180.032 146.185Z" fill="#800010"/>
<path d="M190.056 175.091L212 168.411V137.412L190.056 175.091Z" fill="#FF596E"/>
<path d="M211.986 168.411L180.019 223.315L155.74 234L190.038 175.091L211.986 168.411Z" fill="#800010"/>
<path d="M45.0045 168.411L76.9677 223.315L101.247 234L66.9488 175.091L45.0045 168.411Z" fill="#FF596E"/>
<path d="M128.495 234L76.9677 146.185L66.9488 175.091L101.247 234H128.495Z" fill="#800010"/>
<path d="M76.9677 146.185L66.9488 175.091L45 137.412L76.9677 146.185Z" fill="#FF596E"/>
<path d="M66.9488 175.091L45.0045 168.411L45 137.412L66.9488 175.091Z" fill="#800010"/>
<path d="M128.495 234L180.028 146.185L190.047 175.091L155.749 234H128.495Z" fill="#FF596E"/>
</svg>
