<svg xmlns="http://www.w3.org/2000/svg" fill="none" viewBox="0 0 256 256"><path fill="#fff" fill-rule="evenodd" d="M256 128c0 70.692-57.308 128-128 128S0 198.692 0 128 57.308 0 128 0s128 57.308 128 128" clip-rule="evenodd"/><path fill="#000" fill-rule="evenodd" d="M63.695 127.519a1.24 1.24 0 0 0 .298 1.657l63.263 47.664a1.236 1.236 0 0 0 1.488 0l63.263-47.664a1.24 1.24 0 0 0 .298-1.657l-63.264-98.948a1.235 1.235 0 0 0-2.082 0zm59.977-75.546v110.258c0 .51-.582.801-.989.495l-12.12-9.102a1.24 1.24 0 0 1-.494-.99v-43.962l-14.048 25.791a1.236 1.236 0 0 1-1.96.283l-7.488-7.498v7.375c0 .52-.601.808-1.006.483l-7.19-5.793a1.24 1.24 0 0 1-.46-.964v-6.307c0-.239.069-.474.2-.675l6.97-10.74a1.235 1.235 0 0 1 1.946-.165l6.341 6.879 7.42-31.578 21.738-34.123c.333-.522 1.14-.286 1.14.333m8.656 110.387V51.998c0-.621.811-.856 1.142-.33l20.812 33.118a1.24 1.24 0 0 1-.316 1.659l-8.035 5.883v15.725l14.708-10.974a1.236 1.236 0 0 1 1.777.32l5.449 8.434a1.24 1.24 0 0 1-.309 1.672l-21.625 15.823v14.136l27.687-20.272a1.235 1.235 0 0 1 1.773.335l5.171 8.138a1.237 1.237 0 0 1-.297 1.652l-46.946 35.537a.618.618 0 0 1-.991-.494m-66.805-13.798c-.419-.575.303-1.287.871-.86L128 194.118l61.606-46.416c.568-.427 1.29.285.871.86l-61.478 84.429a1.234 1.234 0 0 1-1.998 0z" clip-rule="evenodd"/></svg>