<svg xmlns="http://www.w3.org/2000/svg" fill="none" viewBox="0 0 512 512"><path fill="#fff" fill-rule="evenodd" d="M512 256c0 141.385-114.615 256-256 256S0 397.385 0 256 114.615 0 256 0s256 114.615 256 256" clip-rule="evenodd"/><path fill="#000" fill-rule="evenodd" d="M127.391 255.038a2.48 2.48 0 0 0 .595 3.314l126.527 95.328a2.47 2.47 0 0 0 2.974 0l126.527-95.328a2.48 2.48 0 0 0 .595-3.314L258.083 57.141c-.973-1.521-3.193-1.521-4.166 0zm119.953-151.092v220.515c0 1.021-1.164 1.603-1.979.991l-24.238-18.203a2.48 2.48 0 0 1-.989-1.982v-87.922l-28.097 51.581a2.47 2.47 0 0 1-3.92.566l-14.975-14.997v14.751c0 1.04-1.203 1.617-2.012.965l-14.378-11.584a2.48 2.48 0 0 1-.923-1.93v-12.613c0-.479.139-.948.399-1.349l13.944-21.481a2.47 2.47 0 0 1 3.891-.33l12.682 13.758 14.839-63.156 43.476-68.246c.666-1.044 2.28-.572 2.28.666m17.312 220.775V103.995c0-1.242 1.623-1.711 2.284-.659l41.625 66.235a2.48 2.48 0 0 1-.634 3.318l-16.069 11.766v31.452l29.416-21.948a2.47 2.47 0 0 1 3.554.64l10.898 16.866a2.48 2.48 0 0 1-.617 3.345l-43.251 31.646v28.272l55.374-40.544a2.47 2.47 0 0 1 3.546.669l10.343 16.276a2.48 2.48 0 0 1-.595 3.305l-93.891 71.075c-.815.616-1.983.035-1.983-.988m-133.611-27.597c-.837-1.15.607-2.575 1.743-1.719L256 388.236l123.212-92.831c1.136-.856 2.58.569 1.743 1.719L257.998 465.982a2.47 2.47 0 0 1-3.996 0z" clip-rule="evenodd"/></svg>