<svg xmlns="http://www.w3.org/2000/svg" fill="none" viewBox="0 0 512 512"><path fill="#5552FD" d="M512 256a256 256 0 0 1-74.981 181.019 255.997 255.997 0 0 1-362.038 0A256 256 0 1 1 437.019 74.981 256 256 0 0 1 512 256"/><path fill="#FED955" d="M110 219.5h36.5V183H110zM110 292.5h36.5V256H110zM110 256h36.5v-36.5H110zM110 329h36.5v-36.5H110zM256 146.5h36.5V110H256zM256 365.5h36.5V402H256zM292.5 146.5H329V110h-36.5z"/><path fill="#9695F8" d="M329 146.5h36.5V110H329zM183 146.5h-36.5V110H183zM402 365.5h-36.5V329H402zM110 365.5h36.5V329H110zM292.5 110H329V73.5h-36.5z"/><path fill="#5552FD" d="M292.5 73.5H329V37h-36.5zM292.5 475H329v-36.5h-36.5z"/><path fill="#9695F8" d="M292.5 438.5H329V402h-36.5zM219.5 110H256V73.5h-36.5z"/><path fill="#5552FD" d="M219.5 73.5H256V37h-36.5zM219.5 475H256v-36.5h-36.5z"/><path fill="#9695F8" d="M219.5 438.5H256V402h-36.5zM256 110h36.5V73.5H256z"/><path fill="#5552FD" d="M256 73.5h36.5V37H256zM256 475h36.5v-36.5H256z"/><path fill="#9695F8" d="M256 438.5h36.5V402H256zM183 110h36.5V73.5H183z"/><path fill="#5552FD" d="M183 73.5h36.5V37H183zM183 475h36.5v-36.5H183z"/><path fill="#9695F8" d="M183 438.5h36.5V402H183zM365.5 183H402v-36.5h-36.5zM146.5 183H110v-36.5h36.5zM365.5 402H329v-36.5h36.5zM146.5 402H183v-36.5h-36.5zM402 219.5h36.5V183H402zM73.5 219.5H110V183H73.5z"/><path fill="#5552FD" d="M37 219.5h36.5V183H37zM73.5 183H110v-36.5H73.5zM438.5 183H402v-36.5h36.5zM329 438.5h36.5V402H329zM73.5 329v36.5H110V329zM110 146.5h36.5V110H110zM402 146.5h-36.5V110H402zM365.5 402H402v-36.5h-36.5zM110 365.5V402h36.5v-36.5zM146.5 110H183V73.5h-36.5zM365.5 110H329V73.5h36.5zM402 365.5h36.5V329H402zM146.5 402v36.5H183V402zM438.5 219.5H475V183h-36.5z"/><path fill="#9695F8" d="M402 256h36.5v-36.5H402zM73.5 256H110v-36.5H73.5z"/><path fill="#5552FD" d="M37 256h36.5v-36.5H37zM438.5 256H475v-36.5h-36.5z"/><path fill="#9695F8" d="M402 292.5h36.5V256H402zM73.5 292.5H110V256H73.5z"/><path fill="#5552FD" d="M37 292.5h36.5V256H37zM438.5 292.5H475V256h-36.5z"/><path fill="#9695F8" d="M402 329h36.5v-36.5H402zM73.5 329H110v-36.5H73.5z"/><path fill="#5552FD" d="M37 329h36.5v-36.5H37zM438.5 329H475v-36.5h-36.5z"/><path fill="#FED955" d="M292.5 365.5H329V402h-36.5zM256 219.5h36.5V183H256zM256 292.5h36.5V256H256zM256 329h36.5v-36.5H256zM256 183h36.5v-36.5H256zM256 329h36.5v36.5H256zM183 292.5h36.5V256H183zM183 256h36.5v-36.5H183zM183 329h36.5v-36.5H183zM183 183h36.5v-36.5H183zM183 329h36.5v36.5H183zM292.5 292.5H329V256h-36.5zM292.5 256H329v-36.5h-36.5zM292.5 329H329v-36.5h-36.5zM292.5 183H329v-36.5h-36.5zM292.5 329H329v36.5h-36.5zM219.5 146.5H256V110h-36.5zM219.5 365.5H256V402h-36.5zM183 146.5h36.5V110H183zM183 365.5h36.5V402H183zM219.5 219.5H256V183h-36.5zM219.5 292.5H256V256h-36.5z"/><path fill="#5552FD" d="M183 219.5h36.5V183H183zM256 256h36.5v-36.5H256zM329 219.5h36.5V183H329zM329 292.5h36.5V256H329zM329 256h36.5v-36.5H329zM329 329h36.5v-36.5H329zM329 183h36.5v-36.5H329zM329 329h36.5v36.5H329zM146.5 219.5H183V183h-36.5zM146.5 292.5H183V256h-36.5zM146.5 256H183v-36.5h-36.5zM146.5 329H183v-36.5h-36.5zM146.5 183H183v-36.5h-36.5zM146.5 329H183v36.5h-36.5zM292.5 219.5H329V183h-36.5zM219.5 256H256v-36.5h-36.5z"/><path fill="#FED955" d="M219.5 329H256v-36.5h-36.5zM219.5 183H256v-36.5h-36.5zM219.5 329H256v36.5h-36.5zM365.5 219.5H402V183h-36.5zM365.5 292.5H402V256h-36.5zM365.5 256H402v-36.5h-36.5zM365.5 329H402v-36.5h-36.5z"/></svg>