<svg width="256" height="256" viewBox="0 0 256 256" fill="none" xmlns="http://www.w3.org/2000/svg">
<path d="M256 128C256 161.948 242.514 194.505 218.51 218.51C194.505 242.514 161.948 256 128 256C94.0523 256 61.495 242.514 37.4903 218.51C13.4857 194.505 0 161.948 0 128C0 94.0523 13.4857 61.495 37.4903 37.4903C61.495 13.4857 94.0523 0 128 0C161.948 0 194.505 13.4857 218.51 37.4903C242.514 61.495 256 94.0523 256 128Z" fill="#5552FD"/>
<path d="M55 109.75H73.25V91.5H55V109.75Z" fill="#FED955"/>
<path d="M55 146.25H73.25V128H55V146.25Z" fill="#FED955"/>
<path d="M55 128H73.25V109.75H55V128Z" fill="#FED955"/>
<path d="M55 164.5H73.25V146.25H55V164.5Z" fill="#FED955"/>
<path d="M128 73.25H146.25V55H128V73.25Z" fill="#FED955"/>
<path d="M128 182.75H146.25V201H128V182.75Z" fill="#FED955"/>
<path d="M146.25 73.25H164.5V55H146.25V73.25Z" fill="#FED955"/>
<path d="M164.5 73.25H182.75V55H164.5V73.25Z" fill="#9695F8"/>
<path d="M91.5 73.25H73.25V55H91.5V73.25Z" fill="#9695F8"/>
<path d="M201 182.75H182.75V164.5H201V182.75Z" fill="#9695F8"/>
<path d="M55 182.75H73.25V164.5H55V182.75Z" fill="#9695F8"/>
<path d="M146.25 55H164.5V36.75H146.25V55Z" fill="#9695F8"/>
<path d="M146.25 36.75H164.5V18.5H146.25V36.75Z" fill="#5552FD"/>
<path d="M146.25 237.5H164.5V219.25H146.25V237.5Z" fill="#5552FD"/>
<path d="M146.25 219.25H164.5V201H146.25V219.25Z" fill="#9695F8"/>
<path d="M109.75 55H128V36.75H109.75V55Z" fill="#9695F8"/>
<path d="M109.75 36.75H128V18.5H109.75V36.75Z" fill="#5552FD"/>
<path d="M109.75 237.5H128V219.25H109.75V237.5Z" fill="#5552FD"/>
<path d="M109.75 219.25H128V201H109.75V219.25Z" fill="#9695F8"/>
<path d="M128 55H146.25V36.75H128V55Z" fill="#9695F8"/>
<path d="M128 36.75H146.25V18.5H128V36.75Z" fill="#5552FD"/>
<path d="M128 237.5H146.25V219.25H128V237.5Z" fill="#5552FD"/>
<path d="M128 219.25H146.25V201H128V219.25Z" fill="#9695F8"/>
<path d="M91.5 55H109.75V36.75H91.5V55Z" fill="#9695F8"/>
<path d="M91.5 36.75H109.75V18.5H91.5V36.75Z" fill="#5552FD"/>
<path d="M91.5 237.5H109.75V219.25H91.5V237.5Z" fill="#5552FD"/>
<path d="M91.5 219.25H109.75V201H91.5V219.25Z" fill="#9695F8"/>
<path d="M182.75 91.5H201V73.25H182.75V91.5Z" fill="#9695F8"/>
<path d="M73.25 91.5H55V73.25H73.25V91.5Z" fill="#9695F8"/>
<path d="M182.75 201H164.5V182.75H182.75V201Z" fill="#9695F8"/>
<path d="M73.25 201H91.5V182.75H73.25V201Z" fill="#9695F8"/>
<path d="M201 109.75H219.25V91.5H201V109.75Z" fill="#9695F8"/>
<path d="M36.75 109.75H55V91.5H36.75V109.75Z" fill="#9695F8"/>
<path d="M18.5 109.75H36.75V91.5H18.5V109.75Z" fill="#5552FD"/>
<path d="M36.75 91.5H55V73.25H36.75V91.5Z" fill="#5552FD"/>
<path d="M219.25 91.5H201V73.25H219.25V91.5Z" fill="#5552FD"/>
<path d="M164.5 219.25H182.75V201H164.5V219.25Z" fill="#5552FD"/>
<path d="M36.75 164.5V182.75H55V164.5H36.75Z" fill="#5552FD"/>
<path d="M55 73.25H73.25V55H55V73.25Z" fill="#5552FD"/>
<path d="M201 73.25H182.75V55H201V73.25Z" fill="#5552FD"/>
<path d="M182.75 201H201V182.75H182.75V201Z" fill="#5552FD"/>
<path d="M55 182.75V201H73.25V182.75H55Z" fill="#5552FD"/>
<path d="M73.25 55H91.5V36.75H73.25V55Z" fill="#5552FD"/>
<path d="M182.75 55H164.5V36.75H182.75V55Z" fill="#5552FD"/>
<path d="M201 182.75H219.25V164.5H201V182.75Z" fill="#5552FD"/>
<path d="M73.25 201V219.25H91.5V201H73.25Z" fill="#5552FD"/>
<path d="M219.25 109.75H237.5V91.5H219.25V109.75Z" fill="#5552FD"/>
<path d="M201 128H219.25V109.75H201V128Z" fill="#9695F8"/>
<path d="M36.75 128H55V109.75H36.75V128Z" fill="#9695F8"/>
<path d="M18.5 128H36.75V109.75H18.5V128Z" fill="#5552FD"/>
<path d="M219.25 128H237.5V109.75H219.25V128Z" fill="#5552FD"/>
<path d="M201 146.25H219.25V128H201V146.25Z" fill="#9695F8"/>
<path d="M36.75 146.25H55V128H36.75V146.25Z" fill="#9695F8"/>
<path d="M18.5 146.25H36.75V128H18.5V146.25Z" fill="#5552FD"/>
<path d="M219.25 146.25H237.5V128H219.25V146.25Z" fill="#5552FD"/>
<path d="M201 164.5H219.25V146.25H201V164.5Z" fill="#9695F8"/>
<path d="M36.75 164.5H55V146.25H36.75V164.5Z" fill="#9695F8"/>
<path d="M18.5 164.5H36.75V146.25H18.5V164.5Z" fill="#5552FD"/>
<path d="M219.25 164.5H237.5V146.25H219.25V164.5Z" fill="#5552FD"/>
<path d="M146.25 182.75H164.5V201H146.25V182.75Z" fill="#FED955"/>
<path d="M128 109.75H146.25V91.5H128V109.75Z" fill="#FED955"/>
<path d="M128 146.25H146.25V128H128V146.25Z" fill="#FED955"/>
<path d="M128 164.5H146.25V146.25H128V164.5Z" fill="#FED955"/>
<path d="M128 91.5H146.25V73.25H128V91.5Z" fill="#FED955"/>
<path d="M128 164.5H146.25V182.75H128V164.5Z" fill="#FED955"/>
<path d="M91.5 146.25H109.75V128H91.5V146.25Z" fill="#FED955"/>
<path d="M91.5 128H109.75V109.75H91.5V128Z" fill="#FED955"/>
<path d="M91.5 164.5H109.75V146.25H91.5V164.5Z" fill="#FED955"/>
<path d="M91.5 91.5H109.75V73.25H91.5V91.5Z" fill="#FED955"/>
<path d="M91.5 164.5H109.75V182.75H91.5V164.5Z" fill="#FED955"/>
<path d="M146.25 146.25H164.5V128H146.25V146.25Z" fill="#FED955"/>
<path d="M146.25 128H164.5V109.75H146.25V128Z" fill="#FED955"/>
<path d="M146.25 164.5H164.5V146.25H146.25V164.5Z" fill="#FED955"/>
<path d="M146.25 91.5H164.5V73.25H146.25V91.5Z" fill="#FED955"/>
<path d="M146.25 164.5H164.5V182.75H146.25V164.5Z" fill="#FED955"/>
<path d="M109.75 73.25H128V55H109.75V73.25Z" fill="#FED955"/>
<path d="M109.75 182.75H128V201H109.75V182.75Z" fill="#FED955"/>
<path d="M91.5 73.25H109.75V55H91.5V73.25Z" fill="#FED955"/>
<path d="M91.5 182.75H109.75V201H91.5V182.75Z" fill="#FED955"/>
<path d="M109.75 109.75H128V91.5H109.75V109.75Z" fill="#FED955"/>
<path d="M109.75 146.25H128V128H109.75V146.25Z" fill="#FED955"/>
<path d="M91.5 109.75H109.75V91.5H91.5V109.75Z" fill="#5552FD"/>
<path d="M128 128H146.25V109.75H128V128Z" fill="#5552FD"/>
<path d="M164.5 109.75H182.75V91.5H164.5V109.75Z" fill="#5552FD"/>
<path d="M164.5 146.25H182.75V128H164.5V146.25Z" fill="#5552FD"/>
<path d="M164.5 128H182.75V109.75H164.5V128Z" fill="#5552FD"/>
<path d="M164.5 164.5H182.75V146.25H164.5V164.5Z" fill="#5552FD"/>
<path d="M164.5 91.5H182.75V73.25H164.5V91.5Z" fill="#5552FD"/>
<path d="M164.5 164.5H182.75V182.75H164.5V164.5Z" fill="#5552FD"/>
<path d="M73.25 109.75H91.5V91.5H73.25V109.75Z" fill="#5552FD"/>
<path d="M73.25 146.25H91.5V128H73.25V146.25Z" fill="#5552FD"/>
<path d="M73.25 128H91.5V109.75H73.25V128Z" fill="#5552FD"/>
<path d="M73.25 164.5H91.5V146.25H73.25V164.5Z" fill="#5552FD"/>
<path d="M73.25 91.5H91.5V73.25H73.25V91.5Z" fill="#5552FD"/>
<path d="M73.25 164.5H91.5V182.75H73.25V164.5Z" fill="#5552FD"/>
<path d="M146.25 109.75H164.5V91.5H146.25V109.75Z" fill="#5552FD"/>
<path d="M109.75 128H128V109.75H109.75V128Z" fill="#5552FD"/>
<path d="M109.75 164.5H128V146.25H109.75V164.5Z" fill="#FED955"/>
<path d="M109.75 91.5H128V73.25H109.75V91.5Z" fill="#FED955"/>
<path d="M109.75 164.5H128V182.75H109.75V164.5Z" fill="#FED955"/>
<path d="M182.75 109.75H201V91.5H182.75V109.75Z" fill="#FED955"/>
<path d="M182.75 146.25H201V128H182.75V146.25Z" fill="#FED955"/>
<path d="M182.75 128H201V109.75H182.75V128Z" fill="#FED955"/>
<path d="M182.75 164.5H201V146.25H182.75V164.5Z" fill="#FED955"/>
</svg>
