<svg xmlns="http://www.w3.org/2000/svg" fill="none" viewBox="0 0 256 256"><path fill="#5552FD" d="M256 128a128 128 0 0 1-37.49 90.51 128.003 128.003 0 0 1-181.02 0A128.001 128.001 0 1 1 256 128"/><path fill="#FED955" d="M55 109.75h18.25V91.5H55zm0 36.5h18.25V128H55zM55 128h18.25v-18.25H55zm0 36.5h18.25v-18.25H55zm73-91.25h18.25V55H128zm0 109.5h18.25V201H128zm18.25-109.5h18.25V55h-18.25z"/><path fill="#9695F8" d="M164.5 73.25h18.25V55H164.5zm-73 0H73.25V55H91.5zM201 182.75h-18.25V164.5H201zm-146 0h18.25V164.5H55zM146.25 55h18.25V36.75h-18.25z"/><path fill="#5552FD" d="M146.25 36.75h18.25V18.5h-18.25zm0 200.75h18.25v-18.25h-18.25z"/><path fill="#9695F8" d="M146.25 219.25h18.25V201h-18.25zM109.75 55H128V36.75h-18.25z"/><path fill="#5552FD" d="M109.75 36.75H128V18.5h-18.25zm0 200.75H128v-18.25h-18.25z"/><path fill="#9695F8" d="M109.75 219.25H128V201h-18.25zM128 55h18.25V36.75H128z"/><path fill="#5552FD" d="M128 36.75h18.25V18.5H128zm0 200.75h18.25v-18.25H128z"/><path fill="#9695F8" d="M128 219.25h18.25V201H128zM91.5 55h18.25V36.75H91.5z"/><path fill="#5552FD" d="M91.5 36.75h18.25V18.5H91.5zm0 200.75h18.25v-18.25H91.5z"/><path fill="#9695F8" d="M91.5 219.25h18.25V201H91.5zM182.75 91.5H201V73.25h-18.25zm-109.5 0H55V73.25h18.25zM182.75 201H164.5v-18.25h18.25zm-109.5 0H91.5v-18.25H73.25zM201 109.75h18.25V91.5H201zm-164.25 0H55V91.5H36.75z"/><path fill="#5552FD" d="M18.5 109.75h18.25V91.5H18.5zM36.75 91.5H55V73.25H36.75zm182.5 0H201V73.25h18.25zM164.5 219.25h18.25V201H164.5zM36.75 164.5v18.25H55V164.5zM55 73.25h18.25V55H55zm146 0h-18.25V55H201zM182.75 201H201v-18.25h-18.25zM55 182.75V201h18.25v-18.25zM73.25 55H91.5V36.75H73.25zm109.5 0H164.5V36.75h18.25zM201 182.75h18.25V164.5H201zM73.25 201v18.25H91.5V201zm146-91.25h18.25V91.5h-18.25z"/><path fill="#9695F8" d="M201 128h18.25v-18.25H201zm-164.25 0H55v-18.25H36.75z"/><path fill="#5552FD" d="M18.5 128h18.25v-18.25H18.5zm200.75 0h18.25v-18.25h-18.25z"/><path fill="#9695F8" d="M201 146.25h18.25V128H201zm-164.25 0H55V128H36.75z"/><path fill="#5552FD" d="M18.5 146.25h18.25V128H18.5zm200.75 0h18.25V128h-18.25z"/><path fill="#9695F8" d="M201 164.5h18.25v-18.25H201zm-164.25 0H55v-18.25H36.75z"/><path fill="#5552FD" d="M18.5 164.5h18.25v-18.25H18.5zm200.75 0h18.25v-18.25h-18.25z"/><path fill="#FED955" d="M146.25 182.75h18.25V201h-18.25zm-18.25-73h18.25V91.5H128zm0 36.5h18.25V128H128zm0 18.25h18.25v-18.25H128zm0-73h18.25V73.25H128zm0 73h18.25v18.25H128zm-36.5-18.25h18.25V128H91.5zm0-18.25h18.25v-18.25H91.5zm0 36.5h18.25v-18.25H91.5zm0-73h18.25V73.25H91.5zm0 73h18.25v18.25H91.5zm54.75-18.25h18.25V128h-18.25zm0-18.25h18.25v-18.25h-18.25zm0 36.5h18.25v-18.25h-18.25zm0-73h18.25V73.25h-18.25zm0 73h18.25v18.25h-18.25zm-36.5-91.25H128V55h-18.25zm0 109.5H128V201h-18.25zM91.5 73.25h18.25V55H91.5zm0 109.5h18.25V201H91.5zm18.25-73H128V91.5h-18.25zm0 36.5H128V128h-18.25z"/><path fill="#5552FD" d="M91.5 109.75h18.25V91.5H91.5zM128 128h18.25v-18.25H128zm36.5-18.25h18.25V91.5H164.5zm0 36.5h18.25V128H164.5zm0-18.25h18.25v-18.25H164.5zm0 36.5h18.25v-18.25H164.5zm0-73h18.25V73.25H164.5zm0 73h18.25v18.25H164.5zm-91.25-54.75H91.5V91.5H73.25zm0 36.5H91.5V128H73.25zm0-18.25H91.5v-18.25H73.25zm0 36.5H91.5v-18.25H73.25zm0-73H91.5V73.25H73.25zm0 73H91.5v18.25H73.25zm73-54.75h18.25V91.5h-18.25zM109.75 128H128v-18.25h-18.25z"/><path fill="#FED955" d="M109.75 164.5H128v-18.25h-18.25zm0-73H128V73.25h-18.25zm0 73H128v18.25h-18.25zm73-54.75H201V91.5h-18.25zm0 36.5H201V128h-18.25zm0-18.25H201v-18.25h-18.25zm0 36.5H201v-18.25h-18.25z"/></svg>