<svg xmlns="http://www.w3.org/2000/svg" fill="none" viewBox="0 0 256 256"><path fill="url(#paint0_linear_9885_1335)" d="M128 256c70.692 0 128-57.308 128-128S198.692 0 128 0 0 57.308 0 128s57.308 128 128 128"/><path fill="#fff" d="M50.345 175v-73.74l56.158 42.087V175h14.331v-34.631a8.34 8.34 0 0 0-3.33-6.659L49.4 82.678a8.4 8.4 0 0 0-8.77-.801 8.35 8.35 0 0 0-3.38 3.074A8.3 8.3 0 0 0 36 89.338V175zm155.311 0v-73.74l-56.159 42.087V175h-14.331v-34.631a8.34 8.34 0 0 1 3.33-6.659L206.6 82.678a8.4 8.4 0 0 1 8.77-.801 8.36 8.36 0 0 1 3.381 3.074A8.3 8.3 0 0 1 220 89.338V175z"/><defs><linearGradient id="paint0_linear_9885_1335" x1="128" x2="128" y1="0" y2="256" gradientUnits="userSpaceOnUse"><stop stop-color="#4FA89B"/><stop offset="1" stop-color="#6ACEBB"/></linearGradient></defs></svg>
