<svg xmlns="http://www.w3.org/2000/svg" fill="none" viewBox="0 0 256 256"><path fill="#2470FF" d="M128 256c70.692 0 128-57.308 128-128S198.692 0 128 0 0 57.308 0 128s57.308 128 128 128"/><path fill="#A9D6FF" d="M62.527 162.543v46.281c0 2.849 2.419 4.032 3.171 4.301a5.18 5.18 0 0 0 5.536-1.076l39.612-37.949c3.655-4.73 4.999-7.687 4.999-7.687 2.15-4.354 2.149-8.546.053-12.739-3.117-6.236-11.072-12.578-23.057-18.599l-20.478 11.396c-6.073 3.44-9.836 9.514-9.836 16.072" opacity=".9"/><path fill="url(#paint0_linear_4193_3466)" d="M42 59.612v48.538c0 6.074 4.085 11.45 9.89 13.17 19.778 5.698 54.23 17.953 62.561 35.96 1.075 2.366 1.72 4.677 1.935 7.096 5.536-10.052 8.062-21.609 6.88-33.327-1.613-16.61-10.427-31.714-24.187-41.336l-49.07-34.24a4.83 4.83 0 0 0-2.903-.968c-.86 0-1.612.161-2.419.591-1.612.914-2.687 2.58-2.687 4.516"/><path fill="#A9D6FF" d="M193.157 162.543v46.281c0 2.849-2.418 4.032-3.171 4.301a5.18 5.18 0 0 1-5.536-1.076L144.838 174.1c-3.654-4.73-4.998-7.687-4.998-7.687-2.15-4.354-2.15-8.546-.054-12.739 3.117-6.236 11.072-12.578 23.058-18.599l20.477 11.396c6.127 3.44 9.836 9.514 9.836 16.072" opacity=".9"/><path fill="url(#paint1_linear_4193_3466)" d="M213.719 59.607v48.539c0 6.073-4.084 11.449-9.889 13.169-19.779 5.698-54.231 17.953-62.562 35.961-1.075 2.365-1.72 4.676-1.935 7.095-5.536-10.052-8.062-21.609-6.879-33.327 1.612-16.609 10.427-31.714 24.186-41.336l49.071-34.24a4.83 4.83 0 0 1 2.903-.968c.86 0 1.612.161 2.418.591 1.612.914 2.687 2.58 2.687 4.515"/><defs><linearGradient id="paint0_linear_4193_3466" x1="126.168" x2="42" y1="163.67" y2="163.67" gradientUnits="userSpaceOnUse"><stop offset=".068" stop-color="#EFFDFF"/><stop offset="1" stop-color="#fff"/></linearGradient><linearGradient id="paint1_linear_4193_3466" x1="132.396" x2="213.075" y1="163.665" y2="163.665" gradientUnits="userSpaceOnUse"><stop offset=".068" stop-color="#EFFDFF"/><stop offset="1" stop-color="#fff"/></linearGradient></defs></svg>
