<svg xmlns="http://www.w3.org/2000/svg" fill="none" viewBox="0 0 256 256"><path fill="#fff" d="M128 256c70.692 0 128-57.308 128-128S198.692 0 128 0 0 57.308 0 128s57.308 128 128 128"/><path fill="#F2B705" d="M126.957 43.008a69.4 69.4 0 0 0-49.078 20.328A69.4 69.4 0 0 0 57.55 112.41a70 70 0 0 0 1.23 13.068l8.966-6.133c15.764-10.811 41.331-10.811 57.095 0l14.519 9.95c14.208 9.733 37.224 9.733 51.42 0l4.183-2.864a69.4 69.4 0 0 0-.593-30.508 69.44 69.44 0 0 0-37.617-46.148 69.46 69.46 0 0 0-29.763-6.731z"/><path fill="#53CBC8" d="M165.962 154.104a50 50 0 0 1-27.987-7.995l-14.496-9.935a50.17 50.17 0 0 0-52.44 0l-9.372 6.416a4.07 4.07 0 0 1-4.523.051 4.072 4.072 0 0 1-.077-6.769l9.37-6.416a58.32 58.32 0 0 1 61.644 0l14.497 9.935a44.79 44.79 0 0 0 46.763 0l5.504-3.764a4.07 4.07 0 0 1 4.523-.051 4.07 4.07 0 0 1 .077 6.769l-5.502 3.766a49.97 49.97 0 0 1-27.981 7.993"/><path fill="#53CBC8" d="M96.959 183.249v-39.21q-.045-1.24.105-2.471a4.417 4.417 0 0 1 4.393-3.92 4.276 4.276 0 0 1 4.144 3.92c.167 1.361.215 2.734.143 4.104v78.19a4.58 4.58 0 0 1-1.253 3.318 4.6 4.6 0 0 1-3.241 1.439 4.5 4.5 0 0 1-3.182-1.582 4.5 4.5 0 0 1-1.04-3.398v-26.063zm-8.246-19.737v19.486c0 3.322-1.789 5.543-4.3 5.463a4.987 4.987 0 0 1-4.447-5.501v-38.959c0-3.414 1.988-5.716 4.574-5.584s4.132 2.198 4.145 5.607c.04 6.498.028 12.993.028 19.488m25.318-.025v-13.699c0-3.176 1.684-5.228 4.196-5.228a4.7 4.7 0 0 1 3.325 1.603 4.7 4.7 0 0 1 1.147 3.508q.144 13.986 0 27.959a4.48 4.48 0 0 1-4.446 5.057c-2.573-.026-4.219-1.976-4.247-5.228v-13.985zm-51.056 2.859v-13.699c0-3.173 1.687-5.228 4.196-5.228a4.71 4.71 0 0 1 4.256 3.24c.197.603.27 1.239.216 1.871q.127 13.987 0 27.959a4.49 4.49 0 0 1-4.446 5.057c-2.556-.026-4.222-1.975-4.25-5.228v-13.985zm72.327-11.67a4.305 4.305 0 0 1 4.301 4.303v7.449a4.3 4.3 0 0 1-8.604 0v-7.449a4.3 4.3 0 0 1 4.303-4.303m17.045 6.524a4.3 4.3 0 0 1 4.3 4.303v41.783c0 1.14-.453 2.234-1.259 3.041a4.304 4.304 0 0 1-7.015-1.395 4.3 4.3 0 0 1-.327-1.646v-41.783a4.3 4.3 0 0 1 1.259-3.043 4.3 4.3 0 0 1 3.042-1.26m16.937 1.62a4.305 4.305 0 0 1 4.303 4.3v35.518a4.3 4.3 0 0 1-2.657 3.971 4.304 4.304 0 0 1-5.947-3.971V167.12a4.3 4.3 0 0 1 4.301-4.3m17.151-4.05c1.141 0 2.235.453 3.042 1.259a4.3 4.3 0 0 1 1.259 3.041v15.316a4.3 4.3 0 1 1-8.601 0V163.07c0-1.14.453-2.234 1.259-3.041a4.3 4.3 0 0 1 3.041-1.259"/></svg>
