<svg xmlns="http://www.w3.org/2000/svg" fill="none" viewBox="0 0 512 512"><path fill="#fff" d="M256 512c141.385 0 256-114.615 256-256S397.385 0 256 0 0 114.615 0 256s114.615 256 256 256Z"/><path fill="#F2B705" d="M253.913 86.016a138.82 138.82 0 0 0-98.156 40.655 138.802 138.802 0 0 0-40.657 98.15c.003 8.769.825 17.519 2.458 26.135l17.934-12.265c31.528-21.623 82.661-21.623 114.189 0l29.04 19.899c28.415 19.466 74.448 19.466 102.838 0l8.366-5.728a138.889 138.889 0 0 0-76.419-153.311 138.91 138.91 0 0 0-59.526-13.463l-.067-.072Z"/><path fill="#53CBC8" d="M331.924 308.208a99.984 99.984 0 0 1-55.973-15.991l-28.994-19.869a100.322 100.322 0 0 0-104.877 0l-18.746 12.832a8.147 8.147 0 0 1-11.318-2.118 8.135 8.135 0 0 1-1.285-6.097 8.149 8.149 0 0 1 3.403-5.22l18.741-12.833a116.64 116.64 0 0 1 123.287 0l28.993 19.87a89.602 89.602 0 0 0 93.527 0l11.008-7.528a8.16 8.16 0 0 1 2.921-1.249 8.15 8.15 0 0 1 8.397 3.367 8.142 8.142 0 0 1-2.118 11.317l-11.004 7.533a99.938 99.938 0 0 1-55.962 15.986Z"/><path fill="#53CBC8" d="M193.918 366.498v-78.42a31.15 31.15 0 0 1 .21-4.942 8.829 8.829 0 0 1 8.785-7.839 8.55 8.55 0 0 1 8.29 7.839c.333 2.722.429 5.469.286 8.208v156.379a9.206 9.206 0 0 1-2.507 6.636 9.195 9.195 0 0 1-6.483 2.88 9.001 9.001 0 0 1-8.103-6.349 9.002 9.002 0 0 1-.34-3.611v-52.127l-.138-28.654Zm-16.492-39.473v38.972c0 6.643-3.578 11.084-8.602 10.926a9.994 9.994 0 0 1-6.736-3.651 9.978 9.978 0 0 1-2.157-7.352v-77.919c0-6.827 3.977-11.432 9.149-11.166 5.172.266 8.264 4.395 8.289 11.212.082 12.996.057 25.987.057 38.978Zm50.637-.052v-27.397c0-6.352 3.368-10.456 8.392-10.456a9.41 9.41 0 0 1 6.648 3.206 9.435 9.435 0 0 1 2.296 7.015c.19 18.65.19 37.289 0 55.919a8.962 8.962 0 0 1-5.196 9.319 8.96 8.96 0 0 1-3.697.794c-5.147-.051-8.438-3.95-8.494-10.456v-27.969l.051.025Zm-102.113 5.719v-27.397c0-6.348 3.373-10.456 8.392-10.456a9.426 9.426 0 0 1 6.648 3.206 9.415 9.415 0 0 1 2.296 7.015c.17 18.65.17 37.289 0 55.918a8.973 8.973 0 0 1-8.893 10.114c-5.111-.051-8.443-3.951-8.499-10.456v-27.97l.056.026Zm144.655-23.34a8.61 8.61 0 0 1 8.601 8.607v14.896a8.601 8.601 0 0 1-14.685 6.082 8.606 8.606 0 0 1-2.523-6.082v-14.896a8.607 8.607 0 0 1 8.607-8.607Zm34.089 13.048a8.604 8.604 0 0 1 8.601 8.606v83.566a8.6 8.6 0 0 1-8.601 8.6 8.593 8.593 0 0 1-8.602-8.6v-83.566a8.612 8.612 0 0 1 2.518-6.085 8.595 8.595 0 0 1 6.084-2.521Zm33.874 3.239a8.605 8.605 0 0 1 8.606 8.601v71.036a8.61 8.61 0 0 1-2.523 6.08 8.61 8.61 0 0 1-6.083 2.515 8.598 8.598 0 0 1-8.602-8.595V334.24a8.6 8.6 0 0 1 8.602-8.601Zm34.303-8.099a8.601 8.601 0 0 1 8.601 8.6v30.633a8.6 8.6 0 0 1-8.601 8.6 8.601 8.601 0 0 1-8.602-8.6V326.14a8.6 8.6 0 0 1 8.602-8.6Z"/></svg>