<svg xmlns="http://www.w3.org/2000/svg" fill="none" viewBox="0 0 256 256"><path fill="#fff" d="M128 256c70.692 0 128-57.308 128-128S198.692 0 128 0 0 57.308 0 128s57.308 128 128 128"/><path fill="#C4C4C4" fill-rule="evenodd" d="M135.192 140.949a191 191 0 0 0 27.519-2.736 4.56 4.56 0 0 1 3.725.98 4.52 4.52 0 0 1 1.631 3.475v17.155a195.7 195.7 0 0 1-39.675 3.894c-31.36 0-58.808-6.771-73.995-16.909a29.6 29.6 0 0 1-11.24-12.103 15.1 15.1 0 0 1-1.41-6.245 16.6 16.6 0 0 1 3.066-9.261 1.97 1.97 0 0 1 1.457-.891 1.97 1.97 0 0 1 1.609.575 42.6 42.6 0 0 0 5.461 4.561 89.1 89.1 0 0 0 28.189 12.068 181.7 181.7 0 0 0 40.168 5.508v8.489a6.68 6.68 0 0 0 1.971 4.738 6.75 6.75 0 0 0 4.759 1.963 6.8 6.8 0 0 0 4.749-1.973 6.72 6.72 0 0 0 1.981-4.728z" clip-rule="evenodd"/><path fill="#FF7900" fill-rule="evenodd" d="M135.192 140.949a191 191 0 0 0 27.519-2.736 4.56 4.56 0 0 1 3.725.98 4.52 4.52 0 0 1 1.631 3.475v17.155a195.7 195.7 0 0 1-39.675 3.894c-31.36 0-58.808-6.771-73.995-16.909a29.6 29.6 0 0 1-11.24-12.103 15.1 15.1 0 0 1-1.41-6.245 16.6 16.6 0 0 1 3.066-9.261 1.97 1.97 0 0 1 1.457-.891 1.97 1.97 0 0 1 1.609.575 42.6 42.6 0 0 0 5.461 4.561 89.1 89.1 0 0 0 28.189 12.068 181.7 181.7 0 0 0 40.168 5.508v8.489a6.68 6.68 0 0 0 1.971 4.738 6.75 6.75 0 0 0 4.759 1.963 6.8 6.8 0 0 0 4.749-1.973 6.72 6.72 0 0 0 1.981-4.728zm79.808-12.7a15 15 0 0 1-1.445 6.385 29.97 29.97 0 0 1-11.205 11.963 83.5 83.5 0 0 1-20.93 9.507v-19.365a4.5 4.5 0 0 1 .824-2.625 4.5 4.5 0 0 1 2.206-1.655 76.2 76.2 0 0 0 18.887-9.226 41 41 0 0 0 5.532-4.596 1.97 1.97 0 0 1 1.609-.575 1.98 1.98 0 0 1 1.456.891 16.34 16.34 0 0 1 3.066 9.296" clip-rule="evenodd"/><path fill="#C4C4C4" fill-rule="evenodd" d="M215 164.278a15 15 0 0 1-1.445 6.35 29.97 29.97 0 0 1-11.205 11.963c-15.256 10.138-42.705 16.909-73.994 16.909s-58.808-6.771-73.994-16.909a29.6 29.6 0 0 1-11.24-12.103 14.9 14.9 0 0 1-1.41-6.21 16.65 16.65 0 0 1 3.066-9.296 1.96 1.96 0 0 1 1.456-.892 1.98 1.98 0 0 1 1.609.576 40.3 40.3 0 0 0 5.461 4.561 88.3 88.3 0 0 0 28.189 12.068 187.3 187.3 0 0 0 46.828 5.578 195.6 195.6 0 0 0 39.675-3.894v7.016a6.65 6.65 0 0 0 1.961 4.748 6.7 6.7 0 0 0 4.769 1.952 6.75 6.75 0 0 0 4.759-1.962 6.7 6.7 0 0 0 1.971-4.738v-10.524a79.8 79.8 0 0 0 21.881-10.209 36.6 36.6 0 0 0 5.532-4.596 2.02 2.02 0 0 1 1.626-.576 2.01 2.01 0 0 1 1.475.892 16.6 16.6 0 0 1 3.03 9.296" clip-rule="evenodd"/><path fill="#FF7900" fill-rule="evenodd" d="M215 164.278a15 15 0 0 1-1.445 6.35 29.97 29.97 0 0 1-11.205 11.963c-15.256 10.138-42.705 16.909-73.994 16.909s-58.808-6.771-73.994-16.909a29.6 29.6 0 0 1-11.24-12.103 14.9 14.9 0 0 1-1.41-6.21 16.65 16.65 0 0 1 3.066-9.296 1.96 1.96 0 0 1 1.456-.892 1.98 1.98 0 0 1 1.609.576 40.3 40.3 0 0 0 5.461 4.561 88.3 88.3 0 0 0 28.189 12.068 187.3 187.3 0 0 0 46.828 5.578 195.6 195.6 0 0 0 39.675-3.894v7.016a6.65 6.65 0 0 0 1.961 4.748 6.7 6.7 0 0 0 4.769 1.952 6.75 6.75 0 0 0 4.759-1.962 6.7 6.7 0 0 0 1.971-4.738v-10.524a79.8 79.8 0 0 0 21.881-10.209 36.6 36.6 0 0 0 5.532-4.596 2.02 2.02 0 0 1 1.626-.576 2.01 2.01 0 0 1 1.475.892 16.6 16.6 0 0 1 3.03 9.296" clip-rule="evenodd"/><path fill="#C4C4C4" fill-rule="evenodd" d="M214.999 92.257a15.7 15.7 0 0 1-1.515 6.63 29.6 29.6 0 0 1-10.571 11.331 69 69 0 0 1-11.733 6.315 160.4 160.4 0 0 1-56.13 10.875v-9.437a13.46 13.46 0 0 1 2.308-7.547 13.55 13.55 0 0 1 6.148-4.977l9.303-3.788c7.928-2.877 12.966-7.192 12.966-11.963 0-8.736-16.772-15.822-37.455-15.822S90.865 80.89 90.865 89.696c0 4.77 5.039 9.086 12.967 11.963l9.337 3.788a13.6 13.6 0 0 1 6.143 4.981 13.5 13.5 0 0 1 2.313 7.543v9.437a160 160 0 0 1-56.376-10.91 69.5 69.5 0 0 1-11.663-6.28 29.76 29.76 0 0 1-10.57-11.33 15.7 15.7 0 0 1-1.516-6.631C41.5 72.787 80.259 57 128.144 57s86.855 15.787 86.855 35.257" clip-rule="evenodd"/><path fill="#FF7900" fill-rule="evenodd" d="M214.999 92.257a15.7 15.7 0 0 1-1.515 6.63 29.6 29.6 0 0 1-10.571 11.331 69 69 0 0 1-11.733 6.315 160.4 160.4 0 0 1-56.13 10.875v-9.437a13.46 13.46 0 0 1 2.308-7.547 13.55 13.55 0 0 1 6.148-4.977l9.303-3.788c7.928-2.877 12.966-7.192 12.966-11.963 0-8.736-16.772-15.822-37.455-15.822S90.865 80.89 90.865 89.696c0 4.77 5.039 9.086 12.967 11.963l9.337 3.788a13.6 13.6 0 0 1 6.143 4.981 13.5 13.5 0 0 1 2.313 7.543v9.437a160 160 0 0 1-56.376-10.91 69.5 69.5 0 0 1-11.663-6.28 29.76 29.76 0 0 1-10.57-11.33 15.7 15.7 0 0 1-1.516-6.631C41.5 72.787 80.259 57 128.144 57s86.855 15.787 86.855 35.257" clip-rule="evenodd"/></svg>
