<svg xmlns="http://www.w3.org/2000/svg" fill="none" viewBox="0 0 512 512"><path fill="#fff" d="M256 512c141.385 0 256-114.615 256-256S397.385 0 256 0 0 114.615 0 256s114.615 256 256 256"/><path fill="#C4C4C4" fill-rule="evenodd" d="M270.384 281.899a382 382 0 0 0 55.038-5.473 9.11 9.11 0 0 1 7.45 1.96 9.06 9.06 0 0 1 2.407 3.114 9 9 0 0 1 .854 3.836v34.31a391.4 391.4 0 0 1-79.35 7.788c-62.719 0-117.615-13.541-147.988-33.818a59.2 59.2 0 0 1-22.48-24.206 30.1 30.1 0 0 1-2.82-12.489 33.23 33.23 0 0 1 6.132-18.523 3.94 3.94 0 0 1 2.913-1.783 3.96 3.96 0 0 1 3.217 1.152 85 85 0 0 0 10.923 9.12 178.2 178.2 0 0 0 56.377 24.137 363.4 363.4 0 0 0 80.337 11.015v16.979a13.37 13.37 0 0 0 3.942 9.476 13.5 13.5 0 0 0 4.367 2.905 13.5 13.5 0 0 0 5.151 1.021 13.56 13.56 0 0 0 9.497-3.946 13.44 13.44 0 0 0 3.963-9.456z" clip-rule="evenodd"/><path fill="#FF7900" fill-rule="evenodd" d="M270.384 281.899a382 382 0 0 0 55.038-5.473 9.11 9.11 0 0 1 7.45 1.96 9.06 9.06 0 0 1 2.407 3.114 9 9 0 0 1 .854 3.836v34.31a391.4 391.4 0 0 1-79.35 7.788c-62.719 0-117.615-13.541-147.988-33.818a59.2 59.2 0 0 1-22.48-24.206 30.1 30.1 0 0 1-2.82-12.489 33.23 33.23 0 0 1 6.132-18.523 3.94 3.94 0 0 1 2.913-1.783 3.96 3.96 0 0 1 3.217 1.152 85 85 0 0 0 10.923 9.12 178.2 178.2 0 0 0 56.377 24.137 363.4 363.4 0 0 0 80.337 11.015v16.979a13.37 13.37 0 0 0 3.942 9.476 13.5 13.5 0 0 0 4.367 2.905 13.5 13.5 0 0 0 5.151 1.021 13.56 13.56 0 0 0 9.497-3.946 13.44 13.44 0 0 0 3.963-9.456zm159.615-25.4a29.9 29.9 0 0 1-2.889 12.77 59.95 59.95 0 0 1-22.41 23.925 167 167 0 0 1-41.859 19.014v-38.73a8.95 8.95 0 0 1 1.647-5.25 9.02 9.02 0 0 1 4.413-3.31 152.4 152.4 0 0 0 37.773-18.453 82.5 82.5 0 0 0 11.064-9.19 3.96 3.96 0 0 1 4.878-.591c.504.309.932.726 1.252 1.222a32.66 32.66 0 0 1 6.131 18.593" clip-rule="evenodd"/><path fill="#C4C4C4" fill-rule="evenodd" d="M430 328.557a30.1 30.1 0 0 1-2.89 12.699 59.96 59.96 0 0 1-22.409 23.926C374.187 385.459 319.29 399 256.712 399s-117.616-13.541-147.989-33.818a59.2 59.2 0 0 1-22.48-24.206 29.85 29.85 0 0 1-2.819-12.419 33.3 33.3 0 0 1 6.13-18.593 3.94 3.94 0 0 1 2.914-1.783 3.95 3.95 0 0 1 3.218 1.152 80.5 80.5 0 0 0 10.923 9.12 176.6 176.6 0 0 0 56.376 24.137 374.5 374.5 0 0 0 93.657 11.155 391 391 0 0 0 79.349-7.788v14.033a13.3 13.3 0 0 0 1.006 5.139 13.3 13.3 0 0 0 2.916 4.358 13.43 13.43 0 0 0 9.539 3.904 13.48 13.48 0 0 0 9.517-3.925 13.4 13.4 0 0 0 3.942-9.476v-21.049a159.6 159.6 0 0 0 43.763-20.417 73 73 0 0 0 11.064-9.191 4.026 4.026 0 0 1 6.201.631A33.16 33.16 0 0 1 430 328.557" clip-rule="evenodd"/><path fill="#FF7900" fill-rule="evenodd" d="M430 328.557a30.1 30.1 0 0 1-2.89 12.699 59.96 59.96 0 0 1-22.409 23.926C374.187 385.459 319.29 399 256.712 399s-117.616-13.541-147.989-33.818a59.2 59.2 0 0 1-22.48-24.206 29.85 29.85 0 0 1-2.819-12.419 33.3 33.3 0 0 1 6.13-18.593 3.94 3.94 0 0 1 2.914-1.783 3.95 3.95 0 0 1 3.218 1.152 80.5 80.5 0 0 0 10.923 9.12 176.6 176.6 0 0 0 56.376 24.137 374.5 374.5 0 0 0 93.657 11.155 391 391 0 0 0 79.349-7.788v14.033a13.3 13.3 0 0 0 1.006 5.139 13.3 13.3 0 0 0 2.916 4.358 13.43 13.43 0 0 0 9.539 3.904 13.48 13.48 0 0 0 9.517-3.925 13.4 13.4 0 0 0 3.942-9.476v-21.049a159.6 159.6 0 0 0 43.763-20.417 73 73 0 0 0 11.064-9.191 4.026 4.026 0 0 1 6.201.631A33.16 33.16 0 0 1 430 328.557" clip-rule="evenodd"/><path fill="#C4C4C4" fill-rule="evenodd" d="M429.999 184.513a31.5 31.5 0 0 1-3.031 13.261 59.2 59.2 0 0 1-21.141 22.663 137.6 137.6 0 0 1-23.467 12.628 320.7 320.7 0 0 1-112.26 21.751v-18.874a26.93 26.93 0 0 1 4.616-15.095 27.1 27.1 0 0 1 12.297-9.953l18.604-7.577c15.856-5.754 25.934-14.384 25.934-23.925 0-17.471-33.545-31.644-74.911-31.644s-74.91 14.033-74.91 31.644c0 9.541 10.077 18.171 25.933 23.925l18.675 7.577a27.2 27.2 0 0 1 12.286 9.961 27 27 0 0 1 4.627 15.087v18.874a320 320 0 0 1-112.754-21.82 139.3 139.3 0 0 1-23.326-12.559 59.54 59.54 0 0 1-21.14-22.663A31.5 31.5 0 0 1 83 184.513C83 145.573 160.518 114 256.288 114s173.711 31.573 173.711 70.513" clip-rule="evenodd"/><path fill="#FF7900" fill-rule="evenodd" d="M429.999 184.513a31.5 31.5 0 0 1-3.031 13.261 59.2 59.2 0 0 1-21.141 22.663 137.6 137.6 0 0 1-23.467 12.628 320.7 320.7 0 0 1-112.26 21.751v-18.874a26.93 26.93 0 0 1 4.616-15.095 27.1 27.1 0 0 1 12.297-9.953l18.604-7.577c15.856-5.754 25.934-14.384 25.934-23.925 0-17.471-33.545-31.644-74.911-31.644s-74.91 14.033-74.91 31.644c0 9.541 10.077 18.171 25.933 23.925l18.675 7.577a27.2 27.2 0 0 1 12.286 9.961 27 27 0 0 1 4.627 15.087v18.874a320 320 0 0 1-112.754-21.82 139.3 139.3 0 0 1-23.326-12.559 59.54 59.54 0 0 1-21.14-22.663A31.5 31.5 0 0 1 83 184.513C83 145.573 160.518 114 256.288 114s173.711 31.573 173.711 70.513" clip-rule="evenodd"/></svg>