<svg xmlns="http://www.w3.org/2000/svg" fill="none" viewBox="0 0 256 256"><path fill="#C8ECE1" d="M128 256c70.692 0 128-57.308 128-128S198.692 0 128 0 0 57.308 0 128s57.308 128 128 128"/><path fill="#308D8A" d="M76.499 159.324a4.97 4.97 0 0 1 3.514-1.45h121.243c2.215 0 3.323 2.672 1.757 4.237l-23.951 23.937a4.97 4.97 0 0 1-3.514 1.451H54.305c-2.215 0-3.323-2.672-1.757-4.238zm0-89.372c.955-.917 2.215-1.451 3.514-1.451h121.243c2.215 0 3.323 2.672 1.757 4.237l-23.951 23.938a4.97 4.97 0 0 1-3.514 1.45H54.305c-2.215 0-3.323-2.672-1.757-4.237zm102.563 44.4a4.97 4.97 0 0 0-3.514-1.451H54.305c-2.215 0-3.323 2.672-1.757 4.238l23.95 23.937a4.97 4.97 0 0 0 3.515 1.45h121.243c2.215 0 3.323-2.672 1.757-4.237z"/></svg>
