<svg xmlns="http://www.w3.org/2000/svg" fill="none" viewBox="0 0 256 256"><path fill="url(#paint0_linear_10100_672)" d="M128 256a128 128 0 0 0 118.257-79.016A128.002 128.002 0 0 0 152.972 2.46 128 128 0 0 0 0 128a127.68 127.68 0 0 0 37.397 90.604A127.7 127.7 0 0 0 128 256"/><path fill="#fff" d="M171 150.396c0-22.446-13.457-30.228-40.395-33.444-19.255-2.572-23.091-7.718-23.091-16.722s6.414-14.792 19.229-14.792c11.558 0 17.96 3.859 21.167 13.506a4.82 4.82 0 0 0 4.554 3.151h10.262a4.35 4.35 0 0 0 3.214-1.279 4.37 4.37 0 0 0 1.276-3.223v-.643a32.16 32.16 0 0 0-9.964-18.102 32 32 0 0 0-18.899-8.267V55.145c0-2.572-1.924-4.502-5.131-5.145h-9.621c-2.566 0-4.49 1.93-5.132 5.145V69.99c-19.293 2.637-31.48 15.436-31.48 31.515 0 21.224 12.828 29.598 39.767 32.801 17.959 3.215 23.796 7.023 23.796 17.365s-8.979 17.365-21.166 17.365c-16.676 0-22.385-7.011-24.373-16.722a4.7 4.7 0 0 0-1.576-2.786 4.68 4.68 0 0 0-2.991-1.125H89.491a4.38 4.38 0 0 0-4.177 2.763 4.4 4.4 0 0 0-.313 1.74v.643c2.566 16.079 12.828 27.655 33.994 30.871v15.436c0 2.572 1.925 4.502 5.132 5.145h9.621c2.565 0 4.489-1.929 5.131-5.145V184.42c19.242-3.216 32.07-16.722 32.07-34.087z"/><defs><linearGradient id="paint0_linear_10100_672" x1="0" x2="256" y1="0" y2="256" gradientUnits="userSpaceOnUse"><stop stop-color="#596AEC"/><stop offset="1" stop-color="#60E2E9"/></linearGradient></defs></svg>
