<svg xmlns="http://www.w3.org/2000/svg" fill="none" viewBox="0 0 256 256"><path fill="#000" fill-rule="evenodd" d="M128 256c70.934 0 128-57.066 128-128S198.934 0 128 0 0 57.066 0 128s57.066 128 128 128" clip-rule="evenodd"/><path fill="#fff" fill-rule="evenodd" d="M244 128c0 64.065-51.935 116-116 116S12 192.065 12 128 63.935 12 128 12s116 51.935 116 116M128 233.209c58.105 0 105.209-47.104 105.209-105.209S186.105 22.79 128 22.79 22.79 69.895 22.79 128 69.895 233.209 128 233.209" clip-rule="evenodd"/><path fill="#B8F2FA" fill-rule="evenodd" d="M244 128c0 64.065-51.935 116-116 116S12 192.065 12 128 63.935 12 128 12s116 51.935 116 116M128 233.209c58.105 0 105.209-47.104 105.209-105.209S186.105 22.79 128 22.79 22.79 69.895 22.79 128 69.895 233.209 128 233.209" clip-rule="evenodd"/><path fill="#B8F2FA" d="m128.412 69-15.98 17.016 15.98 17.015 15.98-17.015z"/><path fill="#B8F2FA" d="M75.026 104.258 58 86.936v85.485h20.145v-36.869a238.5 238.5 0 0 0 46.055 30.426A228.8 228.8 0 0 0 187.279 187l2.268-14.579H199v-64.422h-20.145V163.4a210 210 0 0 1-46.054-16.827 182 182 0 0 1-7.203-3.805l-.018-.006a220.5 220.5 0 0 1-50.554-38.498z"/></svg>
