<svg xmlns="http://www.w3.org/2000/svg" fill="none" viewBox="0 0 256 256"><path fill="#000" fill-rule="evenodd" d="M128 256c70.934 0 128-57.066 128-128S198.934 0 128 0 0 57.066 0 128s57.066 128 128 128" clip-rule="evenodd"/><path fill="#fff" fill-rule="evenodd" d="M244 128c0 64.065-51.935 116-116 116S12 192.065 12 128 63.935 12 128 12s116 51.935 116 116M128 233.209c58.105 0 105.209-47.104 105.209-105.209S186.105 22.79 128 22.79 22.79 69.895 22.79 128 69.895 233.209 128 233.209" clip-rule="evenodd"/><path fill="#DECFB1" fill-rule="evenodd" d="M244 128c0 64.065-51.935 116-116 116S12 192.065 12 128 63.935 12 128 12s116 51.935 116 116M128 233.209c58.105 0 105.209-47.104 105.209-105.209S186.105 22.79 128 22.79 22.79 69.895 22.79 128 69.895 233.209 128 233.209" clip-rule="evenodd"/><path fill="#DECFB1" d="M117.857 70.69c.62.708.711 1.496 1.04 2.162.312.629.381 1.374.929 2.068.24-.43.447-.73.591-1.06 1.357-3.129 2.7-6.26 4.052-9.387 1.025-2.38 2.044-4.765 3.087-7.139.204-.466.354-.982.716-1.334.417.063.489.367.588.619 1.888 4.828 3.77 9.663 5.655 14.491q.603 1.544 1.226 3.08c.084.204.222.387.42.717.776-1.376 1.085-2.781 1.756-4.188.354.412.402.779.48 1.118.581 2.626 1.153 5.252 1.732 7.878l3.321 15.059c.806 3.656 1.603 7.319 2.415 10.972.171.764.195 1.509.039 2.281q-2.38 11.723-4.735 23.451c-1.094 5.465-2.158 10.933-3.249 16.399-1.31 6.547-2.638 13.09-3.947 19.637-.8 4.005-1.586 8.01-2.377 12.016-.911 4.618-1.819 9.236-2.733 13.851-.084.42-.204.832-.297 1.223-.414.069-.441-.196-.489-.418-.53-2.491-1.066-4.979-1.582-7.473-1.448-7.009-2.88-14.019-4.325-21.028-1.361-6.586-2.739-13.169-4.097-19.759-1.502-7.289-2.982-14.584-4.484-21.876a3092 3092 0 0 0-3.383-16.224 4.3 4.3 0 0 1 .011-1.845c.651-3.005 1.277-6.015 1.925-9.02 1.516-7.042 3.039-14.085 4.555-21.128.273-1.268.531-2.539.807-3.803.086-.406.212-.803.359-1.353zM226 129.458c-.899 1.163-1.828 1.854-2.667 2.623-5.836 5.345-11.698 10.664-17.543 15.997-4.181 3.815-8.347 7.646-12.525 11.462-5.35 4.883-10.709 9.753-16.056 14.638-4.142 3.786-8.274 7.584-12.414 11.372-1.097 1.004-2.191 2.014-3.311 2.987-.354.306-.771.592-1.208.748-5.185 1.863-10.379 3.699-15.573 5.538-.213.075-.441.102-.681.153-.093-.535.246-.775.462-1.058 1.6-2.097 3.213-4.188 4.822-6.276l20.285-26.347c5.679-7.377 11.362-14.746 17.026-22.135.465-.607.984-.952 1.745-1.121 3.695-.814 7.376-1.688 11.059-2.548 5.833-1.358 11.665-2.724 17.498-4.082 2.706-.632 5.409-1.256 8.119-1.878.225-.051.465-.037.962-.07zm-194.874 1.464c.647.129 1.3.234 1.942.387 6.297 1.485 12.59 2.981 18.891 4.468 5.41 1.277 10.817 2.554 16.233 3.795.797.183 1.358.553 1.867 1.196 4.403 5.576 8.832 11.129 13.256 16.687l17.486 21.975q5.826 7.325 11.646 14.657c.174.219.318.462.591.865-.444-.069-.717-.066-.956-.156-3.363-1.268-6.72-2.551-10.08-3.831-1.792-.682-3.575-1.379-5.373-2.046-.642-.238-1.181-.589-1.694-1.046-4.049-3.602-8.122-7.178-12.18-10.768-5.746-5.087-11.482-10.186-17.228-15.269-4.418-3.909-8.85-7.803-13.271-11.712-3.666-3.242-7.32-6.496-10.982-9.738-3.159-2.797-6.327-5.588-9.486-8.388-.279-.247-.524-.526-.788-.788.042-.096.08-.189.123-.285zm86.341 64.039c-.383-.484-.773-.959-1.147-1.448-5.899-7.698-11.791-15.396-17.69-23.093-7.792-10.174-15.582-20.353-23.39-30.518-.652-.85-1.144-1.742-1.438-2.782-1.292-4.576-2.622-9.14-3.944-13.707q-2.559-8.856-5.122-17.712c-.333-1.153-.669-2.307-.992-3.461-.051-.177-.057-.366-.081-.529.324-.24.482-.006.626.145q1.24 1.303 2.461 2.625 6.662 7.171 13.328 14.341c.126.136.288.232.414.334.38-.126.272-.394.255-.613-.16-1.722-.33-3.443-.492-5.165-.02-.231 0-.469 0-.721.495-.069.731.27.989.517 1.567 1.484 3.12 2.986 4.676 4.483.587.564 1.142 1.168 1.762 1.697.516.439.722.953.788 1.613q.332 3.227.752 6.443c.081.609.228 1.234.468 1.799q3.793 8.871 7.64 17.718c2.26 5.195 4.561 10.372 6.836 15.558 2.835 6.46 5.692 12.913 8.488 19.391 1.541 3.569 2.982 7.181 4.448 10.783.285.7.566 1.419.369 2.302zm58.301-82.58c.009 2.46-.581 4.57-.504 6.871.264-.144.447-.195.561-.316 2.784-2.98 5.559-5.967 8.338-8.953 2.353-2.53 4.703-5.063 7.061-7.59.282-.303.567-.625 1.13-.904-.102.544-.141.911-.243 1.262a4083 4083 0 0 1-3.108 10.798q-2.001 6.917-4.007 13.839c-1.001 3.461-2.023 6.914-2.988 10.384-.216.778-.659 1.379-1.124 1.986-2.913 3.816-5.839 7.62-8.758 11.429l-15.932 20.807-16.904 22.06c-.252.327-.534.633-.8.946-.345-.253-.204-.487-.129-.691.644-1.758 1.219-3.545 1.96-5.261 3.647-8.467 7.334-16.916 11.017-25.368 3.435-7.878 6.891-15.743 10.326-23.621 1.516-3.477 2.976-6.977 4.504-10.45.435-.989.623-2.007.734-3.062.201-1.911.441-3.819.621-5.73.054-.58.33-.982.719-1.355q2.088-1.982 4.172-3.969c.729-.697 1.442-1.409 2.173-2.103.303-.288.635-.541 1.184-1.004zm-52.819 82.102c-.209-.415-.44-.823-.623-1.25-2.832-6.619-5.656-13.241-8.488-19.86-3.153-7.367-6.318-14.731-9.471-22.099-1.945-4.542-3.878-9.094-5.817-13.64-1.337-3.134-2.671-6.268-4.023-9.395-.344-.8-.584-1.614-.677-2.485-.42-3.867-.866-7.734-1.307-11.601q-.611-5.371-1.229-10.738c-.554-4.82-1.115-9.639-1.669-14.46a725 725 0 0 1-.563-5.012c-.018-.172.024-.35.039-.53.518-.03.587.37.749.629a929 929 0 0 1 4.07 6.624c3.474 5.697 6.932 11.4 10.421 17.088.536.874.92 1.778 1.13 2.779.776 3.714 1.57 7.424 2.356 11.135 1.304 6.153 2.601 12.306 3.905 18.46 1.046 4.933 2.095 9.867 3.138 14.8 1.259 5.967 2.5 11.934 3.765 17.901 1.435 6.767 2.886 13.527 4.327 20.29.09.418.144.842.216 1.262l-.246.105zm43.975-110.976c-.118 1.145-.219 2.29-.351 3.43-.249 2.197-.522 4.39-.771 6.587q-.65 5.73-1.294 11.462l-1.385 12.181c-.339 2.962-.662 5.925-1.031 8.881a7 7 0 0 1-.48 1.797c-1.348 3.236-2.73 6.457-4.106 9.681q-3.368 7.882-6.74 15.765-2.919 6.822-5.833 13.646-3.9 9.144-7.807 18.286a2250 2250 0 0 1-3.693 8.608 1.8 1.8 0 0 1-.653.799c.015-.249 0-.504.048-.745 1.13-5.312 2.278-10.618 3.405-15.93 1.642-7.755 3.257-15.516 4.9-23.267 1.334-6.298 2.697-12.592 4.034-18.89 1.058-4.982 2.089-9.969 3.147-14.951.77-3.62 1.57-7.232 2.338-10.852a5.4 5.4 0 0 1 .701-1.719c4.511-7.373 9.013-14.752 13.517-22.131.45-.74.887-1.485 1.346-2.218.117-.186.279-.342.423-.514l.285.1z"/></svg>