<svg xmlns="http://www.w3.org/2000/svg" fill="none" viewBox="0 0 256 256"><path fill="#0074F0" d="M128.428 255.999c70.689-.235 127.807-57.739 127.571-128.427C255.764 56.883 198.26-.235 127.572.001 56.883.236-.235 57.74.001 128.428c.235 70.689 57.739 127.807 128.427 127.571"/><path fill="#fff" d="M208.01 207.497c43.88-44.179 43.666-115.617-.513-159.507C163.318 4.11 91.88 4.325 47.99 48.504z" opacity=".2"/><path fill="#fff" d="M121.353 62.421a65.918 65.918 0 0 1 29.578 127.437l-22.357 31.453a93.32 93.32 0 0 0 64.091-25.834A93.32 93.32 0 0 0 137.85 35.176z"/><path fill="#fff" d="M126.019 34.703a93.317 93.317 0 0 0-9.651 185.886l19.261-27.093a65.92 65.92 0 0 1-28.19-128.103l18.58-30.703z"/><path fill="url(#paint0_linear_9890_1768)" d="M150.933 189.857a65.94 65.94 0 0 0 43.117-61.864h27.398a93.317 93.317 0 0 1-92.873 93.317z"/><path fill="url(#paint1_linear_9890_1768)" d="M126.02 34.704a93.317 93.317 0 0 0-91.207 93.289s27.398.403 27.398 0c0-29.161 18.955-53.907 45.215-62.586z"/><path fill="#fff" d="m127.965 204.286 46.853-65.989-46.853 27.662-46.826-27.662z"/><path fill="#0074F0" d="m127.964 204.286 46.853-65.989-46.853 27.662z" opacity=".1"/><path fill="url(#paint2_linear_9890_1768)" d="m127.824 157.183 47.075-27.689-47.075-77.765-47.09 77.765 47.076 27.703z"/><path fill="#fff" d="m127.824 157.183 47.075-27.689-47.075-77.765-47.09 77.765 47.076 27.703z"/><path fill="#0074F0" d="m127.824 157.183-47.09-27.689 47.076-77.765z" opacity=".1"/><path fill="#0074F0" d="M127.824 157.183v-49.769l-47.09 22.079 47.076 27.704zm0 0v-49.769l47.075 22.079z" opacity=".1"/><defs><linearGradient id="paint0_linear_9890_1768" x1="66.697" x2="169.457" y1="244.917" y2="177.595" gradientUnits="userSpaceOnUse"><stop stop-color="#1A82FF" stop-opacity=".5"/><stop offset="1" stop-color="#fff"/></linearGradient><linearGradient id="paint1_linear_9890_1768" x1="178.497" x2="80.166" y1="-8.248" y2="62.796" gradientUnits="userSpaceOnUse"><stop stop-color="#1A82FF" stop-opacity=".5"/><stop offset="1" stop-color="#fff"/></linearGradient><linearGradient id="paint2_linear_9890_1768" x1="27.646" x2="110.132" y1="79.877" y2="130.23" gradientUnits="userSpaceOnUse"><stop stop-color="#1C313F"/><stop offset="1" stop-color="#fff"/></linearGradient></defs></svg>