<svg xmlns="http://www.w3.org/2000/svg" fill="none" viewBox="0 0 256 256"><path fill="#fff" d="M128 256c70.692 0 128-57.308 128-128S198.692 0 128 0 0 57.308 0 128s57.308 128 128 128"/><path fill="#000" d="M128 220.672h6.572a92.3 92.3 0 0 0 40.924-12.814H128c-44.104 0-79.858-35.754-79.858-79.858S83.895 48.142 128 48.142 207.858 83.896 207.858 128c0 4.605-.389 9.115-1.135 13.5h12.972a93 93 0 0 0 .977-13.5c0-51.181-41.491-92.672-92.672-92.672S35.328 76.818 35.328 128s41.49 92.672 92.672 92.672"/><path fill="#000" d="M128 194.129h65.25a93.4 93.4 0 0 0 10.839-12.814H128c-29.445 0-53.315-23.87-53.315-53.315S98.555 74.685 128 74.685s53.315 23.87 53.315 53.315c0 4.67-.599 9.193-1.723 13.5h13.156a66.4 66.4 0 0 0 1.381-13.5c0-36.522-29.607-66.129-66.129-66.129S61.871 91.478 61.871 128 91.478 194.129 128 194.129"/><path fill="#000" d="M212.069 167.586H128c-21.862 0-39.586-17.723-39.586-39.586S106.138 88.414 128 88.414s39.586 17.723 39.586 39.586c0 4.737-.834 9.285-2.364 13.5h-14.097a26.6 26.6 0 0 0 3.647-13.5c0-14.786-11.986-26.772-26.772-26.772S101.228 113.214 101.228 128s11.986 26.772 26.772 26.772h88.985a92 92 0 0 1-4.916 12.814"/></svg>
