<svg xmlns="http://www.w3.org/2000/svg" fill="none" viewBox="0 0 256 256"><path fill="#000" fill-rule="evenodd" d="M256 128a128 128 0 0 1-37.49 90.51 128.003 128.003 0 0 1-181.02 0A128.001 128.001 0 1 1 256 128M100.608 82.432c22.528 5.888 30.208 35.84 17.152 66.048-14.592 32.512-57.344 35.84-68.608 5.12-5.888-18.944 0-45.568 12.8-59.392 10.496-11.008 25.856-15.36 38.656-11.776m-15.36 15.36c-11.264 2.56-17.92 15.36-19.712 36.864-.768 16.384 4.352 24.832 15.36 24.832 14.592 0 24.064-17.152 24.064-41.984 0-11.264-2.56-16.384-8.448-18.944-2.56-1.792-7.936-1.792-11.264-.768m121.6 23.04c6.912-17.152-5.12-35.328-21.248-37.632-15.872-2.304-36.864-.768-36.864-.768-2.56.768-4.352 2.56-5.12 6.656l-13.824 79.104c-1.024 5.888 2.56 5.888 8.704 5.888h2.816c5.888.256 6.4.256 9.216-16.384.307-1.798.569-3.401.803-4.83 1.129-6.914 1.596-9.769 3.293-11.042 1.297-.81 3.004-.697 5.901-.505 1.679.111 3.757.249 6.387.249 27.136 0 36.096-10.496 39.936-20.736M185.6 101.888c8.192 4.608 5.12 18.944-8.448 23.296-3.84 1.536-8.448 1.536-11.776 1.28-.659 0-1.31.008-1.942.015-3.052.035-5.658.065-6.506-.783-1.233-1.48-.566-4.622 1.087-12.403l.193-.909c1.607-7.889 2.297-11.276 4.354-12.73 1.547-1.094 3.867-1.094 7.934-1.094 7.68 0 11.008 1.024 15.104 3.328" clip-rule="evenodd"/></svg>
