<svg xmlns="http://www.w3.org/2000/svg" fill="none" viewBox="0 0 256 256"><path fill="#FC0423" d="M256 128a128 128 0 0 1-37.49 90.51 128.003 128.003 0 0 1-181.02 0A128.001 128.001 0 1 1 256 128"/><path fill="#fff" fill-rule="evenodd" d="M100.608 82.432c22.528 5.888 30.208 35.84 17.152 66.048-14.592 32.512-57.344 35.84-68.608 5.12-5.888-18.944 0-45.568 12.8-59.392 10.496-11.008 25.856-15.36 38.656-11.776m-35.072 52.224c1.792-21.504 8.448-34.304 19.712-36.864 3.328-1.024 8.704-1.024 11.264.768 5.888 2.56 8.448 7.68 8.448 18.944 0 24.832-9.472 41.984-24.064 41.984-11.008 0-16.128-8.448-15.36-24.832M185.6 83.2c16.128 2.304 28.16 20.48 21.248 37.632-3.84 10.24-12.8 20.736-39.936 20.736-7.168 0-10.24-1.024-12.288.256-2.048 1.536-2.304 5.376-4.096 15.872-2.816 16.64-3.328 16.64-9.216 16.384h-2.816c-6.144 0-9.728 0-8.704-5.888l13.824-79.104c.768-4.096 2.56-5.888 5.12-6.656 0 0 20.992-1.536 36.864.768m0 18.688c8.192 4.608 5.12 18.944-8.448 23.296-3.84 1.536-8.448 1.536-11.776 1.28.512 0-.512 0 0 0-3.84 0-7.424.256-8.448-.768-1.28-1.536-.512-4.864 1.28-13.312.256-1.792-.256 1.28 0 0 2.816-13.824 2.816-13.824 12.288-13.824 7.68 0 11.008 1.024 15.104 3.328" clip-rule="evenodd"/></svg>