<svg xmlns="http://www.w3.org/2000/svg" fill="none" viewBox="0 0 256 256"><path fill="#FFD15C" d="M128 256c70.692 0 128-57.308 128-128S198.692 0 128 0 0 57.308 0 128s57.308 128 128 128"/><path fill="#fff" d="M95.819 75.737c-5.457.786-2.414 5.448-2.414 5.448l-.157 1.31c7.817 13.463 20.723 27.607 33.891 37.037 9.706 6.915 16.945 17.13 20.46 28.76 3.463 11.473 2.833 23.365-1.678 32.585-5.456 11.106-15.792 17.549-29.012 18.178-13.169.628-28.803-4.558-46.482-15.402a8.6 8.6 0 0 1-.578 1.205c15.32 15.768 33.052 25.198 51.467 27.346 18.624 2.2 37.72-3.039 53.879-14.616-.42 0-.734-.105-.997-.262 54.352-44.843-34.625-127.823-78.38-121.59"/><path fill="#000" d="M236.996 136.034c-.052-.996-.105-2.2-.314-3.615-.682-5.5-2.886-13.935-9.286-22.893l-.945-1.257c-.052-.105-.157-.21-.21-.314-.262-.367-.577-.734-.839-1.101l-.052-.052c-.315-.367-.63-.786-.945-1.152-.052-.105-.157-.158-.21-.262-.262-.315-.577-.681-.839-.996l-.105-.104c-.315-.367-.629-.681-.944-1.048l-.21-.21c-.262-.314-.525-.576-.787-.838-.053-.052-.105-.105-.105-.157l-1.102-1.1a10 10 0 0 0-.787-.734l-.157-.157c-.315-.262-.577-.524-.892-.786l-.157-.157a9 9 0 0 1-.735-.628l-.157-.157c-.262-.263-.577-.472-.84-.681l-.157-.158c-.21-.21-.472-.366-.682-.576-.052-.052-.157-.105-.21-.157a7 7 0 0 0-.787-.576c-.052-.053-.105-.105-.157-.105l-.63-.472c-.052-.052-.157-.104-.21-.157a6 6 0 0 1-.734-.524c-.053-.052-.105-.104-.21-.104-.21-.105-.367-.262-.525-.367-.104-.052-.157-.105-.262-.157-.21-.105-.42-.262-.577-.367a1.1 1.1 0 0 1-.262-.157c-.158-.105-.263-.157-.42-.262l-.315-.157c-.105-.053-.262-.157-.367-.21-.157-.105-.315-.21-.525-.262-.105-.052-.157-.105-.262-.157s-.21-.105-.367-.157c-.053-.052-.105-.052-.158-.105-.209-.105-.472-.262-.682-.366h-.052c-1.417-2.515-2.99-5.03-4.669-7.544C183.589 55.935 162.132 42.052 137.632 42h-.105c-10.388 0-19.884 2.357-27.806 4.662-2.256.681-4.617 1.362-6.872 2.096-5.771 1.781-11.228 3.51-15.897 4.243-2.938.472-5.246 1.572-6.872 3.248-1.47 1.572-2.361 3.72-2.623 6.339-.525 5.081 1.311 11.944 5.298 19.802 8.027 15.926 23.399 33.475 39.138 44.738a40 40 0 0 1 5.089 4.296c-.315.052-.63.105-.997.157-12.329 1.781-18.782 14.982-21.353 22.159-.682 1.886 1.155 3.563 3.043 2.882 7.66-2.567 23.241-6.758 32.003-1.362.052 0 .157-.053.209-.053 1.574 7.858.84 15.611-2.151 21.636-3.934 7.91-11.436 12.573-21.142 13.044-11.437.576-25.497-4.296-41.813-14.459l-.262-.157a1.1 1.1 0 0 1-.42-.262c12.696-14.406 5.194-36.618 2.256-43.9-.367-.943-1.731-.943-2.256-.052-6.82 11.577-20.88 10.687-20.618 24.465v-.053c-10.702-8.696-18.677 2.881-32.002 1.153-1.05-.158-1.837.89-1.312 1.781 4.04 6.967 17.575 27.398 37.564 25.093l-.945.681 3.568 3.929c17.47 19.226 38.245 30.751 60.122 33.318 3.148.366 6.296.576 9.443.576 18.31 0 36.515-6.129 52.149-17.759 17.942-13.306 30.376-32.113 35.045-52.91a79.3 79.3 0 0 0 1.941-20.693c3.935-1.572 8.237.157 11.647 2.462.052 0 .052.052.105.052.157.105.262.21.419.262.053 0 .053.053.105.053.42.262.787.576 1.155.838.052.052.157.105.209.157.105.053.158.157.263.21s.157.157.262.209c.052.053.157.105.21.21.157.105.315.262.42.367.052.052.105.104.157.104.105.105.21.21.315.262l.157.157c.105.105.21.158.315.262.052.053.105.053.105.105l.367.367c.053.052.105.052.105.105.262.209.577.261.839.261.315.053.84-.419.787-1.047m-62.798 61.344c.263.158.577.21.997.262-16.159 11.63-35.255 16.816-53.879 14.616-18.467-2.148-36.147-11.577-51.467-27.346.21-.419.42-.785.578-1.205 17.68 10.844 33.313 16.031 46.482 15.402 13.22-.629 23.556-7.124 29.012-18.178 4.564-9.22 5.141-21.059 1.678-32.584-3.515-11.63-10.754-21.846-20.46-28.761-13.221-9.429-26.074-23.574-33.891-37.037l.157-1.31s-3.043-4.662 2.414-5.448c43.754-6.286 132.731 76.694 78.379 121.589"/><path fill="#fff" d="M141.356 72.699c-1.521-2.148-4.564-7.91 4.879-7.91 9.444 0 23.819 10.634 26.757 14.563-.892 2.41-6.978 2.933-10.021 2.724-3.043-.21-8.184-.734-12.171-2.724-3.935-1.886-7.922-4.506-9.444-6.654"/></svg>