<svg xmlns="http://www.w3.org/2000/svg" fill="none" viewBox="0 0 256 256"><path fill="#fff" d="M128 256c70.692 0 128-57.308 128-128S198.692 0 128 0 0 57.308 0 128s57.308 128 128 128"/><path fill="url(#paint0_linear_9442_696)" d="m128.001 138.241 73.216 35.84-73.216 37.376z"/><path fill="url(#paint1_linear_9442_696)" d="m171.009 116.736 30.208 57.344-73.216-35.84z"/><path fill="url(#paint2_linear_9442_696)" d="M127.999 138.241V34.305l-43.008 82.432z"/><path fill="url(#paint3_linear_9442_696)" d="M128.001 138.241V34.305l43.008 82.432z"/><path fill="url(#paint4_linear_9442_696)" d="m128.001 211.457-73.216-37.376 73.216-35.84z"/><path fill="url(#paint5_linear_9442_696)" d="m84.993 116.736 43.008 21.504-73.216 35.84z"/><defs><linearGradient id="paint0_linear_9442_696" x1="148.831" x2="162.853" y1="183.265" y2="215.075" gradientUnits="userSpaceOnUse"><stop stop-color="#57E"/><stop offset="1" stop-color="#84A6FF"/></linearGradient><linearGradient id="paint1_linear_9442_696" x1="159.666" x2="216.832" y1="154.971" y2="91.986" gradientUnits="userSpaceOnUse"><stop stop-color="#33B6FF"/><stop offset="1" stop-color="#6562FD"/></linearGradient><linearGradient id="paint2_linear_9442_696" x1="137.671" x2="99.938" y1="86.236" y2="86.236" gradientUnits="userSpaceOnUse"><stop stop-color="#695CFB"/><stop offset="1" stop-color="#479AFD"/></linearGradient><linearGradient id="paint3_linear_9442_696" x1="140.236" x2="167.149" y1="98.219" y2="123.483" gradientUnits="userSpaceOnUse"><stop stop-color="#57E"/><stop offset="1" stop-color="#84A6FF"/></linearGradient><linearGradient id="paint4_linear_9442_696" x1="70.638" x2="145.445" y1="149.51" y2="187.21" gradientUnits="userSpaceOnUse"><stop stop-color="#45C7FF"/><stop offset="1" stop-color="#0E2450"/></linearGradient><linearGradient id="paint5_linear_9442_696" x1="91.761" x2="99.809" y1="152.099" y2="127.915" gradientUnits="userSpaceOnUse"><stop stop-color="#4AB0EA"/><stop offset="1" stop-color="#6D7F9B"/></linearGradient></defs></svg>
