<svg xmlns="http://www.w3.org/2000/svg" fill="none" viewBox="0 0 512 512"><path fill="#fff" d="M256 512c141.385 0 256-114.615 256-256S397.385 0 256 0 0 114.615 0 256s114.615 256 256 256"/><path fill="url(#paint0_linear_9442_696)" d="m256 276.481 146.432 71.68L256 422.913z"/><path fill="url(#paint1_linear_9442_696)" d="m342.016 233.472 60.416 114.688L256 276.48z"/><path fill="url(#paint2_linear_9442_696)" d="M255.997 276.481V68.609l-86.016 164.864z"/><path fill="url(#paint3_linear_9442_696)" d="M256 276.481V68.609l86.016 164.864z"/><path fill="url(#paint4_linear_9442_696)" d="m256.001 422.913-146.432-74.752 146.432-71.68z"/><path fill="url(#paint5_linear_9442_696)" d="m169.985 233.472 86.016 43.008-146.432 71.68z"/><defs><linearGradient id="paint0_linear_9442_696" x1="297.66" x2="325.705" y1="366.529" y2="430.15" gradientUnits="userSpaceOnUse"><stop stop-color="#57E"/><stop offset="1" stop-color="#84A6FF"/></linearGradient><linearGradient id="paint1_linear_9442_696" x1="319.331" x2="433.663" y1="309.943" y2="183.973" gradientUnits="userSpaceOnUse"><stop stop-color="#33B6FF"/><stop offset="1" stop-color="#6562FD"/></linearGradient><linearGradient id="paint2_linear_9442_696" x1="275.341" x2="199.875" y1="172.471" y2="172.471" gradientUnits="userSpaceOnUse"><stop stop-color="#695CFB"/><stop offset="1" stop-color="#479AFD"/></linearGradient><linearGradient id="paint3_linear_9442_696" x1="280.471" x2="334.296" y1="196.439" y2="246.967" gradientUnits="userSpaceOnUse"><stop stop-color="#57E"/><stop offset="1" stop-color="#84A6FF"/></linearGradient><linearGradient id="paint4_linear_9442_696" x1="141.274" x2="290.889" y1="299.021" y2="374.419" gradientUnits="userSpaceOnUse"><stop stop-color="#45C7FF"/><stop offset="1" stop-color="#0E2450"/></linearGradient><linearGradient id="paint5_linear_9442_696" x1="183.521" x2="199.616" y1="304.198" y2="255.83" gradientUnits="userSpaceOnUse"><stop stop-color="#4AB0EA"/><stop offset="1" stop-color="#6D7F9B"/></linearGradient></defs></svg>