<svg xmlns="http://www.w3.org/2000/svg" fill="none" viewBox="0 0 512 512"><path fill="#030C17" d="M511.999 255.143c.474 141.383-113.757 256.382-255.142 256.855C115.474 512.473.475 398.242.001 256.859-.472 115.474 113.758.475 255.143.001c141.383-.473 256.382 113.757 256.856 255.142"/><path fill="#fff" d="M282.438 229.724c-2.901-.486-5.562-1.211-8.222-1.696-35.785-7.266-61.657-12.351-61.657-37.296 0-15.5 15.233-27.852 42.556-27.852 24.422 0 43.765 9.93 56.338 28.578l1.934.485 38.929-39.961-.242-1.452c-15.474-18.406-35.06-31.242-57.547-38.023-3.143-.969-6.045-1.695-9.188-2.422h-.243c-1.208-.242-2.175-.484-3.384-.726V74h-53.194v35.359c-1.694.242-3.386.726-5.078.968h-.243c-25.145 6.055-47.149 19.132-64.316 39.233C151.627 161.669 148 176.202 148 192.911c0 57.155 43.039 75.319 85.112 85.492 7.737 1.936 15.475 3.39 22.97 4.6 26.356 4.844 49.083 8.961 49.083 32.695 0 14.773-16.199 33.18-50.05 33.18-20.069 0-36.511-6.782-48.6-19.134-.726-.726-1.693-1.452-2.418-2.179l-45.942 31.968v1.695a131 131 0 0 0 21.52 20.344c2.66 1.938 5.319 3.633 7.98 5.327h.24c2.661 1.695 5.562 3.149 8.222 4.603 0 0 .243 0 .243.241a131 131 0 0 0 8.462 3.876c.241 0 .241 0 .484.242 2.901 1.211 5.802 2.179 8.703 3.148.243 0 .485-.001.485.242 1.45.484 2.659.727 4.11 1.211h.483c1.452.484 2.902.727 4.595 1.211.241 0 .484 0 .724.243 1.209.241 2.661.484 3.87.725V438h53.194v-35.359c.968-.241 1.934-.241 2.902-.484h.484a91 91 0 0 0 10.88-2.906c1.692-.484 3.627-1.211 5.319-1.695 19.586-7.265 36.754-19.374 50.778-35.843 5.319-6.297 9.912-12.835 14.022-20.101 2.178-7.751 3.144-16.468 3.144-25.671.242-61.515-46.183-78.226-86.561-86.217"/><path fill="url(#paint0_linear_9226_924)" d="M158.445 361c-2.671-3.145-5.098-6.29-7.283-9.676-.972-1.452-1.942-2.902-2.914-4.112-.242-.242-.485-.725-.727-.968-.729-1.209-1.701-2.66-2.428-4.112q-.365-.724-.729-1.452c-.728-1.209-1.457-2.66-2.186-3.869q-.363-.728-.727-1.452c-.728-1.21-1.457-2.662-1.942-4.112-.244-.483-.485-1.209-.729-1.693-.728-1.452-1.214-2.661-1.942-4.113a12 12 0 0 1-.729-1.693c-.485-1.451-1.214-2.903-1.699-4.355 0-.241-.243-.724-.243-.967-1.214-3.385-2.428-6.773-3.399-10.159 0-.242-.243-.485-.243-.968-.242-1.21-.727-2.419-.97-3.629l-.729-2.902c-.242-1.209-.485-2.176-.729-3.386-.242-.968-.485-2.178-.727-3.145-.243-1.209-.487-2.178-.728-3.387l-.729-3.629c-.243-.966-.243-2.176-.485-3.144-.244-1.21-.486-2.419-.486-3.87-.243-.968-.243-1.935-.486-3.145-.242-1.452-.242-2.661-.486-4.112 0-.968-.241-1.935-.241-2.902 0-1.694-.244-3.145-.244-4.838 0-.726 0-1.452-.243-2.419 0-2.42-.242-4.839-.242-7.258s0-4.595.242-7.014v-2.177c0-1.694.243-3.145.243-4.837 0-.726.244-1.695.244-2.419.241-1.452.241-3.145.485-4.597 0-.726.242-1.452.242-2.177.243-1.935.486-3.628.728-5.323 0-.483 0-.966.244-1.209.242-2.176.728-4.353 1.214-6.531.241-.726.241-1.45.485-1.935.243-1.451.728-2.903.97-4.353.244-.726.487-1.694.487-2.42.242-1.451.727-2.66.971-4.112.243-.726.485-1.693.728-2.419.485-1.451.971-2.903 1.214-4.355.242-.724.485-1.209.729-1.934l2.184-5.806c.243-.726.485-1.209.729-1.935.485-1.451.97-2.66 1.699-4.112.243-.726.728-1.452.97-2.419.487-1.21.972-2.176 1.701-3.386.485-.726.728-1.694 1.214-2.419.485-1.209 1.214-2.178 1.699-3.387.485-.726.728-1.451 1.214-2.177l2.913-5.08c-2.185 7.983-3.157 16.691-3.157 25.884 0 31.446 13.353 55.392 39.816 71.6 1.457 28.301 9.711 50.557 23.792 64.828z"/><path fill="url(#paint1_linear_9226_924)" d="M311 191.631c8.23 12.345 13.555 27.837 15.491 46.474a93 93 0 0 1 17.91 10.892c19.606 15.249 29.53 37.517 29.53 65.837 0 3.388-.243 6.778-.484 10.166v-.241c.967-2.179 1.935-4.6 2.661-7.02.243-.727.484-1.211.727-1.937.484-1.694 1.21-3.388 1.694-5.082.242-.726.484-1.696.726-2.42.243-.97.727-2.18.968-3.147.485-1.453.726-2.663 1.21-4.115.243-.969.485-2.179.726-3.147l.727-3.63c.242-.727.242-1.696.483-2.421.243-1.695.727-3.63.97-5.326 0-.725.241-1.451.241-2.178l.726-5.808c0-.486 0-.727.243-1.21.241-1.937.483-3.631.483-5.568 0-.484 0-.969.243-1.453.241-2.177.241-4.357.484-6.535v-1.452c0-2.178.241-4.599.241-6.778 0-2.42 0-4.841-.241-7.502 0-.727 0-1.453-.243-2.421 0-1.695-.241-3.389-.241-4.841 0-.969-.243-1.936-.243-2.906-.242-1.451-.242-2.904-.483-4.355 0-.969-.243-1.937-.484-3.147-.243-1.453-.243-2.663-.485-4.114-.241-.97-.241-2.18-.484-3.147-.243-1.211-.484-2.663-.727-3.874-.241-.967-.483-2.177-.726-3.147l-.725-3.63c-.242-.968-.485-2.178-.726-3.147-.243-1.21-.727-2.421-.969-3.631-.241-.967-.484-2.178-.968-3.145-.242-1.21-.726-2.179-.967-3.39-.243-.967-.727-2.177-.969-3.147-.484-1.21-.727-2.177-1.211-3.146-.483-.968-.726-2.178-1.21-3.146-.484-.969-.726-2.179-1.21-3.147-.484-.969-.967-2.179-1.21-3.147l-1.451-2.904c-.486-.969-.969-1.936-1.453-3.147l-1.453-2.904c-.484-.969-.968-1.937-1.694-2.904-.484-.969-.968-1.937-1.694-2.663-.484-.968-1.21-1.937-1.694-2.904-.484-.97-1.21-1.696-1.694-2.664-1.695-2.663-3.632-5.324-5.567-7.987-1.453-1.937-2.906-3.631-4.357-5.325z"/><defs><linearGradient id="paint0_linear_9226_924" x1="207.456" x2="93.837" y1="269.966" y2="185.068" gradientUnits="userSpaceOnUse"><stop offset=".001" stop-color="#fff"/><stop offset="1" stop-color="#1E313F"/></linearGradient><linearGradient id="paint1_linear_9226_924" x1="305.474" x2="410.358" y1="227.405" y2="309.172" gradientUnits="userSpaceOnUse"><stop offset=".001" stop-color="#fff"/><stop offset=".997" stop-color="#4E5A64"/></linearGradient></defs></svg>