<svg xmlns="http://www.w3.org/2000/svg" fill="none" viewBox="0 0 256 256"><path fill="#030C17" d="M255.999 127.571c.238 70.692-56.878 128.192-127.57 128.428C57.737 256.237.238 199.121.001 128.429S56.879.238 127.57.001s128.192 56.878 128.428 127.57"/><path fill="#fff" d="M141.219 114.862c-1.451-.243-2.781-.605-4.111-.848-17.893-3.633-30.828-6.175-30.828-18.648 0-7.75 7.616-13.926 21.278-13.926 12.21 0 21.882 4.965 28.168 14.289l.968.243 19.464-19.98-.121-.727c-7.737-9.203-17.53-15.621-28.773-19.011-1.572-.485-3.023-.848-4.595-1.211h-.121c-.604-.121-1.087-.243-1.692-.364V37h-26.597v17.68c-.847.12-1.693.363-2.539.484h-.121C99.026 58.19 88.024 64.73 79.44 74.78 75.813 80.835 74 88.1 74 96.456c0 28.577 21.52 37.659 42.556 42.745 3.868.968 7.738 1.695 11.485 2.301 13.178 2.422 24.542 4.48 24.542 16.347 0 7.387-8.1 16.59-25.025 16.59-10.035 0-18.256-3.391-24.301-9.567-.363-.363-.846-.726-1.209-1.089l-22.97 15.983v.848a65.5 65.5 0 0 0 10.76 10.172c1.33.969 2.66 1.816 3.99 2.664h.12c1.33.847 2.78 1.574 4.11 2.301 0 0 .122 0 .122.121 1.45.726 2.78 1.332 4.231 1.937.121 0 .121 0 .242.122 1.45.605 2.901 1.089 4.352 1.573.121 0 .242 0 .242.122.725.242 1.329.363 2.055.605h.242c.725.242 1.45.364 2.297.606.121 0 .242 0 .362.121.605.121 1.33.242 1.935.363V219h26.597v-17.679c.484-.121.967-.121 1.451-.242h.242a45 45 0 0 0 5.44-1.453c.846-.242 1.814-.606 2.66-.848 9.792-3.633 18.376-9.687 25.388-17.921a65 65 0 0 0 7.012-10.051c1.088-3.875 1.572-8.234 1.572-12.836.121-30.757-23.092-39.113-43.281-43.108"/><path fill="url(#paint0_linear_9226_924)" d="M79.223 180.5c-1.336-1.572-2.55-3.145-3.642-4.838-.486-.726-.971-1.451-1.457-2.056-.121-.121-.243-.363-.364-.484-.364-.605-.85-1.33-1.214-2.056l-.364-.726c-.364-.605-.728-1.33-1.093-1.935l-.363-.726a10.7 10.7 0 0 1-.972-2.055c-.121-.242-.242-.605-.364-.847-.364-.726-.607-1.331-.971-2.057a6 6 0 0 1-.364-.846c-.243-.725-.607-1.451-.85-2.177 0-.121-.122-.363-.122-.484-.607-1.693-1.213-3.386-1.699-5.079 0-.122-.121-.243-.121-.485-.121-.604-.364-1.209-.486-1.814l-.364-1.451c-.121-.605-.243-1.088-.364-1.693-.121-.484-.243-1.089-.364-1.572-.122-.605-.243-1.089-.364-1.694l-.364-1.814c-.122-.484-.122-1.088-.243-1.573-.122-.604-.243-1.209-.243-1.934-.121-.485-.121-.968-.243-1.573-.121-.726-.121-1.331-.243-2.056 0-.484-.12-.967-.12-1.451 0-.847-.122-1.572-.122-2.419 0-.363 0-.726-.122-1.209 0-1.211-.121-2.42-.121-3.629s0-2.298.12-3.508v-1.088c0-.847.123-1.572.123-2.419 0-.363.121-.847.121-1.209.121-.726.121-1.573.243-2.299 0-.363.12-.726.12-1.088.123-.968.244-1.814.365-2.661 0-.242 0-.484.122-.605.12-1.088.364-2.176.607-3.265.12-.363.12-.726.242-.968.122-.725.365-1.451.486-2.177.121-.362.243-.847.243-1.21.121-.725.364-1.33.485-2.056.122-.363.243-.846.365-1.209.242-.725.485-1.451.607-2.177.12-.362.242-.605.364-.967q.545-1.452 1.092-2.903c.122-.363.243-.605.364-.968.243-.725.486-1.33.85-2.056.122-.363.364-.726.485-1.21.243-.604.486-1.088.85-1.693.243-.362.365-.847.607-1.209.243-.605.607-1.089.85-1.694.243-.363.364-.725.607-1.088l1.456-2.54c-1.092 3.991-1.578 8.346-1.578 12.942 0 15.723 6.676 27.696 19.908 35.8.729 14.151 4.855 25.278 11.896 32.414z"/><path fill="url(#paint1_linear_9226_924)" d="M155.5 95.816c4.115 6.172 6.777 13.918 7.746 23.237a46.4 46.4 0 0 1 8.955 5.446c9.802 7.624 14.764 18.758 14.764 32.918 0 1.694-.121 3.389-.242 5.083v-.121c.484-1.089.968-2.299 1.331-3.51.122-.363.242-.605.363-.968.242-.847.606-1.694.847-2.541.122-.363.242-.848.364-1.21.121-.485.363-1.09.483-1.574.243-.726.364-1.331.605-2.057.122-.484.243-1.09.364-1.573l.363-1.816c.121-.363.121-.847.242-1.21.121-.848.363-1.815.484-2.663 0-.362.121-.726.121-1.089l.363-2.904c0-.243 0-.363.121-.605.121-.969.242-1.816.242-2.784 0-.242 0-.484.122-.726.12-1.089.12-2.179.241-3.268v-.726c0-1.089.121-2.299.121-3.389 0-1.21 0-2.42-.121-3.751 0-.363 0-.727-.121-1.21 0-.848-.12-1.695-.12-2.421 0-.484-.122-.968-.122-1.453-.121-.725-.121-1.452-.242-2.178 0-.484-.121-.968-.242-1.573-.121-.726-.121-1.332-.242-2.057-.121-.485-.121-1.09-.242-1.574-.121-.605-.242-1.331-.363-1.936-.121-.484-.242-1.089-.363-1.574l-.363-1.815c-.121-.484-.243-1.089-.363-1.574-.121-.605-.363-1.21-.485-1.815-.12-.484-.242-1.089-.483-1.573-.122-.605-.364-1.089-.484-1.694-.122-.484-.363-1.09-.485-1.574-.242-.605-.363-1.089-.605-1.573s-.363-1.09-.605-1.573c-.242-.484-.363-1.09-.605-1.573a8.4 8.4 0 0 1-.605-1.574l-.726-1.452a20 20 0 0 1-.726-1.573l-.727-1.452c-.241-.485-.483-.969-.846-1.453-.242-.484-.484-.968-.847-1.331-.242-.484-.606-.968-.847-1.452-.242-.485-.606-.848-.847-1.332-.848-1.331-1.816-2.662-2.784-3.994-.726-.968-1.453-1.815-2.178-2.662z"/><defs><linearGradient id="paint0_linear_9226_924" x1="103.728" x2="46.918" y1="134.983" y2="92.534" gradientUnits="userSpaceOnUse"><stop offset=".001" stop-color="#fff"/><stop offset="1" stop-color="#1E313F"/></linearGradient><linearGradient id="paint1_linear_9226_924" x1="152.737" x2="205.179" y1="113.703" y2="154.586" gradientUnits="userSpaceOnUse"><stop offset=".001" stop-color="#fff"/><stop offset=".997" stop-color="#4E5A64"/></linearGradient></defs></svg>
