<svg xmlns="http://www.w3.org/2000/svg" fill="none" viewBox="0 0 256 256"><path fill="#000" d="M128 256c70.692 0 128-57.308 128-128S198.692 0 128 0 0 57.308 0 128s57.308 128 128 128"/><path fill="#E81899" d="M163.619 59.413c-1.934-1.613-21.04-18.288-21.729-40.84 0 0 0-6.124-4.029-4.198-3.94 1.86-6.312 6.132-9.553 17.004s7.699 16.034 14.28 22.388c0 0-13.761-1.367-17.262-1.046-3.509.412-6.222 1.375-11.827 10.635 0 0-7.01 10.955-2.014 16.271.349.412.958.568 1.486.568a4.33 4.33 0 0 0 2.713-.97s22.436-18.931 46.27-16.108c18.748 18.848 7.798 35.441-6.044 43.581-3.402 1.992-6.58 3.786-9.204 6.042-6.84 5.876-10.86 12.724-12.445 15.63-3.67 6.436-4.906 9.424-11.298 9.58-6.402.165-8.416-7.325-9.294-9.58-.788-2.256-4.548-21.919-6.133-26.1-1.665-4.197-3.33-6.444-8.237-4.519-4.906 1.852-11.12 7.49-11.12 7.49-18.936-4.913-31.282-1.531-31.282-1.531l-1.173-2.271c-1.379-2.222-5.408-12.387-11.98-6.025-6.57 6.37-11.907 25.375-11.907 25.375-9.034 39.713 11.908 66.94 11.908 66.94 35.4 50.668 99.98 41.244 114.35 35.927 12.973-4.749 43.378-19.729 56.432-52.281 1.405-3.539 2.632-7.243 3.59-11.276.358-1.531.707-3.062.886-4.593 12.875-61.862-40.137-89.484-55.474-96.093z"/><path fill="#fff" d="m123.783 135.247-22.488 6.202a1.77 1.77 0 0 0-1.027.806 1.53 1.53 0 0 0-.128 1.236c.134.412.436.76.844.97s.888.265 1.34.155l22.487-6.202a1.77 1.77 0 0 0 1.028-.806c.215-.381.261-.825.127-1.236a1.68 1.68 0 0 0-.844-.97 1.94 1.94 0 0 0-1.339-.155m2.352 18.936-23.212-3.233a1.92 1.92 0 0 0-1.334.304c-.383.26-.639.649-.71 1.082s.048.875.331 1.227c.282.353.706.588 1.176.653l23.212 3.233c.471.065.951-.044 1.335-.304.383-.26.638-.649.709-1.082a1.55 1.55 0 0 0-.33-1.227 1.83 1.83 0 0 0-1.177-.653M85.49 127.769c-1.626.003-3.184.597-4.334 1.653s-1.798 2.488-1.803 3.982c0 3.06 2.8 5.635 6.137 5.635 1.619-.017 3.167-.616 4.312-1.669s1.796-2.477 1.815-3.966c-.019-1.489-.67-2.912-1.815-3.965s-2.693-1.653-4.312-1.67m-25.135 5.627c-.008-1.492-.656-2.92-1.803-3.974-1.148-1.054-2.703-1.648-4.325-1.653-1.619.017-3.167.617-4.312 1.67s-1.796 2.476-1.815 3.965c0 3.06 2.8 5.635 6.127 5.635 1.621-.015 3.171-.613 4.318-1.666 1.147-1.054 1.8-2.478 1.818-3.969zm28.543 11.278c-1.047-.56-2.362-.165-2.98.806-2.271 3.702-4.641 5.396-7.262 4.755-3.498-.724-6.476-4.994-6.476-6.203v-.131c0-.535-.231-1.048-.642-1.425a2.3 2.3 0 0 0-1.55-.591c-.581 0-1.138.213-1.55.591-.41.377-.641.89-.641 1.425v.131c-.09 1.127-2.97 5.47-6.476 6.194-2.532.65-4.983-1.044-7.264-4.746a2 2 0 0 0-.535-.621 2.2 2.2 0 0 0-.76-.375 2.3 2.3 0 0 0-.858-.065 2.2 2.2 0 0 0-.816.255c-1.056.559-1.494 1.768-.877 2.731 3.408 5.643 7.263 7.008 10.152 7.008.877 0 1.664-.164 2.362-.32 2.979-.724 5.519-2.896 7.272-5.232 1.744 2.254 4.294 4.425 7.263 5.232.609.164 1.485.32 2.362.32 2.8 0 6.655-1.365 10.072-7.008h.09a1.93 1.93 0 0 0 .144-1.527 2.12 2.12 0 0 0-1.03-1.204"/><path fill="#E81899" d="m37.109 152.516-23.532 3.381c-.24.03-.472.104-.68.216a1.8 1.8 0 0 0-.537.441 1.6 1.6 0 0 0-.307.595 1.5 1.5 0 0 0-.03.658c.037.219.122.429.25.617.127.189.294.352.492.481.197.128.421.22.658.268.236.049.481.054.72.016l23.54-3.382c.25-.021.49-.088.71-.198.219-.109.411-.259.564-.439a1.6 1.6 0 0 0 .327-.609 1.5 1.5 0 0 0 .034-.676 1.6 1.6 0 0 0-.264-.634 1.8 1.8 0 0 0-.518-.485 1.9 1.9 0 0 0-.686-.256 2 2 0 0 0-.742.006m1.365-9.595-22.848-6.132a1.98 1.98 0 0 0-1.39.138 1.7 1.7 0 0 0-.875.995 1.54 1.54 0 0 0 .151 1.269c.233.388.625.675 1.09.799l22.848 6.132c.465.124.964.074 1.389-.138s.74-.57.875-.995a1.54 1.54 0 0 0-.15-1.269 1.8 1.8 0 0 0-1.09-.799"/></svg>
