<svg xmlns="http://www.w3.org/2000/svg" fill="none" viewBox="0 0 512 512"><path fill="#000" d="M256 512c141.868 0 256-114.132 256-256S397.868 0 256 0 0 114.132 0 256s114.132 256 256 256Z"/><path fill="#EFE812" d="M174.117 122.558c7.422-8.448 14.248-15.596 20.749-21.661-109.758-3.52-77.795 75.814-113.767 156.341-41.172 92.818 4.876 128.181 73.461 139.228a149.26 149.26 0 0 1-23.187-37.907c-44.26-55.941-26.328-157.912 42.744-236.001Z"/><path fill="#EDE70A" d="M438.218 221.442a313.373 313.373 0 0 1-55.421 92.765 265.898 265.898 0 0 1-67.339 58.323 181.853 181.853 0 0 1-99.356 28.214 391.23 391.23 0 0 1-61.325-4.278 125.346 125.346 0 0 0 41.01 32.113c99.247 47.98 105.477-41.102 210.468-86.321 58.941-25.397 59.158-75.002 31.908-120.816M315.458 128.84a130.446 130.446 0 0 1 40.956 14.513 228.431 228.431 0 0 1 81.804 78.089c17.877-50.362 9.534-89.894-29.525-97.043-43.015-7.852-76.603-10.397-108.891-32.925-39.764-27.618-74.653-18.629-104.882 9.477l6.555.271c41.931 2.491 82.02 10.83 113.767 27.51"/><path fill="#DEC21C" d="M174.117 122.558c-69.072 78.089-87.004 180.06-42.527 236a169.768 169.768 0 0 1 9.589-151.629c37.434-62.385 112.575-89.461 174.279-78.089-31.963-16.896-72.052-25.019-113.766-27.51l-6.555-.325c-6.718 6.174-13.544 13.105-21.02 21.553Z"/><path fill="#E5CB22" d="M356.414 143.245a130.421 130.421 0 0 0-40.956-14.405c42.04 22.095 69.939 59.569 69.939 118.812a149.035 149.035 0 0 1-18.999 71.377 149.097 149.097 0 0 1-50.94 53.501 264.807 264.807 0 0 0 67.339-58.323 313.373 313.373 0 0 0 55.421-92.765 228.426 228.426 0 0 0-81.804-78.197Z"/><path fill="#CCA727" d="M315.458 128.84c-61.704-11.372-136.845 15.704-174.279 77.818a169.609 169.609 0 0 0-9.589 151.9 147.712 147.712 0 0 0 23.187 37.908 391.23 391.23 0 0 0 61.325 4.278 181.853 181.853 0 0 0 99.356-28.214 149.048 149.048 0 0 0 50.947-53.497 148.987 148.987 0 0 0 18.992-71.381c0-59.243-27.899-96.717-69.939-118.812Zm-6.934 215.53a102.639 102.639 0 0 1-77.035 13.974 102.604 102.604 0 0 1-64.469-44.408c-30.663-47.276-15.494-108.307 30.5-140.799 51.466-36.553 117.451-22.148 141.504 30.435 23.458 51.229 17.011 110.418-30.5 140.798Z"/></svg>