<svg xmlns="http://www.w3.org/2000/svg" fill="none" viewBox="0 0 256 256"><path fill="#000" d="M128 256c70.934 0 128-57.066 128-128S198.934 0 128 0 0 57.066 0 128s57.066 128 128 128"/><path fill="#EFE812" d="M87.059 61.28c3.71-4.225 7.124-7.799 10.374-10.832-54.879-1.76-38.897 37.908-56.883 78.171-20.586 46.409 2.438 64.09 36.73 69.614a74.6 74.6 0 0 1-11.593-18.954c-22.13-27.97-13.165-78.955 21.372-118"/><path fill="#EDE70A" d="M219.109 110.721a156.7 156.7 0 0 1-27.71 46.383 133 133 0 0 1-33.67 29.161 90.94 90.94 0 0 1-49.678 14.107 196 196 0 0 1-30.663-2.139 62.7 62.7 0 0 0 20.505 16.056c49.624 23.99 52.739-20.551 105.234-43.16 29.471-12.699 29.58-37.501 15.955-60.408M157.729 64.42a65.2 65.2 0 0 1 20.478 7.257 114.2 114.2 0 0 1 40.902 39.044c8.939-25.181 4.767-44.947-14.763-48.521-21.507-3.926-38.301-5.199-54.445-16.463-19.882-13.809-37.326-9.314-52.441 4.738l3.278.136c20.965 1.245 41.01 5.415 56.883 13.755"/><path fill="#DEC21C" d="M87.059 61.28c-34.537 39.044-43.503 90.029-21.264 117.999a84.88 84.88 0 0 1 4.794-75.814c18.718-31.193 56.288-44.731 87.14-39.045-15.981-8.448-36.026-12.51-56.883-13.755l-3.278-.162c-3.358 3.086-6.771 6.552-10.51 10.776"/><path fill="#E5CB22" d="M178.207 71.622a65.2 65.2 0 0 0-20.478-7.202c21.02 11.047 34.97 29.784 34.97 59.406a74.5 74.5 0 0 1-9.5 35.688 74.55 74.55 0 0 1-25.47 26.751 132.4 132.4 0 0 0 33.67-29.161 156.7 156.7 0 0 0 27.71-46.383 114.2 114.2 0 0 0-40.902-39.099"/><path fill="#CCA727" d="M157.729 64.42c-30.852-5.686-68.422 7.852-87.14 38.909a84.81 84.81 0 0 0-4.794 75.95 73.9 73.9 0 0 0 11.593 18.954 196 196 0 0 0 30.663 2.139 90.94 90.94 0 0 0 49.678-14.107 74.5 74.5 0 0 0 34.97-62.439c0-29.622-13.95-48.359-34.97-59.406m-3.467 107.765a51.316 51.316 0 0 1-70.752-15.217c-15.331-23.638-7.747-54.153 15.25-70.4 25.733-18.276 58.725-11.074 70.752 15.218 11.729 25.614 8.505 55.209-15.25 70.399"/></svg>