<svg xmlns="http://www.w3.org/2000/svg" fill="none" viewBox="0 0 256 256"><rect width="256" height="256" fill="#E6E6E6" rx="128"/><path fill="url(#paint0_radial_4193_3455)" d="M128.256 255.488c45.385 0 82.176-36.677 82.176-81.92s-36.791-81.92-82.176-81.92c-45.384 0-82.176 36.677-82.176 81.92s36.792 81.92 82.176 81.92"/><path fill="url(#paint1_linear_4193_3455)" fill-rule="evenodd" d="M128.25 256c-44.71 0-84.99-18.958-113.252-49.363-9.014-9.658-.255-23.097 10.846-25.345 47.817-9.76 110.299 50.793 171.254 43.997 11.305-1.278 22.508-4.906 34.475-12.06 2.953-1.737 6.314-3.628 8.555-5.11C211.916 237.655 172.247 256 128.25 256" clip-rule="evenodd" opacity=".48"/><path fill="url(#paint2_linear_4193_3455)" fill-rule="evenodd" d="M128.24 256c44.722 0 85.012-18.958 113.282-49.363 9.016-9.658.204-23.098-10.85-25.346-37.336-7.614-83.637 27.594-131.16 40.216-27.251 7.205-60.716 5.621-83.128-13.388C44.654 237.604 84.23 256 128.24 256" clip-rule="evenodd" opacity=".48"/><defs><radialGradient id="paint0_radial_4193_3455" cx="0" cy="0" r="1" gradientTransform="matrix(82.2008 0 0 81.9447 128.263 173.593)" gradientUnits="userSpaceOnUse"><stop stop-color="#587DFF"/><stop offset="1" stop-color="#00326F"/></radialGradient><linearGradient id="paint1_linear_4193_3455" x1="11.273" x2="240.159" y1="218.11" y2="218.11" gradientUnits="userSpaceOnUse"><stop stop-color="#03B0DC"/><stop offset=".116" stop-color="#0BA5DE"/><stop offset=".317" stop-color="#2289E4"/><stop offset=".579" stop-color="#475BED"/><stop offset=".89" stop-color="#791BFA"/><stop offset="1" stop-color="#8C03FF"/></linearGradient><linearGradient id="paint2_linear_4193_3455" x1="16.414" x2="245.26" y1="218.11" y2="218.11" gradientUnits="userSpaceOnUse"><stop stop-color="#03B0DC"/><stop offset=".116" stop-color="#0BA5DE"/><stop offset=".317" stop-color="#2289E4"/><stop offset=".579" stop-color="#475BED"/><stop offset=".89" stop-color="#791BFA"/><stop offset="1" stop-color="#8C03FF"/></linearGradient></defs></svg>