<svg xmlns="http://www.w3.org/2000/svg" fill="none" viewBox="0 0 256 256"><path fill="#000" d="M128 256c70.692 0 128-57.308 128-128S198.692 0 128 0 0 57.308 0 128s57.308 128 128 128"/><path fill="#DEDEDE" d="M203.264 126.305c0 18.582-6.949 36.621-19.435 50.422a75 75 0 0 1-48.209 24.341c.868-10.649-2.389-21.299-9.229-29.557a41.8 41.8 0 0 0-27.145-14.888V57.084c11.401-4.781 23.779-6.737 36.157-5.542a75.4 75.4 0 0 1 34.419 12.171 75.24 75.24 0 0 1 24.558 27.102 75.3 75.3 0 0 1 8.884 35.49"/><path fill="#1E4480" d="M53.535 202.372c-.76-6.303 0-12.605 2.171-18.582 2.172-5.977 5.538-11.301 10.098-15.757a74.7 74.7 0 0 0 27.016 24.555 74.6 74.6 0 0 0 35.416 8.806c2.498 0 4.887-.109 7.384-.326-.869 10.215-5.429 19.778-12.921 26.841a41.27 41.27 0 0 1-27.579 11.193c-10.206.108-20.195-3.478-27.904-10.324-7.6-6.846-12.487-16.191-13.681-26.406"/><path fill="#152E51" d="M99.246 57.193v99.43c10.641 1.196 20.413 6.52 27.145 14.888 6.84 8.258 10.097 18.908 9.229 29.557a82 82 0 0 1-7.384.326 75.6 75.6 0 0 1-35.396-8.802c-10.858-5.868-20.196-14.235-27.036-24.559 6.515-6.302 14.984-10.323 23.996-11.301V61.866c2.932-1.739 6.08-3.369 9.446-4.673"/><path fill="#DEDEDE" d="M53.318 126.305a75 75 0 0 1 9.779-37.063 74.9 74.9 0 0 1 26.811-27.376v94.757c-9.012.978-17.48 4.999-24.104 11.41a74.1 74.1 0 0 1-12.486-41.728"/></svg>
