<svg xmlns="http://www.w3.org/2000/svg" fill="none" viewBox="0 0 256 256"><path fill="#3CEAAA" d="M128 256c70.692 0 128-57.308 128-128S198.692 0 128 0 0 57.308 0 128s57.308 128 128 128"/><path fill="#404040" fill-rule="evenodd" d="M89.448 59.226c9.518-9.336 24.744-9.336 34.262 0l25.71 25.22 4.29-4.209c9.519-9.336 24.745-9.336 34.263 0l25.349 24.866c9.8 9.612 9.8 25.41 0 35.023l-68.191 66.888c-9.518 9.336-24.744 9.336-34.262 0l-68.191-66.888c-9.8-9.613-9.8-25.411 0-35.023zm42.481 42.377-25.35-24.866-46.77 45.877 25.35 24.866zm-29.279 63.035L128 189.503l25.349-24.865L128 139.772zm42.841-42.024 25.351 24.866 25.349-24.866-25.349-24.865z" clip-rule="evenodd"/></svg>