<svg xmlns="http://www.w3.org/2000/svg" fill="none" viewBox="0 0 256 256"><path fill="#000" fill-rule="evenodd" d="M128 256c70.934 0 128-57.066 128-128S198.934 0 128 0 0 57.066 0 128s57.066 128 128 128" clip-rule="evenodd"/><path fill="#fff" fill-rule="evenodd" d="M244 128c0 64.065-51.935 116-116 116S12 192.065 12 128 63.935 12 128 12s116 51.935 116 116M128 233.209c58.105 0 105.209-47.104 105.209-105.209S186.105 22.79 128 22.79 22.79 69.895 22.79 128 69.895 233.209 128 233.209" clip-rule="evenodd"/><path fill="#D54B4B" fill-rule="evenodd" d="M244 128c0 64.065-51.935 116-116 116S12 192.065 12 128 63.935 12 128 12s116 51.935 116 116M128 233.209c58.105 0 105.209-47.104 105.209-105.209S186.105 22.79 128 22.79 22.79 69.895 22.79 128 69.895 233.209 128 233.209" clip-rule="evenodd"/><path fill="#D54B4B" fill-rule="evenodd" d="m86.1 96.444 10.69 47.117c.005.016 0 .033-.006.049L84.009 158.9l-.006.049 5.082 37.01h17.134L98.538 75.23l-.013-.036-.026-.027-.035-.014-.038.003a.1.1 0 0 0-.043.037l-12.27 21.19c-.012.024-.012.043-.012.061m-8.855 99.515-11.993-62.715c-.006-.017-.017-.026-.031-.037a.1.1 0 0 0-.077-.028.1.1 0 0 0-.04.013l-.016.011-.015.016-8.209 14.023-.01.023-.005.016a.1.1 0 0 0 .003.042l8.616 29.838a.1.1 0 0 1 0 .055L56 191.888v.062l1.124 4.009zm92.382-99.515-10.696 47.116h.012l-.003.026.003.024 12.77 15.289.007.012.004.015.001.012.001.011-5.083 37.01h-17.135l7.676-120.73.012-.037.028-.029.038-.013.04.006q.028.011.043.037l12.264 21.189c.018.025.018.043.018.062m8.85 99.515 11.993-62.715a.1.1 0 0 1 .029-.045.1.1 0 0 1 .048-.023.1.1 0 0 1 .053.005l.026.014.017.018 8.208 14.023a.1.1 0 0 1 .019.037v.043l-8.616 29.838-.004.026.001.014.003.016 9.468 14.672v.061l-1.126 4.016z" clip-rule="evenodd"/><path fill="#D54B4B" d="m134.162 195.959 4.734-139.255-2.743-5.292L134.852 49q-3.503.13-7.008.116-3.49.013-6.976-.116l-1.353 2.509-2.697 5.194 4.734 139.256zm8.084-59.277-5.674-8.25-2.301 67.527h3.84zm-23.098-8.252-5.68 8.255 4.138 59.274h3.843z"/></svg>