<svg xmlns="http://www.w3.org/2000/svg" fill="none" viewBox="0 0 512 512"><path fill="#000" d="M256 512c141.385 0 256-114.615 256-256S397.385 0 256 0 0 114.615 0 256s114.615 256 256 256"/><path fill="url(#paint0_linear_9439_801)" d="M256 512c141.385 0 256-114.615 256-256S397.385 0 256 0 0 114.615 0 256s114.615 256 256 256"/><path fill="#fff" d="M254.899 49 114 275.041 254.899 475l143.416-199.959z"/><path fill="#7C69F2" d="M255.683 71.67h.002l-.002 263.568 117.126-69.03z"/><path fill="#7EBFEE" d="M255.685 71.67 138.559 266.208l117.126 69.03z"/><path fill="#7966ED" d="M255.685 357.649v95.626l117.126-164.954z"/><path fill="#424BA3" d="M255.685 453.275v-95.626l-117.126-69.328z"/><path fill="#6B58DE" d="m255.685 335.238 117.126-69.03-117.126-53.491z"/><path fill="#5745CB" d="m138.559 266.208 117.126 69.03V212.717z"/><defs><linearGradient id="paint0_linear_9439_801" x1="92" x2="420.5" y1="74" y2="414.5" gradientUnits="userSpaceOnUse"><stop stop-color="#696FF5"/><stop offset=".444" stop-color="#46ABD7"/><stop offset="1" stop-color="#1CFF4E"/></linearGradient></defs></svg>