<svg xmlns="http://www.w3.org/2000/svg" fill="none" viewBox="0 0 256 256"><path fill="#000" d="M128 256c70.692 0 128-57.308 128-128S198.692 0 128 0 0 57.308 0 128s57.308 128 128 128"/><path fill="url(#paint0_linear_9439_801)" d="M128 256c70.692 0 128-57.308 128-128S198.692 0 128 0 0 57.308 0 128s57.308 128 128 128"/><path fill="#fff" d="M127.45 24.5 57 137.52l70.45 99.98 71.707-99.98z"/><path fill="#7C69F2" d="M127.842 35.835v131.784l58.563-34.515z"/><path fill="#7EBFEE" d="m127.842 35.835-58.563 97.269 58.563 34.515z"/><path fill="#7966ED" d="M127.843 178.825v47.813l58.563-82.477z"/><path fill="#424BA3" d="M127.843 226.638v-47.813l-58.564-34.664z"/><path fill="#6B58DE" d="m127.842 167.619 58.564-34.515-58.564-26.745z"/><path fill="#5745CB" d="m69.28 133.104 58.562 34.515v-61.26z"/><defs><linearGradient id="paint0_linear_9439_801" x1="46" x2="210.25" y1="37" y2="207.25" gradientUnits="userSpaceOnUse"><stop stop-color="#696FF5"/><stop offset=".444" stop-color="#46ABD7"/><stop offset="1" stop-color="#1CFF4E"/></linearGradient></defs></svg>
