<svg width="256" height="256" viewBox="0 0 256 256" fill="none" xmlns="http://www.w3.org/2000/svg">
<path d="M128 256C198.692 256 256 198.692 256 128C256 57.3075 198.692 0 128 0C57.3075 0 0 57.3075 0 128C0 198.692 57.3075 256 128 256Z" fill="black"/>
<path d="M128 256C198.692 256 256 198.692 256 128C256 57.3075 198.692 0 128 0C57.3075 0 0 57.3075 0 128C0 198.692 57.3075 256 128 256Z" fill="url(#paint0_linear_9439_801)"/>
<path d="M127.45 24.5L57 137.52L127.45 237.5L199.157 137.52L127.45 24.5Z" fill="white"/>
<path d="M127.842 35.835H127.842L127.842 167.619L186.405 133.104L127.842 35.835Z" fill="#7C69F2"/>
<path d="M127.842 35.835L69.2793 133.104L127.842 167.619V106.359L127.842 35.835Z" fill="#7EBFEE"/>
<path d="M127.843 178.825L127.843 226.638L186.406 144.161L127.843 178.825Z" fill="#7966ED"/>
<path d="M127.843 226.638L127.843 178.825L69.2793 144.161L127.843 226.638Z" fill="#424BA3"/>
<path d="M127.842 167.619L186.406 133.104L127.842 106.359V167.619Z" fill="#6B58DE"/>
<path d="M69.2793 133.104L127.842 167.619V106.359L69.2793 133.104Z" fill="#5745CB"/>
<defs>
<linearGradient id="paint0_linear_9439_801" x1="46" y1="37" x2="210.25" y2="207.25" gradientUnits="userSpaceOnUse">
<stop stop-color="#696FF5"/>
<stop offset="0.443907" stop-color="#46ABD7"/>
<stop offset="1" stop-color="#1CFF4E"/>
</linearGradient>
</defs>
</svg>
