<svg xmlns="http://www.w3.org/2000/svg" fill="none" viewBox="0 0 256 256"><path fill="#0071F3" d="M128 256a128 128 0 0 0 90.51-37.49 128.003 128.003 0 0 0 0-181.02A128.001 128.001 0 1 0 128 256"/><path fill="#fff" d="M152.587 47.002h-48.346c-2.693-.054-5.32.84-7.422 2.528a11.55 11.55 0 0 0-4.088 6.707L90.428 78.17H73.162a8.05 8.05 0 0 0-5.33 2.562 8.1 8.1 0 0 0-2.152 5.519c0 4.617 3.453 8.08 7.482 8.08h13.813l-2.302 15.584v1.155H68.558a8.04 8.04 0 0 0-5.504 2.159 8.1 8.1 0 0 0-2.554 5.344c0 4.617 3.453 8.08 8.058 8.08H82.37l-7.482 47.329-2.878 16.162-1.151 8.08a11.58 11.58 0 0 0 2.694 9.307 11.5 11.5 0 0 0 8.817 3.968h36.259a11.5 11.5 0 0 0 7.229-2.932 11.55 11.55 0 0 0 3.706-6.88l6.907-42.711h17.266c30.504 0 55.828-25.396 55.252-56.564-.575-30.59-25.899-54.832-56.403-54.832zm-49.497 47.33h49.497a8.04 8.04 0 0 1 5.911 2.566 8.1 8.1 0 0 1 2.147 6.091 8.1 8.1 0 0 1-2.36 5.714 8.05 8.05 0 0 1-5.698 2.367h-51.799zm29.353 47.905a11.5 11.5 0 0 0-7.423 2.528 11.55 11.55 0 0 0-4.088 6.707l-6.331 43.866h-27.05l10.36-68.685h54.676c3.099 0 6.167-.612 9.03-1.801a23.6 23.6 0 0 0 7.656-5.13 23.7 23.7 0 0 0 5.115-7.677 23.7 23.7 0 0 0 1.796-9.056c0-13.275-10.359-24.242-23.597-24.242h-46.619l2.302-15.584h45.468c21.871 0 40.288 18.47 39.713 40.403a40.45 40.45 0 0 1-12.394 27.456 40.22 40.22 0 0 1-27.894 11.215z"/></svg>