<svg xmlns="http://www.w3.org/2000/svg" fill="none" viewBox="0 0 512 512"><path fill="#0071F3" d="M256 512a256 256 0 0 0 181.019-74.981 255.997 255.997 0 0 0 0-362.038A256 256 0 1 0 256 512"/><path fill="#fff" d="M305.174 94.005h-96.691a22.98 22.98 0 0 0-14.846 5.054 23.1 23.1 0 0 0-8.176 13.416l-4.604 43.865h-34.533a16.1 16.1 0 0 0-10.658 5.123 16.18 16.18 0 0 0-4.306 11.038c0 9.235 6.906 16.162 14.964 16.162h27.626l-4.604 31.167v2.309h-32.231a16.1 16.1 0 0 0-11.007 4.318A16.18 16.18 0 0 0 121 237.146c0 9.235 6.907 16.161 16.115 16.161h27.626l-14.964 94.658-5.755 32.322-2.302 16.161a23.14 23.14 0 0 0 5.388 18.614 22.99 22.99 0 0 0 17.633 7.937h72.519a23 23 0 0 0 14.457-5.865 23.1 23.1 0 0 0 7.414-13.76l13.813-85.423h34.532c61.008 0 111.656-50.792 110.505-113.127-1.151-61.182-51.799-109.665-112.807-109.665zm-98.993 94.658h98.993a16.08 16.08 0 0 1 11.822 5.134 16.17 16.17 0 0 1 4.293 12.181c0 4.286-1.698 8.397-4.72 11.428a16.1 16.1 0 0 1-11.395 4.733H201.576zm58.705 95.812a22.98 22.98 0 0 0-14.846 5.054 23.1 23.1 0 0 0-8.176 13.416l-12.662 87.731h-54.101l20.72-137.369h109.353a47.1 47.1 0 0 0 18.061-3.603 47.2 47.2 0 0 0 15.311-10.259 47.3 47.3 0 0 0 10.23-15.355 47.4 47.4 0 0 0 3.593-18.112c0-26.55-20.72-48.483-47.195-48.483h-93.238l4.604-31.168h90.936c43.742 0 80.577 36.94 79.425 80.805a80.9 80.9 0 0 1-24.787 54.913 80.45 80.45 0 0 1-55.789 22.43z"/></svg>