<svg xmlns="http://www.w3.org/2000/svg" fill="none" viewBox="0 0 512 512"><path fill="#000" d="M256 512c141.385 0 256-114.615 256-256S397.385 0 256 0 0 114.615 0 256s114.615 256 256 256"/><path fill="#fff" d="M256 512c141.385 0 256-114.615 256-256S397.385 0 256 0 0 114.615 0 256s114.615 256 256 256"/><path fill="#90C228" fill-rule="evenodd" d="m257.478 67 95.137 144.153-95.137 53.634-95.135-53.634zm-66.034 137.304 66.034-100.007 66.034 100.007-66.034 37.215z" clip-rule="evenodd"/><path fill="url(#paint0_linear_9442_681)" fill-rule="evenodd" d="m144.473 231.956 111.995 62.589 111.995-62.589 3.023 4.566c26.626 39.929 28.16 89.38 6.697 129.87-21.704 15.922-55.836 19.171-116.676-22.99-58.741-40.707-104.707-40.71-141.12-26.551-2.159-27.509 4.699-55.726 21.064-80.329z" clip-rule="evenodd"/><path fill="url(#paint1_radial_9442_681)" fill-rule="evenodd" d="M376.685 382.509c-21.628 16.843-53.303 25.103-115.505-18.003-58.804-40.751-103.503-44.607-139.935-30.403 2.021 30.991 15.475 57.295 39.662 80.547 53.279 51.133 139.714 51.133 193.077 0 11.188-10.734 16.169-19.05 22.701-32.141" clip-rule="evenodd"/><defs><linearGradient id="paint0_linear_9442_681" x1="211.123" x2="213.163" y1="348.304" y2="213.423" gradientUnits="userSpaceOnUse"><stop stop-color="#90C228"/><stop offset="1" stop-color="#90C228" stop-opacity=".4"/></linearGradient><radialGradient id="paint1_radial_9442_681" cx="0" cy="0" r="1" gradientTransform="matrix(26.51785 -112.49582 295.68416 69.69955 176.446 475.944)" gradientUnits="userSpaceOnUse"><stop stop-color="#90C228"/><stop offset="1" stop-color="#90C228" stop-opacity=".4"/></radialGradient></defs></svg>