<svg xmlns="http://www.w3.org/2000/svg" fill="none" viewBox="0 0 256 256"><path fill="#000" d="M128 256c70.692 0 128-57.308 128-128S198.692 0 128 0 0 57.308 0 128s57.308 128 128 128"/><path fill="#fff" d="M128 256c70.692 0 128-57.308 128-128S198.692 0 128 0 0 57.308 0 128s57.308 128 128 128"/><path fill="#90C228" fill-rule="evenodd" d="m128.739 33.5 47.568 72.077-47.568 26.817-47.568-26.817zm-33.017 68.652 33.017-50.004 33.017 50.004-33.017 18.608z" clip-rule="evenodd"/><path fill="url(#paint0_linear_9442_681)" fill-rule="evenodd" d="m72.237 115.978 55.997 31.294 55.998-31.294 1.511 2.283c13.313 19.964 14.08 44.69 3.349 64.935-10.853 7.961-27.919 9.586-58.339-11.495-29.37-20.354-52.353-20.355-70.56-13.276-1.079-13.754 2.35-27.863 10.532-40.164z" clip-rule="evenodd"/><path fill="url(#paint1_radial_9442_681)" fill-rule="evenodd" d="M188.343 191.255c-10.815 8.421-26.652 12.551-57.753-9.002-29.402-20.376-51.751-22.304-69.967-15.202 1.01 15.496 7.737 28.648 19.83 40.274 26.64 25.567 69.858 25.567 96.539 0 5.594-5.367 8.084-9.525 11.351-16.07" clip-rule="evenodd"/><defs><linearGradient id="paint0_linear_9442_681" x1="105.562" x2="106.582" y1="174.152" y2="106.711" gradientUnits="userSpaceOnUse"><stop stop-color="#90C228"/><stop offset="1" stop-color="#90C228" stop-opacity=".4"/></linearGradient><radialGradient id="paint1_radial_9442_681" cx="0" cy="0" r="1" gradientTransform="matrix(13.25892 -56.2479 147.84208 34.84977 88.223 237.972)" gradientUnits="userSpaceOnUse"><stop stop-color="#90C228"/><stop offset="1" stop-color="#90C228" stop-opacity=".4"/></radialGradient></defs></svg>