<svg xmlns="http://www.w3.org/2000/svg" fill="none" viewBox="0 0 256 256"><path fill="#EE8E8D" d="M128 256c70.692 0 128-57.308 128-128S198.692 0 128 0 0 57.308 0 128s57.308 128 128 128"/><path fill="#000" d="M195.949 180.442a.93.93 0 0 0-.928-.43.93.93 0 0 0-.76.684c-4.644 14.019-8.444 10.557-10.133 7.601a13 13 0 0 1-1.435-3.379c-4.391-17.988-.338-34.457-.338-34.457 2.364 7.601 8.697 9.881 11.906 10.473a.94.94 0 0 0 .56-.009.94.94 0 0 0 .453-.329 1.02 1.02 0 0 0 .084-1.098c-12.412-24.745-5.066-35.217-5.066-35.217 2.111 2.449 5.657 2.618 7.853 2.533a1.01 1.01 0 0 0 .844-.591 1.01 1.01 0 0 0-.169-1.098c-8.95-10.134-9.626-13.513-9.963-30.572-.254-9.543-3.462-14.526-6.502-17.06-3.546-3.04-6.248-6.756-7.768-11.148-12.158-34.626-34.787-39.271-55.896-38.004-26.09 1.689-40.022 21.958-46.608 32.092-7.008 10.81-12.412 26.603-12.074 31.502.422 4.814 4.813 4.053 4.813 9.712 0 5.574-8.528 10.219-5.15 26.012 1.435 6.925 7.43 12.161 4.728 28.038-4.813 28.546 16.633 63.172 21.953 68.324.675.591 1.857.084 1.688-.845-.844-6.334.423-15.202.423-15.202 10.807 23.563 40.866 19.171 50.323 17.145l.506-.254a1.01 1.01 0 0 0 .169-1.182 1 1 0 0 0-.422-.422 25.1 25.1 0 0 1-11.736-15.54c9.456 4.645 15.536 3.801 18.491 2.872a1.02 1.02 0 0 0 .675-.845 1.015 1.015 0 0 0-.506-1.013c-2.787-1.774-7.177-9.29-10.47-16.722a17.98 17.98 0 0 1 2.533-18.58c3.884-4.73 8.95-11.233 14.692-18.158 1.182-1.52 2.87 0 3.461 1.52 8.444 21.367 19.336 37.498 26.851 41.889 5.404 3.463 11.398 4.054 14.1 1.943 7.346-5.912 1.52-16.215-1.182-20.1zm-90.767-20.015c-9.035.591-6.924-11.317-13.51-10.979-7.177.253-5.066 9.29-9.794 9.881s-4.222-13.344-.845-14.948c5.235-2.534 11.399-3.125 16.296-2.956 5.911.253 11.483 0 14.101 5.743 3.04 6.756 2.702 12.752-6.248 13.259m56.909-85.045c-11.99 7.263-12.665 10.81-14.354 23.562-.422 2.787-.844 6.081.422 7.939 2.871 4.223 8.275 7.263 6.755 14.357-3.546 16.722-12.834 36.315-25.331 42.565-1.519.676-3.208-.845-3.546-2.449-1.435-6.672-4.728-18.749-5.573-22.718-4.475-22.549-25.668-22.887-26.259-18.58-.169 1.267 4.222 2.956 7.093 3.969 2.617.845 2.702 4.645.169 5.49a7.1 7.1 0 0 1-2.111.337c-5.235-.337-11.906.085-14.945.338a3.97 3.97 0 0 1-2.787-.844 4.14 4.14 0 0 1-1.435-2.534c-1.182-7.01.844-9.459 3.377-16.046 1.267-3.294 2.871-9.881 3.378-13.26.337-1.773.169-3.969 0-5.658a41 41 0 0 1-.254-5.743c.17-6.334.845-11.4 5.489-11.4 8.443 0 26.343 0 29.13-4.224 2.955-4.476-13.594-.169-31.41-.76a1.43 1.43 0 0 1-.929-.338c-.25-.247-.4-.578-.422-.928v-.338a2.365 2.365 0 0 1 1.266-2.365 2.3 2.3 0 0 1 .845-.169c9.541-.084 16.887-.844 18.744-3.631 1.942-2.872-7.683-1.605-18.575-1.436-1.436 0-2.533 0-2.533-1.436v-.084c0-.591.253-1.098.675-1.52.422-.338.844-.592 1.436-.676 6.417-.422 9.203-.845 9.456-2.956s-.675-1.942-7.768-1.52c-1.52.084-1.097-1.098-.253-2.365C94.12 46.583 104 37.04 125.868 37.8c37.489 1.182 36.307 28.207 37.489 34.795a2.79 2.79 0 0 1-1.266 2.787"/></svg>