<svg xmlns="http://www.w3.org/2000/svg" fill="none" viewBox="0 0 512 512"><path fill="#EE8E8D" d="M256 512c141.385 0 256-114.615 256-256S397.385 0 256 0 0 114.615 0 256s114.615 256 256 256Z"/><path fill="#000" d="M391.898 360.885a1.85 1.85 0 0 0-1.855-.861 1.855 1.855 0 0 0-1.522 1.368c-9.288 28.038-16.887 21.113-20.264 15.201a25.844 25.844 0 0 1-2.871-6.756c-8.781-35.977-.676-68.915-.676-68.915 4.729 15.202 17.394 19.763 23.811 20.945a1.854 1.854 0 0 0 2.027-.676 2.03 2.03 0 0 0 .168-2.195c-24.823-49.49-10.132-70.435-10.132-70.435 4.222 4.898 11.314 5.236 15.705 5.067a2.024 2.024 0 0 0 1.689-1.182 2.03 2.03 0 0 0-.338-2.196c-17.9-20.269-19.251-27.025-19.927-61.144-.506-19.087-6.923-29.053-13.003-34.12-7.092-6.081-12.496-13.513-15.536-22.296-24.317-69.252-69.574-78.542-111.791-76.008-52.181 3.378-80.045 43.916-93.217 64.185-14.016 21.62-24.824 53.206-24.148 63.002.844 9.628 9.626 8.108 9.626 19.425 0 11.148-17.056 20.438-10.302 52.023 2.871 13.851 14.861 24.323 9.457 56.078-9.625 57.091 33.268 126.343 43.906 136.646 1.351 1.183 3.715.169 3.378-1.689-1.689-12.668.844-30.403.844-30.403 21.615 47.125 81.733 38.342 100.647 34.288l1.013-.507a2.029 2.029 0 0 0-.507-3.209 50.18 50.18 0 0 1-23.473-31.079c18.914 9.29 31.072 7.601 36.983 5.743a2.025 2.025 0 0 0 1.351-1.689 2.032 2.032 0 0 0-1.013-2.027c-5.573-3.547-14.354-18.58-20.94-33.444a35.976 35.976 0 0 1 5.066-37.159c7.768-9.459 17.9-22.465 29.383-36.316 2.364-3.04 5.742 0 6.924 3.041 16.887 42.733 38.671 74.995 53.7 83.778 10.808 6.925 22.798 8.108 28.202 3.885 14.691-11.824 3.039-32.43-2.365-40.2v-.169Zm-181.535-40.031c-18.069 1.182-13.847-22.634-27.019-21.958-14.354.506-10.132 18.58-19.589 19.762-9.456 1.182-8.443-26.688-1.688-29.897 10.469-5.067 22.797-6.249 32.591-5.912 11.821.507 22.967 0 28.202 11.486 6.079 13.513 5.404 25.505-12.497 26.519Zm113.819-170.091c-23.98 14.526-25.331 21.621-28.708 47.126-.845 5.574-1.689 12.161.844 15.877 5.742 8.445 16.549 14.526 13.51 28.714-7.093 33.444-25.668 72.631-50.661 85.13-3.04 1.351-6.417-1.689-7.093-4.898-2.871-13.344-9.456-37.498-11.145-45.437-8.95-45.098-51.337-45.774-52.519-37.159-.337 2.533 8.444 5.911 14.185 7.938 5.235 1.689 5.404 9.29.338 10.979a14.17 14.17 0 0 1-4.222.676c-10.47-.676-23.81.169-29.89.676a7.94 7.94 0 0 1-5.572-1.689 8.277 8.277 0 0 1-2.871-5.068c-2.364-14.019 1.689-18.917 6.755-32.092 2.533-6.588 5.741-19.762 6.754-26.519.676-3.547.338-7.938 0-11.317a82.368 82.368 0 0 1-.506-11.485c.338-12.668 1.689-22.803 10.976-22.803 16.887 0 52.688 0 58.261-8.445 5.91-8.952-27.189-.338-62.82-1.52a2.876 2.876 0 0 1-1.858-.676 2.87 2.87 0 0 1-.844-1.858v-.676a4.733 4.733 0 0 1 2.533-4.729 4.548 4.548 0 0 1 1.689-.338c19.082-.169 33.774-1.689 37.489-7.263 3.884-5.743-15.367-3.209-37.152-2.871-2.87 0-5.066 0-5.066-2.872v-.169c0-1.182.507-2.196 1.351-3.04.845-.676 1.689-1.182 2.871-1.351 12.834-.845 18.407-1.689 18.914-5.912.506-4.223-1.351-3.885-15.536-3.04-3.04.168-2.196-2.196-.507-4.73 4.559-6.756 24.317-25.843 68.054-24.323 74.979 2.365 72.615 56.416 74.979 69.59a5.582 5.582 0 0 1-2.533 5.574Z"/></svg>