<svg xmlns="http://www.w3.org/2000/svg" fill="none" viewBox="0 0 256 256"><g clip-path="url(#clip0_4193_3453)"><rect width="256" height="256" fill="#4189C9" rx="128"/><path fill="#262F71" d="M137.573 147.365c-5.513-3.264-11.527-5.147-17.792-6.654-8.144-1.883-16.539-2.762-24.808-2.26-5.889.252-11.778 1.13-17.165 3.767q-.94.376-1.88 1.129c-4.385 2.888-5.137 6.905-1.88 11.173.627.879 1.379 1.758 2.256 2.762-2.882 0-5.388-.502-7.894-1.004-6.765-1.381-13.03-3.641-18.543-8.035-2.631-2.134-4.385-3.64-6.14-6.528l.143-.207c.715-1.019 1.635-1.92 2.661-2.51l.078-.044c2.13-.879 3.634-2.511 5.764-3.515 9.522-4.394 19.671-7.031 30.07-8.035 4.135-.377 8.27-.753 12.53-.628 12.279.503 24.557 2.637 36.21 6.403 3.007.879 6.014 2.008 9.146 3.013 0-.879-.501-1.381-.877-2.009-1.253-2.134-2.756-4.143-4.385-6.151-.627-.753-1.378-1.256-1.378-2.385l.602.138c1.454.33 2.98.661 4.409.991.502.126 1.003.377 1.253 0 .191-.286-.501-1.255-.501-1.255s-5.262-7.281-8.52-10.169l1.782.03c1.077.035 2.153.396 3.23.473 17.29 2.259 33.077 8.411 46.86 19.207 18.293 14.311 30.07 32.891 34.957 55.613a79.8 79.8 0 0 1 1.503 23.099c-1.002 13.433-5.262 25.861-13.156 36.909-.307.462-.709.83-1.061 1.248a5 5 0 0 0-.305.404l-.071.112a3 3 0 0 0-.191.37 14 14 0 0 1-1.39 1.751c-1.644 1.78-3.682 3.242-5.502 4.777-6.996 5.674-14.629 9.929-22.731 13.065-4.175 1.616-8.474 2.936-12.875 4a123 123 0 0 1-9.499 1.891c-12.906 2.009-25.936 2.26-38.967.628-20.423-2.511-39.843-9.918-56.758-21.467-4.135-2.762-8.144-5.775-11.778-9.165q-.188-.188 0-.376.142-.047.272-.061c.606-.066 1.044.359 1.483.688 8.645 6.528 18.543 11.299 28.942 14.061 3.509.879 7.017 1.632 10.65 2.134.752.251 1.755.125 2.506.251.126 0 .376 0 .502.126 8.144 1.004 16.288.376 24.307-1.005 17.666-3.138 33.328-10.545 46.734-22.471 9.147-8.035 16.414-17.701 20.173-29.502 3.884-11.8 3.257-23.224-2.13-34.648-1.128 5.147-3.759 9.29-7.142 13.181-3.383 3.766-7.267 7.031-11.653 9.416-.501.251-1.127.879-1.628.376-.502-.376-.251-1.13 0-1.506 1.127-3.515 1.754-7.156 2.13-10.796 1.503-15.442-4.386-27.493-16.664-36.532-2.005-1.506-4.135-2.887-6.39-4.017z"/><path fill="#182144" d="M86.703 264.617c-4.51-.502-9.02-1.381-13.28-2.761-8.145-2.511-15.913-6.152-23.18-10.797-1.754-1.13-3.133-2.636-5.012-3.515-1.037-.115-1.439-1.081-2.18-1.528a2 2 0 0 0-.2-.104c-18.043-16.069-30.322-35.778-37.338-58.752C2.13 175.987.25 164.438 0 152.637c0-.878.125-1.757.125-3.138.877 2.008 1.504 3.515 2.256 5.021 6.515 14.312 14.784 27.242 26.186 38.038 12.154 11.424 26.312 19.208 42.85 21.844 19.546 3.139 37.714-.251 54.503-10.796 8.395-5.273 15.161-12.052 19.17-21.216 4.762-11.173 3.007-21.593-4.385-31.259-.626-.879-1.378-1.632-2.005-2.511.877-.753 1.379.126 1.88.502a36 36 0 0 1 10.023 13.307c2.256 5.022 3.383 10.294 3.509 15.693.125 5.523-1.128 11.047-3.509 16.068.501 0 1.003-.125 1.379-.502 2.38-1.381 4.51-2.887 6.515-4.645.626-.502 1.253-1.381 2.255-1.255-.501 4.143-1.503 8.411-2.756 12.428 2.631-1.506 5.262-3.264 7.768-5.147 1.879-1.506 3.508-3.389 5.387-5.021.752.376.752 1.13 1.003 1.883 3.132 11.173.877 21.592-4.636 31.384-6.641 11.926-16.539 20.84-27.941 27.995-9.271 5.775-19.295 9.918-30.07 12.303-6.641 1.507-13.532 1.883-20.423 1.255-.877-.502-1.88 0-2.631-.376z"/><path fill="#161F42" d="M204.73 252.566q0-.119.012-.231c.113-1.12 1.038-1.841 1.742-2.782 6.14-8.662 9.773-18.329 11.778-28.874 1.253-6.528 1.253-13.056.877-19.458-.626-9.918-3.258-19.584-7.267-28.749-2.882-6.779-6.641-13.181-11.026-19.082-4.636-6.151-10.149-11.926-16.163-16.822-9.272-7.657-19.922-13.432-31.449-17.073-6.139-2.008-12.404-3.264-18.794-3.892-.57-.063-1.726-.221-1.726-.221l-1.782-.03c-4.009-3.013-8.144-5.9-12.905-8.034v-.502h5.012c23.304-.377 44.98 5.272 63.774 19.584 19.546 14.813 31.7 34.272 36.21 58.375 3.884 20.588.877 40.047-10.525 57.748-2.152 3.474-4.418 6.719-7.451 9.408q-.219.194-.442.384l.066.132z"/><path fill="#182144" d="M187.064 30.614c-2.66 8.958-5.576 15.66-9.773 21.844a75.2 75.2 0 0 1-15.286 16.822c-.376.251-.626.628-1.002.879l-.139.07c-1.948 1.01-3.664 2.595-5.5 3.821-6.891 4.52-14.283 8.411-22.051 11.424-.126 0-.376.126-.627.126-.376-.502 0-.628.251-.879 4.385-4.143 7.142-9.29 8.896-15.065.125-.753.751-1.38 1.378-1.632 13.657-5.398 24.432-14.31 33.328-25.86a141 141 0 0 1 2.631-3.39c-2.756 0-7.016 1.883-7.016 1.883s-1.083-.341-1.133-.373l-.001-.001-.003-.002-.43.323c4.404-6.997 16.538-26.265 19.023-34.216.251-.753 1.087-2.388 1.087-2.388.126 0 .126.126.126.251v.126c-.126 8.787-.812 16.314-3.759 26.237"/><path fill="#161F42" d="M134.291 125.785c-.116-.131.118.129 0 0 2.608 2.914 4.871 6.169 6.79 9.654.125.376.626.753.251 1.129-.376.251-.752-.125-1.128-.251-9.021-3.389-18.418-5.9-27.941-7.658-4.761-.878-9.647-1.255-14.534-1.506-4.385-.251-8.77-.251-13.156.126-10.023.753-19.67 2.887-28.942 7.03-2.882 1.255-5.764 2.762-8.395 4.519-.24.12-.365.47-.705.17l-.047-.044c8.019-5.65 16.664-10.42 26.187-13.182 13.03-3.892 26.311-4.77 39.718-3.766 6.891.502 15.136 2.272 21.902 3.779"/><path fill="#182144" d="M57.009 116.984c.25.754-.627 1.13-.501 1.758-.502-2.009-1.504-2.762-3.634-2.385-2.13.502-4.135 1.632-5.638 3.264-.344.459-.793.813-1.25 1.159l-.128.096c-.376-.502 0-.879.125-1.255.877-2.888 2.882-4.896 5.262-6.654.501-.376 1.128-.628 1.88-.879 2.881-.627 4.385.754 4.009 3.641 0 .377 0 .753-.25 1.13z"/><path fill="#182144" d="M57.009 116.984v-1.38c0-2.888-1.63-4.018-4.386-2.762-3.132 1.381-5.137 4.017-6.515 7.03-.205 0-.41 0-.41-.207q0-.067.034-.17c1.003-3.64 2.882-6.653 6.014-8.787a6.7 6.7 0 0 1 2.632-1.005c1.503-.251 2.881.628 3.257 2.009.48 1.682.271 3.478-.626 5.06q-.06.107-.126.212z"/><path fill="#fff" d="M247.957 117.235c.363-.242.342-.447.001-.728l-.001-.025 1.701 1.023 1.18 1.488s-1.211-.878-2.881-1.758"/><path fill="#424A7F" d="M42.976 245.912c1.002.126 1.503 1.256 2.38 1.632v.377l-.104-.061c-.807-.471-1.605-1.053-2.2-1.844z"/><path fill="#8CB7DE" d="m255.349 181.888.626.376q.018.083.022.167c.037.573-.305 1.155-.648 1.842z"/><path fill="#4F668A" d="m45.858 119.495.375.377a2.4 2.4 0 0 0-.25 1.004l-.752.879c.106-.954.212-1.55.468-2.09q.07-.148.159-.295z"/><path fill="#0E1F66" d="M161.003 187.914c-3.383 2.761-6.641 5.523-11.151 7.532 1.252-2.636 2.255-5.273 2.881-8.16 2.631-11.675.126-22.22-6.64-31.761-1.754-2.386-4.01-4.143-6.014-6.277-.251-.377-.627-.753-1.253-.502-.627-.251-.877-.879-1.379-1.381.251-.377.627-.126.877 0 8.019 4.645 14.785 10.545 18.92 19.081 2.005 4.143 3.257 8.788 3.633 13.433.251 2.636.251 5.398-.125 8.035zm-71.668 77.08c10.9.502 21.801-1.255 32.075-5.022 9.898-3.64 19.17-8.787 27.439-15.441 8.019-6.528 15.035-14.06 19.671-23.475 2.506-5.022 4.01-10.546 4.511-16.069.501-5.022-.376-9.792-1.754-14.563.125-1.13 1.253-1.757 1.879-2.51 2.381-3.139 4.135-6.528 4.887-10.546.125-.502.25-1.004.501-1.506 1.503 3.013 2.756 6.151 3.508 9.415 1.128 4.645 1.879 9.29 1.504 14.06-.627 8.16-3.133 16.195-7.142 23.351-4.135 7.281-9.397 13.432-15.411 18.956-5.388 4.77-11.277 8.913-17.541 12.303-7.643 4.142-15.788 7.281-24.182 9.289-5.263 1.256-10.65 2.009-16.038 2.386-2.631.125-5.262.376-7.768.251-1.88-.126-4.01 0-6.014-.628z"/><path fill="#fff" fill-rule="evenodd" d="M138.7 126.776c.502.126 1.003.377 1.253 0 .191-.286-.501-1.255-.501-1.255s-5.262-7.281-8.52-10.169c-4.009-3.013-8.144-5.9-12.905-8.034v-.502h5.012c23.304-.377 44.98 5.272 63.774 19.584 19.546 14.813 31.7 34.272 36.21 58.375 3.884 20.588.877 40.047-10.525 57.748-2.152 3.474-4.418 6.719-7.451 9.408a5 5 0 0 0-.305.404 2 2 0 0 0-.012.231l-.059-.119a3 3 0 0 0-.191.37 14 14 0 0 1-1.39 1.751c-1.644 1.78-3.682 3.242-5.502 4.777-6.996 5.674-14.629 9.929-22.731 13.065a130.3 130.3 0 0 0 31.251-16.672c23.775-17.205 41.464-42.238 49.241-71.465v-2.385a96 96 0 0 0-9.272-36.783c-3.633-7.532-8.144-14.562-13.532-20.839-4.886-5.775-10.399-10.671-16.288-15.316-3.007-1.883-5.889-4.017-9.021-5.775-9.898-5.775-20.799-9.666-32.2-11.55-.251-.125-.502-.125-.752-.25 3.383-.628 15.035 1.13 23.054 3.39 7.518 2.008 14.659 4.895 21.676 8.536-.752-2.134-2.582-5.09-2.582-5.09s-1.063-1.857-1.553-2.694c2.084.837 3.423 1.757 5.51 2.872 9.725 4.997 19.084 11.255 27.569 18.118l-.001-.025 1.701 1.023c-5.228-6.802-11.55-12.507-18.24-17.845-8.019-6.528-16.664-12.051-25.936-16.445-12.905-6.403-26.562-10.546-40.846-12.303-1.253-.126-2.631 0-3.759-.502a1 1 0 0 1-.013-.18c-1.948 1.008-3.664 2.594-5.5 3.82-6.891 4.52-14.283 8.411-22.051 11.424-.126 0-.376.126-.627.126-.376-.502 0-.628.251-.879 4.385-4.143 7.142-9.29 8.896-15.065.125-.753.751-1.38 1.378-1.632 13.657-5.398 24.432-14.31 33.328-25.86a141 141 0 0 1 2.631-3.39c-2.756 0-7.016 1.883-7.016 1.883l-1.93.762c0-.265.363-.815.363-.815.168.02.261-.197.43-.323l-.43.323C187.703 19.967 190.697 4 190.697 4c-15.656 29.723-33.704 42.558-46.108 50.843-1.879-9.918-2.506-8.537-5.763-15.567 0 .753-8.019 11.926-18.043 18.203-10.148 6.403-36.585 10.546-36.21 25.485 0 6.779 3.76 9.54 10.4 11.298-8.395 2.636-10.65-3.013-11.527-1.883-3.508 3.892-16.79 16.069-24.182 12.93-5.262-1.004-3.132-8.536-2.38-11.926v-.125c-2.506.707-4.342 2.229-6.162 3.627-15.755 12.099-18.27 29.013-14.136 48.094.376 1.758.877 1.381 1.88.628 1.753-1.381 3.382-3.013 5.262-4.143q.072.019.142.044c.715-1.019 1.635-1.92 2.661-2.51l-.047-.044c8.019-5.65 16.664-10.42 26.187-13.182 13.03-3.892 26.311-4.77 39.718-3.766 6.891.502 15.136 2.272 21.902 3.779-.116-.131.118.129 0 0 1.454.33 2.98.661 4.409.991m-20.548-54.358c3.508-1.757 7.989-3.93 10.91-6.583-3.452 14.33-12.037 21.146-24.066 22.276l-.178.018c-2.315.245-4.517.477-6.838.233-.877-2.511.125-4.645 1.503-6.528 1.754-2.26 4.135-3.64 6.641-4.77 3.83-1.734 7.783-3.223 11.737-4.588l.146-.03zm-61.143 44.566c.25.754-.627 1.13-.501 1.758-.502-2.009-1.504-2.762-3.634-2.385-2.13.502-4.135 1.632-5.638 3.264-.344.459-.793.813-1.25 1.159l-.003.096-.752.879c.106-.954.212-1.55.468-2.09q0-.067.033-.17c1.003-3.64 2.882-6.653 6.014-8.787a6.7 6.7 0 0 1 2.632-1.005c1.503-.251 2.881.628 3.257 2.009.48 1.682.271 3.478-.626 5.06z" clip-rule="evenodd"/><path fill="#182144" d="m170.224 41.42 1.93-.763s-1.083-.341-1.133-.373q-.003 0-.001-.001l-.003-.002-.43.323s-.363.55-.363.815m52.924 68.284c8.646 1.381 16.915 3.766 24.809 7.532.363-.242.342-.447.001-.728-8.485-6.863-17.844-13.121-27.569-18.118-2.087-1.115-3.426-2.035-5.51-2.872.49.837 1.553 2.695 1.553 2.695s1.83 2.955 2.582 5.089c-7.017-3.64-14.158-6.528-21.676-8.537-8.019-2.26-19.671-4.017-23.054-3.39.25.126.501.126.752.252 11.401 1.883 22.302 5.774 32.2 11.549 3.132 1.758 6.014 3.892 9.021 5.775 2.208.02 4.561.385 6.891.753m-94.086-43.868c-2.921 2.654-7.402 4.826-10.91 6.583-1.503 5.65-5.012 9.541-10.023 12.303-2.779 1.559-5.853 2.426-8.96 3.303l-1.19.338c2.322.245 4.524.012 6.839-.233l.178-.018c12.029-1.13 20.614-7.946 24.066-22.276"/><path fill="#182144" fill-rule="evenodd" d="M108.129 84.721c5.011-2.762 8.52-6.653 10.023-12.303a1 1 0 0 1-.145.029c-.059.01-.118.019-.146.029-.316.38-.604.914-.711 1.449-1.88 4.77-5.263 8.285-9.773 10.67-2.381 1.256-5.012 2.01-7.643 2.762-.172.07-.362.11-.554.15-.507.108-1.018.217-1.2.855q.594-.17 1.19-.338c3.106-.877 6.18-1.744 8.959-3.303" clip-rule="evenodd"/></g><defs><clipPath id="clip0_4193_3453"><rect width="256" height="256" fill="#fff" rx="128"/></clipPath></defs></svg>
