<svg xmlns="http://www.w3.org/2000/svg" fill="none" viewBox="0 0 512 512"><path fill="#fff" d="M256 512c141.385 0 256-114.615 256-256S397.385 0 256 0 0 114.615 0 256s114.615 256 256 256"/><path fill="url(#paint0_linear_4193_3725)" d="M416.63 368.458q-24.294 27.767-56.304 27.766-33.55 0-56.689-24.294-22.752-24.297-37.023-74.816l-6.169-19.282h-55.147v80.986h48.592v32.008H115.828v-31.623h49.748V158.282h-49.748v-32.009h153.487q45.12 0 71.344 20.44t26.224 55.532q0 28.924-18.897 48.977-18.511 19.668-52.447 24.682l6.941 18.896q11.955 33.936 26.61 49.363 14.654 15.425 33.164 15.426 11.57 0 19.669-4.629 8.097-4.627 15.04-12.341zM205.298 247.752h65.174q24.681 0 40.878-11.955 16.196-12.34 16.197-33.552 0-20.439-16.197-32.008-15.812-11.955-40.878-11.955h-65.174z"/><defs><linearGradient id="paint0_linear_4193_3725" x1="115.828" x2="384.673" y1="126.273" y2="421.053" gradientUnits="userSpaceOnUse"><stop stop-color="#FF4A07"/><stop offset=".271" stop-color="#FF5411"/><stop offset=".502" stop-color="#FF671B"/><stop offset=".696" stop-color="#FF7824"/><stop offset="1" stop-color="#FF722B"/></linearGradient></defs></svg>