<svg xmlns="http://www.w3.org/2000/svg" fill="none" viewBox="0 0 256 256"><path fill="#fff" d="M128 256c70.692 0 128-57.308 128-128S198.692 0 128 0 0 57.308 0 128s57.308 128 128 128"/><path fill="url(#paint0_linear_4193_3725)" d="M208.315 184.229q-12.147 13.883-28.152 13.883-16.775 0-28.345-12.147-11.376-12.148-18.511-37.408l-3.085-9.641h-27.573v40.493h24.296v16.004h-69.03v-15.811h24.873V79.141H57.914V63.137h76.744q22.56 0 35.672 10.22t13.112 27.765q0 14.462-9.449 24.489-9.256 9.834-26.223 12.341l3.47 9.448q5.978 16.968 13.305 24.682 7.327 7.712 16.582 7.712 5.785 0 9.835-2.314 4.048-2.313 7.52-6.17zm-105.666-60.353h32.587q12.34 0 20.439-5.978 8.099-6.17 8.099-16.776 0-10.218-8.099-16.004-7.906-5.976-20.439-5.977h-32.587z"/><defs><linearGradient id="paint0_linear_4193_3725" x1="57.914" x2="192.337" y1="63.137" y2="210.526" gradientUnits="userSpaceOnUse"><stop stop-color="#FF4A07"/><stop offset=".271" stop-color="#FF5411"/><stop offset=".502" stop-color="#FF671B"/><stop offset=".696" stop-color="#FF7824"/><stop offset="1" stop-color="#FF722B"/></linearGradient></defs></svg>