<svg xmlns="http://www.w3.org/2000/svg" fill="none" viewBox="0 0 256 256"><path fill="#fff" d="M128 256c70.692 0 128-57.308 128-128S198.692 0 128 0 0 57.308 0 128s57.308 128 128 128"/><path fill="url(#paint0_linear_4193_3726)" d="M134.957 224.627c22.682-1.555 44.923-10.958 62.263-28.209 17.298-17.209 26.745-39.273 28.342-61.784H172.89c-1.411 9.125-5.649 17.902-12.713 24.931a45.1 45.1 0 0 1-25.22 12.673z"/><path fill="url(#paint1_linear_4193_3726)" d="M122.101 224.627v-52.305c-9.418-1.259-18.513-5.516-25.75-12.77a44.8 44.8 0 0 1-12.61-24.918H31.495c1.584 22.499 10.954 44.551 28.112 61.751 17.387 17.429 39.74 26.843 62.493 28.242"/><path fill="url(#paint2_linear_4193_3726)" d="M31.496 121.777c1.36-22.906 10.746-45.421 28.16-62.924C77.029 41.392 99.366 31.961 122.1 30.56v52.401c-9.41 1.261-18.499 5.526-25.73 12.795a44.93 44.93 0 0 0-12.751 26.021z"/><path fill="url(#paint3_linear_4193_3726)" d="M134.957 30.56v52.486a45.02 45.02 0 0 1 25.201 12.696 44.8 44.8 0 0 1 12.853 26.035h52.551c-1.371-22.918-10.834-45.445-28.389-62.957-17.327-17.282-39.551-26.702-62.216-28.26"/><defs><linearGradient id="paint0_linear_4193_3726" x1="56.107" x2="201.268" y1="63.525" y2="193.98" gradientUnits="userSpaceOnUse"><stop stop-color="#FF661E"/><stop offset="1" stop-color="#FF9308"/></linearGradient><linearGradient id="paint1_linear_4193_3726" x1="56.544" x2="201.506" y1="63.563" y2="192.853" gradientUnits="userSpaceOnUse"><stop stop-color="#FF661E"/><stop offset="1" stop-color="#FF9308"/></linearGradient><linearGradient id="paint2_linear_4193_3726" x1="56.594" x2="201.778" y1="63.285" y2="192.438" gradientUnits="userSpaceOnUse"><stop stop-color="#FF661E"/><stop offset="1" stop-color="#FF9308"/></linearGradient><linearGradient id="paint3_linear_4193_3726" x1="56.167" x2="201.552" y1="63.255" y2="193.574" gradientUnits="userSpaceOnUse"><stop stop-color="#FF661E"/><stop offset="1" stop-color="#FF9308"/></linearGradient></defs></svg>
