<svg xmlns="http://www.w3.org/2000/svg" fill="none" viewBox="0 0 256 256"><path fill="#000" fill-rule="evenodd" d="M128 256c70.934 0 128-57.066 128-128S198.934 0 128 0 0 57.066 0 128s57.066 128 128 128" clip-rule="evenodd"/><path fill="#fff" fill-rule="evenodd" d="M244 128c0 64.065-51.935 116-116 116S12 192.065 12 128 63.935 12 128 12s116 51.935 116 116M128 233.209c58.105 0 105.209-47.104 105.209-105.209S186.105 22.79 128 22.79 22.79 69.895 22.79 128 69.895 233.209 128 233.209" clip-rule="evenodd"/><path fill="#C6FAFD" fill-rule="evenodd" d="M244 128c0 64.065-51.935 116-116 116S12 192.065 12 128 63.935 12 128 12s116 51.935 116 116M128 233.209c58.105 0 105.209-47.104 105.209-105.209S186.105 22.79 128 22.79 22.79 69.895 22.79 128 69.895 233.209 128 233.209" clip-rule="evenodd"/><path fill="#C6FAFD" d="m141.54 70.029-8.356 38.516h-10.559l-1.801-8.309-1.333-6.234-5.394-24.836a187 187 0 0 1 27.443.863m-26.531 38.516-13.702-37.96a91 91 0 0 0-18.228 4.748l15.256 24.903 5.074 8.309zm79.932 8.313 6.04 16.628H159.07l1.362-16.628zm15.256 41.564h-53.205l1.366-16.627h45.781zM197.498 184h-42.757l1.864-16.733H214zm-96.239 0H58.502L42 167.267h57.395zm-4.338-50.519-1.357-16.623h-34.61l-6.011 16.628h41.982zm-51.137 24.941 6.03-16.627h45.828l1.366 16.627zm123.448-76.893 3.598-5.817s-7.453-2.017-18.762-3.853l-13.264 36.686h11.606l5.164-8.304 3.899-6.234zm10.062 0-18.518 27.016h30.405l-10.133-27.016zm-84.26 27.016L76.518 81.529h-1.753l-10.134 27.016z"/></svg>