<svg xmlns="http://www.w3.org/2000/svg" fill="none" viewBox="0 0 256 256"><path fill="#000" d="M128 256c70.692 0 128-57.308 128-128S198.692 0 128 0 0 57.308 0 128s57.308 128 128 128"/><path fill="url(#paint0_linear_9892_2041)" d="M211.241 101.064v75.322L127.5 224.74l-83.788-48.36V79.62L127.5 31.213l64.357 37.194 9.713-5.613L127.5 20 34 74.013v107.98L127.5 236l93.5-54.013V95.463z"/><path fill="url(#paint1_linear_9892_2041)" d="M104.055 176.427H90.042v-47.003h46.703a16.81 16.81 0 0 0 16.536-15.129 16.8 16.8 0 0 0-1.15-8.017 16 16 0 0 0-3.664-5.355 16.2 16.2 0 0 0-11.722-4.905H90.042v-14.3h46.75a31.1 31.1 0 0 1 21.81 9.113 31.12 31.12 0 0 1 9.109 21.82 30.06 30.06 0 0 1-5.464 17.521 30.46 30.46 0 0 1-13.452 11.026 54 54 0 0 1-16.713 2.525h-28.027z"/><path fill="url(#paint2_linear_9892_2041)" d="M167.384 175.258h-16.345l-12.611-22.005a53.2 53.2 0 0 0 14.621-2.988z"/><path fill="url(#paint3_linear_9892_2041)" d="m201.482 85.413 9.665 5.373 9.666-5.379V74.06l-9.666-5.612-9.671 5.612z"/><defs><linearGradient id="paint0_linear_9892_2041" x1="220.836" x2="22.541" y1="74.072" y2="153.335" gradientUnits="userSpaceOnUse"><stop stop-color="#C200FB"/><stop offset=".49" stop-color="#3772FF"/><stop offset="1" stop-color="#5AC4BE"/></linearGradient><linearGradient id="paint1_linear_9892_2041" x1="348.904" x2="-121.107" y1="2.56" y2="200.892" gradientUnits="userSpaceOnUse"><stop stop-color="#C200FB"/><stop offset=".49" stop-color="#3772FF"/><stop offset="1" stop-color="#5AC4BE"/></linearGradient><linearGradient id="paint2_linear_9892_2041" x1="566.205" x2="-797.375" y1="-638.509" y2="-231.218" gradientUnits="userSpaceOnUse"><stop stop-color="#C200FB"/><stop offset=".49" stop-color="#3772FF"/><stop offset="1" stop-color="#5AC4BE"/></linearGradient><linearGradient id="paint3_linear_9892_2041" x1="220.836" x2="22.541" y1="74.072" y2="153.335" gradientUnits="userSpaceOnUse"><stop stop-color="#C200FB"/><stop offset=".49" stop-color="#3772FF"/><stop offset="1" stop-color="#5AC4BE"/></linearGradient></defs></svg>
