<svg xmlns="http://www.w3.org/2000/svg" fill="none" viewBox="0 0 512 512"><path fill="#000" d="M256 512c141.385 0 256-114.615 256-256S397.385 0 256 0 0 114.615 0 256s114.615 256 256 256Z"/><path fill="url(#paint0_linear_4193_4176)" d="M256 512c141.385 0 256-114.615 256-256S397.385 0 256 0 0 114.615 0 256s114.615 256 256 256Z"/><path fill="#EDEDED" d="M255.998 54H256l-.002 279.036 124-73.081L255.998 54Z"/><path fill="#fff" d="M256 54 132 259.955l124 73.081V54Z"/><path fill="#EDEDED" d="M256 356.763V458l124-174.634-124 73.397Z"/><path fill="#fff" d="M256 458V356.763l-124-73.397L256 458Z"/><path fill="#D8D8D8" d="m256 333.036 124-73.081-124-56.63v129.711Z"/><path fill="#EDEDED" d="m132 259.955 124 73.081V203.325l-124 56.63Z"/><defs><linearGradient id="paint0_linear_4193_4176" x1="413.5" x2="83.5" y1="108.5" y2="431" gradientUnits="userSpaceOnUse"><stop stop-color="#FF5823"/><stop offset="1" stop-color="#FFD493"/></linearGradient></defs></svg>