<svg xmlns="http://www.w3.org/2000/svg" fill="none" viewBox="0 0 256 256"><path fill="#000" d="M128 256c70.692 0 128-57.308 128-128S198.692 0 128 0 0 57.308 0 128s57.308 128 128 128"/><path fill="#F0E7D8" d="M22.002 128.5c0-58.817 47.46-106.5 106.002-106.5S234 69.68 234 128.5 186.543 235 128.001 235C69.457 235 22 187.32 22 128.5zm23.19 0c0 45.952 37.076 83.201 82.809 83.201 45.738 0 82.812-37.249 82.812-83.199 0-45.954-37.074-83.203-82.809-83.203-45.738 0-82.81 37.25-82.81 83.201z"/><path fill="#F0E7D8" d="m126.683 155.055-7.869-14.732-.797.133v35.093H82.823V81.792h59.994c21.331 0 35.594 12.188 35.594 28.796 0 15.136-11.469 27.325-30.929 27.325-3.334 0-6.398-.266-9.2-.801l-.535.941c7.6 6.429 12.8 8.436 19.198 8.436 8.002 0 15.732-3.351 19.6-8.438l4.403 35.499c-4.403 2.144-11.468 4.018-15.996 4.018-17.865 0-28.791-4.284-38.261-22.498zm19.461-36.297c0-5.628-4.401-8.839-10.802-8.839H118.01v13.798c6.399 2.948 11.066 4.285 16.528 4.285 6.399 0 11.601-3.615 11.601-9.244z"/></svg>