<svg xmlns="http://www.w3.org/2000/svg" fill="none" viewBox="0 0 256 256"><path fill="#000" fill-rule="evenodd" d="M128 256c70.692 0 128-57.308 128-128S198.692 0 128 0 0 57.308 0 128c0 29.257 9.816 56.221 26.334 77.779l10.233-10.518q.663-.694 1.608-.539 1.72.262 2.987 1.705a8.1 8.1 0 0 1 1.776 2.831q.36.954-.358 1.67l-10.924 11.347a129 129 0 0 0 5.03 5.424l21.82-22.369a3.27 3.27 0 0 1 2.427-.986 3.22 3.22 0 0 1 2.36 1.111c3.34 3.841 2.286 4.862-.4 7.463-.406.394-.851.825-1.323 1.307a3471 3471 0 0 0-18.824 19.253 129 129 0 0 0 6.151 5.161l12.475-12.714q.8-.804 1.675-.084l3.694 3.057a2.47 2.47 0 0 1 .736 2.76 2.5 2.5 0 0 1-.537.854l-10.966 11.315C76.492 247.819 101.29 256 128 256m76-195.75q-4.392-3.445-10.238-2.575c-26.664 1.995-50.824 13.108-72.152 30.06a201 201 0 0 0-31.294 30.112q-.599.726-1.524.943l-18.388 4.224-7.351 1.886a3.03 3.03 0 0 0-1.453.833Q50.528 137.064 40 150.68l28.516 8.937a.86.86 0 0 1 .345.182q1.145 1.052.036 2.193.29 6.799 3.358 12.782.454.906-.217 1.668l-8.75 9.862q-.652.725.073 1.396l9.693 8.811 10.11-9.935q.69-.67 1.598-.435 7.914 2.049 16.137 1.051.925-.126 1.434.653.399.598.145 1.342l4.992 15.41L112.08 216l23.724-20.541q.708-.634.908-1.559l5.772-26.251a2.8 2.8 0 0 1 .998-1.596c31.312-25.272 60.3-64.395 60.518-105.803" clip-rule="evenodd"/><path fill="url(#paint0_linear_4193_3524)" fill-rule="evenodd" d="M128 256c70.692 0 128-57.308 128-128S198.692 0 128 0 0 57.308 0 128c0 29.257 9.816 56.221 26.334 77.779l10.233-10.518q.663-.694 1.608-.539 1.72.262 2.987 1.705a8.1 8.1 0 0 1 1.776 2.831q.36.954-.358 1.67l-10.924 11.347a129 129 0 0 0 5.03 5.424l21.82-22.369a3.27 3.27 0 0 1 2.427-.986 3.22 3.22 0 0 1 2.36 1.111c3.34 3.841 2.286 4.862-.4 7.463-.406.394-.851.825-1.323 1.307a3471 3471 0 0 0-18.824 19.253 129 129 0 0 0 6.151 5.161l12.475-12.714q.8-.804 1.675-.084l3.694 3.057a2.47 2.47 0 0 1 .736 2.76 2.5 2.5 0 0 1-.537.854l-10.966 11.315C76.492 247.819 101.29 256 128 256m76-195.75q-4.392-3.445-10.238-2.575c-26.664 1.995-50.824 13.108-72.152 30.06a201 201 0 0 0-31.294 30.112q-.599.726-1.524.943l-18.388 4.224-7.351 1.886a3.03 3.03 0 0 0-1.453.833Q50.528 137.064 40 150.68l28.516 8.937a.86.86 0 0 1 .345.182q1.145 1.052.036 2.193.29 6.799 3.358 12.782.454.906-.217 1.668l-8.75 9.862q-.652.725.073 1.396l9.693 8.811 10.11-9.935q.69-.67 1.598-.435 7.914 2.049 16.137 1.051.925-.126 1.434.653.399.598.145 1.342l4.992 15.41L112.08 216l23.724-20.541q.708-.634.908-1.559l5.772-26.251a2.8 2.8 0 0 1 .998-1.596c31.312-25.272 60.3-64.395 60.518-105.803" clip-rule="evenodd"/><path fill="#000" d="M153.5 121.75c0 8.975-7.275 16.25-16.25 16.25S121 130.725 121 121.75s7.275-16.25 16.25-16.25 16.25 7.275 16.25 16.25"/><path fill="url(#paint1_linear_4193_3524)" d="M153.5 121.75c0 8.975-7.275 16.25-16.25 16.25S121 130.725 121 121.75s7.275-16.25 16.25-16.25 16.25 7.275 16.25 16.25"/><path fill="#000" fill-rule="evenodd" d="M193.762 57.676q5.846-.87 10.238 2.574c-.218 41.408-29.206 80.531-60.518 105.803q-.78.635-.998 1.596l-5.772 26.251a2.85 2.85 0 0 1-.908 1.559L112.08 216l-4.61-11.403-4.992-15.41q.254-.744-.145-1.342-.508-.78-1.434-.653-8.223.998-16.137-1.051-.908-.236-1.597.435l-10.11 9.935-9.694-8.811q-.726-.671-.072-1.396l8.749-9.862q.671-.762.217-1.668-3.067-5.983-3.358-12.782 1.109-1.141-.036-2.193a.9.9 0 0 0-.345-.182L40 150.68q10.529-13.616 21.6-24.947.6-.615 1.453-.833l7.351-1.886 18.388-4.224a2.74 2.74 0 0 0 1.524-.943 201 201 0 0 1 31.294-30.113c21.328-16.95 45.488-28.064 72.152-30.058M137.25 138c8.975 0 16.25-7.275 16.25-16.25s-7.275-16.25-16.25-16.25S121 112.775 121 121.75 128.275 138 137.25 138" clip-rule="evenodd"/><path fill="#fff" fill-rule="evenodd" d="M193.762 57.676q5.846-.87 10.238 2.574c-.218 41.408-29.206 80.531-60.518 105.803q-.78.635-.998 1.596l-5.772 26.251a2.85 2.85 0 0 1-.908 1.559L112.08 216l-4.61-11.403-4.992-15.41q.254-.744-.145-1.342-.508-.78-1.434-.653-8.223.998-16.137-1.051-.908-.236-1.597.435l-10.11 9.935-9.694-8.811q-.726-.671-.072-1.396l8.749-9.862q.671-.762.217-1.668-3.067-5.983-3.358-12.782 1.109-1.141-.036-2.193a.9.9 0 0 0-.345-.182L40 150.68q10.529-13.616 21.6-24.947.6-.615 1.453-.833l7.351-1.886 18.388-4.224a2.74 2.74 0 0 0 1.524-.943 201 201 0 0 1 31.294-30.113c21.328-16.95 45.488-28.064 72.152-30.058M137.25 138c8.975 0 16.25-7.275 16.25-16.25s-7.275-16.25-16.25-16.25S121 112.775 121 121.75 128.275 138 137.25 138" clip-rule="evenodd"/><path fill="#000" d="M63.047 215.841q-.875-.72-1.675.084l-12.475 12.714a129 129 0 0 0 7.077 5.188l10.966-11.315a2.48 2.48 0 0 0 .688-1.85 2.47 2.47 0 0 0-.887-1.764z"/><path fill="#fff" d="M63.047 215.841q-.875-.72-1.675.084l-12.475 12.714a129 129 0 0 0 7.077 5.188l10.966-11.315a2.48 2.48 0 0 0 .688-1.85 2.47 2.47 0 0 0-.887-1.764z"/><path fill="#000" d="M59.617 194.583a3.3 3.3 0 0 0-1.11.747l-21.82 22.369a129 129 0 0 0 6.06 5.779q9.375-9.664 18.823-19.253c.472-.482.917-.913 1.324-1.307 2.685-2.601 3.739-3.622.398-7.463a3.22 3.22 0 0 0-2.359-1.111 3.3 3.3 0 0 0-1.316.239"/><path fill="#fff" d="M59.617 194.583a3.3 3.3 0 0 0-1.11.747l-21.82 22.369a129 129 0 0 0 6.06 5.779q9.375-9.664 18.823-19.253c.472-.482.917-.913 1.324-1.307 2.685-2.601 3.739-3.622.398-7.463a3.22 3.22 0 0 0-2.359-1.111 3.3 3.3 0 0 0-1.316.239"/><path fill="#000" d="M42.938 199.258a8.1 8.1 0 0 0-1.776-2.831q-1.266-1.443-2.987-1.705-.945-.155-1.608.539l-10.233 10.518a128 128 0 0 0 5.322 6.496l10.924-11.347q.718-.716.358-1.67"/><path fill="#fff" d="M42.938 199.258a8.1 8.1 0 0 0-1.776-2.831q-1.266-1.443-2.987-1.705-.945-.155-1.608.539l-10.233 10.518a128 128 0 0 0 5.322 6.496l10.924-11.347q.718-.716.358-1.67"/><defs><linearGradient id="paint0_linear_4193_3524" x1="206.75" x2="41.75" y1="54.25" y2="215.5" gradientUnits="userSpaceOnUse"><stop stop-color="#FF5823"/><stop offset="1" stop-color="#FFD493"/></linearGradient><linearGradient id="paint1_linear_4193_3524" x1="206.75" x2="41.75" y1="54.25" y2="215.5" gradientUnits="userSpaceOnUse"><stop stop-color="#FF5823"/><stop offset="1" stop-color="#FFD493"/></linearGradient></defs></svg>
