<svg width="256" height="256" viewBox="0 0 256 256" fill="none" xmlns="http://www.w3.org/2000/svg">
<path d="M128 256C198.692 256 256 198.692 256 128C256 57.3077 198.692 0 128 0C57.3077 0 0 57.3077 0 128C0 198.692 57.3077 256 128 256Z" fill="#075A5A"/>
<g style="mix-blend-mode:screen" opacity="0.3">
<path opacity="0.8" d="M127.975 29.3335V101.046L188.586 128.132L127.975 29.3335Z" fill="white"/>
<path d="M127.918 29.3335L67.2959 128.132L127.918 101.046V29.3335Z" fill="white"/>
<path opacity="0.8" d="M127.975 174.588V223.317L188.628 139.4L127.975 174.588Z" fill="white"/>
<path d="M127.918 223.317V174.581L67.2959 139.4L127.918 223.317Z" fill="white"/>
<path opacity="0.5" d="M127.975 163.352L188.586 128.156L127.975 101.088V163.352Z" fill="white"/>
<path d="M67.2959 128.156L127.918 163.352V101.088L67.2959 128.156Z" fill="white" fill-opacity="0.3"/>
</g>
<g style="mix-blend-mode:screen" opacity="0.3">
<path opacity="0.8" d="M127.974 32.9316V99.4003L184.153 124.505L127.974 32.9316Z" fill="white"/>
<path d="M127.929 32.9316L71.7402 124.505L127.929 99.4003V32.9316Z" fill="white"/>
<path opacity="0.8" d="M127.974 177.86V218.125L178.093 148.784L127.974 177.86Z" fill="white"/>
<path d="M127.972 218.125V177.854L77.8789 148.784L127.972 218.125Z" fill="white"/>
<path opacity="0.5" d="M127.974 161.02L184.153 128.399L127.974 103.311V161.02Z" fill="white"/>
<path d="M71.7402 128.399L127.929 161.02V103.311L71.7402 128.399Z" fill="white" fill-opacity="0.3"/>
</g>
<path d="M127.975 50.606V106.585L175.288 127.728L127.975 50.606Z" fill="#C1DCDC"/>
<path d="M127.952 50.606L80.6309 127.728L127.952 106.585V50.606Z" fill="white"/>
<path d="M127.975 164.011V202.048L175.321 136.542L127.975 164.011Z" fill="#C1DCDC"/>
<path d="M127.952 202.048V164.004L80.6309 136.542L127.952 202.048Z" fill="white"/>
<path opacity="0.5" d="M127.975 155.195L175.288 127.721L127.975 106.592V155.195Z" fill="white"/>
<path d="M80.6309 127.721L127.952 155.195V106.592L80.6309 127.721Z" fill="white" fill-opacity="0.3"/>
</svg>
