<svg xmlns="http://www.w3.org/2000/svg" fill="none" viewBox="0 0 512 512"><path fill="#075A5A" d="M256 512c141.385 0 256-114.615 256-256S397.385 0 256 0 0 114.615 0 256s114.615 256 256 256"/><g fill="#fff" opacity=".3" style="mix-blend-mode:screen"><path d="M255.949 58.667v143.425l121.223 54.172z" opacity=".8"/><path d="M255.836 58.667 134.592 256.264l121.244-54.172z"/><path d="M255.949 349.176v97.458L377.256 278.8z" opacity=".8"/><path d="M255.836 446.634v-97.473L134.592 278.8z"/><path d="m255.949 326.703 121.223-70.39-121.223-54.136z" opacity=".5"/><path fill-opacity=".3" d="m134.592 256.313 121.244 70.39V202.177z"/></g><g fill="#fff" opacity=".3" style="mix-blend-mode:screen"><path d="M255.948 65.864V198.8l112.358 50.209z" opacity=".8"/><path d="M255.86 65.864 143.482 249.01l112.378-50.209z"/><path d="M255.948 355.72v80.53l100.238-138.681z" opacity=".8"/><path d="M255.945 436.25v-80.541l-100.186-58.14z"/><path d="m255.948 322.041 112.358-65.242-112.358-50.177z" opacity=".5"/><path fill-opacity=".3" d="m143.482 256.799 112.378 65.242V206.622z"/></g><path fill="#C1DCDC" d="M255.949 101.212v111.957l94.626 42.287z"/><path fill="#fff" d="m255.905 101.212-94.642 154.244 94.642-42.287z"/><path fill="#C1DCDC" d="M255.949 328.021v76.075l94.693-131.011z"/><path fill="#fff" d="M255.905 404.096v-76.087l-94.642-54.924z"/><path fill="#fff" d="m255.949 310.389 94.626-54.947-94.626-42.258z" opacity=".5"/><path fill="#fff" fill-opacity=".3" d="m161.263 255.442 94.642 54.947v-97.205z"/></svg>