<svg xmlns="http://www.w3.org/2000/svg" fill="none" viewBox="0 0 256 256"><path fill="#075A5A" d="M128 256c70.692 0 128-57.308 128-128S198.692 0 128 0 0 57.308 0 128s57.308 128 128 128"/><g fill="#fff" opacity=".3" style="mix-blend-mode:screen"><path d="M127.975 29.334v71.712l60.611 27.086z" opacity=".8"/><path d="m127.918 29.334-60.622 98.798 60.622-27.086z"/><path d="M127.975 174.588v48.729l60.653-83.917z" opacity=".8"/><path d="M127.918 223.317v-48.736L67.296 139.4z"/><path d="m127.975 163.352 60.611-35.196-60.611-27.068z" opacity=".5"/><path fill-opacity=".3" d="m67.296 128.156 60.622 35.196v-62.264z"/></g><g fill="#fff" opacity=".3" style="mix-blend-mode:screen"><path d="M127.974 32.932V99.4l56.179 25.105z" opacity=".8"/><path d="M127.929 32.932 71.74 124.505 127.93 99.4z"/><path d="M127.974 177.86v40.265l50.119-69.341z" opacity=".8"/><path d="M127.972 218.125v-40.271l-50.093-29.07z"/><path d="m127.974 161.02 56.179-32.621-56.179-25.088z" opacity=".5"/><path fill-opacity=".3" d="m71.74 128.399 56.189 32.621v-57.709z"/></g><path fill="#C1DCDC" d="M127.975 50.606v55.979l47.313 21.143z"/><path fill="#fff" d="m127.952 50.606-47.321 77.122 47.321-21.143z"/><path fill="#C1DCDC" d="M127.975 164.011v38.037l47.346-65.506z"/><path fill="#fff" d="M127.952 202.048v-38.044l-47.321-27.462z"/><path fill="#fff" d="m127.975 155.195 47.313-27.474-47.313-21.129z" opacity=".5"/><path fill="#fff" fill-opacity=".3" d="m80.63 127.721 47.322 27.474v-48.603z"/></svg>