<svg xmlns="http://www.w3.org/2000/svg" fill="none" viewBox="0 0 256 256"><path fill="#000" d="M128.009 251.605c68.261 0 123.598-55.338 123.598-123.601 0-68.262-55.337-123.6-123.598-123.6-68.262 0-123.599 55.338-123.599 123.6 0 68.263 55.337 123.601 123.599 123.601"/><path fill="url(#paint0_linear_9890_1944)" d="M245.955 78.182c-6.448-15.242-15.68-28.934-27.429-40.689a129 129 0 0 0-6.937-6.452c-.265-.222-.531-.454-.796-.676a127.3 127.3 0 0 0-32.961-20.298C162.049 3.384 145.281 0 128 0c-17.273 0-34.04 3.384-49.823 10.059-15.243 6.451-28.936 15.67-40.686 27.425-11.757 11.756-20.98 25.447-27.429 40.69C3.382 93.963 0 110.722 0 128.003c0 17.282 3.383 34.041 10.062 49.823 6.449 15.242 15.68 28.933 27.43 40.688a126 126 0 0 0 7.004 6.504 127.2 127.2 0 0 0 33.681 20.922C93.96 252.616 110.727 256 128 256c17.281 0 34.04-3.384 49.823-10.059 15.243-6.443 28.936-15.67 40.686-27.426 11.757-11.755 20.98-25.446 27.429-40.688 6.671-15.782 10.062-32.55 10.062-49.823.009-17.281-3.374-34.04-10.045-49.822M128 249.111c-28.894 0-55.458-10.17-76.293-27.117l126.87-53.421-43.444-44.107-.017.017-.085-.086-86.964 94.513C22.84 196.693 6.894 164.178 6.894 128.004 6.894 61.226 61.22 6.897 128 6.897c28.542 0 54.807 9.93 75.531 26.5L91.561 80.359l43.47 44.031.017-.018.085.086 72.029-88.035c25.682 22.225 41.953 55.04 41.953 91.582 0 66.778-54.328 121.107-121.115 121.107"/><defs><linearGradient id="paint0_linear_9890_1944" x1="218.497" x2="37.423" y1="37.468" y2="218.45" gradientUnits="userSpaceOnUse"><stop stop-color="#3EF8F3"/><stop offset="1" stop-color="#07AEFE"/></linearGradient></defs></svg>