<svg xmlns="http://www.w3.org/2000/svg" fill="none" viewBox="0 0 512 512"><path fill="#fff" d="M0 256C0 114.615 114.615 0 256 0s256 114.615 256 256-114.615 256-256 256S0 397.385 0 256"/><path fill="#FF007A" fill-rule="evenodd" d="M269.144.332Q262.614 0 256 0C114.615 0 0 114.615 0 256c0 123.8 87.877 227.075 204.656 250.85v-64.754C122.988 419.614 63 344.812 63 256c0-99.71 75.612-181.76 172.626-191.937zM256 512c141.385 0 256-114.615 256-256 0-122.119-85.507-224.266-199.915-249.837v65.113C391.323 95.301 449 168.914 449 256c0 96.312-70.547 176.147-162.785 190.649l-34.766 65.311q2.271.04 4.551.04" clip-rule="evenodd"/><path fill="#FF007A" fill-rule="evenodd" d="M354.411 251.707Q386 272.187 386 309.49q0 33.28-23.875 54.126t-59.137 20.845h-8.233L227.58 510V384.461h-45.143c-31.832 0-54.843-23.357-59.437-54.857h36V163.461c0-19.33 15.67-35 35-35h30.66L292.115 2v126.461h3.527q34.16 0 57.668 20.48 23.507 20.115 23.507 52.663 0 31.086-22.406 50.103m-51.423 77.897q11.02 0 17.631-6.583 6.612-6.948 6.612-17.92 0-10.97-6.612-17.554-6.61-6.948-17.631-6.948H220.5v49.005zM220.5 183.461l75.142-.142q9.918 0 16.162 6.582 6.244 6.218 6.244 16.092t-6.244 16.457q-6.244 6.217-16.162 6.217H220.5z" clip-rule="evenodd"/></svg>
