<svg xmlns="http://www.w3.org/2000/svg" fill="none" viewBox="0 0 512 512"><path fill="#FF007A" d="M369.044 26.375C242.225-36.058 88.807 16.138 26.374 142.956 10.146 175.923 1.663 210.687.223 245.183a255 255 0 0 0 .028 21.914c3.274 73.931 38.598 144.578 98.926 191.236l28.594-58.082c-63.326-56.229-84.103-149.813-44.886-229.475C126.913 81.339 230.967 41.131 322.48 74.841l58.207-42.365a260 260 0 0 0-11.643-6.101"/><path fill="#FF007A" d="M249.385 80.899 143.151 258.385l115.54 61.776 110.393-70.564-41.671-58.729 72.236-146.735-.172-.116-55.754 40.12-60.782 44.054z"/><path fill="#FF007A" d="m263.049 432.219 106.28-149.169-109.021 78.685-115.422-70.73 38.881 46.466-65.96 133.985.045.028 56.377-40.709 53.996-40.174z"/><path fill="#fff" fill-rule="evenodd" d="m322.48 74.84 58.207-42.364a257 257 0 0 1 18.79 11.54l-55.754 40.12-60.782 44.055-33.556-47.292-106.234 177.486 115.54 61.776 110.393-70.564-41.671-58.729 72.236-146.735a255 255 0 0 1 16.98 12.535l-28.752 58.405c60.465 56.54 79.694 148.038 41.239 226.151-42.529 86.389-141.061 126.847-230.2 99.125l-60.024 43.231a258 258 0 0 1-21.04-12.096l56.377-40.709 53.996-40.174 34.824 41.618 106.28-149.169-109.021 78.685-115.422-70.73 38.881 46.466-65.96 133.985a255 255 0 0 1-18.63-13.123l28.593-58.082c-63.326-56.229-84.103-149.813-44.886-229.475C126.913 81.339 230.967 41.131 322.48 74.841" clip-rule="evenodd"/><path fill="#FF007A" d="M142.956 485.625c126.819 62.433 280.237 10.237 342.669-116.581 53.925-109.538 22.334-238.919-68.996-312.376l-28.752 58.405c60.465 56.54 79.694 148.038 41.239 226.151-42.529 86.389-141.061 126.847-230.2 99.125l-60.024 43.231a261 261 0 0 0 4.064 2.045"/></svg>
