<svg xmlns="http://www.w3.org/2000/svg" fill="none" viewBox="0 0 512 512"><path fill="#fff" d="M0 256C0 114.615 114.615 0 256 0s256 114.615 256 256-114.615 256-256 256S0 397.385 0 256"/><path fill="#FF007A" fill-rule="evenodd" d="M269.144.332Q262.614 0 256 0C114.615 0 0 114.615 0 256c0 123.8 87.877 227.075 204.656 250.85v-64.754C122.988 419.614 63 344.812 63 256c0-99.71 75.612-181.76 172.626-191.937zM256 512c141.385 0 256-114.615 256-256 0-122.119-85.507-224.266-199.915-249.837v65.113C391.323 95.301 449 168.914 449 256c0 96.312-70.547 176.147-162.785 190.649l-34.766 65.311q2.271.04 4.551.04" clip-rule="evenodd"/><path fill="#FF007A" d="M395 192H191.361a16.06 16.06 0 0 0-11.338 4.686A16 16 0 0 0 175.327 208c0 4.244 1.689 8.313 4.696 11.314S187.109 224 191.361 224h123.465C359.105 224 395 259.817 395 304c0 42.57-33.323 77.374-75.361 79.858a82 82 0 0 1-4.813.142H294.31l-67.138 126.5V384H180.14c-35.423 0-64.14-28.654-64.14-64h203.639c4.253 0 8.331-1.686 11.338-4.686A16 16 0 0 0 335.674 304c0-4.243-1.69-8.313-4.697-11.314A16.05 16.05 0 0 0 319.639 288H196.174C151.895 288 116 252.183 116 208s35.895-80 80.174-80h27.998l34.624-64.98L291.31 2v126h39.55c35.424 0 64.14 28.654 64.14 64"/></svg>
