<svg xmlns="http://www.w3.org/2000/svg" fill="none" viewBox="0 0 256 256"><path fill="#fff" d="M128 256c70.692 0 128-57.308 128-128S198.692 0 128 0 0 57.308 0 128s57.308 128 128 128"/><path fill="#7A44FF" d="M126.458 31h3.267c45.138.984 84.812 31.44 95.053 76.123.25 1.094-.196 1.679-1.351 1.685q-8.823.046-17.648.007c-.683-.002-.988-.061-1.187-.782-7.416-26.814-28.877-47.767-55.787-54.895-34.344-9.099-70.529 5.15-89.08 35.528-.165.27-.136.694.234.694h67.469c10.25 0 19.48 3.316 27.152 10.026 8.215 7.186 13.081 17.842 13.079 28.769v19.188q0 .068.027.13a.33.33 0 0 0 .317.2c.478-.019.994.046 1.44.046h55.376q.116 0 .148.11.069.222-.005.557c-9.993 45.082-49.612 76.267-95.449 77.114h-3.17c-20.619-.479-40.418-6.863-57.067-18.92-19.27-13.955-32.806-34.201-38.069-57.34-.237-1.044.344-1.523 1.336-1.521 5.124 0 13.047.028 18.169.028.259 0 .62.354.69.61 6.787 24.658 25.305 44.181 49.061 52.868 35.66 13.04 76.145-.843 95.887-33.501a.38.38 0 0 0 .007-.388.38.38 0 0 0-.335-.195h-68.298c-21.516 0-39.283-17.376-39.313-38.997q-.011-9.397-.002-18.793c0-.703-.909-.57-1.398-.57H31.509c-.397 0-.577-.146-.486-.56C40.917 63.005 80.713 31.916 126.458 31m-18.095 99.791c1.302 9.615 9.355 16.47 18.936 16.841 6.158.235 12.373.074 18.537.032.493-.004 2 .232 2-.61q-.006-8.735.002-17.476.001-2.462-.18-3.79a19.59 19.59 0 0 0-16.811-16.779q-1.259-.171-3.785-.188a1827 1827 0 0 0-17.361-.031c-.48.002-1.516-.045-1.516.703q-.006 8.757.002 17.509.002 2.495.176 3.789"/></svg>
