<svg xmlns="http://www.w3.org/2000/svg" fill="none" viewBox="0 0 257 257"><path fill="#133348" d="M64.024 238.872c61.22 35.345 139.503 14.369 174.849-46.851 35.346-61.222 14.371-139.506-46.849-174.852C130.801-18.176 52.516 2.801 17.169 64.023c-35.346 61.22-14.367 139.502 46.855 174.849"/><path fill="#fff" fill-rule="evenodd" d="M77.63 215.322c48.211 27.834 109.86 11.317 137.696-36.896 27.834-48.211 11.314-109.86-36.897-137.694-48.212-27.835-109.86-11.317-137.695 36.894C12.9 125.838 29.417 187.486 77.63 215.322m-5.6 9.7c53.568 30.928 122.065 12.574 152.993-40.995S237.598 61.96 184.03 31.032C130.461.104 61.963 18.459 31.036 72.027.106 125.596 18.46 194.094 72.029 225.022" clip-rule="evenodd"/><path fill="#fff" d="M179.654 113.661c1.682-14.312-8.28-23.304-23.573-28.972l5.757-20.282-12.152-3.296-5.783 20.187c-3.177-.875-6.37-1.918-9.659-2.736l5.73-20.099-12.156-3.296-5.756 20.281c-2.644-.646-24.523-6.636-24.523-6.636l-3.745 13.2s9.038 2.258 8.845 2.387c4.945 1.337 5.707 4.696 5.452 7.31l-15.735 55.607c-.67 1.496-2.288 3.762-5.724 2.859.123.19-8.826-2.416-8.826-2.416l-6.617 14.105s21.67 5.949 24.498 6.743l-5.817 20.525 12.155 3.297 5.89-20.646a398 398 0 0 0 9.686 2.753l-5.865 20.539 12.156 3.297 5.802-20.494c18.562 5.354 36.063 1.495 42.949-15.854 4.062-10.497-1.674-24.371-9.73-30.224 8.042-1.716 14.733-7.136 16.741-18.139m-29.459 39.286c-7.061 17.046-29.715 6.568-37.944 4.338L119.739 130c8.259 2.247 34.989 6.959 30.456 22.947m5.643-39.753c-5.893 15.361-25.292 6.362-32.125 4.498l6.784-24.771c6.844 1.913 28.354 4.608 25.341 20.273"/></svg>