<svg xmlns="http://www.w3.org/2000/svg" fill="none" viewBox="0 0 256 256"><path fill="#133348" d="M64.013 238.833c61.21 35.34 139.479 14.368 174.819-46.843 35.341-61.212 14.37-139.484-46.84-174.824C130.779-18.173 52.507 2.8 17.166 64.012S2.801 203.492 64.013 238.833"/><path fill="#fff" fill-rule="evenodd" d="M77.617 215.287c48.202 27.83 109.841 11.315 137.672-36.89 27.83-48.203 11.313-109.841-36.89-137.671C130.195 12.895 68.557 29.41 40.728 77.613c-27.831 48.205-11.316 109.843 36.889 137.674m-5.6 9.699c53.56 30.923 122.045 12.572 152.968-40.988S237.558 61.95 183.999 31.027C130.439.104 61.952 18.457 31.031 72.015.107 125.577 18.458 194.063 72.017 224.986" clip-rule="evenodd"/><path fill="#fff" d="M179.624 113.642c1.681-14.309-8.28-23.3-23.569-28.967l5.755-20.278-12.149-3.296-5.782 20.183c-3.176-.874-6.37-1.917-9.658-2.735l5.729-20.095-12.154-3.296-5.755 20.278c-2.643-.646-24.518-6.635-24.518-6.635L93.778 82s9.037 2.257 8.844 2.386c4.944 1.337 5.706 4.695 5.45 7.31L92.34 147.292c-.669 1.495-2.288 3.76-5.723 2.858.124.19-8.825-2.416-8.825-2.416l-6.615 14.103s21.666 5.948 24.494 6.742L89.854 189.1l12.154 3.297 5.889-20.643c3.303.99 6.538 1.896 9.685 2.753l-5.865 20.535 12.154 3.297 5.801-20.491c18.559 5.354 36.057 1.495 42.941-15.851 4.062-10.496-1.673-24.367-9.728-30.219 8.041-1.716 14.731-7.135 16.739-18.137m-29.454 39.28c-7.06 17.044-29.711 6.567-37.938 4.338l7.487-27.281c8.257 2.247 34.983 6.958 30.451 22.943m5.641-39.746c-5.891 15.358-25.287 6.361-32.119 4.497l6.783-24.767c6.843 1.913 28.349 4.608 25.336 20.27"/></svg>