<svg xmlns="http://www.w3.org/2000/svg" fill="none" viewBox="0 0 256 256"><path fill="url(#paint0_linear_10907_1107)" d="M128 256c70.692 0 128-57.308 128-128S198.692 0 128 0 0 57.308 0 128s57.308 128 128 128"/><path fill="#FFFCF5" d="M169.938 124.21c5.258-6.15 8.378-13.991 8.378-22.903 0-16.576-11.318-30.567-26.736-34.488V47.837h-17.822V65.66h-17.824V47.838H98.111V65.66H71.376v17.824H89.2v89.115H71.377v17.824h26.735v17.823h17.823v-17.823h17.824v17.823h17.822v-17.823c19.695 0 35.647-15.951 35.647-35.646 0-12.923-6.951-24.329-17.289-30.567m-62.915-40.726h35.646c9.803 0 17.823 8.02 17.823 17.823 0 9.802-8.02 17.823-17.823 17.823h-35.646zm44.557 89.115h-44.557v-35.646h44.557c9.803 0 17.824 8.021 17.824 17.824s-8.021 17.822-17.824 17.822"/><defs><linearGradient id="paint0_linear_10907_1107" x1="4.285" x2="265.669" y1="525.373" y2="522.472" gradientUnits="userSpaceOnUse"><stop stop-color="#7A8FD9"/><stop offset="1" stop-color="#AC62E4"/></linearGradient></defs></svg>
