<svg width="256" height="256" viewBox="0 0 256 256" fill="none" xmlns="http://www.w3.org/2000/svg">
<path d="M128 256C198.692 256 256 198.692 256 128C256 57.3076 198.692 0 128 0C57.3076 0 0 57.3076 0 128C0 198.692 57.3076 256 128 256Z" fill="url(#paint0_linear_10907_1089)"/>
<path d="M129.231 38.1831L128.009 42.2767V161.054L129.231 162.256L185.131 129.666L129.231 38.1831Z" fill="#CFD9FF"/>
<path d="M129.231 38.1831L73.3288 129.666L129.231 162.256V104.605V38.1831Z" fill="#FFFCF5"/>
<path d="M129.231 172.696L128.542 173.524V215.834L129.231 217.817L185.166 140.122L129.231 172.696Z" fill="#CFD9FF"/>
<path d="M129.231 217.817V172.696L73.3288 140.122L129.231 217.817Z" fill="#FFFCF5"/>
<path d="M129.231 162.256L185.131 129.666L129.231 104.605V162.256Z" fill="#9FB3FB"/>
<path d="M73.3288 129.666L129.231 162.256V104.605L73.3288 129.666Z" fill="#CFD9FF"/>
<defs>
<linearGradient id="paint0_linear_10907_1089" x1="4.28507" y1="525.373" x2="265.669" y2="522.472" gradientUnits="userSpaceOnUse">
<stop stop-color="#7A8FD9"/>
<stop offset="1" stop-color="#AC62E4"/>
</linearGradient>
</defs>
</svg>
