<svg xmlns="http://www.w3.org/2000/svg" fill="none" viewBox="0 0 256 256"><path fill="#FFC300" fill-rule="evenodd" d="M256 127.669c0 70.51-57.308 127.67-128 127.67S0 198.179 0 127.669 57.308 0 128 0s128 57.16 128 127.669" clip-rule="evenodd"/><path fill="url(#paint0_linear_10061_726)" d="M133.513 77.352c9.274 3.388 18.361 7.122 27.127 11.68 6.329 3.292 12.484 7.095 17.816 11.788 3.202 2.821 6.161 6.206 7.885 10.031 2.313 5.12 1.884 10.63-2.984 14.111a17 17 0 0 1-3.398 1.903q-4.577 1.902-10.31 2.585c-11.504 1.369-22.795 2.056-34.191 2.419q-.15.006-.16-.143c-1.136-15.192-6.225-30.007-12.485-43.925q-.88-1.956-1.025-3.228c-.398-3.536.763-6.874 4.547-7.787q1.777-.427 3.835-.248 1.47.13 3.343.814"/><path fill="#434343" d="M145.899 66.181c28.051 12.447 74.573 29.713 70.742 56.529-2.315 16.205-17.372 22.687-54.905 44.649-24.084 14.093-20.837 12.899-39.359 31.421 10.253-11.245 15.144-44.356 12.979-65.289a.176.176 0 0 1 .168-.184 505 505 0 0 0 23.408-1.3q6.274-.49 12.43-1.353c7.923-1.114 18.231-4.639 17.761-14.499-.334-6.987-5.639-13.077-10.868-17.422-5.727-4.762-12.584-8.848-19.35-12.225q-11.366-5.669-24.986-10.534-2.16-.77-3.658-.868c-1.97-.132-4.006-.033-5.804.819-3.666 1.732-4.769 5.835-3.942 9.703q.273 1.274 1.174 3.228 1.679 3.644 3.533 8.376c4.473 11.416 7.885 22.976 8.606 34.7q.362 5.868.345 12.071c-.026 10.75-1.926 28.008-5.339 38.498-4.464 13.718-9.469 22.275-20.984 27.947q-2.295 1.13-5.033 1.826-4.495 1.144-8.57 1.347-10.488.52-18.179-5.298c-7.02-5.312-11.388-13.757-14.164-22.368-3.351-10.397-4.876-21.637-5.41-32.622q-.825-17.034.901-33.961.302-2.956.605-5.551c1.641-14.007 5.926-28.08 12.996-40.351 3.232-5.61 7.095-10.752 11.874-14.958 12.225-10.763 34.979-4.777 63.029 7.67"/><path fill="url(#paint1_radial_10061_726)" d="M91.566 115.927c-6.281 2.537-9.934 11.827-11.438 17.891q-4.503 18.132.292 36.449a46 46 0 0 0 5.126 12.159c2.49 4.128 7.528 10.131 12.951 6.84 4.399-2.668 7.201-8.132 8.984-13.364 4.39-12.874 4.307-27.505.72-40.62q-1.945-7.095-5.353-12.572c-2.071-3.317-6.718-8.627-11.282-6.783"/><defs><linearGradient id="paint0_linear_10061_726" x1="150.16" x2="126.967" y1="92.941" y2="181.63" gradientUnits="userSpaceOnUse"><stop stop-color="#434343"/><stop offset="1" stop-color="#FFC300"/></linearGradient><radialGradient id="paint1_radial_10061_726" cx="0" cy="0" r="1" gradientTransform="rotate(83.516 -30.199 135.389)scale(47.6576 38.8634)" gradientUnits="userSpaceOnUse"><stop stop-color="#FFC300"/><stop offset="1" stop-color="#434343"/></radialGradient></defs></svg>