<svg xmlns="http://www.w3.org/2000/svg" fill="none" viewBox="0 0 256 256"><path fill="url(#paint0_linear_10907_1098)" d="M128 256c70.692 0 128-57.308 128-128S198.692 0 128 0 0 57.308 0 128s57.308 128 128 128"/><path fill="#FFFCF5" d="M127.903 78.377q-7.724-.096-14.481 2.51-6.661 2.51-10.909 6.951t-4.248 10.33q0 7.242 3.958 11.006t10.62 5.6q6.757 1.737 15.06 3.186 13.323 2.123 24.619 7.047 11.391 4.925 18.246 13.13 6.951 8.11 6.951 19.984 0 10.91-5.792 19.405-5.793 8.4-15.544 13.613-9.654 5.117-21.335 6.468v19.598h-14.192v-19.598q-9.752-.965-18.536-4.634-8.69-3.669-15.157-9.751-6.469-6.082-9.365-14.095l18.826-7.048q1.641 4.635 6.275 8.303 4.73 3.572 11.199 5.6 6.565 2.027 13.805 2.027 7.725 0 14.482-2.51 6.854-2.511 11.006-6.951 4.248-4.44 4.248-10.427 0-6.179-4.441-10.137-4.345-3.958-11.199-6.275-6.758-2.317-14.096-3.476-14.191-2.317-25.487-6.757-11.199-4.441-17.763-12.454-6.47-8.014-6.469-20.854 0-10.908 5.793-19.405 5.792-8.494 15.447-13.612 9.75-5.214 21.432-6.468V38.795h14.192v19.888a62.8 62.8 0 0 1 18.15 4.634q8.784 3.668 15.35 9.75 6.566 5.986 9.557 14.289l-19.018 6.854q-1.642-4.73-6.276-8.206-4.633-3.572-11.199-5.6-6.467-2.027-13.709-2.027"/><defs><linearGradient id="paint0_linear_10907_1098" x1="4.285" x2="265.669" y1="525.373" y2="522.472" gradientUnits="userSpaceOnUse"><stop stop-color="#7A8FD9"/><stop offset="1" stop-color="#AC62E4"/></linearGradient></defs></svg>
