<svg xmlns="http://www.w3.org/2000/svg" fill="none" viewBox="0 0 256 256"><path fill="#000" d="M128 256c70.692 0 128-57.308 128-128S198.692 0 128 0 0 57.308 0 128s57.308 128 128 128"/><path fill="#F7BB38" d="M70.244 51.214q31.095-.486 62.191-.632a83.42 83.42 0 0 1 61.433 23.134A77.62 77.62 0 0 1 217 125.293c0 23.386-7.205 44.75-24.017 61.564a83.43 83.43 0 0 1-61.559 21.996h-19.213l-16.686-.127-25.28-.252v-44.246h-19.72c0-13.496 0-17.277 3.6-20.879 2.408-2.409 6.663-3.645 11.063-3.645h5.056v-19.342h-5.056c-4.22 0-6.335-.443-9.607-2.528-5.74-3.657-5.056-13.273-5.056-22.375h19.72z"/><path fill="#000" d="m95 75.828 20.61-.254q3.54.015 7.081 0c20.61-.507 36.921 1.268 53.105 15.464a55.8 55.8 0 0 1 12.592 18.799 55.9 55.9 0 0 1 4.099 22.269 60.03 60.03 0 0 1-16.438 37.392 63.13 63.13 0 0 1-43.243 14.956H119.15q-12.075-.044-24.15-.126v-19.774h5.058q19.157-.057 38.312-.38h3.54c7.586-.254 12.38-1.052 18.207-5.704 6.394-5.104 7.587-12.295 9.863-18.506H95v-19.773h73.716c-1.024-7.266-3.95-12.198-9.85-17.197-6.651-5.635-11.527-6.76-21.255-6.76h-3.793a2629 2629 0 0 0-11.507-.253h-7.965L95 95.601z"/></svg>