<svg width="256" height="256" viewBox="0 0 256 256" fill="none" xmlns="http://www.w3.org/2000/svg">
<path d="M128 256C198.692 256 256 198.692 256 128C256 57.3075 198.692 0 128 0C57.3075 0 0 57.3075 0 128C0 198.692 57.3075 256 128 256Z" fill="black"/>
<path d="M70.2444 51.2136C90.9734 50.8901 111.704 50.6794 132.435 50.5816C143.707 50.0827 154.963 51.8757 165.522 55.852C176.082 59.8283 185.725 65.9053 193.868 73.7155C207.787 87.3889 216.046 105.804 217 125.293C217 148.679 209.795 170.043 192.983 186.857C184.731 194.479 175.026 200.356 164.448 204.136C153.87 207.915 142.637 209.52 131.424 208.853H112.211L95.5253 208.726L70.2444 208.474V164.228H50.5253C50.5253 150.732 50.5253 146.951 54.1253 143.349C56.5331 140.94 60.7875 139.704 65.1882 139.704H70.2444V120.362H65.1882C60.9676 120.362 58.8533 119.919 55.5815 117.834C49.8414 114.177 50.5253 104.561 50.5253 95.4588H70.2444V51.2136Z" fill="#F7BB38"/>
<path d="M95 75.8276L115.61 75.5741C117.97 75.5832 120.33 75.5832 122.691 75.5741C143.301 75.0671 159.612 76.8416 175.796 91.0379C181.232 96.3753 185.517 102.774 188.388 109.837C191.259 116.901 192.654 124.48 192.487 132.106C191.544 146.115 185.727 159.348 176.049 169.498C164.002 179.719 148.577 185.054 132.806 184.454H119.15C111.1 184.425 103.05 184.382 95 184.328V164.554H100.058C112.829 164.516 125.6 164.389 138.37 164.174H141.91C149.496 163.92 154.29 163.122 160.117 158.47C166.511 153.366 167.704 146.175 169.98 139.964H95V120.191H168.716C167.692 112.925 164.766 107.993 158.866 102.994C152.215 97.359 147.339 96.2347 137.611 96.2347H133.818C129.982 96.1418 126.147 96.0573 122.311 95.9812H114.346L95 95.601V75.8276Z" fill="black"/>
</svg>
