<svg xmlns="http://www.w3.org/2000/svg" fill="none" viewBox="0 0 512 512"><path fill="#000" d="M256 512c141.385 0 256-114.615 256-256S397.385 0 256 0 0 114.615 0 256s114.615 256 256 256"/><path fill="#F7BB38" d="M140.489 102.427a11435 11435 0 0 1 124.382-1.264 166.8 166.8 0 0 1 66.174 10.541 166.9 166.9 0 0 1 56.691 35.727A155.24 155.24 0 0 1 434 250.585c0 46.774-14.41 89.502-48.034 123.128a166.8 166.8 0 0 1-57.071 34.558 166.8 166.8 0 0 1-66.047 9.435h-38.427l-33.37-.253-50.562-.506v-88.49h-39.438c0-26.992 0-34.555 7.2-41.758 4.815-4.818 13.324-7.291 22.125-7.291h10.113v-38.683h-10.113c-8.441 0-12.669-.887-19.213-5.057-11.48-7.314-10.112-26.547-10.112-44.75h39.438z"/><path fill="#000" d="m190 151.655 41.22-.507q7.08.027 14.161 0c41.22-1.014 73.842 2.535 106.211 30.928a111.5 111.5 0 0 1 25.184 37.599 111.8 111.8 0 0 1 8.197 44.536 120.05 120.05 0 0 1-32.875 74.784 126.25 126.25 0 0 1-86.486 29.914h-27.311q-24.151-.09-48.301-.254v-39.547h10.115q38.315-.114 76.624-.76h7.081c15.173-.507 24.76-2.103 36.415-11.408 12.787-10.209 15.173-24.59 19.725-37.011H190v-39.547h147.431c-2.047-14.532-7.898-24.396-19.698-34.394-13.302-11.27-23.055-13.519-42.511-13.519h-7.587q-11.505-.278-23.012-.507h-15.932l-38.691-.76z"/></svg>