<svg xmlns="http://www.w3.org/2000/svg" fill="none" viewBox="0 0 256 256"><path fill="#FBBB54" d="M128 256c70.934 0 128-57.066 128-128S198.934 0 128 0 0 57.066 0 128s57.066 128 128 128"/><path fill="#141C54" fill-rule="evenodd" d="M141.828 50.484a975 975 0 0 0-2.149 5.603l-1.952 5.119-11.358.072c-12.615.08-13.883-.044-19.403-1.897-1.404-.471-2.588-.814-2.629-.761-.042.053-.899 2.275-1.906 4.938S89.924 96.54 76.874 130.932c-13.049 34.393-23.787 62.751-23.864 63.017-.132.457.812.484 17.048.484 16.258 0 17.177.026 16.993.484-1.847 4.591-6.719 17.792-6.606 17.904.083.083 4.08.15 8.882.15h8.731l.284-.622c.156-.342 1.752-4.483 3.546-9.2l3.263-8.578 7.061-.073c5.607-.059 7.034-.002 6.93.276l-3.373 8.947c-1.784 4.728-3.243 8.744-3.243 8.923 0 .487 17.419.468 17.735-.018.124-.191 1.743-4.331 3.598-9.2l3.373-8.855 3.032-.177c15.551-.91 30.627-7.468 42.025-18.282 10.558-10.017 17.323-22.704 19.904-37.329.767-4.349 1.047-12.671.577-17.15-1.615-15.374-8.293-29.592-18.948-40.342-1.384-1.396-2.516-2.617-2.516-2.714s2.381-6.481 5.291-14.189 5.29-14.1 5.29-14.205-4.021-.158-8.936-.118l-8.936.073-3.506 9.27c-1.928 5.098-3.527 9.302-3.552 9.342-.026.04-1.332-.538-2.902-1.285-1.57-.748-4.283-1.839-6.029-2.425s-3.174-1.191-3.174-1.345c0-.155 1.047-3.02 2.327-6.366s2.416-6.364 2.525-6.706l.198-.623h-8.938c-8.252 0-8.954.037-9.136.484m-21.935 27.669-5.025.082-18.755 49.452a259815 259815 0 0 0-18.883 49.799c-.1.271 1.633.346 8.09.346h8.216l.272-.761c.15-.419 8.621-22.763 18.824-49.653 10.203-26.891 18.551-49.023 18.551-49.182 0-.189-1.095-.268-3.133-.228-1.722.035-5.393.1-8.157.145m28.268 3.061c-.32.866-8.692 22.928-18.603 49.027l-18.021 47.452 6.941.074c3.817.041 6.997.018 7.067-.051.092-.092 30.091-78.938 34.827-91.538l.598-1.59-2.29-1.143c-2.459-1.23-6.135-2.693-8.483-3.38l-1.454-.424zm26.084 15.833c-1.408 3.381-30.264 79.776-30.197 79.945.133.335 4.83-.724 8.02-1.808 13.793-4.688 24.769-14.879 30.317-28.149 4.547-10.876 5.037-22.999 1.391-34.469-1.514-4.764-5.436-12.032-8.449-15.658l-.682-.82z" clip-rule="evenodd"/></svg>