<svg xmlns="http://www.w3.org/2000/svg" fill="none" viewBox="0 0 256 256"><path fill="#000" fill-rule="evenodd" d="M223.342 213.407C199.906 239.551 165.874 256 128 256c-30.265 0-58.077-10.504-79.99-28.065l25.506-21.848c11.317-9.694 28.317-8.56 38.243 2.552 18.199 20.375 49.193 22.907 70.464 5.758l2.219-1.789c11.617-9.367 27.988-8.678 38.9.799m14.433-19.541c-19.485-15.776-48.085-16.182-68.345.152l-2.22 1.79c-11.355 9.154-27.9 7.802-37.616-3.074-18.594-20.816-50.438-22.941-71.638-4.782l-27.192 23.293C14.122 191.824 3.197 167.359.6 140.459l3.443-2.849c11.338-10.63 29.104-10.242 39.966.872 18.68 19.114 48.759 21.132 69.829 4.684l16.648-12.996c11.899-9.288 28.718-8.838 40.102 1.072l32.414 28.217 15.704-18.009-32.414-28.217c-20.02-17.429-49.599-18.22-70.523-1.886l-16.65 12.996c-11.467 8.952-27.838 7.854-38.006-2.549C45.05 105.36 20.545 104.046.82 113.432 8.05 49.6 62.233 0 128 0c33.031 0 63.14 12.511 85.846 33.054-8.03 2.08-15.981 5.815-22.609 11.684l-2.135 1.89c-10.92 9.67-27.51 9.082-37.717-1.335-19.536-19.937-51.445-20.591-71.783-1.473L49.824 71.811l16.381 17.397 29.778-27.99c10.857-10.207 27.891-9.857 38.32.785 19.121 19.514 50.198 20.615 70.654 2.502l2.135-1.89c7.5-6.64 17.629-8.568 26.744-6.629C247.822 76.503 256 101.297 256 128c0 24.089-6.654 46.624-18.225 65.866" clip-rule="evenodd"/></svg>
