<svg xmlns="http://www.w3.org/2000/svg" fill="none" viewBox="0 0 512 512"><path fill="#000" d="M256 512c141.385 0 256-114.615 256-256S397.385 0 256 0 0 114.615 0 256s114.615 256 256 256"/><path fill="#fff" d="M256 512c141.385 0 256-114.615 256-256S397.385 0 256 0 0 114.615 0 256s114.615 256 256 256"/><path fill="#6697FF" fill-rule="evenodd" d="m256 70.004-.004.003.002-.007zv370.995l-.002.001-.004-.003L256 268.54zm164.997 273.828zL256 440.999V441l165-97.166z" clip-rule="evenodd"/><path fill="#6697FF" fill-rule="evenodd" d="M255.996 70.007 256 70v371l-.006-.003L256 268.54V70.004z" clip-rule="evenodd"/><path fill="#8DD783" d="M349.394 225 256 268.54l164.997 75.292z"/><path fill="#75BA70" d="M420.997 343.833zL256 268.54v172.459z"/><path fill="#629B58" d="M255.994 440.997 256 268.54 91 343.833z"/><path fill="#75BA70" d="M162.604 225 91 343.833l165-75.293z"/><path fill="#8DCD82" d="M162.604 225 256 268.54V70.004l-.004.003z"/><path fill="#9CE092" d="M256 268.54 349.394 225 256 70.004z"/></svg>