<svg xmlns="http://www.w3.org/2000/svg" fill="none" viewBox="0 0 256 256"><path fill="#000" d="M128 256c70.692 0 128-57.308 128-128S198.692 0 128 0 0 57.308 0 128s57.308 128 128 128"/><path fill="#fff" d="M128 256c70.692 0 128-57.308 128-128S198.692 0 128 0 0 57.308 0 128s57.308 128 128 128"/><path fill="#6697FF" fill-rule="evenodd" d="m128 35.002-.002.001.001-.003zv185.497l-.001.001-.002-.002.003-86.228zm82.498 136.914.001.001L128 220.499v.001l82.5-48.583z" clip-rule="evenodd"/><path fill="#6697FF" fill-rule="evenodd" d="M127.998 35.003 128 35v185.5l-.003-.002.003-86.228V35.002z" clip-rule="evenodd"/><path fill="#8DD783" d="M174.697 112.5 128 134.27l82.498 37.646z"/><path fill="#75BA70" d="m210.499 171.917-.001-.001L128 134.27v86.229z"/><path fill="#629B58" d="M127.997 220.498 128 134.27l-82.5 37.647z"/><path fill="#75BA70" d="M81.302 112.5 45.5 171.917 128 134.27z"/><path fill="#8DCD82" d="M81.302 112.5 128 134.27V35.002l-.002.001z"/><path fill="#9CE092" d="m128 134.27 46.697-21.77L128 35.002z"/></svg>