<svg width="256" height="256" viewBox="0 0 256 256" fill="none" xmlns="http://www.w3.org/2000/svg">
<path d="M128 256C198.692 256 256 198.692 256 128C256 57.3075 198.692 0 128 0C57.3075 0 0 57.3075 0 128C0 198.692 57.3075 256 128 256Z" fill="black"/>
<path d="M128 256C198.692 256 256 198.692 256 128C256 57.3075 198.692 0 128 0C57.3075 0 0 57.3075 0 128C0 198.692 57.3075 256 128 256Z" fill="white"/>
<path fill-rule="evenodd" clip-rule="evenodd" d="M128 35.0018L127.998 35.0034L127.999 35L128 35.0018V134.27V220.499L127.999 220.5L127.997 220.498L128 134.27V35.0018ZM210.498 171.916L210.499 171.917L128 220.499V220.5L210.5 171.917L210.498 171.916Z" fill="#6697FF"/>
<path fill-rule="evenodd" clip-rule="evenodd" d="M127.998 35.0034L128 35V35.0018V134.27V220.499V220.5L127.997 220.498L128 134.27V35.0018L127.998 35.0034Z" fill="#6697FF"/>
<path d="M174.697 112.5L128 134.27L210.498 171.916L174.697 112.5Z" fill="#8DD783"/>
<path d="M210.499 171.917L210.498 171.916L128 134.27V220.499L210.499 171.917Z" fill="#75BA70"/>
<path d="M127.997 220.498L128 134.27L45.5 171.917L127.997 220.498Z" fill="#629B58"/>
<path d="M81.3018 112.5L45.5 171.917L128 134.27L81.3018 112.5Z" fill="#75BA70"/>
<path d="M81.3018 112.5L128 134.27V35.0018L127.998 35.0034L81.3018 112.5Z" fill="#8DCD82"/>
<path d="M128 134.27L174.697 112.5L128 35.0018V134.27Z" fill="#9CE092"/>
</svg>
