<svg xmlns="http://www.w3.org/2000/svg" fill="none" viewBox="0 0 256 256"><path fill="#000" d="M128 256c70.692 0 128-57.308 128-128S198.692 0 128 0 0 57.308 0 128s57.308 128 128 128"/><path fill="#fff" d="M52.65 51.613c-5.78 6.063-10.547 11.164-10.595 11.26-.048.145 5.153 5.246 11.558 11.31 6.405 6.111 11.99 11.453 12.376 11.79l.722.674-1.3 2.165c-11.413 18.864-13.773 41.579-6.597 62.464 1.348 3.947 3.66 8.999 5.634 12.32.963 1.636 1.397 2.695 1.3 2.887s-5.923 6.353-12.954 13.716c-7.03 7.314-12.762 13.426-12.858 13.522-.048.145 19.648 19.153 21.526 20.693l.723.626 11.124-11.598c6.116-6.4 11.847-12.416 12.713-13.33l1.638-1.636 1.54.962c7.85 5.005 17.048 8.47 27.209 10.299 5.105.914 14.833 1.155 20.274.481 10.499-1.203 20.901-4.716 29.424-9.865l2.216-1.348 2.359 2.31c5.153 5.005 24.416 23.292 24.609 23.388.192.096 21.333-21.992 21.285-22.281-.048-.144-14.543-14.052-23.404-22.377l-2.938-2.792 1.348-2.213c11.317-18.817 13.677-41.627 6.357-62.657-1.059-3.08-4.286-10.01-6.164-13.186l-.915-1.588 12.376-12.945c6.791-7.074 12.329-12.994 12.28-13.138-.192-.481-21.863-20.934-22.152-20.934-.192 0-5.634 5.535-12.135 12.368-6.501 6.785-11.895 12.368-12.04 12.416-.096.048-.722-.24-1.3-.674-1.637-1.107-5.779-3.368-8.09-4.427-7.031-3.224-13.58-5.197-21.189-6.304-3.949-.578-15.796-.674-19.456-.145-8.764 1.252-15.94 3.417-23.26 7.075-2.118 1.01-4.574 2.357-5.538 2.935l-1.733 1.059-1.975-1.925c-1.06-1.059-5.875-5.582-10.642-10.154-4.768-4.524-9.632-9.144-10.787-10.299l-2.12-2.069zm80.855 31.376c7.657.914 14.495 3.513 20.804 7.94 3.226 2.262 8.042 7.075 10.306 10.299 12.857 18.191 10.401 42.926-5.779 58.085-13.821 12.897-33.807 15.785-50.613 7.219-12.136-6.208-20.708-17.566-23.453-31.184-.867-4.332-.867-12.416 0-16.699.819-4.235 1.927-7.267 3.997-11.502 8.283-16.65 26.246-26.372 44.738-24.158"/><path fill="#fff" d="M120.406 133.939q-7.417-1.581-11.418-6.326a16.3 16.3 0 0 1-1.904-2.887q-1.596-3.089-1.977-6.999-.12-1.229-.12-2.54 0-5.084 2.83-9.15 2.927-4.179 8.1-6.552 4.474-2.11 9.934-2.428a34 34 0 0 1 1.971-.057q2.747 0 5.27.419a26.4 26.4 0 0 1 6.538 1.953q5.368 2.259 8.491 5.874t3.415 7.569q.098 1.242-.781 2.146-.643.746-1.485.876-.18.028-.369.028h-11.613q-1.073 0-2.537-1.243a8.9 8.9 0 0 0-2.732-1.694q-1.464-.678-4.197-.678-2.342 0-3.806.791-1.463.79-1.463 2.372 0 1.355.487 2.033.216.249.537.453.55.35 1.415.564.366.084.859.183 1.482.297 4.118.721l6.051 1.129q8.49 1.582 12.686 6.778 4.294 5.084 4.294 12.2 0 5.083-3.025 9.376-2.928 4.18-8.588 6.665-3.696 1.651-8.295 2.205-2.325.28-4.879.28-1.207 0-2.362-.064-5.858-.327-10.422-2.308-5.369-2.486-8.295-6.213-2.83-3.727-3.123-7.569-.098-1.243.683-2.146.878-.904 1.952-.904h12.101q.683 0 1.073.339.488.226 1.074.904 1.17 1.242 2.634 2.033 1.464.678 4.685.678 3.024 0 5.074-.904 2.148-1.016 2.147-2.598 0-1.808-1.561-2.372-1.464-.678-6.441-1.582z"/><path fill="#000" fill-rule="evenodd" d="M108.988 127.613q4 4.745 11.418 6.326l7.026 1.355q4.977.904 6.441 1.582 1.561.564 1.561 2.372 0 1.582-2.147 2.598-2.05.904-5.074.904-3.22 0-4.685-.678a10.4 10.4 0 0 1-2.634-2.033q-.586-.678-1.074-.904-.39-.339-1.073-.339h-12.101q-1.074 0-1.952.904-.781.904-.683 2.146.292 3.841 3.123 7.569 2.926 3.728 8.295 6.213 4.565 1.981 10.422 2.308 1.156.064 2.362.064 2.554 0 4.879-.28 4.599-.554 8.295-2.205 5.66-2.486 8.588-6.665 3.025-4.293 3.025-9.376 0-7.116-4.294-12.2-4.196-5.196-12.686-6.778l-6.051-1.129q-2.636-.424-4.118-.721a32 32 0 0 1-.859-.183q-.864-.215-1.415-.564a2.4 2.4 0 0 1-.537-.453q-.487-.678-.487-2.033 0-1.581 1.463-2.372t3.806-.791q2.733 0 4.197.678a8.9 8.9 0 0 1 2.732 1.694q1.464 1.243 2.537 1.243h11.613q.189 0 .369-.028.842-.13 1.485-.876.879-.904.781-2.146-.293-3.954-3.415-7.569-3.123-3.615-8.491-5.874a26.4 26.4 0 0 0-6.538-1.953 32 32 0 0 0-5.27-.419q-1 0-1.971.057-5.46.318-9.934 2.428-5.173 2.373-8.1 6.552-2.83 4.066-2.83 9.15 0 1.311.12 2.54.381 3.91 1.977 6.999a16.3 16.3 0 0 0 1.904 2.887" clip-rule="evenodd"/><path fill="#fff" fill-rule="evenodd" d="M120.406 133.939q-7.417-1.581-11.418-6.326a16.3 16.3 0 0 1-1.904-2.887q-1.596-3.089-1.977-6.999-.12-1.229-.12-2.54 0-5.084 2.83-9.15 2.927-4.179 8.1-6.552 4.474-2.11 9.934-2.428a34 34 0 0 1 1.971-.057q2.747 0 5.27.419a26.4 26.4 0 0 1 6.538 1.953q5.368 2.259 8.491 5.874t3.415 7.569q.098 1.242-.781 2.146-.643.746-1.485.876-.18.028-.369.028h-11.613q-1.073 0-2.537-1.243a8.9 8.9 0 0 0-2.732-1.694q-1.464-.678-4.197-.678-2.342 0-3.806.791-1.463.79-1.463 2.372 0 1.355.487 2.033.216.249.537.453.55.35 1.415.564.366.084.859.183 1.482.297 4.118.721l6.051 1.129q8.49 1.582 12.686 6.778 4.294 5.084 4.294 12.2 0 5.083-3.025 9.376-2.928 4.18-8.588 6.665-3.696 1.651-8.295 2.205-2.325.28-4.879.28-1.207 0-2.362-.064-5.858-.327-10.422-2.308-5.369-2.486-8.295-6.213-2.83-3.727-3.123-7.569-.098-1.243.683-2.146.878-.904 1.952-.904h12.101q.683 0 1.073.339.488.226 1.074.904 1.17 1.242 2.634 2.033 1.464.678 4.685.678 3.024 0 5.074-.904 2.148-1.016 2.147-2.598 0-1.808-1.561-2.372-1.464-.678-6.441-1.582z" clip-rule="evenodd"/></svg>
