<svg xmlns="http://www.w3.org/2000/svg" fill="none" viewBox="0 0 256 256"><path fill="#fff" d="m183.593 145.215-52.511 31.681v41.959l21.607-30.31 22.553 22.451 15.983-15.911-25.264-25.149zm-58.16 31.681-52.511-31.681 17.632 24.721-25.264 25.149 15.983 15.911 22.554-22.442 21.606 30.292zm-4.248-57.216q-5.787-1.233-8.909-4.931a12.7 12.7 0 0 1-1.485-2.251q-1.245-2.406-1.543-5.455a21 21 0 0 1-.094-1.98q0-3.962 2.209-7.132 2.284-3.258 6.319-5.107 3.492-1.645 7.751-1.893.757-.044 1.538-.044 2.143 0 4.111.326 2.718.45 5.102 1.523 4.188 1.76 6.624 4.579 2.437 2.817 2.665 5.899a2.07 2.07 0 0 1-.609 1.673q-.502.58-1.159.683a2 2 0 0 1-.287.021h-9.061q-.838 0-1.98-.968a7 7 0 0 0-2.132-1.321q-1.141-.528-3.274-.528-1.827 0-2.969.616-1.143.616-1.142 1.849 0 1.057.38 1.585.168.194.419.353.43.272 1.104.44.286.066.67.142 1.157.232 3.213.562l2.436.454 2.285.426q6.625 1.233 9.898 5.284 3.35 3.962 3.35 9.509 0 3.963-2.36 7.308-2.284 3.258-6.7 5.195-2.883 1.287-6.473 1.719a32 32 0 0 1-3.806.218q-.942 0-1.843-.05-4.57-.254-8.132-1.799-4.187-1.936-6.471-4.842-2.209-2.906-2.437-5.9-.076-.969.533-1.673.685-.704 1.523-.704h9.441q.534 0 .838.264.381.176.837.704a8.1 8.1 0 0 0 2.056 1.585q1.142.529 3.655.529 2.36 0 3.959-.705 1.675-.792 1.675-2.025 0-1.409-1.218-1.849-1.142-.528-5.025-1.233z"/><path fill="#fff" fill-rule="evenodd" d="m184.19 128.405-53.108 32.039v-10.623c16.271-1.63 29.304-14.247 31.569-30.323zm-21.203-14.859 20.72 8.572-12.579-20.417 26.747-26.625-15.983-15.919-22.914 22.818-27.896-45.269V79.18c17.613 1.764 31.432 16.404 31.905 34.367M125.433 79.06V36.706L97.546 81.975 74.624 59.157 58.64 75.077l26.746 26.616-12.58 20.425L92 114.178c.167-18.766 14.894-34.054 33.432-35.119m-32.996 41.029-20.111 8.317 53.107 32.039v-10.503c-16.77-.963-30.42-13.566-32.996-29.853m38.645 56.808 52.511-31.681-17.632 24.721 25.264 25.149-15.983 15.911-22.553-22.451-21.607 30.31zm-58.16-31.681 52.511 31.681v41.95l-21.606-30.292-22.554 22.442-15.983-15.911 25.264-25.149z" clip-rule="evenodd"/><path fill="#000" fill-rule="evenodd" d="M112.276 114.749q3.122 3.698 8.909 4.931l5.482 1.056q3.883.705 5.025 1.233 1.218.44 1.218 1.849 0 1.233-1.675 2.025-1.6.705-3.959.705-2.513 0-3.655-.529a8.1 8.1 0 0 1-2.056-1.585q-.456-.528-.837-.704-.304-.264-.838-.264h-9.441q-.838 0-1.523.704-.61.704-.533 1.673.228 2.993 2.437 5.9 2.284 2.905 6.471 4.842 3.562 1.545 8.132 1.799.901.05 1.843.05 1.994 0 3.806-.218 3.59-.432 6.473-1.719 4.416-1.937 6.7-5.195 2.36-3.345 2.36-7.308 0-5.547-3.35-9.509-3.273-4.051-9.898-5.284l-2.285-.426-2.436-.454a88 88 0 0 1-3.213-.562q-.384-.076-.67-.142-.673-.168-1.104-.44a1.9 1.9 0 0 1-.419-.353q-.38-.528-.38-1.585 0-1.233 1.142-1.849t2.969-.616q2.133 0 3.274.528a7 7 0 0 1 2.132 1.321q1.142.969 1.98.968h9.061q.147 0 .287-.021.657-.102 1.159-.683.685-.705.609-1.673-.228-3.082-2.665-5.9-2.436-2.817-6.624-4.578a20.6 20.6 0 0 0-5.102-1.523 25 25 0 0 0-4.111-.326q-.781 0-1.538.044-4.26.248-7.751 1.893-4.035 1.85-6.319 5.107-2.21 3.17-2.209 7.132 0 1.021.094 1.98.298 3.049 1.543 5.455a12.7 12.7 0 0 0 1.485 2.251" clip-rule="evenodd"/><path fill="#fff" fill-rule="evenodd" d="m131.082 160.444 53.108-32.039-21.539-8.907c-2.265 16.076-15.298 28.693-31.569 30.323zm-5.649 0v-10.503c-16.77-.963-30.42-13.566-32.996-29.853l-20.111 8.317zm58.274-38.326-12.579-20.417 26.747-26.625-15.983-15.919-22.914 22.818-27.896-45.269V79.18c17.613 1.764 31.432 16.404 31.905 34.367zm-58.274-85.412L97.546 81.975 74.624 59.157 58.64 75.077l26.746 26.616-12.58 20.425L92 114.178c.167-18.766 14.894-34.054 33.432-35.119zm-4.248 82.974q-5.787-1.233-8.909-4.931a12.7 12.7 0 0 1-1.485-2.251q-1.245-2.406-1.543-5.455a21 21 0 0 1-.094-1.98q0-3.962 2.209-7.132 2.284-3.258 6.319-5.107 3.492-1.645 7.751-1.893.757-.044 1.538-.044 2.143 0 4.111.326 2.718.45 5.102 1.523 4.188 1.76 6.624 4.579 2.437 2.817 2.665 5.899a2.07 2.07 0 0 1-.609 1.673q-.502.58-1.159.683a2 2 0 0 1-.287.021h-9.061q-.838 0-1.98-.968a7 7 0 0 0-2.132-1.321q-1.141-.528-3.274-.528-1.827 0-2.969.616-1.143.616-1.142 1.849 0 1.057.38 1.585.168.194.419.353.43.272 1.104.44.286.066.67.142 1.157.232 3.213.562l2.436.454 2.285.426q6.625 1.233 9.898 5.284 3.35 3.962 3.35 9.509 0 3.963-2.36 7.308-2.284 3.258-6.7 5.195-2.883 1.287-6.473 1.719a32 32 0 0 1-3.806.218q-.942 0-1.843-.05-4.57-.254-8.132-1.799-4.187-1.936-6.471-4.842-2.209-2.906-2.437-5.9-.076-.969.533-1.673.685-.704 1.523-.704h9.441q.534 0 .838.264.381.176.837.704a8.1 8.1 0 0 0 2.056 1.585q1.142.529 3.655.529 2.36 0 3.959-.705 1.675-.792 1.675-2.025 0-1.409-1.218-1.849-1.142-.528-5.025-1.233z" clip-rule="evenodd"/><path fill="#000" fill-rule="evenodd" d="M256 128c0 70.692-57.308 128-128 128S0 198.692 0 128 57.308 0 128 0s128 57.308 128 128m-71.81.405-53.108 32.039v-10.623a35.6 35.6 0 0 1-5.649.12v10.503l-53.107-32.039 20.111-8.317c2.576 16.287 16.226 28.89 32.996 29.853a36 36 0 0 0 5.649-.12c16.271-1.63 29.304-14.247 31.569-30.323zm-13.062-26.704 12.579 20.417-20.72-8.572c-.473-17.963-14.292-32.603-31.905-34.368V36.707l27.896 45.269 22.914-22.818 15.983 15.92zM97.546 81.975l27.887-45.269V79.06c-18.538 1.065-33.265 16.353-33.432 35.119l-19.193 7.94 12.58-20.425L58.64 75.076l15.983-15.919zm33.536 94.921 52.511-31.681-17.632 24.721 25.264 25.149-15.983 15.911-22.553-22.451-21.607 30.31zm-58.16-31.681 52.511 31.681v41.95l-21.606-30.292-22.554 22.442-15.983-15.911 25.264-25.149zm39.354-30.466q3.122 3.698 8.909 4.931l5.482 1.056q3.883.705 5.025 1.233 1.218.44 1.218 1.849 0 1.233-1.675 2.025-1.6.705-3.959.705-2.513 0-3.655-.529a8.1 8.1 0 0 1-2.056-1.585q-.456-.528-.837-.704-.304-.264-.838-.264h-9.441q-.838 0-1.523.704-.61.704-.533 1.673.228 2.993 2.437 5.9 2.284 2.905 6.471 4.842 3.562 1.545 8.132 1.799.901.05 1.843.05 1.994 0 3.806-.218 3.59-.432 6.473-1.719 4.416-1.937 6.7-5.195 2.36-3.345 2.36-7.308 0-5.547-3.35-9.509-3.273-4.051-9.898-5.284l-2.285-.426-2.436-.454a88 88 0 0 1-3.213-.562q-.384-.076-.67-.142-.673-.168-1.104-.44a1.9 1.9 0 0 1-.419-.353q-.38-.528-.38-1.585 0-1.233 1.142-1.849t2.969-.616q2.133 0 3.274.528a7 7 0 0 1 2.132 1.321q1.142.969 1.98.968h9.061q.147 0 .287-.021.657-.102 1.159-.683.685-.705.609-1.673-.228-3.082-2.665-5.9-2.436-2.817-6.624-4.578a20.6 20.6 0 0 0-5.102-1.523 25 25 0 0 0-4.111-.326q-.781 0-1.538.044-4.26.248-7.751 1.893-4.035 1.85-6.319 5.107-2.21 3.17-2.209 7.132 0 1.021.094 1.98.298 3.049 1.543 5.455a12.7 12.7 0 0 0 1.485 2.251" clip-rule="evenodd"/></svg>
