<svg xmlns="http://www.w3.org/2000/svg" fill="none" viewBox="0 0 256 256"><path fill="#fff" d="M256 128C256 57.308 198.692 0 128 0S0 57.308 0 128s57.308 128 128 128 128-57.308 128-128"/><path fill="url(#paint0_radial_9885_1327)" d="M28.797 160.254a104.3 104.3 0 0 1-5.12-32.256l.778-.586 100.608.213 2.934.373z"/><path fill="url(#paint1_radial_9885_1327)" d="M160.25 227.2a104.3 104.3 0 0 1-48.554 3.829l-.779-1.173 16.757-100.523.342-1.333z"/><path fill="url(#paint2_radial_9885_1327)" d="M232.32 128a104.3 104.3 0 0 1-5.12 32.235h-2.24l-96.427-31.851L128 128z"/><path fill="url(#paint3_radial_9885_1327)" d="M43.605 66.688A104 104 0 0 1 54.229 54.24l.874.266 72.395 72.672.49.822z"/><path fill="url(#paint4_radial_9885_1327)" d="M54.25 54.239a104.32 104.32 0 0 1 57.429-29.28l.47.768 15.85 100.586v1.685z"/><path fill="url(#paint5_radial_9885_1327)" d="M111.677 24.973a104.3 104.3 0 0 1 48.554 3.819l-32.234 99.21z"/><path fill="url(#paint6_radial_9885_1327)" d="M23.677 128a104.3 104.3 0 0 1 5.12-32.234l99.2 32.234z"/><path fill="url(#paint7_radial_9885_1327)" d="M189.312 43.604a104.3 104.3 0 0 1 37.888 52.16L128 127.999z"/><path fill="url(#paint8_radial_9885_1327)" d="M66.687 212.384a104.3 104.3 0 0 1-23.082-23.072L127.999 128z"/><path fill="url(#paint9_radial_9885_1327)" d="M111.675 231.029a104 104 0 0 1-15.914-3.829l32.234-99.2z"/><path fill="url(#paint10_radial_9885_1327)" d="M227.2 160.235a104.3 104.3 0 0 1-37.888 52.16L128 128z"/><defs><radialGradient id="paint0_radial_9885_1327" cx="0" cy="0" r="1" gradientTransform="rotate(180 63.998 63.999)scale(138.987)" gradientUnits="userSpaceOnUse"><stop stop-color="#6D28FF"/><stop offset="1" stop-color="#F7A7F9"/></radialGradient><radialGradient id="paint1_radial_9885_1327" cx="0" cy="0" r="1" gradientTransform="rotate(90 .002 128.003)scale(106.773)" gradientUnits="userSpaceOnUse"><stop stop-color="#FFCD6B"/><stop offset="1" stop-color="#EB5EDF"/></radialGradient><radialGradient id="paint2_radial_9885_1327" cx="0" cy="0" r="1" gradientTransform="rotate(-90 128 0)scale(106.667)" gradientUnits="userSpaceOnUse"><stop stop-color="#A273FF"/><stop offset=".5" stop-color="#9FAEFF"/><stop offset="1" stop-color="#AAF2E1"/></radialGradient><radialGradient id="paint3_radial_9885_1327" cx="0" cy="0" r="1" gradientTransform="rotate(114 22.57 105.43)scale(114.347)" gradientUnits="userSpaceOnUse"><stop stop-color="#FFD2B9"/><stop offset=".29" stop-color="#C99BED"/><stop offset="1" stop-color="#0075FF"/></radialGradient><radialGradient id="paint4_radial_9885_1327" cx="0" cy="0" r="1" gradientTransform="rotate(-99.011 118.65 9.35)scale(106.92)" gradientUnits="userSpaceOnUse"><stop stop-color="#F7A7F9"/><stop offset="1" stop-color="#00DDFB"/></radialGradient><radialGradient id="paint5_radial_9885_1327" cx="0" cy="0" r="1" gradientTransform="rotate(-90 128 .002)scale(106.667)" gradientUnits="userSpaceOnUse"><stop stop-color="#A273FF"/><stop offset=".5" stop-color="#9FAEFF"/><stop offset="1" stop-color="#AAF2E1"/></radialGradient><radialGradient id="paint6_radial_9885_1327" cx="0" cy="0" r="1" gradientTransform="rotate(180 63.998 64)scale(106.88)" gradientUnits="userSpaceOnUse"><stop stop-color="#FFF3D0"/><stop offset="1" stop-color="#FFC044"/></radialGradient><radialGradient id="paint7_radial_9885_1327" cx="0" cy="0" r="1" gradientTransform="rotate(90 0 128)scale(106.773)" gradientUnits="userSpaceOnUse"><stop stop-color="#FFCD6B"/><stop offset="1" stop-color="#EB5EDF"/></radialGradient><radialGradient id="paint8_radial_9885_1327" cx="0" cy="0" r="1" gradientTransform="rotate(114 22.581 105.43)scale(114.347)" gradientUnits="userSpaceOnUse"><stop stop-color="#FFD2B9"/><stop offset=".29" stop-color="#C99BED"/><stop offset="1" stop-color="#0075FF"/></radialGradient><radialGradient id="paint9_radial_9885_1327" cx="0" cy="0" r="1" gradientTransform="rotate(90 -.003 127.998)scale(106.987)" gradientUnits="userSpaceOnUse"><stop stop-color="#D5FAFF"/><stop offset="1" stop-color="#00DDFB"/></radialGradient><radialGradient id="paint10_radial_9885_1327" cx="0" cy="0" r="1" gradientTransform="rotate(35.985 -133.059 261.059)scale(106.381)" gradientUnits="userSpaceOnUse"><stop stop-color="#0075FF"/><stop offset="1" stop-color="#00DDFB"/></radialGradient></defs></svg>
