<svg xmlns="http://www.w3.org/2000/svg" fill="none" viewBox="0 0 256 256"><path fill="#14044D" d="M128 256c70.692 0 128-57.308 128-128S198.692 0 128 0 0 57.308 0 128s57.308 128 128 128"/><path fill="#00D1FF" d="M82.5 95.05c-1.104-1.371-2.78-2.133-4.569-2.133h-36.89c-.305 0-.572-.114-.8-.305a.95.95 0 0 1-.305-.686v-24.88c0-.267.114-.495.305-.686.228-.228.495-.343.8-.305h38.984c9.823 0 18.313 4.04 25.47 12.079l9.48 11.582-18.465 22.518zm68.148-17.03c7.119-7.964 15.647-11.965 25.584-11.965h38.871c.266-.038.533.077.723.229.19.19.267.457.228.762v24.88q0 .4-.228.686c-.19.229-.457.343-.723.305h-36.892c-1.751-.038-3.426.762-4.568 2.134l-27.183 33.11 27.297 33.339c1.104 1.257 2.741 2.019 4.416 1.981h36.892c.266-.038.571.114.723.305.152.228.267.533.228.8v24.88q0 .4-.228.686c-.19.229-.457.343-.723.305h-38.833c-9.937 0-18.389-4.039-25.47-12.078l-22.614-27.624-22.615 27.624c-7.12 8.039-15.647 12.078-25.584 12.078H41.04c-.266.038-.571-.115-.723-.305a1.05 1.05 0 0 1-.229-.8v-24.88q0-.4.229-.686c.19-.229.457-.343.723-.305h36.891c1.752 0 3.427-.8 4.569-2.134z"/></svg>