<svg xmlns="http://www.w3.org/2000/svg" fill="none" viewBox="0 0 256 256"><path fill="#000" fill-rule="evenodd" d="M256 128c0 70.692-57.308 128-128 128S0 198.692 0 128 57.308 0 128 0s128 57.308 128 128M80.013 157.874a4.97 4.97 0 0 0-3.514 1.45l-23.95 23.937c-1.567 1.566-.46 4.238 1.756 4.238h121.243a4.97 4.97 0 0 0 3.514-1.451l23.951-23.937c1.566-1.565.458-4.237-1.757-4.237zm99.049-43.522a4.97 4.97 0 0 0-3.514-1.451H54.305c-2.215 0-3.323 2.672-1.757 4.238l23.95 23.937a4.97 4.97 0 0 0 3.515 1.45h121.243c2.215 0 3.323-2.672 1.757-4.237zM80.013 68.501c-1.299 0-2.56.534-3.514 1.45L52.549 93.89c-1.567 1.565-.46 4.237 1.756 4.237h121.243a4.97 4.97 0 0 0 3.514-1.45l23.951-23.937c1.566-1.566.458-4.238-1.757-4.238z" clip-rule="evenodd"/></svg>
