<svg xmlns="http://www.w3.org/2000/svg" fill="none" viewBox="0 0 512 512"><path fill="url(#paint0_linear_9439_808)" d="M504.336 317.929c-34.195 137.142-173.113 220.606-310.288 186.403C56.93 470.145-26.543 331.231 7.668 194.098 41.848 56.94 180.767-26.531 317.902 7.661c137.165 34.191 220.633 173.118 186.434 310.268"/><path fill="#fff" fill-rule="evenodd" d="M299.122 117.636c2.289-8.536 11.064-13.602 19.599-11.315 8.538 2.287 13.603 11.062 11.316 19.599l-6.778 25.296 4.204 1.127c30.266 8.11 48.226 39.22 40.118 69.487l-.378 1.404c-6.321 23.599-26.996 39.521-50.117 40.891l-.003.02-.369.002h-.027l-.113.006c-1.685.138-1.998 2.561-.321 3.083l-.002.009c29.129 11.535 45.623 43.332 37.318 74.328-8.943 33.371-43.244 53.172-76.613 44.233l-9.824-2.633-6.777 25.289c-2.287 8.538-11.062 13.601-19.599 11.318-8.537-2.288-13.602-11.065-11.315-19.6l6.776-25.292-28.106-7.529-6.776 25.289c-2.287 8.536-11.062 13.6-19.599 11.313s-13.602-11.06-11.315-19.598l6.776-25.289-43.565-11.674c-9.313-2.496-14.839-12.067-12.344-21.379 2.496-9.315 12.067-14.839 21.381-12.346l15.451 4.143 43.677-163.005-14.037-3.761c-9.313-2.495-14.839-12.068-12.344-21.38 2.495-9.313 12.068-14.84 21.381-12.345l36.528 9.792 6.778-25.296c2.287-8.537 11.062-13.603 19.599-11.315 8.536 2.287 13.603 11.061 11.316 19.598l-6.779 25.296 28.105 7.531zm-75.894 108.019c-2.941-10.973 3.571-22.253 14.544-25.193l57.56-15.423c10.972-2.94 22.251 3.572 25.192 14.545 2.941 10.974-3.572 22.253-14.545 25.193L248.421 240.2c-10.974 2.94-22.253-3.572-25.193-14.545m-26.322 93.076c-2.94-10.973 3.572-22.251 14.545-25.193l57.559-15.423c10.973-2.94 22.252 3.573 25.193 14.545 2.941 10.973-3.572 22.252-14.545 25.192l-57.559 15.425c-10.973 2.94-22.253-3.573-25.193-14.546" clip-rule="evenodd"/><defs><linearGradient id="paint0_linear_9439_808" x1="256" x2="256" y1="0" y2="511.999" gradientUnits="userSpaceOnUse"><stop stop-color="#FEDF70"/><stop offset="1" stop-color="#D88528"/></linearGradient></defs></svg>