<svg xmlns="http://www.w3.org/2000/svg" fill="none" viewBox="0 0 256 256"><path fill="url(#paint0_linear_9890_1705)" d="M252.163 158.962c-17.095 68.572-86.555 110.307-155.14 93.205C28.464 235.072-13.27 165.618 3.832 97.053 20.92 28.474 90.38-13.26 158.945 3.827 227.53 20.93 269.265 90.39 252.17 158.962z"/><path fill="#fff" fill-rule="evenodd" d="M154.299 53.953a8.55 8.55 0 0 1 3.977-5.266 8.57 8.57 0 0 1 6.546-.878 8.57 8.57 0 0 1 5.227 4.032 8.55 8.55 0 0 1 .803 6.546l-3.626 13.532 2.255.601a30.4 30.4 0 0 1 18.447 14.142 30.3 30.3 0 0 1 3.035 23.024l-.198.745a29.58 29.58 0 0 1-9.887 15.261 29.65 29.65 0 0 1-16.958 6.608v.015h-.274c-.907.076-1.074 1.369-.176 1.651a33.5 33.5 0 0 1 17.989 16.957 33.42 33.42 0 0 1 1.435 24.661 33.47 33.47 0 0 1-15.901 18.924 33.55 33.55 0 0 1-24.57 2.873l-5.257-1.407-3.633 13.524a8.55 8.55 0 0 1-3.963 5.314 8.58 8.58 0 0 1-11.818-3.161 8.56 8.56 0 0 1-.772-6.58l3.626-13.524-15.053-4.032-3.634 13.525a8.54 8.54 0 0 1-3.962 5.313 8.57 8.57 0 0 1-6.574.897 8.56 8.56 0 0 1-6.294-7.27 8.5 8.5 0 0 1 .277-3.367l3.626-13.525-23.34-6.245a9.35 9.35 0 0 1-5.472-4.4 9.33 9.33 0 0 1-.861-6.962 9.34 9.34 0 0 1 4.235-5.597 9.37 9.37 0 0 1 6.942-1.076L79 161l23.172-87.164-7.519-2.008a9.35 9.35 0 0 1-5.676-4.352 9.325 9.325 0 0 1 3.426-12.752 9.36 9.36 0 0 1 7.095-.931l19.555 5.233 3.633-13.524a8.55 8.55 0 0 1 3.963-5.314 8.57 8.57 0 0 1 6.573-.897 8.58 8.58 0 0 1 5.245 4.058 8.55 8.55 0 0 1 .772 6.58l-3.626 13.532 15.053 4.031zm-40.939 53.493a11 11 0 0 0 .283 4.286 11.03 11.03 0 0 0 13.499 7.774l30.836-8.246a11.02 11.02 0 0 0 6.688-5.129 11 11 0 0 0 1.097-8.35 11 11 0 0 0-5.137-6.678 11.03 11.03 0 0 0-8.361-1.096l-30.829 8.246a11.01 11.01 0 0 0-8.076 9.193m-12.711 45.717a10.99 10.99 0 0 0 .801 12.196 11 11 0 0 0 7.302 4.211 11 11 0 0 0 4.289-.28l30.837-8.253a11 11 0 0 0 6.688-5.129 11 11 0 0 0 1.097-8.35 11 11 0 0 0-5.137-6.678 11.03 11.03 0 0 0-8.362-1.095l-30.828 8.253a11 11 0 0 0-6.687 5.125" clip-rule="evenodd"/><defs><linearGradient id="paint0_linear_9890_1705" x1="89.499" x2="147" y1="9.5" y2="246" gradientUnits="userSpaceOnUse"><stop stop-color="#FFE07C"/><stop offset="1" stop-color="#DB8931"/></linearGradient></defs></svg>