<svg xmlns="http://www.w3.org/2000/svg" fill="none" viewBox="0 0 256 256"><path fill="url(#paint0_linear_9890_1705)" d="M252.166 158.962c-17.095 68.572-86.556 110.307-155.142 93.205C28.466 235.072-13.27 165.618 3.833 97.053 20.92 28.474 90.382-13.26 158.947 3.827c68.586 17.102 110.321 86.563 93.226 155.135z"/><path fill="#fff" fill-rule="evenodd" d="M154.3 53.953a8.6 8.6 0 0 1 1.46-3.031 8.58 8.58 0 0 1 5.702-3.33 8.6 8.6 0 0 1 6.38 1.71 8.57 8.57 0 0 1 3.267 5.732 8.6 8.6 0 0 1-.255 3.353l-3.626 13.532 2.255.601a30.4 30.4 0 0 1 18.447 14.142 30.3 30.3 0 0 1 3.035 23.024l-.198.745a29.57 29.57 0 0 1-9.888 15.261 29.65 29.65 0 0 1-16.957 6.608v.015h-.275c-.906.076-1.074 1.369-.175 1.651a33.5 33.5 0 0 1 17.989 16.957 33.42 33.42 0 0 1 1.435 24.661 33.47 33.47 0 0 1-15.901 18.924 33.55 33.55 0 0 1-24.571 2.873l-5.256-1.407-3.634 13.524a8.56 8.56 0 0 1-7.159 6.423 8.6 8.6 0 0 1-6.409-1.714 8.55 8.55 0 0 1-2.985-9.136l3.626-13.524-15.053-4.032-3.634 13.525a8.54 8.54 0 0 1-3.962 5.313 8.57 8.57 0 0 1-6.574.897 8.56 8.56 0 0 1-6.294-7.27 8.5 8.5 0 0 1 .277-3.367l3.626-13.525-23.34-6.245a9.35 9.35 0 0 1-5.473-4.4 9.33 9.33 0 0 1 3.374-12.559 9.37 9.37 0 0 1 6.943-1.076L79 161l23.172-87.164-7.519-2.008a9.35 9.35 0 0 1-5.676-4.352 9.32 9.32 0 0 1-.932-7.084 9.34 9.34 0 0 1 4.358-5.668 9.36 9.36 0 0 1 7.095-.931l19.555 5.233 3.634-13.524a8.55 8.55 0 0 1 3.962-5.314 8.58 8.58 0 0 1 11.819 3.16 8.54 8.54 0 0 1 .772 6.58l-3.626 13.533 15.053 4.031zm-40.939 53.493a10.99 10.99 0 0 0 5.424 10.962 11.03 11.03 0 0 0 8.358 1.098l30.837-8.246a11.02 11.02 0 0 0 6.688-5.129 11 11 0 0 0 1.097-8.35 11 11 0 0 0-5.137-6.678 11.03 11.03 0 0 0-8.362-1.096l-30.829 8.246a11.03 11.03 0 0 0-6.694 5.126 11 11 0 0 0-1.382 4.067m-12.711 45.717a10.99 10.99 0 0 0 .801 12.196 11.03 11.03 0 0 0 11.591 3.931l30.837-8.253a11 11 0 0 0 6.689-5.129 10.993 10.993 0 0 0-4.04-15.028 11.03 11.03 0 0 0-8.362-1.095l-30.829 8.253a11 11 0 0 0-6.687 5.125" clip-rule="evenodd"/><defs><linearGradient id="paint0_linear_9890_1705" x1="89.5" x2="147" y1="9.5" y2="246" gradientUnits="userSpaceOnUse"><stop stop-color="#FFE07C"/><stop offset="1" stop-color="#DB8931"/></linearGradient></defs></svg>