<svg xmlns="http://www.w3.org/2000/svg" fill="none" viewBox="0 0 256 256"><path fill="#FD684E" d="M128 256c29.586 0 56.828-10.038 78.506-26.894a129 129 0 0 0 23.067-23.205C246.147 184.323 256 157.312 256 128 256 57.308 198.692 0 128 0S0 57.308 0 128c0 29.389 9.904 56.464 26.558 78.071a128.7 128.7 0 0 0 22.413 22.626C70.733 245.8 98.175 256 128 256"/><path fill="#fff" d="m129.014 56.52-1.418-.02a6.875 6.875 0 0 0-6.969 6.78l-.129 9.26a6.875 6.875 0 0 0 6.777 6.973l1.418.02a6.875 6.875 0 0 0 6.968-6.78l.13-9.26a6.875 6.875 0 0 0-6.777-6.973m-57.23 14.993-.742.448a6.997 6.997 0 0 0-2.375 9.602l4.496 7.458a6.99 6.99 0 0 0 9.598 2.376l.742-.448a6.997 6.997 0 0 0 2.376-9.602l-4.497-7.458a6.99 6.99 0 0 0-9.598-2.376m99.977 5.821c-3.451 5.503-3.238 11.854.475 14.185 3.714 2.33 9.521-.242 12.972-5.746 3.451-5.503 3.238-11.854-.476-14.184s-9.521.241-12.971 5.745M132.3 95.228c24.343 1.34 53.609 17.951 63.063 41.892q.847 2.147-1.458 2.147-52.92.138-103.713.04c-4.805 0-14.022-9.478-19.911-16.197a1.13 1.13 0 0 1-.28-.744c0-.272.1-.533.28-.734 16.11-17.694 37.991-27.744 62.019-26.404m87.112 30.004c5.623-3.004 8.549-8.497 6.535-12.27s-8.203-4.396-13.826-1.392-8.549 8.497-6.535 12.269 8.204 4.396 13.826 1.393m-183.101-.108c5.581 3.057 11.753 2.525 13.785-1.188s-.845-9.202-6.427-12.259-11.753-2.525-13.785 1.188.846 9.202 6.427 12.259"/><path fill="#fff" d="M83.181 150.676h116.81a1.75 1.75 0 0 1 1.753 1.596l1.201 13.557q.099 1.103-1.004 1.103H53.698q-1.143 0-1.064-1.143.946-15.645 7.366-29.97a3.29 3.29 0 0 1 2.373-1.884 3.33 3.33 0 0 1 2.925.84l15.973 15.152q.807.75 1.91.749m-50.849 11.48-10.396-.218a6.284 6.284 0 0 0-6.413 6.153l-.022 1.024a6.284 6.284 0 0 0 6.15 6.416l10.397.218a6.284 6.284 0 0 0 6.413-6.153l.021-1.024a6.284 6.284 0 0 0-6.15-6.416m202.621-.14-11.383.059a5.83 5.83 0 0 0-5.799 5.863l.01 1.892a5.83 5.83 0 0 0 5.86 5.802l11.383-.06a5.83 5.83 0 0 0 5.799-5.863l-.01-1.891a5.83 5.83 0 0 0-5.86-5.802M53.324 178.203l148.499.039a1.046 1.046 0 0 1 1.044 1.025q.294 18.168-9.257 33.438-.67 1.064-1.438.079a79.2 79.2 0 0 0-18.67-17.162 3.64 3.64 0 0 0-2.049-.611H56.16q-1.162 0-1.379-1.163l-2.6-14.266q-.256-1.379 1.143-1.379"/><path fill="#fff" fill-rule="evenodd" d="m206.506 229.106-157.535-.409C70.733 245.8 98.175 256 128 256c29.586 0 56.828-10.038 78.506-26.894m1.056-12.419c2.641.139 7.36.386 12.435.311a129 129 0 0 0 9.576-11.097l-18.73-.092c-.3 0-.592.086-.84.247-.249.161-.443.39-.558.659l-4.058 9.084q-.335.768.493.808c.376.012.949.042 1.682.08m-30.161-1.499-7.976-7.961a2.65 2.65 0 0 0-1.871-.768l-140.996-.388a129 129 0 0 0 8.913 10.373q70.56.299 141.3.261a.884.884 0 0 0 .876-1.062.9.9 0 0 0-.246-.455" clip-rule="evenodd"/></svg>