<svg xmlns="http://www.w3.org/2000/svg" fill="none" viewBox="0 0 256 256"><path fill="#0C1013" d="M128.002 256C198.693 256 256 198.693 256 128.002 256 57.309 198.693 0 128.002 0 57.309.002 0 57.31 0 128.004 0 198.695 57.309 256 128.002 256"/><path fill="#FC6521" fill-rule="evenodd" d="M128.01 228.802c55.669 0 100.8-45.129 100.8-100.8 0-55.669-45.131-100.798-100.8-100.798-55.671 0-100.8 45.129-100.8 100.798 0 55.671 45.129 100.8 100.8 100.8m0 11.201c61.856 0 111.999-50.143 111.999-111.999S189.866 16.003 128.01 16.003s-112 50.145-112 111.999c0 61.858 50.144 112.001 112 112.001" clip-rule="evenodd"/><path fill="#fff" d="M165.535 89.749c-5.699-13.235-18.823-16.041-34.901-13.304l-5.155-20.442-12.172 3.22 5.085 20.374c-3.188.831-6.476 1.525-9.733 2.461l-5.087-20.27-12.175 3.222 5.155 20.443c-2.612.762-24.555 6.514-24.555 6.514l3.357 13.304s8.956-2.564 8.853-2.356c4.952-1.314 7.29 1.213 8.377 3.605l14.177 56.025c.167 1.63-.101 4.402-3.528 5.338.202.103-8.852 2.321-8.852 2.321l1.322 15.523s21.741-5.683 24.588-6.409l5.224 20.683 12.176-3.222-5.223-20.825a401 401 0 0 0 9.766-2.459l5.19 20.72 12.175-3.223-5.222-20.649c18.752-4.644 31.979-16.737 29.268-35.204-1.731-11.122-13.635-20.269-23.538-21.31 6.106-5.507 9.191-13.546 5.428-24.08m-5.869 48.752c2.408 18.294-22.451 20.546-30.691 22.73l-7.158-27.374c8.276-2.183 33.781-11.468 37.849 4.644m-14.99-37.248c2.578 16.25-18.722 18.156-25.572 19.958l-6.51-24.844c6.884-1.766 26.86-10.187 32.082 4.886"/></svg>
