<svg xmlns="http://www.w3.org/2000/svg" fill="none" viewBox="0 0 256 256"><path fill="#2F3058" fill-rule="evenodd" d="M256 128c0 70.692-57.308 128-128 128S0 198.692 0 128 57.308 0 128 0s128 57.308 128 128m-28.916 8.413c3.44-37.098-14.676-72.522-45.995-92.476q-36.364-23.18-78.857-11.554C46.088 47.752 15.143 106.589 35.056 161.5c14.005 38.62 50.085 64.315 91.127 65.462 52.135 1.461 96.141-39.076 100.901-90.549m-120.478-29.895c-13.864 4.21-22.906 8.897-21.942 25.391q.507 8.643 7.875 11.423c9.743 3.682 17.172-3.206 21.323-11.463 1.323-2.63 2.672-5.504 4.068-8.476 4.462-9.502 9.398-20.014 15.459-26.806 15.101-16.921 41.184-14.304 53.941 3.388 3.029 4.205 4.868 9.854 6.589 15.142q.376 1.158.749 2.286.193.578.812.578l10.007-.041q.74 0 .67-.75-1.635-17.357-11.093-31.904C165.622 40 103.328 36.156 67.999 76.349Q53.06 93.35 50.157 117.29q-.08.65.569.649l12.3-.01q.548 0 .66-.537c3.867-18.656 15.284-34.47 35.136-37.332a1.31 1.31 0 0 1 1.451.954l6.718 24.813q.143.528-.385.69m45.64 36.773q8.98-1.552 13.487-3.479c8.302-3.561 13.549-16.15 6.212-23.332-6.1-5.965-15.549-3.368-20.339 3.104a46 46 0 0 0-5.054 8.663c-.865 1.943-1.717 3.941-2.58 5.964-7.254 16.996-15.236 35.7-37.021 37.586q-11.316.983-21.81-3.784c-14.097-6.391-18.37-17.164-21.963-31.194a.66.66 0 0 0-.234-.365.67.67 0 0 0-.415-.142H50.38q-.477 0-.437.487c4.77 51.006 58.265 82.666 105.722 65.228 25.453-9.353 50.653-36.428 50.227-65.208q-.01-.507-.518-.507h-9.398q-.548 0-.761.507c-6.972 16.586-16.431 33.416-37.084 32.918a.93.93 0 0 1-.883-.73l-5.511-24.955q-.143-.64.508-.761" clip-rule="evenodd"/><path fill="#fff" fill-rule="evenodd" d="M181.089 43.938c31.319 19.953 49.435 55.377 45.995 92.475-4.76 51.473-48.766 92.01-100.901 90.549-41.042-1.147-77.122-26.842-91.127-65.462-19.913-54.911 11.032-113.748 67.176-129.117q42.493-11.625 78.857 11.554m-96.425 87.971c-.965-16.494 8.078-21.181 21.942-25.391q.528-.162.385-.69l-6.718-24.813a1.31 1.31 0 0 0-1.451-.954c-19.852 2.861-31.27 18.676-35.136 37.332q-.112.537-.66.537l-12.3.01q-.65 0-.569-.649Q53.06 93.351 68 76.349C103.328 36.157 165.622 40 195.064 85.286q9.459 14.547 11.093 31.904.07.75-.67.75l-10.007.041q-.619 0-.812-.578-.373-1.128-.749-2.286c-1.721-5.288-3.56-10.937-6.589-15.142-12.757-17.692-38.84-20.31-53.941-3.388-6.061 6.792-10.997 17.304-15.459 26.806-1.396 2.972-2.745 5.846-4.068 8.476-4.151 8.257-11.58 15.145-21.323 11.463q-7.368-2.78-7.875-11.423m81.069 7.903q-4.506 1.927-13.487 3.479-.65.122-.508.761l5.511 24.955a.93.93 0 0 0 .883.73c20.653.498 30.112-16.332 37.084-32.918q.213-.507.761-.507h9.398q.508 0 .518.507c.426 28.78-24.774 55.855-50.227 65.208-47.457 17.438-100.952-14.222-105.722-65.228q-.04-.487.437-.487h12.148c.15 0 .297.05.414.142a.65.65 0 0 1 .235.365c3.593 14.03 7.866 24.803 21.963 31.194q10.494 4.767 21.81 3.784c21.785-1.886 29.767-20.59 37.021-37.586.863-2.023 1.715-4.021 2.58-5.964a46 46 0 0 1 5.054-8.663c4.79-6.472 14.239-9.069 20.339-3.104 7.337 7.182 2.09 19.771-6.212 23.332" clip-rule="evenodd"/></svg>
