<svg xmlns="http://www.w3.org/2000/svg" fill="none" viewBox="0 0 256 256"><path fill="#1A063F" d="M128 256c70.692 0 128-57.308 128-128S198.692 0 128 0C96.897 0 68.385 11.093 46.206 29.54a129 129 0 0 0-5.813 5.138C15.53 58.028 0 91.2 0 128c0 70.692 57.308 128 128 128"/><path fill="url(#paint0_linear_9890_1839)" fill-rule="evenodd" d="M105.009 181.697a128 128 0 0 0 12.119 12.818c18.891 16.226 32.303 18.165 45.929 18.986q.809.051 1.616 0c6.612-.242 12.765-.592 18.73-2.935a76.7 76.7 0 0 0 16.159-8.389 69.2 69.2 0 0 0 18.716-19.551c5.723-8.456 10.207-24.238 8.618-36.518a76.4 76.4 0 0 0-5.157-20.023 60.8 60.8 0 0 0-7.016-12.482 47.4 47.4 0 0 0-13.559-13.061c-9.695-5.79-19.484-11.5-29.731-16.374a152 152 0 0 1-18.259-9.789 153 153 0 0 0-14.879-8.079 3.26 3.26 0 0 0-3.851.175c-1.347 1.05-1.05 2.397-.673 3.743.598 2.325 1.75 4.373 2.911 6.439.905 1.607 1.815 3.225 2.475 4.993.646 1.71.862 2.976-.579 4.242s-2.693.808-4.04-.081l-.002-.001c-7.513-4.901-15.026-9.802-22.592-14.622-3.728-2.376-7.479-4.713-11.23-7.051a1500 1500 0 0 1-9.91-6.212 655 655 0 0 1-8.526-5.55 968 968 0 0 0-6.044-3.957c-2.866-1.856-5.764-3.654-8.659-5.451a718 718 0 0 1-6.355-3.974 617 617 0 0 0-7.738-4.875 689 689 0 0 1-7.276-4.579 129 129 0 0 0-5.813 5.139q6.6 6.518 13.233 13.04a87422 87422 0 0 0 40.853 40.396c5.44 5.359 10.867 10.704 16.361 15.996a4.275 4.275 0 0 1 1.4 4.875c-.66 1.939-2.37 2.343-4.04 2.477-.533.043-1.067.077-1.602.11-1.141.071-2.283.143-3.42.308a6.637 6.637 0 0 0-5.602 8.402c1.145 4.201 2.222 8.389 2.99 12.657.915 5.103-1.145 6.948-6.02 5.103-5.46-2.062-10.834-4.271-16.235-6.492-2.603-1.07-5.212-2.143-7.84-3.202q-6.06-2.464-12.119-4.861a5.8 5.8 0 0 0-1.79-.404l-.297-.019c-1.296-.084-2.697-.176-3.447 1.15-.706 1.247.224 2.156 1.017 2.931q.173.168.33.327c4.354 4.563 8.773 9.053 13.181 13.533a3921 3921 0 0 1 4.315 4.389c5.546 5.65 24.65 25.112 33.348 36.303m97.487-43.849a40 40 0 0 1 2.842 15.653c-.135 20.52-18.339 40.233-40.166 39.345-21.127 1.346-39.723-19.956-39.723-39.049.068-23.349 17.869-41.002 39.494-41.123a40 40 0 0 1 37.553 25.174" clip-rule="evenodd"/><path fill="url(#paint1_linear_9890_1839)" d="M69.097 101.511a6.274 6.274 0 0 0 6.06 6.329 6.02 6.02 0 0 0 5.951-6.45 6.45 6.45 0 0 0-6.315-6.18 6.14 6.14 0 0 0-5.696 6.301"/><path fill="url(#paint2_linear_9890_1839)" d="M110.294 43.236c3.649 0 5.817-2.342 5.803-6.072a6.207 6.207 0 0 0-5.951-5.817c-2.693 0-6.396 3.42-6.423 5.992a6.26 6.26 0 0 0 6.571 5.897"/><path fill="url(#paint3_linear_9890_1839)" d="M39.427 80.96a5.29 5.29 0 0 0-5.562-5.547 6.154 6.154 0 0 0-5.588 5.803 5.817 5.817 0 0 0 5.588 5.386 5.384 5.384 0 0 0 5.561-5.642"/><path fill="url(#paint4_linear_9890_1839)" d="M165.172 192.778c21.827.956 40.032-18.757 40.166-39.278a40.003 40.003 0 0 0-40.395-40.826c-21.625.121-39.426 17.774-39.494 41.123-.067 19.093 18.596 40.328 39.723 38.981"/><defs><linearGradient id="paint0_linear_9890_1839" x1="242.25" x2="9" y1="141.25" y2="76.75" gradientUnits="userSpaceOnUse"><stop stop-color="#E2107B"/><stop offset="1" stop-color="#C991DD"/></linearGradient><linearGradient id="paint1_linear_9890_1839" x1="81.108" x2="69.043" y1="101.511" y2="101.511" gradientUnits="userSpaceOnUse"><stop stop-color="#E2107B"/><stop offset="1" stop-color="#C991DD"/></linearGradient><linearGradient id="paint2_linear_9890_1839" x1="116.097" x2="103.736" y1="37.298" y2="37.298" gradientUnits="userSpaceOnUse"><stop stop-color="#E2107B"/><stop offset="1" stop-color="#C991DD"/><stop offset="1" stop-color="#C991DD"/></linearGradient><linearGradient id="paint3_linear_9890_1839" x1="39.453" x2="28.304" y1="80.987" y2="80.987" gradientUnits="userSpaceOnUse"><stop stop-color="#E2107B"/><stop offset="1" stop-color="#C991DD"/></linearGradient><linearGradient id="paint4_linear_9890_1839" x1="226.856" x2="127.483" y1="176.553" y2="138.244" gradientUnits="userSpaceOnUse"><stop stop-color="#C991DD"/><stop offset="1" stop-color="#E2107B"/></linearGradient></defs></svg>