<svg xmlns="http://www.w3.org/2000/svg" fill="none" viewBox="0 0 256 256"><path fill="#000" d="M128 256c70.692 0 128-57.308 128-128S198.692 0 128 0 0 57.308 0 128s57.308 128 128 128"/><path fill="#999" d="m146.172 44.265 4.878 11.496c9.597 22.36 27.376 40.312 49.875 49.918l11.486 4.881c2.989 1.26 5.349 3.15 7.237 5.354-5.664-40.785-37.918-73.066-78.668-78.735a18.86 18.86 0 0 1 5.192 7.086M43.747 110.403l11.485-4.882c22.342-9.606 40.278-27.4 49.876-49.918l4.877-11.495c1.101-2.835 2.989-5.354 5.349-7.244-40.75 5.669-73.003 37.95-78.667 78.735a18.86 18.86 0 0 1 7.08-5.196m168.506 36.376-11.485 4.881c-22.342 9.606-40.278 27.4-49.876 49.918l-4.877 11.338c-1.101 2.835-2.989 5.354-5.349 7.244 40.749-5.669 73.003-37.95 78.667-78.735-1.73 2.362-4.248 4.251-7.08 5.354m-102.425 66.137-4.878-11.338c-9.597-22.36-27.376-40.312-49.875-49.918l-11.486-4.881c-2.832-1.103-5.349-2.992-7.237-5.354 5.664 40.785 37.918 73.066 78.668 78.735-2.203-1.89-3.934-4.409-5.192-7.244"/><path fill="#fff" d="m86.542 119.694 5.664-2.362a46.82 46.82 0 0 0 24.544-24.566l2.361-5.669c3.304-7.873 14.474-7.873 17.936 0l2.36 5.67a46.82 46.82 0 0 0 24.544 24.565l5.664 2.362c7.867 3.307 7.867 14.487 0 17.951l-5.664 2.362a46.82 46.82 0 0 0-24.544 24.566l-2.36 5.669c-3.304 7.873-14.475 7.873-17.936 0l-2.361-5.669a46.82 46.82 0 0 0-24.544-24.566l-5.664-2.362c-7.867-3.464-7.867-14.644 0-17.951"/></svg>