<svg xmlns="http://www.w3.org/2000/svg" fill="none" viewBox="0 0 512 512"><path fill="#000" d="M256 512c141.385 0 256-114.615 256-256S397.385 0 256 0 0 114.615 0 256s114.615 256 256 256"/><path fill="#fff" d="M256 512c141.385 0 256-114.615 256-256S397.385 0 256 0 0 114.615 0 256s114.615 256 256 256"/><path fill="#040404" fill-rule="evenodd" d="M251.857 72.62c-.331.415-5.796 10.763-12.171 22.933q-55.185 105.969-110.367 211.939c-6.127 11.839-6.624 12.998-6.21 14.074.083.331 12.668 11.673 27.903 25.334a135289 135289 0 0 1 94.387 84.858c8.445 7.534 8.776 7.782 10.349 6.871 1.077-.662 128.996-107.211 131.066-109.198 1.656-1.573 1.656-1.738-.497-3.725-1.656-1.656-3.891-5.961-66.816-127.081-35.85-68.963-65.409-125.673-65.74-126.004-.828-.828-1.159-.828-1.904 0m2.401 33.199c2.153 3.477 55.722 107.211 55.722 107.956 0 .414-.249 1.077-.58 1.325-1.242 1.159-54.645 25.996-55.97 25.996-1.242 0-56.467-25.748-57.295-26.741-.165-.166-.248-.828-.165-1.49.165-.994 54.811-106.549 55.804-107.708.662-.828 1.656-.497 2.484.662m-39.162 134.449c26.494 12.501 26.494 12.501 26.494 14.157 0 1.242-11.012 63.002-11.508 64.575-.746 2.318 1.407 3.56-24.839-13.826a262 262 0 0 0-22.852-14.571c-.993-.083-2.898.828-17.221 8.031-16.891 8.527-17.801 8.941-17.553 7.037.248-1.408 39.08-76.083 40.073-76.994 1.077-.91-.248-1.49 27.406 11.591m103.329-10.763c.662.828 39.907 75.917 41.315 79.146.579 1.325.579 1.408.083 1.904-.58.58-.994.414-12.834-5.96-11.922-6.458-12.667-6.872-13.909-6.872-.497 0-19.457 4.471-42.061 9.935s-41.812 10.017-42.722 10.1c-2.484.248-2.484 0-1.159-7.617 10.597-59.359 9.19-53.067 11.839-54.392l56.964-26.74c1.076-.497 1.656-.332 2.484.496" clip-rule="evenodd"/></svg>