<svg xmlns="http://www.w3.org/2000/svg" fill="none" viewBox="0 0 256 256"><path fill="#000" d="M128 256c70.692 0 128-57.308 128-128S198.692 0 128 0 0 57.308 0 128s57.308 128 128 128"/><path fill="#fff" d="M128 256c70.692 0 128-57.308 128-128S198.692 0 128 0 0 57.308 0 128s57.308 128 128 128"/><path fill="#040404" fill-rule="evenodd" d="M125.928 36.31c-.165.207-2.897 5.382-6.085 11.467Q92.25 100.762 64.66 153.746c-3.064 5.919-3.312 6.499-3.105 7.037.041.166 6.334 5.837 13.95 12.667a63350 63350 0 0 1 47.194 42.429c4.223 3.767 4.389 3.891 5.175 3.436.538-.332 64.498-53.606 65.533-54.599.828-.787.828-.87-.248-1.863-.828-.828-1.946-2.981-33.408-63.54-17.926-34.482-32.705-62.837-32.87-63.003-.414-.413-.58-.413-.953 0m1.201 16.6c1.076 1.738 27.861 53.605 27.861 53.978 0 .207-.124.538-.29.662-.621.58-27.323 12.998-27.985 12.998-.621 0-28.233-12.874-28.647-13.371-.083-.082-.124-.413-.083-.745.083-.496 27.405-53.274 27.902-53.854.331-.414.828-.248 1.242.332m-19.581 67.224c13.247 6.25 13.247 6.25 13.247 7.078 0 .621-5.506 31.501-5.754 32.288-.373 1.159.704 1.78-12.42-6.913a131 131 0 0 0-11.425-7.285c-.497-.042-1.45.414-8.611 4.015-8.445 4.264-8.9 4.47-8.776 3.518.124-.703 19.54-38.041 20.036-38.496.538-.456-.124-.745 13.703 5.795m51.664-5.381c.332.414 19.954 37.958 20.658 39.573.29.662.29.703.041.952-.289.289-.496.207-6.416-2.981-5.962-3.228-6.334-3.435-6.955-3.435-.249 0-9.729 2.235-21.03 4.967s-20.906 5.009-21.362 5.05c-1.242.124-1.242 0-.579-3.808 5.299-29.68 4.595-26.534 5.92-27.196l28.481-13.371c.539-.248.828-.165 1.242.249" clip-rule="evenodd"/></svg>