<svg xmlns="http://www.w3.org/2000/svg" fill="none" viewBox="0 0 256 256"><path fill="#000" fill-rule="evenodd" d="M256 128c0 70.692-57.308 128-128 128S0 198.692 0 128 57.308 0 128 0s128 57.308 128 128" clip-rule="evenodd"/><path fill="#fff" d="M109.056 155.66c-14.706-.685-29.322-2.17-43.748-5.168-6.867-1.426-29.414-6.499-28.796-16.419.576-9.227 20.13-13.918 27.008-15.434 15.005-3.312 30.221-4.706 45.536-5.546q.09-.005.09-.096l.006-22.174a.14.14 0 0 0-.04-.1.14.14 0 0 0-.097-.04H59.463q-.103 0-.103-.103V57.627q0-.127.13-.127h134.974q.129 0 .129.127V90.58q0 .103-.102.103H144.93q-.096 0-.098.096l-.035 45.088q-.001.2-.201.216-2.35.183-4.229.25-14.002.514-27.997-.1a80 80 0 0 1-3.101-.214q-.1-.007-.101-.111l-.045-16.813-.004-.024-.014-.021-.021-.013-.024-.004q-11.28.506-22.51 1.802c-8.311.958-16.725 2.328-24.734 4.561-1.972.551-15.38 4.603-12.465 8.365a8 8 0 0 0 2.259 1.995c2.976 1.769 6.243 3.022 9.49 3.939 12.092 3.417 25.327 5.036 37.446 5.928 8.877.653 17.826 1.072 26.727 1.029 19.706-.093 39.652.945 59.067 4.296 7.474 1.291 36.409 6.672 35.118 18.048-1.188 10.469-27.014 15.283-35.12 16.693-13.023 2.266-26.205 3.441-39.402 4.01q-.102.005-.102.107l-.041 31.087q0 .107-.109.107h-35.397q-.149 0-.149-.152l.004-65.098q0-.087-.086-.09m96.515 12.153a22 22 0 0 0-5.526-3.057c-7.631-2.891-15.886-4.486-23.941-5.626a298 298 0 0 0-31.233-2.76.06.06 0 0 0-.038.014.04.04 0 0 0-.011.016l-.005.02.007 27.234q0 .094.094.093c14.855-.545 29.91-1.952 44.436-5.203a79 79 0 0 0 9.663-2.819c2.464-.891 5.219-2.108 7.128-3.953 1.546-1.496.936-2.811-.574-3.959"/><path fill="url(#paint0_linear_4505_910)" d="M109.056 155.66c-14.706-.685-29.322-2.17-43.748-5.168-6.867-1.426-29.414-6.499-28.796-16.419.576-9.227 20.13-13.918 27.008-15.434 15.005-3.312 30.221-4.706 45.536-5.546q.09-.005.09-.096l.006-22.174a.14.14 0 0 0-.04-.1.14.14 0 0 0-.097-.04H59.463q-.103 0-.103-.103V57.627q0-.127.13-.127h134.974q.129 0 .129.127V90.58q0 .103-.102.103H144.93q-.096 0-.098.096l-.035 45.088q-.001.2-.201.216-2.35.183-4.229.25-14.002.514-27.997-.1a80 80 0 0 1-3.101-.214q-.1-.007-.101-.111l-.045-16.813-.004-.024-.014-.021-.021-.013-.024-.004q-11.28.506-22.51 1.802c-8.311.958-16.725 2.328-24.734 4.561-1.972.551-15.38 4.603-12.465 8.365a8 8 0 0 0 2.259 1.995c2.976 1.769 6.243 3.022 9.49 3.939 12.092 3.417 25.327 5.036 37.446 5.928 8.877.653 17.826 1.072 26.727 1.029 19.706-.093 39.652.945 59.067 4.296 7.474 1.291 36.409 6.672 35.118 18.048-1.188 10.469-27.014 15.283-35.12 16.693-13.023 2.266-26.205 3.441-39.402 4.01q-.102.005-.102.107l-.041 31.087q0 .107-.109.107h-35.397q-.149 0-.149-.152l.004-65.098q0-.087-.086-.09m96.515 12.153a22 22 0 0 0-5.526-3.057c-7.631-2.891-15.886-4.486-23.941-5.626a298 298 0 0 0-31.233-2.76.06.06 0 0 0-.038.014.04.04 0 0 0-.011.016l-.005.02.007 27.234q0 .094.094.093c14.855-.545 29.91-1.952 44.436-5.203a79 79 0 0 0 9.663-2.819c2.464-.891 5.219-2.108 7.128-3.953 1.546-1.496.936-2.811-.574-3.959"/><defs><linearGradient id="paint0_linear_4505_910" x1="56.347" x2="196.617" y1="221.001" y2="221.073" gradientUnits="userSpaceOnUse"><stop stop-color="#81F7FA"/><stop offset="1" stop-color="#7AFF91"/></linearGradient></defs></svg>