<svg xmlns="http://www.w3.org/2000/svg" fill="none" viewBox="0 0 512 512"><path fill="#000" fill-rule="evenodd" d="M512 256c0 141.385-114.615 256-256 256S0 397.385 0 256 114.615 0 256 0s256 114.615 256 256" clip-rule="evenodd"/><path fill="#fff" d="M218.112 311.319c-29.413-1.368-58.645-4.339-87.496-10.335-13.735-2.852-58.828-12.998-57.591-32.837 1.151-18.455 40.259-27.837 54.015-30.87 30.011-6.624 60.443-9.41 91.072-11.091q.18-.008.18-.193l.012-44.348a.28.28 0 0 0-.274-.279h-99.105q-.205 0-.205-.206v-65.905q0-.255.258-.255h269.95q.258 0 .258.255v65.905q0 .206-.205.206H289.86q-.192 0-.196.193l-.07 90.175q-.005.4-.401.431-4.703.366-8.46.502a695 695 0 0 1-55.993-.202 162 162 0 0 1-6.202-.427q-.201-.017-.201-.222l-.09-33.626a.1.1 0 0 0-.01-.049.1.1 0 0 0-.028-.04.1.1 0 0 0-.041-.027.1.1 0 0 0-.048-.008 644 644 0 0 0-45.02 3.604c-16.623 1.915-33.451 4.656-49.468 9.123-3.945 1.101-30.76 9.205-24.93 16.729a16 16 0 0 0 4.518 3.99c5.952 3.538 12.485 6.045 18.978 7.878 24.185 6.834 50.656 10.072 74.895 11.855 17.754 1.307 35.651 2.145 53.454 2.059 39.412-.185 79.302 1.89 118.132 8.592 14.948 2.581 72.818 13.344 70.237 36.097-2.376 20.937-54.027 30.565-70.241 33.384-26.045 4.533-52.409 6.883-78.802 8.021q-.205.009-.205.214l-.082 62.174q0 .214-.217.214h-70.794q-.3 0-.3-.304l.009-130.196q0-.172-.172-.181m193.031 24.307a44 44 0 0 0-11.052-6.115c-15.264-5.782-31.772-8.971-47.883-11.251a596 596 0 0 0-62.467-5.519.1.1 0 0 0-.04.006.1.1 0 0 0-.035.021.1.1 0 0 0-.031.072l.012 54.469q0 .189.189.185c29.711-1.089 59.82-3.904 88.871-10.405a159 159 0 0 0 19.327-5.638c4.928-1.784 10.438-4.216 14.256-7.906 3.092-2.992 1.872-5.622-1.147-7.919"/><path fill="url(#paint0_linear_4505_910)" d="M218.112 311.319c-29.413-1.368-58.645-4.339-87.496-10.335-13.735-2.852-58.828-12.998-57.591-32.837 1.151-18.455 40.259-27.837 54.015-30.87 30.011-6.624 60.443-9.41 91.072-11.091q.18-.008.18-.193l.012-44.348a.28.28 0 0 0-.274-.279h-99.105q-.205 0-.205-.206v-65.905q0-.255.258-.255h269.95q.258 0 .258.255v65.905q0 .206-.205.206H289.86q-.192 0-.196.193l-.07 90.175q-.005.4-.401.431-4.703.366-8.46.502a695 695 0 0 1-55.993-.202 162 162 0 0 1-6.202-.427q-.201-.017-.201-.222l-.09-33.626a.1.1 0 0 0-.01-.049.1.1 0 0 0-.028-.04.1.1 0 0 0-.041-.027.1.1 0 0 0-.048-.008 644 644 0 0 0-45.02 3.604c-16.623 1.915-33.451 4.656-49.468 9.123-3.945 1.101-30.76 9.205-24.93 16.729a16 16 0 0 0 4.518 3.99c5.952 3.538 12.485 6.045 18.978 7.878 24.185 6.834 50.656 10.072 74.895 11.855 17.754 1.307 35.651 2.145 53.454 2.059 39.412-.185 79.302 1.89 118.132 8.592 14.948 2.581 72.818 13.344 70.237 36.097-2.376 20.937-54.027 30.565-70.241 33.384-26.045 4.533-52.409 6.883-78.802 8.021q-.205.009-.205.214l-.082 62.174q0 .214-.217.214h-70.794q-.3 0-.3-.304l.009-130.196q0-.172-.172-.181m193.031 24.307a44 44 0 0 0-11.052-6.115c-15.264-5.782-31.772-8.971-47.883-11.251a596 596 0 0 0-62.467-5.519.1.1 0 0 0-.04.006.1.1 0 0 0-.035.021.1.1 0 0 0-.031.072l.012 54.469q0 .189.189.185c29.711-1.089 59.82-3.904 88.871-10.405a159 159 0 0 0 19.327-5.638c4.928-1.784 10.438-4.216 14.256-7.906 3.092-2.992 1.872-5.622-1.147-7.919"/><defs><linearGradient id="paint0_linear_4505_910" x1="112.695" x2="393.234" y1="442.002" y2="442.146" gradientUnits="userSpaceOnUse"><stop stop-color="#81F7FA"/><stop offset="1" stop-color="#7AFF91"/></linearGradient></defs></svg>