<svg xmlns="http://www.w3.org/2000/svg" fill="none" viewBox="0 0 256 256"><path fill="#000" fill-rule="evenodd" d="M128 256c70.692 0 128-57.308 128-128S198.692 0 128 0 0 57.308 0 128s57.308 128 128 128m.534-40c-22.884 0-43.444-11.85-54.886-31.629-11.53-19.779-11.53-43.389 0-63.169l48.271-83.393c2.95-5.079 10.279-5.079 13.229 0l48.271 83.393c11.441 19.78 11.441 43.39 0 63.169S151.417 216 128.534 216M114.946 77.456l10.28-17.819c1.43-2.494 5.185-2.494 6.615 0l39.599 68.426c7.241 12.562 8.671 27.085 4.112 40.449-.447-2.138-1.162-4.366-2.056-6.593-5.452-13.81-17.877-24.412-36.828-31.54-13.051-4.9-21.364-12.206-24.672-21.561-4.29-12.117.269-25.303 2.95-31.362m-17.61 30.293-11.71 20.314c-8.938 15.502-8.938 33.945 0 49.448 8.94 15.502 25.03 24.679 42.908 24.679 11.888 0 22.973-4.098 31.733-11.315 1.162-2.851 4.648-13.275.268-24.056-4.023-9.978-13.677-17.908-28.783-23.61-16.984-6.415-28.069-16.483-32.896-29.847-.625-1.871-1.072-3.742-1.52-5.613" clip-rule="evenodd"/></svg>