<svg xmlns="http://www.w3.org/2000/svg" fill="none" viewBox="0 0 256 256"><path fill="url(#paint0_linear_9890_1734)" d="M128 256c70.692 0 128-57.308 128-128S198.692 0 128 0 0 57.308 0 128s57.308 128 128 128"/><path fill="#fff" d="M207.744 207.232c43.733-44.032 43.52-115.235-.512-158.976C163.2 4.523 91.996 4.736 48.256 48.768z" opacity=".2"/><path fill="#fff" d="M120.816 62.637a65.12 65.12 0 0 1 44.749 11.836c12.981 9.297 22.135 23.041 25.74 38.647a66 66 0 0 1-6.164 46.092c-7.578 14.094-20.019 24.921-34.982 30.442L127.978 221c50.918-.231 92.113-41.792 92.113-93.014 0-48.094-36.329-87.662-82.905-92.515z"/><path fill="#fff" d="M125.443 35C75.305 36.107 35 77.327 35 127.986c0 47.402 35.274 86.518 80.885 92.276l19.097-26.991a65.12 65.12 0 0 1-45.483-11.761c-13.188-9.447-22.417-23.478-25.899-39.375a66 66 0 0 1 7.053-46.666c8.02-14.14 20.98-24.785 36.363-29.87z"/><path fill="url(#paint1_linear_9890_1734)" d="M150.159 189.654a65.44 65.44 0 0 0 31.014-24.086 65.96 65.96 0 0 0 11.742-37.582h27.176c0 51.231-41.195 92.783-92.113 93.014z"/><path fill="url(#paint2_linear_9890_1734)" d="M125.443 35C75.305 36.107 35 77.327 35 127.986c0 0 27.176.397 27.176 0a65.95 65.95 0 0 1 12.385-38.48A65.4 65.4 0 0 1 107.016 65.6z"/><path fill="#fff" d="m127.38 204.03 46.465-65.774-46.465 27.563-46.447-27.563z"/><path fill="#4C52F9" d="m127.38 204.03 46.465-65.774-46.465 27.563z" opacity=".1"/><path fill="url(#paint3_linear_9890_1734)" d="m127.234 157.09 46.704-27.609-46.704-77.52-46.695 77.511z"/><path fill="#fff" d="m127.234 157.09 46.704-27.609-46.704-77.52-46.695 77.511z"/><path fill="#4C52F9" d="M127.234 157.081 80.539 129.49l46.695-77.52z" opacity=".1"/><path fill="#4C52F9" d="M127.234 157.09v-49.616l-46.695 22.017 46.695 27.608zm0 0v-49.616l46.704 22.007z" opacity=".1"/><defs><linearGradient id="paint0_linear_9890_1734" x1="0" x2="256" y1="128" y2="128" gradientUnits="userSpaceOnUse"><stop offset=".25" stop-color="#1A82FF"/><stop offset=".5" stop-color="#7A26F3"/><stop offset=".74" stop-color="#D6453B"/></linearGradient><linearGradient id="paint1_linear_9890_1734" x1="66.611" x2="168.848" y1="244.53" y2="177.9" gradientUnits="userSpaceOnUse"><stop stop-color="#4C52F9" stop-opacity=".5"/><stop offset="1" stop-color="#fff"/></linearGradient><linearGradient id="paint2_linear_9890_1734" x1="177.49" x2="79.632" y1="-7.816" y2="62.527" gradientUnits="userSpaceOnUse"><stop stop-color="#4C52F9" stop-opacity=".5"/><stop offset="1" stop-color="#fff"/></linearGradient><linearGradient id="paint3_linear_9890_1734" x1="27.886" x2="109.922" y1="80.031" y2="129.842" gradientUnits="userSpaceOnUse"><stop stop-color="#1C313F"/><stop offset="1" stop-color="#fff"/></linearGradient></defs></svg>
