<svg width="256" height="256" viewBox="0 0 256 256" fill="none" xmlns="http://www.w3.org/2000/svg">
<path d="M128 256C198.692 256 256 198.692 256 128C256 57.3084 198.692 0 128 0C57.3084 0 0 57.3084 0 128C0 198.692 57.3084 256 128 256Z" fill="url(#paint0_linear_9890_1734)"/>
<path opacity="0.2" d="M207.744 207.232C251.477 163.2 251.264 91.9966 207.232 48.2562C163.2 4.52284 91.9963 4.73618 48.2559 48.7682L207.744 207.232Z" fill="white"/>
<path d="M120.816 62.6366C136.67 60.9668 152.583 65.1762 165.565 74.4733C178.546 83.7703 187.7 97.5142 191.305 113.12C194.911 128.725 192.718 145.117 185.141 159.212C177.563 173.306 165.122 184.133 150.159 189.654L127.978 221C178.896 220.769 220.091 179.208 220.091 127.986C220.091 79.8922 183.762 40.3244 137.186 35.4707L120.816 62.6366Z" fill="white"/>
<path d="M125.443 35C75.3049 36.1073 35 77.3268 35 127.986C35 175.388 70.2737 214.504 115.885 220.262L134.982 193.271C118.895 195.149 102.687 190.958 89.4994 181.51C76.3114 172.063 67.0823 158.032 63.6004 142.135C60.1184 126.239 62.6315 109.609 70.6527 95.4689C78.6739 81.3286 91.6321 70.6843 107.016 65.5986L125.443 35Z" fill="white"/>
<path d="M150.159 189.654C162.704 185.001 173.528 176.595 181.173 165.568C188.818 154.542 192.916 141.425 192.915 127.986H220.091C220.091 179.217 178.896 220.769 127.978 221L150.159 189.654Z" fill="url(#paint1_linear_9890_1734)"/>
<path d="M125.443 35C75.3049 36.1073 35 77.3268 35 127.986C35 127.986 62.176 128.383 62.176 127.986C62.1778 114.17 66.5113 100.706 74.5609 89.5064C82.6104 78.3068 93.9667 69.9414 107.016 65.5986L125.443 35Z" fill="url(#paint2_linear_9890_1734)"/>
<path d="M127.38 204.03L173.845 138.256L127.38 165.819L80.9326 138.256L127.38 204.03Z" fill="white"/>
<path opacity="0.1" d="M127.38 204.03L173.845 138.256L127.38 165.819V204.021V204.03Z" fill="#4C52F9"/>
<path d="M127.234 157.09L173.938 129.481L127.234 51.9604L80.5391 129.472L127.234 157.09Z" fill="url(#paint3_linear_9890_1734)"/>
<path d="M127.234 157.09L173.938 129.481L127.234 51.9604L80.5391 129.472L127.234 157.09Z" fill="white"/>
<path opacity="0.1" d="M127.234 157.081L80.5391 129.49L127.234 51.9697V157.081Z" fill="#4C52F9"/>
<path opacity="0.1" d="M127.234 157.09V107.474L80.5391 129.491L127.234 157.099V157.09ZM127.234 157.09V107.474L173.938 129.481L127.234 157.09Z" fill="#4C52F9"/>
<defs>
<linearGradient id="paint0_linear_9890_1734" x1="0" y1="128" x2="256" y2="128" gradientUnits="userSpaceOnUse">
<stop offset="0.25" stop-color="#1A82FF"/>
<stop offset="0.5" stop-color="#7A26F3"/>
<stop offset="0.74" stop-color="#D6453B"/>
</linearGradient>
<linearGradient id="paint1_linear_9890_1734" x1="66.6113" y1="244.53" x2="168.848" y2="177.9" gradientUnits="userSpaceOnUse">
<stop stop-color="#4C52F9" stop-opacity="0.5"/>
<stop offset="1" stop-color="white"/>
</linearGradient>
<linearGradient id="paint2_linear_9890_1734" x1="177.49" y1="-7.81585" x2="79.6316" y2="62.5272" gradientUnits="userSpaceOnUse">
<stop stop-color="#4C52F9" stop-opacity="0.5"/>
<stop offset="1" stop-color="white"/>
</linearGradient>
<linearGradient id="paint3_linear_9890_1734" x1="27.8856" y1="80.0307" x2="109.922" y2="129.842" gradientUnits="userSpaceOnUse">
<stop stop-color="#1C313F"/>
<stop offset="1" stop-color="white"/>
</linearGradient>
</defs>
</svg>
