<svg xmlns="http://www.w3.org/2000/svg" fill="none" viewBox="0 0 256 256"><path fill="#000" d="M128 256c70.692 0 128-57.308 128-128S198.692 0 128 0 0 57.308 0 128s57.308 128 128 128"/><path fill="#00D1FF" fill-rule="evenodd" d="M128 231.424c57.12 0 103.424-46.304 103.424-103.424S185.12 24.576 128 24.576 24.576 70.881 24.576 128 70.881 231.424 128 231.424m-.001-21.862c45.222 0 81.882-36.648 81.882-81.856 0-45.209-36.66-81.857-81.882-81.857s-81.881 36.648-81.881 81.857 36.66 81.856 81.881 81.856" clip-rule="evenodd"/><path fill="#00D1FF" d="M123.276 174.8q-6.516-.522-12.25-2.866-5.734-2.475-9.904-6.384a30.6 30.6 0 0 1-6.646-8.989q-2.476-5.08-2.606-11.073h16.029q.26 6.383 4.43 10.682 4.3 4.17 10.947 4.82v-25.794l-6.125-.912q-10.555-1.433-16.811-7.947-6.124-6.513-6.124-16.545 0-5.21 2.345-9.77 2.346-4.69 6.386-8.208 4.04-3.647 9.252-5.862a37.7 37.7 0 0 1 11.077-2.736V71.101h9.513v12.376q5.863.781 10.816 3.126 4.951 2.216 8.601 5.733a26.3 26.3 0 0 1 5.733 8.077q2.216 4.56 2.476 9.77h-16.028q-.261-4.689-3.519-8.077-3.127-3.518-8.079-4.82v23.84l4.43.652a37.7 37.7 0 0 1 9.383 2.736q4.431 1.953 7.689 5.08 3.388 3.128 5.212 7.556 1.955 4.299 1.955 9.771 0 5.862-2.215 10.682-2.085 4.69-5.995 8.338-3.78 3.518-9.122 5.862-5.213 2.215-11.337 2.866v13.419h-9.513zm9.513-13.94q6.124-1.042 9.513-4.429 3.388-3.518 3.388-8.859 0-4.95-3.258-7.295-3.258-2.475-7.428-3.257l-2.215-.391zm-9.513-63.965q-5.474.782-9.383 4.039-3.78 3.126-3.779 8.468 0 4.56 2.476 6.904 2.607 2.215 6.776 2.866l3.91.652z"/></svg>