<svg xmlns="http://www.w3.org/2000/svg" fill="none" viewBox="0 0 512 512"><path fill="#F7F7F7" d="M256 512a256 256 0 0 0 181.019-74.981 255.997 255.997 0 0 0 0-362.038A256 256 0 1 0 256 512"/><path fill="#000" fill-rule="evenodd" d="M184.157 63C105.83 92.031 50 167.488 50 256s55.83 163.969 134.157 193v-20.296C116.482 400.652 68.872 333.893 68.872 256s47.61-144.653 115.285-172.705zm142.692 20.298V63.002C405.173 92.035 461 167.49 461 256s-55.827 163.965-134.151 192.997v-20.296C394.52 400.649 442.128 333.891 442.128 256S394.52 111.351 326.849 83.298" clip-rule="evenodd"/><path fill="#000" fill-rule="evenodd" d="m255.46 84 76.796 131.649H374v18.868H137v-18.868h41.646zm-.003 49.505 47.92 82.144h-95.848zm76.917 162.644H374v-18.867H137v18.867h41.529L255.46 428zm-28.88 0h-96.082l48.045 82.346z" clip-rule="evenodd"/></svg>