<svg width="256" height="256" viewBox="0 0 256 256" fill="none" xmlns="http://www.w3.org/2000/svg">
<path fill-rule="evenodd" clip-rule="evenodd" d="M256 128C256 198.692 198.692 256 128 256C57.3075 256 0 198.692 0 128C0 57.3075 57.3075 0 128 0C198.692 0 256 57.3075 256 128Z" fill="white"/>
<path d="M88.0037 45C87.7626 87.271 63.2767 124.127 27 143.818L67.496 210C127.982 177.102 168.755 115.55 168.996 45H88.0037Z" fill="#CBCBCB"/>
<path d="M168.996 45C169.237 87.271 193.723 124.127 230 143.818L189.504 210C129.018 177.102 88.2448 115.55 88.0037 45H168.996Z" fill="#242424"/>
<path d="M88.0038 45.0349C88.1485 87.8064 103.206 127.245 128.5 159.016C153.794 127.245 168.852 87.8064 168.996 45.0349H88.0038Z" fill="#585858"/>
</svg>
