<svg width="256" height="256" viewBox="0 0 256 256" fill="none" xmlns="http://www.w3.org/2000/svg">
<path d="M128 256C198.692 256 256 198.692 256 128C256 57.3075 198.692 0 128 0C57.3075 0 0 57.3075 0 128C0 198.692 57.3075 256 128 256Z" fill="url(#paint0_radial_9885_1311)"/>
<path d="M79.0463 161.65H60.8303C62.3175 190.089 86.1092 214.81 128.303 214.81C170.31 214.81 197.075 191.762 197.075 162.022C197.075 105.517 111.76 108.677 111.76 75.9632C111.76 66.8552 118.637 56.0751 134.622 56.0751C152.466 56.0751 173.469 70.016 174.956 87.8591H192.986C191.127 59.0494 163.06 38.9749 127.373 38.9749C90.3843 38.9749 62.5039 60.5359 62.5039 91.0191C62.5039 149.197 147.819 141.576 147.819 177.449C147.819 188.602 140.941 197.895 123.655 197.895C102.094 197.895 80.3477 182.839 79.0463 161.65ZM94.2879 80.2382C94.2879 124.476 178.86 115.74 178.86 162.951C178.86 177.077 169.566 189.531 158.414 192.691C162.317 188.973 165.291 180.795 165.291 172.989C165.291 129.309 80.5335 135.257 80.5335 90.4612C80.5335 75.4061 90.1986 63.3245 102.28 59.6066C97.6337 65.1831 94.2879 72.4317 94.2879 80.2382Z" fill="white"/>
<defs>
<radialGradient id="paint0_radial_9885_1311" cx="0" cy="0" r="1" gradientUnits="userSpaceOnUse" gradientTransform="translate(128 398.721) rotate(-90) scale(398.724)">
<stop stop-color="#FFEF79"/>
<stop offset="1" stop-color="#00C2A1"/>
</radialGradient>
</defs>
</svg>
