<svg xmlns="http://www.w3.org/2000/svg" fill="none" viewBox="0 0 512 512"><path fill="#000" d="M256 512c141.385 0 256-114.615 256-256S397.385 0 256 0 0 114.615 0 256s114.615 256 256 256Z"/><path fill="#00D1FF" fill-rule="evenodd" d="M256 462.848c114.239 0 206.848-92.609 206.848-206.848 0-114.239-92.609-206.848-206.848-206.848-114.239 0-206.848 92.609-206.848 206.848 0 114.239 92.609 206.848 206.848 206.848Zm-.001-43.723c90.444 0 163.763-73.297 163.763-163.714S346.443 91.697 255.999 91.697 92.235 164.994 92.235 255.411 165.555 419.125 256 419.125Z" clip-rule="evenodd"/><path fill="#00D1FF" d="M246.552 349.599c-8.689-.694-16.854-2.605-24.5-5.732-7.645-3.3-14.247-7.556-19.807-12.767-5.561-5.211-9.992-11.203-13.292-17.978-3.301-6.774-5.04-14.157-5.213-22.146h32.057c.348 8.51 3.301 15.633 8.862 21.365 5.734 5.559 13.031 8.771 21.893 9.64v-51.589l-12.25-1.824c-14.074-1.911-25.281-7.208-33.621-15.893-8.167-8.686-12.25-19.715-12.25-33.09 0-6.948 1.564-13.461 4.692-19.541 3.127-6.254 7.385-11.725 12.771-16.415 5.385-4.863 11.555-8.771 18.504-11.725a75.308 75.308 0 0 1 22.154-5.471v-24.231h19.025v24.752c7.819 1.042 15.029 3.126 21.633 6.253 6.603 2.953 12.337 6.774 17.201 11.464 4.865 4.69 8.688 10.074 11.468 16.154 2.954 6.08 4.604 12.594 4.952 19.542h-32.058c-.348-6.254-2.693-11.638-7.037-16.155-4.17-4.689-9.555-7.903-16.159-9.64v47.681l8.862 1.302c6.603 1.043 12.858 2.867 18.765 5.472 5.907 2.606 11.034 5.993 15.377 10.161 4.518 4.169 7.992 9.207 10.425 15.112 2.607 5.732 3.91 12.246 3.91 19.542 0 7.816-1.477 14.938-4.431 21.365-2.78 6.253-6.776 11.812-11.989 16.675-5.039 4.69-11.12 8.598-18.244 11.725-6.949 2.953-14.508 4.863-22.675 5.732v26.836h-19.025v-26.576Zm19.025-27.879c8.167-1.39 14.508-4.342 19.026-8.858 4.518-4.69 6.777-10.595 6.777-17.718 0-6.601-2.173-11.464-6.516-14.59-4.343-3.3-9.295-5.472-14.856-6.514l-4.431-.782v48.462Zm-19.025-127.93c-7.298 1.043-13.553 3.736-18.766 8.078-5.039 4.168-7.558 9.813-7.558 16.935 0 6.08 1.651 10.683 4.952 13.809 3.476 2.954 7.992 4.863 13.553 5.732l7.819 1.303V193.79Z"/></svg>