<svg xmlns="http://www.w3.org/2000/svg" fill="none" viewBox="0 0 512 512"><path fill="#000" d="M256 512c141.385 0 256-114.615 256-256S397.385 0 256 0 0 114.615 0 256s114.615 256 256 256"/><path fill="#00D1FF" fill-rule="evenodd" d="M256 462.848c114.239 0 206.848-92.609 206.848-206.848S370.239 49.152 256 49.152 49.152 141.761 49.152 256 141.761 462.848 256 462.848m-.001-43.723c90.444 0 163.763-73.297 163.763-163.714S346.443 91.697 255.999 91.697 92.235 164.994 92.235 255.411 165.555 419.125 256 419.125" clip-rule="evenodd"/><path fill="#00D1FF" d="M246.552 349.599q-13.032-1.041-24.5-5.732-11.467-4.95-19.807-12.767-8.342-7.816-13.292-17.978-4.952-10.162-5.213-22.146h32.057q.521 12.766 8.862 21.365 8.6 8.337 21.893 9.64v-51.589l-12.25-1.824q-21.111-2.866-33.621-15.893-12.25-13.028-12.25-33.09 0-10.422 4.692-19.541 4.691-9.38 12.771-16.415 8.079-7.294 18.504-11.725a75.3 75.3 0 0 1 22.154-5.471v-24.231h19.025v24.752q11.728 1.563 21.633 6.253 9.905 4.43 17.201 11.464 7.298 7.035 11.468 16.154 4.43 9.12 4.952 19.542h-32.058q-.521-9.38-7.037-16.155-6.254-7.034-16.159-9.64v47.681l8.862 1.302q9.905 1.565 18.765 5.472 8.861 3.909 15.377 10.161 6.776 6.254 10.425 15.112 3.91 8.598 3.91 19.542 0 11.724-4.431 21.365-4.17 9.38-11.989 16.675-7.558 7.035-18.244 11.725-10.424 4.429-22.675 5.732v26.836h-19.025zm19.025-27.879q12.25-2.084 19.026-8.858 6.777-7.034 6.777-17.718 0-9.901-6.516-14.59-6.515-4.95-14.856-6.514l-4.431-.782zm-19.025-127.93q-10.947 1.565-18.766 8.078-7.558 6.252-7.558 16.935 0 9.12 4.952 13.809 5.213 4.43 13.553 5.732l7.819 1.303z"/></svg>