<svg xmlns="http://www.w3.org/2000/svg" fill="none" viewBox="0 0 256 256"><path fill="#fff" d="M256 128c0 70.689-57.311 128-128 128C57.3 256 0 198.689 0 128 0 57.29 57.3 0 128 0s128 57.3 128 128"/><path fill="#1F7A55" fill-rule="evenodd" d="M127.593 229.885a101.842 101.842 0 1 0 0-203.685 101.842 101.842 0 0 0 0 203.685m0 5.361c59.208 0 107.202-47.995 107.202-107.203S186.801 20.84 127.593 20.84 20.39 68.835 20.39 128.043s47.995 107.203 107.203 107.203" clip-rule="evenodd"/><path fill="#1F7A55" d="M199.633 53.012c-17.067 0-33.662.021-50.278-.011-4.128 0-7.322 1.544-9.799 4.867-7.332 9.863-14.74 19.65-22.115 29.48l-10.378 13.819-.932-1.18c-6.808-9.09-13.7-18.148-20.444-27.304-2.251-3.044-4.985-4.502-8.823-4.46-10.977.13-21.966.044-32.943.044h-2.09l1.264 1.726C57.344 88.882 71.58 107.77 85.87 126.617c.826 1.104.869 1.769.022 2.895-14.237 18.889-28.43 37.821-42.635 56.742-.321.439-.621.89-1.104 1.587h2.09c10.978 0 21.966-.054 32.944.032a9.39 9.39 0 0 0 8.158-4.053c6.883-9.262 13.83-18.481 20.765-27.711.29-.376.611-.729.976-1.158l.943 1.179c10.463 13.968 20.969 27.926 31.389 41.916 2.552 3.431 5.789 5.06 10.056 5.049 15.651-.053 31.303-.021 46.954-.021h2.863l-56.282-74.978zm-26.458 136.426c.161.214.322.429.74.943-8.094 0-15.823.022-23.553-.053-.568 0-1.265-.644-1.672-1.18-8.791-11.663-17.56-23.359-26.329-35.044q-9.361-12.487-18.717-24.978l-.815-1.169c4.706-6.25 9.369-12.489 14.043-18.707 10.571-14.086 21.173-28.173 31.732-42.291a2.92 2.92 0 0 1 2.68-1.319c7.494.054 14.987.032 22.76.032-.397.59-.644 1.008-.922 1.394-14.955 19.832-29.91 39.676-44.908 59.497-.857 1.115-.911 1.823-.032 3.002 15.03 19.94 30.006 39.912 44.993 59.873"/></svg>