<svg xmlns="http://www.w3.org/2000/svg" fill="none" viewBox="0 0 256 256"><path fill="url(#paint0_radial_9885_1311)" d="M128 256c70.692 0 128-57.308 128-128S198.692 0 128 0 0 57.308 0 128s57.308 128 128 128"/><path fill="#fff" d="M79.046 161.65H60.83c1.488 28.439 25.28 53.16 67.473 53.16 42.007 0 68.772-23.048 68.772-52.788 0-56.505-85.315-53.345-85.315-86.059 0-9.108 6.877-19.888 22.862-19.888 17.844 0 38.847 13.941 40.334 31.784h18.03c-1.859-28.81-29.926-48.884-65.613-48.884-36.989 0-64.87 21.56-64.87 52.044 0 58.178 85.316 50.557 85.316 86.43 0 11.153-6.878 20.446-24.164 20.446-21.561 0-43.307-15.056-44.609-36.245m15.242-81.412c0 44.238 84.572 35.502 84.572 82.713 0 14.126-9.294 26.58-20.446 29.74 3.903-3.718 6.877-11.896 6.877-19.702 0-43.68-84.757-37.732-84.757-82.528 0-15.055 9.665-27.136 21.746-30.854-4.646 5.576-7.992 12.825-7.992 20.631"/><defs><radialGradient id="paint0_radial_9885_1311" cx="0" cy="0" r="1" gradientTransform="rotate(-90 263.36 135.36)scale(398.724)" gradientUnits="userSpaceOnUse"><stop stop-color="#FFEF79"/><stop offset="1" stop-color="#00C2A1"/></radialGradient></defs></svg>
