<svg xmlns="http://www.w3.org/2000/svg" fill="none" viewBox="0 0 256 256"><path fill="#fff" d="M128 256c70.692 0 128-57.308 128-128S198.692 0 128 0 0 57.308 0 128s57.308 128 128 128"/><path fill="url(#paint0_linear_4193_3525)" d="m72.264 51.448 146.763 100.228-36.296 53.665L35.967 104.324z"/><path fill="url(#paint1_linear_4193_3525)" d="M182.731 204.552c-12.625 18.151-55.234 11.049-95.475-17.362-40.242-28.411-63.125-64.714-50.5-83.655 12.625-18.151 55.234-11.049 95.475 17.362 40.242 28.411 62.335 65.503 50.5 83.655"/><path fill="url(#paint2_linear_4193_3525)" d="M219.027 151.676c-12.625 18.151-55.233 11.049-95.475-17.362-41.03-27.622-63.124-64.714-51.289-82.866C84.889 33.297 127.498 40.4 167.74 68.81c41.03 26.833 63.124 64.714 51.288 82.866"/><path fill="#fff" fill-rule="evenodd" d="M213.504 148.519c-11.047 15.784-49.711 7.892-86.796-18.151-37.874-26.044-59.968-59.19-48.921-74.974s49.71-7.892 86.795 18.152c37.086 26.043 59.179 59.189 48.922 74.973m-34.719-23.676c-5.523 7.892-24.46 3.946-43.397-8.681-18.149-12.627-29.195-29.2-23.672-37.092s24.461-3.946 43.398 8.681c18.148 12.627 29.195 29.2 23.671 37.092" clip-rule="evenodd"/><path fill="#fff" d="M69.107 69.6c0-.79-.789-1.579-1.578-.79-.789.79-1.578.79-1.578 1.579.79 2.367 1.578 3.946 1.578 5.524 0 .79.79 1.579 1.578.79.79 0 1.578-.79.79-1.579 0-1.578 0-3.157-.79-5.524m3.946 12.627c0-.79-.79-1.579-1.578-.79-.79.79-.79.79-.79 1.579 8.68 19.73 26.828 41.038 50.5 56.822.789.789 1.578 0 2.367 0 .789-.789 0-1.579 0-2.368-24.46-15.784-41.82-36.303-50.5-55.243m95.476 77.341c-.789 0-1.578 0-1.578.789s0 1.578.789 1.578c2.367.79 5.523 1.579 7.89 2.368.789 0 1.578 0 1.578-.789s0-1.579-.789-1.579c-2.367-.789-5.523-1.578-7.89-2.367m14.203 3.157c-.789 0-1.578.789-1.578 1.578s.789 1.578 1.578 1.578c6.312.79 13.414 1.579 18.937.79.789 0 1.578-.79 1.578-1.579s-.789-1.578-1.578-1.578c-6.312.789-12.625 0-18.937-.789"/><defs><linearGradient id="paint0_linear_4193_3525" x1="90.971" x2="146.771" y1="-23.706" y2="137.348" gradientUnits="userSpaceOnUse"><stop stop-color="#03B8FF"/><stop offset="1" stop-color="#FA52A0"/></linearGradient><linearGradient id="paint1_linear_4193_3525" x1="60.427" x2="111.302" y1="-11.446" y2="141.902" gradientUnits="userSpaceOnUse"><stop stop-color="#03B8FF"/><stop offset="1" stop-color="#FA52A0"/></linearGradient><linearGradient id="paint2_linear_4193_3525" x1="93.462" x2="168.81" y1="-23.978" y2="179.05" gradientUnits="userSpaceOnUse"><stop stop-color="#03B8FF"/><stop offset="1" stop-color="#FA52A0"/></linearGradient></defs></svg>