<svg xmlns="http://www.w3.org/2000/svg" fill="none" viewBox="0 0 256 256"><path fill="url(#paint0_linear_4193_4264)" d="M0 128c0 70.692 57.308 128 128 128s128-57.308 128-128S198.692 0 128 0 0 57.308 0 128"/><path fill="#fff" fill-rule="evenodd" d="M71.401 130.154q17.77 8.911 50.246-5.228 3.239-1.409 6.426-2.546V36.757zm56.672 12.701q-1.304.54-2.636 1.12-29.37 12.786-46.712 6.723a14.6 14.6 0 0 1-5.138-3.074l54.486 76.453z" clip-rule="evenodd"/><path fill="#9FB4FC" d="m128.073 224.077 56.123-79.056c-15.827-12.044-33-11.737-56.123-2.166zm52.017-101.262-52.017-86.058v85.623c20.278-7.238 38.866-6.355 52.017.435"/><defs><linearGradient id="paint0_linear_4193_4264" x1="104.031" x2="164.256" y1="264.16" y2="-6.347" gradientUnits="userSpaceOnUse"><stop stop-color="#3068EF"/><stop offset="1" stop-color="#1322AC"/></linearGradient></defs></svg>
