<svg xmlns="http://www.w3.org/2000/svg" fill="none" viewBox="0 0 256 256"><path fill="#fff" d="M128 256c70.692 0 128-57.308 128-128S198.692 0 128 0 0 57.308 0 128s57.308 128 128 128"/><path fill="#D382F7" d="M75.688 122.649H180.21v14.204H75.689zm-9.48-12.377 44.03-38.855 9.48 10.578-44.03 38.855zm73.47 64.899 44.03-38.856 9.48 10.578-44.03 38.855z"/><path fill="url(#paint0_radial_4193_3515)" d="M130.603 87.58a25.097 25.097 0 0 0 25.098-25.102 25.104 25.104 0 0 0-25.098-25.102 25.1 25.1 0 0 0-25.099 25.102 25.103 25.103 0 0 0 25.099 25.102"/><path fill="url(#paint1_radial_4193_3515)" d="M55.307 152.846a25.1 25.1 0 0 0 25.098-25.102 25.1 25.1 0 0 0-25.098-25.102 25.102 25.102 0 0 0 0 50.204"/><path fill="url(#paint2_radial_4193_3515)" d="M130.603 218.112a25.102 25.102 0 1 0-17.748-42.853 25.105 25.105 0 0 0 17.748 42.853"/><path fill="url(#paint3_radial_4193_3515)" d="M200.878 152.846a25.1 25.1 0 0 0 25.098-25.102 25.1 25.1 0 0 0-25.098-25.102 25.103 25.103 0 0 0 0 50.204"/><defs><radialGradient id="paint0_radial_4193_3515" cx="0" cy="0" r="1" gradientTransform="matrix(125.493 0 0 175.716 45.468 86.576)" gradientUnits="userSpaceOnUse"><stop stop-color="#F0F"/><stop offset="1" stop-color="#AC8FFF"/></radialGradient><radialGradient id="paint1_radial_4193_3515" cx="0" cy="0" r="1" gradientTransform="matrix(125.493 0 0 175.716 -29.828 151.842)" gradientUnits="userSpaceOnUse"><stop stop-color="#F0F"/><stop offset="1" stop-color="#AC8FFF"/></radialGradient><radialGradient id="paint2_radial_4193_3515" cx="0" cy="0" r="1" gradientTransform="matrix(125.493 0 0 175.716 45.468 217.108)" gradientUnits="userSpaceOnUse"><stop stop-color="#F0F"/><stop offset="1" stop-color="#AC8FFF"/></radialGradient><radialGradient id="paint3_radial_4193_3515" cx="0" cy="0" r="1" gradientTransform="matrix(125.493 0 0 175.716 115.743 151.842)" gradientUnits="userSpaceOnUse"><stop stop-color="#F0F"/><stop offset="1" stop-color="#AC8FFF"/></radialGradient></defs></svg>