<svg xmlns="http://www.w3.org/2000/svg" fill="none" viewBox="0 0 256 256"><path fill="#000" d="M128 256c70.692 0 128-57.308 128-128S198.692 0 128 0 0 57.308 0 128s57.308 128 128 128"/><path fill="#fff" d="M203.654 73.29a2835 2835 0 0 0-4.499 15.941q-.878 3.135-.917 4.248-.192 5.03 2.911 8.617c1.37 1.578 3.422 2.804 5.321 3.857q7.314 4.056 14.635 8.105a76 76 0 0 1 7.774 4.941 11.17 11.17 0 0 1 3.928 5.077q2.642 8.958-4.789 14.049-3.268 2.236-6.19 3.859l-15.566 8.641c-4.94 2.743-8.426 6.319-7.99 12.404.154 2.158 1.059 5.207 1.686 7.32l.008.025c2.039 6.866 3.967 13.705 5.653 20.667q.465 2.356.322 4.733c-.357 5.997-6.48 10.888-12.357 10.253q-4.105-.444-9.184-1.895a7307 7307 0 0 1-17.333-4.978c-5.563-1.607-10.724-.96-14.497 3.814-.917 1.159-1.749 2.644-2.467 3.936-3.952 7.127-7.719 14.539-12.335 21.253-1.827 2.652-4.042 4.43-7.233 5.083-4.132.847-8.716-.36-11.404-3.833q-2.808-3.627-5.711-8.934a978 978 0 0 0-7.73-13.857c-2.473-4.347-4.624-7.102-9.49-8.105-3.4-.7-7.126.587-10.359 1.538a764 764 0 0 1-17.4 4.886 33 33 0 0 1-7.116 1.092c-4.163.179-7.889-2.468-9.955-5.986-2.1-3.571-1.38-7.532-.492-11.343a570 570 0 0 1 5.38-19.12c.67-2.226 1.536-5.334 1.491-7.612-.1-5.166-3.066-8.628-7.485-11.053q-14.448-7.932-18.19-10.139c-3.988-2.351-8.213-4.952-9.3-9.829-.793-3.756.119-8.294 2.977-10.802q3.162-2.772 7.919-5.411c6.182-3.427 12.643-6.658 18.6-10.461 3.825-2.441 6.202-7.164 5.362-11.706q-.593-3.206-1.79-7.228a973 973 0 0 1-4.365-15.11c-1.22-5.04-2.805-10.189.516-14.733q4.285-5.868 11.25-4.968c1.776.23 4.56.813 6.636 1.383 6.057 1.661 13.306 3.97 20.924 5.84 3.733.917 7.349.256 10.34-1.975 1.997-1.487 3.444-3.843 4.677-6.087q5.97-10.869 9.932-17.695c2.246-3.873 4.924-7.793 9.686-8.71 8.945-1.716 12.598 4.694 16.281 11.247a3372 3372 0 0 1 8.681 15.557c2.417 4.36 5.212 7.437 10.354 8.015 2.973.333 6.531-.8 9.522-1.703 3.457-1.045 8.732-2.474 14.619-4.16q4.547-1.302 8.705-1.789c4.505-.53 8.77 2.124 11 5.94q1.862 3.183 1.274 7.045a73 73 0 0 1-2.22 9.856M67.553 105.465c-2.441 4.63-6.007 7.974-10.115 10.333q-3.625 2.082-16.9 9.462a98 98 0 0 0-4.765 2.828q-.21.13-.003.266a84 84 0 0 0 5.26 3.174 2383 2383 0 0 1 15.24 8.537q3.105 1.754 4.361 2.732 8.004 6.237 9.416 16.391c.524 3.75-.05 7.546-1.026 11.056-1.668 5.986-4.542 14.843-6.326 22.913a.19.19 0 0 0 .05.176q.034.034.082.048.046.013.094.003c7.495-1.626 14.946-4.03 22.338-6.112 4.618-1.301 8.995-1.945 13.73-.89q10.325 2.3 15.893 11.247 1.524 2.445 3.989 6.871 2.932 5.435 7.131 12.767a33 33 0 0 0 1.925 3.009q.114.16.218-.005c3.122-4.974 6.607-11.421 9.793-17.181q2.63-4.965 4.813-7.843c5.466-7.21 15.102-10.771 24.063-8.897q3.613.755 7.78 1.988 4.545 1.347 14.683 4.123 1.965.539 3.922.941a.098.098 0 0 0 .114-.117c-1.523-7.092-3.797-14.121-5.82-21.088q-1.125-3.877-1.537-6.769c-1.346-9.446 3.201-18.921 11.314-23.918 7.527-4.638 15.565-8.406 23.008-13.182a.12.12 0 0 0 .056-.102.12.12 0 0 0-.056-.104c-6.464-4.078-13.335-7.636-20.02-11.343-6.152-3.412-10.643-7.572-13.13-14.302-2.108-6.047-1.534-11.516.168-17.438q3.696-12.847 5.044-17.674.474-1.692.936-4.168.03-.147-.12-.117c-6.815 1.41-13.616 3.619-20.303 5.565q-4.899 1.423-7.251 1.732c-10.982 1.44-20.283-3.777-25.59-13.284a13805 13805 0 0 1-8.788-15.772 75 75 0 0 0-3.13-5.126q-.098-.147-.196 0-1.705 2.572-3.595 5.962a3484 3484 0 0 1-7.945 14.174q-1.36 2.412-2.606 4.169c-5.52 7.78-15.23 11.516-24.571 9.626-1.452-.293-2.87-.597-4.334-1.018a3302 3302 0 0 0-17.688-5.024 52 52 0 0 0-4.355-.988q-.135-.024-.11.109c1.282 6.031 3.197 12.103 5.837 21.234 2.127 7.361 2.646 13.902-.978 21.026"/><path fill="#061819" d="M147.587 110.462c5.845-.29 12.109.864 17.041 4.086 2.186 1.426 2.8 3.39 1.218 5.701-1.651 1.506-3.347 2.871-5.717 1.706q-2.334-1.146-3.204-1.418c-5.405-1.69-12.669-1.581-17.442 1.607q-1.407.939-1.41 3.007-.018 16.164.301 27.963c.048 1.717-.776 2.423-2.436 2.412a424 424 0 0 0-5.956-.005q-.284 0-.292-.285-.33-13.26-.383-26.149c-.013-2.902.032-5.85.263-8.353.112-1.22.694-2.396 1.532-3.379 4.041-4.742 10.444-6.642 16.485-6.893m-40.482 1.221c2.199.211 6.684.704 8.383 2.143 1.638 1.386 1.444 3.665.503 5.546-2.01 2.865-4.696 1.927-7.677 1.503q-6.216-.882-11.81 1.664-1.514.687-1.966.741c-1.627.191-2.722-.904-3.937-1.794-2.314-1.695-2.558-4.603-.008-6.248 4.7-3.027 11.063-3.941 16.512-3.555"/><path fill="#061819" fill-rule="evenodd" d="M67.553 105.465c-2.441 4.63-6.007 7.974-10.115 10.333q-3.625 2.082-16.9 9.462a98 98 0 0 0-4.765 2.828q-.21.13-.003.266a84 84 0 0 0 5.26 3.174 2383 2383 0 0 1 15.24 8.537q3.105 1.754 4.361 2.732 8.004 6.237 9.416 16.391c.524 3.75-.05 7.546-1.026 11.056-1.668 5.986-4.542 14.843-6.326 22.913a.19.19 0 0 0 .05.176q.034.034.082.048.046.013.094.003c7.495-1.626 14.946-4.03 22.338-6.112 4.618-1.301 8.995-1.945 13.73-.89q10.325 2.3 15.893 11.247 1.524 2.445 3.989 6.871 2.932 5.435 7.131 12.767a33 33 0 0 0 1.925 3.009q.114.16.218-.005c3.122-4.974 6.607-11.421 9.793-17.181q2.63-4.965 4.813-7.843c5.466-7.21 15.102-10.771 24.063-8.897q3.613.755 7.78 1.988 4.545 1.347 14.683 4.123 1.965.539 3.922.941a.098.098 0 0 0 .114-.117c-1.523-7.092-3.797-14.121-5.82-21.088q-1.125-3.877-1.537-6.769c-1.346-9.446 3.201-18.921 11.314-23.918 7.527-4.638 15.565-8.406 23.008-13.182a.12.12 0 0 0 .056-.102.12.12 0 0 0-.056-.104c-6.464-4.078-13.335-7.636-20.02-11.343-6.152-3.412-10.643-7.572-13.13-14.302-2.108-6.047-1.534-11.516.168-17.438q3.696-12.847 5.044-17.674.474-1.692.936-4.168.03-.147-.12-.117c-6.815 1.41-13.616 3.619-20.303 5.565q-4.899 1.423-7.251 1.732c-10.982 1.44-20.283-3.777-25.59-13.284a13805 13805 0 0 1-8.788-15.772 75 75 0 0 0-3.13-5.126q-.098-.147-.196 0-1.705 2.572-3.595 5.962a3484 3484 0 0 1-7.945 14.174q-1.36 2.412-2.606 4.169c-5.52 7.78-15.23 11.516-24.571 9.626-1.452-.293-2.87-.597-4.334-1.018a3302 3302 0 0 0-17.688-5.024 52 52 0 0 0-4.355-.988q-.135-.024-.11.109c1.282 6.031 3.197 12.103 5.837 21.234 2.127 7.361 2.646 13.902-.978 21.026m78.173-34.182c-23.202-7.37-48.88.357-64.158 19.4a60.4 60.4 0 0 0-8.176 13.527c-9.166 21.167-5.35 45.322 9.694 62.654 10.633 12.25 26.446 19.744 42.581 20.275 45.167 1.484 75.538-45.283 55.279-86.128q-11.614-21.956-35.22-29.728" clip-rule="evenodd"/><path fill="#fff" fill-rule="evenodd" d="M81.568 90.684c15.278-19.044 40.956-26.77 64.158-19.4q23.606 7.77 35.22 29.727c20.259 40.845-10.112 87.612-55.279 86.128-16.135-.531-31.948-8.025-42.58-20.275-15.045-17.332-18.86-41.487-9.695-62.654a60.4 60.4 0 0 1 8.176-13.526m49.534 26.671c4.041-4.742 10.444-6.642 16.485-6.893 5.845-.29 12.109.864 17.041 4.086 2.186 1.426 2.8 3.39 1.218 5.701-1.651 1.506-3.347 2.871-5.717 1.706q-2.334-1.146-3.204-1.418c-5.405-1.69-12.669-1.581-17.442 1.607q-1.407.939-1.41 3.007-.018 16.164.301 27.963c.048 1.717-.776 2.423-2.436 2.412a424 424 0 0 0-5.956-.005q-.284 0-.292-.285-.33-13.26-.383-26.149c-.013-2.902.032-5.85.263-8.353.112-1.22.694-2.396 1.532-3.379m-40.51-2.117c4.702-3.027 11.064-3.941 16.513-3.555 2.199.211 6.684.704 8.383 2.143 1.638 1.386 1.444 3.665.503 5.546-2.01 2.865-4.696 1.927-7.677 1.503q-6.216-.882-11.81 1.664-1.514.687-1.966.741c-1.627.191-2.722-.904-3.937-1.794-2.314-1.695-2.558-4.603-.008-6.248" clip-rule="evenodd"/></svg>
