<svg xmlns="http://www.w3.org/2000/svg" fill="none" viewBox="0 0 512 512"><path fill="#000" d="M256 512c141.385 0 256-114.615 256-256S397.385 0 256 0 0 114.615 0 256s114.615 256 256 256"/><path fill="#fff" d="M407.308 146.58a5781 5781 0 0 0-8.998 31.882q-1.755 6.268-1.835 8.497-.383 10.059 5.823 17.233c2.739 3.156 6.844 5.608 10.641 7.714q14.63 8.113 29.27 16.21a151 151 0 0 1 15.55 9.882q5.424 3.934 7.854 10.155 5.286 17.916-9.577 28.097-6.536 4.472-12.38 7.718l-31.131 17.282c-9.881 5.485-16.853 12.639-15.981 24.808.307 4.316 2.118 10.414 3.372 14.639l.016.052c4.079 13.731 7.934 27.409 11.306 41.333q.93 4.712.643 9.467c-.712 11.993-12.96 21.775-24.712 20.506q-8.211-.89-18.368-3.79a14615 14615 0 0 1-34.668-9.957c-11.125-3.215-21.447-1.919-28.993 7.628-1.835 2.318-3.499 5.287-4.935 7.873-7.902 14.253-15.438 29.078-24.67 42.505-3.653 5.304-8.083 8.859-14.464 10.165-8.264 1.695-17.432-.719-22.809-7.665q-5.615-7.254-11.423-17.868a1939 1939 0 0 0-15.459-27.713c-4.945-8.694-9.248-14.206-18.979-16.21-6.802-1.402-14.252 1.173-20.719 3.076a1534 1534 0 0 1-34.8 9.77 65.7 65.7 0 0 1-14.231 2.186c-8.328.357-15.778-4.936-19.91-11.972-4.201-7.143-2.76-15.064-.984-22.687a1139 1139 0 0 1 10.758-38.241c1.34-4.451 3.074-10.666 2.983-15.224-.202-10.33-6.131-17.255-14.97-22.105q-28.897-15.864-36.38-20.278c-7.976-4.701-16.426-9.904-18.601-19.658-1.585-7.511.239-16.589 5.956-21.605q6.323-5.544 15.836-10.821c12.365-6.855 25.287-13.315 37.199-20.922 7.653-4.883 12.407-14.328 10.726-23.412q-1.185-6.412-3.579-14.456a1958 1958 0 0 1-8.732-30.218c-2.441-10.08-5.61-20.379 1.032-29.467q8.573-11.739 22.5-9.936c3.553.458 9.12 1.625 13.274 2.766 12.114 3.321 26.61 7.937 41.846 11.679 7.467 1.834 14.699.512 20.682-3.95 3.993-2.974 6.886-7.686 9.354-12.174q11.939-21.738 19.862-35.39c4.494-7.745 9.849-15.586 19.373-17.42 17.89-3.433 25.197 9.387 32.562 22.495a6845 6845 0 0 1 17.363 31.114c4.834 8.721 10.423 14.872 20.708 16.029 5.945.666 13.06-1.599 19.043-3.406 6.913-2.09 17.464-4.947 29.238-8.321q9.093-2.602 17.411-3.577c9.008-1.06 17.538 4.248 22 11.882q3.723 6.364 2.547 14.088a145 145 0 0 1-4.44 19.712m-272.203 64.35c-4.881 9.259-12.013 15.949-20.229 20.666q-7.248 4.164-33.8 18.924a197 197 0 0 0-9.53 5.655q-.42.261-.005.533a169 169 0 0 0 10.518 6.349 4734 4734 0 0 1 30.483 17.074q6.206 3.507 8.721 5.463 16.007 12.473 18.831 32.783c1.047 7.5-.101 15.09-2.053 22.111-3.334 11.972-9.083 29.685-12.651 45.826a.37.37 0 0 0 .005.189.383.383 0 0 0 .447.264c14.991-3.252 29.892-8.06 44.675-12.223 9.238-2.601 17.991-3.891 27.462-1.78q20.649 4.6 31.785 22.495 3.048 4.887 7.977 13.742 5.865 10.868 14.263 25.533 1.936 3.384 3.85 6.018.228.32.436-.011c6.243-9.947 13.215-22.841 19.586-34.36q5.259-9.931 9.625-15.688c10.934-14.419 30.206-21.54 48.127-17.793q7.227 1.509 15.56 3.976 9.089 2.693 29.366 8.247 3.93 1.077 7.844 1.881a.196.196 0 0 0 .228-.234c-3.047-14.185-7.594-28.241-11.64-42.175q-2.25-7.757-3.074-13.539c-2.691-18.892 6.403-37.842 22.627-47.836 15.055-9.275 31.132-16.813 46.016-26.365a.24.24 0 0 0 .113-.203.25.25 0 0 0-.113-.207c-12.927-8.156-26.669-15.272-40.038-22.687-12.306-6.823-21.288-15.144-26.26-28.603-4.217-12.095-3.068-23.034.335-34.878q7.392-25.693 10.088-35.346.946-3.386 1.872-8.337.058-.294-.239-.235c-13.63 2.82-27.233 7.239-40.608 11.13q-9.795 2.847-14.502 3.465c-21.963 2.879-40.565-7.553-51.179-26.567a26158 26158 0 0 1-17.576-31.546 150 150 0 0 0-6.259-10.25q-.196-.294-.394 0-3.409 5.143-7.189 11.924a6968 6968 0 0 1-15.89 28.347q-2.718 4.824-5.212 8.337c-11.04 15.56-30.461 23.033-49.143 19.254-2.903-.586-5.738-1.194-8.668-2.036q-25.457-7.282-35.375-10.048-3.738-1.045-8.71-1.978-.272-.048-.218.219c2.563 12.063 6.392 24.206 11.672 42.468 4.255 14.723 5.292 27.804-1.957 42.052"/><path fill="#061819" d="M295.174 220.925c11.689-.581 24.218 1.727 34.083 8.171 4.371 2.852 5.6 6.781 2.435 11.402-3.302 3.012-6.695 5.741-11.433 3.412q-4.67-2.292-6.408-2.836c-10.811-3.38-25.34-3.161-34.886 3.214q-2.813 1.876-2.818 6.013-.038 32.33.601 55.928c.096 3.432-1.553 4.845-4.871 4.824a833 833 0 0 0-11.912-.011q-.57 0-.585-.57a2521 2521 0 0 1-.766-52.298c-.027-5.805.064-11.7.526-16.706.224-2.441 1.388-4.792 3.063-6.759 8.084-9.483 20.889-13.283 32.971-13.784m-80.965 2.441c4.398.421 13.37 1.407 16.768 4.286 3.275 2.772 2.887 7.329 1.005 11.093-4.021 5.73-9.392 3.853-15.353 3.006q-12.433-1.764-23.622 3.326-3.026 1.375-3.93 1.482c-3.255.384-5.446-1.807-7.876-3.587-4.627-3.391-5.116-9.206-.016-12.495 9.402-6.056 22.128-7.884 33.024-7.111"/><path fill="#061819" fill-rule="evenodd" d="M135.105 210.93c-4.881 9.259-12.013 15.949-20.229 20.666q-7.248 4.164-33.8 18.924a197 197 0 0 0-9.53 5.655q-.42.261-.005.533a169 169 0 0 0 10.518 6.349 4734 4734 0 0 1 30.483 17.074q6.206 3.507 8.721 5.463 16.006 12.473 18.831 32.783c1.047 7.5-.101 15.09-2.053 22.111-3.334 11.972-9.083 29.685-12.651 45.826a.37.37 0 0 0 .005.189.383.383 0 0 0 .447.264c14.991-3.252 29.892-8.06 44.675-12.223 9.238-2.601 17.991-3.891 27.462-1.78q20.649 4.6 31.785 22.495 3.048 4.887 7.977 13.742 5.865 10.868 14.263 25.533 1.936 3.384 3.85 6.018.228.32.436-.011c6.243-9.947 13.215-22.841 19.586-34.36q5.259-9.931 9.625-15.688c10.934-14.419 30.206-21.54 48.127-17.793q7.227 1.509 15.56 3.976 9.089 2.693 29.366 8.247 3.93 1.077 7.844 1.881a.196.196 0 0 0 .228-.234c-3.047-14.185-7.594-28.241-11.64-42.175q-2.25-7.757-3.074-13.539c-2.691-18.892 6.403-37.842 22.627-47.836 15.055-9.275 31.132-16.813 46.016-26.365a.24.24 0 0 0 .113-.203.25.25 0 0 0-.113-.207c-12.927-8.156-26.669-15.272-40.038-22.687-12.306-6.823-21.288-15.144-26.26-28.603-4.217-12.095-3.068-23.034.335-34.878q7.392-25.693 10.088-35.346.946-3.386 1.872-8.337.058-.294-.239-.235c-13.63 2.82-27.233 7.239-40.608 11.13q-9.795 2.847-14.502 3.465c-21.963 2.879-40.565-7.553-51.179-26.567a26158 26158 0 0 1-17.576-31.546 150 150 0 0 0-6.259-10.25q-.196-.294-.394 0-3.409 5.143-7.189 11.924a6968 6968 0 0 1-15.89 28.347q-2.718 4.824-5.212 8.337c-11.04 15.56-30.461 23.033-49.143 19.254-2.903-.586-5.738-1.194-8.668-2.036q-25.457-7.282-35.375-10.048-3.738-1.045-8.71-1.978-.272-.048-.218.219c2.563 12.063 6.392 24.206 11.672 42.468 4.255 14.723 5.292 27.804-1.957 42.052m156.347-68.364c-46.404-14.738-97.759.715-128.316 38.801a120.8 120.8 0 0 0-16.352 27.052c-18.331 42.335-10.7 90.645 19.389 125.31 21.266 24.499 52.892 39.488 85.161 40.549 90.335 2.969 151.076-90.565 110.559-172.255q-23.229-43.913-70.441-59.457" clip-rule="evenodd"/><path fill="#fff" fill-rule="evenodd" d="M163.136 181.367c30.557-38.086 81.912-53.539 128.316-38.801q47.212 15.545 70.441 59.457c40.517 81.69-20.224 175.224-110.559 172.255-32.269-1.061-63.895-16.05-85.161-40.549-30.089-34.665-37.72-82.975-19.389-125.31a120.8 120.8 0 0 1 16.352-27.052m99.067 53.342c8.084-9.483 20.889-13.283 32.971-13.784 11.689-.581 24.218 1.727 34.083 8.171 4.371 2.852 5.6 6.781 2.435 11.402-3.302 3.012-6.695 5.741-11.433 3.412q-4.67-2.292-6.408-2.836c-10.811-3.38-25.34-3.161-34.886 3.214q-2.813 1.876-2.818 6.013-.038 32.33.601 55.928c.096 3.432-1.553 4.845-4.871 4.824a833 833 0 0 0-11.912-.011q-.57 0-.585-.57a2521 2521 0 0 1-.766-52.298c-.027-5.805.064-11.7.526-16.706.224-2.441 1.388-4.792 3.063-6.759m-81.018-4.232c9.402-6.056 22.128-7.884 33.024-7.111 4.398.421 13.37 1.407 16.768 4.286 3.275 2.772 2.887 7.329 1.005 11.093-4.021 5.73-9.392 3.853-15.353 3.006q-12.433-1.764-23.622 3.326-3.026 1.375-3.93 1.482c-3.255.384-5.446-1.807-7.876-3.587-4.627-3.391-5.116-9.206-.016-12.495" clip-rule="evenodd"/></svg>