<svg xmlns="http://www.w3.org/2000/svg" fill="none" viewBox="0 0 256 256"><path fill="#fff" fill-rule="evenodd" d="M256 128c0 70.692-57.308 128-128 128S0 198.692 0 128 57.308 0 128 0s128 57.308 128 128" clip-rule="evenodd"/><path fill="#000" d="M128 54.094c-39.798 0-72.06 30.582-72.06 68.307H20.5C20.5 66.123 68.63 20.5 128 20.5c59.371 0 107.5 45.623 107.5 101.901h-35.439c0-37.725-32.263-68.307-72.061-68.307m66.81 110.129c-11.529 22.089-36.417 37.683-65.628 37.683-29.212 0-54.1-15.594-65.63-37.683L31.79 179.121c17.506 33.538 54.703 56.379 97.393 56.379s79.886-22.841 97.392-56.379z"/><path fill="#000" d="M113.58 179.5v-62.04h-24.6V95.5h77.52v21.96h-24.6v62.04z"/></svg>