<svg width="256" height="256" viewBox="0 0 256 256" fill="none" xmlns="http://www.w3.org/2000/svg">
<path fill-rule="evenodd" clip-rule="evenodd" d="M256 128C256 198.692 198.692 256 128 256C57.3075 256 0 198.692 0 128C0 57.3075 57.3075 0 128 0C198.692 0 256 57.3075 256 128Z" fill="white"/>
<path d="M128 54.0938C88.202 54.0938 55.9396 84.676 55.9396 122.401H20.5C20.5 66.1227 68.6294 20.5 128 20.5C187.371 20.5 235.5 66.1227 235.5 122.401H200.061C200.061 84.676 167.798 54.0938 128 54.0938Z" fill="black"/>
<path d="M194.81 164.223C183.281 186.312 158.393 201.906 129.182 201.906C99.9695 201.906 75.0828 186.312 63.5524 164.223L31.7885 179.121C49.2949 212.659 86.4919 235.5 129.182 235.5C171.871 235.5 209.068 212.659 226.574 179.121L194.81 164.223Z" fill="black"/>
<path d="M113.58 179.5V117.46H88.98V95.5H166.5V117.46H141.9V179.5H113.58Z" fill="black"/>
</svg>
