<svg xmlns="http://www.w3.org/2000/svg" fill="none" viewBox="0 0 256 256"><path fill="#1D2229" d="M128 256c70.687 0 127.989-57.313 127.989-128S198.687 0 128 0 0 57.313 0 128s57.302 128 128 128"/><path fill="#fff" d="M100.572 116.608H77.719v22.784h22.853zM77.719 93.825H54.866v22.783h22.853zm-22.866 22.783H32v22.784h22.853zm22.866 22.784H54.866v22.783h22.853zm129.899-40.671c-1.617-16.749-16.119-22.372-34.438-23.984V64.012h-14.186v10.12c-3.732 0-7.537.072-11.33.145V64h-14.173v10.725c-3.076.06-21.942.049-21.942.049l-.049 12.47 11.84.06v81.719h-11.828l-.109 12.3c3.44 0 18.732.061 22.051.085V192h14.174v-10.337c3.89.084 7.658.121 11.329.109V192h14.199v-10.543c23.85-1.358 40.552-7.345 42.631-29.668 1.689-17.984-6.808-26.007-20.337-29.267 8.229-4.193 13.371-11.537 12.168-23.801m-19.875 50.257c0 17.572-30.171 15.561-39.799 15.573v-31.146c9.628 0 39.787-2.739 39.799 15.573m-6.589-43.943c0 15.997-25.175 14.118-33.186 14.118V90.892c8.023 0 33.186-2.52 33.186 14.143"/></svg>