<svg xmlns="http://www.w3.org/2000/svg" fill="none" viewBox="0 0 256 256"><path fill="#1D2229" d="M128.006 256C198.696 256 256 198.687 256 128S198.696 0 128.006 0 0 57.313 0 128s57.304 128 128.006 128"/><path fill="#fff" d="M100.577 116.608H77.722v22.784h22.855zM77.722 93.825H54.868v22.783h22.854zm-22.866 22.783H32v22.784h22.855zm22.866 22.784H54.868v22.783h22.854zm129.905-40.671c-1.617-16.749-16.119-22.372-34.439-23.984V64.012h-14.187v10.12c-3.732 0-7.537.072-11.33.145V64h-14.175v10.725c-3.075.06-21.942.049-21.942.049l-.049 12.47 11.841.06v81.719h-11.829l-.109 12.3c3.44 0 18.733.061 22.052.085V192h14.175v-10.337c3.89.084 7.658.121 11.329.109V192h14.199v-10.543c23.851-1.358 40.555-7.345 42.633-29.668 1.69-17.984-6.807-26.007-20.338-29.267 8.23-4.193 13.373-11.537 12.169-23.801m-19.876 50.257c0 17.572-30.172 15.561-39.8 15.573v-31.146c9.628 0 39.788-2.739 39.8 15.573m-6.589-43.943c0 15.997-25.176 14.118-33.187 14.118V90.892c8.023 0 33.187-2.52 33.187 14.143"/></svg>