<svg xmlns="http://www.w3.org/2000/svg" fill="none" viewBox="0 0 256 256"><path fill="#F565FA" d="M128 256c45.56 0 85.56-23.803 108.243-59.651C248.757 176.574 256 153.133 256 128v-.188C255.898 57.206 198.63 0 128 0 57.38 0 .117 57.19 0 127.784V128c0 25.092 7.22 48.497 19.695 68.252C42.368 232.154 82.4 256 128 256"/><path fill="#fff" d="M215 70.5v19.156h-19.055c-10.656 0-19.306 8.764-19.306 19.281v96.407h-19.556V89.531h-19.306V224.5h-19.18V89.656h-19.18V205.22H79.986v-96.282c0-10.642-8.65-19.28-19.306-19.28H41.5V70.5z"/></svg>