<svg xmlns="http://www.w3.org/2000/svg" fill="none" viewBox="0 0 256 256"><path fill="#000" d="M128 256c70.692 0 128-57.308 128-128S198.692 0 128 0 0 57.308 0 128s57.308 128 128 128"/><path fill="url(#paint0_linear_9890_1929)" fill-rule="evenodd" d="m178.504 203.655-.2.196c-.406 3.103-1.528 5.658-3.422 7.552-8.569 8.568-30.673 1.335-55.861-16.447l6.293-6.294c6.385 4.434 12.496 8.112 18.136 10.948 7.609 3.827 13.902 5.89 18.575 6.461 4.806.587 6.326-.533 6.66-.867.331-.332 1.452-1.852.865-6.658-.571-4.672-2.634-10.967-6.46-18.575-7.171-14.26-19.723-31.539-36.264-48.603l-76.042 76.044 1.456-13.851 68.387-68.39c-17.062-16.543-34.34-29.097-48.599-36.266-7.608-3.826-13.902-5.89-18.575-6.46-4.806-.588-6.326.533-6.658.865-.333.333-1.454 1.853-.867 6.66.573 4.673 2.635 10.966 6.462 18.575 2.835 5.64 6.513 11.752 10.947 18.137l-6.294 6.294c-17.78-25.19-25.014-47.294-16.446-55.864 1.895-1.895 4.453-3.017 7.56-3.423q.09-.098.187-.192L188 64zM131.462 76.632l40.453-2.752-19.059 19.061c-7.693-7.32-15.202-12.61-21.394-16.31m-17.052 1.158-39.632 2.696c15.511 7.581 34.021 20.994 52.048 38.487l19.83-19.832c-8.304-7.878-16.355-13.223-22.504-16.657a87 87 0 0 0-8.18-4.052 52 52 0 0 0-1.562-.642m38.392 27.602-19.778 19.778c17.497 18.033 30.913 36.549 38.493 52.064l2.78-40.903a60 60 0 0 0-.704-1.464 103 103 0 0 0-4.399-7.915c-3.55-5.808-8.886-13.435-16.391-21.561m6.202-6.202c7.251 7.818 12.607 15.226 16.378 21.179l2.74-40.299zm-71.492 23.978-29.288 29.289-1.455 13.851 39.092-39.093zm37.272 32.973-39.044 39.043 13.851-1.455 29.808-29.811z" clip-rule="evenodd"/><defs><linearGradient id="paint0_linear_9890_1929" x1="37" x2="188" y1="64" y2="215" gradientUnits="userSpaceOnUse"><stop stop-color="#FFB0AB"/><stop offset=".464" stop-color="#FF6D63"/><stop offset="1" stop-color="#FF4337"/></linearGradient></defs></svg>
