<svg xmlns="http://www.w3.org/2000/svg" fill="none" viewBox="0 0 256 256"><path fill="#2E5CFF" fill-rule="evenodd" d="M256 128c0 70.692-57.308 128-128 128S0 198.692 0 128 57.308 0 128 0s128 57.308 128 128" clip-rule="evenodd"/><path fill="#fff" fill-rule="evenodd" d="M153.208 119.64c-3.52 15.733-11.539 29.953-23.23 41.147 2.891 2.597 6.009 4.967 9.252 7.11l.043-.041.034-.031c.047-.042.091-.08.124-.13 11.942-11.975 20.414-26.901 24.461-43.164a94.4 94.4 0 0 0 2.414-14.396c.252-2.799.378-5.622.378-8.346 0-29.65-14.255-57.787-38.113-75.285l-.126-.1-.428-.404-.553.504C103.581 44.002 89.351 72.14 89.351 101.79c0 2.118.076 4.287.227 6.48 3.67-1.614 7.466-3 11.313-4.16l-.007-.215a69 69 0 0 1-.044-2.105c0-22.716 9.579-44.6 26.272-60.056l.905-.833.906.833c16.693 15.455 26.246 37.34 26.246 60.056 0 1.034-.025 2.143-.075 3.379a82.4 82.4 0 0 1-1.886 14.472m-87.313 7.084c-17.096 15.38-27.856 36.483-30.32 59.376l-.075.63.654.328C48.07 192.327 60.69 195 73.714 195c18.73 0 36.629-5.496 51.965-15.884-3.218-2.37-6.311-4.992-9.252-7.791a81 81 0 0 1-42.713 12.153 80.5 80.5 0 0 1-23.507-3.48l-1.181-.353-.78-.227.151-.68.276-1.21c5.356-23.196 20.49-42.837 41.507-53.855a80 80 0 0 1 13.526-5.597 81.5 81.5 0 0 1 24.285-3.681c7.794 0 15.487 1.084 22.879 3.252.779-3.782 1.256-7.664 1.483-11.547a92.4 92.4 0 0 0-24.362-3.253 93 93 0 0 0-25.391 3.53 94 94 0 0 0-13.677 5.093 92.4 92.4 0 0 0-23.028 15.254m153.976 60.306c-11.916 5.294-24.562 7.967-37.585 7.967-19.333 0-37.836-5.874-53.524-16.968a96.5 96.5 0 0 1-11.238-9.379l-.251-.252c-.151-.169-.315-.327-.474-.481l-.23-.225c-11.69-11.724-20.037-26.272-24.185-42.131a79 79 0 0 1 10.761-4.488c3.796 15.633 12.042 29.701 23.958 40.719a81.7 81.7 0 0 0 11.59 8.951 80.87 80.87 0 0 0 43.593 12.732c8.272 0 16.442-1.235 24.286-3.706l1.182-.378-.277-1.211c-5.154-23.145-19.987-42.761-40.753-54.005a92 92 0 0 0 2.037-11.876 92.5 92.5 0 0 1 21.344 14.422c17.095 15.38 27.856 36.458 30.319 59.376l.076.681-.578.226z" clip-rule="evenodd"/></svg>
