<svg xmlns="http://www.w3.org/2000/svg" fill="none" viewBox="0 0 256 256"><path fill="#000" fill-rule="evenodd" d="M256 128c0 70.692-57.308 128-128 128S0 198.692 0 128 57.308 0 128 0s128 57.308 128 128m-78.968-60.597H78.64c-2.507 0-7.383.529-11.219 2.415-4.36 2.144-6.956 4.482-8.836 8.245s-2.869 7.172-2.507 11.913c.298 3.897 2.034 7.283 3.298 9.749q.246.479.463.91l60.79 106.594c1.88 2.508 4.386 3.762 6.893 3.762 3.134 0 5.641-1.254 6.894-3.762l62.043-106.594c2.507-3.762 3.134-7.524 3.134-11.286 0-4.39-.48-8.439-3.158-12.516-2.378-3.62-4.823-5.034-8.75-6.922-3.852-1.852-6.893-2.508-10.653-2.508m-57.03 15.049H78.64c-.47 0-.863-.007-1.203-.014-1.48-.026-1.95-.035-3.184.64-1.215.666-1.873 1.277-2.507 2.509-.518 1.006-.515 1.594-.51 2.533l.001.304c0 .544.415 1.37 1.417 3.371l.345.689 47.003 81.513zm15.041.627v91.545l47.629-82.14c.627-1.254.627-2.508.627-3.762s-.008-2.051-.627-3.135l-.127-.225c-.417-.74-.609-1.084-1.753-1.656-1.254-.627-2.507-.627-4.387-.627z" clip-rule="evenodd"/></svg>