<svg xmlns="http://www.w3.org/2000/svg" fill="none" viewBox="0 0 256 256"><path fill="#08C" d="M128 256c70.693 0 128-57.308 128-128S198.693 0 128 0C57.308 0 0 57.308 0 128s57.308 128 128 128"/><path fill="#fff" fill-rule="evenodd" d="M78.64 67.403h98.392c3.76 0 6.801.656 10.654 2.508 3.926 1.888 6.371 3.302 8.749 6.922 2.678 4.078 3.158 8.127 3.158 12.516 0 3.762-.627 7.524-3.134 11.286l-62.043 106.594c-1.253 2.508-3.76 3.762-6.894 3.762-2.507 0-5.013-1.254-6.893-3.762l-60.79-106.594c-1.254-2.508-3.424-6.258-3.76-10.66-.363-4.74.626-8.15 2.506-11.912s4.477-6.1 8.836-8.245c3.836-1.886 8.712-2.415 11.219-2.415m41.362 15.049H78.64c-2.507 0-2.869-.204-4.387.627-1.215.665-1.873 1.276-2.507 2.508-.572 1.11-.508 1.711-.508 2.837 0 .602.508 1.552 1.761 4.06l47.003 81.513zm15.041 0v92.172l47.629-82.14c.627-1.254.627-2.508.627-3.762s-.008-2.051-.627-3.135c-.515-.902-.627-1.254-1.88-1.881-1.254-.627-2.507-.627-4.387-.627h-41.362z" clip-rule="evenodd"/></svg>
