<svg xmlns="http://www.w3.org/2000/svg" fill="none" viewBox="0 0 256 256"><path fill="#fff" d="M128 256c70.692 0 128-57.308 128-128S198.692 0 128 0 0 57.308 0 128s57.308 128 128 128"/><path fill="#356EFF" d="M176.15 72.5c-6.296 0-12.067 3.339-15.171 8.715l-39.402 67.597H92.205V183.5h39.521c6.251 0 12.027-3.309 15.15-8.679l39.331-67.633H215.5V72.5z"/><path fill="#356EFF" d="M70.697 183.5 40.5 166.199l49.228-84.984a17.36 17.36 0 0 1 15.077-8.715h39.104v34.688h-29.111zm-26.22-111v35.679c19.777 0 35.796-15.967 35.796-35.679zm153.125 91.179c9.885 0 17.898-7.987 17.898-17.84S207.487 128 197.602 128s-17.898 7.987-17.898 17.839c0 9.853 8.014 17.84 17.898 17.84"/></svg>