<svg xmlns="http://www.w3.org/2000/svg" fill="none" viewBox="0 0 256 256"><path fill="#356EFF" d="M128 256c70.692 0 128-57.308 128-128S198.692 0 128 0 0 57.308 0 128s57.308 128 128 128"/><path fill="#fff" d="M52.804 68.174a.08.08 0 0 1 .082-.078h50.127q.07 0 .07.07c-.142 19.517-11.107 37.131-28.803 45.467q-7.89 3.718-16.067 4.479-1.115.105-5.306.39-.127.01-.123-.119c.016-.388-.047-.751-.047-1.114q-.005-23.484.018-46.966a51 51 0 0 1 .05-2.129m150.85 50.578c-15.902-.017-34.168-.044-50.077-.033a.1.1 0 0 0-.037.007.1.1 0 0 0-.059.09v102.213a.16.16 0 0 1-.046.11.15.15 0 0 1-.109.045h-50.138q-.102 0-.103-.103-.006-52.246-.002-104.48.003-3.293.904-7.786c3.241-16.144 13.726-29.383 28.647-36.229 6.754-3.1 14.168-4.472 21.727-4.48 0 0 32.835-.015 49.319 0a.095.095 0 0 1 .095.095v50.419q0 .121-.121.132"/></svg>
