<svg xmlns="http://www.w3.org/2000/svg" fill="none" viewBox="0 0 512 512"><path fill="#356EFF" d="M256 512c141.385 0 256-114.615 256-256S397.385 0 256 0 0 114.615 0 256s114.615 256 256 256"/><path fill="#fff" d="M105.609 136.348a.163.163 0 0 1 .164-.156h100.253q.14 0 .139.14c-.283 39.034-22.214 74.262-57.606 90.935q-15.777 7.434-32.133 8.958-2.229.208-10.612.78-.255.02-.246-.239c.033-.775-.095-1.502-.095-2.229q-.008-46.965.037-93.932.004-2.114.099-4.257m301.7 101.156c-31.804-.033-68.334-.088-100.152-.066a.2.2 0 0 0-.074.015.19.19 0 0 0-.12.179v204.426a.31.31 0 0 1-.309.31H206.379q-.207 0-.206-.206-.012-104.492-.004-208.959.003-6.588 1.808-15.574c6.482-32.286 27.452-58.765 57.293-72.457 13.508-6.199 28.335-8.944 43.453-8.961 0 0 65.671-.03 98.64 0a.19.19 0 0 1 .189.19V237.24q0 .243-.243.264"/></svg>