<svg xmlns="http://www.w3.org/2000/svg" fill="none" viewBox="0 0 256 256"><path fill="#9505FF" fill-rule="evenodd" d="M256 128c0 70.692-57.308 128-128 128S0 198.692 0 128 57.308 0 128 0s128 57.308 128 128" clip-rule="evenodd"/><path fill="#fff" d="M45 117.799c.247-19.283 10.902-36.256 26.042-47.572 15.194-11.358 33.736-17.307 52.623-18.136 16.693-.732 33.097 2.963 47.887 10.648 20.298 10.55 39.034 30.517 39.934 54.547q.069 1.829-.204 2.822c-.564 2.07-2.221 3.769-4.244 4.445-1.951.65-4.806.386-7.212.386q-73.758.008-147.513.002c-4.437 0-7.368-2.62-7.312-7.142m165.202 17.219H45.896a.094.094 0 0 0-.094.093v15.456c0 .051.042.093.094.093h164.307a.093.093 0 0 0 .093-.093v-15.456a.093.093 0 0 0-.093-.093M98.195 173.234q2.465.325 2.825-1.963c.52-3.316.206-8.857 4.226-10.228q.849-.29 2.933-.289 47.362.006 94.722-.068c.707-.002 1.719.012 2.464.126 2.519.386 4.638 2.192 5.392 4.582q.32 1.016.33 3.503.018 3.851.008 7.699-.006 2.492-.19 3.974c-1.503 12.052-10.763 21.714-22.953 23.245q-1.463.185-3.995.185H70.667q-5.101 0-10.232-2.376c-8.474-3.922-14.198-11.834-15.259-21.06q-.158-1.371-.164-3.978-.01-4.078-.012-8.155 0-1.718.268-2.673c.862-3.069 3.436-4.958 6.703-4.99q4.68-.048 9.36.01c3.376.04 6.001 1.746 6.878 5.028q.264.995.26 2.87-.006 2.766 0 5.529.002.863.622 1.676c1.757 2.3 5.5 2.336 6.713-.552q.257-.612.258-1.816c.004-1.596-.054-3.396.253-4.839.77-3.623 3.52-6.676 7.17-7.619 5.924-1.529 11.24 2.491 12.148 8.317.263 1.678.423 3.581 2.562 3.862"/></svg>