<svg xmlns="http://www.w3.org/2000/svg" fill="none" viewBox="0 0 256 256"><g clip-path="url(#clip0_4193_3500)"><rect width="256" height="256" fill="#FF007A" rx="128"/><path fill="#fff" fill-rule="evenodd" d="M146.131 240.861c7.591-2.958 10.705-10.751 6.454-17.96q-2.289-3.882-.64.312c5.218 13.211-11.956 19.567-19.107 8.149-5.175-8.262-.028-17.008 9.213-18.074 32.456-3.768 22.235 64.616 65.198 38.138 4.592-2.83 9.098-4.906 13.221-8.646a85 85 0 0 1 10.648-8.219c16.151-10.565 24.368-25.781 21.951-45.163-3.085-24.686-25.334-33.972-44.37-44.352-4.479-2.446-6.341-6.613-8.687-10.822q-.44-.796.413-.469a685 685 0 0 1 34.461 14.789c11.089 5.133 21.041 13.68 21.041 26.108a.51.51 0 0 0 .385.478.51.51 0 0 0 .567-.236c11.288-20.307 5.687-45.533-13.776-58.047-14.913-9.598-37.134-10.679-52.531-13.85q-8.643-1.778-15.468-7.892a2.35 2.35 0 0 1-.682-1.08l-2.587-8.505q-.214-.697.355-.241c10.99 8.546 23.742 11.02 37.333 11.532 14.658.555 29.443 1.209 36.807 13.908a.544.544 0 0 0 .673.239.54.54 0 0 0 .323-.638c-8.729-34.71-40.461-56.112-75.605-55.33q-3.554.07-14.942 1.778-.754.113-1.237-.47c-11.387-13.935-23.927-23.093-42.536-24.7q-3.142-.27-5.374.128-.654.114-.768.768l-.426 2.574q-.114.71-.811.853-1.933.398-1.933 2.688-.1 19.566 11.828 34.782.284.34-.156.242-7.692-1.905-10.364-4.906C79.431 40.077 62.537 21.635 54.272 12.8l-2.048 2.048c4.307 5.172 4.869 5.748 9.374 10.72A6282 6282 0 0 1 113.56 83.63c1.749 1.991 2.076 4.266 1.166 6.84-6.81 19.055-30.31 1.778-32.03 27.729q-.825 12.471-6.114 23.705c-9.596 20.349-5.885 28.326 11.97 40.925q3.854 2.731 5.275 5.603c8.104 16.325-18.154 25.653-30.296 27.971q-.61.114-.938-.398l-.283-.439c-10.07-15.611-19.24-29.83-10.593-47.497 2.36-4.792 7.578-10.779 11.288-15.23q13.535-16.267 15.54-37.669.739-7.877 7.477-15.5c3.014-3.398 1.479-7.934-.668-11.902a4609 4609 0 0 0-20.529-37.413c-4.023-7.252-9.099-13.281-14.146-19.737a.328.328 0 1 0-.54.37A29892 29892 0 0 0 80.293 84.98a70 70 0 0 1 4.322 9.186c.178.46.216.963.11 1.446a2.54 2.54 0 0 1-.707 1.27c-6.44 6.286-7.933 11.448-9.184 21.217-2.19 17.22-10.336 27.061-20.43 40.257q-6.07 7.963-7.592 11.93c-7.72 20.108 6.199 33.389 12.88 50.126q.257.669.968.811c11.288 2.389 21.026 2.972 30.665-3.243a2.22 2.22 0 0 1 1.308-.383q12.596.142 22.718 6.711c9.924 6.442 16.378 22.17 30.78 16.553M106.409 37.514c11.317 1.151 21.012 7.095 24.481 18.5 3.668 12.073 5.161 20.818 13.563 30.075a.73.73 0 0 1 .116.793.72.72 0 0 1-.684.416c-23.856-.839-39.466-27.615-38.201-49.173a.66.66 0 0 1 .231-.461.66.66 0 0 1 .494-.15m53.242 24.43c29.855-5.959 59.881 5.801 75.761 32.25a.42.42 0 0 1-.035.446.41.41 0 0 1-.42.152c-16.69-4.323-34.305-.924-50.469-8.162-10.336-4.608-18.568-14.618-25.121-23.961q-.427-.583.284-.725m61.857 51.803c22.121 4.21 38.769 20.89 35.585 44.765a.33.33 0 0 1-.243.281.36.36 0 0 1-.199-.003.36.36 0 0 1-.17-.107c-20.358-24.203-66.079-22.809-77.083-52.87a.54.54 0 0 1 .697-.697c13.534 4.806 27.424 5.972 41.413 8.631m-85.301 9.954-14.387 3.954a4.6 4.6 0 0 1-3.483-.433 4.6 4.6 0 0 1-2.161-2.767l-.597-2.161a12.32 12.32 0 0 1 1.109-9.272 11.97 11.97 0 0 1 7.265-5.716 11.9 11.9 0 0 1 4.695-.328c1.574.203 3.094.719 4.475 1.517a12.2 12.2 0 0 1 3.573 3.131 12.4 12.4 0 0 1 2.127 4.269l.597 2.147a4.6 4.6 0 0 1-.431 3.497 4.6 4.6 0 0 1-2.782 2.162m17.842 54.335c17.672-2.218 38.556-5.318 39.182-28.269q.185-6.584-1.564-11.817a.72.72 0 0 1 .394-.868.687.687 0 0 1 .886.299c14.316 26.293-3.882 45.007-29.742 45.49q-16.818.327-32.045 4.551-.725.198-.099-.228 11.388-7.693 22.988-9.158m54.607-26.719a136.5 136.5 0 0 1 26.784 16.239c17.515 13.595 15.994 38.551 3.171 54.591a.64.64 0 0 1-.319.213.645.645 0 0 1-.694-.234.65.65 0 0 1-.125-.363c-.327-18.059-12.07-32.934-21.666-47.339-4.606-6.939-8.388-14.845-7.848-22.695q.057-.71.697-.412m-70.344 48.177c17.515-1.521 32.343 7.893 34.887 25.412q1.479 10.266 3.37 18.6a.555.555 0 0 1-1.052.327q-4.678-11.22-9.796-20.733c-6.056-11.277-25.903-20.25-35.584-6.741q-4.407 6.115-1.479 14.562.711 2.076-.654.355-10.107-12.741-25.988-16.182-1.038-.227-.213-.896 16.05-12.912 36.509-14.704" clip-rule="evenodd"/><path fill="#fff" d="M131.409 113.632a2.86 2.86 0 0 0-.635-1.213 3.5 3.5 0 0 0-1.189-.872 4.6 4.6 0 0 0-1.561-.399 5.4 5.4 0 0 0-1.697.136c-1.133.272-2.134.888-2.783 1.713s-.893 1.791-.678 2.686c.106.443.322.855.635 1.213s.716.654 1.188.872a4.6 4.6 0 0 0 1.562.399 5.4 5.4 0 0 0 1.696-.136c1.133-.272 2.134-.888 2.783-1.713s.893-1.791.679-2.686"/></g><defs><clipPath id="clip0_4193_3500"><rect width="256" height="256" fill="#fff" rx="128"/></clipPath></defs></svg>
