<svg xmlns="http://www.w3.org/2000/svg" fill="none" viewBox="0 0 512 512"><g clip-path="url(#clip0_4193_3500)"><rect width="512" height="512" fill="#FF007A" rx="256"/><path fill="#fff" fill-rule="evenodd" d="M292.261 481.722c15.184-5.916 21.411-21.501 12.909-35.92q-4.578-7.764-1.279.625c10.435 26.421-23.913 39.134-38.215 16.297-10.35-16.524-.057-34.015 18.425-36.148 64.914-7.536 44.47 129.232 130.396 76.277 9.184-5.66 18.198-9.812 26.443-17.292a170 170 0 0 1 21.297-16.438c32.3-21.131 48.735-51.562 43.901-90.326-6.17-49.372-50.668-67.944-88.741-88.705-8.956-4.892-12.681-13.225-17.373-21.643q-.88-1.593.825-.938a1369 1369 0 0 1 68.923 29.577c22.178 10.267 42.081 27.36 42.081 52.216a1.025 1.025 0 0 0 1.906.484c22.576-40.613 11.373-91.065-27.553-116.093-29.826-19.197-74.268-21.358-105.061-27.7q-17.287-3.556-30.936-15.785a4.7 4.7 0 0 1-1.365-2.161l-5.175-17.007q-.426-1.394.711-.484c21.979 17.093 47.484 22.041 74.667 23.065 29.314 1.109 58.885 2.417 73.614 27.814a1.08 1.08 0 0 0 1.346.479 1.08 1.08 0 0 0 .644-1.275c-17.458-69.422-80.922-112.225-151.209-110.66q-7.108.141-29.884 3.555-1.506.226-2.474-.939c-22.775-27.871-47.853-46.187-85.073-49.4q-6.283-.54-10.747.255-1.308.228-1.536 1.536l-.853 5.148q-.228 1.422-1.621 1.706-3.867.796-3.867 5.376-.198 39.134 23.657 69.564.569.682-.313.484-15.382-3.812-20.728-9.812C158.861 80.156 125.073 43.271 108.544 25.6l-4.096 4.096c8.615 10.345 9.737 11.495 18.748 21.442A12570 12570 0 0 1 227.12 167.259c3.498 3.982 4.152 8.532 2.332 13.68-13.62 38.11-60.62 3.555-64.061 55.458q-1.649 24.942-12.226 47.41c-19.193 40.698-11.772 56.652 23.941 81.85q7.705 5.461 10.549 11.206c16.207 32.649-36.31 51.306-60.592 55.942q-1.223.227-1.877-.797l-.566-.878c-20.139-31.222-38.482-59.66-21.185-94.993 4.72-9.585 15.155-21.558 22.576-30.46q27.069-32.535 31.078-75.338 1.478-15.756 14.956-30.999c6.028-6.798 2.957-15.87-1.337-23.805a9219 9219 0 0 0-41.058-74.826c-8.046-14.504-18.197-26.563-28.291-39.475a.66.66 0 0 0-.675-.27.656.656 0 0 0-.406 1.01 60113 60113 0 0 0 60.308 107.987 140 140 0 0 1 8.644 18.372c.355.92.431 1.925.219 2.891a5.07 5.07 0 0 1-1.414 2.541c-12.88 12.571-15.865 22.895-18.368 42.433-4.378 34.441-20.671 54.122-40.859 80.514q-12.141 15.926-15.183 23.861c-15.44 40.215 12.397 66.778 25.761 100.252q.511 1.336 1.933 1.621c22.576 4.778 42.053 5.944 61.331-6.485a4.46 4.46 0 0 1 2.616-.767q25.192.284 45.437 13.423c19.847 12.884 32.755 44.338 61.558 33.105M212.818 75.028c22.633 2.303 42.025 14.191 48.963 37 7.336 24.146 10.321 41.637 27.125 60.151a1.448 1.448 0 0 1-1.137 2.418c-47.711-1.678-78.931-55.231-76.401-98.346a1.31 1.31 0 0 1 1.45-1.223m106.484 48.86c59.71-11.917 119.762 11.603 151.522 64.502.075.14.108.298.096.456a.83.83 0 0 1-1.006.739c-33.381-8.646-68.61-1.849-100.939-16.325-20.671-9.215-37.134-29.237-50.242-47.922q-.853-1.166.569-1.45m123.714 103.607c44.242 8.419 77.538 41.779 71.169 89.53a.65.65 0 0 1-.155.353.7.7 0 0 1-.33.208.74.74 0 0 1-.738-.22c-40.716-48.405-132.159-45.618-154.166-105.74a1.08 1.08 0 0 1 .246-1.148 1.08 1.08 0 0 1 1.147-.246c27.069 9.613 54.848 11.945 82.827 17.263m-170.601 19.908-28.775 7.907a9.18 9.18 0 0 1-11.288-6.399l-1.194-4.323c-1.72-6.252-.922-12.922 2.219-18.543s8.366-9.733 14.528-11.433a23.8 23.8 0 0 1 9.391-.657 24.1 24.1 0 0 1 8.95 3.035 24.5 24.5 0 0 1 7.146 6.262 24.8 24.8 0 0 1 4.255 8.538l1.194 4.294a9.2 9.2 0 0 1-.863 6.995 9.2 9.2 0 0 1-5.563 4.324m35.684 108.67c35.343-4.437 77.112-10.637 78.363-56.539q.37-13.167-3.128-23.634a1.44 1.44 0 0 1 .789-1.736 1.375 1.375 0 0 1 1.77.599c28.633 52.586-7.762 90.013-59.483 90.98q-33.636.654-64.089 9.101-1.45.397-.199-.455 22.775-15.387 45.977-18.316m109.213-53.439q28.717 13.197 53.569 32.479c35.03 27.189 31.987 77.101 6.34 109.181a1.275 1.275 0 0 1-1.404.409 1.27 1.27 0 0 1-.87-1.176c-.654-36.119-24.14-65.868-43.333-94.678-9.212-13.878-16.776-29.691-15.695-45.39q.114-1.422 1.393-.825m-140.689 96.355c35.03-3.043 64.686 15.785 69.776 50.823q2.957 20.534 6.739 37.2a1.11 1.11 0 0 1-.761 1.265 1.106 1.106 0 0 1-1.343-.611q-9.355-22.44-19.591-41.466c-12.113-22.553-51.806-40.499-71.169-13.481q-8.814 12.23-2.957 29.123 1.42 4.152-1.308.711-20.216-25.483-51.977-32.365-2.075-.454-.426-1.792 32.102-25.823 73.017-29.407" clip-rule="evenodd"/><path fill="#fff" d="M262.817 227.264a5.7 5.7 0 0 0-1.27-2.426c-.625-.716-1.433-1.308-2.377-1.745a9.2 9.2 0 0 0-3.123-.797c-1.118-.09-2.27.002-3.392.272-2.266.544-4.268 1.777-5.567 3.427-1.298 1.65-1.786 3.582-1.357 5.372.213.886.644 1.71 1.27 2.426.626.715 1.434 1.308 2.378 1.744a9.2 9.2 0 0 0 3.122.798c1.118.09 2.271-.002 3.393-.272 2.266-.544 4.268-1.777 5.566-3.427s1.787-3.582 1.357-5.372"/></g><defs><clipPath id="clip0_4193_3500"><rect width="512" height="512" fill="#fff" rx="256"/></clipPath></defs></svg>