<svg xmlns="http://www.w3.org/2000/svg" fill="none" viewBox="0 0 512 512"><path fill="#001845" d="M255.999 512C397.384 512 512 397.386 512 256.001 512 114.615 397.384 0 255.999 0 114.615 0 0 114.615 0 256.001 0 397.386 114.615 512 255.999 512Z"/><path fill="url(#paint0_linear_4193_3594)" d="M389.895 384.29c-113.516 22.933-224.416-50.639-247.486-163.494-11.54-54.683.311-109.3 28.507-153.405C85.425 106.682 34.865 200.723 54.473 297.29c23.07 112.853 133.97 186.425 247.484 163.492 58.513-11.46 105.395-46.211 135.934-92.634-15.222 6.934-30.445 12.705-47.996 16.142Z"/><path fill="#fff" d="M242.573 370.686c-37.757-4.194-61.51-29.397-63.623-63.204-.171-2.739 2.07-4.969 4.813-4.969h19.756c2.743 0 4.942 2.227 5.154 4.961 1.903 24.5 18.207 39.023 47.095 39.023 30.79 0 47.284-16.494 47.284-36.289 0-56.08-122.057-27.49-122.057-109.96 0-27.49 25.291-56.08 61.578-60.479v-28.021a4.967 4.967 0 0 1 4.968-4.967h15.356a4.967 4.967 0 0 1 4.967 4.967v28.021c32.419 5.229 55.886 31.344 58.106 63.21.191 2.736-2.051 4.966-4.793 4.966H301.42c-2.741 0-4.939-2.231-5.21-4.96-2.264-22.737-19.987-39.024-41.54-39.024-27.491 0-45.085 18.693-45.085 36.287 0 56.081 122.057 27.49 122.057 109.96 0 29.69-24.192 56.08-63.778 61.578v28.022a4.965 4.965 0 0 1-4.967 4.966h-15.356a4.966 4.966 0 0 1-4.968-4.966v-29.122Z"/><path fill="#23DD00" fill-rule="evenodd" d="m453.069 348.292 13.435 9.543c3.027 2.151 2.712 6.737-.581 8.453l-43.49 22.66c-3.454 1.798-7.542-.896-7.249-4.778l3.83-50.83c.29-3.854 4.678-5.915 7.827-3.675l12.046 8.555c30.753-69.887 19.387-154.352-35.652-214.063-73.55-79.794-197.476-85.423-277.942-13.068-1.02.917-2.598.862-3.527-.147l-8.201-8.897a2.47 2.47 0 0 1 .16-3.506c87.398-78.743 222.119-72.673 302.06 14.051 60.642 65.789 72.45 159.209 37.284 235.702ZM65.114 164.22l-13.435-9.542c-3.026-2.15-2.71-6.738.582-8.454l43.49-22.659c3.453-1.799 7.54.895 7.247 4.778l-3.828 50.83c-.29 3.854-4.678 5.915-7.829 3.676l-12.046-8.556c-30.752 69.888-19.387 154.354 35.652 214.062 73.552 79.795 197.477 85.425 277.943 13.069 1.02-.916 2.597-.861 3.528.147l8.2 8.897a2.471 2.471 0 0 1-.159 3.507c-87.399 78.742-222.12 72.673-302.06-14.053-60.643-65.787-72.451-159.209-37.285-235.702Z" clip-rule="evenodd"/><defs><linearGradient id="paint0_linear_4193_3594" x1="-14.726" x2="288.813" y1="569.992" y2="208.42" gradientUnits="userSpaceOnUse"><stop offset=".073" stop-color="#FFD923"/><stop offset=".477" stop-color="#0466C8"/><stop offset="1" stop-color="#001845"/></linearGradient></defs></svg>