<svg xmlns="http://www.w3.org/2000/svg" fill="none" viewBox="0 0 256 256"><path fill="#001845" d="M127.999 256C198.692 256 256 198.693 256 128 256 57.308 198.692 0 127.999 0 57.308 0 0 57.308 0 128s57.308 128 127.999 128"/><path fill="url(#paint0_linear_4193_3594)" d="M194.947 192.145c-56.758 11.466-112.207-25.32-123.742-81.747-5.77-27.342.155-54.65 14.253-76.703-42.746 19.646-68.025 66.666-58.221 114.95 11.534 56.427 66.985 93.213 123.741 81.746 29.257-5.73 52.698-23.106 67.968-46.317-7.612 3.467-15.223 6.352-23.999 8.071"/><path fill="#fff" d="M121.287 185.343c-18.879-2.097-30.755-14.698-31.812-31.602-.085-1.37 1.035-2.485 2.406-2.485h9.878c1.372 0 2.472 1.114 2.578 2.481.951 12.25 9.103 19.511 23.547 19.511 15.395 0 23.642-8.247 23.642-18.144 0-28.04-61.028-13.745-61.028-54.98 0-13.745 12.645-28.04 30.789-30.24v-14.01a2.483 2.483 0 0 1 2.483-2.483h7.679a2.483 2.483 0 0 1 2.483 2.483v14.01c16.21 2.615 27.943 15.672 29.053 31.605.096 1.369-1.026 2.484-2.396 2.484h-9.879c-1.371 0-2.469-1.116-2.605-2.481-1.132-11.368-9.994-19.511-20.77-19.511-13.746 0-22.542 9.346-22.542 18.143 0 28.04 61.028 13.745 61.028 54.98 0 14.845-12.096 28.04-31.889 30.789v14.011a2.48 2.48 0 0 1-2.483 2.483h-7.679a2.48 2.48 0 0 1-2.483-2.483z"/><path fill="#23DD00" fill-rule="evenodd" d="m226.535 174.146 6.717 4.772c1.513 1.075 1.356 3.368-.291 4.226l-21.744 11.33c-1.728.899-3.771-.448-3.625-2.389l1.915-25.415c.145-1.927 2.339-2.958 3.913-1.838l6.024 4.278c15.376-34.944 9.693-77.176-17.827-107.031-36.774-39.897-98.737-42.712-138.97-6.535-.51.459-1.3.431-1.764-.073l-4.1-4.448a1.236 1.236 0 0 1 .08-1.753c43.698-39.372 111.059-36.337 151.03 7.025 30.321 32.895 36.224 79.605 18.642 117.851M32.557 82.11l-6.717-4.77c-1.513-1.075-1.356-3.37.29-4.227l21.746-11.33c1.726-.899 3.77.448 3.623 2.39l-1.914 25.415c-.145 1.927-2.339 2.957-3.914 1.838l-6.023-4.278c-15.376 34.944-9.694 77.176 17.826 107.03 36.776 39.898 98.738 42.713 138.971 6.535a1.26 1.26 0 0 1 1.764.073l4.1 4.449c.466.504.43 1.294-.079 1.753-43.7 39.372-111.06 36.337-151.03-7.026-30.322-32.894-36.226-79.605-18.643-117.85" clip-rule="evenodd"/><defs><linearGradient id="paint0_linear_4193_3594" x1="-7.363" x2="144.406" y1="284.996" y2="104.21" gradientUnits="userSpaceOnUse"><stop offset=".073" stop-color="#FFD923"/><stop offset=".477" stop-color="#0466C8"/><stop offset="1" stop-color="#001845"/></linearGradient></defs></svg>
