<svg xmlns="http://www.w3.org/2000/svg" fill="none" viewBox="0 0 512 512"><path fill="#E2F9EB" fill-rule="evenodd" d="M252.093 30.767c-43.924 4.552-82.816 20.205-117.925 47.462-9.141 7.097-28.616 26.429-36.076 35.812-27.05 34.023-43.054 72.555-48.414 116.557-1.124 9.23-1.138 39.951-.022 48.992 3.614 29.278 10.611 52.934 22.827 77.171 29.448 58.427 82.021 100.825 145.23 117.125 20.182 5.204 37.212 7.098 59.467 6.614 15.936-.347 20.336-.97 30.241-4.287 23.861-7.988 45.647-27.531 57.872-51.916 2.824-5.633 8.098-18.543 7.575-18.543-.145 0-2.774 1.262-5.844 2.805-53.294 26.79-119.428 24.542-170.523-5.797-35.026-20.797-61.1-51.82-74.994-89.229-13.824-37.221-13.709-79.846.317-116.877 15.904-41.992 46.91-75.665 87.783-95.334 17.398-8.373 34.658-13.511 54.341-16.177 9.803-1.327 33.8-1.505 43.153-.319 21.98 2.787 44.945 9.536 60.35 17.736 2.953 1.571 5.468 2.758 5.589 2.637.401-.402-4.722-12.953-7.786-19.077-12.054-24.087-33.414-43.24-57.37-51.44-10.607-3.631-15.56-4.336-32.109-4.566-9.861-.137-18.323.095-23.682.65m123.561 81.513c22.669 64.86 29.546 135.412 19.928 204.455-3.334 23.939-9.445 50.229-17.113 73.623-2.478 7.559-4.408 13.84-4.29 13.958s1.76-.697 3.648-1.812c41.258-24.35 70.936-64.878 81.098-110.746 3.381-15.264 4.754-37.31 3.249-52.208-5.532-54.791-35.883-102.071-84.193-131.155-2.156-1.297-4.052-2.359-4.214-2.359s.686 2.809 1.887 6.244m-128.948 29.78c.01.44.433 4.979.939 10.086.507 5.108.93 10.494.94 11.969l.019 2.682-3.036.402c-12.893 1.703-28.565 7.876-36.217 14.266-7.57 6.321-13.199 14.955-15.542 23.836-1.558 5.908-1.532 19.422.048 24.657 1.819 6.029 4.869 11.197 9.071 15.37 9.194 9.13 21.773 13.629 49.193 17.595 32.092 4.641 37.131 6.014 42.042 11.459 2.677 2.968 3.331 5.552 2.868 11.328-.725 9.041-7.816 15.451-20.617 18.635-6.185 1.538-23.136 1.561-29.235.039-13.444-3.355-21.9-11.365-23.227-22l-.428-3.434h-33.736v2.478c0 4.137 1.806 13.157 3.611 18.036 4.15 11.213 13.351 20.982 25.478 27.047 5.107 2.554 14.88 5.433 22.593 6.653l7.134 1.128v2.269c-.001 2.275-.923 13.425-1.631 19.72l-.379 3.362h14.431c13.32 0 14.43-.086 14.423-1.121-.005-.616-.433-5.876-.952-11.687-1.242-13.915-1.338-12.809 1.119-12.809 2.61-.002 11.03-1.473 16.474-2.879 14.748-3.811 27.849-12.819 34.048-23.415 5.218-8.918 7.519-22.685 5.621-33.61-1.687-9.699-6.83-18.25-14.292-23.76-10.648-7.862-21.626-11.24-50.641-15.586-23.181-3.472-30.043-5.208-34.752-8.797-3.898-2.97-5.555-9.223-3.941-14.863 1.631-5.698 7.322-10.524 15.734-13.344 4.634-1.554 5.944-1.699 15.607-1.726 9.384-.028 11.042.134 15.023 1.459 10.424 3.473 16.701 10.108 18.331 19.381l.666 3.785h33.747v-1.555c0-3.677-1.494-11.936-2.962-16.376-5.936-17.957-21.169-29.826-44.401-34.594-3.213-.66-5.983-1.34-6.155-1.512-.171-.172.149-5.21.711-11.196s1.022-11.625 1.022-12.531v-1.648h-14.384c-11.091 0-14.38.183-14.365.801" clip-rule="evenodd"/><path fill="url(#paint0_linear_9443_717)" fill-rule="evenodd" d="M237.097.125C191.129 4.23 152.771 17.23 116.09 41.133 89.226 58.64 64.629 82.44 46.127 108.83 22.425 142.638 7.383 181.31 1.77 222.867c-1.897 14.044-2.36 41.73-.946 56.55 3.714 38.931 15.63 75.51 35.233 108.159 22.31 37.158 53.587 68.065 91.251 90.171 8.219 4.824 26.411 13.614 35.629 17.217 22.206 8.677 47.642 14.519 71.922 16.519 12.996 1.071 41.491.397 53.702-1.27 36.347-4.961 69.131-16.498 99.757-35.103 60.506-36.758 103.516-97.698 117.919-167.079 2.123-10.23 4.484-27.218 4.484-32.27 0-1.727.288-3.318.64-3.536.399-.247.639-6.636.639-17.046 0-9.158-.228-16.51-.506-16.338s-.841-3.485-1.25-8.128c-3.953-44.866-21.697-90.698-49.565-128.025-8.449-11.317-15.107-18.856-26.768-30.31-35.124-34.5-79.606-58.106-127.769-67.807C289.552 1.23 279.677.283 259.153.07c-10.549-.11-20.474-.085-22.056.056m14.996 30.642c-43.924 4.552-82.816 20.205-117.925 47.462-9.141 7.097-28.616 26.429-36.076 35.812-27.05 34.023-43.054 72.555-48.414 116.557-1.124 9.23-1.138 39.951-.022 48.992 3.614 29.278 10.611 52.934 22.827 77.171 29.448 58.427 82.021 100.825 145.23 117.125 20.182 5.204 37.212 7.098 59.467 6.614 15.936-.347 20.336-.97 30.241-4.287 23.861-7.988 45.647-27.531 57.872-51.916 2.824-5.633 8.098-18.543 7.575-18.543-.145 0-2.774 1.262-5.844 2.805-53.294 26.79-119.428 24.542-170.523-5.797-35.026-20.797-61.1-51.82-74.994-89.229-13.824-37.221-13.709-79.846.317-116.877 15.904-41.992 46.91-75.665 87.783-95.334 17.398-8.373 34.658-13.511 54.341-16.177 9.803-1.327 33.8-1.505 43.153-.319 21.98 2.787 44.945 9.536 60.35 17.736 2.953 1.571 5.468 2.758 5.589 2.637.401-.402-4.722-12.953-7.786-19.077-12.054-24.087-33.414-43.24-57.37-51.44-10.607-3.631-15.56-4.336-32.109-4.566-9.861-.137-18.323.095-23.682.65m123.561 81.513c22.669 64.86 29.546 135.412 19.928 204.455-3.334 23.939-9.445 50.229-17.113 73.623-2.478 7.559-4.408 13.84-4.29 13.958s1.76-.697 3.648-1.812c41.258-24.35 70.936-64.878 81.098-110.746 3.381-15.264 4.754-37.31 3.249-52.208-5.532-54.791-35.883-102.071-84.193-131.155-2.156-1.297-4.052-2.359-4.214-2.359s.686 2.809 1.887 6.244m-128.948 29.78c.01.44.433 4.979.939 10.086.507 5.108.93 10.494.94 11.969l.019 2.682-3.036.402c-12.893 1.703-28.565 7.876-36.217 14.266-7.57 6.321-13.199 14.955-15.542 23.836-1.558 5.908-1.532 19.422.048 24.657 1.819 6.029 4.869 11.197 9.071 15.37 9.194 9.13 21.773 13.629 49.193 17.595 32.092 4.641 37.131 6.014 42.042 11.459 2.677 2.968 3.331 5.552 2.868 11.328-.725 9.041-7.816 15.451-20.617 18.635-6.185 1.538-23.136 1.561-29.235.039-13.444-3.355-21.9-11.365-23.227-22l-.428-3.434h-33.736v2.478c0 4.137 1.806 13.157 3.611 18.036 4.15 11.213 13.351 20.982 25.478 27.047 5.107 2.554 14.88 5.433 22.593 6.653l7.134 1.128v2.269c-.001 2.275-.923 13.425-1.631 19.72l-.379 3.362h14.431c13.32 0 14.43-.086 14.423-1.121-.005-.616-.433-5.876-.952-11.687-1.242-13.915-1.338-12.809 1.119-12.809 2.61-.002 11.03-1.473 16.474-2.879 14.748-3.811 27.849-12.819 34.048-23.415 5.218-8.918 7.519-22.685 5.621-33.61-1.687-9.699-6.83-18.25-14.292-23.76-10.648-7.862-21.626-11.24-50.641-15.586-23.181-3.472-30.043-5.208-34.752-8.797-3.898-2.97-5.555-9.223-3.941-14.863 1.631-5.698 7.322-10.524 15.734-13.344 4.634-1.554 5.944-1.699 15.607-1.726 9.384-.028 11.042.134 15.023 1.459 10.424 3.473 16.701 10.108 18.331 19.381l.666 3.785h33.747v-1.555c0-3.677-1.494-11.936-2.962-16.376-5.936-17.957-21.169-29.826-44.401-34.594-3.213-.66-5.983-1.34-6.155-1.512-.171-.172.149-5.21.711-11.196s1.022-11.625 1.022-12.531v-1.648h-14.384c-11.091 0-14.38.183-14.365.801M.192 255.895c0 9.334.09 13.153.199 8.485.109-4.667.109-12.304 0-16.971-.11-4.667-.199-.848-.199 8.486" clip-rule="evenodd"/><defs><linearGradient id="paint0_linear_9443_717" x1="430.808" x2="113.953" y1="34.629" y2="466.388" gradientUnits="userSpaceOnUse"><stop stop-color="#6AF578"/><stop offset="1" stop-color="#2C7B2A"/></linearGradient></defs></svg>