<svg xmlns="http://www.w3.org/2000/svg" fill="none" viewBox="0 0 256 256"><path fill="#E2F9EB" fill-rule="evenodd" d="M126.047 15.384c-21.963 2.276-41.408 10.102-58.963 23.73-4.57 3.55-14.308 13.215-18.038 17.907C35.521 74.032 27.52 93.298 24.84 115.298c-.562 4.615-.569 19.976-.011 24.496 1.807 14.639 5.306 26.467 11.414 38.586 14.723 29.213 41.01 50.412 72.614 58.562 10.091 2.602 18.607 3.549 29.734 3.307 7.968-.174 10.168-.485 15.12-2.143 11.931-3.995 22.824-13.766 28.937-25.958 1.411-2.817 4.048-9.272 3.787-9.272-.072 0-1.387.631-2.922 1.403-26.647 13.394-59.714 12.27-85.262-2.899-17.512-10.398-30.55-25.91-37.496-44.615-6.913-18.61-6.855-39.923.158-58.438 7.952-20.996 23.455-37.832 43.891-47.667 8.699-4.187 17.329-6.756 27.171-8.088 4.902-.664 16.9-.753 21.577-.16 10.989 1.393 22.472 4.768 30.174 8.868 1.477.786 2.734 1.379 2.795 1.318.201-.2-2.361-6.476-3.893-9.538-6.027-12.044-16.707-21.62-28.685-25.72-5.304-1.816-7.78-2.168-16.054-2.283-4.931-.069-9.162.047-11.841.325m61.78 40.756c11.335 32.43 14.773 67.706 9.964 102.227-1.667 11.97-4.722 25.115-8.556 36.812-1.239 3.779-2.204 6.92-2.146 6.979.06.059.88-.348 1.825-.906 20.628-12.175 35.467-32.439 40.548-55.373 1.691-7.632 2.378-18.655 1.625-26.104-2.766-27.395-17.942-51.035-42.097-65.577-1.077-.65-2.026-1.18-2.107-1.18s.344 1.405.944 3.122m-64.474 14.89c.005.22.217 2.49.47 5.043s.465 5.247.47 5.985l.009 1.34-1.518.201c-6.447.852-14.282 3.939-18.109 7.134-3.784 3.16-6.599 7.477-7.77 11.918-.78 2.953-.767 9.711.023 12.328.91 3.015 2.435 5.599 4.536 7.685 4.597 4.565 10.887 6.815 24.596 8.797 16.047 2.321 18.566 3.007 21.021 5.73 1.339 1.484 1.666 2.776 1.434 5.664-.362 4.521-3.908 7.726-10.308 9.317-3.092.77-11.568.781-14.618.02-6.722-1.677-10.95-5.682-11.613-11l-.214-1.717H94.894v1.239c0 2.068.903 6.578 1.806 9.018 2.074 5.607 6.675 10.491 12.738 13.524 2.554 1.277 7.441 2.716 11.297 3.326l3.567.564v1.135c0 1.137-.461 6.712-.816 9.859l-.189 1.682h7.215c6.66 0 7.215-.044 7.212-.561-.002-.308-.217-2.938-.476-5.844-.621-6.957-.669-6.404.56-6.404 1.304-.001 5.515-.737 8.236-1.44 7.375-1.905 13.925-6.409 17.025-11.707 2.608-4.459 3.759-11.342 2.81-16.805-.843-4.849-3.415-9.125-7.146-11.88-5.324-3.931-10.813-5.62-25.321-7.793-11.59-1.736-15.021-2.604-17.376-4.399-1.948-1.485-2.777-4.611-1.97-7.431.816-2.849 3.661-5.262 7.867-6.672 2.317-.777 2.972-.85 7.803-.863 4.693-.014 5.522.067 7.512.73 5.212 1.736 8.35 5.054 9.165 9.69l.333 1.893h16.874v-.778c0-1.838-.747-5.968-1.481-8.188-2.968-8.979-10.585-14.913-22.201-17.297-1.606-.33-2.991-.67-3.077-.756s.074-2.605.355-5.598c.282-2.993.512-5.812.512-6.266v-.824h-7.193c-5.545 0-7.19.092-7.182.4" clip-rule="evenodd"/><path fill="url(#paint0_linear_9885_1295)" fill-rule="evenodd" d="M118.548.063C95.564 2.115 76.385 8.615 58.045 20.566c-13.432 8.754-25.73 20.654-34.982 33.85C11.213 71.318 3.691 90.655.885 111.433c-.948 7.021-1.18 20.865-.473 28.275 1.857 19.465 7.815 37.755 17.617 54.079 11.154 18.579 26.793 34.033 45.625 45.086 4.11 2.412 13.205 6.807 17.815 8.608 11.103 4.338 23.82 7.259 35.961 8.259 6.498.536 20.745.199 26.851-.635 18.173-2.48 34.565-8.249 49.878-17.551 30.253-18.379 51.758-48.849 58.959-83.54 1.062-5.114 2.243-13.609 2.243-16.134 0-.864.144-1.659.319-1.768.2-.124.32-3.319.32-8.524 0-4.579-.114-8.255-.253-8.169s-.421-1.742-.625-4.063c-1.977-22.433-10.849-45.35-24.783-64.013-4.224-5.658-7.553-9.428-13.384-15.155-17.561-17.25-39.803-29.053-63.884-33.903C144.776.615 139.839.14 129.577.034c-5.275-.055-10.237-.042-11.029.029m7.499 15.32c-21.963 2.277-41.408 10.103-58.963 23.732-4.57 3.548-14.308 13.214-18.038 17.905C35.521 74.033 27.52 93.298 24.84 115.3c-.562 4.615-.569 19.976-.011 24.496 1.807 14.639 5.306 26.467 11.414 38.586 14.723 29.213 41.01 50.412 72.614 58.562 10.091 2.602 18.607 3.549 29.734 3.307 7.968-.174 10.168-.485 15.12-2.143 11.931-3.995 22.824-13.766 28.937-25.958 1.411-2.817 4.048-9.272 3.787-9.272-.072 0-1.387.631-2.922 1.403-26.647 13.394-59.714 12.27-85.262-2.899-17.512-10.398-30.55-25.91-37.496-44.615-6.913-18.61-6.855-39.923.158-58.438 7.952-20.996 23.455-37.832 43.891-47.667 8.699-4.187 17.329-6.756 27.171-8.088 4.902-.664 16.9-.753 21.577-.16 10.989 1.393 22.472 4.768 30.174 8.868 1.477.786 2.734 1.379 2.795 1.318.201-.2-2.361-6.476-3.893-9.538-6.027-12.044-16.707-21.62-28.685-25.72-5.304-1.816-7.78-2.168-16.054-2.283-4.931-.069-9.162.047-11.841.325m61.78 40.757c11.335 32.43 14.773 67.706 9.964 102.227-1.667 11.97-4.722 25.115-8.556 36.812-1.239 3.779-2.204 6.92-2.146 6.979.06.059.88-.348 1.825-.906 20.628-12.175 35.467-32.439 40.548-55.373 1.691-7.632 2.378-18.655 1.625-26.104-2.766-27.395-17.942-51.035-42.097-65.577-1.077-.65-2.026-1.18-2.107-1.18s.344 1.405.944 3.122m-64.474 14.89c.005.22.217 2.49.47 5.043s.465 5.247.47 5.985l.009 1.34-1.518.201c-6.447.852-14.282 3.939-18.109 7.134-3.784 3.16-6.599 7.477-7.77 11.918-.78 2.953-.767 9.711.023 12.328.91 3.015 2.435 5.599 4.536 7.685 4.597 4.565 10.887 6.815 24.596 8.797 16.047 2.321 18.566 3.007 21.021 5.73 1.339 1.484 1.666 2.776 1.434 5.664-.362 4.521-3.908 7.726-10.308 9.317-3.092.77-11.568.781-14.618.02-6.722-1.677-10.95-5.682-11.613-11l-.214-1.717H94.894v1.239c0 2.068.903 6.578 1.806 9.018 2.074 5.607 6.675 10.491 12.738 13.524 2.554 1.277 7.441 2.716 11.297 3.326l3.567.564v1.135c0 1.137-.461 6.712-.816 9.859l-.189 1.682h7.215c6.66 0 7.215-.044 7.212-.561-.002-.308-.217-2.938-.476-5.844-.621-6.957-.669-6.404.56-6.404 1.304-.001 5.515-.737 8.236-1.44 7.375-1.905 13.925-6.409 17.025-11.707 2.608-4.459 3.759-11.342 2.81-16.805-.843-4.849-3.415-9.125-7.146-11.88-5.324-3.931-10.813-5.62-25.321-7.793-11.59-1.736-15.021-2.604-17.376-4.399-1.948-1.485-2.777-4.611-1.97-7.431.816-2.849 3.661-5.262 7.867-6.672 2.317-.777 2.972-.85 7.803-.863 4.693-.014 5.522.067 7.512.73 5.212 1.736 8.35 5.054 9.165 9.69l.333 1.893h16.874v-.778c0-1.838-.747-5.968-1.481-8.188-2.968-8.979-10.585-14.913-22.201-17.297-1.606-.33-2.991-.67-3.077-.756s.074-2.605.355-5.598c.282-2.993.512-5.812.512-6.266v-.824h-7.193c-5.545 0-7.19.092-7.182.4M.096 127.947c0 4.667.045 6.577.1 4.243a220 220 0 0 0 0-8.485c-.055-2.334-.1-.425-.1 4.242" clip-rule="evenodd"/><path fill="url(#paint1_linear_9885_1295)" fill-rule="evenodd" d="M240.61 104.304c10.43 17.752 22.668 59.265-20.21 63.908 6.554-13.383 33.319-43.152-43.152-102.963-31.959-24.997-79.749-44.245-96.682-34.413-9.907 5.753-23.76 17.206-23.76 17.206-5.19-20.21 12.138-40.924 43.152-36.615 23.465 3.26 49.873 12.938 75.282 28.825 28.338 17.72 54.939 46.3 65.37 64.052" clip-rule="evenodd"/><path fill="url(#paint2_linear_9885_1295)" fill-rule="evenodd" d="M79.706 213.705c81.215 50.259 131.097 26.495 118.953-19.044l-11.315 7.728s-9.094 33.78-61.547 13.523c-52.453-20.256-93.286-64.306-100.462-83.902-3.036-16.007 1.932-32.015 1.932-32.015-20.729 6.919-34.356 19.142-9.517 57.504 13.224 20.425 33.75 38.751 61.956 56.206" clip-rule="evenodd"/><defs><linearGradient id="paint0_linear_9885_1295" x1="215.404" x2="56.977" y1="17.314" y2="233.194" gradientUnits="userSpaceOnUse"><stop stop-color="#6AF578"/><stop offset="1" stop-color="#2C7B2A"/></linearGradient><linearGradient id="paint1_linear_9885_1295" x1="181.985" x2="137.158" y1="44.47" y2="116.163" gradientUnits="userSpaceOnUse"><stop stop-color="#003D07"/><stop offset="1" stop-color="#009F2F"/></linearGradient><linearGradient id="paint2_linear_9885_1295" x1="113.86" x2="78.26" y1="145.434" y2="213.277" gradientUnits="userSpaceOnUse"><stop stop-color="#00A936"/><stop offset="1" stop-color="#003F08"/></linearGradient></defs></svg>