<svg xmlns="http://www.w3.org/2000/svg" fill="none" viewBox="0 0 256 256"><path fill="#000" d="M128 256c70.692 0 128-57.308 128-128S198.692 0 128 0 0 57.308 0 128s57.308 128 128 128"/><path fill="#fff" d="M110.813 86.38h16.69l-37.804 83.302h-16.69zm33.388 0h-16.689l37.803 83.302h16.69zm-16.835 41.143 16.661 42.303h-33.321z"/><path fill="#fff" d="M219.246 140.857c-6.437 44.528-44.758 78.74-91.07 78.74s-84.632-34.212-91.07-78.74h-14.35c6.535 52.408 51.242 92.962 105.42 92.962s98.886-40.554 105.421-92.962zm-182.14-26.561c6.438-44.53 44.759-78.74 91.07-78.74 46.312 0 84.633 34.21 91.07 78.74h14.351c-6.535-52.409-51.242-92.963-105.421-92.963-54.178 0-98.885 40.554-105.42 92.963z"/></svg>