<svg xmlns="http://www.w3.org/2000/svg" fill="none" viewBox="0 0 512 512"><path fill="url(#paint0_linear_9225_919)" d="M511.868 247.773a256.01 256.01 0 0 1-71.963 186.314 256 256 0 0 1-84.041 57.631 255.99 255.99 0 0 1-199.728 0A256 256 0 0 1 17.194 348.237a256 256 0 0 1 60.72-276.142 256 256 0 0 1 433.954 175.678"/><path fill="#fff" d="M395.504 212.335 255.868 69.525l-140.166 142.81 69.819 71.405 70.082-71.405 69.819 71.405z"/><path fill="#1F2333" d="M162.512 414.384a39.66 39.66 0 0 1-17.983-3.702c-4.76-2.645-8.727-6.347-11.372-11.107-2.645-4.761-3.702-10.315-3.702-16.662v-55.008h15.867v55.537c0 5.29 1.323 9.257 4.232 12.166 3.173 2.909 7.405 4.495 12.958 4.495 5.29 0 9.786-1.586 12.695-4.495a16.4 16.4 0 0 0 4.495-12.166v-55.537h15.868v55.008q0 9.52-3.967 16.662a26.45 26.45 0 0 1-11.372 11.107c-5.024 2.38-10.578 3.702-17.719 3.702"/><path fill="#1F2333" fill-rule="evenodd" d="M143.471 412.533c-5.289-2.644-9.256-6.876-12.165-11.901a37 37 0 0 1-3.967-17.719v-57.124h20.099v57.653c0 4.761 1.322 7.934 3.703 10.579 2.644 2.644 6.082 3.967 11.371 3.967s8.728-1.323 11.108-3.967c2.644-2.645 3.967-5.818 3.967-10.579v-57.653h20.099v57.124c0 6.612-1.322 12.695-4.231 17.719-2.645 5.29-6.876 8.992-12.166 11.901-5.289 2.645-11.636 3.967-18.777 3.967-7.14 0-13.487-1.322-18.776-3.967zm6.083-16.925a16.656 16.656 0 0 1-4.232-12.166v-55.537h-15.867v55.008c0 6.347 1.057 11.901 3.702 16.662s6.612 8.462 11.372 11.107a39.66 39.66 0 0 0 17.983 3.702c6.876 0 12.695-1.322 17.719-3.702a26.45 26.45 0 0 0 11.372-11.107q3.967-7.142 3.967-16.662v-55.008h-15.868v55.537c0 5.29-1.586 9.257-4.495 12.166s-7.141 4.495-12.695 4.495c-5.553 0-9.785-1.586-12.958-4.495" clip-rule="evenodd"/><path fill="#1F2333" d="M257.19 414.384c-6.347 0-12.165-1.322-17.19-3.702-5.025-2.116-8.992-5.554-11.636-10.05-2.909-4.231-4.232-9.52-4.232-15.603v-3.438H240v3.438c0 5.289 1.322 8.992 4.496 11.372q4.76 3.967 12.694 3.967c5.554 0 9.521-1.058 12.43-3.438 2.644-2.116 3.967-4.76 3.967-8.198a7.94 7.94 0 0 0-2.116-5.819 13.23 13.23 0 0 0-5.818-3.438c-2.645-1.057-5.289-1.851-8.992-2.644l-2.644-.529c-6.083-1.323-11.108-2.909-15.339-5.025a24.6 24.6 0 0 1-9.521-7.934c-2.116-3.173-3.174-7.14-3.174-12.43 0-5.289 1.323-9.52 3.703-13.223A23.8 23.8 0 0 1 240 329.227c4.496-1.851 9.785-2.909 15.868-2.909q9.123 0 15.868 3.174c5.024 1.851 8.727 5.025 11.371 9.256a26.44 26.44 0 0 1 3.967 15.074v3.703h-15.867v-3.703q0-4.76-1.587-7.933a10.3 10.3 0 0 0-5.289-4.232c-2.645-.793-5.29-1.322-8.463-1.322-4.761 0-8.463.793-10.579 2.644-2.644 1.852-3.702 4.232-3.702 7.405 0 2.116.529 3.967 1.587 5.29 1.322 1.587 2.644 2.644 5.289 3.702 1.851 1.058 4.76 1.851 7.934 2.645l2.909.529c6.082 1.322 11.372 2.909 15.868 5.025 4.495 1.851 7.933 4.495 10.578 7.933 2.38 3.174 3.703 7.405 3.703 12.695 0 5.289-1.587 9.785-4.232 13.752a26.45 26.45 0 0 1-11.107 8.991c-4.761 2.381-10.314 3.438-16.926 3.438"/><path fill="#1F2333" fill-rule="evenodd" d="M222.017 379.475h19.834v5.554c0 4.76 1.323 7.934 3.967 9.785 2.645 2.116 6.347 3.438 11.372 3.438 5.289 0 8.992-1.058 11.108-2.644a7.939 7.939 0 0 0 3.173-6.876c0-1.852-.529-3.174-1.322-4.232-1.058-1.058-2.645-2.116-5.289-2.909-2.116-1.058-5.29-1.851-8.728-2.645l-2.644-.528a76.7 76.7 0 0 1-15.604-5.29 26.43 26.43 0 0 1-10.578-8.463 24.07 24.07 0 0 1-3.174-13.487c0-5.289 1.323-10.314 3.967-14.281s6.612-7.141 11.372-9.256 10.579-3.174 16.661-3.174c6.347 0 11.901 1.058 16.926 3.438 5.289 2.116 8.992 5.289 11.901 9.785 3.173 4.496 4.496 10.05 4.496 16.397v5.818H269.62v-6.083c0-2.909-.529-5.289-1.587-6.611a7.93 7.93 0 0 0-4.231-3.438c-2.116-.793-4.761-1.322-7.934-1.322-4.496 0-7.405.793-9.256 2.38-1.587 1.322-2.645 3.173-2.645 5.553 0 1.852.529 3.174 1.322 4.232.794 1.058 2.116 2.116 3.967 2.645 2.116 1.057 4.761 1.851 7.934 2.644l2.645.529a79.7 79.7 0 0 1 16.396 5.289c4.761 2.116 8.463 4.761 11.372 8.463 2.645 3.703 3.967 8.463 3.967 14.017 0 5.553-1.322 10.578-4.231 14.81-2.645 4.231-6.876 7.669-11.901 10.049a42.3 42.3 0 0 1-17.983 3.438 42.3 42.3 0 0 1-17.984-3.702c-5.289-2.645-9.521-6.083-12.694-10.843-3.174-4.761-4.496-10.579-4.496-16.926zm63.471 22.48a23.8 23.8 0 0 0 3.967-13.752c0-5.29-1.323-9.257-3.967-12.695a26.2 26.2 0 0 0-10.579-7.933 76.6 76.6 0 0 0-15.603-5.025l-2.645-.529c-3.438-.794-6.347-1.587-8.463-2.645-2.115-.793-3.702-2.115-5.024-3.438a9.54 9.54 0 0 1-1.587-5.289c0-3.438 1.322-5.818 3.438-7.67 2.644-1.851 6.082-2.644 10.578-2.644 3.438 0 6.347.529 8.463 1.322 2.645 1.058 4.232 2.645 5.289 4.496 1.323 1.851 2.116 4.496 2.116 7.934v3.438h15.868v-3.703a26.45 26.45 0 0 0-4.232-15.074A23.8 23.8 0 0 0 272 329.492c-4.76-2.116-10.05-3.174-16.132-3.174s-11.372 1.058-15.868 2.909c-4.496 2.116-7.934 4.761-10.578 8.463-2.116 3.703-3.439 7.934-3.439 13.223q0 7.935 3.174 12.695c2.38 3.173 5.289 5.818 9.521 7.934q6.347 2.776 15.074 4.76l2.645.529c3.702.793 6.876 1.587 9.256 2.644a13.23 13.23 0 0 1 5.818 3.438c1.322 1.587 2.116 3.438 2.116 5.819 0 3.438-1.323 6.082-3.967 8.198-2.645 2.38-6.876 3.438-12.43 3.438-5.289 0-9.521-1.322-12.694-3.703-3.174-2.644-4.76-6.611-4.76-11.636v-3.438h-15.868v3.438a27.5 27.5 0 0 0 15.868 25.653c5.289 2.645 11.107 3.702 17.454 3.702 6.612 0 12.165-1.057 16.926-3.438a26.45 26.45 0 0 0 11.107-8.991z" clip-rule="evenodd"/><path fill="#1F2333" d="M317.752 412.533v-13.752h11.108v-56.595h-11.108V328.17h34.909c11.372 0 19.835 2.909 25.918 8.727 5.818 5.818 8.727 14.281 8.727 25.653v15.868c0 11.371-2.645 20.099-8.727 25.917-6.083 5.554-14.546 8.463-25.918 8.463zm26.975-14.545h7.934c6.612 0 11.372-1.587 14.281-5.025s4.496-7.934 4.496-14.281v-16.926c0-6.082-1.587-10.843-4.496-14.281-2.909-3.173-7.669-5.024-14.016-5.024h-7.934z"/><path fill="#1F2333" fill-rule="evenodd" d="M315.636 414.649v-18.248h11.108v-52.364h-11.108v-18.248h37.025c11.637 0 20.893 3.174 27.24 9.257 6.611 6.347 9.521 15.603 9.521 27.239v15.868c0 11.901-2.91 21.157-9.521 27.504-6.347 6.083-15.603 8.992-27.24 8.992zm13.224-72.727v56.859h-11.108v14.017h34.909c11.372 0 19.835-2.645 25.918-8.463 5.818-5.818 8.727-14.546 8.727-25.917V362.55c0-11.372-2.645-19.835-8.727-25.653s-14.546-8.727-25.918-8.727h-34.909v14.016zm36.495 7.14c-2.644-2.644-6.347-4.496-12.429-4.496h-6.083v51.571h6.083c6.082 0 10.049-1.587 12.429-4.232 2.645-2.909 3.967-7.14 3.967-12.959v-17.19q0-8.727-3.967-12.694m-12.429 48.926c6.347 0 11.107-1.587 14.016-5.025s4.496-7.934 4.496-14.281v-16.926c0-6.082-1.587-10.843-4.496-14.281-2.909-3.173-7.669-5.024-14.016-5.024h-7.934v55.537z" clip-rule="evenodd"/><defs><linearGradient id="paint0_linear_9225_919" x1="82.909" x2="369.058" y1="402.748" y2="148.599" gradientUnits="userSpaceOnUse"><stop offset=".1" stop-color="#C3EEE4"/><stop offset="1" stop-color="#2AC8A5"/></linearGradient></defs></svg>