<svg xmlns="http://www.w3.org/2000/svg" fill="none" viewBox="0 0 512 512"><path fill="#0052FF" fill-rule="evenodd" d="M512 256C512 114.615 397.385 0 256 0S0 114.615 0 256s114.615 256 256 256 256-114.615 256-256m-79.252 10.445A178.997 178.997 0 0 0 275.449 78.842v78.401c37.709 6.57 58.388 31.389 59.118 60.101h-46.224c0-15.329-9.488-26.522-32.843-26.522-22.382 0-31.14 11.679-31.14 23.359 0 15.086 10.218 19.466 28.707 22.386l20.923 3.163c34.789 5.353 63.01 19.709 63.01 60.344 0 33.579-24.085 56.938-61.794 63.021V403H239.2v-39.662c-39.655-5.353-65.2-29.929-65.2-64.48h45.981c0 20.439 14.11 30.658 36.979 30.658 23.355 0 34.059-11.436 34.059-25.549 0-14.842-9.731-17.519-29.923-21.169l-21.896-3.893c-35.763-6.083-61.064-22.142-61.064-60.831 0-30.172 22.139-55.234 60.821-61.074V78.19A178.997 178.997 0 0 0 75.095 261.676a179 179 0 0 0 176.54 173.862 179.004 179.004 0 0 0 181.113-169.094" clip-rule="evenodd"/><path fill="#fff" d="M389.869 139.993a179 179 0 0 1 42.879 126.452 178.997 178.997 0 0 1-181.113 169.094 179.001 179.001 0 0 1-12.678-357.35V157c-38.682 5.84-60.821 30.902-60.821 61.074 0 38.689 25.301 54.748 61.064 60.831l21.896 3.893c20.192 3.65 29.923 6.327 29.923 21.169 0 14.113-10.704 25.549-34.059 25.549-22.869 0-36.979-10.219-36.979-30.658H174c0 34.551 25.545 59.127 65.2 64.48V403h36.006v-39.905C312.915 357.012 337 333.653 337 300.074c0-40.635-28.221-54.991-63.01-60.344l-20.923-3.163c-18.489-2.92-28.707-7.3-28.707-22.386 0-11.68 8.758-23.359 31.14-23.359 23.355 0 32.843 11.193 32.843 26.522h46.224c-.73-28.712-21.409-53.531-59.118-60.101V78.842a179 179 0 0 1 114.42 61.151"/></svg>