<svg width="256" height="256" viewBox="0 0 256 256" fill="none" xmlns="http://www.w3.org/2000/svg">
<path d="M128 256C198.692 256 256 198.692 256 128C256 57.3076 198.692 0 128 0C57.3076 0 0 57.3076 0 128C0 198.692 57.3076 256 128 256Z" fill="#FCFC03"/>
<path d="M94.72 113.92L98.3771 102.949L80.4571 90.1486L70.2171 121.234L87.9543 134.217V134.4H167.68L160 158.171H58.6971L51.7486 179.017H153.234L179.749 165.851L192.731 125.623L176.274 113.554L94.72 113.92ZM107.886 69.4857L80.4571 89.7829H201.874L208.64 69.12H108.069L107.886 69.4857Z" fill="black"/>
<path d="M110.263 214.857L167.863 36.0229H147.383L90.5143 214.857H110.263Z" fill="black"/>
</svg>
