<svg xmlns="http://www.w3.org/2000/svg" fill="none" viewBox="0 0 256 256"><path fill="#1552F0" fill-rule="evenodd" d="M256 128C256 57.308 198.692 0 128 0S0 57.308 0 128s57.308 128 128 128 128-57.308 128-128m-39.626 5.223a89.5 89.5 0 0 0-78.649-93.802v39.2c18.854 3.285 29.194 15.695 29.559 30.051h-23.112c0-7.665-4.744-13.261-16.422-13.261-11.191 0-15.57 5.84-15.57 11.68 0 7.543 5.109 9.732 14.354 11.192l10.461 1.582c17.395 2.677 31.505 9.855 31.505 30.172 0 16.789-12.043 28.469-30.897 31.51V201.5H119.6v-19.831c-19.828-2.676-32.6-14.964-32.6-32.24h22.99c0 10.219 7.056 15.329 18.49 15.329 11.677 0 17.03-5.718 17.03-12.774 0-7.422-4.866-8.76-14.962-10.585l-10.948-1.946c-17.881-3.042-30.532-11.072-30.532-30.416 0-15.086 11.069-27.617 30.41-30.537V39.095a89.5 89.5 0 1 0 96.896 94.128" clip-rule="evenodd"/><path fill="#fff" d="M194.935 69.997a89.5 89.5 0 0 1-6.846 123.7 89.5 89.5 0 1 1-68.611-154.602V78.5c-19.341 2.92-30.41 15.451-30.41 30.537 0 19.344 12.651 27.374 30.532 30.416l10.948 1.946c10.096 1.825 14.962 3.163 14.962 10.585 0 7.056-5.353 12.774-17.03 12.774-11.434 0-18.49-5.11-18.49-15.329H87c0 17.276 12.772 29.564 32.6 32.24V201.5h18.003v-19.953c18.854-3.041 30.897-14.721 30.897-31.51 0-20.317-14.11-27.495-31.505-30.172l-10.461-1.582c-9.245-1.46-14.354-3.649-14.354-11.192 0-5.84 4.379-11.68 15.57-11.68 11.678 0 16.422 5.596 16.422 13.261h23.112c-.365-14.356-10.705-26.766-29.559-30.05V39.42a89.5 89.5 0 0 1 57.21 30.576"/></svg>