<svg xmlns="http://www.w3.org/2000/svg" fill="none" viewBox="0 0 256 256"><path fill="#000" fill-rule="evenodd" d="M128 0c70.693 0 128 57.307 128 128s-57.307 128-128 128S0 198.693 0 128 57.307 0 128 0m29.247 37.87c-2.887-.922-5.247.791-5.247 3.821v7.453c0 2.032 1.532 4.344 3.439 5.044C186.076 65.409 208 94.857 208 129.334c0 34.476-21.924 63.923-52.561 75.145-2.092.767-3.439 2.816-3.439 5.044v7.453c0 3.029 2.36 4.743 5.247 3.821C195.964 208.427 224 172.154 224 129.334c0-42.822-28.036-79.094-66.753-91.464M104 41.69c0-3.03-2.36-4.743-5.246-3.821C60.036 50.24 32 86.512 32 129.334c0 42.82 28.036 79.093 66.754 91.463 2.886.922 5.246-.792 5.246-3.821v-7.453c0-2.032-1.531-4.345-3.439-5.044C69.924 193.257 48 163.81 48 129.334s21.924-63.925 52.561-75.146c1.908-.7 3.439-3.012 3.439-5.044zm28 23.643h-8a4 4 0 0 0-4 4v12.392c-15.859 2.255-26.112 12.809-26.112 26.349 0 17.526 10.595 24.326 32.958 27.335 15.171 2.486 19.49 5.753 19.49 14.387 0 8.631-7.328 14.386-17.657 14.386-13.966 0-18.562-6.111-20.257-14.021-.402-1.874-2.007-3.244-3.923-3.244h-9.125c-2.298 0-4.095 2.07-3.7 4.334 2.323 13.315 10.874 23.084 28.326 25.452v12.63a4 4 0 0 0 4 4h8a4 4 0 0 0 4-4v-12.637c16.521-2.624 27.077-14.125 27.077-28.339 0-18.703-11.38-24.982-33.354-27.988-16.218-2.355-19.354-6.149-19.354-13.735 0-7.192 5.491-12.294 16.086-12.294 9.583 0 15.094 3.344 17.371 11.056.508 1.721 2.048 2.938 3.843 2.938h8.415c2.346 0 4.173-2.156 3.672-4.449-2.664-12.188-10.878-19.501-23.756-21.808V69.333a4 4 0 0 0-4-4" clip-rule="evenodd"/></svg>
