<svg xmlns="http://www.w3.org/2000/svg" fill="none" viewBox="0 0 256 256"><path fill="#376B59" d="M128 256c70.692 0 128-57.308 128-128S198.692 0 128 0 0 57.308 0 128s57.308 128 128 128"/><path fill="#fff" d="M238.575 117.761c.386 4.29-5.994 4.946-6.428.499-5.899-60.431-60.822-103.267-121.034-93.589-46.679 7.503-82.543 46.023-87.094 93.071q-.117 1.213-.409 1.768c-1.652 3.176-6.186 1.82-5.853-1.742q2.928-31.277 21.415-56.203c31.212-42.083 87.617-56.248 135.144-34.677 36.121 16.394 60.7 51.48 64.259 90.873"/><path fill="#fff" d="M172.818 48.782H91.88a4.355 4.355 0 0 0-4.356 4.355v2.033a4.355 4.355 0 0 0 4.356 4.355h80.938a4.355 4.355 0 0 0 4.356-4.355v-2.034a4.355 4.355 0 0 0-4.356-4.354m-55.413 22.315a.1.1 0 0 1-.074-.02.1.1 0 0 1-.023-.032.1.1 0 0 1-.008-.038v-7.182q0-.104.105-.104h10.538q.105 0 .105.105v6.244q0 .123-.124.125-5.285.147-10.519.902m17.073-.843a.09.09 0 0 1-.086-.088v-6.34q0-.105.105-.105h10.538a.105.105 0 0 1 .105.105v7.39q0 .101-.101.086a84 84 0 0 0-10.561-1.048m-17.266 74.876c-10.738-2.401-21.092-5.678-29.678-12.755-8.114-6.686-10.626-17.549-8.562-27.561 1.49-7.223 5.425-13.05 11.025-17.757 13.577-11.419 32.978-13.719 49.944-12.106 10.704 1.019 21.869 4.786 30.098 11.888q9.121 7.87 11.092 19.81.368 2.218-1.218 3.629c-.91.809-1.854.986-3.16.986q-9.474.002-18.948-.003-1.101 0-1.781-.262c-2.678-1.035-2.84-3.35-4.138-5.573q-2.388-4.08-6.675-6.25a.05.05 0 0 0-.048.001.04.04 0 0 0-.023.043v24.611q0 .11-.107.086l-10.532-2.25q-.11-.022-.109-.132V96.371q0-.129-.128-.139a50 50 0 0 0-6.103-.132q-.113.004-.113.118v23.902q0 .106-.103.084c-3.863-.864-7.135-1.824-10.561-3.615a.15.15 0 0 1-.084-.14v-18.13q0-.105-.099-.066c-5.455 2.236-9.372 6.899-8.98 12.96.587 9.033 13.73 12.096 20.619 13.602a4482 4482 0 0 0 15.478 3.348c11.924 2.554 25.539 7.575 33.181 17.579 5.423 7.099 6.95 15.866 5.31 24.54-3.437 18.191-21.112 26.532-37.56 28.985q-.105.015-.105.121a1493 1493 0 0 0 0 8.465c.012 4.311-2.464 5.403-6.424 5.139-1.9-.128-3.364-1.019-4.033-2.812q-.293-.784-.293-2.38 0-3.711-.004-7.424 0-.096-.097-.097l-6.149.059q-.094 0-.094.095-.008 3.823-.002 7.638c.004 2.306-.864 4.139-3.249 4.78-.822.223-1.885.147-2.841.155-2.052.021-3.712-1.006-4.386-2.901q-.276-.777-.27-2.221.012-4.107-.011-8.213 0-.113-.113-.128c-20.12-2.476-39.84-12.548-42.063-35.197-.166-1.69.942-3.342 2.554-3.887q.682-.231 2.246-.233 9.595-.009 19.192-.002c2.084 0 3.854 1.891 4.376 3.837 3.408 12.742 19.55 15.386 30.546 14.379 7.241-.665 17.115-3.537 19.598-11.469 2.177-6.959-2.307-12.037-8.368-14.434q-.119-.045-.119.082v18.04a.36.36 0 0 1-.193.317 28.8 28.8 0 0 1-10.467 3.055q-.088.01-.088-.08l.002-24.835q0-.118-.116-.143l-6.094-1.361q-.136-.029-.136.109v26.444q0 .103-.103.103a33.5 33.5 0 0 1-10.561-1.873.13.13 0 0 1-.084-.119v-27.035q0-.093-.088-.111"/><path fill="#fff" d="M84.91 229.977c-37.53-15.656-64.324-51.981-67.492-92.609-.248-3.183 4.427-4.475 6.006-1.707q.341.601.497 2.118c6.195 60.796 62.445 103.663 122.884 92.668 45.618-8.299 80.244-45.88 85.095-91.867.203-1.925.247-3.269 2.162-4.181 1.558-.743 3.465.205 4.031 1.723q.252.671.117 2.095c-4.909 52.143-46.215 94.209-98.246 99.717q-28.696 3.038-55.053-7.957"/></svg>