<svg xmlns="http://www.w3.org/2000/svg" fill="none" viewBox="0 0 512 512"><path fill="#376B59" d="M256 512c141.385 0 256-114.615 256-256S397.385 0 256 0 0 114.615 0 256s114.615 256 256 256"/><path fill="#fff" d="M477.15 235.523c.772 8.579-11.987 9.892-12.855.998C452.496 115.658 342.65 29.986 222.226 49.343 128.868 64.347 57.141 141.39 48.039 235.485q-.236 2.424-.818 3.535c-3.305 6.353-12.373 3.64-11.707-3.485q5.856-62.553 42.829-112.404C140.768 38.964 253.579 10.634 348.63 53.776c72.244 32.788 121.402 102.961 128.519 181.747"/><path fill="#fff" d="M345.636 97.563H183.76a8.71 8.71 0 0 0-8.712 8.71v4.068a8.71 8.71 0 0 0 8.712 8.709h161.876a8.71 8.71 0 0 0 8.712-8.709v-4.068c0-4.81-3.9-8.71-8.712-8.71M234.809 142.194a.2.2 0 0 1-.078-.004.2.2 0 0 1-.069-.037.183.183 0 0 1-.063-.14v-14.362q0-.21.21-.21h21.077q.21 0 .209.21v12.488q0 .248-.247.252-10.57.292-21.039 1.803M268.955 140.508a.177.177 0 0 1-.172-.176v-12.681q0-.21.21-.21h21.077a.209.209 0 0 1 .209.21v14.782q0 .2-.201.172a167 167 0 0 0-21.123-2.097M234.423 290.259c-21.475-4.801-42.182-11.355-59.354-25.508-16.228-13.373-21.253-35.099-17.126-55.123 2.983-14.446 10.851-26.1 22.05-35.514 27.154-22.837 65.956-27.437 99.889-24.213 21.408 2.038 43.738 9.574 60.197 23.777q18.241 15.742 22.184 39.619.734 4.437-2.437 7.259c-1.82 1.619-3.708 1.971-6.321 1.971q-18.946.005-37.896-.004-2.202 0-3.561-.524c-5.356-2.072-5.679-6.701-8.275-11.146q-4.777-8.16-13.351-12.501a.1.1 0 0 0-.049-.012.098.098 0 0 0-.094.1v49.223q0 .218-.214.171l-21.064-4.499q-.218-.047-.218-.264v-50.33q0-.255-.256-.276a99 99 0 0 0-12.205-.265q-.227.009-.227.235v47.805q0 .214-.205.168c-7.726-1.728-14.269-3.648-21.123-7.23a.29.29 0 0 1-.168-.281v-36.26q0-.21-.197-.13c-10.909 4.47-18.744 13.796-17.96 25.92 1.174 18.065 27.46 24.191 41.239 27.202a8639 8639 0 0 0 30.954 6.697c23.849 5.108 51.079 15.151 66.363 35.158 10.847 14.199 13.9 31.731 10.62 49.08-6.874 36.382-42.224 53.063-75.12 57.969q-.21.03-.21.244-.025 8.475 0 16.929c.025 8.621-4.929 10.806-12.848 10.278-3.8-.256-6.727-2.038-8.065-5.624q-.587-1.568-.587-4.759 0-7.423-.009-14.849 0-.193-.193-.193l-12.298.117q-.188 0-.188.189a3891 3891 0 0 0-.005 15.277c.009 4.612-1.728 8.277-6.497 9.561-1.644.444-3.77.293-5.683.31-4.102.042-7.424-2.013-8.77-5.804q-.554-1.55-.541-4.441.024-8.214-.021-16.425 0-.226-.227-.256c-40.241-4.952-79.68-25.098-84.126-70.395-.331-3.38 1.883-6.684 5.109-7.775q1.363-.46 4.492-.465 19.19-.017 38.382-.004c4.17 0 7.71 3.782 8.754 7.674 6.816 25.483 39.1 30.771 61.091 28.758 14.483-1.329 34.23-7.074 39.196-22.938 4.354-13.918-4.614-24.074-16.736-28.867q-.239-.093-.239.163v36.08a.72.72 0 0 1-.385.634 57.5 57.5 0 0 1-20.935 6.109q-.176.021-.176-.159l.005-49.671q0-.236-.231-.285l-12.189-2.722q-.273-.058-.273.218v52.888q0 .205-.205.205a67 67 0 0 1-21.123-3.744.25.25 0 0 1-.121-.093.26.26 0 0 1-.047-.146v-54.07q0-.185-.176-.223"/><path fill="#fff" d="M169.822 459.954C94.76 428.642 41.172 355.991 34.835 274.735c-.495-6.365 8.854-8.949 12.013-3.413q.683 1.203.994 4.235C60.232 397.15 172.733 482.884 293.61 460.894c91.235-16.598 160.488-91.761 170.19-183.735.407-3.849.495-6.537 4.324-8.362 3.117-1.484 6.929.411 8.062 3.447q.503 1.342.235 4.19c-9.819 104.286-92.431 188.418-196.493 199.435q-57.392 6.076-110.106-15.915"/></svg>