<svg xmlns="http://www.w3.org/2000/svg" fill="none" viewBox="0 0 512 512"><path fill="#000" d="M256 512a256 256 0 0 0 181.019-74.981 255.997 255.997 0 0 0 0-362.038A256 256 0 1 0 256 512"/><path fill="#fff" fill-rule="evenodd" d="M216.592 52a207.07 207.07 0 0 0-120.293 71.635A207.43 207.43 0 0 0 49 255.5a207.43 207.43 0 0 0 47.3 131.865A207.07 207.07 0 0 0 216.591 459v-19.423a188.07 188.07 0 0 1-106.825-65.737A188.38 188.38 0 0 1 67.965 255.5a188.38 188.38 0 0 1 41.802-118.34 188.06 188.06 0 0 1 106.825-65.737zm79.14 19.423V52a207.07 207.07 0 0 1 120.074 71.699A207.43 207.43 0 0 1 463 255.437c0 48.06-16.682 94.628-47.194 131.737a207.07 207.07 0 0 1-120.074 71.699V439.45a188.06 188.06 0 0 0 106.626-65.791 188.38 188.38 0 0 0 41.708-118.222c0-43.02-14.72-84.743-41.708-118.223a188.06 188.06 0 0 0-106.626-65.79" clip-rule="evenodd"/><path fill="#fff" d="M285.93 247.916c15.926 3.036 28.157 8.855 36.947 17.33S336 284.347 336 297.503v20.618c0 15.559-5.733 28.209-17.072 37.949-12.765 9.889-28.673 14.915-44.846 14.168h-6.37V403h-22.041v-32.889h-6.753c-12.231 0-22.932-2.53-32.36-7.969a58.6 58.6 0 0 1-21.914-23.149c-5.096-10.119-7.644-21.631-7.644-34.786h22.041c0 13.282 3.567 24.034 10.957 32.509a38.2 38.2 0 0 0 13.421 9.358 38.5 38.5 0 0 0 16.136 2.912h33.89q17.964 0 29.048-8.348a27.5 27.5 0 0 0 8.211-9.948 27.3 27.3 0 0 0 2.746-12.569v-20.618c0-7.337-2.803-13.535-8.282-18.722a39.6 39.6 0 0 0-21.913-9.866l-55.039-9.614a64.65 64.65 0 0 1-35.928-17.33c-8.536-8.855-12.74-19.86-12.74-33.142v-17.456c0-15.559 5.351-28.082 16.435-37.317 12.52-9.886 28.231-14.92 44.209-14.167h5.479V107h21.913v32.889h7.135a55.1 55.1 0 0 1 22.702 3.887 54.8 54.8 0 0 1 19.086 12.81c10.575 10.879 15.798 25.299 15.798 43.388h-21.913a40.3 40.3 0 0 0-9.81-28.335 33.4 33.4 0 0 0-11.756-8.134 33.6 33.6 0 0 0-14.107-2.491h-34.527c-11.593 0-20.894 2.783-27.774 8.348-6.88 5.44-10.447 12.65-10.447 21.884v17.457q0 11.384 7.644 18.974c5.351 5.06 12.613 8.602 21.659 10.246l54.784 10.12z"/></svg>