<svg xmlns="http://www.w3.org/2000/svg" fill="none" viewBox="0 0 256 256"><path fill="#000" d="M128 256a128 128 0 0 0 90.51-37.49 128.003 128.003 0 0 0 0-181.02A128.001 128.001 0 1 0 128 256"/><path fill="#fff" fill-rule="evenodd" d="M108.296 26A103.54 103.54 0 0 0 48.15 61.817 103.7 103.7 0 0 0 24.5 127.75c0 24.059 8.361 47.368 23.65 65.933a103.53 103.53 0 0 0 60.146 35.817v-9.712a94.03 94.03 0 0 1-53.413-32.868 94.2 94.2 0 0 1-20.9-59.17 94.2 94.2 0 0 1 20.9-59.17 94.03 94.03 0 0 1 53.413-32.868zm39.57 9.712V26a103.54 103.54 0 0 1 60.037 35.85 103.7 103.7 0 0 1 23.597 65.868c0 24.031-8.341 47.314-23.597 65.869a103.54 103.54 0 0 1-60.037 35.85v-9.712a94.02 94.02 0 0 0 53.313-32.896 94.2 94.2 0 0 0 20.854-59.111 94.2 94.2 0 0 0-20.854-59.11 94.03 94.03 0 0 0-53.313-32.896" clip-rule="evenodd"/><path fill="#fff" d="M142.965 123.958c7.963 1.518 14.078 4.427 18.474 8.665 4.395 4.238 6.561 9.551 6.561 16.128v10.31c0 7.779-2.867 14.104-8.536 18.974a34.06 34.06 0 0 1-22.423 7.084h-3.185V201.5h-11.021v-16.444h-3.376c-6.115 0-11.466-1.265-16.18-3.985a29.3 29.3 0 0 1-10.957-11.574c-2.548-5.06-3.822-10.816-3.822-17.394h11.02c0 6.641 1.784 12.018 5.479 16.255a19.1 19.1 0 0 0 6.711 4.679 19.2 19.2 0 0 0 8.068 1.456h16.944q8.983 0 14.524-4.174a13.76 13.76 0 0 0 4.106-4.974 13.65 13.65 0 0 0 1.373-6.284v-10.31c0-3.668-1.402-6.767-4.141-9.36a19.8 19.8 0 0 0-10.957-4.934l-27.519-4.807a32.32 32.32 0 0 1-17.964-8.665c-4.268-4.427-6.37-9.929-6.37-16.57v-8.729c0-7.78 2.675-14.04 8.218-18.658a33.16 33.16 0 0 1 22.104-7.084h2.739V53.5h10.957v16.444h3.567c3.88-.158 7.749.505 11.352 1.944a27.4 27.4 0 0 1 9.543 6.405c5.287 5.44 7.899 12.65 7.899 21.694h-10.957a20.15 20.15 0 0 0-4.905-14.167 16.7 16.7 0 0 0-5.878-4.067 16.8 16.8 0 0 0-7.054-1.246h-17.263c-5.797 0-10.447 1.391-13.887 4.174-3.44 2.72-5.223 6.325-5.223 10.942v8.728q0 5.693 3.822 9.487c2.675 2.53 6.306 4.301 10.829 5.124l27.392 5.059z"/></svg>