<svg width="256" height="256" viewBox="0 0 256 256" fill="none" xmlns="http://www.w3.org/2000/svg">
<path fill-rule="evenodd" clip-rule="evenodd" d="M37.3393 218.661C13.1702 194.492 0 162.136 0 128C0 93.8643 13.5261 61.5083 37.3393 37.3393C61.5084 13.1702 93.8643 0 128 0C163.204 0 195.204 14.238 218.661 37.3393C242.83 61.5083 256 93.8643 256 128C256 162.136 242.474 194.492 218.661 218.661C195.56 241.762 163.56 256 128 256C93.8643 256 61.5084 242.474 37.3393 218.661Z" fill="url(#paint0_linear_4193_4372)"/>
<path fill-rule="evenodd" clip-rule="evenodd" d="M186.661 67.2036H139.355V36.2714H115.542V67.2036H95.2881C84.6096 67.2036 63.6441 75.7464 64 102.407C64.356 129.424 83.1858 136.187 90.3048 136.187H115.542V170.323H67.9155V189.152H115.542V220.441H139.355V189.152H157.829C168.863 189.152 191.253 179.898 191.253 153.593C191.253 127.644 171.355 118.745 159.253 118.745H138.999V86.0334H186.269V67.2036H186.661ZM151.813 136.543C156.441 136.543 167.083 138.323 167.083 153.237C167.083 168.151 157.473 170.287 153.913 170.287H139.319V136.187V136.543H151.813ZM115.542 119.101H103.795C99.5239 119.101 87.1012 116.61 87.1012 102.407C87.1012 88.2047 96 86.4249 99.2036 86.4249H115.542V119.101Z" fill="white"/>
<defs>
<linearGradient id="paint0_linear_4193_4372" x1="29.755" y1="210.393" x2="226.004" y2="45.785" gradientUnits="userSpaceOnUse">
<stop stop-color="#024C2A"/>
<stop offset="0.502" stop-color="#0C9943"/>
<stop offset="1" stop-color="#98D435"/>
</linearGradient>
</defs>
</svg>
