<svg xmlns="http://www.w3.org/2000/svg" fill="none" viewBox="0 0 256 256"><path fill="url(#paint0_linear_4193_4372)" fill-rule="evenodd" d="M37.34 218.661C13.17 194.492 0 162.136 0 128s13.526-66.492 37.34-90.66C61.507 13.17 93.863 0 128 0c35.204 0 67.204 14.238 90.661 37.34C242.83 61.507 256 93.863 256 128s-13.526 66.492-37.339 90.661C195.56 241.762 163.56 256 128 256c-34.136 0-66.492-13.526-90.66-37.339" clip-rule="evenodd"/><path fill="#fff" fill-rule="evenodd" d="M186.661 67.204h-47.306V36.27h-23.813v30.933H95.288c-10.678 0-31.644 8.542-31.288 35.203.356 27.017 19.186 33.78 26.305 33.78h25.237v34.136H67.915v18.829h47.627v31.289h23.813v-31.289h18.474c11.034 0 33.424-9.254 33.424-35.559 0-25.949-19.898-34.848-32-34.848h-20.254V86.033h47.27v-18.83zm-34.848 69.339c4.628 0 15.27 1.78 15.27 16.694s-9.61 17.05-13.17 17.05h-14.594v-34.1.356zm-36.271-17.442h-11.747c-4.271 0-16.694-2.491-16.694-16.694S96 86.425 99.204 86.425h16.338z" clip-rule="evenodd"/><defs><linearGradient id="paint0_linear_4193_4372" x1="29.755" x2="226.004" y1="210.393" y2="45.785" gradientUnits="userSpaceOnUse"><stop stop-color="#024C2A"/><stop offset=".502" stop-color="#0C9943"/><stop offset="1" stop-color="#98D435"/></linearGradient></defs></svg>
