<svg xmlns="http://www.w3.org/2000/svg" fill="none" viewBox="0 0 256 256"><path fill="#2E5CFF" fill-rule="evenodd" d="M256 128c0 70.692-57.308 128-128 128S0 198.692 0 128 57.308 0 128 0s128 57.308 128 128" clip-rule="evenodd"/><path fill="#fff" d="M196.366 72.633q-20.039-24.501-51.52-31.133c-8.751-1.85-6.677-15.443 3.817-13.14q40.294 8.874 63.335 42.517c4.406 6.435.279 9.916-5.448 12.726a5544 5544 0 0 0-35.083 17.426c-3.9 1.963-6.841 3.719-10.937.723a7986 7986 0 0 0-27.778-20.225q-4.261-3.09-8.162-.31a2681 2681 0 0 0-28.19 20.359c-4.622 3.378-7.12 1.364-11.443-.733a1547 1547 0 0 1-38.044-19.151c-4.51-2.345-5.221-6.508-2.373-10.64q23.764-34.521 64.222-42.888c7.295-1.508 11.918 7.758 5.83 12.034q-1.25.868-4.705 1.663-29.13 6.704-49.292 30.225-.846.981.31 1.56L90.27 88.364q.681.341 1.29-.114a1773 1773 0 0 1 22.814-16.661c11.216-8.057 18.295-6.962 29.026.836a4766 4766 0 0 1 21.741 15.856q.412.3.877.073L196.2 73.365q.546-.268.165-.733m-152.733 33.52c-9.68 40.74 9.338 80.674 46.33 99.629q3.693 1.89 4.787 3.46c2.673 3.843-.36 10.03-5.035 10.289q-2.157.123-5.644-1.581c-45.113-22.146-67.142-73.794-51.623-121.95 1.867-5.806 5.004-9.37 11.308-6.27A3263 3263 0 0 1 83.39 109.52c2.724 1.384 4.592 3.491 4.643 6.456q.135 7.561.031 28.737c-.062 13.511 3.364 17.932 16.726 17.911q9.38-.02 18.78.062.588 0 .588.589.134 25.42-.083 50.687c-.082 10.03-13.651 9.968-13.754-.775a1751 1751 0 0 1 .031-36.597.475.475 0 0 0-.475-.486c-5.572-.072-11.887.579-16.912-1.022-13.703-4.349-18.552-14.968-18.563-28.489v-25.938a.63.63 0 0 0-.381-.609l-29.325-14.4q-.847-.412-1.063.506M182.384 120.8a797 797 0 0 0-.309 28.685c.092 12.788-7.904 23.634-20.452 26.144-4.189.837-9.854.403-14.672.475q-.62.01-.589.63c.093 1.674-.216 3.244-.216 4.752q-.042 15.866-.042 31.732c0 8.347-9.864 11.549-12.929 4.101q-.701-1.724-.712-6.26-.041-23.943-.01-47.949a.47.47 0 0 1 .139-.336.47.47 0 0 1 .336-.14q8.956.063 17.995 0c11.474-.072 17.634-2.572 17.624-14.802v-31.154q-.01-4.669 4.127-6.724a7894 7894 0 0 0 38.272-19.172c6.294-3.171 10.648-3.212 13.011 4.276 15.406 48.849-5.314 99.588-50.849 122.726q-3.642 1.85-5.861 1.797c-4.685-.124-7.976-6.063-5.51-10.092q1.063-1.735 4.519-3.47c37.467-18.873 56.597-59.364 46.578-100.393a.44.44 0 0 0-.247-.298.46.46 0 0 0-.393.008l-29.263 14.606q-.537.269-.547.858"/></svg>
