<svg xmlns="http://www.w3.org/2000/svg" fill="none" viewBox="0 0 512 512"><path fill="#2E5CFF" fill-rule="evenodd" d="M512 256c0 141.385-114.615 256-256 256S0 397.385 0 256 114.615 0 256 0s256 114.615 256 256" clip-rule="evenodd"/><path fill="#fff" d="M392.731 145.266q-40.077-49.004-103.04-62.267c-17.5-3.698-13.352-30.885 7.636-26.278q80.587 17.745 126.669 85.033c8.812 12.871.557 19.833-10.896 25.452a11073 11073 0 0 0-70.166 34.852c-7.8 3.925-13.682 7.437-21.875 1.446a15955 15955 0 0 0-55.554-40.451q-8.524-6.177-16.324-.619a5326 5326 0 0 0-56.38 40.719c-9.246 6.755-14.24 2.727-22.887-1.467a3093 3093 0 0 1-76.088-38.302c-9.018-4.69-10.442-13.015-4.747-21.279q47.527-69.042 128.445-85.777c14.59-3.016 23.835 15.515 11.66 24.068q-2.498 1.736-9.411 3.326-58.258 13.408-98.583 60.449-1.692 1.962.62 3.12l58.732 29.439q1.362.681 2.58-.227a3540 3540 0 0 1 45.628-33.324c22.433-16.114 36.589-13.924 58.052 1.674a9436 9436 0 0 1 43.482 31.711q.825.6 1.754.145l60.363-29.976q1.093-.537.33-1.467M87.263 212.305c-19.357 81.479 18.677 161.348 92.66 199.257q7.388 3.78 9.576 6.921c5.345 7.685-.723 20.06-10.071 20.576q-4.314.249-11.288-3.161C77.915 391.605 33.855 288.31 64.893 191.997c3.735-11.611 10.009-18.738 22.618-12.54a6516 6516 0 0 1 79.266 39.583c5.449 2.768 9.184 6.982 9.287 12.912q.269 15.122.062 57.473c-.124 27.022 6.728 35.865 33.452 35.823q18.759-.04 37.56.124 1.176 0 1.176 1.178.269 50.842-.165 101.374c-.165 20.06-27.303 19.936-27.509-1.549q-.35-36.484.062-73.196a.96.96 0 0 0-.27-.678.98.98 0 0 0-.68-.293c-11.143-.144-23.773 1.157-33.823-2.045-27.406-8.697-37.106-29.935-37.126-56.978V241.31q0-.846-.764-1.219l-58.65-28.799q-1.692-.826-2.126 1.013m277.505 29.294q-.825 28.675-.619 57.371c.186 25.576-15.808 47.268-40.902 52.288-8.379 1.673-19.709.806-29.346.95q-1.238.02-1.176 1.261c.185 3.346-.434 6.487-.434 9.503q-.082 31.732-.082 63.465c0 16.692-19.729 23.097-25.858 8.201q-1.404-3.45-1.424-12.519a31927 31927 0 0 1-.021-95.9.96.96 0 0 1 .278-.672.96.96 0 0 1 .671-.278q17.913.125 35.991 0c22.949-.145 35.269-5.144 35.248-29.605v-62.308q-.02-9.337 8.255-13.449a15834 15834 0 0 0 76.542-38.343c12.589-6.342 21.298-6.425 26.023 8.553 30.811 97.697-10.628 199.175-101.698 245.451q-7.285 3.698-11.722 3.595c-9.369-.248-15.952-12.127-11.02-20.184q2.125-3.471 9.039-6.942c74.932-37.744 113.193-118.728 93.155-200.786a.88.88 0 0 0-.494-.594.91.91 0 0 0-.786.016l-58.526 29.212q-1.073.537-1.094 1.714"/></svg>