<svg xmlns="http://www.w3.org/2000/svg" fill="none" viewBox="0 0 256 256"><path fill="url(#paint0_radial_9885_1306)" d="M128 256c70.692 0 128-57.308 128-128S198.692 0 128 0 0 57.308 0 128s57.308 128 128 128"/><path fill="#fff" d="M78.768 161.496H60.539c1.486 28.466 25.293 53.206 67.514 53.206 42.032 0 68.816-23.07 68.816-52.832 0-21.21-15.436-44.464-52.262-57.111C120.614 96.571 111.5 86.158 111.5 75.74c0-9.675 7.808-19.908 23.808-19.908 17.854 0 37.938 13.954 39.428 31.812h18.039c-1.859-28.835-29.945-48.927-65.654-48.927-37.01 0-64.912 21.578-64.912 52.089 0 22.511 14.883 43.347 50.592 55.804 24.551 8.004 34.782 18.048 34.782 30.695 0 11.171-7.997 20.466-25.298 20.466-21.569 0-42.216-15.065-43.517-36.275m56.909-41.302c37.01 12.467 42.963 31.074 42.963 42.604 0 14.143-9.298 26.605-20.457 29.767 3.904-3.72 6.881-11.909 6.881-19.719 0-13.395-8.925-29.582-42.032-41.112-38.127-13.021-42.779-30.885-42.779-41.487 0-15.065 9.673-27.159 21.759-30.88-4.647 5.397-7.993 13.206-7.993 20.652 0 13.764 11.343 30.131 41.658 40.175"/><defs><radialGradient id="paint0_radial_9885_1306" cx="0" cy="0" r="1" gradientTransform="rotate(-90 212.47 84.254)scale(410.266)" gradientUnits="userSpaceOnUse"><stop stop-color="#FFD232"/><stop offset="1" stop-color="#FF6D6D"/></radialGradient></defs></svg>
