<svg width="256" height="256" viewBox="0 0 256 256" fill="none" xmlns="http://www.w3.org/2000/svg">
<path d="M128 256C198.692 256 256 198.692 256 128C256 57.3076 198.692 0 128 0C57.3076 0 0 57.3076 0 128C0 198.692 57.3076 256 128 256Z" fill="url(#paint0_radial_9885_1306)"/>
<path d="M78.7675 161.496H60.539C62.0247 189.962 85.8325 214.702 128.053 214.702C170.085 214.702 196.869 191.632 196.869 161.87C196.869 140.66 181.433 117.406 144.607 104.759C120.614 96.5706 111.5 86.1579 111.5 75.7402C111.5 66.0654 119.308 55.8321 135.308 55.8321C153.162 55.8321 173.246 69.7857 174.736 87.644H192.775C190.916 58.8093 162.83 38.7168 127.121 38.7168C90.1104 38.7168 62.2091 60.2954 62.2091 90.8057C62.2091 113.317 77.0922 134.153 112.801 146.61C137.352 154.614 147.583 164.658 147.583 177.305C147.583 188.476 139.586 197.771 122.285 197.771C100.716 197.771 80.0688 182.706 78.7675 161.496ZM135.677 120.194C172.687 132.661 178.64 151.268 178.64 162.798C178.64 176.941 169.342 189.403 158.183 192.565C162.087 188.845 165.064 180.656 165.064 172.846C165.064 159.451 156.139 143.264 123.032 131.734C84.9052 118.713 80.2533 100.849 80.2533 90.2472C80.2533 75.1816 89.926 63.0881 102.012 59.3679C97.365 64.7638 94.0195 72.5733 94.0195 80.019C94.0195 93.783 105.362 110.15 135.677 120.194Z" fill="white"/>
<defs>
<radialGradient id="paint0_radial_9885_1306" cx="0" cy="0" r="1" gradientUnits="userSpaceOnUse" gradientTransform="translate(128.215 296.724) rotate(-90) scale(410.266)">
<stop stop-color="#FFD232"/>
<stop offset="1" stop-color="#FF6D6D"/>
</radialGradient>
</defs>
</svg>
