<svg xmlns="http://www.w3.org/2000/svg" fill="none" viewBox="0 0 512 512"><path fill="#26A17B" d="M256 511.999c141.384 0 256-114.616 256-255.999C512 114.615 397.384 0 256 0 114.615 0 0 114.615 0 256c0 141.383 114.615 255.999 256 255.999Z"/><path fill="url(#paint0_linear_4193_3610)" d="M389.894 384.293c-113.515 22.93-224.415-50.639-247.485-163.494-11.54-54.683.311-109.3 28.507-153.405C85.424 106.685 34.865 200.725 54.473 297.292c23.07 112.854 133.97 186.424 247.484 163.494 58.512-11.463 105.396-46.212 135.937-92.637-15.227 6.936-30.446 12.704-48 16.144Z"/><path fill="#fff" fill-rule="evenodd" d="m457.093 353.074 13.942 9.903c3.143 2.231 2.816 6.993-.602 8.774l-45.137 23.517c-3.583 1.865-7.824-.929-7.519-4.96l3.972-52.753c.302-4 4.854-6.138 8.126-3.815l12.498 8.88c31.919-72.532 20.121-160.191-36.999-222.16-76.334-82.813-204.947-88.655-288.457-13.563-1.059.952-2.696.894-3.661-.152l-8.511-9.234a2.565 2.565 0 0 1 .166-3.639c90.704-81.721 230.523-75.422 313.486 14.583 62.937 68.278 75.193 165.233 38.696 244.619ZM54.462 162.04l-13.942-9.903c-3.141-2.23-2.814-6.993.603-8.773l45.136-23.516c3.584-1.868 7.825.928 7.521 4.958l-3.973 52.753c-.302 4-4.855 6.138-8.125 3.815l-12.502-8.879c-31.915 72.531-20.12 160.191 37.001 222.16 76.334 82.812 204.948 88.653 288.457 13.563 1.061-.951 2.698-.896 3.66.151l8.511 9.234a2.563 2.563 0 0 1-.165 3.639c-90.704 81.721-230.522 75.424-313.486-14.584C30.22 338.382 17.966 241.427 54.462 162.04Z" clip-rule="evenodd"/><path fill="#fff" fill-rule="evenodd" d="M361.376 148.231H149.158v51.875h77.814v76.634h54.233v-76.634h80.171v-51.875ZM226.972 405.252v-107.95h-46.971v-10.281h149.071v10.281h-47.867v107.95h-54.233Z" clip-rule="evenodd"/><defs><linearGradient id="paint0_linear_4193_3610" x1="-14.726" x2="288.812" y1="569.99" y2="208.42" gradientUnits="userSpaceOnUse"><stop offset=".073" stop-color="#fff" stop-opacity=".81"/><stop offset=".477" stop-color="#fff" stop-opacity=".48"/><stop offset="1" stop-color="#fff" stop-opacity="0"/></linearGradient></defs></svg>