<svg xmlns="http://www.w3.org/2000/svg" fill="none" viewBox="0 0 256 256"><path fill="#2DC9A3" d="M128 256c70.934 0 128-57.066 128-128S198.934 0 128 0 0 57.066 0 128s57.066 128 128 128"/><path fill="#fff" fill-rule="evenodd" d="M145.71 142.978c-.989.074-6.1.379-17.5.379-9.067 0-15.505-.272-17.763-.379-35.04-1.541-61.195-7.637-61.195-14.936s26.155-13.387 61.195-14.952v23.816c2.291.165 8.853.552 17.92.552 10.88 0 16.329-.453 17.31-.543v-23.808c34.966 1.557 61.063 7.653 61.063 14.935s-26.089 13.379-61.063 14.928zm0-32.335V89.331h48.797V56.832H61.649v32.5h48.79v21.303c-39.656 1.821-69.479 9.672-69.479 19.08s29.822 17.25 69.479 19.079v68.294h35.262v-68.319c39.566-1.82 69.339-9.663 69.339-19.063s-29.748-17.242-69.339-19.071z" clip-rule="evenodd"/></svg>
