<svg xmlns="http://www.w3.org/2000/svg" fill="none" viewBox="0 0 256 256"><path fill="#26A17B" d="M128 256c70.692 0 128-57.308 128-128S198.692 0 128 0 0 57.308 0 128s57.308 128 128 128"/><path fill="url(#paint0_linear_4193_3610)" d="M194.947 192.147C138.19 203.612 82.74 166.827 71.205 110.4c-5.77-27.342.155-54.65 14.253-76.703-42.746 19.645-68.026 66.666-58.222 114.949 11.536 56.427 66.986 93.212 123.743 81.747 29.256-5.731 52.698-23.106 67.968-46.318-7.613 3.468-15.223 6.352-24 8.072"/><path fill="#fff" fill-rule="evenodd" d="m228.547 176.537 6.971 4.952c1.571 1.115 1.408 3.496-.301 4.387l-22.568 11.758c-1.792.933-3.913-.464-3.76-2.48l1.986-26.376c.151-2 2.427-3.069 4.063-1.908l6.249 4.44c15.959-36.266 10.061-80.095-18.5-111.08-38.167-41.406-102.473-44.327-144.228-6.781a1.306 1.306 0 0 1-1.83-.076l-4.257-4.617a1.28 1.28 0 0 1 .084-1.82c45.352-40.86 115.261-37.711 156.743 7.292 31.468 34.139 37.596 82.616 19.348 122.309M27.231 81.02l-6.971-4.95c-1.57-1.116-1.407-3.497.302-4.387L43.13 59.924c1.792-.934 3.912.464 3.76 2.48L44.903 88.78c-.15 2-2.427 3.069-4.062 1.907l-6.25-4.44c-15.958 36.266-10.061 80.096 18.5 111.081 38.167 41.406 102.474 44.327 144.228 6.782a1.307 1.307 0 0 1 1.831.075l4.255 4.617a1.28 1.28 0 0 1-.083 1.819c-45.351 40.861-115.26 37.712-156.743-7.292C15.11 169.191 8.983 120.714 27.23 81.02" clip-rule="evenodd"/><path fill="#fff" fill-rule="evenodd" d="M180.688 74.116H74.579v25.937h38.907v38.317h27.117v-38.317h40.085zm-67.202 128.51v-53.975H90.001v-5.14h74.535v5.14h-23.933v53.975z" clip-rule="evenodd"/><defs><linearGradient id="paint0_linear_4193_3610" x1="-7.363" x2="144.406" y1="284.996" y2="104.21" gradientUnits="userSpaceOnUse"><stop offset=".073" stop-color="#fff" stop-opacity=".81"/><stop offset=".477" stop-color="#fff" stop-opacity=".48"/><stop offset="1" stop-color="#fff" stop-opacity="0"/></linearGradient></defs></svg>
