<svg xmlns="http://www.w3.org/2000/svg" fill="none" viewBox="0 0 256 256"><path fill="#000" fill-rule="evenodd" d="M256 128c0 70.934-57.066 128-128 128S0 198.934 0 128 57.066 0 128 0s128 57.066 128 128m-110.29-17.357v-.008c39.586 1.83 69.33 9.672 69.33 19.071s-29.773 17.243-69.339 19.063v68.319h-35.262v-68.294c-39.656-1.829-69.479-9.671-69.479-19.079s29.822-17.259 69.479-19.08V89.331h-48.79V56.832h132.858v32.5H145.71v21.303h-.009zm0 32.335c-.989.074-6.1.379-17.5.379-9.067 0-15.505-.272-17.763-.379-35.04-1.541-61.195-7.637-61.195-14.936s26.155-13.387 61.195-14.952v23.816c2.291.165 8.853.552 17.92.552 10.88 0 16.329-.453 17.31-.543v-23.808c34.966 1.557 61.063 7.653 61.063 14.935s-26.089 13.379-61.063 14.928z" clip-rule="evenodd"/></svg>