<svg xmlns="http://www.w3.org/2000/svg" fill="none" viewBox="0 0 256 256"><path fill="#0A0A0A" d="M256 127.973a127.9 127.9 0 0 1-21.568 71.181 128.04 128.04 0 0 1-57.539 47.173 128.14 128.14 0 0 1-73.862 7.206 128.1 128.1 0 0 1-65.492-35.005 127.93 127.93 0 0 1-35.031-65.443 127.87 127.87 0 0 1 7.146-73.94 128 128 0 0 1 47.049-57.516 128.14 128.14 0 0 1 131.56-6.544 128 128 0 0 1 49.508 47.074A127.9 127.9 0 0 1 256 127.973"/><path fill="#F7F7F7" fill-rule="evenodd" d="M207.486 157.89a39.95 39.95 0 0 1-11.635 28.18 40 40 0 0 1-28.137 11.781h-29.938v29.698h-19.668v-29.698H87.952a40 40 0 0 1-28.137-11.781 39.95 39.95 0 0 1-11.635-28.18h19.886c0 5.27 2.095 10.325 5.824 14.051a19.9 19.9 0 0 0 14.062 5.821h79.762a19.9 19.9 0 0 0 14.062-5.821 19.864 19.864 0 0 0 0-28.102 19.9 19.9 0 0 0-14.062-5.82H87.952a39.8 39.8 0 0 1-27.841-11.794 39.73 39.73 0 0 1-11.494-27.948 39.73 39.73 0 0 1 11.417-28.09 39.8 39.8 0 0 1 27.918-11.871h29.938V28.618h19.886v29.698h29.938a40 40 0 0 1 28.137 11.78 39.95 39.95 0 0 1 11.635 28.18h-19.667a19.86 19.86 0 0 0-5.823-14.27 19.9 19.9 0 0 0-14.282-5.82H87.952a20 20 0 0 0-14.14 5.853 19.97 19.97 0 0 0 0 28.257 20 20 0 0 0 14.14 5.852h79.762a40 40 0 0 1 28.06 11.703 39.95 39.95 0 0 1 11.712 28.039" clip-rule="evenodd"/></svg>
