<svg xmlns="http://www.w3.org/2000/svg" fill="none" viewBox="0 0 256 256"><path fill="#122B60" d="M128 256c70.692 0 128-57.308 128-128S198.692 0 128 0 0 57.308 0 128s57.308 128 128 128"/><path fill="#fff" fill-rule="evenodd" d="M197.023 127.5c0-37.868-30.753-68.567-68.688-68.567V34c6.466 0 12.78.654 18.877 1.9C189.893 44.618 222 82.316 222 127.5c0 51.639-41.935 93.5-93.665 93.5-40.782 0-75.477-26.018-88.335-62.333h27.137c11.37 22.201 34.506 37.4 61.198 37.4 37.935 0 68.688-30.699 68.688-68.567M45.473 83.867c15.705 29.657 46.92 49.866 82.862 49.866V108.8c-30.783 0-56.837-20.214-65.566-48.071a93.8 93.8 0 0 0-17.295 23.138M73.335 51.81c5.344 25.429 27.939 44.523 55.001 44.523 17.243 0 31.222 13.954 31.222 31.167s-13.979 31.167-31.222 31.167H81.6c10.082 15.034 27.25 24.933 46.735 24.933 31.038 0 56.199-25.117 56.199-56.1s-25.161-56.1-56.199-56.1c-17.243 0-31.221-13.954-31.221-31.167v-.913a93.5 93.5 0 0 0-23.78 12.49" clip-rule="evenodd"/></svg>
