<svg width="256" height="256" viewBox="0 0 256 256" fill="none" xmlns="http://www.w3.org/2000/svg">
<path d="M128 256C198.692 256 256 198.692 256 128C256 57.3075 198.692 0 128 0C57.3075 0 0 57.3075 0 128C0 198.692 57.3075 256 128 256Z" fill="#122B60"/>
<path fill-rule="evenodd" clip-rule="evenodd" d="M197.023 127.5C197.023 89.6316 166.27 58.9334 128.335 58.9334V34C134.801 34 141.115 34.6541 147.212 35.8996C189.893 44.6181 222 82.3161 222 127.5C222 179.139 180.065 221 128.335 221C87.5528 221 52.8582 194.982 40 158.667H67.1371C78.5062 180.868 101.643 196.067 128.335 196.067C166.27 196.067 197.023 165.368 197.023 127.5ZM45.4736 83.8666C61.1779 113.524 92.3925 133.733 128.335 133.733V108.8C97.552 108.8 71.4982 88.5855 62.7688 60.7286C55.8764 67.4737 50.024 75.2737 45.4736 83.8666ZM73.3342 51.8097C78.6783 77.2386 101.273 96.3334 128.335 96.3334C145.578 96.3334 159.557 110.287 159.557 127.5C159.557 144.713 145.578 158.667 128.335 158.667H81.5999C91.6815 173.701 108.85 183.6 128.335 183.6C159.373 183.6 184.534 158.483 184.534 127.5C184.534 96.5169 159.373 71.4 128.335 71.4C111.092 71.4 97.1136 57.4463 97.1136 40.2333V39.3203C88.5466 42.343 80.5516 46.5746 73.3342 51.8097Z" fill="white"/>
</svg>
