<svg xmlns="http://www.w3.org/2000/svg" fill="none" viewBox="0 0 256 256"><path fill="#fff" fill-rule="evenodd" d="M256 128c0 70.692-57.308 128-128 128S0 198.692 0 128 57.308 0 128 0s128 57.308 128 128" clip-rule="evenodd"/><path fill="#A4D3FF" d="M88.004 45C87.763 87.271 63.277 124.127 27 143.818L67.496 210c60.486-32.898 101.259-94.45 101.5-165z"/><path fill="#1E2FC5" d="M168.996 45c.241 42.271 24.727 79.127 61.004 98.818L189.504 210c-60.486-32.898-101.26-94.45-101.5-165z"/><path fill="#2764FF" d="M88.004 45.035c.144 42.771 15.202 82.21 40.496 113.981 25.294-31.771 40.352-71.21 40.496-113.981z"/></svg>