<svg xmlns="http://www.w3.org/2000/svg" fill="none" viewBox="0 0 512 512"><path fill="#fff" d="M256 512c141.385 0 256-114.615 256-256S397.385 0 256 0 0 114.615 0 256s114.615 256 256 256Z"/><path fill="#00C7F9" d="M429.057 154.225v209.648L257.4 463.872l.594-209.617 171.063-100.03Z"/><path fill="#00C7F9" d="m257.994 254.255-.594 209.617-172.772-99.991-.66-209.656 174.026 100.03ZM83.969 154.225l172.903-99.953 172.185 99.953-171.063 100.03-174.025-100.03Z"/><path fill="url(#paint0_linear_4232_4909)" d="m402.026 171.044-.506 176.048-144.165 83.979.506-176.056 144.165-83.978v.007Z"/><path fill="url(#paint1_linear_4232_4909)" d="m257.861 255.015-.506 176.048-145.102-83.971.498-176.048 145.117 83.971h-.007Z"/><path fill="url(#paint2_linear_4232_4909)" d="m112.751 171.044 144.166-83.97 145.116 83.97-144.18 83.971-145.109-83.978.007.007Z"/><path fill="url(#paint3_linear_4232_4909)" d="m199.822 222.312.2 69.522 56.924 33.159-.2-69.522-56.924-33.159Z"/><path fill="url(#paint4_linear_4232_4909)" d="m256.746 255.471.2 69.522 57.296-33.159-.193-69.522-57.303 33.159Z"/><path fill="url(#paint5_linear_4232_4909)" d="m314.049 222.312-56.924-33.159-57.303 33.159 56.924 33.159 57.303-33.159Z"/><path fill="#00EAFF" fill-opacity=".5" d="m188.915 215.68.231 82.779 67.785 39.485-.23-82.778-67.786-39.486Z"/><path fill="#00EAFF" fill-opacity=".5" d="m256.693 255.166.238 82.778 68.224-39.493-.23-82.771-68.232 39.493v-.007Z"/><path fill="#00EAFF" fill-opacity=".5" d="m324.925 215.68-67.786-39.478-68.224 39.478 67.778 39.493 68.232-39.493Z"/><defs><linearGradient id="paint0_linear_4232_4909" x1="-117.639" x2="360.531" y1="620.929" y2="-310.016" gradientUnits="userSpaceOnUse"><stop offset=".315" stop-color="#2EE7FF"/><stop offset=".4" stop-color="#00DDFB"/><stop offset=".505" stop-color="#009BFA"/><stop offset=".606" stop-color="#005FDD"/></linearGradient><linearGradient id="paint1_linear_4232_4909" x1="-116.105" x2="358.938" y1="258.791" y2="554.611" gradientUnits="userSpaceOnUse"><stop offset=".32" stop-color="#49DCFF"/><stop offset=".511" stop-color="#009BFA"/><stop offset=".735" stop-color="#005EFA"/></linearGradient><linearGradient id="paint2_linear_4232_4909" x1="663.494" x2="-33.592" y1="-49.525" y2="-31.218" gradientUnits="userSpaceOnUse"><stop offset=".38" stop-color="#005FDD"/><stop offset=".52" stop-color="#009BFA"/><stop offset=".69" stop-color="#2EE7FF"/></linearGradient><linearGradient id="paint3_linear_4232_4909" x1="659.624" x2="200.318" y1="569.542" y2="-238.036" gradientUnits="userSpaceOnUse"><stop offset=".209" stop-color="#01F5FF"/><stop offset=".47" stop-color="#00B5CF"/><stop offset=".746" stop-color="#00456D"/></linearGradient><linearGradient id="paint4_linear_4232_4909" x1="252.405" x2="198.87" y1="-21.039" y2="595.047" gradientUnits="userSpaceOnUse"><stop offset=".138" stop-color="#00C4CC"/><stop offset=".495" stop-color="#00C0DA"/><stop offset=".795" stop-color="#003F96"/></linearGradient><linearGradient id="paint5_linear_4232_4909" x1="-129.597" x2="661.521" y1="-25.209" y2="113.511" gradientUnits="userSpaceOnUse"><stop offset=".341" stop-color="#00AAB4"/><stop offset=".52" stop-color="#00E0EB"/><stop offset=".766" stop-color="#00DEFB"/></linearGradient></defs></svg>