<svg xmlns="http://www.w3.org/2000/svg" fill="none" viewBox="0 0 256 256"><path fill="#fff" d="M128 256c70.692 0 128-57.308 128-128S198.692 0 128 0 0 57.308 0 128s57.308 128 128 128"/><path fill="#00C7F9" d="M214.528 77.112v104.824l-85.828 50 .297-104.809z"/><path fill="#00C7F9" d="m128.997 127.127-.297 104.809-86.386-49.996-.33-104.828zM41.984 77.112l86.452-49.976 86.092 49.976-85.531 50.015z"/><path fill="url(#paint0_linear_4232_4909)" d="m201.013 85.522-.253 88.024-72.082 41.989.252-88.028 72.083-41.989z"/><path fill="url(#paint1_linear_4232_4909)" d="m128.93 127.507-.252 88.024-72.551-41.985.249-88.024 72.558 41.985z"/><path fill="url(#paint2_linear_4232_4909)" d="m56.376 85.522 72.082-41.986 72.559 41.986-72.09 41.985-72.555-41.989z"/><path fill="url(#paint3_linear_4232_4909)" d="m99.91 111.156.101 34.761 28.462 16.579-.1-34.761z"/><path fill="url(#paint4_linear_4232_4909)" d="m128.373 127.735.1 34.761 28.648-16.579-.097-34.761z"/><path fill="url(#paint5_linear_4232_4909)" d="m157.024 111.156-28.462-16.58-28.651 16.58 28.462 16.579z"/><path fill="#00EAFF" fill-opacity=".5" d="m94.458 107.84.115 41.389 33.893 19.743-.116-41.389z"/><path fill="#00EAFF" fill-opacity=".5" d="m128.347 127.583.119 41.389 34.112-19.747-.116-41.385-34.115 19.746z"/><path fill="#00EAFF" fill-opacity=".5" d="M162.462 107.84 128.57 88.101 94.458 107.84l33.889 19.746z"/><defs><linearGradient id="paint0_linear_4232_4909" x1="-58.819" x2="180.265" y1="310.464" y2="-155.008" gradientUnits="userSpaceOnUse"><stop offset=".315" stop-color="#2EE7FF"/><stop offset=".4" stop-color="#00DDFB"/><stop offset=".505" stop-color="#009BFA"/><stop offset=".606" stop-color="#005FDD"/></linearGradient><linearGradient id="paint1_linear_4232_4909" x1="-58.053" x2="179.469" y1="129.395" y2="277.305" gradientUnits="userSpaceOnUse"><stop offset=".32" stop-color="#49DCFF"/><stop offset=".511" stop-color="#009BFA"/><stop offset=".735" stop-color="#005EFA"/></linearGradient><linearGradient id="paint2_linear_4232_4909" x1="331.747" x2="-16.796" y1="-24.763" y2="-15.609" gradientUnits="userSpaceOnUse"><stop offset=".38" stop-color="#005FDD"/><stop offset=".52" stop-color="#009BFA"/><stop offset=".69" stop-color="#2EE7FF"/></linearGradient><linearGradient id="paint3_linear_4232_4909" x1="329.812" x2="100.159" y1="284.771" y2="-119.018" gradientUnits="userSpaceOnUse"><stop offset=".209" stop-color="#01F5FF"/><stop offset=".47" stop-color="#00B5CF"/><stop offset=".746" stop-color="#00456D"/></linearGradient><linearGradient id="paint4_linear_4232_4909" x1="126.203" x2="99.435" y1="-10.52" y2="297.523" gradientUnits="userSpaceOnUse"><stop offset=".138" stop-color="#00C4CC"/><stop offset=".495" stop-color="#00C0DA"/><stop offset=".795" stop-color="#003F96"/></linearGradient><linearGradient id="paint5_linear_4232_4909" x1="-64.799" x2="330.761" y1="-12.605" y2="56.755" gradientUnits="userSpaceOnUse"><stop offset=".341" stop-color="#00AAB4"/><stop offset=".52" stop-color="#00E0EB"/><stop offset=".766" stop-color="#00DEFB"/></linearGradient></defs></svg>