<svg xmlns="http://www.w3.org/2000/svg" fill="none" viewBox="0 0 256 256"><path fill="#4281A4" d="M256 127.973a127.9 127.9 0 0 1-34.163 87.123 128.1 128.1 0 0 1-44.944 31.231 128.14 128.14 0 0 1-73.862 7.206 128.1 128.1 0 0 1-68.912-38.557 127.93 127.93 0 0 1-31.611-61.891 127.87 127.87 0 0 1 7.146-73.94 128 128 0 0 1 47.049-57.516 128.14 128.14 0 0 1 131.56-6.544 128 128 0 0 1 49.508 47.074A127.9 127.9 0 0 1 256 127.973"/><path fill="#F6E8D7" fill-rule="evenodd" d="M218.912 129.229C218.898 79.757 181.495 38 124.363 38c-47.388 1.718-87.797 36.936-87.828 93.632l41.002 40.604-43.418 42.74A126 126 0 0 0 40.082 221H215.99a128 128 0 0 0 5.847-5.904l-26.115-25.013c13.944-15.596 23.197-35.419 23.19-60.854m-136.524 47.81 35.658 35.313h-71.46zm-35.683-45.407 82.14 80.72h78.74l-79.756-80.134zm77.658-85.947c-43.37 1.404-78.347 36.008-80.358 79.224h80.358zm85.938 83.156c0 21.096-7.829 40.345-20.762 55.007L132.5 126.336V45.812c43.437 2.781 77.801 38.894 77.801 83.029" clip-rule="evenodd"/></svg>
