<svg xmlns="http://www.w3.org/2000/svg" fill="none" viewBox="0 0 256 256"><path fill="#000" d="M128 256c70.692 0 128-57.308 128-128S198.692 0 128 0 0 57.308 0 128s57.308 128 128 128"/><path fill="#fff" d="m155.276 115.643 31.14 33.619 3.577-3.821-31.139-33.619 8.781-9.513 31.18 33.619 3.577-3.821-31.18-33.62 28.172-30.407h-21.261l-17.521 18.903-30.977-33.375-3.577 3.821 30.936 33.376-8.822 9.512-30.936-33.375-3.577 3.78 30.977 33.416-18.294 19.757L74.623 68.08H53.321l62.401 67.279-62.4 67.32h21.301l51.75-55.815 51.709 55.815h21.302l-62.32-67.361 18.294-19.716z"/></svg>