<svg xmlns="http://www.w3.org/2000/svg" fill="none" viewBox="0 0 258 258"><path fill="#000" d="M129 257c70.692 0 128-57.308 128-128S199.692 1 129 1 1 58.308 1 129s57.308 128 128 128"/><path fill="#fff" d="M217.645 129.213a88.3 88.3 0 0 0-6.954-34.476 88.845 88.845 0 0 0-108.028-50.449 88.84 88.84 0 1 0 114.982 84.925m-6.954 0q0 7.315-1.272 14.503h-26.546l-50.336-50.42v-45.63a81.63 81.63 0 0 1 78.154 81.547m-163.262 0c0-43.89 34.688-79.723 78.153-81.546V93.38l-50.335 50.294H48.7a82 82 0 0 1-1.272-14.418zm160.421 21.415a81.673 81.673 0 0 1-157.58 0h27.86l.382-.339 50.505-50.59 50.548 50.59.424.339z"/><path stroke="#fff" stroke-width=".6" d="M217.645 129.213a88.3 88.3 0 0 0-6.954-34.476 88.845 88.845 0 0 0-108.028-50.449 88.84 88.84 0 1 0 114.982 84.925Zm0 0h-1.272M257 129c0 70.692-57.308 128-128 128S1 199.692 1 129 58.308 1 129 1s128 57.308 128 128Zm-46.309.213q0 7.315-1.272 14.503h-26.546l-50.336-50.42v-45.63a81.63 81.63 0 0 1 78.154 81.547Zm-163.262 0c0-43.89 34.688-79.723 78.153-81.546V93.38l-50.335 50.294H48.7a82 82 0 0 1-1.272-14.418zm160.421 21.415a81.673 81.673 0 0 1-157.58 0h27.86l.382-.339 50.505-50.59 50.548 50.59.424.339z"/></svg>