<svg xmlns="http://www.w3.org/2000/svg" fill="none" viewBox="0 0 256 256"><path fill="#fff" d="M128 256c70.692 0 128-57.308 128-128S198.692 0 128 0 0 57.308 0 128s57.308 128 128 128"/><path fill="url(#paint0_linear_4232_4895)" d="m199.228 118.713-28.402 49.806a48.9 48.9 0 0 1-17.859 18.16 48.9 48.9 0 0 1-24.576 6.715l28.29-49.806 14.201-24.875 14.145-24.875 14.145 24.875z"/><path fill="url(#paint1_linear_4232_4895)" d="m199.228 118.713-28.402 49.806a48.9 48.9 0 0 1-17.859 18.16 48.9 48.9 0 0 1-24.576 6.715l28.29-49.806 14.201-24.875 14.145-24.875 14.145 24.875z"/><path fill="url(#paint2_linear_4232_4895)" d="m241.664 93.838-14.146 24.875-14.201 24.875-14.145 24.931a48.8 48.8 0 0 1-17.854 18.167 48.87 48.87 0 0 1-24.581 6.708h-28.346c17.542 0 33.748-9.46 42.491-24.875l28.29-49.806-14.145-24.875z"/><path fill="url(#paint3_linear_4232_4895)" d="M185.027 93.838H71.81l8.91-15.804 5.235-9.127h56.637c17.319 0 33.413 9.294 42.157 24.486z"/><path fill="url(#paint4_linear_4232_4895)" d="M185.027 93.838H71.81l8.91-15.804 5.235-9.127h56.637c17.319 0 33.413 9.294 42.157 24.486z"/><path fill="url(#paint5_linear_4232_4895)" d="M184.749 93.337A48.9 48.9 0 0 0 166.933 75.5a48.9 48.9 0 0 0-24.341-6.593H85.955l-5.18 9.127-8.965 15.748-28.29-49.75h84.982a48.65 48.65 0 0 1 23.056 5.899 50 50 0 0 1 6.682 4.34l1.226 1.002a58 58 0 0 1 3.564 3.284 50 50 0 0 1 7.796 10.35h.056l13.922 24.486z"/><path fill="url(#paint6_linear_4232_4895)" d="M128.391 193.394H100.1l-28.29-49.806a50.44 50.44 0 0 1-.279-49.305l.279-.445 5.18 9.071 8.91 15.804 14.2 24.875z"/><path fill="url(#paint7_linear_4232_4895)" d="M128.391 193.394H100.1l-28.29-49.806a50.44 50.44 0 0 1-.279-49.305l.279-.445 5.18 9.071 8.91 15.804 14.2 24.875z"/><path fill="url(#paint8_linear_4232_4895)" d="M128.391 193.394 100.1 243.2l-14.145-24.875-8.687-15.192-5.458-9.683-14.201-24.875a51 51 0 0 1-3.954-9.015l-.446-1.336a57 57 0 0 1-1.782-8.347l-.11-1.391-.112-1.447v-.223l-.112-1.558v-1.503a50.5 50.5 0 0 1 3.676-19.087l.612-1.503a53 53 0 0 1 2.228-4.452l13.922-24.43a50.5 50.5 0 0 0 .279 49.361l28.29 49.75z"/><defs><linearGradient id="paint0_linear_4232_4895" x1="330.454" x2="110.047" y1="28.112" y2="293.294" gradientUnits="userSpaceOnUse"><stop stop-color="#02F0FE"/><stop offset="1" stop-color="#4D7EFE"/></linearGradient><linearGradient id="paint1_linear_4232_4895" x1="200.854" x2="162.918" y1="101.884" y2="205.471" gradientUnits="userSpaceOnUse"><stop stop-color="#4D4AFE"/><stop offset="1" stop-color="#4D7EFE" stop-opacity="0"/></linearGradient><linearGradient id="paint2_linear_4232_4895" x1="241.469" x2="82.243" y1="92.92" y2="221.9" gradientUnits="userSpaceOnUse"><stop stop-color="#02F0FE"/><stop offset="1" stop-color="#4D7EFE"/></linearGradient><linearGradient id="paint3_linear_4232_4895" x1="-3.945" x2="255.013" y1="-34.212" y2="-15.79" gradientUnits="userSpaceOnUse"><stop stop-color="#02F0FE"/><stop offset="1" stop-color="#4D7EFE"/></linearGradient><linearGradient id="paint4_linear_4232_4895" x1="68.074" x2="183.839" y1="78.499" y2="94.878" gradientUnits="userSpaceOnUse"><stop stop-color="#4D4AFE"/><stop offset="1" stop-color="#4D7EFE" stop-opacity="0"/></linearGradient><linearGradient id="paint5_linear_4232_4895" x1="43.861" x2="196.045" y1="44.2" y2="-17.522" gradientUnits="userSpaceOnUse"><stop stop-color="#02F0FE"/><stop offset="1" stop-color="#4D7EFE"/></linearGradient><linearGradient id="paint6_linear_4232_4895" x1="195.363" x2="154.3" y1="336.939" y2="33.688" gradientUnits="userSpaceOnUse"><stop stop-color="#02F0FE"/><stop offset="1" stop-color="#4D7EFE"/></linearGradient><linearGradient id="paint7_linear_4232_4895" x1="116.499" x2="115.575" y1="202.442" y2="94.883" gradientUnits="userSpaceOnUse"><stop stop-color="#4D4AFE"/><stop offset="1" stop-color="#4D7EFE" stop-opacity="0"/></linearGradient><linearGradient id="paint8_linear_4232_4895" x1="100.25" x2="43.559" y1="243" y2="43.983" gradientUnits="userSpaceOnUse"><stop stop-color="#02F0FE"/><stop offset="1" stop-color="#4D7EFE"/></linearGradient></defs></svg>