<svg xmlns="http://www.w3.org/2000/svg" fill="none" viewBox="0 0 512 512"><path fill="#fff" d="M256 512c141.385 0 256-114.615 256-256S397.385 0 256 0c-38.454 0-74.928 8.478-107.654 23.668 70.645 3.699 127.99 30.126 156.275 78.847l19.189 30.358 19.152 30.299 19.188 30.357c51.343 88.439-10.062 221.054-138.742 316.416A258.507 258.507 0 0 0 256 512Z"/><path fill="#fff" d="M92.203 432.09C214.9 362.863 290.147 255.924 283.502 171.66c-63.126-37.586-168.582-33.368-273.561 13.454C3.468 207.624 0 231.407 0 256c0 72.158 29.855 137.344 77.885 183.879a529.465 529.465 0 0 0 14.318-7.789Z"/><path fill="#F10" d="M342.962 163.172c54.974 94.692-19.309 240.029-167.031 336.057a254.518 254.518 0 0 0 47.477 10.716c128.68-95.362 190.085-227.977 138.742-316.416l-19.188-30.357Z"/><path fill="#FDBF41" d="M323.81 132.873c57.534 99.102-26.507 253.674-188.14 349.142a254.474 254.474 0 0 0 40.261 17.214c147.722-96.028 222.005-241.365 167.031-336.057l-19.152-30.299Z"/><path fill="#0075EB" d="M304.621 102.515c58.72 101.144-30.031 260.069-198.231 354.968-1.61.908-3.222 1.808-4.835 2.698a256.26 256.26 0 0 0 34.115 21.834c161.633-95.468 245.674-250.04 188.14-349.142l-19.189-30.358Z"/><path fill="#228DFF" d="M106.39 457.483c168.2-94.899 256.951-253.824 198.231-354.968-28.285-48.721-85.63-75.148-156.275-78.847a256.093 256.093 0 0 0-52.491 32.597c78.358-5.78 143.683 16.557 172.721 66.573a110.37 110.37 0 0 1 6.168 12.343 112.409 112.409 0 0 1 5.751 17.447c1.499 6.191 2.496 12.544 3.007 19.032 6.645 84.264-68.601 191.203-191.3 260.43a529.465 529.465 0 0 1-14.317 7.789 257.51 257.51 0 0 0 23.67 20.302c1.613-.89 3.225-1.79 4.835-2.698Z"/><path fill="#0075EB" d="M274.744 135.181a110.37 110.37 0 0 0-6.168-12.343c-29.038-50.016-94.363-72.353-172.721-66.573A257.544 257.544 0 0 0 56.437 95.64c92.618-21.517 176.046-8.137 218.307 39.541Z"/><path fill="#F4B63B" d="M280.495 152.628a112.409 112.409 0 0 0-5.751-17.447c-42.261-47.678-125.689-61.058-218.307-39.54a256.275 256.275 0 0 0-28.714 44.369c101.745-35.847 199.173-31.394 252.772 12.618Z"/><path fill="#EE1000" d="M283.502 171.66c-.511-6.488-1.508-12.841-3.007-19.032-53.599-44.012-151.027-48.465-252.772-12.618A254.317 254.317 0 0 0 9.94 185.114c104.979-46.822 210.435-51.04 273.561-13.454Z"/></svg>