<svg xmlns="http://www.w3.org/2000/svg" fill="none" viewBox="0 0 256 256"><path fill="#fff" d="M128 256c70.692 0 128-57.308 128-128S198.692 0 128 0c-19.227 0-37.464 4.24-53.827 11.834 35.323 1.85 63.995 15.063 78.138 39.424l9.594 15.178 9.576 15.15 9.594 15.178c25.672 44.22-5.031 110.527-69.371 158.208A129 129 0 0 0 128 256"/><path fill="#fff" d="M46.101 216.045c61.349-34.614 98.973-88.083 95.65-130.215-31.563-18.793-84.291-16.684-136.78 6.727C1.733 103.812 0 115.704 0 128c0 36.079 14.927 68.672 38.943 91.939a262 262 0 0 0 7.158-3.894"/><path fill="#F10" d="M171.481 81.586c27.487 47.346-9.655 120.014-83.516 168.029a127.3 127.3 0 0 0 23.739 5.357c64.34-47.681 95.043-113.988 69.371-158.208z"/><path fill="#FDBF41" d="M161.905 66.437c28.767 49.55-13.254 126.837-94.07 174.57a127.3 127.3 0 0 0 20.13 8.608c73.861-48.015 111.003-120.683 83.516-168.029z"/><path fill="#0075EB" d="M152.311 51.258c29.359 50.572-15.016 130.034-99.116 177.483q-1.207.682-2.418 1.35a128 128 0 0 0 17.058 10.916c80.816-47.733 122.837-125.02 94.07-174.57z"/><path fill="#228DFF" d="M53.195 228.741c84.1-47.449 128.475-126.911 99.116-177.484-14.143-24.36-42.815-37.574-78.138-39.423a128 128 0 0 0-26.246 16.298c39.18-2.89 71.842 8.279 86.361 33.287a55 55 0 0 1 3.084 6.172 56 56 0 0 1 2.876 8.723 61 61 0 0 1 1.503 9.516c3.323 42.132-34.301 95.601-95.65 130.215a262 262 0 0 1-7.158 3.894 129 129 0 0 0 11.834 10.152 299 299 0 0 0 2.418-1.35"/><path fill="#0075EB" d="M137.372 67.59a55 55 0 0 0-3.084-6.17c-14.519-25.01-47.182-36.177-86.36-33.288a128.8 128.8 0 0 0-19.71 19.688c46.31-10.758 88.024-4.069 109.154 19.77"/><path fill="#F4B63B" d="M140.248 76.314a56 56 0 0 0-2.876-8.723c-21.13-23.84-62.845-30.53-109.154-19.77a128 128 0 0 0-14.356 22.184c50.872-17.923 99.586-15.697 126.386 6.309"/><path fill="#EE1000" d="M141.751 85.83a61 61 0 0 0-1.503-9.516c-26.8-22.006-75.514-24.232-126.386-6.309A127 127 0 0 0 4.97 92.557c52.489-23.411 105.217-25.52 136.78-6.727"/></svg>