<svg xmlns="http://www.w3.org/2000/svg" fill="none" viewBox="0 0 256 256"><path fill="#393C55" d="M128 256c70.692 0 128-57.308 128-128S198.692 0 128 0 0 57.308 0 128s57.308 128 128 128"/><path fill="#fff" d="M127.516 223a55.8 55.8 0 0 1-21.438-4.23 55.7 55.7 0 0 1-18.154-12.143l-43.548-43.433c-21.835-21.805-21.835-57.279 0-79.07L66.13 62.406A55.7 55.7 0 0 1 84.3 50.24 55.8 55.8 0 0 1 105.763 46h43.506c14.969 0 29.037 5.82 39.606 16.366l21.754 21.716c21.828 21.799 21.828 57.273 0 79.065l-43.507 43.474a55.7 55.7 0 0 1-18.16 12.149 55.8 55.8 0 0 1-21.446 4.23M105.763 63.55c-10.27 0-19.912 3.983-27.147 11.254L56.82 96.514c-14.961 14.935-14.961 39.273 0 54.243l43.507 43.433a38.2 38.2 0 0 0 12.45 8.336 38.3 38.3 0 0 0 14.704 2.917c10.27 0 19.912-3.983 27.147-11.246l43.514-43.44c14.961-14.936 14.961-39.274 0-54.244l-21.754-21.716a38.2 38.2 0 0 0-12.45-8.337 38.3 38.3 0 0 0-14.704-2.916h-43.472z"/><path fill="#fff" d="M127.523 196.892a32.72 32.72 0 0 1-23.308-9.66l-39.381-39.273a32.96 32.96 0 0 1-9.64-23.286c0-8.73 3.466-17.103 9.64-23.286l19.694-19.62a32.7 32.7 0 0 1 10.688-7.142 32.8 32.8 0 0 1 12.62-2.477h39.333c8.797 0 17.103 3.425 23.308 9.66l19.687 19.654a32.95 32.95 0 0 1 9.64 23.286c0 8.73-3.466 17.103-9.64 23.286l-39.333 39.198a32.7 32.7 0 0 1-10.682 7.17 32.7 32.7 0 0 1-12.626 2.49M107.836 89.705c-4.105 0-7.979 1.587-10.863 4.493L77.286 113.86a15.385 15.385 0 0 0 0 21.717l39.34 39.273c5.796 5.787 15.957 5.787 21.753 0l39.34-39.273a15.4 15.4 0 0 0 4.488-10.859c0-4.069-1.614-7.973-4.488-10.858L158.032 94.2a15.25 15.25 0 0 0-10.863-4.5z"/><path fill="#fff" d="m127.516 171.152-45.136-45.06 28.334-28.245h33.612l28.333 28.252z"/></svg>
