<svg xmlns="http://www.w3.org/2000/svg" fill="none" viewBox="0 0 256 256"><path fill="#5A5564" d="m215.545 47.472-7.628 7.628a107.99 107.99 0 0 1 0 145.749l7.628 7.628a118.895 118.895 0 0 0 0-161.183zm-160.419.662a107.99 107.99 0 0 1 145.748 0l7.628-7.629a118.895 118.895 0 0 0-161.182 0zM47.98 200.925a107.99 107.99 0 0 1 0-145.672l-7.627-7.628a118.897 118.897 0 0 0 0 161.182zm152.793 7.043a107.99 107.99 0 0 1-145.749 0l-7.628 7.628a118.895 118.895 0 0 0 161.183 0z"/><path fill="#494949" fill-rule="evenodd" d="m215.545 47.472-7.628 7.628a107.99 107.99 0 0 1 0 145.749l7.628 7.628a118.895 118.895 0 0 0 0-161.183zm-160.42.661a107.99 107.99 0 0 1 145.749 0l7.628-7.628a118.895 118.895 0 0 0-161.182 0zm-7.144 152.792a107.99 107.99 0 0 1 0-145.672l-7.628-7.628a118.897 118.897 0 0 0 0 161.182zm152.792 7.043a107.99 107.99 0 0 1-145.749 0l-7.628 7.628a118.895 118.895 0 0 0 161.183 0z" clip-rule="evenodd"/><path fill="#F5AC3A" fill-rule="evenodd" d="M191.129 109.422c3.033-18.726-11.119-28.98-30.56-36.067l6.587-25.153-15.407-4.035-6.465 24.686-12.314-3.225 6.465-24.686-15.29-4.004-6.633 25.328-31.252-8.184-4.318 16.486s11.434 2.776 11.206 2.935a8.235 8.235 0 0 1 6.981 9.062l-18.157 69.332a5.57 5.57 0 0 1-2.854 3.275 5.52 5.52 0 0 1-4.32.303c.159.228-11.205-2.935-11.205-2.935l-7.74 17.649 30.96 8.108-6.74 25.736 15.407 4.035 6.641-25.357 12.314 3.225-6.61 25.24 15.436 4.043 6.663-25.445c26.442 5.241 46.273 3.575 54.93-20.195 6.974-19.127.045-30.296-13.766-37.686 10.112-2.06 17.796-8.778 20.041-22.471m-74.734 20.807-8.895 33.966c.856.224 1.859.502 2.981.814 12.566 3.488 40.102 11.13 44.704-6.442 4.698-17.942-21.88-24.278-34.921-27.387l-.002-.001a171 171 0 0 1-3.867-.95m12.165-46.33-8.085 30.873c.745.195 1.625.442 2.612.719l.002.001c10.521 2.956 33.288 9.352 37.479-6.653 4.298-16.41-18.013-21.637-28.863-24.179a140 140 0 0 1-3.145-.76" clip-rule="evenodd"/><path fill="#F5AC3A" fill-rule="evenodd" d="M160.569 73.355c19.441 7.087 33.593 17.341 30.56 36.067-2.245 13.693-9.929 20.411-20.041 22.471 13.811 7.39 20.74 18.559 13.766 37.686-8.657 23.77-28.488 25.436-54.93 20.195l-6.663 25.445-15.436-4.043 6.61-25.24-12.314-3.225-6.641 25.357-15.407-4.035 6.74-25.736-30.96-8.108 7.74-17.649s11.364 3.163 11.205 2.935a5.53 5.53 0 0 0 4.32-.303 5.58 5.58 0 0 0 2.854-3.275l18.157-69.332a8.237 8.237 0 0 0-6.981-9.062c.228-.159-11.205-2.935-11.205-2.935l4.317-16.486 31.252 8.184 6.633-25.328 15.29 4.004-6.465 24.686 12.314 3.225 6.465-24.686 15.407 4.035zm-53.069 90.84 8.895-33.966c1.069.283 2.38.596 3.867.95l.002.001c13.041 3.109 39.619 9.445 34.921 27.387-4.602 17.572-32.138 9.93-44.704 6.442a214 214 0 0 0-2.981-.814m21.06-80.296-8.085 30.873c.745.195 1.625.442 2.612.719l.002.001c10.521 2.956 33.288 9.352 37.479-6.653 4.298-16.41-18.013-21.637-28.863-24.179a140 140 0 0 1-3.145-.76" clip-rule="evenodd"/><path fill="#fff" fill-rule="evenodd" d="M127.898 0a128 128 0 1 0 .204 256 128 128 0 0 0-.204-256m80.019 55.1 7.628-7.628v-.178a118.895 118.895 0 0 1 0 161.183l-7.628-7.628a107.99 107.99 0 0 0 0-145.748M128 19.838a108 108 0 0 0-72.874 28.295l-7.806-7.628a118.897 118.897 0 0 1 161.182 0l-7.628 7.628A108 108 0 0 0 128 19.838M19.72 128.089a108 108 0 0 0 28.26 72.836l-7.627 7.882a118.895 118.895 0 0 1 0-161.182l7.628 7.628A108 108 0 0 0 19.72 128.09m108.178 108.175a108 108 0 0 0 72.875-28.296l7.806 7.628a118.897 118.897 0 0 1-161.183 0l7.628-7.628a108 108 0 0 0 72.874 28.296m32.671-162.909c19.441 7.087 33.593 17.341 30.56 36.067-2.245 13.693-9.929 20.411-20.041 22.471 13.811 7.39 20.74 18.559 13.766 37.686-8.657 23.77-28.488 25.436-54.93 20.195l-6.663 25.445-15.436-4.043 6.61-25.24-12.314-3.225-6.641 25.357-15.407-4.035 6.74-25.736-30.96-8.108 7.74-17.649s11.364 3.163 11.205 2.935a5.53 5.53 0 0 0 4.32-.303 5.58 5.58 0 0 0 2.854-3.275l18.157-69.332a8.237 8.237 0 0 0-6.981-9.062c.228-.159-11.205-2.935-11.205-2.935l4.317-16.486 31.252 8.184 6.633-25.328 15.29 4.004-6.465 24.686 12.314 3.225 6.465-24.686 15.407 4.035z" clip-rule="evenodd"/><path fill="#fff" d="m120.475 114.772 8.085-30.873c.871.228 1.937.478 3.145.761 10.85 2.542 33.161 7.77 28.863 24.179-4.191 16.005-26.958 9.609-37.479 6.653l-.002-.001c-.987-.277-1.867-.524-2.612-.719M107.5 164.195l8.895-33.966c1.069.283 2.38.596 3.867.95l.002.001c13.041 3.109 39.619 9.445 34.921 27.387-4.602 17.572-32.138 9.93-44.704 6.442a214 214 0 0 0-2.981-.814"/></svg>