<svg xmlns="http://www.w3.org/2000/svg" fill="none" viewBox="0 0 256 256"><path fill="url(#paint0_linear_9439_738)" d="M256 128C256 57.308 198.692 0 128 0S0 57.308 0 128s57.308 128 128 128 128-57.308 128-128"/><path fill="url(#paint1_linear_9439_738)" fill-opacity=".66" d="M256 128C256 57.308 198.692 0 128 0S0 57.308 0 128s57.308 128 128 128 128-57.308 128-128"/><path fill="#D7CDFF" fill-rule="evenodd" d="M187.547 185.25q.021.16.023.323a2.41 2.41 0 0 1-1.147 2.068l-57.473 35.438a2.4 2.4 0 0 1-2.528.003l-57.009-34.996a2.42 2.42 0 0 1-1.139-2.285 2 2 0 0 1-.012-.231l-.003-43.725q0-.08.006-.156a2.41 2.41 0 0 1 3.616-2.243l56.02 32.512 55.502-32.198c.09-.056.186-.1.281-.142a2.414 2.414 0 0 1 3.883 1.912l.003 43.381q0 .174-.023.339m-114.46-3.496 16.559-10.005-16.562-22.794zm19.404-6.085c-4.593 2.773-17.177 10.376-17.177 10.376l44.615 27.392zm43.723 37.265 44.305-27.322-17.119-10.294zm30.022-41.541 16.51 9.927-.003-32.768zm-39.546 5.44-47.359-27.489 48.567 66.856 48.117-66.578-46.904 27.211a2.42 2.42 0 0 1-2.421 0m-56.1-46.724a2.416 2.416 0 0 1-2.333-2.413l-.004-56.834q0-.213.036-.415a2.41 2.41 0 0 1 1.115-2.465l57.475-35.25a2.41 2.41 0 0 1 2.517-.003l57.009 34.805a2.42 2.42 0 0 1 1.157 2.065l-.004.106.004.111.004 57.582a2.42 2.42 0 0 1-1.524 2.244l-56.98 31.344a2.42 2.42 0 0 1-2.325 0zm2.488-55.806.003 45.732 20.497-33.407zm109.66-.434-20.691 12.5 20.694 33.725zm-23.213 8.387 20.977-12.673-45.979-28.073zm-38.591-40.22-45.62 27.98 20.787 12.5zm-46.342 84.767 53.307 29.315 53.297-29.317-53.306-86.875z" clip-rule="evenodd"/><defs><linearGradient id="paint0_linear_9439_738" x1="17.738" x2="239.461" y1="168.186" y2="87.555" gradientUnits="userSpaceOnUse"><stop stop-color="#29BCFA"/><stop offset=".43" stop-color="#6464E4"/><stop offset="1" stop-color="#B45AFA"/></linearGradient><linearGradient id="paint1_linear_9439_738" x1="136" x2="128" y1="-16" y2="256" gradientUnits="userSpaceOnUse"><stop stop-color="#33117B" stop-opacity="0"/><stop offset=".827" stop-color="#33117B"/></linearGradient></defs></svg>
