<svg xmlns="http://www.w3.org/2000/svg" fill="none" viewBox="0 0 515 515"><path fill="url(#paint0_linear_9439_738)" d="M515 257.5C515 115.287 399.713 0 257.5 0S0 115.287 0 257.5 115.287 515 257.5 515 515 399.713 515 257.5"/><path fill="url(#paint1_linear_9439_738)" fill-opacity=".66" d="M515 257.5C515 115.287 399.713 0 257.5 0S0 115.287 0 257.5 115.287 515 257.5 515 515 399.713 515 257.5"/><path fill="#D7CDFF" fill-rule="evenodd" d="M377.292 372.672a4.86 4.86 0 0 1-2.261 4.808l-115.619 71.293a4.84 4.84 0 0 1-5.087.006L139.64 378.375a4.86 4.86 0 0 1-2.316-4.155c0-.145.006-.296.024-.441a4 4 0 0 1-.024-.465l-.007-87.962q.002-.16.012-.314a4.849 4.849 0 0 1 7.276-4.513L257.3 345.93l111.656-64.772a4 4 0 0 1 .565-.285 4.8 4.8 0 0 1 2.959-1.008 4.86 4.86 0 0 1 4.852 4.854l.007 87.27c0 .235-.018.459-.047.683m-230.263-7.035 33.313-20.127-33.318-45.854zm39.037-12.241c-9.241 5.58-34.556 20.874-34.556 20.874l89.753 55.105zm87.957 74.966 89.131-54.963-34.439-20.708zm60.397-83.568 33.213 19.971-.005-65.92zm-79.555 10.944-95.273-55.3 97.702 134.496 96.799-133.936-94.358 54.74a4.86 4.86 0 0 1-4.87 0m-112.859-93.996a4.86 4.86 0 0 1-4.691-4.854l-.009-114.335q0-.43.072-.833a4.85 4.85 0 0 1 2.243-4.96l115.624-70.913a4.84 4.84 0 0 1 5.063-.005l114.686 70.018a4.86 4.86 0 0 1 2.327 4.154c0 .073-.006.14-.006.213s.006.145.006.224l.01 115.839a4.86 4.86 0 0 1-3.068 4.512l-114.626 63.056a4.86 4.86 0 0 1-4.678 0zm5.006-112.266.007 92.001 41.234-67.206zm220.605-.872-41.624 25.147 41.63 67.844zm-46.698 16.872c10.672-6.449 42.199-25.495 42.199-25.495l-92.495-56.474zm-77.633-80.912-91.777 56.289 41.819 25.148zm-93.229 170.528 107.24 58.974 107.218-58.978L257.28 80.319z" clip-rule="evenodd"/><defs><linearGradient id="paint0_linear_9439_738" x1="35.683" x2="481.728" y1="338.342" y2="176.136" gradientUnits="userSpaceOnUse"><stop stop-color="#29BCFA"/><stop offset=".43" stop-color="#6464E4"/><stop offset="1" stop-color="#B45AFA"/></linearGradient><linearGradient id="paint1_linear_9439_738" x1="273.594" x2="257.5" y1="-32.188" y2="515" gradientUnits="userSpaceOnUse"><stop stop-color="#33117B" stop-opacity="0"/><stop offset=".827" stop-color="#33117B"/></linearGradient></defs></svg>