<svg xmlns="http://www.w3.org/2000/svg" fill="none" viewBox="0 0 256 256"><path fill="#2473DA" fill-rule="evenodd" d="M256 128c0 70.692-57.308 128-128 128S0 198.692 0 128 57.308 0 128 0s128 57.308 128 128" clip-rule="evenodd"/><path fill="#F2F2F2" d="M110.008 183.6c-6.705 2.221-13.964 3.417-21.5 3.417-35.341 0-64.008-26.511-64.008-59.259C24.5 95.011 53.167 68.5 88.508 68.5c7.536 0 14.764 1.196 21.5 3.417-24.791 8.173-42.539 30.099-42.539 55.841s17.748 47.669 42.539 55.842m57.984-115.1c-7.536 0-14.764 1.196-21.5 3.417 24.791 8.173 42.539 30.099 42.539 55.841s-17.748 47.669-42.539 55.842c6.705 2.221 13.964 3.417 21.5 3.417 35.372 0 64.008-26.54 64.008-59.259S203.333 68.5 167.992 68.5"/></svg>
