<svg xmlns="http://www.w3.org/2000/svg" fill="none" viewBox="0 0 256 256"><path fill="#fff" d="M128 256c70.692 0 128-57.308 128-128S198.692 0 128 0 0 57.308 0 128s57.308 128 128 128"/><path fill="#060BF0" fill-rule="evenodd" d="M166.93 41.404C159.795 39 151.805 39 135.82 39h-16.639c-15.985 0-23.978 0-31.11 2.404a45.9 45.9 0 0 0-15.735 9.099c-5.646 4.984-9.64 11.918-17.633 25.782l-8.32 14.43c-7.992 13.866-11.987 20.798-13.476 28.186a46.1 46.1 0 0 0 0 18.198c1.489 7.388 5.486 14.32 13.476 28.186l8.32 14.43c7.992 13.866 11.987 20.798 17.633 25.782a45.9 45.9 0 0 0 15.735 9.099C95.206 217 103.193 217 119.181 217h16.639c15.985 0 23.977 0 31.11-2.404a45.9 45.9 0 0 0 15.732-9.099c5.646-4.984 9.644-11.918 17.636-25.782l8.32-14.43c7.992-13.866 11.987-20.798 13.476-28.186a46.1 46.1 0 0 0 0-18.198c-1.489-7.388-5.486-14.32-13.479-28.185l-8.319-14.431c-7.99-13.866-11.988-20.798-17.634-25.782a45.9 45.9 0 0 0-15.73-9.099zm-5.845 44.727c-1.02-1.527-1.491-1.805-1.519-1.824a3.1 3.1 0 0 0-2.44 0c-.031.019-.499.297-1.519 1.824-1.118 1.664-2.421 4.066-4.384 7.693l-18.569 34.318 18.577 34.155c1.962 3.607 3.266 5.993 4.378 7.647 1.02 1.514 1.489 1.792 1.52 1.81a3.07 3.07 0 0 0 2.434 0c.031-.018.497-.296 1.52-1.81 1.11-1.654 2.416-4.04 4.378-7.649l14.27-26.236c2.246-4.133 2.797-5.263 3.006-6.354a8.4 8.4 0 0 0 .005-3.129c-.206-1.091-.757-2.224-2.996-6.359l-14.277-26.393c-1.963-3.627-3.268-6.029-4.384-7.693m-18.535 2.704-15.583 28.805-15.583-28.805c-1.813-3.351-3.341-6.176-4.752-8.281-1.417-2.115-3.204-4.288-5.847-5.433a13.07 13.07 0 0 0-10.39 0c-2.646 1.145-4.43 3.318-5.847 5.43-1.412 2.108-2.942 4.933-4.753 8.284l-14.398 26.612-.309.575c-1.78 3.282-3.178 5.862-3.714 8.681a18.4 18.4 0 0 0 .008 6.896c.54 2.817 1.944 5.396 3.73 8.673l.313.575 14.388 26.455c1.814 3.333 3.341 6.142 4.753 8.237 1.414 2.105 3.201 4.264 5.839 5.404a13.06 13.06 0 0 0 10.37 0c2.637-1.14 4.425-3.302 5.839-5.404 1.409-2.095 2.939-4.904 4.749-8.237l15.604-28.686 15.604 28.686c1.811 3.33 3.341 6.142 4.75 8.237 1.416 2.105 3.201 4.264 5.839 5.404a13.06 13.06 0 0 0 10.37 0c2.637-1.14 4.425-3.302 5.841-5.404 1.409-2.095 2.937-4.904 4.75-8.237l14.388-26.455.314-.575c1.785-3.277 3.189-5.856 3.73-8.673.438-2.278.44-4.618.008-6.896-.536-2.819-1.932-5.399-3.712-8.681l-14.71-27.187c-1.811-3.351-3.341-6.179-4.752-8.281-1.417-2.115-3.202-4.288-5.847-5.433a13.07 13.07 0 0 0-10.388 0c-2.645 1.145-4.433 3.318-5.847 5.43-1.411 2.108-2.941 4.933-4.755 8.284m-39.846 73.46 18.576-34.156-18.568-34.315c-1.961-3.627-3.266-6.029-4.382-7.693-1.022-1.527-1.494-1.805-1.522-1.824a3.1 3.1 0 0 0-2.437 0c-.03.019-.502.297-1.522 1.824-1.115 1.664-2.421 4.066-4.384 7.693l-14.277 26.39c-2.238 4.138-2.787 5.271-2.996 6.362a8.4 8.4 0 0 0 .006 3.129c.208 1.091.76 2.221 3.008 6.354l14.27 26.236c1.96 3.609 3.266 5.995 4.378 7.649 1.02 1.516 1.487 1.792 1.52 1.81a3.06 3.06 0 0 0 2.432 0c.03-.018.5-.296 1.52-1.81 1.112-1.654 2.418-4.04 4.378-7.649" clip-rule="evenodd"/></svg>
