<svg width="256" height="256" viewBox="0 0 256 256" fill="none" xmlns="http://www.w3.org/2000/svg">
<path d="M128 256C198.692 256 256 198.692 256 128C256 57.3075 198.692 0 128 0C57.3075 0 0 57.3075 0 128C0 198.692 57.3075 256 128 256Z" fill="black"/>
<path d="M128 256C198.692 256 256 198.692 256 128C256 57.3075 198.692 0 128 0C57.3075 0 0 57.3075 0 128C0 198.692 57.3075 256 128 256Z" fill="#29B2FF"/>
<path d="M72.0597 118.506L70.581 120.724C53.5761 147.341 57.2728 182.091 80.1925 204.272C92.7614 217.581 110.506 224.235 128.25 224.235C128.25 224.235 128.25 224.235 72.0597 118.506Z" fill="white"/>
<path opacity="0.6" d="M128.25 150.299L72.0801 118.675C128.27 225.144 128.25 224.235 128.25 224.235C128.25 201.315 128.25 174.698 128.25 150.299Z" fill="#EDF9FF"/>
<path opacity="0.6" d="M184.42 118.433L185.919 120.724C202.924 147.341 199.227 182.091 176.308 204.272C162.999 217.581 145.994 224.235 128.25 224.235C128.25 224.235 128.229 224.163 184.42 118.433Z" fill="white"/>
<path opacity="0.2" d="M128.25 150.298L184.42 118.433C128.229 224.902 128.25 224.235 128.25 224.235C128.25 201.315 128.25 174.698 128.25 150.298Z" fill="#EDF9FF"/>
<path opacity="0.2" d="M128.25 78.5801V134.033L177.047 106.676L128.25 78.5801Z" fill="#EDF9FF"/>
<path opacity="0.6" d="M128.25 78.5801L79.4531 106.676L128.25 134.033V78.5801Z" fill="#EDF9FF"/>
<path d="M128.25 32L79.4531 106.676L128.25 78.5801V32Z" fill="white"/>
<path opacity="0.6" d="M128.25 78.5801L177.047 106.676L128.25 32V78.5801Z" fill="white"/>
</svg>
