<svg xmlns="http://www.w3.org/2000/svg" fill="none" viewBox="0 0 256 256"><path fill="#000" d="M128 256c70.692 0 128-57.308 128-128S198.692 0 128 0 0 57.308 0 128s57.308 128 128 128"/><path fill="#29B2FF" d="M128 256c70.692 0 128-57.308 128-128S198.692 0 128 0 0 57.308 0 128s57.308 128 128 128"/><path fill="#fff" d="m72.06 118.506-1.479 2.218c-17.005 26.617-13.308 61.367 9.611 83.548 12.57 13.309 30.314 19.963 48.058 19.963z"/><path fill="#EDF9FF" d="m128.25 150.299-56.17-31.624c56.19 106.469 56.17 105.56 56.17 105.56z" opacity=".6"/><path fill="#fff" d="m184.42 118.433 1.499 2.291c17.005 26.617 13.308 61.367-9.611 83.548-13.309 13.309-30.314 19.963-48.058 19.963 0 0-.021-.072 56.17-105.802" opacity=".6"/><path fill="#EDF9FF" d="m128.25 150.298 56.17-31.865c-56.191 106.469-56.17 105.802-56.17 105.802zm0-71.718v55.453l48.797-27.357z" opacity=".2"/><path fill="#EDF9FF" d="m128.25 78.58-48.797 28.096 48.797 27.357z" opacity=".6"/><path fill="#fff" d="m128.25 32-48.797 74.676L128.25 78.58z"/><path fill="#fff" d="m128.25 78.58 48.797 28.096L128.25 32z" opacity=".6"/></svg>