<svg xmlns="http://www.w3.org/2000/svg" fill="none" viewBox="0 0 256 256"><path fill="#F6F6F6" d="M128 256a128 128 0 0 0 90.51-37.49 128.003 128.003 0 0 0 0-181.02A128.001 128.001 0 1 0 128 256"/><path fill="#000" d="M157 127.75a28.747 28.747 0 0 1-28.75 28.75 28.747 28.747 0 0 1-28.75-28.75A28.747 28.747 0 0 1 128.25 99 28.747 28.747 0 0 1 157 127.75"/><path fill="#000" fill-rule="evenodd" d="M128.225 51.5a34.25 34.25 0 0 0 21.935-7.901c6.282-5.212 16.383-7.453 22.209-1.74a3012 3012 0 0 1 41.636 41.684c5.733 5.846 3.505 16.001-1.706 22.316a34.26 34.26 0 0 0-7.847 21.869 34.26 34.26 0 0 0 7.921 21.955c5.231 6.295 7.492 16.45 1.766 22.297a2841 2841 0 0 1-41.663 41.656c-5.846 5.727-15.994 3.472-22.296-1.759a34.26 34.26 0 0 0-21.955-7.921 34.25 34.25 0 0 0-21.868 7.847c-6.315 5.205-16.47 7.433-22.317 1.7a3034 3034 0 0 1-41.675-41.63c-5.72-5.827-3.479-15.928 1.732-22.21a34.25 34.25 0 0 0 7.894-21.942 34.25 34.25 0 0 0-7.827-21.835c-5.184-6.302-7.392-16.41-1.672-22.236a3242 3242 0 0 1 41.662-41.657c5.82-5.72 15.935-3.512 22.236 1.672a34.25 34.25 0 0 0 21.842 7.827zm16.289 17.125a22.924 22.924 0 0 0-32.418 0l-43.06 43.054a22.93 22.93 0 0 0-6.716 16.213 22.93 22.93 0 0 0 6.716 16.212l43.06 43.055a22.93 22.93 0 0 0 32.418 0l43.054-43.055a22.93 22.93 0 0 0 0-32.425z" clip-rule="evenodd"/></svg>
