<svg xmlns="http://www.w3.org/2000/svg" fill="none" viewBox="0 0 256 256"><path fill="#000" d="M128.001 0a128 128 0 0 1 118.256 79.017A127.999 127.999 0 1 1 0 128 128.047 128.047 0 0 1 128.001 0"/><path fill="#04795B" d="M192.855 63.337a20.68 20.68 0 0 0-29.189 0l-50.26 50.103a20.53 20.53 0 0 0 0 29.097l50.26 50.103a20.68 20.68 0 0 0 29.189 0 20.54 20.54 0 0 0 4.473-22.426 20.6 20.6 0 0 0-4.473-6.671l-30.816-30.697a6.84 6.84 0 0 1-2.023-4.857 6.84 6.84 0 0 1 2.023-4.858l30.816-30.697a20.52 20.52 0 0 0 6.045-14.549 20.52 20.52 0 0 0-6.045-14.549"/><path fill="#0DB50A" d="M163.658 192.634a20.606 20.606 0 0 0 29.138.046 20.606 20.606 0 0 0 .046-29.138l-50.261-50.104a20.606 20.606 0 0 0-29.138-.046 20.603 20.603 0 0 0-.045 29.139z"/><path fill="#0AE33A" d="m142.595 113.44-50.26-50.103a20.608 20.608 0 1 0-29.188 29.097l30.793 30.697a6.85 6.85 0 0 1 1.497 7.488 6.9 6.9 0 0 1-1.497 2.227l-30.793 30.697a20.607 20.607 0 0 0 29.188 29.097l35.654-35.565 14.606-14.538a20.53 20.53 0 0 0 0-29.097m35.654-14.972a20.57 20.57 0 0 0 18.96-12.743 20.573 20.573 0 1 0-39.596-7.828 20.6 20.6 0 0 0 20.636 20.571"/></svg>