<svg xmlns="http://www.w3.org/2000/svg" fill="none" viewBox="0 0 512 512"><path fill="#000" d="M256.002 0a256.001 256.001 0 0 1 181.017 437.02 256 256 0 0 1-278.986 55.493A256 256 0 0 1 0 256 256.095 256.095 0 0 1 256.002 0"/><path fill="#04795B" d="M385.709 126.673a41.357 41.357 0 0 0-58.376 0L226.813 226.88a41.052 41.052 0 0 0-8.947 44.852 41 41 0 0 0 8.947 13.343l100.52 100.204a41.353 41.353 0 0 0 58.376 0 41.05 41.05 0 0 0 12.09-29.096 41.05 41.05 0 0 0-12.09-29.097l-61.632-61.395a13.7 13.7 0 0 1-4.046-9.714 13.7 13.7 0 0 1 4.046-9.714l61.632-61.395a41.06 41.06 0 0 0 12.091-29.097 41.06 41.06 0 0 0-12.091-29.098"/><path fill="#0DB50A" d="M327.316 385.268a41.206 41.206 0 0 0 70.392-29.027 41.2 41.2 0 0 0-12.024-29.157L285.163 226.875a41.21 41.21 0 0 0-70.392 29.029 41.2 41.2 0 0 0 12.025 29.157z"/><path fill="#0AE33A" d="M285.19 226.88 184.671 126.673a41.225 41.225 0 0 0-44.96-9.103 41.2 41.2 0 0 0-22.381 22.31 41.21 41.21 0 0 0 8.963 44.988l61.587 61.395a13.689 13.689 0 0 1 0 19.428l-61.587 61.395a41.22 41.22 0 0 0-11.97 29.145 41.22 41.22 0 0 0 41.24 41.11 41.22 41.22 0 0 0 29.108-12.062l71.307-71.13 29.212-29.074a41.07 41.07 0 0 0 12.091-29.098 41.05 41.05 0 0 0-12.091-29.097M356.498 196.937a41.14 41.14 0 0 0 37.919-25.488 41.15 41.15 0 0 0-9.001-44.794 41.146 41.146 0 0 0-63.266 6.294 41.15 41.15 0 0 0-6.925 22.845 41.21 41.21 0 0 0 41.273 41.143"/></svg>