<svg width="256" height="256" viewBox="0 0 256 256" fill="none" xmlns="http://www.w3.org/2000/svg">
<path d="M128.001 0C153.317 0.000156959 178.064 7.50736 199.114 21.5723C220.163 35.6372 236.569 55.6281 246.257 79.0171C255.945 102.406 258.479 128.143 253.54 152.972C248.601 177.802 236.41 200.609 218.509 218.51C200.608 236.411 177.801 248.602 152.971 253.541C128.142 258.479 102.405 255.944 79.0163 246.256C55.6274 236.568 35.6366 220.162 21.5718 199.113C7.50705 178.063 4.86602e-10 153.316 0 128C0.0124846 94.056 13.5023 61.5058 37.5044 37.5038C61.5065 13.5019 94.0567 0.0122741 128.001 0Z" fill="black"/>
<path d="M192.855 63.3367C188.979 59.4756 183.731 57.3077 178.26 57.3077C172.79 57.3077 167.542 59.4756 163.666 63.3367L113.406 113.44C111.49 115.348 109.97 117.615 108.933 120.111C107.896 122.608 107.362 125.285 107.362 127.989C107.362 130.692 107.896 133.369 108.933 135.866C109.97 138.363 111.49 140.63 113.406 142.537L163.666 192.64C167.542 196.501 172.79 198.669 178.26 198.669C183.731 198.669 188.979 196.501 192.855 192.64C194.77 190.732 196.291 188.465 197.328 185.969C198.365 183.472 198.899 180.795 198.899 178.091C198.899 175.388 198.365 172.711 197.328 170.214C196.291 167.718 194.77 165.451 192.855 163.543L162.039 132.846C161.398 132.21 160.889 131.453 160.542 130.619C160.194 129.786 160.016 128.892 160.016 127.989C160.016 127.085 160.194 126.191 160.542 125.358C160.889 124.524 161.398 123.767 162.039 123.131L192.855 92.4341C194.771 90.5266 196.291 88.2595 197.328 85.7628C198.366 83.2661 198.9 80.5891 198.9 77.8854C198.9 75.1818 198.366 72.5048 197.328 70.0081C196.291 67.5114 194.771 65.2442 192.855 63.3367Z" fill="#04795B"/>
<path d="M163.658 192.634C167.516 196.504 172.753 198.683 178.218 198.692C183.682 198.7 188.926 196.538 192.796 192.68C196.666 188.822 198.845 183.585 198.854 178.12C198.863 172.656 196.7 167.412 192.842 163.542L142.581 113.438C138.723 109.568 133.486 107.389 128.022 107.38C122.557 107.372 117.313 109.534 113.443 113.392C109.573 117.25 107.394 122.488 107.386 127.952C107.377 133.417 109.54 138.661 113.398 142.531L163.658 192.634Z" fill="#0DB50A"/>
<path d="M142.595 113.44L92.3353 63.3367C90.4268 61.4108 88.157 59.8804 85.656 58.8333C83.155 57.7861 80.4719 57.2428 77.7605 57.2346C75.0492 57.2262 72.3628 57.7531 69.8554 58.7849C67.348 59.8167 65.0689 61.3332 63.1487 63.2474C61.2284 65.1616 59.7048 67.436 58.6652 69.9401C57.6255 72.4443 57.0903 75.1289 57.0901 77.8403C57.0899 80.5517 57.6247 83.2365 58.664 85.7407C59.7033 88.245 61.2266 90.5196 63.1465 92.4341L93.9401 123.131C94.581 123.768 95.0895 124.524 95.4366 125.358C95.7837 126.191 95.9623 127.086 95.9623 127.989C95.9623 128.891 95.7837 129.786 95.4366 130.619C95.0895 131.453 94.581 132.209 93.9401 132.846L63.1465 163.543C59.3003 167.416 57.1479 172.657 57.1617 178.116C57.1756 183.574 59.3545 188.804 63.2204 192.658C67.0862 196.511 72.3231 198.674 77.7816 198.671C83.2401 198.667 88.4743 196.498 92.3353 192.64L127.989 157.075L142.595 142.537C144.511 140.63 146.031 138.363 147.069 135.866C148.106 133.369 148.64 130.692 148.64 127.989C148.64 125.285 148.106 122.608 147.069 120.111C146.031 117.615 144.511 115.347 142.595 113.44Z" fill="#0AE33A"/>
<path d="M178.249 98.4684C182.315 98.4556 186.286 97.2383 189.66 94.9701C193.035 92.7019 195.661 89.4846 197.209 85.7245C198.756 81.9645 199.154 77.8302 198.353 73.844C197.552 69.8577 195.587 66.1982 192.708 63.3277C189.828 60.4571 186.163 58.5042 182.174 57.7157C178.185 56.9272 174.052 57.3383 170.297 58.8972C166.542 60.4561 163.333 63.0929 161.075 66.4745C158.818 69.8561 157.613 73.8308 157.613 77.8968C157.621 83.3613 159.8 88.5985 163.67 92.4564C167.54 96.3143 172.784 98.4769 178.249 98.4684Z" fill="#0AE33A"/>
</svg>
