<svg xmlns="http://www.w3.org/2000/svg" fill="none" viewBox="0 0 256 256"><path fill="#000" d="M128 256c70.692 0 128-57.308 128-128S198.692 0 128 0 0 57.308 0 128s57.308 128 128 128"/><path fill="#fff" d="M181.555 65.427h21.895l-45.566 45.163c-16.501 16.347-43.255 16.347-59.768 0L52.532 65.427h21.913l34.618 34.308a26.95 26.95 0 0 0 18.924 7.766c7.082 0 13.879-2.79 18.923-7.766zM74.164 191.012h-21.91l45.862-45.442c16.501-16.346 43.255-16.346 59.768 0l45.862 45.442h-21.895l-34.914-34.586a26.95 26.95 0 0 0-18.924-7.766 26.94 26.94 0 0 0-18.923 7.766z"/></svg>
