<svg xmlns="http://www.w3.org/2000/svg" fill="none" viewBox="0 0 256 256"><path fill="#000" d="M128 256c70.692 0 128-57.308 128-128S198.692 0 128 0 0 57.308 0 128s57.308 128 128 128"/><path fill="url(#paint0_linear_4209_4832)" d="m213.539 104.573-63.882 110.818a21.78 21.78 0 0 1-18.874 10.913 21.77 21.77 0 0 1-18.874-10.913l-11.131-19.356v-.484a18.4 18.4 0 0 0 7.121 4.45 18.4 18.4 0 0 0 16.209-2.161 18.4 18.4 0 0 0 5.707-6.161l53.235-92.43a18.4 18.4 0 0 0 1.458-16.625 18.38 18.38 0 0 0-12.589-10.958h22.746a21.78 21.78 0 0 1 22.423 21.824 21.8 21.8 0 0 1-3.065 11.083zm-75.497-32.907H115.78a11.14 11.14 0 0 1 6.882 6.823 11.12 11.12 0 0 1-1.074 9.63l-32.425 55.652a11.13 11.13 0 0 1-12.728 4.805c-1.561-.476-3-1.291-4.21-2.386v.484l11.13 19.357a14.52 14.52 0 0 0 19.85 5.326 14.5 14.5 0 0 0 5.316-5.326l42.104-72.588a14.518 14.518 0 0 0-12.583-21.777m-76.465 0A19.359 19.359 0 0 0 40.95 98.89a19.36 19.36 0 0 0 12.34 10.526 19.36 19.36 0 0 0 24.595-18.635 19.356 19.356 0 0 0-16.307-19.115"/><defs><linearGradient id="paint0_linear_4209_4832" x1="245.82" x2="46.439" y1="197.023" y2="61.513" gradientUnits="userSpaceOnUse"><stop stop-color="#5433FF"/><stop offset=".5" stop-color="#20BDFF"/><stop offset="1" stop-color="#5CFFA2"/></linearGradient></defs></svg>
