<svg xmlns="http://www.w3.org/2000/svg" fill="none" viewBox="0 0 512 512"><path fill="#000" d="M256 512c141.385 0 256-114.615 256-256S397.385 0 256 0 0 114.615 0 256s114.615 256 256 256Z"/><path fill="#fff" d="M362.94 322.978c14.101 18.921 28.643 38.282 43.185 57.643-29.084 34.322-65.219 56.323-108.845 65.564-48.474 10.121-94.304 2.64-138.811-22.001 39.66-29.482 78.439-58.524 117.659-87.565 8.813 8.36 17.186 16.721 25.558 24.641 9.255 8.801 5.729 9.241 17.627 2.64 16.305-9.24 29.966-22.001 40.542-37.402.441-.88 1.322-1.76 1.763-2.64-.441 0 0 0 1.322-.88ZM189.756 361.7c-11.016 8.361-21.152 15.841-31.287 23.761-7.492 5.721-14.983 11.001-22.474 16.721-3.085 2.641-5.288 2.641-8.814-.44-33.49-29.921-54.643-66.884-62.575-110.886-7.932-44.443-.881-86.685 20.27-126.728.441-.88 1.323-2.2 1.763-3.08 0-.44.441-.44 1.323-.88 29.084 38.282 58.609 76.565 87.693 114.847-.881 1.32-1.322 2.2-2.203 3.08-8.814 9.241-17.627 18.481-26.881 27.282-2.644 2.64-3.085 4.84-1.322 7.92 9.254 17.601 22.033 32.122 37.897 44.003 2.204 1.32 3.966 2.64 6.61 4.4Zm164.37-273.256c-14.101 10.12-28.203 20.241-42.304 29.922-24.237 17.161-48.474 34.762-72.27 51.923-3.085 2.2-5.288 2.64-7.932-.44-7.932-8.361-16.305-15.841-24.237-24.202-2.203-2.2-4.407-2.64-7.491-1.32-18.949 9.681-33.932 23.322-46.271 40.483-.881.88-1.762 2.2-2.644 3.52-7.05-9.241-13.66-17.601-20.27-26.402-7.051-9.24-13.661-18.481-20.271-27.281-2.204-3.081-2.644-5.281.44-8.361 33.932-37.402 75.796-59.403 126.032-64.684 39.66-4.4 77.558 3.52 112.812 22.442 1.322.88 2.644 1.32 3.966 2.2 0 1.32 0 1.76.44 2.2Zm71.829 264.015c-9.254-11.88-17.626-22.881-25.999-33.882-19.39-25.521-38.779-51.483-58.609-77.004-2.644-3.52-2.644-5.72.44-8.801 8.373-8.36 16.305-16.721 24.678-25.081 2.203-2.2 3.085-4.4 1.322-7.481-9.695-18.481-22.915-33.882-40.101-46.202-1.322-.88-2.644-2.2-4.407-3.08 1.322-1.321 2.644-2.201 3.526-3.081 16.745-12.76 33.491-25.081 50.236-37.842 2.644-2.2 4.847-3.08 7.932 0 41.864 37.842 64.338 84.925 66.541 141.689.882 33.001-6.61 64.243-21.593 93.725-1.322 1.76-2.644 3.96-3.966 7.04Z"/></svg>