<svg xmlns="http://www.w3.org/2000/svg" fill="none" viewBox="0 0 256 256"><path fill="#000" d="M128 256c70.692 0 128-57.308 128-128S198.692 0 128 0 0 57.308 0 128s57.308 128 128 128"/><path fill="#fff" d="M181.47 161.489c7.051 9.46 14.322 19.141 21.593 28.822-14.542 17.161-32.61 28.161-54.423 32.782-24.237 5.06-47.152 1.32-69.406-11.001 19.83-14.741 39.22-29.262 58.83-43.783 4.407 4.181 8.593 8.361 12.779 12.321 4.627 4.4 2.865 4.62 8.814 1.32 8.152-4.62 14.982-11.001 20.27-18.701.221-.44.661-.88.882-1.32-.221 0 0 0 .661-.44M94.878 180.85c-5.508 4.18-10.576 7.92-15.644 11.881-3.745 2.86-7.491 5.5-11.237 8.36-1.542 1.32-2.644 1.32-4.406-.22-16.746-14.961-27.322-33.442-31.288-55.443-3.966-22.221-.44-43.343 10.135-63.364.22-.44.661-1.1.882-1.54 0-.22.22-.22.66-.44 14.543 19.141 29.305 38.282 43.847 57.423-.44.66-.66 1.101-1.101 1.541-4.407 4.62-8.814 9.24-13.44 13.64-1.323 1.32-1.543 2.42-.662 3.961 4.627 8.8 11.017 16.061 18.95 22.001 1.1.66 1.982 1.32 3.304 2.2m82.185-136.628c-7.051 5.06-14.101 10.12-21.152 14.96-12.118 8.581-24.237 17.382-36.135 25.962-1.542 1.1-2.644 1.32-3.966-.22-3.966-4.18-8.152-7.92-12.118-12.1-1.102-1.1-2.204-1.32-3.746-.66-9.474 4.84-16.966 11.66-23.135 20.24-.441.44-.882 1.1-1.322 1.76-3.526-4.62-6.83-8.8-10.136-13.2-3.525-4.62-6.83-9.24-10.135-13.64-1.102-1.54-1.322-2.64.22-4.181 16.966-18.701 37.898-29.702 63.016-32.342 19.83-2.2 38.779 1.76 56.406 11.22.661.44 1.322.66 1.983 1.1 0 .66 0 .88.22 1.1m35.915 132.008c-4.627-5.941-8.814-11.441-13-16.941-9.695-12.761-19.39-25.742-29.305-38.503-1.322-1.76-1.322-2.86.221-4.4 4.186-4.18 8.152-8.36 12.338-12.541 1.102-1.1 1.543-2.2.661-3.74-4.847-9.24-11.457-16.94-20.05-23.101-.661-.44-1.322-1.1-2.203-1.54.661-.66 1.322-1.1 1.762-1.54 8.373-6.38 16.746-12.541 25.119-18.921 1.322-1.1 2.423-1.54 3.966 0 20.931 18.92 32.168 42.462 33.27 70.844.441 16.501-3.305 32.122-10.796 46.863-.661.88-1.322 1.98-1.983 3.52"/></svg>