<svg xmlns="http://www.w3.org/2000/svg" fill="none" viewBox="0 0 512 512"><path fill="#000" d="M256 512c141.385 0 256-114.615 256-256S397.385 0 256 0 0 114.615 0 256s114.615 256 256 256Z"/><path fill="#033DF5" d="M356.212 116.571c-1.367-.038-2.509.031-3.425.206-5.447 1.031-10.94 1.944-16.356 3.129a2666.014 2666.014 0 0 0-40.245 9.13c-1.713.404-3.41.833-5.091 1.289a1944.137 1944.137 0 0 0-37.285 10.502c-4.347 1.271-9.012 2.571-12.209 3.649-20.396 6.885-40.608 14.276-60.513 22.46a145.52 145.52 0 0 0-7.528 3.33 601.508 601.508 0 0 0-18.883 9.478c-17.861 9.349-35.105 19.804-50.41 32.942a111.406 111.406 0 0 0-16.096 17.067c-1.29 1.696-2.162 2.895-2.614 3.595-2.322 3.602-4.668 7.828-6.511 12.568-.032.082-.077.108-.134.081-1.014-2.31-1.83-4.935-2.448-7.875-.307-1.457-.458-2.713-.455-3.766.01-2.513-.07-5.136.27-7.521.626-4.351 1.955-8.538 3.654-12.681 1.004-2.445 2.307-4.745 3.604-7.035a61.804 61.804 0 0 1 4.823-7.262c9.366-12.155 21.26-21.93 33.933-30.535 10.068-6.835 20.549-12.878 31.307-18.58a562.776 562.776 0 0 1 17.99-9.127 160.48 160.48 0 0 1 8.521-3.831c20.178-8.376 40.716-15.895 61.43-22.866 1.35-.454 3.604-1.13 6.763-2.029.912-.258 2.309-.778 3.496-1.089a61.704 61.704 0 0 0 1.411-.38 1871.338 1871.338 0 0 1 38.252-10.77c1.684-.456 3.381-.884 5.09-1.284a3147.358 3147.358 0 0 1 37.911-8.608c5.537-1.224 10.892-2.151 16.353-3.188 2.137-.408 3.723-.596 4.76-.567 11.99.328 18.596 14.169 11.415 23.617-2.56 3.368-6.153 5.352-10.78 5.951Z"/><path fill="#607DF4" d="M356.212 116.571c3.951.473 7.182 2.029 9.693 4.668 5.111 5.369 5.468 13.608.769 19.362-2.53 3.096-5.987 4.952-10.372 5.567-1.296-.073-2.709.038-4.24.333-3.643.702-9.968 1.726-15.368 2.913a2964.031 2964.031 0 0 0-39.996 9.081c-1.718.402-3.416.829-5.093 1.281a1849.435 1849.435 0 0 0-38.817 10.934c-.194.056-.599.161-1.213.317-1.012.258-2.291.744-2.982.946-2.463.723-4.943 1.424-7.36 2.23a975.462 975.462 0 0 0-59.02 21.855 174.122 174.122 0 0 0-9.879 4.384 477.97 477.97 0 0 0-19.083 9.713c-1.007.54-2.019 1.071-3.036 1.593-3.399 1.733-6.722 3.654-10.034 5.543-12.842 7.319-25.113 15.651-36.282 25.309a111.755 111.755 0 0 0-15.93 16.974c-2.112 2.781-3.767 5.639-5.54 8.626-1.15 1.94-2.302 4.45-3.454 7.529a38.044 38.044 0 0 1-2.69-8.928c-.35-2.042-.265-4.241-.255-6.383.009-1.585.105-3.015.29-4.291.312-2.175.808-3.997 1.318-5.91.36-1.354.888-2.601 1.295-3.924a.37.37 0 0 0-.021-.296c.057.027.102.001.134-.081 1.843-4.74 4.19-8.966 6.511-12.568.452-.7 1.323-1.899 2.614-3.595a111.406 111.406 0 0 1 16.096-17.067c15.305-13.138 32.549-23.593 50.41-32.942a601.508 601.508 0 0 1 18.883-9.478 145.52 145.52 0 0 1 7.528-3.33c19.905-8.184 40.117-15.575 60.513-22.46 3.197-1.078 7.862-2.378 12.209-3.649a1944.137 1944.137 0 0 1 37.285-10.502c1.681-.456 3.378-.885 5.091-1.289 13.39-3.147 26.805-6.19 40.245-9.13 5.416-1.185 10.909-2.098 16.356-3.129.916-.175 2.058-.244 3.425-.206Z"/><path fill="#AFBCFA" d="M356.302 146.168c2.467.302 4.575.982 6.325 2.04 11.103 6.721 9.277 23.061-3.339 26.894-.408.123-1.429.343-3.062.661-1.384-.051-2.313-.031-2.787.059-5.75 1.084-11.55 2.043-17.263 3.298a3308.277 3308.277 0 0 0-39.867 9.021c-.763.177-1.93.478-3.499.902-14.217 3.838-27.483 7.567-39.799 11.186-3.913 1.149-7.817 2.238-11.068 3.322a983.452 983.452 0 0 0-58.556 21.594 206.188 206.188 0 0 0-12.498 5.554 519.425 519.425 0 0 0-21.278 10.929c-9.22 5.008-18.216 10.284-26.916 16.129-6.304 4.235-12.615 9.076-18.935 14.526a105.136 105.136 0 0 0-10.972 10.97c-.245.284-.747.85-1.505 1.697-1.525 1.707-3.413 4.193-5.663 7.459-.516.752-1.603 2.58-3.26 5.484-.914 1.603-1.741 3.394-2.442 5.12a47.581 47.581 0 0 1-.97 2.214c-1.118-2.554-1.966-5.3-2.542-8.239-.489-2.487-.384-4.694-.373-7.103a30.87 30.87 0 0 1 .291-4.228c.318-2.189.823-3.925 1.288-5.749.362-1.427.943-2.791 1.363-4.179 1.152-3.079 2.303-5.589 3.454-7.529 1.773-2.987 3.427-5.845 5.54-8.626a111.755 111.755 0 0 1 15.93-16.974c11.169-9.658 23.44-17.99 36.282-25.309 3.312-1.889 6.635-3.81 10.034-5.543a190.348 190.348 0 0 0 3.036-1.593 477.97 477.97 0 0 1 19.083-9.713 174.122 174.122 0 0 1 9.879-4.384 975.462 975.462 0 0 1 59.02-21.855c2.417-.806 4.897-1.507 7.36-2.23.691-.202 1.97-.688 2.982-.946a51.784 51.784 0 0 0 1.213-.317 1849.435 1849.435 0 0 1 38.817-10.934c1.677-.452 3.375-.879 5.093-1.281a2964.031 2964.031 0 0 1 39.996-9.081c5.4-1.187 11.725-2.211 15.368-2.913 1.531-.295 2.944-.406 4.24-.333Z"/><path fill="#F5F3E7" d="M356.226 175.763c5.387.688 9.629 3.324 12.074 7.991 4.649 8.873-.698 19.316-10.456 21.252-.51.102-1.032.219-1.566.351-1.287-.099-2.233-.09-2.839.026-5.619 1.073-11.295 1.996-16.879 3.223a3018.161 3018.161 0 0 0-39.534 8.95c-1.718.402-3.415.829-5.09 1.279a1768.15 1768.15 0 0 0-36.687 10.302c-.432.127-1.515.431-3.249.912-1.084.304-2.163.624-3.236.962-2.532.795-5.195 1.549-7.596 2.352-20.667 6.932-41.149 14.463-61.277 22.806-1.68.697-3.278 1.402-4.797 2.116a483.94 483.94 0 0 0-24.756 12.532c-.696.379-1.628.813-2.416 1.265-1.14.654-1.733.992-1.779 1.017-15.237 8.29-29.594 17.615-42.252 28.619-5.838 5.073-11.003 10.532-15.495 16.376-2.968 3.861-5.548 8.105-7.74 12.733-.57 1.2-1.111 2.671-1.7 4.012a37.618 37.618 0 0 1-2.7-9.08c-.326-1.981-.228-4.138-.22-6.214.007-1.582.101-3.012.283-4.289.258-1.812.545-3.222.862-4.228.399-1.274.667-2.461 1.166-3.782a14.16 14.16 0 0 0 .602-2.019c.35-.749.673-1.487.969-2.214.701-1.726 1.528-3.517 2.442-5.12 1.657-2.904 2.744-4.732 3.26-5.484 2.25-3.266 4.138-5.752 5.663-7.459a157.12 157.12 0 0 0 1.505-1.697 105.136 105.136 0 0 1 10.972-10.97c6.32-5.45 12.631-10.291 18.935-14.526 8.7-5.845 17.696-11.121 26.916-16.129a519.425 519.425 0 0 1 21.278-10.929 206.188 206.188 0 0 1 12.498-5.554 983.452 983.452 0 0 1 58.556-21.594c3.251-1.084 7.155-2.173 11.068-3.322 12.316-3.619 25.582-7.348 39.799-11.186 1.569-.424 2.736-.725 3.499-.902a3308.277 3308.277 0 0 1 39.867-9.021c5.713-1.255 11.513-2.214 17.263-3.298.474-.09 1.403-.11 2.787-.059Z"/><path fill="#EB3724" d="M356.278 205.357c13.588 1.359 18.641 18.102 7.893 26.429-1.826 1.413-3.96 2.347-6.401 2.801-5.584 1.035-11.2 2.02-16.745 3.241a2514.321 2514.321 0 0 0-39.796 9.107 164.22 164.22 0 0 0-5.088 1.292 1491.41 1491.41 0 0 0-47.23 13.629 124.014 124.014 0 0 0-4.983 1.639 1349.691 1349.691 0 0 0-23.663 8.611 746.346 746.346 0 0 0-36.87 14.946l-3.714 1.666a87.812 87.812 0 0 0-3.683 1.755 407.55 407.55 0 0 0-14.94 7.965.447.447 0 0 0-.148.169 1.774 1.774 0 0 0-.186.091c-2.492 1.374-5.448 3.11-8.868 5.206-.087.054-.137.112-.149.174a.29.29 0 0 0-.15.039c-6.921 4.229-13.619 8.772-20.044 13.71l-3.325 2.656c-1.647 1.284-3.158 2.729-4.72 4.111-2.005 1.775-4.885 4.722-8.639 8.842-.928 1.019-1.773 2.121-2.622 3.197-2.561 3.337-5.043 7.199-5.897 11.344-.365 1.767-.255 3.62-.241 5.442.007 1.121.12 2.084.338 2.888 1.24 4.548 4.71 9.021 8.093 12.225a63.823 63.823 0 0 0 7.415 6.599c6.982 5.302 14.47 9.938 22.18 14.118a65.9 65.9 0 0 0 4.707 2.302 496.394 496.394 0 0 0 34.39 13.738 99.333 99.333 0 0 0 4.988 1.627 1035.73 1035.73 0 0 0 36.558 10.17c1.671.431 3.375.832 5.114 1.203a2225.57 2225.57 0 0 0 33.482 6.856c1.711.336 3.433.641 5.167.913a2668.705 2668.705 0 0 0 34.469 5.179c1.716.246 3.453.464 5.209.653a8670.771 8670.771 0 0 0 40.067 4.194c1.448.149 2.472.383 3.073.702 2.29 1.214 2.913 4.361 1.292 6.49-1.342 1.762-2.873 1.811-4.88 1.679a8678.107 8678.107 0 0 1-45.874-3.179c-1.75-.126-3.495-.284-5.235-.473a6287.535 6287.535 0 0 1-41.961-4.725 128.188 128.188 0 0 1-5.201-.709 2320.506 2320.506 0 0 1-36.056-5.96c-1.737-.301-3.455-.64-5.153-1.016-12.138-2.695-24.268-5.479-36.303-8.6-1.706-.442-3.389-.92-5.049-1.435-11.25-3.485-22.431-7.256-33.411-11.508a74.75 74.75 0 0 1-4.82-2.063 255.042 255.042 0 0 1-19.907-10.508c-4.844-2.834-8.989-5.64-12.435-8.415-1.749-1.407-3.855-3.395-6.317-5.962-3.828-3.992-6.829-7.952-9.004-11.88-2.238-4.041-3.656-7.776-4.57-12.236-.536-2.62-.45-5.193-.392-7.773.037-1.627.183-3.176.439-4.647.417-2.4.908-4.403 1.474-6.009.553-1.572.886-2.577 1-3.018.589-1.341 1.13-2.812 1.7-4.012 2.192-4.628 4.772-8.872 7.74-12.733 4.492-5.844 9.657-11.303 15.495-16.376 12.658-11.004 27.015-20.329 42.252-28.619.046-.025.639-.363 1.779-1.017.788-.452 1.72-.886 2.416-1.265a483.94 483.94 0 0 1 24.756-12.532 113.749 113.749 0 0 1 4.797-2.116c20.128-8.343 40.61-15.874 61.277-22.806 2.401-.803 5.064-1.557 7.596-2.352 1.073-.338 2.152-.658 3.236-.962 1.734-.481 2.817-.785 3.249-.912 12.191-3.565 24.42-7 36.687-10.302 1.675-.45 3.372-.877 5.09-1.279a3018.161 3018.161 0 0 1 39.534-8.95c5.584-1.227 11.26-2.15 16.879-3.223.606-.116 1.552-.125 2.839-.026Z"/><path fill="#033DF5" d="M183.395 287.052c.534.179 1.046.356 1.536.531.576.206 1.091.376 1.545.512a1086.931 1086.931 0 0 0 38.357 10.686c1.674.435 3.378.837 5.111 1.204a2593.769 2593.769 0 0 0 34.325 7.014c1.326.264 2.287.441 2.884.533a3936.237 3936.237 0 0 0 36.119 5.442c.83.122 1.662.227 2.496.317a6618.917 6618.917 0 0 0 42.656 4.484c1.358.138 2.311.351 2.861.636.963.503 1.625 1.288 1.986 2.355.908 2.674-.66 5.357-3.454 5.902-.352.07-1.004.071-1.955.005-15.196-1.037-30.39-2.098-45.583-3.181a147.12 147.12 0 0 1-5.229-.47 5863.217 5863.217 0 0 1-42.26-4.748 132.507 132.507 0 0 1-5.204-.707 2302.042 2302.042 0 0 1-36.447-6.025c-5.49-.951-10.94-2.346-16.37-3.581a989.093 989.093 0 0 1-24.522-5.9c-3.732-.948-7.512-2.23-11.268-3.355a.046.046 0 0 1-.034-.044.067.067 0 0 0-.035-.055.447.447 0 0 1 .148-.169 407.55 407.55 0 0 1 14.94-7.965 87.812 87.812 0 0 1 3.683-1.755l3.714-1.666Z"/><path fill="#607DF4" d="M151.707 304.078c10.249 4.525 20.721 8.587 31.262 12.392 1.618.584 3.28 1.13 4.985 1.637a1049.17 1049.17 0 0 0 36.668 10.204c1.673.433 3.376.834 5.109 1.203a2347.036 2347.036 0 0 0 34.798 7.119 86.63 86.63 0 0 0 3.512.634 4233.527 4233.527 0 0 0 33.816 5.081c1.728.253 3.463.474 5.206.663a6176.918 6176.918 0 0 0 41.382 4.345c1.302.132 2.245.351 2.832.658 3.341 1.754 2.918 6.905-.914 8.095-.515.16-1.316.204-2.403.133a8146.399 8146.399 0 0 1-46.335-3.225 145.39 145.39 0 0 1-5.232-.476 8668.955 8668.955 0 0 1-42.305-4.751 89.055 89.055 0 0 1-3.861-.525 2517.764 2517.764 0 0 1-36.363-6.014 117.939 117.939 0 0 1-5.156-1.008 1288.833 1288.833 0 0 1-33.551-7.857c-4.356-1.078-8.45-2.266-12.282-3.566-.417-.14-.927-.218-1.376-.364a697.599 697.599 0 0 1-18.907-6.45 343.079 343.079 0 0 1-11.079-4.179c6.425-4.938 13.123-9.481 20.044-13.71a.29.29 0 0 1 .15-.039Z"/><path fill="#AFBCFA" d="M128.188 320.483a201.59 201.59 0 0 0 14.916 9.075 83.176 83.176 0 0 0 6.583 3.22 517.19 517.19 0 0 0 33.232 13.253 95.306 95.306 0 0 0 4.98 1.634 1000.59 1000.59 0 0 0 37.117 10.323c1.652.425 3.355.824 5.109 1.198 18.017 3.836 29.934 6.268 35.749 7.296 5.392.953 17.692 2.808 36.902 5.567 1.73.247 3.466.465 5.208.652a8583.002 8583.002 0 0 0 40.461 4.239c1.221.125 2.086.306 2.596.543 2.758 1.279 3.377 5.177 1.116 7.186-1.615 1.437-3.134 1.222-5.041 1.094a13401.703 13401.703 0 0 1-44.768-3.1 141.783 141.783 0 0 1-5.233-.471 7026.591 7026.591 0 0 1-38.27-4.272c-3.404-.388-6.721-.79-10.181-1.336a2233.873 2233.873 0 0 1-35.722-5.915c-5.401-.941-10.762-2.324-16.104-3.538a962.482 962.482 0 0 1-24.192-5.811c-1.735-.442-3.42-.913-5.056-1.414a539.051 539.051 0 0 1-33.8-11.586 64.59 64.59 0 0 1-4.959-2.128 362.426 362.426 0 0 1-14.494-7.361l-2.13-2.198c.849-1.076 1.694-2.178 2.622-3.197 3.754-4.12 6.634-7.067 8.639-8.842 1.562-1.382 3.073-2.827 4.72-4.111Z"/><path fill="#F5F3E7" d="m112.207 336.633 2.13 2.198c7.912 8.049 18.392 14.562 28.505 20.148a89.897 89.897 0 0 0 7.36 3.635c10.974 4.805 22.38 9.308 34.217 13.51 1.194.424 2.008.701 2.44.829a1125.282 1125.282 0 0 0 37.304 10.409c1.674.436 3.377.84 5.109 1.211a2022.478 2022.478 0 0 0 34.128 6.999c1.707.336 3.431.64 5.172.912a2960.087 2960.087 0 0 0 33.941 5.11c1.72.249 3.457.468 5.211.657a7961.3 7961.3 0 0 0 40.827 4.281c1.21.124 2.082.323 2.616.595 3.622 1.842 2.918 7.209-1.001 8.207-.459.116-1.166.142-2.122.078a9746.248 9746.248 0 0 1-45.893-3.189 139.639 139.639 0 0 1-5.233-.47 6148.653 6148.653 0 0 1-42.121-4.735 131.759 131.759 0 0 1-5.203-.71 2205.147 2205.147 0 0 1-35.599-5.874c-1.751-.303-3.47-.638-5.156-1.005a1089.358 1089.358 0 0 1-36.587-8.631c-1.73-.439-3.414-.912-5.053-1.42-11.35-3.513-22.629-7.316-33.706-11.601-7.013-2.714-12.757-6.061-18.993-9.245-3.383-3.204-6.853-7.677-8.093-12.225-.218-.804-.331-1.767-.338-2.888-.014-1.822-.124-3.675.241-5.442.854-4.145 3.336-8.007 5.897-11.344Z"/></svg>