<svg xmlns="http://www.w3.org/2000/svg" fill="none" viewBox="0 0 512 512"><path fill="#000" fill-rule="evenodd" d="M512 256c0 141.385-114.615 256-256 256S0 397.385 0 256 114.615 0 256 0s256 114.615 256 256Z" clip-rule="evenodd"/><path fill="#fff" d="M252.97 63.634c2.854-1.317 5.707-2.195 8.56-2.634h10.316c8.34 1.536 15.364 6.585 21.509 12.291 9.877 9 17.779 19.973 25.022 30.948 10.316 15.803 19.753 32.264 28.972 48.725 8.999 16.242 17.998 32.704 26.777 49.384 19.315 36.216 38.629 72.65 55.53 110.182 4.609 10.535 8.999 21.51 12.51 32.703.659 4.171 2.195 8.341 1.756 12.731-.439 1.975-1.097 4.17-2.853 5.048-1.536 1.097-3.512.439-5.048.878-1.536.878-2.414 2.633-3.731 3.292l-3.951.439-3.731 3.292-3.293.439c-2.414 0-3.072 2.853-5.048 3.292-1.317.439-2.853.22-4.17.22-1.097 1.317-2.195 2.853-3.951 3.512-1.536.439-2.853.219-4.389.219-.878 1.317-1.756 2.853-3.293 3.512-1.536.439-3.073.219-4.609 0-.878 1.317-1.536 3.073-3.292 3.292h-4.609c-.878 1.317-1.756 2.853-3.293 3.731-1.536.439-3.292 0-5.048 0-.658 1.098-.878 2.634-2.195 3.293h-5.487l-2.414 3.95-5.926-.219-1.976 3.951c-1.975 0-4.17 0-6.145-.439-.22 1.317-.439 2.853-1.537 3.95-1.536.439-3.292.22-4.828-.439-3.732-1.975-6.804-4.828-9.658-7.901-3.511-3.292-6.804-6.804-10.096-10.535-2.634-2.634-4.609-5.707-7.243-8.341-3.292-3.072-6.146-6.584-9.218-9.877-3.732-4.609-8.121-8.34-12.072-12.51l-6.146-5.707c-4.17-3.951-8.56-7.243-13.169-10.535-6.145-4.17-12.949-7.902-20.412-8.78-5.048-.219-9.877 2.195-14.266 4.829-7.682 4.609-14.486 10.535-20.851 16.681-10.097 9.218-19.535 19.095-29.192 28.533-3.731 4.39-7.682 8.341-11.852 12.291-3.731 3.073-7.024 6.804-10.974 9.877-3.732 2.634-7.463 5.926-12.072 6.146-1.976-.878-2.634-3.073-3.731-4.829-1.976 0-3.951.439-5.927-.219-.877-.878-1.097-2.195-1.755-3.293-1.976-.219-4.171.22-6.146-.439-1.097-.878-1.536-2.195-2.195-3.511h-5.487c-1.097-.878-1.536-2.415-2.634-3.512-1.756-.439-3.512-.22-5.267-.22l-2.854-3.731c-1.536 0-3.073.22-4.609-.219-1.536-.659-2.414-2.195-3.512-3.512l-3.95-.22c-1.756-.439-2.854-2.195-4.171-3.292l-3.731-.658c-1.317-.22-2.195-1.317-3.073-2.195-1.536-1.976-4.39-.878-6.365-2.195l-3.073-2.634a40.834 40.834 0 0 1-8.12-4.17c-1.537-.659-3.293-.439-4.83-1.098-1.316-.878-2.413-2.853-4.17-3.072-1.975-.439-4.39-.439-5.706-2.195-1.975-2.634-1.536-5.926-1.536-8.78 1.097-8.34 4.39-16.242 7.462-23.924 8.121-19.095 17.998-37.312 28.094-55.09 3.073-5.926 6.365-11.414 9.658-16.901 3.511-6.584 7.901-12.73 11.413-19.314l14.705-24.802c2.854-4.17 5.048-8.56 8.121-12.73 12.072-19.974 24.583-39.727 37.313-59.261 13.169-19.754 26.118-39.727 41.921-57.505 7.463-7.683 15.145-15.803 25.241-20.193Zm-15.364 16.242c-8.779 8.12-16.022 17.558-23.265 26.996-6.146 8.78-12.511 17.34-18.437 26.558a3540.53 3540.53 0 0 0-85.16 137.178c-1.976 2.854-3.293 5.927-5.048 8.78-5.707 10.096-11.194 20.631-16.681 31.167-5.268 9.657-9.658 19.753-13.828 30.069-.878 3.731-2.853 7.463-2.853 11.413 0 1.976-.22 3.951.22 5.927.219 1.755 2.194 2.414 3.73 2.853 1.317-2.415.878-5.487 1.756-8.121.659-2.853 1.317-5.926 2.415-8.78 3.731-10.535 8.34-21.07 13.608-31.166 7.901-15.803 16.461-31.167 25.021-46.531l7.024-12.95 7.682-12.95c2.195-3.95 4.389-7.901 6.804-11.413 2.195-3.292 3.731-6.584 5.706-9.877 5.707-8.779 10.755-17.997 16.462-26.777 9.218-15.364 18.656-30.508 28.313-45.653 4.39-6.145 8.121-12.73 12.292-18.656 9.218-13.828 19.095-27.216 30.289-39.068 6.584-6.146 13.169-12.511 21.509-15.803 5.268-1.756 10.755-3.512 16.242-1.756 10.096 1.975 18.217 8.999 25.241 16.461 5.706 6.365 11.193 13.389 15.803 20.632 11.193 16.022 20.412 33.362 30.069 50.262 9.438 17.778 19.095 35.557 28.314 53.774 11.194 21.29 22.168 42.799 32.703 64.309l10.755 22.387c7.462 16.462 15.144 33.143 19.973 50.702 1.097 3.292.878 7.023 2.195 10.096 1.536 0 3.512-.22 3.731-1.975.22-3.732.439-7.682-.878-11.194-3.512-11.633-8.34-22.607-13.169-33.362-17.778-38.629-37.751-75.942-57.725-113.254-12.73-23.924-25.46-47.629-39.287-70.894-4.39-7.243-8.56-14.706-13.389-21.51-5.926-8.999-12.072-17.778-19.315-25.68-7.023-7.681-15.364-15.144-25.679-17.339-3.073-.22-6.146-.22-8.999.22-9.438 2.195-17.559 8.12-24.144 14.925Zm9.877 2.414c-9.877 7.463-17.778 17.12-25.46 26.777-3.292 4.609-6.804 8.78-9.658 13.389-16.022 22.607-30.289 46.092-44.555 69.577l-22.388 36.654-16.241 27.216-7.024 12.072c-5.268 8.779-9.877 17.997-14.925 26.777-4.39 8.34-8.999 16.681-13.17 25.241-3.072 5.926-5.486 11.852-8.34 17.778-1.755 3.731-2.633 7.682-4.17 11.413-1.317 3.512-1.756 7.024-1.536 10.755 1.975 0 4.17 0 5.706-1.537.878-1.536.878-3.292 1.537-5.048 1.536-6.584 4.39-12.51 6.584-18.875 6.585-14.925 14.047-29.631 21.729-44.117 10.755-20.193 22.388-40.166 33.801-60.139 2.195-3.731 4.609-7.462 6.365-11.413l14.047-23.266 11.414-19.095 14.925-23.924a659.74 659.74 0 0 1 19.095-28.972c2.853-3.511 5.267-7.462 8.34-10.974 6.365-8.121 13.169-16.242 21.51-22.607 5.267-4.17 11.632-7.901 18.436-8.34l2.854-.22c4.39.22 8.779 1.098 12.51 3.292 9.658 5.049 16.901 13.609 23.705 22.168 11.194 15.145 20.631 31.606 29.63 48.068a2762.574 2762.574 0 0 1 81.868 164.175c2.854 8.121 6.585 15.803 9.219 23.924 1.536 3.95 2.195 7.901 3.512 11.852 1.097 2.195 3.511 2.634 5.487 3.292l.439-2.853c-4.61-17.34-12.511-33.801-19.754-50.262-12.511-26.119-25.68-51.799-38.849-77.698-9.218-17.559-18.217-35.118-27.875-52.677-9.657-18.217-19.534-36.215-30.508-53.774-5.487-8.559-10.974-17.119-17.559-25.02-3.512-4.171-6.804-8.341-10.974-11.414-5.926-5.268-13.169-9.657-21.29-9.219-6.804-.219-12.95 3.073-18.217 7.024h-.22Zm-4.829 14.925c-9.657 9.218-17.778 20.193-25.46 31.167-12.95 18.656-24.802 37.971-36.654 57.286l-18.876 31.825c-6.804 10.755-13.169 21.729-19.314 32.703-3.732 5.926-7.024 12.072-10.536 17.998-4.609 8.56-9.876 16.9-14.266 25.68l-9.219 17.339c-5.706 11.194-11.193 22.388-15.802 34.02-1.317 3.732-2.854 7.243-3.073 11.194a13.298 13.298 0 0 0 6.365-3.073c1.536-1.097 1.756-3.072 2.414-4.828.878-3.512 2.634-6.585 3.951-10.097 3.731-9.876 8.779-19.314 13.169-28.972l8.121-15.364 10.535-20.192c3.731-7.682 8.121-14.706 12.072-21.949 9.438-16.461 18.656-32.923 28.313-49.165 11.633-19.753 23.046-39.507 35.777-58.602 6.804-10.316 13.608-20.632 21.729-30.07 6.804-7.901 14.266-15.583 23.924-19.973 5.048-2.414 10.974-2.853 16.461-1.536 7.243 2.195 13.169 7.243 18.656 12.511 10.974 11.852 19.315 25.899 27.436 39.726a2993.247 2993.247 0 0 1 77.698 155.396c7.023 15.583 13.827 31.167 19.534 47.409 1.756 2.195 4.17 4.17 7.023 5.048-1.317-5.048-3.292-9.877-5.048-14.925-7.682-19.095-16.681-37.971-25.68-56.627-8.999-19.096-18.656-37.971-28.313-57.066-13.169-25.68-26.338-51.58-40.386-76.82-4.389-7.243-8.34-14.706-13.169-21.729-3.511-5.707-7.023-11.194-11.193-16.462-5.049-6.584-10.536-12.95-17.12-17.778-3.512-2.414-7.243-4.61-11.413-5.268-3.073-.22-6.146-.22-8.999.22-7.243 1.536-13.169 6.365-18.437 10.974h-.22Zm20.632-.878c-7.462 1.098-13.608 5.707-19.095 10.755-9.219 8.779-16.681 18.876-23.924 29.191-5.048 7.682-10.096 15.145-14.925 23.046-6.146 9.438-11.633 19.315-17.559 28.972l-21.948 37.752c-5.268 8.34-9.877 17.12-14.706 25.68-3.073 5.487-6.585 10.535-9.438 16.022-10.974 19.534-21.509 39.068-31.167 59.042-3.511 7.682-7.243 15.144-9.877 23.046 2.634-.659 4.829-2.195 7.024-3.951 2.414-1.976 3.073-5.048 4.17-7.902 7.463-17.119 16.023-34.02 24.583-50.481 1.536-3.512 3.292-6.585 5.048-9.877l19.973-36.654 20.192-35.776c5.268-8.56 9.877-17.34 15.145-25.899 7.243-12.072 14.486-24.363 22.607-35.996 7.243-10.535 14.705-21.29 24.363-30.07 5.048-4.389 10.535-8.559 16.9-9.876 2.634-.439 5.268-.439 7.902-.22 3.731 0 7.023 1.537 10.096 3.292 5.268 3.293 9.438 7.682 13.608 12.292 4.39 5.267 8.56 10.754 12.072 16.68 11.193 17.559 20.631 35.996 30.069 54.652 2.634 5.487 5.707 10.755 8.341 16.462l14.047 28.972c11.632 24.363 23.265 48.506 34.02 73.308 2.414 5.926 5.048 11.413 7.243 17.339 1.975 4.17 3.292 8.341 5.048 12.511 1.756 2.414 4.17 3.951 6.804 4.829a8.356 8.356 0 0 0-.878-3.732l-4.828-11.632c-11.633-26.997-24.363-53.555-37.313-80.113l-26.338-52.676c-9.877-19.534-19.973-39.068-31.167-57.944-5.926-9.219-11.852-18.437-19.095-26.777-3.512-3.732-7.024-7.463-11.414-10.097-4.389-3.073-10.096-4.828-15.583-4.17Zm-9.438 14.267c-5.487 3.072-9.657 7.901-14.047 12.51-4.17 4.171-7.462 8.999-10.974 13.608-2.853 4.39-6.146 8.56-8.78 13.17-3.731 4.828-6.584 10.096-9.876 15.363-13.609 22.169-26.339 44.775-39.288 67.382l-16.681 30.289c-5.487 10.097-11.413 19.974-16.681 30.07-5.048 9.877-10.316 19.534-14.925 29.411-.878 1.756-1.975 3.292-2.634 5.048-1.756 4.829-4.609 9.218-5.926 14.047 2.634-1.097 5.268-2.853 7.463-4.609 1.316-1.097 1.755-2.414 2.414-3.731 3.292-7.902 7.023-15.584 10.755-23.046 2.195-4.17 3.731-8.56 5.926-12.511l7.462-14.486c3.073-5.707 5.707-11.633 9.219-17.339 2.853-5.707 6.584-11.413 9.218-17.34a1848.2 1848.2 0 0 1 45.872-81.429c5.049-8.56 10.755-16.9 16.462-25.021 6.145-8.56 12.73-16.681 21.07-23.046 3.512-2.634 7.682-4.609 11.853-5.487h7.901c7.463 1.756 13.608 6.804 18.656 12.291 4.39 5.048 8.341 10.316 11.853 16.023 10.974 17.119 19.973 35.337 29.191 53.554 4.609 9.438 8.999 19.315 13.828 28.753l10.974 23.704 6.804 14.486c9.657 21.509 19.534 42.8 28.314 64.529 1.097 3.511 4.389 5.267 7.462 7.023-.439-3.512-2.414-6.584-3.731-9.877-1.976-5.267-4.39-10.096-6.585-15.364-16.681-36.873-34.459-73.527-52.237-109.962-10.316-20.412-20.412-40.824-32.704-60.358-5.926-9.219-12.51-18.656-21.07-25.899-4.17-3.073-8.999-5.927-14.486-5.488-4.39-.439-8.341 1.537-12.072 3.732Zm-3.073 12.949c-11.193 9.438-19.534 21.949-27.655 34.24-8.121 12.511-15.364 25.68-22.826 38.41-5.487 9.657-10.975 19.095-16.023 28.972-9.218 16.242-18.217 32.703-27.216 49.384-2.853 5.268-5.487 10.974-8.56 16.242-2.195 4.39-5.048 8.34-6.804 12.95l-9.657 19.534c-1.317 2.634-3.073 5.048-3.073 8.121 2.853-1.537 5.926-3.512 7.902-6.146 2.194-3.731 3.511-7.901 5.487-11.632l11.413-22.827c6.365-12.511 12.291-25.241 19.095-37.751 3.512-6.365 6.585-13.17 10.316-19.535l8.121-14.925c2.853-5.706 6.365-11.413 9.438-17.119 7.023-12.731 14.047-25.241 21.729-37.313 5.926-9.438 12.071-18.876 19.534-26.997 5.926-6.584 13.389-12.291 22.387-13.608 2.854-.219 5.707.659 8.341 1.537 7.462 3.072 13.169 9.218 17.998 15.583 3.511 4.609 6.584 9.657 9.877 14.486 10.974 19.095 20.412 38.849 29.63 58.822 2.414 4.39 4.17 8.999 6.365 13.389 9.438 19.973 18.217 40.385 27.216 60.358l12.291 29.411c1.317 2.854 3.951 4.609 6.585 6.146.219-2.195-.878-4.17-1.756-5.926-5.048-12.291-10.755-24.363-16.242-36.654-9.438-20.632-18.876-41.483-28.752-61.895-8.56-18.217-17.34-36.215-26.778-53.774-5.267-9.438-10.535-18.876-16.9-27.655-3.951-5.048-7.901-10.316-12.95-14.486-2.853-2.195-6.145-3.951-9.876-5.268-6.585-1.536-13.389 1.537-18.657 5.926Zm-2.195 13.169c-8.34 7.682-14.486 17.12-20.631 26.339-3.731 6.365-7.682 12.291-11.194 18.656-13.608 23.265-25.899 47.189-38.849 70.894-4.17 8.34-9.218 16.68-13.388 25.24-5.487 10.097-10.536 20.413-15.803 30.728-1.756 4.171-4.171 8.121-5.926 12.511 4.17-1.317 8.121-4.39 9.657-8.56l4.17-8.779c8.56-17.559 16.901-35.118 25.899-52.238 10.975-21.509 22.168-42.799 33.801-63.87 6.585-10.974 12.95-22.168 20.632-32.703 5.487-6.585 10.755-13.608 18.217-17.779 2.414-1.317 4.829-2.633 7.463-2.633 3.292 0 6.584-.439 9.657 1.097 7.243 3.073 12.511 9.438 17.12 15.583 8.999 12.511 15.803 26.339 22.607 39.947 8.779 18.436 17.12 37.093 25.46 55.749l24.143 56.408c.878 1.975 1.317 4.17 2.634 5.926 1.317 1.756 3.512 2.853 5.707 3.731-2.195-5.926-4.829-11.413-7.243-16.9l-10.974-25.241c-3.951-8.121-7.243-16.681-11.194-24.582-7.902-17.12-15.584-34.24-23.705-51.141-7.901-16.022-15.803-32.264-25.899-47.189-3.512-5.048-7.462-9.877-11.852-13.827-3.731-3.293-8.121-6.146-13.169-5.927-6.804-.438-12.73 3.951-17.34 8.56Zm10.975 2.854c-3.073 1.317-5.926 3.292-8.341 5.706-3.511 3.293-6.804 6.585-9.438 10.316-5.048 6.585-9.437 13.608-13.827 20.632-9.218 15.144-17.559 31.167-25.899 46.97l-24.583 47.408c-5.267 10.536-10.755 20.852-15.803 31.387-1.317 2.634-3.072 5.048-3.072 7.901 2.414-1.097 5.267-2.414 6.365-5.048l14.486-30.069 16.681-33.582c5.048-10.315 10.535-20.412 15.802-30.728 7.682-14.705 15.584-29.411 25.022-43.238 5.487-7.682 11.413-15.803 19.973-20.412 4.609-2.634 10.535-3.073 15.364-.439 4.17 1.975 7.901 5.048 10.755 8.779 7.682 8.999 13.169 19.754 18.656 30.289 7.901 15.364 14.705 31.387 21.729 47.189 8.779 20.632 17.559 41.264 25.899 62.115.878 1.975 1.537 4.389 3.073 6.145 1.097 1.317 2.634 1.976 4.17 2.634-.219-2.853-1.536-5.267-2.634-7.901-13.169-30.728-26.557-61.676-40.604-92.184l-9.438-19.534-11.413-20.632c-4.829-7.682-9.877-15.583-17.12-21.29-2.415-1.756-5.268-3.292-8.341-3.292-2.414 0-5.048-.22-7.462.878Zm-4.609 13.608c-7.024 5.706-12.511 13.169-17.34 20.631-6.804 10.536-12.949 21.51-18.876 32.484-10.535 19.534-19.973 39.508-30.069 59.042l-12.73 26.119c-1.537 2.853-3.073 5.706-3.951 8.998 3.292-.439 5.707-3.292 6.804-6.145l9.658-20.412c3.072-6.585 6.365-12.95 9.218-19.534 8.56-17.12 16.681-34.679 25.899-51.36 6.365-11.194 12.291-22.827 20.412-32.923 4.39-5.706 9.658-11.633 16.681-14.047 2.853-.439 5.707-.219 8.341 0 5.487 1.537 9.657 5.926 13.169 10.096 4.389 5.707 8.34 11.414 11.413 17.779 9.877 18.217 17.559 37.532 25.68 56.407l20.412 50.702c.878 2.414 3.073 3.511 5.048 4.609 0-.878 0-1.756-.439-2.634l-11.413-27.436-18.656-43.458c-7.463-16.9-15.145-34.02-24.363-50.262-3.732-5.707-7.463-11.633-12.291-16.461a21.292 21.292 0 0 0-10.097-6.146c-4.609-1.097-9.218 1.097-12.73 3.951h.22Zm.658 10.316c-5.487 4.389-9.657 10.096-13.608 16.022-5.048 7.463-9.438 15.364-13.828 23.485-7.462 13.608-14.266 27.875-21.07 41.922l-21.29 44.116-.878 3.073c1.756-.659 3.512-1.317 4.609-2.853l2.195-4.39c2.195-5.048 4.828-9.877 6.804-14.706l18.217-39.287 7.024-14.267c2.853-6.365 6.584-12.072 9.657-18.217 3.073-5.487 6.365-10.975 10.096-16.242 4.61-6.585 10.097-13.608 18.218-16.023 3.511-1.316 7.243.22 10.315 1.756 4.39 2.415 7.463 6.585 10.536 10.536 3.073 4.17 5.487 8.779 7.901 13.388 9.438 17.998 16.901 36.874 24.363 55.749 4.17 10.097 7.682 20.413 11.852 30.289 1.098 2.854 1.756 5.926 3.512 8.341.658 1.097 2.195 1.097 3.512 1.536l-1.317-3.731-12.291-30.289c-1.976-4.829-3.732-9.877-6.146-14.705-4.39-11.194-8.999-22.168-14.047-32.923-5.487-11.852-11.194-23.924-18.656-34.679-3.292-4.609-7.243-8.999-12.291-11.413-2.415-.659-4.829-.439-7.243-.22-2.195.878-4.171 2.195-6.146 3.732Zm2.414 8.779c-5.706 4.17-9.876 10.096-13.608 16.022-3.731 5.488-7.023 11.194-10.096 17.12-3.512 6.365-6.804 13.169-10.096 19.754-8.121 16.242-15.584 32.923-23.046 49.384-1.317 2.853-3.073 5.487-3.951 8.341.878 1.536 2.853.439 3.512-.878 2.414-3.512 3.731-7.682 5.487-11.633l15.364-33.801c3.512-8.56 8.121-16.681 12.072-25.241 5.267-9.657 10.535-19.534 17.997-27.874 3.293-3.731 7.682-6.585 12.73-7.243 5.707.439 10.316 4.17 13.609 8.34 7.243 9.438 12.071 19.973 16.9 30.728 7.901 18.437 14.705 37.313 21.729 56.188 1.097 3.293 2.195 6.585 4.17 9.438h2.195c-2.634-8.56-6.146-16.681-9.438-25.021-3.512-9.438-7.462-18.656-11.194-28.094-3.731-8.78-7.243-17.559-11.413-25.899-3.731-7.682-7.462-15.364-12.511-22.168-3.072-3.951-6.804-8.121-11.632-9.658-3.073-.878-6.146.878-8.78 2.195Zm-3.511 13.828c-7.024 7.243-11.633 16.68-16.462 25.46a3610.527 3610.527 0 0 0-29.63 63.87l-1.098 3.292c13.608-7.682 27.655-14.925 42.8-18.436 4.609-1.098 9.438-.659 14.266-.659 5.927 0 11.633 1.756 17.559 3.512 5.707 1.756 11.633 3.731 17.12 6.584l14.706 7.024c-.659-4.17-2.634-7.682-3.732-11.633-7.901-21.29-15.803-42.799-25.679-63.211-2.634-4.829-5.049-9.438-8.341-13.609-2.853-3.95-6.584-7.682-11.633-7.901-3.95.439-7.243 2.634-9.876 5.487v.22Zm-4.61 78.575c-3.511.439-6.584 1.976-10.096 2.854-4.609 1.536-8.999 3.731-13.389 5.706l-13.608 7.024c-3.292 2.195-7.023 3.292-9.437 6.365 1.097.219 2.194.219 3.072-.439 6.585-3.512 12.73-7.682 19.535-10.974 10.315-4.829 21.29-9.658 32.922-10.316 2.415-.22 4.609.439 7.024.658 3.292.22 6.584 1.537 10.096 1.976 11.633 2.853 22.827 7.901 33.581 13.827 2.415 1.317 4.829 3.073 7.682 3.512-.658-.878-.878-1.975-1.975-2.414-3.073-2.195-6.585-3.732-10.096-5.488-7.024-3.731-14.486-6.804-21.949-9.218-3.951-.878-7.682-2.634-11.633-2.853-2.414-.439-4.828-1.098-7.462-1.098-4.609 0-9.438-.219-14.267.878Zm7.024 5.048c-3.731-.219-7.243.878-10.535 1.976a119.597 119.597 0 0 0-31.387 14.047l-12.291 7.462c-1.536.878-2.853 2.415-3.731 3.951 3.951-1.097 7.023-4.17 10.535-5.926 12.511-7.462 25.46-14.925 39.727-18.656l10.316-1.756c3.292 0 6.584 1.317 10.096 1.536 3.512 0 6.804 1.537 10.096 2.195 3.293.878 6.146 2.414 9.219 3.292 7.023 2.634 13.608 6.585 20.412 10.097 3.512 1.975 6.804 4.389 10.535 5.926-.219-2.853-3.292-3.731-5.267-5.048-10.097-5.707-20.413-11.194-31.387-14.925-3.512-1.317-7.243-1.976-10.974-3.073-4.829-1.537-10.316-1.098-15.364-1.098Zm-11.413 8.121c-5.487 1.976-10.755 3.951-15.803 6.804-9.658 4.829-18.876 10.316-27.875 16.242l-5.926 4.171c-.658.658-.658 1.755-.878 2.633 2.634-1.316 5.048-3.072 7.463-4.609 4.609-3.292 9.657-6.365 14.705-9.438 11.194-7.023 23.266-12.949 36.215-16.022 2.415-.659 5.048-.439 7.682-.439 5.926-.22 11.633 1.756 17.339 3.073 14.706 4.828 28.314 12.51 41.044 21.07l4.17 2.195c-.439-3.292-4.17-4.389-6.584-6.145-3.951-2.634-8.121-4.829-12.291-7.024-4.39-2.853-8.999-4.609-13.608-7.023-3.732-1.317-7.243-3.073-10.975-4.171-4.828-1.756-10.096-2.414-15.144-3.511-2.414-.22-4.829-.878-7.243-.439-4.17.658-8.341 1.755-12.291 2.633Zm5.048 4.829c-8.78 2.414-17.12 6.146-25.021 10.535-5.049 3.073-10.536 5.926-15.364 9.658-5.927 3.95-12.292 7.682-17.998 12.291-1.098.878-1.756 2.195-2.195 3.512 4.609-1.976 8.121-5.268 12.072-8.121 5.706-3.951 11.632-8.121 17.778-11.633 3.951-2.414 7.901-5.048 12.072-7.024 4.389-2.414 8.999-4.17 13.608-6.145 2.414-.878 4.828-1.098 7.243-1.756 3.731-1.317 7.682-.878 11.632-.878 7.024 1.098 13.828 3.073 20.413 5.707 8.34 3.292 15.803 7.901 23.484 12.291l9.438 6.145c3.293 2.195 6.146 4.829 9.658 6.366-.439-1.098-.878-2.415-1.976-3.293-3.292-2.634-6.804-4.609-10.096-7.023-7.024-4.171-13.828-8.78-21.29-12.072-5.048-2.414-10.316-4.829-15.803-6.365-3.073-.659-5.926-2.414-9.218-2.414-2.854-.22-5.488-1.098-8.341-1.098-3.512-.219-6.804.878-10.316 1.317h.22Zm71.991 4.39c0 2.634 2.634 3.512 4.829 4.17-1.098-1.975-2.415-4.17-4.829-4.17Zm-71.991 1.756c-4.609 1.097-8.78 3.072-13.169 5.048-16.901 7.901-32.045 19.095-46.97 30.289-1.756 1.317-3.731 2.414-5.048 4.17-.659.658 0 1.756.219 2.414 10.755-8.34 21.729-16.681 33.142-24.363 8.121-5.048 16.462-10.315 25.461-13.827 3.292-1.097 6.584-2.634 9.877-2.853 5.267-.659 10.535-.439 15.803.439 16.022 3.95 30.289 12.51 43.677 21.729 5.926 4.17 11.413 8.999 17.559 12.51-.439-2.195-1.975-3.95-3.951-5.048-13.608-10.096-27.874-19.754-43.677-26.338-3.073-1.098-5.926-2.634-9.219-3.292-4.389-.878-8.56-2.634-13.169-2.415-3.512-.219-7.023.22-10.535 1.537Zm-58.383 5.926c2.414-1.098 5.487-2.195 5.267-5.048-2.194.658-4.828 2.194-5.267 5.048Zm61.017-.439c-7.902 1.536-15.145 5.267-21.949 9.218-4.17 2.195-8.121 4.829-11.852 7.463-4.609 2.634-8.779 6.145-13.169 9.218l-19.315 14.706c-2.634 2.194-6.584 3.95-6.804 7.901 3.512-1.536 5.926-4.39 8.999-6.585l11.633-9.218c5.926-4.829 12.071-9.218 18.436-13.827l13.17-8.341c5.487-3.292 11.193-6.145 17.339-7.901 3.073-1.098 6.146-2.195 9.218-2.195a81.638 81.638 0 0 1 34.24 11.413 235.31 235.31 0 0 1 30.947 21.51c3.732 2.633 7.024 6.145 10.975 8.559-.22-1.097 0-2.194-.659-2.853-1.536-1.756-3.512-3.073-5.267-4.39-12.072-9.657-24.583-19.095-38.191-26.118-8.34-4.17-16.681-7.902-25.899-9.219-3.951 0-7.902-.219-11.852.659Zm79.453-.878c.878 2.414 2.854 4.17 5.268 5.048-.22-1.097-.439-1.975-1.097-2.853-1.098-1.098-2.634-1.756-4.171-2.195Zm-6.584 3.073c.439 2.195 2.414 3.731 4.389 4.389l-.877-2.853-3.512-1.536Zm-146.616 6.804c2.853-1.098 5.706-3.073 6.584-6.146-2.853 1.098-6.365 2.634-6.584 6.146Zm72.649-2.854a115.021 115.021 0 0 0-40.166 23.266c-3.292 2.414-6.804 4.609-9.876 7.243-8.341 6.804-17.12 13.388-25.241 20.631-1.098 1.317-2.415 3.073-1.537 4.829 14.925-12.511 29.192-25.46 44.995-36.654 9.657-6.804 19.534-13.608 30.728-17.339 3.951-.659 7.682-2.415 11.633-1.537l8.34 1.756c7.024 1.976 13.608 4.829 19.534 8.56 10.097 5.707 19.095 12.511 27.875 19.973 3.951 2.634 7.243 6.146 10.974 9.219 3.292 2.634 6.146 5.706 9.657 8.121-.219-1.098-.219-2.634-1.317-3.732-2.194-2.633-5.267-4.609-7.681-7.023l-17.559-14.047c-9.877-7.243-20.193-14.486-31.606-19.095-8.78-4.39-19.095-6.365-28.753-4.171Zm-63.87 2.415c-.658.658-.439 1.756-.439 2.634 1.317-.878 2.634-1.537 3.731-2.634.878-.878 1.976-1.976 1.098-3.073-1.537.878-3.073 1.756-4.39 3.073Zm155.615-1.976c.439 1.098.659 2.634 1.756 3.512l3.731 1.756c-.658-2.853-2.853-4.609-5.487-5.268Zm-7.462 2.634c.878 2.853 3.511 4.39 6.145 5.926-1.097-2.853-3.073-5.487-6.145-5.926Zm-82.746 2.634c-10.536 2.634-19.535 8.999-28.533 14.925-3.951 3.073-8.341 5.926-12.292 9.438l-10.754 8.34c-7.024 6.365-14.706 12.072-21.51 18.437-3.292 2.634-6.584 5.268-9.438 8.341-1.317 1.097-1.097 2.853-1.097 4.609l12.949-11.414c3.293-3.511 7.243-6.145 10.755-9.657l10.316-8.779c4.39-4.171 9.657-7.902 14.486-11.853l8.121-6.145c8.56-5.926 17.339-11.852 27.436-14.706 2.853-.878 5.706-.439 8.779-.658 4.17 0 8.121 1.975 12.072 3.073 3.072.878 6.145 2.634 8.999 4.17 8.56 4.39 16.242 10.316 24.143 16.242 3.731 2.414 6.585 5.926 10.316 8.779 6.365 5.487 12.51 11.194 18.656 17.12 1.975 1.975 4.17 4.17 6.804 5.487-.439-1.536-.658-3.073-1.756-4.17l-5.267-5.048c-3.293-3.512-7.463-6.365-10.975-9.657-3.95-3.951-8.56-7.463-12.949-11.194-8.78-6.804-17.779-13.608-27.655-18.656-3.951-1.756-7.682-3.951-11.633-5.268-3.292-1.098-6.804-1.756-10.316-2.634-3.292-.658-6.585-.219-9.657.878Zm75.722-.439c.439 1.097.439 2.634 1.536 3.292 1.098 1.098 2.634 1.976 3.951 2.854-.439-1.098-.658-2.415-1.536-3.512-1.098-1.098-2.634-1.756-3.951-2.634Zm-163.297 6.804c2.853-1.317 6.804-2.853 7.024-6.584-3.073 1.097-6.585 2.853-7.024 6.584Zm8.121 2.414c3.073-1.536 6.146-3.511 7.243-7.243-3.073 1.537-6.804 3.512-7.243 7.243Zm181.295-5.926c.439 3.512 3.731 5.487 6.804 6.804-.659-1.317-1.098-2.853-2.195-3.95-1.317-1.098-2.853-1.976-4.609-2.854Zm-172.296 5.048-.439 2.415c2.634-1.098 5.707-2.853 5.926-6.146-1.975 1.098-4.17 1.976-5.487 3.731Zm53.554 6.366c-8.56 5.267-16.461 11.632-24.143 17.778-3.731 3.073-7.243 6.584-11.194 9.657l-10.535 9.219c-7.682 6.804-15.145 13.827-23.046 20.192-1.975 1.537-2.853 3.951-2.634 6.365 1.317-.658 2.634-1.536 3.731-2.634 4.171-3.95 8.56-7.462 12.511-11.413l15.803-14.705c4.17-3.732 7.901-7.682 12.291-10.975 5.487-5.267 11.413-9.876 17.12-14.486 3.292-2.633 6.585-4.828 10.096-7.023 6.365-4.39 13.389-8.121 21.29-9.438 4.829-.658 9.658.878 14.267 2.414 4.17 1.317 7.901 3.512 11.633 5.488 7.023 4.17 13.608 8.779 19.973 14.266l12.071 10.096c4.171 3.951 7.902 8.341 12.072 12.072l11.413 11.413c3.293 3.073 5.926 6.585 9.438 8.999-.658-2.414-1.097-5.267-3.073-7.243-10.315-9.877-20.631-19.973-31.386-29.411l-7.901-6.584c-4.39-3.512-8.999-6.585-13.608-9.877-4.171-2.854-8.56-5.487-12.95-7.682-5.707-3.073-11.852-4.829-18.217-5.487-9.219-.659-17.34 4.389-25.022 8.999Zm110.84-9.219c.659 3.292 3.293 5.487 6.146 6.365.219-3.512-3.512-5.048-6.146-6.365Zm-7.243 2.415c-.219 3.292 3.293 4.828 5.707 6.365 0-3.293-3.073-5.268-5.707-6.365Zm-186.782 5.706c-.658.659-1.975 2.414-.439 3.073 3.073-1.756 6.365-3.951 7.243-7.463-2.633.439-4.828 2.415-6.804 4.39Zm179.1-3.073c.659 3.073 3.293 4.829 5.926 5.926-.439-3.072-3.072-5.267-5.926-5.926Zm-166.369 1.756c-2.854 1.537-5.707 3.731-6.146 7.024 3.292-1.537 6.804-3.732 8.121-7.463-.659 0-1.317 0-1.975.439Zm86.038.659c-5.707 1.975-10.316 5.267-15.364 8.34-4.17 3.073-8.78 5.926-12.73 9.657-8.341 6.146-16.023 13.389-23.705 20.632-4.389 4.17-9.218 8.121-13.608 12.511-7.023 6.145-13.608 12.73-20.851 18.437-1.536 1.316-3.292 2.633-3.951 4.389-.658 1.317-.439 2.634-.658 3.731 5.926-2.853 10.096-7.901 14.925-12.071l13.608-12.95 10.755-10.316c8.121-7.901 15.803-16.022 24.802-23.265 3.072-2.195 5.706-5.048 8.998-7.024 2.854-1.536 5.268-3.95 8.341-5.487 3.073-1.975 6.365-3.731 9.877-5.048 5.048-1.536 10.535-1.097 15.803 0 7.243 2.414 13.827 6.146 19.973 10.316l12.949 10.096 14.486 13.828c8.78 8.56 16.901 17.778 25.68 26.557 3.073 3.073 6.146 6.366 9.438 9.219 0-1.317.22-2.634-.219-3.951-.659-1.317-1.756-2.195-2.634-3.292-3.292-2.853-6.146-5.926-9.219-8.999-4.609-4.39-8.779-8.999-13.388-13.169-7.024-6.585-13.389-13.608-21.071-19.754-3.292-3.073-7.023-5.487-10.535-8.56-8.34-6.145-17.559-11.852-27.875-14.705-4.609-.878-9.438-1.098-13.827.878Zm122.911 7.023c-.219-4.17-4.389-5.926-7.243-7.901 0 3.95 3.732 6.584 7.243 7.901Zm-206.316 1.098c3.073-1.537 7.024-3.732 7.243-7.463-3.292 1.537-7.023 3.512-7.243 7.463Zm191.172-6.365c0 3.511 3.512 5.267 5.926 7.243.659-.878.659-1.756 0-2.415-1.317-2.414-3.731-3.512-5.926-4.828Zm-182.612 7.901c2.195-1.097 4.39-2.414 5.926-4.39l.22-2.414c-2.634 1.756-6.585 3.292-6.146 6.804Zm80.771-5.268-7.024 2.195c-9.657 4.39-17.997 11.413-26.118 18.218l-13.609 12.291c-4.17 3.511-7.681 7.462-11.632 10.974l-12.511 12.072-9.438 9.218c-5.267 4.609-10.535 9.218-16.461 12.95 0 1.317.439 3.072 1.975 2.633 3.073-.439 5.487-2.414 7.902-4.17 12.73-11.632 24.363-24.363 36.654-36.434 2.634-2.634 4.828-5.487 7.682-7.902 3.292-3.073 6.365-6.584 10.096-9.657 3.951-3.073 7.463-6.804 11.633-9.657 5.706-4.61 12.291-8.341 19.095-10.536 3.731-1.317 7.682-.219 11.413 1.098 5.487 1.756 10.755 4.389 15.364 7.901 2.634 1.756 5.487 3.512 7.682 5.707 5.048 4.17 10.096 8.56 14.486 13.169l7.463 7.682c3.731 3.951 7.462 7.682 10.974 11.852 3.512 3.512 6.804 7.243 9.877 10.974 5.267 5.268 9.877 11.194 15.803 15.584.878.878 2.195.658 3.073.878 0-1.098.219-2.195-.22-3.073-1.317-1.537-3.292-2.634-5.048-4.17-6.585-6.365-12.73-13.169-19.095-19.754l-8.999-9.657c-5.268-5.487-10.755-10.536-16.242-15.803-5.048-4.17-9.877-8.78-15.364-12.511-5.926-3.951-12.072-8.779-19.315-10.535-3.292-.659-6.584-1.976-10.096-1.537Zm94.379-.439c.219 1.098-.22 2.634.658 3.512 1.536 1.537 3.512 2.853 5.268 4.17.658-3.95-3.512-5.706-5.926-7.682Zm-213.999 7.243c-.878.878-1.097 2.195-1.097 3.293 3.731-1.537 7.901-3.951 8.779-8.341-2.853 1.098-5.706 2.854-7.682 5.048Zm206.536-4.609.219 2.854c1.098 1.536 3.073 2.633 4.61 3.511 0-1.097.219-2.414-.439-3.073-1.317-1.536-2.854-2.414-4.39-3.292Zm-199.293 9.658c2.415.219 4.39-1.976 6.146-3.293 1.536-1.097 2.195-2.853 2.414-4.609-3.731 1.537-7.243 3.951-8.56 7.902Zm191.172-7.463c.22 1.536.659 3.292 2.195 4.39.878.658 2.195 1.975 3.512 1.317-.439-3.073-3.293-4.609-5.707-5.707Zm43.678.22c.658 4.17 4.17 7.023 7.901 8.121-.878-3.951-4.609-6.366-7.901-8.121Zm-223.656 5.267c-1.536 1.098-2.195 2.854-1.975 4.829 2.414-1.756 4.828-3.292 6.804-5.487.878-.878.878-2.195.878-3.293-1.976 1.098-3.951 2.195-5.707 3.951Zm216.413.22c1.755 2.195 4.17 3.95 6.584 5.267-.219-1.097 0-2.633-.878-3.511-1.756-1.976-4.17-3.293-6.365-4.829.22.878 0 2.195.659 3.073Zm-9.658-1.976c.659 1.976.878 4.39 2.634 5.926l6.146 4.61c-.659-1.976-.878-4.171-2.634-5.488-1.756-1.975-4.17-3.292-6.146-5.048Zm-199.292 4.829c-.878.878-.878 1.975-.878 3.073 3.292-1.537 6.584-3.731 7.682-7.243l-.659-.659c-2.195 1.317-4.389 2.854-6.145 4.829Zm6.584 6.365c2.195-1.317 4.17-2.853 5.926-4.39 1.537-1.536 2.415-3.511 3.293-5.487-4.39 1.317-8.78 5.048-9.219 9.877Zm-45.433-3.951c-1.976 1.317-2.634 3.512-3.073 5.707a21.136 21.136 0 0 0 5.487-3.512c2.414-1.536 5.048-3.951 4.609-7.023-2.414 1.317-4.828 2.853-7.023 4.828Zm231.118-3.511c.439 3.731 3.511 6.365 6.804 7.682-.22-3.732-3.731-6.366-6.804-7.682Zm-7.902 1.975c-.219 3.073 2.415 5.048 4.39 6.804.658.658 1.536.658 2.414.878-.439-3.951-3.95-5.926-6.804-7.682Zm-215.534 4.829c-1.098 1.097-1.098 2.633-1.317 3.95 2.853-1.097 5.048-2.853 7.243-5.048 1.097-.878 1.097-2.195 1.097-3.512-2.634 1.098-5.048 2.634-7.023 4.61Zm260.309-4.171c.439 1.537.659 3.293 1.976 4.61 1.756 1.755 4.17 3.292 6.365 4.828-.439-1.756-.659-3.731-2.195-5.048-1.756-1.536-3.951-3.073-6.146-4.39Zm-52.896 1.317c.439 3.732 3.732 6.365 6.804 8.56 0-4.17-3.511-7.023-6.804-8.56Zm-198.195 4.61c-1.317 1.316-1.975 3.292-2.414 5.048 2.634-1.537 5.048-2.854 7.243-5.048 1.317-1.098 1.536-2.854 1.536-4.39-2.195 1.317-4.39 2.634-6.365 4.39Zm250.872 5.487c-.22-1.537-.439-3.073-1.756-4.171-1.756-1.755-3.951-3.292-6.146-4.828.439 4.389 4.39 7.243 7.902 8.999Zm-244.287 1.536c2.195-1.097 4.17-2.414 5.926-4.17 1.536-1.317 2.853-3.073 2.414-5.268-3.292 2.415-8.34 4.609-8.34 9.438Zm228.484-7.901c-.22 4.389 3.951 6.804 7.023 8.998 0-1.316.439-2.853-.439-3.95-1.975-1.976-4.389-3.512-6.584-5.048Zm-220.144 10.096c2.634-1.098 4.609-3.073 6.585-4.829 1.317-1.097 1.756-2.853 2.195-4.389-3.951 1.536-8.121 4.609-8.78 9.218Zm-45.872-4.829c-1.317 1.098-2.415 3.073-1.317 4.829 1.975-1.317 4.389-2.634 6.145-4.17 1.537-1.317 1.756-3.073 2.195-4.829-2.414 1.097-4.828 2.634-7.023 4.17Zm257.236-2.414c.659 1.536 1.098 3.292 2.415 4.39l5.926 4.609c-.659-2.415-1.317-4.609-3.292-6.146-1.317-1.317-2.854-3.073-5.049-2.853Zm-248.237 4.829c-1.976 1.536-2.634 3.731-2.854 5.926 2.195-1.317 4.609-2.634 6.585-4.171 1.975-1.536 3.292-3.95 3.073-6.365l-7.024 4.61h.22Zm45.653 4.17c2.633-1.317 5.048-3.073 7.023-5.268.878-1.097.659-2.634.659-3.731-3.512 1.975-7.244 4.609-7.682 8.999Zm196.219-2.854c1.756 1.976 3.951 3.512 6.365 4.39-.658-1.536-.878-3.512-2.194-4.609-1.537-1.536-3.293-2.634-5.049-3.951-.658 1.537 0 3.073.878 4.17Zm44.556-1.755c1.317 2.414 3.731 4.17 6.365 5.487l.658-.878c-.439-3.731-4.389-5.048-7.023-7.243-.439.878-.659 1.756 0 2.414v.22Zm-278.746 3.731c-1.537 1.536-2.195 3.512-1.756 5.487 2.414-1.536 5.048-3.073 7.243-5.048 1.536-1.537 1.756-3.731 2.414-5.487-2.853 1.317-5.707 2.853-7.901 5.267v-.219Zm224.314-4.609c.438 4.17 3.95 7.462 7.681 9.218-.219-1.097-.219-2.634-1.097-3.731-1.975-2.195-4.17-3.951-6.584-5.487Zm46.969 5.048c1.756 1.975 4.171 3.512 6.585 4.609-.22-4.39-4.39-6.585-7.682-8.56 0 1.317.219 2.853 1.097 3.951Zm-262.285 1.975c-1.536 1.098-1.975 3.292-1.975 5.268 3.731-2.415 8.78-4.829 8.78-9.877-2.415 1.317-4.61 2.853-6.805 4.609Zm207.853-4.609c.219 1.097-.219 2.634.658 3.512 1.756 2.195 3.951 4.17 6.366 5.487-.659-3.951-3.732-6.804-7.024-8.999Zm-246.482 4.829c-1.097 1.097-1.097 2.414-1.317 3.95 2.634-1.097 5.268-2.414 7.463-4.389.439-1.098 1.536-2.634.219-3.512-2.195 1.097-4.39 2.414-6.365 3.951Zm291.257-3.732c-.219 4.39 3.951 7.024 7.682 8.78l-.22-3.073c-1.975-2.414-4.828-4.17-7.462-5.707Zm-241.653 4.171c-2.415 1.536-4.829 3.95-4.39 7.023 2.853-1.756 5.707-3.731 7.902-6.365.877-1.097.658-2.414.877-3.731l-4.389 3.073Zm-35.118-1.317a27.881 27.881 0 0 0-5.926 3.95c-.878 1.098-1.756 2.634-.439 3.512 2.414-.878 4.829-2.195 6.585-4.17.658-.878 1.536-3.731-.22-3.292Zm304.426.219c.878 3.292 3.731 5.926 7.243 6.146V359.5c-2.414-1.536-4.39-3.951-7.243-3.951Zm-263.821 6.146c-1.098 1.097-1.317 2.634-1.317 4.17 2.634-1.317 4.829-3.073 6.804-5.048 1.317-1.317 1.536-3.073 1.975-4.609-3.072.878-5.267 3.072-7.462 5.487Zm228.923-2.634c1.975 2.195 4.609 3.951 7.243 5.487-.439-1.536-.878-3.292-1.975-4.609-1.537-1.756-3.512-3.073-5.488-4.17l.22 3.292Zm-8.779-1.317c.219 1.317-.22 2.634.658 3.731 1.536 2.195 3.731 3.732 5.926 5.268.439-.878.659-1.756.22-2.634-1.317-2.853-4.39-4.39-6.804-6.365Zm-259.432 7.243.878 1.097c2.634-1.316 5.707-2.853 7.023-5.706.659-.659 0-1.537-.219-2.414-2.853 1.975-6.804 3.292-7.682 7.023Zm48.067-1.317c-1.097 1.098-1.097 2.634-.878 4.17 2.195-1.317 4.171-3.072 6.146-5.048 1.097-1.097 1.536-3.073 1.975-4.609-2.853 1.317-5.267 3.073-7.243 5.487Zm-74.186-2.195v2.415c1.976-.22 3.951-.659 5.487-1.976.659-.878.659-2.195.659-3.292-2.195.439-4.17 1.536-6.146 2.853Zm321.985-2.634v3.073c1.756 1.317 3.731 2.415 5.926 3.293l-.219-2.854c-1.537-1.756-3.732-2.634-5.707-3.512Zm-286.209 6.146c-1.536 1.317-1.536 3.512-1.536 5.268 2.414-1.317 4.609-2.634 6.585-4.39 1.755-1.317 2.194-3.731 2.633-5.707-2.633 1.317-5.267 3.073-7.682 4.829Zm241.215-5.048c0 4.39 3.511 7.462 7.023 9.218 0-1.317.439-2.853-.439-3.95-1.975-1.976-4.389-3.732-6.584-5.268Zm62.553 1.317v2.195h3.512c-.878-1.098-1.976-2.195-3.512-2.195Zm-346.128 3.292 3.511.22v-2.415c-1.755 0-2.853.878-3.511 2.195Zm14.486.878.22 2.195c2.633-.439 5.706-1.317 6.584-4.17l-.878-1.317a15.804 15.804 0 0 0-5.926 3.292Zm36.215 2.634c-1.317 1.317-1.317 3.292-1.317 4.829 2.414-1.098 5.048-2.415 7.023-4.39 1.317-1.537 1.537-3.731 1.537-5.707-2.415 1.756-5.048 3.073-7.243 5.268Zm224.972-5.707c0 1.537-.219 3.293 1.098 4.609 1.975 1.976 3.95 3.951 6.365 5.707.219-4.829-4.171-7.901-7.463-10.316Zm44.556 0c-.22 3.512 3.292 5.048 5.926 6.146 1.317-.659.439-2.195 0-2.853-1.537-1.537-3.512-3.293-5.926-3.293Zm-260.749 8.341c-1.536 1.317-1.756 3.511-2.195 5.487 2.634-.878 4.61-2.634 6.804-4.39 1.976-1.536 2.634-4.39 3.073-6.804-2.634 1.756-5.267 3.512-7.682 5.707Zm207.633-5.926c.439 1.536.439 3.511 1.756 4.609a33.924 33.924 0 0 0 5.926 5.267c.22-4.609-3.731-7.901-7.682-9.876Zm45.434 3.292c1.536 1.756 3.511 3.292 5.926 3.731l-.22-3.073c-1.536-1.536-3.511-2.634-5.267-3.731-.439.878-.878 1.975-.439 3.073Zm-290.16 2.414c1.537 1.537 3.512.22 5.048-.658 1.317-.659 1.756-2.415 1.976-3.951-2.854.439-6.146 1.536-7.024 4.609Zm282.917 1.537c1.536 1.317 3.292 2.853 5.706 3.072-.219-4.17-4.389-5.926-7.023-8.121-1.098 1.756 0 3.732 1.317 5.049Zm24.802-4.39v3.073c1.097.219 2.194.439 3.292.219l-.22-1.975-3.072-1.317Zm-262.285 5.926c-1.317 1.097-.878 3.073-.878 4.609 2.414-1.317 4.828-3.073 6.804-5.267 1.097-1.317.878-3.073.658-4.39-2.195 1.536-4.389 3.073-6.584 5.048Zm-36.435-1.756c-.878.878-.658 1.975-.878 3.073 2.634.439 4.609-1.536 6.585-2.853v-3.293c-1.976.878-3.951 1.756-5.707 3.073Zm-15.583.22 3.731.219v-2.414c-1.537.439-2.853 1.097-3.731 2.195Zm280.063-1.976v3.731c1.536 1.976 3.951 3.293 6.145 4.61l.439-1.756c-.878-3.292-4.17-4.609-6.584-6.585Zm-221.022 8.999c-.439.878-.219 1.756 0 2.414 2.415-1.755 5.048-3.511 7.024-5.706 1.097-1.317 1.317-3.073 1.317-4.609-3.293 1.975-7.024 4.17-8.341 7.901Zm247.141-7.901.219 2.853c.658.658 1.975.878 2.853.878l1.098-1.537-4.17-2.194Zm-282.258 4.17c-1.098.878-.439 2.414 0 3.512 1.975-1.098 4.389-1.976 5.706-3.732.439-1.097.22-2.194.22-3.292-2.195.878-4.171 1.975-5.926 3.512Zm-15.803.878 3.95.219.22-2.853c-1.756 0-3.292 1.097-4.17 2.414v.22Zm264.479.878c1.537 1.756 3.512 3.731 6.146 3.95-.22-3.731-3.512-6.145-6.585-7.462-1.317.878-.219 2.414.439 3.512Zm-240.336 1.317c-1.317 1.097-.658 3.072-.878 4.609 1.975-1.098 4.17-1.976 5.926-3.512 1.317-1.097 1.537-3.073 1.537-4.829-2.415.439-4.61 1.976-6.585 3.732Zm265.358-1.756c1.097 1.317 2.414 1.536 3.95 1.536l.878-1.536-4.17-2.195-.658 2.195Zm-34.24-.878c-.439 4.17 3.512 6.804 6.585 8.999v-3.732c-1.756-2.194-3.951-3.95-6.585-5.267Zm-247.36 3.731c1.317.439 3.292 1.536 4.39 0l-.878-2.414-3.512 2.414Zm239.02-1.975c-.659 4.828 3.731 7.901 7.023 10.535.439-1.536.658-3.073-.439-4.39-1.756-2.414-4.17-4.389-6.584-6.145Zm35.117 0 .22 3.731c1.536.658 3.292.878 4.609-.659l-4.829-3.072Zm-250.213 5.048c0 .878-.878 2.853.878 3.073 1.975-.878 3.731-2.195 5.268-3.732.658-1.097.219-2.414.439-3.731-2.415.878-5.049 2.195-6.585 4.39Zm-15.364 1.317h3.731l.439-2.854c-1.756 0-4.609.659-4.17 2.854Zm24.143 1.317c-1.097 1.317-1.536 3.072-.878 4.609 2.634-1.317 5.268-2.853 6.804-5.268.659-1.097.22-2.414.22-3.512-2.195 1.098-4.39 2.415-6.146 4.171Zm233.752-.439c1.537.658 3.073.219 4.609-.439-1.317-1.317-2.633-2.195-4.17-3.073-.658 1.097-.878 2.414-.439 3.512Zm-225.192 3.073c-1.317 1.316-1.536 3.292-.878 5.048 2.415-1.537 4.829-3.073 6.585-5.268.878-1.097.439-2.634.658-3.951-2.414 1.098-4.389 2.415-6.365 4.171Zm216.413-3.732c.219 1.537.219 3.732 1.756 4.609 1.317.22 2.414-.219 3.292-.658-1.098-1.975-2.853-3.292-5.048-3.951ZM129.4 386.936c.878.439 1.756 1.536 2.853 1.317 1.098-.22 1.537-1.317 2.195-1.756l-.658-1.756c-1.756 0-3.073.878-4.39 2.195Zm7.682 3.731 1.975 1.097c1.317.439 2.415-.439 3.512-.878l-.219-3.292c-1.756.878-3.512 1.756-5.268 3.073Zm228.045 1.756c1.317 0 3.292.219 3.951-1.317l-5.268-3.951c-1.317 1.975.22 3.731 1.317 5.268Zm-9.877-2.415c0 1.317-.219 2.854.22 4.171 1.097 1.097 2.634 1.755 3.951 2.194l1.536-2.194-5.707-4.171Zm-210.047 4.39c1.317 1.097 3.731 1.975 5.048.439.22-1.317.659-2.853-.439-3.512-1.756.878-3.073 1.976-4.609 3.073Zm8.121 3.512 2.195 2.195c1.097-.659 2.414-1.098 3.073-2.195.439-.878.219-1.976.439-2.853-2.415-.22-4.171 1.536-5.707 3.072v-.219Z"/></svg>