<svg xmlns="http://www.w3.org/2000/svg" fill="none" viewBox="0 0 512 512"><g clip-path="url(#clip0_4190_3040)"><rect width="512" height="512" fill="#000" rx="256"/><path fill="#fff" d="M270.121 287.526s-.515 10.948-18.535 10.948c-18.019 0-17.877-10.304-17.877-10.304 9.125-.644 12.729-3.091 17.877-10.304.635.636 1.231 1.25 1.804 1.84 4.534 4.673 7.588 7.82 16.731 7.82Zm39.128-69.422c1.537 1.03-.372 6.568-4.491 6.568-3.089 0-3.604-5.667-2.057-6.697 1.547-1.03 5.012-.902 6.548.129Zm-129.227 0c1.545 1.718-2.202 6.826-5.663 6.182-3.461-.644-4.119-5.667-2.574-7.213 1.544-1.545 6.693-.687 8.237 1.031Zm-1.917-79.984s-3.601 4.121-5.661 6.182c-.332.333-.625.666-.895.973-1.398 1.593-2.18 2.483-4.77-.973-7.208-9.273-19.192-35.935-19.192-47.784 0-5.152 3.749-6.826 7.867-2.705 4.71 3.927 7.623 8.453 12.39 15.859 1.487 2.31 3.154 4.9 5.113 7.84.712 1.069 1.375 2.059 1.99 2.977 5.076 7.581 6.916 10.331 6.478 12.648-.25 1.318-1.237 2.496-2.787 4.345l-.004.005-.024.029-.013.016-.492.588Zm163.21-46.368c1.802 3.607-4.117 17.002-8.238 26.275a719.318 719.318 0 0 0-2.921 6.666l-.002.005c-1.561 3.602-2.342 5.404-4.802 10.331-.465.932-.879 1.813-1.261 2.624-2.569 5.465-3.656 7.778-9.036 1.497a332.086 332.086 0 0 0-5.543-6.079l-.001-.001c-3.327-3.577-3.865-4.155-3.206-5.254 4.636-7.728 24.715-32.46 28.317-36.064 2.059-2.06 5.663-2.06 6.693 0Z"/><path fill="#31C77F" d="M394.342 437.963c2.946-1.417 18.534-9.274 18.534-9.274 21.208-12.732 47.268-26.437 65.521-35.111 23.961-35.669 40.032-77.082 45.715-121.739a575.445 575.445 0 0 0-175.077 84.723c-7.208 7.213-7.208 8.243-6.178 28.851l.05.598c.981 11.8 1.064 12.797 6.128 12.797 13.386 0 21.624 9.274 18.907 23.828 10.256.882 12.489 6.197 14.211 10.295v.002c.29.69.565 1.345.862 1.939 3.089 5.152 8.38 4.508 11.327 3.091Z"/><path fill="#31C77F" d="M353.154 408.082c7.208 2.06 8.238 6.182 4.119 16.486-3.089 5.152-3.089 7.213-2.06 8.243 2.06 1.03 4.119 1.03 7.208-1.03 4.119-2.061 10.297 1.03 13.386 7.212 3.089 7.213-4.119 18.547-17.505 26.79-12.356 8.244-55.086 21.123-86.492 25.76 2.574-5.152-2.059-11.849-2.059-11.849 29.206-17.338 44.132-32.294 58.052-46.242l1.668-1.671c11.327-11.335 14.416-15.456 14.416-20.608 0-4.122 3.089-5.152 9.267-3.091Zm-202.333 19.062s8.752 8.243 18.534 17.001c9.782 8.759 36.925 29.882 66.786 37.094 0 0-5.519 8.243 1.689 15.456-73.623 12.88-103.629-17.903-103.629-31.813 0-3.481 3.374-5.41 5.806-4.251 2.431 1.16 5.52 1.16 6.55 0 1.03-1.159 1.687-4.121-4.491-10.303-9.267-10.304-10.297-19.578-1.03-26.79 2.534-2.536 4.03-1.259 7.328 1.557.723.617 1.532 1.308 2.457 2.049Zm108.631 54.095c5.148 2.061 7.207 8.243 4.118 11.335-5.148 6.182-18.534 5.151-20.594-2.061-1.029-7.213 8.238-12.365 16.476-9.274Z"/><path fill="#2E2E2E" fill-rule="evenodd" d="M348.005 54.658c-8.237 2.061-20.593 12.365-35.009 28.851a3425.116 3425.116 0 0 1-20.594 23.699c-6.178 7.213-6.691 7.42-12.357 5.152-15.445-6.182-47.366-5.152-67.96 1.031-.388.111-.753.219-1.098.321-1.6.474-2.771.821-3.916.751-3.129-.192-6.067-3.5-17.029-15.841l-.61-.687c-30.891-36.064-39.128-43.277-51.485-43.277-12.356 0-16.475 9.274-11.326 35.034 4.118 25.759 17.504 60.793 27.801 75.218.394.493.751.929 1.071 1.321l.001.001c1.294 1.584 2.002 2.452 2.244 3.435.293 1.189-.098 2.547-.962 5.55l-.144.503-.087.304-.063.22c-4.119 18.547-5.149 26.79-4.119 41.216 1.176 13.891 1.028 24.9.93 32.207v.002a352.354 352.354 0 0 0-.043 4.498c0 3.037.306 8.062.612 13.102v.001l.001.001c.382 6.289.766 12.601.559 15.103-.372 4.508-3.089 17.517-3.089 17.517s-2.716 19.191-2.059 30.912c.657 11.72 0 29.881-2.059 41.215-1.03 10.304-1.03 14.426-1.03 19.577 0 11.85-1.03 18.032-5.149 20.093-15.445 5.152-19.564 18.032-14.415 34.518 2.059 6.182 2.66 9.402 0 13.395-2.06 3.091-2.717 5.281-2.717 10.433 0 5.667 5.433 13.18 7.865 16.357 1.215 1.587-.069 5.703-1.658 9.424 2.693 1.17 5.408 2.3 8.143 3.388 1.99-4.391 2.741-3.827 5.871-1.478 10.297 6.183 27.802 10.304 49.426 10.304l35.01-3.091 16.992-2.061c9.267 3.092 15.445 2.061 21.109-2.576 44.791-6.182 62.809-11.849 88.551-23.183 4.54-1.947 6.22-2.668 7.357-2.162.668.297 1.148 1.017 1.911 2.162l5.742 11.935a284.146 284.146 0 0 0 8.334-4.371l-.688-1.377-.002-.005-7.208-15.456 3.089-3.091 6.178-8.243c4.119-7.213 7.208-8.243 20.594-12.365 11.327-3.091 23.087-12.955 34.889-19.577 11.801-6.622 32.569-16.486 32.569-16.486 3.62-4.72 7.095-9.557 10.419-14.504-18.253 8.674-44.313 22.379-65.521 35.111 0 0-15.588 7.857-18.534 9.274-2.947 1.417-8.238 2.061-11.327-3.091-.297-.594-.572-1.249-.862-1.939v-.002c-1.722-4.098-3.955-9.413-14.211-10.295 2.717-14.554-5.521-23.828-18.907-23.828-5.064 0-5.147-.997-6.128-12.797l-.05-.598c-1.03-20.608-1.03-21.638 6.178-28.851a575.445 575.445 0 0 1 175.077-84.723c.472-3.711.872-7.444 1.2-11.198a538.747 538.747 0 0 0-28 10.399 797.787 797.787 0 0 0-118.416 53.58c-8.237 4.122-23.683 15.456-33.98 24.73l-.157.105-.058.039-.061.042a37.67 37.67 0 0 1-.142.097l-.002.002c-.714.488-1.237.845-1.62.732-1.049-.312-1.049-4.158-1.049-18.534 0-20.676-.94-26.299-2.82-37.546l-.269-1.609c-1.344-6.052-.934-12.544-.486-19.618.238-3.764.486-7.693.486-11.809 0-3.912-.056-8.386-.113-12.903v-.006c-.116-9.16-.233-18.494.113-23.67l.035-.512.025-.37c.58-8.433 2.059-29.932-6.381-55.145 22.654-36.063 41.331-99.561 30.004-110.896-3.089-3.09-9.267-4.121-14.416-3.09Zm-16.475 78.31c-8.237 16.486-8.237 16.486-6.178 20.608.551.919.971 1.71 1.313 2.352.639 1.202 1.003 1.888 1.437 1.935.577.063 1.277-1.006 2.908-3.494l.001-.002.131-.199.19-.29.198-.302c25.341-38.541 27.734-67.597 28.294-74.395l.025-.308c.055-.663.122-1.342.19-2.033.567-5.758 1.208-12.264-4.309-15.484-6.178-3.607-19.051 6.697-37.586 27.305a16948.795 16948.795 0 0 1-26.772 32.973s-1.544 2.06-3.087 2.576c-1.542.515-3.604-.516-5.663-1.546-7.356-3.68-13.07-4.247-19.709-4.906h-.002c-.795-.079-1.604-.159-2.43-.246-19.564-2.061-40.158 0-53.544 7.213-4.119 2.061-6.178 1.03-8.238-3.091a1004.62 1004.62 0 0 1-21.623-27.82c-22.654-25.76-33.98-35.034-41.188-31.943-3.089 2.06-4.119 4.122-3.089 16.486 1.029 20.608 8.237 44.307 23.683 72.128a337.263 337.263 0 0 1 2.092 3.398l.003.005.003.004c3.103 5.086 3.378 5.538 5.11 3.805 2.901-2.903 2.467-3.802-.494-9.944a247.026 247.026 0 0 1-2.595-5.512 267.846 267.846 0 0 1-14.416-32.972c-5.149-16.486-1.03-25.76 8.237-21.638 4.119 2.06 16.476 16.486 26.773 32.972 4.118 7.213 5.148 8.243 7.207 8.243 6.179 0 5.149 2.061-1.029 9.274-13.386 15.456-21.624 34.003-24.713 55.641-3.034 13.156-2.095 13.391 5.745 15.347l.433.109 33.98 7.212c6.181 1.031 6.975 2.576 6.695 4.122l-.012.067c-.274 1.526-.564 3.136-4.623 1.994-3.248-.914-3.613.09-4.381 2.2-.206.566-.441 1.212-.768 1.921-6.178 13.395-27.944 14.426-38.611-2.447 0 0-1.03 21.767-.517 31.427.052.988.115 2.107.184 3.329.607 10.728 1.664 29.433-.184 37.758-2.06 15.456-3.09 28.851-2.06 38.124 1.03 8.243 1.172 17.903-2.059 35.033-3.232 17.131-5.806 43.792 0 50.489 5.806 6.698 46.194 42.246 76.197 52.55l.15.064.122.053.204.087.574.249.389.169.059.026.028.012.007.003c2.824 1.226 4.081 1.771 5.259 1.635.943-.108 1.836-.654 3.444-1.636.331-.202.692-.423 1.091-.662 5.149-2.061 10.297-2.061 15.446 0l3.089 1.031 2.059-1.031s36.269-24.085 48.253-36.579c11.984-12.493 22.796-26.275 21.766-31.427l-2.059-72.127s1.402-23.055-1.03-31.942c-2.431-8.887-3.606-16.615-2.059-35.548 1.547-18.934 1.547-48.944 1.547-48.944-13.386 27.821-35.01 17.517-38.099 2.061 0 0-3.087.515-5.149.515-2.061 0-2.059-3.606.513-4.636l33.98-9.274c4.152-1.038 6.211-1.554 7.101-2.864.875-1.29.618-3.351.107-7.44-4.119-24.729-14.416-45.337-27.802-59.762-4.119-4.122-4.119-5.152-1.03-9.274 6.599-11.066 14.098-19.495 22.928-29.42l1.785-2.007c8.238-9.273 12.356-10.819 15.446-9.788 9.267 4.121 6.178 16.486-9.268 48.428Zm-159.086 11.334c2.06-2.061 5.661-6.182 5.661-6.182l.492-.588.013-.016.024-.029.004-.005c1.55-1.849 2.537-3.027 2.787-4.345.438-2.317-1.402-5.067-6.478-12.648-.615-.918-1.278-1.908-1.99-2.977-1.959-2.94-3.626-5.53-5.113-7.84-4.767-7.406-7.68-11.932-12.39-15.859-4.118-4.121-7.867-2.447-7.867 2.705 0 11.849 11.984 38.511 19.192 47.784 2.59 3.456 3.372 2.566 4.77.973.27-.307.563-.64.895-.973Zm160.633-26.275c4.121-9.273 10.04-22.668 8.238-26.275-1.03-2.06-4.634-2.06-6.693 0-3.602 3.605-23.681 28.336-28.317 36.064-.659 1.099-.121 1.677 3.206 5.254l.001.001a332.086 332.086 0 0 1 5.543 6.079c5.38 6.281 6.467 3.968 9.036-1.497.382-.811.796-1.692 1.261-2.624 2.46-4.927 3.241-6.729 4.802-10.331l.002-.005a719.318 719.318 0 0 1 2.921-6.666ZM174.359 224.286c3.461.644 7.208-4.464 5.663-6.182-1.544-1.718-6.693-2.576-8.237-1.031-1.545 1.546-.887 6.569 2.574 7.213Zm130.399.386c4.119 0 6.028-5.538 4.491-6.568-1.536-1.031-5.001-1.159-6.548-.129-1.547 1.03-1.032 6.697 2.057 6.697Zm52.515 199.896c4.119-10.304 3.089-14.426-4.119-16.486-6.178-2.061-9.267-1.031-9.267 3.091 0 5.152-3.089 9.273-14.416 20.608l-1.668 1.671c-13.92 13.948-28.846 28.904-58.052 46.242 0 0 4.633 6.697 2.059 11.849 31.406-4.637 74.136-17.516 86.492-25.76 13.386-8.243 20.594-19.577 17.505-26.79-3.089-6.182-9.267-9.273-13.386-7.212-3.089 2.06-5.148 2.06-7.208 1.03-1.029-1.03-1.029-3.091 2.06-8.243Zm-187.918 19.577a1127.35 1127.35 0 0 1-18.534-17.001c-.925-.741-1.734-1.432-2.457-2.049-3.298-2.816-4.794-4.093-7.328-1.557-9.267 7.212-8.237 16.486 1.03 26.79 6.178 6.182 5.521 9.144 4.491 10.303-1.03 1.16-4.119 1.16-6.55 0-2.432-1.159-5.806.77-5.806 4.251 0 13.91 30.006 44.693 103.629 31.813-7.208-7.213-1.689-15.456-1.689-15.456-29.861-7.212-57.004-28.335-66.786-37.094Zm94.215 48.429c3.089-3.092 1.03-9.274-4.118-11.335-8.238-3.091-17.505 2.061-16.476 9.274 2.06 7.212 15.446 8.243 20.594 2.061Z" clip-rule="evenodd"/><path fill="#2E2E2E" fill-rule="evenodd" d="M250.042 227.892c-15.446-8.758-31.406 4.122-22.139 26.275-10.297 10.304-19.564 22.669-.515 33.359 0 0 1.03 17.646 24.198 17.646s25.228-19.063 25.228-19.063c24.198-18.547-6.036-33.487-6.036-33.487 16.333-28.851-8.895-34.518-20.736-24.73Zm20.736 29.753c-6.178-3.091-6.178-4.122-3.089-10.304 9.203-18.418-10.954-24.085-17.132-11.721-10.812-10.532-21.996-1.674-17.878 13.782 1.12 3.361 1.631 4.895 1.202 6.091-.359 1.005-1.381 1.772-3.261 3.182-12.356 9.274-10.297 23.699 3.089 23.699 5.149 0 9.267-2.061 14.416-9.273 1.625-2.169 2.395-3.196 3.21-3.233.734-.033 1.504.737 2.968 2.202 9.267 10.304 13.386 12.365 19.564 9.274 10.297-5.152 9.268-17.517-3.089-23.699Zm-19.192 40.829c18.02 0 18.535-10.948 18.535-10.948-9.143 0-12.197-3.147-16.731-7.82-.573-.59-1.169-1.204-1.804-1.84-5.148 7.213-8.752 9.66-17.877 10.304 0 0-.142 10.304 17.877 10.304Z" clip-rule="evenodd"/><path fill="#2E2E2E" d="M258.422 239.098c-2.432 1.932-3.089 9.273-1.03 10.304 2.06 1.03 4.349-2.834 5.006-6.054s-1.544-6.182-3.976-4.25Zm-19.564 2.061c-2.06 2.06-.143 7.856 2.946 9.402 3.089 1.546 4.634 0 4.261-3.22-.372-3.22-5.148-8.243-7.207-6.182Z"/><path fill="#fff" fill-rule="evenodd" d="M178.105 138.12s-3.601 4.121-5.661 6.182c-.332.333-.625.666-.895.973-1.398 1.593-2.18 2.483-4.77-.973-7.208-9.273-19.192-35.935-19.192-47.784 0-5.152 3.749-6.826 7.867-2.705 4.71 3.927 7.623 8.453 12.39 15.859 1.487 2.31 3.154 4.9 5.113 7.84.712 1.069 1.375 2.059 1.99 2.977 5.076 7.581 6.916 10.331 6.478 12.648-.25 1.318-1.237 2.496-2.787 4.345l-.004.005-.024.029-.013.016-.492.588Zm163.21-46.368c1.802 3.607-4.117 17.002-8.238 26.275a719.318 719.318 0 0 0-2.921 6.666l-.002.005c-1.561 3.602-2.342 5.404-4.802 10.331-.465.932-.879 1.813-1.261 2.624-2.569 5.465-3.656 7.778-9.036 1.497a332.086 332.086 0 0 0-5.543-6.079l-.001-.001c-3.327-3.577-3.865-4.155-3.206-5.254 4.636-7.728 24.715-32.46 28.317-36.064 2.059-2.06 5.663-2.06 6.693 0ZM180.022 218.104c1.545 1.718-2.202 6.826-5.663 6.182-3.461-.644-4.119-5.667-2.574-7.213 1.544-1.545 6.693-.687 8.237 1.031Zm129.227 0c1.537 1.03-.372 6.568-4.491 6.568-3.089 0-3.604-5.667-2.057-6.697 1.547-1.03 5.012-.902 6.548.129Zm-57.663 80.37c18.02 0 18.535-10.948 18.535-10.948-9.143 0-12.197-3.147-16.731-7.82-.573-.59-1.169-1.204-1.804-1.84-5.148 7.213-8.752 9.66-17.877 10.304 0 0-.142 10.304 17.877 10.304Z" clip-rule="evenodd"/><path fill="#fff" fill-rule="evenodd" d="M267.689 247.341c-3.089 6.182-3.089 7.213 3.089 10.304 12.357 6.182 13.386 18.547 3.089 23.699-6.178 3.091-10.297 1.03-19.564-9.274-1.464-1.465-2.234-2.235-2.968-2.202-.815.037-1.585 1.064-3.21 3.233-5.149 7.212-9.267 9.273-14.416 9.273-13.386 0-15.445-14.425-3.089-23.699 1.88-1.41 2.902-2.177 3.261-3.182.429-1.196-.082-2.73-1.202-6.091-4.118-15.456 7.066-24.314 17.878-13.782 6.178-12.364 26.335-6.697 17.132 11.721Zm-10.297 2.061c-2.059-1.031-1.402-8.372 1.03-10.304 2.432-1.932 4.633 1.03 3.976 4.25-.657 3.22-2.946 7.084-5.006 6.054Zm-15.588 1.159c-3.089-1.546-5.006-7.342-2.946-9.402 2.059-2.061 6.835 2.962 7.207 6.182.373 3.22-1.172 4.766-4.261 3.22Z" clip-rule="evenodd"/><path fill="#fff" fill-rule="evenodd" d="M325.352 153.576c-2.059-4.122-2.059-4.122 6.178-20.608 15.446-31.942 18.535-44.307 9.268-48.428-3.09-1.03-7.208.515-15.446 9.788l-1.785 2.008c-8.83 9.924-16.329 18.353-22.928 29.419-3.089 4.122-3.089 5.152 1.03 9.274 13.386 14.425 23.683 35.033 27.802 59.762.511 4.089.768 6.15-.107 7.44-.89 1.31-2.949 1.826-7.101 2.864l-33.98 9.274c-2.572 1.03-2.574 4.636-.513 4.636 2.062 0 5.149-.515 5.149-.515 3.089 15.456 24.713 25.76 38.099-2.061 0 0 0 30.01-1.547 48.944-1.547 18.933-.372 26.661 2.059 35.548 2.432 8.887 1.03 31.942 1.03 31.942l2.059 72.127c1.03 5.152-9.782 18.934-21.766 31.427-11.984 12.494-48.253 36.579-48.253 36.579l-2.059 1.031-3.089-1.031c-5.149-2.061-10.297-2.061-15.446 0-.399.239-.76.46-1.091.662-1.608.982-2.501 1.528-3.444 1.636-1.178.136-2.435-.409-5.259-1.635l-.007-.003-.028-.012-.059-.026-.389-.169-.574-.249-.204-.087-.122-.053-.15-.064c-30.003-10.304-70.391-45.852-76.197-52.55-5.806-6.697-3.232-33.358 0-50.489 3.231-17.13 3.089-26.79 2.059-35.033-1.03-9.273 0-22.668 2.06-38.124 1.848-8.325.791-27.03.184-37.758a910.069 910.069 0 0 1-.184-3.329c-.513-9.66.517-31.427.517-31.427 10.667 16.873 32.433 15.842 38.611 2.447.327-.709.562-1.355.768-1.921.768-2.11 1.133-3.114 4.381-2.2 4.059 1.142 4.349-.468 4.623-1.994l.012-.067c.28-1.546-.514-3.091-6.695-4.122l-33.98-7.212-.433-.109c-7.84-1.956-8.779-2.191-5.745-15.347 3.089-21.638 11.327-40.185 24.713-55.641 6.178-7.213 7.208-9.274 1.029-9.274-2.059 0-3.089-1.03-7.207-8.243-10.297-16.486-22.654-30.911-26.773-32.972-9.267-4.122-13.386 5.152-8.237 21.638a267.846 267.846 0 0 0 14.416 32.972 247.026 247.026 0 0 0 2.595 5.512c2.961 6.142 3.395 7.041.494 9.944-1.732 1.733-2.007 1.281-5.11-3.805l-.003-.004-.003-.005a337.263 337.263 0 0 0-2.092-3.398c-15.446-27.821-22.654-51.52-23.683-72.128-1.03-12.364 0-14.425 3.089-16.486 7.208-3.091 18.534 6.182 41.188 31.942a1004.62 1004.62 0 0 0 21.623 27.821c2.06 4.121 4.119 5.152 8.238 3.091 13.386-7.213 33.98-9.274 53.544-7.213.826.087 1.635.167 2.43.246h.002c6.639.659 12.353 1.226 19.709 4.906 2.059 1.03 4.121 2.061 5.663 1.546 1.543-.516 3.087-2.576 3.087-2.576 8.938-10.98 17.862-21.971 26.772-32.973 18.535-20.608 31.408-30.912 37.586-27.305 5.517 3.22 4.876 9.726 4.309 15.484a134.3 134.3 0 0 0-.19 2.032l-.025.309c-.56 6.798-2.953 35.854-28.294 74.395l-.198.302-.19.29-.131.199-.001.002c-1.631 2.488-2.331 3.557-2.908 3.494-.434-.047-.798-.733-1.437-1.935-.342-.642-.762-1.433-1.313-2.352Zm-97.449 100.591c-9.267-22.153 6.693-35.033 22.139-26.275 11.841-9.788 37.069-4.121 20.736 24.73 0 0 30.234 14.94 6.036 33.487 0 0-2.06 19.063-25.228 19.063-23.168 0-24.198-17.646-24.198-17.646-19.049-10.69-9.782-23.055.515-33.359Z" clip-rule="evenodd"/><path fill="#fff" d="M193.551 508.029c-21.624 0-39.129-4.121-49.426-10.304-3.13-2.349-3.881-2.913-5.871 1.478 32.39 12.882 67.716 19.965 104.696 19.965 45.768 0 89.003-10.849 127.273-30.115l-5.742-11.935c-.763-1.145-1.243-1.865-1.911-2.162-1.137-.506-2.817.215-7.357 2.162-25.742 11.334-43.76 17.001-88.551 23.183-5.664 4.637-11.842 5.668-21.109 2.576l-16.992 2.061-35.01 3.091Z"/></g><defs><clipPath id="clip0_4190_3040"><rect width="512" height="512" fill="#fff" rx="256"/></clipPath></defs></svg>