<svg xmlns="http://www.w3.org/2000/svg" fill="none" viewBox="0 0 512 512"><path fill="#000" d="M256 512c141.385 0 256-114.615 256-256S397.385 0 256 0 0 114.615 0 256s114.615 256 256 256Z"/><path fill="#fff" d="M408.504 369.183C363.313 413.46 324.108 435 260.062 435 152.921 435 79 360.208 79 254.902 79 146.903 162.797 76 260.96 76c57.162 0 111.63 25.13 149.04 68.509l-45.789 43.978c-30.826-32.909-64.644-49.961-104.747-49.961-64.345 0-116.718 49.362-116.718 116.675 0 70.603 50.578 117.572 118.214 117.572 42.498 0 70.929-17.052 103.251-49.362l44.293 45.772Z"/></svg>