<svg xmlns="http://www.w3.org/2000/svg" fill="none" viewBox="0 0 512 512"><path fill="#000" fill-rule="evenodd" d="M512 256c0 141.385-114.615 256-256 256S0 397.385 0 256 114.615 0 256 0s256 114.615 256 256Z" clip-rule="evenodd"/><path fill="url(#paint0_linear_3706_1408)" d="m189.337 98.658-37.053 37.052-80.47 79.818c-32.809 33.461-19.914 67.576 2.938 90.427l65.943 65.617c5.876 5.876 28.728 29.871 47.009 11.1 10.61-10.61 8.162-26.933 2.286-33.462l-75.737-75.084c-13.548-13.548-7.019-25.79 6.529-38.685l64.474-64.637 40.48 40.48c14.038 14.037 31.666 19.424 46.357 4.733 14.69-14.69 5.876-28.727-8.162-42.928l-44.561-44.561-30.033-29.87Z"/><path fill="url(#paint1_linear_3706_1408)" d="M192.928 101.597c-10.61-10.61-25.79-16.486-40.48-1.796-14.691 14.691-7.019 31.177 2.285 40.481"/><path fill="url(#paint2_linear_3706_1408)" d="m323.182 412.055 37.053-37.052 80.47-80.471c33.462-33.461 20.567-67.576-2.938-90.427l-65.78-65.128c-5.876-5.876-28.728-29.87-47.009-11.099-10.61 10.61-8.162 26.932-2.285 33.461l75.737 75.084c13.547 13.548 7.018 25.79-6.529 38.685l-64.638 64.638-40.48-40.48c-14.038-14.038-31.666-19.424-46.357-4.734-14.69 14.69-5.876 28.728 8.162 42.929l44.561 44.56 30.033 30.034Z"/><path fill="url(#paint3_linear_3706_1408)" d="M319.755 409.116c10.61 10.609 25.79 16.975 40.48 2.285 14.69-14.69 7.019-31.176-2.285-40.48"/><defs><linearGradient id="paint0_linear_3706_1408" x1="70.736" x2="434.782" y1="175.765" y2="410.633" gradientUnits="userSpaceOnUse"><stop stop-color="#29C1FC"/><stop offset=".502" stop-color="#AB00FF"/><stop offset=".508" stop-color="#AC03FC"/><stop offset=".641" stop-color="#C840B8"/><stop offset=".76" stop-color="#DE7082"/><stop offset=".863" stop-color="#EE935B"/><stop offset=".945" stop-color="#F7A844"/><stop offset=".996" stop-color="#FBB03B"/></linearGradient><linearGradient id="paint1_linear_3706_1408" x1="126.304" x2="490.349" y1="89.637" y2="324.505" gradientUnits="userSpaceOnUse"><stop stop-color="#29C1FC"/><stop offset=".502" stop-color="#AB00FF"/><stop offset=".508" stop-color="#AC03FC"/><stop offset=".641" stop-color="#C840B8"/><stop offset=".76" stop-color="#DE7082"/><stop offset=".863" stop-color="#EE935B"/><stop offset=".945" stop-color="#F7A844"/><stop offset=".996" stop-color="#FBB03B"/></linearGradient><linearGradient id="paint2_linear_3706_1408" x1="107.299" x2="471.344" y1="119.095" y2="353.963" gradientUnits="userSpaceOnUse"><stop stop-color="#29C1FC"/><stop offset=".502" stop-color="#AB00FF"/><stop offset=".508" stop-color="#AC03FC"/><stop offset=".641" stop-color="#C840B8"/><stop offset=".76" stop-color="#DE7082"/><stop offset=".863" stop-color="#EE935B"/><stop offset=".945" stop-color="#F7A844"/><stop offset=".996" stop-color="#FBB03B"/></linearGradient><linearGradient id="paint3_linear_3706_1408" x1="51.581" x2="415.626" y1="205.457" y2="440.325" gradientUnits="userSpaceOnUse"><stop stop-color="#29C1FC"/><stop offset=".502" stop-color="#AB00FF"/><stop offset=".508" stop-color="#AC03FC"/><stop offset=".641" stop-color="#C840B8"/><stop offset=".76" stop-color="#DE7082"/><stop offset=".863" stop-color="#EE935B"/><stop offset=".945" stop-color="#F7A844"/><stop offset=".996" stop-color="#FBB03B"/></linearGradient></defs></svg>