<svg xmlns="http://www.w3.org/2000/svg" fill="none" viewBox="0 0 512 512"><path fill="#000" d="M256 512c141.385 0 256-114.615 256-256S397.385 0 256 0 0 114.615 0 256s114.615 256 256 256Z"/><path fill="#CAE9FF" d="M442.724 139.058c-3.417-24.066-80.469-9.939-101.067-6.163-1.638.298-2.921.537-3.782.678-.595.099-1.158-.397-1.034-.984 1.183-5.816 2.044-21.563-9.31-24.975-7.266-2.181-12.057 1.842-14.896 5.907-1.274 1.818-5.081 9.691-7.447 15.161-1.275 2.949-4.246 7.27-7.506 7.187a140.322 140.322 0 0 0-41.178-6.279c-13.746 0-27.499 2.091-41.187 6.279-3.26.083-6.231-4.238-7.506-7.187-2.366-5.47-6.173-13.343-7.448-15.161-2.838-4.065-7.621-8.088-14.887-5.907-11.362 3.412-10.51 19.159-9.318 24.975.124.579-.439 1.083-1.034.992-1.26-.221-2.518-.45-3.774-.686-20.589-3.776-97.65-17.903-101.084 6.172-3.509 24.645 28.236 58.642 61.453 73.918 1.755.81 3.31 1.917 4.874 3.032 1.291.926 2.582 1.843 3.989 2.595 5.23 2.792 8.35 9.765 7.58 16.061v88.071c26.2-18.094 64.697-29.355 108.342-29.355 43.636 0 82.141 11.261 108.332 29.355v-88.071c-.761-6.296 2.351-13.269 7.581-16.061 1.407-.744 2.706-1.678 3.997-2.595 1.564-1.115 3.12-2.23 4.866-3.032 33.217-15.276 64.97-49.273 61.453-73.918l-.009-.009Zm-196.879 92.426c-1.366 7.196-13.522 11.707-23.469 14.226a101.253 101.253 0 0 1-30.536 2.76 26.89 26.89 0 0 1-8.441-1.76 26.863 26.863 0 0 1-12.107-9.716c-4.303-5.998-5.967-12.723-4.758-19.382 1.183-6.634 5.081-12.376 11.254-16.606a27.138 27.138 0 0 1 14.648-4.99c2.689-.1 5.47.297 8.54 1.181a100.782 100.782 0 0 1 27.722 12.839c8.524 5.742 18.396 14.078 17.163 21.34l-.016.108Zm95.829 5.585a26.81 26.81 0 0 1-12.049 9.641 27.007 27.007 0 0 1-8.441 1.76 101.096 101.096 0 0 1-30.503-2.751c-9.988-2.528-22.137-7.039-23.502-14.227-1.242-7.378 8.623-15.714 17.113-21.431a100.41 100.41 0 0 1 27.756-12.864 26.577 26.577 0 0 1 8.524-1.181 27.215 27.215 0 0 1 14.73 5.056c6.115 4.164 10.013 9.914 11.188 16.573 1.208 6.634-.455 13.351-4.816 19.415v.009Z"/><path fill="#FFCF56" d="M222.235 219.637a88.829 88.829 0 0 0-24.495-11.336 16.335 16.335 0 0 0-4.899-.743 15.742 15.742 0 0 0-8.441 2.941c-3.732 2.553-5.826 5.527-6.471 9.146-.662 3.635.265 7.113 2.822 10.682 1.82 2.619 4.212 4.544 6.935 5.635 1.299.521 2.888.826 4.841.95a89.607 89.607 0 0 0 27.027-2.429c7.961-2.016 12.016-4.048 13.911-5.263-1.357-1.768-4.469-5.031-11.23-9.583Zm106.447-9.08a15.726 15.726 0 0 0-8.524-2.991 16.492 16.492 0 0 0-4.883.727 89.004 89.004 0 0 0-24.536 11.368c-6.744 4.536-9.848 7.783-11.205 9.559 1.903 1.215 5.958 3.247 13.952 5.271 8.739 2.157 17.826 2.975 26.978 2.421 1.97-.116 3.559-.429 4.849-.95 2.731-1.082 5.106-3.016 6.886-5.568 2.606-3.636 3.533-7.114 2.879-10.716-.645-3.652-2.73-6.626-6.396-9.121Z"/><path fill="#CAE9FF" d="M256.504 308.046c-71.284 0-129.063 32.668-129.063 72.977C127.433 421.324 185.22 454 256.504 454c71.284 0 129.062-32.676 129.062-72.977 0-40.309-57.787-72.977-129.062-72.977Zm-61.089 80.438c-11.048 5.287-21.326 0-23.304-12.005-2.16-12.855 15.484-43.416 19.547-20.307 2.317 13.219 9.227 8.303 14.73 4.378 4.121-2.933 7.456-5.312 7.506.876a31.643 31.643 0 0 1-5.466 16.098 31.711 31.711 0 0 1-13.013 10.96Zm145.481-12.005c-1.986 12.005-12.264 17.292-23.312 12.005a31.698 31.698 0 0 1-13.011-10.96 31.626 31.626 0 0 1-5.459-16.098c.041-6.188 3.376-3.809 7.497-.876 5.503 3.916 12.413 8.841 14.73-4.378 4.055-23.109 21.715 7.452 19.555 20.307Z"/></svg>