<svg xmlns="http://www.w3.org/2000/svg" fill="none" viewBox="0 0 512 512"><path fill="#000" d="M256 512c141.385 0 256-114.615 256-256S397.385 0 256 0 0 114.615 0 256s114.615 256 256 256Z"/><path fill="#FE815F" fill-rule="evenodd" d="M399.771 321.2c0 54.013-44.443 97.8-99.267 97.8H113v-65.2h187.504c18.275 0 33.089-14.596 33.089-32.6s-14.814-32.6-33.089-32.6h-66.178v-65.2h66.178c18.275 0 33.089-14.596 33.089-32.6s-14.814-32.6-33.089-32.6H113V93h187.504c54.824 0 99.267 43.787 99.267 97.8 0 25.048-9.558 47.897-25.276 65.2 15.718 17.303 25.276 40.152 25.276 65.2Z" clip-rule="evenodd" opacity=".8"/><path fill="#000" d="M113 353.8h161.047C239.838 393.391 185.374 419 124.03 419c-3.703 0-7.38-.093-11.03-.277V353.8Zm194.783-65.2h-62.427v-65.2h62.427a143.127 143.127 0 0 1 3.751 32.6c0 11.164-1.291 22.067-3.751 32.6Zm-33.736-130.4H113V93.277c3.65-.184 7.327-.277 11.03-.277 61.344 0 115.808 25.609 150.017 65.2Z" opacity=".12"/><path fill="#FF6238" d="M113 93c91.373 0 165.445 72.978 165.445 163S204.373 419 113 419v-65.2c54.824 0 99.267-43.787 99.267-97.8S167.824 158.2 113 158.2V93Z"/></svg>