<svg xmlns="http://www.w3.org/2000/svg" fill="none" viewBox="0 0 512 512"><path fill="#000" d="M256 512c141.385 0 256-114.615 256-256S397.385 0 256 0 0 114.615 0 256s114.615 256 256 256Z"/><path fill="#fff" d="M112 87h84.475l.074 254.095c0 .126.063.189.188.189h41.836a.244.244 0 0 0 .245-.244v-84.219c0-.072.028-.141.078-.192a.264.264 0 0 1 .188-.079l41.81.004a.29.29 0 0 0 .288-.289V129.551a.183.183 0 0 0-.054-.131.182.182 0 0 0-.131-.055h-40.241a.164.164 0 0 1-.163-.163L240.66 87h82.725l.051 84.527c0 .136.068.204.204.204h41.821a.28.28 0 0 0 .281-.282L365.787 87H408v84.66l-42.065.048a.212.212 0 0 0-.147.06.2.2 0 0 0-.06.144v84.456c0 .05-.02.097-.055.131a.182.182 0 0 1-.13.055H281.46a.276.276 0 0 0-.278.278v84.267c0 .123.062.185.185.185h83.898a.186.186 0 0 1 .185.186v84.363a.156.156 0 0 1-.013.064.15.15 0 0 1-.036.054.15.15 0 0 1-.054.036.155.155 0 0 1-.063.013L112 425.948V87Z"/></svg>