<svg xmlns="http://www.w3.org/2000/svg" fill="none" viewBox="0 0 512 512"><path fill="#000" d="M256 512c141.385 0 256-114.615 256-256S397.385 0 256 0 0 114.615 0 256s114.615 256 256 256Z"/><path fill="#4BFF00" d="M252.529 73.004a183.5 183.5 0 0 0-101.959 30.913 183.501 183.501 0 0 0-27.826 282.335 183.518 183.518 0 0 0 93.961 50.223 183.509 183.509 0 0 0 106.03-10.448 183.501 183.501 0 0 0 82.347-67.6 183.511 183.511 0 0 0 30.034-119.935 183.436 183.436 0 0 0-52.856-111.753 183.47 183.47 0 0 0-129.731-53.735Zm0 326.921a143.292 143.292 0 0 1-97.779-38.43 143.248 143.248 0 0 1-45.283-94.791 143.293 143.293 0 0 1 31.546-100.215 143.296 143.296 0 0 1 91.427-51.755v87.715a57.76 57.76 0 0 0-30.069 25.508 57.765 57.765 0 0 0-6.703 38.864 57.72 57.72 0 0 0 19.797 34.098 57.765 57.765 0 0 0 37.064 13.461 57.765 57.765 0 0 0 37.064-13.461 57.72 57.72 0 0 0 19.796-34.096 57.775 57.775 0 0 0-36.775-64.37v-87.852a143.296 143.296 0 0 1 91.427 51.755 143.293 143.293 0 0 1 31.546 100.215 143.248 143.248 0 0 1-45.283 94.791 143.295 143.295 0 0 1-97.779 38.426v.133l.004.004Z"/></svg>