<svg xmlns="http://www.w3.org/2000/svg" fill="none" viewBox="0 0 512 512"><path fill="#000" d="M256 512c141.385 0 256-114.615 256-256S397.385 0 256 0 0 114.615 0 256s114.615 256 256 256Z"/><path fill="#37BEC1" d="M296.066 80.634 98.868 168.432c-18.152 8.082-26.316 29.349-18.234 47.502 8.082 18.152 29.349 26.316 47.501 18.234l197.199-87.798c18.152-8.082 26.316-29.35 18.234-47.502-8.082-18.152-29.349-26.316-47.502-18.234Z"/><path fill="#FBB144" d="M241.367 223.132 109.9 281.665c-18.153 8.082-26.317 29.349-18.235 47.502 8.082 18.152 29.35 26.316 47.502 18.234l131.467-58.533c18.153-8.082 26.317-29.349 18.234-47.502-8.082-18.152-29.349-26.316-47.501-18.234Z"/><path fill="#E4615E" d="M383.866 277.832 186.667 365.63c-18.152 8.082-26.316 29.35-18.234 47.502 8.082 18.153 29.349 26.316 47.502 18.234l197.198-87.798c18.153-8.082 26.316-29.349 18.234-47.502-8.082-18.152-29.349-26.316-47.501-18.234Z"/></svg>