<svg xmlns="http://www.w3.org/2000/svg" fill="none" viewBox="0 0 512 512"><path fill="#000" d="M256 512c141.385 0 256-114.615 256-256S397.385 0 256 0 0 114.615 0 256s114.615 256 256 256Z"/><path fill="#fff" fill-rule="evenodd" d="M255.502 423.112c-54.899 0-101.673-34.616-119.505-83.122 19.844 46.223 68.71 79.39 119.505 79.39 50.791 0 100.027-32.795 119.498-79.39-17.826 48.506-64.601 83.122-119.498 83.122Zm122.625-174.466c-5.935-14.268.167-30.505 13.647-37.527-12.622-19.407-29.02-35.453-47.789-47.568-5.182 9.862-15.365 15.752-26.081 15.839 24.837 22.293 58.628 58.829 58.628 113.651 0 66.551-54.189 120.501-121.03 120.501-66.848 0-121.034-53.95-121.034-120.501 0-54.822 33.795-91.358 58.629-113.651-10.72-.087-20.903-5.985-26.087-15.845a161.155 161.155 0 0 0-47.773 47.576c13.476 7.023 19.569 23.264 13.636 37.525-5.932 14.266-21.772 21.447-36.291 16.935-4.674 21.773-4.871 44.662-.016 67.27 14.521-4.522 30.372 2.669 36.307 16.936 5.936 14.27-.165 30.502-13.647 37.528 12.625 19.408 29.019 35.454 47.787 47.564 7.056-13.416 23.366-19.485 37.694-13.579 14.325 5.91 21.54 21.681 17.008 36.135 21.87 4.653 44.864 4.848 67.571.014-4.544-14.454 2.68-30.237 17.009-36.147 14.333-5.91 30.64.167 37.695 13.589a161.194 161.194 0 0 0 47.774-47.576c-13.474-7.028-19.572-23.267-13.637-37.528 5.932-14.264 21.775-21.448 36.291-16.936 4.674-21.77 4.872-44.663.016-67.27-14.525 4.522-30.373-2.667-36.307-16.935Z" clip-rule="evenodd"/><path fill="#F17300" fill-rule="evenodd" d="M208.877 135.659c-16.033 28.142-6.374 48.974-.471 70.261 22.273 80.304-68.642 100.634-33.301 15.622-13.991 22.839-26.39 40.276-26.39 80.191 0 40.43 21.385 75.672 53.056 94.199-7.14-44.319 32.45-51.499 51.018-85.062 33.694-60.918-60.248-113.904-43.912-175.211Z" clip-rule="evenodd"/><path fill="#E03597" fill-rule="evenodd" d="M276.152 168.311c-28.06-31.047-51.459-61.148-21.846-116.311-20.111 18.419-58.593 88.444-26.608 135.042 28.365 41.327 52.789 76.664 37.887 118.39-13.165 36.852-62.184 54.363-49.919 94.539C282.78 422.2 352.999 371.216 352.999 297.92c0-66.271-62.816-114.083-76.847-129.609Z" clip-rule="evenodd"/><path fill="#F17300" fill-rule="evenodd" d="M292.462 79.886c-40.439 43.798-22.411 54.677 13.909 92.955 3.467-34.378-39.702-53.575-13.909-92.955Z" clip-rule="evenodd"/></svg>