<svg xmlns="http://www.w3.org/2000/svg" fill="none" viewBox="0 0 512 512"><path fill="#000" d="M256 512c141.385 0 256-114.615 256-256S397.385 0 256 0 0 114.615 0 256s114.615 256 256 256Z"/><path fill="#FFD600" d="M379.717 216.617c-34.815-93.84-139.164-141.773-233.001-106.957-9.162 3.376-17.842 7.619-26.039 12.345 41.758-9.548 81.106 1.35 81.203 1.543 0 0-78.889 20.446-126.434 44.075-2.218.772-8.68 3.955-12.73 5.98-2.026 2.797-3.762 5.69-5.594 8.583 3.568-1.35 9.837-3.568 18.034-5.69 42.435-10.898 81.011-12.441 104.06-9.066-25.75 8.391-75.513 27.198-93.644 34.721-21.892 8.969-41.277 17.359-47.642 20.06-.578 1.736-1.06 3.472-1.543 5.208 5.883-1.736 10.609-2.797 16.877-4.533 19.77-5.401 75.417-18.228 109.171-14.467 0 0-28.45 10.898-58.153 23.822-27.775 12.056-65.87 28.644-75.031 32.694-.193 1.93-.483 3.859-.579 5.787 7.522-2.507 15.238-5.111 22.857-7.233 41.47-11.477 79.37-16.685 105.313-17.553-26.714 13.599-57.19 29.512-94.609 45.329a719.912 719.912 0 0 1-32.21 12.73c.192 1.64.385 3.279.674 4.919 10.512-3.665 20.542-6.654 31.344-9.837 28.064-8.197 74.066-16.588 97.597-17.746 0 0-83.228 44.751-120.743 59.12.29.869.482 1.64.771 2.508.29.869.675 1.543 1.061 2.412 37.708-13.599 130.099-33.853 130.099-33.853-18.517 14.467-58.926 38.095-85.543 50.151-10.223 4.629-19.77 8.873-30.186 12.924a61.036 61.036 0 0 0 2.7 4.147c10.512-3.954 22.182-7.909 32.694-11.381 38.576-12.441 72.137-20.252 101.262-27.293-20.252 16.299-52.463 37.035-91.329 55.359-7.137 3.376-14.659 6.462-22.085 9.452 1.35 1.446 2.797 2.7 4.147 4.05 9.548-2.893 49.185-15.141 78.214-24.111 30.957-9.548 59.6-19.867 59.6-19.867-23.146 24.786-73.68 51.501-92.198 60.18-5.882 2.797-10.222 5.113-15.816 7.523 1.543.965 2.99 2.026 4.533 2.99 6.654-2.025 26.811-8.39 49.184-15.817 18.71-6.172 68.667-24.303 93.644-34.72-15.237 17.554-45.423 41.568-84.771 60.953-7.619 3.762-13.791 6.172-17.359 7.426 3.279.965 6.558 2.026 9.933 2.894 4.34-1.061 11.38-2.894 13.502-3.761 51.499-13.117 124.602-48.994 124.602-48.994 0 .192-22.664 34.238-60.565 54.105 9.355-1.832 18.613-4.244 27.775-7.619 93.933-34.816 141.864-139.169 107.049-233.106l-.096-.386Z"/></svg>