<svg xmlns="http://www.w3.org/2000/svg" fill="none" viewBox="0 0 512 512"><path fill="#000" d="M256 512c141.385 0 256-114.615 256-256S397.385 0 256 0 0 114.615 0 256s114.615 256 256 256Z"/><path fill="#fff" fill-rule="evenodd" d="M255.759 210.594h.317c1.744 9.533.983 21.131.603 31.585-.365 10.518-1.522 19.78-8.798 24.594-4.058 2.669-11.143 3.686-16.976 4.481-18.435 2.542-38.185 4.877-57.269 6.831-13.188 1.319-26.567 1.971-39.358 3.4-13.109 1.446-25.314 3.496-34.127 8.643a19.472 19.472 0 0 0-4.946 4.64c-1.189 1.509-1.95 3.257-3.392 4.496-1.014-4.639-.792-9.898-.792-15.157 0-15.173-.032-32.157 7.418-40.244 6.087-6.005 14.931-8.563 25.631-10.041 16.944-2.383 35.997-3.527 53.877-5.418 7.228-.778 14.741-.921 22.223-1.557 7.244-.603 14.424-1.843 21.32-2.478 6.863-.636 13.885-2.018 19.908-3.861 5.944-1.827 10.256-5.64 13.886-9.755 0-.143.507-.477.475-.159Zm0 91.736h.317c1.744 9.517.983 21.131.603 31.585-.365 10.518-1.522 19.78-8.798 24.594-4.058 2.685-11.143 3.686-16.976 4.481-18.435 2.542-38.185 4.877-57.269 6.816-13.188 1.334-26.567 1.986-39.358 3.4-13.109 1.461-25.314 3.495-34.127 8.659a19.468 19.468 0 0 0-4.946 4.639c-1.189 1.509-1.95 3.257-3.392 4.496-1.014-4.639-.792-9.898-.792-15.157 0-15.173-.032-32.157 7.418-40.244 6.087-6.005 14.931-8.563 25.631-10.057 16.944-2.351 35.997-3.511 53.877-5.402 7.228-.778 14.741-.921 22.223-1.557 7.244-.603 14.424-1.843 21.32-2.478 6.863-.636 13.885-2.018 19.908-3.861 5.944-1.827 10.256-5.64 13.886-9.755 0-.143.507-.477.475-.159Zm163.804-181.2h.317c1.775 9.533.998 21.131.634 31.585-.381 10.518-1.538 19.796-8.813 24.594-4.058 2.685-11.144 3.686-16.977 4.48-18.434 2.543-38.185 4.878-57.269 6.832-13.188 1.335-26.566 1.986-39.374 3.4-13.093 1.446-25.298 3.496-34.111 8.659a19.497 19.497 0 0 0-4.946 4.623c-1.188 1.51-1.949 3.273-3.392 4.497-1.014-4.64-.792-9.883-.792-15.157 0-15.173-.032-32.157 7.418-40.228 6.087-6.022 14.932-8.58 25.631-10.057 16.945-2.383 35.997-3.527 53.877-5.418 7.212-.763 14.742-.921 22.223-1.557 7.244-.604 14.425-1.843 21.304-2.463a102.026 102.026 0 0 0 19.925-3.876c5.944-1.827 10.255-5.64 13.885-9.755 0-.127.491-.477.46-.159Z" clip-rule="evenodd"/><path fill="#fff" fill-rule="evenodd" d="M419.555 213.146h.319c1.784 9.538 1.004 21.163.637 31.64-.382 10.542-1.545 19.841-8.856 24.65-4.078 2.707-11.199 3.694-17.061 4.507-18.526 2.547-38.358 4.888-57.553 6.831-13.253 1.337-26.697 1.99-39.552 3.407-13.158 1.465-25.423 3.504-34.296 8.679a19.55 19.55 0 0 0-4.97 4.65c-1.195 1.512-1.959 3.264-3.409 4.49-1.003-4.65-.796-9.905-.796-15.191 0-15.207-.032-32.214 7.455-40.319 6.132-6.035 15.005-8.599 25.757-10.079 17.045-2.373 36.176-3.52 54.144-5.415 7.264-.78 14.815-.923 22.333-1.56 7.28-.621 14.512-1.847 21.425-2.484a102.44 102.44 0 0 0 20.007-3.886c5.974-1.831 10.307-5.652 13.97-9.777 0-.127.494-.477.462-.159l-.016.016Z" clip-rule="evenodd"/></svg>