<svg xmlns="http://www.w3.org/2000/svg" fill="none" viewBox="0 0 512 512"><path fill="#000" d="M256 512c141.385 0 256-114.615 256-256S397.385 0 256 0 0 114.615 0 256s114.615 256 256 256Z"/><path fill="#fff" d="M279.831 160.225c22.449 0 40.102 13.146 51.021 23.639 6.836 6.296 13.775 5.192 22.551-3.976l17.858-19.773c7.652-7.953 7.652-14.139 0-23.75-11.532-11.598-26.94-19.994-45.409-24.965l8.674-41.313c.509-2.099-.919-4.087-2.959-4.087h-15.409c-2.041 0-3.775 1.436-4.388 3.424l-7.856 37.779c-6.532-.773-13.369-1.215-20.41-1.326l7.449-35.79c.511-2.099-.918-4.087-2.959-4.087h-15.409c-2.04 0-3.775 1.436-4.388 3.424l-7.856 37.779c-52.859 7.07-87.144 42.197-87.144 91.685 0 19.883 7.04 37.226 21.02 51.475 14.083 14.471 32.348 22.094 45.103 26.623a348.141 348.141 0 0 0 13.061 4.417c20.612 6.739 36.226 15.244 36.226 32.367 0 17.783-16.939 33.028-41.124 33.028-23.673 0-50.203-15.465-64.082-30.046-1.836-1.768-4.796-4.197-8.674-4.197-4.081 0-8.673 2.651-13.673 7.842l-19.082 20.657c-7.551 8.174-7.959 16.459-1.123 24.191 13.572 16.46 34.083 28.5 58.267 34.797l-8.164 39.214c-.816 2.872 1.327 5.744 4.184 5.744h13.061c2.449 0 4.593-1.657 5.204-4.198l7.653-36.784c6.225.663 12.551 1.104 18.981 1.104h1.53l-7.142 34.134c-.818 2.872 1.325 5.744 4.183 5.744h13.06c2.45 0 4.593-1.657 5.206-4.198l7.857-37.447c22.347-3.313 42.448-11.046 57.96-22.645 23.367-17.564 37.04-48.161 37.04-79.423 0-48.051-39.591-63.295-74.489-77.325-1.837-.772-3.674-1.435-5.511-2.209l-2.245-.883c-16.53-6.738-34.287-14.251-34.287-32.034-.305-16.349 15.205-28.611 36.634-28.611Z"/></svg>