<svg width="447" height="318" viewBox="0 0 447 318" fill="none" xmlns="http://www.w3.org/2000/svg">
<path fill-rule="evenodd" clip-rule="evenodd" d="M94.0108 156.849V229.547C69.1591 239.775 29.0885 251.495 0 258.961C12.1917 280.491 27.4123 300.079 45.0829 317.148C107.736 298.75 173.36 269.937 223.444 236.862C273.414 269.861 338.377 298.63 400.872 317.035C418.584 299.904 433.83 280.24 446.027 258.626C418.136 251.451 379.691 240.4 356.218 230.91V158.126C375.992 165.461 396.339 171.689 417.177 176.734L433.031 111.557C362.322 94.4401 298.194 61.7906 244.854 17.7176L223.411 0L201.969 17.7176C148.628 61.7906 84.5005 94.4401 13.7913 111.557L29.6463 176.734C51.6819 171.4 73.1705 164.74 94.0108 156.849ZM203.701 168.926C190.251 178.662 176.078 187.865 161.243 196.48V125.95C182.975 114.082 203.745 100.778 223.411 86.1721C244.102 101.539 266.016 115.466 288.986 127.794V198.404C272.935 189.239 257.642 179.391 243.187 168.926L223.444 154.634L203.701 168.926Z" fill="black"/>
</svg>
