<svg xmlns="http://www.w3.org/2000/svg" fill="none" viewBox="0 0 512 512"><path fill="#000" d="M256 0c141.312 0 256 114.688 256 256S397.312 512 256 512 0 397.312 0 256 114.688 0 256 0Z"/><mask id="mask0_4193_4432" width="279" height="215" x="116" y="236" maskUnits="userSpaceOnUse" style="mask-type:luminance"><path fill="#fff" d="m255.795 301.466-114.073-65.127-3.072 4.711c-35.021 53.862-27.239 124.313 18.841 169.574 54.272 53.248 142.336 53.248 196.608 0 46.08-45.261 53.863-115.712 18.842-169.574l-3.072-4.711-114.074 65.127Z"/></mask><g mask="url(#mask0_4193_4432)"><path fill="url(#paint0_radial_4193_4432)" d="M255.795 454.656c76.8 0 139.059-62.259 139.059-139.059s-62.259-139.059-139.059-139.059-139.059 62.259-139.059 139.059 62.259 139.059 139.059 139.059Z"/></g><path fill="url(#paint1_radial_4193_4432)" d="m255.795 156.057-98.304 56.116 98.304 56.115 98.304-56.115-98.304-56.116Z"/><path fill="url(#paint2_radial_4193_4432)" d="m256 170.599-114.278 65.74 114.073 65.127 113.869-65.127L256 170.599Z"/><path fill="url(#paint3_linear_4193_4432)" d="m255.795 61.44-98.304 150.733 98.304 56.115V61.44Z"/><path fill="url(#paint4_linear_4193_4432)" d="m255.795 268.288 98.304-56.115L255.795 61.44v206.848Z"/><defs><radialGradient id="paint0_radial_4193_4432" cx="0" cy="0" r="1" gradientTransform="matrix(0 200.192 -579.278 0 256 248.32)" gradientUnits="userSpaceOnUse"><stop stop-color="#006BFF"/><stop offset="1" stop-color="#59EFF9"/></radialGradient><radialGradient id="paint1_radial_4193_4432" cx="0" cy="0" r="1" gradientTransform="translate(255.795 212.173) scale(4.9152)" gradientUnits="userSpaceOnUse"><stop stop-color="#06F" stop-opacity="0"/><stop offset="1" stop-color="#00C2FF" stop-opacity=".4"/></radialGradient><radialGradient id="paint2_radial_4193_4432" cx="0" cy="0" r="1" gradientTransform="matrix(.30728 54.27193 -94.52998 .53522 255.693 236.032)" gradientUnits="userSpaceOnUse"><stop stop-color="#56EAFA"/><stop offset="1" stop-color="#5294EC"/></radialGradient><linearGradient id="paint3_linear_4193_4432" x1="256" x2="179.712" y1="81.408" y2="246.272" gradientUnits="userSpaceOnUse"><stop stop-color="#FDB03D"/><stop offset=".495" stop-color="#CBDC65"/><stop offset="1" stop-color="#5EC9A7"/></linearGradient><linearGradient id="paint4_linear_4193_4432" x1="256" x2="314.368" y1="61.44" y2="204.288" gradientUnits="userSpaceOnUse"><stop stop-color="#FC725C"/><stop offset=".484" stop-color="#DC848C"/><stop offset="1" stop-color="#7189CA"/></linearGradient></defs></svg>