<svg xmlns="http://www.w3.org/2000/svg" fill="none" viewBox="0 0 512 512"><path fill="#000" d="M256 512c141.385 0 256-114.615 256-256S397.385 0 256 0 0 114.615 0 256s114.615 256 256 256Z"/><path fill="#A9D6FF" d="M125.054 325.086v92.563c0 5.698 4.837 8.063 6.342 8.601 1.505.645 6.557 2.042 11.072-2.151l79.223-75.899c7.31-9.46 9.997-15.373 9.997-15.373 4.3-8.708 4.3-17.093.108-25.479-6.235-12.471-22.144-25.156-46.115-37.197l-40.956 22.791c-12.147 6.881-19.671 19.028-19.671 32.144Z" opacity=".9"/><path fill="url(#paint0_linear_3534_286)" d="M84 119.224v97.077c0 12.149 8.17 22.899 19.779 26.34 39.558 11.395 108.462 35.906 125.123 71.921 2.15 4.73 3.44 9.353 3.87 14.191 11.072-20.104 16.125-43.218 13.76-66.654-3.225-33.22-20.854-63.429-48.373-82.672l-98.142-68.481a9.663 9.663 0 0 0-5.805-1.936c-1.72 0-3.225.323-4.837 1.183-3.225 1.828-5.375 5.16-5.375 9.031Z"/><path fill="#A9D6FF" d="M386.313 325.086v92.563c0 5.698-4.837 8.063-6.342 8.601-1.505.645-6.557 2.042-11.072-2.151L289.676 348.2c-7.31-9.46-9.997-15.373-9.997-15.373-4.3-8.708-4.3-17.093-.108-25.479 6.235-12.471 22.144-25.156 46.115-37.197l40.956 22.791c12.254 6.881 19.671 19.028 19.671 32.144Z" opacity=".9"/><path fill="url(#paint1_linear_3534_286)" d="M427.438 119.213v97.078c0 12.148-8.17 22.899-19.779 26.339-39.558 11.396-108.462 35.907-125.124 71.921-2.149 4.731-3.439 9.353-3.869 14.191-11.072-20.104-16.125-43.218-13.76-66.654 3.225-33.219 20.855-63.428 48.373-82.672l98.142-68.481a9.662 9.662 0 0 1 5.805-1.935c1.72 0 3.225.323 4.837 1.183 3.225 1.827 5.375 5.16 5.375 9.03Z"/><defs><linearGradient id="paint0_linear_3534_286" x1="252.336" x2="84" y1="327.341" y2="327.341" gradientUnits="userSpaceOnUse"><stop offset=".068" stop-color="#EFFDFF"/><stop offset="1" stop-color="#A9D6FF"/></linearGradient><linearGradient id="paint1_linear_3534_286" x1="264.791" x2="426.149" y1="327.33" y2="327.33" gradientUnits="userSpaceOnUse"><stop offset=".068" stop-color="#EFFDFF"/><stop offset="1" stop-color="#A9D6FF"/></linearGradient></defs></svg>