<svg xmlns="http://www.w3.org/2000/svg" fill="none" viewBox="0 0 512 512"><path fill="#000" fill-rule="evenodd" d="M512 256c0 141.385-114.615 256-256 256S0 397.385 0 256 114.615 0 256 0s256 114.615 256 256ZM183.764 66.56c-30.823 0-54.533 28.493-48.606 59.36l13.041 72.419c-46.235 20.183-80.615 55.799-80.615 99.725v27.306c0 36.803 23.71 67.67 56.905 87.852 34.38 21.37 79.429 33.242 130.406 33.242 50.977 0 96.027-11.872 130.407-33.242 34.38-20.182 58.09-51.049 58.09-87.852v-27.306c0-43.926-35.565-79.542-81.8-99.725l13.04-72.419c4.742-30.867-18.968-59.36-49.791-59.36-27.267 0-49.792 22.557-49.792 49.862v61.735c-7.273-1.187-12.189-1.491-20.073-1.517-8.346-.027-14.336.33-21.42 1.517v-61.735c0-27.305-22.525-49.862-49.792-49.862Z" clip-rule="evenodd"/><path fill="#FEDC90" d="M82.996 299.251v27.306c0 58.173 77.058 105.661 171.899 105.661S427.98 383.542 427.98 325.37v-26.119c0 58.173-77.058 105.661-171.899 105.661S82.996 357.424 82.996 299.251Z"/><path fill="#633001" fill-rule="evenodd" d="M135.158 125.92c-5.927-30.867 17.783-59.36 48.606-59.36 27.267 0 49.792 22.557 49.792 49.862v61.735c7.084-1.187 13.074-1.544 21.42-1.517 7.884.026 12.8.33 20.073 1.517v-61.735c0-27.305 22.525-49.862 49.792-49.862 30.823 0 54.533 28.493 49.791 59.36l-13.04 72.419c46.235 20.183 81.8 55.799 81.8 99.725v27.306c0 36.803-23.71 67.67-58.09 87.852-34.38 21.37-79.43 33.242-130.407 33.242-50.977 0-96.026-11.872-130.406-33.242-33.195-20.182-56.905-51.049-56.905-87.852v-27.306c0-43.926 34.38-79.542 80.615-99.725l-13.041-72.419Zm224.063-3.562-15.412 86.666c50.977 18.995 85.357 51.05 84.171 90.227v26.119c0 58.172-78.244 106.848-173.085 106.848-94.841 0-171.9-47.488-171.9-105.661v-27.306c0-37.99 34.381-71.232 84.172-90.227l-16.597-85.478c-4.742-21.37 11.855-41.552 33.194-41.552 18.969 0 34.38 15.433 34.38 34.428v78.356c11.855-1.188 23.711-2.375 36.751-2.375 11.855 0 23.71 1.187 35.566 2.375v-79.543c0-18.995 15.411-34.429 34.38-34.429 20.866 0 38.679 18.522 34.38 41.552Z" clip-rule="evenodd"/><path fill="#633001" d="M339.067 290.941c0 15.433-8.299 28.493-18.968 28.493-10.67 0-18.969-13.06-18.969-28.493 0-15.434 8.299-28.493 18.969-28.493 10.669 0 18.968 13.059 18.968 28.493Z"/><path fill="#D2884F" fill-rule="evenodd" d="M256.081 404.912c-94.841 0-173.085-47.488-173.085-105.661 0-37.99 34.38-71.232 84.171-90.227l-16.597-85.478c-4.742-21.37 11.855-41.552 33.194-41.552 18.969 0 34.38 15.433 34.38 34.428v78.356c11.855-1.188 23.711-2.375 36.751-2.375 11.855 0 23.71 1.187 35.566 2.375v-79.543c0-18.995 15.411-34.429 34.38-34.429 20.866 0 38.679 18.522 34.38 41.552l-15.412 86.666c50.977 18.995 85.357 51.05 84.171 90.227 0 58.173-77.058 105.661-171.899 105.661Zm82.986-113.971c0 15.433-8.299 28.493-18.968 28.493-10.67 0-18.969-13.06-18.969-28.493 0-15.434 8.299-28.493 18.969-28.493 10.669 0 18.968 13.059 18.968 28.493Zm-150.561 28.493c10.67 0 18.969-13.06 18.969-28.493 0-15.434-8.299-28.493-18.969-28.493-10.669 0-18.968 13.059-18.968 28.493 0 15.433 8.299 28.493 18.968 28.493Z" clip-rule="evenodd"/><path fill="#633001" d="M207.475 290.941c0 15.433-8.299 28.493-18.969 28.493-10.669 0-18.968-13.06-18.968-28.493 0-15.434 8.299-28.493 18.968-28.493 10.67 0 18.969 13.059 18.969 28.493Z"/></svg>