<svg xmlns="http://www.w3.org/2000/svg" fill="none" viewBox="0 0 512 512"><rect width="512" height="512" fill="#000" rx="256"/><path fill="url(#paint0_radial_4193_3201)" d="M256.512 510.976c90.769 0 164.352-73.354 164.352-163.84s-73.583-163.84-164.352-163.84S92.16 256.65 92.16 347.136s73.583 163.84 164.352 163.84Z"/><path fill="url(#paint1_linear_4193_3201)" fill-rule="evenodd" d="M256.501 512c-89.421 0-169.98-37.916-226.505-98.726-18.027-19.315-.51-46.194 21.693-50.691 95.633-19.52 220.598 101.587 342.507 87.995 22.61-2.555 45.016-9.812 68.95-24.12 5.907-3.474 12.629-7.256 17.11-10.22C423.833 475.31 344.495 512 256.501 512Z" clip-rule="evenodd" opacity=".48"/><path fill="url(#paint2_linear_4193_3201)" fill-rule="evenodd" d="M256.48 512c89.444 0 170.025-37.917 226.564-98.727 18.032-19.316.408-46.195-21.699-50.692-74.672-15.228-167.274 55.189-262.321 80.433-54.502 14.41-121.432 11.242-166.256-26.777C89.308 475.207 168.462 512 256.48 512Z" clip-rule="evenodd" opacity=".48"/><defs><radialGradient id="paint0_radial_4193_3201" cx="0" cy="0" r="1" gradientTransform="matrix(164.402 0 0 163.889 256.525 347.186)" gradientUnits="userSpaceOnUse"><stop stop-color="#7A97FF"/><stop offset="1" stop-color="#004DAB"/></radialGradient><linearGradient id="paint1_linear_4193_3201" x1="22.547" x2="480.318" y1="436.22" y2="436.22" gradientUnits="userSpaceOnUse"><stop stop-color="#03B0DC"/><stop offset=".116" stop-color="#0BA5DE"/><stop offset=".317" stop-color="#2289E4"/><stop offset=".579" stop-color="#475BED"/><stop offset=".89" stop-color="#791BFA"/><stop offset="1" stop-color="#8C03FF"/></linearGradient><linearGradient id="paint2_linear_4193_3201" x1="32.828" x2="490.521" y1="436.219" y2="436.219" gradientUnits="userSpaceOnUse"><stop stop-color="#03B0DC"/><stop offset=".116" stop-color="#0BA5DE"/><stop offset=".317" stop-color="#2289E4"/><stop offset=".579" stop-color="#475BED"/><stop offset=".89" stop-color="#791BFA"/><stop offset="1" stop-color="#8C03FF"/></linearGradient></defs></svg>