<svg xmlns="http://www.w3.org/2000/svg" fill="none" viewBox="0 0 512 512"><path fill="#000" fill-rule="evenodd" d="M512 256c0 141.385-114.615 256-256 256S0 397.385 0 256 114.615 0 256 0s256 114.615 256 256Z" clip-rule="evenodd"/><path fill="url(#paint0_radial_5800_1649)" d="M256.5 9C120.409 9 10 119.409 10 255.5S120.409 502 256.5 502 503 391.591 503 255.5 392.591 9 256.5 9Zm0 352.663c-58.642 0-106.163-47.52-106.163-106.163 0-58.642 47.521-106.163 106.163-106.163 58.643 0 106.163 47.521 106.163 106.163 0 58.643-47.52 106.163-106.163 106.163Z"/><defs><radialGradient id="paint0_radial_5800_1649" cx="0" cy="0" r="1" gradientTransform="rotate(-.055 265082.94 -265873.437) scale(246.473)" gradientUnits="userSpaceOnUse"><stop offset=".225" stop-color="#fff"/><stop offset=".544" stop-color="#fff" stop-opacity=".463"/><stop offset=".544" stop-color="#fff" stop-opacity=".44"/><stop offset=".686" stop-color="#fff" stop-opacity=".23"/><stop offset=".857" stop-color="#fff" stop-opacity=".07"/><stop offset="1" stop-color="#fff" stop-opacity="0"/></radialGradient></defs></svg>