<svg xmlns="http://www.w3.org/2000/svg" fill="none" viewBox="0 0 512 512"><path fill="#000" d="M256 512c141.385 0 256-114.615 256-256S397.385 0 256 0 0 114.615 0 256s114.615 256 256 256Z"/><path fill="#5294FF" fill-rule="evenodd" d="M167.975 191.229h176.051c10.009 0 15.792 11.36 9.907 19.457l-83.783 115.23c-5.891 8.098-.107 19.458 9.905 19.458h73.836c3.919 0 7.6-1.877 9.905-5.049l82.862-113.958a12.259 12.259 0 0 0 0-14.414l-72.645-99.904a12.244 12.244 0 0 0-9.906-5.049H147.893c-3.92 0-7.6 1.876-9.905 5.049l-72.646 99.904a12.26 12.26 0 0 0 0 14.414L246.09 474.956c4.891 6.725 14.927 6.725 19.818 0l36.914-50.771a12.257 12.257 0 0 0 0-14.417L158.07 210.686c-5.888-8.097-.105-19.457 9.905-19.457Z" clip-rule="evenodd"/></svg>