<svg xmlns="http://www.w3.org/2000/svg" fill="none" viewBox="0 0 512 512"><path fill="url(#paint0_linear_3540_120)" d="M119.234 389.166a6.555 6.555 0 0 0-2.221 1.493l-43.64 44.738a257.44 257.44 0 0 0 12.12 11.56 6848.449 6848.449 0 0 1 37.646-38.506c.945-.965 1.834-1.826 2.648-2.615 5.372-5.202 7.479-7.243.797-14.925a6.438 6.438 0 0 0-2.121-1.608 6.506 6.506 0 0 0-5.229-.137Z"/><path fill="#000" fill-rule="evenodd" d="M256 512c141.385 0 256-114.615 256-256S397.385 0 256 0 0 114.615 0 256c0 58.514 19.631 112.442 52.667 155.559l20.468-21.037c.884-.925 1.956-1.285 3.215-1.078 2.294.35 4.285 1.487 5.973 3.41 1.603 1.683 2.786 3.57 3.552 5.661.48 1.274.242 2.387-.715 3.341L63.313 424.55a257.01 257.01 0 0 0 10.061 10.847l43.64-44.738a6.555 6.555 0 0 1 4.854-1.972c.9.024 1.784.234 2.596.616a6.438 6.438 0 0 1 2.121 1.608c6.682 7.682 4.575 9.723-.797 14.925-.814.789-1.703 1.65-2.648 2.615a6848.449 6848.449 0 0 0-37.646 38.506 257.633 257.633 0 0 0 12.302 10.32l24.95-25.427c1.066-1.073 2.182-1.128 3.35-.167l7.387 6.113a4.956 4.956 0 0 1 1.775 3.527 4.939 4.939 0 0 1-1.377 3.701l-21.933 22.63C152.985 495.639 202.582 512 256 512Zm152-391.5c-5.857-4.593-12.682-6.309-20.475-5.149-53.33 3.988-101.649 26.215-144.306 60.117a401.826 401.826 0 0 0-62.586 60.226 5.478 5.478 0 0 1-3.05 1.886l-36.775 8.448-14.703 3.771a6.055 6.055 0 0 0-2.904 1.668C108.438 266.575 94.037 283.206 80 301.359l57.032 17.876c.264.071.5.196.69.362 1.525 1.402 1.549 2.865.073 4.388.387 9.064 2.626 17.585 6.716 25.562.605 1.209.46 2.321-.436 3.336l-17.498 19.725c-.871.967-.823 1.897.145 2.792l19.386 17.622 20.221-19.87c.92-.895 1.985-1.185 3.195-.87 10.552 2.731 21.31 3.432 32.273 2.103 1.235-.17 2.191.266 2.868 1.305.533.798.63 1.692.291 2.683l9.983 30.82L224.16 432l47.449-41.081a5.713 5.713 0 0 0 1.815-3.119l11.544-52.502c.291-1.282.956-2.345 1.997-3.191C349.588 281.562 407.564 203.315 408 120.5Z" clip-rule="evenodd"/><path fill="#FFD493" fill-rule="evenodd" d="m111.947 467.654 21.933-22.63a4.962 4.962 0 0 0 1.377-3.701 4.956 4.956 0 0 0-1.775-3.527l-7.387-6.113c-1.168-.961-2.284-.906-3.35.167l-24.95 25.427a256.679 256.679 0 0 0 14.152 10.377ZM63.312 424.55l21.849-22.694c.956-.954 1.194-2.067.714-3.341-.766-2.091-1.95-3.978-3.552-5.661-1.688-1.923-3.679-3.06-5.973-3.41-1.26-.207-2.331.153-3.215 1.078l-20.468 21.037a257.18 257.18 0 0 0 10.645 12.991Z" clip-rule="evenodd"/><path fill="#000" d="M307 243.5c0 17.949-14.551 32.5-32.5 32.5-17.949 0-32.5-14.551-32.5-32.5 0-17.949 14.551-32.5 32.5-32.5 17.949 0 32.5 14.551 32.5 32.5Z"/><path fill="url(#paint1_linear_3540_120)" fill-rule="evenodd" d="M387.525 115.351c7.793-1.16 14.618.556 20.475 5.149-.436 82.815-58.412 161.062-121.035 211.607-1.041.846-1.706 1.909-1.997 3.191L273.424 387.8a5.713 5.713 0 0 1-1.815 3.119L224.16 432l-9.221-22.807-9.983-30.82c.339-.991.242-1.885-.291-2.683-.677-1.039-1.633-1.475-2.868-1.305-10.963 1.329-21.721.628-32.273-2.103-1.21-.315-2.275-.025-3.195.87l-20.221 19.87-19.386-17.622c-.968-.895-1.016-1.825-.145-2.792l17.498-19.725c.896-1.015 1.041-2.127.436-3.336-4.09-7.977-6.329-16.498-6.716-25.562 1.476-1.523 1.452-2.986-.073-4.388a1.73 1.73 0 0 0-.69-.362L80 301.359c14.037-18.153 28.438-34.784 43.201-49.892a6.055 6.055 0 0 1 2.904-1.668l14.703-3.771 36.775-8.448a5.478 5.478 0 0 0 3.05-1.886 401.826 401.826 0 0 1 62.586-60.226c42.657-33.902 90.976-56.129 144.306-60.117ZM274.5 276c17.949 0 32.5-14.551 32.5-32.5 0-17.949-14.551-32.5-32.5-32.5-17.949 0-32.5 14.551-32.5 32.5 0 17.949 14.551 32.5 32.5 32.5Z" clip-rule="evenodd"/><defs><linearGradient id="paint0_linear_3540_120" x1="413.5" x2="83.5" y1="108.5" y2="431" gradientUnits="userSpaceOnUse"><stop stop-color="#FF5823"/><stop offset="1" stop-color="#FFD493"/></linearGradient><linearGradient id="paint1_linear_3540_120" x1="413.5" x2="83.5" y1="108.5" y2="431" gradientUnits="userSpaceOnUse"><stop stop-color="#FF5823"/><stop offset="1" stop-color="#FFD493"/></linearGradient></defs></svg>