<svg xmlns="http://www.w3.org/2000/svg" fill="none" viewBox="0 0 512 512"><path fill="#000" fill-rule="evenodd" d="M512 256c0 141.385-114.615 256-256 256S0 397.385 0 256 114.615 0 256 0s256 114.615 256 256Z" clip-rule="evenodd"/><path fill="#fff" d="M284 228.072V100h-73.322a91.768 91.768 0 0 0-64.826 26.8A91.409 91.409 0 0 0 119 191.5a91.409 91.409 0 0 0 26.852 64.7 91.768 91.768 0 0 0 64.826 26.8H229v-55.1l55 .172Zm18.341.928h-18.353v55.1H229V412h73.341a91.74 91.74 0 0 0 64.813-26.8A91.42 91.42 0 0 0 394 320.5a91.42 91.42 0 0 0-26.846-64.7 91.74 91.74 0 0 0-64.813-26.8Z"/></svg>