<svg xmlns="http://www.w3.org/2000/svg" fill="none" viewBox="0 0 512 512"><path fill="#000" fill-rule="evenodd" d="M512 256c0 141.385-114.615 256-256 256S0 397.385 0 256 114.615 0 256 0s256 114.615 256 256Z" clip-rule="evenodd"/><path fill="url(#paint0_linear_5773_849)" d="M232.003 460.717 90.914 296.859c-2.645-3.067.943-7.499 4.5-5.556l94.87 51.392c4.469 2.429 7.936 6.405 9.7 11.17l38.191 103.209c1.399 3.795-3.528 6.709-6.172 3.643Z"/><path fill="url(#paint1_linear_5773_849)" d="m252.376 423.045-38.921-192.089c-.578-2.854 0-5.86 1.552-8.318l67.929-106.122c1.367-2.126 4.682-1.002 4.438 1.548L257.15 422.802c-.273 2.762-4.227 2.944-4.774.243Z"/><path fill="url(#paint2_linear_5773_849)" d="m286.065 366.462 74.68-108.46c2.555-3.704 6.995-5.615 11.464-4.948l47.768 7.225c3.072.456 4.106 4.371 1.673 6.284L289.805 369.984c-2.34 1.82-5.411-1.062-3.74-3.491v-.031Z"/><path fill="url(#paint3_linear_5773_849)" d="m297.226 292.091 38.191-241.053c.395-2.487 3.861-2.791 4.681-.393l33.874 98.473a11.276 11.276 0 0 1-.699 8.925l-71.516 135.566c-1.278 2.399-4.957 1.185-4.531-1.487v-.031Z"/><path fill="url(#paint4_linear_5773_849)" d="m133.515 244.526 8.544-60.559c.365-2.49 3.771-2.944 4.774-.638l52.696 122.606c1.064 2.488-2.039 4.644-4.015 2.792l-58.807-55.095c-2.493-2.337-3.709-5.767-3.223-9.137l.031.031Z"/><defs><linearGradient id="paint0_linear_5773_849" x1="-102.782" x2="255.105" y1="1233.97" y2="-70.188" gradientUnits="userSpaceOnUse"><stop stop-color="#F58013"/><stop offset="1" stop-color="#F19D19"/></linearGradient><linearGradient id="paint1_linear_5773_849" x1="187.227" x2="197.904" y1="673.377" y2="-34.329" gradientUnits="userSpaceOnUse"><stop stop-color="#F58013"/><stop offset="1" stop-color="#F19D19"/></linearGradient><linearGradient id="paint2_linear_5773_849" x1="154.988" x2="339.727" y1="1193.76" y2="-89.045" gradientUnits="userSpaceOnUse"><stop stop-color="#F58013"/><stop offset="1" stop-color="#F19D19"/></linearGradient><linearGradient id="paint3_linear_5773_849" x1="137.217" x2="164.292" y1="534.235" y2="-351.003" gradientUnits="userSpaceOnUse"><stop stop-color="#F58013"/><stop offset="1" stop-color="#F19D19"/></linearGradient><linearGradient id="paint4_linear_5773_849" x1="93.249" x2="257.922" y1="117.169" y2="463.154" gradientUnits="userSpaceOnUse"><stop stop-color="#F58013"/><stop offset="1" stop-color="#F19D19"/></linearGradient></defs></svg>