<svg width="333" height="413" viewBox="0 0 333 413" fill="none" xmlns="http://www.w3.org/2000/svg">
<path d="M142.003 411.717L0.914063 247.859C-1.73107 244.792 1.85667 240.36 5.41464 242.303L100.284 293.695C104.753 296.124 108.22 300.1 109.984 304.865L148.175 408.074C149.574 411.869 144.647 414.783 142.003 411.717Z" fill="black"/>
<path d="M162.376 374.045L123.455 181.956C122.877 179.102 123.455 176.096 125.007 173.638L192.936 67.5163C194.303 65.3901 197.618 66.5135 197.374 69.0643L167.15 373.802C166.877 376.564 162.923 376.746 162.376 374.045Z" fill="black"/>
<path d="M196.065 317.462L270.745 209.002C273.3 205.298 277.74 203.387 282.209 204.054L329.977 211.279C333.049 211.735 334.083 215.65 331.65 217.563L199.805 320.984C197.465 322.804 194.394 319.922 196.065 317.493V317.462Z" fill="black"/>
<path d="M207.226 243.091L245.417 2.03846C245.812 -0.449546 249.278 -0.75355 250.098 1.64524L283.972 100.118C284.976 103.062 284.733 106.28 283.273 109.043L211.757 244.609C210.479 247.008 206.8 245.794 207.226 243.122V243.091Z" fill="black"/>
<path d="M43.5146 195.526L52.0592 134.967C52.4238 132.477 55.8298 132.023 56.8332 134.329L109.529 256.935C110.593 259.423 107.49 261.579 105.514 259.727L46.7074 204.632C44.2141 202.295 42.9981 198.865 43.4843 195.495L43.5146 195.526Z" fill="black"/>
</svg>
