<svg xmlns="http://www.w3.org/2000/svg" fill="none" viewBox="0 0 515 512"><path fill="#DEFF16" d="M62.127 199.995c-13.596 5.387-26.753 15.325-38.05 28.718-9.692 11.485-17.739 25.274-22.812 39.04 1.113 24.637 5.71 48.368 13.307 70.711-.416-3.349-.76-6.941-1.042-10.838-1.547-21.208 7.904-56.471 25.84-76.469 11.405-12.715 34.034-25.551 58.854-25.551 9.73 0 19.128 1.932 27.956 5.744 10.89 4.708 19.364 15.638 23.241 30.006 5.058 18.719 2.717 42.373-6.949 70.29-5.574 16.117-8.592 30.041-9.215 42.573a99.296 99.296 0 0 0-.021 8.572c.794 19.25 7.442 35.636 20.341 50.091C169.515 450.748 196.289 461 227.027 461a140.576 140.576 0 0 0 30.221-3.307c53.711-11.887 74.772-48.473 82.977-77.069l.002-.007c.181-.659.362-1.318.535-1.977 6.196-23.95 2.481-49.492-11.062-75.912-8.742-17.075-18.699-29.624-27.483-40.693-14.006-17.649-25.057-31.582-25.669-54.896l-.008-.454a53.283 53.283 0 0 0-.012-.556c-.008-.39-.018-.789-.023-1.2l-.01-.339c-.205-11.879-.548-31.773-18.549-31.773-.709 0-1.46.026-2.212.087-5.897.452-10.257 2.358-12.973 5.665-2.191 2.672-6.617 10.696-.247 27.378 4.597 12.044 13.908 23.018 24.691 35.724 6.38 7.519 13.606 16.039 20.513 25.638 13.811 19.206 23.014 33.4 24.97 54.912 2.094 22.992-5.8 47.22-21.641 66.461-10.374 12.61-31.651 27.326-57.437 27.326a65.868 65.868 0 0 1-23.477-4.325c-11.105-4.212-19.375-12.201-23.273-22.505-7.293-19.232-3.394-37.629 1.127-58.933 2.138-10.034 4.339-20.407 5.456-31.573 3.211-31.903-10.267-67.079-33.54-87.529-15.047-13.228-33.852-20.216-54.365-20.216-5.972 0-12.222.583-18.559 1.749-8.065 1.514-16.432 3.977-24.852 7.319Z"/><path fill="#000" fill-rule="evenodd" d="M513 256c0 141.385-114.615 256-256 256-112.533 0-208.108-72.61-242.428-173.536-.416-3.349-.76-6.941-1.042-10.838-1.547-21.208 7.904-56.471 25.84-76.469 11.405-12.715 34.034-25.551 58.854-25.551 9.73 0 19.128 1.932 27.956 5.744 10.89 4.708 19.364 15.638 23.241 30.006 5.058 18.719 2.717 42.373-6.949 70.29-5.574 16.117-8.592 30.041-9.215 42.573a99.296 99.296 0 0 0-.021 8.572c.794 19.25 7.442 35.636 20.341 50.091C169.515 450.748 196.289 461 227.027 461a140.576 140.576 0 0 0 30.221-3.307c53.711-11.887 74.772-48.473 82.977-77.069l.002-.007c.181-.659.362-1.318.535-1.977 6.196-23.95 2.481-49.492-11.062-75.912-8.742-17.075-18.699-29.624-27.483-40.693-14.006-17.649-25.057-31.582-25.669-54.896l-.008-.454a53.283 53.283 0 0 0-.012-.556c-.008-.39-.018-.789-.023-1.2l-.01-.339c-.205-11.879-.548-31.773-18.549-31.773-.709 0-1.46.026-2.212.087-5.897.452-10.257 2.358-12.973 5.665-2.191 2.672-6.617 10.696-.247 27.378 4.597 12.044 13.908 23.018 24.691 35.724 6.38 7.519 13.606 16.039 20.513 25.638 13.811 19.206 23.014 33.4 24.97 54.912 2.094 22.992-5.8 47.22-21.641 66.461-10.374 12.61-31.651 27.326-57.437 27.326a65.868 65.868 0 0 1-23.477-4.325c-11.105-4.212-19.375-12.201-23.273-22.505-7.293-19.232-3.394-37.629 1.127-58.933 2.138-10.034 4.339-20.407 5.456-31.573 3.211-31.903-10.267-67.079-33.54-87.529-15.047-13.228-33.852-20.216-54.365-20.216-5.972 0-12.222.583-18.559 1.749-8.065 1.514-16.432 3.977-24.852 7.319-13.596 5.387-26.753 15.325-38.05 28.718-9.692 11.485-17.739 25.274-22.812 39.04A260.383 260.383 0 0 1 1 256C1 114.615 115.615 0 257 0c114.806 0 211.96 75.572 244.432 179.684.177 1.825.337 3.72.481 5.69 1.545 21.208-7.906 56.471-25.841 76.469-11.405 12.715-34.023 25.551-58.855 25.551-9.719 0-19.127-1.932-27.954-5.744-10.891-4.708-19.365-15.647-23.241-30.006-5.059-18.719-2.718-42.372 6.947-70.29 4.78-13.811 7.659-25.881 8.786-36.89.484-4.882.634-9.677.44-14.255-.795-19.25-7.441-35.636-20.341-50.091C345.917 62.252 319.142 52 288.406 52c-10.15 0-20.321 1.114-30.223 3.307-52.282 11.566-73.493 46.663-82.074 74.067a91.574 91.574 0 0 0-.795 2.645c-7.066 24.62-3.555 50.945 10.429 78.236 8.74 17.077 18.691 29.615 27.475 40.681l.009.012c14.003 17.648 25.055 31.581 25.668 54.895.005.332.012.671.019 1.018.008.399.017.808.022 1.227v.27c.205 11.905.55 31.817 18.549 31.817.719 0 1.46-.027 2.212-.087 5.897-.453 10.257-2.359 12.975-5.666 2.201-2.68 6.625-10.704.256-27.387-4.595-12.033-13.905-23.005-24.683-35.707l-.006-.008c-6.38-7.51-13.599-16.012-20.526-25.637-13.811-19.207-23.014-33.392-24.97-54.913-2.094-22.992 5.8-47.22 21.641-66.461 10.376-12.601 31.651-27.317 57.437-27.317a65.872 65.872 0 0 1 23.477 4.325c11.105 4.212 19.365 12.201 23.275 22.505 7.29 19.232 3.393 37.629-1.128 58.933l-.003.013c-2.126 10.03-4.327 20.408-5.443 31.56-3.212 31.894 10.266 67.061 33.541 87.521 15.056 13.228 33.851 20.224 54.364 20.224 5.917 0 12.115-.574 18.398-1.723 8.098-1.505 16.506-3.977 24.991-7.345 13.596-5.387 26.752-15.316 38.052-28.718 8.922-10.575 16.451-23.096 21.548-35.764.071 2.484.107 4.976.107 7.477Z" clip-rule="evenodd"/><path fill="#DEFF16" d="M453.293 313.005c13.596-5.387 26.752-15.316 38.052-28.718 8.922-10.575 16.451-23.096 21.548-35.764-.686-23.912-4.651-47.003-11.461-68.839.177 1.825.337 3.72.481 5.69 1.545 21.208-7.906 56.471-25.841 76.469-11.405 12.715-34.023 25.551-58.855 25.551-9.719 0-19.127-1.932-27.954-5.744-10.891-4.708-19.365-15.647-23.241-30.006-5.059-18.719-2.718-42.372 6.947-70.29 4.78-13.811 7.659-25.881 8.786-36.89.484-4.882.634-9.677.44-14.255-.795-19.25-7.441-35.636-20.341-50.091C345.917 62.252 319.142 52 288.406 52c-10.15 0-20.321 1.114-30.223 3.307-52.282 11.566-73.493 46.663-82.074 74.067a91.574 91.574 0 0 0-.795 2.645c-7.066 24.62-3.555 50.945 10.429 78.236 8.74 17.077 18.691 29.615 27.475 40.681l.009.012c14.003 17.648 25.055 31.581 25.668 54.895.005.332.012.671.019 1.018.008.399.017.808.022 1.227v.27c.205 11.905.55 31.817 18.549 31.817.719 0 1.46-.027 2.212-.087 5.897-.453 10.257-2.359 12.975-5.666 2.201-2.68 6.625-10.704.256-27.387-4.595-12.033-13.905-23.005-24.683-35.707l-.006-.008c-6.38-7.51-13.599-16.012-20.526-25.637-13.811-19.207-23.014-33.392-24.97-54.913-2.094-22.992 5.8-47.22 21.641-66.461 10.376-12.601 31.651-27.317 57.437-27.317a65.872 65.872 0 0 1 23.477 4.325c11.105 4.212 19.365 12.201 23.275 22.505 7.29 19.232 3.393 37.629-1.128 58.933l-.003.013c-2.126 10.03-4.327 20.408-5.443 31.56-3.212 31.894 10.266 67.061 33.541 87.521 15.056 13.228 33.851 20.224 54.364 20.224 5.917 0 12.115-.574 18.398-1.723 8.098-1.505 16.506-3.977 24.991-7.345Z"/></svg>