<svg xmlns="http://www.w3.org/2000/svg" fill="none" viewBox="0 0 512 512"><path fill="#000" d="M256 512c141.385 0 256-114.615 256-256S397.385 0 256 0 0 114.615 0 256s114.615 256 256 256Z"/><path fill="#999" d="m292.345 88.53 9.754 22.991c19.195 44.722 54.753 80.625 99.751 99.836l22.971 9.764c5.979 2.519 10.699 6.298 14.475 10.708-11.328-81.57-75.836-146.133-157.336-157.471a37.747 37.747 0 0 1 10.385 14.172ZM87.494 220.806l22.971-9.763c44.683-19.212 80.555-54.8 99.75-99.837l9.755-22.99c2.203-5.67 5.979-10.709 10.699-14.488-81.5 11.338-146.007 75.901-157.336 157.471a37.709 37.709 0 0 1 14.16-10.393Zm337.012 72.751-22.971 9.763c-44.683 19.212-80.555 54.8-99.75 99.837l-9.755 22.676c-2.203 5.669-5.979 10.708-10.699 14.487 81.5-11.338 146.007-75.901 157.336-157.471-3.462 4.724-8.496 8.504-14.161 10.708ZM219.655 425.833l-9.754-22.676c-19.195-44.722-54.753-80.625-99.751-99.837l-22.971-9.763c-5.664-2.204-10.699-5.984-14.475-10.708 11.328 81.57 75.836 146.133 157.336 157.471-4.406-3.779-7.867-8.818-10.385-14.487Z"/><path fill="#fff" d="m173.084 239.387 11.328-4.724c22.027-9.448 39.649-27.085 49.089-49.131l4.72-11.338c6.608-15.747 28.95-15.747 35.873 0l4.72 11.338c9.44 22.046 27.061 39.683 49.088 49.131l11.329 4.724c15.733 6.614 15.733 28.975 0 35.904l-11.329 4.724c-22.027 9.448-39.648 27.085-49.088 49.131l-4.72 11.338c-6.608 15.747-28.95 15.747-35.873 0l-4.72-11.338c-9.44-22.046-27.062-39.683-49.089-49.131l-11.328-4.724c-15.733-6.929-15.733-29.29 0-35.904Z"/></svg>