<svg xmlns="http://www.w3.org/2000/svg" fill="none" viewBox="0 0 512 512"><path fill="#000" d="M256 512c141.385 0 256-114.615 256-256S397.385 0 256 0C193.794 0 136.771 22.187 92.411 59.079a257.468 257.468 0 0 0-11.626 10.276C31.06 116.055 0 182.4 0 256c0 141.385 114.615 256 256 256Z"/><path fill="url(#paint0_linear_3538_670)" fill-rule="evenodd" d="M210.018 363.393a256.546 256.546 0 0 0 24.237 25.638c37.784 32.451 64.606 36.329 91.86 37.972a26.01 26.01 0 0 0 3.232 0c13.222-.485 25.53-1.185 37.46-5.871a153.522 153.522 0 0 0 32.316-16.778 138.342 138.342 0 0 0 37.433-39.103c11.446-16.912 20.414-48.474 17.236-73.035a152.843 152.843 0 0 0-10.315-40.045 121.661 121.661 0 0 0-14.03-24.965 94.785 94.785 0 0 0-27.119-26.122c-19.39-11.58-38.968-22.999-59.462-32.747a304.843 304.843 0 0 1-36.518-19.579A307.144 307.144 0 0 0 276.59 132.6a6.513 6.513 0 0 0-7.702.35c-2.693 2.101-2.101 4.794-1.347 7.487 1.197 4.649 3.5 8.745 5.824 12.876 1.808 3.215 3.629 6.452 4.949 9.988 1.292 3.42 1.723 5.951-1.158 8.483-2.882 2.531-5.387 1.615-8.08-.162l-.004-.003c-15.026-9.802-30.051-19.603-45.185-29.243-7.455-4.751-14.957-9.426-22.459-14.102-6.617-4.124-13.234-8.248-19.821-12.425-5.746-3.656-11.372-7.359-17.051-11.098a1910.235 1910.235 0 0 0-12.088-7.915c-5.732-3.712-11.527-7.308-17.318-10.902-4.247-2.636-8.493-5.27-12.709-7.949-5.117-3.292-10.293-6.518-15.477-9.75-4.858-3.028-9.723-6.061-14.553-9.156a257.468 257.468 0 0 0-11.626 10.276c8.801 8.691 17.623 17.385 26.467 26.081 27.218 26.93 54.453 53.861 81.707 80.791 10.879 10.718 21.732 21.41 32.72 31.993a8.535 8.535 0 0 1 2.801 9.749c-1.32 3.878-4.74 4.686-8.079 4.955-1.066.086-2.135.153-3.205.22-2.281.142-4.567.285-6.84.615a13.275 13.275 0 0 0-11.203 16.805c2.289 8.402 4.443 16.777 5.978 25.314 1.831 10.207-2.289 13.896-12.038 10.207-10.92-4.125-21.669-8.544-32.47-12.984a2518.845 2518.845 0 0 0-15.681-6.406 2739.78 2739.78 0 0 0-24.238-9.722 11.725 11.725 0 0 0-3.581-.808c-.196-.011-.394-.024-.593-.037-2.592-.169-5.393-.352-6.894 2.3-1.412 2.495.447 4.311 2.035 5.862.228.223.451.441.658.655 8.709 9.124 17.546 18.104 26.363 27.064 2.607 2.649 5.212 5.296 7.812 7.945l.819.834c11.091 11.3 49.298 50.223 66.695 72.605Zm194.975-87.698a80.004 80.004 0 0 1 5.683 31.306c-.269 41.042-36.679 80.468-80.333 78.691-42.254 2.693-79.445-39.911-79.445-78.098.135-46.698 35.737-82.003 78.987-82.246a80.018 80.018 0 0 1 57.673 23.732 80.007 80.007 0 0 1 17.435 26.615Z" clip-rule="evenodd"/><path fill="url(#paint1_linear_3538_670)" d="M138.195 203.023a12.551 12.551 0 0 0 12.118 12.657 12.024 12.024 0 0 0 4.773-1.032 12.021 12.021 0 0 0 3.97-2.842 12.023 12.023 0 0 0 3.16-9.026 12.9 12.9 0 0 0-12.63-12.361 12.28 12.28 0 0 0-11.391 12.604Z"/><path fill="url(#paint2_linear_3538_670)" d="M220.586 86.473c7.298 0 11.634-4.686 11.607-12.146a12.414 12.414 0 0 0-11.903-11.634c-5.386 0-12.792 6.84-12.846 11.984a12.526 12.526 0 0 0 13.142 11.796Z"/><path fill="url(#paint3_linear_3538_670)" d="M78.852 161.92a10.584 10.584 0 0 0-11.122-11.096 12.307 12.307 0 0 0-11.176 11.607 11.634 11.634 0 0 0 11.176 10.773 10.766 10.766 0 0 0 8.034-3.205 10.765 10.765 0 0 0 3.088-8.079Z"/><path fill="url(#paint4_linear_3538_670)" d="M330.343 385.556c43.654 1.912 80.064-37.514 80.334-78.556a80.026 80.026 0 0 0-23.119-57.921 79.998 79.998 0 0 0-57.672-23.732c-43.251.243-78.853 35.548-78.987 82.246-.135 38.187 37.191 80.656 79.444 77.963Z"/><defs><linearGradient id="paint0_linear_3538_670" x1="484.5" x2="18" y1="282.5" y2="153.5" gradientUnits="userSpaceOnUse"><stop stop-color="#E2107B"/><stop offset="1" stop-color="#C991DD"/></linearGradient><linearGradient id="paint1_linear_3538_670" x1="162.216" x2="138.087" y1="203.023" y2="203.023" gradientUnits="userSpaceOnUse"><stop stop-color="#E2107B"/><stop offset="1" stop-color="#C991DD"/></linearGradient><linearGradient id="paint2_linear_3538_670" x1="232.193" x2="207.471" y1="74.597" y2="74.597" gradientUnits="userSpaceOnUse"><stop stop-color="#E2107B"/><stop offset="1" stop-color="#C991DD"/><stop offset="1" stop-color="#C991DD"/></linearGradient><linearGradient id="paint3_linear_3538_670" x1="78.906" x2="56.608" y1="161.974" y2="161.974" gradientUnits="userSpaceOnUse"><stop stop-color="#E2107B"/><stop offset="1" stop-color="#C991DD"/></linearGradient><linearGradient id="paint4_linear_3538_670" x1="453.711" x2="254.965" y1="353.105" y2="276.488" gradientUnits="userSpaceOnUse"><stop stop-color="#C991DD"/><stop offset="1" stop-color="#E2107B"/></linearGradient></defs></svg>