<svg xmlns="http://www.w3.org/2000/svg" fill="none" viewBox="0 0 512 512"><path fill="#000" fill-rule="evenodd" d="M512 256c0 141.385-114.615 256-256 256S0 397.385 0 256 114.615 0 256 0s256 114.615 256 256Z" clip-rule="evenodd"/><path fill="url(#paint0_linear_4499_870)" fill-rule="evenodd" d="m390.199 113.981.024.041L465.3 244.229l.086.147.087.144c.276.451.468 1.15.334 2.048-.14.923-.568 1.659-1.029 2.088l-.139.131-206.231 203.905-.05.049a3.732 3.732 0 0 1-5.325 0l-.041-.041L47.307 248.971c-1.14-1.152-1.636-3.377-.552-5.352l80.191-130.512.036-.062c.038-.041.201-.205.573-.401a4.585 4.585 0 0 1 2.092-.501h257.249c1.515 0 2.69.763 3.303 1.838ZM35.432 236.931c-4.048 6.989-2.944 15.816 2.576 21.333l205.727 203.77a16.888 16.888 0 0 0 23.922 0l206.094-203.77c5.52-5.149 6.992-13.977 2.944-20.597L401.618 107.46c-2.946-5.15-8.466-8.46-14.722-8.46H129.647c-5.889 0-11.409 2.943-13.985 7.356l-80.23 130.575Z" clip-rule="evenodd"/><path fill="url(#paint1_linear_4499_870)" fill-rule="evenodd" d="M257.19 221.426v8.651l-2.8.001c-32.288.007-61.436 2.608-82.444 6.779-10.527 2.09-18.865 4.546-24.503 7.192-2.827 1.327-4.825 2.632-6.077 3.847-1.249 1.211-1.534 2.102-1.534 2.684 0 .582.285 1.473 1.534 2.684 1.252 1.215 3.25 2.52 6.077 3.846 5.638 2.646 13.976 5.103 24.503 7.193 21.008 4.17 50.156 6.772 82.444 6.778l.408.001v-.044h2.802c36.032.007 68.734 3.253 92.502 8.537 11.86 2.636 21.651 5.812 28.542 9.434 3.443 1.81 6.301 3.8 8.328 6.003 2.044 2.218 3.38 4.81 3.38 7.714 0 2.907-1.336 5.497-3.38 7.717-2.027 2.202-4.885 4.193-8.328 6.001-6.891 3.622-16.682 6.798-28.542 9.435-23.768 5.282-56.47 8.53-92.502 8.537h-2.802v-8.653h2.802c32.287-.005 61.435-2.608 82.441-6.777 10.528-2.091 18.866-4.547 24.503-7.193 2.829-1.326 4.826-2.633 6.078-3.847 1.248-1.211 1.533-2.103 1.533-2.683 0-.583-.285-1.475-1.533-2.686-1.252-1.214-3.249-2.519-6.078-3.846-5.637-2.646-13.975-5.102-24.503-7.192-21.006-4.171-50.154-6.772-82.441-6.779h-.41v.044h-2.802c-36.032-.007-68.734-3.254-92.502-8.537-11.861-2.637-21.65-5.813-28.542-9.435-3.443-1.809-6.301-3.799-8.329-6.002-2.042-2.218-3.38-4.81-3.38-7.715 0-2.906 1.338-5.497 3.38-7.715 2.028-2.203 4.886-4.193 8.329-6.002 6.892-3.622 16.681-6.798 28.542-9.435 23.768-5.283 56.47-8.53 92.502-8.537h2.802Zm-5.602 60.571c-48.388-.237-90.261-6.342-111.762-15.239 21.917 9.067 64.992 15.234 114.556 15.244-.935 0-1.863 0-2.794-.005Zm8.814-8.152c38.785.189 73.389 4.15 96.666 10.297-23.836-6.294-59.546-10.295-99.463-10.303.936 0 1.865.001 2.797.006Z" clip-rule="evenodd"/><path fill="url(#paint2_linear_4499_870)" fill-rule="evenodd" d="M280.676 189.225v66.325c-2.165.285-10.156.784-25.64.784-13.483 0-23.397-.548-26.73-.825v-66.284h-73.109v-48.508h198.581v48.508h-73.102Zm-22.499 80.766c-1.093.005-2.234.008-3.417.008-13.483 0-23.122-.275-26.454-.55v110.259h52.37V270.565a576.56 576.56 0 0 0-22.499-.574Z" clip-rule="evenodd"/><defs><linearGradient id="paint0_linear_4499_870" x1="23.089" x2="485.692" y1="466.998" y2="467.347" gradientUnits="userSpaceOnUse"><stop stop-color="#81F7FA"/><stop offset="1" stop-color="#7AFF91"/></linearGradient><linearGradient id="paint1_linear_4499_870" x1="23.089" x2="485.692" y1="467" y2="467.348" gradientUnits="userSpaceOnUse"><stop stop-color="#81F7FA"/><stop offset="1" stop-color="#7AFF91"/></linearGradient><linearGradient id="paint2_linear_4499_870" x1="150.779" x2="356.75" y1="379.709" y2="379.816" gradientUnits="userSpaceOnUse"><stop stop-color="#81F7FA"/><stop offset="1" stop-color="#7AFF91"/></linearGradient></defs></svg>