<svg xmlns="http://www.w3.org/2000/svg" fill="none" viewBox="0 0 512 512"><path fill="#000" d="M256 512c141.385 0 256-114.615 256-256S397.385 0 256 0 0 114.615 0 256s114.615 256 256 256Z"/><path fill="#fff" d="M407.308 146.58a5781.056 5781.056 0 0 0-8.998 31.882c-1.17 4.179-1.782 7.011-1.835 8.497-.255 6.706 1.686 12.45 5.823 17.233 2.739 3.156 6.844 5.608 10.641 7.714 9.753 5.408 19.51 10.812 29.27 16.21a151.255 151.255 0 0 1 15.55 9.882c3.616 2.623 6.234 6.008 7.854 10.155 3.524 11.944.332 21.309-9.577 28.097-4.357 2.981-8.484 5.554-12.38 7.718l-31.131 17.282c-9.881 5.485-16.853 12.639-15.981 24.808.307 4.316 2.118 10.414 3.372 14.639l.016.052c4.079 13.731 7.934 27.409 11.306 41.333.62 3.141.835 6.297.643 9.467-.712 11.993-12.96 21.775-24.712 20.506-5.474-.593-11.597-1.857-18.368-3.79a14615.24 14615.24 0 0 1-34.668-9.957c-11.125-3.215-21.447-1.919-28.993 7.628-1.835 2.318-3.499 5.287-4.935 7.873-7.902 14.253-15.438 29.078-24.67 42.505-3.653 5.304-8.083 8.859-14.464 10.165-8.264 1.695-17.432-.719-22.809-7.665-3.744-4.836-7.551-10.792-11.423-17.868a1939.424 1939.424 0 0 0-15.459-27.713c-4.945-8.694-9.248-14.206-18.979-16.21-6.802-1.402-14.252 1.173-20.719 3.076a1533.92 1533.92 0 0 1-34.8 9.77 65.664 65.664 0 0 1-14.231 2.186c-8.328.357-15.778-4.936-19.91-11.972-4.201-7.143-2.76-15.064-.984-22.687a1138.514 1138.514 0 0 1 10.758-38.241c1.34-4.451 3.074-10.666 2.983-15.224-.202-10.33-6.131-17.255-14.97-22.105-19.265-10.576-31.391-17.335-36.38-20.278-7.976-4.701-16.426-9.904-18.601-19.658-1.585-7.511.239-16.589 5.956-21.605 4.215-3.696 9.494-7.303 15.836-10.821 12.365-6.855 25.287-13.315 37.199-20.922 7.653-4.883 12.407-14.328 10.726-23.412-.79-4.275-1.983-9.093-3.579-14.456a1958.386 1958.386 0 0 1-8.732-30.218c-2.441-10.08-5.61-20.379 1.032-29.467 5.715-7.826 13.215-11.138 22.5-9.936 3.553.458 9.12 1.625 13.274 2.766 12.114 3.321 26.61 7.937 41.846 11.679 7.467 1.834 14.699.512 20.682-3.95 3.993-2.974 6.886-7.686 9.354-12.174 7.959-14.492 14.58-26.289 19.862-35.39 4.494-7.745 9.849-15.586 19.373-17.42 17.89-3.433 25.197 9.387 32.562 22.495a6844.784 6844.784 0 0 1 17.363 31.114c4.834 8.721 10.423 14.872 20.708 16.029 5.945.666 13.06-1.599 19.043-3.406 6.913-2.09 17.464-4.947 29.238-8.321 6.062-1.734 11.866-2.927 17.411-3.577 9.008-1.06 17.538 4.248 22 11.882 2.482 4.243 3.331 8.939 2.547 14.088a144.81 144.81 0 0 1-4.44 19.712Zm-272.203 64.35c-4.881 9.259-12.013 15.949-20.229 20.666-4.832 2.776-16.099 9.084-33.8 18.924a196.479 196.479 0 0 0-9.53 5.655c-.28.174-.282.352-.005.533a168.956 168.956 0 0 0 10.518 6.349 4733.692 4733.692 0 0 1 30.483 17.074c4.137 2.338 7.044 4.159 8.721 5.463 10.671 8.316 16.948 19.243 18.831 32.783 1.047 7.5-.101 15.09-2.053 22.111-3.334 11.972-9.083 29.685-12.651 45.826a.367.367 0 0 0 .005.189.383.383 0 0 0 .447.264c14.991-3.252 29.892-8.06 44.675-12.223 9.238-2.601 17.991-3.891 27.462-1.78 13.766 3.067 24.361 10.565 31.785 22.495 2.032 3.258 4.691 7.839 7.977 13.742 3.91 7.245 8.665 15.757 14.263 25.533 1.29 2.256 2.574 4.262 3.85 6.018.152.213.298.209.436-.011 6.243-9.947 13.215-22.841 19.586-34.36 3.506-6.621 6.714-11.85 9.625-15.688 10.934-14.419 30.206-21.54 48.127-17.793 4.818 1.006 10.005 2.331 15.56 3.976 6.059 1.795 15.848 4.544 29.366 8.247 2.62.718 5.234 1.345 7.844 1.881a.196.196 0 0 0 .228-.234c-3.047-14.185-7.594-28.241-11.64-42.175-1.5-5.171-2.525-9.684-3.074-13.539-2.691-18.892 6.403-37.842 22.627-47.836 15.055-9.275 31.132-16.813 46.016-26.365a.236.236 0 0 0 .113-.203.246.246 0 0 0-.113-.207c-12.927-8.156-26.669-15.272-40.038-22.687-12.306-6.823-21.288-15.144-26.26-28.603-4.217-12.095-3.068-23.034.335-34.878 4.928-17.129 8.291-28.911 10.088-35.346.631-2.257 1.255-5.036 1.872-8.337.039-.196-.041-.274-.239-.235-13.63 2.82-27.233 7.239-40.608 11.13-6.53 1.898-11.364 3.053-14.502 3.465-21.963 2.879-40.565-7.553-51.179-26.567a26157.978 26157.978 0 0 1-17.576-31.546 150.2 150.2 0 0 0-6.259-10.25c-.131-.196-.262-.196-.394 0-2.272 3.429-4.669 7.403-7.189 11.924a6967.452 6967.452 0 0 1-15.89 28.347c-1.812 3.216-3.549 5.995-5.212 8.337-11.04 15.56-30.461 23.033-49.143 19.254-2.903-.586-5.738-1.194-8.668-2.036-16.971-4.855-28.763-8.204-35.375-10.048-2.492-.697-5.395-1.356-8.71-1.978-.181-.032-.254.041-.218.219 2.563 12.063 6.392 24.206 11.672 42.468 4.255 14.723 5.292 27.804-1.957 42.052Z"/><path fill="#061819" d="M295.174 220.925c11.689-.581 24.218 1.727 34.083 8.171 4.371 2.852 5.6 6.781 2.435 11.402-3.302 3.012-6.695 5.741-11.433 3.412-3.113-1.528-5.249-2.474-6.408-2.836-10.811-3.38-25.34-3.161-34.886 3.214-1.875 1.251-2.815 3.255-2.818 6.013-.025 21.553.175 40.196.601 55.928.096 3.432-1.553 4.845-4.871 4.824a832.704 832.704 0 0 0-11.912-.011c-.38 0-.575-.19-.585-.57a2520.88 2520.88 0 0 1-.766-52.298c-.027-5.805.064-11.7.526-16.706.224-2.441 1.388-4.792 3.063-6.759 8.084-9.483 20.889-13.283 32.971-13.784Zm-80.965 2.441c4.398.421 13.37 1.407 16.768 4.286 3.275 2.772 2.887 7.329 1.005 11.093-4.021 5.73-9.392 3.853-15.353 3.006-8.289-1.176-16.163-.068-23.622 3.326-2.017.917-3.327 1.411-3.93 1.482-3.255.384-5.446-1.807-7.876-3.587-4.627-3.391-5.116-9.206-.016-12.495 9.402-6.056 22.128-7.884 33.024-7.111Z"/><path fill="#061819" fill-rule="evenodd" d="M135.105 210.93c-4.881 9.259-12.013 15.949-20.229 20.666-4.832 2.776-16.099 9.084-33.8 18.924a196.479 196.479 0 0 0-9.53 5.655c-.28.174-.282.352-.005.533a168.956 168.956 0 0 0 10.518 6.349 4733.692 4733.692 0 0 1 30.483 17.074c4.137 2.338 7.044 4.159 8.721 5.463 10.671 8.316 16.948 19.243 18.831 32.783 1.047 7.5-.101 15.09-2.053 22.111-3.334 11.972-9.083 29.685-12.651 45.826a.367.367 0 0 0 .005.189.383.383 0 0 0 .447.264c14.991-3.252 29.892-8.06 44.675-12.223 9.238-2.601 17.991-3.891 27.462-1.78 13.766 3.067 24.361 10.565 31.785 22.495 2.032 3.258 4.691 7.839 7.977 13.742 3.91 7.245 8.665 15.757 14.263 25.533 1.29 2.256 2.574 4.262 3.85 6.018.152.213.298.209.436-.011 6.243-9.947 13.215-22.841 19.586-34.36 3.506-6.621 6.714-11.85 9.625-15.688 10.934-14.419 30.206-21.54 48.127-17.793 4.818 1.006 10.005 2.331 15.56 3.976 6.059 1.795 15.848 4.544 29.366 8.247 2.62.718 5.234 1.345 7.844 1.881a.196.196 0 0 0 .228-.234c-3.047-14.185-7.594-28.241-11.64-42.175-1.5-5.171-2.525-9.684-3.074-13.539-2.691-18.892 6.403-37.842 22.627-47.836 15.055-9.275 31.132-16.813 46.016-26.365a.236.236 0 0 0 .113-.203.246.246 0 0 0-.113-.207c-12.927-8.156-26.669-15.272-40.038-22.687-12.306-6.823-21.288-15.144-26.26-28.603-4.217-12.095-3.068-23.034.335-34.878 4.928-17.129 8.291-28.911 10.088-35.346.631-2.257 1.255-5.036 1.872-8.337.039-.196-.041-.274-.239-.235-13.63 2.82-27.233 7.239-40.608 11.13-6.53 1.898-11.364 3.053-14.502 3.465-21.963 2.879-40.565-7.553-51.179-26.567a26157.978 26157.978 0 0 1-17.576-31.546 150.2 150.2 0 0 0-6.259-10.25c-.131-.196-.262-.196-.394 0-2.272 3.429-4.669 7.403-7.189 11.924a6967.452 6967.452 0 0 1-15.89 28.347c-1.812 3.216-3.549 5.995-5.212 8.337-11.04 15.56-30.461 23.033-49.143 19.254-2.903-.586-5.738-1.194-8.668-2.036-16.971-4.855-28.763-8.204-35.375-10.048-2.492-.697-5.395-1.356-8.71-1.978-.181-.032-.254.041-.218.219 2.563 12.063 6.392 24.206 11.672 42.468 4.255 14.723 5.292 27.804-1.957 42.052Zm156.347-68.364c-46.404-14.738-97.759.715-128.316 38.801a120.83 120.83 0 0 0-16.352 27.052c-18.331 42.335-10.7 90.645 19.389 125.31 21.266 24.499 52.892 39.488 85.161 40.549 90.335 2.969 151.076-90.565 110.559-172.255-15.486-29.275-38.966-49.094-70.441-59.457Z" clip-rule="evenodd"/><path fill="#fff" fill-rule="evenodd" d="M163.136 181.367c30.557-38.086 81.912-53.539 128.316-38.801 31.475 10.363 54.955 30.182 70.441 59.457 40.517 81.69-20.224 175.224-110.559 172.255-32.269-1.061-63.895-16.05-85.161-40.549-30.089-34.665-37.72-82.975-19.389-125.31a120.83 120.83 0 0 1 16.352-27.052Zm99.067 53.342c8.084-9.483 20.889-13.283 32.971-13.784 11.689-.581 24.218 1.727 34.083 8.171 4.371 2.852 5.6 6.781 2.435 11.402-3.302 3.012-6.695 5.741-11.433 3.412-3.113-1.528-5.249-2.474-6.408-2.836-10.811-3.38-25.34-3.161-34.886 3.214-1.875 1.251-2.815 3.255-2.818 6.013-.025 21.553.175 40.196.601 55.928.096 3.432-1.553 4.845-4.871 4.824a832.704 832.704 0 0 0-11.912-.011c-.38 0-.575-.19-.585-.57a2520.88 2520.88 0 0 1-.766-52.298c-.027-5.805.064-11.7.526-16.706.224-2.441 1.388-4.792 3.063-6.759Zm-81.018-4.232c9.402-6.056 22.128-7.884 33.024-7.111 4.398.421 13.37 1.407 16.768 4.286 3.275 2.772 2.887 7.329 1.005 11.093-4.021 5.73-9.392 3.853-15.353 3.006-8.289-1.176-16.163-.068-23.622 3.326-2.017.917-3.327 1.411-3.93 1.482-3.255.384-5.446-1.807-7.876-3.587-4.627-3.391-5.116-9.206-.016-12.495Z" clip-rule="evenodd"/></svg>