<svg width="256" height="256" viewBox="0 0 256 256" fill="none" xmlns="http://www.w3.org/2000/svg">
<path d="M128.692 118.367C132.668 123.702 140.075 131.341 153.81 141.829C152.303 75.2708 135.286 27.4358 129.785 14.1308C129.156 12.6231 127.018 12.6231 126.388 14.1308C120.904 27.4358 103.871 75.3371 102.363 141.829C116.099 131.341 123.505 123.702 127.482 118.367C127.78 117.953 128.393 117.953 128.692 118.367Z" fill="black"/>
<path d="M102.364 141.845C100.939 142.922 99.4645 144.032 97.907 145.192C71.8272 164.346 71.9266 194.717 72.0095 205.901C72.0095 206.746 72.7054 207.442 73.567 207.442H104.601C103.043 197.915 102.182 175.431 102.182 157.503C102.182 152.168 102.248 146.948 102.364 141.845Z" fill="black"/>
<path d="M158.253 145.176C156.695 144.032 155.22 142.922 153.795 141.845C153.911 146.948 153.978 152.168 153.978 157.503C153.978 175.431 153.116 197.915 151.559 207.442H182.593C183.454 207.442 184.133 206.763 184.15 205.901C184.233 194.717 184.332 164.363 158.269 145.176H158.253Z" fill="black"/>
<path d="M129.835 241.724C133.746 229.944 141.202 219.124 151.574 207.443H104.584C114.956 219.124 122.412 229.944 126.323 241.724C126.571 242.486 127.267 243 128.079 243C128.874 243 129.57 242.486 129.835 241.724Z" fill="black"/>
</svg>
