<svg width="256" height="256" viewBox="0 0 256 256" fill="none" xmlns="http://www.w3.org/2000/svg">
<path d="M24.3912 23C23.8346 22.9967 23.4863 23.3034 23.3163 23.72C23.1463 24.1367 23.1863 24.5967 23.588 24.9817L83.7661 83.6893C84.8427 82.841 86.2059 82.3776 87.7458 82.346C92.6222 82.246 99.2918 85.8726 106.598 93.3158C113.109 99.9491 120.056 109.822 126.422 122.899C126.935 122.729 127.47 122.638 128.01 122.629C128.493 122.629 128.95 122.712 129.393 122.834C138.926 101.931 142.756 86.0076 142.743 74.1227C142.729 61.4096 138.576 53.1447 132.896 47.5397L132.75 47.3981C122.169 37.0649 105.043 31.0566 85.5626 27.6133C66.0854 24.17 44.2817 23.2734 24.3912 23ZM231.962 23.2467C231.788 23.224 231.61 23.2442 231.445 23.3055C231.281 23.3667 231.133 23.4673 231.016 23.5984L172.334 83.7576C173.779 85.5793 174.024 88.2326 173.171 91.2509C172.231 94.5725 170.004 98.4408 166.438 102.616C159.968 110.192 148.882 118.726 133.11 126.41C133.268 126.912 133.376 127.435 133.376 127.989C133.376 128.475 133.293 128.937 133.17 129.385C154.085 138.925 170.016 142.759 181.904 142.745C194.563 142.729 202.806 138.605 208.409 132.962L208.6 132.767C218.931 122.185 224.943 105.057 228.387 85.5776C231.831 66.0995 232.727 44.2948 232.999 24.4033C233.009 24.1716 232.945 23.9425 232.816 23.7499C232.687 23.5573 232.499 23.4113 232.281 23.3334C232.178 23.2918 232.07 23.2633 231.961 23.2484L231.962 23.2467ZM139.703 54.1746C142.519 59.3846 144.402 65.8078 144.412 74.1244C144.427 86.3409 140.501 102.474 130.917 123.497C131.49 123.869 131.987 124.345 132.383 124.9C147.979 117.297 158.903 108.877 165.173 101.534C168.629 97.4874 170.728 93.7725 171.569 90.7959C172.302 88.2009 172.099 86.2543 171.169 84.9526L170.998 85.1276L170.441 84.2009C170.402 84.1346 170.353 84.074 170.298 84.0209L170.291 84.0143L139.703 54.1746ZM87.7825 84.0109C86.6159 84.0359 85.6943 84.3276 84.961 84.8509L85.106 84.9943L84.196 85.5543C84.1516 85.5843 84.1088 85.6193 84.0677 85.6593L54.1478 116.329C59.3608 113.504 65.7888 111.614 74.1133 111.606C86.3342 111.591 102.473 115.521 123.51 125.11C123.882 124.53 124.357 124.027 124.919 123.627C118.622 110.694 111.769 100.957 105.415 94.4841C98.2819 87.2176 91.7589 83.9293 87.7825 84.0109ZM74.1166 113.272C61.3091 113.289 53.0062 117.501 47.4015 123.247C37.0705 133.83 31.0575 150.953 27.6144 170.432C24.1713 189.91 23.2746 211.719 23.0013 231.611C22.9899 231.843 23.0533 232.073 23.1824 232.266C23.3114 232.459 23.4992 232.606 23.7179 232.684C24.1346 232.854 24.5979 232.817 24.9845 232.414L83.6677 172.255C82.2261 170.433 81.9845 167.782 82.8378 164.765C83.7761 161.445 86.0043 157.572 89.569 153.398C96.042 145.815 107.135 137.279 122.927 129.59C122.755 129.074 122.663 128.533 122.654 127.989C122.654 127.517 122.737 127.067 122.852 126.63C101.937 117.091 86.0026 113.259 74.1166 113.272ZM128.013 124.295C127.528 124.294 127.047 124.389 126.598 124.574C126.149 124.759 125.742 125.031 125.398 125.375C125.055 125.718 124.783 126.126 124.598 126.575C124.413 127.024 124.319 127.505 124.32 127.99C124.319 128.476 124.413 128.958 124.598 129.407C124.783 129.856 125.055 130.264 125.398 130.608C125.742 130.951 126.15 131.223 126.599 131.409C127.048 131.594 127.529 131.689 128.015 131.687C128.501 131.689 128.983 131.595 129.432 131.41C129.882 131.225 130.29 130.952 130.634 130.609C130.978 130.265 131.25 129.857 131.435 129.408C131.621 128.958 131.715 128.476 131.713 127.99C131.715 127.504 131.62 127.023 131.435 126.573C131.249 126.124 130.977 125.716 130.633 125.372C130.289 125.029 129.88 124.757 129.431 124.572C128.981 124.387 128.499 124.293 128.013 124.295ZM132.507 130.904C132.138 131.47 131.663 131.959 131.113 132.352C138.719 147.965 147.146 158.898 154.49 165.168C158.537 168.625 162.248 170.723 165.226 171.567C167.811 172.297 169.756 172.098 171.059 171.175L170.896 171.015L171.808 170.457C171.871 170.418 171.928 170.371 171.979 170.317L171.986 170.307L201.837 139.702C196.631 142.517 190.213 144.402 181.905 144.412C169.683 144.427 153.542 140.495 132.505 130.902L132.507 130.904ZM123.664 131.095C108.045 138.704 97.1119 147.135 90.8373 154.483C87.3808 158.53 85.2826 162.242 84.441 165.218C83.7077 167.81 83.911 169.755 84.8377 171.058L84.9977 170.895L85.5576 171.807C85.5943 171.869 85.6398 171.925 85.6943 171.977L85.7026 171.983L116.309 201.84C113.493 196.631 111.606 190.206 111.596 181.89C111.583 169.668 115.513 153.523 125.109 132.484C124.543 132.116 124.053 131.646 123.664 131.095ZM129.603 133.084C129.091 133.254 128.555 133.345 128.015 133.354C127.532 133.354 127.072 133.267 126.625 133.145C117.081 154.067 113.249 170.002 113.263 181.891C113.279 194.628 117.447 202.901 123.142 208.508L123.24 208.601C133.821 218.933 150.947 224.943 170.428 228.384C189.903 231.829 211.707 232.726 231.596 232.999C231.826 233.008 232.053 232.944 232.245 232.815C232.436 232.686 232.581 232.5 232.659 232.282C232.755 232.073 232.783 231.838 232.737 231.612C232.69 231.386 232.573 231.181 232.402 231.026L172.256 172.342C170.434 173.78 167.786 174.025 164.773 173.172C161.451 172.233 157.583 170.002 153.409 166.437C145.829 159.963 137.291 148.873 129.603 133.084Z" fill="black"/>
</svg>
