<svg width="256" height="256" viewBox="0 0 256 256" fill="none" xmlns="http://www.w3.org/2000/svg">
<path fill-rule="evenodd" clip-rule="evenodd" d="M140.37 31.1513L204.578 65.2648C214.428 71.1932 223.652 78.1002 224.08 98.4569V114.785H198.84V92.457L127.796 54.2222L56.2326 92.457V114.792H31V98.4569C31.3849 78.2073 40.5371 71.2575 50.3236 65.3719L115.201 31.1156C119.08 29.0634 123.401 27.9938 127.787 28C132.172 28.0063 136.497 29.0882 140.37 31.1513ZM140.406 198.426L198.804 165.655V141.242H224.037V157.541C223.652 177.898 214.4 184.841 204.542 190.733L140.37 224.847C136.496 226.911 132.177 227.994 127.79 228C123.403 228.006 119.081 226.936 115.201 224.883L50.3165 190.626C40.5371 184.733 31.4277 177.755 31 157.541V141.242H56.2754V165.655L115.201 198.462V171.962C94.6447 167.134 81.1588 150.413 81.1588 127.978C81.1588 100.821 99.8908 82.5858 127.804 82.5858C155.716 82.5858 174.441 100.821 174.441 127.978C174.441 150.377 160.927 167.134 140.406 171.969V198.426ZM127.796 104.914C112.828 104.914 104.595 113.092 104.595 127.985C104.595 142.442 113.256 151.056 127.796 151.056C142.337 151.056 150.99 142.413 150.99 127.985C150.99 113.092 142.758 104.914 127.796 104.914Z" fill="black"/>
</svg>
