<svg xmlns="http://www.w3.org/2000/svg" fill="none" viewBox="0 0 256 256"><path fill="#000" fill-rule="evenodd" d="m140.37 31.151 64.208 34.114c9.85 5.928 19.074 12.835 19.502 33.192v16.328h-25.24V92.457l-71.044-38.235-71.563 38.235v22.335H31V98.457c.385-20.25 9.537-27.2 19.324-33.085L115.2 31.116a26.83 26.83 0 0 1 25.169.035m.036 167.275 58.398-32.771v-24.413h25.233v16.299c-.385 20.357-9.637 27.3-19.495 33.192l-64.172 34.114a26.83 26.83 0 0 1-25.169.036l-64.884-34.257c-9.78-5.893-18.89-12.871-19.317-33.085v-16.299h25.275v24.413l58.926 32.807v-26.5c-20.556-4.828-34.042-21.549-34.042-43.984 0-27.157 18.732-45.392 46.645-45.392 27.912 0 46.637 18.235 46.637 45.392 0 22.399-13.514 39.156-34.035 43.991zm-12.61-93.512c-14.968 0-23.201 8.178-23.201 23.071 0 14.457 8.661 23.071 23.201 23.071s23.194-8.643 23.194-23.071c0-14.893-8.232-23.071-23.194-23.071" clip-rule="evenodd"/></svg>