<svg width="256" height="256" viewBox="0 0 256 256" fill="none" xmlns="http://www.w3.org/2000/svg">
<path fill-rule="evenodd" clip-rule="evenodd" d="M51.8736 131.719C36.4736 140.61 31.7892 161.327 41.4107 177.992L112.157 137.147C121.779 153.812 142.063 160.114 157.463 151.223L204.124 124.283C219.524 115.391 224.208 94.6741 214.587 78.0091L143.84 118.855C134.219 102.19 113.935 95.8877 98.5347 104.779L51.8736 131.719Z" fill="black"/>
<path fill-rule="evenodd" clip-rule="evenodd" d="M177.992 214.588C212.68 194.561 230.828 156.886 227.641 119.451L196.055 137.687C193.17 157.859 181.385 176.551 162.369 187.529C131.709 205.231 93.0803 196.628 72.6152 168.723L45.4439 184.41C74.6369 227.231 132.377 240.924 177.992 214.588ZM93.6308 68.4707C124.291 50.769 162.92 59.372 183.385 87.2773L210.556 71.59C181.363 28.7685 123.623 15.0764 78.0084 41.4119C43.3198 61.4393 25.1724 99.1142 28.359 136.549L59.9445 118.313C62.8298 98.1413 74.6153 79.4493 93.6308 68.4707Z" fill="black"/>
</svg>
