<svg width="256" height="256" viewBox="0 0 256 256" fill="none" xmlns="http://www.w3.org/2000/svg">
<path d="M227.552 118.465C231.145 156.223 212.985 194.385 177.992 214.588C132.892 240.626 75.9389 227.535 46.4434 185.849L67.6814 173.587C90.3365 203.642 132.374 212.77 165.8 193.471C188.679 180.262 202.042 156.9 203.483 132.362L227.552 118.465Z" fill="black"/>
<path fill-rule="evenodd" clip-rule="evenodd" d="M53.1972 134.008C37.7971 142.9 32.5207 162.592 41.4119 177.992L112.158 137.146C121.05 152.546 140.742 157.823 156.142 148.931L202.803 121.992C218.203 113.1 223.479 93.4084 214.588 78.0083L143.842 118.854C134.95 103.454 115.258 98.1773 99.8583 107.069L53.1972 134.008Z" fill="black"/>
<path d="M209.557 70.1509C180.061 28.4645 123.108 15.3737 78.0083 41.4119C43.0151 61.6152 24.8549 99.7774 28.4479 137.535L52.5175 123.638C53.9582 99.1001 67.3209 75.7378 90.2 62.5285C123.626 43.23 165.664 52.3584 188.319 82.4127L209.557 70.1509Z" fill="black"/>
</svg>
