<svg xmlns="http://www.w3.org/2000/svg" fill="none" viewBox="0 0 256 256"><path fill="#000" fill-rule="evenodd" d="M51.874 131.719c-15.4 8.891-20.085 29.608-10.463 46.273l70.746-40.845c9.622 16.665 29.906 22.967 45.306 14.076l46.661-26.94c15.4-8.892 20.084-29.609 10.463-46.274l-70.747 40.846c-9.621-16.665-29.905-22.967-45.305-14.076z" clip-rule="evenodd"/><path fill="#000" fill-rule="evenodd" d="M177.992 214.588c34.688-20.027 52.836-57.702 49.649-95.137l-31.586 18.236c-2.885 20.172-14.67 38.864-33.686 49.842-30.66 17.702-69.289 9.099-89.754-18.806L45.444 184.41c29.193 42.821 86.933 56.514 132.548 30.178M93.631 68.471c30.66-17.702 69.289-9.099 89.754 18.806l27.171-15.687c-29.193-42.821-86.933-56.514-132.548-30.178C43.32 61.439 25.172 99.114 28.36 136.549l31.585-18.236c2.886-20.172 14.671-38.864 33.687-49.842" clip-rule="evenodd"/></svg>