<svg xmlns="http://www.w3.org/2000/svg" fill="none" viewBox="0 0 256 256"><path fill="#000" d="M227.552 118.465c3.593 37.758-14.567 75.92-49.56 96.123-45.1 26.038-102.053 12.947-131.549-28.739l21.238-12.262c22.656 30.055 64.693 39.183 98.119 19.884 22.879-13.209 36.242-36.571 37.683-61.109z"/><path fill="#000" fill-rule="evenodd" d="M53.197 134.008c-15.4 8.892-20.676 28.584-11.785 43.984l70.746-40.846c8.892 15.4 28.584 20.677 43.984 11.785l46.661-26.939c15.4-8.892 20.676-28.584 11.785-43.984l-70.746 40.846c-8.892-15.4-28.584-20.677-43.984-11.785z" clip-rule="evenodd"/><path fill="#000" d="M209.557 70.15c-29.496-41.686-86.449-54.776-131.549-28.738-34.993 20.203-53.153 58.365-49.56 96.123l24.07-13.897c1.44-24.538 14.803-47.9 37.682-61.11 33.426-19.298 75.464-10.17 98.119 19.885z"/></svg>