<svg xmlns="http://www.w3.org/2000/svg" fill="none" viewBox="0 0 256 256"><path fill="#000" d="M190.098 66.623a30 30 0 0 0-9.739-6.482 30.12 30.12 0 0 0-22.978 0 30 30 0 0 0-9.739 6.482l-21.687 21.614c-5.6 5.582-15.039 5.234-20.768-.485-5.721-5.712-6.06-15.08-.462-20.65l21.697-21.594a60 60 0 0 1 19.475-12.958 60.26 60.26 0 0 1 45.946 0 60 60 0 0 1 19.475 12.958s6.26 6.833 9.26 11.895c7.71 13.01 9.523 24.74 7.849 37.885a59.67 59.67 0 0 1-17.094 34.738l-21.697 21.605c-5.597 5.573-15.019 5.233-20.75-.474-5.732-5.708-6.076-15.088-.474-20.663l21.701-21.597a29.9 29.9 0 0 0 6.509-9.698 29.76 29.76 0 0 0 0-22.88 29.9 29.9 0 0 0-6.509-9.696zM66.8 189.392a30 30 0 0 0 9.74 6.482 30.12 30.12 0 0 0 22.977 0 30 30 0 0 0 9.739-6.482l21.69-21.607c5.6-5.578 15.031-5.236 20.76.479 5.724 5.71 6.06 15.081.458 20.653l-21.688 21.575a60 60 0 0 1-19.475 12.958 60.25 60.25 0 0 1-45.946 0 60 60 0 0 1-19.475-12.958c-5.574-5.551-9.26-11.895-9.26-11.895a59.56 59.56 0 0 1-7.843-37.878 59.67 59.67 0 0 1 17.088-34.73l21.705-21.612c5.594-5.57 15.011-5.23 20.746.472 5.742 5.707 6.095 15.101.488 20.679L66.8 147.118a29.9 29.9 0 0 0-6.51 9.698 29.77 29.77 0 0 0 0 22.879 29.9 29.9 0 0 0 6.51 9.697"/><path fill="#000" d="M165.822 111.925c5.598-5.575 5.598-14.612 0-20.187l-.948-.943c-5.598-5.574-14.675-5.574-20.273 0l-52.004 51.781c-5.598 5.575-5.598 14.613 0 20.187l.947.943c5.599 5.574 14.675 5.574 20.274 0z"/></svg>