<svg xmlns="http://www.w3.org/2000/svg" fill="none" viewBox="0 0 256 256"><path fill="#000" fill-rule="evenodd" d="M16 102.896c0-3.806 2.126-7.295 5.512-9.05l97.557-50.549a20.5 20.5 0 0 1 18.862 0l97.557 50.55a10.2 10.2 0 0 1 5.512 9.049v18.398c0 5.633-4.579 10.199-10.227 10.199h-6.137v62.361h1.751c8.07 0 14.613 6.525 14.613 14.573S234.457 223 226.387 223H30.613c-8.07 0-14.612-6.524-14.613-14.572 0-8.049 6.542-14.574 14.613-14.574h1.751v-62.361h-6.136c-5.649 0-10.227-4.566-10.227-10.199zm45 28.597v62.361h24.546v-62.361zm53.182 0v62.361h29.659v-62.361zm57.273 62.361H196v-62.361h-24.545zM128.5 105.723c9.038 0 16.364-7.306 16.364-16.318s-7.326-16.318-16.364-16.318-16.363 7.306-16.363 16.318 7.326 16.318 16.363 16.318" clip-rule="evenodd"/></svg>