<svg xmlns="http://www.w3.org/2000/svg" fill="none" viewBox="0 0 256 256"><path fill="#000" d="M222.431 219c5.837 0 10.569-4.734 10.569-10.574s-4.732-10.574-10.569-10.574H33.569c-5.837 0-10.569 4.734-10.569 10.574S27.732 219 33.569 219z"/><path fill="#000" d="M212.935 40.73a7.73 7.73 0 0 0-7.726-7.73h-30.902a7.724 7.724 0 0 0-7.726 7.73v157.122h46.354zm-62.246 91.84a7.73 7.73 0 0 0-7.726-7.729H112.06a7.73 7.73 0 0 0-7.725 7.729v65.282h46.354zm-61.365-30.275a7.73 7.73 0 0 0-7.725-7.73H50.696a7.724 7.724 0 0 0-7.725 7.73v95.557h46.353z"/></svg>