<svg xmlns="http://www.w3.org/2000/svg" fill="none" viewBox="0 0 256 256"><path fill="#000" d="M51.063 197.652q-4.702 0-7.877-3.201T40 186.536c0-3.149 3.186-7.915 3.186-7.915l10.019-14.404a49.85 49.85 0 0 0 8.92-28.462v-24.808q0-23.065 13.828-40.984 13.828-17.92 35.953-23.488v-3.801q0-6.948 4.846-11.805Q121.597 26.01 128.5 26q6.914 0 11.759 4.869t4.835 11.805v3.8q22.125 5.559 35.953 23.489t13.828 40.984v24.8a49.85 49.85 0 0 0 8.928 28.473l10.022 14.401s3.182 4.773 3.175 7.915q0 4.724-3.186 7.926-3.186 3.2-7.877 3.19z"/><path fill="#000" fill-rule="evenodd" d="M128.827 231q-11.259 0-19.269-8.178-6.59-6.727-7.768-15.705h54.077q-1.17 8.969-7.758 15.705-8.01 8.192-19.282 8.178" clip-rule="evenodd"/></svg>
