<svg xmlns="http://www.w3.org/2000/svg" fill="none" viewBox="0 0 256 256"><path fill="#000" fill-rule="evenodd" d="M93.007 24.007A20.5 20.5 0 0 1 107.5 18h41A20.5 20.5 0 0 1 169 38.5V59h30.75a10.25 10.25 0 0 1 0 20.5v123c0 5.437-2.16 10.651-6.004 14.496A20.5 20.5 0 0 1 179.25 223H76.75a20.5 20.5 0 0 1-20.5-20.5v-123a10.25 10.25 0 1 1 0-20.5H87V38.5a20.5 20.5 0 0 1 6.007-14.494M107.5 59h41V38.5h-41zm10.25 41a10.25 10.25 0 0 0-20.5 0v82a10.251 10.251 0 0 0 20.5 0zm41 0a10.25 10.25 0 0 0-20.5 0v82a10.252 10.252 0 0 0 17.498 7.248A10.25 10.25 0 0 0 158.75 182z" clip-rule="evenodd"/></svg>
