<svg xmlns="http://www.w3.org/2000/svg" fill="none" viewBox="0 0 256 256"><path fill="#000" fill-rule="evenodd" d="M65.307 50.435C70.637 45.027 77.756 42 87.292 42c8.257 0 15.199 3.242 19.982 8.782 4.679 5.42 6.893 12.556 6.893 19.885v15.591C117.952 85.55 122.743 85 128.5 85s10.548.55 14.333 1.258V70.667c0-7.33 2.214-14.465 6.893-19.885 4.783-5.54 11.725-8.782 19.982-8.782 9.536 0 16.655 3.027 21.985 8.435 4.96 5.031 7.86 11.662 10.209 17.592l.285.749 30.551 81.482s1.16 3.273 1.306 3.759a46.6 46.6 0 0 1 1.956 13.4C236 193.144 215.144 214 189.417 214c-25.728 0-46.584-20.856-46.584-46.583v-27.082l-.018-.004c-3.077-.764-7.873-1.581-14.315-1.581s-11.238.817-14.315 1.581l-.018.004v27.082c0 25.727-20.856 46.583-46.584 46.583C41.856 214 21 193.144 21 167.417c0-4.658.683-9.156 1.956-13.4q.102-.466.27-.927.487-1.427 1.036-2.832l30.836-82.231c2.35-5.93 5.25-12.56 10.209-17.592m91.86 116.939c.022-17.792 14.453-32.207 32.25-32.207 13.604 0 25.241 8.423 29.979 20.339l.608 1.661a32.2 32.2 0 0 1 1.663 10.25c0 17.811-14.439 32.25-32.25 32.25-17.805 0-32.24-14.43-32.25-32.232v-.018m-89.584-32.25c-13.603 0-25.24 8.423-29.979 20.338l-.608 1.663a32.2 32.2 0 0 0-1.663 10.249c0 17.811 14.44 32.25 32.25 32.25s32.25-14.439 32.25-32.25-14.439-32.25-32.25-32.25" clip-rule="evenodd"/></svg>