<svg xmlns="http://www.w3.org/2000/svg" viewBox="0 0 844 257"><path fill-rule="evenodd" d="M232.609 124.508c12.463 10.86 15.332 22.979 15.467 39.606.138 16.981-2.726 29.502-15.467 40.579-7.34 6.382-16.269 8.609-23.18 10.334q-1.246.309-2.397.605v20.735c0 3.432-1.957 6.578-5.115 7.841-19.081 7.631-47.024 12.448-78.162 12.448s-59.08-4.817-78.161-12.448c-3.159-1.263-5.116-4.409-5.116-7.841v-20.735a219 219 0 0 0-2.627-.659l-.003-.001c-6.892-1.702-15.755-3.89-22.946-10.279C2.39 193.578.396 180.945.525 164.114c.127-16.474 2.148-28.708 14.377-39.606 8.134-7.249 18.34-11.072 27.063-11.072 0-34.963 33.587-63.586 76.107-65.945V32.682c-6.233-2.333-10.675-8.393-10.675-15.5 0-9.127 7.324-16.526 16.358-16.526s16.358 7.399 16.358 16.526c0 7.108-4.442 13.167-10.674 15.5v14.81c42.52 2.358 76.106 30.98 76.106 65.944 8.724 0 18.85 3.915 27.064 11.072M32.602 145.811a46.5 46.5 0 0 0-3.723 18.303c0 18.934 11.258 35.213 27.38 42.376h36.844c16.123-7.163 27.381-23.442 27.381-42.376 0-6.502-1.328-12.69-3.723-18.303zm100.329 0a46.5 46.5 0 0 0-3.723 18.303c0 18.934 11.258 35.213 27.38 42.376h36.844c16.122-7.163 27.38-23.442 27.38-42.376 0-6.502-1.327-12.69-3.722-18.303z" clip-rule="evenodd"/><path fill-rule="evenodd" d="M232.609 124.508c12.463 10.86 15.332 22.979 15.467 39.606.138 16.981-2.726 29.502-15.467 40.579-7.34 6.382-16.269 8.609-23.18 10.334q-1.246.309-2.397.605v20.735c0 3.432-1.957 6.578-5.115 7.841-19.081 7.631-47.024 12.448-78.162 12.448s-59.08-4.817-78.161-12.448c-3.159-1.263-5.116-4.409-5.116-7.841v-20.735a219 219 0 0 0-2.627-.659l-.003-.001c-6.892-1.702-15.755-3.89-22.946-10.279C2.39 193.578.396 180.945.525 164.114c.127-16.474 2.148-28.708 14.377-39.606 8.134-7.249 18.34-11.072 27.063-11.072 0-34.963 33.587-63.586 76.107-65.945V32.682c-6.233-2.333-10.675-8.393-10.675-15.5 0-9.127 7.324-16.526 16.358-16.526s16.358 7.399 16.358 16.526c0 7.108-4.442 13.167-10.674 15.5v14.81c42.52 2.358 76.106 30.98 76.106 65.944 8.724 0 18.85 3.915 27.064 11.072M32.602 145.811a46.5 46.5 0 0 0-3.723 18.303c0 18.934 11.258 35.213 27.38 42.376h36.844c16.123-7.163 27.381-23.442 27.381-42.376 0-6.502-1.328-12.69-3.723-18.303zm100.329 0a46.5 46.5 0 0 0-3.723 18.303c0 18.934 11.258 35.213 27.38 42.376h36.844c16.122-7.163 27.38-23.442 27.38-42.376 0-6.502-1.327-12.69-3.722-18.303z" clip-rule="evenodd"/><path d="M146.492 152.996h22.685c1.089 0 1.972.893 1.972 1.994v22.925a1.98 1.98 0 0 1-1.972 1.993h-22.685a1.983 1.983 0 0 1-1.973-1.993V154.99c0-1.101.883-1.994 1.973-1.994"/><path d="M146.492 152.996h22.685c1.089 0 1.972.893 1.972 1.994v22.925a1.98 1.98 0 0 1-1.972 1.993h-22.685a1.983 1.983 0 0 1-1.973-1.993V154.99c0-1.101.883-1.994 1.973-1.994m-99.616 0h21.698c1.09 0 1.973.893 1.973 1.994v22.925a1.983 1.983 0 0 1-1.973 1.993H46.876a1.983 1.983 0 0 1-1.973-1.993V154.99c0-1.101.883-1.994 1.973-1.994"/><path d="M46.876 152.996h21.698c1.09 0 1.973.893 1.973 1.994v22.925a1.983 1.983 0 0 1-1.973 1.993H46.876a1.983 1.983 0 0 1-1.973-1.993V154.99c0-1.101.883-1.994 1.973-1.994m581.488-28.884c16.385 0 24.767 5.36 31.455 12.459 6.944 7.228 9.815 17.642 9.815 30.033v57.024h-24.885v-56.341q0-9.487-5.208-14.714-5.016-5.228-13.889-5.228-9.838 0-15.626 6.196-5.594 6.001-5.594 17.812v52.275h-24.885v-99.516h24.885v8.055s7.546-8.055 23.932-8.055m150.917 59.869h-71.198q4.722 17.753 26.628 17.753 13.976 0 21.152-9.443l19.641 11.332q-13.975 20.208-41.17 20.208-23.418 0-37.582-14.165t-14.164-35.695q0-21.152 13.975-35.506 13.787-14.353 35.882-14.353 20.962 0 34.182 14.353 13.598 14.354 13.598 35.506 0 3.966-.944 10.01m-71.576-18.886h48.158q-2.077-9.254-8.499-14.165-6.231-4.91-14.919-4.91-9.82 0-16.241 5.099-6.421 4.91-8.499 13.976m-330.671-8.647q17.04 9.809 17.04 29.611 0 16.471-11.669 27.02-11.668 10.55-28.708 10.549h-55.009V94.08h51.119q16.484 0 27.968 10.364 11.483 10.363 11.483 26.095 0 16.1-12.224 25.909m-27.227-38.494h-25.56v28.5h25.56q5.927 0 9.817-4.071 4.074-4.071 4.074-10.179 0-6.107-3.889-10.179-3.89-4.071-10.002-4.071m-25.56 81.8h29.45q6.482 0 10.742-4.256 4.26-4.443 4.26-11.105 0-6.477-4.26-10.734-4.26-4.441-10.742-4.441h-29.45zm242.347-52.339h-26.095v44.022c0 4.336 3.544 7.852 7.916 7.852h18.179v24.339h-20.551c-16.615 0-30.087-13.365-30.087-29.843v-86.358l24.416-13.347v29.835h26.222zm277.326 0h-26.094v44.022c0 4.336 3.544 7.852 7.916 7.852h18.178v24.339h-20.55c-16.616 0-30.087-13.365-30.087-29.843v-86.358l24.416-13.347v29.835h26.221zm-354.312 62.121q-14.314 14.295-35.41 14.295-21.094 0-35.409-14.295t-14.315-35.361q0-20.878 14.315-35.173 14.503-14.483 35.409-14.483 20.907 0 35.41 14.483t14.503 35.173q0 20.879-14.503 35.361m-53.679-16.74q7.346 7.335 18.269 7.335 10.925 0 18.27-7.335 7.346-7.335 7.346-18.621t-7.346-18.621-18.27-7.335-18.269 7.335q-7.158 7.524-7.158 18.621t7.158 18.621"/></svg>
