<svg xmlns="http://www.w3.org/2000/svg" fill="none" viewBox="0 0 256 256"><path fill="url(#paint0_radial_7881_783)" fill-rule="evenodd" d="M220.367 111.559c10.598 9.241 13.037 19.554 13.152 33.703.117 14.45-2.318 25.106-13.152 34.532-6.241 5.43-13.832 7.326-19.709 8.793q-1.06.263-2.038.516v17.644c0 2.92-1.664 5.597-4.349 6.672-16.224 6.494-39.983 10.593-66.459 10.593s-50.235-4.099-66.459-10.593c-2.686-1.075-4.35-3.752-4.35-6.672v-17.644c-.71-.185-1.46-.37-2.236-.562-5.86-1.448-13.396-3.311-19.51-8.747-10.639-9.459-12.335-20.209-12.225-34.532.108-14.018 1.826-24.429 12.224-33.703 6.916-6.168 15.594-9.422 23.012-9.422 0-29.752 28.558-54.109 64.711-56.116v-12.01c-5.299-1.985-9.076-7.141-9.076-13.19 0-7.766 6.227-14.062 13.909-14.062s13.909 6.296 13.909 14.062c0 6.049-3.777 11.205-9.076 13.19v12.01c36.153 2.007 64.711 26.364 64.711 56.116 7.418 0 16.028 3.332 23.011 9.422m-170.06 18.128a39.6 39.6 0 0 0-3.166 15.575c0 16.113 9.572 29.965 23.28 36.061h31.328c13.709-6.096 23.281-19.948 23.281-36.061a39.6 39.6 0 0 0-3.165-15.575zm85.306 0a39.6 39.6 0 0 0-3.165 15.575c0 16.113 9.572 29.965 23.281 36.061h31.327c13.709-6.096 23.281-19.948 23.281-36.061a39.6 39.6 0 0 0-3.165-15.575z" clip-rule="evenodd"/><path fill="url(#paint1_radial_7881_783)" d="M147.144 135.802h19.289c.926 0 1.677.759 1.677 1.696v19.508c0 .937-.751 1.697-1.677 1.697h-19.289c-.926 0-1.677-.76-1.677-1.697v-19.508c0-.937.751-1.696 1.677-1.696"/><path fill="url(#paint2_radial_7881_783)" d="M62.443 135.802h18.45c.926 0 1.677.759 1.677 1.696v19.508c0 .937-.751 1.697-1.677 1.697h-18.45c-.926 0-1.677-.76-1.677-1.697v-19.508c0-.937.75-1.696 1.677-1.696"/><defs><radialGradient id="paint0_radial_7881_783" cx="0" cy="0" r="1" gradientTransform="matrix(105.24821 152.2474 -122.78584 84.88152 90.957 61.587)" gradientUnits="userSpaceOnUse"><stop stop-color="#6D95FE"/><stop offset=".677" stop-color="#477BFF"/><stop offset="1" stop-color="#1543D8"/></radialGradient><radialGradient id="paint1_radial_7881_783" cx="0" cy="0" r="1" gradientTransform="matrix(105.24821 152.2474 -122.78584 84.88152 90.957 61.587)" gradientUnits="userSpaceOnUse"><stop stop-color="#6D95FE"/><stop offset=".677" stop-color="#477BFF"/><stop offset="1" stop-color="#1543D8"/></radialGradient><radialGradient id="paint2_radial_7881_783" cx="0" cy="0" r="1" gradientTransform="matrix(105.24821 152.2474 -122.78584 84.88152 90.957 61.587)" gradientUnits="userSpaceOnUse"><stop stop-color="#6D95FE"/><stop offset=".677" stop-color="#477BFF"/><stop offset="1" stop-color="#1543D8"/></radialGradient></defs></svg>