<svg xmlns="http://www.w3.org/2000/svg" viewBox="0 0 841 257"><path fill-rule="evenodd" d="M231.204 124.774c12.414 10.817 15.272 22.889 15.407 39.451.137 16.915-2.716 29.387-15.407 40.421-7.311 6.357-16.205 8.575-23.09 10.293q-1.24.307-2.387.604v20.654c0 3.418-1.949 6.551-5.095 7.81-19.006 7.601-46.84 12.399-77.856 12.399-31.017 0-58.85-4.798-77.856-12.399-3.146-1.259-5.096-4.392-5.096-7.81v-20.654c-.832-.217-1.707-.433-2.617-.657l-.003-.001c-6.865-1.695-15.693-3.875-22.856-10.239C1.885 193.574-.102 180.991.028 164.225c.125-16.409 2.138-28.596 14.32-39.451 8.102-7.221 18.267-11.029 26.957-11.029 0-34.826 33.456-63.337 75.809-65.687v-15.75c-6.208-2.325-10.632-8.36-10.632-15.44 0-9.092 7.295-16.462 16.294-16.462s16.294 7.37 16.294 16.461c0 7.08-4.425 13.116-10.633 15.44v15.751c42.354 2.35 75.809 30.86 75.809 65.687 8.69 0 18.777 3.9 26.958 11.029m-199.226 21.22a46.3 46.3 0 0 0-3.708 18.231c0 18.861 11.214 35.076 27.274 42.211h36.7c16.059-7.135 27.273-23.35 27.273-42.211 0-6.476-1.322-12.64-3.708-18.231zm99.937 0a46.3 46.3 0 0 0-3.708 18.231c0 18.861 11.214 35.076 27.274 42.211h36.699c16.06-7.135 27.274-23.35 27.274-42.211 0-6.476-1.322-12.64-3.708-18.231z" clip-rule="evenodd"/><path fill-rule="evenodd" d="M231.204 124.774c12.414 10.817 15.272 22.889 15.407 39.451.137 16.915-2.716 29.387-15.407 40.421-7.311 6.357-16.205 8.575-23.09 10.293q-1.24.307-2.387.604v20.654c0 3.418-1.949 6.551-5.095 7.81-19.006 7.601-46.84 12.399-77.856 12.399-31.017 0-58.85-4.798-77.856-12.399-3.146-1.259-5.096-4.392-5.096-7.81v-20.654c-.832-.217-1.707-.433-2.617-.657l-.003-.001c-6.865-1.695-15.693-3.875-22.856-10.239C1.885 193.574-.102 180.991.028 164.225c.125-16.409 2.138-28.596 14.32-39.451 8.102-7.221 18.267-11.029 26.957-11.029 0-34.826 33.456-63.337 75.809-65.687v-15.75c-6.208-2.325-10.632-8.36-10.632-15.44 0-9.092 7.295-16.462 16.294-16.462s16.294 7.37 16.294 16.461c0 7.08-4.425 13.116-10.633 15.44v15.751c42.354 2.35 75.809 30.86 75.809 65.687 8.69 0 18.777 3.9 26.958 11.029m-199.226 21.22a46.3 46.3 0 0 0-3.708 18.231c0 18.861 11.214 35.076 27.274 42.211h36.7c16.059-7.135 27.273-23.35 27.273-42.211 0-6.476-1.322-12.64-3.708-18.231zm99.937 0a46.3 46.3 0 0 0-3.708 18.231c0 18.861 11.214 35.076 27.274 42.211h36.699c16.06-7.135 27.274-23.35 27.274-42.211 0-6.476-1.322-12.64-3.708-18.231z" clip-rule="evenodd"/><path d="M145.423 153.151h22.597c1.085 0 1.965.889 1.965 1.986v22.835c0 1.097-.88 1.986-1.965 1.986h-22.597a1.975 1.975 0 0 1-1.964-1.986v-22.835c0-1.097.879-1.986 1.964-1.986"/><path d="M145.423 153.151h22.597c1.085 0 1.965.889 1.965 1.986v22.835c0 1.097-.88 1.986-1.965 1.986h-22.597a1.975 1.975 0 0 1-1.964-1.986v-22.835c0-1.097.879-1.986 1.964-1.986m-99.227 0H67.81c1.085 0 1.965.889 1.965 1.986v22.835c0 1.097-.88 1.986-1.965 1.986H46.196a1.975 1.975 0 0 1-1.964-1.986v-22.835c0-1.097.88-1.986 1.964-1.986"/><path d="M46.196 153.151H67.81c1.085 0 1.965.889 1.965 1.986v22.835c0 1.097-.88 1.986-1.965 1.986H46.196a1.975 1.975 0 0 1-1.964-1.986v-22.835c0-1.097.88-1.986 1.964-1.986"/><path fill-rule="evenodd" d="M128.207 164.225c0-6.476 1.322-12.64 3.708-18.231h83.831a46.3 46.3 0 0 1 3.708 18.231c0 18.861-11.214 35.076-27.274 42.211h-36.699c-16.06-7.135-27.274-23.35-27.274-42.211m39.813-11.074h-22.597a1.975 1.975 0 0 0-1.964 1.986v22.835c0 1.097.879 1.986 1.964 1.986h22.597a1.976 1.976 0 0 0 1.965-1.986v-22.835c0-1.097-.88-1.986-1.965-1.986" clip-rule="evenodd"/><path fill-rule="evenodd" d="M128.207 164.225c0-6.476 1.322-12.64 3.708-18.231h83.831a46.3 46.3 0 0 1 3.708 18.231c0 18.861-11.214 35.076-27.274 42.211h-36.699c-16.06-7.135-27.274-23.35-27.274-42.211m39.813-11.074h-22.597a1.975 1.975 0 0 0-1.964 1.986v22.835c0 1.097.879 1.986 1.964 1.986h22.597a1.976 1.976 0 0 0 1.965-1.986v-22.835c0-1.097-.88-1.986-1.965-1.986M28.27 164.225a46.3 46.3 0 0 1 3.708-18.231h83.831a46.3 46.3 0 0 1 3.708 18.231c0 18.861-11.214 35.076-27.274 42.211h-36.7c-16.059-7.135-27.273-23.35-27.273-42.211m39.54-11.074H46.196a1.975 1.975 0 0 0-1.964 1.986v22.835c0 1.097.88 1.986 1.964 1.986H67.81a1.975 1.975 0 0 0 1.965-1.986v-22.835c0-1.097-.88-1.986-1.965-1.986" clip-rule="evenodd"/><path fill-rule="evenodd" d="M28.27 164.225a46.3 46.3 0 0 1 3.708-18.231h83.831a46.3 46.3 0 0 1 3.708 18.231c0 18.861-11.214 35.076-27.274 42.211h-36.7c-16.059-7.135-27.273-23.35-27.273-42.211m39.54-11.074H46.196a1.975 1.975 0 0 0-1.964 1.986v22.835c0 1.097.88 1.986 1.964 1.986H67.81a1.975 1.975 0 0 0 1.965-1.986v-22.835c0-1.097-.88-1.986-1.965-1.986" clip-rule="evenodd"/><path d="M625.414 124.381c16.322 0 24.671 5.34 31.332 12.411 6.918 7.2 9.777 17.573 9.777 29.915v56.802h-24.787v-56.121q0-9.45-5.189-14.657-4.995-5.208-13.835-5.207-9.8 0-15.564 6.171-5.572 5.979-5.572 17.743v52.071h-24.788v-99.128h24.788v8.024s7.516-8.024 23.838-8.024m150.327 59.635h-70.919q4.702 17.684 26.524 17.684 13.92 0 21.069-9.406l19.564 11.287q-13.92 20.13-41.009 20.13-23.326 0-37.435-14.11t-14.109-35.555q0-21.07 13.921-35.368 13.732-14.297 35.742-14.297 20.88 0 34.048 14.297 13.545 14.298 13.545 35.368 0 3.95-.941 9.97m-71.295-18.812h47.969q-2.07-9.218-8.465-14.109-6.209-4.892-14.861-4.892-9.783 0-16.178 5.08-6.396 4.891-8.465 13.921m-329.38-8.613q16.973 9.771 16.973 29.495 0 16.407-11.623 26.915t-28.596 10.508h-54.795V94.467h50.92q16.42 0 27.859 10.323t11.438 25.993q0 16.038-12.176 25.808m-27.121-38.344h-25.46v28.39h25.46q5.905 0 9.778-4.056 4.059-4.055 4.059-10.139t-3.874-10.139q-3.875-4.056-9.963-4.056m-25.46 81.481h29.335q6.457 0 10.7-4.24 4.244-4.423 4.244-11.061 0-6.452-4.244-10.692-4.243-4.424-10.7-4.424h-29.335zm241.4-52.134h-25.993v43.85c0 4.319 3.53 7.82 7.886 7.82h18.107v24.245h-20.471c-16.55 0-29.968-13.313-29.968-29.727v-86.02l24.32-13.295v29.719h26.119zm276.244 0h-25.993v43.85c0 4.319 3.53 7.82 7.885 7.82h18.108v24.245h-20.471c-16.55 0-29.969-13.313-29.969-29.727v-86.02l24.321-13.295v29.719h26.119zM487.2 209.472q-14.259 14.239-35.271 14.239-21.014 0-35.271-14.239-14.259-14.24-14.259-35.223 0-20.796 14.259-35.036 14.446-14.426 35.271-14.426 20.824 0 35.271 14.426t14.446 35.036q0 20.796-14.446 35.223m-53.47-16.675q7.317 7.307 18.199 7.307 10.881 0 18.198-7.307t7.317-18.548-7.317-18.548-18.198-7.307-18.199 7.307q-7.129 7.494-7.129 18.548t7.129 18.548"/></svg>