<svg xmlns="http://www.w3.org/2000/svg" fill="none" viewBox="0 0 256 256"><path fill="#000" d="M19.45 149.981 32.795 70h34.86q9.186 0 15.036 2.46 5.888 2.46 8.322 6.952 2.473 4.491 1.453 10.583a19.6 19.6 0 0 1-3.376 8.006q-2.552 3.593-6.478 6.093-3.886 2.46-8.676 3.397l-.157.781q5.182.157 9.03 2.578 3.846 2.382 5.652 6.639 1.806 4.218.864 9.841-1.099 6.562-5.378 11.677-4.28 5.117-11.11 8.045-6.83 2.93-15.545 2.929zm24.81-17.339h10.206q5.418 0 8.519-2.07 3.14-2.07 3.73-6.054.47-2.811-.472-4.764t-3.18-2.968-5.613-1.015H46.929zm5.024-30.306h8.95q2.827 0 5.183-.898t3.886-2.617q1.53-1.718 1.924-4.14.588-3.749-1.806-5.701-2.355-1.953-6.36-1.953h-9.264zm52.172-14.84L104.44 70h69.877l-2.984 17.496h-24.182l-10.364 62.485h-21.512l10.363-62.485z"/><path fill="#000" fill-rule="evenodd" d="M169.184 149.981 182.531 70h34.703q8.95 0 15.114 3.241 6.163 3.242 8.872 9.334 2.71 6.093 1.295 14.606-1.413 8.592-6.241 14.489-4.472 5.469-11.236 8.488l11.353 29.823H212.68l-9.711-26.4h-7.524l-4.434 26.4zm43.496-44.208q-2.904.937-6.752.937h-7.65l3.253-19.37h7.695q3.768 0 6.32 1.054 2.552 1.015 3.651 3.203 1.1 2.147.55 5.584t-2.356 5.546q-1.806 2.07-4.711 3.046" clip-rule="evenodd"/><path fill="#000" d="M39.427 169.511q.163-2.29-1.22-3.545-1.362-1.255-4.31-1.255-1.953 0-3.335.506-1.383.486-2.176 1.377a4 4 0 0 0-.996 2.026q-.183.91.102 1.62.285.708.996 1.256.732.546 1.81.951 1.098.406 2.46.709l3.416.81q2.97.669 5.144 1.783 2.197 1.093 3.559 2.653a8.4 8.4 0 0 1 1.87 3.544q.51 2.005.082 4.497-.651 3.929-3.111 6.744-2.44 2.816-6.385 4.314Q33.41 199 28.203 199q-5.205 0-8.845-1.56-3.619-1.58-5.246-4.759-1.626-3.18-.874-8.021h9.618q-.224 2.006.508 3.342.752 1.337 2.318 2.026t3.782.688q2.034 0 3.558-.547 1.545-.547 2.46-1.519.936-.971 1.14-2.228.203-1.154-.387-2.005-.57-.85-1.952-1.478-1.362-.629-3.579-1.134l-4.168-1.013q-5.165-1.256-7.828-4.01-2.644-2.755-1.871-7.474.651-3.869 3.213-6.765 2.582-2.895 6.527-4.496 3.964-1.62 8.723-1.62 4.839 0 8.133 1.64 3.315 1.62 4.779 4.578 1.485 2.936.853 6.866zm42.599-12.517h10.045l-4.453 26.755q-.772 4.638-3.559 8.081-2.765 3.423-7.055 5.307Q72.714 199 67.447 199q-5.287 0-8.926-1.863-3.64-1.884-5.267-5.307-1.626-3.443-.874-8.081l4.453-26.755h10.065l-4.331 25.884q-.345 2.147.325 3.828a5.58 5.58 0 0 0 2.237 2.633q1.545.952 3.782.952 2.257 0 4.128-.952a8.8 8.8 0 0 0 3.09-2.633q1.221-1.681 1.566-3.828zm9.44 41.479 6.913-41.479h17.202q4.677 0 7.788 1.802t4.412 5.044q1.302 3.24.59 7.514-.691 4.313-3.111 7.514-2.399 3.2-6.181 4.962t-8.601 1.762H99.884l1.322-7.899h8.743q2.297 0 3.965-.79 1.688-.79 2.704-2.207 1.017-1.419 1.342-3.342.305-1.924-.244-3.322-.549-1.417-1.972-2.187-1.403-.77-3.66-.77h-4.961l-5.592 33.398zm37.297 0 6.913-41.479h17.202q4.677 0 7.788 1.802t4.412 5.044q1.302 3.24.59 7.514-.692 4.313-3.111 7.514-2.4 3.2-6.182 4.962-3.781 1.762-8.601 1.762h-10.593l1.321-7.899h8.744q2.297 0 3.965-.79 1.687-.79 2.704-2.207 1.017-1.419 1.342-3.342.305-1.924-.244-3.322-.549-1.417-1.972-2.187-1.404-.77-3.66-.77h-4.962l-5.591 33.398zm37.296 0 6.914-41.479h10.065l-5.531 33.337h17.324l-1.383 8.142zm31.009-41.479h11.244l5.897 17.357h.427l11.651-17.357h11.244l-19.825 27.626-2.318 13.853h-10.004l2.338-13.853z"/></svg>
