<svg xmlns="http://www.w3.org/2000/svg" fill="none" viewBox="0 0 256 256"><path fill="#000" d="M18.419 159.111h9.77l4.94 19.749h.383l11.635-19.749h9.77l-5.42 31.898h-7.681l3.33-19.594h-.27L33.75 190.806h-4.893l-4.526-19.5h-.271l-3.379 19.703H13zm43.06 31.898h-8.48l16.433-31.898h10.503l5.594 31.898H77.05l-3.586-23.861h-.255zm1.02-12.554h17.723l-1.02 5.856H61.479zm26.544 12.554 5.419-31.898h13.483q3.666 0 6.12 1.293 2.455 1.278 3.491 3.676 1.035 2.383.478 5.653-.542 3.303-2.423 5.623-1.864 2.305-4.813 3.52-2.932 1.215-6.662 1.215H95.61l1.051-6.075h7.061q1.769 0 3.06-.451 1.291-.468 2.056-1.402.781-.95 1.036-2.43.239-1.479-.223-2.445-.447-.981-1.578-1.464-1.116-.498-2.869-.498h-3.889l-4.383 25.683zm20.847-14.578 5.658 14.578h-8.607l-5.482-14.578zm9.22 14.578 5.419-31.898h7.889l-2.279 13.488h.43l13.069-13.488h9.292l-13.946 14.236 8.734 17.662h-9.435l-5.929-12.538-3.889 3.94-1.466 8.598zm31.513 0 5.419-31.898h22.759l-1.084 6.261h-14.87l-1.084 6.542h13.707l-1.084 6.277H160.68l-1.084 6.556h14.87l-1.084 6.262zm30.967-25.637 1.084-6.261h27.588l-1.084 6.261h-9.897l-4.335 25.637h-7.778l4.335-25.637zm48.511 3.365q.127-1.76-.957-2.726-1.068-.966-3.379-.966-1.53 0-2.613.39-1.084.373-1.706 1.059a3.04 3.04 0 0 0-.781 1.557q-.143.702.08 1.246.223.546.781.966.573.42 1.418.732.861.312 1.929.545l2.677.623q2.328.515 4.033 1.371 1.72.84 2.789 2.04a6.4 6.4 0 0 1 1.466 2.726q.399 1.541.064 3.457-.51 3.021-2.439 5.187-1.912 2.165-5.004 3.317-3.076 1.153-7.156 1.153t-6.933-1.2q-2.837-1.215-4.112-3.66t-.685-6.167h7.538q-.175 1.541.399 2.569.589 1.029 1.817 1.558t2.964.529q1.594 0 2.789-.42 1.211-.42 1.929-1.168.733-.749.892-1.713.159-.888-.303-1.542-.445-.654-1.53-1.137-1.068-.483-2.805-.872l-3.267-.779q-4.048-.966-6.136-3.084-2.072-2.118-1.466-5.747a10.2 10.2 0 0 1 2.518-5.202q2.024-2.227 5.116-3.458 3.108-1.245 6.837-1.246 3.793 0 6.375 1.262 2.598 1.246 3.746 3.52 1.163 2.257.669 5.28zM19.137 151.488 32.503 71h34.909q9.198 0 15.056 2.476 5.897 2.476 8.334 6.996 2.477 4.52 1.454 10.65a19.76 19.76 0 0 1-3.38 8.057q-2.556 3.615-6.487 6.131-3.891 2.475-8.688 3.419l-.157.786q5.19.157 9.042 2.594 3.852 2.397 5.66 6.681 1.81 4.245.866 9.904-1.101 6.603-5.386 11.751T72.6 148.541q-6.84 2.947-15.568 2.947zm24.845-17.449h10.22q5.426 0 8.531-2.083 3.145-2.083 3.735-6.092.471-2.829-.472-4.795t-3.184-2.986q-2.241-1.023-5.622-1.022H46.655zm5.032-30.498h8.963q2.83 0 5.189-.904 2.358-.903 3.892-2.633t1.926-4.166q.59-3.773-1.808-5.738-2.36-1.965-6.369-1.965H51.53zm52.245-14.934L104.247 71h69.974l-2.987 17.607h-24.216l-10.379 62.881h-21.542l10.378-62.881z"/><path fill="#000" fill-rule="evenodd" d="M169.081 151.488 182.447 71h34.752q8.963 0 15.135 3.262t8.884 9.393 1.298 14.698q-1.415 8.647-6.251 14.581-4.478 5.505-11.252 8.542l11.37 30.012h-23.744l-9.725-26.567h-7.535l-4.44 26.567zM212.639 107q-2.91.943-6.762.943h-7.661l3.258-19.493h7.705q3.774 0 6.329 1.06 2.556 1.023 3.656 3.223 1.101 2.162.551 5.62t-2.359 5.581q-1.808 2.083-4.717 3.066" clip-rule="evenodd"/></svg>
