<svg xmlns="http://www.w3.org/2000/svg" fill="none" viewBox="0 0 1024 586">
  <path fill="#000" d="m25.6 460.7 55.7-335H227a163 163 0 0 1 62.8 10.2 66.9 66.9 0 0 1 34.8 29.2 67 67 0 0 1 6 44.3 82.1 82.1 0 0 1-14 33.5 96 96 0 0 1-27.1 25.6 104.4 104.4 0 0 1-36.3 14.2l-.6 3.3c14.4.4 27 4 37.7 10.8a59 59 0 0 1 23.6 27.8 73 73 0 0 1 3.6 41.2c-3 18.3-10.5 34.6-22.4 49a121.9 121.9 0 0 1-46.4 33.6c-19 8.2-40.7 12.3-65 12.3h-158ZM129.2 388h42.6c15.1 0 27-3 35.6-8.7A35 35 0 0 0 223 354a33 33 0 0 0-2-20 26 26 0 0 0-13.3-12.4c-6.2-2.8-14-4.2-23.4-4.2h-44L129.3 388Zm21-127h37.4c7.8 0 15-1.3 21.6-3.8 6.6-2.5 12-6.1 16.2-11 4.3-4.7 7-10.5 8-17.3 1.7-10.4-.8-18.4-7.5-23.8a40.3 40.3 0 0 0-26.5-8.2h-38.7L150.2 261ZM368 199l12.5-73.4h291.9L659.9 199h-101l-43.3 261.8h-89.8L469 198.9H368ZM91.4 83h916.9L1024 0H107.1L91.4 83ZM0 586h916.9l15.7-83H15.7L0 586Z"/>
  <path fill="#000" fill-rule="evenodd" d="m651 460.7 55.7-335h144.9c25 0 46 4.5 63.1 13.5a80 80 0 0 1 37 39.1c7.6 17 9.4 37.4 5.5 61.2-4 24-12.6 44.2-26 60.7a125.8 125.8 0 0 1-47 35.6l47.4 124.9h-99L792 350h-31.4l-18.5 110.6h-91.2Zm181.6-185.2c-8.1 2.6-17.5 4-28.2 4h-32l13.6-81.2h32.2c10.4 0 19.2 1.5 26.3 4.4a27.7 27.7 0 0 1 15.3 13.4 38 38 0 0 1 2.3 23.4 46.2 46.2 0 0 1-9.8 23.2c-5 5.8-11.6 10-19.7 12.8Z" clip-rule="evenodd"/>
</svg>