<svg xmlns="http://www.w3.org/2000/svg" fill="none" viewBox="0 0 1024 421"><path fill="#000" fill-rule="evenodd" d="m655 373 53-317h137c24 0 44 4 60 13a76 76 0 0 1 35 37c7 16 9 35 5 58-3 23-12 42-24 57a119 119 0 0 1-45 34l45 118h-94l-38-105h-30l-18 105h-86Zm172-175a87 87 0 0 1-27 4h-30l13-77h30c10 0 19 1 25 4 7 3 12 7 15 13 3 5 4 13 2 22-1 9-4 16-9 22-5 5-11 9-19 12ZM61 373l53-317h138c24 0 44 3 60 10a63 63 0 0 1 33 27 63 63 0 0 1 6 42 78 78 0 0 1-14 32 91 91 0 0 1-26 24 99 99 0 0 1-34 14l-1 3c14 0 26 4 36 10a56 56 0 0 1 23 26c4 11 6 24 3 39a95 95 0 0 1-21 47 116 116 0 0 1-44 32c-18 7-39 11-62 11H61Zm139-69h-40l10-66h42a54 54 0 0 1 22 4c6 2 10 6 13 11a31 31 0 0 1 2 19 33 33 0 0 1-15 24 60 60 0 0 1-34 8Zm15-120h-36l10-60h37c11 0 19 2 25 7 7 6 9 13 7 23-1 6-3 12-7 16-4 5-9 8-16 11-6 2-13 3-20 3Z" clip-rule="evenodd"/><path fill="#fff" fill-rule="evenodd" d="M954 421H0L71 1h953l-70 420ZM708 56l-53 317h86l18-105h30l38 105h94l-45-118a118 118 0 0 0 69-91c4-23 2-42-5-58a76 76 0 0 0-35-37 128 128 0 0 0-60-13H708Zm92 146c10 0 19-2 27-4a42 42 0 0 0 19-12 44 44 0 0 0 9-22c2-9 1-17-2-22-3-6-8-10-15-13-6-3-15-4-25-4h-30l-13 77h30ZM61 373l53-317h138c24 0 44 3 60 10a63 63 0 0 1 33 27 63 63 0 0 1 6 42 78 78 0 0 1-14 32 91 91 0 0 1-26 24 99 99 0 0 1-34 14l-1 3c14 0 26 4 36 10a56 56 0 0 1 23 26c4 11 6 24 3 39a95 95 0 0 1-21 47 116 116 0 0 1-44 32c-18 7-39 11-62 11H61Zm139-69h-41l11-66h42a54 54 0 0 1 22 4c6 2 10 6 13 11a31 31 0 0 1 1 19 33 33 0 0 1-14 24 60 60 0 0 1-34 8Zm15-120h-36l10-60h37c11 0 19 2 25 7 7 6 9 13 7 23-1 6-3 12-7 16-4 5-9 8-16 11-6 2-13 3-20 3ZM395 56l-12 69h96l-41 248h86l41-247h96l11-70H395Z" clip-rule="evenodd"/><path fill="#000" d="m384 126 11-70h277l-12 69h-95l-41 248h-86l41-248h-95Z"/></svg>
