<svg width="256" height="256" viewBox="0 0 256 256" fill="none" xmlns="http://www.w3.org/2000/svg">
<path d="M227.995 140.851C227.808 147.66 222.051 153 215.24 153H193.625V159.25C193.625 167.791 191.718 175.884 188.312 183.135L211.839 206.661C216.72 211.543 216.72 219.457 211.839 224.339C206.957 229.221 199.042 229.22 194.161 224.339L172.78 202.958C163.112 210.799 150.793 215.5 137.375 215.5V120.187C137.375 117.599 135.276 115.5 132.687 115.5H123.312C120.724 115.5 118.625 117.599 118.625 120.187V215.5C105.206 215.5 92.8881 210.799 83.2201 202.958L61.8388 224.339C56.9568 229.221 49.0424 229.22 44.1607 224.339C39.2791 219.458 39.2795 211.543 44.1607 206.661L67.6873 183.135C64.2818 175.884 62.3748 167.791 62.3748 159.25V153H40.7599C33.949 153 28.1916 147.66 28.0048 140.851C27.8107 133.787 33.4795 128 40.4998 128H62.3748V105.053L44.1607 86.8386C39.2795 81.957 39.2795 74.0425 44.1607 69.1609C49.0427 64.2793 56.9568 64.2793 61.8388 69.1609L83.1775 90.5H172.822L194.16 69.1613C199.042 64.2797 206.956 64.2797 211.839 69.1613C216.72 74.0429 216.72 81.9574 211.839 86.839L193.625 105.053V128H215.5C222.52 128 228.189 133.787 227.995 140.851ZM128.39 28C104.228 28 84.6404 47.5875 84.6404 71.75H172.14C172.14 47.5875 152.553 28 128.39 28Z" fill="black"/>
</svg>
