<svg xmlns="http://www.w3.org/2000/svg" fill="none" viewBox="0 0 256 256"><path fill="#000" d="M227.995 140.851C227.808 147.66 222.051 153 215.24 153h-21.615v6.25a56 56 0 0 1-5.313 23.885l23.527 23.526c4.881 4.882 4.881 12.796 0 17.678s-12.797 4.881-17.678 0l-21.381-21.381a56 56 0 0 1-35.405 12.542v-95.313a4.69 4.69 0 0 0-4.688-4.687h-9.375a4.69 4.69 0 0 0-4.687 4.687V215.5c-13.419 0-25.737-4.701-35.405-12.542l-21.38 21.381c-4.882 4.882-12.797 4.881-17.678 0s-4.882-12.796 0-17.678l23.526-23.526a56 56 0 0 1-5.312-23.885V153H40.76c-6.811 0-12.568-5.34-12.755-12.149C27.81 133.787 33.48 128 40.5 128h21.875v-22.947L44.16 86.839c-4.882-4.882-4.882-12.796 0-17.678s12.796-4.882 17.678 0L83.177 90.5h89.645l21.338-21.339c4.882-4.881 12.796-4.881 17.679 0 4.881 4.882 4.881 12.796 0 17.678l-18.214 18.214V128H215.5c7.02 0 12.689 5.787 12.495 12.851M128.39 28c-24.162 0-43.75 19.588-43.75 43.75h87.5c0-24.162-19.587-43.75-43.75-43.75"/></svg>
