<svg width="256" height="256" viewBox="0 0 256 256" fill="none" xmlns="http://www.w3.org/2000/svg">
<path d="M110 145C112.167 145 114.21 144.833 116.13 144.5C118.05 144.167 119.923 143.667 121.75 143L159.5 180.5L180.5 159.5L143 121.75C143.667 119.917 144.167 118.083 144.5 116.25C144.833 114.417 145 112.333 145 110C145 100.5 141.627 92.3766 134.88 85.63C128.133 78.8833 120.007 75.5066 110.5 75.5C107.667 75.5 104.833 75.8766 102 76.63C99.1666 77.3833 96.4166 78.4233 93.75 79.75L117.25 103.25L103.25 117.25L79.75 93.75C78.4166 96.4166 77.3766 99.1666 76.63 102C75.8833 104.833 75.5066 107.667 75.5 110.5C75.5 120 78.8766 128.127 85.63 134.88C92.3833 141.633 100.507 145.007 110 145ZM128 228C114.167 228 101.167 225.373 89 220.12C76.8333 214.867 66.25 207.743 57.25 198.75C48.25 189.757 41.1267 179.173 35.88 167C30.6333 154.827 28.0067 141.827 28 128C27.9933 114.173 30.62 101.173 35.88 89C41.14 76.8266 48.2633 66.2433 57.25 57.25C66.2367 48.2567 76.82 41.1333 89 35.88C101.18 30.6267 114.18 28 128 28C141.82 28 154.82 30.6267 167 35.88C179.18 41.1333 189.763 48.2567 198.75 57.25C207.737 66.2433 214.863 76.8266 220.13 89C225.397 101.173 228.02 114.173 228 128C227.98 141.827 225.353 154.827 220.12 167C214.887 179.173 207.763 189.757 198.75 198.75C189.737 207.743 179.153 214.87 167 220.13C154.847 225.39 141.847 228.013 128 228ZM128 208C150.333 208 169.25 200.25 184.75 184.75C200.25 169.25 208 150.333 208 128C208 105.667 200.25 86.75 184.75 71.25C169.25 55.75 150.333 48 128 48C105.667 48 86.75 55.75 71.25 71.25C55.75 86.75 48 105.667 48 128C48 150.333 55.75 169.25 71.25 184.75C86.75 200.25 105.667 208 128 208Z" fill="black"/>
</svg>
