<svg xmlns="http://www.w3.org/2000/svg" fill="none" viewBox="0 0 256 256"><path fill="#000" d="M110.229 144.895q2.847 0 5.371-.438a28.6 28.6 0 0 0 4.924-1.314l27.849 27.684c5.1 5.071 13.342 5.058 18.427-.027s5.098-13.327.027-18.427l-27.684-27.849a29.6 29.6 0 0 0 1.314-4.819q.438-2.41.438-5.476 0-12.486-8.867-21.353T110.667 84q-3.724 0-7.448.99a38.3 38.3 0 0 0-7.228 2.734l17.457 17.457a8.675 8.675 0 0 1-12.267 12.267L83.724 99.991a37.5 37.5 0 0 0-2.734 7.228 29.4 29.4 0 0 0-.99 7.448q0 12.485 8.876 21.361t21.353 8.867"/><path fill="#000" d="M128 228q-20.75 0-39-7.875T57.25 198.75 35.875 167 28 128t7.875-39T57.25 57.25 89 35.875 128 28t39 7.875 31.75 21.375T220.125 89 228 128t-7.875 39-21.375 31.75T167 220.125 128 228m0-20q33.5 0 56.75-23.25T208 128t-23.25-56.75T128 48 71.25 71.25 48 128t23.25 56.75T128 208"/></svg>