<svg xmlns="http://www.w3.org/2000/svg" fill="none" viewBox="0 0 256 256"><path fill="#000" d="M60.857 222.562v-13.437H47.43q-5.707 0-9.562-3.87-3.853-3.87-3.867-9.568V61.313q0-5.712 3.867-9.568 3.868-3.857 9.562-3.87h13.428V34.438q0-5.712 3.868-9.568 3.867-3.857 9.56-3.87 5.695-.014 9.575 3.87 3.881 3.883 3.854 9.567v13.438h13.429q5.707 0 9.574 3.87t3.854 9.568v134.374q0 5.712-3.867 9.581-3.867 3.87-9.561 3.857h-13.43v13.437q0 5.712-3.867 9.581-3.867 3.87-9.561 3.857t-9.561-3.87q-3.868-3.856-3.868-9.568m107.429 0v-53.75h-13.429q-5.708 0-9.561-3.87t-3.867-9.567V88.188q0-5.712 3.867-9.568 3.867-3.857 9.561-3.87h13.429V34.438q0-5.712 3.867-9.568 3.867-3.857 9.561-3.87 5.694-.014 9.575 3.87t3.854 9.567V74.75h13.428q5.708 0 9.575 3.87T222 88.187v67.188q0 5.71-3.867 9.581t-9.562 3.856h-13.428v53.75q0 5.712-3.868 9.581-3.867 3.87-9.561 3.857t-9.561-3.87q-3.867-3.856-3.867-9.568"/></svg>