<svg xmlns="http://www.w3.org/2000/svg" fill="none" viewBox="0 0 256 256"><path fill="#000" d="M23 74.988C23 67.263 29.16 61 36.76 61h71.323c7.599 0 13.76 6.263 13.76 13.988v33.292c0 7.725-6.161 13.987-13.76 13.987H36.759C29.16 122.267 23 116.005 23 108.28zm0 73.856c0-7.725 6.16-13.988 13.76-13.988h71.323c7.599 0 13.76 6.263 13.76 13.988v31.805c0 7.725-6.161 13.987-13.76 13.987H36.759c-7.599 0-13.759-6.262-13.759-13.987zm111.157-73.856c0-7.725 6.161-13.988 13.76-13.988h71.324C226.84 61 233 67.263 233 74.988v33.292c0 7.725-6.16 13.987-13.759 13.987h-71.324c-7.599 0-13.76-6.262-13.76-13.987zm0 73.856c0-7.725 6.161-13.988 13.76-13.988h71.324c7.599 0 13.759 6.263 13.759 13.988v31.805c0 7.725-6.16 13.987-13.759 13.987h-71.324c-7.599 0-13.76-6.262-13.76-13.987z"/></svg>