<svg xmlns="http://www.w3.org/2000/svg" fill="none" viewBox="0 0 256 256"><path fill="#000" d="M62.671 133.095V84.508H42.336c-5.394 0-10.566 1.92-14.38 5.337S22 97.896 22 102.728V212.05a5.6 5.6 0 0 0 1.041 3.186c.67.954 1.624 1.723 2.755 2.219 1.09.444 2.29.622 3.48.515a7.3 7.3 0 0 0 3.299-1.122l34.909-23.018h91.104a20.7 20.7 0 0 0 7.513-1.191c2.388-.854 4.554-2.137 6.365-3.771s3.228-3.584 4.164-5.729a15.3 15.3 0 0 0 1.277-6.74v-6.863h-74.564c-10.787 0-21.132-3.839-28.76-10.673-7.627-6.834-11.912-16.103-11.912-25.768"/><path fill="#000" fill-rule="evenodd" d="M99.32 43h115.235c5.275.158 10.275 2.147 13.943 5.547s5.718 7.944 5.715 12.673v108.836a5.63 5.63 0 0 1-1.052 3.232c-.684.967-1.659 1.742-2.812 2.234a7.5 7.5 0 0 1-3.49.485 7.25 7.25 0 0 1-3.289-1.153l-32.401-22.533h-91.85c-5.393 0-10.565-1.919-14.379-5.336s-5.956-8.051-5.956-12.884v-72.88c0-4.833 2.142-9.467 5.956-12.884S93.926 43 99.32 43m20.087 73.42c5.472 0 9.907-4.278 9.907-9.555s-4.435-9.555-9.907-9.555c-5.471 0-9.907 4.278-9.907 9.555s4.436 9.555 9.907 9.555m45.762-9.555c0 5.277-4.436 9.555-9.907 9.555-5.472 0-9.908-4.278-9.908-9.555s4.436-9.555 9.908-9.555 9.907 4.278 9.907 9.555m25.947 9.555c5.471 0 9.907-4.278 9.907-9.555s-4.436-9.555-9.907-9.555c-5.472 0-9.907 4.278-9.907 9.555s4.435 9.555 9.907 9.555" clip-rule="evenodd"/></svg>