<svg width="256" height="256" viewBox="0 0 256 256" fill="none" xmlns="http://www.w3.org/2000/svg">
<path fill-rule="evenodd" clip-rule="evenodd" d="M184.831 19.2201C183.06 20.8105 182.453 22.8416 182.453 27.1372C182.453 35.2618 179.494 43.1098 174.331 48.65L173.298 49.7477L171.302 48.7451C144.437 35.2358 110.117 35.2791 83.2427 48.8401L81.4812 49.7304L79.468 47.5005C74.5607 42.1675 71.874 35.1747 71.9533 27.941C71.9273 10.309 55.1362 19.1855 52.9495 37.993C52.0297 45.9188 54.9887 57.7339 59.4576 64.0002L60.1171 64.9164L56.5767 68.4514C24.7909 100.189 18.8034 150.821 42.2327 189.792C73.6194 242.014 147.639 254.141 193.942 214.65C237.833 177.225 240.974 110.059 200.754 69.5923L195.478 64.2854L197.439 60.3096C203.548 47.9067 203.053 33.5591 196.172 23.8961C192.224 18.3558 187.816 16.5321 184.831 19.2288V19.2201ZM100.676 83.2053C109.727 87.5614 110.829 102.773 102.542 108.841C92.2848 116.36 80.3879 101.71 86.5055 89.1085C89.317 83.3349 95.5475 80.7333 100.676 83.2053ZM165.419 83.5164C177.029 89.29 173.637 110.12 161.072 110.232C154.511 110.293 149.582 104.329 149.582 96.3342C149.582 86.2649 157.722 79.6789 165.419 83.5164ZM143.638 123.992C145.695 124.174 149.504 124.494 152.116 124.701C169.549 126.11 187.712 131.062 193.1 135.885C209.674 150.691 188.475 188.721 156.863 200.907C121.476 214.564 79.8932 199.905 63.8138 168.124C53.8693 148.452 57.7742 134.615 74.4871 130.293C89.9592 126.291 100.138 124.813 120.764 123.551C124.27 123.344 139.56 123.638 143.638 123.992Z" fill="black"/>
<path fill-rule="evenodd" clip-rule="evenodd" d="M103.644 162.922C93.5523 164.797 83.6425 171.012 80.0674 177.719L79.2864 179.197L80.9525 181.15C87.4259 188.704 99.5918 195.74 111.272 198.696C135.222 204.746 160.152 198.324 175.147 182.248C178.123 179.058 178.132 178.989 176.353 176.327C167.763 163.501 144.403 157.9 133.556 166.05C132.671 166.716 131.95 167.537 131.95 167.866C131.95 168.496 133.53 176.924 133.868 178.099C134.345 179.741 132.254 177.027 130.536 173.76C125.399 164.028 116.669 160.51 103.636 162.922" fill="black"/>
<path d="M153.632 132.294C155.331 144.755 162.718 154.865 168.04 152.012C171.374 150.227 179.847 136.643 178.47 135.275C177.857 134.666 164.567 131.877 154.739 130.306C154.042 130.194 153.433 130.782 153.525 131.48L153.632 132.294Z" fill="black"/>
<path d="M102.379 130.093C102.034 130.179 98.9915 130.735 95.6044 131.322C83.7657 133.417 79.4754 134.603 79.6045 135.758C80.0453 139.733 86.97 150.111 90.3356 151.842C95.4539 154.471 102.002 144.874 104.26 131.429C104.529 129.794 104.336 129.655 102.379 130.093Z" fill="black"/>
</svg>
