<svg xmlns="http://www.w3.org/2000/svg" fill="none" viewBox="0 0 256 256"><path fill="#000" d="M228.669 64.929a7.88 7.88 0 0 1-.604 5.982 7.8 7.8 0 0 1-4.644 3.791l-25 7.473a7.8 7.8 0 0 1-5.963-.62 7.88 7.88 0 0 1-3.788-4.669 7.88 7.88 0 0 1 .604-5.982 7.8 7.8 0 0 1 4.644-3.791l25-7.473a7.8 7.8 0 0 1 5.963.62 7.88 7.88 0 0 1 3.788 4.669m-34.048-42.11a7.88 7.88 0 0 1 3.182 10.645l-12.247 22.803a7.82 7.82 0 0 1-4.638 3.997 7.8 7.8 0 0 1-6.095-.58 7.87 7.87 0 0 1-4.055-7.928 7.8 7.8 0 0 1 1.007-2.964l12.246-22.804a7.8 7.8 0 0 1 4.642-3.787 7.8 7.8 0 0 1 5.958.619m28.697 95.997a7.8 7.8 0 0 1-4.642 3.787 7.8 7.8 0 0 1-5.958-.618l-22.753-12.342a7.86 7.86 0 0 1-3.993-4.663 7.9 7.9 0 0 1 .564-6.115 7.806 7.806 0 0 1 10.847-3.034l22.753 12.341a7.87 7.87 0 0 1 3.784 4.666 7.88 7.88 0 0 1-.602 5.978m-82.41-101.49a7.8 7.8 0 0 1 5.963.621 7.88 7.88 0 0 1 3.788 4.669l7.505 25.103a7.88 7.88 0 0 1-.605 5.983 7.8 7.8 0 0 1-4.644 3.79 7.8 7.8 0 0 1-5.962-.62 7.88 7.88 0 0 1-3.789-4.669L135.66 27.1a7.87 7.87 0 0 1 .604-5.982 7.8 7.8 0 0 1 4.644-3.791m10.641 62.453c11.27-3.37 21.318 8.088 16.544 18.868l-47.121 106.639c-5.069 11.47-21.534 10.725-25.617-1.148L82.3 166.036a16.05 16.05 0 0 0-8.303-9.299L36.93 139.223c-11.453-5.404-10.22-22.126 1.89-25.746z"/></svg>