<svg xmlns="http://www.w3.org/2000/svg" fill="none" viewBox="0 0 256 256"><path fill="#000" fill-rule="evenodd" d="M131.448 41.05c0 6.265-5.079 11.345-11.344 11.345-6.266 0-11.345-5.08-11.345-11.346V18.346c0-6.267 5.079-11.346 11.345-11.346 6.265 0 11.344 5.08 11.344 11.346zm-68.069 68.089c0 6.267-5.08 11.348-11.348 11.348H29.348c-6.267 0-11.348-5.081-11.348-11.348S23.08 97.79 29.348 97.79h22.683c6.268 0 11.348 5.081 11.348 11.349M47.908 36.914c-4.429 4.43-4.43 11.61-.002 16.04L63.951 69.01c4.43 4.434 11.617 4.434 16.048.001 4.428-4.43 4.429-11.61.001-16.04L63.955 36.915c-4.43-4.434-11.616-4.434-16.047-.002m-.002 128.403c-4.428 4.43-4.427 11.611.001 16.041 4.431 4.432 11.617 4.432 16.048-.002L79.999 165.3c4.428-4.431 4.427-11.612-.001-16.042-4.432-4.432-11.618-4.432-16.048.002zM160.213 52.97c-4.428 4.43-4.427 11.612.001 16.042 4.432 4.432 11.618 4.432 16.048-.002l16.044-16.055c4.428-4.43 4.427-11.612-.001-16.042-4.431-4.432-11.617-4.432-16.048.002zm.012 157.361c-10.517 10.52-28.477 5.727-32.354-8.635l-25.539-94.588c-2.594-9.606 6.207-18.407 15.812-15.812l94.561 25.542c14.357 3.878 19.151 21.831 8.639 32.35l-7.433 7.438a3.22 3.22 0 0 0 .001 4.558l20.311 20.311c5.036 5.036 5.036 13.202 0 18.238l-23.488 23.49c-5.036 5.037-13.202 5.036-18.238-.002l-20.299-20.305a3.223 3.223 0 0 0-4.56 0zm44.126-9.607a3.87 3.87 0 0 1-5.472 0l-19.841-19.849c-5.037-5.038-13.204-5.038-18.24 0l-9.755 9.758c-1.753 1.754-4.746.955-5.392-1.439l-18.72-69.349c-.649-2.401 1.552-4.601 3.953-3.952l69.323 18.726c2.394.646 3.192 3.639 1.439 5.392l-9.776 9.775c-5.037 5.036-5.038 13.203-.001 18.24l19.853 19.852a3.87 3.87 0 0 1 .001 5.472z" clip-rule="evenodd"/></svg>
