<svg width="256" height="256" viewBox="0 0 256 256" fill="none" xmlns="http://www.w3.org/2000/svg">
<path d="M128 228C101.478 228 76.043 217.464 57.2893 198.711C38.5357 179.957 28 154.522 28 128C28 101.478 38.5357 76.043 57.2893 57.2893C76.043 38.5357 101.478 28 128 28C154.522 28 179.957 38.5357 198.711 57.2893C217.464 76.043 228 101.478 228 128C228 154.522 217.464 179.957 198.711 198.711C179.957 217.464 154.522 228 128 228ZM128 208C149.217 208 169.566 199.571 184.569 184.569C199.571 169.566 208 149.217 208 128C208 106.783 199.571 86.4344 184.569 71.4315C169.566 56.4285 149.217 48 128 48C106.783 48 86.4344 56.4285 71.4315 71.4315C56.4285 86.4344 48 106.783 48 128C48 149.217 56.4285 169.566 71.4315 184.569C86.4344 199.571 106.783 208 128 208ZM118 132.1V68H138V123.9L177.5 163.4L163.4 177.5L118 132.1Z" fill="black"/>
</svg>
