<svg xmlns="http://www.w3.org/2000/svg" viewBox="0 0 843 257"><path d="M488.099 205.673q-33.612 0-55.878-22.483-22.051-22.484-22.051-56.209t22.051-55.993q22.052-22.7 55.878-22.7 20.124 0 37.251 9.512 17.127 9.297 26.976 25.51l-29.545 17.296q-4.923-8.865-14.13-13.62-8.991-4.973-20.552-4.973-20.125 0-31.9 12.323-11.775 12.107-11.775 32.645t11.775 32.644q11.775 12.323 31.9 12.323 11.346 0 20.552-4.972 9.42-4.972 14.13-13.62l29.545 17.295q-9.634 16.214-26.762 25.726-17.127 9.296-37.465 9.296M683.988 51.315h34.254v151.332h-34.254v-100.96l-40.677 43.021-40.678-43.021v100.96h-34.254V51.315h34.254L643.311 95.2zM836.487 79.42l-25.905 33.292q14.558 5.188 23.121 16.431 8.778 11.025 8.778 25.942 0 23.781-15.843 37.185-15.842 13.403-38.75 13.403-18.198 0-32.113-8.215-13.916-8.431-20.339-24.213l29.545-17.295q5.565 15.998 22.907 15.998 12.632.864 17.984-7.999t0-17.728q-5.352-8.863-17.984-7.999h-7.065l-13.059-19.673 27.189-34.806h-54.807V51.315h96.341zM205.278 209.351l135.983-77.243c8.667-4.923 13.06-11.617 13.13-18.418v-.271c-.043-6.505-4.039-13.09-12.03-18.3l-37.452-24.42c-12.62-8.228-29.399-10.83-44.246-7.22q-.82.2-1.632.425c-3.88 1.074-7.61 2.583-11.077 4.537 8.494-4.825 12.678-10.784 12.709-16.875v-.138c-.031-6.105-4.23-12.336-12.438-17.688l-37.01-24.131c-16.461-10.733-43.643-11.575-60.711-1.88L14.521 84.974c-8.695 4.939-13.088 11.66-13.13 18.483v.208c.044 6.505 4.04 13.088 12.03 18.298l13.413 8.745 133.44-75.798c10.579-6.009 27.42-5.492 37.615 1.156l7.13 4.649c4.164 2.715 6.652 6.216 7.018 9.874.998 9.982 13.615 18.306 29.889 19.719l.54.047c5.972.518 11.525 2.29 15.694 5.01l6.756 4.404c6.189 4.035 8.507 9.402 7.006 14.341-.972 3.197-3.543 6.215-7.701 8.577l-133.439 75.798 13.785 8.988c16.461 10.733 43.643 11.574 60.711 1.879"/><path d="m343.748 138.246-135.983 77.242c-17.068 9.696-47.966 8.855-64.427-1.878l-13.785-8.989v34.731l13.785 8.989c16.461 10.733 47.359 11.574 64.427 1.878l135.983-77.243c8.468-4.81 12.856-11.31 13.118-17.95l.012-35.198c-.07 6.801-4.463 13.494-13.13 18.418"/><path fill-rule="evenodd" d="m204.324 68.106-7.13-4.649c-10.195-6.648-27.036-7.165-37.615-1.156L28.059 137.01v34.73l131.52-74.707c10.579-6.009 27.42-5.492 37.615 1.156l7.13 4.649c4.164 2.715 6.652 6.216 7.018 9.874.998 9.982 13.615 18.306 29.889 19.719a1.73 1.73 0 0 0 1.01-.223l19.271-11.043c5.69-3.261 8.202-10.422 2.709-14.004l-6.756-4.405c-4.169-2.718-9.722-4.49-15.694-5.01l-.54-.046c-16.274-1.413-28.891-9.737-29.889-19.72-.366-3.657-2.854-7.158-7.018-9.873M24.325 171.739v-34.73l-11.775-7.678C4.56 124.121.564 117.538.52 111.033l.001 34.892c.109 6.452 4.105 12.97 12.03 18.137z" clip-rule="evenodd"/><path d="M259.041 62.775s1.239-.618 3.718-1.237l-.002-9.277c.001 4.948-1.858 8.659-3.716 10.514"/></svg>
