<svg xmlns="http://www.w3.org/2000/svg" viewBox="0 0 826 257"><path d="M479.557 192.302q-32.795 0-54.52-21.943-21.516-21.942-21.516-54.857t21.516-54.646q21.516-22.155 54.52-22.154 19.636 0 36.347 9.284 16.711 9.072 26.32 24.896l-28.826 16.88q-4.805-8.65-13.787-13.293-8.774-4.853-20.054-4.853-19.635 0-31.124 12.027-11.49 11.816-11.489 31.859 0 20.045 11.489 31.859 11.489 12.027 31.124 12.027 11.072 0 20.054-4.853 9.19-4.853 13.787-13.292l28.826 16.879q-9.4 15.824-26.111 25.108-16.711 9.072-36.556 9.072M670.688 41.656h33.423v147.692h-33.423V90.816l-39.689 41.987-39.689-41.987v98.532h-33.422V41.656h33.422l39.689 42.83zm148.795 27.429-25.276 32.492q14.205 5.064 22.56 16.035 8.565 10.76 8.565 25.319 0 23.208-15.458 36.29-15.457 13.081-37.809 13.081-17.756 0-31.333-8.017-13.578-8.229-19.845-23.631l28.827-16.879q5.431 15.612 22.351 15.613 12.324.843 17.547-7.807 5.221-8.65 0-17.301-5.223-8.65-17.547-7.806h-6.893l-12.743-19.2 26.529-33.97h-53.475V41.656h94zm-569.606.742c3.514-2.002 7.293-3.548 11.225-4.649q.823-.23 1.654-.434V52.537c-.032 6.241-4.272 12.346-12.879 17.29"/><path d="m206.632 214.198 137.798-79.141c8.783-5.044 13.235-11.901 13.305-18.87l.001-.098v-.179c-.044-6.665-4.093-13.412-12.191-18.75l-37.952-25.02c-12.789-8.43-29.792-11.096-44.837-7.397q-.83.206-1.654.435c-3.932 1.1-7.711 2.647-11.225 4.649 8.607-4.944 12.847-11.049 12.879-17.29v-.14c-.032-6.256-4.287-12.64-12.604-18.124L212.648 9.55c-16.681-10.997-44.225-11.858-61.522-1.925L13.327 86.764C4.517 91.826.064 98.712.022 105.703v.213c.044 6.664 4.094 13.409 12.191 18.748l13.592 8.96 135.221-77.66c4.852-2.787 11.004-4.204 17.242-4.288 7.547-.103 15.22 1.743 20.876 5.472l7.225 4.763c4.22 2.782 6.741 6.368 7.112 10.116 1.011 10.228 13.797 18.756 30.288 20.204l.547.048c6.052.53 11.679 2.347 15.904 5.132l6.846 4.513c6.271 4.135 8.62 9.633 7.099 14.693-.984 3.276-3.59 6.368-7.803 8.788l-3.911 2.246-5.839 3.353-125.471 72.061 13.969 9.209c8.692 5.73 20.333 8.708 31.938 8.841 10.665.123 21.3-2.159 29.584-6.916"/><path fill-rule="evenodd" d="m206.632 214.198 137.798-79.141c8.783-5.044 13.235-11.901 13.305-18.87l-.011 36.063c-.266 6.803-4.712 13.463-13.294 18.392l-137.798 79.14c-8.284 4.757-18.919 7.039-29.584 6.916v-35.584c10.665.123 21.3-2.159 29.584-6.916M178.268 87.259V51.675c-6.238.084-12.39 1.501-17.242 4.288l-135.221 77.66v35.584l135.221-77.66c4.852-2.787 11.004-4.203 17.242-4.288" clip-rule="evenodd"/><path d="m25.805 133.623-13.592-8.96C4.116 119.324.066 112.579.022 105.915l.002 35.75c.11 6.61 4.159 13.288 12.19 18.582l13.59 8.96zm119.305 78.65-13.969-9.209v35.584l13.969 9.209c8.692 5.73 20.333 8.708 31.938 8.841v-35.584c-11.605-.133-23.246-3.111-31.938-8.841M206.369 61.91l-7.225-4.763c-5.656-3.729-13.329-5.575-20.876-5.472v35.584c7.547-.103 15.22 1.743 20.876 5.472l7.225 4.763c4.22 2.782 6.741 6.368 7.112 10.116 1.011 10.228 13.797 18.756 30.288 20.204l.547.048c4.46.391 8.689 1.48 12.296 3.141l5.839-3.353 3.911-2.246c4.213-2.42 6.819-5.512 7.803-8.788 1.521-5.06-.828-10.558-7.099-14.693l-6.846-4.513c-4.225-2.785-9.852-4.601-15.904-5.132l-.547-.048c-16.491-1.448-29.277-9.977-30.288-20.204-.371-3.748-2.892-7.334-7.112-10.116"/></svg>