<svg xmlns="http://www.w3.org/2000/svg" fill="none" viewBox="0 0 257 256"><path fill="#5E95FF" d="M175.531 89.054a33 33 0 0 1 7.43-3.077q.544-.152 1.095-.288v-8.08c-.021 4.132-2.828 8.173-8.525 11.445"/><path fill="#477BFF" d="m146.906 184.614 91.211-52.383c5.814-3.339 8.76-7.878 8.807-12.491v-.183c-.028-4.412-2.709-8.877-8.069-12.411l-25.121-16.56c-8.465-5.58-19.719-7.345-29.678-4.897q-.55.135-1.095.288a33 33 0 0 0-7.43 3.077c5.697-3.272 8.504-7.313 8.525-11.444v-.093c-.021-4.14-2.837-8.367-8.343-11.996l-24.824-16.365c-11.042-7.279-29.274-7.85-40.722-1.274l-91.211 52.383c-5.832 3.35-8.78 7.907-8.807 12.535v.141c.03 4.411 2.71 8.876 8.07 12.409l8.996 5.931 89.505-51.404c3.211-1.844 7.283-2.782 11.412-2.838 4.995-.068 10.075 1.154 13.818 3.622l4.783 3.153c2.793 1.841 4.461 4.215 4.707 6.696.669 6.77 9.132 12.414 20.048 13.373l.362.031c4.006.352 7.73 1.554 10.527 3.398l4.532 2.987c4.151 2.737 5.705 6.376 4.699 9.725-.652 2.169-2.377 4.215-5.165 5.817l-2.589 1.486-3.865 2.22-83.051 47.697 9.246 6.096c5.754 3.793 13.459 5.764 21.14 5.852 7.06.081 14.099-1.429 19.582-4.578"/><path fill="#5E95FF" fill-rule="evenodd" d="m146.906 184.614 91.211-52.383c5.814-3.339 8.76-7.878 8.807-12.491l-.008 23.871c-.175 4.503-3.119 8.911-8.799 12.173l-91.211 52.383c-5.483 3.149-12.522 4.659-19.582 4.578v-23.553c7.06.081 14.099-1.429 19.582-4.578m-18.774-84.022V77.039c-4.129.056-8.201.994-11.412 2.838l-89.505 51.404v23.553l89.505-51.403c3.211-1.845 7.283-2.783 11.412-2.839" clip-rule="evenodd"/><path fill="#1543D8" d="m27.215 131.281-8.997-5.931c-5.36-3.533-8.04-7.998-8.07-12.409l.002 23.663c.073 4.375 2.753 8.795 8.068 12.299l8.997 5.931zm78.969 52.059-9.246-6.096v23.554l9.246 6.095c5.754 3.793 13.459 5.764 21.14 5.852v-23.553c-7.681-.088-15.386-2.059-21.14-5.852m40.549-99.526-4.783-3.153c-3.743-2.468-8.823-3.69-13.818-3.622v23.553c4.995-.067 10.075 1.155 13.818 3.622l4.783 3.153c2.793 1.841 4.461 4.215 4.707 6.696.669 6.77 9.132 12.415 20.048 13.373l.362.032c2.952.259 5.752.98 8.139 2.079l3.865-2.22 2.589-1.486c2.788-1.602 4.513-3.648 5.165-5.817 1.006-3.349-.548-6.988-4.699-9.725l-4.532-2.987c-2.797-1.844-6.521-3.046-10.527-3.398l-.362-.031c-10.916-.959-19.379-6.604-20.048-13.373-.246-2.481-1.914-4.855-4.707-6.696"/></svg>