<svg xmlns="http://www.w3.org/2000/svg" fill="none" viewBox="0 0 256 256"><path fill="#000" fill-rule="evenodd" d="M226.083 127.612C225.889 72.767 181.662 28 127.542 28 73.227 28 29 72.768 29 128c0 55.039 44.227 100 98.542 100 25.023 0 48.689-9.496 66.923-26.744 3.685-3.489 3.879-9.109.388-12.791-3.298-3.682-8.923-3.876-12.609-.581l-.194.193c-14.742 13.954-34.528 21.9-54.896 21.9-23.86 0-45.197-10.465-59.94-27.132l42.094-67.442v31.202c0 14.922 5.819 19.767 10.669 21.124 4.849 1.356 12.22.387 20.173-12.21l23.084-37.403c.24-.36.462-.72.676-1.068.479-.777.922-1.497 1.458-2.033v18.993c0 13.953 5.625 25.194 15.324 30.62 8.729 5.039 19.786 4.457 28.903-1.163 11.251-7.364 17.264-20.155 16.488-35.465zm-36.274 20.737c3.104 1.744 7.177 1.356 10.669-.775 5.432-3.489 8.147-10.465 7.759-19.186V128c0-45.155-36.274-81.783-80.695-81.783-44.422 0-80.696 36.628-80.696 81.783 0 13.372 3.298 26.55 9.505 38.372L103.1 91.566c5.626-8.527 11.445-9.109 15.325-7.946 5.819 1.744 8.923 7.364 9.117 16.861v41.279l20.95-33.527c3.297-5.427 12.22-19.962 24.053-16.473 6.983 1.938 11.057 9.496 11.057 19.961v21.899c0 7.171 2.328 12.403 6.207 14.729" clip-rule="evenodd"/></svg>