<svg width="256" height="256" viewBox="0 0 256 256" fill="none" xmlns="http://www.w3.org/2000/svg">
<path fill-rule="evenodd" clip-rule="evenodd" d="M226.083 127.612C225.889 72.7674 181.662 28 127.542 28C73.2274 28 29 72.7675 29 128C29 183.039 73.2274 228 127.542 228C152.565 228 176.231 218.504 194.465 201.256C198.15 197.767 198.344 192.147 194.853 188.465C191.555 184.783 185.93 184.589 182.244 187.884L182.05 188.077C167.308 202.031 147.522 209.977 127.154 209.977C103.294 209.977 81.9565 199.512 67.214 182.845L109.308 115.403V146.605C109.308 161.527 115.127 166.372 119.977 167.729C124.826 169.085 132.197 168.116 140.15 155.519L163.234 118.116C163.474 117.756 163.696 117.396 163.91 117.048C164.389 116.271 164.832 115.551 165.368 115.015V134.008C165.368 147.961 170.993 159.202 180.692 164.628C189.421 169.667 200.478 169.085 209.595 163.465C220.846 156.101 226.859 143.31 226.083 128V127.612ZM189.809 148.349C192.913 150.093 196.986 149.705 200.478 147.574C205.91 144.085 208.625 137.109 208.237 128.388V128C208.237 82.845 171.963 46.217 127.542 46.217C83.1204 46.217 46.8461 82.845 46.8461 128C46.8461 141.372 50.1438 154.55 56.3511 166.372L103.1 91.5659C108.726 83.0388 114.545 82.4574 118.425 83.6202C124.244 85.3643 127.348 90.9845 127.542 100.481V141.76L148.492 108.233C151.789 102.806 160.712 88.2713 172.545 91.7597C179.528 93.6976 183.602 101.256 183.602 111.721V133.62C183.602 140.791 185.93 146.023 189.809 148.349Z" fill="black"/>
</svg>
