<svg xmlns="http://www.w3.org/2000/svg" fill="none" viewBox="0 0 256 256"><path fill="#000" d="M101.395 75.154c-.17-8.297 5.779-15.395 13.409-16.709 12.475-2.343 21.386 9.58 19.034 20.583a17.4 17.4 0 0 1-1.417 4.221c-1.15 2.377-2.759 4.28-4.643 5.71-8.484 7.28-22.399 2.832-25.552-8.488a17.5 17.5 0 0 1-.831-5.317m66.972-26.62c-4.041-7.24-15.074-12.974-26.19-10.14-7.875 2.007-3.637 2.555 2.413 3.339 3.636.47 7.637 1.443 10.346 2.45 2.814 1.047 6.335 2.686 8.991 4.376 4.157 2.644 6.905 4.392 4.44-.025"/><path fill="#000" fill-rule="evenodd" d="M132.967 203.488c-.686 8.156-5.788 13.932-13.693 16.752-16.83 6.002-45.396 6.181-63.772-2.82-5.886-2.883-11.514-6.11-16.115-9.501-6.386-4.706-7.593-13.26-5.34-21.028 5.102-17.585 12.433-45.857 15.132-83.953 2.165-30.57 10.827-45.482 33.202-56.667 18.045-8.947 31.76-11.184 49.083-7.456l3.609.746c13.655-6.114 31.037-.746 34.646 10.438.087.18.154.339.214.483.439 1.052.571 1.369 6.282 3.991l20.933 7.456c18.045 5.22 28.15 11.184 33.202 20.132 5.053 9.693 2.303 22.365-3.403 34.596-4.803 10.295-21.752 20.502-28.213 23.844-27.41 14.174-61.102 7.441-65.767 62.987m35.4-154.954c-4.041-7.24-15.074-12.974-26.19-10.14-7.875 2.007-3.637 2.555 2.413 3.339 3.636.47 7.637 1.443 10.346 2.45 2.814 1.047 6.335 2.686 8.991 4.376 4.157 2.644 6.905 4.392 4.44-.025m47.061 69.759c-27.6 14.589-54.857 17.149-73.623 10.439-2.099-.867-2.977-1.23-3.061-1.089-.057.095.249.42.785.975l.11.114c5.775 5.219 18.045 8.202 28.872 7.456 15.158-1.491 41.224-10.23 51.964-19.531 1.115-.965 2.032-1.753 2.768-2.386l.299-.257.006-.004.005-.005.009-.008.016-.014c1.473-1.264 2.111-1.812 2.084-1.85-.02-.027-.381.208-1.021.629l-.131.086c-1.669 1.097-5.007 3.292-9.082 5.445m-93.406-67.304c18.766 2.983 25.985 27.588 12.27 41.755a23.6 23.6 0 0 1-10.265 5.985 23.1 23.1 0 0 1-11.787.168 23.6 23.6 0 0 1-10.421-5.69 24.7 24.7 0 0 1-6.504-10.156c-5.774-17.895 8.662-35.79 26.707-32.062m77.527 52.392c-2.888-2.983-1.545-7.04 2.064-7.785s6.597 2.566 5.154 6.294c-1.444 2.982-5.053 3.728-7.218 1.491" clip-rule="evenodd"/><path fill="#000" fill-rule="evenodd" d="m223.548 114.01-.006.004-.299.257z" clip-rule="evenodd"/></svg>