<svg xmlns="http://www.w3.org/2000/svg" fill="none" viewBox="0 0 256 256"><path fill="#000" d="M128 228q-20.751 0-39-7.87-18.25-7.87-31.75-21.343-13.5-13.474-21.37-31.711T28 128.125q0-18.727 7.25-36.704Q42.5 73.443 55.5 59.33t31.25-22.722 40-8.609q5.25 0 10.75.5 5.499.498 11.25 1.747-2.25 11.235 1.5 21.224 3.75 9.988 11.25 16.6t17.879 9.119q10.38 2.506 21.37-1.249-6.5 14.731 1.88 28.215t24.87 13.982q.25 2.747.38 5.114t.12 5.124q0 20.474-7.88 38.571t-21.37 31.711-31.75 21.473T128 228m-15-119.85q6.25 0 10.63-4.365 4.38-4.364 4.37-10.617-.01-6.252-4.37-10.606T113 78.187t-10.62 4.375T98 93.168t4.38 10.617T113 108.15m-20 49.937q6.25 0 10.63-4.364 4.38-4.365 4.37-10.617t-4.37-10.607T93 128.125q-6.27-.02-10.62 4.374-4.35 4.395-4.38 10.607-.03 6.213 4.38 10.617T93 158.087m65 9.988q4.25 0 7.13-2.877 2.88-2.875 2.87-7.111-.01-4.234-2.88-7.111T158 148.1t-7.12 2.876q-2.871 2.877-2.88 7.111-.01 4.236 2.88 7.121 2.89 2.887 7.12 2.867"/></svg>
