<svg xmlns="http://www.w3.org/2000/svg" fill="none" viewBox="0 0 256 256"><path fill="#000" fill-rule="evenodd" d="M105 20a20 20 0 0 0-20 20v11.885a10 10 0 0 0 20 0V40h11.885a10 10 0 1 0 0-20zm46.859 0a10 10 0 0 0-10 10 9.997 9.997 0 0 0 10 10h16.282a10 10 0 0 0 10-10 9.997 9.997 0 0 0-10-10zm51.256 0a10 10 0 1 0 0 20H215v11.885a10.002 10.002 0 0 0 17.071 7.07 10 10 0 0 0 2.929-7.07V40a20 20 0 0 0-20-20zM235 86.859a10.001 10.001 0 0 0-17.071-7.071 10 10 0 0 0-2.929 7.07v16.283a10 10 0 1 0 20 0zm0 51.256a10.001 10.001 0 0 0-20 0V150h-11.885a10.001 10.001 0 0 0 0 20H215a20 20 0 0 0 20-20zM55 70a20 20 0 0 0-20 20v110a20 20 0 0 0 20 20h110a20 20 0 0 0 20-20V90a20 20 0 0 0-20-20z" clip-rule="evenodd"/></svg>
