<svg xmlns="http://www.w3.org/2000/svg" fill="none" viewBox="0 0 256 256"><path fill="#040404" d="M76.3 192.028V116.61c0-18.763 15.228-33.972 34.013-33.972h8.163c7.514 0 13.606 6.084 13.606 13.588v.68c0 7.505-6.092 13.589-13.606 13.589h-4.762c-5.635 0-10.204 4.563-10.204 10.191v64.547c0 7.505 6.092 13.589 13.606 13.589h70.068c7.514 0 13.605-6.084 13.605-13.589V96.227c0-7.505 6.091-13.59 13.606-13.59S228 88.723 228 96.228v95.801C228 210.79 212.772 226 193.986 226h-83.673c-18.785 0-34.014-15.21-34.014-33.972"/><path fill="#040404" d="M28 160.774V64.972C28 46.21 43.228 31 62.014 31h83.673c18.785 0 34.014 15.21 34.014 33.972v75.418c0 18.763-15.229 33.972-34.014 33.972h-7.483c-7.514 0-13.605-6.084-13.605-13.588 0-7.505 6.091-13.589 13.605-13.589h4.082c5.635 0 10.204-4.563 10.204-10.192V71.767c0-7.505-6.092-13.59-13.606-13.59H68.816c-7.514 0-13.605 6.085-13.605 13.59v89.007c0 7.504-6.091 13.588-13.606 13.588S28 168.278 28 160.774"/></svg>