<svg xmlns="http://www.w3.org/2000/svg" fill="none" viewBox="0 0 256 256"><path fill="#040404" d="M35.407 101.333A7.407 7.407 0 0 1 28 93.926V68.74C28 46.24 46.24 28 68.74 28h25.186a7.407 7.407 0 0 1 7.407 7.407V46.52a7.407 7.407 0 0 1-7.407 7.407H72.444c-10.227 0-18.518 8.29-18.518 18.518v21.482a7.407 7.407 0 0 1-7.407 7.407zm126.667-47.407a7.407 7.407 0 0 1-7.407-7.407V35.407A7.407 7.407 0 0 1 162.074 28h25.185C209.76 28 228 46.24 228 68.74v25.186a7.407 7.407 0 0 1-7.407 7.407h-11.112a7.407 7.407 0 0 1-7.407-7.407V72.444c0-10.227-8.291-18.518-18.518-18.518zM68.74 228C46.24 228 28 209.76 28 187.259v-25.185a7.407 7.407 0 0 1 7.407-7.407H46.52a7.407 7.407 0 0 1 7.407 7.407v21.482c0 10.227 8.29 18.518 18.518 18.518h21.482a7.407 7.407 0 0 1 7.407 7.407v11.112A7.407 7.407 0 0 1 93.926 228zm114.816-25.926c10.227 0 18.518-8.291 18.518-18.518v-21.482a7.407 7.407 0 0 1 7.407-7.407h11.112a7.407 7.407 0 0 1 7.407 7.407v25.185C228 209.76 209.76 228 187.259 228h-25.185a7.407 7.407 0 0 1-7.407-7.407v-11.112a7.407 7.407 0 0 1 7.407-7.407z"/><path fill="#040404" fill-rule="evenodd" d="M122.05 75.778a7.41 7.41 0 0 0-7.408 7.407v24.05a7.407 7.407 0 0 1-7.407 7.407h-24.05a7.41 7.41 0 0 0-7.407 7.408v11.9a7.41 7.41 0 0 0 7.407 7.408h24.05a7.407 7.407 0 0 1 7.407 7.407v24.05a7.41 7.41 0 0 0 7.408 7.407h11.9a7.41 7.41 0 0 0 7.408-7.407v-24.05a7.407 7.407 0 0 1 7.407-7.407h24.05a7.41 7.41 0 0 0 7.407-7.408v-11.9a7.41 7.41 0 0 0-7.407-7.408h-24.05a7.407 7.407 0 0 1-7.407-7.407v-24.05a7.41 7.41 0 0 0-7.408-7.407zm2.987 62.592a7.407 7.407 0 0 1-7.407-7.407v-5.926a7.407 7.407 0 0 1 7.407-7.407h5.926a7.407 7.407 0 0 1 7.407 7.407v5.926a7.407 7.407 0 0 1-7.407 7.407z" clip-rule="evenodd"/></svg>