<svg xmlns="http://www.w3.org/2000/svg" fill="none" viewBox="0 0 256 256"><path fill="#000" d="M128 228a100.003 100.003 0 0 0 100-100A100 100 0 0 0 128 28a100 100 0 1 0 0 200m0-87.5c6.63 0 12.989 2.634 17.678 7.322a25.004 25.004 0 0 1 0 35.356 25.004 25.004 0 0 1-35.356 0 25.004 25.004 0 0 1 0-35.356A25 25 0 0 1 128 140.5M67.336 79.836c2.422-2.422 6.406-2.422 8.828 0L90.5 94.172l14.336-14.336c2.422-2.422 6.406-2.422 8.828 0s2.422 6.406 0 8.828L99.328 103l14.336 14.336c2.422 2.422 2.422 6.406 0 8.828s-6.406 2.422-8.828 0L90.5 111.828l-14.336 14.336c-2.422 2.422-6.406 2.422-8.828 0s-2.422-6.406 0-8.828L81.672 103 67.336 88.664c-2.422-2.422-2.422-6.406 0-8.828m75 0c2.422-2.422 6.406-2.422 8.828 0L165.5 94.172l14.336-14.336c2.422-2.422 6.406-2.422 8.828 0s2.422 6.406 0 8.828L174.328 103l14.336 14.336c2.422 2.422 2.422 6.406 0 8.828s-6.406 2.422-8.828 0L165.5 111.828l-14.336 14.336c-2.422 2.422-6.406 2.422-8.828 0s-2.422-6.406 0-8.828L156.672 103l-14.336-14.336c-2.422-2.422-2.422-6.406 0-8.828"/></svg>