<svg xmlns="http://www.w3.org/2000/svg" fill="none" viewBox="0 0 256 256"><path fill="#000" d="M31 184.989v37.832q1.55.075 3.109.116c31.275-.917 58.916-15.614 76.487-37.948 8.689-11.044 14.915-23.956 17.899-37.993a91.2 91.2 0 0 0 1.99-18.996c0-6.506-.685-12.859-1.99-18.997-2.984-14.036-9.21-26.948-17.899-37.993-17.57-22.333-45.212-37.03-76.487-37.947q-1.56.04-3.109.116V71.01c32.967 0 59.691 25.516 59.691 56.99S63.967 184.989 31 184.989"/><path fill="#000" d="M149.421 222.982c32.829 0 59.441-25.515 59.441-56.989 0-14.596-5.723-27.91-15.135-37.993 9.412-10.083 15.135-23.397 15.135-37.993 0-31.474-26.612-56.99-59.441-56.99H51.246c-1.174 0 1.165-.03 0 0 31.143.917 53.769 19.665 68.129 37.993h30.046c10.943 0 19.814 8.505 19.814 18.997s-8.871 18.996-19.814 18.996h-12.222A91.6 91.6 0 0 1 139.181 128c0 6.506-.682 12.859-1.982 18.996h12.222c10.943 0 19.814 8.506 19.814 18.997s-8.871 18.996-19.814 18.996h-30.046c-14.65 18.7-36.985 37.077-68.13 37.993-1.173 0 1.166.031 0 0z"/></svg>