<svg xmlns="http://www.w3.org/2000/svg" fill="none" viewBox="0 0 256 256"><path fill="#000" d="M223.76 160.174c-.05 13.718-8.573 25.527-20.441 32.077q-25.548 14.103-51.101 28.204-6.106 3.37-8.902 4.487-15.273 6.08-30.572.07-2.865-1.127-8.917-4.467a54149 54149 0 0 1-48.245-26.634q-6.107-3.375-8.513-5.184-11.658-8.763-14.425-23.22-.654-3.414-.639-9.461.06-27.874-.005-55.74-.015-6.366.644-9.845 2.632-13.808 13.511-22.527 2.61-2.094 8.428-5.314a12217 12217 0 0 1 51.806-28.548c11.678-6.4 23.511-8.09 36.148-3.385q3.046 1.137 8.947 4.397 25.513 14.072 51.032 28.14c11.039 6.09 18.428 14.884 20.73 27.227q.629 3.375.629 9.929-.01 29.9-.115 59.794m-164.963-2.553c-.205 6.7 2.96 9.108 8.278 12.054q26.702 14.79 53.443 29.52c5.048 2.787 10.036 2.597 14.989-.12a12782 12782 0 0 0 54.701-30.178c5.722-3.175 6.87-6.061 6.85-12.856q-.084-26.42.055-52.839c.01-1.58-.114-3.524-.084-5.294.099-7.193-3.86-9.232-9.761-12.497a20453 20453 0 0 0-50.922-28.1c-6.955-3.828-11.089-3.09-17.83.614Q92.478 72.23 66.486 86.612c-4.08 2.254-6.91 4.432-7.56 8.844-.474 3.225-.07 8.005-.064 10.687 0 17.103.454 34.395-.065 51.478"/></svg>