<svg xmlns="http://www.w3.org/2000/svg" fill="none" viewBox="0 0 256 256"><path fill="#000" fill-rule="evenodd" d="M204.077 64.158 147.73 33.055c-12.243-6.74-27.33-6.74-39.573 0L51.762 64.158C39.52 70.898 32 83.416 32 96.898v62.205c0 13.529 7.52 25.999 19.762 32.739l56.347 31.103c12.243 6.74 27.33 6.74 39.573 0l56.347-31.103c12.243-6.74 19.762-19.258 19.762-32.739V96.897c0-13.529-7.519-25.999-19.762-32.74zM75.815 134.115v41.983h36.488c26.751 0 46.176-15.936 46.706-41.983h-22.847c-.53 12.277-9.255 22.628-24.004 22.628H98.132v-22.628zm104.234-10.713c-.012.457-.024.915-.024 1.372h-22.896c.145-.915.145-1.829.145-2.744 0-13.24-8.05-23.496-23.908-23.496h-14.171v26.24H96.878V79.276h36.344c27.233 0 46.851 16.177 46.851 42.754 0 .457-.012.915-.024 1.372" clip-rule="evenodd"/></svg>