<svg xmlns="http://www.w3.org/2000/svg" fill="none" viewBox="0 0 256 256"><path fill="#000" d="M77.014 203.933c-14.715-8.303-25.382-21.392-28.76-38.033q-.614-3.012-1.22-9.819-4.508-50.857-9.031-102.048-.03-.298.267-.322a240 240 0 0 0 31.892-4.86q29.4-6.514 56.431-16.725.53-.198.842-.084a419 419 0 0 0 60.325 17.487 239 239 0 0 0 29.498 4.31q.268.021.243.288l-9.696 107.879c-1.531 17.062-13.441 33.079-28.166 41.198a35373 35373 0 0 1-52.184 28.724.6.6 0 0 1-.565 0 11440 11440 0 0 1-49.876-27.995m90.145-24.26c6.134-3.404 10.855-9.136 13.055-15.695q.966-2.868 1.501-8.783 3.538-39.044 7.021-78.13.02-.24-.213-.283a456 456 0 0 1-61.158-16.487.62.62 0 0 0-.436 0 447 447 0 0 1-59.8 16.269.506.506 0 0 0-.4.54q3.526 39.722 6.975 78.992 1.08 12.251 9.443 19.787 2.345 2.11 8.21 5.494a2097 2097 0 0 0 35.736 20.158q.108.06.232.06.122 0 .229-.06 19.832-10.89 39.605-21.862"/></svg>