<svg xmlns="http://www.w3.org/2000/svg" fill="none" viewBox="0 0 256 256"><path fill="#000" d="M80.6 47.442a16 16 0 0 1 2.514-2.698c27.701-23.267 67.203-22.374 92.995 3.234a1.97 1.97 0 0 0 1.935.484q8.495-2.467 13.923-9.454a.31.31 0 0 1 .409-.084.33.33 0 0 1 .136.407c-9.484 21.923-31.263 39.811-52.036 50.756q-.946.493-1.909.016c-2.122-1.046-4.243-2.476-6.518-2.944q-7.73-1.591-14.401 3.09-.698.492-1.465.101-19.94-10.349-35.787-26.484c-6.979-7.097-13.54-15.786-16.94-25.216q-.281-.8.332-.212c1.091 1.038 1.739 2.544 2.736 3.463 3.34 3.072 8.043 6.647 12.747 6.28q.835-.066 1.329-.74"/><path fill="#000" d="M128.137 214.345c6.715-19.905 10.924-40.883 21.967-59.07 5.82-9.599 16.607-13.991 26.312-19.241a.4.4 0 0 0 .144-.133.363.363 0 0 0-.135-.514l-21.013-12.085a.92.92 0 0 1-.485-.757l-.69-7.949a1.606 1.606 0 0 1 1.525-1.744c18.592-.886 29.524-16.706 20.492-33.812a1.23 1.23 0 0 1 .137-1.362l10.378-12.697q.196-.238.341.034c10.549 19.668 9.151 37.292 9.313 61.462q.239 34.423 15.815 64.942.382.766-.282.229l-22.401-18.007q-.298-.239-.494.085l-15.815 25.658q-.331.536-.792.111l-16.615-15.336q-.299-.272-.52.077l-26.756 43.317q-.553.894-1.107 0l-26.721-43.326q-.205-.332-.495-.068l-16.726 15.395q-.408.375-.698-.102l-15.824-25.735q-.221-.357-.545-.093l-22.24 18.016a.13.13 0 0 1-.158.001.13.13 0 0 1-.037-.154q12.218-24.468 15.056-51.471c2.94-27.998-3.724-50.168 9.952-74.694q.18-.324.418-.043l10.634 12.714c.143.173.228.386.242.608s-.044.442-.165.626c-4.738 7.353-5.232 17.864.988 24.833q7.865 8.817 20.288 8.8.426-.009.392.426l-.699 9.301a.8.8 0 0 1-.409.664l-21.004 12.136q-.4.23 0 .459 7.37 4.128 14.707 8.315c14.307 8.153 20.365 27.48 25.35 43.615a2202 2202 0 0 1 8.026 26.561q.162.57.349.008"/><path fill="#000" d="M88.754 86.172a.39.39 0 0 1 .268-.234.41.41 0 0 1 .354.072 137.6 137.6 0 0 0 19.99 12.808.64.64 0 0 1 .344.576.65.65 0 0 1-.361.564c-9.424 4.656-26.5 0-20.595-13.786m77.753 10.808c-5.471 6.085-13.352 5.77-20.382 2.825a.45.45 0 0 1-.283-.404.45.45 0 0 1 .257-.421 127.5 127.5 0 0 0 20.425-12.808q.766-.588 1.09.323c1.116 3.191 1.449 7.634-1.107 10.485m-54.312 28.994c.153-10.374 1.006-21.709 11.333-27.207q4.465-2.366 9.108.034c11.009 5.693 11.026 18.808 11.444 29.403.068 1.838 8.333 6.153 10.071 7.166q.435.255.017.519-6.44 4.11-8.248 6.068c-9.628 10.476-13.181 22.373-17.646 36.339q-.213.663-.435 0c-6.015-17.949-9.824-32.186-25.673-42.475a.52.52 0 0 1-.234-.459.52.52 0 0 1 .277-.435c3.851-2.051 9.909-3.693 9.986-8.953"/></svg>