<svg xmlns="http://www.w3.org/2000/svg" fill="none" viewBox="0 0 256 256"><path fill="#000" fill-rule="evenodd" d="M105.606 39.31c-11.9 6.206-21.637 11.457-21.635 11.671.005.551 28.562 15.03 29.575 14.995.461-.016 3.806-1.557 7.432-3.425l6.595-3.396 7.202 3.707 7.202 3.707 11.794-5.306c17.771-7.995 19.617-8.872 19.328-9.166-.384-.39-6.758-3.819-24.052-12.934-8.358-4.406-16.47-8.725-18.028-9.6-1.557-.873-3.043-1.576-3.303-1.563s-10.21 5.103-22.11 11.31M53.411 66.37l-12.389 6.406v28.116c0 15.465.163 28.117.363 28.117.198 0 6.293-2.645 13.544-5.878l13.182-5.878V87.616l6.442 3.513q7.446 4.058 14.9 8.1l8.46 4.585 3.764-1.704a911 911 0 0 0 7.067-3.243c1.817-.847 6.277-2.858 9.91-4.47s6.998-3.234 7.475-3.603c.634-.491-7.092-4.766-28.577-15.811-16.194-8.326-29.963-15.112-30.598-15.08s-6.73 2.942-13.543 6.466m121.92 1.798c-8.437 3.814-15.346 7.086-15.354 7.273s4.591 2.924 10.22 6.082c5.628 3.16 10.233 5.913 10.233 6.12s-4.98 2.623-11.067 5.37-21.473 9.703-34.191 15.459l-42.615 19.285-21.473 9.719c-21.896 9.924-27.914 12.678-28.74 13.15-.831.476-1.02 3.241-1.168 17.117L41 184.293l11.078 5.651 11.078 5.651 15.361-6.941c8.449-3.817 15.361-7.14 15.361-7.385 0-.244-1.56-1.262-3.468-2.264-1.909-1.001-5.848-3.219-8.755-4.928-2.906-1.71-5.805-3.278-6.442-3.486-.636-.207-1.147-.57-1.136-.807.01-.236 6.774-3.453 15.03-7.149 16.036-7.178 28.308-12.71 54.654-24.639a79745 79745 0 0 1 35.347-15.988 7174 7174 0 0 0 26.759-12.147l7.928-3.637.176-16.738.178-16.738-11.236-5.774c-6.18-3.175-11.463-5.766-11.74-5.756-.276.009-7.405 3.136-15.842 6.95m35.454 60.386c-1.656.81-4.926 2.326-7.268 3.369s-6.784 3.05-9.873 4.461l-5.616 2.564-.128 14.695c-.071 8.082-.368 14.659-.661 14.616-.665-.099-11.19-5.503-21.771-11.179-7.636-4.097-8.116-4.259-9.91-3.37-1.037.515-7.238 3.299-13.779 6.188s-12.106 5.441-12.368 5.672c-.261.231 12.904 7.375 29.255 15.876l29.73 15.456 12.7-6.577c6.984-3.618 12.923-6.917 13.197-7.332.615-.933.563-56.039-.054-55.965-.244.03-1.798.716-3.454 1.526m-70.327 64.681a4866 4866 0 0 0-6.607 2.849c-6.649 2.879-5.346 2.975-13.256-.968-5.268-2.625-7.539-3.435-8.525-3.042-.739.295-7.103 3.161-14.141 6.369-7.04 3.208-13.042 5.833-13.34 5.833-2.954 0 1.956 2.937 20.901 12.504L127.708 228l9.348-4.621c5.141-2.541 15.512-7.63 23.045-11.308 7.534-3.68 13.604-6.785 13.491-6.903-.115-.116-6.427-3.362-14.028-7.211l-13.821-6.999z" clip-rule="evenodd"/></svg>