<svg xmlns="http://www.w3.org/2000/svg" fill="none" viewBox="0 0 256 256"><path fill="#000" d="M206.471 58.016a187.3 187.3 0 0 0-45.796-13.988.7.7 0 0 0-.74.338c-1.969 3.464-4.163 7.98-5.7 11.547a173.8 173.8 0 0 0-51.439 0 116 116 0 0 0-5.785-11.547.72.72 0 0 0-.74-.357 187 187 0 0 0-45.796 13.998.66.66 0 0 0-.3.253c-29.174 42.952-37.17 84.842-33.242 126.207a.75.75 0 0 0 .29.516 187.7 187.7 0 0 0 56.183 27.977.73.73 0 0 0 .787-.244 130 130 0 0 0 11.494-18.429.693.693 0 0 0-.385-.976 124 124 0 0 1-17.549-8.243.705.705 0 0 1-.075-1.174 102 102 0 0 0 3.487-2.694.71.71 0 0 1 .732-.094c36.814 16.561 76.685 16.561 113.068 0a.7.7 0 0 1 .741.084 84 84 0 0 0 3.487 2.704.704.704 0 0 1-.056 1.174 115.7 115.7 0 0 1-17.559 8.233.7.7 0 0 0-.415.406.7.7 0 0 0 .031.58c3.375 6.45 7.237 12.59 11.484 18.42a.72.72 0 0 0 .787.263 187 187 0 0 0 56.267-27.987.7.7 0 0 0 .3-.507c4.688-47.824-7.856-89.376-33.271-126.197a.56.56 0 0 0-.29-.263M91.19 159.278c-11.081 0-20.221-10.036-20.221-22.344 0-12.317 8.962-22.344 20.22-22.344 11.344 0 20.4 10.111 20.222 22.344 0 12.317-8.962 22.344-20.221 22.344m74.763 0c-11.09 0-20.221-10.036-20.221-22.344 0-12.317 8.953-22.344 20.221-22.344 11.344 0 20.4 10.111 20.222 22.344 0 12.317-8.869 22.344-20.222 22.344"/></svg>
