<svg width="256" height="256" viewBox="0 0 256 256" fill="none" xmlns="http://www.w3.org/2000/svg">
<path fill-rule="evenodd" clip-rule="evenodd" d="M125.071 168.38C124.949 162.255 124.1 156.111 122.54 150.077L123.501 150.368C130.433 152.576 138.393 155.11 147.172 156.935C148.387 164.746 148.562 172.606 147.691 180.306C145.193 201.655 134.065 224.093 108.628 249.886L91.5236 233.017C96.5317 227.939 100.869 223.096 104.536 218.488L37.4517 152.33C32.9067 156.072 28.1244 160.476 23.105 165.543L6.00033 148.675C31.4366 122.882 53.709 111.434 75.0303 108.649C95.7503 105.942 113.992 111.736 129.637 116.69L130.401 116.942C143.99 121.244 155.709 124.859 168.064 124.785L130.263 87.5056C130.319 93.6749 131.284 99.6763 132.794 105.809L131.832 105.518C124.9 103.309 116.94 100.775 108.162 98.9507C106.946 91.1392 106.771 83.2793 107.643 75.5797C110.14 54.2302 121.269 31.7924 146.705 6L163.81 22.8685C158.802 27.9466 154.464 32.7897 150.797 37.3975L217.882 103.556C222.427 99.8138 227.209 95.4093 232.228 90.3424L249.333 107.211C223.889 133.011 201.624 144.451 180.303 147.237C159.583 149.943 141.342 144.149 125.696 139.196L124.933 138.943C111.343 134.641 99.624 131.027 87.2695 131.101L125.071 168.38ZM121.795 188.603L67.0944 134.657C61.4985 136.677 56.1659 139.276 51.1783 142.414L114.26 204.625C117.315 199.586 119.839 194.219 121.795 188.603ZM133.538 67.283C135.48 61.6596 138.005 56.2913 141.073 51.2607L204.155 113.472C199.167 116.61 193.835 119.208 188.239 121.228L133.538 67.283Z" fill="black"/>
</svg>
