<svg xmlns="http://www.w3.org/2000/svg" fill="none" viewBox="0 0 256 256"><path fill="#000" fill-rule="evenodd" d="M205.451 209.315a16.6 16.6 0 0 1-1.959-3.049 24.74 24.74 0 0 1-2.444-11.165c0-5.131 1.278-8.836 2.444-11.166a16.6 16.6 0 0 1 1.959-3.048l.038-.062a6.2 6.2 0 0 0 1.761-4.313V40.196A6.203 6.203 0 0 0 201.048 34H76.526l-1.03.062a36.7 36.7 0 0 0-13.669 3.693 28 28 0 0 0-10.915 9.455C47.836 51.845 46 57.707 46 64.98v130.121c0 5.737 1.451 10.446 3.944 14.189 2.481 3.693 5.731 6.085 8.782 7.621a29.1 29.1 0 0 0 11.66 2.974h.422v-12.392c-.062 0-.186 0-.36-.025a16.7 16.7 0 0 1-6.177-1.648 10.13 10.13 0 0 1-4.007-3.408c-.992-1.487-1.86-3.755-1.86-7.311s.868-5.825 1.86-7.312a10.14 10.14 0 0 1 4.02-3.408 16.7 16.7 0 0 1 6.524-1.673h119.796c-1.129 3.346-1.96 7.498-1.96 12.393s.831 9.046 1.96 12.392h-48.605v12.392h59.049a6.198 6.198 0 0 0 6.096-7.334 6.2 6.2 0 0 0-1.643-3.174zm-89.06-50.873c-5.348 0-9.265-3.272-5.524-17.687l6.136-25.558c1.066-4.086 1.243-5.727 0-5.727-1.603 0-8.537 2.821-12.647 5.607l-2.668-4.417c13-10.972 27.956-17.402 34.375-17.402 5.343 0 6.232 6.39 3.564 16.212l-7.031 26.863c-1.244 4.743-.713 6.379.536 6.379 1.602 0 6.859-1.967 12.024-6.058l3.033 4.086c-12.646 12.783-26.46 17.702-31.798 17.702m30.999-90.56c0-5.246-3.386-9.823-10.159-9.823-8.906 0-13.359 7.207-13.359 12.442-.177 6.224 3.563 9.989 9.977 9.989 7.658 0 13.541-6.059 13.541-12.609" clip-rule="evenodd"/><path fill="#000" d="M132.224 195.81h-52.63v43.471c-.003 1.921.51 3.8 1.473 5.399s2.335 2.845 3.94 3.58a8 8 0 0 0 5.074.553c1.704-.376 3.268-1.303 4.495-2.663l11.333-12.555 11.333 12.555c1.227 1.36 2.791 2.287 4.495 2.663a8 8 0 0 0 5.074-.553c1.605-.735 2.976-1.981 3.94-3.58a10.46 10.46 0 0 0 1.473-5.399z"/></svg>