<svg xmlns="http://www.w3.org/2000/svg" fill="none" viewBox="0 0 256 256"><path fill="#000" d="M128 174.922q-2.625 0-4.922-.814-2.297-.813-4.266-2.796l-47.25-47.249q-3.937-3.938-3.78-9.188t3.78-9.187q3.939-3.937 9.359-4.095t9.345 3.766l24.609 24.61V36.125q0-5.579 3.78-9.345T128 23t9.358 3.78q3.793 3.793 3.767 9.345v93.844l24.609-24.61q3.938-3.937 9.358-3.78 5.421.158 9.345 4.109 3.61 3.937 3.78 9.187.171 5.25-3.78 9.188l-47.25 47.249q-1.968 1.97-4.265 2.796-2.297.827-4.922.814M49.25 233q-10.828 0-18.532-7.704-7.706-7.705-7.718-18.546V180.5q0-5.578 3.78-9.345 3.78-3.766 9.345-3.78t9.358 3.78 3.767 9.345v26.25h157.5V180.5q0-5.578 3.78-9.345 3.78-3.766 9.345-3.78t9.358 3.78T233 180.5v26.25q0 10.828-7.705 18.546-7.704 7.717-18.545 7.704z"/></svg>
