<svg width="256" height="256" viewBox="0 0 256 256" fill="none" xmlns="http://www.w3.org/2000/svg">
<path fill-rule="evenodd" clip-rule="evenodd" d="M142.455 193.222C133.988 201.727 120.209 201.651 111.836 193.053L42.8612 122.222C39.7135 118.977 37.9674 114.621 38.0005 110.097C38.0335 105.573 39.8429 101.244 43.0377 98.0445C46.2325 94.8454 50.5561 93.0335 55.0741 93.0005C59.5921 92.9674 63.9416 94.7158 67.1828 97.8678L122.299 153.058C125.448 156.211 130.552 156.211 133.701 153.058L188.817 97.8678C192.058 94.7158 196.408 92.9674 200.926 93.0005C205.444 93.0335 209.768 94.8454 212.962 98.0445C216.157 101.244 217.967 105.573 218 110.097C218.033 114.621 216.287 118.977 213.139 122.222L142.455 193.222Z" fill="black"/>
</svg>
