<svg xmlns="http://www.w3.org/2000/svg" viewBox="0 0 256 256"><path fill-rule="evenodd" d="M115.211 42.5c3.007-10.786 19.908-11.508 23.809-1.012a15.6 15.6 0 0 1 .967 5.494v135.5l36.671-31.523a12.52 12.52 0 0 1 8.84-3.651c3.316 0 6.496 1.313 8.84 3.651a12.45 12.45 0 0 1 3.662 8.814c0 3.306-1.317 6.477-3.662 8.815l-58.354 50.488a14.05 14.05 0 0 1-18.605-.196l-55.717-50.292A12.45 12.45 0 0 1 58 159.773c0-3.306 1.317-6.476 3.662-8.814a12.52 12.52 0 0 1 8.84-3.651 12.52 12.52 0 0 1 8.84 3.651l35.267 31.523v-135.5c0-1.622.22-3.114.602-4.482" clip-rule="evenodd"/></svg>