<svg width="256" height="256" viewBox="0 0 256 256" fill="none" xmlns="http://www.w3.org/2000/svg">
<path d="M110.452 82.0395C112.349 83.0525 113.625 85.1694 113.625 87.3182C113.625 95.2509 120.061 101.682 128 101.682C135.939 101.682 142.375 95.2509 142.375 87.3182C142.375 85.1694 143.651 83.0525 145.548 82.0395C150.076 79.6214 153.156 74.852 153.156 69.3636C153.156 61.431 146.72 55 138.781 55C137.395 55 136.054 55.1961 134.785 55.5623C130.631 56.761 125.369 56.761 121.215 55.5623C119.946 55.1961 118.605 55 117.219 55C109.28 55 102.844 61.431 102.844 69.3636C102.844 74.852 105.924 79.6214 110.452 82.0395Z" fill="black"/>
<path d="M27.375 103.356L109.132 105.273C109.132 105.273 110.424 102.045 110.929 99.8864C111.103 99.1466 111.285 98.4073 111.441 97.7936C111.659 96.9314 111.252 96.0466 110.435 95.6936C100.912 91.5806 45.5026 67.6576 36.2678 63.8563C32.6801 62.3233 28.5437 62.8472 25.452 65.2255L17.2047 71.5699C14.499 73.6515 12.9911 76.841 13 80.1364C13.0029 81.1824 13.1585 82.2388 13.4773 83.2741L17.4746 96.1744C18.818 100.537 22.8113 103.166 27.375 103.356Z" fill="black"/>
<path d="M36.3591 108.864H107.875C105.161 113.384 106.376 116.533 107.574 119.64L107.578 119.649C107.806 120.241 108.034 120.834 108.234 121.432L41.0924 140.645C36.8054 141.852 32.2169 140.3 29.5442 136.739L25.3191 131.11C22.8688 127.846 22.4746 123.478 24.3009 119.828L26.8079 114.818C28.6192 111.198 32.3089 108.898 36.3591 108.864Z" fill="black"/>
<path d="M115.844 100.541C115.266 100.947 114.807 101.524 114.547 102.217L110.925 111.869C110.346 113.41 110.315 115.101 110.836 116.662L116.682 134.187C117.035 135.245 117.626 136.217 118.563 136.822C120.205 137.884 123.35 139.386 128 139.386C132.649 139.386 135.795 137.884 137.437 136.822C138.374 136.217 138.965 135.245 139.317 134.187L145.164 116.662C145.684 115.101 145.653 113.41 145.075 111.869L141.452 102.217C141.193 101.524 140.734 100.947 140.156 100.541C136.956 103.479 132.688 105.273 128 105.273C123.312 105.273 119.043 103.479 115.844 100.541Z" fill="black"/>
<path d="M120.813 180.682L117.295 140.256C119.5 141.539 123.081 142.977 128 142.977C132.918 142.977 136.499 141.539 138.706 140.256L135.188 180.682C135.188 180.682 133.391 182.477 128 182.477C122.609 182.477 120.813 180.682 120.813 180.682Z" fill="black"/>
<path d="M122.609 209.409L120.852 184.833C120.917 184.86 120.983 184.887 121.05 184.914C122.644 185.55 124.9 186.068 128 186.068C131.101 186.068 133.357 185.55 134.95 184.914C135.017 184.887 135.083 184.86 135.147 184.833L133.391 209.409C133.391 209.409 132.492 213 128 213C123.508 213 122.609 209.409 122.609 209.409Z" fill="black"/>
<path d="M228.625 103.356L146.867 105.273C146.867 105.273 145.576 102.045 145.07 99.8864C144.897 99.1466 144.714 98.4073 144.559 97.7939C144.341 96.9314 144.748 96.0466 145.564 95.694C155.088 91.5806 210.497 67.6576 219.732 63.8563C223.32 62.3233 227.456 62.8472 230.548 65.2255L238.795 71.5699C241.501 73.6515 243.009 76.841 243 80.1364C242.997 81.1824 242.841 82.2388 242.523 83.2741L238.525 96.1744C237.182 100.537 233.189 103.166 228.625 103.356Z" fill="black"/>
<path d="M219.641 108.864H148.125C150.839 113.384 149.624 116.533 148.425 119.64C148.196 120.235 147.967 120.83 147.766 121.432L214.907 140.645C219.195 141.852 223.783 140.3 226.455 136.739L230.681 131.11C233.131 127.846 233.525 123.478 231.699 119.828L229.192 114.818C227.38 111.198 223.691 108.898 219.641 108.864Z" fill="black"/>
</svg>
