<svg xmlns="http://www.w3.org/2000/svg" fill="none" viewBox="0 0 256 256"><path fill="#000" d="M202.941 31.71c-13.519-5.494-26.502-4.425-37.637.195l-62.045 26.6a9.4 9.4 0 0 0-4.001 3.113 9.47 9.47 0 0 0-.924 9.742 9.44 9.44 0 0 0 3.345 3.814l55.182 37.361c6.698 4.57 14.547 7.772 23.267 8.604 29.423 2.808 55.123-20.322 52.715-50.13-1.421-17.236-13.363-32.534-29.895-39.297m1.967 141.205c-4.524-11.2-12.833-18.03-22.075-21.775l-52.336-19.997c-5.943-2.298-12.083 2.792-11.038 9.138l9.587 54.539c1.167 6.646 3.779 13.069 8.401 18.682a39.9 39.9 0 0 0 13.639 10.639 39.79 39.79 0 0 0 33.733.207 39.9 39.9 0 0 0 13.768-10.471c9.583-11.145 11.897-27.289 6.321-40.962M92.506 146.141c3.583 8.24 4.428 17.899.241 27.863-5.095 12.194-16.836 21.012-30.007 21.933a35.65 35.65 0 0 1-15.365-2.096 35.75 35.75 0 0 1-13.035-8.423 35.9 35.9 0 0 1-8.257-13.168 36 36 0 0 1-1.925-15.437c.61-6.426 2.988-12.257 6.484-17.21l28.486-40.686a7.4 7.4 0 0 1 2.949-2.464 7.36 7.36 0 0 1 7.378.704 7.4 7.4 0 0 1 2.433 2.978z"/></svg>