<svg xmlns="http://www.w3.org/2000/svg" fill="none" viewBox="0 0 256 256"><path fill="#000" fill-rule="evenodd" d="M128 220a74.94 74.94 0 0 1-53.033-22.001A75.18 75.18 0 0 1 53 144.884c0-36.473 39.786-91.21 61.402-118.257 7.062-8.836 20.134-8.836 27.196 0C163.214 53.675 203 108.41 203 144.884a75.18 75.18 0 0 1-21.967 53.115A74.94 74.94 0 0 1 128 220M102.843 96.146q.557-3.308 1.053-6.403c.136-.878-.163-1.787-.808-2.452-1.376-1.412-4.005-1.177-4.793.509-1.722 3.675-3.934 7.428-6.294 11.391-7.497 12.654-15.982 27.008-13.593 47.167a10.4 10.4 0 0 0 1.297 3.967 10.7 10.7 0 0 0 2.774 3.173 11.1 11.1 0 0 0 3.828 1.895c1.394.381 2.855.493 4.298.328 5.278-.622 10.546-4.567 9.451-13.81-2.02-17.047.533-32.299 2.784-45.749z" clip-rule="evenodd"/></svg>