<svg width="256" height="256" viewBox="0 0 256 256" fill="none" xmlns="http://www.w3.org/2000/svg">
<path d="M128 28C72.6875 28 28 72.6875 28 128C28 183.313 72.6875 228 128 228C183.313 228 228 183.313 228 128C228 72.6875 183.313 28 128 28ZM107.219 169.406C84.4063 169.406 65.8125 150.813 65.8125 128C65.8125 105.187 84.4063 86.5938 107.219 86.5938C130.031 86.5938 148.625 105.187 148.625 128C148.625 150.813 130.031 169.406 107.219 169.406ZM181.437 142.688H161.75V113.156H181.437C189.562 113.156 196.281 119.719 196.281 127.844C196.281 135.969 189.562 142.688 181.437 142.688Z" fill="black"/>
</svg>
