<svg xmlns="http://www.w3.org/2000/svg" fill="none" viewBox="0 0 256 256"><path fill="#000" d="M128 228q-20.75 0-39-7.875T57.25 198.75 35.875 167 28 128t7.875-39T57.25 57.25 89 35.875 128 28t39 7.875 31.75 21.375T220.125 89 228 128t-7.875 39-21.375 31.75T167 220.125 128 228m0-20q33.5 0 56.75-23.25T208 128t-23.25-56.75T128 48 71.25 71.25 48 128t23.25 56.75T128 208"/><path fill="#000" d="M135.13 181.123Q132.25 184 128 184q-4.24.01-7.12-2.867t-2.88-7.122q.01-4.236 2.88-7.112t7.12-2.877q4.24.01 7.12 2.877t2.88 7.112q.01 4.236-2.87 7.112m2.87-33.09h-20V77h20z"/></svg>