<svg xmlns="http://www.w3.org/2000/svg" fill="none" viewBox="0 0 256 256"><path fill="#000" d="M69.566 123.224a8.48 8.48 0 0 1 8.515-8.48l14.118.046a8.49 8.49 0 0 1 8.487 8.49v53.403c1.59-.471 3.63-.974 5.864-1.498a7.075 7.075 0 0 0 5.453-6.886v-66.241a8.49 8.49 0 0 1 5.24-7.846 8.5 8.5 0 0 1 3.248-.647h14.146a8.49 8.49 0 0 1 8.487 8.491v61.483s3.54-1.434 6.991-2.891a7.09 7.09 0 0 0 4.325-6.522V80.828a8.5 8.5 0 0 1 2.486-6.004 8.48 8.48 0 0 1 6.001-2.486h14.145c2.252 0 4.41.894 6.002 2.486a8.5 8.5 0 0 1 2.487 6.004v60.357c12.263-8.891 24.693-19.585 34.556-32.444a14.25 14.25 0 0 0 2.168-13.305 99.83 99.83 0 0 0-35.843-48.445 99.8 99.8 0 0 0-57.183-18.982c-55.443-.745-101.264 44.53-101.258 99.999a99.7 99.7 0 0 0 13.275 50.022 12.64 12.64 0 0 0 12.055 6.247 341 341 0 0 0 9.969-1.034 7.07 7.07 0 0 0 6.27-7.018v-53.001m-.312 85.645a99.91 99.91 0 0 0 104.15 8.244 99.96 99.96 0 0 0 39.862-36.852A100 100 0 0 0 228 128.003c0-2.303-.107-4.58-.261-6.844-36.519 54.483-103.947 79.953-158.482 87.712"/></svg>