<svg xmlns="http://www.w3.org/2000/svg" fill="none" viewBox="0 0 256 256"><path fill="#000" d="M223.492 48.34q3.159-3.093 4.171-4.185.337-.367.337.135v169.58q0 .26-.259.259H28.259q-.259 0-.259-.259V112.46q0-.285.285-.285c25.147.243 49.354.047 73.91-3.368 46.526-6.478 87.963-27.794 121.297-60.466m-23.367 137.717.01-83.686a.15.15 0 0 0-.02-.076.15.15 0 0 0-.133-.075.15.15 0 0 0-.075.021Q166.485 123.263 128 132.125c-23.678 5.453-47.73 7.507-71.694 7.709q-.55.005-.55.554v45.674a.26.26 0 0 0 .26.259H199.86q.264 0 .265-.264"/></svg>