<svg xmlns="http://www.w3.org/2000/svg" fill="none" viewBox="0 0 256 256"><path fill="#000" fill-rule="evenodd" d="M156.003 93.833a6.827 6.827 0 0 0 6.828 6.829h69.005a6.827 6.827 0 0 0 6.828-6.829V24.83a6.827 6.827 0 0 0-6.828-6.83h-69.005a6.826 6.826 0 0 0-6.828 6.829zm13.657-62.176v55.348h55.347V31.656z" clip-rule="evenodd"/><path fill="#000" fill-rule="evenodd" d="M112.543 52.676a6.8 6.8 0 0 1 4.81 2 6.84 6.84 0 0 1 1.993 4.828v69.005a6.84 6.84 0 0 1-1.993 4.829 6.8 6.8 0 0 1-4.81 2c1.804 0 3.534.72 4.81 2a6.84 6.84 0 0 1 1.993 4.829c0-1.811.716-3.548 1.992-4.829a6.8 6.8 0 0 1 4.81-2h68.741c1.804 0 3.534.72 4.81 2a6.84 6.84 0 0 1 1.992 4.829v69.005a6.84 6.84 0 0 1-1.992 4.828 6.8 6.8 0 0 1-4.81 2h-68.741a6.8 6.8 0 0 1-4.81-2 6.84 6.84 0 0 1-1.992-4.828 6.84 6.84 0 0 1-1.993 4.828 6.8 6.8 0 0 1-4.81 2h-68.74a6.8 6.8 0 0 1-4.81-2A6.84 6.84 0 0 1 37 211.172v-69.005c0-1.811.717-3.548 1.992-4.829a6.8 6.8 0 0 1 4.81-2 6.8 6.8 0 0 1-4.81-2A6.84 6.84 0 0 1 37 128.509V59.504c0-1.81.717-3.548 1.992-4.828a6.8 6.8 0 0 1 4.81-2zM50.605 66.333h55.136v55.348H50.605zm82.346 82.662h55.135v55.348h-55.135zm-82.346 0h55.136v55.348H50.605z" clip-rule="evenodd"/></svg>