<svg width="256" height="256" viewBox="0 0 256 256" fill="none" xmlns="http://www.w3.org/2000/svg">
<path fill-rule="evenodd" clip-rule="evenodd" d="M212.406 23L211.391 24.0145C211.391 23 211.391 23 211.391 24.0145H210.377V25.029H209.362L208.348 27.058L207.333 28.0725L206.319 29.087L204.29 31.1159L203.275 32.1304L200.232 34.1594V35.1739L199.217 36.1884L198.203 37.2029L195.159 39.2319L194.145 40.2464L193.13 41.2609L188.058 46.3333L187.043 47.3478V48.3623L185.014 49.3768L184 51.4058L181.971 52.4203L180.957 54.4493H179.942V55.4638H178.928L179.942 54.4493L177.913 55.4638V57.4928L178.928 56.4783L176.899 58.5072H175.884V59.5217H174.87L175.884 58.5072C175.884 57.4928 175.884 57.4928 175.884 58.5072H174.87V59.5217L173.855 61.5507H171.826V62.5652H170.812V64.5942L174.87 60.5362L175.884 59.5217L173.855 61.5507L172.841 62.5652L171.826 63.5797V64.5942C170.812 64.5942 170.812 64.5942 171.826 64.5942V63.5797L170.812 65.6087H169.797L168.783 67.6377L142.406 93H140.377V95.029H138.348L137.333 96.0435H136.319L135.304 95.029L134.29 93H133.275V91.9855H131.246L132.261 93V95.029L134.29 98.0725V100.101L132.261 99.087L131.246 96.0435C130.232 95.029 130.232 95.029 131.246 96.0435L132.261 97.058C132.261 98.0725 132.261 98.0725 132.261 97.058V96.0435H131.246V95.029C131.246 96.0435 131.246 96.0435 131.246 95.029H130.232V94.0145H129.217V93H128.203V91.9855L127.188 90.971V89.9565L124.145 87.9275H125.159V88.942L126.174 89.9565H125.159V91.9855H126.174V93L125.159 91.9855H124.145L123.13 89.9565L124.145 90.971V93H125.159L123.13 91.9855L122.116 89.9565V87.9275L121.101 85.8986V83.8696L120.087 82.8551H121.101L119.072 80.8261H118.058V79.8116H117.043C116.029 79.8116 116.029 79.8116 117.043 79.8116V78.7971L115.014 77.7826L114 74.7391L112.986 73.7246L111.971 72.7101V71.6957H110.957L109.942 69.6667V71.6957L110.957 72.7101L111.971 74.7391V75.7536H110.957L108.928 74.7391V73.7246L107.913 72.7101V70.6812V71.6957H108.928V72.7101H110.957L109.942 71.6957H108.928V70.6812L107.913 68.6522H108.928V67.6377L109.942 68.6522L110.957 67.6377V65.6087H109.942V64.5942H107.913V65.6087H108.928V66.6232L107.913 65.6087H106.899V67.6377H107.913V68.6522H106.899L105.884 67.6377V68.6522H106.899H104.87L103.855 67.6377H102.841V65.6087H101.826V62.5652L100.812 61.5507H101.826V62.5652H102.841V63.5797H103.855V62.5652H104.87L103.855 61.5507H104.87H102.841H103.855V62.5652L102.841 61.5507V60.5362L101.826 59.5217H100.812V60.5362L99.7971 59.5217H98.7826V58.5072C98.7826 59.5217 99.7971 59.5217 98.7826 58.5072V57.4928L97.7681 56.4783L95.7391 55.4638V54.4493H97.7681H96.7536L95.7391 53.4348H94.7246V54.4493H93.7101C93.7101 53.4348 93.7101 53.4348 93.7101 54.4493H91.6812V53.4348L90.6667 52.4203H89.6522C90.6667 53.4348 90.6667 53.4348 89.6522 52.4203H88.6377V53.4348L87.6232 54.4493V53.4348H86.6087L84.5797 52.4203H81.5362H82.5507V51.4058H84.5797L82.5507 49.3768V48.3623L81.5362 46.3333L78.4928 43.2899V41.2609H77.4783C75.4493 41.2609 75.4493 41.2609 75.4493 43.2899L76.4638 44.3043L77.4783 47.3478L78.4928 48.3623V50.3913L79.5072 51.4058C81.5362 52.4203 81.5362 52.4203 79.5072 51.4058L78.4928 52.4203V54.4493L79.5072 55.4638V58.5072L78.4928 57.4928L77.4783 55.4638H76.4638L77.4783 56.4783V58.5072L76.4638 57.4928L75.4493 56.4783L74.4348 55.4638H72.4058L74.4348 56.4783L73.4203 57.4928V58.5072H72.4058H74.4348V59.5217H73.4203L71.3913 57.4928V54.4493H70.3768L68.3478 52.4203V50.3913L67.3333 49.3768H68.3478L66.3188 48.3623L65.3043 47.3478L64.2899 45.3188H63.2754V44.3043H62.2609V42.2754L61.2464 41.2609V42.2754L59.2174 41.2609L60.2319 42.2754L61.2464 43.2899V44.3043L62.2609 45.3188V47.3478H61.2464C61.2464 48.3623 61.2464 48.3623 61.2464 47.3478L59.2174 46.3333C59.2174 45.3188 59.2174 45.3188 59.2174 46.3333L60.2319 47.3478V48.3623L61.2464 49.3768L59.2174 47.3478V49.3768L58.2029 48.3623V46.3333L57.1884 45.3188L56.1739 44.3043L55.1594 43.2899V41.2609L54.1449 42.2754H55.1594V45.3188L54.1449 44.3043L53.1304 42.2754V41.2609L52.1159 39.2319L50.087 35.1739L49.0725 34.1594L48.058 32.1304V31.1159L47.0435 30.1014V29.087H46.029L47.0435 31.1159V32.1304H48.058V34.1594H49.0725V36.1884L50.087 37.2029L51.1014 39.2319L52.1159 41.2609V42.2754L54.1449 44.3043H53.1304L54.1449 46.3333H55.1594V48.3623L58.2029 52.4203L59.2174 53.4348V55.4638L61.2464 57.4928L62.2609 59.5217L63.2754 61.5507V62.5652L64.2899 63.5797V64.5942L63.2754 62.5652H62.2609L63.2754 64.5942H64.2899L65.3043 66.6232V65.6087L66.3188 67.6377V69.6667H67.3333V70.6812L68.3478 71.6957H67.3333L68.3478 72.7101L69.3623 73.7246V75.7536H70.3768V76.7681L71.3913 77.7826V75.7536V76.7681H72.4058V77.7826L73.4203 78.7971L74.4348 79.8116V80.8261C74.4348 81.8406 74.4348 81.8406 74.4348 80.8261V81.8406L75.4493 82.8551L78.4928 87.9275L77.4783 86.913H76.4638V85.8986H75.4493L74.4348 84.8841L72.4058 82.8551L73.4203 83.8696V84.8841L72.4058 83.8696V82.8551H70.3768L71.3913 83.8696L72.4058 84.8841V85.8986C73.4203 85.8986 73.4203 85.8986 72.4058 85.8986L71.3913 84.8841H70.3768C69.3623 84.8841 69.3623 84.8841 70.3768 84.8841H69.3623L68.3478 85.8986C69.3623 85.8986 69.3623 85.8986 68.3478 85.8986H67.3333L68.3478 86.913V88.942H69.3623L71.3913 91.9855L72.4058 93L73.4203 95.029H72.4058L73.4203 96.0435L76.4638 100.101L77.4783 102.13L78.4928 103.145L81.5362 107.203L82.5507 109.232L84.5797 110.246V112.275L86.6087 114.304L88.6377 117.348L87.6232 115.319L85.5942 113.29L87.6232 114.304V115.319L86.6087 113.29L85.5942 112.275L84.5797 109.232L83.5652 108.217L82.5507 107.203V106.188L81.5362 105.174L79.5072 103.145V102.13H78.4928V100.101L77.4783 99.087C75.4493 97.058 76.4638 97.058 77.4783 99.087L79.5072 102.13V100.101L81.5362 103.145L82.5507 104.159V105.174L84.5797 109.232L85.5942 110.246L87.6232 112.275L88.6377 113.29V115.319L89.6522 116.333L92.6957 119.377V120.391L94.7246 122.42V123.435H95.7391L96.7536 126.478H95.7391V128.507L94.7246 130.536L93.7101 131.551L92.6957 133.58V136.623L88.6377 140.681V139.667L91.6812 137.638V136.623L89.6522 137.638V138.652L88.6377 139.667H87.6232C87.6232 138.652 88.6377 139.667 87.6232 139.667L86.6087 140.681H85.5942L84.5797 142.71L82.5507 143.725L78.4928 147.783V149.812H79.5072L80.5217 148.797L82.5507 147.783L84.5797 145.754L86.6087 143.725H85.5942L87.6232 142.71L88.6377 141.696V142.71C87.6232 142.71 87.6232 142.71 88.6377 142.71L87.6232 143.725L86.6087 145.754L85.5942 146.768L79.5072 154.884L80.5217 153.87H81.5362C80.5217 153.87 80.5217 153.87 81.5362 153.87V152.855H82.5507V153.87L84.5797 152.855V153.87L81.5362 155.899L80.5217 156.913H79.5072V157.928H78.4928L76.4638 159.957H75.4493L74.4348 160.971L72.4058 161.986L71.3913 164.014V165.029L69.3623 167.058L64.2899 173.145L63.2754 174.159L62.2609 175.174H63.2754L64.2899 174.159H65.3043V173.145L67.3333 172.13L68.3478 171.116V173.145C68.3478 174.159 67.3333 175.174 66.3188 174.159L65.3043 175.174V176.188V174.159H64.2899V175.174L62.2609 177.203H61.2464V176.188L59.2174 177.203H57.1884V178.217H56.1739C56.1739 177.203 57.1884 177.203 56.1739 178.217V179.232L57.1884 180.246V179.232L58.2029 178.217H59.2174L58.2029 180.246H59.2174L61.2464 178.217H62.2609L63.2754 177.203V178.217C62.2609 178.217 62.2609 178.217 63.2754 178.217V179.232L62.2609 180.246H63.2754L62.2609 181.261H61.2464L62.2609 182.275L61.2464 183.29H59.2174L58.2029 184.304L56.1739 185.319C56.1739 184.304 57.1884 183.29 58.2029 184.304V183.29C58.2029 182.275 58.2029 182.275 58.2029 183.29H55.1594C55.1594 184.304 55.1594 184.304 55.1594 183.29H54.1449L55.1594 184.304L54.1449 185.319H55.1594L54.1449 186.333H55.1594V187.348H54.1449L52.1159 189.377V190.391L51.1014 191.406H49.0725V192.42C50.087 192.42 50.087 192.42 49.0725 192.42V193.435H52.1159V194.449H51.1014L52.1159 195.464V196.478H55.1594V198.507H56.1739V199.522L55.1594 200.536C53.1304 201.551 53.1304 200.536 54.1449 199.522V198.507L53.1304 200.536L51.1014 202.565L50.087 204.594L46.029 207.638L45.0145 208.652L44 209.667C44 210.681 46.029 210.681 49.0725 208.652L52.1159 206.623L53.1304 204.594L55.1594 203.58V202.565C56.1739 200.536 57.1884 200.536 57.1884 201.551V202.565L58.2029 201.551H59.2174L61.2464 200.536V199.522H62.2609L65.3043 197.493V198.507H64.2899L63.2754 199.522V200.536L64.2899 198.507H66.3188L65.3043 200.536H64.2899L63.2754 201.551H66.3188V202.565C65.3043 202.565 65.3043 202.565 66.3188 202.565V201.551L67.3333 200.536H69.3623L70.3768 198.507V199.522L69.3623 201.551L67.3333 202.565V203.58H66.3188L62.2609 207.638H63.2754C63.2754 206.623 63.2754 206.623 63.2754 207.638H62.2609C63.2754 207.638 63.2754 207.638 62.2609 207.638L61.2464 208.652L60.2319 209.667V210.681L59.2174 212.71L57.1884 213.725L56.1739 214.739L54.1449 217.783H55.1594V218.797L58.2029 215.754L59.2174 214.739V213.725H60.2319L61.2464 212.71V213.725L62.2609 212.71V213.725L61.2464 214.739V215.754L63.2754 213.725V212.71L65.3043 211.696C64.2899 212.71 65.3043 212.71 65.3043 211.696H66.3188V210.681L63.2754 213.725L62.2609 214.739L61.2464 216.768L62.2609 215.754L63.2754 214.739L65.3043 213.725C66.3188 212.71 66.3188 213.725 65.3043 213.725L64.2899 214.739H63.2754L62.2609 215.754V216.768L60.2319 217.783L59.2174 218.797V219.812L60.2319 218.797H61.2464L59.2174 220.826L57.1884 222.855L48.058 231.986L46.029 233H47.0435L48.058 231.986L49.0725 230.971H50.087V228.942H51.1014L52.1159 227.928H53.1304V226.913L55.1594 224.884L58.2029 221.841H59.2174L60.2319 220.826L61.2464 218.797H62.2609L63.2754 217.783L71.3913 210.681L72.4058 209.667L74.4348 208.652C73.4203 208.652 73.4203 208.652 74.4348 208.652V207.638L76.4638 206.623V204.594H78.4928H77.4783L78.4928 203.58L81.5362 200.536V201.551L84.5797 198.507H82.5507V199.522L83.5652 198.507H84.5797V197.493H85.5942V196.478H87.6232H86.6087L85.5942 197.493H84.5797V198.507L85.5942 197.493H86.6087L87.6232 196.478L88.6377 194.449L92.6957 191.406V190.391L94.7246 189.377V188.362H92.6957H93.7101L94.7246 187.348L97.7681 184.304L104.87 178.217L103.855 179.232L102.841 180.246V182.275L101.826 183.29H102.841L101.826 184.304V185.319H102.841V184.304L104.87 183.29V182.275L105.884 181.261L104.87 183.29V184.304H108.928L109.942 183.29L110.957 182.275H111.971V181.261L114 178.217L116.029 176.188H117.043L122.116 171.116V170.101L124.145 168.072V167.058H125.159L126.174 168.072L127.188 171.116L129.217 173.145L128.203 172.13L131.246 175.174L134.29 180.246H135.304V181.261L136.319 182.275L138.348 184.304V186.333L140.377 187.348L141.391 188.362L142.406 189.377V188.362L141.391 187.348L140.377 184.304L139.362 183.29L138.348 182.275V181.261L137.333 180.246V178.217L136.319 177.203V174.159L137.333 176.188H138.348L139.362 177.203L140.377 178.217V179.232L146.464 187.348V188.362L148.493 190.391C147.478 190.391 147.478 190.391 148.493 190.391V191.406L149.507 192.42V191.406L150.522 192.42V193.435H151.536V194.449L152.551 196.478H153.565V197.493L154.58 198.507V200.536H155.594L154.58 198.507V197.493L153.565 195.464V193.435H152.551L151.536 191.406V190.391H152.551L151.536 189.377V188.362L152.551 189.377H153.565V191.406H154.58V193.435L155.594 194.449V196.478L157.623 197.493V196.478L156.609 195.464H157.623C157.623 194.449 157.623 194.449 157.623 195.464L158.638 196.478V195.464C157.623 194.449 157.623 194.449 158.638 195.464V196.478L160.667 198.507V197.493L159.652 196.478L157.623 194.449V193.435L156.609 192.42V191.406H155.594V190.391V192.42L154.58 191.406L152.551 188.362H153.565V189.377C153.565 188.362 153.565 188.362 153.565 189.377V188.362L152.551 187.348L151.536 185.319L152.551 186.333H153.565L152.551 185.319V184.304H151.536L154.58 187.348L153.565 186.333V188.362L154.58 189.377V188.362L155.594 190.391L156.609 191.406H157.623V193.435L158.638 194.449L160.667 195.464L159.652 196.478H160.667V197.493H161.681V198.507L163.71 199.522L164.725 201.551V202.565V200.536L161.681 197.493V196.478L160.667 195.464L159.652 194.449H160.667L159.652 193.435L157.623 191.406V189.377H156.609V188.362H155.594V187.348H157.623L158.638 188.362L159.652 191.406H160.667V193.435H161.681V194.449H162.696V195.464L163.71 197.493V198.507L164.725 197.493V198.507L166.754 200.536V201.551H167.768V203.58L168.783 204.594V203.58H167.768V204.594L169.797 206.623H170.812C169.797 205.609 170.812 205.609 170.812 206.623V205.609L169.797 204.594L168.783 201.551V202.565H167.768V200.536L166.754 198.507V197.493L167.768 199.522L165.739 196.478L164.725 194.449L163.71 193.435H164.725L161.681 190.391L160.667 188.362V186.333H159.652L158.638 184.304L156.609 182.275V181.261L155.594 180.246V179.232H154.58H153.565V178.217L152.551 177.203V176.188C153.565 176.188 153.565 177.203 152.551 176.188V177.203H154.58H153.565L152.551 175.174V174.159H151.536V172.13H150.522C150.522 173.145 150.522 173.145 150.522 172.13V171.116H149.507V170.101H148.493H150.522H149.507V168.072L148.493 167.058V168.072H149.507L150.522 170.101L151.536 169.087C151.536 170.101 151.536 170.101 151.536 169.087V170.101V168.072H150.522V167.058C150.522 166.043 150.522 166.043 150.522 167.058V166.043H149.507V164.014L151.536 167.058L152.551 168.072H151.536V166.043L150.522 164.014V163H148.493L147.478 160.971V159.957L148.493 160.971H149.507V161.986L151.536 164.014V165.029L152.551 166.043H153.565V167.058L154.58 168.072L155.594 170.101L157.623 171.116V172.13L158.638 174.159H159.652L161.681 176.188V177.203H160.667C161.681 177.203 161.681 177.203 160.667 177.203V178.217H161.681C160.667 178.217 161.681 177.203 161.681 178.217L163.71 180.246V181.261L164.725 182.275V183.29L165.739 184.304H164.725L165.739 186.333H166.754L167.768 187.348V188.362L168.783 189.377V190.391H169.797V191.406H170.812L169.797 189.377L170.812 190.391V191.406H171.826V193.435H172.841L170.812 192.42L171.826 193.435L172.841 194.449H171.826C171.826 193.435 171.826 193.435 171.826 194.449H170.812C169.797 193.435 169.797 193.435 170.812 194.449L171.826 195.464V194.449L173.855 196.478L174.87 197.493C174.87 198.507 174.87 198.507 174.87 197.493V198.507L176.899 201.551L177.913 202.565L178.928 201.551H179.942L178.928 200.536H177.913L176.899 198.507L174.87 196.478V194.449L175.884 196.478L176.899 197.493V196.478L175.884 195.464H176.899L178.928 197.493H177.913V198.507H178.928V200.536H179.942L180.957 203.58V201.551L181.971 202.565V204.594L184 205.609L182.986 204.594L181.971 201.551L180.957 200.536H181.971V199.522C180.957 199.522 180.957 199.522 181.971 199.522L180.957 198.507V196.478L181.971 197.493V198.507C182.986 198.507 182.986 198.507 181.971 198.507V197.493L180.957 195.464V196.478H181.971V197.493L187.043 201.551L188.058 202.565V203.58L189.072 204.594L190.087 207.638V206.623L189.072 205.609V204.594H188.058L186.029 201.551C185.014 201.551 185.014 201.551 186.029 201.551L187.043 202.565H185.014V201.551H184V204.594L185.014 205.609V208.652L184 207.638C185.014 208.652 185.014 208.652 184 207.638V208.652L185.014 209.667C184 208.652 184 208.652 185.014 209.667L186.029 210.681H187.043V211.696L188.058 213.725L190.087 214.739V215.754L192.116 217.783V216.768L193.13 217.783V216.768L191.101 214.739V213.725L190.087 211.696L191.101 212.71V211.696C191.101 210.681 191.101 210.681 191.101 211.696L193.13 213.725V212.71L192.116 211.696L191.101 209.667C192.116 210.681 192.116 210.681 191.101 209.667V208.652H192.116L193.13 211.696L192.116 210.681H193.13V212.71L194.145 213.725C195.159 213.725 195.159 213.725 194.145 213.725L193.13 211.696V210.681H194.145V212.71L195.159 213.725V214.739L196.174 216.768H197.188H198.203L197.188 215.754V213.725L198.203 214.739L199.217 216.768V217.783L200.232 218.797L203.275 223.87V224.884H204.29L205.304 227.928H206.319V228.942L207.333 229.957V228.942H206.319V226.913L204.29 225.899V223.87H203.275V222.855L202.261 221.841V220.826L201.246 219.812L200.232 217.783V216.768L198.203 215.754V214.739H199.217L198.203 213.725L196.174 209.667L194.145 206.623L193.13 204.594V203.58H192.116L191.101 201.551L190.087 200.536V199.522L189.072 198.507L188.058 196.478L187.043 194.449L186.029 193.435H185.014V192.42L184 191.406H185.014L184 190.391H185.014V192.42L186.029 193.435V192.42C185.014 191.406 185.014 191.406 186.029 192.42V191.406H185.014V190.391L184 189.377V188.362L182.986 187.348L180.957 185.319V186.333H181.971V187.348L182.986 188.362L184 189.377V190.391C184 191.406 181.971 190.391 181.971 188.362V187.348H180.957V186.333L179.942 185.319V184.304L177.913 181.261L176.899 180.246V178.217L174.87 177.203L173.855 176.188V175.174L171.826 172.13V171.116L170.812 169.087L169.797 168.072H170.812V167.058H168.783H169.797C169.797 168.072 169.797 168.072 169.797 167.058H168.783L167.768 164.014L166.754 163V164.014V160.971V161.986L164.725 156.913L163.71 155.899V153.87L162.696 152.855V151.841H161.681V150.826L160.667 149.812V148.797L158.638 145.754L157.623 142.71V143.725H158.638L157.623 142.71V141.696C156.609 141.696 156.609 141.696 157.623 141.696L156.609 140.681V139.667H155.594L154.58 138.652V135.609L153.565 134.594V133.58L154.58 134.594V130.536L155.594 129.522L156.609 130.536L159.652 134.594L162.696 138.652L161.681 136.623H162.696L161.681 135.609V133.58L160.667 131.551V129.522H159.652V128.507H158.638V126.478L160.667 125.464V123.435L162.696 122.42L163.71 121.406V120.391H164.725L166.754 118.362L167.768 116.333L171.826 111.261L173.855 110.246L174.87 109.232L176.899 107.203L177.913 105.174L178.928 104.159H179.942V103.145L180.957 102.13L181.971 100.101L184 98.0725L185.014 96.0435V95.029L187.043 94.0145V93L191.101 89.9565V88.942L195.159 84.8841V83.8696L197.188 82.8551L198.203 79.8116L197.188 81.8406H196.174L193.13 84.8841L190.087 87.9275V88.942H189.072L187.043 89.9565L185.014 91.9855H184L182.986 93H181.971L182.986 91.9855L184 90.971L185.014 88.942L186.029 87.9275L194.145 79.8116L195.159 78.7971V77.7826H196.174V76.7681L197.188 75.7536V74.7391H198.203V72.7101H199.217L200.232 71.6957H201.246V69.6667L204.29 68.6522V67.6377H203.275V68.6522L201.246 69.6667V68.6522L198.203 71.6957L197.188 72.7101L194.145 75.7536V74.7391L193.13 75.7536H192.116V76.7681V74.7391H193.13V73.7246H194.145V72.7101H193.13L192.116 74.7391L191.101 75.7536V74.7391V72.7101V73.7246C192.116 73.7246 192.116 73.7246 191.101 73.7246V74.7391C192.116 74.7391 192.116 74.7391 191.101 74.7391L192.116 72.7101H194.145H195.159V71.6957L197.188 69.6667H198.203V68.6522H197.188L195.159 69.6667L197.188 67.6377L198.203 66.6232L194.145 70.6812L193.13 71.6957V72.7101H191.101L192.116 71.6957H193.13V70.6812L194.145 69.6667V68.6522H195.159L196.174 67.6377L197.188 66.6232V65.6087H198.203V64.5942H199.217L200.232 62.5652L201.246 61.5507V60.5362L200.232 62.5652L194.145 68.6522L193.13 69.6667L191.101 71.6957V72.7101H190.087V73.7246H189.072L188.058 74.7391L187.043 75.7536V74.7391L188.058 71.6957L190.087 70.6812L193.13 68.6522V67.6377L194.145 66.6232L196.174 64.5942H197.188V63.5797L198.203 61.5507H199.217C198.203 60.5362 199.217 60.5362 200.232 60.5362L201.246 59.5217H200.232L201.246 58.5072H202.261L203.275 56.4783C203.275 57.4928 203.275 57.4928 203.275 56.4783L204.29 55.4638H203.275L199.217 59.5217H200.232H198.203L196.174 62.5652L195.159 63.5797L194.145 64.5942H193.13V65.6087L191.101 66.6232L190.087 67.6377L189.072 68.6522L185.014 72.7101V73.7246H184V74.7391L181.971 75.7536V76.7681H180.957V77.7826L179.942 78.7971L178.928 79.8116H177.913V80.8261L176.899 81.8406H177.913L174.87 84.8841V83.8696H175.884V82.8551H174.87V83.8696L173.855 84.8841L172.841 85.8986L171.826 86.913L170.812 87.9275V88.942H169.797L168.783 89.9565H167.768L166.754 90.971V91.9855L167.768 89.9565H166.754L165.739 91.9855L164.725 93L163.71 94.0145V93L162.696 95.029C161.681 95.029 161.681 95.029 162.696 95.029L163.71 93L166.754 89.9565L167.768 88.942L168.783 87.9275H167.768V88.942H166.754L164.725 89.9565C165.739 89.9565 165.739 89.9565 164.725 89.9565H165.739L164.725 91.9855H163.71V93H162.696L161.681 94.0145L163.71 91.9855L164.725 89.9565H163.71V90.971L162.696 91.9855L160.667 94.0145L159.652 95.029C160.667 94.0145 160.667 95.029 159.652 95.029L158.638 97.058H157.623V98.0725V96.0435L158.638 95.029L159.652 93L161.681 91.9855V89.9565H162.696L163.71 88.942L165.739 85.8986L166.754 84.8841L167.768 83.8696L168.783 82.8551V81.8406L170.812 78.7971H172.841H171.826L175.884 74.7391H176.899V73.7246C176.899 74.7391 176.899 74.7391 176.899 73.7246L178.928 71.6957L177.913 72.7101H179.942V70.6812L180.957 69.6667L181.971 68.6522L182.986 67.6377H184V66.6232L182.986 67.6377L184 65.6087L181.971 67.6377V66.6232H182.986V65.6087L184 64.5942L185.014 63.5797L186.029 62.5652L187.043 61.5507V62.5652H186.029V63.5797L187.043 62.5652H188.058V64.5942C187.043 64.5942 187.043 64.5942 188.058 64.5942V63.5797C188.058 62.5652 188.058 62.5652 188.058 63.5797V62.5652H187.043L188.058 61.5507H189.072V60.5362L190.087 59.5217L195.159 54.4493H194.145V53.4348H195.159L194.145 54.4493L193.13 55.4638H191.101L190.087 58.5072L188.058 59.5217H187.043L186.029 60.5362H185.014L187.043 59.5217V58.5072L185.014 59.5217L184 60.5362V59.5217H185.014L186.029 58.5072L187.043 57.4928L189.072 55.4638L188.058 57.4928H190.087V55.4638H191.101L193.13 54.4493V52.4203H194.145L193.13 53.4348L191.101 54.4493L192.116 53.4348L195.159 49.3768L194.145 50.3913L193.13 51.4058L191.101 53.4348L190.087 54.4493H188.058V55.4638L187.043 56.4783L185.014 57.4928L186.029 56.4783H185.014L184 58.5072C182.986 58.5072 182.986 58.5072 184 58.5072V56.4783H185.014V54.4493L187.043 52.4203L188.058 51.4058V50.3913L187.043 52.4203L188.058 51.4058H190.087L189.072 52.4203H191.101V51.4058H193.13L194.145 49.3768L196.174 48.3623V49.3768L195.159 50.3913L197.188 49.3768L198.203 48.3623L199.217 47.3478L200.232 46.3333V45.3188C200.232 44.3043 200.232 44.3043 200.232 45.3188L202.261 42.2754L204.29 41.2609H203.275L206.319 38.2174H204.29L205.304 37.2029H204.29L203.275 39.2319L202.261 40.2464C201.246 40.2464 202.261 41.2609 202.261 40.2464V39.2319L201.246 41.2609L199.217 43.2899H198.203C197.188 43.2899 197.188 43.2899 198.203 43.2899V42.2754H197.188L198.203 41.2609C198.203 40.2464 198.203 40.2464 198.203 41.2609V42.2754L196.174 43.2899H195.159V44.3043H194.145L195.159 42.2754L196.174 41.2609H197.188L198.203 40.2464V39.2319L199.217 38.2174L201.246 37.2029L200.232 38.2174H198.203L200.232 37.2029V36.1884L198.203 38.2174C195.159 40.2464 197.188 38.2174 200.232 35.1739L202.261 34.1594L212.406 23ZM198.203 39.2319L195.159 42.2754H196.174L197.188 41.2609L198.203 40.2464V39.2319C199.217 39.2319 199.217 39.2319 198.203 39.2319ZM55.1594 46.3333L54.1449 45.3188H55.1594V46.3333ZM59.2174 48.3623H60.2319L59.2174 47.3478V48.3623ZM67.3333 51.4058H68.3478V53.4348H69.3623V54.4493L68.3478 52.4203V55.4638L66.3188 51.4058H67.3333ZM62.2609 51.4058V53.4348L63.2754 54.4493V55.4638L65.3043 56.4783V57.4928L66.3188 58.5072V57.4928H68.3478L69.3623 58.5072V59.5217H70.3768L71.3913 61.5507C72.4058 63.5797 72.4058 64.5942 70.3768 62.5652L69.3623 61.5507L71.3913 64.5942L70.3768 63.5797H69.3623V61.5507H68.3478L67.3333 60.5362L65.3043 58.5072V57.4928H63.2754V56.4783L62.2609 54.4493V51.4058ZM195.159 52.4203V53.4348H196.174V52.4203H195.159ZM203.275 57.4928H201.246L203.275 56.4783V57.4928ZM204.29 58.5072L202.261 60.5362L203.275 59.5217V58.5072H204.29C205.304 57.4928 204.29 57.4928 204.29 58.5072ZM100.812 59.5217C100.812 60.5362 100.812 60.5362 100.812 59.5217V59.5217ZM195.159 61.5507L196.174 62.5652V61.5507H195.159ZM185.014 63.5797V64.5942L186.029 62.5652L185.014 63.5797ZM195.159 63.5797V64.5942H194.145V65.6087H193.13L194.145 64.5942V63.5797H195.159ZM107.913 65.6087V66.6232L106.899 65.6087H107.913ZM193.13 66.6232L192.116 67.6377H191.101L193.13 65.6087V66.6232ZM65.3043 67.6377L66.3188 68.6522V69.6667V67.6377H65.3043ZM68.3478 69.6667L69.3623 71.6957V72.7101H70.3768V74.7391L69.3623 73.7246V71.6957L68.3478 70.6812V69.6667ZM71.3913 73.7246V74.7391L70.3768 72.7101L71.3913 73.7246ZM190.087 74.7391L189.072 75.7536L188.058 76.7681V75.7536H189.072L188.058 76.7681C187.043 77.7826 188.058 77.7826 188.058 76.7681L189.072 77.7826H188.058L189.072 76.7681L191.101 74.7391V75.7536H190.087V76.7681L188.058 78.7971H187.043C186.029 78.7971 186.029 78.7971 187.043 78.7971H185.014L188.058 75.7536L190.087 74.7391ZM186.029 75.7536C187.043 75.7536 187.043 75.7536 186.029 75.7536V75.7536ZM188.058 75.7536H187.043L188.058 74.7391V75.7536ZM111.971 75.7536L112.986 77.7826H114V79.8116L115.014 80.8261H114L112.986 79.8116H111.971V78.7971L110.957 77.7826V75.7536H111.971ZM187.043 77.7826C187.043 78.7971 187.043 78.7971 187.043 77.7826V77.7826ZM170.812 79.8116H171.826C170.812 79.8116 170.812 79.8116 171.826 79.8116V78.7971L170.812 79.8116ZM149.507 85.8986V86.913L150.522 85.8986H149.507ZM169.797 87.9275C170.812 87.9275 170.812 87.9275 169.797 87.9275V87.9275ZM166.754 89.9565H165.739L166.754 88.942V89.9565ZM148.493 166.043H149.507V167.058L150.522 168.072V169.087L149.507 168.072H150.522L148.493 167.058V166.043ZM124.145 166.043V167.058L121.101 170.101L119.072 171.116C118.058 173.145 118.058 173.145 119.072 171.116L121.101 168.072V169.087H120.087C119.072 170.101 119.072 170.101 120.087 169.087L123.13 166.043V165.029L124.145 166.043ZM74.4348 166.043V168.072H72.4058V170.101H69.3623V169.087L71.3913 168.072L72.4058 167.058L74.4348 166.043ZM150.522 171.116L151.536 172.13V171.116H150.522ZM59.2174 179.232L58.2029 180.246L59.2174 178.217V179.232ZM155.594 186.333L157.623 187.348H155.594V186.333ZM152.551 186.333L153.565 187.348H152.551V186.333ZM90.6667 191.406L88.6377 194.449H87.6232V195.464H86.6087V196.478C85.5942 195.464 87.6232 194.449 87.6232 194.449L89.6522 193.435L91.6812 190.391L90.6667 191.406ZM163.71 193.435L164.725 194.449V195.464L163.71 194.449V193.435ZM177.913 195.464V196.478L178.928 197.493H179.942L180.957 198.507C180.957 200.536 179.942 198.507 178.928 197.493H177.913V195.464ZM164.725 196.478H165.739V197.493L164.725 196.478ZM78.4928 197.493L76.4638 199.522L75.4493 201.551L74.4348 203.58L72.4058 204.594H73.4203L72.4058 206.623L69.3623 207.638L68.3478 209.667H67.3333L66.3188 210.681V209.667L68.3478 208.652L69.3623 207.638H70.3768V206.623H71.3913L74.4348 203.58H72.4058V204.594C72.4058 203.58 72.4058 203.58 72.4058 204.594H71.3913L72.4058 203.58H71.3913C70.3768 203.58 70.3768 203.58 71.3913 203.58L72.4058 201.551V200.536L74.4348 199.522L76.4638 197.493L75.4493 198.507V200.536L76.4638 199.522V198.507L78.4928 197.493ZM58.2029 198.507L57.1884 199.522V198.507H58.2029ZM164.725 202.565L165.739 203.58L166.754 204.594V203.58L164.725 202.565ZM178.928 203.58V204.594C178.928 203.58 178.928 203.58 178.928 204.594H179.942L178.928 203.58ZM69.3623 204.594L68.3478 205.609L66.3188 206.623L63.2754 208.652V207.638L65.3043 205.609V204.594V206.623L66.3188 205.609L68.3478 204.594H69.3623ZM169.797 205.609L168.783 204.594H169.797V205.609ZM198.203 213.725V214.739L197.188 212.71L198.203 213.725Z" fill="black"/>
</svg>
