<svg xmlns="http://www.w3.org/2000/svg" fill="none" viewBox="0 0 256 256"><path fill="#000" fill-rule="evenodd" d="m212.406 23-1.015 1.015q0-1.522 0 0h-1.014v1.014h-1.015l-1.014 2.029-1.015 1.015-1.014 1.014-2.029 2.029-1.015 1.014-3.043 2.03v1.014l-1.015 1.014-1.014 1.015-3.044 2.029-1.014 1.014-1.015 1.015-5.072 5.072-1.015 1.015v1.014l-2.029 1.015L184 51.406l-2.029 1.014-1.014 2.03h-1.015v1.014h-1.014l1.014-1.015-2.029 1.015v2.029l1.015-1.015-2.029 2.03h-1.015v1.014h-1.014l1.014-1.015q0-1.521 0 0h-1.014v1.015l-1.015 2.029h-2.029v1.014h-1.014v2.03l4.058-4.059 1.014-1.014-2.029 2.029-1.014 1.014-1.015 1.015v1.014q-1.521 0 0 0V63.58l-1.014 2.029h-1.015l-1.014 2.029L142.406 93h-2.029v2.029h-2.029l-1.015 1.014h-1.014l-1.015-1.014L134.29 93h-1.015v-1.014h-2.029L132.261 93v2.029l2.029 3.044v2.028l-2.029-1.014-1.015-3.044q-1.521-1.521 0 0l1.015 1.015q0 1.521 0 0v-1.015h-1.015V95.03q0 1.521 0 0h-1.014v-1.014h-1.015V93h-1.014v-1.014l-1.015-1.015v-1.014l-3.043-2.03h1.014v1.015l1.015 1.015h-1.015v2.029h1.015V93l-1.015-1.014h-1.014l-1.015-2.03 1.015 1.015V93h1.014l-2.029-1.014-1.014-2.03v-2.029l-1.015-2.028v-2.03l-1.014-1.014h1.014l-2.029-2.029h-1.014v-1.014h-1.015q-1.521 0 0 0v-1.015l-2.029-1.014L114 74.739l-1.014-1.014-1.015-1.015v-1.014h-1.014l-1.015-2.03v2.03l1.015 1.014 1.014 2.03v1.014h-1.014l-2.029-1.015v-1.014l-1.015-1.015v-2.029 1.015h1.015v1.014h2.029l-1.015-1.014h-1.014V70.68l-1.015-2.029h1.015v-1.014l1.014 1.014 1.015-1.014v-2.03h-1.015v-1.014h-2.029v1.015h1.015v1.014l-1.015-1.014h-1.014v2.029h1.014v1.014h-1.014l-1.015-1.014v1.014h1.015-2.029l-1.015-1.014h-1.014v-2.03h-1.015v-3.043l-1.014-1.014h1.014v1.014h1.015v1.015h1.014v-1.015h1.015l-1.015-1.014h1.015-2.029 1.014v1.014l-1.014-1.014v-1.015l-1.015-1.014h-1.014v1.014l-1.015-1.014h-1.014v-1.015c0 1.015 1.014 1.015 0 0v-1.014l-1.015-1.015-2.029-1.014v-1.015h2.03-1.015l-1.015-1.014h-1.014v1.014H93.71q0-1.521 0 0h-2.029v-1.014l-1.014-1.015h-1.015q1.523 1.523 0 0h-1.014v1.015l-1.015 1.014v-1.014H86.61l-2.03-1.015h-3.043 1.015v-1.014h2.029l-2.03-2.03v-1.014l-1.014-2.029-3.043-3.043v-2.03h-1.015c-2.029 0-2.029 0-2.029 2.03l1.015 1.014 1.014 3.044 1.015 1.014v2.03l1.014 1.014q3.045 1.521 0 0l-1.014 1.014v2.03l1.014 1.014v3.043l-1.014-1.014-1.015-2.03h-1.014l1.014 1.015v2.03l-1.014-1.015-1.015-1.015-1.014-1.014h-2.03l2.03 1.014-1.015 1.015v1.014h-1.014 2.029v1.015H73.42l-2.029-2.03V54.45h-1.014l-2.03-2.029v-2.029l-1.014-1.014h1.015l-2.03-1.015-1.014-1.014-1.014-2.03h-1.015v-1.014h-1.014v-2.029l-1.015-1.014v1.014l-2.029-1.014 1.015 1.014 1.014 1.015v1.014l1.015 1.015v2.029h-1.015q0 1.521 0 0l-2.029-1.015q0-1.521 0 0l1.015 1.015v1.014l1.014 1.015-2.029-2.03v2.03l-1.014-1.015v-2.029l-1.015-1.014-1.014-1.015-1.015-1.014v-2.03l-1.014 1.015h1.014v3.044l-1.014-1.015-1.015-2.029v-1.014l-1.014-2.03-2.029-4.057-1.015-1.015-1.014-2.029v-1.014L47.044 30.1v-1.014h-1.015l1.014 2.029v1.014h1.015v2.03h1.014v2.028l1.015 1.015 1.014 2.029 1.015 2.029v1.014l2.029 2.03H53.13l1.015 2.028h1.014v2.03l3.044 4.057 1.014 1.015v2.029l2.03 2.029 1.014 2.029 1.014 2.029v1.014l1.015 1.015v1.014l-1.015-2.029h-1.014l1.014 2.03h1.015l1.014 2.028V65.61l1.015 2.029v2.029h1.014v1.014l1.015 1.015h-1.015l1.015 1.014 1.014 1.015v2.029h1.015v1.014l1.014 1.015v-2.03 1.015h1.015v1.015l1.014 1.014 1.015 1.015v1.014q0 1.523 0 0v1.015l1.014 1.014 3.044 5.072-1.015-1.014h-1.014V85.9h-1.015l-1.014-1.015-2.03-2.029 1.015 1.015v1.014l-1.014-1.014v-1.015h-2.03l1.015 1.015 1.015 1.014V85.9q1.521 0 0 0l-1.015-1.015h-1.014q-1.523 0 0 0h-1.015L68.348 85.9q1.521 0 0 0h-1.015l1.015 1.014v2.029h1.014l2.03 3.044L72.405 93l1.014 2.029h-1.014l1.014 1.014 3.044 4.058 1.014 2.029 1.015 1.015 3.043 4.058 1.015 2.029 2.029 1.014v2.029l2.029 2.029 2.029 3.044-1.015-2.029-2.029-2.029 2.03 1.014v1.015l-1.015-2.029-1.015-1.015-1.014-3.043-1.015-1.015-1.014-1.014v-1.015l-1.015-1.014-2.029-2.029v-1.015h-1.014v-2.029l-1.015-1.014c-2.029-2.029-1.014-2.029 0 0l2.03 3.043v-2.029l2.028 3.044 1.015 1.014v1.015l2.029 4.058 1.014 1.014 2.03 2.029 1.014 1.015v2.029l1.014 1.014 3.044 3.044v1.014l2.029 2.029v1.015h1.014l1.015 3.043h-1.015v2.029l-1.014 2.029-1.015 1.015-1.014 2.029v3.043l-4.058 4.058v-1.014l3.043-2.029v-1.015l-2.029 1.015v1.014l-1.014 1.015h-1.015c0-1.015 1.015 0 0 0l-1.014 1.014h-1.015l-1.014 2.029-2.03 1.015-4.057 4.058v2.029h1.014l1.015-1.015 2.029-1.014 2.029-2.029 2.029-2.029h-1.015l2.03-1.015 1.014-1.014v1.014q-1.523 0 0 0l-1.015 1.015-1.014 2.029-1.015 1.014-6.087 8.116 1.015-1.014h1.014q-1.521 0 0 0v-1.015h1.015v1.015l2.029-1.015v1.015l-3.044 2.029-1.014 1.014h-1.015v1.015h-1.014l-2.03 2.029H75.45l-1.014 1.014-2.03 1.015-1.014 2.028v1.015l-2.029 2.029-5.072 6.087-1.015 1.014-1.014 1.015h1.014l1.015-1.015h1.014v-1.014l2.03-1.015 1.014-1.014v2.029c0 1.014-1.015 2.029-2.03 1.014l-1.014 1.015v1.014-2.029H64.29v1.015l-2.03 2.029h-1.014v-1.015l-2.029 1.015h-2.029v1.014h-1.014c0-1.014 1.014-1.014 0 0v1.015l1.014 1.014v-1.014l1.015-1.015h1.014l-1.014 2.029h1.014l2.03-2.029h1.014l1.014-1.014v1.014q-1.521 0 0 0v1.015l-1.014 1.014h1.014l-1.014 1.015h-1.015l1.015 1.014-1.015 1.015h-2.029l-1.014 1.014-2.03 1.015c0-1.015 1.015-2.029 2.03-1.015v-1.014q0-1.522 0 0h-3.044q0 1.521 0 0h-1.014l1.014 1.014-1.014 1.015h1.014l-1.014 1.014h1.014v1.015h-1.014l-2.03 2.029v1.014l-1.014 1.015h-2.029v1.014q1.523 0 0 0v1.015h3.044v1.014H51.1l1.015 1.015v1.014h3.043v2.029h1.015v1.015l-1.015 1.014c-2.029 1.015-2.029 0-1.014-1.014v-1.015l-1.015 2.029-2.029 2.029-1.014 2.029-4.058 3.044-1.015 1.014L44 209.667c0 1.014 2.029 1.014 5.072-1.015l3.044-2.029 1.014-2.029 2.03-1.014v-1.015c1.014-2.029 2.028-2.029 2.028-1.014v1.014l1.015-1.014h1.014l2.03-1.015v-1.014h1.014l3.043-2.029v1.014H64.29l-1.015 1.015v1.014l1.015-2.029h2.029l-1.015 2.029H64.29l-1.015 1.015h3.044v1.014q-1.522 0 0 0v-1.014l1.014-1.015h2.03l1.014-2.029v1.015l-1.015 2.029-2.029 1.014v1.015H66.32l-4.058 4.058h1.014q0-1.523 0 0h-1.014q1.521 0 0 0l-1.015 1.014-1.014 1.015v1.014l-1.015 2.029-2.029 1.015-1.014 1.014-2.03 3.044h1.015v1.014l3.044-3.043 1.014-1.015v-1.014h1.015l1.014-1.015v1.015l1.015-1.015v1.015l-1.015 1.014v1.015l2.03-2.029v-1.015l2.028-1.014c-1.014 1.014 0 1.014 0 0h1.015v-1.015l-3.044 3.044-1.014 1.014-1.015 2.029 1.015-1.014 1.014-1.015 2.03-1.014c1.014-1.015 1.014 0 0 0l-1.015 1.014h-1.015l-1.014 1.015v1.014l-2.03 1.015-1.014 1.014v1.015l1.015-1.015h1.014l-2.029 2.029-2.029 2.029-9.13 9.131-2.03 1.014h1.014l1.015-1.014 1.014-1.015h1.015v-2.029h1.014l1.015-1.014h1.014v-1.015l2.03-2.029 3.043-3.043h1.014l1.015-1.015 1.014-2.029h1.015l1.014-1.014 8.116-7.102 1.015-1.014 2.029-1.015q-1.523 0 0 0v-1.014l2.029-1.015v-2.029h2.029-1.015l1.015-1.014 3.043-3.044v1.015l3.044-3.044h-2.03v1.015l1.015-1.015h1.015v-1.014h1.014v-1.015h2.03-1.015l-1.015 1.015H84.58v1.014l1.014-1.014h1.015l1.014-1.015 1.015-2.029 4.058-3.043v-1.015l2.029-1.014v-1.015h-2.03 1.015l1.015-1.014 3.043-3.044 7.102-6.087-1.015 1.015-1.014 1.014v2.029l-1.015 1.015h1.015l-1.015 1.014v1.015h1.015v-1.015l2.029-1.014v-1.015l1.014-1.014-1.014 2.029v1.014h4.058l1.014-1.014 1.015-1.015h1.014v-1.014l2.029-3.044 2.029-2.029h1.014l5.073-5.072v-1.015l2.029-2.029v-1.014h1.014l1.015 1.014 1.014 3.044 2.029 2.029-1.014-1.015 3.043 3.044 3.044 5.072h1.014v1.015l1.015 1.014 2.029 2.029v2.029l2.029 1.015 1.014 1.014 1.015 1.015v-1.015l-1.015-1.014-1.014-3.044-1.015-1.014-1.014-1.015v-1.014l-1.015-1.015v-2.029l-1.014-1.014v-3.044l1.014 2.029h1.015l1.014 1.015 1.015 1.014v1.015l6.087 8.116v1.014l2.029 2.029q-1.522 0 0 0v1.015l1.014 1.014v-1.014l1.015 1.014v1.015h1.014v1.014l1.015 2.029h1.014v1.015l1.015 1.014v2.029h1.014l-1.014-2.029v-1.014l-1.015-2.029v-2.029h-1.014l-1.015-2.029v-1.015h1.015l-1.015-1.014v-1.015l1.015 1.015h1.014v2.029h1.015v2.029l1.014 1.014v2.029l2.029 1.015v-1.015l-1.014-1.014h1.014q0-1.523 0 0l1.015 1.014v-1.014q-1.523-1.523 0 0v1.014l2.029 2.029v-1.014l-1.015-1.015-2.029-2.029v-1.014l-1.014-1.015v-1.014h-1.015v-1.015 2.029l-1.014-1.014-2.029-3.044h1.014v1.015q0-1.523 0 0v-1.015l-1.014-1.014-1.015-2.029 1.015 1.014h1.014l-1.014-1.014v-1.015h-1.015l3.044 3.044-1.015-1.015v2.029l1.015 1.015v-1.015l1.014 2.029 1.015 1.015h1.014v2.029l1.015 1.014 2.029 1.015-1.015 1.014h1.015v1.015h1.014v1.014l2.029 1.015 1.015 2.029v1.014-2.029l-3.044-3.043v-1.015l-1.014-1.014-1.015-1.015h1.015l-1.015-1.014-2.029-2.029v-2.029h-1.014v-1.015h-1.015v-1.014h2.029l1.015 1.014 1.014 3.044h1.015v2.029h1.014v1.014h1.015v1.015l1.014 2.029v1.014l1.015-1.014v1.014l2.029 2.029v1.015h1.014v2.029l1.015 1.014v-1.014h-1.015v1.014l2.029 2.029h1.015c-1.015-1.014 0-1.014 0 0v-1.014l-1.015-1.015-1.014-3.043v1.014h-1.015v-2.029l-1.014-2.029v-1.014l1.014 2.029-2.029-3.044-1.014-2.029-1.015-1.014h1.015l-3.044-3.044-1.014-2.029v-2.029h-1.015l-1.014-2.029-2.029-2.029v-1.014l-1.015-1.015v-1.014h-2.029v-1.015l-1.014-1.014v-1.015c1.014 0 1.014 1.015 0 0v1.015h2.029-1.015l-1.014-2.029v-1.015h-1.015v-2.029h-1.014q0 1.522 0 0v-1.014h-1.015v-1.015h-1.014 2.029-1.015v-2.029l-1.014-1.014v1.014h1.014l1.015 2.029 1.014-1.014q0 1.521 0 0v1.014-2.029h-1.014v-1.014q0-1.522 0 0v-1.015h-1.015v-2.029l2.029 3.044 1.015 1.014h-1.015v-2.029l-1.014-2.029V163h-2.029l-1.015-2.029v-1.014l1.015 1.014h1.014v1.015l2.029 2.028v1.015l1.015 1.014h1.014v1.015l1.015 1.014 1.014 2.029 2.029 1.015v1.014l1.015 2.029h1.014l2.029 2.029v1.015h-1.014q1.521 0 0 0v1.014h1.014c-1.014 0 0-1.014 0 0l2.029 2.029v1.015l1.015 1.014v1.015l1.014 1.014h-1.014l1.014 2.029h1.015l1.014 1.015v1.014l1.015 1.015v1.014h1.014v1.015h1.015l-1.015-2.029 1.015 1.014v1.015h1.014v2.029h1.015l-2.029-1.015 1.014 1.015 1.015 1.014h-1.015q0-1.521 0 0h-1.014q-1.522-1.521 0 0l1.014 1.015v-1.015l2.029 2.029 1.015 1.015q0 1.521 0 0v1.014l2.029 3.044 1.014 1.014 1.015-1.014h1.014l-1.014-1.015h-1.015l-1.014-2.029-2.029-2.029v-2.029l1.014 2.029 1.015 1.015v-1.015l-1.015-1.014h1.015l2.029 2.029h-1.015v1.014h1.015v2.029h1.014l1.015 3.044v-2.029l1.014 1.014v2.029l2.029 1.015-1.014-1.015-1.015-3.043-1.014-1.015h1.014v-1.014q-1.521 0 0 0l-1.014-1.015v-2.029l1.014 1.015v1.014q1.522 0 0 0v-1.014l-1.014-2.029v1.014h1.014v1.015l5.072 4.058 1.015 1.014v1.015l1.014 1.014 1.015 3.044v-1.015l-1.015-1.014v-1.015h-1.014l-2.029-3.043q-1.522 0 0 0l1.014 1.014h-2.029v-1.014H184v3.043l1.014 1.015v3.043L184 207.638q1.521 1.521 0 0v1.014l1.014 1.015q-1.521-1.523 0 0l1.015 1.014h1.014v1.015l1.015 2.029 2.029 1.014v1.015l2.029 2.029v-1.015l1.014 1.015v-1.015l-2.029-2.029v-1.014l-1.014-2.029 1.014 1.014v-1.014q0-1.523 0 0l2.029 2.029v-1.015l-1.014-1.014-1.015-2.029q1.522 1.521 0 0v-1.015h1.015l1.014 3.044-1.014-1.015h1.014v2.029l1.015 1.015q1.521 0 0 0l-1.015-2.029v-1.015h1.015v2.029l1.014 1.015v1.014l1.015 2.029h2.029l-1.015-1.014v-2.029l1.015 1.014 1.014 2.029v1.015l1.015 1.014 3.043 5.073v1.014h1.015l1.014 3.044h1.015v1.014l1.014 1.015v-1.015h-1.014v-2.029l-2.029-1.014v-2.029h-1.015v-1.015l-1.014-1.014v-1.015l-1.015-1.014-1.014-2.029v-1.015l-2.029-1.014v-1.015h1.014l-1.014-1.014-2.029-4.058-2.029-3.044-1.015-2.029v-1.014h-1.014l-1.015-2.029-1.014-1.015v-1.014l-1.015-1.015-1.014-2.029-1.015-2.029-1.014-1.014h-1.015v-1.015L184 191.406h1.014L184 190.391h1.014v2.029l1.015 1.015v-1.015q-1.522-1.521 0 0v-1.014h-1.015v-1.015L184 189.377v-1.015l-1.014-1.014-2.029-2.029v1.014h1.014v1.015l1.015 1.014 1.014 1.015v1.014c0 1.015-2.029 0-2.029-2.029v-1.014h-1.014v-1.015l-1.015-1.014v-1.015l-2.029-3.043-1.014-1.015v-2.029l-2.029-1.014-1.015-1.015v-1.014l-2.029-3.044v-1.014l-1.014-2.029-1.015-1.015h1.015v-1.014h-2.029 1.014q0 1.521 0 0h-1.014l-1.015-3.044-1.014-1.014v1.014-3.043 1.015l-2.029-5.073-1.015-1.014v-2.029l-1.014-1.015v-1.014h-1.015v-1.015l-1.014-1.014v-1.015l-2.029-3.043-1.015-3.044v1.015h1.015l-1.015-1.015v-1.014q-1.521 0 0 0l-1.014-1.015v-1.014h-1.015l-1.014-1.015v-3.043l-1.015-1.015v-1.014l1.015 1.014v-4.058l1.014-1.014 1.015 1.014 3.043 4.058 3.044 4.058-1.015-2.029h1.015l-1.015-1.014v-2.029l-1.014-2.029v-2.029h-1.015v-1.015h-1.014v-2.029l2.029-1.014v-2.029l2.029-1.015 1.014-1.014v-1.015h1.015l2.029-2.029 1.014-2.029 4.058-5.072 2.029-1.015 1.015-1.014 2.029-2.029 1.014-2.029 1.015-1.015h1.014v-1.014l1.015-1.015 1.014-2.029L184 98.073l1.014-2.03V95.03l2.029-1.014V93l4.058-3.043v-1.015l4.058-4.058V83.87l2.029-1.015 1.015-3.043-1.015 2.029h-1.014l-3.044 3.043-3.043 3.043v1.015h-1.015l-2.029 1.015-2.029 2.029H184L182.986 93h-1.015l1.015-1.014L184 90.97l1.014-2.029 1.015-1.014 8.116-8.116 1.014-1.015v-1.014h1.015v-1.015l1.014-1.014v-1.015h1.015V72.71h1.014l1.015-1.014h1.014v-2.03l3.044-1.014v-1.014h-1.015v1.014l-2.029 1.015v-1.015l-3.043 3.044-1.015 1.014-3.043 3.044v-1.015l-1.015 1.015h-1.014v1.014-2.029h1.014v-1.014h1.015V72.71h-1.015l-1.014 2.03-1.015 1.014V72.71v1.015q1.522 0 0 0v1.014q1.522 0 0 0l1.015-2.029h3.043v-1.014l2.029-2.03h1.015v-1.014h-1.015l-2.029 1.015 2.029-2.03 1.015-1.014-4.058 4.058-1.015 1.015v1.014h-2.029l1.015-1.014h1.014V70.68l1.015-1.014v-1.015h1.014l1.015-1.014 1.014-1.015V65.61h1.015v-1.015h1.014l1.015-2.029 1.014-1.014v-1.015l-1.014 2.03-6.087 6.086-1.015 1.015-2.029 2.029v1.014h-1.014v1.015h-1.015l-1.014 1.014-1.015 1.015V74.74l1.015-3.043 2.029-1.015 3.043-2.029v-1.014l1.015-1.015 2.029-2.029h1.014V63.58l1.015-2.03h1.014c-1.014-1.014 0-1.014 1.015-1.014l1.014-1.014h-1.014l1.014-1.015h1.015l1.014-2.029q0 1.523 0 0l1.015-1.014h-1.015l-4.058 4.058h1.015-2.029l-2.029 3.043-1.015 1.015-1.014 1.014h-1.015v1.015l-2.029 1.014-1.014 1.015-1.015 1.014-4.058 4.058v1.015H184v1.014l-2.029 1.015v1.014h-1.014v1.015l-1.015 1.014-1.014 1.015h-1.015v1.014l-1.014 1.015h1.014l-3.043 3.043V83.87h1.014v-1.015h-1.014v1.015l-1.015 1.014-1.014 1.015-1.015 1.014-1.014 1.014v1.015h-1.015l-1.014 1.015h-1.015l-1.014 1.014v1.014l1.014-2.028h-1.014l-1.015 2.029L164.725 93l-1.015 1.014V93l-1.014 2.029q-1.523 0 0 0L163.71 93l3.044-3.043 1.014-1.015 1.015-1.014h-1.015v1.014h-1.014l-2.029 1.015q1.521 0 0 0h1.014l-1.014 2.029h-1.015V93h-1.014l-1.015 1.014 2.029-2.028 1.015-2.03h-1.015v1.015l-1.014 1.014-2.029 2.03-1.015 1.014c1.015-1.014 1.015 0 0 0l-1.014 2.029h-1.015v1.014-2.029l1.015-1.014L159.652 93l2.029-1.014v-2.03h1.015l1.014-1.014 2.029-3.043 1.015-1.015 1.014-1.014 1.015-1.015v-1.014l2.029-3.044h2.029-1.015l4.058-4.058h1.015v-1.014q0 1.521 0 0l2.029-2.03-1.015 1.015h2.029v-2.029l1.015-1.014 1.014-1.015 1.015-1.014H184v-1.015l-1.014 1.015 1.014-2.03-2.029 2.03v-1.015h1.015V65.61L184 64.594l1.014-1.014 1.015-1.015 1.014-1.014v1.014h-1.014v1.015l1.014-1.015h1.015v2.03q-1.522 0 0 0V63.58q0-1.523 0 0v-1.015h-1.015l1.015-1.014h1.014v-1.015l1.015-1.014 5.072-5.073h-1.014v-1.014h1.014l-1.014 1.014-1.015 1.015h-2.029l-1.014 3.043-2.029 1.015h-1.015l-1.014 1.014h-1.015l2.029-1.014v-1.015l-2.029 1.015L184 60.536v-1.014h1.014l1.015-1.015 1.014-1.014 2.029-2.03-1.014 2.03h2.029v-2.03h1.014l2.029-1.014V52.42h1.015l-1.015 1.015-2.029 1.014 1.015-1.014 3.043-4.058-1.014 1.014-1.015 1.015-2.029 2.029-1.014 1.014h-2.029v1.015l-1.015 1.014-2.029 1.015 1.015-1.015h-1.015L184 58.508q-1.521 0 0 0v-2.03h1.014V54.45l2.029-2.029 1.015-1.014V50.39l-1.015 2.03 1.015-1.015h2.029l-1.015 1.014h2.029v-1.014h2.029l1.015-2.03 2.029-1.014v1.015l-1.015 1.014 2.029-1.014 1.015-1.015 1.014-1.014 1.015-1.015V45.32q0-1.523 0 0l2.029-3.044 2.029-1.014h-1.015l3.044-3.044h-2.029l1.014-1.014h-1.014l-1.015 2.029-1.014 1.014c-1.015 0 0 1.015 0 0v-1.014l-1.015 2.029-2.029 2.029h-1.014q-1.522 0 0 0v-1.015h-1.015l1.015-1.014q0-1.523 0 0v1.014l-2.029 1.015h-1.015v1.014h-1.014l1.014-2.029 1.015-1.014h1.014l1.015-1.015v-1.014l1.014-1.015 2.029-1.014-1.014 1.014h-2.029l2.029-1.014v-1.015l-2.029 2.03c-3.044 2.028-1.015 0 2.029-3.044l2.029-1.015zm-14.203 16.232-3.044 3.043h1.015l1.014-1.014 1.015-1.015zq1.521 0 0 0M55.159 46.333l-1.014-1.014h1.014zm4.058 2.03h1.015l-1.015-1.015zm8.116 3.043h1.015v2.029h1.014v1.014l-1.014-2.029v3.044l-2.03-4.058zm-5.072 0v2.029l1.014 1.014v1.015l2.03 1.014v1.015l1.014 1.014v-1.014h2.029l1.014 1.014v1.015h1.015l1.014 2.029c1.015 2.029 1.015 3.043-1.014 1.014l-1.015-1.014 2.03 3.043-1.015-1.014h-1.015v-2.03h-1.014l-1.015-1.014-2.029-2.029v-1.014h-2.029v-1.015l-1.014-2.029zm132.898 1.014v1.015h1.015V52.42zm8.116 5.073h-2.029l2.029-1.015zm1.015 1.014-2.029 2.03 1.014-1.015v-1.015zc1.014-1.014 0-1.014 0 0m-103.478 1.015q0 1.521 0 0m94.347 2.029 1.015 1.014v-1.014zm-10.145 2.029v1.014l1.015-2.029zm10.145 0v1.014h-1.014v1.015h-1.015l1.015-1.015V63.58zm-87.246 2.029v1.014l-1.014-1.014zm85.217 1.014-1.014 1.015h-1.015l2.029-2.03zM65.304 67.638l1.015 1.014v1.015-2.03zm3.044 2.029 1.014 2.029v1.014h1.015v2.03l-1.015-1.015v-2.03l-1.014-1.014zm3.043 4.058v1.014l-1.014-2.029zm118.696 1.014-1.015 1.015-1.014 1.014v-1.014h1.014l-1.014 1.014c-1.015 1.015 0 1.015 0 0l1.014 1.015h-1.014l1.014-1.015 2.029-2.029v1.015h-1.014v1.014l-2.029 2.03h-1.015q-1.521 0 0 0h-2.029l3.044-3.044zm-4.058 1.015q1.521 0 0 0m2.029 0h-1.015l1.015-1.015zm-76.087 0 1.015 2.029H114v2.029l1.014 1.014H114l-1.014-1.014h-1.015v-1.015l-1.014-1.014v-2.03zm75.072 2.029q0 1.521 0 0m-16.231 2.029h1.014q-1.521 0 0 0v-1.015zm-21.305 6.087v1.014l1.015-1.014zm20.29 2.028q1.522 0 0 0m-3.043 2.03h-1.015l1.015-1.015zm-18.261 76.086h1.014v1.015l1.015 1.014v1.015l-1.015-1.015h1.015l-2.029-1.014zm-24.348 0v1.015l-3.044 3.043-2.029 1.015q-1.521 3.044 0 0l2.029-3.044v1.015h-1.014q-1.522 1.521 0 0l3.043-3.044v-1.014zm-49.71 0v2.029h-2.03v2.029h-3.043v-1.014l2.03-1.015 1.014-1.014zm76.087 5.073 1.014 1.014v-1.014zm-91.305 8.116-1.014 1.014 1.014-2.029zm96.377 7.101 2.029 1.015h-2.029zm-3.043 0 1.014 1.015h-1.014zm-61.884 5.073-2.03 3.043h-1.014v1.015H86.61v1.014c-1.015-1.014 1.014-2.029 1.014-2.029l2.03-1.014 2.028-3.044zm73.043 2.029 1.015 1.014v1.015l-1.015-1.015zm14.203 2.029v1.014l1.015 1.015h1.014l1.015 1.014c0 2.029-1.015 0-2.029-1.014h-1.015zm-13.188 1.014h1.014v1.015zm-86.232 1.015-2.03 2.029-1.014 2.029-1.014 2.029-2.03 1.014h1.015l-1.014 2.029-3.044 1.015-1.014 2.029h-1.015l-1.014 1.014v-1.014l2.029-1.015 1.014-1.014h1.015v-1.015h1.014l3.044-3.043h-2.03v1.014q0-1.521 0 0h-1.014l1.015-1.014H71.39q-1.521 0 0 0l1.015-2.029v-1.015l2.029-1.014 2.029-2.029-1.015 1.014v2.029l1.015-1.014v-1.015zm-20.29 1.014-1.015 1.015v-1.015zm106.522 4.058 1.014 1.015 1.015 1.014v-1.014zm14.203 1.015v1.014q0-1.521 0 0h1.014zm-109.566 1.014-1.014 1.015-2.03 1.014-3.043 2.029v-1.014l2.03-2.029v-1.015 2.029l1.014-1.014 2.029-1.015zm100.435 1.015-1.014-1.015h1.014zm28.406 8.116v1.014l-1.015-2.029z" clip-rule="evenodd"/></svg>