<svg xmlns="http://www.w3.org/2000/svg" fill="none" viewBox="0 0 256 256"><path fill="#000" d="M53.219 44.358a9.72 9.72 0 0 0-6.883 2.861 9.8 9.8 0 0 0-2.852 6.91v25.306c0 5.11 2.074 10.132 5.676 13.747l52.732 52.928v74.121a9.8 9.8 0 0 0 1.235 4.755 9.8 9.8 0 0 0 3.384 3.551 9.7 9.7 0 0 0 4.677 1.453 9.7 9.7 0 0 0 4.79-1.015l38.939-19.541a9.79 9.79 0 0 0 5.383-8.745V146.11l1.575-1.581-13.81-13.771-67.05-66.859-19.598-19.541zm118.16 85.394 15.998 15.962 24.34 24.285c4.341 4.332 11.38 4.332 15.721.001a11.075 11.075 0 0 0 .001-15.687l-17.673-17.633-20.095-20.05-72.466-72.272s-7.569-7.537-11.07-11.02L78.986 6.442c-4.285-4.244-11.194-4.262-15.5-.04-4.372 4.286-4.403 11.306-.07 15.63L84.251 42.82 99.17 57.706l24.958 24.902 24.896 24.839z"/><path fill="#000" d="M213.032 93.182c3.602-3.615 5.675-8.637 5.675-13.748V54.129a9.8 9.8 0 0 0-2.851-6.909 9.7 9.7 0 0 0-6.883-2.861h-91.768l72.466 72.272z"/></svg>
