<svg xmlns="http://www.w3.org/2000/svg" fill="none" viewBox="0 0 256 256"><path fill="#000" fill-rule="evenodd" d="M86.429 73.25H67.143V47h19.286zm29.142 0H86.429V99.5H67.143v26.25h19.286V152H67.143v26.25h-9.857V47h9.857V36.071C67.143 28.852 61.29 23 54.07 23S41 28.852 41 36.071V219.93c0 7.218 5.852 13.07 13.071 13.07 7.22 0 13.072-5.852 13.072-13.071V178.25h19.286V152h29.142v26.25h29.143V152h29.143v26.25H188c8.284 0 15-6.716 15-15V152h-29.143v-26.25H203V99.5h-29.143V73.25H203V62c0-8.284-6.716-15-15-15h-14.143v26.25h-29.143V47h-29.143zm0 26.25V73.25h29.143V99.5zm0 26.25V99.5H86.429v26.25zm29.143 0V99.5h29.143v26.25zm0 0h-29.143V152h29.143z" clip-rule="evenodd"/><path fill="#000" d="M57.286 152h9.857v-26.25h-9.857zm9.857-78.75h-9.857V99.5h9.857z"/></svg>
