<svg xmlns="http://www.w3.org/2000/svg" fill="none" viewBox="0 0 256 256"><path fill="#000" d="M190.464 119.996c-2.513-3.283-5.572-6.129-8.413-8.975-7.321-6.567-15.625-11.273-22.618-18.168-14.714-14.441-19.075-37.375-12.116-56.602.874-2.414-1.24-4.97-3.642-4.064-7.811 2.949-14.797 7.556-20.955 12.51-28.3 22.764-39.445 62.931-26.115 97.407.437 1.095.874 2.189.874 3.612 0 2.408-1.639 4.597-3.824 5.473-2.513 1.094-5.136.437-7.212-1.314a6.6 6.6 0 0 1-1.53-1.86c-9.635-12.215-12.949-28.562-9.993-43.683.611-3.124-3.187-5.634-5.214-3.181-12.32 14.913-18.732 35.248-17.572 54.634.655 5.473 1.311 10.945 3.169 16.418 1.53 6.566 4.48 13.133 7.758 18.934 11.8 18.934 32.233 32.506 54.195 35.242 23.383 2.955 48.405-1.313 66.325-17.512 19.995-18.168 26.988-47.281 16.717-72.235l-1.42-2.846c-2.295-5.034-8.414-13.79-8.414-13.79m-34.528 68.952c-3.059 2.627-8.085 5.472-12.019 6.567-8.857 3.168-17.714.833-24.665-3.437-3.336-2.049-2.101-6.837 1.325-8.731 8.022-4.436 12.957-11.808 14.708-19.244 1.858-8.755-1.639-15.979-3.059-24.406-.664-4.098-.935-7.887-.66-11.609.32-4.324 5.584-4.699 8.059-1.14q.652.939 1.342 1.804c8.413 10.945 21.635 15.76 24.475 30.645a17 17 0 0 1 .656 4.706c.328 8.975-3.606 18.825-10.162 24.845"/></svg>
