<svg xmlns="http://www.w3.org/2000/svg" fill="none" viewBox="0 0 256 256"><path fill="#000" d="m96.933 154.83 18.303-.069c3.153-.012 4.729-.018 5.437 1.062s.277 2.834-.586 6.339l-16.205 65.799q-.257 1.045-.482 2.041c-2.033 9.017 5.649 11.003 11.209 2.89q.538-.786 1.087-1.614l.163-.246 58.068-87.771c12.584-19.012 18.876-28.518 16.622-35.35s-11.671-6.812-30.481-6.741l-18.304.069c-3.153.012-4.729.018-5.437-1.062s-.277-2.834.586-6.339l16.205-65.799q.257-1.045.482-2.041c2.033-9.017-5.649-11.003-11.209-2.89q-.538.786-1.087 1.614l-.163.246-58.068 87.771c-12.584 19.012-18.876 28.518-16.621 35.35 2.254 6.832 11.67 6.812 30.48 6.741"/></svg>