<svg xmlns="http://www.w3.org/2000/svg" fill="none" viewBox="0 0 256 256"><path fill="#000" d="M50.222 28A22.223 22.223 0 0 0 28 50.222v155.556A22.22 22.22 0 0 0 50.222 228h155.556A22.22 22.22 0 0 0 228 205.778V64.572a21.23 21.23 0 0 0-6.219-15.013l-14.097-14.097A25.48 25.48 0 0 0 189.669 28h-7.812v66.667a11.11 11.11 0 0 1-11.111 11.111H81.857a11.11 11.11 0 0 1-11.111-11.111V28zm88.818 11.111c-7.035 0-12.739 5.704-12.739 12.739v30.078c0 7.035 5.704 12.739 12.739 12.739h7.856c7.035 0 12.739-5.704 12.739-12.74V51.85c0-7.035-5.704-12.739-12.739-12.739zM72.444 128h111.112a11.11 11.11 0 0 1 11.111 11.111v66.667H61.333v-66.667A11.11 11.11 0 0 1 72.444 128"/></svg>