<svg xmlns="http://www.w3.org/2000/svg" fill="none" viewBox="0 0 1282 555"><path fill="#000" d="m27.016 409.061 43.296-264.272H253.68l-9.678 57.81H131.434l-7.131 45.422h101.362l-9.677 57.809H114.626l-16.81 103.231zm209.41 0 43.295-264.272h70.801l-33.618 206.463h105.437l-9.678 57.809zm395.202-264.272h70.801l-27.76 169.299q-4.839 30.195-22.666 52.261-17.7 21.937-45.078 33.937-27.378 11.872-60.868 11.872-33.745 0-57.048-11.872-23.304-12-33.873-33.937-10.442-22.065-5.603-52.261l27.76-169.299h70.801l-26.741 163.106q-1.91 12.258 1.91 21.807 3.82 9.55 12.352 15.098 8.531 5.42 20.629 5.419 12.224 0 22.539-5.419 10.442-5.549 17.318-15.098t8.786-21.807zm104.45 0h88.119l36.165 149.686h3.056l85.062-149.686h88.12l-43.296 264.272h-69.273l24.959-152.782h-2.038l-82.516 150.717h-41.767l-33.108-151.749h-2.037l-25.468 153.814h-69.273zm290.782 264.272 43.29-264.272h187.96l-9.68 57.81h-117.15l-7.14 45.422h107.48l-9.68 57.809h-107.47l-7.13 45.422h116.64l-9.68 57.809zM72.673 117.313H1260.15l20.29-116.086c-12.02 4.879-216.11 72.114-352.392 72.733-142.381.647-331.559-65.376-473.876-69.788C258.03-1.908 86.574 109.297 72.673 117.313"/><path fill="#000" fill-rule="evenodd" d="M2.842 552.947h-.808l20.388-115.789H1213.36l-.07.451c-20.21 8.154-219.107 107.047-352.929 107.656-74.849.34-162.569-17.692-249.682-35.598-79.371-16.316-158.237-32.527-226.402-34.645C193.58 469.1 26.109 539.776 2.842 552.947" clip-rule="evenodd"/><path stroke="#000" d="M72.281 117.313h.392M1280.48 1l-.04.227M71.764 117.842s.307-.181.909-.529M1281 1l-.56.227M72.673 117.313H1260.15l20.29-116.086M72.673 117.313c13.9-8.016 185.357-119.222 381.499-113.14 142.317 4.41 331.495 70.433 473.876 69.787 136.282-.619 340.372-67.854 352.392-72.733m-66.04 435.931c-.27.111-.65.262-1.11.451M1 554q.676-.391 1.842-1.053m0 0h-.808l20.388-115.789H1213.36l-.07.451M2.842 552.947C26.11 539.776 193.58 469.1 384.277 475.022c68.165 2.118 147.031 18.329 226.402 34.645 87.113 17.906 174.833 35.938 249.682 35.598 133.822-.609 332.719-99.502 352.929-107.656M27.016 409.061l43.296-264.272H253.68l-9.678 57.81H131.434l-7.131 45.422h101.362l-9.677 57.809H114.626l-16.81 103.231zm209.41 0 43.295-264.272h70.801l-33.618 206.463h105.437l-9.678 57.809zm395.202-264.272h70.801l-27.76 169.299q-4.839 30.195-22.666 52.261-17.7 21.937-45.078 33.937-27.378 11.872-60.868 11.872-33.745 0-57.048-11.872-23.304-12-33.873-33.937-10.442-22.065-5.603-52.261l27.76-169.299h70.801l-26.741 163.106q-1.91 12.258 1.91 21.807 3.82 9.55 12.352 15.098 8.531 5.42 20.629 5.419 12.224 0 22.539-5.419 10.442-5.549 17.318-15.098t8.786-21.807zm104.45 0h88.119l36.165 149.686h3.056l85.062-149.686h88.12l-43.296 264.272h-69.273l24.959-152.782h-2.038l-82.516 150.717h-41.767l-33.108-151.749h-2.037l-25.468 153.814h-69.273zm290.782 264.272 43.29-264.272h187.96l-9.68 57.81h-117.15l-7.14 45.422h107.48l-9.68 57.809h-107.47l-7.13 45.422h116.64l-9.68 57.809z"/></svg>
