<svg xmlns="http://www.w3.org/2000/svg" fill="none" viewBox="0 0 256 256"><path fill="#000" d="M41.878 196.916V49.807a9.8 9.8 0 0 1 2.869-6.934A9.8 9.8 0 0 1 51.673 40h88.164a9.8 9.8 0 0 1 6.926 2.873 9.8 9.8 0 0 1 2.87 6.934v78.458h19.591c5.197 0 10.18 2.067 13.854 5.745a19.63 19.63 0 0 1 5.738 13.87v39.229a9.82 9.82 0 0 0 2.869 6.935 9.793 9.793 0 0 0 16.723-6.935v-68.651h-19.592a9.8 9.8 0 0 1-6.926-2.872 9.8 9.8 0 0 1-2.87-6.935V73.482l-9.314-9.325c-3.822-3.826-3.822-10.025 0-13.851 3.828-3.833 10.04-3.833 13.868 0L225.13 91.91a9.8 9.8 0 0 1 2.87 6.934v88.265a29.44 29.44 0 0 1-8.607 20.804 29.37 29.37 0 0 1-20.781 8.618c-7.794 0-15.269-3.1-20.78-8.618a29.44 29.44 0 0 1-8.608-20.804V147.88h-19.591v49.036h4.07c5.416 0 9.807 4.391 9.807 9.807s-4.391 9.808-9.807 9.808H37.807c-5.416 0-9.807-4.391-9.807-9.808s4.39-9.807 9.807-9.807zM71.469 59.615c-5.522 0-10 4.477-10 10v38.843c0 5.523 4.477 10 10 10h48.572c5.523 0 10-4.477 10-10V69.615c0-5.523-4.477-10-10-10z"/></svg>
