<svg xmlns="http://www.w3.org/2000/svg" viewBox="0 0 256 256"><path d="M41.789 177.99A100.2 100.2 0 0 1 32 154.733a29.99 29.99 0 0 0 16.402-26.721 30 30 0 0 0-16.372-26.74 99.9 99.9 0 0 1 24.996-43.364 29.995 29.995 0 0 0 46.313-26.736 99.9 99.9 0 0 1 50.062.03 30 30 0 0 0 14.971 27.549 30 30 0 0 0 31.342-.843 100.54 100.54 0 0 1 25.027 43.354 29.995 29.995 0 0 0-.02 53.461 99.9 99.9 0 0 1-25.007 43.364 29.99 29.99 0 0 0-42.726 10.839 30 30 0 0 0-3.587 15.897 99.9 99.9 0 0 1-50.062-.02 30 30 0 0 0-14.964-27.549 29.99 29.99 0 0 0-31.339.833 100 100 0 0 1-15.248-20.097m56.58 1.96a49.9 49.9 0 0 1 22.497 27.695c4.99.47 9.999.48 14.988.02a49.92 49.92 0 0 1 22.497-27.715 49.92 49.92 0 0 1 35.254-5.64 79.3 79.3 0 0 0 7.479-12.978 49.92 49.92 0 0 1-12.718-33.335 49.9 49.9 0 0 1 12.728-33.334 81.5 81.5 0 0 0-7.499-12.978 49.92 49.92 0 0 1-35.224-5.64 49.92 49.92 0 0 1-22.497-27.695 80 80 0 0 0-14.998-.01A49.92 49.92 0 0 1 98.38 76.045a49.92 49.92 0 0 1-35.255 5.64 78.5 78.5 0 0 0-7.469 12.978 49.92 49.92 0 0 1 12.728 33.334 49.94 49.94 0 0 1-12.728 33.335 81.6 81.6 0 0 0 7.5 12.978 49.93 49.93 0 0 1 35.224 5.64m29.995-21.957a29.995 29.995 0 1 1 0-59.99 29.995 29.995 0 0 1 0 59.99m0-19.997a9.999 9.999 0 1 0 0-20 9.999 9.999 0 0 0 0 20"/></svg>