<svg xmlns="http://www.w3.org/2000/svg" fill="none" viewBox="0 0 256 256"><path fill="#000" fill-rule="evenodd" d="M41.802 177.99A100 100 0 0 1 32 154.733a30 30 0 0 0 11.987-11.047 29.97 29.97 0 0 0 .017-31.354 30 30 0 0 0-11.974-11.06 99.85 99.85 0 0 1 25.03-43.364 30.06 30.06 0 0 0 31.399.837 30 30 0 0 0 11.384-11.676 29.96 29.96 0 0 0 3.592-15.897 100.15 100.15 0 0 1 50.13.03 29.96 29.96 0 0 0 3.604 15.886 30 30 0 0 0 11.387 11.663 30.07 30.07 0 0 0 31.384-.843A100.5 100.5 0 0 1 225 101.262a30 30 0 0 0-11.985 11.049 29.96 29.96 0 0 0-.011 31.354 30 30 0 0 0 11.976 11.058 99.86 99.86 0 0 1-25.04 43.364 30.06 30.06 0 0 0-15.581-4.844 30.1 30.1 0 0 0-15.818 4.007 30 30 0 0 0-11.384 11.676 29.95 29.95 0 0 0-3.592 15.897 100.16 100.16 0 0 1-50.13-.02 29.96 29.96 0 0 0-3.601-15.885 30 30 0 0 0-11.383-11.664 30.07 30.07 0 0 0-31.381.833 100 100 0 0 1-15.268-20.097m65.464-28.783a30.06 30.06 0 0 0 21.239 8.786c7.966 0 15.606-3.16 21.239-8.786a29.98 29.98 0 0 0 8.797-21.21 29.98 29.98 0 0 0-8.797-21.209 30.06 30.06 0 0 0-21.239-8.786 30.06 30.06 0 0 0-21.239 8.786 29.98 29.98 0 0 0-8.797 21.209 29.98 29.98 0 0 0 8.797 21.21" clip-rule="evenodd"/><path fill="#000" fill-rule="evenodd" d="M41.802 177.99A100 100 0 0 1 32 154.733a30 30 0 0 0 11.987-11.047 29.97 29.97 0 0 0 .017-31.354 30 30 0 0 0-11.974-11.06 99.85 99.85 0 0 1 25.03-43.364 30.06 30.06 0 0 0 31.399.837 30 30 0 0 0 11.384-11.676 29.96 29.96 0 0 0 3.592-15.897 100.15 100.15 0 0 1 50.13.03 29.96 29.96 0 0 0 3.604 15.886 30 30 0 0 0 11.387 11.663 30.07 30.07 0 0 0 31.384-.843A100.5 100.5 0 0 1 225 101.262a30 30 0 0 0-11.985 11.049 29.96 29.96 0 0 0-.011 31.354 30 30 0 0 0 11.976 11.058 99.86 99.86 0 0 1-25.04 43.364 30.06 30.06 0 0 0-15.581-4.844 30.1 30.1 0 0 0-15.818 4.007 30 30 0 0 0-11.384 11.676 29.95 29.95 0 0 0-3.592 15.897 100.16 100.16 0 0 1-50.13-.02 29.96 29.96 0 0 0-3.601-15.885 30 30 0 0 0-11.383-11.664 30.07 30.07 0 0 0-31.381.833 100 100 0 0 1-15.268-20.097m65.464-28.783a30.06 30.06 0 0 0 21.239 8.786c7.966 0 15.606-3.16 21.239-8.786a29.98 29.98 0 0 0 8.797-21.21 29.98 29.98 0 0 0-8.797-21.209 30.06 30.06 0 0 0-21.239-8.786 30.06 30.06 0 0 0-21.239 8.786 29.98 29.98 0 0 0-8.797 21.209 29.98 29.98 0 0 0 8.797 21.21" clip-rule="evenodd"/></svg>