<svg xmlns="http://www.w3.org/2000/svg" fill="none" viewBox="0 0 256 256"><path fill="#000" d="M103.234 162.453c0 9.905-5.109 26.114-17.203 26.114s-17.203-16.209-17.203-26.114 5.11-26.114 17.203-26.114 17.203 16.209 17.203 26.114M241 138.519c0 15.119-1.5 31.138-8.203 45.025-17.766 36.304-66.609 35.451-101.578 35.451-35.531 0-87.281 1.279-105.75-35.451C18.625 169.799 16 153.638 16 138.519c0-19.858 6.516-38.627 19.453-53.84-2.437-7.489-3.61-15.356-3.61-23.129 0-10.19 2.298-15.308 6.845-24.55 21.234 0 34.828 4.266 51 17.062 13.593-3.27 27.562-4.74 41.578-4.74 12.656 0 25.406 1.375 37.687 4.36C184.891 41.029 198.484 37 219.484 37c4.594 9.242 6.844 14.36 6.844 24.55a73.9 73.9 0 0 1-3.609 22.844C235.609 99.75 241 118.661 241 138.52m-30.141 23.934c0-20.806-12.515-39.148-34.453-39.148-8.859 0-17.344 1.612-26.25 2.844-6.984 1.09-13.968 1.517-21.14 1.517-7.125 0-14.11-.427-21.141-1.517-8.766-1.232-17.344-2.844-26.25-2.844-21.937 0-34.453 18.342-34.453 39.148 0 41.612 37.687 48.011 70.5 48.011h22.594c32.953 0 70.593-6.351 70.593-48.011m-38.718-26.114c-12.094 0-17.203 16.209-17.203 26.114s5.109 26.114 17.203 26.114 17.203-16.209 17.203-26.114-5.11-26.114-17.203-26.114"/></svg>