<svg width="256" height="256" viewBox="0 0 256 256" fill="none" xmlns="http://www.w3.org/2000/svg">
<path d="M128 228C154.522 228 179.957 217.464 198.711 198.711C217.464 179.957 228 154.522 228 128C228 101.478 217.464 76.043 198.711 57.2893C179.957 38.5357 154.522 28 128 28C101.478 28 76.043 38.5357 57.2893 57.2893C38.5357 76.043 28 101.478 28 128C28 154.522 38.5357 179.957 57.2893 198.711C76.043 217.464 101.478 228 128 228ZM65.8125 150.695C64.3281 145.344 68.7031 140.5 74.25 140.5H181.75C187.297 140.5 191.711 145.344 190.188 150.695C182.766 177.219 157.727 196.75 128 196.75C98.2734 196.75 73.2344 177.219 65.8125 150.695ZM84.4062 103C84.4062 99.6848 85.7232 96.5054 88.0674 94.1612C90.4116 91.817 93.591 90.5 96.9062 90.5C100.221 90.5 103.401 91.817 105.745 94.1612C108.089 96.5054 109.406 99.6848 109.406 103C109.406 106.315 108.089 109.495 105.745 111.839C103.401 114.183 100.221 115.5 96.9062 115.5C93.591 115.5 90.4116 114.183 88.0674 111.839C85.7232 109.495 84.4062 106.315 84.4062 103ZM159.406 90.5C162.721 90.5 165.901 91.817 168.245 94.1612C170.589 96.5054 171.906 99.6848 171.906 103C171.906 106.315 170.589 109.495 168.245 111.839C165.901 114.183 162.721 115.5 159.406 115.5C156.091 115.5 152.912 114.183 150.567 111.839C148.223 109.495 146.906 106.315 146.906 103C146.906 99.6848 148.223 96.5054 150.567 94.1612C152.912 91.817 156.091 90.5 159.406 90.5Z" fill="black"/>
</svg>
