<svg xmlns="http://www.w3.org/2000/svg" fill="none" viewBox="0 0 256 256"><path fill="#000" d="M118 178h20v-60h-20zm10-80q4.25 0 7.125-2.875T138 88t-2.875-7.125T128 78t-7.125 2.875Q118 83.751 118 88t2.875 7.125Q123.75 98 128 98m0 130q-20.75 0-39-7.875T57.25 198.75 35.875 167 28 128t7.875-39T57.25 57.25 89 35.875 128 28t39 7.875 31.75 21.375T220.125 89 228 128t-7.875 39-21.375 31.75T167 220.125 128 228m0-20q33.5 0 56.75-23.25T208 128t-23.25-56.75T128 48 71.25 71.25 48 128t23.25 56.75T128 208"/></svg>