<svg xmlns="http://www.w3.org/2000/svg" fill="none" viewBox="0 0 256 256"><path fill="#000" d="M153.836 23c14.07 0 21.105 9.576 21.105 20.548 0 13.703-12.222 26.376-28.129 26.376-13.325 0-21.095-7.875-20.728-20.895 0-10.951 9.251-26.029 27.752-26.029m-43.291 210c-11.11 0-19.247-6.846-11.477-37.002l12.747-53.466c2.216-8.547 2.583-11.981 0-11.981-3.328 0-17.734 5.901-26.271 11.729L80 133.04c27.006-22.953 58.076-36.403 71.411-36.403 11.098 0 12.946 13.366 7.402 33.914l-14.605 56.196c-2.583 9.923-1.481 13.346 1.113 13.346 3.328 0 14.248-4.116 24.979-12.673l6.3 8.546C150.329 222.71 121.633 233 110.545 233"/></svg>