<svg xmlns="http://www.w3.org/2000/svg" fill="none" viewBox="0 0 256 256"><path fill="#000" fill-rule="evenodd" d="m140.518 28.468 76.549 30.849a18.1 18.1 0 0 1 6.958 6.577 17.6 17.6 0 0 1 2.556 9.128v32.401c0 54.951-33.739 104.569-85.664 125.982a34.5 34.5 0 0 1-26.253 0C62.739 211.992 29 162.374 29 107.423V75.022c0-3.212.882-6.365 2.556-9.129a18.1 18.1 0 0 1 6.957-6.576l76.55-30.85a34.06 34.06 0 0 1 25.455 0m-19.919 87.583v68.756c0 3.448 2.803 6.242 6.261 6.242s6.262-2.794 6.262-6.242v-69.091l63.127-26.349c3.191-1.332 4.696-4.99 3.363-8.171-1.335-3.186-5.009-4.688-8.204-3.355l-64.964 27.115-63.736-27.452c-3.18-1.37-6.87.092-8.241 3.262a6.24 6.24 0 0 0 3.27 8.209z" clip-rule="evenodd"/></svg>