<svg xmlns="http://www.w3.org/2000/svg" fill="none" viewBox="0 0 256 256"><path fill="#000" d="M223 223h-54.286v-54.286H223zm-40.714-13.571h27.143v-27.143h-27.143zm-27.143-6.786H73.714a40.716 40.716 0 0 1-28.79-69.504 40.72 40.72 0 0 1 28.79-11.925h13.572v13.572H73.714a27.14 27.14 0 0 0-27.143 27.143 27.14 27.14 0 0 0 27.143 27.142h81.429z"/><path fill="#000" d="M155.143 155.143h-54.286v-54.286h54.286zm-40.714-13.572h27.142v-27.142h-27.142z"/><path fill="#000" d="M182.286 134.786h-13.572v-13.572h13.572a27.143 27.143 0 1 0 0-54.285h-81.429V53.357h81.429a40.713 40.713 0 0 1 28.789 69.504 40.72 40.72 0 0 1-28.789 11.925m-95-47.5H33V33h54.286zM46.57 73.714h27.143V46.571H46.571z"/></svg>