<svg xmlns="http://www.w3.org/2000/svg" fill="none" viewBox="0 0 256 256"><path fill="#000" fill-rule="evenodd" d="M237.891 117.346C205.897 86.75 169.61 65.584 128.069 65.868c-13.784.094-27.802 2.427-41.857 7.221 4.288 4.267 8.876 8.835 13.708 13.648 8.341-2.157 18.074-3.702 28.149-3.696 15.878.01 32.756 4.687 39.955 7.518 6.414 2.522 6.446 2.543 7.914 5.1 2.087 3.638 4.292 9.971 5.25 15.079 1.016 5.413 1.04 15.022.05 20.099a54.6 54.6 0 0 1-12.029 25.007l20.634 20.588c16.977-8.507 33.307-20.56 48.463-35.831 6.448-6.496 6.2-16.93-.415-23.255m-47.379 38.179c7.213-11.743 9.897-34.363 7.213-49.225 5.425 3.383 13.803 10.078 20.903 16.568 3.521 3.218 3.557 8.627.012 11.818-6.986 6.288-17.476 14.624-28.128 20.839" clip-rule="evenodd"/><path fill="#000" d="m151.456 169.504 15.998 15.962 24.34 24.285c4.341 4.332 11.38 4.332 15.721 0 4.342-4.331 4.342-11.354.001-15.686l-17.673-17.633-20.634-20.588-21.24-21.193-14.461-14.428a68624 68624 0 0 0-31.812-31.717l-1.776-1.77c-4.832-4.812-9.42-9.38-13.708-13.647L59.063 46.195c-4.285-4.244-11.194-4.262-15.5-.04-4.373 4.286-4.403 11.306-.07 15.63l20.835 20.788 14.919 14.885 24.958 24.902 24.896 24.839z"/><path fill="#000" fill-rule="evenodd" d="M53.808 88.619c-12.112 7.54-24.14 17.051-35.954 28.679-6.44 6.338-6.508 16.619.012 22.875 29.404 28.213 71.599 51.044 112.197 51.044 8.258 0 16.507-.847 24.692-2.508l-15.277-15.148-.373.078c-6.05 1.231-15.148 1.343-20.882.257-18.215-3.451-34.016-16.418-40.548-33.273-3.729-9.625-4.524-20.552-2.48-30.799zm-17.44 45.403c-3.084-3.033-3.301-7.917-.262-10.995 6.408-6.487 14.108-11.653 22.03-16.392-5.096 26.692 2.88 42.125 7.477 48.902-10.533-4.859-21.318-13.722-29.244-21.515" clip-rule="evenodd"/><path fill="#000" d="M150.502 124.117c0-12.786-10.378-23.151-23.181-23.151a23.1 23.1 0 0 0-10.572 2.542c5.416 5.4 11.022 10.991 16.759 16.715l14.461 14.428a23.04 23.04 0 0 0 2.533-10.534"/></svg>