<svg xmlns="http://www.w3.org/2000/svg" fill="none" viewBox="0 0 257 256"><path fill="#000" d="m172.83 146.124 10.705 5.726c.636.334 1.484.148 1.738-.534a60.2 60.2 0 0 0 4.68-22.862c.286-33.863-27.08-61.625-60.986-61.917h-.52c-33.62 0-61.192 27.307-61.484 60.88-.265 33.864 27.08 61.647 60.986 61.917l.52.016c16.062 0 30.72-6.245 41.711-16.411.541-.476.642-1.302.144-1.842l-9.126-8.223c-.541-.477-1.346-.371-1.823.079l-.021-.021a46.52 46.52 0 0 1-30.885 11.743h-.393c-25.813-.228-46.619-21.354-46.412-47.131.206-25.55 21.198-46.348 46.783-46.348h.414c25.792.228 46.619 21.375 46.391 47.131a46.4 46.4 0 0 1-2.999 16.04 1.356 1.356 0 0 0 .577 1.757"/><path fill="#000" d="M190.387 40.702c-.583-.397-1.367-.291-1.759.307l-6.879 9.922c-.397.583-.334 1.387.249 1.8 23.53 16.765 38.935 44.215 38.914 75.226 0 50.893-41.463 92.277-92.428 92.277s-92.433-41.405-92.433-92.32c0-50.872 41.469-92.276 92.455-92.26a92 92 0 0 1 31.584 5.561 1.3 1.3 0 0 0 1.643-.74l4.325-11.33a1.28 1.28 0 0 0-.705-1.615 106.3 106.3 0 0 0-36.842-6.551C69.427 20.957 21.383 68.94 21.361 127.93c0 58.98 48.066 106.984 107.129 106.984 59.057 0 107.128-47.983 107.128-106.957 0-35.986-17.886-67.865-45.231-87.255"/><path fill="#000" d="M55.702 170.393c14.68 25.016 41.918 41.823 72.994 41.739 46.477-.143 84.193-37.997 84.066-84.424-.122-46.427-38.05-84.09-84.543-83.968-46.476.121-84.192 38.012-84.065 84.423a85 85 0 0 0 1.696 16.495c.164.683.87 1.059 1.537.889l11.733-2.91a1.28 1.28 0 0 0 .988-1.033 1.3 1.3 0 0 0-.013-.502h.016a69 69 0 0 1-1.261-12.981c-.106-38.325 31.033-69.6 69.412-69.707 38.4-.106 69.719 31.012 69.804 69.336.122 38.325-31.033 69.601-69.412 69.707-25.421.058-47.737-13.564-59.926-33.906a1.345 1.345 0 0 0-1.744-.577l-10.742 5.663a1.3 1.3 0 0 0-.54 1.756"/></svg>