<svg xmlns="http://www.w3.org/2000/svg" fill="none" viewBox="0 0 256 256"><path fill="#000" fill-rule="evenodd" d="M135.48 89.448c-.05-.017.051.018 0 0-32.428-16.37-73.277 6.185-73.277 51.906 0 63.63 51.48 81.261 73.89 81.646 24.331-.279 47.586-10.378 64.77-28.129 17.184-17.75 26.927-41.737 27.137-66.808 0-57.913-46.304-91.436-85.683-94.678a76 76 0 0 0-6.224-.26c1.476-.219 3.618-.163 6.224.26 17.115 2.778 61.011 21.375 61.011 81.624 0 37.305-33.066 72.346-69.137 63.754-22.595-5.381-31.139-24.294-31.139-45.505s16.855-43.81 32.428-43.81" clip-rule="evenodd"/><path fill="#000" fill-rule="evenodd" d="M120.52 166.552c-.051-.018.05.017 0 0 32.428 17.483 73.277-6.185 73.277-51.906 0-63.63-51.48-81.26-73.89-81.646-24.331.279-47.586 10.378-64.77 28.129C37.953 78.879 28.21 102.866 28 127.937c0 57.913 46.304 91.436 85.683 94.678q3.147.258 6.224.259c-1.476.22-3.618.164-6.224-.259-17.115-2.778-61.011-21.375-61.011-81.624 0-37.305 33.066-72.346 69.137-63.754 22.595 5.381 31.139 24.294 31.139 45.505s-16.159 43.81-32.428 43.81" clip-rule="evenodd"/></svg>