<svg width="256" height="256" viewBox="0 0 256 256" fill="none" xmlns="http://www.w3.org/2000/svg">
<path d="M109.095 34.47C107.821 33.1617 106.299 32.1219 104.619 31.412C102.938 30.7022 101.133 30.3364 99.3088 30.3364C97.485 30.3364 95.6796 30.7022 93.9989 31.412C92.3182 32.1219 90.7962 33.1617 89.5225 34.47H89.4555C86.8559 37.1387 85.4097 40.7262 85.4301 44.4558C85.4301 48.385 86.9695 51.9021 89.4651 54.4129L89.532 54.48C91.9894 57.01 95.422 58.5625 99.2754 58.5625C103.138 58.5625 106.6 57.01 109.095 54.48L109.124 54.4129C111.62 51.9021 113.149 48.385 113.149 44.4558C113.149 40.5458 111.629 37.0096 109.124 34.47H109.095ZM99.2754 227.66C103.138 227.66 106.6 226.06 109.095 223.549L109.124 223.472C111.62 220.971 113.149 217.425 113.149 213.544C113.149 209.615 111.629 206.088 109.124 203.539H109.095C107.821 202.221 106.295 201.175 104.607 200.464C102.92 199.752 101.106 199.39 99.2754 199.399C97.4542 199.388 95.65 199.749 93.973 200.461C92.2961 201.173 90.7817 202.22 89.5225 203.539H89.4555C86.9695 206.088 85.4205 209.615 85.4205 213.544C85.4205 217.435 86.96 220.971 89.4555 223.472L89.5225 223.549C91.9894 226.06 95.422 227.66 99.2754 227.66ZM174.717 184.9C178.15 183.98 181.248 181.737 183.15 178.345L183.409 177.846C185.044 174.697 185.434 171.045 184.499 167.621C184.046 165.832 183.242 164.151 182.134 162.677C181.025 161.202 179.635 159.964 178.044 159.034L177.844 158.9C174.707 157.136 171.004 156.682 167.536 157.635C164.094 158.507 160.996 160.845 159.112 164.209C157.2 167.554 156.808 171.397 157.716 174.933C158.663 178.412 160.872 181.555 164.17 183.52H164.19C167.498 185.465 171.237 185.81 174.717 184.9ZM113.474 114.539C111.626 112.641 109.417 111.132 106.979 110.1C104.541 109.068 101.922 108.534 99.2754 108.53C93.7296 108.53 88.7289 110.849 85.105 114.539C81.4907 118.228 79.2532 123.317 79.2532 128.981C79.2532 134.645 81.4811 139.752 85.105 143.49C86.9561 145.378 89.1637 146.877 91.5991 147.901C94.0345 148.924 96.6489 149.451 99.2897 149.451C101.931 149.451 104.545 148.924 106.98 147.901C109.416 146.877 111.623 145.378 113.474 143.49C117.098 139.752 119.326 134.645 119.326 128.981C119.326 123.317 117.098 118.228 113.474 114.539ZM105.49 90.4846C113.551 91.8358 120.789 95.7746 126.316 101.448H126.354C127.234 102.339 128.094 103.326 128.888 104.313L142.714 96.1579C140.905 90.5458 140.749 84.53 142.265 78.8312C143.26 74.9882 145.002 71.3798 147.391 68.2126C149.78 65.0453 152.769 62.3815 156.186 60.3738L156.425 60.2204C159.782 58.2652 163.493 56.9989 167.342 56.4955C171.192 55.992 175.103 56.2614 178.848 57.2879C186.21 59.3004 192.855 64.1975 196.996 71.4904V71.5096C201.117 78.7642 201.949 87.0921 199.988 94.5863C198.995 98.4327 197.254 102.045 194.865 105.216C192.476 108.386 189.486 111.053 186.067 113.063L184.173 114.194H183.982C177.57 117.294 170.26 117.978 163.386 116.12C157.787 114.576 152.758 111.433 148.91 107.073L135.103 115.2C138.379 124.104 138.379 133.887 135.103 142.79L148.91 150.898C152.859 146.394 157.888 143.337 163.386 141.851C167.175 140.798 171.138 140.525 175.034 141.051C178.931 141.576 182.681 142.888 186.057 144.908L186.516 145.129V145.148C193.191 149.263 198.016 155.81 199.979 163.414C202.016 171.194 200.943 179.464 196.986 186.462L196.737 186.97L196.709 186.922C192.758 193.65 186.359 198.582 178.857 200.683C175.065 201.706 171.109 201.963 167.217 201.44C163.325 200.916 159.576 199.624 156.186 197.636V197.578C149.289 193.513 144.282 186.872 142.265 179.111C140.755 173.422 140.911 167.417 142.714 161.813L128.888 153.687C128.09 154.667 127.245 155.607 126.354 156.504L126.316 156.552C120.712 162.32 113.415 166.141 105.49 167.458V183.74C111.162 184.971 116.349 187.843 120.407 192.001L120.426 192.039C125.828 197.521 129.165 205.149 129.165 213.535C129.165 221.901 125.819 229.481 120.426 234.992L120.407 235.078C117.652 237.897 114.365 240.138 110.737 241.67C107.109 243.202 103.212 243.994 99.2754 244C95.3456 243.99 91.457 243.197 87.8358 241.667C84.2146 240.137 80.9332 237.9 78.1823 235.087H78.1632V235.001C72.5549 229.273 69.4104 221.57 69.4047 213.544C69.4047 205.159 72.7513 197.521 78.1632 192.049V192.01H78.1823C82.2352 187.856 87.4146 184.984 93.0794 183.75V167.467C85.1598 166.153 77.8683 162.331 72.2732 156.562L72.2159 156.514C65.0201 149.161 60.9925 139.271 61 128.971C61 118.219 65.3219 108.501 72.2159 101.448H72.2732C77.8685 95.6683 85.157 91.8278 93.0794 90.4846V74.2696C87.4203 73.009 82.2463 70.1332 78.1823 65.9896H78.1632V65.9512C72.5456 60.2136 69.4004 52.4946 69.4047 44.4558C69.4047 36.1087 72.7513 28.4612 78.1632 22.9604L78.1823 22.9412C80.9243 20.1146 84.2034 17.8671 87.8262 16.3314C91.4489 14.7957 95.3419 14.003 99.2754 14C107.508 14 114.966 17.4021 120.407 22.9317V22.9508H120.426C125.828 28.4517 129.165 36.0992 129.165 44.4462C129.165 52.8412 125.819 60.4217 120.426 65.9417L120.407 65.9896C116.337 70.1364 111.156 73.0124 105.49 74.2696V90.4846ZM183.141 79.665L183.026 79.4829C181.196 76.3396 178.21 74.0411 174.707 73.0812C172.945 72.5963 171.104 72.4703 169.293 72.7106C167.481 72.9509 165.736 73.5527 164.161 74.4804H164.18C160.862 76.3971 158.634 79.55 157.707 83.0671C156.798 86.565 157.19 90.4271 159.103 93.7908L159.17 93.8771C161.082 97.2025 164.132 99.4258 167.527 100.327C170.94 101.314 174.746 100.892 178.025 98.9467L178.207 98.8604C181.319 96.9569 183.572 93.9159 184.489 90.3792C185.446 86.7679 184.962 82.925 183.141 79.665Z" fill="black"/>
</svg>
