<svg width="256" height="256" viewBox="0 0 256 256" fill="none" xmlns="http://www.w3.org/2000/svg">
<path fill-rule="evenodd" clip-rule="evenodd" d="M138.556 30.5512C138.556 24.7237 133.829 20 128 20C122.17 20 117.445 24.7237 117.445 30.552C117.445 31.0001 117.472 31.441 117.527 31.8748L49.9367 70.8807C48.1644 69.5342 45.9527 68.7351 43.5554 68.7351C37.7263 68.7351 33 73.458 33 79.2856C33 83.6554 35.6585 87.4049 39.4466 89.0074V166.993C35.6585 168.594 33 172.344 33 176.714C33 182.542 37.727 187.266 43.5546 187.266C45.8603 187.269 48.1031 186.515 49.9375 185.119L117.526 224.127C117.472 224.561 117.445 225.001 117.445 225.45C117.445 231.276 122.17 236 128 236C133.829 236 138.555 231.276 138.555 225.45C138.555 225.001 138.528 224.561 138.474 224.127L206.064 185.12C207.836 186.467 210.047 187.266 212.445 187.266C218.274 187.266 223 182.542 223 176.714C223 172.344 220.342 168.595 216.554 166.993V89.0074C220.342 87.4057 223 83.6554 223 79.2856C223 73.458 218.274 68.7344 212.445 68.7344C210.14 68.7307 207.898 69.4846 206.064 70.88L138.474 31.8726C138.528 31.4398 138.556 30.9993 138.556 30.5512ZM58.8519 180.821H123.891V215.727C123.082 216.069 122.318 216.511 121.619 217.043L58.8519 180.821ZM132.108 180.821H197.147L134.381 217.044C133.681 216.512 132.918 216.07 132.109 215.727L132.108 180.821ZM162.771 112.661L168.722 109.228L204.03 170.342C203.501 171.04 203.06 171.8 202.718 172.606H132.108L132.108 166.993H194.055L162.771 112.661ZM158.69 105.573L162.771 112.661L138.474 126.678C138.528 127.111 138.555 127.552 138.555 127.999C138.555 132.37 135.898 136.12 132.109 137.722L132.108 166.993H123.891V137.723C120.196 136.16 117.577 132.554 117.449 128.323L117.445 127.999C117.445 127.552 117.472 127.111 117.526 126.678L93.3757 112.746L97.4394 105.648L121.616 119.596C123.363 118.266 125.483 117.517 127.677 117.453L128 117.448C130.306 117.445 132.549 118.199 134.384 119.596L158.69 105.573ZM158.69 105.573L128 52.2725L97.4394 105.648L91.3693 102.146L126.684 41.0209C127.558 41.1293 128.442 41.1293 129.316 41.0209L164.63 102.146L158.69 105.573ZM93.3757 112.746L87.2777 109.228L51.9696 170.342C52.4994 171.04 52.9402 171.8 53.2818 172.606H123.891V166.993H62.3164L93.3757 112.746ZM47.6649 89.0082C48.4749 88.6656 49.2389 88.2229 49.9389 87.6906L80.1771 105.134L47.6634 161.411L47.6649 89.0082ZM175.822 105.134L206.061 87.6906L206.414 87.948C207.016 88.3675 207.66 88.7231 208.336 89.0089V161.411L175.822 105.134ZM171.73 98.0504L139.193 41.7331L201.97 77.9628C201.916 78.3966 201.889 78.8375 201.888 79.2856L201.894 79.6084C201.904 79.9452 201.93 80.2778 201.971 80.6062L171.73 98.0504ZM54.0291 77.9628L116.805 41.7331L84.2681 98.0497L54.0291 80.6062C54.1386 79.7285 54.1386 78.8406 54.0291 77.9628Z" fill="black"/>
</svg>
