<svg width="256" height="256" viewBox="0 0 256 256" fill="none" xmlns="http://www.w3.org/2000/svg">
<path fill-rule="evenodd" clip-rule="evenodd" d="M177.312 167.454L224.698 156.558C225.428 156.409 226.118 156.11 226.727 155.681C227.335 155.248 227.847 154.694 228.231 154.054C228.614 153.414 228.862 152.701 228.958 151.96C229.051 151.218 228.989 150.467 228.774 149.749L208.625 62.0651C208.259 60.6201 207.337 59.3784 206.061 58.6106C204.783 57.8486 203.257 57.6218 201.814 57.9794L154.442 68.8759C153.011 69.2471 151.78 70.1673 151.025 71.4474C150.648 72.078 150.399 72.7771 150.293 73.5044C150.187 74.2317 150.226 74.9728 150.408 75.6849L170.5 163.369C170.866 164.814 171.788 166.055 173.065 166.823C174.339 167.593 175.868 167.821 177.312 167.454ZM160.98 221.64L218.435 168.281C220.603 166.085 220.054 164.736 217.074 165.814L177.583 174.814C175.948 175.218 174.442 176.029 173.203 177.171C171.966 178.312 171.036 179.748 170.5 181.345L158.524 220.014C157.705 223.009 158.795 223.829 160.98 221.64ZM56.1522 204.223L142.193 230.891C143.661 231.169 145.179 230.911 146.477 230.165C147.772 229.414 148.763 228.231 149.274 226.823L163.69 180.525C163.9 179.804 163.964 179.047 163.879 178.301C163.798 177.554 163.568 176.832 163.205 176.175C162.844 175.516 162.356 174.935 161.769 174.467C161.182 174.002 160.51 173.655 159.79 173.445L73.7494 147.03C72.2926 146.612 70.7295 146.788 69.4025 147.521C68.0766 148.256 67.0937 149.484 66.667 150.94L52.3457 197.141C51.923 198.586 52.084 200.14 52.7941 201.468C53.5085 202.792 54.7147 203.782 56.1522 204.223ZM28.3677 109.461L45.8132 186.062C46.3552 189.058 47.7601 189.058 48.523 186.062L60.4991 147.402C60.9097 145.754 60.9269 144.032 60.5491 142.376C60.1705 140.723 59.4141 139.179 58.3393 137.868L30.8209 108.092C28.9128 105.84 27.4886 106.465 28.3644 109.459L28.3677 109.461ZM95.637 27.5725L29.7322 88.7575C28.6745 89.768 28.054 91.1527 28.0034 92.6153C27.9527 94.0779 28.476 95.5022 29.4612 96.5836L62.4136 132.331C63.4273 133.413 64.8276 134.05 66.3089 134.103C67.7892 134.153 69.2293 133.616 70.3154 132.608L136.201 71.3215C137.268 70.3171 137.896 68.9316 137.948 67.4664C138 66.0012 137.472 64.5746 136.478 63.497L103.582 27.7679C103.075 27.2272 102.467 26.7916 101.792 26.4861C101.118 26.1863 100.391 26.0218 99.6532 26.0018C98.9143 25.9828 98.1791 26.1135 97.4919 26.386C96.8004 26.6522 96.17 27.0558 95.6386 27.5725H95.637ZM159.342 166.085C162.348 166.905 164.237 165.285 163.439 162.176L144.377 79.4059C143.558 76.4114 141.095 75.5913 138.933 77.7593L76.8495 135.604C74.6688 137.772 75.2107 140.22 78.1979 141.04L159.342 166.085ZM191.746 50.6392L116.592 27.5709C113.607 26.746 113.065 27.8437 115.504 30.2894L143.011 59.9714C144.244 61.1302 145.738 61.9756 147.366 62.4364C148.991 62.8905 150.701 62.9514 152.354 62.614L191.847 53.6337C194.751 52.8136 194.751 51.4463 191.746 50.6392Z" fill="black"/>
</svg>
