<svg width="256" height="256" viewBox="0 0 256 256" fill="none" xmlns="http://www.w3.org/2000/svg">
<path d="M147.891 142.414H145.604C143.814 143.509 143.019 145.599 143.814 147.39L152.366 168.387C160.62 163.113 166.885 155.252 170.166 145.997L147.991 142.414H147.891ZM113.584 145.3C113.328 144.488 112.828 143.775 112.151 143.258C111.475 142.742 110.655 142.447 109.805 142.414H109.009L86.9332 146.096C90.2148 155.252 96.4796 163.014 104.733 168.288L113.186 147.689V147.39C113.584 146.892 113.584 145.997 113.584 145.3ZM131.782 153.361C131.299 152.498 130.498 151.858 129.55 151.579C128.602 151.3 127.583 151.404 126.71 151.868C126.014 152.366 125.517 152.664 125.218 153.361H125.119L114.28 172.965C122.036 175.552 130.389 176.05 138.444 174.159C139.836 173.86 141.328 173.462 142.72 172.965L131.881 153.361H131.782ZM166.089 107.884L149.383 122.512L149.482 122.81C149.103 123.126 148.792 123.515 148.566 123.953C148.34 124.392 148.204 124.871 148.167 125.363C148.13 125.855 148.192 126.35 148.35 126.817C148.507 127.285 148.757 127.716 149.085 128.085C149.582 128.682 150.178 129.08 150.874 129.279L150.974 129.378L172.553 135.548C173.249 125.895 171.161 116.143 166.089 107.884ZM135.163 109.476C135.262 111.566 136.953 113.158 139.041 113.058C139.836 113.058 140.533 112.859 141.129 112.561H141.229L159.427 99.5246C152.492 92.7156 143.511 88.3793 133.87 87.185L135.163 109.476ZM115.871 112.561C117.561 113.655 119.849 113.357 121.042 111.665C121.539 111.068 121.738 110.371 121.837 109.575H121.937L123.13 87.185C121.638 87.384 120.147 87.6826 118.556 87.9811C110.6 89.7723 103.242 93.7528 97.4741 99.5246L115.771 112.561H115.871ZM106.026 129.378C108.015 128.881 109.208 126.791 108.612 124.801C108.612 124.005 108.114 123.408 107.518 122.91V122.81L90.8114 107.585C85.6404 116.143 83.4527 125.895 84.5466 135.648L106.026 129.478V129.378ZM122.335 135.946L128.5 138.931L134.665 135.946L136.157 129.279L131.881 124.005H125.02L120.744 129.279L122.335 135.946ZM230.627 149.082L213.026 72.7557C212.131 68.5762 209.346 65.1928 205.667 63.4016L134.367 29.2688C130.688 27.5771 126.312 27.5771 122.533 29.2688L51.3329 63.4016C47.6535 65.1928 44.8691 68.5762 43.9742 72.7557L26.3729 149.082C25.8757 151.072 25.8757 153.062 26.3729 154.953C26.4724 155.55 26.6712 156.147 26.8701 156.744C27.1684 157.64 27.6657 158.635 28.1629 159.431C28.4612 159.829 28.6601 160.227 29.0578 160.526L78.2817 222.024C78.4806 222.024 78.7789 222.422 78.7789 222.621C79.7733 223.517 80.6683 224.214 81.5633 224.811C82.7566 225.607 84.1488 226.204 85.541 226.502C86.6349 227 87.8282 227 88.7231 227H169.47C170.166 227 170.862 226.701 171.459 226.502C171.956 226.403 172.453 226.204 172.851 226.104C173.249 225.905 173.547 225.806 173.945 225.607C174.442 225.408 174.939 225.109 175.437 224.811C176.63 224.015 177.724 223.02 178.718 222.024L180.21 220.034L227.942 160.526C228.937 159.332 229.633 158.038 230.13 156.744C230.329 156.147 230.528 155.55 230.627 154.953C231.124 153.062 231.124 150.972 230.627 149.082ZM156.742 178.836C156.94 179.433 157.139 180.03 157.438 180.528C157.04 181.324 156.841 182.219 157.139 183.115C158.333 185.503 159.427 187.693 160.918 189.882C161.714 190.977 162.509 192.171 163.305 193.265C163.305 193.564 163.603 194.061 163.703 194.459C164.896 196.45 164.299 199.037 162.211 200.331C160.123 201.624 157.537 200.828 156.344 198.838C156.244 198.539 156.145 198.34 156.045 198.042C155.847 197.743 155.648 197.146 155.449 197.146C154.952 195.654 154.554 194.36 154.256 193.066C153.361 190.578 152.565 188.19 151.272 185.901C150.755 185.212 150.018 184.721 149.184 184.508L148.388 182.916C135.56 187.693 121.539 187.693 108.91 182.816L107.915 184.608C107.219 184.707 106.523 185.006 106.026 185.503C104.634 187.892 103.639 190.379 102.744 193.166C102.446 194.459 102.048 195.753 101.551 197.146C101.352 197.146 101.153 197.843 100.955 198.141C100.572 199.21 99.781 200.083 98.7553 200.569C97.7296 201.054 96.5533 201.111 95.4852 200.729C94.4171 200.346 93.5446 199.554 93.0597 198.528C92.5749 197.502 92.5173 196.324 92.8997 195.256C92.9992 194.957 93.198 194.758 93.2975 194.459C93.6952 194.161 93.6952 193.663 93.6952 193.365C94.5902 192.171 95.2863 191.076 96.0819 189.882C97.6729 187.792 98.9657 185.404 99.9601 183.016C100.058 182.174 99.9557 181.322 99.6618 180.528L100.358 178.736C88.7049 171.818 79.9722 160.886 75.7957 147.987L73.8068 148.286C73.1579 147.753 72.3574 147.44 71.5196 147.39C68.8347 147.888 66.4481 148.684 63.8626 149.579C62.7687 150.176 61.476 150.674 60.1832 151.072C59.8849 151.172 59.4871 151.271 58.8905 151.371C57.8218 151.692 56.6706 151.594 55.6724 151.094C54.6742 150.595 53.9044 149.732 53.5206 148.684C52.8245 146.395 53.9184 144.007 56.305 143.211C56.5039 143.211 56.8022 143.111 57.1005 143.111V143.012H57.2L58.2938 142.812C59.686 142.414 61.0782 142.414 62.371 142.414C64.9565 142.414 67.542 141.817 70.028 141.22C70.8236 140.723 71.4202 140.126 71.9174 139.33L73.8068 138.832C71.7185 125.298 74.8012 111.665 82.3588 100.321L80.9666 99.1265C80.9666 98.2309 80.6683 97.3353 80.1711 96.6387C78.1823 94.947 76.094 93.4543 73.8068 92.1606C72.6135 91.5636 71.4202 90.867 70.2269 90.0709C70.028 89.8719 69.6302 89.5733 69.4314 89.3743L69.3319 89.2748C67.3431 87.6826 66.8459 85.0953 68.2381 83.0055C69.133 82.0104 70.3263 81.5128 71.7185 81.5128C72.8124 81.6123 73.8068 82.0104 74.7018 82.707L75.5968 83.4036C76.5912 84.2992 77.4862 85.3938 78.3812 86.3889C80.1711 88.2797 82.0605 90.0709 84.1488 91.5636C84.9443 91.9616 85.8393 92.0611 86.7343 91.8621L88.2259 92.9567C95.6841 84.9957 105.429 79.4231 116.07 77.0348C118.556 76.4377 121.241 76.0396 123.826 75.8406L123.926 74.0494C124.612 73.4465 125.098 72.6478 125.318 71.7606C125.417 69.1733 125.218 66.586 124.821 64.0981C124.522 62.8045 124.323 61.4113 124.224 60.0181V58.824C124.025 56.4357 125.716 54.3459 128.102 54.0474C130.489 53.7488 132.478 55.5401 132.776 57.8289V60.0181C132.677 61.4113 132.478 62.8045 132.179 64.0981C131.782 66.586 131.583 69.1733 131.682 71.7606C131.881 72.7557 132.378 73.4523 133.074 73.9499L133.174 75.8406C146.698 77.0348 159.228 83.105 168.575 92.9567L170.166 91.7626C171.061 91.9616 171.956 91.8621 172.752 91.4641C174.84 89.9714 176.829 88.1802 178.519 86.2894C179.414 85.2943 180.309 84.2992 181.304 83.304C181.602 83.105 182 82.707 182.298 82.707C183.989 80.9157 186.674 80.9157 188.165 82.707C190.055 84.2992 189.955 86.986 188.165 88.6777C188.165 88.8767 187.867 89.0758 187.569 89.2748C186.211 90.3537 184.745 91.2875 183.193 92.0611C180.906 93.3548 178.718 94.8475 176.829 96.5392C176.232 97.2358 175.934 98.0319 176.033 98.9275L174.442 100.321C182.077 111.57 185.201 125.283 183.193 138.732L185.083 139.23C185.48 140.026 186.176 140.623 186.972 141.021C189.458 141.718 192.044 142.116 194.629 142.414H198.706C199.004 142.713 199.502 142.812 199.899 142.912C202.286 143.211 203.877 145.4 203.579 147.788C203.082 150.077 201.192 151.769 198.806 151.47C198.507 151.371 198.11 151.371 198.11 151.271V151.172C197.513 151.172 197.115 151.072 196.717 150.972C195.425 150.574 194.231 150.077 193.137 149.48C190.552 148.485 188.165 147.788 185.48 147.39C184.585 147.39 183.79 147.39 183.193 148.186C182.497 148.087 181.9 147.987 181.304 147.888C177.227 160.924 168.277 171.87 156.742 178.836Z" fill="black"/>
</svg>
