<svg xmlns="http://www.w3.org/2000/svg" fill="none" viewBox="0 0 256 256"><path fill="#000" d="M128.268 18c-8.203 0-16.271 1.762-23.936 4.88-7.53 3.253-14.388 7.862-20.17 13.826S73.806 49.583 70.713 57.31s-4.706 15.995-4.572 24.264v21.01h50.427V72.085c0-1.491.269-2.847.807-4.202a10.6 10.6 0 0 1 2.286-3.524 10.5 10.5 0 0 1 3.496-2.305 10.9 10.9 0 0 1 4.169-.813h1.882a11.4 11.4 0 0 1 4.169.813 10.5 10.5 0 0 1 3.496 2.305 10.6 10.6 0 0 1 2.286 3.524c.538 1.355.807 2.71.807 4.202v81.602c6.589 0 13.178-1.356 19.364-3.931s11.699-6.371 16.405-11.115c4.707-4.745 8.472-10.438 10.893-16.537 2.555-6.236 3.899-12.878 3.899-19.52v-21.01c0-16.809-6.454-33.075-18.153-45.003-5.783-5.965-12.641-10.573-20.171-13.827C144.539 19.627 136.471 18 128.268 18"/><path fill="#000" d="M129.209 195.03h-1.882a11.4 11.4 0 0 1-4.169-.813c-1.345-.542-2.42-1.356-3.496-2.304a10.6 10.6 0 0 1-2.286-3.525 11.1 11.1 0 0 1-.807-4.202v-81.602c-6.589 0-13.178 1.356-19.364 3.931S85.506 112.886 80.8 117.63c-4.707 4.745-8.472 10.438-10.893 16.538-2.554 6.235-3.9 12.877-3.9 19.519v20.739c-.134 8.269 1.48 16.538 4.573 24.264 3.093 7.727 7.665 14.775 13.447 20.604 5.782 5.964 12.64 10.573 20.171 13.826s15.733 4.88 23.936 4.88 16.405-1.627 23.935-4.88c7.531-3.253 14.523-7.862 20.171-13.826 5.782-5.964 10.354-12.877 13.447-20.604s4.572-15.995 4.572-24.264v-20.739h-50.426v30.499a11.1 11.1 0 0 1-.807 4.202 10.6 10.6 0 0 1-2.286 3.525 10.5 10.5 0 0 1-3.497 2.304q-1.815.813-4.034.813"/></svg>