<svg xmlns="http://www.w3.org/2000/svg" fill="none" viewBox="0 0 257 256"><path fill="#000" d="m119.399 166.008-63.348 14.679c-2.31.579-4.043 2.897-4.043 5.214v43.65c0 3.67 2.888 5.987 6.546 5.214l88.378-20.472c3.659-.773 5.2-4.249 3.659-7.533l-15.981-33.026c-2.503-5.215 0-10.623 5.583-11.782l57.764-13.906c4.044-.965 7.51-5.214 7.51-9.464V98.217c0-3.67-2.889-6.18-6.547-5.215l-83.372 19.894c-5.199 1.158-7.51 6.18-5.199 11.008l14.633 30.323c2.503 5.215 0 10.429-5.583 11.781"/><path fill="#000" d="m77.841 56.94 16.58 34.013c2.121 4.445 0 9.083-4.82 10.05l-30.653 7.15c-3.856.966-6.94 4.831-6.94 8.697v36.526c0 6.184 5.012 10.049 10.989 8.696l28.533-6.57c3.855-.773 6.94-4.832 6.94-8.697l.192-37.492c0-5.218 4.242-10.437 9.254-11.596l93.502-22.418c2.314-.58 4.049-2.899 4.049-5.218V26.404c0-3.671-2.892-6.184-6.555-5.218L81.504 49.403c-3.663.773-5.205 4.252-3.663 7.538"/></svg>