<svg xmlns="http://www.w3.org/2000/svg" fill="none" viewBox="0 0 256 256"><path fill="#000" d="M207.998 118a10.003 10.003 0 0 0-10 10v60a10 10 0 0 1-9.999 10h-120a10 10 0 0 1-10-10V68a10 10 0 0 1 10-10h60a10 10 0 1 0 0-20h-60A30 30 0 0 0 38 68v120a30 30 0 0 0 30 30h119.999a30.003 30.003 0 0 0 29.999-30v-60a9.997 9.997 0 0 0-10-10"/><path fill="#000" d="M168 58h15.8l-62.899 62.8a9.997 9.997 0 0 0 0 14.2 9.997 9.997 0 0 0 14.2 0L198 72.2V88a10.002 10.002 0 0 0 17.071 7.071A10 10 0 0 0 218 88V48a10 10 0 0 0-10-10h-40a9.997 9.997 0 0 0-9.999 10A9.997 9.997 0 0 0 168 58"/></svg>