<svg xmlns="http://www.w3.org/2000/svg" fill="none" viewBox="0 0 256 256"><path fill="#000" d="M232.27 225.259c7.643-7.649 7.639-20.043-.006-27.688l-41.975-41.968a81.7 81.7 0 0 0 11.937-42.453c0-45.383-36.752-82.134-82.105-82.15C74.768 31 38 67.759 38 113.126c0 45.352 36.76 82.087 82.121 82.087 15.564 0 30.078-4.402 42.47-11.921l41.981 41.974c7.65 7.648 20.052 7.645 27.698-.007M69.316 113.134a50.88 50.88 0 0 1 50.797-50.803 50.86 50.86 0 0 1 50.789 50.795 50.866 50.866 0 0 1-50.781 50.788 50.884 50.884 0 0 1-50.79-50.796z"/></svg>
