<svg width="256" height="256" viewBox="0 0 256 256" fill="none" xmlns="http://www.w3.org/2000/svg">
<path d="M241.927 39.8886C241.302 39.2758 240.508 38.9605 239.699 39.004C237.478 39.004 234.608 40.7947 233.063 41.7542L232.452 42.1281C229.862 43.6204 227.041 44.4641 224.165 44.607C221.226 44.7174 218.291 44.9597 215.368 45.3335C195.764 47.729 187.018 65.6001 178.596 82.8793C174.011 92.2796 169.274 102.045 162.78 109.505C161.437 111.055 160.013 112.494 158.507 113.822C151.787 119.763 143.351 124.004 136.787 127.007C130.465 129.881 123.563 132.462 116.902 134.96C110.793 137.247 105.027 139.409 99.7243 141.752C97.6663 142.652 95.5945 143.51 93.5089 144.327C88.6789 146.19 85.1966 147.617 80.1078 151.784C78.2836 153.258 76.5076 154.814 74.7837 156.449C70.7448 160.283 67.1696 164.761 64.1588 169.756C61.5701 174.364 58.5791 178.634 55.2355 182.494C54.161 183.742 52.2545 184.358 49.3993 184.358C46.0571 184.358 42.0051 183.537 37.7178 182.669C33.2939 181.74 28.7226 180.853 24.8019 180.853C21.6196 180.853 19.1777 181.473 17.361 182.719C17.361 182.719 14.292 184.845 13 187.595L14.2704 188.279C16.2402 189.548 18.0641 191.115 19.6969 192.939C21.4003 194.809 23.2969 196.413 25.3409 197.713C25.9968 198 26.5898 198.448 27.0839 199.03C26.552 199.961 25.765 201.164 24.9402 202.449C20.4175 209.492 17.7761 213.939 19.2891 216.362C20.015 216.811 20.8254 217.029 21.643 216.997C31.5078 216.997 36.8086 213.95 43.5109 210.088C45.4551 208.973 47.4317 207.823 49.7838 206.637C53.7046 204.616 57.9254 201.389 62.4014 197.974C68.2593 193.435 74.383 188.772 80.3271 186.524C85.2114 184.753 90.299 183.903 95.4046 184.005C101.679 184.005 108.283 185.001 114.649 185.971C119.395 186.702 124.311 187.445 129.132 187.792C130.894 187.919 132.66 187.985 134.426 187.988C136.681 187.997 138.934 187.857 141.176 187.569L141.715 187.345C145.099 184.87 146.684 179.567 148.217 174.438C149.207 171.134 150.039 168.17 151.356 166.288C151.434 166.197 151.517 166.113 151.607 166.038C151.669 165.997 151.74 165.982 151.809 165.996C151.879 166.009 151.942 166.049 151.99 166.11V166.26C151.208 186.319 144.416 199.057 137.547 210.379L132.961 216.225C132.961 216.225 139.381 216.225 143.036 214.546C156.369 209.808 166.428 199.365 173.75 182.708C175.555 178.431 177.171 174.044 178.589 169.566C178.715 169.198 179.868 168.506 179.757 170.435C179.719 171.006 179.685 171.639 179.647 172.303C179.647 172.692 179.647 173.094 179.585 173.496C179.398 176.295 178.841 182.206 178.841 182.206L182.956 179.584C192.883 172.126 200.536 157.075 206.342 133.659C208.757 123.902 210.529 114.213 212.086 105.68C213.953 95.4209 215.563 86.6296 217.405 83.2169C220.298 77.8618 224.713 74.2418 228.986 70.7287C229.566 70.2543 230.154 69.7949 230.729 69.2906C236.098 64.8073 241.438 59.6317 242.617 49.9792V49.7655C243.469 42.5641 242.748 40.7285 241.927 39.8886Z" fill="black"/>
</svg>
