<svg xmlns="http://www.w3.org/2000/svg" fill="none" viewBox="0 0 256 256"><path fill="#000" fill-rule="evenodd" d="M131.913 228s83.597-33.317 83.597-103.272V57.195C189.769 42.447 147.256 28 128.243 28 109.229 28 65.839 42.056 40 57.195v67.533C40 194.683 123.59 228 123.59 228l-5.585-36.298h19.501zm-48.647-59.966h33.431l11.144-10.201 11.144 10.201h33.431l15.499-34.536-26.643 18.262h-11.144l-17.536-11.184h-9.511l-17.528 11.184H94.409l-26.643-18.262zm56.315-60.824s11.827-15.292 29.566-15.292c17.74 0 29.566 10.976 29.566 10.976zM86.363 91.918c-17.74 0-29.566 10.976-29.566 10.976l59.132 4.316s-11.827-15.292-29.566-15.292" clip-rule="evenodd"/></svg>