<svg width="256" height="256" viewBox="0 0 256 256" fill="none" xmlns="http://www.w3.org/2000/svg">
<path d="M213.231 62.4645L142.769 21.9098C133.615 16.6967 122.385 16.6967 113.231 21.9098L42.7692 62.4645C33.6154 67.6775 28 77.4138 28 87.9167V169.026C28 179.529 33.6154 189.265 42.7692 194.478L113.231 235.033C122.385 240.322 133.615 240.322 142.769 235.033L213.231 194.478C222.385 189.188 228 179.529 228 169.026V87.9167C228 77.4138 222.385 67.6775 213.231 62.4645ZM60.8462 177.995C57.8462 177.995 54.9231 176.998 52.4615 174.929C47.1538 170.329 46.5385 162.279 51.1538 156.99L118.385 79.6367C123 74.3473 131.077 73.7339 136.385 78.3339C141.692 82.9334 142.308 90.9832 137.692 96.2726L70.4616 173.626C67.9231 176.539 64.3846 177.995 60.8462 177.995ZM203.615 174.929C201.231 176.998 198.231 177.995 195.308 177.995C192.385 177.995 188.154 176.462 185.615 173.549L153.462 136.061L121.231 173.549C118.692 176.462 115.154 177.995 111.538 177.995C107.923 177.995 105.692 176.998 103.231 174.929C97.8459 170.329 97.2308 162.356 101.846 156.99L143.462 108.539C143.538 108.386 143.692 108.309 143.769 108.155C144 107.849 144.308 107.542 144.615 107.312C144.666 107.312 144.718 107.261 144.769 107.159C145.077 106.852 145.385 106.622 145.769 106.316H145.846C146 106.162 146.231 106.086 146.385 105.932C146.538 105.779 146.769 105.702 147 105.549H147.077C147.692 105.243 148.231 104.936 148.846 104.706C149.077 104.706 149.231 104.553 149.462 104.476C149.615 104.476 149.769 104.476 149.923 104.322C150.231 104.322 150.462 104.169 150.769 104.092C151 104.092 151.231 104.092 151.462 103.939C151.615 103.939 151.846 103.939 152.077 103.939H154.923C155.077 103.939 155.308 103.939 155.538 103.939C155.769 103.939 156 103.939 156.231 104.092C156.462 104.092 156.615 104.092 156.846 104.246C156.923 104.246 157 104.246 157.154 104.246C157.308 104.246 157.462 104.246 157.538 104.399C157.692 104.399 157.923 104.553 158.077 104.553C158.231 104.553 158.154 104.553 158.231 104.553C158.385 104.553 158.615 104.706 158.769 104.782C159.615 105.165 160.462 105.626 161.231 106.239C161.385 106.392 161.538 106.469 161.692 106.622C161.846 106.776 162.077 106.929 162.231 107.082C162.385 107.235 162.538 107.389 162.769 107.619C162.923 107.772 163.077 108.002 163.231 108.155C163.282 108.155 163.334 108.207 163.385 108.309L205.154 156.913C209.615 162.279 209 170.329 203.615 174.852V174.929Z" fill="black"/>
</svg>
