<svg width="256" height="256" viewBox="0 0 256 256" fill="none" xmlns="http://www.w3.org/2000/svg">
<path d="M71.4488 30C61.2375 36.1357 52.1113 43.8667 44.4988 52.8774L56.1625 65.7011C64.7117 55.0006 75.5595 46.3689 87.8987 40.4482L71.4488 30ZM185.444 30.7451L168.022 40.5622C180.961 46.8044 192.241 56.0256 200.94 67.4717L211.265 52.9739C203.882 44.2499 195.162 36.748 185.444 30.7451ZM128.009 37.3366C115.524 37.3277 103.188 40.0499 91.8625 45.313L97.025 54.1747C106.754 49.7442 117.322 47.4661 128.009 47.4955C139.043 47.4955 149.507 49.8972 158.931 54.1572L164.094 45.2867C152.785 40.0414 140.471 37.3284 128.009 37.3366ZM122.75 54.2974L117.938 112.376H117.964L117.946 112.727C117.97 113.697 118.066 114.626 118.235 115.514C118.322 116.502 118.605 117.501 119.084 118.512C120.081 121.045 121.691 122.938 123.599 123.833C124.048 124.171 124.509 124.496 124.981 124.805L125.27 124.981V125.016L183.72 156.536L186.765 152.364L133.757 112.043C133.699 112.032 133.658 112.008 133.635 111.973L128 54.2974H122.75ZM135.201 54.7532C136.864 56.8043 138.36 59.3375 139.594 62.2475C167.2 67.5418 188.069 91.3922 188.069 120.063C188.069 127.751 186.529 135.07 183.834 141.801C185.621 143.823 187.15 146.061 188.384 148.463C192.735 139.631 194.993 129.912 194.981 120.063C194.981 86.1593 168.819 58.2681 135.201 54.762V54.7532ZM115.216 55.5859C84.355 61.4324 61.0537 88.0876 61.0537 120.063C61.0537 142.713 72.735 162.689 90.515 174.496C91.2884 172.291 92.1495 170.119 93.0962 167.983C77.8712 157.298 67.9488 139.812 67.9488 120.063C67.9488 93.2942 86.1663 70.6973 111.104 63.5273C112.102 60.7025 113.486 58.03 115.216 55.5859ZM195.279 70.2678L188.27 78.0952C197.108 90.2595 201.86 104.922 201.841 119.967C201.841 145.527 188.349 168.01 167.961 180.903C168.871 184.31 169.603 187.843 170.158 191.501C195.27 177.196 212.175 150.505 212.175 119.976C212.224 101.988 206.281 84.4987 195.288 70.2766L195.279 70.2678ZM60.7038 70.3291C49.7373 84.549 43.7971 102.015 43.8162 119.985C43.8162 150.724 60.9137 177.546 86.3237 191.772C86.8662 188.097 87.5896 184.573 88.4938 181.201C67.8438 168.334 54.1675 145.746 54.1675 119.985C54.1675 104.409 59.1813 89.9897 67.7213 78.1566L60.7038 70.3291ZM142.201 70.7061C142.586 72.4825 142.898 74.3524 143.137 76.3158C149.348 78.3592 155.059 81.6875 159.903 86.0847C164.746 90.4819 168.612 95.8498 171.251 101.84L176.3 100.543C173.231 93.3154 168.569 86.8769 162.664 81.7097C156.759 76.5426 149.763 72.7808 142.201 70.7061ZM108.811 72.3452C102.35 74.8437 96.4531 78.6104 91.466 83.4242C86.4788 88.238 82.5022 94.0016 79.77 100.377L84.845 101.674C89.474 91.2431 97.7616 82.8755 108.137 78.1566C108.272 76.1581 108.496 74.2209 108.811 72.3452ZM81.9137 108.09L76.4887 113.612L79.245 118.994L94.3562 124.411L102.599 118.994L99.8687 110.904L81.9137 108.09ZM174.795 108.09L156.875 110.904L154.119 118.994L162.361 124.411L177.499 118.994L180.255 113.612L174.795 108.09ZM76.375 127.347C77.3772 134.01 79.6872 140.408 83.1714 146.172C86.6557 151.935 91.2452 156.95 96.675 160.927C97.55 159.431 98.4687 157.991 99.4312 156.606C89.9434 149.514 83.5552 139.026 81.5988 127.33L76.375 127.347ZM174.427 127.347C174.159 128.919 173.815 130.465 173.395 131.984C174.912 133.182 176.35 134.38 177.709 135.578C178.557 132.931 179.231 130.17 179.634 127.339L174.427 127.347ZM37.2362 129.249L23 147.411C31.4525 179.501 54.8325 205.7 85.405 218.507C85.0867 215.505 84.9406 212.488 84.9675 209.47C84.9675 206.174 85.1133 202.928 85.405 199.731C58.945 186.031 40.2025 159.902 37.2362 129.249ZM218.422 129.732C215.342 159.972 196.862 185.777 170.814 199.477C171.1 202.767 171.254 206.086 171.277 209.434C171.277 212.73 171.132 215.667 170.84 218.244C201.517 205.201 224.871 178.607 233 146.167L218.422 129.732ZM161.162 152.67C159.825 153.988 158.405 155.217 156.91 156.352C157.884 157.737 158.812 159.177 159.692 160.673C162.02 158.92 164.178 156.992 166.167 154.888C164.479 154.196 162.81 153.457 161.162 152.67ZM174.305 157.57C171.084 161.381 167.411 164.784 163.367 167.703C164.295 169.771 165.179 171.954 165.94 174.198C172.186 169.968 177.678 164.717 182.189 158.666C179.528 158.635 176.873 158.267 174.305 157.57ZM148.16 163.092L128.009 171.095L107.823 163.119L102.686 175.697L124.106 183.989C122.934 188.021 119.136 190.983 114.656 190.983C114.353 190.978 114.05 190.957 113.746 190.922L109.371 196.935C111.028 197.49 112.778 197.771 114.621 197.777C117.184 197.786 119.715 197.208 122.02 196.087C124.325 194.965 126.344 193.331 127.921 191.308C130.115 194.129 133.15 196.177 136.585 197.155C140.019 198.132 143.675 197.987 147.022 196.742L142.735 190.87C140.352 191.26 137.91 190.756 135.875 189.454C133.84 188.152 132.357 186.144 131.71 183.813L153.323 175.697L148.16 163.092ZM158.275 204.947C148.738 208.251 138.535 210.03 127.86 210.03C117.623 210.03 107.823 208.4 98.635 205.35C100.656 213.063 103.798 219.848 107.823 225.177C121.515 227.69 135.558 227.604 149.219 224.923C153.183 219.576 156.28 212.748 158.275 204.947Z" fill="black"/>
</svg>
