<svg xmlns="http://www.w3.org/2000/svg" fill="none" viewBox="0 0 256 256"><path fill="#000" d="M106.766 150.267c4.441 4.441 4.441 11.642 0 16.083l-28.351 28.351h19.998c6.281 0 11.372 5.092 11.372 11.373v1.516c0 6.281-5.091 11.373-11.372 11.373h-50.04c-6.281 0-11.373-5.092-11.373-11.373v-50.04c0-6.281 5.092-11.373 11.373-11.373h1.516c6.281 0 11.373 5.092 11.373 11.373v19.998l28.35-28.351c4.442-4.441 11.643-4.441 16.084 0zM218.963 48.373c0-6.281-5.092-11.373-11.373-11.373h-50.04c-6.281 0-11.373 5.092-11.373 11.373v1.516c0 6.281 5.092 11.373 11.373 11.373h19.998l-28.351 28.35c-4.441 4.442-4.441 11.643 0 16.084l1.07 1.07c4.441 4.441 11.642 4.441 16.083 0l28.351-28.351v19.998c0 6.281 5.092 11.372 11.373 11.372h1.516c6.281 0 11.373-5.091 11.373-11.372zm-24.262 129.175-28.351-28.351c-4.441-4.441-11.642-4.441-16.083 0l-1.07 1.07c-4.441 4.441-4.441 11.642 0 16.083l28.351 28.351H157.55c-6.281 0-11.373 5.092-11.373 11.373v1.516c0 6.281 5.092 11.373 11.373 11.373h50.04c6.281 0 11.373-5.092 11.373-11.373v-50.04c0-6.281-5.092-11.373-11.373-11.373h-1.516c-6.281 0-11.373 5.092-11.373 11.373zM109.785 48.373c0-6.281-5.091-11.373-11.372-11.373h-50.04C42.092 37 37 42.092 37 48.373v50.04c0 6.281 5.092 11.372 11.373 11.372h1.516c6.281 0 11.373-5.091 11.373-11.372V78.415l28.35 28.351c4.442 4.441 11.643 4.441 16.084 0l1.07-1.07c4.441-4.441 4.441-11.642 0-16.083L78.415 61.262h19.998c6.281 0 11.372-5.092 11.372-11.373z"/></svg>