<svg xmlns="http://www.w3.org/2000/svg" fill="none" viewBox="0 0 256 256"><path fill="#000" d="M212 37c0-5.523-4.477-10-10-10H54c-5.523 0-10 4.477-10 10v13.162a5 5 0 0 0 2.42 4.282l58.585 35.293a73.53 73.53 0 0 0-42.628 36.694 73.45 73.45 0 0 0-4.202 56.067 73.4 73.4 0 0 0 14.103 24.968 73.46 73.46 0 0 0 50.242 25.332 73.5 73.5 0 0 0 28.475-3.499 73.5 73.5 0 0 0 36.586-26.707 73.43 73.43 0 0 0 13.964-43.074 73.43 73.43 0 0 0-13.964-43.074 73.5 73.5 0 0 0-36.586-26.707l58.585-35.293a5 5 0 0 0 2.42-4.282zm-55.786 155.301c1.002 4.276-3.6 7.674-7.392 5.458l-15.775-9.223a10 10 0 0 0-10.094 0l-15.775 9.223c-3.792 2.216-8.394-1.182-7.392-5.458l4.15-17.708a10 10 0 0 0-3.21-9.859l-13.683-11.783c-3.357-2.891-1.574-8.397 2.84-8.771l18.056-1.53a10 10 0 0 0 8.352-6.037l7.111-16.651c1.729-4.049 7.467-4.049 9.196 0l7.111 16.652a10 10 0 0 0 8.35 6.037l17.992 1.529c4.409.375 6.194 5.871 2.846 8.765l-13.639 11.789a10 10 0 0 0-3.197 9.847z"/></svg>