<svg xmlns="http://www.w3.org/2000/svg" fill="none" viewBox="0 0 256 256"><path fill="#000" d="M80.637 71C47.148 71 20 98.336 20 132.053s27.15 61.052 60.637 61.052c33.486 0 60.636-27.333 60.636-61.052S114.127 71 80.637 71m96.834 3.576c-16.745 0-30.317 25.74-30.317 57.478s13.574 57.479 30.319 57.479 30.318-25.74 30.318-57.479h-.002c0-31.747-13.572-57.478-30.318-57.478m46.865 5.987c-5.888 0-10.661 23.055-10.661 51.491 0 28.435 4.77 51.49 10.661 51.49S235 160.483 235 132.053c0-28.437-4.775-51.49-10.663-51.49z"/></svg>