<svg width="256" height="256" viewBox="0 0 256 256" fill="none" xmlns="http://www.w3.org/2000/svg">
<path d="M94.5645 33C40.6965 33 33 40.7009 33 94.6194V161.381C33 215.299 40.695 223 94.557 223H161.443C215.305 223 223 215.299 223 161.381V94.6194C223 40.7009 215.311 33 161.447 33H94.5645ZM154.989 68.8224H182.018C191.359 128.012 186.471 183.431 186.471 183.431H157.279C160.051 168.653 170.018 101.148 161.726 100.922C157.284 101.629 136.985 158.198 136.985 158.198C136.985 158.198 132.514 157.634 128.015 157.634C123.52 157.634 119.049 158.198 119.049 158.198C119.049 158.198 98.7504 101.629 94.3091 100.922C86.0174 101.148 95.985 168.653 98.7623 183.433H69.5646C69.5646 183.433 64.681 128.018 74.0177 68.8284H101.053C106.195 68.8862 125.77 103.211 128.021 103.211C130.271 103.211 149.846 68.8862 154.989 68.8224ZM115.352 169.614C117.184 169.614 118.941 170.342 120.237 171.638C121.533 172.934 122.261 174.691 122.261 176.523C122.261 178.356 121.533 180.113 120.237 181.409C118.941 182.705 117.184 183.433 115.352 183.433C113.519 183.433 111.762 182.705 110.466 181.409C109.171 180.113 108.443 178.356 108.443 176.523C108.443 174.691 109.171 172.934 110.466 171.638C111.762 170.342 113.519 169.614 115.352 169.614ZM140.69 169.614C141.597 169.614 142.496 169.793 143.334 170.14C144.173 170.487 144.934 170.996 145.576 171.638C146.217 172.28 146.726 173.042 147.072 173.881C147.419 174.72 147.596 175.618 147.595 176.526H147.589C147.589 178.356 146.862 180.112 145.568 181.406C144.273 182.701 142.518 183.428 140.687 183.428C138.856 183.428 137.101 182.701 135.806 181.406C134.512 180.112 133.785 178.356 133.785 176.526C133.783 175.618 133.961 174.72 134.308 173.881C134.654 173.042 135.163 172.28 135.804 171.638C136.446 170.996 137.207 170.487 138.046 170.14C138.884 169.793 139.782 169.614 140.69 169.614Z" fill="black"/>
</svg>
