<svg width="256" height="256" viewBox="0 0 256 256" fill="none" xmlns="http://www.w3.org/2000/svg">
<path d="M84.9562 180.795C80.6016 176.937 74.0185 176.148 69.494 179.805C64.9694 183.462 64.2263 190.156 68.4167 194.191C96.0408 220.794 138.564 225.249 171.161 205.05L184.861 222L201.245 208.757L187.546 191.808C214.133 164.171 218.702 121.666 198.479 89.0706C195.412 84.1271 188.712 83.4498 184.187 87.1066C179.663 90.7635 179.053 97.3656 181.912 102.433C196.798 128.819 190.898 162.945 166.568 182.61C142.238 202.274 107.634 200.884 84.9562 180.795Z" fill="black"/>
<path d="M94.0712 159.941C108.678 178.013 135.253 180.832 153.326 166.225C171.398 151.618 174.217 125.043 159.61 106.971L143.226 120.213L129.983 103.829L146.368 90.5861L133.125 74.2015L116.741 87.4441L103.498 71.0596L119.883 57.8169C105.204 39.6547 78.6355 36.6948 60.6614 51.222C60.0876 51.6915 59.5687 52.2245 59.1147 52.8107C51.0328 60.0169 46.0303 70.0542 45.1422 80.8458C44.2542 91.6373 47.5486 102.357 54.3438 110.788L87.1133 84.3022L100.356 100.687L67.5862 127.172L80.8287 143.557L113.598 117.071L126.841 133.456L94.0712 159.941Z" fill="black"/>
</svg>
