<svg xmlns="http://www.w3.org/2000/svg" fill="none" viewBox="0 0 256 256"><path fill="#000" d="M84.956 180.795c-4.354-3.858-10.937-4.647-15.462-.99s-5.268 10.351-1.077 14.386c27.624 26.603 70.147 31.058 102.744 10.859l13.7 16.95 16.384-13.243-13.699-16.949c26.587-27.637 31.156-70.142 10.933-102.737-3.067-4.944-9.767-5.621-14.292-1.964-4.524 3.656-5.134 10.259-2.275 15.326 14.886 26.386 8.986 60.512-15.344 80.177-24.33 19.664-58.934 18.274-81.612-1.815"/><path fill="#000" d="M94.071 159.941c14.607 18.072 41.182 20.891 59.255 6.284 18.072-14.607 20.891-41.182 6.284-59.254l-16.384 13.242-13.243-16.384 16.385-13.243-13.243-16.385-16.384 13.243-13.243-16.384 16.385-13.243c-14.679-18.162-41.247-21.122-59.222-6.595a9.8 9.8 0 0 0-1.546 1.589 42.2 42.2 0 0 0-4.771 57.977l32.77-26.486 13.242 16.385-32.77 26.485 13.243 16.385 32.769-26.486 13.243 16.385z"/></svg>