<svg xmlns="http://www.w3.org/2000/svg" fill="none" viewBox="0 0 256 256"><path fill="#000" d="M45.332 211.214c-4.44-4.441-4.44-11.64 0-16.081l26.078-26.078H53.373c-6.281 0-11.373-5.091-11.373-11.372s5.092-11.373 11.373-11.373h45.49c6.282 0 11.373 5.092 11.373 11.373v45.491c0 6.281-5.091 11.372-11.372 11.372s-11.373-5.091-11.373-11.372v-18.038l-26.078 26.078c-4.44 4.441-11.64 4.441-16.08 0M146.31 98.864c0 6.281 5.092 11.372 11.373 11.372h45.491c6.281 0 11.372-5.091 11.372-11.372s-5.091-11.373-11.372-11.373h-18.038l26.078-26.078c4.441-4.44 4.441-11.64 0-16.08-4.441-4.441-11.64-4.441-16.081 0L169.055 71.41V53.373c0-6.281-5.091-11.373-11.372-11.373s-11.373 5.092-11.373 11.373zm22.745 86.272 26.078 26.078c4.441 4.441 11.64 4.441 16.081 0s4.441-11.64 0-16.081l-26.078-26.078h18.038c6.281 0 11.372-5.091 11.372-11.372s-5.091-11.373-11.372-11.373h-45.491c-6.281 0-11.373 5.092-11.373 11.373v45.491c0 6.281 5.092 11.372 11.373 11.372s11.372-5.091 11.372-11.372zM42 98.864c0 6.281 5.092 11.372 11.373 11.372h45.49c6.282 0 11.373-5.091 11.373-11.372V53.373c0-6.281-5.091-11.373-11.372-11.373S87.49 47.092 87.49 53.373V71.41L61.413 45.332c-4.44-4.44-11.64-4.44-16.08 0-4.441 4.44-4.441 11.64 0 16.081L71.41 87.491H53.373C47.092 87.49 42 92.583 42 98.864"/></svg>