<svg width="256" height="256" viewBox="0 0 256 256" fill="none" xmlns="http://www.w3.org/2000/svg">
<path d="M148.404 38.6351C138.787 27.1821 130.505 15.5501 128.813 13.1342C128.635 12.9553 128.368 12.9553 128.189 13.1342C126.497 15.5501 118.216 27.1821 108.598 38.6351C26.0459 144.307 121.6 215.62 121.6 215.62L122.401 216.157C123.113 227.162 124.894 243 124.894 243H128.457H132.019C132.019 243 133.8 227.252 134.512 216.157L135.314 215.531C135.403 215.62 230.957 144.307 148.404 38.6351ZM128.457 214.009C128.457 214.009 124.182 210.341 123.024 208.462V208.283L128.189 93.2159C128.189 92.858 128.724 92.858 128.724 93.2159L133.889 208.283V208.462C132.731 210.341 128.457 214.009 128.457 214.009Z" fill="black"/>
</svg>
