<svg width="256" height="256" viewBox="0 0 256 256" fill="none" xmlns="http://www.w3.org/2000/svg">
<path d="M218.794 68C213.426 68.0043 208.212 69.7887 203.968 73.0736C199.724 76.3584 196.691 80.958 195.344 86.1512H167.582C161.852 86.1501 156.308 88.1805 151.935 91.8812C147.562 95.5819 144.644 100.713 143.701 106.362L142.714 112.339C142.247 115.166 140.79 117.734 138.602 119.586C136.415 121.437 133.639 122.45 130.773 122.444H121.18C119.837 117.25 116.805 112.65 112.561 109.366C108.317 106.082 103.102 104.3 97.7354 104.3C92.3684 104.3 87.1535 106.082 82.9098 109.366C78.6662 112.65 75.6343 117.25 74.2904 122.444H60.6633C59.1892 116.74 55.6846 111.769 50.8062 108.463C45.9279 105.157 40.0107 103.743 34.1638 104.486C28.3169 105.228 22.9417 108.077 19.0456 112.497C15.1495 116.918 13 122.607 13 128.498C13 134.389 15.1495 140.078 19.0456 144.498C22.9417 148.918 28.3169 151.767 34.1638 152.509C40.0107 153.252 45.9279 151.838 50.8062 148.532C55.6846 145.226 59.1892 140.255 60.6633 134.551H74.2904C75.631 139.749 78.6621 144.354 82.907 147.642C87.152 150.93 92.3699 152.714 97.7402 152.714C103.11 152.714 108.328 150.93 112.573 147.642C116.818 144.354 119.849 139.749 121.19 134.551H130.773C133.641 134.543 136.419 135.555 138.608 137.406C140.798 139.258 142.257 141.828 142.723 144.656L143.71 150.624C144.652 156.274 147.569 161.408 151.942 165.11C156.315 168.813 161.86 170.845 167.591 170.844H171.137C172.61 176.549 176.114 181.52 180.992 184.827C185.87 188.134 191.788 189.549 197.635 188.807C203.483 188.065 208.858 185.217 212.755 180.796C216.652 176.376 218.801 170.687 218.801 164.795C218.801 158.904 216.652 153.214 212.755 148.794C208.858 144.373 203.483 141.525 197.635 140.783C191.788 140.041 185.87 141.456 180.992 144.763C176.114 148.07 172.61 153.042 171.137 158.746H167.591C164.723 158.752 161.947 157.738 159.759 155.885C157.571 154.031 156.115 151.46 155.651 148.632L154.664 142.664C153.75 137.176 150.967 132.171 146.786 128.498C150.962 124.819 153.738 119.811 154.644 114.321L155.641 108.364C156.105 105.535 157.562 102.964 159.75 101.111C161.937 99.2573 164.714 98.2428 167.582 98.2488H195.334C196.465 102.633 198.804 106.612 202.084 109.734C205.364 112.856 209.455 114.996 213.891 115.91C218.327 116.825 222.931 116.478 227.18 114.908C231.429 113.338 235.152 110.609 237.926 107.03C240.7 103.451 242.415 99.1667 242.875 94.6627C243.335 90.1587 242.522 85.616 240.528 81.5508C238.534 77.4855 235.44 74.0607 231.596 71.6653C227.752 69.27 223.314 68.0001 218.784 68M218.784 80.0976C221.994 80.0976 225.073 81.3722 227.342 83.6409C229.612 85.9096 230.887 88.9867 230.887 92.1952C230.889 93.7847 230.577 95.3588 229.969 96.8277C229.361 98.2965 228.47 99.6313 227.346 100.756C226.222 101.88 224.887 102.772 223.418 103.381C221.949 103.989 220.374 104.302 218.784 104.302C217.194 104.302 215.619 103.989 214.15 103.381C212.681 102.772 211.346 101.88 210.222 100.756C209.098 99.6313 208.207 98.2965 207.599 96.8277C206.991 95.3588 206.679 93.7847 206.681 92.1952C206.681 90.6057 206.994 89.0318 207.603 87.5634C208.212 86.0951 209.104 84.761 210.229 83.6375C211.354 82.514 212.689 81.6231 214.159 81.0157C215.628 80.4083 217.203 80.0963 218.794 80.0976M37.2135 116.4C38.8037 116.399 40.3786 116.711 41.8482 117.318C43.3178 117.926 44.6532 118.816 45.7781 119.94C46.903 121.063 47.7954 122.397 48.4043 123.866C49.0131 125.334 49.3265 126.908 49.3265 128.498C49.3265 130.087 49.0131 131.661 48.4043 133.129C47.7954 134.598 46.903 135.932 45.7781 137.055C44.6532 138.179 43.3178 139.07 41.8482 139.677C40.3786 140.284 38.8037 140.596 37.2135 140.595C34.0035 140.595 30.9249 139.321 28.6551 137.052C26.3852 134.783 25.1101 131.706 25.1101 128.498C25.1101 125.289 26.3852 122.212 28.6551 119.943C30.9249 117.675 34.0035 116.4 37.2135 116.4ZM97.7402 116.4C99.3296 116.4 100.904 116.713 102.372 117.321C103.84 117.929 105.175 118.82 106.299 119.943C107.423 121.067 108.314 122.4 108.922 123.868C109.531 125.336 109.844 126.909 109.844 128.498C109.844 131.706 108.568 134.783 106.299 137.052C104.029 139.321 100.95 140.595 97.7402 140.595C94.5318 140.593 91.4557 139.317 89.188 137.048C86.9202 134.78 85.6464 131.704 85.6464 128.498C85.6464 125.289 86.9215 122.212 89.1914 119.943C91.4612 117.675 94.5397 116.4 97.7498 116.4M194.596 152.702C197.806 152.702 200.885 153.977 203.155 156.246C205.425 158.514 206.7 161.591 206.7 164.8C206.7 168.008 205.425 171.085 203.155 173.354C200.885 175.623 197.806 176.898 194.596 176.898C193.006 176.899 191.431 176.587 189.962 175.979C188.492 175.372 187.157 174.481 186.032 173.358C184.907 172.234 184.014 170.9 183.406 169.432C182.797 167.963 182.483 166.389 182.483 164.8C182.482 163.21 182.794 161.636 183.402 160.167C184.01 158.699 184.901 157.364 186.025 156.239C187.149 155.115 188.484 154.223 189.953 153.615C191.422 153.006 192.996 152.693 194.587 152.693" fill="black"/>
</svg>
