<svg xmlns="http://www.w3.org/2000/svg" fill="none" viewBox="0 0 256 256"><path fill="#000" d="M42.06 24.357c-3.759 1.162-10.572 5.501-13.366 8.513-9.085 9.793-10.271 25.742-2.774 37.304 2.521 3.89 9.185 9.521 13.23 11.183 7.985 3.28 17.57 3.114 24.728-.43l3.98-1.97 26.392 21.328-1.06 2.77c-1.538 4.019-2.53 11.866-2.051 16.235.538 4.918 2.48 10.795 5.029 15.213l2.035 3.529-28.7 36.957-4.073-.868c-8.805-1.875-15.615-.727-23.124 3.898-11.04 6.801-16.546 20.661-13.203 33.239 4.876 18.343 25.147 27.891 42.24 19.896 13.04-6.102 20.251-20.894 16.765-34.398-.642-2.486-1.817-5.648-2.612-7.028l-1.445-2.507 29.019-37.324 2.552.96c1.403.528 3.637 1.187 4.963 1.465l2.412.505.915 8.582c-4.881 3.64-7.769 9.69-7.077 16.183 1.043 9.785 9.821 16.871 19.607 15.828s16.872-9.821 15.828-19.606c-.664-6.231-4.466-11.369-9.667-14.008l-.939-8.81 9.212-4.998 26.011 20.99-.858 4.393c-1.258 6.438-1.149 10.089.451 15.051 1.977 6.136 4.843 10.483 9.649 14.634 15.813 13.661 40.611 7.134 47.879-12.603 3.441-9.346 2.411-18.706-2.988-27.126-8.375-13.065-26.433-17.787-39.415-10.307l-2.47 1.423-26.372-21.311 1.227-3.663c1.532-4.577 2.241-11.195 1.728-16.14-.453-4.37-3.077-11.833-5.427-15.435l-1.62-2.483 13.508-16.771 3.313.528c10.683 1.702 22.96-6.342 25.653-16.81 2.618-10.178-.805-19.91-9.118-25.921-10.479-7.577-25.456-4.804-33.201 6.147-3.962 5.603-5.097 14.66-2.633 21.004l1.215 3.128-13.547 16.739-2.769-1.06c-4.118-1.576-11.897-2.524-16.601-2.022-4.706.502-12.109 3.068-15.804 5.478l-2.485 1.62L79.73 64.133l.884-2.756c3.392-10.58-.917-24.034-10.09-31.5-7.92-6.446-18.704-8.538-28.464-5.52"/></svg>
