<svg xmlns="http://www.w3.org/2000/svg" fill="none" viewBox="0 0 256 256"><path fill="#000" d="M214.11 131.817a28.2 28.2 0 0 0-18.485 1.423c-5.837 2.545-10.681 6.991-13.772 12.641l-29.75-7.95a29.5 29.5 0 0 0-2.562-12.333 29 29 0 0 0-7.456-10.061 28.3 28.3 0 0 0-10.941-5.889 28 28 0 0 0-12.359-.605l-14.832-33.981c4.879-3.886 8.381-9.287 9.973-15.384a29.8 29.8 0 0 0-.633-16.972c-1.855-5.47-5.259-10.256-9.783-13.754a28.4 28.4 0 0 0-15.635-5.899 28.3 28.3 0 0 0-16.217 3.944 29.06 29.06 0 0 0-11.333 12.457 29.74 29.74 0 0 0-2.629 16.773 29.5 29.5 0 0 0 6.961 15.433 28.64 28.64 0 0 0 14.205 8.893 27.9 27.9 0 0 0 11.998.507l14.824 33.979c-4.893 3.872-8.397 9.279-9.97 15.385a29.2 29.2 0 0 0 1.274 18.389l-29.287 22.192a28.2 28.2 0 0 0-10.697-5.558 28.2 28.2 0 0 0-16.66.645 28.75 28.75 0 0 0-13.502 9.966 29.6 29.6 0 0 0-5.79 15.927 29.7 29.7 0 0 0 3.872 16.521c2.866 4.995 7.121 9.013 12.229 11.545a28.25 28.25 0 0 0 16.464 2.678 28.5 28.5 0 0 0 15.15-7.091 29.35 29.35 0 0 0 8.73-14.47 29.5 29.5 0 0 0-1.278-18.39l29.287-22.192a28.3 28.3 0 0 0 11.061 5.656 28 28 0 0 0 12.372.342 28.2 28.2 0 0 0 11.346-5.038 28.9 28.9 0 0 0 8.175-9.466l29.75 7.95a29.6 29.6 0 0 0 4.315 15.454 28.87 28.87 0 0 0 11.687 10.791 28.2 28.2 0 0 0 15.52 2.86 28.4 28.4 0 0 0 14.657-5.936 29.2 29.2 0 0 0 9.356-12.935 29.7 29.7 0 0 0 1.223-16.019 29.4 29.4 0 0 0-7.279-14.254 28.56 28.56 0 0 0-13.579-8.174M72.259 48.544a14.67 14.67 0 0 1 4.365-7.235 14.24 14.24 0 0 1 7.575-3.546 14.13 14.13 0 0 1 8.232 1.34 14.47 14.47 0 0 1 6.114 5.772 14.85 14.85 0 0 1 1.936 8.26 14.8 14.8 0 0 1-2.895 7.964 14.4 14.4 0 0 1-6.75 4.983 14.1 14.1 0 0 1-8.331.322c-3.682-.988-6.828-3.423-8.749-6.771a14.88 14.88 0 0 1-1.497-11.09m-26.184 159.35a14.3 14.3 0 0 1-7.103-4.447 14.75 14.75 0 0 1-3.48-7.717 14.87 14.87 0 0 1 1.314-8.386 14.5 14.5 0 0 1 5.667-6.228 14.15 14.15 0 0 1 8.108-1.972 14.2 14.2 0 0 1 7.818 2.949 14.6 14.6 0 0 1 4.891 6.877 14.9 14.9 0 0 1 .317 8.486c-.97 3.751-3.36 6.956-6.647 8.913a14.14 14.14 0 0 1-10.885 1.525m73.771-55.899a14.3 14.3 0 0 1-7.102-4.447 14.75 14.75 0 0 1-3.481-7.717 14.87 14.87 0 0 1 1.315-8.386 14.5 14.5 0 0 1 5.666-6.228 14.15 14.15 0 0 1 8.109-1.972 14.2 14.2 0 0 1 7.817 2.949 14.6 14.6 0 0 1 4.892 6.877 14.9 14.9 0 0 1 .316 8.486c-.969 3.751-3.36 6.956-6.647 8.913a14.14 14.14 0 0 1-10.885 1.525m83.335 22.268a14.3 14.3 0 0 1-7.102-4.446 14.76 14.76 0 0 1-3.481-7.717 14.87 14.87 0 0 1 1.314-8.386 14.53 14.53 0 0 1 5.667-6.229 14.15 14.15 0 0 1 8.108-1.972 14.2 14.2 0 0 1 7.818 2.95 14.6 14.6 0 0 1 4.891 6.877 14.9 14.9 0 0 1 .317 8.486c-.97 3.75-3.36 6.956-6.647 8.912a14.14 14.14 0 0 1-10.885 1.525"/></svg>