<svg width="256" height="256" viewBox="0 0 256 256" fill="none" xmlns="http://www.w3.org/2000/svg">
<path fill-rule="evenodd" clip-rule="evenodd" d="M184.222 113.545C192.727 122.012 192.651 135.791 184.053 144.164L113.222 213.139C109.977 216.287 105.621 218.033 101.097 218C96.573 217.967 92.2436 216.157 89.0445 212.962C85.8454 209.768 84.0335 205.444 84.0005 200.926C83.9674 196.408 85.7158 192.058 88.8678 188.817L144.058 133.701C147.211 130.552 147.211 125.448 144.058 122.299L88.8678 67.1828C85.7158 63.9416 83.9674 59.592 84.0005 55.0741C84.0335 50.5561 85.8454 46.2325 89.0445 43.0377C92.2436 39.8429 96.573 38.0335 101.097 38.0005C105.621 37.9674 109.977 39.7135 113.222 42.8612L184.222 113.545Z" fill="black"/>
</svg>
