<svg xmlns="http://www.w3.org/2000/svg" fill="none" viewBox="0 0 256 256"><path fill="#000" fill-rule="evenodd" d="M60.356 63.999a11.797 11.797 0 0 0-16.677 3.714A11.75 11.75 0 0 0 42 73.77v108.249c0 2.14.584 4.239 1.69 6.072a11.79 11.79 0 0 0 10.754 5.676c2.14-.119 4.207-.82 5.978-2.025l57.881-39.385v29.662a11.74 11.74 0 0 0 1.69 6.072 11.79 11.79 0 0 0 10.754 5.676c2.14-.119 4.206-.82 5.978-2.025l80.136-54.529a11.755 11.755 0 0 0-.076-19.485l-80.126-53.729a11.8 11.8 0 0 0-12.116-.616 11.8 11.8 0 0 0-4.561 4.33 11.74 11.74 0 0 0-1.679 6.057v29.085z" clip-rule="evenodd"/></svg>