<svg xmlns="http://www.w3.org/2000/svg" fill="none" viewBox="0 0 256 256"><path fill="#000" fill-rule="evenodd" d="M64.132 68.866a11.01 11.01 0 0 0-15.565 3.466A10.97 10.97 0 0 0 47 77.985v101.032c0 1.998.545 3.957 1.578 5.668a11 11 0 0 0 10.036 5.298 11 11 0 0 0 5.58-1.89l54.022-36.76v27.684a10.97 10.97 0 0 0 5.858 9.71 11.02 11.02 0 0 0 11.336-.634l74.793-50.894a10.98 10.98 0 0 0 4.797-9.112 10.99 10.99 0 0 0-4.867-9.074l-74.785-50.147a11.01 11.01 0 0 0-15.565 3.466 10.96 10.96 0 0 0-1.567 5.653v27.147z" clip-rule="evenodd"/></svg>