<svg width="256" height="256" viewBox="0 0 256 256" fill="none" xmlns="http://www.w3.org/2000/svg">
<path d="M124.921 22.0002C124.766 21.9968 124.614 22.039 124.484 22.1215C124.353 22.204 124.249 22.323 124.186 22.4639C116.769 36.8612 108.065 50.5582 98.1809 63.3877C79.8934 87.2577 53.1621 119.965 53.1621 154.073C53.1621 163.496 55.0183 172.827 58.6246 181.532C62.2309 190.238 67.5168 198.148 74.1803 204.811C80.8438 211.473 88.7545 216.758 97.4606 220.364C106.167 223.969 115.498 225.824 124.921 225.823V182.046C124.921 181.119 125.682 180.358 126.618 180.358H151.206V155.744C151.206 154.816 151.967 154.073 152.903 154.073H196.688C196.688 119.948 169.948 87.2577 151.67 63.3877C141.782 50.5586 133.076 36.8616 125.656 22.4639C125.584 22.3293 125.479 22.2157 125.35 22.1344C125.221 22.053 125.073 22.0068 124.921 22.0002ZM110.641 55.8364C111.078 55.8364 111.341 56.1339 110.965 56.8164L108.095 62.0052C104.63 68.1477 100.928 74.1589 97.3321 80.2052C95.6229 79.931 93.9167 79.6744 92.2134 79.4352C96.5446 73.7389 100.963 68.0952 105.163 62.2939C106.502 60.4652 107.806 58.5927 109.136 56.7464C109.306 56.495 109.529 56.2834 109.789 56.1263C110.048 55.9692 110.339 55.8703 110.641 55.8364ZM88.1009 84.8777C90.0375 85.1868 91.98 85.5339 93.9284 85.9189L91.9771 89.2702C86.6441 98.474 81.8952 108.004 77.7584 117.804C70.1109 136.38 65.6571 156.689 71.0209 176.49C74.4248 188.945 81.1266 200.251 90.4196 209.215C91.1459 209.941 90.2446 211.105 89.3784 210.571C86.5174 208.78 83.7971 206.773 81.2409 204.569C69.242 194.172 61.3177 179.858 58.8759 164.17C55.9971 145.305 62.2621 127.018 71.2834 110.664C76.317 101.713 81.9289 93.0988 88.0834 84.8777H88.1009ZM157.497 158.684C157.055 158.688 156.633 158.866 156.32 159.178C156.008 159.491 155.83 159.913 155.826 160.355V182.125H179.25V158.675L157.497 158.684ZM186.363 158.684V182.125H198.158C200.99 174.63 202.515 166.704 202.665 158.693L186.363 158.684ZM131.212 184.969C130.767 184.974 130.342 185.153 130.029 185.47C129.716 185.786 129.541 186.213 129.541 186.658V208.401H152.973V184.969H131.212ZM160.043 189.204V212.654H178.55C179.196 212.66 179.838 212.537 180.437 212.294C181.036 212.051 181.581 211.691 182.041 211.236V211.201C182.949 210.275 183.453 209.025 183.441 207.728V189.213L160.043 189.204ZM192.191 190.796V208.121C196.565 202.896 200.152 197.059 202.84 190.796H192.191ZM131.212 215.506C130.769 215.511 130.345 215.69 130.032 216.004C129.72 216.318 129.543 216.743 129.541 217.186V231.816C137.553 231.664 145.479 230.137 152.973 227.301V215.506H131.212ZM161.662 221.351V232C167.925 229.313 173.761 225.725 178.987 221.351H161.662Z" fill="black"/>
</svg>
