<svg width="256" height="256" viewBox="0 0 256 256" fill="none" xmlns="http://www.w3.org/2000/svg">
<path d="M127.841 118.595L121.915 137.36C118.756 149.009 119.025 152.683 120.627 155.393C121.023 156.059 122.104 158.24 123.616 164.064C125.811 172.494 127.743 185.223 127.791 185.832C127.473 193.612 127.645 201.856 128.275 209.749H50.0768C41.2349 209.749 34 202.523 34 193.693V48.3804C34 39.5497 41.2345 32.3228 50.0768 32.3228H170.409C151.979 51.8483 133.718 88.8981 127.841 118.595ZM212.784 27.5674C234.835 47.2135 212.938 92.1269 192.839 123.742C178.225 128.433 161.191 138.793 161.191 138.793C161.191 138.793 162.607 138.042 167.866 135.839C171.431 134.342 182.075 131.815 188.557 130.339C177.736 146.633 168.476 158.037 168.476 158.037C168.476 158.037 149.597 165.699 143.759 183.524C147.143 164.511 152.758 144.666 160.682 123.519C167.759 104.634 191.399 53.6374 208.866 37.8829C189.702 53.1378 168.763 85.0804 153.671 124.893C144.738 151.266 139.904 176.569 139.116 197.551C138.596 211.278 139.784 223.181 142.709 232.264L141.357 233C138.488 225.563 135.854 212.493 136.484 185.711C136.39 184.516 136.334 183.74 136.334 183.74C136.334 183.74 134.591 172.022 132.086 162.397C130.976 158.125 129.713 154.261 128.387 152.022C127.704 150.867 128.461 146.121 130.368 139.091C133.598 144.707 137.082 150.787 138.42 155.761C138.42 155.761 135.839 142.501 131.605 134.763C132.533 131.634 133.642 128.177 134.897 124.48C138.02 129.935 141.205 135.126 142.476 140.324C141.086 133.683 139.205 127.068 136.274 120.511C141.6 92.827 158.746 56.5774 177.217 37.0072C187.076 26.5002 200.663 17.0965 212.784 27.5674Z" fill="black"/>
</svg>
