<svg width="256" height="256" viewBox="0 0 256 256" fill="none" xmlns="http://www.w3.org/2000/svg">
<path d="M38 43.9113C38 40.6466 40.6509 38 43.9211 38H69.0855C72.3556 38 75.0066 40.6466 75.0066 43.9113V69.0345C75.0066 72.2992 72.3556 74.9458 69.0855 74.9458H43.9211C40.6509 74.9458 38 72.2992 38 69.0345V43.9113Z" fill="black"/>
<path d="M133.329 43.9113C133.329 40.6466 135.98 38 139.25 38H164.414C167.685 38 170.336 40.6466 170.336 43.9113V69.0345C170.336 72.2992 167.685 74.9458 164.414 74.9458H139.25C135.98 74.9458 133.329 72.2992 133.329 69.0345V43.9113Z" fill="black"/>
<path d="M85.6645 43.9113C85.6645 40.6466 88.3154 38 91.5855 38H116.75C120.02 38 122.671 40.6466 122.671 43.9113V69.0345C122.671 72.2992 120.02 74.9458 116.75 74.9458H91.5855C88.3154 74.9458 85.6645 72.2992 85.6645 69.0345V43.9113Z" fill="black"/>
<path d="M180.993 43.9113C180.993 40.6466 183.644 38 186.914 38H212.079C215.349 38 218 40.6466 218 43.9113V69.0345C218 72.2992 215.349 74.9458 212.079 74.9458H186.914C183.644 74.9458 180.993 72.2992 180.993 69.0345V43.9113Z" fill="black"/>
<path d="M85.6645 139.379C85.6645 136.115 88.3154 133.468 91.5855 133.468H116.75C120.02 133.468 122.671 136.115 122.671 139.379V164.502C122.671 167.767 120.02 170.414 116.75 170.414H91.5855C88.3154 170.414 85.6645 167.767 85.6645 164.502V139.379Z" fill="black"/>
<path d="M180.993 139.379C180.993 136.115 183.644 133.468 186.914 133.468H212.079C215.349 133.468 218 136.115 218 139.379V164.502C218 167.767 215.349 170.414 212.079 170.414H186.914C183.644 170.414 180.993 167.767 180.993 164.502V139.379Z" fill="black"/>
<path d="M38 186.966C38 183.701 40.6509 181.054 43.9211 181.054H69.0855C72.3556 181.054 75.0066 183.701 75.0066 186.966V212.089C75.0066 215.353 72.3556 218 69.0855 218H43.9211C40.6509 218 38 215.353 38 212.089V186.966Z" fill="black"/>
<path d="M133.329 186.966C133.329 183.701 135.98 181.054 139.25 181.054H164.414C167.685 181.054 170.336 183.701 170.336 186.966V212.089C170.336 215.353 167.685 218 164.414 218H139.25C135.98 218 133.329 215.353 133.329 212.089V186.966Z" fill="black"/>
<path d="M85.6645 186.966C85.6645 183.701 88.3154 181.054 91.5855 181.054H116.75C120.02 181.054 122.671 183.701 122.671 186.966V212.089C122.671 215.353 120.02 218 116.75 218H91.5855C88.3154 218 85.6645 215.353 85.6645 212.089V186.966Z" fill="black"/>
<path d="M180.993 186.966C180.993 183.701 183.644 181.054 186.914 181.054H212.079C215.349 181.054 218 183.701 218 186.966V212.089C218 215.353 215.349 218 212.079 218H186.914C183.644 218 180.993 215.353 180.993 212.089V186.966Z" fill="black"/>
<path d="M38 91.7931C38 88.5284 40.6509 85.8818 43.9211 85.8818H69.0855C72.3556 85.8818 75.0066 88.5284 75.0066 91.7931V116.916C75.0066 120.181 72.3556 122.828 69.0855 122.828H43.9211C40.6509 122.828 38 120.181 38 116.916V91.7931Z" fill="black"/>
<path d="M133.329 91.7931C133.329 88.5284 135.98 85.8818 139.25 85.8818H164.414C167.685 85.8818 170.336 88.5284 170.336 91.7931V116.916C170.336 120.181 167.685 122.828 164.414 122.828H139.25C135.98 122.828 133.329 120.181 133.329 116.916V91.7931Z" fill="black"/>
<path d="M75.0066 164.502C75.0066 167.767 72.3556 170.414 69.0855 170.414H43.9211C40.6509 170.414 38 167.767 38 164.502V139.379C38 136.115 40.6509 133.468 43.9211 133.468H64.8566C66.427 133.468 67.933 132.845 69.0434 131.737L83.9302 116.874C85.0407 115.766 85.6645 114.262 85.6645 112.694V91.7931C85.6645 88.5284 88.3154 85.8818 91.5855 85.8818H116.75C120.02 85.8818 122.671 88.5284 122.671 91.7931V112.694C122.671 114.262 123.295 115.766 124.405 116.874L139.292 131.737C140.402 132.845 141.909 133.468 143.479 133.468H160.186C161.756 133.468 163.262 132.845 164.372 131.737L179.259 116.874C180.37 115.766 180.993 114.262 180.993 112.694V91.7931C180.993 88.5284 183.644 85.8818 186.914 85.8818H212.079C215.349 85.8818 218 88.5284 218 91.7931V116.916C218 120.181 215.349 122.828 212.079 122.828H191.24C189.669 122.828 188.163 123.45 187.053 124.559L172.07 139.518C170.959 140.626 170.336 142.13 170.336 143.698V164.502C170.336 167.767 167.685 170.414 164.414 170.414H139.25C135.98 170.414 133.329 167.767 133.329 164.502V143.698C133.329 142.13 132.705 140.626 131.595 139.518L116.611 124.559C115.501 123.45 113.995 122.828 112.425 122.828H95.9109C94.3405 122.828 92.8345 123.45 91.7241 124.559L76.7408 139.518C75.6304 140.626 75.0066 142.13 75.0066 143.698V164.502Z" fill="black"/>
</svg>
