<svg xmlns="http://www.w3.org/2000/svg" fill="none" viewBox="0 0 256 256"><path fill="#000" d="M113.316 66.652v123.696c0 4.417-1.739 8.652-4.835 11.775A16.44 16.44 0 0 1 96.808 207h-28.3a16.43 16.43 0 0 1-11.673-4.877A16.73 16.73 0 0 1 52 190.348V66.651a16.82 16.82 0 0 1 4.862-11.746A16.53 16.53 0 0 1 68.509 50h28.3c4.378 0 8.577 1.754 11.673 4.877a16.73 16.73 0 0 1 4.835 11.774m90.684 0v123.696c0 4.417-1.739 8.652-4.835 11.775A16.44 16.44 0 0 1 187.492 207h-28.3a16.44 16.44 0 0 1-11.673-4.877 16.73 16.73 0 0 1-4.835-11.775V66.651a16.82 16.82 0 0 1 4.863-11.746A16.53 16.53 0 0 1 159.192 50h28.3c4.378 0 8.577 1.754 11.673 4.877A16.73 16.73 0 0 1 204 66.651"/></svg>