<svg xmlns="http://www.w3.org/2000/svg" fill="none" viewBox="0 0 256 256"><path fill="#000" d="M120.334 30.089a2.074 2.074 0 0 0-2.279-2.069 100.25 100.25 0 1 0 81.349 170.348 2.075 2.075 0 0 0 .367-2.413 2.1 2.1 0 0 0-.546-.668l-75.947-61.384a7.91 7.91 0 0 1-2.944-6.152z"/><path fill="#000" d="M209.186 182.983c.95.77 2.364.569 3.039-.465a99.7 99.7 0 0 0 15.766-44.584 2.08 2.08 0 0 0-2.079-2.268h-69.309a2.107 2.107 0 0 0-2.028 2.679c.117.419.361.792.698 1.067zm16.726-63.146a2.09 2.09 0 0 0 2.079-2.279 100.25 100.25 0 0 0-89.549-89.548 2.08 2.08 0 0 0-2.279 2.078v86.583a3.165 3.165 0 0 0 3.166 3.166z"/></svg>
