<svg width="256" height="256" viewBox="0 0 256 256" fill="none" xmlns="http://www.w3.org/2000/svg">
<path d="M71.2119 214C68.3527 213.995 65.544 213.247 63.0623 211.83C57.474 208.67 54 202.537 54 195.878V61.123C54 54.4457 57.474 48.3306 63.0623 45.1708C65.6031 43.7138 68.4896 42.9645 71.4199 43.0013C74.3502 43.0381 77.2168 43.8596 79.7201 45.3799L195.141 114.319C197.547 115.824 199.53 117.914 200.904 120.393C202.279 122.871 203 125.658 203 128.491C203 131.324 202.279 134.111 200.904 136.59C199.53 139.069 197.547 141.159 195.141 142.664L79.7014 211.621C77.1396 213.166 74.2054 213.989 71.2119 214Z" fill="black"/>
</svg>
