<svg xmlns="http://www.w3.org/2000/svg" fill="none" viewBox="0 0 256 256"><path fill="#000" d="M50.931 159.197h18.046v7.795h-29.8v-7.795l14.968-13.249q2.005-1.818 2.966-3.554.962-1.734.961-3.608 0-2.892-1.95-4.655-1.922-1.763-5.135-1.763-2.473 0-5.411 1.075-2.94 1.046-6.29 3.14v-9.035a49 49 0 0 1 7.06-1.79 38 38 0 0 1 6.838-.635q7.361 0 11.425 3.251 4.093 3.25 4.093 9.062 0 3.362-1.73 6.281-1.73 2.892-7.279 7.768l-8.76 7.712m163.77 18.474q4.146 1.074 6.289 3.747 2.17 2.643 2.17 6.748 0 6.115-4.669 9.31-4.67 3.169-13.624 3.169-3.158 0-6.344-.525a40 40 0 0 1-6.263-1.515v-8.181q2.967 1.487 5.878 2.259 2.939.743 5.768.743 4.203 0 6.427-1.46 2.253-1.46 2.253-4.187 0-2.81-2.308-4.242-2.278-1.46-6.756-1.46h-4.229v-6.831h4.449q3.983 0 5.933-1.24 1.95-1.266 1.95-3.829 0-2.369-1.895-3.663-1.896-1.295-5.356-1.295-2.554 0-5.164.579a28 28 0 0 0-5.191 1.708v-7.768a48 48 0 0 1 6.208-1.322c2.001-.29 4.02-.437 6.042-.44q7.992 0 11.948 2.644 3.982 2.617 3.982 7.906 0 3.609-1.895 5.922-1.896 2.286-5.603 3.223m-95.549-93.372h9.339V57.717l-9.586 1.984v-7.217l9.531-1.984h10.052v33.799h9.338v7.326h-28.674zM226 225c8.284 0 15-6.716 15-15v-56.696c0-8.284-6.716-15-15-15h-52.5V48c0-8.284-6.716-15-15-15H106c-8.284 0-15 6.716-15 15v60.217H31c-8.284 0-15 6.716-15 15V210c0 8.284 6.716 15 15 15z"/></svg>
