<svg width="256" height="256" viewBox="0 0 256 256" fill="none" xmlns="http://www.w3.org/2000/svg">
<path d="M173.865 23C165.463 23.0786 157.109 24.2662 149.018 26.5318L148.445 26.7037C143.351 25.8302 138.197 25.3483 133.029 25.2623C122.405 25.0809 113.27 27.5818 105.919 31.7532C98.6648 29.3096 83.621 25.1 67.7658 25.94C56.7216 26.5223 44.6751 29.7773 35.75 38.9219C26.8439 48.0665 22.138 62.213 23.1307 81.4663C23.398 86.7831 24.9539 95.4409 27.5503 106.666C30.1276 117.882 33.774 131.007 38.3082 142.987C42.8423 154.967 47.8156 165.744 55.5857 173.055C59.4612 176.721 64.7971 179.804 71.0877 179.546C75.5073 179.375 79.5069 177.494 82.9528 174.716C84.6328 176.864 86.4274 177.8 88.0597 178.668C90.112 179.756 92.1166 180.501 94.188 180.997C99.9241 182.468 105.899 182.764 111.752 181.866C114.3 181.456 116.983 180.654 119.656 179.508C119.751 182.391 119.866 185.216 119.99 188.08C120.352 197.148 120.591 205.52 123.397 212.86C123.846 214.063 125.077 220.239 129.955 225.689C134.823 231.149 144.369 234.548 155.232 232.295C162.897 230.701 172.653 227.828 179.124 218.893C185.52 210.054 188.412 197.377 188.985 176.807C189.128 175.7 189.3 174.755 189.481 173.867L191.009 174H191.181C199.361 174.363 208.238 173.237 215.655 169.896C222.223 166.937 227.186 163.959 230.804 158.661C231.711 157.353 232.704 155.769 232.971 153.029C233.238 150.309 231.635 146.032 228.952 144.066C223.578 140.114 220.209 141.613 216.591 142.348C213.027 143.111 209.413 143.534 205.747 143.617C216.18 126.588 223.655 108.49 227.921 92.4722C230.441 83.0222 231.864 74.3071 231.978 66.6898C232.093 59.0725 231.453 52.3238 226.747 46.482C212.038 28.25 191.352 23.21 175.354 23.0382C174.858 23.0255 174.361 23.0223 173.865 23.0286V23ZM173.445 28.6032C188.575 28.46 207.914 32.5837 221.793 49.7943C224.915 53.6602 225.841 59.3111 225.736 66.2794C225.621 73.238 224.294 81.5617 221.87 90.6872C217.164 108.366 208.267 128.965 195.734 147.464C196.179 147.772 196.66 148.026 197.166 148.218C199.781 149.268 205.738 150.165 217.641 147.798C220.629 147.178 222.824 146.767 225.096 148.447C225.64 148.898 226.072 149.469 226.358 150.115C226.644 150.761 226.778 151.464 226.747 152.17C226.621 153.236 226.216 154.25 225.573 155.11C223.282 158.46 218.739 161.639 212.916 164.255C207.771 166.584 200.382 167.796 193.834 167.872C190.551 167.901 187.525 167.653 184.957 166.88L184.785 166.822C183.792 176.091 181.511 194.409 180.031 202.761C178.838 209.5 176.757 214.855 172.777 218.864C168.806 222.873 163.193 225.289 155.633 226.864C146.269 228.811 139.444 226.711 135.043 223.112C130.652 219.533 128.638 214.769 127.426 211.848C126.595 209.844 126.166 207.238 125.746 203.754C125.284 199.582 124.975 195.396 124.82 191.201C124.546 183.848 124.457 176.49 124.552 169.132C120.639 172.597 115.771 174.907 110.549 175.776C104.344 176.797 98.7889 175.795 95.4766 174.993C93.8528 174.593 92.2825 174 90.7993 173.227C89.2529 172.435 87.7924 171.538 86.8188 169.762C86.2451 168.749 86.0618 167.561 86.3033 166.421C86.6159 165.264 87.3085 164.245 88.2697 163.529C90.0643 162.116 92.422 161.334 95.9825 160.608C102.474 159.319 104.736 158.432 106.11 157.372C107.284 156.465 108.611 154.633 110.96 151.931L110.931 151.578C106.746 151.455 102.643 150.385 98.9321 148.447C97.5862 149.822 90.6752 156.914 82.2465 166.746C78.705 170.86 74.7914 173.218 70.6581 173.39C66.5249 173.561 62.7926 171.538 59.6234 168.56C53.2756 162.584 48.2165 152.304 43.8064 140.687C39.4155 129.06 35.8263 116.116 33.2872 105.091C30.729 94.0663 29.2208 85.1795 29.0108 80.8935C28.0562 62.6712 32.4472 50.3956 39.9882 42.6542C47.5292 34.9128 57.8575 31.9728 67.9376 31.4191C86.017 30.4073 103.189 36.526 106.664 37.8433C113.355 33.4332 121.975 30.6841 132.752 30.856C137.86 30.927 142.944 31.5673 147.91 32.7651L148.092 32.6887C150.281 31.9441 152.502 31.3205 154.755 30.8178C160.887 29.4335 167.149 28.6977 173.435 28.6223L173.445 28.6032ZM174.81 34.4642H173.502C168.338 34.5337 163.191 35.0963 158.134 36.1442C168.173 40.5168 176.994 47.2731 183.83 55.827C187.972 60.9444 191.407 66.5949 194.044 72.6271C195.037 74.9371 195.705 76.894 196.077 78.4022C196.268 79.1658 196.402 79.8053 196.44 80.4735C196.475 80.8965 196.44 81.3223 196.335 81.7335L196.278 81.8481C196.555 89.5131 194.598 94.7059 194.359 102.018C194.178 107.325 195.572 113.558 195.915 120.345C196.24 126.741 195.447 133.757 191.171 140.648C191.527 141.068 191.871 141.488 192.202 141.908C203.513 124.631 211.675 105.502 216.018 89.2077C218.338 80.4258 219.579 72.4744 219.684 66.1744C219.779 59.8743 218.567 55.302 217.02 53.4025C204.917 38.3874 188.546 34.5692 174.81 34.4642ZM131.616 36.6978C120.954 36.7169 113.298 39.8478 107.504 44.5251C101.519 49.3647 97.5098 55.9797 94.8752 62.7666C92.3252 69.549 90.7659 76.6636 90.2456 83.8908L90.3697 83.824C93.5866 82.0676 97.8153 80.3208 102.34 79.309C106.874 78.2972 111.752 77.9822 116.171 79.6431C120.591 81.304 124.247 85.2177 125.574 91.155C131.922 119.658 123.598 130.253 120.524 138.243C119.371 141.143 118.377 144.103 117.546 147.111C117.928 147.003 118.313 146.926 118.701 146.882C120.378 146.791 122.051 147.119 123.569 147.836C126.662 149.077 128.781 151.674 129.927 154.652C130.226 155.441 130.439 156.268 130.566 157.134C130.693 157.496 130.754 157.869 130.748 158.25C130.404 169.149 130.443 180.057 130.862 190.953C131.072 195.669 131.378 199.812 131.769 203.086C132.151 206.35 132.704 208.832 133.058 209.672C134.203 212.478 135.893 216.144 138.947 218.635C142.002 221.127 146.364 222.778 154.354 221.117C161.284 219.676 165.56 217.681 168.424 214.788C171.268 211.915 172.977 207.916 174.065 201.778C175.698 192.586 178.981 165.944 179.373 160.923C179.201 157.153 179.774 154.241 181.015 152.027C182.303 149.755 184.289 148.361 185.997 147.607C186.856 147.225 187.658 146.977 188.317 146.796C187.615 145.825 186.883 144.876 186.121 143.951C183.653 141.064 181.629 137.824 180.117 134.339C179.389 132.905 178.615 131.495 177.798 130.11C176.604 128.01 175.087 125.385 173.502 122.436C170.323 116.527 166.868 109.368 165.073 102.39C163.288 95.4314 163.021 88.2245 167.603 83.1367C171.669 78.6217 178.79 76.7508 189.491 77.8008C189.176 76.8844 188.985 76.1208 188.451 74.899C186.036 69.3529 182.879 64.1605 179.067 59.4639C169.999 48.2192 155.327 37.0701 132.647 36.7074H131.616V36.6978ZM71.7081 37.1465C70.5627 37.1465 69.4172 37.1783 68.2717 37.2419C59.1653 37.7478 50.5551 40.3156 44.3983 46.6538C38.2223 52.9825 34.1654 63.368 35.0436 80.569C35.225 83.8145 36.6854 92.94 39.1864 103.765C41.6873 114.608 45.2383 127.352 49.4956 138.606C53.7529 149.869 58.9266 159.673 63.833 164.312C66.3053 166.631 68.4531 167.567 70.4004 167.49C72.3572 167.395 74.7054 166.307 77.5882 162.956C82.8382 156.813 88.2819 150.837 93.9111 145.039C89.9338 141.704 86.872 137.41 85.0147 132.563C83.1725 127.762 82.6132 122.564 83.3919 117.481C84.3178 111.01 84.4419 104.958 84.3369 100.185C84.2224 95.5268 83.8787 92.4341 83.8787 90.4963V90.2291C83.8689 80.1407 85.6764 70.1332 89.2147 60.6857C91.7348 54.1756 95.4957 47.5606 101.137 42.2056C95.6007 40.4397 85.7688 37.7478 75.1255 37.2419C73.981 37.1806 72.8351 37.1488 71.689 37.1465H71.7081ZM183.525 83.3658C177.406 83.4422 173.97 84.979 172.166 86.9836C169.608 89.8281 169.369 94.8109 170.953 100.958C172.538 107.106 175.793 113.988 178.867 119.696C180.394 122.56 181.883 125.137 183.086 127.218C184.298 129.318 185.186 130.807 185.72 132.086C186.23 133.238 186.764 134.291 187.324 135.246C189.691 130.387 190.121 125.624 189.873 120.651C189.558 114.503 188.088 108.213 188.307 101.846C188.546 94.4004 190.064 89.5418 190.197 83.7858C187.983 83.516 185.755 83.3758 183.525 83.3658ZM109.26 84.3681C107.391 84.3823 105.528 84.5999 103.705 85.0172C100.081 85.8716 96.5833 87.1936 93.3002 88.9499C92.1993 89.5227 91.1493 90.1877 90.1502 90.945L89.9593 91.1168C90.0166 92.3959 90.2743 95.4982 90.3888 100.051C90.4843 105.044 90.3697 111.411 89.377 118.283C87.2197 133.251 98.4071 145.641 111.561 145.66C112.325 142.586 113.594 139.474 114.854 136.191C118.52 126.617 125.727 119.639 119.656 92.3863C118.663 87.9286 116.696 86.1245 113.985 85.1031C112.467 84.576 110.867 84.327 109.26 84.3681ZM180.661 86.1531H181.12C181.718 86.1722 182.259 86.2358 182.742 86.344C183.181 86.4323 183.601 86.5971 183.983 86.8308C184.157 86.9332 184.307 87.0712 184.424 87.2357C184.541 87.4002 184.622 87.5875 184.661 87.7854V87.8618C184.686 88.2813 184.572 88.6973 184.336 89.0454C184.07 89.5267 183.736 89.9672 183.344 90.3531C182.419 91.3348 181.199 91.9882 179.869 92.2145C178.566 92.3689 177.25 92.0468 176.165 91.3077C175.729 91.0193 175.334 90.6724 174.991 90.2768C174.702 89.9677 174.503 89.5844 174.419 89.1695C174.398 88.9654 174.421 88.7591 174.487 88.5648C174.553 88.3705 174.66 88.1926 174.8 88.0431C175.106 87.7228 175.464 87.4579 175.86 87.2604C177.372 86.5662 179.008 86.1832 180.671 86.134L180.661 86.1531ZM110.139 87.6231C110.616 87.6231 111.115 87.6613 111.637 87.7377C113.012 87.9286 114.243 88.2818 115.179 88.8068C115.637 89.0422 116.038 89.3509 116.381 89.7327C116.56 89.9427 116.693 90.175 116.782 90.4295C116.871 90.6841 116.9 90.9481 116.868 91.2218C116.781 91.7279 116.545 92.1966 116.191 92.5677C115.821 93.0124 115.387 93.3986 114.902 93.7132C113.716 94.5205 112.278 94.8698 110.855 94.6963C109.41 94.4631 108.082 93.7623 107.074 92.7013C106.656 92.2741 106.296 91.7925 106.005 91.2695C105.708 90.8118 105.577 90.266 105.633 89.7231C105.767 88.7686 106.578 88.2913 107.351 88.0049C108.245 87.7214 109.184 87.6049 110.12 87.6613L110.139 87.6231ZM191.849 151.884H191.82C190.493 152.361 189.405 152.552 188.479 152.934C187.557 153.276 186.792 153.945 186.331 154.814C185.759 155.816 185.281 157.601 185.425 160.637C185.836 160.908 186.287 161.114 186.761 161.248C188.298 161.706 190.885 162.011 193.777 161.964C199.523 161.897 206.606 160.599 210.367 158.899C213.45 157.506 216.314 155.692 218.872 153.516C206.301 156.036 199.208 155.368 194.846 153.621C193.77 153.182 192.761 152.603 191.849 151.884ZM119.417 152.695H119.226C118.749 152.733 118.052 152.886 116.716 154.337C113.565 157.754 112.477 159.892 109.881 161.897C107.304 163.901 103.934 164.961 97.2139 166.297C95.0852 166.717 93.873 167.185 93.052 167.557C93.3193 167.767 93.2907 167.825 93.682 168.025C94.6652 168.55 95.9348 169.008 96.9466 169.266C99.8389 169.963 104.583 170.784 109.537 169.963C114.491 169.142 119.636 166.841 124.027 160.866C124.791 159.835 124.867 158.308 124.247 156.666C123.607 155.043 122.233 153.63 121.259 153.229C120.678 152.956 120.056 152.781 119.417 152.714V152.695Z" fill="black"/>
</svg>
