<svg width="256" height="256" viewBox="0 0 256 256" fill="none" xmlns="http://www.w3.org/2000/svg">
<path fill-rule="evenodd" clip-rule="evenodd" d="M67.3294 142.455C58.8243 133.988 58.9005 120.209 67.4987 111.836L138.33 42.8612C141.575 39.7135 145.931 37.9674 150.455 38.0005C154.979 38.0335 159.308 39.8429 162.507 43.0377C165.706 46.2325 167.518 50.5561 167.551 55.0741C167.584 59.5921 165.836 63.9416 162.684 67.1828L107.493 122.299C104.34 125.448 104.34 130.552 107.493 133.701L162.684 188.817C165.836 192.058 167.584 196.408 167.551 200.926C167.518 205.444 165.706 209.768 162.507 212.962C159.308 216.157 154.979 217.967 150.455 218C145.931 218.033 141.575 216.287 138.33 213.139L67.3294 142.455Z" fill="black"/>
</svg>
