<svg xmlns="http://www.w3.org/2000/svg" fill="none" viewBox="0 0 256 256"><path fill="#000" fill-rule="evenodd" d="M195.644 64.01a11.74 11.74 0 0 1 12.115-.62 11.8 11.8 0 0 1 4.562 4.357A11.9 11.9 0 0 1 214 73.84v108.897c0 2.153-.584 4.265-1.69 6.109a11.8 11.8 0 0 1-4.587 4.357 11.74 11.74 0 0 1-12.145-.684l-57.881-39.621v29.839a11.87 11.87 0 0 1-1.69 6.109 11.8 11.8 0 0 1-4.587 4.357 11.74 11.74 0 0 1-12.145-.684l-80.136-54.856a11.8 11.8 0 0 1-3.786-4.268 11.88 11.88 0 0 1 .043-11.095 11.8 11.8 0 0 1 3.819-4.238l80.126-54.051a11.74 11.74 0 0 1 12.116-.62 11.8 11.8 0 0 1 4.561 4.356c1.1 1.84 1.68 3.947 1.679 6.093v29.26z" clip-rule="evenodd"/></svg>