<svg xmlns="http://www.w3.org/2000/svg" fill="none" viewBox="0 0 256 256"><path fill="#000" fill-rule="evenodd" d="M188.97 68.866a10.9 10.9 0 0 1 11.24-.575 10.96 10.96 0 0 1 4.232 4.041A11 11 0 0 1 206 77.985v101.032a11 11 0 0 1-1.568 5.668 10.96 10.96 0 0 1-4.256 4.042 10.89 10.89 0 0 1-11.267-.634l-53.701-36.76v27.684a11 11 0 0 1-1.568 5.668 10.96 10.96 0 0 1-4.255 4.042 10.9 10.9 0 0 1-11.268-.634l-74.349-50.894a11 11 0 0 1-3.513-3.96 11.02 11.02 0 0 1 .04-10.294 11 11 0 0 1 3.543-3.932l74.34-50.147a10.89 10.89 0 0 1 11.24-.575 10.95 10.95 0 0 1 4.232 4.041 11 11 0 0 1 1.558 5.653v27.147z" clip-rule="evenodd"/></svg>