<svg width="256" height="256" viewBox="0 0 256 256" fill="none" xmlns="http://www.w3.org/2000/svg">
<path d="M128 28C72.775 28 28 72.7667 28 128C28 183.225 72.775 228 128 228C183.225 228 228 183.225 228 128C228 72.7667 183.225 28 128 28ZM128 215.167C112.292 215.167 99.55 204.667 99.55 191.717H156.45C156.45 204.658 143.717 215.167 128 215.167ZM175 183.958H81V166.908H175V183.958ZM174.667 158.142H81.2583C80.9472 157.786 80.6389 157.425 80.3333 157.058C70.7083 145.383 68.4417 139.283 66.25 133.067C66.2083 132.858 77.9167 135.458 86.2083 137.325C86.2083 137.325 90.4833 138.317 96.725 139.45C90.725 132.425 87.1667 123.492 87.1667 114.367C87.1667 94.3167 102.542 76.8 97 62.6417C102.4 63.0833 108.167 74.0333 108.558 91.1583C114.3 83.2333 116.7 68.7417 116.7 59.8667C116.7 50.675 122.758 39.9917 128.817 39.625C123.417 48.5333 130.217 56.1583 136.267 75.0917C138.533 82.2083 138.242 94.175 139.992 101.767C140.575 86 143.283 63 153.283 55.0583C148.875 65.0583 153.942 77.575 157.4 83.5917C162.992 93.2917 166.383 100.65 166.383 114.558C166.353 123.713 163.075 132.56 157.133 139.525C163.733 138.283 168.3 137.167 168.3 137.167L189.742 132.983C189.742 132.983 186.633 145.8 174.667 158.142Z" fill="black"/>
</svg>
