<svg xmlns="http://www.w3.org/2000/svg" fill="none" viewBox="0 0 256 256"><path fill="#000" d="M96.688 46.001c2.718.027 5.35.686 7.505 1.877 2.154 1.192 3.714 2.852 4.448 4.734l46.263 118.264 24.283-46.554s2.468-3.077 4.617-4.263c2.513-1.387 7.172-1.614 7.172-1.614h30.341c6.452 0 11.683 5.226 11.683 11.672s-5.231 11.672-11.683 11.672h-24.342l-31.995 61.333c-.932 1.788-2.625 3.318-4.839 4.372-2.213 1.054-4.833 1.578-7.486 1.498s-5.202-.761-7.284-1.945-3.59-2.812-4.31-4.649L95.882 86.878l-18.843 43.321s-2.382 3.307-4.558 4.595c-2.574 1.525-7.457 1.762-7.457 1.762H35.213c-6.745 0-12.213-5.463-12.213-12.202s5.468-12.201 12.213-12.201H58.5l25.983-59.795c.81-1.867 2.44-3.495 4.644-4.641s4.866-1.748 7.586-1.716z"/></svg>