<svg xmlns="http://www.w3.org/2000/svg" fill="none" viewBox="0 0 256 256"><path fill="#000" d="M147.902 115.018c0 11.043-8.947 19.997-19.982 19.997v19.997c22.07 0 39.964-17.908 39.964-39.994S149.99 75.024 127.92 75.024c-7.275 0-14.107 1.945-19.982 5.354-11.947 6.91-19.982 19.835-19.982 34.64v99.985L107.938 235V115.018c0-11.043 8.947-19.997 19.982-19.997s19.982 8.954 19.982 19.997"/><path fill="#000" d="M127.928 35c-14.56 0-28.206 3.898-39.964 10.709a80 80 0 0 0-19.982 16.379C55.546 76.188 48 94.71 48 114.988v59.991l19.982 19.997v-79.988c0-17.763 7.718-33.726 19.982-44.715 5.766-5.155 12.535-9.225 19.982-11.848 6.245-2.225 12.978-3.428 19.982-3.428 33.105 0 59.946 26.862 59.946 59.991s-26.841 59.991-59.946 59.991v19.997c44.148 0 79.928-35.815 79.928-79.988S172.076 35 127.928 35"/></svg>