<svg xmlns="http://www.w3.org/2000/svg" viewBox="0 0 982 257"><path d="M256.021 128.055a127.997 127.997 0 0 1-128 128 128 128 0 0 1-90.51-218.51 128 128 0 0 1 218.51 90.51M87.594 16.539c34.798-8.377 70.923-.425 98.754 21.755 35.57 28.35 51.132 75.024 39.505 119.095-15.95 60.41-76.952 96.416-137.46 82.373q-1.83-.425-.063.203c48.815 17.38 103.917.762 134.812-40.863 36.902-49.717 29.93-119.25-16.93-160.325-32.823-28.77-77.449-36.825-118.66-22.373q-.061.02-.04.083v.005q.02.062.082.047m-8.87 210.648q.265.182.4.228c54.304 19.231 112.916-7.801 134.013-60.929 11.482-28.919 9.139-62.312-5.899-89.46-25.441-45.921-80.103-65.904-129.265-47.865q-.036.015-.041-.026-.084-.674.01.057a.06.06 0 0 0 .023.036.05.05 0 0 0 .04.005q25.773-6.029 50.41.778c69.788 19.273 97.64 102.725 53.656 160.17-8.832 11.533-20.931 21.667-34.149 28.339q-33.01 16.655-69.84 8.444l-.008.003-.005.007-.001.008q0 .005.004.008a.44.44 0 0 0 .249.067q.218.006.404.13m-15.908-15.323c39.116 18.029 85.754 6.775 112.076-27.567 26.375-34.414 25.431-82.933-3.006-116.13-26.805-31.293-71.011-41.396-108.764-24.056q-.078.036-.047.114.032.082.114.051a70 70 0 0 1 7.849-2.29c30.485-6.999 62.349 2.176 83.949 24.689 30.044 31.325 33.237 79.916 6.941 114.637-21.974 29.023-58.327 41.153-93.55 32.164-1.664-.425-3.685-1.14-5.52-1.721q-.855-.27-.042.109m-13.405-32.616C20.284 147.587 23.068 98.01 56.446 70.262 74.216 55.49 97.454 49.7 120.205 54.488q.062.015.082-.046v-.006q.016-.062-.041-.083c-30.895-12.119-66.076-3.55-87.972 21.01-18.604 20.87-24.887 50.318-16.302 76.951 14.063 43.626 61.644 65.786 104.305 49.468q.073-.026.052-.093l-.005-.006q-.02-.072-.088-.057c-26.064 5.407-53.03-3.027-70.825-22.378m80.357 9.699h.125q.015 0 .01-.021v-.01q0-.021-.021-.021c-41.547 7.9-78.734-26.156-73.742-68.3 4.209-35.482 38.52-60.72 73.618-53.38q.021.005.021-.022v-.067q0-.006-.057-.031-17.703-7.21-36.073-4.126C54.647 69.52 29.853 109.05 41.372 147.15c10.59 35.021 47.27 54.294 82.254 44.072a44 44 0 0 0 6.028-2.25.3.3 0 0 1 .114-.026m9.108-12.544q.13-.017.171-.099.052-.104-.062-.083c-29.179 4.821-55.756-17.007-56.875-46.414-1.156-30.293 26.043-54.848 56.02-49.997q1.793.291.114-.404c-24.55-10.124-52.739-.964-66.185 22.191-13.265 22.86-7.439 52.055 13.368 68.191 15.069 11.684 35.612 14.4 53.268 6.661a1 1 0 0 1 .181-.046m31.631-48.348a39.6 39.6 0 0 0-11.594-27.989 39.58 39.58 0 0 0-27.989-11.594 39.581 39.581 0 1 0 15.148 76.152 39.58 39.58 0 0 0 24.435-36.569m252.537 66.154h-28.307l-26.788-46.065h-19.948v46.065h-26.218V61.511h53.196q18.427 0 31.347 12.89 12.918 12.891 12.919 31.089 0 12.323-7.03 22.938-7.029 10.427-18.618 15.734zM374.979 85.965h-26.978v39.24h26.978q7.409 0 12.728-5.687 5.32-5.876 5.32-14.028 0-8.151-5.32-13.838t-12.728-5.687m177.493 108.243h-28.498l-7.979-23.886H462.99l-7.98 23.886h-28.307l46.546-132.697h32.487zM489.587 91.652l-18.238 54.216h36.477zM756.642 61.51h29.638l-45.596 80.946v51.752h-26.028v-51.752l-45.407-80.945h29.638l28.878 55.353zm134.857 132.698h-28.497l-7.98-23.886h-53.005l-7.979 23.886H765.73l46.546-132.697h32.487zM828.614 91.652l-18.238 54.216h36.477zM930.63 61.51v107.675h50.725v25.023h-76.943V61.511zm-367.128 0h44.347q27.358 0 45.596 19.147c12.286 12.638 20.122 28.372 20.122 47.202 0 18.831-7.836 34.565-20.122 47.203q-18.238 19.146-45.596 19.146h-44.347zm26.218 107.675h18.129q17.289 0 28.118-11.374 10.829-11.752 10.829-29.952 0-18.387-10.829-29.762-10.83-11.563-28.118-11.563H589.72z"/></svg>