<svg xmlns="http://www.w3.org/2000/svg" fill="none" viewBox="0 0 257 256"><path fill="#000" d="M225.3 128.026a96.987 96.987 0 1 1-193.975.001 96.987 96.987 0 0 1 193.975-.001M97.68 43.528c26.367-6.347 53.739-.322 74.827 16.485 26.953 21.481 38.744 56.847 29.934 90.24-12.086 45.774-58.308 73.057-104.156 62.416q-1.387-.321-.047.154c36.987 13.169 78.739.577 102.149-30.963 27.961-37.671 22.679-90.358-12.828-121.482-24.871-21.799-58.685-27.902-89.91-16.952q-.048.016-.032.063v.004q.015.047.063.035m-6.72 159.613q.2.137.302.172c41.147 14.572 85.558-5.911 101.544-46.166 8.7-21.913 6.925-47.216-4.47-67.786-19.277-34.796-60.695-49.937-97.946-36.269q-.028.013-.032-.02-.062-.51.008.044.001.008.006.016l.012.011q.007.005.014.006.008 0 .015-.002 19.53-4.568 38.198.59c52.879 14.603 73.983 77.836 40.656 121.363-6.693 8.74-15.86 16.418-25.876 21.473q-25.012 12.62-52.919 6.399l-.006.002-.004.005v.007l.002.005a.32.32 0 0 0 .189.051.57.57 0 0 1 .306.099M78.904 191.53c29.639 13.661 64.977 5.134 84.922-20.888 19.985-26.076 19.27-62.84-2.278-87.993-20.31-23.712-53.806-31.367-82.412-18.229q-.06.027-.035.087.023.061.086.039a53 53 0 0 1 5.947-1.736c23.099-5.303 47.243 1.65 63.61 18.708 22.765 23.735 25.184 60.554 5.259 86.862-16.65 21.991-44.195 31.182-70.884 24.372-1.261-.322-2.793-.864-4.184-1.304q-.648-.204-.03.082m-10.157-24.713c-22.07-23.991-19.961-61.556 5.33-82.581 13.464-11.195 31.072-15.582 48.311-11.952q.048.01.063-.036v-.004q.012-.047-.031-.063c-23.41-9.183-50.067-2.69-66.658 15.92-14.097 15.813-18.857 38.126-12.353 58.307 10.656 33.056 46.709 49.847 79.034 37.483q.055-.02.04-.071l-.004-.004q-.016-.055-.067-.043c-19.749 4.097-40.181-2.294-53.665-16.956m60.888 7.349h.094q.012 0 .008-.016v-.008q0-.015-.016-.016c-31.48 5.986-59.658-19.819-55.876-51.752 3.19-26.885 29.187-46.01 55.782-40.448q.016.005.016-.016v-.05q0-.004-.043-.024-13.414-5.464-27.334-3.127c-29.552 4.965-48.338 34.918-39.611 63.787 8.024 26.536 35.817 41.139 62.326 33.394a33 33 0 0 0 4.568-1.705.2.2 0 0 1 .086-.019m6.901-9.506q.099-.01.13-.074.039-.08-.047-.063c-22.11 3.653-42.247-12.887-43.096-35.169-.876-22.954 19.733-41.56 42.447-37.883q1.359.22.087-.307c-18.602-7.67-39.961-.73-50.15 16.815-10.05 17.321-5.636 39.442 10.13 51.67 11.418 8.853 26.984 10.911 40.362 5.047a1 1 0 0 1 .137-.036m23.967-36.634a29.994 29.994 0 0 0-51.2-21.208 29.992 29.992 0 1 0 51.2 21.208"/></svg>
