<svg xmlns="http://www.w3.org/2000/svg" fill="none" viewBox="0 0 257 256"><path fill="url(#paint0_radial_7881_771)" d="M226.058 128.026a96.987 96.987 0 1 1-193.975.001 96.987 96.987 0 0 1 193.975-.001M98.438 43.528c26.367-6.347 53.739-.322 74.827 16.485 26.953 21.481 38.744 56.847 29.934 90.24-12.086 45.774-58.308 73.057-104.157 62.416q-1.386-.321-.047.154c36.988 13.169 78.74.577 102.15-30.963 27.961-37.671 22.678-90.358-12.829-121.482-24.87-21.799-58.684-27.902-89.91-16.952q-.047.016-.031.063v.004q.015.047.063.035m-6.72 159.613q.199.137.302.172c41.147 14.572 85.558-5.911 101.544-46.166 8.7-21.913 6.925-47.216-4.47-67.786-19.277-34.796-60.695-49.937-97.946-36.269q-.029.013-.032-.02-.063-.51.008.044l.006.016.012.011q.006.005.014.006.008 0 .015-.002 19.529-4.568 38.198.59c52.879 14.603 73.983 77.836 40.656 121.363-6.693 8.74-15.86 16.418-25.876 21.473q-25.012 12.62-52.919 6.399l-.006.002-.004.005v.007q0 .003.002.005a.32.32 0 0 0 .189.051.57.57 0 0 1 .306.099M79.662 191.53c29.639 13.661 64.977 5.134 84.922-20.888 19.984-26.076 19.27-62.84-2.278-87.993-20.31-23.712-53.806-31.367-82.411-18.229q-.06.027-.036.087.024.061.087.039a53 53 0 0 1 5.946-1.736c23.099-5.303 47.243 1.65 63.61 18.708 22.766 23.735 25.185 60.554 5.26 86.862-16.65 21.992-44.196 31.182-70.885 24.372-1.26-.322-2.792-.864-4.183-1.304q-.648-.204-.031.082m-10.157-24.713c-22.07-23.991-19.961-61.556 5.33-82.581C88.3 73.04 105.908 68.654 123.147 72.284q.047.01.063-.036v-.004q.012-.047-.031-.063c-23.41-9.183-50.068-2.69-66.658 15.92-14.097 15.813-18.858 38.126-12.353 58.307 10.656 33.056 46.709 49.847 79.034 37.483q.055-.02.039-.071l-.004-.004q-.015-.055-.066-.043c-19.749 4.097-40.181-2.294-53.665-16.956m60.888 7.349h.094q.012 0 .008-.016v-.008q0-.015-.016-.016c-31.48 5.986-59.658-19.819-55.876-51.752 3.19-26.885 29.187-46.01 55.782-40.448q.016.005.016-.016v-.05q0-.004-.044-.024-13.413-5.464-27.333-3.127c-29.552 4.965-48.339 34.918-39.611 63.787 8.024 26.536 35.817 41.139 62.325 33.394a33 33 0 0 0 4.568-1.705.2.2 0 0 1 .087-.019m6.901-9.506q.098-.01.13-.074.039-.08-.048-.063c-22.109 3.653-42.247-12.887-43.095-35.169-.876-22.954 19.733-41.56 42.447-37.883q1.359.22.087-.307c-18.602-7.67-39.961-.73-50.15 16.815-10.051 17.321-5.636 39.442 10.13 51.67 11.418 8.853 26.983 10.911 40.361 5.047a1 1 0 0 1 .138-.036m23.967-36.634a29.994 29.994 0 0 0-59.985 0 29.991 29.991 0 1 0 59.985 0"/><defs><radialGradient id="paint0_radial_7881_771" cx="0" cy="0" r="1" gradientTransform="rotate(1.201 -5515.13 6485.945)scale(58.7362)" gradientUnits="userSpaceOnUse"><stop stop-color="#1543D8"/><stop offset="1" stop-color="#477BFF"/></radialGradient></defs></svg>