<svg width="256" height="256" viewBox="0 0 256 256" fill="none" xmlns="http://www.w3.org/2000/svg">
<path d="M30.207 109.295C41.6305 114.738 104.715 140.08 114.604 144.842C124.493 149.605 131.654 149.605 144.271 143.142C156.888 136.508 216.222 112.357 227.646 106.404C233.443 103.343 236 100.962 236 98.9205V77.6604C236 75.4494 233.102 73.5785 227.475 71.5375C216.393 67.4556 157.4 44.1545 146.147 39.9024C134.894 35.8205 130.29 35.9906 116.991 40.7528C103.692 45.5151 41.119 70.0068 29.866 74.4289C24.41 76.6399 21.341 78.5108 21.341 80.7219H21V102.322C21.341 104.363 24.5805 106.574 30.207 109.295ZM133.189 112.357L98.5773 98.0701L148.193 90.4165L133.189 112.357ZM208.379 78.3407L179.053 89.9063L175.814 91.0968L146.488 79.5313L179.053 66.7752L208.379 78.3407ZM122.106 57.0806L117.332 48.2364L132.336 54.0192L146.488 49.427L142.737 58.6113L157.059 64.0539L138.474 65.9248L134.382 75.9596L127.733 64.9043L106.25 63.0334L122.106 57.0806ZM85.1079 69.4965C99.7708 69.4965 111.706 74.0887 111.706 79.7014C111.706 85.3141 99.7708 89.9063 85.1079 89.9063C70.4449 89.9063 58.5099 85.3141 58.5099 79.7014C58.5099 74.0887 70.4449 69.4965 85.1079 69.4965ZM227.646 121.371C216.222 127.324 157.059 151.646 144.442 158.109C131.825 164.742 124.834 164.572 114.945 159.81C105.056 155.047 41.6305 129.705 30.3775 124.263C24.5805 121.541 21.341 119.33 21.341 117.119V138.72C21.341 140.931 24.5805 143.142 30.207 145.863C41.6305 151.306 104.715 176.648 114.604 181.41C124.493 186.172 131.654 186.172 144.271 179.709C156.888 173.076 216.222 148.924 227.646 142.972C233.443 139.91 236 137.529 236 135.488V114.228C236 116.099 233.272 118.48 227.646 121.371ZM227.646 156.578C216.222 162.531 157.059 186.852 144.442 193.316C131.825 199.949 124.834 199.779 114.945 195.016C105.056 190.254 41.6305 164.912 30.3775 159.469C24.5805 156.918 21.341 154.537 21.341 152.326V173.926C21.341 176.137 24.5805 178.348 30.207 181.07C41.6305 186.512 104.715 211.854 114.604 216.617C124.493 221.379 131.654 221.379 144.271 214.916C156.888 208.283 216.222 184.131 227.646 178.178C233.443 175.117 236 172.736 236 170.695V149.435C236 151.476 233.272 153.687 227.646 156.578Z" fill="black"/>
</svg>
