<svg xmlns="http://www.w3.org/2000/svg" fill="none" viewBox="0 0 256 256"><path fill="#000" fill-rule="evenodd" d="M89.753 203.453a43.89 43.89 0 0 1-43.888-43.888 43.89 43.89 0 0 1 43.888-43.887h68.269a24.381 24.381 0 0 0 0-48.764h-65.05a29.269 29.269 0 1 1 0-19.506h65.05a43.89 43.89 0 0 1 43.888 43.888 43.9 43.9 0 0 1-12.854 31.033 43.9 43.9 0 0 1-31.034 12.854h-68.27a24.38 24.38 0 0 0-24.381 24.382 24.38 24.38 0 0 0 24.382 24.382h98.801l-14.264-17.831a9.9 9.9 0 0 1-2.858-6.97 9.9 9.9 0 0 1 2.858-6.97 9.7 9.7 0 0 1 6.899-2.887 9.7 9.7 0 0 1 6.898 2.887l29.125 34.619c3.63 4.228 3.565 10.52-.153 14.67l-28.972 33.54a9.7 9.7 0 0 1-6.898 2.888 9.7 9.7 0 0 1-6.899-2.888 9.9 9.9 0 0 1-2.858-6.97 9.9 9.9 0 0 1 2.858-6.97l14.264-17.612zM72.267 50.265a9.753 9.753 0 1 1-13.793 13.792 9.753 9.753 0 0 1 13.793-13.793" clip-rule="evenodd"/></svg>