<svg xmlns="http://www.w3.org/2000/svg" version="1.0" viewBox="0 0 512 512"><path d="M236.9.4c-.2.2-3.3.6-6.9 1C143.8 9.6 66 63.5 27 141.9c-8.4 16.9-18.3 44.2-20.4 56.4-.3 1.5-.7 3.5-1 4.5-.3.9-.8 3.5-1.1 5.7-.4 2.2-.9 4.9-1 6-.8 4.2-1.6 10.3-2.4 17-.9 7.9-.9 47 0 47.9.5.5 11.1-5.2 29.7-16.1 1.7-1 9.6-5.6 17.7-10.2 14.4-8.3 14.5-8.3 14.6-12 0-2 .2-4.3.3-5.1.2-.8.6-3.9 1-6.9 2.3-19.4 10.7-45.2 20.7-63.9 21.7-40.6 57.6-72.5 100.4-89.4 8.5-3.4 24.3-8.1 31-9.2 1.7-.3 4.3-.8 5.8-1.2 14.7-3.2 46.2-3.7 62.2-.9 43.4 7.5 77.8 24.7 107.3 53.8 4.6 4.5 9.6 9.7 11 11.6 1.5 1.8 3.9 4.7 5.3 6.3l2.5 3 12.5-7.2c6.8-4 18.8-10.9 26.6-15.3 7.9-4.5 14.3-8.6 14.3-9.1 0-.8-6.9-10.5-9.5-13.2-.5-.6-3-3.5-5.5-6.5-15-17.9-39.8-38.5-62.5-52.1-24-14.3-57.9-27.1-83-31.3-1.6-.3-3.9-.7-5-.9s-4.5-.7-7.5-1.1-6.4-.9-7.5-1.2c-2.3-.5-46.1-1.4-46.6-.9"/><path d="M470 132.4c-15.9 9.3-37.7 21.9-41.5 24-2.2 1.2-11.4 6.5-20.5 11.8s-28 16.2-42 24.3-34.7 20-46 26.6c-11.3 6.5-21.3 12.1-22.1 12.4-1 .4-2.7-1.2-5.3-4.9-21.3-30.9-62.2-43.2-97.6-29.4-6.2 2.4-7.1 2.9-24.8 13.2-7 4-20.3 11.7-29.7 17.1-64.2 37-81.5 47.2-85.5 50.4C35.1 293.8 24.1 316 23.7 341c-.2 15 1.6 24.1 7.5 36.8l2.9 6.3 5.7-3.2c3.1-1.8 6.2-3.5 6.7-3.9.6-.4 3-1.9 5.5-3.3 3.5-1.9 50-28.7 65.5-37.7 1.7-1 7.5-4.4 13-7.5 5.5-3.2 12.7-7.4 16-9.3s7.6-4.3 9.5-5.4c8.2-4.7 44.1-25.4 50.9-29.4 4-2.4 7.7-4.4 8.1-4.4.3 0 2.3 2.4 4.4 5.4 5.3 7.7 13.4 15.7 21.3 20.9 7.3 4.9 17 9.6 21.1 10.3 1.4.3 2.9.7 3.3 1 .4.2 3.9 1 7.8 1.7 7.3 1.4 20.3 1.5 28.1.2 6.2-1 17.8-5 23.5-8.1 6.5-3.4 77.1-44.1 81.7-47 2.1-1.3 4-2.4 4.3-2.4.2 0 2.9-1.6 5.9-3.5s5.7-3.5 6-3.5c.2 0 4-2.1 8.3-4.6 4.3-2.6 9.8-5.8 12.3-7.2 22.8-12.6 37-30.3 43.1-53.7 3.6-13.9 3.1-31.8-1.2-44.7-1.8-5.5-6.7-16.8-7.2-16.8-.1 0-3.6 2-7.7 4.4"/><path d="M492.5 242.1c-9.3 5.4-23 13.3-30.2 17.5-13.1 7.5-13.3 7.6-13.4 11.2-.1 2.1-.3 4.6-.4 5.7-.2 1.1-.6 4.2-.9 6.9-.4 2.7-.9 5.9-1.1 7-.3 1.2-.7 3.2-.9 4.6s-1.2 5.2-2.1 8.5-1.8 6.7-2 7.5c-.8 3.2-2.4 7.8-4.7 14-21.6 56.5-68.5 99.7-126.8 116.8-11.2 3.3-12.1 3.5-27.5 5.8-14.2 2.2-42.7 2.2-54.2-.1-1.1-.2-3.8-.6-5.9-.9-30.3-4.9-64.2-20.5-89.7-41.4-7.3-6.1-20-18.8-27.3-27.6l-4-4.8-26.7 15.3C60.1 396.6 48.1 404 48 404.5c-.1 3.3 25.2 31.6 39 43.8 36.8 32.5 86.9 55.3 134.5 61.2 2.8.4 7.7 1 11 1.5 6.4.8 47.3.6 51.5-.4 1.4-.3 4.5-.8 7-1 16.6-1.8 49.9-11 66.6-18.6 57-25.7 99.5-65.8 126.7-119.5 10.7-21.1 19.7-47.6 23.3-68.5.4-2.5.8-4.7.9-5s.5-3.4.9-7c.5-3.6 1-7.4 1.3-8.5.7-2.9 1.2-43.4.6-47.3-.3-1.7-.8-3.2-1.2-3.1-.3 0-8.2 4.5-17.6 10"/></svg>
