<svg xmlns="http://www.w3.org/2000/svg" fill="none" viewBox="0 0 256 256"><path fill="#000" fill-rule="evenodd" d="m140.518 25.468 76.549 30.849a18.1 18.1 0 0 1 6.958 6.577 17.6 17.6 0 0 1 2.556 9.128v32.401c0 54.951-33.739 104.569-85.664 125.982a34.5 34.5 0 0 1-26.253 0C62.739 208.992 29 159.374 29 104.423V72.022c0-3.212.882-6.365 2.556-9.129a18.1 18.1 0 0 1 6.957-6.576l76.55-30.85a34.06 34.06 0 0 1 25.455 0M118 150.033h20V79h-20zm17.13 33.09Q132.25 186 128 186q-4.24.01-7.12-2.867t-2.88-7.122q.01-4.236 2.88-7.112t7.12-2.877q4.24.01 7.12 2.877t2.88 7.112q.01 4.236-2.87 7.112" clip-rule="evenodd"/></svg>