<svg xmlns="http://www.w3.org/2000/svg" fill="none" viewBox="0 0 256 256"><path fill="#000" d="M18 193.714c0-7.258 5.873-13.143 13.118-13.143h92.037a26.3 26.3 0 0 1 12.714-11.142 26.33 26.33 0 0 1 16.875-1.105 26.3 26.3 0 0 1 14.06 9.389 26.27 26.27 0 0 1 0 32.003 26.3 26.3 0 0 1-14.06 9.388 26.32 26.32 0 0 1-16.875-1.105 26.3 26.3 0 0 1-12.714-11.142H31.118c-7.245 0-13.118-5.884-13.118-13.143m167.391-13.143h39.491c7.245 0 13.118 5.885 13.118 13.143s-5.873 13.143-13.118 13.143h-39.491zM57.394 114.857H31.118C23.873 114.857 18 120.741 18 128s5.873 13.143 13.118 13.143h26.276a26.3 26.3 0 0 0 12.714 11.142 26.32 26.32 0 0 0 30.935-8.283 26.276 26.276 0 0 0 0-32.004 26.32 26.32 0 0 0-30.935-8.283 26.3 26.3 0 0 0-12.714 11.142M238 128c0-7.259-5.873-13.143-13.118-13.143H119.63v26.286h105.252c7.245 0 13.118-5.884 13.118-13.143M123.155 49.143H31.118C23.873 49.143 18 55.027 18 62.286c0 7.258 5.873 13.143 13.118 13.143h92.037a26.3 26.3 0 0 0 12.714 11.142 26.32 26.32 0 0 0 16.875 1.105 26.3 26.3 0 0 0 14.06-9.389 26.274 26.274 0 0 0 0-32.003 26.3 26.3 0 0 0-14.06-9.388A26.32 26.32 0 0 0 135.869 38a26.3 26.3 0 0 0-12.714 11.142M238 62.286c0-7.259-5.873-13.143-13.118-13.143h-39.491v26.286h39.491c7.245 0 13.118-5.885 13.118-13.143"/></svg>
