<svg xmlns="http://www.w3.org/2000/svg" fill="none" viewBox="0 0 256 256"><path fill="#000" d="M228 138.389c0 8.5-6.888 15.391-15.385 15.391h-25.533l26.259 45.938c4.399 7.695-1.155 17.273-10.016 17.273h-97.354c-8.856 0-14.41-9.567-10.023-17.262l16.232-28.467a57.7 57.7 0 0 1-13.477 5.728 56 56 0 0 1-14.453 2.074q-11.621 0-21.875-4.444t-17.871-12.247-12.012-18.075T28 122.174q0-11.753 4.395-22.123t12.109-18.075 17.871-12.148q10.156-4.445 21.875-4.544 8.301 0 16.211 2.37t15.039 7.21V55.392c0-8.5 6.888-15.391 15.385-15.391h81.73C221.112 40 228 46.89 228 55.39zM84.25 166.422q9.082 0 16.992-3.457t13.867-9.58a46.3 46.3 0 0 0 9.375-14.025q3.418-7.901 3.516-17.186 0-9.086-3.418-17.086-3.418-8.001-9.375-14.124t-13.867-9.482-17.09-3.555q-9.082 0-16.992 3.456-7.91 3.458-13.867 9.482-5.958 6.025-9.375 14.025-3.418 8-3.516 17.284 0 9.186 3.418 17.186t9.375 14.025 13.867 9.482q7.91 3.456 17.09 3.555m110.65 37.927c2.955 0 4.807-3.195 3.339-5.76q-10.143-17.737-20.141-35.327a15695 15695 0 0 0-20.101-35.256c-1.477-2.582-5.197-2.582-6.673 0q-10.123 17.7-20.101 35.256a15814 15814 0 0 1-20.142 35.327c-1.467 2.565.384 5.76 3.339 5.76zm20.6-147.86a3.847 3.847 0 0 0-3.846-3.847h-79.808A3.847 3.847 0 0 0 128 56.49v30.425a56.7 56.7 0 0 1 9.18 16.296q3.222 8.89 3.32 18.568l4.136-7.27c4.424-7.776 15.628-7.778 20.054-.004l15.165 26.633h31.799a3.847 3.847 0 0 0 3.846-3.848z"/></svg>