<svg xmlns="http://www.w3.org/2000/svg" fill="none" viewBox="0 0 256 256"><path fill="#000" fill-rule="evenodd" d="M210.286 65.692h-93.257L101.257 43.54a13.74 13.74 0 0 0-4.838-4.077A13.6 13.6 0 0 0 90.286 38H45.714a13.65 13.65 0 0 0-9.697 4.055A13.9 13.9 0 0 0 32 51.846v152.308c0 3.672 1.445 7.194 4.017 9.791A13.65 13.65 0 0 0 45.714 218h164.572a13.65 13.65 0 0 0 9.697-4.055 13.92 13.92 0 0 0 4.017-9.791V79.539c0-3.673-1.445-7.195-4.017-9.791a13.65 13.65 0 0 0-9.697-4.056M130.109 181.99a18 18 0 0 0 2.394-11.84 18 18 0 0 0-.779-3.348l12.096-10.658a25.3 25.3 0 0 0 13.862 5.313 25.25 25.25 0 0 0 14.444-3.394 25.5 25.5 0 0 0 10.095-10.942 25.7 25.7 0 0 0 2.299-14.754 25.63 25.63 0 0 0-6.281-13.53 25.35 25.35 0 0 0-12.717-7.686 25.2 25.2 0 0 0-14.812.782 25.4 25.4 0 0 0-11.849 8.982l-33.978-11.924a17.98 17.98 0 0 0-3.703-11.92 17.75 17.75 0 0 0-10.543-6.576 17.66 17.66 0 0 0-12.248 1.97 17.86 17.86 0 0 0-7.984 9.555 18 18 0 0 0 .167 12.488 17.85 17.85 0 0 0 8.239 9.335 17.66 17.66 0 0 0 12.295 1.635 17.76 17.76 0 0 0 10.363-6.861l33.167 11.627a25.7 25.7 0 0 0-.383 9.297 25.7 25.7 0 0 0 2.934 8.824l-11.449 10.152a17.7 17.7 0 0 0-11.426-3.69 17.7 17.7 0 0 0-11.15 4.465 17.93 17.93 0 0 0-5.79 10.583 18 18 0 0 0 2.212 11.876 17.8 17.8 0 0 0 9.203 7.753 17.66 17.66 0 0 0 12 .094 17.8 17.8 0 0 0 9.322-7.608" clip-rule="evenodd"/></svg>