<svg xmlns="http://www.w3.org/2000/svg" fill="none" viewBox="0 0 256 256"><path fill="#000" d="M134.157 182.907c-3.506 3.324-8.739 3.324-12.245 0l-31.55-29.916c-4.449-4.218-4.427-11.727.045-15.914 3.654-3.421 9.07-3.417 12.719.01l14.315 13.439v-45.052l-14.315 13.439c-3.65 3.427-9.065 3.431-12.719.01-4.472-4.187-4.494-11.696-.046-15.914l31.551-29.916c3.506-3.324 8.739-3.324 12.245 0l31.55 29.916c4.448 4.218 4.426 11.727-.046 15.914-3.654 3.421-9.069 3.417-12.719-.01l-14.314-13.439v45.052l14.314-13.439c3.65-3.427 9.065-3.431 12.719-.01 4.472 4.187 4.494 11.696.046 15.914zM210.874 37H46.126C39.96 37 33 43.268 33 51s6.959 14 13.126 14h164.748C217.041 65 224 58.732 224 51s-6.959-14-13.126-14m0 154H46.126C39.96 191 33 197.268 33 205s6.959 14 13.126 14h164.748c6.167 0 13.126-6.268 13.126-14s-6.959-14-13.126-14"/></svg>