<svg width="256" height="256" viewBox="0 0 256 256" fill="none" xmlns="http://www.w3.org/2000/svg">
<path d="M134.157 182.907C130.651 186.231 125.418 186.231 121.912 182.907L90.3611 152.991C85.9132 148.773 85.9349 141.264 90.4072 137.077C94.0611 133.656 99.4767 133.66 103.126 137.087L117.441 150.526V105.474L103.126 118.913C99.4767 122.34 94.0611 122.344 90.4072 118.923C85.9349 114.736 85.9132 107.227 90.3611 103.009L121.912 73.0932C125.418 69.7689 130.651 69.7689 134.157 73.0932L165.707 103.009C170.155 107.227 170.133 114.736 165.661 118.923C162.007 122.344 156.592 122.34 152.942 118.913L138.628 105.474V150.526L152.942 137.087C156.592 133.66 162.007 133.656 165.661 137.077C170.133 141.264 170.155 148.773 165.707 152.991L134.157 182.907Z" fill="black"/>
<path d="M210.874 37H46.1264C39.9588 37 33 43.268 33 51C33 58.732 39.9588 65 46.1264 65H210.874C217.041 65 224 58.732 224 51C224 43.268 217.041 37 210.874 37Z" fill="black"/>
<path d="M210.874 191H46.1264C39.9588 191 33 197.268 33 205C33 212.732 39.9588 219 46.1264 219H210.874C217.041 219 224 212.732 224 205C224 197.268 217.041 191 210.874 191Z" fill="black"/>
</svg>
