<svg xmlns="http://www.w3.org/2000/svg" fill="none" viewBox="0 0 256 256"><path fill="#000" d="M32.786 130.858q13.182-33.525 26.436-67.02c1.735-4.395 2.882-8.258 7.384-10.468q3.35-1.652 11.563-3.902 57.35-15.73 78.082-21.105c5.643-1.462 11.402 1.642 14.857 6.575q36.984 52.811 55.001 79.069c2.409 3.511 1.851 6.725.236 10.804q-15.708 39.753-31.436 79.496c-2.258 5.711-6.051 6.866-12.227 8.001a349369 349369 0 0 1-81.95 15.018q-4.97.909-6.83.592c-4.607-.793-7.585-5.042-10.02-8.181q-41.49-53.616-52.797-68.442c-4.491-5.892-.684-14.37 1.7-20.437M126.087 68.9a.18.18 0 0 0-.093.169.18.18 0 0 0 .118.152l42.819 14.31a.18.18 0 0 0 .192-.05.18.18 0 0 0 .024-.197l-14.209-28.653a.18.18 0 0 0-.102-.09.18.18 0 0 0-.135.01zm41.888 38.744a.16.16 0 0 0 .056-.153.16.16 0 0 0-.106-.124L112.934 89.1a.16.16 0 0 0-.162.036.16.16 0 0 0-.044.16l13.656 50.673a.16.16 0 0 0 .257.085zM60.394 136.046a.166.166 0 0 0 .1.261l43.166 8.614a.2.2 0 0 0 .082-.005.2.2 0 0 0 .07-.045.2.2 0 0 0 .04-.073.2.2 0 0 0-.001-.083L90.98 96.87a.166.166 0 0 0-.292-.06zm113.476 44.279a.2.2 0 0 0 .082.026.18.18 0 0 0 .151-.075.2.2 0 0 0 .028-.082l4.25-50.984a.17.17 0 0 0-.088-.167.17.17 0 0 0-.188.017l-37.965 29.748a.2.2 0 0 0-.051.064.16.16 0 0 0-.015.081.18.18 0 0 0 .081.137zm-81.03 13.4q.028.035.069.054a.2.2 0 0 0 .085.012.17.17 0 0 0 .133-.101l10.548-24.947a.164.164 0 0 0-.116-.226l-35.41-7.218a.17.17 0 0 0-.097.011.166.166 0 0 0-.068.251zm32.533-16.635a.16.16 0 0 0-.131-.015.2.2 0 0 0-.058.035.2.2 0 0 0-.037.056l-10.191 23.957a.2.2 0 0 0-.012.083.16.16 0 0 0 .1.126q.041.015.083.007l37.346-6.906a.15.15 0 0 0 .079-.043.155.155 0 0 0-.023-.238z"/></svg>