<svg width="256" height="256" viewBox="0 0 256 256" fill="none" xmlns="http://www.w3.org/2000/svg">
<path d="M78.6729 107.757L127.512 59.034L176.352 107.757C178.475 109.833 181.33 110.996 184.303 110.996C187.276 110.996 190.13 109.833 192.253 107.757C194.334 105.639 195.5 102.791 195.5 99.8254C195.5 96.8595 194.334 94.0118 192.253 91.8937L135.463 35.239C133.34 33.1629 130.485 32 127.512 32C124.539 32 121.685 33.1629 119.562 35.239L62.7716 91.8937C61.1312 94.0758 60.3348 96.7749 60.5286 99.4955C60.7224 102.216 61.8934 104.776 63.8267 106.704C65.76 108.633 68.3257 109.801 71.0529 109.995C73.7801 110.188 76.4856 109.394 78.6729 107.757Z" fill="black"/>
<path d="M127.512 197.466L176.352 148.743C178.539 147.106 181.245 146.312 183.972 146.505C186.699 146.699 189.265 147.867 191.198 149.796C193.131 151.724 194.302 154.284 194.496 157.004C194.69 159.725 193.894 162.424 192.253 164.606L135.463 221.261C133.34 223.337 130.485 224.5 127.512 224.5C124.539 224.5 121.685 223.337 119.562 221.261L62.7716 164.606C61.1312 162.424 60.3348 159.725 60.5286 157.004C60.7224 154.284 61.8934 151.724 63.8267 149.796C65.76 147.867 68.3257 146.699 71.0529 146.505C73.7801 146.312 76.4856 147.106 78.6729 148.743L127.512 197.466Z" fill="black"/>
</svg>
