<svg xmlns="http://www.w3.org/2000/svg" fill="none" viewBox="0 0 256 256"><path fill="#000" d="m78.673 107.757 48.839-48.723 48.84 48.723a11.373 11.373 0 0 0 15.901 0 11.32 11.32 0 0 0 3.247-7.932c0-2.966-1.166-5.813-3.247-7.931l-56.79-56.655a11.373 11.373 0 0 0-15.901 0l-56.79 56.655a11.31 11.31 0 0 0 1.055 14.81 11.37 11.37 0 0 0 14.846 1.053m48.839 89.709 48.84-48.723a11.38 11.38 0 0 1 14.846 1.053 11.31 11.31 0 0 1 1.055 14.81l-56.79 56.655a11.373 11.373 0 0 1-15.901 0l-56.79-56.655a11.31 11.31 0 0 1 1.055-14.81 11.37 11.37 0 0 1 14.846-1.053z"/></svg>