<svg width="256" height="256" viewBox="0 0 256 256" fill="none" xmlns="http://www.w3.org/2000/svg">
<path d="M116.823 16.0052C112.832 16.1177 108.89 18.0144 105.594 21.6707C103.782 23.6852 102.243 26.0828 100.968 28.4471C97.6438 34.6699 96.9895 41.7135 95.7583 48.5392L88.9829 86.8776C88.7226 88.3823 88.0472 89.0046 86.6963 89.4353L36.9751 105.221C33.3517 106.404 29.7195 107.933 26.5148 109.967C16.7387 116.172 15.2928 126.381 22.6328 135.346C25.8728 139.312 30.0484 142.102 34.6814 144.129L65.6438 157.915C65.9023 158.056 66.1785 158.147 66.4581 158.2L72.9961 162.915C72.9961 162.915 66.488 234.895 78.7055 239.874C78.5982 239.857 77.9844 239.73 77.9844 239.73C77.9844 239.73 79.2226 241.068 82.5628 240.674C85.1203 241.149 84.7826 241.072 82.693 240.657C87.2363 240.07 95.5982 236.267 110.093 221.7C111.16 220.745 112.202 219.763 113.217 218.754L144.526 184.974L151.849 187.549C152.112 187.913 152.494 188.147 153.104 188.328L187.972 198.929C192.736 200.399 197.45 201.475 202.53 200.733C211.599 199.406 218.274 191.944 218.185 182.817C218.149 178.809 216.742 175.19 214.895 171.7L191.804 127.934C191.069 126.55 191.092 125.656 192.149 124.418L230.94 78.8514C233.452 75.8578 235.719 72.6479 237.035 68.9284C239.925 60.7193 236.187 54.1942 227.66 52.5998C223.739 51.9002 219.873 52.2693 216.051 53.2766L160.474 68.0336C158.839 68.4731 158.029 68.1655 157.141 66.6766L134.451 28.9991C132.736 26.1602 130.687 23.3846 128.335 21.0414C124.854 17.5626 120.814 15.8944 116.823 16.0052ZM118.484 50.6978C119.381 51.3271 119.834 51.9758 120.26 52.6754L144.674 93.3342C145.346 94.4381 145.949 94.8283 147.286 94.4732L190.279 83.0526L200.631 80.3455C200.478 81.2121 200.099 81.7342 199.686 82.2229L164.226 123.834C163.224 125.044 163.13 125.891 163.885 127.308L186.299 169.777L187.328 171.952L187.301 171.987L147.326 160.976L147.316 160.944L139.756 158.826L94.9158 208.495L103.118 143.192L95.7583 139.992L95.7723 139.98L54.1316 123.456C54.9302 122.73 55.6443 122.428 56.3918 122.196L107.008 106.207C108.197 105.838 108.875 105.381 108.987 104.024L109.696 99.8839L116.512 61.5507L118.484 50.6978Z" fill="black"/>
</svg>
