<svg xmlns="http://www.w3.org/2000/svg" fill="none" viewBox="0 0 256 256"><path fill="#000" fill-rule="evenodd" d="M55.588 213q-5.782 0-10.638-2.514-4.857-2.514-7.759-7.52-6.832-12.411-10.512-25.741T23 149.625q0-21.917 8.284-41.194 8.283-19.276 22.464-33.536Q67.93 60.636 87.125 52.323q19.194-8.312 40.997-8.323 21.55 0 40.472 8.186t33.114 22.318 22.601 33.008q8.41 18.875 8.673 40.529.263 14.523-3.28 28.392t-10.912 26.533q-2.89 5.017-7.747 7.531T200.383 213zm71.065-39.337q-10.557-.144-17.092-7.435-6.524-7.28-5.26-17.361 1.265-10.083 8.756-14.69l72.801-43.135q4.035-2.3 7.035 1.06 3 3.357.284 7.106l-50.843 67.632q-5.124 6.966-15.681 6.823" clip-rule="evenodd"/></svg>