<svg xmlns="http://www.w3.org/2000/svg" fill="none" viewBox="0 0 256 256"><path fill="#000" fill-rule="evenodd" d="M55.588 213q-5.782 0-10.638-2.514-4.857-2.514-7.759-7.52-6.832-12.411-10.512-25.741T23 149.625q0-21.917 8.284-41.194 8.283-19.276 22.464-33.536Q67.93 60.636 87.125 52.323q19.194-8.312 40.997-8.323 21.55 0 40.472 8.186t33.114 22.318 22.601 33.008q8.41 18.875 8.673 40.529.263 14.523-3.28 28.392t-10.912 26.533q-2.89 5.017-7.747 7.531T200.383 213zm60.658-40.314q7.907 4.905 17.535 2.216t12.402-10.414l27.922-75.284q1.455-4.145-2.177-6.407t-6.677.913l-54.485 58.802q-5.562 6.206-3.987 15.741 1.574 9.536 9.467 14.433m88.088 18.834-27.541-15.977a5.286 5.286 0 0 0-7.24 1.949c-1.464 2.548-.595 5.805 1.94 7.275l27.541 15.977a5.286 5.286 0 0 0 7.24-1.949c1.464-2.547.595-5.804-1.94-7.275m-26.252-72.549 28.822-13.504a5.29 5.29 0 0 1 7.044 2.576c1.237 2.665.089 5.834-2.564 7.077l-28.822 13.504a5.29 5.29 0 0 1-7.043-2.576c-1.237-2.665-.09-5.834 2.563-7.077M122.645 62.64v31.954c0 2.94 2.373 5.325 5.301 5.325s5.3-2.384 5.3-5.325V62.64c0-2.942-2.373-5.326-5.3-5.326-2.928 0-5.301 2.384-5.301 5.326m-73.273 42.725 28.823 13.504c2.653 1.243 3.8 4.412 2.563 7.078a5.29 5.29 0 0 1-7.043 2.576l-28.823-13.504c-2.653-1.244-3.8-4.412-2.563-7.078a5.29 5.29 0 0 1 7.043-2.576m30.67 70.178-27.54 15.977c-2.536 1.471-3.404 4.728-1.94 7.275a5.286 5.286 0 0 0 7.24 1.949l27.54-15.977c2.536-1.47 3.405-4.727 1.94-7.275a5.286 5.286 0 0 0-7.24-1.949" clip-rule="evenodd"/></svg>