<svg xmlns="http://www.w3.org/2000/svg" fill="none" viewBox="0 0 257 256"><path fill="#000" d="M35.61 101.06c-6.48 2.568-12.749 7.306-18.133 13.692-4.618 5.476-7.697 11.568-9.44 20.043-2.57 12.491 1.29 21.631 4.911 32.283a102 102 0 0 1-.497-5.167c-.736-10.112 3.767-26.924 12.314-36.459 5.435-6.061 16.218-12.181 28.045-12.181 4.636 0 9.115.921 13.321 2.738 5.19 2.245 9.228 7.456 11.075 14.306 2.41 8.925 1.295 20.202-3.311 33.513-2.656 7.684-4.094 14.322-4.391 20.297a47 47 0 0 0-.01 4.087c.378 9.178 3.546 16.991 9.693 23.882 7.594 8.518 20.353 13.406 35 13.406a67 67 0 0 0 14.401-1.577c25.594-5.667 35.63-23.11 39.54-36.744l.001-.003q.13-.472.255-.943c2.952-11.419 1.182-23.596-5.271-36.193-4.166-8.14-8.911-14.123-13.097-19.401-6.674-8.415-11.94-15.057-12.231-26.173l-.004-.217-.017-.837-.005-.161c-.097-5.664-.261-15.149-8.839-15.149-.337 0-.696.013-1.054.042-2.81.215-4.887 1.124-6.181 2.7-1.045 1.275-3.154 5.1-.119 13.054 2.191 5.742 6.628 10.974 11.766 17.032 3.04 3.585 6.484 7.647 9.775 12.223 6.581 9.157 10.967 15.925 11.899 26.181.998 10.962-2.764 22.513-10.312 31.687-4.944 6.012-15.083 13.028-27.37 13.028-3.823 0-7.584-.693-11.187-2.062-5.292-2.008-9.233-5.817-11.09-10.73-3.475-9.169-1.618-17.94.537-28.097 1.018-4.784 2.067-9.73 2.6-15.053 1.53-15.211-4.893-31.982-15.983-41.732-7.17-6.307-16.131-9.639-25.906-9.639-2.845 0-5.824.278-8.843.834-3.844.722-7.83 1.897-11.843 3.49"/><path fill="#000" d="M222.007 154.94c6.479-2.568 12.748-7.302 18.132-13.692 4.252-5.042 7.075-10.677 8.839-18.481 2.724-12.056-.787-20.98-4.032-31.39q.126 1.304.229 2.712c.736 10.112-3.767 26.924-12.314 36.459-5.434 6.061-16.212 12.181-28.045 12.181-4.632 0-9.114-.921-13.321-2.738-5.189-2.245-9.227-7.46-11.075-14.306-2.41-8.925-1.295-20.202 3.311-33.513 2.277-6.584 3.649-12.339 4.187-17.588.23-2.327.302-4.614.209-6.796-.379-9.178-3.546-16.99-9.693-23.882-7.594-8.518-20.353-13.406-34.999-13.406-4.836 0-9.683.531-14.402 1.577-24.913 5.514-35.02 22.247-39.11 35.313q-.2.634-.378 1.261c-3.368 11.738-1.694 24.289 4.97 37.301 4.164 8.142 8.906 14.119 13.091 19.395l.005.006c6.673 8.414 11.939 15.057 12.231 26.172l.009.486.011.585v.129c.097 5.676.262 15.169 8.839 15.169q.515 0 1.054-.042c2.81-.215 4.887-1.124 6.182-2.701 1.05-1.278 3.158-5.103.122-13.057-2.189-5.737-6.625-10.968-11.761-17.025l-.003-.003c-3.041-3.581-6.48-7.634-9.781-12.223-6.581-9.157-10.967-15.92-11.899-26.181-.998-10.962 2.764-22.513 10.312-31.687 4.945-6.008 15.083-13.024 27.37-13.024 3.823 0 7.584.693 11.187 2.062 5.292 2.008 9.228 5.817 11.091 10.73 3.474 9.17 1.617 17.94-.537 28.097l-.002.007c-1.013 4.782-2.061 9.73-2.593 15.046-1.531 15.207 4.892 31.973 15.983 41.728 7.174 6.307 16.13 9.643 25.905 9.643 2.82 0 5.773-.274 8.767-.822 3.859-.718 7.866-1.896 11.909-3.502"/></svg>
