<svg xmlns="http://www.w3.org/2000/svg" fill="none" viewBox="0 0 256 256"><path fill="#000" d="M36.084 99.723c-6.405 2.538-12.604 7.22-17.926 13.53-4.566 5.411-7.61 11.431-9.334 19.806-2.54 12.342 1.277 21.374 4.856 31.9-.196-1.578-.358-3.27-.491-5.106-.729-9.992 3.724-26.605 12.174-36.026 5.373-5.99 16.034-12.038 27.727-12.038 4.584 0 9.011.91 13.17 2.706 5.131 2.218 9.123 7.368 10.95 14.137 2.383 8.819 1.28 19.962-3.274 33.115-2.626 7.593-4.048 14.153-4.341 20.057a47 47 0 0 0-.01 4.038c.374 9.069 3.506 16.789 9.583 23.599 7.509 8.417 20.122 13.247 34.604 13.247a66.2 66.2 0 0 0 14.237-1.558c25.305-5.6 35.227-22.837 39.093-36.309l.001-.003q.128-.466.252-.932c2.919-11.283 1.168-23.316-5.212-35.763-4.119-8.044-8.81-13.956-12.948-19.171-6.598-8.315-11.805-14.879-12.093-25.863l-.004-.214-.005-.262q-.007-.274-.011-.565l-.005-.16c-.096-5.596-.258-14.969-8.739-14.969-.334 0-.688.013-1.042.041-2.778.213-4.832 1.111-6.111 2.67-1.033 1.258-3.118 5.038-.117 12.898 2.166 5.674 6.552 10.844 11.632 16.83 3.006 3.542 6.411 7.556 9.664 12.078 6.507 9.049 10.843 15.736 11.764 25.871.987 10.832-2.732 22.246-10.195 31.311-4.888 5.94-14.912 12.873-27.06 12.873a31 31 0 0 1-11.06-2.037c-5.232-1.985-9.128-5.748-10.965-10.603-3.435-9.06-1.599-17.728.531-27.764 1.007-4.727 2.045-9.615 2.57-14.875 1.514-15.03-4.836-31.602-15.8-41.237-7.09-6.232-15.95-9.524-25.613-9.524-2.814 0-5.758.275-8.744.824-3.8.714-7.74 1.874-11.708 3.448"/><path fill="#000" d="M220.37 152.965c6.406-2.538 12.604-7.216 17.927-13.53 4.204-4.982 6.995-10.551 8.738-18.262 2.694-11.913-.777-20.731-3.986-31.019q.126 1.29.227 2.681c.728 9.992-3.725 26.605-12.174 36.026-5.373 5.99-16.029 12.038-27.728 12.038-4.579 0-9.011-.91-13.17-2.706-5.13-2.218-9.123-7.372-10.949-14.137-2.383-8.819-1.281-19.962 3.273-33.115 2.252-6.506 3.608-12.193 4.139-17.38a48 48 0 0 0 .208-6.715c-.375-9.07-3.506-16.79-9.584-23.6C169.783 34.83 157.169 30 142.688 30a66 66 0 0 0-14.238 1.558c-24.631 5.449-34.624 21.984-38.667 34.894q-.198.627-.374 1.247c-3.33 11.598-1.675 24 4.913 36.858 4.117 8.045 8.806 13.952 12.944 19.166l.004.005c6.597 8.315 11.804 14.879 12.093 25.863l.009.479q.007.282.01.578v.127c.097 5.609.259 14.99 8.739 14.99q.51 0 1.042-.041c2.778-.213 4.832-1.111 6.113-2.669 1.037-1.263 3.121-5.043.121-12.903-2.165-5.669-6.551-10.838-11.629-16.822l-.003-.004c-3.006-3.538-6.406-7.544-9.67-12.078-6.507-9.049-10.842-15.732-11.764-25.87-.987-10.833 2.732-22.247 10.195-31.312 4.889-5.937 14.912-12.87 27.06-12.87 3.78 0 7.499.685 11.061 2.038 5.232 1.985 9.123 5.748 10.965 10.603 3.435 9.06 1.599 17.728-.531 27.764l-.002.006c-1.002 4.726-2.038 9.615-2.564 14.869-1.513 15.026 4.837 31.594 15.802 41.233 7.093 6.232 15.948 9.528 25.612 9.528 2.787 0 5.708-.271 8.667-.812 3.816-.709 7.777-1.874 11.774-3.46"/></svg>