<svg xmlns="http://www.w3.org/2000/svg" fill="none" viewBox="0 0 256 256"><path fill="#000" d="M128.104 41a17.2 17.2 0 0 0-3.853.408c-1.222.276-2.332.685-3.266 1.202L25.908 95.242c-.922.51-1.653 1.116-2.152 1.783S23 98.405 23 99.127s.257 1.437.756 2.103 1.23 1.272 2.152 1.783l95.075 52.636c.922.51 2.016.915 3.22 1.191 1.204.277 2.495.419 3.798.419s2.594-.142 3.798-.419c1.204-.276 2.299-.681 3.22-1.191l95.073-52.634c.922-.51 1.653-1.116 2.152-1.783s.756-1.38.756-2.103c0-.721-.257-1.436-.756-2.102-.499-.667-1.23-1.273-2.152-1.783L135.019 42.61c-1.836-1.017-4.318-1.595-6.915-1.61m-.103 13.261 81.048 44.868-81.048 44.864-81.044-44.868zm-95.069 64.743-7.022 3.886c-.922.51-1.653 1.115-2.152 1.782s-.756 1.381-.756 2.103c0 .721.257 1.436.756 2.103.499.666 1.23 1.272 2.152 1.782l95.073 52.634c.922.51 2.016.915 3.22 1.192s2.495.418 3.798.418 2.594-.142 3.798-.418c1.204-.277 2.299-.682 3.22-1.192l95.073-52.634c.922-.51 1.653-1.116 2.151-1.783.499-.667.755-1.381.755-2.103 0-.721-.258-1.436-.757-2.102-.499-.667-1.231-1.272-2.153-1.782l-7.018-3.886-14.034 7.767.009.004-81.044 44.868-81.048-44.868.008-.004zm0 27.646-7.022 3.887c-.922.51-1.653 1.116-2.152 1.782-.5.667-.756 1.382-.756 2.103s.257 1.436.756 2.103 1.23 1.272 2.152 1.782l95.073 52.632c.922.511 2.016.916 3.22 1.192s2.495.418 3.798.418 2.594-.142 3.798-.418 2.299-.681 3.22-1.192l95.073-52.634c.922-.51 1.653-1.116 2.151-1.783.499-.666.755-1.381.755-2.102 0-.722-.258-1.436-.757-2.103s-1.231-1.272-2.153-1.782l-7.018-3.885-14.034 7.766.009.004-81.044 44.868-81.048-44.868.008-.004z"/></svg>