<svg xmlns="http://www.w3.org/2000/svg" fill="none" viewBox="0 0 256 256"><path fill="#000" d="M221.997 167.897a9.67 9.67 0 0 1-1.834 5.894 9.65 9.65 0 0 1-5.019 3.671l-16.506 5.507a34.76 34.76 0 0 0-13.514 8.309 33.8 33.8 0 0 0-8.301 13.526l-5.792 16.424a9.66 9.66 0 0 1-3.475 4.928 10.6 10.6 0 0 1-5.984 1.835 9.66 9.66 0 0 1-9.653-6.859l-5.502-16.521a33.8 33.8 0 0 0-8.302-13.526 36.7 36.7 0 0 0-13.513-8.406l-16.506-5.41a10.6 10.6 0 0 1-4.923-3.575 10.6 10.6 0 0 1-2.027-5.99 9.67 9.67 0 0 1 1.773-6.006 9.65 9.65 0 0 1 5.08-3.655l16.603-5.507a34.2 34.2 0 0 0 13.655-8.361 34.2 34.2 0 0 0 8.353-13.667l5.502-16.328a9.66 9.66 0 0 1 3.413-5.053 9.64 9.64 0 0 1 5.757-2 11.4 11.4 0 0 1 5.888 1.642 10.46 10.46 0 0 1 3.861 4.928l5.599 16.811a34.2 34.2 0 0 0 22.008 22.028l16.409 5.796a9.65 9.65 0 0 1 4.923 3.672 9.66 9.66 0 0 1 2.027 5.893m-96.517-61.446a9.67 9.67 0 0 1-1.641 5.314 9.65 9.65 0 0 1-4.537 3.381l-12.162 4.058a24.4 24.4 0 0 0-9.074 5.603 24.2 24.2 0 0 0-5.598 9.082l-4.15 11.98a8.7 8.7 0 0 1-3.38 4.541 9.65 9.65 0 0 1-5.405 1.739 9.65 9.65 0 0 1-5.502-1.835 9.66 9.66 0 0 1-3.282-4.541l-3.957-12.077a23.6 23.6 0 0 0-5.599-8.985 21.2 21.2 0 0 0-8.977-5.604l-12.066-4.058a8.97 8.97 0 0 1-4.633-3.381 9.67 9.67 0 0 1-1.04-8.198 9.66 9.66 0 0 1 5.673-6.004l12.066-3.962a24 24 0 0 0 9.072-5.701 24.06 24.06 0 0 0 5.697-9.08l3.957-11.884a9.66 9.66 0 0 1 3.09-4.54 9.65 9.65 0 0 1 5.308-1.933 9.65 9.65 0 0 1 5.502 1.546 9.66 9.66 0 0 1 3.572 4.444l4.054 12.367a24.06 24.06 0 0 0 5.696 9.08 24 24 0 0 0 9.072 5.701l12.066 4.155a8.9 8.9 0 0 1 4.441 3.381 9.1 9.1 0 0 1 1.737 5.411m55.88-51.785a9.7 9.7 0 0 1-1.641 4.927 7.92 7.92 0 0 1-4.055 2.898l-5.984 2.03a8.12 8.12 0 0 0-5.02 5.024l-2.123 6.086a9 9 0 0 1-2.799 3.768 7.9 7.9 0 0 1-5.02 1.739 10.6 10.6 0 0 1-4.73-1.45 8.7 8.7 0 0 1-3.089-4.25l-2.027-5.99a6.76 6.76 0 0 0-1.93-3.092 7.34 7.34 0 0 0-3.089-1.932l-5.985-1.933a9.66 9.66 0 0 1-4.054-2.995 8.7 8.7 0 0 1-1.544-4.927 9.1 9.1 0 0 1 1.641-4.927 8.7 8.7 0 0 1 4.054-2.899l5.888-1.932a8.7 8.7 0 0 0 3.185-1.932 8.7 8.7 0 0 0 1.931-3.189l2.027-5.99a9.7 9.7 0 0 1 2.703-3.864 9.65 9.65 0 0 1 4.73-1.836 9.07 9.07 0 0 1 5.115 1.546 9.65 9.65 0 0 1 3.089 3.961l2.027 6.183a8.7 8.7 0 0 0 1.931 3.189 9.7 9.7 0 0 0 3.089 1.932l6.081 2.029a9.66 9.66 0 0 1 3.958 2.898 8.4 8.4 0 0 1 1.641 4.928"/></svg>