<svg xmlns="http://www.w3.org/2000/svg" fill="none" viewBox="0 0 256 256"><path fill="#000" d="M138.258 31.526A16.66 16.66 0 0 0 128 28a16.66 16.66 0 0 0-16.172 12.62l-5.731 23.018a58.32 58.32 0 0 1-42.429 42.436l-23.013 5.733a16.662 16.662 0 0 0 0 32.349l23.013 5.732a58.32 58.32 0 0 1 42.429 42.437l5.731 23.018a16.657 16.657 0 0 0 26.439 9.117 16.67 16.67 0 0 0 5.905-9.117l5.731-23.018a58.43 58.43 0 0 1 42.429-42.437l23.013-5.732A16.66 16.66 0 0 0 228 127.981a16.664 16.664 0 0 0-12.655-16.174l-23.013-5.733a58.4 58.4 0 0 1-27.078-15.354 58.44 58.44 0 0 1-15.351-27.082l-5.731-23.018a16.67 16.67 0 0 0-5.914-9.094"/></svg>
