<svg xmlns="http://www.w3.org/2000/svg" fill="none" viewBox="0 0 257 256"><path fill="#477BFF" d="m64.51 166.263-6.712 67.593c-.136 1.376.566 2.531 1.605 3.16q.084.05.169.096l18.652-29.639a4 4 0 0 1-1.324-3.024c.06-8.247 1.271-34.858 1.271-34.858zM89.904 65.91l-70.299-6.353a3.424 3.424 0 0 0-3.565 2.229L46.397 79.8c.753-.976 1.959-1.631 3.398-1.62 8.555.066 23.6.314 36.48 1.217zm102.218 24.682 6.523-68.41c.137-1.443-.647-2.64-1.772-3.242l-18.679 29.681a4 4 0 0 1 1.304 3.016c-.075 8.334-1.297 35.391-1.297 35.391zm-25.612 99.566 70.334 6.355a3.43 3.43 0 0 0 3.334-1.725l-30.529-18.116c-.752.748-1.811 1.225-3.04 1.215-8.597-.066-36.658-1.23-36.658-1.23z"/><path fill="#5E95FF" fill-rule="evenodd" d="m128.326 58.2 65.089-39.17a3.47 3.47 0 0 1 3.458-.09l-18.679 29.681a4.26 4.26 0 0 0-4.85-.627c-8.015 4.133-22.375 11.735-34.247 19.087zm62.043 79.28 9.015-10.83 40.71 64.79a3.22 3.22 0 0 1 .084 3.348l-30.529-18.116c1.193-1.186 1.613-3.055.715-4.741-4.249-7.975-19.995-34.451-19.995-34.451m-62.281 60.388-10.905-8.8c-11.855 7.332-26.15 14.899-34.131 19.014a4.25 4.25 0 0 1-4.828-.609l-18.652 29.639a3.47 3.47 0 0 0 3.455-.091zm-62.44-79.996-8.94 10.376-40.345-63.606a3.21 3.21 0 0 1-.323-2.856L46.397 79.8a3.96 3.96 0 0 0-.358 4.328c4.187 7.87 19.609 33.744 19.609 33.744" clip-rule="evenodd"/><path fill="#8FAEFF" d="M177.063 98.223c-.145 12.918 1.837 20.824 8.397 32.057 1.713 2.934 4.909 7.2 4.909 7.2l9.015-10.83c-21.018-1.009-26.334-27.405-7.262-36.058l-13.921-3.564s-1.089 6.802-1.138 11.195M96.94 80.377c14.143.223 22.834-1.86 35.089-8.732 2.87-1.61 4.575-3.02 7.068-4.564L128.326 58.2c-1.6 18.518-30.34 26.086-38.422 7.71l-3.629 13.488c2.62.183 6.483.914 10.666.98m-17.656 78.57c.294-13.799-1.847-22.308-8.957-34.251-1.651-2.772-4.68-6.825-4.68-6.825l-8.94 10.376c19.056 1.298 26.69 29.653 7.801 38.015l13.662 3.328s1.025-6.466 1.114-10.643m80.188 16.742c-14.142-.242-22.825 1.875-35.088 8.732-2.926 1.636-4.66 3.075-7.202 4.646l10.905 8.8c1.469-18.63 30.34-26.086 38.422-7.71l3.441-13.501s-6.368-.897-10.478-.967"/><path fill="#477BFF" fill-rule="evenodd" d="M156.357 120.754c4.166 15.126-5.06 30.673-20.607 34.726-15.546 4.053-31.525-4.923-35.691-20.049s5.06-30.673 20.606-34.726 31.526 4.924 35.692 20.049m-22.927 26.299c10.763-2.805 17.15-13.569 14.266-24.041s-13.947-16.686-24.71-13.88-17.15 13.57-14.266 24.041 13.947 16.686 24.71 13.88" clip-rule="evenodd"/><path fill="#1543D8" fill-rule="evenodd" d="M175.22 56.951c.022-2.501-2.675-4.1-4.941-2.919-5.35 2.787-25.547 14.85-39.588 23.29-9.195 5.528-19.914 8.131-30.7 7.454-16.144-1.013-39.05-2.392-44.707-2.433-2.556-.019-4.195 2.578-3.007 4.78 2.853 5.285 15.218 25.303 23.737 39.008 5.429 8.735 8.015 18.839 7.421 29.03-.916 15.741-2.19 38.456-2.24 43.954-.024 2.501 2.672 4.102 4.938 2.921 5.303-2.762 25.136-14.805 39.117-23.357 9.393-5.746 20.422-8.426 31.488-7.65 16.164 1.134 38.792 2.655 44.399 2.695 2.554.019 4.193-2.576 3.009-4.778-2.86-5.32-15.142-24.738-23.796-38.311-5.739-9.002-8.44-19.514-7.718-30.084 1.077-15.764 2.54-38.085 2.588-43.6m-37.858 104.381c18.868-4.918 30.065-23.788 25.01-42.146-5.056-18.357-24.45-29.252-43.318-24.333S88.989 118.642 94.044 137c5.056 18.358 24.45 29.252 43.318 24.333" clip-rule="evenodd"/><path fill="#8FAEFF" fill-rule="evenodd" d="M147.696 123.012c2.884 10.472-3.503 21.236-14.266 24.041-10.763 2.806-21.826-3.408-24.71-13.88-2.884-10.471 3.503-21.235 14.266-24.041s21.826 3.409 24.71 13.88m-14.975 21.467c9.301-2.425 14.821-11.727 12.328-20.777-2.492-9.049-12.052-14.42-21.354-11.995s-14.821 11.727-12.328 20.776c2.492 9.05 12.052 14.42 21.354 11.996" clip-rule="evenodd"/><path fill="#477BFF" fill-rule="evenodd" d="M159.244 120.002c4.593 16.677-5.579 33.819-22.72 38.287-17.141 4.469-34.759-5.428-39.352-22.105s5.579-33.819 22.72-38.288 34.759 5.429 39.352 22.106M135.75 155.48c15.547-4.053 24.773-19.6 20.607-34.726s-20.145-24.102-35.692-20.049c-15.546 4.053-24.772 19.601-20.606 34.726s20.145 24.102 35.691 20.049" clip-rule="evenodd"/><path fill="#8FAEFF" fill-rule="evenodd" d="M124.385 184.422c12.263-6.857 20.946-8.974 35.088-8.732 4.11.07 10.478.967 10.478.967s28.061 1.164 36.658 1.23c1.229.01 2.288-.467 3.04-1.215 1.193-1.186 1.613-3.055.715-4.741-4.249-7.975-19.995-34.451-19.995-34.451s-3.196-4.266-4.909-7.2c-6.56-11.233-8.542-19.139-8.397-32.057.049-4.393 1.138-11.195 1.138-11.195s1.222-27.057 1.297-35.39a4 4 0 0 0-1.304-3.017 4.26 4.26 0 0 0-4.85-.627c-8.015 4.133-22.375 11.735-34.247 19.087-2.493 1.544-4.198 2.955-7.068 4.564-12.255 6.872-20.946 8.955-35.088 8.732-4.183-.066-8.046-.796-10.666-.98-12.88-.903-27.925-1.151-36.48-1.217-1.44-.011-2.645.644-3.398 1.62a3.96 3.96 0 0 0-.358 4.328c4.187 7.87 19.609 33.744 19.609 33.744s3.029 4.053 4.68 6.825c7.11 11.943 9.25 20.452 8.957 34.251-.089 4.177-1.114 10.643-1.114 10.643s-1.211 26.611-1.27 34.858a4 4 0 0 0 1.323 3.024 4.25 4.25 0 0 0 4.828.609c7.981-4.115 22.276-11.682 34.131-19.014 2.542-1.571 4.276-3.01 7.202-4.646m55.965-53.787c-5.739-9.002-8.44-19.514-7.718-30.084 1.077-15.764 2.54-38.085 2.588-43.6.022-2.501-2.675-4.1-4.941-2.919-5.35 2.787-25.547 14.85-39.588 23.29-9.195 5.528-19.914 8.131-30.7 7.454-16.144-1.013-39.05-2.392-44.707-2.433-2.556-.019-4.195 2.578-3.007 4.78 2.853 5.285 15.218 25.303 23.737 39.008 5.429 8.735 8.015 18.839 7.421 29.03-.916 15.741-2.19 38.456-2.24 43.954-.024 2.501 2.672 4.102 4.938 2.921 5.303-2.762 25.136-14.805 39.117-23.357 9.393-5.746 20.422-8.426 31.488-7.65 16.164 1.134 38.792 2.655 44.399 2.695 2.554.019 4.193-2.576 3.009-4.778-2.86-5.32-15.142-24.738-23.796-38.311" clip-rule="evenodd"/><path fill="#8FAEFF" fill-rule="evenodd" d="M162.372 119.186c5.055 18.358-6.142 37.228-25.01 42.146-18.868 4.919-38.262-5.975-43.318-24.333s6.142-37.227 25.01-42.146 38.262 5.976 43.318 24.333m-25.848 39.103c17.141-4.468 27.313-21.61 22.72-38.287s-22.211-26.574-39.352-22.106c-17.141 4.469-27.313 21.611-22.72 38.288s22.211 26.574 39.352 22.105" clip-rule="evenodd"/></svg>