<svg xmlns="http://www.w3.org/2000/svg" viewBox="0 0 257 256"><path d="m67.339 166.263-6.407 67.593a3.32 3.32 0 0 0 1.693 3.256l17.806-29.639a4.08 4.08 0 0 1-1.263-3.024c.056-8.247 1.213-34.858 1.213-34.858zM91.58 65.91l-67.108-6.353c-1.626-.154-2.933.874-3.404 2.229L50.049 79.8a3.95 3.95 0 0 1 3.244-1.62c8.166.066 22.53.314 34.825 1.217zm97.582 24.682 6.227-68.41a3.33 3.33 0 0 0-1.692-3.242l-17.831 29.681a4.1 4.1 0 0 1 1.245 3.016c-.072 8.334-1.239 35.391-1.239 35.391zm-24.45 99.566 67.143 6.355c1.417.134 2.592-.629 3.182-1.725l-29.143-18.116a3.93 3.93 0 0 1-2.902 1.215c-8.208-.066-34.995-1.23-34.995-1.23z"/><path d="M174.786 98.223c-.138 12.918 1.754 20.824 8.016 32.057 1.636 2.934 4.687 7.2 4.687 7.2l8.606-10.83c-20.065-1.009-25.14-27.405-6.933-36.058l-13.29-3.564s-1.039 6.802-1.086 11.195M98.299 80.377c13.5.223 21.797-1.86 33.496-8.732 2.74-1.61 4.367-3.02 6.747-4.564L128.26 58.2c-1.527 18.518-28.963 26.086-36.68 7.71l-3.463 13.488c2.501.183 6.188.914 10.182.98m-16.855 78.57c.28-13.799-1.763-22.308-8.551-34.251-1.576-2.772-4.468-6.825-4.468-6.825l-8.534 10.376c18.191 1.298 25.48 29.653 7.447 38.015l13.043 3.328s.978-6.466 1.063-10.643m76.55 16.742c-13.5-.242-21.789 1.875-33.496 8.732-2.793 1.636-4.449 3.075-6.875 4.646l10.41 8.8c1.402-18.63 28.963-26.086 36.679-7.71l3.285-13.501s-6.08-.897-10.003-.967"/><path fill-rule="evenodd" d="M155.019 120.754c3.977 15.126-4.83 30.674-19.671 34.726-14.841 4.053-30.096-4.923-34.072-20.049s4.83-30.673 19.671-34.726 30.096 4.924 34.072 20.049m-21.887 26.299c10.275-2.805 16.372-13.569 13.619-24.041s-13.314-16.686-23.588-13.88-16.372 13.57-13.619 24.041 13.314 16.686 23.588 13.88" clip-rule="evenodd"/><path fill-rule="evenodd" d="M160.761 119.186c4.827 18.358-5.863 37.228-23.875 42.146-18.012 4.919-36.526-5.975-41.352-24.333-4.827-18.357 5.862-37.227 23.875-42.146s36.526 5.976 41.352 24.333m-24.675 39.103c16.363-4.468 26.074-21.61 21.69-38.287s-21.204-26.574-37.567-22.106c-16.363 4.469-26.074 21.611-21.69 38.288s21.204 26.574 37.567 22.105" clip-rule="evenodd"/><path fill-rule="evenodd" d="M124.498 184.422c11.707-6.857 19.996-8.974 33.496-8.732 3.923.07 10.003.967 10.003.967s26.787 1.164 34.995 1.23a3.93 3.93 0 0 0 2.902-1.215 4.115 4.115 0 0 0 .682-4.741c-4.056-7.975-19.087-34.451-19.087-34.451s-3.051-4.266-4.687-7.2c-6.262-11.233-8.154-19.139-8.016-32.057.047-4.393 1.086-11.195 1.086-11.195s1.167-27.057 1.239-35.39a4.1 4.1 0 0 0-1.245-3.017c-1.175-1.13-2.995-1.51-4.63-.627-7.652 4.133-21.36 11.735-32.694 19.087-2.38 1.544-4.007 2.955-6.747 4.564-11.699 6.872-19.996 8.955-33.496 8.732-3.994-.066-7.68-.796-10.182-.98-12.296-.903-26.659-1.151-34.825-1.217a3.95 3.95 0 0 0-3.244 1.62 4.11 4.11 0 0 0-.342 4.328c3.997 7.87 18.72 33.744 18.72 33.744s2.891 4.053 4.467 6.825c6.788 11.943 8.831 20.452 8.551 34.251-.085 4.177-1.063 10.643-1.063 10.643s-1.156 26.611-1.213 34.858a4.08 4.08 0 0 0 1.263 3.024c1.174 1.116 2.983 1.487 4.609.609 7.62-4.115 21.266-11.682 32.583-19.014 2.426-1.571 4.082-3.01 6.875-4.646m46.058-83.871c1.028-15.764 2.425-38.085 2.471-43.6.021-2.501-2.554-4.1-4.717-2.919-5.107 2.787-24.389 14.85-37.792 23.29-8.778 5.528-19.011 8.131-29.308 7.454-15.41-1.013-37.278-2.392-42.678-2.433-2.44-.019-4.005 2.578-2.87 4.78 2.723 5.285 14.527 25.303 22.66 39.008a51.3 51.3 0 0 1 7.084 29.03c-.875 15.741-2.092 38.456-2.14 43.954-.021 2.501 2.552 4.102 4.715 2.921 5.062-2.762 23.996-14.805 37.343-23.357 8.967-5.746 19.495-8.426 30.059-7.65 15.431 1.134 37.032 2.655 42.385 2.695 2.438.019 4.003-2.576 2.873-4.778-2.731-5.32-14.456-24.738-22.717-38.311a51.44 51.44 0 0 1-7.368-30.084" clip-rule="evenodd"/><path fill-rule="evenodd" d="M146.751 123.012c2.753 10.472-3.344 21.236-13.619 24.041-10.274 2.806-20.835-3.408-23.588-13.88-2.753-10.471 3.344-21.235 13.619-24.041 10.274-2.806 20.835 3.409 23.588 13.88m-14.296 21.467c8.88-2.425 14.149-11.727 11.77-20.777-2.379-9.049-11.506-14.42-20.385-11.995s-14.149 11.727-11.77 20.776c2.379 9.05 11.506 14.42 20.385 11.996M128.26 58.2l62.136-39.17a3.19 3.19 0 0 1 3.301-.09l-17.831 29.681c-1.175-1.13-2.995-1.51-4.63-.627-7.652 4.133-21.36 11.735-32.694 19.087zm59.229 79.28 8.606-10.83 38.863 64.79a3.36 3.36 0 0 1 .079 3.348l-29.143-18.116a4.115 4.115 0 0 0 .682-4.741c-4.056-7.975-19.087-34.451-19.087-34.451m-59.456 60.388-10.41-8.8c-11.317 7.332-24.964 14.899-32.583 19.014-1.626.878-3.435.507-4.61-.609l-17.805 29.639c.97.542 2.206.598 3.298-.091zm-59.607-79.996-8.535 10.376-38.514-63.606a3.34 3.34 0 0 1-.308-2.856L50.049 79.8a4.11 4.11 0 0 0-.343 4.328c3.997 7.87 18.72 33.744 18.72 33.744" clip-rule="evenodd"/></svg>