<svg xmlns="http://www.w3.org/2000/svg" viewBox="0 0 853 257"><path d="M314.416 165.64q-13.422 0-22.626-5.863-9.204-5.993-13.167-16.676l17.641-10.423q5.369 12.637 18.791 12.637 12.144 0 12.144-7.426 0-4.169-3.963-6.253-4.09-2.476-14.573-5.342-10.737-2.997-18.152-8.599-8.181-6.774-8.181-19.152 0-12.637 8.821-20.194 8.947-7.556 21.219-7.556 10.994 0 19.431 5.342 8.437 5.211 13.294 15.243l-17.257 10.292q-4.857-10.553-15.468-10.553-4.474 0-7.03 1.954-2.557 1.955-2.557 4.951 0 3.258 3.068 5.863 3.324 2.605 13.039 5.472l8.309 2.736q3.195 1.042 7.414 3.518 4.602 2.345 6.903 5.081 6.136 6.774 6.136 16.937 0 12.898-9.204 20.584-9.204 7.427-24.032 7.427m82.506-1.824h-23.266l-24.671-91.2h21.476l15.467 63.84 17.257-63.84h16.618l17.258 63.84 15.467-63.84h21.476l-24.672 91.2h-23.265l-14.573-53.808zm160.173 0h-22.371l-4.474-14.332h-33.236l-4.474 14.332h-22.37l30.424-91.2h26.077zm-43.463-67.357-10.482 33.483h20.965zm51.093-23.842H598.6q13.294 0 22.243 9.12 9.076 9.25 9.076 22.148t-9.076 22.148q-8.949 9.12-22.243 9.12h-13.422v28.663h-20.453zm20.453 42.994H598.6q4.73 0 7.798-3.388t3.068-8.338-3.068-8.338-7.798-3.388h-13.422zm54.947-42.994H674q13.294 0 22.243 9.12 9.076 9.25 9.076 22.148t-9.076 22.148q-8.949 9.12-22.243 9.12h-13.422v28.663h-20.453zm20.453 42.994H674q4.73 0 7.798-3.388t3.068-8.338-3.068-8.338T674 92.159h-13.422zm75.4 11.986v16.155h35.793v20.064h-56.246v-91.2h55.607v20.065h-35.154v15.113h31.958v19.803zm116.362 36.219h-21.987l-16.874-29.966h-9.715v29.966h-20.453v-91.2h35.793q12.783 0 21.731 9.12t8.948 22.149q0 8.208-4.602 15.374-4.474 7.165-11.888 11.074zm-33.236-71.657h-15.34v23.452h15.34q4.218 0 7.158-3.388 3.068-3.387 3.068-8.338t-3.068-8.338q-2.94-3.388-7.158-3.388M54.825 172.99 47.336 252a3.89 3.89 0 0 0 1.979 3.806l20.814-34.644c-.904-.858-1.487-2.093-1.477-3.536.067-9.639 1.418-40.746 1.418-40.746zM83.162 55.684 4.717 48.26c-1.9-.18-3.429 1.022-3.978 2.605l33.875 21.057a4.61 4.61 0 0 1 3.792-1.893c9.546.077 26.335.367 40.708 1.422zm114.064 28.853 7.279-79.966a3.89 3.89 0 0 0-1.977-3.79l-20.844 34.695c.894.86 1.469 2.09 1.456 3.526-.084 9.741-1.448 41.369-1.448 41.369zm-28.579 116.384 78.485 7.429c1.655.157 3.03-.735 3.719-2.016l-34.066-21.176a4.6 4.6 0 0 1-3.392 1.42c-9.594-.078-40.906-1.438-40.906-1.438z"/><path d="M180.422 93.456c-.161 15.101 2.051 24.343 9.371 37.473 1.912 3.429 5.478 8.416 5.478 8.416l10.06-12.66c-23.454-1.179-29.387-32.034-8.105-42.148l-15.534-4.166s-1.215 7.95-1.27 13.085m-89.407-20.86c15.781.26 25.48-2.174 39.154-10.207 3.203-1.881 5.106-3.53 7.887-5.335l-12.019-10.382c-1.785 21.646-33.856 30.493-42.875 9.012L79.113 71.45c2.924.215 7.234 1.07 11.902 1.146M71.313 164.44c.328-16.131-2.061-26.077-9.996-40.037-1.842-3.241-5.222-7.979-5.222-7.979l-9.976 12.129c21.265 1.518 29.784 34.662 8.706 44.437l15.245 3.89s1.144-7.558 1.243-12.44m89.481 19.569c-15.781-.282-25.47 2.192-39.154 10.207-3.265 1.913-5.201 3.594-8.037 5.432l12.169 10.285c1.639-21.776 33.856-30.492 42.875-9.012l3.84-15.781s-7.107-1.049-11.693-1.131"/><path fill-rule="evenodd" d="M157.317 119.794c4.648 17.681-5.647 35.854-22.995 40.592s-35.18-5.755-39.827-23.436c-4.649-17.681 5.646-35.854 22.994-40.592s35.179 5.755 39.828 23.436m-25.584 30.742c12.01-3.28 19.137-15.862 15.919-28.103-3.218-12.24-15.563-19.504-27.573-16.224-12.01 3.279-19.138 15.861-15.92 28.102s15.563 19.504 27.574 16.225" clip-rule="evenodd"/><path fill-rule="evenodd" d="M164.029 117.961c5.641 21.459-6.854 43.516-27.908 49.266-21.055 5.749-42.697-6.985-48.338-28.444-5.642-21.459 6.853-43.516 27.908-49.265 21.054-5.75 42.696 6.984 48.338 28.443m-28.843 45.708c19.127-5.223 30.478-25.261 25.353-44.755-5.126-19.494-24.786-31.063-43.913-25.84-19.127 5.224-30.478 25.262-25.353 44.756s24.785 31.063 43.913 25.839" clip-rule="evenodd"/><path fill-rule="evenodd" d="M121.64 194.216c13.684-8.015 23.373-10.489 39.154-10.207 4.586.082 11.693 1.131 11.693 1.131s31.312 1.36 40.906 1.438a4.6 4.6 0 0 0 3.392-1.42 4.81 4.81 0 0 0 .798-5.543c-4.742-9.322-22.312-40.27-22.312-40.27s-3.566-4.987-5.478-8.416c-7.32-13.13-9.532-22.372-9.371-37.473.055-5.135 1.27-13.085 1.27-13.085s1.364-31.628 1.448-41.37c.013-1.435-.562-2.666-1.456-3.525-1.373-1.32-3.5-1.766-5.412-.733-8.944 4.831-24.967 13.717-38.216 22.311-2.781 1.805-4.684 3.454-7.887 5.335-13.674 8.033-23.373 10.468-39.154 10.207-4.668-.077-8.978-.931-11.901-1.146-14.373-1.055-31.162-1.345-40.708-1.422a4.61 4.61 0 0 0-3.792 1.893 4.8 4.8 0 0 0-.4 5.06c4.672 9.198 21.881 39.443 21.881 39.443s3.38 4.738 5.222 7.979c7.935 13.96 10.324 23.906 9.996 40.037-.099 4.882-1.243 12.44-1.243 12.44s-1.351 31.107-1.418 40.746c-.01 1.443.573 2.678 1.477 3.536 1.373 1.304 3.486 1.738 5.387.711 8.907-4.81 24.858-13.655 38.087-22.225 2.836-1.838 4.772-3.519 8.037-5.432m53.838-98.038c1.201-18.427 2.835-44.519 2.888-50.965.024-2.924-2.985-4.793-5.514-3.412-5.97 3.258-28.508 17.359-44.176 27.225-10.26 6.46-22.222 9.504-34.257 8.713-18.015-1.185-43.576-2.797-49.889-2.845-2.852-.022-4.681 3.013-3.355 5.587 3.184 6.179 16.982 29.577 26.488 45.598a59.97 59.97 0 0 1 8.281 33.934c-1.023 18.399-2.445 44.952-2.5 51.378-.026 2.924 2.982 4.795 5.51 3.415 5.918-3.229 28.05-17.307 43.651-27.303 10.482-6.716 22.788-9.849 35.137-8.942 18.037 1.325 43.287 3.103 49.545 3.151 2.85.021 4.679-3.011 3.358-5.585-3.192-6.219-16.898-28.917-26.554-44.783a60.1 60.1 0 0 1-8.613-35.166" clip-rule="evenodd"/><path fill-rule="evenodd" d="M147.652 122.433c3.218 12.241-3.909 24.823-15.919 28.103-12.011 3.279-24.355-3.985-27.574-16.225-3.218-12.241 3.91-24.823 15.92-28.102s24.355 3.984 27.573 16.224m-16.711 25.093c10.379-2.835 16.539-13.708 13.758-24.286s-13.45-16.856-23.829-14.022-16.538 13.708-13.757 24.286 13.449 16.856 23.828 14.022m-4.904-100.854L198.669.886a3.72 3.72 0 0 1 3.859-.105l-20.844 34.695c-1.373-1.32-3.5-1.766-5.412-.733-8.944 4.831-24.967 13.717-38.216 22.311zm69.234 92.673 10.06-12.66 45.427 75.735a3.92 3.92 0 0 1 .093 3.914l-34.066-21.176a4.81 4.81 0 0 0 .798-5.543c-4.742-9.322-22.312-40.27-22.312-40.27m-69.499 70.588-12.169-10.285c-13.229 8.57-29.18 17.415-38.087 22.225-1.9 1.027-4.014.593-5.387-.711l-20.814 34.644a3.72 3.72 0 0 0 3.856-.106zm-69.677-93.509-9.976 12.129-45.02-74.35a3.9 3.9 0 0 1-.36-3.339l33.875 21.057a4.8 4.8 0 0 0-.4 5.06c4.672 9.198 21.881 39.443 21.881 39.443" clip-rule="evenodd"/></svg>
