<svg xmlns="http://www.w3.org/2000/svg" viewBox="0 0 869 256"><path d="m55.386 172.697-7.634 79.01c-.156 1.609.644 2.959 1.826 3.695q.094.058.191.111l21.22-34.644a4.73 4.73 0 0 1-1.505-3.536c.067-9.639 1.445-40.746 1.445-40.746zM84.277 55.391 4.3 47.966c-1.937-.18-3.496 1.022-4.056 2.606L34.78 71.628a4.73 4.73 0 0 1 3.866-1.893c9.732.077 26.849.367 41.502 1.422zm116.289 28.853 7.421-79.966c.157-1.687-.735-3.087-2.016-3.79l-21.25 34.695a4.73 4.73 0 0 1 1.484 3.526c-.085 9.741-1.476 41.369-1.476 41.369zm-29.137 116.384 80.016 7.429c1.688.157 3.09-.735 3.793-2.016l-34.732-21.176a4.74 4.74 0 0 1-3.458 1.42c-9.781-.078-41.704-1.438-41.704-1.438z"/><path fill-rule="evenodd" d="M127.988 46.38 202.037.592a3.86 3.86 0 0 1 3.934-.105l-21.25 34.695a4.74 4.74 0 0 0-5.517-.733c-9.119 4.831-25.455 13.717-38.962 22.311zm70.585 92.672 10.256-12.66 46.314 75.735a3.86 3.86 0 0 1 .095 3.914l-34.732-21.176a4.74 4.74 0 0 0 .814-5.543c-4.834-9.322-22.747-40.27-22.747-40.27m-70.855 70.588-12.406-10.285c-13.487 8.57-29.75 17.415-38.83 22.225a4.74 4.74 0 0 1-5.493-.711l-21.22 34.644a3.86 3.86 0 0 0 3.93-.106zm-71.036-93.509L46.51 128.26.612 53.91a3.84 3.84 0 0 1-.367-3.338l34.536 21.056a4.73 4.73 0 0 0-.407 5.06c4.762 9.198 22.308 39.443 22.308 39.443" clip-rule="evenodd"/><path d="M183.434 93.163c-.164 15.101 2.091 24.343 9.554 37.473 1.949 3.429 5.585 8.416 5.585 8.416l10.256-12.66c-23.912-1.179-29.96-32.034-8.263-42.148l-15.837-4.166s-1.239 7.95-1.295 13.085m-91.151-20.86c16.088.26 25.976-2.174 39.918-10.207 3.265-1.881 5.205-3.53 8.041-5.335L127.988 46.38c-1.82 21.646-34.516 30.493-43.711 9.012l-4.128 15.766c2.98.215 7.375 1.07 12.133 1.146m-20.085 91.843c.333-16.131-2.102-26.077-10.191-40.037-1.878-3.241-5.324-7.979-5.324-7.979L46.51 128.26c21.68 1.518 30.364 34.663 8.875 44.437l15.543 3.89s1.166-7.558 1.267-12.44m91.228 19.569c-16.088-.282-25.967 2.192-39.918 10.207-3.329 1.913-5.302 3.594-8.193 5.432l12.406 10.285c1.671-21.776 34.516-30.492 43.711-9.012l3.915-15.781s-7.245-1.049-11.921-1.131"/><path fill-rule="evenodd" d="M159.878 119.501c4.739 17.681-5.757 35.854-23.443 40.592-17.687 4.738-35.866-5.755-40.605-23.436-4.74-17.681 5.757-35.854 23.443-40.592 17.687-4.737 35.866 5.755 40.605 23.436m-26.083 30.742c12.244-3.28 19.51-15.862 16.23-28.103-3.281-12.24-15.867-19.504-28.112-16.224-12.244 3.279-19.51 15.861-16.229 28.102 3.28 12.24 15.866 19.504 28.111 16.225" clip-rule="evenodd"/><path fill-rule="evenodd" d="M181.338 44.92c.025-2.924-3.043-4.793-5.622-3.412-6.086 3.258-29.064 17.359-45.037 27.225a59.2 59.2 0 0 1-34.927 8.713c-18.365-1.184-44.426-2.797-50.861-2.845-2.908-.022-4.773 3.013-3.42 5.587 3.246 6.179 17.312 29.577 27.004 45.598a59.06 59.06 0 0 1 8.443 33.934c-1.043 18.399-2.493 44.952-2.55 51.378-.026 2.924 3.04 4.795 5.619 3.415 6.032-3.229 28.597-17.307 44.502-27.303a59.3 59.3 0 0 1 35.823-8.942c18.389 1.326 44.131 3.103 50.511 3.151 2.906.021 4.77-3.011 3.423-5.585-3.253-6.219-17.226-28.917-27.072-44.783a59.23 59.23 0 0 1-8.781-35.166c1.225-18.427 2.891-44.519 2.945-50.965m-43.07 122.014c21.466-5.75 34.205-27.807 28.453-49.266s-27.816-34.193-49.281-28.443c-21.466 5.75-34.204 27.806-28.453 49.265s27.816 34.193 49.281 28.444" clip-rule="evenodd"/><path fill-rule="evenodd" d="M150.025 122.14c3.28 12.241-3.986 24.823-16.23 28.103-12.245 3.279-24.831-3.985-28.111-16.225s3.985-24.823 16.229-28.102 24.831 3.984 28.112 16.224m-17.037 25.093c10.581-2.835 16.861-13.708 14.026-24.286s-13.712-16.856-24.294-14.022c-10.581 2.835-16.861 13.708-14.026 24.286s13.712 16.856 24.294 14.022" clip-rule="evenodd"/><path fill-rule="evenodd" d="M163.163 118.621c5.225 19.494-6.348 39.532-25.848 44.755s-39.544-6.345-44.77-25.839c-5.225-19.494 6.348-39.532 25.848-44.755 19.501-5.224 39.545 6.345 44.77 25.839m-26.728 41.472c17.686-4.738 28.182-22.911 23.443-40.592s-22.918-28.173-40.605-23.436c-17.686 4.738-28.182 22.911-23.443 40.592s22.918 28.174 40.605 23.436" clip-rule="evenodd"/><path fill-rule="evenodd" d="M123.505 193.923c13.951-8.015 23.83-10.489 39.918-10.207 4.676.082 11.921 1.131 11.921 1.131s31.923 1.36 41.704 1.438a4.74 4.74 0 0 0 3.458-1.42 4.74 4.74 0 0 0 .814-5.543c-4.834-9.322-22.747-40.27-22.747-40.27s-3.636-4.987-5.585-8.416c-7.463-13.13-9.718-22.372-9.554-37.473.056-5.135 1.295-13.085 1.295-13.085s1.391-31.628 1.476-41.37a4.73 4.73 0 0 0-1.484-3.525 4.74 4.74 0 0 0-5.517-.733c-9.119 4.831-25.455 13.717-38.962 22.311-2.836 1.805-4.776 3.454-8.041 5.335-13.942 8.033-23.83 10.468-39.918 10.207-4.76-.077-9.154-.931-12.134-1.146-14.653-1.055-31.77-1.345-41.502-1.422a4.73 4.73 0 0 0-3.866 1.893 4.73 4.73 0 0 0-.407 5.06c4.762 9.198 22.308 39.443 22.308 39.443s3.446 4.738 5.324 7.979c8.089 13.96 10.524 23.906 10.19 40.037-.1 4.882-1.267 12.44-1.267 12.44s-1.378 31.107-1.445 40.746a4.73 4.73 0 0 0 1.505 3.536 4.74 4.74 0 0 0 5.492.711c9.08-4.81 25.344-13.655 38.831-22.225 2.891-1.838 4.864-3.519 8.193-5.432m63.669-62.872a59.23 59.23 0 0 1-8.781-35.166c1.225-18.427 2.891-44.519 2.945-50.965.025-2.924-3.043-4.793-5.622-3.412-6.086 3.258-29.064 17.359-45.037 27.225a59.2 59.2 0 0 1-34.927 8.713c-18.365-1.184-44.426-2.797-50.861-2.845-2.908-.022-4.773 3.013-3.42 5.587 3.246 6.179 17.312 29.577 27.004 45.598a59.06 59.06 0 0 1 8.443 33.934c-1.043 18.399-2.493 44.952-2.55 51.378-.026 2.924 3.04 4.795 5.619 3.415 6.032-3.229 28.597-17.307 44.502-27.303a59.3 59.3 0 0 1 35.823-8.942c18.389 1.326 44.131 3.103 50.511 3.151 2.906.021 4.77-3.011 3.423-5.585-3.253-6.219-17.226-28.917-27.072-44.783" clip-rule="evenodd"/><path fill-rule="evenodd" d="M166.721 117.668c5.752 21.459-6.987 43.516-28.453 49.266-21.465 5.749-43.53-6.985-49.28-28.444-5.752-21.459 6.986-43.516 28.452-49.265 21.465-5.75 43.529 6.984 49.281 28.443m-29.406 45.708c19.5-5.223 31.073-25.261 25.848-44.755s-25.269-31.063-44.77-25.84c-19.5 5.224-31.073 25.262-25.847 44.756s25.269 31.063 44.769 25.839" clip-rule="evenodd"/><path d="M320.042 165.347q-13.684 0-23.068-5.863-9.383-5.993-13.423-16.676l17.985-10.423q5.474 12.637 19.157 12.637 12.381 0 12.381-7.426 0-4.169-4.04-6.253-4.17-2.476-14.857-5.342-10.947-2.997-18.506-8.599-8.341-6.774-8.341-19.151 0-12.638 8.993-20.195 9.123-7.556 21.634-7.556 11.208 0 19.809 5.342 8.601 5.211 13.554 15.243l-17.594 10.292q-4.953-10.553-15.769-10.553-4.562 0-7.168 1.954-2.607 1.955-2.607 4.951 0 3.258 3.128 5.863 3.389 2.605 13.293 5.472l8.471 2.736q3.258 1.042 7.559 3.518 4.692 2.345 7.038 5.081 6.255 6.774 6.255 16.937 0 12.898-9.383 20.584-9.384 7.427-24.501 7.427m84.115-1.824h-23.719l-25.152-91.199h21.894l15.77 63.839 17.593-63.839h16.943l17.594 63.839 15.769-63.839h21.895l-25.153 91.199h-23.719l-14.857-53.808zm163.299 0h-22.807l-4.561-14.332h-33.885l-4.561 14.332h-22.807l31.017-91.199h26.587zm-44.311-67.357-10.686 33.483h21.373zm52.09-23.842h34.536q13.554 0 22.676 9.12 9.254 9.25 9.254 22.148t-9.254 22.148q-9.122 9.12-22.676 9.12h-13.684v28.663h-20.852zm20.852 42.994h13.684q4.822 0 7.95-3.388 3.127-3.387 3.127-8.338t-3.127-8.338q-3.128-3.387-7.95-3.387h-13.684zm56.019-42.994h34.536q13.554 0 22.677 9.12 9.253 9.25 9.253 22.148t-9.253 22.148q-9.123 9.12-22.677 9.12h-13.684v28.663h-20.852zm20.852 42.994h13.684q4.822 0 7.95-3.388t3.128-8.338-3.128-8.338q-3.128-3.387-7.95-3.387h-13.684zm76.872 11.986v16.155h36.491v20.064h-57.343V72.324h56.691v20.064H749.83V107.5h32.581v19.803zm118.631 36.219h-22.416l-17.203-29.966h-9.904v29.966h-20.852V72.324h36.491q13.032 0 22.155 9.12t9.123 22.148q0 8.208-4.692 15.374-4.562 7.165-12.12 11.074zm-33.884-71.656h-15.639v23.451h15.639q4.3 0 7.298-3.388 3.128-3.387 3.128-8.338t-3.128-8.338q-2.998-3.387-7.298-3.387"/></svg>
