<svg xmlns="http://www.w3.org/2000/svg" fill="none" viewBox="0 0 256 256"><path fill="#000" d="M23 73.988C23 66.815 29.324 61 37.126 61h181.748C226.676 61 233 66.815 233 73.988v10.39c0 7.173-6.324 12.987-14.126 12.987H37.126C29.324 97.365 23 91.551 23 84.378z"/><path fill="#000" fill-rule="evenodd" d="M37.126 158.271c-7.802 0-14.126 5.815-14.126 12.988v10.39c0 7.173 6.324 12.987 14.126 12.987h42.847c2.6 0 4.709-1.938 4.709-4.329V162.6c0-2.391-2.109-4.329-4.709-4.329zm60.74 32.036c0 2.391 2.108 4.329 4.708 4.329h116.3c7.802 0 14.126-5.814 14.126-12.987v-10.39c0-7.173-6.324-12.988-14.126-12.988h-116.3c-2.6 0-4.709 1.938-4.709 4.329zm-60.74-80.671c-7.802 0-14.126 5.814-14.126 12.987v10.39c0 7.173 6.324 12.988 14.126 12.988h42.847c2.6 0 4.709-1.938 4.709-4.329v-27.707c0-2.391-2.109-4.329-4.709-4.329zm60.74 32.036c0 2.391 2.108 4.329 4.708 4.329h116.3c7.802 0 14.126-5.815 14.126-12.988v-10.39c0-7.173-6.324-12.987-14.126-12.987h-116.3c-2.6 0-4.709 1.938-4.709 4.329z" clip-rule="evenodd"/></svg>