<svg width="256" height="256" viewBox="0 0 256 256" fill="none" xmlns="http://www.w3.org/2000/svg">
<path d="M118.633 28.2086C115.217 28.5669 108.358 29.7919 103.675 30.9086C98.2333 32.2086 94.5167 33.4336 88.2083 36.1753C64.8351 46.2469 46.2004 64.8786 36.125 88.2502C32.4333 96.7502 31.0667 101.475 29.0083 112.717C28.0333 117.8 28 118.733 28 128.033C28 137.333 28.0333 138.267 29.0083 143.35C31.0667 154.592 32.4333 159.308 36.1083 167.817C46.1857 191.19 64.8236 209.822 88.2 219.892C96.7083 223.567 101.433 224.933 112.675 226.992C117.758 227.967 118.7 228 128 228C137.3 228 138.242 227.967 143.325 226.992C154.575 224.933 159.292 223.575 167.8 219.892C191.173 209.82 209.808 191.188 219.883 167.817C223.567 159.317 224.933 154.592 226.992 143.35C227.967 138.267 228 137.333 228 128.033C228 118.733 227.967 117.8 226.992 112.717C224.933 101.467 223.567 96.7502 219.892 88.2502C208.933 62.7336 187.875 43.1252 161.058 33.4003C157.283 32.0253 151.042 30.5169 144.258 29.2503C138.883 28.2503 137.408 28.1336 129.8 28.0253C125.15 27.9586 120.108 28.0253 118.633 28.2086ZM131.433 72.7085L132.333 73.5752V97.4002H151.442L152.05 98.3752C153.208 100.142 152.55 104.5 150.933 106.158C150.358 106.7 149.317 106.767 141.308 106.767H132.3L132.408 135.85C132.517 162.3 132.583 165.15 133.158 166.808C134.392 170.517 136.192 171.783 140.083 171.742C142.825 171.742 145.058 171.208 150.283 169.225C153.458 168.067 153.708 168.033 154.325 168.575C155.158 169.325 156.492 172.108 156.492 173.042C156.492 174.233 153.6 176.358 148.775 178.708C141.092 182.408 134.933 183.817 128.192 183.35C115.533 182.483 108.467 178.233 105.875 169.875C105.15 167.567 105.125 166.558 105.008 137.117L104.9 106.767H100.283C95.1333 106.767 94.625 106.55 94.2667 104.175C93.975 102.484 95.1 101.325 98.0917 100.284C106.125 97.352 113.282 92.4287 118.892 85.9752C121.842 82.5169 122.892 80.9669 125.125 76.6752C126.167 74.7002 127.392 72.7835 127.792 72.4585C128.317 72.0294 128.985 71.8164 129.662 71.8628C130.338 71.9092 130.972 72.2117 131.433 72.7085Z" fill="black"/>
</svg>
