<svg xmlns="http://www.w3.org/2000/svg" fill="none" viewBox="0 0 256 256"><path fill="#000" fill-rule="evenodd" d="M181.311 33H78.073c-5.362 0-9.71 4.347-9.71 9.709v30.66c0 5.362 4.348 9.708 9.71 9.708h95.286v47.154a3.883 3.883 0 0 1-3.885 3.883H158.64v-26.622c0-5.361-4.348-9.708-9.711-9.708h-44.361c-5.363 0-9.71 4.347-9.71 9.709v26.621h-51.51a8.347 8.347 0 1 0 0 16.693h51.51v56.745l-17.404-15.008a7.85 7.85 0 0 0-5.518-2.262 7.85 7.85 0 0 0-5.519 2.262 7.7 7.7 0 0 0-2.286 5.463 7.7 7.7 0 0 0 2.286 5.463l30.897 27.287a8.82 8.82 0 0 0 11.614.121l32.543-27.408a7.7 7.7 0 0 0 2.286-5.463 7.7 7.7 0 0 0-2.286-5.463 7.85 7.85 0 0 0-5.518-2.262c-2.07 0-4.055.814-5.518 2.262l-18.896 15.558v-57.295h31.4v20.686c0 5.362 4.348 9.709 9.711 9.709h59.08c5.363 0 9.711-4.347 9.711-9.709V75.112c0-5.362-4.348-9.71-9.711-9.71h-20.709V42.71c0-5.362-4.347-9.709-9.71-9.709m20.545 131.509h-39.332a3.883 3.883 0 0 1-3.884-3.883v-9.819h22.671c5.363 0 9.71-4.347 9.71-9.709v-58.02h10.835a3.884 3.884 0 0 1 3.884 3.883v73.665a3.883 3.883 0 0 1-3.884 3.883M85.045 61.519v-7.943a3.884 3.884 0 0 1 3.884-3.884h80.545a3.884 3.884 0 0 1 3.885 3.884v11.827h-84.43a3.884 3.884 0 0 1-3.884-3.884m30.378 53.939h23.632a3.884 3.884 0 0 1 3.884 3.884v14.772h-31.4v-14.772a3.884 3.884 0 0 1 3.884-3.884" clip-rule="evenodd"/></svg>