<svg xmlns="http://www.w3.org/2000/svg" fill="none" viewBox="0 0 256 256"><path fill="#000" d="M128 50c9.283 0 18.185 3.724 24.749 10.354C159.312 66.983 163 75.974 163 85.35s-3.688 18.366-10.251 24.996c-6.564 6.629-15.466 10.353-24.749 10.353s-18.185-3.724-24.749-10.353C96.687 103.716 93 94.725 93 85.35c0-9.376 3.688-18.367 10.251-24.996C109.815 53.724 118.717 50 128 50M58 75.25c5.6 0 10.8 1.515 15.3 4.242-1.5 14.442 2.7 28.784 11.3 39.995-5 9.696-15 16.362-26.6 16.362a29.85 29.85 0 0 1-21.213-8.875C31.16 121.292 28 113.585 28 105.549s3.16-15.743 8.787-21.425A29.85 29.85 0 0 1 58 75.25m140 0a29.85 29.85 0 0 1 21.213 8.874c5.626 5.683 8.787 13.39 8.787 21.425s-3.161 15.743-8.787 21.425A29.85 29.85 0 0 1 198 135.849c-11.6 0-21.6-6.666-26.6-16.362 8.715-11.37 12.762-25.692 11.3-39.995 4.5-2.727 9.7-4.242 15.3-4.242M63 178.773c0-20.906 29.1-37.874 65-37.874s65 16.968 65 37.874V210c0 5.523-4.477 10-10 10H73c-5.523 0-10-4.477-10-10zM18 220c-5.523 0-10-4.477-10-10v-28.702c0-14.038 18.9-25.855 44.5-29.289-5.9 6.868-9.5 16.362-9.5 26.764V210c0 5.523-4.477 10-10 10zm230-10c0 5.523-4.477 10-10 10h-15c-5.523 0-10-4.477-10-10v-31.227c0-10.402-3.6-19.896-9.5-26.764 25.6 3.434 44.5 15.251 44.5 29.289z"/></svg>