<svg xmlns="http://www.w3.org/2000/svg" fill="none" viewBox="0 0 256 256"><path fill="#000" d="M61.992 131.798a7.166 7.166 0 0 0-9.79-2.625L29.93 142.016a17.77 17.77 0 0 0-8.423 11.158 18.32 18.32 0 0 0 2.039 13.595l1.953 3.378a17.92 17.92 0 0 0 24.472 6.549l22.255-12.825a7.16 7.16 0 0 0 3.344-4.351 7.17 7.17 0 0 0-.714-5.441z"/><path fill="#000" d="m185.33 217.266-42.17-83.676a.9.9 0 0 1 .354-1.178l3.719-2.146a7.16 7.16 0 0 0 3.525-7.144 7.2 7.2 0 0 0-.899-2.648l-21.296-36.88a7.17 7.17 0 0 0-4.352-3.344 7.17 7.17 0 0 0-5.442.715l-38.702 22.307a17.8 17.8 0 0 0-8.356 10.877 15.6 15.6 0 0 0-.614 4.372c.027 3.404 4.122 10.168 8.118 17.147 4.297 7.503 8.62 15.177 11.802 17.089 2.025 1.219 5.6 2.195 8.607 2.195H100L64.461 231.82a7.167 7.167 0 0 0 8.984 9.738 7.18 7.18 0 0 0 4.032-3.726l41.973-90.777a3.56 3.56 0 0 1 1.46-1.599l8.607-4.963a.895.895 0 0 1 1.246.376l41.762 82.87a7.17 7.17 0 0 0 4.157 3.582 7.16 7.16 0 0 0 5.472-.406 7.16 7.16 0 0 0 3.176-9.626zm48.107-145.61-20.664-35.72a17.957 17.957 0 0 0-24.477-6.548l-41.82 24.09a17.78 17.78 0 0 0-8.356 10.877 14.7 14.7 0 0 0-.569 5.935c.779 5.653 5.824 13.618 11.833 24.14 6.084 10.63 12.953 22.612 16.546 25.206a18 18 0 0 0 10.386 3.301 17.8 17.8 0 0 0 8.925-2.392l41.829-24.104a17.8 17.8 0 0 0 8.419-11.127 18.36 18.36 0 0 0-2.052-13.658"/></svg>