<svg xmlns="http://www.w3.org/2000/svg" fill="none" viewBox="0 0 256 256"><path fill="#000" d="m178.597 85.862 58.335-35.095.048 65.198-45.191 24.729c-30.823 16.87-43.865 29.447-55.765 58.647-5.412 13.28-7.774 30.905-8.005 35.815 0-31.272 1.758-40.623 1.758-66.953 0-6.488.759-13.625 1.65-17.042 0 0 7.672-43.682 47.17-65.299m-50.607 83.69.029 65.604-55.19-30.121-.023-50.822c-.016-34.664-11.059-60.674-25.043-76.391C33.782 62.11 23.254 57.362 19 54.776c27.545 14.523 34.832 18.44 58.32 30.838 5.819 3.07 13.394 8.915 15.999 11.342 0 0 34.651 28.174 34.671 72.596"/><path fill="#000" d="M178.504 82.692c23.547-12.71 40.654-22.239 58.428-31.925-4.479 2.222-14.036 8.686-35.114 12.208-21.088 3.525-50.73 2.765-81.275-15.377L75.763 21 19 54.776l61.906 28.61c15.006 8.85 52.472 23.665 97.598-.694"/></svg>
