<svg width="256" height="256" viewBox="0 0 256 256" fill="none" xmlns="http://www.w3.org/2000/svg">
<path fill-rule="evenodd" clip-rule="evenodd" d="M202.501 54.5201C203.903 55.932 204.687 57.8427 204.68 59.832C204.673 61.8214 203.876 63.7263 202.465 65.1278L76.8622 189.84L144.759 187.967C147.009 187.975 149.165 188.877 150.751 190.474C152.337 192.072 153.223 194.233 153.215 196.484C153.208 198.735 152.306 200.89 150.709 202.476C149.112 204.061 146.951 204.947 144.7 204.939L59.8387 204.628C58.6853 204.789 57.5104 204.678 56.407 204.306C55.3036 203.934 54.302 203.31 53.4814 202.483C52.6609 201.657 52.0439 200.651 51.6795 199.545C51.3151 198.439 51.2132 197.263 51.3818 196.111L51.6747 111.249C51.6825 108.999 52.584 106.844 54.181 105.258C55.7779 103.672 57.9395 102.786 60.1901 102.794C62.4408 102.803 64.5962 103.705 66.1822 105.302C67.7681 106.899 68.6547 109.061 68.647 111.312L67.3556 178.136L191.894 54.4813C193.305 53.0798 195.216 52.2965 197.205 52.3038C199.194 52.3111 201.1 53.1083 202.501 54.5201Z" fill="black"/>
</svg>
