<svg width="256" height="256" viewBox="0 0 256 256" fill="none" xmlns="http://www.w3.org/2000/svg">
<path fill-rule="evenodd" clip-rule="evenodd" d="M23 127.5C23 125.51 23.7902 123.602 25.1967 122.196C26.6032 120.789 28.5109 119.998 30.5 119.998H207.5L158 73.4884C156.409 71.8968 155.515 69.738 155.515 67.4871C155.515 65.2362 156.409 63.0775 158 61.4858C159.591 59.8942 161.75 59 164 59C166.25 59 168.409 59.8942 170 61.4858L230 121.499C230.931 122.197 231.688 123.104 232.208 124.145C232.729 125.187 233 126.335 233 127.5C233 128.665 232.729 129.813 232.208 130.855C231.688 131.896 230.931 132.803 230 133.501L170 193.514C168.409 195.106 166.25 196 164 196C161.75 196 159.591 195.106 158 193.514C156.409 191.923 155.515 189.764 155.515 187.513C155.515 185.262 156.409 183.103 158 181.512L206 135.002H30.5C28.5109 135.002 26.6032 134.211 25.1967 132.804C23.7902 131.398 23 129.49 23 127.5Z" fill="black"/>
</svg>
