<svg xmlns="http://www.w3.org/2000/svg" fill="none" viewBox="0 0 256 256"><path fill="#000" fill-rule="evenodd" d="M56.465 181.733c-5.5 9.753 5.94 22.214 16.12 17.551 1.577-.722 3.124-1.758 4.568-3.201l95.813-95.813 3.64 48.22a12.52 12.52 0 0 0 3.67 8.833 12.52 12.52 0 0 0 8.832 3.669 12.45 12.45 0 0 0 8.822-3.643 12.45 12.45 0 0 0 3.644-8.822l-5.563-76.963a14.05 14.05 0 0 0-13.293-13.017l-74.961-3.837a12.45 12.45 0 0 0-8.822 3.644 12.45 12.45 0 0 0-3.643 8.822 12.52 12.52 0 0 0 3.669 8.832 12.52 12.52 0 0 0 8.833 3.67l47.227 2.647-95.813 95.813a16.6 16.6 0 0 0-2.743 3.595" clip-rule="evenodd"/></svg>