<svg width="256" height="256" viewBox="0 0 256 256" fill="none" xmlns="http://www.w3.org/2000/svg">
<path fill-rule="evenodd" clip-rule="evenodd" d="M53.499 201.481C52.0972 200.069 51.3135 198.158 51.3204 196.169C51.3272 194.179 52.1241 192.274 53.5356 190.873L179.138 66.1612L111.242 68.0339C108.991 68.0256 106.836 67.1236 105.25 65.5263C103.664 63.929 102.777 61.7673 102.785 59.5166C102.793 57.2659 103.694 55.1107 105.291 53.5251C106.888 51.9395 109.05 51.0533 111.3 51.0616L196.162 51.3727C197.315 51.2122 198.49 51.3225 199.593 51.6948C200.697 52.0671 201.698 52.6912 202.519 53.5176C203.339 54.344 203.956 55.35 204.321 56.4561C204.685 57.5621 204.787 58.7378 204.618 59.8899L204.326 144.751C204.318 147.002 203.416 149.157 201.819 150.743C200.222 152.328 198.061 153.215 195.81 153.206C193.559 153.198 191.404 152.296 189.818 150.699C188.232 149.102 187.346 146.94 187.353 144.689L188.645 77.8647L64.1066 201.519C62.6951 202.921 60.7845 203.704 58.7952 203.697C56.8059 203.69 54.9008 202.892 53.499 201.481Z" fill="black"/>
</svg>
