<svg width="256" height="256" viewBox="0 0 256 256" fill="none" xmlns="http://www.w3.org/2000/svg">
<path fill-rule="evenodd" clip-rule="evenodd" d="M140.518 25.4676L217.067 56.3168C219.948 57.8586 222.351 60.1302 224.025 62.8935C225.698 65.6568 226.581 68.8098 226.581 72.0219L226.581 104.423C226.581 159.374 192.842 208.992 140.917 230.405C132.526 233.865 123.055 233.865 114.664 230.405C62.7386 208.992 29 159.374 29 104.423V72.0219C28.9992 68.8098 29.8821 65.6568 31.5559 62.8935C33.2297 60.1302 35.6328 57.8586 38.5131 56.3168L115.063 25.4676C123.227 22.1775 132.354 22.1775 140.518 25.4676ZM161.574 81L128 114.574L94.5239 81.0974L81.0974 94.5239L114.574 128L81 161.574L94.4265 175L128 141.426L161.574 175L175 161.574L141.426 128L175 94.4265L161.574 81Z" fill="black"/>
</svg>
