<svg width="256" height="256" viewBox="0 0 256 256" fill="none" xmlns="http://www.w3.org/2000/svg">
<path fill-rule="evenodd" clip-rule="evenodd" d="M113.545 62.3294C122.012 53.8243 135.791 53.9005 144.164 62.4987L213.139 133.33C216.287 136.575 218.033 140.931 218 145.455C217.967 149.979 216.157 154.308 212.962 157.507C209.768 160.706 205.444 162.518 200.926 162.551C196.408 162.584 192.058 160.836 188.817 157.684L133.701 102.493C130.552 99.3405 125.448 99.3405 122.299 102.493L67.1828 157.684C63.9416 160.836 59.592 162.584 55.0741 162.551C50.5561 162.518 46.2325 160.706 43.0377 157.507C39.8429 154.308 38.0335 149.979 38.0005 145.455C37.9674 140.931 39.7135 136.575 42.8612 133.33L113.545 62.3294Z" fill="black"/>
</svg>
