<svg xmlns="http://www.w3.org/2000/svg" fill="none" viewBox="0 0 256 256"><path fill="#000" d="M49.25 230q-10.828 0-18.532-7.688-7.706-7.689-7.718-18.508v-26.196q0-5.566 3.78-9.325 3.78-3.76 9.345-3.773t9.358 3.773q3.794 3.785 3.767 9.325v26.196h157.5v-26.196q0-5.566 3.78-9.325 3.78-3.76 9.345-3.773t9.358 3.773q3.793 3.785 3.767 9.325v26.196q0 10.806-7.705 18.508-7.704 7.701-18.545 7.688zm65.625-159.14-24.61 24.56q-3.937 3.928-9.344 3.771-5.408-.157-9.359-4.1-3.609-3.928-3.78-9.168t3.78-9.168l47.25-47.153q1.97-1.964 4.266-2.777 2.297-.812 4.922-.825t4.922.825q2.297.84 4.265 2.777l47.25 47.153q3.938 3.93 3.78 9.168-.157 5.24-3.78 9.169-3.937 3.93-9.345 4.1-5.407.17-9.358-3.773l-24.609-24.558v93.649q0 5.567-3.78 9.339T128 177.608t-9.345-3.772-3.78-9.326z"/></svg>
