<svg xmlns="http://www.w3.org/2000/svg" fill="none" viewBox="0 0 256 256"><path fill="#000" d="M176.688 76.69c0 26.891-21.799 48.69-48.69 48.69s-48.69-21.799-48.69-48.69S101.107 28 127.998 28s48.69 21.8 48.69 48.69"/><path fill="#000" fill-rule="evenodd" d="M176.165 121.654c-12.217 16.387-28.798 21.508-49.737 21.527-20.382.019-35.278-5.871-47.545-21.527 0 0-16.88 0-33.29 16.292C28.628 154.79 28 176.757 28 196.583q0 2.688.158 5.338c.068 1.157.218 2.57.406 4.053.797 6.266 5.606 11.17 11.808 12.363 17.5 3.366 52.238 9.523 86.056 9.659 36.682.148 76.018-4.301 93.335-10.581 4.218-1.53 7.013-5.393 7.561-9.847a90 90 0 0 0 .672-10.985c0-19.826-.861-41.56-17.593-58.637-15.963-16.292-34.238-16.292-34.238-16.292" clip-rule="evenodd"/></svg>