<svg width="256" height="256" viewBox="0 0 256 256" fill="none" xmlns="http://www.w3.org/2000/svg">
<path fill-rule="evenodd" clip-rule="evenodd" d="M75.351 199.483L38 176.086V76.9483L129.391 25L218 76.9483V181.241L127.801 232L96.4106 212.569V164.983L79.3245 154.276V100.345L128.596 72.1897L176.676 100.345V156.655L138.53 178.069V155.466C150.053 151.103 158 140 158 126.517C158 113.034 144.49 95.5862 127.801 95.5862C111.113 95.5862 97.6026 109.466 97.6026 126.517C97.6026 143.569 105.947 151.103 117.073 155.466V198.69L127.801 205.431L194.556 167.759V89.6379L128.596 50.7759L60.649 89.6379V163L74.9536 172.121V199.086L75.351 199.483ZM128.199 112.638C135.748 112.638 141.709 118.983 141.709 126.914C141.709 134.845 135.748 141.19 128.199 141.19C120.649 141.19 114.689 134.845 114.689 126.914C114.689 118.983 120.649 112.638 128.199 112.638Z" fill="black"/>
</svg>
