<svg width="257" height="256" viewBox="0 0 257 256" fill="none" xmlns="http://www.w3.org/2000/svg">
<path d="M35.707 74.8077V202.026L157.02 226.264V176.197L139.304 172.849V196.061V204.35L96.2694 195.967L53.2349 187.584V96.9736L62.7214 98.8423L90.9293 104.399V86.2697L35.707 74.8077Z" fill="black"/>
<path d="M139.304 145.966L157.02 149.529V99.8374L117.692 91.8247V109.671L139.304 113.928V145.966Z" fill="black"/>
<path d="M157.02 158.358L139.304 154.821V172.849L157.02 176.197V158.358Z" fill="black"/>
<path d="M157.02 149.529L139.304 145.966V154.821L157.02 158.358V149.529Z" fill="black"/>
<path d="M90.9293 145.01L107.955 148.563V107.752L90.9293 104.399V145.01Z" fill="black"/>
<path d="M90.9293 86.2697V104.399L107.955 107.752V89.8035L90.9293 86.2697Z" fill="black"/>
<path d="M107.955 81.0484L90.9293 77.6078V86.2697L107.955 89.8035V81.0484Z" fill="black"/>
<path d="M107.955 148.563V166.925L139.304 172.849V154.821L107.955 148.563Z" fill="black"/>
<path d="M194.275 157.021V165.795L211.426 169.06V160.47L194.275 157.021Z" fill="black"/>
<path d="M194.275 157.021L211.426 160.47V79.0148L194.275 91.1028V157.021Z" fill="black"/>
<path d="M194.275 57.2257L107.955 40.0204V58.6071L117.692 60.4494L174.36 71.1704L194.275 57.2257Z" fill="black"/>
<path d="M157.02 226.264L221.352 180.488V162.467L211.426 160.47V169.06L166.255 200.896V185.382V178.543L157.02 176.197V226.264Z" fill="black"/>
<path d="M221.352 54.1241L157.02 99.8374V149.529L166.255 151.386V110.851L194.275 91.1028L211.426 79.0148V160.47L221.352 162.467V54.1241Z" fill="black"/>
<path d="M157.02 149.529V158.358L166.255 160.201V151.386L157.02 149.529Z" fill="black"/>
<path d="M157.02 158.358V176.197L166.255 178.543V160.201L157.02 158.358Z" fill="black"/>
<path d="M107.955 148.563L117.692 141.619V109.671L107.955 107.752V148.563Z" fill="black"/>
<path d="M117.692 109.671V91.8247L107.955 89.8035V107.752L117.692 109.671Z" fill="black"/>
<path d="M107.955 89.8035L117.692 91.8247V83.0163L107.955 81.0484V89.8035Z" fill="black"/>
<path d="M107.955 40.0204L62.4701 71.8564L82.5738 75.9192L90.9293 70.2199L107.955 58.6071V40.0204Z" fill="black"/>
<path d="M107.955 148.563L62.7214 180.819L82.7201 184.849L107.955 166.925V148.563Z" fill="black"/>
<path d="M53.2349 96.9736V187.584L62.7214 180.819V164.664V98.8423L53.2349 96.9736Z" fill="black"/>
<path d="M221.352 54.1241L99.6619 29.7852L35.707 74.8077L90.9293 86.2697V77.6078L82.5738 75.9192L62.4701 71.8564L107.955 40.0204L194.275 57.2257L174.36 71.1704L148.539 89.2501L117.692 83.0163V91.8247L157.02 99.8374L221.352 54.1241Z" fill="black"/>
<path d="M62.7214 180.819L107.955 148.563L90.9293 145.01L62.7214 164.664V180.819Z" fill="black"/>
<path d="M62.7214 180.819L53.2349 187.584L96.2694 195.967L139.304 204.35V196.061L82.7201 184.849L62.7214 180.819Z" fill="black"/>
<path d="M194.275 165.795L174.32 179.896L166.255 185.382V200.896L211.426 169.06L194.275 165.795Z" fill="black"/>
<path d="M117.692 141.619L107.955 148.563L139.304 154.821V145.966L117.692 141.619Z" fill="black"/>
</svg>
