<svg xmlns="http://www.w3.org/2000/svg" fill="none" viewBox="0 0 256 256"><path fill="#000" fill-rule="evenodd" d="m139.733 30.357 81.091 35.033a19.05 19.05 0 0 1 7.207 7.04 19.3 19.3 0 0 1 2.647 9.771v91.593a19.3 19.3 0 0 1-2.647 9.771 19.05 19.05 0 0 1-7.207 7.04l-81.089 35.038a28.72 28.72 0 0 1-22.791 0l-81.09-35.038a19.04 19.04 0 0 1-7.206-7.04A19.3 19.3 0 0 1 26 173.794V82.201c0-3.438.914-6.813 2.648-9.77a19.05 19.05 0 0 1 7.207-7.04l81.09-35.035a28.72 28.72 0 0 1 22.788 0m-18.032 91.556v71.608c0 3.59 2.904 6.501 6.486 6.501 3.583 0 6.487-2.911 6.487-6.501v-71.956l65.395-27.441c3.306-1.387 4.865-5.196 3.483-8.51a6.487 6.487 0 0 0-8.498-3.495l-67.298 28.24-66.025-28.59a6.487 6.487 0 0 0-8.538 3.397c-1.418 3.298.098 7.125 3.388 8.55z" clip-rule="evenodd"/></svg>