<svg xmlns="http://www.w3.org/2000/svg" viewBox="0 0 957 257"><path d="M394.858 193.985H356.56L313.756 62.287h32.854l29.099 96.892 29.098-96.892h32.854zm162.976 0H524.98l-6.571-20.695h-48.811l-6.571 20.695h-32.853l44.681-131.698h38.298zm-63.83-97.268-15.395 48.352h30.789zm70.43 54.749V62.287h30.038v86.545q0 18.437 20.65 18.437 20.652 0 20.651-18.437V62.287h30.038v89.179q0 20.883-14.268 32.924-14.455 12.23-36.421 12.229-21.964 0-36.42-12.229-14.268-12.04-14.268-32.924m153.077-89.179v102.725h46.934v28.973h-76.971V62.287zm37.577 0h97.622v28.974h-33.792v102.724H788.88V91.261h-33.792zm153.1 134.332q-19.713 0-33.23-8.466-13.517-8.655-19.336-24.082l25.907-15.051q7.885 18.249 27.597 18.249 17.835 0 17.835-10.724 0-6.02-5.82-9.03-6.008-3.576-21.402-7.714-15.77-4.327-26.658-12.417-12.015-9.784-12.015-27.657 0-18.25 12.954-29.162 13.141-10.912 31.164-10.912 16.144 0 28.536 7.714 12.39 7.526 19.524 22.012L927.9 104.242q-7.134-15.24-22.716-15.239-6.571 0-10.326 2.822-3.754 2.823-3.754 7.15 0 4.702 4.505 8.466 4.881 3.762 19.149 7.902l12.203 3.951q4.693 1.504 10.889 5.079 6.758 3.387 10.137 7.338 9.012 9.783 9.012 24.458 0 18.626-13.517 29.726-13.518 10.724-35.294 10.724M.52 58.796v165.758l158.063 31.581V190.9l-23.083-4.362v41.043l-56.071-10.922-56.072-10.922V87.677l12.36 2.435 36.754 7.24V73.73zm134.98 92.715 23.083 4.642V91.408l-51.242-10.44v23.253l28.159 5.546z"/><path d="m158.583 167.657-23.083-4.608v23.489l23.083 4.362z"/><path d="m158.583 156.153-23.083-4.642v11.538l23.083 4.608zm-86.113-5.887 22.184 4.629v-53.174l-22.183-4.37z"/><path d="M72.47 73.73v23.622l22.184 4.369V78.335zm22.184-6.802L72.47 62.445V73.73l22.183 4.604zm0 87.967v23.924l40.846 7.719v-23.489zm112.469 11.02v11.432l22.347 4.254v-11.192z"/><path d="m207.123 165.915 22.347 4.494V64.278l-22.347 15.75zm0-130.027L94.653 13.471v24.217l12.688 2.4 73.834 13.97zm-48.54 220.247 83.82-59.644V173.01l-12.933-2.601v11.192l-58.854 41.48v-29.124l-12.033-3.057z"/><path d="m242.403 31.847-83.82 59.561v64.745l12.033 2.42v-52.815l36.507-25.73 22.347-15.75v106.131l12.933 2.601z"/><path d="M158.583 156.153v11.504l12.033 2.402v-11.486zm0 11.504V190.9l12.033 3.057v-23.898zm-63.929-12.762 12.687-9.047v-41.627l-12.687-2.5z"/><path d="M107.341 104.221V80.968l-12.687-2.633v23.386zM94.654 78.335l12.687 2.633V69.492l-12.687-2.564zm0-64.865L35.39 54.952l26.194 5.294 10.887-7.426 22.183-15.131zm0 141.425-58.936 42.028 26.057 5.25 32.879-23.354zM23.357 87.677v118.06l12.36-8.814V90.112z"/><path d="M94.654 37.688 72.47 52.818v9.627l22.183 4.483zm12.687 2.4-12.687-2.4v29.24l12.687 2.564zm73.782 155.632 26-18.373-36.507-7.288v23.898z"/></svg>
