<svg xmlns="http://www.w3.org/2000/svg" fill="none" viewBox="0 0 257 256"><path fill="#1543D8" d="M35.988 74.808v127.218l121.36 24.238v-50.067l-17.723-3.348v31.501l-86.102-16.766v-90.61l9.49 1.868 28.219 5.557v-18.13zm103.637 71.158 17.723 3.563V99.837l-39.343-8.012v17.846l21.62 4.257z"/><path fill="#1543D8" d="m157.348 158.358-17.723-3.537v18.028l17.723 3.348z"/><path fill="#1543D8" d="m157.348 149.529-17.723-3.563v8.855l17.723 3.537zm-66.116-4.519 17.032 3.553v-40.811l-17.032-3.353z"/><path fill="#1543D8" d="M91.232 86.27v18.129l17.032 3.353V89.804z"/><path fill="#1543D8" d="m108.264 81.048-17.032-3.44v8.662l17.032 3.534z"/><path fill="#1543D8" d="M108.264 58.607 91.232 70.22v7.388l17.032 3.44zm0 89.956v18.362l31.361 5.924v-18.028zm66.391 31.333 19.962-14.101-28.03-5.594v18.342zm19.962-22.875v8.774l17.158 3.265v-8.59z"/><path fill="#1543D8" d="m194.617 157.021 17.158 3.449V79.015l-17.158 12.088zm0-99.795L108.264 40.02v18.587l9.741 1.842 56.689 10.721z"/><path fill="#5E95FF" d="m194.617 165.795-19.962 14.101-8.068 5.486v15.514l45.188-31.836zM53.523 187.584l86.102 16.766v-8.289l-56.606-11.212-20.006-4.03zm9.49-6.765 45.251-32.256-17.032-3.553-28.219 19.654zm54.992-39.2-9.741 6.944 31.361 6.258v-8.855zm48.582 18.582 28.03 5.594v-8.774l-28.03-5.635zm55.118-106.077L99.968 29.785l-63.98 45.023L91.232 86.27v-8.662l-8.359-1.689-20.111-4.063 45.502-31.836 86.353 17.206-19.923 13.944-25.83 18.08-30.859-6.234v8.809l39.343 8.012z"/><path fill="#477BFF" d="m157.348 226.264 64.357-45.776v-18.021l-9.93-1.997v8.59l-45.188 31.836v-22.353l-9.239-2.346z"/><path fill="#477BFF" d="m221.705 54.124-64.357 45.713v49.692l9.239 1.857v-40.535l28.03-19.748 17.158-12.088v81.455l9.93 1.997z"/><path fill="#477BFF" d="M157.348 149.529v8.829l9.239 1.843v-8.815zm0 8.829v17.839l9.239 2.346v-18.342zm-49.084-9.795 9.741-6.944v-31.948l-9.741-1.919zm9.741-38.892V91.825l-9.741-2.022v17.949z"/><path fill="#477BFF" d="m108.264 89.804 9.741 2.02v-8.808l-9.741-1.968z"/><path fill="#477BFF" d="m118.005 60.45-9.741-1.843v22.441l9.741 1.968zm-9.741-20.43L62.762 71.856l20.111 4.063 8.359-5.7 17.032-11.612zm0 108.543-45.251 32.256 20.006 4.03 25.245-17.924z"/><path fill="#477BFF" d="M53.523 96.974v90.61l9.49-6.765V98.842z"/></svg>