<svg xmlns="http://www.w3.org/2000/svg" viewBox="0 0 957 257"><path d="M394.352 194.2h-38.298L313.25 62.502h32.854l29.099 96.892 29.099-96.892h32.853zm162.976 0h-32.854l-6.57-20.695h-48.812l-6.57 20.695h-32.854l44.681-131.698h38.298zm-63.83-97.268-15.394 48.352h30.788zm70.43 54.748V62.502h30.038v86.544q0 18.438 20.651 18.438 20.65 0 20.65-18.438V62.502h30.038v89.178q0 20.885-14.268 32.925-14.456 12.23-36.42 12.229-21.966 0-36.421-12.229-14.268-12.04-14.268-32.925m153.078-89.178v102.724h46.933V194.2h-76.971V62.502zm37.576 0h97.622v28.974h-33.792V194.2h-30.038V91.476h-33.792zm153.1 134.332q-19.712 0-33.23-8.466-13.516-8.655-19.336-24.082l25.907-15.051q7.885 18.249 27.597 18.249 17.835 0 17.835-10.724 0-6.02-5.82-9.031-6.008-3.575-21.401-7.713-15.77-4.327-26.659-12.418-12.015-9.783-12.015-27.656 0-18.25 12.954-29.162 13.141-10.912 31.164-10.912 16.145 0 28.536 7.714 12.39 7.525 19.524 22.012l-25.344 14.863q-7.134-15.24-22.716-15.239-6.57 0-10.326 2.822-3.754 2.822-3.754 7.15 0 4.703 4.505 8.466 4.881 3.762 19.149 7.902l12.203 3.95q4.694 1.506 10.889 5.08 6.758 3.387 10.138 7.338 9.01 9.783 9.011 24.458 0 18.626-13.517 29.726-13.517 10.724-35.294 10.724M.021 59.013v165.758l158.064 31.581v-65.235l-23.083-4.362v41.043L22.859 205.953V87.893l12.36 2.436 36.754 7.24V73.946zm134.981 92.715 23.083 4.642V91.625l-51.242-10.44v23.252l28.159 5.547z"/><path d="m158.085 167.874-23.083-4.608v23.489l23.083 4.362z"/><path d="m158.085 156.37-23.083-4.642v11.538l23.083 4.608zm-86.112-5.887 22.183 4.629v-53.174l-22.183-4.37z"/><path d="M71.973 73.947v23.621l22.183 4.37V78.552zm22.183-6.803-22.183-4.483v11.286l22.183 4.605zm0-29.239-22.183 15.13v9.626l22.183 4.483zm0 117.207v23.924l40.846 7.719v-23.489zm86.469 40.825 26-18.374-36.507-7.287v23.898zm26-29.805v11.431l22.347 4.255v-11.192z"/><path d="m206.625 166.132 22.347 4.494V64.495l-22.347 15.75zm0-130.027L94.155 13.688v24.217l12.688 2.4 73.834 13.969zm0 141.458-26 18.374-10.507 7.148v20.213l58.854-41.48zM22.86 205.953l112.142 21.845v-10.8L61.276 202.39l-26.057-5.251zm12.36-8.814 58.936-42.027-22.183-4.629-36.753 25.608zm71.623-51.074-12.687 9.047 40.846 8.154v-11.538z"/><path d="m170.118 170.276 36.507 7.287v-11.431l-36.507-7.342zm71.787-138.212L83.351.352.02 59.013l71.952 14.934V62.661l-10.887-2.2-26.194-5.293 59.264-41.48 112.469 22.417-25.948 18.169-33.643 23.557-40.191-8.123v11.477l51.242 10.44z"/><path d="m158.085 256.352 83.82-59.644v-23.481l-12.933-2.601v11.192l-58.854 41.48v-29.124l-12.033-3.057z"/><path d="m241.905 32.064-83.82 59.561v64.745l12.033 2.42v-52.815l36.507-25.73 22.347-15.75v106.131l12.933 2.601z"/><path d="M158.085 156.37v11.504l12.033 2.402V158.79z"/><path d="M158.085 167.874v23.243l12.033 3.057v-23.898zm-63.929-12.762 12.687-9.047v-41.628l-12.687-2.499z"/><path d="M106.843 104.437V81.185l-12.687-2.633v23.386z"/><path d="m94.156 78.552 12.687 2.633V69.708l-12.687-2.564z"/><path d="m106.843 40.305-12.687-2.4v29.24l12.687 2.563zM94.156 13.688l-59.264 41.48 26.194 5.293 10.887-7.425 22.183-15.131zm0 141.424-58.937 42.027 26.057 5.251 32.88-23.354z"/><path d="M22.86 87.894v118.059l12.36-8.814V90.329z"/></svg>