<svg xmlns="http://www.w3.org/2000/svg" fill="none" viewBox="0 0 257 256"><path fill="#000" d="M35.707 74.808v127.218l121.313 24.238v-50.067l-17.716-3.348v31.501l-43.035-8.383-43.034-8.383v-90.61l9.486 1.868L90.93 104.4V86.27zm103.597 71.158 17.716 3.563V99.837l-39.328-8.012v17.846l21.612 4.257z"/><path fill="#000" d="m157.02 158.358-17.716-3.537v18.028l17.716 3.348z"/><path fill="#000" d="m157.02 149.529-17.716-3.563v8.855l17.716 3.537zm-66.09-4.519 17.025 3.553v-40.811l-17.026-3.353z"/><path fill="#000" d="M90.93 86.27v18.129l17.025 3.353V89.804z"/><path fill="#000" d="m107.955 81.048-17.026-3.44v8.662l17.026 3.534zm0 67.515v18.362l31.349 5.924v-18.028zm86.32 8.458v8.774l17.151 3.265v-8.59z"/><path fill="#000" d="m194.275 157.021 17.151 3.449V79.015l-17.151 12.088zm0-99.795-86.32-17.206v18.587l9.737 1.842L174.36 71.17z"/><path fill="#000" d="m157.02 226.264 64.332-45.776v-18.021l-9.926-1.997v8.59l-45.171 31.836v-22.353l-9.235-2.346z"/><path fill="#000" d="M221.352 54.124 157.02 99.837v49.692l9.235 1.857v-40.535l28.02-19.748 17.151-12.088v81.455l9.926 1.997z"/><path fill="#000" d="M157.02 149.529v8.829l9.235 1.843v-8.815zm0 8.829v17.839l9.235 2.346v-18.342zm-49.065-9.795 9.737-6.944v-31.948l-9.737-1.919zm9.737-38.892V91.825l-9.737-2.022v17.949z"/><path fill="#000" d="m107.955 89.804 9.737 2.02v-8.808l-9.737-1.968zm0-49.784L62.47 71.856l20.104 4.063 8.355-5.7 17.026-11.612zm0 108.543-45.234 32.256 20 4.03 25.234-17.924z"/><path fill="#000" d="M53.235 96.974v90.61l9.486-6.765V98.842zm168.117-42.85L99.662 29.785 35.707 74.808 90.929 86.27v-8.662l-8.355-1.689-20.104-4.063 45.485-31.836 86.32 17.206L174.36 71.17l-25.821 18.08-30.847-6.234v8.809l39.328 8.012z"/><path fill="#000" d="m62.721 180.819 45.234-32.256-17.026-3.553-28.208 19.654zm0 0-9.486 6.765 43.034 8.383 43.035 8.383v-8.289L82.72 184.849zm131.554-15.024-19.955 14.101-8.065 5.486v15.514l45.171-31.836zm-76.583-24.176-9.737 6.944 31.349 6.258v-8.855z"/></svg>