<svg width="257" height="256" viewBox="0 0 257 256" fill="none" xmlns="http://www.w3.org/2000/svg">
<path d="M35.9883 74.8077V202.026L157.348 226.264V176.197L139.625 172.849V196.061V204.35L53.5229 187.584V96.9736L63.013 98.8423L91.2319 104.399V86.2697L35.9883 74.8077Z" fill="#1543D8"/>
<path d="M139.625 145.966L157.348 149.529V99.8374L118.005 91.8247V109.671L139.625 113.928V145.966Z" fill="#1543D8"/>
<path d="M157.348 158.358L139.625 154.821V172.849L157.348 176.197V158.358Z" fill="#1543D8"/>
<path d="M157.348 149.529L139.625 145.966V154.821L157.348 158.358V149.529Z" fill="#1543D8"/>
<path d="M91.2319 145.01L108.264 148.563V107.752L91.2319 104.399V145.01Z" fill="#1543D8"/>
<path d="M91.2319 86.2697V104.399L108.264 107.752V89.8035L91.2319 86.2697Z" fill="#1543D8"/>
<path d="M108.264 81.0484L91.2319 77.6078V86.2697L108.264 89.8035V81.0484Z" fill="#1543D8"/>
<path d="M108.264 58.6071L91.2319 70.2199V77.6078L108.264 81.0484V58.6071Z" fill="#1543D8"/>
<path d="M108.264 148.563V166.925L139.625 172.849V154.821L108.264 148.563Z" fill="#1543D8"/>
<path d="M174.655 179.896L194.617 165.795L166.587 160.201V178.543L174.655 179.896Z" fill="#1543D8"/>
<path d="M194.617 157.021V165.795L211.775 169.06V160.47L194.617 157.021Z" fill="#1543D8"/>
<path d="M194.617 157.021L211.775 160.47V79.0148L194.617 91.1028V157.021Z" fill="#1543D8"/>
<path d="M194.617 57.2257L108.264 40.0204V58.6071L118.005 60.4494L174.694 71.1704L194.617 57.2257Z" fill="#1543D8"/>
<path d="M194.617 165.795L174.655 179.896L166.587 185.382V200.896L211.775 169.06L194.617 165.795Z" fill="#5E95FF"/>
<path d="M53.5229 187.584L139.625 204.35V196.061L83.0194 184.849L63.013 180.819L53.5229 187.584Z" fill="#5E95FF"/>
<path d="M63.013 180.819L108.264 148.563L91.2319 145.01L63.013 164.664V180.819Z" fill="#5E95FF"/>
<path d="M118.005 141.619L108.264 148.563L139.625 154.821V145.966L118.005 141.619Z" fill="#5E95FF"/>
<path d="M166.587 160.201L194.617 165.795V157.021L166.587 151.386V160.201Z" fill="#5E95FF"/>
<path d="M221.705 54.1241L99.9678 29.7852L35.9883 74.8077L91.2319 86.2697V77.6078L82.8731 75.9192L62.7616 71.8564L108.264 40.0204L194.617 57.2257L174.694 71.1704L148.864 89.2501L118.005 83.0163V91.8247L157.348 99.8374L221.705 54.1241Z" fill="#5E95FF"/>
<path d="M157.348 226.264L221.705 180.488V162.467L211.775 160.47V169.06L166.587 200.896V185.382V178.543L157.348 176.197V226.264Z" fill="#477BFF"/>
<path d="M221.705 54.1241L157.348 99.8374V149.529L166.587 151.386V110.851L194.617 91.1028L211.775 79.0148V160.47L221.705 162.467V54.1241Z" fill="#477BFF"/>
<path d="M157.348 149.529V158.358L166.587 160.201V151.386L157.348 149.529Z" fill="#477BFF"/>
<path d="M157.348 158.358V176.197L166.587 178.543V160.201L157.348 158.358Z" fill="#477BFF"/>
<path d="M108.264 148.563L118.005 141.619V109.671L108.264 107.752V148.563Z" fill="#477BFF"/>
<path d="M118.005 109.671V91.8247L108.264 89.8035V107.752L118.005 109.671Z" fill="#477BFF"/>
<path d="M108.264 89.8035L118.005 91.8247V83.0163L108.264 81.0484V89.8035Z" fill="#477BFF"/>
<path d="M118.005 60.4494L108.264 58.6071V81.0484L118.005 83.0163V60.4494Z" fill="#477BFF"/>
<path d="M108.264 40.0204L62.7616 71.8564L82.8731 75.9192L91.2319 70.2199L108.264 58.6071V40.0204Z" fill="#477BFF"/>
<path d="M108.264 148.563L63.013 180.819L83.0194 184.849L108.264 166.925V148.563Z" fill="#477BFF"/>
<path d="M53.5229 96.9736V187.584L63.013 180.819V164.664V98.8423L53.5229 96.9736Z" fill="#477BFF"/>
</svg>
