<svg width="256" height="256" viewBox="0 0 256 256" fill="none" xmlns="http://www.w3.org/2000/svg">
<path d="M39.9517 49.9325C25.4607 36.4488 65.8236 23.0787 128.177 23H128.843C191.188 23.0787 231.55 36.4488 217.042 49.9325C217.042 49.9325 163.003 99.4137 144.315 115.321C140.776 118.349 134.818 120.632 128.843 120.711H128.177C122.202 120.632 116.244 118.34 112.696 115.321C94.0171 99.4137 39.9693 49.9325 39.9517 49.9325ZM219.986 74.1787V98.075C219.986 100.7 218.978 104.183 217.191 105.819C205.521 116.511 160.506 157.662 144.306 171.461C140.758 174.48 134.801 176.764 128.825 176.843H128.195C122.211 176.764 116.262 174.48 112.714 171.461C96.5141 157.662 51.499 116.511 39.8203 105.819C38.033 104.183 37.0343 100.7 37.0343 98.075V74.1787C54.2062 89.8237 99.7908 131.097 112.714 142.114C116.253 145.141 122.211 147.425 128.195 147.504H128.825C134.801 147.425 140.758 145.132 144.306 142.114C157.22 131.106 202.814 89.85 219.986 74.1787ZM219.986 130.336V154.224C219.986 156.857 218.978 160.331 217.191 161.967C205.521 172.66 160.506 213.82 144.306 227.61C140.758 230.638 134.801 232.921 128.825 233H128.195C122.211 232.921 116.262 230.629 112.714 227.61C96.5141 213.82 51.499 172.66 39.8203 161.967C38.033 160.331 37.0343 156.849 37.0343 154.224V130.336C54.2062 145.981 99.7908 187.255 112.714 198.271C116.253 201.299 122.211 203.574 128.195 203.652H128.825C134.801 203.574 140.758 201.29 144.306 198.271C157.22 187.264 202.814 145.981 219.986 130.336Z" fill="black"/>
</svg>
