<svg xmlns="http://www.w3.org/2000/svg" fill="none" viewBox="0 0 256 256"><path fill="#D9D9D9" d="M150.939 123.482c0 13.056-10.57 23.639-23.609 23.639s-23.609-10.583-23.609-23.639 10.57-23.639 23.609-23.639 23.609 10.584 23.609 23.639"/><path fill="#040404" fill-rule="evenodd" d="M128.092 64.003c-35.683.245-72.905 15.258-108.376 48.777-8.929 8.438-9.005 22.502.073 30.78C49.493 170.647 90.553 192 130.123 192c37.199 0 74.2-16.916 106.339-47.839 8.967-8.629 8.628-22.902-.511-31.347-31.603-29.205-67.268-49.09-107.859-48.811m-44.78 26.84c10.118-4.526 26.92-9.316 44.78-9.304 16.171.01 33.36 4.785 40.692 7.676 6.532 2.576 6.565 2.598 8.059 5.21 2.126 3.714 4.372 10.18 5.348 15.396 1.035 5.528 1.058 15.34.05 20.524-4.287 22.047-21.203 39.276-42.91 43.705-6.161 1.258-15.426 1.372-21.267.263-18.55-3.524-34.643-16.764-41.295-33.976-5.543-14.344-4.721-31.517 2.165-45.237 1.328-2.646 1.796-3.101 4.379-4.257m67.627 32.639c0 13.056-10.57 23.639-23.609 23.639s-23.609-10.583-23.609-23.639 10.57-23.639 23.609-23.639 23.609 10.584 23.609 23.639m48.094-18.192c2.733 15.175 0 38.273-7.346 50.264 10.848-6.347 21.532-14.858 28.646-21.279 3.611-3.258 3.573-8.782-.012-12.068-7.23-6.627-15.763-13.463-21.288-16.917M34.701 133.597c-3.142-3.097-3.363-8.084-.267-11.227 6.525-6.625 14.367-11.899 22.435-16.738-5.19 27.255 2.934 43.014 7.615 49.935-10.726-4.962-21.71-14.012-29.783-21.97" clip-rule="evenodd"/></svg>
