<svg xmlns="http://www.w3.org/2000/svg" fill="none" viewBox="0 0 256 256"><path fill="#000" d="M203 71.252H46.75v-1.696a5 5 0 0 1 4.318-4.953l127.523-17.557a5 5 0 0 1 5.682 4.962l-.023 12.094H203v-17.07c0-13.32-11.138-22.67-24.738-20.792L52.75 43.605C39.138 45.495 28 57.932 28 71.252V185.78c0 6.424 2.634 12.584 7.322 17.126S46.37 210 53 210h150c6.63 0 12.989-2.552 17.678-7.094 4.688-4.542 7.322-10.702 7.322-17.126V95.472c0-6.423-2.634-12.584-7.322-17.126S209.63 71.252 203 71.252m-22.029 79.366c-2.463 0-4.902-.471-7.177-1.385a18.8 18.8 0 0 1-6.084-3.941 18.1 18.1 0 0 1-4.063-5.897 17.7 17.7 0 0 1-1.426-6.954 17.7 17.7 0 0 1 1.43-6.953 18.2 18.2 0 0 1 4.068-5.894 18.8 18.8 0 0 1 6.087-3.937 19.3 19.3 0 0 1 7.178-1.381c4.974.002 9.744 1.918 13.261 5.327s5.49 8.031 5.489 12.85c-.002 4.82-1.98 9.441-5.498 12.847-3.519 3.407-8.29 5.32-13.265 5.318"/></svg>
