<svg xmlns="http://www.w3.org/2000/svg" fill="none" viewBox="0 0 256 256"><path fill="#000" d="M50.367 213.761c-17.204 0-27.948-18.635-19.328-33.524l77.633-134.093c8.602-14.858 30.054-14.859 38.656 0l77.633 134.093c8.62 14.889-2.124 33.524-19.328 33.524zm2.632-29.546c-2.161 3.722.524 8.387 4.829 8.387h140.344c4.305 0 6.99-4.665 4.829-8.387L132.828 63.388c-2.152-3.705-7.504-3.705-9.656 0zM128 182.023q4.496 0 7.543-3.046 3.047-3.047 3.036-7.533 0-4.496-3.047-7.532T128 160.865q-4.496 0-7.532 3.047t-3.047 7.532q0 4.497 3.047 7.543t7.532 3.036m-10.579-31.737h21.158V97.391h-21.158z"/></svg>