<svg xmlns="http://www.w3.org/2000/svg" fill="none" viewBox="0 0 256 256"><path fill="#040404" fill-rule="evenodd" d="m96.448 96.57 15.889-47.486a5973 5973 0 0 1 9.583-28.39c2.131-6.262 10.927-6.257 13.05.008a5863 5863 0 0 1 9.556 28.429l15.839 47.531 47.531 15.839a5670 5670 0 0 1 28.404 9.55c6.267 2.124 6.267 10.924 0 13.049a5784 5784 0 0 1-28.404 9.549l-47.531 15.839-15.898 47.706a2582 2582 0 0 1-9.572 28.164c-2.157 6.229-10.896 6.174-13.003-.073-2.716-8.054-6.084-18.055-9.672-28.741L96.448 160.58l-46.964-15.772c-10.7-3.593-20.711-6.965-28.77-9.682-6.242-2.105-6.302-10.839-.079-13.002a2586 2586 0 0 1 28.158-9.608zm-20.525 21.569-21.578 7.281c-1.492.504-1.132 2.708.442 2.71l26.876.042c19.42.03 35.309-.105 35.309-.302 0-1.331-9.924-19.809-10.615-19.765-.476.03-14.171 4.545-30.434 10.034m32.004 32.19c0-.288 4.306-2.701 9.567-5.362s9.802-4.855 10.089-4.876c.286-.019.497 15.853.467 35.274l-.042 26.828c-.002 1.576-2.209 1.934-2.71.44l-7.336-21.869c-5.519-16.452-10.035-30.148-10.035-30.435m20.927-68.544c-.029 19.421.107 35.31.303 35.31.896 0 19.82-9.81 19.82-10.273 0-.288-4.515-13.984-10.034-30.436l-7.336-21.87c-.501-1.493-2.708-1.135-2.711.441zm21.351 67.315c-.463 0-10.273-18.925-10.273-19.82 0-.196 15.89-.333 35.31-.303l26.827.042c1.576.003 1.935 2.21.441 2.711l-21.87 7.336c-16.451 5.519-30.147 10.034-30.435 10.034" clip-rule="evenodd"/><path fill="#040404" d="m163.415 73.071 28.856-13.198c3.526-1.613 7.155 2.035 5.523 5.553l-13.255 28.58-17.213-5.102zm-71.665 0L62.892 59.873c-3.526-1.613-7.155 2.035-5.523 5.553l13.255 28.58 17.213-5.102zm0 112.271L62.892 198.54c-3.526 1.613-7.155-2.035-5.523-5.553l13.255-28.58 17.213 5.102zm71.49 0 28.855 13.198c3.527 1.613 7.155-2.035 5.524-5.553l-13.255-28.58-17.214 5.102z"/></svg>
