<svg xmlns="http://www.w3.org/2000/svg" fill="none" viewBox="0 0 256 256"><path fill="#000" d="M82.778 217.198a100.16 100.16 0 0 1-49.806-58.131 100.2 100.2 0 0 1 5.787-76.34 100.15 100.15 0 0 1 58.154-49.779 100.12 100.12 0 0 1 76.312 5.85 100.18 100.18 0 0 1 49.804 58.136 100.2 100.2 0 0 1-5.79 76.346 100.14 100.14 0 0 1-58.151 49.773 100.1 100.1 0 0 1-76.31-5.855m86.965-171.532a92.4 92.4 0 0 0-70.44-5.404 92.44 92.44 0 0 0-53.68 45.948 92.42 92.42 0 0 0 40.638 124.119 92.33 92.33 0 0 0 70.444 5.43 92.37 92.37 0 0 0 53.669-45.962 92.5 92.5 0 0 0 5.343-70.471 92.45 92.45 0 0 0-45.974-53.66"/><path fill="#000" d="M101.216 208.811a82.97 82.97 0 0 1-41.262-48.165 83.02 83.02 0 0 1 4.796-63.248 82.94 82.94 0 0 1 111.401-36.39 82.98 82.98 0 0 1 41.259 48.161 83.02 83.02 0 0 1-4.796 63.249 82.96 82.96 0 0 1-48.178 41.238 82.92 82.92 0 0 1-63.22-4.845m72.231-142.47a76.95 76.95 0 0 0-58.658-4.494 76.98 76.98 0 0 0-44.697 38.262 77.02 77.02 0 0 0-4.444 58.673 77 77 0 0 0 38.277 44.685 76.95 76.95 0 0 0 58.651 4.493 76.97 76.97 0 0 0 44.696-38.252 77.02 77.02 0 0 0 4.445-58.675 77 77 0 0 0-38.275-44.682z"/><path fill="#000" d="M119.646 200.428a65.8 65.8 0 0 1-32.717-38.191 65.83 65.83 0 0 1 3.802-50.15 65.77 65.77 0 0 1 88.334-28.859 65.813 65.813 0 0 1 28.913 88.345 65.78 65.78 0 0 1-38.202 32.697 65.75 65.75 0 0 1-50.13-3.842M177.132 87.04a61.48 61.48 0 0 0-46.871-3.598 61.5 61.5 0 0 0-35.721 30.575 61.56 61.56 0 0 0-3.549 46.889 61.5 61.5 0 0 0 30.593 35.699 61.48 61.48 0 0 0 46.866 3.601 61.52 61.52 0 0 0 35.721-30.567 61.55 61.55 0 0 0 3.555-46.894 61.52 61.52 0 0 0-30.594-35.705"/><path fill="#000" d="M138.078 192.043a48.64 48.64 0 0 1-21.363-65.275A48.6 48.6 0 0 1 144.94 102.6a48.6 48.6 0 0 1 37.048 2.836 48.6 48.6 0 0 1 24.174 28.226 48.63 48.63 0 0 1-2.816 37.059 48.6 48.6 0 0 1-28.225 24.159 48.6 48.6 0 0 1-37.043-2.837m42.75-84.319a46.034 46.034 0 0 0-61.824 20.205 46.06 46.06 0 0 0 20.235 61.824 46.02 46.02 0 0 0 35.083 2.689 46.04 46.04 0 0 0 26.735-22.882 46.06 46.06 0 0 0 2.667-35.102 46.05 46.05 0 0 0-22.896-26.734"/></svg>