<svg xmlns="http://www.w3.org/2000/svg" fill="none" viewBox="0 0 256 256"><path fill="#fff" d="M128 256c70.692 0 128-57.308 128-128S198.692 0 128 0 0 57.308 0 128s57.308 128 128 128"/><path fill="url(#paint0_linear_10883_700)" fill-rule="evenodd" d="M37.754 158.157c-15.812-18.801-14.71-46.588 3.3-64.14 19.186-18.69 50.288-18.69 69.475 0 19.182 18.694 19.182 48.997 0 67.691-18.603 18.126-48.413 18.672-67.693 1.651l43.376-42.266 5.21 5.076-26.484 25.809c9.894 4.227 21.858 2.392 29.956-5.499 10.553-10.282 10.553-26.95 0-37.228-10.549-10.282-27.657-10.282-38.21 0-9.363 9.122-10.416 23.279-3.158 33.535zm130.415-20.771v-7.158h61.164c-1.243 24.568-21.548 44.249-46.808 45.291-28.913 1.198-52.681-22.331-51.009-50.479 1.486-25.05 23.494-44.92 48.895-44.92s46.282 18.835 48.741 42.95h-22.247c-2.301-12.217-13.287-21.473-26.494-21.473-16.634 0-29.749 14.69-26.418 31.488 2.061 10.382 10.451 18.53 21.115 20.513 13.627 2.529 25.892-4.952 30.408-16.212z" clip-rule="evenodd"/><defs><linearGradient id="paint0_linear_10883_700" x1="183.59" x2="88.975" y1="74.784" y2="169.156" gradientUnits="userSpaceOnUse"><stop stop-color="#FAEA53"/><stop offset=".12" stop-color="#FFAF90"/><stop offset=".25" stop-color="#FE7981"/><stop offset=".56" stop-color="#BC50FF"/><stop offset="1" stop-color="#53B7FF"/></linearGradient></defs></svg>
