<svg width="256" height="256" viewBox="0 0 256 256" fill="none" xmlns="http://www.w3.org/2000/svg">
<path d="M128 256C198.692 256 256 198.692 256 128C256 57.3075 198.692 0 128 0C57.3075 0 0 57.3075 0 128C0 198.692 57.3075 256 128 256Z" fill="#15D17A"/>
<path d="M193.5 190.393L157.039 155H99.4616L63 190.393L80.1083 207L116.57 171.607C119.696 168.573 123.817 166.917 128.25 166.917C132.684 166.917 136.804 168.573 139.93 171.607L176.392 207L193.5 190.393Z" fill="white"/>
<path d="M163.195 144.524L212.774 157.5L219 134.731L169.42 121.755C165.176 120.649 161.638 117.993 159.431 114.258C157.224 110.55 156.658 106.207 157.79 102.057L171.062 53.5865L147.772 47.5L134.5 95.9707L163.167 144.497L163.195 144.524Z" fill="white"/>
<path d="M43.7257 157.5L93.3052 144.524L93.3335 144.497L122 95.9707L108.728 47.5L85.4381 53.5865L98.7103 102.057C99.8422 106.207 99.2762 110.55 97.069 114.258C94.8616 117.993 91.3243 120.649 87.0795 121.755L37.5 134.731L43.7257 157.5Z" fill="white"/>
</svg>
