<svg xmlns="http://www.w3.org/2000/svg" fill="none" viewBox="0 0 256 256"><path fill="#15D17A" d="M128 256c70.692 0 128-57.308 128-128S198.692 0 128 0 0 57.308 0 128s57.308 128 128 128"/><path fill="#fff" d="M193.5 190.393 157.039 155H99.462L63 190.393 80.108 207l36.462-35.393c3.126-3.034 7.247-4.69 11.68-4.69 4.434 0 8.554 1.656 11.68 4.69L176.392 207zm-30.305-45.869 49.579 12.976L219 134.731l-49.58-12.976c-4.244-1.106-7.782-3.762-9.989-7.497-2.207-3.708-2.773-8.051-1.641-12.201l13.272-48.47-23.29-6.087L134.5 95.97l28.667 48.527zM43.726 157.5l49.58-12.976.028-.027L122 95.971 108.728 47.5l-23.29 6.087 13.272 48.47c1.132 4.15.566 8.493-1.641 12.201-2.207 3.735-5.745 6.391-9.99 7.497L37.5 134.731z"/></svg>
