<svg xmlns="http://www.w3.org/2000/svg" fill="none" viewBox="0 0 256 256"><path fill="#fff" d="M128 256c70.692 0 128-57.308 128-128S198.692 0 128 0 0 57.308 0 128s57.308 128 128 128"/><path fill="#171717" d="M193.823 147.908a65.4 65.4 0 0 0 2.828-19.027c0-.734-.027-1.456-.054-2.191-26.27-15.205-46.079-47.78-54.371-63.24a70 70 0 0 0-13.879-1.376c-4.754 0-9.085.455-13.429 1.296-3.701 6.841-9.671 17.063-17.513 27.658-9.043 12.226-22.008 26.843-37.307 35.716a55 55 0 0 0-.055 2.137c0 6.628.997 13.028 2.841 19.067 11.352-5.224 21.653-12.96 30.71-21.686-6.462 14.952-13.661 29.462-21.16 40.966a67.8 67.8 0 0 0 14.548 14.805c8.196-11.732 16.475-27.164 24.781-46.23-2.937 19.615-7.2 36.784-13.347 53.151a69 69 0 0 0 19.658 5.986c4.399-10.983 7.869-21.899 10.601-36.103 2.745 14.151 6.23 25.04 10.628 35.983a68.8 68.8 0 0 0 19.548-6.173c-5.942-15.78-10.121-32.322-13.072-51.362 8.059 18.333 16.106 33.231 24.056 44.641a67.6 67.6 0 0 0 14.522-14.858c-7.446-11.464-14.59-25.867-21.011-40.712 8.989 8.672 19.194 16.354 30.464 21.552z"/><path fill="#171717" fill-rule="evenodd" d="M128.004 42.344c-47.308 0-85.658 38.35-85.658 85.659 0 47.307 38.35 85.658 85.658 85.658s85.658-38.351 85.658-85.658-38.351-85.659-85.658-85.659M21.337 128.003c0-58.91 47.756-106.667 106.667-106.667 58.91 0 106.666 47.756 106.666 106.667 0 58.91-47.756 106.666-106.666 106.666S21.337 186.913 21.337 128.003" clip-rule="evenodd"/></svg>
