<svg xmlns="http://www.w3.org/2000/svg" fill="none" viewBox="0 0 365 256"><path fill="#000" d="M327.719 22.457a195.6 195.6 0 0 1 26.254 49.244q-51.868.036-103.523.12-6.466.007-10.57-4.566a735 735 0 0 1-12.661-14.49c-4.688-5.498-11.858-4.978-16.396.285a1453 1453 0 0 1-10.399 11.957q-3.549 4.035-8.593 5.79-2.646.918-10.996.918-85.172.007-170.6 0 9.532-26.532 26.248-49.172 97.94.015 195.58.007c2.66 0 5.576-1.85 7.504-3.863q7.298-7.653 14.802-15.414c4.318-4.46 11.666-4.353 15.791.264q6.388 7.156 12.868 14.41c3.578 4.005 7.07 4.596 12.568 4.61q15.926.05 32.123-.1m35.885 94.689q-68.292.021-136.52-.007c-3.094 0-6.836-2.234-9.069-4.794a5099 5099 0 0 1-12.292-14.113c-2.71-3.122-6.138-4.317-10.285-3.798q-3.25.405-6.722 4.09a4123 4123 0 0 1-13.088 13.821c-2.859 3.001-5.079 4.822-9.005 4.815q-83.016-.014-166.026-.007L0 125.689V138.4q.81 13.785 2.973 27.47 57.83.022 115.438-.007 5.512 0 8.158-.789c3.913-1.174 6.85-3.457 9.51-6.445q4.368-4.9 9.247-10.499c3.578-4.104 8.102-6.081 13.202-3.641q2.17 1.03 4.652 3.905a542 542 0 0 0 12.057 13.529c2.432 2.631 5.975 3.969 9.51 3.962 58.71-.015 118.077.009 175.703.024a8 8 0 0 1 .59-.006q2.54-13.591 3.147-27.958v-12.342zM103.409 251.092c2.561 2.909 6.025 4.765 9.866 4.765 30.216.002 60.694.016 91.092.03 37.078.016 74.039.033 110.264.028h1.01a173 173 0 0 0 8.322-9.66q13.355-16.72 22.296-35.21H162.092c-3.692 0-7.234-1.764-9.745-4.588a4430 4430 0 0 1-12.533-14.126c-4.126-4.673-11.58-5.171-16.026-.548a7615 7615 0 0 1-15.485 16.068c-2.66 2.746-5.69 3.208-9.567 3.208q-40.352-.028-80.833-.007 12.191 24.908 30.757 44.933l.014.015h.017q.376-.006.751-.025c5.574-.276 11.127-2.595 14.774-6.697q4.944-5.555 10.94-12.455 2.44-2.803 5.876-3.507c4.396-.896 7.746.953 10.584 4.247q5.889 6.828 11.793 13.529"/></svg>