<svg xmlns="http://www.w3.org/2000/svg" fill="none" viewBox="0 0 364 256"><path fill="#000" d="M327.55 22.457a195.6 195.6 0 0 1 26.241 49.244q-51.841.036-103.47.12-6.463.007-10.564-4.566a734 734 0 0 1-12.655-14.49c-4.685-5.498-11.851-4.978-16.387.285a1476 1476 0 0 1-10.394 11.957q-3.548 4.035-8.588 5.79-2.645.918-10.991.918-85.129.007-170.512 0 9.527-26.532 26.234-49.172 97.889.015 195.479.007c2.659 0 5.574-1.85 7.501-3.863a3065 3065 0 0 1 14.794-15.414c4.316-4.46 11.66-4.353 15.783.264q6.384 7.156 12.861 14.41c3.576 4.005 7.067 4.596 12.562 4.61q15.918.05 32.106-.1m35.867 94.689q-68.257.021-136.45-.007c-3.093 0-6.832-2.234-9.065-4.794a5228 5228 0 0 1-12.285-14.113c-2.708-3.122-6.135-4.317-10.28-3.798q-3.249.405-6.718 4.09a4197 4197 0 0 1-13.081 13.821c-2.858 3.001-5.077 4.822-9.001 4.815q-82.974-.014-165.94-.007L0 125.689V138.4q.81 13.785 2.972 27.47 57.8.022 115.378-.007 5.51 0 8.154-.789c3.91-1.174 6.847-3.457 9.505-6.445a1270 1270 0 0 0 9.243-10.499c3.576-4.104 8.097-6.081 13.195-3.641q2.168 1.03 4.649 3.905a542 542 0 0 0 12.051 13.529c2.431 2.631 5.971 3.969 9.505 3.962 58.68-.015 118.016.009 175.612.024a8 8 0 0 1 .59-.006q2.538-13.591 3.146-27.958v-12.342zM103.356 251.092c2.559 2.909 6.022 4.765 9.861 4.765 30.201.002 60.662.016 91.045.03 37.059.016 74 .033 110.207.028h1.009a172 172 0 0 0 8.318-9.66q13.348-16.72 22.285-35.21H162.008c-3.689 0-7.23-1.764-9.739-4.588a4349 4349 0 0 1-12.527-14.126c-4.124-4.673-11.574-5.171-16.018-.548a7424 7424 0 0 1-15.477 16.068c-2.659 2.746-5.687 3.208-9.562 3.208a65916 65916 0 0 0-80.79-.007q12.183 24.908 30.74 44.933l.014.015h.017q.375-.006.751-.025c5.57-.276 11.121-2.595 14.766-6.697q4.942-5.555 10.935-12.455 2.438-2.803 5.872-3.507c4.394-.896 7.742.953 10.579 4.247q5.886 6.828 11.787 13.529"/></svg>
