<svg xmlns="http://www.w3.org/2000/svg" fill="none" viewBox="0 0 512 512"><path fill="#fff" d="M246.79 0h17.48q45.68 1.69 86.71 18.07 66.28 26.44 109.75 83.8-22.77.21-45.16.14c-7.73-.02-12.64-.85-17.67-6.48q-9.11-10.2-18.09-20.26c-5.8-6.49-16.13-6.64-22.2-.37a4302 4302 0 0 0-20.81 21.67c-2.71 2.83-6.81 5.43-10.55 5.43q-137.27.01-274.96-.01 19.8-26.79 45.43-46.81Q162.48 3.83 246.79 0"/><path fill="#000" d="M460.73 101.87q23.41 31.95 36.91 69.23-72.92.05-145.54.17-9.09.01-14.86-6.42-9.41-10.5-17.8-20.37c-6.59-7.73-16.67-7-23.05.4q-7.8 9.06-14.62 16.81-4.99 5.67-12.08 8.14-3.72 1.29-15.46 1.29-119.74.01-239.84 0 13.4-37.3 36.9-69.13 137.69.02 274.96.01c3.74 0 7.84-2.6 10.55-5.43a4302 4302 0 0 1 20.81-21.67c6.07-6.27 16.4-6.12 22.2.37q8.98 10.06 18.09 20.26c5.03 5.63 9.94 6.46 17.67 6.48q22.39.07 45.16-.14"/><path fill="#fff" d="M497.64 171.1q10.74 30.85 13.54 63.89-96.01.03-191.93-.01c-4.35 0-9.61-3.14-12.75-6.74a7182 7182 0 0 1-17.28-19.84c-3.81-4.39-8.63-6.07-14.46-5.34q-4.57.57-9.45 5.75a5752 5752 0 0 1-18.4 19.43c-4.02 4.22-7.14 6.78-12.66 6.77Q117.54 234.99.84 235a256.8 256.8 0 0 1 13.55-63.88q120.1.01 239.84 0 11.74 0 15.46-1.29 7.09-2.47 12.08-8.14 6.82-7.75 14.62-16.81c6.38-7.4 16.46-8.13 23.05-.4q8.39 9.87 17.8 20.37 5.77 6.43 14.86 6.42 72.62-.12 145.54-.17"/><path fill="#000" d="m511.18 234.99.82 11.89v17.35q-3.64 86.03-56.55 152.27-21.2 26.54-50.16 47.41a300.4 300.4 0 0 0 35.75-31.92q.34-.36.81-.51.43-.13.68-.49a.64.64 0 0 0-.53-1q-140.11.02-282.75.01c-5.4 0-10.27-2.61-13.87-6.7q-8.3-9.42-16.58-19.02c-3.99-4.63-8.7-7.23-14.88-5.97q-4.83.99-8.26 4.93a2002 2002 0 0 1-15.38 17.51q-8.1 9.11-20.47 9.24a.35.35 0 0 0-.191.057.35.35 0 0 0-.128.156.36.36 0 0 0 .069.387 354 354 0 0 0 25.65 24.34 187 187 0 0 1-15.17-12.97q-34.05-32.41-54.87-74.95 56.91-.03 113.64.01c5.45 0 9.71-.65 13.45-4.51a11081 11081 0 0 0 21.77-22.59c6.25-6.5 16.73-5.8 22.53.77q9.57 10.83 17.62 19.86c3.53 3.97 8.51 6.45 13.7 6.45H485.3a1.2 1.2 0 0 0 1.08-.68q14.39-30.26 20.55-62.4a.34.34 0 0 0-.33-.41q-122.26-.03-246.87 0c-4.97.01-9.95-1.87-13.37-5.57q-8.03-8.69-16.95-19.02-3.49-4.04-6.54-5.49c-7.17-3.43-13.53-.65-18.56 5.12a1788 1788 0 0 1-13 14.76c-3.74 4.2-7.87 7.41-13.37 9.06q-3.72 1.11-11.47 1.11-80.99.04-162.29.01A397 397 0 0 1 0 264.87V247l.84-12q116.7-.01 233.41.01c5.52.01 8.64-2.55 12.66-6.77a5752 5752 0 0 0 18.4-19.43q4.88-5.18 9.45-5.75c5.83-.73 10.65.95 14.46 5.34q8.19 9.44 17.28 19.84c3.14 3.6 8.4 6.74 12.75 6.74q95.92.04 191.93.01"/><path fill="#fff" d="M25.17 367.01Q9.99 336.87 4.18 303.49q81.3.03 162.29-.01 7.75 0 11.47-1.11c5.5-1.65 9.63-4.86 13.37-9.06a1788 1788 0 0 0 13-14.76c5.03-5.77 11.39-8.55 18.56-5.12q3.05 1.45 6.54 5.49 8.92 10.33 16.95 19.02c3.42 3.7 8.4 5.58 13.37 5.57q124.61-.03 246.87 0 .076 0 .145.034a.33.33 0 0 1 .183.227.34.34 0 0 1 .002.149q-6.16 32.14-20.55 62.4a1.2 1.2 0 0 1-1.08.68H227.88c-5.19 0-10.17-2.48-13.7-6.45q-8.05-9.03-17.62-19.86c-5.8-6.57-16.28-7.27-22.53-.77a11081 11081 0 0 1-21.77 22.59c-3.74 3.86-8 4.51-13.45 4.51q-56.73-.04-113.64-.01m380.12 96.9q-56.19 40.33-125.56 46.84-7.17.67-14.35 1.25h-16q-86.45-2.99-153.73-56.4a1.27 1.27 0 0 1-.44-.67 354 354 0 0 1-25.65-24.34.36.36 0 0 1-.069-.387.35.35 0 0 1 .128-.156.35.35 0 0 1 .191-.057q12.37-.13 20.47-9.24 6.95-7.81 15.38-17.51 3.43-3.94 8.26-4.93c6.18-1.26 10.89 1.34 14.88 5.97q8.28 9.6 16.58 19.02c3.6 4.09 8.47 6.7 13.87 6.7q142.64.01 282.75-.01a.638.638 0 0 1 .53 1q-.25.36-.68.49-.47.15-.81.51a300.4 300.4 0 0 1-35.75 31.92"/></svg>