<svg xmlns="http://www.w3.org/2000/svg" fill="none" viewBox="0 0 256 256"><path fill="#F70" fill-rule="evenodd" d="M128 256c70.692 0 128-57.308 128-128S198.692 0 128 0 0 57.308 0 128s57.308 128 128 128m-7.865-230.89c2.455-1.42 5.21-2.11 7.965-2.11s5.51.735 7.965 2.155L213.13 69.98a16.03 16.03 0 0 1 7.92 13.82l-.3 89.165c0 5.68-3.06 10.935-8.01 13.775l-77.325 44.3c-2.455 1.42-5.21 2.11-7.965 2.11s-5.51-.735-7.965-2.155l-77.065-44.82a16.03 16.03 0 0 1-7.92-13.82l.3-89.165c0-5.685 3.06-10.935 8.01-13.78z" clip-rule="evenodd"/><path fill="#F70" d="M105.382 75.5H93.814c-.89 0-1.63.545-1.929 1.383L54.565 179.06c-.248.695.246 1.384.987 1.384h11.567c.89 0 1.63-.546 1.93-1.384l37.269-102.227c.298-.643-.195-1.332-.942-1.332zm15.03 39.646c-.345-.89-1.631-.89-1.929 0l-6.034 16.511a2.36 2.36 0 0 0 0 1.435l16.809 46.024a2.07 2.07 0 0 0 1.929 1.384h11.568c.741 0 1.234-.695.988-1.384l-23.331-63.964zm5.241-39.646h-11.568c-.889 0-1.63.545-1.928 1.383L74.887 179.06c-.247.695.247 1.384.987 1.384h11.568c.89 0 1.63-.546 1.93-1.384L126.64 76.832c.247-.643-.247-1.332-.988-1.332m4.892 11.815c-.344-.89-1.63-.89-1.928 0l-6.028 16.511c-.15.442-.15.941 0 1.435l26.941 73.804a2.07 2.07 0 0 0 1.929 1.384h11.568c.741 0 1.234-.695.988-1.384L130.55 87.321zM200.491 75.5h-11.568c-.89 0-1.63.545-1.929 1.383l-26.988 73.805a2.36 2.36 0 0 0 0 1.435l6.034 16.511c.344.89 1.63.89 1.929 0l33.463-91.745c.247-.694-.247-1.383-.941-1.383zm-44.589 65.302c.344.89 1.63.89 1.928 0l23.331-63.918c.247-.695-.247-1.384-.987-1.384h-11.568c-.89 0-1.63.545-1.929 1.383l-16.809 46.025a2.36 2.36 0 0 0 0 1.435l6.028 16.459z"/><path fill="#fff" fill-rule="evenodd" d="M128.1 23c-2.755 0-5.51.69-7.965 2.11L42.81 69.41c-4.95 2.845-8.01 8.095-8.01 13.78l-.3 89.165a16.03 16.03 0 0 0 7.92 13.82l77.065 44.82a15.93 15.93 0 0 0 7.965 2.155c2.755 0 5.51-.69 7.965-2.11l77.325-44.3c4.95-2.84 8.01-8.095 8.01-13.775l.3-89.165a16.03 16.03 0 0 0-7.92-13.82l-77.065-44.825A15.93 15.93 0 0 0 128.1 23M93.814 75.5h11.562c.747 0 1.24.689.942 1.332l-37.27 102.227c-.298.838-1.039 1.384-1.929 1.384H55.552c-.74 0-1.235-.689-.988-1.384L91.885 76.884c.299-.839 1.04-1.384 1.93-1.384m24.669 39.646c.298-.89 1.584-.89 1.929 0v.006l23.331 63.964c.246.689-.247 1.384-.988 1.384h-11.568c-.844 0-1.63-.545-1.929-1.384l-16.809-46.024a2.36 2.36 0 0 1 0-1.435zM114.085 75.5h11.568c.741 0 1.235.689.988 1.332l-37.27 102.227c-.298.838-1.039 1.384-1.929 1.384H75.874c-.74 0-1.234-.689-.987-1.384l37.27-102.175c.298-.839 1.039-1.384 1.928-1.384m14.531 11.815c.298-.89 1.584-.89 1.928 0l.006.006 33.464 91.744c.246.689-.247 1.384-.988 1.384h-11.568c-.844 0-1.63-.546-1.929-1.384l-26.941-73.804a2.34 2.34 0 0 1 0-1.435zM188.923 75.5h11.568v.006c.694 0 1.188.689.941 1.383l-33.463 91.745c-.299.89-1.585.89-1.929 0l-6.034-16.511a2.36 2.36 0 0 1 0-1.435l26.988-73.804c.299-.839 1.039-1.384 1.929-1.384m-31.093 65.302c-.298.89-1.584.89-1.928 0h-.006l-6.028-16.459a2.36 2.36 0 0 1 0-1.435l16.809-46.024c.299-.839 1.039-1.384 1.929-1.384h11.568c.74 0 1.234.689.987 1.383z" clip-rule="evenodd"/></svg>