<svg xmlns="http://www.w3.org/2000/svg" fill="none" viewBox="0 0 256 256"><path fill="#1B4ADD" fill-rule="evenodd" d="M128 256c70.692 0 128-57.308 128-128S198.692 0 128 0 0 57.308 0 128s57.308 128 128 128m-7.865-230.89c2.455-1.42 5.21-2.11 7.965-2.11s5.51.735 7.965 2.155L213.13 69.98a16.03 16.03 0 0 1 7.92 13.82l-.3 89.165c0 5.68-3.06 10.935-8.01 13.775l-77.325 44.3c-2.455 1.42-5.21 2.11-7.965 2.11s-5.51-.735-7.965-2.155l-77.065-44.82a16.03 16.03 0 0 1-7.92-13.82l.3-89.165c0-5.685 3.06-10.935 8.01-13.78z" clip-rule="evenodd"/><path fill="#1B4ADD" d="M147.755 61h-13.796c-1.051 0-1.95.63-2.317 1.632l-44.44 121.736c-.318.788.318 1.632 1.156 1.632h13.796c1.052 0 1.951-.63 2.318-1.632l44.439-121.736c.318-.788-.318-1.632-1.156-1.632m-24.167 0h-13.796c-1.052 0-1.951.63-2.318 1.632l-44.39 121.687c-.319.789.317 1.632 1.155 1.632h13.796c1.052 0 1.951-.629 2.318-1.632l44.391-121.687c.318-.788-.263-1.632-1.156-1.632m17.905 47.158c-.366-1.107-1.95-1.107-2.317 0l-7.161 19.682a2.36 2.36 0 0 0 0 1.687l20.009 54.792c.367.947 1.266 1.632 2.318 1.632h13.796c.844 0 1.473-.843 1.155-1.632zm51.919 76.161L153.553 75.053c-.367-1.107-1.951-1.107-2.318 0l-7.161 19.682a2.36 2.36 0 0 0 0 1.687l32.069 87.897c.366.947 1.265 1.632 2.317 1.632h13.796c.893.055 1.474-.843 1.156-1.632"/><path fill="#fff" fill-rule="evenodd" d="M128.1 23c-2.755 0-5.51.69-7.965 2.11L42.81 69.41c-4.95 2.845-8.01 8.095-8.01 13.78l-.3 89.165a16.03 16.03 0 0 0 7.92 13.82l77.065 44.82a15.93 15.93 0 0 0 7.965 2.155c2.755 0 5.51-.69 7.965-2.11l77.325-44.3c4.95-2.84 8.01-8.095 8.01-13.775l.3-89.165a16.03 16.03 0 0 0-7.92-13.82l-77.065-44.825A15.93 15.93 0 0 0 128.1 23m5.859 38h13.796c.838 0 1.474.843 1.156 1.632l-44.439 121.736c-.367 1.002-1.266 1.632-2.318 1.632H88.358c-.838 0-1.474-.844-1.156-1.632l44.44-121.736c.367-1.002 1.266-1.632 2.317-1.632m-24.167 0h13.796c.893 0 1.474.843 1.156 1.632L80.353 184.319c-.367 1.003-1.266 1.632-2.318 1.632H64.24c-.838 0-1.474-.843-1.156-1.632l44.391-121.687c.367-1.002 1.266-1.632 2.318-1.632m29.384 47.158c.367-1.107 1.951-1.107 2.317 0l27.8 76.161c.318.789-.311 1.632-1.155 1.632h-13.796c-1.052 0-1.951-.685-2.318-1.632l-20.009-54.792a2.36 2.36 0 0 1 0-1.687zm14.377-33.105 39.859 109.266c.318.789-.263 1.687-1.156 1.632H178.46c-1.052 0-1.951-.685-2.317-1.632l-32.069-87.897a2.36 2.36 0 0 1 0-1.687l7.161-19.682c.367-1.107 1.951-1.107 2.318 0" clip-rule="evenodd"/></svg>