<svg xmlns="http://www.w3.org/2000/svg" fill="none" viewBox="0 0 512 512"><path fill="#6DD249" d="M256 512c141.385 0 256-114.615 256-256S397.385 0 256 0 0 114.615 0 256s114.615 256 256 256"/><path fill="#fff" d="M255.964 403.777H143.989c-34.545 0-62.918-24.58-67.579-58.724-2.125-15.459 1.151-29.907 8.953-43.385a47339 47339 0 0 0 52.795-91.437q29.53-51.163 59.073-102.318c11.186-19.305 27.908-31.124 50.009-33.622 29.315-3.318 52.268 8.054 67.392 33.528 16.858 28.393 33.09 57.153 49.612 85.755q31.226 54.063 62.452 108.159c6.604 11.428 9.848 23.667 9.503 36.884-.829 31.65-25.461 59.656-56.668 64.242a83 83 0 0 1-11.81.881q-55.88.097-111.757.037m0-41.913h111.524c4.824 0 9.396-.839 13.641-3.216 11.218-6.268 17.566-21.802 9.228-36.124-25.008-42.943-49.752-86.049-74.597-129.099a599758 599758 0 0 1-37.327-64.661c-5.262-9.102-13.236-13.609-23.676-13.185-9.694.392-16.713 5.323-21.541 13.702a88657 88657 0 0 1-74.02 128.363 99158 99158 0 0 1-37.448 64.861c-3.052 5.267-4.721 10.818-3.784 16.904 2.102 13.637 12.43 22.441 26.267 22.451q55.861.023 111.738.004z"/></svg>