<svg xmlns="http://www.w3.org/2000/svg" fill="none" viewBox="0 0 256 256"><path fill="#6DD249" d="M128 256c70.692 0 128-57.308 128-128S198.692 0 128 0 0 57.308 0 128s57.308 128 128 128"/><path fill="#fff" d="M127.982 201.888H71.994c-17.272 0-31.459-12.29-33.789-29.361-1.063-7.73.576-14.954 4.477-21.693a24028 24028 0 0 0 26.397-45.718q14.765-25.582 29.537-51.16c5.592-9.652 13.954-15.561 25.004-16.81 14.657-1.66 26.134 4.026 33.696 16.764 8.429 14.196 16.545 28.576 24.806 42.877q15.613 27.032 31.226 54.08c3.302 5.713 4.924 11.833 4.752 18.442-.415 15.825-12.731 29.827-28.334 32.12a41.4 41.4 0 0 1-5.906.441q-27.94.049-55.878.018m0-20.956h55.762c2.412 0 4.698-.419 6.821-1.608 5.609-3.134 8.783-10.901 4.614-18.062-12.505-21.471-24.876-43.024-37.299-64.55l-18.663-32.33c-2.631-4.551-6.618-6.804-11.838-6.592-4.847.195-8.357 2.66-10.771 6.85a44773 44773 0 0 1-37.01 64.182 50040 50040 0 0 1-18.724 32.431c-1.526 2.633-2.36 5.408-1.892 8.452 1.051 6.818 6.215 11.22 13.133 11.225q27.932.012 55.869.002z"/></svg>