<svg xmlns="http://www.w3.org/2000/svg" fill="none" viewBox="0 0 280 256"><path fill="#000" d="M139.972 255.982H52.988c-26.834 0-48.875-19.064-52.496-45.545-1.65-11.99.895-23.196 6.955-33.65A36890 36890 0 0 0 48.46 105.87Q71.4 66.189 94.348 26.513c8.689-14.972 21.679-24.139 38.847-26.076 22.772-2.574 40.603 6.246 52.351 26.004 13.095 22.02 25.705 44.327 38.539 66.51q24.257 41.93 48.514 83.887c5.13 8.863 7.65 18.356 7.382 28.607-.645 24.547-19.779 46.268-44.021 49.825a64.5 64.5 0 0 1-9.174.683q-43.408.076-86.814.029m0-32.507h86.633c3.747 0 7.299-.651 10.597-2.494 8.714-4.862 13.645-16.91 7.168-28.018-19.427-33.306-38.647-66.738-57.948-100.127l-28.996-50.15c-4.087-7.06-10.282-10.556-18.391-10.227-7.531.304-12.983 4.128-16.734 10.628a69176 69176 0 0 1-57.5 99.556 80524 80524 0 0 1-29.09 50.306c-2.37 4.084-3.667 8.39-2.939 13.11 1.633 10.577 9.656 17.405 20.405 17.412q43.394.02 86.799.004z"/></svg>
