<svg xmlns="http://www.w3.org/2000/svg" fill="none" viewBox="0 0 280 256"><path fill="#000" d="M139.752 255.982H52.905c-26.792 0-48.799-19.064-52.413-45.545-1.649-11.99.893-23.196 6.944-33.65q20.506-35.424 40.947-70.917 22.903-39.681 45.816-79.357c8.676-14.972 21.645-24.139 38.786-26.076 22.737-2.574 40.539 6.246 52.269 26.004 13.074 22.02 25.664 44.327 38.478 66.51q24.219 41.93 48.438 83.887c5.122 8.863 7.637 18.356 7.37 28.607-.644 24.547-19.747 46.268-43.951 49.825a64 64 0 0 1-9.16.683q-43.34.076-86.677.029m0-32.507h86.496c3.742 0 7.288-.651 10.581-2.494 8.7-4.862 13.623-16.91 7.157-28.018-19.397-33.306-38.587-66.738-57.857-100.127q-14.478-25.076-28.951-50.15c-4.081-7.06-10.265-10.556-18.362-10.227-7.519.304-12.963 4.128-16.707 10.628a70279 70279 0 0 1-57.41 99.556 80461 80461 0 0 1-29.043 50.306c-2.368 4.084-3.662 8.39-2.936 13.11 1.63 10.577 9.64 17.405 20.373 17.412q43.325.02 86.663.004z"/></svg>