<svg xmlns="http://www.w3.org/2000/svg" fill="none" viewBox="0 0 289 256"><path fill="#000" d="M72.531 256H23.937c-10.21 0-15.255 0-18.33-1.963-3.322-2.15-5.351-5.71-5.598-9.64-.184-3.621 2.338-8.042 7.382-16.883L127.375 16.438c5.105-8.964 7.689-13.445 10.949-15.103a12.4 12.4 0 0 1 11.195 0c3.26 1.658 5.844 6.14 10.949 15.103L185.26 59.63c5.514 9.616 8.31 14.492 9.531 19.61a36.4 36.4 0 0 1 0 17.067c-1.23 5.156-3.998 10.068-9.596 19.829L122.171 227.33l-.163.285-.004.006c-5.548 9.691-8.361 14.603-12.258 18.31a36.7 36.7 0 0 1-14.948 8.658C89.693 256 83.972 256 72.531 256m122.715 0h69.63c10.272 0 15.44 0 18.517-2.023a12.28 12.28 0 0 0 5.598-9.7c.177-3.504-2.29-7.753-7.124-16.079l-.001-.001-.436-.749-.067-.117-34.878-59.549-.397-.671-.007-.012c-4.897-8.263-7.37-12.437-10.545-14.051a12.27 12.27 0 0 0-11.133 0c-3.199 1.657-5.782 6.016-10.888 14.795l-34.754 59.55-.119.205-.001.002c-5.087 8.764-7.629 13.143-7.445 16.737.246 3.93 2.275 7.55 5.597 9.7C179.807 256 184.974 256 195.246 256"/></svg>