<svg xmlns="http://www.w3.org/2000/svg" fill="none" viewBox="0 0 289 256"><path fill="#000" d="M72.525 256h-48.59c-10.21 0-15.253 0-18.328-1.963-3.322-2.15-5.352-5.71-5.598-9.64-.184-3.621 2.338-8.042 7.381-16.883L127.364 16.438c5.106-8.964 7.689-13.445 10.948-15.103a12.4 12.4 0 0 1 11.195 0c3.259 1.658 5.843 6.14 10.948 15.103l24.79 43.193c5.513 9.616 8.309 14.492 9.53 19.61a36.4 36.4 0 0 1 0 17.067c-1.23 5.156-3.998 10.068-9.595 19.829L122.161 227.33l-.163.285-.004.006c-5.548 9.691-8.36 14.603-12.257 18.31a36.7 36.7 0 0 1-14.947 8.658C89.685 256 83.965 256 72.525 256m122.705 0h69.624c10.271 0 15.439 0 18.516-2.023 3.32-2.15 5.411-5.774 5.597-9.7.177-3.504-2.29-7.753-7.123-16.079l-.001-.001-.436-.749-.067-.117-34.875-59.549-.397-.671-.007-.012c-4.896-8.263-7.369-12.437-10.545-14.051a12.26 12.26 0 0 0-11.132 0c-3.198 1.657-5.781 6.016-10.886 14.795l-34.751 59.55-.119.205-.002.002c-5.086 8.764-7.628 13.143-7.444 16.737.246 3.93 2.275 7.55 5.596 9.7C179.792 256 184.959 256 195.23 256"/></svg>