<svg xmlns="http://www.w3.org/2000/svg" fill="none" viewBox="0 0 256 256"><path fill="#FFB852" d="M256 128c0 70.692-57.307 128-128 128C57.308 256 0 198.692 0 128S57.308 0 128 0s128 57.307 128 128"/><path fill="#FFE3BD" d="M82.473 165.05c.016.851.03 1.35-1.147 1.363l-15.244.152.17 13.826 26.57-.288.25 20.092 13.21-.157-.25-20.091 8.212-.087.242 20.064 12.566-.135-.221-20.099 9.45-.087c6.293-.085 28.762-5.678 28.463-26.525a25.004 25.004 0 0 0-18.55-24.945s12.7-7.845 11.319-20.999c-1.382-13.154-11.733-16.728-17.689-18.62a62.8 62.8 0 0 0-14.178-2.186l-.253-21.006-12.073.214.279 20.88-9.707.124-.19-20.992-12.211.25.245 20.978-25.597.304.113 12.365 14.034-.165c1.412-.017 1.42.69 1.426 1.16zM104 98.996l14.92-.162c2.562-.023 15.034 1.962 15.092 12.542a12.135 12.135 0 0 1-9.9 12.334 17 17 0 0 1-3.491.531l-16.451.18zm.639 38.582 23.318-.209a12.415 12.415 0 0 1 11.602 8.221c.571 1.588.811 3.277.708 4.962.109 8.412-7.195 12.185-11.034 13.191a6.8 6.8 0 0 1-1.728.276l-22.501.29z"/><path fill="#000" fill-rule="evenodd" d="m77.093 161.122-16.41.164.302 24.496 26.571-.287.249 20.096 23.876-.283-.001-.02 20.764-.224-.222-20.089 4.108-.039h.024c4.075-.055 12.235-1.733 19.476-6.299 7.463-4.706 14.386-12.825 14.248-25.514a30.35 30.35 0 0 0-14.159-26.5q.276-.313.551-.643c3.532-4.242 7.242-10.882 6.347-19.403-.851-8.107-4.577-13.559-9.123-17.158-4.343-3.437-9.268-5.038-12.255-5.987l-.102-.032-.103-.029a68 68 0 0 0-10.313-1.987l-.259-21.488-21.674.383-.002-.173-22.89.468.244 20.932-25.582.304.21 23.032 15.46-.183zm14.642-74.346-25.596.304.113 12.365 14.034-.165c1.412-.017 1.42.69 1.426 1.16l.761 64.61v.006c.017.848.026 1.343-1.147 1.357l-15.244.152.17 13.826 26.57-.288.25 20.092 13.21-.157-.25-20.091 8.212-.087.242 20.064 12.566-.135-.221-20.099 9.45-.087c6.293-.085 28.762-5.678 28.463-26.525a25.004 25.004 0 0 0-18.55-24.945s2.274-1.404 4.792-4.021c3.434-3.567 7.325-9.389 6.527-16.978-1.382-13.154-11.733-16.728-17.689-18.62a62.8 62.8 0 0 0-14.178-2.186l-.253-21.006-12.073.214.279 20.88-9.707.124-.19-20.992-12.211.25zm42.276 24.6c-.058-10.58-12.53-12.565-15.092-12.543l-14.92.163.17 25.425 16.451-.18a17 17 0 0 0 3.491-.531 12.135 12.135 0 0 0 9.9-12.334m-13.557 7.533a12 12 0 0 0 2.315-.361l.18-.047.183-.034a6.8 6.8 0 0 0 5.549-6.912l-.003-.075v-.075c-.015-2.679-1.404-4.316-3.76-5.558-1.214-.639-2.553-1.077-3.752-1.35a15 15 0 0 0-1.522-.271 9 9 0 0 0-.678-.059l-9.598.105.099 14.757zm19.812 31.643a12.43 12.43 0 0 0-7.408-12.138 12.4 12.4 0 0 0-4.902-1.045l-23.318.209.366 26.729 22.5-.288a6.8 6.8 0 0 0 1.728-.276c3.839-1.006 11.143-4.779 11.034-13.191m-12.892 8.135q.178-.008.349-.059l.079-.023.079-.02c1.28-.336 3.218-1.18 4.726-2.575 1.383-1.279 2.357-2.945 2.325-5.389l-.002-.199.012-.198a7.08 7.08 0 0 0-1.893-5.272 7.1 7.1 0 0 0-5.093-2.249l-17.912.161.219 16.044z" clip-rule="evenodd"/><path fill="#000" d="M119.981 22.856a105.45 105.45 0 0 1 59.755 13.258l-3.118 5.225a99.37 99.37 0 0 0-144.484 60.517 99.367 99.367 0 0 0 188.737 61.482l5.743 2.01a105.446 105.446 0 0 1-158.902 49.168 105.45 105.45 0 0 1 52.269-191.66"/><path fill="#FFDFB6" d="M228.897 131.883h-41.382v-11.311l13.633-13.827q7.251-7.445 10.055-11.409 2.901-3.963 2.901-8.411 0-4.545-2.417-6.382-2.32-1.836-6.671-1.836-6.479 0-14.117 1.16l-2.32.29-.677-10.346q9.475-2.9 19.627-2.9 20.305 0 20.304 18.274 0 7.155-3.094 12.375-3.094 5.221-11.215 12.666l-11.119 10.056h26.492z"/><path fill="#000" fill-rule="evenodd" d="M234.23 137.217h-52.048v-18.832l15.145-15.36.012-.012c4.8-4.93 7.899-8.478 9.51-10.756l.024-.035.026-.035c1.338-1.83 1.871-3.547 1.871-5.262 0-1.07-.146-1.681-.258-1.978a1 1 0 0 0-.084-.18l-.01-.009-.042-.033c-.252-.199-1.117-.685-3.361-.685-4.006 0-8.439.36-13.316 1.1l-.068.01-8.005 1-1.322-20.203 4.037-1.235c6.835-2.093 13.904-3.135 21.188-3.135 7.459 0 14.05 1.667 18.796 5.938 4.853 4.367 6.841 10.602 6.841 17.67 0 5.554-1.207 10.654-3.839 15.095-2.463 4.157-6.659 8.799-12.2 13.878l-.026.024-.847.766h17.976zm-31.825-16.935 11.119-10.056q8.121-7.445 11.215-12.666 3.094-5.22 3.094-12.375 0-18.274-20.304-18.274-10.152 0-19.627 2.9l.677 10.345 2.32-.29q1.512-.229 2.978-.413 5.942-.746 11.139-.746 4.35 0 6.671 1.837 2.417 1.836 2.417 6.38 0 4.449-2.901 8.412-2.804 3.965-10.055 11.409l-13.633 13.827v11.311h41.382v-11.601z" clip-rule="evenodd"/></svg>