<svg xmlns="http://www.w3.org/2000/svg" fill="none" viewBox="0 0 478 256"><path fill="#000" d="M236.834 98.084q5.576 13.828 16.921 28.227 6.728 8.541 10.139 19.56 3.051 9.863 2.622 21.493-1.083 29.02-19.529 52.851-4.966 6.426-10.958 10.197-14.41 9.084-31.443 10.406-19.376 1.502-37.768 1.572a5.66 5.66 0 0 0-3.384 1.127 73.5 73.5 0 0 1-21.748 11.073q-9.639 3.033-19.071-.459a62.6 62.6 0 0 1-14.633-7.707 40 40 0 0 0-4.633-2.852q-2.219-1.182-5.131-1.196-19.377-.153-35.785-1.377-14.41-1.072-27.657-8.083-9.237-4.897-15.84-13.467-5.2-6.76-10.36-17.612Q1.904 187.8.365 172.484q-2.15-21.466 8.364-39.593.013-.042 9.598-13.48a107.6 107.6 0 0 0 11.65-20.868 2.47 2.47 0 0 0-.264-2.393q-13.34-18.793-17.904-40.872-1.984-9.57 1.484-22.328Q20.782 5.39 48.563.675 61.823-1.58 75.11 3.694q14.744 5.842 27.255 16.276 1.955 1.642 4.396.946 25.868-7.331 54.066.167a2.75 2.75 0 0 0 2.371-.459q8.266-6.204 17.782-11.964 22.302-13.522 45.881-5.578 7.102 2.379 12.109 6.538a39.9 39.9 0 0 1 9.099 10.684q4.936 8.459 6.81 18.934 1.803 10.1-.791 20.534-3.69 14.732-9.348 23.941a483 483 0 0 0-7.809 13.147 1.4 1.4 0 0 0-.19.605c-.017.212.015.424.093.62m110.558 81.408q13.626 3.525 20.272 14.512 3.84 6.35 5.637 17.511 1.432 8.895 1.402 18.536c-.004.343-.141.67-.381.911a1.28 1.28 0 0 1-.904.376h-23.792a.9.9 0 0 1-.662-.29.93.93 0 0 1-.243-.69q.789-11.542-2.337-21.198-.526-1.638-1.504-.234-1.84 2.634-4.002 4.477-2.322 1.974-5.272 2.516-8.18 1.521-13.116-5.94-1.08-1.623-1.723.22a25.3 25.3 0 0 0-1.446 8.704q.058 5.501-.555 11.689a.84.84 0 0 1-.269.534.8.8 0 0 1-.549.212h-24.405a.96.96 0 0 1-.672-.272.97.97 0 0 1-.292-.664q-.336-13.18 2.235-24.797 4.278-19.355 24.463-25.835c.297-.099.556-.287.739-.539a1.47 1.47 0 0 0 .283-.866v-7.461a.95.95 0 0 0-.73-.922q-12.808-2.969-19.717-13.62-5.462-8.425-6.879-21.549-1.913-17.613 2.6-34.745 4.834-18.36 23.967-23.992c.216-.064.405-.193.539-.37a1 1 0 0 0 .206-.61l-.044-7.9a.94.94 0 0 0-.209-.565 1.03 1.03 0 0 0-.521-.342q-20.448-5.838-24.873-26.948a98.3 98.3 0 0 1-2.03-24.416.78.78 0 0 1 .774-.746l24.61-.088a.82.82 0 0 1 .818.76q.569 6.73.482 13.138a18 18 0 0 0 1.781 8.134.45.45 0 0 0 .365.26.53.53 0 0 0 .439-.173q11.64-12.859 23.309.82 1.009 1.185 1.417-.307 2.746-10.007 2.118-21.579a1 1 0 0 1 .269-.742 1 1 0 0 1 .724-.311h23.879a1.08 1.08 0 0 1 1.081 1.068q.234 12.361-2.234 23.539-2.484 11.322-7.727 17.438-6.571 7.68-17.307 10.182a1 1 0 0 0-.545.33.9.9 0 0 0-.214.577l-.044 7.549c0 .24.081.474.231.667s.362.334.602.4q12.093 3.19 18.723 12.202 5.01 6.832 7.215 19.852 3.447 20.422-1.957 39.69-5.01 17.847-23.66 22.588a1.35 1.35 0 0 0-.629.344.84.84 0 0 0-.262.548l-.292 7.534a.76.76 0 0 0 .216.544c.149.162.362.285.602.349m-2.527-74.113q-2.161 3.788-5.886 5.72-3.753 1.945-7.682 1.404-4.893-.688-8.091-5.164-2.25-3.16-2.892.673-2.6 15.405.263 31.717.219 1.316 1.168.38 12.576-12.582 23.31.644 1.066 1.301 1.49-.322 4.6-17.511-.059-34.848-.555-2.077-1.621-.204m105.872 22.163q18.052 4.345 23.368 21.418 4.966 15.888 3.389 33.136-1.46 16.195-5.944 24.211-6.397 11.456-21.441 15.903a.774.774 0 0 0-.555.746v7.402a.96.96 0 0 1-.274.678.9.9 0 0 1-.304.205.9.9 0 0 1-.356.068l-23.982-.219a.65.65 0 0 1-.48-.223.82.82 0 0 1-.206-.538l-.146-7.49a.9.9 0 0 0-.223-.571 1.06 1.06 0 0 0-.552-.336q-10.808-2.751-17.438-10.548-5.316-6.261-7.843-17.775-4.542-20.862 1.022-42.074 4.88-18.594 23.836-23.817a1.97 1.97 0 0 0 1.051-.726c.255-.349.379-.769.351-1.191l-.409-6.729a1 1 0 0 0-.238-.586 1.1 1.1 0 0 0-.551-.35q-12.384-3.366-18.899-12.479-4.95-6.95-7.039-20.189-3.009-19.004 2.132-38.037 4.863-18.038 23.836-23.392c.323-.091.607-.272.806-.514a1.2 1.2 0 0 0 .289-.817l-.307-7.871a.78.78 0 0 1 .178-.527.6.6 0 0 1 .212-.163.6.6 0 0 1 .253-.056h24.098a.95.95 0 0 1 .615.214.75.75 0 0 1 .276.532l.511 7.593c.017.28.095.544.223.751.129.208.301.35.493.404q12.37 3.717 18.957 12.655 5.04 6.846 7.244 20.335 3.257 20.085-1.942 38.344-5.112 17.92-23.631 23.217a1.3 1.3 0 0 0-.574.345 1.33 1.33 0 0 0-.331.591q-1.14 4.257-.38 7.593c.043.208.151.402.312.558.16.155.366.266.593.319m-2.001-74.142q-11.933 13.488-23.265.746-1.198-1.345-1.622.41-3.929 16.414.205 33.677.336 1.36 1.081.19 5.856-9.158 17.394-5.486 1.695.54 6.441 5.852.497.555.657-.161 3.74-16.854.365-34.877-.263-1.463-1.256-.35m-1.592 136.786q.745 1.009 1.14 1.682 1.3 2.282 1.811-.307 1.402-7.3 1.431-14.41.043-8.47-.029-10.124a35 35 0 0 0-1.972-10.036q-.248-.702-.73-.131-12.794 15.317-24.084-.147-.453-.629-.628.132-4.177 17.483-.058 35.082.262 1.185.993.219 9.099-12.186 20.724-3.409.789.6 1.402 1.449"/></svg>