<svg xmlns="http://www.w3.org/2000/svg" fill="none" viewBox="0 0 256 256"><path fill="#fff" d="M128 256c70.692 0 128-57.308 128-128S198.692 0 128 0 0 57.308 0 128s57.308 128 128 128"/><path fill="#875426" d="M127.836 114.957q2.43 6.028 7.377 12.307 2.934 3.723 4.421 8.528 1.33 4.3 1.143 9.371-.472 12.652-8.515 23.043-2.164 2.802-4.777 4.446-6.284 3.96-13.709 4.537-8.448.654-16.467.685a2.47 2.47 0 0 0-1.476.491 32 32 0 0 1-9.482 4.828q-4.203 1.323-8.315-.2a27.3 27.3 0 0 1-6.38-3.36 17 17 0 0 0-2.02-1.243q-.967-.516-2.237-.522-8.448-.067-15.602-.601-6.283-.467-12.058-3.524-4.028-2.135-6.906-5.871-2.268-2.948-4.518-7.679a38.6 38.6 0 0 1-3.58-12.798q-.938-9.36 3.647-17.262.006-.02 4.184-5.878a47 47 0 0 0 5.08-9.098 1.07 1.07 0 0 0-.115-1.043q-5.817-8.195-7.807-17.82-.864-4.174.647-9.736 3.265-12.015 15.378-14.072 5.782-.982 11.575 1.316 6.429 2.548 11.883 7.097.853.716 1.917.412 11.278-3.195 23.572.073a1.21 1.21 0 0 0 1.035-.2 94 94 0 0 1 7.752-5.216q9.724-5.895 20.005-2.432 3.096 1.037 5.279 2.85a17.4 17.4 0 0 1 3.967 4.659q2.153 3.687 2.969 8.255.786 4.403-.345 8.952-1.609 6.424-4.075 10.439a209 209 0 0 0-3.405 5.732.62.62 0 0 0-.042.534m48.203 35.494q5.942 1.537 8.838 6.327 1.675 2.769 2.458 7.635.624 3.878.612 8.082a.57.57 0 0 1-.167.397.56.56 0 0 1-.394.164h-10.373a.4.4 0 0 1-.288-.126.4.4 0 0 1-.107-.301q.345-5.032-1.019-9.243-.228-.714-.655-.102a10.3 10.3 0 0 1-1.745 1.952 4.84 4.84 0 0 1-2.299 1.097q-3.566.663-5.718-2.59-.471-.708-.752.096a11 11 0 0 0-.63 3.795 47 47 0 0 1-.242 5.097.37.37 0 0 1-.117.232.36.36 0 0 1-.24.093h-10.64a.42.42 0 0 1-.421-.408q-.145-5.747.975-10.812 1.866-8.438 10.666-11.264a.65.65 0 0 0 .446-.612v-3.253a.42.42 0 0 0-.09-.258.4.4 0 0 0-.229-.144q-5.584-1.295-8.596-5.939-2.382-3.674-3-9.395a41.4 41.4 0 0 1 1.134-15.149q2.107-8.004 10.449-10.46a.46.46 0 0 0 .236-.162.44.44 0 0 0 .089-.266l-.019-3.444a.4.4 0 0 0-.091-.246.45.45 0 0 0-.227-.15q-8.915-2.544-10.845-11.749a43 43 0 0 1-.885-10.645.337.337 0 0 1 .338-.326l10.729-.038a.356.356 0 0 1 .357.332q.249 2.934.21 5.727a7.84 7.84 0 0 0 .777 3.547.2.2 0 0 0 .159.114.22.22 0 0 0 .191-.076q5.075-5.605 10.163.357.44.517.618-.133 1.197-4.364.923-9.409a.43.43 0 0 1 .118-.323.42.42 0 0 1 .315-.136h10.412a.47.47 0 0 1 .471.466q.102 5.39-.974 10.263-1.083 4.936-3.369 7.603-2.865 3.348-7.546 4.439a.45.45 0 0 0-.238.144.4.4 0 0 0-.093.252l-.019 3.291c0 .104.035.207.101.291a.5.5 0 0 0 .262.174q5.272 1.391 8.163 5.32 2.185 2.979 3.146 8.656 1.503 8.904-.853 17.304-2.184 7.782-10.316 9.849a.6.6 0 0 0-.274.15.37.37 0 0 0-.114.239l-.128 3.285a.33.33 0 0 0 .095.237.54.54 0 0 0 .262.152m-1.102-32.313q-.942 1.651-2.566 2.494-1.637.847-3.349.612-2.135-.3-3.528-2.252-.98-1.377-1.261.294-1.134 6.716.115 13.828.095.574.509.166 5.483-5.485 10.163.281.465.567.65-.141 2.005-7.635-.026-15.193-.242-.906-.707-.089m46.16 9.663q7.872 1.895 10.189 9.338 2.165 6.927 1.477 14.447-.636 7.06-2.591 10.556-2.79 4.995-9.348 6.934a.334.334 0 0 0-.242.325v3.228a.41.41 0 0 1-.252.385.4.4 0 0 1-.156.029l-10.456-.095a.3.3 0 0 1-.209-.097.37.37 0 0 1-.09-.235l-.064-3.266a.4.4 0 0 0-.097-.249.46.46 0 0 0-.24-.146q-4.713-1.2-7.603-4.599-2.319-2.73-3.42-7.75-1.98-9.096.446-18.344 2.127-8.108 10.392-10.385a.85.85 0 0 0 .458-.316.78.78 0 0 0 .153-.519l-.178-2.934a.44.44 0 0 0-.104-.256.5.5 0 0 0-.24-.152q-5.4-1.467-8.24-5.441-2.158-3.03-3.069-8.803-1.312-8.285.93-16.583 2.12-7.865 10.392-10.2a.7.7 0 0 0 .352-.224.53.53 0 0 0 .126-.356l-.134-3.432a.33.33 0 0 1 .077-.23.3.3 0 0 1 .093-.07.3.3 0 0 1 .11-.025h10.507c.1 0 .196.033.268.093s.115.144.12.232l.223 3.31a.7.7 0 0 0 .097.328.4.4 0 0 0 .215.177q5.394 1.62 8.266 5.517 2.196 2.985 3.158 8.866 1.42 8.757-.847 16.718-2.229 7.813-10.303 10.123a.56.56 0 0 0-.395.408q-.496 1.856-.165 3.31a.5.5 0 0 0 .136.244c.07.067.159.116.258.139m-.872-32.326q-5.203 5.88-10.144.325-.522-.586-.707.179-1.713 7.156.09 14.683.145.593.471.083 2.553-3.993 7.584-2.392.738.236 2.808 2.551.216.243.287-.07 1.629-7.347.159-15.206-.115-.637-.548-.153m-.694 59.638q.325.44.497.734.567.995.789-.134.612-3.183.624-6.283.02-3.693-.012-4.414a15.3 15.3 0 0 0-.86-4.375q-.108-.306-.318-.058-5.578 6.678-10.501-.063-.198-.274-.274.057-1.82 7.622-.025 15.295.114.518.433.096 3.968-5.313 9.036-1.486.344.261.611.631"/></svg>
