<svg xmlns="http://www.w3.org/2000/svg" fill="none" viewBox="0 0 478 256"><path fill="#000" d="M236.861 98.084q5.577 13.828 16.924 28.227 6.727 8.541 10.14 19.56 3.051 9.863 2.621 21.493-1.081 29.02-19.531 52.851-4.965 6.426-10.958 10.197-14.413 9.084-31.447 10.406-19.379 1.502-37.772 1.572a5.66 5.66 0 0 0-3.385 1.127 73.5 73.5 0 0 1-21.751 11.073q-9.64 3.033-19.073-.459a62.6 62.6 0 0 1-14.635-7.707 40 40 0 0 0-4.633-2.852q-2.219-1.182-5.132-1.196-19.38-.153-35.789-1.377-14.412-1.072-27.66-8.083-9.239-4.897-15.841-13.467-5.202-6.76-10.362-17.612Q1.905 187.8.365 172.484q-2.15-21.466 8.365-39.593.013-.042 9.599-13.48A107.6 107.6 0 0 0 29.98 98.543a2.45 2.45 0 0 0-.264-2.393Q16.373 77.357 11.81 55.278q-1.983-9.57 1.484-22.328Q20.784 5.39 48.57.675q13.26-2.254 26.55 3.019 14.745 5.842 27.257 16.276 1.956 1.642 4.398.946 25.87-7.331 54.071.167a2.76 2.76 0 0 0 2.372-.459Q171.485 14.42 181 8.66q22.307-13.522 45.888-5.578 7.101 2.379 12.109 6.538a39.9 39.9 0 0 1 9.1 10.684q4.939 8.459 6.811 18.934 1.804 10.1-.791 20.534-3.689 14.732-9.349 23.941a481 481 0 0 0-7.81 13.147 1.4 1.4 0 0 0-.19.605c-.016.212.015.424.093.62m110.571 81.408q13.627 3.525 20.274 14.512 3.842 6.35 5.638 17.511 1.432 8.895 1.403 18.536c-.004.343-.142.67-.382.911a1.28 1.28 0 0 1-.904.376h-23.794a.88.88 0 0 1-.662-.29.94.94 0 0 1-.244-.69q.789-11.542-2.337-21.198-.526-1.638-1.505-.234-1.84 2.634-4.002 4.477-2.322 1.974-5.273 2.516-8.18 1.521-13.117-5.94-1.08-1.623-1.723.22a25.2 25.2 0 0 0-1.446 8.704q.059 5.501-.555 11.689a.85.85 0 0 1-.269.534.8.8 0 0 1-.549.212h-24.408a.964.964 0 0 1-.964-.936q-.336-13.18 2.235-24.797 4.28-19.355 24.466-25.835c.297-.099.556-.287.739-.539a1.47 1.47 0 0 0 .283-.866v-7.461a.95.95 0 0 0-.73-.922q-12.81-2.969-19.719-13.62-5.463-8.425-6.88-21.549-1.914-17.613 2.6-34.745 4.834-18.36 23.97-23.992c.216-.064.405-.193.539-.37a1 1 0 0 0 .206-.61l-.044-7.9a.94.94 0 0 0-.209-.565 1.03 1.03 0 0 0-.521-.342q-20.45-5.838-24.876-26.948a98.3 98.3 0 0 1-2.03-24.416.77.77 0 0 1 .774-.746l24.612-.088a.817.817 0 0 1 .818.76q.57 6.73.482 13.138a18 18 0 0 0 1.782 8.134.45.45 0 0 0 .365.26.5.5 0 0 0 .439-.172q11.642-12.86 23.312.819 1.008 1.185 1.417-.307 2.747-10.007 2.118-21.579a1 1 0 0 1 .269-.742 1 1 0 0 1 .724-.311h23.882a1.084 1.084 0 0 1 1.081 1.068q.234 12.361-2.235 23.539-2.483 11.322-7.727 17.438-6.572 7.68-17.309 10.182a1 1 0 0 0-.545.33.9.9 0 0 0-.214.577l-.044 7.549c0 .24.081.474.231.667s.362.334.602.4q12.095 3.19 18.726 12.202 5.01 6.832 7.215 19.852 3.447 20.422-1.957 39.69-5.01 17.847-23.663 22.588a1.35 1.35 0 0 0-.629.344.84.84 0 0 0-.262.548l-.292 7.534a.76.76 0 0 0 .216.544c.149.162.362.285.602.349m-2.527-74.113q-2.161 3.788-5.887 5.72-3.753 1.945-7.683 1.404-4.893-.688-8.092-5.164-2.25-3.16-2.892.673-2.6 15.405.263 31.717.219 1.316 1.168.38 12.577-12.582 23.313.644 1.066 1.301 1.49-.322 4.601-17.511-.059-34.848-.555-2.077-1.621-.204m105.884 22.163q18.054 4.345 23.371 21.418 4.967 15.888 3.389 33.136-1.461 16.195-5.945 24.211-6.398 11.456-21.443 15.903a.774.774 0 0 0-.555.746v7.402a1 1 0 0 1-.071.368.93.93 0 0 1-.507.515.9.9 0 0 1-.357.068l-23.984-.219a.65.65 0 0 1-.48-.223.83.83 0 0 1-.207-.538l-.146-7.49a.9.9 0 0 0-.222-.571 1.06 1.06 0 0 0-.552-.336q-10.809-2.751-17.44-10.548-5.317-6.261-7.844-17.775-4.543-20.862 1.022-42.074 4.88-18.594 23.839-23.817a1.97 1.97 0 0 0 1.051-.726c.255-.349.379-.769.351-1.191l-.409-6.729a1 1 0 0 0-.238-.586 1.1 1.1 0 0 0-.551-.35q-12.387-3.366-18.901-12.479-4.952-6.95-7.041-20.189-3.009-19.004 2.133-38.037 4.865-18.038 23.838-23.392c.324-.091.608-.272.807-.514a1.2 1.2 0 0 0 .289-.817l-.307-7.871a.74.74 0 0 1 .178-.527.6.6 0 0 1 .212-.163.6.6 0 0 1 .253-.056h24.101a.95.95 0 0 1 .615.214.75.75 0 0 1 .276.532l.511 7.593c.017.28.095.544.223.751.129.208.301.35.493.404q12.372 3.717 18.96 12.655 5.039 6.846 7.244 20.335 3.258 20.085-1.942 38.344-5.112 17.92-23.634 23.217a1.3 1.3 0 0 0-.574.345 1.34 1.34 0 0 0-.332.591q-1.139 4.257-.379 7.593c.043.208.151.402.312.558.16.155.366.266.593.319m-2.001-74.142q-11.934 13.488-23.268.746-1.198-1.345-1.622.41-3.929 16.414.205 33.677.336 1.36 1.081.19 5.856-9.158 17.396-5.486 1.695.54 6.442 5.852.497.555.657-.161 3.74-16.854.365-34.877-.263-1.463-1.256-.35m-1.592 136.786q.745 1.009 1.139 1.682 1.3 2.282 1.812-.307 1.402-7.3 1.431-14.41.043-8.47-.029-10.124a35 35 0 0 0-1.972-10.036q-.249-.702-.73-.131-12.797 15.317-24.087-.147-.453-.629-.628.132-4.178 17.483-.059 35.082.264 1.185.994.219 9.099-12.186 20.727-3.409.789.6 1.402 1.449"/></svg>
