<svg xmlns="http://www.w3.org/2000/svg" fill="none" viewBox="0 0 512 512"><path fill="#fff" d="M256 512c141.385 0 256-114.615 256-256S397.385 0 256 0 0 114.615 0 256s114.615 256 256 256"/><path fill="#875426" d="M255.671 229.913q4.863 12.059 14.756 24.614 5.865 7.449 8.841 17.056 2.661 8.601 2.286 18.743-.944 25.305-17.03 46.085-4.33 5.605-9.554 8.892-12.566 7.922-27.419 9.074-16.896 1.31-32.933 1.371a4.93 4.93 0 0 0-2.951.983 64.1 64.1 0 0 1-18.965 9.656q-8.406 2.644-16.63-.401a54.6 54.6 0 0 1-12.76-6.72 34.5 34.5 0 0 0-4.039-2.487q-1.935-1.03-4.475-1.043-16.896-.134-31.204-1.201-12.567-.934-24.117-7.048-8.055-4.27-13.812-11.743-4.535-5.895-9.035-15.358-5.817-12.24-7.16-25.596-1.875-18.718 7.293-34.525.012-.036 8.37-11.755a93.8 93.8 0 0 0 10.16-18.196 2.14 2.14 0 0 0-.23-2.087q-11.636-16.389-15.615-35.641-1.729-8.346 1.294-19.47 6.532-24.031 30.757-28.144 11.563-1.965 23.149 2.633 12.857 5.095 23.766 14.193 1.706 1.431 3.834.825 22.557-6.393 47.145.146c.354.094.724.107 1.082.038a2.4 2.4 0 0 0 .986-.439q7.209-5.41 15.505-10.432 19.449-11.792 40.009-4.865 6.193 2.075 10.559 5.702a34.8 34.8 0 0 1 7.934 9.316q4.306 7.376 5.938 16.511 1.573 8.806-.689 17.905-3.217 12.846-8.152 20.877-3.495 5.677-6.809 11.464a1.3 1.3 0 0 0-.166.528c-.014.185.013.369.081.539m96.407 70.989q11.882 3.073 17.677 12.654 3.349 5.536 4.916 15.27 1.248 7.757 1.222 16.163a1.15 1.15 0 0 1-.332.795c-.21.21-.493.328-.788.328h-20.747a.79.79 0 0 1-.745-.531.8.8 0 0 1-.044-.324q.687-10.065-2.038-18.484-.459-1.43-1.312-.205-1.605 2.296-3.489 3.904a9.7 9.7 0 0 1-4.598 2.194q-7.132 1.327-11.437-5.179-.942-1.416-1.502.191a22 22 0 0 0-1.261 7.591q.05 4.796-.484 10.192a.73.73 0 0 1-.234.465.7.7 0 0 1-.479.186h-21.282a.84.84 0 0 1-.84-.816q-.293-11.495 1.948-21.623 3.732-16.878 21.333-22.529c.259-.086.484-.25.644-.47s.247-.484.247-.755v-6.506a.83.83 0 0 0-.18-.515.8.8 0 0 0-.457-.288q-11.169-2.59-17.193-11.877-4.763-7.348-5.998-18.791a82.8 82.8 0 0 1 2.267-30.298q4.215-16.01 20.899-20.921a.9.9 0 0 0 .47-.323.87.87 0 0 0 .179-.532l-.038-6.888a.82.82 0 0 0-.182-.493.9.9 0 0 0-.455-.298q-17.83-5.09-21.688-23.499a85.7 85.7 0 0 1-1.771-21.291.67.67 0 0 1 .675-.65l21.46-.077a.716.716 0 0 1 .713.663q.496 5.868.42 11.456-.051 3.75 1.554 7.093a.39.39 0 0 0 .318.227.44.44 0 0 0 .208-.028.5.5 0 0 0 .175-.123q10.15-11.213 20.326.715.878 1.033 1.235-.268 2.394-8.726 1.847-18.816a.87.87 0 0 1 .235-.647.87.87 0 0 1 .631-.272h20.822a.94.94 0 0 1 .943.931q.204 10.78-1.949 20.526-2.165 9.874-6.737 15.206-5.731 6.698-15.092 8.879a.87.87 0 0 0-.475.289.78.78 0 0 0-.187.502l-.038 6.583a.95.95 0 0 0 .202.582c.131.168.315.29.524.349q10.545 2.78 16.327 10.639 4.368 5.958 6.291 17.311 3.006 17.809-1.706 34.61-4.368 15.563-20.632 19.696c-.216.055-.408.16-.549.301a.73.73 0 0 0-.228.478l-.255 6.569a.66.66 0 0 0 .189.474c.13.142.315.25.525.305m-2.204-64.627q-1.884 3.304-5.132 4.988-3.273 1.696-6.699 1.225-4.266-.6-7.056-4.503-1.961-2.756-2.521.586-2.267 13.434.229 27.657.19 1.149 1.019.332 10.966-10.971 20.326.561.93 1.136 1.299-.28 4.012-15.27-.051-30.387-.484-1.811-1.414-.179m92.321 19.327q15.74 3.789 20.377 18.676 4.33 13.854 2.955 28.894-1.273 14.122-5.184 21.113-5.578 9.988-18.696 13.867a.67.67 0 0 0-.484.65v6.455a.83.83 0 0 1-.504.77.8.8 0 0 1-.311.059l-20.912-.191a.56.56 0 0 1-.418-.194.72.72 0 0 1-.18-.469l-.128-6.532a.8.8 0 0 0-.194-.497.93.93 0 0 0-.481-.294q-9.423-2.398-15.206-9.197-4.635-5.46-6.839-15.5-3.96-18.191.892-36.689 4.253-16.214 20.784-20.768c.371-.105.694-.329.917-.633.222-.304.33-.671.306-1.038l-.357-5.868a.88.88 0 0 0-.207-.512.96.96 0 0 0-.481-.305q-10.8-2.934-16.479-10.882-4.318-6.059-6.139-17.604-2.623-16.572 1.859-33.168 4.242-15.73 20.785-20.398c.282-.079.53-.237.703-.448.174-.211.262-.462.252-.713l-.267-6.863a.67.67 0 0 1 .154-.46.6.6 0 0 1 .186-.142.5.5 0 0 1 .22-.049h21.014a.83.83 0 0 1 .536.187.65.65 0 0 1 .241.464l.445 6.62c.015.246.083.475.195.656a.77.77 0 0 0 .429.352q10.788 3.24 16.531 11.035 4.394 5.97 6.317 17.732 2.84 17.515-1.694 33.436-4.457 15.627-20.606 20.245a1.1 1.1 0 0 0-.5.301 1.16 1.16 0 0 0-.289.516q-.994 3.711-.332 6.62a.95.95 0 0 0 .272.487c.14.136.32.232.518.279m-1.745-64.652q-10.404 11.762-20.288.65-1.044-1.173-1.413.358-3.426 14.313.178 29.366.292 1.186.942.166 5.107-7.986 15.169-4.784 1.477.472 5.616 5.103.433.484.573-.141 3.261-14.695.318-30.412-.228-1.276-1.095-.306m-1.388 119.277q.65.88.993 1.467 1.133 1.99 1.58-.268 1.222-6.365 1.248-12.566.038-7.386-.026-8.827a30.5 30.5 0 0 0-1.719-8.752q-.216-.612-.637-.114-11.156 13.356-21.001-.128-.395-.548-.548.115-3.642 15.245-.051 30.591.23 1.034.867.191 7.934-10.626 18.071-2.972.688.523 1.223 1.263"/></svg>