<svg xmlns="http://www.w3.org/2000/svg" fill="none" viewBox="0 0 512 512"><path fill="#000" d="M256 512c141.385 0 256-114.615 256-256S397.385 0 256 0 0 114.615 0 256s114.615 256 256 256"/><path fill="#FF771C" fill-rule="evenodd" d="M113.385 118.779a64.7 64.7 0 0 0-22.476 4.672L87 125.204v60.745l2.736-1.558c5.864-2.92 15.636-4.867 32.249-5.841l6.059-.584v29.789c0 23.363 0 29.788-.782 29.788-10.945 0-27.167 2.726-34.79 5.841L87 245.526v60.55l4.104-1.752c7.232-2.92 14.268-4.478 25.604-5.841l11.14-1.168v-29.788l.391-29.789 2.541-.389c4.3-.779 24.235-.39 31.271.389l6.255.779v29.788c.391 28.037.195 29.594-.977 29.205-1.759-.974-28.927-1.558-34.399-.974l-4.886.584v59.772l3.909-.584c4.69-.779 25.603-.974 31.858-.195l4.886.39v-29.01c0-16.355.195-29.205.586-29.205 1.173-.973 21.108 3.505 34.399 7.204l4.69 1.558v58.409l4.496 1.168 20.131 6.23c11.726 3.699 37.134 9.735 40.457 9.735.196 0 .391 6.619.391 14.602 0 9.345.195 14.602.782 14.602l24.626 3.894 2.345.39v-28.621l2.541.39 18.959 2.336 3.909.389v28.037l10.554.389h13.681l2.932-.389v-27.258l6.254-.779a71.83 71.83 0 0 0 45.91-23.097 71.3 71.3 0 0 0 18.587-47.772c.977-27.063-7.818-40.886-30.88-47.895-.587-.195.391-1.752 3.127-4.283a69.3 69.3 0 0 0 15.24-24.252 69.1 69.1 0 0 0 4.109-28.316c-1.173-27.842-17.59-41.276-55.898-46.143l-6.449-.779v-27.842l-11.923-1.363a228 228 0 0 1-13.681-1.557l-1.368-.389v28.23l-2.736-.194-12.704-2.337-9.773-1.947-.391-28.425-13.485-3.31-13.682-3.31a97 97 0 0 0-.586 13.824c0 12.655 0 13.823-1.173 13.823-.781 0-6.449-1.363-12.704-3.115l-11.727-3.115c-.39 0-.781 12.655-.781 28.231 0 22.195 0 28.231-.782 28.231-.586 0-8.991-2.726-18.763-6.231l-18.567-6.814c-.782-.195-.978-7.009-1.173-29.594v-29.204l-8.209-2.726c-7.427-2.336-28.926-8.177-30.685-8.177-.391 0-.586 10.903-.586 29.204l-.196 29.594-8.404-1.168c-4.886-.584-12.899-.974-19.936-.974h-11.726v-29.399L128.044 118l-2.932.195zm67.429 63.665c4.887 1.363 13.095 3.505 18.177 5.257l9.381 2.921v28.815c0 15.965 0 29.009-.391 29.009l-8.99-2.531c-4.691-1.557-13.486-3.699-19.349-4.867l-10.554-2.336-.391-58.409h1.563zm132.513 26.868 20.327 2.921c23.453 2.92 30.294 7.398 31.076 21.416.977 16.55-9.186 23.753-30.49 21.806-9.577-.778-30.881-3.894-32.053-4.672-.391-.195-.587-9.346-.587-22.001v-21.611l1.564.389 10.163 1.947m-66.452 52.179c.978.778.978 57.046 0 57.046l-19.544-6.036-18.959-6.23v-28.815c0-15.965.196-29.01.391-29.01zm66.452 35.045c5.082.779 14.072 1.947 19.936 2.142 29.317 2.141 34.008 3.699 38.307 12.265 6.255 13.24 0 28.426-13.485 32.515-7.232 2.141-46.908.389-55.703-2.531-1.563-.585-1.172-45.754.391-45.754z" clip-rule="evenodd"/></svg>