<svg xmlns="http://www.w3.org/2000/svg" fill="none" viewBox="0 0 287 256"><path fill="#000" fill-rule="evenodd" d="M22.404.662A54.9 54.9 0 0 0 3.32 4.636L0 6.126V57.79l2.323-1.324c4.98-2.484 13.277-4.14 27.383-4.968l5.145-.497v25.335c0 19.871 0 25.335-.664 25.335-9.294 0-23.068 2.319-29.54 4.968L0 108.461v51.498l3.485-1.491c6.14-2.484 12.115-3.808 21.74-4.967l9.46-.994v-25.335l.332-25.335 2.157-.331c3.651-.663 20.579-.331 26.553.331l5.31.662v25.335c.333 23.845.167 25.17-.829 24.839-1.494-.828-24.561-1.325-29.208-.828l-4.15.497v50.835l3.32-.497c3.983-.662 21.74-.827 27.05-.165l4.15.331v-24.673c0-13.909.166-24.838.498-24.838.995-.828 17.923 2.981 29.208 6.127l3.983 1.325v49.676l3.817.994 17.093 5.298c9.958 3.147 31.532 8.28 34.353 8.28.166 0 .332 5.63.332 12.419 0 7.948.166 12.419.664 12.419l20.91 3.312 1.992.331v-24.341l2.157.331 16.098 1.987 3.319.331v23.845l8.962.331h11.617l2.489-.331v-23.183l5.311-.662a60.95 60.95 0 0 0 38.982-19.644 60.7 60.7 0 0 0 15.783-40.63c.83-23.017-6.638-34.774-26.221-40.735-.498-.166.332-1.49 2.655-3.643a58.9 58.9 0 0 0 12.941-20.625 58.8 58.8 0 0 0 3.489-24.084c-.996-23.68-14.936-35.105-47.463-39.244l-5.477-.663V18.877l-10.123-1.159a193 193 0 0 1-11.617-1.325l-1.162-.33v24.01l-2.323-.166-10.787-1.987-8.298-1.656-.332-24.176-11.451-2.815-11.617-2.815a82.6 82.6 0 0 0-.498 11.757c0 10.763 0 11.756-.996 11.756-.663 0-5.476-1.159-10.787-2.649l-9.957-2.65c-.332 0-.664 10.764-.664 24.011 0 18.877 0 24.01-.664 24.01-.498 0-7.634-2.318-15.932-5.298l-15.765-5.796c-.664-.166-.83-5.961-.996-25.17V11.591l-6.97-2.318C89.616 7.286 71.36 2.318 69.868 2.318c-.332 0-.498 9.273-.498 24.839l-.166 25.169-7.136-.993c-4.15-.497-10.953-.828-16.928-.828h-9.957V25.5L34.85 0l-2.49.166zM79.66 54.81c4.149 1.159 11.119 2.98 15.434 4.47l7.966 2.484v24.508c0 13.578 0 24.672-.332 24.672l-7.634-2.152c-3.983-1.325-11.451-3.146-16.43-4.14l-8.961-1.987-.332-49.677h1.327zm112.517 22.85 17.26 2.484c19.914 2.484 25.723 6.292 26.387 18.215.83 14.075-7.8 20.201-25.889 18.546-8.132-.663-26.221-3.312-27.217-3.975-.332-.165-.498-7.948-.498-18.711V75.84l1.328.33 8.629 1.657m-56.425 44.377c.83.663.83 48.518 0 48.518l-16.595-5.133-16.098-5.299v-24.507c0-13.579.166-24.673.332-24.673zm56.425 29.806c4.315.663 11.949 1.656 16.928 1.822 24.893 1.821 28.876 3.146 32.527 10.432 5.311 11.26 0 24.176-11.451 27.653-6.14 1.822-39.829.331-47.297-2.152-1.328-.497-.996-38.914.332-38.914z" clip-rule="evenodd"/></svg>
