<svg xmlns="http://www.w3.org/2000/svg" fill="none" viewBox="0 0 256 256"><path fill="#000" d="M128 256c70.692 0 128-57.308 128-128S198.692 0 128 0 0 57.308 0 128s57.308 128 128 128"/><path fill="#FF771C" fill-rule="evenodd" d="M56.693 59.39a32.4 32.4 0 0 0-11.238 2.336l-1.955.876v30.372l1.368-.778c2.932-1.46 7.818-2.434 16.124-2.92l3.03-.293v14.894c0 11.682 0 14.895-.391 14.895-5.473 0-13.583 1.363-17.395 2.92l-2.736 1.071v30.275l2.052-.876c3.616-1.46 7.134-2.239 12.802-2.92l5.57-.584v-14.895l.196-14.894 1.27-.195c2.15-.389 12.118-.194 15.636.195l3.127.389v14.895c.195 14.018.098 14.797-.489 14.602-.88-.487-14.463-.779-17.199-.487l-2.443.292v29.886l1.954-.292c2.346-.389 12.802-.487 15.93-.097l2.442.194v-14.505c0-8.177.098-14.602.293-14.602.587-.486 10.555 1.752 17.2 3.602l2.345.779v29.204l2.248.584 10.065 3.116c5.864 1.849 18.568 4.867 20.229 4.867.098 0 .196 3.31.196 7.301 0 4.673.097 7.301.39 7.301l12.314 1.947 1.172.195v-14.31l1.271.194 9.479 1.168 1.954.195v14.018l5.277.195h6.841l1.466-.195v-13.628l3.127-.39a35.9 35.9 0 0 0 22.955-11.548 35.66 35.66 0 0 0 9.294-23.886c.488-13.532-3.909-20.444-15.441-23.948-.293-.097.196-.876 1.564-2.142a34.6 34.6 0 0 0 7.62-12.125 34.5 34.5 0 0 0 2.055-14.159c-.587-13.92-8.796-20.638-27.949-23.071l-3.225-.39v-13.92l-5.961-.682a114 114 0 0 1-6.841-.778l-.684-.195v14.115l-1.368-.097-6.352-1.168-4.886-.974-.196-14.213-6.743-1.654-6.84-1.655a48 48 0 0 0-.293 6.911c0 6.328-.001 6.912-.587 6.912-.391 0-3.225-.681-6.352-1.558l-5.863-1.557c-.196 0-.391 6.328-.391 14.115 0 11.098 0 14.116-.391 14.116-.293 0-4.495-1.363-9.381-3.115l-9.284-3.407c-.391-.098-.489-3.505-.587-14.797V65.814l-4.104-1.362c-3.713-1.169-14.463-4.09-15.343-4.09-.195 0-.293 5.452-.293 14.603l-.097 14.797-4.203-.584c-2.443-.292-6.45-.487-9.967-.487h-5.864v-14.7L64.022 59l-1.466.097zm33.714 31.832c2.443.682 6.548 1.752 9.089 2.629l4.69 1.46v14.407c0 7.983 0 14.505-.195 14.505l-4.495-1.265c-2.346-.779-6.743-1.85-9.675-2.434l-5.277-1.168-.196-29.205h.782zm66.257 13.434 10.163 1.46c11.727 1.461 15.147 3.7 15.538 10.709.488 8.274-4.593 11.876-15.245 10.903-4.788-.39-15.44-1.947-16.027-2.337-.195-.097-.293-4.672-.293-11v-10.806l.782.195 5.082.974m-33.226 26.089c.488.389.488 28.523 0 28.523l-9.773-3.018-9.479-3.115v-14.408c0-7.982.098-14.504.196-14.504zm33.226 17.522c2.54.39 7.036.974 9.967 1.071 14.659 1.071 17.004 1.85 19.154 6.133 3.127 6.62 0 14.213-6.743 16.257-3.616 1.071-23.453.195-27.851-1.265-.782-.292-.586-22.877.196-22.877z" clip-rule="evenodd"/></svg>