<svg xmlns="http://www.w3.org/2000/svg" fill="none" viewBox="0 0 256 256"><path fill="#000" d="M128 256c70.692 0 128-57.308 128-128S198.692 0 128 0 0 57.308 0 128s57.308 128 128 128"/><path fill="#fff" d="M221.944 108.312a95 95 0 0 0-5.584-17.928 97 97 0 0 0-8.816-16.264 95 95 0 0 0-11.656-14.104 95 95 0 0 0-14.112-11.656 100 100 0 0 0-16.256-8.816 95.1 95.1 0 0 0-74.256 0 94.9 94.9 0 0 0-30.368 20.48A95 95 0 0 0 49.24 74.12a100 100 0 0 0-8.816 16.264 95.1 95.1 0 0 0 0 74.256c2.352 5.68 5.392 11.064 8.816 16.256a95 95 0 0 0 11.656 14.112 95 95 0 0 0 14.112 11.656c5.088 3.424 10.576 6.368 16.256 8.816a95.1 95.1 0 0 0 74.256 0c5.68-2.352 11.064-5.392 16.256-8.816a95 95 0 0 0 14.112-11.656 95 95 0 0 0 11.656-14.112c3.424-5.088 6.368-10.576 8.816-16.256a95.1 95.1 0 0 0 5.584-56.328m-93.464 102.76c-46.136 0-83.456-37.424-83.456-83.464s37.424-83.464 83.456-83.464c46.04 0 83.464 37.424 83.464 83.464s-37.416 83.464-83.464 83.464"/><path fill="#fff" d="M132.216 203.824c.392 0 .776 0 1.168-.104h.104c.392 0 .68 0 1.072-.096h.296c.296 0 .592 0 .88-.096h.296c.296 0 .592-.096.984-.096h.192c.392 0 .784-.104 1.176-.104s.688-.096 1.08-.192h.192c.296 0 .592-.096.88-.096h.2c.392-.104.688-.104 1.08-.2.776-.096 1.56-.296 2.248-.488h.2c.288-.096.68-.096.976-.2h.096c.784-.192 1.472-.392 2.256-.584a87.6 87.6 0 0 1-21.84-2.056c-10.784-2.352-21.064-6.56-29.784-13.816a60.35 60.35 0 0 1-21.744-46.92 57.02 57.02 0 0 1 13.416-36.44c11.168-13.224 27.04-20.184 43.296-20.576h2.256V68.736h-2.544a73.4 73.4 0 0 0-14.696 1.76 70.7 70.7 0 0 0-14.104 4.8c-4.608 2.16-8.92 4.8-12.936 7.84a69 69 0 0 0-11.264 10.776 66.7 66.7 0 0 0-8.128 12.048 69 69 0 0 0-5.392 13.024 71 71 0 0 0-2.64 13.624l-.296 4.304v2.544c.096 5 .688 9.896 1.76 14.696 1.08 4.904 2.744 9.6 4.8 14.112 2.456 5.384 6.864 13.32 13.424 19.296a75.76 75.76 0 0 0 47.016 16.264z"/><path fill="#fff" d="M151.312 191.28a100 100 0 0 1-14.4-1.568c-20.176-3.624-37.52-15.968-43.88-34.576-7.744-22.632 4.112-47.12 26.64-54.56a41.7 41.7 0 0 1 13.32-2.16c5.784 0 11.56 1.176 16.856 3.328l5.48-11.656q-2.473-.991-4.992-1.856a57.7 57.7 0 0 0-17.344-2.648 55 55 0 0 0-17.336 2.84A54.5 54.5 0 0 0 96.36 99.592a56 56 0 0 0-7.344 7.936 53.3 53.3 0 0 0-5.584 9.112 55.2 55.2 0 0 0-5.488 20.672c-.488 7.44.488 14.88 2.936 21.936a54.2 54.2 0 0 0 11.76 19.496c4.8 5.192 10.384 9.112 17.136 12.736 7.056 3.72 15.776 5.68 24.88 6.96 5.88.776 13.72.976 18.32.976 4.016-1.472 5.68-2.16 7.84-3.04 1.864-.88 3.72-1.76 5.584-2.84s2.16-1.28 5.288-3.328q.419-.26.784-.592c-10.776 1.864-13.52 1.76-21.16 1.664"/><path fill="#fff" d="M175.416 176.688c-3.04.192-7.352.48-12.248.48-8.72 0-19.4-.776-28.504-3.816-14.112-4.696-27.432-16.744-27.432-31.64a26.81 26.81 0 0 1 16.565-24.803 26.8 26.8 0 0 1 10.275-2.037c10.088 0 18.808 5.584 23.416 13.712l11.656-5.776a37.9 37.9 0 0 0-6.96-9.304 39.7 39.7 0 0 0-12.897-8.63 39.74 39.74 0 0 0-30.438 0 39.7 39.7 0 0 0-12.897 8.63 39.73 39.73 0 0 0-11.656 28.112 39.2 39.2 0 0 0 3.44 15.872c2.048 4.504 4.896 8.72 8.52 12.64 6.368 6.848 15.08 12.336 24.392 15.472 8.912 2.936 22.04 4.016 34.776 3.136 3.52-.296 6.168-.592 10.672-1.568a73.5 73.5 0 0 0 11.76-11.656c-3.04.296-8.624.88-12.44 1.176"/></svg>
