<svg width="256" height="256" viewBox="0 0 256 256" fill="none" xmlns="http://www.w3.org/2000/svg">
<path d="M128 256C198.692 256 256 198.692 256 128C256 57.3075 198.692 0 128 0C57.3075 0 0 57.3075 0 128C0 198.692 57.3075 256 128 256Z" fill="#FCFC03"/>
<path d="M179.254 129.197L207.324 115.228L217 85.5656L197.648 71.5H68.7944L39 93.603H190.463L182.416 118.481H121.677L115.833 136.661H176.572L159.519 189L187.972 174.934L198.127 143.55L179.062 129.58L179.254 129.197Z" fill="black"/>
<path d="M81.8235 166.514L99.3552 111.974L79.9074 97.4304L50.6878 189H159.519L166.8 166.514H81.8235Z" fill="black"/>
</svg>
