<svg xmlns="http://www.w3.org/2000/svg" fill="none" viewBox="0 0 256 256"><path fill="#FAC315" fill-rule="evenodd" d="M128 0c70.697 0 128 57.303 128 128s-57.303 128-128 128S0 198.697 0 128 57.303 0 128 0" clip-rule="evenodd"/><path fill="#fff" d="m64.904 128.358.101 37.102 31.6 18.552v21.721l-50.094-29.311v-58.914zm0-37.103v21.621L46.5 102.015v-21.62l18.404-10.862 18.494 10.861zm44.899-10.86 18.404-10.862 18.494 10.861-18.494 10.861z"/><path fill="#fff" d="M78.576 157.899v-21.754l18.35 10.877v21.653zm31.51 34.072 18.351 10.877 18.441-10.877v21.652L128.437 224.5l-18.351-10.877zm63.111-111.56 18.351-10.878 18.441 10.877v21.652l-18.441 10.877V91.287zm18.351 85.19.101-37.157L210 117.567v59.001l-49.951 29.354v-21.754z"/><path fill="#fff" d="m178.208 157.653-18.166 10.831v-21.765l18.166-10.934z"/><path fill="#fff" d="m178.107 98.606.101 21.755-31.511 18.58v37.249l-18.299 10.777-18.3-10.777v-37.249l-31.511-18.58V98.606l18.378-10.878 31.32 18.67 31.512-18.67 18.389 10.878zM78.576 61.457 128.297 32l49.81 29.457-18.299 10.878-31.511-18.67-31.422 18.67z"/></svg>