<svg xmlns="http://www.w3.org/2000/svg" fill="none" viewBox="0 0 217 256"><path fill="#000" d="m24.426 128.143.134 49.342 41.941 24.671v28.887L.015 192.063v-78.348zm0-49.341v28.752L0 93.111V64.358l24.426-14.444L48.97 64.358zm59.59-14.444 24.426-14.444 24.546 14.444-24.546 14.444z"/><path fill="#000" d="M42.571 167.429V138.5l24.356 14.465v28.794zm41.821 45.311 24.356 14.465 24.475-14.465v28.795L108.748 256l-24.356-14.465zm83.762-148.36 24.356-14.466 24.475 14.465v28.795l-24.475 14.465V78.844zm24.356 113.292.134-49.414L217 113.793v78.463l-66.296 39.037v-28.929z"/><path fill="#000" d="m174.806 167.102-24.112 14.405v-28.946l24.112-14.54z"/><path fill="#000" d="m174.672 88.577.134 28.932-41.823 24.708v49.538l-24.287 14.331-24.287-14.331v-49.538l-41.823-24.708V88.577l24.392-14.466 41.569 24.829 41.822-24.829 24.407 14.466zm-132.1-49.402L108.561 0l66.11 39.175-24.288 14.465-41.822-24.828L66.859 53.64z"/></svg>
