<svg xmlns="http://www.w3.org/2000/svg" fill="none" viewBox="0 0 218 256"><path fill="#000" d="m24.462 128.143.134 49.342L66.6 202.156v28.887L.015 192.063v-78.348zm0-49.341v28.752L0 93.111V64.358l24.462-14.444 24.581 14.444zM84.14 64.358l24.462-14.444 24.581 14.444-24.581 14.444z"/><path fill="#000" d="M42.634 167.429V138.5l24.391 14.465v28.794zm41.882 45.311 24.392 14.465 24.511-14.465v28.795L108.908 256l-24.392-14.465zm83.885-148.36 24.392-14.466 24.511 14.465v28.795l-24.511 14.465V78.844zm24.392 113.292.134-49.414 24.392-14.465v78.463l-66.394 39.037v-28.929z"/><path fill="#000" d="m175.062 167.102-24.146 14.405v-28.946l24.146-14.54z"/><path fill="#000" d="m174.928 88.577.134 28.932-41.884 24.708v49.538l-24.323 14.331-24.323-14.331v-49.538L42.65 117.509V88.577l24.427-14.466 41.63 24.829 41.883-24.83 24.442 14.466zM42.634 39.175 108.72 0l66.207 39.175-24.323 14.465-41.884-24.828L66.957 53.64z"/></svg>