<svg xmlns="http://www.w3.org/2000/svg" fill="none" viewBox="0 0 165 256"><path fill="#000" d="M69.274 0H4.064A4.06 4.06 0 0 0 0 4.053v65.045a4.06 4.06 0 0 0 4.064 4.053h65.21a4.06 4.06 0 0 0 4.063-4.053V4.053A4.06 4.06 0 0 0 69.273 0M.026 186.896v65.044a4.06 4.06 0 0 0 4.063 4.053H69.3a4.06 4.06 0 0 0 4.063-4.053v-65.044a4.06 4.06 0 0 0-4.063-4.054H4.089a4.06 4.06 0 0 0-4.063 4.054M0 95.484v65.045a4.06 4.06 0 0 0 4.064 4.053h65.21a4.06 4.06 0 0 0 4.063-4.053V95.484a4.06 4.06 0 0 0-4.064-4.053H4.064A4.06 4.06 0 0 0 0 95.484m91.663 91.418v65.045A4.06 4.06 0 0 0 95.727 256h65.209a4.06 4.06 0 0 0 4.064-4.053v-65.045a4.06 4.06 0 0 0-4.064-4.053h-65.21a4.06 4.06 0 0 0-4.063 4.053m0-91.437v65.044a4.06 4.06 0 0 0 4.064 4.053h65.209a4.06 4.06 0 0 0 4.064-4.053V95.465a4.06 4.06 0 0 0-4.064-4.053h-65.21a4.06 4.06 0 0 0-4.063 4.053"/></svg>