<svg xmlns="http://www.w3.org/2000/svg" fill="none" viewBox="0 0 165 256"><path fill="#000" d="M69.098 0H4.054A4.053 4.053 0 0 0 0 4.053v65.045a4.053 4.053 0 0 0 4.054 4.053h65.044a4.053 4.053 0 0 0 4.053-4.053V4.053A4.053 4.053 0 0 0 69.098 0M.026 186.896v65.044a4.05 4.05 0 0 0 4.053 4.053h65.044a4.053 4.053 0 0 0 4.054-4.053v-65.044a4.054 4.054 0 0 0-4.054-4.054H4.08a4.053 4.053 0 0 0-4.053 4.054M0 95.484v65.045a4.054 4.054 0 0 0 4.054 4.053h65.044a4.053 4.053 0 0 0 4.053-4.053V95.484a4.053 4.053 0 0 0-4.053-4.053H4.054A4.053 4.053 0 0 0 0 95.484m91.431 91.418v65.045A4.053 4.053 0 0 0 95.484 256h65.045a4.054 4.054 0 0 0 4.053-4.053v-65.045a4.054 4.054 0 0 0-4.053-4.053H95.484a4.053 4.053 0 0 0-4.053 4.053m0-91.437v65.044a4.053 4.053 0 0 0 4.053 4.053h65.045a4.053 4.053 0 0 0 4.053-4.053V95.465a4.053 4.053 0 0 0-4.053-4.053H95.484a4.053 4.053 0 0 0-4.053 4.053"/></svg>