<svg xmlns="http://www.w3.org/2000/svg" fill="none" viewBox="0 0 512 512"><path fill="#F26514" d="M256 512c141.386 0 256-114.614 256-256C512 114.615 397.386 0 256 0 114.615 0 0 114.615 0 256c0 141.386 114.615 256 256 256"/><path fill="#fff" d="M242.731 104.062h-78.054a4.865 4.865 0 0 0-4.865 4.864v78.055a4.865 4.865 0 0 0 4.865 4.864h78.054a4.864 4.864 0 0 0 4.864-4.864v-78.055a4.864 4.864 0 0 0-4.864-4.864m-82.887 224.279v78.054a4.864 4.864 0 0 0 4.863 4.864h78.055a4.864 4.864 0 0 0 4.864-4.864v-78.054a4.864 4.864 0 0 0-4.864-4.864h-78.055a4.863 4.863 0 0 0-4.863 4.864m-.032-109.696V296.7a4.865 4.865 0 0 0 4.865 4.864h78.054a4.864 4.864 0 0 0 4.864-4.864v-78.055a4.864 4.864 0 0 0-4.864-4.864h-78.054a4.865 4.865 0 0 0-4.865 4.864m109.719 109.703v78.055a4.864 4.864 0 0 0 4.864 4.864h78.055a4.864 4.864 0 0 0 4.864-4.864v-78.055a4.864 4.864 0 0 0-4.864-4.864h-78.055a4.864 4.864 0 0 0-4.864 4.864m0-109.726v78.054a4.864 4.864 0 0 0 4.864 4.864h78.055a4.864 4.864 0 0 0 4.864-4.864v-78.054a4.864 4.864 0 0 0-4.864-4.864h-78.055a4.864 4.864 0 0 0-4.864 4.864"/></svg>