<svg xmlns="http://www.w3.org/2000/svg" fill="none" viewBox="0 0 256 256"><path fill="#F26514" d="M128 256c70.693 0 128-57.307 128-128C256 57.308 198.693 0 128 0 57.308 0 0 57.308 0 128s57.308 128 128 128"/><path fill="#fff" d="M121.366 52.031H82.338a2.43 2.43 0 0 0-2.432 2.432V93.49a2.43 2.43 0 0 0 2.432 2.432h39.028a2.43 2.43 0 0 0 2.432-2.432V54.463a2.43 2.43 0 0 0-2.432-2.432M79.922 164.17v39.027a2.43 2.43 0 0 0 2.432 2.432h39.027a2.43 2.43 0 0 0 2.432-2.432V164.17a2.43 2.43 0 0 0-2.432-2.432H82.354a2.43 2.43 0 0 0-2.432 2.432m-.016-54.847v39.027a2.43 2.43 0 0 0 2.432 2.432h39.028a2.43 2.43 0 0 0 2.432-2.432v-39.027a2.43 2.43 0 0 0-2.432-2.432H82.338a2.43 2.43 0 0 0-2.432 2.432m54.86 54.851v39.027a2.43 2.43 0 0 0 2.432 2.432h39.027a2.43 2.43 0 0 0 2.432-2.432v-39.027a2.43 2.43 0 0 0-2.432-2.432h-39.027a2.43 2.43 0 0 0-2.432 2.432m0-54.863v39.027a2.43 2.43 0 0 0 2.432 2.432h39.027a2.43 2.43 0 0 0 2.432-2.432v-39.027a2.43 2.43 0 0 0-2.432-2.432h-39.027a2.43 2.43 0 0 0-2.432 2.432"/></svg>
