<svg xmlns="http://www.w3.org/2000/svg" fill="none" viewBox="0 0 256 256"><path fill="#000" d="M128 256c70.692 0 128-57.308 128-128S198.692 0 128 0c-20.362 0-39.613 4.754-56.704 13.214a128 128 0 0 0-20.211 12.463C20.061 49.035 0 86.175 0 128c0 70.692 57.308 128 128 128"/><path fill="#C2F200" d="M128.687 41.11c-17.494 0-34.001 5.34-47.728 14.27l3.768 22.033a66.5 66.5 0 0 1 43.96-16.513 67.14 67.14 0 0 1 46.357 20.27 67.19 67.19 0 0 1 0 93.765 67.14 67.14 0 0 1-46.357 20.271 67.09 67.09 0 0 1-52.24-25.145 67.14 67.14 0 0 1-13.161-56.48l-6.01-34.911a86.94 86.94 0 0 0-5.543 89.725 86.9 86.9 0 0 0 31.914 34.029 86.87 86.87 0 0 0 44.905 12.616 86.92 86.92 0 0 0 61.491-25.424 86.98 86.98 0 0 0 25.509-61.473 86.98 86.98 0 0 0-25.414-61.513 86.92 86.92 0 0 0-61.451-25.52"/><path fill="#1BCCC7" d="M122.766 177.66a11.88 11.88 0 0 0 11.014-7.309 11.9 11.9 0 0 0-2.548-12.975 11.885 11.885 0 0 0-18.302 1.782 11.9 11.9 0 0 0-2.006 6.611 11.86 11.86 0 0 0 3.452 8.406 11.84 11.84 0 0 0 8.39 3.485m32.611-11.891a11.88 11.88 0 0 0 11.014-7.31 11.9 11.9 0 0 0 .695-6.874 11.9 11.9 0 0 0-3.243-6.1 11.88 11.88 0 0 0-12.96-2.598 11.89 11.89 0 0 0-7.348 10.991 11.86 11.86 0 0 0 3.452 8.405 11.84 11.84 0 0 0 8.39 3.486m-27.991-23.738a11.88 11.88 0 0 0 10.968-7.362 11.88 11.88 0 0 0-.017-9.101 11.9 11.9 0 0 0-6.445-6.423 11.88 11.88 0 0 0-12.95 2.602 11.89 11.89 0 0 0 .032 16.817 11.88 11.88 0 0 0 8.412 3.467m-37.59 11.891a11.9 11.9 0 0 0 8.399-3.498 11.9 11.9 0 0 0 3.466-8.415 11.895 11.895 0 0 0-7.359-10.973 11.88 11.88 0 0 0-12.95 2.602 11.897 11.897 0 0 0 .032 16.817 11.88 11.88 0 0 0 8.412 3.467m77.423-27.552a11.88 11.88 0 0 0 10.968-7.361 11.9 11.9 0 0 0-.017-9.102 11.9 11.9 0 0 0-6.445-6.423 11.885 11.885 0 0 0-16.416 11.017 11.89 11.89 0 0 0 11.91 11.869m-23.684-25.129a11.88 11.88 0 0 0 8.398-3.499 11.894 11.894 0 0 0-8.443-20.284 11.886 11.886 0 0 0-11.865 11.914 11.89 11.89 0 0 0 11.91 11.869m-41.897 11.847a11.88 11.88 0 0 0 11.014-7.31 11.89 11.89 0 0 0-2.548-12.974 11.88 11.88 0 0 0-18.301 1.781 11.9 11.9 0 0 0-2.007 6.611 11.847 11.847 0 0 0 11.842 11.892"/><path fill="#C2F200" fill-rule="evenodd" d="M70.086 122.135a11.03 11.03 0 0 0 7.106 2.665c.493 0 1.166 0 1.704-.18a11.04 11.04 0 0 0 9.106-12.744L71.296 13.213a128 128 0 0 0-20.211 12.464l15.296 89.834a11.04 11.04 0 0 0 3.705 6.624" clip-rule="evenodd"/></svg>