<svg xmlns="http://www.w3.org/2000/svg" fill="none" viewBox="0 0 512 512"><path fill="#000" d="M256 512c141.385 0 256-114.615 256-256S397.385 0 256 0c-40.723 0-79.226 9.509-113.408 26.427a256 256 0 0 0-40.422 24.927C40.121 98.07 0 172.35 0 256c0 141.385 114.615 256 256 256"/><path fill="#C2F200" d="M257.374 82.222c-34.988 0-68.003 10.68-95.455 28.539l7.536 44.066a133 133 0 0 1 87.919-33.027 134.28 134.28 0 0 1 92.714 40.541 134.38 134.38 0 0 1 38.116 93.765 134.38 134.38 0 0 1-38.116 93.765 134.28 134.28 0 0 1-92.714 40.541 134.18 134.18 0 0 1-104.479-50.29 134.29 134.29 0 0 1-26.323-112.959L114.55 157.34a173.9 173.9 0 0 0-11.084 179.45 173.8 173.8 0 0 0 63.827 68.057 173.7 173.7 0 0 0 89.812 25.233 173.83 173.83 0 0 0 122.98-50.847 173.97 173.97 0 0 0 51.019-122.948 173.96 173.96 0 0 0-50.829-123.026 173.83 173.83 0 0 0-122.901-51.037"/><path fill="#1BCCC7" d="M245.532 355.321a23.77 23.77 0 0 0 22.028-14.619 23.79 23.79 0 0 0-5.096-25.949 23.77 23.77 0 0 0-36.604 3.563 23.8 23.8 0 0 0-4.013 13.222 23.7 23.7 0 0 0 14.6 21.971 23.7 23.7 0 0 0 9.085 1.812m65.221-23.783a23.77 23.77 0 0 0 22.029-14.619 23.79 23.79 0 0 0-5.096-25.949 23.768 23.768 0 0 0-36.604 3.563 23.8 23.8 0 0 0-4.013 13.222 23.7 23.7 0 0 0 14.6 21.971 23.7 23.7 0 0 0 9.084 1.812m-55.981-47.476a23.76 23.76 0 0 0 16.798-6.998 23.78 23.78 0 0 0 6.931-16.83 23.78 23.78 0 0 0-23.818-23.738 23.77 23.77 0 0 0-16.798 6.998 23.786 23.786 0 0 0 16.887 40.568m-75.18 23.783a23.76 23.76 0 0 0 16.798-6.998 23.8 23.8 0 0 0 5.139-7.725 23.8 23.8 0 0 0-5.202-25.909 23.78 23.78 0 0 0-16.824-6.934 23.77 23.77 0 0 0-16.798 6.998 23.79 23.79 0 0 0 .063 33.634 23.77 23.77 0 0 0 16.824 6.934m154.846-55.105a23.78 23.78 0 0 0 16.797-6.997 23.8 23.8 0 0 0 5.139-7.726 23.77 23.77 0 0 0-.034-18.202 23.77 23.77 0 0 0-12.891-12.847 23.77 23.77 0 0 0-25.899 5.204 23.79 23.79 0 0 0 .064 33.634 23.77 23.77 0 0 0 16.824 6.934m-47.369-50.258a23.773 23.773 0 0 0 23.729-23.828 23.8 23.8 0 0 0-6.995-16.804 23.77 23.77 0 0 0-25.918-5.106 23.79 23.79 0 0 0-7.64 38.804 23.77 23.77 0 0 0 16.824 6.934m-83.792 23.693a23.77 23.77 0 0 0 22.028-14.619 23.79 23.79 0 0 0-5.096-25.949 23.77 23.77 0 0 0-36.604 3.563 23.8 23.8 0 0 0-4.013 13.222 23.69 23.69 0 0 0 23.685 23.783"/><path fill="#C2F200" fill-rule="evenodd" d="M140.173 244.27a22.06 22.06 0 0 0 14.21 5.329c.987 0 2.332 0 3.409-.359a22.075 22.075 0 0 0 18.212-25.488L142.592 26.427a256 256 0 0 0-40.422 24.927l30.592 179.668a22.08 22.08 0 0 0 7.411 13.248" clip-rule="evenodd"/></svg>