<svg xmlns="http://www.w3.org/2000/svg" fill="none" viewBox="0 0 256 256"><path fill="#4176FF" d="M128 256c70.692 0 128-57.308 128-128S198.692 0 128 0 0 57.308 0 128s57.308 128 128 128"/><path fill="#fff" d="M84.66 127.358c-.409 7.134 5.066 13.241 12.178 13.652h.768a12.87 12.87 0 0 0 12.894-12.984c0-7.185-5.782-12.984-12.945-12.933-6.857 0-12.537 5.389-12.895 12.265m-48.2-3.335c-2.303-.154-4.299 1.642-4.4 3.951-.103 2.31 1.637 4.311 3.94 4.414 2.302.154 4.246-1.642 4.4-3.952s-1.638-4.259-3.94-4.413m47.382-71.899c2.046-1.027 2.865-3.593 1.842-5.646s-3.582-2.874-5.629-1.847c-2.047 1.026-2.865 3.54-1.842 5.594 1.024 2.104 3.53 2.976 5.629 1.898M96.94 75.064c3.173-1.591 4.452-5.492 2.866-8.674s-5.475-4.464-8.647-2.873c-3.173 1.59-4.452 5.49-2.866 8.673 1.586 3.181 5.475 4.464 8.648 2.874M52.834 90.819a5.34 5.34 0 0 0 7.368-1.54 5.377 5.377 0 0 0-1.535-7.39 5.34 5.34 0 0 0-7.369 1.54c-1.637 2.463-.92 5.799 1.536 7.39m7.828 30.894c-3.581-.205-6.6 2.515-6.805 6.107a6.44 6.44 0 0 0 6.089 6.826c3.582.205 6.6-2.515 6.805-6.107a6.474 6.474 0 0 0-6.089-6.826m-7.112 43.468a5.36 5.36 0 0 0-2.354 7.185 5.33 5.33 0 0 0 7.164 2.361 5.36 5.36 0 0 0 2.354-7.185c-1.33-2.617-4.554-3.695-7.164-2.361m25.073-56.862c3.53 2.309 8.238 1.334 10.489-2.207 2.303-3.541 1.33-8.262-2.2-10.52-3.53-2.31-8.238-1.335-10.49 2.206-2.302 3.49-1.33 8.211 2.2 10.521m79.567-33.769c2.968 1.95 7.01 1.13 8.955-1.847 1.944-2.977 1.126-7.031-1.842-8.981s-7.01-1.13-8.955 1.847c-1.995 3.028-1.177 7.031 1.842 8.981m13.202-22.837c1.944 1.283 4.503.718 5.782-1.232s.716-4.516-1.228-5.799c-1.945-1.283-4.503-.718-5.782 1.18-1.228 1.95-.665 4.568 1.228 5.85m-12.229 63.278c-7.113-.41-13.253 5.081-13.611 12.215-.41 7.133 5.065 13.291 12.178 13.651h.716c7.113 0 12.895-5.8 12.895-12.984.051-6.826-5.322-12.522-12.178-12.882m-57.974-7.595a12.94 12.94 0 0 0 11.564 7.134c7.112 0 12.894-5.8 12.894-12.984 0-2.002-.46-4.003-1.381-5.85-3.224-6.416-11.002-8.982-17.346-5.749-6.396 3.285-8.955 11.085-5.731 17.449M202.45 90.819c2.61-1.335 3.633-4.568 2.303-7.185s-4.554-3.644-7.164-2.31-3.633 4.517-2.354 7.134c1.382 2.617 4.554 3.695 7.215 2.36m-32.748 4.106c-3.735 1.9-5.27 6.467-3.377 10.213s6.447 5.286 10.183 3.387 5.27-6.466 3.377-10.213-6.447-5.234-10.183-3.387m-42.214-45.161c2.917.154 5.424-2.104 5.629-5.03.205-2.925-2.098-5.44-5.015-5.645a5.356 5.356 0 0 0-5.628 4.978c-.154 2.977 2.098 5.491 5.014 5.697m-.051 33.512c4.196.256 7.778-2.977 7.982-7.185a7.55 7.55 0 0 0-7.163-8.006c-4.196-.257-7.778 2.977-7.982 7.185s2.967 7.8 7.163 8.006m-41.139 77.801c3.735-1.899 5.27-6.467 3.377-10.213s-6.447-5.286-10.183-3.387-5.27 6.466-3.377 10.213 6.447 5.286 10.183 3.387m46.051-66.665c-3.888 6.005-2.251 14.01 3.736 17.911 5.986 3.9 13.969 2.258 17.857-3.747 3.889-6.004 2.252-14.01-3.735-17.91a12.8 12.8 0 0 0-7.061-2.104c-4.349 0-8.392 2.206-10.797 5.85m22.463 54.194c-3.223-6.415-11.001-8.981-17.346-5.748-6.396 3.233-8.954 11.034-5.731 17.398 3.224 6.415 11.002 8.981 17.346 5.747 6.345-3.181 8.955-10.879 5.782-17.294 0-.052 0-.052-.051-.103m22.566-.924c-3.531-2.309-8.239-1.334-10.49 2.207-2.303 3.541-1.33 8.262 2.2 10.521 3.531 2.309 8.238 1.334 10.49-2.207 2.302-3.49 1.33-8.211-2.2-10.521m24.765-19.45a6.443 6.443 0 0 0-6.089-6.826c-3.582-.205-6.601 2.515-6.805 6.107a6.44 6.44 0 0 0 6.089 6.826c3.53.205 6.6-2.566 6.805-6.107m17.858-4.619c-2.303-.154-4.298 1.642-4.401 3.952s1.638 4.311 3.94 4.413c2.303.154 4.247-1.642 4.401-3.951a4.22 4.22 0 0 0-3.94-4.414m-16.835 41.569a5.34 5.34 0 0 0-7.368 1.54 5.377 5.377 0 0 0 1.535 7.39 5.34 5.34 0 0 0 7.368-1.54c1.638-2.463.922-5.799-1.535-7.39M84.558 204.287c-1.944-1.283-4.503-.718-5.782 1.18-1.28 1.951-.716 4.517 1.177 5.8 1.944 1.283 4.503.718 5.782-1.181 1.33-1.899.767-4.516-1.177-5.799m87.6-.41c-2.046 1.026-2.865 3.592-1.842 5.645s3.582 2.874 5.629 1.847c2.047-1.026 2.865-3.541 1.842-5.594-1.023-2.104-3.531-2.976-5.629-1.898m-48.507-42.288c3.888-6.005 2.251-14.01-3.736-17.962a12.93 12.93 0 0 0-17.909 3.746c-3.94 6.005-2.251 14.011 3.736 17.962a12.8 12.8 0 0 0 7.061 2.104c4.4.052 8.443-2.155 10.848-5.85M97.81 181.45c-2.967-1.95-7.01-1.129-8.954 1.847s-1.126 7.031 1.842 8.981 7.01 1.129 8.955-1.847c1.995-2.977 1.177-7.031-1.842-8.981m30.138 24.787c-2.917-.154-5.424 2.104-5.629 5.03-.204 2.925 2.098 5.44 5.015 5.645a5.356 5.356 0 0 0 5.628-4.978c.154-2.977-2.098-5.491-5.014-5.697m.051-33.512c-4.196-.256-7.778 2.977-7.982 7.185-.256 4.208 2.967 7.801 7.163 8.006s7.778-2.977 7.983-7.185c.255-4.157-2.968-7.8-7.164-8.006m31.059 8.212c-3.172 1.642-4.451 5.542-2.814 8.724s5.526 4.465 8.699 2.822c3.172-1.59 4.451-5.491 2.865-8.673-1.637-3.181-5.526-4.516-8.75-2.873"/></svg>