<svg xmlns="http://www.w3.org/2000/svg" fill="none" viewBox="0 0 277 256"><path fill="#000" d="M75.726 127.077c-.59 10.268 7.292 19.059 17.53 19.65h1.105c10.312 0 18.635-8.348 18.562-18.69 0-10.343-8.323-18.691-18.636-18.617-9.87 0-18.046 7.757-18.561 17.657M6.34 122.275c-3.314-.222-6.187 2.364-6.334 5.688s2.357 6.206 5.672 6.353c3.314.222 6.113-2.364 6.334-5.688s-2.357-6.132-5.671-6.353m68.206-103.5c2.947-1.477 4.125-5.171 2.652-8.126s-5.156-4.137-8.102-2.66c-2.947 1.478-4.125 5.098-2.652 8.053 1.473 3.029 5.082 4.285 8.102 2.733m18.857 33.023c4.566-2.29 6.408-7.905 4.124-12.485-2.283-4.58-7.88-6.428-12.448-4.137-4.566 2.29-6.408 7.904-4.124 12.484 2.283 4.58 7.88 6.428 12.448 4.138M29.911 74.477a7.69 7.69 0 0 0 10.607-2.216 7.74 7.74 0 0 0-2.21-10.638 7.69 7.69 0 0 0-10.607 2.216c-2.357 3.546-1.326 8.348 2.21 10.638M41.18 118.95c-5.155-.295-9.501 3.62-9.796 8.791a9.274 9.274 0 0 0 8.765 9.826c5.156.295 9.502-3.62 9.797-8.791.294-5.098-3.61-9.53-8.765-9.826m-10.239 62.573a7.716 7.716 0 0 0-3.388 10.342 7.67 7.67 0 0 0 10.312 3.398 7.716 7.716 0 0 0 3.388-10.342c-1.915-3.768-6.555-5.319-10.312-3.398m36.092-81.854c5.083 3.324 11.86 1.921 15.1-3.177 3.315-5.097 1.915-11.894-3.167-15.144-5.083-3.325-11.859-1.921-15.1 3.176-3.314 5.024-1.915 11.82 3.167 15.145m114.537-48.61c4.273 2.807 10.091 1.625 12.89-2.66s1.621-10.12-2.651-12.928c-4.272-2.807-10.091-1.625-12.89 2.66-2.873 4.358-1.694 10.12 2.651 12.928m19.004-32.875c2.799 1.847 6.482 1.034 8.323-1.773s1.031-6.5-1.768-8.348c-2.799-1.847-6.481-1.034-8.323 1.7-1.768 2.807-.957 6.574 1.768 8.421m-17.604 91.089c-10.238-.591-19.077 7.313-19.593 17.582-.589 10.269 7.292 19.134 17.53 19.651h1.032c10.238 0 18.561-8.348 18.561-18.691.074-9.825-7.66-18.025-17.53-18.542M99.517 98.339a18.63 18.63 0 0 0 16.647 10.269c10.238 0 18.561-8.348 18.561-18.69a18.9 18.9 0 0 0-1.988-8.422c-4.641-9.235-15.837-12.929-24.97-8.275-9.207 4.728-12.89 15.957-8.25 25.118m145.768-23.862c3.756-1.92 5.23-6.575 3.315-10.342s-6.556-5.245-10.313-3.325c-3.756 1.921-5.229 6.501-3.388 10.269 1.989 3.768 6.556 5.32 10.386 3.398m-47.141 5.91c-5.377 2.734-7.586 9.309-4.861 14.701s9.281 7.61 14.658 4.876 7.586-9.308 4.861-14.7c-2.725-5.394-9.281-7.536-14.658-4.877m-60.767-65.01c4.198.222 7.808-3.029 8.102-7.24.295-4.21-3.02-7.83-7.218-8.126a7.71 7.71 0 0 0-8.102 7.166c-.221 4.285 3.02 7.905 7.218 8.2m-.074 48.241c6.04.369 11.196-4.285 11.491-10.343.368-6.058-4.272-11.229-10.312-11.524-6.04-.37-11.196 4.284-11.491 10.342s4.272 11.23 10.312 11.525m-59.22 111.995c5.377-2.734 7.587-9.309 4.861-14.702-2.725-5.392-9.28-7.609-14.657-4.875s-7.587 9.308-4.862 14.701 9.28 7.609 14.658 4.876m66.291-95.964c-5.597 8.643-3.24 20.168 5.377 25.782s20.109 3.251 25.707-5.393 3.241-20.168-5.377-25.782a18.4 18.4 0 0 0-10.165-3.03c-6.261 0-12.08 3.177-15.542 8.423m32.336 78.012c-4.64-9.234-15.836-12.928-24.97-8.274-9.207 4.654-12.89 15.883-8.249 25.044 4.64 9.234 15.836 12.928 24.969 8.274 9.134-4.581 12.89-15.662 8.324-24.896 0-.074 0-.074-.074-.148m32.483-1.33c-5.082-3.324-11.859-1.921-15.1 3.177-3.314 5.097-1.915 11.894 3.167 15.144 5.083 3.325 11.859 1.921 15.1-3.176 3.315-5.024 1.915-11.82-3.167-15.145m35.65-27.999a9.273 9.273 0 0 0-8.765-9.825c-5.156-.296-9.502 3.62-9.797 8.791a9.275 9.275 0 0 0 8.766 9.826c5.082.295 9.501-3.694 9.796-8.792m25.706-6.648c-3.314-.222-6.187 2.364-6.334 5.688s2.357 6.206 5.671 6.353c3.315.222 6.114-2.364 6.335-5.688a6.07 6.07 0 0 0-5.672-6.353m-24.233 59.839a7.69 7.69 0 0 0-10.607 2.216 7.74 7.74 0 0 0 2.21 10.638 7.69 7.69 0 0 0 10.607-2.216c2.357-3.546 1.326-8.348-2.21-10.638M75.579 237.816c-2.8-1.847-6.482-1.035-8.324 1.699-1.841 2.807-1.03 6.501 1.694 8.348 2.8 1.847 6.482 1.034 8.324-1.699 1.915-2.734 1.105-6.501-1.694-8.348m126.101-.591c-2.946 1.477-4.125 5.171-2.652 8.126s5.156 4.137 8.102 2.66c2.947-1.478 4.125-5.098 2.652-8.053-1.473-3.029-5.082-4.285-8.102-2.733m-69.827-60.874c5.598-8.643 3.241-20.168-5.377-25.856-8.618-5.614-20.109-3.25-25.78 5.393-5.672 8.643-3.241 20.168 5.377 25.856a18.4 18.4 0 0 0 10.164 3.029c6.335.074 12.154-3.103 15.616-8.422m-37.197 28.59c-4.272-2.807-10.091-1.625-12.89 2.66-2.8 4.284-1.62 10.121 2.651 12.928 4.272 2.807 10.091 1.625 12.89-2.66 2.873-4.284 1.695-10.121-2.651-12.928m43.384 35.682c-4.199-.222-7.808 3.029-8.102 7.24s3.02 7.831 7.218 8.126a7.71 7.71 0 0 0 8.102-7.166c.221-4.285-3.02-7.904-7.218-8.2m.074-48.241c-6.04-.369-11.196 4.285-11.491 10.343-.368 6.058 4.272 11.229 10.312 11.525 6.04.295 11.196-4.285 11.491-10.343.368-5.984-4.273-11.229-10.312-11.525m44.71 11.82c-4.567 2.364-6.409 7.979-4.052 12.559 2.357 4.581 7.955 6.427 12.522 4.063 4.567-2.29 6.408-7.904 4.125-12.485-2.357-4.58-7.955-6.501-12.595-4.137"/></svg>