<svg width="276" height="256" viewBox="0 0 276 256" fill="none" xmlns="http://www.w3.org/2000/svg">
<path d="M75.6636 127.077C75.0748 137.345 82.9497 146.136 93.1796 146.727C93.5476 146.727 93.9156 146.727 94.2836 146.727C104.587 146.727 112.904 138.379 112.83 128.037C112.83 117.694 104.514 109.346 94.21 109.42C84.348 109.42 76.1788 117.177 75.6636 127.077Z" fill="black"/>
<path d="M6.33549 122.275C3.02364 122.053 0.153366 124.639 0.00617308 127.963C-0.14102 131.287 2.36127 134.169 5.67312 134.316C8.98497 134.538 11.7816 131.952 12.0024 128.628C12.2232 125.304 9.64734 122.496 6.33549 122.275Z" fill="black"/>
<path d="M74.486 18.7753C77.4299 17.2978 78.6074 13.604 77.1355 10.649C75.6636 7.69396 71.9838 6.51196 69.0399 7.98946C66.096 9.46697 64.9185 13.0869 66.3904 16.0419C67.8623 19.0708 71.4686 20.3266 74.486 18.7753Z" fill="black"/>
<path d="M93.3268 51.7975C97.8898 49.5074 99.7297 43.8929 97.4482 39.3126C95.1667 34.7323 89.5734 32.8855 85.0104 35.1756C80.4474 37.4657 78.6074 43.0803 80.8889 47.6605C83.1704 52.2408 88.7638 54.0877 93.3268 51.7975Z" fill="black"/>
<path d="M29.8864 74.4773C33.4191 76.7674 38.1293 75.807 40.4844 72.261C42.7659 68.715 41.8091 63.987 38.2765 61.623C34.7438 59.3328 30.0336 60.2932 27.6785 63.8392C25.3234 67.3853 26.3538 72.1872 29.8864 74.4773Z" fill="black"/>
<path d="M41.1467 118.95C35.995 118.655 31.6528 122.57 31.3584 127.741C31.064 132.913 34.9646 137.271 40.1164 137.567C45.2681 137.862 49.6104 133.947 49.9047 128.776C50.1991 123.678 46.2985 119.246 41.1467 118.95Z" fill="black"/>
<path d="M30.9168 181.523C27.1634 183.443 25.6178 188.024 27.5313 191.865C29.4449 195.633 34.0079 197.184 37.8349 195.263C41.5883 193.343 43.1338 188.763 41.2203 184.921C39.3068 181.153 34.6702 179.602 30.9168 181.523Z" fill="black"/>
<path d="M66.9792 99.6688C72.0573 102.993 78.8282 101.59 82.0665 96.4922C85.3784 91.3948 83.98 84.5982 78.9018 81.3477C73.8237 78.0233 67.0528 79.4269 63.8145 84.5243C60.5027 89.5479 61.901 96.3444 66.9792 99.6688Z" fill="black"/>
<path d="M181.422 51.0588C185.691 53.8661 191.505 52.6841 194.301 48.3993C197.098 44.1145 195.921 38.2784 191.652 35.4711C187.383 32.6638 181.569 33.8458 178.773 38.1306C175.902 42.4893 177.08 48.2515 181.422 51.0588Z" fill="black"/>
<path d="M200.41 18.1843C203.207 20.0312 206.887 19.2185 208.726 16.4113C210.566 13.604 209.757 9.91022 206.96 8.06334C204.163 6.21645 200.484 7.02908 198.644 9.76247C196.877 12.5697 197.687 16.3374 200.41 18.1843Z" fill="black"/>
<path d="M182.82 109.273C172.59 108.682 163.759 116.586 163.244 126.855C162.655 137.124 170.53 145.989 180.76 146.506C181.128 146.506 181.496 146.506 181.79 146.506C192.02 146.506 200.336 138.158 200.336 127.815C200.41 117.99 192.682 109.79 182.82 109.273Z" fill="black"/>
<path d="M99.4353 98.339C102.6 104.618 109.003 108.608 116.068 108.608C126.298 108.608 134.615 100.26 134.615 89.9172C134.615 87.0361 133.952 84.155 132.627 81.4955C127.991 72.261 116.804 68.5673 107.678 73.2214C98.4786 77.9494 94.7987 89.1785 99.4353 98.339Z" fill="black"/>
<path d="M245.083 74.4773C248.837 72.5565 250.309 67.9024 248.395 64.1347C246.482 60.3671 241.845 58.8896 238.092 60.8103C234.338 62.7311 232.866 67.3114 234.706 71.079C236.693 74.8467 241.256 76.3981 245.083 74.4773Z" fill="black"/>
<path d="M197.981 80.3873C192.609 83.1207 190.401 89.6956 193.124 95.0885C195.847 100.481 202.397 102.698 207.77 99.9643C213.142 97.2309 215.35 90.656 212.627 85.2631C209.904 79.8702 203.354 77.7278 197.981 80.3873Z" fill="black"/>
<path d="M137.264 15.377C141.459 15.5986 145.065 12.3481 145.36 8.13722C145.654 3.92632 142.342 0.306425 138.147 0.0109238C133.952 -0.210702 130.346 2.96593 130.052 7.17683C129.831 11.4616 133.069 15.0815 137.264 15.377Z" fill="black"/>
<path d="M137.19 63.6176C143.225 63.987 148.377 59.3328 148.672 53.2751C149.04 47.2173 144.403 42.046 138.368 41.7505C132.333 41.3811 127.181 46.0353 126.887 52.0931C126.592 58.1508 131.155 63.3221 137.19 63.6176Z" fill="black"/>
<path d="M78.0187 175.613C83.3912 172.879 85.5991 166.304 82.8761 160.911C80.153 155.519 73.6029 153.302 68.2303 156.036C62.8578 158.769 60.6499 165.344 63.3729 170.737C66.096 176.13 72.6461 178.346 78.0187 175.613Z" fill="black"/>
<path d="M144.256 79.6486C138.662 88.292 141.017 99.8165 149.628 105.431C158.239 111.046 169.72 108.682 175.314 100.038C180.907 91.3947 178.552 79.8702 169.941 74.2557C166.923 72.261 163.391 71.2268 159.785 71.2268C153.529 71.2268 147.715 74.4034 144.256 79.6486Z" fill="black"/>
<path d="M176.565 157.661C171.928 148.427 160.741 144.733 151.615 149.387C142.416 154.041 138.736 165.27 143.373 174.431C148.009 183.665 159.196 187.359 168.322 182.705C177.448 178.124 181.201 167.043 176.638 157.809C176.638 157.735 176.638 157.735 176.565 157.661Z" fill="black"/>
<path d="M209.021 156.331C203.943 153.007 197.172 154.41 193.933 159.508C190.622 164.605 192.02 171.402 197.098 174.652C202.176 177.977 208.947 176.573 212.185 171.476C215.497 166.452 214.099 159.656 209.021 156.331Z" fill="black"/>
<path d="M244.642 128.332C244.936 123.161 241.035 118.803 235.884 118.507C230.732 118.211 226.39 122.127 226.095 127.298C225.801 132.469 229.702 136.828 234.853 137.124C239.931 137.419 244.347 133.43 244.642 128.332Z" fill="black"/>
<path d="M270.327 121.684C267.015 121.462 264.145 124.048 263.998 127.372C263.85 130.696 266.353 133.578 269.664 133.725C272.976 133.947 275.773 131.361 275.994 128.037C276.141 124.713 273.639 121.905 270.327 121.684Z" fill="black"/>
<path d="M246.114 181.523C242.581 179.233 237.871 180.193 235.516 183.739C233.234 187.285 234.191 192.013 237.724 194.377C241.256 196.667 245.966 195.707 248.321 192.161C250.677 188.615 249.646 183.813 246.114 181.523Z" fill="black"/>
<path d="M75.5164 237.816C72.7197 235.969 69.0399 236.781 67.2 239.515C65.36 242.322 66.1696 246.016 68.8927 247.863C71.6894 249.71 75.3692 248.897 77.2091 246.164C79.1226 243.43 78.3131 239.663 75.5164 237.816Z" fill="black"/>
<path d="M201.514 237.225C198.57 238.702 197.393 242.396 198.864 245.351C200.336 248.306 204.016 249.488 206.96 248.011C209.904 246.533 211.082 242.913 209.61 239.958C208.138 236.929 204.531 235.673 201.514 237.225Z" fill="black"/>
<path d="M131.744 176.351C137.338 167.708 134.983 156.183 126.372 150.495C117.761 144.881 106.28 147.245 100.613 155.888C94.9459 164.531 97.3746 176.056 105.985 181.744C109.003 183.739 112.536 184.773 116.142 184.773C122.471 184.847 128.285 181.67 131.744 176.351Z" fill="black"/>
<path d="M94.5779 204.941C90.3093 202.134 84.4952 203.316 81.6985 207.601C78.9018 211.885 80.0794 217.722 84.348 220.529C88.6166 223.336 94.4308 222.154 97.2274 217.869C100.098 213.585 98.9201 207.748 94.5779 204.941Z" fill="black"/>
<path d="M137.926 240.623C133.731 240.401 130.125 243.652 129.831 247.863C129.536 252.074 132.848 255.694 137.043 255.989C141.238 256.211 144.844 253.034 145.139 248.823C145.36 244.538 142.121 240.919 137.926 240.623Z" fill="black"/>
<path d="M138 192.382C131.965 192.013 126.813 196.667 126.519 202.725C126.151 208.783 130.788 213.954 136.822 214.25C142.857 214.545 148.009 209.965 148.304 203.907C148.672 197.923 144.035 192.678 138 192.382Z" fill="black"/>
<path d="M182.673 204.202C178.11 206.566 176.27 212.181 178.625 216.761C180.98 221.342 186.574 223.188 191.137 220.824C195.7 218.534 197.54 212.92 195.258 208.339C192.903 203.759 187.31 201.838 182.673 204.202Z" fill="black"/>
</svg>
