<svg xmlns="http://www.w3.org/2000/svg" fill="none" viewBox="0 0 276 256"><path fill="#000" d="M75.664 127.077c-.59 10.268 7.286 19.059 17.516 19.65h1.104c10.303 0 18.62-8.348 18.546-18.69 0-10.343-8.316-18.691-18.62-18.617-9.862 0-18.031 7.757-18.546 17.657m-69.329-4.802c-3.311-.222-6.182 2.364-6.329 5.688s2.355 6.206 5.667 6.353c3.312.222 6.109-2.364 6.33-5.688.22-3.324-2.356-6.132-5.668-6.353m68.151-103.5c2.944-1.477 4.121-5.171 2.65-8.126s-5.152-4.137-8.096-2.66c-2.944 1.478-4.122 5.098-2.65 8.053 1.472 3.029 5.079 4.285 8.096 2.733m18.841 33.023c4.563-2.29 6.403-7.905 4.121-12.485s-7.875-6.428-12.438-4.137c-4.563 2.29-6.403 7.904-4.121 12.484s7.875 6.428 12.438 4.138M29.886 74.477a7.68 7.68 0 0 0 10.598-2.216 7.744 7.744 0 0 0-2.208-10.638 7.68 7.68 0 0 0-10.598 2.216c-2.355 3.546-1.324 8.348 2.208 10.638m11.261 44.473c-5.152-.295-9.494 3.62-9.789 8.791a9.27 9.27 0 0 0 8.758 9.826c5.152.295 9.494-3.62 9.789-8.791.294-5.098-3.607-9.53-8.758-9.826m-10.23 62.573a7.72 7.72 0 0 0-3.386 10.342 7.663 7.663 0 0 0 10.304 3.398 7.72 7.72 0 0 0 3.385-10.342c-1.913-3.768-6.55-5.319-10.303-3.398M66.98 99.669c5.077 3.324 11.848 1.921 15.087-3.177 3.311-5.097 1.913-11.894-3.165-15.144-5.078-3.325-11.85-1.921-15.087 3.176-3.312 5.024-1.914 11.82 3.164 15.145m114.443-48.61c4.269 2.807 10.083 1.625 12.879-2.66 2.797-4.285 1.62-10.12-2.649-12.928-4.269-2.807-10.083-1.625-12.879 2.66-2.871 4.358-1.693 10.12 2.649 12.928m18.988-32.875c2.797 1.847 6.477 1.034 8.316-1.773s1.031-6.5-1.766-8.348c-2.797-1.847-6.476-1.034-8.316 1.7-1.767 2.807-.957 6.574 1.766 8.421m-17.59 91.089c-10.23-.591-19.061 7.313-19.576 17.582-.589 10.269 7.286 19.134 17.516 19.651h1.03c10.23 0 18.546-8.348 18.546-18.691.074-9.825-7.654-18.025-17.516-18.542M99.435 98.339c3.165 6.279 9.568 10.269 16.633 10.269 10.23 0 18.547-8.348 18.547-18.69a18.9 18.9 0 0 0-1.988-8.422c-4.636-9.235-15.823-12.929-24.949-8.275-9.2 4.728-12.88 15.957-8.243 25.118m145.648-23.862c3.754-1.92 5.226-6.575 3.312-10.342-1.913-3.768-6.55-5.245-10.303-3.325-3.754 1.921-5.226 6.501-3.386 10.269 1.987 3.768 6.55 5.32 10.377 3.398m-47.102 5.91c-5.372 2.734-7.58 9.309-4.857 14.701s9.273 7.61 14.646 4.876c5.372-2.733 7.58-9.308 4.857-14.7-2.723-5.394-9.273-7.536-14.646-4.877m-60.717-65.01c4.195.222 7.801-3.029 8.096-7.24.294-4.21-3.018-7.83-7.213-8.126a7.705 7.705 0 0 0-8.095 7.166c-.221 4.285 3.017 7.905 7.212 8.2m-.074 48.241c6.035.369 11.187-4.285 11.482-10.343.368-6.058-4.269-11.229-10.304-11.524-6.035-.37-11.187 4.284-11.481 10.342s4.268 11.23 10.303 11.525M78.019 175.613c5.372-2.734 7.58-9.309 4.857-14.702-2.723-5.392-9.273-7.609-14.646-4.875-5.372 2.733-7.58 9.308-4.857 14.701s9.273 7.609 14.646 4.876m66.237-95.964c-5.594 8.643-3.239 20.168 5.372 25.782s20.092 3.251 25.686-5.393c5.593-8.643 3.238-20.168-5.373-25.782a18.4 18.4 0 0 0-10.156-3.03c-6.256 0-12.07 3.177-15.529 8.423m32.309 78.012c-4.637-9.234-15.824-12.928-24.95-8.274-9.199 4.654-12.879 15.883-8.242 25.044 4.636 9.234 15.823 12.928 24.949 8.274 9.126-4.581 12.879-15.662 8.316-24.896 0-.074 0-.074-.073-.148m32.456-1.33c-5.078-3.324-11.849-1.921-15.088 3.177-3.311 5.097-1.913 11.894 3.165 15.144 5.078 3.325 11.849 1.921 15.087-3.176 3.312-5.024 1.914-11.82-3.164-15.145m35.621-27.999a9.27 9.27 0 0 0-8.758-9.825c-5.152-.296-9.494 3.62-9.789 8.791a9.27 9.27 0 0 0 8.758 9.826c5.078.295 9.494-3.694 9.789-8.792m25.685-6.648c-3.312-.222-6.182 2.364-6.329 5.688-.148 3.324 2.355 6.206 5.666 6.353 3.312.222 6.109-2.364 6.33-5.688a6.07 6.07 0 0 0-5.667-6.353m-24.213 59.839a7.68 7.68 0 0 0-10.598 2.216 7.744 7.744 0 0 0 2.208 10.638 7.68 7.68 0 0 0 10.597-2.216c2.356-3.546 1.325-8.348-2.207-10.638M75.516 237.816c-2.796-1.847-6.476-1.035-8.316 1.699-1.84 2.807-1.03 6.501 1.693 8.348 2.796 1.847 6.476 1.034 8.316-1.699 1.914-2.734 1.104-6.501-1.693-8.348m125.998-.591c-2.944 1.477-4.121 5.171-2.65 8.126s5.152 4.137 8.096 2.66c2.944-1.478 4.122-5.098 2.65-8.053-1.472-3.029-5.079-4.285-8.096-2.733m-69.77-60.874c5.594-8.643 3.239-20.168-5.372-25.856a18.59 18.59 0 0 0-25.759 5.393c-5.667 8.643-3.238 20.168 5.372 25.856a18.4 18.4 0 0 0 10.157 3.029c6.329.074 12.143-3.103 15.602-8.422m-37.166 28.59c-4.269-2.807-10.083-1.625-12.88 2.66-2.796 4.284-1.619 10.121 2.65 12.928s10.083 1.625 12.88-2.66c2.87-4.284 1.692-10.121-2.65-12.928m43.348 35.682c-4.195-.222-7.801 3.029-8.095 7.24s3.017 7.831 7.212 8.126a7.707 7.707 0 0 0 8.096-7.166c.221-4.285-3.018-7.904-7.213-8.2m.074-48.241c-6.035-.369-11.187 4.285-11.481 10.343-.368 6.058 4.269 11.229 10.303 11.525 6.035.295 11.187-4.285 11.482-10.343.368-5.984-4.269-11.229-10.304-11.525m44.673 11.82c-4.563 2.364-6.403 7.979-4.048 12.559 2.355 4.581 7.949 6.427 12.512 4.063 4.563-2.29 6.403-7.904 4.121-12.485-2.355-4.58-7.948-6.501-12.585-4.137"/></svg>
