<svg xmlns="http://www.w3.org/2000/svg" fill="none" viewBox="0 0 512 512"><path fill="#4176FF" d="M256 512c141.385 0 256-114.615 256-256S397.385 0 256 0 0 114.615 0 256s114.615 256 256 256"/><path fill="#fff" d="M169.321 254.717c-.819 14.267 10.131 26.481 24.356 27.302h1.535c14.327 0 25.891-11.598 25.789-25.968 0-14.369-11.564-25.968-25.891-25.865-13.714 0-25.073 10.777-25.789 24.531m-96.401-6.672c-4.606-.308-8.597 3.285-8.802 7.904-.204 4.618 3.275 8.621 7.88 8.827 4.605.308 8.494-3.285 8.801-7.904s-3.275-8.519-7.88-8.827m94.764-143.798c4.094-2.053 5.731-7.185 3.684-11.29-2.046-4.106-7.163-5.748-11.257-3.695-4.093 2.052-5.731 7.082-3.684 11.187 2.047 4.209 7.061 5.953 11.257 3.798m26.199 45.88c6.344-3.182 8.903-10.983 5.73-17.346-3.172-6.364-10.95-8.93-17.295-5.748-6.344 3.182-8.903 10.982-5.73 17.346s10.95 8.93 17.295 5.748m-88.215 31.51a10.684 10.684 0 0 0 14.737-3.079 10.755 10.755 0 0 0-3.07-14.78 10.685 10.685 0 0 0-14.737 3.079c-3.275 4.927-1.842 11.599 3.07 14.78m15.658 61.79c-7.164-.411-13.202 5.029-13.611 12.214a12.884 12.884 0 0 0 12.178 13.651c7.164.41 13.201-5.03 13.611-12.214.409-7.082-5.015-13.241-12.178-13.651M107.1 330.363a10.72 10.72 0 0 0-4.708 14.369 10.66 10.66 0 0 0 14.328 4.722 10.72 10.72 0 0 0 4.707-14.37c-2.661-5.235-9.108-7.39-14.327-4.721m50.145-113.725c7.061 4.618 16.476 2.668 20.979-4.414 4.605-7.082 2.661-16.525-4.401-21.041-7.061-4.619-16.476-2.669-20.979 4.413-4.605 6.98-2.66 16.423 4.401 21.042m159.134-67.537c5.935 3.9 14.02 2.258 17.909-3.695 3.889-5.954 2.251-14.062-3.684-17.962s-14.021-2.259-17.909 3.695c-3.991 6.055-2.354 14.061 3.684 17.962m26.403-45.675c3.888 2.566 9.005 1.437 11.564-2.464s1.432-9.032-2.456-11.598-9.006-1.437-11.564 2.36c-2.456 3.901-1.331 9.136 2.456 11.702m-24.459 126.555c-14.225-.821-26.505 10.161-27.221 24.428-.819 14.267 10.131 26.584 24.356 27.302h1.432c14.225 0 25.789-11.598 25.789-25.968.103-13.651-10.643-25.044-24.356-25.762M202.375 214.79c4.401 8.724 13.304 14.267 23.129 14.267 14.224 0 25.789-11.598 25.789-25.968 0-4.003-.922-8.006-2.764-11.701-6.447-12.83-22.002-17.962-34.692-11.495-12.792 6.568-17.909 22.17-11.462 34.897M404.9 181.637c5.219-2.668 7.266-9.135 4.605-14.369-2.66-5.235-9.108-7.288-14.327-4.619s-7.266 9.032-4.707 14.267c2.763 5.235 9.108 7.39 14.429 4.721m-65.495 8.212c-7.471 3.797-10.541 12.932-6.755 20.425s12.895 10.572 20.365 6.774c7.471-3.798 10.541-12.932 6.755-20.425s-12.895-10.469-20.365-6.774m-84.428-90.323c5.833.307 10.847-4.209 11.257-10.06.409-5.85-4.196-10.879-10.029-11.29a10.71 10.71 0 0 0-11.257 9.956c-.307 5.954 4.195 10.983 10.029 11.393m-.103 67.024c8.392.514 15.556-5.953 15.965-14.369.512-8.417-5.936-15.602-14.327-16.012-8.392-.513-15.556 5.953-15.965 14.37s5.936 15.601 14.327 16.011m-82.279 155.602c7.471-3.797 10.541-12.932 6.755-20.425s-12.895-10.572-20.365-6.774c-7.471 3.797-10.541 12.932-6.755 20.425s12.895 10.572 20.365 6.774m92.104-133.329c-7.778 12.009-4.503 28.021 7.47 35.822 11.974 7.8 27.938 4.516 35.716-7.493 7.777-12.009 4.503-28.021-7.471-35.822-4.196-2.771-9.108-4.208-14.122-4.208-8.699 0-16.784 4.414-21.593 11.701m44.926 108.388c-6.448-12.83-22.003-17.962-34.693-11.496-12.792 6.467-17.909 22.068-11.461 34.795 6.447 12.83 22.002 17.962 34.692 11.496 12.69-6.364 17.909-21.76 11.564-34.59 0-.102 0-.102-.102-.205m45.13-1.848c-7.061-4.618-16.476-2.668-20.979 4.414-4.605 7.082-2.661 16.525 4.4 21.041 7.062 4.619 16.477 2.669 20.98-4.413 4.605-6.98 2.66-16.423-4.401-21.042m49.531-38.9a12.883 12.883 0 0 0-12.178-13.651c-7.164-.411-13.201 5.029-13.611 12.214a12.885 12.885 0 0 0 12.178 13.651c7.062.411 13.202-5.132 13.611-12.214m35.716-9.238c-4.605-.308-8.597 3.285-8.801 7.904s3.274 8.621 7.88 8.827c4.605.308 8.494-3.285 8.801-7.904a8.44 8.44 0 0 0-7.88-8.827m-33.669 83.139a10.684 10.684 0 0 0-14.737 3.079 10.755 10.755 0 0 0 3.07 14.78 10.685 10.685 0 0 0 14.737-3.079c3.275-4.927 1.842-11.599-3.07-14.78m-237.217 78.211c-3.889-2.566-9.006-1.437-11.564 2.361-2.558 3.9-1.433 9.032 2.354 11.598 3.888 2.566 9.005 1.437 11.564-2.36 2.661-3.798 1.535-9.033-2.354-11.599m175.201-.821c-4.094 2.053-5.731 7.185-3.684 11.29 2.046 4.106 7.163 5.748 11.257 3.695 4.093-2.052 5.73-7.082 3.684-11.187-2.047-4.209-7.061-5.953-11.257-3.798m-97.016-84.575c7.778-12.009 4.503-28.021-7.47-35.924-11.974-7.801-27.938-4.516-35.818 7.493-7.88 12.008-4.503 28.02 7.47 35.924 4.196 2.771 9.108 4.208 14.123 4.208 8.801.102 16.886-4.311 21.695-11.701m-51.68 39.721c-5.935-3.9-14.02-2.258-17.909 3.695-3.889 5.954-2.251 14.062 3.684 17.962s14.021 2.259 17.909-3.695c3.992-5.953 2.354-14.061-3.684-17.962m60.277 49.575c-5.834-.307-10.848 4.209-11.257 10.059-.41 5.851 4.195 10.88 10.029 11.291a10.714 10.714 0 0 0 11.257-9.957c.307-5.953-4.196-10.982-10.029-11.393m.102-67.023c-8.392-.514-15.555 5.953-15.965 14.369-.511 8.417 5.936 15.602 14.328 16.012s15.555-5.953 15.964-14.37c.512-8.313-5.935-15.601-14.327-16.011m62.118 16.422c-6.344 3.284-8.903 11.085-5.628 17.449 3.275 6.363 11.052 8.929 17.397 5.645 6.345-3.182 8.904-10.982 5.731-17.346-3.275-6.364-11.052-9.032-17.5-5.748"/></svg>