<svg xmlns="http://www.w3.org/2000/svg" fill="none" viewBox="0 0 512 512"><path fill="#FCFF52" d="M256 512c141.385 0 256-114.615 256-256S397.385 0 256 0 0 114.615 0 256s114.615 256 256 256"/><path fill="#000" d="M122.196 113h267.608c5.079 0 9.196 4.118 9.196 9.199v83.43c0 5.08-4.117 9.199-9.196 9.199h-31.439c-3.651 0-6.926-2.18-8.576-5.438-17.444-34.448-52.744-58.203-93.589-58.203-58.1 0-105.152 47.216-105.152 105.112 0 57.897 47.052 105.52 105.152 105.52 40.048 0 75.295-22.986 92.741-56.634 1.669-3.219 4.923-5.368 8.548-5.368h32.309c5.079 0 9.196 4.118 9.196 9.199v81.785c0 5.081-4.117 9.199-9.196 9.199H122.196c-5.079 0-9.196-4.118-9.196-9.199V122.199c0-5.081 4.117-9.199 9.196-9.199"/></svg>