<svg xmlns="http://www.w3.org/2000/svg" fill="none" viewBox="0 0 256 256"><path fill="#FCFF52" d="M128 256c70.692 0 128-57.308 128-128S198.692 0 128 0 0 57.308 0 128s57.308 128 128 128"/><path fill="#000" d="M61.098 56.5h133.804a4.6 4.6 0 0 1 4.598 4.6v41.714c0 2.541-2.059 4.6-4.598 4.6h-15.719c-1.826 0-3.463-1.09-4.288-2.719-8.723-17.224-26.372-29.102-46.795-29.102-29.05 0-52.576 23.608-52.576 52.556 0 28.949 23.526 52.761 52.576 52.761 20.024 0 37.647-11.494 46.37-28.318.835-1.609 2.462-2.683 4.275-2.683h16.154a4.6 4.6 0 0 1 4.598 4.599v40.893a4.6 4.6 0 0 1-4.598 4.599h-133.8a4.6 4.6 0 0 1-4.599-4.599V61.099a4.6 4.6 0 0 1 4.598-4.599"/></svg>
