<svg xmlns="http://www.w3.org/2000/svg" fill="none" viewBox="0 0 256 256"><path fill="#000" d="M8.203 0h238.702a8.204 8.204 0 0 1 8.203 8.205v74.419a8.204 8.204 0 0 1-8.203 8.205h-28.043c-3.257 0-6.177-1.944-7.649-4.85-15.56-30.728-47.047-51.917-83.481-51.917-51.824 0-93.794 42.116-93.794 93.759s41.97 94.122 93.794 94.122c35.723 0 67.162-20.503 82.724-50.517 1.488-2.871 4.392-4.788 7.625-4.788H246.9a8.205 8.205 0 0 1 8.203 8.205v72.952A8.205 8.205 0 0 1 246.9 256H8.203A8.204 8.204 0 0 1 0 247.795V8.205A8.204 8.204 0 0 1 8.203 0"/></svg>