<svg xmlns="http://www.w3.org/2000/svg" fill="none" viewBox="0 0 255 256"><path fill="#000" d="M8.2 0h238.6c4.529 0 8.2 3.674 8.2 8.205v74.419c0 4.531-3.671 8.205-8.199 8.205H218.77c-3.256 0-6.175-1.944-7.647-4.85-15.553-30.728-47.027-51.917-83.445-51.917-51.802 0-93.754 42.116-93.754 93.759s41.952 94.122 93.754 94.122c35.708 0 67.134-20.503 82.689-50.517 1.488-2.871 4.39-4.788 7.622-4.788h28.807c4.528 0 8.199 3.674 8.199 8.205v72.952c0 4.531-3.671 8.205-8.199 8.205H8.199C3.671 256 0 252.326 0 247.795V8.205C0 3.674 3.671 0 8.2 0"/></svg>
