<svg xmlns="http://www.w3.org/2000/svg" fill="none" viewBox="0 0 256 256"><path fill="#FF1256" d="M128 256c70.692 0 128-57.308 128-128S198.692 0 128 0 0 57.308 0 128s57.308 128 128 128"/><path fill="#fff" d="m89.839 69.175 28.945-17.87c2.547-1.438 2.547-4.42.71-6.24l-24.178-23.38a1.224 1.224 0 0 0-1.716 0l-2.288 2.304a7.506 7.506 0 0 0 .035 10.625l9.446 8.718c1.612 1.595 1.3 4.264-.624 5.46l-11.284 6.916c-3.518 2.166-4.61 6.794-2.426 10.312l1.698 2.756c.347.572 1.11.746 1.682.399m27.946 95.847a32.18 32.18 0 0 0-7.541-28.893l-18.285-20.73c-10.174-11.543-7.661-29.43 5.304-37.715l29.916-19.117a5.06 5.06 0 0 1 6.135.537c10.937 10.088 49.016 46.451 47.317 84.01 0 0 .052 58.323-57.387 80.145-8.441 3.206-16.986-4.507-14.767-13.259 7.938-31.441 9.325-44.995 9.325-44.995zm7.486-89.799a15016 15016 0 0 0-20.989 13.311c-5.06 3.207-6.084 10.157-2.166 14.698l19.117 22.099a49.59 49.59 0 0 1 11.63 44.561l-3.206 14.057c-1.387 6.101 5.806 10.365 10.555 6.274 20.14-17.384 48.375-59.172-10.52-114.567a3.63 3.63 0 0 0-4.421-.416z"/></svg>