<svg xmlns="http://www.w3.org/2000/svg" fill="none" viewBox="0 0 512 512"><path fill="#000" d="M256 512c141.385 0 256-114.615 256-256S397.385 0 256 0 0 114.615 0 256s114.615 256 256 256"/><path fill="#FF9211" fill-rule="evenodd" d="m255.948 105.348-130.196 75.35v150.599l130.196 75.247 130.403-75.351V180.698zm5.58-37.882a10.96 10.96 0 0 0-10.953 0L95.58 156.958a10.94 10.94 0 0 0-5.58 9.496v179.087c0 3.819 2.067 7.432 5.477 9.393l154.995 89.595a11.12 11.12 0 0 0 11.056 0l154.995-89.595c3.41-1.961 5.477-5.574 5.477-9.393V166.454a10.92 10.92 0 0 0-5.477-9.496z" clip-rule="evenodd"/><path fill="#FF9211" d="m255.948 159.951-83.077 47.998v95.994l82.664 47.791c.31.207.517.516.517.929v16.515a1.03 1.03 0 0 1-1.126 1.028 1.03 1.03 0 0 1-.528-.202l-93.823-54.087a8.25 8.25 0 0 1-4.134-7.122V203.2a8.25 8.25 0 0 1 4.134-7.122l91.24-52.539a8.27 8.27 0 0 1 8.267 0l94.133 54.087a1.04 1.04 0 0 1 .711.981 1.035 1.035 0 0 1-.711.981c-5.476 3.303-8.369 4.748-14.569 8.257a1.03 1.03 0 0 1-1.033 0l-82.665-47.791z"/><path fill="#FF9211" d="M269.691 258.01c0-.413.207-.825.62-1.032l82.664-43.972a1.038 1.038 0 0 1 1.599.409c.082.197.102.415.055.623v107.04c0 .413-.207.722-.62 1.032l-82.664 47.894a1.04 1.04 0 0 1-1.133.078 1.03 1.03 0 0 1-.521-1.007z"/></svg>