<svg xmlns="http://www.w3.org/2000/svg" fill="none" viewBox="0 0 224 256"><path fill="#000" fill-rule="evenodd" d="M111.965 26.508 24.122 77.27v101.455l87.843 50.693 87.983-50.762V77.27zM115.73.988a7.41 7.41 0 0 0-7.39 0L3.765 61.277a7.4 7.4 0 0 0-2.748 2.692A7.36 7.36 0 0 0 0 67.674v120.648c0 2.573 1.394 5.007 3.695 6.328l104.575 60.359a7.52 7.52 0 0 0 7.46 0l104.575-60.359c2.301-1.321 3.695-3.755 3.695-6.328V67.674a7.35 7.35 0 0 0-3.695-6.397z" clip-rule="evenodd"/><path fill="#000" d="M111.965 63.293 55.913 95.63v64.67l55.773 32.196a.73.73 0 0 1 .349.625v11.127a.693.693 0 0 1-.76.692.7.7 0 0 1-.356-.136l-63.302-36.438a5.6 5.6 0 0 1-2.037-2.028 5.55 5.55 0 0 1-.752-2.77V92.43a5.55 5.55 0 0 1 2.789-4.798l61.559-35.395a5.59 5.59 0 0 1 5.578 0l63.512 36.438a.7.7 0 0 1 .479.66.695.695 0 0 1-.479.66c-3.695 2.226-5.647 3.2-9.83 5.564a.7.7 0 0 1-.697 0l-55.774-32.196z"/><path fill="#000" d="M121.237 129.354c0-.278.14-.556.419-.695l55.773-29.623a.7.7 0 0 1 1.116.695v72.111c0 .278-.14.487-.419.695l-55.773 32.266a.7.7 0 0 1-.764.052.69.69 0 0 1-.352-.678z"/></svg>
