<svg xmlns="http://www.w3.org/2000/svg" fill="none" viewBox="0 0 224 256"><path fill="#000" fill-rule="evenodd" d="M111.797 26.508 24.086 77.27v101.455l87.711 50.693 87.85-50.762V77.27zm3.759-25.52a7.39 7.39 0 0 0-7.379 0L3.759 61.277A7.38 7.38 0 0 0 0 67.674v120.648c0 2.573 1.392 5.007 3.69 6.328l104.417 60.359a7.5 7.5 0 0 0 7.449 0l104.418-60.359c2.297-1.321 3.689-3.755 3.689-6.328V67.674a7.36 7.36 0 0 0-3.689-6.397z" clip-rule="evenodd"/><path fill="#000" d="M111.797 63.293 55.829 95.63v64.67l55.689 32.196a.73.73 0 0 1 .348.625v11.127a.693.693 0 0 1-.758.692.7.7 0 0 1-.355-.136l-63.208-36.438a5.57 5.57 0 0 1-2.785-4.798V92.43a5.56 5.56 0 0 1 2.785-4.798l61.467-35.395a5.58 5.58 0 0 1 5.569 0l63.417 36.438a.696.696 0 0 1 0 1.32c-3.69 2.226-5.639 3.2-9.816 5.564a.69.69 0 0 1-.696 0l-55.689-32.196z"/><path fill="#000" d="M121.055 129.354c0-.278.139-.556.418-.695l55.689-29.623a.7.7 0 0 1 1.077.275c.056.133.069.28.037.42v72.111c0 .278-.139.487-.418.695l-55.689 32.266a.695.695 0 0 1-1.04-.234.7.7 0 0 1-.074-.392z"/></svg>