<svg xmlns="http://www.w3.org/2000/svg" fill="none" viewBox="0 0 256 256"><path fill="#fff" d="m126.536 97.498 22.014 7.207c5.334 1.762 8.244 7.463 6.465 12.748s-7.532 8.168-12.866 6.406l-22.014-7.207c-5.334-1.761-8.243-7.463-6.465-12.748s7.532-8.167 12.866-6.406m11.153-25.273 17.069 5.606c5.333 1.762 8.242 7.463 6.465 12.748s-7.532 8.167-12.866 6.406l-17.069-5.606c-5.334-1.761-8.243-7.462-6.465-12.748s7.532-8.167 12.866-6.406m13.641-24.437 7.21 2.37c5.333 1.761 8.242 7.463 6.465 12.748s-7.532 8.167-12.866 6.406l-7.209-2.37c-5.334-1.762-8.243-7.463-6.465-12.748 1.777-5.285 7.531-8.168 12.865-6.406m8.276-24.888 7.209 2.37c5.334 1.762 8.243 7.463 6.466 12.748-1.779 5.285-7.533 8.168-12.867 6.406l-7.208-2.37c-5.334-1.761-8.244-7.463-6.466-12.748s7.532-8.167 12.866-6.406m10.312 88.69-9.665-3.17a7 7 0 0 0-1.1-.289c4.656 2.114 4.591 6.598 2.942 11.531-1.648 4.932-4.299 8.552-9.277 7.527.355.16.711.288 1.067.416l9.665 3.171c5.334 1.762 11.121-1.121 12.866-6.406 1.778-5.285-1.132-11.018-6.465-12.748zm6.562-26.777-9.665-3.171a7 7 0 0 0-1.1-.289c4.655 2.115 4.591 6.599 2.942 11.531-1.648 4.933-4.299 8.552-9.277 7.527.352.159.706.287 1.058.414l.008.003 9.666 3.17c5.334 1.762 11.121-1.12 12.866-6.406 1.778-5.284-1.131-11.018-6.465-12.747zm2.554-28.056-9.665-3.17a7 7 0 0 0-1.099-.289c4.655 2.114 4.59 6.598 2.942 11.53-1.65 4.933-4.3 8.552-9.279 7.528.356.16.712.288 1.067.416l9.666 3.17c5.334 1.762 11.121-1.12 12.866-6.405 1.778-5.285-1.131-11.019-6.465-12.748z"/><path fill="#fff" d="m124.985 60.31 9.665 3.17c.356.13.744.225 1.099.289-4.655-2.114-4.59-6.599-2.941-11.53 1.648-4.934 4.299-8.553 9.277-7.528a14 14 0 0 0-1.054-.412l-.013-.004-9.665-3.171c-5.334-1.762-11.121 1.12-12.866 6.406-1.778 5.285 1.132 11.018 6.465 12.748zm-14.062 24.343 9.665 3.17c.356.13.744.225 1.099.289-4.655-2.114-4.59-6.598-2.941-11.53 1.648-4.933 4.299-8.552 9.277-7.528a14 14 0 0 0-1.054-.412l-.013-.004-9.665-3.171c-5.334-1.761-11.121 1.12-12.866 6.406-1.778 5.285 1.131 11.018 6.465 12.748zm37.66 100.991c6.045-32.445 24.245-16.655 24.245-16.655s3.589-9.734-4.573-14.522c-1.637-.96-3.745-1.721-6.451-2.165-2.749-.452-5.976-.248-9.47.457-17.086 3.442-40.559 18.838-45.872 27.985 0 0 11.47-72.546-35.56-79.269 2.23.439 8.703 25.682 3.62 38.335-1.93 4.813-4.514 8.725-6.959 12.425-8.57 12.972-15.424 23.346 13.651 60.827h.013l.02-.032v.032h-.02c-.517.846-10.808 18.257 13.823 24.663 20.985 5.458 26.94-5.149 27.535-14.771-7.917-.615-16.387-2.975-20.874-9.557l-.034-.017v-.032l.034.049c.551.276 7.867 3.79 22.281 3.586 5.014-1.391 20.162-7.51 24.591-31.339"/><path fill="#fff" fill-rule="evenodd" d="m148.55 104.705-22.014-7.207c-5.334-1.761-11.088 1.121-12.866 6.406s1.131 10.987 6.465 12.748l22.014 7.207c5.334 1.762 11.088-1.121 12.866-6.406s-1.131-10.986-6.465-12.748m-8.728 26.041-22.014-7.207a10.18 10.18 0 0 0-7.046.234c2.587 6.528 3.958 13.514 4.587 20.21l18.861 6.142c3.672-1.619 7.273-2.959 10.706-3.953a10.1 10.1 0 0 0 1.372-2.679c1.777-5.285-1.132-10.986-6.466-12.747m14.936-52.915-17.069-5.606c-5.334-1.76-11.088 1.121-12.866 6.406s1.131 10.987 6.465 12.748l17.069 5.606c5.334 1.761 11.088-1.121 12.866-6.406 1.777-5.285-1.132-10.986-6.465-12.748m3.782-27.673-7.21-2.37c-5.334-1.762-11.088 1.12-12.865 6.406-1.778 5.284 1.131 10.986 6.465 12.748l7.209 2.37c5.334 1.761 11.088-1.121 12.866-6.406 1.777-5.285-1.132-10.986-6.465-12.748m8.275-24.888-7.209-2.37c-5.334-1.761-11.088 1.121-12.866 6.406s1.132 10.987 6.466 12.748l7.208 2.37c5.334 1.762 11.088-1.12 12.867-6.406 1.777-5.285-1.132-10.986-6.466-12.748m-6.562 83.15 9.665 3.17.033.032c5.333 1.73 8.243 7.463 6.465 12.748-1.745 5.285-7.532 8.168-12.866 6.406l-9.665-3.171c-.356-.128-.712-.256-1.067-.416 4.978 1.025 7.629-2.595 9.277-7.527 1.649-4.933 1.714-9.417-2.942-11.531.356.064.744.16 1.1.289m-7.145 27.929 9.666 3.171.032.032a10.09 10.09 0 0 1 6.671 7.084c-1.72-.825-3.753-1.511-6.153-1.96-.589-.107-.244-.143-.025-.166.37-.039.382-.04-5.082-.282a28 28 0 0 0-2.409 0c.563-3.537-.233-6.547-3.799-8.167a7 7 0 0 1 1.099.288m13.707-54.707 9.665 3.171.033.032c5.334 1.73 8.243 7.463 6.465 12.747-1.745 5.286-7.532 8.168-12.866 6.406l-9.666-3.17-.008-.003a14 14 0 0 1-1.058-.414c4.978 1.025 7.629-2.594 9.277-7.527 1.649-4.933 1.713-9.416-2.942-11.53.356.064.744.16 1.1.288m2.554-28.056 9.665 3.171.033.032c5.334 1.73 8.243 7.463 6.465 12.748-1.745 5.285-7.532 8.167-12.866 6.405L163 72.773a15 15 0 0 1-1.067-.416c4.979 1.024 7.629-2.595 9.279-7.527 1.648-4.933 1.713-9.417-2.942-11.531.355.064.743.16 1.099.288m-34.719 9.895-9.665-3.171-.033-.032c-5.333-1.73-8.243-7.463-6.465-12.748 1.745-5.285 7.532-8.168 12.866-6.406l9.665 3.17.013.005c.352.127.703.254 1.054.412-4.978-1.025-7.629 2.594-9.277 7.527-1.649 4.932-1.714 9.417 2.941 11.53a7 7 0 0 1-1.099-.287m-14.062 24.343-9.665-3.171-.033-.032c-5.334-1.73-8.243-7.463-6.465-12.748 1.745-5.285 7.532-8.168 12.866-6.406l9.665 3.17.013.005c.352.127.703.254 1.054.412-4.978-1.024-7.629 2.594-9.277 7.527-1.649 4.933-1.714 9.417 2.941 11.53a7 7 0 0 1-1.099-.287m-10.927 25.27a7 7 0 0 1-1.099-.288l-5.061-1.66c-3.26-4.018-7.11-7.267-11.53-9.741a9.9 9.9 0 0 1 .428-4.55c1.746-5.285 7.532-8.168 12.866-6.406l9.666 3.171.027.01c.346.125.693.25 1.039.407-4.978-1.026-7.629 2.594-9.277 7.527-1.649 4.932-1.713 9.417 2.941 11.53m5.949 47.405.047-.82.037-.625v-.003c.125-2.104.297-4.998.303-6.72l8.333 2.72c-3.152 1.756-6.085 3.591-8.72 5.448" clip-rule="evenodd"/><path fill="#FF931E" fill-rule="evenodd" d="M128 256c70.692 0 128-57.308 128-128S198.692 0 128 0 0 57.308 0 128s57.308 128 128 128m20.55-151.295-22.014-7.207c-5.334-1.761-11.088 1.121-12.866 6.406s1.131 10.987 6.465 12.748l22.014 7.207c5.334 1.762 11.088-1.121 12.866-6.406s-1.131-10.986-6.465-12.748m-8.728 26.041-22.014-7.207a10.18 10.18 0 0 0-7.046.234c2.587 6.528 3.958 13.514 4.587 20.21l18.861 6.142c3.672-1.619 7.273-2.959 10.706-3.953a10.1 10.1 0 0 0 1.372-2.679c1.777-5.285-1.132-10.986-6.466-12.747m14.936-52.915-17.069-5.606c-5.334-1.76-11.088 1.121-12.866 6.406s1.131 10.987 6.465 12.748l17.069 5.606c5.334 1.761 11.088-1.121 12.866-6.406 1.777-5.285-1.132-10.986-6.465-12.748m3.782-27.673-7.21-2.37c-5.334-1.762-11.088 1.12-12.865 6.406-1.778 5.284 1.131 10.986 6.465 12.748l7.209 2.37c5.334 1.761 11.088-1.121 12.866-6.406 1.777-5.285-1.132-10.986-6.465-12.748m8.275-24.888-7.209-2.37c-5.334-1.761-11.088 1.121-12.866 6.406s1.132 10.987 6.466 12.748l7.208 2.37c5.334 1.762 11.088-1.12 12.867-6.406 1.777-5.285-1.132-10.986-6.466-12.748m-6.562 83.15 9.665 3.17.033.032c5.333 1.73 8.243 7.463 6.465 12.748-1.745 5.285-7.532 8.168-12.866 6.406l-9.665-3.171c-.356-.128-.712-.256-1.067-.416 4.978 1.025 7.629-2.595 9.277-7.527 1.649-4.933 1.714-9.417-2.942-11.531.356.064.744.16 1.1.289m-7.145 27.929 9.666 3.171.032.032a10.09 10.09 0 0 1 6.671 7.084c-1.72-.825-3.753-1.511-6.153-1.96-.589-.107-.244-.143-.025-.166.37-.039.382-.04-5.082-.282a28 28 0 0 0-2.409 0c.563-3.537-.233-6.547-3.799-8.167a7 7 0 0 1 1.099.288m13.707-54.707 9.665 3.171.033.032c5.334 1.73 8.243 7.463 6.465 12.747-1.745 5.286-7.532 8.168-12.866 6.406l-9.666-3.17-.008-.003a14 14 0 0 1-1.058-.414c4.978 1.025 7.629-2.594 9.277-7.527 1.649-4.933 1.713-9.416-2.942-11.53.356.064.744.16 1.1.288m2.554-28.056 9.665 3.171.033.032c5.334 1.73 8.243 7.463 6.465 12.748-1.745 5.285-7.532 8.167-12.866 6.405L163 72.773a15 15 0 0 1-1.067-.416c4.979 1.024 7.629-2.595 9.279-7.527 1.648-4.933 1.713-9.417-2.942-11.531.355.064.743.16 1.099.288m-34.719 9.895-9.665-3.171-.033-.032c-5.333-1.73-8.243-7.463-6.465-12.748 1.745-5.285 7.532-8.168 12.866-6.406l9.665 3.17.013.005c.352.127.703.254 1.054.412-4.978-1.025-7.629 2.594-9.277 7.527-1.649 4.932-1.714 9.417 2.941 11.53a7 7 0 0 1-1.099-.287m-14.062 24.343-9.665-3.171-.033-.032c-5.334-1.73-8.243-7.463-6.465-12.748 1.745-5.285 7.532-8.168 12.866-6.406l9.665 3.17.013.005c.352.127.703.254 1.054.412-4.978-1.024-7.629 2.594-9.277 7.527-1.649 4.933-1.714 9.417 2.941 11.53a7 7 0 0 1-1.099-.287m-10.927 25.27a7 7 0 0 1-1.099-.288l-5.061-1.66c-3.26-4.018-7.11-7.267-11.53-9.741a9.9 9.9 0 0 1 .428-4.55c1.746-5.285 7.532-8.168 12.866-6.406l9.666 3.171.027.01c.346.125.693.25 1.039.407-4.978-1.026-7.629 2.594-9.277 7.527-1.649 4.932-1.713 9.417 2.941 11.53m63.167 55.895s-18.2-15.79-24.245 16.655c-4.429 23.829-19.577 29.948-24.591 31.339-14.414.204-21.73-3.31-22.281-3.586 4.487 6.582 12.957 8.942 20.874 9.557-.595 9.622-6.55 20.229-27.535 14.771-24.63-6.406-14.34-23.817-13.823-24.663h-.013c-29.075-37.481-22.221-47.855-13.65-60.827 2.444-3.7 5.029-7.612 6.959-12.425 5.082-12.653-1.39-37.896-3.62-38.335l-.034-.004.014.001.02.003c47.029 6.723 35.559 79.269 35.559 79.269 5.313-9.147 28.786-24.543 45.872-27.985 3.494-.705 6.721-.909 9.47-.457 2.706.444 4.814 1.205 6.451 2.165 8.162 4.788 4.573 14.522 4.573 14.522m-48.498-13.938-8.333-2.72c-.006 1.722-.178 4.616-.303 6.72v.003l-.037.625-.047.82c2.635-1.857 5.568-3.692 8.72-5.448" clip-rule="evenodd"/></svg>