<svg xmlns="http://www.w3.org/2000/svg" fill="none" viewBox="0 0 256 256"><path fill="#002D74" d="M256 128a128 128 0 0 1-37.49 90.51 128.003 128.003 0 0 1-181.02 0A128.001 128.001 0 1 1 256 128"/><path fill="#fff" d="M128.29 32.256 40.96 80.272v96l87.33 47.984 87.262-47.984v-96zm61.408 129.791-61.408 33.76-61.442-33.76V94.465l61.442-33.76 61.408 33.76z"/><path fill="#fff" d="m128.29 224.256 87.262-47.984v-96L128.29 32.256v28.481l61.408 33.76v67.583l-61.408 33.727zm-.068-192L40.96 80.24v96l87.262 48.016v-28.481l-61.408-33.76V94.432l61.408-33.727z" style="mix-blend-mode:multiply"/><path fill="#fff" d="m169.014 150.687-40.758 22.399-40.792-22.399v-44.83l40.792-22.431 40.758 22.431-16.965 9.333-23.793-13.098-23.793 13.098v26.132l23.793 13.098 23.793-13.098z"/></svg>