<svg xmlns="http://www.w3.org/2000/svg" fill="none" viewBox="0 0 512 512"><path fill="#002D74" d="M512 256a256 256 0 0 1-74.981 181.019 255.997 255.997 0 0 1-362.038 0A256 256 0 1 1 512 256"/><path fill="#fff" d="M256.58 64.512 81.92 160.544v192l174.66 95.968 174.524-95.968v-192zm122.816 259.583L256.58 391.614l-122.884-67.519V188.929L256.58 121.41l122.816 67.519z"/><path fill="#fff" d="m256.58 448.512 174.524-95.968v-192L256.58 64.512v56.963l122.816 67.518v135.166L256.58 391.614zm-.136-384L81.92 160.48v192l174.524 96.032v-56.963l-122.816-67.518V188.865l122.816-67.455z" style="mix-blend-mode:multiply"/><path fill="#fff" d="m338.029 301.374-81.517 44.798-81.584-44.798v-89.66l81.584-44.862 81.517 44.862-33.932 18.666-47.585-26.197-47.585 26.197v52.264l47.585 26.197 47.585-26.197z"/></svg>