<svg width="256" height="256" viewBox="0 0 256 256" fill="none" xmlns="http://www.w3.org/2000/svg">
<path d="M256 128C256 161.948 242.514 194.505 218.51 218.51C194.505 242.514 161.948 256 128 256C94.0523 256 61.495 242.514 37.4903 218.51C13.4857 194.505 0 161.948 0 128C0 94.0523 13.4857 61.495 37.4903 37.4903C61.495 13.4857 94.0523 0 128 0C161.948 0 194.505 13.4857 218.51 37.4903C242.514 61.495 256 94.0523 256 128Z" fill="#002D74"/>
<path d="M128.29 32.256L40.96 80.2721V176.272L128.29 224.256L215.552 176.272V80.2721L128.29 32.256ZM189.698 162.047L128.29 195.807L66.848 162.047V94.4645L128.29 60.7052L189.698 94.4645V162.047Z" fill="white"/>
<path d="M128.29 224.256L215.552 176.272V80.2721L128.29 32.256L128.29 60.7374L189.698 94.4967V162.08L128.29 195.807V224.256Z" fill="white" style="mix-blend-mode:multiply"/>
<path d="M128.222 32.256L40.96 80.2399V176.24L128.222 224.256V195.775L66.8142 162.015V94.4323L128.222 60.7052V32.256Z" fill="white" style="mix-blend-mode:multiply"/>
<path d="M169.014 150.687L128.256 173.086L87.4638 150.687V105.857L128.256 83.426L169.014 105.857L152.049 115.19L128.256 102.092L104.463 115.19V141.322L128.256 154.42L152.049 141.322L169.014 150.687Z" fill="white"/>
</svg>
