<svg width="256" height="256" viewBox="0 0 256 256" fill="none" xmlns="http://www.w3.org/2000/svg">
<path d="M128 256C198.692 256 256 198.692 256 128C256 57.3075 198.692 0 128 0C57.3075 0 0 57.3075 0 128C0 198.692 57.3075 256 128 256Z" fill="black"/>
<path d="M163.946 50L55.5 205.487H88.7956L197.805 50H163.946Z" fill="white"/>
<path d="M92.2636 50L124.172 95.8169L107.524 120.808L58.2744 50H92.2636Z" fill="url(#paint0_linear_9177_785)"/>
<path d="M167.179 205.501L131.803 154.824L148.451 130.527L200.475 205.501H167.179Z" fill="url(#paint1_linear_9177_785)"/>
<defs>
<linearGradient id="paint0_linear_9177_785" x1="84.6334" y1="59.7187" x2="130.353" y2="114.87" gradientUnits="userSpaceOnUse">
<stop stop-color="white"/>
<stop offset="1" stop-color="white" stop-opacity="0.55"/>
</linearGradient>
<linearGradient id="paint1_linear_9177_785" x1="174.81" y1="193.699" x2="118.632" y2="118.025" gradientUnits="userSpaceOnUse">
<stop stop-color="#6966FF"/>
<stop offset="1" stop-color="#6966FF" stop-opacity="0.36"/>
</linearGradient>
</defs>
</svg>
