<svg xmlns="http://www.w3.org/2000/svg" fill="none" viewBox="0 0 512 512"><path fill="#E6E6E6" d="M512 256a256 256 0 0 1-74.981 181.019 255.997 255.997 0 0 1-362.038 0A256 256 0 1 1 512 256"/><path fill="#343434" d="m255.742 46.08-2.628 9.526V333.18l2.628 2.628 128.768-75.881z"/><path fill="#8C8C8C" d="M255.744 46.08 126.976 259.926l128.768 75.881z"/><path fill="#3C3C3B" d="m255.744 360.443-1.642 1.643v98.875l1.642 4.599 128.768-181.326z"/><path fill="#8C8C8C" d="M255.744 465.56V360.443l-128.768-76.209z"/><path fill="#141414" d="m255.744 335.807 128.768-75.88-128.768-58.8z"/><path fill="#393939" d="m126.976 259.926 128.768 75.881v-134.68z"/></svg>