<svg xmlns="http://www.w3.org/2000/svg" fill="none" viewBox="0 0 256 256"><path fill="#13B5EC" d="M128 256c70.692 0 128-57.308 128-128S198.692 0 128 0 0 57.308 0 128s57.308 128 128 128"/><path fill="#fff" fill-rule="evenodd" d="m139.264 99.839 33.408-19.478v38.956zm33.408 83.476-44.544 25.971-44.544-25.971v-45.448l44.544 25.97 44.544-25.97zM83.584 80.361l33.408 19.478-33.408 19.478zm50.112 28.753 33.408 19.478-33.408 19.478zM122.56 148.07l-33.408-19.478 33.408-19.478zm44.544-76.984-38.976 22.26-38.976-22.26 38.976-23.188zm-94.656-3.71V188.88l55.68 31.536 55.68-31.536V67.376l-55.68-31.536z" clip-rule="evenodd"/></svg>
