<svg width="256" height="256" viewBox="0 0 256 256" fill="none" xmlns="http://www.w3.org/2000/svg">
<path d="M128 256C198.692 256 256 198.692 256 128C256 57.3075 198.692 0 128 0C57.3075 0 0 57.3075 0 128C0 198.692 57.3075 256 128 256Z" fill="#E61E57"/>
<path d="M167.893 120.984L94.5871 120.931C74.6049 120.931 57.9797 136.74 57.4568 157.05C57.4417 157.596 57.8887 158.043 58.4343 158.043L131.74 158.088C151.722 158.096 168.348 142.295 168.87 121.977C168.886 121.431 168.439 120.984 167.893 120.984Z" fill="white"/>
<path d="M205.046 65.3279L94.5871 65.2749C74.6049 65.2749 57.9797 81.0836 57.4568 101.394C57.4417 101.94 57.8887 102.387 58.4343 102.387L168.893 102.432C188.875 102.44 205.501 86.6386 206.024 66.3207C206.039 65.7751 205.592 65.3279 205.046 65.3279Z" fill="white"/>
<path d="M83.1406 212.085C92.6172 208.159 97.1174 197.293 93.1921 187.815C89.2667 178.338 78.4023 173.837 68.9256 177.763C59.449 181.689 54.9488 192.554 58.8741 202.032C62.7995 211.51 73.664 216.01 83.1406 212.085Z" fill="white"/>
</svg>
