<svg xmlns="http://www.w3.org/2000/svg" fill="none" viewBox="0 0 256 256"><path fill="#E61E57" d="M128 256c70.692 0 128-57.308 128-128S198.692 0 128 0 0 57.308 0 128s57.308 128 128 128"/><path fill="#fff" d="m167.893 120.984-73.306-.053c-19.982 0-36.607 15.809-37.13 36.119a.974.974 0 0 0 .977.993l73.306.045c19.982.008 36.608-15.793 37.13-36.111a.97.97 0 0 0-.977-.993m37.153-55.656-110.459-.053c-19.982 0-36.607 15.809-37.13 36.119a.974.974 0 0 0 .977.993l110.459.045c19.982.008 36.608-15.793 37.131-36.111a.974.974 0 0 0-.978-.993M83.14 212.085c9.477-3.926 13.977-14.792 10.052-24.27s-14.79-13.978-24.266-10.052c-9.477 3.926-13.977 14.791-10.052 24.269s14.79 13.978 24.267 10.053"/></svg>