<svg xmlns="http://www.w3.org/2000/svg" fill="none" viewBox="0 0 256 256"><path fill="#000" d="M128 256c70.692 0 128-57.308 128-128S198.692 0 128 0 0 57.308 0 128s57.308 128 128 128"/><path fill="#fff" d="M194.736 84.516a35.6 35.6 0 0 0-8.845-14.641 35.65 35.65 0 0 0-14.657-8.834V36h-17.823v24.258a33.7 33.7 0 0 0-16.745 9.195L124.72 81.288a8.983 8.983 0 0 0 0 12.716 9.005 9.005 0 0 0 12.73 0l11.849-11.933c3.133-3.13 7.246-4.793 11.75-4.695 4.603 0 8.912 1.956 12.241 5.184 6.659 6.749 6.855 17.41.49 23.866l-25.069 25.041a16.96 16.96 0 0 1-18.565 3.304 16.9 16.9 0 0 1-5.426-3.793 8.96 8.96 0 0 0-6.351-2.599 8.97 8.97 0 0 0-8.263 5.561 8.95 8.95 0 0 0 1.981 9.754c6.953 6.847 16.06 10.368 25.069 10.368 8.813 0 17.626-3.326 24.187-9.977l25.069-24.943c4.7-4.793 7.834-10.564 9.107-16.726H220v-17.9z"/><path fill="#fff" d="m118.55 161.594-11.946 11.933a16.95 16.95 0 0 1-12.048 4.681 16.95 16.95 0 0 1-11.846-5.17 16.92 16.92 0 0 1-5.274-11.86 16.9 16.9 0 0 1 4.686-12.104l25.069-24.943a16.94 16.94 0 0 1 12.097-4.73 16.96 16.96 0 0 1 11.895 5.219 8.97 8.97 0 0 0 12.681-.049 8.953 8.953 0 0 0-.049-12.667 34.88 34.88 0 0 0-24.547-10.373 34.88 34.88 0 0 0-24.71 9.982L69.49 136.358c-4.7 4.793-7.736 10.564-9.107 16.726H36v17.9h25.167a35.6 35.6 0 0 0 8.844 14.641 35.64 35.64 0 0 0 14.657 8.834V219.5h17.823v-24.356a33.7 33.7 0 0 0 16.745-9.097l11.947-11.933a8.95 8.95 0 0 0-.049-12.667 8.977 8.977 0 0 0-12.682.049z"/></svg>
