<svg xmlns="http://www.w3.org/2000/svg" fill="none" viewBox="0 0 512 512"><path fill="#000" d="M256 512c141.385 0 256-114.615 256-256S397.385 0 256 0 0 114.615 0 256s114.615 256 256 256"/><path fill="#fff" d="M389.471 169.032a71.2 71.2 0 0 0-17.688-29.283 71.3 71.3 0 0 0-29.316-17.668V72h-35.644v48.516a67.4 67.4 0 0 0-33.49 18.389l-23.894 23.671a17.98 17.98 0 0 0-5.273 12.716c0 4.769 1.897 9.344 5.273 12.716a18.016 18.016 0 0 0 25.46 0l23.698-23.867c6.267-6.26 14.493-9.586 23.502-9.39 9.205 0 17.822 3.913 24.481 10.368 13.318 13.499 13.71 34.822.979 47.734l-50.137 50.081a33.904 33.904 0 0 1-47.983-.978 17.944 17.944 0 0 0-29.227 5.924 17.9 17.9 0 0 0 3.963 19.508c13.905 13.694 32.119 20.736 50.137 20.736 17.626 0 35.253-6.651 48.375-19.954l50.137-49.885c9.401-9.586 15.668-21.128 18.214-33.453H440v-35.8z"/><path fill="#fff" d="m237.101 323.188-23.894 23.866a33.9 33.9 0 0 1-24.096 9.363 33.9 33.9 0 0 1-23.691-10.341 33.81 33.81 0 0 1-1.175-47.929l50.137-49.885a33.914 33.914 0 0 1 47.983.978 17.95 17.95 0 0 0 25.363-.098 17.9 17.9 0 0 0-.098-25.334 69.76 69.76 0 0 0-49.094-20.745 69.76 69.76 0 0 0-49.418 19.963l-50.138 49.689c-9.4 9.586-15.472 21.128-18.214 33.453H72v35.8h50.333a71.2 71.2 0 0 0 17.688 29.283 71.3 71.3 0 0 0 29.316 17.668V439h35.644v-48.712a67.4 67.4 0 0 0 33.491-18.193l23.893-23.867a17.9 17.9 0 0 0 5.204-12.687 17.9 17.9 0 0 0-5.302-12.647 17.947 17.947 0 0 0-25.362.098z"/></svg>