<svg xmlns="http://www.w3.org/2000/svg" fill="none" viewBox="0 0 257 256"><path fill="#000" d="M221.712 67.684a49.64 49.64 0 0 0-12.353-20.426 49.8 49.8 0 0 0-20.473-12.324V0h-24.893v33.842a47.1 47.1 0 0 0-23.388 12.828l-16.687 16.51a12.53 12.53 0 0 0 0 17.74 12.6 12.6 0 0 0 8.89 3.674 12.6 12.6 0 0 0 8.891-3.674l16.55-16.648c4.376-4.367 10.121-6.687 16.413-6.55 6.428 0 12.446 2.729 17.096 7.232 9.301 9.416 9.575 24.29.684 33.297l-35.014 34.933a23.67 23.67 0 0 1-16.897 6.599 23.67 23.67 0 0 1-16.613-7.281 12.56 12.56 0 0 0-13.66-2.656 12.5 12.5 0 0 0-4.052 2.724 12.46 12.46 0 0 0-3.634 8.85 12.47 12.47 0 0 0 3.702 8.822c9.711 9.552 22.431 14.465 35.014 14.465 12.31 0 24.62-4.64 33.784-13.919l35.014-34.798c6.565-6.686 10.942-14.737 12.72-23.334H257V67.684z"/><path fill="#000" d="m115.301 175.215-16.686 16.649a23.7 23.7 0 0 1-16.828 6.53 23.7 23.7 0 0 1-16.545-7.213 23.567 23.567 0 0 1-.82-33.433l35.013-34.797a23.68 23.68 0 0 1 16.897-6.599c3.113.064 6.183.739 9.034 1.989a23.7 23.7 0 0 1 7.579 5.292 12.543 12.543 0 0 0 17.713-.068 12.48 12.48 0 0 0 3.634-8.85 12.48 12.48 0 0 0-3.703-8.822 48.75 48.75 0 0 0-34.286-14.47 48.75 48.75 0 0 0-34.512 13.925l-35.014 34.661c-6.565 6.686-10.805 14.737-12.72 23.334H0v24.973h35.151a49.66 49.66 0 0 0 12.353 20.426 49.8 49.8 0 0 0 20.473 12.324V256H92.87v-33.979a47.1 47.1 0 0 0 23.389-12.691l16.686-16.648a12.48 12.48 0 0 0-.068-17.671 12.54 12.54 0 0 0-8.871-3.626 12.54 12.54 0 0 0-8.842 3.694z"/></svg>
