<svg xmlns="http://www.w3.org/2000/svg" fill="none" viewBox="0 0 257 256"><path fill="#000" d="M221.451 67.684a49.65 49.65 0 0 0-12.338-20.426 49.74 49.74 0 0 0-20.449-12.324V0H163.8v33.842a47 47 0 0 0-23.361 12.828l-16.667 16.51a12.537 12.537 0 0 0 0 17.74 12.567 12.567 0 0 0 17.76 0l16.53-16.648c4.372-4.367 10.11-6.687 16.394-6.55 6.421 0 12.432 2.729 17.077 7.232 9.289 9.416 9.563 24.29.683 33.297l-34.973 34.933a23.63 23.63 0 0 1-16.877 6.599 23.64 23.64 0 0 1-16.594-7.281 12.5 12.5 0 0 0-8.86-3.626 12.53 12.53 0 0 0-8.831 3.694 12.48 12.48 0 0 0-3.63 8.85 12.5 12.5 0 0 0 3.698 8.822c9.7 9.552 22.405 14.465 34.973 14.465 12.295 0 24.591-4.64 33.744-13.919l34.973-34.798c6.557-6.686 10.929-14.737 12.705-23.334h34.154V67.684z"/><path fill="#000" d="m115.166 175.215-16.667 16.649a23.65 23.65 0 0 1-33.334-.683 23.6 23.6 0 0 1-7.359-16.546 23.58 23.58 0 0 1 6.54-16.887l34.972-34.797a23.64 23.64 0 0 1 25.9-4.61 23.6 23.6 0 0 1 7.571 5.292 12.52 12.52 0 0 0 17.691-.068 12.487 12.487 0 0 0-.068-17.672 48.66 48.66 0 0 0-34.245-14.47 48.66 48.66 0 0 0-34.472 13.925l-34.973 34.661c-6.558 6.686-10.793 14.737-12.705 23.334H0v24.973h35.11a49.7 49.7 0 0 0 12.338 20.426 49.74 49.74 0 0 0 20.45 12.324V256H92.76v-33.979a47 47 0 0 0 23.361-12.691l16.667-16.648a12.485 12.485 0 0 0-.069-17.671 12.516 12.516 0 0 0-17.691.068z"/></svg>