<svg width="248" height="256" viewBox="0 0 248 256" fill="none" xmlns="http://www.w3.org/2000/svg">
<path fill-rule="evenodd" clip-rule="evenodd" d="M123.433 209.649C114.718 209.649 106.618 207.823 100.008 204.367L28.8217 167.164L7.49075 179.978C-2.64851 186.066 -2.47141 195.4 7.88583 200.813L106.343 252.273C111.124 254.77 117.238 256 123.433 256C130.667 256 138.007 254.326 143.47 251.047L239.856 193.147C249.995 187.055 249.818 177.721 239.461 172.311L218.992 161.608L150.51 202.748C143.099 207.196 133.484 209.649 123.433 209.649Z" fill="black"/>
<path fill-rule="evenodd" clip-rule="evenodd" d="M240.094 110.704L223.003 101.639L150.908 145.581C143.477 150.113 133.834 152.605 123.76 152.605C115.021 152.605 106.901 150.747 100.273 147.235L25.4635 107.56L7.51159 118.504C-2.65444 124.701 -2.48028 134.193 7.90429 139.701L106.624 192.053C111.415 194.593 117.548 195.841 123.76 195.841C131.01 195.841 138.372 194.141 143.846 190.805L240.49 131.901C250.656 125.707 250.479 116.211 240.094 110.704Z" fill="black"/>
<path fill-rule="evenodd" clip-rule="evenodd" d="M240.094 55.1637L141.374 3.72545C136.583 1.22601 130.453 0 124.238 0C116.988 0 109.626 1.67306 104.152 4.95146L7.51159 62.8314C-2.65444 68.9174 -2.48028 78.2446 7.90429 83.6566L106.624 135.102C111.415 137.598 117.548 138.824 123.76 138.824C131.01 138.824 138.372 137.151 143.846 133.872L240.49 75.9924C250.656 69.9064 250.479 60.5758 240.094 55.1637Z" fill="black"/>
</svg>
