<svg xmlns="http://www.w3.org/2000/svg" fill="none" viewBox="0 0 248 256"><path fill="#000" fill-rule="evenodd" d="M123.433 209.649c-8.715 0-16.815-1.826-23.425-5.282l-71.186-37.203L7.49 179.978c-10.14 6.088-9.962 15.422.395 20.835l98.457 51.46c4.781 2.497 10.895 3.727 17.09 3.727 7.234 0 14.574-1.674 20.037-4.953l96.386-57.9c10.139-6.092 9.962-15.426-.395-20.836l-20.469-10.703-68.482 41.14c-7.411 4.448-17.026 6.901-27.077 6.901" clip-rule="evenodd"/><path fill="#000" fill-rule="evenodd" d="m240.094 110.704-17.091-9.065-72.095 43.942c-7.431 4.532-17.074 7.024-27.148 7.024-8.739 0-16.859-1.858-23.487-5.37l-74.81-39.675-17.951 10.944c-10.166 6.197-9.992 15.689.392 21.197l98.72 52.352c4.791 2.54 10.924 3.788 17.136 3.788 7.25 0 14.612-1.7 20.086-5.036l96.644-58.904c10.166-6.194 9.989-15.69-.396-21.197" clip-rule="evenodd"/><path fill="#000" fill-rule="evenodd" d="m240.094 55.164-98.72-51.439C136.583 1.226 130.453 0 124.238 0c-7.25 0-14.612 1.673-20.086 4.951l-96.64 57.88c-10.166 6.086-9.992 15.414.392 20.826l98.72 51.445c4.791 2.496 10.924 3.722 17.136 3.722 7.25 0 14.612-1.673 20.086-4.952l96.644-57.88c10.166-6.086 9.989-15.416-.396-20.828" clip-rule="evenodd"/></svg>