<svg xmlns="http://www.w3.org/2000/svg" fill="none" viewBox="0 0 256 256"><path fill="#000" d="M128 256c70.692 0 128-57.308 128-128S198.692 0 128 0 0 57.308 0 128s57.308 128 128 128"/><path fill="url(#paint0_linear_34_6)" fill-rule="evenodd" d="M127.623 182.434c-5.794 0-11.178-1.215-15.572-3.513L64.728 154.18l-14.18 8.521c-6.74 4.049-6.623 10.256.262 13.857l65.452 34.223c3.179 1.66 7.243 2.478 11.361 2.478 4.809 0 9.688-1.113 13.32-3.294l64.075-38.506c6.74-4.051 6.623-10.259-.263-13.857l-13.607-7.118-45.525 27.36c-4.927 2.959-11.318 4.59-18 4.59" clip-rule="evenodd"/><path fill="url(#paint1_linear_34_6)" fill-rule="evenodd" d="m205.176 116.631-11.362-6.029-47.926 29.224c-4.94 3.014-11.351 4.671-18.047 4.671-5.81 0-11.208-1.235-15.614-3.571L62.495 114.54l-11.933 7.278c-6.759 4.121-6.643 10.434.26 14.097l65.627 34.816c3.185 1.69 7.262 2.52 11.392 2.52 4.819 0 9.713-1.131 13.352-3.349l64.247-39.174c6.758-4.119 6.64-10.434-.264-14.097" clip-rule="evenodd"/><path fill="url(#paint2_linear_34_6)" fill-rule="evenodd" d="M205.176 79.694 139.55 45.486c-3.185-1.663-7.26-2.478-11.392-2.478-4.819 0-9.713 1.113-13.352 3.293L50.562 84.794c-6.759 4.047-6.643 10.25.26 13.85l65.627 34.213c3.185 1.659 7.262 2.475 11.392 2.475 4.819 0 9.713-1.113 13.352-3.293l64.247-38.493c6.758-4.047 6.64-10.253-.264-13.852" clip-rule="evenodd"/><defs><linearGradient id="paint0_linear_34_6" x1="128" x2="128" y1="-415.972" y2="256" gradientUnits="userSpaceOnUse"><stop stop-color="#B3F9BA"/><stop offset="1" stop-color="#F6FB8C"/></linearGradient><linearGradient id="paint1_linear_34_6" x1="128" x2="128" y1="-253.316" y2="404" gradientUnits="userSpaceOnUse"><stop stop-color="#B1FFBF"/><stop offset="1" stop-color="#FFF16D"/></linearGradient><linearGradient id="paint2_linear_34_6" x1="128" x2="128" y1="43.008" y2="209.933" gradientUnits="userSpaceOnUse"><stop stop-color="#B3F9BA"/><stop offset="1" stop-color="#F6FB8C"/></linearGradient></defs></svg>
