<svg xmlns="http://www.w3.org/2000/svg" fill="none" viewBox="0 0 512 512"><path fill="#000" d="M256 512c141.385 0 256-114.615 256-256S397.385 0 256 0 0 114.615 0 256s114.615 256 256 256"/><path fill="url(#paint0_linear_34_6)" fill-rule="evenodd" d="M255.246 364.868c-11.587 0-22.356-2.429-31.145-7.026l-94.645-49.483-28.361 17.043c-13.48 8.098-13.245 20.512.526 27.713l130.903 68.446c6.357 3.321 14.486 4.957 22.722 4.957 9.619 0 19.377-2.226 26.64-6.588l128.15-77.012c13.481-8.103 13.245-20.517-.525-27.714l-27.215-14.235-91.05 54.719c-9.853 5.917-22.637 9.18-36 9.18" clip-rule="evenodd"/><path fill="url(#paint1_linear_34_6)" fill-rule="evenodd" d="m410.353 233.261-22.724-12.057-95.853 58.447c-9.88 6.029-22.701 9.343-36.095 9.343-11.618 0-22.415-2.471-31.228-7.142l-99.462-52.771-23.868 14.555c-13.516 8.243-13.285 20.868.522 28.194l131.253 69.633c6.37 3.379 14.524 5.038 22.783 5.038 9.639 0 19.428-2.26 26.706-6.698l128.492-78.347c13.516-8.239 13.28-20.869-.526-28.195" clip-rule="evenodd"/><path fill="url(#paint2_linear_34_6)" fill-rule="evenodd" d="M410.353 159.389 279.099 90.971c-6.369-3.324-14.519-4.955-22.782-4.955-9.639 0-19.428 2.225-26.706 6.586l-128.488 76.985c-13.516 8.095-13.285 20.501.522 27.7l131.253 68.426c6.37 3.32 14.524 4.951 22.783 4.951 9.639 0 19.428-2.226 26.706-6.586l128.492-76.986c13.516-8.094 13.28-20.505-.526-27.703" clip-rule="evenodd"/><defs><linearGradient id="paint0_linear_34_6" x1="256" x2="256" y1="-831.944" y2="512" gradientUnits="userSpaceOnUse"><stop stop-color="#B3F9BA"/><stop offset="1" stop-color="#F6FB8C"/></linearGradient><linearGradient id="paint1_linear_34_6" x1="256" x2="256" y1="-506.632" y2="808" gradientUnits="userSpaceOnUse"><stop stop-color="#B1FFBF"/><stop offset="1" stop-color="#FFF16D"/></linearGradient><linearGradient id="paint2_linear_34_6" x1="256" x2="256" y1="86.016" y2="419.866" gradientUnits="userSpaceOnUse"><stop stop-color="#B3F9BA"/><stop offset="1" stop-color="#F6FB8C"/></linearGradient></defs></svg>