<svg xmlns="http://www.w3.org/2000/svg" fill="none" viewBox="0 0 248 256"><path fill="#000" fill-rule="evenodd" d="M123.383 209.649c-8.712 0-16.808-1.826-23.416-5.282L28.81 167.164 7.488 179.978c-10.135 6.088-9.958 15.422.395 20.835l98.417 51.46c4.779 2.497 10.891 3.727 17.083 3.727 7.231 0 14.568-1.674 20.029-4.953l96.347-57.9c10.135-6.092 9.958-15.426-.395-20.836l-20.461-10.703-68.454 41.14c-7.408 4.448-17.019 6.901-27.066 6.901" clip-rule="evenodd"/><path fill="#000" fill-rule="evenodd" d="m239.997 110.704-17.085-9.065-72.065 43.942c-7.428 4.532-17.067 7.024-27.137 7.024-8.735 0-16.852-1.858-23.478-5.37L25.453 107.56 7.51 118.504c-10.162 6.197-9.988 15.689.392 21.197l98.68 52.352c4.789 2.54 10.92 3.788 17.129 3.788 7.247 0 14.606-1.7 20.078-5.036l96.605-58.904c10.162-6.194 9.984-15.69-.396-21.197" clip-rule="evenodd"/><path fill="#000" fill-rule="evenodd" d="m239.997 55.164-98.68-51.439C136.528 1.226 130.4 0 124.188 0c-7.247 0-14.606 1.673-20.078 4.951L7.509 62.831C-2.653 68.917-2.48 78.245 7.9 83.657l98.68 51.445c4.789 2.496 10.92 3.722 17.129 3.722 7.247 0 14.606-1.673 20.078-4.952l96.605-57.88c10.162-6.086 9.984-15.416-.396-20.828" clip-rule="evenodd"/></svg>