<svg xmlns="http://www.w3.org/2000/svg" fill="none" viewBox="0 0 256 256"><path fill="#000" d="M75.366 145.685c7.642 0 14.703-2.546 20.386-6.954L49.103 92.093a32.63 32.63 0 0 0-6.964 20.386c-.097 18.32 14.8 33.211 33.222 33.211zm138.78-33.314c0-7.642-2.546-14.692-6.959-20.375l-46.649 46.633a32.67 32.67 0 0 0 20.386 6.959c18.325.097 33.222-14.795 33.222-33.211z"/><path fill="#000" d="m237.669 61.724-20.682 20.67a46.7 46.7 0 0 1 10.979 30.177c0 25.961-21.069 47.025-47.042 47.025-11.468 0-21.957-4.111-30.192-10.973l-22.635 22.63-22.641-22.63a46.75 46.75 0 0 1-30.187 10.979c-25.972 0-47.042-21.07-47.042-47.031 0-11.464 4.117-21.947 10.98-30.176L18.523 61.724A127.36 127.36 0 0 0 0 128.048C0 198.786 57.332 256 128 256c70.662 0 127.994-57.316 127.994-127.952a124.9 124.9 0 0 0-18.325-66.324"/><path fill="#000" d="M220.712 39.68A127.6 127.6 0 0 0 128.091 0C91.635 0 58.807 15.284 35.477 39.68a154 154 0 0 0-9.015 10.484L128 151.664 229.532 50.067a87 87 0 0 0-8.82-10.387m-92.621-23.023c29.998 0 57.833 11.56 78.709 32.624l-78.709 78.671-78.697-78.671c20.973-21.064 48.71-32.624 78.703-32.624z"/></svg>