<svg xmlns="http://www.w3.org/2000/svg" fill="none" viewBox="0 0 512 512"><path fill="#04795C" d="M256 512c141.385 0 256-114.615 256-256S397.385 0 256 0 0 114.615 0 256s114.615 256 256 256"/><path fill="#fff" d="M184.418 280.051c10.393 0 19.996-3.462 27.725-9.456l-63.442-63.429a44.38 44.38 0 0 0-9.472 27.725c-.131 24.915 20.128 45.167 45.182 45.167zm188.74-45.306c0-10.393-3.462-19.981-9.463-27.71l-63.443 63.421a44.43 44.43 0 0 0 27.725 9.463c24.922.132 45.181-20.12 45.181-45.167z"/><path fill="#fff" d="m405.151 165.864-28.128 28.113a63.53 63.53 0 0 1 14.931 41.039c0 35.308-28.655 63.955-63.977 63.955-15.597 0-29.862-5.592-41.061-14.924l-30.784 30.778-30.792-30.778a63.58 63.58 0 0 1-41.054 14.931c-35.322 0-63.977-28.654-63.977-63.962 0-15.59 5.6-29.848 14.932-41.039l-28.128-28.113a173.2 173.2 0 0 0-25.193 90.202c0 96.204 77.972 174.014 174.08 174.014 96.101 0 174.072-77.95 174.072-174.014a169.86 169.86 0 0 0-24.921-90.202"/><path fill="#fff" d="M382.088 135.885A173.54 173.54 0 0 0 256.124 81.92c-49.58 0-94.227 20.787-125.956 53.965a209 209 0 0 0-12.259 14.257L256 288.183l138.084-138.172a118 118 0 0 0-11.996-14.126m-125.964-31.312c40.798 0 78.652 15.722 107.044 44.369L256.124 255.934 149.096 148.942c28.523-28.647 66.246-44.369 107.036-44.369z"/></svg>