<svg xmlns="http://www.w3.org/2000/svg" fill="none" viewBox="0 0 256 256"><path fill="#04795C" d="M128 256c70.692 0 128-57.308 128-128S198.692 0 128 0 0 57.308 0 128s57.308 128 128 128"/><path fill="#fff" d="M92.21 140.025c5.196 0 9.997-1.73 13.862-4.728L74.35 103.583a22.2 22.2 0 0 0-4.735 13.863c-.066 12.457 10.064 22.583 22.59 22.583zm94.369-22.652c0-5.197-1.731-9.991-4.732-13.856l-31.721 31.711a22.22 22.22 0 0 0 13.862 4.732c12.461.065 22.591-10.061 22.591-22.584z"/><path fill="#fff" d="m202.575 82.932-14.064 14.057a31.77 31.77 0 0 1 7.466 20.519c0 17.654-14.327 31.978-31.989 31.978-7.798 0-14.931-2.796-20.53-7.462l-15.392 15.388-15.396-15.388a31.8 31.8 0 0 1-20.527 7.465c-17.661 0-31.988-14.327-31.988-31.981 0-7.795 2.8-14.924 7.465-20.52L53.556 82.933a86.6 86.6 0 0 0-12.596 45.101c0 48.102 38.986 87.007 87.04 87.007 48.05 0 87.036-38.975 87.036-87.007a84.93 84.93 0 0 0-12.461-45.101"/><path fill="#fff" d="M191.044 67.942a86.77 86.77 0 0 0-62.982-26.982c-24.79 0-47.114 10.393-62.978 26.982a105 105 0 0 0-6.13 7.13L128 144.09l69.042-69.086a59 59 0 0 0-5.998-7.063m-62.982-15.655c20.399 0 39.326 7.86 53.522 22.184l-53.522 53.496L74.548 74.47c14.261-14.324 33.123-22.185 53.518-22.185z"/></svg>
