<svg xmlns="http://www.w3.org/2000/svg" fill="none" viewBox="0 0 512 512"><path fill="#000" d="M512 256a256 256 0 0 1-74.981 181.019 255.997 255.997 0 0 1-362.038 0A256 256 0 1 1 512 256"/><path fill="url(#paint0_linear_34_8)" d="M347.185 95.232a69.56 69.56 0 0 0-49.149 20.279 69.5 69.5 0 0 0-20.453 49.059v76.879c-7.168.484-14.497.788-22.095.788s-14.892.305-22.095.735V164.57a69.55 69.55 0 0 0-20.774-48.471A69.62 69.62 0 0 0 163.8 96.115a69.62 69.62 0 0 0-48.819 19.984 69.56 69.56 0 0 0-20.773 48.471v183.743a69.56 69.56 0 0 0 20.773 48.471 69.61 69.61 0 0 0 48.819 19.984c18.266 0 35.8-7.177 48.819-19.984a69.55 69.55 0 0 0 20.774-48.471v-76.879c7.168-.483 14.497-.788 22.095-.788s14.892-.304 22.095-.734v78.401a69.55 69.55 0 0 0 20.774 48.471 69.61 69.61 0 0 0 48.819 19.984c18.266 0 35.8-7.177 48.819-19.984a69.56 69.56 0 0 0 20.773-48.471V164.57a69.5 69.5 0 0 0-20.446-49.053 69.56 69.56 0 0 0-49.137-20.285m-183.394 28.409a41.06 41.06 0 0 1 29.004 11.975 41.03 41.03 0 0 1 12.069 28.954v81.411a234.2 234.2 0 0 0-59.136 16.712 107.5 107.5 0 0 0-22.938 13.685V164.57a41.03 41.03 0 0 1 12.044-28.929 41.06 41.06 0 0 1 28.957-12m41.073 224.672a41.04 41.04 0 0 1-12.03 29.03 41.08 41.08 0 0 1-29.043 12.025 41.08 41.08 0 0 1-29.042-12.025 41.04 41.04 0 0 1-12.03-29.03v-18.431c0-16.282 12.902-31.705 34.532-41.306a202.6 202.6 0 0 1 47.613-13.918zm142.321 40.93a41.07 41.07 0 0 1-29.004-11.975 41.03 41.03 0 0 1-12.069-28.955v-81.411a234.2 234.2 0 0 0 59.136-16.712 107.5 107.5 0 0 0 22.938-13.685v111.808a41.03 41.03 0 0 1-12.044 28.929 41.06 41.06 0 0 1-28.957 12.001m6.54-165.043a202.6 202.6 0 0 1-47.613 13.918V164.57a41.04 41.04 0 0 1 12.03-29.03 41.083 41.083 0 0 1 58.085 0 41.04 41.04 0 0 1 12.03 29.03v18.432c0 16.21-12.902 31.633-34.532 41.198"/><defs><linearGradient id="paint0_linear_34_8" x1="114.637" x2="394.377" y1="392.813" y2="112.187" gradientUnits="userSpaceOnUse"><stop stop-color="#00AEE9"/><stop offset="1" stop-color="#69FABD"/></linearGradient></defs></svg>