<svg xmlns="http://www.w3.org/2000/svg" fill="none" viewBox="0 0 256 256"><path fill="#000" d="M256 128a128 128 0 0 1-37.49 90.51 128.003 128.003 0 0 1-181.02 0A128.001 128.001 0 1 1 256 128"/><path fill="url(#paint0_linear_34_8)" d="M173.592 47.616a34.78 34.78 0 0 0-24.574 10.14 34.75 34.75 0 0 0-10.226 24.529v38.44c-3.584.241-7.249.394-11.048.394s-7.446.152-11.048.367V82.285A34.78 34.78 0 0 0 106.31 58.05a34.81 34.81 0 0 0-48.82 0 34.78 34.78 0 0 0-10.386 24.235v91.872a34.78 34.78 0 0 0 10.387 24.235 34.81 34.81 0 0 0 48.819 0 34.78 34.78 0 0 0 10.386-24.235v-38.44c3.584-.242 7.249-.394 11.048-.394s7.446-.152 11.048-.367v39.201a34.78 34.78 0 0 0 10.386 24.235 34.81 34.81 0 0 0 48.819 0 34.78 34.78 0 0 0 10.387-24.235V82.285a34.75 34.75 0 0 0-10.223-24.526 34.78 34.78 0 0 0-24.569-10.143M81.896 61.82a20.53 20.53 0 0 1 14.501 5.988 20.5 20.5 0 0 1 6.035 14.477v40.706a117 117 0 0 0-29.568 8.356 53.8 53.8 0 0 0-11.469 6.842V82.285a20.5 20.5 0 0 1 6.022-14.465 20.53 20.53 0 0 1 14.479-6m20.536 112.337a20.53 20.53 0 0 1-6.015 14.515 20.543 20.543 0 0 1-29.043 0 20.52 20.52 0 0 1-6.015-14.515v-9.216c0-8.141 6.452-15.852 17.266-20.653a101.3 101.3 0 0 1 23.807-6.959zm71.16 20.464a20.53 20.53 0 0 1-14.502-5.987 20.5 20.5 0 0 1-6.034-14.477v-40.706a117 117 0 0 0 29.568-8.356 53.8 53.8 0 0 0 11.469-6.842v55.904a20.5 20.5 0 0 1-6.022 14.464 20.53 20.53 0 0 1-14.479 6m3.271-82.521a101.3 101.3 0 0 1-23.807 6.959V82.285a20.52 20.52 0 0 1 6.015-14.515 20.54 20.54 0 0 1 29.043 0 20.52 20.52 0 0 1 6.015 14.515v9.216c0 8.105-6.452 15.816-17.266 20.599"/><defs><linearGradient id="paint0_linear_34_8" x1="57.318" x2="197.188" y1="196.406" y2="56.093" gradientUnits="userSpaceOnUse"><stop stop-color="#00AEE9"/><stop offset="1" stop-color="#69FABD"/></linearGradient></defs></svg>
