<svg xmlns="http://www.w3.org/2000/svg" fill="none" viewBox="0 0 256 256"><path fill="#5CC538" d="M128 256c70.692 0 128-57.308 128-128S198.692 0 128 0 0 57.308 0 128s57.308 128 128 128"/><path fill="#fff" d="M192.682 52.235c.96.656 2.018 1.207 2.858 1.992 1.396 1.295 2.083 2.987 2.083 4.91q0 24.62.009 49.24c0 3.287-.344 6.536-.883 9.778a62.9 62.9 0 0 1-9.557 24.253 68 68 0 0 1-6.988 8.808c-4.143 4.458-8.884 8.174-14.099 11.278-4.269 2.54-8.763 4.633-13.551 5.99-2.954.835-5.966 1.484-8.984 2.092-3.578.725-7.213.787-10.856.774-8.45-.033-16.9-.01-25.351-.01h-.986v-.914c0-6.276-.026-12.553.012-18.83a17.9 17.9 0 0 1 1.456-6.885c1.028-2.441 2.455-4.633 4.391-6.442 2.857-2.67 6.19-4.405 10.09-5.046 3.021-.498 6.051-.246 9.076-.265 4.275-.028 8.349-.838 12.205-2.711a28.5 28.5 0 0 0 6.579-4.383 26.6 26.6 0 0 0 7.972-12.669c.521-1.812.853-3.673.992-5.554.197-2.645.178-5.31.181-7.967q.02-23.235 0-46.479c0-.324-.009-.647-.012-.971z"/><path fill="#fff" d="M58.368 144.594c.099-.764.187-1.529.3-2.291.357-2.391.637-4.812 1.108-7.19a49.6 49.6 0 0 1 3.294-10.591 102 102 0 0 1 4.806-9.345c1.273-2.209 2.787-4.302 4.368-6.31 2.29-2.907 4.894-5.53 7.647-8.017a62 62 0 0 1 8.21-6.226c3.974-2.54 8.158-4.671 12.623-6.181 2.858-.965 5.783-1.757 8.71-2.497a35.5 35.5 0 0 1 5.004-.815c9.157-.95 18.343-.263 27.513-.448 2.514-.052 5.03-.008 7.617-.008.014.277.036.514.036.748 0 6.549.045 13.099-.022 19.649-.023 2.17-.614 4.264-1.46 6.277a18.5 18.5 0 0 1-4.63 6.643c-2.769 2.517-6.011 4.155-9.747 4.783-3.017.509-6.049.267-9.074.27-6.013.007-11.499 1.644-16.405 5.114a27.68 27.68 0 0 0-11.116 17.353 24.4 24.4 0 0 0-.478 4.47q-.047 26.711-.02 53.422c0 .124.008.248.014.372H63.31a2 2 0 0 0-.44-.326c-1.497-.598-2.67-1.575-3.412-2.989-.45-.847-.734-1.766-1.089-2.663zm33.206-92.359c.813.505 1.672.95 2.428 1.527 1.417 1.079 2.22 2.567 2.481 4.314q.172 1.325.15 2.66.018 8.928 0 17.854v.758c-2.893 1.345-5.75 2.56-8.502 3.976a64 64 0 0 0-11.633 7.618c-1.867 1.548-3.664 3.185-5.447 4.83a61.7 61.7 0 0 0-8.97 10.435c-1.133 1.644-2.18 3.347-3.274 5.02q-.2.261-.439.488v-59.48zm72.843 151.541c-.774-.475-1.587-.897-2.316-1.438-1.458-1.074-2.269-2.579-2.593-4.334-.11-.656-.16-1.322-.15-1.987q-.018-9.304 0-18.607v-.864c16.403-6.366 29.1-17.064 38.265-32.101v59.331z"/></svg>
