<svg xmlns="http://www.w3.org/2000/svg" fill="none" viewBox="0 0 512 512"><path fill="#5CC538" d="M256 512c141.385 0 256-114.615 256-256S397.385 0 256 0 0 114.615 0 256s114.615 256 256 256"/><path fill="#fff" d="M385.363 104.469c1.92 1.312 4.037 2.415 5.717 3.984 2.791 2.592 4.166 5.975 4.166 9.822q0 49.238.018 98.478c0 6.576-.689 13.074-1.767 19.557a125.8 125.8 0 0 1-19.112 48.505 136 136 0 0 1-13.977 17.617c-8.286 8.917-17.767 16.347-28.198 22.555-8.538 5.082-17.525 9.266-27.102 11.98-5.909 1.671-11.931 2.968-17.969 4.185-7.154 1.449-14.425 1.575-21.712 1.548-16.899-.066-33.798-.021-50.7-.021h-1.974v-1.826c0-12.554-.051-25.108.024-37.661a35.9 35.9 0 0 1 2.914-13.771c2.054-4.881 4.908-9.266 8.78-12.882 5.714-5.341 12.381-8.812 20.182-10.094 6.04-.995 12.102-.49 18.151-.529 8.55-.057 16.699-1.677 24.41-5.422a57 57 0 0 0 13.159-8.767 53.2 53.2 0 0 0 15.944-25.337 54.8 54.8 0 0 0 1.982-11.107c.396-5.291.357-10.62.363-15.935q.039-46.47 0-92.957c0-.649-.018-1.294-.024-1.943z"/><path fill="#fff" d="M116.736 289.188c.198-1.527.374-3.058.599-4.582.716-4.782 1.276-9.624 2.216-14.38a99.2 99.2 0 0 1 6.588-21.183 203 203 0 0 1 9.614-18.69c2.545-4.418 5.573-8.602 8.735-12.619 4.579-5.814 9.787-11.06 15.294-16.033a124 124 0 0 1 16.42-12.452c7.948-5.082 16.316-9.344 25.246-12.363 5.717-1.931 11.566-3.515 17.42-4.995a71 71 0 0 1 10.009-1.629c18.313-1.901 36.685-.526 55.025-.896 5.028-.105 10.059-.015 15.234-.015.027.553.072 1.028.072 1.494 0 13.098.09 26.199-.045 39.3-.045 4.339-1.228 8.527-2.92 12.553a37 37 0 0 1-9.259 13.286c-5.538 5.034-12.021 8.31-19.493 9.565-6.035 1.019-12.099.535-18.148.541-12.027.015-23 3.288-32.811 10.228a55.36 55.36 0 0 0-22.232 34.705 49 49 0 0 0-.956 8.941q-.096 53.421-.039 106.844c0 .248.015.496.027.744h-66.713a4.1 4.1 0 0 0-.881-.652c-2.995-1.195-5.339-3.15-6.825-5.978-.898-1.694-1.467-3.533-2.177-5.326zM183.147 104.469c1.626 1.01 3.345 1.901 4.858 3.055 2.833 2.158 4.441 5.135 4.962 8.629.229 1.764.329 3.542.299 5.32q.036 17.853 0 35.707v1.515c-5.785 2.69-11.499 5.12-17.004 7.954a128.2 128.2 0 0 0-23.266 15.235c-3.734 3.096-7.328 6.369-10.895 9.66a123.4 123.4 0 0 0-17.938 20.869c-2.267 3.288-4.36 6.695-6.55 10.04a8.5 8.5 0 0 1-.877.978V104.469zM328.835 407.552c-1.548-.95-3.175-1.793-4.633-2.875-2.917-2.149-4.537-5.159-5.187-8.668a22 22 0 0 1-.299-3.976 9617 9617 0 0 1 0-37.213v-1.727c32.807-12.733 58.199-34.128 76.53-64.204v118.663z"/></svg>