<svg width="512" height="512" viewBox="0 0 512 512" fill="none" xmlns="http://www.w3.org/2000/svg">
<path d="M256 512C397.385 512 512 397.385 512 256C512 114.615 397.385 0 256 0C215.277 0 176.774 9.50866 142.592 26.4269C128.313 33.4941 114.788 41.8542 102.17 51.3542C40.1212 98.0697 0 172.349 0 256C0 397.385 114.615 512 256 512Z" fill="black"/>
<path d="M397.075 154.5L368.716 198.582C380.766 222.369 384.989 249.351 380.784 275.678C376.579 302.005 364.16 326.333 345.3 345.191C326.439 364.048 302.1 376.472 275.754 380.691C249.409 384.909 222.403 380.706 198.59 368.681L154.5 397.258C188.017 421.368 229.027 432.772 270.19 429.429C311.352 426.085 349.981 408.213 379.161 379.011C408.341 349.809 426.167 311.184 429.45 270.048C432.732 228.913 421.256 187.953 397.075 154.5Z" fill="url(#paint0_radial_6293_2940)"/>
<path d="M255.994 343C276.406 342.997 296.172 335.855 311.861 322.815C327.551 309.775 338.173 291.66 341.885 271.614C314.648 265.765 286.488 265.668 259.212 271.329C231.936 276.991 206.147 288.286 183.5 304.489C191.493 316.355 202.287 326.074 214.929 332.79C227.572 339.506 241.674 343.013 255.994 343Z" fill="url(#paint1_radial_6293_2940)"/>
<path d="M298.608 250.94C313.455 250.94 328.259 252.53 342.767 255.684C342.367 232.851 333.018 211.088 316.731 195.082C300.444 179.076 278.523 170.108 255.689 170.108C232.855 170.108 210.935 179.076 194.648 195.082C178.361 211.088 169.012 232.851 168.612 255.684C168.616 259.581 168.893 263.473 169.438 267.331C157.404 276.114 146.438 286.275 136.766 297.608C128.41 273.878 127.339 248.191 133.692 223.848C140.044 199.504 153.531 177.617 172.417 160.998C191.303 144.379 214.727 133.787 239.679 130.585C264.63 127.382 289.969 131.714 312.44 143.024L356.385 114.613C322.827 90.4674 281.741 79.1208 240.549 82.6229C199.358 86.125 160.776 104.245 131.775 133.709C102.774 163.174 85.266 202.039 82.4132 243.285C79.5603 284.532 91.5511 325.438 116.219 358.615C124.425 343.843 134.384 330.115 145.88 317.731C145.88 317.731 162.963 299.874 176.074 290.918C211.636 264.913 254.554 250.91 298.608 250.94Z" fill="white"/>
<defs>
<radialGradient id="paint0_radial_6293_2940" cx="0" cy="0" r="1" gradientUnits="userSpaceOnUse" gradientTransform="translate(451.06 -0.347763) scale(544.185 543.755)">
<stop offset="0.1" stop-color="#26DB8D"/>
<stop offset="0.26" stop-color="#23D29A"/>
<stop offset="0.56" stop-color="#1ABBBB"/>
<stop offset="0.89" stop-color="#0E9DE5"/>
</radialGradient>
<radialGradient id="paint1_radial_6293_2940" cx="0" cy="0" r="1" gradientUnits="userSpaceOnUse" gradientTransform="translate(691.541 -759.169) scale(946.115 1973.19)">
<stop offset="0.1" stop-color="#26DB8D"/>
<stop offset="0.26" stop-color="#23D29A"/>
<stop offset="0.56" stop-color="#1ABBBB"/>
<stop offset="0.89" stop-color="#0E9DE5"/>
</radialGradient>
</defs>
</svg>
