<svg xmlns="http://www.w3.org/2000/svg" fill="none" viewBox="0 0 256 256"><path fill="#000" d="M128 256c70.692 0 128-57.308 128-128S198.692 0 128 0 0 57.308 0 128s57.308 128 128 128"/><path fill="url(#paint0_radial_9177_781)" d="m198.538 77.25-14.18 22.04a63.23 63.23 0 0 1 6.034 38.549 63.26 63.26 0 0 1-17.742 34.756 63.37 63.37 0 0 1-73.355 11.745L77.25 198.629a87 87 0 0 0 57.845 16.085 86.97 86.97 0 0 0 54.485-25.208 86.83 86.83 0 0 0 8.958-112.256"/><path fill="url(#paint1_radial_9177_781)" d="M127.997 171.5a43.7 43.7 0 0 0 27.934-10.093 43.6 43.6 0 0 0 15.011-25.6 100.03 100.03 0 0 0-79.192 16.438 43.6 43.6 0 0 0 15.715 14.15 43.7 43.7 0 0 0 20.532 5.105"/><path fill="#fff" d="M149.304 125.47c7.424 0 14.825.795 22.079 2.372a43.545 43.545 0 0 0-87.077 0 42 42 0 0 0 .413 5.824 95.5 95.5 0 0 0-16.336 15.138 63.08 63.08 0 0 1 17.825-68.305 63.065 63.065 0 0 1 70.012-8.987l21.972-14.205a86.604 86.604 0 0 0-112.304 9.548 86.625 86.625 0 0 0-7.778 112.453 105 105 0 0 1 14.83-20.443s8.541-8.928 15.097-13.406a103.67 103.67 0 0 1 61.267-19.989"/><defs><radialGradient id="paint0_radial_9177_781" cx="0" cy="0" r="1" gradientTransform="matrix(272.092 0 0 271.878 225.53 -.174)" gradientUnits="userSpaceOnUse"><stop offset=".1" stop-color="#26DB8D"/><stop offset=".26" stop-color="#23D29A"/><stop offset=".56" stop-color="#1ABBBB"/><stop offset=".89" stop-color="#0E9DE5"/></radialGradient><radialGradient id="paint1_radial_9177_781" cx="0" cy="0" r="1" gradientTransform="matrix(473.058 0 0 986.593 345.771 -379.584)" gradientUnits="userSpaceOnUse"><stop offset=".1" stop-color="#26DB8D"/><stop offset=".26" stop-color="#23D29A"/><stop offset=".56" stop-color="#1ABBBB"/><stop offset=".89" stop-color="#0E9DE5"/></radialGradient></defs></svg>
