<svg xmlns="http://www.w3.org/2000/svg" fill="none" viewBox="0 0 256 256"><path fill="#000" d="m231.779 53.333-20.861 32.428a93.03 93.03 0 0 1 8.877 56.715 93.07 93.07 0 0 1-26.103 51.135 93.2 93.2 0 0 1-51.16 26.116 93.23 93.23 0 0 1-56.765-8.835l-32.434 21.022a128 128 0 0 0 165.268-13.423 127.75 127.75 0 0 0 13.178-165.158"/><path fill="#000" d="M127.995 192a64.3 64.3 0 0 0 41.098-14.849 64.16 64.16 0 0 0 22.086-37.665 147.2 147.2 0 0 0-60.816-.209 147.1 147.1 0 0 0-55.696 24.393 64.2 64.2 0 0 0 23.12 20.819A64.3 64.3 0 0 0 127.995 192"/><path fill="#000" d="M159.344 124.278a153 153 0 0 1 32.484 3.489 64.073 64.073 0 0 0-64.056-62.952 64.06 64.06 0 0 0-44.904 18.372 64.08 64.08 0 0 0-19.153 44.58 62 62 0 0 0 .608 8.568 140.4 140.4 0 0 0-24.035 22.273A92.8 92.8 0 0 1 66.514 58.113a92.78 92.78 0 0 1 103.005-13.221l32.327-20.9a127.416 127.416 0 0 0-165.23 14.047 127.45 127.45 0 0 0-11.443 165.448 154.5 154.5 0 0 1 21.82-30.076s12.566-13.136 22.21-19.724a152.53 152.53 0 0 1 90.141-29.409"/></svg>