<svg xmlns="http://www.w3.org/2000/svg" fill="none" viewBox="0 0 512 512"><path fill="#000" d="M256 512c141.385 0 256-114.615 256-256S397.385 0 256 0 0 114.615 0 256s114.615 256 256 256"/><path fill="url(#paint0_radial_9177_781)" d="m397.075 154.5-28.359 44.082a126.46 126.46 0 0 1 12.068 77.096 126.52 126.52 0 0 1-35.484 69.513 126.7 126.7 0 0 1-69.546 35.5 126.74 126.74 0 0 1-77.164-12.01l-44.09 28.577a174 174 0 0 0 224.661-18.247 173.7 173.7 0 0 0 50.289-108.963A173.66 173.66 0 0 0 397.075 154.5"/><path fill="url(#paint1_radial_9177_781)" d="M255.994 343a87.42 87.42 0 0 0 55.867-20.185 87.23 87.23 0 0 0 30.024-51.201 200.1 200.1 0 0 0-82.673-.285 200 200 0 0 0-75.712 33.16 87.24 87.24 0 0 0 31.429 28.301A87.37 87.37 0 0 0 255.994 343"/><path fill="#fff" d="M298.608 250.94c14.847 0 29.651 1.59 44.159 4.744a87.1 87.1 0 0 0-26.036-60.602 87.087 87.087 0 0 0-122.083 0 87.1 87.1 0 0 0-26.036 60.602c.004 3.897.281 7.789.826 11.647a191 191 0 0 0-32.672 30.277 126.15 126.15 0 0 1 35.651-136.61 126.12 126.12 0 0 1 140.023-17.974l43.945-28.411a173.21 173.21 0 0 0-224.61 19.096 173.253 173.253 0 0 0-15.556 224.906 210 210 0 0 1 29.661-40.884s17.083-17.857 30.194-26.813a207.35 207.35 0 0 1 122.534-39.978"/><defs><radialGradient id="paint0_radial_9177_781" cx="0" cy="0" r="1" gradientTransform="matrix(544.185 0 0 543.755 451.06 -.348)" gradientUnits="userSpaceOnUse"><stop offset=".1" stop-color="#26DB8D"/><stop offset=".26" stop-color="#23D29A"/><stop offset=".56" stop-color="#1ABBBB"/><stop offset=".89" stop-color="#0E9DE5"/></radialGradient><radialGradient id="paint1_radial_9177_781" cx="0" cy="0" r="1" gradientTransform="matrix(946.115 0 0 1973.19 691.541 -759.169)" gradientUnits="userSpaceOnUse"><stop offset=".1" stop-color="#26DB8D"/><stop offset=".26" stop-color="#23D29A"/><stop offset=".56" stop-color="#1ABBBB"/><stop offset=".89" stop-color="#0E9DE5"/></radialGradient></defs></svg>