<svg xmlns="http://www.w3.org/2000/svg" fill="none" viewBox="0 0 256 256"><path fill="#000" d="M128 256c70.692 0 128-57.308 128-128S198.692 0 128 0 0 57.308 0 128s57.308 128 128 128"/><path fill="#97FCE4" d="M226.993 127.54c.18 16.262-3.213 31.801-9.878 46.648-9.519 21.141-32.338 38.428-53.177 20.027-16.995-14.998-20.147-45.444-45.609-49.901-33.69-4.096-34.5 35.084-56.51 39.511-24.53 4.999-32.668-36.379-32.308-55.171s5.345-45.203 26.664-45.203c24.53 0 26.182 37.252 57.32 35.234 30.836-2.108 31.377-40.866 51.524-57.46 17.385-14.334 37.833-3.824 48.072 13.432 9.488 15.961 13.662 34.693 13.872 52.883z"/></svg>