<svg xmlns="http://www.w3.org/2000/svg" fill="none" viewBox="0 0 343 256"><path fill="#000" d="M342.768 126.767c.312 28.225-5.577 55.195-17.145 80.963-16.52 36.692-56.126 66.694-92.293 34.758-29.496-26.03-34.968-78.872-79.159-86.608-58.472-7.108-59.879 60.892-98.078 68.576C13.517 233.132-.606 161.316.02 128.701c.625-32.616 9.276-78.455 46.276-78.455 42.577 0 45.443 64.656 99.484 61.154 53.521-3.659 54.458-70.928 89.426-99.727 30.173-24.88 65.663-6.638 83.433 23.311 16.468 27.702 23.712 60.213 24.076 91.783z"/></svg>