<svg xmlns="http://www.w3.org/2000/svg" fill="none" viewBox="0 0 256 256"><path fill="#BFF009" d="M0 128C0 57.843 57.308 0 128 0s128 57.843 128 128-57.307 128-128 128C57.308 256 0 198.157 0 128"/><path fill="#040404" d="M124.331 89.98c0-5.678 4.634-10.304 10.319-10.304h18.465V54.61H134.65c-19.561 0-35.424 15.838-35.424 35.37 0 5.097 1.087 9.943 3.03 14.315-15.193 6.412-25.281 20.036-27.63 37.278-2.745 18.929 4.851 39.349 21.395 49.214 14.765 9.284 37.85 8.671 50.321-4.208v8.549h25.698v-94.844h-37.379c-5.686 0-10.33-4.626-10.33-10.304m22.581 35.381v23.807c0 13.153-10.68 23.807-23.843 23.807s-23.843-10.665-23.843-23.807 10.681-23.807 23.843-23.807z"/></svg>
