<svg width="256" height="256" viewBox="0 0 256 256" fill="none" xmlns="http://www.w3.org/2000/svg">
<path fill-rule="evenodd" clip-rule="evenodd" d="M256 128C256 198.692 198.692 256 128 256C57.3075 256 0 198.692 0 128C0 57.3075 57.3075 0 128 0C198.692 0 256 57.3075 256 128Z" fill="black"/>
<path d="M174.534 101.57C187.218 101.57 197.5 91.1447 197.5 78.2848C197.5 65.425 187.218 55 174.534 55C161.851 55 151.569 65.425 151.569 78.2848C151.569 91.1447 161.851 101.57 174.534 101.57Z" fill="white"/>
<path d="M177.524 195.5L65 195.5V75.2881H90.7457V172.202H177.524V195.5Z" fill="white"/>
</svg>
