<svg xmlns="http://www.w3.org/2000/svg" fill="none" viewBox="0 0 256 256"><path fill="#000" d="M128 256c70.692 0 128-57.308 128-128S198.692 0 128 0 0 57.308 0 128s57.308 128 128 128"/><path fill="url(#paint0_linear_9177_780)" fill-rule="evenodd" d="M79.158 194.053c-20.031-14.97-33-38.871-33-65.803 0-45.338 36.755-82.092 82.091-82.092 37.419 0 78.281 22.362 88.162 56.609-11.04-38.27-46.326-66.267-88.16-66.267-50.672 0-91.751 41.079-91.751 91.75 0 50.673 41.08 91.75 91.749 91.75C178.923 220 220 178.923 220 128.25v-4.829h-5.042l-.672-.01q-5.547-.102-11.075-.577c-6.884-.599-14.735-1.766-20.082-3.902-8.602-3.436-13.459-7.991-19.009-13.32l-.32-.309c-5.56-5.339-11.807-11.338-22.631-16.432-10.661-5.018-22.452-4.213-31.118-2.43a79 79 0 0 0-10.843 3.067c-1.34.485-2.413.918-3.166 1.235-4.36 1.835-8.592 4.008-12.872 6.022 0 0 8.397 2.303 12.548 3.589q1.668.535 3.293 1.192a48.6 48.6 0 0 1 7.915 4.056c4.478 2.878 8.192 6.502 9.715 10.95-9.507 1.25-18.425 5.424-25.095 9.347a103 103 0 0 0-9.764 6.535 85 85 0 0 0-2.76 2.175c-.545.448-9.132 8.016-9.132 8.016s11.077 1.178 16.544 2.279c3.635.734 8.537 1.912 13.65 3.695 5.137 1.793 10.328 4.141 14.633 7.147 4.316 3.013 7.476 6.494 9.034 10.481 4.544 11.609.087 22.916-8.862 29.277-8.842 6.285-22.287 7.78-35.73-1.451m31.306 14.358a37 37 0 0 0 10.019-5.034c12.179-8.658 18.586-24.512 12.264-40.67-2.485-6.347-7.231-11.203-12.501-14.88-5.28-3.686-11.357-6.384-16.979-8.345a111 111 0 0 0-10.399-3.042 91 91 0 0 1 3.572-2.218c7.434-4.371 16.794-8.386 25.771-8.386 13.532 0 23.609 4.152 33.23 8.607q1.311.609 2.635 1.23c8.598 4.035 17.627 8.271 28.118 8.271 10.174 0 18.1-2.878 23.561-5.853-4.861 40.701-39.496 72.251-81.506 72.251a82.4 82.4 0 0 1-17.785-1.931m88.857-76.25c-3.615 1.235-7.999 2.125-13.125 2.125-8.229 0-15.3-3.297-24.279-7.483l-2.416-1.124c-8.988-4.162-19.388-8.574-32.926-9.374-1.814-8.962-8.609-15.086-14.426-18.827a51 51 0 0 0-1.936-1.184c.579-.135 1.178-.27 1.784-.394 7.818-1.61 17.155-2.01 25.061 1.71 9.383 4.415 14.677 9.499 20.184 14.788l.189.181c5.666 5.441 11.66 11.145 22.115 15.321 5.811 2.32 13.328 3.568 19.775 4.261" clip-rule="evenodd"/><defs><linearGradient id="paint0_linear_9177_780" x1="34.855" x2="221.645" y1="129.946" y2="126.529" gradientUnits="userSpaceOnUse"><stop stop-color="#29CCB9"/><stop offset=".49" stop-color="#0091FF"/><stop offset="1" stop-color="#FF66B7"/></linearGradient></defs></svg>