<svg xmlns="http://www.w3.org/2000/svg" fill="none" viewBox="0 0 256 256"><path fill="#000" d="M52.688 89.767 13.87 70.003a127.5 127.5 0 0 0-7.68 18.59l41.449 13.404a84 84 0 0 1 5.049-12.23m32.974-34.833 21.5 37.047a41.3 41.3 0 0 1 9.997-4.162l-11.127-41.365a83 83 0 0 1 8.603-1.848l-6.838-43.025A128 128 0 0 0 88.26 6.287l13.297 40.75a85 85 0 0 0-12.314 5.123L69.699 14.012a128.4 128.4 0 0 0-17.094 10.529l25.681 35.186a86 86 0 0 1 7.376-4.793m115.376 30.694-37.032 21.521a41.3 41.3 0 0 1 4.167 9.991l41.362-11.148a84 84 0 0 1 1.85 8.597l43.018-6.85a128 128 0 0 0-4.718-19.54l-40.743 13.321a85 85 0 0 0-5.13-12.31l38.134-19.57a128.6 128.6 0 0 0-10.534-17.085l-35.176 25.698a85 85 0 0 1 4.802 7.375m-15.101-71.79a128 128 0 0 0-18.591-7.67l-13.38 41.456a84 84 0 0 1 12.233 5.046zm-15.468 40.337-21.746 37.743a41.8 41.8 0 0 1 8.636 6.61l60.992-61.2a129 129 0 0 0-15.276-13.015l-25.156 34.694a86 86 0 0 0-7.45-4.832M54.2 85.492l37.733 21.77a42 42 0 0 1 6.62-8.64L37.38 37.607a129 129 0 0 0-13.02 15.27L59.04 78.05a85 85 0 0 0-4.839 7.443m87.003-41.619 6.582-42.35A129 129 0 0 0 127.999 0h-.1v86.407h.1c3.643 0 7.246.467 10.714 1.387l11.173-42.105a85 85 0 0 0-8.682-1.815m-53.409 73.39-42.098-11.203a84 84 0 0 0-1.82 8.682l-42.344-6.601A129 129 0 0 0 0 127.997h86.405c0-3.649.467-7.262 1.39-10.733m115.517 48.976 38.818 19.764a127.6 127.6 0 0 0 7.68-18.591l-41.449-13.403a84 84 0 0 1-5.049 12.23m-32.976 34.824-21.5-37.047a41.3 41.3 0 0 1-9.997 4.161l11.128 41.366a83 83 0 0 1-8.604 1.848l6.834 43.021a128 128 0 0 0 19.538-4.705l-13.296-40.751a85 85 0 0 0 12.314-5.123l19.543 38.148a128.5 128.5 0 0 0 17.093-10.528l-25.681-35.187a86 86 0 0 1-7.372 4.797M54.963 170.38 92 148.86a41.3 41.3 0 0 1-4.167-9.991L46.47 150.017a84 84 0 0 1-1.85-8.598L1.599 148.27a128 128 0 0 0 4.718 19.541l40.743-13.323a85 85 0 0 0 5.13 12.312l-38.135 19.57a128.6 128.6 0 0 0 10.535 17.084l35.176-25.698a85 85 0 0 1-4.803-7.376m15.1 71.786a128 128 0 0 0 18.59 7.671l13.381-41.457a84.4 84.4 0 0 1-12.234-5.046zm15.467-40.332 21.747-37.743a42 42 0 0 1-8.636-6.61l-60.993 61.201a129 129 0 0 0 15.276 13.014l25.156-34.694a86 86 0 0 0 7.45 4.832m116.268-31.318-37.733-21.77a42 42 0 0 1-6.62 8.639l61.171 61.021a129 129 0 0 0 13.021-15.27l-34.681-25.173a85 85 0 0 0 4.842-7.447m-84.511-2.31-11.173 42.105a85 85 0 0 0 8.681 1.815l-6.578 42.351A129 129 0 0 0 128.004 256h.1v-86.407h-.1c-3.643 0-7.25-.467-10.717-1.387m52.308-40.2c0 3.649-.469 7.259-1.393 10.733l42.097 11.203a84 84 0 0 0 1.821-8.682l42.348 6.605A129.4 129.4 0 0 0 256 128.009z"/></svg>
