<svg xmlns="http://www.w3.org/2000/svg" fill="none" viewBox="0 0 256 256"><path fill="#000" fill-rule="evenodd" d="M59.513 219.802c-27.947-20.885-46.04-54.229-46.04-91.802C13.474 64.75 64.752 13.474 128 13.474c52.203 0 109.208 31.197 122.994 78.974C235.592 39.058 186.364 0 128.001 0 57.31 0 0 57.309 0 128c0 70.694 57.31 128 127.999 128C198.693 256 256 198.694 256 128v-6.737h-7.034l-.938-.013a230 230 0 0 1-15.45-.806c-9.604-.835-20.557-2.463-28.017-5.443-12-4.794-18.776-11.149-26.519-18.583l-.447-.431c-7.756-7.449-16.471-15.819-31.571-22.925-14.874-7-31.324-5.877-43.413-3.39a110 110 0 0 0-15.128 4.28 93 93 0 0 0-4.416 1.722c-6.084 2.56-11.987 5.591-17.958 8.402 0 0 11.715 3.212 17.505 5.007a66 66 0 0 1 4.595 1.662 68 68 0 0 1 11.041 5.66c6.248 4.014 11.43 9.07 13.555 15.276-13.264 1.743-25.706 7.566-35.01 13.04a143 143 0 0 0-13.623 9.116 118 118 0 0 0-3.85 3.034c-.76.625-12.74 11.183-12.74 11.183s15.454 1.644 23.081 3.18c5.071 1.024 11.909 2.668 19.043 5.155 7.166 2.501 14.408 5.778 20.414 9.971 6.022 4.203 10.43 9.059 12.604 14.621 6.339 16.196.121 31.971-12.364 40.844-12.335 8.769-31.092 10.855-49.847-2.023m43.674 20.03a51.7 51.7 0 0 0 13.977-7.023c16.991-12.078 25.93-34.196 17.11-56.738-3.466-8.854-10.089-15.629-17.441-20.76-7.366-5.141-15.844-8.906-23.686-11.641a154 154 0 0 0-14.508-4.244 127 127 0 0 1 4.982-3.094c10.372-6.098 23.431-11.7 35.954-11.7 18.878 0 32.936 5.793 46.359 12.007q1.83.85 3.676 1.717c11.995 5.629 24.591 11.539 39.228 11.539 14.193 0 25.251-4.015 32.87-8.165-6.782 56.78-55.102 100.796-113.709 100.796-8.519 0-16.822-.929-24.812-2.694m123.964-106.375c-5.044 1.722-11.16 2.964-18.31 2.964-11.481 0-21.346-4.6-33.872-10.439l-3.371-1.569c-12.54-5.807-27.047-11.962-45.934-13.077-2.532-12.504-12.012-21.046-20.126-26.266a72 72 0 0 0-2.701-1.652 91 91 0 0 1 2.488-.55c10.907-2.244 23.934-2.805 34.962 2.385 13.092 6.16 20.476 13.253 28.16 20.631l.264.254c7.904 7.591 16.266 15.548 30.852 21.374 8.106 3.237 18.593 4.977 27.588 5.945" clip-rule="evenodd"/></svg>
