<svg xmlns="http://www.w3.org/2000/svg" fill="none" viewBox="0 0 512 512"><path fill="#000" d="M256 512c141.385 0 256-114.615 256-256S397.385 0 256 0 0 114.615 0 256s114.615 256 256 256"/><path fill="url(#paint0_linear_9177_780)" fill-rule="evenodd" d="M158.317 388.106c-40.064-29.939-66.001-77.742-66.001-131.606 0-90.676 73.51-164.184 164.182-164.184 74.839 0 156.561 44.724 176.325 113.217C410.743 128.993 340.17 73 256.502 73 155.159 73 73 155.158 73 256.5 73 357.846 155.159 440 256.498 440 357.845 440 440 357.846 440 256.5v-9.658h-10.085l-1.343-.019a329 329 0 0 1-22.15-1.155c-13.768-1.198-29.47-3.531-40.164-7.804-17.204-6.872-26.918-15.982-38.018-26.64l-.641-.618c-11.119-10.678-23.613-22.677-45.26-32.864-21.324-10.037-44.906-8.426-62.237-4.86a158 158 0 0 0-21.686 6.135c-2.68.969-4.826 1.835-6.332 2.468-8.722 3.67-17.185 8.016-25.744 12.046 0 0 16.794 4.604 25.095 7.177a94 94 0 0 1 6.587 2.384 97 97 0 0 1 15.829 8.112c8.957 5.757 16.386 13.004 19.432 21.901-19.015 2.499-36.852 10.847-50.191 18.694a205 205 0 0 0-19.528 13.069 169 169 0 0 0-5.521 4.35c-1.089.896-18.262 16.032-18.262 16.032s22.153 2.356 33.087 4.558c7.27 1.468 17.073 3.825 27.3 7.39 10.274 3.585 20.656 8.283 29.266 14.294 8.632 6.027 14.953 12.988 18.068 20.962 9.089 23.217.174 45.832-17.725 58.553-17.682 12.571-44.573 15.561-71.46-2.901m62.611 28.715a74 74 0 0 0 20.038-10.067c24.358-17.315 37.172-49.024 24.528-81.339-4.969-12.694-14.463-22.406-25.003-29.762-10.559-7.371-22.713-12.768-33.956-16.689a221 221 0 0 0-20.798-6.084 182 182 0 0 1 7.142-4.435c14.868-8.742 33.589-16.774 51.542-16.774 27.065 0 47.218 8.306 66.461 17.214q2.624 1.22 5.27 2.461c17.196 8.07 35.253 16.542 56.237 16.542 20.347 0 36.199-5.756 47.121-11.705-9.721 81.4-78.992 144.501-163.012 144.501a164.8 164.8 0 0 1-35.57-3.863m177.715-152.498c-7.232 2.468-16 4.249-26.25 4.249-16.459 0-30.601-6.594-48.558-14.966l-4.834-2.248c-17.976-8.325-38.774-17.148-65.85-18.748-3.629-17.925-17.22-30.171-28.852-37.654a104 104 0 0 0-3.873-2.368c1.158-.271 2.355-.541 3.568-.788 15.636-3.218 34.311-4.022 50.121 3.419 18.768 8.831 29.354 18.999 40.369 29.576l.378.363c11.332 10.883 23.32 22.291 44.23 30.643 11.621 4.639 26.655 7.135 39.551 8.522" clip-rule="evenodd"/><defs><linearGradient id="paint0_linear_9177_780" x1="69.711" x2="443.29" y1="259.892" y2="253.058" gradientUnits="userSpaceOnUse"><stop stop-color="#29CCB9"/><stop offset=".49" stop-color="#0091FF"/><stop offset="1" stop-color="#FF66B7"/></linearGradient></defs></svg>