<svg xmlns="http://www.w3.org/2000/svg" fill="none" viewBox="0 0 256 256"><path fill="#000" d="M128 256c70.692 0 128-57.308 128-128S198.692 0 128 0 0 57.308 0 128s57.308 128 128 128"/><path fill="#fff" d="M72.871 100.014 44.457 85.546a93.4 93.4 0 0 0-5.622 13.609l30.34 9.811a61 61 0 0 1 3.696-8.952m24.137-25.498 15.739 27.118a30.2 30.2 0 0 1 7.318-3.046l-8.146-30.28a61 61 0 0 1 6.298-1.352l-5.005-31.495a93.6 93.6 0 0 0-14.301 3.445l9.732 29.829a62 62 0 0 0-9.014 3.75L85.325 44.561a94 94 0 0 0-12.513 7.707L91.61 78.024a63 63 0 0 1 5.4-3.508m84.454 22.468-27.108 15.753a30.2 30.2 0 0 1 3.051 7.314l30.276-8.161a62 62 0 0 1 1.355 6.293l31.489-5.014a93.5 93.5 0 0 0-3.454-14.304l-29.824 9.752a62 62 0 0 0-3.755-9.012l27.915-14.325a94 94 0 0 0-7.712-12.506l-25.748 18.811a62 62 0 0 1 3.515 5.399M170.41 44.433a94 94 0 0 0-13.609-5.615l-9.794 30.347a62 62 0 0 1 8.955 3.693zM159.088 73.96l-15.919 27.628a30.6 30.6 0 0 1 6.321 4.839l44.647-44.8a94.5 94.5 0 0 0-11.182-9.526l-18.414 25.396a63 63 0 0 0-5.453-3.537M73.979 96.884l27.62 15.936a30.7 30.7 0 0 1 4.846-6.324l-44.78-44.664a94.5 94.5 0 0 0-9.53 11.177L77.52 91.436a62 62 0 0 0-3.541 5.448m63.686-30.464 4.818-31.001a94.6 94.6 0 0 0-14.484-1.115h-.073v63.25h.073c2.667 0 5.304.342 7.843 1.015l8.178-30.82a62 62 0 0 0-6.355-1.329M98.57 120.141l-30.815-8.2a62 62 0 0 0-1.334 6.355l-30.995-4.832a95 95 0 0 0-1.122 14.534h63.248c0-2.671.342-5.316 1.018-7.857m84.558 35.851 28.415 14.467a93.4 93.4 0 0 0 5.622-13.608l-30.341-9.812a61.4 61.4 0 0 1-3.696 8.953m-24.138 25.491-15.738-27.118a30.2 30.2 0 0 1-7.318 3.045l8.146 30.28a61 61 0 0 1-6.298 1.353l5.002 31.491a93.6 93.6 0 0 0 14.302-3.444l-9.733-29.829a62 62 0 0 0 9.014-3.75l14.305 27.924a94 94 0 0 0 12.513-7.707l-18.798-25.756a63 63 0 0 1-5.397 3.511m-84.453-22.461 27.11-15.752a30.3 30.3 0 0 1-3.05-7.314l-30.277 8.16a62 62 0 0 1-1.354-6.293l-31.492 5.015a93.5 93.5 0 0 0 3.454 14.303l29.824-9.752a62 62 0 0 0 3.755 9.013l-27.915 14.325a94 94 0 0 0 7.712 12.505l25.748-18.811a62 62 0 0 1-3.515-5.399M85.59 211.57a94 94 0 0 0 13.608 5.615l9.795-30.347a61.6 61.6 0 0 1-8.955-3.694zm11.322-29.524 15.919-27.627a30.7 30.7 0 0 1-6.322-4.839l-44.646 44.799a94.5 94.5 0 0 0 11.182 9.527l18.414-25.396a63 63 0 0 0 5.453 3.536m85.108-22.924-27.62-15.936a30.7 30.7 0 0 1-4.846 6.324l44.777 44.667A94.4 94.4 0 0 0 203.862 183l-25.386-18.427a62 62 0 0 0 3.544-5.451m-61.862-1.691-8.179 30.821c2.093.555 4.213.994 6.355 1.328l-4.815 31.001a94.6 94.6 0 0 0 14.484 1.115h.073v-63.25h-.073c-2.667 0-5.307-.342-7.845-1.015m38.29-29.426c0 2.671-.344 5.313-1.02 7.856l30.815 8.2a61 61 0 0 0 1.333-6.355l30.998 4.835a95 95 0 0 0 1.122-14.534z"/></svg>
