<svg xmlns="http://www.w3.org/2000/svg" fill="none" viewBox="0 0 512 512"><path fill="#000" d="M256 512c141.385 0 256-114.615 256-256S397.385 0 256 0 0 114.615 0 256s114.615 256 256 256"/><path fill="#fff" d="m145.743 200.027-56.83-28.935a187 187 0 0 0-11.243 27.217l60.681 19.622a123 123 0 0 1 7.392-17.904m48.274-50.995 31.477 54.236a60.5 60.5 0 0 1 14.635-6.092l-16.29-60.56a122 122 0 0 1 12.595-2.704l-10.011-62.99a187 187 0 0 0-28.602 6.89l19.466 59.658a124 124 0 0 0-18.028 7.501l-28.612-55.85c-8.7 4.46-17.116 9.64-25.025 15.415l37.597 51.513c3.463-2.525 7.087-4.859 10.798-7.017m168.911 44.936-54.215 31.506a60.5 60.5 0 0 1 6.101 14.627l60.553-16.321a123 123 0 0 1 2.709 12.587l62.978-10.03a187 187 0 0 0-6.907-28.606l-59.648 19.503a124.5 124.5 0 0 0-7.51-18.024l55.828-28.65a188 188 0 0 0-15.422-25.011l-51.498 37.622a124 124 0 0 1 7.031 10.797M340.82 88.866a187.6 187.6 0 0 0-27.217-11.23l-19.589 60.694a123.4 123.4 0 0 1 17.909 7.386zm-22.645 59.054-31.837 55.256a61.3 61.3 0 0 1 12.643 9.678l89.293-89.599a189 189 0 0 0-22.364-19.053l-36.828 50.792a126 126 0 0 0-10.907-7.074m-170.218 45.848 55.24 31.872a61.4 61.4 0 0 1 9.693-12.649l-89.559-89.328a189 189 0 0 0-19.062 22.355l50.771 36.853a125 125 0 0 0-7.083 10.897m127.374-60.928 9.635-62.002a189 189 0 0 0-28.967-2.23h-.147v126.5h.147c5.333 0 10.608.683 15.684 2.031l16.357-61.642a124 124 0 0 0-12.709-2.657M197.14 240.283l-61.631-16.401a123 123 0 0 0-2.666 12.71l-61.991-9.665a189 189 0 0 0-2.244 29.069h126.496a61.2 61.2 0 0 1 2.036-15.713m169.117 71.7 56.829 28.935a187 187 0 0 0 11.243-27.217l-60.681-19.623a123 123 0 0 1-7.391 17.905m-48.277 50.982-31.477-54.236a60.5 60.5 0 0 1-14.635 6.092l16.291 60.559a122 122 0 0 1-12.595 2.705l10.005 62.984a187 187 0 0 0 28.602-6.889l-19.465-59.659a124 124 0 0 0 18.028-7.5l28.611 55.849c8.7-4.459 17.117-9.64 25.025-15.414l-37.597-51.513a125 125 0 0 1-10.793 7.022m-168.906-44.92 54.221-31.506a60.5 60.5 0 0 1-6.102-14.627l-60.553 16.32a123 123 0 0 1-2.709-12.586l-62.983 10.029a187 187 0 0 0 6.908 28.608l59.647-19.504a124.4 124.4 0 0 0 7.51 18.024l-55.828 28.65a188 188 0 0 0 15.423 25.011l51.497-37.621a124 124 0 0 1-7.031-10.798m22.106 105.094a187.6 187.6 0 0 0 27.217 11.23l19.589-60.693a123.4 123.4 0 0 1-17.91-7.387zm22.644-59.046 31.838-55.256a61.3 61.3 0 0 1-12.644-9.677l-89.293 89.598a189 189 0 0 0 22.364 19.054l36.828-50.792a126 126 0 0 0 10.907 7.073m170.217-45.849L308.8 286.373a61.4 61.4 0 0 1-9.692 12.647l89.554 89.334a189 189 0 0 0 19.062-22.355l-50.772-36.852a125 125 0 0 0 7.089-10.903m-123.725-3.382-16.357 61.642a125 125 0 0 0 12.709 2.657l-9.63 62.001a189 189 0 0 0 28.967 2.23h.147v-126.5h-.147a61.2 61.2 0 0 1-15.689-2.03m76.58-58.853c0 5.342-.688 10.627-2.04 15.713l61.63 16.4a123 123 0 0 0 2.666-12.709l61.997 9.669a189.4 189.4 0 0 0 2.243-29.069z"/></svg>