<svg xmlns="http://www.w3.org/2000/svg" fill="none" viewBox="0 0 256 256"><path fill="#fff" d="M30.109 210.475a129 129 0 0 0 13.69 13.933c10.461-11.665 62.805-68.1 63.626-68.452 1.108-.781 7.104-2.28 7.235-1.954l2.867 19.151c3.259 22.016 3.129 21.495 6.453 21.495h.032c3.292 0 3.301 0 6.159-19.867l2.607-17.001 26.461 19.541 26.982 19.867c2.216 1.108 5.28-.977 5.214-3.582 0-1.303 2.282 1.889-20.269-28.53-10.688-14.461-19.422-26.316-19.292-26.316l17.402-2.605c13.296-2.02 17.337-2.671 17.793-2.997 2.281-1.759 2.281-4.559-.065-6.318l-.006-.004c-.646-.452-.663-.464-28.671-4.556l-.236-.04c-3.655-.63-6.215-1.071-6.151-1.262a3614 3614 0 0 1 19.682-26.707c11.667-15.698 19.683-26.771 19.813-27.162a3.9 3.9 0 0 0-1.006-3.358 3.9 3.9 0 0 0-3.295-1.202c-.587.065-8.277 5.602-27.634 19.932l-26.787 19.867-1.303-9.119c-3.78-25.273-3.846-25.599-4.302-26.25-1.694-2.28-4.562-2.28-6.257-.066-.391.522-1.042 4.495-2.998 17.848l-2.607 17.392c0 .065-12.057-8.729-26.721-19.541-14.6-10.878-26.917-19.867-27.374-19.998-2.802-.781-5.67 2.606-4.366 5.146l39.365 53.413c-.065.065-7.69 1.303-17.01 2.605-19.879 2.932-19.879 2.932-19.879 6.254s-.456 3.126 21.508 6.383l19.161 2.931a22.3 22.3 0 0 1-1.825 7.165c-.651 1.499-1.368 2.215-35.585 33.872z"/><path fill="url(#paint0_linear_9180_815)" d="M128 256c70.692 0 128-57.308 128-128S198.692 0 128 0 0 57.308 0 128c0 31.422 11.322 60.199 30.109 82.475l32.411-30.092c34.217-31.657 34.934-32.373 35.586-33.872a22.3 22.3 0 0 0 1.824-7.165l-19.161-2.931c-21.964-3.257-21.508-3.061-21.508-6.383s0-3.322 19.879-6.254c9.32-1.302 16.945-2.54 17.01-2.605L56.785 67.76c-1.304-2.54 1.564-5.927 4.367-5.146.456.13 12.774 9.12 27.373 19.998 14.664 10.812 26.721 19.606 26.721 19.541l2.607-17.392c1.956-13.353 2.607-17.326 2.998-17.847 1.695-2.215 4.563-2.215 6.257.065.456.651.522.977 4.302 26.25l1.303 9.119L159.5 82.481c19.357-14.33 27.047-19.867 27.634-19.932a3.91 3.91 0 0 1 4.301 4.56c-.13.39-8.146 11.464-19.813 27.162a3614 3614 0 0 0-19.682 26.707c-.064.191 2.496.632 6.151 1.262l.236.04c28.008 4.092 28.025 4.104 28.671 4.556l.006.004c2.346 1.759 2.346 4.559.065 6.318-.456.326-4.497.977-17.793 2.997l-17.402 2.605c-.13 0 8.604 11.855 19.292 26.316 22.551 30.419 20.269 27.227 20.269 28.53.066 2.605-2.998 4.69-5.214 3.582l-26.982-19.867-26.461-19.541-2.607 17.001c-2.858 19.867-2.867 19.867-6.159 19.867h-.032c-3.324 0-3.194.521-6.453-21.495l-2.867-19.151c-.131-.326-6.127 1.173-7.235 1.954-.821.352-53.165 56.787-63.627 68.452C66.304 244.081 95.76 256 128 256"/><defs><linearGradient id="paint0_linear_9180_815" x1="-6.5" x2="246.5" y1="68.75" y2="178.75" gradientUnits="userSpaceOnUse"><stop stop-color="#3420ED"/><stop offset="1" stop-color="#A97FFF"/></linearGradient></defs></svg>