<svg xmlns="http://www.w3.org/2000/svg" fill="none" viewBox="0 0 256 256"><path fill="#000" d="M0 233.969A203.6 203.6 0 0 0 21.645 256c16.542-18.444 99.305-107.676 100.603-108.232 1.752-1.236 11.233-3.605 11.439-3.09l4.534 30.28c5.153 34.811 4.947 33.987 10.202 33.987h.051c5.205 0 5.22 0 9.739-31.413l4.122-26.88 41.838 30.897 42.663 31.412c3.504 1.751 8.347-1.544 8.244-5.664 0-2.06 3.607 2.987-32.048-45.11-16.901-22.864-30.709-41.609-30.503-41.609l27.514-4.12c21.022-3.192 27.412-4.222 28.133-4.737 3.607-2.781 3.607-7.21-.103-9.99l-.009-.007c-1.021-.714-1.048-.733-45.333-7.203l-.373-.064c-5.779-.996-9.827-1.693-9.726-1.996a5727 5727 0 0 1 31.121-42.226c18.446-24.821 31.121-42.33 31.327-42.948a6.18 6.18 0 0 0-3.971-6.876 6.2 6.2 0 0 0-2.83-.333c-.927.103-13.087 8.857-43.693 31.515l-42.354 31.413-2.061-14.419c-5.977-39.96-6.08-40.476-6.801-41.506-2.68-3.604-7.214-3.604-9.893-.103-.618.824-1.649 7.107-4.741 28.22l-4.122 27.499c0 .103-19.064-13.801-42.25-30.898C69.28 14.6 49.804.387 49.083.181c-4.431-1.236-8.966 4.12-6.905 8.136l62.243 84.453c-.103.103-12.16 2.06-26.896 4.12-31.43 4.635-31.43 4.635-31.43 9.887s-.722 4.944 34.006 10.093l30.297 4.635a35.3 35.3 0 0 1-2.886 11.329c-1.03 2.369-2.164 3.502-56.265 53.556z"/></svg>