<svg xmlns="http://www.w3.org/2000/svg" fill="none" viewBox="0 0 512 512"><path fill="#fff" d="M60.218 420.949a257.5 257.5 0 0 0 27.379 27.867c20.924-23.33 125.611-136.2 127.254-136.903 2.216-1.564 14.208-4.56 14.469-3.909l5.735 38.301c6.517 44.033 6.257 42.991 12.905 42.991h.064c6.583 0 6.602 0 12.319-39.734l5.214-34.002 52.921 39.083 53.965 39.733c4.432 2.215 10.558-1.954 10.428-7.165 0-2.605 4.562 3.778-40.539-57.06-21.377-28.921-38.844-52.631-38.583-52.631l34.803-5.211c26.591-4.039 34.673-5.341 35.585-5.993 4.563-3.517 4.563-9.119-.13-12.636l-.011-.008c-1.292-.904-1.326-.928-57.343-9.111l-.472-.082c-7.309-1.259-12.429-2.141-12.302-2.524a7272 7272 0 0 1 39.366-53.413c23.332-31.396 39.365-53.543 39.626-54.324a7.82 7.82 0 0 0-2.012-6.717 7.82 7.82 0 0 0-6.591-2.402c-1.173.13-16.555 11.203-55.268 39.864l-53.574 39.733-2.607-18.238c-7.56-50.547-7.69-51.198-8.603-52.501-3.389-4.559-9.124-4.559-12.513-.13-.782 1.042-2.086 8.989-5.996 35.695l-5.214 34.784c0 .13-24.115-17.457-53.443-39.083-29.199-21.756-53.835-39.734-54.747-39.994-5.605-1.563-11.34 5.211-8.733 10.292l78.73 106.825c-.13.13-15.381 2.605-34.021 5.211-39.756 5.862-39.756 5.862-39.756 12.506s-.913 6.253 43.015 12.767l38.323 5.863a44.7 44.7 0 0 1-3.65 14.33c-1.304 2.996-2.737 4.429-71.171 67.743z"/><path fill="url(#paint0_linear_9180_815)" d="M256 512c141.385 0 256-114.615 256-256S397.385 0 256 0 0 114.615 0 256c0 62.843 22.644 120.398 60.218 164.949l64.822-60.183c68.434-63.314 69.867-64.747 71.171-67.743a44.7 44.7 0 0 0 3.65-14.33l-38.323-5.863c-43.928-6.514-43.015-6.123-43.015-12.767s0-6.644 39.756-12.506c18.64-2.606 33.891-5.081 34.021-5.211l-78.73-106.825c-2.607-5.081 3.128-11.855 8.733-10.292.912.26 25.548 18.238 54.747 39.994 29.328 21.626 53.443 39.213 53.443 39.083l5.214-34.784c3.91-26.706 5.214-34.653 5.996-35.695 3.389-4.429 9.124-4.429 12.513.13.913 1.303 1.043 1.954 8.603 52.501l2.607 18.238L319 164.963c38.713-28.661 54.095-39.734 55.268-39.864a7.81 7.81 0 0 1 6.591 2.402 7.82 7.82 0 0 1 2.012 6.717c-.261.781-16.294 22.928-39.626 54.324a7272 7272 0 0 0-39.366 53.413c-.127.383 4.993 1.265 12.302 2.524l.472.082c56.017 8.183 56.051 8.207 57.343 9.111l.011.008c4.693 3.517 4.693 9.119.13 12.636-.912.652-8.994 1.954-35.585 5.993l-34.803 5.211c-.261 0 17.206 23.71 38.583 52.631 45.101 60.838 40.539 54.455 40.539 57.06.13 5.211-5.996 9.38-10.428 7.165l-53.965-39.733-52.921-39.083-5.214 34.002c-5.717 39.734-5.736 39.734-12.319 39.734h-.064c-6.648 0-6.388 1.042-12.905-42.991l-5.735-38.301c-.261-.651-12.253 2.345-14.469 3.909-1.643.703-106.33 113.573-127.254 136.903C132.608 488.161 191.52 512 256 512"/><defs><linearGradient id="paint0_linear_9180_815" x1="-13" x2="493" y1="137.5" y2="357.5" gradientUnits="userSpaceOnUse"><stop stop-color="#3420ED"/><stop offset="1" stop-color="#A97FFF"/></linearGradient></defs></svg>