<svg xmlns="http://www.w3.org/2000/svg" fill="none" viewBox="0 0 255 256"><path fill="#000" d="M0 233.969A203.5 203.5 0 0 0 21.63 256c16.53-18.444 99.234-107.676 100.531-108.232 1.751-1.236 11.224-3.605 11.43-3.09l4.531 30.28c5.149 34.811 4.943 33.987 10.195 33.987h.051c5.201 0 5.216 0 9.732-31.413l4.119-26.88 41.808 30.897 42.633 31.412c3.501 1.751 8.341-1.544 8.238-5.664 0-2.06 3.604 2.987-32.026-45.11-16.888-22.864-30.687-41.609-30.481-41.609l27.495-4.12c21.007-3.192 27.392-4.222 28.113-4.737 3.604-2.781 3.604-7.21-.103-9.99l-.009-.007c-1.021-.714-1.048-.733-45.301-7.203l-.373-.064c-5.775-.996-9.82-1.693-9.719-1.996a5724 5724 0 0 1 31.099-42.226c18.433-24.821 31.099-42.33 31.305-42.948a6.177 6.177 0 0 0-6.796-7.209c-.927.103-13.079 8.857-43.663 31.515l-42.323 31.413-2.06-14.419c-5.972-39.96-6.075-40.476-6.796-41.506-2.677-3.604-7.208-3.604-9.886-.103-.618.824-1.647 7.107-4.737 28.22l-4.119 27.499c0 .103-19.05-13.801-42.22-30.898C69.23 14.6 49.768.387 49.048.181c-4.428-1.236-8.96 4.12-6.9 8.136l62.198 84.453c-.103.103-12.151 2.06-26.877 4.12-31.408 4.635-31.408 4.635-31.408 9.887s-.72 4.944 33.983 10.093l30.275 4.635a35.3 35.3 0 0 1-2.884 11.329c-1.029 2.369-2.162 3.502-56.225 53.556z"/></svg>
