<svg xmlns="http://www.w3.org/2000/svg" fill="none" viewBox="0 0 256 256"><path fill="#fff" d="M128 256c70.692 0 128-57.308 128-128S198.692 0 128 0 0 57.308 0 128s57.308 128 128 128"/><path fill="#010F36" fill-rule="evenodd" d="M224.702 116.355c.452 3.81.704 7.697.704 11.645 0 53.565-43.499 97-97.169 97-39.078 0-72.756-23.028-88.19-56.234l15.547-7.81c12.557 27.541 40.359 46.682 72.643 46.682 44.051 0 79.777-35.651 79.777-79.638q0-1.223-.038-2.444zM128.237 31c40.925 0 75.947 25.26 90.262 61.023l-16.626 5.29c-12.029-28.744-40.471-48.951-73.636-48.951-44.05 0-79.776 35.651-79.776 79.638 0 .539.013 1.09.025 1.63l-16.274 13.287A97 97 0 0 1 31.069 128c.013-53.577 43.511-97 97.168-97" clip-rule="evenodd"/><path fill="#010F36" fill-rule="evenodd" d="m20 166.789 95.034-77.595-3.943 32.266 55.465-31.376-2.813 30.637L236.5 97.593l-98.675 54.254 7.372-30.876-57.01 33.357 3.767-23.679z" clip-rule="evenodd"/></svg>
