<svg xmlns="http://www.w3.org/2000/svg" fill="none" viewBox="0 0 256 256"><path fill="#00CFFF" d="M256 128a128 128 0 0 0-21.572-71.113A127.99 127.99 0 0 0 103.029 2.46a128 128 0 1 0 73.956 243.799A127.98 127.98 0 0 0 256 128"/><path fill="#000" d="M221.32 121.772a105 105 0 0 0-9.383-6.326 23.5 23.5 0 0 1-3.876-3.068c-2.421-2.388-6.455-6.578-7.769-9.156-.853-1.582-.505-4.602.159-7.433a19.37 19.37 0 0 0-2.405-14.502l-4.209-6.864a45.6 45.6 0 0 1-4.636-9.963 29 29 0 0 0-7.374-11.845c-6.85-6.69-25.821-9.964-41.564-10.501a29 29 0 0 0-2.959-.696c-7.025-1.202-14.493-3.163-21.218-1.866-9.952 1.85-20.031 4.966-27.547 12.651-1.582 1.582-3.892 2.294-5.522 3.764-3.243 2.926-7.594 2.926-10.474 6.168-1.693 1.898-2.468 8.066-6.883 10.422-7.31 3.922-12.658 8.224-14.477 10.422-1.345 1.66-2.373 3.59-3.67 5.282-1.298 1.692-7.627 4.745-9.494 6.5a13.33 13.33 0 0 0-3.165 11.576c.111.491.19.886.254 1.202.727 2.689 2.69 7.544 2.23 9.774-.522 2.641-7.325 22.314 7.912 27.564a6.8 6.8 0 0 1 4.841 6.453 23.4 23.4 0 0 0 2.231 7.56 12.66 12.66 0 0 0 4.335 4.744 70 70 0 0 1 5.522 5.899c5.38 9.947 3.877 14.914 14.24 18.298a38 38 0 0 1 7.58 3.463 40.6 40.6 0 0 0 9.287 4.112l.412.142c2.294-5.52 4.604-10.771 6.93-15.705a45.85 45.85 0 0 1-11.899-46.02 1.06 1.06 0 0 1 .727-.72 1.06 1.06 0 0 1 .998.23c3.892 3.416 15.727 15.719 14.335 37.955 4.098-8.176 8.069-15.371 11.708-21.508a46.37 46.37 0 0 1-.363-47.792 1.08 1.08 0 0 1 .901-.489 1.08 1.08 0 0 1 .902.489c2.738 4.049 10.142 17.396 5.554 36.453 3.338-5.092 6.044-8.856 7.8-11.213 4.747-31.629 28.67-41.988 34.952-44.186a1.06 1.06 0 0 1 1.424 1.091 55.02 55.02 0 0 1-32.325 44.645c-3.339 4.381-6.535 8.999-9.604 13.744 10.585-8.288 25.441-12.178 37.784-9.189a1.08 1.08 0 0 1 .767.679 1.08 1.08 0 0 1-.15 1.013c-3.545 4.744-17.658 20.56-44.303 16.889a358 358 0 0 0-12.247 22.568c11.472-8.666 28.243-12.002 41.25-7.623a1.08 1.08 0 0 1 .72.748c.048.175.05.36.006.536a1.06 1.06 0 0 1-.252.472c-4.035 4.35-19.588 18.615-45.173 12.953-2.405 5.076-5.98 13.395-7.721 17.507-.601 1.423-1.155 2.846-1.582 4.3-1.124 3.354-2.659 7.545-4.478 11.736a4.74 4.74 0 0 0 1.15 5.334 4.75 4.75 0 0 0 1.65.992 104.2 104.2 0 0 0 62.751 2.324 4.7 4.7 0 0 0 1.845-1.012 4.8 4.8 0 0 0 1.226-1.707c.427-1.013.853-1.978.853-1.978s8.924-20.717 10.237-29.746a24 24 0 0 1 2.611-8.13 8.53 8.53 0 0 1 7.01-4.397c6.787-.363 21.265-1.312 26.534-2.973 7.008-2.23 3.972-14.976 3.591-16.336s3.371-4.571 4.145-6.436c.777-1.867-1.898-2.499-2.99-4.556-1.091-2.055 2.706-3.511 3.244-5.376s-1.234-3.891-1.946-5.267a11.3 11.3 0 0 1-.998-3.163s5.127-3.748 7.912-6.12 2.215-4.317 2.2-4.744"/></svg>
