<svg xmlns="http://www.w3.org/2000/svg" fill="none" viewBox="0 0 232 256"><path fill="#000" d="M152.887 248.616c.26.201.514.396.775.584.377.286.8.65.735 1.124s-.533.695-.956.858c-15.572 5.956-36.071 5.359-52.358 3.644a153.4 153.4 0 0 1-24.93-4.729c-6-1.663-17.98-3.67-22.203-8.49-3.065-3.502 4.203-8.77 6.025-11.167 3.768-4.95 6.612-11.095 9.273-16.694 5.584-11.751 11.772-26.562 13.067-39.56.235-1.423.69-1.748 2.122-1.65q.618.061 1.223.208c1.007.214 2.037.292 3.065.234 2.883-.332 5.707-1.02 8.564-1.397 5.57-.65 26.198-6.801 22.645-15.532a1.681 1.681 0 0 0-1.62-1.039 4.2 4.2 0 0 1-1.77-.565 2.47 2.47 0 0 0-2.525-.078c-1.054.597-2.245.35-3.358.558a37.6 37.6 0 0 0-5.928 1.754c-2.187.78-4.288 1.735-6.449 2.547a8.8 8.8 0 0 0-2.316 1.169 2.6 2.6 0 0 1-.814.448c-1.705.487-3.052 1.676-4.672 2.332a4.2 4.2 0 0 0-1.66 1.124 1.9 1.9 0 0 1-.728.565c-.566.208-1.146.591-1.77.117-2.232-1.695 4.555-14.187 5.499-16.428.846-2.046 2.114-3.248 4.418-2.43a6.1 6.1 0 0 0 2.135.345c1.717-.033 3.442-.085 5.153 0a35.5 35.5 0 0 0 8.317-.832 22 22 0 0 1 2.772-.357 12.5 12.5 0 0 0 4.555-1.416q.36-.145.735-.24c1.302-.397 2.603-.579 3.683-1.553a3.4 3.4 0 0 1 1.256-.598c2.603-.799 4.555-2.553 6.579-4.209a2.063 2.063 0 0 0 .579-2.403 1.946 1.946 0 0 0-1.881-1.611 48 48 0 0 0-6.364.324c-3.253.429-6.305 1.702-9.631 1.624a12.8 12.8 0 0 0-4.554 1.007c-1.647.591-3.332.728-4.992 1.104a12.4 12.4 0 0 0-4.099 1.371c-5.206 2.852-1.4-4.365-.508-6.048a96 96 0 0 1 6.761-10.932 4.7 4.7 0 0 1 1.647-1.618 4.9 4.9 0 0 1 2.303-.285 66 66 0 0 0 37.658-10.66c1.302-.845 2.694-2.111 2.349-3.599-.397-1.728-2.687-2.066-4.457-1.949a90.8 90.8 0 0 0-29.628 6.587c-.768-.519-.195-1.708.423-2.403l9.976-11.238a10.4 10.4 0 0 1 2.472-2.241c1.985-1.15 4.445-.877 6.736-.708a54.93 54.93 0 0 0 32.211-7.795c1.379-.838 2.902-2.138 2.603-3.716-.404-2.027-3.202-2.235-5.252-1.949l-21.702 2.988a1.25 1.25 0 0 1-.65 0c-.885-.383 0-1.676.859-2.11a239.6 239.6 0 0 0 36.382-22.652c1.685-1.3 3.494-3.573 2.141-5.197-.97-1.156-2.811-.838-4.256-.377a84.9 84.9 0 0 0-28.775 15.85c-2.427 2.04-4.848 4.275-7.887 5.197 3.56-7.464 6.6-15.165 9.097-23.047.43-1.339.749-3.027-.306-3.943-1.431-1.254-3.566.253-4.808 1.695-9.332 10.77-17.622 23.151-19.828 37.222-.28 1.766-.469 3.585-1.302 5.196a14.7 14.7 0 0 1-2.284 3.086l-6.755 7.62c-.527.591-1.379 1.227-2.01.76a90 90 0 0 0 2.316-28.94c-.11-1.357-.39-2.936-1.594-3.592-1.711-.935-3.677.74-4.757 2.365-3.514 5.28-5.05 11.66-5.557 17.98s-.052 12.674.097 19.014c.111 4.657-.429 8.444-2.739 12.472-.651 1.15-3.612 7.795-5.518 7.048a.949.949 0 0 1-.612-.987v-3.248a39.5 39.5 0 0 0-.469-5.405 47.5 47.5 0 0 1-.722-6.788 23.5 23.5 0 0 0-1.666-8.653c-.24-.649-.345-1.299-.572-1.948a4.187 4.187 0 0 0-3.904-2.852 2.92 2.92 0 0 0-2.545 1.247 6.6 6.6 0 0 0-1.53 4.294c.098 5.041.092 10.081.13 15.122q-.027.31.033.617c.762 3.125.716 6.379 1.549 9.491.436 1.617.117 3.313.527 4.943q.274 1.69.781 3.326c.755 1.897.937 3.93 1.36 5.898.71 3.3-2.85 8.841-4.035 11.907-1.464 3.82-2.485 1.533-3.754-1.104-1.204-2.501-2.167-5.106-3.254-7.678-1.952-4.664-3.995-9.562-7.848-12.992a4.42 4.42 0 0 0-4.073-.974 2.69 2.69 0 0 0-2.122 2.02 6.33 6.33 0 0 0-.214 3.644c.41 1.533.728 3.099 1.08 4.645a.6.6 0 0 0 .058.143c1.302 1.793 1.595 4.027 2.668 5.911.332.585.605 1.208.879 1.819a30.6 30.6 0 0 0 3.494 6.203c.749.981 1.412 2.053 2.057 3.099.91 1.475 2.14 2.663 3.143 4.04.592.819 1.58 1.144 2.296 1.832a3.385 3.385 0 0 1 .931 3.95 7 7 0 0 1-.273.695 13.8 13.8 0 0 0-1.503 5.047 17.3 17.3 0 0 1-.905 3.612 19 19 0 0 0-1.1 5.632 11.3 11.3 0 0 1-.442 2.761c-.403 1.474-.794 1.805-2.336 1.636a15.4 15.4 0 0 1-4.328-1.201c-5.16-2.287-9.839-5.522-15.012-7.795-2.206-.968-4.444-1.585-6.364-2.878-1.718-1.156-2.876-3.248-4.646-4.216a1.14 1.14 0 0 1-.534-.747 1.05 1.05 0 0 0-.254-.559c-1.575-1.234-1.952-3.248-3.065-4.755a1.7 1.7 0 0 1-.318-.532c-.508-2.111-1.556-4.034-2.22-6.087a16.8 16.8 0 0 0-1.45-3.742c-.834-1.357-1.1-3.001-2.011-4.365a4.67 4.67 0 0 0-2.747-2.117 16.5 16.5 0 0 1-4.652-2.41 3.84 3.84 0 0 1-1.347-2.228 6.4 6.4 0 0 0-1.133-2.469 3.35 3.35 0 0 1-.65-1.578 11 11 0 0 0-.41-1.949c-1.204-2.644-1.25-5.535-1.822-8.315a1.2 1.2 0 0 0-.078-.299c-1.107-1.611-2.09-3.365-4.048-4.118a2.3 2.3 0 0 1-1.028-.65 1.47 1.47 0 0 0-.651-.415 11.24 11.24 0 0 1-4.822-2.911c-1.588-1.448-3.488-2.695-3.813-5.099a.3.3 0 0 0-.046-.149c-1.952-2.384-1.477-5.392-2.115-8.114-.156-.649-.175-1.338-.325-1.994-.273-1.176-.65-2.28-1.854-2.91a2.4 2.4 0 0 1-1.288-2.423c.084-1.741.149-3.45 1.574-4.73.039 0 .084-.07.09-.116.365-2.15 1.953-3.748 2.558-5.788.32-1.059.378-2.02-.592-2.82a1.3 1.3 0 0 1-.24-1.824c.871-1.3.696-2.638.35-4.04A15.3 15.3 0 0 1 3.708 77q.331-1.127.455-2.293.028-.313.143-.605a46 46 0 0 1 3.339-5.846c.989-1.254 2.264-2.293 2.909-3.813.136-.273.351-.5.618-.65 1.301-.779 2.219-2.033 3.43-2.936a12 12 0 0 1 1.613-1.201c1.054-.553 1.178-1.176.533-2.125-.76-1.13-.572-1.805.69-2.338.744-.371 1.531-.65 2.343-.832a2.49 2.49 0 0 0 2.154-2.163c.43-2.04 1.887-3.423 3.026-5.002 1.594-2.202 3.904-1.299 5.817-2.598 2.07-1.351 2.649-3.865 5.408-5.002 2.362-.968 4.92-1.403 7.249-2.436 4.243-1.89 7.34-5.56 10.594-8.912C67.693 13.874 87.905.265 108.48.005c5.922-.078 11.798.818 17.648 1.702 12.767 1.948 26.029 5.196 38.868 5.93 1.992.215 3.768 1.06 5.636 1.663 10.138 3.216 15.865 9.426 20.42 18.988 3.494 7.34 7.119 14.616 10.997 21.761 2.18 4.015 5.629 8.042 6.026 12.765.215 2.559-.865 4.027-1.594 6.32-.866 2.696-.911 5.723-.957 8.523a6.17 6.17 0 0 0 1.581 4.235c2.109 2.345 3.859 4.995 6.163 7.185.852.805 1.347 1.948 2.115 2.858 3.735 4.462 10.047 7.834 14.667 11.348a3.15 3.15 0 0 1 1.399 1.754 2.68 2.68 0 0 1-.39 1.65c-2.18 4.125-7.158 5.736-10.848 8.62a2.094 2.094 0 0 0-.93 2.481c.52 3.04 3.097 5.47 2.772 8.536-.057.52-.302 1-.69 1.351-.814.806-1.627 1.605-2.421 2.43a3.074 3.074 0 0 0-.748 3.333c.146.376.365.72.644 1.012.033.033.065.072.104.104.605.65 1.25 1.254 1.855 1.897 1.23 1.299 1.249 2.189.052 3.527-1.1 1.235-2.278 2.41-3.299 3.729a5.3 5.3 0 0 0-.983 4.352c.351 2.391 1.262 4.671 1.126 7.191-.156 3.183-1.035 7.367-3.54 9.549-1.783 1.559-4.282 1.949-6.631 2.215a367 367 0 0 1-15.898 1.592c-7.242.565-17.661-1.735-21.708 5.638-1.302 2.339-1.952 4.97-2.603 7.548a223 223 0 0 1-11.564 32.98c-3.253 7.327-10.763 17.006-9.188 25.367.657 3.553 3.436 6.236 6.325 8.477"/></svg>