<svg xmlns="http://www.w3.org/2000/svg" fill="none" viewBox="0 0 512 512"><path fill="#2ADACC" d="M512 256a256 256 0 0 1-74.981 181.019 255.997 255.997 0 0 1-362.038 0A256 256 0 1 1 512 256"/><path fill="#fff" d="M313.882 442.231c.402.311.794.612 1.196.902.582.442 1.236 1.003 1.135 1.736-.1.732-.824 1.073-1.477 1.323-24.043 9.198-55.692 8.275-80.841 5.627a237 237 0 0 1-38.491-7.302c-9.264-2.567-27.761-5.666-34.281-13.108-4.733-5.406 6.49-13.54 9.303-17.241 5.818-7.643 10.209-17.131 14.318-25.777 8.62-18.143 18.175-41.011 20.175-61.08.362-2.197 1.065-2.698 3.275-2.548q.957.095 1.889.321c1.554.331 3.146.452 4.733.361 4.45-.511 8.811-1.574 13.222-2.156 8.6-1.003 40.45-10.501 34.964-23.981a2.6 2.6 0 0 0-.998-1.194 2.6 2.6 0 0 0-1.503-.411 6.4 6.4 0 0 1-2.733-.872 3.8 3.8 0 0 0-3.899-.121c-1.627.923-3.466.542-5.184.863a58 58 0 0 0-9.153 2.708c-3.376 1.203-6.621 2.678-9.957 3.931a13.6 13.6 0 0 0-3.577 1.806 4 4 0 0 1-1.256.692c-2.632.752-4.712 2.588-7.214 3.601a6.5 6.5 0 0 0-2.562 1.735 2.9 2.9 0 0 1-1.125.872c-.874.321-1.768.913-2.733.181-3.446-2.618 7.033-21.905 8.49-25.365 1.306-3.16 3.265-5.015 6.822-3.751a9.4 9.4 0 0 0 3.296.531c2.652-.05 5.315-.13 7.957 0 4.316.08 8.626-.351 12.841-1.284a34 34 0 0 1 4.28-.551 19.3 19.3 0 0 0 7.033-2.187q.556-.224 1.135-.371c2.01-.612 4.019-.892 5.687-2.397a5.2 5.2 0 0 1 1.939-.923c4.019-1.233 7.033-3.941 10.158-6.499a3.184 3.184 0 0 0 .894-3.711 3.013 3.013 0 0 0-2.903-2.487 75 75 0 0 0-9.827.501c-5.023.662-9.736 2.628-14.87 2.508a19.7 19.7 0 0 0-7.033 1.554c-2.542.913-5.144 1.124-7.706 1.705a19.1 19.1 0 0 0-6.33 2.117c-8.038 4.403-2.16-6.74-.784-9.338a148 148 0 0 1 10.439-16.88 7.3 7.3 0 0 1 2.542-2.497 7.6 7.6 0 0 1 3.557-.442 101.9 101.9 0 0 0 58.144-16.458c2.01-1.304 4.16-3.26 3.627-5.557-.613-2.668-4.149-3.189-6.882-3.009a140.2 140.2 0 0 0-45.746 10.17c-1.185-.802-.301-2.637.653-3.711l15.403-17.351a16 16 0 0 1 3.818-3.46c3.064-1.775 6.862-1.354 10.399-1.093a84.8 84.8 0 0 0 49.734-12.036c2.13-1.294 4.481-3.3 4.019-5.737-.623-3.129-4.943-3.45-8.108-3.009l-33.508 4.614a1.95 1.95 0 0 1-1.005 0c-1.366-.592 0-2.588 1.327-3.26a370 370 0 0 0 56.174-34.973c2.602-2.006 5.396-5.517 3.306-8.024-1.497-1.785-4.341-1.294-6.571-.582a131.15 131.15 0 0 0-44.43 24.473c-3.747 3.149-7.485 6.599-12.177 8.023a277 277 0 0 0 14.046-35.585c.663-2.066 1.156-4.674-.472-6.088-2.21-1.936-5.506.391-7.425 2.618-14.408 16.629-27.208 35.746-30.614 57.47-.432 2.728-.723 5.536-2.01 8.024a22.6 22.6 0 0 1-3.526 4.764l-10.429 11.765c-.814.912-2.13 1.895-3.105 1.173a139 139 0 0 0 3.577-44.682c-.171-2.096-.603-4.534-2.462-5.547-2.642-1.444-5.676 1.144-7.344 3.651-5.426 8.154-7.797 18.003-8.581 27.762s-.08 19.568.151 29.357c.171 7.191-.663 13.039-4.23 19.257-1.005 1.775-5.576 12.036-8.52 10.882a1.46 1.46 0 0 1-.944-1.524v-5.015a61 61 0 0 0-.724-8.345 73 73 0 0 1-1.115-10.481 36.2 36.2 0 0 0-2.572-13.359c-.372-1.003-.533-2.006-.884-3.009a6.46 6.46 0 0 0-6.029-4.403 4.5 4.5 0 0 0-3.928 1.926 10.18 10.18 0 0 0-2.361 6.629c.15 7.783.14 15.566.201 23.349q-.043.48.05.953c1.175 4.824 1.105 9.849 2.391 14.653.673 2.498.181 5.116.814 7.633a37.5 37.5 0 0 0 1.206 5.135c1.165 2.929 1.446 6.068 2.099 9.107 1.096 5.095-4.4 13.65-6.229 18.384-2.261 5.898-3.838 2.367-5.797-1.705-1.859-3.861-3.346-7.883-5.024-11.855-3.014-7.201-6.169-14.763-12.117-20.059a6.832 6.832 0 0 0-6.29-1.504 4.157 4.157 0 0 0-3.275 3.119 9.77 9.77 0 0 0-.332 5.626c.633 2.367 1.126 4.785 1.668 7.172q.03.116.091.22c2.009 2.769 2.461 6.219 4.119 9.127.513.903.935 1.866 1.357 2.809a47.3 47.3 0 0 0 5.395 9.578c1.155 1.514 2.18 3.169 3.175 4.784 1.407 2.277 3.305 4.112 4.853 6.239.914 1.263 2.441 1.765 3.546 2.828a5.22 5.22 0 0 1 1.437 6.098 10 10 0 0 1-.422 1.073 21.3 21.3 0 0 0-2.321 7.793 26.7 26.7 0 0 1-1.396 5.577 29.2 29.2 0 0 0-1.698 8.695 17.5 17.5 0 0 1-.683 4.263c-.623 2.277-1.226 2.788-3.607 2.527a23.7 23.7 0 0 1-6.682-1.855c-7.967-3.53-15.192-8.525-23.179-12.036-3.406-1.494-6.862-2.447-9.826-4.443-2.653-1.785-4.441-5.015-7.174-6.509a1.76 1.76 0 0 1-.824-1.153 1.6 1.6 0 0 0-.392-.863c-2.431-1.906-3.014-5.015-4.732-7.342a2.7 2.7 0 0 1-.493-.822c-.783-3.26-2.401-6.229-3.426-9.398a26 26 0 0 0-2.24-5.777c-1.286-2.096-1.698-4.634-3.105-6.74a7.2 7.2 0 0 0-4.24-3.27 25.5 25.5 0 0 1-7.184-3.721 5.92 5.92 0 0 1-2.079-3.44 9.9 9.9 0 0 0-1.749-3.811 5.16 5.16 0 0 1-1.004-2.437 17 17 0 0 0-.633-3.009c-1.859-4.082-1.929-8.545-2.814-12.838a1.9 1.9 0 0 0-.12-.462c-1.708-2.487-3.225-5.195-6.25-6.358a3.6 3.6 0 0 1-1.587-1.003 2.3 2.3 0 0 0-1.005-.642 17.36 17.36 0 0 1-7.445-4.493c-2.451-2.237-5.385-4.163-5.888-7.874a.5.5 0 0 0-.07-.23c-3.014-3.681-2.28-8.325-3.265-12.527-.242-1.003-.272-2.067-.503-3.08-.422-1.815-1.004-3.52-2.863-4.493a3.71 3.71 0 0 1-1.99-3.741c.131-2.688.232-5.326 2.432-7.302.06 0 .13-.11.14-.18.563-3.32 3.015-5.787 3.95-8.937.492-1.634.582-3.119-.915-4.352a2.01 2.01 0 0 1-.772-1.332 2 2 0 0 1 .4-1.487c1.346-2.006 1.075-4.072.543-6.238a23.7 23.7 0 0 1-.08-9.759c.34-1.157.575-2.342.703-3.541.028-.319.102-.634.22-.932a71 71 0 0 1 5.155-9.027c1.527-1.936 3.496-3.54 4.491-5.887.21-.422.543-.772.954-1.003 2.01-1.204 3.427-3.14 5.295-4.534a19 19 0 0 1 2.492-1.855c1.628-.853 1.819-1.816.824-3.28-1.175-1.745-.884-2.788 1.065-3.611a15.9 15.9 0 0 1 3.617-1.283 3.831 3.831 0 0 0 3.326-3.34c.663-3.15 2.914-5.286 4.672-7.723 2.461-3.4 6.028-2.006 8.982-4.012 3.195-2.086 4.089-5.968 8.349-7.723 3.648-1.494 7.596-2.166 11.193-3.761 6.551-2.919 11.334-8.585 16.357-13.761 21.1-22.195 52.307-43.207 84.076-43.609 9.143-.12 18.216 1.264 27.249 2.628 19.712 3.009 40.189 8.024 60.012 9.157 3.075.331 5.818 1.635 8.701 2.568 15.654 4.965 24.496 14.553 31.529 29.316 5.395 11.334 10.991 22.567 16.98 33.6 3.365 6.198 8.691 12.417 9.303 19.708.332 3.952-1.336 6.219-2.461 9.759-1.336 4.162-1.407 8.836-1.477 13.159a9.52 9.52 0 0 0 2.441 6.539c3.256 3.621 5.958 7.713 9.515 11.093 1.316 1.244 2.08 3.009 3.266 4.413 5.767 6.891 15.513 12.096 22.646 17.522a4.86 4.86 0 0 1 2.16 2.708 4.14 4.14 0 0 1-.602 2.548c-3.366 6.368-11.052 8.856-16.749 13.309a3.23 3.23 0 0 0-1.437 3.831c.804 4.694 4.782 8.445 4.28 13.179a3.3 3.3 0 0 1-1.065 2.086c-1.256 1.244-2.512 2.478-3.738 3.751a4.73 4.73 0 0 0-1.473 3.322 4.73 4.73 0 0 0 1.313 3.388c.05.05.1.111.16.161.935 1.003 1.93 1.936 2.864 2.928 1.899 2.006 1.929 3.38.08 5.447-1.698 1.905-3.516 3.721-5.094 5.757a8.17 8.17 0 0 0-1.517 6.719c.543 3.691 1.949 7.212 1.738 11.103-.241 4.915-1.597 11.374-5.465 14.744-2.753 2.407-6.612 3.009-10.239 3.42a568 568 0 0 1-24.545 2.457c-11.183.873-27.269-2.678-33.518 8.706-2.01 3.611-3.014 7.673-4.019 11.655a344 344 0 0 1-17.854 50.92c-5.024 11.314-16.618 26.258-14.187 39.166 1.015 5.486 5.305 9.629 9.766 13.089"/></svg>