<svg xmlns="http://www.w3.org/2000/svg" fill="none" viewBox="0 0 256 256"><path fill="#836EF9" d="M128 256c70.692 0 128-57.308 128-128S198.692 0 128 0 0 57.308 0 128s57.308 128 128 128"/><path fill="#fff" d="M127.999 27.5C98.978 27.5 27.5 98.976 27.5 127.999c0 29.024 71.478 100.501 100.499 100.501S228.5 157.022 228.5 127.999C228.5 98.977 157.023 27.5 127.999 27.5m-15.661 157.968c-12.238-3.334-45.142-60.891-41.806-73.13 3.335-12.239 60.891-45.142 73.129-41.806 12.239 3.335 45.143 60.891 41.807 73.13s-60.891 45.142-73.13 41.806"/></svg>