<svg width="256" height="256" viewBox="0 0 256 256" fill="none" xmlns="http://www.w3.org/2000/svg">
<path d="M128 256C198.692 256 256 198.692 256 128C256 57.3075 198.692 0 128 0C57.3075 0 0 57.3075 0 128C0 198.692 57.3075 256 128 256Z" fill="#836EF9"/>
<path d="M127.999 27.5C98.9775 27.5 27.5 98.9756 27.5 127.999C27.5 157.023 98.9775 228.5 127.999 228.5C157.021 228.5 228.5 157.022 228.5 127.999C228.5 98.9769 157.023 27.5 127.999 27.5ZM112.338 185.468C100.1 182.134 67.1963 124.577 70.5318 112.338C73.8672 100.099 131.423 67.1962 143.661 70.5316C155.9 73.8665 188.804 131.423 185.468 143.662C182.133 155.9 124.577 188.804 112.338 185.468Z" fill="white"/>
</svg>
