<svg xmlns="http://www.w3.org/2000/svg" fill="none" viewBox="0 0 512 512"><path fill="#000" d="M256 512c141.385 0 256-114.615 256-256S397.385 0 256 0 0 114.615 0 256s114.615 256 256 256"/><path fill="#836EF9" d="M255.999 55C197.955 55 55 197.951 55 255.999 55 314.046 197.955 457 255.999 457S457 314.044 457 255.999 314.045 55 255.999 55m-31.322 315.937c-24.477-6.67-90.284-121.784-83.613-146.26 6.67-24.478 121.783-90.285 146.258-83.614 24.478 6.67 90.286 121.782 83.615 146.26s-121.784 90.285-146.26 83.614"/></svg>