<svg xmlns="http://www.w3.org/2000/svg" fill="none" viewBox="0 0 512 512"><path fill="#000" d="M256 512c141.385 0 256-114.615 256-256S397.385 0 256 0 0 114.615 0 256s114.615 256 256 256"/><path fill="#E1177C" d="M312.766 411.877c4.283 0 7.955 2.452 7.955 5.518s-3.672 5.517-7.955 5.517H196.5c-4.283 0-7.955-2.452-7.955-5.517s3.672-5.518 7.955-5.518zm-141.355 11.035c4.394 0 7.955-3.568 7.955-7.97s-3.561-7.97-7.955-7.97c-4.393 0-7.955 3.568-7.955 7.97s3.562 7.97 7.955 7.97m69.76-29.427c4.393 0 7.955-3.568 7.955-7.97s-3.562-7.97-7.955-7.97-7.955 3.568-7.955 7.97 3.561 7.97 7.955 7.97m136.459-15.94c4.283 0 7.955 3.679 7.955 7.97s-3.672 7.97-7.955 7.97H263.812c-4.284 0-7.955-3.678-7.955-7.97s3.671-7.97 7.955-7.97zM91.861 364.058c4.394 0 7.955-3.568 7.955-7.97s-3.561-7.97-7.955-7.97c-4.393 0-7.955 3.568-7.955 7.97s3.562 7.97 7.955 7.97m113.206-15.94c4.284 0 7.955 3.678 7.955 7.97s-3.671 7.97-7.955 7.97h-93.624c-4.284 0-7.955-3.679-7.955-7.97s3.671-7.97 7.955-7.97zm209.89 0c4.283 0 7.955 3.678 7.955 7.97s-3.672 7.97-7.955 7.97H228.932c-4.283 0-7.955-3.679-7.955-7.97s3.672-7.97 7.955-7.97zm-34.88-29.427c4.284 0 7.955 3.678 7.955 7.97s-3.671 7.97-7.955 7.97H151.83c-4.284 0-7.955-3.679-7.955-7.97s3.671-7.97 7.955-7.97zm-253.336 15.94c4.393 0 7.955-3.569 7.955-7.97 0-4.402-3.562-7.97-7.955-7.97s-7.955 3.568-7.955 7.97 3.561 7.97 7.955 7.97m205.606-44.754c4.284 0 7.955 3.678 7.955 7.97s-3.671 7.97-7.955 7.97H104.1c-4.284 0-7.955-3.679-7.955-7.97s3.671-7.97 7.955-7.97zm-255.784 15.94c4.394 0 7.955-3.569 7.955-7.97 0-4.402-3.561-7.97-7.955-7.97-4.393 0-7.955 3.568-7.955 7.97s3.562 7.97 7.955 7.97m50.178-29.428c4.393 0 7.955-3.568 7.955-7.97s-3.562-7.969-7.955-7.969-7.955 3.568-7.955 7.969c0 4.402 3.561 7.97 7.955 7.97m275.366-15.939c4.283 0 7.955 3.678 7.955 7.969s-3.672 7.97-7.955 7.97H153.665c-4.283 0-7.955-3.678-7.955-7.97s3.672-7.969 7.955-7.969z"/><path fill="#5FC0C1" d="M319.115 104.68c52.749 22.398 87.915 77.594 83.919 133.59-94.309 0-188.619.8-282.928-.8 0-37.597 12.787-75.994 39.961-102.392 39.962-40.798 106.298-53.597 159.048-30.398"/></svg>