<svg xmlns="http://www.w3.org/2000/svg" fill="none" viewBox="0 0 254 256"><path fill="#000" fill-rule="evenodd" d="M151.496 110.512c-4.541 1.303-2.732 3.246 3.957 4.251 8.143 1.224 41.142.321 42.626-1.166a1.563 1.563 0 0 0 .001-2.199c-1.233-1.238-42.616-2.025-46.584-.886m-30.614 10.568c-10.285.867-14.444 2.105-12.752 3.801.359.361 6.89 1.053 14.511 1.54 19.396 1.237 24.083 2.071 22.212 3.946-.877.878-13.619 2.052-29.651 2.73-26.763 1.135-34.918 2.68-28.336 5.371 1.543.632 24.535 1.148 51.094 1.148s49.552-.516 51.095-1.148c5.456-2.231-.099-4.11-15.904-5.376-22.103-1.773-23.945-4.342-4.706-6.563 8.343-.962 11.006-2.222 8.114-3.836-2.863-1.598-42.291-2.741-55.677-1.613m68.294 1.551-2.927 1.279 2.927 1.257c3.601 1.545 24.949 1.673 26.462.157a1.56 1.56 0 0 0 .005-2.193c-1.594-1.596-23.031-2.001-26.467-.5M72.081 147.498c-8.066.582-15.532 1.595-16.59 2.25-4.536 2.809 2.431 4.333 25.708 5.628 24.147 1.342 111.376.369 119.379-1.331 5.628-1.197 4.173-3.945-2.742-5.187-8.419-1.511-108.637-2.594-125.755-1.36" clip-rule="evenodd"/><path fill="#000" fill-rule="evenodd" d="M246.973 168.158c4.435-12.927 6.842-26.808 6.842-41.25C253.815 56.816 197.176 0 127.348 0 57.499 0 .881 56.816.881 126.908a127 127 0 0 0 7.16 42.172c1.414 4.033-4.782 8.593-4.782 8.593s-1.843 1.88-2.352 2.709c-1.921 3.13.112 5.254 6.376 7.046 7.852 2.246 12.109 5.581 9.932 7.782-.855.867-4.952 3.224-9.105 5.239-13.584 6.594-10.754 9.202 13.44 12.387 8.93 1.174 16.88 2.536 17.667 3.024 3.03 1.875 1.18 4.65-5.151 7.732-13.517 6.578-7.634 9.499 25.346 12.589 12.33 1.154 22.821 2.504 23.315 2.998 1.855 1.857-2.154 3.552-11.944 5.047-9.694 1.48-14.163 3.491-12.176 5.482.512.513 4.748 1.906 9.413 3.094 11.422 2.909 84.086 4.375 101.491 2.047 16.125-2.156 23.323-4.228 23.323-6.712 0-1.978-2.19-2.676-13.93-4.439-3.237-.485-6.783-1.439-7.882-2.12-3.907-2.418 3.53-4.312 25.648-6.53 12.019-1.206 22.988-2.628 24.374-3.16 4.431-1.704 2.714-5.074-4.065-7.985-6.923-2.973-8.553-6.505-3.713-8.045 1.579-.502 10.876-2.141 20.658-3.641 9.781-1.501 18.502-3.447 19.38-4.327 2.337-2.341-1.243-5.167-10.239-8.081-13.62-4.412-13.285-7.481 1.276-11.661 4.588-1.318 8.774-3.1 9.305-3.961.531-.862-.781-3.393-2.916-5.627 0 0-2.97-3.32-3.704-4.685s-.94-3.16-.053-5.717M40.26 165.67c-6.595-14.287-7.232-29.376-6.175-45.086a94 94 0 0 1 14.487-44.167 93.56 93.56 0 0 1 33.853-31.75 93.2 93.2 0 0 1 44.891-11.523 93.2 93.2 0 0 1 44.09 11.084 93.55 93.55 0 0 1 33.66 30.65 94 94 0 0 1 6.232 10.892l.014.03.13.27c1.162 2.309 2.054 4.201 2.542 5.757 1.745 5.563-1.666 6.822-16.29 7.478-15.357.689-19.783 1.664-17.577 3.873.516.517 8.902 1.269 18.635 1.671l.366.015c12.624.52 17.899.738 20.098 5.025 1.579 3.077 1.572 8.251 1.56 17.139v.359c-.018 14.607-2.354 27.824-6.412 36.275-2.294 4.776-7.36 8.164-15.553 10.348q-3.168.844-6.967 1.452c-6.297 1.01-12.376 2.347-13.511 2.973-3.689 2.035 2.951 4.204 17.273 5.644 7.4.743 13.873 1.773 14.388 2.289 2.684 2.689-4.315 4.358-23.292 5.557-26.066 1.648-35.191 2.929-35.884 5.04-.753 2.297 3.553 3.225 23.68 5.1 18.096 1.687 24.189 3.11 24.189 5.649 0 3.203-10.524 3.729-74.628 3.729-52.351 0-67.782-.425-72.202-1.99-3.581-1.268-5.114-2.5-4.222-3.394 1.971-1.974 25.524-4.049 47.158-4.153 18.102-.086 37.455-1.842 39.162-3.553 2.966-2.971-5.29-4.308-37.232-6.03l-9.923-.533c-22.762-1.218-25.596-1.37-25.767-2.126-.024-.107.005-.227.039-.364.03-.125.065-.264.065-.421 0-2.905 7-3.519 50.484-4.43 42.074-.882 54.095-2.113 49.343-5.055-.835-.516-9.54-1.597-19.345-2.398s-18.483-1.865-19.285-2.362c-4.364-2.7 4.052-4.052 30.94-4.966 27.88-.949 32.626-1.573 30.224-3.979-3.32-3.327-105.296-3.345-108.616-.019-2.068 2.07.938 2.926 15.101 4.3 27.648 2.681 19.488 6.293-14.213 6.293-11.69 0-19.218-.301-24.257-1.288-5.74-1.125-9.269-5.005-11.253-9.305m46.678 64.334c-16.832-2.137-19.237-5.943-4.86-7.694 4.177-.509 22.08-1.006 39.786-1.103q63.92-.351 50.275 7.287c-4.428 2.48-68.6 3.616-85.201 1.51" clip-rule="evenodd"/></svg>