<svg xmlns="http://www.w3.org/2000/svg" fill="none" viewBox="0 0 255 256"><path fill="#000" d="M233.134 193.046c.043-5.733 21.845-5.487 21.696-10.846-.107-4.132-9.762-4.036-6.728-12.779 4.471-13.024 6.898-27.009 6.898-41.56C255 57.242 197.898 0 127.5 0 57.08 0 0 57.242 0 127.861a127.9 127.9 0 0 0 7.218 42.489c1.81 5.797-7.197 8.071-7.197 11.53 0 5.423 18.97 4.697 18.97 10.995 0 5.509-18.746 7.196-18.746 12.747 0 7.654 41.528 4.985 42.05 11.572.414 5.093-14.266 5.391-14.361 10.825-.139 8.669 56.686 5.829 56.686 11.605 0 4.366-25.847 2.786-25.847 7.942S92.796 256 130.29 256s63.372-4.185 63.372-8.711c0-4.516-24.144-3.577-23.643-7.665.873-7.121 54.44-3.481 54.44-11.711 0-4.345-14.733-5.36-14.264-10.035.681-6.619 44.806-5.627 44.806-12.491 0-5.391-21.855-6.725-21.834-12.319zm-34.171-16.611c-1.171 4.366 12.263 5.018 12.263 9.576 0 5.541-40.963 3.331-40.559 10.665.256 4.612 29.105 5.391 28.551 10.216-.788 6.982-44.668 3.502-45.104 10.185-.32 4.911 21.418 5.071 21.461 9.544.042 3.768-17.076 5.818-49.821 5.818-37.333 0-55.462-2.018-53.408-6.224 1.927-3.928 34.97-3.202 34.64-9.384-.34-6.17-58.677-4.345-60.444-10.334-1.459-4.974 19.172-5.999 19.044-10.729-.138-4.814-26.432-3.725-27.007-9.554-.373-3.843 13.743-3.587 13.136-8.413-.447-3.501-6.28-3.01-9.73-10.248a94.69 94.69 0 0 1 6.096-90.562 94.3 94.3 0 0 1 34.13-31.989 94 94 0 0 1 45.257-11.609 94 94 0 0 1 44.45 11.167 94.3 94.3 0 0 1 33.935 30.88 94.6 94.6 0 0 1 15.388 43.285 94.7 94.7 0 0 1-6.8 45.444c-4.418 10.056-14.371 8.039-15.51 12.277h.021z"/></svg>