<svg xmlns="http://www.w3.org/2000/svg" fill="none" viewBox="0 0 256 256"><path fill="#000" d="M233.389 193.046c.043-5.733 21.869-5.487 21.719-10.846-.106-4.132-9.772-4.036-6.735-12.779 4.476-13.024 6.906-27.009 6.906-41.56C255.279 57.242 198.115 0 127.639 0 57.143 0 0 57.242 0 127.861a127.8 127.8 0 0 0 7.226 42.489C9.037 176.147.02 178.421.02 181.88c0 5.423 18.991 4.697 18.991 10.995 0 5.509-18.767 7.196-18.767 12.747 0 7.654 41.573 4.985 42.096 11.572.415 5.093-14.28 5.391-14.377 10.825-.138 8.669 56.749 5.829 56.749 11.605 0 4.366-25.875 2.786-25.875 7.942S92.898 256 130.432 256s63.441-4.185 63.441-8.711c0-4.516-24.17-3.577-23.669-7.665.874-7.121 54.5-3.481 54.5-11.711 0-4.345-14.75-5.36-14.281-10.035.682-6.619 44.856-5.627 44.856-12.491 0-5.391-21.879-6.725-21.858-12.319zm-34.209-16.611c-1.172 4.366 12.277 5.018 12.277 9.576 0 5.541-41.008 3.331-40.603 10.665.256 4.612 29.136 5.391 28.582 10.216-.789 6.982-44.717 3.502-45.154 10.185-.32 4.911 21.442 5.071 21.485 9.544.042 3.768-17.094 5.818-49.875 5.818-37.374 0-55.523-2.018-53.467-6.224 1.93-3.928 35.009-3.202 34.678-9.384-.341-6.17-58.741-4.345-60.51-10.334-1.46-4.974 19.193-5.999 19.065-10.729-.138-4.814-26.461-3.725-27.037-9.554-.373-3.843 13.758-3.587 13.151-8.413-.448-3.501-6.288-3.01-9.74-10.248a94.6 94.6 0 0 1 6.101-90.562A94.36 94.36 0 0 1 82.3 45.002a94.16 94.16 0 0 1 45.308-11.609 94.16 94.16 0 0 1 44.498 11.167 94.35 94.35 0 0 1 33.972 30.88 94.6 94.6 0 0 1 15.405 43.285 94.6 94.6 0 0 1-6.807 45.444c-4.423 10.056-14.387 8.039-15.528 12.277h.022z"/></svg>