<svg xmlns="http://www.w3.org/2000/svg" fill="none" viewBox="0 0 256 256"><path fill="#000" fill-rule="evenodd" d="M186.848 99.625a66 66 0 0 1 1.779 4.022c-.342-1.086-.966-2.408-1.779-4.022m-41.95 17.075c-3.177.91-1.911 2.268 2.769 2.969 5.699.855 28.791.225 29.829-.814a1.09 1.09 0 0 0 .001-1.536c-.863-.865-29.822-1.415-32.599-.619m-21.423 7.383c-7.197.605-10.108 1.47-8.924 2.655.252.252 4.822.735 10.155 1.075 13.573.864 16.853 1.447 15.543 2.757-.613.613-9.53 1.433-20.749 1.907-18.728.793-24.435 1.872-19.829 3.752 1.08.442 17.17.802 35.755.802s34.676-.36 35.755-.802c3.819-1.558-.068-2.871-11.128-3.756-15.468-1.238-16.757-3.033-3.294-4.584 5.838-.672 7.702-1.552 5.678-2.68-2.004-1.116-29.594-1.915-38.962-1.126m47.791 1.083-2.048.893 2.048.879c2.52 1.079 17.46 1.168 18.518.109a1.083 1.083 0 0 0 .003-1.532c-1.115-1.115-16.116-1.397-18.521-.349m-81.941 17.371c-5.644.407-10.869 1.114-11.61 1.572-3.174 1.962 1.702 3.027 17.99 3.931 16.898.938 77.94.258 83.54-.93 3.939-.835 2.921-2.755-1.919-3.622-5.891-1.056-76.022-1.813-88.001-.951" clip-rule="evenodd"/><path fill="#fff" fill-rule="evenodd" d="M144.898 116.7c-3.177.91-1.911 2.268 2.769 2.969 5.699.855 28.791.225 29.829-.814a1.09 1.09 0 0 0 .001-1.536c-.863-.865-29.822-1.415-32.599-.619m-21.423 7.383c-7.197.605-10.108 1.47-8.924 2.655.252.252 4.822.735 10.155 1.075 13.573.864 16.853 1.447 15.543 2.757-.613.613-9.53 1.433-20.749 1.907-18.728.793-24.435 1.872-19.829 3.752 1.08.442 17.17.802 35.755.802s34.676-.36 35.755-.802c3.819-1.558-.068-2.871-11.128-3.756-15.468-1.238-16.757-3.033-3.294-4.584 5.838-.672 7.702-1.552 5.678-2.68-2.004-1.116-29.594-1.915-38.962-1.126m47.791 1.083-2.048.893 2.048.879c2.52 1.079 17.46 1.168 18.518.109a1.083 1.083 0 0 0 .003-1.532c-1.115-1.115-16.116-1.397-18.521-.349m-81.941 17.371c-5.644.407-10.869 1.114-11.61 1.572-3.174 1.962 1.702 3.027 17.99 3.931 16.898.938 77.94.258 83.54-.93 3.939-.835 2.921-2.755-1.919-3.622-5.891-1.056-76.022-1.813-88.001-.951" clip-rule="evenodd"/><path fill="#000" fill-rule="evenodd" d="M67.057 155.232c-4.615-9.981-5.06-20.522-4.321-31.496a65.6 65.6 0 0 1 10.138-30.854 65.4 65.4 0 0 1 23.69-22.18 65.3 65.3 0 0 1 31.414-8.048 65.3 65.3 0 0 1 30.853 7.742 65.42 65.42 0 0 1 27.916 29.02l.01.022.091.187c.813 1.614 1.437 2.936 1.779 4.022 1.221 3.886-1.166 4.766-11.4 5.224-10.747.481-13.843 1.162-12.3 2.706.361.361 6.23.886 13.04 1.167l.256.011c8.835.363 12.526.515 14.065 3.509 1.105 2.15 1.1 5.765 1.092 11.974v.25c-.013 10.204-1.648 19.438-4.488 25.341-1.605 3.336-5.15 5.703-10.883 7.228a49 49 0 0 1-4.876 1.015c-4.406.706-8.66 1.64-9.454 2.077-2.582 1.421 2.065 2.937 12.087 3.942 5.178.519 9.708 1.239 10.069 1.6 1.878 1.878-3.02 3.044-16.3 3.882-18.241 1.151-24.626 2.046-25.111 3.52-.527 1.605 2.487 2.253 16.571 3.563 12.663 1.178 16.927 2.173 16.927 3.946 0 2.238-7.364 2.605-52.224 2.605-36.634 0-47.432-.297-50.526-1.39-2.506-.886-3.579-1.746-2.954-2.371 1.38-1.379 17.862-2.828 33-2.901 12.668-.06 26.211-1.287 27.406-2.482 2.075-2.076-3.702-3.01-26.055-4.213l-6.944-.372c-15.929-.851-17.912-.957-18.031-1.485a.6.6 0 0 1 .027-.254c.021-.088.045-.185.045-.294 0-2.03 4.9-2.459 35.328-3.095 29.443-.616 37.856-1.476 34.53-3.532-.584-.36-6.676-1.115-13.538-1.675-6.861-.56-12.934-1.302-13.495-1.649-3.053-1.887 2.836-2.831 21.652-3.47 19.51-.662 22.831-1.099 21.15-2.779-2.323-2.324-73.685-2.337-76.008-.013-1.447 1.446.656 2.044 10.567 3.003 19.348 1.873 13.638 4.396-9.946 4.396-8.18 0-13.448-.21-16.974-.9-4.017-.785-6.486-3.496-7.875-6.499m80.61-35.563c-4.68-.701-5.946-2.059-2.769-2.969 2.777-.796 31.736-.246 32.599.619a1.09 1.09 0 0 1-.001 1.536c-1.038 1.039-24.13 1.669-29.829.814m-33.116 7.069c-1.184-1.185 1.727-2.05 8.924-2.655 9.368-.789 36.958.01 38.962 1.126 2.024 1.128.16 2.008-5.678 2.68-13.463 1.551-12.174 3.346 3.294 4.584 11.06.885 14.947 2.198 11.128 3.756-1.079.442-17.169.802-35.755.802-18.585 0-34.675-.36-35.755-.802-4.606-1.88 1.101-2.959 19.829-3.752 11.219-.474 20.136-1.294 20.749-1.907 1.31-1.31-1.97-1.893-15.543-2.757-5.333-.34-9.903-.823-10.155-1.075m54.667-.679 2.048-.893c2.405-1.048 17.406-.766 18.521.349a1.08 1.08 0 0 1-.003 1.532c-1.058 1.059-15.998.97-18.518-.109zm-91.502 18.05c.74-.458 5.965-1.165 11.609-1.572 11.979-.862 82.11-.105 88.001.951 4.84.867 5.858 2.787 1.919 3.622-5.6 1.188-66.642 1.868-83.54.93-16.288-.904-21.164-1.969-17.99-3.931" clip-rule="evenodd"/><path fill="#fff" fill-rule="evenodd" d="M211.712 156.97c3.103-9.031 4.788-18.727 4.788-28.816C216.5 79.19 176.865 39.5 128 39.5c-48.88 0-88.5 39.69-88.5 88.654a88.6 88.6 0 0 0 5.01 29.46c.99 2.817-3.346 6.002-3.346 6.002s-1.29 1.314-1.646 1.893c-1.344 2.186.078 3.67 4.462 4.922 5.495 1.569 8.474 3.898 6.95 5.436-.598.606-3.465 2.252-6.371 3.66-9.506 4.606-7.526 6.428 9.405 8.653 6.249.82 11.812 1.772 12.363 2.113 2.12 1.309.826 3.248-3.605 5.401-9.458 4.595-5.342 6.636 17.737 8.794 8.628.806 15.97 1.749 16.316 2.094 1.298 1.298-1.508 2.481-8.358 3.526-6.784 1.034-9.912 2.439-8.521 3.83.358.358 3.323 1.331 6.587 2.161 7.993 2.032 58.842 3.056 71.022 1.43 11.284-1.506 16.321-2.953 16.321-4.689 0-1.381-1.533-1.869-9.748-3.101-2.265-.339-4.746-1.005-5.515-1.48-2.734-1.69 2.47-3.013 17.947-4.562 8.411-.843 16.087-1.836 17.057-2.208 3.101-1.19 1.9-3.544-2.845-5.578-4.844-2.076-5.985-4.544-2.598-5.62 1.105-.351 7.611-1.496 14.456-2.543 6.845-1.049 12.948-2.409 13.562-3.023 1.635-1.635-.869-3.61-7.165-5.645-9.531-3.083-9.297-5.226.893-8.146 3.21-.921 6.14-2.166 6.512-2.767.371-.602-.547-2.371-2.041-3.931 0 0-2.078-2.319-2.592-3.273-.514-.953-.658-2.207-.037-3.993m-144.655-1.738c-4.615-9.981-5.06-20.522-4.321-31.496a65.6 65.6 0 0 1 10.138-30.854 65.4 65.4 0 0 1 23.69-22.18 65.3 65.3 0 0 1 31.414-8.048 65.3 65.3 0 0 1 30.853 7.742 65.42 65.42 0 0 1 27.916 29.02l.01.022.091.187c.813 1.614 1.437 2.936 1.779 4.022 1.221 3.886-1.166 4.766-11.4 5.224-10.747.481-13.843 1.162-12.3 2.706.361.361 6.23.886 13.04 1.167l.256.011c8.835.363 12.526.515 14.065 3.509 1.105 2.15 1.1 5.765 1.092 11.974v.25c-.013 10.204-1.648 19.438-4.488 25.341-1.605 3.336-5.15 5.703-10.883 7.228a49 49 0 0 1-4.876 1.015c-4.406.706-8.66 1.64-9.454 2.077-2.582 1.421 2.065 2.937 12.087 3.942 5.178.519 9.708 1.239 10.069 1.6 1.878 1.878-3.02 3.044-16.3 3.882-18.241 1.151-24.626 2.046-25.111 3.52-.527 1.605 2.487 2.253 16.571 3.563 12.663 1.178 16.927 2.173 16.927 3.946 0 2.238-7.364 2.605-52.224 2.605-36.634 0-47.432-.297-50.526-1.39-2.506-.886-3.579-1.746-2.954-2.371 1.38-1.379 17.862-2.828 33-2.901 12.668-.06 26.211-1.287 27.406-2.482 2.075-2.076-3.702-3.01-26.055-4.213l-6.944-.372c-15.929-.851-17.912-.957-18.031-1.485a.6.6 0 0 1 .027-.254c.021-.088.045-.185.045-.294 0-2.03 4.9-2.459 35.328-3.095 29.443-.616 37.856-1.476 34.53-3.532-.584-.36-6.676-1.115-13.538-1.675-6.861-.56-12.934-1.302-13.495-1.649-3.053-1.887 2.836-2.831 21.652-3.47 19.51-.662 22.831-1.099 21.15-2.779-2.323-2.324-73.685-2.337-76.008-.013-1.447 1.446.656 2.044 10.567 3.003 19.348 1.873 13.638 4.396-9.946 4.396-8.18 0-13.448-.21-16.974-.9-4.017-.785-6.486-3.496-7.875-6.499m32.665 44.941c-11.78-1.493-13.462-4.151-3.401-5.375 2.922-.355 15.451-.702 27.841-.77q44.73-.246 35.182 5.09c-3.099 1.733-48.005 2.527-59.622 1.055" clip-rule="evenodd"/><path fill="#000" fill-rule="evenodd" d="M256 128c0 70.692-57.308 128-128 128S0 198.692 0 128 57.308 0 128 0s128 57.308 128 128m-39.5.154c0 10.089-1.685 19.785-4.788 28.816-.621 1.786-.477 3.04.037 3.993.514.954 2.592 3.273 2.592 3.273 1.494 1.56 2.412 3.329 2.041 3.931-.372.601-3.302 1.846-6.512 2.767-10.19 2.92-10.424 5.063-.893 8.146 6.296 2.035 8.8 4.01 7.165 5.645-.614.614-6.717 1.974-13.562 3.023-6.845 1.047-13.351 2.192-14.456 2.543-3.387 1.076-2.246 3.544 2.598 5.62 4.745 2.034 5.946 4.388 2.845 5.578-.97.372-8.646 1.365-17.057 2.208-15.477 1.549-20.681 2.872-17.947 4.562.769.475 3.25 1.141 5.515 1.48 8.215 1.232 9.748 1.72 9.748 3.101 0 1.736-5.037 3.183-16.321 4.689-12.18 1.626-63.03.602-71.022-1.43-3.264-.83-6.229-1.803-6.587-2.161-1.39-1.391 1.737-2.796 8.52-3.83 6.851-1.045 9.657-2.228 8.359-3.526-.346-.345-7.688-1.288-16.316-2.094-23.079-2.158-27.195-4.199-17.737-8.794 4.431-2.153 5.726-4.092 3.605-5.401-.551-.341-6.114-1.293-12.363-2.113-16.93-2.225-18.911-4.047-9.405-8.653 2.906-1.408 5.773-3.054 6.371-3.66 1.524-1.538-1.455-3.867-6.95-5.436-4.383-1.252-5.806-2.736-4.462-4.922.356-.579 1.646-1.893 1.646-1.893s4.336-3.185 3.346-6.002a88.6 88.6 0 0 1-5.01-29.46C39.5 79.19 79.12 39.5 128 39.5c48.865 0 88.5 39.69 88.5 88.654" clip-rule="evenodd"/><path fill="#000" d="M96.32 194.798c-10.06 1.224-8.377 3.882 3.402 5.375 11.617 1.472 56.523.678 59.622-1.055q9.548-5.336-35.182-5.09c-12.39.068-24.919.415-27.841.77"/></svg>
