<svg xmlns="http://www.w3.org/2000/svg" fill="none" viewBox="0 0 512 512"><path fill="#000" d="M256 512c141.385 0 256-114.615 256-256S397.385 0 256 0 0 114.615 0 256s114.615 256 256 256"/><path fill="#53CBC9" d="M446.701 379.402H363.09a6.6 6.6 0 0 1-4.459-2.038 6.583 6.583 0 0 1 0-9.088 6.6 6.6 0 0 1 4.459-2.038h83.611a6.62 6.62 0 0 1 4.88 1.809 6.59 6.59 0 0 1 1.517 7.37 6.6 6.6 0 0 1-3.771 3.58 6.6 6.6 0 0 1-2.626.405m-164.048 0H66.323a6.62 6.62 0 0 1-4.88-1.809 6.6 6.6 0 0 1-2.051-4.773 6.58 6.58 0 0 1 2.051-4.773 6.62 6.62 0 0 1 4.88-1.809h216.33a6.6 6.6 0 0 1 4.46 2.038 6.583 6.583 0 0 1 0 9.088 6.6 6.6 0 0 1-4.46 2.038"/><path fill="#53CBC9" d="M398.907 412.672a6.6 6.6 0 0 1-4.659-1.925 6.57 6.57 0 0 1-1.93-4.649V106.99a6.58 6.58 0 0 1 2.043-4.449 6.615 6.615 0 0 1 9.109 0 6.6 6.6 0 0 1 2.043 4.449v299.172a6.57 6.57 0 0 1-1.958 4.613 6.6 6.6 0 0 1-4.648 1.897m-73.542-184.487a6.6 6.6 0 0 1-4.66-1.926 6.57 6.57 0 0 1-1.93-4.648V106.926a6.57 6.57 0 0 1 1.93-4.649 6.6 6.6 0 0 1 9.319 0 6.57 6.57 0 0 1 1.93 4.649v114.685a6.57 6.57 0 0 1-1.93 4.648 6.6 6.6 0 0 1-4.659 1.926M108.088 412.672a6.6 6.6 0 0 1-4.665-1.925 6.58 6.58 0 0 1-1.94-4.649V106.99a6.58 6.58 0 0 1 2.043-4.449 6.615 6.615 0 0 1 9.109 0 6.6 6.6 0 0 1 2.043 4.449v299.172a6.57 6.57 0 0 1-1.953 4.607 6.6 6.6 0 0 1-4.637 1.903"/><path fill="#53CBC9" d="M349.606 147.122H66.323a6.6 6.6 0 0 1-4.66-1.926 6.566 6.566 0 0 1 0-9.297 6.6 6.6 0 0 1 4.66-1.925h283.283c1.748 0 3.424.692 4.66 1.925a6.566 6.566 0 0 1 0 9.297 6.6 6.6 0 0 1-4.66 1.926M148.058 287.303a6.59 6.59 0 0 1-6.065-4.051 6.56 6.56 0 0 1 1.4-7.146l109.023-108.767a6.6 6.6 0 0 1 7.185-1.419 6.6 6.6 0 0 1 3.565 3.562 6.58 6.58 0 0 1-.004 5.034 6.6 6.6 0 0 1-1.431 2.133L152.708 285.415a6.56 6.56 0 0 1-4.65 1.888m2.549 53.487a6.6 6.6 0 0 1-6.029-4.067 6.58 6.58 0 0 1 1.38-7.129L278.87 196.946a6.6 6.6 0 0 1 7.185-1.419 6.6 6.6 0 0 1 3.565 3.562 6.58 6.58 0 0 1-.004 5.034 6.6 6.6 0 0 1-1.431 2.133L155.417 338.855a6.58 6.58 0 0 1-4.81 1.935m42.888 13.116a6.61 6.61 0 0 1-6.042-4.06 6.58 6.58 0 0 1 1.377-7.137l104.726-104.495a6.6 6.6 0 0 1 4.66-1.931 6.62 6.62 0 0 1 4.663 1.923 6.564 6.564 0 0 1 .008 9.301l-104.726 104.48a6.62 6.62 0 0 1-4.666 1.919"/><path fill="#F45B5B" d="M213.408 369.373a114.1 114.1 0 0 1-35.849-5.774c-47.794-15.499-71.651-55.007-63.603-105.888a147.47 147.47 0 0 1 40.082-78.536c22.591-22.904 50.856-35.525 79.571-35.525 2.133 0 4.313 0 6.413.208h.193c28.49 0 56.339 18.283 74.472 48.785a7.57 7.57 0 0 0 2.961 2.8 7.6 7.6 0 0 0 7.845-.459 7.56 7.56 0 0 0 2.613-3.124c1.716-3.807 3.207-7.31 4.602-10.525C342.953 157.63 345.374 152 371.427 152c5.227 0 11.48.256 19.688.816 2.117.112 2.582.911 2.806 1.295 4.81 8.43-14.109 44.163-26.63 67.819-8.257 15.596-15.392 29.063-17.284 36.325a7.28 7.28 0 0 0 .417 4.895c1.395 3.199 2.806 6.398 4.249 9.725 15.295 35.317 34.342 79.271 76.492 79.271a66 66 0 0 0 11.688-1.087h.273a6 6 0 0 1-.706 1.087c-10.485 11.053-22.991 16.667-37.18 16.667-28.153 0-58.856-22.857-71.378-53.151a7.6 7.6 0 0 0-2.798-3.481 7.64 7.64 0 0 0-4.272-1.318 7.48 7.48 0 0 0-5.916 2.895c-27.112 34.821-67.338 55.615-107.468 55.615m18.438-193.141c-16.322 0-32.627 7.998-45.95 22.713-20.667 22.761-30.896 57.807-27.352 93.748.049.545.168 1.083.352 1.599 9.235 25.032 28.09 38.82 53.085 38.82 29.468 0 62.191-20.282 77.823-48.225 9.764-17.451 9.796-43.523.096-63.421-14.237-29.159-34.871-45.234-58.054-45.234"/></svg>