<svg xmlns="http://www.w3.org/2000/svg" fill="none" viewBox="0 0 512 512"><path fill="#000" d="M256 512c141.385 0 256-114.615 256-256S397.385 0 256 0 0 114.615 0 256s114.615 256 256 256"/><path fill="#fff" d="M402.645 346.701c.059-7.95 30.325-7.609 30.119-15.041-.148-5.729-13.552-5.596-9.34-17.721 6.207-18.06 9.576-37.454 9.576-57.631C433 158.379 353.729 79 256 79c-97.759 0-177 79.379-177 177.308a177.2 177.2 0 0 0 10.02 58.919c2.512 8.039-9.99 11.192-9.99 15.989 0 7.52 26.335 6.514 26.335 15.248 0 7.639-26.025 9.978-26.025 17.676 0 10.614 57.65 6.913 58.374 16.047.577 7.062-19.803 7.476-19.936 15.012-.192 12.021 78.695 8.083 78.695 16.092 0 6.054-35.882 3.864-35.882 11.014S207.823 434 259.872 434s87.975-5.803 87.975-12.08c0-6.262-33.517-4.959-32.822-10.629 1.211-9.875 75.576-4.826 75.576-16.24 0-6.026-20.453-7.432-19.803-13.916.946-9.179 62.202-7.802 62.202-17.321 0-7.476-30.34-9.326-30.31-17.084zm-47.438-23.035c-1.626 6.055 17.025 6.958 17.025 13.279 0 7.683-56.867 4.619-56.306 14.789.355 6.395 40.404 7.476 39.636 14.168-1.094 9.681-62.01 4.855-62.616 14.123-.443 6.809 29.734 7.031 29.793 13.234.059 5.226-23.704 8.069-69.163 8.069-51.827 0-76.995-2.798-74.142-8.631 2.674-5.448 48.546-4.441 48.088-13.013-.473-8.557-81.458-6.025-83.911-14.33-2.025-6.899 26.616-8.32 26.438-14.878-.192-6.677-36.694-5.167-37.492-13.25-.517-5.329 19.079-4.974 18.236-11.665-.62-4.856-8.719-4.175-13.507-14.212a131.19 131.19 0 0 1 8.461-125.584 130.85 130.85 0 0 1 47.38-44.359 130.6 130.6 0 0 1 62.829-16.099 130.6 130.6 0 0 1 61.706 15.485 130.85 130.85 0 0 1 47.11 42.822 131.1 131.1 0 0 1 21.363 60.024 131.2 131.2 0 0 1-9.44 63.018c-6.133 13.945-19.951 11.147-21.532 17.025h.029z"/></svg>