<svg xmlns="http://www.w3.org/2000/svg" fill="none" viewBox="0 0 256 256"><path fill="#000" d="M128 256c70.692 0 128-57.308 128-128S198.692 0 128 0 0 57.308 0 128s57.308 128 128 128"/><path fill="#53CBC9" d="M223.351 189.701h-41.806a3.3 3.3 0 0 1-2.229-1.019 3.29 3.29 0 0 1 0-4.544 3.3 3.3 0 0 1 2.229-1.019h41.806a3.3 3.3 0 0 1 1.313.202 3.31 3.31 0 0 1 2.152 3.089 3.29 3.29 0 0 1-2.152 3.089 3.3 3.3 0 0 1-1.313.202m-82.024 0H33.161a3.32 3.32 0 0 1-2.44-.904 3.294 3.294 0 0 1 0-4.774 3.32 3.32 0 0 1 2.44-.904h108.166a3.3 3.3 0 0 1 2.229 1.019 3.29 3.29 0 0 1 0 4.544 3.3 3.3 0 0 1-2.229 1.019"/><path fill="#53CBC9" d="M199.454 206.336a3.3 3.3 0 0 1-2.33-.963 3.28 3.28 0 0 1-.965-2.324V53.495a3.3 3.3 0 0 1 1.022-2.224 3.306 3.306 0 0 1 5.575 2.224v149.586a3.28 3.28 0 0 1-.979 2.306 3.3 3.3 0 0 1-2.323.949m-36.772-92.244a3.3 3.3 0 0 1-2.329-.962 3.3 3.3 0 0 1-.965-2.325V53.463c0-.872.347-1.708.965-2.324a3.3 3.3 0 0 1 4.659 0 3.28 3.28 0 0 1 .965 2.324v57.342c0 .872-.347 1.708-.965 2.325a3.3 3.3 0 0 1-2.33.962M54.044 206.336a3.3 3.3 0 0 1-2.332-.962 3.3 3.3 0 0 1-.97-2.325V53.495a3.3 3.3 0 0 1 1.021-2.224 3.307 3.307 0 0 1 4.554 0c.614.583.98 1.38 1.022 2.224v149.586a3.3 3.3 0 0 1-.976 2.304 3.3 3.3 0 0 1-2.319.951"/><path fill="#53CBC9" d="M174.803 73.56H33.161a3.3 3.3 0 0 1-2.33-.962 3.283 3.283 0 0 1 0-4.648 3.3 3.3 0 0 1 2.33-.963h141.642a3.3 3.3 0 0 1 2.33.963 3.283 3.283 0 0 1 0 4.648 3.3 3.3 0 0 1-2.33.963M74.03 143.651a3.29 3.29 0 0 1-3.032-2.025 3.28 3.28 0 0 1 .698-3.573l54.512-54.383a3.3 3.3 0 0 1 2.331-.961 3.3 3.3 0 0 1 2.33.965 3.28 3.28 0 0 1-.004 4.65l-54.511 54.384a3.3 3.3 0 0 1-2.325.943m1.275 26.744a3.297 3.297 0 0 1-3.206-3.919 3.3 3.3 0 0 1 .88-1.679l66.457-66.324a3.3 3.3 0 0 1 2.331-.961 3.3 3.3 0 0 1 2.33.965 3.28 3.28 0 0 1-.004 4.651l-66.383 66.299a3.28 3.28 0 0 1-2.405.968m21.444 6.558a3.3 3.3 0 0 1-1.817-.562 3.3 3.3 0 0 1-1.398-3.355 3.3 3.3 0 0 1 .882-1.681l52.363-52.248a3.298 3.298 0 0 1 5.629 2.32 3.3 3.3 0 0 1-.964 2.326l-52.363 52.24a3.3 3.3 0 0 1-2.332.96"/><path fill="#F45B5B" d="M106.704 184.686a57 57 0 0 1-17.925-2.887c-23.897-7.749-35.825-27.503-31.8-52.943a73.73 73.73 0 0 1 20.04-39.268c11.295-11.453 25.428-17.763 39.786-17.763 1.066 0 2.156 0 3.206.104h.096c14.246 0 28.17 9.141 37.237 24.393a3.79 3.79 0 0 0 3.473 1.831 3.79 3.79 0 0 0 3.236-2.223c.858-1.904 1.604-3.655 2.301-5.263C171.476 78.815 172.687 76 185.714 76c2.613 0 5.739.128 9.844.408 1.058.056 1.29.456 1.403.648 2.405 4.214-7.055 22.08-13.316 33.909-4.128 7.798-7.695 14.532-8.641 18.163a3.63 3.63 0 0 0 .208 2.447c.698 1.599 1.403 3.199 2.124 4.862 7.648 17.659 17.172 39.636 38.247 39.636a33 33 0 0 0 5.844-.544h.136a3 3 0 0 1-.353.544c-5.243 5.526-11.495 8.334-18.59 8.334-14.077 0-29.428-11.429-35.689-26.576a3.8 3.8 0 0 0-1.399-1.74 3.83 3.83 0 0 0-2.136-.66 3.74 3.74 0 0 0-2.958 1.448c-13.556 17.411-33.669 27.807-53.734 27.807m9.219-96.57c-8.161 0-16.314 3.999-22.975 11.357-10.333 11.38-15.448 28.903-13.676 46.873q.038.411.176.8c4.618 12.516 14.045 19.41 26.542 19.41 14.735 0 31.096-10.141 38.912-24.113 4.882-8.725 4.898-21.761.048-31.71-7.118-14.58-17.435-22.617-29.027-22.617"/></svg>
