<svg xmlns="http://www.w3.org/2000/svg" fill="none" viewBox="0 0 202 256"><path fill="#000" d="M98.836 0a95.73 95.73 0 0 0-67.69 28.036A95.72 95.72 0 0 0 3.11 95.722a97 97 0 0 0 1.695 18.022l12.367-8.458c21.743-14.91 57.005-14.91 78.747 0l20.026 13.724c19.596 13.423 51.34 13.423 70.919 0l5.769-3.951a95.769 95.769 0 0 0-19.592-79.742A95.79 95.79 0 0 0 98.882.049z"/><path fill="#000" d="M152.633 153.226a68.95 68.95 0 0 1-38.599-11.027l-19.995-13.702a69.18 69.18 0 0 0-72.325 0l-12.927 8.849a5.6 5.6 0 0 1-4.205.886 5.614 5.614 0 0 1-2.14-10.151l12.925-8.849a80.43 80.43 0 0 1 85.02 0l19.994 13.702a61.79 61.79 0 0 0 64.497 0l7.592-5.191a5.61 5.61 0 0 1 6.238-.071c.618.403 1.15.923 1.567 1.531a5.63 5.63 0 0 1 .886 4.205 5.6 5.6 0 0 1-2.347 3.6l-7.588 5.195a68.93 68.93 0 0 1-38.593 11.023"/><path fill="#000" d="M57.463 193.424v-54.08a21.5 21.5 0 0 1 .144-3.407 6.087 6.087 0 0 1 6.059-5.407 5.9 5.9 0 0 1 5.716 5.407c.23 1.877.296 3.771.198 5.66v107.841a6.34 6.34 0 0 1-3.765 6.017 6.4 6.4 0 0 1-2.435.545 6.21 6.21 0 0 1-4.388-2.182 6.2 6.2 0 0 1-1.434-4.687v-35.947zM46.09 166.203v26.875c0 4.582-2.468 7.644-5.932 7.535a6.87 6.87 0 0 1-4.645-2.518 6.87 6.87 0 0 1-1.488-5.069v-53.734c0-4.709 2.742-7.884 6.309-7.701s5.699 3.031 5.717 7.732c.056 8.963.038 17.921.038 26.88M81.01 166.167v-18.893c0-4.381 2.322-7.211 5.787-7.211a6.497 6.497 0 0 1 6.167 7.049q.198 19.292 0 38.562a6.17 6.17 0 0 1-1.486 4.876 6.18 6.18 0 0 1-4.646 2.098c-3.55-.035-5.819-2.724-5.858-7.21V166.15zM10.591 170.111v-18.894c0-4.377 2.326-7.21 5.787-7.21a6.497 6.497 0 0 1 6.168 7.048q.176 19.292 0 38.562a6.188 6.188 0 0 1-6.132 6.975c-3.525-.035-5.823-2.724-5.862-7.211v-19.288zM110.347 154.016a5.934 5.934 0 0 1 5.932 5.935v10.273a5.93 5.93 0 0 1-5.932 5.931 5.937 5.937 0 0 1-5.935-5.931v-10.273a5.936 5.936 0 0 1 5.935-5.935M133.855 163.013a5.93 5.93 0 0 1 4.194 1.74 5.93 5.93 0 0 1 1.738 4.195v57.628a5.93 5.93 0 0 1-1.738 4.194 5.93 5.93 0 0 1-8.389.001 5.93 5.93 0 0 1-1.737-4.195v-57.628a5.94 5.94 0 0 1 1.736-4.196 5.93 5.93 0 0 1 4.196-1.739M157.215 165.247c1.573 0 3.083.625 4.195 1.738a5.93 5.93 0 0 1 1.74 4.194v48.987a5.927 5.927 0 0 1-5.935 5.927 5.92 5.92 0 0 1-4.194-1.735 5.92 5.92 0 0 1-1.738-4.192v-48.987a5.933 5.933 0 0 1 5.932-5.932M180.871 159.662a5.93 5.93 0 0 1 5.932 5.931v21.124a5.93 5.93 0 0 1-5.932 5.931 5.93 5.93 0 0 1-5.932-5.931v-21.124a5.93 5.93 0 0 1 5.932-5.931"/></svg>