<svg xmlns="http://www.w3.org/2000/svg" fill="none" viewBox="0 0 276 256"><path fill="#000" d="M189.563 247.432c3.326 0 6.177 1.904 6.177 4.284S192.889 256 189.563 256H99.295c-3.326 0-6.176-1.904-6.176-4.284s2.85-4.284 6.176-4.284zM79.816 256c3.411 0 6.176-2.77 6.176-6.188s-2.765-6.188-6.176-6.188-6.176 2.771-6.176 6.188c0 3.418 2.765 6.188 6.176 6.188m54.161-22.847c3.411 0 6.176-2.771 6.176-6.188s-2.765-6.188-6.176-6.188-6.176 2.771-6.176 6.188 2.765 6.188 6.176 6.188m105.947-12.376c3.325 0 6.176 2.856 6.176 6.188s-2.851 6.188-6.176 6.188h-88.368c-3.326 0-6.177-2.856-6.177-6.188s2.851-6.188 6.177-6.188zm-221.87-10.471c3.41 0 6.176-2.771 6.176-6.188 0-3.418-2.765-6.188-6.176-6.188s-6.177 2.77-6.177 6.188 2.766 6.188 6.177 6.188m87.892-12.376c3.326 0 6.177 2.856 6.177 6.188s-2.851 6.188-6.177 6.188h-72.69c-3.325 0-6.175-2.856-6.175-6.188s2.85-6.188 6.176-6.188zm162.958 0c3.326 0 6.177 2.856 6.177 6.188s-2.851 6.188-6.177 6.188H124.475c-3.325 0-6.176-2.856-6.176-6.188s2.851-6.188 6.176-6.188zm-27.08-22.847c3.326 0 6.176 2.856 6.176 6.188s-2.85 6.188-6.176 6.188H64.614c-3.327 0-6.177-2.856-6.177-6.188s2.85-6.188 6.176-6.188zm-196.69 12.376c3.411 0 6.176-2.771 6.176-6.188 0-3.418-2.765-6.188-6.176-6.188s-6.176 2.77-6.176 6.188 2.765 6.188 6.176 6.188m159.632-34.747c3.326 0 6.177 2.856 6.177 6.188s-2.851 6.187-6.177 6.187H27.556c-3.326 0-6.177-2.856-6.177-6.187s2.85-6.188 6.177-6.188zM6.176 165.087a6.18 6.18 0 0 0 6.176-6.187c0-3.418-2.765-6.188-6.176-6.188S0 155.482 0 158.9a6.18 6.18 0 0 0 6.176 6.187m38.958-22.847c3.411 0 6.176-2.77 6.176-6.188a6.18 6.18 0 0 0-6.176-6.187 6.18 6.18 0 0 0-6.176 6.187c0 3.418 2.765 6.188 6.176 6.188m213.794-12.375c3.325 0 6.176 2.855 6.176 6.187s-2.851 6.188-6.176 6.188H66.038c-3.325 0-6.176-2.856-6.176-6.188s2.85-6.187 6.176-6.187zM194.493 8.925c40.954 17.39 68.257 60.244 65.155 103.72-73.222 0-146.444.621-219.665-.621 0-29.19 9.928-59.002 31.026-79.498C102.035.851 153.538-9.086 194.493 8.926"/></svg>