<svg xmlns="http://www.w3.org/2000/svg" fill="none" viewBox="0 0 255 256"><path fill="#000" fill-rule="evenodd" d="M151.761 110.512c-4.549 1.303-2.737 3.246 3.963 4.251 8.158 1.224 41.214.321 42.701-1.166a1.56 1.56 0 0 0 .001-2.199c-1.236-1.238-42.69-2.025-46.665-.886m-30.668 10.568c-10.303.867-14.469 2.105-12.775 3.801.361.361 6.903 1.053 14.537 1.54 19.43 1.237 24.125 2.071 22.251 3.946-.878.878-13.643 2.052-29.703 2.73-26.81 1.135-34.979 2.68-28.385 5.371 1.545.632 24.578 1.148 51.183 1.148 26.606 0 49.639-.516 51.184-1.148 5.466-2.231-.098-4.11-15.931-5.376-22.142-1.773-23.988-4.342-4.714-6.563 8.356-.962 11.024-2.222 8.128-3.836-2.869-1.598-42.365-2.741-55.775-1.613m68.413 1.551-2.931 1.279 2.931 1.257c3.608 1.545 24.993 1.673 26.509.157a1.554 1.554 0 0 0 .004-2.193c-1.596-1.596-23.071-2.001-26.513-.5m-117.3 24.867c-8.079.582-15.558 1.595-16.617 2.25-4.545 2.809 2.434 4.333 25.752 5.628 24.189 1.342 111.571.369 119.587-1.331 5.638-1.197 4.181-3.945-2.747-5.187-8.433-1.511-108.826-2.594-125.974-1.36" clip-rule="evenodd"/><path fill="#000" fill-rule="evenodd" d="M247.404 168.158c4.443-12.927 6.854-26.808 6.854-41.25C254.258 56.816 197.52 0 127.571 0 57.6 0 .883 56.816.883 126.908a126.8 126.8 0 0 0 7.171 42.172c1.418 4.033-4.79 8.593-4.79 8.593s-1.846 1.88-2.355 2.709c-1.925 3.13.112 5.254 6.387 7.046 7.866 2.246 12.13 5.581 9.949 7.782-.857.867-4.96 3.224-9.121 5.239-13.608 6.594-10.773 9.202 13.464 12.387 8.945 1.174 16.909 2.536 17.697 3.024 3.036 1.875 1.183 4.65-5.16 7.732-13.54 6.578-7.647 9.499 25.39 12.589 12.352 1.154 22.862 2.504 23.356 2.998 1.859 1.857-2.158 3.552-11.964 5.047-9.712 1.48-14.188 3.491-12.198 5.482.513.513 4.757 1.906 9.43 3.094 11.441 2.909 84.233 4.375 101.668 2.047 16.154-2.156 23.364-4.228 23.364-6.712 0-1.978-2.194-2.676-13.955-4.439-3.242-.485-6.794-1.439-7.895-2.12-3.914-2.418 3.536-4.312 25.692-6.53 12.041-1.206 23.029-2.628 24.417-3.16 4.439-1.704 2.719-5.074-4.072-7.985-6.935-2.973-8.568-6.505-3.719-8.045 1.582-.502 10.894-2.141 20.693-3.641 9.798-1.501 18.535-3.447 19.414-4.327 2.341-2.341-1.244-5.167-10.256-8.081-13.645-4.412-13.309-7.481 1.278-11.661 4.595-1.318 8.789-3.1 9.321-3.961.532-.862-.783-3.393-2.921-5.627 0 0-2.975-3.32-3.71-4.685-.736-1.365-.942-3.16-.054-5.717M40.33 165.67c-6.606-14.287-7.244-29.376-6.186-45.086a93.86 93.86 0 0 1 14.513-44.167 93.66 93.66 0 0 1 33.912-31.75 93.46 93.46 0 0 1 44.97-11.523 93.46 93.46 0 0 1 44.166 11.084 93.65 93.65 0 0 1 33.719 30.65 94 94 0 0 1 5.999 10.395l.244.497.014.03.131.27c1.164 2.309 2.057 4.201 2.546 5.757 1.748 5.563-1.669 6.822-16.319 7.478-15.384.689-19.817 1.664-17.608 3.873.518.517 8.919 1.269 18.668 1.671l.367.015c12.646.52 17.93.738 20.133 5.025 1.582 3.077 1.575 8.251 1.563 17.139v.359c-.018 14.607-2.359 27.824-6.424 36.275-2.298 4.776-7.373 8.164-15.58 10.348q-3.173.844-6.979 1.452c-6.308 1.01-12.397 2.347-13.535 2.973-3.695 2.035 2.957 4.204 17.303 5.644 7.413.743 13.898 1.773 14.414 2.289 2.689 2.689-4.323 4.358-23.333 5.557-26.112 1.648-35.253 2.929-35.946 5.04-.755 2.297 3.559 3.225 23.72 5.1 18.129 1.687 24.233 3.11 24.233 5.649 0 3.203-10.543 3.729-74.759 3.729-52.443 0-67.9-.425-72.329-1.99-3.587-1.268-5.123-2.5-4.229-3.394 1.975-1.974 25.57-4.049 47.24-4.153 18.135-.086 37.521-1.842 39.231-3.553 2.972-2.971-5.299-4.308-37.297-6.03l-9.94-.533c-22.802-1.218-25.64-1.37-25.812-2.126-.025-.107.005-.227.039-.364.03-.125.065-.264.065-.421 0-2.905 7.013-3.519 50.572-4.43 42.148-.882 54.19-2.113 49.429-5.055-.836-.516-9.556-1.597-19.379-2.398s-18.515-1.865-19.319-2.362c-4.371-2.7 4.059-4.052 30.995-4.966 27.929-.949 32.682-1.573 30.277-3.979-3.326-3.327-105.48-3.345-108.806-.019-2.072 2.07.94 2.926 15.127 4.3 27.696 2.681 19.523 6.293-14.238 6.293-11.71 0-19.25-.301-24.299-1.288-5.75-1.125-9.285-5.005-11.273-9.305m46.76 64.334c-16.862-2.137-19.27-5.943-4.868-7.694 4.183-.509 22.118-1.006 39.855-1.103q64.03-.351 50.362 7.287c-4.435 2.48-68.719 3.616-85.35 1.51" clip-rule="evenodd"/></svg>