<svg xmlns="http://www.w3.org/2000/svg" fill="none" viewBox="0 0 276 256"><path fill="#000" d="M189.563 247.432c3.326 0 6.177 1.904 6.177 4.284S192.889 256 189.563 256H99.295c-3.326 0-6.176-1.904-6.176-4.284s2.85-4.284 6.176-4.284zM79.816 256c3.411 0 6.176-2.77 6.176-6.188s-2.765-6.188-6.176-6.188-6.176 2.771-6.176 6.188c0 3.418 2.765 6.188 6.176 6.188M133.977 233.153c3.411 0 6.176-2.771 6.176-6.188s-2.765-6.188-6.176-6.188-6.176 2.771-6.176 6.188 2.765 6.188 6.176 6.188M239.924 220.777c3.325 0 6.176 2.856 6.176 6.188s-2.851 6.188-6.176 6.188h-88.368c-3.326 0-6.177-2.856-6.177-6.188s2.851-6.188 6.177-6.188zM18.054 210.306c3.41 0 6.176-2.771 6.176-6.188 0-3.418-2.765-6.188-6.176-6.188s-6.177 2.77-6.177 6.188 2.766 6.188 6.177 6.188M105.946 197.93c3.326 0 6.177 2.856 6.177 6.188s-2.851 6.188-6.177 6.188h-72.69c-3.325 0-6.175-2.856-6.175-6.188s2.85-6.188 6.176-6.188zM268.904 197.93c3.326 0 6.177 2.856 6.177 6.188s-2.851 6.188-6.177 6.188H124.475c-3.325 0-6.176-2.856-6.176-6.188s2.851-6.188 6.176-6.188zM241.824 175.083c3.326 0 6.176 2.856 6.176 6.188s-2.85 6.188-6.176 6.188H64.614c-3.327 0-6.177-2.856-6.177-6.188s2.85-6.188 6.176-6.188zM45.134 187.459c3.411 0 6.176-2.771 6.176-6.188 0-3.418-2.765-6.188-6.176-6.188s-6.176 2.77-6.176 6.188 2.765 6.188 6.176 6.188M204.766 152.712c3.326 0 6.177 2.856 6.177 6.188s-2.851 6.187-6.177 6.187H27.556c-3.326 0-6.177-2.856-6.177-6.187s2.85-6.188 6.177-6.188zM6.176 165.087a6.18 6.18 0 0 0 6.176-6.187c0-3.418-2.765-6.188-6.176-6.188S0 155.482 0 158.9a6.18 6.18 0 0 0 6.176 6.187M45.134 142.24c3.411 0 6.176-2.77 6.176-6.188a6.18 6.18 0 0 0-6.176-6.187 6.18 6.18 0 0 0-6.176 6.187c0 3.418 2.765 6.188 6.176 6.188M258.928 129.865c3.325 0 6.176 2.855 6.176 6.187s-2.851 6.188-6.176 6.188H66.038c-3.325 0-6.176-2.856-6.176-6.188s2.85-6.187 6.176-6.187zM194.493 8.925c40.954 17.39 68.257 60.244 65.155 103.72-73.222 0-146.444.621-219.665-.621 0-29.19 9.928-59.002 31.026-79.498C102.035.851 153.538-9.086 194.493 8.926"/></svg>