<svg xmlns="http://www.w3.org/2000/svg" fill="none" viewBox="0 0 512 512"><path fill="#000" fill-rule="evenodd" d="M373.696 199.25a131 131 0 0 1 3.557 8.045c-.683-2.174-1.93-4.818-3.557-8.045m-83.899 34.149c-6.355 1.821-3.824 4.537 5.538 5.94 11.397 1.71 57.581.448 59.658-1.629a2.18 2.18 0 0 0 .002-3.072c-1.727-1.73-59.644-2.83-65.198-1.239m-42.846 14.766c-14.396 1.211-20.216 2.941-17.849 5.311.504.504 9.644 1.47 20.31 2.15 27.146 1.729 33.706 2.894 31.087 5.514-1.227 1.226-19.061 2.867-41.499 3.815-37.456 1.585-48.869 3.744-39.657 7.504 2.158.882 34.339 1.603 71.51 1.603s69.351-.721 71.51-1.603c7.637-3.117-.137-5.743-22.258-7.512-30.935-2.476-33.513-6.066-6.586-9.169 11.675-1.344 15.403-3.105 11.356-5.36-4.008-2.232-59.189-3.83-77.924-2.253m95.582 2.167-4.096 1.786 4.096 1.757c5.04 2.159 34.918 2.337 37.036.219a2.17 2.17 0 0 0 .006-3.063c-2.23-2.231-32.234-2.796-37.042-.699M178.65 285.074c-11.289.814-21.738 2.229-23.218 3.144-6.349 3.924 3.401 6.054 35.979 7.862 33.796 1.876 155.879.517 167.08-1.859 7.876-1.671 5.841-5.511-3.838-7.246-11.782-2.111-152.046-3.625-176.003-1.901" clip-rule="evenodd"/><path fill="#fff" fill-rule="evenodd" d="M289.797 233.399c-6.355 1.821-3.824 4.537 5.538 5.94 11.397 1.71 57.581.448 59.658-1.629a2.18 2.18 0 0 0 .002-3.072c-1.727-1.73-59.644-2.83-65.198-1.239m-42.846 14.766c-14.396 1.211-20.216 2.941-17.849 5.311.504.504 9.644 1.47 20.31 2.15 27.146 1.729 33.706 2.894 31.087 5.514-1.227 1.226-19.061 2.867-41.499 3.815-37.456 1.585-48.869 3.744-39.657 7.504 2.158.882 34.339 1.603 71.51 1.603s69.351-.721 71.51-1.603c7.637-3.117-.137-5.743-22.258-7.512-30.935-2.476-33.513-6.066-6.586-9.169 11.675-1.344 15.403-3.105 11.356-5.36-4.008-2.232-59.189-3.83-77.924-2.253m95.582 2.167-4.096 1.786 4.096 1.757c5.04 2.159 34.918 2.337 37.036.219a2.17 2.17 0 0 0 .006-3.063c-2.23-2.231-32.234-2.796-37.042-.699M178.65 285.074c-11.289.814-21.738 2.229-23.218 3.144-6.349 3.924 3.401 6.054 35.979 7.862 33.796 1.876 155.879.517 167.08-1.859 7.876-1.671 5.841-5.511-3.838-7.246-11.782-2.111-152.046-3.625-176.003-1.901" clip-rule="evenodd"/><path fill="#000" fill-rule="evenodd" d="M134.114 310.464c-9.231-19.961-10.122-41.044-8.643-62.992a131.15 131.15 0 0 1 20.276-61.707 130.85 130.85 0 0 1 47.38-44.359 130.6 130.6 0 0 1 62.829-16.099 130.6 130.6 0 0 1 61.706 15.485 130.85 130.85 0 0 1 47.11 42.822 131 131 0 0 1 8.721 15.219l.021.042.182.375c1.627 3.227 2.874 5.871 3.557 8.045 2.443 7.771-2.331 9.53-22.799 10.447-21.494.963-27.687 2.325-24.6 5.411.723.723 12.46 1.774 26.081 2.335l.512.021c17.669.727 25.052 1.031 28.129 7.02 2.21 4.299 2.2 11.528 2.184 23.947l-.001.5c-.024 20.408-3.295 38.875-8.974 50.682-3.211 6.672-10.301 11.405-21.768 14.457q-4.432 1.18-9.751 2.029c-8.812 1.411-17.32 3.279-18.909 4.154-5.163 2.842 4.131 5.873 24.175 7.884 10.356 1.039 19.417 2.478 20.138 3.199 3.756 3.756-6.04 6.089-32.6 7.764-36.481 2.302-49.253 4.092-50.221 7.041-1.055 3.21 4.972 4.506 33.14 7.125 25.328 2.358 33.856 4.346 33.856 7.893 0 4.475-14.729 5.21-104.448 5.21-73.27 0-94.866-.594-101.053-2.781-5.011-1.771-7.157-3.492-5.908-4.741 2.759-2.759 35.723-5.656 66.001-5.802 25.336-.121 52.42-2.574 54.81-4.964 4.152-4.152-7.403-6.019-52.109-8.426l-13.888-.744c-31.857-1.702-35.823-1.913-36.063-2.97-.034-.15.008-.318.055-.509.043-.174.091-.368.091-.587 0-4.06 9.797-4.918 70.656-6.189 58.886-1.233 75.71-2.954 69.058-7.064-1.167-.721-13.351-2.23-27.074-3.351s-25.869-2.605-26.991-3.299c-6.107-3.772 5.671-5.661 43.303-6.939 39.021-1.325 45.662-2.197 42.301-5.558-4.646-4.649-147.369-4.673-152.016-.026-2.894 2.891 1.312 4.087 21.135 6.006 38.695 3.746 27.275 8.792-19.892 8.792-16.36 0-26.897-.42-33.95-1.799-8.033-1.571-12.972-6.993-15.749-12.999m161.221-71.125c-9.362-1.403-11.893-4.119-5.538-5.94 5.554-1.591 63.471-.491 65.198 1.239a2.18 2.18 0 0 1-.002 3.072c-2.077 2.077-48.261 3.339-59.658 1.629m-66.233 14.137c-2.367-2.37 3.453-4.1 17.849-5.311 18.735-1.577 73.916.021 77.924 2.253 4.047 2.255.319 4.016-11.356 5.36-26.927 3.103-24.349 6.693 6.586 9.169 22.121 1.769 29.895 4.395 22.258 7.512-2.159.882-34.339 1.603-71.51 1.603s-69.352-.721-71.51-1.603c-9.212-3.76 2.201-5.919 39.657-7.504 22.438-.948 40.272-2.589 41.499-3.815 2.619-2.62-3.941-3.785-31.087-5.514-10.666-.68-19.806-1.646-20.31-2.15m109.335-1.358 4.096-1.786c4.808-2.097 34.812-1.532 37.042.699a2.17 2.17 0 0 1-.006 3.063c-2.118 2.118-31.996 1.94-37.036-.219zm-183.005 36.1c1.48-.915 11.929-2.33 23.218-3.144 23.957-1.724 164.221-.21 176.003 1.901 9.679 1.735 11.714 5.575 3.838 7.246-11.201 2.376-133.284 3.735-167.08 1.859-32.578-1.808-42.328-3.938-35.979-7.862" clip-rule="evenodd"/><path fill="#fff" fill-rule="evenodd" d="M423.424 313.939c6.207-18.06 9.576-37.454 9.576-57.631C433 158.379 353.729 79 256 79c-97.759 0-177 79.379-177 177.308a177.2 177.2 0 0 0 10.02 58.919c1.98 5.635-6.692 12.006-6.692 12.006s-2.58 2.627-3.291 3.785c-2.69 4.372.156 7.341 8.923 9.844 10.99 3.138 16.947 7.797 13.9 10.873-1.196 1.21-6.93 4.503-12.743 7.319-19.011 9.212-15.05 12.856 18.811 17.306 12.497 1.64 23.624 3.543 24.726 4.225 4.241 2.619 1.652 6.496-7.209 10.803-18.918 9.19-10.685 13.271 35.473 17.588 17.257 1.612 31.941 3.498 32.631 4.189 2.597 2.594-3.015 4.962-16.716 7.051-13.568 2.068-19.822 4.878-17.041 7.659.717.717 6.646 2.663 13.175 4.324 15.984 4.063 117.684 6.111 142.043 2.859 22.569-3.013 32.643-5.907 32.643-9.378 0-2.763-3.066-3.738-19.497-6.201-4.53-.678-9.493-2.012-11.031-2.962-5.468-3.379 4.94-6.025 35.896-9.124 16.822-1.685 32.174-3.672 34.113-4.415 6.201-2.38 3.799-7.088-5.689-11.156-9.689-4.153-11.971-9.089-5.196-11.239 2.21-.702 15.221-2.992 28.912-5.087 13.688-2.097 25.895-4.817 27.123-6.046 3.271-3.271-1.738-7.219-14.33-11.291-19.062-6.164-18.593-10.451 1.786-16.291 6.421-1.842 12.28-4.332 13.024-5.534.743-1.204-1.094-4.741-4.082-7.862 0 0-4.156-4.638-5.184-6.546-1.027-1.907-1.315-4.415-.074-7.987m-289.31-3.475c-9.231-19.961-10.122-41.044-8.643-62.992a131.15 131.15 0 0 1 20.276-61.707 130.85 130.85 0 0 1 47.38-44.359 130.6 130.6 0 0 1 62.829-16.099 130.6 130.6 0 0 1 61.706 15.485 130.85 130.85 0 0 1 47.11 42.822 131 131 0 0 1 8.721 15.219l.021.042.182.375c1.627 3.227 2.874 5.871 3.557 8.045 2.443 7.771-2.331 9.53-22.799 10.447-21.494.963-27.687 2.325-24.6 5.411.723.723 12.46 1.774 26.081 2.335l.512.021c17.669.727 25.052 1.031 28.129 7.02 2.21 4.299 2.2 11.528 2.184 23.947l-.001.5c-.024 20.408-3.295 38.875-8.974 50.682-3.211 6.672-10.301 11.405-21.768 14.457q-4.432 1.18-9.751 2.029c-8.812 1.411-17.32 3.279-18.909 4.154-5.163 2.842 4.131 5.873 24.175 7.884 10.356 1.039 19.417 2.478 20.138 3.199 3.756 3.756-6.04 6.089-32.6 7.764-36.481 2.302-49.253 4.092-50.221 7.041-1.055 3.21 4.972 4.506 33.14 7.125 25.328 2.358 33.856 4.346 33.856 7.893 0 4.475-14.729 5.21-104.448 5.21-73.27 0-94.866-.594-101.053-2.781-5.011-1.771-7.157-3.492-5.908-4.741 2.759-2.759 35.723-5.656 66.001-5.802 25.336-.121 52.42-2.574 54.81-4.964 4.152-4.152-7.403-6.019-52.109-8.426l-13.888-.744c-31.857-1.702-35.823-1.913-36.063-2.97-.034-.15.008-.318.055-.509.043-.174.091-.368.091-.587 0-4.06 9.797-4.918 70.656-6.189 58.886-1.233 75.71-2.954 69.058-7.064-1.167-.721-13.351-2.23-27.074-3.351s-25.869-2.605-26.991-3.299c-6.107-3.772 5.671-5.661 43.303-6.939 39.021-1.325 45.662-2.197 42.301-5.558-4.646-4.649-147.369-4.673-152.016-.026-2.894 2.891 1.312 4.087 21.135 6.006 38.695 3.746 27.275 8.792-19.892 8.792-16.36 0-26.897-.42-33.95-1.799-8.033-1.571-12.972-6.993-15.749-12.999m65.329 89.882c-23.558-2.986-26.923-8.302-6.801-10.75 5.845-.71 30.902-1.405 55.683-1.54q89.459-.492 70.363 10.181c-6.197 3.465-96.01 5.052-119.245 2.109" clip-rule="evenodd"/><path fill="#000" fill-rule="evenodd" d="M512 256c0 141.385-114.615 256-256 256S0 397.385 0 256 114.615 0 256 0s256 114.615 256 256m-79 .308c0 20.177-3.369 39.571-9.576 57.631-1.241 3.572-.953 6.08.074 7.987 1.028 1.908 5.184 6.546 5.184 6.546 2.988 3.121 4.825 6.658 4.082 7.862-.744 1.202-6.603 3.692-13.024 5.534-20.379 5.84-20.848 10.127-1.786 16.291 12.592 4.072 17.601 8.02 14.33 11.291-1.228 1.229-13.435 3.949-27.123 6.046-13.691 2.095-26.702 4.385-28.912 5.087-6.775 2.15-4.493 7.086 5.196 11.239 9.488 4.068 11.89 8.776 5.689 11.156-1.939.743-17.291 2.73-34.113 4.415-30.956 3.099-41.364 5.745-35.896 9.124 1.538.95 6.501 2.284 11.031 2.962 16.431 2.463 19.497 3.438 19.497 6.201 0 3.471-10.074 6.365-32.643 9.378-24.359 3.252-126.059 1.204-142.043-2.859-6.529-1.661-12.458-3.607-13.175-4.324-2.781-2.781 3.473-5.591 17.041-7.659 13.701-2.089 19.313-4.457 16.716-7.051-.69-.691-15.374-2.577-32.631-4.189-46.158-4.317-54.391-8.398-35.473-17.588 8.861-4.307 11.45-8.184 7.209-10.803-1.102-.682-12.229-2.585-24.726-4.225-33.861-4.45-37.822-8.094-18.81-17.306 5.812-2.816 11.546-6.109 12.742-7.319 3.047-3.076-2.91-7.735-13.9-10.873-8.767-2.503-11.612-5.472-8.923-9.844.712-1.158 3.291-3.785 3.291-3.785s8.672-6.371 6.692-12.006A177.2 177.2 0 0 1 79 256.308C79 158.379 158.241 79 256 79c97.729 0 177 79.379 177 177.308" clip-rule="evenodd"/><path fill="#000" d="M192.642 389.596c-20.122 2.448-16.757 7.764 6.801 10.75 23.235 2.943 113.048 1.356 119.245-2.109q19.096-10.673-70.363-10.181c-24.781.135-49.838.83-55.683 1.54"/></svg>