<svg width="321" height="256" viewBox="0 0 321 256" fill="none" xmlns="http://www.w3.org/2000/svg">
<path fill-rule="evenodd" clip-rule="evenodd" d="M0.207566 19.846C0.207566 41.5742 0.386112 43.5808 2.8394 49.4444C7.86456 61.455 18.7384 68.1223 35.0341 69.1842C73.8979 71.7173 73.8688 122.222 35.0019 124.717C11.4574 126.229 -1.99488 140.93 0.241072 162.706C2.07762 180.592 13.0229 190.177 34.5933 192.789C58.0064 195.624 62.8072 203.909 62.8072 241.478V255.995H131.138V235.942C131.138 202.02 122.982 188.637 97.1809 187.267C55.7934 185.069 56.8646 129.98 98.295 129.98C115.952 129.98 125.101 138.904 125.849 156.857C127.81 203.894 192.454 203.272 194.598 156.196C196.258 119.74 251.571 120.869 253.144 157.39C253.902 174.977 242.211 183.434 223.306 187.267C197.264 192.547 189.329 203.342 189.329 235.942V256L257.439 255.774L257.706 237.93C258.228 203.063 262.878 195.552 285.653 192.785C333.684 186.949 332.348 124.81 284.188 124.685C272.34 124.654 261.954 117.172 257.926 105.766C251.69 88.1084 265.424 69.2362 284.551 69.1816C302.118 69.1318 314.414 60.4346 318.912 44.8779L320.259 40.2176V0H252.067L251.788 20.3782C251.413 47.7335 250.72 50.2556 241.451 57.9852C237.012 61.6872 236.689 61.7767 230.504 61.01C203.467 57.6578 186.236 72.9497 186.787 99.8067L186.904 105.543L185.257 108.888C175.602 128.498 144.705 128.597 135.07 109.048L133.562 105.989L133.464 98.4875C133.12 72.1055 116.274 57.5851 89.919 60.9541C83.2847 61.8022 82.3739 61.4541 76.8925 55.9778C69.1936 48.2856 68.9789 47.3299 68.9789 20.7554V0H0.207566V19.846Z" fill="black"/>
</svg>
