<svg xmlns="http://www.w3.org/2000/svg" fill="none" viewBox="0 0 322 256"><path fill="#000" fill-rule="evenodd" d="M.208 19.846c0 21.728.179 23.735 2.634 29.598 5.03 12.011 15.915 18.678 32.228 19.74 38.902 2.533 38.873 53.038-.033 55.533C11.47 126.229-1.997 140.93.241 162.706c1.839 17.886 12.795 27.471 34.387 30.083 23.437 2.835 28.243 11.12 28.243 48.689v14.517h68.399v-20.053c0-33.922-8.164-47.305-33.99-48.675-41.43-2.198-40.358-57.287 1.114-57.287 17.675 0 26.833 8.924 27.582 26.877 1.963 47.037 66.673 46.415 68.819-.661 1.662-36.456 57.03-35.327 58.604 1.194.759 17.587-10.944 26.044-29.867 29.877-26.069 5.28-34.012 16.075-34.012 48.675V256l68.179-.226.267-17.844c.522-34.867 5.177-42.378 27.975-45.145 48.08-5.836 46.743-67.975-1.466-68.1-11.86-.031-22.257-7.513-26.289-18.919-6.242-17.658 7.506-36.53 26.652-36.584 17.585-.05 29.894-8.747 34.396-24.304l1.348-4.66V0h-68.26l-.28 20.378c-.375 27.356-1.069 29.878-10.347 37.607-4.444 3.702-4.767 3.792-10.959 3.025-27.063-3.352-44.312 11.94-43.761 38.797l.118 5.736-1.649 3.345c-9.665 19.61-40.593 19.709-50.238.16l-1.509-3.059-.098-7.502c-.344-26.381-17.208-40.902-43.59-37.533-6.64.848-7.552.5-13.039-4.976-7.707-7.692-7.921-8.648-7.921-35.223V0H.208z" clip-rule="evenodd"/></svg>