<svg width="256" height="256" viewBox="0 0 256 256" fill="none" xmlns="http://www.w3.org/2000/svg">
<path d="M128 256C198.692 256 256 198.692 256 128C256 57.3075 198.692 0 128 0C57.3075 0 0 57.3075 0 128C0 198.692 57.3075 256 128 256Z" fill="#FFCA0B"/>
<path fill-rule="evenodd" clip-rule="evenodd" d="M37.1177 78.7409C37.1177 91.0479 37.2189 92.1844 38.6099 95.5056C41.459 102.309 47.6242 106.085 56.8636 106.686C78.8985 108.121 78.882 136.727 56.8453 138.14C43.4961 138.997 35.8689 147.324 37.1367 159.658C38.178 169.788 44.3837 175.217 56.6136 176.697C69.8884 178.303 72.6103 182.995 72.6103 204.275V212.497H111.352V201.139C111.352 181.925 106.728 174.345 92.0995 173.569C68.6336 172.324 69.241 141.122 92.7311 141.122C102.742 141.122 107.929 146.176 108.354 156.345C109.466 182.987 146.117 182.635 147.333 155.971C148.274 135.322 179.635 135.961 180.527 156.647C180.957 166.608 174.328 171.398 163.61 173.569C148.844 176.56 144.345 182.674 144.345 201.139V212.5L182.962 212.372L183.114 202.265C183.409 182.516 186.046 178.262 198.959 176.694C226.192 173.389 225.434 138.193 198.129 138.123C191.411 138.105 185.522 133.867 183.238 127.406C179.703 117.405 187.49 106.716 198.334 106.685C208.294 106.657 215.266 101.731 217.816 92.9192L218.58 90.2795V67.5H179.917L179.758 79.0424C179.545 94.5366 179.153 95.9651 173.897 100.343C171.381 102.44 171.197 102.491 167.69 102.056C152.361 100.158 142.592 108.819 142.904 124.031L142.971 127.28L142.037 129.175C136.562 140.282 119.044 140.338 113.582 129.266L112.727 127.533L112.671 123.284C112.476 108.341 102.925 100.117 87.9821 102.025C84.2206 102.505 83.7042 102.308 80.5964 99.2062C76.2313 94.8493 76.1096 94.308 76.1096 79.256V67.5H37.1177V78.7409Z" fill="black"/>
</svg>
