<svg xmlns="http://www.w3.org/2000/svg" fill="none" viewBox="0 0 321 256"><path fill="#000" fill-rule="evenodd" d="M.208 19.846c0 21.728.178 23.735 2.631 29.598 5.026 12.011 15.9 18.678 32.195 19.74 38.864 2.533 38.835 53.038-.032 55.533-23.545 1.512-36.997 16.213-34.76 37.989 1.836 17.886 12.78 27.471 34.351 30.083 23.413 2.835 28.214 11.12 28.214 48.689v14.517h68.331v-20.053c0-33.922-8.156-47.305-33.957-48.675-41.388-2.198-40.316-57.287 1.114-57.287 17.657 0 26.806 8.924 27.554 26.877 1.961 47.037 66.605 46.415 68.749-.661 1.66-36.456 56.973-35.327 58.546 1.194.758 17.587-10.933 26.044-29.838 29.877-26.042 5.28-33.977 16.075-33.977 48.675V256l68.11-.226.267-17.844c.522-34.867 5.172-42.378 27.947-45.145 48.031-5.836 46.695-67.975-1.465-68.1-11.848-.031-22.234-7.513-26.262-18.919-6.236-17.658 7.498-36.53 26.625-36.584 17.567-.05 29.863-8.747 34.361-24.304l1.347-4.66V0h-68.192l-.279 20.378c-.375 27.356-1.068 29.878-10.337 37.607-4.439 3.702-4.762 3.792-10.947 3.025-27.037-3.352-44.268 11.94-43.717 38.797l.117 5.736-1.647 3.345c-9.655 19.61-40.552 19.709-50.187.16l-1.508-3.059-.098-7.502c-.344-26.381-17.19-40.902-43.545-37.533-6.634.848-7.545.5-13.026-4.976-7.7-7.692-7.914-8.648-7.914-35.223V0H.208z" clip-rule="evenodd"/></svg>