<svg xmlns="http://www.w3.org/2000/svg" fill="none" viewBox="0 0 256 256"><path fill="#fff" d="M128 256c70.692 0 128-57.308 128-128S198.692 0 128 0 0 57.308 0 128s57.308 128 128 128"/><path fill="#000" d="M184.316 57a15.2 15.2 0 0 0-12.941 7.21l-29.786 44.068a3.15 3.15 0 0 0 .88 4.377 3.18 3.18 0 0 0 3.821-.234l29.319-25.342a1.19 1.19 0 0 1 1.981.898v79.342c0 .655-.532 1.181-1.19 1.181-.353 0-.686-.153-.909-.424L86.863 62.356A15.23 15.23 0 0 0 75.277 57h-3.098C63.796 57 57 63.772 57 72.126v111.747C57 192.228 63.796 199 72.18 199a15.2 15.2 0 0 0 12.942-7.209l29.786-44.069a3.15 3.15 0 0 0-.881-4.377 3.175 3.175 0 0 0-3.82.235l-29.32 25.341a1.184 1.184 0 0 1-1.977-.898V88.661c0-.656.532-1.181 1.19-1.181.349 0 .686.153.91.424l88.615 105.74A15.23 15.23 0 0 0 181.212 199h3.096c8.384.004 15.185-6.764 15.192-15.118V72.126c0-8.354-6.8-15.126-15.184-15.126"/></svg>
