<svg xmlns="http://www.w3.org/2000/svg" fill="none" viewBox="0 0 256 256"><path fill="#000" d="M120.114 109.29 12.942 2.188c-.81-.808-2.427-1.617-3.236-2.02-1.618-.405-3.235 0-4.448.403-1.618.405-2.831 1.617-3.64 2.83C.808 5.017.404 6.23.404 7.846v118.418C0 127.073 0 127.478 0 128.287v120.437c0 .809 0 2.023.404 2.83.405.808.81 1.617 1.618 2.425.804.805 1.609 1.208 2.413 1.611l.014.007c.808 0 2.022.403 2.83.403h121.328c.808 0 2.022 0 2.831-.403l.013-.007c.805-.403 1.609-.806 2.413-1.611.809-.808 1.213-1.617 1.618-2.425.404-.807.404-2.021.404-2.83V146.877l107.172 107.102c.405.809 1.618 1.212 2.427 1.618 1.213.403 2.022.403 3.235.403.809 0 2.023 0 2.831-.403l.014-.007c.804-.403 1.609-.806 2.413-1.611.809-.808 1.213-1.617 1.618-2.425.404-.807.404-1.615.404-2.829V7.846c0-.808 0-2.02-.404-2.829h-.001c-.404-.808-.808-1.617-1.617-2.425S252.36 1.38 251.551.976c-.808 0-2.022-.405-2.831-.405H127.393c-.808 0-2.022 0-2.831.405-.808.404-1.617.808-2.426 1.616s-1.213 1.617-1.618 2.425c-.404.809-.404 2.021-.404 2.83z"/></svg>
