<svg xmlns="http://www.w3.org/2000/svg" fill="none" viewBox="0 0 256 256"><path fill="#000" d="M128 256c70.692 0 128-57.308 128-128S198.692 0 128 0 0 57.308 0 128s57.308 128 128 128"/><path fill="#FF86FF" d="m64.041 58.583 65.943 65.486a4.22 4.22 0 0 1 2.573 5.379 4.215 4.215 0 0 1-5.379 2.572H61.235a4.206 4.206 0 0 1-4.209-4.677V61.39a4.21 4.21 0 0 1 7.015-2.807"/><path fill="#FF59FF" d="m131.154 130.617-65.943 65.954a4.68 4.68 0 0 1-3.274 1.403 4.21 4.21 0 0 1-4.318-2.483 4.2 4.2 0 0 1-.36-1.727v-65.953a4.21 4.21 0 0 1 4.678-4.21h65.943a4.207 4.207 0 0 1 4.302 4.824 4.2 4.2 0 0 1-1.028 2.192"/><path fill="#F41AFA" d="m59.13 190.958 65.476-65.954a4.21 4.21 0 0 1 3.274-1.403 4.2 4.2 0 0 1 3.283 1.055 4.2 4.2 0 0 1 1.394 3.155v65.953a4.2 4.2 0 0 1-1.394 3.155 4.2 4.2 0 0 1-3.283 1.055H62.404a4.2 4.2 0 0 1-2.806-1.403 4.21 4.21 0 0 1 0-5.613z"/><path fill="#E200F1" d="m191.017 196.571-65.943-65.486a4.214 4.214 0 0 1-.328-5.802 4.2 4.2 0 0 1 1.731-1.214l1.403-.468h65.943a4.212 4.212 0 0 1 4.677 4.21v65.953a4.21 4.21 0 0 1-2.922 4.034 4.2 4.2 0 0 1-1.755.176 4.68 4.68 0 0 1-2.806-1.403"/><path fill="#BC00DE" d="m125.074 125.004 65.475-65.953a4.68 4.68 0 0 1 3.274-1.404 4.21 4.21 0 0 1 4.677 4.21v65.954a4.21 4.21 0 0 1-4.677 4.209H127.88a4.21 4.21 0 0 1-3.953-2.427c-.349-.747-.47-1.58-.349-2.396a4.2 4.2 0 0 1 1.028-2.193"/><path fill="#90C" d="m196.629 64.664-65.475 65.953a4.67 4.67 0 0 1-3.274 1.403 4.21 4.21 0 0 1-4.677-4.209V61.857a4.21 4.21 0 0 1 2.922-4.034 4.2 4.2 0 0 1 1.755-.176h65.475a4.21 4.21 0 0 1 3.274 1.404 4.68 4.68 0 0 1 0 5.613"/></svg>
