<svg xmlns="http://www.w3.org/2000/svg" fill="none" viewBox="0 0 512 512"><path fill="#000" d="M256 512c141.385 0 256-114.615 256-256S397.385 0 256 0 0 114.615 0 256s114.615 256 256 256"/><path fill="#FF86FF" d="m128.083 117.166 131.886 130.971a8.433 8.433 0 0 1-5.612 15.904H122.47a8.42 8.42 0 0 1-8.067-5.845 8.4 8.4 0 0 1-.351-3.51V122.779a8.43 8.43 0 0 1 5.268-7.177 8.42 8.42 0 0 1 8.763 1.564"/><path fill="#FF59FF" d="M262.307 261.234 130.421 393.141a9.35 9.35 0 0 1-6.548 2.807 8.43 8.43 0 0 1-6.567-2.109 8.417 8.417 0 0 1-2.786-6.311V255.621a8.4 8.4 0 0 1 2.786-6.31 8.42 8.42 0 0 1 6.567-2.109H255.76a8.417 8.417 0 0 1 8.604 9.647 8.4 8.4 0 0 1-2.057 4.385"/><path fill="#F41AFA" d="m118.261 381.915 130.951-131.907a8.42 8.42 0 0 1 6.548-2.806 8.4 8.4 0 0 1 6.567 2.109 8.41 8.41 0 0 1 2.786 6.31v131.907a8.417 8.417 0 0 1-9.353 8.42H124.809a8.41 8.41 0 0 1-5.612-2.807 8.417 8.417 0 0 1 0-11.226z"/><path fill="#E200F1" d="M382.034 393.141 250.148 262.17a8.42 8.42 0 0 1-2.501-7.797 8.42 8.42 0 0 1 5.307-6.236l2.806-.935h131.886a8.41 8.41 0 0 1 8.636 4.966 8.4 8.4 0 0 1 .718 3.453v131.907a8.418 8.418 0 0 1-9.354 8.42 9.35 9.35 0 0 1-5.612-2.807"/><path fill="#BC00DE" d="m250.148 250.008 130.951-131.907a9.35 9.35 0 0 1 6.547-2.806 8.41 8.41 0 0 1 8.636 4.966 8.4 8.4 0 0 1 .718 3.453v131.907a8.418 8.418 0 0 1-9.354 8.42H255.76a8.42 8.42 0 0 1-6.548-14.033"/><path fill="#90C" d="M393.258 129.328 262.307 261.234a9.35 9.35 0 0 1-6.547 2.807 8.43 8.43 0 0 1-8.636-4.966 8.4 8.4 0 0 1-.718-3.454V123.714a8.414 8.414 0 0 1 9.354-8.419h130.951a8.42 8.42 0 0 1 6.547 2.806 9.35 9.35 0 0 1 0 11.227"/></svg>