<svg xmlns="http://www.w3.org/2000/svg" fill="none" viewBox="0 0 256 256"><path fill="#000" fill-rule="evenodd" d="M230.022 50.685c-19.388-24.776-47.802-40.493-79.27-40.493C89.909 10.226 45.4 66.745 45.4 128c0 42.69 28.346 74.638 59.848 74.638 2.951 0 5.868-.274 8.751-.789C92.894 186.441 79.374 158.404 79.374 128c0-48.42 32.738-86.168 71.343-86.168 42.107 0 71.378 41.797 71.378 86.168-.103 32.738-11.77 65.304-32.326 89.325-17.947 20.968-41.145 34.283-66.711 38.503 0 0 2.128.172 4.908.172 70.691 0 128-57.308 128-128 0-29.032-9.678-55.798-25.978-77.28zm-19.423 77.281c0-42.69-28.345-74.638-59.847-74.638-2.951 0-5.868.274-8.751.789 21.105 15.408 34.625 43.444 34.625 73.849 0 48.42-32.738 86.168-71.343 86.168-42.107 0-71.378-41.797-71.378-86.168.102-32.738 11.77-65.304 32.326-89.326C84.144 17.673 107.376 4.393 132.907.172c0 0-2.127-.172-4.907-.172C57.308 0 0 57.308 0 128c0 29.032 9.677 55.798 25.978 77.28 19.388 24.777 47.802 40.494 79.27 40.494 60.843 0 105.317-56.519 105.317-117.774z" clip-rule="evenodd"/></svg>