<svg xmlns="http://www.w3.org/2000/svg" fill="none" viewBox="0 0 256 256"><path fill="#000" fill-rule="evenodd" d="M230.053 50.685c-19.391-24.776-47.809-40.493-79.281-40.493C89.921 10.226 45.407 66.745 45.407 128c0 42.69 28.349 74.638 59.855 74.638 2.952 0 5.869-.274 8.752-.789-21.107-15.408-34.63-43.445-34.63-73.849 0-48.42 32.743-86.168 71.354-86.168 42.111 0 71.387 41.797 71.387 86.168-.103 32.738-11.772 65.304-32.33 89.325-17.95 20.968-41.151 34.283-66.72 38.503 0 0 2.128.172 4.908.172C198.684 256 256 198.692 256 128c0-29.032-9.679-55.798-25.981-77.28zm-19.425 77.281c0-42.69-28.349-74.638-59.856-74.638a49.7 49.7 0 0 0-8.752.789c21.108 15.408 34.63 43.444 34.63 73.849 0 48.42-32.742 86.168-71.353 86.168-42.112 0-71.388-41.797-71.388-86.168.103-32.738 11.772-65.304 32.33-89.326C84.155 17.673 107.39 4.393 132.925.172c0 0-2.128-.172-4.908-.172C57.316 0 0 57.308 0 128c0 29.032 9.679 55.798 25.981 77.28 19.391 24.777 47.81 40.494 79.281 40.494 60.851 0 105.331-56.519 105.331-117.774z" clip-rule="evenodd"/></svg>