<svg xmlns="http://www.w3.org/2000/svg" fill="none" viewBox="0 0 512 512"><path fill="#0092F6" d="M256 512c141.385 0 256-114.615 256-256S397.385 0 256 0 0 114.615 0 256s114.615 256 256 256"/><path fill="#fff" fill-rule="evenodd" d="M401.324 145.914c-27.613-35.287-68.08-57.67-112.897-57.67-86.652.048-150.04 80.542-150.04 167.78 0 60.799 40.369 106.299 85.235 106.299 4.203 0 8.357-.391 12.462-1.124-30.057-21.944-49.313-61.873-49.313-105.175 0-68.959 46.625-122.72 101.607-122.72 59.968 0 101.656 59.528 101.656 122.72-.146 46.625-16.763 93.006-46.038 127.217-25.561 29.861-58.599 48.824-95.009 54.836 0 0 3.03.244 6.989.244 100.678 0 182.296-81.618 182.296-182.297 0-41.346-13.782-79.467-36.997-110.062zm-27.662 110.062c0-60.798-40.369-106.299-85.235-106.299-4.203 0-8.357.391-12.462 1.124 30.057 21.944 49.313 61.873 49.313 105.175 0 68.959-46.625 122.72-101.607 122.72-59.968 0-101.656-59.528-101.656-122.72.146-46.625 16.763-93.006 46.038-127.217 25.512-29.861 58.599-48.775 94.96-54.787 0 0-3.03-.244-6.989-.244-100.678 0-182.296 81.618-182.296 182.296 0 41.347 13.782 79.468 36.997 110.063 27.613 35.286 68.08 57.67 112.897 57.67 86.652 0 149.991-80.494 149.991-167.733z" clip-rule="evenodd"/></svg>