<svg xmlns="http://www.w3.org/2000/svg" fill="none" viewBox="0 0 256 256"><path fill="#0092F6" d="M128 256c70.692 0 128-57.308 128-128S198.692 0 128 0 0 57.308 0 128s57.308 128 128 128"/><path fill="#fff" fill-rule="evenodd" d="M200.662 72.957c-13.807-17.643-34.04-28.835-56.448-28.835-43.326.024-75.02 40.271-75.02 83.89 0 30.399 20.184 53.15 42.617 53.15 2.101 0 4.178-.196 6.231-.562-15.028-10.972-24.656-30.937-24.656-52.588 0-34.48 23.312-61.36 50.803-61.36 29.984 0 50.828 29.764 50.828 61.36-.073 23.313-8.382 46.503-23.019 63.609-12.78 14.93-29.299 24.412-47.505 27.417 0 0 1.515.122 3.495.122 50.339 0 91.148-40.809 91.148-91.148 0-20.673-6.891-39.734-18.498-55.03zm-13.831 55.031c0-30.4-20.185-53.15-42.617-53.15-2.102 0-4.179.196-6.232.562 15.029 10.972 24.657 30.937 24.657 52.588 0 34.48-23.313 61.36-50.804 61.36-29.983 0-50.828-29.764-50.828-61.36.074-23.313 8.382-46.503 23.02-63.609 12.755-14.93 29.299-24.387 47.48-27.393 0 0-1.515-.122-3.495-.122-50.339 0-91.148 40.809-91.148 91.148 0 20.674 6.891 39.734 18.498 55.031 13.807 17.643 34.04 28.835 56.449 28.835 43.326 0 74.996-40.247 74.996-83.866z" clip-rule="evenodd"/></svg>
