<svg xmlns="http://www.w3.org/2000/svg" fill="none" viewBox="0 0 512 512"><path fill="#000" d="M256 512c141.385 0 256-114.615 256-256S397.385 0 256 0 0 114.615 0 256s114.615 256 256 256"/><path fill="#fff" fill-rule="evenodd" d="M201.693 114.688h-81.508c-3.726 0-6.521 2.795-6.521 6.521v81.508c0 3.726 2.795 6.52 6.521 6.52h81.508c3.726 0 6.52-2.794 6.52-6.52v-81.508c0-3.726-2.794-6.521-6.52-6.521m95.015 94.549h-81.974c-3.726 0-6.521 2.795-6.521 6.521v81.508c0 3.726 2.795 6.521 6.521 6.521h81.974c3.26 0 6.055-2.795 6.055-6.521v-81.508c0-3.726-2.795-6.521-6.055-6.521m12.575-94.549h81.508c3.726 0 6.521 2.795 6.521 6.521v81.508c0 3.726-2.795 6.52-6.521 6.52h-81.508c-3.726 0-6.52-2.794-6.52-6.52v-81.508c0-3.726 2.794-6.521 6.52-6.521m-107.59 189.099h-81.508c-3.726 0-6.521 2.794-6.521 6.52v81.508c0 3.726 2.795 6.521 6.521 6.521h81.508c3.726 0 6.52-2.795 6.52-6.521v-81.508c0-3.726-2.794-6.52-6.52-6.52m107.59 0h81.508c3.726 0 6.521 2.794 6.521 6.52v81.508c0 3.726-2.795 6.521-6.521 6.521h-81.508c-3.726 0-6.52-2.795-6.52-6.521v-81.508c0-3.726 2.794-6.52 6.52-6.52" clip-rule="evenodd"/></svg>
