<svg xmlns="http://www.w3.org/2000/svg" fill="none" viewBox="0 0 256 256"><path fill="#000" d="M128 256c70.692 0 128-57.308 128-128S198.692 0 128 0 0 57.308 0 128s57.308 128 128 128"/><path fill="#fff" fill-rule="evenodd" d="M100.846 57.344H60.092c-1.863 0-3.26 1.397-3.26 3.26v40.754c0 1.863 1.397 3.261 3.26 3.261h40.754c1.863 0 3.261-1.398 3.261-3.261V60.604c0-1.863-1.398-3.26-3.261-3.26m47.508 47.275h-40.987c-1.863 0-3.26 1.397-3.26 3.26v40.754c0 1.863 1.397 3.26 3.26 3.26h40.987c1.63 0 3.027-1.397 3.027-3.26v-40.754c0-1.863-1.397-3.26-3.027-3.26m6.288-47.275h40.754c1.863 0 3.26 1.397 3.26 3.26v40.754c0 1.863-1.397 3.261-3.26 3.261h-40.754c-1.863 0-3.261-1.398-3.261-3.261V60.604c0-1.863 1.398-3.26 3.261-3.26m-53.796 94.549H60.092c-1.863 0-3.26 1.398-3.26 3.261v40.754c0 1.863 1.397 3.26 3.26 3.26h40.754c1.863 0 3.261-1.397 3.261-3.26v-40.754c0-1.863-1.398-3.261-3.261-3.261m53.796 0h40.754c1.863 0 3.26 1.398 3.26 3.261v40.754c0 1.863-1.397 3.26-3.26 3.26h-40.754c-1.863 0-3.261-1.397-3.261-3.26v-40.754c0-1.863 1.398-3.261 3.261-3.261" clip-rule="evenodd"/></svg>