<svg xmlns="http://www.w3.org/2000/svg" fill="none" viewBox="0 0 512 512"><path fill="#FAC315" fill-rule="evenodd" d="M256 0c141.395 0 256 114.605 256 256S397.395 512 256 512 0 397.395 0 256 114.605 0 256 0" clip-rule="evenodd"/><path fill="#fff" d="m141.74 256.45.183 66.808 56.999 33.405v39.113l-90.358-52.779V236.913zm0-66.809v38.932l-33.196-19.557v-38.931l33.196-19.557 33.358 19.557zm80.986-19.556 33.196-19.557 33.358 19.557-33.358 19.556z"/><path fill="#fff" d="M166.4 309.643v-39.17l33.101 19.585v38.988zm56.837 61.352 33.1 19.585 33.263-19.585v38.988l-33.263 19.585-33.1-19.585zm113.835-200.882 33.101-19.585 33.263 19.585v38.988l-33.263 19.586v-38.988zm33.101 153.398.182-66.906 33.101-19.585v106.239l-90.1 52.856v-39.171z"/><path fill="#fff" d="m346.112 309.2-32.768 19.504v-39.192l32.768-19.688z"/><path fill="#fff" d="m345.93 202.877.182 39.174-56.838 33.455v67.074l-33.008 19.404-33.007-19.404v-67.074l-56.839-33.455v-39.174l33.149-19.586 56.495 33.617 56.838-33.617 33.17 19.586zM166.4 135.986l89.684-53.042 89.846 53.042-33.007 19.587-56.839-33.618-56.676 33.618z"/></svg>