<svg width="256" height="256" viewBox="0 0 256 256" fill="none" xmlns="http://www.w3.org/2000/svg">
<path fill-rule="evenodd" clip-rule="evenodd" d="M128 0C198.697 0 256 57.3026 256 128C256 198.697 198.697 256 128 256C57.3026 256 0 198.697 0 128C0 57.3026 57.3026 0 128 0Z" fill="#FAC315"/>
<path d="M64.9037 128.358L65.0051 165.46L96.6059 184.012V205.733L46.5113 176.422V117.508L64.9037 128.358ZM64.9037 91.2551V112.876L46.5 102.015V80.3942L64.9037 69.5332L83.3976 80.3942L64.9037 91.2551ZM109.803 80.3942L128.207 69.5332L146.701 80.3942L128.207 91.2551L109.803 80.3942Z" fill="white"/>
<path d="M78.5755 157.899V136.145L96.9266 147.022V168.675L78.5755 157.899ZM110.086 191.971L128.437 202.848L146.878 191.971V213.623L128.437 224.5L110.086 213.623V191.971ZM173.197 80.4101L191.548 69.5332L209.989 80.4101V102.062L191.548 112.939V91.2869L173.197 80.4101ZM191.548 165.601L191.649 128.444L210 117.567V176.568L160.049 205.922V184.168L191.548 165.601Z" fill="white"/>
<path d="M178.208 157.653L160.042 168.484V146.719L178.208 135.785V157.653Z" fill="white"/>
<path d="M178.107 98.6058L178.208 120.361L146.697 138.941V176.19L128.398 186.967L110.098 176.19V138.941L78.5867 120.361V98.6058L96.9646 87.7281L128.285 106.398L159.797 87.7281L178.186 98.6058H178.107ZM78.5755 61.4574L128.297 32L178.107 61.4574L159.808 72.3351L128.297 53.6652L96.875 72.3351L78.5755 61.4574Z" fill="white"/>
</svg>
