<svg width="217" height="256" viewBox="0 0 217 256" fill="none" xmlns="http://www.w3.org/2000/svg">
<path d="M24.4257 128.143L24.5603 177.485L66.5014 202.156V231.043L0.0149634 192.063V113.715L24.4257 128.143ZM24.4257 78.8016V107.554L0 93.1107V64.358L24.4257 49.9143L48.9711 64.358L24.4257 78.8016ZM84.0167 64.358L108.442 49.9143L132.988 64.358L108.442 78.8016L84.0167 64.358Z" fill="black"/>
<path d="M42.5712 167.429V138.5L66.9271 152.965V181.759L42.5712 167.429ZM84.3923 212.74L108.748 227.205L133.223 212.74V241.535L108.748 256L84.3923 241.535V212.74ZM168.154 64.3791L192.51 49.9143L216.985 64.3791V93.1739L192.51 107.639V78.8439L168.154 64.3791ZM192.51 177.672L192.644 128.258L217 113.793V192.256L150.704 231.293V202.364L192.51 177.672Z" fill="black"/>
<path d="M174.806 167.102L150.694 181.507V152.561L174.806 138.021V167.102Z" fill="black"/>
<path d="M174.672 88.577L174.806 117.509L132.983 142.217V191.755L108.696 206.086L84.4085 191.755V142.217L42.586 117.509V88.577L66.9775 74.1112L108.547 98.9397L150.369 74.1112L174.776 88.577H174.672ZM42.5712 39.1746L108.562 0L174.672 39.1746L150.384 53.6404L108.562 28.8119L66.8585 53.6404L42.5712 39.1746Z" fill="black"/>
</svg>
