<svg width="256" height="256" viewBox="0 0 256 256" fill="none" xmlns="http://www.w3.org/2000/svg">
<path d="M128 0C57.314 0 0 57.3139 0 128C0 198.686 57.314 256 128 256C198.686 256 256 198.686 256 128C256 57.3139 198.686 0 128 0ZM128 193.172V240.996C78.8065 240.996 38.9159 201.105 38.9159 151.912C38.9159 102.719 78.8065 62.8282 128 62.8282V15.0036C177.193 15.0036 217.084 54.8947 217.084 104.088C217.084 153.281 177.193 193.172 128 193.172ZM172.073 127.587V128.413C152.643 138.09 138.09 152.643 128.413 172.073H127.587C117.91 152.643 103.356 138.09 83.9265 128.413V127.587C103.356 117.91 117.91 103.357 127.587 83.927H128.413C138.09 103.357 152.643 117.91 172.073 127.587Z" fill="#FF0420"/>
<path fill-rule="evenodd" clip-rule="evenodd" d="M128 193.172V240.996C78.8065 240.996 38.9159 201.105 38.9159 151.912C38.9159 102.719 78.8065 62.8282 128 62.8282V15.0036C177.193 15.0036 217.084 54.8947 217.084 104.088C217.084 153.281 177.193 193.172 128 193.172ZM172.073 128.413V127.587C152.643 117.91 138.09 103.357 128.413 83.927H127.587C117.91 103.357 103.356 117.91 83.9265 127.587V128.413C103.356 138.09 117.91 152.643 127.587 172.073H128.413C138.09 152.643 152.643 138.09 172.073 128.413Z" fill="white"/>
</svg>
