<svg xmlns="http://www.w3.org/2000/svg" fill="none" viewBox="0 0 256 256"><path fill="#FF0420" d="M128 0C57.314 0 0 57.314 0 128s57.314 128 128 128 128-57.314 128-128S198.686 0 128 0m0 193.172v47.824c-49.193 0-89.084-39.891-89.084-89.084S78.806 62.828 128 62.828V15.004c49.193 0 89.084 39.89 89.084 89.084 0 49.193-39.891 89.084-89.084 89.084m44.073-65.585v.826q-29.145 14.515-43.66 43.66h-.826q-14.516-29.145-43.66-43.66v-.826q29.144-14.515 43.66-43.66h.826q14.515 29.145 43.66 43.66"/><path fill="#fff" fill-rule="evenodd" d="M128 193.172v47.824c-49.193 0-89.084-39.891-89.084-89.084S78.806 62.828 128 62.828V15.004c49.193 0 89.084 39.89 89.084 89.084 0 49.193-39.891 89.084-89.084 89.084m44.073-64.759v-.826q-29.145-14.515-43.66-43.66h-.826q-14.516 29.145-43.66 43.66v.826q29.144 14.515 43.66 43.66h.826q14.515-29.145 43.66-43.66" clip-rule="evenodd"/></svg>
