<svg xmlns="http://www.w3.org/2000/svg" fill="none" viewBox="0 0 443 256"><path fill="#000" fill-rule="evenodd" d="M146.913 3.36c61.579 16.094 82.572 97.966 46.884 180.538-39.886 88.87-156.746 97.967-187.536 13.995-16.094-51.782 0-124.557 34.988-162.344 28.69-30.09 70.676-41.986 105.664-32.19M51.046 146.11c4.898-58.78 23.092-93.768 53.882-100.766 9.096-2.799 23.791-2.799 30.789 2.1 16.095 6.997 23.092 20.993 23.092 51.782 0 67.877-25.891 114.761-65.777 114.761-30.09 0-44.085-23.092-41.986-67.877M379.234 5.459c44.085 6.298 76.974 55.98 58.08 102.865-10.496 27.99-34.988 56.681-109.162 56.681-19.594 0-27.991-2.799-33.589.699-5.598 4.199-6.298 14.695-11.196 43.386-7.698 45.484-9.097 45.484-25.192 44.784h-7.697c-16.794 0-26.591 0-23.792-16.094l37.787-216.226c2.1-11.197 6.998-16.095 13.996-18.194 0 0 57.38-4.199 100.765 2.099m0 51.083c22.393 12.595 13.995 51.782-23.092 63.678-10.496 4.198-23.092 4.198-32.189 3.499-1.399 0 1.4 0 0 0-10.496 0-20.293.699-23.092-2.1-3.499-4.198-1.4-13.295 3.499-36.387-.7 3.499.699-4.899 0 0 7.697-37.787 7.697-37.787 33.588-37.787 20.993 0 30.09 2.799 41.286 9.097" clip-rule="evenodd"/></svg>