<svg xmlns="http://www.w3.org/2000/svg" fill="none" viewBox="0 0 241 256"><path fill="#000" d="M120.31 53.698c25.482 0 46.14-12.02 46.14-26.849C166.45 12.021 145.792 0 120.31 0S74.17 12.02 74.17 26.849c0 14.828 20.658 26.849 46.14 26.849m0 202.302c25.482 0 46.14-12.021 46.14-26.849s-20.658-26.849-46.14-26.849-46.14 12.021-46.14 26.849S94.828 256 120.31 256M56.011 90.863c12.741-22.08 12.659-45.992-.185-53.412-12.843-7.419-33.583 4.466-46.324 26.545s-12.658 45.993.185 53.412 33.583-4.465 46.324-26.545m175.087 101.139c12.741-22.079 12.665-45.988-.169-53.402-12.835-7.415-33.568 4.474-46.309 26.553s-12.665 45.989.169 53.403c12.835 7.414 33.568-4.474 46.309-26.554M55.833 218.55c12.843-7.419 12.926-31.333.185-53.412-12.742-22.079-33.482-33.964-46.325-26.545s-12.926 31.333-.185 53.412c12.742 22.08 33.482 33.964 46.325 26.545M230.94 117.414c12.834-7.414 12.91-31.324.169-53.403-12.741-22.08-33.474-33.968-46.309-26.554-12.834 7.414-12.91 31.324-.169 53.403s33.474 33.968 46.309 26.554"/></svg>