<svg xmlns="http://www.w3.org/2000/svg" fill="none" viewBox="0 0 241 256"><path fill="#000" d="M120.502 53.698c25.523 0 46.214-12.02 46.214-26.849C166.716 12.021 146.025 0 120.502 0S74.289 12.02 74.289 26.849c0 14.828 20.69 26.849 46.213 26.849m0 202.302c25.523 0 46.214-12.021 46.214-26.849s-20.691-26.849-46.214-26.849-46.213 12.021-46.213 26.849S94.979 256 120.502 256M56.1 90.863c12.762-22.08 12.68-45.992-.184-53.412-12.864-7.419-33.637 4.466-46.399 26.545-12.761 22.08-12.678 45.993.185 53.412s33.637-4.465 46.399-26.545m175.366 101.139c12.762-22.079 12.686-45.988-.169-53.402s-33.621 4.474-46.383 26.553c-12.761 22.08-12.685 45.989.17 53.403s33.621-4.474 46.382-26.554M55.922 218.55c12.864-7.419 12.947-31.333.185-53.412S22.572 131.174 9.71 138.593s-12.947 31.333-.185 53.412 33.534 33.964 46.398 26.545m175.386-101.136c12.855-7.414 12.931-31.324.169-53.403-12.761-22.08-33.528-33.968-46.382-26.554-12.855 7.414-12.931 31.324-.17 53.403 12.762 22.079 33.528 33.968 46.383 26.554"/></svg>
