<svg xmlns="http://www.w3.org/2000/svg" fill="none" viewBox="0 0 512 512"><path fill="#E6007A" d="M256 512c141.385 0 256-114.615 256-256S397.385 0 256 0 0 114.615 0 256s114.615 256 256 256"/><path fill="#fff" d="M256.003 150.403c36.366 0 65.846-17.155 65.846-38.317s-29.48-38.316-65.846-38.316-65.846 17.155-65.846 38.316 29.48 38.317 65.846 38.317m0 288.705c36.366 0 65.846-17.155 65.846-38.316s-29.48-38.316-65.846-38.316-65.846 17.154-65.846 38.316c0 21.161 29.48 38.316 65.846 38.316m-91.761-235.667c18.183-31.509 18.065-65.636-.263-76.224s-47.927 6.373-66.11 37.882c-18.183 31.51-18.065 65.636.264 76.224 18.328 10.588 47.926-6.372 66.109-37.882m249.867 144.336c18.183-31.51 18.075-65.631-.241-76.211-18.316-10.581-47.905 6.385-66.087 37.895-18.183 31.509-18.075 65.63.241 76.211 18.316 10.58 47.904-6.386 66.087-37.895m-250.121 37.886c18.328-10.588 18.446-44.715.263-76.224-18.182-31.51-47.781-48.47-66.11-37.882-18.328 10.588-18.446 44.714-.263 76.224 18.183 31.509 47.781 48.47 66.11 37.882m249.895-144.331c18.316-10.581 18.424-44.702.241-76.212-18.182-31.509-47.771-48.475-66.087-37.894-18.316 10.58-18.424 44.701-.241 76.211s47.771 48.475 66.087 37.895"/></svg>