<svg xmlns="http://www.w3.org/2000/svg" fill="none" viewBox="0 0 256 256"><path fill="#6F4ADA" d="M256 128a128 128 0 0 1-37.49 90.51 128.003 128.003 0 0 1-181.02 0A128.001 128.001 0 1 1 256 128"/><path fill="#fff" d="M122.742 73.352c-3.246 1.892-5.342 5.523-5.59 9.683l.285 30.291-.369 20.229.518 29.886c-.015 3.757-2.112 7.388-5.591 9.683L91.477 184.41c-3.247 1.891-7.643 2.043-11.278-.056l-20.197-11.661c-3.231-1.866-5.531-5.345-5.687-9.739l-.082-23.179c.015-3.757 2.111-7.388 5.59-9.683l20.52-11.286c3.245-1.891 7.642-2.043 11.277.056l13.33 7.696-.035-20.462-13.734-7.929c-3.231-1.866-7.394-2.118-11.278-.056l-37.62 21.316c-3.246 1.891-5.342 5.523-5.59 9.683l.288 44.278c-.248 4.161 2.051 7.64 5.283 9.506l37.97 21.922c3.231 1.866 7.394 2.117 11.277.056l37.853-21.72c3.247-1.891 5.343-5.523 5.591-9.683l-.114-29.653-.035-20.462-.114-29.654c.015-3.757 2.111-7.388 5.59-9.683l20.115-11.519c3.246-1.891 7.643-2.043 11.278.056l20.197 11.66c3.231 1.866 5.531 5.346 5.687 9.74l.315 22.775c-.015 3.758-2.112 7.389-5.591 9.684l-20.115 11.518c-3.246 1.892-7.642 2.044-11.278-.055l-12.925-7.463.034 20.462 13.33 7.696c3.232 1.866 7.395 2.117 11.278.056l37.853-21.72c3.246-1.891 5.343-5.522 5.591-9.683l-.117-43.642c.015-3.757-2.052-7.64-5.687-9.738l-38.374-22.155c-3.231-1.866-7.394-2.118-11.278-.056z"/></svg>