<svg xmlns="http://www.w3.org/2000/svg" fill="none" viewBox="0 0 512 512"><path fill="#6F4ADA" d="M512 256a256 256 0 0 1-74.981 181.019 255.997 255.997 0 0 1-362.038 0A256 256 0 1 1 512 256"/><path fill="#fff" d="M245.485 146.705c-6.493 3.783-10.686 11.045-11.181 19.366l.57 60.58-.738 40.458 1.036 59.773c-.03 7.514-4.223 14.776-11.182 19.366l-41.037 22.571c-6.492 3.783-15.285 4.086-22.555-.112l-40.394-23.321c-6.463-3.731-11.062-10.69-11.374-19.478l-.164-46.358c.03-7.514 4.223-14.777 11.181-19.366l41.037-22.571c6.493-3.783 15.285-4.086 22.556.111l26.66 15.392-.07-40.924-27.468-15.858c-6.463-3.731-14.789-4.235-22.555-.112l-75.24 42.632c-6.493 3.783-10.686 11.045-11.181 19.366l.575 88.557c-.495 8.321 4.104 15.28 10.567 19.011l75.939 43.844c6.463 3.731 14.789 4.235 22.556.111l75.706-43.439c6.492-3.783 10.685-11.045 11.181-19.366l-.229-59.307-.069-40.924-.228-59.307c.029-7.514 4.222-14.776 11.181-19.366l40.229-23.037c6.493-3.783 15.285-4.086 22.556.111l40.393 23.321c6.463 3.732 11.062 10.691 11.375 19.478l.629 45.552c-.029 7.514-4.222 14.777-11.181 19.366l-40.229 23.038c-6.493 3.782-15.285 4.086-22.556-.112l-25.852-14.925.07 40.924 26.66 15.392c6.462 3.731 14.789 4.235 22.555.112l75.706-43.44c6.493-3.783 10.686-11.045 11.181-19.366l-.233-87.283c.03-7.514-4.104-15.28-11.375-19.478l-76.747-44.31c-6.463-3.731-14.789-4.235-22.555-.112z"/></svg>