<svg xmlns="http://www.w3.org/2000/svg" fill="none" viewBox="0 0 256 256"><path fill="#734FD9" d="M256 128a128 128 0 0 1-37.49 90.51 128.003 128.003 0 0 1-181.02 0A128.001 128.001 0 1 1 256 128"/><path fill="#fff" d="M172.145 97.818c-3.262-1.865-7.455-1.865-11.182 0l-26.089 15.392-17.703 9.795-25.624 15.392c-3.26 1.865-7.454 1.865-11.18 0L60.332 126.27c-3.26-1.866-5.59-5.597-5.59-9.795V93.154c0-3.731 1.863-7.463 5.59-9.795L80.366 71.7c3.261-1.866 7.454-1.866 11.181 0l20.033 12.127c3.261 1.865 5.591 5.597 5.591 9.794v15.392l17.703-10.261V82.893c0-3.732-1.864-7.463-5.591-9.795l-37.27-21.922c-3.261-1.866-7.454-1.866-11.18 0L42.63 73.564c-3.727 1.866-5.59 5.597-5.59 9.329v43.843c0 3.732 1.863 7.463 5.59 9.795l37.736 21.922c3.261 1.865 7.454 1.865 11.181 0l25.624-14.926 17.703-10.261 25.624-14.925c3.261-1.866 7.454-1.866 11.181 0l20.032 11.66c3.262 1.866 5.591 5.597 5.591 9.795v23.321c0 3.731-1.863 7.463-5.591 9.795l-19.566 11.66c-3.262 1.866-7.455 1.866-11.182 0l-20.032-11.66c-3.262-1.866-5.591-5.597-5.591-9.795v-14.925l-17.703 10.261v15.392c0 3.731 1.863 7.462 5.59 9.795l37.736 21.921c3.262 1.866 7.454 1.866 11.182 0l37.736-21.921c3.261-1.866 5.59-5.598 5.59-9.795v-44.31c0-3.732-1.863-7.463-5.59-9.795z"/></svg>
