<svg xmlns="http://www.w3.org/2000/svg" fill="none" viewBox="0 0 291 256"><path fill="#000" d="M220.191 78.243c-5.315-3.038-12.149-3.038-18.223 0l-42.52 25.069-28.852 15.952-41.76 25.068c-5.315 3.039-12.149 3.039-18.223 0l-32.65-19.75c-5.314-3.039-9.11-9.116-9.11-15.953V70.647c0-6.077 3.037-12.154 9.11-15.953l32.65-18.99c5.315-3.04 12.148-3.04 18.223 0l32.649 19.75c5.314 3.039 9.111 9.116 9.111 15.953v25.068l28.852-16.712V53.935c0-6.077-3.037-12.154-9.111-15.953L89.595 2.28C84.28-.76 77.446-.76 71.372 2.279L9.112 38.742C3.036 41.78 0 47.858 0 53.935v71.406c0 6.077 3.037 12.154 9.111 15.953l61.502 35.703c5.315 3.039 12.148 3.039 18.223 0l41.76-24.309 28.852-16.712 41.761-24.308c5.315-3.039 12.148-3.039 18.222 0l32.649 18.991c5.315 3.038 9.112 9.115 9.112 15.952v37.982c0 6.078-3.037 12.155-9.112 15.953l-31.889 18.991c-5.315 3.039-12.149 3.039-18.223 0l-32.649-18.991c-5.315-3.039-9.112-9.116-9.112-15.953v-24.308l-28.852 16.712v25.068c0 6.077 3.037 12.155 9.111 15.953l61.502 35.703c5.315 3.039 12.149 3.039 18.223 0l61.501-35.703c5.315-3.039 9.112-9.116 9.112-15.953v-72.166c0-6.077-3.038-12.154-9.112-15.952z"/></svg>