<svg xmlns="http://www.w3.org/2000/svg" fill="none" viewBox="0 0 291 256"><path fill="#000" d="M220.339 78.243c-5.318-3.038-12.156-3.038-18.235 0l-42.548 25.069-28.872 15.952-41.788 25.068c-5.319 3.039-12.157 3.039-18.235 0l-32.671-19.75c-5.319-3.039-9.118-9.116-9.118-15.953V70.647c0-6.077 3.04-12.154 9.118-15.953l32.67-18.99c5.32-3.04 12.157-3.04 18.236 0l32.671 19.75c5.318 3.039 9.117 9.116 9.117 15.953v25.068l28.872-16.712V53.935c0-6.077-3.039-12.154-9.118-15.953L89.655 2.28C84.337-.76 77.5-.76 71.42 2.279L9.117 38.742C3.04 41.78 0 47.858 0 53.935v71.406c0 6.077 3.04 12.154 9.117 15.953l61.544 35.703c5.318 3.039 12.156 3.039 18.235 0l41.788-24.309 28.872-16.712 41.789-24.308c5.318-3.039 12.156-3.039 18.235 0l32.671 18.991c5.318 3.038 9.117 9.115 9.117 15.952v37.982c0 6.078-3.039 12.155-9.117 15.953l-31.912 18.991c-5.318 3.039-12.156 3.039-18.235 0l-32.671-18.991c-5.318-3.039-9.118-9.116-9.118-15.953v-24.308l-28.871 16.712v25.068c0 6.077 3.039 12.155 9.117 15.953l61.543 35.703c5.319 3.039 12.157 3.039 18.235 0l61.543-35.703c5.319-3.039 9.118-9.116 9.118-15.953v-72.166c0-6.077-3.039-12.154-9.118-15.952z"/></svg>
