<svg xmlns="http://www.w3.org/2000/svg" fill="none" viewBox="0 0 256 256"><path fill="#000" fill-rule="evenodd" d="M256 128c0 70.692-57.308 128-128 128S0 198.692 0 128 57.308 0 128 0s128 57.308 128 128" clip-rule="evenodd"/><path fill="#FF931E" d="M128 87.5c13.807 0 25-11.193 25-25s-11.193-25-25-25-25 11.193-25 25 11.193 25 25 25"/><path fill="#FF931E" d="M197.945 139.55c-12.017-6.854-27.401-2.796-34.319 9.108a24.76 24.76 0 0 0-3.368 12.987c.273 11.002-9.74 16.683-19.207 11.002-.364-.181-.728-.451-1.183-.632-9.558-5.32-9.558-16.593 0-21.823 7.829-4.239 13.199-12.445 13.199-21.914v-.541c-.273-11.003 9.74-16.684 19.207-11.003 7.556 4.6 17.387 4.96 25.579.271 12.016-6.854 16.113-22.095 9.194-33.999s-22.302-15.962-34.318-9.108c-8.192 4.69-12.744 13.347-12.562 22.095.273 11.001-9.74 16.683-19.116 11.001a24.93 24.93 0 0 0-13.108-3.697c-4.825 0-9.285 1.353-13.108 3.607-9.467 5.592-19.39-.09-19.116-11.002.182-8.838-4.37-17.405-12.562-22.094-12.016-6.854-27.4-2.706-34.318 9.198s-2.731 27.145 9.285 33.999c8.192 4.689 18.023 4.238 25.579-.271 9.467-5.681 19.389 0 19.116 11.003v.541c0 9.469 5.28 17.675 13.199 21.914 9.558 5.32 9.558 16.593 0 21.823-.364.181-.728.451-1.092.632-9.467 5.591-19.39-.091-19.116-11.002.09-4.419-1.002-8.929-3.368-13.077-6.918-11.904-22.302-15.962-34.318-9.108-12.016 7.034-16.112 22.275-9.194 34.179s22.302 15.962 34.318 9.108c.182-.09.273-.18.455-.271 9.467-5.681 19.389 0 19.116 11.003v.631c0 13.707 11.288 24.89 25.124 24.89s25.124-11.183 25.124-24.89v-.541c-.273-11.002 9.74-16.683 19.207-11.002.182.09.364.18.547.361 12.015 6.853 27.399 2.795 34.317-9.109 6.918-12.174 2.822-27.415-9.193-34.269"/></svg>