<svg xmlns="http://www.w3.org/2000/svg" fill="none" viewBox="0 0 512 512"><path fill="#000" fill-rule="evenodd" d="M512 256c0 141.385-114.615 256-256 256S0 397.385 0 256 114.615 0 256 0s256 114.615 256 256" clip-rule="evenodd"/><path fill="#FAF9F5" d="M256 175c27.613 0 50-22.386 50-50s-22.387-50-50-50c-27.614 0-50 22.386-50 50s22.386 50 50 50"/><path fill="#FAF9F5" d="M395.889 279.1c-24.032-13.707-54.8-5.592-68.637 18.217a49.5 49.5 0 0 0-6.736 25.972c.547 22.005-19.479 33.368-38.414 22.005-.728-.362-1.456-.902-2.367-1.263-19.115-10.641-19.115-33.186 0-43.647 15.658-8.478 26.399-24.891 26.399-43.829v-1.082c-.546-22.005 19.48-33.367 38.415-22.005 15.11 9.199 34.773 9.921 51.157.542 24.032-13.708 32.225-44.19 18.389-67.997s-44.605-31.925-68.637-18.217c-16.384 9.379-25.488 26.694-25.123 44.189.546 22.004-19.481 33.368-38.233 22.004a49.85 49.85 0 0 0-26.216-7.395c-9.65 0-18.57 2.706-26.217 7.215-18.933 11.182-38.778-.181-38.232-22.005.365-17.675-8.738-34.81-25.123-44.188-24.032-13.708-54.8-5.411-68.636 18.397-13.837 23.807-5.462 54.289 18.57 67.997 16.385 9.379 36.047 8.476 51.158-.542 18.934-11.362 38.778 0 38.232 22.005v1.082c0 18.938 10.559 35.351 26.399 43.829 19.115 10.641 19.115 33.186 0 43.647-.729.361-1.457.901-2.185 1.263-18.934 11.183-38.779-.181-38.232-22.005.182-8.837-2.003-17.856-6.737-26.152-13.836-23.809-44.604-31.925-68.635-18.217-24.032 14.068-32.225 44.549-18.388 68.358 13.836 23.808 44.604 31.924 68.636 18.216.364-.18.546-.36.91-.541 18.934-11.363 38.778 0 38.232 22.004v1.262c0 27.416 22.575 49.781 50.248 49.781s50.248-22.365 50.248-49.781v-1.081c-.546-22.004 19.48-33.367 38.415-22.004.363.18.728.36 1.092.722 24.031 13.706 54.799 5.59 68.635-18.218 13.837-24.349 5.644-54.83-18.387-68.538"/></svg>