<svg xmlns="http://www.w3.org/2000/svg" fill="none" viewBox="0 0 232 256"><path fill="#000" d="M116 70.523c19.413 0 35.152-15.787 35.152-35.261S135.413 0 116 0C96.586 0 80.849 15.787 80.849 35.262c0 19.474 15.737 35.261 35.151 35.261"/><path fill="#000" d="M214.346 143.939c-16.895-9.668-38.526-3.944-48.253 12.846a35 35 0 0 0-4.736 18.317c.384 15.519-13.695 23.532-27.007 15.519-.511-.255-1.023-.636-1.663-.891-13.439-7.505-13.439-23.404 0-30.782 11.008-5.978 18.559-17.553 18.559-30.909v-.763c-.384-15.519 13.695-23.532 27.006-15.519 10.623 6.488 24.447 6.997 35.966.382 16.895-9.667 22.655-31.164 12.927-47.954-9.727-16.79-31.358-22.514-48.253-12.847-11.519 6.615-17.919 18.825-17.663 31.164.384 15.517-13.695 23.532-26.879 15.517a34.96 34.96 0 0 0-18.43-5.214c-6.784 0-13.056 1.908-18.431 5.087-13.311 7.887-27.262-.126-26.878-15.517A35.03 35.03 0 0 0 52.948 51.21c-16.895-9.667-38.526-3.816-48.253 12.974-9.728 16.79-3.84 38.287 13.055 47.954 11.52 6.615 25.342 5.978 35.966-.382 13.31-8.013 27.262 0 26.878 15.519v.763c0 13.356 7.424 24.931 18.56 30.909 13.438 7.505 13.438 23.404 0 30.782-.513.255-1.025.636-1.537.891-13.311 7.886-27.262-.128-26.878-15.519.128-6.233-1.408-12.593-4.736-18.444-9.727-16.79-31.358-22.514-48.253-12.846-16.895 9.921-22.655 31.417-12.927 48.207 9.727 16.791 31.358 22.515 48.253 12.847.256-.127.384-.254.64-.382 13.31-8.013 27.262 0 26.878 15.519v.89c0 19.334 15.871 35.107 35.326 35.107s35.326-15.773 35.326-35.107v-.763c-.384-15.518 13.695-23.531 27.006-15.518.256.127.512.254.768.509 16.895 9.667 38.526 3.943 48.253-12.848 9.727-17.171 3.968-38.667-12.927-48.334"/></svg>
