<svg xmlns="http://www.w3.org/2000/svg" fill="none" viewBox="0 0 255 256"><path fill="#000" d="M31.72 98.683c-9.737-9.447-16.563-21.667-16.563-36.146v-1.54c.803-24.748 20.678-44.67 44.87-45.388h153.982c4.015.206 7.228 3.08 7.228 7.29v133.289c3.512.617 5.218 1.13 8.632 2.363 2.711 1.027 6.424 3.183 6.424 3.183V22.9C236.092 10.27 226.255.103 213.909.103H59.927C26.7.617 0 28.445 0 62.537 0 82.356 8.833 99.3 23.288 111.211c.506.415.987.881 1.674 1.242.675.355 1.55.607 2.843.607 4.517 0 7.73-3.697 7.529-7.702-.097-3.257-1.399-4.522-3.371-6.438z"/><path fill="#000" d="M209.994 164.916H89.238c-8.131.103-14.656 6.778-14.656 15.095v17.765c.201 8.216 7.027 15.198 15.158 15.198h8.933v-15.198H89.74v-17.353h4.918c15.258 0 26.501 14.478 26.501 29.984 0 13.76-12.247 31.319-32.724 29.882-18.169-1.232-28.006-17.765-28.006-29.882V59.867c0-6.777-5.42-12.322-12.046-12.322H36.338v15.403h8.934v147.561c-.09 5.36.52 10.244 1.708 14.651 5.462 20.249 23.153 30.43 41.455 30.43l121.66.41c24.492 0 44.367-20.332 44.367-45.491 0-13.112-5.426-24.942-14.091-33.264l-.002-.002-.001-.001-.153-.147c-7.942-7.556-18.571-12.179-30.221-12.179m29.309 46.518c-.501 16.122-13.45 29.06-29.31 29.06l-84.62-.308c6.725-8.009 10.84-18.381 10.84-29.677 0-17.764-10.338-29.984-10.338-29.984h84.218c16.161 0 29.31 13.451 29.31 29.984zM177.469 65.722H86.425V50.32h91.044c4.115 0 7.529 3.389 7.529 7.702 0 4.21-3.313 7.701-7.529 7.701"/><path fill="#000" d="M193.53 101.969H86.425V86.566h107.004c4.116 0 7.529 3.389 7.529 7.702.1 4.21-3.313 7.701-7.428 7.701M177.469 138.217H86.425v-15.404h91.044c4.115 0 7.529 3.389 7.529 7.702 0 4.21-3.313 7.702-7.529 7.702"/><path fill="#000" fill-rule="evenodd" d="M236.293 22.797v138.937s-3.713-2.156-6.424-3.183c-3.414-1.233-5.12-1.746-8.632-2.363V22.9c0-4.21-3.213-7.085-7.228-7.29H60.027c-24.192.718-44.067 20.64-44.87 45.387v1.54c0 14.48 6.826 26.699 16.563 36.146l.243.237c1.972 1.916 3.274 3.181 3.37 6.438.201 4.005-3.01 7.702-7.528 7.702-1.293 0-2.168-.252-2.843-.607l-.15-.111c-.252-.191-.493-.395-.873-.715l-.25-.211c-6.022-5.032-12.145-11.809-16.06-18.997C3.01 83.793 0 73.935 0 62.434 0 28.342 26.7.514 59.927 0h153.982c12.346 0 22.183 10.166 22.384 22.797m4.075 154.445.001.001.002.002-.156-.15zM86.425 65.722h91.044c4.216 0 7.529-3.491 7.529-7.701 0-4.313-3.414-7.702-7.529-7.702H86.425zm0 36.247H193.53c4.115 0 7.528-3.491 7.428-7.701 0-4.313-3.413-7.702-7.529-7.702H86.425z" clip-rule="evenodd"/></svg>