<svg xmlns="http://www.w3.org/2000/svg" fill="none" viewBox="0 0 512 512"><path fill="#F0D6AF" d="M256 512c141.385 0 256-114.615 256-256S397.385 0 256 0 0 114.615 0 256s114.615 256 256 256"/><path fill="#FFEEDA" d="M383.366 318.007V121.653C383.104 105.224 370.309 92 354.249 92H153.951C110.732 92.668 76 128.866 76 173.213c0 14.96 3.917 27.783 9.924 39.004 5.092 9.35 13.057 18.166 20.891 24.711 2.22 1.869 1.175 1.069 7.965 5.343 9.401 5.876 20.108 8.815 20.108 8.815l-.131 117.412c.261 5.61.784 10.953 2.22 15.896 4.439 16.563 15.668 29.252 30.946 35.396 6.397 2.539 13.579 4.275 21.283 4.409l159.95.534c31.859 0 57.712-26.447 57.712-59.174.131-19.368-9.27-36.732-23.502-47.552"/><path fill="#EBC28E" d="M387.281 367.029c-.652 20.971-17.496 37.801-38.126 37.801l-110.072-.401c8.748-10.418 14.101-23.91 14.101-38.602 0-23.108-13.448-39.004-13.448-39.004h109.549c21.022 0 38.126 17.498 38.126 39.004z"/><path fill="#101010" d="M117.261 220.365c-12.666-12.288-21.545-28.184-21.545-47.018v-2.003c1.045-32.192 26.898-58.105 58.366-59.04h200.297c5.223.267 9.401 4.007 9.401 9.484v173.379c4.57.802 6.789 1.47 11.229 3.073 3.526 1.336 8.357 4.14 8.357 4.14V121.788c-.262-16.43-13.057-29.654-29.117-29.654H153.951C110.732 92.802 76 129.001 76 173.347c0 25.78 11.49 47.82 30.293 63.314 1.305 1.07 2.48 2.405 5.875 2.405 5.876 0 10.054-4.809 9.793-10.018-.13-4.408-1.958-6.011-4.7-8.683"/><path fill="#101010" d="M349.156 306.52H192.079c-10.577.133-19.064 8.817-19.064 19.635v23.108c.261 10.687 9.14 19.77 19.717 19.77h11.62v-19.77h-11.62V326.69h6.398c19.846 0 34.471 18.833 34.471 39.004 0 17.899-15.93 40.739-42.567 38.87-23.633-1.603-36.429-23.109-36.429-38.87v-195.82c0-8.816-7.051-16.029-15.669-16.029h-15.669v20.036h11.621v191.946c-.652 39.004 27.159 58.64 56.146 58.64l158.254.533C381.147 425 407 398.553 407 365.827s-25.984-59.307-57.844-59.307m38.125 60.509c-.652 20.971-17.496 37.801-38.126 37.801l-110.072-.401c8.748-10.418 14.101-23.91 14.101-38.602 0-23.108-13.448-39.004-13.448-39.004h109.549c21.022 0 38.126 17.498 38.126 39.004zM306.848 177.49H188.42v-20.036h118.428c5.353 0 9.793 4.408 9.793 10.018 0 5.477-4.308 10.018-9.793 10.018"/><path fill="#101010" d="M306.848 271.79H188.42v-20.037h118.428c5.353 0 9.793 4.409 9.793 10.019 0 5.476-4.308 10.018-9.793 10.018m20.892-47.15H188.42v-20.036h139.188c5.355 0 9.794 4.408 9.794 10.018.13 5.476-4.309 10.018-9.662 10.018"/></svg>