<svg xmlns="http://www.w3.org/2000/svg" fill="none" viewBox="0 0 256 256"><path fill="#F0D6AF" d="M128 256c70.692 0 128-57.308 128-128S198.692 0 128 0 0 57.308 0 128s57.308 128 128 128"/><path fill="#FFEEDA" d="M191.683 159.003V60.827C191.552 52.612 185.154 46 177.124 46H76.976C55.366 46.334 38 64.433 38 86.607c0 7.48 1.959 13.891 4.962 19.501 2.546 4.675 6.528 9.083 10.445 12.356 1.11.935.588.534 3.983 2.672 4.7 2.938 10.054 4.407 10.054 4.407l-.065 58.706c.13 2.805.391 5.477 1.11 7.948 2.22 8.282 7.834 14.626 15.472 17.698 3.2 1.269 6.79 2.137 10.642 2.205l79.975.266c15.929 0 28.856-13.223 28.856-29.586.065-9.684-4.635-18.367-11.751-23.777"/><path fill="#EBC28E" d="M193.641 183.515c-.327 10.485-8.749 18.9-19.064 18.9l-55.035-.2c4.373-5.209 7.05-11.955 7.05-19.302 0-11.554-6.724-19.501-6.724-19.501h54.774c10.512 0 19.064 8.748 19.064 19.501z"/><path fill="#101010" d="M58.63 110.183c-6.332-6.145-10.772-14.092-10.772-23.51v-1.001c.523-16.096 13.449-29.052 29.183-29.52h100.148c2.612.134 4.701 2.004 4.701 4.742v86.689c2.285.401 3.394.735 5.615 1.537 1.763.668 4.178 2.07 4.178 2.07V60.894c-.131-8.215-6.529-14.827-14.559-14.827H76.976C55.366 46.401 38 64.5 38 86.674c0 12.89 5.745 23.909 15.146 31.656.653.535 1.24 1.203 2.938 1.203 2.938 0 5.027-2.405 4.897-5.009-.066-2.204-.98-3.006-2.35-4.341"/><path fill="#101010" d="M174.578 153.26H96.039c-5.288.067-9.531 4.408-9.531 9.818v11.554c.13 5.343 4.57 9.884 9.858 9.884h5.81v-9.884h-5.81v-11.287h3.199c9.923 0 17.236 9.417 17.236 19.502 0 8.949-7.966 20.369-21.284 19.435-11.817-.802-18.215-11.555-18.215-19.435v-97.91c0-4.408-3.525-8.014-7.834-8.014h-7.834V86.94h5.81v95.972c-.326 19.503 13.58 29.32 28.073 29.32l79.127.267c15.929 0 28.856-13.223 28.856-29.587 0-16.362-12.992-29.653-28.922-29.653m19.063 30.255c-.327 10.485-8.749 18.9-19.064 18.9l-55.035-.2c4.373-5.209 7.05-11.955 7.05-19.302 0-11.554-6.724-19.501-6.724-19.501h54.774c10.512 0 19.064 8.748 19.064 19.501zm-40.217-94.769H94.21V78.727h59.214c2.677 0 4.897 2.204 4.897 5.01 0 2.737-2.155 5.008-4.897 5.008"/><path fill="#101010" d="M153.424 135.895H94.21v-10.019h59.214c2.677 0 4.897 2.205 4.897 5.01 0 2.738-2.155 5.009-4.897 5.009m10.446-23.575H94.21v-10.018h69.594c2.678 0 4.897 2.204 4.897 5.009.065 2.738-2.154 5.009-4.831 5.009"/></svg>
