<svg xmlns="http://www.w3.org/2000/svg" fill="none" viewBox="0 0 254 256"><path fill="#000" d="M31.662 98.683C21.943 89.236 15.13 77.016 15.13 62.537v-1.54c.801-24.748 20.64-44.67 44.788-45.388H213.62c4.008.206 7.215 3.08 7.215 7.29v133.289c3.506.617 5.209 1.13 8.616 2.363 2.706 1.027 6.413 3.183 6.413 3.183V22.9C235.663 10.27 225.844.103 213.52.103H59.818C26.652.617 0 28.445 0 62.537 0 82.356 8.817 99.3 23.246 111.211c.505.415.985.881 1.67 1.242.675.355 1.547.607 2.839.607 4.509 0 7.715-3.697 7.514-7.702-.096-3.257-1.395-4.522-3.364-6.438z"/><path fill="#000" d="M209.612 164.916H89.076c-8.116.103-14.63 6.778-14.63 15.095v17.765c.201 8.216 7.015 15.198 15.13 15.198h8.918v-15.198h-8.918v-17.353h4.91c15.23 0 26.453 14.478 26.453 29.984 0 13.76-12.225 31.319-32.665 29.882-18.136-1.232-27.955-17.765-27.955-29.882V59.867c0-6.777-5.41-12.322-12.024-12.322H36.272v15.403h8.917v147.561c-.09 5.36.519 10.244 1.706 14.651 5.451 20.249 23.111 30.43 41.379 30.43l121.439.41C234.161 256 254 235.668 254 210.509c0-13.112-5.417-24.942-14.066-33.264l-.002-.002-.001-.001-.152-.147c-7.928-7.556-18.538-12.179-30.167-12.179m29.256 46.518c-.5 16.122-13.426 29.06-29.257 29.06l-84.466-.308c6.713-8.009 10.821-18.381 10.821-29.677 0-17.764-10.32-29.984-10.32-29.984h84.065c16.132 0 29.257 13.451 29.257 29.984zM177.146 65.722H86.268V50.32h90.878c4.108 0 7.515 3.389 7.515 7.702 0 4.21-3.306 7.701-7.515 7.701"/><path fill="#000" d="M193.178 101.969H86.268V86.566h106.809c4.109 0 7.515 3.389 7.515 7.702.1 4.21-3.306 7.701-7.414 7.701m-16.032 36.248H86.268v-15.404h90.878c4.108 0 7.515 3.389 7.515 7.702 0 4.21-3.306 7.702-7.515 7.702"/><path fill="#000" fill-rule="evenodd" d="M235.864 22.797v138.937s-3.707-2.156-6.413-3.183c-3.407-1.233-5.11-1.746-8.616-2.363V22.9c0-4.21-3.207-7.085-7.215-7.29H59.918C35.77 16.327 15.93 36.25 15.13 60.996v1.54c0 14.48 6.813 26.699 16.532 36.146l.243.237c1.969 1.916 3.268 3.181 3.364 6.438.2 4.005-3.005 7.702-7.514 7.702-1.292 0-2.164-.252-2.838-.607l-.15-.111c-.251-.191-.492-.395-.872-.715l-.248-.211c-6.012-5.032-12.124-11.809-16.032-18.997C3.005 83.793 0 73.935 0 62.434 0 28.342 26.652.514 59.818 0H213.52c12.324 0 22.143 10.166 22.344 22.797m4.067 154.445.001.001.002.002-.155-.15zM86.268 65.722h90.878c4.209 0 7.515-3.491 7.515-7.701 0-4.313-3.407-7.702-7.515-7.702H86.268zm0 36.247h106.91c4.108 0 7.514-3.491 7.414-7.701 0-4.313-3.406-7.702-7.515-7.702H86.267z" clip-rule="evenodd"/></svg>
