<svg xmlns="http://www.w3.org/2000/svg" fill="none" viewBox="0 0 308 256"><path fill="#000" d="M128.131 122.087C113.307 133.66 92.143 132.24 79 118.792 58.237 97.547 26.559 95.848 1.06 107.983.36 114.163 0 120.447 0 126.814c0 5.434.262 10.806.774 16.105l4.451-3.682c14.657-13.741 37.622-13.24 51.665 1.128 24.147 24.708 63.03 27.316 90.267 6.055l21.522-16.8c15.381-12.007 37.124-11.425 51.84 1.386l41.901 36.476 20.301-23.281-41.902-36.477c-25.88-22.53-64.117-23.551-91.165-2.437zM288.715 237.22a166 166 0 0 0 18.658-25.26c-25.189-20.394-62.161-20.92-88.351.196l-2.869 2.313c-14.678 11.835-36.066 10.087-48.626-3.973-24.036-26.909-65.202-29.656-92.607-6.181l-35.15 30.111A166.5 166.5 0 0 0 62.064 256l32.97-28.243c14.63-12.531 36.605-11.065 49.437 3.3 23.526 26.338 63.592 29.612 91.089 7.443l2.869-2.313c15.018-12.108 36.18-11.217 50.286 1.033M267.709 42.292c9.695-8.585 22.788-11.078 34.571-8.57h.001a166.4 166.4 0 0 0-25.842-29.645c-10.379 2.69-20.658 7.518-29.227 15.105l-2.759 2.443c-14.116 12.499-35.562 11.74-48.758-1.727-25.253-25.772-66.502-26.618-92.793-1.904L64.408 54.18l21.176 22.49 38.494-36.185c14.035-13.193 36.055-12.741 49.536 1.016 24.718 25.225 64.892 26.648 91.335 3.235z"/></svg>