<svg xmlns="http://www.w3.org/2000/svg" fill="none" viewBox="0 0 307 256"><path fill="#000" d="M127.976 122.087c-14.807 11.573-35.944 10.153-49.072-3.295-20.738-21.245-52.378-22.944-77.845-10.809C.359 114.163 0 120.447 0 126.814c0 5.434.262 10.806.773 16.105l4.446-3.682c14.639-13.741 37.576-13.24 51.602 1.128 24.118 24.708 62.953 27.316 90.157 6.055l21.496-16.8c15.363-12.007 37.079-11.425 51.777 1.386l41.851 36.476 20.276-23.281-41.851-36.477c-25.849-22.53-64.039-23.551-91.055-2.437zM288.364 237.22A166 166 0 0 0 307 211.96c-25.159-20.394-62.085-20.92-88.243.196l-2.866 2.313c-14.661 11.835-36.023 10.087-48.567-3.973-24.008-26.909-65.123-29.656-92.495-6.181l-35.108 30.111A166.4 166.4 0 0 0 61.988 256l32.931-28.243c14.612-12.531 36.561-11.065 49.377 3.3 23.498 26.338 63.515 29.612 90.978 7.443l2.866-2.313c14.999-12.108 36.135-11.217 50.224 1.033m-20.98-194.928c9.683-8.585 22.761-11.078 34.53-8.57a166.3 166.3 0 0 0-25.81-29.645c-10.367 2.69-20.633 7.518-29.192 15.105l-2.755 2.443c-14.1 12.499-35.52 11.74-48.699-1.727-25.223-25.772-66.422-26.618-92.681-1.904L64.33 54.18l21.15 22.49 38.447-36.185c14.018-13.193 36.011-12.741 49.476 1.016 24.688 25.225 64.813 26.648 91.225 3.235z"/></svg>