<svg xmlns="http://www.w3.org/2000/svg" fill="none" viewBox="0 0 512 512"><path fill="#C91B1B" fill-rule="evenodd" d="M446.683 426.813C399.812 479.101 331.748 512 256 512c-60.531 0-116.155-21.008-159.979-56.131l51.011-43.696c22.634-19.388 56.633-17.119 76.485 5.105 36.399 40.749 98.387 45.814 140.928 11.516l4.439-3.579c23.234-18.732 55.975-17.354 77.799 1.598m28.867-39.081c-38.971-31.552-96.171-32.365-136.691.304l-4.438 3.579c-22.711 18.31-55.801 15.606-75.232-6.147-37.188-41.632-100.877-45.883-143.277-9.563l-54.384 46.586c-33.285-38.843-55.134-87.773-60.33-141.574l6.886-5.697c22.676-21.26 58.207-20.484 79.932 1.745 37.361 38.227 97.517 42.262 139.657 9.368l33.298-25.992c23.797-18.576 57.435-17.676 80.203 2.144l64.828 56.434 31.409-36.02-64.829-56.434c-40.04-34.857-99.198-36.438-141.046-3.771l-33.299 25.993c-22.935 17.904-55.678 15.707-76.013-5.099C90.101 210.719 41.09 208.091 1.64 226.865 16.102 99.199 124.467 0 256 0c66.062 0 126.279 25.023 171.691 66.108-16.058 4.161-31.961 11.63-45.218 23.369l-4.268 3.78c-21.84 19.337-55.021 18.162-75.436-2.672-39.071-39.872-102.889-41.181-143.565-2.945l-59.555 55.982 32.762 34.795 59.555-55.982c21.714-20.412 55.782-19.713 76.639 1.572 38.243 39.027 100.398 41.228 141.31 5.004l4.269-3.78c14.999-13.281 35.258-17.138 53.488-13.258l.001.001C495.646 153.007 512 202.593 512 256c0 48.178-13.308 93.247-36.45 131.732" clip-rule="evenodd"/><path fill="#fff" d="M198.237 248.687c-22.935 17.904-55.678 15.707-76.013-5.099C90.101 210.719 41.09 208.091 1.64 226.865A259 259 0 0 0 0 256c0 8.407.405 16.718 1.197 24.917l6.887-5.697c22.676-21.26 58.207-20.484 79.932 1.745 37.361 38.227 97.517 42.262 139.657 9.368l33.298-25.992c23.797-18.576 57.435-17.676 80.203 2.144l64.828 56.434 31.409-36.02-64.829-56.434c-40.04-34.857-99.198-36.438-141.046-3.771zm248.446 178.126a257 257 0 0 0 28.867-39.081c-38.971-31.552-96.171-32.365-136.691.304l-4.438 3.579c-22.711 18.31-55.801 15.606-75.232-6.147-37.188-41.632-100.877-45.883-143.277-9.563l-54.384 46.586a257.6 257.6 0 0 0 34.493 33.378l51.011-43.696c22.634-19.388 56.633-17.119 76.485 5.105 36.399 40.749 98.387 45.814 140.928 11.516l4.439-3.579c23.234-18.732 55.975-17.354 77.799 1.598m-32.499-301.582c14.999-13.281 35.258-17.138 53.488-13.258l.001.001a257.4 257.4 0 0 0-39.982-45.866c-16.058 4.161-31.961 11.63-45.218 23.369l-4.268 3.78c-21.84 19.337-55.021 18.162-75.436-2.672-39.071-39.872-102.889-41.181-143.565-2.945l-59.555 55.982 32.762 34.795 59.555-55.982c21.714-20.412 55.782-19.713 76.639 1.572 38.243 39.027 100.398 41.228 141.31 5.004z"/></svg>