<svg xmlns="http://www.w3.org/2000/svg" fill="none" viewBox="0 0 327 256"><path fill="#000" d="M53.103 195.388a10.7 10.7 0 0 1 7.56-3.121H321.49c4.766 0 7.149 5.749 3.78 9.116l-51.525 51.496a10.7 10.7 0 0 1-7.56 3.121H5.358c-4.766 0-7.15-5.749-3.78-9.116zm0-192.268C55.157 1.15 57.869 0 60.663 0H321.49c4.766 0 7.149 5.75 3.78 9.116l-51.525 51.496a10.7 10.7 0 0 1-7.56 3.121H5.358c-4.766 0-7.15-5.749-3.78-9.116zm220.643 95.518a10.7 10.7 0 0 0-7.56-3.12H5.358c-4.766 0-7.15 5.749-3.78 9.116l51.525 51.496a10.7 10.7 0 0 0 7.56 3.121H321.49c4.766 0 7.149-5.75 3.78-9.117z"/></svg>