<svg xmlns="http://www.w3.org/2000/svg" fill="none" viewBox="0 0 327 256"><path fill="#000" d="M53.127 195.388a10.7 10.7 0 0 1 7.564-3.121h260.948c4.769 0 7.153 5.749 3.782 9.116l-51.548 51.496a10.7 10.7 0 0 1-7.564 3.121H5.361c-4.769 0-7.153-5.749-3.782-9.116zm0-192.268C55.182 1.15 57.895 0 60.691 0h260.948c4.769 0 7.153 5.75 3.782 9.116l-51.548 51.496a10.7 10.7 0 0 1-7.564 3.121H5.361c-4.769 0-7.153-5.749-3.782-9.116zm220.746 95.518a10.7 10.7 0 0 0-7.564-3.12H5.361c-4.769 0-7.153 5.749-3.782 9.116l51.548 51.496a10.7 10.7 0 0 0 7.564 3.121h260.948c4.769 0 7.153-5.75 3.782-9.117z"/></svg>
