<svg xmlns="http://www.w3.org/2000/svg" fill="none" viewBox="0 0 256 256"><path fill="#000" d="M128 256c70.692 0 128-57.308 128-128S198.692 0 128 0 0 57.308 0 128s57.308 128 128 128"/><path fill="url(#paint0_linear_9882_712)" d="M76.499 159.324a4.97 4.97 0 0 1 3.514-1.45h121.243c2.215 0 3.323 2.672 1.757 4.237l-23.951 23.937a4.97 4.97 0 0 1-3.514 1.451H54.305c-2.215 0-3.323-2.672-1.757-4.238z"/><path fill="url(#paint1_linear_9882_712)" d="M76.499 69.952c.955-.917 2.215-1.451 3.514-1.451h121.243c2.215 0 3.323 2.672 1.757 4.237l-23.951 23.938a4.97 4.97 0 0 1-3.514 1.45H54.305c-2.215 0-3.323-2.672-1.757-4.237z"/><path fill="url(#paint2_linear_9882_712)" d="M179.062 114.352a4.97 4.97 0 0 0-3.514-1.451H54.305c-2.215 0-3.323 2.672-1.757 4.238l23.95 23.937a4.97 4.97 0 0 0 3.515 1.45h121.243c2.215 0 3.323-2.672 1.757-4.237z"/><defs><linearGradient id="paint0_linear_9882_712" x1="232.288" x2="-346.919" y1="-895.853" y2="-679.404" gradientUnits="userSpaceOnUse"><stop stop-color="#00FFA3"/><stop offset="1" stop-color="#DC1FFF"/></linearGradient><linearGradient id="paint1_linear_9882_712" x1="170.467" x2="-408.74" y1="-288.994" y2="-72.545" gradientUnits="userSpaceOnUse"><stop stop-color="#00FFA3"/><stop offset="1" stop-color="#DC1FFF"/></linearGradient><linearGradient id="paint2_linear_9882_712" x1="171.212" x2="87.376" y1="44.568" y2="205.237" gradientUnits="userSpaceOnUse"><stop stop-color="#00FFA3"/><stop offset="1" stop-color="#DC1FFF"/></linearGradient></defs></svg>
