<svg width="327" height="256" viewBox="0 0 327 256" fill="none" xmlns="http://www.w3.org/2000/svg">
<path d="M53.1271 195.388C55.1002 193.417 57.8133 192.267 60.6908 192.267H321.639C326.408 192.267 328.792 198.016 325.421 201.383L273.873 252.879C271.9 254.85 269.187 256 266.309 256H5.36052C0.59208 256 -1.79215 250.251 1.57865 246.884L53.1271 195.388Z" fill="black"/>
<path d="M53.1271 3.12094C55.1825 1.14982 57.8955 0 60.6908 0H321.639C326.408 0 328.792 5.74911 325.421 9.11645L273.873 60.6121C271.9 62.5832 269.187 63.7331 266.309 63.7331H5.36052C0.59208 63.7331 -1.79215 57.984 1.57865 54.6166L53.1271 3.12094Z" fill="black"/>
<path d="M273.873 98.6384C271.9 96.6673 269.187 95.5175 266.309 95.5175H5.36052C0.59208 95.5175 -1.79215 101.267 1.57865 104.634L53.1271 156.13C55.1002 158.101 57.8133 159.251 60.6908 159.251H321.639C326.408 159.251 328.792 153.501 325.421 150.134L273.873 98.6384Z" fill="black"/>
</svg>
