<svg xmlns="http://www.w3.org/2000/svg" fill="none" viewBox="0 0 512 512"><path fill="#000" d="M256 512c141.385 0 256-114.615 256-256S397.385 0 256 0 0 114.615 0 256s114.615 256 256 256"/><path fill="url(#paint0_linear_9882_712)" d="M152.998 318.649a9.94 9.94 0 0 1 7.028-2.902h242.485c4.431 0 6.647 5.345 3.514 8.476l-47.901 47.874a9.94 9.94 0 0 1-7.028 2.901H108.611c-4.431 0-6.647-5.345-3.515-8.475z"/><path fill="url(#paint1_linear_9882_712)" d="M152.998 139.903c1.909-1.832 4.431-2.901 7.028-2.901h242.485c4.431 0 6.647 5.345 3.514 8.475l-47.901 47.874a9.94 9.94 0 0 1-7.028 2.902H108.611c-4.431 0-6.647-5.345-3.515-8.476z"/><path fill="url(#paint2_linear_9882_712)" d="M358.124 228.703a9.94 9.94 0 0 0-7.028-2.901H108.611c-4.431 0-6.647 5.345-3.515 8.475l47.902 47.874a9.94 9.94 0 0 0 7.028 2.902h242.485c4.431 0 6.647-5.345 3.514-8.475z"/><defs><linearGradient id="paint0_linear_9882_712" x1="464.576" x2="-693.838" y1="-1791.71" y2="-1358.81" gradientUnits="userSpaceOnUse"><stop stop-color="#00FFA3"/><stop offset="1" stop-color="#DC1FFF"/></linearGradient><linearGradient id="paint1_linear_9882_712" x1="340.933" x2="-817.48" y1="-577.989" y2="-145.091" gradientUnits="userSpaceOnUse"><stop stop-color="#00FFA3"/><stop offset="1" stop-color="#DC1FFF"/></linearGradient><linearGradient id="paint2_linear_9882_712" x1="342.423" x2="174.753" y1="89.137" y2="410.474" gradientUnits="userSpaceOnUse"><stop stop-color="#00FFA3"/><stop offset="1" stop-color="#DC1FFF"/></linearGradient></defs></svg>