<svg xmlns="http://www.w3.org/2000/svg" fill="none" viewBox="0 0 256 256"><path fill="#000" d="M128 256c70.692 0 128-57.308 128-128S198.692 0 128 0 0 57.308 0 128s57.308 128 128 128"/><path fill="#fff" d="M139.301 174.895a47.8 47.8 0 0 1-24.122-.467 47.83 47.83 0 0 1-20.826-12.192 46.44 46.44 0 0 1-7.517-57.795 80.5 80.5 0 0 1 13.023-16.07c15.905-15.86 45.111-44.72 45.111-44.72A86.13 86.13 0 0 0 82.023 55.42a86.24 86.24 0 0 0-37.458 51.978 86.37 86.37 0 0 0 8.675 63.498 86.26 86.26 0 0 0 50.028 40.008z"/><path fill="#fff" d="M117.119 81.638a47.75 47.75 0 0 1 24.122.462 47.8 47.8 0 0 1 20.822 12.197c15.761 15.779 18.84 39.195 7.459 57.709a81.5 81.5 0 0 1-13.023 16.1c-15.91 15.835-45.116 44.714-45.116 44.714a86.12 86.12 0 0 0 63.035-11.702 86.25 86.25 0 0 0 37.519-52.025 86.37 86.37 0 0 0-8.722-63.567 86.25 86.25 0 0 0-50.149-39.977z"/></svg>
