<svg xmlns="http://www.w3.org/2000/svg" fill="none" viewBox="0 0 256 256"><path fill="#000" d="M128 256c70.692 0 128-57.308 128-128S198.692 0 128 0 0 57.308 0 128s57.308 128 128 128"/><path fill="url(#paint0_radial_9885_1268)" d="M148.108 151.222c-37.702 10.971-68.892 26.969-88.413 45.725l-.864.829a101 101 0 0 0 17.04 12.636l1.32-1.565a247 247 0 0 1 16.998-18.151c15.975-15.421 34.252-28.773 53.94-39.495z"/><path fill="url(#paint1_radial_9885_1268)" d="M28.007 134.965c1.5 19.564 8.997 37.501 20.762 52.093l.543-.522c12.087-11.551 27.82-22.059 46.799-31.212 16.638-8.031 35.738-14.921 56.328-20.356H28z"/><path fill="url(#paint2_radial_9885_1268)" d="M104.731 54.569c33.734 32.563 76.188 54.1 122.752 62.265C221.87 68.556 179.457 31 127.923 31c-13.611 0-26.579 2.633-38.424 7.374a242 242 0 0 0 15.232 16.195"/><path fill="url(#paint3_radial_9885_1268)" d="M59.695 58.553c19.521 18.77 50.711 34.754 88.413 45.745-19.684-10.739-37.965-24.073-53.94-39.494a247 247 0 0 1-16.995-18.151l-1.323-1.565a100 100 0 0 0-17.02 12.636z"/><path fill="url(#paint4_radial_9885_1268)" d="M104.731 200.931a232 232 0 0 0-15.232 16.195 103.1 103.1 0 0 0 38.424 7.374c51.534 0 93.943-37.56 99.577-85.855-46.56 8.165-89.015 29.702-122.748 62.265z"/><path fill="url(#paint5_radial_9885_1268)" d="M96.114 100.176c-18.982-9.153-34.719-19.66-46.802-31.212l-.543-.522c-11.765 14.589-19.262 32.529-20.765 52.09h124.414c-20.586-5.436-39.669-12.326-56.325-20.377z"/><defs><radialGradient id="paint0_radial_9885_1268" cx="0" cy="0" r="1" gradientTransform="scale(222.851 316.176)rotate(90 .48 .336)" gradientUnits="userSpaceOnUse"><stop offset=".317" stop-color="#F43"/><stop offset=".597" stop-color="#FE9A4C"/><stop offset="1" stop-color="#fff"/></radialGradient><radialGradient id="paint1_radial_9885_1268" cx="0" cy="0" r="1" gradientTransform="matrix(0 359.379 -159.919 0 187.925 4.2)" gradientUnits="userSpaceOnUse"><stop stop-color="#1C294B"/><stop offset=".317" stop-color="#F43"/><stop offset=".597" stop-color="#FE9A4C"/><stop offset="1" stop-color="#fff"/></radialGradient><radialGradient id="paint2_radial_9885_1268" cx="0" cy="0" r="1" gradientTransform="scale(144.22 218.107)rotate(90 -.282 .86)" gradientUnits="userSpaceOnUse"><stop stop-color="#1C294B"/><stop offset=".317" stop-color="#F43"/><stop offset=".597" stop-color="#FE9A4C"/><stop offset="1" stop-color="#fff"/></radialGradient><radialGradient id="paint3_radial_9885_1268" cx="0" cy="0" r="1" gradientTransform="scale(222.902 316.176)rotate(90 -.068 .885)" gradientUnits="userSpaceOnUse"><stop stop-color="#1C294B"/><stop offset=".317" stop-color="#F43"/><stop offset=".597" stop-color="#FE9A4C"/><stop offset="1" stop-color="#fff"/></radialGradient><radialGradient id="paint4_radial_9885_1268" cx="0" cy="0" r="1" gradientTransform="matrix(0 218.054 -144.202 0 83.303 6.446)" gradientUnits="userSpaceOnUse"><stop stop-color="#1C294B"/><stop offset=".317" stop-color="#F43"/><stop offset=".597" stop-color="#FE9A4C"/><stop offset="1" stop-color="#fff"/></radialGradient><radialGradient id="paint5_radial_9885_1268" cx="0" cy="0" r="1" gradientTransform="scale(159.95 359.403)rotate(90 .238 .937)" gradientUnits="userSpaceOnUse"><stop stop-color="#1C294B"/><stop offset=".317" stop-color="#F43"/><stop offset=".597" stop-color="#FE9A4C"/><stop offset="1" stop-color="#fff"/></radialGradient></defs></svg>
