<svg width="264" height="256" viewBox="0 0 264 256" fill="none" xmlns="http://www.w3.org/2000/svg">
<path d="M158.94 159.054C109.049 173.568 67.7746 194.734 41.9418 219.547L40.7983 220.644C47.7061 226.993 55.2642 232.597 63.3472 237.362L65.0944 235.291C72.1833 226.913 79.6908 218.899 87.5884 211.278C108.728 190.875 132.915 173.211 158.967 159.026L158.94 159.054Z" fill="black"/>
<path d="M158.94 159.054C109.049 173.568 67.7746 194.734 41.9418 219.547L40.7983 220.644C47.7061 226.993 55.2642 232.597 63.3472 237.362L65.0944 235.291C72.1833 226.913 79.6908 218.899 87.5884 211.278C108.728 190.875 132.915 173.211 158.967 159.026L158.94 159.054Z" fill="black"/>
<path d="M0.00914776 137.545C1.99418 163.429 11.9148 187.159 27.484 206.464L28.2021 205.774C44.1967 190.491 65.0166 176.59 90.1314 164.48C112.15 153.856 137.425 144.741 164.671 137.55H0L0.00914776 137.545Z" fill="black"/>
<path d="M0.00914776 137.545C1.99418 163.429 11.9148 187.159 27.484 206.464L28.2021 205.774C44.1967 190.491 65.0166 176.59 90.1314 164.48C112.15 153.856 137.425 144.741 164.671 137.55H0L0.00914776 137.545Z" fill="black"/>
<path d="M101.538 31.1817C146.179 74.2628 202.359 102.757 263.977 113.559C256.549 49.6868 200.424 0 132.229 0C114.217 0 97.0561 3.48343 81.3817 9.75542C87.7684 17.2026 94.4944 24.3523 101.538 31.1817Z" fill="black"/>
<path d="M101.538 31.1817C146.179 74.2628 202.359 102.757 263.977 113.559C256.549 49.6868 200.424 0 132.229 0C114.217 0 97.0561 3.48343 81.3817 9.75542C87.7684 17.2026 94.4944 24.3523 101.538 31.1817Z" fill="black"/>
<path d="M41.9418 36.4526C67.7746 61.2845 109.049 82.432 158.94 96.9737C132.892 82.7657 108.701 65.1245 87.5609 44.7223C79.6663 37.0997 72.1604 29.085 65.0715 20.7086L63.3197 18.6377C55.241 23.3967 47.6914 29.0008 40.7983 35.3554L41.9418 36.4526Z" fill="black"/>
<path d="M41.9418 36.4526C67.7746 61.2845 109.049 82.432 158.94 96.9737C132.892 82.7657 108.701 65.1245 87.5609 44.7223C79.6663 37.0997 72.1604 29.085 65.0715 20.7086L63.3197 18.6377C55.241 23.3967 47.6914 29.0008 40.7983 35.3554L41.9418 36.4526Z" fill="black"/>
<path d="M101.538 224.818C94.4806 231.634 87.754 238.784 81.3817 246.244C97.5523 252.71 114.812 256.022 132.229 256C200.424 256 256.545 206.308 264 142.414C202.386 153.216 146.206 181.71 101.566 224.791L101.538 224.818Z" fill="black"/>
<path d="M101.538 224.818C94.4806 231.634 87.754 238.784 81.3817 246.244C97.5523 252.71 114.812 256.022 132.229 256C200.424 256 256.545 206.308 264 142.414C202.386 153.216 146.206 181.71 101.566 224.791L101.538 224.818Z" fill="black"/>
<path d="M90.136 91.52C65.0166 79.4103 44.1921 65.5085 28.2021 50.2263L27.484 49.536C11.9148 68.8365 1.99418 92.5714 0.00457391 118.45H164.643C137.402 111.259 112.15 102.144 90.1085 91.4925L90.136 91.52Z" fill="black"/>
<path d="M90.136 91.52C65.0166 79.4103 44.1921 65.5085 28.2021 50.2263L27.484 49.536C11.9148 68.8365 1.99418 92.5714 0.00457391 118.45H164.643C137.402 111.259 112.15 102.144 90.1085 91.4925L90.136 91.52Z" fill="black"/>
</svg>
