<svg xmlns="http://www.w3.org/2000/svg" fill="none" viewBox="0 0 264 256"><path fill="#000" d="M158.92 159.054c-49.885 14.514-91.154 35.68-116.983 60.493l-1.144 1.097a133.5 133.5 0 0 0 22.546 16.718l1.747-2.071a326 326 0 0 1 22.491-24.013c21.138-20.403 45.321-38.067 71.37-52.252z"/><path fill="#000" d="M158.92 159.054c-49.885 14.514-91.154 35.68-116.983 60.493l-1.144 1.097a133.5 133.5 0 0 0 22.546 16.718l1.747-2.071a326 326 0 0 1 22.491-24.013c21.138-20.403 45.321-38.067 71.37-52.252zM.01 137.545c1.984 25.884 11.903 49.614 27.47 68.919l.719-.69c15.992-15.283 36.81-29.184 61.921-41.294 22.016-10.624 47.287-19.739 74.53-26.93H0z"/><path fill="#000" d="M.01 137.545c1.984 25.884 11.903 49.614 27.47 68.919l.719-.69c15.992-15.283 36.81-29.184 61.921-41.294 22.016-10.624 47.287-19.739 74.53-26.93H0zM101.526 31.182c44.635 43.08 100.808 71.575 162.418 82.377C256.517 49.687 200.399 0 132.212 0c-18.009 0-35.168 3.483-50.84 9.755a320 320 0 0 0 20.154 21.427"/><path fill="#000" d="M101.526 31.182c44.635 43.08 100.808 71.575 162.418 82.377C256.517 49.687 200.399 0 132.212 0c-18.009 0-35.168 3.483-50.84 9.755a320 320 0 0 0 20.154 21.427m-59.589 5.271c25.83 24.832 67.098 45.979 116.983 60.52-26.045-14.207-50.233-31.848-71.37-52.25a327 327 0 0 1-22.487-24.014l-1.751-2.071a132.3 132.3 0 0 0-22.519 16.717z"/><path fill="#000" d="M41.937 36.453c25.83 24.832 67.098 45.979 116.983 60.52-26.045-14.207-50.233-31.848-71.37-52.25a327 327 0 0 1-22.487-24.014l-1.751-2.071a132.3 132.3 0 0 0-22.519 16.717zm59.589 188.365a307 307 0 0 0-20.154 21.426 136.5 136.5 0 0 0 50.84 9.756c68.187 0 124.301-49.692 131.755-113.586-61.606 10.802-117.779 39.296-162.414 82.377z"/><path fill="#000" d="M101.526 224.818a307 307 0 0 0-20.154 21.426 136.5 136.5 0 0 0 50.84 9.756c68.187 0 124.301-49.692 131.755-113.586-61.606 10.802-117.779 39.296-162.414 82.377zM90.125 91.52C65.008 79.41 44.187 65.509 28.199 50.226l-.718-.69C11.913 68.836 1.994 92.571.005 118.45h164.618c-27.238-7.191-52.487-16.306-74.526-26.957z"/><path fill="#000" d="M90.125 91.52C65.008 79.41 44.187 65.509 28.199 50.226l-.718-.69C11.913 68.836 1.994 92.571.005 118.45h164.618c-27.238-7.191-52.487-16.306-74.526-26.957z"/></svg>