<svg xmlns="http://www.w3.org/2000/svg" fill="none" viewBox="0 0 264 256"><path fill="#000" d="M158.94 159.054c-49.891 14.514-91.165 35.68-116.998 60.493l-1.144 1.097a133.5 133.5 0 0 0 22.55 16.718l1.746-2.071a326 326 0 0 1 22.494-24.013c21.14-20.403 45.327-38.067 71.379-52.252z"/><path fill="#000" d="M158.94 159.054c-49.891 14.514-91.165 35.68-116.998 60.493l-1.144 1.097a133.5 133.5 0 0 0 22.55 16.718l1.746-2.071a326 326 0 0 1 22.494-24.013c21.14-20.403 45.327-38.067 71.379-52.252zM.01 137.545c1.984 25.884 11.905 49.614 27.474 68.919l.718-.69c15.995-15.283 36.815-29.184 61.93-41.294 22.018-10.624 47.293-19.739 74.539-26.93H0z"/><path fill="#000" d="M.01 137.545c1.984 25.884 11.905 49.614 27.474 68.919l.718-.69c15.995-15.283 36.815-29.184 61.93-41.294 22.018-10.624 47.293-19.739 74.539-26.93H0zM101.538 31.182c44.641 43.08 100.821 71.575 162.439 82.377C256.549 49.687 200.424 0 132.229 0c-18.012 0-35.173 3.483-50.847 9.755a320 320 0 0 0 20.156 21.427"/><path fill="#000" d="M101.538 31.182c44.641 43.08 100.821 71.575 162.439 82.377C256.549 49.687 200.424 0 132.229 0c-18.012 0-35.173 3.483-50.847 9.755a320 320 0 0 0 20.156 21.427m-59.596 5.271c25.833 24.832 67.107 45.979 116.998 60.52-26.048-14.207-50.239-31.848-71.38-52.25a327 327 0 0 1-22.489-24.014l-1.751-2.071a132.3 132.3 0 0 0-22.522 16.717z"/><path fill="#000" d="M41.942 36.453c25.833 24.832 67.107 45.979 116.998 60.52-26.048-14.207-50.239-31.848-71.38-52.25a327 327 0 0 1-22.489-24.014l-1.751-2.071a132.3 132.3 0 0 0-22.522 16.717zm59.596 188.365a307 307 0 0 0-20.156 21.426A136.5 136.5 0 0 0 132.229 256c68.195 0 124.316-49.692 131.771-113.586-61.614 10.802-117.794 39.296-162.434 82.377z"/><path fill="#000" d="M101.538 224.818a307 307 0 0 0-20.156 21.426A136.5 136.5 0 0 0 132.229 256c68.195 0 124.316-49.692 131.771-113.586-61.614 10.802-117.794 39.296-162.434 82.377zM90.136 91.52c-25.12-12.11-45.944-26.011-61.934-41.294l-.718-.69c-15.57 19.3-25.49 43.035-27.48 68.914h164.639c-27.241-7.191-52.493-16.306-74.534-26.957z"/><path fill="#000" d="M90.136 91.52c-25.12-12.11-45.944-26.011-61.934-41.294l-.718-.69c-15.57 19.3-25.49 43.035-27.48 68.914h164.639c-27.241-7.191-52.493-16.306-74.534-26.957z"/></svg>