<svg xmlns="http://www.w3.org/2000/svg" fill="none" viewBox="0 0 512 512"><path fill="#000" d="M256 512c141.385 0 256-114.615 256-256S397.385 0 256 0 0 114.615 0 256s114.615 256 256 256"/><path fill="url(#paint0_radial_9885_1268)" d="M296.216 302.444c-75.404 21.942-137.784 53.938-176.827 91.45l-1.728 1.658a202 202 0 0 0 34.08 25.273l2.64-3.131a493 493 0 0 1 33.997-36.302c31.95-30.842 68.505-57.545 107.879-78.989z"/><path fill="url(#paint1_radial_9885_1268)" d="M56.014 269.929c3 39.129 17.993 75.002 41.524 104.186l1.086-1.043c24.173-23.103 55.64-44.118 93.597-62.425 33.278-16.06 71.477-29.84 112.656-40.711H56z"/><path fill="url(#paint2_radial_9885_1268)" d="M209.462 109.138c67.467 65.127 152.376 108.201 245.503 124.531C443.739 137.113 358.914 62 255.846 62c-27.223 0-53.159 5.266-76.849 14.748a484 484 0 0 0 30.465 32.39"/><path fill="url(#paint3_radial_9885_1268)" d="M119.389 117.106c39.043 37.539 101.423 69.508 176.827 91.491-39.368-21.479-75.929-48.147-107.88-78.99a495 495 0 0 1-33.989-36.302l-2.648-3.13a200 200 0 0 0-34.038 25.272z"/><path fill="url(#paint4_radial_9885_1268)" d="M209.462 401.862a464 464 0 0 0-30.465 32.39A206.3 206.3 0 0 0 255.846 449C358.914 449 443.732 373.88 455 277.289c-93.121 16.33-178.029 59.405-245.497 124.531z"/><path fill="url(#paint5_radial_9885_1268)" d="M192.228 200.352c-37.964-18.306-69.438-39.322-93.604-62.424l-1.086-1.044c-23.53 29.177-38.524 65.058-41.531 104.179h248.829c-41.172-10.87-79.337-24.65-112.649-40.752z"/><defs><radialGradient id="paint0_radial_9885_1268" cx="0" cy="0" r="1" gradientTransform="scale(445.701 632.353)rotate(90 .48 .336)" gradientUnits="userSpaceOnUse"><stop offset=".317" stop-color="#F43"/><stop offset=".597" stop-color="#FE9A4C"/><stop offset="1" stop-color="#E0E0E0"/></radialGradient><radialGradient id="paint1_radial_9885_1268" cx="0" cy="0" r="1" gradientTransform="matrix(0 718.758 -319.838 0 375.81 7.906)" gradientUnits="userSpaceOnUse"><stop stop-color="#1C294B"/><stop offset=".317" stop-color="#F43"/><stop offset=".597" stop-color="#FE9A4C"/><stop offset="1" stop-color="#E0E0E0"/></radialGradient><radialGradient id="paint2_radial_9885_1268" cx="0" cy="0" r="1" gradientTransform="scale(288.441 436.214)rotate(90 -.282 .86)" gradientUnits="userSpaceOnUse"><stop stop-color="#1C294B"/><stop offset=".317" stop-color="#F43"/><stop offset=".597" stop-color="#FE9A4C"/><stop offset="1" stop-color="#E0E0E0"/></radialGradient><radialGradient id="paint3_radial_9885_1268" cx="0" cy="0" r="1" gradientTransform="scale(445.805 632.353)rotate(90 -.068 .885)" gradientUnits="userSpaceOnUse"><stop stop-color="#1C294B"/><stop offset=".317" stop-color="#F43"/><stop offset=".597" stop-color="#FE9A4C"/><stop offset="1" stop-color="#E0E0E0"/></radialGradient><radialGradient id="paint4_radial_9885_1268" cx="0" cy="0" r="1" gradientTransform="scale(288.405 436.109)rotate(90 .274 .304)" gradientUnits="userSpaceOnUse"><stop stop-color="#1C294B"/><stop offset=".317" stop-color="#F43"/><stop offset=".597" stop-color="#FE9A4C"/><stop offset="1" stop-color="#E0E0E0"/></radialGradient><radialGradient id="paint5_radial_9885_1268" cx="0" cy="0" r="1" gradientTransform="scale(319.901 718.806)rotate(90 .238 .937)" gradientUnits="userSpaceOnUse"><stop stop-color="#1C294B"/><stop offset=".317" stop-color="#F43"/><stop offset=".597" stop-color="#FE9A4C"/><stop offset="1" stop-color="#E0E0E0"/></radialGradient></defs></svg>