<svg xmlns="http://www.w3.org/2000/svg" fill="none" viewBox="0 0 256 256"><path fill="#fff" d="M128 256c70.692 0 128-57.308 128-128S198.692 0 128 0 0 57.308 0 128s57.308 128 128 128"/><path fill="#000" d="M189.5 155.001c0 34.117-27.407 54.499-61.224 54.499S70.92 189.34 66.5 163.641h31.165c3.426 9.748 14.587 16.837 30.611 16.837 17.792 0 30.612-8.972 30.612-24.923s-12.487-24.148-30.722-24.148v22.486c-34.37 0-60.672-19.495-60.672-52.062S92.802 47 128.387 47c33.706 0 56.913 20.05 59.234 44.75h-30.059c-2.431-8.86-12.267-15.618-28.512-15.618-19.782 0-30.723 9.194-30.723 24.813s12.599 23.151 29.839 23.151v-23.594c37.353 0 61.334 22.375 61.334 54.499"/></svg>