<svg xmlns="http://www.w3.org/2000/svg" fill="none" viewBox="0 0 179 256"><path fill="#000" fill-rule="evenodd" d="M12.125 211.511C28.166 239.332 56.99 256 89.072 256s60.906-16.668 76.947-44.489 16.041-61.031 0-88.853L98.346 5.358c-4.136-7.144-14.412-7.144-18.548 0l-67.673 117.3c-16.167 27.822-16.167 61.032 0 88.853M70.023 61.125l14.412-25.064c2.005-3.509 7.269-3.509 9.274 0l55.517 96.247c10.151 17.67 12.156 38.098 5.765 56.896-.627-3.008-1.629-6.141-2.882-9.274-7.645-19.425-25.065-34.338-51.633-44.364-18.297-6.892-29.951-17.169-34.588-30.327-6.016-17.044.376-35.592 4.135-44.114m-24.688 42.61-16.417 28.573c-12.532 21.806-12.532 47.747 0 69.553s35.09 34.714 60.154 34.714c16.668 0 32.208-5.765 44.489-15.916 1.629-4.01 6.517-18.672.376-33.836-5.639-14.036-19.174-25.19-40.353-33.21-23.811-9.024-39.351-23.185-46.119-41.983-.877-2.632-1.503-5.264-2.13-7.895" clip-rule="evenodd"/></svg>