<svg xmlns="http://www.w3.org/2000/svg" fill="none" viewBox="0 0 178 256"><path fill="#000" fill-rule="evenodd" d="M12.121 211.511C28.158 239.332 56.974 256 89.047 256s60.889-16.668 76.926-44.489 16.036-61.031 0-88.853L98.318 5.358c-4.134-7.144-14.408-7.144-18.542 0l-67.655 117.3c-16.161 27.822-16.161 61.032 0 88.853M70.004 61.125 84.41 36.061c2.005-3.509 7.267-3.509 9.272 0l55.501 96.247c10.148 17.67 12.153 38.098 5.763 56.896-.626-3.008-1.628-6.141-2.881-9.274-7.643-19.425-25.057-34.338-51.618-44.364-18.292-6.892-29.943-17.169-34.579-30.327-6.014-17.044.376-35.592 4.135-44.114m-24.682 42.61L28.91 132.308c-12.529 21.806-12.529 47.747 0 69.553s35.08 34.714 60.137 34.714c16.663 0 32.198-5.765 44.477-15.916 1.628-4.01 6.514-18.672.375-33.836-5.638-14.036-19.168-25.19-40.342-33.21-23.804-9.024-39.34-23.185-46.105-41.983-.877-2.632-1.503-5.264-2.13-7.895" clip-rule="evenodd"/></svg>
