<svg xmlns="http://www.w3.org/2000/svg" fill="none" viewBox="0 0 512 512"><path fill="#CBEAFF" d="M256 512c141.385 0 256-114.615 256-256S397.385 0 256 0 0 114.615 0 256s114.615 256 256 256"/><path fill="#1183CF" fill-rule="evenodd" d="M133.2 389.2c25.6 44.4 71.6 71 122.8 71s97.2-26.6 122.8-71 25.6-97.4 0-141.8l-108-187.2c-6.6-11.4-23-11.4-29.6 0l-108 187.2c-25.8 44.4-25.8 97.4 0 141.8m92.4-240 23-40c3.2-5.6 11.6-5.6 14.8 0L352 262.8c16.2 28.2 19.4 60.8 9.2 90.8-1-4.8-2.6-9.8-4.6-14.8-12.2-31-40-54.8-82.4-70.8-29.2-11-47.8-27.4-55.2-48.4-9.6-27.2.6-56.8 6.6-70.4m-39.4 68L160 262.8c-20 34.8-20 76.2 0 111s56 55.4 96 55.4c26.6 0 51.4-9.2 71-25.4 2.6-6.4 10.4-29.8.6-54-9-22.4-30.6-40.2-64.4-53-38-14.4-62.8-37-73.6-67-1.4-4.2-2.4-8.4-3.4-12.6" clip-rule="evenodd"/></svg>