<svg xmlns="http://www.w3.org/2000/svg" fill="none" viewBox="0 0 268 256"><path fill="#000" d="M114.016 144.645c11.242 5.825 30.661 19.681 23.349 34.954-6.839 14.249-30.425 14.406-43.24 12.202-27.202-4.723-55.504-16.926-74.294-37.552A73.24 73.24 0 0 1 2.6 123.472a73.3 73.3 0 0 1-.852-35.273C14.642 34.902 73.842 6.325 123.37.97a172 172 0 0 1 123.038 34.64.17.17 0 0 1 .088.101.175.175 0 0 1-.245.213c-.786-.314-1.887-.393-2.752-.63-34.356-11.1-71.857-16.847-107.314-11.808-23.35 3.385-49.372 12.832-62.973 33.38-21.62 32.67 1.808 65.184 31.29 82.818z"/><path fill="#000" d="M173.406 64.799c24.691 3.93 47.181 13.362 66.289 29.396 3.774 3.144 7.077 7.074 10.301 10.847q20.052 23.345 17.771 53.369c-2.595 32.777-28.465 60.208-55.83 75.456-61.335 33.798-134.464 28.532-190.373-13.362a.23.23 0 0 1-.037-.289.24.24 0 0 1 .273-.104 274 274 0 0 0 93.103 14.148c22.41-.943 46.865-6.602 65.266-19.885 19.029-13.755 28.465-36.156 19.501-58.793-6.291-16.113-20.759-29.475-35.621-38.042-12.11-7.074-31.69-15.17-34.52-30.89-2.359-13.677 10.615-20.436 22.096-22.087q10.694-1.573 21.781.236"/></svg>