<svg xmlns="http://www.w3.org/2000/svg" fill="none" viewBox="0 0 512 512"><path fill="#fff" fill-rule="evenodd" d="M512 256c0 141.385-114.615 256-256 256S0 397.385 0 256 114.615 0 256 0s256 114.615 256 256" clip-rule="evenodd"/><path fill="#2D5DF8" d="M228.283 278.191c15.311 7.942 41.758 26.832 31.8 47.652-9.315 19.426-41.437 19.641-58.89 16.636-37.047-6.44-75.594-23.075-101.185-51.194a99.9 99.9 0 0 1-23.465-41.958 100.04 100.04 0 0 1-1.162-48.087c17.56-72.659 98.187-111.617 165.643-118.916 59.833-6.392 119.827 10.515 167.571 47.223a.2.2 0 0 1 .073.058.23.23 0 0 1 .058.174.24.24 0 0 1-.163.21.23.23 0 0 1-.183-.013c-1.07-.429-2.569-.536-3.747-.858-46.791-15.133-97.865-22.968-146.156-16.099-31.801 4.615-67.242 17.494-85.766 45.506-29.445 44.539 2.463 88.864 42.616 112.905z"/><path fill="#2D5DF8" d="M309.169 169.339c33.628 5.358 64.257 18.216 90.281 40.076 5.141 4.286 9.639 9.644 14.029 14.787q27.31 31.824 24.204 72.757c-3.534 44.684-38.768 82.08-76.037 102.868-83.534 46.076-183.133 38.897-259.277-18.216a.324.324 0 0 1-.05-.394.32.32 0 0 1 .371-.142 372.8 372.8 0 0 0 126.8 19.288c30.523-1.286 63.829-9.001 88.889-27.11 25.917-18.752 38.769-49.291 26.56-80.151-8.568-21.967-28.273-40.183-48.514-51.863-16.493-9.643-43.159-20.68-47.015-42.111-3.213-18.645 14.458-27.86 30.094-30.11q14.565-2.143 29.665.321"/></svg>