<svg xmlns="http://www.w3.org/2000/svg" fill="none" viewBox="0 0 256 256"><path fill="#fff" fill-rule="evenodd" d="M256 128c0 70.692-57.308 128-128 128S0 198.692 0 128 57.308 0 128 0s128 57.308 128 128" clip-rule="evenodd"/><path fill="#2D5DF8" d="M114.141 139.096c7.656 3.971 20.88 13.415 15.901 23.826-4.658 9.713-20.719 9.82-29.446 8.317-18.523-3.219-37.796-11.537-50.592-25.596a49.94 49.94 0 0 1-11.732-20.98 50 50 0 0 1-.581-24.043c8.78-36.33 49.093-55.809 82.821-59.458a117.05 117.05 0 0 1 83.822 23.64.13.13 0 0 1 .029.087.12.12 0 0 1-.081.106.12.12 0 0 1-.092-.007c-.535-.214-1.285-.268-1.874-.43-23.395-7.565-48.932-11.483-73.077-8.048-15.901 2.307-33.621 8.747-42.883 22.752-14.723 22.27 1.231 44.433 21.307 56.453z"/><path fill="#2D5DF8" d="M154.585 84.67c16.813 2.678 32.128 9.108 45.14 20.037 2.57 2.143 4.819 4.822 7.015 7.394q13.655 15.912 12.101 36.379c-1.767 22.341-19.384 41.04-38.018 51.433-41.767 23.039-91.566 19.449-129.639-9.108a.16.16 0 0 1 .16-.267 186.4 186.4 0 0 0 63.401 9.643c15.261-.643 31.915-4.5 44.445-13.555 12.958-9.376 19.384-24.645 13.279-40.075-4.283-10.983-14.136-20.091-24.257-25.931-8.246-4.822-21.579-10.341-23.507-21.056-1.606-9.322 7.229-13.93 15.047-15.055q7.282-1.071 14.833.16"/></svg>
