<svg xmlns="http://www.w3.org/2000/svg" fill="none" viewBox="0 0 285 256"><path fill="#000" d="m279.014 206.798-48.838-66.588a31 31 0 0 0-9.455-8.526 30.9 30.9 0 0 0-12.071-4 6.06 6.06 0 0 1-4.565-3.009 6.1 6.1 0 0 1-.299-5.473 31.16 31.16 0 0 0-.051-24.967L170.696 18.5a30.83 30.83 0 0 0-11.347-13.466A30.7 30.7 0 0 0 142.504 0a30.7 30.7 0 0 0-16.844 5.037 30.87 30.87 0 0 0-11.351 13.462L81.267 94.235a31.24 31.24 0 0 0-.05 24.967 6.15 6.15 0 0 1-.306 5.477 6.08 6.08 0 0 1-4.56 3.004 30.9 30.9 0 0 0-12.07 4 31 31 0 0 0-9.456 8.525l-48.837 66.59a31 31 0 0 0-1.87 33.756 30.9 30.9 0 0 0 12.771 12.112 30.75 30.75 0 0 0 17.292 3.144l81.877-9.147a30.9 30.9 0 0 0 12.082-3.951 31 31 0 0 0 9.48-8.49 6.08 6.08 0 0 1 4.88-2.475c1.923 0 3.724.922 4.88 2.475a31 31 0 0 0 9.48 8.49 30.9 30.9 0 0 0 12.082 3.951l81.876 9.147a30.7 30.7 0 0 0 17.297-3.134 30.8 30.8 0 0 0 12.767-12.122 31 31 0 0 0-1.868-33.756M102.628 103.741l33.09-75.822a7.46 7.46 0 0 1 2.739-3.25 7.43 7.43 0 0 1 4.063-1.22 7.4 7.4 0 0 1 4.063 1.22 7.47 7.47 0 0 1 2.74 3.25l33.088 75.822a7.75 7.75 0 0 1-.612 7.341 7.71 7.71 0 0 1-6.462 3.496h-65.653a7.7 7.7 0 0 1-3.672-.931 7.74 7.74 0 0 1-2.791-2.569 7.77 7.77 0 0 1-.593-7.337m16.987 115.43a7.7 7.7 0 0 1-2.489 2.866 7.7 7.7 0 0 1-3.549 1.33l-81.96 9.148a7.4 7.4 0 0 1-4.173-.752 7.46 7.46 0 0 1-3.089-2.916 7.46 7.46 0 0 1 .46-8.141l48.887-66.657a7.7 7.7 0 0 1 2.919-2.414 7.7 7.7 0 0 1 3.713-.726 7.7 7.7 0 0 1 6.258 3.856l.05.086 32.734 56.896.052.084a7.73 7.73 0 0 1 .203 7.356zm29.621-25.735a7.8 7.8 0 0 1-2.846 2.857 7.77 7.77 0 0 1-3.886 1.051 7.79 7.79 0 0 1-6.736-3.89l-25.149-43.706a7.79 7.79 0 0 1 0-7.798 7.78 7.78 0 0 1 6.732-3.907h50.284a7.75 7.75 0 0 1 6.733 3.889 7.79 7.79 0 0 1 0 7.8zm111.432 35.411a7.46 7.46 0 0 1-3.086 2.926 7.43 7.43 0 0 1-4.177.76l-81.961-9.148a7.7 7.7 0 0 1-3.547-1.329 7.7 7.7 0 0 1-2.488-2.863 7.75 7.75 0 0 1-.828-3.707 7.75 7.75 0 0 1 1.03-3.655l.052-.084 32.732-56.896.052-.086a7.7 7.7 0 0 1 6.258-3.856 7.7 7.7 0 0 1 3.71.731 7.74 7.74 0 0 1 2.921 2.409l48.889 66.657a7.49 7.49 0 0 1 .443 8.141"/></svg>
