<svg xmlns="http://www.w3.org/2000/svg" fill="none" viewBox="0 0 256 256"><path fill="#E81899" d="M128 256c70.692 0 128-57.308 128-128S198.692 0 128 0 0 57.308 0 128s57.308 128 128 128"/><path fill="#fff" d="m219.009 163.23-32.558-44.348a20.7 20.7 0 0 0-6.304-5.678 20.6 20.6 0 0 0-8.047-2.664 4.04 4.04 0 0 1-3.576-3.803 4.1 4.1 0 0 1 .333-1.846 20.74 20.74 0 0 0-.034-16.629l-22.026-50.441a20.53 20.53 0 0 0-7.565-8.97 20.47 20.47 0 0 0-11.23-3.351c-3.988 0-7.89 1.166-11.228 3.355a20.56 20.56 0 0 0-7.568 8.966L87.178 88.262a20.8 20.8 0 0 0-.033 16.629 4.1 4.1 0 0 1-.204 3.647 4.05 4.05 0 0 1-3.04 2.001 20.6 20.6 0 0 0-8.047 2.664 20.7 20.7 0 0 0-6.304 5.678L36.992 163.23a20.63 20.63 0 0 0-1.247 22.483 20.57 20.57 0 0 0 8.514 8.066 20.5 20.5 0 0 0 11.528 2.095l54.585-6.092a20.62 20.62 0 0 0 14.375-8.287 4.05 4.05 0 0 1 3.253-1.648c1.282 0 2.483.614 3.253 1.648a20.62 20.62 0 0 0 14.375 8.287l54.584 6.092a20.5 20.5 0 0 0 11.532-2.088 20.54 20.54 0 0 0 8.511-8.073 20.63 20.63 0 0 0 2.713-11.427 20.6 20.6 0 0 0-3.959-11.056m-117.59-68.637 22.06-50.499a4.96 4.96 0 0 1 4.534-2.977 4.95 4.95 0 0 1 2.709.813 4.97 4.97 0 0 1 1.827 2.164l22.058 50.5a5.16 5.16 0 0 1-.407 4.888 5.14 5.14 0 0 1-4.309 2.329h-43.768a5.15 5.15 0 0 1-4.309-2.332 5.17 5.17 0 0 1-.395-4.886m11.324 76.879a5.15 5.15 0 0 1-4.025 2.794l-54.64 6.093a4.96 4.96 0 0 1-4.841-2.443 4.96 4.96 0 0 1 .306-5.422l32.592-44.395a5.12 5.12 0 0 1 4.421-2.091 5.12 5.12 0 0 1 4.172 2.568l.034.057 21.822 37.894.035.056c.427.741.664 1.577.688 2.432a5.16 5.16 0 0 1-.553 2.467zm19.747-17.141a5.19 5.19 0 0 1-4.488 2.603 5.19 5.19 0 0 1-4.49-2.591l-16.766-29.108a5.18 5.18 0 0 1 0-5.194 5.2 5.2 0 0 1 4.488-2.603h33.522c1.849 0 3.56.978 4.49 2.591a5.19 5.19 0 0 1 0 5.195zm74.289 23.585a4.96 4.96 0 0 1-4.842 2.455l-54.641-6.093a5.15 5.15 0 0 1-2.365-.885 5.15 5.15 0 0 1-2.211-4.376c.024-.856.26-1.693.688-2.434l.034-.056 21.821-37.894.035-.057a5.13 5.13 0 0 1 6.645-2.081 5.15 5.15 0 0 1 1.947 1.604l32.593 44.395a4.98 4.98 0 0 1 .296 5.422"/></svg>