<svg xmlns="http://www.w3.org/2000/svg" fill="none" viewBox="0 0 286 256"><path fill="#000" d="m279.286 206.798-48.885-66.588a31 31 0 0 0-9.464-8.526 31 31 0 0 0-12.083-4 6.06 6.06 0 0 1-4.57-3.009 6.1 6.1 0 0 1-.299-5.473 31.15 31.15 0 0 0-.051-24.967L170.863 18.5a30.84 30.84 0 0 0-11.359-13.466A30.73 30.73 0 0 0 142.643 0a30.76 30.76 0 0 0-16.86 5.037 30.87 30.87 0 0 0-11.362 13.462L81.347 94.235a31.2 31.2 0 0 0-.05 24.967 6.15 6.15 0 0 1-.307 5.477 6.09 6.09 0 0 1-4.564 3.004 31 31 0 0 0-12.082 4 31.1 31.1 0 0 0-9.465 8.525l-48.885 66.59a30.98 30.98 0 0 0-1.872 33.756 30.9 30.9 0 0 0 12.784 12.112 30.8 30.8 0 0 0 17.308 3.144l81.958-9.147a30.9 30.9 0 0 0 12.093-3.951 31 31 0 0 0 9.49-8.49 6.08 6.08 0 0 1 4.884-2.475c1.926 0 3.728.922 4.885 2.475a31 31 0 0 0 9.489 8.49 30.9 30.9 0 0 0 12.094 3.951l81.956 9.147a30.74 30.74 0 0 0 17.314-3.134 30.83 30.83 0 0 0 12.779-12.122 30.97 30.97 0 0 0 4.075-17.157 30.96 30.96 0 0 0-5.945-16.599M102.728 103.741l33.123-75.822a7.46 7.46 0 0 1 2.741-3.25 7.44 7.44 0 0 1 4.067-1.22 7.44 7.44 0 0 1 4.068 1.22 7.46 7.46 0 0 1 2.742 3.25l33.12 75.822a7.75 7.75 0 0 1-.612 7.341 7.72 7.72 0 0 1-6.468 3.496h-65.718a7.73 7.73 0 0 1-6.469-3.5 7.76 7.76 0 0 1-.594-7.337m17.004 115.43a7.74 7.74 0 0 1-2.491 2.866 7.7 7.7 0 0 1-3.553 1.33l-82.04 9.148a7.44 7.44 0 0 1-4.177-.752 7.46 7.46 0 0 1-3.092-2.916 7.45 7.45 0 0 1 .46-8.141l48.935-66.657a7.7 7.7 0 0 1 6.639-3.14 7.7 7.7 0 0 1 6.264 3.856l.05.086 32.766 56.896.052.084a7.74 7.74 0 0 1 .203 7.356zm29.649-25.735a7.79 7.79 0 0 1-6.738 3.908 7.8 7.8 0 0 1-6.742-3.89l-25.174-43.706a7.79 7.79 0 0 1 0-7.798 7.79 7.79 0 0 1 6.739-3.907h50.332a7.77 7.77 0 0 1 6.741 3.889 7.79 7.79 0 0 1 0 7.8zm111.542 35.411a7.45 7.45 0 0 1-7.27 3.686l-82.041-9.148a7.7 7.7 0 0 1-3.551-1.329 7.74 7.74 0 0 1-3.319-6.57 7.75 7.75 0 0 1 1.031-3.655l.052-.084 32.764-56.896.052-.086a7.71 7.71 0 0 1 6.264-3.856 7.73 7.73 0 0 1 6.637 3.14l48.937 66.657a7.48 7.48 0 0 1 .444 8.141"/></svg>