<svg xmlns="http://www.w3.org/2000/svg" fill="none" viewBox="0 0 512 512"><path fill="#000" d="M256 512c141.385 0 256-114.615 256-256S397.385 0 256 0 0 114.615 0 256s114.615 256 256 256"/><path fill="#E81899" d="m438.018 326.461-65.116-88.697a41.3 41.3 0 0 0-12.607-11.356 41.25 41.25 0 0 0-16.095-5.328 8.08 8.08 0 0 1-6.087-4.01 8.11 8.11 0 0 1-.398-7.289 41.48 41.48 0 0 0-.069-33.257L293.595 75.641a41.1 41.1 0 0 0-15.13-17.937A40.94 40.94 0 0 0 256.005 51a41 41 0 0 0-22.458 6.709 41.1 41.1 0 0 0-15.135 17.932l-44.056 100.883a41.58 41.58 0 0 0-.066 33.257 8.19 8.19 0 0 1-.409 7.295 8.1 8.1 0 0 1-6.079 4.001 41.3 41.3 0 0 0-16.094 5.329 41.4 41.4 0 0 0-12.607 11.356l-65.117 88.699a41.27 41.27 0 0 0-2.493 44.965 41.15 41.15 0 0 0 17.028 16.132 41 41 0 0 0 23.055 4.189l109.17-12.184a41.2 41.2 0 0 0 16.109-5.263 41.3 41.3 0 0 0 12.641-11.309 8.09 8.09 0 0 1 6.506-3.297c2.565 0 4.965 1.228 6.506 3.297a41.3 41.3 0 0 0 12.641 11.308 41.2 41.2 0 0 0 16.109 5.264l109.167 12.184a40.95 40.95 0 0 0 23.064-4.174 41.07 41.07 0 0 0 17.022-16.147 41.27 41.27 0 0 0-2.491-44.965M202.837 189.186l44.121-100.997a9.94 9.94 0 0 1 3.651-4.328 9.9 9.9 0 0 1 5.417-1.627 9.9 9.9 0 0 1 5.419 1.626 9.95 9.95 0 0 1 3.652 4.33l44.118 100.996a10.316 10.316 0 0 1-4.535 13.201 10.3 10.3 0 0 1-4.897 1.235h-87.537c-1.71 0-3.393-.426-4.897-1.24a10.3 10.3 0 0 1-3.721-3.423 10.32 10.32 0 0 1-.791-9.773m22.649 153.757a10.3 10.3 0 0 1-3.318 3.817 10.26 10.26 0 0 1-4.732 1.772l-109.279 12.186a9.93 9.93 0 0 1-9.683-4.887 9.92 9.92 0 0 1 .612-10.843l65.183-88.79a10.26 10.26 0 0 1 8.843-4.182c1.708.091 3.366.609 4.823 1.506a10.3 10.3 0 0 1 3.521 3.63l.067.115 43.645 75.787.069.112a10.3 10.3 0 0 1 1.376 4.865 10.3 10.3 0 0 1-1.105 4.934zm39.495-34.281a10.39 10.39 0 0 1-8.976 5.206 10.37 10.37 0 0 1-5.181-1.39 10.4 10.4 0 0 1-3.8-3.792l-33.532-58.217a10.37 10.37 0 0 1 0-10.387 10.4 10.4 0 0 1 3.794-3.805 10.37 10.37 0 0 1 5.182-1.4h67.045a10.34 10.34 0 0 1 8.978 5.181 10.37 10.37 0 0 1 0 10.39zm148.576 47.169a9.94 9.94 0 0 1-9.683 4.91l-109.282-12.186a10.25 10.25 0 0 1-4.729-1.77 10.31 10.31 0 0 1-3.048-13.619l.069-.112 43.643-75.787.069-.115a10.3 10.3 0 0 1 3.521-3.63 10.24 10.24 0 0 1 4.823-1.506 10.3 10.3 0 0 1 4.947.974 10.3 10.3 0 0 1 3.894 3.208l65.185 88.79a9.96 9.96 0 0 1 .591 10.843"/></svg>