<svg xmlns="http://www.w3.org/2000/svg" fill="none" viewBox="0 0 256 256"><path fill="url(#paint0_linear_10889_821)" d="M128 256c70.692 0 128-57.308 128-128S198.692 0 128 0 0 57.308 0 128s57.308 128 128 128"/><path fill="#fff" d="M204.47 77.056c-4.706-8.11-13.133-12.967-22.547-12.967h-51.906A30 30 0 0 0 128 64c-.673 0-1.345.044-2.017.09H74.076c-9.412 0-17.84 4.856-22.546 12.966-4.707 8.11-4.707 17.78 0 25.89l53.923 92.818c4.707 8.11 13.134 12.966 22.547 12.966s17.84-4.856 22.547-12.966l53.923-92.818c4.707-8.066 4.707-17.78 0-25.89m-66.384 111.578c-2.107 3.609-5.873 5.793-10.086 5.793s-7.979-2.184-10.085-5.793L87.568 136.41l30.347-52.27c1.882-3.252 5.065-5.302 8.74-5.703h2.69c3.676.401 6.858 2.496 8.741 5.704l30.345 52.224z"/><defs><linearGradient id="paint0_linear_10889_821" x1="0" x2="256" y1="128" y2="128" gradientUnits="userSpaceOnUse"><stop stop-color="#6ED396"/><stop offset="1" stop-color="#4977EA"/></linearGradient></defs></svg>
