<svg xmlns="http://www.w3.org/2000/svg" fill="none" viewBox="0 0 256 256"><path fill="#000" fill-rule="evenodd" d="M40.356 0h175.42c6.704 0 12.126 1.17 18.995 4.472 6.999 3.365 11.359 5.886 15.598 12.34 4.775 7.27 5.631 14.49 5.631 22.315 0 6.707-1.117 13.414-5.587 20.122L139.798 249.293c-2.235 4.471-6.704 6.707-12.291 6.707-4.469 0-8.938-2.236-12.29-6.707L6.836 59.249C4.6 54.777.73 48.092.132 40.245c-.646-8.452 1.117-14.533 4.47-21.24 3.351-6.708 7.98-10.877 15.753-14.7C27.194.944 35.886 0 40.355 0m73.743 26.83H40.356c-4.47 0-5.115-.364-7.822 1.118-2.165 1.185-3.338 2.276-4.469 4.471-1.019 1.98-.906 3.052-.906 5.059 0 1.073.906 2.767 3.14 7.238l83.8 145.328zm26.816 0v164.332l84.917-146.446c1.117-2.236 1.117-4.471 1.117-6.707s-.013-3.657-1.117-5.59c-.918-1.608-1.117-2.236-3.352-3.353-2.235-1.118-4.469-1.118-7.821-1.118h-73.744z" clip-rule="evenodd"/></svg>
