<svg xmlns="http://www.w3.org/2000/svg" fill="none" viewBox="0 0 256 256"><path fill="#08C" d="M128 256c70.692 0 128-57.308 128-128S198.692 0 128 0 0 57.308 0 128s57.308 128 128 128"/><path fill="#fff" fill-rule="evenodd" d="M70.905 62.5h114.777c4.386 0 7.934.765 12.428 2.926 4.58 2.202 7.432 3.851 10.206 8.075C211.44 78.257 212 82.98 212 88.1c0 4.388-.731 8.777-3.655 13.165L135.969 225.61c-1.462 2.926-4.386 4.389-8.041 4.389-2.925 0-5.849-1.463-8.042-4.389L48.973 101.266c-1.462-2.925-3.994-7.3-4.387-12.434-.422-5.53.731-9.509 2.925-13.897 2.193-4.39 5.221-7.117 10.307-9.618 4.475-2.2 10.162-2.817 13.087-2.817m48.25 17.555h-48.25c-2.925 0-3.347-.239-5.118.731-1.417.776-2.185 1.49-2.924 2.926-.667 1.295-.593 1.996-.593 3.31 0 .702.593 1.81 2.055 4.736l54.83 95.087zm17.545 0v107.521l55.561-95.818c.731-1.463.731-2.926.731-4.389s-.008-2.393-.731-3.657c-.601-1.052-.731-1.463-2.193-2.195s-2.924-.731-5.117-.731H136.7z" clip-rule="evenodd"/></svg>
