<svg xmlns="http://www.w3.org/2000/svg" fill="none" viewBox="0 0 512 512"><path fill="#08C" d="M256 512c141.385 0 256-114.615 256-256S397.385 0 256 0 0 114.615 0 256s114.615 256 256 256"/><path fill="#fff" fill-rule="evenodd" d="M141.809 125h229.554c8.773 0 15.869 1.53 24.857 5.852 9.159 4.404 14.864 7.702 20.412 16.149 6.248 9.513 7.368 18.96 7.368 29.2 0 8.777-1.462 17.554-7.311 26.332l-144.75 248.69c-2.925 5.851-8.773 8.777-16.084 8.777-5.848 0-11.697-2.926-16.083-8.777L97.945 202.533c-2.924-5.852-7.988-14.6-8.772-24.869-.846-11.06 1.462-19.018 5.848-27.795s10.443-14.232 20.615-19.234c8.949-4.402 20.325-5.635 26.173-5.635m96.501 35.109h-96.501c-5.848 0-6.693-.476-10.235 1.463-2.833 1.551-4.369 2.979-5.848 5.852-1.334 2.589-1.186 3.993-1.186 6.619 0 1.405 1.186 3.621 4.11 9.472L238.31 373.69zm35.091 0v215.044l111.122-191.638c1.462-2.925 1.462-5.851 1.462-8.777s-.018-4.785-1.462-7.314c-1.202-2.105-1.463-2.926-4.387-4.389s-5.848-1.463-10.235-1.463h-96.5z" clip-rule="evenodd"/></svg>