<svg xmlns="http://www.w3.org/2000/svg" fill="none" viewBox="0 0 257 256"><path fill="#000" fill-rule="evenodd" d="M119.727.295C26.352 6.444-29.456 108.998 16.26 190.428c48.175 85.809 171.761 87.806 222.327 3.592C291.684 105.592 222.91-6.5 119.727.295m-3.255 24.415c-43.868 5.534-79.083 36.571-89.402 78.795-.716 2.928-2.261 11.359-2.262 12.335 0 .478 31.363.308 31.493-.17.064-.233.465-1.956.892-3.828 6.172-27.079 28.204-48.494 55.629-54.07 7.285-1.481 9.955-1.563 51.552-1.577l39.535-.013-3.242-3.136c-21.826-21.102-54.464-32.086-84.195-28.335m42.449 55.664c-37.662.186-38.58.206-41.58.909-14.765 3.463-26.667 12.745-33.074 25.795-1.463 2.982-3.223 7.659-3.223 8.567 0 .373 13.057.451 75.531.451h75.531l-.236-1.957c-1.233-10.228-6.847-28.003-10.48-33.177l-.656-.936-11.65.079c-6.408.043-28.981.164-50.163.269M25.018 141.869c10.157 83.419 112.946 119.628 175.293 61.75l3.558-3.304-41.389-.198c-43.032-.206-42.81-.199-50.251-1.726-26.998-5.54-49.139-27.369-55.17-54.392l-.797-3.573-15.721-.089-15.72-.088zm56.026-1.248c0 .874 1.869 5.806 3.26 8.6 6.58 13.223 18.41 22.387 33.378 25.857 3.026.702 3.748.713 53.245.819l50.177.108 1.496-2.987c4.309-8.606 9.427-26.092 9.427-32.205 0-.515-5.771-.557-75.492-.557-53.554 0-75.491.106-75.491.365" clip-rule="evenodd"/></svg>