<svg xmlns="http://www.w3.org/2000/svg" fill="none" viewBox="0 0 256 256"><path fill="#040404" fill-rule="evenodd" d="M119.276.295C26.253 6.444-29.344 108.998 16.199 190.428c47.993 85.809 171.114 87.806 221.49 3.592C290.586 105.592 222.071-6.5 119.276.295m-3.243 24.415c-43.703 5.534-78.785 36.571-89.065 78.795-.713 2.928-2.253 11.359-2.253 12.335 0 .478 31.244.308 31.374-.17.064-.233.463-1.956.888-3.828 6.149-27.079 28.099-48.494 55.42-54.07 7.257-1.481 9.918-1.563 51.358-1.577l39.386-.013-3.23-3.136c-21.744-21.102-54.259-32.086-83.878-28.335m42.29 55.664c-37.521.186-38.436.206-41.424.909-14.709 3.463-26.567 12.745-32.949 25.795-1.458 2.982-3.212 7.659-3.212 8.567 0 .373 13.009.451 75.247.451h75.246l-.235-1.957c-1.228-10.228-6.821-28.003-10.439-33.177l-.655-.936-11.606.079c-6.383.043-28.871.164-49.973.269m-133.4 61.495c10.12 83.419 112.521 119.628 174.633 61.75l3.545-3.304-41.233-.198c-42.87-.206-42.649-.199-50.062-1.726-26.896-5.54-48.953-27.369-54.962-54.392l-.794-3.573-15.662-.089-15.661-.088zm55.815-1.248c0 .874 1.863 5.806 3.248 8.6 6.556 13.223 18.341 22.387 33.253 25.857 3.014.702 3.733.713 53.044.819l49.988.108 1.491-2.987c4.292-8.606 9.391-26.092 9.391-32.205 0-.515-5.75-.557-75.207-.557-53.353 0-75.208.106-75.208.365" clip-rule="evenodd"/><path fill="#fff" d="M116.033 24.71c-43.703 5.534-78.785 36.571-89.065 78.795-.713 2.928-2.253 11.359-2.253 12.335 0 .478 31.244.308 31.374-.17.064-.233.463-1.956.888-3.828 6.149-27.079 28.099-48.494 55.42-54.07 7.257-1.481 9.918-1.563 51.358-1.577l39.386-.013-3.23-3.136c-21.744-21.102-54.259-32.086-83.878-28.335"/><path fill="#fff" d="M158.323 80.374c-37.521.186-38.436.206-41.424.909-14.709 3.463-26.567 12.745-32.949 25.795-1.458 2.982-3.212 7.659-3.212 8.567 0 .373 13.009.451 75.247.451h75.246l-.235-1.957c-1.228-10.228-6.821-28.003-10.439-33.177l-.655-.936-11.606.079c-6.383.043-28.871.164-49.973.269m-77.585 60.247c0 .874 1.863 5.806 3.248 8.6 6.556 13.223 18.341 22.387 33.253 25.857 3.014.702 3.733.713 53.044.819l49.988.108 1.491-2.987c4.292-8.606 9.391-26.092 9.391-32.205 0-.515-5.75-.557-75.207-.557-53.353 0-75.208.106-75.208.365"/><path fill="#fff" d="M24.923 141.869c10.12 83.419 112.521 119.628 174.633 61.75l3.545-3.304-41.233-.198c-42.87-.206-42.649-.199-50.062-1.726-26.896-5.54-48.953-27.369-54.962-54.392l-.794-3.573-15.662-.089-15.661-.088z"/></svg>