<svg xmlns="http://www.w3.org/2000/svg" fill="none" viewBox="0 0 257 256"><path fill="#000" fill-rule="evenodd" d="M119.742.295C26.355 6.444-29.46 108.998 16.262 190.428c48.181 85.809 171.783 87.806 222.355 3.592C291.721 105.592 222.938-6.5 119.742.295m-3.256 24.415c-43.873 5.534-79.093 36.571-89.413 78.795-.715 2.928-2.261 11.359-2.262 12.335 0 .478 31.367.308 31.497-.17.064-.233.465-1.956.892-3.828 6.172-27.079 28.208-48.494 55.636-54.07 7.286-1.481 9.956-1.563 51.559-1.577l39.54-.013-3.243-3.136c-21.829-21.102-54.471-32.086-84.206-28.335m42.455 55.664c-37.667.186-38.585.206-41.585.909-14.767 3.463-26.671 12.745-33.078 25.795-1.464 2.982-3.224 7.659-3.224 8.567 0 .373 13.059.451 75.54.451h75.541l-.236-1.957c-1.234-10.228-6.848-28.003-10.481-33.177l-.657-.936-11.651.079c-6.408.043-28.984.164-50.169.269M25.021 141.87c10.158 83.419 112.96 119.628 175.315 61.75l3.558-3.304-41.394-.198c-43.037-.206-42.815-.199-50.257-1.726-27.001-5.54-49.145-27.369-55.177-54.392l-.797-3.573-15.723-.089-15.722-.088zm56.033-1.248c0 .874 1.87 5.806 3.26 8.6 6.582 13.223 18.413 22.387 33.383 25.857 3.026.702 3.748.713 53.251.819l50.184.108 1.496-2.987c4.309-8.606 9.428-26.092 9.428-32.205 0-.515-5.772-.557-75.501-.557-53.561 0-75.501.106-75.501.365" clip-rule="evenodd"/></svg>
