<svg xmlns="http://www.w3.org/2000/svg" fill="none" viewBox="0 0 514 512"><path fill="#040404" fill-rule="evenodd" d="M239.454.59C52.704 12.887-58.912 217.995 32.521 380.856c96.349 171.618 343.521 175.611 444.653 7.183C583.369 211.183 445.82-13 239.454.59m-6.51 48.831c-87.737 11.068-158.167 73.141-178.805 157.59-1.43 5.856-4.522 22.717-4.523 24.67 0 .955 62.726.616 62.986-.34.128-.468.93-3.914 1.783-7.657 12.344-54.157 56.41-96.987 111.258-108.14 14.571-2.962 19.911-3.125 103.106-3.153l79.07-.028-6.486-6.27C357.681 63.888 292.405 41.92 232.944 49.421m84.898 111.326c-75.324.372-77.161.412-83.16 1.819-29.53 6.925-53.335 25.491-66.147 51.591-2.927 5.963-6.448 15.318-6.448 17.133 0 .746 26.115.901 151.062.901h151.062l-.472-3.913c-2.466-20.457-13.694-56.005-20.958-66.355l-1.314-1.871-23.299.157c-12.815.087-57.962.329-100.326.538M50.035 283.737c20.315 166.839 225.893 239.258 350.586 123.5l7.117-6.606-82.779-.397c-86.064-.413-85.619-.398-100.502-3.452-53.994-11.08-98.277-54.738-110.339-108.784l-1.595-7.146-31.441-.177-31.441-.177zm112.052-2.495c0 1.749 3.739 11.612 6.521 17.201 13.161 26.444 36.821 44.773 66.756 51.713 6.051 1.403 7.496 1.426 106.49 1.638l100.354.215 2.992-5.974c8.617-17.212 18.854-52.183 18.854-64.408 0-1.031-11.543-1.116-150.983-1.116-107.109 0-150.984.213-150.984.731" clip-rule="evenodd"/><path fill="#fff" d="M232.944 49.421c-87.737 11.068-158.167 73.141-178.805 157.59-1.43 5.856-4.522 22.717-4.523 24.67 0 .955 62.726.616 62.986-.34.128-.468.93-3.914 1.783-7.657 12.344-54.157 56.41-96.987 111.258-108.14 14.571-2.962 19.911-3.125 103.106-3.153l79.07-.028-6.486-6.27C357.681 63.888 292.405 41.92 232.944 49.421"/><path fill="#fff" d="M317.842 160.747c-75.324.372-77.161.412-83.16 1.819-29.53 6.925-53.335 25.491-66.147 51.591-2.927 5.963-6.448 15.318-6.448 17.133 0 .746 26.115.901 151.062.901h151.062l-.472-3.913c-2.466-20.457-13.694-56.005-20.958-66.355l-1.314-1.871-23.299.157c-12.815.087-57.962.329-100.326.538M162.087 281.242c0 1.749 3.739 11.612 6.521 17.201 13.161 26.444 36.821 44.773 66.756 51.713 6.051 1.403 7.496 1.426 106.49 1.638l100.354.215 2.992-5.974c8.617-17.212 18.854-52.183 18.854-64.408 0-1.031-11.543-1.116-150.983-1.116-107.109 0-150.984.213-150.984.731"/><path fill="#fff" d="M50.035 283.737c20.315 166.839 225.893 239.258 350.586 123.5l7.117-6.606-82.779-.397c-86.064-.413-85.619-.398-100.502-3.452-53.994-11.08-98.277-54.738-110.339-108.784l-1.595-7.146-31.441-.177-31.441-.177z"/></svg>