<svg xmlns="http://www.w3.org/2000/svg" fill="none" viewBox="0 0 256 256"><path fill="#000" d="M128 256c70.692 0 128-57.308 128-128S198.692 0 128 0 0 57.308 0 128s57.308 128 128 128"/><path fill="#fff" fill-opacity=".5" fill-rule="evenodd" d="M193.912 63.505h21.483a2.867 2.867 0 0 1 2.87 2.864v37.237a2.867 2.867 0 0 1-2.87 2.864l-21.483.001zm.236 86.03h21.483a2.867 2.867 0 0 1 2.869 2.864v37.236a2.87 2.87 0 0 1-2.869 2.865h-21.483z" clip-rule="evenodd"/><path fill="#fff" d="M135.633 106.575h-37.12c-1.578 0-2.856 1.267-2.856 2.83v36.796c0 1.563 1.278 2.83 2.855 2.83h37.121c1.577 0 2.856-1.267 2.856-2.83v-36.796c0-1.563-1.279-2.83-2.856-2.83M92.667 63.5H55.369a2.867 2.867 0 0 0-2.869 2.864v37.237a2.866 2.866 0 0 0 2.87 2.864h37.297a2.866 2.866 0 0 0 2.869-2.864V66.364a2.867 2.867 0 0 0-2.87-2.864m86.057 0h-37.298a2.867 2.867 0 0 0-2.869 2.864v37.237a2.867 2.867 0 0 0 2.869 2.864h37.298a2.867 2.867 0 0 0 2.869-2.864V66.364a2.867 2.867 0 0 0-2.869-2.864m-86.056 85.928H55.369a2.867 2.867 0 0 0-2.869 2.865v37.236a2.867 2.867 0 0 0 2.87 2.865h37.297a2.867 2.867 0 0 0 2.869-2.865v-37.236a2.867 2.867 0 0 0-2.87-2.865m86.057 0h-37.298a2.87 2.87 0 0 0-2.869 2.865v37.236a2.87 2.87 0 0 0 2.869 2.865h37.298a2.87 2.87 0 0 0 2.869-2.865v-37.236a2.87 2.87 0 0 0-2.869-2.865"/></svg>
