<svg width="256" height="256" viewBox="0 0 256 256" fill="none" xmlns="http://www.w3.org/2000/svg">
<path d="M128 256C198.692 256 256 198.692 256 128C256 57.3075 198.692 0 128 0C57.3075 0 0 57.3075 0 128C0 198.692 57.3075 256 128 256Z" fill="black"/>
<path fill-rule="evenodd" clip-rule="evenodd" d="M193.912 63.5051L215.395 63.5051C216.98 63.5051 218.265 64.7875 218.265 66.3695V103.606C218.265 105.188 216.98 106.47 215.395 106.47L193.912 106.471V63.5051Z" fill="white" fill-opacity="0.5"/>
<path fill-rule="evenodd" clip-rule="evenodd" d="M194.148 149.535H215.631C217.215 149.535 218.5 150.817 218.5 152.399V189.635C218.5 191.217 217.215 192.5 215.631 192.5L194.148 192.5V149.535Z" fill="white" fill-opacity="0.5"/>
<path d="M135.633 106.575H98.5123C96.935 106.575 95.6568 107.842 95.6568 109.405V146.201C95.6568 147.764 96.935 149.031 98.5123 149.031H135.633C137.21 149.031 138.489 147.764 138.489 146.201V109.405C138.489 107.842 137.21 106.575 135.633 106.575Z" fill="white"/>
<path d="M92.6668 63.5H55.3691C53.7845 63.5 52.5 64.7824 52.5 66.3644V103.601C52.5 105.183 53.7845 106.465 55.3691 106.465H92.6668C94.2514 106.465 95.5359 105.183 95.5359 103.601V66.3644C95.5359 64.7824 94.2514 63.5 92.6668 63.5Z" fill="white"/>
<path d="M178.723 63.5H141.425C139.841 63.5 138.556 64.7824 138.556 66.3644V103.601C138.556 105.183 139.841 106.465 141.425 106.465H178.723C180.307 106.465 181.592 105.183 181.592 103.601V66.3644C181.592 64.7824 180.307 63.5 178.723 63.5Z" fill="white"/>
<path d="M92.6668 149.428H55.3691C53.7845 149.428 52.5 150.711 52.5 152.293V189.529C52.5 191.111 53.7845 192.394 55.3691 192.394H92.6668C94.2514 192.394 95.5359 191.111 95.5359 189.529V152.293C95.5359 150.711 94.2514 149.428 92.6668 149.428Z" fill="white"/>
<path d="M178.723 149.428H141.425C139.841 149.428 138.556 150.711 138.556 152.293V189.529C138.556 191.111 139.841 192.394 141.425 192.394H178.723C180.307 192.394 181.592 191.111 181.592 189.529V152.293C181.592 150.711 180.307 149.428 178.723 149.428Z" fill="white"/>
</svg>
