<svg xmlns="http://www.w3.org/2000/svg" fill="none" viewBox="0 0 340 256"><path fill="#000" d="M78.2.014A49.9 49.9 0 0 0 59.085 3.8a49.9 49.9 0 0 0-16.204 10.812 49.8 49.8 0 0 0-10.82 16.19 49.8 49.8 0 0 0-3.784 19.093v36.198a29.98 29.98 0 0 1-8.172 20.607A30.05 30.05 0 0 1 0 116.078l.425 7.953L0 131.969a30.05 30.05 0 0 1 20.115 9.389 29.98 29.98 0 0 1 8.162 20.625v41.716a52.18 52.18 0 0 0 15.23 36.927A52.3 52.3 0 0 0 80.41 256v-15.891a36.3 36.3 0 0 1-25.607-10.615 36.2 36.2 0 0 1-10.617-25.583v-41.928a45.8 45.8 0 0 0-5.333-21.475 45.85 45.85 0 0 0-14.784-16.477 46.15 46.15 0 0 0 14.75-16.496 46.1 46.1 0 0 0 5.367-21.456V49.895a34.1 34.1 0 0 1 10.003-23.988c6.37-6.366 15-9.96 24.011-10.002h6.19V.015zm177.622 0v15.891h6.19a33.9 33.9 0 0 1 23.961 9.981 33.8 33.8 0 0 1 7.314 11.018 33.8 33.8 0 0 1 2.527 12.977V86.08a46.1 46.1 0 0 0 5.368 21.456 46.14 46.14 0 0 0 14.749 16.496 45.81 45.81 0 0 0-20.117 37.952v41.928a36.2 36.2 0 0 1-10.617 25.583 36.3 36.3 0 0 1-25.607 10.615V256a52.3 52.3 0 0 0 36.902-15.374 52.18 52.18 0 0 0 15.231-36.927v-41.73a29.98 29.98 0 0 1 8.172-20.607A30.05 30.05 0 0 1 340 131.983l-.425-7.952.425-7.939a30.05 30.05 0 0 1-20.11-9.383 29.98 29.98 0 0 1-8.167-20.616V49.867a49.75 49.75 0 0 0-14.522-35.211A49.87 49.87 0 0 0 262.012 0zM88.584 64.018l49.272 46.117a48.1 48.1 0 0 0 32.25 12.411 48.1 48.1 0 0 0 32.251-12.411l49.271-46.131h-23.644L190.442 98.87a30.24 30.24 0 0 1-40.885 0l-37.329-34.853zm79.418 69.112a47.62 47.62 0 0 0-30.146 12.537l-49.484 46.329h23.63l37.782-35.305a30.24 30.24 0 0 1 20.436-7.949c7.568 0 14.86 2.836 20.435 7.949l37.542 35.305h23.658l-49.498-46.329a47.62 47.62 0 0 0-34.355-12.537"/></svg>
