<svg xmlns="http://www.w3.org/2000/svg" fill="none" viewBox="0 0 256 256"><path fill="#000" d="M128 256c70.692 0 128-57.308 128-128S198.692 0 128 0 0 57.308 0 128s57.308 128 128 128"/><path fill="#fff" d="M133.596 133.144c11.156 0 21.978 3.939 30.22 11.658L210 188h-22.145l-35.019-32.743c-5.152-4.801-12.02-7.368-19.231-7.368s-14.08 2.567-19.231 7.368L79.354 188H57.21l46.185-43.198c8.241-7.711 19.054-11.658 30.22-11.658zm0-10.279c-11.157 0-21.978-3.939-30.22-11.659L57.2 68h22.146l35.019 32.743c5.151 4.801 12.019 7.368 19.231 7.368 7.211 0 14.08-2.567 19.231-7.368L187.846 68h22.145l-46.184 43.198c-8.242 7.711-19.055 11.658-30.22 11.658zm-38.629 5.144-48.245 40.797C43.121 172.06 39 170.521 39 165.72V90.29c0-4.801 4.12-6.34 7.722-3.087L94.967 128z"/></svg>
