<svg xmlns="http://www.w3.org/2000/svg" fill="none" viewBox="0 0 365 256"><path fill="#000" d="M201.915 138.973c23.813 0 46.913 8.403 64.505 24.872L365 256h-47.269l-74.749-69.852c-10.995-10.242-25.655-15.719-41.048-15.719s-30.053 5.477-41.048 15.719L86.137 256h-47.27l98.581-92.155c17.592-16.45 40.672-24.872 64.505-24.872zm0-21.927c-23.813 0-46.912-8.403-64.504-24.872L38.849 0h47.27l74.748 69.852c10.995 10.242 25.655 15.719 41.048 15.719s30.054-5.477 41.049-15.719L317.712 0h47.269l-98.58 92.155c-17.592 16.45-40.673 24.872-64.505 24.872zm-82.453 10.974L16.483 215.054C8.796 221.994 0 218.711 0 208.47V47.55c0-10.24 8.796-13.523 16.483-6.583L119.462 128z"/></svg>