<svg xmlns="http://www.w3.org/2000/svg" fill="none" viewBox="0 0 256 256"><path fill="#fff" d="M128 256c70.692 0 128-57.308 128-128S198.692 0 128 0 0 57.308 0 128s57.308 128 128 128"/><path fill="#000" d="M72.38 51.009A30.3 30.3 0 0 0 60.799 53.3a30.2 30.2 0 0 0-9.818 6.546 30.2 30.2 0 0 0-6.556 9.802 30.1 30.1 0 0 0-2.293 11.561v21.916a18.14 18.14 0 0 1-4.95 12.477A18.2 18.2 0 0 1 25 121.282l.258 4.815-.258 4.806a18.22 18.22 0 0 1 12.187 5.685 18.15 18.15 0 0 1 4.945 12.488v25.257a31.6 31.6 0 0 0 9.228 22.359A31.7 31.7 0 0 0 73.72 206v-9.622a22 22 0 0 1-15.515-6.427 21.9 21.9 0 0 1-6.433-15.489v-25.386a27.7 27.7 0 0 0-3.23-13.003 27.76 27.76 0 0 0-8.958-9.976 27.95 27.95 0 0 0 8.936-9.988 27.9 27.9 0 0 0 3.252-12.991V81.21a20.65 20.65 0 0 1 6.061-14.524A20.72 20.72 0 0 1 72.38 60.63h3.75v-9.62zm107.618 0v9.621h3.751a20.52 20.52 0 0 1 14.517 6.043 20.48 20.48 0 0 1 5.963 14.528v21.917a27.9 27.9 0 0 0 3.252 12.991 27.94 27.94 0 0 0 8.936 9.988 27.76 27.76 0 0 0-8.957 9.976 27.7 27.7 0 0 0-3.231 13.003v25.386a21.9 21.9 0 0 1-6.433 15.489 22 22 0 0 1-15.515 6.427V206a31.7 31.7 0 0 0 22.359-9.308 31.6 31.6 0 0 0 9.228-22.359v-25.266a18.14 18.14 0 0 1 4.951-12.477A18.2 18.2 0 0 1 231 130.912l-.258-4.815.258-4.807a18.2 18.2 0 0 1-12.184-5.681 18.15 18.15 0 0 1-4.948-12.483V81.193a30.12 30.12 0 0 0-8.799-21.32A30.22 30.22 0 0 0 183.749 51zM78.672 89.76l29.852 27.922a29.15 29.15 0 0 0 19.54 7.515 29.15 29.15 0 0 0 19.54-7.515l29.853-27.93h-14.325l-22.746 21.11a18.33 18.33 0 0 1-24.772 0L92.997 89.761zm48.118 41.845a28.87 28.87 0 0 0-18.266 7.591l-29.981 28.051H92.86l22.892-21.377a18.326 18.326 0 0 1 24.762 0l22.746 21.377h14.334l-29.99-28.051a28.8 28.8 0 0 0-9.647-5.871 28.9 28.9 0 0 0-11.167-1.72"/></svg>
