<svg width="365" height="256" viewBox="0 0 365 256" fill="none" xmlns="http://www.w3.org/2000/svg">
<path d="M201.915 138.973C225.728 138.973 248.828 147.376 266.42 163.845L365 256H317.731L242.982 186.148C231.987 175.906 217.327 170.429 201.934 170.429C186.541 170.429 171.881 175.906 160.886 186.148L86.1374 256H38.8678L137.448 163.845C155.04 147.395 178.12 138.973 201.953 138.973H201.915ZM201.915 117.046C178.102 117.046 155.003 108.643 137.411 92.1737L38.849 0H86.1186L160.867 69.8522C171.862 80.0939 186.522 85.571 201.915 85.571C217.308 85.571 231.969 80.0939 242.964 69.8522L317.712 0H364.981L266.401 92.1549C248.809 108.605 225.728 117.027 201.896 117.027L201.915 117.046Z" fill="black"/>
<path d="M119.462 128.02L16.4833 215.054C8.79608 221.994 0 218.711 0 208.47V47.5507C0 37.3092 8.79608 34.0266 16.4833 40.9669L119.462 128.001V128.02Z" fill="black"/>
</svg>
