<svg width="256" height="256" viewBox="0 0 256 256" fill="none" xmlns="http://www.w3.org/2000/svg">
<path d="M256 128C256 57.3075 198.692 0 128 0C57.3075 0 0 57.3075 0 128C0 198.692 57.3075 256 128 256C198.692 256 256 198.692 256 128Z" fill="#005741"/>
<path d="M161.3 155.764V173.152H89.4574C90.4489 161.708 94.1471 153.657 106.937 142.336L134.119 119.185L161.3 96.0335V136.665H180.869V61.913H69.5869V99.1744H89.1492V81.4503H148.266L94.1688 127.537L94.0398 127.659C71.3681 147.698 69.5652 163.873 69.5652 182.931V192.695H180.862V155.772H161.293L161.3 155.764Z" fill="white"/>
</svg>
