<svg xmlns="http://www.w3.org/2000/svg" fill="none" viewBox="0 0 256 256"><path fill="#000" d="M128 256c70.692 0 128-57.308 128-128S198.692 0 128 0 0 57.308 0 128s57.308 128 128 128"/><path fill="#03D498" fill-rule="evenodd" d="M127.779 28 79.893 55.728v49.067L37.5 129.342v55.43L85.386 212.5l42.364-24.531 42.364 24.531L218 184.772v-55.43l-42.335-24.514v-49.1zM90.937 62.097l36.842-21.333 36.842 21.333v42.692L135.76 121.5a12.14 12.14 0 0 0-7.895-2.905 12.14 12.14 0 0 0-7.965 2.964l-28.963-16.77zm24.796 69.854-30.347-17.573-36.842 21.333v42.692l36.842 21.332 36.835-21.329v-36.815a12.2 12.2 0 0 1-6.488-9.64m17.539 9.761v36.691l36.842 21.332 36.842-21.332v-42.692l-36.82-21.32-30.13 17.446c-.37 4.339-3.013 8.029-6.734 9.875" clip-rule="evenodd"/><path fill="#fff" fill-rule="evenodd" d="m175.367 105.009-47.653-27.596-47.653 27.596V160.2l47.653 27.595 47.653-27.595zm-11.867 7.082-35.649-20.653-35.65 20.653v41.306l35.65 20.653 35.649-20.653z" clip-rule="evenodd"/></svg>