<svg xmlns="http://www.w3.org/2000/svg" fill="none" viewBox="0 0 250 256"><path fill="#000" fill-rule="evenodd" d="M125.04 0 58.716 38.473v68.082L0 140.615v76.911L66.324 256 125 221.963 183.676 256 250 217.526v-76.911l-58.636-34.014V38.473zM74.012 47.311l51.028-29.6 51.027 29.6v59.236l-39.972 23.187a16.8 16.8 0 0 0-10.936-4.03 16.8 16.8 0 0 0-11.032 4.113l-40.115-23.27zm34.344 96.924-42.032-24.382-51.028 29.6v59.236l51.028 29.6 51.018-29.595v-51.082c-4.935-2.588-8.435-7.553-8.986-13.377m24.292 13.544v50.91l51.028 29.6 51.028-29.6v-59.236l-50.998-29.583-41.73 24.207c-.514 6.021-4.175 11.141-9.328 13.702" clip-rule="evenodd"/><path fill="#000" fill-rule="evenodd" d="m190.952 106.852-66.001-38.29-66.002 38.29v76.58l66.002 38.289 66.001-38.289zm-16.437 9.827-49.376-28.656-49.376 28.656v57.314l49.376 28.656 49.376-28.656z" clip-rule="evenodd"/></svg>