<svg width="250" height="256" viewBox="0 0 250 256" fill="none" xmlns="http://www.w3.org/2000/svg">
<path fill-rule="evenodd" clip-rule="evenodd" d="M125.04 0L58.7157 38.4732V106.555L0 140.615V217.526L66.3242 256L125 221.963L183.676 256L250 217.526V140.615L191.364 106.601V38.4732L125.04 0ZM74.0121 47.3111L125.04 17.7108L176.067 47.3111V106.547L136.095 129.734C133.149 127.221 129.331 125.704 125.159 125.704C120.942 125.704 117.085 127.254 114.127 129.817L74.0121 106.547V47.3111ZM108.356 144.235L66.3242 119.853L15.2963 149.453V208.689L66.3242 238.289L117.342 208.694V157.612C112.407 155.024 108.907 150.059 108.356 144.235ZM132.648 157.779V208.689L183.676 238.289L234.704 208.689V149.453L183.706 119.87L141.976 144.077C141.462 150.098 137.801 155.218 132.648 157.779Z" fill="black"/>
<path fill-rule="evenodd" clip-rule="evenodd" d="M190.952 106.852L124.951 68.5627L58.9488 106.852V183.432L124.951 221.721L190.952 183.432V106.852ZM174.515 116.679L125.139 88.023L75.7628 116.679V173.993L125.139 202.649L174.515 173.993V116.679Z" fill="black"/>
</svg>
