<svg xmlns="http://www.w3.org/2000/svg" fill="none" viewBox="0 0 251 256"><path fill="#000" fill-rule="evenodd" d="M125.265 0 58.821 38.473v68.082L0 140.615v76.911L66.444 256l58.781-34.037L184.007 256l66.443-38.474v-76.911l-58.742-34.014V38.473zm-51.12 47.311 51.12-29.6 51.119 29.6v59.236l-40.044 23.187a16.84 16.84 0 0 0-10.956-4.03c-4.225 0-8.088 1.55-11.052 4.113l-40.187-23.27zm34.406 96.924-42.107-24.382-51.12 29.6v59.236l51.12 29.6 51.109-29.595v-51.082c-4.944-2.588-8.45-7.553-9.002-13.377m24.336 13.544v50.91l51.12 29.6 51.119-29.6v-59.236l-51.09-29.583-41.805 24.207c-.514 6.021-4.182 11.141-9.344 13.702" clip-rule="evenodd"/><path fill="#000" fill-rule="evenodd" d="m191.296 106.852-66.121-38.29-66.12 38.29v76.58l66.12 38.289 66.121-38.289zm-16.467 9.827-49.465-28.656-49.465 28.656v57.314l49.465 28.656 49.465-28.656z" clip-rule="evenodd"/></svg>