<svg xmlns="http://www.w3.org/2000/svg" fill="none" viewBox="0 0 512 512"><path fill="#000" d="M256 512c141.385 0 256-114.615 256-256S397.385 0 256 0 0 114.615 0 256s114.615 256 256 256"/><path fill="#03D498" fill-rule="evenodd" d="m255.558 63-95.773 55.455v98.134L75 265.683v110.861L170.772 432l84.728-49.061L340.228 432 436 376.544V265.683l-84.671-49.027v-98.201zm-73.684 68.195 73.684-42.667 73.683 42.667v85.383L271.521 250a24.27 24.27 0 0 0-15.792-5.809 24.27 24.27 0 0 0-15.93 5.928l-57.925-33.541zm49.592 139.706-60.694-35.145-73.684 42.666v85.384l73.684 42.665 73.67-42.658v-73.63c-7.127-3.731-12.18-10.886-12.976-19.282m35.078 19.523v73.382l73.684 42.665 73.684-42.665v-85.384l-73.641-42.641-60.258 34.893c-.742 8.678-6.028 16.059-13.469 19.75" clip-rule="evenodd"/><path fill="#fff" fill-rule="evenodd" d="m350.735 217.017-95.306-55.19-95.307 55.19V327.4l95.307 55.19 95.306-55.19zM327 231.182l-71.299-41.305-71.3 41.305v82.612l71.3 41.306L327 313.794z" clip-rule="evenodd"/></svg>