<svg xmlns="http://www.w3.org/2000/svg" fill="none" viewBox="0 0 512 512"><path fill="#000" d="M256 512c141.385 0 256-114.615 256-256S397.385 0 256 0 0 114.615 0 256s114.615 256 256 256"/><path fill="#fff" fill-rule="evenodd" d="M207.456 158.261Q185.467 143 154.875 143q-30.591 0-52.58 15.261-21.988 14.943-33.142 41.331Q58 225.982 58 260t11.153 60.408q11.154 26.388 33.142 41.649Q124.284 377 154.875 377q30.593 0 52.581-14.943 21.988-15.261 33.141-41.649 11.154-26.39 11.154-60.408t-11.154-60.408q-11.153-26.388-33.141-41.331m-24.976 39.182q-10.683-11.204-27.605-11.204-22.625 0-34.416 20.03-11.472 20.03-11.472 53.731 0 21.156 4.521 36.925zm-55.412 125.089q10.866 11.229 27.807 11.229 22.626 0 34.098-20.03 11.79-20.03 11.791-53.731 0-21.222-4.675-37.021z" clip-rule="evenodd"/><path fill="#fff" d="m312.258 284.163-59.91 87.75h57.36l28.043-49.598q3.187-5.087 3.824-13.353.32-3.18 1.275-4.769.956-1.908 3.824-1.908 4.461 0 5.099 5.723v.954q.637 8.267 3.824 13.353l28.043 49.598H441l-59.91-87.75 54.811-80.12h-57.36l-22.944 41.65q-3.825 6.677-3.824 13.353 0 2.862-1.275 4.769-.956 1.908-3.824 1.908t-4.143-1.908q-.956-1.907-.956-4.769 0-6.676-3.824-13.353l-22.944-41.65h-57.36z"/></svg>