<svg xmlns="http://www.w3.org/2000/svg" fill="none" viewBox="0 0 512 512"><path fill="url(#paint0_linear_2_37)" fill-rule="evenodd" d="M388.061 475.352a257.068 257.068 0 0 0 48.813-38.188L305.023 118.168c-9.278-20.578-23.071-30.616-41.252-30.616h-14.544c-18.181 0-31.974 10.038-41.253 30.616l-71.595 173.405H82.212c-16.175.125-29.34 13.175-29.466 29.486v.377c.126 16.186 13.291 29.361 29.466 29.486h29.09l-35.813 86.604a257.072 257.072 0 0 0 48.948 38.126l50.31-124.855h52.161c16.175-.126 29.34-13.175 29.466-29.487v-.752c-.126-16.187-13.291-29.361-29.466-29.487h-27.836l57.427-143.166 131.562 327.447Z" clip-rule="evenodd"/><path fill="#000" d="M226.908 350.797h-52.161l-50.31 124.855C162.885 498.731 207.893 512 256 512c48.315 0 93.504-13.384 132.061-36.648L256.499 147.905l-57.427 143.166h27.836c16.175.126 29.34 13.3 29.466 29.487v.752c-.126 16.312-13.291 29.361-29.466 29.487Z"/><path fill="#000" d="M256 0C114.615 0 0 114.615 0 256c0 70.95 28.863 135.159 75.489 181.526l35.813-86.604h-29.09c-16.175-.125-29.34-13.3-29.466-29.486v-.377c.126-16.311 13.291-29.361 29.466-29.486h54.167l71.595-173.405c9.279-20.578 23.072-30.616 41.253-30.616h14.544c18.181 0 31.974 10.038 41.252 30.616l131.851 318.996C483.286 390.826 512 326.766 512 256 512 114.615 397.385 0 256 0Z"/><defs><linearGradient id="paint0_linear_2_37" x1="7.68" x2="463.616" y1="322.56" y2="322.56" gradientUnits="userSpaceOnUse"><stop stop-color="#2ED7E6"/><stop offset=".49" stop-color="#8EADD3"/><stop offset="1" stop-color="#B6509E"/><stop offset="1" stop-color="#FF00C3"/></linearGradient></defs></svg>