<svg xmlns="http://www.w3.org/2000/svg" fill="none" viewBox="0 0 220 323"><path fill="#000" d="M207.446 323a12.2 12.2 0 0 1-8.619-3.603 12.33 12.33 0 0 1-3.582-8.67v-35.754a12.3 12.3 0 0 0-3.574-8.678 12.17 12.17 0 0 0-8.628-3.595c-3.236 0-6.34 1.293-8.628 3.595a12.3 12.3 0 0 0-3.573 8.678v16.972a12.3 12.3 0 0 1-3.574 8.679 12.17 12.17 0 0 1-8.628 3.595c-3.236 0-6.34-1.293-8.628-3.595a12.3 12.3 0 0 1-3.574-8.679v-16.972a12.3 12.3 0 0 0-3.573-8.678 12.17 12.17 0 0 0-8.628-3.595c-3.237 0-6.34 1.293-8.629 3.595a12.3 12.3 0 0 0-3.573 8.678v4.619c0 3.258-1.287 6.382-3.577 8.685a12.17 12.17 0 0 1-8.634 3.598 12.17 12.17 0 0 1-8.634-3.598 12.32 12.32 0 0 1-3.577-8.685v-4.619c0-3.254-1.285-6.377-3.574-8.678a12.16 12.16 0 0 0-8.627-3.595c-3.236 0-6.34 1.293-8.629 3.595a12.3 12.3 0 0 0-3.573 8.678v16.972a12.3 12.3 0 0 1-3.574 8.679 12.17 12.17 0 0 1-8.628 3.595c-3.236 0-6.34-1.293-8.628-3.595a12.3 12.3 0 0 1-3.573-8.679v-16.972a12.3 12.3 0 0 0-3.574-8.678 12.17 12.17 0 0 0-8.628-3.595c-3.236 0-6.34 1.293-8.628 3.595a12.3 12.3 0 0 0-3.574 8.678v35.754a12.3 12.3 0 0 1-3.573 8.678A12.17 12.17 0 0 1 12.202 323c-3.236 0-6.34-1.293-8.628-3.595A12.3 12.3 0 0 1 0 310.727V108.079c.589-25.15 9.677-49.346 25.767-68.605 16.09-19.258 38.222-32.43 62.75-37.342A109.47 109.47 0 0 1 160.7 12.446c22.196 11.589 39.806 30.438 49.929 53.442a110.6 110.6 0 0 1 9.363 42.191.8.8 0 0 1-.359.782v201.857a12.33 12.33 0 0 1-3.571 8.674 12.18 12.18 0 0 1-8.617 3.608M97.478 140.284c-3.099 0-4.355 1.205-4.355 4.186 0 7.244 7.957 13.135 17.753 13.135s17.726-5.891 17.726-13.135c0-2.975-1.257-4.181-4.347-4.181-1.653.059-3.3.227-4.931.504l-.154.027a58 58 0 0 1-8.291.76 58 58 0 0 1-8.314-.76 37 37 0 0 0-5.087-.536m53.114-59.636c-10.801 0-19.581 10.115-19.581 22.554s8.78 22.535 19.581 22.535 19.549-10.11 19.549-22.535-8.767-22.554-19.549-22.554m-81.18 0c-10.775 0-19.55 10.115-19.55 22.554s8.775 22.535 19.55 22.535c10.774 0 19.554-10.11 19.554-22.535s-8.772-22.554-19.555-22.554"/></svg>