<svg xmlns="http://www.w3.org/2000/svg" fill="none" viewBox="0 0 512 512"><path fill="#000" d="M512 256a256 256 0 0 1-74.981 181.019 255.997 255.997 0 0 1-362.038 0A256 256 0 1 1 512 256"/><path fill="#FED955" d="M139.776 227.584h28.928v-28.928h-28.928zM139.776 285.44h28.928v-28.928h-28.928zM139.776 256.512h28.928v-28.928h-28.928zM139.776 314.368h28.928V285.44h-28.928zM255.488 169.728h28.928V140.8h-28.928zM255.488 343.296h28.928v28.928h-28.928zM284.416 169.728h28.928V140.8h-28.928z"/><path fill="#9695F8" d="M313.344 169.728h28.928V140.8h-28.928zM197.632 169.728h-28.928V140.8h28.928zM371.2 343.296h-28.928v-28.928H371.2zM139.776 343.296h28.928v-28.928h-28.928zM284.416 140.8h28.928v-28.928h-28.928z"/><path fill="#5552FD" d="M284.416 111.872h28.928V82.944h-28.928zM284.416 430.08h28.928v-28.928h-28.928z"/><path fill="#9695F8" d="M284.416 401.152h28.928v-28.928h-28.928zM226.56 140.8h28.928v-28.928H226.56z"/><path fill="#5552FD" d="M226.56 111.872h28.928V82.944H226.56zM226.56 430.08h28.928v-28.928H226.56z"/><path fill="#9695F8" d="M226.56 401.152h28.928v-28.928H226.56zM255.488 140.8h28.928v-28.928h-28.928z"/><path fill="#5552FD" d="M255.488 111.872h28.928V82.944h-28.928zM255.488 430.08h28.928v-28.928h-28.928z"/><path fill="#9695F8" d="M255.488 401.152h28.928v-28.928h-28.928zM197.632 140.8h28.928v-28.928h-28.928z"/><path fill="#5552FD" d="M197.632 111.872h28.928V82.944h-28.928zM197.632 430.08h28.928v-28.928h-28.928z"/><path fill="#9695F8" d="M197.632 401.152h28.928v-28.928h-28.928zM342.272 198.656H371.2v-28.928h-28.928zM168.704 198.656h-28.928v-28.928h28.928zM342.272 372.224h-28.928v-28.928h28.928zM168.704 372.224h28.928v-28.928h-28.928zM371.2 227.584h28.928v-28.928H371.2zM110.848 227.584h28.928v-28.928h-28.928z"/><path fill="#5552FD" d="M81.92 227.584h28.928v-28.928H81.92zM110.848 198.656h28.928v-28.928h-28.928zM400.128 198.656H371.2v-28.928h28.928zM313.344 401.152h28.928v-28.928h-28.928zM110.848 314.368v28.928h28.928v-28.928zM139.776 169.728h28.928V140.8h-28.928zM371.2 169.728h-28.928V140.8H371.2zM342.272 372.224H371.2v-28.928h-28.928zM139.776 343.296v28.928h28.928v-28.928zM168.704 140.8h28.928v-28.928h-28.928zM342.272 140.8h-28.928v-28.928h28.928zM371.2 343.296h28.928v-28.928H371.2zM168.704 372.224v28.928h28.928v-28.928zM400.128 227.584h28.928v-28.928h-28.928z"/><path fill="#9695F8" d="M371.2 256.512h28.928v-28.928H371.2zM110.848 256.512h28.928v-28.928h-28.928z"/><path fill="#5552FD" d="M81.92 256.512h28.928v-28.928H81.92zM400.128 256.512h28.928v-28.928h-28.928z"/><path fill="#9695F8" d="M371.2 285.44h28.928v-28.928H371.2zM110.848 285.44h28.928v-28.928h-28.928z"/><path fill="#5552FD" d="M81.92 285.44h28.928v-28.928H81.92zM400.128 285.44h28.928v-28.928h-28.928z"/><path fill="#9695F8" d="M371.2 314.368h28.928V285.44H371.2zM110.848 314.368h28.928V285.44h-28.928z"/><path fill="#5552FD" d="M81.92 314.368h28.928V285.44H81.92zM400.128 314.368h28.928V285.44h-28.928z"/><path fill="#FED955" d="M284.416 343.296h28.928v28.928h-28.928zM255.488 227.584h28.928v-28.928h-28.928zM255.488 285.44h28.928v-28.928h-28.928zM255.488 314.368h28.928V285.44h-28.928zM255.488 198.656h28.928v-28.928h-28.928zM255.488 314.368h28.928v28.928h-28.928zM197.632 285.44h28.928v-28.928h-28.928zM197.632 256.512h28.928v-28.928h-28.928zM197.632 314.368h28.928V285.44h-28.928zM197.632 198.656h28.928v-28.928h-28.928zM197.632 314.368h28.928v28.928h-28.928zM284.416 285.44h28.928v-28.928h-28.928zM284.416 256.512h28.928v-28.928h-28.928zM284.416 314.368h28.928V285.44h-28.928zM284.416 198.656h28.928v-28.928h-28.928zM284.416 314.368h28.928v28.928h-28.928zM226.56 169.728h28.928V140.8H226.56zM226.56 343.296h28.928v28.928H226.56zM197.632 169.728h28.928V140.8h-28.928zM197.632 343.296h28.928v28.928h-28.928zM226.56 227.584h28.928v-28.928H226.56zM226.56 285.44h28.928v-28.928H226.56z"/><path fill="#5552FD" d="M197.632 227.584h28.928v-28.928h-28.928zM255.488 256.512h28.928v-28.928h-28.928zM313.344 227.584h28.928v-28.928h-28.928zM313.344 285.44h28.928v-28.928h-28.928zM313.344 256.512h28.928v-28.928h-28.928zM313.344 314.368h28.928V285.44h-28.928zM313.344 198.656h28.928v-28.928h-28.928zM313.344 314.368h28.928v28.928h-28.928zM168.704 227.584h28.928v-28.928h-28.928zM168.704 285.44h28.928v-28.928h-28.928zM168.704 256.512h28.928v-28.928h-28.928zM168.704 314.368h28.928V285.44h-28.928zM168.704 198.656h28.928v-28.928h-28.928zM168.704 314.368h28.928v28.928h-28.928zM284.416 227.584h28.928v-28.928h-28.928zM226.56 256.512h28.928v-28.928H226.56z"/><path fill="#FED955" d="M226.56 314.368h28.928V285.44H226.56zM226.56 198.656h28.928v-28.928H226.56zM226.56 314.368h28.928v28.928H226.56zM342.272 227.584H371.2v-28.928h-28.928zM342.272 285.44H371.2v-28.928h-28.928zM342.272 256.512H371.2v-28.928h-28.928zM342.272 314.368H371.2V285.44h-28.928z"/></svg>