<svg xmlns="http://www.w3.org/2000/svg" fill="none" viewBox="0 0 512 512"><path fill="#000" d="M512 256a256 256 0 0 1-74.981 181.019 255.997 255.997 0 0 1-362.038 0A256 256 0 1 1 512 256"/><path fill="#FED955" d="M139.776 227.584h28.928v-28.928h-28.928zm0 57.856h28.928v-28.928h-28.928zm0-28.928h28.928v-28.928h-28.928zm0 57.856h28.928V285.44h-28.928zm115.712-144.64h28.928V140.8h-28.928zm0 173.568h28.928v28.928h-28.928zm28.928-173.568h28.928V140.8h-28.928z"/><path fill="#9695F8" d="M313.344 169.728h28.928V140.8h-28.928zm-115.712 0h-28.928V140.8h28.928zM371.2 343.296h-28.928v-28.928H371.2zm-231.424 0h28.928v-28.928h-28.928zM284.416 140.8h28.928v-28.928h-28.928z"/><path fill="#5552FD" d="M284.416 111.872h28.928V82.944h-28.928zm0 318.208h28.928v-28.928h-28.928z"/><path fill="#9695F8" d="M284.416 401.152h28.928v-28.928h-28.928zM226.56 140.8h28.928v-28.928H226.56z"/><path fill="#5552FD" d="M226.56 111.872h28.928V82.944H226.56zm0 318.208h28.928v-28.928H226.56z"/><path fill="#9695F8" d="M226.56 401.152h28.928v-28.928H226.56zM255.488 140.8h28.928v-28.928h-28.928z"/><path fill="#5552FD" d="M255.488 111.872h28.928V82.944h-28.928zm0 318.208h28.928v-28.928h-28.928z"/><path fill="#9695F8" d="M255.488 401.152h28.928v-28.928h-28.928zM197.632 140.8h28.928v-28.928h-28.928z"/><path fill="#5552FD" d="M197.632 111.872h28.928V82.944h-28.928zm0 318.208h28.928v-28.928h-28.928z"/><path fill="#9695F8" d="M197.632 401.152h28.928v-28.928h-28.928zm144.64-202.496H371.2v-28.928h-28.928zm-173.568 0h-28.928v-28.928h28.928zm173.568 173.568h-28.928v-28.928h28.928zm-173.568 0h28.928v-28.928h-28.928zM371.2 227.584h28.928v-28.928H371.2zm-260.352 0h28.928v-28.928h-28.928z"/><path fill="#5552FD" d="M81.92 227.584h28.928v-28.928H81.92zm28.928-28.928h28.928v-28.928h-28.928zm289.28 0H371.2v-28.928h28.928zm-86.784 202.496h28.928v-28.928h-28.928zm-202.496-86.784v28.928h28.928v-28.928zm28.928-144.64h28.928V140.8h-28.928zm231.424 0h-28.928V140.8H371.2zm-28.928 202.496H371.2v-28.928h-28.928zm-202.496-28.928v28.928h28.928v-28.928zM168.704 140.8h28.928v-28.928h-28.928zm173.568 0h-28.928v-28.928h28.928zM371.2 343.296h28.928v-28.928H371.2zm-202.496 28.928v28.928h28.928v-28.928zm231.424-144.64h28.928v-28.928h-28.928z"/><path fill="#9695F8" d="M371.2 256.512h28.928v-28.928H371.2zm-260.352 0h28.928v-28.928h-28.928z"/><path fill="#5552FD" d="M81.92 256.512h28.928v-28.928H81.92zm318.208 0h28.928v-28.928h-28.928z"/><path fill="#9695F8" d="M371.2 285.44h28.928v-28.928H371.2zm-260.352 0h28.928v-28.928h-28.928z"/><path fill="#5552FD" d="M81.92 285.44h28.928v-28.928H81.92zm318.208 0h28.928v-28.928h-28.928z"/><path fill="#9695F8" d="M371.2 314.368h28.928V285.44H371.2zm-260.352 0h28.928V285.44h-28.928z"/><path fill="#5552FD" d="M81.92 314.368h28.928V285.44H81.92zm318.208 0h28.928V285.44h-28.928z"/><path fill="#FED955" d="M284.416 343.296h28.928v28.928h-28.928zm-28.928-115.712h28.928v-28.928h-28.928zm0 57.856h28.928v-28.928h-28.928zm0 28.928h28.928V285.44h-28.928zm0-115.712h28.928v-28.928h-28.928zm0 115.712h28.928v28.928h-28.928zm-57.856-28.928h28.928v-28.928h-28.928zm0-28.928h28.928v-28.928h-28.928zm0 57.856h28.928V285.44h-28.928zm0-115.712h28.928v-28.928h-28.928zm0 115.712h28.928v28.928h-28.928zm86.784-28.928h28.928v-28.928h-28.928zm0-28.928h28.928v-28.928h-28.928zm0 57.856h28.928V285.44h-28.928zm0-115.712h28.928v-28.928h-28.928zm0 115.712h28.928v28.928h-28.928zm-57.856-144.64h28.928V140.8H226.56zm0 173.568h28.928v28.928H226.56zm-28.928-173.568h28.928V140.8h-28.928zm0 173.568h28.928v28.928h-28.928zm28.928-115.712h28.928v-28.928H226.56zm0 57.856h28.928v-28.928H226.56z"/><path fill="#5552FD" d="M197.632 227.584h28.928v-28.928h-28.928zm57.856 28.928h28.928v-28.928h-28.928zm57.856-28.928h28.928v-28.928h-28.928zm0 57.856h28.928v-28.928h-28.928zm0-28.928h28.928v-28.928h-28.928zm0 57.856h28.928V285.44h-28.928zm0-115.712h28.928v-28.928h-28.928zm0 115.712h28.928v28.928h-28.928zm-144.64-86.784h28.928v-28.928h-28.928zm0 57.856h28.928v-28.928h-28.928zm0-28.928h28.928v-28.928h-28.928zm0 57.856h28.928V285.44h-28.928zm0-115.712h28.928v-28.928h-28.928zm0 115.712h28.928v28.928h-28.928zm115.712-86.784h28.928v-28.928h-28.928zm-57.856 28.928h28.928v-28.928H226.56z"/><path fill="#FED955" d="M226.56 314.368h28.928V285.44H226.56zm0-115.712h28.928v-28.928H226.56zm0 115.712h28.928v28.928H226.56zm115.712-86.784H371.2v-28.928h-28.928zm0 57.856H371.2v-28.928h-28.928zm0-28.928H371.2v-28.928h-28.928zm0 57.856H371.2V285.44h-28.928z"/></svg>