<svg xmlns="http://www.w3.org/2000/svg" fill="none" viewBox="0 0 512 512"><path fill="#000" fill-rule="evenodd" d="M512 256c0 141.385-114.615 256-256 256S0 397.385 0 256 114.615 0 256 0s256 114.615 256 256" clip-rule="evenodd"/><path fill="#6CF9D8" d="M437 256.5C437 156.813 356.187 76 256.5 76S76 156.813 76 256.5 156.813 437 256.5 437 437 356.187 437 256.5"/><path fill="#2D2E33" fill-rule="evenodd" d="m154.407 170.987 17.591-17.591 70.297 70.297a37.2 37.2 0 0 0-11.744 7.948 37.3 37.3 0 0 0-6.589 8.9zm68.229 101.757-69.269 69.269 17.591 17.591 68.564-68.564a37.3 37.3 0 0 1-8.971-6.628 37.2 37.2 0 0 1-7.915-11.668m51.787 18.259 67.618 67.617 17.59-17.589-68.36-68.361a37.2 37.2 0 0 1-7.948 11.742 37.3 37.3 0 0 1-8.9 6.591m15.528-50.391 68.641-68.642-17.591-17.59-69.346 69.345a37.2 37.2 0 0 1 11.668 7.916 37.2 37.2 0 0 1 6.628 8.971" clip-rule="evenodd"/></svg>