<svg xmlns="http://www.w3.org/2000/svg" fill="none" viewBox="0 0 512 512"><path fill="#000" d="M256 512c141.385 0 256-114.615 256-256S397.385 0 256 0 0 114.615 0 256s114.615 256 256 256"/><path fill="#033DF5" d="M356.212 116.571q-2.05-.057-3.425.206c-5.447 1.031-10.94 1.944-16.356 3.129a2666 2666 0 0 0-40.245 9.13q-2.57.606-5.091 1.289a1944 1944 0 0 0-37.285 10.502c-4.347 1.271-9.012 2.571-12.209 3.649-20.396 6.885-40.608 14.276-60.513 22.46a146 146 0 0 0-7.528 3.33 602 602 0 0 0-18.883 9.478c-17.861 9.349-35.105 19.804-50.41 32.942a111.4 111.4 0 0 0-16.096 17.067q-1.936 2.545-2.614 3.595c-2.322 3.602-4.668 7.828-6.511 12.568q-.048.122-.134.081-1.521-3.465-2.448-7.875-.46-2.186-.455-3.766c.01-2.513-.07-5.136.27-7.521.626-4.351 1.955-8.538 3.654-12.681 1.004-2.445 2.307-4.745 3.604-7.035a62 62 0 0 1 4.823-7.262c9.366-12.155 21.26-21.93 33.933-30.535 10.068-6.835 20.549-12.878 31.307-18.58a563 563 0 0 1 17.99-9.127 161 161 0 0 1 8.521-3.831c20.178-8.376 40.716-15.895 61.43-22.866q2.025-.68 6.763-2.029c.912-.258 2.309-.778 3.496-1.089a62 62 0 0 0 1.411-.38 1871 1871 0 0 1 38.252-10.77q2.526-.684 5.09-1.284a3147 3147 0 0 1 37.911-8.608c5.537-1.224 10.892-2.151 16.353-3.188q3.205-.611 4.76-.567c11.99.328 18.596 14.169 11.415 23.617q-3.84 5.052-10.78 5.951"/><path fill="#607DF4" d="M356.212 116.571q5.927.71 9.693 4.668c5.111 5.369 5.468 13.608.769 19.362q-3.795 4.644-10.372 5.567-1.944-.11-4.24.333c-3.643.702-9.968 1.726-15.368 2.913a2964 2964 0 0 0-39.996 9.081q-2.577.603-5.093 1.281a1849 1849 0 0 0-38.817 10.934q-.292.083-1.213.317c-1.012.258-2.291.744-2.982.946-2.463.723-4.943 1.424-7.36 2.23a976 976 0 0 0-59.02 21.855 174 174 0 0 0-9.879 4.384 478 478 0 0 0-19.083 9.713q-1.51.81-3.036 1.593c-3.399 1.733-6.722 3.654-10.034 5.543-12.842 7.319-25.113 15.651-36.282 25.309a111.8 111.8 0 0 0-15.93 16.974c-2.112 2.781-3.767 5.639-5.54 8.626q-1.726 2.91-3.454 7.529a38 38 0 0 1-2.69-8.928c-.35-2.042-.265-4.241-.255-6.383q.013-2.377.29-4.291c.312-2.175.808-3.997 1.318-5.91.36-1.354.888-2.601 1.295-3.924a.37.37 0 0 0-.021-.296q.086.041.134-.081c1.843-4.74 4.19-8.966 6.511-12.568q.678-1.05 2.614-3.595a111.4 111.4 0 0 1 16.096-17.067c15.305-13.138 32.549-23.593 50.41-32.942a602 602 0 0 1 18.883-9.478 146 146 0 0 1 7.528-3.33c19.905-8.184 40.117-15.575 60.513-22.46 3.197-1.078 7.862-2.378 12.209-3.649a1944 1944 0 0 1 37.285-10.502q2.521-.683 5.091-1.289 20.085-4.72 40.245-9.13c5.416-1.185 10.909-2.098 16.356-3.129q1.374-.263 3.425-.206"/><path fill="#AFBCFA" d="M356.302 146.168q3.7.453 6.325 2.04c11.103 6.721 9.277 23.061-3.339 26.894q-.612.184-3.062.661-2.076-.076-2.787.059c-5.75 1.084-11.55 2.043-17.263 3.298a3308 3308 0 0 0-39.867 9.021q-1.145.266-3.499.902-21.325 5.757-39.799 11.186c-3.913 1.149-7.817 2.238-11.068 3.322a984 984 0 0 0-58.556 21.594 206 206 0 0 0-12.498 5.554 519 519 0 0 0-21.278 10.929c-9.22 5.008-18.216 10.284-26.916 16.129q-9.455 6.352-18.935 14.526a105 105 0 0 0-10.972 10.97q-.368.426-1.505 1.697-2.288 2.56-5.663 7.459-.774 1.128-3.26 5.484c-.914 1.603-1.741 3.394-2.442 5.12a48 48 0 0 1-.97 2.214q-1.677-3.83-2.542-8.239c-.489-2.487-.384-4.694-.373-7.103q.014-2.313.291-4.228c.318-2.189.823-3.925 1.288-5.749.362-1.427.943-2.791 1.363-4.179q1.728-4.619 3.454-7.529c1.773-2.987 3.427-5.845 5.54-8.626a111.8 111.8 0 0 1 15.93-16.974c11.169-9.658 23.44-17.99 36.282-25.309 3.312-1.889 6.635-3.81 10.034-5.543a190 190 0 0 0 3.036-1.593 478 478 0 0 1 19.083-9.713 174 174 0 0 1 9.879-4.384 976 976 0 0 1 59.02-21.855c2.417-.806 4.897-1.507 7.36-2.23.691-.202 1.97-.688 2.982-.946a52 52 0 0 0 1.213-.317 1849 1849 0 0 1 38.817-10.934q2.516-.678 5.093-1.281a2964 2964 0 0 1 39.996-9.081c5.4-1.187 11.725-2.211 15.368-2.913q2.296-.442 4.24-.333"/><path fill="#F5F3E7" d="M356.226 175.763c5.387.688 9.629 3.324 12.074 7.991 4.649 8.873-.698 19.316-10.456 21.252q-.765.153-1.566.351-1.93-.148-2.839.026c-5.619 1.073-11.295 1.996-16.879 3.223a3018 3018 0 0 0-39.534 8.95q-2.577.603-5.09 1.279a1768 1768 0 0 0-36.687 10.302q-.648.19-3.249.912-1.626.456-3.236.962c-2.532.795-5.195 1.549-7.596 2.352-20.667 6.932-41.149 14.463-61.277 22.806q-2.52 1.045-4.797 2.116a484 484 0 0 0-24.756 12.532c-.696.379-1.628.813-2.416 1.265q-1.71.98-1.779 1.017c-15.237 8.29-29.594 17.615-42.252 28.619q-8.757 7.61-15.495 16.376-4.452 5.791-7.74 12.733c-.57 1.2-1.111 2.671-1.7 4.012a37.6 37.6 0 0 1-2.7-9.08c-.326-1.981-.228-4.138-.22-6.214q.01-2.373.283-4.289.387-2.718.862-4.228c.399-1.274.667-2.461 1.166-3.782q.394-1.047.602-2.019.525-1.124.969-2.214c.701-1.726 1.528-3.517 2.442-5.12q2.486-4.356 3.26-5.484 3.375-4.9 5.663-7.459a157 157 0 0 0 1.505-1.697 105 105 0 0 1 10.972-10.97q9.48-8.174 18.935-14.526c8.7-5.845 17.696-11.121 26.916-16.129a519 519 0 0 1 21.278-10.929 206 206 0 0 1 12.498-5.554 984 984 0 0 1 58.556-21.594c3.251-1.084 7.155-2.173 11.068-3.322q18.474-5.429 39.799-11.186 2.354-.636 3.499-.902a3308 3308 0 0 1 39.867-9.021c5.713-1.255 11.513-2.214 17.263-3.298q.711-.135 2.787-.059"/><path fill="#EB3724" d="M356.278 205.357c13.588 1.359 18.641 18.102 7.893 26.429q-2.74 2.12-6.401 2.801c-5.584 1.035-11.2 2.02-16.745 3.241a2514 2514 0 0 0-39.796 9.107 164 164 0 0 0-5.088 1.292 1492 1492 0 0 0-47.23 13.629 124 124 0 0 0-4.983 1.639 1350 1350 0 0 0-23.663 8.611 746 746 0 0 0-36.87 14.946l-3.714 1.666a88 88 0 0 0-3.683 1.755 408 408 0 0 0-14.94 7.965.45.45 0 0 0-.148.169 2 2 0 0 0-.186.091q-3.738 2.062-8.868 5.206-.13.081-.149.174a.3.3 0 0 0-.15.039c-6.921 4.229-13.619 8.772-20.044 13.71l-3.325 2.656c-1.647 1.284-3.158 2.729-4.72 4.111q-3.008 2.662-8.639 8.842c-.928 1.019-1.773 2.121-2.622 3.197-2.561 3.337-5.043 7.199-5.897 11.344-.365 1.767-.255 3.62-.241 5.442q.01 1.682.338 2.888c1.24 4.548 4.71 9.021 8.093 12.225a64 64 0 0 0 7.415 6.599c6.982 5.302 14.47 9.938 22.18 14.118a66 66 0 0 0 4.707 2.302 496 496 0 0 0 34.39 13.738 99 99 0 0 0 4.988 1.627 1036 1036 0 0 0 36.558 10.17q2.506.646 5.114 1.203a2226 2226 0 0 0 33.482 6.856q2.566.505 5.167.913a2669 2669 0 0 0 34.469 5.179q2.574.37 5.209.653a8671 8671 0 0 0 40.067 4.194q2.172.223 3.073.702c2.29 1.214 2.913 4.361 1.292 6.49-1.342 1.762-2.873 1.811-4.88 1.679a8678 8678 0 0 1-45.874-3.179q-2.625-.19-5.235-.473a6288 6288 0 0 1-41.961-4.725 128 128 0 0 1-5.201-.709 2321 2321 0 0 1-36.056-5.96q-2.606-.452-5.153-1.016c-12.138-2.695-24.268-5.479-36.303-8.6q-2.559-.663-5.049-1.435c-11.25-3.485-22.431-7.256-33.411-11.508a75 75 0 0 1-4.82-2.063 255 255 0 0 1-19.907-10.508q-7.266-4.252-12.435-8.415-2.624-2.111-6.317-5.962-5.742-5.988-9.004-11.88c-2.238-4.042-3.656-7.776-4.57-12.236-.536-2.62-.45-5.193-.392-7.773q.055-2.44.439-4.647.625-3.6 1.474-6.009.83-2.357 1-3.018c.589-1.341 1.13-2.812 1.7-4.012q3.288-6.942 7.74-12.733 6.738-8.766 15.495-16.376c12.658-11.004 27.015-20.329 42.252-28.619q.069-.037 1.779-1.017c.788-.452 1.72-.886 2.416-1.265a484 484 0 0 1 24.756-12.532 114 114 0 0 1 4.797-2.116c20.128-8.343 40.61-15.874 61.277-22.806 2.401-.803 5.064-1.557 7.596-2.352q1.61-.506 3.236-.962 2.601-.721 3.249-.912 18.286-5.348 36.687-10.302 2.513-.675 5.09-1.279a3018 3018 0 0 1 39.534-8.95c5.584-1.227 11.26-2.15 16.879-3.223q.909-.174 2.839-.026"/><path fill="#033DF5" d="M183.395 287.052q.801.269 1.536.531.864.308 1.545.512a1087 1087 0 0 0 38.357 10.686q2.51.653 5.111 1.204a2594 2594 0 0 0 34.325 7.014q1.989.395 2.884.533a3936 3936 0 0 0 36.119 5.442q1.245.183 2.496.317a6619 6619 0 0 0 42.656 4.484q2.037.208 2.861.636 1.445.754 1.986 2.355c.908 2.674-.66 5.357-3.454 5.902q-.528.105-1.955.005-22.794-1.556-45.583-3.181a147 147 0 0 1-5.229-.47 5863 5863 0 0 1-42.26-4.748 133 133 0 0 1-5.204-.707 2302 2302 0 0 1-36.447-6.025c-5.49-.951-10.94-2.347-16.37-3.581a989 989 0 0 1-24.522-5.9c-3.732-.948-7.512-2.23-11.268-3.355a.05.05 0 0 1-.034-.044.07.07 0 0 0-.035-.055.45.45 0 0 1 .148-.169 408 408 0 0 1 14.94-7.965 88 88 0 0 1 3.683-1.755z"/><path fill="#607DF4" d="M151.707 304.078c10.249 4.525 20.721 8.587 31.262 12.392q2.427.876 4.985 1.637a1049 1049 0 0 0 36.668 10.204q2.51.65 5.109 1.203a2347 2347 0 0 0 34.798 7.119 87 87 0 0 0 3.512.634 4234 4234 0 0 0 33.816 5.081q2.592.38 5.206.663a6177 6177 0 0 0 41.382 4.345q1.951.198 2.832.658c3.341 1.754 2.918 6.905-.914 8.095q-.772.24-2.403.133a8146 8146 0 0 1-46.335-3.225 145 145 0 0 1-5.232-.476 8669 8669 0 0 1-42.305-4.751 89 89 0 0 1-3.861-.525 2518 2518 0 0 1-36.363-6.014 118 118 0 0 1-5.156-1.008 1289 1289 0 0 1-33.551-7.857q-6.534-1.616-12.282-3.566c-.417-.14-.927-.218-1.376-.364a698 698 0 0 1-18.907-6.45 343 343 0 0 1-11.079-4.179c6.425-4.938 13.123-9.481 20.044-13.71a.3.3 0 0 1 .15-.039"/><path fill="#AFBCFA" d="M128.188 320.483a202 202 0 0 0 14.916 9.075 83 83 0 0 0 6.583 3.22 517 517 0 0 0 33.232 13.253 95 95 0 0 0 4.98 1.634 1001 1001 0 0 0 37.117 10.323q2.478.637 5.109 1.198 27.026 5.754 35.749 7.296 8.087 1.429 36.902 5.567 2.595.371 5.208.652a8583 8583 0 0 0 40.461 4.239q1.831.187 2.596.543c2.758 1.279 3.377 5.177 1.116 7.186-1.615 1.437-3.134 1.222-5.041 1.094a13402 13402 0 0 1-44.768-3.1 142 142 0 0 1-5.233-.471 7027 7027 0 0 1-38.27-4.272c-3.404-.388-6.721-.79-10.181-1.336a2234 2234 0 0 1-35.722-5.915c-5.401-.941-10.762-2.324-16.104-3.538a963 963 0 0 1-24.192-5.811q-2.602-.663-5.056-1.414a539 539 0 0 1-33.8-11.586 65 65 0 0 1-4.959-2.128 362 362 0 0 1-14.494-7.361l-2.13-2.198c.849-1.076 1.694-2.178 2.622-3.197q5.631-6.18 8.639-8.842c1.562-1.382 3.073-2.827 4.72-4.111"/><path fill="#F5F3E7" d="m112.207 336.633 2.13 2.198c7.912 8.049 18.392 14.562 28.505 20.148a90 90 0 0 0 7.36 3.635q16.461 7.207 34.217 13.51 1.791.637 2.44.829a1123 1123 0 0 0 37.304 10.409q2.511.654 5.109 1.211a2023 2023 0 0 0 34.128 6.999q2.56.504 5.172.912a2960 2960 0 0 0 33.941 5.11q2.58.374 5.211.657a7961 7961 0 0 0 40.827 4.281q1.815.187 2.616.595c3.622 1.842 2.918 7.209-1.001 8.207q-.688.174-2.122.078a9746 9746 0 0 1-45.893-3.189 140 140 0 0 1-5.233-.47 6149 6149 0 0 1-42.121-4.735 132 132 0 0 1-5.203-.71 2205 2205 0 0 1-35.599-5.874q-2.627-.454-5.156-1.005a1089 1089 0 0 1-36.587-8.631q-2.595-.658-5.053-1.42c-11.35-3.513-22.629-7.316-33.706-11.601-7.013-2.714-12.757-6.061-18.993-9.245-3.383-3.204-6.853-7.677-8.093-12.225q-.327-1.206-.338-2.888c-.014-1.822-.124-3.675.241-5.442.854-4.145 3.336-8.007 5.897-11.344"/></svg>
