<svg xmlns="http://www.w3.org/2000/svg" fill="none" viewBox="0 0 512 512"><path fill="#000" d="M256 512c141.385 0 256-114.615 256-256S397.385 0 256 0 0 114.615 0 256s114.615 256 256 256"/><path fill="url(#paint0_linear_7310_1658)" fill-rule="evenodd" d="M135.31 209.901a389 389 0 0 1-1.121-22.551c-.658-32.991 3.062-55.116 3.217-56.044l2.947-17.312 14.238 10.292c.773.542 18.925 13.737 41.577 37.766a345 345 0 0 1 8.306 9.077l-.618 1.974a334.2 334.2 0 0 0-14.432 80.305 331 331 0 0 0-36.04-30.932 371 371 0 0 0-18.074-12.575m242.271 0c.658-8.149.967-15.756 1.122-22.551.657-32.991-3.063-55.116-3.217-56.044l-2.947-17.312-14.23 10.292c-.781.542-18.933 13.737-41.585 37.766a351 351 0 0 0-8.299 9.077l.619 2.013a334.3 334.3 0 0 1 14.424 80.305 331 331 0 0 1 36.039-30.932q8.852-6.556 18.074-12.576z" clip-rule="evenodd"/><path fill="#1CDBB8" fill-rule="evenodd" d="M256.446 438.83c-87.532 4.187-175.072-69.046-186.247-233.959L69 187.327l16.287 6.64c2.877 1.16 65.166 27.008 113.804 84.53a283 283 0 0 1-.116-8.11c0-67.614 22.15-130.646 57.525-187.387 35.375 56.702 57.517 119.773 57.517 187.387 0 2.709-.039 5.433-.116 8.11 48.646-57.522 110.934-83.37 113.804-84.53l16.295-6.64-1.207 17.544c-11.175 164.913-98.722 238.153-186.262 233.959zm-19.273-72.814c-4.462 0-6.28 1.748-6.28 6.02 0 10.401 11.477 18.821 25.561 18.821 14.114 0 25.56-8.42 25.56-18.821 0-4.272-1.825-5.982-6.288-5.982-2.366.078-4.771.31-7.092.743l-.232.039a83 83 0 0 1-11.948 1.083 83 83 0 0 1-11.988-1.083 58 58 0 0 0-7.332-.774zm-45.962-41.488a20.53 20.53 0 0 1 14.54 6.02 20.6 20.6 0 0 1 4.456 6.675 20.6 20.6 0 0 1 1.56 7.875 20.57 20.57 0 0 1-12.687 19.008 20.5 20.5 0 0 1-7.869 1.561 20.53 20.53 0 0 1-14.541-6.02 20.55 20.55 0 0 1-6.016-14.549 20.56 20.56 0 0 1 12.688-19.009 20.5 20.5 0 0 1 7.869-1.561m130.439 0a20.54 20.54 0 0 1 14.545 6.017 20.57 20.57 0 0 1 6.02 14.553 20.56 20.56 0 0 1-12.693 19.01 20.5 20.5 0 0 1-7.872 1.559 20.53 20.53 0 0 1-14.54-6.02 20.55 20.55 0 0 1-6.017-14.549 20.564 20.564 0 0 1 12.688-19.009 20.5 20.5 0 0 1 7.869-1.561" clip-rule="evenodd"/><defs><linearGradient id="paint0_linear_7310_1658" x1="256" x2="256" y1="0" y2="362" gradientUnits="userSpaceOnUse"><stop stop-color="#D5FBF4" stop-opacity=".2"/><stop offset="1" stop-color="#37FFDA"/></linearGradient></defs></svg>