<svg xmlns="http://www.w3.org/2000/svg" fill="none" viewBox="0 0 512 512"><path fill="#000" fill-rule="evenodd" d="M512 256c0 141.385-114.615 256-256 256S0 397.385 0 256 114.615 0 256 0s256 114.615 256 256" clip-rule="evenodd"/><path fill="#5E65FF" d="M378.978 272.658 262.211 74.248a6.46 6.46 0 0 0-2.374-2.367 6.62 6.62 0 0 0-6.535-.041 6.46 6.46 0 0 0-2.404 2.337l-34.971 59.452a12.6 12.6 0 0 0-1.748 6.401c0 2.247.603 4.454 1.748 6.401l76.141 129.436a12.9 12.9 0 0 0 4.781 4.689 13.23 13.23 0 0 0 6.532 1.712h69.942a6.6 6.6 0 0 0 3.259-.865 6.5 6.5 0 0 0 2.387-2.344 6.31 6.31 0 0 0 .009-6.401M72.9 376.355l116.768-198.411a6.46 6.46 0 0 1 2.388-2.34 6.6 6.6 0 0 1 3.26-.856c1.144 0 2.269.295 3.26.856a6.46 6.46 0 0 1 2.387 2.34l34.989 59.399a12.66 12.66 0 0 1 1.748 6.411c0 2.249-.603 4.459-1.748 6.409l-76.14 129.436a12.9 12.9 0 0 1-4.771 4.69 13.2 13.2 0 0 1-6.525 1.711H78.557a6.6 6.6 0 0 1-3.285-.852 6.47 6.47 0 0 1-2.403-2.356 6.3 6.3 0 0 1-.869-3.223 6.3 6.3 0 0 1 .9-3.214m128.047 9.602h233.534a6.6 6.6 0 0 0 3.263-.86 6.5 6.5 0 0 0 2.386-2.348 6.3 6.3 0 0 0-.01-6.402l-34.934-59.434a12.9 12.9 0 0 0-4.781-4.689 13.25 13.25 0 0 0-6.532-1.712H241.592a13.24 13.24 0 0 0-6.531 1.712 12.9 12.9 0 0 0-4.783 4.689l-34.97 59.434a6.3 6.3 0 0 0-.01 6.402 6.47 6.47 0 0 0 2.387 2.348c.991.562 2.116.86 3.262.86"/></svg>