<svg xmlns="http://www.w3.org/2000/svg" fill="none" viewBox="0 0 512 512"><path fill="#000" d="M256 512c141.385 0 256-114.615 256-256S397.385 0 256 0 0 114.615 0 256s114.615 256 256 256"/><path fill="#585858" d="m255.986 347.962-87.461 88.281-17.492-43.714 104.953-105.923z"/><path fill="#FAF1E7" d="m81.054 347.944 87.47 88.272-17.491-43.687L46.08 286.606zM255.985 347.962l87.461 88.281 17.491-43.714-104.952-105.923z"/><path fill="#585858" d="m430.916 347.944-87.47 88.272 17.492-43.687L465.89 286.606z"/><path fill="url(#paint0_linear_222_66)" d="M46.082 286.598 255.986 74.752l209.905 211.846-104.954 105.924-104.952-105.923-104.951 105.922z"/><defs><linearGradient id="paint0_linear_222_66" x1="46.085" x2="465.891" y1="233.635" y2="233.635" gradientUnits="userSpaceOnUse"><stop stop-color="#FAF1E7"/><stop offset=".26" stop-color="#FDCEAA"/><stop offset=".612" stop-color="#F4837D"/><stop offset="1" stop-color="#B9AAFD"/></linearGradient></defs></svg>