<svg xmlns="http://www.w3.org/2000/svg" fill="none" viewBox="0 0 512 512"><path fill="#000" fill-rule="evenodd" d="M512 256c0 141.385-114.615 256-256 256S0 397.385 0 256 114.615 0 256 0s256 114.615 256 256Z" clip-rule="evenodd"/><path fill="#4196F4" fill-rule="evenodd" d="M279.027 85.53 391.76 145.4c17.295 10.404 33.489 22.526 34.24 58.252v28.656h-44.315v-39.186L256.951 126.02l-125.649 67.102v39.198H87v-28.668c.676-35.538 16.745-47.735 33.928-58.064l113.909-60.12A47.12 47.12 0 0 1 256.933 80a47.172 47.172 0 0 1 22.094 5.53Zm.062 293.568 102.534-57.513v-42.846h44.302v28.606c-.676 35.726-16.92 47.91-34.228 58.252l-112.67 59.869a47.122 47.122 0 0 1-44.19.063l-113.922-60.12C103.745 355.067 87.751 342.82 87 307.345v-28.606h44.377v42.846l103.46 57.575v-46.506c-36.093-8.474-59.771-37.819-59.771-77.193 0-47.66 32.889-79.663 81.897-79.663s81.884 32.003 81.884 79.663c0 39.311-23.728 68.719-59.758 77.205v46.432Zm-22.138-164.114c-26.281 0-40.736 14.353-40.736 40.489 0 25.372 15.205 40.49 40.736 40.49 25.53 0 40.723-15.168 40.723-40.49 0-26.136-14.455-40.489-40.723-40.489Z" clip-rule="evenodd"/></svg>