<svg xmlns="http://www.w3.org/2000/svg" fill="none" viewBox="0 0 512 512"><path fill="#000" fill-rule="evenodd" d="M512 256c0 141.385-114.615 256-256 256S0 397.385 0 256 114.615 0 256 0s256 114.615 256 256" clip-rule="evenodd"/><path fill="#FED702" d="M219.331 404.831c-2.985-2.462-2.985-7.091 0-9.552 10.155-8.37 23.074-13.39 37.164-13.39s27.009 5.02 37.163 13.39c2.986 2.461 2.986 7.09 0 9.552-10.154 8.371-23.082 13.391-37.163 13.391s-27.009-5.02-37.164-13.391m-19.638-17.961-37.03-37.682c-3.522-3.584-3.426-9.494.307-12.834 25.877-23.196 58.741-35.864 93.535-35.864s67.658 12.668 93.533 35.864c3.734 3.351 3.82 9.259.308 12.834l-37.031 37.682c-3.109 3.164-8.1 3.526-11.517.702-12.785-10.537-28.602-16.271-45.284-16.271s-32.499 5.723-45.284 16.271a8.3 8.3 0 0 1-5.327 1.915 8.73 8.73 0 0 1-6.21-2.617m102.086-188.26c3.417-2.823 8.408-2.462 11.517.713l37.04 37.68c3.522 3.585 3.427 9.495-.307 12.834-25.866 23.198-58.741 35.865-93.534 35.865s-67.658-12.667-93.534-35.865c-3.734-3.349-3.83-9.258-.307-12.834l37.029-37.68c3.11-3.165 8.101-3.526 11.518-.713 12.785 10.539 28.603 16.262 45.284 16.262 16.692.01 32.51-5.723 45.294-16.262m-75.25-141.388-.105.048c-20.761 8.723-37.001 25.844-44.843 47.253l-67.283 185.262c-3.407 7.969-5.298 16.751-5.298 25.99 0 21.126 9.867 39.889 25.157 51.823a28 28 0 0 1 3.023 2.736c.47.488.95.976 1.449 1.455l75.336 70.488c8.005 7.776 17.882 13.265 28.632 15.921a61.75 61.75 0 0 0 29.619 0c10.76-2.656 20.626-8.145 28.632-15.921l75.335-70.488c2.209-2.138 4.177-4.199 6.279-6.69.306-.362.623-.713.959-1.055C395.534 351.503 404 334.83 404 315.785c0-4.884-.539-9.64-1.537-14.211a23 23 0 0 0-.806-2.764l-68.704-194.404c-7.831-21.34-24.014-38.413-44.699-47.136A79.4 79.4 0 0 0 257.34 51a79.4 79.4 0 0 0-30.811 6.222"/></svg>
