<svg xmlns="http://www.w3.org/2000/svg" fill="none" viewBox="0 0 512 512"><path fill="#000" d="M256 512c141.385 0 256-114.615 256-256S397.385 0 256 0 0 114.615 0 256s114.615 256 256 256"/><path fill="#D36CF5" d="M393.474 243.541a378 378 0 0 0-10.893-2.147 135.3 135.3 0 0 0-5.57-25.071c49.02 7.862 80.717 20.363 80.717 34.441q0 .236-.013.471c-1.168 23.58-91.261 42.62-202.228 42.62-111.693 0-202.239-19.291-202.239-43.084q0-.22.01-.439c.65-14.066 32.937-26.518 82.429-34.282a135 135 0 0 0-5.622 25.043 382 382 0 0 0-12.563 2.448 281 281 0 0 0-14.387 3.44v.007c-4.641 1.248-8.775 2.516-12.402 3.78 7.027 2.449 15.957 4.911 26.789 7.219 3.669.782 7.5 1.535 11.482 2.254v.006c33.469 6.052 77.637 9.837 126.503 9.837 49.668 0 94.482-3.91 128.14-10.136v-.006c3.398-.628 6.684-1.28 9.847-1.955 10.836-2.309 19.77-4.772 26.798-7.223-7.028-2.45-15.962-4.914-26.798-7.223m14.378-67.088q.008-.17.008-.337c0-12.703-33.855-23.708-83.23-29.071 11.75 7.762 22.191 17.467 30.899 28.678q.96.194 1.902.393-.685.144-1.378.286l.004.006c-25.157 5.154-60.261 8.496-99.646 8.496-39.482 0-74.661-3.358-99.831-8.534l.005-.007a156 156 0 0 1-1.193-.247 249 249 0 0 1 1.647-.341c8.706-11.22 19.145-20.932 30.897-28.702-49.236 5.374-82.974 16.362-82.974 29.043v.006c0 15.868 73.322 28.481 122.743 31.968 11.057.78 28.374.836 28.374.836 6.112.264 17.243-.048 28.256-.804 49.69-3.415 122.787-15.889 123.517-31.669m-302.89 164.338c0-8.3 14.453-15.874 38.242-21.624a132.7 132.7 0 0 0 13.369 21.378q-.594.122-1.181.246.81.17 1.632.338l.106.138h.544c25.089 5.05 59.824 8.311 98.737 8.311s73.648-3.261 98.737-8.311h.329l.067-.086a282 282 0 0 0 1.887-.39q-.678-.143-1.367-.284a133 133 0 0 0 13.363-21.386c23.903 5.755 38.433 13.348 38.433 21.67q0 .238-.016.476c-1.169 17.761-68.52 32.082-151.433 32.082s-150.264-14.321-151.433-32.082a7 7 0 0 1-.016-.476"/></svg>
