<svg xmlns="http://www.w3.org/2000/svg" fill="none" viewBox="0 0 405 227"><path fill="#000" d="M340.226 96.496a376 376 0 0 0-10.893-2.147 135.3 135.3 0 0 0-5.57-25.07c49.02 7.86 80.717 20.362 80.717 34.44q0 .235-.013.471c-1.168 23.58-91.261 42.62-202.228 42.62C90.546 146.81 0 127.519 0 103.726q0-.22.01-.439c.65-14.066 32.937-26.518 82.43-34.282a135 135 0 0 0-5.622 25.043 381 381 0 0 0-12.563 2.448 281 281 0 0 0-14.387 3.44v.006c-4.641 1.249-8.775 2.517-12.402 3.781 7.027 2.449 15.957 4.911 26.789 7.219 3.668.782 7.5 1.535 11.482 2.254v.006c33.469 6.052 77.637 9.837 126.503 9.837 49.668 0 94.482-3.91 128.14-10.136v-.006c3.398-.628 6.684-1.28 9.847-1.955 10.836-2.309 19.77-4.772 26.798-7.223-7.028-2.45-15.962-4.914-26.798-7.223m14.377-67.088q.008-.17.008-.337c0-12.703-33.855-23.708-83.23-29.071 11.75 7.762 22.191 17.467 30.899 28.678q.96.194 1.902.393l-1.378.286.004.006c-25.157 5.154-60.261 8.496-99.646 8.496-39.482 0-74.661-3.358-99.831-8.534l.005-.006q-.601-.123-1.193-.248.817-.172 1.647-.341c8.706-11.22 19.145-20.932 30.897-28.702C85.452 5.402 51.715 16.39 51.715 29.071v.006c0 15.868 73.321 28.48 122.742 31.968 11.057.78 28.374.836 28.374.836 6.112.264 17.243-.048 28.256-.804 49.69-3.415 122.787-15.89 123.517-31.67M51.715 193.746c0-8.3 14.452-15.874 38.241-21.624a132.7 132.7 0 0 0 13.369 21.378q-.594.121-1.181.246.81.17 1.632.338l.106.138h.544c25.089 5.05 59.824 8.311 98.737 8.311s73.648-3.261 98.737-8.311h.329l.067-.087q.952-.192 1.887-.389-.678-.143-1.367-.284a133 133 0 0 0 13.363-21.386c23.903 5.755 38.433 13.348 38.433 21.67q0 .238-.016.476c-1.169 17.761-68.52 32.082-151.433 32.082S52.899 211.983 51.73 194.222a7 7 0 0 1-.015-.476"/></svg>
