<svg xmlns="http://www.w3.org/2000/svg" fill="none" viewBox="0 0 512 512"><path fill="#000" d="M256 512c141.385 0 256-114.615 256-256S397.385 0 256 0 0 114.615 0 256s114.615 256 256 256Z"/><path fill="#606FDE" fill-rule="evenodd" d="M286.914 158.696h62.255v28.732h-60.063v86.197s.974 46.507 0 87.414c-.975 40.907-33.137 80.305-79.188 80.305s-80.894-33.554-80.894-80.305c0-46.75 37.522-79.378 79.919-79.378 30.458 0 45.32 14.122 45.32 14.122V187.428H231.36v-28.732h22.903V139.46c0-42.367 39.229-60.63 56.528-61.603 15.838-1.411 34.843-1.962 50.681 1.948v31.571c-21.3-6.946-28.364-6.263-38.469-5.287-.876.085-1.775.172-2.709.256-13.401 1.211-33.38 15.584-33.38 34.82v17.531Zm-76.693 247.846c25.837 0 46.782-20.931 46.782-46.751 0-25.82-20.945-46.751-46.782-46.751-25.837 0-46.782 20.931-46.782 46.751 0 25.82 20.945 46.751 46.782 46.751Z" clip-rule="evenodd"/></svg>