<svg xmlns="http://www.w3.org/2000/svg" fill="none" viewBox="0 0 512 512"><path fill="#000" fill-rule="evenodd" d="M512 256c0 141.385-114.615 256-256 256S0 397.385 0 256 114.615 0 256 0s256 114.615 256 256" clip-rule="evenodd"/><path fill="#fff" fill-rule="evenodd" d="m288.225 102.094 3.667-6.371L252.768 67c-4.875.413-14.822 1.368-15.605 1.886-.782.518 33.716 22.354 51.062 33.208m16.933-8.398-6.844 4.532c-13.646-9.924-40.365-29.927-38.076-30.543 2.291-.615 12.928 1.014 17.734 1.774zm4.946 1.183h9.431l-16.884-22.05c-5.626-1.438-17.306-4.197-19.024-3.736-1.717.462 16.659 17.27 26.477 25.786m11.527-2.102 9.43.92-5.763-12.283-18.861-6.355zm6.327-11.363 6.247 13.465 18.868.845c-23.594-13.662-25.115-14.31-25.115-14.31m-48.111 19.469-3.406 5.916c-24.642-11.842-63.733-33.264-63.733-33.264.663-1.151 11.085-3.492 15.745-4.232zm-13.228 10.434 3.667-4.518-64.442-33.042-14.607 5.548zm-4.192 2.745-2.189 5.137-90.229-30.342 12.57-6.071zm-12.05 12.494 2.391-5.494-90.934-28.285-11.003 8.106zm-4.715 2.941-2.096 4.941-110.548-20.376 10.479-9.051zm-8.499 14.925.237-5.255-112.765-18.105-7.335 8.435zm-5.788 4.204v4.729l-128.745-6.059 6.288-9.486zm-6.67 15.239 1.047-4.729-130.456-3.154-4.716 8.933zm-5.24 5.582-.996 4.884L80.626 185.97l3.143-10.019zm-5.641 16.523 1.45-4.621-140.412 15.62-1.73 9.313zm-75.036 131.336L149.791 311l-4.716 8.408zm53.43-94.067L73.411 261.913l-6.399-13.967c0 27.325 1.572 33.63 1.572 33.63l7.26-14.043.53.93 116.279-40.725zM75.919 271.592l5.763 7.882-8.907 24.698-4.19-19.968zm7.335 11.035 3.062 3.63-2.421-4.375 99.314-40.496 1.674 3.397-97.814 42.367 1.948 2.308c-2.445 12.787-7.65 38.045-8.907 36.784s-4.715-12.787-6.287-18.392zm16.243 19.344-1.65-2.316c-1.782 17.029-5.606 49.263-7.258 47.606-1.677-1.681-5.589-11.736-7.335-16.29l7.335-35.732 6.397 3.208-1.17-1.641 78.065-36.26 1.605 4.569zm-.525 3.777h7.335c-.699 20.494-2.306 61.376-3.144 60.956s-6.636-8.583-9.43-12.612zm17.289 7.882h-6.811l-1.572 60.43c2.969 3.679 10.202 11.561 11.527 11.561 0 0-1.048-44.665-3.144-71.991m4.192 4.204 6.287-.525 8.383 84.076-10.479-9.458zm16.765 3.679h-5.762l11.002 85.653 11.526 7.882zm5.24 3.152h6.287l26.196 101.418-11.526-5.255zm16.765 1.577-4.715 1.051 29.864 103.519 12.05 4.204zm7.335 2.628 4.192-1.577 48.201 114.029-11.002-1.577zm16.242-1.577-5.239 1.577 53.44 115.079h10.479zm7.335 1.577h6.287L264.008 445h-9.954zm17.814-1.577-4.716 1.577 73.874 115.079 9.43-1.576zm9.43 0 4.715-1.051 86.448 110.35-8.907 3.153zm15.72 1.059 4.191-2.102 92.211 102.468-7.859 3.679zm106.356-11.054-4.191 1.576 35.626 23.647v-6.831zm-30.388 5.255 3.144-3.679 61.299 40.988-2.62 5.78zm-19.909-1.577-2.096 3.153 79.113 62.532 3.144-5.254zm-23.052 4.205 3.667-2.628 89.591 77.771-3.668 6.306zm-17.814 1.576 3.668-2.628 95.782 93.968 8.185-11.53 15.919-.688s-4.669 4.508-28.292 18.118l3.937-5.546-5.941 4.468zm-42.45-127.682.281-4.691-136.5 24.66-.754 8.665zm-5.241 13.654-.435-4.499L67 241.386l.94 7.826zm-35.94 70.188-.735 4.428-42.437 26.167-5.898-3.416zm171.652-28.874 3.257 3.577 54.375-130.01-6.811-3.679zm10.523 14.397-3.712-3.316 59.203-125.953 6.288 6.306zm3.099 5.779 3.144 4.855 68.934-115.206-6.587-7.882zm9.626 14.113-3.339-2.553 68.634-107.723 4.716 9.459zm.919 5.923 3.025 5.187 72.978-89.857-4.252-11.561zm8.091 14.125-3.257-3.577 75.511-86.533 2.368 12.574zm.599 6.321 3.132 5.467L445 254.043l-1.198-12.642zm5.886 16.607-2.871-5.012 72.515-61.172-1.073 13.95zm-1.285 6.194 3.585 5.207 61.969-40.552 2.958-13.825zm5.432 16.87-3.393-5.924c22.58-15.433 60.673-38.594 60.673-38.594.66 1.153-2.551 11.369-4.252 15.784zm-5.249 6.66 3.654 6.379 44.405-19.524c2.091-4.437 6.26-13.546 6.206-14.484s-36.199 18.028-54.265 27.629m-1.256 18.904-.474-8.211c15.407-6.857 46.068-19.998 45.449-17.702s-7.362 10.706-10.43 14.494zm-4.215 4.246-3.035 8.415 26.504-4.362c4.063-4.159 12.304-12.907 12.769-14.629s-23.966 6.333-36.238 10.576m-4.978 11.352-3.944 8.939 14.557.097 15.175-13.592zm-30.861-151.269-3.904-2.598 41.627-132.45 7.094 5.003zm-23.052-27.823 4.098 1.881 25.241-122.74h-6.811zm9.954 14.188 4.098 1.881 36.538-132.307-7.221-3.112zm-16.584-32.779-3.77-.253 11.019-102.016h7.763zM286.048 181.9l4.746.901 6.308-83.188-6.303.601zm-8.941-18.541H271.2v-51.527l5.907-3.403zm-18.865-38.36v12.612l-5.764-6.831z" clip-rule="evenodd"/></svg>
