<svg xmlns="http://www.w3.org/2000/svg" fill="none" viewBox="0 0 320 267"><path fill="#000" d="M235.387 163.097c50.36 9.305 84.613 27.621 84.613 48.701C320 242.303 248.36 267 160 267S0 242.289 0 211.798c0-21.08 34.267-39.396 84.613-48.701 21.88 5.687 47.72 8.958 75.387 8.958s53.507-3.271 75.387-8.945zm-19.28-89.405c42.773 7.129 72.24 22.12 72.24 39.489 0 24.231-57.467 43.882-128.347 43.882S31.653 137.412 31.653 113.181c0-17.355 29.467-32.36 72.24-39.489 16.44 4.179 35.614 6.568 56.107 6.568s39.667-2.403 56.107-6.568M160.587 0c53.08 0 96.12 14.872 96.12 33.228 0 18.343-43.04 33.215-96.12 33.215s-96.12-14.872-96.12-33.215C64.467 14.872 107.507 0 160.587 0"/></svg>