<svg xmlns="http://www.w3.org/2000/svg" fill="none" viewBox="0 0 512 512"><path fill="#000" d="M256 512c141.385 0 256-114.615 256-256S397.385 0 256 0 0 114.615 0 256s114.615 256 256 256Z"/><path fill="#fff" d="M153.702 141.374v-24.402c.314-17.848 9.724-31.896 25.198-37.857a43.311 43.311 0 0 1 48.374 10.458 37.301 37.301 0 0 1 10.455 25.761v25.482c7.703 1.569 15.161.523 22.549.732 7.389.209 14.394 0 22.027 0 .83-6.659 1.04-13.381.627-20.079a64.644 64.644 0 0 1 1.429-14.92 40.507 40.507 0 0 1 14.456-21.917 40.492 40.492 0 0 1 24.857-8.446c20.353-.313 37.047 11.26 41.822 29.143a64.822 64.822 0 0 1 1.707 15.757v18.998c1.917 2.37 4.322 1.499 6.413 1.499h47.642a38.37 38.37 0 0 1 9.131.697 17.92 17.92 0 0 1 14.499 15.304 46.348 46.348 0 0 1-1.011 19.068 93.12 93.12 0 0 1-19.656 38.345 323.748 323.748 0 0 1-29.764 29.317c-3.067 2.789-6.168 5.647-8.991 8.715a22.136 22.136 0 0 0-6.03 15.896c.209 34.546.279 69.126 0 103.707a93.72 93.72 0 0 1-20.594 57.941 93.681 93.681 0 0 1-52.071 32.694 98.3 98.3 0 0 1-22.34 2.545c-19.238 0-38.337.244-57.68 0a93.806 93.806 0 0 1-60.785-22.564 93.844 93.844 0 0 1-31.641-56.602 110.614 110.614 0 0 1-1.15-18.337c0-31.791-.558-63.583 0-95.34a30.403 30.403 0 0 0-10.456-24.402 9507.962 9507.962 0 0 1-26.313-24.402 103.08 103.08 0 0 1-25.372-37.787 58.163 58.163 0 0 1-4.461-23.6c.418-14.363 7.284-21.265 21.957-21.404h65.172Zm65.347 41.378a6.617 6.617 0 0 0-5.402-1.359h-63.5c-4.371 0-7.613.856-9.764 2.62-2.891 2.372-3.811 6.383-2.852 12.16a41.374 41.374 0 0 0 11.327 22.833l1.211 1.231c4.269 4.339 8.56 8.7 13.113 12.713a27.892 27.892 0 0 1 9.723 22.903c-.278 12.794-.186 25.558-.093 38.363.047 6.418.093 12.846.093 19.294v56.019a54.764 54.764 0 0 0 16.334 40.296 54.74 54.74 0 0 0 40.544 15.689c11.297-.416 22.594-.336 33.898-.255 7.633.055 15.269.109 22.91.011a53.816 53.816 0 0 0 49.141-34.128c.393-.984.748-1.972 1.069-2.963 4.124-12.721 2.61-25.881 2.416-38.171-78.346-29.386-120.168-83.802-120.168-167.256Zm99.676 122.357a17.846 17.846 0 0 0 12.617-30.469 17.84 17.84 0 0 0-25.235 0 17.853 17.853 0 0 0 0 25.241 17.838 17.838 0 0 0 12.618 5.228Zm20.283-163.84c0-9.028.349-17.43 0-26.179a12.638 12.638 0 0 0-.605-3.346c-1.54-4.64-5.832-7.193-11.837-7.565-8.434-.488-14.324 2.858-15.056 9.83a132.014 132.014 0 0 0-.01 27.156l.01.104h27.498Zm-130.38 0c.419-.801.872-1.255.872-1.743 0-1.069.008-2.14.022-3.211.028-2.244.081-4.491.134-6.738l.023-.971c.07-2.998.134-5.995.134-8.985a26.205 26.205 0 0 0-.766-6.658c-1.573-5.843-6.369-9.055-13.134-9.035-.58.001-1.175.027-1.783.076-6.97.558-11.78 4.532-12.059 11.225-.254 5.669-.171 11.337-.086 17.108.043 2.923.086 5.873.086 8.863h.02l26.537.069Z"/><path fill="#fff" d="M225.949 287.54a17.814 17.814 0 0 1-13.036 16.883 17.808 17.808 0 0 1-22.27-13.853 17.814 17.814 0 0 1 17.602-21.122 17.412 17.412 0 0 1 6.912 1.304 17.43 17.43 0 0 1 10.792 16.788Z"/><path fill="#030202" fill-rule="evenodd" d="M140.383 184.013c-2.974 2.357-3.927 6.384-2.957 12.23a41.387 41.387 0 0 0 11.327 22.833c.811.81 1.621 1.625 2.433 2.442 3.868 3.888 7.772 7.814 11.891 11.502a27.881 27.881 0 0 1 9.724 22.902c-.186 12.876-.124 25.675-.062 38.468.031 6.395.062 12.789.062 19.19v56.019a54.771 54.771 0 0 0 35.054 52.37 54.757 54.757 0 0 0 21.928 3.615c11.083-.409 22.166-.327 33.256-.245 7.847.058 15.696.116 23.552.001a53.81 53.81 0 0 0 49.141-34.128c.395-1.008.75-2.019 1.069-3.033a47.191 47.191 0 0 1-1.069 2.963 53.816 53.816 0 0 1-49.141 34.128c-7.641.098-15.277.044-22.91-.011-11.304-.081-22.601-.161-33.898.255a54.749 54.749 0 0 1-52.88-34.146 54.764 54.764 0 0 1-3.998-21.839V313.51c0-6.448-.046-12.876-.093-19.294-.093-12.805-.185-25.569.093-38.363a27.895 27.895 0 0 0-9.723-22.903c-4.553-4.013-8.844-8.374-13.113-12.713l-1.211-1.231a41.374 41.374 0 0 1-11.327-22.833c-.959-5.777-.039-9.788 2.852-12.16Zm72.53 120.41a17.444 17.444 0 0 1-5.121.547 17.81 17.81 0 0 1-16.961-21.681 17.8 17.8 0 0 1 2.884-6.471 17.814 17.814 0 0 0 10.745 27.871c2.807.593 5.706.498 8.453-.266Zm1.828-33.835a17.81 17.81 0 0 1 10.7 12.058 17.434 17.434 0 0 0-10.7-12.058ZM181.967 141.2h.124-.02c0-2.99-.043-5.94-.086-8.863-.085-5.771-.168-11.439.086-17.108.279-6.693 5.089-10.667 12.059-11.225a22.707 22.707 0 0 1 1.783-.076c6.71.014 11.464 3.222 13.029 9.035a26.17 26.17 0 0 1 .767 6.589c0 2.898 0 5.802-.027 8.707l-.003.347-.023.971a607.155 607.155 0 0 0-.134 6.738 234.952 234.952 0 0 1-.127 3.142c.073.341-.126.665-.396 1.103-.116.189-.245.398-.371.64m102.847-.035h.025c-.93-9.028-.927-18.128.01-27.156.732-6.972 6.622-10.318 15.056-9.83 6.005.372 10.297 2.925 11.837 7.565-1.509-4.715-5.821-7.324-11.872-7.67-8.434-.627-14.324 2.859-15.056 9.83-.94 9.063-.94 18.198 0 27.261Z" clip-rule="evenodd"/></svg>