<svg xmlns="http://www.w3.org/2000/svg" fill="none" viewBox="0 0 327 327"><path fill="#000" d="M163.544 260.703h-.333a97.7 97.7 0 0 1-72.777-32.548c-35.84-40.105-32.347-101.877 7.753-137.703a97.34 97.34 0 0 1 64.922-24.799 97.7 97.7 0 0 1 72.777 32.549c24.097 26.971 30.383 63.744 19.748 95.835l43.828 58.88c39.771-60.306 35.781-142.047-14.629-198.458C252.603 18.38 207.953-.004 163.105 0A162.56 162.56 0 0 0 54.451 41.512C-12.745 101.548-18.542 204.69 41.483 271.89c32.23 36.078 76.88 54.47 121.735 54.47a163.4 163.4 0 0 0 45.1-6.371c-1.689-1.792-44.774-59.286-44.774-59.286"/><path fill="#000" d="m324.133 326.02-86.305-115.957-1.997-2.688a62 62 0 0 0-1.829-2.132 65 65 0 0 0-4.973-5 72 72 0 0 0-2.487-2.143 58 58 0 0 0-1.383-1.097l-1.426-1.097a75 75 0 0 0-3.13-2.194c-9.893-6.583-24.24-12.603-43.52-12.603H134.47l.153.209-.153.117 88.301 118.67a62 62 0 0 0 1.829 2.136 66 66 0 0 0 4.974 4.999 71 71 0 0 0 2.486 2.14q.67.548 1.383 1.097l1.422 1.097a81 81 0 0 0 3.135 2.194c9.874 6.561 24.236 12.599 43.52 12.599h42.613l-.154-.208z"/></svg>