<svg xmlns="http://www.w3.org/2000/svg" fill="none" viewBox="0 0 512 512"><path fill="#000" fill-rule="evenodd" d="M512 256c0 141.385-114.615 256-256 256S0 397.385 0 256 114.615 0 256 0s256 114.615 256 256" clip-rule="evenodd"/><path fill="#7E6DCE" d="M255.458 356.019a61.78 61.78 0 0 0 43.691-18.104 61.82 61.82 0 0 0 0-87.414 61.78 61.78 0 0 0-43.691-18.104 61.78 61.78 0 0 0-43.692 18.104 61.82 61.82 0 0 0 0 87.414 61.78 61.78 0 0 0 43.692 18.104M102 265.957V97.933a34.97 34.97 0 0 1 10.238-24.696A34.94 34.94 0 0 1 136.928 63a16.6 16.6 0 0 1 11.699 4.86 16.62 16.62 0 0 1 4.872 11.697v97.157a154.93 154.93 0 0 1 75.987-35.881v40.835a16.85 16.85 0 0 1-10.987 15.673 103.88 103.88 0 0 0-59.217 58.038 16.7 16.7 0 0 1-5.803 7.405 16.35 16.35 0 0 1-9.671 3.192z"/><path fill="#fff" d="M410.908 299.542a155.67 155.67 0 0 1-43.641 102.997 155.57 155.57 0 0 1-101.428 47.111 155.55 155.55 0 0 1-106.817-33.114A155.65 155.65 0 0 1 102 320.305h40.789a16.53 16.53 0 0 1 9.371 2.869 16.53 16.53 0 0 1 6.103 7.67 103.76 103.76 0 0 0 29.269 42.088 103.7 103.7 0 0 0 97.06 21.104 103.7 103.7 0 0 0 44.092-26.137 103.76 103.76 0 0 0 26.198-44.065 103.8 103.8 0 0 0 1.908-51.235 103.8 103.8 0 0 0-22.85-45.893 103.7 103.7 0 0 0-42.027-29.345 16.64 16.64 0 0 1-10.638-15.635v-40.893a155.64 155.64 0 0 1 94.602 55.006 155.74 155.74 0 0 1 35.037 103.697z"/></svg>