<svg xmlns="http://www.w3.org/2000/svg" fill="none" viewBox="0 0 512 512"><g clip-path="url(#clip0_5787_1116)"><rect width="512" height="512" fill="#000" rx="256"/><mask id="mask0_5787_1116" width="676" height="337" x="-82" y="120" maskUnits="userSpaceOnUse" style="mask-type:alpha"><path fill="#C4C4C4" d="M594 120H-82v336.144h676z"/></mask><g mask="url(#mask0_5787_1116)"><mask id="mask1_5787_1116" width="673" height="930" x="-80" y="125" maskUnits="userSpaceOnUse" style="mask-type:alpha"><path fill="#E9BCFF" fill-rule="evenodd" d="M256.119 125.113c-185.508 0-335.892 145.963-335.892 326.019v603.248H88.666V466.709c0-89.762 74.97-162.528 167.449-162.528 92.482 0 167.452 72.766 167.452 162.528v587.671h168.444V451.132c0-180.056-150.384-326.019-335.892-326.019" clip-rule="evenodd"/></mask><g mask="url(#mask1_5787_1116)"><path fill="#E9BCFF" d="M-79.768 461.006c0-185.508 150.385-335.893 335.893-335.893s335.892 150.385 335.892 335.893v593.374H-79.768z"/><path fill="#2C98F3" d="M-41.668 466.16c0-164.713 133.526-298.24 298.24-298.24 164.715 0 298.241 133.527 298.241 298.24v647.7H-41.668z"/><path fill="#58C971" d="M-2.492 465.388c0-140.635 114.008-254.643 254.644-254.643 140.635 0 254.643 114.008 254.643 254.643v743.852H-2.492z"/><path fill="#FFCA42" d="M45.073 470.457c0-116.558 94.488-211.047 211.047-211.047s211.048 94.489 211.048 211.047v857.513H45.073z"/></g></g></g><defs><clipPath id="clip0_5787_1116"><rect width="512" height="512" fill="#fff" rx="256"/></clipPath></defs></svg>