<svg xmlns="http://www.w3.org/2000/svg" fill="none" viewBox="0 0 512 512"><path fill="#000" fill-rule="evenodd" d="M512 256c0 141.385-114.615 256-256 256S0 397.385 0 256 114.615 0 256 0s256 114.615 256 256Z" clip-rule="evenodd"/><path fill="#fff" fill-rule="evenodd" d="M89.812 340.894c-11.372-24.185-17.724-51.168-17.724-79.623 0-104.03 84.892-188.362 189.613-188.362 58.31 0 110.471 26.148 145.254 67.283l20.75-17.296C387.954 75.884 328.342 46 261.701 46 142.02 46 45 142.38 45 261.271c0 32.521 7.26 63.358 20.257 90.998l24.555-11.375Z" clip-rule="evenodd"/><path fill="#fff" fill-rule="evenodd" d="M261.701 389.091c-71.06 0-128.666-57.226-128.666-127.817s57.606-127.817 128.666-127.817c39.568 0 74.957 17.748 98.56 45.662l20.756-17.301c-28.571-33.79-71.418-55.27-119.316-55.27-86.02 0-155.754 69.273-155.754 154.726S175.681 416 261.701 416v-26.909Z" clip-rule="evenodd"/><path fill="#fff" fill-rule="evenodd" d="M308.387 300.183c-11.18 13.222-27.943 21.628-46.686 21.628-33.66 0-60.948-27.106-60.948-60.544 0-33.438 27.288-60.545 60.948-60.545 18.743 0 35.506 8.407 46.686 21.629l23.343-19.458c-16.77-19.832-41.915-32.443-70.029-32.443-50.491 0-91.421 40.66-91.421 90.817s40.93 90.817 91.421 90.817c25.765 0 49.032-10.596 65.648-27.632l-18.962-24.269Z" clip-rule="evenodd"/></svg>