<svg xmlns="http://www.w3.org/2000/svg" fill="none" viewBox="0 0 512 512"><path fill="#000" fill-rule="evenodd" d="M512 256c0 141.385-114.615 256-256 256S0 397.385 0 256 114.615 0 256 0s256 114.615 256 256Z" clip-rule="evenodd"/><path fill="url(#paint0_linear_5265_789)" d="M409 106v130.357c0 23.174-7.328 45.624-20.555 64.092-4.112 5.793-8.759 11.044-13.942 15.933l-.357.18h-61.131V195.801H137.667l.715-.724 47.903-45.082 17.696-16.475C224 114.69 248.667 106 275.836 106H409Z"/><path fill="url(#paint1_linear_5265_789)" d="m374.155 316.742-.357.362-3.218 3.078-12.154 11.587-44.151 41.461-4.29 3.983C289.966 395.86 263.691 406 236.7 406H103v-58.298l.179-31.142.357-41.46c.179-30.235 12.512-58.842 34.319-79.481h56.662V316.56h179.638v.182Z"/><defs><linearGradient id="paint0_linear_5265_789" x1="263.24" x2="231.679" y1="87.678" y2="558.266" gradientUnits="userSpaceOnUse"><stop stop-color="#48EF8A"/><stop offset=".546" stop-color="#43B4A6"/><stop offset=".692" stop-color="#2D796F"/><stop offset=".966"/></linearGradient><linearGradient id="paint1_linear_5265_789" x1="246.649" x2="200.543" y1="422.412" y2="83.403" gradientUnits="userSpaceOnUse"><stop stop-color="#FF5F96"/><stop offset=".61" stop-color="#FF33AF"/><stop offset="1"/></linearGradient></defs></svg>