<svg xmlns="http://www.w3.org/2000/svg" fill="none" viewBox="0 0 512 512"><path fill="#000" d="M256 512c141.385 0 256-114.615 256-256S397.385 0 256 0 0 114.615 0 256s114.615 256 256 256"/><path fill="url(#paint0_linear_2081_181)" d="m418.827 163.084-8.085-14.194a8.3 8.3 0 0 0-6.123-4.122 8.3 8.3 0 0 0-6.99 2.376l-18.595 18.575a8.35 8.35 0 0 0-1.035 10.525 145.8 145.8 0 0 1 16.169 33.27 145.8 145.8 0 0 1-19.745 131.611 145.87 145.87 0 0 1-118.425 60.767 144.54 144.54 0 0 1-68.333-16.958l31.45-31.46a104.16 104.16 0 0 0 113.689-27.109 104.11 104.11 0 0 0 16.914-115.623 8.34 8.34 0 0 0-6.112-4.607 8.32 8.32 0 0 0-7.293 2.328l-18.821 18.688a8.31 8.31 0 0 0-2.216 7.792l1.617 6.758a62.44 62.44 0 0 1-23.426 64.32 62.47 62.47 0 0 1-68.337 4.209l-8.295-4.753a8.295 8.295 0 0 0-10.025 1.342l-76.823 76.789a8.327 8.327 0 0 0 .825 12.497l11.319 8.681a185.75 185.75 0 0 0 113.932 38.605 187.6 187.6 0 0 0 93.454-25.072 187.55 187.55 0 0 0 68.52-68.304 187.5 187.5 0 0 0 25.353-93.36 187.5 187.5 0 0 0-24.563-93.571"/><path fill="url(#paint1_linear_2081_181)" d="M369.962 107.23A185.7 185.7 0 0 0 256.03 68.609a187.6 187.6 0 0 0-93.507 25.048 187.55 187.55 0 0 0-68.561 68.327 187.5 187.5 0 0 0-.745 187.012l8.085 14.178a8.35 8.35 0 0 0 6.13 4.121 8.34 8.34 0 0 0 7-2.359l18.563-18.559a8.39 8.39 0 0 0 1.035-10.508 145.2 145.2 0 0 1-16.17-33.27 145.8 145.8 0 0 1 71.62-176.289 145.86 145.86 0 0 1 66.55-16.089 144.4 144.4 0 0 1 68.318 17.007l-31.467 31.443a104.14 104.14 0 0 0-96.066 11.685 104.09 104.09 0 0 0-44.95 85.684c0 1.73.469 9.619.615 10.977a104.7 104.7 0 0 0 9.815 34.386 8.346 8.346 0 0 0 10.054 4.331 8.35 8.35 0 0 0 3.366-2.052l18.822-18.833a8.33 8.33 0 0 0 2.231-7.776l-1.617-6.774a62.43 62.43 0 0 1 23.422-64.325 62.45 62.45 0 0 1 68.342-4.188l8.295 4.753a8.34 8.34 0 0 0 10.025-1.342l76.806-76.789a8.34 8.34 0 0 0-.808-12.513z"/><defs><linearGradient id="paint0_linear_2081_181" x1="142.609" x2="473.138" y1="458.442" y2="145.789" gradientUnits="userSpaceOnUse"><stop stop-color="#B090F5"/><stop offset="1" stop-color="#5FBFFF"/></linearGradient><linearGradient id="paint1_linear_2081_181" x1="58.242" x2="322.092" y1="320.511" y2="56.621" gradientUnits="userSpaceOnUse"><stop stop-color="#68D7FA"/><stop offset="1" stop-color="#4EE498"/></linearGradient></defs></svg>