<svg xmlns="http://www.w3.org/2000/svg" fill="none" viewBox="0 0 512 512"><path fill="#000" d="M256 512c141.385 0 256-114.615 256-256S397.385 0 256 0 0 114.615 0 256s114.615 256 256 256"/><path fill="#000" fill-rule="evenodd" d="M255.671 381.358V452c-99.623 0-181.858-74.577-194.099-171.037A198 198 0 0 1 60 256c0-108.248 87.602-196 195.665-196l.004 52.698.002 17.944h-.003c-63.616.001-116.297 47.797-124.14 109.415A126 126 0 0 0 130.521 256c0 5.738.387 11.386 1.135 16.921 8.274 61.146 60.737 108.436 124.013 108.437z" clip-rule="evenodd"/><path fill="#fff" d="M255.671 130.642c47.548.002 89.003 26.724 110.17 65.961L428 163.1C394.939 101.719 330.17 60.002 255.669 60v52.698zM365.838 315.399c-19.845 36.784-57.52 62.57-101.333 65.65q-4.378.308-8.834.309V452c74.503-.003 139.272-41.719 172.319-103.1zM130.521 256c0 5.738.387 11.386 1.135 16.921 8.274 61.146 60.737 108.436 124.013 108.437V130.642h-.001c-63.616.001-116.297 47.797-124.14 109.415A126 126 0 0 0 130.521 256"/></svg>