<svg xmlns="http://www.w3.org/2000/svg" fill="none" viewBox="0 0 241 308"><path fill="#000" fill-rule="evenodd" d="M12.355 240.043C4.691 235.351 0 227.016 0 218.041v-50.109c0-5.949 4.845-10.77 10.791-10.744 1.897 0 3.768.512 5.409 1.461l113.015 65.931a21.5 21.5 0 0 1 10.689 18.592v51.903c.026 7.129-5.742 12.925-12.868 12.925-2.383 0-4.742-.667-6.767-1.898zm168.459-95.113c6.613 3.846 10.663 10.95 10.689 18.592v105.345a8.56 8.56 0 0 1-4.383 7.488l-24.736 13.925a4.3 4.3 0 0 1-1 .41v-58.494a21.55 21.55 0 0 0-10.483-18.489l-99.25-59.392V88.282c0-5.95 4.844-10.77 10.79-10.745 1.897 0 3.769.513 5.41 1.462zm49.471-77.804A21.52 21.52 0 0 1 241 85.743v153.864a8.72 8.72 0 0 1-4.537 7.565l-23.454 12.669V152.725a21.57 21.57 0 0 0-10.433-18.463l-101.454-60.88V10.76c0-1.898.512-3.77 1.435-5.41 2.999-5.13 9.587-6.873 14.713-3.899z" clip-rule="evenodd"/></svg>