<svg xmlns="http://www.w3.org/2000/svg" fill="none" viewBox="0 0 512 512"><path fill="#000" d="M256 512c141.385 0 256-114.615 256-256S397.385 0 256 0 0 114.615 0 256s114.615 256 256 256Z"/><path fill="url(#paint0_linear_3534_292)" d="m411.312 308.873-11.166-19.16L265.061 58.824l-.965-1.516-1.24-1.24-1.241-.827s-.965-.414-1.516-.69c-.552-.138-.965-.275-1.516-.413-.414 0-.965-.138-1.517-.138h-1.929c-.552 0-.965 0-1.517.138-.551 0-1.103.276-1.516.413a5.09 5.09 0 0 0-1.516.69s-.965.551-1.241.827c0 0-.965.827-1.378 1.24l-.689 1.24-137.015 234.198-7.443 12.958v.412C97.032 317.694 94 329.964 94 342.782c0 3.034.138 5.929.413 8.96 1.103 10.202 4.136 20.125 8.822 29.499 6.065 11.993 14.749 23.021 25.777 32.808 11.578 10.338 25.776 19.297 41.628 26.189 15.3 6.754 32.392 11.717 50.588 14.474 11.303 1.793 23.019 2.618 35.011 2.618 11.992 0 23.433-.825 34.599-2.618 18.195-2.757 35.287-7.72 50.587-14.474 15.989-7.03 30.05-15.851 41.766-26.051 11.027-9.787 19.85-20.678 25.915-32.669 4.686-9.236 7.857-19.162 8.959-29.361.413-3.172.551-6.203.551-9.511 0-11.854-2.48-23.158-7.304-33.911v.138Z"/><path fill="url(#paint1_linear_3534_292)" d="m262.854 56.068 2.482 4.824 105.035 200.425 47.692 90.978c.415-3.172.553-6.203.553-9.513 0-11.855-2.482-23.156-7.306-33.909l-11.166-19.16L265.06 58.825l-.965-1.517-1.241-1.24Z"/><path fill="url(#paint2_linear_3534_292)" d="m261.616 55.24 3.309 7.443 84.083 186.09 59.96 132.881c4.688-9.236 7.857-19.159 8.962-29.362l-47.695-90.976L265.338 60.891l-2.481-4.824-1.241-.827Z"/><path fill="url(#paint3_linear_3534_292)" d="m260.098 54.55 3.446 10.063 59.409 173.683 60.237 176.027c11.027-9.787 19.848-20.676 25.915-32.669l-59.961-132.882-84.222-186.09-3.308-7.443s-.965-.413-1.516-.689Z"/><path fill="url(#paint4_linear_3534_292)" d="m258.445 54.275 2.619 11.993 35.563 165.55 44.799 208.697c15.989-7.03 30.049-15.854 41.765-26.054l-60.236-176.026-59.409-173.821-3.447-10.063s-.964-.276-1.516-.413l-.138.137Z"/><path fill="url(#paint5_linear_3534_292)" d="m257.067 54 1.102 13.095 13.646 161.691 19.161 226.064c18.195-2.757 35.287-7.72 50.587-14.473l-44.798-208.696-35.701-165.413-2.619-11.992s-.965-.138-1.516-.138l.138-.138Z"/><path fill="url(#paint6_linear_3534_292)" d="M221.364 454.85c11.304 1.791 23.02 2.618 35.012 2.618s23.433-.827 34.598-2.618l-19.16-226.064-13.646-161.69L257.065 54h-1.929l-1.103 13.095-13.647 161.691-19.159 226.064h.137Z"/><path fill="url(#paint7_linear_3534_292)" d="M170.777 440.238c15.301 6.754 32.393 11.717 50.588 14.474l19.16-226.064 13.509-161.553L255.136 54s-.964 0-1.516.138l-2.619 11.992-35.563 165.689-44.798 208.419h.137Z"/><path fill="url(#paint8_linear_3534_292)" d="M129.128 414.039c11.583 10.34 25.785 19.305 41.642 26.199l44.814-208.491 35.575-165.606 2.62-11.997s-1.104.276-1.517.414l-3.447 10.066-59.568 173.742-60.119 175.673Z"/><path fill="url(#paint9_linear_3534_292)" d="M103.372 381.241c6.065 11.991 14.749 23.018 25.777 32.805l60.098-175.612 59.548-173.821 3.446-10.063s-1.103.414-1.516.69l-3.309 7.443-84.359 186.227-59.685 132.331Z"/><path fill="url(#paint10_linear_3534_292)" d="M94.413 351.742c1.103 10.338 4.135 20.125 8.822 29.499l59.823-132.331 84.221-186.227 3.308-7.443s-.965.551-1.24.827l-2.481 4.824L141.693 261.73l-47.28 90.012Z"/><path fill="url(#paint11_linear_3534_292)" d="M94 342.782c0 3.034.138 5.929.413 8.96l47.142-90.011L246.866 60.892l2.481-4.824s-.965.827-1.378 1.24l-.689 1.24-137.015 234.198-7.443 12.958v.412C97.032 317.694 94 329.964 94 342.782Z"/><path fill="url(#paint12_linear_3534_292)" d="m264.096 57.308.967 1.52s-.553-1.106-.967-1.52Z"/><defs><linearGradient id="paint0_linear_3534_292" x1="159.199" x2="452.39" y1="225.202" y2="341.4" gradientUnits="userSpaceOnUse"><stop stop-color="#FF5A5A"/><stop offset=".2" stop-color="#FDD55A"/><stop offset=".35" stop-color="#57F7AE"/><stop offset=".69" stop-color="#197CEF"/><stop offset="1" stop-color="#3A3A3A"/></linearGradient><linearGradient id="paint1_linear_3534_292" x1="443.978" x2="95.781" y1="385.377" y2="-266.482" gradientUnits="userSpaceOnUse"><stop stop-color="#3A3A3A"/><stop offset=".5" stop-color="#1682FE"/><stop offset="1" stop-color="#2DBDE1"/></linearGradient><linearGradient id="paint2_linear_3534_292" x1="429.095" x2="30.995" y1="409.498" y2="-508.261" gradientUnits="userSpaceOnUse"><stop stop-color="#3A3A3A"/><stop offset=".5" stop-color="#1682FE"/><stop offset="1" stop-color="#2DBDE1"/></linearGradient><linearGradient id="paint3_linear_3534_292" x1="459.003" x2="-33.382" y1="553.959" y2="-667.882" gradientUnits="userSpaceOnUse"><stop stop-color="#3A3A3A"/><stop offset=".5" stop-color="#1682FE"/><stop offset="1" stop-color="#2DBDE1"/></linearGradient><linearGradient id="paint4_linear_3534_292" x1="435.846" x2="99.503" y1="659.824" y2="-403.914" gradientUnits="userSpaceOnUse"><stop stop-color="#3A3A3A"/><stop offset=".5" stop-color="#1682FE"/><stop offset="1" stop-color="#2DBDE1"/></linearGradient><linearGradient id="paint5_linear_3534_292" x1="381.674" x2="52.636" y1="609.374" y2="-482.209" gradientUnits="userSpaceOnUse"><stop stop-color="#3A3A3A"/><stop offset=".22" stop-color="#1682FE"/><stop offset=".5" stop-color="#57F7AE"/><stop offset="1" stop-color="#FED55A"/></linearGradient><linearGradient id="paint6_linear_3534_292" x1="336.876" x2="93.026" y1="626.604" y2="-302.324" gradientUnits="userSpaceOnUse"><stop stop-color="#3A3A3A"/><stop offset=".22" stop-color="#1682FE"/><stop offset=".5" stop-color="#57F7AE"/><stop offset="1" stop-color="#FED55A"/></linearGradient><linearGradient id="paint7_linear_3534_292" x1="240.939" x2="181.94" y1="670.851" y2="-222.515" gradientUnits="userSpaceOnUse"><stop stop-color="#3A3A3A"/><stop offset=".22" stop-color="#1682FE"/><stop offset=".5" stop-color="#57F7AE"/><stop offset="1" stop-color="#FED55A"/></linearGradient><linearGradient id="paint8_linear_3534_292" x1="251.848" x2="183.867" y1="704.023" y2="174.799" gradientUnits="userSpaceOnUse"><stop offset=".4" stop-color="#1682FE"/><stop offset=".7" stop-color="#57F7AE"/><stop offset="1" stop-color="#FED55A"/></linearGradient><linearGradient id="paint9_linear_3534_292" x1="199.448" x2="179.322" y1="720.612" y2="255.113" gradientUnits="userSpaceOnUse"><stop offset=".4" stop-color="#1682FE"/><stop offset=".7" stop-color="#57F7AE"/><stop offset="1" stop-color="#FED55A"/></linearGradient><linearGradient id="paint10_linear_3534_292" x1="110.265" x2="239.427" y1="533.557" y2="-150.285" gradientUnits="userSpaceOnUse"><stop offset=".03" stop-color="#1682FE"/><stop offset=".21" stop-color="#FCA75B"/><stop offset=".52" stop-color="#FF5A5A"/></linearGradient><linearGradient id="paint11_linear_3534_292" x1="98.135" x2="231.708" y1="479.387" y2="-38.492" gradientUnits="userSpaceOnUse"><stop offset=".03" stop-color="#1682FE"/><stop offset=".21" stop-color="#FCA75B"/><stop offset=".52" stop-color="#FF5A5A"/></linearGradient><linearGradient id="paint12_linear_3534_292" x1="264.648" x2="264.648" y1="58.828" y2="57.308" gradientUnits="userSpaceOnUse"><stop stop-color="#2DBDE1"/><stop offset=".5" stop-color="#1682FE"/><stop offset="1" stop-color="#3A3A3A"/></linearGradient></defs></svg>