<svg xmlns="http://www.w3.org/2000/svg" fill="none" viewBox="0 0 335 336"><path fill="#000" d="M165.627 14.223q32.912 12.396 66.739 29.413a622 622 0 0 1 21.151 11.13q5.377 2.966 9.756 5.949c15.304 10.407 30.461 22.373 43.488 35.785a62 62 0 0 1 5.79 6.882c5.915 8.203 11.733 16.903 16.281 25.988q8.344 16.667 5.401 36.373-1.182 7.887-3.085 15.119-4.203 15.977-15.592 26.005c-10.473 9.221-23.303 13.43-36.798 15.82a479 479 0 0 0-74.711 19.531 8990 8990 0 0 0-49.583 17.497.34.34 0 0 1-.438-.225.33.33 0 0 1-.002-.182c7.428-28.774 9.462-58.35 7.779-88.04a.36.36 0 0 1 .207-.346.34.34 0 0 1 .137-.032q22.896-.717 47.866-2.672a414 414 0 0 0 25.415-2.78c16.202-2.288 37.279-9.531 36.319-29.791-.684-14.356-11.53-26.87-22.224-35.796-11.711-9.786-25.732-18.181-39.567-25.12q-23.24-11.649-51.091-21.643-4.417-1.583-7.48-1.785c-4.027-.272-8.191-.068-11.869 1.683-7.496 3.56-9.75 11.989-8.061 19.938q.56 2.616 2.401 6.633 3.435 7.486 7.225 17.209c9.146 23.457 16.123 47.209 17.598 71.299q.74 12.057.706 24.802-.08 33.13-7.734 63.718a494 494 0 0 0-2.548 10.666c-5.604 24.712-19.998 50.486-43.544 62.142q-4.694 2.322-10.293 3.751-9.19 2.35-17.523 2.768-21.444 1.068-37.172-10.887c-14.354-10.915-23.286-28.265-28.963-45.96-6.853-21.362-9.971-44.458-11.061-67.028a467 467 0 0 1 1.841-69.78q.615-6.073 1.237-11.407C6.981 102.071 15.743 73.156 30.2 47.94c6.61-11.524 14.507-22.09 24.28-30.733C79.477-4.908 115.875-2.738 145.51 7.194q13.118 4.395 20.117 7.028M75.624 169.32c-8.14 3.272-12.874 15.249-14.823 23.068q-5.836 23.38.378 46.994a59 59 0 0 0 6.644 15.678c3.225 5.322 9.756 13.063 16.783 8.82 5.7-3.441 9.333-10.486 11.643-17.232 5.689-16.599 5.582-35.463.933-52.373q-2.52-9.147-6.938-16.209c-2.683-4.277-8.705-11.124-14.62-8.746"/><path fill="#000" d="M158.034 55.918c18.965 6.96 37.545 14.633 55.47 24 12.942 6.763 25.529 14.576 36.431 24.221 6.548 5.796 12.598 12.751 16.123 20.61 4.729 10.52 3.853 21.842-6.101 28.994q-3.361 2.413-6.948 3.91-9.361 3.909-21.083 5.31c-23.523 2.814-46.612 4.226-69.914 4.972q-.306.012-.328-.294c-2.322-31.214-12.728-61.655-25.529-90.254q-1.802-4.017-2.096-6.633c-.813-7.265 1.56-14.124 9.299-16q3.632-.875 7.841-.508 3.006.265 6.835 1.672"/></svg>