<svg xmlns="http://www.w3.org/2000/svg" fill="none" viewBox="0 0 512 512"><path fill="#000" fill-rule="evenodd" d="M512 256c0 141.385-114.615 256-256 256S0 397.385 0 256 114.615 0 256 0s256 114.615 256 256Z" clip-rule="evenodd"/><path fill="url(#paint0_linear_3706_1430)" d="M422.641 357h-73.716c-15.853 0-22.487-13.018-23.823-19.527a93.755 93.755 0 0 0-4.901-16.142c-3.531-11.145 2.476-17.229 5.921-18.878l29.522-17.029c4.069 6.775 7.35 14.141 10.069 21.755 1.562 4.212 7.387 12.013 18.19 9.524l32.33-8.584c4.078 15.711 6.408 32.005 6.408 48.881Z"/><path fill="url(#paint1_linear_3706_1430)" fill-rule="evenodd" d="M366.717 222.578c-23.304-23.277-52.433-40.734-85.64-49.463l-12.235 45.971c24.468 6.401 46.607 19.785 64.085 37.243l33.79-33.751Z" clip-rule="evenodd"/><path fill="url(#paint2_linear_3706_1430)" d="M108.049 284.842c-12.235 21.53-19.226 45.971-19.226 72.157H67.105c-4.649 0-11.733-1.615-18.596-8.912-5.49-5.838-5.85-15.111-5.343-19.017 2.803-18.482 8.28-36.112 15.748-52.598 2.066-4.813 9.298-13.043 21.696-7.456l27.439 15.826Z"/><path fill="#ABDA02" d="M422.651 357c0-16.876-2.331-33.17-6.409-48.881l30.101-7.992c5.367-1.409 16.836-.909 19.783 12.359a236.203 236.203 0 0 1 2.709 17.469c.546 3.39.045 11.985-6.331 19.238S447.007 357 444.572 357h-21.921Zm-89.724-100.671 56.247-56.177c3.928-3.686 14.018-8.624 22.963 1.105 6.477 7.431 12.519 15.297 18.062 23.662 2.329 4.686 4.48 15.505-5.552 21.292l-68.994 39.795c-6.408-11.056-13.988-20.949-22.726-29.677Zm-5.239-64.008c-27.964-16.294-60.589-25.604-95.544-25.604-11.987 0-23.681 1.172-35.081 3.307-10.096 1.901-15.827-6.099-17.431-10.336l-4.59-17.248c-1.073-5.246-.295-16.374 11.394-18.925 14.768-2.932 30.238-4.515 45.708-4.515 37.235 0 72.731 8.682 104.612 24.171 4.576 2.148 12.398 9.399 7.085 21.211l-16.153 27.939Zm-96.126 22.11c12.817 0 25.628 1.745 37.28 4.655l-8.49 31.925c-1.099 4.17-6.038 12.253-17.02 11.23a90.563 90.563 0 0 0-11.187-.675c-46.329 0-84.649 32.883-93.579 76.128-.721 3.022-3.402 9.995-8.361 13.71-6.199 4.644-11.291 5.596-15.276 5.596l-26.106-.001c0-79.14 64.09-142.568 142.739-142.568Z"/><defs><linearGradient id="paint0_linear_3706_1430" x1="255.998" x2="255.998" y1="0" y2="512" gradientUnits="userSpaceOnUse"><stop stop-color="#6410D6"/><stop offset="1" stop-color="#A310D6"/></linearGradient><linearGradient id="paint1_linear_3706_1430" x1="255.998" x2="255.998" y1="0" y2="512" gradientUnits="userSpaceOnUse"><stop stop-color="#6410D6"/><stop offset="1" stop-color="#A310D6"/></linearGradient><linearGradient id="paint2_linear_3706_1430" x1="256" x2="256" y1="0" y2="512" gradientUnits="userSpaceOnUse"><stop stop-color="#6410D6"/><stop offset="1" stop-color="#A310D6"/></linearGradient></defs></svg>