<svg xmlns="http://www.w3.org/2000/svg" fill="none" viewBox="0 0 512 512"><path fill="#000" d="M256 512c141.385 0 256-114.615 256-256S397.385 0 256 0 0 114.615 0 256s114.615 256 256 256Z"/><path fill="#37B06F" d="M410.427 135.571c-2.985-3.848-8.954-4.704-12.792-1.283l-.853.855-66.516 66.271c-3.412 3.421-3.838 8.551-1.28 12.399 14.924 25.654 14.924 57.72 0 83.374-2.132 3.848-2.132 8.978 1.28 12.399l66.516 66.271c3.412 3.42 9.381 3.848 12.792 0l.853-.855c55.431-70.119 55.431-169.312 0-239.431Zm-99.775 193.682c-3.412-3.42-8.528-3.848-12.366-1.282-26.01 14.964-57.562 14.964-83.572 0-3.838-2.138-8.954-2.138-12.366 1.282l-66.517 66.699c-3.411 3.421-3.837 9.406 0 12.827l.853.855c70.355 55.155 169.704 55.155 240.058 0 3.838-2.993 4.69-8.979 1.279-12.827l-.853-.855-66.516-66.699Zm-126.638-115.44c2.132-3.848 2.132-8.978-1.28-12.399l-66.516-66.271c-3.412-3.42-9.381-3.848-12.792 0l-.853.855a193.772 193.772 0 0 0 0 239.859c2.985 3.848 8.954 4.703 12.792 1.283l.853-.855 66.516-66.272c3.412-3.42 3.838-8.551 1.28-12.399-14.924-26.081-14.924-58.147 0-83.801Zm-47.33-112.447c-3.837 2.993-4.69 8.979-1.279 12.827l.853.855 66.517 66.271c3.411 3.42 8.528 3.848 12.365 1.283 26.01-14.965 57.563-14.965 83.573 0 3.837 2.137 8.954 2.137 12.365-1.283l66.517-66.271c3.411-3.421 3.837-9.406 0-12.827l-.853-.855c-70.781-55.155-169.703-55.155-240.058 0Z"/></svg>