<svg xmlns="http://www.w3.org/2000/svg" fill="none" viewBox="0 0 512 512"><path fill="#000" fill-rule="evenodd" d="M512 256c0 141.385-114.615 256-256 256S0 397.385 0 256 114.615 0 256 0s256 114.615 256 256Z" clip-rule="evenodd"/><path fill="#755CB4" fill-rule="evenodd" d="M403.172 390.82c-65.18 24.359-173.233 19.076-243.337-13.501C89.731 344.743 26 306.59 26 244.665s73.001-81.002 108.053-84.817c18.27-1.989 34.888-1.585 49.032-1.242 12.992.316 23.897.58 32.08-1.106.653-.134 1.348-.278 2.083-.431C235.764 153.23 280.283 144 344.365 144c66.628 0 118.193 12.913 118.193 83.349l.109 73.078c-.389 41.884-6.345 70.529-59.495 90.393Zm-3.476-139.111c-12.746 9.881-57.532 35.159-134.705 57.228-96.465 27.588-156.72.881-174.39-15.847-17.671-16.729-18.83-44.316 21.146-74.839 39.977-30.522 92.121-52.827 162.804-29.935 56.547 18.313 106.991 49.892 125.145 63.393Z" clip-rule="evenodd"/><path fill="url(#paint0_linear_3706_1428)" d="M403.167 390.819c-65.18 24.36-173.233 19.077-243.337-13.5-50.55-23.49-97.787-49.88-120.205-85.99 31.59 39.913 107.459 62.218 267.366 17.608 127.925-35.687 153.773-91.175 150.706-114.458 3.165 9.247 4.856 20.116 4.856 32.87l.109 73.078c-.389 41.883-6.345 70.529-59.495 90.392Z"/><path fill="url(#paint1_linear_3706_1428)" fill-rule="evenodd" d="M274.54 188.316c-25.202-9.783-66.056-25.302-130.019-22.485-79.954 3.522-119.328 50.487-106.654 99.964 6.485 25.312 48.19 69.973 163.061 54.573-59.281 3.718-96.978-14.631-110.337-27.278-17.671-16.729-18.83-44.316 21.147-74.839 39.977-30.522 92.119-52.826 162.802-29.935Z" clip-rule="evenodd"/><path fill="url(#paint2_linear_3706_1428)" fill-rule="evenodd" d="M426.2 158.032a74.393 74.393 0 0 1 6.522 3.844c16.294 11.719 21.443 33.429 6.958 53.442-12.746 17.609-31.962 31.598-39.977 36.392 0 0 0-.001 0 0-18.154-13.501-68.598-45.081-125.145-63.394a217.246 217.246 0 0 0-5.64-1.743c8.48-5.534 19.029-10.929 32.002-15.571 52.19-18.679 104.102-22.726 125.28-12.97Z" clip-rule="evenodd"/><defs><linearGradient id="paint0_linear_3706_1428" x1="430.976" x2="429.757" y1="413.418" y2="314.608" gradientUnits="userSpaceOnUse"><stop stop-color="#EF8B74"/><stop offset="1" stop-color="#5D449B"/></linearGradient><linearGradient id="paint1_linear_3706_1428" x1="236.274" x2="45.339" y1="190.219" y2="372.845" gradientUnits="userSpaceOnUse"><stop stop-color="#EF8B74"/><stop offset="1" stop-color="#381F74" stop-opacity="0"/></linearGradient><linearGradient id="paint2_linear_3706_1428" x1="446.249" x2="428.139" y1="242.25" y2="158.467" gradientUnits="userSpaceOnUse"><stop stop-color="#EF8B74"/><stop offset="1" stop-color="#381F74" stop-opacity="0"/></linearGradient></defs></svg>