<svg xmlns="http://www.w3.org/2000/svg" fill="none" viewBox="0 0 512 512"><path fill="#000" d="M256 512c141.385 0 256-114.615 256-256S397.385 0 256 0 0 114.615 0 256s114.615 256 256 256"/><path fill="#fff" d="M249.54 452.875c-48.311-1.181-92.493-18.996-127.62-52.399-10.745-10.218-20.254-20.762-28.36-32.573q-29.005-42.256-32.998-93.951c-.656-8.506-.748-20.599-.222-30.455 2.85-53.65 26.138-99.016 65.59-134.748 31.415-28.456 70.753-44.846 113.174-48.221q12.164-.971 31.535-.157c48.912 2.053 94.6 24.446 128.465 60.092q13.497 14.206 22.156 27.269 27.812 41.98 31.264 91.469.872 12.504.146 29.729c-2.281 54.463-27.661 103.172-68.879 138.308q-47.188 40.23-109.907 45.268-9.206.742-24.344.369M119.986 188.709a8295 8295 0 0 0 56.405 39.043c2.113 1.452 4.438 5.803 5.744 8.068q7.309 12.684 14.759 25.698.271.471.808.374c1.576-.277 6.794-.873 7.867-2.043a7074 7074 0 0 1 26.345-28.651c2.817-3.05 6.409-2.763 10.37-1.446 3.257 1.083 11.607 3.153 13.552 6.61q6.459 11.475 12.868 23 .141.248.233-.022 2.834-7.97 5.798-15.881c1.702-4.556 5.018-6.111 9.894-5.905 3.576.151 15.952 1.284 18.341 3.955q47.2 52.697 94.432 105.366c.911 1.018 1.599 1.858 3.002 2.243a583 583 0 0 0 8.144 2.146c.075.02.154.015.225-.015a.35.35 0 0 0 .171-.148q24.518-40.365 27.449-87.513c.201-3.24.282-7.244.179-10.062-1.587-42.537-17.398-83.022-44.935-115.438q-6.248-7.357-11.769-12.348-42.61-38.533-99.617-47.343c-51.816-8.008-105.361 11.107-144.216 44.818-20.671 17.94-36.894 43.405-46.799 68.832q-.124.32.2.222a5783 5783 0 0 0 18.466-5.597c4.135-1.262 8.556-.422 12.084 2.037m10.88 196.255c27.617 26.457 63.314 43.713 101.037 49.522q.395.059.135-.239c-.948-1.078-1.398-2.335-1.918-3.305a2176515 2176515 0 0 0-120.95-226.878.84.84 0 0 0-.424-.387.87.87 0 0 0-.578-.03l-24.979 7.564a.49.49 0 0 0-.357.363c-4.232 15.729-6.936 33.278-6.248 49.44 1.82 42.706 18.45 83.878 46.799 116.121a127 127 0 0 0 7.483 7.829m65.286-106.076c-4.123.851-9.699-2.752-11.671-6.198a9658 9658 0 0 0-18.114-31.533c-.341-.591-1.17-1.306-1.625-1.61a2505 2505 0 0 1-28.653-19.797q-.076-.054-.032.032L217.1 371.82a.1.1 0 0 0 .046.041.1.1 0 0 0 .062.006.1.1 0 0 0 .081-.085l10.317-111.738q.016-.178-.103-.043a457 457 0 0 1-11.297 12.337c-4.346 4.573-14.115 5.326-20.054 6.55m55.669 157.581q4.502.162 8.891-.033 41.293-1.831 77.895-20.502a.2.2 0 0 0 .068-.054.2.2 0 0 0 .041-.076.2.2 0 0 0 .007-.086.2.2 0 0 0-.029-.082q-39.186-68.88-78.009-137.138-6.323-11.123-15.686-28.233-.092-.163-.108.027-6.567 71.388-13.189 142.778c-.206 2.237-1.279 3.689-.087 5.932a17810 17810 0 0 0 19.843 37.239.42.42 0 0 0 .363.228m146.969-70.875c-.195-.2-4.276-1.17-4.893-1.332-2.883-.77-5.728-3.224-7.543-5.256a571665 571665 0 0 1-92.232-102.96c-1.306-1.458-3.841-1.582-5.7-1.707q-.287-.017-.385.249a4182 4182 0 0 0-4.974 13.692q-1.224 3.402-5.218 6.729-.243.206-.086.482l75.012 131.877a.415.415 0 0 0 .585.141c17.572-11.156 32.765-24.42 45.45-41.638q.108-.147-.016-.277"/></svg>
