<svg xmlns="http://www.w3.org/2000/svg" fill="none" viewBox="0 0 393 393"><path fill="#000" d="M189.54 392.875c-48.311-1.181-92.493-18.996-127.62-52.399-10.745-10.218-20.254-20.762-28.36-32.573Q4.556 265.647.562 213.952c-.656-8.506-.748-20.599-.222-30.455 2.85-53.65 26.138-99.016 65.59-134.748C97.345 20.293 136.683 3.903 179.104.528q12.164-.971 31.535-.157c48.912 2.053 94.6 24.446 128.465 60.092q13.497 14.205 22.156 27.27 27.812 41.979 31.264 91.468.872 12.504.146 29.729c-2.281 54.463-27.661 103.172-68.879 138.308q-47.188 40.23-109.907 45.268-9.206.742-24.344.369M59.986 128.709a8325 8325 0 0 0 56.405 39.043c2.113 1.452 4.438 5.803 5.744 8.068q7.309 12.684 14.759 25.698.271.471.808.374c1.576-.277 6.794-.873 7.867-2.043a7074 7074 0 0 1 26.345-28.651c2.817-3.05 6.409-2.763 10.37-1.446 3.257 1.083 11.607 3.153 13.552 6.61q6.459 11.475 12.868 23 .141.248.233-.022 2.834-7.97 5.798-15.881c1.702-4.556 5.018-6.111 9.894-5.905 3.576.151 15.952 1.284 18.341 3.955q47.2 52.697 94.432 105.366c.911 1.018 1.599 1.858 3.002 2.243a583 583 0 0 0 8.144 2.146c.075.02.154.015.225-.015a.35.35 0 0 0 .171-.148q24.518-40.365 27.449-87.513c.201-3.24.282-7.244.179-10.062-1.587-42.537-17.398-83.022-44.935-115.438q-6.248-7.358-11.769-12.348-42.61-38.533-99.617-47.343C168.435 10.389 114.89 29.504 76.035 63.215c-20.671 17.94-36.894 43.405-46.799 68.832q-.124.32.2.222a5791 5791 0 0 0 18.467-5.597c4.134-1.262 8.555-.422 12.083 2.037m10.88 196.255c27.617 26.457 63.314 43.713 101.037 49.522q.395.059.135-.239c-.948-1.078-1.398-2.335-1.918-3.305q-60.34-113.2-120.95-226.878a.85.85 0 0 0-.424-.387.87.87 0 0 0-.578-.03l-24.979 7.564a.49.49 0 0 0-.358.363c-4.231 15.729-6.935 33.278-6.247 49.44 1.82 42.706 18.45 83.878 46.799 116.121a127 127 0 0 0 7.483 7.829m65.286-106.076c-4.123.851-9.699-2.752-11.671-6.198a9658 9658 0 0 0-18.114-31.533c-.341-.591-1.17-1.306-1.625-1.61q-14.414-9.811-28.653-19.797-.075-.055-.032.032L157.1 311.82a.1.1 0 0 0 .046.041.1.1 0 0 0 .062.006.102.102 0 0 0 .081-.085l10.317-111.738q.016-.178-.103-.043a457 457 0 0 1-11.297 12.337c-4.346 4.573-14.115 5.326-20.054 6.55m55.669 157.581q4.502.162 8.891-.033 41.293-1.831 77.895-20.502a.2.2 0 0 0 .068-.054.2.2 0 0 0 .041-.076.2.2 0 0 0 .007-.086.2.2 0 0 0-.029-.082q-39.186-68.88-78.009-137.138-6.323-11.123-15.686-28.233-.092-.163-.108.027-6.567 71.388-13.189 142.778c-.206 2.237-1.279 3.689-.087 5.932a17810 17810 0 0 0 19.843 37.239.42.42 0 0 0 .363.228m146.969-70.875c-.195-.2-4.276-1.17-4.893-1.332-2.883-.77-5.728-3.224-7.543-5.256a571665 571665 0 0 1-92.232-102.96c-1.306-1.458-3.841-1.582-5.7-1.707q-.287-.017-.385.249a4182 4182 0 0 0-4.974 13.692q-1.224 3.402-5.218 6.729-.243.206-.086.482l75.012 131.877a.415.415 0 0 0 .585.141c17.572-11.156 32.765-24.42 45.45-41.638q.108-.147-.016-.277"/></svg>