<svg xmlns="http://www.w3.org/2000/svg" fill="none" viewBox="0 0 512 512"><path fill="#000" d="M256 512c141.385 0 256-114.615 256-256S397.385 0 256 0 0 114.615 0 256s114.615 256 256 256Z"/><path fill="#fff" d="M249.54 452.875c-48.311-1.181-92.493-18.996-127.62-52.399-10.745-10.218-20.254-20.762-28.36-32.573-19.337-28.171-30.336-59.488-32.998-93.951-.656-8.506-.748-20.599-.222-30.455 2.85-53.65 26.138-99.016 65.59-134.748 31.415-28.456 70.753-44.846 113.174-48.221 8.109-.647 18.621-.7 31.535-.157 48.912 2.053 94.6 24.446 128.465 60.092 8.998 9.471 16.383 18.56 22.156 27.269 18.541 27.987 28.963 58.476 31.264 91.469.581 8.336.63 18.246.146 29.729-2.281 54.463-27.661 103.172-68.879 138.308-31.459 26.82-68.094 41.909-109.907 45.268-6.137.495-14.252.618-24.344.369ZM119.986 188.709a8295.058 8295.058 0 0 0 56.405 39.043c2.113 1.452 4.438 5.803 5.744 8.068 4.873 8.456 9.792 17.022 14.759 25.698.181.314.45.439.808.374 1.576-.277 6.794-.873 7.867-2.043a7074.072 7074.072 0 0 1 26.345-28.651c2.817-3.05 6.409-2.763 10.37-1.446 3.257 1.083 11.607 3.153 13.552 6.61 4.306 7.65 8.595 15.317 12.868 23 .094.166.172.158.233-.022 1.89-5.314 3.822-10.607 5.798-15.881 1.702-4.556 5.018-6.111 9.894-5.905 3.576.151 15.952 1.284 18.341 3.955 31.467 35.131 62.944 70.253 94.432 105.366.911 1.018 1.599 1.858 3.002 2.243a582.91 582.91 0 0 0 8.144 2.146c.075.02.154.015.225-.015a.348.348 0 0 0 .171-.148c16.345-26.91 25.495-56.081 27.449-87.513.201-3.24.282-7.244.179-10.062-1.587-42.537-17.398-83.022-44.935-115.438-4.165-4.905-8.088-9.021-11.769-12.348-28.406-25.689-61.612-41.47-99.617-47.343-51.816-8.008-105.361 11.107-144.216 44.818-20.671 17.94-36.894 43.405-46.799 68.832-.083.213-.016.287.2.222a5782.562 5782.562 0 0 0 18.466-5.597c4.135-1.262 8.556-.422 12.084 2.037Zm10.88 196.255c27.617 26.457 63.314 43.713 101.037 49.522.263.039.309-.04.135-.239-.948-1.078-1.398-2.335-1.918-3.305a2176514.51 2176514.51 0 0 0-120.95-226.878.842.842 0 0 0-.424-.387.87.87 0 0 0-.578-.03l-24.979 7.564a.487.487 0 0 0-.357.363c-4.232 15.729-6.936 33.278-6.248 49.44 1.82 42.706 18.45 83.878 46.799 116.121a126.576 126.576 0 0 0 7.483 7.829Zm65.286-106.076c-4.123.851-9.699-2.752-11.671-6.198a9657.918 9657.918 0 0 0-18.114-31.533c-.341-.591-1.17-1.306-1.625-1.61a2505.405 2505.405 0 0 1-28.653-19.797c-.051-.036-.061-.026-.032.032L217.1 371.82a.107.107 0 0 0 .046.041.11.11 0 0 0 .062.006.102.102 0 0 0 .081-.085l10.317-111.738c.011-.119-.024-.133-.103-.043a456.967 456.967 0 0 1-11.297 12.337c-4.346 4.573-14.115 5.326-20.054 6.55Zm55.669 157.581c3.002.108 5.965.097 8.891-.033 27.529-1.221 53.494-8.055 77.895-20.502a.199.199 0 0 0 .068-.054.2.2 0 0 0 .041-.076.227.227 0 0 0 .007-.086.218.218 0 0 0-.029-.082c-26.124-45.92-52.127-91.633-78.009-137.138-4.215-7.415-9.444-16.827-15.686-28.233-.061-.109-.098-.1-.108.027-4.378 47.592-8.775 95.185-13.189 142.778-.206 2.237-1.279 3.689-.087 5.932a17809.77 17809.77 0 0 0 19.843 37.239.42.42 0 0 0 .363.228Zm146.969-70.875c-.195-.2-4.276-1.17-4.893-1.332-2.883-.77-5.727-3.224-7.543-5.256a571664.712 571664.712 0 0 1-92.232-102.96c-1.306-1.458-3.841-1.582-5.7-1.707-.191-.011-.32.072-.385.249a4182.041 4182.041 0 0 0-4.974 13.692c-.816 2.268-2.555 4.511-5.218 6.729-.162.137-.191.298-.086.482l75.012 131.877a.415.415 0 0 0 .585.141c17.572-11.156 32.765-24.42 45.45-41.638.072-.098.067-.19-.016-.277Z"/></svg>