<svg xmlns="http://www.w3.org/2000/svg" fill="none" viewBox="0 0 512 512"><path fill="#000" d="M256 512c91.119 0 171.12-47.606 216.487-119.302C497.513 353.147 512 306.265 512 256v-.376C511.797 114.412 397.259 0 256 0 114.759 0 .233 114.382 0 255.568V256c0 50.183 14.44 96.994 39.39 136.503C84.735 464.308 164.798 512 256 512"/><path fill="url(#paint0_linear_9169_731)" fill-rule="evenodd" d="M324.427 90.027c-69.754 1.509-146.827 40.518-201.08 101.619-44.565 50.109-64.802 109.377-53.069 154.852 3.876 14.871 11.841 30.389 17.87 34.376 35.952 23.923 116.793 14.655 182.564-20.906 76.427-41.38 105.491-102.265 75.889-158.408-2.799-5.388-3.444-5.065-4.628 3.233a140.13 140.13 0 0 1-48.225 83.838c-37.783 33.406-87.838 46.983-117.009 31.789-2.276-1.178-3.965-2.256-5.448-3.75-2.587-2.606-4.548-6.478-7.9-14.354q-2.085-4.95-3.625-9.884c-3.573-11.447-4.951-22.814-4.173-34.004 1.413-20.315 9.929-40.049 25.308-58.625 10.281-12.418 23.629-24.318 39.972-35.528 59.204-40.734 150.056-59.269 193.759-39.441 6.028 2.694 10.334 3.879 10.334 3.879s-3.014-3.556-7.212-7.651a113.83 113.83 0 0 0-67.816-29.957 220 220 0 0 0-25.511-1.078" clip-rule="evenodd"/><path fill="url(#paint1_linear_9169_731)" d="M88.147 380.874c24.22 29.095 57.482 42.566 108.398 39.764a247 247 0 0 0 87.3-22.953 326.4 326.4 0 0 0 87.622-59.377c72.875-69.182 95.588-158.408 53.499-209.595 0 0-4.306-1.185-10.334-3.879-43.703-19.828-134.555-1.293-193.759 39.441-16.343 11.21-29.691 23.11-39.972 35.528-15.32 18.603-23.841 38.426-25.308 58.625-.778 11.19.6 22.557 4.173 34.004a110 110 0 0 0 3.625 9.884c3.352 7.876 5.313 11.748 7.9 14.354-1.64-2.271-.966-9.998 2.434-22.975 11.84-46.66 53.391-88.687 103.553-104.528 10.442-3.34 15.07-4.095 26.911-4.095 15.286 0 21.637 1.078 31.54 6.035 6.997 3.341 7.75 1.401 6.243 13.578 1.185-8.19 1.83-8.621 4.629-3.125 29.602 56.143.538 117.028-75.889 158.408-65.663 35.561-146.612 44.829-182.565 20.906"/><defs><linearGradient id="paint0_linear_9169_731" x1="67.48" x2="446.038" y1="351.348" y2="144.253" gradientUnits="userSpaceOnUse"><stop stop-color="#57AEE6"/><stop offset="1" stop-color="#3772D5"/></linearGradient><linearGradient id="paint1_linear_9169_731" x1="148.095" x2="464.865" y1="383.107" y2="195.395" gradientUnits="userSpaceOnUse"><stop stop-color="#3163E2"/><stop offset="1" stop-color="#F96CF0"/></linearGradient></defs></svg>
