<svg xmlns="http://www.w3.org/2000/svg" fill="none" viewBox="0 0 512 512"><path fill="#000" d="M256 512c141.385 0 256-114.615 256-256S397.385 0 256 0 0 114.615 0 256s114.615 256 256 256"/><path fill="#4BFF00" d="M252.529 73.004a183.5 183.5 0 0 0-101.959 30.913 183.5 183.5 0 0 0-27.826 282.335 183.5 183.5 0 0 0 93.961 50.223 183.5 183.5 0 0 0 106.03-10.448 183.5 183.5 0 0 0 82.347-67.6 183.5 183.5 0 0 0 30.034-119.935 183.44 183.44 0 0 0-52.856-111.753 183.47 183.47 0 0 0-129.731-53.735m0 326.921a143.3 143.3 0 0 1-97.779-38.43 143.25 143.25 0 0 1-45.283-94.791 143.3 143.3 0 0 1 31.546-100.215 143.3 143.3 0 0 1 91.427-51.755v87.715a57.76 57.76 0 0 0-30.069 25.508 57.77 57.77 0 0 0-6.703 38.864 57.72 57.72 0 0 0 19.797 34.098 57.77 57.77 0 0 0 37.064 13.461 57.77 57.77 0 0 0 37.064-13.461 57.72 57.72 0 0 0 19.796-34.096 57.775 57.775 0 0 0-36.775-64.37v-87.852a143.3 143.3 0 0 1 91.427 51.755 143.3 143.3 0 0 1 31.546 100.215 143.25 143.25 0 0 1-45.283 94.791 143.3 143.3 0 0 1-97.779 38.426v.133z"/></svg>
