<svg xmlns="http://www.w3.org/2000/svg" fill="none" viewBox="0 0 277 320"><path fill="#000" d="M159.507 21.3c-76.347 0-138.24 61.983-138.24 138.444v43.077A181.4 181.4 0 0 0 0 234.216v-74.472C0 71.52 71.414 0 159.507 0H276.48v21.3z"/><path fill="#000" d="M159.507 63.898c-52.855 0-95.704 42.912-95.704 95.846v6.125a181 181 0 0 0-21.268 15.579v-21.704c0-64.698 52.37-117.146 116.972-117.146H276.48v21.3z"/><path fill="#000" d="M108.167 145.85c6.101-22.671 26.775-39.354 51.34-39.354H276.48V85.197H159.507c-39.306 0-71.496 30.51-74.246 69.173a179 179 0 0 1 22.906-8.52m51.34 35.193c-76.347 0-138.24 61.984-138.24 138.445H0c0-52.255 25.054-98.651 63.788-127.795l.015-.012c26.66-20.054 59.796-31.937 95.704-31.937H276.48v21.299z"/><path fill="#000" d="M63.803 319.488c0-52.934 42.849-95.846 95.704-95.846H276.48v-21.3H159.507c-64.601 0-116.972 52.448-116.972 117.146z"/><path fill="#000" d="M106.338 319.488c0-29.408 23.805-53.248 53.169-53.248H276.48v-21.299H159.507c-41.11 0-74.436 33.375-74.436 74.547z"/></svg>
