<svg xmlns="http://www.w3.org/2000/svg" fill="none" viewBox="0 0 512 512"><path fill="#000" d="M256 512c141.385 0 256-114.615 256-256S397.385 0 256 0 0 114.615 0 256s114.615 256 256 256Z"/><path fill="#fff" d="M105.299 103.225c-11.558 12.127-21.093 22.33-21.189 22.522-.096.289 10.306 10.491 23.115 22.618 12.81 12.223 23.983 22.907 24.753 23.581l1.445 1.347-2.601 4.331c-22.826 37.729-27.546 83.158-13.195 124.929 2.697 7.892 7.32 17.998 11.269 24.639 1.926 3.272 2.793 5.39 2.6 5.775-.192.385-11.846 12.704-25.908 27.43-14.062 14.63-25.523 26.853-25.716 27.046-.096.288 39.296 38.306 43.053 41.386l1.444 1.251 22.249-23.196a16438.79 16438.79 0 0 0 25.427-26.66l3.274-3.272 3.082 1.925c15.7 10.009 34.096 16.939 54.418 20.596 10.209 1.829 29.664 2.31 40.548.963 20.996-2.406 41.8-9.432 58.848-19.731l4.43-2.695 4.72 4.62c10.305 10.01 48.831 46.584 49.216 46.776.385.193 42.667-43.985 42.571-44.562-.096-.289-29.087-28.104-46.809-44.755l-5.875-5.582 2.697-4.428c22.634-37.632 27.353-83.253 12.713-125.313-2.119-6.16-8.572-20.02-12.328-26.372l-1.83-3.176 24.753-25.89c13.58-14.149 24.656-25.987 24.56-26.276-.385-.962-43.727-41.867-44.305-41.867-.385 0-11.268 11.068-24.271 24.735-13.002 13.571-23.789 24.736-24.078 24.832-.193.096-1.445-.481-2.601-1.348-3.274-2.213-11.557-6.737-16.18-8.854-14.062-6.449-27.161-10.395-42.378-12.609-7.898-1.155-31.591-1.347-38.911-.288-17.529 2.502-31.88 6.833-46.52 14.148-4.238 2.021-9.15 4.716-11.076 5.871l-3.467 2.117-3.949-3.849c-2.119-2.118-11.751-11.165-21.286-20.309-9.535-9.047-19.262-18.286-21.574-20.596l-4.238-4.139-20.9 22.329Zm161.711 62.753c15.314 1.829 28.991 7.026 41.608 15.881 6.453 4.524 16.084 14.148 20.611 20.597 25.716 36.381 20.804 85.852-11.558 116.17-27.642 25.794-67.612 31.569-101.226 14.437-24.271-12.416-41.415-35.13-46.905-62.368-1.733-8.662-1.733-24.832 0-33.398 1.638-8.469 3.853-14.533 7.995-23.003 16.566-33.301 52.491-52.743 89.475-48.316Z"/></svg>