<svg xmlns="http://www.w3.org/2000/svg" fill="none" viewBox="0 0 325 323"><path fill="#000" d="M195.17 174.053q58.794.16 117.555-.321c15.695-.129 18.397-23.772-4.117-23.74q-54.451.065-111.701-.16-7.043-.032-2.058-5.012A33165 33165 0 0 0 317.196 22.492c14.087-14.134-2.959-30.55-15.471-18.053L176.291 129.722q-2.991 2.988-3.023-1.253-.033-55.028.032-109.96c.032-22.23-23.125-21.62-23.189-5.043q-.13 58.112-.193 113.333 0 5.076-3.603 1.51a130379 130379 0 0 0-77.898-77.805c-9.938-9.862-23.64-3.084-19.94 11.854a5.64 5.64 0 0 0 1.511 2.634l80.889 80.824q4.182 4.176-1.704 4.176-55.642 0-114.66.032c-15.6 0-14.698 23.933 2.22 23.965q56.83.16 111.411.096 3.826-.032 1.125 2.667A27705 27705 0 0 0 3.578 302.453c-9.681 9.701 2.283 23.161 12.221 19.21q3.603-1.446 10.614-8.481a24985 24985 0 0 1 121.639-121.364q1.576-1.607 1.608.642.901 57.245.161 114.554c-.289 22.519 23.801 18.921 23.608 3.566a4852 4852 0 0 1 .064-119.854q.032-2.12 1.544-.643l88.543 88.148a5.5 5.5 0 0 0 2.799 1.478c12.254 2.216 20.841-11.243 11.353-20.431a3328 3328 0 0 1-83.301-83.522q-1.673-1.735.739-1.703"/></svg>
