<svg xmlns="http://www.w3.org/2000/svg" fill="none" viewBox="0 0 512 512"><path fill="#000" fill-rule="evenodd" d="M512 256c0 141.385-114.615 256-256 256S0 397.385 0 256 114.615 0 256 0s256 114.615 256 256" clip-rule="evenodd"/><path fill="url(#paint0_radial_7504_1472)" d="M348.606 198.439a7.92 7.92 0 0 1-5.734 7.374 7.9 7.9 0 0 1-3.299.231 152.4 152.4 0 0 0-32.15-.089c-21.568 2.243-39.584 8.872-56.141 15.044l-2.994 1.103c-17.584 6.489-33.799 12.078-53.02 12.522a113 113 0 0 1-25.07-2.37 19.7 19.7 0 0 1-10.117-5.297 19.67 19.67 0 0 1-5.475-10.013 99 99 0 0 1-1.865-19.113 97.78 97.78 0 0 1 28.683-69.177A98 98 0 0 1 250.673 100a97.98 97.98 0 0 1 69.249 28.654 97.78 97.78 0 0 1 28.684 69.177z"/><path fill="url(#paint1_linear_7504_1472)" d="M161.457 247.057c-7.359-1.762-14.07 6.122-10.442 12.763l96.131 176.055a4.07 4.07 0 0 0 3.578 2.125 4.07 4.07 0 0 0 3.578-2.125l106.103-194.318a11.53 11.53 0 0 0 .543-10.467 11.57 11.57 0 0 0-8.155-6.593 144 144 0 0 0-43.771-2.395c-19.5 2.04-35.702 8.035-52.525 14.258l-2.677.989c-17.61 6.502-36.083 13.016-58.298 13.523a132 132 0 0 1-34.065-3.815"/><path fill="url(#paint2_linear_7504_1472)" d="M250.673 241.924a4.9 4.9 0 0 1 3.198-4.575l2.677-.989c16.823-6.223 32.986-12.218 52.525-14.258a144 144 0 0 1 43.771 2.395 11.57 11.57 0 0 1 8.155 6.593c.742 1.664 1.08 3.48.986 5.299a11.56 11.56 0 0 1-1.529 5.168L254.302 435.875a4.01 4.01 0 0 1-3.629 2.117z"/><defs><radialGradient id="paint0_radial_7504_1472" cx="0" cy="0" r="1" gradientTransform="matrix(-956.31568 313.14494 -517.43227 -1580.1903 438.515 144.901)" gradientUnits="userSpaceOnUse"><stop stop-color="#fff"/><stop offset=".12" stop-color="#fff" stop-opacity=".95"/><stop offset="1" stop-color="#fff" stop-opacity="0"/></radialGradient><linearGradient id="paint1_linear_7504_1472" x1="255.944" x2="255.944" y1="12.183" y2="512.011" gradientUnits="userSpaceOnUse"><stop stop-color="#fff"/><stop offset="1" stop-color="#fff" stop-opacity=".5"/></linearGradient><linearGradient id="paint2_linear_7504_1472" x1="306.296" x2="306.296" y1="221.393" y2="528.295" gradientUnits="userSpaceOnUse"><stop stop-color="#fff"/><stop offset="1" stop-color="#fff" stop-opacity="0"/></linearGradient></defs></svg>
