<svg xmlns="http://www.w3.org/2000/svg" fill="none" viewBox="0 0 512 512"><path fill="#000" d="M256 512c141.385 0 256-114.615 256-256S397.385 0 256 0 0 114.615 0 256s114.615 256 256 256Z"/><path fill="#78C8C0" d="M415.633 220.618c-1.218-.084-1.582.703-2.268 1.515-26.439 31.443-45.345 53.797-56.717 67.062-.758.883-1.063 1.093-.967 2.365 2.921 39.427 5.83 78.856 8.728 118.287.046.665-.167 1.029-.716 1.435-17.652 13.098-37.253 21.81-58.353 27.861-36.187 10.382-73.349 8.78-108.745-3.486-4.314-1.493-8.694-2.661-13.004-4.042a.688.688 0 0 1-.373-1.007.685.685 0 0 1 .302-.269c9.498-4.323 19.43-9.077 29.116-11.83 1.255-.36 2.992-.36 4.456-.067 28.61 5.733 57.024 5.084 85.244-1.946a43.556 43.556 0 0 0 6.037-2.009c6.759-2.792 13.513-5.6 20.263-8.423 4.326-1.808 7.816-3.725 11.539-6.131.424-.273.791-.655 1.101-1.146a.663.663 0 0 0 .072-.544.646.646 0 0 0-.369-.402 8869.696 8869.696 0 0 0-87.75-35.599c-.439-.175-1.004-.142-1.481.059a164080.416 164080.416 0 0 0-108.883 46.127.832.832 0 0 1-.829-.105c-52.232-39.436-80.708-101.355-75.407-166.732a.477.477 0 0 1 .587-.419.466.466 0 0 1 .229.139l22.932 25.107c.1.109.163.236.188.381.316 1.763.604 3.518.866 5.265 2.6 17.302 7.297 33.874 14.092 49.717.078.184.23.287.456.31.142.011.233.086.272.226.372 1.335.72 2.628 1.318 3.9 8.532 18.161 19.853 34.347 33.961 48.558 2.828 2.846 5.251 4.582 8.694 6.122a.175.175 0 0 0 .223-.067.159.159 0 0 0 .024-.079 380641.5 380641.5 0 0 0 5.376-92.572c.042-.733-.167-1.222-.673-1.804-3.186-3.68-5.272-6.069-6.259-7.168a540343.958 540343.958 0 0 1-72.634-80.822c-.761-.85-.929-1.607-.527-2.741 21.213-60.05 68.684-105.281 130.414-121.852a.311.311 0 0 1 .381.218c.072.261.02.547-.155.857a8434.388 8434.388 0 0 0-14.431 25.346c-.18.314-.611.783-.979.975-10.909 5.608-21.144 11.878-30.706 18.81-22.032 15.969-39.552 35.998-52.559 60.087-2.181 4.712-3.702 8.922-4.999 12.998a2.605 2.605 0 0 0-.105 1.067.577.577 0 0 0 .484.515c.084.014.17.009.252-.013 30.28-8.478 60.492-16.906 90.675-25.208.406-.113.916-.511 1.171-.929 20.318-33.449 40.636-66.898 60.956-100.347.243-.4.452-.729.628-.988a.4.4 0 0 1 .347-.18c21.882.178 42.94 4.013 63.174 11.504 41.638 15.413 74.332 41.832 98.08 79.256.368.581.641 1.098.82 1.553a.44.44 0 0 1 .023.23.441.441 0 0 1-.29.339.442.442 0 0 1-.231.013 55831.838 55831.838 0 0 0-34.727-7.612c-1.163-.251-1.845-.415-2.69-1.327-29.409-31.782-68.688-54.153-112.264-58.3-1.464-.138-1.82 1.201-1.138 2.28 16.334 25.892 32.675 51.778 49.024 77.659.242.389.815.887 1.158.971 39.19 9.56 78.381 19.114 117.574 28.66.32.078.613.21.878.394a.558.558 0 0 1 .23.322c1.956 7.384 3.228 12.361 3.816 14.931 4.851 21.171 5.722 42.341 2.615 63.51-.697 4.737-1.754 10.411-3.171 17.023-6.232 29.091-18.947 54.952-38.145 77.583a.466.466 0 0 1-.369.171h-.761a.336.336 0 0 0-.318.193l-2.339 4.503a.434.434 0 0 1-.326.228.433.433 0 0 1-.373-.141c-.103-.117-.164-.283-.184-.498a6543.96 6543.96 0 0 1-2.832-32.15c-.025-.31.104-.523.075-.854a.738.738 0 0 1 .075-.393 4038.238 4038.238 0 0 1 9.427-18.852c1.389-2.756 2.53-5.3 3.422-7.633a206.74 206.74 0 0 0 12.51-51.525 69.65 69.65 0 0 0 .419-6.909c.128-11.282-.677-22.371-2.414-33.268-.413-2.588-1.048-5.247-1.904-7.975a.352.352 0 0 0-.339-.268ZM181.52 354.43c-.075 1.083-.59 4.645 1.904 3.577a37807.404 37807.404 0 0 0 69.529-29.748c.648-.276 1.564-.46 2.142-.218 24.568 10.336 49.14 20.664 73.717 30.983 1.966.825 2.749.042 2.602-2.004a80272.005 80272.005 0 0 1-5.485-77.629c-.053-.756.255-1.529.925-2.318 16.1-18.921 32.195-37.846 48.287-56.777.644-.758 1.912-2.712 1.682-3.708a.587.587 0 0 0-.205-.331 3.06 3.06 0 0 0-1.209-.602 46605.285 46605.285 0 0 0-49.869-12.55c-7.824-1.963-15.598-3.092-23.464-5.519-2.138-.657-3.531-1.273-4.794-3.235-10.176-15.776-24.135-37.638-41.878-65.586-.435-.682-1.184-.439-1.56.168a56661.646 56661.646 0 0 0-39.605 64.376c-.366.597-.755.948-1.168 1.054a7030.396 7030.396 0 0 0-61.726 16.015c-5.807 1.536-11.489 2.825-17.258 4.134-1.774.406-.368 2.34.242 3.022 20.147 22.611 37.353 41.776 51.618 57.496.622.684.913 1.3.874 1.85l-5.301 77.55Z"/></svg>