<svg xmlns="http://www.w3.org/2000/svg" fill="none" viewBox="0 0 512 512"><path fill="#000" d="M256 512c141.385 0 256-114.615 256-256S397.385 0 256 0 0 114.615 0 256s114.615 256 256 256Z"/><path fill="url(#paint0_linear_2081_171)" fill-rule="evenodd" d="m67.996 264.605 2.915 5.585c10.335 18.083 33.391 24.199 51.411 13.828l159.002-92.277 9.54 15.424 6.36 10.903 1.06 4.787v164.343c0 20.743 16.96 37.762 37.63 37.762h6.36c20.671 0 37.631-17.019 37.631-37.762V128.184c0-19.413-11.925-36.166-28.885-43.346-15.636-8.244-34.186-7.978-49.556.798L81.776 213.015c-18.02 10.371-13.78 51.59-13.78 51.59Z" clip-rule="evenodd"/><path fill="url(#paint1_linear_2081_171)" fill-rule="evenodd" d="M186.983 187.752c16.43-2.393 52.735.798 67.84 4.255 15.106 3.457 28.621 14.36 28.621 14.36l-1.325-.532c11.395 5.053 16.165 16.754 16.165 16.754-5.035-55.845-44.256-97.596-108.651-72.333l-103.882 60.1c-.53.266 12.72-9.839 101.497-22.87l-.265.266Z" clip-rule="evenodd"/><path fill="url(#paint2_linear_2081_171)" fill-rule="evenodd" d="m141.667 360.074 58.301-33.241 3.71-2.128s6.36-3.457 11.66 0 5.035 7.978 5.035 7.978l.795 74.194s-2.12 6.116-5.83 8.244c-3.71 2.127-6.095 2.659-11.925.798-19.875-6.649-55.121-21.009-65.986-40.422-1.855-3.191-1.325-6.914-.53-8.775 1.06-3.989 3.445-5.851 4.77-6.648Z" clip-rule="evenodd"/><path fill="url(#paint3_linear_2081_171)" fill-rule="evenodd" d="M62.696 246.788s-3.18-17.019 14.045-30.848c2.12-1.595 4.505-3.191 7.155-4.52 24.911-14.626 86.656-21.275 103.087-23.668 16.43-2.393 52.735.798 67.84 4.255 15.106 3.457 28.621 14.36 28.621 14.36s-15.635-6.914-32.331 2.659l-128.791 74.726s-12.72 6.648-21.465 5.053c-9.01-1.862-18.816-2.925-27.296-14.626l-5.565-9.574-2.65-5.318-1.855-6.648-.795-5.851Z" clip-rule="evenodd"/><defs><linearGradient id="paint0_linear_2081_171" x1="221.18" x2="221.18" y1="78.775" y2="424.88" gradientUnits="userSpaceOnUse"><stop stop-color="#4DFC8D"/><stop offset="1" stop-color="#1FC3F1"/></linearGradient><linearGradient id="paint1_linear_2081_171" x1="253.017" x2="42.732" y1="63.141" y2="324.213" gradientUnits="userSpaceOnUse"><stop stop-color="#216882"/><stop offset=".3" stop-color="#3AA698"/><stop offset=".5" stop-color="#53E4AF"/><stop offset="1" stop-color="#53E4AF"/></linearGradient><linearGradient id="paint2_linear_2081_171" x1="141.667" x2="292.954" y1="340.395" y2="415.062" gradientUnits="userSpaceOnUse"><stop stop-color="#4DFC8D"/><stop offset=".5" stop-color="#1FC3F1"/><stop offset="1" stop-color="#1FC3F1"/></linearGradient><linearGradient id="paint3_linear_2081_171" x1="187.407" x2="148.74" y1="179.455" y2="293.191" gradientUnits="userSpaceOnUse"><stop stop-color="#216882"/><stop offset="1" stop-color="#53E4AF"/></linearGradient></defs></svg>