<svg xmlns="http://www.w3.org/2000/svg" fill="none" viewBox="0 0 512 512"><path fill="#000" fill-rule="evenodd" d="M512 256C512 114.688 397.312 0 256 0S0 114.688 0 256c0 48.074 13.274 93.067 36.353 131.511l132.974-133.56 59.538 59.801 208.383-209.304-208.383 284.057-59.538-59.801L68.372 430.105C115.132 480.47 181.906 512 256 512c141.312 0 256-114.688 256-256Z" clip-rule="evenodd"/><path fill="#16CA83" d="m169.327 328.704 59.538 59.801 208.383-284.057-208.383 209.304-59.538-59.801-132.974 133.56a257.101 257.101 0 0 0 32.019 42.594l100.955-101.401Z"/></svg>