<svg xmlns="http://www.w3.org/2000/svg" fill="none" viewBox="0 0 360 358"><path fill="#000001" d="M353.825 118.761 278.346 8.99C266.507-8.07 239.867.83 240.607 21.598c.74 19.285 8.14 39.31 25.16 64.528-7.4-5.192-111.739-84.553-236.797-42.277-13.32 5.192-20.72 16.318-17.02 29.668 2.96 11.867 15.54 19.284 28.12 17.801 26.64-4.45 52.54-6.675 78.439-4.45s51.059 8.9 74.739 20.026c23.679 11.125 44.399 28.184 64.379 46.727 22.199 21.509 49.579 66.752 49.579 66.752a14.07 14.07 0 0 0 7.12 5.779 14.03 14.03 0 0 0 9.16.155c7.4-2.967 11.099-11.126 8.14-18.543a287.5 287.5 0 0 0-21.46-44.501c9.62 3.708 17.76 8.158 28.119 5.192 8.14-1.484 15.54-7.417 18.5-14.834a35.67 35.67 0 0 0-2.96-34.86M6.438 238.317 82.01 349.201c11.855 17.116 37.786 7.442 37.045-13.396a121.6 121.6 0 0 0-24.45-64c6.669 5.209 111.875 84.093 236.346 41.675 14.077-5.21 20.745-16.372 17.04-29.768-2.963-11.907-15.559-19.349-28.154-17.116-25.931 4.465-52.603 5.953-78.535 3.721s-51.121-8.93-74.089-20.093-45.194-28.279-64.458-46.884c-22.226-21.582-49.64-66.233-49.64-66.233a14.1 14.1 0 0 0-7.76-6.381 14.02 14.02 0 0 0-10.021.428c-6.668 2.976-9.632 11.162-7.409 18.604a288.5 288.5 0 0 0 21.486 43.907c-9.632-3.721-17.781-7.442-28.154-5.209-8.15 1.488-15.559 7.442-18.522 15.628a35.86 35.86 0 0 0 3.704 34.233"/></svg>
