<svg xmlns="http://www.w3.org/2000/svg" fill="none" viewBox="0 0 512 512"><path fill="#000" fill-rule="evenodd" d="M512 256c0 141.385-114.615 256-256 256S0 397.385 0 256 114.615 0 256 0s256 114.615 256 256" clip-rule="evenodd"/><path fill="#fff" d="M323.561 213.258 278.769 90.491a5.54 5.54 0 0 1 .641-5.052 5.51 5.51 0 0 1 4.499-2.377q33.321-.103 66.302-.035c9.564 0 16.882 6.544 20.387 15.849a17707 17707 0 0 1 57.113 153.442 4.6 4.6 0 0 1 0 3.203 130322 130322 0 0 0-56.364 155.351c-3.71 10.259-10.653 17.723-21.374 17.893q-32.13.512-64.226-.204c-7.829-.17-7.727-5.283-5.718-11.145a39597 39597 0 0 1 42.919-123.006 2.62 2.62 0 0 0-2.485-3.476H247.15a4.15 4.15 0 0 0-3.914 2.76 10924 10924 0 0 1-43.022 118.439c-3.471 9.407-10.687 16.564-20.387 16.666q-32.3.342-65.996.103a5.896 5.896 0 0 1-5.514-7.805q28.59-82.515 57.997-166.973 1.26-3.545-1.633-11.213A17359 17359 0 0 1 109.27 93.286c-2.791-7.668.817-10.259 7.999-10.259h63.579q13.615 0 19.366 15.542a632658 632658 0 0 1 42.954 115.78 1.36 1.36 0 0 0 1.259.852l77.874-.102q1.94 0 1.26-1.841"/></svg>
