<svg xmlns="http://www.w3.org/2000/svg" fill="none" viewBox="0 0 512 512"><path fill="#000" d="M256 512c141.385 0 256-114.615 256-256S397.385 0 256 0 0 114.615 0 256s114.615 256 256 256Z"/><path fill="#97FCE4" d="M453.986 255.079c.361 32.525-6.426 63.603-19.757 93.297-19.036 42.282-64.676 76.855-106.353 40.054-33.989-29.995-40.295-90.888-91.218-99.802-67.379-8.192-69.001 70.168-113.019 79.022-49.063 9.999-65.337-72.759-64.616-110.343.72-37.584 10.69-90.406 53.326-90.406 49.063 0 52.366 74.505 114.64 70.47 61.674-4.216 62.754-81.733 103.049-114.92 34.77-28.67 75.666-7.649 96.143 26.863 18.977 31.922 27.325 69.385 27.745 105.765h.06Z"/></svg>