<svg xmlns="http://www.w3.org/2000/svg" fill="none" viewBox="0 0 512 512"><path fill="#000" d="M256 512c141.385 0 256-114.615 256-256S397.385 0 256 0 0 114.615 0 256s114.615 256 256 256"/><path fill="#5488E2" d="M274.453 143.586c-47.962 6.276-87.986 40.081-98.96 87.273q-2.841 12.163-2.88 37.187-.097 50.184-.019 100.465a.66.66 0 0 0 .661.66h38.156q1.012 0 1.012-1.01.117-49.154.039-98.172c-.039-28.424 2.938-46.124 21.617-65.455a.723.723 0 0 1 1.127.095.7.7 0 0 1 .118.41v185.99a.97.97 0 0 1-.972.971h-84.193a.82.82 0 0 1-.817-.816q-.408-63.53.097-127.141.195-22.46 2.958-35.262c14.846-68.544 77.674-112.706 147.585-108.392q1.011.057 1.011 1.088v246.296a.85.85 0 0 0 .291.644.83.83 0 0 0 .682.191c47.146-6.955 87.792-39.693 98.766-87.059q2.802-12.085 2.861-36.04.116-50.962.019-102.02a.66.66 0 0 0-.661-.66h-38.157q-1.011 0-1.011 1.01a23693 23693 0 0 0-.039 96.113c.058 29.667-2.257 47.581-21.617 67.514a.721.721 0 0 1-1.246-.505v-185.99q0-.97.973-.971h84.134q.973 0 .973.971.078 65.611 0 131.143c-.097 83.465-67.615 144.005-150.192 139.633q-1.557-.096-1.557-1.67l.02-245.811q0-.776-.779-.68M85.016 183.298c0-25.082 3.891-43.695 23.465-59.199q1.343-1.068 1.343.661v265.472a.8.8 0 0 1-.778.797h-22.96q-1.05 0-1.051-1.05-.058-103.379-.02-206.681"/></svg>