<svg xmlns="http://www.w3.org/2000/svg" fill="none" viewBox="0 0 512 512"><path fill="#000" fill-rule="evenodd" d="M512 256c0 141.385-114.615 256-256 256S0 397.385 0 256 114.615 0 256 0s256 114.615 256 256Z" clip-rule="evenodd"/><path fill="#9061FF" d="M81.11 237.575 197.427 70l58.782 85.038-59.616 84.621H82.362c-.418 0-.418 0-.834-.416-.417 0-.417-.417-.417-.417v-.834c-.417 0 0 0 0-.417Z"/><path fill="#9061FF" d="M430.889 237.575 314.574 70l-58.366 85.038 59.2 85.038h114.23c.417 0 .417 0 .834-.416.417 0 .417-.417.417-.417v-.834c.417-.417 0-.417 0-.834Z"/><path fill="#297FFF" d="M432.974 261.753c.417 23.344-4.169 46.687-12.924 68.364-8.755 21.676-21.679 41.685-38.355 58.359-16.676 16.675-36.27 30.014-57.532 38.768C302.901 435.998 279.555 441 255.792 441c-23.347 0-46.693-4.585-68.372-13.756-21.679-9.171-41.273-22.093-57.532-38.768-16.259-16.674-29.6-36.266-38.355-58.359-8.338-21.677-12.924-45.02-12.507-68.364H191.59c0 8.754 1.251 17.091 4.586 25.011 3.335 7.92 7.921 15.424 13.758 21.26 5.836 6.252 13.34 10.838 21.261 14.173 7.922 3.334 16.26 5.002 25.014 5.002 8.755 0 17.093-1.668 25.014-5.002 7.922-3.335 15.009-8.337 21.262-14.173 5.837-6.253 10.84-13.34 13.758-21.26 3.335-7.92 4.586-16.674 4.586-25.011h112.146Z"/></svg>