<svg xmlns="http://www.w3.org/2000/svg" fill="none" viewBox="0 0 512 512"><path fill="#000" fill-rule="evenodd" d="M512 256c0 141.385-114.615 256-256 256S0 397.385 0 256 114.615 0 256 0s256 114.615 256 256" clip-rule="evenodd"/><path fill="#DE6B38" d="M305.185 148.374a13.85 13.85 0 0 1 6.418-6.071c3.786-1.739 7.617-1.915 11.143.568a8.5 8.5 0 0 1 2.759 3.306c3.177 6.852 6.338 13.717 9.241 20.709 4.661 11.294 10.977 21.792 16.138 32.858a6385 6385 0 0 0 22.174 47.108c4.269 8.969 8.312 18.141 13.675 26.593a65 65 0 0 0 4.808 6.393 7.6 7.6 0 0 0 2.665 1.936c7.823 3.562 16.25 4.244 24.651 4.767 4.285.27 8.492-.304 12.748-.305 8.156.014 16.308.028 24.422.306 5.373.191 10.742.807 16.089 1.364 2.064.288 4.109.715 6.118 1.279a11.8 11.8 0 0 1 2.41.973c4.361 2.22 5.233 5.943 2.228 9.724a25.76 25.76 0 0 1-9.446 7.469 132.7 132.7 0 0 1-24.592 8.219 459 459 0 0 0-24.823 6.806 240.4 240.4 0 0 1-38.509 8.695 201 201 0 0 1-26.229 1.635c-7.885.03-15.761-.563-23.669-.847-12.064-.442-24.092-1.334-36.139-2.312a143.3 143.3 0 0 0-52.233 5.818c-11.396 3.315-22.836 6.513-34.191 10.116-5.349 1.696-10.523 4.148-15.626 6.353-6.746 2.889-13.417 6.014-20.225 8.811-16.576 6.887-33.839 11.247-52.042 11.309a167.3 167.3 0 0 1-28.573-1.781c-5.648-.973-11.353-1.413-16.896-3.338-17.755-6.265-29.588-18.004-33.793-36.363a32.4 32.4 0 0 1-.121-14.529 32.55 32.55 0 0 1 6.243-13.142c2.99-3.924 5.873-8.058 9.094-11.858A72.75 72.75 0 0 1 84.6 272.33a71.9 71.9 0 0 1 27.121-7.547 92 92 0 0 1 18.2.094c2.061.225 4.088.759 6.137 1.097l3.07.336q.383-1.107.578-2.261c.465-6.482.873-12.97 1.31-19.455.187-1.709.273-3.414.344-5.121.145-3.427.175-6.853.39-10.259.485-7.585.401-15.233 2.084-22.715.236-1.176.367-2.371.39-3.571.249-5.953 2.38-11.36 4.928-16.635q.377-.819.89-1.561a74.6 74.6 0 0 1 17.573-16.91 141.9 141.9 0 0 1 43.078-20.084 194 194 0 0 1 32.965-6.141 128.6 128.6 0 0 1 30.899 1.03c3.522.541 7.079 1.03 10.577 1.271a62 62 0 0 1 17.762 3.829c.707.247 1.382.392 2.289.647M147.18 268.31c1.116.448 2.208.979 3.365 1.318a7414 7414 0 0 0 25.625 7.694l1.256.222a8.5 8.5 0 0 0-3.031-1.479c-6.392-1.933-12.752-3.876-19.165-5.74-2.648-.772-5.363-1.338-8.038-1.999-.522-3.373-.226-3.978 2.874-5.354 1.348-.617 2.711-1.12 4.046-1.753a291.5 291.5 0 0 1 64.54-19.563 424 424 0 0 1 51.128-6.364 346 346 0 0 1 44.262-.285 187.6 187.6 0 0 1 33.783 4.647 84.5 84.5 0 0 1 14.835 4.812 7.78 7.78 0 0 1 3.916 3.646c2.278 4.429 4.688 8.803 7.056 13.2l10.639 19.771c.382.708 1.11 1.411.241 2.662-1.865-.573-3.851-1.102-5.774-1.78a149.7 149.7 0 0 0-30.66-7.04c-10.32-1.385-20.738-2.27-31.136-2.941-8.214-.516-16.485-.387-24.734-.454-4.947-.16-9.898-.064-14.833.29-9.16.896-18.27 2.251-27.395 3.35l-44.67 5.724c-.496.059-.982.162-1.465.237l-.058.532a118.4 118.4 0 0 1 19.682 4.166c-4.044-.244-8.061-.74-12.091-1.111-4.03-.37-8.123-.563-12.207-.967-4.084-.405-7.768-1.701-11.824-1.181a11 11 0 0 0 2.717 1.459 222 222 0 0 0 23.709 7.853c11.033 2.752 21.984 5.864 32.951 8.836 3.941 1.055 7.841 2.346 11.852 3.026 6.495 1.108 13.053 1.91 19.605 2.628 4.663.51 9.349.796 14.028 1.152 3.823.291 7.613.494 11.423.769 9.372.714 18.745.635 28.124.499a287.4 287.4 0 0 0 43.794-3.893c4.945-.876 9.808-2.2 14.668-3.51 4.446-1.186 8.757-2.74 13.189-3.941 7.585-2.004 15.345-1.155 23.086-.648 1.986.119 3.959.504 5.942.792 2.577.382 5.124.887 7.714 1.142 5.344.585 10.714 1.06 16.09 1.365 5.017.279 10.024.403 15.093.348a30 30 0 0 0 6.379-1.116 6.5 6.5 0 0 0 2.489-1.314c2.113-1.71 1.989-3.708-.46-4.869a21.7 21.7 0 0 0-6.177-1.895 151.5 151.5 0 0 0-23.105-1.679c-3.472.046-6.948.133-10.416.136-2.257-.006-4.518-.126-6.781-.19 4.406 1.134 8.848 1.947 13.271 2.799 4.086.788 8.165 1.617 12.245 2.46q1.269.356 2.479.881l-.144.508c-.578.022-1.159.086-1.731.052a115 115 0 0 1-4.942-.329c-5.366-.488-10.736-.863-16.066-1.56-5.334-.697-10.972-1.753-16.459-2.595-5.066-.781-10.168-1.354-15.204-2.245a95.3 95.3 0 0 1-18.118-5.313 5.56 5.56 0 0 1-3.051-2.616c-5.141-9.547-10.432-19.011-15.479-28.619-5.681-10.796-11.206-21.689-16.731-32.582-4.165-8.208-8.36-16.404-12.283-24.713a2541 2541 0 0 1-16.422-35.92c-1.778-3.993-3.961-7.831-4.419-12.189-3.502-1.39-8.751-.08-10.894 2.676 2.689 1.711 6.439 1.229 9.21 4.168a8.9 8.9 0 0 1-2.536.828 20 20 0 0 1-4.367-.578c-3.361-.835-6.627-2.142-10.038-2.784-5.786-1.144-11.632-2.011-17.455-2.96a99.4 99.4 0 0 0-18.173-1.124c-6.673.119-13.387-.049-20.048.228-21.882 1.091-42.243 7.592-61.699 17.139a126.6 126.6 0 0 0-18.08 11.158 24.03 24.03 0 0 0-8.046 9.251c-5.155 10.957-7.125 22.645-7.855 34.568-.375 6.321-.754 12.671-1.196 18.943-.442 6.271-.947 12.465-1.456 18.688-.279 2.548-.559 5.111-.738 7.67-.388 1.049-.561 2.093.344 2.9m330.087 33.112c-2.45.837-4.847 1.837-7.343 2.442a54 54 0 0 1-9.687 1.773c-6.356.368-12.631-.787-18.915-1.588s-12.219-1.649-18.324-2.516a29.4 29.4 0 0 0-9.07.326c-7.062 1.182-13.623 3.978-20.456 5.937-4.07 1.17-8.094 2.586-12.226 3.537-5.562 1.29-11.246 2.085-16.823 3.373a102 102 0 0 1-21.227 1.928c-10.616.142-21.159-.786-31.739-1.377-5.889-.333-11.786-.34-17.693-.519-6.601-.27-13.204-.397-19.76-1.086-5.771-.632-11.482-1.81-17.203-2.889a129 129 0 0 1-19.09-5.109c-10.65-3.758-21.289-7.488-32.028-10.959a1810 1810 0 0 0-41.274-12.822c-10.64-3.191-21.324-6.245-32.096-9.026a47.3 47.3 0 0 0-12.366-1.481 70.3 70.3 0 0 0-28.422 6.696 143 143 0 0 0-15.287 8.246 71.6 71.6 0 0 0-10.75 8.063c-7.568 7.03-12.79 16.162-14.978 26.192a27.86 27.86 0 0 0 3.023 20.864 53.3 53.3 0 0 0 11.8 13.621q.466.365.978.659a25 25 0 0 0-3.049-4.471 48.7 48.7 0 0 1-8.314-14.188c-2.546-7.492-2.464-14.81 1.584-21.834a35.8 35.8 0 0 1 11.23-11.525c8.283-5.626 17.634-8.797 27.312-11.011a186.8 186.8 0 0 1 39.458-4.878c5.631-.064 11.269.071 16.913.15 3.303.05 6.619-.012 9.891.318 5.623.39 11.215 1.14 16.742 2.243 6.057 1.428 11.919 3.728 17.828 5.721 12.181 4.097 24.367 8.152 36.488 12.397a184 184 0 0 0 30.427 7.979 287 287 0 0 0 38.915 3.225c8.244.25 16.489.615 24.724.807 5.896.15 11.83.473 17.7.067 14.043-.957 27.99-2.605 41.535-6.649 5.235-1.566 10.51-2.973 15.73-4.541 2.649-.801 5.206-1.967 7.875-2.681 8.717-2.376 17.559-1.408 26.375-.471 2.926.32 5.817.99 8.747 1.283 2.933.292 5.899.263 8.828.555 3.544.331 7.114.284 10.645-.138 5.282-.542 9.417-3.221 13.336-6.448z"/><path fill="#DE6B38" d="M206.909 176.516c-.611-.463-1.632-.859-1.823-1.475s.37-1.546.842-2.175a5.3 5.3 0 0 1 1.695-1.161 75 75 0 0 1 19.384-7.968c4.105-.967 8.295-1.926 12.438-2.72a8.3 8.3 0 0 1 2.578-.029 1.3 1.3 0 0 1 .877.791 1.57 1.57 0 0 1-.624 1.235c-.96.42-1.959.747-2.984.977q-6.402 1.722-12.816 3.415a16.8 16.8 0 0 0-7.579 4.329 14.3 14.3 0 0 1-6.979 3.7c-1.555.411-3.155.703-5.009 1.081m132.204 26.686a7.45 7.45 0 0 1-4.878-1.951 42 42 0 0 1-5.119-4.358 96.4 96.4 0 0 1-14.25-18.565 8.8 8.8 0 0 1-1.085-2.315 1.85 1.85 0 0 1 .376-1.589 1.8 1.8 0 0 1 1.647-.202 4.9 4.9 0 0 1 1.771 1.427c1.691 2.169 3.236 4.478 5.033 6.588 3.918 4.68 7.959 9.288 11.907 13.958 1.374 1.638 2.668 3.352 3.945 5.094.286.613.505 1.255.653 1.913m-214.229 70.49c.826.02 1.649.11 2.459.269a9241 9241 0 0 1 30.697 8.66c.476.133.91.386 1.258.733-12.067-1.066-23.303-5.115-34.688-8.601z"/></svg>
