<svg xmlns="http://www.w3.org/2000/svg" fill="none" viewBox="0 0 512 512"><path fill="#FF564F" d="M188.233 403.957v-295.78h-51.641v295.78zM329.368 403.89 216.22 256l113.148-147.89h64.656L282.555 256l111.469 147.89z"/><path fill="#FF564F" fill-rule="evenodd" d="M188.233 108.177v295.78h-51.641v-295.78zM329.368 403.89 216.22 256l113.148-147.89h64.656L282.555 256l111.469 147.89z" clip-rule="evenodd"/><path fill="#000" fill-rule="evenodd" d="M512 256c0 141.385-114.615 256-256 256S0 397.385 0 256 114.615 0 256 0s256 114.615 256 256M188.233 403.957v-295.78h-51.641v295.78zM216.22 256l113.148 147.89h64.656L282.555 256l111.469-147.89h-64.656z" clip-rule="evenodd"/></svg>