<svg xmlns="http://www.w3.org/2000/svg" fill="none" viewBox="0 0 512 512"><path fill="#000" fill-rule="evenodd" d="M256 512c141.385 0 256-114.615 256-256 0-78.609-35.431-148.942-91.193-195.902L198.956 283 160 244.339 374.408 28.97C338.998 10.465 298.721 0 256 0 114.615 0 0 114.615 0 256c0 78.49 35.324 148.73 90.941 195.69L307.021 235 346 273.605 137.269 482.861C172.757 501.472 213.149 512 256 512Z" clip-rule="evenodd"/><path fill="#fff" d="M346 273.605 307.021 235 90.941 451.69a256.551 256.551 0 0 0 46.328 31.171L346 273.605Zm-186-29.266L198.956 283 420.807 60.098a256.488 256.488 0 0 0-46.399-31.128L160 244.34Z"/></svg>