<svg xmlns="http://www.w3.org/2000/svg" fill="none" viewBox="0 0 512 512"><path fill="#000" fill-rule="evenodd" d="M512 256c0 141.385-114.615 256-256 256S0 397.385 0 256 114.615 0 256 0s256 114.615 256 256" clip-rule="evenodd"/><path fill="#fff" d="M139.755 250.229a49.65 49.65 0 0 0 3.524 29.282h5.874c-.587-3.221 0-6.735 1.175-9.663a16.7 16.7 0 0 1 6.755-8.199l5.287-1.757h14.097v28.403c0 6.442 0 13.469-1.174 19.911-1.469 7.028-4.112 13.177-7.93 18.154a29.34 29.34 0 0 1-11.161 9.37h10.867a105.8 105.8 0 0 0 26.433-14.64c8.223-5.856 15.272-12.884 19.971-22.254 2.35-4.392 3.525-9.37 4.406-14.348.881-4.977.881-10.248.881-15.519v-64.711c0-12.591.881-24.889 5.286-36.602a97.5 97.5 0 0 1 27.021-39.236c.587 0 1.174-.586 1.762-1.172l.587-5.27a40.3 40.3 0 0 1-17.034 7.613c-4.699.878-9.399 1.171-14.098.586-5.874-.879-11.748-2.929-17.328-5.271-5.58-1.464-11.454-3.514-17.328-4.099-5.58 0-11.161 1.171-16.154 3.513-4.699 2.343-9.398 5.857-13.216 9.663-10.573 10.248-18.503 23.425-25.258 36.309h7.636a17.8 17.8 0 0 1 3.016-6.755 17.9 17.9 0 0 1 5.501-4.958c3.525-2.342 7.93-2.928 12.629-2.635 7.343.878 14.098 3.514 21.147 5.271 7.342 1.756 14.685 2.342 21.733 0 3.231-.293 6.168-1.757 9.105-2.929l-13.51 11.713a105.6 105.6 0 0 0-11.748 12.005 49.2 49.2 0 0 0-8.517 15.519c-2.35 7.613-2.937 15.812-3.525 24.011-6.167 0-12.629.878-18.209 3.514-4.993 2.049-9.105 5.856-12.629 9.955-2.937 4.392-4.699 9.956-5.874 15.226m137.451-84.915a58.86 58.86 0 0 0 30.838 10.248l-66.669 81.402.881-58.562c.293-10.249.881-20.204 3.818-28.696 2.937-9.37 7.636-17.569 13.51-24.596 6.167-7.613 13.51-14.641 20.852-19.911l-2.349-4.392L275.15 117a135.8 135.8 0 0 0-22.321 21.375 85.92 85.92 0 0 0-19.972 60.027l-1.762 81.401c0 4.685 0 8.785-.881 12.884-.587 4.099-1.762 8.492-3.524 12.005a58.6 58.6 0 0 1-15.86 19.619c-5.874 5.27-12.042 9.663-18.503 14.055-24.95 11.101-44.994 30.877-56.39 55.634h9.986c4.111-7.32 9.985-13.177 16.74-17.569a70.68 70.68 0 0 1 51.985-7.613c14.685 3.514 27.901 10.541 39.649 19.911l46.111-37.48c2.937 7.906 6.168 15.812 11.748 21.961 4.699 6.442 10.867 11.713 17.622 15.227L380 346.857v-10.834l-22.615 18.447a61.5 61.5 0 0 1-11.748-14.64 91.8 91.8 0 0 1-9.398-24.889l-5.874-26.353a89 89 0 0 0-31.719-49.778 88.5 88.5 0 0 0-23.496-12.006l42.586-51.534a47.66 47.66 0 0 0 22.305-8.604 47.46 47.46 0 0 0 15.288-18.335c4.7-8.784 5.874-19.033 4.406-29.281h-4.699a26.94 26.94 0 0 1-11.748 16.104 29.44 29.44 0 0 1-23.496 2.05c-7.343-2.05-14.098-6.735-19.09-12.884l-40.531 50.657 4.699 4.978zm-60.208 166.317c7.342-6.149 13.803-13.469 18.209-22.546a43.8 43.8 0 0 0 4.405-14.641c1.175-4.685 1.175-9.956 1.175-14.641v-13.469h1.469l4.405-4.685c6.461 1.171 12.923 4.392 18.797 8.492 8.223 6.149 14.685 15.226 18.796 24.596 4.406 9.37 7.049 19.618 9.399 30.159 1.175 6.735 2.643 13.47 4.699 20.497l-9.692 7.613c-17.916-15.519-41.999-23.425-65.495-21.961-2.056 0-4.112 0-5.874.586z"/></svg>