<svg xmlns="http://www.w3.org/2000/svg" fill="none" viewBox="0 0 512 512"><path fill="#EABD3D" fill-rule="evenodd" d="M236.782 291.926c-13.449 9.736-27.623 18.939-42.458 27.554v-70.53a531.5 531.5 0 0 0 62.168-39.778 531.6 531.6 0 0 0 65.576 41.622v70.61c-16.052-9.165-31.345-19.013-45.8-29.478l-19.742-14.292z" clip-rule="evenodd"/><path fill="#000" fill-rule="evenodd" d="M433.953 440.035C387.889 484.586 325.146 512 256 512c-69.087 0-131.782-27.367-177.836-71.852 62.653-18.398 128.277-47.211 178.362-80.286 49.97 32.999 114.932 61.768 177.427 80.173m45.155-58.409C500.05 344.514 512 301.652 512 256 512 114.615 397.385 0 256 0S0 114.615 0 256c0 45.789 12.022 88.771 33.081 125.961 29.089-7.466 69.159-19.186 94.011-29.414v-72.698a542 542 0 0 1-64.365 19.885l-15.854-65.177c70.709-17.117 134.836-49.766 188.177-93.839L256.492 123l21.443 17.718c53.34 44.073 117.468 76.722 188.177 93.839l-15.854 65.177a542 542 0 0 1-60.959-18.608v72.784c23.473 9.49 61.919 20.541 89.809 27.716M194.324 319.48c14.835-8.615 29.009-17.818 42.458-27.554l19.744-14.292 19.742 14.292c14.455 10.465 29.748 20.313 45.8 29.478v-70.61a531.6 531.6 0 0 1-65.576-41.622 531.5 531.5 0 0 1-62.168 39.778z" clip-rule="evenodd"/><path fill="#EABD3D" fill-rule="evenodd" d="M127.092 279.849v72.698c-24.852 10.228-64.922 21.948-94.01 29.414a257 257 0 0 0 45.082 58.187c62.653-18.398 128.277-47.211 178.362-80.286 49.97 32.999 114.932 61.768 177.427 80.173a257 257 0 0 0 45.155-58.409c-27.89-7.175-66.336-18.226-89.809-27.716v-72.784a542 542 0 0 0 60.959 18.608l15.854-65.177c-70.709-17.117-134.837-49.766-188.177-93.839L256.492 123l-21.442 17.718c-53.341 44.073-117.468 76.722-188.177 93.839l15.855 65.177a542 542 0 0 0 64.364-19.885m109.69 12.077c-13.449 9.736-27.623 18.939-42.458 27.554v-70.53a531.5 531.5 0 0 0 62.168-39.778 531.6 531.6 0 0 0 65.576 41.622v70.61c-16.052-9.165-31.345-19.013-45.8-29.478l-19.742-14.292z" clip-rule="evenodd"/></svg>