<svg xmlns="http://www.w3.org/2000/svg" fill="none" viewBox="0 0 512 512"><path fill="#000" d="M256 512c141.385 0 256-114.615 256-256S397.385 0 256 0 0 114.615 0 256s114.615 256 256 256Z"/><path fill="#3CE8B5" d="m240.877 253.917 149.294 86.093a7.875 7.875 0 0 0 7.825-.022 7.934 7.934 0 0 0 2.881-2.858 7.999 7.999 0 0 0 1.098-3.916L402 174.673a7.961 7.961 0 0 0-1.085-3.927 7.907 7.907 0 0 0-2.881-2.868 7.856 7.856 0 0 0-7.835-.005l-149.322 86.044Zm140.617-123.144-99.106-76.175a7.883 7.883 0 0 0-7.491-1.11 7.921 7.921 0 0 0-3.223 2.219 7.989 7.989 0 0 0-1.777 3.498L233.659 228.8l147.031-84.892a7.81 7.81 0 0 0 2.789-2.665 7.856 7.856 0 0 0 .458-7.482 7.807 7.807 0 0 0-2.443-2.989Zm-99.172 322.592 99.36-76.258a7.92 7.92 0 0 0 2.383-3.004 7.967 7.967 0 0 0-.453-7.441 7.915 7.915 0 0 0-2.73-2.69L233.65 279.147l36.298 169.608a7.833 7.833 0 0 0 1.716 3.519 7.768 7.768 0 0 0 3.198 2.239 7.739 7.739 0 0 0 7.46-1.148Z"/><path fill="#3CE8B5" d="m202.602 253.914 39.105-182.73a7.906 7.906 0 0 0-.442-4.724 7.861 7.861 0 0 0-3.064-3.608 7.785 7.785 0 0 0-8.984.495L129.17 140.18a20.822 20.822 0 0 0-6 7.338 20.945 20.945 0 0 0-2.138 9.252L121 351.375a20.932 20.932 0 0 0 2.136 9.254 20.83 20.83 0 0 0 5.997 7.34l100.023 76.752a7.857 7.857 0 0 0 8.913.385 7.915 7.915 0 0 0 3.055-3.552 7.978 7.978 0 0 0 .524-4.666l-39.046-182.974Z"/></svg>