<svg xmlns="http://www.w3.org/2000/svg" fill="none" viewBox="0 0 512 512"><path fill="#000" d="M256 512c141.385 0 256-114.615 256-256S397.385 0 256 0 0 114.615 0 256s114.615 256 256 256"/><path fill="#3CE8B5" d="m240.877 253.917 149.294 86.093a7.88 7.88 0 0 0 7.825-.022 7.93 7.93 0 0 0 2.881-2.858 8 8 0 0 0 1.098-3.916L402 174.673a7.96 7.96 0 0 0-1.085-3.927 7.9 7.9 0 0 0-2.881-2.868 7.86 7.86 0 0 0-7.835-.005zM381.494 130.773l-99.106-76.175a7.883 7.883 0 0 0-7.491-1.11 7.9 7.9 0 0 0-3.223 2.219 8 8 0 0 0-1.777 3.498L233.659 228.8l147.031-84.892a7.8 7.8 0 0 0 2.789-2.665 7.856 7.856 0 0 0 .458-7.482 7.8 7.8 0 0 0-2.443-2.989M282.322 453.365l99.36-76.258a7.9 7.9 0 0 0 2.383-3.004 7.97 7.97 0 0 0-.453-7.441 7.9 7.9 0 0 0-2.73-2.69L233.65 279.147l36.298 169.608a7.83 7.83 0 0 0 1.716 3.519 7.77 7.77 0 0 0 3.198 2.239 7.74 7.74 0 0 0 7.46-1.148"/><path fill="#3CE8B5" d="m202.602 253.914 39.105-182.73a7.9 7.9 0 0 0-.442-4.724 7.86 7.86 0 0 0-3.064-3.608 7.785 7.785 0 0 0-8.984.495L129.17 140.18a20.8 20.8 0 0 0-6 7.338 20.95 20.95 0 0 0-2.138 9.252L121 351.375a20.9 20.9 0 0 0 2.136 9.254 20.8 20.8 0 0 0 5.997 7.34l100.023 76.752a7.857 7.857 0 0 0 8.913.385 7.9 7.9 0 0 0 3.055-3.552 7.98 7.98 0 0 0 .524-4.666z"/></svg>