<svg xmlns="http://www.w3.org/2000/svg" fill="none" viewBox="0 0 301 219"><path fill="#000" d="M155.194 175.949H53.612V0H0v219h155.194z"/><path fill="#000" d="M289.4 125.566c-7.745-9.889-17.966-16.16-30.726-18.874 11.287-3.338 20.316-9.265 27.12-17.782 6.803-8.516 10.19-19.248 10.19-32.132 0-17.47-6.334-31.29-18.969-41.492S246.854 0 224.5 0H96.51v42.74h117.644c8.779 0 15.519 1.965 20.222 5.927s7.055 9.67 7.055 17.158c0 7.487-2.352 13.165-7.055 17.002s-11.443 5.771-20.222 5.771H96.51v38.996h121.406q13.497 0 21.163 6.551c5.11 4.368 7.682 10.389 7.682 18.094s-2.447 13.57-7.369 17.626c-4.922 4.055-11.851 6.084-20.848 6.084h-20.453V219h29.858c22.981 0 40.914-5.366 53.769-16.067q19.281-16.05 19.282-43.518c0-12.697-3.857-23.959-11.6-33.849"/></svg>
