<svg xmlns="http://www.w3.org/2000/svg" fill="none" viewBox="0 0 512 512"><path fill="#000" d="M256 512c141.385 0 256-114.615 256-256S397.385 0 256 0 0 114.615 0 256s114.615 256 256 256"/><path fill="#fff" d="M261.194 321.949H159.612V146H106v219h155.194z"/><path fill="#fff" d="M395.4 271.566c-7.745-9.889-17.966-16.16-30.726-18.874 11.287-3.338 20.316-9.265 27.12-17.782 6.803-8.517 10.19-19.248 10.19-32.132 0-17.47-6.334-31.29-18.969-41.492S352.854 146 330.5 146H202.51v42.739h117.644c8.779 0 15.519 1.966 20.222 5.928s7.055 9.67 7.055 17.158c0 7.487-2.352 13.165-7.055 17.002s-11.443 5.771-20.222 5.771H202.51v38.996h121.406q13.497 0 21.163 6.551c5.11 4.368 7.682 10.389 7.682 18.094s-2.447 13.57-7.369 17.626c-4.922 4.055-11.851 6.084-20.848 6.084h-20.453V365h29.858c22.981 0 40.914-5.366 53.769-16.067q19.281-16.05 19.282-43.518c0-12.697-3.857-23.959-11.6-33.849"/></svg>
