<svg xmlns="http://www.w3.org/2000/svg" fill="none" viewBox="0 0 512 512"><path fill="#000" d="M256 512c141.385 0 256-114.615 256-256S397.385 0 256 0 0 114.615 0 256s114.615 256 256 256"/><path fill="#9E77ED" fill-rule="evenodd" d="M170.16 117.113 239.138 76l138.32 82.226-69.16 40.919-69.16-40.919zm172.627 266.846 69.16-40.919v-82.226l-69.16 41.113-68.978 41.113v82.031zm-138.138-82.032v82.032l69.16 41.112V343.04zm172.809-61.669-69.16 41.112v-82.225l69.16-40.919zm-207.298 0 68.978-41.113-68.978-40.919L101 199.145v164.451l69.16 40.919z" clip-rule="evenodd"/></svg>