<svg xmlns="http://www.w3.org/2000/svg" fill="none" viewBox="0 0 512 512"><path fill="#000" fill-rule="evenodd" d="M512 256c0 141.385-114.615 256-256 256S0 397.385 0 256 114.615 0 256 0s256 114.615 256 256Z" clip-rule="evenodd"/><path fill="#F5B6FF" d="M240.798 321.1 133.19 346.003c-3.925.982-6.869 4.914-6.869 8.846v74.052c0 6.227 4.906 10.158 11.121 8.847l150.127-34.732c6.215-1.311 8.831-7.208 6.215-12.779l-27.148-56.031c-4.252-8.847 0-18.021 9.485-19.987l98.123-23.592c6.869-1.638 12.756-8.847 12.756-16.056V206.09c0-6.226-4.907-10.485-11.121-8.847l-141.623 33.75c-8.831 1.966-12.757 10.485-8.831 18.676l24.857 51.443c4.252 8.847 0 17.694-9.484 19.988Z"/><path fill="#F5B6FF" d="m169.828 135.971 28.128 57.668c3.599 7.537 0 15.4-8.177 17.039l-52.004 12.123C131.233 224.44 126 230.993 126 237.546v61.929c0 10.485 8.504 17.039 18.643 14.745l48.408-11.141c6.54-1.31 11.774-8.191 11.774-14.745l.327-63.567c0-8.847 7.196-17.694 15.7-19.66l158.63-38.008c3.925-.983 6.869-4.915 6.869-8.847V84.2c0-6.226-4.906-10.486-11.121-8.847l-199.188 47.839c-6.214 1.31-8.831 7.208-6.214 12.779Z"/></svg>