<svg xmlns="http://www.w3.org/2000/svg" fill="none" viewBox="0 0 512 512"><path fill="#000" d="M256 512c141.385 0 256-114.615 256-256S397.385 0 256 0 0 114.615 0 256s114.615 256 256 256Z"/><path fill="#fff" d="M459.98 256.49c0-16.094-6.258-31.226-17.648-42.595-11.124-11.125-25.847-17.321-41.532-17.587 10.47-10.838 16.952-25.561 16.952-41.797 0-33.23-27.033-60.263-60.263-60.263-16.216 0-30.939 6.482-41.797 16.952-.266-15.685-6.462-30.408-17.587-41.532C286.715 58.258 271.583 52 255.49 52c-16.094 0-31.226 6.257-42.616 17.647-11.124 11.125-17.32 25.848-17.606 41.532-10.838-10.47-25.562-16.931-41.778-16.931-33.229 0-60.263 27.033-60.263 60.263 0 16.216 6.483 30.939 16.952 41.797-15.684.266-30.407 6.462-41.532 17.587C57.257 225.264 51 240.396 51 256.49c0 16.093 6.257 31.225 17.647 42.615 11.125 11.125 25.848 17.321 41.532 17.607-10.47 10.838-16.931 25.561-16.931 41.777 0 33.23 27.033 60.263 60.263 60.263 16.216 0 30.939-6.482 41.777-16.931.266 15.684 6.462 30.407 17.607 41.532C224.039 454.477 239.417 461 255.51 461c16.094 0 31.226-6.278 42.595-17.647 11.125-11.125 17.321-25.848 17.587-41.553 10.838 10.47 25.561 16.952 41.797 16.952 33.23 0 60.263-27.033 60.263-60.263 0-16.216-6.482-30.939-16.931-41.777 15.684-.266 30.407-6.462 41.532-17.607C453.743 287.715 460 272.583 460 256.49h-.02Zm-162.754 41.736v59.036l-41.736-41.736-41.737 41.736v-59.036h-59.015l41.736-41.736-41.736-41.737h59.015v-59.015l41.737 41.736 41.736-41.736v59.015h59.016l-41.736 41.737 41.736 41.736h-59.016Zm21.533-143.715c0-21.349 17.382-38.731 38.73-38.731 21.349 0 38.731 17.382 38.731 38.731 0 21.348-17.382 38.73-38.731 38.73h-38.73v-38.73Zm-90.65-69.65c7.545-7.545 17.463-11.328 27.381-11.328s19.835 3.783 27.381 11.329c15.091 15.111 15.091 39.671 0 54.782l-27.381 27.381-27.381-27.381c-7.321-7.32-11.35-17.034-11.35-27.381 0-10.347 4.029-20.06 11.35-27.381v-.02Zm-74.598 30.899c21.348 0 38.73 17.382 38.73 38.73v38.731h-38.73c-21.349 0-38.731-17.382-38.731-38.731 0-21.348 17.382-38.73 38.731-38.73Zm-69.65 113.349c7.546-7.546 17.464-11.329 27.382-11.329 9.917 0 19.835 3.783 27.381 11.329l27.381 27.381-27.381 27.381c-7.321 7.321-17.034 11.349-27.381 11.349-10.347 0-20.06-4.028-27.381-11.349-15.092-15.112-15.092-39.671 0-54.783v.021Zm108.36 129.38c0 21.349-17.382 38.731-38.731 38.731-21.348 0-38.73-17.382-38.73-38.731 0-21.348 17.382-38.73 38.73-38.73h38.731v38.73Zm90.65 69.629c-15.112 15.112-39.671 15.091-54.783 0-15.091-15.112-15.091-39.671 0-54.783l27.381-27.381 27.381 27.381c7.321 7.321 11.35 17.034 11.35 27.381 0 10.348-4.029 20.081-11.35 27.382l.021.02ZM384.85 385.87c-7.321 7.301-17.034 11.35-27.381 11.35-21.349 0-38.731-17.382-38.731-38.731v-38.73h38.731c10.347 0 20.06 4.028 27.381 11.349 7.321 7.321 11.349 17.034 11.349 27.381 0 10.347-4.028 20.081-11.349 27.381Zm42.248-101.979c-7.321 7.321-17.034 11.35-27.382 11.35-10.347 0-20.08-4.029-27.381-11.35l-27.381-27.381 27.381-27.381c15.112-15.112 39.671-15.091 54.783 0 15.091 15.112 15.091 39.671 0 54.783l-.02-.021Z"/></svg>