<svg xmlns="http://www.w3.org/2000/svg" fill="none" viewBox="0 0 512 512"><path fill="#000" d="M256 512c141.385 0 256-114.615 256-256S397.385 0 256 0 0 114.615 0 256s114.615 256 256 256"/><path fill="#69D8BD" d="M263.62 50h4.23q5.608 3.484 6.479 5.542a12517 12517 0 0 1 42.545 100.769c6.527 15.633 2.249 25.143-9.161 37.51a5777 5777 0 0 1-56.035 59.87q-.87.896-2.103.896-71.748-.122-143.206-.605c-8.8-.073-23.787-2.227-20.524-14.956q1.692-6.582 4.835-9.898a114795 114795 0 0 1 167.162-176.32Q259.099 51.5 263.62 50M420 400.44v4.84q-2.683 6.099-9.21 7.72H145.482c-14.77-1.984-27.316-5.784-33.626-20.522a29924 29924 0 0 1-52.82-124.17.508.508 0 0 1 .822-.556c10.951 11.349 24.005 12.075 40.008 12.172q122.44.63 244.905.557c17.018 0 26.35 3.92 32.973 19.287A5721 5721 0 0 1 420 400.44"/></svg>