<svg xmlns="http://www.w3.org/2000/svg" fill="none" viewBox="0 0 512 512"><g clip-path="url(#clip0_4498_857)"><rect width="512" height="512" fill="#000" rx="256"/><path fill="#5CCDEA" d="M325 116.701 256.071 151.8q-.801.409-1.586-.018L188 116.738l67.707-37.515q.803-.445 1.604 0z"/><path fill="#fff" d="m193.173 159.034 61.399 31.745q.724.387 1.465.017L319.692 159l142.719 77.748c.178.097.328.239.432.411s.158.367.157.565V461.66q0 .909-.792 1.33L257.182 574.773q-.842.454-1.667 0L50.472 462.889a.9.9 0 0 1-.472-.791v-224.34q0-.757.674-1.128zM180.51 308.167a.81.81 0 0 1 .396-.693.81.81 0 0 1 .799-.014l74.281 41.66a.81.81 0 0 0 .775 0l74.113-41.559a.81.81 0 0 1 1.089.308.8.8 0 0 1 .106.399v136.526a.808.808 0 0 0 1.196.707l61.331-32.738a.81.81 0 0 0 .421-.724l.034-136.913a.81.81 0 0 0-.438-.724l-62.207-32.907a.8.8 0 0 0-.775.017l-74.819 41.693a.81.81 0 0 1-.775 0L181.2 241.528a.81.81 0 0 0-.775-.016L118.657 274.2a.81.81 0 0 0-.438.724l-.051 137.35a.81.81 0 0 0 .421.724l60.725 32.268a.82.82 0 0 0 .806-.018.81.81 0 0 0 .39-.706z"/></g><defs><clipPath id="clip0_4498_857"><rect width="512" height="512" fill="#fff" rx="256"/></clipPath></defs></svg>