<svg xmlns="http://www.w3.org/2000/svg" fill="none" viewBox="0 0 512 512"><g clip-path="url(#clip0_4498_857)"><rect width="512" height="512" fill="#000" rx="256"/><path fill="#5CCDEA" d="M325 116.701 256.071 151.8c-.534.273-1.063.266-1.586-.018L188 116.738l67.707-37.515c.535-.297 1.07-.297 1.604 0L325 116.701Z"/><path fill="#fff" d="m193.173 159.034 61.399 31.745c.483.258.971.264 1.465.017L319.692 159l142.719 77.748c.178.097.328.239.432.411.103.172.158.367.157.565V461.66c0 .606-.264 1.049-.792 1.33L257.182 574.773c-.561.303-1.117.303-1.667 0L50.472 462.889a.898.898 0 0 1-.472-.791v-224.34c0-.505.224-.881.674-1.128l142.499-77.596ZM180.51 308.167a.81.81 0 0 1 .396-.693.81.81 0 0 1 .799-.014l74.281 41.66a.808.808 0 0 0 .775 0l74.113-41.559a.81.81 0 0 1 1.089.308.81.81 0 0 1 .106.399v136.526a.808.808 0 0 0 1.196.707l61.331-32.738a.813.813 0 0 0 .421-.724l.034-136.913a.81.81 0 0 0-.438-.724l-62.207-32.907a.799.799 0 0 0-.775.017l-74.819 41.693a.808.808 0 0 1-.775 0L181.2 241.528a.813.813 0 0 0-.775-.016L118.657 274.2a.808.808 0 0 0-.438.724l-.051 137.35a.806.806 0 0 0 .421.724l60.725 32.268a.818.818 0 0 0 .806-.018.81.81 0 0 0 .39-.706V308.167Z"/></g><defs><clipPath id="clip0_4498_857"><rect width="512" height="512" fill="#fff" rx="256"/></clipPath></defs></svg>