<svg xmlns="http://www.w3.org/2000/svg" fill="none" viewBox="0 0 514 514"><path fill="#000" d="M257 513c141.385 0 256-114.615 256-256S398.385 1 257 1 1 115.615 1 257s114.615 256 256 256Z"/><path fill="#F0BC81" d="M219.828 187.246c2.816-10.048 2.783-20.838 2.026-29.215a55.166 55.166 0 0 1 15.312-9.816c.182 1.319.331 2.707.43 4.183 2.282 33.185-14.427 44.535-17.768 34.848ZM431.51 328.585a188.546 188.546 0 0 1-17.607 33.261 188.33 188.33 0 0 1-23.828 29.107c-36.018 36.124-84.021 55.859-135.017 55.482a188.261 188.261 0 0 1-14.171-.655 189.173 189.173 0 0 1-14.085-1.712 189.17 189.17 0 0 1-13.918-2.769 188.553 188.553 0 0 1-13.671-3.801 191.516 191.516 0 0 1-13.349-4.821 189.673 189.673 0 0 1-37.37-20.261 189.217 189.217 0 0 1-11.331-8.56 191.353 191.353 0 0 1-10.662-9.384 190.032 190.032 0 0 1-19.069-21.041 187.78 187.78 0 0 1-8.306-11.536 188.66 188.66 0 0 1-7.42-12.124 190.657 190.657 0 0 1-6.494-12.647 190.38 190.38 0 0 1-5.527-13.102 7.445 7.445 0 0 1-.356-1.298 7.731 7.731 0 0 1 .877-5.219c.219-.393.475-.762.76-1.11.285-.349.6-.668.943-.962A7.669 7.669 0 0 1 83 314.65a35.422 35.422 0 0 1 9.612-4.013c.215-.054.43-.091.648-.116.215-.029.435-.037.654-.037a4.958 4.958 0 0 1 1.302.174 5.156 5.156 0 0 1 1.215.493 6 6 0 0 1 .554.357 6.2 6.2 0 0 1 .505.422c.157.154.305.315.446.485a5.396 5.396 0 0 1 .934 1.729c.066.211.12.423.161.638.038.216.067.435.079.655.012.22.008.439-.004.659-.017.22-.046.435-.087.655-15.911 82.338 123.224 127.209 154.183 41.559 22.736 69.041 152.417 72.974 163.053-41.592 5.937 2.346 11.377 6.093 15.197 11.942l.058-.075Z"/><path fill="#F0BC81" d="M437.136 289.675c-24.109-17.446-80.632-15.971-90.293 7.685l.814-4.058.009-.049v-.009c.008-.016.012-.029.02-.041.12-.303.252-.597.393-.896a13.463 13.463 0 0 1 .306-.63c.062-.124.124-.244.194-.364.141-.274.294-.543.451-.813.07-.12.144-.24.215-.356.231-.382.475-.751.731-1.115a6.39 6.39 0 0 1 .195-.282c.132-.178.264-.361.397-.543.181-.232.363-.464.549-.697a.699.699 0 0 0 .108-.787c-.128-.286-.347-.435-.657-.444l-12.865-.522c-.07-.008-.137-.021-.207-.033-.062-.008-.124-.021-.186-.033-.128-.021-.256-.042-.38-.071a7.223 7.223 0 0 1-.409-.083 3.946 3.946 0 0 1-.406-.083 12.363 12.363 0 0 1-.69-.165c-.244-.063-.488-.125-.728-.195a21.754 21.754 0 0 1-.715-.212 33.264 33.264 0 0 1-1.141-.389 5.772 5.772 0 0 1-.43-.166 19.207 19.207 0 0 1-1.488-.626 8.197 8.197 0 0 1-.483-.224 13.232 13.232 0 0 1-.397-.195 9.515 9.515 0 0 1-.389-.203c-.066-.033-.132-.066-.194-.103a3.436 3.436 0 0 1-.19-.104 8.182 8.182 0 0 1-.385-.207c-.095-.054-.19-.108-.281-.162a22.541 22.541 0 0 1-1.029-.63c-.095-.062-.19-.12-.29-.186a27.285 27.285 0 0 1-1.798-1.281 25.148 25.148 0 0 1-.484-.378c-.057-.045-.111-.091-.169-.14a21.27 21.27 0 0 1-.686-.568c-.079-.067-.161-.141-.24-.212a25.726 25.726 0 0 1-.856-.779 3.997 3.997 0 0 1-.19-.178c-.112-.108-.231-.22-.339-.332a26.976 26.976 0 0 1-.963-.986 13.707 13.707 0 0 1-.467-.506c-.108-.116-.207-.228-.306-.34a34.052 34.052 0 0 1-1.67-2.031 23.235 23.235 0 0 1-.509-.684 25.172 25.172 0 0 1-.645-.904c-.095-.128-.182-.261-.268-.389a28.979 28.979 0 0 1-.744-1.144 42.13 42.13 0 0 1-.678-1.107 48.36 48.36 0 0 1-.608-1.074c-.124-.228-.244-.443-.356-.655a40.106 40.106 0 0 1-.69-1.38c-.037-.079-.074-.153-.107-.228-.075-.153-.137-.294-.195-.419-.029-.049-.049-.103-.07-.149-.145-.327-.227-.53-.256-.584l2.393 2.408.066.066.009.013a.168.168 0 0 0 .02.037c.062.091.207.311.43.622a52.012 52.012 0 0 1-.054-14.748v-.013a23.767 23.767 0 0 1-.988-6.872l.067.012a24.948 24.948 0 0 1 .632-11.208 10.93 10.93 0 0 0 .447-4c-.013-.195-.038-.394-.058-.589-.025-.199-.058-.394-.091-.593-.025-.103-.046-.215-.071-.323a5.7 5.7 0 0 0-.107-.448c-.037-.132-.079-.269-.116-.402a7.821 7.821 0 0 0-.12-.356 9.26 9.26 0 0 0-.458-1.103 4.263 4.263 0 0 0-.182-.356 8.79 8.79 0 0 0-.406-.697l-.124-.194h-.004c-.029-.05-.062-.1-.095-.146-.066-.033-.132-.066-.194-.099a38.363 38.363 0 0 1-1.459-.808 25.344 25.344 0 0 1-1.005-.589c-.025-.017-.049-.029-.074-.046a39.51 39.51 0 0 1-.992-.621 33.023 33.023 0 0 1-1.042-.693 42.254 42.254 0 0 1-.347-.236 49.261 49.261 0 0 1-.74-.526 7.86 7.86 0 0 1-.377-.282 13.618 13.618 0 0 1-.541-.406c-.203-.158-.405-.311-.604-.473a40.303 40.303 0 0 1-1.785-1.509c-.091-.078-.178-.161-.265-.24a24.412 24.412 0 0 1-.967-.908c-.12-.112-.24-.232-.356-.348-.107-.108-.215-.216-.322-.328-.319-.323-.633-.65-.935-.986a29.488 29.488 0 0 1-.673-.759l-.282-.331c-.144-.17-.289-.344-.429-.514a39.175 39.175 0 0 1-1.22-1.592c-.132-.178-.256-.361-.38-.539a31.124 31.124 0 0 1-1.154-1.778c-.029-.042-.053-.087-.078-.129a31.738 31.738 0 0 1-1.501-2.802c-.078-.17-.161-.34-.235-.51-.075-.174-.153-.339-.228-.509a56.33 56.33 0 0 1-.421-1.037 27.916 27.916 0 0 1-.649-1.861 3.929 3.929 0 0 1-.116-.369c-.054-.174-.108-.344-.153-.518-.062-.22-.12-.439-.178-.659a10.446 10.446 0 0 1-.112-.456c-.041-.166-.082-.327-.119-.493-.046-.224-.096-.444-.141-.672l-.05-.265a9.272 9.272 0 0 1-.086-.489 4.894 4.894 0 0 1-.062-.369c-.034-.203-.067-.41-.096-.618-.02-.141-.037-.281-.053-.427a25.821 25.821 0 0 1-.19-2.134c-.575-11.068 5.684-21.48 10.954-28.241a56.711 56.711 0 0 0-2.674-3.797 58.253 58.253 0 0 0-2.985-3.56 55.927 55.927 0 0 0-10.579-9.012 56.91 56.91 0 0 0-3.985-2.379 56.472 56.472 0 0 0-4.167-2.035 53.88 53.88 0 0 0-4.324-1.679 55 55 0 0 0-4.452-1.314 56.454 56.454 0 0 0-4.543-.937 57.274 57.274 0 0 0-4.601-.551 55.528 55.528 0 0 0-9.268.062 55.321 55.321 0 0 0-13.56 2.98c.215 1.443.377 2.981.492 4.622 1.737 25.24-8.21 36.237-8.21 36.237a3.055 3.055 0 0 0-.21.24 1.83 1.83 0 0 0-.083.087c-.004.004-.008.008-.008.017l-.1.112a5.64 5.64 0 0 0-.128.145 2.048 2.048 0 0 1-.132.145.085.085 0 0 1-.017.025c-.012.012-.024.029-.037.041l-.19.216c-.037.045-.074.091-.12.132-.074.091-.161.183-.252.282-.033.041-.07.083-.112.129-.045.053-.099.107-.148.165-.162.179-.335.365-.517.564-.062.071-.128.141-.194.211-.104.117-.211.228-.327.349-.017.02-.033.041-.054.058-.082.091-.169.182-.256.277-.178.183-.36.373-.55.564-.169.174-.339.352-.517.531a3.372 3.372 0 0 1-.177.182l-.195.195a70.457 70.457 0 0 1-3.096 2.914c-.099.087-.198.174-.298.257-.053.05-.103.095-.157.137a8.33 8.33 0 0 1-.525.452l-.516.431c-.41.34-.827.675-1.253.999l-.285.219c-.178.133-.36.27-.538.398-.173.125-.347.249-.516.373-.203.145-.406.282-.608.423-.116.079-.227.153-.347.228-.112.079-.228.153-.339.224-.062.041-.12.079-.178.112-.07.05-.141.091-.211.132-.112.075-.227.15-.339.216-.103.062-.202.12-.302.178a.127.127 0 0 1-.049.025c-.195.12-.385.228-.579.332-.194.112-.389.215-.583.315a18.75 18.75 0 0 1-1.298.626c-.112.049-.223.095-.331.141l-.326.132a6.873 6.873 0 0 1-.331.125c-.699.261-1.41.468-2.137.613a8.057 8.057 0 0 1-.629.1c-.004.004-.008.008-.012.004-.008 0-.012.004-.021.004-.095.012-.19.025-.285.033l-.165.203c0 .004-.004.004-.004.004a9.64 9.64 0 0 1-.286.344c-.227.282-.467.564-.715.838-.268.306-.541.609-.827.907-.103.108-.202.216-.305.315a33.926 33.926 0 0 1-1.613 1.555c-.091.083-.186.17-.281.249-.095.087-.19.169-.289.252-.099.087-.203.174-.302.257-.103.092-.207.174-.31.257-.153.133-.31.257-.467.378-.012.008-.017.02-.029.02-.198.162-.401.315-.604.469-.008.008-.012.012-.016.012a16.2 16.2 0 0 1-.55.406.252.252 0 0 1-.054.042c-.206.149-.413.294-.624.443-.244.166-.488.332-.736.489-.219.146-.446.286-.674.423-.268.174-.541.336-.818.494a3.835 3.835 0 0 1-.277.161c-.211.125-.422.241-.633.357-.157.083-.31.17-.467.244a2.713 2.713 0 0 1-.239.125.102.102 0 0 1-.046.024c-.074.042-.153.079-.231.117a.077.077 0 0 1-.038.024c-.194.1-.384.195-.578.286-.021.013-.046.021-.071.034-.248.12-.508.24-.764.36-.323.145-.649.286-.984.427-.298.129-.6.253-.91.373-.301.116-.612.236-.926.344-.132.054-.273.1-.409.149-.141.05-.281.104-.418.15-.111.037-.219.074-.33.107a.917.917 0 0 1-.133.046c-.008.008-.02.008-.033.008a8.675 8.675 0 0 1-.566.183c-.327.103-.653.203-.98.294-.19.058-.384.112-.578.162a33.137 33.137 0 0 1-1.282.331c-.112.029-.227.062-.339.083-.116.029-.227.054-.343.079-.265.066-.537.124-.806.174-.298.066-.595.124-.893.187-.182.037-.364.07-.554.103a42.117 42.117 0 0 1-1.637.265 26.232 26.232 0 0 1-1.203.166l.116.813 3.03 21.592c.066 2.603 7.892 25.26-3.473 32.609-.616.444-4.944 3.416-11.682 4.9a1.925 1.925 0 0 0-1.005.551 1.95 1.95 0 0 0-.537 1.015c-.074.394-.037.776.116 1.144.153.369.397.668.727.888a57.29 57.29 0 0 1 1.852 1.289c.306.215.608.435.902.659.525.394 1.041.791 1.541 1.202.162.124.319.253.472.385a24.16 24.16 0 0 1 1.05.887c.165.145.335.286.496.436.273.24.546.489.81.737.182.166.356.332.529.502a41.714 41.714 0 0 1 1.042 1.028l.418.431c.095.1.19.199.276.299.215.227.426.451.625.679.053.05.099.108.144.166.153.158.29.319.426.481.083.091.161.178.228.265.144.166.281.328.413.493.058.063.112.129.161.195.314.377.616.767.905 1.153.009.004.009.004.009.008.008.008.02.021.029.037.008.004.012.013.016.025.099.129.195.253.29.381l-.232.461-.591 1.189a26.76 26.76 0 0 0-.785-1.024 1.022 1.022 0 0 0-.071-.078 21.48 21.48 0 0 0-.281-.349c-.095-.111-.194-.232-.293-.344a4.54 4.54 0 0 0-.219-.257c-.009-.012-.017-.024-.029-.033a27.742 27.742 0 0 0-.426-.476c-.145-.158-.29-.32-.443-.477-.074-.079-.148-.162-.231-.241l-.103-.111c-.133-.137-.265-.274-.401-.407a33.414 33.414 0 0 0-.687-.671 37.384 37.384 0 0 0-2.414-2.127l-.504-.406a29.66 29.66 0 0 0-1.058-.816 17.492 17.492 0 0 0-1.931-1.377.11.11 0 0 0-.025-.02c-.194-.129-.384-.257-.574-.382-.1-.07-.203-.136-.306-.203-.29-.186-.583-.377-.881-.564-.297-.182-.595-.368-.901-.551a68.99 68.99 0 0 0-1.864-1.078c-.211-.116-.426-.236-.637-.344-.029-.02-.058-.033-.091-.049-.174-.1-.36-.195-.537-.286a10.253 10.253 0 0 0-.397-.212c-.331-.17-.662-.34-.997-.51-.26-.128-.52-.257-.785-.381-.248-.12-.496-.24-.752-.356a13.414 13.414 0 0 0-.385-.183c-.128-.058-.26-.12-.388-.174-.261-.124-.525-.236-.79-.356-.128-.054-.256-.112-.384-.166a10.366 10.366 0 0 1-.385-.166l-.021-.008a67.528 67.528 0 0 0-3.385-1.368 57.011 57.011 0 0 0-1.158-.423 2.335 2.335 0 0 0-.219-.083 5.235 5.235 0 0 0-.24-.083 61.705 61.705 0 0 0-1.533-.53c-.298-.1-.591-.195-.889-.291a67.896 67.896 0 0 0-1.67-.526c-.244-.075-.496-.145-.744-.22-.207-.062-.414-.124-.616-.178-.054-.012-.108-.033-.161-.045-.24-.071-.484-.137-.728-.204-.318-.095-.641-.178-.963-.261a88.398 88.398 0 0 0-4.043-.986c-.161-.038-.323-.071-.488-.108-.227-.05-.459-.1-.69-.145-.17-.037-.339-.075-.513-.108-.074-.012-.149-.033-.231-.045-.24-.05-.476-.1-.716-.141a85.297 85.297 0 0 0-1.889-.353c-.372-.066-.752-.128-1.124-.19-.55-.092-1.1-.179-1.654-.257-.322-.05-.649-.096-.971-.141-.372-.05-.74-.1-1.112-.145-.364-.05-.732-.096-1.1-.137a43.182 43.182 0 0 0-1.451-.162c-.24-.029-.484-.054-.719-.074-.236-.025-.471-.05-.711-.067-.199-.021-.393-.037-.587-.054-.12-.008-.24-.02-.356-.029-.285-.02-.558-.041-.843-.066a94.732 94.732 0 0 0-1.935-.124 78.105 78.105 0 0 0-1.058-.054c-.033 0-.062-.004-.095-.004-.351-.017-.699-.029-1.05-.042-.037-.004-.075-.004-.108-.004-.293-.012-.582-.017-.872-.025-.07-.004-.145-.004-.219-.004a99.732 99.732 0 0 0-3.791-.021c-.475.004-.946.017-1.422.033a92.07 92.07 0 0 0-3.894.187c-.368.025-.736.05-1.104.079-.574.045-1.149.099-1.724.157-.231.021-.463.042-.69.071-.339.037-.682.07-1.025.112-.571.066-1.137.141-1.703.219-.199.029-.393.054-.587.083l-.591.087c-.191.033-.381.062-.571.091-.194.029-.384.058-.575.092-.281.045-.562.091-.843.145a66.86 66.86 0 0 0-2.468.472c-.215.046-.434.091-.645.137-.256.058-.508.112-.76.17-.43.095-.86.199-1.286.303-.546.132-1.083.273-1.62.414l-.798.224a64.59 64.59 0 0 0-1.588.468c-.392.121-.79.245-1.178.373-.318.104-.636.212-.95.324-.265.087-.526.178-.79.273-.1.033-.195.067-.29.104a6.79 6.79 0 0 0-.289.108c-.38.141-.76.282-1.137.431-.293.116-.587.232-.872.348-.281.116-.566.232-.843.356a42.316 42.316 0 0 0-1.253.548c-.24.111-.484.223-.723.335-.24.116-.48.228-.72.344a83.79 83.79 0 0 0-1.413.717c-.877.461-1.733.941-2.568 1.447-.28.166-.562.332-.835.506a45.71 45.71 0 0 0-2.406 1.616 10.71 10.71 0 0 0-.285.199 47.087 47.087 0 0 0-1.339 1.016 6.51 6.51 0 0 0-.281.22c-.096.074-.186.153-.277.223-.104.079-.203.166-.302.245-.095.079-.19.153-.281.236-.112.087-.215.179-.323.274-.062.05-.124.104-.186.157-.198.174-.4.349-.603.535a9.62 9.62 0 0 0-.368.336c-.182.162-.36.331-.542.506-.074.066-.149.14-.227.219-.244.232-.475.469-.711.709-.03.021-.05.046-.07.066a38.84 38.84 0 0 0-.699.73 16.314 16.314 0 0 0-3.762 7.059 16.133 16.133 0 0 0-.488 4c.004 1.355.174 2.69.505 4 .136.564.28 1.123.421 1.683.087.332.17.667.26.999.133.51.265 1.02.402 1.529.173.635.347 1.269.525 1.907a32.453 32.453 0 0 1 .206.721c0 .005 0 .005.005.005a149.883 149.883 0 0 0 .36 1.26 8.84 8.84 0 0 1 .942-.987c.173-.153.355-.315.558-.476.099-.079.202-.162.31-.241.132-.099.264-.199.405-.298.087-.071.174-.129.264-.187.24-.17.488-.336.753-.497.095-.062.186-.116.281-.174.145-.087.29-.174.442-.262.15-.087.302-.174.463-.257.356-.198.732-.389 1.125-.576a10.878 10.878 0 0 1 .397-.186c.157-.071.318-.145.48-.216.16-.066.322-.141.491-.207.17-.07.34-.141.517-.207.194-.079.393-.149.595-.22.108-.046.22-.087.335-.12a1.28 1.28 0 0 1 .132-.046c.116-.045.232-.083.352-.124.066-.021.132-.042.202-.062.244-.079.5-.158.76-.232.104-.034.212-.063.32-.092.094-.029.19-.053.284-.078.26-.071.521-.137.79-.199.178-.046.364-.087.55-.129.016-.004.029-.008.05-.008.235-.054.475-.1.723-.149.26-.05.525-.1.794-.145a33.62 33.62 0 0 1 2.84-.336c.173-.008.343-.021.516-.033.29-.013.583-.025.885-.034a24.556 24.556 0 0 1 1.281-.008c.253 0 .505.008.765.013a33.71 33.71 0 0 1 2.596.194c.19.021.385.046.58.071a34.61 34.61 0 0 1 1.653.257 34.48 34.48 0 0 1 1.86.385c.227.05.455.108.686.166l.099.025c.19.05.377.095.567.153.301.079.607.166.913.262.257.074.521.157.782.24.169.058.343.112.516.17.162.058.323.112.484.17.273.091.542.191.818.298a70.317 70.317 0 0 1 .931.365c.235.091.467.191.702.29.149.062.298.129.447.195.07.029.14.058.211.091.07.029.144.062.211.096.148.062.293.128.438.199.144.066.289.132.434.207.153.074.314.145.471.228.153.074.31.149.467.232.174.083.352.178.533.274.178.087.356.182.534.277.289.158.57.311.86.477.289.157.574.327.864.497.388.228.777.465 1.165.709.265.162.529.332.794.502.165.108.327.215.492.327.165.104.331.22.496.332.165.112.331.228.496.344.496.34.992.696 1.488 1.073.166.116.331.241.496.373.166.121.331.245.496.374.17.128.335.257.505.393.165.129.335.261.5.398.165.133.335.27.5.406.335.274.67.552 1.005.846.235.199.471.402.711.609l.053.224.042.162.727 2.91a49.854 49.854 0 0 0-1.881-1.575c-.004 0-.008-.005-.012-.005-.012-.012-.029-.024-.045-.037-.174-.137-.352-.273-.525-.406-.17-.133-.348-.265-.521-.398l-.004-.004c-.075-.062-.158-.12-.236-.178a46.949 46.949 0 0 0-1.273-.912c-.17-.12-.339-.232-.509-.348-.103-.071-.215-.141-.326-.212-.199-.133-.401-.261-.6-.39a26.783 26.783 0 0 0-1.091-.667c-.178-.108-.364-.215-.542-.319a3.436 3.436 0 0 0-.19-.104 14.222 14.222 0 0 0-.512-.286l-.348-.186c-.252-.133-.5-.265-.756-.386l-.252-.124c-.166-.087-.331-.166-.496-.245a5.045 5.045 0 0 0-1.046-.369 4.956 4.956 0 0 0-3.262.353 5.193 5.193 0 0 0-.942.584 5.185 5.185 0 0 0-.794.78c-.236.29-.438.605-.604.936a5.237 5.237 0 0 0-.38 1.049c-5.73 24.634 3.179 45.563 19.061 60.141 49.186 45.157 128.272 5.6 123.212-61.082l-2.051-26.993a12.525 12.525 0 0 0-1.583-5.243 12.52 12.52 0 0 0-3.642-4.079l-.041-.033c-6.974-5.049-29.851-12.527-30.083-12.601l-1.41-.465-.012-1.488c0-.298.054-7.419 5.353-14.702 4.796-6.591 15.015-14.587 36.416-15.254 43.022-1.352 44.853 29.55 44.861 29.865l.1 2.185-2.187-.034c-.141-.012-.286-.012-.426-.012-11.761 0-24.394 9.061-29.322 12.995l-.033.021a9.8 9.8 0 0 0-2.559 3.054 9.852 9.852 0 0 0-1.157 3.818l-3.138 33.828c-5.188 55.947 52.563 97.029 102.93 72.428.364-.174.732-.361 1.092-.543.293-.15.582-.299.868-.452.186-.1.38-.199.57-.303l.91-.497c.243-.133.479-.27.719-.402.124-.075.248-.145.368-.216a73.328 73.328 0 0 0 2.236-1.351c.244-.153.488-.311.736-.468.347-.228.699-.456 1.042-.684.322-.224.649-.444.975-.668.017-.016.038-.025.054-.041.273-.187.546-.382.81-.576.124-.083.24-.17.364-.257.29-.212.575-.423.864-.643.335-.249.67-.501 1.005-.763a73.035 73.035 0 0 0 1.98-1.595c.413-.344.814-.693 1.219-1.045a78.32 78.32 0 0 0 2.621-2.4c.224-.216.447-.435.67-.655.223-.215.442-.439.666-.663.219-.224.438-.444.657-.672.219-.232.438-.46.653-.688a72.627 72.627 0 0 0 1.773-1.96c.137-.158.282-.32.418-.481.207-.237.409-.477.612-.717.206-.245.417-.498.62-.746.202-.249.409-.502.612-.755.409-.51.81-1.028 1.207-1.55.029-.037.058-.079.087-.116.227-.303.45-.605.673-.912a.05.05 0 0 0 .025-.033c.149-.203.302-.411.447-.618.02-.025.041-.05.058-.079.082-.103.161-.215.235-.327a.419.419 0 0 0 .062-.091c.104-.145.207-.286.306-.436.211-.298.418-.596.62-.899.133-.191.265-.386.393-.58.128-.191.256-.39.384-.585a79.617 79.617 0 0 0 2.105-3.407c.086-.141.165-.282.252-.427.14-.236.273-.473.405-.709.165-.294.331-.584.492-.879a58.22 58.22 0 0 0 .971-1.811 87.275 87.275 0 0 0 1.774-3.581c.082-.174.169-.353.244-.527.024-.058.053-.108.074-.166.054-.116.112-.232.165-.356.315-.692.625-1.393.922-2.102.203-.476.401-.957.6-1.438.206-.506.409-1.016.607-1.53.013-.029.025-.062.038-.095.086-.236.177-.477.268-.713.12-.302.232-.609.343-.916.095-.257.186-.514.281-.775.203-.564.406-1.14.596-1.72.008-.004.008-.004.004-.009.087-.24.165-.48.244-.721.049-.149.103-.302.149-.46.082-.236.157-.468.231-.705.07-.228.145-.456.215-.684.099-.315.199-.634.289-.953.124-.402.248-.808.36-1.214.182-.618.36-1.24.525-1.866.112-.406.219-.812.323-1.218.045-.166.091-.332.128-.498.045-.19.095-.373.14-.563a89.25 89.25 0 0 0 .753-3.172c.049-.211.095-.426.14-.642.182-.829.356-1.67.521-2.52.05-.245.099-.489.145-.734.194-1.011.372-2.035.545-3.071.05-.274.091-.556.137-.838.091-.572.182-1.152.269-1.732l.173-1.202c.029-.224.062-.452.091-.68a176.36 176.36 0 0 0 .31-2.483c.037-.315.07-.638.108-.962.062-.559.12-1.127.182-1.695l.136-1.488v-.004c.025-.241.041-.477.066-.718-.248-.041-.496-.078-.74-.116a.808.808 0 0 0-.136-.024c-.215-.034-.422-.067-.633-.096a55.436 55.436 0 0 0-1.496-.199 44.928 44.928 0 0 0-1.05-.112 12.105 12.105 0 0 0-.666-.066 31.358 31.358 0 0 0-.843-.075c-.281-.02-.558-.045-.835-.062-.347-.025-.691-.05-1.034-.066a68.334 68.334 0 0 0-1.554-.071c-.434-.016-.864-.024-1.29-.033a74.549 74.549 0 0 0-3.034.009c-.215.004-.422.004-.633.012-.057 0-.111 0-.173.004-.335.013-.666.021-.988.037-.153.005-.306.013-.455.017l-.422.025c-.157.008-.31.012-.458.021-.195.012-.381.02-.567.033-.306.02-.603.041-.897.062-.24.021-.475.037-.707.058-.405.033-.794.066-1.174.099-.128.013-.256.029-.38.038-.686.07-1.335.141-1.943.215-.05.009-.103.013-.153.017-3.154.394-5.155.825-5.341.879l8.206-4.116c.347-.133 26.064-12.784 43.902-1.314.355.228.727.41 1.124.551.393.137.798.228 1.216.273.417.042.831.038 1.248-.02a5.269 5.269 0 0 0 2.315-.891 5.286 5.286 0 0 0 1.658-1.845c.202-.369.355-.754.467-1.161a202.618 202.618 0 0 0 1.695-6.852 9.268 9.268 0 0 0 .211-2.698 9.291 9.291 0 0 0-1.869-5.011 9.4 9.4 0 0 0-1.926-1.895Zm-304.475-11.258a1.37 1.37 0 0 1-.55-.112 1.307 1.307 0 0 1-.467-.311 1.412 1.412 0 0 1-.422-1.019c0-.191.037-.373.108-.552a1.436 1.436 0 0 1 2.765.552c0 .19-.037.377-.107.551a1.444 1.444 0 0 1-.314.468c-.133.137-.29.241-.463.311-.178.075-.36.112-.55.112Zm37.37 20.593c-.244 0-.479-.05-.707-.141a1.885 1.885 0 0 1-.599-.402 1.88 1.88 0 0 1-.401-.601 1.867 1.867 0 0 1 .401-2.023 1.873 1.873 0 0 1 1.306-.539 1.866 1.866 0 0 1 1.311.539 1.87 1.87 0 0 1 .541 1.314 1.902 1.902 0 0 1-.144.709 1.774 1.774 0 0 1-.401.597 1.775 1.775 0 0 1-.6.402 1.788 1.788 0 0 1-.707.145Zm30.6-29.654a3.246 3.246 0 0 1 2.323.966c.31.307.546.663.711 1.069.169.402.252.821.252 1.26 0 .436-.083.854-.252 1.26a3.282 3.282 0 0 1-4.291 1.783 3.369 3.369 0 0 1-1.067-.713 3.31 3.31 0 0 1-.959-2.33 3.262 3.262 0 0 1 .959-2.329 3.266 3.266 0 0 1 2.324-.966Zm.409 45.302a4.476 4.476 0 0 1-1.728-.344 5.011 5.011 0 0 1-.781-.419 4.453 4.453 0 0 1-1.245-1.252 4.426 4.426 0 0 1-.417-.783 4.393 4.393 0 0 1-.348-1.733 4.496 4.496 0 0 1 .765-2.516 4.537 4.537 0 0 1 1.245-1.252c.248-.165.508-.302.781-.418a4.537 4.537 0 0 1 2.608-.257 4.541 4.541 0 0 1 1.629.675c.248.166.476.353.686.564.211.211.397.439.563.684.165.249.301.51.417.783a4.557 4.557 0 0 1 0 3.47 5.106 5.106 0 0 1-.417.783 4.922 4.922 0 0 1-.563.684c-.21.212-.438.398-.686.564a4.419 4.419 0 0 1-.781.419 4.466 4.466 0 0 1-1.728.348Zm11.914-34.595c.434 0 .856.083 1.256.248.406.17.761.407 1.067.718a3.28 3.28 0 0 1 .963 2.329c0 .44-.082.858-.248 1.26a3.237 3.237 0 0 1-.715 1.07 3.22 3.22 0 0 1-1.067.717c-.4.166-.818.249-1.256.249a3.266 3.266 0 0 1-2.323-.966 3.24 3.24 0 0 1-.716-1.07 3.298 3.298 0 0 1-.248-1.26 3.284 3.284 0 0 1 .964-2.329 3.219 3.219 0 0 1 1.066-.718 3.269 3.269 0 0 1 1.257-.248Zm27.16-80.991a1.11 1.11 0 0 1-.236.489c-11.943 13.836-22.187 13.227-25.663 12.493a1.008 1.008 0 0 1-.422-.199 1.021 1.021 0 0 1-.393-.821c0-.161.037-.31.112-.456l1.901-3.817c.389-.808 11.464 3.465 22.94-8.61a1.039 1.039 0 0 1 1.128-.244c.194.079.356.203.475.377.12.174.182.365.187.576a.774.774 0 0 1-.029.212Zm50.871-17.845v1.646c-1.967 2.366-18.069 27.179 13.969 43.656h-4.932c-40.248-14.827-9.702-44.531-9.037-45.302Zm11.914 168.026c-.492 0-.963-.096-1.413-.282a3.64 3.64 0 0 1-1.199-.804 3.668 3.668 0 0 1-.802-1.202 3.654 3.654 0 0 1-.281-1.422c0-.489.091-.962.281-1.418.186-.451.455-.854.802-1.202a3.64 3.64 0 0 1 1.199-.804 3.686 3.686 0 0 1 4.026.804c.347.348.616.751.802 1.202a3.724 3.724 0 0 1 0 2.836c-.19.456-.455.858-.802 1.202a3.66 3.66 0 0 1-1.199.804 3.69 3.69 0 0 1-1.414.286Zm6.983-45.302a4.038 4.038 0 0 1-1.575-.315 4.07 4.07 0 0 1-2.22-2.23 4.041 4.041 0 0 1-.315-1.575c0-.547.104-1.074.315-1.575.206-.506.504-.954.888-1.339a4.054 4.054 0 0 1 1.332-.891 4.02 4.02 0 0 1 1.575-.315c.545 0 1.066.103 1.57.315.505.207.947.505 1.332.891.388.385.682.833.893 1.339a4.114 4.114 0 0 1-.893 4.489 4.09 4.09 0 0 1-1.332.891 4.09 4.09 0 0 1-1.57.315Zm10.752 76.187c-.19 0-.376-.037-.554-.108a1.509 1.509 0 0 1-.467-.311 1.528 1.528 0 0 1-.31-.468 1.41 1.41 0 0 1 0-1.107c.07-.174.173-.331.31-.468.132-.133.289-.236.467-.311.174-.075.36-.112.55-.112a1.432 1.432 0 0 1 1.017.423c.136.132.239.29.314.468a1.477 1.477 0 0 1 0 1.103 1.51 1.51 0 0 1-.31.468 1.4 1.4 0 0 1-.467.311c-.178.075-.36.112-.55.112Zm1.567-92.664c-4.163-4.174-13.072-3.299-13.142-3.291l2.464-1.65c.38-.037 8.412-.626 13.964 4.941h-3.286Zm30.392 35.416c-.322 0-.645-.029-.959-.091a5.186 5.186 0 0 1-.926-.282 5.042 5.042 0 0 1-.851-.456 5.064 5.064 0 0 1-1.361-1.364 5.133 5.133 0 0 1-.454-.854 4.888 4.888 0 0 1-.281-.928 5.038 5.038 0 0 1-.095-.966c0-.323.033-.642.095-.962.062-.319.157-.626.281-.928.124-.299.277-.585.454-.854.182-.269.385-.518.612-.746.232-.232.48-.435.749-.618.268-.178.553-.331.851-.456.298-.124.608-.215.926-.282.314-.062.637-.091.959-.095.327.004.645.033.963.095a5.008 5.008 0 0 1 1.774.738c.273.183.521.386.748.618a4.87 4.87 0 0 1 1.067 1.6c.124.302.219.609.281.928.066.32.095.639.095.962 0 .327-.029.647-.095.966a4.888 4.888 0 0 1-.281.928 4.792 4.792 0 0 1-.455.854c-.178.27-.385.518-.612.746a4.578 4.578 0 0 1-.748.614c-.269.182-.55.336-.852.46a5.035 5.035 0 0 1-1.885.377v-.004Z"/><path fill="#845533" d="M358.484 281.053a3.928 3.928 0 0 1-2.162.651h-.041l-18.045-.033c-12.41-2.035-19.516-10.773-21.323-13.285a52.041 52.041 0 0 1-.058-14.752c1.724 6.051 6.478 15.055 19.599 22.74a12.086 12.086 0 0 0 4.436 1.542l.558.078h.008c2.088 1.091 4.936 1.986 8.69 2.102h.008c.277.07.554.12.839.149l7.491.808Zm86.932-24.054c0 6.811-.36 13.601-1.079 20.369-.041.39-.128.771-.265 1.14a4.66 4.66 0 0 1-.545 1.033 4.443 4.443 0 0 1-.782.866 4.58 4.58 0 0 1-2.075 1.02 4.616 4.616 0 0 1-3.369-.597c-.484-.307-.98-.601-1.48-.887a3.187 3.187 0 0 1-.541-.394 3.134 3.134 0 0 1-.451-.493 3.702 3.702 0 0 1-.335-.581 3.359 3.359 0 0 1-.207-.634 3.297 3.297 0 0 1-.07-.667c0-.224.025-.444.07-.664.046-.219.116-.431.207-.634.091-.207.203-.398.335-.58.723-1.007 1.509-2.16 2.373-3.47l.905-2.172 1.894-4.526a23.807 23.807 0 0 1-3.237 3.644c-.252.24-.513.485-.786.729-.136.124-.277.249-.417.373-.269.245-.554.489-.839.73-.145.12-.286.236-.426.356l-.409.336a43.992 43.992 0 0 1-1.567 1.219c-.236.174-.48.352-.728.526-.136.099-.273.195-.413.29-.141.095-.277.187-.414.282l-.421.278c-.141.091-.277.182-.414.269-.124.079-.248.154-.368.228-.115.071-.223.137-.334.203-.083.05-.162.1-.244.145l-.294.17-.45.249c-.021.008-.033.021-.054.025a3.23 3.23 0 0 1-2.509.224c-.005-.004-.009-.004-.013-.009a.226.226 0 0 1-.054-.016c-.012-.004-.024-.008-.037-.008l-.02-.009c.206-.141.405-.286.599-.427.128-.095.256-.195.38-.298.095-.075.186-.149.277-.228.091-.071.186-.149.273-.232.178-.154.343-.307.509-.465.09-.087.177-.169.26-.257.087-.082.169-.174.244-.256.182-.187.355-.382.517-.573.07-.078.136-.161.202-.24.087-.104.174-.215.252-.323a.758.758 0 0 0 .058-.075 1.99 1.99 0 0 0 .12-.157c.079-.104.153-.208.227-.307.083-.12.166-.241.24-.361.079-.108.149-.215.211-.323.046-.066.083-.133.124-.199a6.12 6.12 0 0 0 .227-.394c.075-.124.145-.249.203-.377.037-.058.07-.12.095-.182.046-.079.083-.15.12-.228.451-.921.814-1.874 1.079-2.865.004-.012.008-.02.012-.037.033-.128.067-.257.095-.381a7.99 7.99 0 0 0 .091-.394.583.583 0 0 0 .025-.12c.025-.104.042-.203.062-.299.05-.265.087-.505.116-.721.008-.05.017-.104.017-.153.008-.05.016-.096.02-.145a7.12 7.12 0 0 1 .025-.224c.004-.017.004-.033.004-.054.004-.054.012-.104.012-.145.005-.042.005-.079.005-.112.008-.058.008-.104.012-.141l.008-.079 2.456-10.673c-.008.02-.025.053-.042.099a26.616 26.616 0 0 1-.562 1.244l-.173.356c-.087.182-.19.386-.302.597a3.48 3.48 0 0 0-.108.211c-.037.075-.074.15-.119.224a7.092 7.092 0 0 1-.12.228c-.062.116-.129.236-.195.361-.066.116-.132.24-.202.369-.091.165-.19.335-.29.514-.264.451-.549.936-.859 1.434l-.021.033-.025.041-.099.158a1.207 1.207 0 0 1-.087.128l-.008.021c-.009.009-.013.021-.021.025a.06.06 0 0 1-.008.025l-.013.017-.024.037c-.004.008-.013.016-.021.025 0 .004-.004.008-.004.012a.048.048 0 0 1-.013.017c-.008.016-.02.033-.029.049l-.012.017c-.078.129-.161.253-.244.381a49.315 49.315 0 0 1-1.901 2.674c-.083.104-.158.211-.248.315-.137.182-.286.369-.434.551a.045.045 0 0 1-.021.025 2.558 2.558 0 0 1-.17.207c-.037.054-.078.1-.124.15a17.58 17.58 0 0 1-.483.572c-.004.012-.013.02-.025.029-.058.07-.116.141-.182.211-.095.112-.19.224-.294.332a32.73 32.73 0 0 1-1.343 1.421 29.062 29.062 0 0 0 2.902-7.005c.661-2.466.996-4.97 1-7.523 0-.804-.033-1.613-.103-2.404.004-.009.004-.009 0-.017a.57.57 0 0 0 .103-.311c.029-1.14-1.641-1.649-4.878-1.699l-102.727-3.246c-1.1-.021-2.431-1.368-2.464-2.47-.008-.199-.008-.394-.008-.589 0-.041 0-.087.004-.128v-.017c0-.269.012-.535.029-.796l102.173 3.179a1.04 1.04 0 0 0-.029-.17 1.013 1.013 0 0 0-.037-.169 1.248 1.248 0 0 0-.049-.162.75.75 0 0 0-.058-.158 2.31 2.31 0 0 0-.207-.431c-.004-.008-.008-.016-.016-.025a2.372 2.372 0 0 0-.199-.294c-.033-.045-.07-.091-.107-.137a5.129 5.129 0 0 0-.248-.253 2.859 2.859 0 0 0-1.881-.754l-98.929-3.2a15.049 15.049 0 0 1 3.005-5.961 2.451 2.451 0 0 1 1.183-.795 2.435 2.435 0 0 1 1.422-.017c22.53 6.131 53.038-.556 76.87-30.396.198-.253.426-.481.682-.684a4.313 4.313 0 0 1 3.642-.854c.318.066.624.17.918.311.293.137.566.303.822.506.257.199.488.422.691.675.157.191.322.39.483.593.323.402.653.821.992 1.26.166.216.335.435.505.668.289.381.579.775.872 1.181.099.133.198.269.294.406a109.167 109.167 0 0 0 .591.842 76.284 76.284 0 0 1 1.389 2.064c.177.269.351.547.525.821.177.281.351.559.525.849.165.27.33.547.496.825.24.402.475.808.707 1.223.177.307.351.622.521.941.107.195.21.385.314.58.153.286.306.581.45.871.178.335.348.675.513 1.024.157.319.31.642.467.969a56.38 56.38 0 0 1 1.282 2.973c.136.339.268.683.396 1.032.129.34.253.675.372 1.024.009.016.013.033.017.049.12.336.231.676.343 1.02.004.012.013.025.013.041.103.328.206.655.305.987.034.108.067.211.096.319.037.12.074.249.107.373.05.174.099.344.145.514.033.116.062.228.086.344.063.22.12.448.174.676.066.265.128.535.186.8.054.228.103.46.149.688.058.257.107.514.153.775a89.49 89.49 0 0 1 .145.792c.041.248.078.493.115.742.021.099.033.203.046.302a10.97 10.97 0 0 1 .054.39v.008l.02.05 1.621 4.066c0-8.568-1.488-18.748-7.673-29.442a100.844 100.844 0 0 0-4.593-7.267 1.388 1.388 0 0 1-.243-.816 1.389 1.389 0 0 1 .959-1.31c.281-.091.562-.095.847-.008.232.07.467.145.703.223.178.054.355.117.537.179a18.98 18.98 0 0 1 1.087.402c.091.033.182.07.273.112.091.037.182.07.273.112.124.053.244.107.368.161.207.096.418.195.62.299.103.054.207.103.31.157.137.071.269.145.405.22.137.075.269.149.405.232.133.079.265.162.397.249.133.083.265.166.397.257l4.928 1.645s11.5 8.742 15.812 16.112a190.76 190.76 0 0 1 4.725 42.367ZM93.31 269.974a68.73 68.73 0 0 1-11.786.207h-.822a20.738 20.738 0 0 0 7.433 3.83 50.76 50.76 0 0 0-11.17 7.619 4.804 4.804 0 0 1-2.377 1.214 4.831 4.831 0 0 1-2.654-.211 4.797 4.797 0 0 1-2.154-1.58 4.802 4.802 0 0 1-1.013-2.47 193.404 193.404 0 0 1-1.207-21.584c0-1.471.016-2.947.058-4.422 4.762 5.94 10.492 10.711 17.193 14.308l3.282.825c-10.33-5.658-16.122-15.855-18.243-23.598a.9.9 0 0 1 .075-.655.892.892 0 0 1 .487-.439.899.899 0 0 1 .658 0c.219.083.38.228.492.435 3.815 7.221 10.587 15.491 22.538 23.064.339.211.583.501.736.87.153.369.186.75.095 1.14-.087.39-.281.717-.58.982a1.817 1.817 0 0 1-1.04.465Zm91.285-33.02L75.009 224.962a2.534 2.534 0 0 1-1-.336 2.46 2.46 0 0 1-.773-.717 2.473 2.473 0 0 1-.418-.97 2.601 2.601 0 0 1 .021-1.057l.008-.033 97.358 10.889a4.13 4.13 0 0 0-1.025-3.204 4.14 4.14 0 0 0-1.178-.912 4.042 4.042 0 0 0-1.427-.431l-89.52-10.015a2.259 2.259 0 0 1-.529-.124 2.332 2.332 0 0 1-.487-.24 2.403 2.403 0 0 1-.745-.784 2.354 2.354 0 0 1-.293-1.575 2.25 2.25 0 0 1 .149-.522l.008-.025 72.277 8.647a4.001 4.001 0 0 0 1.596-.125 4.048 4.048 0 0 0 1.43-.725c.43-.34.778-.746 1.042-1.223.269-.477.434-.982.5-1.525l-72.665-8.701a1.652 1.652 0 0 1-.393-.095 1.734 1.734 0 0 1-.657-.46 1.753 1.753 0 0 1-.232-.336 1.648 1.648 0 0 1-.186-.779c0-.137.017-.274.05-.402a1.76 1.76 0 0 1 .144-.382l.017-.016c8.888-16.622 20.913-25.795 26.213-29.24a4.381 4.381 0 0 1 2.344-.709c.417 0 .827.054 1.223.17a4.31 4.31 0 0 1 1.129.506c13.563 8.609 26.87 21.542 35.519 30.715.963 1.02 6.936 3.014 7.78 3.221 9.735 2.363 18.148 3.411 25.423 3.403l5.932 15.615c.195.526.608 2.636.951 4.489Z"/><path fill="#EFF1EA" d="M100.301 178.056c-6.334 3.121-18.599 11.175-26.015 29.148-.157.369-.302.734-.442 1.095a186.42 186.42 0 0 1 12.616-34.09 4.977 4.977 0 0 1 2.427-2.362 4.92 4.92 0 0 1 3.373-.249 50.759 50.759 0 0 1 8.016 3.055c.326.157.587.385.781.692.194.307.294.638.294.999.004.365-.091.701-.282 1.007a1.86 1.86 0 0 1-.768.705Zm212.144-16.696a92.109 92.109 0 0 0-6.916 7.817 57.324 57.324 0 0 0-2.679-3.797 57.067 57.067 0 0 0-2.985-3.56 55.927 55.927 0 0 0-10.579-9.012 56.91 56.91 0 0 0-3.985-2.379 56.472 56.472 0 0 0-4.167-2.035 53.88 53.88 0 0 0-4.324-1.679 55 55 0 0 0-4.452-1.314 56.454 56.454 0 0 0-4.543-.937 57.274 57.274 0 0 0-4.601-.551 56.084 56.084 0 0 0-9.268.062 55.548 55.548 0 0 0-9.128 1.608c-1.497.394-2.972.85-4.432 1.372-3.021-20.7-15.378-21.629-15.936-21.737l.823.821c.442.091 9.462 3.979 11.893 22.176a55.166 55.166 0 0 0-15.312 9.816 102.784 102.784 0 0 0-2.331-14.694c-.823-1.646-1.642-5.766-4.928-2.471-.798.8-13.964 11.706-29.57 1.65l-23.443-13.919a2.98 2.98 0 0 1-.315-.224l-.124-.1a.535.535 0 0 1-.099-.091 3.06 3.06 0 0 1-.368-.361c-.14-.14-.273-.29-.401-.431-6.655-9.057-15.134-12.435-22.434-13.504a2.09 2.09 0 0 1-1.083-.577 2.097 2.097 0 0 1-.583-1.081 1.874 1.874 0 0 1-.033-.344 1.866 1.866 0 0 1 .095-.626c.024-.067.053-.133.082-.199.129-.282.31-.523.55-.717C170.54 82.627 212.358 67.56 256.488 67.56a194.251 194.251 0 0 1 10.971.315c.724.041 1.439.083 2.162.141 1.571.1 3.138.228 4.701.377.74.067 1.467.141 2.207.216 2.096.22 4.175.476 6.251.767.665.09 1.331.178 1.996.286.674.1 1.348.207 2.022.315.959.153 1.922.31 2.885.485.695.124 1.393.248 2.084.377 1.24.232 2.472.48 3.704.742.682.14 1.364.29 2.038.435.707.157 1.405.315 2.104.48.467.109.926.212 1.397.328.426.1.852.207 1.273.315.501.125 1.001.245 1.501.377.699.183 1.389.365 2.079.552.699.182 1.389.373 2.072.568 1.806.514 3.6 1.048 5.378 1.608.541.174 1.083.344 1.628.518.761.249 1.526.502 2.291.767.682.228 1.364.46 2.046.709a176.583 176.583 0 0 1 9.405 3.598c.492.207.983.41 1.48.626.657.273 1.314.56 1.971.85a186.915 186.915 0 0 1 11.844 5.69c.55.295 1.091.585 1.633.871a186.64 186.64 0 0 1 5.626 3.154c.616.365 1.232.726 1.848 1.099.62.36 1.236.742 1.844 1.11a191.152 191.152 0 0 1 7.242 4.689c1.191.804 2.373 1.629 3.551 2.47 1.174.829 2.332 1.687 3.489 2.554a190.688 190.688 0 0 1 13.465 11.076c.024.02.045.041.066.066 1.248 1.169 1.959 2.607 2.141 4.307l.265 2.259c.173 1.459.471 2.897.781 4.331 5.887 27.039-63.207 21.227-73.484 34.372Zm56.948 114.404c-.008.009-.008.009-.016.009a52.98 52.98 0 0 0-2.472.936 14.157 14.157 0 0 1-4.907 1.074l-15.155.634 1.062.709a6.552 6.552 0 0 0 2.241.97c-3.754-.116-6.602-1.011-8.69-2.102l2.923.423c-13.489-8.319-18.776-17.948-20.856-23.921a2.373 2.373 0 0 1-.119-.568 2.292 2.292 0 0 1 .012-.585c.029-.194.079-.381.153-.563a2.422 2.422 0 0 1 .674-.945 2.362 2.362 0 0 1 1.029-.531c.186-.046.38-.066.575-.066l33.753-.017c.298 9.157 3.977 18.334 9.793 24.543Zm71.298-61.132c-4.312-7.37-15.812-16.112-15.812-16.112-2.923-1.981-8.024-5.753-12.46-7.846a3.27 3.27 0 0 1-.975-.701 3.231 3.231 0 0 1-.654-1.007 3.28 3.28 0 0 1-.239-1.177 3.198 3.198 0 0 1 .198-1.186c2.803-7.436 6.131-20.228.723-29.865l-.558-.22a64.148 64.148 0 0 1-10.909 12.829 54.655 54.655 0 0 0 4.684-17.716 4.106 4.106 0 0 1 .938-2.309c.269-.327.583-.605.943-.837.355-.228.74-.398 1.149-.51a3.998 3.998 0 0 1 1.252-.137c.426.017.835.1 1.236.249.397.145.765.348 1.1.609.335.261.624.568.864.916a186.849 186.849 0 0 1 17.367 31.142 187.105 187.105 0 0 1 11.153 33.878Zm-307.468 52.046c-8.962-.829-26.234 1.032-26.234 1.032-21.81-7.651-30.33-21.094-33.212-27.594a2.288 2.288 0 0 1-.173-.596 2.266 2.266 0 0 1-.017-.626 2.3 2.3 0 0 1 .145-.606 2.54 2.54 0 0 1 .293-.551 2.42 2.42 0 0 1 2.174-.982l48.628 4.497a31.03 31.03 0 0 0-.178 3.395 32.578 32.578 0 0 0 2.212 11.83 32.714 32.714 0 0 0 2.704 5.397 32.253 32.253 0 0 0 3.658 4.804Zm44.356 2.884a30.226 30.226 0 0 1-9.165 4.406 32.224 32.224 0 0 0 5.395-4.195 32.59 32.59 0 0 0 7.615-11.275 32.48 32.48 0 0 0 1.881-6.578c1.157 6.404.297 13.803-5.726 17.642Z"/><path stroke="#000" stroke-miterlimit="10" stroke-width=".347" d="M221.854 158.031c.757 8.377.79 19.167-2.026 29.215 3.341 9.687 20.05-1.663 17.768-34.848a59.743 59.743 0 0 0-.43-4.183m-15.312 9.816a55.166 55.166 0 0 1 15.312-9.816m-15.312 9.816a102.784 102.784 0 0 0-2.331-14.694c-.823-1.646-1.642-5.766-4.928-2.471-.798.8-13.964 11.706-29.57 1.65l-23.443-13.919a2.98 2.98 0 0 1-.315-.224l-.124-.1a.535.535 0 0 1-.099-.091 3.06 3.06 0 0 1-.368-.361c-.14-.14-.273-.29-.401-.431-6.655-9.057-15.134-12.435-22.434-13.504a2.09 2.09 0 0 1-1.083-.577 2.097 2.097 0 0 1-.583-1.081 1.874 1.874 0 0 1-.033-.344 1.866 1.866 0 0 1 .095-.626c.024-.067.053-.133.082-.199.129-.282.31-.523.55-.717C170.54 82.627 212.358 67.56 256.488 67.56a194.251 194.251 0 0 1 10.971.315c.724.041 1.439.083 2.162.141 1.571.1 3.138.228 4.701.377.74.067 1.467.141 2.207.216 2.096.22 4.175.476 6.251.767.665.09 1.331.178 1.996.286.674.1 1.348.207 2.022.315.959.153 1.922.31 2.885.485.695.124 1.393.248 2.084.377 1.24.232 2.472.48 3.704.742.682.14 1.364.29 2.038.435.707.157 1.405.315 2.104.48.467.109.926.212 1.397.328.426.1.852.207 1.273.315.501.125 1.001.245 1.501.377.699.183 1.389.365 2.079.552.699.182 1.389.373 2.072.568 1.806.514 3.6 1.048 5.378 1.608.541.174 1.083.344 1.628.518.761.249 1.526.502 2.291.767.682.228 1.364.46 2.046.709a176.583 176.583 0 0 1 9.405 3.598c.492.207.983.41 1.48.626.657.273 1.314.56 1.971.85a186.915 186.915 0 0 1 11.844 5.69c.55.295 1.091.585 1.633.871a186.64 186.64 0 0 1 5.626 3.154c.616.365 1.232.726 1.848 1.099.62.36 1.236.742 1.844 1.11a191.152 191.152 0 0 1 7.242 4.689c1.191.804 2.373 1.629 3.551 2.47 1.174.829 2.332 1.687 3.489 2.554a190.688 190.688 0 0 1 13.465 11.076c.024.02.045.041.066.066 1.248 1.169 1.959 2.607 2.141 4.307l.265 2.259c.173 1.459.471 2.897.781 4.331 5.887 27.039-63.207 21.227-73.484 34.372a92.109 92.109 0 0 0-6.916 7.817 57.324 57.324 0 0 0-2.679-3.797m-65.684-17.165c-2.431-18.197-11.451-22.085-11.893-22.176l-.823-.821c.558.108 12.915 1.037 15.936 21.737m76.469 106.679a52.012 52.012 0 0 0 .054 14.748c-.223-.311-.368-.531-.43-.622a.168.168 0 0 1-.02-.037l-.009-.013-.066-.066-2.393-2.408c.029.054.111.257.256.584.021.046.041.1.07.149.058.125.12.266.195.419.033.075.07.149.107.228.186.394.418.858.69 1.38.112.212.232.427.356.655.186.34.389.697.608 1.074a42.13 42.13 0 0 0 .822 1.335c.186.298.389.605.6.916.086.128.173.261.268.389a25.172 25.172 0 0 0 .645.904c.161.228.335.456.509.684a34.052 34.052 0 0 0 1.67 2.031c.099.112.198.224.306.34.149.17.306.34.467.506.306.331.632.663.963.986.108.112.227.224.339.332.062.062.124.12.19.178.277.261.562.526.856.779.079.071.161.145.24.212.227.195.454.385.686.568.058.049.112.095.169.14.162.129.319.253.484.378a27.285 27.285 0 0 0 1.798 1.281c.1.066.195.124.29.186a22.541 22.541 0 0 0 1.31.792c.124.07.252.141.385.207.062.037.124.07.19.104.062.037.128.07.194.103.128.071.256.137.389.203.132.067.264.133.397.195.157.079.318.154.483.224a19.207 19.207 0 0 0 1.488.626c.141.062.286.116.43.166.377.137.757.265 1.141.389.236.075.476.145.715.212.24.07.484.132.728.195.227.062.459.116.69.165.133.034.269.063.406.083.136.033.272.058.409.083.124.029.252.05.38.071.062.012.124.025.186.033.07.012.137.025.207.033l12.865.522c.31.009.529.158.657.444a.699.699 0 0 1-.108.787c-.186.233-.368.465-.549.697-.133.182-.265.365-.397.543a6.39 6.39 0 0 0-.195.282c-.256.364-.5.733-.731 1.115-.071.116-.145.236-.215.356-.157.27-.31.539-.451.813-.07.12-.132.24-.194.364a13.463 13.463 0 0 0-.306.63c-.141.299-.273.593-.393.896-.008.012-.012.025-.02.041v.009l-.009.049-.814 4.058c9.661-23.656 66.184-25.131 90.293-7.685a9.4 9.4 0 0 1 1.926 1.895 9.291 9.291 0 0 1 1.869 5.011 9.268 9.268 0 0 1-.211 2.698 202.618 202.618 0 0 1-1.695 6.852 5.362 5.362 0 0 1-.467 1.161 5.286 5.286 0 0 1-2.766 2.429 5.269 5.269 0 0 1-1.207.307 5.212 5.212 0 0 1-1.248.02 5.454 5.454 0 0 1-1.216-.273 5.425 5.425 0 0 1-1.124-.551c-17.838-11.47-43.555 1.181-43.902 1.314l-8.206 4.116c.186-.054 2.187-.485 5.341-.879.05-.004.103-.008.153-.017.608-.074 1.257-.145 1.943-.215.124-.009.252-.025.38-.038.38-.033.769-.066 1.174-.099.232-.021.467-.037.707-.058.294-.021.591-.042.897-.062.186-.013.372-.021.567-.033.148-.009.301-.013.458-.021l.422-.025c.149-.004.302-.012.455-.017.322-.016.653-.024.988-.037.062-.004.116-.004.173-.004.211-.008.418-.008.633-.012a74.549 74.549 0 0 1 3.034-.009c.426.009.856.017 1.29.033.517.017 1.033.042 1.554.071.343.016.687.041 1.034.066.277.017.554.042.835.062.277.021.562.046.843.075.223.017.447.037.666.066a44.928 44.928 0 0 1 1.773.203c.261.034.517.071.773.108.211.029.418.062.633.096a.808.808 0 0 1 .136.024c.244.038.492.075.74.116-.025.241-.041.477-.066.718v.004l-.136 1.488c-.062.568-.12 1.136-.182 1.695-.038.324-.071.647-.108.962a176.36 176.36 0 0 1-.31 2.483c-.029.228-.062.456-.091.68l-.173 1.202c-.087.58-.178 1.16-.269 1.732-.046.282-.087.564-.137.838-.173 1.036-.351 2.06-.545 3.071a47.55 47.55 0 0 1-.145.734c-.165.85-.339 1.691-.521 2.52-.045.216-.091.431-.14.642-.033.154-.067.311-.104.465a89.25 89.25 0 0 1-.649 2.707c-.045.19-.095.373-.14.563-.037.166-.083.332-.128.498-.104.406-.211.812-.323 1.218a67.593 67.593 0 0 1-.525 1.866 42.28 42.28 0 0 1-.36 1.214c-.09.319-.19.638-.289.953-.07.228-.145.456-.215.684-.074.237-.149.469-.231.705-.046.158-.1.311-.149.46-.079.241-.157.481-.244.721.004.005.004.005-.004.009a63.04 63.04 0 0 1-.596 1.72c-.095.261-.186.518-.281.775-.111.307-.223.614-.343.916-.091.236-.182.477-.268.713-.013.033-.025.066-.038.095a86.954 86.954 0 0 1-.607 1.53c-.199.481-.397.962-.6 1.438-.297.709-.607 1.41-.922 2.102-.053.124-.111.24-.165.356-.021.058-.05.108-.074.166-.075.174-.162.353-.244.527a87.275 87.275 0 0 1-1.774 3.581 58.22 58.22 0 0 1-.971 1.811c-.161.295-.327.585-.492.879-.132.236-.265.473-.405.709-.087.145-.166.286-.252.427-.116.207-.236.414-.364.618a79.617 79.617 0 0 1-1.741 2.789c-.128.195-.256.394-.384.585-.128.194-.26.389-.393.58-.202.303-.409.601-.62.899-.099.15-.202.291-.306.436a.419.419 0 0 1-.062.091 4.603 4.603 0 0 1-.235.327c-.017.029-.038.054-.058.079-.145.207-.298.415-.447.618a.05.05 0 0 1-.025.033c-.223.307-.446.609-.673.912-.029.037-.058.079-.087.116-.397.522-.798 1.04-1.207 1.55-.203.253-.41.506-.612.755a74.24 74.24 0 0 1-.62.746c-.203.24-.405.48-.612.717-.136.161-.281.323-.418.481a72.627 72.627 0 0 1-1.773 1.96c-.215.228-.434.456-.653.688-.219.228-.438.448-.657.672-.224.224-.443.448-.666.663-.223.22-.446.439-.67.655a78.32 78.32 0 0 1-2.621 2.4c-.405.352-.806.701-1.219 1.045a73.035 73.035 0 0 1-1.98 1.595c-.335.262-.67.514-1.005.763-.289.22-.574.431-.864.643-.124.087-.24.174-.364.257-.264.194-.537.389-.81.576-.016.016-.037.025-.054.041-.326.224-.653.444-.975.668-.343.228-.695.456-1.042.684-.248.157-.492.315-.736.468-.74.464-1.484.916-2.236 1.351-.12.071-.244.141-.368.216-.24.132-.476.269-.719.402l-.91.497c-.19.104-.384.203-.57.303-.286.153-.575.302-.868.452-.36.182-.728.369-1.092.543-50.367 24.601-108.118-16.481-102.93-72.428l3.138-33.828a9.852 9.852 0 0 1 1.157-3.818 9.8 9.8 0 0 1 2.559-3.054l.033-.021c4.928-3.934 17.561-12.995 29.322-12.995.14 0 .285 0 .426.012l2.187.034-.1-2.185c-.008-.315-1.839-31.217-44.861-29.865-21.401.667-31.62 8.663-36.416 15.254-5.299 7.283-5.353 14.404-5.353 14.702l.012 1.488 1.41.465c.232.074 23.109 7.552 30.083 12.601l.041.033a12.52 12.52 0 0 1 3.642 4.079 12.525 12.525 0 0 1 1.583 5.243l2.051 26.993c5.06 66.682-74.026 106.239-123.212 61.082-15.882-14.578-24.791-35.507-19.061-60.141.091-.365.215-.713.38-1.049.166-.331.368-.646.604-.936.235-.286.5-.548.794-.78.293-.228.607-.423.942-.584a4.956 4.956 0 0 1 3.262-.353c.359.083.711.208 1.046.369.165.079.33.158.496.245l.252.124c.256.121.504.253.756.386l.348.186c.173.092.343.187.512.286.066.034.128.067.19.104.178.104.364.211.542.319a26.783 26.783 0 0 1 1.091.667c.199.129.401.257.6.39.111.071.223.141.326.212.17.116.339.228.509.348.421.29.847.597 1.273.912.078.058.161.116.236.178l.004.004c.173.133.351.265.521.398.173.133.351.269.525.406.016.013.033.025.045.037.004 0 .008.005.012.005a49.854 49.854 0 0 1 1.881 1.575l-.727-2.91-.042-.162-.053-.224c-.24-.207-.476-.41-.711-.609-.335-.294-.67-.572-1.005-.846-.165-.136-.335-.273-.5-.406-.165-.137-.335-.269-.5-.398a21.62 21.62 0 0 0-.505-.393c-.165-.129-.33-.253-.496-.374a9.59 9.59 0 0 0-.496-.373 37.383 37.383 0 0 0-1.488-1.073 36.95 36.95 0 0 0-.496-.344c-.165-.112-.331-.228-.496-.332a34.92 34.92 0 0 0-.492-.327c-.265-.17-.529-.34-.794-.502a45.361 45.361 0 0 0-1.165-.709c-.29-.17-.575-.34-.864-.497-.29-.166-.571-.319-.86-.477-.178-.095-.356-.19-.534-.277-.181-.096-.359-.191-.533-.274-.157-.083-.314-.158-.467-.232-.157-.083-.318-.154-.471-.228-.145-.075-.29-.141-.434-.207a8.179 8.179 0 0 0-.438-.199 3.093 3.093 0 0 0-.211-.096 5.371 5.371 0 0 0-.211-.091c-.149-.066-.298-.133-.447-.195-.235-.099-.467-.199-.702-.29a18.04 18.04 0 0 0-1.749-.663c-.161-.058-.322-.112-.484-.17-.173-.058-.347-.112-.516-.17a30.018 30.018 0 0 0-.782-.24 20.103 20.103 0 0 0-.913-.262c-.19-.058-.377-.103-.567-.153l-.099-.025c-.231-.058-.459-.116-.686-.166a34.413 34.413 0 0 0-1.86-.385 34.61 34.61 0 0 0-1.654-.257c-.194-.025-.388-.05-.579-.071a33.71 33.71 0 0 0-2.596-.194c-.26-.005-.512-.013-.765-.013-.062-.004-.128-.004-.194-.004-.364-.004-.727 0-1.087.012a58.34 58.34 0 0 0-.885.034c-.173.012-.343.025-.516.033a33.62 33.62 0 0 0-2.84.336c-.27.045-.534.095-.794.145-.248.049-.488.095-.724.149-.02 0-.033.004-.05.008-.185.042-.371.083-.549.129-.269.062-.53.128-.79.199-.095.025-.19.049-.285.078a6.163 6.163 0 0 0-.318.092c-.26.074-.517.153-.76.232-.071.02-.137.041-.203.062-.12.041-.236.079-.352.124a1.269 1.269 0 0 0-.132.046 2.808 2.808 0 0 0-.335.12c-.202.071-.4.141-.595.22-.178.066-.347.137-.517.207-.17.066-.33.141-.492.207-.161.071-.322.145-.48.216a10.878 10.878 0 0 0-.397.186c-.392.187-.768.378-1.124.576-.16.083-.314.17-.463.257-.153.088-.297.175-.442.262-.095.058-.186.112-.281.174a12.8 12.8 0 0 0-.753.497c-.09.058-.177.116-.264.187-.14.099-.273.199-.405.298-.108.079-.211.162-.31.241-.203.161-.385.323-.558.476a8.84 8.84 0 0 0-.943.987c-.12-.415-.24-.838-.355-1.252-.004-.004-.004-.004-.004-.008-.005 0-.005 0-.005-.005a197.386 197.386 0 0 1-1.133-4.157c-.09-.332-.173-.667-.26-.999-.14-.56-.285-1.119-.421-1.683-.331-1.31-.5-2.645-.505-4a16.133 16.133 0 0 1 .488-4 16.356 16.356 0 0 1 3.762-7.059c.227-.245.463-.489.699-.73.02-.02.04-.045.07-.066.236-.24.467-.477.71-.709.08-.079.154-.153.228-.219.182-.175.36-.344.542-.506a9.62 9.62 0 0 1 .368-.336c.202-.186.405-.361.603-.535.062-.053.124-.107.186-.157.108-.095.211-.187.323-.274.09-.083.186-.157.28-.236.1-.079.2-.166.303-.245.09-.07.181-.149.277-.223.09-.075.186-.15.28-.22a42.062 42.062 0 0 1 1.34-1.016c.091-.066.186-.132.285-.199a45.71 45.71 0 0 1 2.406-1.616c.273-.174.554-.34.835-.506a48.423 48.423 0 0 1 2.568-1.447c.467-.244.938-.48 1.413-.717.24-.116.48-.228.72-.344l.723-.335a42.316 42.316 0 0 1 1.253-.548c.277-.124.562-.24.843-.356.285-.116.579-.232.872-.348.376-.149.757-.29 1.137-.431a6.79 6.79 0 0 1 .29-.108c.094-.037.19-.071.289-.104.264-.095.525-.186.79-.273.313-.112.632-.22.95-.324.389-.128.786-.252 1.178-.373a64.59 64.59 0 0 1 1.588-.468l.798-.224c.537-.141 1.074-.282 1.62-.414.426-.104.856-.208 1.286-.303.252-.058.504-.112.76-.17.211-.046.43-.091.645-.137a66.86 66.86 0 0 1 2.468-.472c.281-.054.562-.1.843-.145.191-.034.381-.063.575-.092.19-.029.38-.058.571-.091l.591-.087c.194-.029.388-.054.587-.083a78.371 78.371 0 0 1 1.703-.219c.343-.042.686-.075 1.025-.112.227-.029.459-.05.69-.071.575-.058 1.15-.112 1.724-.157.368-.029.736-.054 1.104-.079a92.07 92.07 0 0 1 3.894-.187c.476-.016.947-.029 1.422-.033a99.732 99.732 0 0 1 3.791.021c.074 0 .149 0 .219.004.29.008.579.013.872.025.033 0 .071 0 .108.004.351.013.699.025 1.05.042.033 0 .062.004.095.004.351.016.703.033 1.058.054.645.033 1.294.078 1.935.124.285.025.558.046.843.066.116.009.236.021.356.029.194.017.388.033.587.054.24.017.475.042.711.067.235.02.479.045.719.074.484.046.972.1 1.451.162.368.041.736.087 1.1.137.372.045.74.095 1.112.145.322.045.649.091.971.141.554.078 1.104.165 1.654.257.372.062.752.124 1.124.19.633.112 1.265.228 1.889.353.24.041.476.091.716.141.082.012.157.033.231.045.174.033.343.071.513.108.231.045.463.095.69.145.165.037.327.07.488.108a88.398 88.398 0 0 1 4.043.986c.322.083.645.166.963.261.244.067.488.133.728.204.053.012.107.033.161.045.202.054.409.116.616.178.248.075.5.145.744.22.562.17 1.12.344 1.67.526a76.725 76.725 0 0 1 2.422.821c.079.025.162.054.24.083.075.025.145.05.219.083.389.137.773.278 1.158.423a67.528 67.528 0 0 1 3.385 1.368l.021.008c.128.058.252.112.385.166.128.054.256.112.384.166.265.12.529.232.79.356.128.054.26.116.388.174.128.058.257.12.385.183.256.116.504.236.752.356.265.124.525.253.785.381.335.17.666.34.997.51.132.067.264.137.397.212.177.091.363.186.537.286.033.016.062.029.091.049.211.108.426.228.637.344a68.99 68.99 0 0 1 1.864 1.078c.306.183.604.369.901.551.298.187.591.378.881.564.103.067.206.133.306.203.19.125.38.253.574.382a.11.11 0 0 1 .025.02c.19.125.376.253.562.386a23.553 23.553 0 0 1 .988.709l.381.282c.363.265.711.538 1.058.816l.504.406a37.384 37.384 0 0 1 2.414 2.127 33.414 33.414 0 0 1 .687.671c.136.133.268.27.401.407l.103.111c.083.079.157.162.231.241.153.157.298.319.443.477.144.157.285.315.426.476.012.009.02.021.029.033.078.087.152.17.219.257.099.112.198.233.293.344.095.116.19.233.281.349.025.024.05.053.071.078.272.336.533.68.785 1.024l.591-1.189.232-.461c-.095-.128-.191-.252-.29-.381-.004-.012-.008-.021-.016-.025a.176.176 0 0 0-.029-.037c0-.004 0-.004-.009-.008a28.397 28.397 0 0 0-.905-1.153 2.41 2.41 0 0 0-.161-.195 16.113 16.113 0 0 0-.413-.493 4.277 4.277 0 0 0-.228-.265 8.95 8.95 0 0 0-.426-.481 1.429 1.429 0 0 0-.144-.166c-.199-.228-.41-.452-.625-.679-.086-.1-.181-.199-.276-.299l-.418-.431a19.49 19.49 0 0 0-1.571-1.53 33.387 33.387 0 0 0-.81-.737c-.161-.15-.331-.291-.496-.436a24.16 24.16 0 0 0-1.05-.887c-.153-.132-.31-.261-.472-.385-.5-.411-1.016-.808-1.541-1.202a28.997 28.997 0 0 0-.902-.659 57.29 57.29 0 0 0-1.852-1.289 1.941 1.941 0 0 1-.727-.888 1.972 1.972 0 0 1-.116-1.144 1.95 1.95 0 0 1 .537-1.015 1.925 1.925 0 0 1 1.005-.551c6.738-1.484 11.066-4.456 11.682-4.9 11.365-7.349 3.539-30.006 3.473-32.609l-3.03-21.592-.116-.813a26.232 26.232 0 0 0 1.203-.166 42.117 42.117 0 0 0 1.637-.265c.19-.033.372-.066.554-.103.298-.063.595-.121.893-.187.269-.05.541-.108.806-.174.116-.025.227-.05.343-.079.112-.021.227-.054.339-.083a33.137 33.137 0 0 0 1.86-.493c.327-.091.653-.191.98-.294.19-.054.38-.116.566-.183.013 0 .025 0 .033-.008a.917.917 0 0 0 .133-.046c.111-.033.219-.07.33-.107.137-.046.277-.1.418-.15.136-.049.277-.095.409-.149.314-.108.625-.228.926-.344.31-.12.612-.244.91-.373.335-.141.661-.282.984-.427.256-.12.516-.24.764-.36.025-.013.05-.021.071-.034.194-.091.384-.186.578-.286a.077.077 0 0 0 .038-.024c.078-.038.157-.075.231-.117a.102.102 0 0 0 .046-.024c.082-.038.161-.079.239-.125.157-.074.31-.161.467-.244.211-.116.422-.232.633-.357.095-.05.186-.103.277-.161.277-.158.55-.32.818-.494.228-.137.455-.277.674-.423.248-.157.492-.323.736-.489.211-.149.418-.294.624-.443a.252.252 0 0 0 .054-.042 16.2 16.2 0 0 0 .566-.418c.203-.154.406-.307.604-.469.012 0 .017-.012.029-.02.157-.121.314-.245.467-.378.103-.083.207-.165.31-.257.099-.083.203-.17.302-.257.099-.083.194-.165.289-.252.095-.079.19-.166.281-.249a33.926 33.926 0 0 0 1.613-1.555c.103-.099.202-.207.305-.315.286-.298.559-.601.827-.907.248-.274.488-.556.715-.838.1-.116.195-.228.286-.344 0 0 .004 0 .004-.004l.165-.203c.095-.008.19-.021.285-.033.009 0 .013-.004.021-.004.004.004.008 0 .012-.004.211-.025.418-.058.629-.1a13.841 13.841 0 0 0 2.137-.613c.108-.038.219-.079.331-.125l.326-.132c.108-.046.219-.092.331-.141a18.75 18.75 0 0 0 1.298-.626c.194-.1.389-.203.583-.315.194-.104.384-.212.579-.332a.127.127 0 0 0 .049-.025c.1-.058.199-.116.302-.178.112-.066.227-.141.339-.216.07-.041.141-.082.211-.132.058-.033.116-.071.178-.112.111-.071.227-.145.339-.224.12-.075.231-.149.347-.228.202-.141.405-.278.608-.423.169-.124.343-.248.516-.373.178-.128.36-.265.538-.398l.285-.219c.426-.324.843-.659 1.253-.999l.516-.431a8.33 8.33 0 0 0 .525-.452c.054-.042.104-.087.157-.137.1-.083.199-.17.298-.257a70.457 70.457 0 0 0 3.096-2.914l.195-.195c.062-.058.12-.12.177-.182.178-.179.348-.357.517-.531.19-.191.372-.381.55-.564.087-.095.174-.186.256-.277.021-.017.037-.038.054-.058.116-.121.223-.232.327-.349.066-.07.132-.14.194-.211.182-.199.355-.385.517-.564.049-.058.103-.112.148-.165.042-.046.079-.088.112-.129.091-.099.178-.191.252-.282.046-.041.083-.087.12-.132l.19-.216c.013-.012.025-.029.037-.041.009-.009.013-.017.017-.025.05-.05.095-.1.132-.145.046-.054.087-.1.128-.145l.1-.112c0-.009.004-.013.008-.017a1.83 1.83 0 0 1 .083-.087c.107-.129.177-.211.21-.24 0 0 9.947-10.997 8.21-36.237a59.785 59.785 0 0 0-.492-4.622m76.469 106.679v-.013a23.767 23.767 0 0 1-.988-6.872l.067.012a24.948 24.948 0 0 1 .632-11.208 10.93 10.93 0 0 0 .447-4c-.013-.195-.038-.394-.058-.589-.025-.199-.058-.394-.091-.593-.025-.103-.046-.215-.071-.323a5.7 5.7 0 0 0-.107-.448c-.037-.132-.079-.269-.116-.402a7.821 7.821 0 0 0-.12-.356 9.26 9.26 0 0 0-.458-1.103 4.263 4.263 0 0 0-.182-.356 8.79 8.79 0 0 0-.406-.697l-.124-.194h-.004c-.029-.05-.062-.1-.095-.146-.066-.033-.132-.066-.194-.099a38.363 38.363 0 0 1-1.459-.808 25.344 25.344 0 0 1-1.005-.589c-.025-.017-.049-.029-.074-.046a39.51 39.51 0 0 1-.992-.621 33.023 33.023 0 0 1-1.042-.693 42.254 42.254 0 0 1-.347-.236 49.261 49.261 0 0 1-.74-.526 7.86 7.86 0 0 1-.377-.282 13.618 13.618 0 0 1-.541-.406c-.203-.158-.405-.311-.604-.473a40.303 40.303 0 0 1-1.785-1.509c-.091-.078-.178-.161-.265-.24a24.412 24.412 0 0 1-.967-.908c-.12-.112-.24-.232-.356-.348-.107-.108-.215-.216-.322-.328-.319-.323-.633-.65-.935-.986a29.488 29.488 0 0 1-.673-.759l-.282-.331c-.144-.17-.289-.344-.429-.514a39.175 39.175 0 0 1-1.22-1.592c-.132-.178-.256-.361-.38-.539a31.124 31.124 0 0 1-1.154-1.778c-.029-.042-.053-.087-.078-.129a31.738 31.738 0 0 1-1.501-2.802c-.078-.17-.161-.34-.235-.51-.075-.174-.153-.339-.228-.509a56.33 56.33 0 0 1-.421-1.037 27.916 27.916 0 0 1-.649-1.861 3.929 3.929 0 0 1-.116-.369c-.054-.174-.108-.344-.153-.518-.062-.22-.12-.439-.178-.659a10.446 10.446 0 0 1-.112-.456c-.041-.166-.082-.327-.119-.493-.046-.224-.096-.444-.141-.672l-.05-.265a9.272 9.272 0 0 1-.086-.489 4.894 4.894 0 0 1-.062-.369c-.034-.203-.067-.41-.096-.618-.02-.141-.037-.281-.053-.427a25.821 25.821 0 0 1-.19-2.134c-.575-11.068 5.684-21.48 10.954-28.241a56.711 56.711 0 0 0-2.674-3.797m14.005 88.254a52.041 52.041 0 0 0 .058 14.752c1.807 2.512 8.913 11.25 21.323 13.285l18.045.033h.041a3.928 3.928 0 0 0 2.162-.651l-7.491-.808a5.803 5.803 0 0 1-.839-.149h-.008m-33.291-26.462c1.724 6.051 6.478 15.055 19.599 22.74a12.086 12.086 0 0 0 4.436 1.542l.558.078h.008M302.85 165.38a58.253 58.253 0 0 0-2.985-3.56m2.985 3.56a57.067 57.067 0 0 0-2.985-3.56m0 0a55.927 55.927 0 0 0-3.274-3.296m0 0a54.4 54.4 0 0 0-3.53-3.009 57.8 57.8 0 0 0-3.775-2.707m7.305 5.716a53.422 53.422 0 0 0-3.534-3.009 56.658 56.658 0 0 0-3.771-2.707m0 0a56.91 56.91 0 0 0-3.985-2.379 56.472 56.472 0 0 0-4.167-2.035 53.88 53.88 0 0 0-4.324-1.679 55 55 0 0 0-4.452-1.314 56.454 56.454 0 0 0-4.543-.937 57.274 57.274 0 0 0-4.601-.551m0 0a57.89 57.89 0 0 0-4.638-.162m4.638.162a56.084 56.084 0 0 0-4.638-.162m0 0a55.528 55.528 0 0 0-4.63.224m4.63-.224a53.862 53.862 0 0 0-4.63.224m0 0a55.321 55.321 0 0 0-4.597.613m4.597-.613a55.548 55.548 0 0 0-4.597.613m0 0c-1.526.27-3.035.601-4.531.995m0 0a57.16 57.16 0 0 0-4.432 1.372m4.432-1.372c-1.497.394-2.972.85-4.432 1.372m101.07 131.039c2.088 1.091 4.936 1.986 8.69 2.102m-8.69-2.102 2.923.423c-13.489-8.319-18.776-17.948-20.856-23.921a2.373 2.373 0 0 1-.119-.568 2.292 2.292 0 0 1 .012-.585c.029-.194.079-.381.153-.563a2.422 2.422 0 0 1 .674-.945 2.362 2.362 0 0 1 1.029-.531c.186-.046.38-.066.575-.066l33.753-.017c.298 9.157 3.977 18.334 9.793 24.543-.008.009-.008.009-.016.009a52.98 52.98 0 0 0-2.472.936 14.157 14.157 0 0 1-4.907 1.074l-15.155.634 1.062.709a6.552 6.552 0 0 0 2.241.97m74.733-81.576-4.928-1.645a10.271 10.271 0 0 0-.397-.257c-.132-.087-.264-.17-.397-.249a9.763 9.763 0 0 0-.405-.232c-.136-.075-.268-.149-.405-.22-.103-.054-.207-.103-.31-.157a16.843 16.843 0 0 0-.62-.299c-.124-.054-.244-.108-.368-.161-.091-.042-.182-.075-.273-.112a3.487 3.487 0 0 0-.273-.112 18.98 18.98 0 0 0-1.087-.402c-.182-.062-.359-.125-.537-.179a28.26 28.26 0 0 0-.703-.223 1.377 1.377 0 0 0-.847.008 1.389 1.389 0 0 0-.959 1.31c-.005.298.078.572.243.816a100.844 100.844 0 0 1 4.593 7.267c6.185 10.694 7.673 20.874 7.673 29.442l-1.621-4.066-.02-.05v-.008a10.97 10.97 0 0 0-.054-.39c-.013-.099-.025-.203-.046-.302a45.77 45.77 0 0 0-.115-.742 89.49 89.49 0 0 0-.145-.792 16.58 16.58 0 0 0-.153-.775c-.046-.228-.095-.46-.149-.688a28.86 28.86 0 0 0-.186-.8 15.166 15.166 0 0 0-.174-.676 4.802 4.802 0 0 0-.086-.344c-.046-.17-.095-.34-.145-.514-.033-.124-.07-.253-.107-.373-.029-.108-.062-.211-.096-.319-.099-.332-.202-.659-.305-.987 0-.016-.009-.029-.013-.041a38.098 38.098 0 0 0-.343-1.02c-.004-.016-.008-.033-.017-.049a31.725 31.725 0 0 0-.372-1.024c-.128-.349-.26-.693-.396-1.032a56.38 56.38 0 0 0-1.282-2.973c-.157-.327-.31-.65-.467-.969a24.439 24.439 0 0 0-.513-1.024c-.144-.29-.297-.585-.45-.871a54.962 54.962 0 0 0-.314-.58c-.17-.319-.344-.634-.521-.941a49.524 49.524 0 0 0-.707-1.223c-.166-.278-.331-.555-.496-.825-.174-.29-.348-.568-.525-.849-.174-.274-.348-.552-.525-.821a76.284 76.284 0 0 0-1.687-2.487 15.644 15.644 0 0 0-.293-.419 17.538 17.538 0 0 0-.294-.406c-.293-.406-.583-.8-.872-1.181-.17-.233-.339-.452-.505-.668a83.066 83.066 0 0 0-.992-1.26c-.161-.203-.326-.402-.483-.593a4.087 4.087 0 0 0-.691-.675 4.122 4.122 0 0 0-.822-.506 3.992 3.992 0 0 0-.918-.311 4.416 4.416 0 0 0-.959-.104 4.422 4.422 0 0 0-1.869.44 4.313 4.313 0 0 0-.814.518 4.086 4.086 0 0 0-.682.684c-23.832 29.84-54.34 36.527-76.87 30.396a2.435 2.435 0 0 0-1.422.017 2.451 2.451 0 0 0-1.183.795 15.049 15.049 0 0 0-3.005 5.961l98.929 3.2a2.859 2.859 0 0 1 2.029.9c.033.033.067.07.1.107.037.046.074.092.107.137.074.095.141.191.199.294.008.009.012.017.016.025.083.137.153.278.207.431a.75.75 0 0 1 .058.158c.02.054.037.108.049.162.017.053.029.111.037.169.013.054.025.112.029.17l-102.173-3.179c-.017.261-.029.527-.029.796v.017c-.004.041-.004.087-.004.128 0 .195 0 .39.008.589.033 1.102 1.364 2.449 2.464 2.47l102.727 3.246c3.237.05 4.907.559 4.878 1.699a.57.57 0 0 1-.103.311c.004.008.004.008 0 .017.07.791.103 1.6.103 2.404a29.093 29.093 0 0 1-1 7.523 29.062 29.062 0 0 1-2.902 7.005 32.73 32.73 0 0 0 1.343-1.421c.104-.108.199-.22.294-.332.066-.07.124-.141.182-.211.012-.009.021-.017.025-.029.165-.187.326-.378.483-.572.046-.05.087-.096.124-.15.062-.066.116-.136.17-.207a.045.045 0 0 0 .021-.025c.148-.182.297-.369.434-.551.09-.104.165-.211.248-.315a49.315 49.315 0 0 0 1.901-2.674c.083-.128.166-.252.244-.381l.012-.017c.009-.016.021-.033.029-.049a.048.048 0 0 0 .013-.017c0-.004.004-.008.004-.012.008-.009.017-.017.021-.025l.024-.037.013-.017a.06.06 0 0 0 .008-.025c.008-.004.012-.016.021-.025l.008-.021c.033-.041.062-.087.087-.128l.099-.158.025-.041.021-.033c.31-.498.595-.983.859-1.434.1-.179.199-.349.29-.514.07-.129.136-.253.202-.369.066-.125.133-.245.195-.361.041-.074.082-.153.12-.228.045-.074.082-.149.119-.224a3.48 3.48 0 0 1 .108-.211c.112-.211.215-.415.302-.597l.173-.356a26.616 26.616 0 0 0 .562-1.244c.017-.046.034-.079.042-.099l-2.456 10.673-.008.079c-.004.037-.004.083-.012.141 0 .033 0 .07-.005.112 0 .041-.008.091-.012.145 0 .021 0 .037-.004.054a7.12 7.12 0 0 0-.025.224c-.004.049-.012.095-.02.145 0 .049-.009.103-.017.153a13.69 13.69 0 0 1-.116.721c-.02.096-.037.195-.062.299a.583.583 0 0 1-.025.12 7.99 7.99 0 0 1-.091.394c-.028.124-.062.253-.095.381-.004.017-.008.025-.012.037a15.757 15.757 0 0 1-1.079 2.865 2.952 2.952 0 0 1-.12.228 1.127 1.127 0 0 1-.095.182 3.627 3.627 0 0 1-.203.377 6.12 6.12 0 0 1-.227.394c-.041.066-.078.133-.124.199a3.488 3.488 0 0 1-.211.323c-.074.12-.157.241-.24.361-.074.099-.148.203-.227.307a1.99 1.99 0 0 1-.12.157.758.758 0 0 1-.058.075 5.856 5.856 0 0 1-.252.323c-.066.079-.132.162-.202.24-.162.191-.335.386-.517.573-.075.082-.157.174-.244.256-.083.088-.17.17-.26.257-.166.158-.331.311-.509.465a3.648 3.648 0 0 1-.273.232 7.621 7.621 0 0 1-.277.228 8.872 8.872 0 0 1-.38.298c-.194.141-.393.286-.599.427l.02.009c.013 0 .025.004.037.008a.226.226 0 0 0 .054.016c.004.005.008.005.013.009a3.23 3.23 0 0 0 2.509-.224c.021-.004.033-.017.054-.025l.45-.249.294-.17c.082-.045.161-.095.244-.145.111-.066.219-.132.334-.203.12-.074.244-.149.368-.228.137-.087.273-.178.414-.269l.421-.278c.137-.095.273-.187.414-.282.14-.095.277-.191.413-.29a38.259 38.259 0 0 0 1.881-1.413c.137-.108.277-.22.414-.332l.409-.336c.14-.12.281-.236.426-.356.285-.241.57-.485.839-.73.14-.124.281-.249.417-.373.273-.244.534-.489.786-.729a23.807 23.807 0 0 0 3.237-3.644l-1.894 4.526-.905 2.172c-.864 1.31-1.65 2.463-2.373 3.47a3.124 3.124 0 0 0-.335.58 3.114 3.114 0 0 0-.207.634c-.045.22-.07.44-.07.664 0 .228.025.447.07.667.05.22.116.431.207.634.095.207.207.398.335.581.132.178.281.344.451.493.165.149.347.282.541.394.5.286.996.58 1.48.887.331.207.686.369 1.058.485a4.616 4.616 0 0 0 3.415-.266 4.58 4.58 0 0 0 .971-.642c.298-.253.559-.543.782-.866a4.66 4.66 0 0 0 .545-1.033c.137-.369.224-.75.265-1.14a192.684 192.684 0 0 0 1.079-20.369 190.76 190.76 0 0 0-4.725-42.367m-15.812-16.112s11.5 8.742 15.812 16.112m-15.812-16.112c-2.923-1.981-8.024-5.753-12.46-7.846a3.27 3.27 0 0 1-.975-.701 3.231 3.231 0 0 1-.654-1.007 3.28 3.28 0 0 1-.239-1.177 3.198 3.198 0 0 1 .198-1.186c2.803-7.436 6.131-20.228.723-29.865l-.558-.22a64.148 64.148 0 0 1-10.909 12.829 54.655 54.655 0 0 0 4.684-17.716 4.106 4.106 0 0 1 .938-2.309c.269-.327.583-.605.943-.837.355-.228.74-.398 1.149-.51a3.998 3.998 0 0 1 1.252-.137c.426.017.835.1 1.236.249.397.145.765.348 1.1.609.335.261.624.568.864.916a186.849 186.849 0 0 1 17.367 31.142 187.105 187.105 0 0 1 11.153 33.878M513 257c0 141.385-114.615 256-256 256S1 398.385 1 257 115.615 1 257 1s256 114.615 256 256Zm-81.49 71.585a188.546 188.546 0 0 1-17.607 33.261 188.33 188.33 0 0 1-23.828 29.107c-36.018 36.124-84.021 55.859-135.017 55.482a188.261 188.261 0 0 1-14.171-.655 189.173 189.173 0 0 1-14.085-1.712 189.17 189.17 0 0 1-13.918-2.769 188.553 188.553 0 0 1-13.671-3.801 191.516 191.516 0 0 1-13.349-4.821 189.673 189.673 0 0 1-37.37-20.261 189.217 189.217 0 0 1-11.331-8.56 191.353 191.353 0 0 1-10.662-9.384 190.032 190.032 0 0 1-19.069-21.041 187.78 187.78 0 0 1-8.306-11.536 188.66 188.66 0 0 1-7.42-12.124 190.657 190.657 0 0 1-6.494-12.647 190.38 190.38 0 0 1-5.527-13.102 7.445 7.445 0 0 1-.356-1.298 7.731 7.731 0 0 1 .877-5.219c.219-.393.475-.762.76-1.11.285-.349.6-.668.943-.962A7.669 7.669 0 0 1 83 314.65a35.422 35.422 0 0 1 9.612-4.013c.215-.054.43-.091.648-.116.215-.029.435-.037.654-.037a4.958 4.958 0 0 1 1.302.174 5.156 5.156 0 0 1 1.215.493 6 6 0 0 1 .554.357 6.2 6.2 0 0 1 .505.422c.157.154.305.315.446.485a5.396 5.396 0 0 1 .934 1.729c.066.211.12.423.161.638.038.216.067.435.079.655.012.22.008.439-.004.659-.017.22-.046.435-.087.655-15.911 82.338 123.224 127.209 154.183 41.559 22.736 69.041 152.417 72.974 163.053-41.592 5.937 2.346 11.377 6.093 15.197 11.942l.058-.075Zm-298.849-50.168a1.37 1.37 0 0 1-.55-.112 1.307 1.307 0 0 1-.467-.311 1.412 1.412 0 0 1-.422-1.019c0-.191.037-.373.108-.552a1.436 1.436 0 0 1 2.765.552c0 .19-.037.377-.107.551a1.444 1.444 0 0 1-.314.468c-.133.137-.29.241-.463.311-.178.075-.36.112-.55.112Zm37.37 20.593c-.244 0-.479-.05-.707-.141a1.885 1.885 0 0 1-.599-.402 1.88 1.88 0 0 1-.401-.601 1.867 1.867 0 0 1 .401-2.023 1.873 1.873 0 0 1 1.306-.539 1.866 1.866 0 0 1 1.311.539 1.87 1.87 0 0 1 .541 1.314 1.902 1.902 0 0 1-.144.709 1.774 1.774 0 0 1-.401.597 1.775 1.775 0 0 1-.6.402 1.788 1.788 0 0 1-.707.145Zm30.6-29.654a3.246 3.246 0 0 1 2.323.966c.31.307.546.663.711 1.069.169.402.252.821.252 1.26 0 .436-.083.854-.252 1.26a3.282 3.282 0 0 1-4.291 1.783 3.369 3.369 0 0 1-1.067-.713 3.31 3.31 0 0 1-.959-2.33 3.262 3.262 0 0 1 .959-2.329 3.266 3.266 0 0 1 2.324-.966Zm.409 45.302a4.476 4.476 0 0 1-1.728-.344 5.011 5.011 0 0 1-.781-.419 4.453 4.453 0 0 1-1.245-1.252 4.426 4.426 0 0 1-.417-.783 4.393 4.393 0 0 1-.348-1.733 4.496 4.496 0 0 1 .765-2.516 4.537 4.537 0 0 1 1.245-1.252c.248-.165.508-.302.781-.418a4.537 4.537 0 0 1 2.608-.257 4.541 4.541 0 0 1 1.629.675c.248.166.476.353.686.564.211.211.397.439.563.684.165.249.301.51.417.783a4.557 4.557 0 0 1 0 3.47 5.106 5.106 0 0 1-.417.783 4.922 4.922 0 0 1-.563.684c-.21.212-.438.398-.686.564a4.419 4.419 0 0 1-.781.419 4.466 4.466 0 0 1-1.728.348Zm11.914-34.595c.434 0 .856.083 1.256.248.406.17.761.407 1.067.718a3.28 3.28 0 0 1 .963 2.329c0 .44-.082.858-.248 1.26a3.237 3.237 0 0 1-.715 1.07 3.22 3.22 0 0 1-1.067.717c-.4.166-.818.249-1.256.249a3.266 3.266 0 0 1-2.323-.966 3.24 3.24 0 0 1-.716-1.07 3.298 3.298 0 0 1-.248-1.26 3.284 3.284 0 0 1 .964-2.329 3.219 3.219 0 0 1 1.066-.718 3.269 3.269 0 0 1 1.257-.248Zm27.16-80.991a1.11 1.11 0 0 1-.236.489c-11.943 13.836-22.187 13.227-25.663 12.493a1.008 1.008 0 0 1-.422-.199 1.021 1.021 0 0 1-.393-.821c0-.161.037-.31.112-.456l1.901-3.817c.389-.808 11.464 3.465 22.94-8.61a1.039 1.039 0 0 1 1.128-.244c.194.079.356.203.475.377.12.174.182.365.187.576a.774.774 0 0 1-.029.212Zm50.871-17.845v1.646c-1.967 2.366-18.069 27.179 13.969 43.656h-4.932c-40.248-14.827-9.702-44.531-9.037-45.302Zm11.914 168.026c-.492 0-.963-.096-1.413-.282a3.64 3.64 0 0 1-1.199-.804 3.668 3.668 0 0 1-.802-1.202 3.654 3.654 0 0 1-.281-1.422c0-.489.091-.962.281-1.418.186-.451.455-.854.802-1.202a3.64 3.64 0 0 1 1.199-.804 3.686 3.686 0 0 1 4.026.804c.347.348.616.751.802 1.202a3.724 3.724 0 0 1 0 2.836c-.19.456-.455.858-.802 1.202a3.66 3.66 0 0 1-1.199.804 3.69 3.69 0 0 1-1.414.286Zm6.983-45.302a4.038 4.038 0 0 1-1.575-.315 4.07 4.07 0 0 1-2.22-2.23 4.041 4.041 0 0 1-.315-1.575c0-.547.104-1.074.315-1.575.206-.506.504-.954.888-1.339a4.054 4.054 0 0 1 1.332-.891 4.02 4.02 0 0 1 1.575-.315c.545 0 1.066.103 1.57.315.505.207.947.505 1.332.891.388.385.682.833.893 1.339a4.114 4.114 0 0 1-.893 4.489 4.09 4.09 0 0 1-1.332.891 4.09 4.09 0 0 1-1.57.315Zm10.752 76.187c-.19 0-.376-.037-.554-.108a1.509 1.509 0 0 1-.467-.311 1.528 1.528 0 0 1-.31-.468 1.41 1.41 0 0 1 0-1.107c.07-.174.173-.331.31-.468.132-.133.289-.236.467-.311.174-.075.36-.112.55-.112a1.432 1.432 0 0 1 1.017.423c.136.132.239.29.314.468a1.477 1.477 0 0 1 0 1.103 1.51 1.51 0 0 1-.31.468 1.4 1.4 0 0 1-.467.311c-.178.075-.36.112-.55.112Zm1.567-92.664c-4.163-4.174-13.072-3.299-13.142-3.291l2.464-1.65c.38-.037 8.412-.626 13.964 4.941h-3.286Zm30.392 35.416c-.322 0-.645-.029-.959-.091a5.186 5.186 0 0 1-.926-.282 5.042 5.042 0 0 1-.851-.456 5.064 5.064 0 0 1-1.361-1.364 5.133 5.133 0 0 1-.454-.854 4.888 4.888 0 0 1-.281-.928 5.038 5.038 0 0 1-.095-.966c0-.323.033-.642.095-.962.062-.319.157-.626.281-.928.124-.299.277-.585.454-.854.182-.269.385-.518.612-.746.232-.232.48-.435.749-.618.268-.178.553-.331.851-.456.298-.124.608-.215.926-.282.314-.062.637-.091.959-.095.327.004.645.033.963.095a5.008 5.008 0 0 1 1.774.738c.273.183.521.386.748.618a4.87 4.87 0 0 1 1.067 1.6c.124.302.219.609.281.928.066.32.095.639.095.962 0 .327-.029.647-.095.966a4.888 4.888 0 0 1-.281.928 4.792 4.792 0 0 1-.455.854c-.178.27-.385.518-.612.746a4.578 4.578 0 0 1-.748.614c-.269.182-.55.336-.852.46a5.035 5.035 0 0 1-1.885.377v-.004ZM93.31 269.974a68.73 68.73 0 0 1-11.786.207h-.822a20.738 20.738 0 0 0 7.433 3.83 50.76 50.76 0 0 0-11.17 7.619 4.804 4.804 0 0 1-2.377 1.214 4.831 4.831 0 0 1-2.654-.211 4.797 4.797 0 0 1-2.154-1.58 4.802 4.802 0 0 1-1.013-2.47 193.404 193.404 0 0 1-1.207-21.584c0-1.471.016-2.947.058-4.422 4.762 5.94 10.492 10.711 17.193 14.308l3.282.825c-10.33-5.658-16.122-15.855-18.243-23.598a.9.9 0 0 1 .075-.655.892.892 0 0 1 .487-.439.899.899 0 0 1 .658 0c.219.083.38.228.492.435 3.815 7.221 10.587 15.491 22.538 23.064.339.211.583.501.736.87.153.369.186.75.095 1.14-.087.39-.281.717-.58.982a1.817 1.817 0 0 1-1.04.465Zm91.285-33.02L75.009 224.962a2.534 2.534 0 0 1-1-.336 2.46 2.46 0 0 1-.773-.717 2.473 2.473 0 0 1-.418-.97 2.601 2.601 0 0 1 .021-1.057l.008-.033 97.358 10.889a4.13 4.13 0 0 0-1.025-3.204 4.14 4.14 0 0 0-1.178-.912 4.042 4.042 0 0 0-1.427-.431l-89.52-10.015a2.259 2.259 0 0 1-.529-.124 2.332 2.332 0 0 1-.487-.24 2.403 2.403 0 0 1-.745-.784 2.354 2.354 0 0 1-.293-1.575 2.25 2.25 0 0 1 .149-.522l.008-.025 72.277 8.647a4.001 4.001 0 0 0 1.596-.125 4.048 4.048 0 0 0 1.43-.725c.43-.34.778-.746 1.042-1.223.269-.477.434-.982.5-1.525l-72.665-8.701a1.652 1.652 0 0 1-.393-.095 1.734 1.734 0 0 1-.657-.46 1.753 1.753 0 0 1-.232-.336 1.648 1.648 0 0 1-.186-.779c0-.137.017-.274.05-.402a1.76 1.76 0 0 1 .144-.382l.017-.016c8.888-16.622 20.913-25.795 26.213-29.24a4.381 4.381 0 0 1 2.344-.709c.417 0 .827.054 1.223.17a4.31 4.31 0 0 1 1.129.506c13.563 8.609 26.87 21.542 35.519 30.715.963 1.02 6.936 3.014 7.78 3.221 9.735 2.363 18.148 3.411 25.423 3.403l5.932 15.615c.195.526.608 2.636.951 4.489Zm-84.294-58.898c-6.334 3.121-18.599 11.175-26.015 29.148-.157.369-.302.734-.442 1.095a186.42 186.42 0 0 1 12.616-34.09 4.977 4.977 0 0 1 2.427-2.362 4.92 4.92 0 0 1 3.373-.249 50.759 50.759 0 0 1 8.016 3.055c.326.157.587.385.781.692.194.307.294.638.294.999.004.365-.091.701-.282 1.007a1.86 1.86 0 0 1-.768.705Zm32.922 88.622c-8.962-.829-26.234 1.032-26.234 1.032-21.81-7.651-30.33-21.094-33.212-27.594a2.288 2.288 0 0 1-.173-.596 2.266 2.266 0 0 1-.017-.626 2.3 2.3 0 0 1 .145-.606 2.54 2.54 0 0 1 .293-.551 2.42 2.42 0 0 1 2.174-.982l48.628 4.497a31.03 31.03 0 0 0-.178 3.395 32.578 32.578 0 0 0 2.212 11.83 32.714 32.714 0 0 0 2.704 5.397 32.253 32.253 0 0 0 3.658 4.804Zm44.356 2.884a30.226 30.226 0 0 1-9.165 4.406 32.224 32.224 0 0 0 5.395-4.195 32.59 32.59 0 0 0 7.615-11.275 32.48 32.48 0 0 0 1.881-6.578c1.157 6.404.297 13.803-5.726 17.642Z"/></svg>