<svg xmlns="http://www.w3.org/2000/svg" fill="none" viewBox="0 0 514 514"><path fill="#000" d="M257 513c141.385 0 256-114.615 256-256S398.385 1 257 1 1 115.615 1 257s114.615 256 256 256"/><path fill="#F0BC81" d="M219.828 187.246c2.816-10.048 2.783-20.838 2.026-29.215a55.2 55.2 0 0 1 15.312-9.816c.182 1.319.331 2.707.43 4.183 2.282 33.185-14.427 44.535-17.768 34.848M431.51 328.585a188.6 188.6 0 0 1-17.607 33.261 188.3 188.3 0 0 1-23.828 29.107c-36.018 36.124-84.021 55.859-135.017 55.482a188 188 0 0 1-14.171-.655 189 189 0 0 1-14.085-1.712 189 189 0 0 1-13.918-2.769 189 189 0 0 1-13.671-3.801 192 192 0 0 1-13.349-4.821 189.7 189.7 0 0 1-37.37-20.261 189 189 0 0 1-11.331-8.56 191 191 0 0 1-10.662-9.384 190 190 0 0 1-19.069-21.041 188 188 0 0 1-8.306-11.536 189 189 0 0 1-7.42-12.124 191 191 0 0 1-6.494-12.647 190 190 0 0 1-5.527-13.102 7.5 7.5 0 0 1-.356-1.298 7.73 7.73 0 0 1 .877-5.219q.33-.589.76-1.11.428-.522.943-.962A7.7 7.7 0 0 1 83 314.65a35.4 35.4 0 0 1 9.612-4.013q.322-.08.648-.116c.215-.029.435-.037.654-.037a5 5 0 0 1 1.302.174 5.2 5.2 0 0 1 1.215.493q.286.163.554.357a6 6 0 0 1 .505.422q.235.23.446.485a5.4 5.4 0 0 1 .934 1.729q.1.316.161.638.059.325.079.655.016.33-.004.659c-.017.22-.046.435-.087.655-15.911 82.338 123.224 127.209 154.183 41.559 22.736 69.041 152.417 72.974 163.053-41.592 5.937 2.346 11.377 6.093 15.197 11.942z"/><path fill="#F0BC81" d="M437.136 289.675c-24.109-17.446-80.632-15.971-90.293 7.685l.814-4.058.009-.049v-.009q.01-.024.02-.041c.12-.303.252-.597.393-.896q.062-.141.136-.29.082-.17.17-.34.091-.185.194-.364.214-.41.451-.813.107-.181.215-.356c.231-.382.475-.751.731-1.115a6 6 0 0 1 .195-.282q.198-.268.397-.543.27-.348.549-.697a.7.7 0 0 0 .108-.787q-.192-.43-.657-.444l-12.865-.522q-.104-.014-.207-.033-.093-.014-.186-.033c-.128-.021-.256-.042-.38-.071-.137-.025-.273-.049-.409-.083a4 4 0 0 1-.406-.083 12 12 0 0 1-.69-.165c-.244-.063-.488-.125-.728-.195a22 22 0 0 1-.715-.212 33 33 0 0 1-1.141-.389 6 6 0 0 1-.43-.166 19 19 0 0 1-1.488-.626 8 8 0 0 1-.483-.224 13 13 0 0 1-.397-.195 10 10 0 0 1-.389-.203q-.1-.048-.194-.103a3 3 0 0 1-.19-.104 8 8 0 0 1-.385-.207q-.144-.081-.281-.162a23 23 0 0 1-1.029-.63c-.095-.062-.19-.12-.29-.186l-.297-.195a27 27 0 0 1-1.501-1.086 25 25 0 0 1-.484-.378q-.084-.067-.169-.14a21 21 0 0 1-.686-.568c-.079-.067-.161-.141-.24-.212a26 26 0 0 1-.856-.779 4 4 0 0 1-.19-.178c-.112-.108-.231-.22-.339-.332a27 27 0 0 1-.963-.986 14 14 0 0 1-.467-.506c-.108-.116-.207-.228-.306-.34a34 34 0 0 1-1.67-2.031 25 25 0 0 1-.509-.684 25 25 0 0 1-.645-.904c-.095-.128-.182-.261-.268-.389a29 29 0 0 1-.744-1.144 42 42 0 0 1-.678-1.107 48 48 0 0 1-.608-1.074c-.124-.228-.244-.443-.356-.655a40 40 0 0 1-.69-1.38q-.057-.117-.107-.228c-.075-.153-.137-.294-.195-.419-.029-.049-.049-.103-.07-.149-.145-.327-.227-.53-.256-.584l2.393 2.408.066.066.009.013a.2.2 0 0 0 .02.037c.062.091.207.311.43.622a52 52 0 0 1-.054-14.748v-.013a23.8 23.8 0 0 1-.988-6.872l.067.012a24.95 24.95 0 0 1 .632-11.208 10.9 10.9 0 0 0 .447-4c-.013-.195-.038-.394-.058-.589-.025-.199-.058-.394-.091-.593-.025-.103-.046-.215-.071-.323a6 6 0 0 0-.107-.448c-.037-.132-.079-.269-.116-.402a8 8 0 0 0-.12-.356 9 9 0 0 0-.458-1.103 4 4 0 0 0-.182-.356 9 9 0 0 0-.406-.697l-.124-.194h-.004q-.045-.076-.095-.146l-.194-.099a38 38 0 0 1-1.459-.808 25 25 0 0 1-1.005-.589c-.025-.017-.049-.029-.074-.046a40 40 0 0 1-.992-.621 33 33 0 0 1-1.042-.693l-.347-.236a49 49 0 0 1-.74-.526 8 8 0 0 1-.377-.282 14 14 0 0 1-.541-.406c-.203-.158-.405-.311-.604-.473a40 40 0 0 1-1.785-1.509c-.091-.078-.178-.161-.265-.24a24 24 0 0 1-.967-.908c-.12-.112-.24-.232-.356-.348q-.161-.161-.322-.328-.48-.483-.935-.986a30 30 0 0 1-.673-.759l-.282-.331q-.217-.257-.429-.514a39 39 0 0 1-1.22-1.592c-.132-.178-.256-.361-.38-.539a31 31 0 0 1-1.154-1.778q-.042-.064-.078-.129a32 32 0 0 1-1.501-2.802c-.078-.17-.161-.34-.235-.51-.075-.174-.153-.339-.228-.509a56 56 0 0 1-.421-1.037 28 28 0 0 1-.649-1.861 4 4 0 0 1-.116-.369c-.054-.174-.108-.344-.153-.518q-.092-.33-.178-.659a11 11 0 0 1-.112-.456c-.041-.166-.082-.327-.119-.493-.046-.224-.096-.444-.141-.672l-.05-.265a9 9 0 0 1-.086-.489 5 5 0 0 1-.062-.369q-.052-.305-.096-.618-.03-.21-.053-.427a26 26 0 0 1-.19-2.134c-.575-11.068 5.684-21.48 10.954-28.241a57 57 0 0 0-2.674-3.797 58 58 0 0 0-2.985-3.56 56 56 0 0 0-10.579-9.012 57 57 0 0 0-3.985-2.379 57 57 0 0 0-4.167-2.035 54 54 0 0 0-4.324-1.679 55 55 0 0 0-4.452-1.314 57 57 0 0 0-4.543-.937 57 57 0 0 0-4.601-.551 55.5 55.5 0 0 0-9.268.062 55.3 55.3 0 0 0-13.56 2.98c.215 1.443.377 2.981.492 4.622 1.737 25.24-8.21 36.237-8.21 36.237a3 3 0 0 0-.21.24l-.083.087q-.007.005-.008.017l-.1.112-.128.145a2 2 0 0 1-.132.145q-.005.012-.017.025c-.012.012-.024.029-.037.041l-.19.216c-.037.045-.074.091-.12.132-.074.091-.161.183-.252.282q-.05.062-.112.129c-.045.053-.099.107-.148.165l-.517.564q-.094.106-.194.211c-.104.117-.211.228-.327.349q-.024.031-.054.058-.124.136-.256.277-.266.276-.55.564-.252.262-.517.531a3 3 0 0 1-.177.182l-.195.195a71 71 0 0 1-3.096 2.914q-.148.132-.298.257-.078.075-.157.137a8 8 0 0 1-.525.452l-.516.431q-.614.512-1.253.999l-.285.219c-.178.133-.36.27-.538.398q-.261.187-.516.373c-.203.145-.406.282-.608.423-.116.079-.227.153-.347.228-.112.079-.228.153-.339.224q-.092.062-.178.112c-.07.05-.141.091-.211.132-.112.075-.227.15-.339.216q-.153.092-.302.178a.1.1 0 0 1-.049.025c-.195.12-.385.228-.579.332q-.291.166-.583.315a19 19 0 0 1-1.298.626l-.331.141-.326.132a7 7 0 0 1-.331.125q-1.048.394-2.137.613a8 8 0 0 1-.629.1q-.006.008-.012.004c-.008 0-.012.004-.021.004q-.142.02-.285.033l-.165.203q-.002.005-.004.004a10 10 0 0 1-.286.344q-.342.425-.715.838c-.268.306-.541.609-.827.907-.103.108-.202.216-.305.315a34 34 0 0 1-1.613 1.555c-.091.083-.186.17-.281.249q-.141.129-.289.252c-.099.087-.203.174-.302.257-.103.092-.207.174-.31.257q-.23.198-.467.378c-.013.008-.017.02-.029.02-.198.162-.401.315-.604.469q-.011.012-.016.012a16 16 0 0 1-.55.406.3.3 0 0 1-.054.042q-.308.221-.624.443c-.244.166-.488.332-.736.489q-.33.218-.674.423-.402.259-.818.494a4 4 0 0 1-.277.161c-.211.125-.422.241-.633.357-.157.083-.31.17-.467.244a3 3 0 0 1-.239.125.1.1 0 0 1-.046.024q-.112.062-.231.117a.1.1 0 0 1-.038.024q-.289.15-.578.286c-.021.013-.046.021-.071.034-.248.12-.508.24-.764.36q-.483.217-.984.427-.446.193-.91.373c-.301.116-.612.236-.926.344-.132.054-.273.1-.409.149-.141.05-.281.104-.418.15q-.165.057-.33.107a1 1 0 0 1-.133.046q-.013.01-.033.008a9 9 0 0 1-.566.183q-.49.156-.98.294-.286.087-.578.162a33 33 0 0 1-1.282.331c-.112.029-.227.062-.339.083-.116.029-.227.054-.343.079-.265.066-.537.124-.806.174-.298.066-.595.124-.893.187q-.271.055-.554.103a42 42 0 0 1-1.637.265 26 26 0 0 1-1.203.166l.116.813 3.03 21.592c.066 2.603 7.892 25.26-3.473 32.609-.616.444-4.944 3.416-11.682 4.9a1.93 1.93 0 0 0-1.005.551 1.95 1.95 0 0 0-.537 1.015q-.112.591.116 1.144c.153.369.397.668.727.888a57 57 0 0 1 1.852 1.289q.46.323.902.659c.525.394 1.041.791 1.541 1.202q.243.187.472.385a24 24 0 0 1 1.05.887c.165.145.335.286.496.436.273.24.546.489.81.737q.271.248.529.502a42 42 0 0 1 1.042 1.028l.418.431c.095.1.19.199.276.299q.325.339.625.679.078.077.144.166c.153.158.29.319.426.481q.126.136.228.265.216.247.413.493.087.095.161.195c.314.377.616.767.905 1.153.009.004.009.004.009.008q.014.012.029.037.011.006.016.025c.099.129.195.253.29.381l-.232.461-.591 1.189a27 27 0 0 0-.785-1.024 1 1 0 0 0-.071-.078 22 22 0 0 0-.281-.349c-.095-.111-.194-.232-.293-.344a5 5 0 0 0-.219-.257q-.012-.019-.029-.033a28 28 0 0 0-.426-.476c-.145-.158-.29-.32-.443-.477-.074-.079-.148-.162-.231-.241l-.103-.111q-.198-.206-.401-.407a33 33 0 0 0-.687-.671 37 37 0 0 0-2.414-2.127l-.504-.406a30 30 0 0 0-1.058-.816l-.381-.282-.421-.311c-.191-.137-.377-.27-.567-.398a18 18 0 0 0-.562-.386.1.1 0 0 0-.025-.02l-.574-.382q-.15-.104-.306-.203c-.29-.186-.583-.377-.881-.564q-.444-.275-.901-.551a69 69 0 0 0-1.864-1.078c-.211-.116-.426-.236-.637-.344-.029-.02-.058-.033-.091-.049-.174-.1-.36-.195-.537-.286a10 10 0 0 0-.397-.212q-.495-.255-.997-.51-.389-.193-.785-.381-.37-.181-.752-.356a13 13 0 0 0-.385-.183c-.128-.058-.26-.12-.388-.174-.261-.124-.525-.236-.79-.356-.128-.054-.256-.112-.384-.166a10 10 0 0 1-.385-.166l-.021-.008a68 68 0 0 0-3.385-1.368 57 57 0 0 0-1.158-.423 2 2 0 0 0-.219-.083 5 5 0 0 0-.24-.083 62 62 0 0 0-1.533-.53c-.298-.1-.591-.195-.889-.291a68 68 0 0 0-1.67-.526c-.244-.075-.496-.145-.744-.22-.207-.062-.414-.124-.616-.178-.054-.012-.108-.033-.161-.045q-.361-.105-.728-.204c-.318-.095-.641-.178-.963-.261a89 89 0 0 0-4.043-.986c-.161-.038-.323-.071-.488-.108q-.342-.076-.69-.145-.253-.057-.513-.108c-.074-.012-.149-.033-.231-.045-.24-.05-.476-.1-.716-.141a85 85 0 0 0-1.889-.353c-.372-.066-.752-.128-1.124-.19q-.824-.139-1.654-.257c-.322-.05-.649-.096-.971-.141-.372-.05-.74-.1-1.112-.145q-.547-.075-1.1-.137a43 43 0 0 0-1.451-.162c-.24-.029-.484-.054-.719-.074-.236-.025-.471-.05-.711-.067q-.297-.03-.587-.054l-.356-.029c-.285-.02-.558-.041-.843-.066a95 95 0 0 0-1.935-.124 78 78 0 0 0-1.058-.054c-.033 0-.062-.004-.095-.004q-.525-.024-1.05-.042-.057-.005-.108-.004c-.293-.012-.582-.017-.872-.025q-.106-.005-.219-.004a100 100 0 0 0-3.791-.021c-.475.004-.946.017-1.422.033a92 92 0 0 0-3.894.187q-.552.036-1.104.079-.861.069-1.724.157c-.231.021-.463.042-.69.071-.339.037-.682.07-1.025.112q-.855.1-1.703.219c-.199.029-.393.054-.587.083l-.591.087q-.286.049-.571.091-.29.042-.575.092-.421.066-.843.145a67 67 0 0 0-2.468.472c-.215.046-.434.091-.645.137-.256.058-.508.112-.76.17-.43.095-.86.199-1.286.303-.546.132-1.083.273-1.62.414l-.798.224a65 65 0 0 0-1.588.468c-.393.121-.79.245-1.178.373q-.478.156-.95.324-.396.13-.79.273-.149.049-.29.104a7 7 0 0 0-.289.108c-.38.141-.76.282-1.137.431-.293.116-.587.232-.872.348-.281.116-.566.232-.843.356a42 42 0 0 0-1.253.548c-.24.111-.484.223-.723.335-.24.116-.48.228-.72.344a84 84 0 0 0-1.413.717q-1.315.69-2.568 1.447c-.28.166-.562.332-.835.506a46 46 0 0 0-2.406 1.616q-.148.1-.285.199-.34.248-.674.502c-.227.17-.446.34-.665.514a7 7 0 0 0-.281.22c-.096.074-.186.153-.277.223-.104.079-.203.166-.302.245-.095.079-.19.153-.281.236-.112.087-.215.179-.323.274q-.093.076-.186.157c-.198.175-.4.349-.603.535q-.187.162-.368.336c-.182.162-.36.331-.542.506q-.11.1-.227.219c-.244.232-.475.469-.711.709-.03.021-.05.046-.07.066a39 39 0 0 0-.699.73 16.3 16.3 0 0 0-3.762 7.059 16 16 0 0 0-.488 4q.007 2.034.505 4c.136.564.28 1.123.421 1.683.087.332.17.667.26.999q.198.765.402 1.529.259.951.525 1.907a33 33 0 0 1 .206.721q-.001.006.005.005a150 150 0 0 0 .36 1.26 9 9 0 0 1 .942-.987c.173-.153.355-.315.558-.476.099-.079.202-.162.31-.241.132-.099.264-.199.405-.298.087-.071.174-.129.264-.187.24-.17.488-.336.753-.497.095-.062.186-.116.281-.174q.216-.13.442-.262.223-.132.463-.257.535-.297 1.125-.576a11 11 0 0 1 .397-.186q.236-.108.48-.216c.16-.066.322-.141.491-.207q.253-.106.517-.207c.194-.079.393-.149.595-.22q.162-.07.335-.12.063-.026.132-.046c.116-.045.232-.083.352-.124q.098-.032.202-.062c.244-.079.5-.158.76-.232q.157-.05.32-.092.142-.042.284-.078.388-.106.79-.199.269-.067.55-.129c.016-.004.029-.008.05-.008.235-.054.475-.1.723-.149q.39-.076.794-.145.651-.106 1.326-.187a34 34 0 0 1 1.514-.149q.258-.014.516-.033.433-.02.885-.034.54-.018 1.087-.012.1-.001.194.004c.253 0 .505.008.765.013a34 34 0 0 1 2.596.194q.286.032.58.071a35 35 0 0 1 1.653.257q.91.162 1.86.385c.227.05.455.108.686.166l.099.025c.19.05.377.095.567.153q.453.118.913.262c.257.074.521.157.782.24.169.058.343.112.516.17.162.058.323.112.484.17.273.091.542.191.818.298a70 70 0 0 1 .931.365c.235.091.467.191.702.29q.224.095.447.195.105.043.211.091c.07.029.144.062.211.096q.221.093.438.199c.144.066.289.132.434.207.153.074.314.145.471.228q.23.11.467.232c.174.083.352.178.533.274.178.087.356.182.534.277.289.158.57.311.86.477.289.157.574.327.864.497q.583.343 1.165.709.397.245.794.502.246.16.492.327c.165.104.331.22.496.332q.248.169.496.344.744.509 1.488 1.073.249.174.496.373.249.181.496.374c.17.128.335.257.505.393.165.129.335.261.5.398.165.133.335.27.5.406.335.274.67.552 1.005.846q.352.299.711.609l.053.224.042.162.727 2.91a50 50 0 0 0-1.881-1.575c-.004 0-.008-.005-.012-.005q-.02-.018-.045-.037c-.174-.137-.352-.273-.525-.406-.17-.133-.348-.265-.521-.398l-.004-.004c-.075-.062-.158-.12-.236-.178a47 47 0 0 0-1.273-.912c-.17-.12-.339-.232-.509-.348-.103-.071-.215-.141-.326-.212q-.3-.197-.6-.39l-.107-.066c-.327-.211-.658-.41-.984-.601-.178-.108-.364-.215-.542-.319a3 3 0 0 0-.19-.104 14 14 0 0 0-.512-.286l-.348-.186c-.252-.133-.5-.265-.756-.386l-.252-.124c-.166-.087-.331-.166-.496-.245a5 5 0 0 0-1.046-.369 4.96 4.96 0 0 0-3.262.353 5.2 5.2 0 0 0-.942.584 5.2 5.2 0 0 0-.794.78c-.236.29-.438.605-.604.936a5.2 5.2 0 0 0-.38 1.049c-5.73 24.634 3.179 45.563 19.061 60.141 49.186 45.157 128.272 5.6 123.212-61.082l-2.051-26.993a12.5 12.5 0 0 0-1.583-5.243 12.5 12.5 0 0 0-3.642-4.079l-.041-.033c-6.974-5.049-29.851-12.527-30.083-12.601l-1.41-.465-.012-1.488c0-.298.054-7.419 5.353-14.702 4.796-6.591 15.015-14.587 36.416-15.254 43.022-1.352 44.853 29.55 44.861 29.865l.1 2.185-2.187-.034c-.141-.012-.286-.012-.426-.012-11.761 0-24.394 9.061-29.322 12.995l-.033.021a9.8 9.8 0 0 0-2.559 3.054 9.85 9.85 0 0 0-1.157 3.818l-3.138 33.828c-5.188 55.947 52.563 97.029 102.93 72.428.364-.174.732-.361 1.092-.543q.44-.224.868-.452c.186-.1.38-.199.57-.303l.91-.497c.243-.133.479-.27.719-.402q.187-.111.368-.216a73 73 0 0 0 2.236-1.351l.736-.468c.347-.228.699-.456 1.042-.684q.485-.334.975-.668c.017-.016.038-.025.054-.041.273-.187.546-.382.81-.576.124-.083.24-.17.364-.257.29-.212.575-.423.864-.643q.502-.372 1.005-.763a73 73 0 0 0 1.98-1.595 78 78 0 0 0 3.84-3.445q.336-.325.67-.655c.223-.215.442-.439.666-.663.219-.224.438-.444.657-.672l.653-.688a73 73 0 0 0 1.773-1.96c.137-.158.282-.32.418-.481q.309-.356.612-.717c.206-.245.417-.498.62-.746.202-.249.409-.502.612-.755q.613-.766 1.207-1.55c.029-.037.058-.079.087-.116q.34-.453.673-.912a.05.05 0 0 0 .025-.033c.149-.203.302-.411.447-.618q.031-.036.058-.079c.082-.103.161-.215.235-.327a.4.4 0 0 0 .062-.091c.104-.145.207-.286.306-.436q.317-.446.62-.899.2-.288.393-.58c.128-.191.256-.39.384-.585a80 80 0 0 0 2.105-3.407c.086-.141.165-.282.252-.427q.209-.355.405-.709c.165-.294.331-.584.492-.879a58 58 0 0 0 .971-1.811q.148-.28.29-.56a87 87 0 0 0 1.484-3.021c.082-.174.169-.353.244-.527.024-.058.053-.108.074-.166.054-.116.112-.232.165-.356.315-.692.625-1.393.922-2.102q.303-.715.6-1.438.31-.759.607-1.53.019-.044.038-.095c.086-.236.177-.477.268-.713q.178-.454.343-.916c.095-.257.186-.514.281-.775.203-.564.406-1.14.596-1.72.008-.004.008-.004.004-.009.087-.24.165-.48.244-.721.049-.149.103-.302.149-.46.082-.236.157-.468.231-.705.07-.228.145-.456.215-.684.099-.315.199-.634.289-.953a39 39 0 0 0 .36-1.214c.182-.618.36-1.24.525-1.866q.167-.609.323-1.218c.045-.166.091-.332.128-.498.045-.19.095-.373.14-.563a89 89 0 0 0 .753-3.172q.073-.317.14-.642.273-1.244.521-2.52.076-.367.145-.734c.194-1.011.372-2.035.545-3.071.05-.274.091-.556.137-.838q.138-.86.269-1.732l.173-1.202.091-.68a176 176 0 0 0 .31-2.483c.037-.315.07-.639.108-.962.062-.559.12-1.127.182-1.695l.136-1.488v-.004c.025-.241.041-.477.066-.718q-.373-.06-.74-.116a1 1 0 0 0-.136-.024c-.215-.034-.422-.067-.633-.096a55 55 0 0 0-1.496-.199 45 45 0 0 0-1.05-.112 12 12 0 0 0-.666-.066 31 31 0 0 0-.843-.075c-.281-.02-.558-.045-.835-.062-.347-.025-.691-.05-1.034-.066a68 68 0 0 0-1.554-.071c-.434-.016-.864-.024-1.29-.033a75 75 0 0 0-3.034.009c-.215.004-.422.004-.633.012-.057 0-.111 0-.173.004-.335.013-.666.021-.988.037q-.23.01-.455.017l-.422.025c-.157.008-.31.012-.458.021-.195.012-.381.02-.567.033q-.457.03-.897.062c-.24.021-.475.037-.707.058q-.606.05-1.174.099c-.128.013-.256.029-.38.038q-1.03.105-1.943.215-.077.012-.153.017c-3.154.394-5.155.825-5.341.879l8.206-4.116c.347-.133 26.064-12.784 43.902-1.314.355.228.727.41 1.124.551q.59.206 1.216.273c.417.042.831.038 1.248-.02a5.3 5.3 0 0 0 2.315-.891 5.3 5.3 0 0 0 1.658-1.845q.301-.552.467-1.161a203 203 0 0 0 1.695-6.852 9.3 9.3 0 0 0 .211-2.698 9.3 9.3 0 0 0-1.869-5.011 9.4 9.4 0 0 0-1.926-1.895m-304.475-11.258a1.4 1.4 0 0 1-.55-.112 1.3 1.3 0 0 1-.467-.311 1.4 1.4 0 0 1-.422-1.019q0-.285.108-.552.11-.262.314-.468a1.436 1.436 0 0 1 2.451 1.02c0 .19-.037.377-.107.551a1.4 1.4 0 0 1-.314.468q-.202.206-.463.311-.266.112-.55.112m37.37 20.593c-.244 0-.479-.05-.707-.141a1.9 1.9 0 0 1-.599-.402 1.9 1.9 0 0 1-.401-.601 1.87 1.87 0 0 1 .401-2.023 1.87 1.87 0 0 1 1.306-.539q.371 0 .711.141c.224.091.426.228.6.398a1.87 1.87 0 0 1 .541 1.314 1.9 1.9 0 0 1-.144.709 1.8 1.8 0 0 1-.401.597 1.8 1.8 0 0 1-.6.402 1.8 1.8 0 0 1-.707.145m30.6-29.654a3.25 3.25 0 0 1 2.323.966q.464.46.711 1.069.253.602.252 1.26 0 .652-.252 1.26a3.28 3.28 0 0 1-4.291 1.783 3.4 3.4 0 0 1-1.067-.713 3.3 3.3 0 0 1-.959-2.33q0-.657.248-1.264.25-.604.711-1.065a3.27 3.27 0 0 1 2.324-.966m.409 45.302a4.5 4.5 0 0 1-1.728-.344 5 5 0 0 1-.781-.419 4.5 4.5 0 0 1-1.245-1.252 4.4 4.4 0 0 1-.417-.783 4.4 4.4 0 0 1-.348-1.733 4.5 4.5 0 0 1 .765-2.516 4.5 4.5 0 0 1 1.245-1.252q.372-.246.781-.418a4.54 4.54 0 0 1 2.608-.257 4.5 4.5 0 0 1 1.629.675q.371.248.686.564.315.317.563.684c.165.249.301.51.417.783q.17.416.256.85a4.56 4.56 0 0 1-.256 2.62 5 5 0 0 1-.417.783 5 5 0 0 1-.563.684q-.314.317-.686.564a4.4 4.4 0 0 1-.781.419 4.5 4.5 0 0 1-1.728.348m11.914-34.595c.434 0 .856.083 1.256.248q.608.253 1.067.718.463.46.715 1.069c.166.402.248.825.248 1.26q0 .659-.248 1.26a3.2 3.2 0 0 1-.715 1.07 3.2 3.2 0 0 1-1.067.717q-.6.249-1.256.249a3.27 3.27 0 0 1-2.323-.966 3.2 3.2 0 0 1-.716-1.07 3.3 3.3 0 0 1-.248-1.26 3.28 3.28 0 0 1 .964-2.329 3.2 3.2 0 0 1 1.066-.718 3.3 3.3 0 0 1 1.257-.248m27.16-80.991a1.1 1.1 0 0 1-.236.489c-11.943 13.836-22.187 13.227-25.663 12.493a1 1 0 0 1-.422-.199 1.02 1.02 0 0 1-.393-.821c0-.161.037-.31.112-.456l1.901-3.817c.389-.808 11.464 3.465 22.94-8.61a1.04 1.04 0 0 1 1.128-.244c.194.079.356.203.475.377q.18.26.187.576a.8.8 0 0 1-.029.212m50.871-17.845v1.646c-1.967 2.366-18.069 27.179 13.969 43.656h-4.932c-40.248-14.827-9.702-44.531-9.037-45.302m11.914 168.026q-.738-.001-1.413-.282a3.6 3.6 0 0 1-1.199-.804 3.7 3.7 0 0 1-.802-1.202 3.7 3.7 0 0 1-.281-1.422c0-.489.091-.962.281-1.418q.28-.678.802-1.202a3.6 3.6 0 0 1 1.199-.804q.675-.28 1.413-.282a3.7 3.7 0 0 1 2.613 1.086q.522.524.802 1.202a3.72 3.72 0 0 1 0 2.836q-.283.685-.802 1.202a3.7 3.7 0 0 1-1.199.804 3.7 3.7 0 0 1-1.414.286m6.983-45.302a4 4 0 0 1-1.575-.315 4.07 4.07 0 0 1-2.22-2.23 4 4 0 0 1-.315-1.575q0-.822.315-1.575.31-.76.888-1.339a4.1 4.1 0 0 1 1.332-.891 4 4 0 0 1 1.575-.315q.816-.002 1.57.315.756.311 1.332.891c.388.385.682.833.893 1.339a4.11 4.11 0 0 1-.893 4.489 4.1 4.1 0 0 1-1.332.891 4.1 4.1 0 0 1-1.57.315m10.752 76.187q-.286 0-.554-.108a1.5 1.5 0 0 1-.467-.311 1.5 1.5 0 0 1-.31-.468 1.4 1.4 0 0 1 0-1.107q.105-.262.31-.468.199-.199.467-.311.263-.112.55-.112.284 0 .55.108c.177.074.33.178.467.315q.203.2.314.468a1.48 1.48 0 0 1 0 1.103 1.5 1.5 0 0 1-.31.468 1.4 1.4 0 0 1-.467.311q-.266.112-.55.112m1.567-92.664c-4.163-4.174-13.072-3.299-13.142-3.291l2.464-1.65c.38-.037 8.412-.626 13.964 4.941zm30.392 35.416c-.322 0-.645-.029-.959-.091a5 5 0 0 1-.926-.282 5 5 0 0 1-.851-.456 5.1 5.1 0 0 1-1.361-1.364 5 5 0 0 1-.454-.854 5 5 0 0 1-.281-.928 5 5 0 0 1-.095-.966q.001-.483.095-.962.094-.477.281-.928.187-.45.454-.854.272-.404.612-.746c.232-.232.48-.435.749-.618q.403-.268.851-.456c.298-.124.608-.215.926-.282.314-.062.637-.091.959-.095.327.004.645.033.963.095a5 5 0 0 1 1.774.738c.273.183.521.386.748.618a4.9 4.9 0 0 1 1.067 1.6q.187.451.281.928.097.479.095.962c0 .327-.029.647-.095.966a5 5 0 0 1-.281.928 5 5 0 0 1-.455.854c-.178.27-.385.518-.612.746a4.6 4.6 0 0 1-.748.614c-.269.182-.55.336-.852.46a5 5 0 0 1-1.885.377z"/><path fill="#845533" d="M358.484 281.053a3.93 3.93 0 0 1-2.162.651h-.041l-18.045-.033c-12.41-2.035-19.516-10.773-21.323-13.285a52 52 0 0 1-.058-14.752c1.724 6.051 6.478 15.055 19.599 22.74a12.1 12.1 0 0 0 4.436 1.542l.558.078h.008c2.088 1.091 4.936 1.986 8.69 2.102h.008q.413.105.839.149zm86.932-24.054q0 10.217-1.079 20.369-.06.586-.265 1.14a4.7 4.7 0 0 1-.545 1.033 4.4 4.4 0 0 1-.782.866 4.6 4.6 0 0 1-2.075 1.02 4.62 4.62 0 0 1-3.369-.597c-.484-.307-.98-.601-1.48-.887a3.2 3.2 0 0 1-.541-.394 3 3 0 0 1-.451-.493 3.7 3.7 0 0 1-.335-.581 3.4 3.4 0 0 1-.207-.634 3.3 3.3 0 0 1-.07-.667q.001-.335.07-.664.07-.329.207-.634.137-.309.335-.58c.723-1.007 1.509-2.16 2.373-3.47l.905-2.172 1.894-4.526a23.8 23.8 0 0 1-3.237 3.644q-.377.362-.786.729-.206.187-.417.373c-.269.245-.554.489-.839.73-.145.12-.286.236-.426.356l-.409.336q-.207.169-.414.332a38 38 0 0 1-1.881 1.413q-.204.148-.413.29-.21.141-.414.282l-.421.278-.414.269q-.187.118-.368.228c-.115.071-.223.137-.334.203q-.123.076-.244.145l-.294.17-.45.249c-.021.008-.033.021-.054.025a3.23 3.23 0 0 1-2.509.224c-.005-.004-.009-.004-.013-.009a.2.2 0 0 1-.054-.016q-.018-.007-.037-.008l-.02-.009q.308-.214.599-.427.193-.142.38-.298.142-.111.277-.228c.091-.071.186-.149.273-.232.178-.154.343-.307.509-.465.09-.087.177-.169.26-.257.087-.082.17-.174.244-.256.182-.187.355-.382.517-.573.07-.078.136-.161.202-.24.087-.104.174-.215.252-.323a1 1 0 0 0 .058-.075 2 2 0 0 0 .12-.157l.227-.307c.083-.12.166-.241.24-.361q.118-.16.211-.323c.046-.066.083-.133.124-.199a6 6 0 0 0 .227-.394q.114-.185.203-.377.056-.088.095-.182c.046-.079.083-.15.12-.228.451-.921.814-1.874 1.079-2.865.004-.012.008-.02.012-.037q.051-.193.095-.381a8 8 0 0 0 .091-.394.6.6 0 0 0 .025-.12c.025-.104.042-.203.062-.299q.074-.397.116-.721c.008-.05.017-.104.017-.153q.013-.073.02-.145l.025-.224q.005-.024.004-.054c.004-.054.012-.104.012-.145q.006-.063.005-.112c.008-.058.008-.104.012-.141l.008-.079 2.456-10.673c-.008.02-.025.053-.042.099q-.018.048-.049.116c-.099.232-.269.622-.513 1.128l-.173.356c-.087.182-.19.386-.302.597a4 4 0 0 0-.108.211q-.053.113-.119.224l-.12.228-.195.361q-.098.175-.202.369l-.29.514c-.264.451-.549.936-.859 1.434l-.021.033-.025.041-.099.158a1 1 0 0 1-.087.128l-.008.021c-.009.009-.013.021-.021.025l-.008.025-.013.017-.024.037q-.007.012-.021.025l-.004.012-.013.017-.029.049-.012.017c-.078.129-.161.253-.244.381a49 49 0 0 1-1.901 2.674c-.083.104-.158.211-.248.315-.137.182-.286.369-.434.551a.05.05 0 0 1-.021.025 3 3 0 0 1-.17.207c-.037.054-.078.1-.124.15a18 18 0 0 1-.483.572q-.007.017-.025.029c-.058.07-.116.141-.182.211-.095.112-.19.224-.294.332a33 33 0 0 1-1.343 1.421 29 29 0 0 0 2.902-7.005c.661-2.466.996-4.97 1-7.523 0-.804-.033-1.613-.103-2.404.004-.009.004-.009 0-.017a.57.57 0 0 0 .103-.311c.029-1.14-1.641-1.649-4.878-1.699l-102.727-3.246c-1.1-.021-2.431-1.368-2.464-2.47-.008-.199-.008-.394-.008-.589 0-.041 0-.087.004-.128v-.017q.002-.404.029-.796l102.173 3.179a1 1 0 0 0-.029-.17 1 1 0 0 0-.037-.169 1 1 0 0 0-.049-.162 1 1 0 0 0-.058-.158 2.3 2.3 0 0 0-.207-.431q-.005-.012-.016-.025a2.4 2.4 0 0 0-.199-.294q-.05-.068-.107-.137a5 5 0 0 0-.248-.253 2.86 2.86 0 0 0-1.881-.754l-98.929-3.2a15.05 15.05 0 0 1 3.005-5.961 2.45 2.45 0 0 1 1.183-.795 2.44 2.44 0 0 1 1.422-.017c22.53 6.131 53.038-.556 76.87-30.396q.297-.38.682-.684a4.31 4.31 0 0 1 3.642-.854q.477.1.918.311.439.203.822.506.386.297.691.675c.157.191.322.39.483.593q.484.602.992 1.26c.166.216.335.435.505.668q.433.572.872 1.181.15.2.294.406.15.206.293.419l.298.423q.298.43.595.866a76 76 0 0 1 .794 1.198c.177.269.351.547.525.821.177.281.351.559.525.849q.247.406.496.825.36.602.707 1.223.266.462.521.941c.107.195.21.385.314.58.153.286.306.581.45.871q.266.502.513 1.024.234.478.467.969a56 56 0 0 1 2.05 5.029q.012.025.017.049.178.504.343 1.02c.004.012.013.025.013.041q.156.49.305.987c.034.108.067.211.096.319.037.12.074.249.107.373q.075.26.145.514.05.172.086.344c.063.22.12.448.174.676.066.265.128.535.186.8.054.228.103.46.149.688q.086.385.153.775.032.155.058.311l.087.481q.06.37.115.742c.021.099.033.203.046.302a11 11 0 0 1 .054.39v.008l.02.05 1.621 4.066c0-8.568-1.488-18.748-7.673-29.442a101 101 0 0 0-4.593-7.267 1.4 1.4 0 0 1-.243-.816 1.39 1.39 0 0 1 .959-1.31q.42-.137.847-.008.349.106.703.223c.178.054.355.117.537.179a19 19 0 0 1 1.087.402q.137.05.273.112c.091.037.182.07.273.112.124.053.244.107.368.161.207.096.418.195.62.299.103.054.207.103.31.157.137.071.269.145.405.22.137.075.269.149.405.232q.2.119.397.249.2.123.397.257l4.928 1.645s11.5 8.742 15.812 16.112a190.8 190.8 0 0 1 4.725 42.367M93.31 269.974a69 69 0 0 1-11.786.207h-.822a20.7 20.7 0 0 0 7.433 3.83 50.8 50.8 0 0 0-11.17 7.619 4.8 4.8 0 0 1-2.377 1.214 4.83 4.83 0 0 1-2.654-.211 4.8 4.8 0 0 1-2.154-1.58 4.8 4.8 0 0 1-1.013-2.47 193 193 0 0 1-1.207-21.584c0-1.471.016-2.947.058-4.422q7.142 8.911 17.193 14.308l3.282.825c-10.33-5.658-16.122-15.855-18.243-23.598a.9.9 0 0 1 .075-.655.9.9 0 0 1 .487-.439.9.9 0 0 1 .658 0c.219.083.38.228.492.435 3.815 7.221 10.587 15.491 22.538 23.064q.508.316.736.87.23.554.095 1.14-.131.585-.58.982a1.8 1.8 0 0 1-1.04.465m91.284-33.02L75.009 224.962a2.5 2.5 0 0 1-1-.336 2.5 2.5 0 0 1-.773-.717 2.5 2.5 0 0 1-.418-.97 2.6 2.6 0 0 1 .021-1.057l.008-.033 97.358 10.889a4.13 4.13 0 0 0-1.025-3.204 4.1 4.1 0 0 0-1.178-.912 4 4 0 0 0-1.427-.431l-89.52-10.015a2.3 2.3 0 0 1-.529-.124 2.3 2.3 0 0 1-.487-.24 2.4 2.4 0 0 1-.745-.784 2.35 2.35 0 0 1-.293-1.575q.044-.273.149-.522l.008-.025 72.277 8.647a4 4 0 0 0 1.596-.125 4.1 4.1 0 0 0 1.43-.725q.645-.509 1.042-1.223c.269-.477.434-.982.5-1.525l-72.665-8.701a1.7 1.7 0 0 1-.393-.095 1.7 1.7 0 0 1-.657-.46 1.8 1.8 0 0 1-.232-.336 1.65 1.65 0 0 1-.186-.779c0-.137.017-.274.05-.402q.05-.2.144-.382l.017-.016c8.888-16.622 20.913-25.795 26.213-29.24a4.4 4.4 0 0 1 2.344-.709q.627-.002 1.223.17a4.3 4.3 0 0 1 1.129.506c13.563 8.609 26.87 21.542 35.519 30.715.963 1.02 6.936 3.014 7.78 3.221 9.735 2.363 18.148 3.411 25.423 3.403l5.932 15.615c.195.526.608 2.636.951 4.489"/><path fill="#EFF1EA" d="M100.301 178.056c-6.334 3.121-18.599 11.175-26.015 29.148q-.234.554-.442 1.095a186.4 186.4 0 0 1 12.616-34.09 4.98 4.98 0 0 1 2.427-2.362 4.92 4.92 0 0 1 3.373-.249 51 51 0 0 1 8.016 3.055c.326.157.587.385.781.692q.293.459.294.999.005.548-.282 1.007a1.86 1.86 0 0 1-.768.705m212.144-16.696a92 92 0 0 0-6.916 7.817 57 57 0 0 0-2.679-3.797 57 57 0 0 0-2.985-3.56 56 56 0 0 0-10.579-9.012 57 57 0 0 0-3.985-2.379 57 57 0 0 0-4.167-2.035 54 54 0 0 0-4.324-1.679 55 55 0 0 0-4.452-1.314 57 57 0 0 0-4.543-.937 57 57 0 0 0-4.601-.551 56 56 0 0 0-9.268.062 55.6 55.6 0 0 0-9.128 1.608q-2.244.59-4.432 1.372c-3.021-20.7-15.378-21.629-15.936-21.737l.823.821c.442.091 9.462 3.979 11.893 22.176a55.2 55.2 0 0 0-15.312 9.816 103 103 0 0 0-2.331-14.694c-.823-1.646-1.642-5.766-4.928-2.471-.798.8-13.964 11.706-29.57 1.65l-23.443-13.919a3 3 0 0 1-.315-.224l-.124-.1a.5.5 0 0 1-.099-.091 3 3 0 0 1-.368-.361c-.14-.14-.272-.29-.401-.431-6.655-9.057-15.134-12.435-22.434-13.504a2.1 2.1 0 0 1-1.083-.577 2.1 2.1 0 0 1-.583-1.081 2 2 0 0 1-.033-.344 1.9 1.9 0 0 1 .095-.626q.037-.1.082-.199.192-.424.55-.717C170.54 82.627 212.358 67.56 256.488 67.56a194 194 0 0 1 10.971.315c.724.041 1.439.083 2.162.141q2.356.152 4.701.377c.74.067 1.467.141 2.207.216 2.096.22 4.175.476 6.251.767.665.09 1.331.178 1.996.286.674.099 1.348.207 2.022.315.959.153 1.922.31 2.885.485.695.124 1.393.248 2.084.377 1.24.232 2.472.48 3.704.742.682.14 1.364.29 2.038.435.707.157 1.405.315 2.104.48.467.109.926.212 1.397.328q.64.151 1.273.315c.501.125 1.001.245 1.501.377.699.183 1.389.365 2.079.552q1.048.274 2.072.568 2.71.77 5.378 1.608c.541.174 1.083.344 1.628.518q1.142.371 2.291.767c.682.228 1.364.46 2.046.709a177 177 0 0 1 9.405 3.598c.492.207.983.41 1.48.626.657.273 1.314.56 1.971.85a187 187 0 0 1 11.844 5.69c.55.295 1.091.585 1.633.871a187 187 0 0 1 5.626 3.154c.616.365 1.232.726 1.848 1.099.62.36 1.236.742 1.844 1.11a191 191 0 0 1 7.242 4.689q1.785 1.207 3.551 2.47c1.174.829 2.332 1.687 3.489 2.554a191 191 0 0 1 13.465 11.076q.035.03.066.066c1.248 1.169 1.959 2.607 2.141 4.307l.265 2.259c.173 1.459.471 2.897.781 4.331 5.887 27.039-63.207 21.227-73.484 34.372m56.948 114.404c-.008.009-.008.009-.016.009a53 53 0 0 0-2.472.936 14.2 14.2 0 0 1-4.907 1.074l-15.155.634 1.062.709a6.6 6.6 0 0 0 2.241.97c-3.754-.116-6.602-1.011-8.69-2.102l2.923.423c-13.489-8.319-18.776-17.948-20.856-23.921a2.4 2.4 0 0 1-.119-.568 2.3 2.3 0 0 1 .012-.585q.043-.29.153-.563a2.4 2.4 0 0 1 .674-.945 2.36 2.36 0 0 1 1.029-.531q.28-.068.575-.066l33.753-.017c.298 9.157 3.977 18.334 9.793 24.543m71.298-61.132c-4.312-7.37-15.812-16.112-15.812-16.112-2.923-1.981-8.024-5.753-12.46-7.846a3.3 3.3 0 0 1-.975-.701 3.2 3.2 0 0 1-.654-1.007 3.3 3.3 0 0 1-.239-1.177 3.2 3.2 0 0 1 .198-1.186c2.803-7.436 6.131-20.228.723-29.865l-.558-.22a64.2 64.2 0 0 1-10.909 12.829 54.7 54.7 0 0 0 4.684-17.716 4.1 4.1 0 0 1 .938-2.309q.403-.49.943-.837.534-.342 1.149-.51a4 4 0 0 1 1.252-.137c.426.017.835.1 1.236.249q.596.218 1.1.609.503.393.864.916a187 187 0 0 1 17.367 31.142 187 187 0 0 1 11.153 33.878m-307.468 52.046c-8.962-.829-26.234 1.032-26.234 1.032-21.81-7.651-30.33-21.094-33.212-27.594a2.3 2.3 0 0 1-.173-.596 2.3 2.3 0 0 1-.017-.626q.031-.313.145-.606a2.5 2.5 0 0 1 .293-.551q.184-.254.43-.452a2.42 2.42 0 0 1 1.745-.53l48.627 4.497a31 31 0 0 0-.178 3.395 32.6 32.6 0 0 0 2.212 11.83 32.7 32.7 0 0 0 2.704 5.397 32.3 32.3 0 0 0 3.658 4.804m44.356 2.884a30.2 30.2 0 0 1-9.165 4.406 32.2 32.2 0 0 0 5.395-4.195 32.6 32.6 0 0 0 7.615-11.275 32.5 32.5 0 0 0 1.881-6.578c1.157 6.404.297 13.803-5.726 17.642"/><path stroke="#000" stroke-miterlimit="10" stroke-width=".347" d="M221.854 158.031c.757 8.377.79 19.167-2.026 29.215 3.341 9.687 20.05-1.663 17.768-34.848a60 60 0 0 0-.43-4.183m-15.312 9.816a55.2 55.2 0 0 1 15.312-9.816m-15.312 9.816a103 103 0 0 0-2.331-14.694c-.823-1.646-1.642-5.766-4.928-2.471-.798.8-13.964 11.706-29.57 1.65l-23.443-13.919a3 3 0 0 1-.315-.224l-.124-.1a.5.5 0 0 1-.099-.091 3 3 0 0 1-.368-.361c-.14-.14-.273-.29-.401-.431-6.655-9.057-15.134-12.435-22.434-13.504a2.1 2.1 0 0 1-1.083-.577 2.1 2.1 0 0 1-.583-1.081 2 2 0 0 1-.033-.344 1.9 1.9 0 0 1 .095-.626q.037-.1.082-.199.192-.424.55-.717C170.54 82.627 212.358 67.56 256.488 67.56a194 194 0 0 1 10.971.315c.724.041 1.439.083 2.162.141q2.356.152 4.701.377c.74.067 1.467.141 2.207.216 2.096.22 4.175.476 6.251.767.665.09 1.331.178 1.996.286q1.011.151 2.022.315c.959.153 1.922.31 2.885.485.695.124 1.393.248 2.084.377 1.24.232 2.472.48 3.704.742.682.14 1.364.29 2.038.435.707.157 1.405.315 2.104.48.467.109.926.212 1.397.328q.64.151 1.273.315c.501.125 1.001.245 1.501.377.699.183 1.389.365 2.079.552q1.048.274 2.072.568 2.71.77 5.378 1.608c.541.174 1.083.344 1.628.518q1.142.371 2.291.767c.682.228 1.364.46 2.046.709a177 177 0 0 1 9.405 3.598c.492.207.983.41 1.48.626.657.273 1.314.56 1.971.85a187 187 0 0 1 11.844 5.69c.55.295 1.091.585 1.633.871a187 187 0 0 1 5.626 3.154c.616.365 1.232.726 1.848 1.099.62.36 1.236.742 1.844 1.11a191 191 0 0 1 7.242 4.689q1.785 1.207 3.551 2.47c1.174.829 2.332 1.687 3.489 2.554a191 191 0 0 1 13.465 11.076q.035.03.066.066c1.248 1.169 1.959 2.607 2.141 4.307l.265 2.259c.173 1.459.471 2.897.781 4.331 5.887 27.039-63.207 21.227-73.484 34.372a92 92 0 0 0-6.916 7.817 57 57 0 0 0-2.679-3.797m-65.684-17.165c-2.431-18.197-11.451-22.085-11.893-22.176l-.823-.821c.558.108 12.915 1.037 15.936 21.737m76.469 106.679a52 52 0 0 0 .054 14.748c-.223-.311-.368-.531-.43-.622a.2.2 0 0 1-.02-.037l-.009-.013-.066-.066-2.393-2.408c.029.054.111.257.256.584.021.046.041.1.07.149.058.125.12.266.195.419q.05.111.107.228c.186.394.418.858.69 1.38.112.212.232.427.356.655q.28.51.608 1.074a42 42 0 0 0 .822 1.335c.186.298.389.605.6.916.086.128.173.261.268.389a25 25 0 0 0 .645.904c.161.228.335.456.509.684a34 34 0 0 0 1.67 2.031c.099.112.198.224.306.34q.224.256.467.506c.306.331.632.663.963.986.108.112.227.224.339.332q.092.092.19.178c.277.261.562.526.856.779.079.071.161.145.24.212q.34.293.686.568.085.073.169.14c.162.129.319.253.484.378a27 27 0 0 0 1.798 1.281c.1.066.195.124.29.186a23 23 0 0 0 1.31.792q.186.106.385.207.092.054.19.104.094.055.194.103.19.105.389.203.198.101.397.195.235.119.483.224.249.118.496.224c.323.141.658.278.992.402q.213.092.43.166.565.204 1.141.389.355.112.715.212c.24.07.484.132.728.195q.342.092.69.165.2.052.406.083c.136.033.272.058.409.083.124.029.252.05.38.071q.093.02.186.033.103.02.207.033l12.865.522q.465.014.657.444a.7.7 0 0 1-.108.787q-.278.35-.549.697l-.397.543a6 6 0 0 0-.195.282q-.384.544-.731 1.115-.108.175-.215.356c-.157.27-.31.539-.451.813q-.103.179-.194.364a14 14 0 0 0-.306.63c-.141.299-.273.593-.393.896q-.01.017-.02.041v.009l-.009.049-.814 4.058c9.661-23.656 66.184-25.131 90.293-7.685a9.4 9.4 0 0 1 1.926 1.895 9.3 9.3 0 0 1 1.869 5.011 9.3 9.3 0 0 1-.211 2.698 203 203 0 0 1-1.695 6.852 5.4 5.4 0 0 1-.467 1.161 5.3 5.3 0 0 1-2.766 2.429 5.3 5.3 0 0 1-1.207.307 5.2 5.2 0 0 1-1.248.02 5.5 5.5 0 0 1-1.216-.273 5.4 5.4 0 0 1-1.124-.551c-17.838-11.47-43.555 1.181-43.902 1.314l-8.206 4.116c.186-.054 2.187-.485 5.341-.879q.077-.005.153-.017.913-.11 1.943-.215c.124-.009.252-.025.38-.038q.568-.05 1.174-.099c.232-.021.467-.037.707-.058q.44-.032.897-.062c.186-.013.372-.021.567-.033.148-.009.301-.013.458-.021l.422-.025.455-.017c.322-.016.653-.024.988-.037.062-.004.116-.004.173-.004.211-.008.418-.008.633-.012a75 75 0 0 1 3.034-.009c.426.009.856.017 1.29.033q.774.026 1.554.071c.343.016.687.041 1.034.066.277.017.554.042.835.062.277.021.562.046.843.075q.336.024.666.066a45 45 0 0 1 1.773.203q.39.052.773.108c.211.029.418.062.633.096a1 1 0 0 1 .136.024q.367.056.74.116c-.025.241-.041.477-.066.718v.004l-.136 1.488c-.062.568-.12 1.136-.182 1.695-.038.324-.071.647-.108.962a176 176 0 0 1-.31 2.483l-.091.68-.173 1.202c-.087.58-.178 1.16-.269 1.732-.046.282-.087.564-.137.838-.173 1.036-.351 2.06-.545 3.071a48 48 0 0 1-.145.734q-.248 1.276-.521 2.52-.067.325-.14.642-.049.233-.104.465a89 89 0 0 1-.649 2.707c-.045.19-.095.373-.14.563-.037.166-.083.332-.128.498q-.156.609-.323 1.218a68 68 0 0 1-.525 1.866 42 42 0 0 1-.36 1.214c-.09.319-.19.638-.289.953-.07.228-.145.456-.215.684-.074.237-.149.469-.231.705-.046.158-.1.311-.149.46-.079.241-.157.481-.244.721.004.005.004.005-.004.009a63 63 0 0 1-.596 1.72c-.095.261-.186.518-.281.775q-.165.462-.343.916c-.091.236-.182.477-.268.713l-.038.095a87 87 0 0 1-.607 1.53q-.297.723-.6 1.438c-.297.709-.607 1.41-.922 2.102-.053.124-.111.24-.165.356-.021.058-.05.108-.074.166-.075.174-.162.353-.244.527a87 87 0 0 1-1.774 3.581 58 58 0 0 1-.971 1.811c-.161.295-.327.585-.492.879q-.196.354-.405.709c-.087.145-.166.286-.252.427q-.173.311-.364.618a80 80 0 0 1-1.741 2.789c-.128.195-.256.394-.384.585q-.193.292-.393.58-.303.453-.62.899c-.099.15-.202.291-.306.436a.4.4 0 0 1-.062.091 5 5 0 0 1-.235.327q-.027.042-.058.079c-.145.207-.298.415-.447.618a.05.05 0 0 1-.025.033q-.334.459-.673.912c-.029.037-.058.079-.087.116q-.594.784-1.207 1.55c-.203.253-.41.506-.612.755a74 74 0 0 1-.62.746q-.303.36-.612.717c-.136.161-.281.323-.418.481a73 73 0 0 1-1.773 1.96l-.653.688c-.219.228-.438.448-.657.672-.224.224-.443.448-.666.663q-.334.33-.67.655a78 78 0 0 1-2.621 2.4c-.405.352-.806.701-1.219 1.045a73 73 0 0 1-1.98 1.595q-.502.391-1.005.763c-.289.22-.574.431-.864.643-.124.087-.24.174-.364.257-.264.194-.537.389-.81.576-.016.016-.037.025-.054.041q-.49.334-.975.668c-.343.228-.695.456-1.042.684l-.736.468q-1.109.697-2.236 1.351-.181.105-.368.216c-.24.132-.476.269-.719.402l-.91.497c-.19.104-.384.203-.57.303q-.429.228-.868.452c-.36.182-.728.369-1.092.543-50.367 24.601-108.118-16.481-102.93-72.428l3.138-33.828a9.85 9.85 0 0 1 1.157-3.818 9.8 9.8 0 0 1 2.559-3.054l.033-.021c4.928-3.934 17.561-12.995 29.322-12.995.14 0 .285 0 .426.012l2.187.034-.1-2.185c-.008-.315-1.839-31.217-44.861-29.865-21.401.667-31.62 8.663-36.416 15.254-5.299 7.283-5.353 14.404-5.353 14.702l.012 1.488 1.41.465c.232.074 23.109 7.552 30.083 12.601l.041.033a12.5 12.5 0 0 1 3.642 4.079 12.5 12.5 0 0 1 1.583 5.243l2.051 26.993c5.06 66.682-74.026 106.239-123.212 61.082-15.882-14.578-24.791-35.507-19.061-60.141q.135-.546.38-1.049c.166-.331.368-.646.604-.936q.353-.43.794-.78.44-.342.942-.584a4.96 4.96 0 0 1 3.262-.353c.359.083.711.208 1.046.369q.247.116.496.245l.252.124c.256.121.504.253.756.386l.348.186q.259.138.512.286.098.05.19.104c.178.104.364.211.542.319a27 27 0 0 1 1.091.667q.3.192.6.39c.111.071.223.141.326.212.17.116.339.228.509.348.421.29.847.597 1.273.912.078.058.161.116.236.178l.004.004c.173.133.351.265.521.398.173.133.351.269.525.406q.026.02.045.037c.004 0 .008.005.012.005a50 50 0 0 1 1.881 1.575l-.727-2.91-.042-.162-.053-.224q-.36-.31-.711-.609c-.335-.294-.67-.572-1.005-.846-.165-.136-.335-.273-.5-.406-.165-.137-.335-.269-.5-.398a22 22 0 0 0-.505-.393q-.247-.193-.496-.374a10 10 0 0 0-.496-.373 37 37 0 0 0-1.488-1.073 37 37 0 0 0-.496-.344c-.165-.112-.331-.228-.496-.332a35 35 0 0 0-.492-.327q-.397-.257-.794-.502a45 45 0 0 0-1.165-.709c-.29-.17-.575-.34-.864-.497-.29-.166-.571-.319-.86-.477q-.267-.145-.534-.277c-.181-.096-.359-.191-.533-.274q-.236-.123-.467-.232c-.157-.083-.318-.154-.471-.228-.145-.075-.29-.141-.434-.207a8 8 0 0 0-.438-.199 3 3 0 0 0-.211-.096 5 5 0 0 0-.211-.091q-.224-.1-.447-.195c-.235-.099-.467-.199-.702-.29a18 18 0 0 0-1.749-.663c-.161-.058-.322-.112-.484-.17l-.516-.17a30 30 0 0 0-.782-.24 20 20 0 0 0-.913-.262c-.19-.058-.377-.103-.567-.153l-.099-.025q-.346-.089-.686-.166a34 34 0 0 0-1.86-.385q-.399-.075-.79-.133a35 35 0 0 0-.864-.124q-.292-.038-.579-.071a34 34 0 0 0-2.596-.194c-.26-.005-.512-.013-.765-.013q-.094-.005-.194-.004-.546-.006-1.087.012a58 58 0 0 0-.885.034q-.258.02-.516.033a34 34 0 0 0-2.84.336q-.404.069-.794.145c-.248.049-.488.095-.724.149-.02 0-.033.004-.05.008-.185.042-.371.083-.549.129q-.402.093-.79.199-.142.036-.285.078a6 6 0 0 0-.318.092c-.26.074-.517.153-.76.232q-.105.03-.203.062c-.12.041-.236.079-.352.124a1 1 0 0 0-.132.046 3 3 0 0 0-.335.12c-.202.071-.4.141-.595.22-.178.066-.347.137-.517.207-.17.066-.33.141-.492.207l-.48.216q-.011.001-.016.008-.193.086-.38.178-.591.28-1.125.576-.24.125-.463.257c-.153.088-.297.175-.442.262-.095.058-.186.112-.281.174a13 13 0 0 0-.753.497c-.09.058-.177.116-.264.187q-.209.149-.405.298c-.108.079-.211.162-.31.241-.203.161-.385.323-.558.476a9 9 0 0 0-.943.987c-.12-.415-.24-.838-.355-1.252q-.005-.004-.004-.008-.006.001-.005-.005l-.012-.041a33 33 0 0 0-.194-.68q-.266-.956-.525-1.907-.204-.764-.401-1.529c-.091-.332-.174-.667-.26-.999-.141-.56-.286-1.119-.422-1.683q-.497-1.966-.505-4a16 16 0 0 1 .488-4 16.36 16.36 0 0 1 3.762-7.059c.227-.245.463-.489.699-.73.02-.02.04-.045.07-.066.236-.24.467-.477.71-.709q.118-.12.228-.219c.182-.175.36-.344.542-.506q.181-.174.368-.336c.202-.186.405-.361.603-.535q.093-.08.186-.157c.108-.095.211-.187.323-.274.09-.083.186-.157.28-.236.1-.079.2-.166.303-.245.09-.07.181-.149.277-.223.09-.075.186-.15.28-.22.22-.174.439-.344.666-.514q.334-.254.674-.502.137-.099.285-.199a46 46 0 0 1 2.406-1.616c.273-.174.554-.34.835-.506q1.252-.757 2.568-1.447c.467-.244.938-.48 1.413-.717l.72-.344.723-.335a42 42 0 0 1 1.253-.548c.277-.124.562-.24.843-.356.285-.116.579-.232.872-.348q.566-.221 1.137-.431a7 7 0 0 1 .29-.108q.14-.055.289-.104.394-.142.79-.273.471-.168.95-.324c.389-.128.786-.252 1.178-.373a65 65 0 0 1 1.588-.468l.798-.224c.537-.141 1.074-.282 1.62-.414.426-.104.856-.208 1.286-.303l.76-.17c.211-.046.43-.091.645-.137q.293-.063.591-.12a67 67 0 0 1 1.877-.352q.422-.08.843-.145.285-.05.575-.092.285-.042.571-.091l.591-.087.587-.083a78 78 0 0 1 1.703-.219c.343-.042.686-.075 1.025-.112q.342-.042.69-.071.863-.088 1.724-.157.552-.042 1.104-.079a92 92 0 0 1 3.894-.187c.476-.016.947-.029 1.422-.033q.71-.007 1.418-.008a100 100 0 0 1 2.373.029q.112-.001.219.004c.29.008.579.013.872.025q.051-.001.108.004.525.018 1.05.042c.033 0 .062.004.095.004q.526.023 1.058.054c.645.033 1.294.078 1.935.124.285.025.558.046.843.066l.356.029q.29.024.587.054.358.027.711.067c.235.02.479.045.719.074.484.046.972.1 1.451.162q.553.062 1.1.137.556.069 1.112.145c.322.045.649.091.971.141q.83.118 1.654.257c.372.062.752.124 1.124.19q.951.167 1.889.353c.24.041.476.091.716.141.082.012.157.033.231.045q.26.051.513.108.348.069.69.145c.165.037.327.07.488.108a88 88 0 0 1 4.043.986c.322.083.645.166.963.261q.367.099.728.204c.053.012.107.033.161.045.202.054.409.116.616.178.248.075.5.145.744.22q.844.254 1.67.526a77 77 0 0 1 2.422.821c.079.025.162.054.24.083.075.025.145.05.219.083q.582.206 1.158.423a68 68 0 0 1 3.385 1.368l.021.008c.128.058.252.112.385.166.128.054.256.112.384.166.265.12.529.232.79.356.128.054.26.116.388.174q.192.088.385.183c.256.116.504.236.752.356q.396.188.785.381.502.255.997.51.198.1.397.212c.177.091.363.186.537.286.033.016.062.029.091.049.211.108.426.228.637.344a69 69 0 0 1 1.864 1.078q.457.276.901.551c.298.187.591.378.881.564q.155.1.306.203l.574.382a.1.1 0 0 1 .025.02q.284.187.562.386a24 24 0 0 1 .988.709l.381.282c.363.265.711.538 1.058.816l.504.406a37 37 0 0 1 2.414 2.127q.162.149.31.298.192.187.377.373.203.2.401.407l.103.111c.083.079.157.162.231.241.153.157.298.319.443.477q.215.235.426.476.017.014.029.033.118.128.219.257c.099.112.198.233.293.344q.143.174.281.349c.025.024.05.053.071.078q.407.506.785 1.024l.591-1.189.232-.461c-.095-.128-.191-.252-.29-.381q-.005-.019-.016-.025a.2.2 0 0 0-.029-.037c0-.004 0-.004-.009-.008a28 28 0 0 0-.905-1.153 2 2 0 0 0-.161-.195 16 16 0 0 0-.413-.493 4 4 0 0 0-.228-.265 9 9 0 0 0-.426-.481 1.4 1.4 0 0 0-.144-.166q-.3-.34-.625-.679c-.086-.1-.181-.199-.276-.299l-.418-.431-.273-.274a42 42 0 0 0-.769-.754 20 20 0 0 0-.529-.502 33 33 0 0 0-.81-.737c-.161-.15-.331-.291-.496-.436a24 24 0 0 0-1.05-.887q-.23-.199-.472-.385c-.5-.411-1.016-.808-1.541-1.202a29 29 0 0 0-.902-.659 57 57 0 0 0-1.852-1.289 1.94 1.94 0 0 1-.727-.888 1.97 1.97 0 0 1-.116-1.144 1.95 1.95 0 0 1 .537-1.015 1.93 1.93 0 0 1 1.005-.551c6.738-1.484 11.066-4.456 11.682-4.9 11.365-7.349 3.539-30.006 3.473-32.609l-3.03-21.592-.116-.813a26 26 0 0 0 1.203-.166 42 42 0 0 0 1.637-.265q.283-.048.554-.103c.298-.063.595-.121.893-.187.269-.05.541-.108.806-.174.116-.025.227-.05.343-.079.112-.021.227-.054.339-.083a33 33 0 0 0 1.86-.493q.49-.138.98-.294.286-.082.566-.183c.013 0 .025 0 .033-.008a1 1 0 0 0 .133-.046q.165-.05.33-.107c.137-.046.277-.1.418-.15.136-.049.277-.095.409-.149.314-.108.625-.228.926-.344q.464-.18.91-.373.501-.21.984-.427c.256-.12.516-.24.764-.36.025-.013.05-.021.071-.034.194-.091.384-.186.578-.286a.1.1 0 0 0 .038-.024q.119-.056.231-.117a.1.1 0 0 0 .046-.024q.122-.056.239-.125c.157-.074.31-.161.467-.244.211-.116.422-.232.633-.357q.142-.075.277-.161.416-.235.818-.494.344-.205.674-.423c.248-.157.492-.323.736-.489q.316-.221.624-.443a.3.3 0 0 0 .054-.042 16 16 0 0 0 .566-.418c.203-.154.406-.307.604-.469.012 0 .017-.012.029-.02q.237-.18.467-.378c.103-.083.207-.165.31-.257.099-.083.203-.17.302-.257q.148-.123.289-.252c.095-.079.19-.166.281-.249a34 34 0 0 0 1.613-1.555c.103-.099.202-.207.305-.315.286-.298.559-.601.827-.907q.373-.413.715-.838.15-.172.286-.344.002.001.004-.004l.165-.203q.143-.014.285-.033c.009 0 .013-.004.021-.004q.006.004.012-.004c.211-.025.418-.058.629-.1a14 14 0 0 0 2.137-.613q.163-.056.331-.125l.326-.132.331-.141a19 19 0 0 0 1.298-.626q.292-.149.583-.315c.194-.104.384-.212.579-.332a.1.1 0 0 0 .049-.025q.149-.086.302-.178c.112-.066.227-.141.339-.216.07-.041.141-.082.211-.132q.086-.05.178-.112c.111-.071.227-.145.339-.224.12-.075.231-.149.347-.228.202-.141.405-.278.608-.423q.255-.186.516-.373c.178-.128.36-.265.538-.398l.285-.219q.638-.488 1.253-.999l.516-.431a8 8 0 0 0 .525-.452q.08-.062.157-.137.15-.125.298-.257a71 71 0 0 0 3.096-2.914l.195-.195q.092-.088.177-.182.265-.27.517-.531.284-.288.55-.564l.256-.277q.03-.027.054-.058c.116-.121.223-.232.327-.349q.1-.105.194-.211l.517-.564c.049-.058.103-.112.148-.165q.063-.068.112-.129c.091-.099.178-.191.252-.282.046-.041.083-.087.12-.132l.19-.216c.013-.012.025-.029.037-.041q.012-.013.017-.025.076-.076.132-.145.068-.08.128-.145l.1-.112q.001-.012.008-.017.044-.05.083-.087.16-.195.21-.24s9.947-10.997 8.21-36.237a60 60 0 0 0-.492-4.622m76.469 106.679v-.013a23.8 23.8 0 0 1-.988-6.872l.067.012a24.95 24.95 0 0 1 .632-11.208 10.9 10.9 0 0 0 .447-4c-.013-.195-.038-.394-.058-.589-.025-.199-.058-.394-.091-.593-.025-.103-.046-.215-.071-.323a6 6 0 0 0-.107-.448c-.037-.132-.079-.269-.116-.402a8 8 0 0 0-.12-.356 9 9 0 0 0-.458-1.103 4 4 0 0 0-.182-.356 9 9 0 0 0-.406-.697l-.124-.194h-.004q-.045-.076-.095-.146l-.194-.099a38 38 0 0 1-1.459-.808 25 25 0 0 1-1.005-.589c-.025-.017-.049-.029-.074-.046a40 40 0 0 1-.992-.621 33 33 0 0 1-1.042-.693l-.347-.236a49 49 0 0 1-.74-.526 8 8 0 0 1-.377-.282 14 14 0 0 1-.541-.406c-.203-.158-.405-.311-.604-.473a40 40 0 0 1-1.785-1.509c-.091-.078-.178-.161-.265-.24a24 24 0 0 1-.967-.908c-.12-.112-.24-.232-.356-.348q-.161-.161-.322-.328-.48-.483-.935-.986a30 30 0 0 1-.673-.759l-.282-.331q-.217-.257-.429-.514a39 39 0 0 1-1.22-1.592c-.132-.178-.256-.361-.38-.539a31 31 0 0 1-1.154-1.778q-.042-.064-.078-.129a32 32 0 0 1-1.501-2.802c-.078-.17-.161-.34-.235-.51-.075-.174-.153-.339-.228-.509a56 56 0 0 1-.421-1.037 28 28 0 0 1-.649-1.861 4 4 0 0 1-.116-.369c-.054-.174-.108-.344-.153-.518q-.092-.33-.178-.659a11 11 0 0 1-.112-.456c-.041-.166-.082-.327-.119-.493-.046-.224-.096-.444-.141-.672l-.05-.265a9 9 0 0 1-.086-.489 5 5 0 0 1-.062-.369q-.052-.305-.096-.618-.03-.21-.053-.427a26 26 0 0 1-.19-2.134c-.575-11.068 5.684-21.48 10.954-28.241a57 57 0 0 0-2.674-3.797m14.005 88.254a52 52 0 0 0 .058 14.752c1.807 2.512 8.913 11.25 21.323 13.285l18.045.033h.041a3.93 3.93 0 0 0 2.162-.651l-7.491-.808a6 6 0 0 1-.839-.149h-.008m-33.291-26.462c1.724 6.051 6.478 15.055 19.599 22.74a12.1 12.1 0 0 0 4.436 1.542l.558.078h.008M302.85 165.38a58 58 0 0 0-2.985-3.56m2.985 3.56a57 57 0 0 0-2.985-3.56m0 0a56 56 0 0 0-3.274-3.296m0 0a54 54 0 0 0-3.53-3.009 58 58 0 0 0-3.775-2.707m7.305 5.716a53 53 0 0 0-3.534-3.009 57 57 0 0 0-3.771-2.707m0 0a57 57 0 0 0-3.985-2.379 57 57 0 0 0-4.167-2.035 54 54 0 0 0-4.324-1.679 55 55 0 0 0-4.452-1.314 57 57 0 0 0-4.543-.937 57 57 0 0 0-4.601-.551m0 0a58 58 0 0 0-4.638-.162m4.638.162a56 56 0 0 0-4.638-.162m0 0a56 56 0 0 0-4.63.224m4.63-.224a54 54 0 0 0-4.63.224m0 0a55 55 0 0 0-4.597.613m4.597-.613a56 56 0 0 0-4.597.613m0 0q-2.288.405-4.531.995m0 0a57 57 0 0 0-4.432 1.372m4.432-1.372q-2.244.59-4.432 1.372m101.07 131.039c2.088 1.091 4.936 1.986 8.69 2.102m-8.69-2.102 2.923.423c-13.489-8.319-18.776-17.948-20.856-23.921a2.4 2.4 0 0 1-.119-.568 2.3 2.3 0 0 1 .012-.585q.043-.29.153-.563a2.4 2.4 0 0 1 .674-.945 2.36 2.36 0 0 1 1.029-.531q.28-.068.575-.066l33.753-.017c.298 9.157 3.977 18.334 9.793 24.543-.008.009-.008.009-.016.009a53 53 0 0 0-2.472.936 14.2 14.2 0 0 1-4.907 1.074l-15.155.634 1.062.709a6.6 6.6 0 0 0 2.241.97m74.733-81.576-4.928-1.645a10 10 0 0 0-.397-.257q-.198-.13-.397-.249a10 10 0 0 0-.405-.232c-.136-.075-.268-.149-.405-.22-.103-.054-.207-.103-.31-.157a17 17 0 0 0-.62-.299l-.368-.161c-.091-.042-.182-.075-.273-.112a4 4 0 0 0-.273-.112 19 19 0 0 0-1.087-.402c-.182-.062-.359-.125-.537-.179a28 28 0 0 0-.703-.223 1.4 1.4 0 0 0-.847.008 1.39 1.39 0 0 0-.959 1.31q-.006.448.243.816a101 101 0 0 1 4.593 7.267c6.185 10.694 7.673 20.874 7.673 29.442l-1.621-4.066-.02-.05v-.008a11 11 0 0 0-.054-.39c-.013-.099-.025-.203-.046-.302a46 46 0 0 0-.115-.742l-.145-.792a17 17 0 0 0-.153-.775c-.046-.228-.095-.46-.149-.688a29 29 0 0 0-.186-.8 15 15 0 0 0-.174-.676 5 5 0 0 0-.086-.344q-.07-.254-.145-.514c-.033-.124-.07-.253-.107-.373-.029-.108-.062-.211-.096-.319q-.15-.496-.305-.987c0-.016-.009-.029-.013-.041a38 38 0 0 0-.343-1.02q-.005-.024-.017-.049a32 32 0 0 0-.372-1.024q-.192-.523-.396-1.032a56 56 0 0 0-1.282-2.973q-.233-.49-.467-.969a24 24 0 0 0-.513-1.024c-.144-.29-.297-.585-.45-.871l-.314-.58q-.255-.48-.521-.941a50 50 0 0 0-.707-1.223q-.249-.418-.496-.825c-.174-.29-.348-.568-.525-.849-.174-.274-.348-.552-.525-.821a76 76 0 0 0-1.687-2.487 16 16 0 0 0-.293-.419 18 18 0 0 0-.294-.406q-.439-.61-.872-1.181c-.17-.233-.339-.452-.505-.668a83 83 0 0 0-.992-1.26c-.161-.203-.326-.402-.483-.593a4 4 0 0 0-.691-.675 4 4 0 0 0-.822-.506 4 4 0 0 0-.918-.311 4.4 4.4 0 0 0-.959-.104 4.4 4.4 0 0 0-1.869.44 4.3 4.3 0 0 0-.814.518 4 4 0 0 0-.682.684c-23.832 29.84-54.34 36.527-76.87 30.396a2.44 2.44 0 0 0-1.422.017 2.45 2.45 0 0 0-1.183.795 15.05 15.05 0 0 0-3.005 5.961l98.929 3.2a2.86 2.86 0 0 1 2.029.9q.05.05.1.107.056.07.107.137.112.141.199.294.011.013.016.025.125.204.207.431a1 1 0 0 1 .058.158q.03.081.049.162.025.08.037.169.021.082.029.17l-102.173-3.179q-.027.392-.029.796v.017c-.004.041-.004.087-.004.128q-.002.291.008.589c.033 1.102 1.364 2.449 2.464 2.47l102.727 3.246c3.237.05 4.907.559 4.878 1.699a.57.57 0 0 1-.103.311c.004.008.004.008 0 .017.07.791.103 1.6.103 2.404a29 29 0 0 1-1 7.523 29 29 0 0 1-2.902 7.005q.489-.48.938-.974.206-.224.405-.447c.104-.108.199-.22.294-.332q.097-.106.182-.211.018-.012.025-.029.248-.28.483-.572c.046-.05.087-.096.124-.15.062-.066.116-.136.17-.207a.05.05 0 0 0 .021-.025c.148-.182.297-.369.434-.551.09-.104.165-.211.248-.315a49 49 0 0 0 1.901-2.674c.083-.128.166-.252.244-.381l.012-.017.029-.049.013-.017.004-.012q.014-.013.021-.025l.024-.037.013-.017.008-.025c.008-.004.012-.016.021-.025l.008-.021c.033-.041.062-.087.087-.128l.099-.158.025-.041.021-.033c.31-.498.595-.983.859-1.434q.152-.267.29-.514.104-.194.202-.369l.195-.361c.041-.074.082-.153.12-.228q.066-.111.119-.224a4 4 0 0 1 .108-.211c.112-.211.215-.415.302-.597l.173-.356a27 27 0 0 0 .562-1.244c.017-.046.034-.079.042-.099l-2.456 10.673-.008.079c-.004.037-.004.083-.012.141q.001.05-.005.112c0 .041-.008.091-.012.145q.001.03-.004.054l-.025.224q-.007.072-.02.145c0 .049-.009.103-.017.153a14 14 0 0 1-.116.721c-.02.096-.037.195-.062.299a.6.6 0 0 1-.025.12 8 8 0 0 1-.091.394q-.044.188-.095.381c-.004.017-.008.025-.012.037a16 16 0 0 1-1.079 2.865 3 3 0 0 1-.12.228 1 1 0 0 1-.095.182 4 4 0 0 1-.203.377 6 6 0 0 1-.227.394c-.041.066-.078.133-.124.199a4 4 0 0 1-.211.323c-.074.12-.157.241-.24.361l-.227.307a2 2 0 0 1-.12.157 1 1 0 0 1-.058.075 6 6 0 0 1-.252.323c-.066.079-.132.162-.202.24-.162.191-.335.386-.517.573-.075.082-.157.174-.244.256-.083.088-.17.17-.26.257-.166.158-.331.311-.509.465a4 4 0 0 1-.273.232 8 8 0 0 1-.277.228 9 9 0 0 1-.38.298q-.29.214-.599.427l.02.009q.02.001.037.008a.2.2 0 0 0 .054.016c.004.005.008.005.013.009a3.23 3.23 0 0 0 2.509-.224c.021-.004.033-.017.054-.025l.45-.249.294-.17q.121-.069.244-.145c.111-.066.219-.132.334-.203q.181-.11.368-.228l.414-.269.421-.278q.204-.141.414-.282.21-.142.413-.29a38 38 0 0 0 1.881-1.413q.207-.163.414-.332l.409-.336c.14-.12.281-.236.426-.356.285-.241.57-.485.839-.73q.211-.187.417-.373.409-.367.786-.729a23.8 23.8 0 0 0 3.237-3.644l-1.894 4.526-.905 2.172c-.864 1.31-1.65 2.463-2.373 3.47a3 3 0 0 0-.335.58 3 3 0 0 0-.207.634q-.069.329-.07.664c0 .228.025.447.07.667.05.22.116.431.207.634q.143.308.335.581.197.268.451.493.249.225.541.394.752.428 1.48.887.498.31 1.058.485a4.62 4.62 0 0 0 3.415-.266 4.6 4.6 0 0 0 .971-.642q.447-.38.782-.866a4.7 4.7 0 0 0 .545-1.033q.204-.554.265-1.14a193 193 0 0 0 1.079-20.369 190.8 190.8 0 0 0-4.725-42.367m-15.812-16.112s11.5 8.742 15.812 16.112m-15.812-16.112c-2.923-1.981-8.024-5.753-12.46-7.846a3.3 3.3 0 0 1-.975-.701 3.2 3.2 0 0 1-.654-1.007 3.3 3.3 0 0 1-.239-1.177 3.2 3.2 0 0 1 .198-1.186c2.803-7.436 6.131-20.228.723-29.865l-.558-.22a64.2 64.2 0 0 1-10.909 12.829 54.7 54.7 0 0 0 4.684-17.716 4.1 4.1 0 0 1 .938-2.309q.403-.49.943-.837.534-.342 1.149-.51a4 4 0 0 1 1.252-.137c.426.017.835.1 1.236.249q.596.218 1.1.609.503.393.864.916a187 187 0 0 1 17.367 31.142 187 187 0 0 1 11.153 33.878M513 257c0 141.385-114.615 256-256 256S1 398.385 1 257 115.615 1 257 1s256 114.615 256 256Zm-81.49 71.585a188.6 188.6 0 0 1-17.607 33.261 188.3 188.3 0 0 1-23.828 29.107c-36.018 36.124-84.021 55.859-135.017 55.482a188 188 0 0 1-14.171-.655 189 189 0 0 1-14.085-1.712 189 189 0 0 1-13.918-2.769 189 189 0 0 1-13.671-3.801 192 192 0 0 1-13.349-4.821 189.7 189.7 0 0 1-37.37-20.261 189 189 0 0 1-11.331-8.56 191 191 0 0 1-10.662-9.384 190 190 0 0 1-19.069-21.041 188 188 0 0 1-8.306-11.536 189 189 0 0 1-7.42-12.124 191 191 0 0 1-6.494-12.647 190 190 0 0 1-5.527-13.102 7.5 7.5 0 0 1-.356-1.298 7.73 7.73 0 0 1 .877-5.219q.33-.589.76-1.11.428-.522.943-.962A7.7 7.7 0 0 1 83 314.65a35.4 35.4 0 0 1 9.612-4.013q.322-.08.648-.116c.215-.029.435-.037.654-.037a5 5 0 0 1 1.302.174 5.2 5.2 0 0 1 1.215.493q.286.163.554.357a6 6 0 0 1 .505.422q.235.23.446.485a5.4 5.4 0 0 1 .934 1.729q.1.316.161.638.059.325.079.655.016.33-.004.659c-.017.22-.046.435-.087.655-15.911 82.338 123.224 127.209 154.183 41.559 22.736 69.041 152.417 72.974 163.053-41.592 5.937 2.346 11.377 6.093 15.197 11.942zm-298.849-50.168a1.4 1.4 0 0 1-.55-.112 1.3 1.3 0 0 1-.467-.311 1.4 1.4 0 0 1-.422-1.019q0-.285.108-.552.11-.262.314-.468a1.436 1.436 0 0 1 2.451 1.02c0 .19-.037.377-.107.551a1.4 1.4 0 0 1-.314.468q-.202.206-.463.311-.266.112-.55.112Zm37.37 20.593c-.244 0-.479-.05-.707-.141a1.9 1.9 0 0 1-.599-.402 1.9 1.9 0 0 1-.401-.601 1.87 1.87 0 0 1 .401-2.023 1.87 1.87 0 0 1 1.306-.539q.371 0 .711.141c.224.091.426.228.6.398a1.87 1.87 0 0 1 .541 1.314 1.9 1.9 0 0 1-.144.709 1.8 1.8 0 0 1-.401.597 1.8 1.8 0 0 1-.6.402 1.8 1.8 0 0 1-.707.145Zm30.6-29.654a3.25 3.25 0 0 1 2.323.966q.464.46.711 1.069.253.602.252 1.26 0 .652-.252 1.26a3.28 3.28 0 0 1-4.291 1.783 3.4 3.4 0 0 1-1.067-.713 3.3 3.3 0 0 1-.959-2.33q0-.657.248-1.264.25-.604.711-1.065a3.27 3.27 0 0 1 2.324-.966Zm.409 45.302a4.5 4.5 0 0 1-1.728-.344 5 5 0 0 1-.781-.419 4.5 4.5 0 0 1-1.245-1.252 4.4 4.4 0 0 1-.417-.783 4.4 4.4 0 0 1-.348-1.733 4.5 4.5 0 0 1 .765-2.516 4.5 4.5 0 0 1 1.245-1.252q.372-.246.781-.418a4.54 4.54 0 0 1 2.608-.257 4.5 4.5 0 0 1 1.629.675q.371.248.686.564.315.317.563.684c.165.249.301.51.417.783q.17.416.256.85a4.56 4.56 0 0 1-.256 2.62 5 5 0 0 1-.417.783 5 5 0 0 1-.563.684q-.314.317-.686.564a4.4 4.4 0 0 1-.781.419 4.5 4.5 0 0 1-1.728.348Zm11.914-34.595c.434 0 .856.083 1.256.248q.608.253 1.067.718.463.46.715 1.069c.166.402.248.825.248 1.26q0 .659-.248 1.26a3.2 3.2 0 0 1-.715 1.07 3.2 3.2 0 0 1-1.067.717q-.6.249-1.256.249a3.27 3.27 0 0 1-2.323-.966 3.2 3.2 0 0 1-.716-1.07 3.3 3.3 0 0 1-.248-1.26 3.28 3.28 0 0 1 .964-2.329 3.2 3.2 0 0 1 1.066-.718 3.3 3.3 0 0 1 1.257-.248Zm27.16-80.991a1.1 1.1 0 0 1-.236.489c-11.943 13.836-22.187 13.227-25.663 12.493a1 1 0 0 1-.422-.199 1.02 1.02 0 0 1-.393-.821c0-.161.037-.31.112-.456l1.901-3.817c.389-.808 11.464 3.465 22.94-8.61a1.04 1.04 0 0 1 1.128-.244c.194.079.356.203.475.377q.18.26.187.576a.8.8 0 0 1-.029.212Zm50.871-17.845v1.646c-1.967 2.366-18.069 27.179 13.969 43.656h-4.932c-40.248-14.827-9.702-44.531-9.037-45.302Zm11.914 168.026q-.738-.001-1.413-.282a3.6 3.6 0 0 1-1.199-.804 3.7 3.7 0 0 1-.802-1.202 3.7 3.7 0 0 1-.281-1.422q-.002-.734.281-1.418.28-.678.802-1.202a3.6 3.6 0 0 1 1.199-.804q.675-.28 1.413-.282a3.7 3.7 0 0 1 2.613 1.086q.522.524.802 1.202a3.72 3.72 0 0 1 0 2.836q-.283.685-.802 1.202a3.7 3.7 0 0 1-1.199.804 3.7 3.7 0 0 1-1.414.286Zm6.983-45.302a4 4 0 0 1-1.575-.315 4.07 4.07 0 0 1-2.22-2.23 4 4 0 0 1-.315-1.575q0-.822.315-1.575.31-.76.888-1.339a4.1 4.1 0 0 1 1.332-.891 4 4 0 0 1 1.575-.315q.816-.002 1.57.315.756.311 1.332.891c.388.385.682.833.893 1.339a4.11 4.11 0 0 1-.893 4.489 4.1 4.1 0 0 1-1.332.891 4.1 4.1 0 0 1-1.57.315Zm10.752 76.187q-.286 0-.554-.108a1.5 1.5 0 0 1-.467-.311 1.5 1.5 0 0 1-.31-.468 1.4 1.4 0 0 1 0-1.107q.105-.262.31-.468.199-.199.467-.311.263-.112.55-.112.284 0 .55.108c.177.074.33.178.467.315q.203.2.314.468a1.48 1.48 0 0 1 0 1.103 1.5 1.5 0 0 1-.31.468 1.4 1.4 0 0 1-.467.311q-.266.112-.55.112Zm1.567-92.664c-4.163-4.174-13.072-3.299-13.142-3.291l2.464-1.65c.38-.037 8.412-.626 13.964 4.941zm30.392 35.416c-.322 0-.645-.029-.959-.091a5 5 0 0 1-.926-.282 5 5 0 0 1-.851-.456 5.1 5.1 0 0 1-1.361-1.364 5 5 0 0 1-.454-.854 5 5 0 0 1-.281-.928 5 5 0 0 1-.095-.966q.001-.483.095-.962.094-.477.281-.928.187-.45.454-.854.272-.404.612-.746c.232-.232.48-.435.749-.618q.403-.268.851-.456c.298-.124.608-.215.926-.282.314-.062.637-.091.959-.095.327.004.645.033.963.095a5 5 0 0 1 1.774.738c.273.183.521.386.748.618a4.9 4.9 0 0 1 1.067 1.6q.187.451.281.928.097.479.095.962c0 .327-.029.647-.095.966a5 5 0 0 1-.281.928 5 5 0 0 1-.455.854c-.178.27-.385.518-.612.746a4.6 4.6 0 0 1-.748.614c-.269.182-.55.336-.852.46a5 5 0 0 1-1.885.377zM93.31 269.974a69 69 0 0 1-11.786.207h-.822a20.7 20.7 0 0 0 7.433 3.83 50.8 50.8 0 0 0-11.17 7.619 4.8 4.8 0 0 1-2.377 1.214 4.83 4.83 0 0 1-2.654-.211 4.8 4.8 0 0 1-2.154-1.58 4.8 4.8 0 0 1-1.013-2.47 193 193 0 0 1-1.207-21.584c0-1.471.016-2.947.058-4.422q7.142 8.911 17.193 14.308l3.282.825c-10.33-5.658-16.122-15.855-18.243-23.598a.9.9 0 0 1 .075-.655.9.9 0 0 1 .487-.439.9.9 0 0 1 .658 0c.219.083.38.228.492.435 3.815 7.221 10.587 15.491 22.538 23.064q.508.316.736.87.23.554.095 1.14-.131.585-.58.982a1.8 1.8 0 0 1-1.04.465Zm91.285-33.02L75.009 224.962a2.5 2.5 0 0 1-1-.336 2.5 2.5 0 0 1-.773-.717 2.5 2.5 0 0 1-.418-.97 2.6 2.6 0 0 1 .021-1.057l.008-.033 97.358 10.889a4.13 4.13 0 0 0-1.025-3.204 4.1 4.1 0 0 0-1.178-.912 4 4 0 0 0-1.427-.431l-89.52-10.015a2.3 2.3 0 0 1-.529-.124 2.3 2.3 0 0 1-.487-.24 2.4 2.4 0 0 1-.745-.784 2.35 2.35 0 0 1-.293-1.575q.044-.273.149-.522l.008-.025 72.277 8.647a4 4 0 0 0 1.596-.125 4.1 4.1 0 0 0 1.43-.725q.645-.509 1.042-1.223c.269-.477.434-.982.5-1.525l-72.665-8.701a1.7 1.7 0 0 1-.393-.095 1.7 1.7 0 0 1-.657-.46 1.8 1.8 0 0 1-.232-.336 1.65 1.65 0 0 1-.186-.779c0-.137.017-.274.05-.402a1.8 1.8 0 0 1 .144-.382l.017-.016c8.888-16.622 20.913-25.795 26.213-29.24a4.4 4.4 0 0 1 2.344-.709q.627-.002 1.223.17a4.3 4.3 0 0 1 1.129.506c13.563 8.609 26.87 21.542 35.519 30.715.963 1.02 6.936 3.014 7.78 3.221 9.735 2.363 18.148 3.411 25.423 3.403l5.932 15.615c.195.526.608 2.636.951 4.489Zm-84.294-58.898c-6.334 3.121-18.599 11.175-26.015 29.148q-.234.554-.442 1.095a186.4 186.4 0 0 1 12.616-34.09 4.98 4.98 0 0 1 2.427-2.362 4.92 4.92 0 0 1 3.373-.249 51 51 0 0 1 8.016 3.055c.326.157.587.385.781.692q.293.459.294.999.005.548-.282 1.007a1.86 1.86 0 0 1-.768.705Zm32.922 88.622c-8.962-.829-26.234 1.032-26.234 1.032-21.81-7.651-30.33-21.094-33.212-27.594a2.3 2.3 0 0 1-.173-.596 2.3 2.3 0 0 1-.017-.626q.031-.313.145-.606a2.5 2.5 0 0 1 .293-.551q.184-.254.43-.452a2.42 2.42 0 0 1 1.745-.53l48.627 4.497a31 31 0 0 0-.178 3.395 32.6 32.6 0 0 0 2.212 11.83 32.7 32.7 0 0 0 2.704 5.397 32.3 32.3 0 0 0 3.658 4.804Zm44.356 2.884a30.2 30.2 0 0 1-9.165 4.406 32.2 32.2 0 0 0 5.395-4.195 32.6 32.6 0 0 0 7.615-11.275 32.5 32.5 0 0 0 1.881-6.578c1.157 6.404.297 13.803-5.726 17.642Z"/></svg>
