<svg xmlns="http://www.w3.org/2000/svg" fill="none" viewBox="0 0 415 238"><path fill="#000" d="M171.016 230.199c-13.41 4.442-27.928 6.834-43 6.834C57.334 237.033 0 184.011 0 118.517 0 53.022 57.334 0 128.016 0c15.072 0 29.528 2.392 43 6.834-49.582 16.345-85.077 60.198-85.077 111.683 0 51.484 35.495 95.337 85.077 111.682M286.984 0c-15.072 0-29.528 2.392-43 6.834 49.582 16.345 85.077 60.198 85.077 111.683 0 51.484-35.495 95.337-85.077 111.682 13.41 4.442 27.928 6.834 43 6.834 70.744 0 128.016-53.079 128.016-118.516S357.666 0 286.984 0"/></svg>