<svg xmlns="http://www.w3.org/2000/svg" fill="none" viewBox="0 0 512 512"><path fill="#000" d="M256 512c141.385 0 256-114.615 256-256S397.385 0 256 0 0 114.615 0 256s114.615 256 256 256"/><path fill="url(#paint0_linear_3534_296)" d="M401.828 149.928c28.007 38.908 39.476 87.397 31.883 134.797-7.592 47.402-33.623 89.833-72.367 117.958-38.745 28.126-87.026 39.644-134.227 32.019-47.199-7.625-89.451-33.767-117.457-72.676l76.811-55.761c13.281 18.449 33.317 30.846 55.698 34.462a85.2 85.2 0 0 0 63.65-15.184c18.373-13.337 30.717-33.456 34.316-55.934a86.12 86.12 0 0 0-15.118-63.921z"/><path fill="url(#paint1_linear_3534_296)" fill-rule="evenodd" d="M284.459 77.294a180.77 180.77 0 0 1 117.782 72.537l-77.025 55.654a85.74 85.74 0 0 0-119.676-19.243 85.68 85.68 0 0 0-34.411 55.828 85.65 85.65 0 0 0 10.193 56.093 48.4 48.4 0 0 1 6.069 6.909c15.595 21.564 10.748 51.684-10.825 67.272-21.575 15.589-51.707 10.744-67.302-10.82l-.279-.391a180.62 180.62 0 0 1-31.69-134.151 180.67 180.67 0 0 1 72.567-117.731 180.82 180.82 0 0 1 134.597-31.957" clip-rule="evenodd"/><path fill="#ADF6E9" d="M390.995 217.517c21.528-15.605 26.364-45.756 10.803-67.343s-45.629-26.437-67.157-10.832c-21.528 15.604-26.364 45.755-10.802 67.342 15.561 21.588 45.628 26.437 67.156 10.833"/><defs><linearGradient id="paint0_linear_3534_296" x1="323" x2="48.951" y1="182.5" y2="321.188" gradientUnits="userSpaceOnUse"><stop stop-color="#ADF6E9"/><stop offset=".308" stop-color="#25C3A6"/><stop offset=".911" stop-color="#193D36"/></linearGradient><linearGradient id="paint1_linear_3534_296" x1="191.197" x2="422.916" y1="335.22" y2="113.139" gradientUnits="userSpaceOnUse"><stop stop-color="#ADF5E8"/><stop offset=".382" stop-color="#25C6A9"/><stop offset="1" stop-color="#1B4D43"/></linearGradient></defs></svg>
