<svg xmlns="http://www.w3.org/2000/svg" fill="none" viewBox="0 0 512 512"><path fill="#000" fill-rule="evenodd" d="M512 256c0 141.385-114.615 256-256 256S0 397.385 0 256 114.615 0 256 0s256 114.615 256 256" clip-rule="evenodd"/><path fill="#fff" d="M124.72 171.502c0-32.414 18.241-49.765 40.169-49.765s40.169 17.351 40.169 49.765c0 32.604-18.241 49.956-40.169 49.956s-40.169-17.352-40.169-49.956m109.059 0c0-42.901-26.974-71.502-68.89-71.502S96 128.601 96 171.502s26.973 71.692 68.889 71.692 68.89-28.791 68.89-71.692M337.641 240.716 372.183 136.8v103.916h25.809V102.479H357.24l-33.183 107.729-34.153-107.729h-40.363v138.237h25.809V136.8l34.736 103.916zM227.014 413V274.763h-26.197v105.441l-56.276-105.441h-36.094V413h26.197V307.558L190.92 413zM276.15 274.763h-27.749V413h27.749zM283.073 413h28.332l9.896-28.029h54.724L385.924 413H416l-52.588-138.237h-27.944zm65.59-104.87 19.406 54.532h-38.811z"/></svg>