<svg xmlns="http://www.w3.org/2000/svg" fill="none" viewBox="0 0 512 512"><path fill="#000" d="M256 512c141.385 0 256-114.615 256-256S397.385 0 256 0 0 114.615 0 256s114.615 256 256 256"/><path fill="#fff" d="M256 441.344h13.143c29.762-2.08 57.592-11.169 81.85-25.628H256c-88.209 0-159.716-71.507-159.716-159.716S167.79 96.284 256 96.284 415.716 167.79 415.716 256c0 9.211-.778 18.231-2.27 27.001h25.943A187 187 0 0 0 441.344 256c0-102.363-82.982-185.344-185.344-185.344S70.656 153.637 70.656 256 153.638 441.344 256 441.344"/><path fill="#fff" d="M256 388.258h130.5a187 187 0 0 0 21.678-25.628H256c-58.89 0-106.63-47.739-106.63-106.63S197.11 149.37 256 149.37 362.63 197.11 362.63 256c0 9.34-1.198 18.387-3.445 27.001h26.312A132.8 132.8 0 0 0 388.258 256c0-73.044-59.214-132.258-132.258-132.258S123.742 182.956 123.742 256 182.956 388.258 256 388.258"/><path fill="#fff" d="M424.138 335.172H256c-43.725 0-79.172-35.446-79.172-79.172s35.447-79.171 79.172-79.171 79.171 35.446 79.171 79.171c0 9.474-1.668 18.57-4.727 27.001H302.25c4.638-7.922 7.294-17.138 7.294-27.001 0-29.571-23.972-53.544-53.544-53.544S202.456 226.429 202.456 256c0 29.572 23.972 53.544 53.544 53.544h177.97a184.4 184.4 0 0 1-9.832 25.628"/></svg>