<svg xmlns="http://www.w3.org/2000/svg" fill="none" viewBox="0 0 512 512"><path fill="#000" d="M256 512c141.385 0 256-114.615 256-256S397.385 0 256 0 0 114.615 0 256s114.615 256 256 256"/><path fill="#3EB2FF" fill-rule="evenodd" d="M363.712 148.288H169.305V101h194.407C389.829 101 411 122.172 411 148.288zm0 21.017V411C389.829 411 411 389.829 411 363.712V169.305zM148.288 363.712h194.407V411H148.288C122.172 411 101 389.829 101 363.712zm0-262.712v241.695H101V148.288C101 122.172 122.172 101 148.288 101m99.998 94.574a5.425 5.425 0 0 0-5.425 5.425v36.61h-36.609a5.425 5.425 0 0 0-5.425 5.425v20.675a5.426 5.426 0 0 0 5.425 5.425h36.609v36.609a5.425 5.425 0 0 0 5.425 5.425h20.675a5.425 5.425 0 0 0 5.425-5.425v-36.609h36.609a5.426 5.426 0 0 0 5.425-5.425v-20.675a5.425 5.425 0 0 0-5.425-5.425h-36.609v-36.61a5.425 5.425 0 0 0-5.425-5.425z" clip-rule="evenodd"/></svg>