<svg xmlns="http://www.w3.org/2000/svg" fill="none" viewBox="0 0 512 512"><path fill="#F5AC37" d="M158.208 338.944a.512.512 0 1 1 0 1.023.512.512 0 0 1 0-1.023"/><path fill="#FEFEFD" d="M158.421 339.492q.007.001.007-.005v-.06q0-.005-.006-.005h-.387q-.007 0-.007.006v.057q-.002.009.008.007zm-.015-.137v-.004l-.011-.02-.024-.03q-.006-.008-.015-.015a.23.23 0 0 0-.15-.054h-.172q-.007 0-.006.006v.114q-.002.007.007.006h.369l.004-.003zm0 .204h-.371q-.007-.001-.007.006v.111q-.002.007.007.007h.164q.012 0 .023-.002a.3.3 0 0 0 .07-.015l.023-.011h.002a.2.2 0 0 0 .089-.09s.003-.005 0-.006m-.442.181v-.177q.001-.005-.005-.005h-.069q-.006.001-.006-.005v-.06h.074q.007.002.006-.006v-.06q.001-.005-.005-.005h-.069q-.006.001-.006-.005v-.056q-.001-.005.005-.005h.069q.007.001.006-.006v-.172q-.002-.007.007-.007h.24l.051.006q.054.01.101.037a.3.3 0 0 1 .09.086q.016.024.025.049.002.008.01.007h.057c.007 0 .007 0 .008.007v.052q0 .008-.007.007h-.045q-.005-.001-.005.006a.3.3 0 0 1 0 .058q-.001.007.006.006h.051q.002.004 0 .009v.05q0 .007-.007.007h-.06a.01.01 0 0 0-.01.006.25.25 0 0 1-.101.125l-.038.021a.35.35 0 0 1-.151.031z"/><path fill="#000" d="M256 512c141.868 0 256-114.132 256-256S397.868 0 256 0 0 114.132 0 256s114.132 256 256 256"/><path fill="#0293D6" d="M156.672 399.479a130 130 0 0 0 40.641 31.052 130 130 0 0 0 49.471 12.98 81.92 81.92 0 0 0 54.272-24.576 944 944 0 0 1 89.088-67.584l17.408-7.168c7.168-3.072 19.456-10.24 30.72-23.552 12.288-16.384 14.336-33.792 14.336-39.936a112.65 112.65 0 0 0-18.432-54.272 339.96 339.96 0 0 1-277.504 173.056"/><path fill="#EBE638" d="M195.584 108.663a81.92 81.92 0 0 1 59.392-25.6 53.25 53.25 0 0 1 38.912 13.312 178.2 178.2 0 0 0 100.352 32.768c9.216 1.024 27.648 4.096 39.936 19.456 9.216 12.288 10.24 25.6 10.24 31.744a142.4 142.4 0 0 1-10.24 46.08z"/><path fill="#BAD147" d="M156.672 399.479c-9.216-1.024-21.504-4.096-35.84-10.24s-31.744-13.312-43.008-32.768c-7.168-12.288-8.192-24.576-8.192-32.768.25-21.725 5.506-43.1 15.36-62.464a288.8 288.8 0 0 0 19.456-74.752l5.12-20.48c3.072-10.24 5.12-20.48 12.288-30.72l11.264-12.288a97.28 97.28 0 0 1 62.464-14.336 319.49 319.49 0 0 0-38.912 290.816"/><path fill="#78B650" d="M195.584 108.663c-1.024 0 55.296 3.072 90.112 15.36l28.672 12.288c-11.264-1.024-82.944-4.096-137.216 50.176-68.608 69.632-46.08 164.864-45.056 169.984a104.45 104.45 0 0 1-22.528-70.656 245.75 245.75 0 0 1 86.016-177.152"/><path fill="#2F8260" d="M332.8 361.591a204.8 204.8 0 0 0-18.432-225.28 140.3 140.3 0 0 1 77.824 40.96c12.288 10.24 27.648 25.6 41.984 49.152A302.1 302.1 0 0 1 332.8 361.591"/><path fill="#085229" d="M365.568 181.367c-16.384-27.648-39.936-39.936-50.176-45.056-8.192-2.048-84.992-14.336-143.36 41.984-47.104 45.056-50.176 103.424-50.176 114.688a175.1 175.1 0 0 0 36.864 106.496 243.7 243.7 0 0 0 92.16 0c15.36-3.072 51.2-9.216 81.92-35.84 4.096-4.096 49.152-46.08 52.224-112.64 0-11.264 0-39.936-19.456-69.632m-36.864 148.48a101.37 101.37 0 0 1-74.752 32.768c-6.144 0-47.104-1.024-75.776-34.816-4.096-5.12-24.576-29.696-23.552-66.56 2.048-49.152 40.96-77.824 49.152-83.968 7.168-5.12 24.576-16.384 50.176-17.408 6.144-1.024 27.648-2.048 49.152 10.24 47.104 25.6 49.152 87.04 49.152 91.136 0 11.264 0 41.984-23.552 68.608"/></svg>