<svg xmlns="http://www.w3.org/2000/svg" fill="none" viewBox="0 0 512 512"><path fill="#000" d="M256 512c141.385 0 256-114.615 256-256S397.385 0 256 0 0 114.615 0 256s114.615 256 256 256Z"/><path fill="#DEDEDE" d="M406.528 252.611c0 37.164-13.898 73.241-38.871 100.843-24.973 27.601-59.284 44.988-96.417 48.682 1.737-21.298-4.778-42.597-18.459-59.115a83.587 83.587 0 0 0-54.289-29.774V114.169c22.802-9.563 47.558-13.475 72.313-11.084a150.84 150.84 0 0 1 68.839 24.341 150.467 150.467 0 0 1 49.116 54.204 150.604 150.604 0 0 1 17.768 70.981Z"/><path fill="#1E4480" d="M107.069 404.744c-1.52-12.605 0-25.21 4.344-37.164 4.343-11.953 11.075-22.603 20.195-31.513a149.357 149.357 0 0 0 54.031 49.109 149.214 149.214 0 0 0 70.834 17.612c4.995 0 9.772-.217 14.767-.652-1.738 20.43-10.858 39.555-25.842 53.682a82.524 82.524 0 0 1-55.158 22.385c-20.412.218-40.391-6.954-55.809-20.647-15.201-13.692-24.973-32.382-27.362-52.812Z"/><path fill="#152E51" d="M198.492 114.386v198.861c21.282 2.39 40.826 13.04 54.289 29.774 13.681 16.518 20.196 37.817 18.459 59.115-4.778.435-9.772.652-14.767.652a151.144 151.144 0 0 1-70.793-17.604c-21.716-11.736-40.391-28.47-54.072-49.117 13.03-12.606 29.968-20.647 47.992-22.603V123.731c5.863-3.477 12.16-6.737 18.892-9.345Z"/><path fill="#DEDEDE" d="M106.635 252.61a150.005 150.005 0 0 1 19.558-74.127 149.842 149.842 0 0 1 53.624-54.752v189.516c-18.024 1.956-34.962 9.997-48.209 22.82a148.226 148.226 0 0 1-24.973-83.457Z"/></svg>