<svg xmlns="http://www.w3.org/2000/svg" fill="none" viewBox="0 0 512 512"><path fill="#000" d="M256 512c141.385 0 256-114.615 256-256S397.385 0 256 0 0 114.615 0 256s114.615 256 256 256"/><path fill="#FBE74E" d="M207.686 349.641q-29.034-7.727-51.027-27.471c-57.604-51.707-67.504-159.507-4.637-212.013 17.895-14.942 42.822-24.464 66.241-25.572q4.45-.213 7.261 1.068c8.116 3.7 9.24 15.928 2.192 21.341-3.317 2.543-8.654 3.505-11.457 4.728-43.686 19.157-43.449 88.92-39.09 127.478 3.357 29.592 13.706 59.142 39.758 75.967 7.423 4.794 14.203-3.342 14.203-10.189q.033-71.101.008-142.201 0-10.54.742-16.271c4.066-31.491 22.947-60.12 57.375-62.305 37.566-2.388 71.44 16.622 91.168 48.276 27.274 43.775 28.496 104.017 4.775 149.455q-25.782 49.408-80.077 66.772c-5.248 1.679-17.023 2.853-22.629 6.497-6.202 4.019-7.546 9.513-7.546 17.103q.007 34.124.138 68.247.057 15.22-12.785 21.398c-11.783 5.674-26.1-.978-29.971-13.157q-1.19-3.766-1.19-12.13.009-31.89.025-63.788 0-6.848-1.166-10.043c-3.707-10.116-13.201-10.768-22.311-13.19m68.303-42.022c.008 7.768 6.079 14.013 14.105 11.184 21.081-7.434 37.191-24.553 45.307-45.177 14.073-35.746 10.789-77.092-4.221-111.746-6.706-15.48-18.864-32.672-37.72-33.267-16.892-.538-17.471 17.926-17.479 29.664q-.05 74.68.008 149.342"/></svg>
