<svg xmlns="http://www.w3.org/2000/svg" fill="none" viewBox="0 0 353 381"><path fill="#000" d="M236.175 257.693c-4.665 5.199-10.675 9.807-16.547 13.281-.585.37-1.228.777-1.767.236-.4-.519 0-2.079 0-2.079s2.337-9.409 2.862-14.199c-4.221 3.454-8.444 6.829-14.092 9.347 1.728-3.64 3.11-7.279 3.974-11.265 3.628-16.117.173-30.673-9.157-43.844-2.419-3.293-5.528-5.719-8.293-8.665 7.775 8.318 12.267 18.023 12.44 29.461.172 7.798-1.901 15.25-5.875 22.182-7.083 12.304-17.276 21.489-29.543 28.247-12.439 6.932-26.261 11.265-40.428 12.824-25.397 2.773-49.066-2.773-70.662-16.29-17.968-11.264-31.962-26.688-43.192-44.537-5.183-8.492-14.513-25.648-15.722-31.54 0 1.06-.054 1.906-.101 2.657-.038.599-.072 1.137-.072 1.675.346 16.29 2.937 32.233 7.602 47.657 9.675 31.713 34.381 67.345 60.688 87.526q.57.393 1.141.779c9.978 6.366 20.638 11.358 31.811 14.807 5.875 1.906 11.061 2.937 18.314 3.812 1.28.155 2.574.282 3.282.347q1.976.18 3.95.28c13.824.181 27.59-2.255 40.625-7.039 13.648-5.025 26.433-12.13 37.836-21.315 11.057-9.012 20.732-19.41 27.125-32.407 3.455-6.932 5.528-14.557 6.219-22.182.682-6.84-.486-13.344-2.344-19.842z"/><path fill="#000" fill-rule="evenodd" d="M191.255 169.485c.691.173 1.382.52 1.727 0 .264-.396-.691-1.733-.691-1.733s-7.256-10.051-11.748-14.037c-5.528-4.159-11.23-8.145-17.795-11.091v-.693h6.911c32.135-.52 62.024 7.278 87.939 27.034 26.952 20.449 43.71 47.31 49.93 80.583 5.356 28.421 1.209 55.282-14.513 79.717-2.967 4.796-6.092 9.275-10.274 12.988a6 6 0 0 0-.421.557q-.016.156-.016.319l-.082-.165q-.147.24-.264.511a19 19 0 0 1-1.917 2.417c-2.265 2.458-5.077 4.476-7.585 6.595-9.647 7.833-20.173 13.706-31.345 18.036a179.5 179.5 0 0 0 43.093-23.016c32.783-23.749 67.185-51.888 67.898-98.652.02-1.286 0-3.293 0-3.293-.864-17.676-5.183-34.832-12.785-50.776-5.01-10.398-11.23-20.102-18.659-28.767-6.738-7.972-14.339-14.73-22.46-21.142-4.146-2.6-8.12-5.546-12.439-7.972-13.649-7.972-28.679-13.344-44.401-15.943-.346-.174-.691-.174-1.037-.347 4.665-.867 20.732 1.56 31.789 4.679 10.367 2.773 20.214 6.759 29.889 11.784-1.036-2.946-3.56-7.025-3.56-7.025s-1.465-2.565-2.141-3.719c2.873 1.154 4.72 2.425 7.598 3.964 13.41 6.898 26.315 15.536 38.015 25.011.47.388.499.67-.002 1.005a37 37 0 0 1 3.974 2.426l-1.628-2.054c-7.209-9.389-15.927-17.265-25.152-24.633-11.057-9.012-22.978-16.637-35.763-22.702-17.795-8.839-36.627-14.557-56.322-16.983-1.728-.174-3.628 0-5.183-.694a2 2 0 0 1-.019-.248c-2.685 1.392-5.052 3.581-7.583 5.274-9.502 6.239-19.696 11.611-30.407 15.77-.173 0-.519.173-.864.173-.518-.693 0-.866.345-1.213 6.047-5.719 9.848-12.824 12.267-20.796.173-1.04 1.037-1.906 1.9-2.252 18.832-7.452 33.69-19.756 45.957-35.7a191 191 0 0 1 3.628-4.679c-3.801 0-9.675 2.6-9.675 2.6l-2.661 1.052c0-.367.5-1.126.5-1.126C258.824 22.042 262.954 0 262.954 0c-21.589 41.03-46.475 58.748-63.579 70.185-2.592-13.69-3.456-11.784-7.947-21.488 0 1.04-11.058 16.463-24.879 25.128-13.994 8.838-50.449 14.557-49.93 35.179 0 9.358 5.183 13.171 14.34 15.597-11.576 3.639-14.686-4.159-15.895-2.6-4.838 5.373-23.151 22.182-33.344 17.85-7.257-1.386-4.32-11.784-3.283-16.463v-.174c-3.455.977-5.986 3.078-8.496 5.007-21.725 16.703-25.194 40.051-19.493 66.392.519 2.426 1.21 1.906 2.592.866 2.419-1.906 4.665-4.159 7.256-5.718q.1.024.196.059c.987-1.406 2.255-2.649 3.67-3.464l-.065-.061c11.057-7.799 22.978-14.384 36.109-18.197 17.968-5.372 36.281-6.585 54.767-5.198 9.503.693 20.873 3.136 30.202 5.216 2.004.456 4.108.913 6.08 1.369m-13.29-84.126c-4.761 19.782-16.599 29.191-33.185 30.75l-.246.026c-3.192.338-6.229.659-9.429.321-1.209-3.466.173-6.412 2.073-9.012 2.419-3.119 5.702-5.025 9.157-6.585 5.282-2.393 10.732-4.448 16.184-6.333.038-.013.12-.026.201-.04l.201-.039.787-.394c4.705-2.355 10.444-5.227 14.257-8.694M72.908 155.1c2.937-.52 4.32.52 5.01 3.293-.107-.538.096-.974.321-1.456.138-.295.283-.607.37-.97.122-.503.25-.986.373-1.454.558-2.12 1.033-3.923.492-5.825-.519-1.906-2.42-3.119-4.492-2.773-1.21.174-2.592.694-3.629 1.387-4.319 2.946-6.723 6.769-8.338 12.366l-.137.465c-.237.803-.385 1.302-.509 2.419 0 0 1.586-1.898 2.765-2.946 2.622-2.332 4.837-3.813 7.774-4.506" clip-rule="evenodd"/><path fill="#000" d="M225 81.5c-1.617 3.233-3.184 9.926-3.184 9.926S239.213 77.585 247.059 66c14.867-21.95 15.895-66 15.895-66S258.521 34.063 248 52.682C240.916 65.218 228.5 74.5 225 81.5"/><path fill="#000" fill-rule="evenodd" d="m163.708 94.053-.787.394c-2.073 7.798-6.911 13.171-13.822 16.983-3.831 2.152-8.069 3.35-12.354 4.56l-.004.001q-.817.23-1.636.465c3.2.338 6.237.017 9.429-.321l.246-.026c16.586-1.559 28.424-10.968 33.185-30.75-3.813 3.467-9.552 6.339-14.257 8.694m-1.189.473.201-.04c-.081.014-.163.027-.201.04" clip-rule="evenodd"/><path fill="#000" d="M105.216 211.596c-1.209-1.386-3.366-3.467-4.492-6.065-1.728-3.986-2.073-8.492.864-11.611 3.576-3.758 9.165-5.159 13.956-6.359l.211-.053c10.193-2.6 20.559-3.12 30.925-2.426 8.466.519 16.586 2.772 24.879 5.199 6.368 1.801 12.203 3.586 19.177 7.625 12.529 7.255 20.387 14.557 26.089 26.341 2.764 5.719 4.491 12.131 5.01 18.543.345 3.639.345 7.451-.173 11.091-.71 5.559-2.124 11.601-3.801 16.983 3.628-2.08 7.256-4.506 10.712-7.105 2.591-2.08 6.933-5.395 10.193-9.878 3.684-5.067 5.701-9.012 6.738-14.557.173-.694.346-1.387.691-2.08 2.073 4.159 3.801 8.492 4.838 12.997 1.555 6.412 2.591 12.824 2.073 19.41-.864 11.264-4.319 22.355-9.848 32.233-5.701 10.051-12.958 18.543-21.25 26.168-7.429 6.585-15.55 12.304-24.188 16.983-10.539 5.719-21.769 10.051-33.344 12.824-7.257 1.733-14.686 2.773-22.115 3.293-3.628.173-7.256.52-10.711.346-2.592-.173-8.811-.436-14.366-1.386-5.121-.875-10.673-2.005-17.284-4.112-12.646-4.03-19.888-7.655-30.568-14.854 5.01 4.679 5.207 5.515 8.832 8.741 24.416 21.725 50.103 26.168 78.264 29.634 17.968 2.253 35.936 1.906 53.731-.866a169 169 0 0 0 13.099-2.611 177 177 0 0 0 17.753-5.521c11.172-4.33 21.698-10.203 31.345-18.036 2.508-2.119 5.32-4.137 7.585-6.595.7-.758 1.347-1.558 1.917-2.417q.117-.27.264-.511l-.091-.182.218-.186c.246-1.426 1.448-2.388 2.374-3.626 8.465-11.958 13.475-25.302 16.24-39.859 1.727-9.011 1.727-18.023 1.209-26.861-.864-13.69-4.492-27.034-10.02-39.685-3.974-9.358-9.157-18.196-15.204-26.341-5.615-7.459-12.163-14.517-19.293-20.703a130.793 130.793 0 0 0-2.994-2.519l-.489-.402a153 153 0 0 0-2.103-1.678c-19.004-14.903-40.773-23.395-64.615-26.514-.816-.058-1.631-.235-2.447-.39-.83-.101-2.007-.263-2.007-.263l-2.457-.04c4.492 3.986 11.748 14.037 11.748 14.037s.955 1.337.691 1.733c-.345.52-1.036.173-1.727 0-1.972-.456-4.076-.913-6.08-1.369 3.596 4.023 6.716 8.516 9.362 13.326.173.52.864 1.04.346 1.56-.518.347-1.037-.173-1.555-.347-12.439-4.679-25.397-8.145-38.527-10.571-6.566-1.213-13.304-1.733-20.042-2.079-6.046-.347-12.093-.347-18.14.173-13.822 1.04-27.125 3.986-39.91 9.705-3.973 1.733-7.947 3.812-11.575 6.238-.331.166-.503.65-.972.235-1.416.815-2.683 2.058-3.67 3.464q-.1.143-.196.287c2.419 3.986 4.838 6.066 8.466 9.012 7.602 6.065 16.24 9.184 25.57 11.091 3.455.693 6.91 1.386 10.884 1.386"/></svg>