<svg xmlns="http://www.w3.org/2000/svg" fill="none" viewBox="0 0 512 512"><path fill="url(#paint0_linear_3540_120)" d="M119.234 389.166a6.6 6.6 0 0 0-2.221 1.493l-43.64 44.738a257 257 0 0 0 12.12 11.56 6849 6849 0 0 1 37.646-38.506c.945-.965 1.834-1.826 2.648-2.615 5.372-5.202 7.479-7.243.797-14.925a6.4 6.4 0 0 0-2.121-1.608 6.5 6.5 0 0 0-5.229-.137"/><path fill="#000" fill-rule="evenodd" d="M256 512c141.385 0 256-114.615 256-256S397.385 0 256 0 0 114.615 0 256c0 58.514 19.631 112.442 52.667 155.559l20.468-21.037q1.326-1.388 3.215-1.078 3.441.525 5.973 3.41 2.404 2.524 3.552 5.661.72 1.91-.715 3.341L63.313 424.55a257 257 0 0 0 10.061 10.847l43.64-44.738a6.56 6.56 0 0 1 4.854-1.972c.9.024 1.784.234 2.596.616a6.4 6.4 0 0 1 2.121 1.608c6.682 7.682 4.575 9.723-.797 14.925-.814.789-1.703 1.65-2.648 2.615a6849 6849 0 0 0-37.646 38.506 258 258 0 0 0 12.302 10.32l24.95-25.427q1.599-1.61 3.35-.167l7.387 6.113a4.956 4.956 0 0 1 1.775 3.527 4.94 4.94 0 0 1-1.377 3.701l-21.933 22.63C152.985 495.639 202.582 512 256 512m152-391.5q-8.786-6.89-20.475-5.149c-53.33 3.988-101.649 26.215-144.306 60.117a401.8 401.8 0 0 0-62.586 60.226 5.48 5.48 0 0 1-3.05 1.886l-36.775 8.448-14.703 3.771a6.06 6.06 0 0 0-2.904 1.668Q101.056 274.129 80 301.359l57.032 17.876c.264.071.5.196.69.362q2.287 2.103.073 4.388.58 13.596 6.716 25.562.908 1.814-.436 3.336l-17.498 19.725q-1.307 1.45.145 2.792l19.386 17.622 20.221-19.87q1.38-1.343 3.195-.87 15.828 4.097 32.273 2.103 1.852-.254 2.868 1.305.8 1.197.291 2.683l9.983 30.82L224.16 432l47.449-41.081a5.7 5.7 0 0 0 1.815-3.119l11.544-52.502q.436-1.923 1.997-3.191C349.588 281.562 407.564 203.315 408 120.5" clip-rule="evenodd"/><path fill="#FFD493" fill-rule="evenodd" d="m111.947 467.654 21.933-22.63a4.96 4.96 0 0 0 1.377-3.701 4.96 4.96 0 0 0-1.775-3.527l-7.387-6.113q-1.752-1.443-3.35.167l-24.95 25.427a257 257 0 0 0 14.152 10.377M63.312 424.55l21.849-22.694q1.434-1.43.714-3.341-1.149-3.137-3.552-5.661-2.531-2.885-5.973-3.41-1.89-.31-3.215 1.078l-20.468 21.037a257 257 0 0 0 10.645 12.991" clip-rule="evenodd"/><path fill="#000" d="M307 243.5c0 17.949-14.551 32.5-32.5 32.5S242 261.449 242 243.5s14.551-32.5 32.5-32.5 32.5 14.551 32.5 32.5"/><path fill="url(#paint1_linear_3540_120)" fill-rule="evenodd" d="M387.525 115.351q11.69-1.74 20.475 5.149c-.436 82.815-58.412 161.062-121.035 211.607q-1.561 1.269-1.997 3.191L273.424 387.8a5.7 5.7 0 0 1-1.815 3.119L224.16 432l-9.221-22.807-9.983-30.82q.508-1.486-.291-2.683-1.016-1.56-2.868-1.305-16.445 1.994-32.273-2.103-1.815-.473-3.195.87l-20.221 19.87-19.386-17.622q-1.452-1.342-.145-2.792l17.498-19.725q1.344-1.522.436-3.336-6.135-11.966-6.716-25.562 2.214-2.285-.073-4.388a1.7 1.7 0 0 0-.69-.362L80 301.359q21.056-27.23 43.201-49.892a6.06 6.06 0 0 1 2.904-1.668l14.703-3.771 36.775-8.448a5.48 5.48 0 0 0 3.05-1.886 401.8 401.8 0 0 1 62.586-60.226c42.657-33.902 90.976-56.129 144.306-60.117M274.5 276c17.949 0 32.5-14.551 32.5-32.5S292.449 211 274.5 211 242 225.551 242 243.5s14.551 32.5 32.5 32.5" clip-rule="evenodd"/><defs><linearGradient id="paint0_linear_3540_120" x1="413.5" x2="83.5" y1="108.5" y2="431" gradientUnits="userSpaceOnUse"><stop stop-color="#FF5823"/><stop offset="1" stop-color="#FFD493"/></linearGradient><linearGradient id="paint1_linear_3540_120" x1="413.5" x2="83.5" y1="108.5" y2="431" gradientUnits="userSpaceOnUse"><stop stop-color="#FF5823"/><stop offset="1" stop-color="#FFD493"/></linearGradient></defs></svg>