<svg xmlns="http://www.w3.org/2000/svg" fill="none" viewBox="0 0 512 512"><path fill="#000" d="M256 512c141.385 0 256-114.615 256-256S397.385 0 256 0 0 114.615 0 256s114.615 256 256 256"/><path fill="#9975F3" d="M252.917 62h6.534c90.275 1.968 169.622 62.878 190.104 152.246.501 2.188-.391 3.358-2.702 3.369q-17.643.091-35.295.015c-1.365-.003-1.976-.121-2.375-1.565-14.832-53.628-57.753-95.533-111.572-109.79-68.689-18.196-141.059 10.303-178.16 71.057-.33.54-.273 1.387.467 1.387h134.938c20.501 0 38.96 6.633 54.305 20.054 16.429 14.371 26.162 35.682 26.158 57.537q-.004 19.192 0 38.376 0 .135.052.26a.66.66 0 0 0 .374.36.7.7 0 0 0 .261.041c.956-.038 1.988.091 2.879.091h110.753q.232 0 .296.22.138.446-.011 1.113C429.938 386.937 350.701 449.306 259.026 451h-6.34c-41.237-.957-80.835-13.725-114.134-37.84-38.539-27.91-65.612-68.402-76.138-114.679-.474-2.089.687-3.047 2.672-3.043 10.247 0 26.093.057 36.338.057.517 0 1.241.707 1.381 1.219 13.573 49.317 50.609 88.361 98.122 105.737 71.318 26.079 152.29-1.687 191.774-67.004a.769.769 0 0 0-.657-1.166H255.448c-43.032 0-78.566-34.752-78.627-77.994q-.023-18.793-.003-37.585c0-1.406-1.818-1.14-2.797-1.14H63.018c-.793 0-1.154-.293-.972-1.121C81.834 126.01 161.428 63.831 252.917 62m-36.19 199.583c2.602 19.229 18.709 32.939 37.871 33.68 12.316.471 24.747.148 37.074.065.987-.008 4 .463 4-1.22q-.012-17.47.003-34.953.004-4.923-.36-7.578c-2.383-17.498-16.099-31.177-33.622-33.559q-2.515-.342-7.569-.376a3621 3621 0 0 0-34.722-.061c-.96.004-3.032-.091-3.032 1.406q-.012 17.512.004 35.017.003 4.988.353 7.579"/></svg>