<svg xmlns="http://www.w3.org/2000/svg" fill="none" viewBox="0 0 512 512"><path fill="#000" fill-rule="evenodd" d="M512 256c0 141.392-114.608 256-256 256S0 397.392 0 256 114.608 0 256 0s256 114.608 256 256m-160.432-63.024-85.392.016a20.5 20.5 0 0 0-3.933-10.583 20.49 20.49 0 0 0-20.18-7.994 20.48 20.48 0 0 0-16.031 14.633 20.477 20.477 0 0 0 16.304 25.704v79.056c-60.32 0-109.216-45.136-109.216-100.832 0-55.68 48.896-100.816 109.232-100.816 60.32 0 109.216 45.136 109.216 100.816M160.432 319.024c0 55.68 48.896 100.816 109.216 100.816S378.88 374.704 378.88 319.008c0-55.68-48.896-100.816-109.232-100.816v79.04a20.48 20.48 0 0 1 16.305 25.699 20.5 20.5 0 0 1-5.914 9.615 20.49 20.49 0 0 1-21.344 3.923 20.48 20.48 0 0 1-12.887-17.461z" clip-rule="evenodd"/><path fill="#fff" d="M160.432 319.024c0 55.68 48.896 100.816 109.216 100.816S378.88 374.704 378.88 319.008c0-55.68-48.896-100.816-109.232-100.816v79.04a20.48 20.48 0 0 1 16.305 25.699 20.5 20.5 0 0 1-5.914 9.615 20.49 20.49 0 0 1-21.344 3.923 20.48 20.48 0 0 1-12.887-17.461z"/><path fill="#fff" d="m351.568 192.976-85.392.016a20.5 20.5 0 0 0-3.933-10.583 20.49 20.49 0 0 0-20.18-7.994 20.48 20.48 0 0 0-16.031 14.633 20.477 20.477 0 0 0 16.304 25.704v79.056c-60.32 0-109.216-45.136-109.216-100.832 0-55.68 48.896-100.816 109.232-100.816 60.32 0 109.216 45.136 109.216 100.816"/></svg>
