<svg xmlns="http://www.w3.org/2000/svg" fill="none" viewBox="0 0 246 328"><path fill="#000" d="M27.312 226.864c0 55.68 48.896 100.816 109.216 100.816S245.76 282.544 245.76 226.848c0-55.68-48.896-100.816-109.232-100.816v79.04a20.48 20.48 0 0 1 16.305 25.699 20.5 20.5 0 0 1-5.914 9.615 20.49 20.49 0 0 1-21.344 3.923 20.48 20.48 0 0 1-12.887-17.461z"/><path fill="#000" d="m218.448 100.816-85.392.016a20.482 20.482 0 0 0-40.144-3.944 20.48 20.48 0 0 0 16.304 25.704v79.056C48.896 201.648 0 156.512 0 100.816 0 45.136 48.896 0 109.232 0c60.32 0 109.216 45.136 109.216 100.816"/></svg>