<svg xmlns="http://www.w3.org/2000/svg" fill="none" viewBox="0 0 512 512"><path fill="#000" fill-rule="evenodd" d="M512 256c0 141.385-114.615 256-256 256S0 397.385 0 256 114.615 0 256 0s256 114.615 256 256" clip-rule="evenodd"/><path fill="#fff" d="M331.751 249.723c6.064-49.834 65.974-72.024 102.61-36.596q.375.358.75-.008l26.556-26.576a.8.8 0 0 0 .234-.585.8.8 0 0 0-.251-.573q-28.206-26.71-66.066-28.277c-55.528-2.309-102.16 42.465-103.001 97.725-.8 52.651 39.709 97.274 92.322 100.925 28.514 1.976 56.653-8.244 76.953-28.534q.284-.284 0-.575l-26.756-26.776q-.358-.359-.725-.008c-23.174 22.407-59.476 23.207-83.3 1.35-14.028-12.879-21.659-32.286-19.326-51.492"/><path fill="#fff" fill-rule="evenodd" d="M226.287 218.423a99.56 99.56 0 0 1-21.553 108.434 99.4 99.4 0 0 1-32.257 21.569 99.37 99.37 0 0 1-108.355-21.569A99.54 99.54 0 0 1 35 256.5a99.54 99.54 0 0 1 29.122-70.357 99.37 99.37 0 0 1 108.355-21.569 99.4 99.4 0 0 1 32.257 21.569 99.5 99.5 0 0 1 21.553 32.28m-91.859 98.739c33.478 0 60.618-27.159 60.618-60.662s-27.14-60.662-60.618-60.662S73.81 222.997 73.81 256.5s27.139 60.662 60.618 60.662" clip-rule="evenodd"/></svg>