<svg xmlns="http://www.w3.org/2000/svg" fill="none" viewBox="0 0 512 512"><path fill="#000" d="M256 512c59.173 0 113.656-20.076 157.011-53.788a257.476 257.476 0 0 0 46.135-46.409C492.294 368.646 512 314.624 512 256 512 114.615 397.385 0 256 0S0 114.615 0 256c0 58.778 19.809 112.929 53.115 156.142a257.434 257.434 0 0 0 44.828 45.252C141.466 491.599 196.35 512 256 512Z"/><path fill="#FD684E" d="m258.028 113.041-2.836-.04c-7.592-.106-13.832 5.965-13.938 13.561l-.258 18.52c-.106 7.595 5.962 13.838 13.554 13.944l2.835.04c7.592.106 13.832-5.965 13.938-13.561l.258-18.52c.106-7.595-5.962-13.838-13.553-13.944Zm-114.46 29.985-1.484.895c-6.613 3.991-8.74 12.59-4.751 19.206l8.993 14.915c3.989 6.616 12.584 8.744 19.196 4.753l1.485-.896c6.612-3.991 8.739-12.59 4.75-19.206l-8.993-14.914c-3.989-6.616-12.583-8.744-19.196-4.753Zm199.953 11.642c-6.901 11.007-6.475 23.708.951 28.369 7.427 4.661 19.042-.483 25.944-11.49 6.901-11.007 6.475-23.709-.951-28.37-7.427-4.661-19.042.484-25.944 11.491ZM264.6 190.457c48.685 2.679 107.219 35.901 126.126 83.782 1.129 2.864.157 4.296-2.915 4.296-70.56.184-139.702.21-207.426.079-9.611 0-28.046-18.956-39.823-32.394a2.267 2.267 0 0 1-.561-1.488c0-.545.2-1.067.561-1.468 32.221-35.389 75.983-55.487 124.038-52.807Zm174.225 60.006c11.245-6.007 17.097-16.994 13.07-24.539-4.027-7.545-16.408-8.792-27.653-2.785-11.245 6.007-17.097 16.994-13.07 24.539 4.027 7.546 16.407 8.792 27.653 2.785Zm-366.203-.215c11.163 6.114 23.507 5.051 27.571-2.376 4.063-7.426-1.691-18.403-12.854-24.517-11.163-6.115-23.507-5.051-27.57 2.375-4.064 7.426 1.69 18.403 12.853 24.518Z"/><path fill="#FD684E" d="M166.362 301.352h233.62a3.508 3.508 0 0 1 3.506 3.192l2.403 27.113c.131 1.472-.539 2.207-2.009 2.207H107.396c-1.523 0-2.232-.762-2.127-2.285 1.26-20.861 6.171-40.841 14.731-59.941a6.59 6.59 0 0 1 4.745-3.768 6.668 6.668 0 0 1 5.851 1.68l31.945 30.305c1.077.998 2.351 1.497 3.821 1.497Zm-101.697 22.96-20.794-.436c-6.938-.145-12.68 5.364-12.825 12.305l-.043 2.049c-.145 6.942 5.361 12.687 12.3 12.832l20.792.436c6.939.145 12.68-5.364 12.826-12.306l.043-2.048c.145-6.942-5.361-12.687-12.3-12.832Zm405.241-.281-22.766.12c-6.44.033-11.632 5.283-11.599 11.726l.02 3.783c.034 6.442 5.281 11.637 11.72 11.603l22.767-.119c6.44-.033 11.632-5.283 11.598-11.726l-.019-3.783c-.034-6.442-5.281-11.637-11.721-11.604Zm-363.259 32.375 296.998.079a2.087 2.087 0 0 1 2.088 2.049c.394 24.223-5.777 46.515-18.513 66.876-.893 1.419-1.851 1.472-2.876.158-10.635-13.478-23.082-24.919-37.341-34.325a7.285 7.285 0 0 0-4.097-1.222H112.319c-1.549 0-2.468-.775-2.757-2.325l-5.199-28.531c-.342-1.839.42-2.759 2.284-2.759Z"/><path fill="#FD684E" fill-rule="evenodd" d="m413.011 458.212-315.068-.818C141.466 491.599 196.35 512 256 512c59.173 0 113.656-20.076 157.011-53.788Zm2.113-24.837c5.283.277 14.719.772 24.869.621a257.476 257.476 0 0 0 19.153-22.193l-37.46-.186a3.1 3.1 0 0 0-1.68.495c-.497.322-.885.78-1.117 1.318l-8.114 18.167c-.447 1.025-.118 1.564.985 1.616.753.025 1.898.085 3.364.162Zm-60.322-2.999-15.953-15.921a5.292 5.292 0 0 0-3.742-1.537l-281.992-.776a257.434 257.434 0 0 0 17.826 20.746c94.083.398 188.283.572 282.601.522a1.768 1.768 0 0 0 1.651-1.093 1.775 1.775 0 0 0-.391-1.941Z" clip-rule="evenodd"/></svg>