<svg xmlns="http://www.w3.org/2000/svg" fill="none" viewBox="0 0 400 324"><path fill="#000" d="m200.674 0-1.552.005c-6.512.023-11.772 5.318-11.749 11.827l.058 16.767c.023 6.509 5.32 11.766 11.832 11.744l1.552-.006c6.512-.023 11.772-5.317 11.749-11.826l-.058-16.767C212.483 5.235 207.186-.023 200.674 0M100.301 26.56l-1.1.663c-5.688 3.43-7.518 10.82-4.086 16.506l8.434 13.974c3.431 5.686 10.825 7.515 16.514 4.085l1.099-.663c5.688-3.43 7.518-10.82 4.086-16.506l-8.433-13.974c-3.432-5.686-10.825-7.515-16.514-4.085M300.597 27.07l-1.078-.64c-5.705-3.385-13.077-1.507-16.464 4.196l-8.397 14.135c-3.388 5.703-1.509 13.07 4.196 16.457l1.078.64c5.706 3.386 13.077 1.507 16.465-4.195l8.397-14.136c3.387-5.703 1.508-13.07-4.197-16.456M256.19 81.379q42.998 19.87 64.982 64.459a.69.69 0 0 1-.027.689.721.721 0 0 1-.615.34q-94.324-.045-185.409 0c-6.716 0-11.806-2.759-16.492-7.578a1062 1062 0 0 0-21.402-21.437.655.655 0 0 1-.045-.91q32.193-37.13 77.788-45.588 42.505-7.877 81.22 10.025M57.95 103.131l-14.185-8.32c-5.716-3.351-13.068-1.437-16.422 4.276l-.634 1.081c-3.354 5.714-1.439 13.062 4.277 16.414l14.186 8.319c5.716 3.352 13.068 1.438 16.422-4.275l.634-1.081c3.354-5.713 1.439-13.062-4.277-16.414M356.069 94.758l-14.168 8.408c-5.705 3.386-7.584 10.754-4.196 16.457l.64 1.078c3.387 5.702 10.759 7.58 16.464 4.194l14.168-8.408c5.705-3.386 7.584-10.754 4.196-16.457l-.64-1.077c-3.387-5.703-10.759-7.58-16.464-4.195"/><path fill="#000" d="M111.465 161.442c4.776 4.744 10.462 6.265 17.044 6.265q101.428-.015 200.066.015a1.05 1.05 0 0 1 1.014.791q3.045 12.844 3.761 26.628a.87.87 0 0 1-.24.661.9.9 0 0 1-.655.279l-265.301.015a.596.596 0 0 1-.597-.612q1.403-32.073 17.342-60.372a.66.66 0 0 1 .495-.342.7.7 0 0 1 .58.193 8280 8280 0 0 0 26.491 26.479M28.783 186.966H12.007c-6.511 0-11.79 5.276-11.79 11.785v1.522c0 6.508 5.279 11.785 11.79 11.785h16.776c6.511 0 11.79-5.277 11.79-11.785v-1.522c0-6.509-5.279-11.785-11.79-11.785M387.953 186.892l-16.775.029c-6.512.011-11.782 5.297-11.77 11.806l.002 1.521c.012 6.509 5.3 11.776 11.811 11.765l16.776-.03c6.511-.011 11.781-5.297 11.77-11.805l-.003-1.522c-.011-6.508-5.299-11.776-11.811-11.764M287.815 250.873c-3.149-3.147-8.044-5.564-12.566-5.564q-102.145.015-203.961.015-.597 0-.731-.582-3.329-13.052-3.94-26.822-.045-.954.925-.954l264.883-.015q.97 0 .911.969-1.613 32.58-17.433 59.925a.62.62 0 0 1-.459.309.63.63 0 0 1-.526-.175q-13.491-13.545-27.103-27.106"/><path fill="#000" d="M18.201 284.468c-10.044.015-17.163-7.429-18.193-17.364q-.09-.94.85-.94 132.337.045 264.093.03 6.462 0 11.357 4.341 5.657 4.998 12.477 13.008.807.925-.418.925-135.276-.015-270.166 0M336.261 283.379c2.91-4.982 5.134-10.636 6.537-16.23q.239-.97 1.238-.97l55.162.015q.896 0 .791.88c-1.313 12.083-9.567 17.573-21.282 17.469q-23.014-.195-41.79-.045-1.313.015-.656-1.119M54.125 323.627c-9.567 0-16.746-8.652-17.298-17.603q-.06-.984.925-.984l324.448.626q1 .015.955 1.015c-.328 7.145-4.895 13.619-11.477 16.141Q348.574 324 341.484 324c-95.786 0-191.856-.373-287.36-.373"/></svg>