<svg xmlns="http://www.w3.org/2000/svg" fill="none" viewBox="0 0 333 413"><path fill="#000" d="M142.003 411.717.914 247.859c-2.645-3.067.943-7.499 4.5-5.556l94.87 51.392c4.469 2.429 7.936 6.405 9.7 11.17l38.191 103.209c1.399 3.795-3.528 6.709-6.172 3.643m20.373-37.672-38.921-192.089c-.578-2.854 0-5.86 1.552-8.318l67.929-106.122c1.367-2.126 4.682-1.003 4.438 1.548L167.15 373.802c-.273 2.762-4.227 2.944-4.774.243m33.689-56.583 74.68-108.46c2.555-3.704 6.995-5.615 11.464-4.948l47.768 7.225c3.072.456 4.106 4.371 1.673 6.284L199.805 320.984c-2.34 1.82-5.411-1.062-3.74-3.491zm11.161-74.371L245.417 2.038c.395-2.488 3.861-2.792 4.681-.393l33.874 98.473a11.28 11.28 0 0 1-.699 8.925l-71.516 135.566c-1.278 2.399-4.957 1.185-4.531-1.487zM43.515 195.526l8.544-60.559c.365-2.49 3.77-2.944 4.774-.638l52.696 122.606c1.064 2.488-2.039 4.644-4.015 2.792l-58.807-55.095c-2.493-2.337-3.709-5.767-3.223-9.137z"/></svg>
