<svg xmlns="http://www.w3.org/2000/svg" fill="none" viewBox="0 0 512 512"><path fill="#000" d="M256 512c141.385 0 256-114.615 256-256S397.385 0 256 0 0 114.615 0 256s114.615 256 256 256Z"/><path fill="#00F99B" d="M269.808 96c-85.95 0-155.626 69.699-155.627 155.681v40.851a1.899 1.899 0 0 0 1.899 1.899h21.714c1.049 0 1.898-.85 1.898-1.899l.001-40.851c.002-71.885 58.255-130.16 130.116-130.16h145.34c1.454 0 2.362-1.565 1.589-2.796-8.273-13.168-20.659-22.715-39.21-22.725h-107.72Z"/><path fill="#00F99B" d="M430.569 158.821a1.89 1.89 0 0 0-1.863-1.567H269.813c-53.543 0-96.948 43.42-96.948 96.982v38.298a1.9 1.9 0 0 0 1.898 1.899h16.019a7.595 7.595 0 0 0 7.595-7.598v-32.599c0-39.466 31.983-71.461 71.436-71.461h161.296c1.085 0 1.95-.906 1.888-1.99-.353-6.162-1.051-13.808-2.428-21.964ZM243.191 416c85.95 0 155.626-69.7 155.627-155.681v-40.851a1.899 1.899 0 0 0-1.899-1.899h-21.715a1.898 1.898 0 0 0-1.898 1.899v40.851c-.001 71.885-58.255 130.16-130.114 130.16H97.852c-1.454 0-2.363 1.564-1.589 2.796 8.272 13.168 20.658 22.714 39.209 22.725h107.719Z"/><path fill="#00F99B" d="M82.431 353.179a1.885 1.885 0 0 0 1.862 1.567h158.894c53.543 0 96.948-43.42 96.948-96.982v-38.298a1.9 1.9 0 0 0-1.898-1.899h-16.019a7.595 7.595 0 0 0-7.595 7.598v32.599c0 39.466-31.983 71.461-71.436 71.461H81.891c-1.085 0-1.95.906-1.888 1.989.353 6.163 1.05 13.808 2.428 21.965Z"/></svg>