<svg xmlns="http://www.w3.org/2000/svg" fill="none" viewBox="0 0 512 512"><path fill="#000" d="M256 512c141.385 0 256-114.615 256-256S397.385 0 256 0 0 114.615 0 256s114.615 256 256 256Z"/><path fill="#28404E" d="M338.091 122.167c18.15 14.036 33.563 32.245 41.501 54.015 14.066 38.588-1.495 86.955 29.479 119.305 5.545 5.802 11.889 9.617 19.034 11.443l13.35 3.688c.702.197 1.151.647 1.348 1.349.21.759.252 1.567.126 2.424.884 38.588-34.995 25.901-55.42 38.588-7.215 4.481-12.247 10.804-15.097 18.967-4.295 12.329-.947 29.947-12.465 40.295-3.299 2.978-6.724 4.798-10.276 5.458-23.982 4.489-34.658 4.047-49.313 25.669-8.493 12.533-21.007 18.743-37.543 18.63-37.164-.716-73.844-21.58-99.743-47.481-33.703-33.734-51.987-75.553-54.851-125.458-.393-6.997-.8-14.05-1.221-21.159v-19.495c.449-20.962 3.137-39.655 8.064-56.08 28.468-94.71 146.088-127.102 223.027-70.158Zm93.931 196.818c-55.314-14.183-52.409-70.474-56.704-114.963-3.243-33.467-21.225-58.757-49.208-77.871-53.42-36.502-131.243-26.955-174.682 20.674-38.343 42.023-38.427 104.847-31.352 158.63 8.443 64.257 49.608 119.705 111.134 141.159 18.866 6.596 47.102 12.202 60.389-8.388 11.216-17.394 28.082-26.856 50.598-28.388 11.286-.758 15.855-8.682 17.181-19.62 3.432-28.135 12.255-45.922 41.691-51.57 13.708-2.614 28.974-1.539 31.858-18.251a1.24 1.24 0 0 0-.905-1.412Z"/><path fill="#FAFAF7" d="M432.022 318.985a1.241 1.241 0 0 1 .905 1.412c-2.884 16.712-18.15 15.637-31.858 18.251-29.436 5.648-38.259 23.435-41.691 51.57-1.326 10.938-5.895 18.862-17.181 19.62-22.516 1.532-39.382 10.994-50.598 28.388-13.287 20.59-41.523 14.984-60.389 8.388-61.526-21.454-102.691-76.902-111.134-141.159-7.075-53.783-6.991-116.607 31.352-158.63 43.439-47.63 121.262-57.176 174.682-20.674 27.983 19.114 45.965 44.404 49.208 77.871 4.295 44.489 1.39 100.78 56.704 114.963ZM231.02 210.113a45.29 45.29 0 0 0-13.247-32.01 45.21 45.21 0 0 0-31.981-13.259 45.21 45.21 0 0 0-31.982 13.259 45.29 45.29 0 0 0-13.247 32.01 45.29 45.29 0 0 0 13.247 32.01 45.21 45.21 0 0 0 31.982 13.259 45.21 45.21 0 0 0 31.981-13.259 45.29 45.29 0 0 0 13.247-32.01Zm113.535-.021a45.29 45.29 0 0 0-13.247-32.01 45.213 45.213 0 0 0-31.982-13.259 45.21 45.21 0 0 0-31.981 13.259 45.29 45.29 0 0 0-13.247 32.01 45.29 45.29 0 0 0 13.247 32.01 45.21 45.21 0 0 0 31.981 13.259c11.995 0 23.5-4.77 31.982-13.259a45.29 45.29 0 0 0 13.247-32.01Z"/><path fill="#28404E" d="M231.02 210.113a45.29 45.29 0 0 1-13.247 32.01 45.21 45.21 0 0 1-31.981 13.259 45.21 45.21 0 0 1-31.982-13.259 45.29 45.29 0 0 1-13.247-32.01 45.29 45.29 0 0 1 13.247-32.01 45.21 45.21 0 0 1 31.982-13.259 45.21 45.21 0 0 1 31.981 13.259 45.29 45.29 0 0 1 13.247 32.01Zm-45.46-23.098c.477-.435.555-.997.232-1.686a1.005 1.005 0 0 0-.44-.46 1.044 1.044 0 0 0-.634-.109c-30.426 4.299-31.732 44.173-.484 50.685.8.155 1.2-.176 1.2-.991-.028-16.002.014-31.815.126-47.439Zm158.995 23.077a45.29 45.29 0 0 1-13.247 32.01 45.213 45.213 0 0 1-31.982 13.259 45.21 45.21 0 0 1-31.981-13.259 45.29 45.29 0 0 1-13.247-32.01 45.29 45.29 0 0 1 13.247-32.01 45.21 45.21 0 0 1 31.981-13.259c11.995 0 23.5 4.77 31.982 13.259a45.29 45.29 0 0 1 13.247 32.01Zm-46.787-25.269c-33.731 3.287-30.763 50.621.379 50.453.646 0 .969-.33.969-.991l.042-48.198c0-.927-.463-1.349-1.39-1.264Z"/><path fill="#18B68B" d="M185.56 187.015a5319.976 5319.976 0 0 0-.126 47.439c0 .815-.4 1.146-1.2.991-31.248-6.512-29.942-46.386.484-50.685.219-.031.441.007.634.109.194.103.348.264.44.46.323.689.245 1.251-.232 1.686Z"/><path fill="#60E6C5" d="M298.147 235.276c-31.142.168-34.11-47.166-.379-50.453.927-.085 1.39.337 1.39 1.264l-.042 48.198c0 .661-.323.991-.969.991Z"/></svg>