<svg xmlns="http://www.w3.org/2000/svg" fill="none" viewBox="0 0 512 512"><path fill="#000" d="M256 512c141.385 0 256-114.615 256-256S397.385 0 256 0 0 114.615 0 256s114.615 256 256 256"/><path fill="#28404E" d="M338.091 122.167c18.15 14.036 33.563 32.245 41.501 54.015 14.066 38.588-1.495 86.955 29.479 119.305q8.317 8.704 19.034 11.443l13.35 3.688q1.053.296 1.348 1.349.315 1.139.126 2.424c.884 38.588-34.995 25.901-55.42 38.588q-10.822 6.722-15.097 18.967c-4.295 12.329-.947 29.947-12.465 40.295q-4.948 4.467-10.276 5.458c-23.982 4.489-34.658 4.047-49.313 25.669q-12.74 18.8-37.543 18.63c-37.164-.716-73.844-21.58-99.743-47.481q-50.555-50.6-54.851-125.458-.59-10.496-1.221-21.159v-19.495q.673-31.443 8.064-56.08c28.468-94.71 146.088-127.102 223.027-70.158m93.931 196.818c-55.314-14.183-52.409-70.474-56.704-114.963-3.243-33.467-21.225-58.757-49.208-77.871-53.42-36.502-131.243-26.955-174.682 20.674-38.343 42.023-38.427 104.847-31.352 158.63 8.443 64.257 49.608 119.705 111.134 141.159 18.866 6.596 47.102 12.202 60.389-8.388q16.824-26.09 50.598-28.388c11.286-.758 15.855-8.682 17.181-19.62 3.432-28.135 12.255-45.922 41.691-51.57 13.708-2.614 28.974-1.539 31.858-18.251a1.24 1.24 0 0 0-.905-1.412"/><path fill="#FAFAF7" d="M432.022 318.985a1.24 1.24 0 0 1 .905 1.412c-2.884 16.712-18.15 15.637-31.858 18.251-29.436 5.648-38.259 23.435-41.691 51.57-1.326 10.938-5.895 18.862-17.181 19.62q-33.774 2.298-50.598 28.388c-13.287 20.59-41.523 14.984-60.389 8.388-61.526-21.454-102.691-76.902-111.134-141.159-7.075-53.783-6.991-116.607 31.352-158.63 43.439-47.63 121.262-57.176 174.682-20.674 27.983 19.114 45.965 44.404 49.208 77.871 4.295 44.489 1.39 100.78 56.704 114.963M231.02 210.113a45.3 45.3 0 0 0-13.247-32.01 45.2 45.2 0 0 0-31.981-13.259 45.2 45.2 0 0 0-31.982 13.259 45.3 45.3 0 0 0-13.247 32.01 45.3 45.3 0 0 0 13.247 32.01 45.2 45.2 0 0 0 31.982 13.259 45.2 45.2 0 0 0 31.981-13.259 45.3 45.3 0 0 0 13.247-32.01m113.535-.021a45.3 45.3 0 0 0-13.247-32.01 45.2 45.2 0 0 0-31.982-13.259 45.2 45.2 0 0 0-31.981 13.259 45.3 45.3 0 0 0-13.247 32.01 45.3 45.3 0 0 0 13.247 32.01 45.2 45.2 0 0 0 31.981 13.259c11.995 0 23.5-4.77 31.982-13.259a45.3 45.3 0 0 0 13.247-32.01"/><path fill="#28404E" d="M231.02 210.113a45.3 45.3 0 0 1-13.247 32.01 45.2 45.2 0 0 1-31.981 13.259 45.2 45.2 0 0 1-31.982-13.259 45.3 45.3 0 0 1-13.247-32.01 45.3 45.3 0 0 1 13.247-32.01 45.2 45.2 0 0 1 31.982-13.259 45.2 45.2 0 0 1 31.981 13.259 45.3 45.3 0 0 1 13.247 32.01m-45.46-23.098q.716-.653.232-1.686a1 1 0 0 0-.44-.46 1.04 1.04 0 0 0-.634-.109c-30.426 4.299-31.732 44.173-.484 50.685q1.2.232 1.2-.991-.042-24.003.126-47.439m158.995 23.077a45.3 45.3 0 0 1-13.247 32.01 45.2 45.2 0 0 1-31.982 13.259 45.2 45.2 0 0 1-31.981-13.259 45.3 45.3 0 0 1-13.247-32.01 45.3 45.3 0 0 1 13.247-32.01 45.2 45.2 0 0 1 31.981-13.259c11.995 0 23.5 4.77 31.982 13.259a45.3 45.3 0 0 1 13.247 32.01m-46.787-25.269c-33.731 3.287-30.763 50.621.379 50.453q.969 0 .969-.991l.042-48.198q0-1.391-1.39-1.264"/><path fill="#18B68B" d="M185.56 187.015a5320 5320 0 0 0-.126 47.439q0 1.223-1.2.991c-31.248-6.512-29.942-46.386.484-50.685.219-.031.441.007.634.109.194.103.348.264.44.46q.484 1.034-.232 1.686"/><path fill="#60E6C5" d="M298.147 235.276c-31.142.168-34.11-47.166-.379-50.453q1.39-.127 1.39 1.264l-.042 48.198q0 .991-.969.991"/></svg>
