<svg xmlns="http://www.w3.org/2000/svg" fill="none" viewBox="0 0 512 512"><path fill="#000" d="M256 512c141.385 0 256-114.615 256-256S397.385 0 256 0 0 114.615 0 256s114.615 256 256 256Z"/><path fill="#F2F4F8" fill-rule="evenodd" d="M104.951 209.807c-2.63 16.934.467 34.359 3.683 51.104 1.239 2.675 3.954 4.476 7.301 5.629-6.864 14.497-10.638 30.303-10.638 46.85 0 70.073 67.812 126.93 151.452 126.93s151.499-56.725 151.499-126.93c0-16.72-3.849-32.682-10.846-47.296 2.799-1.155 5.032-2.831 6.125-5.183 3.216-16.745 6.3-34.17 3.67-51.104-2.462-22.724-10.258-29.661-33.666-23.837-11.908 2.767-27.604 9.798-39.674 18.069-22.592-11.215-48.956-17.65-77.108-17.65-28.475 0-55.115 6.59-77.871 18.051-12.141-8.445-28.157-15.659-40.248-18.47-23.421-5.824-31.204 1.113-33.679 23.837Zm88.183 100.187c-17.754-7.833-48.097-5.849-48.097-5.849s1.423 28.573 18.842 38.272c20.659 11.493 59.072 5.801 59.072 5.801s-3.265-26.575-29.817-38.283v.059Zm98.644 38.271s38.412 5.694 59.071-5.801c17.419-9.699 18.842-38.27 18.842-38.27s-30.343-1.986-48.096 5.848c-26.553 11.601-29.817 38.115-29.817 38.115v.108Zm-42.61 20.14c0 2.106 3.91 3.816 8.728 3.816s8.728-1.71 8.728-3.816c0-2.104-3.91-3.802-8.728-3.802s-8.728 1.637-8.728 3.802Z" clip-rule="evenodd"/><path fill="#F2F4F8" fill-rule="evenodd" d="M429.351 350.813a124.633 124.633 0 0 0-44.428-8.371h.024c-3.849 0-3.849-5.981 0-5.981a129.345 129.345 0 0 1 46.018 8.623 3.053 3.053 0 0 1 2.067 3.636 3.013 3.013 0 0 1-3.681 2.093Zm-345.823-5.597a129.463 129.463 0 0 1 46.028-8.623v.035c3.85 0 3.838 5.98 0 5.98a124.486 124.486 0 0 0-44.438 8.372 3.011 3.011 0 0 1-3.67-2.094 3.062 3.062 0 0 1 2.08-3.67Zm30.475 17.137a81.468 81.468 0 0 1 22.713-3.814c3.828.021 3.821 5.979-.022 5.979a75.205 75.205 0 0 0-20.719 3.481c-6.24 1.83-13.378 4.413-17.933 8.635-2.821 2.619-7.053-1.602-4.22-4.222 5.535-5.118 13.151-7.941 20.181-10.059Zm22.713-3.814h.002-.024.022Zm6.816 14.938a113.97 113.97 0 0 0-17.228 9.197 53.672 53.672 0 0 0-14.346 12.928 3.001 3.001 0 0 0 1.064 4.09 3.075 3.075 0 0 0 4.101-1.064c3.359-4.641 8.177-8.24 12.947-11.315a116.413 116.413 0 0 1 16.427-8.67 3.015 3.015 0 0 0 1.076-4.09 3.074 3.074 0 0 0-4.089-1.076h.048Zm234.232-9.078a74.762 74.762 0 0 1 20.718 3.468 70.219 70.219 0 0 1 10.126 3.743 30.815 30.815 0 0 1 7.784 4.905c2.822 2.607 7.053-1.603 4.232-4.235-5.499-5.106-13.067-7.941-20.145-10.057a81.119 81.119 0 0 0-22.715-3.804c-3.85 0-3.862 5.98 0 5.98Zm6.6 22.735a119.556 119.556 0 0 0-16.176-8.371v-.059a3.025 3.025 0 0 1-1.076-4.091 3.095 3.095 0 0 1 4.1-1.064c11.645 5.082 23.899 11.613 31.515 22.125a3.017 3.017 0 0 1-1.064 4.091 3.062 3.062 0 0 1-4.089-1.077c-3.443-4.748-8.309-8.432-13.21-11.554Z" clip-rule="evenodd"/><path fill="#6665DD" d="M60.812 276.147c2.762-4.305 27.031-17.257 57.063-24.948a353.122 353.122 0 0 1 23.911-53.352c-.119 0 24.019-43.343 23.911-43.367a136.437 136.437 0 0 1-19.87-11.134 17.221 17.221 0 0 1-2.881-2.811 6.616 6.616 0 0 1-.957-3.504c0-1.005 1.423-2.799 2.057-3.588a41.621 41.621 0 0 1 5.332-5.238 141.238 141.238 0 0 1 14.478-10.405c2.391-1.579 4.878-3.122 7.329-4.677 17.216-10.967 26.648-19.22 42.418-28.285 15.064-8.635 22.381-13.957 39.846-13.06 21.951 0 76.515 69.535 101.121 105.366 14.751 21.528 34.55 60.29 41.843 74.869 1.745.443 3.324.861 4.782 1.292 22.38 6.721 44.331 16.576 49.698 22.842 4.783 5.574-16.115 8.062-36.715 11.649-20.599 3.589-90.479 5.37-157.631 5.825-67.154.455-145.534-1.794-162.594-4.485-17.06-2.691-36.572-7.618-33.14-12.989Z"/><path fill="#FF99A5" d="M377.69 216.086s-44.235-11.087-122.172-11.087c-83.689 0-123.99 12.917-123.99 12.917s-4.782 9.089-6.863 14.351c-2.08 5.262-6.79 18.932-6.79 18.932s60.889-10.906 138.815-10.906a876.917 876.917 0 0 1 140.045 11.84s-7.065-16.541-11.298-23.597c-4.233-7.057-7.747-12.45-7.747-12.45Z"/><path fill="#FFE600" d="M114.42 122.547c5.069-.741 11.956 14.783 11.956 14.783s15.948-4.294 18.435 0c2.487 4.293-11.214 14.603-11.214 14.603s8.273 14.555 5.655 17.581c-2.619 3.025-17.372-6.16-17.372-6.16s-11.25 12.678-14.92 10.764c-3.67-1.913.49-18.43.49-18.43s-15.912-6.769-14.825-10.788c1.088-4.018 17.671-5.238 17.671-5.238s-.933-16.373 4.124-17.115Z"/></svg>