<svg xmlns="http://www.w3.org/2000/svg" fill="none" viewBox="0 0 513 512"><path fill="#DEFF16" d="M61.83 199.995c-13.531 5.387-26.624 15.325-37.868 28.718-9.644 11.485-17.652 25.274-22.701 39.04 1.108 24.637 5.682 48.368 13.243 70.711a215 215 0 0 1-1.038-10.838c-1.539-21.208 7.867-56.471 25.716-76.469 11.35-12.715 33.87-25.551 58.57-25.551 9.684 0 19.036 1.932 27.821 5.744 10.838 4.708 19.271 15.638 23.129 30.006 5.035 18.719 2.705 42.373-6.915 70.29-5.547 16.117-8.55 30.041-9.17 42.573a100 100 0 0 0-.021 8.572c.79 19.25 7.406 35.636 20.243 50.091C168.7 450.748 195.345 461 225.935 461a139.3 139.3 0 0 0 30.075-3.307c53.452-11.887 74.411-48.473 82.577-77.069l.002-.007c.18-.659.361-1.318.533-1.977 6.166-23.95 2.468-49.492-11.009-75.912-8.7-17.075-18.61-29.624-27.351-40.693-13.938-17.649-24.936-31.582-25.545-54.896l-.008-.454-.012-.556q-.013-.584-.023-1.2l-.01-.339c-.203-11.879-.545-31.773-18.46-31.773a27 27 0 0 0-2.201.087c-5.868.452-10.207 2.358-12.91 5.665-2.181 2.672-6.585 10.696-.246 27.378 4.575 12.044 13.841 23.018 24.572 35.724 6.349 7.519 13.541 16.039 20.414 25.638 13.744 19.206 22.903 33.4 24.85 54.912 2.084 22.992-5.772 47.22-21.537 66.461-10.324 12.61-31.499 27.326-57.16 27.326-7.983 0-15.839-1.453-23.364-4.325-11.052-4.212-19.281-12.201-23.161-22.505-7.257-19.232-3.377-37.629 1.122-58.933 2.127-10.034 4.318-20.407 5.43-31.573 3.196-31.903-10.218-67.079-33.379-87.529-14.974-13.228-33.689-20.216-54.103-20.216-5.943 0-12.163.583-18.469 1.749-8.027 1.514-16.353 3.977-24.732 7.319"/><path fill="#000" fill-rule="evenodd" d="M510.529 256c0 141.385-114.062 256-254.766 256-111.991 0-207.104-72.61-241.26-173.536a215 215 0 0 1-1.037-10.838c-1.539-21.208 7.867-56.471 25.716-76.469 11.35-12.715 33.87-25.551 58.57-25.551 9.684 0 19.036 1.932 27.821 5.744 10.838 4.708 19.271 15.638 23.129 30.006 5.035 18.719 2.705 42.373-6.915 70.29-5.547 16.117-8.55 30.041-9.17 42.573a100 100 0 0 0-.021 8.572c.79 19.25 7.406 35.636 20.243 50.091C168.7 450.748 195.345 461 225.935 461a139.3 139.3 0 0 0 30.075-3.307c53.452-11.887 74.411-48.473 82.577-77.069l.002-.007c.18-.659.361-1.318.533-1.977 6.166-23.95 2.468-49.492-11.009-75.912-8.7-17.075-18.61-29.624-27.351-40.693-13.938-17.649-24.936-31.582-25.545-54.896l-.008-.454-.012-.556q-.013-.584-.023-1.2l-.01-.339c-.203-11.879-.545-31.773-18.46-31.773a27 27 0 0 0-2.201.087c-5.868.452-10.207 2.358-12.91 5.665-2.181 2.672-6.585 10.696-.246 27.378 4.575 12.044 13.841 23.018 24.572 35.724 6.349 7.519 13.541 16.039 20.414 25.638 13.744 19.206 22.903 33.4 24.85 54.912 2.084 22.992-5.772 47.22-21.537 66.461-10.324 12.61-31.499 27.326-57.16 27.326-7.983 0-15.839-1.453-23.364-4.325-11.052-4.212-19.281-12.201-23.161-22.505-7.257-19.232-3.377-37.629 1.122-58.933 2.127-10.034 4.318-20.407 5.43-31.573 3.196-31.903-10.218-67.079-33.379-87.529-14.974-13.228-33.689-20.216-54.103-20.216-5.943 0-12.163.583-18.469 1.749-8.027 1.514-16.353 3.977-24.732 7.319-13.531 5.387-26.624 15.325-37.868 28.718-9.644 11.485-17.652 25.274-22.701 39.04A262 262 0 0 1 .997 256C.997 114.615 115.06 0 255.763 0c114.252 0 210.939 75.572 243.254 179.684q.263 2.736.479 5.69c1.538 21.208-7.868 56.471-25.717 76.469-11.35 12.715-33.859 25.551-58.571 25.551-9.672 0-19.035-1.932-27.819-5.744-10.838-4.708-19.272-15.647-23.13-30.006-5.033-18.719-2.705-42.372 6.915-70.29 4.756-13.811 7.621-25.881 8.743-36.89.481-4.882.631-9.677.438-14.255-.791-19.25-7.405-35.636-20.243-50.091C344.252 62.252 317.606 52 287.017 52c-10.1 0-20.223 1.114-30.076 3.307-52.03 11.566-73.139 46.663-81.679 74.067a91 91 0 0 0-.791 2.645c-7.032 24.62-3.537 50.945 10.378 78.236 8.698 17.077 18.601 29.615 27.343 40.681l.009.012c13.936 17.648 24.934 31.581 25.545 54.895q.007.498.018 1.018.014.599.023 1.227v.27c.203 11.905.546 31.817 18.459 31.817.715 0 1.453-.027 2.201-.087 5.869-.453 10.208-2.359 12.912-5.666 2.192-2.68 6.594-10.704.255-27.387-4.572-12.033-13.837-23.005-24.564-35.707l-.006-.008c-6.349-7.51-13.533-16.012-20.426-25.637-13.745-19.207-22.904-33.392-24.85-54.913-2.084-22.992 5.771-47.22 21.536-66.461 10.327-12.601 31.499-27.317 57.161-27.317 7.983 0 15.839 1.453 23.364 4.325 11.051 4.212 19.271 12.201 23.162 22.505 7.255 19.232 3.377 37.629-1.122 58.933l-.003.013c-2.116 10.03-4.306 20.408-5.418 31.56-3.196 31.894 10.218 67.061 33.38 87.521 14.984 13.228 33.688 20.224 54.102 20.224 5.889 0 12.057-.574 18.31-1.723 8.059-1.505 16.426-3.977 24.87-7.345 13.531-5.387 26.624-15.316 37.869-28.718 8.879-10.575 16.371-23.096 21.444-35.764q.106 3.726.106 7.477" clip-rule="evenodd"/><path fill="#DEFF16" d="M451.11 313.005c13.531-5.387 26.624-15.316 37.869-28.718 8.879-10.575 16.371-23.096 21.444-35.764-.683-23.912-4.629-47.003-11.406-68.839q.263 2.736.479 5.69c1.538 21.208-7.868 56.471-25.717 76.469-11.35 12.715-33.859 25.551-58.571 25.551-9.672 0-19.035-1.932-27.819-5.744-10.838-4.708-19.272-15.647-23.13-30.006-5.033-18.719-2.705-42.372 6.915-70.29 4.756-13.811 7.621-25.881 8.743-36.89.481-4.882.631-9.677.438-14.255-.791-19.25-7.405-35.636-20.243-50.091C344.252 62.252 317.606 52 287.017 52c-10.1 0-20.223 1.114-30.076 3.307-52.03 11.566-73.139 46.663-81.679 74.067a91 91 0 0 0-.791 2.645c-7.032 24.62-3.537 50.945 10.378 78.236 8.698 17.077 18.601 29.615 27.343 40.681l.009.012c13.936 17.648 24.934 31.581 25.545 54.895q.007.498.018 1.018.014.599.023 1.227v.27c.203 11.905.546 31.817 18.459 31.817.715 0 1.453-.027 2.201-.087 5.869-.453 10.208-2.359 12.912-5.666 2.192-2.68 6.594-10.704.255-27.387-4.572-12.033-13.837-23.005-24.564-35.707l-.006-.008c-6.349-7.51-13.533-16.012-20.426-25.637-13.745-19.207-22.904-33.392-24.85-54.913-2.084-22.992 5.771-47.22 21.536-66.461 10.327-12.601 31.499-27.317 57.161-27.317 7.983 0 15.839 1.453 23.364 4.325 11.051 4.212 19.271 12.201 23.162 22.505 7.255 19.232 3.377 37.629-1.122 58.933l-.003.013c-2.116 10.03-4.306 20.408-5.418 31.56-3.196 31.894 10.218 67.061 33.38 87.521 14.984 13.228 33.688 20.224 54.102 20.224 5.889 0 12.057-.574 18.31-1.723 8.059-1.505 16.426-3.977 24.87-7.345"/></svg>