<svg xmlns="http://www.w3.org/2000/svg" fill="none" viewBox="0 0 512 512"><path fill="#000" fill-rule="evenodd" d="M512 256c0 141.385-114.615 256-256 256S0 397.385 0 256 114.615 0 256 0s256 114.615 256 256Z" clip-rule="evenodd"/><path fill="#00ED7B" d="M121.4 267.063c-10.105 10-24.474 22.151-27.49 30.507-.173.494-.452.562-.836.206a193.625 193.625 0 0 1-10.324-10.357c-13.765-14.877-16.768-36.425-7.13-54.289 2.148-3.991 6.39-9.155 12.724-15.493 43.425-43.444 86.873-86.861 130.345-130.25 6.233-6.22 11.119-10.357 14.656-12.412 16.165-9.383 38.019-7.48 52.141 4.055 2.303 1.89 6.736 6.229 13.299 13.014.32.33.283.612-.11.85-2.015 1.219-4.634 2.096-6.279 3.685-14.296 13.754-23.856 23.188-28.683 28.302-11.722 12.425-6.553 23.85 3.935 34.289a6712.804 6712.804 0 0 1 21.539 21.507c.32.32.32.639 0 .959-34.202 34.22-68.428 68.417-102.677 102.592-3.194 3.178-4.483 4.123-8.103.506a3222.897 3222.897 0 0 0-21.827-21.603c-12.956-12.712-24.089-7.068-35.18 3.932Z"/><path fill="#fff" d="m423.999 228.42-30.688 30.597c-4.956 1.895-8.54 1.167-12.481-2.678a1500.886 1500.886 0 0 1-23.561-23.511c-1.501-1.538-3.726-2.705-6.673-3.501-5.263-1.145-9.488-.17-12.673 2.925-16.129 15.673-55.841 55.393-119.138 119.158a14953.718 14953.718 0 0 1-67.993 68.17c-5.822 5.795-10.792 7.868-17.177 1.565a1918.946 1918.946 0 0 1-25.511-25.611c-5.039-5.164-5.506-10.341-.439-15.436a18518.13 18518.13 0 0 0 22.929-23.167c7.003-7.086 5.561-15.6-1.057-22.22a5340.478 5340.478 0 0 1-22.669-22.755c-5.547-5.603-2.169-11.398 2.705-16.287 8.476-8.468 16.943-16.932 25.401-25.391 4.271-4.271 9.996-2.678 14.143 1.387a1616.678 1616.678 0 0 1 18.206 18.086c9.982 10.079 17.232 13.334 28.038 2.526 34.17-34.176 68.331-68.352 102.483-102.528 5.163-5.15 6.041-9.943.838-15.257a3724.678 3724.678 0 0 0-25.992-26.285c-4.353-4.367-5.588-9.846-1.085-14.46 8.907-9.1 17.886-18.114 26.939-27.04 6.618-6.509 11.534-3.584 17.342 2.143a2647.15 2647.15 0 0 1 19.071 18.992c7.785 7.828 15.612 9.228 23.754 1.277a1667.582 1667.582 0 0 0 20.568-20.462c4.682-4.738 10.188-7.855 15.666-2.801 3.964 3.644 12.801 12.497 26.513 26.559 4.888 5.012 6.358 10.396 1.181 15.628a2511.52 2511.52 0 0 1-32.335 32.038 2.206 2.206 0 0 0-.665 1.567 2.19 2.19 0 0 0 .652 1.564 5786.767 5786.767 0 0 1 30.769 30.789c4.6 4.628 6.838 8.61 2.939 14.419Zm-42.365-40.384a9.42 9.42 0 0 0 0-13.323l-27.689-27.694a9.418 9.418 0 0 0-13.321 0l-27.767 27.772a9.42 9.42 0 0 0 0 13.322l27.69 27.695a9.42 9.42 0 0 0 13.32 0l27.767-27.772Z"/><path fill="#00ED7B" d="M351.541 242.602c8.02 7.601 20.406 22.927 29.22 26.494 8.568 3.471 16.341.618 22.979-5.872a1755.724 1755.724 0 0 0 25.443-25.397c2.354-2.401 4.037-4.541 5.707-7.436.31-.521.62-.521.93 0 10.019 16.588 9.759 37.676-2.08 53.221-1.268 1.656-5.21 5.79-11.825 12.403A81159.38 81159.38 0 0 0 293.8 424.356c-5.894 5.918-10.712 9.924-14.453 12.019-15.506 8.657-36.022 7.121-49.968-3.225-1.012-.75-7.523-7.029-19.53-18.838a1000.27 1000.27 0 0 1-18.585-18.769c-.356-.366-.352-.727.013-1.084 35.986-36.341 86.747-87.371 152.285-153.092 3.86-3.869 5.297-1.303 7.979 1.235Z"/></svg>