<svg xmlns="http://www.w3.org/2000/svg" fill="none" viewBox="0 0 512 512"><path fill="#000" fill-rule="evenodd" d="M512 256c0 141.385-114.615 256-256 256S0 397.385 0 256 114.615 0 256 0s256 114.615 256 256" clip-rule="evenodd"/><path fill="#00ED7B" d="M121.4 267.063c-10.105 10-24.473 22.151-27.49 30.507q-.26.74-.836.206a194 194 0 0 1-10.324-10.357c-13.765-14.877-16.768-36.425-7.13-54.289q3.222-5.986 12.724-15.493 65.137-65.166 130.345-130.25 9.35-9.33 14.656-12.412c16.165-9.383 38.019-7.48 52.141 4.055q3.454 2.836 13.299 13.014.48.494-.11.85c-2.015 1.219-4.634 2.096-6.279 3.685q-21.443 20.631-28.683 28.302c-11.722 12.425-6.553 23.85 3.935 34.289a6713 6713 0 0 1 21.539 21.507q.48.48 0 .959-51.303 51.33-102.677 102.592c-3.194 3.178-4.483 4.123-8.103.506a3223 3223 0 0 0-21.827-21.603c-12.956-12.712-24.089-7.069-35.18 3.932"/><path fill="#fff" d="m423.999 228.42-30.688 30.597c-4.956 1.895-8.54 1.167-12.481-2.678a1501 1501 0 0 1-23.561-23.511q-2.252-2.307-6.673-3.501-7.895-1.718-12.673 2.925-24.193 23.51-119.138 119.158a14954 14954 0 0 1-67.993 68.17c-5.822 5.795-10.792 7.868-17.177 1.565a1919 1919 0 0 1-25.511-25.611c-5.039-5.164-5.506-10.341-.439-15.436a18518 18518 0 0 0 22.929-23.167c7.003-7.086 5.561-15.6-1.057-22.22a5341 5341 0 0 1-22.669-22.755c-5.547-5.603-2.169-11.398 2.705-16.287q12.714-12.702 25.401-25.391c4.271-4.271 9.996-2.678 14.143 1.387a1617 1617 0 0 1 18.206 18.086c9.982 10.079 17.232 13.334 28.038 2.526q51.255-51.264 102.483-102.528c5.163-5.15 6.041-9.943.838-15.257a3725 3725 0 0 0-25.992-26.285c-4.353-4.367-5.588-9.846-1.085-14.46q13.36-13.65 26.939-27.04c6.618-6.509 11.534-3.584 17.342 2.143a2647 2647 0 0 1 19.071 18.992c7.785 7.828 15.612 9.228 23.754 1.277a1668 1668 0 0 0 20.568-20.462c4.682-4.738 10.188-7.855 15.666-2.801q5.945 5.466 26.513 26.559c4.888 5.012 6.358 10.396 1.181 15.628a2512 2512 0 0 1-32.335 32.038 2.2 2.2 0 0 0-.665 1.567 2.2 2.2 0 0 0 .652 1.564 5787 5787 0 0 1 30.769 30.789c4.6 4.628 6.838 8.61 2.939 14.419m-42.365-40.384a9.42 9.42 0 0 0 0-13.323l-27.689-27.694a9.42 9.42 0 0 0-13.321 0l-27.767 27.772a9.42 9.42 0 0 0 0 13.322l27.69 27.695a9.42 9.42 0 0 0 13.32 0z"/><path fill="#00ED7B" d="M351.541 242.602c8.02 7.601 20.406 22.927 29.22 26.494 8.568 3.471 16.341.618 22.979-5.872a1756 1756 0 0 0 25.443-25.397c2.354-2.401 4.037-4.541 5.707-7.436q.465-.781.93 0c10.019 16.588 9.759 37.676-2.08 53.221q-1.902 2.484-11.825 12.403A81159 81159 0 0 0 293.8 424.356q-8.841 8.877-14.453 12.019c-15.506 8.657-36.022 7.121-49.968-3.225q-1.519-1.125-19.53-18.838a1000 1000 0 0 1-18.585-18.769q-.534-.549.013-1.084 53.978-54.511 152.285-153.092c3.86-3.869 5.297-1.303 7.979 1.235"/></svg>