<svg xmlns="http://www.w3.org/2000/svg" fill="none" viewBox="0 0 512 512"><path fill="#000" d="M256 512c141.385 0 256-114.615 256-256S397.385 0 256 0 0 114.615 0 256s114.615 256 256 256"/><path fill="#fff" d="m207.811 467.968-44.204-44.232 120.838-120.914 44.205 44.232zm190.525-190.643-51.523 51.555-44.205-44.232 51.523-51.555zM338.548 217.5 217.709 338.414l-44.204-44.232 120.838-120.914zM304.559 44.032l44.205 44.232-120.839 120.914-44.204-44.232zm-95.167 183.691-51.523 51.555-44.205-44.232 51.523-51.555z"/></svg>
