<svg xmlns="http://www.w3.org/2000/svg" fill="none" viewBox="0 0 512 512"><path fill="#000" fill-rule="evenodd" d="M512 256c0 141.385-114.615 256-256 256S0 397.385 0 256 114.615 0 256 0s256 114.615 256 256" clip-rule="evenodd"/><path fill="url(#paint0_linear_4193_4270)" d="m438.272 298.154-.503.529q-.353.364-.713.723L299.22 437.02c-24.011 23.973-62.941 23.973-86.952 0l-38.064-38a6.886 6.886 0 0 1-.018-9.743 6.9 6.9 0 0 1 2.831-1.716q61.197-18.89 99.449-43.612 91.097-58.875 161.806-45.795m-28.898-113.203c50.891 16.037 44.951 53.474 45.626 68.232q-83.598-43.835-201.143 32.133-87.612 56.623-146.777 46.69c-39.443-6.621-48.316-54.793-50.08-67.593q65.012 32.87 174.248-37.729 101.791-65.787 178.126-41.733M299.22 74.979l35.765 35.703a6.893 6.893 0 0 1-3.501 11.632q-77.663 15.647-124.223 45.737-79.783 51.564-135.978 47.934l.004-.011L212.269 74.979c24.011-23.972 62.941-23.972 86.952 0"/><defs><linearGradient id="paint0_linear_4193_4270" x1="256" x2="252.098" y1="57" y2="728.137" gradientUnits="userSpaceOnUse"><stop stop-color="#5486FD"/><stop offset="1" stop-color="#4554DB"/></linearGradient></defs></svg>