<svg xmlns="http://www.w3.org/2000/svg" fill="none" viewBox="0 0 512 512"><path fill="#000" fill-rule="evenodd" d="M512 256c0 141.385-114.615 256-256 256S0 397.385 0 256 114.615 0 256 0s256 114.615 256 256Z" clip-rule="evenodd"/><path fill="#75FB6E" d="m232.692 259.784 6.264-6.361v-22.478l-6.251-6.386h-8.615l-5.961 6.386v22.478l5.961 6.361h8.602Zm56.243-.302 5.961-6.373v-22.164l-5.961-6.386h-8.615l-6.263 6.386v22.164l6.263 6.386 8.615-.013Z"/><path fill="#75FB6E" d="m421.04 207.851-30.939 24.301-1.207 8.813-1.383 1.206h-8.427l-6.25 6.387v8.498l5.659 5.783v3.03l-5.961 6.373.302 39.789 6.25 6.084.29 3.018.176.138-5.836 5.959v8.8l-2.666 2.74h-43.742l-2.666-2.753v-44.641l-1.182-1.207-5.081-5.154v-3.055l-.44-.453 6.099-6.222v-8.499l-.44-.477 1.044-.139 1.773-2.112 8.641-.93 20.826-27.318-.88-8.536 2.063-2.099-.063-.842.063-.063-.252-2.489-.038-.554 6.238-6.386-.578-51.015-6.251-6.072v-.616l.29-2.728-2.39-3.042.893-8.8-21.129-27.343-8.615-.918-1.257-1.722.062-.088v-8.498l-5.948-6.399h-8.326l-2.981-2.426v-8.8L300.241 80h-87.457l-6.54 6.386v8.8l-2.993 2.427h-8.326l-5.961 6.386v8.498l.088.088-1.258 1.722-8.64.918-21.129 27.33.88 8.813-2.351 3.042.289 2.728v.629l-6.251 6.059-.603 51.015 6.25 6.386-.289 3.948 2.314 2.363-.817 8.272 20.814 27.318 8.627.93 1.786 2.112.767.101-.477.503v8.511l5.961 6.373-.302.302v3.042l-5.056 5.155-1.182 1.219v44.641l-2.691 2.753h-43.717l-2.691-2.753v-8.8l-5.949-6.084.289-3.018 6.251-6.084.302-39.789-5.949-6.373.277-3.005 5.659-5.808v-8.498l-6.225-6.387h-8.427l-1.383-1.206-1.207-8.8-30.939-24.301-8.627 1.207-5.358 6.99 1.182 8.8 30.939 24.313 8.64-1.232.666.54-.075.076v8.498l5.949 6.386h.314v1.823l-6.263 6.374-.591 39.788 5.936 6.374v3.042h-.289l-5.936 6.387v8.8l5.936 6.072h8.64l2.666 2.728v8.8l5.949 6.084h43.741l6.251-6.084v-8.8l2.679-2.728h8.929l5.936-6.085v-44.641l-5.345-6.374-.314-3.331 6.263-6.386v-8.499l-6.263-6.386h-8.376l-1.434-1.823.88-8.8-21.116-27.343-8.615-.917-.037-.026.037-.264 6.238-6.072.302-50.713-5.936-6.386.075-.968.214-.251 8.615-.918 20.827-27.318-.88-8.812.679-.906h8.527l6.263-6.386v-8.498l2.981-2.439h87.445l2.981 2.439v8.498l6.238 6.386h8.527l.704.906-.881 8.812 20.802 27.318 8.64.93.202.252.088.955-5.949 6.386.289 50.713 6.263 6.072.025.327-8.35.88-21.129 27.331.88 8.812-1.584 2.037-.189-.214h-8.628l-5.948 6.386v8.499l5.948 6.373h.29l-.29 3.344-5.055 6.374v44.641l5.936 6.085h8.64l2.666 2.728v8.8l6.263 6.084h43.729l5.949-6.084v-8.8l2.679-2.728h8.627l5.949-6.085v-8.8l-5.949-6.374h-.591v-3.042l5.936-6.374-.578-39.788-6.251-6.374v-1.823h.591l5.949-6.386v-8.498l-.063-.063.667-.553 8.615 1.232 30.938-24.313 1.195-8.8-5.358-6.99-8.615-1.207.013-.013Z"/><path fill="#75FB6E" d="m229.423 340.266-6.238 6.387v8.812l-2.679 2.728h-8.615l-41.667 41.612v8.498l-2.678 2.74h-43.729l-2.679-2.74v-8.8l-6.251-6.386h-8.615l-5.961 6.386v8.8l5.961 6.084h8.615l2.692 2.728v8.8l5.948 6.085h43.729l6.238-6.085v-8.8l2.679-2.728.302.302h8.64l41.641-41.611v-8.813l2.39-2.728h8.326l6.829-6.072v-8.8l-6.238-6.399h-8.64Zm169.293 52.851-6.25 6.386v8.8l-2.679 2.74h-43.729l-2.679-2.74v-8.498l-41.653-41.612h-8.628l-2.679-2.728v-8.8l-6.25-6.399h-8.615l-6.251 6.387v8.812l6.854 6.072h8.326l2.377 2.728v8.813l41.654 41.611h8.615l.302-.302 2.678 2.728v8.8L346.36 432h43.741l5.949-6.085v-8.8l2.666-2.728h8.628l5.949-6.084v-8.8l-5.949-6.386h-8.628Z"/></svg>