<svg xmlns="http://www.w3.org/2000/svg" fill="none" viewBox="0 0 512 512"><path fill="#000" d="M256 512c141.385 0 256-114.615 256-256S397.385 0 256 0 0 114.615 0 256s114.615 256 256 256"/><path fill="#D382F7" d="M151.377 245.297h209.041v28.408H151.377zm-18.961-24.753 88.06-77.71 18.961 21.155-88.06 77.71zm146.94 129.797 88.06-77.71 18.961 21.155-88.061 77.71z"/><path fill="url(#paint0_radial_2081_167)" d="M261.205 175.161a50.2 50.2 0 0 0 35.495-14.705 50.207 50.207 0 0 0-35.495-85.704 50.2 50.2 0 0 0-35.495 14.705 50.206 50.206 0 0 0 0 70.999 50.2 50.2 0 0 0 35.495 14.705"/><path fill="url(#paint1_radial_2081_167)" d="M110.613 305.692a50.2 50.2 0 0 0 35.495-14.704 50.207 50.207 0 0 0-35.495-85.705 50.2 50.2 0 0 0-35.495 14.705 50.21 50.21 0 0 0 0 71 50.2 50.2 0 0 0 35.495 14.704"/><path fill="url(#paint2_radial_2081_167)" d="M261.205 436.224a50.2 50.2 0 0 0 35.495-14.705 50.207 50.207 0 0 0-35.495-85.704 50.2 50.2 0 0 0-35.495 14.704 50.21 50.21 0 0 0 0 71 50.2 50.2 0 0 0 35.495 14.705"/><path fill="url(#paint3_radial_2081_167)" d="M401.757 305.692a50.2 50.2 0 0 0 35.495-14.704 50.21 50.21 0 0 0 0-71 50.196 50.196 0 0 0-70.99 0 50.207 50.207 0 0 0 35.495 85.704"/><defs><radialGradient id="paint0_radial_2081_167" cx="0" cy="0" r="1" gradientTransform="matrix(250.986 0 0 351.431 90.936 173.153)" gradientUnits="userSpaceOnUse"><stop stop-color="#F0F"/><stop offset="1" stop-color="#AC8FFF"/></radialGradient><radialGradient id="paint1_radial_2081_167" cx="0" cy="0" r="1" gradientTransform="matrix(250.986 0 0 351.431 -59.656 303.684)" gradientUnits="userSpaceOnUse"><stop stop-color="#F0F"/><stop offset="1" stop-color="#AC8FFF"/></radialGradient><radialGradient id="paint2_radial_2081_167" cx="0" cy="0" r="1" gradientTransform="matrix(250.986 0 0 351.431 90.936 434.216)" gradientUnits="userSpaceOnUse"><stop stop-color="#F0F"/><stop offset="1" stop-color="#AC8FFF"/></radialGradient><radialGradient id="paint3_radial_2081_167" cx="0" cy="0" r="1" gradientTransform="matrix(250.986 0 0 351.431 231.488 303.684)" gradientUnits="userSpaceOnUse"><stop stop-color="#F0F"/><stop offset="1" stop-color="#AC8FFF"/></radialGradient></defs></svg>
