<svg xmlns="http://www.w3.org/2000/svg" fill="none" viewBox="0 0 512 512"><path fill="#000" fill-rule="evenodd" d="M512 256c0 141.385-114.615 256-256 256S0 397.385 0 256 114.615 0 256 0s256 114.615 256 256Z" clip-rule="evenodd"/><path fill="#8767D5" d="M237.053 220.676c22.799 17.731 48.716 30.981 69.761 51.246 33.712 32.54 49.885 76.381 29.035 121.587-21.825 47.154-75.997 83.981-137.963 69.172-52.613-12.665-89.052-57.676-90.806-112.039-.78-24.747 4.092-47.934 16.953-69.173 2.338-3.702 2.143-5.845-1.949-7.989-3.117-1.558-8.184-2.922-7.989-6.235.195-3.312 5.456-3.897 8.769-5.65 15.784-8.184 31.568-16.368 47.351-24.357 2.144-1.169 4.093-2.728 7.405-2.728-.974 23.577-1.948 46.959-3.118 70.926-5.066-1.559-8.768-4.482-12.666-7.209-3.312-2.339-5.066-2.533-7.404 1.364-26.892 46.764-7.016 115.546 53.392 128.601 38.388 8.379 72.879-13.055 89.442-38.775 19.097-29.812 15.589-59.625-9.548-86.514-5.261-5.651-10.912-11.106-16.564-16.562-3.702-12.666-11.691-23.188-17.537-34.879-5.456-10.132-12.471-19.68-16.564-30.786Z"/><path fill="#B4B8FF" d="M237.053 220.676c4.093 11.106 11.108 20.654 16.369 31.371 5.846 11.691 13.835 22.213 17.538 34.878-15.395-10.522-31.178-20.849-46.183-31.955-17.343-12.666-31.568-28.254-41.701-47.349-14.614-27.864-16.563-57.092-3.507-85.93 18.317-41.113 49.885-68.003 94.314-75.992 47.741-8.768 95.677 17.147 117.892 60.404 20.265 39.36 18.512 78.33-2.923 116.521-4.092 7.21-3.118 10.522 3.897 13.445 2.923 1.169 5.261 3.313 9.353 5.846-22.019 11.301-43.259 22.213-65.668 33.904.974-24.746 1.948-48.323 3.117-73.264 4.287 2.728 7.795 4.676 11.108 7.014 3.312 2.338 5.261 1.949 7.404-1.559 24.553-38.97 14.03-90.995-23.968-116.52-30.983-20.85-70.735-16.563-99.185 10.521-10.912 10.327-20.071 21.824-25.332 36.243-10.133 28.058-.975 51.44 17.537 72.484 3.118 3.508 6.626 6.625 9.938 9.938Z"/></svg>