<svg xmlns="http://www.w3.org/2000/svg" fill="none" viewBox="0 0 512 512"><path fill="#000" fill-rule="evenodd" d="M512 256c0 141.385-114.615 256-256 256S0 397.385 0 256 114.615 0 256 0s256 114.615 256 256Z" clip-rule="evenodd"/><path fill="#9573F5" d="m339.762 201.556 98.158-54.624.08 106.131-76.04 42.311c-51.867 28.865-81.755 66.725-93.835 100.344-12.076 33.609-10.3 52.882-10.687 61.282 0-53.505.175-69.507.175-114.558 0-11.101 1.277-23.314 2.777-29.159 0 0 12.909-74.74 79.372-111.727Z"/><path fill="#6837F1" d="m257.394 344.748.05 112.249-92.866-51.537-.041-86.955c-.027-59.31-18.607-103.814-42.139-130.706-23.525-26.883-41.24-35.008-48.398-39.432 46.349 24.849 58.61 31.553 98.134 52.765 9.79 5.252 22.537 15.253 26.919 19.405 0 0 58.307 48.206 58.341 124.211Z"/><path fill="#D2C3FB" d="M339.605 201.555c39.622-21.748 68.402-38.052 98.311-54.624-7.537 3.801-23.614 14.862-59.082 20.889-35.484 6.03-85.362 4.731-136.758-26.31L166.725 96 74 148.382l101.38 54.361c25.25 15.142 88.292 40.489 164.225-1.188Z"/></svg>