<svg xmlns="http://www.w3.org/2000/svg" fill="none" viewBox="0 0 512 512"><path fill="#000" d="M256 512c91.119 0 171.12-47.606 216.487-119.302C497.513 353.147 512 306.265 512 256v-.376C511.797 114.412 397.259 0 256 0 114.759 0 .233 114.382 0 255.568V256c0 50.183 14.44 96.994 39.39 136.503C84.735 464.308 164.798 512 256 512"/><path fill="#F565FA" d="M430 141v38.312h-38.11c-21.311 0-38.611 17.529-38.611 38.563v192.813h-39.113V179.062h-38.611V449h-38.361V179.312h-38.36v231.125h-38.862V217.875c0-21.285-17.3-38.563-38.611-38.563H83V141z"/></svg>
