<svg xmlns="http://www.w3.org/2000/svg" fill="none" viewBox="0 0 279 340"><path fill="#000" d="M56.104.046c2.51 0 2.158-.274 2.208 2.078-1.48 58.354 73.509 103.141 127.266 64.634 10.946-7.705 19.804-17.591 25.895-28.9 6.091-11.307 9.252-23.735 9.241-36.328 0-1.119.251-1.53 1.606-1.53h55.062c1.23 0 1.506.343 1.506 1.416 1.054 93.64-108.995 164.577-202.807 117.826C29.5 96.426.012 49.72.163 1.622c0-1.21.3-1.576 1.681-1.576z"/><path fill="#000" d="M278.964 206.51c1.781 69.11-61.914 134.749-139.614 133.47C59.567 341.35-4.857 271.623.288 200.914c.882-26.439 10.32-52.054 27.13-73.633.728-1.096 1.255-1.142 2.309-.228 13.103 11.751 28.4 21.287 45.174 28.16 1.255.48 1.355.823.577 1.782-12.51 15.912-18.527 35.297-17.015 54.813.652 50.817 62.742 93.023 114.943 68.151 47.684-21.468 61.989-82.699 31.421-121.457-2.936-2.672-2.359-3.357 1.381-4.362 11.067-4.752 21.458-10.711 30.944-17.746a133 133 0 0 0 12.247-9.912c.979-.936 1.456-.708 2.159.205 18.173 23.304 27.767 51.248 27.406 79.823"/></svg>
