<svg xmlns="http://www.w3.org/2000/svg" fill="none" viewBox="0 0 512 512"><g clip-path="url(#clip0_4190_3031)"><rect width="512" height="512" fill="#000" rx="256"/><path fill="#FD0000" d="m414.156 105.253.579 3.365c1.176 8.935-.375 16.871-3.266 25.284a11.5 11.5 0 0 0-1.294 3.466q-6.511 16.002-18.26 27.041-5.07 4.767-13.292 10.187a.6.6 0 0 1-.38-.167q-.163-.143-.016-.302c3.323-3.609 8.034-7.471 10.553-10.028 10.887-11.035 18.954-26.433 19.473-42.126.261-7.964-2.658-20.639-11.562-23.379-4.196-1.293-8.769 1.117-12.516 3.45a140.6 140.6 0 0 0-18.02 13.286c-22.143 19.22-42.505 40.128-63.803 60.229-4.332 4.09-7.985 7.642-13.844 8.743q-5.837 1.101-17.762 1.815a709 709 0 0 1-30.924.204l-20.804-.527-5.262-.069a.53.53 0 0 1-.355-.139c-.694-.611-3.703-.199-5.042-.24a581 581 0 0 1-11.104-.449c-1.114-.053-2.429.098-3.641.021-13.235-.877-27.907 2.805-40.052 7.919-1.029.432-1.976.351-3.021.518l-2.478-.094q-.756-.697.093-1.044 8.218-3.351 16.424-6.692a76.4 76.4 0 0 1 11.353-2.687c7.94-1.248 15.133-1.578 23.547-1.962 1.204-.057 3.152.127 5.005-.008q4.136-.298 13.994-.31c1.188 0 2.205.49 3.405.445 2.278-.09 4.687.216 6.773.171 16.619-.355 34.141.926 52.213-.779 5.087-.477 9.173-2.553 12.843-6.023 6.263-5.917 12.411-11.973 18.285-18.282q21.665-23.27 38.567-39.61 9.054-8.751 22.465-18.836a397 397 0 0 1 11.786-5.143q4.046-1.692 6.572-2.075c11.3-1.73 20.041 3.751 22.768 14.827"/><path fill="#FF5251" d="M373.03 97.644q-13.41 10.085-22.465 18.836-16.901 16.34-38.567 39.61c-5.874 6.309-12.022 12.365-18.285 18.282-3.67 3.47-7.756 5.546-12.843 6.023-18.072 1.705-35.594.424-52.213.779-2.086.045-4.495-.261-6.773-.171-1.2.045-2.217-.445-3.405-.445q-9.858.012-13.994.31c-1.853.135-3.801-.049-5.005.008-8.414.384-15.607.714-23.547 1.962a76.4 76.4 0 0 0-11.353 2.687q54.087-22.992 76.789-32.551.322-.134.409-.314a.7.7 0 0 0 .351-.061q56.406-23.766 112.787-47.586 7.377-3.116 18.114-7.37"/><path fill="#993414" d="m378.623 174.596-101.668 18.62-6.209-7.099q11.925-.714 17.762-1.815c5.859-1.101 9.512-4.653 13.844-8.743 21.298-20.101 41.66-41.009 63.803-60.229a140.6 140.6 0 0 1 18.02-13.286c3.747-2.333 8.32-4.743 12.516-3.45 8.904 2.74 11.823 15.415 11.562 23.379-.519 15.693-8.586 31.091-19.473 42.126-2.519 2.557-7.23 6.419-10.553 10.028q-.147.16.016.302a.6.6 0 0 0 .38.167m35.533-69.343a8.7 8.7 0 0 1 .579 3.365z"/><path fill="#FF5251" d="m192.467 126.883-.347.31a.55.55 0 0 1-.331.143q-4.442.375-8.095 1.048c-31.096 5.746-40.996 36.763-37.685 64.18q.045.37.021.758l-46.874 26.761c-2.09-22.874 11.5-46.021 25.894-62.692 16.893-19.566 41.645-30.022 67.417-30.508"/><path fill="#D20B09" d="M192.467 126.883c9.365.021 16.3.155 24.584 3.071 11.287 3.976 18.889 11.741 24.539 22.066q.195.359.188.64-.087.18-.409.314-22.701 9.56-76.789 32.551-8.206 3.34-16.424 6.692-.849.347-.093 1.044l-2.033.061a4 4 0 0 0-.021-.758c-3.311-27.417 6.589-58.434 37.685-64.18q3.653-.673 8.095-1.048a.55.55 0 0 0 .331-.143z"/><path fill="#993414" d="M411.469 133.902a9.6 9.6 0 0 1-1.294 3.466 11.5 11.5 0 0 1 1.294-3.466"/><path fill="#DC9370" d="M219.018 185.794c-3.457.196-6.96.102-10.43.168q-10.541.191-22.441 2.634c-13.802 2.83-21.13 16.361-24.49 28.836a.17.17 0 0 0 .253.191c9.638-5.876 21.09-10.933 32.471-11.65q2.601-.168 8.145.248c8.462.636 16.876.767 25.31-.383a.53.53 0 0 0 .339-.188l2.258-2.744c.138.02.13-.016.228.081 6.626 6.66 11.557 14.95 11.917 24.199.473 12.255 1.249 23.07 3.727 34.529 1.939 8.964 5.058 18.596 10.59 26.283 1.812 2.516 6.046 5.938 4.633 9.098a1319 1319 0 0 0-8.675 19.84c-11.908-1.097-21.273-8.128-28.352-17.152q-6.45-8.226-12.847-16.508.245.028.375-.135a.42.42 0 0 0 .086-.379c-1.829-7.606-1.845-14.999 2.392-21.569a.26.26 0 0 0 .044-.13.3.3 0 0 0-.025-.134.3.3 0 0 0-.087-.106.3.3 0 0 0-.128-.05c-2.518-.342-5.09 1.199-7.172 2.48q-5.593 3.441-4.903 10.064c.024.241-.053.359-.176.547q-8.969-6.607-19.591-6.415c-20.69.375-37.068 10.745-45.135 29.729a.32.32 0 0 1-.294.208c-13.561.987-21.142-7.569-23.343-19.86-3.102-17.344 1.29-35.879 17.905-44.846 3.907-2.109 7.704-3.361 7.01-8.678-.788-6.04-.596-11.207 2.053-16.765a49 49 0 0 1 9.876-13.882c1.045-.167 1.992-.086 3.021-.518 12.145-5.114 26.817-8.796 40.052-7.919 1.212.077 2.527-.074 3.641-.021q5.553.278 11.104.449c1.339.041 4.348-.371 5.042.24q.151.135.355.139zm-42.497 42.967a16.6 16.6 0 0 0-5.311 2.267q-1.984 1.293-2.131 3.527a.85.85 0 0 0 .424.788 46.5 46.5 0 0 0 6.397 3.042q.388.481.858.713a266 266 0 0 0 26.339 11.329q.262.094.841-.069 4.972 2.174 9.757 2.528c9.638.722 13.896-10.815 13.966-18.653.041-4.718-2.805-6.835-7.185-8.091a46.7 46.7 0 0 0-11.153-1.786q-9.753-.803-18.828.918-6.405 1.215-13.974 3.487"/><path fill="#ECE1DF" d="m219.018 185.794 20.804.527a229 229 0 0 1-9.389 16.585l-2.258 2.744a.53.53 0 0 1-.339.188c-8.434 1.15-16.848 1.019-25.31.383q-5.544-.416-8.145-.248c-11.381.717-22.833 5.774-32.471 11.65a.17.17 0 0 1-.097.024.2.2 0 0 1-.094-.034.17.17 0 0 1-.062-.181c3.36-12.475 10.688-26.006 24.49-28.836q11.9-2.443 22.441-2.634c3.47-.066 6.973.028 10.43-.168"/><path fill="#E8A887" d="m270.746 186.117 6.209 7.099 5.634 7.798q-4.686-.901-8.201 2.19c-4.087 3.592-6.496 9.289-7.606 14.501-16.052 26.006-3.384 55.327 12.125 77.662 1.722 2.479-4.009 13.543-5.573 16.687q-.057.118.049.196l.119.082q-3.16 4.2-8.467 4.591c-3.858.286-8.369.637-12.182.013a1319 1319 0 0 1 8.675-19.84c1.413-3.16-2.821-6.582-4.633-9.098-5.532-7.687-8.651-17.319-10.59-26.283-2.478-11.459-3.254-22.274-3.727-34.529-.36-9.249-5.291-17.539-11.917-24.199-.098-.097-.09-.061-.228-.081a229 229 0 0 0 9.389-16.585q15.464.236 30.924-.204"/><path fill="#FBF9FC" d="m148.063 193.261 2.478.094a49 49 0 0 0-9.876 13.882c-2.649 5.558-2.841 10.725-2.053 16.765.694 5.317-3.103 6.569-7.01 8.678-16.615 8.967-21.007 27.502-17.905 44.846 2.201 12.291 9.782 20.847 23.343 19.86a.32.32 0 0 0 .294-.208c8.067-18.984 24.445-29.354 45.135-29.729q10.622-.192 19.591 6.415a75.4 75.4 0 0 1 9.594 9.412 2852 2852 0 0 0 12.847 16.508c7.079 9.024 16.444 16.055 28.352 17.152 3.813.624 8.324.273 12.182-.013q5.307-.391 8.467-4.591a36.2 36.2 0 0 0 7.095-8.948c4.303-7.634 7.748-14.95 16.999-17.555q4.11-1.16 9.177-1.363c1.662.217 3.503.159 5.017.653 15.027 4.861 15.836 25.284 14.329 37.975-.208 1.753-.739 3.739.017 5.17 9.291 17.666 23.673 31.984 40.056 43.505a119 119 0 0 0 6.842 4.453q28.03 16.944 59.68 25.724a74 74 0 0 0 11.247 2.729.07.07 0 0 0 .057-.021l.074-.073a.13.13 0 0 1 .13-.041q3.589.905 7.271 1.146l2.564.4q.359.057.065.273l-.792.583q-.649-.126-.845-.065c-23.808 7.679-49.674 6.724-69.368-10.448q-.543-.47-.093.089l20.926 26.349c15.37 19.766 29.054 37.114 41.501 57.157 7.181 11.566 17.473 20.427 28.728 27.874 5.099 3.372 10.639 6.883 16.215 9.946a.199.199 0 0 1-.045.367l-2.115.571q-.236-.759-1.163-.706c-1.155.066-2.87.09-4.266.025-52.573-2.512-97.679-30.361-125.006-75.073a.15.15 0 0 0-.131-.081q-.106-.012-.057.085.351.685 1.11 2.415 12.656 28.831 21.657 57.696c1.641 5.264 3.156 11.018 4.691 16.54 2.841 11.26 4.903 22.845 5.499 34.447 1.367 26.458 3.506 53.92 12.124 79.13q.992 2.896 3.107 6.362.143.233-.131.233l-2.449.012a.15.15 0 0 1 .102-.086q.077-.02.029-.033a118 118 0 0 0-5.72-.954c-6.711-.938-14.57-2.879-19.04-3.96-97.067-23.424-175.297-100.82-219.87-212.946-.015-.026.027.013 0 0s.03-.005 0 0c-.022.02.007-.03 0 0-8.438 38.888-38.226 101.739-69.158 127.332-33.77 27.943-75.912 33.982-118.393 27.69-.518-.077-.967.074-1.498.086l-1.666-.547a.1.1 0 0 1-.051-.034.102.102 0 0 1 .04-.157 114.2 114.2 0 0 0 30-20.13c24.278-22.559 41.437-51.134 54.329-81.405a390 390 0 0 0 14.19-39.716.12.12 0 0 0-.04-.121.1.1 0 0 0-.062-.021.1.1 0 0 0-.061.02c-25.131 16.87-53.271 30.014-82.485 36.898q-9.818 2.312-22.53 3.103c-3.372.208-7.16.13-10.75.196-.962.016-2.142-.392-3.367-.037l-4.483-.714a.1.1 0 0 1-.05-.027.1.1 0 0 1-.02-.109.1.1 0 0 1 .038-.043q36.039-20.187 64.53-49.993a171 171 0 0 0 10.304-11.814q18.236-21.662 28.813-48.031a.134.134 0 0 0-.058-.163.14.14 0 0 0-.09-.017.14.14 0 0 0-.08.046 405 405 0 0 1-33.655 36.351c-7.888 7.545-16.195 14.481-26.279 18.918q-.657.29-2.73.718-.173.033-.221-.131a.3.3 0 0 1-.008-.163c21.065-19.998 40.223-42.04 56.524-66.096 15.023-22.164 26.299-44.276 33.353-69.967a78 78 0 0 0 9.484 16.047.234.234 0 0 0 .375-.008c14.721-20.488 26.372-48.288 20.665-73.98q-.045-.2-.249-.22a39 39 0 0 0-8.977.147q1.809-3.483 4.752-5.713l46.874-26.761zm28.968 123.226c2.494-3.026 6.152-3.372 7.936.649q11.806 26.637 39.481 35.205c16.313 5.049 33.014.404 47.902-6.72q1.16-.555 1.837-1.089.568-.445-.073-.119c-21.33 10.893-47.086 9.457-66.718-4.294q-11.643-8.156-16.24-22.082c-.886-2.675-1.106-6.089 2.074-7.28 4.033-1.504 9.373 1.244 12.778 3.634q.375.261.139-.126-1.185-1.942-3.066-3.589c-7.328-6.415-18.13-7.039-24.592.93a29.26 29.26 0 0 0-5.74 11.524q-.061.241.045.012 1.55-3.397 4.237-6.655"/><path fill="#ECE1DF" d="M282.589 201.014c1.225.538 2.519 1.06 3.474 1.998 6.128 6.011 6.377 17.454 5.519 25.337q-1.829-1.884-4.506-5.037c-4.969-5.831-12.868-9.844-20.294-5.607 1.11-5.212 3.519-10.909 7.606-14.501q3.515-3.091 8.201-2.19"/><path fill="#C9836D" d="M291.582 228.349c1.442 7.414 2.14 14.297.527 21.785a.63.63 0 0 0 .037.389.65.65 0 0 0 .257.296c11.872 7.271 19.342 19.521 14.37 33.647q-5.066.204-9.177 1.363c-9.251 2.605-12.696 9.921-16.999 17.555a36.2 36.2 0 0 1-7.095 8.948l-.119-.082q-.106-.078-.049-.196c1.564-3.144 7.295-14.208 5.573-16.687-15.509-22.335-28.177-51.656-12.125-77.662 7.426-4.237 15.325-.224 20.294 5.607q2.678 3.153 4.506 5.037m-10.357 26.491q3.132.166 6.561-1.244c3.923-1.615 4.017-4.046 4.017-8.148 0-5.746-.49-11.973-8.218-11.137q-5.895.257-10.692 3.47c-1.931 1.293-3.27 2.814-4.09 4.902-1.943 4.938-3.491 13.066 4.801 12.935 3.184-.053 5.531.123 7.621-.778"/><path fill="#5A2F30" d="M209.323 224.356q-2.924.482-4.793 2.304c-2.09 2.035-2.596 5.514-1.237 8.054q2.829 5.294 8.638 3.499a.23.23 0 0 1 .223.051q.044.042.061.101a.23.23 0 0 1 .002.118q-1.857 7.54-8.279 11.875-.58.163-.841.069a266 266 0 0 1-26.339-11.329 2.6 2.6 0 0 1-.858-.713q-.531-4.796.621-9.624 7.569-2.272 13.974-3.487 9.075-1.72 18.828-.918m-9.708 11.178a4.15 4.15 0 0 0-1.217-2.935 4.159 4.159 0 0 0-7.095 2.935 4.153 4.153 0 0 0 4.156 4.152 4.153 4.153 0 0 0 4.156-4.152"/><path fill="#ECE1DF" d="M203.938 250.358q6.422-4.335 8.279-11.875a.225.225 0 0 0-.286-.27q-5.81 1.795-8.638-3.499c-1.359-2.54-.853-6.019 1.237-8.054q1.87-1.822 4.793-2.304 5.69.216 11.153 1.786c4.38 1.256 7.226 3.373 7.185 8.091-.07 7.838-4.328 19.375-13.966 18.653q-4.785-.354-9.757-2.528"/><path fill="#DC9370" d="M73.106 283.81a.7.7 0 0 1-.02-.404.65.65 0 0 0-.025-.379q-6.42-18.147-.6-36.568c3.4-10.754 10.77-18.318 21.943-20.663a39 39 0 0 1 8.977-.147q.204.02.249.22c5.707 25.692-5.944 53.492-20.665 73.98a.24.24 0 0 1-.08.072.24.24 0 0 1-.212.004.23.23 0 0 1-.084-.068 78 78 0 0 1-9.483-16.047m18.016-39.524a.08.08 0 0 0-.054-.032.08.08 0 0 0-.06.015.08.08 0 0 0-.032.054.08.08 0 0 0 .015.06c5.066 7.879.184 21.916-3.51 30.068q-1.104 2.439.126.057c3.51-6.782 9.85-23.245 3.515-30.222"/><path fill="#ECE1DF" d="M176.521 228.761q-1.152 4.828-.621 9.624a46.5 46.5 0 0 1-6.397-3.042.85.85 0 0 1-.424-.788q.147-2.234 2.131-3.527a16.6 16.6 0 0 1 5.311-2.267m23.094 6.773a4.153 4.153 0 0 1-4.156 4.152 4.153 4.153 0 0 1-2.939-7.087 4.159 4.159 0 0 1 7.095 2.935"/><path fill="#5A2F30" d="m283.585 234.311.976 1.293a.32.32 0 0 1 .058.258.33.33 0 0 1-.152.215c-4.87 2.907-3.576 10.08 2.327 10.178a.2.2 0 0 1 .074.019.2.2 0 0 1 .059.048.18.18 0 0 1 .03.145q-1.339 5.18-5.732 8.373c-2.09.901-4.437.725-7.621.778-8.292.131-6.744-7.997-4.801-12.935.82-2.088 2.159-3.609 4.09-4.902q4.797-3.213 10.692-3.47m-4.947 12.409a2.72 2.72 0 0 0 1.997-.917 3.22 3.22 0 0 0 .815-2.186 3.3 3.3 0 0 0-.224-1.178 3.1 3.1 0 0 0-.621-.996 2.8 2.8 0 0 0-.924-.662 2.7 2.7 0 0 0-1.086-.227 2.73 2.73 0 0 0-1.997.917 3.23 3.23 0 0 0-.814 2.186c.003.405.079.805.224 1.178s.356.712.621.996.579.509.924.662c.344.153.713.23 1.085.227"/><path fill="#ECE1DF" d="M281.225 254.84q4.393-3.193 5.732-8.373a.18.18 0 0 0-.03-.145.2.2 0 0 0-.059-.048.2.2 0 0 0-.074-.019c-5.903-.098-7.197-7.271-2.327-10.178a.32.32 0 0 0 .15-.35.3.3 0 0 0-.056-.123l-.976-1.293c7.728-.836 8.218 5.391 8.218 11.137 0 4.102-.094 6.533-4.017 8.148q-3.429 1.41-6.561 1.244"/><path fill="#ECE1DF" d="M278.638 246.72a2.6 2.6 0 0 1-1.085-.227 2.8 2.8 0 0 1-.924-.662 3.1 3.1 0 0 1-.621-.996 3.3 3.3 0 0 1-.224-1.178 3.23 3.23 0 0 1 .814-2.186 2.73 2.73 0 0 1 1.997-.917c.372-.002.741.075 1.086.227s.659.378.924.662.476.623.621.996.221.774.224 1.178a3.22 3.22 0 0 1-.815 2.186 2.72 2.72 0 0 1-1.997.917"/><path fill="#5A2F30" d="M91.122 244.286c6.335 6.977-.004 23.44-3.515 30.222q-1.23 2.382-.127-.057c3.695-8.152 8.577-22.189 3.511-30.068a.08.08 0 0 1-.016-.06.08.08 0 0 1 .032-.054.08.08 0 0 1 .06-.015q.034.005.055.032"/><path fill="#C9836D" d="M211.654 283.276a75.4 75.4 0 0 0-9.594-9.412c.123-.188.2-.306.176-.547q-.69-6.623 4.903-10.064c2.082-1.281 4.654-2.822 7.172-2.48q.07.01.128.05a.3.3 0 0 1 .087.106.3.3 0 0 1 .025.134.26.26 0 0 1-.044.13c-4.237 6.57-4.221 13.963-2.392 21.569a.42.42 0 0 1-.086.379q-.13.163-.375.135"/><path fill="#5A2F30" d="M184.967 317.136c-1.784-4.021-5.442-3.675-7.936-.649q-2.686 3.259-4.237 6.655-.106.23-.045-.012a29.26 29.26 0 0 1 5.74-11.524c6.462-7.969 17.264-7.345 24.592-.93q1.881 1.647 3.066 3.589.236.387-.139.126c-3.405-2.39-8.745-5.138-12.778-3.634-3.18 1.191-2.96 4.605-2.074 7.28q4.597 13.926 16.24 22.082c19.632 13.751 45.388 15.187 66.718 4.294q.641-.326.073.119-.677.534-1.837 1.089c-14.888 7.124-31.589 11.769-47.902 6.72q-27.675-8.568-39.481-35.205"/><path fill="#C7C3C5" d="M17.537 412.345c-10.418 4.466-23.278 8.458-34.7 8.144q-.254-.004-.102-.208.204-.268.494-.408a.3.3 0 0 0 .008.163q.049.164.22.131 2.074-.429 2.731-.718c10.084-4.437 18.391-11.373 26.279-18.918a405 405 0 0 0 33.655-36.351.14.14 0 0 1 .08-.046.14.14 0 0 1 .15.088q.016.047-.002.092-10.577 26.369-28.813 48.031m435.793-5.403q-.273.35-.902.803c-13.031 9.376-28.748 16.031-45.208 15.073a22.5 22.5 0 0 0-3.27.049l-20.926-26.349q-.45-.558.093-.089c19.694 17.172 45.56 18.127 69.368 10.448q.196-.061.845.065m-20.616-4.996c2.392-.175 6.287 1.126 8.724 1.66 2.67.583 6.74 1.056 10.055 2.08a40.6 40.6 0 0 1-7.271-1.146.13.13 0 0 0-.13.041l-.074.073a.07.07 0 0 1-.057.021 74 74 0 0 1-11.247-2.729M52.323 474.723q-.192 0-.388.041c-34.21 7.365-69.972 6.141-104.717.281 1.225-.355 2.404.053 3.368.037 3.588-.066 7.377.012 10.749-.196q12.713-.791 22.53-3.103c29.214-6.884 57.354-20.028 82.485-36.898a.1.1 0 0 1 .061-.02q.034 0 .062.021a.11.11 0 0 1 .04.121 390 390 0 0 1-14.19 39.716m435.911 44.059a176 176 0 0 1-33.83 8.576q-.037.004-1.511.412c-.906.249-1.575-.078-2.404.041-22 3.152-44.869 1.264-65.179-8.193a.15.15 0 0 0-.143.008l-.098.057c-1.535-5.522-3.05-11.276-4.691-16.54q-9.001-28.865-21.657-57.696-.759-1.73-1.11-2.415-.05-.097.057-.085.086.005.131.081c27.327 44.712 72.433 72.561 125.006 75.073 1.396.065 3.111.041 4.266-.025q.927-.053 1.163.706m-85.015 121.085a.3.3 0 0 1-.204.081 310 310 0 0 1-54.026-3.739q-.258-.041-1.556-.013c-.91.021-1.363-.391-2.098-.509-71.335-11.264-137.413-42.143-189.438-92.221a.22.22 0 0 0-.134-.062.23.23 0 0 0-.144.038c-31.495 21.336-67.947 36.584-105.395 42.55q-2.742.437-12.275 1.248c-23.217 1.974-46.768-1.105-68.278-10.244.53-.012.98-.163 1.498-.086 42.481 6.292 84.624.253 118.393-27.69 30.932-25.593 60.72-88.444 69.158-127.332-.022.02.007-.03 0 0-.027-.013.03-.005 0 0-.015-.026.027.013 0 0 44.573 112.126 122.803 189.522 219.87 212.946 4.47 1.081 12.329 3.022 19.04 3.96q2.854.404 5.72.954.048.013-.029.033a.15.15 0 0 0-.102.086"/></g><defs><clipPath id="clip0_4190_3031"><rect width="512" height="512" fill="#fff" rx="256"/></clipPath></defs></svg>
