<svg xmlns="http://www.w3.org/2000/svg" fill="none" viewBox="0 0 308 309"><path fill="#000" d="m245.104 47.475-57.158 10.463-3.491-3.99q6.704-.4 9.986-1.02c3.221-.605 5.256-2.527 7.622-4.761l.161-.152c11.973-11.295 23.422-23.044 35.87-33.844a79 79 0 0 1 10.131-7.466c2.107-1.31 4.678-2.665 7.037-1.939 5.006 1.54 6.647 8.663 6.5 13.138-.292 8.818-4.827 17.471-10.948 23.672-1.416 1.437-4.065 3.607-5.933 5.635q-.082.09.009.17.099.09.214.093m19.977-38.965a4.9 4.9 0 0 1 .326 1.89zM140.445 20.663l-.195.174a.3.3 0 0 1-.186.08 47 47 0 0 0-4.551.59c-17.482 3.228-23.048 20.658-21.186 36.064q.024.209.011.427L87.985 73.035c-1.175-12.854 6.466-25.86 14.558-35.229 9.498-10.995 23.413-16.87 37.902-17.143"/><path fill="#000" d="M140.445 20.663c5.265.011 9.165.087 13.822 1.726 6.346 2.234 10.619 6.597 13.796 12.4a.73.73 0 0 1 .105.36q-.048.1-.229.176-12.764 5.37-43.172 18.291-4.613 1.877-9.233 3.76-.477.195-.053.587l-1.143.035a2.4 2.4 0 0 0-.011-.427c-1.862-15.406 3.704-32.836 21.186-36.065a47 47 0 0 1 4.551-.589.3.3 0 0 0 .186-.08zm123.126 3.944a5.4 5.4 0 0 1-.728 1.948 6.5 6.5 0 0 1 .728-1.948m-79.116 29.341 3.491 3.99 3.167 4.381q-2.636-.506-4.611 1.231c-2.298 2.019-3.652 5.22-4.276 8.149-9.024 14.613-1.903 31.09 6.817 43.641.968 1.393-2.254 7.61-3.133 9.377q-.032.066.027.11l.067.046q-1.776 2.36-4.76 2.58c-2.169.16-4.705.357-6.849.007a745 745 0 0 1 4.877-11.149c.794-1.776-1.586-3.698-2.605-5.112-3.11-4.32-4.863-9.733-5.953-14.77-1.393-6.439-1.83-12.516-2.096-19.402-.202-5.198-2.974-9.856-6.699-13.599-.055-.054-.051-.034-.129-.045q2.835-4.551 5.279-9.32 8.694.132 17.386-.115"/><path fill="#000" d="m115.481 57.963 1.393.053a27.6 27.6 0 0 0-5.552 7.8c-1.489 3.124-1.597 6.027-1.154 9.421.39 2.988-1.744 3.692-3.941 4.877-9.341 5.039-11.81 15.454-10.067 25.2 1.238 6.907 5.5 11.714 13.124 11.16a.18.18 0 0 0 .165-.117c4.536-10.667 13.744-16.495 25.376-16.705q5.971-.108 11.014 3.604a42.4 42.4 0 0 1 5.393 5.289q3.597 4.654 7.223 9.276c3.98 5.072 9.245 9.022 15.94 9.639 2.144.35 4.68.153 6.849-.007q2.984-.22 4.76-2.58a20.4 20.4 0 0 0 3.989-5.028c2.419-4.29 4.356-8.401 9.557-9.865q2.311-.65 5.159-.766c.934.122 1.97.09 2.821.367 8.448 2.731 8.903 14.208 8.056 21.339-.117.985-.415 2.101.009 2.906 5.224 9.927 13.31 17.973 22.52 24.446a66 66 0 0 0 3.847 2.503 133.6 133.6 0 0 0 33.552 14.455 42 42 0 0 0 6.324 1.533.04.04 0 0 0 .032-.011l.041-.042a.07.07 0 0 1 .073-.023q2.018.51 4.088.644l1.441.225q.202.032.037.153l-.445.328q-.365-.07-.475-.036c-13.385 4.315-27.927 3.778-38.999-5.872q-.305-.262-.053.051l11.765 14.806c8.641 11.107 16.334 20.855 23.332 32.119 4.037 6.498 9.824 11.478 16.151 15.662 2.867 1.896 5.981 3.869 9.117 5.59a.1.1 0 0 1 .045.047.1.1 0 0 1 .011.064.1.1 0 0 1-.026.06.1.1 0 0 1-.056.035l-1.189.321q-.132-.427-.654-.397c-.649.037-1.613.051-2.398.014-29.557-1.412-54.916-17.061-70.28-42.186a.08.08 0 0 0-.073-.045q-.06-.007-.032.048.197.385.624 1.356 7.115 16.201 12.176 32.421c.922 2.959 1.774 6.192 2.637 9.295 1.597 6.327 2.756 12.838 3.091 19.357.769 14.868 1.972 30.299 6.817 44.466q.558 1.627 1.747 3.575.08.13-.074.13l-1.377.007a.08.08 0 0 1 .057-.048q.044-.012.016-.018a66 66 0 0 0-3.215-.536c-3.773-.527-8.191-1.618-10.705-2.226-54.571-13.162-98.553-56.654-123.612-119.661-.009-.015.015.007 0 0-.015-.008.017-.003 0 0-.013.011.004-.017 0 0-4.744 21.852-21.491 57.17-38.881 71.552-18.986 15.702-42.678 19.096-66.562 15.56-.291-.044-.544.041-.842.048l-.937-.307a.06.06 0 0 1-.041-.052q0-.017.008-.033a.06.06 0 0 1 .027-.023 64.2 64.2 0 0 0 16.867-11.311c13.649-12.677 23.295-28.734 30.543-45.744a219 219 0 0 0 7.978-22.318.06.06 0 0 0-.023-.068.06.06 0 0 0-.034-.012.06.06 0 0 0-.034.011c-14.13 9.48-29.95 16.866-46.374 20.734q-5.52 1.3-12.667 1.744c-1.896.117-4.025.073-6.043.11-.542.009-1.205-.22-1.893-.02l-2.52-.401a.1.1 0 0 1-.03-.016.06.06 0 0 1-.01-.061.05.05 0 0 1 .021-.024 154 154 0 0 0 36.28-28.093 96 96 0 0 0 5.793-6.638 98.7 98.7 0 0 0 16.199-26.991.075.075 0 0 0-.033-.091.074.074 0 0 0-.096.016 228 228 0 0 1-18.921 20.427c-4.434 4.239-9.105 8.137-14.774 10.63q-.37.163-1.535.404-.097.019-.124-.074a.2.2 0 0 1-.005-.091c11.843-11.238 22.614-23.624 31.779-37.142 8.446-12.455 14.785-24.88 18.751-39.317a43.8 43.8 0 0 0 5.332 9.018.13.13 0 0 0 .106.051.14.14 0 0 0 .105-.056c8.276-11.513 14.826-27.135 11.618-41.571q-.026-.113-.14-.124a22 22 0 0 0-5.047.082q1.017-1.957 2.671-3.21l26.353-15.037zm16.286 69.245c1.403-1.701 3.459-1.895 4.462.364q6.638 14.969 22.196 19.783c9.172 2.837 18.561.227 26.932-3.776a5.6 5.6 0 0 0 1.032-.612q.32-.25-.041-.067c-11.992 6.121-26.472 5.315-37.509-2.413q-6.547-4.582-9.13-12.409c-.498-1.503-.622-3.421 1.166-4.09 2.267-.846 5.269.699 7.183 2.042q.212.147.078-.071a8.7 8.7 0 0 0-1.723-2.017c-4.12-3.604-10.193-3.955-13.826.523a16.44 16.44 0 0 0-3.227 6.476q-.035.135.025.007.872-1.91 2.382-3.74"/><path fill="#000" d="M146.895 90.048q3.61-2.436 4.654-6.674a.12.12 0 0 0-.036-.123l-.014-.011-.005-.003-.005-.003-.001-.001-.008-.004-.005-.002-.009-.004q-.005 0-.011-.003a.13.13 0 0 0-.066.003q-3.267 1.008-4.857-1.966c-.764-1.428-.48-3.382.695-4.526q1.051-1.024 2.695-1.295 3.2.122 6.27 1.004c2.463.706 4.063 1.895 4.04 4.547-.039 4.404-2.433 10.887-7.852 10.481q-2.69-.2-5.485-1.42m-15.414-12.137a15.7 15.7 0 0 0-.349 5.408 26 26 0 0 1-3.597-1.71.47.47 0 0 1-.239-.441q.084-1.256 1.199-1.983a9.4 9.4 0 0 1 2.986-1.274m58.865 14.655q2.47-1.794 3.223-4.705a.1.1 0 0 0 0-.043.1.1 0 0 0-.018-.038.1.1 0 0 0-.033-.028.1.1 0 0 0-.041-.01c-3.319-.055-4.046-4.086-1.308-5.72a.2.2 0 0 0 .055-.05.18.18 0 0 0 .029-.146.2.2 0 0 0-.032-.07l-.548-.726c4.345-.47 4.62 3.03 4.62 6.258 0 2.306-.053 3.672-2.258 4.579q-1.928.793-3.689.699M83.468 86.635c3.563 3.921-.002 13.172-1.976 16.983q-.69 1.338-.07-.032c2.076-4.58 4.821-12.468 1.973-16.896a.046.046 0 1 1 .073-.055m67.764 21.91a42.4 42.4 0 0 0-5.393-5.289c.069-.105.112-.172.099-.307q-.388-3.721 2.756-5.656c1.171-.72 2.617-1.585 4.033-1.393q.04.005.071.028a.2.2 0 0 1 .049.06l.001.002.009.024v.001a.16.16 0 0 1-.02.121c-2.383 3.692-2.373 7.847-1.345 12.12a.24.24 0 0 1-.048.213q-.074.093-.212.076M42.099 181.074c-5.858 2.509-13.087 4.752-19.51 4.576q-.141-.003-.057-.117a.75.75 0 0 1 .278-.229.2.2 0 0 0 .005.091q.027.093.124.074 1.166-.241 1.535-.404c5.67-2.493 10.34-6.391 14.774-10.63a228 228 0 0 0 18.921-20.427.074.074 0 0 1 .096-.016.075.075 0 0 1 .033.091 98.7 98.7 0 0 1-16.2 26.991m245.007-3.037a2.6 2.6 0 0 1-.507.452c-7.326 5.268-16.163 9.008-25.417 8.469a13 13 0 0 0-1.838.028l-11.765-14.806q-.252-.313.053-.051c11.072 9.65 25.614 10.187 38.999 5.872q.11-.035.475.036m-11.591-2.807c1.345-.099 3.535.632 4.905.933 1.501.327 3.789.593 5.653 1.168a22.7 22.7 0 0 1-4.088-.644.07.07 0 0 0-.073.023l-.041.042a.04.04 0 0 1-.032.011 42 42 0 0 1-6.324-1.533M61.655 216.126q-.108 0-.218.022c-19.233 4.139-39.338 3.452-58.872.159.688-.2 1.351.029 1.893.02 2.018-.037 4.147.007 6.043-.11q7.147-.444 12.667-1.744c16.424-3.868 32.245-11.254 46.374-20.734a.06.06 0 0 1 .034-.011q.019 0 .035.012a.06.06 0 0 1 .022.068 219 219 0 0 1-7.978 22.318m245.073 24.758a99 99 0 0 1-19.019 4.819q-.02.002-.85.231c-.509.14-.886-.043-1.351.023-12.369 1.772-25.226.711-36.645-4.604a.08.08 0 0 0-.08.005l-.055.032c-.863-3.103-1.715-6.336-2.637-9.295q-5.061-16.22-12.176-32.421-.427-.971-.624-1.356-.028-.055.032-.048a.08.08 0 0 1 .073.045c15.364 25.125 40.723 40.774 70.28 42.186.785.037 1.749.023 2.398-.014q.522-.03.654.397m-47.796 68.041a.17.17 0 0 1-.115.046 174.5 174.5 0 0 1-30.374-2.101q-.144-.024-.874-.007c-.512.011-.767-.22-1.18-.287-40.105-6.329-77.254-23.681-106.504-51.821a.124.124 0 0 0-.156-.014c-17.707 11.989-38.2 20.558-59.253 23.91q-1.543.245-6.902.701c-13.052 1.11-26.293-.621-38.386-5.756.298-.007.55-.092.842-.048 23.883 3.536 47.576.142 66.562-15.56 17.39-14.382 34.137-49.7 38.881-71.552-.013.011.004-.017 0 0-.015-.008.017-.003 0 0-.009-.015.015.007 0 0 25.059 63.007 69.041 106.499 123.612 119.661 2.514.608 6.932 1.699 10.705 2.226q1.605.227 3.215.536.028.006-.016.018a.08.08 0 0 0-.057.048"/><path fill="#000" fill-rule="evenodd" d="m151.48 83.23-.005-.003zm-20.348.09q.218.27.482.4a150 150 0 0 0 14.808 6.366q.147.054.473-.038 3.61-2.436 4.654-6.674a.12.12 0 0 0-.036-.123l-.014-.011-.005-.003-.005-.003-.001-.001-.008-.004-.014-.006q-.005 0-.011-.003a.13.13 0 0 0-.066.003q-3.267 1.008-4.857-1.966c-.764-1.428-.48-3.382.695-4.526q1.051-1.024 2.695-1.295-5.483-.45-10.585.516-3.602.682-7.856 1.96a15.7 15.7 0 0 0-.349 5.407m12.648-3.252a2.332 2.332 0 0 1-1.652 3.982 2.337 2.337 0 0 1-2.337-2.332 2.337 2.337 0 0 1 3.989-1.65m47.893.963q-3.315.144-6.011 1.95c-1.086.727-1.838 1.581-2.3 2.755-1.092 2.775-1.962 7.342 2.699 7.269 1.79-.03 3.11.068 4.285-.438q2.47-1.794 3.223-4.705a.1.1 0 0 0 0-.043.1.1 0 0 0-.018-.038.1.1 0 0 0-.033-.028.1.1 0 0 0-.041-.01c-3.319-.055-4.046-4.086-1.308-5.72a.2.2 0 0 0 .055-.05.18.18 0 0 0 .029-.146.2.2 0 0 0-.032-.07zm-1.658 6.458a1.53 1.53 0 0 1-1.123.515 1.5 1.5 0 0 1-.611-.127 1.6 1.6 0 0 1-.519-.372 1.7 1.7 0 0 1-.349-.56 1.9 1.9 0 0 1-.126-.662 1.8 1.8 0 0 1 .458-1.228 1.53 1.53 0 0 1 1.123-.515 1.5 1.5 0 0 1 .61.127c.194.086.37.212.519.372s.268.35.35.56.124.434.125.662a1.8 1.8 0 0 1-.457 1.228" clip-rule="evenodd"/><path fill="#000" d="m167.069 54.063-11.696-.296c-1.944.11-3.913.057-5.864.094q-5.926.108-12.617 1.48c-7.759 1.59-11.879 9.194-13.768 16.204a.1.1 0 0 0 .035.102.1.1 0 0 0 .053.02.1.1 0 0 0 .054-.014c5.419-3.302 11.857-6.144 18.256-6.547q1.462-.094 4.579.14c4.757.357 9.488.43 14.229-.216a.3.3 0 0 0 .191-.105l1.269-1.542q2.835-4.551 5.279-9.32m24.044 8.257q-2.636-.507-4.611 1.23c-2.298 2.019-3.652 5.22-4.276 8.149 4.175-2.381 8.616-.126 11.409 3.15q1.506 1.773 2.534 2.83c.482-4.429.342-10.859-3.103-14.237-.537-.527-1.265-.82-1.953-1.123"/><path fill="#000" d="m265.407 10.4-.326-1.891c-1.533-6.224-6.447-9.304-12.8-8.333q-1.42.216-3.695 1.167a224 224 0 0 0-6.627 2.89q-7.539 5.667-12.63 10.584-9.502 9.183-21.682 22.258c-3.303 3.545-6.759 6.948-10.28 10.273-2.063 1.95-4.361 3.117-7.22 3.385-10.161.958-20.012.239-29.355.438-1.173.025-2.527-.147-3.808-.096-.675.025-1.246-.25-1.914-.25q-5.543.006-7.868.174c-1.042.076-2.137-.028-2.814.005-4.73.215-8.774.4-13.238 1.102q-3.239.508-6.383 1.51-4.613 1.877-9.233 3.76-.477.195-.053.587l1.393.053c.588-.094 1.12-.048 1.699-.291 6.828-2.874 15.076-4.943 22.517-4.45.682.043 1.421-.042 2.048-.012q3.12.156 6.242.252c.753.023 2.445-.208 2.835.135q.084.076.2.078l2.958.04 11.696.295q8.694.132 17.386-.115 6.704-.4 9.986-1.02c3.221-.605 5.256-2.527 7.622-4.761l.161-.152c11.973-11.295 23.422-23.044 35.87-33.844a79 79 0 0 1 10.131-7.466c2.107-1.31 4.678-2.665 7.037-1.939 5.006 1.54 6.647 8.663 6.5 13.138-.292 8.818-4.827 17.471-10.948 23.672-1.416 1.437-4.065 3.607-5.933 5.635q-.082.09.009.17.099.09.214.093 4.621-3.045 7.473-5.724 6.604-6.202 10.266-15.195a6.5 6.5 0 0 1 .728-1.948c1.624-4.728 2.497-9.187 1.836-14.208"/></svg>