<svg xmlns="http://www.w3.org/2000/svg" fill="none" viewBox="0 0 512 512"><rect width="512" height="512" fill="#000" rx="256"/><path fill="#fff" d="M73.002 228.017c.542-42.497 24.03-79.906 57.4-104.846 33.491-25.033 74.36-38.142 115.992-39.97 36.794-1.613 72.953 6.53 105.552 23.468 44.742 23.252 86.039 67.257 88.024 120.218q.15 4.03-.45 6.219c-1.244 4.562-4.896 8.306-9.355 9.796-4.3 1.433-10.594.853-15.896.853q-162.578.017-325.15.004c-9.78 0-16.24-5.775-16.117-15.742m345.634-5.652c-.406-7.08-2.607-14.946-4.852-21.042-11.362-30.838-36.574-55.915-64.621-72.158q-48.236-27.937-104.321-24.76c-51.998 2.945-107.294 27.323-135.514 72.8q-12.822 20.664-15.186 45.077a.27.27 0 0 0 .265.29l324.052-.018q.19 0 .177-.189"/><path fill="#9505FF" d="M437.14 265.968H74.975a.206.206 0 0 0-.206.204v34.065c0 .112.092.204.206.204H437.14a.206.206 0 0 0 .207-.204v-34.065a.206.206 0 0 0-.207-.204"/><path fill="#fff" d="M190.252 350.194q5.433.716 6.228-4.327c1.146-7.309.454-19.52 9.314-22.542q1.87-.637 6.466-.637 104.396.013 208.787-.149c1.557-.005 3.789.026 5.429.276 5.553.853 10.224 4.832 11.886 10.099q.706 2.24.728 7.722.04 8.485.018 16.968-.014 5.49-.419 8.758c-3.312 26.561-23.724 47.856-50.593 51.229q-3.224.41-8.807.409H129.577q-11.246 0-22.555-5.236c-18.678-8.644-31.296-26.082-33.634-46.415q-.348-3.022-.362-8.767-.021-8.988-.026-17.974 0-3.786.591-5.891c1.9-6.764 7.573-10.928 14.775-10.998a910 910 0 0 1 20.632.022c7.441.088 13.227 3.847 15.159 11.082q.582 2.192.573 6.325-.014 6.097 0 12.185.004 1.902 1.372 3.694c3.872 5.069 12.124 5.148 14.797-1.217q.564-1.349.569-4.001c.009-3.519-.119-7.485.556-10.665 1.698-7.986 7.758-14.715 15.807-16.793 13.055-3.369 24.773 5.491 26.776 18.33.577 3.698.93 7.893 5.645 8.513m26.158 1.844c-6.571 24.567-39.822 26.096-50.041 3.361-1.477-3.29-2.152-7.314-2.743-11.047a.54.54 0 0 0-.604-.457q-.257.03-.393.329-.08.171-.075.475.044 7.427-.136 9.364c-.997 10.845-7.701 20.192-17.704 24.528-15.176 6.575-33.136-1.138-39.24-16.511-2.236-5.64-1.901-10.859-1.773-17.996q.005-.295-.291-.295l-9.165-.004q-.225 0-.22.22.066 7.3.061 14.596-.004 4.884.534 7.801c2.774 14.982 14.444 27.303 29.7 29.991q2.972.523 8.786.523 123.166-.004 246.333.005 5.257 0 8.318-.576c15.189-2.864 26.943-14.93 29.607-30.123 1.182-6.743.556-15.185.556-22.406a.07.07 0 0 0-.021-.05.07.07 0 0 0-.05-.021l-199.904.071q-.255 0-.282.259c-.269 2.688-.617 5.592-1.253 7.963"/></svg>