<svg xmlns="http://www.w3.org/2000/svg" fill="none" viewBox="0 0 445 515"><path fill="#000" fill-rule="evenodd" d="M211.718 481.132c15.183-5.916 21.41-21.501 12.909-35.921q-4.578-7.764-1.28.626c10.435 26.421-23.912 39.134-38.215 16.296-10.349-16.523-.056-34.014 18.425-36.147 64.914-7.537 44.47 129.232 130.397 76.276 9.184-5.659 18.197-9.811 26.443-17.291a170 170 0 0 1 21.296-16.439c32.301-21.131 48.735-51.562 43.902-90.326-6.17-49.372-50.669-67.943-88.741-88.704-8.957-4.892-12.682-13.225-17.373-21.643q-.882-1.593.824-.939a1370 1370 0 0 1 68.923 29.578c22.178 10.267 42.082 27.359 42.082 52.216a1.021 1.021 0 0 0 1.417.909c.204-.085.376-.235.488-.425 22.576-40.613 11.373-91.066-27.552-116.093-29.827-19.197-74.268-21.359-105.062-27.701q-17.288-3.555-30.936-15.784a4.7 4.7 0 0 1-1.364-2.162l-5.175-17.007q-.428-1.393.711-.483c21.979 17.092 47.483 22.041 74.666 23.065 29.315 1.109 58.886 2.417 73.614 27.814a1.084 1.084 0 0 0 1.909-.037 1.08 1.08 0 0 0 .082-.759c-17.459-69.423-80.922-112.225-151.21-110.661q-7.108.142-29.883 3.555-1.508.228-2.474-.938c-22.775-27.872-47.854-46.187-85.073-49.4q-6.284-.541-10.748.255-1.308.228-1.536 1.536l-.853 5.148q-.227 1.421-1.62 1.706-3.867.796-3.867 5.375-.199 39.133 23.656 69.565.57.683-.312.483-15.383-3.81-20.728-9.812C78.317 79.566 1.549-.991.047.009s33.595 40.592 42.605 50.539a12579 12579 0 0 1 103.925 116.121c3.497 3.981 4.151 8.532 2.331 13.679-13.619 38.11-60.62 3.555-64.06 55.459q-1.65 24.942-12.227 47.409c-19.192 40.698-11.771 56.653 23.941 81.851q7.705 5.46 10.549 11.205c16.207 32.65-36.31 51.307-60.592 55.942q-1.222.228-1.876-.796l-.567-.878c-20.138-31.223-38.481-59.661-21.185-94.994 4.72-9.584 15.155-21.557 22.576-30.459q27.069-32.535 31.078-75.338 1.479-15.756 14.956-31c6.028-6.797 2.957-15.87-1.336-23.804a9198 9198 0 0 0-41.058-74.826C41.06 85.614 30.909 73.556 20.815 60.644a.655.655 0 0 0-1.08.74A59770 59770 0 0 0 80.042 169.37a140 140 0 0 1 8.644 18.373c.355.92.432 1.925.22 2.891a5.07 5.07 0 0 1-1.414 2.541c-12.88 12.57-15.866 22.894-18.368 42.433-4.379 34.441-20.671 54.121-40.86 80.514q-12.14 15.926-15.183 23.861c-15.439 40.214 12.397 66.777 25.761 100.251q.512 1.338 1.934 1.621c22.576 4.778 42.053 5.944 61.331-6.484a4.45 4.45 0 0 1 2.616-.768q25.192.284 45.436 13.424c19.847 12.883 32.756 44.338 61.559 33.105M132.275 74.437c22.633 2.304 42.024 14.192 48.962 37.001 7.336 24.146 10.321 41.636 27.126 60.151a1.452 1.452 0 0 1-1.138 2.417c-47.711-1.678-78.931-55.231-76.401-98.346a1.31 1.31 0 0 1 1.451-1.223m106.483 48.86c59.711-11.916 119.762 11.604 151.522 64.503a.826.826 0 0 1-.445 1.165.83.83 0 0 1-.465.029c-33.381-8.646-68.61-1.849-100.939-16.325-20.671-9.214-37.134-29.236-50.242-47.921q-.852-1.166.569-1.451m123.714 103.608c44.243 8.418 77.538 41.778 71.169 89.529a.65.65 0 0 1-.485.561.7.7 0 0 1-.398-.004.74.74 0 0 1-.339-.215c-40.717-48.405-132.159-45.618-154.167-105.741a1.078 1.078 0 0 1 .784-1.439c.203-.044.415-.028.61.046 27.068 9.612 54.848 11.945 82.826 17.263m-170.601 19.908-28.774 7.906a9.2 9.2 0 0 1-6.968-.864 9.2 9.2 0 0 1-4.321-5.535l-1.194-4.323c-1.719-6.252-.921-12.921 2.219-18.542s8.366-9.734 14.529-11.434a23.8 23.8 0 0 1 9.391-.656 24.1 24.1 0 0 1 8.95 3.034 24.5 24.5 0 0 1 7.146 6.263 24.8 24.8 0 0 1 4.254 8.537l1.194 4.295a9.18 9.18 0 0 1-.863 6.994 9.17 9.17 0 0 1-5.563 4.325m35.684 108.67c35.343-4.437 77.112-10.637 78.363-56.539q.37-13.168-3.128-23.634a1.444 1.444 0 0 1 .789-1.736 1.375 1.375 0 0 1 1.77.598c28.633 52.586-7.762 90.013-59.482 90.98q-33.637.655-64.09 9.101-1.45.399-.199-.455 22.775-15.385 45.977-18.315m109.213-53.439q28.719 13.196 53.569 32.478c35.03 27.189 31.988 77.102 6.341 109.182a1.28 1.28 0 0 1-2.275-.768c-.654-36.119-24.14-65.867-43.333-94.677-9.212-13.879-16.775-29.692-15.695-45.39q.114-1.422 1.393-.825m-140.689 96.355c35.03-3.043 64.687 15.784 69.776 50.822q2.958 20.535 6.739 37.2a1.109 1.109 0 0 1-2.104.654q-9.354-22.439-19.591-41.465c-12.112-22.553-51.806-40.499-71.169-13.481q-8.814 12.229-2.957 29.123 1.422 4.152-1.308.711-20.216-25.483-51.976-32.365-2.076-.456-.427-1.792 32.102-25.824 73.017-29.407" clip-rule="evenodd"/><path fill="#000" d="M175.133 231.977a5.7 5.7 0 0 0-1.27-2.426c-.626-.716-1.434-1.308-2.377-1.745a9.2 9.2 0 0 0-3.123-.797 10.8 10.8 0 0 0-3.393.272c-2.265.544-4.268 1.776-5.566 3.427-1.299 1.65-1.787 3.582-1.357 5.372.213.886.644 1.71 1.27 2.426.626.715 1.434 1.308 2.377 1.744a9.3 9.3 0 0 0 3.123.798c1.118.09 2.271-.002 3.393-.272 2.265-.544 4.268-1.777 5.566-3.427s1.787-3.582 1.357-5.372"/></svg>