<svg xmlns="http://www.w3.org/2000/svg" fill="none" viewBox="0 0 512 512"><path fill="#000" d="M256 512c141.385 0 256-114.615 256-256S397.385 0 256 0 0 114.615 0 256s114.615 256 256 256"/><path fill="url(#paint0_linear_9169_732)" d="M410.43 295.147c0 .241-.022.471-.044.713v.175a90 90 0 0 1-.121 1.942c0 .164-.011.329-.033.482l-.088 1.207a75 75 0 0 1-.296 3.51l-.044.373-.175 1.602-.077.658c-.055.494-.11.987-.186 1.47l-.176 1.327-.274 1.997-.154.965-.186 1.174-.241 1.459q-.05.318-.11.636l-.252 1.415-.242 1.228-.066.319c-.065.362-.131.724-.219 1.075l-.307 1.426-.417 1.875-.417 1.81q-.66 2.724-1.426 5.419l-.109.406-.483 1.645-.033.099-.537 1.755a68 68 0 0 1-.582 1.821l-.603 1.832v.066a101 101 0 0 1-1.689 4.717c-.099.219-.187.471-.274.702l-.724 1.854-.538 1.349c-.285.724-.592 1.426-.899 2.161l-.845 1.952q-.318.741-.658 1.47a4.9 4.9 0 0 1-2.303 2.392 136.7 136.7 0 0 1-53.791 14.007 137 137 0 0 1-54.153-8.073l.219-.208a112 112 0 0 1-15.905-6.659 113.7 113.7 0 0 1-21.751-14.567c1.196.395 2.413.746 3.642 1.053l.537.219a136.5 136.5 0 0 0 55.722 8.644 136.78 136.78 0 0 0 101.308-52.894"/><path fill="url(#paint1_linear_9169_732)" d="M410.978 113v145.893a34.33 34.33 0 0 1-6.318 19.855 112.98 112.98 0 0 1-103.227 47.223q-2.282-.21-4.552-.516a55.24 55.24 0 0 0 14.906-37.756v-99.69l.011-1.24v-.493q.018-1.165.088-2.326l.011-.099.033-.515c0-.231.033-.461.044-.691l.044-.626.12-1.36.077-.724.088-.724c.044-.406.088-.822.154-1.228l.087-.593.11-.811q.117-.827.274-1.646l.022-.131.23-1.262q.013-.054.022-.11l.231-1.097.088-.394v-.033l.197-.878.066-.285v-.022c.109-.505.252-1.009.384-1.525l.329-1.228c.12-.45.252-.911.395-1.361l.373-1.25.043-.11.406-1.239.077-.198q.214-.616.439-1.228l.45-1.251.032-.066.516-1.316.548-1.283a74 74 0 0 1 1.909-4.125l.483-.932.658-1.229c.153-.307.329-.614.493-.91a67.7 67.7 0 0 1 6.34-9.522l.417-.548.439-.538q.816-1.007 1.667-1.985l.307-.351.735-.812c.384-.428.768-.845 1.163-1.25.296-.33.603-.626.899-.933a42 42 0 0 1 1.821-1.788l.461-.439.471-.438c.022 0 .044-.033.066-.055l.922-.834a70 70 0 0 1 2.15-1.832l.043-.033.604-.493.471-.384 1.075-.834.066-.044.943-.713a72 72 0 0 1 1.459-1.053l.801-.548q.115-.07.219-.154l.165-.11.823-.548.131-.077 1.119-.713 1.185-.724.603-.362.592-.34a95 95 0 0 1 2.446-1.349c.253-.143.516-.263.768-.395l.592-.307.933-.461.844-.395.79-.373c.538-.241 1.064-.482 1.613-.713l.811-.329c.406-.186.823-.34 1.24-.504h.022l.043-.011.132-.055 1.47-.571.812-.285q1.216-.44 2.457-.812l.833-.252.834-.241a41 41 0 0 1 1.667-.461l.746-.197q.474-.129.954-.231l.845-.197.855-.187a54 54 0 0 1 3.225-.614l1.097-.186.878-.132.877-.11 1.097-.131.768-.088h.077l.789-.077.79-.077 1.58-.109a58 58 0 0 1 2.435-.11c.471-.022.943-.044 1.426-.044H411V113z"/><path fill="url(#paint2_linear_9169_732)" d="M313.531 388.99h-2.95c-.472 0-.955 0-1.437-.022l-1.448-.044-1.426-.066a121 121 0 0 1-3.609-.241l-1.042-.088a106 106 0 0 1-11.243-1.601A112.3 112.3 0 0 1 256 374.203c-40.76-23.255-59.901-71.235-56.654-116.571.636-8.951.867-17.913.867-26.93v-42.693a74.3 74.3 0 0 0-6.746-31.076A75.3 75.3 0 0 0 124.879 113H101v175.028l.011 1.47.011.91c0 .384 0 .757.022 1.13v.044c.022.888.044 1.788.088 2.687v.176q.024.796.076 1.59l.11 1.942.033.483.088 1.206q.12 1.896.329 3.785l.164 1.426.11.932.176 1.47q.2 1.66.46 3.313l.143.976.186 1.174.253 1.459.109.636.253 1.415.241 1.229.055.318.219 1.075c.11.471.219.954.307 1.426l.417 1.865.428 1.82c.164.681.329 1.372.515 2.041.286 1.13.593 2.248.911 3.378l.109.406q.252.874.516 1.744l.526 1.744.582 1.832.603 1.832q.283.877.592 1.744.537 1.522 1.119 3.028c.088.23.165.472.263.702.22.625.472 1.239.713 1.865l.549 1.338c.285.724.592 1.448.888 2.161l.856 1.963.658 1.47.768 1.69.801 1.689.822 1.667.834 1.646c.877 1.722 1.788 3.4 2.72 5.079l.834 1.469.022.022.899 1.536.033.066a95 95 0 0 0 2.227 3.62 142 142 0 0 0 2.731 4.179l.175.274c.297.417.582.856.878 1.262l.252.373.285.406.406.57.274.395.933 1.283q.978 1.348 1.996 2.666l.713.932.658.845.044.055.209.252.899 1.13.011.022.11.132 1.064 1.294.131.154 1.163 1.393.263.296.417.482.439.516.548.625c.472.549.954 1.097 1.448 1.635l.329.351.154.175.296.329.384.417.23.242c.11.142.252.285.373.416l.68.702.219.253.768.8.538.549.164.175q.112.119.231.231l1.042 1.053.241.241.022.022.011.011.987.965.351.351c.9.878 1.81 1.745 2.72 2.589l.834.768.526.472.011.022 1.393 1.25.582.505.219.197.603.527.187.153q.276.216.526.461l.713.603 1.437 1.185c.34.285.68.57 1.031.834l.417.351.746.581c.23.198.472.384.724.571l.45.351 1.009.789.614.461 1.678 1.251.691.515.801.571.713.515c.516.351 1.02.713 1.536 1.053l1.502 1.031 1.086.724 1.339.867a26 26 0 0 0 2.292 1.459l.219.131.571.351.713.439c.033 0 .055.033.088.044.394.241.789.483 1.206.713l.176.11q.107.066.219.12c.175.11.351.22.537.308l.549.329.91.515q1.02.582 2.051 1.141l.231.132 1.864.987.878.461c.263.153.548.285.812.427l.965.483 1.338.669q2.03.989 4.081 1.931l1.371.614 1.042.45c.57.252 1.14.504 1.722.735l1.7.713 1.7.68 1.316.516.691.263.439.164.987.373 1.733.615q1.775.616 3.554 1.217l1.657.538 1.447.438.691.22.988.274c.296.099.592.187.899.263l1.24.351 1.59.439.351.088 1.58.406 1.886.449q1.196.3 2.402.549c.461.11.922.208 1.393.296l1.909.395c.625.132 1.261.241 1.909.362l1.02.187.307.054.581.099.746.121 1.174.197 1.009.154.088.011.822.12q1.007.156 2.018.286l1.569.197.559.066 1.646.175q3.884.426 7.788.637c.647.033 1.305.076 1.952.087l.987.044q3.015.127 6.033.121l1.952-.011q2.931-.042 5.858-.187l1.733-.087 1.667-.11 1.448-.11.417-.022 1.075-.098.965-.088a8 8 0 0 1 .79-.077l.735-.077q.666-.054 1.327-.153c.57-.055 1.119-.132 1.689-.198 1.108-.131 2.238-.296 3.346-.449l.241-.044.877-.132 1.01-.165h.054l1.536-.252 1.283-.23.691-.132.768-.142c1.733-.329 3.444-.691 5.156-1.075l1.875-.439q2.631-.624 5.232-1.36l1.042-.307.055-.011a80 80 0 0 0 3.104-.933q1.61-.49 3.203-1.031l.439-.154 1.338-.449.724-.264a123 123 0 0 0 4.991-1.864c.417-.143.834-.307 1.25-.483l1.24-.494 1.228-.515a154.4 154.4 0 0 0 49.25-33.073l1.229-1.228 1.031-1.054.384-.394q1.479-1.561 2.928-3.149l.878-.976c.351-.384.691-.768 1.031-1.174l.143-.153a136 136 0 0 0 3.663-4.366 148 148 0 0 0 5.452-7.185c.713-.987 1.404-1.996 2.106-3.006a182.6 182.6 0 0 1-70.892 14.831z"/><path fill="url(#paint3_linear_9169_732)" d="M313.038 389.001h-2.457a113.7 113.7 0 0 1-20.205-2.062 106.2 106.2 0 0 1-34.946 5.737 104.95 104.95 0 0 1-74.566-31.351c-19.59-19.833-30.274-46.73-30.274-74.537l.077-123.417c.022-27.291-22.179-49.428-49.568-49.45L101 287.6l.022 1.897c0 .681 0 1.372.022 2.052l.055 1.546.087 2.337c.011.406.055.801.077 1.207l.165 2.676.055.768c.087 1.031.164 2.062.274 3.093 0 .099.022.187.033.275a152.6 152.6 0 0 0 11.396 44.338 153.2 153.2 0 0 0 23.112 37.987c.219.285.471.57.713.855l1.689 1.986 1.36 1.536 1.13 1.25c.592.658 1.228 1.316 1.842 1.975l.713.767 2.15 2.194.472.483 2.018 1.975.68.658 1.7 1.568 1.053.988 1.185 1.042 1.623 1.437.439.362a154.3 154.3 0 0 0 40.585 25.065A154.6 154.6 0 0 0 256 442.071c20.896 0 41.21-4.092 60.339-12.154a154.3 154.3 0 0 0 56.599-40.894c.077-.11.176-.198.253-.296q1.214-1.395 2.391-2.82a150 150 0 0 0 8.83-11.737 182.6 182.6 0 0 1-70.881 14.831z"/><path fill="url(#paint4_linear_9169_732)" d="M372.181 346.857a112.8 112.8 0 0 1-54.493 13.953 112.76 112.76 0 0 1-67.787-22.488l-.68-.197a112.9 112.9 0 0 0 37.656 21.226l-.219.197c16.815 6.143 35.133 9.072 54.153 8.085a137 137 0 0 0 53.791-14.008 4.9 4.9 0 0 0 2.303-2.381l.658-1.481a166 166 0 0 0 2.282-5.462c.241-.615.493-1.24.724-1.865l.263-.691.373-.987q.695-1.852 1.316-3.73l.022-.066q.637-1.817 1.185-3.664l.526-1.755.033-.087a46 46 0 0 0 .472-1.646l.12-.406a191 191 0 0 0 1.426-5.419l.417-1.81.417-1.875.307-1.426.219-1.075.066-.318.242-1.229.087-.472a113.25 113.25 0 0 1-35.868 31.088z"/><defs><linearGradient id="paint0_linear_9169_732" x1="260.069" x2="412.757" y1="367.27" y2="315.665" gradientUnits="userSpaceOnUse"><stop stop-color="#FFE400"/><stop offset="1" stop-color="#FFB600"/></linearGradient><linearGradient id="paint1_linear_9169_732" x1="301.268" x2="414.662" y1="328.845" y2="118.643" gradientUnits="userSpaceOnUse"><stop stop-color="#3A86EC"/><stop offset="1" stop-color="#1D62FF"/></linearGradient><linearGradient id="paint2_linear_9169_732" x1="293.283" x2="108.86" y1="439.307" y2="116.651" gradientUnits="userSpaceOnUse"><stop stop-color="#1F5DE2"/><stop offset="1" stop-color="#3BCBFC"/></linearGradient><linearGradient id="paint3_linear_9169_732" x1="293.195" x2="109.551" y1="439.35" y2="117.166" gradientUnits="userSpaceOnUse"><stop stop-color="#2E6AF0"/><stop offset="1" stop-color="#67D5F5"/></linearGradient><linearGradient id="paint4_linear_9169_732" x1="249.221" x2="408.06" y1="341.789" y2="341.789" gradientUnits="userSpaceOnUse"><stop stop-color="#fff" stop-opacity=".19"/><stop offset="1" stop-color="#FFE400"/></linearGradient></defs></svg>