<svg xmlns="http://www.w3.org/2000/svg" fill="none" viewBox="0 0 512 512"><path fill="#000" d="M256 512c141.385 0 256-114.615 256-256S397.385 0 256 0 0 114.615 0 256s114.615 256 256 256"/><path fill="#4675C2" d="M83.683 115.034a1.3 1.3 0 0 0-.051.477q.023.252.253.365a982 982 0 0 0 30.61 14.077q2.197.96 3.146 3.123 44.172 100.535 88.484 201.801a857 857 0 0 0 4.578 10.259q14.708 32.411 26.42 61.06.186.45 1 .393a772 772 0 0 1-11.988 39.503c-1.466 4.414-2.314 8.221-2.359 12.242a.58.58 0 0 0 .185.443.34.34 0 0 0 .239.095.33.33 0 0 0 .233-.1 291 291 0 0 0 15.729-17.396c9.045-10.86 18.893-21.934 26.521-31.221q.776-.938 1.04-1.112l26.908 53.435-72.968.522a1.22 1.22 0 0 1-1.134-.764L82.014 115.264a.19.19 0 0 1 .02-.18.2.2 0 0 1 .165-.084z"/><path fill="#618DD3" d="m83.683 115.034 48.463.393a.82.82 0 0 1 .747.488l114.673 259.902-9.443 30.772q-.814.056-1-.393-11.712-28.649-26.42-61.06a857 857 0 0 1-4.578-10.259 146079 146079 0 0 0-88.484-201.801q-.949-2.162-3.146-3.123a982 982 0 0 1-30.61-14.077.43.43 0 0 1-.253-.365q-.022-.197.05-.477"/><path fill="#EBC163" d="M429.753 125.203c-14.033 33.68-28.47 67.186-42.919 100.726a2.07 2.07 0 0 1-.742.893 428697 428697 0 0 1-126.981 85.902.195.195 0 0 1-.236 0q-.022-.01-.028-.039a.16.16 0 0 1 .028-.157 291 291 0 0 1 6.623-7.727c51.778-58.314 103.994-116.387 157.418-173.174 2.23-2.375 4.281-4.885 6.337-7.396q.73-.893.747.259 0 .123-.247.713"/><path fill="#618DD3" d="m294.631 462.478-26.908-53.435a21977 21977 0 0 0 77.911-99.845c3.865-4.981 7.904-10.54 11.971-15.914a.7.7 0 0 1 .377-.263q.28-.096.207-.377-.05-.185-.32-.292.286-.297.405-.353.516-.225.32.303a892857 892857 0 0 1-62.873 169.058q-.275.736-1.09 1.118"/><path fill="#3363B2" d="M357.869 292.352q.27.107.32.292.073.28-.207.377a.7.7 0 0 0-.377.263c-4.067 5.374-8.106 10.933-11.971 15.914a21977 21977 0 0 1-77.911 99.845q-.264.174-1.04 1.112c-7.628 9.287-17.476 20.361-26.521 31.221a291 291 0 0 1-15.729 17.396.33.33 0 0 1-.233.1.34.34 0 0 1-.239-.095.58.58 0 0 1-.185-.443c.045-4.021.893-7.828 2.359-12.242a772 772 0 0 0 11.988-39.503l9.443-30.772z"/></svg>