<svg xmlns="http://www.w3.org/2000/svg" fill="none" viewBox="0 0 512 512"><path fill="#000" d="M256 512c141.385 0 256-114.615 256-256S397.385 0 256 0 0 114.615 0 256s114.615 256 256 256Z"/><path fill="url(#paint0_linear_2081_179)" d="m398.457 237.426-56.804 99.612a97.756 97.756 0 0 1-35.717 36.319 97.851 97.851 0 0 1-49.154 13.431l56.581-99.612 28.402-49.75 28.29-49.75 28.291 49.75h.111Z"/><path fill="url(#paint1_linear_2081_179)" d="m398.457 237.426-56.804 99.612a97.756 97.756 0 0 1-35.717 36.319 97.851 97.851 0 0 1-49.154 13.431l56.581-99.612 28.402-49.75 28.29-49.75 28.291 49.75h.111Z"/><path fill="url(#paint2_linear_2081_179)" d="m483.328 187.676-28.29 49.75-28.402 49.75-28.29 49.862a97.657 97.657 0 0 1-35.709 36.334 97.738 97.738 0 0 1-49.163 13.416h-56.692c35.085 0 67.496-18.921 84.983-49.75l56.581-99.612-28.291-49.75h113.273Z"/><path fill="url(#paint3_linear_2081_179)" d="M370.055 187.676H143.621l17.82-31.609 10.47-18.253h113.273c34.639 0 66.828 18.587 84.314 48.971l.557.891Z"/><path fill="url(#paint4_linear_2081_179)" d="M370.055 187.676H143.621l17.82-31.609 10.47-18.253h113.273c34.639 0 66.828 18.587 84.314 48.971l.557.891Z"/><path fill="url(#paint5_linear_2081_179)" d="M369.498 186.674A97.756 97.756 0 0 0 333.867 151a97.846 97.846 0 0 0-48.683-13.186H171.911l-10.358 18.253-17.932 31.497-56.581-99.5h169.965a97.29 97.29 0 0 1 46.111 11.798 100.22 100.22 0 0 1 13.366 8.681l2.45 2.003a114.98 114.98 0 0 1 7.128 6.567 99.788 99.788 0 0 1 15.593 20.701h.112l27.845 48.971-.112-.111Z"/><path fill="url(#paint6_linear_2081_179)" d="M256.782 386.788h-56.58l-56.581-99.612a100.88 100.88 0 0 1-.557-98.61l.557-.89 10.358 18.141 17.821 31.609 28.402 49.75 56.58 99.612Z"/><path fill="url(#paint7_linear_2081_179)" d="M256.782 386.788h-56.58l-56.581-99.612a100.88 100.88 0 0 1-.557-98.61l.557-.89 10.358 18.141 17.821 31.609 28.402 49.75 56.58 99.612Z"/><path fill="url(#paint8_linear_2081_179)" d="m256.782 386.788-56.58 99.612-28.291-49.75-17.375-30.385-10.915-19.366-28.402-49.75a101.836 101.836 0 0 1-7.908-18.03l-.891-2.671a113.423 113.423 0 0 1-3.564-16.695l-.223-2.782-.223-2.894v-.445l-.222-3.117v-3.005a100.974 100.974 0 0 1 7.351-38.175l1.225-3.005a105.61 105.61 0 0 1 4.455-8.904l27.845-48.86a101.001 101.001 0 0 0 .557 98.722l56.581 99.5h56.58Z"/><defs><linearGradient id="paint0_linear_2081_179" x1="660.91" x2="220.095" y1="56.224" y2="586.587" gradientUnits="userSpaceOnUse"><stop stop-color="#02F0FE"/><stop offset="1" stop-color="#4D7EFE"/></linearGradient><linearGradient id="paint1_linear_2081_179" x1="401.709" x2="325.837" y1="203.768" y2="410.942" gradientUnits="userSpaceOnUse"><stop stop-color="#4D4AFE"/><stop offset="1" stop-color="#4D7EFE" stop-opacity="0"/></linearGradient><linearGradient id="paint2_linear_2081_179" x1="482.94" x2="164.487" y1="185.839" y2="443.8" gradientUnits="userSpaceOnUse"><stop stop-color="#02F0FE"/><stop offset="1" stop-color="#4D7EFE"/></linearGradient><linearGradient id="paint3_linear_2081_179" x1="-7.89" x2="510.026" y1="-68.425" y2="-31.58" gradientUnits="userSpaceOnUse"><stop stop-color="#02F0FE"/><stop offset="1" stop-color="#4D7EFE"/></linearGradient><linearGradient id="paint4_linear_2081_179" x1="136.148" x2="367.68" y1="156.996" y2="189.756" gradientUnits="userSpaceOnUse"><stop stop-color="#4D4AFE"/><stop offset="1" stop-color="#4D7EFE" stop-opacity="0"/></linearGradient><linearGradient id="paint5_linear_2081_179" x1="87.722" x2="392.09" y1="88.399" y2="-35.045" gradientUnits="userSpaceOnUse"><stop stop-color="#02F0FE"/><stop offset="1" stop-color="#4D7EFE"/></linearGradient><linearGradient id="paint6_linear_2081_179" x1="390.726" x2="308.601" y1="673.878" y2="67.376" gradientUnits="userSpaceOnUse"><stop stop-color="#02F0FE"/><stop offset="1" stop-color="#4D7EFE"/></linearGradient><linearGradient id="paint7_linear_2081_179" x1="233" x2="231.151" y1="404.884" y2="189.766" gradientUnits="userSpaceOnUse"><stop stop-color="#4D4AFE"/><stop offset="1" stop-color="#4D7EFE" stop-opacity="0"/></linearGradient><linearGradient id="paint8_linear_2081_179" x1="200.5" x2="87.118" y1="486" y2="87.966" gradientUnits="userSpaceOnUse"><stop stop-color="#02F0FE"/><stop offset="1" stop-color="#4D7EFE"/></linearGradient></defs></svg>