<svg xmlns="http://www.w3.org/2000/svg" fill="none" viewBox="0 0 356 310"><path fill="#000" d="M348.742 66.298 220.978 287.935a43.557 43.557 0 0 1-75.497 0l-22.262-38.714v-.968a36.8 36.8 0 0 0 14.244 8.9 36.78 36.78 0 0 0 43.831-16.643l106.47-184.859A36.78 36.78 0 0 0 290.68 22.4 36.78 36.78 0 0 0 265.502.484h45.491a43.556 43.556 0 0 1 44.847 43.649 43.56 43.56 0 0 1-6.13 22.165zM197.748.484h-44.524a22.26 22.26 0 0 1 13.764 13.645 22.26 22.26 0 0 1-2.149 19.262l-64.85 111.302a22.26 22.26 0 0 1-33.876 4.84v.967l22.262 38.714a29.03 29.03 0 0 0 25.165 14.55 29.03 29.03 0 0 0 25.166-14.55l84.208-145.177A29.035 29.035 0 0 0 197.748.484m-152.93 0A38.718 38.718 0 0 0 0 38.714a38.71 38.71 0 0 0 28.24 37.27 38.717 38.717 0 0 0 49.193-37.27A38.71 38.71 0 0 0 44.819.484"/></svg>
