<svg xmlns="http://www.w3.org/2000/svg" fill="none" viewBox="0 0 512 512"><path fill="#000" d="M256 512c141.385 0 256-114.615 256-256S397.385 0 256 0 0 114.615 0 256s114.615 256 256 256Z"/><path fill="#CDADEF" d="M296.998 392.877a47.017 47.017 0 0 1-16.226 24.172A47.159 47.159 0 0 1 253.381 427H187.05L52 145h134.878l67.458 141.066s49.229 83.63 42.662 106.811Z"/><path fill="url(#paint0_linear_3704_989)" d="M296.997 392.878c6.566-23.181-42.643-106.753-42.643-106.753h72.936l-30.293 106.753Z"/><path fill="#CDADEF" d="M327.292 286.126H459V145.06h-52.607a47.164 47.164 0 0 0-27.792 9.074 47.028 47.028 0 0 0-17.066 23.733l-34.243 108.259Z"/><defs><linearGradient id="paint0_linear_3704_989" x1="267.38" x2="225.714" y1="125.262" y2="437.731" gradientUnits="userSpaceOnUse"><stop stop-color="#CDADEF"/><stop offset="1" stop-color="#8458B3"/></linearGradient></defs></svg>