<svg xmlns="http://www.w3.org/2000/svg" fill="none" viewBox="0 0 512 512"><path fill="#000" fill-rule="evenodd" d="M512 256c0 141.385-114.615 256-256 256S0 397.385 0 256 114.615 0 256 0s256 114.615 256 256" clip-rule="evenodd"/><path fill="#4A402E" d="m183.479 131.45-53.986.108a.251.251 0 0 0-.251.252v81.484a.17.17 0 0 1-.168.167l-26.707.01a.24.24 0 0 0-.17.072.25.25 0 0 0-.071.175l.005 144.751-.01 17.664a.631.631 0 0 0 .631.627l53.591-.025.163 8.997-.143 17.428q-.006.725.72.725l197.977.005a.556.556 0 0 0 .553-.553l.005-17.758.019-.882.005-7.168a.77.77 0 0 1 .774-.769h52.901a.547.547 0 0 0 .547-.548l.015-17.748q.004-72.402 0-144.82-.073-.109.084-.183h26.869a.17.17 0 0 1 .119.049.17.17 0 0 1 .049.119v162.874a.2.2 0 0 1-.058.143.2.2 0 0 1-.139.059h-26.707q-.217 0-.217.217l.005 26.652q0 .31-.311.311h-53.822a.114.114 0 0 0-.114.113l.005 26.903q0 .042-.029.07a.1.1 0 0 1-.069.029H156.639q-.276 0-.276-.281v-26.538q0-.296-.296-.296h-53.729a.217.217 0 0 1-.217-.217v-26.716q0-.247-.247-.247H75.247q-.247 0-.247-.246V213.614a.16.16 0 0 1 .153-.158h26.692a.276.276 0 0 0 .276-.276V105.217a.215.215 0 0 1 .212-.217h80.889c.066 0 .128.026.175.074a.25.25 0 0 1 .072.177z"/><path fill="#4A402E" d="M409.879 213.294a1 1 0 0 1-.089.128.14.14 0 0 1-.103.044h-26.741a.19.19 0 0 1-.133-.056.2.2 0 0 1-.055-.136l.005-81.543a.176.176 0 0 0-.177-.173h-53.789q-.27 0-.271.276v26.13q0 .152-.153.152H183.72a.2.2 0 0 1-.09-.018.235.235 0 0 1-.146-.218l.103-26.322h144.737q.192 0 .192-.192v-26.134a.23.23 0 0 1 .232-.232h81.008q.123 0 .123.123z"/><path fill="#B7A38E" d="M183.479 131.45q-.291.069.108.108l-.103 26.322a.235.235 0 0 0 .236.236h144.653q.153 0 .153-.152v-26.13q0-.276.271-.276h53.789a.176.176 0 0 1 .177.173l-.005 81.543c0 .051.02.1.055.136a.19.19 0 0 0 .133.056h26.741a.14.14 0 0 0 .103-.044 1 1 0 0 0 .089-.128q-.015.123.084.167-.157.074-.084.183.004 72.418 0 144.82l-54.059.005a.17.17 0 0 0-.122.051.2.2 0 0 0-.038.056.2.2 0 0 0-.013.066l-.01 26.055-.019.882h-81.309v-8.524a.29.29 0 0 1 .286-.291h17.747a.2.2 0 0 0 .133-.054.2.2 0 0 0 .054-.133l-.005-8.899q0-.34.336-.34h17.702q.212 0 .212-.212v-62.794a.1.1 0 0 0-.098-.099h-17.875q-.281 0-.281.277v35.496q0 .217-.213.217h-17.746q-.277 0-.277-.271v-8.322q0-.281-.281-.281h-36.031q-.246 0-.247.246v8.381q0 .247-.246.247h-17.752a.247.247 0 0 1-.247-.247V304.48q0-.246-.246-.247h-17.875c-.051 0-.1.02-.136.055a.19.19 0 0 0-.057.133v62.759q0 .159.158.158h17.91q.246 0 .246.247v8.903q0 .281.277.281l17.697-.005q.217 0 .222.217l.045 8.598-81.215.153-.163-8.997.015-18.118a.148.148 0 0 0-.148-.143l-54.079-.005-.005-144.751c0-.066.025-.128.071-.175a.24.24 0 0 1 .17-.072l26.707-.01a.166.166 0 0 0 .168-.167V131.81a.25.25 0 0 1 .251-.252zm-26.554 28.047q0-.05.019-.096a.245.245 0 0 1 .136-.136.3.3 0 0 1 .096-.02h8.383a.25.25 0 0 0 .252-.251l.005-17.753a.25.25 0 0 0-.252-.252l-26.633.005a.25.25 0 0 0-.251.252v26.617a.252.252 0 0 0 .251.252l17.757.005a.25.25 0 0 0 .252-.252zm198.52-.257a.208.208 0 0 1 .207.208l-.005 8.46a.21.21 0 0 0 .207.207l17.841.005a.208.208 0 0 0 .207-.208l.005-26.706a.2.2 0 0 0-.061-.146.2.2 0 0 0-.146-.061h-26.697a.2.2 0 0 0-.146.061.2.2 0 0 0-.061.146l-.02 17.832a.203.203 0 0 0 .128.192q.038.015.079.015zm-144.278 99.8a.16.16 0 0 0-.048-.115.16.16 0 0 0-.115-.048h-27.358a.16.16 0 0 0-.162.163v27.342c0 .043.017.084.047.115q.048.046.115.047h27.358a.164.164 0 0 0 .163-.162zm117.201 27.509a.157.157 0 0 0 .158-.157v-27.357a.157.157 0 0 0-.158-.158h-27.367a.16.16 0 0 0-.112.046.16.16 0 0 0-.046.112v27.352a.157.157 0 0 0 .158.157zm-90.643-.364a.19.19 0 0 0-.192-.193h-17.86a.193.193 0 0 0-.193.193v17.856a.193.193 0 0 0 .193.192h17.86a.19.19 0 0 0 .192-.192zm54.804-.015a.177.177 0 0 0-.177-.178h-17.9a.177.177 0 0 0-.177.178v17.886c0 .047.018.092.052.125a.17.17 0 0 0 .125.052h17.9a.17.17 0 0 0 .125-.052.17.17 0 0 0 .052-.125z"/><path fill="#6A5C52" d="m156.925 159.497.015 8.371a.25.25 0 0 1-.252.252l-17.757-.005a.25.25 0 0 1-.251-.252v-26.617a.252.252 0 0 1 .251-.252l26.633-.005a.25.25 0 0 1 .252.252l-.005 17.753a.25.25 0 0 1-.252.251h-8.383a.3.3 0 0 0-.096.02.25.25 0 0 0-.136.136.24.24 0 0 0-.019.096M355.445 159.24l-8.462.005a.2.2 0 0 1-.079-.015.203.203 0 0 1-.128-.192l.02-17.832c0-.055.022-.107.061-.146a.2.2 0 0 1 .146-.061H373.7c.055 0 .107.022.146.061a.2.2 0 0 1 .061.146l-.005 26.706a.21.21 0 0 1-.207.208l-17.841-.005a.208.208 0 0 1-.207-.207l.005-8.46a.21.21 0 0 0-.207-.208"/><path fill="#4A402E" d="M211.004 258.877h-27.358a.16.16 0 0 0-.162.163v27.342c0 .09.072.162.162.162h27.358c.09 0 .163-.072.163-.162V259.04a.163.163 0 0 0-.163-.163M328.368 286.549l-27.367-.005a.157.157 0 0 1-.158-.157v-27.352c0-.042.017-.082.046-.112a.16.16 0 0 1 .112-.046h27.367a.157.157 0 0 1 .158.158v27.357a.157.157 0 0 1-.158.157M237.533 285.992h-17.86a.193.193 0 0 0-.193.193v17.856c0 .106.087.192.193.192h17.86a.19.19 0 0 0 .192-.192v-17.856a.19.19 0 0 0-.192-.193M292.352 285.992h-17.9a.18.18 0 0 0-.177.178v17.886c0 .098.079.177.177.177h17.9a.177.177 0 0 0 .177-.177V286.17a.18.18 0 0 0-.177-.178"/><path fill="#4A402E" d="m274.309 385.579-9.226-.005q-.237 0-.237.232v8.524q0 .124-.123.124h-17.998a.12.12 0 0 1-.088-.037.12.12 0 0 1-.036-.087v-8.494q0-.266-.266-.266l-8.614.009-.045-8.598q-.004-.216-.222-.217l-17.697.005q-.276 0-.277-.281v-8.903q0-.247-.246-.247h-17.91q-.158 0-.158-.158v-62.759c0-.05.021-.098.057-.133a.2.2 0 0 1 .136-.055h17.875q.246 0 .246.247v35.496a.246.246 0 0 0 .247.247h17.752q.246 0 .246-.247v-8.381q0-.246.247-.246h36.031q.281 0 .281.281v8.322q0 .27.277.271h17.746q.213 0 .213-.217V304.51q0-.276.281-.277h17.875a.1.1 0 0 1 .098.099v62.794q0 .212-.212.212H292.86q-.336 0-.336.34l.005 8.899a.2.2 0 0 1-.054.133.2.2 0 0 1-.133.054h-17.747a.29.29 0 0 0-.286.291z"/><path fill="#6A5C52" d="m102.131 358.469 54.079.005a.15.15 0 0 1 .148.143l-.015 18.118-53.591.025a.63.63 0 0 1-.631-.627zM409.879 358.464l-.015 17.748a.545.545 0 0 1-.547.548h-52.901a.768.768 0 0 0-.774.769l-.005 7.168.01-26.055a.2.2 0 0 1 .013-.066.18.18 0 0 1 .094-.094.2.2 0 0 1 .066-.013zM237.721 385.579l8.614-.009q.266 0 .266.266v8.494q0 .051.036.087a.12.12 0 0 0 .088.037h17.998q.123 0 .123-.124v-8.524q0-.232.237-.232l9.226.005h81.309l-.005 17.758a.556.556 0 0 1-.553.553l-197.977-.005q-.726 0-.72-.725l.143-17.428z"/></svg>