<svg xmlns="http://www.w3.org/2000/svg" fill="none" viewBox="0 0 362 326"><path fill="#000" d="m108.479 26.45-53.986.108a.25.25 0 0 0-.251.252v81.484a.167.167 0 0 1-.168.167l-26.706.01a.24.24 0 0 0-.171.072.25.25 0 0 0-.071.175l.005 144.751-.01 17.664a.632.632 0 0 0 .631.627l53.591-.025.163 8.997-.143 17.428q-.006.725.72.725l197.977.005a.556.556 0 0 0 .553-.553l.005-17.758.019-.882.005-7.168a.77.77 0 0 1 .774-.769h52.901a.547.547 0 0 0 .547-.548l.015-17.748q.004-72.403 0-144.82-.073-.109.084-.183h26.869a.17.17 0 0 1 .119.049.17.17 0 0 1 .049.119v162.874a.2.2 0 0 1-.058.143.2.2 0 0 1-.139.059h-26.707q-.217 0-.217.217l.005 26.652q0 .31-.311.311h-53.822a.114.114 0 0 0-.114.113l.005 26.903q0 .042-.029.07a.1.1 0 0 1-.069.029H81.639q-.276 0-.276-.281v-26.538q0-.296-.296-.296h-53.73a.217.217 0 0 1-.217-.217v-26.716q0-.247-.246-.247H.247q-.247 0-.247-.246V108.614a.16.16 0 0 1 .153-.158h26.692a.275.275 0 0 0 .276-.276V.217a.22.22 0 0 1 .062-.153.2.2 0 0 1 .15-.064h80.889c.066 0 .128.026.175.074a.26.26 0 0 1 .072.177z"/><path fill="#000" d="M334.879 108.294a1 1 0 0 1-.089.128.14.14 0 0 1-.103.044h-26.741a.19.19 0 0 1-.133-.056.2.2 0 0 1-.055-.136l.005-81.543a.17.17 0 0 0-.052-.122.18.18 0 0 0-.125-.05h-53.789q-.27 0-.271.275v26.13q0 .153-.153.152H108.72a.23.23 0 0 1-.167-.069.24.24 0 0 1-.069-.167l.103-26.322h144.737q.192 0 .192-.192V.232a.234.234 0 0 1 .232-.232h81.008q.123 0 .123.123z"/><path fill="#000" d="M108.479 26.45q-.291.069.108.108l-.103 26.322a.235.235 0 0 0 .236.236h144.653q.153 0 .153-.152v-26.13q0-.276.271-.276h53.789c.047 0 .092.018.125.05a.17.17 0 0 1 .052.123l-.005 81.543c0 .051.02.1.055.136a.19.19 0 0 0 .133.056h26.741a.14.14 0 0 0 .103-.044 1 1 0 0 0 .089-.128q-.015.123.084.167-.157.074-.084.183.004 72.418 0 144.82l-54.059.005a.17.17 0 0 0-.122.051.2.2 0 0 0-.038.056.2.2 0 0 0-.013.066l-.01 26.055-.019.882h-81.309v-8.524a.29.29 0 0 1 .286-.291h17.747a.2.2 0 0 0 .133-.054.2.2 0 0 0 .054-.133l-.005-8.899q0-.34.336-.34h17.702q.213 0 .212-.212v-62.794a.1.1 0 0 0-.098-.099h-17.875q-.281 0-.281.277v35.496q0 .217-.213.217h-17.746q-.277 0-.277-.271v-8.322q0-.281-.281-.281h-36.031q-.246 0-.247.246v8.381q0 .247-.246.247h-17.752a.247.247 0 0 1-.247-.247V199.48q0-.246-.246-.247h-17.875c-.051 0-.1.02-.136.055a.19.19 0 0 0-.057.133v62.759q0 .159.158.158h17.91q.246 0 .246.247v8.903q0 .281.277.281l17.697-.005q.217 0 .222.217l.045 8.598-81.215.153-.163-8.997.015-18.118a.14.14 0 0 0-.044-.101.15.15 0 0 0-.104-.042l-54.08-.005-.004-144.751c0-.066.025-.128.07-.175a.24.24 0 0 1 .171-.072l26.707-.01a.167.167 0 0 0 .168-.167V26.81a.25.25 0 0 1 .251-.252zM81.925 54.497a.25.25 0 0 1 .251-.252h8.383a.25.25 0 0 0 .252-.251l.005-17.753a.25.25 0 0 0-.252-.252l-26.633.005a.25.25 0 0 0-.251.252v26.617a.25.25 0 0 0 .251.252l17.757.005a.25.25 0 0 0 .252-.252zm198.52-.257a.207.207 0 0 1 .207.207l-.005 8.46a.207.207 0 0 0 .207.208l17.841.005a.206.206 0 0 0 .207-.208l.005-26.706A.207.207 0 0 0 298.7 36h-26.697a.207.207 0 0 0-.207.207l-.02 17.832q0 .042.016.08a.21.21 0 0 0 .191.127zm-144.278 99.8a.16.16 0 0 0-.048-.115.16.16 0 0 0-.115-.048h-27.358a.16.16 0 0 0-.162.163v27.342q.001.067.047.115.049.046.115.047h27.358a.164.164 0 0 0 .163-.162zm117.201 27.509a.157.157 0 0 0 .158-.157v-27.357a.157.157 0 0 0-.158-.158h-27.367a.16.16 0 0 0-.112.046.16.16 0 0 0-.046.112v27.352a.157.157 0 0 0 .158.157zm-90.643-.364a.19.19 0 0 0-.192-.193h-17.86a.193.193 0 0 0-.193.193v17.856a.193.193 0 0 0 .193.192h17.86a.19.19 0 0 0 .192-.192zm54.804-.015a.177.177 0 0 0-.177-.178h-17.9a.177.177 0 0 0-.177.178v17.886c0 .047.018.092.052.125a.17.17 0 0 0 .125.052h17.9a.17.17 0 0 0 .125-.052.17.17 0 0 0 .052-.125z"/><path fill="#000" d="m27.13 253.469 54.08.005a.15.15 0 0 1 .105.042.14.14 0 0 1 .043.101l-.015 18.118-53.59.025a.63.63 0 0 1-.632-.627zM334.879 253.464l-.015 17.748a.545.545 0 0 1-.547.548h-52.901a.768.768 0 0 0-.774.769l-.005 7.168.01-26.055a.2.2 0 0 1 .013-.066.18.18 0 0 1 .094-.094.2.2 0 0 1 .066-.013zM162.721 280.579l8.614-.009q.266 0 .266.266v8.494a.12.12 0 0 0 .069.111l.002.001a.1.1 0 0 0 .053.012h17.998q.123 0 .123-.124v-8.524q0-.232.237-.232l9.226.005h81.309l-.005 17.758a.556.556 0 0 1-.553.553l-197.977-.005q-.726 0-.72-.725l.143-17.428z"/></svg>