<svg xmlns="http://www.w3.org/2000/svg" fill="none" viewBox="0 0 512 512"><path fill="#000" fill-rule="evenodd" d="M512 256c0 141.385-114.615 256-256 256S0 397.385 0 256 114.615 0 256 0s256 114.615 256 256" clip-rule="evenodd"/><path fill="#fff" d="M176.618 418.763a176.724 176.724 0 0 1-77.692-237.249 176.75 176.75 0 0 1 102.638-87.825 176.76 176.76 0 0 1 134.688 10.321 176.76 176.76 0 0 1 87.901 102.571 176.73 176.73 0 0 1-10.218 134.697 176.723 176.723 0 0 1-237.317 77.485m153.489-302.636a163.127 163.127 0 0 0-219.065 71.532 163 163 0 0 0-9.459 124.334 163 163 0 0 0 81.181 94.651 163.02 163.02 0 0 0 124.331 9.579 163 163 0 0 0 94.724-81.09 163.134 163.134 0 0 0-71.712-219.006"/><path fill="#fff" d="M209.16 403.966a146.4 146.4 0 0 1-72.826-84.978 146.43 146.43 0 0 1 8.465-111.589 146.44 146.44 0 0 1 85.032-72.759 146.44 146.44 0 0 1 111.586 8.554 146.43 146.43 0 0 1 72.821 84.972 146.43 146.43 0 0 1-8.466 111.592 146.42 146.42 0 0 1-85.031 72.757 146.4 146.4 0 0 1-111.581-8.549m127.484-251.362a135.86 135.86 0 0 0-103.529-7.929 135.86 135.86 0 0 0-78.888 67.506 135.854 135.854 0 0 0 59.715 182.357 135.85 135.85 0 0 0 103.515 7.926 135.83 135.83 0 0 0 78.887-67.488 135.84 135.84 0 0 0 7.844-103.521 135.84 135.84 0 0 0-67.553-78.832z"/><path fill="#fff" d="M241.687 389.176a116.105 116.105 0 0 1-51.034-155.862 116.12 116.12 0 0 1 67.426-57.695 116.12 116.12 0 0 1 88.48 6.779 116.06 116.06 0 0 1 57.751 67.378 116.1 116.1 0 0 1-6.72 88.491 116.1 116.1 0 0 1-67.426 57.687 116.1 116.1 0 0 1-88.477-6.778m101.462-200.053a108.54 108.54 0 0 0-82.727-6.347 108.56 108.56 0 0 0-63.045 53.944 108.57 108.57 0 0 0-6.263 82.727 108.53 108.53 0 0 0 53.995 62.983 108.53 108.53 0 0 0 82.716 6.353 108.57 108.57 0 0 0 63.045-53.928 108.56 108.56 0 0 0 6.275-82.737 108.54 108.54 0 0 0-53.996-62.995"/><path fill="#fff" d="M274.22 374.382a85.8 85.8 0 0 1-42.664-49.79 85.8 85.8 0 0 1 4.958-65.376 85.78 85.78 0 0 1 49.817-42.639 85.78 85.78 0 0 1 65.387 5.002 85.77 85.77 0 0 1 42.667 49.8 85.77 85.77 0 0 1-4.97 65.384 85.797 85.797 0 0 1-115.195 37.619m75.451-148.766a81.28 81.28 0 0 0-61.931-4.738 81.25 81.25 0 0 0-47.186 40.387 81.27 81.27 0 0 0-4.695 61.922 81.27 81.27 0 0 0 40.41 47.155 81.255 81.255 0 0 0 109.106-35.627 81.23 81.23 0 0 0 4.707-61.931 81.26 81.26 0 0 0-40.411-47.168"/></svg>