<svg xmlns="http://www.w3.org/2000/svg" fill="none" viewBox="0 0 512 512"><path fill="#000" d="M256 512c141.385 0 256-114.615 256-256S397.385 0 256 0 0 114.615 0 256s114.615 256 256 256"/><path fill="#fff" fill-rule="evenodd" d="M360.498 106.421c-37.126-25.995-88.225-17.074-108.16 11.398L124.697 300.108c-19.935 28.471-11.044 79.828 26.081 105.823s88.427 16.786 108.362-11.685l127.641-182.29c19.935-28.471 10.842-79.539-26.283-105.535m-91.976 47.811c15.112-21.582 44.906-26.794 66.547-11.641s26.934 44.934 11.822 66.516l-104.25 148.885c-15.112 21.582-44.906 26.794-66.548 11.64-21.641-15.153-26.934-44.933-11.822-66.515z" clip-rule="evenodd"/></svg>