<svg xmlns="http://www.w3.org/2000/svg" fill="none" viewBox="0 0 512 512"><path fill="#000" d="M256 512c141.385 0 256-114.615 256-256S397.385 0 256 0 0 114.615 0 256s114.615 256 256 256Z"/><path fill="url(#paint0_linear_3534_298)" d="M160.677 333.081H54l53.876-95.342H54V205.2h106.677l-53.876 95.343h53.876v32.538Z"/><path fill="url(#paint1_linear_3534_298)" d="M211.686 333.081h-32.851V154h32.851v112.927l48.62-61.727h37.51l-42.408 53.353 42.408 74.528h-37.51l-25.923-46.535-22.697 30.146v16.389Z"/><path fill="#fff" d="M452.863 281.315c0 7.098-1.355 13.757-4.063 19.978-2.709 6.221-6.412 11.684-11.112 16.39-4.62 4.625-10.037 8.294-16.25 11.006-6.213 2.712-12.865 4.067-19.954 4.067h-85.672V161.207h85.672c7.089 0 13.741 1.356 19.954 4.067 6.213 2.712 11.63 6.42 16.25 11.126 4.7 4.626 8.403 10.049 11.112 16.27 2.708 6.22 4.063 12.88 4.063 19.978 0 3.19-.439 6.459-1.315 9.81a47.64 47.64 0 0 1-3.704 9.689 41.8 41.8 0 0 1-5.735 8.494c-2.23 2.552-4.7 4.665-7.409 6.34 2.789 1.516 5.298 3.59 7.528 6.221a41.787 41.787 0 0 1 5.735 8.494 42.484 42.484 0 0 1 3.585 9.809c.876 3.35 1.315 6.62 1.315 9.81Zm-102.758 17.108h51.379c2.389 0 4.62-.439 6.691-1.317 2.071-.877 3.863-2.073 5.377-3.588a17.175 17.175 0 0 0 3.703-5.503c.877-2.074 1.315-4.307 1.315-6.7 0-2.392-.438-4.626-1.315-6.699a15.858 15.858 0 0 0-3.703-5.384 15.843 15.843 0 0 0-5.377-3.708c-2.071-.877-4.302-1.316-6.691-1.316h-51.379v34.215Zm0-68.549h51.379c2.389 0 4.62-.438 6.691-1.315 2.071-.878 3.863-2.074 5.377-3.589a17.164 17.164 0 0 0 3.703-5.503 17.909 17.909 0 0 0 1.315-6.819c0-2.393-.438-4.626-1.315-6.7a15.845 15.845 0 0 0-3.703-5.383 15.843 15.843 0 0 0-5.377-3.708c-2.071-.878-4.302-1.316-6.691-1.316h-51.379v34.333Z"/><defs><linearGradient id="paint0_linear_3534_298" x1="54.401" x2="311.304" y1="174.437" y2="343.796" gradientUnits="userSpaceOnUse"><stop offset=".054" stop-color="#6D5CFF"/><stop offset=".559" stop-color="#E86EFF"/><stop offset=".924" stop-color="#FFD66E"/></linearGradient><linearGradient id="paint1_linear_3534_298" x1="54.401" x2="311.304" y1="174.437" y2="343.796" gradientUnits="userSpaceOnUse"><stop offset=".054" stop-color="#6D5CFF"/><stop offset=".559" stop-color="#E86EFF"/><stop offset=".924" stop-color="#FFD66E"/></linearGradient></defs></svg>