<svg xmlns="http://www.w3.org/2000/svg" fill="none" viewBox="0 0 512 512"><path fill="#000" d="M256 512c141.385 0 256-114.615 256-256S397.385 0 256 0 0 114.615 0 256s114.615 256 256 256"/><path fill="url(#paint0_linear_3534_298)" d="M160.677 333.081H54l53.876-95.342H54V205.2h106.677l-53.876 95.343h53.876z"/><path fill="url(#paint1_linear_3534_298)" d="M211.686 333.081h-32.851V154h32.851v112.927l48.62-61.727h37.51l-42.408 53.353 42.408 74.528h-37.51l-25.923-46.535-22.697 30.146z"/><path fill="#fff" d="M452.863 281.315q0 10.648-4.063 19.978t-11.112 16.39q-6.93 6.938-16.25 11.006-9.32 4.067-19.954 4.067h-85.672V161.207h85.672q10.634 0 19.954 4.067t16.25 11.126q7.05 6.939 11.112 16.27t4.063 19.978q0 4.785-1.315 9.81a47.6 47.6 0 0 1-3.704 9.689 41.8 41.8 0 0 1-5.735 8.494q-3.345 3.828-7.409 6.34 4.183 2.274 7.528 6.221a41.8 41.8 0 0 1 5.735 8.494 42.5 42.5 0 0 1 3.585 9.81q1.314 5.024 1.315 9.809m-102.758 17.108h51.379q3.584 0 6.691-1.317 3.106-1.315 5.377-3.588a17.2 17.2 0 0 0 3.703-5.503q1.315-3.11 1.315-6.7 0-3.589-1.315-6.699a15.85 15.85 0 0 0-3.703-5.383 15.9 15.9 0 0 0-5.377-3.709q-3.107-1.316-6.691-1.316h-51.379zm0-68.549h51.379q3.584 0 6.691-1.315 3.106-1.317 5.377-3.589a17.2 17.2 0 0 0 3.703-5.503 17.9 17.9 0 0 0 1.315-6.819q0-3.59-1.315-6.699a15.85 15.85 0 0 0-3.703-5.384 15.8 15.8 0 0 0-5.377-3.708q-3.107-1.316-6.691-1.316h-51.379z"/><defs><linearGradient id="paint0_linear_3534_298" x1="54.401" x2="311.304" y1="174.437" y2="343.796" gradientUnits="userSpaceOnUse"><stop offset=".054" stop-color="#6D5CFF"/><stop offset=".559" stop-color="#E86EFF"/><stop offset=".924" stop-color="#FFD66E"/></linearGradient><linearGradient id="paint1_linear_3534_298" x1="54.401" x2="311.304" y1="174.437" y2="343.796" gradientUnits="userSpaceOnUse"><stop offset=".054" stop-color="#6D5CFF"/><stop offset=".559" stop-color="#E86EFF"/><stop offset=".924" stop-color="#FFD66E"/></linearGradient></defs></svg>
