<svg width="256" height="256" viewBox="0 0 256 256" fill="none" xmlns="http://www.w3.org/2000/svg">
<path d="M8.20283 0H246.905C251.435 0 255.108 3.67356 255.108 8.20513V82.6236C255.108 87.1552 251.435 90.8288 246.905 90.8288H218.862C215.605 90.8288 212.685 88.8849 211.213 85.9784C195.653 55.251 164.166 34.0621 127.732 34.0621C75.9077 34.0621 33.9383 76.1781 33.9383 127.821C33.9383 179.464 75.9077 221.943 127.732 221.943C163.455 221.943 194.894 201.44 210.456 171.426C211.944 168.555 214.848 166.638 218.081 166.638H246.9C251.43 166.638 255.103 170.312 255.103 174.843V247.795C255.103 252.326 251.43 256 246.9 256H8.20283C3.67253 256 0 252.326 0 247.795V8.20513C0 3.67356 3.67253 0 8.20283 0Z" fill="black"/>
</svg>
