<svg width="248" height="256" viewBox="0 0 248 256" fill="none" xmlns="http://www.w3.org/2000/svg">
<path fill-rule="evenodd" clip-rule="evenodd" d="M123.383 209.649C114.671 209.649 106.575 207.823 99.9672 204.367L28.81 167.164L7.48772 179.978C-2.64744 186.066 -2.47041 195.4 7.88264 200.813L106.3 252.273C111.079 254.77 117.191 256 123.383 256C130.614 256 137.951 254.326 143.412 251.047L239.759 193.147C249.894 187.055 249.717 177.721 239.364 172.311L218.903 161.608L150.449 202.748C143.041 207.196 133.43 209.649 123.383 209.649Z" fill="black"/>
<path fill-rule="evenodd" clip-rule="evenodd" d="M239.997 110.704L222.912 101.639L150.847 145.581C143.419 150.113 133.78 152.605 123.71 152.605C114.975 152.605 106.858 150.747 100.232 147.235L25.4532 107.56L7.50854 118.504C-2.65336 124.701 -2.47928 134.193 7.90109 139.701L106.581 192.053C111.37 194.593 117.501 195.841 123.71 195.841C130.957 195.841 138.316 194.141 143.788 190.805L240.393 131.901C250.555 125.707 250.377 116.211 239.997 110.704Z" fill="black"/>
<path fill-rule="evenodd" clip-rule="evenodd" d="M239.997 55.1637L141.317 3.72545C136.528 1.22601 130.4 0 124.188 0C116.941 0 109.582 1.67306 104.11 4.95146L7.50854 62.8314C-2.65336 68.9174 -2.47928 78.2446 7.90109 83.6566L106.581 135.102C111.37 137.598 117.501 138.824 123.71 138.824C130.957 138.824 138.316 137.151 143.788 133.872L240.393 75.9924C250.555 69.9064 250.377 60.5758 239.997 55.1637Z" fill="black"/>
</svg>
